<?xml version="1.0" encoding="utf-8" standalone="no"?>
<!DOCTYPE svg PUBLIC "-//W3C//DTD SVG 1.1//EN"
  "http://www.w3.org/Graphics/SVG/1.1/DTD/svg11.dtd">
<!-- Created with matplotlib (https://matplotlib.org/) -->
<svg height="576pt" version="1.1" viewBox="0 0 1008 576" width="1008pt" xmlns="http://www.w3.org/2000/svg" xmlns:xlink="http://www.w3.org/1999/xlink">
 <metadata>
  <rdf:RDF xmlns:cc="http://creativecommons.org/ns#" xmlns:dc="http://purl.org/dc/elements/1.1/" xmlns:rdf="http://www.w3.org/1999/02/22-rdf-syntax-ns#">
   <cc:Work>
    <dc:type rdf:resource="http://purl.org/dc/dcmitype/StillImage"/>
    <dc:date>2022-01-13T02:20:45.791377</dc:date>
    <dc:format>image/svg+xml</dc:format>
    <dc:creator>
     <cc:Agent>
      <dc:title>Matplotlib v3.3.4, https://matplotlib.org/</dc:title>
     </cc:Agent>
    </dc:creator>
   </cc:Work>
  </rdf:RDF>
 </metadata>
 <defs>
  <style type="text/css">*{stroke-linecap:butt;stroke-linejoin:round;}</style>
 </defs>
 <g id="figure_1">
  <g id="patch_1">
   <path d="M 0 576 
L 1008 576 
L 1008 0 
L 0 0 
z
" style="fill:#ffffff;"/>
  </g>
  <g id="axes_1">
   <g id="line2d_1">
    <path clip-path="url(#pd7616cff7d)" d="M 222.247059 102.776471 
L 710.152941 102.776471 
" style="fill:none;stroke:#000000;stroke-dasharray:3.2,0.8,0.5,0.8;stroke-dashoffset:0;stroke-width:0.5;"/>
   </g>
   <g id="line2d_2">
    <path clip-path="url(#pd7616cff7d)" d="M 276.458824 101.421176 
L 276.621459 86.896519 
L 276.946729 85.814615 
L 277.434635 85.131289 
L 278.085176 84.649632 
L 278.979671 84.273339 
L 280.280753 83.975056 
L 282.232376 83.776363 
L 284.997176 83.734445 
L 288.900424 83.91069 
L 294.186071 84.383095 
L 300.935435 85.218978 
L 308.741929 86.413073 
L 317.036329 87.906749 
L 325.086776 89.579695 
L 332.405365 91.322566 
L 338.748141 93.05496 
L 344.033788 94.721017 
L 348.262306 96.275366 
L 351.596329 97.729217 
L 354.035859 99.021923 
L 355.743529 100.158022 
L 356.881976 101.16616 
L 357.532518 102.031092 
L 357.695153 102.387979 
L 357.776471 102.776471 
L 357.776471 102.776471 
L 357.532518 105.012606 
L 357.044612 107.065748 
L 356.231435 109.454132 
L 355.174306 111.866648 
L 353.791906 114.468001 
L 352.084235 117.203041 
L 350.051294 120.039089 
L 347.611765 123.048775 
L 344.846965 126.101352 
L 341.675576 129.264808 
L 338.178918 132.438537 
L 334.275671 135.679299 
L 330.047153 138.901755 
L 325.493365 142.094277 
L 320.614306 145.240599 
L 315.572612 148.225693 
L 310.4496 150.999412 
L 305.407906 153.475547 
L 300.691482 155.550071 
L 296.381647 157.211962 
L 292.559718 158.455458 
L 289.307012 159.288219 
L 286.623529 159.755978 
L 284.427953 159.921579 
L 282.638965 159.835467 
L 281.256565 159.555214 
L 280.118118 159.098457 
L 279.223624 158.502922 
L 278.491765 157.749491 
L 277.922541 156.867371 
L 277.434635 155.712016 
L 277.028047 154.121315 
L 276.784094 152.454719 
L 276.621459 150.416326 
L 276.540141 148.434355 
L 276.458824 106.842353 
L 276.458824 106.842353 
" style="fill:none;stroke:#1f77b4;stroke-linecap:square;stroke-width:5;"/>
   </g>
   <g id="line2d_3">
    <path clip-path="url(#pd7616cff7d)" d="M 276.458824 101.421176 
L 276.621459 87.557176 
L 276.946729 86.500867 
L 277.434635 85.814615 
L 278.085176 85.309199 
L 279.060988 84.856083 
L 280.524706 84.45213 
L 282.638965 84.118096 
L 285.729035 83.86695 
L 290.282824 83.734912 
L 296.788235 83.783301 
L 305.895812 84.08899 
L 317.768188 84.71949 
L 332.242729 85.714721 
L 348.343624 87.044254 
L 364.769788 88.621761 
L 380.220141 90.325223 
L 393.881506 92.04823 
L 405.591247 93.742726 
L 415.186729 95.348621 
L 422.830588 96.846519 
L 428.522824 98.172916 
L 432.751341 99.370637 
L 435.678776 100.414721 
L 437.467765 101.254589 
L 438.443576 101.892437 
L 438.931482 102.387979 
L 439.094118 102.776471 
L 438.768847 104.534638 
L 438.118306 106.14935 
L 437.142494 107.862998 
L 435.841412 109.660016 
L 434.215059 111.526313 
L 432.1008 113.600473 
L 429.498635 115.821185 
L 426.408565 118.151298 
L 422.830588 120.566326 
L 418.602071 123.143382 
L 413.723012 125.844365 
L 408.193412 128.640532 
L 402.013271 131.508962 
L 395.182588 134.430157 
L 387.701365 137.386305 
L 379.5696 140.35983 
L 370.787294 143.331938 
L 361.517082 146.231966 
L 351.9216 148.999556 
L 342.163482 151.580786 
L 332.568 153.887694 
L 323.460424 155.849141 
L 315.166024 157.412271 
L 307.847435 158.572347 
L 301.504659 159.35707 
L 296.300329 159.785639 
L 292.071812 159.923419 
L 288.656471 159.825103 
L 285.891671 159.530661 
L 283.777412 159.098457 
L 281.988424 158.502922 
L 280.687341 157.850144 
L 279.548894 157.016679 
L 278.735718 156.157492 
L 278.085176 155.178286 
L 277.597271 154.121315 
L 277.109365 152.454719 
L 276.784094 150.416326 
L 276.621459 148.434355 
L 276.458824 106.842353 
L 276.458824 106.842353 
" style="fill:none;stroke:#ff7f0e;stroke-linecap:square;stroke-width:5;"/>
   </g>
   <g id="line2d_4">
    <path clip-path="url(#pd7616cff7d)" d="M 276.458824 101.421176 
L 276.702776 87.557176 
L 277.190682 86.500867 
L 277.922541 85.814615 
L 278.898353 85.309199 
L 280.362071 84.856083 
L 282.557647 84.45213 
L 285.729035 84.118096 
L 290.364141 83.86695 
L 297.194824 83.734912 
L 306.952941 83.783301 
L 320.614306 84.08899 
L 338.422871 84.71949 
L 360.134682 85.714721 
L 384.286024 87.044254 
L 408.925271 88.621761 
L 432.1008 90.325223 
L 452.592847 92.04823 
L 470.157459 93.742726 
L 484.550682 95.348621 
L 495.772518 96.811823 
L 504.554824 98.172916 
L 510.8976 99.370637 
L 515.288753 100.414721 
L 517.972235 101.254589 
L 519.435953 101.892437 
L 520.167812 102.387979 
L 520.411765 102.776471 
L 520.167812 103.941947 
L 519.435953 105.428572 
L 518.460141 106.776521 
L 516.996424 108.349385 
L 515.0448 110.059515 
L 512.605271 111.866648 
L 509.677835 113.748393 
L 506.018541 115.821185 
L 501.627388 118.035084 
L 496.504376 120.356811 
L 490.649506 122.762968 
L 483.818824 125.323757 
L 476.012329 128.004246 
L 467.230024 130.776942 
L 457.471906 133.619103 
L 446.737976 136.510747 
L 435.028235 139.433038 
L 422.342682 142.366798 
L 408.925271 145.240599 
L 394.776 148.04086 
L 380.382776 150.661467 
L 365.989553 153.055032 
L 352.084235 155.141374 
L 339.154729 156.857532 
L 327.688941 158.161922 
L 317.686871 159.084155 
L 309.148518 159.652846 
L 302.317835 159.898321 
L 296.706918 159.890588 
L 292.315765 159.681724 
L 288.656471 159.292272 
L 285.972988 158.807467 
L 283.777412 158.206746 
L 282.069741 157.531817 
L 280.606024 156.708077 
L 279.630212 155.94411 
L 278.6544 154.867395 
L 277.922541 153.662037 
L 277.434635 152.454719 
L 276.946729 150.416326 
L 276.702776 148.434355 
L 276.458824 106.842353 
L 276.458824 106.842353 
" style="fill:none;stroke:#2ca02c;stroke-linecap:square;stroke-width:5;"/>
   </g>
   <g id="line2d_5">
    <path clip-path="url(#pd7616cff7d)" d="M 276.458824 101.421176 
L 276.784094 87.557176 
L 277.109365 86.896519 
L 277.759906 86.217054 
L 278.735718 85.661522 
L 280.0368 85.215935 
L 281.988424 84.799269 
L 284.915859 84.418579 
L 289.469647 84.081605 
L 295.975059 83.842386 
L 305.407906 83.729972 
L 319.069271 83.805464 
L 337.934965 84.14748 
L 362.330259 84.820429 
L 391.929882 85.864173 
L 424.456941 87.234752 
L 456.984 88.824503 
L 487.559435 90.538088 
L 514.556894 92.269891 
L 537.325835 93.947025 
L 555.866259 95.526844 
L 570.503435 96.986806 
L 581.562635 98.299282 
L 589.6944 99.474932 
L 595.224 100.481956 
L 598.801976 101.346711 
L 600.7536 102.031092 
L 601.404141 102.387979 
L 601.729412 102.776471 
L 601.729412 102.776471 
L 601.404141 103.941947 
L 600.7536 105.012606 
L 599.777788 106.14935 
L 598.151435 107.607402 
L 596.199812 109.028528 
L 593.597647 110.631816 
L 590.344941 112.361125 
L 586.441694 114.183996 
L 581.562635 116.208036 
L 575.707765 118.381858 
L 568.877082 120.670413 
L 561.070588 123.048775 
L 551.963012 125.585186 
L 541.554353 128.244304 
L 529.844612 130.998155 
L 516.833788 133.823541 
L 502.521882 136.700064 
L 486.908894 139.608517 
L 469.994824 142.529377 
L 452.104941 145.391072 
L 433.564518 148.133408 
L 414.373553 150.746343 
L 395.507859 153.093603 
L 377.292706 155.141374 
L 360.053365 156.857532 
L 344.765647 158.161922 
L 331.429553 159.084155 
L 320.045082 159.652846 
L 310.937506 159.898321 
L 303.456282 159.890588 
L 297.601412 159.681724 
L 292.722353 159.292272 
L 289.144376 158.807467 
L 286.216941 158.206746 
L 283.940047 157.531817 
L 281.988424 156.708077 
L 280.687341 155.94411 
L 279.711529 155.178286 
L 278.735718 154.121315 
L 278.085176 153.118603 
L 277.434635 151.603282 
L 277.109365 150.416326 
L 276.784094 148.434355 
L 276.458824 106.842353 
L 276.458824 106.842353 
" style="fill:none;stroke:#d62728;stroke-linecap:square;stroke-width:5;"/>
   </g>
   <g id="line2d_6">
    <path clip-path="url(#pd7616cff7d)" d="M 276.458824 101.421176 
L 276.865412 87.557176 
L 277.272 86.896519 
L 278.085176 86.217054 
L 279.304941 85.661522 
L 280.931294 85.215935 
L 283.370824 84.799269 
L 287.030118 84.418579 
L 292.722353 84.081605 
L 300.854118 83.842386 
L 312.645176 83.729972 
L 329.721882 83.805464 
L 353.304 84.14748 
L 383.798118 84.820429 
L 420.797647 85.864173 
L 461.456471 87.234752 
L 502.115294 88.824503 
L 540.334588 90.538088 
L 574.081412 92.269891 
L 602.542588 93.947025 
L 625.718118 95.526844 
L 644.014588 96.986806 
L 657.838588 98.299282 
L 668.003294 99.474932 
L 674.915294 100.481956 
L 679.387765 101.346711 
L 681.827294 102.031092 
L 682.640471 102.387979 
L 683.047059 102.776471 
L 683.047059 102.776471 
L 682.640471 103.941947 
L 681.827294 105.012606 
L 680.607529 106.14935 
L 678.981176 107.342117 
L 676.541647 108.808048 
L 673.695529 110.253653 
L 670.036235 111.866648 
L 665.563765 113.600473 
L 659.871529 115.558706 
L 652.959529 117.682565 
L 644.827765 119.932235 
L 635.476235 122.279784 
L 624.498353 124.793905 
L 612.300706 127.355251 
L 598.476706 130.029217 
L 583.026353 132.789757 
L 565.949647 135.614579 
L 547.246588 138.483411 
L 526.917176 141.376465 
L 504.961412 144.272836 
L 481.785882 147.100843 
L 458.203765 149.754612 
L 434.215059 152.229473 
L 411.039529 154.399887 
L 389.083765 156.237601 
L 369.160941 157.68978 
L 351.271059 158.774188 
L 336.227294 159.470154 
L 323.623059 159.837277 
L 313.458353 159.920402 
L 305.326588 159.776795 
L 298.821176 159.450404 
L 293.535529 158.961869 
L 289.469647 158.361468 
L 286.623529 157.749491 
L 284.184 157.016679 
L 282.151059 156.157492 
L 280.931294 155.458078 
L 279.711529 154.518345 
L 278.898353 153.662037 
L 278.085176 152.454719 
L 277.678588 151.603282 
L 277.272 150.416326 
L 276.865412 148.434355 
L 276.458824 106.842353 
L 276.458824 106.842353 
" style="fill:none;stroke:#9467bd;stroke-linecap:square;stroke-width:5;"/>
   </g>
   <g id="line2d_7">
    <path clip-path="url(#pd7616cff7d)" d="M 222.247059 211.2 
L 222.247059 57.6 
" style="fill:none;stroke:#000000;stroke-dasharray:3.2,0.8,0.5,0.8;stroke-dashoffset:0;stroke-width:0.5;"/>
   </g>
   <g id="text_1">
    <!-- $\^r_1$ = 0.4 -->
    <g transform="translate(417.6 41.549063)scale(0.3 -0.3)">
     <defs>
      <path d="M -7.5 50.703125 
L -10.90625 50.703125 
L -23.09375 61 
L -35.203125 50.703125 
L -38.59375 50.703125 
L -26.203125 67.40625 
L -20 67.40625 
z
" id="STIXGeneral-Regular-770"/>
      <path d="M 17.59375 22.296875 
L 19.203125 25.796875 
Q 22.59375 33.296875 28.59375 39.59375 
Q 32.90625 44.09375 36.5 44.09375 
Q 38.59375 44.09375 39.890625 42.6875 
Q 41.203125 41.296875 41.203125 39 
Q 41.203125 36.703125 39.953125 35.140625 
Q 38.703125 33.59375 36.5 33.59375 
Q 34.59375 33.59375 33 36.203125 
Q 32.203125 37.59375 31.40625 37.59375 
Q 28.703125 37.59375 23.203125 28.203125 
Q 19.796875 22.40625 17.75 17.25 
Q 15.703125 12.09375 12.09375 0 
L 4.5 0 
L 12.59375 29.203125 
Q 14.203125 35.09375 14.203125 37.40625 
Q 14.203125 40 10.40625 40 
Q 9.59375 40 7.296875 39.703125 
L 7.296875 41.40625 
L 22.796875 44.09375 
L 23.09375 43.90625 
z
" id="STIXGeneral-Italic-114"/>
      <path d="M 39.40625 0 
L 11.796875 0 
L 11.796875 1.5 
Q 17.296875 1.796875 19.296875 3.546875 
Q 21.296875 5.296875 21.296875 9.5 
L 21.296875 54.40625 
Q 21.296875 59.296875 18.296875 59.296875 
Q 16.90625 59.296875 13.796875 58.09375 
L 11.09375 57.09375 
L 11.09375 58.5 
L 29 67.59375 
L 29.90625 67.296875 
L 29.90625 7.59375 
Q 29.90625 4.296875 31.90625 2.890625 
Q 33.90625 1.5 39.40625 1.5 
z
" id="STIXGeneral-Regular-49"/>
      <path id="STIXGeneral-Regular-32"/>
      <path d="M 63.703125 32 
L 4.796875 32 
L 4.796875 38.59375 
L 63.703125 38.59375 
z
M 63.703125 12 
L 4.796875 12 
L 4.796875 18.59375 
L 63.703125 18.59375 
z
" id="STIXGeneral-Regular-61"/>
      <path d="M 47.59375 33 
Q 47.59375 26.296875 46.296875 20.34375 
Q 45 14.40625 42.453125 9.40625 
Q 39.90625 4.40625 35.40625 1.5 
Q 30.90625 -1.40625 25 -1.40625 
Q 18.90625 -1.40625 14.296875 1.6875 
Q 9.703125 4.796875 7.203125 10 
Q 4.703125 15.203125 3.546875 21.09375 
Q 2.40625 27 2.40625 33.59375 
Q 2.40625 42.90625 4.703125 50.34375 
Q 7 57.796875 12.34375 62.6875 
Q 17.703125 67.59375 25.40625 67.59375 
Q 35.203125 67.59375 41.390625 58 
Q 47.59375 48.40625 47.59375 33 
z
M 38 32.5 
Q 38 48.296875 34.640625 56.640625 
Q 31.296875 65 24.796875 65 
Q 18.59375 65 15.296875 56.59375 
Q 12 48.203125 12 32.90625 
Q 12 17.5 15.296875 9.34375 
Q 18.59375 1.203125 25 1.203125 
Q 31.296875 1.203125 34.640625 9.34375 
Q 38 17.5 38 32.5 
z
" id="STIXGeneral-Regular-48"/>
      <path d="M 18.09375 4.296875 
Q 18.09375 2.09375 16.4375 0.5 
Q 14.796875 -1.09375 12.5 -1.09375 
Q 10.203125 -1.09375 8.59375 0.5 
Q 7 2.09375 7 4.390625 
Q 7 6.703125 8.640625 8.34375 
Q 10.296875 10 12.59375 10 
Q 14.796875 10 16.4375 8.296875 
Q 18.09375 6.59375 18.09375 4.296875 
z
" id="STIXGeneral-Regular-46"/>
      <path d="M 47.296875 16.703125 
L 37 16.703125 
L 37 0 
L 29.203125 0 
L 29.203125 16.703125 
L 1.203125 16.703125 
L 1.203125 23.09375 
L 32.59375 67.59375 
L 37 67.59375 
L 37 23.09375 
L 47.296875 23.09375 
z
M 29.203125 23.09375 
L 29.203125 57.40625 
L 5.203125 23.09375 
z
" id="STIXGeneral-Regular-52"/>
     </defs>
     <use transform="translate(45.765625 6.59375)" xlink:href="#STIXGeneral-Regular-770"/>
     <use transform="translate(0 0.703125)" xlink:href="#STIXGeneral-Italic-114"/>
     <use transform="translate(40.443275 -12.525)scale(0.7)" xlink:href="#STIXGeneral-Regular-49"/>
     <use transform="translate(79.852639 0.703125)" xlink:href="#STIXGeneral-Regular-32"/>
     <use transform="translate(104.852624 0.703125)" xlink:href="#STIXGeneral-Regular-61"/>
     <use transform="translate(173.352609 0.703125)" xlink:href="#STIXGeneral-Regular-32"/>
     <use transform="translate(198.352594 0.703125)" xlink:href="#STIXGeneral-Regular-48"/>
     <use transform="translate(248.352578 0.703125)" xlink:href="#STIXGeneral-Regular-46"/>
     <use transform="translate(273.352563 0.703125)" xlink:href="#STIXGeneral-Regular-52"/>
    </g>
   </g>
   <g id="text_2">
    <!-- $r_R$ -->
    <g transform="translate(236.302941 82.659651)scale(0.3 -0.3)">
     <defs>
      <path d="M 13.203125 65.296875 
L 38.40625 65.296875 
Q 48.09375 65.296875 53.4375 61.5 
Q 58.796875 57.703125 58.796875 51.203125 
Q 58.796875 43.40625 52.203125 38.40625 
Q 48.296875 35.40625 39.09375 33.296875 
L 48 9.796875 
Q 49.703125 5.203125 51.546875 3.390625 
Q 53.40625 1.59375 56.703125 1.59375 
L 56.703125 0 
L 42 0 
L 29.703125 32.40625 
L 23.09375 32.90625 
L 17.59375 12.59375 
Q 16.296875 8 16.296875 6.296875 
Q 16.296875 4 17.59375 3 
Q 18.90625 2 23 1.59375 
L 23 0 
L -1.296875 0 
L -1.296875 1.59375 
Q 2.703125 2.09375 4.34375 3.796875 
Q 6 5.5 7.203125 10.09375 
L 19.09375 53.203125 
Q 20.296875 57.796875 20.296875 59.5 
Q 20.296875 61.296875 18.90625 62.296875 
Q 17.703125 63.09375 13.203125 63.703125 
z
M 30.59375 59.296875 
L 24.296875 36.59375 
Q 27.40625 36.09375 29.40625 36.09375 
Q 38.296875 36.09375 43.296875 40.09375 
Q 48.296875 44.09375 48.296875 51.09375 
Q 48.296875 56.296875 45.1875 59.296875 
Q 42.09375 62.296875 36.296875 62.296875 
Q 31.40625 62.296875 30.59375 59.296875 
z
" id="STIXGeneral-Italic-82"/>
     </defs>
     <use transform="translate(0 0.90625)" xlink:href="#STIXGeneral-Italic-114"/>
     <use transform="translate(38.899994 -12.321875)scale(0.7)" xlink:href="#STIXGeneral-Italic-82"/>
    </g>
   </g>
   <g id="text_3">
    <!-- $o$ -->
    <g transform="translate(203.904706 109.765533)scale(0.3 -0.3)">
     <defs>
      <path d="M 46.796875 30.09375 
Q 46.796875 24.40625 43.9375 18.25 
Q 41.09375 12.09375 36.203125 7.203125 
Q 27.90625 -1.09375 17.40625 -1.09375 
Q 10.40625 -1.09375 6.546875 2.546875 
Q 2.703125 6.203125 2.703125 12.796875 
Q 2.703125 21.09375 7.75 29 
Q 12.796875 36.90625 20.703125 41.09375 
Q 26.296875 44.09375 32.703125 44.09375 
Q 38.90625 44.09375 42.84375 40.34375 
Q 46.796875 36.59375 46.796875 30.09375 
z
M 38.40625 32.59375 
Q 38.40625 37.09375 36.5 39.546875 
Q 34.59375 42 31.296875 42 
Q 24.59375 42 18.5 32.90625 
Q 11.09375 21.59375 11.09375 10.09375 
Q 11.09375 5.703125 13.1875 3.34375 
Q 15.296875 1 18.90625 1 
Q 25 1 31 9.296875 
Q 34.40625 13.90625 36.40625 20.34375 
Q 38.40625 26.796875 38.40625 32.59375 
z
" id="STIXGeneral-Italic-111"/>
     </defs>
     <use transform="translate(0 0.90625)" xlink:href="#STIXGeneral-Italic-111"/>
    </g>
   </g>
   <g id="patch_2">
    <path d="M 273.897968 89.223529 
Q 249.351034 89.223529 224.245083 89.223529 
" style="fill:none;stroke:#000000;stroke-dasharray:3.2,0.8,0.5,0.8;stroke-dashoffset:0;stroke-linecap:round;stroke-width:0.5;"/>
    <path d="M 261.897968 83.223529 
L 273.897968 89.223529 
L 261.897968 95.223529 
" style="fill:none;stroke:#000000;stroke-dasharray:3.2,0.8,0.5,0.8;stroke-dashoffset:0;stroke-linecap:round;stroke-width:0.5;"/>
   </g>
   <g id="legend_1">
    <g id="line2d_8">
     <path d="M 702.621124 88.8375 
L 752.601124 88.8375 
" style="fill:none;stroke:#1f77b4;stroke-linecap:square;stroke-width:5;"/>
    </g>
    <g id="line2d_9"/>
    <g id="text_4">
     <!-- $AR$ = 1.5 -->
     <g transform="translate(772.593124 97.584)scale(0.2499 -0.2499)">
      <defs>
       <path d="M 56.40625 0 
L 31.90625 0 
L 31.90625 1.59375 
Q 36.40625 1.796875 38 3 
Q 39.59375 4.203125 39.59375 6.90625 
Q 39.59375 7.703125 39.40625 9.5 
L 37.40625 22.59375 
L 15.40625 22.59375 
L 9.5 11.5 
Q 7.296875 7.40625 7.296875 4.90625 
Q 7.296875 1.90625 13.5 1.59375 
L 13.5 0 
L -5.09375 0 
L -5.09375 1.59375 
Q -1.703125 2.296875 0.4375 4.796875 
Q 2.59375 7.296875 8.296875 17.203125 
L 36.796875 66.796875 
L 39.40625 66.796875 
L 48.59375 11.5 
Q 49.59375 5.296875 51 3.59375 
Q 52.40625 1.90625 56.40625 1.59375 
z
M 36.90625 26.203125 
L 32.40625 52.5 
L 17.5 26.203125 
z
" id="STIXGeneral-Italic-65"/>
       <path d="M 43.796875 68.09375 
L 40.203125 59.59375 
Q 39.59375 58.296875 37.5 58.296875 
L 18.09375 58.296875 
L 14.09375 49.796875 
Q 25.09375 47.703125 30 45.25 
Q 34.90625 42.796875 39.09375 37 
Q 42.59375 32.203125 42.59375 24.296875 
Q 42.59375 17.09375 40.25 12.1875 
Q 37.90625 7.296875 32.796875 3.5 
Q 26 -1.40625 15.796875 -1.40625 
Q 10.09375 -1.40625 6.59375 0.296875 
Q 3.09375 2 3.09375 4.796875 
Q 3.09375 8.59375 7.59375 8.59375 
Q 11.203125 8.59375 15 5.5 
Q 18.90625 2.296875 22.09375 2.296875 
Q 27.296875 2.296875 31.4375 7.5 
Q 35.59375 12.703125 35.59375 19.203125 
Q 35.59375 28.796875 28.90625 34.203125 
Q 20.203125 41.203125 7.59375 41.203125 
Q 6.40625 41.203125 6.40625 42 
L 6.5 42.5 
L 17.40625 66.203125 
L 38.09375 66.203125 
Q 39.796875 66.203125 40.75 66.703125 
Q 41.703125 67.203125 42.90625 68.796875 
z
" id="STIXGeneral-Regular-53"/>
      </defs>
      <use transform="translate(0 0.203125)" xlink:href="#STIXGeneral-Italic-65"/>
      <use transform="translate(61.099991 0.203125)" xlink:href="#STIXGeneral-Italic-82"/>
      <use transform="translate(122.199982 0.203125)" xlink:href="#STIXGeneral-Regular-32"/>
      <use transform="translate(147.199966 0.203125)" xlink:href="#STIXGeneral-Regular-61"/>
      <use transform="translate(215.699951 0.203125)" xlink:href="#STIXGeneral-Regular-32"/>
      <use transform="translate(240.699936 0.203125)" xlink:href="#STIXGeneral-Regular-49"/>
      <use transform="translate(290.699921 0.203125)" xlink:href="#STIXGeneral-Regular-46"/>
      <use transform="translate(315.699905 0.203125)" xlink:href="#STIXGeneral-Regular-53"/>
     </g>
    </g>
    <g id="line2d_10">
     <path d="M 702.621124 124.249111 
L 752.601124 124.249111 
" style="fill:none;stroke:#ff7f0e;stroke-linecap:square;stroke-width:5;"/>
    </g>
    <g id="line2d_11"/>
    <g id="text_5">
     <!-- $AR$ = 3.0 -->
     <g transform="translate(772.593124 132.995611)scale(0.2499 -0.2499)">
      <defs>
       <path d="M 6.09375 51 
L 4.5 51.40625 
Q 6.796875 58.90625 11.6875 63.25 
Q 16.59375 67.59375 24.09375 67.59375 
Q 31.09375 67.59375 35.390625 63.796875 
Q 39.703125 60 39.703125 53.90625 
Q 39.703125 45.703125 30.40625 40.09375 
Q 35.90625 37.703125 38.703125 34.796875 
Q 43.09375 29.90625 43.09375 21.90625 
Q 43.09375 13.90625 38.5 7.90625 
Q 35.09375 3.296875 28.75 0.9375 
Q 22.40625 -1.40625 15.296875 -1.40625 
Q 4.09375 -1.40625 4.09375 4.296875 
Q 4.09375 5.90625 5.296875 6.90625 
Q 6.5 7.90625 8.203125 7.90625 
Q 10.703125 7.90625 14.296875 5.296875 
Q 18.703125 2.203125 22.90625 2.203125 
Q 28.40625 2.203125 32.15625 6.640625 
Q 35.90625 11.09375 35.90625 17.5 
Q 35.90625 29 25.5 32 
Q 22.40625 33 15.296875 33 
L 15.296875 34.40625 
Q 20.90625 36.296875 23.703125 38 
Q 31.796875 42.59375 31.796875 51.40625 
Q 31.796875 56.40625 28.9375 59 
Q 26.09375 61.59375 21 61.59375 
Q 12 61.59375 6.09375 51 
z
" id="STIXGeneral-Regular-51"/>
      </defs>
      <use transform="translate(0 0.40625)" xlink:href="#STIXGeneral-Italic-65"/>
      <use transform="translate(61.099991 0.40625)" xlink:href="#STIXGeneral-Italic-82"/>
      <use transform="translate(122.199982 0.40625)" xlink:href="#STIXGeneral-Regular-32"/>
      <use transform="translate(147.199966 0.40625)" xlink:href="#STIXGeneral-Regular-61"/>
      <use transform="translate(215.699951 0.40625)" xlink:href="#STIXGeneral-Regular-32"/>
      <use transform="translate(240.699936 0.40625)" xlink:href="#STIXGeneral-Regular-51"/>
      <use transform="translate(290.699921 0.40625)" xlink:href="#STIXGeneral-Regular-46"/>
      <use transform="translate(315.699905 0.40625)" xlink:href="#STIXGeneral-Regular-48"/>
     </g>
    </g>
    <g id="line2d_12">
     <path d="M 702.621124 159.660722 
L 752.601124 159.660722 
" style="fill:none;stroke:#2ca02c;stroke-linecap:square;stroke-width:5;"/>
    </g>
    <g id="line2d_13"/>
    <g id="text_6">
     <!-- $AR$ = 4.5 -->
     <g transform="translate(772.593124 168.407222)scale(0.2499 -0.2499)">
      <use transform="translate(0 0.203125)" xlink:href="#STIXGeneral-Italic-65"/>
      <use transform="translate(61.099991 0.203125)" xlink:href="#STIXGeneral-Italic-82"/>
      <use transform="translate(122.199982 0.203125)" xlink:href="#STIXGeneral-Regular-32"/>
      <use transform="translate(147.199966 0.203125)" xlink:href="#STIXGeneral-Regular-61"/>
      <use transform="translate(215.699951 0.203125)" xlink:href="#STIXGeneral-Regular-32"/>
      <use transform="translate(240.699936 0.203125)" xlink:href="#STIXGeneral-Regular-52"/>
      <use transform="translate(290.699921 0.203125)" xlink:href="#STIXGeneral-Regular-46"/>
      <use transform="translate(315.699905 0.203125)" xlink:href="#STIXGeneral-Regular-53"/>
     </g>
    </g>
    <g id="line2d_14">
     <path d="M 702.621124 195.072333 
L 752.601124 195.072333 
" style="fill:none;stroke:#d62728;stroke-linecap:square;stroke-width:5;"/>
    </g>
    <g id="line2d_15"/>
    <g id="text_7">
     <!-- $AR$ = 6.0 -->
     <g transform="translate(772.593124 203.818833)scale(0.2499 -0.2499)">
      <defs>
       <path d="M 44.59375 68.40625 
L 44.796875 66.796875 
Q 33 64.90625 25.09375 57.25 
Q 17.203125 49.59375 15.203125 38.296875 
Q 21 42.796875 27.90625 42.796875 
Q 36.703125 42.796875 41.75 37.1875 
Q 46.796875 31.59375 46.796875 21.90625 
Q 46.796875 12.09375 41.703125 5.90625 
Q 35.796875 -1.40625 25.796875 -1.40625 
Q 13.59375 -1.40625 8.09375 8.703125 
Q 3.40625 17.296875 3.40625 27.90625 
Q 3.40625 44.296875 14.296875 55.5 
Q 20.5 61.90625 27.046875 64.546875 
Q 33.59375 67.203125 44.59375 68.40625 
z
M 37.796875 18.796875 
Q 37.796875 38.203125 24.296875 38.203125 
Q 19.296875 38.203125 16 35.546875 
Q 12.703125 32.90625 12.703125 26.59375 
Q 12.703125 14.90625 16.34375 8.15625 
Q 20 1.40625 26.90625 1.40625 
Q 32.203125 1.40625 35 6.15625 
Q 37.796875 10.90625 37.796875 18.796875 
z
" id="STIXGeneral-Regular-54"/>
      </defs>
      <use transform="translate(0 0.59375)" xlink:href="#STIXGeneral-Italic-65"/>
      <use transform="translate(61.099991 0.59375)" xlink:href="#STIXGeneral-Italic-82"/>
      <use transform="translate(122.199982 0.59375)" xlink:href="#STIXGeneral-Regular-32"/>
      <use transform="translate(147.199966 0.59375)" xlink:href="#STIXGeneral-Regular-61"/>
      <use transform="translate(215.699951 0.59375)" xlink:href="#STIXGeneral-Regular-32"/>
      <use transform="translate(240.699936 0.59375)" xlink:href="#STIXGeneral-Regular-54"/>
      <use transform="translate(290.699921 0.59375)" xlink:href="#STIXGeneral-Regular-46"/>
      <use transform="translate(315.699905 0.59375)" xlink:href="#STIXGeneral-Regular-48"/>
     </g>
    </g>
    <g id="line2d_16">
     <path d="M 702.621124 230.483944 
L 752.601124 230.483944 
" style="fill:none;stroke:#9467bd;stroke-linecap:square;stroke-width:5;"/>
    </g>
    <g id="line2d_17"/>
    <g id="text_8">
     <!-- $AR$ = 7.5 -->
     <g transform="translate(772.593124 239.230444)scale(0.2499 -0.2499)">
      <defs>
       <path d="M 44.90625 64.59375 
L 23.703125 -0.796875 
L 17.203125 -0.796875 
L 37 58.796875 
L 15.5 58.796875 
Q 11.203125 58.796875 9.09375 57.296875 
Q 7 55.796875 3.796875 50.59375 
L 2 51.5 
L 8 66.203125 
L 44.90625 66.203125 
z
" id="STIXGeneral-Regular-55"/>
      </defs>
      <use transform="translate(0 0.203125)" xlink:href="#STIXGeneral-Italic-65"/>
      <use transform="translate(61.099991 0.203125)" xlink:href="#STIXGeneral-Italic-82"/>
      <use transform="translate(122.199982 0.203125)" xlink:href="#STIXGeneral-Regular-32"/>
      <use transform="translate(147.199966 0.203125)" xlink:href="#STIXGeneral-Regular-61"/>
      <use transform="translate(215.699951 0.203125)" xlink:href="#STIXGeneral-Regular-32"/>
      <use transform="translate(240.699936 0.203125)" xlink:href="#STIXGeneral-Regular-55"/>
      <use transform="translate(290.699921 0.203125)" xlink:href="#STIXGeneral-Regular-46"/>
      <use transform="translate(315.699905 0.203125)" xlink:href="#STIXGeneral-Regular-53"/>
     </g>
    </g>
   </g>
  </g>
  <g id="axes_2">
   <g id="line2d_18">
    <path clip-path="url(#pe33836fce1)" d="M 222.247059 256.376471 
L 710.152941 256.376471 
" style="fill:none;stroke:#000000;stroke-dasharray:3.2,0.8,0.5,0.8;stroke-dashoffset:0;stroke-width:0.5;"/>
   </g>
   <g id="line2d_19">
    <path clip-path="url(#pe33836fce1)" d="M 276.458824 255.021176 
L 276.540141 255.021176 
L 277.353318 252.667868 
L 278.166494 251.313354 
L 279.223624 250.00943 
L 280.606024 248.679834 
L 282.313694 247.364835 
L 284.346635 246.08879 
L 286.786165 244.831676 
L 289.550965 243.660761 
L 292.722353 242.562807 
L 296.300329 241.567178 
L 300.203576 240.717996 
L 304.350776 240.04351 
L 308.741929 239.553437 
L 313.295718 239.267233 
L 317.930824 239.196157 
L 322.565929 239.344421 
L 327.119718 239.709568 
L 331.510871 240.282154 
L 335.658071 241.044619 
L 339.48 241.96907 
L 342.976659 243.041233 
L 346.066729 244.21752 
L 348.750212 245.471149 
L 351.027106 246.772001 
L 352.897412 248.081756 
L 354.442447 249.423619 
L 355.662212 250.769854 
L 356.556706 252.068852 
L 357.207247 253.39761 
L 357.613835 254.758443 
L 357.695153 255.223151 
L 357.776471 256.376471 
L 357.776471 256.376471 
L 357.532518 262.292486 
L 357.044612 266.472048 
L 356.394071 270.101581 
L 355.499576 273.7997 
L 354.442447 277.235027 
L 353.141365 280.68189 
L 351.677647 283.912991 
L 350.051294 286.959664 
L 348.262306 289.83482 
L 346.310682 292.541436 
L 344.277741 294.985515 
L 342.082165 297.275442 
L 339.805271 299.329114 
L 337.447059 301.160531 
L 335.007529 302.777376 
L 332.486682 304.182603 
L 329.884518 305.375352 
L 327.282353 306.325501 
L 324.598871 307.066267 
L 321.915388 307.575131 
L 319.231906 307.859267 
L 316.548424 307.922556 
L 313.864941 307.76585 
L 311.181459 307.387032 
L 308.497976 306.780868 
L 305.895812 305.967747 
L 303.293647 304.921026 
L 300.7728 303.668991 
L 298.333271 302.21529 
L 295.893741 300.498708 
L 293.535529 298.558039 
L 291.339953 296.465561 
L 289.225694 294.144791 
L 287.274071 291.682496 
L 285.403765 288.965848 
L 283.696094 286.094992 
L 282.151059 283.069492 
L 280.768659 279.88068 
L 279.548894 276.504704 
L 278.491765 272.884996 
L 277.678588 269.299328 
L 277.109365 265.911546 
L 276.702776 262.292486 
L 276.458824 260.442353 
L 276.458824 260.442353 
" style="fill:none;stroke:#1f77b4;stroke-linecap:square;stroke-width:5;"/>
   </g>
   <g id="line2d_20">
    <path clip-path="url(#pe33836fce1)" d="M 276.458824 255.021176 
L 276.621459 255.021176 
L 278.085176 252.835048 
L 279.223624 251.801434 
L 280.849976 250.668259 
L 282.964235 249.50359 
L 285.5664 248.34034 
L 288.819106 247.142855 
L 292.722353 245.951348 
L 297.438776 244.756144 
L 302.805741 243.629628 
L 308.985882 242.562807 
L 315.9792 241.587338 
L 323.623059 240.749001 
L 331.917459 240.065932 
L 340.699765 239.567744 
L 349.807341 239.273719 
L 359.077553 239.194946 
L 368.347765 239.335464 
L 377.455341 239.692638 
L 386.237647 240.256829 
L 394.532047 241.01027 
L 402.175906 241.924846 
L 409.006588 242.958298 
L 415.186729 244.11534 
L 420.553694 245.346212 
L 424.944847 246.569305 
L 428.685459 247.833561 
L 431.612894 249.039829 
L 434.052424 250.281481 
L 435.841412 251.430289 
L 437.142494 252.508531 
L 438.118306 253.612605 
L 438.606212 254.404465 
L 438.931482 255.223151 
L 439.094118 256.376471 
L 439.094118 256.376471 
L 438.768847 261.230553 
L 438.280941 263.964346 
L 437.467765 267.000738 
L 436.491953 269.707173 
L 435.353506 272.241117 
L 433.889788 274.938242 
L 432.263435 277.47158 
L 430.311812 280.084316 
L 428.197553 282.544841 
L 425.758024 285.03482 
L 423.155859 287.377934 
L 420.228424 289.713084 
L 416.975718 292.009358 
L 413.560376 294.144791 
L 409.819765 296.214094 
L 405.916518 298.118358 
L 401.688 299.927757 
L 397.296847 301.561843 
L 392.743059 303.021576 
L 388.026635 304.305211 
L 383.147576 305.40863 
L 378.105882 306.325501 
L 372.901553 307.047272 
L 367.534588 307.56304 
L 362.167624 307.853914 
L 356.800659 307.923868 
L 351.433694 307.773844 
L 346.066729 307.401817 
L 340.699765 306.802651 
L 335.495435 305.996622 
L 330.453741 304.99357 
L 325.574682 303.80091 
L 320.858259 302.423692 
L 316.304471 300.864507 
L 311.913318 299.123205 
L 307.847435 297.275442 
L 303.944188 295.256666 
L 300.366212 293.159862 
L 296.950871 290.896512 
L 293.8608 288.580986 
L 291.096 286.241812 
L 288.493835 283.747244 
L 286.216941 281.260616 
L 284.102682 278.607749 
L 282.313694 275.999274 
L 280.849976 273.501105 
L 279.548894 270.854567 
L 278.573082 268.437649 
L 277.759906 265.911546 
L 277.109365 263.183067 
L 276.621459 260.442353 
L 276.458824 260.442353 
L 276.458824 260.442353 
" style="fill:none;stroke:#ff7f0e;stroke-linecap:square;stroke-width:5;"/>
   </g>
   <g id="line2d_21">
    <path clip-path="url(#pe33836fce1)" d="M 276.458824 255.021176 
L 276.702776 255.021176 
L 278.6544 253.011278 
L 280.118118 252.068852 
L 282.069741 251.088255 
L 284.753224 250.00943 
L 288.168565 248.893179 
L 292.559718 247.71307 
L 297.926682 246.519611 
L 304.269459 245.346212 
L 311.832 244.183265 
L 320.614306 243.069173 
L 330.372424 242.058923 
L 341.350306 241.149983 
L 353.304 240.38677 
L 366.233506 239.789429 
L 379.650918 239.393359 
L 393.556235 239.206249 
L 407.461553 239.238887 
L 421.366871 239.492606 
L 434.784282 239.956962 
L 447.469835 240.612297 
L 459.423529 241.44845 
L 470.401412 242.437761 
L 480.159529 243.537247 
L 488.697882 244.718721 
L 496.016471 245.951348 
L 502.115294 247.197631 
L 506.994353 248.406731 
L 510.8976 249.584722 
L 514.068988 250.769854 
L 516.264565 251.801434 
L 517.972235 252.835048 
L 519.192 253.847179 
L 519.923859 254.758443 
L 520.167812 255.223151 
L 520.411765 256.376471 
L 520.411765 256.376471 
L 520.167812 259.836429 
L 519.679906 262.292486 
L 518.948047 264.668067 
L 517.972235 267.000738 
L 516.752471 269.299328 
L 515.288753 271.56582 
L 513.581082 273.7997 
L 511.629459 275.999274 
L 509.189929 278.386396 
L 506.506447 280.68189 
L 503.579012 282.896216 
L 500.163671 285.18988 
L 496.504376 287.377934 
L 492.357176 289.590562 
L 487.966024 291.682496 
L 483.086965 293.757458 
L 477.963953 295.698894 
L 472.353035 297.587609 
L 466.254212 299.397035 
L 459.911435 301.04307 
L 453.324706 302.526166 
L 446.250071 303.887545 
L 438.931482 305.065145 
L 431.368941 306.05369 
L 423.562447 306.84557 
L 415.755953 307.416393 
L 407.705506 307.781635 
L 399.655059 307.924977 
L 391.604612 307.848357 
L 383.554165 307.550743 
L 375.503718 307.028064 
L 367.697224 306.299328 
L 360.134682 305.375352 
L 352.816094 304.264596 
L 345.741459 302.973292 
L 338.910776 301.505436 
L 332.324047 299.86263 
L 326.225224 298.118358 
L 320.370353 296.214094 
L 315.003388 294.240281 
L 309.880376 292.117027 
L 305.245271 289.955781 
L 301.098071 287.787346 
L 297.194824 285.496314 
L 293.779482 283.241202 
L 290.608094 280.876824 
L 287.924612 278.607749 
L 285.485082 276.25394 
L 283.533459 274.092428 
L 281.825788 271.907655 
L 280.362071 269.707173 
L 279.142306 267.502279 
L 278.166494 265.313051 
L 277.434635 263.183067 
L 276.702776 260.442353 
L 276.458824 260.442353 
L 276.458824 260.442353 
" style="fill:none;stroke:#2ca02c;stroke-linecap:square;stroke-width:5;"/>
   </g>
   <g id="line2d_22">
    <path clip-path="url(#pe33836fce1)" d="M 276.458824 255.021176 
L 276.784094 255.021176 
L 279.386259 253.011278 
L 281.337882 252.068852 
L 283.940047 251.088255 
L 287.518024 250.00943 
L 292.071812 248.893179 
L 297.601412 247.773026 
L 304.432094 246.619384 
L 312.889129 245.42923 
L 322.647247 244.286627 
L 334.031718 243.182439 
L 347.042541 242.150678 
L 361.354447 241.240482 
L 377.292706 240.454886 
L 394.206776 239.846045 
L 412.096659 239.426067 
L 430.637082 239.215538 
L 449.177506 239.225137 
L 467.717929 239.455253 
L 485.607812 239.895311 
L 502.847153 240.539446 
L 518.785412 241.352386 
L 533.422588 242.315948 
L 546.433412 243.386604 
L 557.817882 244.534944 
L 567.901271 245.772543 
L 576.358306 247.034692 
L 583.188988 248.274664 
L 588.718588 249.50359 
L 592.947106 250.668259 
L 595.874541 251.674057 
L 598.151435 252.667868 
L 599.777788 253.612605 
L 600.7536 254.404465 
L 601.404141 255.223151 
L 601.729412 256.376471 
L 601.729412 256.376471 
L 601.404141 259.836429 
L 600.7536 262.292486 
L 599.777788 264.668067 
L 598.801976 266.472048 
L 597.500894 268.437649 
L 595.874541 270.483712 
L 593.922918 272.566737 
L 591.646024 274.661439 
L 589.043859 276.751715 
L 586.116424 278.826345 
L 582.538447 281.069716 
L 578.6352 283.241202 
L 574.406682 285.343704 
L 569.527624 287.515371 
L 564.323294 289.590562 
L 558.468424 291.682496 
L 551.963012 293.757458 
L 545.132329 295.698894 
L 537.651106 297.587609 
L 529.844612 299.329114 
L 521.387576 300.983866 
L 512.605271 302.475072 
L 503.172424 303.844358 
L 493.414306 305.029478 
L 483.330918 306.025269 
L 472.922259 306.824219 
L 462.5136 307.401817 
L 451.779671 307.773844 
L 441.045741 307.923868 
L 430.311812 307.853914 
L 419.577882 307.56304 
L 408.843953 307.047272 
L 398.435294 306.325501 
L 388.351906 305.40863 
L 378.593788 304.305211 
L 369.160941 303.021576 
L 360.053365 301.561843 
L 351.271059 299.927757 
L 343.139294 298.192601 
L 335.3328 296.298363 
L 328.176847 294.335243 
L 321.671435 292.330473 
L 315.491294 290.195406 
L 309.961694 288.055542 
L 304.757365 285.797968 
L 300.203576 283.580049 
L 296.300329 281.44957 
L 292.722353 279.255584 
L 289.469647 276.995113 
L 286.867482 274.938242 
L 284.590588 272.884996 
L 282.638965 270.854567 
L 281.012612 268.876688 
L 279.711529 267.000738 
L 278.735718 265.313051 
L 277.759906 263.183067 
L 276.784094 260.442353 
L 276.458824 260.442353 
L 276.458824 260.442353 
" style="fill:none;stroke:#d62728;stroke-linecap:square;stroke-width:5;"/>
   </g>
   <g id="line2d_23">
    <path clip-path="url(#pe33836fce1)" d="M 276.458824 255.021176 
L 276.865412 255.021176 
L 280.118118 253.011278 
L 282.557647 252.068852 
L 285.810353 251.088255 
L 289.876235 250.098553 
L 295.161882 249.039829 
L 302.073882 247.894688 
L 310.612235 246.720726 
L 320.776941 245.555822 
L 332.974588 244.391803 
L 347.205176 243.268996 
L 363.062118 242.244376 
L 380.952 241.31468 
L 400.468235 240.525137 
L 421.610824 239.895311 
L 443.973176 239.455253 
L 467.148706 239.225137 
L 490.324235 239.215538 
L 513.499765 239.426067 
L 536.268706 239.855746 
L 557.817882 240.482729 
L 578.147294 241.295979 
L 596.443765 242.244376 
L 613.113882 243.327482 
L 627.751059 244.498841 
L 640.355294 245.728608 
L 650.926588 246.981287 
L 659.464941 248.209686 
L 666.376941 249.423619 
L 671.662588 250.568728 
L 675.728471 251.674057 
L 678.574588 252.667868 
L 680.607529 253.612605 
L 681.827294 254.404465 
L 682.640471 255.223151 
L 683.047059 256.376471 
L 683.047059 256.376471 
L 682.640471 259.836429 
L 681.827294 262.292486 
L 681.014118 263.964346 
L 679.794353 265.911546 
L 678.168 267.98029 
L 676.135059 270.101581 
L 674.102118 271.907655 
L 671.662588 273.7997 
L 668.816471 275.740549 
L 665.563765 277.704888 
L 661.497882 279.88068 
L 657.025412 282.005201 
L 652.146353 284.077316 
L 646.454118 286.241812 
L 640.355294 288.320058 
L 633.443294 290.432028 
L 626.124706 292.436262 
L 617.992941 294.429681 
L 609.048 296.382185 
L 599.696471 298.192601 
L 589.531765 299.927757 
L 578.960471 301.505436 
L 567.576 302.973292 
L 555.784941 304.264596 
L 543.587294 305.375352 
L 530.983059 306.299328 
L 517.972235 307.028064 
L 504.554824 307.550743 
L 491.137412 307.848357 
L 477.72 307.924977 
L 464.302588 307.781635 
L 450.885176 307.416393 
L 437.467765 306.824219 
L 424.456941 306.025269 
L 411.852706 305.029478 
L 399.655059 303.844358 
L 387.864 302.475072 
L 376.886118 300.983866 
L 366.314824 299.329114 
L 356.150118 297.510182 
L 346.798588 295.611401 
L 338.260235 293.659261 
L 330.128471 291.572236 
L 322.809882 289.467245 
L 316.304471 287.377934 
L 310.205647 285.18988 
L 304.92 283.069492 
L 300.040941 280.876824 
L 295.975059 278.826345 
L 292.315765 276.751715 
L 289.063059 274.661439 
L 286.216941 272.566737 
L 283.777412 270.483712 
L 281.744471 268.437649 
L 280.118118 266.472048 
L 278.898353 264.668067 
L 278.085176 263.183067 
L 276.865412 260.442353 
L 276.458824 260.442353 
L 276.458824 260.442353 
" style="fill:none;stroke:#9467bd;stroke-linecap:square;stroke-width:5;"/>
   </g>
   <g id="text_9">
    <!-- $\^r_1$ = 0.5 -->
    <g transform="translate(417.6 195.149063)scale(0.3 -0.3)">
     <use transform="translate(45.765625 6.59375)" xlink:href="#STIXGeneral-Regular-770"/>
     <use transform="translate(0 0.703125)" xlink:href="#STIXGeneral-Italic-114"/>
     <use transform="translate(40.443275 -12.525)scale(0.7)" xlink:href="#STIXGeneral-Regular-49"/>
     <use transform="translate(79.852639 0.703125)" xlink:href="#STIXGeneral-Regular-32"/>
     <use transform="translate(104.852624 0.703125)" xlink:href="#STIXGeneral-Regular-61"/>
     <use transform="translate(173.352609 0.703125)" xlink:href="#STIXGeneral-Regular-32"/>
     <use transform="translate(198.352594 0.703125)" xlink:href="#STIXGeneral-Regular-48"/>
     <use transform="translate(248.352578 0.703125)" xlink:href="#STIXGeneral-Regular-46"/>
     <use transform="translate(273.352563 0.703125)" xlink:href="#STIXGeneral-Regular-53"/>
    </g>
   </g>
  </g>
  <g id="axes_3">
   <g id="line2d_24">
    <path clip-path="url(#pb9e191ffa3)" d="M 222.247059 409.976471 
L 710.152941 409.976471 
" style="fill:none;stroke:#000000;stroke-dasharray:3.2,0.8,0.5,0.8;stroke-dashoffset:0;stroke-width:0.5;"/>
   </g>
   <g id="line2d_25">
    <path clip-path="url(#pb9e191ffa3)" d="M 276.458824 408.621176 
L 281.337882 408.530163 
L 284.834541 407.031308 
L 289.7136 404.678989 
L 310.124329 394.571287 
L 314.840753 392.625736 
L 318.987953 391.152226 
L 322.728565 390.055914 
L 326.143906 389.282533 
L 329.315294 388.789864 
L 332.242729 388.556165 
L 335.007529 388.558029 
L 337.609694 388.785271 
L 340.049224 389.225721 
L 342.326118 389.865428 
L 344.440376 390.688809 
L 346.392 391.678725 
L 348.262306 392.874152 
L 349.969976 394.222293 
L 351.596329 395.792407 
L 353.060047 397.517756 
L 354.361129 399.395338 
L 355.499576 401.436198 
L 356.394071 403.474733 
L 357.125929 405.716235 
L 357.532518 407.541574 
L 357.695153 408.681678 
L 357.776471 409.976471 
L 357.776471 409.976471 
L 357.532518 417.281159 
L 357.044612 423.637699 
L 356.312753 430.108101 
L 355.418259 436.084929 
L 354.361129 441.719867 
L 353.141365 447.032859 
L 351.840282 451.735134 
L 350.457882 455.923664 
L 348.994165 459.649695 
L 347.530447 462.782126 
L 346.066729 465.415638 
L 344.603012 467.618836 
L 343.139294 469.443774 
L 341.675576 470.931383 
L 340.211859 472.114775 
L 338.748141 473.021367 
L 337.284424 473.67431 
L 335.820706 474.093477 
L 334.275671 474.301409 
L 332.730635 474.286038 
L 331.104282 474.046045 
L 329.396612 473.564773 
L 327.607624 472.827125 
L 325.656 471.770677 
L 323.623059 470.413031 
L 321.427482 468.676884 
L 319.069271 466.528195 
L 316.467106 463.850185 
L 313.620988 460.594293 
L 310.4496 456.618257 
L 306.871624 451.765609 
L 302.643106 445.642779 
L 296.869553 436.857721 
L 287.518024 422.615525 
L 284.021365 417.710768 
L 281.4192 414.411754 
L 281.012612 414.042353 
L 276.458824 414.042353 
L 276.458824 414.042353 
" style="fill:none;stroke:#1f77b4;stroke-linecap:square;stroke-width:5;"/>
   </g>
   <g id="line2d_26">
    <path clip-path="url(#pb9e191ffa3)" d="M 276.458824 408.621176 
L 286.216941 408.530163 
L 293.047624 407.068429 
L 302.317835 404.841657 
L 320.858259 400.097809 
L 335.495435 396.468214 
L 345.904094 394.113513 
L 354.6864 392.348079 
L 362.655529 390.970136 
L 369.811482 389.95177 
L 376.479529 389.221474 
L 382.659671 388.761876 
L 388.514541 388.547205 
L 394.044141 388.569578 
L 399.085835 388.807441 
L 403.802259 389.24457 
L 408.193412 389.865428 
L 412.421929 390.688809 
L 416.325176 391.678725 
L 419.903153 392.816492 
L 423.155859 394.081787 
L 426.083294 395.452402 
L 428.685459 396.903763 
L 430.962353 398.408025 
L 433.076612 400.071838 
L 434.8656 401.770893 
L 436.329318 403.474733 
L 437.467765 405.143792 
L 438.280941 406.715289 
L 438.768847 408.047135 
L 438.931482 408.681678 
L 439.094118 409.976471 
L 439.094118 409.976471 
L 438.768847 415.764477 
L 438.118306 420.831114 
L 437.305129 425.273531 
L 436.166682 430.108101 
L 434.8656 434.593203 
L 433.401882 438.833838 
L 431.775529 442.868611 
L 429.986541 446.709254 
L 428.034918 450.354698 
L 426.083294 453.548676 
L 423.969035 456.591049 
L 421.692141 459.459304 
L 419.415247 461.96551 
L 417.138353 464.156487 
L 414.698824 466.195003 
L 412.259294 467.948039 
L 409.657129 469.534933 
L 407.054965 470.856996 
L 404.4528 471.937447 
L 401.688 472.842581 
L 398.9232 473.517183 
L 395.995765 473.999453 
L 393.068329 474.260675 
L 389.978259 474.314018 
L 386.725553 474.141157 
L 383.310212 473.725237 
L 379.894871 473.08665 
L 376.316894 472.196315 
L 372.576282 471.041319 
L 368.5104 469.546222 
L 364.281882 467.748339 
L 359.890729 465.642193 
L 355.174306 463.13452 
L 350.132612 460.202432 
L 344.603012 456.724313 
L 338.585506 452.673204 
L 331.754824 447.801669 
L 323.460424 441.601318 
L 307.196894 429.078479 
L 298.414588 422.497103 
L 292.397082 418.25785 
L 287.680659 415.199051 
L 285.729035 414.042353 
L 276.458824 414.042353 
L 276.458824 414.042353 
" style="fill:none;stroke:#ff7f0e;stroke-linecap:square;stroke-width:5;"/>
   </g>
   <g id="line2d_27">
    <path clip-path="url(#pb9e191ffa3)" d="M 276.458824 408.621176 
L 291.096 408.530163 
L 301.098071 407.105461 
L 314.759435 404.922758 
L 340.618447 400.514439 
L 363.793976 396.661772 
L 379.406965 394.288209 
L 392.824376 392.470605 
L 404.778071 391.073551 
L 415.755953 390.013883 
L 425.758024 389.267053 
L 435.028235 388.789864 
L 443.810541 388.556165 
L 452.104941 388.558029 
L 459.911435 388.785271 
L 466.986071 389.207153 
L 473.816753 389.838396 
L 480.159529 390.652615 
L 486.0144 391.632556 
L 491.381365 392.759382 
L 496.260424 394.012554 
L 500.651576 395.369574 
L 504.554824 396.805465 
L 507.970165 398.291824 
L 510.8976 399.795129 
L 513.337129 401.273651 
L 515.532706 402.864883 
L 517.240376 404.376659 
L 518.460141 405.716235 
L 519.435953 407.105562 
L 519.923859 408.047135 
L 520.167812 408.681678 
L 520.411765 409.976471 
L 520.411765 409.976471 
L 520.167812 413.860849 
L 519.679906 417.281159 
L 518.948047 420.831114 
L 517.972235 424.474507 
L 516.752471 428.172339 
L 515.288753 431.890182 
L 513.581082 435.597289 
L 511.629459 439.265519 
L 509.433882 442.868611 
L 507.238306 446.050154 
L 504.798776 449.194593 
L 502.115294 452.266938 
L 499.431812 455.002293 
L 496.504376 457.660522 
L 493.576941 460.025031 
L 490.405553 462.296868 
L 487.234165 464.301928 
L 483.818824 466.195003 
L 480.403482 467.839456 
L 476.744188 469.351576 
L 473.084894 470.628159 
L 469.181647 471.752322 
L 465.2784 472.651043 
L 461.1312 473.378235 
L 456.740047 473.91198 
L 452.348894 474.22089 
L 447.713788 474.320949 
L 442.834729 474.193696 
L 437.955671 473.845097 
L 432.832659 473.25801 
L 427.465694 472.417678 
L 421.854776 471.311008 
L 415.999906 469.926721 
L 409.901082 468.255517 
L 403.558306 466.290281 
L 396.727624 463.938396 
L 389.409035 461.174789 
L 381.602541 457.980811 
L 373.308141 454.345859 
L 364.037929 450.036989 
L 353.304 444.793719 
L 339.398682 437.736102 
L 311.832 423.688587 
L 302.805741 419.372639 
L 295.731106 416.220574 
L 290.364141 414.042353 
L 276.458824 414.042353 
L 276.458824 414.042353 
" style="fill:none;stroke:#2ca02c;stroke-linecap:square;stroke-width:5;"/>
   </g>
   <g id="line2d_28">
    <path clip-path="url(#pb9e191ffa3)" d="M 276.458824 408.621176 
L 295.975059 408.530163 
L 309.311153 407.105461 
L 327.526306 404.922758 
L 361.679718 400.556179 
L 392.580424 396.700627 
L 413.397741 394.323357 
L 431.287624 392.501457 
L 447.225882 391.099671 
L 461.863059 390.034837 
L 475.199153 389.282533 
L 487.884706 388.789864 
L 499.594447 388.556165 
L 510.653647 388.558029 
L 521.062306 388.785271 
L 530.495153 389.207153 
L 539.277459 389.811689 
L 547.734494 390.616801 
L 555.540988 391.58684 
L 562.696941 392.702816 
L 569.202353 393.943991 
L 575.057224 395.287591 
L 580.261553 396.708261 
L 584.815341 398.177094 
L 588.718588 399.659894 
L 591.971294 401.114113 
L 594.898729 402.6719 
L 597.175624 404.13995 
L 598.801976 405.422728 
L 600.103059 406.715289 
L 601.078871 408.047135 
L 601.404141 408.681678 
L 601.729412 409.976471 
L 601.729412 409.976471 
L 601.404141 413.860849 
L 600.7536 417.281159 
L 599.777788 420.831114 
L 598.476706 424.474507 
L 597.175624 427.486034 
L 595.549271 430.717556 
L 593.597647 434.075796 
L 591.320753 437.495213 
L 589.043859 440.520495 
L 586.441694 443.608415 
L 583.514259 446.709254 
L 580.586824 449.489488 
L 577.334118 452.266938 
L 574.081412 454.766122 
L 570.503435 457.239003 
L 566.600188 459.649695 
L 562.696941 461.797433 
L 558.468424 463.86133 
L 554.239906 465.680618 
L 549.686118 467.393557 
L 545.132329 468.874777 
L 540.253271 470.227521 
L 535.374212 471.358194 
L 530.169882 472.339287 
L 524.640282 473.147233 
L 519.110682 473.732092 
L 513.255812 474.126394 
L 507.075671 474.310017 
L 500.895529 474.272095 
L 494.390118 474.010056 
L 487.559435 473.507316 
L 480.403482 472.748839 
L 472.922259 471.721264 
L 465.115765 470.413031 
L 456.984 468.81455 
L 448.526965 466.918393 
L 439.744659 464.719529 
L 430.311812 462.122274 
L 420.228424 459.105354 
L 409.494494 455.654765 
L 397.784753 451.651437 
L 384.448659 446.84674 
L 368.5104 440.857306 
L 316.141835 420.97404 
L 305.733176 417.38609 
L 297.276141 414.703638 
L 294.999247 414.042353 
L 276.458824 414.042353 
L 276.458824 414.042353 
" style="fill:none;stroke:#d62728;stroke-linecap:square;stroke-width:5;"/>
   </g>
   <g id="line2d_29">
    <path clip-path="url(#pb9e191ffa3)" d="M 276.458824 408.621176 
L 300.854118 408.530163 
L 317.524235 407.105461 
L 340.293176 404.922758 
L 382.984941 400.556179 
L 421.610824 396.700627 
L 447.632471 394.323357 
L 469.994824 392.501457 
L 489.917647 391.099671 
L 508.214118 390.034837 
L 524.884235 389.282533 
L 540.741176 388.789864 
L 555.378353 388.556165 
L 569.202353 388.558029 
L 582.213176 388.785271 
L 594.004235 389.207153 
L 604.982118 389.811689 
L 615.553412 390.616801 
L 625.311529 391.58684 
L 634.256471 392.702816 
L 642.388235 393.943991 
L 649.706824 395.287591 
L 656.212235 396.708261 
L 661.904471 398.177094 
L 666.783529 399.659894 
L 670.849412 401.114113 
L 674.102118 402.483519 
L 676.948235 403.911181 
L 678.981176 405.143792 
L 680.607529 406.358256 
L 681.827294 407.541574 
L 682.640471 408.681678 
L 683.047059 409.976471 
L 683.047059 409.976471 
L 682.640471 413.860849 
L 681.827294 417.281159 
L 680.607529 420.831114 
L 679.387765 423.637699 
L 677.761412 426.775905 
L 675.728471 430.108101 
L 673.695529 433.007494 
L 671.256 436.084929 
L 668.409882 439.265519 
L 665.563765 442.108185 
L 662.311059 445.03041 
L 659.058353 447.6686 
L 655.399059 450.354698 
L 651.333176 453.043963 
L 647.267294 455.46758 
L 642.794824 457.86822 
L 638.322353 460.025031 
L 633.443294 462.131984 
L 628.157647 464.156487 
L 622.872 465.940381 
L 617.179765 467.618836 
L 611.487529 469.068685 
L 605.388706 470.390695 
L 599.289882 471.49315 
L 592.784471 472.446508 
L 585.872471 473.227281 
L 578.960471 473.787015 
L 571.641882 474.156663 
L 563.916706 474.316171 
L 556.191529 474.255871 
L 548.059765 473.971952 
L 539.521412 473.447896 
L 530.576471 472.668739 
L 521.224941 471.621183 
L 511.466824 470.293738 
L 501.302118 468.676884 
L 490.730824 466.76327 
L 479.752941 464.54795 
L 467.961882 461.934817 
L 455.764235 459.004237 
L 442.346824 455.546729 
L 427.709647 451.537108 
L 411.446118 446.84674 
L 391.523294 440.857306 
L 326.469176 421.090049 
L 313.864941 417.602236 
L 303.293647 414.900496 
L 299.634353 414.042353 
L 276.458824 414.042353 
L 276.458824 414.042353 
" style="fill:none;stroke:#9467bd;stroke-linecap:square;stroke-width:5;"/>
   </g>
   <g id="text_10">
    <!-- $\^r_1$ = 0.6 -->
    <g transform="translate(417.6 348.749062)scale(0.3 -0.3)">
     <use transform="translate(45.765625 6.59375)" xlink:href="#STIXGeneral-Regular-770"/>
     <use transform="translate(0 0.703125)" xlink:href="#STIXGeneral-Italic-114"/>
     <use transform="translate(40.443275 -12.525)scale(0.7)" xlink:href="#STIXGeneral-Regular-49"/>
     <use transform="translate(79.852639 0.703125)" xlink:href="#STIXGeneral-Regular-32"/>
     <use transform="translate(104.852624 0.703125)" xlink:href="#STIXGeneral-Regular-61"/>
     <use transform="translate(173.352609 0.703125)" xlink:href="#STIXGeneral-Regular-32"/>
     <use transform="translate(198.352594 0.703125)" xlink:href="#STIXGeneral-Regular-48"/>
     <use transform="translate(248.352578 0.703125)" xlink:href="#STIXGeneral-Regular-46"/>
     <use transform="translate(273.352563 0.703125)" xlink:href="#STIXGeneral-Regular-54"/>
    </g>
   </g>
  </g>
 </g>
 <defs>
  <clipPath id="pd7616cff7d">
   <rect height="153.6" width="487.905882" x="222.247059" y="57.6"/>
  </clipPath>
  <clipPath id="pe33836fce1">
   <rect height="153.6" width="487.905882" x="222.247059" y="211.2"/>
  </clipPath>
  <clipPath id="pb9e191ffa3">
   <rect height="153.6" width="487.905882" x="222.247059" y="364.8"/>
  </clipPath>
 </defs>
</svg>
