<?xml version="1.0" encoding="utf-8" standalone="no"?>
<!DOCTYPE svg PUBLIC "-//W3C//DTD SVG 1.1//EN"
  "http://www.w3.org/Graphics/SVG/1.1/DTD/svg11.dtd">
<!-- Created with matplotlib (https://matplotlib.org/) -->
<svg height="288pt" version="1.1" viewBox="0 0 864 288" width="864pt" xmlns="http://www.w3.org/2000/svg" xmlns:xlink="http://www.w3.org/1999/xlink">
 <metadata>
  <rdf:RDF xmlns:cc="http://creativecommons.org/ns#" xmlns:dc="http://purl.org/dc/elements/1.1/" xmlns:rdf="http://www.w3.org/1999/02/22-rdf-syntax-ns#">
   <cc:Work>
    <dc:type rdf:resource="http://purl.org/dc/dcmitype/StillImage"/>
    <dc:date>2022-03-28T16:46:59.890836</dc:date>
    <dc:format>image/svg+xml</dc:format>
    <dc:creator>
     <cc:Agent>
      <dc:title>Matplotlib v3.3.4, https://matplotlib.org/</dc:title>
     </cc:Agent>
    </dc:creator>
   </cc:Work>
  </rdf:RDF>
 </metadata>
 <defs>
  <style type="text/css">*{stroke-linecap:butt;stroke-linejoin:round;}</style>
 </defs>
 <g id="figure_1">
  <g id="patch_1">
   <path d="M 0 288 
L 864 288 
L 864 0 
L 0 0 
z
" style="fill:#ffffff;"/>
  </g>
  <g id="axes_1">
   <g id="patch_2">
    <path d="M 108 230.4 
L 412.363636 230.4 
L 412.363636 57.6 
L 108 57.6 
z
" style="fill:#ffffff;"/>
   </g>
   <g id="matplotlib.axis_1">
    <g id="xtick_1">
     <g id="line2d_1">
      <defs>
       <path d="M 0 0 
L 0 3.5 
" id="m7a188d5063" style="stroke:#000000;stroke-width:0.8;"/>
      </defs>
      <g>
       <use style="fill:#ffffff;stroke:#000000;stroke-width:0.8;" x="108" xlink:href="#m7a188d5063" y="230.4"/>
      </g>
     </g>
     <g id="text_1">
      <!-- 4.0 -->
      <g transform="translate(96.75 249.693438)scale(0.18 -0.18)">
       <defs>
        <path d="M 47.296875 16.703125 
L 37 16.703125 
L 37 0 
L 29.203125 0 
L 29.203125 16.703125 
L 1.203125 16.703125 
L 1.203125 23.09375 
L 32.59375 67.59375 
L 37 67.59375 
L 37 23.09375 
L 47.296875 23.09375 
z
M 29.203125 23.09375 
L 29.203125 57.40625 
L 5.203125 23.09375 
z
" id="STIXGeneral-Regular-52"/>
        <path d="M 18.09375 4.296875 
Q 18.09375 2.09375 16.4375 0.5 
Q 14.796875 -1.09375 12.5 -1.09375 
Q 10.203125 -1.09375 8.59375 0.5 
Q 7 2.09375 7 4.390625 
Q 7 6.703125 8.640625 8.34375 
Q 10.296875 10 12.59375 10 
Q 14.796875 10 16.4375 8.296875 
Q 18.09375 6.59375 18.09375 4.296875 
z
" id="STIXGeneral-Regular-46"/>
        <path d="M 47.59375 33 
Q 47.59375 26.296875 46.296875 20.34375 
Q 45 14.40625 42.453125 9.40625 
Q 39.90625 4.40625 35.40625 1.5 
Q 30.90625 -1.40625 25 -1.40625 
Q 18.90625 -1.40625 14.296875 1.6875 
Q 9.703125 4.796875 7.203125 10 
Q 4.703125 15.203125 3.546875 21.09375 
Q 2.40625 27 2.40625 33.59375 
Q 2.40625 42.90625 4.703125 50.34375 
Q 7 57.796875 12.34375 62.6875 
Q 17.703125 67.59375 25.40625 67.59375 
Q 35.203125 67.59375 41.390625 58 
Q 47.59375 48.40625 47.59375 33 
z
M 38 32.5 
Q 38 48.296875 34.640625 56.640625 
Q 31.296875 65 24.796875 65 
Q 18.59375 65 15.296875 56.59375 
Q 12 48.203125 12 32.90625 
Q 12 17.5 15.296875 9.34375 
Q 18.59375 1.203125 25 1.203125 
Q 31.296875 1.203125 34.640625 9.34375 
Q 38 17.5 38 32.5 
z
" id="STIXGeneral-Regular-48"/>
       </defs>
       <use xlink:href="#STIXGeneral-Regular-52"/>
       <use x="49.999985" xlink:href="#STIXGeneral-Regular-46"/>
       <use x="74.999969" xlink:href="#STIXGeneral-Regular-48"/>
      </g>
     </g>
    </g>
    <g id="xtick_2">
     <g id="line2d_2">
      <g>
       <use style="fill:#ffffff;stroke:#000000;stroke-width:0.8;" x="168.872727" xlink:href="#m7a188d5063" y="230.4"/>
      </g>
     </g>
     <g id="text_2">
      <!-- 4.2 -->
      <g transform="translate(157.622727 249.693438)scale(0.18 -0.18)">
       <defs>
        <path d="M 47.40625 13.703125 
L 42 0 
L 2.90625 0 
L 2.90625 1.203125 
L 20.703125 20.09375 
Q 27.703125 27.40625 30.703125 33.5 
Q 33.703125 39.59375 33.703125 46.09375 
Q 33.703125 52.796875 30 56.5 
Q 26.296875 60.203125 19.796875 60.203125 
Q 14.40625 60.203125 11.25 57.390625 
Q 8.09375 54.59375 5.09375 47.203125 
L 3 47.703125 
Q 4.703125 57 9.84375 62.296875 
Q 15 67.59375 23.796875 67.59375 
Q 32.09375 67.59375 37.1875 62.59375 
Q 42.296875 57.59375 42.296875 50 
Q 42.296875 38.703125 29.5 25.203125 
L 13 7.59375 
L 36.40625 7.59375 
Q 39.703125 7.59375 41.640625 8.890625 
Q 43.59375 10.203125 46 14.296875 
z
" id="STIXGeneral-Regular-50"/>
       </defs>
       <use xlink:href="#STIXGeneral-Regular-52"/>
       <use x="49.999985" xlink:href="#STIXGeneral-Regular-46"/>
       <use x="74.999969" xlink:href="#STIXGeneral-Regular-50"/>
      </g>
     </g>
    </g>
    <g id="xtick_3">
     <g id="line2d_3">
      <g>
       <use style="fill:#ffffff;stroke:#000000;stroke-width:0.8;" x="229.745455" xlink:href="#m7a188d5063" y="230.4"/>
      </g>
     </g>
     <g id="text_3">
      <!-- 4.4 -->
      <g transform="translate(218.495455 249.693438)scale(0.18 -0.18)">
       <use xlink:href="#STIXGeneral-Regular-52"/>
       <use x="49.999985" xlink:href="#STIXGeneral-Regular-46"/>
       <use x="74.999969" xlink:href="#STIXGeneral-Regular-52"/>
      </g>
     </g>
    </g>
    <g id="xtick_4">
     <g id="line2d_4">
      <g>
       <use style="fill:#ffffff;stroke:#000000;stroke-width:0.8;" x="290.618182" xlink:href="#m7a188d5063" y="230.4"/>
      </g>
     </g>
     <g id="text_4">
      <!-- 4.6 -->
      <g transform="translate(279.368182 249.693438)scale(0.18 -0.18)">
       <defs>
        <path d="M 44.59375 68.40625 
L 44.796875 66.796875 
Q 33 64.90625 25.09375 57.25 
Q 17.203125 49.59375 15.203125 38.296875 
Q 21 42.796875 27.90625 42.796875 
Q 36.703125 42.796875 41.75 37.1875 
Q 46.796875 31.59375 46.796875 21.90625 
Q 46.796875 12.09375 41.703125 5.90625 
Q 35.796875 -1.40625 25.796875 -1.40625 
Q 13.59375 -1.40625 8.09375 8.703125 
Q 3.40625 17.296875 3.40625 27.90625 
Q 3.40625 44.296875 14.296875 55.5 
Q 20.5 61.90625 27.046875 64.546875 
Q 33.59375 67.203125 44.59375 68.40625 
z
M 37.796875 18.796875 
Q 37.796875 38.203125 24.296875 38.203125 
Q 19.296875 38.203125 16 35.546875 
Q 12.703125 32.90625 12.703125 26.59375 
Q 12.703125 14.90625 16.34375 8.15625 
Q 20 1.40625 26.90625 1.40625 
Q 32.203125 1.40625 35 6.15625 
Q 37.796875 10.90625 37.796875 18.796875 
z
" id="STIXGeneral-Regular-54"/>
       </defs>
       <use xlink:href="#STIXGeneral-Regular-52"/>
       <use x="49.999985" xlink:href="#STIXGeneral-Regular-46"/>
       <use x="74.999969" xlink:href="#STIXGeneral-Regular-54"/>
      </g>
     </g>
    </g>
    <g id="xtick_5">
     <g id="line2d_5">
      <g>
       <use style="fill:#ffffff;stroke:#000000;stroke-width:0.8;" x="351.490909" xlink:href="#m7a188d5063" y="230.4"/>
      </g>
     </g>
     <g id="text_5">
      <!-- 4.8 -->
      <g transform="translate(340.240909 249.693438)scale(0.18 -0.18)">
       <defs>
        <path d="M 44.5 15.5 
Q 44.5 7.796875 39.140625 3.1875 
Q 33.796875 -1.40625 24.796875 -1.40625 
Q 16.40625 -1.40625 11 3.1875 
Q 5.59375 7.796875 5.59375 14.90625 
Q 5.59375 20.203125 8.1875 23.953125 
Q 10.796875 27.703125 18.59375 33.203125 
Q 11.09375 39.40625 8.640625 43.203125 
Q 6.203125 47 6.203125 52 
Q 6.203125 59.09375 11.640625 63.34375 
Q 17.09375 67.59375 25.59375 67.59375 
Q 32.90625 67.59375 37.65625 63.4375 
Q 42.40625 59.296875 42.40625 53.296875 
Q 42.40625 47.796875 39.546875 44.5 
Q 36.703125 41.203125 29 37.09375 
Q 38 31.09375 41.25 26.390625 
Q 44.5 21.703125 44.5 15.5 
z
M 35.5 53.296875 
Q 35.5 58.5 32.59375 61.640625 
Q 29.703125 64.796875 24.59375 64.796875 
Q 19.5 64.796875 16.546875 62.140625 
Q 13.59375 59.5 13.59375 54.890625 
Q 13.59375 50.296875 16.546875 46.546875 
Q 19.5 42.796875 26.09375 38.90625 
Q 31.203125 41.90625 33.34375 45.25 
Q 35.5 48.59375 35.5 53.296875 
z
M 27.09375 27.203125 
L 21.203125 31.203125 
Q 16.796875 27.59375 15 24.140625 
Q 13.203125 20.703125 13.203125 15.796875 
Q 13.203125 9 16.640625 5.203125 
Q 20.09375 1.40625 25.90625 1.40625 
Q 30.796875 1.40625 33.84375 4.453125 
Q 36.90625 7.5 36.90625 12.40625 
Q 36.90625 16.90625 34.59375 20.296875 
Q 32.296875 23.703125 27.09375 27.203125 
z
" id="STIXGeneral-Regular-56"/>
       </defs>
       <use xlink:href="#STIXGeneral-Regular-52"/>
       <use x="49.999985" xlink:href="#STIXGeneral-Regular-46"/>
       <use x="74.999969" xlink:href="#STIXGeneral-Regular-56"/>
      </g>
     </g>
    </g>
    <g id="xtick_6">
     <g id="line2d_6">
      <g>
       <use style="fill:#ffffff;stroke:#000000;stroke-width:0.8;" x="412.363636" xlink:href="#m7a188d5063" y="230.4"/>
      </g>
     </g>
     <g id="text_6">
      <!-- 5.0 -->
      <g transform="translate(401.113636 249.693438)scale(0.18 -0.18)">
       <defs>
        <path d="M 43.796875 68.09375 
L 40.203125 59.59375 
Q 39.59375 58.296875 37.5 58.296875 
L 18.09375 58.296875 
L 14.09375 49.796875 
Q 25.09375 47.703125 30 45.25 
Q 34.90625 42.796875 39.09375 37 
Q 42.59375 32.203125 42.59375 24.296875 
Q 42.59375 17.09375 40.25 12.1875 
Q 37.90625 7.296875 32.796875 3.5 
Q 26 -1.40625 15.796875 -1.40625 
Q 10.09375 -1.40625 6.59375 0.296875 
Q 3.09375 2 3.09375 4.796875 
Q 3.09375 8.59375 7.59375 8.59375 
Q 11.203125 8.59375 15 5.5 
Q 18.90625 2.296875 22.09375 2.296875 
Q 27.296875 2.296875 31.4375 7.5 
Q 35.59375 12.703125 35.59375 19.203125 
Q 35.59375 28.796875 28.90625 34.203125 
Q 20.203125 41.203125 7.59375 41.203125 
Q 6.40625 41.203125 6.40625 42 
L 6.5 42.5 
L 17.40625 66.203125 
L 38.09375 66.203125 
Q 39.796875 66.203125 40.75 66.703125 
Q 41.703125 67.203125 42.90625 68.796875 
z
" id="STIXGeneral-Regular-53"/>
       </defs>
       <use xlink:href="#STIXGeneral-Regular-53"/>
       <use x="49.999985" xlink:href="#STIXGeneral-Regular-46"/>
       <use x="74.999969" xlink:href="#STIXGeneral-Regular-48"/>
      </g>
     </g>
    </g>
    <g id="text_7">
     <!-- $\^t$ -->
     <g transform="translate(257.661818 269.893438)scale(0.18 -0.18)">
      <defs>
       <path d="M -7.5 50.703125 
L -10.90625 50.703125 
L -23.09375 61 
L -35.203125 50.703125 
L -38.59375 50.703125 
L -26.203125 67.40625 
L -20 67.40625 
z
" id="STIXGeneral-Regular-770"/>
       <path d="M 29.59375 42.796875 
L 29.09375 39.59375 
L 20.703125 39.59375 
L 12 6.796875 
Q 11.796875 6 11.796875 5.40625 
Q 11.796875 3.796875 13.296875 3.796875 
Q 14.5 3.796875 16.09375 5.34375 
Q 17.703125 6.90625 21.40625 11.703125 
L 22.703125 11 
Q 18.09375 4 15.140625 1.453125 
Q 12.203125 -1.09375 8.40625 -1.09375 
Q 3.796875 -1.09375 3.796875 2.59375 
Q 3.796875 3.59375 5.40625 10 
L 13.203125 39.59375 
L 5.703125 39.59375 
L 5.59375 40.203125 
Q 5.59375 42 8.90625 42.703125 
Q 11.40625 43.296875 15.5 46.546875 
Q 19.59375 49.796875 22.203125 53.703125 
Q 22.796875 54.59375 23.59375 54.59375 
Q 24.5 54.59375 24.5 53.796875 
Q 24.5 53.296875 24.40625 53.09375 
L 21.59375 42.796875 
z
" id="STIXGeneral-Italic-116"/>
      </defs>
      <use transform="translate(39.042969 16.59375)" xlink:href="#STIXGeneral-Regular-770"/>
      <use transform="translate(0 0.203125)" xlink:href="#STIXGeneral-Italic-116"/>
     </g>
    </g>
   </g>
   <g id="matplotlib.axis_2">
    <g id="ytick_1">
     <g id="line2d_7">
      <defs>
       <path d="M 0 0 
L -3.5 0 
" id="m944caf5954" style="stroke:#000000;stroke-width:0.8;"/>
      </defs>
      <g>
       <use style="fill:#ffffff;stroke:#000000;stroke-width:0.8;" x="108" xlink:href="#m944caf5954" y="205.714286"/>
      </g>
     </g>
     <g id="text_8">
      <!-- 0 -->
      <g transform="translate(92 211.861004)scale(0.18 -0.18)">
       <use xlink:href="#STIXGeneral-Regular-48"/>
      </g>
     </g>
    </g>
    <g id="ytick_2">
     <g id="line2d_8">
      <g>
       <use style="fill:#ffffff;stroke:#000000;stroke-width:0.8;" x="108" xlink:href="#m944caf5954" y="156.342857"/>
      </g>
     </g>
     <g id="text_9">
      <!-- 1 -->
      <g transform="translate(92 162.489576)scale(0.18 -0.18)">
       <defs>
        <path d="M 39.40625 0 
L 11.796875 0 
L 11.796875 1.5 
Q 17.296875 1.796875 19.296875 3.546875 
Q 21.296875 5.296875 21.296875 9.5 
L 21.296875 54.40625 
Q 21.296875 59.296875 18.296875 59.296875 
Q 16.90625 59.296875 13.796875 58.09375 
L 11.09375 57.09375 
L 11.09375 58.5 
L 29 67.59375 
L 29.90625 67.296875 
L 29.90625 7.59375 
Q 29.90625 4.296875 31.90625 2.890625 
Q 33.90625 1.5 39.40625 1.5 
z
" id="STIXGeneral-Regular-49"/>
       </defs>
       <use xlink:href="#STIXGeneral-Regular-49"/>
      </g>
     </g>
    </g>
    <g id="ytick_3">
     <g id="line2d_9">
      <g>
       <use style="fill:#ffffff;stroke:#000000;stroke-width:0.8;" x="108" xlink:href="#m944caf5954" y="106.971429"/>
      </g>
     </g>
     <g id="text_10">
      <!-- 2 -->
      <g transform="translate(92 113.118147)scale(0.18 -0.18)">
       <use xlink:href="#STIXGeneral-Regular-50"/>
      </g>
     </g>
    </g>
    <g id="ytick_4">
     <g id="line2d_10">
      <g>
       <use style="fill:#ffffff;stroke:#000000;stroke-width:0.8;" x="108" xlink:href="#m944caf5954" y="57.6"/>
      </g>
     </g>
     <g id="text_11">
      <!-- 3 -->
      <g transform="translate(92 63.746719)scale(0.18 -0.18)">
       <defs>
        <path d="M 6.09375 51 
L 4.5 51.40625 
Q 6.796875 58.90625 11.6875 63.25 
Q 16.59375 67.59375 24.09375 67.59375 
Q 31.09375 67.59375 35.390625 63.796875 
Q 39.703125 60 39.703125 53.90625 
Q 39.703125 45.703125 30.40625 40.09375 
Q 35.90625 37.703125 38.703125 34.796875 
Q 43.09375 29.90625 43.09375 21.90625 
Q 43.09375 13.90625 38.5 7.90625 
Q 35.09375 3.296875 28.75 0.9375 
Q 22.40625 -1.40625 15.296875 -1.40625 
Q 4.09375 -1.40625 4.09375 4.296875 
Q 4.09375 5.90625 5.296875 6.90625 
Q 6.5 7.90625 8.203125 7.90625 
Q 10.703125 7.90625 14.296875 5.296875 
Q 18.703125 2.203125 22.90625 2.203125 
Q 28.40625 2.203125 32.15625 6.640625 
Q 35.90625 11.09375 35.90625 17.5 
Q 35.90625 29 25.5 32 
Q 22.40625 33 15.296875 33 
L 15.296875 34.40625 
Q 20.90625 36.296875 23.703125 38 
Q 31.796875 42.59375 31.796875 51.40625 
Q 31.796875 56.40625 28.9375 59 
Q 26.09375 61.59375 21 61.59375 
Q 12 61.59375 6.09375 51 
z
" id="STIXGeneral-Regular-51"/>
       </defs>
       <use xlink:href="#STIXGeneral-Regular-51"/>
      </g>
     </g>
    </g>
    <g id="text_12">
     <!-- $C_L$ -->
     <g transform="translate(84.093437 153.99)rotate(-90)scale(0.18 -0.18)">
      <defs>
       <path d="M 68.90625 66.40625 
L 65.203125 46.40625 
L 63.40625 46.703125 
Q 61.59375 63 48.5 63 
Q 37.59375 63 28.59375 53.296875 
Q 23.296875 47.703125 20.546875 39.703125 
Q 17.796875 31.703125 17.796875 23.203125 
Q 17.796875 2.703125 35.296875 2.703125 
Q 41.5 2.703125 46.640625 5.296875 
Q 51.796875 7.90625 58.203125 14.59375 
L 60 13.09375 
Q 53.296875 5.203125 46.84375 1.703125 
Q 40.40625 -1.796875 32.703125 -1.796875 
Q 21 -1.796875 13.796875 5.140625 
Q 6.59375 12.09375 6.59375 24.296875 
Q 6.59375 34.59375 11.6875 43.9375 
Q 16.796875 53.296875 25.296875 59.296875 
Q 35.5 66.59375 47.203125 66.59375 
Q 54.09375 66.59375 58.90625 64.90625 
Q 60.90625 64.203125 63 64.203125 
Q 65.703125 64.203125 66.796875 66.40625 
z
" id="STIXGeneral-Italic-67"/>
       <path d="M 55.90625 18 
L 50.09375 0 
L -0.796875 0 
L -0.796875 1.59375 
Q 3.40625 2 4.703125 3.296875 
Q 6 4.59375 7.40625 9.40625 
L 19.59375 53.203125 
Q 20.703125 56.90625 20.703125 59.40625 
Q 20.703125 61.59375 19.140625 62.5 
Q 17.59375 63.40625 13 63.703125 
L 13 65.296875 
L 40.296875 65.296875 
L 40.296875 63.703125 
Q 35.703125 63.40625 33.546875 61.796875 
Q 31.40625 60.203125 30.203125 56 
L 18.203125 13.09375 
Q 17.203125 9.296875 17.203125 7.703125 
Q 17.203125 5.40625 19.390625 4.5 
Q 21.59375 3.59375 27.703125 3.59375 
Q 35.40625 3.59375 38.75 4.296875 
Q 42.09375 5 45.703125 7.40625 
Q 49.796875 10.09375 53.90625 18.59375 
z
" id="STIXGeneral-Italic-76"/>
      </defs>
      <use transform="translate(0 0.40625)" xlink:href="#STIXGeneral-Italic-67"/>
      <use transform="translate(66.699997 -12.821875)scale(0.7)" xlink:href="#STIXGeneral-Italic-76"/>
     </g>
    </g>
   </g>
   <g id="line2d_11">
    <path clip-path="url(#p46a2032660)" d="M 107.695636 221.451185 
L 108.304364 220.226825 
L 108.913091 218.501755 
L 109.826182 215.072773 
L 110.739273 210.772524 
L 111.956727 203.976628 
L 114.087273 190.366161 
L 116.826545 172.791252 
L 118.652727 162.599795 
L 120.174545 155.516607 
L 121.392 150.862981 
L 122.609455 147.026049 
L 123.826909 143.87851 
L 125.348727 140.613759 
L 129.609818 132.158604 
L 131.436 127.899275 
L 136.305818 116.228676 
L 137.218909 114.84304 
L 137.827636 114.251665 
L 138.436364 113.980041 
L 139.045091 114.067571 
L 139.653818 114.555777 
L 140.262545 115.477659 
L 140.871273 116.861278 
L 141.48 118.740809 
L 142.393091 122.529368 
L 143.306182 127.546048 
L 144.219273 133.800456 
L 145.436727 144.070399 
L 146.045455 150.069522 
L 146.349818 151.664164 
L 146.654182 149.08463 
L 146.958545 148.192206 
L 147.567273 147.30835 
L 148.784727 145.460347 
L 150.306545 143.580637 
L 152.132727 141.718714 
L 154.567636 139.575685 
L 164.002909 131.918625 
L 173.438182 124.498693 
L 178.003636 121.191192 
L 182.873455 117.969183 
L 187.134545 115.427313 
L 191.7 113.0032 
L 195.352364 111.274758 
L 199.613455 109.49006 
L 204.483273 107.723762 
L 209.353091 106.208541 
L 214.222909 104.942555 
L 220.005818 103.735716 
L 222.136364 103.373807 
L 222.440727 102.936162 
L 223.049455 100.276119 
L 224.266909 95.774401 
L 230.049818 73.730445 
L 231.267273 70.23373 
L 232.180364 68.163389 
L 233.093455 66.653652 
L 233.702182 65.995667 
L 234.310909 65.639948 
L 234.919636 65.599331 
L 235.528364 65.898677 
L 236.137091 66.542634 
L 236.745818 67.544313 
L 237.354545 68.90624 
L 238.267636 71.656222 
L 239.180727 75.246671 
L 240.093818 79.690916 
L 241.311273 86.91033 
L 242.528727 95.464669 
L 244.050545 107.859551 
L 245.876727 124.834145 
L 248.616 152.916619 
L 251.659636 184.050928 
L 253.181455 197.68528 
L 254.398909 206.88636 
L 255.312 212.541858 
L 256.225091 216.999692 
L 257.138182 220.1729 
L 257.746909 221.553168 
L 258.355636 222.341803 
L 258.66 222.512023 
L 258.964364 222.531017 
L 259.268727 222.412195 
L 259.877455 221.764082 
L 260.486182 220.585946 
L 261.094909 218.909674 
L 262.008 215.553964 
L 262.921091 211.324235 
L 264.138545 204.634212 
L 266.269091 191.208112 
L 269.312727 171.982626 
L 270.834545 163.629949 
L 272.356364 156.53245 
L 273.573818 151.851234 
L 274.791273 147.971644 
L 276.008727 144.759544 
L 277.530545 141.38113 
L 281.791636 132.591104 
L 283.922182 127.440746 
L 287.878909 117.575882 
L 288.792 115.861265 
L 289.705091 114.648995 
L 290.313818 114.20935 
L 290.922545 114.102123 
L 291.531273 114.374669 
L 292.14 115.058749 
L 292.748727 116.195525 
L 293.357455 117.816681 
L 293.966182 119.92971 
L 294.879273 124.091293 
L 295.792364 129.477792 
L 296.705455 136.112415 
L 297.922909 146.871105 
L 298.227273 149.941256 
L 298.531636 151.516677 
L 298.836 148.926164 
L 299.140364 148.015206 
L 299.749091 147.098834 
L 300.966545 145.187626 
L 302.488364 143.2259 
L 304.314545 141.274367 
L 306.749455 139.029514 
L 311.619273 134.913751 
L 322.576364 125.970206 
L 326.837455 122.716099 
L 331.098545 119.669271 
L 335.055273 117.063138 
L 339.316364 114.525626 
L 344.186182 111.9614 
L 348.142909 110.139011 
L 352.404 108.414742 
L 356.969455 106.807708 
L 361.534909 105.428805 
L 366.100364 104.273596 
L 370.970182 103.263646 
L 374.318182 102.70607 
L 374.622545 102.264418 
L 375.231273 99.610009 
L 376.448727 95.124261 
L 382.231636 73.173795 
L 383.449091 69.703438 
L 384.362182 67.65174 
L 385.275273 66.162575 
L 385.884 65.518788 
L 386.492727 65.176329 
L 387.101455 65.147335 
L 387.710182 65.457517 
L 388.318909 66.121856 
L 388.927636 67.138771 
L 389.536364 68.526969 
L 390.449455 71.313652 
L 391.362545 74.931934 
L 392.275636 79.406025 
L 393.493091 86.677014 
L 394.710545 95.305674 
L 396.232364 107.761298 
L 398.058545 124.753496 
L 400.797818 152.897258 
L 403.841455 184.063373 
L 405.363273 197.693468 
L 406.580727 206.889175 
L 407.493818 212.537195 
L 408.406909 216.980711 
L 409.32 220.134451 
L 409.928727 221.501709 
L 410.537455 222.273373 
L 410.841818 222.438346 
L 411.146182 222.458565 
L 411.450545 222.334505 
L 412.059273 221.669839 
L 412.363636 221.13786 
L 412.363636 221.13786 
" style="fill:none;stroke:#1f77b4;stroke-linecap:square;stroke-width:2.5;"/>
   </g>
   <g id="line2d_12">
    <path clip-path="url(#p46a2032660)" d="M 107.695636 206.94717 
L 108.913091 203.103474 
L 110.434909 197.332883 
L 113.174182 185.669694 
L 115.609091 175.720117 
L 117.130909 170.380714 
L 118.348364 166.754135 
L 119.565818 163.706852 
L 120.783273 161.253856 
L 122.000727 159.294482 
L 123.218182 157.706143 
L 127.479273 152.590678 
L 129.001091 150.122234 
L 130.827273 146.667943 
L 136.305818 135.828621 
L 137.523273 133.939749 
L 138.740727 132.43911 
L 139.653818 131.621213 
L 140.566909 131.118548 
L 141.175636 130.972932 
L 141.784364 130.991071 
L 142.393091 131.188882 
L 143.001818 131.571587 
L 143.610545 132.155148 
L 144.523636 133.418746 
L 145.436727 135.162494 
L 146.045455 136.622414 
L 146.349818 136.878038 
L 146.654182 135.679487 
L 147.262909 134.627441 
L 149.393455 131.384224 
L 151.828364 128.141044 
L 154.263273 125.301723 
L 156.698182 122.810348 
L 159.133091 120.628835 
L 161.872364 118.517494 
L 164.916 116.507616 
L 168.568364 114.458813 
L 172.220727 112.70486 
L 176.177455 111.115466 
L 179.829818 109.896269 
L 184.395273 108.644247 
L 191.091273 107.124732 
L 198.700364 105.657897 
L 204.787636 104.706631 
L 209.961818 104.110962 
L 214.831636 103.757053 
L 220.310182 103.593315 
L 222.440727 103.644611 
L 223.049455 103.960536 
L 225.18 104.819673 
L 226.701818 105.627619 
L 227.919273 106.44004 
L 229.136727 107.491276 
L 230.354182 108.824941 
L 231.571636 110.502798 
L 232.789091 112.609698 
L 234.006545 115.199973 
L 235.224 118.325333 
L 236.441455 122.049365 
L 237.963273 127.596117 
L 239.485091 134.161416 
L 241.006909 141.705476 
L 242.833091 151.892232 
L 245.268 166.782171 
L 248.920364 189.078293 
L 250.442182 197.116366 
L 251.659636 202.566531 
L 252.877091 206.948078 
L 253.790182 209.423608 
L 254.703273 211.168473 
L 255.312 211.904212 
L 255.920727 212.302951 
L 256.529455 212.362571 
L 257.138182 212.091449 
L 257.746909 211.498544 
L 258.355636 210.602558 
L 259.268727 208.726744 
L 260.181818 206.280976 
L 261.399273 202.282994 
L 262.921091 196.42 
L 268.704 173.030655 
L 270.225818 168.237264 
L 271.443273 165.057369 
L 272.660727 162.423229 
L 273.878182 160.324703 
L 275.095636 158.615453 
L 276.921818 156.478084 
L 278.443636 154.707789 
L 279.965455 152.575061 
L 281.791636 149.486179 
L 283.313455 146.561394 
L 288.792 135.86613 
L 290.009455 134.039311 
L 290.922545 132.915247 
L 291.835636 132.060061 
L 292.748727 131.517671 
L 293.357455 131.334721 
L 294.270545 131.381405 
L 295.183636 131.846692 
L 295.792364 132.392161 
L 296.705455 133.605082 
L 297.618545 135.305392 
L 298.227273 136.733888 
L 298.531636 136.971409 
L 298.836 135.757134 
L 299.444727 134.675138 
L 301.575273 131.33983 
L 303.705818 128.395984 
L 306.140727 125.431064 
L 308.575636 122.828897 
L 311.010545 120.550148 
L 313.445455 118.556145 
L 315.880364 116.809788 
L 318.619636 115.079153 
L 322.576364 112.937801 
L 326.228727 111.26928 
L 330.489818 109.662436 
L 334.750909 108.371879 
L 340.229455 107.030594 
L 347.838545 105.504401 
L 353.621455 104.554338 
L 359.1 103.857821 
L 364.882909 103.368918 
L 369.752727 103.15195 
L 374.318182 103.102826 
L 374.622545 103.156193 
L 375.231273 103.470117 
L 377.361818 104.322895 
L 378.883636 105.120112 
L 380.405455 106.182473 
L 381.622909 107.29565 
L 382.840364 108.71014 
L 384.057818 110.488819 
L 385.275273 112.704988 
L 386.492727 115.422093 
L 387.710182 118.699744 
L 388.927636 122.585621 
L 390.449455 128.346932 
L 391.971273 135.121113 
L 393.493091 142.865909 
L 395.319273 153.256663 
L 398.362909 172.158675 
L 401.102182 188.775912 
L 402.624 196.854014 
L 403.841455 202.349189 
L 405.058909 206.759839 
L 405.972 209.266194 
L 406.885091 211.03094 
L 407.493818 211.784162 
L 408.102545 212.195908 
L 408.711273 212.265786 
L 409.32 212.001986 
L 409.928727 211.416976 
L 410.537455 210.525292 
L 411.450545 208.653407 
L 412.363636 206.205675 
L 412.363636 206.205675 
" style="fill:none;stroke:#ff7f0e;stroke-linecap:square;stroke-width:2.5;"/>
   </g>
   <g id="line2d_13">
    <path clip-path="url(#p46a2032660)" d="M 107.695636 205.779569 
L 108.913091 202.653524 
L 110.434909 198.063056 
L 113.478545 187.871442 
L 115.913455 180.088042 
L 117.739636 175.060401 
L 118.957091 172.236259 
L 120.174545 169.866102 
L 121.392 167.937172 
L 122.609455 166.322173 
L 125.957455 162.012792 
L 127.479273 159.543305 
L 129.001091 156.575387 
L 130.522909 153.11847 
L 132.349091 148.266221 
L 134.479636 141.791691 
L 138.436364 129.49145 
L 139.653818 126.410572 
L 140.871273 123.950962 
L 141.784364 122.611664 
L 142.393091 121.975498 
L 143.001818 121.558583 
L 143.610545 121.368917 
L 144.219273 121.412226 
L 144.828 121.698631 
L 145.436727 122.219247 
L 146.045455 122.992837 
L 146.349818 123.091417 
L 146.654182 122.23062 
L 147.262909 121.444072 
L 148.784727 119.831272 
L 150.306545 118.522432 
L 152.132727 117.246092 
L 154.263273 116.0676 
L 156.393818 115.141237 
L 159.133091 114.18282 
L 163.394182 112.949533 
L 168.264 111.757694 
L 178.003636 109.410798 
L 189.873818 106.451686 
L 195.656727 105.312743 
L 200.830909 104.542018 
L 209.353091 103.826432 
L 216.657818 103.797906 
L 222.136364 104.172848 
L 222.440727 104.294759 
L 223.049455 104.903502 
L 224.571273 106.212942 
L 226.397455 108.125946 
L 227.919273 110.0575 
L 229.441091 112.370668 
L 230.658545 114.530464 
L 232.180364 117.697811 
L 233.702182 121.45472 
L 235.224 125.879908 
L 236.745818 131.038275 
L 238.572 138.245966 
L 240.398182 146.542839 
L 242.528727 157.414842 
L 246.485455 179.289411 
L 248.920364 191.92307 
L 250.442182 198.666737 
L 251.659636 203.139183 
L 252.572727 205.864973 
L 253.485818 207.989811 
L 254.398909 209.496803 
L 255.007636 210.144875 
L 255.616364 210.515311 
L 256.225091 210.608803 
L 256.833818 210.432286 
L 257.442545 210.000176 
L 258.051273 209.325457 
L 258.964364 207.894255 
L 259.877455 206.012299 
L 261.094909 202.929217 
L 262.616727 198.39679 
L 265.660364 188.333371 
L 268.095273 180.614919 
L 269.617091 176.370358 
L 271.138909 172.782303 
L 272.660727 169.900048 
L 273.878182 168.031848 
L 276.008727 165.296041 
L 277.834909 162.851934 
L 279.052364 160.96124 
L 280.574182 158.215961 
L 282.096 154.954254 
L 283.617818 151.179194 
L 285.444 145.917649 
L 287.270182 140.130586 
L 290.313818 130.518131 
L 291.531273 127.270134 
L 292.748727 124.639213 
L 293.661818 123.145236 
L 294.574909 122.102608 
L 295.183636 121.679406 
L 295.792364 121.484532 
L 296.401091 121.517022 
L 297.009818 121.78672 
L 297.618545 122.287005 
L 298.227273 123.04198 
L 298.531636 123.141114 
L 298.836 122.262613 
L 299.444727 121.458644 
L 300.966545 119.779444 
L 302.792727 118.164366 
L 304.923273 116.687437 
L 306.749455 115.679302 
L 308.575636 114.85409 
L 310.706182 114.033577 
L 316.793455 112.164919 
L 330.489818 108.784519 
L 341.751273 106.04587 
L 347.534182 104.979913 
L 352.099636 104.354764 
L 357.578182 103.856505 
L 363.361091 103.612368 
L 367.926545 103.641619 
L 372.796364 103.919284 
L 374.622545 104.178507 
L 375.231273 104.790365 
L 376.753091 106.104647 
L 378.274909 107.673894 
L 379.796727 109.543492 
L 381.318545 111.77673 
L 382.840364 114.442275 
L 384.362182 117.620048 
L 385.884 121.387817 
L 387.405818 125.825888 
L 388.927636 131.002662 
L 390.449455 136.951584 
L 392.275636 145.091415 
L 394.406182 155.832272 
L 397.449818 172.601185 
L 400.493455 189.013352 
L 402.015273 196.180989 
L 403.232727 201.085798 
L 404.450182 205.076061 
L 405.363273 207.392901 
L 406.276364 209.09258 
L 406.885091 209.877739 
L 407.493818 210.379109 
L 408.102545 210.599905 
L 408.711273 210.545601 
L 409.32 210.227498 
L 409.928727 209.660404 
L 410.841818 208.372859 
L 411.754909 206.615632 
L 412.363636 205.216221 
L 412.363636 205.216221 
" style="fill:none;stroke:#2ca02c;stroke-linecap:square;stroke-width:2.5;"/>
   </g>
   <g id="line2d_14">
    <path clip-path="url(#p46a2032660)" d="M 107.695636 205.59566 
L 108.913091 202.6921 
L 110.434909 198.433722 
L 113.174182 189.908212 
L 115.913455 181.562985 
L 117.435273 177.431145 
L 118.957091 173.961753 
L 120.174545 171.74293 
L 121.392 170.001289 
L 122.913818 168.227768 
L 124.435636 166.429081 
L 125.957455 164.213309 
L 127.174909 161.989987 
L 128.696727 158.690055 
L 130.522909 154.038987 
L 132.957818 146.898524 
L 135.088364 139.768675 
L 139.349455 124.990731 
L 140.566909 121.701959 
L 141.48 119.742685 
L 142.393091 118.266645 
L 143.306182 117.306613 
L 143.914909 116.962324 
L 144.523636 116.859862 
L 145.132364 117.001958 
L 145.741091 117.388022 
L 146.045455 117.681153 
L 146.349818 117.712628 
L 146.654182 116.923344 
L 147.262909 116.175228 
L 148.480364 114.974147 
L 150.002182 113.855369 
L 151.219636 113.182619 
L 152.741455 112.593142 
L 154.263273 112.213109 
L 156.393818 111.935454 
L 159.741818 111.747552 
L 163.698545 111.457553 
L 167.350909 111.014418 
L 172.220727 110.131791 
L 177.090545 108.988148 
L 186.525818 106.82724 
L 193.221818 105.585011 
L 198.700364 104.791503 
L 202.961455 104.375829 
L 206.918182 104.195472 
L 212.396727 104.292105 
L 217.570909 104.697398 
L 222.136364 105.294577 
L 222.440727 105.433418 
L 223.049455 106.111395 
L 224.571273 107.600159 
L 226.093091 109.367957 
L 227.614909 111.458077 
L 229.136727 113.910476 
L 230.658545 116.788034 
L 232.180364 120.160631 
L 233.702182 124.086353 
L 235.224 128.63788 
L 236.745818 133.864523 
L 238.572 141.063182 
L 240.398182 149.256199 
L 242.528727 159.859139 
L 249.224727 194.207664 
L 250.746545 200.31299 
L 251.964 204.253735 
L 252.877091 206.594953 
L 253.790182 208.352276 
L 254.703273 209.524016 
L 255.312 209.978071 
L 255.920727 210.172476 
L 256.529455 210.113661 
L 257.138182 209.810437 
L 257.746909 209.278165 
L 258.66 208.081112 
L 259.573091 206.456571 
L 260.790545 203.735033 
L 262.312364 199.653576 
L 264.747273 192.248764 
L 268.095273 182.048779 
L 269.617091 177.942267 
L 271.138909 174.486159 
L 272.356364 172.280569 
L 273.573818 170.54643 
L 275.095636 168.780834 
L 276.921818 166.574433 
L 278.139273 164.771825 
L 279.356727 162.559535 
L 280.878545 159.245591 
L 282.400364 155.38318 
L 284.226545 150.157243 
L 286.052727 144.314642 
L 288.183273 136.730498 
L 291.226909 125.942718 
L 292.444364 122.419605 
L 293.357455 120.26398 
L 294.270545 118.590324 
L 295.183636 117.433443 
L 295.792364 116.960397 
L 296.401091 116.723818 
L 297.009818 116.736691 
L 297.618545 116.987225 
L 298.531636 117.524719 
L 298.836 116.739457 
L 299.444727 115.983966 
L 300.662182 114.755066 
L 301.879636 113.800454 
L 303.097091 113.05729 
L 304.618909 112.383793 
L 306.140727 111.936025 
L 307.966909 111.617385 
L 311.314909 111.34524 
L 316.184727 110.94212 
L 320.141455 110.417554 
L 324.098182 109.699268 
L 332.620364 107.75883 
L 339.012 106.43397 
L 345.708 105.28742 
L 351.490909 104.53568 
L 356.056364 104.17238 
L 360.621818 104.07534 
L 363.969818 104.163576 
L 369.448364 104.588114 
L 373.709455 105.148863 
L 374.622545 105.383461 
L 375.231273 106.066537 
L 376.753091 107.562993 
L 378.274909 109.345011 
L 379.796727 111.446787 
L 381.318545 113.917406 
L 382.840364 116.812453 
L 384.362182 120.20019 
L 385.884 124.149945 
L 387.405818 128.722496 
L 388.927636 133.975363 
L 390.753818 141.203909 
L 392.58 149.421868 
L 394.710545 160.056728 
L 401.102182 193.045338 
L 402.624 199.353622 
L 403.841455 203.500226 
L 404.754545 205.999371 
L 405.667636 207.931529 
L 406.580727 209.274021 
L 407.189455 209.840725 
L 407.798182 210.147292 
L 408.406909 210.195283 
L 409.015636 209.993961 
L 409.624364 209.557128 
L 410.233091 208.898864 
L 411.146182 207.529947 
L 412.059273 205.755286 
L 412.363636 205.085373 
L 412.363636 205.085373 
" style="fill:none;stroke:#d62728;stroke-linecap:square;stroke-width:2.5;"/>
   </g>
   <g id="line2d_15">
    <path clip-path="url(#p46a2032660)" d="M 108 205.714286 
L 412.363636 205.714286 
" style="fill:none;stroke:#000000;stroke-dasharray:3.2,0.8,0.5,0.8;stroke-dashoffset:0;stroke-width:0.5;"/>
   </g>
   <g id="line2d_16">
    <path clip-path="url(#p46a2032660)" d="M 260.181818 230.4 
L 260.181818 57.6 
" style="fill:none;stroke:#000000;stroke-dasharray:3.2,0.8,0.5,0.8;stroke-dashoffset:0;stroke-width:0.5;"/>
   </g>
   <g id="patch_3">
    <path d="M 108 230.4 
L 108 57.6 
" style="fill:none;stroke:#000000;stroke-linecap:square;stroke-linejoin:miter;stroke-width:0.8;"/>
   </g>
   <g id="patch_4">
    <path d="M 412.363636 230.4 
L 412.363636 57.6 
" style="fill:none;stroke:#000000;stroke-linecap:square;stroke-linejoin:miter;stroke-width:0.8;"/>
   </g>
   <g id="patch_5">
    <path d="M 108 230.4 
L 412.363636 230.4 
" style="fill:none;stroke:#000000;stroke-linecap:square;stroke-linejoin:miter;stroke-width:0.8;"/>
   </g>
   <g id="patch_6">
    <path d="M 108 57.6 
L 412.363636 57.6 
" style="fill:none;stroke:#000000;stroke-linecap:square;stroke-linejoin:miter;stroke-width:0.8;"/>
   </g>
   <g id="legend_1">
    <g id="line2d_17">
     <path d="M 198.84762 41.7825 
L 228.83562 41.7825 
" style="fill:none;stroke:#1f77b4;stroke-linecap:square;stroke-width:2.5;"/>
    </g>
    <g id="line2d_18"/>
    <g id="text_13">
     <!-- $\Phi$ = 60$^\circ$ -->
     <g transform="translate(240.83082 47.0304)scale(0.14994 -0.14994)">
      <defs>
       <path d="M 43.203125 58 
L 43.203125 56 
Q 48.703125 56 53.75 54.703125 
Q 58.796875 53.40625 63.140625 50.75 
Q 67.5 48.09375 70.140625 43.546875 
Q 72.796875 39 72.796875 33 
Q 72.796875 27.40625 70.140625 22.84375 
Q 67.5 18.296875 63.34375 15.640625 
Q 59.203125 13 54.59375 11.640625 
Q 50 10.296875 45.703125 10.296875 
L 43.203125 10.296875 
L 43.203125 8.59375 
Q 43.203125 4.796875 45.453125 3.5 
Q 47.703125 2.203125 53.5 1.90625 
L 53.5 0 
L 22.90625 0 
L 22.90625 1.90625 
Q 28.09375 1.90625 30.546875 3.34375 
Q 33 4.796875 33 8.5 
L 33 10.296875 
L 31.296875 10.296875 
Q 17.703125 10.296875 10.59375 16.5 
Q 3.5 22.703125 3.5 33 
Q 3.5 39 6.046875 43.546875 
Q 8.59375 48.09375 12.9375 50.75 
Q 17.296875 53.40625 22.34375 54.703125 
Q 27.40625 56 33 56 
L 33 58 
Q 33 61.59375 31.046875 62.9375 
Q 29.09375 64.296875 22.90625 64.296875 
L 22.90625 66.203125 
L 53.5 66.203125 
L 53.5 64.296875 
Q 47.296875 64.296875 45.25 62.796875 
Q 43.203125 61.296875 43.203125 58 
z
M 43 52.296875 
L 43 14 
Q 50.5 14 56.203125 18.84375 
Q 61.90625 23.703125 61.90625 31.796875 
Q 61.90625 39.90625 56.953125 46.09375 
Q 52 52.296875 43 52.296875 
z
M 33.203125 14 
L 33.203125 52.296875 
Q 25.203125 52.296875 19.796875 45.9375 
Q 14.40625 39.59375 14.40625 31.796875 
Q 14.40625 24.40625 19.453125 19.203125 
Q 24.5 14 33.203125 14 
z
" id="STIXGeneral-Regular-934"/>
       <path id="STIXGeneral-Regular-32"/>
       <path d="M 63.703125 32 
L 4.796875 32 
L 4.796875 38.59375 
L 63.703125 38.59375 
z
M 63.703125 12 
L 4.796875 12 
L 4.796875 18.59375 
L 63.703125 18.59375 
z
" id="STIXGeneral-Regular-61"/>
       <path d="M 23.203125 38.703125 
Q 31 30.796875 31 25.1875 
Q 31 19.59375 27.046875 15.640625 
Q 23.09375 11.703125 17.5 11.703125 
Q 11.796875 11.703125 7.890625 15.640625 
Q 4 19.59375 4 25.40625 
Q 4 31 7.953125 34.84375 
Q 11.90625 38.703125 17.703125 38.703125 
Q 23.203125 38.703125 31 30.796875 
z
M 20.40625 18.296875 
Q 24.40625 22.296875 24.40625 25.1875 
Q 24.40625 28.09375 22.40625 30.09375 
Q 20.40625 32.09375 17.703125 32.09375 
Q 14.59375 32.09375 12.59375 30.140625 
Q 10.59375 28.203125 10.59375 25.40625 
Q 10.59375 22.296875 12.546875 20.296875 
Q 14.5 18.296875 17.5 18.296875 
Q 20.40625 18.296875 24.40625 22.296875 
z
" id="STIXGeneral-Regular-8728"/>
      </defs>
      <use transform="translate(0 0.59375)" xlink:href="#STIXGeneral-Regular-934"/>
      <use transform="translate(76.299988 0.59375)" xlink:href="#STIXGeneral-Regular-32"/>
      <use transform="translate(101.299973 0.59375)" xlink:href="#STIXGeneral-Regular-61"/>
      <use transform="translate(169.799957 0.59375)" xlink:href="#STIXGeneral-Regular-32"/>
      <use transform="translate(194.799942 0.59375)" xlink:href="#STIXGeneral-Regular-54"/>
      <use transform="translate(244.799927 0.59375)" xlink:href="#STIXGeneral-Regular-48"/>
      <use transform="translate(306.45119 35.86875)scale(0.7)" xlink:href="#STIXGeneral-Regular-8728"/>
     </g>
    </g>
    <g id="line2d_19">
     <path d="M 322.69806 41.7825 
L 352.68606 41.7825 
" style="fill:none;stroke:#ff7f0e;stroke-linecap:square;stroke-width:2.5;"/>
    </g>
    <g id="line2d_20"/>
    <g id="text_14">
     <!-- $\Phi$ = 120$^\circ$ -->
     <g transform="translate(364.68126 47.0304)scale(0.14994 -0.14994)">
      <use transform="translate(0 0.40625)" xlink:href="#STIXGeneral-Regular-934"/>
      <use transform="translate(76.299988 0.40625)" xlink:href="#STIXGeneral-Regular-32"/>
      <use transform="translate(101.299973 0.40625)" xlink:href="#STIXGeneral-Regular-61"/>
      <use transform="translate(169.799957 0.40625)" xlink:href="#STIXGeneral-Regular-32"/>
      <use transform="translate(194.799942 0.40625)" xlink:href="#STIXGeneral-Regular-49"/>
      <use transform="translate(244.799927 0.40625)" xlink:href="#STIXGeneral-Regular-50"/>
      <use transform="translate(294.799911 0.40625)" xlink:href="#STIXGeneral-Regular-48"/>
      <use transform="translate(356.451175 35.68125)scale(0.7)" xlink:href="#STIXGeneral-Regular-8728"/>
     </g>
    </g>
    <g id="line2d_21">
     <path d="M 454.0455 41.7825 
L 484.0335 41.7825 
" style="fill:none;stroke:#2ca02c;stroke-linecap:square;stroke-width:2.5;"/>
    </g>
    <g id="line2d_22"/>
    <g id="text_15">
     <!-- $\Phi$ = 160$^\circ$ -->
     <g transform="translate(496.0287 47.0304)scale(0.14994 -0.14994)">
      <use transform="translate(0 0.59375)" xlink:href="#STIXGeneral-Regular-934"/>
      <use transform="translate(76.299988 0.59375)" xlink:href="#STIXGeneral-Regular-32"/>
      <use transform="translate(101.299973 0.59375)" xlink:href="#STIXGeneral-Regular-61"/>
      <use transform="translate(169.799957 0.59375)" xlink:href="#STIXGeneral-Regular-32"/>
      <use transform="translate(194.799942 0.59375)" xlink:href="#STIXGeneral-Regular-49"/>
      <use transform="translate(244.799927 0.59375)" xlink:href="#STIXGeneral-Regular-54"/>
      <use transform="translate(294.799911 0.59375)" xlink:href="#STIXGeneral-Regular-48"/>
      <use transform="translate(356.451175 35.86875)scale(0.7)" xlink:href="#STIXGeneral-Regular-8728"/>
     </g>
    </g>
    <g id="line2d_23">
     <path d="M 585.39294 41.7825 
L 615.38094 41.7825 
" style="fill:none;stroke:#d62728;stroke-linecap:square;stroke-width:2.5;"/>
    </g>
    <g id="line2d_24"/>
    <g id="text_16">
     <!-- $\Phi$ = 180$^\circ$ -->
     <g transform="translate(627.37614 47.0304)scale(0.14994 -0.14994)">
      <use transform="translate(0 0.40625)" xlink:href="#STIXGeneral-Regular-934"/>
      <use transform="translate(76.299988 0.40625)" xlink:href="#STIXGeneral-Regular-32"/>
      <use transform="translate(101.299973 0.40625)" xlink:href="#STIXGeneral-Regular-61"/>
      <use transform="translate(169.799957 0.40625)" xlink:href="#STIXGeneral-Regular-32"/>
      <use transform="translate(194.799942 0.40625)" xlink:href="#STIXGeneral-Regular-49"/>
      <use transform="translate(244.799927 0.40625)" xlink:href="#STIXGeneral-Regular-56"/>
      <use transform="translate(294.799911 0.40625)" xlink:href="#STIXGeneral-Regular-48"/>
      <use transform="translate(356.451175 35.68125)scale(0.7)" xlink:href="#STIXGeneral-Regular-8728"/>
     </g>
    </g>
   </g>
  </g>
  <g id="axes_2">
   <g id="patch_7">
    <path d="M 473.236364 230.4 
L 777.6 230.4 
L 777.6 57.6 
L 473.236364 57.6 
z
" style="fill:#ffffff;"/>
   </g>
   <g id="matplotlib.axis_3">
    <g id="xtick_7">
     <g id="line2d_25">
      <g>
       <use style="fill:#ffffff;stroke:#000000;stroke-width:0.8;" x="473.236364" xlink:href="#m7a188d5063" y="230.4"/>
      </g>
     </g>
     <g id="text_17">
      <!-- 4.0 -->
      <g transform="translate(461.986364 249.693438)scale(0.18 -0.18)">
       <use xlink:href="#STIXGeneral-Regular-52"/>
       <use x="49.999985" xlink:href="#STIXGeneral-Regular-46"/>
       <use x="74.999969" xlink:href="#STIXGeneral-Regular-48"/>
      </g>
     </g>
    </g>
    <g id="xtick_8">
     <g id="line2d_26">
      <g>
       <use style="fill:#ffffff;stroke:#000000;stroke-width:0.8;" x="534.109091" xlink:href="#m7a188d5063" y="230.4"/>
      </g>
     </g>
     <g id="text_18">
      <!-- 4.2 -->
      <g transform="translate(522.859091 249.693438)scale(0.18 -0.18)">
       <use xlink:href="#STIXGeneral-Regular-52"/>
       <use x="49.999985" xlink:href="#STIXGeneral-Regular-46"/>
       <use x="74.999969" xlink:href="#STIXGeneral-Regular-50"/>
      </g>
     </g>
    </g>
    <g id="xtick_9">
     <g id="line2d_27">
      <g>
       <use style="fill:#ffffff;stroke:#000000;stroke-width:0.8;" x="594.981818" xlink:href="#m7a188d5063" y="230.4"/>
      </g>
     </g>
     <g id="text_19">
      <!-- 4.4 -->
      <g transform="translate(583.731818 249.693438)scale(0.18 -0.18)">
       <use xlink:href="#STIXGeneral-Regular-52"/>
       <use x="49.999985" xlink:href="#STIXGeneral-Regular-46"/>
       <use x="74.999969" xlink:href="#STIXGeneral-Regular-52"/>
      </g>
     </g>
    </g>
    <g id="xtick_10">
     <g id="line2d_28">
      <g>
       <use style="fill:#ffffff;stroke:#000000;stroke-width:0.8;" x="655.854545" xlink:href="#m7a188d5063" y="230.4"/>
      </g>
     </g>
     <g id="text_20">
      <!-- 4.6 -->
      <g transform="translate(644.604545 249.693438)scale(0.18 -0.18)">
       <use xlink:href="#STIXGeneral-Regular-52"/>
       <use x="49.999985" xlink:href="#STIXGeneral-Regular-46"/>
       <use x="74.999969" xlink:href="#STIXGeneral-Regular-54"/>
      </g>
     </g>
    </g>
    <g id="xtick_11">
     <g id="line2d_29">
      <g>
       <use style="fill:#ffffff;stroke:#000000;stroke-width:0.8;" x="716.727273" xlink:href="#m7a188d5063" y="230.4"/>
      </g>
     </g>
     <g id="text_21">
      <!-- 4.8 -->
      <g transform="translate(705.477273 249.693438)scale(0.18 -0.18)">
       <use xlink:href="#STIXGeneral-Regular-52"/>
       <use x="49.999985" xlink:href="#STIXGeneral-Regular-46"/>
       <use x="74.999969" xlink:href="#STIXGeneral-Regular-56"/>
      </g>
     </g>
    </g>
    <g id="xtick_12">
     <g id="line2d_30">
      <g>
       <use style="fill:#ffffff;stroke:#000000;stroke-width:0.8;" x="777.6" xlink:href="#m7a188d5063" y="230.4"/>
      </g>
     </g>
     <g id="text_22">
      <!-- 5.0 -->
      <g transform="translate(766.35 249.693438)scale(0.18 -0.18)">
       <use xlink:href="#STIXGeneral-Regular-53"/>
       <use x="49.999985" xlink:href="#STIXGeneral-Regular-46"/>
       <use x="74.999969" xlink:href="#STIXGeneral-Regular-48"/>
      </g>
     </g>
    </g>
    <g id="text_23">
     <!-- $\^t$ -->
     <g transform="translate(622.898182 269.893438)scale(0.18 -0.18)">
      <use transform="translate(39.042969 16.59375)" xlink:href="#STIXGeneral-Regular-770"/>
      <use transform="translate(0 0.203125)" xlink:href="#STIXGeneral-Italic-116"/>
     </g>
    </g>
   </g>
   <g id="matplotlib.axis_4">
    <g id="ytick_5">
     <g id="line2d_31">
      <g>
       <use style="fill:#ffffff;stroke:#000000;stroke-width:0.8;" x="473.236364" xlink:href="#m944caf5954" y="182.4"/>
      </g>
     </g>
     <g id="text_24">
      <!-- 0 -->
      <g transform="translate(457.236364 188.546719)scale(0.18 -0.18)">
       <use xlink:href="#STIXGeneral-Regular-48"/>
      </g>
     </g>
    </g>
    <g id="ytick_6">
     <g id="line2d_32">
      <g>
       <use style="fill:#ffffff;stroke:#000000;stroke-width:0.8;" x="473.236364" xlink:href="#m944caf5954" y="118.4"/>
      </g>
     </g>
     <g id="text_25">
      <!-- 2 -->
      <g transform="translate(457.236364 124.546719)scale(0.18 -0.18)">
       <use xlink:href="#STIXGeneral-Regular-50"/>
      </g>
     </g>
    </g>
    <g id="text_26">
     <!-- $C_D$ -->
     <g transform="translate(449.329801 154.98)rotate(-90)scale(0.18 -0.18)">
      <defs>
       <path d="M 13.09375 65.296875 
L 40.796875 65.296875 
Q 54.203125 65.296875 62.09375 58.296875 
Q 70 51.296875 70 38.40625 
Q 70 20.703125 54 8.296875 
Q 43.40625 0 24.90625 0 
L -0.796875 0 
L -0.796875 1.59375 
Q 3.5 2.40625 4.84375 3.59375 
Q 6.203125 4.796875 7.40625 9.203125 
L 19.59375 53.703125 
Q 20.703125 57.59375 20.703125 59.59375 
Q 20.703125 61.703125 19.09375 62.640625 
Q 17.5 63.59375 13.09375 63.703125 
z
M 31 58.40625 
L 19.203125 16.203125 
Q 17 8.203125 17 6.703125 
Q 17 3 23.796875 3 
Q 38.59375 3 47.90625 12 
Q 53.09375 17 56 24.953125 
Q 58.90625 32.90625 58.90625 40.796875 
Q 58.90625 52.90625 51.09375 58.796875 
Q 46.40625 62.296875 38 62.296875 
Q 34.796875 62.296875 33.25 61.546875 
Q 31.703125 60.796875 31 58.40625 
z
" id="STIXGeneral-Italic-68"/>
      </defs>
      <use transform="translate(0 0.40625)" xlink:href="#STIXGeneral-Italic-67"/>
      <use transform="translate(66.699997 -12.821875)scale(0.7)" xlink:href="#STIXGeneral-Italic-68"/>
     </g>
    </g>
   </g>
   <g id="line2d_33">
    <path clip-path="url(#p5ca2b67214)" d="M 472.932 202.653487 
L 473.236364 206.321134 
L 473.540727 154.874941 
L 475.366909 134.838135 
L 476.888727 120.605099 
L 478.106182 110.991998 
L 479.323636 103.063173 
L 480.541091 96.742009 
L 481.454182 93.005997 
L 482.367273 90.027568 
L 483.280364 87.720159 
L 484.193455 86.037496 
L 485.106545 84.864614 
L 486.019636 84.144067 
L 486.932727 83.714133 
L 488.150182 83.424835 
L 491.193818 82.951281 
L 492.411273 82.4656 
L 493.628727 81.686615 
L 494.846182 80.609482 
L 496.368 78.962008 
L 500.324727 74.382803 
L 501.237818 73.703155 
L 501.846545 73.44291 
L 502.455273 73.371997 
L 503.064 73.523913 
L 503.672727 73.927501 
L 504.281455 74.607166 
L 504.890182 75.590786 
L 505.498909 76.899658 
L 506.412 79.513442 
L 507.325091 82.969913 
L 508.238182 87.302085 
L 509.455636 94.488942 
L 510.673091 103.277927 
L 511.586182 109.892564 
L 511.890545 108.756416 
L 512.194909 108.694193 
L 512.803636 109.11068 
L 515.847273 110.761792 
L 518.890909 112.319391 
L 521.325818 113.287419 
L 523.456364 113.904211 
L 525.891273 114.367643 
L 528.326182 114.625399 
L 531.369818 114.709762 
L 535.022182 114.563288 
L 540.196364 114.089368 
L 562.414909 111.654317 
L 572.154545 111.071563 
L 581.589818 110.791213 
L 587.372727 110.754537 
L 587.677091 110.510196 
L 588.285818 108.919313 
L 589.503273 106.304003 
L 591.633818 101.160961 
L 594.068727 94.654787 
L 600.764727 76.396013 
L 602.590909 72.176577 
L 604.112727 69.250551 
L 605.330182 67.439434 
L 606.243273 66.486813 
L 607.156364 65.927796 
L 607.765091 65.802277 
L 608.373818 65.907443 
L 608.982545 66.263159 
L 609.591273 66.904419 
L 610.2 67.831766 
L 611.113091 69.85875 
L 612.026182 72.679178 
L 612.939273 76.378069 
L 613.852364 81.020412 
L 614.765455 86.667074 
L 615.982909 95.778472 
L 617.200364 106.633258 
L 618.722182 122.442606 
L 620.548364 143.957614 
L 625.418182 205.217979 
L 625.722545 155.992957 
L 627.548727 136.020064 
L 629.070545 121.817846 
L 630.592364 110.090336 
L 631.809818 102.564324 
L 633.027273 96.582773 
L 633.940364 93.061549 
L 634.853455 90.258247 
L 635.766545 88.12941 
L 636.679636 86.561351 
L 637.592727 85.49929 
L 638.505818 84.813421 
L 639.723273 84.299533 
L 644.288727 83.075913 
L 645.506182 82.310206 
L 646.723636 81.254469 
L 648.245455 79.591381 
L 650.680364 76.607793 
L 652.202182 74.899416 
L 653.115273 74.12213 
L 654.028364 73.672653 
L 654.637091 73.601942 
L 655.245818 73.752459 
L 655.854545 74.152196 
L 656.463273 74.826736 
L 657.072 75.803157 
L 657.680727 77.100281 
L 658.593818 79.69987 
L 659.506909 83.127156 
L 660.42 87.434423 
L 661.637455 94.579383 
L 662.854909 103.32604 
L 663.768 109.900799 
L 664.072364 108.755082 
L 664.376727 108.679074 
L 664.985455 109.069921 
L 668.029091 110.59825 
L 671.072727 112.054747 
L 673.507636 112.958428 
L 675.942545 113.600406 
L 678.681818 114.036708 
L 681.421091 114.235652 
L 684.464727 114.237015 
L 688.421455 114.002012 
L 692.682545 113.576539 
L 714.292364 111.247358 
L 723.727636 110.708573 
L 731.945455 110.467571 
L 739.554545 110.436693 
L 739.858909 110.189116 
L 740.467636 108.60131 
L 741.685091 105.993847 
L 743.511273 101.633478 
L 745.946182 95.206678 
L 753.250909 75.412551 
L 755.077091 71.330994 
L 756.294545 69.058917 
L 757.512 67.282164 
L 758.425091 66.362725 
L 759.033818 65.974514 
L 759.642545 65.785034 
L 760.251273 65.801923 
L 760.86 66.057172 
L 761.468727 66.569304 
L 762.077455 67.351756 
L 762.686182 68.452205 
L 763.599273 70.74426 
L 764.512364 73.871599 
L 765.425455 77.894392 
L 766.338545 82.880838 
L 767.556 91.124546 
L 768.773455 101.149628 
L 770.295273 116.038317 
L 771.817091 133.148791 
L 774.252 163.465112 
L 777.295636 201.94271 
L 777.6 182.4 
L 777.6 182.4 
" style="fill:none;stroke:#1f77b4;stroke-linecap:square;stroke-width:2.5;"/>
   </g>
   <g id="line2d_34">
    <path clip-path="url(#p5ca2b67214)" d="M 472.932 228.236981 
L 473.236364 229.884536 
L 473.540727 133.306452 
L 475.062545 126.053376 
L 476.28 121.221865 
L 477.497455 117.261099 
L 478.714909 114.169748 
L 479.628 112.396465 
L 480.541091 111.072066 
L 481.454182 110.152743 
L 482.367273 109.577538 
L 483.280364 109.317279 
L 484.193455 109.301673 
L 485.106545 109.478176 
L 486.932727 110.222134 
L 489.367636 111.339643 
L 490.585091 111.700212 
L 491.802545 111.826135 
L 493.02 111.702673 
L 494.541818 111.272947 
L 500.324727 109.248714 
L 501.846545 109.09265 
L 503.064 109.183888 
L 504.281455 109.508662 
L 505.498909 110.122653 
L 506.716364 111.087354 
L 507.933818 112.469493 
L 509.151273 114.337165 
L 510.368727 116.754283 
L 511.586182 119.396316 
L 511.890545 118.87573 
L 512.499273 118.671292 
L 520.412727 116.396098 
L 525.282545 115.271671 
L 530.456727 114.357375 
L 535.935273 113.617497 
L 542.022545 113.032037 
L 547.805455 112.692741 
L 556.632 112.396508 
L 573.372 112.00652 
L 582.807273 112.014352 
L 587.677091 112.154734 
L 588.894545 112.641713 
L 594.981818 114.79474 
L 597.416727 115.699946 
L 599.242909 116.580332 
L 600.460364 117.335355 
L 601.677818 118.293529 
L 602.895273 119.520409 
L 604.112727 121.067226 
L 605.330182 123.028376 
L 606.243273 124.802805 
L 607.460727 127.658223 
L 608.678182 131.139517 
L 609.895636 135.287655 
L 611.113091 140.168135 
L 612.634909 147.339112 
L 614.156727 155.658307 
L 615.982909 166.960197 
L 618.417818 183.65958 
L 622.678909 213.338919 
L 624.505091 224.552938 
L 625.113818 227.962485 
L 625.722545 133.62891 
L 627.244364 126.472424 
L 628.461818 121.730543 
L 629.679273 117.838343 
L 630.896727 114.819914 
L 631.809818 113.078157 
L 632.722909 111.746053 
L 633.636 110.847476 
L 634.549091 110.262004 
L 635.462182 109.977928 
L 636.375273 109.937601 
L 637.897091 110.264632 
L 642.766909 112.138541 
L 643.68 112.259917 
L 644.897455 112.196093 
L 645.810545 112.034044 
L 647.941091 111.331143 
L 652.202182 109.870257 
L 653.724 109.636318 
L 654.941455 109.637574 
L 656.158909 109.862161 
L 657.376364 110.352245 
L 658.289455 110.933685 
L 659.202545 111.731165 
L 660.115636 112.76641 
L 661.333091 114.591091 
L 662.550545 116.955379 
L 663.768 119.556185 
L 664.072364 119.024613 
L 664.681091 118.799222 
L 671.985818 116.49791 
L 676.246909 115.39087 
L 680.508 114.490398 
L 685.073455 113.724216 
L 690.856364 112.98713 
L 696.334909 112.5184 
L 703.335273 112.187033 
L 719.770909 111.786669 
L 730.728 111.711955 
L 739.554545 111.842045 
L 740.163273 112.038558 
L 745.337455 113.888272 
L 749.902909 115.526438 
L 751.729091 116.435754 
L 753.250909 117.460118 
L 754.468364 118.534203 
L 755.685818 119.903021 
L 756.903273 121.640188 
L 758.120727 123.817155 
L 759.338182 126.522329 
L 760.555636 129.836454 
L 761.773091 133.813409 
L 762.990545 138.506526 
L 764.512364 145.435694 
L 766.034182 153.523809 
L 767.860364 164.621796 
L 770.295273 181.18684 
L 775.469455 217.108636 
L 777.295636 227.933377 
L 777.6 182.4 
L 777.6 182.4 
" style="fill:none;stroke:#ff7f0e;stroke-linecap:square;stroke-width:2.5;"/>
   </g>
   <g id="line2d_35">
    <path clip-path="url(#p5ca2b67214)" d="M 472.932 222.280859 
L 473.236364 223.536506 
L 473.540727 140.050919 
L 475.062545 134.594167 
L 476.584364 130.148295 
L 477.801818 127.290614 
L 479.019273 125.003843 
L 480.236727 123.235525 
L 481.149818 122.230627 
L 482.062909 121.471457 
L 482.976 120.943314 
L 483.889091 120.62751 
L 485.106545 120.520408 
L 486.324 120.673965 
L 488.454545 121.188349 
L 490.280727 121.391153 
L 492.106909 121.172252 
L 494.237455 120.448492 
L 495.759273 119.690153 
L 497.585455 118.443619 
L 499.411636 116.826655 
L 504.585818 111.746562 
L 505.803273 111.025183 
L 506.716364 110.746245 
L 507.629455 110.730321 
L 508.542545 111.014332 
L 509.455636 111.62495 
L 510.368727 112.589619 
L 511.586182 114.198974 
L 511.890545 113.836147 
L 512.499273 113.692596 
L 514.934182 113.389983 
L 518.586545 113.266797 
L 524.369455 113.38282 
L 534.109091 113.507859 
L 543.24 113.390241 
L 552.066545 112.975912 
L 567.893455 112.223563 
L 580.981091 112.152754 
L 585.546545 112.304625 
L 587.677091 112.483986 
L 588.590182 113.098211 
L 591.025091 114.713614 
L 594.677455 117.40388 
L 597.112364 119.382169 
L 599.242909 121.369912 
L 600.764727 123.034778 
L 602.286545 125.011447 
L 603.504 126.880087 
L 604.721455 129.0613 
L 605.938909 131.633094 
L 607.156364 134.649138 
L 608.373818 138.153277 
L 609.895636 143.314165 
L 611.417455 149.346418 
L 612.939273 156.270803 
L 614.765455 165.640836 
L 617.200364 179.426911 
L 622.070182 207.360636 
L 623.896364 216.465064 
L 625.418182 223.043687 
L 625.722545 140.559765 
L 626.94 136.160258 
L 628.157455 132.407238 
L 629.374909 129.278983 
L 630.592364 126.737285 
L 631.809818 124.72009 
L 633.027273 123.195451 
L 634.244727 122.11815 
L 635.462182 121.427532 
L 636.679636 121.146611 
L 637.897091 121.163263 
L 639.418909 121.431728 
L 642.158182 121.82871 
L 643.68 121.694368 
L 645.201818 121.313034 
L 647.028 120.562789 
L 648.854182 119.481347 
L 650.984727 117.728828 
L 654.028364 114.521474 
L 655.854545 112.669338 
L 657.072 111.699692 
L 657.985091 111.171367 
L 658.898182 110.884197 
L 659.811273 110.858649 
L 660.724364 111.135532 
L 661.637455 111.740988 
L 662.550545 112.695919 
L 663.768 114.28868 
L 664.072364 113.915609 
L 664.681091 113.763593 
L 666.811636 113.437823 
L 670.464 113.21994 
L 696.639273 113.069303 
L 707.596364 112.538448 
L 719.162182 112.106364 
L 727.075636 111.986713 
L 734.684727 112.090701 
L 739.554545 112.319427 
L 739.858909 112.399026 
L 740.772 113.015945 
L 743.511273 114.85588 
L 747.163636 117.5811 
L 749.902909 119.875887 
L 752.033455 121.977723 
L 753.555273 123.767484 
L 755.077091 125.912861 
L 756.598909 128.507939 
L 757.816364 130.992392 
L 759.033818 133.911851 
L 760.251273 137.311405 
L 761.468727 141.247179 
L 762.990545 146.958086 
L 764.512364 153.561051 
L 766.338545 162.600383 
L 768.469091 174.367289 
L 774.860727 210.825004 
L 776.686909 219.51051 
L 777.295636 222.104482 
L 777.6 141.455597 
L 777.6 141.455597 
" style="fill:none;stroke:#2ca02c;stroke-linecap:square;stroke-width:2.5;"/>
   </g>
   <g id="line2d_36">
    <path clip-path="url(#p5ca2b67214)" d="M 472.932 220.027027 
L 473.236364 221.169619 
L 473.540727 142.521346 
L 475.062545 137.518251 
L 476.28 134.146182 
L 477.497455 131.298037 
L 478.714909 128.931658 
L 479.932364 127.006127 
L 481.149818 125.488421 
L 482.062909 124.605173 
L 483.280364 123.808621 
L 484.193455 123.497057 
L 485.106545 123.422854 
L 486.324 123.606506 
L 489.063273 124.318969 
L 490.280727 124.400542 
L 491.498182 124.247422 
L 493.02 123.73185 
L 494.541818 122.978168 
L 496.368 121.743665 
L 498.194182 120.147348 
L 499.716 118.478681 
L 501.237818 116.517778 
L 504.890182 111.680341 
L 506.107636 110.536808 
L 507.020727 109.972944 
L 507.933818 109.702371 
L 508.542545 109.700803 
L 509.151273 109.852847 
L 510.064364 110.378048 
L 510.977455 111.275099 
L 511.586182 111.877719 
L 511.890545 111.544011 
L 512.803636 111.344082 
L 514.325455 111.176053 
L 517.064727 111.21536 
L 519.499636 111.487062 
L 524.673818 112.392793 
L 528.630545 112.94704 
L 532.891636 113.310064 
L 536.848364 113.46047 
L 541.413818 113.426563 
L 549.327273 113.12535 
L 566.676 112.363693 
L 573.980727 112.285912 
L 581.589818 112.518832 
L 587.372727 112.925705 
L 587.677091 113.016219 
L 588.590182 113.685804 
L 590.720727 115.243711 
L 594.068727 118.005643 
L 596.808 120.507028 
L 598.938545 122.70744 
L 600.764727 124.899383 
L 602.286545 127.045755 
L 603.808364 129.577649 
L 605.330182 132.612375 
L 606.852 136.244127 
L 608.373818 140.584349 
L 609.895636 145.696915 
L 611.417455 151.625737 
L 613.243636 159.759993 
L 615.374182 170.481288 
L 619.026545 190.401389 
L 621.765818 204.799723 
L 623.592 213.298941 
L 625.113818 219.493449 
L 625.722545 143.07563 
L 627.244364 138.112063 
L 628.766182 134.010174 
L 629.983636 131.306794 
L 631.201091 129.048431 
L 632.418545 127.223637 
L 633.636 125.790839 
L 634.853455 124.761679 
L 635.766545 124.292818 
L 636.679636 124.040669 
L 637.592727 124.03024 
L 638.505818 124.190558 
L 641.245091 124.875327 
L 642.462545 124.946234 
L 643.375636 124.850164 
L 644.593091 124.507605 
L 646.114909 123.820691 
L 647.636727 122.855723 
L 649.158545 121.649718 
L 650.680364 120.161831 
L 652.202182 118.358553 
L 654.028364 115.839646 
L 656.463273 112.439187 
L 657.680727 111.071295 
L 658.593818 110.304979 
L 659.506909 109.816755 
L 660.42 109.64098 
L 661.028727 109.711777 
L 661.941818 110.110046 
L 662.854909 110.875495 
L 663.768 111.814012 
L 664.072364 111.485913 
L 664.681091 111.332903 
L 666.202909 111.122097 
L 668.333455 111.065229 
L 670.768364 111.238354 
L 674.420727 111.796884 
L 679.290545 112.56117 
L 683.551636 112.981685 
L 688.117091 113.207238 
L 693.595636 113.196486 
L 703.030909 112.869045 
L 722.510182 112.194875 
L 730.423636 112.292048 
L 737.424 112.692566 
L 739.858909 112.968868 
L 740.772 113.642882 
L 743.206909 115.45485 
L 746.250545 117.999603 
L 749.294182 120.830631 
L 751.424727 123.10292 
L 753.250909 125.383023 
L 754.772727 127.622715 
L 756.294545 130.276918 
L 757.816364 133.454286 
L 759.338182 137.247901 
L 760.86 141.776189 
L 762.381818 147.087935 
L 763.903636 153.20615 
L 765.729818 161.563275 
L 767.860364 172.475217 
L 774.860727 209.576398 
L 776.686909 217.491201 
L 777.6 220.983352 
L 777.6 220.983352 
" style="fill:none;stroke:#d62728;stroke-linecap:square;stroke-width:2.5;"/>
   </g>
   <g id="line2d_37">
    <path clip-path="url(#p5ca2b67214)" d="M 473.236364 182.4 
L 777.6 182.4 
" style="fill:none;stroke:#000000;stroke-dasharray:3.2,0.8,0.5,0.8;stroke-dashoffset:0;stroke-width:0.5;"/>
   </g>
   <g id="line2d_38">
    <path clip-path="url(#p5ca2b67214)" d="M 625.418182 230.4 
L 625.418182 57.6 
" style="fill:none;stroke:#000000;stroke-dasharray:3.2,0.8,0.5,0.8;stroke-dashoffset:0;stroke-width:0.5;"/>
   </g>
   <g id="patch_8">
    <path d="M 473.236364 230.4 
L 473.236364 57.6 
" style="fill:none;stroke:#000000;stroke-linecap:square;stroke-linejoin:miter;stroke-width:0.8;"/>
   </g>
   <g id="patch_9">
    <path d="M 777.6 230.4 
L 777.6 57.6 
" style="fill:none;stroke:#000000;stroke-linecap:square;stroke-linejoin:miter;stroke-width:0.8;"/>
   </g>
   <g id="patch_10">
    <path d="M 473.236364 230.4 
L 777.6 230.4 
" style="fill:none;stroke:#000000;stroke-linecap:square;stroke-linejoin:miter;stroke-width:0.8;"/>
   </g>
   <g id="patch_11">
    <path d="M 473.236364 57.6 
L 777.6 57.6 
" style="fill:none;stroke:#000000;stroke-linecap:square;stroke-linejoin:miter;stroke-width:0.8;"/>
   </g>
  </g>
 </g>
 <defs>
  <clipPath id="p46a2032660">
   <rect height="172.8" width="304.363636" x="108" y="57.6"/>
  </clipPath>
  <clipPath id="p5ca2b67214">
   <rect height="172.8" width="304.363636" x="473.236364" y="57.6"/>
  </clipPath>
 </defs>
</svg>
