<?xml version="1.0" encoding="utf-8" standalone="no"?>
<!DOCTYPE svg PUBLIC "-//W3C//DTD SVG 1.1//EN"
  "http://www.w3.org/Graphics/SVG/1.1/DTD/svg11.dtd">
<!-- Created with matplotlib (https://matplotlib.org/) -->
<svg height="288pt" version="1.1" viewBox="0 0 864 288" width="864pt" xmlns="http://www.w3.org/2000/svg" xmlns:xlink="http://www.w3.org/1999/xlink">
 <metadata>
  <rdf:RDF xmlns:cc="http://creativecommons.org/ns#" xmlns:dc="http://purl.org/dc/elements/1.1/" xmlns:rdf="http://www.w3.org/1999/02/22-rdf-syntax-ns#">
   <cc:Work>
    <dc:type rdf:resource="http://purl.org/dc/dcmitype/StillImage"/>
    <dc:date>2022-03-28T14:50:28.706868</dc:date>
    <dc:format>image/svg+xml</dc:format>
    <dc:creator>
     <cc:Agent>
      <dc:title>Matplotlib v3.3.4, https://matplotlib.org/</dc:title>
     </cc:Agent>
    </dc:creator>
   </cc:Work>
  </rdf:RDF>
 </metadata>
 <defs>
  <style type="text/css">*{stroke-linecap:butt;stroke-linejoin:round;}</style>
 </defs>
 <g id="figure_1">
  <g id="patch_1">
   <path d="M 0 288 
L 864 288 
L 864 0 
L 0 0 
z
" style="fill:#ffffff;"/>
  </g>
  <g id="axes_1">
   <g id="patch_2">
    <path d="M 108 230.4 
L 412.363636 230.4 
L 412.363636 57.6 
L 108 57.6 
z
" style="fill:#ffffff;"/>
   </g>
   <g id="matplotlib.axis_1">
    <g id="xtick_1">
     <g id="line2d_1">
      <defs>
       <path d="M 0 0 
L 0 3.5 
" id="m733402da65" style="stroke:#000000;stroke-width:0.8;"/>
      </defs>
      <g>
       <use style="fill:#ffffff;stroke:#000000;stroke-width:0.8;" x="108" xlink:href="#m733402da65" y="230.4"/>
      </g>
     </g>
     <g id="text_1">
      <!-- 4.0 -->
      <g transform="translate(96.75 249.693438)scale(0.18 -0.18)">
       <defs>
        <path d="M 47.296875 16.703125 
L 37 16.703125 
L 37 0 
L 29.203125 0 
L 29.203125 16.703125 
L 1.203125 16.703125 
L 1.203125 23.09375 
L 32.59375 67.59375 
L 37 67.59375 
L 37 23.09375 
L 47.296875 23.09375 
z
M 29.203125 23.09375 
L 29.203125 57.40625 
L 5.203125 23.09375 
z
" id="STIXGeneral-Regular-52"/>
        <path d="M 18.09375 4.296875 
Q 18.09375 2.09375 16.4375 0.5 
Q 14.796875 -1.09375 12.5 -1.09375 
Q 10.203125 -1.09375 8.59375 0.5 
Q 7 2.09375 7 4.390625 
Q 7 6.703125 8.640625 8.34375 
Q 10.296875 10 12.59375 10 
Q 14.796875 10 16.4375 8.296875 
Q 18.09375 6.59375 18.09375 4.296875 
z
" id="STIXGeneral-Regular-46"/>
        <path d="M 47.59375 33 
Q 47.59375 26.296875 46.296875 20.34375 
Q 45 14.40625 42.453125 9.40625 
Q 39.90625 4.40625 35.40625 1.5 
Q 30.90625 -1.40625 25 -1.40625 
Q 18.90625 -1.40625 14.296875 1.6875 
Q 9.703125 4.796875 7.203125 10 
Q 4.703125 15.203125 3.546875 21.09375 
Q 2.40625 27 2.40625 33.59375 
Q 2.40625 42.90625 4.703125 50.34375 
Q 7 57.796875 12.34375 62.6875 
Q 17.703125 67.59375 25.40625 67.59375 
Q 35.203125 67.59375 41.390625 58 
Q 47.59375 48.40625 47.59375 33 
z
M 38 32.5 
Q 38 48.296875 34.640625 56.640625 
Q 31.296875 65 24.796875 65 
Q 18.59375 65 15.296875 56.59375 
Q 12 48.203125 12 32.90625 
Q 12 17.5 15.296875 9.34375 
Q 18.59375 1.203125 25 1.203125 
Q 31.296875 1.203125 34.640625 9.34375 
Q 38 17.5 38 32.5 
z
" id="STIXGeneral-Regular-48"/>
       </defs>
       <use xlink:href="#STIXGeneral-Regular-52"/>
       <use x="49.999985" xlink:href="#STIXGeneral-Regular-46"/>
       <use x="74.999969" xlink:href="#STIXGeneral-Regular-48"/>
      </g>
     </g>
    </g>
    <g id="xtick_2">
     <g id="line2d_2">
      <g>
       <use style="fill:#ffffff;stroke:#000000;stroke-width:0.8;" x="168.872727" xlink:href="#m733402da65" y="230.4"/>
      </g>
     </g>
     <g id="text_2">
      <!-- 4.2 -->
      <g transform="translate(157.622727 249.693438)scale(0.18 -0.18)">
       <defs>
        <path d="M 47.40625 13.703125 
L 42 0 
L 2.90625 0 
L 2.90625 1.203125 
L 20.703125 20.09375 
Q 27.703125 27.40625 30.703125 33.5 
Q 33.703125 39.59375 33.703125 46.09375 
Q 33.703125 52.796875 30 56.5 
Q 26.296875 60.203125 19.796875 60.203125 
Q 14.40625 60.203125 11.25 57.390625 
Q 8.09375 54.59375 5.09375 47.203125 
L 3 47.703125 
Q 4.703125 57 9.84375 62.296875 
Q 15 67.59375 23.796875 67.59375 
Q 32.09375 67.59375 37.1875 62.59375 
Q 42.296875 57.59375 42.296875 50 
Q 42.296875 38.703125 29.5 25.203125 
L 13 7.59375 
L 36.40625 7.59375 
Q 39.703125 7.59375 41.640625 8.890625 
Q 43.59375 10.203125 46 14.296875 
z
" id="STIXGeneral-Regular-50"/>
       </defs>
       <use xlink:href="#STIXGeneral-Regular-52"/>
       <use x="49.999985" xlink:href="#STIXGeneral-Regular-46"/>
       <use x="74.999969" xlink:href="#STIXGeneral-Regular-50"/>
      </g>
     </g>
    </g>
    <g id="xtick_3">
     <g id="line2d_3">
      <g>
       <use style="fill:#ffffff;stroke:#000000;stroke-width:0.8;" x="229.745455" xlink:href="#m733402da65" y="230.4"/>
      </g>
     </g>
     <g id="text_3">
      <!-- 4.4 -->
      <g transform="translate(218.495455 249.693438)scale(0.18 -0.18)">
       <use xlink:href="#STIXGeneral-Regular-52"/>
       <use x="49.999985" xlink:href="#STIXGeneral-Regular-46"/>
       <use x="74.999969" xlink:href="#STIXGeneral-Regular-52"/>
      </g>
     </g>
    </g>
    <g id="xtick_4">
     <g id="line2d_4">
      <g>
       <use style="fill:#ffffff;stroke:#000000;stroke-width:0.8;" x="290.618182" xlink:href="#m733402da65" y="230.4"/>
      </g>
     </g>
     <g id="text_4">
      <!-- 4.6 -->
      <g transform="translate(279.368182 249.693438)scale(0.18 -0.18)">
       <defs>
        <path d="M 44.59375 68.40625 
L 44.796875 66.796875 
Q 33 64.90625 25.09375 57.25 
Q 17.203125 49.59375 15.203125 38.296875 
Q 21 42.796875 27.90625 42.796875 
Q 36.703125 42.796875 41.75 37.1875 
Q 46.796875 31.59375 46.796875 21.90625 
Q 46.796875 12.09375 41.703125 5.90625 
Q 35.796875 -1.40625 25.796875 -1.40625 
Q 13.59375 -1.40625 8.09375 8.703125 
Q 3.40625 17.296875 3.40625 27.90625 
Q 3.40625 44.296875 14.296875 55.5 
Q 20.5 61.90625 27.046875 64.546875 
Q 33.59375 67.203125 44.59375 68.40625 
z
M 37.796875 18.796875 
Q 37.796875 38.203125 24.296875 38.203125 
Q 19.296875 38.203125 16 35.546875 
Q 12.703125 32.90625 12.703125 26.59375 
Q 12.703125 14.90625 16.34375 8.15625 
Q 20 1.40625 26.90625 1.40625 
Q 32.203125 1.40625 35 6.15625 
Q 37.796875 10.90625 37.796875 18.796875 
z
" id="STIXGeneral-Regular-54"/>
       </defs>
       <use xlink:href="#STIXGeneral-Regular-52"/>
       <use x="49.999985" xlink:href="#STIXGeneral-Regular-46"/>
       <use x="74.999969" xlink:href="#STIXGeneral-Regular-54"/>
      </g>
     </g>
    </g>
    <g id="xtick_5">
     <g id="line2d_5">
      <g>
       <use style="fill:#ffffff;stroke:#000000;stroke-width:0.8;" x="351.490909" xlink:href="#m733402da65" y="230.4"/>
      </g>
     </g>
     <g id="text_5">
      <!-- 4.8 -->
      <g transform="translate(340.240909 249.693438)scale(0.18 -0.18)">
       <defs>
        <path d="M 44.5 15.5 
Q 44.5 7.796875 39.140625 3.1875 
Q 33.796875 -1.40625 24.796875 -1.40625 
Q 16.40625 -1.40625 11 3.1875 
Q 5.59375 7.796875 5.59375 14.90625 
Q 5.59375 20.203125 8.1875 23.953125 
Q 10.796875 27.703125 18.59375 33.203125 
Q 11.09375 39.40625 8.640625 43.203125 
Q 6.203125 47 6.203125 52 
Q 6.203125 59.09375 11.640625 63.34375 
Q 17.09375 67.59375 25.59375 67.59375 
Q 32.90625 67.59375 37.65625 63.4375 
Q 42.40625 59.296875 42.40625 53.296875 
Q 42.40625 47.796875 39.546875 44.5 
Q 36.703125 41.203125 29 37.09375 
Q 38 31.09375 41.25 26.390625 
Q 44.5 21.703125 44.5 15.5 
z
M 35.5 53.296875 
Q 35.5 58.5 32.59375 61.640625 
Q 29.703125 64.796875 24.59375 64.796875 
Q 19.5 64.796875 16.546875 62.140625 
Q 13.59375 59.5 13.59375 54.890625 
Q 13.59375 50.296875 16.546875 46.546875 
Q 19.5 42.796875 26.09375 38.90625 
Q 31.203125 41.90625 33.34375 45.25 
Q 35.5 48.59375 35.5 53.296875 
z
M 27.09375 27.203125 
L 21.203125 31.203125 
Q 16.796875 27.59375 15 24.140625 
Q 13.203125 20.703125 13.203125 15.796875 
Q 13.203125 9 16.640625 5.203125 
Q 20.09375 1.40625 25.90625 1.40625 
Q 30.796875 1.40625 33.84375 4.453125 
Q 36.90625 7.5 36.90625 12.40625 
Q 36.90625 16.90625 34.59375 20.296875 
Q 32.296875 23.703125 27.09375 27.203125 
z
" id="STIXGeneral-Regular-56"/>
       </defs>
       <use xlink:href="#STIXGeneral-Regular-52"/>
       <use x="49.999985" xlink:href="#STIXGeneral-Regular-46"/>
       <use x="74.999969" xlink:href="#STIXGeneral-Regular-56"/>
      </g>
     </g>
    </g>
    <g id="xtick_6">
     <g id="line2d_6">
      <g>
       <use style="fill:#ffffff;stroke:#000000;stroke-width:0.8;" x="412.363636" xlink:href="#m733402da65" y="230.4"/>
      </g>
     </g>
     <g id="text_6">
      <!-- 5.0 -->
      <g transform="translate(401.113636 249.693438)scale(0.18 -0.18)">
       <defs>
        <path d="M 43.796875 68.09375 
L 40.203125 59.59375 
Q 39.59375 58.296875 37.5 58.296875 
L 18.09375 58.296875 
L 14.09375 49.796875 
Q 25.09375 47.703125 30 45.25 
Q 34.90625 42.796875 39.09375 37 
Q 42.59375 32.203125 42.59375 24.296875 
Q 42.59375 17.09375 40.25 12.1875 
Q 37.90625 7.296875 32.796875 3.5 
Q 26 -1.40625 15.796875 -1.40625 
Q 10.09375 -1.40625 6.59375 0.296875 
Q 3.09375 2 3.09375 4.796875 
Q 3.09375 8.59375 7.59375 8.59375 
Q 11.203125 8.59375 15 5.5 
Q 18.90625 2.296875 22.09375 2.296875 
Q 27.296875 2.296875 31.4375 7.5 
Q 35.59375 12.703125 35.59375 19.203125 
Q 35.59375 28.796875 28.90625 34.203125 
Q 20.203125 41.203125 7.59375 41.203125 
Q 6.40625 41.203125 6.40625 42 
L 6.5 42.5 
L 17.40625 66.203125 
L 38.09375 66.203125 
Q 39.796875 66.203125 40.75 66.703125 
Q 41.703125 67.203125 42.90625 68.796875 
z
" id="STIXGeneral-Regular-53"/>
       </defs>
       <use xlink:href="#STIXGeneral-Regular-53"/>
       <use x="49.999985" xlink:href="#STIXGeneral-Regular-46"/>
       <use x="74.999969" xlink:href="#STIXGeneral-Regular-48"/>
      </g>
     </g>
    </g>
    <g id="text_7">
     <!-- $\^t$ -->
     <g transform="translate(257.661818 269.893438)scale(0.18 -0.18)">
      <defs>
       <path d="M -7.5 50.703125 
L -10.90625 50.703125 
L -23.09375 61 
L -35.203125 50.703125 
L -38.59375 50.703125 
L -26.203125 67.40625 
L -20 67.40625 
z
" id="STIXGeneral-Regular-770"/>
       <path d="M 29.59375 42.796875 
L 29.09375 39.59375 
L 20.703125 39.59375 
L 12 6.796875 
Q 11.796875 6 11.796875 5.40625 
Q 11.796875 3.796875 13.296875 3.796875 
Q 14.5 3.796875 16.09375 5.34375 
Q 17.703125 6.90625 21.40625 11.703125 
L 22.703125 11 
Q 18.09375 4 15.140625 1.453125 
Q 12.203125 -1.09375 8.40625 -1.09375 
Q 3.796875 -1.09375 3.796875 2.59375 
Q 3.796875 3.59375 5.40625 10 
L 13.203125 39.59375 
L 5.703125 39.59375 
L 5.59375 40.203125 
Q 5.59375 42 8.90625 42.703125 
Q 11.40625 43.296875 15.5 46.546875 
Q 19.59375 49.796875 22.203125 53.703125 
Q 22.796875 54.59375 23.59375 54.59375 
Q 24.5 54.59375 24.5 53.796875 
Q 24.5 53.296875 24.40625 53.09375 
L 21.59375 42.796875 
z
" id="STIXGeneral-Italic-116"/>
      </defs>
      <use transform="translate(39.042969 16.59375)" xlink:href="#STIXGeneral-Regular-770"/>
      <use transform="translate(0 0.203125)" xlink:href="#STIXGeneral-Italic-116"/>
     </g>
    </g>
   </g>
   <g id="matplotlib.axis_2">
    <g id="ytick_1">
     <g id="line2d_7">
      <defs>
       <path d="M 0 0 
L -3.5 0 
" id="m004812787e" style="stroke:#000000;stroke-width:0.8;"/>
      </defs>
      <g>
       <use style="fill:#ffffff;stroke:#000000;stroke-width:0.8;" x="108" xlink:href="#m004812787e" y="200.987234"/>
      </g>
     </g>
     <g id="text_8">
      <!-- 0 -->
      <g transform="translate(92 207.133953)scale(0.18 -0.18)">
       <use xlink:href="#STIXGeneral-Regular-48"/>
      </g>
     </g>
    </g>
    <g id="ytick_2">
     <g id="line2d_8">
      <g>
       <use style="fill:#ffffff;stroke:#000000;stroke-width:0.8;" x="108" xlink:href="#m004812787e" y="127.455319"/>
      </g>
     </g>
     <g id="text_9">
      <!-- 2 -->
      <g transform="translate(92 133.602038)scale(0.18 -0.18)">
       <use xlink:href="#STIXGeneral-Regular-50"/>
      </g>
     </g>
    </g>
    <g id="text_10">
     <!-- $C_L$ -->
     <g transform="translate(84.093437 153.99)rotate(-90)scale(0.18 -0.18)">
      <defs>
       <path d="M 68.90625 66.40625 
L 65.203125 46.40625 
L 63.40625 46.703125 
Q 61.59375 63 48.5 63 
Q 37.59375 63 28.59375 53.296875 
Q 23.296875 47.703125 20.546875 39.703125 
Q 17.796875 31.703125 17.796875 23.203125 
Q 17.796875 2.703125 35.296875 2.703125 
Q 41.5 2.703125 46.640625 5.296875 
Q 51.796875 7.90625 58.203125 14.59375 
L 60 13.09375 
Q 53.296875 5.203125 46.84375 1.703125 
Q 40.40625 -1.796875 32.703125 -1.796875 
Q 21 -1.796875 13.796875 5.140625 
Q 6.59375 12.09375 6.59375 24.296875 
Q 6.59375 34.59375 11.6875 43.9375 
Q 16.796875 53.296875 25.296875 59.296875 
Q 35.5 66.59375 47.203125 66.59375 
Q 54.09375 66.59375 58.90625 64.90625 
Q 60.90625 64.203125 63 64.203125 
Q 65.703125 64.203125 66.796875 66.40625 
z
" id="STIXGeneral-Italic-67"/>
       <path d="M 55.90625 18 
L 50.09375 0 
L -0.796875 0 
L -0.796875 1.59375 
Q 3.40625 2 4.703125 3.296875 
Q 6 4.59375 7.40625 9.40625 
L 19.59375 53.203125 
Q 20.703125 56.90625 20.703125 59.40625 
Q 20.703125 61.59375 19.140625 62.5 
Q 17.59375 63.40625 13 63.703125 
L 13 65.296875 
L 40.296875 65.296875 
L 40.296875 63.703125 
Q 35.703125 63.40625 33.546875 61.796875 
Q 31.40625 60.203125 30.203125 56 
L 18.203125 13.09375 
Q 17.203125 9.296875 17.203125 7.703125 
Q 17.203125 5.40625 19.390625 4.5 
Q 21.59375 3.59375 27.703125 3.59375 
Q 35.40625 3.59375 38.75 4.296875 
Q 42.09375 5 45.703125 7.40625 
Q 49.796875 10.09375 53.90625 18.59375 
z
" id="STIXGeneral-Italic-76"/>
      </defs>
      <use transform="translate(0 0.40625)" xlink:href="#STIXGeneral-Italic-67"/>
      <use transform="translate(66.699997 -12.821875)scale(0.7)" xlink:href="#STIXGeneral-Italic-76"/>
     </g>
    </g>
   </g>
   <g id="line2d_9">
    <path clip-path="url(#pb7a152d2a7)" d="M 107.695636 223.299232 
L 108.304364 224.887556 
L 108.913091 225.964912 
L 109.521818 226.5415 
L 109.826182 226.63972 
L 110.130545 226.617097 
L 110.739273 226.214751 
L 111.348 225.345173 
L 111.956727 224.038392 
L 112.869818 221.288038 
L 113.782909 217.672404 
L 115.000364 211.74124 
L 116.522182 202.966622 
L 118.652727 189.076556 
L 122.913818 160.837999 
L 125.044364 148.471166 
L 126.566182 140.715326 
L 128.392364 132.697582 
L 129.609818 128.311686 
L 132.044727 121.142441 
L 133.262182 118.830461 
L 134.175273 117.583857 
L 134.784 117.018977 
L 135.392727 116.68905 
L 136.001455 116.595372 
L 136.610182 116.753866 
L 137.218909 117.180499 
L 137.827636 117.882315 
L 138.436364 118.866572 
L 139.045091 120.148975 
L 139.958182 122.666913 
L 140.871273 125.920898 
L 141.784364 129.914246 
L 143.001818 136.512281 
L 144.219273 144.624305 
L 145.436727 154.345918 
L 146.045455 159.881259 
L 146.349818 161.254511 
L 146.654182 158.590589 
L 146.958545 157.568397 
L 147.567273 156.349847 
L 149.393455 152.530216 
L 150.915273 149.781197 
L 152.741455 146.951122 
L 154.567636 144.537747 
L 156.393818 142.454115 
L 158.524364 140.364258 
L 160.654909 138.581198 
L 162.785455 137.061506 
L 164.916 135.76096 
L 167.655273 134.368959 
L 170.394545 133.225439 
L 173.133818 132.287057 
L 176.177455 131.429633 
L 179.221091 130.726985 
L 186.525818 129.429089 
L 192.613091 128.548444 
L 199.613455 127.688175 
L 208.44 126.898344 
L 216.657818 126.514968 
L 222.136364 126.433353 
L 222.440727 125.786638 
L 223.049455 121.631079 
L 224.571273 113.139379 
L 229.441091 85.292088 
L 230.962909 77.776726 
L 232.180364 72.66137 
L 233.397818 68.547223 
L 234.310909 66.214714 
L 235.224 64.609227 
L 235.832727 63.956822 
L 236.441455 63.654388 
L 237.050182 63.695787 
L 237.658909 64.106422 
L 238.267636 64.876195 
L 238.876364 66.003977 
L 239.485091 67.477183 
L 240.398182 70.349044 
L 241.311273 74.039658 
L 242.528727 80.192105 
L 243.746182 87.657473 
L 245.268 98.714083 
L 246.789818 111.561326 
L 248.616 128.909532 
L 251.659636 160.487719 
L 254.398909 188.016793 
L 255.920727 201.210146 
L 257.138182 210.083938 
L 258.355636 217.190335 
L 259.268727 221.245448 
L 260.181818 224.163038 
L 260.790545 225.46749 
L 261.399273 226.262421 
L 262.008 226.559424 
L 262.312364 226.523337 
L 262.921091 226.099515 
L 263.529818 225.217096 
L 264.138545 223.906368 
L 265.051636 221.186874 
L 265.964727 217.630091 
L 267.182182 211.786677 
L 268.704 203.12774 
L 270.834545 189.410453 
L 275.4 159.576429 
L 277.226182 149.046339 
L 279.052364 139.77603 
L 280.574182 133.111506 
L 282.400364 126.519454 
L 283.922182 121.935756 
L 284.835273 119.884377 
L 285.748364 118.238037 
L 286.661455 116.992486 
L 287.270182 116.436066 
L 287.878909 116.196227 
L 288.487636 116.182013 
L 289.096364 116.418914 
L 289.705091 116.926538 
L 290.313818 117.719445 
L 290.922545 118.802047 
L 291.835636 121.014081 
L 292.748727 123.937375 
L 293.661818 127.630434 
L 294.574909 132.11456 
L 295.792364 139.407816 
L 297.009818 148.271428 
L 298.531636 160.21364 
L 298.836 157.544141 
L 299.140364 156.51742 
L 299.749091 155.288437 
L 301.270909 152.052982 
L 303.097091 148.721082 
L 304.923273 145.917371 
L 306.749455 143.535961 
L 308.575636 141.499562 
L 310.706182 139.477765 
L 312.836727 137.764099 
L 315.271636 136.136686 
L 318.010909 134.647678 
L 320.750182 133.43992 
L 324.098182 132.267257 
L 327.750545 131.279922 
L 332.316 130.33529 
L 342.968727 128.717502 
L 351.490909 127.68111 
L 357.578182 127.111393 
L 364.274182 126.706688 
L 369.144 126.549468 
L 374.013818 126.487301 
L 374.318182 126.503621 
L 374.622545 125.855726 
L 375.231273 121.702852 
L 376.753091 113.217389 
L 381.927273 83.794001 
L 383.449091 76.515262 
L 384.666545 71.626584 
L 385.884 67.787266 
L 386.797091 65.689515 
L 387.405818 64.699915 
L 388.014545 64.049001 
L 388.623273 63.748723 
L 389.232 63.79849 
L 389.840727 64.20584 
L 390.449455 64.980181 
L 391.058182 66.108242 
L 391.971273 68.463039 
L 392.884364 71.631055 
L 393.797455 75.598235 
L 395.014909 82.109695 
L 396.232364 89.895034 
L 397.754182 101.342338 
L 399.276 114.509398 
L 401.406545 135.225569 
L 407.189455 193.579706 
L 408.711273 205.877188 
L 409.928727 213.901813 
L 410.841818 218.699919 
L 411.754909 222.396793 
L 412.363636 224.230195 
L 412.363636 224.230195 
" style="fill:none;stroke:#1f77b4;stroke-linecap:square;stroke-width:2.5;"/>
   </g>
   <g id="line2d_10">
    <path clip-path="url(#pb7a152d2a7)" d="M 107.695636 203.350261 
L 108.608727 202.122993 
L 109.521818 200.483392 
L 110.739273 197.760047 
L 112.261091 193.716328 
L 115.000364 185.583316 
L 117.435273 178.414775 
L 118.044 176.985622 
L 120.478909 170.563373 
L 122.305091 166.237799 
L 123.218182 164.702996 
L 124.74 161.499799 
L 125.653091 159.763198 
L 126.566182 158.460721 
L 129.001091 154.911876 
L 130.827273 152.698487 
L 132.653455 150.874403 
L 134.784 149.137403 
L 136.610182 147.936348 
L 137.827636 147.368381 
L 138.740727 147.103421 
L 139.653818 147.045457 
L 140.566909 147.183227 
L 141.48 147.562509 
L 142.393091 148.228822 
L 143.306182 149.165699 
L 144.219273 150.400992 
L 145.132364 151.945613 
L 146.045455 153.826152 
L 146.349818 154.016115 
L 146.654182 152.883277 
L 147.567273 151.296639 
L 152.741455 142.515233 
L 154.872 139.366273 
L 157.002545 136.607886 
L 159.133091 134.23596 
L 161.263636 132.193809 
L 163.394182 130.423607 
L 165.829091 128.679788 
L 168.264 127.221696 
L 170.394545 126.194145 
L 172.220727 125.512707 
L 174.046909 125.025281 
L 175.873091 124.725878 
L 178.003636 124.587443 
L 180.742909 124.660446 
L 184.395273 124.97617 
L 192.004364 125.586995 
L 196.265455 125.70634 
L 201.439636 125.656378 
L 209.657455 125.294377 
L 222.440727 124.505778 
L 223.658182 123.796788 
L 227.006182 122.021189 
L 228.528 121.471101 
L 229.745455 121.243672 
L 230.658545 121.240829 
L 231.571636 121.410247 
L 232.484727 121.7936 
L 233.397818 122.408575 
L 234.310909 123.272144 
L 235.224 124.434503 
L 236.137091 125.902822 
L 237.354545 128.395474 
L 238.572 131.479032 
L 239.789455 135.186231 
L 241.311273 140.662684 
L 242.833091 147.01987 
L 244.659273 155.566345 
L 248.007273 172.570992 
L 250.442182 184.472087 
L 252.268364 192.369867 
L 253.485818 196.634785 
L 254.703273 200.020938 
L 255.616364 201.935378 
L 256.529455 203.299068 
L 257.138182 203.895353 
L 257.746909 204.245138 
L 258.355636 204.355 
L 258.964364 204.234347 
L 259.573091 203.891532 
L 260.181818 203.33996 
L 261.094909 202.151771 
L 262.008 200.579538 
L 263.225455 197.995469 
L 264.747273 194.25377 
L 271.443273 175.853559 
L 273.269455 171.544452 
L 273.878182 170.45196 
L 274.182545 170.187126 
L 275.095636 168.548505 
L 277.226182 164.479641 
L 277.530545 164.260361 
L 279.052364 162.102173 
L 279.661091 160.998881 
L 280.574182 159.887642 
L 283.009091 156.898939 
L 286.357091 152.506096 
L 290.313818 147.168889 
L 291.835636 145.626655 
L 292.748727 144.977488 
L 293.661818 144.604129 
L 294.270545 144.516131 
L 295.183636 144.689695 
L 295.792364 145.012894 
L 296.705455 145.848903 
L 297.618545 147.122027 
L 298.227273 148.244819 
L 298.531636 148.378848 
L 298.836 147.194917 
L 299.444727 146.070327 
L 301.270909 143.067549 
L 303.097091 140.460771 
L 304.923273 138.216827 
L 307.053818 135.982789 
L 309.184364 134.075639 
L 311.619273 132.184029 
L 314.358545 130.302762 
L 317.706545 128.278236 
L 320.445818 126.866346 
L 322.880727 125.871146 
L 325.315636 125.163056 
L 327.141818 124.851194 
L 329.272364 124.711424 
L 331.402909 124.766273 
L 335.664 125.090525 
L 344.794909 125.842772 
L 348.447273 125.932184 
L 352.708364 125.829948 
L 357.882545 125.457079 
L 364.578545 124.681981 
L 374.318182 123.203747 
L 374.622545 123.103618 
L 375.84 122.275424 
L 378.883636 120.401431 
L 380.405455 119.718375 
L 381.622909 119.406381 
L 382.536 119.354884 
L 383.449091 119.487744 
L 384.362182 119.839215 
L 385.275273 120.433234 
L 386.188364 121.306494 
L 387.101455 122.476936 
L 388.014545 123.97416 
L 388.927636 125.806176 
L 390.145091 128.799129 
L 391.362545 132.422652 
L 392.884364 137.82071 
L 394.406182 144.105342 
L 396.232364 152.656272 
L 398.971636 166.720062 
L 402.624 185.267004 
L 404.145818 191.753747 
L 405.363273 196.12586 
L 406.580727 199.630431 
L 407.493818 201.628806 
L 408.406909 203.064327 
L 409.015636 203.705115 
L 409.624364 204.095214 
L 410.233091 204.237043 
L 410.841818 204.142065 
L 411.450545 203.822082 
L 412.059273 203.288176 
L 412.363636 202.945381 
L 412.363636 202.945381 
" style="fill:none;stroke:#ff7f0e;stroke-linecap:square;stroke-width:2.5;"/>
   </g>
   <g id="line2d_11">
    <path clip-path="url(#pb7a152d2a7)" d="M 107.695636 200.296148 
L 108.608727 199.101916 
L 109.826182 197.068781 
L 111.348 193.99491 
L 114.087273 187.775446 
L 117.130909 181.000248 
L 119.261455 176.741763 
L 123.218182 170.532937 
L 124.435636 169.32541 
L 124.74 169.505849 
L 125.348727 169.236812 
L 129.609818 166.676407 
L 130.522909 165.775171 
L 131.436 164.571513 
L 132.349091 163.058664 
L 133.566545 160.552396 
L 135.088364 156.852687 
L 139.045091 146.798697 
L 140.262545 144.313036 
L 141.48 142.366705 
L 142.393091 141.360468 
L 143.306182 140.725258 
L 143.914909 140.526317 
L 144.523636 140.517879 
L 145.132364 140.706901 
L 145.741091 141.091288 
L 146.045455 141.372394 
L 146.349818 141.356124 
L 146.654182 140.506669 
L 147.567273 139.199952 
L 149.697818 136.553724 
L 152.741455 133.138263 
L 154.872 131.030238 
L 156.393818 129.83123 
L 157.611273 129.126039 
L 158.828727 128.665833 
L 160.046182 128.44573 
L 161.263636 128.444319 
L 162.481091 128.641106 
L 164.002909 129.110344 
L 166.133455 130.032592 
L 168.872727 131.206043 
L 170.394545 131.639627 
L 171.916364 131.809173 
L 173.133818 131.715143 
L 174.351273 131.409291 
L 175.568727 130.894836 
L 177.090545 129.992047 
L 178.916727 128.625389 
L 185.917091 123.009873 
L 187.438909 122.162527 
L 188.960727 121.540965 
L 190.482545 121.144087 
L 192.004364 120.953244 
L 193.830545 120.946562 
L 196.265455 121.191531 
L 202.657091 122.249759 
L 205.700727 122.653853 
L 209.048727 123.002553 
L 217.875273 123.510131 
L 224.875636 123.748705 
L 226.397455 124.051769 
L 227.919273 124.576859 
L 229.136727 125.199408 
L 230.354182 126.038837 
L 231.571636 127.137847 
L 232.789091 128.53185 
L 234.006545 130.270259 
L 235.224 132.382058 
L 236.441455 134.929116 
L 237.658909 137.918686 
L 239.180727 142.301326 
L 240.702545 147.391674 
L 242.528727 154.341927 
L 244.963636 164.701721 
L 250.137818 187.22035 
L 251.659636 192.559087 
L 252.877091 196.09234 
L 253.790182 198.257711 
L 254.703273 199.961656 
L 255.616364 201.212484 
L 256.225091 201.768077 
L 256.833818 202.114271 
L 257.442545 202.255512 
L 258.051273 202.139366 
L 258.964364 201.710349 
L 259.877455 200.929922 
L 260.790545 199.804251 
L 262.008 197.884214 
L 263.529818 194.954262 
L 265.660364 190.217505 
L 270.834545 178.542085 
L 272.965091 174.578353 
L 275.095636 171.287855 
L 276.313091 170.231698 
L 276.617455 170.326965 
L 277.226182 170.023498 
L 279.661091 168.525811 
L 280.269818 167.92041 
L 280.574182 167.865181 
L 281.182909 167.414968 
L 282.096 166.436667 
L 282.704727 165.548482 
L 283.922182 163.423471 
L 285.139636 160.75048 
L 286.357091 157.725867 
L 290.922545 145.421928 
L 292.14 142.817765 
L 293.357455 140.757132 
L 294.270545 139.625022 
L 295.183636 138.865499 
L 295.792364 138.576253 
L 296.401091 138.45789 
L 297.009818 138.513141 
L 297.618545 138.730128 
L 298.227273 139.128384 
L 298.531636 139.054906 
L 299.140364 137.544528 
L 303.705818 130.629953 
L 304.923273 129.325741 
L 305.836364 128.592157 
L 307.053818 127.954428 
L 308.271273 127.69102 
L 309.488727 127.75563 
L 310.706182 128.102542 
L 312.228 128.867398 
L 313.749818 129.877186 
L 317.097818 132.231802 
L 318.315273 132.813795 
L 319.532727 133.114982 
L 320.750182 133.081243 
L 321.967636 132.711219 
L 323.185091 132.04038 
L 324.706909 130.858566 
L 326.837455 128.861802 
L 329.576727 126.306148 
L 331.402909 124.898832 
L 332.924727 123.987586 
L 334.446545 123.310669 
L 336.272727 122.780391 
L 338.403273 122.463152 
L 340.838182 122.341576 
L 345.708 122.35406 
L 351.186545 122.679018 
L 366.100364 123.522391 
L 372.187636 123.487401 
L 375.84 123.542885 
L 377.666182 123.76204 
L 379.188 124.126922 
L 380.709818 124.73546 
L 381.927273 125.437415 
L 383.144727 126.370016 
L 384.362182 127.576208 
L 385.579636 129.094628 
L 386.797091 130.97473 
L 388.014545 133.253096 
L 389.232 135.969828 
L 390.753818 140.006393 
L 392.275636 144.766413 
L 394.101818 151.377106 
L 395.928 158.826905 
L 398.362909 169.58399 
L 399.580364 175.263531 
L 402.015273 185.584939 
L 403.537091 191.164314 
L 404.754545 194.928259 
L 405.972 197.95436 
L 406.885091 199.691906 
L 407.798182 200.972098 
L 408.406909 201.54491 
L 408.711273 201.749434 
L 409.928727 201.959669 
L 410.537455 201.827228 
L 411.146182 201.513661 
L 412.059273 200.726673 
L 412.363636 200.385934 
L 412.363636 200.385934 
" style="fill:none;stroke:#2ca02c;stroke-linecap:square;stroke-width:2.5;"/>
   </g>
   <g id="line2d_12">
    <path clip-path="url(#pb7a152d2a7)" d="M 107.695636 199.563076 
L 108.608727 198.367679 
L 109.826182 196.368582 
L 111.348 193.408822 
L 118.348364 178.777223 
L 118.957091 177.687226 
L 121.087636 173.942667 
L 122.913818 171.057613 
L 123.826909 170.090716 
L 124.435636 169.596165 
L 125.044364 169.679748 
L 126.261818 169.050989 
L 127.479273 168.245094 
L 128.696727 167.207497 
L 129.609818 166.179084 
L 130.522909 164.865512 
L 131.740364 162.688528 
L 133.262182 159.385992 
L 133.870909 157.943922 
L 136.610182 151.413403 
L 138.436364 147.38204 
L 139.958182 144.491274 
L 141.175636 142.648133 
L 142.393091 141.197093 
L 143.306182 140.447375 
L 144.219273 140.050853 
L 144.828 139.999463 
L 145.436727 140.135655 
L 146.349818 140.4404 
L 146.654182 139.707163 
L 147.262909 138.956266 
L 148.480364 137.741887 
L 149.697818 136.813286 
L 150.915273 136.114158 
L 152.437091 135.488228 
L 153.958909 135.114133 
L 155.480727 134.977551 
L 157.306909 135.099708 
L 160.959273 135.518566 
L 162.176727 135.411464 
L 163.394182 135.072863 
L 164.611636 134.492256 
L 166.133455 133.490078 
L 168.872727 131.277563 
L 172.525091 128.357662 
L 175.264364 126.453385 
L 177.699273 124.996964 
L 180.134182 123.786997 
L 182.264727 122.95527 
L 184.395273 122.363486 
L 186.221455 122.04965 
L 188.352 121.902073 
L 190.786909 121.964177 
L 193.830545 122.290692 
L 205.700727 123.986237 
L 208.44 123.867543 
L 210.874909 123.533002 
L 214.527273 122.783604 
L 221.223273 121.414581 
L 222.440727 121.220417 
L 223.962545 121.345002 
L 225.484364 121.593231 
L 226.701818 121.964748 
L 227.919273 122.524944 
L 229.136727 123.308872 
L 230.354182 124.363409 
L 231.571636 125.722532 
L 232.789091 127.421811 
L 234.006545 129.505555 
L 235.224 132.000171 
L 236.441455 134.928903 
L 237.963273 139.216842 
L 239.485091 144.182802 
L 241.311273 150.950597 
L 243.441818 159.765895 
L 250.137818 188.333021 
L 251.659636 193.306611 
L 252.877091 196.532309 
L 253.790182 198.464388 
L 254.398909 199.506377 
L 255.007636 200.322996 
L 255.312 200.701382 
L 256.833818 201.553383 
L 257.442545 201.605582 
L 258.051273 201.470307 
L 258.66 201.158459 
L 259.573091 200.383517 
L 260.486182 199.269614 
L 261.703636 197.325975 
L 262.921091 194.977882 
L 265.051636 190.254814 
L 269.312727 180.834129 
L 271.747636 175.706279 
L 274.182545 171.571207 
L 274.486909 171.165387 
L 275.095636 170.120392 
L 276.008727 169.145782 
L 276.921818 168.401264 
L 277.530545 168.093611 
L 277.834909 168.255152 
L 278.443636 168.026847 
L 280.878545 166.666739 
L 282.704727 165.303455 
L 283.922182 164.102343 
L 284.530909 163.251889 
L 286.965818 160.149408 
L 289.096364 156.774358 
L 294.879273 146.814875 
L 296.096727 145.48025 
L 297.009818 144.871299 
L 297.618545 144.68396 
L 298.227273 144.693415 
L 298.531636 144.485704 
L 299.140364 142.968012 
L 301.575273 139.195638 
L 303.401455 136.903878 
L 305.836364 134.282789 
L 310.097455 130.158348 
L 314.054182 126.580781 
L 315.880364 125.219532 
L 317.402182 124.384935 
L 318.619636 123.961762 
L 319.837091 123.770506 
L 321.054545 123.796823 
L 322.576364 124.084684 
L 324.402545 124.684246 
L 330.185455 126.828005 
L 331.707273 127.118515 
L 333.229091 127.199218 
L 334.750909 127.049762 
L 336.272727 126.667343 
L 337.794545 126.076941 
L 339.925091 124.978798 
L 345.099273 122.193702 
L 346.925455 121.515723 
L 349.056 120.959935 
L 351.490909 120.647377 
L 354.838909 120.624649 
L 357.578182 120.797513 
L 366.100364 121.487357 
L 374.622545 122.552338 
L 375.84 122.98967 
L 377.666182 123.73416 
L 379.188 124.56008 
L 380.709818 125.636205 
L 382.231636 127.007066 
L 383.753455 128.74223 
L 384.970909 130.430714 
L 386.188364 132.426411 
L 387.405818 134.765003 
L 388.927636 138.21529 
L 390.449455 142.288867 
L 391.971273 146.994159 
L 393.797455 153.42947 
L 395.928 161.825329 
L 398.058545 171.058235 
L 401.102182 183.715591 
L 402.928364 190.332699 
L 404.145818 194.064805 
L 405.363273 197.125004 
L 406.276364 198.931434 
L 407.189455 200.322996 
L 408.711273 201.464219 
L 409.32 201.638093 
L 409.928727 201.625689 
L 410.537455 201.434224 
L 411.450545 200.836621 
L 412.363636 199.897808 
L 412.363636 199.897808 
" style="fill:none;stroke:#d62728;stroke-linecap:square;stroke-width:2.5;"/>
   </g>
   <g id="line2d_13">
    <path clip-path="url(#pb7a152d2a7)" d="M 108 200.987234 
L 412.363636 200.987234 
" style="fill:none;stroke:#000000;stroke-dasharray:3.2,0.8,0.5,0.8;stroke-dashoffset:0;stroke-width:0.5;"/>
   </g>
   <g id="line2d_14">
    <path clip-path="url(#pb7a152d2a7)" d="M 260.181818 230.4 
L 260.181818 57.6 
" style="fill:none;stroke:#000000;stroke-dasharray:3.2,0.8,0.5,0.8;stroke-dashoffset:0;stroke-width:0.5;"/>
   </g>
   <g id="patch_3">
    <path d="M 108 230.4 
L 108 57.6 
" style="fill:none;stroke:#000000;stroke-linecap:square;stroke-linejoin:miter;stroke-width:0.8;"/>
   </g>
   <g id="patch_4">
    <path d="M 412.363636 230.4 
L 412.363636 57.6 
" style="fill:none;stroke:#000000;stroke-linecap:square;stroke-linejoin:miter;stroke-width:0.8;"/>
   </g>
   <g id="patch_5">
    <path d="M 108 230.4 
L 412.363636 230.4 
" style="fill:none;stroke:#000000;stroke-linecap:square;stroke-linejoin:miter;stroke-width:0.8;"/>
   </g>
   <g id="patch_6">
    <path d="M 108 57.6 
L 412.363636 57.6 
" style="fill:none;stroke:#000000;stroke-linecap:square;stroke-linejoin:miter;stroke-width:0.8;"/>
   </g>
   <g id="legend_1">
    <g id="line2d_15">
     <path d="M 198.84762 41.7825 
L 228.83562 41.7825 
" style="fill:none;stroke:#1f77b4;stroke-linecap:square;stroke-width:2.5;"/>
    </g>
    <g id="line2d_16"/>
    <g id="text_11">
     <!-- $\Phi$ = 60$^\circ$ -->
     <g transform="translate(240.83082 47.0304)scale(0.14994 -0.14994)">
      <defs>
       <path d="M 43.203125 58 
L 43.203125 56 
Q 48.703125 56 53.75 54.703125 
Q 58.796875 53.40625 63.140625 50.75 
Q 67.5 48.09375 70.140625 43.546875 
Q 72.796875 39 72.796875 33 
Q 72.796875 27.40625 70.140625 22.84375 
Q 67.5 18.296875 63.34375 15.640625 
Q 59.203125 13 54.59375 11.640625 
Q 50 10.296875 45.703125 10.296875 
L 43.203125 10.296875 
L 43.203125 8.59375 
Q 43.203125 4.796875 45.453125 3.5 
Q 47.703125 2.203125 53.5 1.90625 
L 53.5 0 
L 22.90625 0 
L 22.90625 1.90625 
Q 28.09375 1.90625 30.546875 3.34375 
Q 33 4.796875 33 8.5 
L 33 10.296875 
L 31.296875 10.296875 
Q 17.703125 10.296875 10.59375 16.5 
Q 3.5 22.703125 3.5 33 
Q 3.5 39 6.046875 43.546875 
Q 8.59375 48.09375 12.9375 50.75 
Q 17.296875 53.40625 22.34375 54.703125 
Q 27.40625 56 33 56 
L 33 58 
Q 33 61.59375 31.046875 62.9375 
Q 29.09375 64.296875 22.90625 64.296875 
L 22.90625 66.203125 
L 53.5 66.203125 
L 53.5 64.296875 
Q 47.296875 64.296875 45.25 62.796875 
Q 43.203125 61.296875 43.203125 58 
z
M 43 52.296875 
L 43 14 
Q 50.5 14 56.203125 18.84375 
Q 61.90625 23.703125 61.90625 31.796875 
Q 61.90625 39.90625 56.953125 46.09375 
Q 52 52.296875 43 52.296875 
z
M 33.203125 14 
L 33.203125 52.296875 
Q 25.203125 52.296875 19.796875 45.9375 
Q 14.40625 39.59375 14.40625 31.796875 
Q 14.40625 24.40625 19.453125 19.203125 
Q 24.5 14 33.203125 14 
z
" id="STIXGeneral-Regular-934"/>
       <path id="STIXGeneral-Regular-32"/>
       <path d="M 63.703125 32 
L 4.796875 32 
L 4.796875 38.59375 
L 63.703125 38.59375 
z
M 63.703125 12 
L 4.796875 12 
L 4.796875 18.59375 
L 63.703125 18.59375 
z
" id="STIXGeneral-Regular-61"/>
       <path d="M 23.203125 38.703125 
Q 31 30.796875 31 25.1875 
Q 31 19.59375 27.046875 15.640625 
Q 23.09375 11.703125 17.5 11.703125 
Q 11.796875 11.703125 7.890625 15.640625 
Q 4 19.59375 4 25.40625 
Q 4 31 7.953125 34.84375 
Q 11.90625 38.703125 17.703125 38.703125 
Q 23.203125 38.703125 31 30.796875 
z
M 20.40625 18.296875 
Q 24.40625 22.296875 24.40625 25.1875 
Q 24.40625 28.09375 22.40625 30.09375 
Q 20.40625 32.09375 17.703125 32.09375 
Q 14.59375 32.09375 12.59375 30.140625 
Q 10.59375 28.203125 10.59375 25.40625 
Q 10.59375 22.296875 12.546875 20.296875 
Q 14.5 18.296875 17.5 18.296875 
Q 20.40625 18.296875 24.40625 22.296875 
z
" id="STIXGeneral-Regular-8728"/>
      </defs>
      <use transform="translate(0 0.59375)" xlink:href="#STIXGeneral-Regular-934"/>
      <use transform="translate(76.299988 0.59375)" xlink:href="#STIXGeneral-Regular-32"/>
      <use transform="translate(101.299973 0.59375)" xlink:href="#STIXGeneral-Regular-61"/>
      <use transform="translate(169.799957 0.59375)" xlink:href="#STIXGeneral-Regular-32"/>
      <use transform="translate(194.799942 0.59375)" xlink:href="#STIXGeneral-Regular-54"/>
      <use transform="translate(244.799927 0.59375)" xlink:href="#STIXGeneral-Regular-48"/>
      <use transform="translate(306.45119 35.86875)scale(0.7)" xlink:href="#STIXGeneral-Regular-8728"/>
     </g>
    </g>
    <g id="line2d_17">
     <path d="M 322.69806 41.7825 
L 352.68606 41.7825 
" style="fill:none;stroke:#ff7f0e;stroke-linecap:square;stroke-width:2.5;"/>
    </g>
    <g id="line2d_18"/>
    <g id="text_12">
     <!-- $\Phi$ = 120$^\circ$ -->
     <g transform="translate(364.68126 47.0304)scale(0.14994 -0.14994)">
      <defs>
       <path d="M 39.40625 0 
L 11.796875 0 
L 11.796875 1.5 
Q 17.296875 1.796875 19.296875 3.546875 
Q 21.296875 5.296875 21.296875 9.5 
L 21.296875 54.40625 
Q 21.296875 59.296875 18.296875 59.296875 
Q 16.90625 59.296875 13.796875 58.09375 
L 11.09375 57.09375 
L 11.09375 58.5 
L 29 67.59375 
L 29.90625 67.296875 
L 29.90625 7.59375 
Q 29.90625 4.296875 31.90625 2.890625 
Q 33.90625 1.5 39.40625 1.5 
z
" id="STIXGeneral-Regular-49"/>
      </defs>
      <use transform="translate(0 0.40625)" xlink:href="#STIXGeneral-Regular-934"/>
      <use transform="translate(76.299988 0.40625)" xlink:href="#STIXGeneral-Regular-32"/>
      <use transform="translate(101.299973 0.40625)" xlink:href="#STIXGeneral-Regular-61"/>
      <use transform="translate(169.799957 0.40625)" xlink:href="#STIXGeneral-Regular-32"/>
      <use transform="translate(194.799942 0.40625)" xlink:href="#STIXGeneral-Regular-49"/>
      <use transform="translate(244.799927 0.40625)" xlink:href="#STIXGeneral-Regular-50"/>
      <use transform="translate(294.799911 0.40625)" xlink:href="#STIXGeneral-Regular-48"/>
      <use transform="translate(356.451175 35.68125)scale(0.7)" xlink:href="#STIXGeneral-Regular-8728"/>
     </g>
    </g>
    <g id="line2d_19">
     <path d="M 454.0455 41.7825 
L 484.0335 41.7825 
" style="fill:none;stroke:#2ca02c;stroke-linecap:square;stroke-width:2.5;"/>
    </g>
    <g id="line2d_20"/>
    <g id="text_13">
     <!-- $\Phi$ = 160$^\circ$ -->
     <g transform="translate(496.0287 47.0304)scale(0.14994 -0.14994)">
      <use transform="translate(0 0.59375)" xlink:href="#STIXGeneral-Regular-934"/>
      <use transform="translate(76.299988 0.59375)" xlink:href="#STIXGeneral-Regular-32"/>
      <use transform="translate(101.299973 0.59375)" xlink:href="#STIXGeneral-Regular-61"/>
      <use transform="translate(169.799957 0.59375)" xlink:href="#STIXGeneral-Regular-32"/>
      <use transform="translate(194.799942 0.59375)" xlink:href="#STIXGeneral-Regular-49"/>
      <use transform="translate(244.799927 0.59375)" xlink:href="#STIXGeneral-Regular-54"/>
      <use transform="translate(294.799911 0.59375)" xlink:href="#STIXGeneral-Regular-48"/>
      <use transform="translate(356.451175 35.86875)scale(0.7)" xlink:href="#STIXGeneral-Regular-8728"/>
     </g>
    </g>
    <g id="line2d_21">
     <path d="M 585.39294 41.7825 
L 615.38094 41.7825 
" style="fill:none;stroke:#d62728;stroke-linecap:square;stroke-width:2.5;"/>
    </g>
    <g id="line2d_22"/>
    <g id="text_14">
     <!-- $\Phi$ = 180$^\circ$ -->
     <g transform="translate(627.37614 47.0304)scale(0.14994 -0.14994)">
      <use transform="translate(0 0.40625)" xlink:href="#STIXGeneral-Regular-934"/>
      <use transform="translate(76.299988 0.40625)" xlink:href="#STIXGeneral-Regular-32"/>
      <use transform="translate(101.299973 0.40625)" xlink:href="#STIXGeneral-Regular-61"/>
      <use transform="translate(169.799957 0.40625)" xlink:href="#STIXGeneral-Regular-32"/>
      <use transform="translate(194.799942 0.40625)" xlink:href="#STIXGeneral-Regular-49"/>
      <use transform="translate(244.799927 0.40625)" xlink:href="#STIXGeneral-Regular-56"/>
      <use transform="translate(294.799911 0.40625)" xlink:href="#STIXGeneral-Regular-48"/>
      <use transform="translate(356.451175 35.68125)scale(0.7)" xlink:href="#STIXGeneral-Regular-8728"/>
     </g>
    </g>
   </g>
  </g>
  <g id="axes_2">
   <g id="patch_7">
    <path d="M 473.236364 230.4 
L 777.6 230.4 
L 777.6 57.6 
L 473.236364 57.6 
z
" style="fill:#ffffff;"/>
   </g>
   <g id="matplotlib.axis_3">
    <g id="xtick_7">
     <g id="line2d_23">
      <g>
       <use style="fill:#ffffff;stroke:#000000;stroke-width:0.8;" x="473.236364" xlink:href="#m733402da65" y="230.4"/>
      </g>
     </g>
     <g id="text_15">
      <!-- 4.0 -->
      <g transform="translate(461.986364 249.693438)scale(0.18 -0.18)">
       <use xlink:href="#STIXGeneral-Regular-52"/>
       <use x="49.999985" xlink:href="#STIXGeneral-Regular-46"/>
       <use x="74.999969" xlink:href="#STIXGeneral-Regular-48"/>
      </g>
     </g>
    </g>
    <g id="xtick_8">
     <g id="line2d_24">
      <g>
       <use style="fill:#ffffff;stroke:#000000;stroke-width:0.8;" x="534.109091" xlink:href="#m733402da65" y="230.4"/>
      </g>
     </g>
     <g id="text_16">
      <!-- 4.2 -->
      <g transform="translate(522.859091 249.693438)scale(0.18 -0.18)">
       <use xlink:href="#STIXGeneral-Regular-52"/>
       <use x="49.999985" xlink:href="#STIXGeneral-Regular-46"/>
       <use x="74.999969" xlink:href="#STIXGeneral-Regular-50"/>
      </g>
     </g>
    </g>
    <g id="xtick_9">
     <g id="line2d_25">
      <g>
       <use style="fill:#ffffff;stroke:#000000;stroke-width:0.8;" x="594.981818" xlink:href="#m733402da65" y="230.4"/>
      </g>
     </g>
     <g id="text_17">
      <!-- 4.4 -->
      <g transform="translate(583.731818 249.693438)scale(0.18 -0.18)">
       <use xlink:href="#STIXGeneral-Regular-52"/>
       <use x="49.999985" xlink:href="#STIXGeneral-Regular-46"/>
       <use x="74.999969" xlink:href="#STIXGeneral-Regular-52"/>
      </g>
     </g>
    </g>
    <g id="xtick_10">
     <g id="line2d_26">
      <g>
       <use style="fill:#ffffff;stroke:#000000;stroke-width:0.8;" x="655.854545" xlink:href="#m733402da65" y="230.4"/>
      </g>
     </g>
     <g id="text_18">
      <!-- 4.6 -->
      <g transform="translate(644.604545 249.693438)scale(0.18 -0.18)">
       <use xlink:href="#STIXGeneral-Regular-52"/>
       <use x="49.999985" xlink:href="#STIXGeneral-Regular-46"/>
       <use x="74.999969" xlink:href="#STIXGeneral-Regular-54"/>
      </g>
     </g>
    </g>
    <g id="xtick_11">
     <g id="line2d_27">
      <g>
       <use style="fill:#ffffff;stroke:#000000;stroke-width:0.8;" x="716.727273" xlink:href="#m733402da65" y="230.4"/>
      </g>
     </g>
     <g id="text_19">
      <!-- 4.8 -->
      <g transform="translate(705.477273 249.693438)scale(0.18 -0.18)">
       <use xlink:href="#STIXGeneral-Regular-52"/>
       <use x="49.999985" xlink:href="#STIXGeneral-Regular-46"/>
       <use x="74.999969" xlink:href="#STIXGeneral-Regular-56"/>
      </g>
     </g>
    </g>
    <g id="xtick_12">
     <g id="line2d_28">
      <g>
       <use style="fill:#ffffff;stroke:#000000;stroke-width:0.8;" x="777.6" xlink:href="#m733402da65" y="230.4"/>
      </g>
     </g>
     <g id="text_20">
      <!-- 5.0 -->
      <g transform="translate(766.35 249.693438)scale(0.18 -0.18)">
       <use xlink:href="#STIXGeneral-Regular-53"/>
       <use x="49.999985" xlink:href="#STIXGeneral-Regular-46"/>
       <use x="74.999969" xlink:href="#STIXGeneral-Regular-48"/>
      </g>
     </g>
    </g>
    <g id="text_21">
     <!-- $\^t$ -->
     <g transform="translate(622.898182 269.893438)scale(0.18 -0.18)">
      <use transform="translate(39.042969 16.59375)" xlink:href="#STIXGeneral-Regular-770"/>
      <use transform="translate(0 0.203125)" xlink:href="#STIXGeneral-Italic-116"/>
     </g>
    </g>
   </g>
   <g id="matplotlib.axis_4">
    <g id="ytick_3">
     <g id="line2d_29">
      <g>
       <use style="fill:#ffffff;stroke:#000000;stroke-width:0.8;" x="473.236364" xlink:href="#m004812787e" y="193.21519"/>
      </g>
     </g>
     <g id="text_22">
      <!-- 0 -->
      <g transform="translate(457.236364 199.361909)scale(0.18 -0.18)">
       <use xlink:href="#STIXGeneral-Regular-48"/>
      </g>
     </g>
    </g>
    <g id="ytick_4">
     <g id="line2d_30">
      <g>
       <use style="fill:#ffffff;stroke:#000000;stroke-width:0.8;" x="473.236364" xlink:href="#m004812787e" y="149.468354"/>
      </g>
     </g>
     <g id="text_23">
      <!-- 2 -->
      <g transform="translate(457.236364 155.615073)scale(0.18 -0.18)">
       <use xlink:href="#STIXGeneral-Regular-50"/>
      </g>
     </g>
    </g>
    <g id="ytick_5">
     <g id="line2d_31">
      <g>
       <use style="fill:#ffffff;stroke:#000000;stroke-width:0.8;" x="473.236364" xlink:href="#m004812787e" y="105.721519"/>
      </g>
     </g>
     <g id="text_24">
      <!-- 4 -->
      <g transform="translate(457.236364 111.868238)scale(0.18 -0.18)">
       <use xlink:href="#STIXGeneral-Regular-52"/>
      </g>
     </g>
    </g>
    <g id="ytick_6">
     <g id="line2d_32">
      <g>
       <use style="fill:#ffffff;stroke:#000000;stroke-width:0.8;" x="473.236364" xlink:href="#m004812787e" y="61.974684"/>
      </g>
     </g>
     <g id="text_25">
      <!-- 6 -->
      <g transform="translate(457.236364 68.121402)scale(0.18 -0.18)">
       <use xlink:href="#STIXGeneral-Regular-54"/>
      </g>
     </g>
    </g>
    <g id="text_26">
     <!-- $C_D$ -->
     <g transform="translate(449.329801 154.98)rotate(-90)scale(0.18 -0.18)">
      <defs>
       <path d="M 13.09375 65.296875 
L 40.796875 65.296875 
Q 54.203125 65.296875 62.09375 58.296875 
Q 70 51.296875 70 38.40625 
Q 70 20.703125 54 8.296875 
Q 43.40625 0 24.90625 0 
L -0.796875 0 
L -0.796875 1.59375 
Q 3.5 2.40625 4.84375 3.59375 
Q 6.203125 4.796875 7.40625 9.203125 
L 19.59375 53.703125 
Q 20.703125 57.59375 20.703125 59.59375 
Q 20.703125 61.703125 19.09375 62.640625 
Q 17.5 63.59375 13.09375 63.703125 
z
M 31 58.40625 
L 19.203125 16.203125 
Q 17 8.203125 17 6.703125 
Q 17 3 23.796875 3 
Q 38.59375 3 47.90625 12 
Q 53.09375 17 56 24.953125 
Q 58.90625 32.90625 58.90625 40.796875 
Q 58.90625 52.90625 51.09375 58.796875 
Q 46.40625 62.296875 38 62.296875 
Q 34.796875 62.296875 33.25 61.546875 
Q 31.703125 60.796875 31 58.40625 
z
" id="STIXGeneral-Italic-68"/>
      </defs>
      <use transform="translate(0 0.40625)" xlink:href="#STIXGeneral-Italic-67"/>
      <use transform="translate(66.699997 -12.821875)scale(0.7)" xlink:href="#STIXGeneral-Italic-68"/>
     </g>
    </g>
   </g>
   <g id="line2d_33">
    <path clip-path="url(#p4d0466bec3)" d="M 472.932 139.823015 
L 473.236364 143.018433 
L 473.540727 240.200839 
L 478.106182 193.174974 
L 480.236727 173.368068 
L 482.062909 158.33472 
L 483.584727 147.247909 
L 485.106545 137.561825 
L 486.628364 129.28169 
L 488.150182 122.296621 
L 489.672 116.490937 
L 490.889455 112.580587 
L 492.106909 109.246884 
L 493.324364 106.410166 
L 494.541818 104.125464 
L 495.454909 102.509905 
L 496.368 101.294111 
L 496.976727 100.741884 
L 498.498545 99.573181 
L 499.411636 99.250048 
L 500.324727 99.205352 
L 501.237818 99.487918 
L 501.846545 99.860377 
L 502.759636 100.723557 
L 503.672727 101.990255 
L 504.585818 103.68294 
L 505.498909 105.856692 
L 506.412 108.522596 
L 507.629455 112.933108 
L 508.846909 118.390007 
L 510.064364 124.971348 
L 511.586182 133.965612 
L 511.890545 132.743389 
L 512.194909 132.489028 
L 512.499273 132.527322 
L 514.629818 132.10588 
L 516.760364 131.902548 
L 519.499636 131.879819 
L 522.543273 132.050217 
L 527.413091 132.57397 
L 532.587273 133.350095 
L 549.936 136.167623 
L 559.98 137.325326 
L 569.719636 138.165686 
L 587.372727 139.549291 
L 587.677091 139.197187 
L 588.285818 136.844025 
L 589.807636 132.1113 
L 592.242545 123.80735 
L 596.199273 109.42446 
L 604.112727 80.048609 
L 606.243273 72.913022 
L 607.765091 68.517191 
L 608.982545 65.59893 
L 609.895636 63.862472 
L 610.808727 62.599056 
L 611.417455 62.082363 
L 612.026182 61.836405 
L 612.634909 61.904566 
L 613.243636 62.288524 
L 613.852364 63.016145 
L 614.461091 64.112408 
L 615.069818 65.59782 
L 615.982909 68.562088 
L 616.896 72.421533 
L 617.809091 77.188497 
L 619.026545 84.906609 
L 620.548364 96.546461 
L 622.374545 112.884189 
L 624.505091 134.186887 
L 625.418182 143.730818 
L 625.722545 239.475075 
L 629.983636 195.61405 
L 632.114182 175.817354 
L 633.940364 160.678234 
L 635.766545 147.418272 
L 637.288364 137.844557 
L 638.810182 129.634849 
L 640.332 122.680677 
L 641.853818 116.864555 
L 643.071273 112.915144 
L 644.288727 109.537781 
L 645.506182 106.684793 
L 646.419273 104.719623 
L 647.636727 102.648475 
L 648.245455 101.860176 
L 649.767273 100.153306 
L 650.680364 99.477632 
L 651.593455 99.107444 
L 652.810909 99.131485 
L 653.419636 99.319943 
L 654.028364 99.665903 
L 654.941455 100.491757 
L 655.854545 101.72314 
L 656.767636 103.385486 
L 657.680727 105.519319 
L 658.593818 108.157755 
L 659.811273 112.533191 
L 661.028727 117.96533 
L 662.246182 124.524009 
L 663.768 133.496207 
L 664.072364 132.269751 
L 664.376727 132.013091 
L 664.985455 131.970806 
L 667.116 131.573726 
L 669.246545 131.411312 
L 671.681455 131.429914 
L 674.725091 131.644036 
L 678.986182 132.170839 
L 685.682182 133.307678 
L 700.291636 135.865864 
L 707.292 136.797759 
L 714.596727 137.547013 
L 725.858182 138.493109 
L 739.554545 139.598388 
L 739.858909 139.245213 
L 740.467636 136.893 
L 741.989455 132.162165 
L 744.728727 122.895601 
L 748.685455 108.345271 
L 755.685818 82.30244 
L 758.120727 74.050961 
L 759.642545 69.551714 
L 760.86 66.520575 
L 761.773091 64.653975 
L 762.686182 63.235587 
L 763.294909 62.582208 
L 763.903636 62.198638 
L 764.512364 62.105186 
L 765.121091 62.329794 
L 765.729818 62.88818 
L 766.338545 63.795681 
L 766.947273 65.0711 
L 767.860364 67.722506 
L 768.773455 71.258565 
L 769.686545 75.712091 
L 770.904 83.001047 
L 772.121455 91.743001 
L 773.643273 104.397561 
L 775.469455 121.631955 
L 777.295636 140.238074 
L 777.6 193.21519 
L 777.6 193.21519 
" style="fill:none;stroke:#1f77b4;stroke-linecap:square;stroke-width:2.5;"/>
   </g>
   <g id="line2d_34">
    <path clip-path="url(#p4d0466bec3)" d="M 472.932 209.479419 
L 473.236364 210.848936 
L 473.540727 174.220622 
L 475.671273 165.398479 
L 477.497455 158.860924 
L 479.019273 154.2089 
L 480.541091 150.307127 
L 482.062909 147.118545 
L 483.584727 144.449066 
L 485.106545 142.468951 
L 486.019636 141.524609 
L 487.541455 140.271781 
L 487.845818 140.187894 
L 488.454545 139.826389 
L 489.672 139.468596 
L 490.280727 139.510328 
L 493.02 139.375619 
L 498.802909 139.588863 
L 503.977091 139.55297 
L 505.498909 139.887132 
L 506.412 140.27447 
L 507.629455 141.057767 
L 508.542545 141.874677 
L 509.76 143.308172 
L 510.977455 145.158249 
L 511.281818 145.701479 
L 511.586182 145.954392 
L 511.890545 145.407262 
L 512.499273 144.990847 
L 517.369091 141.898777 
L 519.804 140.640914 
L 522.238909 139.635739 
L 524.673818 138.85735 
L 527.413091 138.196112 
L 530.761091 137.625025 
L 533.804727 137.304882 
L 536.848364 137.187637 
L 539.892 137.284302 
L 543.24 137.614603 
L 549.327273 138.530948 
L 555.718909 139.430597 
L 561.806182 140.016607 
L 568.806545 140.416141 
L 576.111273 140.636386 
L 587.677091 140.819616 
L 588.894545 140.571868 
L 593.46 139.665549 
L 599.547273 138.488381 
L 601.373455 138.446533 
L 602.895273 138.657865 
L 604.112727 139.046953 
L 605.330182 139.686902 
L 606.243273 140.35098 
L 607.460727 141.543454 
L 608.373818 142.702658 
L 609.591273 144.653275 
L 610.808727 147.101015 
L 612.026182 150.08146 
L 613.243636 153.638199 
L 614.765455 158.85789 
L 616.591636 166.19158 
L 618.113455 173.018621 
L 620.548364 184.951773 
L 624.809455 205.900141 
L 625.113818 207.285683 
L 625.722545 176.421087 
L 627.548727 168.830742 
L 629.374909 162.09859 
L 630.896727 157.548688 
L 632.418545 153.601372 
L 633.636 150.963432 
L 634.853455 148.772742 
L 636.070909 147.028153 
L 637.288364 145.652493 
L 638.505818 144.58433 
L 639.114545 144.063357 
L 639.723273 143.535802 
L 640.636364 143.043115 
L 642.766909 142.3722 
L 643.984364 142.064812 
L 644.288727 141.99946 
L 644.897455 142.021796 
L 645.810545 141.831508 
L 650.984727 140.44435 
L 656.463273 138.355624 
L 657.680727 138.224487 
L 658.593818 138.307098 
L 659.506909 138.595133 
L 660.42 139.110776 
L 661.333091 139.885224 
L 662.246182 140.943262 
L 663.159273 142.311525 
L 663.463636 142.845882 
L 663.768 143.105439 
L 664.072364 142.562647 
L 664.681091 142.200164 
L 667.116 140.96425 
L 669.550909 139.990552 
L 671.985818 139.250141 
L 675.029455 138.568245 
L 678.986182 137.935202 
L 683.856 137.402446 
L 687.812727 137.202991 
L 690.552 137.248887 
L 694.508727 137.565977 
L 699.987273 138.302805 
L 709.118182 139.561458 
L 714.292364 140.001855 
L 719.466545 140.212351 
L 726.466909 140.241912 
L 739.858909 140.044519 
L 741.076364 139.771574 
L 747.772364 138.375324 
L 750.511636 137.916782 
L 752.337818 137.811577 
L 753.859636 137.938821 
L 755.077091 138.232742 
L 756.294545 138.744289 
L 757.512 139.521936 
L 758.729455 140.607856 
L 759.946909 142.068221 
L 761.164364 143.960341 
L 762.381818 146.333266 
L 763.599273 149.232335 
L 764.816727 152.683485 
L 766.338545 157.737983 
L 768.164727 164.917557 
L 769.990909 173.11733 
L 772.730182 186.650447 
L 776.686909 206.201046 
L 777.295636 208.999606 
L 777.6 193.21519 
L 777.6 193.21519 
" style="fill:none;stroke:#ff7f0e;stroke-linecap:square;stroke-width:2.5;"/>
   </g>
   <g id="line2d_35">
    <path clip-path="url(#p4d0466bec3)" d="M 472.932 212.26464 
L 473.236364 213.334373 
L 473.540727 172.036215 
L 475.366909 166.219816 
L 477.193091 161.24957 
L 478.410545 158.385665 
L 479.628 155.941195 
L 480.845455 153.934795 
L 481.758545 152.712744 
L 482.976 151.50511 
L 484.497818 150.374123 
L 484.802182 150.355002 
L 486.019636 149.925238 
L 487.541455 149.771874 
L 488.150182 149.905515 
L 492.106909 150.336826 
L 493.933091 150.545858 
L 495.150545 150.436631 
L 496.368 150.042834 
L 497.585455 149.334667 
L 498.802909 148.330516 
L 500.933455 146.098983 
L 503.672727 143.225778 
L 504.890182 142.226578 
L 506.107636 141.496815 
L 507.020727 141.17627 
L 507.933818 141.042164 
L 508.846909 141.178858 
L 509.76 141.575421 
L 510.673091 142.255684 
L 511.586182 143.023588 
L 511.890545 142.662498 
L 512.803636 142.292401 
L 515.847273 141.310868 
L 521.934545 139.605479 
L 524.065091 139.297183 
L 525.891273 139.260494 
L 527.717455 139.430709 
L 529.848 139.847288 
L 535.935273 141.238997 
L 537.761455 141.351155 
L 539.587636 141.225551 
L 541.413818 140.882705 
L 543.848727 140.187664 
L 550.240364 138.237472 
L 552.675273 137.784658 
L 555.110182 137.591179 
L 557.545091 137.649238 
L 560.588727 137.985326 
L 566.067273 138.887295 
L 571.850182 139.815543 
L 577.328727 140.441496 
L 588.590182 141.333837 
L 591.938182 142.081473 
L 595.894909 143.165919 
L 598.938545 144.237164 
L 601.069091 145.264518 
L 602.590909 146.23927 
L 604.112727 147.496969 
L 605.330182 148.750339 
L 606.547636 150.276257 
L 607.765091 152.11653 
L 608.982545 154.312515 
L 610.2 156.908735 
L 611.721818 160.740145 
L 613.243636 165.143069 
L 614.765455 170.255804 
L 616.896 178.313576 
L 620.244 192.203801 
L 623.287636 204.63478 
L 625.418182 212.405931 
L 625.722545 172.994949 
L 627.548727 167.296768 
L 629.070545 163.187051 
L 630.896727 158.981106 
L 632.418545 156.124385 
L 633.940364 153.763816 
L 634.853455 152.709507 
L 635.157818 152.547121 
L 636.375273 151.538294 
L 637.592727 150.876998 
L 638.810182 150.518673 
L 639.418909 150.536651 
L 640.940727 150.505331 
L 643.375636 150.543889 
L 644.897455 150.730036 
L 645.506182 150.667784 
L 645.810545 150.735134 
L 647.332364 150.365869 
L 648.549818 149.809484 
L 649.767273 148.892329 
L 650.984727 147.675633 
L 655.854545 142.304767 
L 657.072 141.315091 
L 658.289455 140.62217 
L 659.202545 140.334679 
L 660.115636 140.272604 
L 661.028727 140.453117 
L 661.941818 140.88349 
L 662.854909 141.576745 
L 663.768 142.337198 
L 664.072364 141.964255 
L 664.985455 141.537598 
L 670.159636 139.398716 
L 671.681455 139.026095 
L 673.507636 138.865047 
L 675.333818 139.010475 
L 677.16 139.424638 
L 680.203636 140.481613 
L 682.334182 141.208476 
L 684.160364 141.587128 
L 685.682182 141.637182 
L 687.204 141.441506 
L 689.030182 140.935604 
L 692.073818 139.783209 
L 694.813091 138.826596 
L 696.943636 138.303956 
L 699.074182 138.005399 
L 701.509091 137.905268 
L 704.857091 138.054429 
L 708.509455 138.418596 
L 717.336 139.363661 
L 724.945091 140.129613 
L 733.467273 140.731511 
L 740.467636 141.189132 
L 743.511273 141.837397 
L 747.468 142.866404 
L 750.511636 143.834588 
L 752.642182 144.734327 
L 754.164 145.579252 
L 755.685818 146.670688 
L 757.207636 148.081828 
L 758.425091 149.498759 
L 759.642545 151.219844 
L 760.86 153.286701 
L 762.077455 155.749493 
L 763.599273 159.415 
L 764.512364 161.853545 
L 766.034182 166.576054 
L 767.860364 173.064433 
L 769.990909 181.523736 
L 776.991273 210.129101 
L 777.295636 211.217617 
L 777.6 174.154923 
L 777.6 174.154923 
" style="fill:none;stroke:#2ca02c;stroke-linecap:square;stroke-width:2.5;"/>
   </g>
   <g id="line2d_36">
    <path clip-path="url(#p4d0466bec3)" d="M 472.932 213.05334 
L 473.236364 214.0428 
L 473.540727 171.405273 
L 475.366909 165.986835 
L 477.193091 161.27171 
L 478.410545 158.574976 
L 479.628 156.281088 
L 480.541091 154.832024 
L 481.758545 153.328261 
L 483.280364 151.839365 
L 483.584727 151.60849 
L 484.193455 151.337803 
L 485.715273 150.593114 
L 486.628364 150.307608 
L 487.541455 150.197498 
L 488.150182 150.315011 
L 489.367636 150.496676 
L 489.976364 150.545908 
L 490.585091 150.604059 
L 493.628727 151.354367 
L 494.846182 151.29 
L 496.063636 150.917509 
L 497.281091 150.240191 
L 498.498545 149.339003 
L 500.020364 147.994794 
L 502.759636 145.567995 
L 504.585818 144.269707 
L 506.107636 143.500593 
L 507.325091 143.191636 
L 508.542545 143.189063 
L 509.455636 143.415704 
L 510.368727 143.849486 
L 511.586182 144.634444 
L 511.890545 144.308531 
L 512.803636 143.928271 
L 515.238545 143.161623 
L 517.673455 142.683402 
L 520.412727 142.42875 
L 522.847636 142.440478 
L 527.413091 142.535792 
L 529.239273 142.27532 
L 531.369818 141.708362 
L 537.457091 139.866237 
L 540.805091 139.125223 
L 544.153091 138.597149 
L 547.196727 138.322329 
L 550.240364 138.25903 
L 553.588364 138.422016 
L 557.849455 138.881498 
L 563.632364 139.765886 
L 568.502182 140.393819 
L 570.937091 140.529752 
L 574.893818 140.562621 
L 581.285455 140.294731 
L 586.764 140.195327 
L 587.981455 140.295112 
L 590.720727 141.00598 
L 593.46 141.957864 
L 596.199273 143.131644 
L 598.329818 144.24493 
L 600.156 145.421312 
L 601.982182 146.888508 
L 603.504 148.401511 
L 605.025818 150.247801 
L 606.547636 152.493404 
L 608.069455 155.20704 
L 609.591273 158.450154 
L 611.417455 163.006551 
L 612.939273 167.493921 
L 614.765455 173.599717 
L 617.200364 182.674094 
L 624.200727 209.624949 
L 625.113818 212.718539 
L 625.722545 171.73201 
L 627.853091 165.316129 
L 629.983636 159.828205 
L 631.201091 157.196093 
L 632.418545 155.009685 
L 633.636 153.258572 
L 634.853455 151.892949 
L 636.070909 150.777156 
L 636.679636 150.527992 
L 637.592727 150.139366 
L 638.810182 150.010144 
L 639.723273 150.169704 
L 640.636364 150.596135 
L 645.506182 152.623503 
L 647.028 152.941139 
L 647.941091 152.935609 
L 649.158545 152.682798 
L 650.071636 152.275615 
L 650.680364 151.999152 
L 652.202182 150.978509 
L 654.637091 148.997375 
L 658.593818 145.685105 
L 659.811273 144.959379 
L 660.724364 144.571616 
L 661.637455 144.445753 
L 662.550545 144.562689 
L 663.768 144.976637 
L 664.376727 144.322376 
L 668.029091 142.304835 
L 670.768364 141.187652 
L 674.420727 139.9611 
L 678.681818 138.757476 
L 681.421091 138.207121 
L 683.551636 138.026876 
L 685.377818 138.088919 
L 687.204 138.341001 
L 689.943273 138.964591 
L 695.117455 140.219524 
L 697.552364 140.532568 
L 699.682909 140.55972 
L 701.813455 140.349535 
L 704.248364 139.871174 
L 710.64 138.477504 
L 713.074909 138.275866 
L 715.814182 138.295818 
L 719.162182 138.547954 
L 727.075636 139.527733 
L 737.728364 140.949695 
L 740.163273 141.324991 
L 743.206909 142.393133 
L 747.163636 144.063913 
L 750.207273 145.556675 
L 752.337818 146.809881 
L 754.164 148.130893 
L 755.685818 149.483372 
L 757.207636 151.141102 
L 758.729455 153.174403 
L 759.946909 155.12399 
L 761.468727 158.039004 
L 763.294909 162.212117 
L 764.816727 166.407283 
L 766.338545 171.184275 
L 768.164727 177.59779 
L 770.904 188.178502 
L 775.165091 204.834554 
L 777.295636 212.25865 
L 777.6 213.241068 
L 777.6 213.241068 
" style="fill:none;stroke:#d62728;stroke-linecap:square;stroke-width:2.5;"/>
   </g>
   <g id="line2d_37">
    <path clip-path="url(#p4d0466bec3)" d="M 473.236364 193.21519 
L 777.6 193.21519 
" style="fill:none;stroke:#000000;stroke-dasharray:3.2,0.8,0.5,0.8;stroke-dashoffset:0;stroke-width:0.5;"/>
   </g>
   <g id="line2d_38">
    <path clip-path="url(#p4d0466bec3)" d="M 625.418182 230.4 
L 625.418182 57.6 
" style="fill:none;stroke:#000000;stroke-dasharray:3.2,0.8,0.5,0.8;stroke-dashoffset:0;stroke-width:0.5;"/>
   </g>
   <g id="patch_8">
    <path d="M 473.236364 230.4 
L 473.236364 57.6 
" style="fill:none;stroke:#000000;stroke-linecap:square;stroke-linejoin:miter;stroke-width:0.8;"/>
   </g>
   <g id="patch_9">
    <path d="M 777.6 230.4 
L 777.6 57.6 
" style="fill:none;stroke:#000000;stroke-linecap:square;stroke-linejoin:miter;stroke-width:0.8;"/>
   </g>
   <g id="patch_10">
    <path d="M 473.236364 230.4 
L 777.6 230.4 
" style="fill:none;stroke:#000000;stroke-linecap:square;stroke-linejoin:miter;stroke-width:0.8;"/>
   </g>
   <g id="patch_11">
    <path d="M 473.236364 57.6 
L 777.6 57.6 
" style="fill:none;stroke:#000000;stroke-linecap:square;stroke-linejoin:miter;stroke-width:0.8;"/>
   </g>
  </g>
 </g>
 <defs>
  <clipPath id="pb7a152d2a7">
   <rect height="172.8" width="304.363636" x="108" y="57.6"/>
  </clipPath>
  <clipPath id="p4d0466bec3">
   <rect height="172.8" width="304.363636" x="473.236364" y="57.6"/>
  </clipPath>
 </defs>
</svg>
