<?xml version="1.0" encoding="utf-8" standalone="no"?>
<!DOCTYPE svg PUBLIC "-//W3C//DTD SVG 1.1//EN"
  "http://www.w3.org/Graphics/SVG/1.1/DTD/svg11.dtd">
<!-- Created with matplotlib (https://matplotlib.org/) -->
<svg height="360pt" version="1.1" viewBox="0 0 1008 360" width="1008pt" xmlns="http://www.w3.org/2000/svg" xmlns:xlink="http://www.w3.org/1999/xlink">
 <defs>
  <style type="text/css">
*{stroke-linecap:butt;stroke-linejoin:round;}
  </style>
 </defs>
 <g id="figure_1">
  <g id="patch_1">
   <path d="M 0 360 
L 1008 360 
L 1008 0 
L 0 0 
z
" style="fill:#ffffff;"/>
  </g>
  <g id="axes_1">
   <g id="PathCollection_1">
    <defs>
     <path d="M 0 7.905694 
C 2.096615 7.905694 4.10764 7.0727 5.59017 5.59017 
C 7.0727 4.10764 7.905694 2.096615 7.905694 0 
C 7.905694 -2.096615 7.0727 -4.10764 5.59017 -5.59017 
C 4.10764 -7.0727 2.096615 -7.905694 0 -7.905694 
C -2.096615 -7.905694 -4.10764 -7.0727 -5.59017 -5.59017 
C -7.0727 -4.10764 -7.905694 -2.096615 -7.905694 0 
C -7.905694 2.096615 -7.0727 4.10764 -5.59017 5.59017 
C -4.10764 7.0727 -2.096615 7.905694 0 7.905694 
z
" id="m0e428fd966" style="stroke:#000000;"/>
    </defs>
    <g clip-path="url(#pae50f3169d)">
     <use style="stroke:#000000;" x="239.170693" xlink:href="#m0e428fd966" y="188.435325"/>
     <use style="stroke:#000000;" x="256.108044" xlink:href="#m0e428fd966" y="188.435325"/>
     <use style="stroke:#000000;" x="287.980319" xlink:href="#m0e428fd966" y="188.435325"/>
     <use style="stroke:#000000;" x="324.063872" xlink:href="#m0e428fd966" y="188.435325"/>
     <use style="stroke:#000000;" x="360.154101" xlink:href="#m0e428fd966" y="188.435325"/>
     <use style="stroke:#000000;" x="396.244328" xlink:href="#m0e428fd966" y="188.435325"/>
     <use style="stroke:#000000;" x="432.334557" xlink:href="#m0e428fd966" y="188.435325"/>
     <use style="stroke:#000000;" x="468.424775" xlink:href="#m0e428fd966" y="188.435325"/>
     <use style="stroke:#000000;" x="504.515005" xlink:href="#m0e428fd966" y="188.435325"/>
     <use style="stroke:#000000;" x="540.605228" xlink:href="#m0e428fd966" y="188.435325"/>
     <use style="stroke:#000000;" x="576.695453" xlink:href="#m0e428fd966" y="188.435325"/>
     <use style="stroke:#000000;" x="612.785682" xlink:href="#m0e428fd966" y="188.435325"/>
     <use style="stroke:#000000;" x="648.875902" xlink:href="#m0e428fd966" y="188.435325"/>
     <use style="stroke:#000000;" x="684.944497" xlink:href="#m0e428fd966" y="188.413709"/>
     <use style="stroke:#000000;" x="717.428076" xlink:href="#m0e428fd966" y="185.362144"/>
     <use style="stroke:#000000;" x="741.910845" xlink:href="#m0e428fd966" y="180.460805"/>
     <use style="stroke:#000000;" x="761.729013" xlink:href="#m0e428fd966" y="181.122848"/>
     <use style="stroke:#000000;" x="769.901861" xlink:href="#m0e428fd966" y="186.570078"/>
     <use style="stroke:#000000;" x="771.633185" xlink:href="#m0e428fd966" y="188.433022"/>
     <use style="stroke:#000000;" x="771.635282" xlink:href="#m0e428fd966" y="188.435275"/>
    </g>
   </g>
   <g id="patch_2">
    <path clip-path="url(#pae50f3169d)" d="M 239.170693 188.435325 
L 157.711991 269.894026 
M 256.108044 188.435325 
L 174.649343 269.894026 
M 287.980319 188.435325 
L 206.521617 269.894026 
M 324.063872 188.435325 
L 242.605171 269.894026 
M 360.154101 188.435325 
L 278.6954 269.894026 
M 396.244328 188.435325 
L 314.785627 269.894026 
M 432.334557 188.435325 
L 350.875856 269.894026 
M 468.424775 188.435325 
L 386.966073 269.894026 
M 504.515005 188.435325 
L 423.056304 269.894026 
M 540.605228 188.435325 
L 459.146527 269.894026 
M 576.695453 188.435325 
L 495.236752 269.894026 
M 612.785682 188.435325 
L 531.326981 269.894026 
M 648.875902 188.435325 
L 567.417201 269.894026 
M 684.944497 188.413709 
L 603.572352 269.958874 
M 717.428076 185.362144 
L 650.482496 279.113567 
M 741.910845 180.460805 
L 721.385733 293.817586 
M 761.729013 181.122848 
L 793.582492 291.831456 
M 769.901861 186.570078 
L 843.143443 275.489765 
M 771.633185 188.433022 
L 853.082675 269.900934 
M 771.635282 188.435275 
L 853.093784 269.894175 
" style="fill:#1f77b4;stroke:#000000;stroke-linejoin:miter;stroke-width:4;"/>
   </g>
   <g id="patch_3">
    <path clip-path="url(#pae50f3169d)" d="M 577.827836 115.122494 
L 484.15033 208.8 
" style="fill:#1f77b4;stroke:#000000;stroke-dasharray:6.4,1.6,1,1.6;stroke-dashoffset:0;stroke-linejoin:miter;"/>
   </g>
   <g id="patch_4">
    <path clip-path="url(#pae50f3169d)" d="M 218.806017 162.72 
L 218.806017 128.16 
M 288 162.72 
L 288 128.16 
M 720 162.72 
L 720 128.16 
M 792 162.72 
L 792 128.16 
M 648 110.88 
L 648 76.32 
M 792 110.88 
L 792 76.32 
" style="fill:#1f77b4;stroke:#000000;stroke-linejoin:miter;"/>
   </g>
   <g id="line2d_1">
    <path clip-path="url(#pae50f3169d)" d="M 146.88 208.8 
L 861.12 208.8 
" style="fill:none;stroke:#000000;stroke-dasharray:6.4,1.6,1,1.6;stroke-dashoffset:0;"/>
   </g>
   <g id="patch_5">
    <path d="M 568.365336 128.838543 
Q 613.986322 155.021078 599.947912 206.873517 
" style="fill:none;stroke:#000000;stroke-linecap:round;"/>
    <path d="M 572.818041 135.544765 
L 568.365336 128.838543 
L 576.401937 129.300112 
" style="fill:none;stroke:#000000;stroke-linecap:round;"/>
   </g>
   <g id="text_1">
    <!-- $\alpha$ -->
    <defs>
     <path d="M 54.90625 42.796875 
L 40.703125 16.703125 
L 40.703125 14.90625 
Q 40.703125 11 41.59375 8 
Q 42.5 5 44.09375 5 
Q 46.40625 5 49.203125 12.40625 
L 50.796875 11.703125 
Q 47.09375 -0.90625 40.703125 -0.90625 
Q 35.796875 -0.90625 35.5 9.59375 
Q 26.703125 -1.09375 16.09375 -1.09375 
Q 9.203125 -1.09375 5.953125 3.09375 
Q 2.703125 7.296875 2.703125 14.09375 
Q 2.703125 20.203125 5.140625 26.140625 
Q 7.59375 32.09375 11.796875 36.40625 
Q 15.203125 39.796875 19.84375 41.9375 
Q 24.5 44.09375 29.09375 44.09375 
Q 35.09375 44.09375 38.390625 40.546875 
Q 41.703125 37 41.703125 32.203125 
L 46.296875 42.796875 
z
M 35.90625 27.203125 
Q 35.90625 42 28.203125 42 
Q 23 42 16.953125 32.796875 
Q 10.90625 23.59375 10.90625 12.5 
Q 10.90625 7.703125 12.59375 4.34375 
Q 14.296875 1 17.796875 1 
Q 25.09375 1 34.296875 20.09375 
Q 34.40625 20.703125 34.84375 22.046875 
Q 35.296875 23.40625 35.59375 24.703125 
Q 35.90625 26 35.90625 27.203125 
z
" id="STIXGeneral-Italic-945"/>
    </defs>
    <g transform="translate(601.50589 162.295536)scale(0.18 -0.18)">
     <use transform="translate(0 0.90625)" xlink:href="#STIXGeneral-Italic-945"/>
    </g>
   </g>
   <g id="patch_6">
    <path d="M 284.884361 145.44 
Q 253.402883 145.44 220.803371 145.44 
" style="fill:none;stroke:#000000;stroke-linecap:round;"/>
    <path d="M 277.684361 141.84 
L 284.884361 145.44 
L 277.684361 149.04 
" style="fill:none;stroke:#000000;stroke-linecap:round;"/>
   </g>
   <g id="text_2">
    <!-- $\frac{1}{2}\^a_t$ -->
    <defs>
     <path d="M 39.40625 0 
L 11.796875 0 
L 11.796875 1.5 
Q 17.296875 1.796875 19.296875 3.546875 
Q 21.296875 5.296875 21.296875 9.5 
L 21.296875 54.40625 
Q 21.296875 59.296875 18.296875 59.296875 
Q 16.90625 59.296875 13.796875 58.09375 
L 11.09375 57.09375 
L 11.09375 58.5 
L 29 67.59375 
L 29.90625 67.296875 
L 29.90625 7.59375 
Q 29.90625 4.296875 31.90625 2.890625 
Q 33.90625 1.5 39.40625 1.5 
z
" id="STIXGeneral-Regular-49"/>
     <path d="M 47.40625 13.703125 
L 42 0 
L 2.90625 0 
L 2.90625 1.203125 
L 20.703125 20.09375 
Q 27.703125 27.40625 30.703125 33.5 
Q 33.703125 39.59375 33.703125 46.09375 
Q 33.703125 52.796875 30 56.5 
Q 26.296875 60.203125 19.796875 60.203125 
Q 14.40625 60.203125 11.25 57.390625 
Q 8.09375 54.59375 5.09375 47.203125 
L 3 47.703125 
Q 4.703125 57 9.84375 62.296875 
Q 15 67.59375 23.796875 67.59375 
Q 32.09375 67.59375 37.1875 62.59375 
Q 42.296875 57.59375 42.296875 50 
Q 42.296875 38.703125 29.5 25.203125 
L 13 7.59375 
L 36.40625 7.59375 
Q 39.703125 7.59375 41.640625 8.890625 
Q 43.59375 10.203125 46 14.296875 
z
" id="STIXGeneral-Regular-50"/>
     <path d="M -7.5 50.703125 
L -10.90625 50.703125 
L -23.09375 61 
L -35.203125 50.703125 
L -38.59375 50.703125 
L -26.203125 67.40625 
L -20 67.40625 
z
" id="STIXGeneral-Regular-770"/>
     <path d="M 46.296875 11.09375 
L 47.59375 10 
Q 42 3.203125 39.34375 1.09375 
Q 36.703125 -1 33.703125 -1 
Q 29.703125 -1 29.703125 3.09375 
Q 29.703125 5.59375 32 14.59375 
Q 26.40625 6.203125 21.703125 2.546875 
Q 17 -1.09375 11.703125 -1.09375 
Q 7.296875 -1.09375 4.5 1.953125 
Q 1.703125 5 1.703125 10.5 
Q 1.703125 18.09375 6.046875 26 
Q 10.40625 33.90625 17.09375 39 
Q 23.796875 44.09375 30.296875 44.09375 
Q 37 44.09375 38.296875 38.296875 
L 39.40625 43.09375 
L 39.703125 43.40625 
L 45.796875 44.09375 
L 46.5 43.796875 
Q 46.40625 43.40625 45.90625 41.703125 
Q 37 9.296875 37 5.40625 
Q 37 4.09375 38.40625 4.09375 
Q 39.90625 4.09375 43.59375 8.203125 
z
M 36.5 36.09375 
Q 36.5 38.703125 35 40.296875 
Q 33.5 41.90625 30.90625 41.90625 
Q 24.09375 41.90625 17.796875 32.703125 
Q 14.5 27.796875 12.296875 21.796875 
Q 10.09375 15.796875 10.09375 11.203125 
Q 10.09375 3.796875 16.09375 3.796875 
Q 22 3.796875 28.796875 13.59375 
Q 36.5 24.703125 36.5 36.09375 
z
" id="STIXGeneral-Italic-97"/>
     <path d="M 29.59375 42.796875 
L 29.09375 39.59375 
L 20.703125 39.59375 
L 12 6.796875 
Q 11.796875 6 11.796875 5.40625 
Q 11.796875 3.796875 13.296875 3.796875 
Q 14.5 3.796875 16.09375 5.34375 
Q 17.703125 6.90625 21.40625 11.703125 
L 22.703125 11 
Q 18.09375 4 15.140625 1.453125 
Q 12.203125 -1.09375 8.40625 -1.09375 
Q 3.796875 -1.09375 3.796875 2.59375 
Q 3.796875 3.59375 5.40625 10 
L 13.203125 39.59375 
L 5.703125 39.59375 
L 5.59375 40.203125 
Q 5.59375 42 8.90625 42.703125 
Q 11.40625 43.296875 15.5 46.546875 
Q 19.59375 49.796875 22.203125 53.703125 
Q 22.796875 54.59375 23.59375 54.59375 
Q 24.5 54.59375 24.5 53.796875 
Q 24.5 53.296875 24.40625 53.09375 
L 21.59375 42.796875 
z
" id="STIXGeneral-Italic-116"/>
    </defs>
    <g transform="translate(240.84 135.666)scale(0.18 -0.18)">
     <use transform="translate(0 38.684375)scale(0.7)" xlink:href="#STIXGeneral-Regular-49"/>
     <use transform="translate(0 -39.88125)scale(0.7)" xlink:href="#STIXGeneral-Regular-50"/>
     <use transform="translate(99.566396 6.778125)" xlink:href="#STIXGeneral-Regular-770"/>
     <use transform="translate(47.499989 0.8875)" xlink:href="#STIXGeneral-Italic-97"/>
     <use transform="translate(99.143261 -12.340625)scale(0.7)" xlink:href="#STIXGeneral-Italic-116"/>
     <path d="M 0 13.684375 
L 0 19.934375 
L 34.999989 19.934375 
L 34.999989 13.684375 
L 0 13.684375 
z
"/>
    </g>
   </g>
   <g id="patch_7">
    <path d="M 788.882454 145.44 
Q 756.002143 145.44 722.003798 145.44 
" style="fill:none;stroke:#000000;stroke-linecap:round;"/>
    <path d="M 781.682454 141.84 
L 788.882454 145.44 
L 781.682454 149.04 
" style="fill:none;stroke:#000000;stroke-linecap:round;"/>
   </g>
   <g id="text_3">
    <!-- $\frac{1}{2}\^a_t$ -->
    <g transform="translate(744.84 135.666)scale(0.18 -0.18)">
     <use transform="translate(0 38.684375)scale(0.7)" xlink:href="#STIXGeneral-Regular-49"/>
     <use transform="translate(0 -39.88125)scale(0.7)" xlink:href="#STIXGeneral-Regular-50"/>
     <use transform="translate(99.566396 6.778125)" xlink:href="#STIXGeneral-Regular-770"/>
     <use transform="translate(47.499989 0.8875)" xlink:href="#STIXGeneral-Italic-97"/>
     <use transform="translate(99.143261 -12.340625)scale(0.7)" xlink:href="#STIXGeneral-Italic-116"/>
     <path d="M 0 13.684375 
L 0 19.934375 
L 34.999989 19.934375 
L 34.999989 13.684375 
L 0 13.684375 
z
"/>
    </g>
   </g>
   <g id="patch_8">
    <path d="M 788.882454 93.6 
Q 719.999118 93.6 649.997749 93.6 
" style="fill:none;stroke:#000000;stroke-linecap:round;"/>
    <path d="M 781.682454 90 
L 788.882454 93.6 
L 781.682454 97.2 
" style="fill:none;stroke:#000000;stroke-linecap:round;"/>
   </g>
   <g id="text_4">
    <!-- $\^p_t$ -->
    <defs>
     <path d="M 21.5 42.796875 
L 18.59375 32.796875 
Q 26.09375 44.09375 35.703125 44.09375 
Q 41.203125 44.09375 44.203125 40.796875 
Q 47.203125 37.5 47.203125 31.59375 
Q 47.203125 19.296875 37.84375 9.09375 
Q 28.5 -1.09375 17.5 -1.09375 
Q 13.90625 -1.09375 10.59375 0.59375 
Q 6.59375 -15.90625 6.59375 -16 
Q 6.59375 -17.59375 7.9375 -18.25 
Q 9.296875 -18.90625 12.796875 -18.90625 
L 12.796875 -20.5 
L -7.5 -20.5 
L -7.5 -18.90625 
Q -4.296875 -18.796875 -2.9375 -17.5 
Q -1.59375 -16.203125 -0.703125 -12.59375 
L 10.796875 30.59375 
Q 12.40625 36.40625 12.40625 37.703125 
Q 12.40625 40.40625 8 40.40625 
L 5.796875 40.40625 
L 5.59375 41.90625 
L 21.203125 44.09375 
Q 21.703125 44.09375 21.703125 43.703125 
Q 21.59375 43.203125 21.5 42.796875 
z
M 38.203125 31.296875 
Q 38.203125 35.703125 36.75 37.75 
Q 35.296875 39.796875 32 39.796875 
Q 28.09375 39.796875 24.1875 36.390625 
Q 20.296875 33 18.5 28.40625 
Q 16.296875 22.703125 14.140625 14.890625 
Q 12 7.09375 12 4.59375 
Q 12 2.90625 13.34375 1.84375 
Q 14.703125 0.796875 16.796875 0.796875 
Q 24.59375 0.796875 31.296875 10.296875 
Q 38.203125 19.90625 38.203125 31.296875 
z
" id="STIXGeneral-Italic-112"/>
    </defs>
    <g transform="translate(712.71 84.419437)scale(0.18 -0.18)">
     <use transform="translate(57.265625 6.59375)" xlink:href="#STIXGeneral-Regular-770"/>
     <use transform="translate(0 0.703125)" xlink:href="#STIXGeneral-Italic-112"/>
     <use transform="translate(56.230781 -12.525)scale(0.7)" xlink:href="#STIXGeneral-Italic-116"/>
    </g>
   </g>
   <g id="patch_9">
    <path d="M 218.806017 88.421254 
Q 218.806017 102.970319 218.806017 116.401351 
" style="fill:none;stroke:#000000;stroke-linecap:round;"/>
    <path d="M 222.406017 109.201351 
L 218.806017 116.401351 
L 215.206017 109.201351 
" style="fill:none;stroke:#000000;stroke-linecap:round;"/>
   </g>
   <g id="text_5">
    <!-- $\^t = 0$ -->
    <defs>
     <path d="M 63.703125 32 
L 4.796875 32 
L 4.796875 38.59375 
L 63.703125 38.59375 
z
M 63.703125 12 
L 4.796875 12 
L 4.796875 18.59375 
L 63.703125 18.59375 
z
" id="STIXGeneral-Regular-61"/>
     <path d="M 47.59375 33 
Q 47.59375 26.296875 46.296875 20.34375 
Q 45 14.40625 42.453125 9.40625 
Q 39.90625 4.40625 35.40625 1.5 
Q 30.90625 -1.40625 25 -1.40625 
Q 18.90625 -1.40625 14.296875 1.6875 
Q 9.703125 4.796875 7.203125 10 
Q 4.703125 15.203125 3.546875 21.09375 
Q 2.40625 27 2.40625 33.59375 
Q 2.40625 42.90625 4.703125 50.34375 
Q 7 57.796875 12.34375 62.6875 
Q 17.703125 67.59375 25.40625 67.59375 
Q 35.203125 67.59375 41.390625 58 
Q 47.59375 48.40625 47.59375 33 
z
M 38 32.5 
Q 38 48.296875 34.640625 56.640625 
Q 31.296875 65 24.796875 65 
Q 18.59375 65 15.296875 56.59375 
Q 12 48.203125 12 32.90625 
Q 12 17.5 15.296875 9.34375 
Q 18.59375 1.203125 25 1.203125 
Q 31.296875 1.203125 34.640625 9.34375 
Q 38 17.5 38 32.5 
z
" id="STIXGeneral-Regular-48"/>
    </defs>
    <g transform="translate(202.966017 80.513438)scale(0.18 -0.18)">
     <use transform="translate(39.042969 16.59375)" xlink:href="#STIXGeneral-Regular-770"/>
     <use transform="translate(0 0.203125)" xlink:href="#STIXGeneral-Italic-116"/>
     <use transform="translate(42.239984 0.203125)" xlink:href="#STIXGeneral-Regular-61"/>
     <use transform="translate(125.179965 0.203125)" xlink:href="#STIXGeneral-Regular-48"/>
    </g>
   </g>
   <g id="patch_10">
    <path d="M 798.801559 174.24 
L 791.999908 174.24 
L 791.999908 197.039114 
" style="fill:none;stroke:#000000;stroke-linecap:round;"/>
    <path d="M 795.599908 189.839114 
L 791.999908 197.039114 
L 788.399908 189.839114 
" style="fill:none;stroke:#000000;stroke-linecap:round;"/>
   </g>
   <g id="text_6">
    <!-- $\^t\/=\/1$ -->
    <g transform="translate(802.799908 178.433437)scale(0.18 -0.18)">
     <use transform="translate(39.042969 16.59375)" xlink:href="#STIXGeneral-Regular-770"/>
     <use transform="translate(0 0.203125)" xlink:href="#STIXGeneral-Italic-116"/>
     <use transform="translate(54.273555 0.203125)" xlink:href="#STIXGeneral-Regular-61"/>
     <use transform="translate(149.247107 0.203125)" xlink:href="#STIXGeneral-Regular-49"/>
    </g>
   </g>
  </g>
 </g>
 <defs>
  <clipPath id="pae50f3169d">
   <rect height="288" width="714.24" x="146.88" y="36"/>
  </clipPath>
 </defs>
</svg>
