<?xml version="1.0" encoding="utf-8" standalone="no"?>
<!DOCTYPE svg PUBLIC "-//W3C//DTD SVG 1.1//EN"
  "http://www.w3.org/Graphics/SVG/1.1/DTD/svg11.dtd">
<!-- Created with matplotlib (https://matplotlib.org/) -->
<svg height="432pt" version="1.1" viewBox="0 0 1008 432" width="1008pt" xmlns="http://www.w3.org/2000/svg" xmlns:xlink="http://www.w3.org/1999/xlink">
 <metadata>
  <rdf:RDF xmlns:cc="http://creativecommons.org/ns#" xmlns:dc="http://purl.org/dc/elements/1.1/" xmlns:rdf="http://www.w3.org/1999/02/22-rdf-syntax-ns#">
   <cc:Work>
    <dc:type rdf:resource="http://purl.org/dc/dcmitype/StillImage"/>
    <dc:date>2022-01-13T10:12:54.256774</dc:date>
    <dc:format>image/svg+xml</dc:format>
    <dc:creator>
     <cc:Agent>
      <dc:title>Matplotlib v3.3.4, https://matplotlib.org/</dc:title>
     </cc:Agent>
    </dc:creator>
   </cc:Work>
  </rdf:RDF>
 </metadata>
 <defs>
  <style type="text/css">*{stroke-linecap:butt;stroke-linejoin:round;}</style>
 </defs>
 <g id="figure_1">
  <g id="patch_1">
   <path d="M 0 432 
L 1008 432 
L 1008 0 
L 0 0 
z
" style="fill:#ffffff;"/>
  </g>
  <g id="axes_1">
   <g id="patch_2">
    <path d="M 126 345.6 
L 481.090909 345.6 
L 481.090909 86.4 
L 126 86.4 
z
" style="fill:#ffffff;"/>
   </g>
   <g id="matplotlib.axis_1">
    <g id="xtick_1">
     <g id="line2d_1">
      <defs>
       <path d="M 0 0 
L 0 3.5 
" id="m26414b71df" style="stroke:#000000;stroke-width:0.8;"/>
      </defs>
      <g>
       <use style="fill:#ffffff;stroke:#000000;stroke-width:0.8;" x="126" xlink:href="#m26414b71df" y="345.6"/>
      </g>
     </g>
     <g id="text_1">
      <!-- 4.00 -->
      <g transform="translate(105 368.99125)scale(0.24 -0.24)">
       <defs>
        <path d="M 47.296875 16.703125 
L 37 16.703125 
L 37 0 
L 29.203125 0 
L 29.203125 16.703125 
L 1.203125 16.703125 
L 1.203125 23.09375 
L 32.59375 67.59375 
L 37 67.59375 
L 37 23.09375 
L 47.296875 23.09375 
z
M 29.203125 23.09375 
L 29.203125 57.40625 
L 5.203125 23.09375 
z
" id="STIXGeneral-Regular-52"/>
        <path d="M 18.09375 4.296875 
Q 18.09375 2.09375 16.4375 0.5 
Q 14.796875 -1.09375 12.5 -1.09375 
Q 10.203125 -1.09375 8.59375 0.5 
Q 7 2.09375 7 4.390625 
Q 7 6.703125 8.640625 8.34375 
Q 10.296875 10 12.59375 10 
Q 14.796875 10 16.4375 8.296875 
Q 18.09375 6.59375 18.09375 4.296875 
z
" id="STIXGeneral-Regular-46"/>
        <path d="M 47.59375 33 
Q 47.59375 26.296875 46.296875 20.34375 
Q 45 14.40625 42.453125 9.40625 
Q 39.90625 4.40625 35.40625 1.5 
Q 30.90625 -1.40625 25 -1.40625 
Q 18.90625 -1.40625 14.296875 1.6875 
Q 9.703125 4.796875 7.203125 10 
Q 4.703125 15.203125 3.546875 21.09375 
Q 2.40625 27 2.40625 33.59375 
Q 2.40625 42.90625 4.703125 50.34375 
Q 7 57.796875 12.34375 62.6875 
Q 17.703125 67.59375 25.40625 67.59375 
Q 35.203125 67.59375 41.390625 58 
Q 47.59375 48.40625 47.59375 33 
z
M 38 32.5 
Q 38 48.296875 34.640625 56.640625 
Q 31.296875 65 24.796875 65 
Q 18.59375 65 15.296875 56.59375 
Q 12 48.203125 12 32.90625 
Q 12 17.5 15.296875 9.34375 
Q 18.59375 1.203125 25 1.203125 
Q 31.296875 1.203125 34.640625 9.34375 
Q 38 17.5 38 32.5 
z
" id="STIXGeneral-Regular-48"/>
       </defs>
       <use xlink:href="#STIXGeneral-Regular-52"/>
       <use x="49.999985" xlink:href="#STIXGeneral-Regular-46"/>
       <use x="74.999969" xlink:href="#STIXGeneral-Regular-48"/>
       <use x="124.999954" xlink:href="#STIXGeneral-Regular-48"/>
      </g>
     </g>
    </g>
    <g id="xtick_2">
     <g id="line2d_2">
      <g>
       <use style="fill:#ffffff;stroke:#000000;stroke-width:0.8;" x="214.772727" xlink:href="#m26414b71df" y="345.6"/>
      </g>
     </g>
     <g id="text_2">
      <!-- 4.25 -->
      <g transform="translate(193.772727 368.99125)scale(0.24 -0.24)">
       <defs>
        <path d="M 47.40625 13.703125 
L 42 0 
L 2.90625 0 
L 2.90625 1.203125 
L 20.703125 20.09375 
Q 27.703125 27.40625 30.703125 33.5 
Q 33.703125 39.59375 33.703125 46.09375 
Q 33.703125 52.796875 30 56.5 
Q 26.296875 60.203125 19.796875 60.203125 
Q 14.40625 60.203125 11.25 57.390625 
Q 8.09375 54.59375 5.09375 47.203125 
L 3 47.703125 
Q 4.703125 57 9.84375 62.296875 
Q 15 67.59375 23.796875 67.59375 
Q 32.09375 67.59375 37.1875 62.59375 
Q 42.296875 57.59375 42.296875 50 
Q 42.296875 38.703125 29.5 25.203125 
L 13 7.59375 
L 36.40625 7.59375 
Q 39.703125 7.59375 41.640625 8.890625 
Q 43.59375 10.203125 46 14.296875 
z
" id="STIXGeneral-Regular-50"/>
        <path d="M 43.796875 68.09375 
L 40.203125 59.59375 
Q 39.59375 58.296875 37.5 58.296875 
L 18.09375 58.296875 
L 14.09375 49.796875 
Q 25.09375 47.703125 30 45.25 
Q 34.90625 42.796875 39.09375 37 
Q 42.59375 32.203125 42.59375 24.296875 
Q 42.59375 17.09375 40.25 12.1875 
Q 37.90625 7.296875 32.796875 3.5 
Q 26 -1.40625 15.796875 -1.40625 
Q 10.09375 -1.40625 6.59375 0.296875 
Q 3.09375 2 3.09375 4.796875 
Q 3.09375 8.59375 7.59375 8.59375 
Q 11.203125 8.59375 15 5.5 
Q 18.90625 2.296875 22.09375 2.296875 
Q 27.296875 2.296875 31.4375 7.5 
Q 35.59375 12.703125 35.59375 19.203125 
Q 35.59375 28.796875 28.90625 34.203125 
Q 20.203125 41.203125 7.59375 41.203125 
Q 6.40625 41.203125 6.40625 42 
L 6.5 42.5 
L 17.40625 66.203125 
L 38.09375 66.203125 
Q 39.796875 66.203125 40.75 66.703125 
Q 41.703125 67.203125 42.90625 68.796875 
z
" id="STIXGeneral-Regular-53"/>
       </defs>
       <use xlink:href="#STIXGeneral-Regular-52"/>
       <use x="49.999985" xlink:href="#STIXGeneral-Regular-46"/>
       <use x="74.999969" xlink:href="#STIXGeneral-Regular-50"/>
       <use x="124.999954" xlink:href="#STIXGeneral-Regular-53"/>
      </g>
     </g>
    </g>
    <g id="xtick_3">
     <g id="line2d_3">
      <g>
       <use style="fill:#ffffff;stroke:#000000;stroke-width:0.8;" x="303.545455" xlink:href="#m26414b71df" y="345.6"/>
      </g>
     </g>
     <g id="text_3">
      <!-- 4.50 -->
      <g transform="translate(282.545455 368.99125)scale(0.24 -0.24)">
       <use xlink:href="#STIXGeneral-Regular-52"/>
       <use x="49.999985" xlink:href="#STIXGeneral-Regular-46"/>
       <use x="74.999969" xlink:href="#STIXGeneral-Regular-53"/>
       <use x="124.999954" xlink:href="#STIXGeneral-Regular-48"/>
      </g>
     </g>
    </g>
    <g id="xtick_4">
     <g id="line2d_4">
      <g>
       <use style="fill:#ffffff;stroke:#000000;stroke-width:0.8;" x="392.318182" xlink:href="#m26414b71df" y="345.6"/>
      </g>
     </g>
     <g id="text_4">
      <!-- 4.75 -->
      <g transform="translate(371.318182 368.99125)scale(0.24 -0.24)">
       <defs>
        <path d="M 44.90625 64.59375 
L 23.703125 -0.796875 
L 17.203125 -0.796875 
L 37 58.796875 
L 15.5 58.796875 
Q 11.203125 58.796875 9.09375 57.296875 
Q 7 55.796875 3.796875 50.59375 
L 2 51.5 
L 8 66.203125 
L 44.90625 66.203125 
z
" id="STIXGeneral-Regular-55"/>
       </defs>
       <use xlink:href="#STIXGeneral-Regular-52"/>
       <use x="49.999985" xlink:href="#STIXGeneral-Regular-46"/>
       <use x="74.999969" xlink:href="#STIXGeneral-Regular-55"/>
       <use x="124.999954" xlink:href="#STIXGeneral-Regular-53"/>
      </g>
     </g>
    </g>
    <g id="xtick_5">
     <g id="line2d_5">
      <g>
       <use style="fill:#ffffff;stroke:#000000;stroke-width:0.8;" x="481.090909" xlink:href="#m26414b71df" y="345.6"/>
      </g>
     </g>
     <g id="text_5">
      <!-- 5.00 -->
      <g transform="translate(460.090909 368.99125)scale(0.24 -0.24)">
       <use xlink:href="#STIXGeneral-Regular-53"/>
       <use x="49.999985" xlink:href="#STIXGeneral-Regular-46"/>
       <use x="74.999969" xlink:href="#STIXGeneral-Regular-48"/>
       <use x="124.999954" xlink:href="#STIXGeneral-Regular-48"/>
      </g>
     </g>
    </g>
    <g id="text_6">
     <!-- $\^t$ -->
     <g transform="translate(300.185455 394.59125)scale(0.24 -0.24)">
      <defs>
       <path d="M -7.5 50.703125 
L -10.90625 50.703125 
L -23.09375 61 
L -35.203125 50.703125 
L -38.59375 50.703125 
L -26.203125 67.40625 
L -20 67.40625 
z
" id="STIXGeneral-Regular-770"/>
       <path d="M 29.59375 42.796875 
L 29.09375 39.59375 
L 20.703125 39.59375 
L 12 6.796875 
Q 11.796875 6 11.796875 5.40625 
Q 11.796875 3.796875 13.296875 3.796875 
Q 14.5 3.796875 16.09375 5.34375 
Q 17.703125 6.90625 21.40625 11.703125 
L 22.703125 11 
Q 18.09375 4 15.140625 1.453125 
Q 12.203125 -1.09375 8.40625 -1.09375 
Q 3.796875 -1.09375 3.796875 2.59375 
Q 3.796875 3.59375 5.40625 10 
L 13.203125 39.59375 
L 5.703125 39.59375 
L 5.59375 40.203125 
Q 5.59375 42 8.90625 42.703125 
Q 11.40625 43.296875 15.5 46.546875 
Q 19.59375 49.796875 22.203125 53.703125 
Q 22.796875 54.59375 23.59375 54.59375 
Q 24.5 54.59375 24.5 53.796875 
Q 24.5 53.296875 24.40625 53.09375 
L 21.59375 42.796875 
z
" id="STIXGeneral-Italic-116"/>
      </defs>
      <use transform="translate(39.042969 16.59375)" xlink:href="#STIXGeneral-Regular-770"/>
      <use transform="translate(0 0.203125)" xlink:href="#STIXGeneral-Italic-116"/>
     </g>
    </g>
   </g>
   <g id="matplotlib.axis_2">
    <g id="ytick_1">
     <g id="line2d_6">
      <defs>
       <path d="M 0 0 
L -3.5 0 
" id="mc00b0c5708" style="stroke:#000000;stroke-width:0.8;"/>
      </defs>
      <g>
       <use style="fill:#ffffff;stroke:#000000;stroke-width:0.8;" x="126" xlink:href="#mc00b0c5708" y="345.6"/>
      </g>
     </g>
     <g id="text_7">
      <!-- −1 -->
      <g transform="translate(90.56 353.795625)scale(0.24 -0.24)">
       <defs>
        <path d="M 62.09375 22 
L 6.40625 22 
L 6.40625 28.59375 
L 62.09375 28.59375 
z
" id="STIXGeneral-Regular-8722"/>
        <path d="M 39.40625 0 
L 11.796875 0 
L 11.796875 1.5 
Q 17.296875 1.796875 19.296875 3.546875 
Q 21.296875 5.296875 21.296875 9.5 
L 21.296875 54.40625 
Q 21.296875 59.296875 18.296875 59.296875 
Q 16.90625 59.296875 13.796875 58.09375 
L 11.09375 57.09375 
L 11.09375 58.5 
L 29 67.59375 
L 29.90625 67.296875 
L 29.90625 7.59375 
Q 29.90625 4.296875 31.90625 2.890625 
Q 33.90625 1.5 39.40625 1.5 
z
" id="STIXGeneral-Regular-49"/>
       </defs>
       <use xlink:href="#STIXGeneral-Regular-8722"/>
       <use x="68.499985" xlink:href="#STIXGeneral-Regular-49"/>
      </g>
     </g>
    </g>
    <g id="ytick_2">
     <g id="line2d_7">
      <g>
       <use style="fill:#ffffff;stroke:#000000;stroke-width:0.8;" x="126" xlink:href="#mc00b0c5708" y="280.8"/>
      </g>
     </g>
     <g id="text_8">
      <!-- 0 -->
      <g transform="translate(107 288.995625)scale(0.24 -0.24)">
       <use xlink:href="#STIXGeneral-Regular-48"/>
      </g>
     </g>
    </g>
    <g id="ytick_3">
     <g id="line2d_8">
      <g>
       <use style="fill:#ffffff;stroke:#000000;stroke-width:0.8;" x="126" xlink:href="#mc00b0c5708" y="216"/>
      </g>
     </g>
     <g id="text_9">
      <!-- 1 -->
      <g transform="translate(107 224.195625)scale(0.24 -0.24)">
       <use xlink:href="#STIXGeneral-Regular-49"/>
      </g>
     </g>
    </g>
    <g id="ytick_4">
     <g id="line2d_9">
      <g>
       <use style="fill:#ffffff;stroke:#000000;stroke-width:0.8;" x="126" xlink:href="#mc00b0c5708" y="151.2"/>
      </g>
     </g>
     <g id="text_10">
      <!-- 2 -->
      <g transform="translate(107 159.395625)scale(0.24 -0.24)">
       <use xlink:href="#STIXGeneral-Regular-50"/>
      </g>
     </g>
    </g>
    <g id="ytick_5">
     <g id="line2d_10">
      <g>
       <use style="fill:#ffffff;stroke:#000000;stroke-width:0.8;" x="126" xlink:href="#mc00b0c5708" y="86.4"/>
      </g>
     </g>
     <g id="text_11">
      <!-- 3 -->
      <g transform="translate(107 94.595625)scale(0.24 -0.24)">
       <defs>
        <path d="M 6.09375 51 
L 4.5 51.40625 
Q 6.796875 58.90625 11.6875 63.25 
Q 16.59375 67.59375 24.09375 67.59375 
Q 31.09375 67.59375 35.390625 63.796875 
Q 39.703125 60 39.703125 53.90625 
Q 39.703125 45.703125 30.40625 40.09375 
Q 35.90625 37.703125 38.703125 34.796875 
Q 43.09375 29.90625 43.09375 21.90625 
Q 43.09375 13.90625 38.5 7.90625 
Q 35.09375 3.296875 28.75 0.9375 
Q 22.40625 -1.40625 15.296875 -1.40625 
Q 4.09375 -1.40625 4.09375 4.296875 
Q 4.09375 5.90625 5.296875 6.90625 
Q 6.5 7.90625 8.203125 7.90625 
Q 10.703125 7.90625 14.296875 5.296875 
Q 18.703125 2.203125 22.90625 2.203125 
Q 28.40625 2.203125 32.15625 6.640625 
Q 35.90625 11.09375 35.90625 17.5 
Q 35.90625 29 25.5 32 
Q 22.40625 33 15.296875 33 
L 15.296875 34.40625 
Q 20.90625 36.296875 23.703125 38 
Q 31.796875 42.59375 31.796875 51.40625 
Q 31.796875 56.40625 28.9375 59 
Q 26.09375 61.59375 21 61.59375 
Q 12 61.59375 6.09375 51 
z
" id="STIXGeneral-Regular-51"/>
       </defs>
       <use xlink:href="#STIXGeneral-Regular-51"/>
      </g>
     </g>
    </g>
    <g id="text_12">
     <!-- $C_L$ -->
     <g transform="translate(81.35125 229.32)rotate(-90)scale(0.24 -0.24)">
      <defs>
       <path d="M 68.90625 66.40625 
L 65.203125 46.40625 
L 63.40625 46.703125 
Q 61.59375 63 48.5 63 
Q 37.59375 63 28.59375 53.296875 
Q 23.296875 47.703125 20.546875 39.703125 
Q 17.796875 31.703125 17.796875 23.203125 
Q 17.796875 2.703125 35.296875 2.703125 
Q 41.5 2.703125 46.640625 5.296875 
Q 51.796875 7.90625 58.203125 14.59375 
L 60 13.09375 
Q 53.296875 5.203125 46.84375 1.703125 
Q 40.40625 -1.796875 32.703125 -1.796875 
Q 21 -1.796875 13.796875 5.140625 
Q 6.59375 12.09375 6.59375 24.296875 
Q 6.59375 34.59375 11.6875 43.9375 
Q 16.796875 53.296875 25.296875 59.296875 
Q 35.5 66.59375 47.203125 66.59375 
Q 54.09375 66.59375 58.90625 64.90625 
Q 60.90625 64.203125 63 64.203125 
Q 65.703125 64.203125 66.796875 66.40625 
z
" id="STIXGeneral-Italic-67"/>
       <path d="M 55.90625 18 
L 50.09375 0 
L -0.796875 0 
L -0.796875 1.59375 
Q 3.40625 2 4.703125 3.296875 
Q 6 4.59375 7.40625 9.40625 
L 19.59375 53.203125 
Q 20.703125 56.90625 20.703125 59.40625 
Q 20.703125 61.59375 19.140625 62.5 
Q 17.59375 63.40625 13 63.703125 
L 13 65.296875 
L 40.296875 65.296875 
L 40.296875 63.703125 
Q 35.703125 63.40625 33.546875 61.796875 
Q 31.40625 60.203125 30.203125 56 
L 18.203125 13.09375 
Q 17.203125 9.296875 17.203125 7.703125 
Q 17.203125 5.40625 19.390625 4.5 
Q 21.59375 3.59375 27.703125 3.59375 
Q 35.40625 3.59375 38.75 4.296875 
Q 42.09375 5 45.703125 7.40625 
Q 49.796875 10.09375 53.90625 18.59375 
z
" id="STIXGeneral-Italic-76"/>
      </defs>
      <use transform="translate(0 0.40625)" xlink:href="#STIXGeneral-Italic-67"/>
      <use transform="translate(66.699997 -12.821875)scale(0.7)" xlink:href="#STIXGeneral-Italic-76"/>
     </g>
    </g>
   </g>
   <g id="line2d_11">
    <path clip-path="url(#pf13679f8a0)" d="M 125.644909 276.000208 
L 126.710182 272.82404 
L 128.130545 267.721621 
L 129.550909 261.771773 
L 131.681455 251.797435 
L 135.232364 235.094171 
L 137.007818 227.99332 
L 138.428182 223.333117 
L 139.493455 220.562016 
L 140.558727 218.483283 
L 141.268909 217.492326 
L 141.979091 216.815594 
L 142.689273 216.440978 
L 143.399455 216.332885 
L 144.109636 216.448127 
L 145.174909 216.925245 
L 149.436 219.407993 
L 150.146182 219.535967 
L 150.856364 219.447519 
L 151.566545 219.06896 
L 152.276727 218.327283 
L 152.986909 217.173437 
L 153.697091 215.5935 
L 154.762364 212.489361 
L 156.182727 207.317601 
L 161.154 188.039236 
L 162.574364 183.737882 
L 163.994727 180.198852 
L 165.06 178.054179 
L 166.125273 176.3667 
L 167.190545 175.17152 
L 167.900727 174.671932 
L 168.610909 174.424868 
L 169.321091 174.454107 
L 170.031273 174.768595 
L 170.386364 175.044617 
L 170.741455 175.087506 
L 171.096545 174.376874 
L 171.806727 173.748681 
L 172.872 173.077223 
L 173.937273 172.690866 
L 175.002545 172.610948 
L 176.067818 172.844232 
L 177.133091 173.359244 
L 180.328909 175.26589 
L 181.394182 175.498465 
L 182.104364 175.462439 
L 183.169636 175.136072 
L 184.234909 174.533994 
L 185.655273 173.423697 
L 188.140909 171.074253 
L 191.336727 168.075716 
L 193.467273 166.359262 
L 195.597818 164.909056 
L 198.083455 163.498185 
L 200.924182 162.17256 
L 204.12 160.952965 
L 208.026 159.725924 
L 212.287091 158.617303 
L 216.193091 157.870275 
L 220.099091 157.367232 
L 225.780545 156.659293 
L 228.976364 156.024544 
L 232.882364 154.972771 
L 242.469818 152.307726 
L 245.310545 151.737056 
L 247.796182 151.335713 
L 254.187818 150.644875 
L 258.448909 150.239502 
L 259.514182 150.199292 
L 260.224364 150.65528 
L 261.289636 151.268902 
L 262.71 152.373593 
L 264.130364 153.831208 
L 265.550727 155.665551 
L 266.971091 157.89359 
L 268.391455 160.543663 
L 269.811818 163.632431 
L 271.232182 167.203432 
L 272.652545 171.29068 
L 274.428 177.18044 
L 276.203455 183.990086 
L 277.978909 191.740958 
L 279.754364 200.373457 
L 281.884909 211.775121 
L 285.080727 230.298261 
L 288.986727 252.821077 
L 290.762182 261.928195 
L 292.182545 268.281097 
L 293.602909 273.602696 
L 294.668182 276.827975 
L 295.733455 279.327036 
L 296.443636 280.580511 
L 297.153818 281.492232 
L 297.864 282.061501 
L 298.574182 282.288689 
L 299.284364 282.181598 
L 299.994545 281.746732 
L 300.704727 280.996441 
L 301.414909 279.941095 
L 302.480182 277.815267 
L 303.545455 275.070766 
L 304.610727 271.750523 
L 306.031091 266.50568 
L 307.806545 258.875064 
L 313.488 233.06734 
L 314.908364 227.9674 
L 316.328727 223.79178 
L 317.394 221.296355 
L 318.459273 219.348887 
L 319.524545 217.935321 
L 320.234727 217.286037 
L 320.944909 216.874649 
L 321.655091 216.678875 
L 322.365273 216.68127 
L 323.430545 216.992854 
L 326.271273 218.191469 
L 326.981455 218.160561 
L 327.691636 217.849777 
L 328.401818 217.21118 
L 329.112 216.21706 
L 329.822182 214.867117 
L 330.887455 212.249181 
L 332.307818 207.901962 
L 335.148545 197.982336 
L 338.344364 186.950868 
L 340.119818 181.654486 
L 341.185091 179.060824 
L 342.250364 177.001029 
L 343.315636 175.521725 
L 344.025818 174.852548 
L 344.736 174.442382 
L 345.446182 174.290884 
L 346.156364 174.395963 
L 346.866545 174.764491 
L 347.576727 175.399369 
L 347.931818 175.818468 
L 348.286909 176.000312 
L 348.642 175.418914 
L 349.352182 175.016636 
L 350.417455 174.59196 
L 351.837818 174.301801 
L 353.258182 174.278394 
L 356.454 174.471694 
L 357.874364 174.232505 
L 359.294727 173.649932 
L 360.715091 172.770553 
L 363.555818 170.569485 
L 366.396545 168.361367 
L 368.882182 166.625474 
L 373.143273 164.024177 
L 378.824727 161.046499 
L 381.310364 160.022538 
L 383.440909 159.350757 
L 385.926545 158.820573 
L 388.412182 158.535788 
L 391.608 158.402675 
L 396.579273 158.206103 
L 399.064909 157.885329 
L 401.550545 157.322671 
L 404.036182 156.538043 
L 408.297273 154.89344 
L 412.913455 153.15529 
L 416.109273 152.177427 
L 419.660182 151.379272 
L 422.856 150.916659 
L 426.762 150.619197 
L 437.059636 150.068292 
L 437.769818 150.51554 
L 438.835091 151.108094 
L 440.255455 152.168884 
L 441.675818 153.569111 
L 443.096182 155.34096 
L 444.516545 157.510993 
L 445.936909 160.108714 
L 447.357273 163.16523 
L 448.777636 166.719993 
L 450.198 170.811236 
L 451.618364 175.480145 
L 453.393818 182.170485 
L 455.169273 189.815031 
L 456.944727 198.376104 
L 459.075273 209.722807 
L 461.916 226.152343 
L 466.532182 252.971975 
L 468.307636 262.076502 
L 469.728 268.420556 
L 471.148364 273.727212 
L 472.213636 276.935289 
L 473.278909 279.420094 
L 473.989091 280.66164 
L 474.699273 281.562432 
L 475.409455 282.120103 
L 476.119636 282.336151 
L 476.829818 282.217317 
L 477.54 281.772602 
L 478.250182 281.012307 
L 478.960364 279.94782 
L 480.025636 277.803219 
L 481.090909 275.040689 
L 481.090909 275.040689 
" style="fill:none;stroke:#1f77b4;stroke-linecap:square;stroke-width:4;"/>
   </g>
   <g id="line2d_12">
    <path clip-path="url(#pf13679f8a0)" d="M 125.644909 275.469086 
L 127.065273 270.824548 
L 128.485636 265.410992 
L 130.261091 257.787743 
L 135.942545 232.378841 
L 137.718 225.860485 
L 139.493455 220.258642 
L 140.913818 216.495945 
L 141.979091 214.246865 
L 143.044364 212.579926 
L 143.754545 211.80968 
L 144.464727 211.297038 
L 145.174909 211.004894 
L 145.885091 210.899106 
L 146.950364 210.971073 
L 149.080909 211.239487 
L 150.146182 211.064671 
L 150.856364 210.754563 
L 151.921636 209.988985 
L 152.986909 208.908335 
L 154.407273 207.085891 
L 155.827636 204.899794 
L 157.248 202.265608 
L 158.313273 199.890838 
L 159.733636 196.069087 
L 161.154 191.513653 
L 165.770182 175.733757 
L 166.835455 172.940681 
L 167.900727 170.751442 
L 168.610909 169.662663 
L 169.321091 168.886962 
L 170.031273 168.43693 
L 170.386364 168.330472 
L 170.741455 168.041573 
L 171.451636 166.455758 
L 173.227091 164.045613 
L 174.647455 162.574632 
L 176.067818 161.421625 
L 177.843273 160.292645 
L 179.973818 159.238214 
L 187.430727 155.904886 
L 190.981636 153.783854 
L 193.112182 152.614699 
L 194.887636 151.911587 
L 196.308 151.596275 
L 197.728364 151.509765 
L 199.148727 151.635303 
L 200.924182 152.021434 
L 208.736182 154.094457 
L 210.511636 154.259763 
L 212.642182 154.272552 
L 215.482909 154.04414 
L 219.388909 153.447084 
L 229.686545 151.574019 
L 234.302727 150.951244 
L 240.694364 150.461724 
L 246.020727 150.464805 
L 249.216545 150.629586 
L 259.159091 151.613754 
L 259.514182 151.770966 
L 260.224364 152.603954 
L 261.644727 154.148307 
L 263.065091 156.042007 
L 264.485455 158.306718 
L 265.905818 160.94825 
L 267.681273 164.80922 
L 269.101636 168.334979 
L 270.877091 173.340455 
L 272.652545 179.033305 
L 274.428 185.451489 
L 276.558545 194.157411 
L 278.689091 203.945795 
L 281.174727 216.599807 
L 284.370545 234.209044 
L 288.276545 255.631223 
L 290.052 264.31796 
L 291.472364 270.403133 
L 292.892727 275.515462 
L 293.958 278.615214 
L 295.023273 281.015694 
L 295.733455 282.21448 
L 296.443636 283.082931 
L 297.153818 283.617715 
L 297.864 283.82192 
L 298.574182 283.699794 
L 299.284364 283.260189 
L 299.994545 282.518014 
L 300.704727 281.486696 
L 301.77 279.429593 
L 302.835273 276.811979 
L 304.255636 272.552535 
L 305.676 267.532423 
L 307.451455 260.379794 
L 309.937091 249.305498 
L 313.843091 231.845413 
L 315.618545 225.032519 
L 317.038909 220.412845 
L 318.459273 216.492649 
L 319.879636 213.253319 
L 320.944909 211.392549 
L 321.655091 210.503833 
L 322.365273 209.911807 
L 323.075455 209.619344 
L 323.785636 209.596347 
L 324.495818 209.788557 
L 325.561091 210.33299 
L 327.336545 211.316736 
L 328.046727 211.517984 
L 328.756909 211.512179 
L 329.467091 211.249684 
L 330.177273 210.684989 
L 330.887455 209.795025 
L 331.597636 208.569455 
L 332.662909 206.11468 
L 333.728182 203.027465 
L 335.148545 198.197851 
L 340.474909 179.010309 
L 341.895273 174.91063 
L 342.960545 172.325305 
L 344.380909 169.61289 
L 345.446182 168.177323 
L 346.156364 167.523858 
L 346.866545 167.125664 
L 347.576727 166.994163 
L 347.931818 167.032321 
L 348.286909 166.870115 
L 348.642 166.044416 
L 349.352182 165.095876 
L 350.417455 163.907213 
L 351.837818 162.709769 
L 352.903091 162.095559 
L 353.968364 161.704629 
L 355.033636 161.55597 
L 356.098909 161.615216 
L 357.519273 162.002861 
L 359.649818 162.978905 
L 361.425273 163.759471 
L 362.845636 164.077867 
L 363.910909 164.062305 
L 364.976182 163.830743 
L 366.396545 163.191198 
L 367.816909 162.241953 
L 369.947455 160.408202 
L 374.208545 156.111406 
L 376.694182 153.68709 
L 378.824727 151.850406 
L 380.955273 150.312242 
L 382.730727 149.280585 
L 384.506182 148.478923 
L 386.281636 147.897082 
L 388.057091 147.523349 
L 390.187636 147.32174 
L 392.318182 147.353588 
L 394.803818 147.624104 
L 397.999636 148.241298 
L 402.970909 149.478668 
L 409.007455 150.947715 
L 413.268545 151.747842 
L 417.174545 152.247605 
L 420.725455 152.505434 
L 424.631455 152.592823 
L 429.957818 152.45848 
L 436.349455 152.064757 
L 436.704545 152.034631 
L 437.059636 152.120384 
L 437.769818 152.824858 
L 438.835091 153.750062 
L 440.255455 155.295925 
L 441.675818 157.211973 
L 443.096182 159.522228 
L 444.516545 162.243203 
L 445.936909 165.391465 
L 447.357273 168.982734 
L 449.132727 174.132542 
L 450.908182 180.054265 
L 452.683636 186.784995 
L 454.459091 194.344027 
L 456.589636 204.470882 
L 459.075273 217.549431 
L 462.981273 239.722145 
L 466.177091 257.331243 
L 467.952545 265.971592 
L 469.372909 271.934649 
L 470.793273 276.84808 
L 471.858545 279.745145 
L 472.923818 281.912743 
L 473.634 282.936645 
L 474.344182 283.617835 
L 475.054364 283.956935 
L 475.764545 283.956867 
L 476.474727 283.625851 
L 477.184909 282.976249 
L 477.895091 282.021762 
L 478.960364 280.052171 
L 480.025636 277.49319 
L 481.090909 274.40499 
L 481.090909 274.40499 
" style="fill:none;stroke:#ff7f0e;stroke-linecap:square;stroke-width:4;"/>
   </g>
   <g id="line2d_13">
    <path clip-path="url(#pf13679f8a0)" d="M 125.644909 277.000661 
L 127.065273 273.172312 
L 128.840727 267.60849 
L 130.971273 260.031698 
L 133.456909 250.26312 
L 136.652727 237.632329 
L 138.428182 231.599825 
L 141.268909 223.098113 
L 143.754545 216.035384 
L 145.174909 212.64068 
L 146.240182 210.669901 
L 147.305455 209.19883 
L 148.370727 208.08915 
L 151.921636 204.758119 
L 152.986909 203.35181 
L 154.052182 201.646426 
L 155.472545 198.87291 
L 156.892909 195.597325 
L 159.023455 190.080215 
L 164.349818 175.450222 
L 168.610909 163.588611 
L 170.031273 160.354606 
L 170.741455 158.787236 
L 171.451636 155.908487 
L 173.582182 149.285995 
L 175.002545 145.611954 
L 176.422909 142.555923 
L 177.843273 140.090676 
L 179.263636 138.148856 
L 180.328909 137.020771 
L 181.394182 136.152957 
L 182.459455 135.529534 
L 183.524727 135.136693 
L 184.59 134.956707 
L 185.655273 134.975583 
L 186.720545 135.167973 
L 188.140909 135.663368 
L 189.561273 136.371632 
L 191.691818 137.716517 
L 201.634364 144.478314 
L 204.475091 145.998004 
L 207.315818 147.303532 
L 210.511636 148.54949 
L 214.417636 149.826073 
L 219.744 151.315721 
L 227.911091 153.355577 
L 231.817091 154.104939 
L 235.368 154.567341 
L 240.339273 154.846901 
L 248.151273 154.736786 
L 252.767455 154.610416 
L 259.159091 154.645056 
L 259.514182 154.786285 
L 260.224364 155.633818 
L 261.644727 157.170534 
L 263.065091 159.049912 
L 264.485455 161.288542 
L 265.905818 163.901637 
L 267.681273 167.720065 
L 269.101636 171.221188 
L 270.877091 176.189956 
L 272.652545 181.83899 
L 274.428 188.202085 
L 276.558545 196.808411 
L 278.689091 206.435879 
L 281.174727 218.817972 
L 284.725636 237.865726 
L 288.276545 256.634004 
L 290.052 265.026868 
L 291.472364 270.906695 
L 292.892727 275.848576 
L 293.958 278.853822 
L 295.023273 281.196767 
L 295.733455 282.379514 
L 296.443636 283.251943 
L 297.153818 283.814131 
L 297.864 284.066989 
L 298.574182 284.016651 
L 299.284364 283.674633 
L 299.994545 283.054943 
L 300.704727 282.175022 
L 301.77 280.402938 
L 302.835273 278.141674 
L 304.255636 274.476764 
L 305.676 270.192495 
L 307.451455 264.125206 
L 309.582 256.027522 
L 314.553273 236.483964 
L 316.328727 230.685279 
L 322.010182 213.610666 
L 323.075455 211.261237 
L 323.785636 210.079426 
L 324.495818 209.198803 
L 325.206 208.5753 
L 326.271273 208.024971 
L 327.336545 207.752444 
L 330.177273 207.204975 
L 331.242545 206.625401 
L 331.952727 206.010441 
L 332.662909 205.165815 
L 333.373091 204.063752 
L 334.438364 201.858797 
L 335.503636 198.98932 
L 336.568909 195.504577 
L 337.989273 190.092443 
L 340.474909 179.498307 
L 343.315636 167.608234 
L 345.091091 161.181597 
L 346.511455 156.929813 
L 347.576727 154.401092 
L 348.286909 152.784543 
L 348.997091 149.899074 
L 350.772545 144.436556 
L 351.837818 141.695179 
L 352.903091 139.438858 
L 353.968364 137.657448 
L 355.033636 136.365111 
L 355.743818 135.748468 
L 356.454 135.315611 
L 357.164182 135.050882 
L 357.874364 134.937119 
L 358.939636 135.004979 
L 360.36 135.467262 
L 362.135455 136.452239 
L 364.266 137.92087 
L 368.172 140.543985 
L 369.947455 141.496867 
L 372.078 142.367389 
L 374.563636 143.047763 
L 376.694182 143.413584 
L 379.534909 143.687231 
L 385.216364 144.195586 
L 387.702 144.677598 
L 389.832545 145.282814 
L 392.673273 146.37232 
L 395.869091 147.878252 
L 402.970909 151.335665 
L 405.811636 152.435056 
L 408.652364 153.293074 
L 411.493091 153.913558 
L 414.333818 154.326676 
L 417.884727 154.598396 
L 422.145818 154.683976 
L 434.218909 154.829238 
L 436.704545 154.995795 
L 437.059636 155.150236 
L 437.769818 156.033402 
L 438.835091 157.197547 
L 440.255455 159.050778 
L 441.675818 161.248778 
L 443.096182 163.807006 
L 444.871636 167.53017 
L 446.647091 171.857909 
L 448.422545 176.821863 
L 450.198 182.457863 
L 451.973455 188.7976 
L 454.104 197.364971 
L 456.234545 206.965743 
L 458.720182 219.339449 
L 461.916 236.441186 
L 465.822 257.119671 
L 467.597455 265.485412 
L 469.017818 271.326903 
L 470.438182 276.21845 
L 471.503455 279.171611 
L 472.568727 281.461382 
L 473.278909 282.603876 
L 473.989091 283.433723 
L 474.699273 283.951159 
L 475.409455 284.158806 
L 476.119636 284.064131 
L 476.829818 283.680264 
L 477.54 283.022466 
L 478.250182 282.107858 
L 479.315455 280.293671 
L 480.380727 278.008292 
L 481.090909 276.257689 
L 481.090909 276.257689 
" style="fill:none;stroke:#2ca02c;stroke-linecap:square;stroke-width:4;"/>
   </g>
   <g id="line2d_14">
    <path clip-path="url(#pf13679f8a0)" d="M 126 280.8 
L 481.090909 280.8 
" style="fill:none;stroke:#000000;stroke-dasharray:3.2,0.8,0.5,0.8;stroke-dashoffset:0;stroke-width:0.5;"/>
   </g>
   <g id="line2d_15">
    <path clip-path="url(#pf13679f8a0)" d="M 303.545455 345.6 
L 303.545455 86.4 
" style="fill:none;stroke:#000000;stroke-dasharray:3.2,0.8,0.5,0.8;stroke-dashoffset:0;stroke-width:0.5;"/>
   </g>
   <g id="patch_3">
    <path d="M 126 345.6 
L 126 86.4 
" style="fill:none;stroke:#000000;stroke-linecap:square;stroke-linejoin:miter;stroke-width:0.8;"/>
   </g>
   <g id="patch_4">
    <path d="M 481.090909 345.6 
L 481.090909 86.4 
" style="fill:none;stroke:#000000;stroke-linecap:square;stroke-linejoin:miter;stroke-width:0.8;"/>
   </g>
   <g id="patch_5">
    <path d="M 126 345.6 
L 481.090909 345.6 
" style="fill:none;stroke:#000000;stroke-linecap:square;stroke-linejoin:miter;stroke-width:0.8;"/>
   </g>
   <g id="patch_6">
    <path d="M 126 86.4 
L 481.090909 86.4 
" style="fill:none;stroke:#000000;stroke-linecap:square;stroke-linejoin:miter;stroke-width:0.8;"/>
   </g>
   <g id="legend_1">
    <g id="line2d_16">
     <path d="M 295.48848 59.55 
L 335.47248 59.55 
" style="fill:none;stroke:#1f77b4;stroke-linecap:square;stroke-width:4;"/>
    </g>
    <g id="line2d_17"/>
    <g id="text_13">
     <!-- $\hat r_1$ = 0.4 -->
     <g transform="translate(351.46608 66.5472)scale(0.19992 -0.19992)">
      <defs>
       <path d="M 17.59375 22.296875 
L 19.203125 25.796875 
Q 22.59375 33.296875 28.59375 39.59375 
Q 32.90625 44.09375 36.5 44.09375 
Q 38.59375 44.09375 39.890625 42.6875 
Q 41.203125 41.296875 41.203125 39 
Q 41.203125 36.703125 39.953125 35.140625 
Q 38.703125 33.59375 36.5 33.59375 
Q 34.59375 33.59375 33 36.203125 
Q 32.203125 37.59375 31.40625 37.59375 
Q 28.703125 37.59375 23.203125 28.203125 
Q 19.796875 22.40625 17.75 17.25 
Q 15.703125 12.09375 12.09375 0 
L 4.5 0 
L 12.59375 29.203125 
Q 14.203125 35.09375 14.203125 37.40625 
Q 14.203125 40 10.40625 40 
Q 9.59375 40 7.296875 39.703125 
L 7.296875 41.40625 
L 22.796875 44.09375 
L 23.09375 43.90625 
z
" id="STIXGeneral-Italic-114"/>
       <path id="STIXGeneral-Regular-32"/>
       <path d="M 63.703125 32 
L 4.796875 32 
L 4.796875 38.59375 
L 63.703125 38.59375 
z
M 63.703125 12 
L 4.796875 12 
L 4.796875 18.59375 
L 63.703125 18.59375 
z
" id="STIXGeneral-Regular-61"/>
      </defs>
      <use transform="translate(45.765625 6.59375)" xlink:href="#STIXGeneral-Regular-770"/>
      <use transform="translate(0 0.703125)" xlink:href="#STIXGeneral-Italic-114"/>
      <use transform="translate(40.443275 -12.525)scale(0.7)" xlink:href="#STIXGeneral-Regular-49"/>
      <use transform="translate(79.852639 0.703125)" xlink:href="#STIXGeneral-Regular-32"/>
      <use transform="translate(104.852624 0.703125)" xlink:href="#STIXGeneral-Regular-61"/>
      <use transform="translate(173.352609 0.703125)" xlink:href="#STIXGeneral-Regular-32"/>
      <use transform="translate(198.352594 0.703125)" xlink:href="#STIXGeneral-Regular-48"/>
      <use transform="translate(248.352578 0.703125)" xlink:href="#STIXGeneral-Regular-46"/>
      <use transform="translate(273.352563 0.703125)" xlink:href="#STIXGeneral-Regular-52"/>
     </g>
    </g>
    <g id="line2d_18">
     <path d="M 456.22416 59.55 
L 496.20816 59.55 
" style="fill:none;stroke:#ff7f0e;stroke-linecap:square;stroke-width:4;"/>
    </g>
    <g id="line2d_19"/>
    <g id="text_14">
     <!-- $\hat r_1$ = 0.5 -->
     <g transform="translate(512.20176 66.5472)scale(0.19992 -0.19992)">
      <use transform="translate(45.765625 6.59375)" xlink:href="#STIXGeneral-Regular-770"/>
      <use transform="translate(0 0.703125)" xlink:href="#STIXGeneral-Italic-114"/>
      <use transform="translate(40.443275 -12.525)scale(0.7)" xlink:href="#STIXGeneral-Regular-49"/>
      <use transform="translate(79.852639 0.703125)" xlink:href="#STIXGeneral-Regular-32"/>
      <use transform="translate(104.852624 0.703125)" xlink:href="#STIXGeneral-Regular-61"/>
      <use transform="translate(173.352609 0.703125)" xlink:href="#STIXGeneral-Regular-32"/>
      <use transform="translate(198.352594 0.703125)" xlink:href="#STIXGeneral-Regular-48"/>
      <use transform="translate(248.352578 0.703125)" xlink:href="#STIXGeneral-Regular-46"/>
      <use transform="translate(273.352563 0.703125)" xlink:href="#STIXGeneral-Regular-53"/>
     </g>
    </g>
    <g id="line2d_20">
     <path d="M 616.95984 59.55 
L 656.94384 59.55 
" style="fill:none;stroke:#2ca02c;stroke-linecap:square;stroke-width:4;"/>
    </g>
    <g id="line2d_21"/>
    <g id="text_15">
     <!-- $\hat r_1$ = 0.6 -->
     <g transform="translate(672.93744 66.5472)scale(0.19992 -0.19992)">
      <defs>
       <path d="M 44.59375 68.40625 
L 44.796875 66.796875 
Q 33 64.90625 25.09375 57.25 
Q 17.203125 49.59375 15.203125 38.296875 
Q 21 42.796875 27.90625 42.796875 
Q 36.703125 42.796875 41.75 37.1875 
Q 46.796875 31.59375 46.796875 21.90625 
Q 46.796875 12.09375 41.703125 5.90625 
Q 35.796875 -1.40625 25.796875 -1.40625 
Q 13.59375 -1.40625 8.09375 8.703125 
Q 3.40625 17.296875 3.40625 27.90625 
Q 3.40625 44.296875 14.296875 55.5 
Q 20.5 61.90625 27.046875 64.546875 
Q 33.59375 67.203125 44.59375 68.40625 
z
M 37.796875 18.796875 
Q 37.796875 38.203125 24.296875 38.203125 
Q 19.296875 38.203125 16 35.546875 
Q 12.703125 32.90625 12.703125 26.59375 
Q 12.703125 14.90625 16.34375 8.15625 
Q 20 1.40625 26.90625 1.40625 
Q 32.203125 1.40625 35 6.15625 
Q 37.796875 10.90625 37.796875 18.796875 
z
" id="STIXGeneral-Regular-54"/>
      </defs>
      <use transform="translate(45.765625 6.59375)" xlink:href="#STIXGeneral-Regular-770"/>
      <use transform="translate(0 0.703125)" xlink:href="#STIXGeneral-Italic-114"/>
      <use transform="translate(40.443275 -12.525)scale(0.7)" xlink:href="#STIXGeneral-Regular-49"/>
      <use transform="translate(79.852639 0.703125)" xlink:href="#STIXGeneral-Regular-32"/>
      <use transform="translate(104.852624 0.703125)" xlink:href="#STIXGeneral-Regular-61"/>
      <use transform="translate(173.352609 0.703125)" xlink:href="#STIXGeneral-Regular-32"/>
      <use transform="translate(198.352594 0.703125)" xlink:href="#STIXGeneral-Regular-48"/>
      <use transform="translate(248.352578 0.703125)" xlink:href="#STIXGeneral-Regular-46"/>
      <use transform="translate(273.352563 0.703125)" xlink:href="#STIXGeneral-Regular-54"/>
     </g>
    </g>
   </g>
  </g>
  <g id="axes_2">
   <g id="patch_7">
    <path d="M 552.109091 345.6 
L 907.2 345.6 
L 907.2 86.4 
L 552.109091 86.4 
z
" style="fill:#ffffff;"/>
   </g>
   <g id="matplotlib.axis_3">
    <g id="xtick_6">
     <g id="line2d_22">
      <g>
       <use style="fill:#ffffff;stroke:#000000;stroke-width:0.8;" x="552.109091" xlink:href="#m26414b71df" y="345.6"/>
      </g>
     </g>
     <g id="text_16">
      <!-- 4.00 -->
      <g transform="translate(531.109091 368.99125)scale(0.24 -0.24)">
       <use xlink:href="#STIXGeneral-Regular-52"/>
       <use x="49.999985" xlink:href="#STIXGeneral-Regular-46"/>
       <use x="74.999969" xlink:href="#STIXGeneral-Regular-48"/>
       <use x="124.999954" xlink:href="#STIXGeneral-Regular-48"/>
      </g>
     </g>
    </g>
    <g id="xtick_7">
     <g id="line2d_23">
      <g>
       <use style="fill:#ffffff;stroke:#000000;stroke-width:0.8;" x="640.881818" xlink:href="#m26414b71df" y="345.6"/>
      </g>
     </g>
     <g id="text_17">
      <!-- 4.25 -->
      <g transform="translate(619.881818 368.99125)scale(0.24 -0.24)">
       <use xlink:href="#STIXGeneral-Regular-52"/>
       <use x="49.999985" xlink:href="#STIXGeneral-Regular-46"/>
       <use x="74.999969" xlink:href="#STIXGeneral-Regular-50"/>
       <use x="124.999954" xlink:href="#STIXGeneral-Regular-53"/>
      </g>
     </g>
    </g>
    <g id="xtick_8">
     <g id="line2d_24">
      <g>
       <use style="fill:#ffffff;stroke:#000000;stroke-width:0.8;" x="729.654545" xlink:href="#m26414b71df" y="345.6"/>
      </g>
     </g>
     <g id="text_18">
      <!-- 4.50 -->
      <g transform="translate(708.654545 368.99125)scale(0.24 -0.24)">
       <use xlink:href="#STIXGeneral-Regular-52"/>
       <use x="49.999985" xlink:href="#STIXGeneral-Regular-46"/>
       <use x="74.999969" xlink:href="#STIXGeneral-Regular-53"/>
       <use x="124.999954" xlink:href="#STIXGeneral-Regular-48"/>
      </g>
     </g>
    </g>
    <g id="xtick_9">
     <g id="line2d_25">
      <g>
       <use style="fill:#ffffff;stroke:#000000;stroke-width:0.8;" x="818.427273" xlink:href="#m26414b71df" y="345.6"/>
      </g>
     </g>
     <g id="text_19">
      <!-- 4.75 -->
      <g transform="translate(797.427273 368.99125)scale(0.24 -0.24)">
       <use xlink:href="#STIXGeneral-Regular-52"/>
       <use x="49.999985" xlink:href="#STIXGeneral-Regular-46"/>
       <use x="74.999969" xlink:href="#STIXGeneral-Regular-55"/>
       <use x="124.999954" xlink:href="#STIXGeneral-Regular-53"/>
      </g>
     </g>
    </g>
    <g id="xtick_10">
     <g id="line2d_26">
      <g>
       <use style="fill:#ffffff;stroke:#000000;stroke-width:0.8;" x="907.2" xlink:href="#m26414b71df" y="345.6"/>
      </g>
     </g>
     <g id="text_20">
      <!-- 5.00 -->
      <g transform="translate(886.2 368.99125)scale(0.24 -0.24)">
       <use xlink:href="#STIXGeneral-Regular-53"/>
       <use x="49.999985" xlink:href="#STIXGeneral-Regular-46"/>
       <use x="74.999969" xlink:href="#STIXGeneral-Regular-48"/>
       <use x="124.999954" xlink:href="#STIXGeneral-Regular-48"/>
      </g>
     </g>
    </g>
    <g id="text_21">
     <!-- $\^t$ -->
     <g transform="translate(726.294545 394.59125)scale(0.24 -0.24)">
      <use transform="translate(39.042969 16.59375)" xlink:href="#STIXGeneral-Regular-770"/>
      <use transform="translate(0 0.203125)" xlink:href="#STIXGeneral-Italic-116"/>
     </g>
    </g>
   </g>
   <g id="matplotlib.axis_4">
    <g id="ytick_6">
     <g id="line2d_27">
      <g>
       <use style="fill:#ffffff;stroke:#000000;stroke-width:0.8;" x="552.109091" xlink:href="#mc00b0c5708" y="345.6"/>
      </g>
     </g>
     <g id="text_22">
      <!-- −1 -->
      <g transform="translate(516.669091 353.795625)scale(0.24 -0.24)">
       <use xlink:href="#STIXGeneral-Regular-8722"/>
       <use x="68.499985" xlink:href="#STIXGeneral-Regular-49"/>
      </g>
     </g>
    </g>
    <g id="ytick_7">
     <g id="line2d_28">
      <g>
       <use style="fill:#ffffff;stroke:#000000;stroke-width:0.8;" x="552.109091" xlink:href="#mc00b0c5708" y="280.8"/>
      </g>
     </g>
     <g id="text_23">
      <!-- 0 -->
      <g transform="translate(533.109091 288.995625)scale(0.24 -0.24)">
       <use xlink:href="#STIXGeneral-Regular-48"/>
      </g>
     </g>
    </g>
    <g id="ytick_8">
     <g id="line2d_29">
      <g>
       <use style="fill:#ffffff;stroke:#000000;stroke-width:0.8;" x="552.109091" xlink:href="#mc00b0c5708" y="216"/>
      </g>
     </g>
     <g id="text_24">
      <!-- 1 -->
      <g transform="translate(533.109091 224.195625)scale(0.24 -0.24)">
       <use xlink:href="#STIXGeneral-Regular-49"/>
      </g>
     </g>
    </g>
    <g id="ytick_9">
     <g id="line2d_30">
      <g>
       <use style="fill:#ffffff;stroke:#000000;stroke-width:0.8;" x="552.109091" xlink:href="#mc00b0c5708" y="151.2"/>
      </g>
     </g>
     <g id="text_25">
      <!-- 2 -->
      <g transform="translate(533.109091 159.395625)scale(0.24 -0.24)">
       <use xlink:href="#STIXGeneral-Regular-50"/>
      </g>
     </g>
    </g>
    <g id="ytick_10">
     <g id="line2d_31">
      <g>
       <use style="fill:#ffffff;stroke:#000000;stroke-width:0.8;" x="552.109091" xlink:href="#mc00b0c5708" y="86.4"/>
      </g>
     </g>
     <g id="text_26">
      <!-- 3 -->
      <g transform="translate(533.109091 94.595625)scale(0.24 -0.24)">
       <use xlink:href="#STIXGeneral-Regular-51"/>
      </g>
     </g>
    </g>
    <g id="text_27">
     <!-- $C_D$ -->
     <g transform="translate(507.460341 230.64)rotate(-90)scale(0.24 -0.24)">
      <defs>
       <path d="M 13.09375 65.296875 
L 40.796875 65.296875 
Q 54.203125 65.296875 62.09375 58.296875 
Q 70 51.296875 70 38.40625 
Q 70 20.703125 54 8.296875 
Q 43.40625 0 24.90625 0 
L -0.796875 0 
L -0.796875 1.59375 
Q 3.5 2.40625 4.84375 3.59375 
Q 6.203125 4.796875 7.40625 9.203125 
L 19.59375 53.703125 
Q 20.703125 57.59375 20.703125 59.59375 
Q 20.703125 61.703125 19.09375 62.640625 
Q 17.5 63.59375 13.09375 63.703125 
z
M 31 58.40625 
L 19.203125 16.203125 
Q 17 8.203125 17 6.703125 
Q 17 3 23.796875 3 
Q 38.59375 3 47.90625 12 
Q 53.09375 17 56 24.953125 
Q 58.90625 32.90625 58.90625 40.796875 
Q 58.90625 52.90625 51.09375 58.796875 
Q 46.40625 62.296875 38 62.296875 
Q 34.796875 62.296875 33.25 61.546875 
Q 31.703125 60.796875 31 58.40625 
z
" id="STIXGeneral-Italic-68"/>
      </defs>
      <use transform="translate(0 0.40625)" xlink:href="#STIXGeneral-Italic-67"/>
      <use transform="translate(66.699997 -12.821875)scale(0.7)" xlink:href="#STIXGeneral-Italic-68"/>
     </g>
    </g>
   </g>
   <g id="line2d_32">
    <path clip-path="url(#p5a1b98ece0)" d="M 551.754 355.512798 
L 552.109091 358.487 
L 552.464182 200.154171 
L 556.370182 168.529316 
L 558.145636 155.357099 
L 559.566 146.414332 
L 560.631273 141.135045 
L 561.341455 138.420954 
L 562.051636 136.384759 
L 562.761818 135.026344 
L 563.472 134.317508 
L 563.827091 134.19197 
L 564.182182 134.213379 
L 564.537273 134.369372 
L 565.247455 135.061826 
L 565.957636 136.21339 
L 566.667818 137.755633 
L 567.733091 140.665225 
L 569.153455 145.342107 
L 573.059455 158.75555 
L 574.479818 162.550137 
L 575.545091 164.776378 
L 576.610364 166.385987 
L 577.320545 167.044049 
L 578.030727 167.327731 
L 578.740909 167.211736 
L 579.451091 166.696339 
L 580.161273 165.810368 
L 580.871455 164.597187 
L 581.936727 162.302924 
L 583.712182 157.761087 
L 586.197818 151.34341 
L 587.618182 148.213471 
L 588.683455 146.267695 
L 589.748727 144.713034 
L 590.814 143.569005 
L 591.879273 142.841835 
L 592.589455 142.590106 
L 593.299636 142.527619 
L 594.009818 142.659102 
L 594.72 142.987944 
L 595.430182 143.532934 
L 596.140364 144.303191 
L 596.495455 144.786367 
L 596.850545 145.012866 
L 597.205636 144.43581 
L 597.915818 143.991093 
L 599.336182 143.27621 
L 600.756545 142.829145 
L 601.821818 142.736557 
L 602.887091 142.866049 
L 604.307455 143.320098 
L 606.438 144.079815 
L 607.503273 144.246206 
L 608.568545 144.190182 
L 609.633818 143.931316 
L 611.054182 143.33879 
L 613.184727 142.1451 
L 618.156 139.228184 
L 620.641636 138.08377 
L 623.127273 137.209331 
L 625.612909 136.562809 
L 628.808727 135.97712 
L 633.069818 135.427093 
L 640.171636 134.733726 
L 647.273455 134.301445 
L 652.954909 133.851916 
L 657.926182 133.204359 
L 664.672909 132.306914 
L 670.354364 131.936708 
L 676.746 132.017876 
L 684.202909 132.410277 
L 685.623273 132.543941 
L 686.688545 133.481737 
L 688.108909 134.839273 
L 689.884364 136.900915 
L 691.659818 139.299882 
L 693.790364 142.557924 
L 695.920909 146.19991 
L 698.051455 150.297122 
L 699.826909 154.153241 
L 701.602364 158.537349 
L 703.377818 163.615639 
L 704.798182 168.283249 
L 706.218545 173.591082 
L 707.638909 179.643935 
L 709.059273 186.528343 
L 710.834727 196.42333 
L 712.610182 207.833259 
L 714.385636 220.76626 
L 716.516182 238.149383 
L 719.001818 260.472503 
L 728.589273 349.39067 
L 729.654545 358.27845 
L 730.009636 200.402702 
L 733.560545 172.200695 
L 735.691091 156.933405 
L 737.111455 148.426851 
L 738.176727 143.359297 
L 738.886909 140.685936 
L 739.597091 138.60632 
L 740.307273 137.122305 
L 741.017455 136.223172 
L 741.372545 135.976761 
L 742.082727 135.898321 
L 742.792909 136.315745 
L 743.503091 137.160485 
L 744.213273 138.391589 
L 745.278545 140.801708 
L 746.698909 144.791479 
L 749.184545 152.69835 
L 750.96 158.085152 
L 752.025273 160.775567 
L 753.090545 162.824406 
L 753.800727 163.760898 
L 754.510909 164.32954 
L 755.221091 164.518998 
L 755.931273 164.340763 
L 756.641455 163.829548 
L 757.351636 163.020314 
L 758.416909 161.371184 
L 759.837273 158.616864 
L 766.228909 145.531027 
L 767.649273 143.481791 
L 768.714545 142.385313 
L 769.424727 141.892424 
L 770.134909 141.599711 
L 770.845091 141.524392 
L 771.555273 141.677052 
L 772.265455 142.06475 
L 772.975636 142.705145 
L 773.685818 143.610202 
L 774.040909 144.166398 
L 774.396 144.476348 
L 774.751091 143.98733 
L 775.461273 143.724571 
L 776.881636 143.35556 
L 778.302 143.14998 
L 780.077455 143.091313 
L 782.918182 143.064496 
L 784.338545 142.854413 
L 785.758909 142.44065 
L 787.534364 141.699164 
L 794.636182 138.328058 
L 797.121818 137.385798 
L 801.382909 136.10027 
L 804.933818 135.307157 
L 808.129636 134.846507 
L 810.970364 134.656374 
L 814.521273 134.65304 
L 821.623091 134.727849 
L 824.818909 134.49374 
L 828.014727 134.020289 
L 833.696182 132.849871 
L 837.957273 132.068473 
L 841.508182 131.647828 
L 844.704 131.470185 
L 848.61 131.495468 
L 853.226182 131.770906 
L 861.748364 132.312103 
L 863.168727 132.414579 
L 864.234 133.315145 
L 865.654364 134.620927 
L 867.429818 136.602563 
L 869.205273 138.919395 
L 871.335818 142.09097 
L 873.466364 145.685227 
L 875.596909 149.77034 
L 877.372364 153.656263 
L 879.147818 158.110771 
L 880.923273 163.277457 
L 882.343636 168.034311 
L 883.764 173.445769 
L 885.184364 179.603294 
L 886.604727 186.594109 
L 888.380182 196.60775 
L 890.155636 208.117033 
L 891.931091 221.121749 
L 894.061636 238.561415 
L 896.547273 260.90183 
L 906.134727 349.523179 
L 906.844909 355.445883 
L 907.2 203.227691 
L 907.2 203.227691 
" style="fill:none;stroke:#1f77b4;stroke-linecap:square;stroke-width:4;"/>
   </g>
   <g id="line2d_33">
    <path clip-path="url(#p5a1b98ece0)" d="M 551.754 364.763212 
L 552.109091 367.323551 
L 552.464182 191.749942 
L 555.304909 172.570331 
L 557.790545 157.024847 
L 559.210909 149.230367 
L 560.276182 144.386247 
L 561.341455 140.688023 
L 562.051636 138.929734 
L 562.761818 137.743528 
L 563.472 137.108774 
L 563.827091 136.98087 
L 564.537273 137.072283 
L 565.247455 137.567074 
L 565.957636 138.406429 
L 566.667818 139.544182 
L 567.733091 141.753321 
L 568.798364 144.477831 
L 570.218727 148.729322 
L 574.124727 161.063658 
L 575.19 163.659341 
L 576.255273 165.644217 
L 576.965455 166.584563 
L 577.675636 167.223468 
L 578.385818 167.587897 
L 579.096 167.709954 
L 579.806182 167.626747 
L 580.516364 167.372501 
L 581.581636 166.716229 
L 582.646909 165.744668 
L 583.712182 164.450775 
L 584.777455 162.78922 
L 585.842727 160.739967 
L 587.263091 157.47432 
L 591.169091 147.926613 
L 592.234364 145.929323 
L 593.299636 144.427654 
L 594.009818 143.743235 
L 594.72 143.33561 
L 595.430182 143.219209 
L 596.140364 143.409182 
L 596.495455 143.618097 
L 596.850545 143.630996 
L 597.205636 142.951243 
L 597.915818 142.265623 
L 599.336182 141.168841 
L 600.756545 140.321807 
L 602.532 139.522422 
L 604.662545 138.809106 
L 607.503273 138.101743 
L 613.184727 136.741756 
L 617.090727 135.447057 
L 619.576364 134.711386 
L 621.351818 134.412453 
L 623.127273 134.385906 
L 624.902727 134.636758 
L 626.678182 135.114725 
L 630.229091 136.384914 
L 633.069818 137.300733 
L 635.555455 137.841417 
L 637.686 138.093785 
L 640.171636 138.176319 
L 643.367455 138.034537 
L 647.983636 137.55439 
L 656.505818 136.612141 
L 661.122 136.338499 
L 667.513636 136.372493 
L 673.550182 136.879864 
L 676.746 137.298675 
L 685.268182 138.691737 
L 685.623273 138.878729 
L 686.333455 139.832122 
L 687.753818 141.637991 
L 689.529273 144.287139 
L 691.659818 147.926454 
L 693.790364 151.977902 
L 695.920909 156.387941 
L 698.406545 162.076936 
L 700.537091 167.550634 
L 702.312545 172.703387 
L 704.088 178.564108 
L 705.508364 183.865342 
L 707.283818 191.435773 
L 709.059273 200.211034 
L 710.834727 210.351583 
L 712.610182 221.929676 
L 714.385636 234.932858 
L 716.516182 252.23827 
L 719.356909 277.526604 
L 725.748545 335.441206 
L 727.879091 352.528222 
L 729.654545 365.438485 
L 730.009636 193.718264 
L 732.140182 179.797362 
L 734.625818 165.060515 
L 736.401273 155.573839 
L 737.821636 148.977098 
L 738.886909 144.9118 
L 739.952182 141.745478 
L 740.662364 140.225824 
L 741.372545 139.198807 
L 742.082727 138.666364 
L 742.792909 138.606246 
L 743.503091 138.95481 
L 744.213273 139.648125 
L 744.923455 140.623437 
L 745.988727 142.522034 
L 747.054 144.866959 
L 748.474364 148.647958 
L 750.604909 155.234624 
L 752.380364 160.598703 
L 753.445636 163.328062 
L 754.510909 165.478876 
L 755.221091 166.517567 
L 755.931273 167.21514 
L 756.641455 167.55834 
L 757.351636 167.542576 
L 758.061818 167.179011 
L 758.772 166.493684 
L 759.482182 165.532655 
L 760.547455 163.655927 
L 762.322909 159.80986 
L 765.873818 151.785506 
L 767.294182 149.144839 
L 768.359455 147.530963 
L 769.424727 146.304566 
L 770.134909 145.67691 
L 770.845091 145.249163 
L 771.555273 145.027781 
L 772.265455 145.014119 
L 772.975636 145.223026 
L 773.685818 145.666778 
L 774.040909 145.982061 
L 774.396 146.080398 
L 774.751091 145.474992 
L 775.461273 144.899257 
L 777.236727 143.677609 
L 779.012182 142.749639 
L 780.432545 142.23023 
L 781.497818 141.98238 
L 782.918182 141.871161 
L 784.693636 142.043937 
L 788.954727 142.65472 
L 790.375091 142.468244 
L 791.795455 142.006826 
L 793.570909 141.107007 
L 795.346364 139.977535 
L 802.803273 134.750925 
L 804.933818 133.592715 
L 807.064364 132.699214 
L 809.194909 132.077786 
L 811.325455 131.718961 
L 813.456 131.593091 
L 815.941636 131.702643 
L 818.427273 132.029378 
L 821.623091 132.679399 
L 826.239273 133.875522 
L 835.826727 136.454339 
L 840.798 137.524983 
L 845.414182 138.264685 
L 849.675273 138.725774 
L 854.291455 139.022354 
L 861.393273 139.209304 
L 862.813636 139.220126 
L 863.168727 139.34393 
L 863.878909 140.186678 
L 865.299273 141.761947 
L 867.074727 144.135855 
L 868.850182 146.875885 
L 870.980727 150.581247 
L 873.111273 154.708052 
L 875.241818 159.300353 
L 877.372364 164.471689 
L 879.147818 169.364152 
L 880.923273 174.939001 
L 882.698727 181.365268 
L 884.474182 188.826292 
L 886.249636 197.509918 
L 888.025091 207.555088 
L 889.800545 219.059085 
L 891.576 232.02596 
L 893.706545 249.392734 
L 896.192182 271.616869 
L 903.649091 340.182357 
L 905.779636 357.206106 
L 906.844909 365.074091 
L 907.2 193.989147 
L 907.2 193.989147 
" style="fill:none;stroke:#ff7f0e;stroke-linecap:square;stroke-width:4;"/>
   </g>
   <g id="line2d_34">
    <path clip-path="url(#p5a1b98ece0)" d="M 551.754 356.980757 
L 552.109091 359.101309 
L 552.464182 200.432581 
L 554.239636 190.877917 
L 556.370182 180.799902 
L 558.855818 170.302883 
L 560.631273 163.564537 
L 562.051636 159.021005 
L 563.116909 156.40801 
L 563.827091 155.11907 
L 564.537273 154.18487 
L 565.247455 153.556178 
L 565.957636 153.165494 
L 567.022909 152.880464 
L 568.088182 152.838592 
L 569.153455 153.039872 
L 569.863636 153.357512 
L 570.573818 153.868225 
L 571.284 154.604089 
L 572.349273 156.125949 
L 573.769636 158.690033 
L 575.900182 162.51176 
L 576.965455 163.977877 
L 578.030727 164.992928 
L 578.740909 165.390178 
L 579.451091 165.566979 
L 580.161273 165.52011 
L 580.871455 165.265433 
L 581.581636 164.814278 
L 582.646909 163.809132 
L 583.712182 162.47974 
L 585.132545 160.341599 
L 587.263091 156.696406 
L 590.458909 150.773885 
L 594.009818 144.121302 
L 595.075091 142.488565 
L 596.140364 141.263914 
L 596.495455 140.979293 
L 596.850545 140.467523 
L 597.560727 138.290465 
L 599.691273 133.553409 
L 601.111636 130.95176 
L 602.532 128.815132 
L 603.952364 127.130978 
L 605.017636 126.135344 
L 606.082909 125.373851 
L 607.148182 124.829284 
L 608.213455 124.49304 
L 609.278727 124.350528 
L 610.699091 124.442434 
L 612.119455 124.816077 
L 613.539818 125.424224 
L 615.315273 126.43424 
L 617.800909 128.140337 
L 624.547636 132.951974 
L 627.743455 134.904157 
L 630.939273 136.600571 
L 634.490182 138.209692 
L 638.041091 139.553737 
L 641.947091 140.768986 
L 646.563273 141.933341 
L 651.889636 143.049946 
L 656.505818 143.797888 
L 660.766909 144.25421 
L 667.158545 144.539865 
L 675.325636 144.608571 
L 685.268182 145.059737 
L 685.623273 145.224657 
L 686.333455 146.174395 
L 687.753818 147.925273 
L 689.529273 150.477153 
L 691.659818 153.966341 
L 693.790364 157.838952 
L 695.920909 162.065543 
L 698.406545 167.519078 
L 700.537091 172.776456 
L 702.312545 177.724221 
L 704.088 183.347706 
L 705.508364 188.436382 
L 707.283818 195.700382 
L 709.059273 204.116136 
L 710.834727 213.809125 
L 712.610182 224.860216 
L 714.385636 237.267826 
L 716.516182 253.761445 
L 719.356909 277.726649 
L 725.038364 326.104547 
L 727.168909 342.108057 
L 729.299455 356.176973 
L 729.654545 358.324059 
L 730.009636 201.181409 
L 731.785091 191.439622 
L 733.560545 182.761232 
L 735.691091 173.432813 
L 737.466545 166.468926 
L 738.886909 161.679016 
L 739.952182 158.777175 
L 741.017455 156.664542 
L 741.727636 155.681785 
L 742.437818 154.986655 
L 743.503091 154.326057 
L 744.923455 153.791665 
L 746.343818 153.467136 
L 747.054 153.484321 
L 747.764182 153.700762 
L 748.474364 154.169957 
L 749.184545 154.932218 
L 750.249818 156.564293 
L 751.670182 159.347907 
L 754.155818 164.407506 
L 755.576182 166.759731 
L 756.641455 168.05715 
L 757.351636 168.662026 
L 758.061818 169.020669 
L 758.772 169.106961 
L 759.482182 168.901414 
L 760.192364 168.375576 
L 760.902545 167.528633 
L 761.612727 166.383304 
L 762.678 164.153615 
L 764.098364 160.441292 
L 766.584 152.950315 
L 768.714545 146.652049 
L 770.134909 142.979521 
L 771.555273 139.967123 
L 772.620545 138.246035 
L 773.685818 137.074519 
L 774.040909 136.817037 
L 774.396 136.339909 
L 775.106182 134.23312 
L 777.236727 129.713383 
L 778.657091 127.303941 
L 779.722364 125.89195 
L 780.787636 124.812649 
L 781.852909 124.089942 
L 782.918182 123.677787 
L 783.983455 123.57319 
L 785.048727 123.709676 
L 786.469091 124.218964 
L 788.244545 125.223841 
L 790.375091 126.698921 
L 794.991273 129.813247 
L 796.766727 130.775262 
L 799.252364 131.82753 
L 801.382909 132.526263 
L 804.223636 133.247057 
L 812.745818 135.25438 
L 818.072182 137.101738 
L 830.500364 141.833779 
L 833.696182 142.670177 
L 837.247091 143.354071 
L 841.153091 143.865686 
L 845.769273 144.246188 
L 860.328 145.245403 
L 862.813636 145.504898 
L 863.168727 145.67747 
L 863.878909 146.651432 
L 865.299273 148.437378 
L 867.074727 151.030602 
L 869.205273 154.548132 
L 871.690909 159.112545 
L 874.176545 164.151385 
L 876.307091 168.928768 
L 878.437636 174.288996 
L 880.213091 179.359472 
L 881.988545 185.142221 
L 883.764 191.823024 
L 885.539455 199.582265 
L 887.314909 208.574864 
L 889.090364 218.89544 
L 890.865818 230.604398 
L 892.996364 246.403459 
L 895.482 266.777147 
L 903.294 332.88903 
L 905.424545 348.043652 
L 906.844909 356.985421 
L 907.2 202.527616 
L 907.2 202.527616 
" style="fill:none;stroke:#2ca02c;stroke-linecap:square;stroke-width:4;"/>
   </g>
   <g id="line2d_35">
    <path clip-path="url(#p5a1b98ece0)" d="M 552.109091 280.8 
L 907.2 280.8 
" style="fill:none;stroke:#000000;stroke-dasharray:3.2,0.8,0.5,0.8;stroke-dashoffset:0;stroke-width:0.5;"/>
   </g>
   <g id="line2d_36">
    <path clip-path="url(#p5a1b98ece0)" d="M 729.654545 345.6 
L 729.654545 86.4 
" style="fill:none;stroke:#000000;stroke-dasharray:3.2,0.8,0.5,0.8;stroke-dashoffset:0;stroke-width:0.5;"/>
   </g>
   <g id="patch_8">
    <path d="M 552.109091 345.6 
L 552.109091 86.4 
" style="fill:none;stroke:#000000;stroke-linecap:square;stroke-linejoin:miter;stroke-width:0.8;"/>
   </g>
   <g id="patch_9">
    <path d="M 907.2 345.6 
L 907.2 86.4 
" style="fill:none;stroke:#000000;stroke-linecap:square;stroke-linejoin:miter;stroke-width:0.8;"/>
   </g>
   <g id="patch_10">
    <path d="M 552.109091 345.6 
L 907.2 345.6 
" style="fill:none;stroke:#000000;stroke-linecap:square;stroke-linejoin:miter;stroke-width:0.8;"/>
   </g>
   <g id="patch_11">
    <path d="M 552.109091 86.4 
L 907.2 86.4 
" style="fill:none;stroke:#000000;stroke-linecap:square;stroke-linejoin:miter;stroke-width:0.8;"/>
   </g>
  </g>
 </g>
 <defs>
  <clipPath id="pf13679f8a0">
   <rect height="259.2" width="355.090909" x="126" y="86.4"/>
  </clipPath>
  <clipPath id="p5a1b98ece0">
   <rect height="259.2" width="355.090909" x="552.109091" y="86.4"/>
  </clipPath>
 </defs>
</svg>
