<?xml version="1.0" encoding="utf-8" standalone="no"?>
<!DOCTYPE svg PUBLIC "-//W3C//DTD SVG 1.1//EN"
  "http://www.w3.org/Graphics/SVG/1.1/DTD/svg11.dtd">
<!-- Created with matplotlib (https://matplotlib.org/) -->
<svg height="432pt" version="1.1" viewBox="0 0 1008 432" width="1008pt" xmlns="http://www.w3.org/2000/svg" xmlns:xlink="http://www.w3.org/1999/xlink">
 <metadata>
  <rdf:RDF xmlns:cc="http://creativecommons.org/ns#" xmlns:dc="http://purl.org/dc/elements/1.1/" xmlns:rdf="http://www.w3.org/1999/02/22-rdf-syntax-ns#">
   <cc:Work>
    <dc:type rdf:resource="http://purl.org/dc/dcmitype/StillImage"/>
    <dc:date>2022-01-13T10:11:24.234143</dc:date>
    <dc:format>image/svg+xml</dc:format>
    <dc:creator>
     <cc:Agent>
      <dc:title>Matplotlib v3.3.4, https://matplotlib.org/</dc:title>
     </cc:Agent>
    </dc:creator>
   </cc:Work>
  </rdf:RDF>
 </metadata>
 <defs>
  <style type="text/css">*{stroke-linecap:butt;stroke-linejoin:round;}</style>
 </defs>
 <g id="figure_1">
  <g id="patch_1">
   <path d="M 0 432 
L 1008 432 
L 1008 0 
L 0 0 
z
" style="fill:#ffffff;"/>
  </g>
  <g id="axes_1">
   <g id="patch_2">
    <path d="M 126 345.6 
L 481.090909 345.6 
L 481.090909 86.4 
L 126 86.4 
z
" style="fill:#ffffff;"/>
   </g>
   <g id="matplotlib.axis_1">
    <g id="xtick_1">
     <g id="line2d_1">
      <defs>
       <path d="M 0 0 
L 0 3.5 
" id="m8eb1ed691c" style="stroke:#000000;stroke-width:0.8;"/>
      </defs>
      <g>
       <use style="fill:#ffffff;stroke:#000000;stroke-width:0.8;" x="126" xlink:href="#m8eb1ed691c" y="345.6"/>
      </g>
     </g>
     <g id="text_1">
      <!-- 4.00 -->
      <g transform="translate(105 368.99125)scale(0.24 -0.24)">
       <defs>
        <path d="M 47.296875 16.703125 
L 37 16.703125 
L 37 0 
L 29.203125 0 
L 29.203125 16.703125 
L 1.203125 16.703125 
L 1.203125 23.09375 
L 32.59375 67.59375 
L 37 67.59375 
L 37 23.09375 
L 47.296875 23.09375 
z
M 29.203125 23.09375 
L 29.203125 57.40625 
L 5.203125 23.09375 
z
" id="STIXGeneral-Regular-52"/>
        <path d="M 18.09375 4.296875 
Q 18.09375 2.09375 16.4375 0.5 
Q 14.796875 -1.09375 12.5 -1.09375 
Q 10.203125 -1.09375 8.59375 0.5 
Q 7 2.09375 7 4.390625 
Q 7 6.703125 8.640625 8.34375 
Q 10.296875 10 12.59375 10 
Q 14.796875 10 16.4375 8.296875 
Q 18.09375 6.59375 18.09375 4.296875 
z
" id="STIXGeneral-Regular-46"/>
        <path d="M 47.59375 33 
Q 47.59375 26.296875 46.296875 20.34375 
Q 45 14.40625 42.453125 9.40625 
Q 39.90625 4.40625 35.40625 1.5 
Q 30.90625 -1.40625 25 -1.40625 
Q 18.90625 -1.40625 14.296875 1.6875 
Q 9.703125 4.796875 7.203125 10 
Q 4.703125 15.203125 3.546875 21.09375 
Q 2.40625 27 2.40625 33.59375 
Q 2.40625 42.90625 4.703125 50.34375 
Q 7 57.796875 12.34375 62.6875 
Q 17.703125 67.59375 25.40625 67.59375 
Q 35.203125 67.59375 41.390625 58 
Q 47.59375 48.40625 47.59375 33 
z
M 38 32.5 
Q 38 48.296875 34.640625 56.640625 
Q 31.296875 65 24.796875 65 
Q 18.59375 65 15.296875 56.59375 
Q 12 48.203125 12 32.90625 
Q 12 17.5 15.296875 9.34375 
Q 18.59375 1.203125 25 1.203125 
Q 31.296875 1.203125 34.640625 9.34375 
Q 38 17.5 38 32.5 
z
" id="STIXGeneral-Regular-48"/>
       </defs>
       <use xlink:href="#STIXGeneral-Regular-52"/>
       <use x="49.999985" xlink:href="#STIXGeneral-Regular-46"/>
       <use x="74.999969" xlink:href="#STIXGeneral-Regular-48"/>
       <use x="124.999954" xlink:href="#STIXGeneral-Regular-48"/>
      </g>
     </g>
    </g>
    <g id="xtick_2">
     <g id="line2d_2">
      <g>
       <use style="fill:#ffffff;stroke:#000000;stroke-width:0.8;" x="214.772727" xlink:href="#m8eb1ed691c" y="345.6"/>
      </g>
     </g>
     <g id="text_2">
      <!-- 4.25 -->
      <g transform="translate(193.772727 368.99125)scale(0.24 -0.24)">
       <defs>
        <path d="M 47.40625 13.703125 
L 42 0 
L 2.90625 0 
L 2.90625 1.203125 
L 20.703125 20.09375 
Q 27.703125 27.40625 30.703125 33.5 
Q 33.703125 39.59375 33.703125 46.09375 
Q 33.703125 52.796875 30 56.5 
Q 26.296875 60.203125 19.796875 60.203125 
Q 14.40625 60.203125 11.25 57.390625 
Q 8.09375 54.59375 5.09375 47.203125 
L 3 47.703125 
Q 4.703125 57 9.84375 62.296875 
Q 15 67.59375 23.796875 67.59375 
Q 32.09375 67.59375 37.1875 62.59375 
Q 42.296875 57.59375 42.296875 50 
Q 42.296875 38.703125 29.5 25.203125 
L 13 7.59375 
L 36.40625 7.59375 
Q 39.703125 7.59375 41.640625 8.890625 
Q 43.59375 10.203125 46 14.296875 
z
" id="STIXGeneral-Regular-50"/>
        <path d="M 43.796875 68.09375 
L 40.203125 59.59375 
Q 39.59375 58.296875 37.5 58.296875 
L 18.09375 58.296875 
L 14.09375 49.796875 
Q 25.09375 47.703125 30 45.25 
Q 34.90625 42.796875 39.09375 37 
Q 42.59375 32.203125 42.59375 24.296875 
Q 42.59375 17.09375 40.25 12.1875 
Q 37.90625 7.296875 32.796875 3.5 
Q 26 -1.40625 15.796875 -1.40625 
Q 10.09375 -1.40625 6.59375 0.296875 
Q 3.09375 2 3.09375 4.796875 
Q 3.09375 8.59375 7.59375 8.59375 
Q 11.203125 8.59375 15 5.5 
Q 18.90625 2.296875 22.09375 2.296875 
Q 27.296875 2.296875 31.4375 7.5 
Q 35.59375 12.703125 35.59375 19.203125 
Q 35.59375 28.796875 28.90625 34.203125 
Q 20.203125 41.203125 7.59375 41.203125 
Q 6.40625 41.203125 6.40625 42 
L 6.5 42.5 
L 17.40625 66.203125 
L 38.09375 66.203125 
Q 39.796875 66.203125 40.75 66.703125 
Q 41.703125 67.203125 42.90625 68.796875 
z
" id="STIXGeneral-Regular-53"/>
       </defs>
       <use xlink:href="#STIXGeneral-Regular-52"/>
       <use x="49.999985" xlink:href="#STIXGeneral-Regular-46"/>
       <use x="74.999969" xlink:href="#STIXGeneral-Regular-50"/>
       <use x="124.999954" xlink:href="#STIXGeneral-Regular-53"/>
      </g>
     </g>
    </g>
    <g id="xtick_3">
     <g id="line2d_3">
      <g>
       <use style="fill:#ffffff;stroke:#000000;stroke-width:0.8;" x="303.545455" xlink:href="#m8eb1ed691c" y="345.6"/>
      </g>
     </g>
     <g id="text_3">
      <!-- 4.50 -->
      <g transform="translate(282.545455 368.99125)scale(0.24 -0.24)">
       <use xlink:href="#STIXGeneral-Regular-52"/>
       <use x="49.999985" xlink:href="#STIXGeneral-Regular-46"/>
       <use x="74.999969" xlink:href="#STIXGeneral-Regular-53"/>
       <use x="124.999954" xlink:href="#STIXGeneral-Regular-48"/>
      </g>
     </g>
    </g>
    <g id="xtick_4">
     <g id="line2d_4">
      <g>
       <use style="fill:#ffffff;stroke:#000000;stroke-width:0.8;" x="392.318182" xlink:href="#m8eb1ed691c" y="345.6"/>
      </g>
     </g>
     <g id="text_4">
      <!-- 4.75 -->
      <g transform="translate(371.318182 368.99125)scale(0.24 -0.24)">
       <defs>
        <path d="M 44.90625 64.59375 
L 23.703125 -0.796875 
L 17.203125 -0.796875 
L 37 58.796875 
L 15.5 58.796875 
Q 11.203125 58.796875 9.09375 57.296875 
Q 7 55.796875 3.796875 50.59375 
L 2 51.5 
L 8 66.203125 
L 44.90625 66.203125 
z
" id="STIXGeneral-Regular-55"/>
       </defs>
       <use xlink:href="#STIXGeneral-Regular-52"/>
       <use x="49.999985" xlink:href="#STIXGeneral-Regular-46"/>
       <use x="74.999969" xlink:href="#STIXGeneral-Regular-55"/>
       <use x="124.999954" xlink:href="#STIXGeneral-Regular-53"/>
      </g>
     </g>
    </g>
    <g id="xtick_5">
     <g id="line2d_5">
      <g>
       <use style="fill:#ffffff;stroke:#000000;stroke-width:0.8;" x="481.090909" xlink:href="#m8eb1ed691c" y="345.6"/>
      </g>
     </g>
     <g id="text_5">
      <!-- 5.00 -->
      <g transform="translate(460.090909 368.99125)scale(0.24 -0.24)">
       <use xlink:href="#STIXGeneral-Regular-53"/>
       <use x="49.999985" xlink:href="#STIXGeneral-Regular-46"/>
       <use x="74.999969" xlink:href="#STIXGeneral-Regular-48"/>
       <use x="124.999954" xlink:href="#STIXGeneral-Regular-48"/>
      </g>
     </g>
    </g>
    <g id="text_6">
     <!-- $\^t$ -->
     <g transform="translate(300.185455 394.59125)scale(0.24 -0.24)">
      <defs>
       <path d="M -7.5 50.703125 
L -10.90625 50.703125 
L -23.09375 61 
L -35.203125 50.703125 
L -38.59375 50.703125 
L -26.203125 67.40625 
L -20 67.40625 
z
" id="STIXGeneral-Regular-770"/>
       <path d="M 29.59375 42.796875 
L 29.09375 39.59375 
L 20.703125 39.59375 
L 12 6.796875 
Q 11.796875 6 11.796875 5.40625 
Q 11.796875 3.796875 13.296875 3.796875 
Q 14.5 3.796875 16.09375 5.34375 
Q 17.703125 6.90625 21.40625 11.703125 
L 22.703125 11 
Q 18.09375 4 15.140625 1.453125 
Q 12.203125 -1.09375 8.40625 -1.09375 
Q 3.796875 -1.09375 3.796875 2.59375 
Q 3.796875 3.59375 5.40625 10 
L 13.203125 39.59375 
L 5.703125 39.59375 
L 5.59375 40.203125 
Q 5.59375 42 8.90625 42.703125 
Q 11.40625 43.296875 15.5 46.546875 
Q 19.59375 49.796875 22.203125 53.703125 
Q 22.796875 54.59375 23.59375 54.59375 
Q 24.5 54.59375 24.5 53.796875 
Q 24.5 53.296875 24.40625 53.09375 
L 21.59375 42.796875 
z
" id="STIXGeneral-Italic-116"/>
      </defs>
      <use transform="translate(39.042969 16.59375)" xlink:href="#STIXGeneral-Regular-770"/>
      <use transform="translate(0 0.203125)" xlink:href="#STIXGeneral-Italic-116"/>
     </g>
    </g>
   </g>
   <g id="matplotlib.axis_2">
    <g id="ytick_1">
     <g id="line2d_6">
      <defs>
       <path d="M 0 0 
L -3.5 0 
" id="me1e31b8c6f" style="stroke:#000000;stroke-width:0.8;"/>
      </defs>
      <g>
       <use style="fill:#ffffff;stroke:#000000;stroke-width:0.8;" x="126" xlink:href="#me1e31b8c6f" y="345.6"/>
      </g>
     </g>
     <g id="text_7">
      <!-- −1 -->
      <g transform="translate(90.56 353.795625)scale(0.24 -0.24)">
       <defs>
        <path d="M 62.09375 22 
L 6.40625 22 
L 6.40625 28.59375 
L 62.09375 28.59375 
z
" id="STIXGeneral-Regular-8722"/>
        <path d="M 39.40625 0 
L 11.796875 0 
L 11.796875 1.5 
Q 17.296875 1.796875 19.296875 3.546875 
Q 21.296875 5.296875 21.296875 9.5 
L 21.296875 54.40625 
Q 21.296875 59.296875 18.296875 59.296875 
Q 16.90625 59.296875 13.796875 58.09375 
L 11.09375 57.09375 
L 11.09375 58.5 
L 29 67.59375 
L 29.90625 67.296875 
L 29.90625 7.59375 
Q 29.90625 4.296875 31.90625 2.890625 
Q 33.90625 1.5 39.40625 1.5 
z
" id="STIXGeneral-Regular-49"/>
       </defs>
       <use xlink:href="#STIXGeneral-Regular-8722"/>
       <use x="68.499985" xlink:href="#STIXGeneral-Regular-49"/>
      </g>
     </g>
    </g>
    <g id="ytick_2">
     <g id="line2d_7">
      <g>
       <use style="fill:#ffffff;stroke:#000000;stroke-width:0.8;" x="126" xlink:href="#me1e31b8c6f" y="280.8"/>
      </g>
     </g>
     <g id="text_8">
      <!-- 0 -->
      <g transform="translate(107 288.995625)scale(0.24 -0.24)">
       <use xlink:href="#STIXGeneral-Regular-48"/>
      </g>
     </g>
    </g>
    <g id="ytick_3">
     <g id="line2d_8">
      <g>
       <use style="fill:#ffffff;stroke:#000000;stroke-width:0.8;" x="126" xlink:href="#me1e31b8c6f" y="216"/>
      </g>
     </g>
     <g id="text_9">
      <!-- 1 -->
      <g transform="translate(107 224.195625)scale(0.24 -0.24)">
       <use xlink:href="#STIXGeneral-Regular-49"/>
      </g>
     </g>
    </g>
    <g id="ytick_4">
     <g id="line2d_9">
      <g>
       <use style="fill:#ffffff;stroke:#000000;stroke-width:0.8;" x="126" xlink:href="#me1e31b8c6f" y="151.2"/>
      </g>
     </g>
     <g id="text_10">
      <!-- 2 -->
      <g transform="translate(107 159.395625)scale(0.24 -0.24)">
       <use xlink:href="#STIXGeneral-Regular-50"/>
      </g>
     </g>
    </g>
    <g id="ytick_5">
     <g id="line2d_10">
      <g>
       <use style="fill:#ffffff;stroke:#000000;stroke-width:0.8;" x="126" xlink:href="#me1e31b8c6f" y="86.4"/>
      </g>
     </g>
     <g id="text_11">
      <!-- 3 -->
      <g transform="translate(107 94.595625)scale(0.24 -0.24)">
       <defs>
        <path d="M 6.09375 51 
L 4.5 51.40625 
Q 6.796875 58.90625 11.6875 63.25 
Q 16.59375 67.59375 24.09375 67.59375 
Q 31.09375 67.59375 35.390625 63.796875 
Q 39.703125 60 39.703125 53.90625 
Q 39.703125 45.703125 30.40625 40.09375 
Q 35.90625 37.703125 38.703125 34.796875 
Q 43.09375 29.90625 43.09375 21.90625 
Q 43.09375 13.90625 38.5 7.90625 
Q 35.09375 3.296875 28.75 0.9375 
Q 22.40625 -1.40625 15.296875 -1.40625 
Q 4.09375 -1.40625 4.09375 4.296875 
Q 4.09375 5.90625 5.296875 6.90625 
Q 6.5 7.90625 8.203125 7.90625 
Q 10.703125 7.90625 14.296875 5.296875 
Q 18.703125 2.203125 22.90625 2.203125 
Q 28.40625 2.203125 32.15625 6.640625 
Q 35.90625 11.09375 35.90625 17.5 
Q 35.90625 29 25.5 32 
Q 22.40625 33 15.296875 33 
L 15.296875 34.40625 
Q 20.90625 36.296875 23.703125 38 
Q 31.796875 42.59375 31.796875 51.40625 
Q 31.796875 56.40625 28.9375 59 
Q 26.09375 61.59375 21 61.59375 
Q 12 61.59375 6.09375 51 
z
" id="STIXGeneral-Regular-51"/>
       </defs>
       <use xlink:href="#STIXGeneral-Regular-51"/>
      </g>
     </g>
    </g>
    <g id="text_12">
     <!-- $C_L$ -->
     <g transform="translate(81.35125 229.32)rotate(-90)scale(0.24 -0.24)">
      <defs>
       <path d="M 68.90625 66.40625 
L 65.203125 46.40625 
L 63.40625 46.703125 
Q 61.59375 63 48.5 63 
Q 37.59375 63 28.59375 53.296875 
Q 23.296875 47.703125 20.546875 39.703125 
Q 17.796875 31.703125 17.796875 23.203125 
Q 17.796875 2.703125 35.296875 2.703125 
Q 41.5 2.703125 46.640625 5.296875 
Q 51.796875 7.90625 58.203125 14.59375 
L 60 13.09375 
Q 53.296875 5.203125 46.84375 1.703125 
Q 40.40625 -1.796875 32.703125 -1.796875 
Q 21 -1.796875 13.796875 5.140625 
Q 6.59375 12.09375 6.59375 24.296875 
Q 6.59375 34.59375 11.6875 43.9375 
Q 16.796875 53.296875 25.296875 59.296875 
Q 35.5 66.59375 47.203125 66.59375 
Q 54.09375 66.59375 58.90625 64.90625 
Q 60.90625 64.203125 63 64.203125 
Q 65.703125 64.203125 66.796875 66.40625 
z
" id="STIXGeneral-Italic-67"/>
       <path d="M 55.90625 18 
L 50.09375 0 
L -0.796875 0 
L -0.796875 1.59375 
Q 3.40625 2 4.703125 3.296875 
Q 6 4.59375 7.40625 9.40625 
L 19.59375 53.203125 
Q 20.703125 56.90625 20.703125 59.40625 
Q 20.703125 61.59375 19.140625 62.5 
Q 17.59375 63.40625 13 63.703125 
L 13 65.296875 
L 40.296875 65.296875 
L 40.296875 63.703125 
Q 35.703125 63.40625 33.546875 61.796875 
Q 31.40625 60.203125 30.203125 56 
L 18.203125 13.09375 
Q 17.203125 9.296875 17.203125 7.703125 
Q 17.203125 5.40625 19.390625 4.5 
Q 21.59375 3.59375 27.703125 3.59375 
Q 35.40625 3.59375 38.75 4.296875 
Q 42.09375 5 45.703125 7.40625 
Q 49.796875 10.09375 53.90625 18.59375 
z
" id="STIXGeneral-Italic-76"/>
      </defs>
      <use transform="translate(0 0.40625)" xlink:href="#STIXGeneral-Italic-67"/>
      <use transform="translate(66.699997 -12.821875)scale(0.7)" xlink:href="#STIXGeneral-Italic-76"/>
     </g>
    </g>
   </g>
   <g id="line2d_11">
    <path clip-path="url(#p49290372d0)" d="M 125.644909 292.260527 
L 126.355091 291.892709 
L 127.065273 291.217379 
L 127.775455 290.262226 
L 128.840727 288.366685 
L 129.906 285.99675 
L 131.326364 282.276582 
L 133.456909 275.931017 
L 142.334182 248.557644 
L 146.595273 235.582841 
L 149.436 226.206283 
L 152.276727 216.043525 
L 160.443818 185.953083 
L 161.864182 181.867101 
L 162.929455 179.3425 
L 163.994727 177.376775 
L 164.704909 176.424727 
L 165.415091 175.788865 
L 166.125273 175.494931 
L 166.835455 175.571709 
L 167.545636 176.03646 
L 168.255818 176.914462 
L 168.966 178.220655 
L 169.676182 179.971825 
L 170.386364 182.20976 
L 170.741455 182.51166 
L 171.096545 180.26338 
L 171.806727 178.192929 
L 173.227091 174.629344 
L 174.647455 171.618508 
L 176.067818 169.113766 
L 177.488182 167.050658 
L 178.908545 165.360225 
L 180.328909 163.974246 
L 182.104364 162.576285 
L 183.879818 161.45288 
L 186.010364 160.3602 
L 188.851091 159.191087 
L 192.046909 158.143226 
L 195.597818 157.212353 
L 199.503818 156.398112 
L 205.540364 155.4113 
L 212.997273 154.396102 
L 222.939818 153.276082 
L 230.396727 152.716745 
L 236.433273 152.457632 
L 239.629091 152.403969 
L 242.114727 152.362722 
L 245.310545 152.37216 
L 247.796182 152.376672 
L 250.992 152.440448 
L 253.477636 152.4871 
L 256.673455 152.6112 
L 259.514182 152.605676 
L 260.224364 151.698012 
L 261.644727 150.115875 
L 265.905818 145.122325 
L 267.326182 143.774883 
L 268.746545 142.79571 
L 269.811818 142.382365 
L 270.877091 142.320116 
L 271.587273 142.497573 
L 272.297455 142.873167 
L 273.007636 143.470884 
L 273.717818 144.288741 
L 274.783091 145.998767 
L 275.848364 148.314682 
L 276.913636 151.255037 
L 277.978909 154.889336 
L 279.044182 159.180974 
L 280.464545 165.970473 
L 281.884909 173.918693 
L 283.660364 185.326546 
L 285.790909 200.784151 
L 288.986727 226.047616 
L 292.182545 250.856486 
L 293.958 263.170112 
L 295.378364 271.791905 
L 296.798727 279.081084 
L 297.864 283.570013 
L 298.929273 287.177094 
L 299.994545 289.891807 
L 300.704727 291.20686 
L 301.414909 292.129102 
L 302.125091 292.676146 
L 302.835273 292.863441 
L 303.545455 292.707346 
L 304.255636 292.230615 
L 304.965818 291.459644 
L 306.031091 289.806967 
L 307.096364 287.652268 
L 308.516727 284.150585 
L 310.292182 279.076929 
L 313.488 269.027335 
L 317.749091 255.628656 
L 324.140727 235.748268 
L 326.981455 226.05777 
L 329.822182 215.485751 
L 333.373091 201.388848 
L 336.213818 190.291267 
L 337.989273 184.053259 
L 339.409636 179.761646 
L 340.83 176.335626 
L 341.895273 174.472456 
L 342.605455 173.610125 
L 343.315636 173.082429 
L 344.025818 172.919508 
L 344.736 173.144554 
L 345.446182 173.780028 
L 346.156364 174.844979 
L 346.866545 176.356825 
L 347.576727 178.337773 
L 347.931818 179.519432 
L 348.286909 179.823299 
L 348.642 177.580385 
L 349.352182 175.524298 
L 350.772545 171.994147 
L 352.192909 169.030442 
L 353.258182 167.133757 
L 354.678545 165.025925 
L 356.454 162.944344 
L 357.874364 161.612061 
L 359.294727 160.519931 
L 360.715091 159.608113 
L 362.135455 158.83351 
L 363.910909 157.99788 
L 368.172 156.466642 
L 374.208545 155.013804 
L 376.694182 154.570555 
L 382.020545 153.865212 
L 387.702 153.316082 
L 394.448727 152.841448 
L 403.326 152.487191 
L 410.072727 152.408558 
L 422.500909 152.571473 
L 430.668 152.85559 
L 437.059636 153.084659 
L 437.769818 152.192682 
L 439.190182 150.624068 
L 443.806364 145.311774 
L 445.226727 144.050323 
L 446.292 143.358574 
L 447.357273 142.947939 
L 448.067455 142.859711 
L 448.777636 142.943486 
L 449.487818 143.215722 
L 450.198 143.696016 
L 450.908182 144.402704 
L 451.618364 145.34892 
L 452.683636 147.252526 
L 453.748909 149.772385 
L 454.814182 152.951771 
L 455.879455 156.802689 
L 457.299818 163.000318 
L 458.720182 170.389658 
L 460.140545 178.89022 
L 461.916 190.900034 
L 464.046545 206.875801 
L 470.793273 258.857793 
L 472.568727 270.084074 
L 473.989091 277.64249 
L 475.054364 282.35861 
L 476.119636 286.20204 
L 477.184909 289.153716 
L 477.895091 290.627783 
L 478.605273 291.710968 
L 479.315455 292.413727 
L 480.025636 292.751402 
L 480.735818 292.743211 
L 481.090909 292.615613 
L 481.090909 292.615613 
" style="fill:none;stroke:#1f77b4;stroke-linecap:square;stroke-width:4;"/>
   </g>
   <g id="line2d_12">
    <path clip-path="url(#p49290372d0)" d="M 125.644909 287.006945 
L 126.710182 284.377231 
L 128.130545 280.043045 
L 129.906 273.720338 
L 135.232364 254.068087 
L 137.007818 248.693894 
L 138.428182 245.064831 
L 139.848545 242.020588 
L 141.624 238.846056 
L 145.885091 231.748783 
L 147.305455 228.769234 
L 148.725818 225.251343 
L 150.146182 221.164889 
L 152.276727 214.173763 
L 158.313273 193.479112 
L 160.088727 188.466759 
L 161.509091 185.1491 
L 162.574364 183.152959 
L 163.639636 181.645523 
L 164.349818 180.939842 
L 165.06 180.492756 
L 165.770182 180.321576 
L 166.480364 180.440076 
L 167.190545 180.862513 
L 167.900727 181.603442 
L 168.610909 182.675321 
L 169.321091 184.089049 
L 170.031273 185.854232 
L 170.386364 186.892912 
L 170.741455 187.194887 
L 171.096545 185.380018 
L 171.806727 183.736083 
L 173.582182 180.161461 
L 175.357636 177.102919 
L 177.133091 174.522208 
L 178.908545 172.360914 
L 180.684 170.558913 
L 182.459455 169.045817 
L 184.59 167.525154 
L 187.075636 166.042752 
L 189.916364 164.59841 
L 193.467273 163.020704 
L 198.083455 161.19423 
L 206.250545 158.27865 
L 221.164364 153.175207 
L 227.556 151.173946 
L 232.172182 149.901638 
L 237.143455 148.744708 
L 247.086 147.192206 
L 257.028545 146.659887 
L 261.644727 146.746896 
L 263.775273 146.771576 
L 265.550727 147.011739 
L 266.616 147.309298 
L 268.036364 147.974194 
L 269.456727 149.059071 
L 270.522 150.194035 
L 271.587273 151.6669 
L 272.652545 153.521951 
L 273.717818 155.818979 
L 274.783091 158.59064 
L 275.848364 161.875151 
L 276.913636 165.686031 
L 278.334 171.660333 
L 279.754364 178.657114 
L 281.529818 188.766856 
L 283.305273 200.259615 
L 285.790909 218.083641 
L 291.117273 257.3551 
L 292.892727 268.60153 
L 294.313091 276.232599 
L 295.378364 281.013748 
L 296.443636 284.873551 
L 297.508909 287.790177 
L 298.219091 289.186497 
L 298.929273 290.147015 
L 299.639455 290.678763 
L 300.349636 290.788545 
L 301.059818 290.494673 
L 301.77 289.8198 
L 302.480182 288.78748 
L 303.545455 286.637322 
L 304.610727 283.86518 
L 306.031091 279.408443 
L 307.806545 273.049098 
L 312.422727 256.110055 
L 314.198182 250.61224 
L 315.618545 246.858507 
L 317.038909 243.680772 
L 318.459273 240.998919 
L 320.944909 236.934673 
L 322.720364 233.944112 
L 324.140727 231.151592 
L 325.561091 227.856293 
L 326.981455 223.985301 
L 328.756909 218.385531 
L 331.242545 209.63022 
L 335.148545 195.87505 
L 336.924 190.402182 
L 338.344364 186.653563 
L 339.764727 183.616558 
L 340.83 181.861472 
L 341.895273 180.6554 
L 342.605455 180.169956 
L 343.315636 179.957428 
L 344.025818 180.036978 
L 344.736 180.42439 
L 345.446182 181.129389 
L 346.156364 182.166916 
L 346.866545 183.549297 
L 347.576727 185.294556 
L 347.931818 186.314 
L 348.286909 186.602663 
L 348.642 184.778316 
L 349.352182 183.115562 
L 350.772545 180.168467 
L 352.192909 177.562349 
L 353.613273 175.275502 
L 355.033636 173.283063 
L 356.454 171.552617 
L 357.874364 170.05047 
L 359.294727 168.743884 
L 361.070182 167.318887 
L 364.266 165.244909 
L 366.041455 164.245916 
L 371.722909 161.599037 
L 381.310364 158.091326 
L 389.477455 155.491112 
L 402.970909 151.441161 
L 409.717636 149.711698 
L 414.333818 148.724095 
L 420.015273 147.771881 
L 425.341636 147.154975 
L 429.602727 146.863037 
L 433.863818 146.76037 
L 437.059636 146.823728 
L 438.124909 146.879274 
L 441.675818 146.955165 
L 443.096182 147.177883 
L 444.516545 147.630446 
L 445.581818 148.178049 
L 446.647091 148.950787 
L 447.712364 149.99767 
L 448.777636 151.362795 
L 449.842909 153.102386 
L 450.908182 155.255787 
L 451.973455 157.873216 
L 453.038727 160.989938 
L 454.459091 165.979443 
L 455.879455 171.966322 
L 457.299818 178.965408 
L 459.075273 189.090496 
L 460.850727 200.586589 
L 463.336364 218.412289 
L 468.662727 257.628814 
L 470.438182 268.84036 
L 471.858545 276.437794 
L 472.923818 281.183897 
L 473.989091 285.02077 
L 475.054364 287.902635 
L 475.764545 289.279137 
L 476.474727 290.217873 
L 477.184909 290.725287 
L 477.895091 290.814405 
L 478.605273 290.499841 
L 479.315455 289.80377 
L 480.025636 288.753155 
L 481.090909 286.576975 
L 481.090909 286.576975 
" style="fill:none;stroke:#ff7f0e;stroke-linecap:square;stroke-width:4;"/>
   </g>
   <g id="line2d_13">
    <path clip-path="url(#p49290372d0)" d="M 125.644909 288.397289 
L 126.710182 285.820252 
L 127.775455 282.663878 
L 129.195818 277.768984 
L 131.681455 268.140619 
L 134.522182 257.154667 
L 136.297636 251.093138 
L 137.718 246.942147 
L 139.138364 243.485791 
L 140.558727 240.700044 
L 141.979091 238.483775 
L 143.754545 236.251192 
L 147.305455 232.026859 
L 148.725818 229.937829 
L 150.146182 227.454149 
L 151.566545 224.549795 
L 153.342 220.416133 
L 159.378545 205.691908 
L 160.798909 203.048746 
L 161.864182 201.489113 
L 162.929455 200.360805 
L 163.639636 199.871851 
L 164.349818 199.609781 
L 165.06 199.587642 
L 165.770182 199.818559 
L 166.480364 200.31014 
L 167.190545 201.071687 
L 167.900727 202.111122 
L 168.966 204.210895 
L 170.031273 206.976443 
L 170.386364 208.068526 
L 170.741455 208.446765 
L 171.096545 206.797522 
L 171.806727 205.368567 
L 174.292364 200.912862 
L 176.778 196.914785 
L 179.618727 192.806068 
L 182.459455 189.105109 
L 185.300182 185.760364 
L 188.496 182.37585 
L 191.336727 179.664057 
L 194.532545 176.90043 
L 198.083455 174.139841 
L 201.989455 171.417245 
L 205.895455 168.959678 
L 210.511636 166.350777 
L 214.772727 164.175661 
L 219.388909 162.036371 
L 225.070364 159.676374 
L 230.396727 157.730271 
L 234.657818 156.38535 
L 237.143455 155.672287 
L 246.375818 153.64788 
L 256.318364 152.433886 
L 260.224364 152.379149 
L 265.195636 152.723646 
L 266.971091 153.230223 
L 268.036364 153.731447 
L 269.456727 154.742795 
L 270.522 155.795199 
L 271.587273 157.163726 
L 272.652545 158.888174 
L 273.717818 161.02433 
L 274.783091 163.609208 
L 275.848364 166.678531 
L 276.913636 170.248003 
L 278.334 175.86038 
L 279.754364 182.456025 
L 281.174727 190.000772 
L 282.950182 200.665684 
L 285.080727 214.962346 
L 289.341818 245.759936 
L 291.827455 262.669406 
L 293.602909 273.105126 
L 295.023273 280.038721 
L 296.088545 284.282018 
L 297.153818 287.598976 
L 297.864 289.288297 
L 298.574182 290.544338 
L 299.284364 291.368574 
L 299.994545 291.76614 
L 300.704727 291.752684 
L 301.414909 291.340136 
L 302.125091 290.552284 
L 302.835273 289.412908 
L 303.900545 287.111194 
L 304.965818 284.191673 
L 306.386182 279.548828 
L 308.516727 271.56036 
L 312.422727 256.596866 
L 314.198182 250.754375 
L 315.618545 246.783097 
L 317.038909 243.49159 
L 318.459273 240.848456 
L 319.879636 238.735258 
L 321.3 236.946067 
L 324.850909 232.621767 
L 326.271273 230.498303 
L 327.691636 227.979403 
L 329.467091 224.256417 
L 331.597636 219.096757 
L 335.858727 208.340839 
L 337.634182 204.563147 
L 338.699455 202.707354 
L 339.764727 201.241201 
L 340.474909 200.503526 
L 341.185091 199.971963 
L 341.895273 199.673153 
L 342.605455 199.611612 
L 343.315636 199.797939 
L 344.025818 200.245045 
L 344.736 200.964228 
L 345.446182 201.95972 
L 346.511455 204.000635 
L 347.576727 206.700139 
L 347.931818 207.765859 
L 348.286909 208.123187 
L 348.642 206.455922 
L 349.352182 204.990695 
L 351.482727 201.02453 
L 353.613273 197.414828 
L 355.743818 194.106977 
L 357.874364 191.059536 
L 360.004909 188.243939 
L 362.135455 185.643403 
L 364.266 183.23328 
L 366.396545 181.001445 
L 368.527091 178.936679 
L 370.657636 177.021202 
L 372.788182 175.243187 
L 374.918727 173.587251 
L 377.759455 171.555183 
L 381.310364 169.258494 
L 384.861273 167.189498 
L 389.122364 164.949169 
L 393.738545 162.769002 
L 399.064909 160.518898 
L 404.036182 158.639722 
L 408.652364 157.0816 
L 414.333818 155.429373 
L 419.660182 154.156177 
L 423.921273 153.330154 
L 428.537455 152.62998 
L 433.863818 152.07081 
L 437.059636 151.882667 
L 437.769818 151.988511 
L 442.030909 152.208645 
L 443.451273 152.478083 
L 444.871636 152.972546 
L 445.936909 153.544675 
L 447.002182 154.335845 
L 448.067455 155.394172 
L 449.132727 156.771241 
L 450.198 158.505804 
L 451.263273 160.649067 
L 452.328545 163.238984 
L 453.393818 166.317815 
L 454.814182 171.229344 
L 456.234545 177.104382 
L 457.654909 183.955515 
L 459.430364 193.843117 
L 461.205818 205.042651 
L 463.691455 222.35684 
L 469.017818 260.300779 
L 470.793273 271.097256 
L 472.213636 278.389788 
L 473.278909 282.915539 
L 474.344182 286.549159 
L 475.409455 289.237573 
L 476.119636 290.490714 
L 476.829818 291.312734 
L 477.54 291.708117 
L 478.250182 291.688793 
L 478.960364 291.271502 
L 479.670545 290.477877 
L 480.380727 289.332653 
L 481.090909 287.863975 
L 481.090909 287.863975 
" style="fill:none;stroke:#2ca02c;stroke-linecap:square;stroke-width:4;"/>
   </g>
   <g id="line2d_14">
    <path clip-path="url(#p49290372d0)" d="M 126 280.8 
L 481.090909 280.8 
" style="fill:none;stroke:#000000;stroke-dasharray:3.2,0.8,0.5,0.8;stroke-dashoffset:0;stroke-width:0.5;"/>
   </g>
   <g id="line2d_15">
    <path clip-path="url(#p49290372d0)" d="M 303.545455 345.6 
L 303.545455 86.4 
" style="fill:none;stroke:#000000;stroke-dasharray:3.2,0.8,0.5,0.8;stroke-dashoffset:0;stroke-width:0.5;"/>
   </g>
   <g id="patch_3">
    <path d="M 126 345.6 
L 126 86.4 
" style="fill:none;stroke:#000000;stroke-linecap:square;stroke-linejoin:miter;stroke-width:0.8;"/>
   </g>
   <g id="patch_4">
    <path d="M 481.090909 345.6 
L 481.090909 86.4 
" style="fill:none;stroke:#000000;stroke-linecap:square;stroke-linejoin:miter;stroke-width:0.8;"/>
   </g>
   <g id="patch_5">
    <path d="M 126 345.6 
L 481.090909 345.6 
" style="fill:none;stroke:#000000;stroke-linecap:square;stroke-linejoin:miter;stroke-width:0.8;"/>
   </g>
   <g id="patch_6">
    <path d="M 126 86.4 
L 481.090909 86.4 
" style="fill:none;stroke:#000000;stroke-linecap:square;stroke-linejoin:miter;stroke-width:0.8;"/>
   </g>
   <g id="legend_1">
    <g id="line2d_16">
     <path d="M 295.48848 59.55 
L 335.47248 59.55 
" style="fill:none;stroke:#1f77b4;stroke-linecap:square;stroke-width:4;"/>
    </g>
    <g id="line2d_17"/>
    <g id="text_13">
     <!-- $\hat r_1$ = 0.4 -->
     <g transform="translate(351.46608 66.5472)scale(0.19992 -0.19992)">
      <defs>
       <path d="M 17.59375 22.296875 
L 19.203125 25.796875 
Q 22.59375 33.296875 28.59375 39.59375 
Q 32.90625 44.09375 36.5 44.09375 
Q 38.59375 44.09375 39.890625 42.6875 
Q 41.203125 41.296875 41.203125 39 
Q 41.203125 36.703125 39.953125 35.140625 
Q 38.703125 33.59375 36.5 33.59375 
Q 34.59375 33.59375 33 36.203125 
Q 32.203125 37.59375 31.40625 37.59375 
Q 28.703125 37.59375 23.203125 28.203125 
Q 19.796875 22.40625 17.75 17.25 
Q 15.703125 12.09375 12.09375 0 
L 4.5 0 
L 12.59375 29.203125 
Q 14.203125 35.09375 14.203125 37.40625 
Q 14.203125 40 10.40625 40 
Q 9.59375 40 7.296875 39.703125 
L 7.296875 41.40625 
L 22.796875 44.09375 
L 23.09375 43.90625 
z
" id="STIXGeneral-Italic-114"/>
       <path id="STIXGeneral-Regular-32"/>
       <path d="M 63.703125 32 
L 4.796875 32 
L 4.796875 38.59375 
L 63.703125 38.59375 
z
M 63.703125 12 
L 4.796875 12 
L 4.796875 18.59375 
L 63.703125 18.59375 
z
" id="STIXGeneral-Regular-61"/>
      </defs>
      <use transform="translate(45.765625 6.59375)" xlink:href="#STIXGeneral-Regular-770"/>
      <use transform="translate(0 0.703125)" xlink:href="#STIXGeneral-Italic-114"/>
      <use transform="translate(40.443275 -12.525)scale(0.7)" xlink:href="#STIXGeneral-Regular-49"/>
      <use transform="translate(79.852639 0.703125)" xlink:href="#STIXGeneral-Regular-32"/>
      <use transform="translate(104.852624 0.703125)" xlink:href="#STIXGeneral-Regular-61"/>
      <use transform="translate(173.352609 0.703125)" xlink:href="#STIXGeneral-Regular-32"/>
      <use transform="translate(198.352594 0.703125)" xlink:href="#STIXGeneral-Regular-48"/>
      <use transform="translate(248.352578 0.703125)" xlink:href="#STIXGeneral-Regular-46"/>
      <use transform="translate(273.352563 0.703125)" xlink:href="#STIXGeneral-Regular-52"/>
     </g>
    </g>
    <g id="line2d_18">
     <path d="M 456.22416 59.55 
L 496.20816 59.55 
" style="fill:none;stroke:#ff7f0e;stroke-linecap:square;stroke-width:4;"/>
    </g>
    <g id="line2d_19"/>
    <g id="text_14">
     <!-- $\hat r_1$ = 0.5 -->
     <g transform="translate(512.20176 66.5472)scale(0.19992 -0.19992)">
      <use transform="translate(45.765625 6.59375)" xlink:href="#STIXGeneral-Regular-770"/>
      <use transform="translate(0 0.703125)" xlink:href="#STIXGeneral-Italic-114"/>
      <use transform="translate(40.443275 -12.525)scale(0.7)" xlink:href="#STIXGeneral-Regular-49"/>
      <use transform="translate(79.852639 0.703125)" xlink:href="#STIXGeneral-Regular-32"/>
      <use transform="translate(104.852624 0.703125)" xlink:href="#STIXGeneral-Regular-61"/>
      <use transform="translate(173.352609 0.703125)" xlink:href="#STIXGeneral-Regular-32"/>
      <use transform="translate(198.352594 0.703125)" xlink:href="#STIXGeneral-Regular-48"/>
      <use transform="translate(248.352578 0.703125)" xlink:href="#STIXGeneral-Regular-46"/>
      <use transform="translate(273.352563 0.703125)" xlink:href="#STIXGeneral-Regular-53"/>
     </g>
    </g>
    <g id="line2d_20">
     <path d="M 616.95984 59.55 
L 656.94384 59.55 
" style="fill:none;stroke:#2ca02c;stroke-linecap:square;stroke-width:4;"/>
    </g>
    <g id="line2d_21"/>
    <g id="text_15">
     <!-- $\hat r_1$ = 0.6 -->
     <g transform="translate(672.93744 66.5472)scale(0.19992 -0.19992)">
      <defs>
       <path d="M 44.59375 68.40625 
L 44.796875 66.796875 
Q 33 64.90625 25.09375 57.25 
Q 17.203125 49.59375 15.203125 38.296875 
Q 21 42.796875 27.90625 42.796875 
Q 36.703125 42.796875 41.75 37.1875 
Q 46.796875 31.59375 46.796875 21.90625 
Q 46.796875 12.09375 41.703125 5.90625 
Q 35.796875 -1.40625 25.796875 -1.40625 
Q 13.59375 -1.40625 8.09375 8.703125 
Q 3.40625 17.296875 3.40625 27.90625 
Q 3.40625 44.296875 14.296875 55.5 
Q 20.5 61.90625 27.046875 64.546875 
Q 33.59375 67.203125 44.59375 68.40625 
z
M 37.796875 18.796875 
Q 37.796875 38.203125 24.296875 38.203125 
Q 19.296875 38.203125 16 35.546875 
Q 12.703125 32.90625 12.703125 26.59375 
Q 12.703125 14.90625 16.34375 8.15625 
Q 20 1.40625 26.90625 1.40625 
Q 32.203125 1.40625 35 6.15625 
Q 37.796875 10.90625 37.796875 18.796875 
z
" id="STIXGeneral-Regular-54"/>
      </defs>
      <use transform="translate(45.765625 6.59375)" xlink:href="#STIXGeneral-Regular-770"/>
      <use transform="translate(0 0.703125)" xlink:href="#STIXGeneral-Italic-114"/>
      <use transform="translate(40.443275 -12.525)scale(0.7)" xlink:href="#STIXGeneral-Regular-49"/>
      <use transform="translate(79.852639 0.703125)" xlink:href="#STIXGeneral-Regular-32"/>
      <use transform="translate(104.852624 0.703125)" xlink:href="#STIXGeneral-Regular-61"/>
      <use transform="translate(173.352609 0.703125)" xlink:href="#STIXGeneral-Regular-32"/>
      <use transform="translate(198.352594 0.703125)" xlink:href="#STIXGeneral-Regular-48"/>
      <use transform="translate(248.352578 0.703125)" xlink:href="#STIXGeneral-Regular-46"/>
      <use transform="translate(273.352563 0.703125)" xlink:href="#STIXGeneral-Regular-54"/>
     </g>
    </g>
   </g>
  </g>
  <g id="axes_2">
   <g id="patch_7">
    <path d="M 552.109091 345.6 
L 907.2 345.6 
L 907.2 86.4 
L 552.109091 86.4 
z
" style="fill:#ffffff;"/>
   </g>
   <g id="matplotlib.axis_3">
    <g id="xtick_6">
     <g id="line2d_22">
      <g>
       <use style="fill:#ffffff;stroke:#000000;stroke-width:0.8;" x="552.109091" xlink:href="#m8eb1ed691c" y="345.6"/>
      </g>
     </g>
     <g id="text_16">
      <!-- 4.00 -->
      <g transform="translate(531.109091 368.99125)scale(0.24 -0.24)">
       <use xlink:href="#STIXGeneral-Regular-52"/>
       <use x="49.999985" xlink:href="#STIXGeneral-Regular-46"/>
       <use x="74.999969" xlink:href="#STIXGeneral-Regular-48"/>
       <use x="124.999954" xlink:href="#STIXGeneral-Regular-48"/>
      </g>
     </g>
    </g>
    <g id="xtick_7">
     <g id="line2d_23">
      <g>
       <use style="fill:#ffffff;stroke:#000000;stroke-width:0.8;" x="640.881818" xlink:href="#m8eb1ed691c" y="345.6"/>
      </g>
     </g>
     <g id="text_17">
      <!-- 4.25 -->
      <g transform="translate(619.881818 368.99125)scale(0.24 -0.24)">
       <use xlink:href="#STIXGeneral-Regular-52"/>
       <use x="49.999985" xlink:href="#STIXGeneral-Regular-46"/>
       <use x="74.999969" xlink:href="#STIXGeneral-Regular-50"/>
       <use x="124.999954" xlink:href="#STIXGeneral-Regular-53"/>
      </g>
     </g>
    </g>
    <g id="xtick_8">
     <g id="line2d_24">
      <g>
       <use style="fill:#ffffff;stroke:#000000;stroke-width:0.8;" x="729.654545" xlink:href="#m8eb1ed691c" y="345.6"/>
      </g>
     </g>
     <g id="text_18">
      <!-- 4.50 -->
      <g transform="translate(708.654545 368.99125)scale(0.24 -0.24)">
       <use xlink:href="#STIXGeneral-Regular-52"/>
       <use x="49.999985" xlink:href="#STIXGeneral-Regular-46"/>
       <use x="74.999969" xlink:href="#STIXGeneral-Regular-53"/>
       <use x="124.999954" xlink:href="#STIXGeneral-Regular-48"/>
      </g>
     </g>
    </g>
    <g id="xtick_9">
     <g id="line2d_25">
      <g>
       <use style="fill:#ffffff;stroke:#000000;stroke-width:0.8;" x="818.427273" xlink:href="#m8eb1ed691c" y="345.6"/>
      </g>
     </g>
     <g id="text_19">
      <!-- 4.75 -->
      <g transform="translate(797.427273 368.99125)scale(0.24 -0.24)">
       <use xlink:href="#STIXGeneral-Regular-52"/>
       <use x="49.999985" xlink:href="#STIXGeneral-Regular-46"/>
       <use x="74.999969" xlink:href="#STIXGeneral-Regular-55"/>
       <use x="124.999954" xlink:href="#STIXGeneral-Regular-53"/>
      </g>
     </g>
    </g>
    <g id="xtick_10">
     <g id="line2d_26">
      <g>
       <use style="fill:#ffffff;stroke:#000000;stroke-width:0.8;" x="907.2" xlink:href="#m8eb1ed691c" y="345.6"/>
      </g>
     </g>
     <g id="text_20">
      <!-- 5.00 -->
      <g transform="translate(886.2 368.99125)scale(0.24 -0.24)">
       <use xlink:href="#STIXGeneral-Regular-53"/>
       <use x="49.999985" xlink:href="#STIXGeneral-Regular-46"/>
       <use x="74.999969" xlink:href="#STIXGeneral-Regular-48"/>
       <use x="124.999954" xlink:href="#STIXGeneral-Regular-48"/>
      </g>
     </g>
    </g>
    <g id="text_21">
     <!-- $\^t$ -->
     <g transform="translate(726.294545 394.59125)scale(0.24 -0.24)">
      <use transform="translate(39.042969 16.59375)" xlink:href="#STIXGeneral-Regular-770"/>
      <use transform="translate(0 0.203125)" xlink:href="#STIXGeneral-Italic-116"/>
     </g>
    </g>
   </g>
   <g id="matplotlib.axis_4">
    <g id="ytick_6">
     <g id="line2d_27">
      <g>
       <use style="fill:#ffffff;stroke:#000000;stroke-width:0.8;" x="552.109091" xlink:href="#me1e31b8c6f" y="345.6"/>
      </g>
     </g>
     <g id="text_22">
      <!-- −1 -->
      <g transform="translate(516.669091 353.795625)scale(0.24 -0.24)">
       <use xlink:href="#STIXGeneral-Regular-8722"/>
       <use x="68.499985" xlink:href="#STIXGeneral-Regular-49"/>
      </g>
     </g>
    </g>
    <g id="ytick_7">
     <g id="line2d_28">
      <g>
       <use style="fill:#ffffff;stroke:#000000;stroke-width:0.8;" x="552.109091" xlink:href="#me1e31b8c6f" y="280.8"/>
      </g>
     </g>
     <g id="text_23">
      <!-- 0 -->
      <g transform="translate(533.109091 288.995625)scale(0.24 -0.24)">
       <use xlink:href="#STIXGeneral-Regular-48"/>
      </g>
     </g>
    </g>
    <g id="ytick_8">
     <g id="line2d_29">
      <g>
       <use style="fill:#ffffff;stroke:#000000;stroke-width:0.8;" x="552.109091" xlink:href="#me1e31b8c6f" y="216"/>
      </g>
     </g>
     <g id="text_24">
      <!-- 1 -->
      <g transform="translate(533.109091 224.195625)scale(0.24 -0.24)">
       <use xlink:href="#STIXGeneral-Regular-49"/>
      </g>
     </g>
    </g>
    <g id="ytick_9">
     <g id="line2d_30">
      <g>
       <use style="fill:#ffffff;stroke:#000000;stroke-width:0.8;" x="552.109091" xlink:href="#me1e31b8c6f" y="151.2"/>
      </g>
     </g>
     <g id="text_25">
      <!-- 2 -->
      <g transform="translate(533.109091 159.395625)scale(0.24 -0.24)">
       <use xlink:href="#STIXGeneral-Regular-50"/>
      </g>
     </g>
    </g>
    <g id="ytick_10">
     <g id="line2d_31">
      <g>
       <use style="fill:#ffffff;stroke:#000000;stroke-width:0.8;" x="552.109091" xlink:href="#me1e31b8c6f" y="86.4"/>
      </g>
     </g>
     <g id="text_26">
      <!-- 3 -->
      <g transform="translate(533.109091 94.595625)scale(0.24 -0.24)">
       <use xlink:href="#STIXGeneral-Regular-51"/>
      </g>
     </g>
    </g>
    <g id="text_27">
     <!-- $C_D$ -->
     <g transform="translate(507.460341 230.64)rotate(-90)scale(0.24 -0.24)">
      <defs>
       <path d="M 13.09375 65.296875 
L 40.796875 65.296875 
Q 54.203125 65.296875 62.09375 58.296875 
Q 70 51.296875 70 38.40625 
Q 70 20.703125 54 8.296875 
Q 43.40625 0 24.90625 0 
L -0.796875 0 
L -0.796875 1.59375 
Q 3.5 2.40625 4.84375 3.59375 
Q 6.203125 4.796875 7.40625 9.203125 
L 19.59375 53.703125 
Q 20.703125 57.59375 20.703125 59.59375 
Q 20.703125 61.703125 19.09375 62.640625 
Q 17.5 63.59375 13.09375 63.703125 
z
M 31 58.40625 
L 19.203125 16.203125 
Q 17 8.203125 17 6.703125 
Q 17 3 23.796875 3 
Q 38.59375 3 47.90625 12 
Q 53.09375 17 56 24.953125 
Q 58.90625 32.90625 58.90625 40.796875 
Q 58.90625 52.90625 51.09375 58.796875 
Q 46.40625 62.296875 38 62.296875 
Q 34.796875 62.296875 33.25 61.546875 
Q 31.703125 60.796875 31 58.40625 
z
" id="STIXGeneral-Italic-68"/>
      </defs>
      <use transform="translate(0 0.40625)" xlink:href="#STIXGeneral-Italic-67"/>
      <use transform="translate(66.699997 -12.821875)scale(0.7)" xlink:href="#STIXGeneral-Italic-68"/>
     </g>
    </g>
   </g>
   <g id="line2d_32">
    <path clip-path="url(#p5070fbe7d5)" d="M 551.754 297.275805 
L 552.109091 300.997553 
L 552.464182 256.934488 
L 554.594727 236.268652 
L 556.370182 220.941455 
L 558.145636 207.367475 
L 559.921091 195.457784 
L 561.696545 185.036171 
L 563.472 175.884561 
L 565.247455 167.812978 
L 567.022909 160.716154 
L 568.798364 154.45729 
L 570.573818 148.950326 
L 572.349273 144.082028 
L 574.479818 138.906591 
L 581.581636 122.398819 
L 584.777455 114.860202 
L 586.197818 111.9438 
L 587.263091 110.099706 
L 588.328364 108.657286 
L 589.038545 107.966276 
L 589.748727 107.52732 
L 590.458909 107.373207 
L 591.169091 107.533403 
L 591.879273 108.038486 
L 592.589455 108.917583 
L 593.299636 110.197592 
L 594.009818 111.90408 
L 594.72 114.061929 
L 595.785273 118.184965 
L 596.495455 121.580016 
L 596.850545 122.456824 
L 597.205636 120.728802 
L 597.560727 120.017067 
L 598.270909 119.156581 
L 599.691273 117.459342 
L 601.111636 116.125877 
L 602.532 115.131395 
L 603.952364 114.434691 
L 605.372727 113.984861 
L 606.793091 113.733834 
L 608.568545 113.630413 
L 611.054182 113.763709 
L 613.894909 114.150453 
L 617.800909 114.902386 
L 640.881818 119.974562 
L 656.505818 122.69777 
L 679.586727 126.642562 
L 682.782545 127.239184 
L 685.623273 127.656548 
L 686.333455 126.994517 
L 687.753818 125.985385 
L 690.239455 123.853701 
L 692.725091 121.376755 
L 699.116727 114.83212 
L 700.182 114.026765 
L 701.247273 113.412318 
L 702.312545 113.03414 
L 703.377818 112.979399 
L 704.088 113.124419 
L 704.798182 113.441046 
L 705.508364 113.94081 
L 706.218545 114.66102 
L 706.928727 115.613387 
L 707.994 117.504104 
L 709.059273 120.008545 
L 710.124545 123.200285 
L 711.189818 127.123054 
L 712.255091 131.831934 
L 713.320364 137.371047 
L 714.740727 146.106608 
L 716.161091 156.381001 
L 717.581455 168.124219 
L 719.356909 184.73556 
L 721.487455 207.011089 
L 724.328182 239.196479 
L 728.589273 287.670684 
L 729.654545 298.995334 
L 730.009636 258.942663 
L 732.140182 238.191471 
L 734.270727 219.901976 
L 736.046182 206.531257 
L 737.821636 194.747158 
L 739.952182 182.472712 
L 742.082727 171.881189 
L 744.213273 162.757473 
L 745.988727 156.136012 
L 747.409091 151.388916 
L 749.184545 146.105655 
L 751.315091 140.495881 
L 759.127091 121.208417 
L 762.678 112.3295 
L 764.098364 109.333883 
L 765.163636 107.480164 
L 766.228909 106.065255 
L 766.939091 105.431986 
L 767.649273 105.074567 
L 768.359455 105.01955 
L 769.069636 105.304622 
L 769.779818 105.960656 
L 770.49 107.008101 
L 771.200182 108.485697 
L 771.910364 110.408 
L 772.975636 114.173959 
L 774.396 119.978077 
L 774.751091 118.265733 
L 775.106182 117.55865 
L 775.816364 116.728632 
L 777.236727 115.106385 
L 778.657091 113.855116 
L 780.077455 112.946421 
L 781.852909 112.235213 
L 782.918182 111.962385 
L 785.048727 111.751604 
L 788.244545 111.955417 
L 790.02 112.203195 
L 798.542182 114.123689 
L 801.738 114.971969 
L 817.717091 119.039532 
L 826.239273 120.982516 
L 835.471636 122.910013 
L 844.704 124.668358 
L 862.813636 128.068265 
L 863.168727 128.017206 
L 863.878909 127.369028 
L 865.299273 126.371788 
L 867.429818 124.60046 
L 869.915455 122.203727 
L 876.662182 115.417912 
L 878.082545 114.43109 
L 879.147818 113.933502 
L 880.213091 113.70655 
L 880.923273 113.72762 
L 881.633455 113.908108 
L 882.343636 114.26422 
L 883.053818 114.815278 
L 883.764 115.581035 
L 884.474182 116.578805 
L 885.539455 118.546699 
L 886.604727 121.139535 
L 887.67 124.412869 
L 888.735273 128.418936 
L 889.800545 133.214291 
L 891.220909 140.895936 
L 892.641273 150.10396 
L 894.061636 160.81321 
L 895.837091 176.20371 
L 897.612545 193.577765 
L 900.098182 220.420111 
L 906.844909 295.988528 
L 907.2 261.947699 
L 907.2 261.947699 
" style="fill:none;stroke:#1f77b4;stroke-linecap:square;stroke-width:4;"/>
   </g>
   <g id="line2d_33">
    <path clip-path="url(#p5070fbe7d5)" d="M 551.754 351.566708 
L 552.109091 354.877092 
L 552.464182 203.50595 
L 553.884545 191.661473 
L 555.304909 181.493373 
L 556.725273 173.006049 
L 558.145636 166.134374 
L 559.210909 161.963844 
L 560.276182 158.563081 
L 561.341455 155.860834 
L 562.406727 153.745552 
L 563.472 152.134535 
L 564.537273 150.9257 
L 565.957636 149.769358 
L 568.443273 148.268179 
L 569.863636 147.297953 
L 571.284 146.011864 
L 572.704364 144.310661 
L 574.124727 142.178097 
L 575.545091 139.637315 
L 578.030727 134.539301 
L 581.581636 127.219705 
L 583.357091 124.073922 
L 584.777455 121.974425 
L 585.842727 120.70813 
L 586.908 119.759045 
L 587.618182 119.326902 
L 588.328364 119.074442 
L 589.038545 119.019072 
L 589.748727 119.179403 
L 590.458909 119.576444 
L 591.169091 120.228432 
L 591.879273 121.156078 
L 592.589455 122.377546 
L 593.654727 124.799841 
L 594.72 127.98643 
L 595.785273 131.984018 
L 596.495455 135.145751 
L 596.850545 136.038699 
L 597.205636 134.762648 
L 597.560727 134.315015 
L 598.270909 133.853276 
L 600.046364 132.597421 
L 601.821818 131.600787 
L 603.597273 130.862538 
L 605.372727 130.365392 
L 607.148182 130.064378 
L 609.633818 129.896315 
L 612.474545 129.928795 
L 617.445818 130.221049 
L 629.163818 130.861323 
L 634.845273 130.961578 
L 640.881818 130.884198 
L 654.375273 130.351228 
L 661.832182 130.135105 
L 665.028 130.124818 
L 667.513636 130.12453 
L 671.419636 130.222539 
L 673.905273 130.303159 
L 677.811273 130.534352 
L 680.296909 130.70487 
L 684.913091 131.172832 
L 685.623273 131.272421 
L 687.753818 131.937107 
L 690.949636 132.651609 
L 694.500545 133.066598 
L 696.631091 133.315477 
L 698.406545 133.724999 
L 699.471818 134.132163 
L 700.537091 134.724175 
L 701.602364 135.548523 
L 703.022727 137.114798 
L 704.088 138.730113 
L 705.153273 140.759976 
L 706.218545 143.308752 
L 707.283818 146.437886 
L 708.349091 150.202861 
L 709.414364 154.683245 
L 710.834727 161.857758 
L 712.255091 170.507659 
L 713.675455 180.716541 
L 715.095818 192.471636 
L 716.871273 209.297087 
L 718.646727 228.202745 
L 721.132364 257.134844 
L 726.458727 320.869057 
L 728.589273 343.467495 
L 729.654545 353.604209 
L 730.009636 204.812521 
L 731.43 193.038188 
L 732.850364 182.930469 
L 734.270727 174.495939 
L 735.691091 167.664178 
L 736.756364 163.493323 
L 737.821636 160.074559 
L 739.242 156.57493 
L 740.662364 154.065508 
L 741.727636 152.718864 
L 742.792909 151.674113 
L 744.213273 150.631797 
L 747.764182 148.156105 
L 748.829455 147.114971 
L 750.249818 145.336817 
L 751.670182 143.124239 
L 753.445636 139.793695 
L 755.931273 134.477086 
L 759.482182 127.007638 
L 760.902545 124.413276 
L 762.322909 122.220833 
L 763.388182 120.876814 
L 764.453455 119.858097 
L 765.518727 119.209407 
L 766.228909 119.009315 
L 766.939091 119.024699 
L 767.649273 119.267208 
L 768.359455 119.751956 
L 769.069636 120.507251 
L 769.779818 121.549238 
L 770.49 122.89388 
L 771.555273 125.523263 
L 772.620545 128.942793 
L 773.685818 133.188369 
L 774.040909 134.811841 
L 774.396 135.694322 
L 774.751091 134.412073 
L 775.106182 133.946201 
L 775.816364 133.466116 
L 778.302 131.744244 
L 779.722364 130.985127 
L 781.142727 130.39411 
L 782.563091 129.956181 
L 783.983455 129.650376 
L 785.403818 129.456056 
L 787.179273 129.319565 
L 793.570909 129.454248 
L 796.766727 129.657613 
L 799.252364 129.797933 
L 802.093091 129.979545 
L 810.615273 130.411851 
L 816.651818 130.551106 
L 825.884182 130.475161 
L 840.442909 130.204432 
L 849.320182 130.32959 
L 855.001636 130.607905 
L 860.683091 131.090732 
L 863.168727 131.397572 
L 864.944182 131.96654 
L 867.429818 132.607632 
L 869.915455 133.021345 
L 875.241818 133.766689 
L 876.662182 134.244463 
L 877.727455 134.78953 
L 878.792727 135.55409 
L 879.858 136.590241 
L 880.923273 137.962728 
L 881.988545 139.726874 
L 883.053818 141.957352 
L 884.119091 144.720555 
L 885.184364 148.08375 
L 886.249636 152.114059 
L 887.314909 156.875869 
L 888.735273 164.455116 
L 890.155636 173.53151 
L 891.576 184.170096 
L 892.996364 196.361667 
L 894.771818 213.670925 
L 896.902364 237.016552 
L 900.098182 275.229768 
L 904.004182 321.650118 
L 906.134727 344.195889 
L 906.844909 351.031927 
L 907.2 207.291075 
L 907.2 207.291075 
" style="fill:none;stroke:#ff7f0e;stroke-linecap:square;stroke-width:4;"/>
   </g>
   <g id="line2d_34">
    <path clip-path="url(#p5070fbe7d5)" d="M 551.754 350.166494 
L 552.109091 353.489555 
L 552.464182 204.881855 
L 553.884545 192.996937 
L 555.304909 182.809616 
L 556.725273 174.337188 
L 557.790545 169.087024 
L 558.855818 164.733891 
L 559.921091 161.252182 
L 560.986364 158.565153 
L 562.051636 156.611213 
L 562.761818 155.665215 
L 563.472 154.9824 
L 564.182182 154.532809 
L 564.892364 154.286272 
L 565.602545 154.209022 
L 566.667818 154.343775 
L 568.088182 154.829 
L 570.573818 155.776692 
L 571.639091 155.982186 
L 572.704364 155.978664 
L 573.769636 155.728804 
L 574.834909 155.2233 
L 575.900182 154.453006 
L 576.965455 153.446333 
L 578.385818 151.796753 
L 581.226545 147.976954 
L 583.002 145.707025 
L 584.422364 144.213169 
L 585.487636 143.381663 
L 586.552909 142.865492 
L 587.263091 142.725313 
L 587.973273 142.766344 
L 588.683455 143.003811 
L 589.393636 143.452251 
L 590.103818 144.124679 
L 590.814 145.035177 
L 591.879273 146.875361 
L 592.944545 149.318043 
L 594.009818 152.402457 
L 595.075091 156.163911 
L 596.140364 160.632382 
L 596.495455 162.302834 
L 596.850545 163.24952 
L 597.205636 162.119323 
L 597.560727 161.768864 
L 598.270909 161.449797 
L 610.699091 154.099744 
L 614.960182 151.970939 
L 619.576364 149.964091 
L 623.482364 148.488816 
L 628.808727 146.76557 
L 633.424909 145.4836 
L 639.816545 143.987415 
L 646.563273 142.67922 
L 652.954909 141.63965 
L 658.991455 140.832121 
L 668.223818 139.985447 
L 672.129818 139.78527 
L 674.615455 139.678951 
L 678.521455 139.611945 
L 681.007091 139.586346 
L 684.913091 139.642222 
L 685.623273 139.689774 
L 686.688545 140.073754 
L 689.529273 140.806665 
L 691.659818 141.103329 
L 694.855636 141.184728 
L 698.051455 141.276951 
L 699.471818 141.528501 
L 700.892182 142.074754 
L 701.957455 142.735913 
L 703.022727 143.660113 
L 704.088 144.958513 
L 705.153273 146.640061 
L 706.218545 148.81021 
L 707.283818 151.531872 
L 708.349091 154.864552 
L 709.414364 158.875218 
L 710.479636 163.636641 
L 711.9 171.226142 
L 713.320364 180.339196 
L 714.740727 191.022614 
L 716.161091 203.265505 
L 717.936545 220.59852 
L 720.067091 243.872581 
L 723.262909 281.696219 
L 726.813818 323.148248 
L 728.944364 345.305722 
L 729.654545 352.013964 
L 730.009636 206.384407 
L 731.43 194.541134 
L 732.850364 184.36922 
L 734.270727 175.901729 
L 735.691091 169.086577 
L 736.756364 164.990121 
L 737.821636 161.722832 
L 738.886909 159.28353 
L 739.597091 158.022673 
L 740.307273 157.036348 
L 741.017455 156.315324 
L 741.727636 155.829746 
L 742.437818 155.536861 
L 743.503091 155.411969 
L 744.568364 155.582422 
L 747.054 156.425093 
L 748.474364 156.804142 
L 749.539636 156.908288 
L 750.604909 156.780393 
L 751.670182 156.410421 
L 752.735455 155.771987 
L 753.800727 154.896575 
L 755.221091 153.366794 
L 756.641455 151.539264 
L 761.612727 145.047257 
L 762.678 144.079055 
L 763.743273 143.404737 
L 764.453455 143.139869 
L 765.163636 143.0549 
L 765.873818 143.159965 
L 766.584 143.460566 
L 767.294182 143.971606 
L 768.004364 144.719949 
L 768.714545 145.710318 
L 769.424727 146.954641 
L 770.49 149.32697 
L 771.555273 152.344794 
L 772.620545 156.045866 
L 773.685818 160.447295 
L 774.040909 162.091244 
L 774.396 163.017126 
L 774.751091 161.869454 
L 775.106182 161.490235 
L 775.461273 161.373253 
L 781.497818 157.391985 
L 789.309818 152.773162 
L 796.056545 149.580726 
L 798.187091 148.722756 
L 800.317636 147.93494 
L 802.803273 147.089235 
L 807.774545 145.643338 
L 813.456 144.289857 
L 820.202727 142.978825 
L 826.594364 141.942512 
L 833.696182 140.969151 
L 840.087818 140.265022 
L 846.124364 139.76744 
L 853.581273 139.397116 
L 859.617818 139.297169 
L 863.168727 139.361989 
L 864.234 139.737874 
L 866.719636 140.390508 
L 868.850182 140.715167 
L 871.335818 140.831197 
L 875.952 140.969503 
L 877.372364 141.291814 
L 878.437636 141.729665 
L 879.502909 142.395697 
L 880.568182 143.340357 
L 881.633455 144.633288 
L 882.698727 146.333658 
L 883.764 148.515143 
L 884.829273 151.245582 
L 885.894545 154.596572 
L 886.959818 158.630864 
L 888.025091 163.413824 
L 889.445455 171.043048 
L 890.865818 180.192111 
L 892.286182 190.914008 
L 893.706545 203.193249 
L 895.482 220.586653 
L 897.612545 243.927297 
L 900.808364 281.86231 
L 904.359273 323.400159 
L 906.489818 345.598553 
L 906.844909 349.004424 
L 907.2 209.286764 
L 907.2 209.286764 
" style="fill:none;stroke:#2ca02c;stroke-linecap:square;stroke-width:4;"/>
   </g>
   <g id="line2d_35">
    <path clip-path="url(#p5070fbe7d5)" d="M 552.109091 280.8 
L 907.2 280.8 
" style="fill:none;stroke:#000000;stroke-dasharray:3.2,0.8,0.5,0.8;stroke-dashoffset:0;stroke-width:0.5;"/>
   </g>
   <g id="line2d_36">
    <path clip-path="url(#p5070fbe7d5)" d="M 729.654545 345.6 
L 729.654545 86.4 
" style="fill:none;stroke:#000000;stroke-dasharray:3.2,0.8,0.5,0.8;stroke-dashoffset:0;stroke-width:0.5;"/>
   </g>
   <g id="patch_8">
    <path d="M 552.109091 345.6 
L 552.109091 86.4 
" style="fill:none;stroke:#000000;stroke-linecap:square;stroke-linejoin:miter;stroke-width:0.8;"/>
   </g>
   <g id="patch_9">
    <path d="M 907.2 345.6 
L 907.2 86.4 
" style="fill:none;stroke:#000000;stroke-linecap:square;stroke-linejoin:miter;stroke-width:0.8;"/>
   </g>
   <g id="patch_10">
    <path d="M 552.109091 345.6 
L 907.2 345.6 
" style="fill:none;stroke:#000000;stroke-linecap:square;stroke-linejoin:miter;stroke-width:0.8;"/>
   </g>
   <g id="patch_11">
    <path d="M 552.109091 86.4 
L 907.2 86.4 
" style="fill:none;stroke:#000000;stroke-linecap:square;stroke-linejoin:miter;stroke-width:0.8;"/>
   </g>
  </g>
 </g>
 <defs>
  <clipPath id="p49290372d0">
   <rect height="259.2" width="355.090909" x="126" y="86.4"/>
  </clipPath>
  <clipPath id="p5070fbe7d5">
   <rect height="259.2" width="355.090909" x="552.109091" y="86.4"/>
  </clipPath>
 </defs>
</svg>
