<?xml version="1.0" encoding="utf-8" standalone="no"?>
<!DOCTYPE svg PUBLIC "-//W3C//DTD SVG 1.1//EN"
  "http://www.w3.org/Graphics/SVG/1.1/DTD/svg11.dtd">
<!-- Created with matplotlib (https://matplotlib.org/) -->
<svg height="720pt" version="1.1" viewBox="0 0 432 720" width="432pt" xmlns="http://www.w3.org/2000/svg" xmlns:xlink="http://www.w3.org/1999/xlink">
 <metadata>
  <rdf:RDF xmlns:cc="http://creativecommons.org/ns#" xmlns:dc="http://purl.org/dc/elements/1.1/" xmlns:rdf="http://www.w3.org/1999/02/22-rdf-syntax-ns#">
   <cc:Work>
    <dc:type rdf:resource="http://purl.org/dc/dcmitype/StillImage"/>
    <dc:date>2022-05-03T18:49:15.211316</dc:date>
    <dc:format>image/svg+xml</dc:format>
    <dc:creator>
     <cc:Agent>
      <dc:title>Matplotlib v3.3.4, https://matplotlib.org/</dc:title>
     </cc:Agent>
    </dc:creator>
   </cc:Work>
  </rdf:RDF>
 </metadata>
 <defs>
  <style type="text/css">*{stroke-linecap:butt;stroke-linejoin:round;}</style>
 </defs>
 <g id="figure_1">
  <g id="patch_1">
   <path d="M 0 720 
L 432 720 
L 432 0 
L 0 0 
z
" style="fill:#ffffff;"/>
  </g>
  <g id="axes_1">
   <g id="patch_2">
    <path d="M 86.4 346.285714 
L 388.8 346.285714 
L 388.8 72 
L 86.4 72 
z
" style="fill:#ffffff;"/>
   </g>
   <g id="matplotlib.axis_1">
    <g id="xtick_1">
     <g id="line2d_1">
      <defs>
       <path d="M 0 0 
L 0 3.5 
" id="me56e3ea3b5" style="stroke:#000000;stroke-width:0.8;"/>
      </defs>
      <g>
       <use style="fill:#ffffff;stroke:#000000;stroke-width:0.8;" x="86.4" xlink:href="#me56e3ea3b5" y="346.285714"/>
      </g>
     </g>
    </g>
    <g id="xtick_2">
     <g id="line2d_2">
      <g>
       <use style="fill:#ffffff;stroke:#000000;stroke-width:0.8;" x="207.36" xlink:href="#me56e3ea3b5" y="346.285714"/>
      </g>
     </g>
    </g>
    <g id="xtick_3">
     <g id="line2d_3">
      <g>
       <use style="fill:#ffffff;stroke:#000000;stroke-width:0.8;" x="328.32" xlink:href="#me56e3ea3b5" y="346.285714"/>
      </g>
     </g>
    </g>
   </g>
   <g id="matplotlib.axis_2">
    <g id="ytick_1">
     <g id="line2d_4">
      <defs>
       <path d="M 0 0 
L -3.5 0 
" id="m94ee158ecd" style="stroke:#000000;stroke-width:0.8;"/>
      </defs>
      <g>
       <use style="fill:#ffffff;stroke:#000000;stroke-width:0.8;" x="86.4" xlink:href="#m94ee158ecd" y="318.857143"/>
      </g>
     </g>
     <g id="text_1">
      <!-- −1 -->
      <g transform="translate(50.96 327.052768)scale(0.24 -0.24)">
       <defs>
        <path d="M 62.09375 22 
L 6.40625 22 
L 6.40625 28.59375 
L 62.09375 28.59375 
z
" id="STIXGeneral-Regular-8722"/>
        <path d="M 39.40625 0 
L 11.796875 0 
L 11.796875 1.5 
Q 17.296875 1.796875 19.296875 3.546875 
Q 21.296875 5.296875 21.296875 9.5 
L 21.296875 54.40625 
Q 21.296875 59.296875 18.296875 59.296875 
Q 16.90625 59.296875 13.796875 58.09375 
L 11.09375 57.09375 
L 11.09375 58.5 
L 29 67.59375 
L 29.90625 67.296875 
L 29.90625 7.59375 
Q 29.90625 4.296875 31.90625 2.890625 
Q 33.90625 1.5 39.40625 1.5 
z
" id="STIXGeneral-Regular-49"/>
       </defs>
       <use xlink:href="#STIXGeneral-Regular-8722"/>
       <use x="68.499985" xlink:href="#STIXGeneral-Regular-49"/>
      </g>
     </g>
    </g>
    <g id="ytick_2">
     <g id="line2d_5">
      <g>
       <use style="fill:#ffffff;stroke:#000000;stroke-width:0.8;" x="86.4" xlink:href="#m94ee158ecd" y="264"/>
      </g>
     </g>
     <g id="text_2">
      <!-- 0 -->
      <g transform="translate(67.4 272.195625)scale(0.24 -0.24)">
       <defs>
        <path d="M 47.59375 33 
Q 47.59375 26.296875 46.296875 20.34375 
Q 45 14.40625 42.453125 9.40625 
Q 39.90625 4.40625 35.40625 1.5 
Q 30.90625 -1.40625 25 -1.40625 
Q 18.90625 -1.40625 14.296875 1.6875 
Q 9.703125 4.796875 7.203125 10 
Q 4.703125 15.203125 3.546875 21.09375 
Q 2.40625 27 2.40625 33.59375 
Q 2.40625 42.90625 4.703125 50.34375 
Q 7 57.796875 12.34375 62.6875 
Q 17.703125 67.59375 25.40625 67.59375 
Q 35.203125 67.59375 41.390625 58 
Q 47.59375 48.40625 47.59375 33 
z
M 38 32.5 
Q 38 48.296875 34.640625 56.640625 
Q 31.296875 65 24.796875 65 
Q 18.59375 65 15.296875 56.59375 
Q 12 48.203125 12 32.90625 
Q 12 17.5 15.296875 9.34375 
Q 18.59375 1.203125 25 1.203125 
Q 31.296875 1.203125 34.640625 9.34375 
Q 38 17.5 38 32.5 
z
" id="STIXGeneral-Regular-48"/>
       </defs>
       <use xlink:href="#STIXGeneral-Regular-48"/>
      </g>
     </g>
    </g>
    <g id="ytick_3">
     <g id="line2d_6">
      <g>
       <use style="fill:#ffffff;stroke:#000000;stroke-width:0.8;" x="86.4" xlink:href="#m94ee158ecd" y="209.142857"/>
      </g>
     </g>
     <g id="text_3">
      <!-- 1 -->
      <g transform="translate(67.4 217.338482)scale(0.24 -0.24)">
       <use xlink:href="#STIXGeneral-Regular-49"/>
      </g>
     </g>
    </g>
    <g id="ytick_4">
     <g id="line2d_7">
      <g>
       <use style="fill:#ffffff;stroke:#000000;stroke-width:0.8;" x="86.4" xlink:href="#m94ee158ecd" y="154.285714"/>
      </g>
     </g>
     <g id="text_4">
      <!-- 2 -->
      <g transform="translate(67.4 162.481339)scale(0.24 -0.24)">
       <defs>
        <path d="M 47.40625 13.703125 
L 42 0 
L 2.90625 0 
L 2.90625 1.203125 
L 20.703125 20.09375 
Q 27.703125 27.40625 30.703125 33.5 
Q 33.703125 39.59375 33.703125 46.09375 
Q 33.703125 52.796875 30 56.5 
Q 26.296875 60.203125 19.796875 60.203125 
Q 14.40625 60.203125 11.25 57.390625 
Q 8.09375 54.59375 5.09375 47.203125 
L 3 47.703125 
Q 4.703125 57 9.84375 62.296875 
Q 15 67.59375 23.796875 67.59375 
Q 32.09375 67.59375 37.1875 62.59375 
Q 42.296875 57.59375 42.296875 50 
Q 42.296875 38.703125 29.5 25.203125 
L 13 7.59375 
L 36.40625 7.59375 
Q 39.703125 7.59375 41.640625 8.890625 
Q 43.59375 10.203125 46 14.296875 
z
" id="STIXGeneral-Regular-50"/>
       </defs>
       <use xlink:href="#STIXGeneral-Regular-50"/>
      </g>
     </g>
    </g>
    <g id="ytick_5">
     <g id="line2d_8">
      <g>
       <use style="fill:#ffffff;stroke:#000000;stroke-width:0.8;" x="86.4" xlink:href="#m94ee158ecd" y="99.428571"/>
      </g>
     </g>
     <g id="text_5">
      <!-- 3 -->
      <g transform="translate(67.4 107.624196)scale(0.24 -0.24)">
       <defs>
        <path d="M 6.09375 51 
L 4.5 51.40625 
Q 6.796875 58.90625 11.6875 63.25 
Q 16.59375 67.59375 24.09375 67.59375 
Q 31.09375 67.59375 35.390625 63.796875 
Q 39.703125 60 39.703125 53.90625 
Q 39.703125 45.703125 30.40625 40.09375 
Q 35.90625 37.703125 38.703125 34.796875 
Q 43.09375 29.90625 43.09375 21.90625 
Q 43.09375 13.90625 38.5 7.90625 
Q 35.09375 3.296875 28.75 0.9375 
Q 22.40625 -1.40625 15.296875 -1.40625 
Q 4.09375 -1.40625 4.09375 4.296875 
Q 4.09375 5.90625 5.296875 6.90625 
Q 6.5 7.90625 8.203125 7.90625 
Q 10.703125 7.90625 14.296875 5.296875 
Q 18.703125 2.203125 22.90625 2.203125 
Q 28.40625 2.203125 32.15625 6.640625 
Q 35.90625 11.09375 35.90625 17.5 
Q 35.90625 29 25.5 32 
Q 22.40625 33 15.296875 33 
L 15.296875 34.40625 
Q 20.90625 36.296875 23.703125 38 
Q 31.796875 42.59375 31.796875 51.40625 
Q 31.796875 56.40625 28.9375 59 
Q 26.09375 61.59375 21 61.59375 
Q 12 61.59375 6.09375 51 
z
" id="STIXGeneral-Regular-51"/>
       </defs>
       <use xlink:href="#STIXGeneral-Regular-51"/>
      </g>
     </g>
    </g>
    <g id="text_6">
     <!-- $C_L$ -->
     <g transform="translate(41.75125 222.462857)rotate(-90)scale(0.24 -0.24)">
      <defs>
       <path d="M 68.90625 66.40625 
L 65.203125 46.40625 
L 63.40625 46.703125 
Q 61.59375 63 48.5 63 
Q 37.59375 63 28.59375 53.296875 
Q 23.296875 47.703125 20.546875 39.703125 
Q 17.796875 31.703125 17.796875 23.203125 
Q 17.796875 2.703125 35.296875 2.703125 
Q 41.5 2.703125 46.640625 5.296875 
Q 51.796875 7.90625 58.203125 14.59375 
L 60 13.09375 
Q 53.296875 5.203125 46.84375 1.703125 
Q 40.40625 -1.796875 32.703125 -1.796875 
Q 21 -1.796875 13.796875 5.140625 
Q 6.59375 12.09375 6.59375 24.296875 
Q 6.59375 34.59375 11.6875 43.9375 
Q 16.796875 53.296875 25.296875 59.296875 
Q 35.5 66.59375 47.203125 66.59375 
Q 54.09375 66.59375 58.90625 64.90625 
Q 60.90625 64.203125 63 64.203125 
Q 65.703125 64.203125 66.796875 66.40625 
z
" id="STIXGeneral-Italic-67"/>
       <path d="M 55.90625 18 
L 50.09375 0 
L -0.796875 0 
L -0.796875 1.59375 
Q 3.40625 2 4.703125 3.296875 
Q 6 4.59375 7.40625 9.40625 
L 19.59375 53.203125 
Q 20.703125 56.90625 20.703125 59.40625 
Q 20.703125 61.59375 19.140625 62.5 
Q 17.59375 63.40625 13 63.703125 
L 13 65.296875 
L 40.296875 65.296875 
L 40.296875 63.703125 
Q 35.703125 63.40625 33.546875 61.796875 
Q 31.40625 60.203125 30.203125 56 
L 18.203125 13.09375 
Q 17.203125 9.296875 17.203125 7.703125 
Q 17.203125 5.40625 19.390625 4.5 
Q 21.59375 3.59375 27.703125 3.59375 
Q 35.40625 3.59375 38.75 4.296875 
Q 42.09375 5 45.703125 7.40625 
Q 49.796875 10.09375 53.90625 18.59375 
z
" id="STIXGeneral-Italic-76"/>
      </defs>
      <use transform="translate(0 0.40625)" xlink:href="#STIXGeneral-Italic-67"/>
      <use transform="translate(66.699997 -12.821875)scale(0.7)" xlink:href="#STIXGeneral-Italic-76"/>
     </g>
    </g>
   </g>
   <g id="line2d_9">
    <path clip-path="url(#p51b7b4eed6)" d="M 86.4 287.253359 
L 87.005405 278.105575 
L 87.610811 272.168802 
L 88.216216 268.59664 
L 88.821622 266.542684 
L 91.243243 261.035162 
L 95.481081 251.588634 
L 97.902703 246.699868 
L 100.324324 241.92142 
L 102.140541 238.524997 
L 103.654054 236.048177 
L 104.562162 234.676734 
L 107.589189 230.100744 
L 108.497297 227.775805 
L 110.010811 225.618618 
L 114.248649 219.573302 
L 114.854054 219.43136 
L 115.459459 218.672273 
L 117.275676 216.140607 
L 118.183784 214.125151 
L 119.091892 212.680627 
L 120.605405 209.953186 
L 120.908108 209.505529 
L 121.513514 209.100388 
L 122.724324 206.942652 
L 126.356757 200.230438 
L 128.778378 195.098507 
L 129.686486 192.54948 
L 134.227027 182.417986 
L 135.135135 179.818561 
L 136.345946 177.246365 
L 137.254054 175.168902 
L 137.859459 173.668631 
L 139.372973 170.902995 
L 140.281081 169.129754 
L 140.886486 168.469292 
L 143.610811 163.815474 
L 145.124324 161.575401 
L 146.335135 160.170041 
L 149.059459 156.993257 
L 150.572973 155.762557 
L 151.783784 155.122674 
L 153.297297 154.407699 
L 154.810811 153.986531 
L 156.021622 153.874816 
L 157.232432 153.968978 
L 158.443243 154.27079 
L 159.654054 154.781338 
L 160.864865 155.500965 
L 162.378378 156.608488 
L 162.681081 156.557497 
L 163.286486 155.969757 
L 163.891892 155.784509 
L 169.037838 154.909916 
L 172.367568 154.688027 
L 177.210811 154.620451 
L 186.594595 154.58962 
L 190.832432 154.399415 
L 196.583784 154.033789 
L 201.72973 153.495439 
L 206.875676 152.752194 
L 212.324324 151.753642 
L 220.497297 149.957431 
L 243.502703 144.704682 
L 250.767568 143.335494 
L 256.821622 142.407536 
L 262.27027 141.783193 
L 269.232432 141.290726 
L 274.378378 141.167422 
L 283.156757 141.252852 
L 288.605405 141.48854 
L 294.054054 141.977025 
L 306.162162 142.765194 
L 307.372973 142.877391 
L 307.978378 143.060406 
L 313.72973 143.364817 
L 316.151351 144.614951 
L 318.572973 145.890636 
L 320.994595 147.40668 
L 323.113514 148.970819 
L 325.232432 150.790292 
L 327.351351 152.89445 
L 329.167568 154.932356 
L 331.589189 158.020678 
L 334.010811 161.569353 
L 336.735135 166.136423 
L 339.459459 171.38454 
L 341.578378 175.975287 
L 344 181.708312 
L 351.87027 204.098043 
L 355.2 214.63343 
L 361.859459 235.46626 
L 364.886486 244.231509 
L 367.308108 250.554722 
L 369.427027 255.381379 
L 371.243243 258.906679 
L 372.454054 260.880651 
L 373.967568 262.96457 
L 375.178378 264.289757 
L 376.389189 265.304013 
L 377.297297 265.874509 
L 379.113514 266.310798 
L 380.324324 266.279044 
L 381.535135 265.974699 
L 382.745946 265.380503 
L 384.259459 264.287637 
L 385.772973 262.735237 
L 387.286486 260.828049 
L 388.8 258.602127 
L 388.8 258.602127 
" style="fill:none;stroke:#1f77b4;stroke-linecap:square;stroke-width:4;"/>
   </g>
   <g id="line2d_10">
    <path clip-path="url(#p51b7b4eed6)" d="M 86.4 258.288688 
L 88.216216 255.529403 
L 90.335135 251.887923 
L 93.059459 246.723338 
L 101.232432 230.78538 
L 103.351351 227.285039 
L 105.47027 224.203421 
L 107.589189 221.484418 
L 110.616216 218.046452 
L 111.221622 218.131979 
L 111.827027 217.463324 
L 113.945946 215.29433 
L 114.551351 214.887217 
L 115.156757 214.467865 
L 115.762162 214.075284 
L 116.367568 213.748429 
L 117.881081 212.798078 
L 119.697297 211.947429 
L 121.513514 211.36302 
L 122.421622 211.205149 
L 123.32973 211.019779 
L 124.540541 210.73754 
L 125.145946 210.196839 
L 125.751351 210.034549 
L 129.686486 209.349099 
L 131.502703 208.785 
L 133.318919 207.972363 
L 134.227027 207.45398 
L 134.832432 207.998394 
L 135.135135 207.846284 
L 136.043243 207.050763 
L 137.556757 205.583146 
L 139.372973 203.474886 
L 141.491892 200.58412 
L 143.610811 197.277819 
L 145.427027 194.481012 
L 145.72973 194.053404 
L 146.637838 191.944337 
L 147.848649 189.785494 
L 148.756757 188.135282 
L 149.362162 187.431208 
L 152.994595 181.373331 
L 155.718919 177.426208 
L 157.535135 175.197284 
L 159.048649 173.666885 
L 160.259459 172.691823 
L 162.378378 171.549758 
L 162.681081 171.127138 
L 163.589189 169.329329 
L 166.918919 165.015504 
L 168.735135 163.128067 
L 171.156757 160.749179 
L 173.881081 158.394618 
L 177.210811 155.817267 
L 182.356757 152.144809 
L 186.897297 149.128759 
L 189.924324 147.372536 
L 192.345946 146.211587 
L 194.464865 145.412529 
L 196.583784 144.831702 
L 198.702703 144.429697 
L 199.308108 144.580869 
L 199.913514 144.664434 
L 201.72973 144.634567 
L 205.059459 144.759829 
L 209.902703 145.197974 
L 221.102703 146.403505 
L 227.156757 147.250185 
L 238.962162 149.016557 
L 243.502703 149.257691 
L 245.924324 149.135515 
L 249.254054 148.722699 
L 253.189189 148.004488 
L 261.059459 146.532944 
L 265.297297 146.0139 
L 269.837838 145.71051 
L 279.221622 145.485897 
L 291.027027 145.45298 
L 297.686486 145.829457 
L 313.72973 146.888515 
L 316.756757 148.572452 
L 319.783784 150.302922 
L 322.205405 151.940754 
L 323.718919 153.172805 
L 324.627027 154.063871 
L 326.745946 156.013782 
L 329.167568 158.556437 
L 331.589189 161.465344 
L 334.010811 164.787339 
L 336.432432 168.555634 
L 339.156757 173.317398 
L 341.275676 177.531886 
L 344.605405 184.803617 
L 345.513514 187.085411 
L 347.32973 191.823971 
L 350.659459 200.840994 
L 354.594595 212.274348 
L 364.886486 242.845948 
L 367.308108 249.071571 
L 369.427027 253.883151 
L 370.940541 256.889685 
L 372.454054 259.500777 
L 374.572973 262.385383 
L 375.783784 263.689832 
L 376.994595 264.684495 
L 378.205405 265.370332 
L 379.416216 265.750185 
L 380.627027 265.827596 
L 381.837838 265.610246 
L 383.048649 265.108628 
L 384.259459 264.338605 
L 385.47027 263.314196 
L 386.983784 261.702009 
L 388.497297 259.754115 
L 388.8 259.327718 
L 388.8 259.327718 
" style="fill:none;stroke:#ff7f0e;stroke-linecap:square;stroke-width:4;"/>
   </g>
   <g id="line2d_11">
    <path clip-path="url(#p51b7b4eed6)" d="M 86.4 235.035329 
L 87.005405 243.305518 
L 87.610811 248.32181 
L 88.216216 250.932763 
L 88.518919 251.601917 
L 89.124324 252.197805 
L 92.756757 253.75083 
L 94.572973 254.173684 
L 96.994595 254.380416 
L 97.297297 254.263734 
L 99.718919 254.391705 
L 100.627027 254.468028 
L 101.232432 254.398031 
L 101.837838 254.580412 
L 102.443243 254.747702 
L 106.075676 255.015409 
L 107.589189 255.383674 
L 108.194595 256.451322 
L 108.497297 256.648523 
L 109.102703 256.785801 
L 110.010811 257.083604 
L 110.313514 257.097532 
L 110.616216 257.289396 
L 111.221622 258.231045 
L 111.827027 258.418572 
L 113.340541 259.000813 
L 114.248649 259.464512 
L 114.854054 259.293911 
L 115.156757 259.358457 
L 115.762162 259.807637 
L 116.67027 260.498799 
L 116.972973 260.677664 
L 117.275676 261.012637 
L 118.183784 262.512576 
L 118.789189 263.112899 
L 120.908108 266.029248 
L 121.513514 266.262632 
L 122.118919 267.219818 
L 124.237838 270.698388 
L 124.843243 271.485173 
L 125.448649 272.098251 
L 126.054054 273.09699 
L 129.081081 279.292481 
L 129.686486 280.799619 
L 132.108108 285.38938 
L 133.621622 287.926341 
L 133.924324 288.288156 
L 134.227027 289.035993 
L 134.832432 291.498813 
L 135.135135 292.027724 
L 135.740541 292.712619 
L 137.859459 295.587785 
L 139.372973 296.571892 
L 140.281081 297.160262 
L 140.886486 296.982731 
L 142.4 297.440267 
L 143.308108 297.475147 
L 144.216216 297.373707 
L 145.124324 297.158231 
L 145.427027 297.225538 
L 145.72973 297.11899 
L 146.335135 296.335578 
L 148.756757 294.849755 
L 149.362162 294.69225 
L 150.572973 293.554641 
L 151.783784 292.206869 
L 154.205405 289.435809 
L 157.232432 285.572943 
L 162.681081 278.569641 
L 165.405405 275.432133 
L 167.221622 273.592374 
L 168.432432 272.46937 
L 171.762162 269.485417 
L 175.394595 266.567059 
L 180.843243 262.543976 
L 185.989189 259.109534 
L 188.410811 257.715589 
L 191.740541 256.12274 
L 193.859459 255.389075 
L 195.978378 254.892174 
L 198.097297 254.654662 
L 199.005405 254.646426 
L 199.610811 254.92638 
L 204.151351 255.532917 
L 207.481081 256.306224 
L 212.324324 257.69699 
L 219.286486 259.95491 
L 224.735135 261.935525 
L 232.908108 265.204692 
L 237.145946 266.767198 
L 240.172973 267.696692 
L 244.410811 268.711112 
L 247.135135 269.022808 
L 250.162162 269.133392 
L 254.097297 269.024321 
L 267.718919 268.460952 
L 283.156757 268.170837 
L 296.172973 267.51578 
L 298.594595 267.562021 
L 314.940541 267.544199 
L 317.059459 267.665975 
L 322.810811 267.662523 
L 323.416216 267.638014 
L 324.627027 267.819076 
L 331.286486 267.468992 
L 336.735135 266.929311 
L 340.367568 266.411245 
L 341.578378 266.197594 
L 343.394595 265.879358 
L 344 265.811406 
L 344.908108 265.239712 
L 347.32973 265.045207 
L 349.448649 264.652083 
L 352.778378 263.968534 
L 353.989189 263.694388 
L 355.805405 263.344819 
L 359.135135 262.685429 
L 360.043243 262.483537 
L 361.556757 262.30218 
L 362.464865 262.750696 
L 363.675676 262.66589 
L 367.913514 262.51305 
L 371.848649 262.569287 
L 373.059459 262.59069 
L 376.086486 262.892869 
L 377.6 263.105772 
L 378.508108 263.298945 
L 384.259459 264.050968 
L 388.8 264.725591 
L 388.8 264.725591 
" style="fill:none;stroke:#2ca02c;stroke-linecap:square;stroke-width:4;"/>
   </g>
   <g id="line2d_12">
    <path clip-path="url(#p51b7b4eed6)" d="M 86.4 264 
L 388.8 264 
" style="fill:none;stroke:#000000;stroke-dasharray:3.2,0.8,0.5,0.8;stroke-dashoffset:0;stroke-width:0.5;"/>
   </g>
   <g id="line2d_13">
    <path clip-path="url(#p51b7b4eed6)" d="M 388.8 346.285714 
L 388.8 72 
" style="fill:none;stroke:#000000;stroke-dasharray:3.2,0.8,0.5,0.8;stroke-dashoffset:0;stroke-width:0.5;"/>
   </g>
   <g id="patch_3">
    <path d="M 86.4 346.285714 
L 86.4 72 
" style="fill:none;stroke:#000000;stroke-linecap:square;stroke-linejoin:miter;stroke-width:0.8;"/>
   </g>
   <g id="patch_4">
    <path d="M 388.8 346.285714 
L 388.8 72 
" style="fill:none;stroke:#000000;stroke-linecap:square;stroke-linejoin:miter;stroke-width:0.8;"/>
   </g>
   <g id="patch_5">
    <path d="M 86.4 346.285714 
L 388.8 346.285714 
" style="fill:none;stroke:#000000;stroke-linecap:square;stroke-linejoin:miter;stroke-width:0.8;"/>
   </g>
   <g id="patch_6">
    <path d="M 86.4 72 
L 388.8 72 
" style="fill:none;stroke:#000000;stroke-linecap:square;stroke-linejoin:miter;stroke-width:0.8;"/>
   </g>
   <g id="legend_1">
    <g id="line2d_14">
     <path d="M 78.360596 55.847143 
L 118.344596 55.847143 
" style="fill:none;stroke:#1f77b4;stroke-linecap:square;stroke-width:4;"/>
    </g>
    <g id="line2d_15"/>
    <g id="text_7">
     <!-- 1_stroke -->
     <g transform="translate(134.338196 62.844343)scale(0.19992 -0.19992)">
      <defs>
       <path d="M 50 -12.5 
L 0 -12.5 
L 0 -7.5 
L 50 -7.5 
z
" id="STIXGeneral-Regular-95"/>
       <path d="M 15.59375 30.09375 
L 26 23.796875 
Q 31 20.796875 32.890625 18.1875 
Q 34.796875 15.59375 34.796875 11.5 
Q 34.796875 6.5 30.640625 2.75 
Q 26.5 -1 20.796875 -1 
Q 16.09375 -1 13.5 -0.09375 
Q 10.796875 0.796875 8.90625 0.796875 
Q 7.203125 0.796875 6.5 -0.40625 
L 5.203125 -0.40625 
L 5.203125 15.296875 
L 6.796875 15.296875 
Q 8.40625 8 11.40625 4.59375 
Q 14.40625 1.203125 19.5 1.203125 
Q 23.203125 1.203125 25.5 3.296875 
Q 27.796875 5.40625 27.796875 8.59375 
Q 27.796875 13.203125 22.5 16.09375 
L 17.09375 19.09375 
Q 5.09375 25.796875 5.09375 33.59375 
Q 5.09375 39.40625 8.84375 42.65625 
Q 12.59375 45.90625 18.90625 45.90625 
Q 23.296875 45.90625 25.59375 44.796875 
Q 27.40625 44 28.40625 44 
Q 29.09375 44 30 45 
L 31.09375 45 
L 31.59375 31.40625 
L 30.09375 31.40625 
Q 28.40625 38.203125 25.84375 40.953125 
Q 23.296875 43.703125 18.796875 43.703125 
Q 15.40625 43.703125 13.34375 42 
Q 11.296875 40.296875 11.296875 36.90625 
Q 11.296875 35.203125 12.4375 33.25 
Q 13.59375 31.296875 15.59375 30.09375 
z
" id="STIXGeneral-Regular-115"/>
       <path d="M 26.59375 7.703125 
L 27.90625 6.59375 
Q 23.09375 -1 15.796875 -1 
Q 7 -1 7 11.703125 
L 7 41.796875 
L 1.703125 41.796875 
Q 1.296875 42.09375 1.296875 42.5 
Q 1.296875 43.296875 3 44.40625 
Q 6.796875 46.59375 12.703125 55.09375 
Q 12.90625 55.40625 13.65625 56.34375 
Q 14.40625 57.296875 14.703125 57.90625 
Q 15.40625 57.90625 15.40625 56.59375 
L 15.40625 45 
L 25.5 45 
L 25.5 41.796875 
L 15.40625 41.796875 
L 15.40625 13.203125 
Q 15.40625 8.40625 16.59375 6.296875 
Q 17.796875 4.203125 20.59375 4.203125 
Q 23.59375 4.203125 26.59375 7.703125 
z
" id="STIXGeneral-Regular-116"/>
       <path d="M 16 45.796875 
L 16 36.59375 
Q 19.796875 42 22.34375 44 
Q 24.90625 46 28 46 
Q 30.59375 46 32.046875 44.59375 
Q 33.5 43.203125 33.5 40.703125 
Q 33.5 38.59375 32.453125 37.390625 
Q 31.40625 36.203125 29.59375 36.203125 
Q 27.703125 36.203125 25.59375 38.203125 
Q 24 39.703125 23 39.703125 
Q 20.90625 39.703125 18.453125 36.796875 
Q 16 33.90625 16 31.5 
L 16 9 
Q 16 4.703125 17.703125 3.203125 
Q 19.40625 1.703125 24.5 1.5 
L 24.5 0 
L 0.5 0 
L 0.5 1.5 
Q 5.296875 2.40625 6.4375 3.5 
Q 7.59375 4.59375 7.59375 8.40625 
L 7.59375 33.40625 
Q 7.59375 36.703125 6.84375 38.046875 
Q 6.09375 39.40625 4.203125 39.40625 
Q 2.59375 39.40625 0.703125 39 
L 0.703125 40.59375 
Q 7 42.59375 15.5 46 
z
" id="STIXGeneral-Regular-114"/>
       <path d="M 47 23.09375 
Q 47 12.59375 40.75 5.796875 
Q 34.5 -1 24.5 -1 
Q 15.296875 -1 9.09375 5.75 
Q 2.90625 12.5 2.90625 22.796875 
Q 2.90625 33.203125 9.09375 39.59375 
Q 15.296875 46 25.40625 46 
Q 34.703125 46 40.84375 39.640625 
Q 47 33.296875 47 23.09375 
z
M 38 20.40625 
Q 38 31.796875 33 38.203125 
Q 29 43.203125 23.5 43.203125 
Q 18.296875 43.203125 15.09375 38.953125 
Q 11.90625 34.703125 11.90625 27.296875 
Q 11.90625 14.5 17.203125 6.796875 
Q 20.59375 1.796875 26.203125 1.796875 
Q 31.703125 1.796875 34.84375 6.75 
Q 38 11.703125 38 20.40625 
z
" id="STIXGeneral-Regular-111"/>
       <path d="M 50.5 0 
L 28.703125 0 
L 28.703125 1.5 
L 30.59375 1.5 
Q 32.703125 1.5 32.703125 3 
Q 32.703125 3.90625 31.59375 5.296875 
L 16.59375 25.09375 
L 16.59375 6.703125 
Q 16.59375 4.09375 17.84375 2.890625 
Q 19.09375 1.703125 22.09375 1.59375 
L 24.09375 1.5 
L 24.09375 0 
L 0.703125 0 
L 0.703125 1.5 
Q 6.09375 2.40625 7.140625 3.34375 
Q 8.203125 4.296875 8.203125 8.203125 
L 8.203125 56.40625 
Q 8.203125 60 7.296875 61.25 
Q 6.40625 62.5 3.90625 62.5 
Q 3.296875 62.5 0.703125 62.296875 
L 0.703125 63.90625 
L 3.703125 64.703125 
Q 9.703125 66.296875 16.203125 68.296875 
L 16.59375 68.09375 
L 16.59375 26.09375 
L 30.296875 38.296875 
Q 32.59375 40.40625 32.59375 41.796875 
Q 32.59375 42.796875 31.546875 43.140625 
Q 30.5 43.5 27.59375 43.59375 
L 27.59375 45 
L 48 45 
L 48 43.5 
Q 43 43.5 39.140625 41.34375 
Q 35.296875 39.203125 26.40625 30.90625 
L 23.5 28.203125 
L 38.796875 8.796875 
Q 44.203125 1.90625 50.5 1.5 
z
" id="STIXGeneral-Regular-107"/>
       <path d="M 40.796875 16.40625 
L 42.40625 15.703125 
Q 36.40625 -1 21.5 -1 
Q 12.703125 -1 7.59375 5.140625 
Q 2.5 11.296875 2.5 21.703125 
Q 2.5 32.40625 8.203125 39.203125 
Q 13.90625 46 23.203125 46 
Q 32.203125 46 37.09375 39.09375 
Q 40 35.09375 40.5 27.703125 
L 9.703125 27.703125 
Q 10.09375 21.40625 10.9375 18.09375 
Q 11.796875 14.796875 14.296875 11.40625 
Q 18.5 5.90625 25.40625 5.90625 
Q 30.296875 5.90625 33.640625 8.296875 
Q 37 10.703125 40.796875 16.40625 
z
M 9.90625 30.90625 
L 30.296875 30.90625 
Q 29.40625 37.203125 27.34375 39.796875 
Q 25.296875 42.40625 20.5 42.40625 
Q 16.296875 42.40625 13.5 39.453125 
Q 10.703125 36.5 9.90625 30.90625 
z
" id="STIXGeneral-Regular-101"/>
      </defs>
      <use xlink:href="#STIXGeneral-Regular-49"/>
      <use x="49.999985" xlink:href="#STIXGeneral-Regular-95"/>
      <use x="99.999969" xlink:href="#STIXGeneral-Regular-115"/>
      <use x="138.899963" xlink:href="#STIXGeneral-Regular-116"/>
      <use x="166.699951" xlink:href="#STIXGeneral-Regular-114"/>
      <use x="199.999939" xlink:href="#STIXGeneral-Regular-111"/>
      <use x="249.999924" xlink:href="#STIXGeneral-Regular-107"/>
      <use x="299.999908" xlink:href="#STIXGeneral-Regular-101"/>
     </g>
    </g>
    <g id="line2d_16">
     <path d="M 78.360596 84.176432 
L 118.344596 84.176432 
" style="fill:none;stroke:#ff7f0e;stroke-linecap:square;stroke-width:4;"/>
    </g>
    <g id="line2d_17"/>
    <g id="text_8">
     <!-- 5_stroke -->
     <g transform="translate(134.338196 91.173632)scale(0.19992 -0.19992)">
      <defs>
       <path d="M 43.796875 68.09375 
L 40.203125 59.59375 
Q 39.59375 58.296875 37.5 58.296875 
L 18.09375 58.296875 
L 14.09375 49.796875 
Q 25.09375 47.703125 30 45.25 
Q 34.90625 42.796875 39.09375 37 
Q 42.59375 32.203125 42.59375 24.296875 
Q 42.59375 17.09375 40.25 12.1875 
Q 37.90625 7.296875 32.796875 3.5 
Q 26 -1.40625 15.796875 -1.40625 
Q 10.09375 -1.40625 6.59375 0.296875 
Q 3.09375 2 3.09375 4.796875 
Q 3.09375 8.59375 7.59375 8.59375 
Q 11.203125 8.59375 15 5.5 
Q 18.90625 2.296875 22.09375 2.296875 
Q 27.296875 2.296875 31.4375 7.5 
Q 35.59375 12.703125 35.59375 19.203125 
Q 35.59375 28.796875 28.90625 34.203125 
Q 20.203125 41.203125 7.59375 41.203125 
Q 6.40625 41.203125 6.40625 42 
L 6.5 42.5 
L 17.40625 66.203125 
L 38.09375 66.203125 
Q 39.796875 66.203125 40.75 66.703125 
Q 41.703125 67.203125 42.90625 68.796875 
z
" id="STIXGeneral-Regular-53"/>
      </defs>
      <use xlink:href="#STIXGeneral-Regular-53"/>
      <use x="49.999985" xlink:href="#STIXGeneral-Regular-95"/>
      <use x="99.999969" xlink:href="#STIXGeneral-Regular-115"/>
      <use x="138.899963" xlink:href="#STIXGeneral-Regular-116"/>
      <use x="166.699951" xlink:href="#STIXGeneral-Regular-114"/>
      <use x="199.999939" xlink:href="#STIXGeneral-Regular-111"/>
      <use x="249.999924" xlink:href="#STIXGeneral-Regular-107"/>
      <use x="299.999908" xlink:href="#STIXGeneral-Regular-101"/>
     </g>
    </g>
    <g id="line2d_18">
     <path d="M 243.175894 55.847143 
L 283.159894 55.847143 
" style="fill:none;stroke:#2ca02c;stroke-linecap:square;stroke-width:4;"/>
    </g>
    <g id="line2d_19"/>
    <g id="text_9">
     <!-- wake_effect -->
     <g transform="translate(299.153494 62.844343)scale(0.19992 -0.19992)">
      <defs>
       <path d="M 69.40625 45 
L 69.40625 43.5 
Q 67.90625 43 67.203125 42.046875 
Q 66.5 41.09375 65.296875 38.09375 
L 51.5 3.5 
Q 49.5 -1.40625 48.703125 -1.40625 
Q 48.203125 -1.40625 47.84375 -0.75 
Q 47.5 -0.09375 46.296875 2.90625 
L 37.203125 26.5 
L 26 2.5 
Q 24.203125 -1.40625 23.5 -1.40625 
Q 22.59375 -1.40625 20.90625 3 
L 7.40625 37.203125 
Q 5.90625 41.09375 4.90625 42.1875 
Q 3.90625 43.296875 2.09375 43.5 
L 2.09375 45 
L 20.09375 45 
L 20.09375 43.5 
Q 17.5 43.203125 16.5 42.5 
Q 15.5 41.796875 15.5 40.203125 
Q 15.5 38.703125 16.09375 37.203125 
L 26 11.09375 
L 35.09375 31 
L 33.09375 36.59375 
Q 31.703125 40.59375 30.34375 41.890625 
Q 29 43.203125 26.203125 43.5 
L 26.203125 45 
L 46.5 45 
L 46.5 43.5 
Q 43 43 41.84375 42.296875 
Q 40.703125 41.59375 40.703125 40 
Q 40.703125 38.40625 42.40625 34 
L 50.796875 11.59375 
L 59.796875 33.796875 
Q 61.5 38 61.5 40.5 
Q 61.5 41.703125 60.546875 42.34375 
Q 59.59375 43 57.09375 43.5 
L 57.09375 45 
z
" id="STIXGeneral-Regular-119"/>
       <path d="M 44.203125 6.59375 
L 44.203125 3.796875 
Q 40.40625 -1 35.203125 -1 
Q 29.5 -1 28.796875 6.296875 
L 28.703125 6.296875 
Q 22.296875 -1 14.203125 -1 
Q 9.5 -1 6.59375 1.75 
Q 3.703125 4.5 3.703125 9.40625 
Q 3.703125 16.40625 10.703125 21.09375 
Q 15.5 24.296875 28.703125 29.203125 
L 28.703125 34.59375 
Q 28.703125 39.09375 26.546875 41.34375 
Q 24.40625 43.59375 20.90625 43.59375 
Q 17.90625 43.59375 15.90625 42.140625 
Q 13.90625 40.703125 13.90625 38.703125 
Q 13.90625 37.796875 14.203125 36.6875 
Q 14.5 35.59375 14.5 34.5 
Q 14.5 33 13.140625 31.703125 
Q 11.796875 30.40625 9.90625 30.40625 
Q 8.203125 30.40625 6.890625 31.703125 
Q 5.59375 33 5.59375 35 
Q 5.59375 39.796875 10.703125 43 
Q 15.40625 46 22.203125 46 
Q 30.296875 46 34 41.5 
Q 35.796875 39.40625 36.296875 37.25 
Q 36.796875 35.09375 36.796875 30.40625 
L 36.796875 11.296875 
Q 36.796875 4.703125 39.90625 4.703125 
Q 41.90625 4.703125 44.203125 6.59375 
z
M 28.703125 12.703125 
L 28.703125 26.796875 
Q 19.5 23.59375 15.90625 20.203125 
Q 12.5 17.09375 12.5 12.5 
Q 12.5 8.703125 14.390625 6.75 
Q 16.296875 4.796875 19.40625 4.796875 
Q 22.703125 4.796875 25.203125 6.40625 
Q 27.296875 7.90625 28 9.203125 
Q 28.703125 10.5 28.703125 12.703125 
z
" id="STIXGeneral-Regular-97"/>
       <path d="M 2.09375 45 
L 10.296875 45 
Q 10.40625 51 11.09375 54.34375 
Q 11.796875 57.703125 13.796875 61.09375 
Q 18 68.296875 27.90625 68.296875 
Q 32.40625 68.296875 35.34375 66.546875 
Q 38.296875 64.796875 38.296875 62.09375 
Q 38.296875 60.40625 37.09375 59.203125 
Q 35.90625 58 34.09375 58 
Q 31.703125 58 29.59375 61.59375 
Q 27.203125 65.5 24.296875 65.5 
Q 18.703125 65.5 18.703125 56.59375 
L 18.703125 45 
L 30.90625 45 
L 30.90625 41.796875 
L 18.703125 41.796875 
L 18.703125 10.40625 
Q 18.703125 4.796875 20.296875 3.25 
Q 21.90625 1.703125 28 1.5 
L 28 0 
L 2 0 
L 2 1.5 
Q 7.40625 1.796875 8.84375 3.34375 
Q 10.296875 4.90625 10.296875 10.40625 
L 10.296875 41.796875 
L 2.09375 41.796875 
z
" id="STIXGeneral-Regular-102"/>
       <path d="M 39.796875 15.59375 
L 41.203125 14.703125 
Q 36.90625 6.296875 33 3.203125 
Q 27.90625 -1 21.5 -1 
Q 13.203125 -1 7.84375 5.25 
Q 2.5 11.5 2.5 21.203125 
Q 2.5 33.90625 10.90625 40.90625 
Q 17.09375 46 24.40625 46 
Q 30.703125 46 35.25 42.953125 
Q 39.796875 39.90625 39.796875 35.703125 
Q 39.796875 34 38.390625 32.75 
Q 37 31.5 35.09375 31.5 
Q 31.59375 31.5 30.296875 36.09375 
L 29.703125 38.296875 
Q 28.90625 41.09375 27.703125 42.09375 
Q 26.5 43.09375 23.796875 43.09375 
Q 17.703125 43.09375 13.953125 38.296875 
Q 10.203125 33.5 10.203125 25.703125 
Q 10.203125 17.09375 14.5 11.640625 
Q 18.796875 6.203125 25.703125 6.203125 
Q 30 6.203125 33.09375 8.25 
Q 36.203125 10.296875 39.796875 15.59375 
z
" id="STIXGeneral-Regular-99"/>
      </defs>
      <use xlink:href="#STIXGeneral-Regular-119"/>
      <use x="72.199982" xlink:href="#STIXGeneral-Regular-97"/>
      <use x="116.599976" xlink:href="#STIXGeneral-Regular-107"/>
      <use x="166.59996" xlink:href="#STIXGeneral-Regular-101"/>
      <use x="210.999954" xlink:href="#STIXGeneral-Regular-95"/>
      <use x="260.999939" xlink:href="#STIXGeneral-Regular-101"/>
      <use x="305.399933" xlink:href="#STIXGeneral-Regular-102"/>
      <use x="338.699921" xlink:href="#STIXGeneral-Regular-102"/>
      <use x="371.999908" xlink:href="#STIXGeneral-Regular-101"/>
      <use x="416.399902" xlink:href="#STIXGeneral-Regular-99"/>
      <use x="460.799896" xlink:href="#STIXGeneral-Regular-116"/>
     </g>
    </g>
   </g>
  </g>
  <g id="axes_2">
   <g id="patch_7">
    <path d="M 86.4 648 
L 388.8 648 
L 388.8 373.714286 
L 86.4 373.714286 
z
" style="fill:#ffffff;"/>
   </g>
   <g id="matplotlib.axis_3">
    <g id="xtick_4">
     <g id="line2d_20">
      <g>
       <use style="fill:#ffffff;stroke:#000000;stroke-width:0.8;" x="86.4" xlink:href="#me56e3ea3b5" y="648"/>
      </g>
     </g>
     <g id="text_10">
      <!-- 0.0 -->
      <g transform="translate(71.4 671.39125)scale(0.24 -0.24)">
       <defs>
        <path d="M 18.09375 4.296875 
Q 18.09375 2.09375 16.4375 0.5 
Q 14.796875 -1.09375 12.5 -1.09375 
Q 10.203125 -1.09375 8.59375 0.5 
Q 7 2.09375 7 4.390625 
Q 7 6.703125 8.640625 8.34375 
Q 10.296875 10 12.59375 10 
Q 14.796875 10 16.4375 8.296875 
Q 18.09375 6.59375 18.09375 4.296875 
z
" id="STIXGeneral-Regular-46"/>
       </defs>
       <use xlink:href="#STIXGeneral-Regular-48"/>
       <use x="49.999985" xlink:href="#STIXGeneral-Regular-46"/>
       <use x="74.999969" xlink:href="#STIXGeneral-Regular-48"/>
      </g>
     </g>
    </g>
    <g id="xtick_5">
     <g id="line2d_21">
      <g>
       <use style="fill:#ffffff;stroke:#000000;stroke-width:0.8;" x="207.36" xlink:href="#me56e3ea3b5" y="648"/>
      </g>
     </g>
     <g id="text_11">
      <!-- 0.2 -->
      <g transform="translate(192.36 671.39125)scale(0.24 -0.24)">
       <use xlink:href="#STIXGeneral-Regular-48"/>
       <use x="49.999985" xlink:href="#STIXGeneral-Regular-46"/>
       <use x="74.999969" xlink:href="#STIXGeneral-Regular-50"/>
      </g>
     </g>
    </g>
    <g id="xtick_6">
     <g id="line2d_22">
      <g>
       <use style="fill:#ffffff;stroke:#000000;stroke-width:0.8;" x="328.32" xlink:href="#me56e3ea3b5" y="648"/>
      </g>
     </g>
     <g id="text_12">
      <!-- 0.4 -->
      <g transform="translate(313.32 671.39125)scale(0.24 -0.24)">
       <defs>
        <path d="M 47.296875 16.703125 
L 37 16.703125 
L 37 0 
L 29.203125 0 
L 29.203125 16.703125 
L 1.203125 16.703125 
L 1.203125 23.09375 
L 32.59375 67.59375 
L 37 67.59375 
L 37 23.09375 
L 47.296875 23.09375 
z
M 29.203125 23.09375 
L 29.203125 57.40625 
L 5.203125 23.09375 
z
" id="STIXGeneral-Regular-52"/>
       </defs>
       <use xlink:href="#STIXGeneral-Regular-48"/>
       <use x="49.999985" xlink:href="#STIXGeneral-Regular-46"/>
       <use x="74.999969" xlink:href="#STIXGeneral-Regular-52"/>
      </g>
     </g>
    </g>
    <g id="text_13">
     <!-- $\^t$ -->
     <g transform="translate(234.24 696.99125)scale(0.24 -0.24)">
      <defs>
       <path d="M -7.5 50.703125 
L -10.90625 50.703125 
L -23.09375 61 
L -35.203125 50.703125 
L -38.59375 50.703125 
L -26.203125 67.40625 
L -20 67.40625 
z
" id="STIXGeneral-Regular-770"/>
       <path d="M 29.59375 42.796875 
L 29.09375 39.59375 
L 20.703125 39.59375 
L 12 6.796875 
Q 11.796875 6 11.796875 5.40625 
Q 11.796875 3.796875 13.296875 3.796875 
Q 14.5 3.796875 16.09375 5.34375 
Q 17.703125 6.90625 21.40625 11.703125 
L 22.703125 11 
Q 18.09375 4 15.140625 1.453125 
Q 12.203125 -1.09375 8.40625 -1.09375 
Q 3.796875 -1.09375 3.796875 2.59375 
Q 3.796875 3.59375 5.40625 10 
L 13.203125 39.59375 
L 5.703125 39.59375 
L 5.59375 40.203125 
Q 5.59375 42 8.90625 42.703125 
Q 11.40625 43.296875 15.5 46.546875 
Q 19.59375 49.796875 22.203125 53.703125 
Q 22.796875 54.59375 23.59375 54.59375 
Q 24.5 54.59375 24.5 53.796875 
Q 24.5 53.296875 24.40625 53.09375 
L 21.59375 42.796875 
z
" id="STIXGeneral-Italic-116"/>
      </defs>
      <use transform="translate(39.042969 16.59375)" xlink:href="#STIXGeneral-Regular-770"/>
      <use transform="translate(0 0.203125)" xlink:href="#STIXGeneral-Italic-116"/>
     </g>
    </g>
   </g>
   <g id="matplotlib.axis_4">
    <g id="ytick_6">
     <g id="line2d_23">
      <g>
       <use style="fill:#ffffff;stroke:#000000;stroke-width:0.8;" x="86.4" xlink:href="#m94ee158ecd" y="620.571429"/>
      </g>
     </g>
     <g id="text_14">
      <!-- −1 -->
      <g transform="translate(50.96 628.767054)scale(0.24 -0.24)">
       <use xlink:href="#STIXGeneral-Regular-8722"/>
       <use x="68.499985" xlink:href="#STIXGeneral-Regular-49"/>
      </g>
     </g>
    </g>
    <g id="ytick_7">
     <g id="line2d_24">
      <g>
       <use style="fill:#ffffff;stroke:#000000;stroke-width:0.8;" x="86.4" xlink:href="#m94ee158ecd" y="565.714286"/>
      </g>
     </g>
     <g id="text_15">
      <!-- 0 -->
      <g transform="translate(67.4 573.909911)scale(0.24 -0.24)">
       <use xlink:href="#STIXGeneral-Regular-48"/>
      </g>
     </g>
    </g>
    <g id="ytick_8">
     <g id="line2d_25">
      <g>
       <use style="fill:#ffffff;stroke:#000000;stroke-width:0.8;" x="86.4" xlink:href="#m94ee158ecd" y="510.857143"/>
      </g>
     </g>
     <g id="text_16">
      <!-- 1 -->
      <g transform="translate(67.4 519.052768)scale(0.24 -0.24)">
       <use xlink:href="#STIXGeneral-Regular-49"/>
      </g>
     </g>
    </g>
    <g id="ytick_9">
     <g id="line2d_26">
      <g>
       <use style="fill:#ffffff;stroke:#000000;stroke-width:0.8;" x="86.4" xlink:href="#m94ee158ecd" y="456"/>
      </g>
     </g>
     <g id="text_17">
      <!-- 2 -->
      <g transform="translate(67.4 464.195625)scale(0.24 -0.24)">
       <use xlink:href="#STIXGeneral-Regular-50"/>
      </g>
     </g>
    </g>
    <g id="ytick_10">
     <g id="line2d_27">
      <g>
       <use style="fill:#ffffff;stroke:#000000;stroke-width:0.8;" x="86.4" xlink:href="#m94ee158ecd" y="401.142857"/>
      </g>
     </g>
     <g id="text_18">
      <!-- 3 -->
      <g transform="translate(67.4 409.338482)scale(0.24 -0.24)">
       <use xlink:href="#STIXGeneral-Regular-51"/>
      </g>
     </g>
    </g>
    <g id="text_19">
     <!-- $C_D$ -->
     <g transform="translate(41.75125 525.497143)rotate(-90)scale(0.24 -0.24)">
      <defs>
       <path d="M 13.09375 65.296875 
L 40.796875 65.296875 
Q 54.203125 65.296875 62.09375 58.296875 
Q 70 51.296875 70 38.40625 
Q 70 20.703125 54 8.296875 
Q 43.40625 0 24.90625 0 
L -0.796875 0 
L -0.796875 1.59375 
Q 3.5 2.40625 4.84375 3.59375 
Q 6.203125 4.796875 7.40625 9.203125 
L 19.59375 53.703125 
Q 20.703125 57.59375 20.703125 59.59375 
Q 20.703125 61.703125 19.09375 62.640625 
Q 17.5 63.59375 13.09375 63.703125 
z
M 31 58.40625 
L 19.203125 16.203125 
Q 17 8.203125 17 6.703125 
Q 17 3 23.796875 3 
Q 38.59375 3 47.90625 12 
Q 53.09375 17 56 24.953125 
Q 58.90625 32.90625 58.90625 40.796875 
Q 58.90625 52.90625 51.09375 58.796875 
Q 46.40625 62.296875 38 62.296875 
Q 34.796875 62.296875 33.25 61.546875 
Q 31.703125 60.796875 31 58.40625 
z
" id="STIXGeneral-Italic-68"/>
      </defs>
      <use transform="translate(0 0.40625)" xlink:href="#STIXGeneral-Italic-67"/>
      <use transform="translate(66.699997 -12.821875)scale(0.7)" xlink:href="#STIXGeneral-Italic-68"/>
     </g>
    </g>
   </g>
   <g id="line2d_28">
    <path clip-path="url(#pcd21193706)" d="M 86.97659 721 
L 87.308108 641.630254 
L 87.913514 552.119091 
L 88.216216 527.770239 
L 88.518919 513.365986 
L 88.821622 506.161415 
L 89.124324 503.411612 
L 89.427027 502.371661 
L 91.243243 493.91469 
L 92.454054 489.798231 
L 93.967568 485.766616 
L 94.875676 484.190626 
L 96.691892 481.173778 
L 97.297297 481.675441 
L 97.6 481.349854 
L 98.205405 480.414372 
L 100.324324 478.47625 
L 100.92973 477.739055 
L 102.443243 476.941748 
L 103.654054 476.554057 
L 104.562162 476.10209 
L 106.075676 475.821529 
L 107.589189 475.670518 
L 108.194595 476.100231 
L 108.8 476.034592 
L 113.643243 475.212126 
L 114.551351 474.987077 
L 115.459459 474.433955 
L 116.67027 473.798663 
L 116.972973 473.756481 
L 117.275676 473.415495 
L 117.881081 471.82892 
L 118.183784 471.580788 
L 118.789189 471.430949 
L 119.697297 470.699434 
L 120.302703 470.489226 
L 120.605405 470.195797 
L 120.908108 470.135678 
L 121.513514 470.775436 
L 121.816216 470.499368 
L 122.421622 469.697135 
L 123.632432 468.510866 
L 125.145946 466.942873 
L 126.054054 465.756972 
L 127.567568 464.163309 
L 129.081081 462.614499 
L 129.686486 462.129829 
L 131.502703 460.059914 
L 133.621622 457.533053 
L 133.924324 457.23746 
L 134.227027 456.770075 
L 134.832432 455.419482 
L 138.162162 451.738493 
L 138.767568 451.364497 
L 139.675676 450.395253 
L 140.281081 449.819866 
L 140.886486 449.704842 
L 143.005405 447.579069 
L 146.335135 444.867046 
L 147.848649 444.03165 
L 149.664865 443.412431 
L 152.389189 442.760551 
L 153.6 442.787906 
L 154.810811 442.995993 
L 156.021622 443.386961 
L 157.232432 443.965707 
L 158.443243 444.738003 
L 159.956757 445.981429 
L 161.47027 447.544243 
L 162.378378 448.543806 
L 162.681081 448.598325 
L 163.286486 448.201978 
L 163.891892 448.181481 
L 165.708108 448.195136 
L 171.459459 448.285755 
L 185.081081 448.58284 
L 192.951351 448.316622 
L 199.005405 447.723733 
L 211.718919 445.576579 
L 219.589189 444.000651 
L 232 441.477575 
L 239.264865 440.248904 
L 245.621622 439.395444 
L 252.583784 438.7082 
L 259.545946 438.270653 
L 263.783784 438.193506 
L 279.827027 438.622122 
L 284.367568 439.148067 
L 284.972973 439.181339 
L 285.578378 439.184944 
L 286.486486 439.333039 
L 291.32973 439.383124 
L 294.054054 439.339984 
L 307.675676 439.534897 
L 308.886486 439.410273 
L 312.821622 439.304964 
L 313.72973 439.368703 
L 318.572973 442.238422 
L 321.6 444.334432 
L 324.92973 446.922344 
L 328.259459 449.793109 
L 331.286486 452.651321 
L 334.918919 456.455817 
L 338.854054 461.186775 
L 341.881081 465.326174 
L 343.697297 468.182909 
L 345.816216 472.043527 
L 348.237838 476.802535 
L 350.659459 482.367878 
L 352.778378 487.884915 
L 355.502703 496.006913 
L 357.621622 503.139572 
L 361.556757 518.260853 
L 363.978378 528.665834 
L 367.308108 544.233396 
L 370.335135 559.423417 
L 379.718919 607.37194 
L 385.47027 634.204721 
L 386.378378 637.959504 
L 386.681081 638.824633 
L 386.983784 640.358556 
L 387.286486 642.831816 
L 387.589189 642.744777 
L 387.891892 638.994343 
L 388.194595 644.064298 
L 388.497297 661.662289 
L 388.8 646.346472 
L 388.8 646.346472 
" style="fill:none;stroke:#1f77b4;stroke-linecap:square;stroke-width:4;"/>
   </g>
   <g id="line2d_29">
    <path clip-path="url(#pcd21193706)" d="M 86.4 637.453886 
L 87.005405 491.639854 
L 87.308108 476.144842 
L 87.610811 489.599893 
L 87.913514 492.360101 
L 88.216216 487.410297 
L 88.518919 485.357415 
L 88.821622 485.38307 
L 89.124324 484.647889 
L 89.72973 482.326272 
L 93.967568 470.203004 
L 96.086486 465.12232 
L 97.902703 461.345068 
L 99.416216 458.65796 
L 100.92973 456.429367 
L 102.140541 454.993605 
L 103.351351 453.877686 
L 104.562162 453.066503 
L 105.772973 452.528619 
L 106.983784 452.21737 
L 108.8 452.122438 
L 110.313514 452.046376 
L 110.616216 452.264974 
L 111.221622 453.679992 
L 111.524324 453.795524 
L 111.827027 453.688489 
L 112.432432 453.825508 
L 115.156757 454.57813 
L 116.972973 455.644014 
L 118.486486 456.789501 
L 120.302703 458.438898 
L 121.816216 460.045308 
L 123.027027 461.513618 
L 124.540541 462.990387 
L 125.145946 464.463038 
L 125.751351 464.993404 
L 128.475676 467.153826 
L 129.989189 468.046076 
L 131.502703 468.666528 
L 132.713514 468.952295 
L 133.924324 469.078375 
L 134.227027 468.987351 
L 135.135135 468.245963 
L 136.648649 467.733769 
L 138.162162 466.991367 
L 139.675676 466.001668 
L 141.189189 464.778572 
L 143.308108 462.775617 
L 145.427027 460.539164 
L 146.940541 458.362468 
L 149.059459 456.072368 
L 149.664865 455.481896 
L 150.875676 454.108496 
L 152.994595 451.948713 
L 154.508108 450.640334 
L 156.021622 449.623395 
L 157.535135 448.891703 
L 158.745946 448.539953 
L 159.956757 448.418279 
L 161.167568 448.470264 
L 162.378378 448.737398 
L 162.681081 448.524514 
L 163.589189 447.273586 
L 169.945946 442.443952 
L 172.67027 440.910094 
L 176.302703 439.162011 
L 181.448649 436.961149 
L 187.2 434.713745 
L 190.832432 433.510874 
L 193.859459 432.752405 
L 196.583784 432.314838 
L 202.335135 431.759439 
L 205.059459 431.940385 
L 208.994595 432.434042 
L 217.47027 433.791329 
L 226.551351 435.417744 
L 238.659459 437.686305 
L 241.686486 437.982342 
L 246.52973 438.056711 
L 250.464865 437.845033 
L 263.481081 436.923908 
L 268.021622 436.964092 
L 272.864865 437.211384 
L 274.075676 437.37862 
L 282.248649 438.152944 
L 283.762162 438.338783 
L 284.972973 438.431477 
L 285.881081 438.555824 
L 302.52973 439.412675 
L 313.427027 440.521432 
L 314.032432 440.83471 
L 314.940541 441.52281 
L 316.756757 442.648847 
L 320.389189 445.272652 
L 327.956757 451.302187 
L 331.286486 454.367296 
L 334.918919 458.042091 
L 337.945946 461.445219 
L 340.972973 465.249331 
L 343.697297 469.167485 
L 347.027027 474.565216 
L 349.145946 478.647365 
L 350.962162 482.554694 
L 353.081081 487.626158 
L 355.2 493.310284 
L 357.318919 499.621383 
L 359.135135 505.650052 
L 361.859459 515.592685 
L 363.07027 520.460619 
L 365.794595 531.916572 
L 369.124324 546.940178 
L 375.783784 579.17725 
L 380.324324 601.473163 
L 383.654054 616.751927 
L 386.378378 628.210386 
L 386.681081 629.136475 
L 386.983784 630.614627 
L 387.286486 632.855953 
L 387.589189 632.97447 
L 387.891892 630.16458 
L 388.194595 635.234104 
L 388.497297 651.149109 
L 388.8 637.495515 
L 388.8 637.495515 
" style="fill:none;stroke:#ff7f0e;stroke-linecap:square;stroke-width:4;"/>
   </g>
   <g id="line2d_30">
    <path clip-path="url(#pcd21193706)" d="M 86.4 284.06379 
L 86.702703 326.717795 
L 87.005405 345.071743 
L 87.913514 505.955295 
L 88.518919 537.705715 
L 88.821622 544.93594 
L 89.124324 546.950563 
L 89.427027 546.718274 
L 89.72973 547.150117 
L 90.335135 548.603134 
L 91.243243 549.533699 
L 91.848649 549.951093 
L 92.454054 550.1664 
L 93.967568 550.150673 
L 94.572973 549.726167 
L 95.783784 548.806897 
L 96.086486 548.652407 
L 96.389189 548.643393 
L 96.691892 548.341632 
L 97.297297 546.580675 
L 97.6 546.299702 
L 97.902703 546.267118 
L 98.508108 545.776629 
L 100.021622 544.546205 
L 100.92973 544.404598 
L 102.140541 543.65 
L 103.654054 542.806448 
L 105.47027 542.433352 
L 106.983784 542.216299 
L 107.589189 542.221843 
L 108.194595 541.803986 
L 108.8 541.802131 
L 110.313514 541.900709 
L 110.616216 542.159877 
L 111.221622 543.66299 
L 111.524324 543.829227 
L 111.827027 543.776693 
L 112.432432 544.031931 
L 114.551351 545.14719 
L 115.156757 545.654335 
L 116.67027 547.365766 
L 116.972973 547.60182 
L 117.275676 548.152787 
L 117.881081 550.178934 
L 118.183784 550.671016 
L 118.789189 551.325346 
L 120.908108 554.625869 
L 121.210811 554.541202 
L 121.513514 554.603148 
L 122.118919 556.143814 
L 123.027027 558.096617 
L 124.540541 561.120488 
L 125.448649 564.010689 
L 127.567568 568.054975 
L 129.081081 570.640856 
L 129.989189 571.954785 
L 132.410811 575.647127 
L 133.924324 577.555201 
L 134.832432 578.688689 
L 136.951351 580.140155 
L 137.859459 580.963535 
L 139.07027 581.075717 
L 140.281081 581.435774 
L 140.886486 581.049155 
L 142.097297 581.243889 
L 143.610811 581.11003 
L 145.427027 580.681198 
L 145.72973 580.512172 
L 146.335135 579.847335 
L 148.151351 578.768967 
L 148.756757 578.259474 
L 149.362162 578.032263 
L 152.994595 574.914516 
L 158.443243 569.584667 
L 162.983784 565.368083 
L 165.405405 563.331464 
L 169.643243 560.109792 
L 172.367568 558.470893 
L 175.697297 556.732918 
L 181.145946 554.194379 
L 185.686486 552.422534 
L 189.924324 551.053013 
L 192.648649 550.399846 
L 195.07027 550.105436 
L 197.491892 550.039219 
L 202.032432 550.216404 
L 204.454054 550.729283 
L 207.481081 551.578814 
L 212.324324 553.202232 
L 221.405405 556.553952 
L 238.054054 562.881891 
L 241.081081 563.668601 
L 243.502703 564.094156 
L 246.52973 564.479778 
L 249.859459 564.659981 
L 254.4 564.632312 
L 267.113514 564.420354 
L 272.864865 564.577598 
L 274.075676 564.711704 
L 280.12973 564.989835 
L 284.064865 564.955275 
L 284.67027 564.88978 
L 285.578378 565.076836 
L 286.183784 564.965381 
L 294.356757 565.331817 
L 296.475676 565.408034 
L 297.383784 565.318894 
L 302.832432 565.587663 
L 307.372973 565.994678 
L 308.583784 566.294691 
L 312.821622 566.860696 
L 317.362162 567.307821 
L 322.810811 567.63926 
L 324.021622 567.612855 
L 325.837838 567.526041 
L 334.616216 567.320162 
L 344 566.650615 
L 344.908108 566.276227 
L 346.118919 566.097566 
L 347.32973 565.867327 
L 348.237838 565.745298 
L 353.081081 564.590018 
L 357.924324 562.983932 
L 358.52973 562.761389 
L 359.740541 562.444916 
L 361.556757 561.75496 
L 362.464865 561.766519 
L 363.372973 561.408264 
L 372.151351 558.513702 
L 372.454054 558.441557 
L 373.362162 557.849535 
L 373.967568 557.639588 
L 374.572973 557.365888 
L 377.297297 556.762619 
L 378.205405 556.985635 
L 379.113514 556.856895 
L 381.232432 556.880908 
L 383.048649 556.718809 
L 383.654054 556.362032 
L 384.259459 556.081562 
L 386.983784 555.970357 
L 387.286486 555.738423 
L 387.589189 555.943979 
L 387.891892 556.884523 
L 388.194595 556.884092 
L 388.497297 555.201106 
L 388.8 556.863328 
L 388.8 556.863328 
" style="fill:none;stroke:#2ca02c;stroke-linecap:square;stroke-width:4;"/>
   </g>
   <g id="line2d_31">
    <path clip-path="url(#pcd21193706)" d="M 86.4 565.714286 
L 388.8 565.714286 
" style="fill:none;stroke:#000000;stroke-dasharray:3.2,0.8,0.5,0.8;stroke-dashoffset:0;stroke-width:0.5;"/>
   </g>
   <g id="line2d_32">
    <path clip-path="url(#pcd21193706)" d="M 388.8 648 
L 388.8 373.714286 
" style="fill:none;stroke:#000000;stroke-dasharray:3.2,0.8,0.5,0.8;stroke-dashoffset:0;stroke-width:0.5;"/>
   </g>
   <g id="patch_8">
    <path d="M 86.4 648 
L 86.4 373.714286 
" style="fill:none;stroke:#000000;stroke-linecap:square;stroke-linejoin:miter;stroke-width:0.8;"/>
   </g>
   <g id="patch_9">
    <path d="M 388.8 648 
L 388.8 373.714286 
" style="fill:none;stroke:#000000;stroke-linecap:square;stroke-linejoin:miter;stroke-width:0.8;"/>
   </g>
   <g id="patch_10">
    <path d="M 86.4 648 
L 388.8 648 
" style="fill:none;stroke:#000000;stroke-linecap:square;stroke-linejoin:miter;stroke-width:0.8;"/>
   </g>
   <g id="patch_11">
    <path d="M 86.4 373.714286 
L 388.8 373.714286 
" style="fill:none;stroke:#000000;stroke-linecap:square;stroke-linejoin:miter;stroke-width:0.8;"/>
   </g>
  </g>
 </g>
 <defs>
  <clipPath id="p51b7b4eed6">
   <rect height="274.285714" width="302.4" x="86.4" y="72"/>
  </clipPath>
  <clipPath id="pcd21193706">
   <rect height="274.285714" width="302.4" x="86.4" y="373.714286"/>
  </clipPath>
 </defs>
</svg>
