<?xml version="1.0" encoding="utf-8" standalone="no"?>
<!DOCTYPE svg PUBLIC "-//W3C//DTD SVG 1.1//EN"
  "http://www.w3.org/Graphics/SVG/1.1/DTD/svg11.dtd">
<!-- Created with matplotlib (https://matplotlib.org/) -->
<svg height="720pt" version="1.1" viewBox="0 0 432 720" width="432pt" xmlns="http://www.w3.org/2000/svg" xmlns:xlink="http://www.w3.org/1999/xlink">
 <metadata>
  <rdf:RDF xmlns:cc="http://creativecommons.org/ns#" xmlns:dc="http://purl.org/dc/elements/1.1/" xmlns:rdf="http://www.w3.org/1999/02/22-rdf-syntax-ns#">
   <cc:Work>
    <dc:type rdf:resource="http://purl.org/dc/dcmitype/StillImage"/>
    <dc:date>2022-05-03T18:50:40.353574</dc:date>
    <dc:format>image/svg+xml</dc:format>
    <dc:creator>
     <cc:Agent>
      <dc:title>Matplotlib v3.3.4, https://matplotlib.org/</dc:title>
     </cc:Agent>
    </dc:creator>
   </cc:Work>
  </rdf:RDF>
 </metadata>
 <defs>
  <style type="text/css">*{stroke-linecap:butt;stroke-linejoin:round;}</style>
 </defs>
 <g id="figure_1">
  <g id="patch_1">
   <path d="M 0 720 
L 432 720 
L 432 0 
L 0 0 
z
" style="fill:#ffffff;"/>
  </g>
  <g id="axes_1">
   <g id="patch_2">
    <path d="M 86.4 346.285714 
L 388.8 346.285714 
L 388.8 72 
L 86.4 72 
z
" style="fill:#ffffff;"/>
   </g>
   <g id="matplotlib.axis_1">
    <g id="xtick_1">
     <g id="line2d_1">
      <defs>
       <path d="M 0 0 
L 0 3.5 
" id="mf325aabf23" style="stroke:#000000;stroke-width:0.8;"/>
      </defs>
      <g>
       <use style="fill:#ffffff;stroke:#000000;stroke-width:0.8;" x="86.4" xlink:href="#mf325aabf23" y="346.285714"/>
      </g>
     </g>
    </g>
    <g id="xtick_2">
     <g id="line2d_2">
      <g>
       <use style="fill:#ffffff;stroke:#000000;stroke-width:0.8;" x="207.36" xlink:href="#mf325aabf23" y="346.285714"/>
      </g>
     </g>
    </g>
    <g id="xtick_3">
     <g id="line2d_3">
      <g>
       <use style="fill:#ffffff;stroke:#000000;stroke-width:0.8;" x="328.32" xlink:href="#mf325aabf23" y="346.285714"/>
      </g>
     </g>
    </g>
   </g>
   <g id="matplotlib.axis_2">
    <g id="ytick_1">
     <g id="line2d_4">
      <defs>
       <path d="M 0 0 
L -3.5 0 
" id="m92b9ab9d7c" style="stroke:#000000;stroke-width:0.8;"/>
      </defs>
      <g>
       <use style="fill:#ffffff;stroke:#000000;stroke-width:0.8;" x="86.4" xlink:href="#m92b9ab9d7c" y="318.857143"/>
      </g>
     </g>
     <g id="text_1">
      <!-- −1 -->
      <g transform="translate(50.96 327.052768)scale(0.24 -0.24)">
       <defs>
        <path d="M 62.09375 22 
L 6.40625 22 
L 6.40625 28.59375 
L 62.09375 28.59375 
z
" id="STIXGeneral-Regular-8722"/>
        <path d="M 39.40625 0 
L 11.796875 0 
L 11.796875 1.5 
Q 17.296875 1.796875 19.296875 3.546875 
Q 21.296875 5.296875 21.296875 9.5 
L 21.296875 54.40625 
Q 21.296875 59.296875 18.296875 59.296875 
Q 16.90625 59.296875 13.796875 58.09375 
L 11.09375 57.09375 
L 11.09375 58.5 
L 29 67.59375 
L 29.90625 67.296875 
L 29.90625 7.59375 
Q 29.90625 4.296875 31.90625 2.890625 
Q 33.90625 1.5 39.40625 1.5 
z
" id="STIXGeneral-Regular-49"/>
       </defs>
       <use xlink:href="#STIXGeneral-Regular-8722"/>
       <use x="68.499985" xlink:href="#STIXGeneral-Regular-49"/>
      </g>
     </g>
    </g>
    <g id="ytick_2">
     <g id="line2d_5">
      <g>
       <use style="fill:#ffffff;stroke:#000000;stroke-width:0.8;" x="86.4" xlink:href="#m92b9ab9d7c" y="264"/>
      </g>
     </g>
     <g id="text_2">
      <!-- 0 -->
      <g transform="translate(67.4 272.195625)scale(0.24 -0.24)">
       <defs>
        <path d="M 47.59375 33 
Q 47.59375 26.296875 46.296875 20.34375 
Q 45 14.40625 42.453125 9.40625 
Q 39.90625 4.40625 35.40625 1.5 
Q 30.90625 -1.40625 25 -1.40625 
Q 18.90625 -1.40625 14.296875 1.6875 
Q 9.703125 4.796875 7.203125 10 
Q 4.703125 15.203125 3.546875 21.09375 
Q 2.40625 27 2.40625 33.59375 
Q 2.40625 42.90625 4.703125 50.34375 
Q 7 57.796875 12.34375 62.6875 
Q 17.703125 67.59375 25.40625 67.59375 
Q 35.203125 67.59375 41.390625 58 
Q 47.59375 48.40625 47.59375 33 
z
M 38 32.5 
Q 38 48.296875 34.640625 56.640625 
Q 31.296875 65 24.796875 65 
Q 18.59375 65 15.296875 56.59375 
Q 12 48.203125 12 32.90625 
Q 12 17.5 15.296875 9.34375 
Q 18.59375 1.203125 25 1.203125 
Q 31.296875 1.203125 34.640625 9.34375 
Q 38 17.5 38 32.5 
z
" id="STIXGeneral-Regular-48"/>
       </defs>
       <use xlink:href="#STIXGeneral-Regular-48"/>
      </g>
     </g>
    </g>
    <g id="ytick_3">
     <g id="line2d_6">
      <g>
       <use style="fill:#ffffff;stroke:#000000;stroke-width:0.8;" x="86.4" xlink:href="#m92b9ab9d7c" y="209.142857"/>
      </g>
     </g>
     <g id="text_3">
      <!-- 1 -->
      <g transform="translate(67.4 217.338482)scale(0.24 -0.24)">
       <use xlink:href="#STIXGeneral-Regular-49"/>
      </g>
     </g>
    </g>
    <g id="ytick_4">
     <g id="line2d_7">
      <g>
       <use style="fill:#ffffff;stroke:#000000;stroke-width:0.8;" x="86.4" xlink:href="#m92b9ab9d7c" y="154.285714"/>
      </g>
     </g>
     <g id="text_4">
      <!-- 2 -->
      <g transform="translate(67.4 162.481339)scale(0.24 -0.24)">
       <defs>
        <path d="M 47.40625 13.703125 
L 42 0 
L 2.90625 0 
L 2.90625 1.203125 
L 20.703125 20.09375 
Q 27.703125 27.40625 30.703125 33.5 
Q 33.703125 39.59375 33.703125 46.09375 
Q 33.703125 52.796875 30 56.5 
Q 26.296875 60.203125 19.796875 60.203125 
Q 14.40625 60.203125 11.25 57.390625 
Q 8.09375 54.59375 5.09375 47.203125 
L 3 47.703125 
Q 4.703125 57 9.84375 62.296875 
Q 15 67.59375 23.796875 67.59375 
Q 32.09375 67.59375 37.1875 62.59375 
Q 42.296875 57.59375 42.296875 50 
Q 42.296875 38.703125 29.5 25.203125 
L 13 7.59375 
L 36.40625 7.59375 
Q 39.703125 7.59375 41.640625 8.890625 
Q 43.59375 10.203125 46 14.296875 
z
" id="STIXGeneral-Regular-50"/>
       </defs>
       <use xlink:href="#STIXGeneral-Regular-50"/>
      </g>
     </g>
    </g>
    <g id="ytick_5">
     <g id="line2d_8">
      <g>
       <use style="fill:#ffffff;stroke:#000000;stroke-width:0.8;" x="86.4" xlink:href="#m92b9ab9d7c" y="99.428571"/>
      </g>
     </g>
     <g id="text_5">
      <!-- 3 -->
      <g transform="translate(67.4 107.624196)scale(0.24 -0.24)">
       <defs>
        <path d="M 6.09375 51 
L 4.5 51.40625 
Q 6.796875 58.90625 11.6875 63.25 
Q 16.59375 67.59375 24.09375 67.59375 
Q 31.09375 67.59375 35.390625 63.796875 
Q 39.703125 60 39.703125 53.90625 
Q 39.703125 45.703125 30.40625 40.09375 
Q 35.90625 37.703125 38.703125 34.796875 
Q 43.09375 29.90625 43.09375 21.90625 
Q 43.09375 13.90625 38.5 7.90625 
Q 35.09375 3.296875 28.75 0.9375 
Q 22.40625 -1.40625 15.296875 -1.40625 
Q 4.09375 -1.40625 4.09375 4.296875 
Q 4.09375 5.90625 5.296875 6.90625 
Q 6.5 7.90625 8.203125 7.90625 
Q 10.703125 7.90625 14.296875 5.296875 
Q 18.703125 2.203125 22.90625 2.203125 
Q 28.40625 2.203125 32.15625 6.640625 
Q 35.90625 11.09375 35.90625 17.5 
Q 35.90625 29 25.5 32 
Q 22.40625 33 15.296875 33 
L 15.296875 34.40625 
Q 20.90625 36.296875 23.703125 38 
Q 31.796875 42.59375 31.796875 51.40625 
Q 31.796875 56.40625 28.9375 59 
Q 26.09375 61.59375 21 61.59375 
Q 12 61.59375 6.09375 51 
z
" id="STIXGeneral-Regular-51"/>
       </defs>
       <use xlink:href="#STIXGeneral-Regular-51"/>
      </g>
     </g>
    </g>
    <g id="text_6">
     <!-- $C_L$ -->
     <g transform="translate(41.75125 222.462857)rotate(-90)scale(0.24 -0.24)">
      <defs>
       <path d="M 68.90625 66.40625 
L 65.203125 46.40625 
L 63.40625 46.703125 
Q 61.59375 63 48.5 63 
Q 37.59375 63 28.59375 53.296875 
Q 23.296875 47.703125 20.546875 39.703125 
Q 17.796875 31.703125 17.796875 23.203125 
Q 17.796875 2.703125 35.296875 2.703125 
Q 41.5 2.703125 46.640625 5.296875 
Q 51.796875 7.90625 58.203125 14.59375 
L 60 13.09375 
Q 53.296875 5.203125 46.84375 1.703125 
Q 40.40625 -1.796875 32.703125 -1.796875 
Q 21 -1.796875 13.796875 5.140625 
Q 6.59375 12.09375 6.59375 24.296875 
Q 6.59375 34.59375 11.6875 43.9375 
Q 16.796875 53.296875 25.296875 59.296875 
Q 35.5 66.59375 47.203125 66.59375 
Q 54.09375 66.59375 58.90625 64.90625 
Q 60.90625 64.203125 63 64.203125 
Q 65.703125 64.203125 66.796875 66.40625 
z
" id="STIXGeneral-Italic-67"/>
       <path d="M 55.90625 18 
L 50.09375 0 
L -0.796875 0 
L -0.796875 1.59375 
Q 3.40625 2 4.703125 3.296875 
Q 6 4.59375 7.40625 9.40625 
L 19.59375 53.203125 
Q 20.703125 56.90625 20.703125 59.40625 
Q 20.703125 61.59375 19.140625 62.5 
Q 17.59375 63.40625 13 63.703125 
L 13 65.296875 
L 40.296875 65.296875 
L 40.296875 63.703125 
Q 35.703125 63.40625 33.546875 61.796875 
Q 31.40625 60.203125 30.203125 56 
L 18.203125 13.09375 
Q 17.203125 9.296875 17.203125 7.703125 
Q 17.203125 5.40625 19.390625 4.5 
Q 21.59375 3.59375 27.703125 3.59375 
Q 35.40625 3.59375 38.75 4.296875 
Q 42.09375 5 45.703125 7.40625 
Q 49.796875 10.09375 53.90625 18.59375 
z
" id="STIXGeneral-Italic-76"/>
      </defs>
      <use transform="translate(0 0.40625)" xlink:href="#STIXGeneral-Italic-67"/>
      <use transform="translate(66.699997 -12.821875)scale(0.7)" xlink:href="#STIXGeneral-Italic-76"/>
     </g>
    </g>
   </g>
   <g id="line2d_9">
    <path clip-path="url(#pb529232fec)" d="M 86.4 300.033464 
L 87.005405 287.588827 
L 87.610811 279.342991 
L 88.216216 274.202572 
L 88.821622 271.074188 
L 90.335135 265.66698 
L 92.454054 258.849155 
L 94.875676 251.820128 
L 97.297297 245.25421 
L 100.324324 237.917272 
L 104.259459 229.424161 
L 108.497297 221.269402 
L 110.616216 217.355569 
L 114.248649 210.207135 
L 117.881081 202.748709 
L 120.908108 196.225535 
L 132.713514 168.766808 
L 135.135135 163.18928 
L 137.859459 157.104432 
L 141.794595 149.053452 
L 144.821622 143.664634 
L 146.335135 141.352585 
L 149.059459 137.846449 
L 150.875676 136.015743 
L 152.086486 135.058576 
L 153.297297 134.317291 
L 154.508108 133.800339 
L 155.718919 133.514218 
L 156.627027 133.476877 
L 157.535135 133.541742 
L 158.745946 133.861218 
L 160.259459 134.616289 
L 161.167568 135.239479 
L 162.378378 136.193413 
L 162.681081 136.082967 
L 163.286486 135.178017 
L 163.891892 134.876373 
L 166.010811 133.992792 
L 170.248649 132.637034 
L 172.972973 131.975651 
L 174.789189 131.622698 
L 176.302703 131.291152 
L 180.540541 130.400192 
L 183.264865 129.777625 
L 185.081081 129.319252 
L 186.897297 128.912618 
L 188.713514 128.431937 
L 190.227027 128.061234 
L 192.951351 127.310848 
L 194.767568 126.731358 
L 196.281081 126.279657 
L 199.308108 125.238934 
L 207.481081 122.108444 
L 208.389189 121.730715 
L 213.535135 119.600461 
L 215.048649 118.949053 
L 219.286486 117.277274 
L 228.67027 113.795523 
L 230.183784 113.299557 
L 236.237838 111.344468 
L 240.778378 110.122216 
L 242.594595 109.737181 
L 244.108108 109.407662 
L 248.043243 108.80481 
L 249.859459 108.666773 
L 250.767568 108.617454 
L 252.886486 108.603952 
L 258.940541 109.469449 
L 260.756757 109.929446 
L 262.572973 110.380441 
L 264.086486 110.773379 
L 267.718919 111.465139 
L 270.443243 111.683023 
L 271.956757 111.668536 
L 280.12973 111.783231 
L 281.340541 111.759475 
L 282.854054 111.701463 
L 287.394595 111.597618 
L 289.210811 111.424442 
L 290.118919 111.313307 
L 292.540541 110.993771 
L 293.448649 110.651131 
L 294.356757 110.615083 
L 294.962162 110.547249 
L 295.87027 110.702388 
L 296.475676 110.595748 
L 297.383784 110.557076 
L 299.502703 110.216324 
L 301.016216 109.908343 
L 304.043243 109.598442 
L 306.464865 109.613992 
L 312.821622 109.567858 
L 313.427027 109.51003 
L 314.032432 109.652423 
L 315.243243 110.067321 
L 316.756757 110.530382 
L 319.481081 111.76521 
L 322.508108 113.762044 
L 324.021622 115.038191 
L 326.140541 117.209215 
L 327.654054 119.015765 
L 329.47027 121.514319 
L 330.983784 123.834925 
L 332.497297 126.367745 
L 335.221622 131.443309 
L 338.551351 138.392452 
L 340.972973 144.022714 
L 343.697297 151.072466 
L 346.421622 158.972067 
L 348.843243 166.768059 
L 351.567568 176.38076 
L 355.2 190.186842 
L 365.491892 230.089677 
L 367.913514 238.329082 
L 370.032432 244.768026 
L 371.848649 249.610446 
L 373.362162 253.098902 
L 374.875676 256.060605 
L 376.389189 258.458441 
L 377.902703 260.340246 
L 379.113514 261.389774 
L 380.021622 261.935935 
L 380.92973 262.280802 
L 381.837838 262.432551 
L 382.745946 262.390099 
L 383.654054 262.17749 
L 384.562162 261.77139 
L 385.772973 260.952979 
L 386.983784 259.841382 
L 388.497297 258.119304 
L 388.8 257.735654 
L 388.8 257.735654 
" style="fill:none;stroke:#1f77b4;stroke-linecap:square;stroke-width:4;"/>
   </g>
   <g id="line2d_10">
    <path clip-path="url(#pb529232fec)" d="M 86.4 258.572698 
L 87.610811 257.530227 
L 89.72973 255.435324 
L 91.848649 253.07837 
L 93.362162 251.076392 
L 95.178378 248.211068 
L 97.6 243.875665 
L 102.443243 234.518201 
L 106.075676 227.465578 
L 108.194595 224.325246 
L 109.405405 222.862991 
L 110.616216 221.932173 
L 111.827027 221.152909 
L 112.432432 220.872517 
L 113.340541 220.74805 
L 114.854054 220.194464 
L 116.67027 219.347791 
L 117.275676 218.961969 
L 118.183784 218.01993 
L 118.789189 217.170071 
L 119.697297 215.503829 
L 120.908108 212.507267 
L 122.724324 206.92744 
L 125.145946 199.551663 
L 126.356757 196.539259 
L 127.567568 194.310739 
L 128.475676 193.21571 
L 129.081081 192.726835 
L 130.897297 191.634099 
L 131.805405 190.733996 
L 133.016216 188.941744 
L 136.043243 183.769713 
L 137.859459 181.690168 
L 138.767568 180.807352 
L 141.794595 178.182041 
L 143.005405 176.789142 
L 144.821622 174.199566 
L 145.427027 172.89639 
L 146.032432 171.718667 
L 146.940541 170.394155 
L 149.362162 166.695315 
L 151.178378 163.103454 
L 153.6 159.060712 
L 156.627027 154.498129 
L 157.837838 152.976144 
L 159.048649 151.848126 
L 159.654054 151.819924 
L 161.167568 151.209797 
L 162.378378 150.941127 
L 162.681081 150.528187 
L 163.589189 148.44662 
L 165.102703 146.084847 
L 166.616216 143.590196 
L 168.12973 141.299374 
L 169.643243 139.542706 
L 170.854054 138.577045 
L 172.972973 137.454081 
L 174.789189 136.691385 
L 176.605405 135.841924 
L 177.210811 135.593994 
L 178.118919 135.106562 
L 179.632432 134.192742 
L 180.237838 133.716284 
L 180.843243 133.392414 
L 181.448649 132.902825 
L 182.054054 132.626433 
L 182.659459 132.191745 
L 183.264865 131.973198 
L 183.87027 131.635728 
L 184.475676 131.507834 
L 185.081081 131.277907 
L 185.989189 131.202775 
L 186.594595 131.285581 
L 187.805405 131.586837 
L 190.227027 132.778685 
L 190.832432 133.046889 
L 192.951351 133.885439 
L 193.556757 133.866848 
L 194.162162 133.968864 
L 194.767568 133.810793 
L 195.372973 133.809827 
L 195.978378 133.59068 
L 196.583784 133.543626 
L 197.189189 133.2828 
L 197.794595 133.192354 
L 198.4 132.901397 
L 199.005405 132.78165 
L 199.610811 132.458222 
L 200.216216 132.304273 
L 200.821622 131.930207 
L 201.427027 131.724575 
L 202.032432 131.315916 
L 202.637838 131.088978 
L 203.243243 130.681126 
L 203.848649 130.459508 
L 204.454054 130.068072 
L 205.059459 129.840491 
L 205.664865 129.451035 
L 206.27027 129.22716 
L 206.875676 128.832615 
L 207.481081 128.598628 
L 208.086486 128.209045 
L 208.691892 127.990485 
L 209.297297 127.619852 
L 209.902703 127.441492 
L 210.508108 127.14231 
L 211.113514 127.032243 
L 211.718919 126.82107 
L 212.324324 126.780471 
L 212.92973 126.634132 
L 213.535135 126.658306 
L 214.140541 126.555085 
L 214.745946 126.627338 
L 215.351351 126.569105 
L 215.956757 126.650443 
L 216.562162 126.611801 
L 217.167568 126.725638 
L 217.772973 126.712916 
L 218.378378 126.848463 
L 218.983784 126.856497 
L 219.589189 127.012167 
L 220.194595 127.033983 
L 220.8 127.189245 
L 221.405405 127.202618 
L 222.010811 127.352748 
L 222.616216 127.368603 
L 223.221622 127.516892 
L 223.827027 127.535002 
L 224.432432 127.677191 
L 225.037838 127.697115 
L 225.643243 127.854093 
L 226.248649 127.88102 
L 226.854054 128.041294 
L 227.459459 128.088036 
L 228.064865 128.255327 
L 228.67027 128.309897 
L 229.275676 128.484201 
L 229.881081 128.557104 
L 230.486486 128.747801 
L 231.091892 128.796174 
L 231.697297 128.969227 
L 232.302703 129.012716 
L 232.908108 129.158472 
L 233.513514 129.176733 
L 234.118919 129.291843 
L 234.724324 129.272541 
L 235.32973 129.358199 
L 235.935135 129.313485 
L 236.540541 129.368192 
L 237.145946 129.298727 
L 237.751351 129.334938 
L 238.356757 129.248693 
L 238.962162 129.256337 
L 239.567568 129.155029 
L 240.172973 129.139099 
L 240.778378 128.990899 
L 241.383784 128.940861 
L 241.989189 128.767455 
L 242.594595 128.688799 
L 243.2 128.502354 
L 243.805405 128.419499 
L 244.410811 128.231576 
L 245.016216 128.148291 
L 245.621622 127.981857 
L 246.227027 127.925411 
L 246.832432 127.780136 
L 247.437838 127.750257 
L 248.043243 127.63904 
L 248.648649 127.650785 
L 249.254054 127.587187 
L 249.859459 127.633719 
L 250.464865 127.601836 
L 251.07027 127.679704 
L 251.675676 127.698943 
L 252.281081 127.820085 
L 252.886486 127.875849 
L 253.491892 128.014119 
L 254.097297 128.092376 
L 255.005405 128.299395 
L 257.72973 129.107312 
L 258.637838 129.387457 
L 261.059459 130.050724 
L 263.481081 130.522746 
L 265.902703 130.839941 
L 269.232432 131.145873 
L 270.140541 131.202178 
L 277.708108 131.216148 
L 278.616216 131.202331 
L 292.237838 130.55921 
L 295.264865 130.500302 
L 295.87027 130.626853 
L 296.778378 130.562842 
L 297.686486 130.522669 
L 298.291892 130.50598 
L 299.2 130.566468 
L 313.72973 130.685848 
L 315.545946 131.521031 
L 317.362162 132.227027 
L 321.6 134.505527 
L 323.416216 135.590856 
L 327.351351 138.583265 
L 329.167568 140.21486 
L 330.075676 141.091285 
L 331.891892 142.877771 
L 335.221622 146.742556 
L 336.432432 148.314526 
L 337.945946 150.413291 
L 340.67027 154.797242 
L 343.091892 159.459438 
L 345.210811 164.169135 
L 347.32973 169.549029 
L 349.145946 174.601395 
L 352.172973 183.849488 
L 355.2 193.885386 
L 359.740541 209.778575 
L 364.886486 227.705507 
L 367.913514 237.417242 
L 370.032432 243.528241 
L 371.848649 248.179947 
L 373.664865 252.204427 
L 375.178378 255.031666 
L 376.691892 257.352051 
L 377.902703 258.836544 
L 379.113514 259.994882 
L 380.324324 260.826049 
L 381.535135 261.349574 
L 382.745946 261.562823 
L 383.956757 261.506715 
L 385.167568 261.167359 
L 386.378378 260.591125 
L 387.891892 259.569027 
L 388.8 258.823656 
L 388.8 258.823656 
" style="fill:none;stroke:#ff7f0e;stroke-linecap:square;stroke-width:4;"/>
   </g>
   <g id="line2d_11">
    <path clip-path="url(#pb529232fec)" d="M 86.4 222.539233 
L 87.005405 234.496147 
L 87.610811 242.187236 
L 88.216216 246.759367 
L 88.821622 249.292032 
L 90.032432 252.401115 
L 91.545946 255.754659 
L 92.756757 257.993153 
L 93.967568 259.833641 
L 95.178378 261.24893 
L 96.086486 262.192336 
L 97.297297 263.186281 
L 98.810811 264.038596 
L 100.324324 264.708652 
L 103.048649 265.459288 
L 106.075676 265.643689 
L 108.8 266.795979 
L 109.405405 267.223098 
L 110.616216 268.576604 
L 111.827027 270.132265 
L 112.432432 271.033843 
L 113.643243 273.17443 
L 117.275676 278.947709 
L 118.183784 279.901409 
L 118.789189 280.330303 
L 119.394595 280.55164 
L 120 280.54957 
L 120.908108 280.281732 
L 121.513514 279.873419 
L 124.843243 277.026651 
L 125.751351 276.661559 
L 126.356757 276.620377 
L 126.962162 276.832294 
L 127.567568 277.225285 
L 128.475676 278.343912 
L 129.686486 280.355528 
L 131.502703 283.408714 
L 132.108108 284.084699 
L 133.318919 285.050401 
L 134.832432 285.782987 
L 136.951351 287.518031 
L 137.556757 288.203174 
L 140.281081 291.536469 
L 142.702703 293.863158 
L 144.216216 294.378093 
L 145.124324 294.493841 
L 145.72973 293.938512 
L 147.545946 293.807987 
L 149.059459 293.372817 
L 149.664865 292.883162 
L 152.389189 290.156955 
L 153.297297 289.182717 
L 154.810811 287.633631 
L 156.627027 285.021252 
L 159.048649 281.859309 
L 159.654054 281.579682 
L 165.405405 275.323027 
L 168.12973 272.056914 
L 169.340541 270.92831 
L 170.551351 270.201299 
L 172.064865 269.699361 
L 178.724324 267.92198 
L 182.659459 266.302824 
L 185.081081 265.958655 
L 186.594595 266.307066 
L 187.805405 266.904592 
L 189.924324 268.42554 
L 190.832432 269.166174 
L 192.951351 270.574591 
L 195.675676 271.219977 
L 199.308108 271.351593 
L 202.637838 271.038731 
L 203.243243 270.902139 
L 203.848649 270.881314 
L 204.454054 270.758207 
L 205.362162 270.670303 
L 208.389189 270.397549 
L 210.508108 270.322273 
L 213.232432 270.950149 
L 215.654054 271.904183 
L 218.983784 273.490512 
L 220.497297 274.337279 
L 224.432432 276.346315 
L 225.340541 276.801512 
L 234.421622 281.382414 
L 236.843243 282.160795 
L 239.87027 282.813226 
L 241.686486 282.918051 
L 245.016216 282.877007 
L 245.924324 282.858496 
L 249.254054 282.899713 
L 251.07027 283.073254 
L 252.583784 283.23374 
L 259.848649 284.05568 
L 261.967568 284.038737 
L 269.535135 283.520114 
L 278.616216 283.406891 
L 287.697297 283.195411 
L 290.724324 283.364681 
L 292.843243 283.669672 
L 293.448649 283.817153 
L 294.054054 283.811696 
L 294.962162 283.882403 
L 297.081081 283.979324 
L 298.594595 284.215574 
L 301.318919 284.667908 
L 301.924324 284.719309 
L 302.52973 284.824983 
L 303.135135 284.839509 
L 303.740541 284.918585 
L 304.345946 284.906724 
L 304.951351 284.951333 
L 305.556757 284.933917 
L 306.162162 284.961654 
L 306.767568 284.923751 
L 307.372973 284.93999 
L 307.978378 284.901798 
L 308.583784 284.944722 
L 309.189189 284.915004 
L 309.794595 284.94765 
L 310.4 284.924582 
L 311.005405 284.985573 
L 311.610811 284.975286 
L 312.216216 285.048194 
L 312.821622 285.070412 
L 313.427027 285.157053 
L 314.032432 285.188648 
L 314.637838 285.282389 
L 315.243243 285.303735 
L 315.848649 285.387221 
L 316.454054 285.409617 
L 317.059459 285.472949 
L 317.664865 285.470093 
L 318.27027 285.525993 
L 318.875676 285.506703 
L 319.481081 285.53203 
L 320.086486 285.484603 
L 320.691892 285.481717 
L 321.297297 285.402804 
L 321.902703 285.376447 
L 322.508108 285.260548 
L 323.113514 285.180715 
L 323.718919 285.038653 
L 324.324324 284.924055 
L 324.92973 284.744498 
L 325.535135 284.602777 
L 326.140541 284.383194 
L 326.745946 284.198997 
L 327.351351 283.940529 
L 327.956757 283.709894 
L 328.562162 283.417437 
L 329.167568 283.145475 
L 329.772973 282.819926 
L 330.378378 282.505356 
L 330.983784 282.119568 
L 331.589189 281.766143 
L 332.194595 281.356702 
L 332.8 280.972926 
L 333.405405 280.538475 
L 334.010811 280.139172 
L 334.616216 279.701027 
L 335.221622 279.299248 
L 335.827027 278.851506 
L 336.432432 278.438174 
L 337.037838 277.987233 
L 337.643243 277.585042 
L 338.248649 277.138508 
L 338.854054 276.737488 
L 339.762162 276.136263 
L 341.578378 274.908261 
L 347.632432 271.568003 
L 351.87027 269.386231 
L 357.318919 266.682025 
L 360.345946 265.35536 
L 363.372973 264.239366 
L 366.702703 263.34149 
L 369.427027 262.842215 
L 372.454054 262.528336 
L 375.481081 262.453006 
L 379.113514 262.605108 
L 381.837838 262.997472 
L 384.562162 263.59517 
L 386.681081 264.269016 
L 388.8 265.088002 
L 388.8 265.088002 
" style="fill:none;stroke:#2ca02c;stroke-linecap:square;stroke-width:4;"/>
   </g>
   <g id="line2d_12">
    <path clip-path="url(#pb529232fec)" d="M 86.4 264 
L 388.8 264 
" style="fill:none;stroke:#000000;stroke-dasharray:3.2,0.8,0.5,0.8;stroke-dashoffset:0;stroke-width:0.5;"/>
   </g>
   <g id="line2d_13">
    <path clip-path="url(#pb529232fec)" d="M 388.8 346.285714 
L 388.8 72 
" style="fill:none;stroke:#000000;stroke-dasharray:3.2,0.8,0.5,0.8;stroke-dashoffset:0;stroke-width:0.5;"/>
   </g>
   <g id="patch_3">
    <path d="M 86.4 346.285714 
L 86.4 72 
" style="fill:none;stroke:#000000;stroke-linecap:square;stroke-linejoin:miter;stroke-width:0.8;"/>
   </g>
   <g id="patch_4">
    <path d="M 388.8 346.285714 
L 388.8 72 
" style="fill:none;stroke:#000000;stroke-linecap:square;stroke-linejoin:miter;stroke-width:0.8;"/>
   </g>
   <g id="patch_5">
    <path d="M 86.4 346.285714 
L 388.8 346.285714 
" style="fill:none;stroke:#000000;stroke-linecap:square;stroke-linejoin:miter;stroke-width:0.8;"/>
   </g>
   <g id="patch_6">
    <path d="M 86.4 72 
L 388.8 72 
" style="fill:none;stroke:#000000;stroke-linecap:square;stroke-linejoin:miter;stroke-width:0.8;"/>
   </g>
   <g id="legend_1">
    <g id="line2d_14">
     <path d="M 78.360596 55.847143 
L 118.344596 55.847143 
" style="fill:none;stroke:#1f77b4;stroke-linecap:square;stroke-width:4;"/>
    </g>
    <g id="line2d_15"/>
    <g id="text_7">
     <!-- 1_stroke -->
     <g transform="translate(134.338196 62.844343)scale(0.19992 -0.19992)">
      <defs>
       <path d="M 50 -12.5 
L 0 -12.5 
L 0 -7.5 
L 50 -7.5 
z
" id="STIXGeneral-Regular-95"/>
       <path d="M 15.59375 30.09375 
L 26 23.796875 
Q 31 20.796875 32.890625 18.1875 
Q 34.796875 15.59375 34.796875 11.5 
Q 34.796875 6.5 30.640625 2.75 
Q 26.5 -1 20.796875 -1 
Q 16.09375 -1 13.5 -0.09375 
Q 10.796875 0.796875 8.90625 0.796875 
Q 7.203125 0.796875 6.5 -0.40625 
L 5.203125 -0.40625 
L 5.203125 15.296875 
L 6.796875 15.296875 
Q 8.40625 8 11.40625 4.59375 
Q 14.40625 1.203125 19.5 1.203125 
Q 23.203125 1.203125 25.5 3.296875 
Q 27.796875 5.40625 27.796875 8.59375 
Q 27.796875 13.203125 22.5 16.09375 
L 17.09375 19.09375 
Q 5.09375 25.796875 5.09375 33.59375 
Q 5.09375 39.40625 8.84375 42.65625 
Q 12.59375 45.90625 18.90625 45.90625 
Q 23.296875 45.90625 25.59375 44.796875 
Q 27.40625 44 28.40625 44 
Q 29.09375 44 30 45 
L 31.09375 45 
L 31.59375 31.40625 
L 30.09375 31.40625 
Q 28.40625 38.203125 25.84375 40.953125 
Q 23.296875 43.703125 18.796875 43.703125 
Q 15.40625 43.703125 13.34375 42 
Q 11.296875 40.296875 11.296875 36.90625 
Q 11.296875 35.203125 12.4375 33.25 
Q 13.59375 31.296875 15.59375 30.09375 
z
" id="STIXGeneral-Regular-115"/>
       <path d="M 26.59375 7.703125 
L 27.90625 6.59375 
Q 23.09375 -1 15.796875 -1 
Q 7 -1 7 11.703125 
L 7 41.796875 
L 1.703125 41.796875 
Q 1.296875 42.09375 1.296875 42.5 
Q 1.296875 43.296875 3 44.40625 
Q 6.796875 46.59375 12.703125 55.09375 
Q 12.90625 55.40625 13.65625 56.34375 
Q 14.40625 57.296875 14.703125 57.90625 
Q 15.40625 57.90625 15.40625 56.59375 
L 15.40625 45 
L 25.5 45 
L 25.5 41.796875 
L 15.40625 41.796875 
L 15.40625 13.203125 
Q 15.40625 8.40625 16.59375 6.296875 
Q 17.796875 4.203125 20.59375 4.203125 
Q 23.59375 4.203125 26.59375 7.703125 
z
" id="STIXGeneral-Regular-116"/>
       <path d="M 16 45.796875 
L 16 36.59375 
Q 19.796875 42 22.34375 44 
Q 24.90625 46 28 46 
Q 30.59375 46 32.046875 44.59375 
Q 33.5 43.203125 33.5 40.703125 
Q 33.5 38.59375 32.453125 37.390625 
Q 31.40625 36.203125 29.59375 36.203125 
Q 27.703125 36.203125 25.59375 38.203125 
Q 24 39.703125 23 39.703125 
Q 20.90625 39.703125 18.453125 36.796875 
Q 16 33.90625 16 31.5 
L 16 9 
Q 16 4.703125 17.703125 3.203125 
Q 19.40625 1.703125 24.5 1.5 
L 24.5 0 
L 0.5 0 
L 0.5 1.5 
Q 5.296875 2.40625 6.4375 3.5 
Q 7.59375 4.59375 7.59375 8.40625 
L 7.59375 33.40625 
Q 7.59375 36.703125 6.84375 38.046875 
Q 6.09375 39.40625 4.203125 39.40625 
Q 2.59375 39.40625 0.703125 39 
L 0.703125 40.59375 
Q 7 42.59375 15.5 46 
z
" id="STIXGeneral-Regular-114"/>
       <path d="M 47 23.09375 
Q 47 12.59375 40.75 5.796875 
Q 34.5 -1 24.5 -1 
Q 15.296875 -1 9.09375 5.75 
Q 2.90625 12.5 2.90625 22.796875 
Q 2.90625 33.203125 9.09375 39.59375 
Q 15.296875 46 25.40625 46 
Q 34.703125 46 40.84375 39.640625 
Q 47 33.296875 47 23.09375 
z
M 38 20.40625 
Q 38 31.796875 33 38.203125 
Q 29 43.203125 23.5 43.203125 
Q 18.296875 43.203125 15.09375 38.953125 
Q 11.90625 34.703125 11.90625 27.296875 
Q 11.90625 14.5 17.203125 6.796875 
Q 20.59375 1.796875 26.203125 1.796875 
Q 31.703125 1.796875 34.84375 6.75 
Q 38 11.703125 38 20.40625 
z
" id="STIXGeneral-Regular-111"/>
       <path d="M 50.5 0 
L 28.703125 0 
L 28.703125 1.5 
L 30.59375 1.5 
Q 32.703125 1.5 32.703125 3 
Q 32.703125 3.90625 31.59375 5.296875 
L 16.59375 25.09375 
L 16.59375 6.703125 
Q 16.59375 4.09375 17.84375 2.890625 
Q 19.09375 1.703125 22.09375 1.59375 
L 24.09375 1.5 
L 24.09375 0 
L 0.703125 0 
L 0.703125 1.5 
Q 6.09375 2.40625 7.140625 3.34375 
Q 8.203125 4.296875 8.203125 8.203125 
L 8.203125 56.40625 
Q 8.203125 60 7.296875 61.25 
Q 6.40625 62.5 3.90625 62.5 
Q 3.296875 62.5 0.703125 62.296875 
L 0.703125 63.90625 
L 3.703125 64.703125 
Q 9.703125 66.296875 16.203125 68.296875 
L 16.59375 68.09375 
L 16.59375 26.09375 
L 30.296875 38.296875 
Q 32.59375 40.40625 32.59375 41.796875 
Q 32.59375 42.796875 31.546875 43.140625 
Q 30.5 43.5 27.59375 43.59375 
L 27.59375 45 
L 48 45 
L 48 43.5 
Q 43 43.5 39.140625 41.34375 
Q 35.296875 39.203125 26.40625 30.90625 
L 23.5 28.203125 
L 38.796875 8.796875 
Q 44.203125 1.90625 50.5 1.5 
z
" id="STIXGeneral-Regular-107"/>
       <path d="M 40.796875 16.40625 
L 42.40625 15.703125 
Q 36.40625 -1 21.5 -1 
Q 12.703125 -1 7.59375 5.140625 
Q 2.5 11.296875 2.5 21.703125 
Q 2.5 32.40625 8.203125 39.203125 
Q 13.90625 46 23.203125 46 
Q 32.203125 46 37.09375 39.09375 
Q 40 35.09375 40.5 27.703125 
L 9.703125 27.703125 
Q 10.09375 21.40625 10.9375 18.09375 
Q 11.796875 14.796875 14.296875 11.40625 
Q 18.5 5.90625 25.40625 5.90625 
Q 30.296875 5.90625 33.640625 8.296875 
Q 37 10.703125 40.796875 16.40625 
z
M 9.90625 30.90625 
L 30.296875 30.90625 
Q 29.40625 37.203125 27.34375 39.796875 
Q 25.296875 42.40625 20.5 42.40625 
Q 16.296875 42.40625 13.5 39.453125 
Q 10.703125 36.5 9.90625 30.90625 
z
" id="STIXGeneral-Regular-101"/>
      </defs>
      <use xlink:href="#STIXGeneral-Regular-49"/>
      <use x="49.999985" xlink:href="#STIXGeneral-Regular-95"/>
      <use x="99.999969" xlink:href="#STIXGeneral-Regular-115"/>
      <use x="138.899963" xlink:href="#STIXGeneral-Regular-116"/>
      <use x="166.699951" xlink:href="#STIXGeneral-Regular-114"/>
      <use x="199.999939" xlink:href="#STIXGeneral-Regular-111"/>
      <use x="249.999924" xlink:href="#STIXGeneral-Regular-107"/>
      <use x="299.999908" xlink:href="#STIXGeneral-Regular-101"/>
     </g>
    </g>
    <g id="line2d_16">
     <path d="M 78.360596 84.176432 
L 118.344596 84.176432 
" style="fill:none;stroke:#ff7f0e;stroke-linecap:square;stroke-width:4;"/>
    </g>
    <g id="line2d_17"/>
    <g id="text_8">
     <!-- 5_stroke -->
     <g transform="translate(134.338196 91.173632)scale(0.19992 -0.19992)">
      <defs>
       <path d="M 43.796875 68.09375 
L 40.203125 59.59375 
Q 39.59375 58.296875 37.5 58.296875 
L 18.09375 58.296875 
L 14.09375 49.796875 
Q 25.09375 47.703125 30 45.25 
Q 34.90625 42.796875 39.09375 37 
Q 42.59375 32.203125 42.59375 24.296875 
Q 42.59375 17.09375 40.25 12.1875 
Q 37.90625 7.296875 32.796875 3.5 
Q 26 -1.40625 15.796875 -1.40625 
Q 10.09375 -1.40625 6.59375 0.296875 
Q 3.09375 2 3.09375 4.796875 
Q 3.09375 8.59375 7.59375 8.59375 
Q 11.203125 8.59375 15 5.5 
Q 18.90625 2.296875 22.09375 2.296875 
Q 27.296875 2.296875 31.4375 7.5 
Q 35.59375 12.703125 35.59375 19.203125 
Q 35.59375 28.796875 28.90625 34.203125 
Q 20.203125 41.203125 7.59375 41.203125 
Q 6.40625 41.203125 6.40625 42 
L 6.5 42.5 
L 17.40625 66.203125 
L 38.09375 66.203125 
Q 39.796875 66.203125 40.75 66.703125 
Q 41.703125 67.203125 42.90625 68.796875 
z
" id="STIXGeneral-Regular-53"/>
      </defs>
      <use xlink:href="#STIXGeneral-Regular-53"/>
      <use x="49.999985" xlink:href="#STIXGeneral-Regular-95"/>
      <use x="99.999969" xlink:href="#STIXGeneral-Regular-115"/>
      <use x="138.899963" xlink:href="#STIXGeneral-Regular-116"/>
      <use x="166.699951" xlink:href="#STIXGeneral-Regular-114"/>
      <use x="199.999939" xlink:href="#STIXGeneral-Regular-111"/>
      <use x="249.999924" xlink:href="#STIXGeneral-Regular-107"/>
      <use x="299.999908" xlink:href="#STIXGeneral-Regular-101"/>
     </g>
    </g>
    <g id="line2d_18">
     <path d="M 243.175894 55.847143 
L 283.159894 55.847143 
" style="fill:none;stroke:#2ca02c;stroke-linecap:square;stroke-width:4;"/>
    </g>
    <g id="line2d_19"/>
    <g id="text_9">
     <!-- wake_effect -->
     <g transform="translate(299.153494 62.844343)scale(0.19992 -0.19992)">
      <defs>
       <path d="M 69.40625 45 
L 69.40625 43.5 
Q 67.90625 43 67.203125 42.046875 
Q 66.5 41.09375 65.296875 38.09375 
L 51.5 3.5 
Q 49.5 -1.40625 48.703125 -1.40625 
Q 48.203125 -1.40625 47.84375 -0.75 
Q 47.5 -0.09375 46.296875 2.90625 
L 37.203125 26.5 
L 26 2.5 
Q 24.203125 -1.40625 23.5 -1.40625 
Q 22.59375 -1.40625 20.90625 3 
L 7.40625 37.203125 
Q 5.90625 41.09375 4.90625 42.1875 
Q 3.90625 43.296875 2.09375 43.5 
L 2.09375 45 
L 20.09375 45 
L 20.09375 43.5 
Q 17.5 43.203125 16.5 42.5 
Q 15.5 41.796875 15.5 40.203125 
Q 15.5 38.703125 16.09375 37.203125 
L 26 11.09375 
L 35.09375 31 
L 33.09375 36.59375 
Q 31.703125 40.59375 30.34375 41.890625 
Q 29 43.203125 26.203125 43.5 
L 26.203125 45 
L 46.5 45 
L 46.5 43.5 
Q 43 43 41.84375 42.296875 
Q 40.703125 41.59375 40.703125 40 
Q 40.703125 38.40625 42.40625 34 
L 50.796875 11.59375 
L 59.796875 33.796875 
Q 61.5 38 61.5 40.5 
Q 61.5 41.703125 60.546875 42.34375 
Q 59.59375 43 57.09375 43.5 
L 57.09375 45 
z
" id="STIXGeneral-Regular-119"/>
       <path d="M 44.203125 6.59375 
L 44.203125 3.796875 
Q 40.40625 -1 35.203125 -1 
Q 29.5 -1 28.796875 6.296875 
L 28.703125 6.296875 
Q 22.296875 -1 14.203125 -1 
Q 9.5 -1 6.59375 1.75 
Q 3.703125 4.5 3.703125 9.40625 
Q 3.703125 16.40625 10.703125 21.09375 
Q 15.5 24.296875 28.703125 29.203125 
L 28.703125 34.59375 
Q 28.703125 39.09375 26.546875 41.34375 
Q 24.40625 43.59375 20.90625 43.59375 
Q 17.90625 43.59375 15.90625 42.140625 
Q 13.90625 40.703125 13.90625 38.703125 
Q 13.90625 37.796875 14.203125 36.6875 
Q 14.5 35.59375 14.5 34.5 
Q 14.5 33 13.140625 31.703125 
Q 11.796875 30.40625 9.90625 30.40625 
Q 8.203125 30.40625 6.890625 31.703125 
Q 5.59375 33 5.59375 35 
Q 5.59375 39.796875 10.703125 43 
Q 15.40625 46 22.203125 46 
Q 30.296875 46 34 41.5 
Q 35.796875 39.40625 36.296875 37.25 
Q 36.796875 35.09375 36.796875 30.40625 
L 36.796875 11.296875 
Q 36.796875 4.703125 39.90625 4.703125 
Q 41.90625 4.703125 44.203125 6.59375 
z
M 28.703125 12.703125 
L 28.703125 26.796875 
Q 19.5 23.59375 15.90625 20.203125 
Q 12.5 17.09375 12.5 12.5 
Q 12.5 8.703125 14.390625 6.75 
Q 16.296875 4.796875 19.40625 4.796875 
Q 22.703125 4.796875 25.203125 6.40625 
Q 27.296875 7.90625 28 9.203125 
Q 28.703125 10.5 28.703125 12.703125 
z
" id="STIXGeneral-Regular-97"/>
       <path d="M 2.09375 45 
L 10.296875 45 
Q 10.40625 51 11.09375 54.34375 
Q 11.796875 57.703125 13.796875 61.09375 
Q 18 68.296875 27.90625 68.296875 
Q 32.40625 68.296875 35.34375 66.546875 
Q 38.296875 64.796875 38.296875 62.09375 
Q 38.296875 60.40625 37.09375 59.203125 
Q 35.90625 58 34.09375 58 
Q 31.703125 58 29.59375 61.59375 
Q 27.203125 65.5 24.296875 65.5 
Q 18.703125 65.5 18.703125 56.59375 
L 18.703125 45 
L 30.90625 45 
L 30.90625 41.796875 
L 18.703125 41.796875 
L 18.703125 10.40625 
Q 18.703125 4.796875 20.296875 3.25 
Q 21.90625 1.703125 28 1.5 
L 28 0 
L 2 0 
L 2 1.5 
Q 7.40625 1.796875 8.84375 3.34375 
Q 10.296875 4.90625 10.296875 10.40625 
L 10.296875 41.796875 
L 2.09375 41.796875 
z
" id="STIXGeneral-Regular-102"/>
       <path d="M 39.796875 15.59375 
L 41.203125 14.703125 
Q 36.90625 6.296875 33 3.203125 
Q 27.90625 -1 21.5 -1 
Q 13.203125 -1 7.84375 5.25 
Q 2.5 11.5 2.5 21.203125 
Q 2.5 33.90625 10.90625 40.90625 
Q 17.09375 46 24.40625 46 
Q 30.703125 46 35.25 42.953125 
Q 39.796875 39.90625 39.796875 35.703125 
Q 39.796875 34 38.390625 32.75 
Q 37 31.5 35.09375 31.5 
Q 31.59375 31.5 30.296875 36.09375 
L 29.703125 38.296875 
Q 28.90625 41.09375 27.703125 42.09375 
Q 26.5 43.09375 23.796875 43.09375 
Q 17.703125 43.09375 13.953125 38.296875 
Q 10.203125 33.5 10.203125 25.703125 
Q 10.203125 17.09375 14.5 11.640625 
Q 18.796875 6.203125 25.703125 6.203125 
Q 30 6.203125 33.09375 8.25 
Q 36.203125 10.296875 39.796875 15.59375 
z
" id="STIXGeneral-Regular-99"/>
      </defs>
      <use xlink:href="#STIXGeneral-Regular-119"/>
      <use x="72.199982" xlink:href="#STIXGeneral-Regular-97"/>
      <use x="116.599976" xlink:href="#STIXGeneral-Regular-107"/>
      <use x="166.59996" xlink:href="#STIXGeneral-Regular-101"/>
      <use x="210.999954" xlink:href="#STIXGeneral-Regular-95"/>
      <use x="260.999939" xlink:href="#STIXGeneral-Regular-101"/>
      <use x="305.399933" xlink:href="#STIXGeneral-Regular-102"/>
      <use x="338.699921" xlink:href="#STIXGeneral-Regular-102"/>
      <use x="371.999908" xlink:href="#STIXGeneral-Regular-101"/>
      <use x="416.399902" xlink:href="#STIXGeneral-Regular-99"/>
      <use x="460.799896" xlink:href="#STIXGeneral-Regular-116"/>
     </g>
    </g>
   </g>
  </g>
  <g id="axes_2">
   <g id="patch_7">
    <path d="M 86.4 648 
L 388.8 648 
L 388.8 373.714286 
L 86.4 373.714286 
z
" style="fill:#ffffff;"/>
   </g>
   <g id="matplotlib.axis_3">
    <g id="xtick_4">
     <g id="line2d_20">
      <g>
       <use style="fill:#ffffff;stroke:#000000;stroke-width:0.8;" x="86.4" xlink:href="#mf325aabf23" y="648"/>
      </g>
     </g>
     <g id="text_10">
      <!-- 0.0 -->
      <g transform="translate(71.4 671.39125)scale(0.24 -0.24)">
       <defs>
        <path d="M 18.09375 4.296875 
Q 18.09375 2.09375 16.4375 0.5 
Q 14.796875 -1.09375 12.5 -1.09375 
Q 10.203125 -1.09375 8.59375 0.5 
Q 7 2.09375 7 4.390625 
Q 7 6.703125 8.640625 8.34375 
Q 10.296875 10 12.59375 10 
Q 14.796875 10 16.4375 8.296875 
Q 18.09375 6.59375 18.09375 4.296875 
z
" id="STIXGeneral-Regular-46"/>
       </defs>
       <use xlink:href="#STIXGeneral-Regular-48"/>
       <use x="49.999985" xlink:href="#STIXGeneral-Regular-46"/>
       <use x="74.999969" xlink:href="#STIXGeneral-Regular-48"/>
      </g>
     </g>
    </g>
    <g id="xtick_5">
     <g id="line2d_21">
      <g>
       <use style="fill:#ffffff;stroke:#000000;stroke-width:0.8;" x="207.36" xlink:href="#mf325aabf23" y="648"/>
      </g>
     </g>
     <g id="text_11">
      <!-- 0.2 -->
      <g transform="translate(192.36 671.39125)scale(0.24 -0.24)">
       <use xlink:href="#STIXGeneral-Regular-48"/>
       <use x="49.999985" xlink:href="#STIXGeneral-Regular-46"/>
       <use x="74.999969" xlink:href="#STIXGeneral-Regular-50"/>
      </g>
     </g>
    </g>
    <g id="xtick_6">
     <g id="line2d_22">
      <g>
       <use style="fill:#ffffff;stroke:#000000;stroke-width:0.8;" x="328.32" xlink:href="#mf325aabf23" y="648"/>
      </g>
     </g>
     <g id="text_12">
      <!-- 0.4 -->
      <g transform="translate(313.32 671.39125)scale(0.24 -0.24)">
       <defs>
        <path d="M 47.296875 16.703125 
L 37 16.703125 
L 37 0 
L 29.203125 0 
L 29.203125 16.703125 
L 1.203125 16.703125 
L 1.203125 23.09375 
L 32.59375 67.59375 
L 37 67.59375 
L 37 23.09375 
L 47.296875 23.09375 
z
M 29.203125 23.09375 
L 29.203125 57.40625 
L 5.203125 23.09375 
z
" id="STIXGeneral-Regular-52"/>
       </defs>
       <use xlink:href="#STIXGeneral-Regular-48"/>
       <use x="49.999985" xlink:href="#STIXGeneral-Regular-46"/>
       <use x="74.999969" xlink:href="#STIXGeneral-Regular-52"/>
      </g>
     </g>
    </g>
    <g id="text_13">
     <!-- $\^t$ -->
     <g transform="translate(234.24 696.99125)scale(0.24 -0.24)">
      <defs>
       <path d="M -7.5 50.703125 
L -10.90625 50.703125 
L -23.09375 61 
L -35.203125 50.703125 
L -38.59375 50.703125 
L -26.203125 67.40625 
L -20 67.40625 
z
" id="STIXGeneral-Regular-770"/>
       <path d="M 29.59375 42.796875 
L 29.09375 39.59375 
L 20.703125 39.59375 
L 12 6.796875 
Q 11.796875 6 11.796875 5.40625 
Q 11.796875 3.796875 13.296875 3.796875 
Q 14.5 3.796875 16.09375 5.34375 
Q 17.703125 6.90625 21.40625 11.703125 
L 22.703125 11 
Q 18.09375 4 15.140625 1.453125 
Q 12.203125 -1.09375 8.40625 -1.09375 
Q 3.796875 -1.09375 3.796875 2.59375 
Q 3.796875 3.59375 5.40625 10 
L 13.203125 39.59375 
L 5.703125 39.59375 
L 5.59375 40.203125 
Q 5.59375 42 8.90625 42.703125 
Q 11.40625 43.296875 15.5 46.546875 
Q 19.59375 49.796875 22.203125 53.703125 
Q 22.796875 54.59375 23.59375 54.59375 
Q 24.5 54.59375 24.5 53.796875 
Q 24.5 53.296875 24.40625 53.09375 
L 21.59375 42.796875 
z
" id="STIXGeneral-Italic-116"/>
      </defs>
      <use transform="translate(39.042969 16.59375)" xlink:href="#STIXGeneral-Regular-770"/>
      <use transform="translate(0 0.203125)" xlink:href="#STIXGeneral-Italic-116"/>
     </g>
    </g>
   </g>
   <g id="matplotlib.axis_4">
    <g id="ytick_6">
     <g id="line2d_23">
      <g>
       <use style="fill:#ffffff;stroke:#000000;stroke-width:0.8;" x="86.4" xlink:href="#m92b9ab9d7c" y="620.571429"/>
      </g>
     </g>
     <g id="text_14">
      <!-- −1 -->
      <g transform="translate(50.96 628.767054)scale(0.24 -0.24)">
       <use xlink:href="#STIXGeneral-Regular-8722"/>
       <use x="68.499985" xlink:href="#STIXGeneral-Regular-49"/>
      </g>
     </g>
    </g>
    <g id="ytick_7">
     <g id="line2d_24">
      <g>
       <use style="fill:#ffffff;stroke:#000000;stroke-width:0.8;" x="86.4" xlink:href="#m92b9ab9d7c" y="565.714286"/>
      </g>
     </g>
     <g id="text_15">
      <!-- 0 -->
      <g transform="translate(67.4 573.909911)scale(0.24 -0.24)">
       <use xlink:href="#STIXGeneral-Regular-48"/>
      </g>
     </g>
    </g>
    <g id="ytick_8">
     <g id="line2d_25">
      <g>
       <use style="fill:#ffffff;stroke:#000000;stroke-width:0.8;" x="86.4" xlink:href="#m92b9ab9d7c" y="510.857143"/>
      </g>
     </g>
     <g id="text_16">
      <!-- 1 -->
      <g transform="translate(67.4 519.052768)scale(0.24 -0.24)">
       <use xlink:href="#STIXGeneral-Regular-49"/>
      </g>
     </g>
    </g>
    <g id="ytick_9">
     <g id="line2d_26">
      <g>
       <use style="fill:#ffffff;stroke:#000000;stroke-width:0.8;" x="86.4" xlink:href="#m92b9ab9d7c" y="456"/>
      </g>
     </g>
     <g id="text_17">
      <!-- 2 -->
      <g transform="translate(67.4 464.195625)scale(0.24 -0.24)">
       <use xlink:href="#STIXGeneral-Regular-50"/>
      </g>
     </g>
    </g>
    <g id="ytick_10">
     <g id="line2d_27">
      <g>
       <use style="fill:#ffffff;stroke:#000000;stroke-width:0.8;" x="86.4" xlink:href="#m92b9ab9d7c" y="401.142857"/>
      </g>
     </g>
     <g id="text_18">
      <!-- 3 -->
      <g transform="translate(67.4 409.338482)scale(0.24 -0.24)">
       <use xlink:href="#STIXGeneral-Regular-51"/>
      </g>
     </g>
    </g>
    <g id="text_19">
     <!-- $C_D$ -->
     <g transform="translate(41.75125 525.497143)rotate(-90)scale(0.24 -0.24)">
      <defs>
       <path d="M 13.09375 65.296875 
L 40.796875 65.296875 
Q 54.203125 65.296875 62.09375 58.296875 
Q 70 51.296875 70 38.40625 
Q 70 20.703125 54 8.296875 
Q 43.40625 0 24.90625 0 
L -0.796875 0 
L -0.796875 1.59375 
Q 3.5 2.40625 4.84375 3.59375 
Q 6.203125 4.796875 7.40625 9.203125 
L 19.59375 53.703125 
Q 20.703125 57.59375 20.703125 59.59375 
Q 20.703125 61.703125 19.09375 62.640625 
Q 17.5 63.59375 13.09375 63.703125 
z
M 31 58.40625 
L 19.203125 16.203125 
Q 17 8.203125 17 6.703125 
Q 17 3 23.796875 3 
Q 38.59375 3 47.90625 12 
Q 53.09375 17 56 24.953125 
Q 58.90625 32.90625 58.90625 40.796875 
Q 58.90625 52.90625 51.09375 58.796875 
Q 46.40625 62.296875 38 62.296875 
Q 34.796875 62.296875 33.25 61.546875 
Q 31.703125 60.796875 31 58.40625 
z
" id="STIXGeneral-Italic-68"/>
      </defs>
      <use transform="translate(0 0.40625)" xlink:href="#STIXGeneral-Italic-67"/>
      <use transform="translate(66.699997 -12.821875)scale(0.7)" xlink:href="#STIXGeneral-Italic-68"/>
     </g>
    </g>
   </g>
   <g id="line2d_28">
    <path clip-path="url(#pca17b4bbcc)" d="M 87.102506 721 
L 87.610811 591.900883 
L 88.216216 514.85277 
L 88.518919 497.751996 
L 88.821622 490.101781 
L 89.124324 488.278402 
L 89.427027 488.658136 
L 89.72973 488.396029 
L 90.335135 487.195649 
L 91.243243 486.364389 
L 92.756757 484.528946 
L 94.27027 482.720366 
L 95.178378 481.856541 
L 96.086486 480.866427 
L 97.902703 479.243624 
L 99.718919 478.003343 
L 101.232432 477.279368 
L 102.443243 476.858688 
L 105.47027 475.876639 
L 108.497297 474.983538 
L 113.340541 472.843745 
L 116.972973 470.81861 
L 119.697297 469.139294 
L 124.843243 465.270002 
L 127.87027 462.350347 
L 129.989189 460.13863 
L 136.345946 453.175488 
L 139.372973 449.864897 
L 143.610811 445.614154 
L 145.427027 444.058275 
L 147.848649 442.244933 
L 149.967568 441.096037 
L 151.783784 440.48845 
L 152.994595 440.270285 
L 153.902703 440.215719 
L 155.416216 440.370799 
L 156.324324 440.593932 
L 157.837838 441.243227 
L 158.745946 441.787416 
L 160.259459 442.983503 
L 161.47027 444.197501 
L 162.378378 445.135437 
L 162.681081 445.094845 
L 163.286486 444.334344 
L 163.891892 444.14949 
L 168.12973 443.29074 
L 172.67027 442.697854 
L 176.605405 442.24761 
L 178.421622 442.036749 
L 181.448649 441.569252 
L 183.567568 441.224554 
L 196.886486 438.652328 
L 203.848649 436.74642 
L 206.875676 435.717335 
L 208.389189 435.21806 
L 212.627027 433.6633 
L 223.827027 429.523034 
L 225.643243 428.902933 
L 227.459459 428.24748 
L 229.275676 427.64288 
L 231.091892 427.006213 
L 232.908108 426.435895 
L 234.724324 425.845359 
L 236.540541 425.328314 
L 238.356757 424.818567 
L 240.172973 424.396116 
L 241.989189 423.972356 
L 244.108108 423.558558 
L 248.043243 422.984079 
L 249.859459 422.845599 
L 251.07027 422.786495 
L 252.583784 422.777156 
L 255.005405 422.959937 
L 257.72973 423.411926 
L 259.545946 423.821636 
L 261.059459 424.169843 
L 265.6 425.252208 
L 271.351351 426.009497 
L 277.102703 426.431948 
L 278.918919 426.611997 
L 280.432432 426.719907 
L 288.605405 427.396718 
L 291.632432 427.319015 
L 292.237838 427.285363 
L 293.751351 426.960968 
L 295.264865 426.995357 
L 295.87027 427.098935 
L 299.2 426.85445 
L 303.437838 426.328685 
L 306.767568 426.321258 
L 312.821622 426.118596 
L 313.72973 426.08814 
L 316.454054 426.903289 
L 318.572973 427.560351 
L 320.691892 428.360128 
L 324.627027 430.315076 
L 327.048649 431.793429 
L 330.075676 433.932437 
L 336.12973 438.926003 
L 342.486486 444.801457 
L 344.908108 447.588569 
L 347.027027 450.54298 
L 348.843243 453.568987 
L 350.659459 457.135929 
L 352.475676 461.222587 
L 354.291892 465.882031 
L 356.108108 471.126089 
L 358.227027 478.031489 
L 360.345946 485.768431 
L 362.464865 494.368712 
L 365.189189 506.627992 
L 367.913514 520.115567 
L 371.243243 537.862791 
L 377.297297 571.661325 
L 379.113514 581.777919 
L 382.140541 597.406576 
L 386.983784 621.35452 
L 387.286486 623.800548 
L 387.589189 624.323234 
L 387.891892 622.199219 
L 388.194595 627.228458 
L 388.497297 642.096386 
L 388.8 630.144648 
L 388.8 630.144648 
" style="fill:none;stroke:#1f77b4;stroke-linecap:square;stroke-width:4;"/>
   </g>
   <g id="line2d_29">
    <path clip-path="url(#pca17b4bbcc)" d="M 86.4 609.460837 
L 87.005405 519.410789 
L 87.308108 509.392415 
L 87.610811 517.143364 
L 87.913514 518.31397 
L 88.216216 514.758222 
L 88.518919 513.010785 
L 88.821622 512.565825 
L 89.427027 510.474818 
L 90.637838 506.740733 
L 92.454054 501.889678 
L 94.572973 496.172031 
L 99.113514 483.251429 
L 100.627027 479.828054 
L 102.140541 476.967293 
L 104.562162 472.866937 
L 105.47027 471.508738 
L 106.378378 470.611248 
L 107.286486 470.139011 
L 107.891892 470.016428 
L 108.8 470.130313 
L 109.405405 470.414605 
L 111.827027 472.828093 
L 112.432432 473.551364 
L 113.037838 474.834428 
L 113.945946 475.881072 
L 115.762162 477.932933 
L 116.67027 478.657183 
L 117.275676 479.038082 
L 118.183784 479.185334 
L 118.789189 479.065119 
L 119.697297 478.516012 
L 120.605405 477.525013 
L 121.513514 476.194635 
L 123.32973 473.045878 
L 125.448649 469.28785 
L 126.356757 468.042001 
L 127.264865 467.275304 
L 127.87027 467.033053 
L 128.778378 466.979597 
L 129.989189 467.397774 
L 130.897297 467.763653 
L 131.805405 467.909874 
L 132.713514 467.756751 
L 133.924324 467.297872 
L 135.740541 466.671701 
L 136.648649 466.614917 
L 140.583784 466.13493 
L 142.702703 465.428281 
L 144.216216 464.422702 
L 145.124324 463.66809 
L 145.72973 462.578068 
L 149.664865 458.990245 
L 152.086486 455.710033 
L 153.297297 454.222051 
L 155.113514 452.332766 
L 156.021622 451.23328 
L 157.535135 449.742433 
L 158.745946 448.890238 
L 159.048649 448.845439 
L 159.654054 449.10512 
L 161.167568 449.067429 
L 162.378378 449.321043 
L 162.681081 449.034414 
L 163.286486 447.759257 
L 164.497297 446.375301 
L 166.313514 444.299501 
L 168.12973 442.173293 
L 170.248649 440.211866 
L 171.156757 439.645698 
L 172.064865 439.174373 
L 174.183784 438.416809 
L 177.513514 437.653187 
L 179.632432 436.951317 
L 181.448649 436.00164 
L 182.054054 435.744735 
L 182.962162 435.263432 
L 185.383784 434.31599 
L 186.594595 434.146395 
L 187.805405 434.254376 
L 189.924324 434.939615 
L 190.832432 435.367437 
L 192.951351 436.169468 
L 195.675676 436.198835 
L 199.005405 435.701289 
L 199.610811 435.498944 
L 200.216216 435.404211 
L 200.821622 435.166096 
L 201.427027 435.034972 
L 202.032432 434.780699 
L 202.637838 434.653188 
L 203.243243 434.412834 
L 204.151351 434.198968 
L 205.664865 433.870727 
L 206.27027 433.808836 
L 206.875676 433.645305 
L 207.481081 433.58405 
L 208.086486 433.431057 
L 208.691892 433.38109 
L 209.297297 433.238365 
L 210.205405 433.149511 
L 211.718919 433.104997 
L 212.627027 433.152305 
L 214.140541 433.318167 
L 215.048649 433.466046 
L 216.864865 433.794989 
L 223.221622 434.957453 
L 223.827027 435.007522 
L 224.432432 435.150965 
L 225.340541 435.278744 
L 231.091892 436.315674 
L 231.697297 436.469175 
L 232.605405 436.615244 
L 234.421622 436.786046 
L 237.751351 436.95122 
L 238.659459 436.942046 
L 241.383784 436.779582 
L 242.291892 436.65644 
L 248.345946 435.775848 
L 250.464865 435.704752 
L 252.281081 435.865802 
L 253.189189 435.98529 
L 255.308108 436.334219 
L 257.124324 436.812177 
L 258.940541 437.281626 
L 260.151351 437.57854 
L 261.059459 437.774832 
L 264.389189 438.368331 
L 265.902703 438.56208 
L 270.443243 439.112293 
L 271.956757 439.202166 
L 275.589189 439.429085 
L 280.12973 439.60201 
L 281.037838 439.616839 
L 293.145946 439.151099 
L 294.962162 439.091427 
L 295.87027 439.226351 
L 296.778378 439.16482 
L 304.951351 438.999093 
L 306.464865 438.982162 
L 309.794595 439.007912 
L 311.308108 438.981845 
L 313.72973 439.030417 
L 315.545946 439.849631 
L 317.664865 440.64658 
L 319.481081 441.415117 
L 320.994595 442.035503 
L 324.324324 443.51234 
L 325.837838 444.158963 
L 328.864865 445.519832 
L 334.616216 447.707032 
L 336.12973 448.286344 
L 338.854054 449.359226 
L 339.762162 449.781632 
L 341.275676 450.560463 
L 342.789189 451.515266 
L 344.605405 453.000234 
L 346.118919 454.481631 
L 347.632432 456.261655 
L 349.448649 458.823372 
L 350.962162 461.28433 
L 352.475676 464.110553 
L 354.291892 467.964293 
L 356.108108 472.330273 
L 357.924324 477.243526 
L 359.740541 482.730483 
L 361.859459 489.869278 
L 363.978378 497.827641 
L 366.4 507.919133 
L 369.124324 520.37975 
L 372.756757 538.335176 
L 382.443243 587.078193 
L 385.772973 602.241911 
L 387.589189 609.945206 
L 387.891892 608.439307 
L 388.194595 612.369732 
L 388.497297 623.780316 
L 388.8 614.737186 
L 388.8 614.737186 
" style="fill:none;stroke:#ff7f0e;stroke-linecap:square;stroke-width:4;"/>
   </g>
   <g id="line2d_30">
    <path clip-path="url(#pca17b4bbcc)" d="M 86.4 156.327511 
L 87.005405 334.889171 
L 87.610811 490.956767 
L 87.913514 539.000432 
L 88.216216 565.619738 
L 88.518919 580.973075 
L 88.821622 588.17833 
L 89.124324 589.109125 
L 89.427027 587.530967 
L 89.72973 586.760864 
L 90.032432 586.582401 
L 90.335135 586.153362 
L 91.243243 584.411571 
L 93.664865 581.000117 
L 94.27027 580.027276 
L 99.113514 570.577754 
L 100.92973 567.505127 
L 104.864865 562.024293 
L 105.772973 561.083291 
L 106.681081 560.609887 
L 107.286486 560.498751 
L 108.194595 560.630121 
L 109.102703 561.206857 
L 109.708108 561.900045 
L 111.827027 564.941344 
L 112.432432 565.959862 
L 113.340541 568.112132 
L 114.551351 570.147694 
L 116.064865 572.578288 
L 117.275676 574.107145 
L 118.183784 574.7962 
L 118.789189 575.059126 
L 119.697297 575.091004 
L 120.302703 574.881572 
L 121.210811 574.241133 
L 122.724324 572.830044 
L 124.843243 570.745362 
L 125.751351 570.073378 
L 126.356757 569.894729 
L 126.962162 569.924479 
L 127.567568 570.147376 
L 128.475676 571.011883 
L 129.686486 572.552845 
L 132.108108 575.808392 
L 133.318919 576.755388 
L 134.832432 577.751662 
L 137.254054 580.091674 
L 138.162162 581.06287 
L 141.491892 583.988123 
L 143.005405 584.779138 
L 144.216216 585.057369 
L 145.124324 585.095574 
L 145.72973 584.473669 
L 147.243243 584.417316 
L 148.151351 584.21464 
L 149.059459 583.944208 
L 149.664865 583.464982 
L 152.086486 581.018428 
L 153.902703 579.090004 
L 155.113514 577.735423 
L 156.627027 575.592986 
L 158.745946 572.817108 
L 159.048649 572.555711 
L 159.654054 572.373564 
L 162.075676 570.14067 
L 164.497297 568.080473 
L 166.616216 566.078744 
L 168.735135 564.061109 
L 169.643243 563.335693 
L 171.156757 562.468598 
L 172.67027 561.924839 
L 174.183784 561.605564 
L 179.632432 560.798628 
L 183.87027 559.350365 
L 186.291892 559.077539 
L 187.805405 559.450611 
L 189.621622 560.347751 
L 193.254054 562.419006 
L 194.767568 562.823683 
L 195.675676 562.970793 
L 199.308108 563.258191 
L 205.362162 563.414298 
L 208.086486 563.846933 
L 211.718919 564.827784 
L 215.048649 566.419002 
L 218.075676 568.083405 
L 223.221622 570.910355 
L 225.037838 571.821055 
L 231.697297 575.355122 
L 235.632432 577.004367 
L 238.054054 577.729407 
L 240.475676 578.236779 
L 242.594595 578.454663 
L 245.621622 578.462963 
L 247.437838 578.491134 
L 249.254054 578.539156 
L 251.372973 578.706329 
L 260.756757 579.340309 
L 268.92973 578.87017 
L 280.12973 578.600544 
L 288.908108 577.739659 
L 292.540541 577.739693 
L 293.448649 577.873216 
L 297.989189 577.832059 
L 299.502703 578.058727 
L 301.318919 578.258554 
L 301.924324 578.28989 
L 302.52973 578.358209 
L 303.135135 578.36364 
L 303.740541 578.409633 
L 304.648649 578.42596 
L 308.281081 578.41146 
L 310.4 578.413159 
L 311.005405 578.46761 
L 311.610811 578.473892 
L 312.518919 578.53414 
L 315.848649 578.930445 
L 316.454054 578.97813 
L 317.059459 579.056773 
L 317.664865 579.099739 
L 318.27027 579.176171 
L 318.875676 579.202292 
L 319.481081 579.254212 
L 320.086486 579.256141 
L 320.691892 579.286933 
L 321.297297 579.265144 
L 321.902703 579.282364 
L 323.416216 579.149038 
L 325.232432 578.991905 
L 329.167568 578.072191 
L 330.681081 577.491344 
L 332.497297 576.778396 
L 334.616216 575.757692 
L 335.221622 575.489804 
L 336.12973 575.074627 
L 337.945946 574.156092 
L 345.210811 571.273491 
L 348.237838 570.280555 
L 352.778378 568.46947 
L 356.713514 566.606046 
L 360.345946 564.639466 
L 370.032432 559.200376 
L 374.27027 557.055977 
L 377.6 555.438324 
L 378.205405 555.052851 
L 382.140541 553.951938 
L 383.351351 553.540066 
L 385.772973 552.591383 
L 386.983784 551.784041 
L 387.286486 551.336337 
L 387.589189 551.336258 
L 387.891892 551.954374 
L 388.194595 550.855559 
L 388.497297 547.398216 
L 388.8 550.306823 
L 388.8 550.306823 
" style="fill:none;stroke:#2ca02c;stroke-linecap:square;stroke-width:4;"/>
   </g>
   <g id="line2d_31">
    <path clip-path="url(#pca17b4bbcc)" d="M 86.4 565.714286 
L 388.8 565.714286 
" style="fill:none;stroke:#000000;stroke-dasharray:3.2,0.8,0.5,0.8;stroke-dashoffset:0;stroke-width:0.5;"/>
   </g>
   <g id="line2d_32">
    <path clip-path="url(#pca17b4bbcc)" d="M 388.8 648 
L 388.8 373.714286 
" style="fill:none;stroke:#000000;stroke-dasharray:3.2,0.8,0.5,0.8;stroke-dashoffset:0;stroke-width:0.5;"/>
   </g>
   <g id="patch_8">
    <path d="M 86.4 648 
L 86.4 373.714286 
" style="fill:none;stroke:#000000;stroke-linecap:square;stroke-linejoin:miter;stroke-width:0.8;"/>
   </g>
   <g id="patch_9">
    <path d="M 388.8 648 
L 388.8 373.714286 
" style="fill:none;stroke:#000000;stroke-linecap:square;stroke-linejoin:miter;stroke-width:0.8;"/>
   </g>
   <g id="patch_10">
    <path d="M 86.4 648 
L 388.8 648 
" style="fill:none;stroke:#000000;stroke-linecap:square;stroke-linejoin:miter;stroke-width:0.8;"/>
   </g>
   <g id="patch_11">
    <path d="M 86.4 373.714286 
L 388.8 373.714286 
" style="fill:none;stroke:#000000;stroke-linecap:square;stroke-linejoin:miter;stroke-width:0.8;"/>
   </g>
  </g>
 </g>
 <defs>
  <clipPath id="pb529232fec">
   <rect height="274.285714" width="302.4" x="86.4" y="72"/>
  </clipPath>
  <clipPath id="pca17b4bbcc">
   <rect height="274.285714" width="302.4" x="86.4" y="373.714286"/>
  </clipPath>
 </defs>
</svg>
