<?xml version="1.0" encoding="utf-8" standalone="no"?>
<!DOCTYPE svg PUBLIC "-//W3C//DTD SVG 1.1//EN"
  "http://www.w3.org/Graphics/SVG/1.1/DTD/svg11.dtd">
<!-- Created with matplotlib (https://matplotlib.org/) -->
<svg height="720pt" version="1.1" viewBox="0 0 432 720" width="432pt" xmlns="http://www.w3.org/2000/svg" xmlns:xlink="http://www.w3.org/1999/xlink">
 <metadata>
  <rdf:RDF xmlns:cc="http://creativecommons.org/ns#" xmlns:dc="http://purl.org/dc/elements/1.1/" xmlns:rdf="http://www.w3.org/1999/02/22-rdf-syntax-ns#">
   <cc:Work>
    <dc:type rdf:resource="http://purl.org/dc/dcmitype/StillImage"/>
    <dc:date>2022-05-03T18:48:56.725467</dc:date>
    <dc:format>image/svg+xml</dc:format>
    <dc:creator>
     <cc:Agent>
      <dc:title>Matplotlib v3.3.4, https://matplotlib.org/</dc:title>
     </cc:Agent>
    </dc:creator>
   </cc:Work>
  </rdf:RDF>
 </metadata>
 <defs>
  <style type="text/css">*{stroke-linecap:butt;stroke-linejoin:round;}</style>
 </defs>
 <g id="figure_1">
  <g id="patch_1">
   <path d="M 0 720 
L 432 720 
L 432 0 
L 0 0 
z
" style="fill:#ffffff;"/>
  </g>
  <g id="axes_1">
   <g id="patch_2">
    <path d="M 86.4 346.285714 
L 388.8 346.285714 
L 388.8 72 
L 86.4 72 
z
" style="fill:#ffffff;"/>
   </g>
   <g id="matplotlib.axis_1">
    <g id="xtick_1">
     <g id="line2d_1">
      <defs>
       <path d="M 0 0 
L 0 3.5 
" id="m1ae121be42" style="stroke:#000000;stroke-width:0.8;"/>
      </defs>
      <g>
       <use style="fill:#ffffff;stroke:#000000;stroke-width:0.8;" x="86.4" xlink:href="#m1ae121be42" y="346.285714"/>
      </g>
     </g>
    </g>
    <g id="xtick_2">
     <g id="line2d_2">
      <g>
       <use style="fill:#ffffff;stroke:#000000;stroke-width:0.8;" x="207.36" xlink:href="#m1ae121be42" y="346.285714"/>
      </g>
     </g>
    </g>
    <g id="xtick_3">
     <g id="line2d_3">
      <g>
       <use style="fill:#ffffff;stroke:#000000;stroke-width:0.8;" x="328.32" xlink:href="#m1ae121be42" y="346.285714"/>
      </g>
     </g>
    </g>
   </g>
   <g id="matplotlib.axis_2">
    <g id="ytick_1">
     <g id="line2d_4">
      <defs>
       <path d="M 0 0 
L -3.5 0 
" id="m1219cd610d" style="stroke:#000000;stroke-width:0.8;"/>
      </defs>
      <g>
       <use style="fill:#ffffff;stroke:#000000;stroke-width:0.8;" x="86.4" xlink:href="#m1219cd610d" y="318.857143"/>
      </g>
     </g>
     <g id="text_1">
      <!-- −1 -->
      <g transform="translate(50.96 327.052768)scale(0.24 -0.24)">
       <defs>
        <path d="M 62.09375 22 
L 6.40625 22 
L 6.40625 28.59375 
L 62.09375 28.59375 
z
" id="STIXGeneral-Regular-8722"/>
        <path d="M 39.40625 0 
L 11.796875 0 
L 11.796875 1.5 
Q 17.296875 1.796875 19.296875 3.546875 
Q 21.296875 5.296875 21.296875 9.5 
L 21.296875 54.40625 
Q 21.296875 59.296875 18.296875 59.296875 
Q 16.90625 59.296875 13.796875 58.09375 
L 11.09375 57.09375 
L 11.09375 58.5 
L 29 67.59375 
L 29.90625 67.296875 
L 29.90625 7.59375 
Q 29.90625 4.296875 31.90625 2.890625 
Q 33.90625 1.5 39.40625 1.5 
z
" id="STIXGeneral-Regular-49"/>
       </defs>
       <use xlink:href="#STIXGeneral-Regular-8722"/>
       <use x="68.499985" xlink:href="#STIXGeneral-Regular-49"/>
      </g>
     </g>
    </g>
    <g id="ytick_2">
     <g id="line2d_5">
      <g>
       <use style="fill:#ffffff;stroke:#000000;stroke-width:0.8;" x="86.4" xlink:href="#m1219cd610d" y="264"/>
      </g>
     </g>
     <g id="text_2">
      <!-- 0 -->
      <g transform="translate(67.4 272.195625)scale(0.24 -0.24)">
       <defs>
        <path d="M 47.59375 33 
Q 47.59375 26.296875 46.296875 20.34375 
Q 45 14.40625 42.453125 9.40625 
Q 39.90625 4.40625 35.40625 1.5 
Q 30.90625 -1.40625 25 -1.40625 
Q 18.90625 -1.40625 14.296875 1.6875 
Q 9.703125 4.796875 7.203125 10 
Q 4.703125 15.203125 3.546875 21.09375 
Q 2.40625 27 2.40625 33.59375 
Q 2.40625 42.90625 4.703125 50.34375 
Q 7 57.796875 12.34375 62.6875 
Q 17.703125 67.59375 25.40625 67.59375 
Q 35.203125 67.59375 41.390625 58 
Q 47.59375 48.40625 47.59375 33 
z
M 38 32.5 
Q 38 48.296875 34.640625 56.640625 
Q 31.296875 65 24.796875 65 
Q 18.59375 65 15.296875 56.59375 
Q 12 48.203125 12 32.90625 
Q 12 17.5 15.296875 9.34375 
Q 18.59375 1.203125 25 1.203125 
Q 31.296875 1.203125 34.640625 9.34375 
Q 38 17.5 38 32.5 
z
" id="STIXGeneral-Regular-48"/>
       </defs>
       <use xlink:href="#STIXGeneral-Regular-48"/>
      </g>
     </g>
    </g>
    <g id="ytick_3">
     <g id="line2d_6">
      <g>
       <use style="fill:#ffffff;stroke:#000000;stroke-width:0.8;" x="86.4" xlink:href="#m1219cd610d" y="209.142857"/>
      </g>
     </g>
     <g id="text_3">
      <!-- 1 -->
      <g transform="translate(67.4 217.338482)scale(0.24 -0.24)">
       <use xlink:href="#STIXGeneral-Regular-49"/>
      </g>
     </g>
    </g>
    <g id="ytick_4">
     <g id="line2d_7">
      <g>
       <use style="fill:#ffffff;stroke:#000000;stroke-width:0.8;" x="86.4" xlink:href="#m1219cd610d" y="154.285714"/>
      </g>
     </g>
     <g id="text_4">
      <!-- 2 -->
      <g transform="translate(67.4 162.481339)scale(0.24 -0.24)">
       <defs>
        <path d="M 47.40625 13.703125 
L 42 0 
L 2.90625 0 
L 2.90625 1.203125 
L 20.703125 20.09375 
Q 27.703125 27.40625 30.703125 33.5 
Q 33.703125 39.59375 33.703125 46.09375 
Q 33.703125 52.796875 30 56.5 
Q 26.296875 60.203125 19.796875 60.203125 
Q 14.40625 60.203125 11.25 57.390625 
Q 8.09375 54.59375 5.09375 47.203125 
L 3 47.703125 
Q 4.703125 57 9.84375 62.296875 
Q 15 67.59375 23.796875 67.59375 
Q 32.09375 67.59375 37.1875 62.59375 
Q 42.296875 57.59375 42.296875 50 
Q 42.296875 38.703125 29.5 25.203125 
L 13 7.59375 
L 36.40625 7.59375 
Q 39.703125 7.59375 41.640625 8.890625 
Q 43.59375 10.203125 46 14.296875 
z
" id="STIXGeneral-Regular-50"/>
       </defs>
       <use xlink:href="#STIXGeneral-Regular-50"/>
      </g>
     </g>
    </g>
    <g id="ytick_5">
     <g id="line2d_8">
      <g>
       <use style="fill:#ffffff;stroke:#000000;stroke-width:0.8;" x="86.4" xlink:href="#m1219cd610d" y="99.428571"/>
      </g>
     </g>
     <g id="text_5">
      <!-- 3 -->
      <g transform="translate(67.4 107.624196)scale(0.24 -0.24)">
       <defs>
        <path d="M 6.09375 51 
L 4.5 51.40625 
Q 6.796875 58.90625 11.6875 63.25 
Q 16.59375 67.59375 24.09375 67.59375 
Q 31.09375 67.59375 35.390625 63.796875 
Q 39.703125 60 39.703125 53.90625 
Q 39.703125 45.703125 30.40625 40.09375 
Q 35.90625 37.703125 38.703125 34.796875 
Q 43.09375 29.90625 43.09375 21.90625 
Q 43.09375 13.90625 38.5 7.90625 
Q 35.09375 3.296875 28.75 0.9375 
Q 22.40625 -1.40625 15.296875 -1.40625 
Q 4.09375 -1.40625 4.09375 4.296875 
Q 4.09375 5.90625 5.296875 6.90625 
Q 6.5 7.90625 8.203125 7.90625 
Q 10.703125 7.90625 14.296875 5.296875 
Q 18.703125 2.203125 22.90625 2.203125 
Q 28.40625 2.203125 32.15625 6.640625 
Q 35.90625 11.09375 35.90625 17.5 
Q 35.90625 29 25.5 32 
Q 22.40625 33 15.296875 33 
L 15.296875 34.40625 
Q 20.90625 36.296875 23.703125 38 
Q 31.796875 42.59375 31.796875 51.40625 
Q 31.796875 56.40625 28.9375 59 
Q 26.09375 61.59375 21 61.59375 
Q 12 61.59375 6.09375 51 
z
" id="STIXGeneral-Regular-51"/>
       </defs>
       <use xlink:href="#STIXGeneral-Regular-51"/>
      </g>
     </g>
    </g>
    <g id="text_6">
     <!-- $C_L$ -->
     <g transform="translate(41.75125 222.462857)rotate(-90)scale(0.24 -0.24)">
      <defs>
       <path d="M 68.90625 66.40625 
L 65.203125 46.40625 
L 63.40625 46.703125 
Q 61.59375 63 48.5 63 
Q 37.59375 63 28.59375 53.296875 
Q 23.296875 47.703125 20.546875 39.703125 
Q 17.796875 31.703125 17.796875 23.203125 
Q 17.796875 2.703125 35.296875 2.703125 
Q 41.5 2.703125 46.640625 5.296875 
Q 51.796875 7.90625 58.203125 14.59375 
L 60 13.09375 
Q 53.296875 5.203125 46.84375 1.703125 
Q 40.40625 -1.796875 32.703125 -1.796875 
Q 21 -1.796875 13.796875 5.140625 
Q 6.59375 12.09375 6.59375 24.296875 
Q 6.59375 34.59375 11.6875 43.9375 
Q 16.796875 53.296875 25.296875 59.296875 
Q 35.5 66.59375 47.203125 66.59375 
Q 54.09375 66.59375 58.90625 64.90625 
Q 60.90625 64.203125 63 64.203125 
Q 65.703125 64.203125 66.796875 66.40625 
z
" id="STIXGeneral-Italic-67"/>
       <path d="M 55.90625 18 
L 50.09375 0 
L -0.796875 0 
L -0.796875 1.59375 
Q 3.40625 2 4.703125 3.296875 
Q 6 4.59375 7.40625 9.40625 
L 19.59375 53.203125 
Q 20.703125 56.90625 20.703125 59.40625 
Q 20.703125 61.59375 19.140625 62.5 
Q 17.59375 63.40625 13 63.703125 
L 13 65.296875 
L 40.296875 65.296875 
L 40.296875 63.703125 
Q 35.703125 63.40625 33.546875 61.796875 
Q 31.40625 60.203125 30.203125 56 
L 18.203125 13.09375 
Q 17.203125 9.296875 17.203125 7.703125 
Q 17.203125 5.40625 19.390625 4.5 
Q 21.59375 3.59375 27.703125 3.59375 
Q 35.40625 3.59375 38.75 4.296875 
Q 42.09375 5 45.703125 7.40625 
Q 49.796875 10.09375 53.90625 18.59375 
z
" id="STIXGeneral-Italic-76"/>
      </defs>
      <use transform="translate(0 0.40625)" xlink:href="#STIXGeneral-Italic-67"/>
      <use transform="translate(66.699997 -12.821875)scale(0.7)" xlink:href="#STIXGeneral-Italic-76"/>
     </g>
    </g>
   </g>
   <g id="line2d_9">
    <path clip-path="url(#p8a8ecbf07b)" d="M 86.4 322.6407 
L 87.005405 305.35733 
L 87.610811 294.087684 
L 88.216216 287.257811 
L 88.821622 283.293763 
L 90.637838 275.38066 
L 96.994595 248.853518 
L 99.113514 240.79028 
L 100.021622 238.471626 
L 103.048649 228.120536 
L 103.654054 226.440329 
L 105.167568 221.437302 
L 107.589189 214.943682 
L 109.405405 210.726862 
L 110.010811 208.33687 
L 110.313514 208.118441 
L 110.616216 208.090793 
L 110.918919 207.637467 
L 112.12973 205.115041 
L 112.432432 204.659327 
L 113.037838 204.587658 
L 113.643243 203.737731 
L 117.578378 197.692256 
L 120.908108 192.803617 
L 127.264865 184.484708 
L 129.383784 181.600215 
L 130.291892 178.87204 
L 130.594595 178.585022 
L 131.2 179.139363 
L 131.502703 178.848796 
L 132.108108 177.964789 
L 133.016216 176.783841 
L 136.043243 172.465226 
L 136.648649 170.327167 
L 137.254054 169.358357 
L 139.675676 166.080166 
L 141.491892 163.907229 
L 142.097297 163.430039 
L 142.702703 162.429084 
L 143.308108 161.416447 
L 144.518919 160.80397 
L 145.124324 160.142508 
L 147.848649 158.395133 
L 148.151351 158.40693 
L 148.756757 159.015057 
L 149.362162 158.898118 
L 150.875676 158.669956 
L 152.086486 158.678292 
L 153.297297 158.901372 
L 154.508108 159.353118 
L 155.718919 160.102911 
L 156.92973 161.075947 
L 158.140541 162.317156 
L 159.654054 164.233355 
L 161.167568 166.553909 
L 162.378378 168.516948 
L 162.681081 168.358221 
L 163.286486 166.918133 
L 163.589189 166.561975 
L 164.497297 165.941032 
L 165.102703 165.502366 
L 165.708108 165.382291 
L 168.432432 163.36194 
L 172.064865 160.987634 
L 175.697297 158.875459 
L 180.237838 156.517323 
L 185.686486 153.973456 
L 190.52973 151.920753 
L 191.135135 151.85861 
L 195.978378 149.838647 
L 202.940541 147.217964 
L 209.297297 145.063292 
L 215.956757 143.057193 
L 221.708108 141.532492 
L 228.064865 140.075702 
L 232.908108 139.130485 
L 238.659459 138.190099 
L 245.621622 137.30657 
L 252.886486 136.660465 
L 260.756757 136.2381 
L 267.718919 136.065589 
L 275.589189 136.048286 
L 289.513514 136.378673 
L 290.421622 136.35595 
L 291.32973 136.221025 
L 295.567568 136.27306 
L 296.778378 136.21385 
L 297.989189 136.301201 
L 299.502703 136.463568 
L 303.437838 136.601156 
L 304.648649 136.930268 
L 309.189189 137.203214 
L 313.427027 137.401851 
L 315.848649 137.487555 
L 320.691892 137.513304 
L 323.416216 137.717805 
L 325.837838 138.135575 
L 327.956757 138.751849 
L 329.47027 139.371103 
L 330.983784 140.16899 
L 332.497297 141.1674 
L 334.010811 142.385484 
L 335.827027 144.18217 
L 337.340541 145.981556 
L 338.854054 148.086018 
L 340.367568 150.507284 
L 341.881081 153.26016 
L 343.394595 156.35558 
L 345.210811 160.559689 
L 347.027027 165.26384 
L 349.145946 171.405742 
L 351.264865 178.20741 
L 353.686486 186.714738 
L 356.713514 198.241229 
L 361.254054 216.608982 
L 365.794595 234.801148 
L 367.913514 242.589566 
L 370.032432 249.610317 
L 371.848649 255.103764 
L 373.664865 259.895238 
L 375.178378 263.273981 
L 376.691892 266.06551 
L 377.902703 267.86108 
L 379.113514 269.255631 
L 380.324324 270.242059 
L 381.232432 270.714698 
L 382.140541 270.966006 
L 383.048649 270.997447 
L 383.956757 270.816328 
L 384.864865 270.431588 
L 386.075676 269.619134 
L 387.286486 268.485343 
L 388.497297 267.05865 
L 388.8 266.660054 
L 388.8 266.660054 
" style="fill:none;stroke:#1f77b4;stroke-linecap:square;stroke-width:4;"/>
   </g>
   <g id="line2d_10">
    <path clip-path="url(#p8a8ecbf07b)" d="M 86.4 268.718898 
L 87.913514 266.670917 
L 89.72973 263.813041 
L 91.848649 260.064551 
L 95.481081 253.096135 
L 99.718919 245.081928 
L 102.140541 240.936202 
L 104.259459 237.609622 
L 104.562162 237.2883 
L 105.167568 237.362387 
L 105.47027 237.117232 
L 106.983784 235.291881 
L 109.102703 232.894523 
L 109.405405 232.770884 
L 110.010811 233.588334 
L 110.313514 233.54911 
L 111.524324 232.61374 
L 113.643243 231.014787 
L 113.945946 230.865463 
L 114.248649 230.539582 
L 115.156757 228.889485 
L 115.762162 228.538244 
L 116.064865 228.145638 
L 116.67027 226.691278 
L 117.578378 225.664152 
L 117.881081 225.472386 
L 118.183784 225.608862 
L 118.789189 226.047583 
L 119.091892 226.059131 
L 119.697297 225.619277 
L 120.302703 225.107111 
L 120.908108 224.862301 
L 121.513514 224.325138 
L 122.724324 223.04309 
L 123.632432 221.08514 
L 126.356757 217.32249 
L 128.778378 213.63779 
L 131.2 209.598472 
L 131.805405 208.598874 
L 132.410811 208.34653 
L 133.016216 207.431725 
L 135.437838 203.315184 
L 140.886486 194.065021 
L 143.308108 190.393913 
L 145.427027 187.543354 
L 147.243243 185.443531 
L 149.059459 183.654729 
L 150.572973 182.385657 
L 152.086486 181.580032 
L 153.6 181.039444 
L 155.416216 180.989438 
L 156.627027 181.216933 
L 157.837838 181.709345 
L 159.048649 182.480263 
L 160.259459 183.541738 
L 161.47027 184.907573 
L 162.075676 185.709736 
L 162.378378 185.929618 
L 162.681081 185.63287 
L 163.286486 183.923465 
L 163.891892 183.117052 
L 165.708108 180.991096 
L 168.12973 178.363631 
L 169.945946 176.630336 
L 170.854054 176.060554 
L 173.578378 173.964133 
L 176 172.350622 
L 178.421622 170.973751 
L 181.145946 169.665256 
L 184.172973 168.454388 
L 187.805405 167.251663 
L 192.345946 166.005864 
L 198.702703 164.53948 
L 207.783784 162.708819 
L 220.194595 160.462227 
L 240.475676 157.029982 
L 257.72973 154.251357 
L 269.535135 152.611729 
L 288 150.591801 
L 289.816216 150.393793 
L 291.632432 150.174561 
L 294.356757 150.102862 
L 296.778378 150.006143 
L 303.437838 149.713191 
L 305.556757 149.727368 
L 306.162162 149.890585 
L 308.281081 149.926664 
L 315.848649 149.936471 
L 323.113514 149.542467 
L 325.535135 149.626753 
L 327.654054 149.901422 
L 329.47027 150.324272 
L 331.286486 150.980969 
L 333.102703 151.91416 
L 334.616216 152.927231 
L 336.12973 154.178616 
L 337.945946 156.043086 
L 339.762162 158.329892 
L 341.578378 161.071243 
L 343.091892 163.714626 
L 344.605405 166.697564 
L 346.421622 170.760797 
L 348.237838 175.307973 
L 350.356757 181.238557 
L 352.475676 187.790345 
L 354.897297 196.006157 
L 359.135135 211.540325 
L 367.005405 240.876947 
L 368.821622 247.183459 
L 370.940541 253.708777 
L 373.362162 260.526971 
L 374.875676 263.957738 
L 376.389189 266.840254 
L 377.902703 269.156079 
L 378.508108 269.915037 
L 379.113514 270.973737 
L 380.021622 271.586002 
L 380.627027 272.253013 
L 381.837838 272.779628 
L 382.745946 272.925815 
L 383.654054 272.871187 
L 384.562162 272.619628 
L 385.772973 271.993267 
L 386.983784 271.055864 
L 388.194595 269.836266 
L 388.8 269.129454 
L 388.8 269.129454 
" style="fill:none;stroke:#ff7f0e;stroke-linecap:square;stroke-width:4;"/>
   </g>
   <g id="line2d_11">
    <path clip-path="url(#p8a8ecbf07b)" d="M 86.4 210.078198 
L 87.005405 226.583985 
L 87.610811 237.020215 
L 88.216216 242.964015 
L 88.821622 245.996795 
L 90.032432 249.308709 
L 91.848649 253.814723 
L 95.178378 261.470657 
L 97.6 266.512506 
L 99.113514 269.388607 
L 99.718919 269.656446 
L 100.324324 270.608228 
L 101.837838 273.127933 
L 102.745946 275.071639 
L 103.351351 275.657551 
L 104.259459 277.278167 
L 104.562162 277.973691 
L 105.167568 279.925085 
L 106.075676 281.456068 
L 107.286486 283.206387 
L 108.497297 284.851775 
L 108.8 285.162206 
L 109.102703 285.303698 
L 109.405405 286.044022 
L 110.010811 289.251463 
L 110.313514 289.430669 
L 110.616216 289.188744 
L 110.918919 289.409093 
L 112.12973 291.027751 
L 112.432432 291.257002 
L 113.037838 290.869889 
L 113.340541 290.967759 
L 114.248649 291.746299 
L 114.854054 291.445426 
L 115.156757 291.553054 
L 115.762162 292.152559 
L 116.064865 292.220686 
L 116.67027 291.680811 
L 117.578378 291.971896 
L 117.881081 292.242801 
L 119.091892 294.758265 
L 119.697297 295.169315 
L 120.302703 295.485088 
L 121.210811 296.230354 
L 122.724324 296.62695 
L 123.32973 295.964237 
L 123.935135 295.849646 
L 127.567568 295.438259 
L 129.383784 295.054712 
L 130.291892 296.27287 
L 130.594595 296.056025 
L 131.2 294.459109 
L 131.502703 294.155876 
L 131.805405 294.245033 
L 132.410811 294.734846 
L 133.016216 294.647884 
L 135.135135 294.067701 
L 135.740541 293.707763 
L 136.043243 293.798646 
L 136.648649 294.871719 
L 136.951351 294.928682 
L 137.859459 294.624035 
L 139.978378 293.831449 
L 141.491892 293.200449 
L 142.097297 292.750792 
L 142.4 292.727368 
L 143.308108 292.977466 
L 144.518919 291.915066 
L 145.124324 291.781631 
L 147.243243 290.612623 
L 147.848649 290.409055 
L 148.151351 290.082806 
L 148.756757 288.900214 
L 149.664865 288.260644 
L 150.572973 287.686356 
L 152.994595 286.413245 
L 153.902703 285.9114 
L 154.810811 285.453226 
L 157.232432 284.067278 
L 161.167568 281.97349 
L 164.497297 280.494171 
L 165.102703 280.197873 
L 165.708108 279.608805 
L 169.037838 278.524609 
L 169.945946 278.293546 
L 170.854054 278.314754 
L 174.183784 277.809836 
L 177.210811 277.57464 
L 180.237838 277.558051 
L 183.87027 277.771963 
L 188.410811 278.286451 
L 190.52973 278.55737 
L 191.135135 278.458196 
L 200.518919 280.055367 
L 208.994595 281.316684 
L 215.956757 282.150562 
L 222.918919 282.758184 
L 229.275676 283.086887 
L 235.027027 283.184045 
L 241.686486 283.054645 
L 248.043243 282.715481 
L 255.308108 282.119175 
L 264.691892 281.129753 
L 278.313514 279.515837 
L 279.221622 279.309378 
L 290.421622 277.956729 
L 291.027027 278.025348 
L 293.145946 277.835576 
L 295.567568 277.79306 
L 296.778378 277.792293 
L 297.989189 277.644155 
L 299.502703 277.407809 
L 303.740541 277.009743 
L 304.345946 276.78836 
L 305.556757 276.717547 
L 306.162162 276.848831 
L 311.308108 276.638862 
L 319.783784 276.186159 
L 324.627027 275.67472 
L 329.47027 274.95317 
L 334.616216 273.981447 
L 340.972973 272.534743 
L 347.935135 270.701307 
L 366.097297 265.708971 
L 367.308108 265.467108 
L 369.124324 265.53149 
L 371.545946 265.318256 
L 372.151351 265.434482 
L 377.297297 265.282532 
L 378.508108 265.306604 
L 379.113514 265.718106 
L 379.718919 265.453276 
L 380.92973 265.826924 
L 384.562162 266.037067 
L 388.8 266.4694 
L 388.8 266.4694 
" style="fill:none;stroke:#2ca02c;stroke-linecap:square;stroke-width:4;"/>
   </g>
   <g id="line2d_12">
    <path clip-path="url(#p8a8ecbf07b)" d="M 86.4 264 
L 388.8 264 
" style="fill:none;stroke:#000000;stroke-dasharray:3.2,0.8,0.5,0.8;stroke-dashoffset:0;stroke-width:0.5;"/>
   </g>
   <g id="line2d_13">
    <path clip-path="url(#p8a8ecbf07b)" d="M 388.8 346.285714 
L 388.8 72 
" style="fill:none;stroke:#000000;stroke-dasharray:3.2,0.8,0.5,0.8;stroke-dashoffset:0;stroke-width:0.5;"/>
   </g>
   <g id="patch_3">
    <path d="M 86.4 346.285714 
L 86.4 72 
" style="fill:none;stroke:#000000;stroke-linecap:square;stroke-linejoin:miter;stroke-width:0.8;"/>
   </g>
   <g id="patch_4">
    <path d="M 388.8 346.285714 
L 388.8 72 
" style="fill:none;stroke:#000000;stroke-linecap:square;stroke-linejoin:miter;stroke-width:0.8;"/>
   </g>
   <g id="patch_5">
    <path d="M 86.4 346.285714 
L 388.8 346.285714 
" style="fill:none;stroke:#000000;stroke-linecap:square;stroke-linejoin:miter;stroke-width:0.8;"/>
   </g>
   <g id="patch_6">
    <path d="M 86.4 72 
L 388.8 72 
" style="fill:none;stroke:#000000;stroke-linecap:square;stroke-linejoin:miter;stroke-width:0.8;"/>
   </g>
   <g id="legend_1">
    <g id="line2d_14">
     <path d="M 78.360596 55.847143 
L 118.344596 55.847143 
" style="fill:none;stroke:#1f77b4;stroke-linecap:square;stroke-width:4;"/>
    </g>
    <g id="line2d_15"/>
    <g id="text_7">
     <!-- 1_stroke -->
     <g transform="translate(134.338196 62.844343)scale(0.19992 -0.19992)">
      <defs>
       <path d="M 50 -12.5 
L 0 -12.5 
L 0 -7.5 
L 50 -7.5 
z
" id="STIXGeneral-Regular-95"/>
       <path d="M 15.59375 30.09375 
L 26 23.796875 
Q 31 20.796875 32.890625 18.1875 
Q 34.796875 15.59375 34.796875 11.5 
Q 34.796875 6.5 30.640625 2.75 
Q 26.5 -1 20.796875 -1 
Q 16.09375 -1 13.5 -0.09375 
Q 10.796875 0.796875 8.90625 0.796875 
Q 7.203125 0.796875 6.5 -0.40625 
L 5.203125 -0.40625 
L 5.203125 15.296875 
L 6.796875 15.296875 
Q 8.40625 8 11.40625 4.59375 
Q 14.40625 1.203125 19.5 1.203125 
Q 23.203125 1.203125 25.5 3.296875 
Q 27.796875 5.40625 27.796875 8.59375 
Q 27.796875 13.203125 22.5 16.09375 
L 17.09375 19.09375 
Q 5.09375 25.796875 5.09375 33.59375 
Q 5.09375 39.40625 8.84375 42.65625 
Q 12.59375 45.90625 18.90625 45.90625 
Q 23.296875 45.90625 25.59375 44.796875 
Q 27.40625 44 28.40625 44 
Q 29.09375 44 30 45 
L 31.09375 45 
L 31.59375 31.40625 
L 30.09375 31.40625 
Q 28.40625 38.203125 25.84375 40.953125 
Q 23.296875 43.703125 18.796875 43.703125 
Q 15.40625 43.703125 13.34375 42 
Q 11.296875 40.296875 11.296875 36.90625 
Q 11.296875 35.203125 12.4375 33.25 
Q 13.59375 31.296875 15.59375 30.09375 
z
" id="STIXGeneral-Regular-115"/>
       <path d="M 26.59375 7.703125 
L 27.90625 6.59375 
Q 23.09375 -1 15.796875 -1 
Q 7 -1 7 11.703125 
L 7 41.796875 
L 1.703125 41.796875 
Q 1.296875 42.09375 1.296875 42.5 
Q 1.296875 43.296875 3 44.40625 
Q 6.796875 46.59375 12.703125 55.09375 
Q 12.90625 55.40625 13.65625 56.34375 
Q 14.40625 57.296875 14.703125 57.90625 
Q 15.40625 57.90625 15.40625 56.59375 
L 15.40625 45 
L 25.5 45 
L 25.5 41.796875 
L 15.40625 41.796875 
L 15.40625 13.203125 
Q 15.40625 8.40625 16.59375 6.296875 
Q 17.796875 4.203125 20.59375 4.203125 
Q 23.59375 4.203125 26.59375 7.703125 
z
" id="STIXGeneral-Regular-116"/>
       <path d="M 16 45.796875 
L 16 36.59375 
Q 19.796875 42 22.34375 44 
Q 24.90625 46 28 46 
Q 30.59375 46 32.046875 44.59375 
Q 33.5 43.203125 33.5 40.703125 
Q 33.5 38.59375 32.453125 37.390625 
Q 31.40625 36.203125 29.59375 36.203125 
Q 27.703125 36.203125 25.59375 38.203125 
Q 24 39.703125 23 39.703125 
Q 20.90625 39.703125 18.453125 36.796875 
Q 16 33.90625 16 31.5 
L 16 9 
Q 16 4.703125 17.703125 3.203125 
Q 19.40625 1.703125 24.5 1.5 
L 24.5 0 
L 0.5 0 
L 0.5 1.5 
Q 5.296875 2.40625 6.4375 3.5 
Q 7.59375 4.59375 7.59375 8.40625 
L 7.59375 33.40625 
Q 7.59375 36.703125 6.84375 38.046875 
Q 6.09375 39.40625 4.203125 39.40625 
Q 2.59375 39.40625 0.703125 39 
L 0.703125 40.59375 
Q 7 42.59375 15.5 46 
z
" id="STIXGeneral-Regular-114"/>
       <path d="M 47 23.09375 
Q 47 12.59375 40.75 5.796875 
Q 34.5 -1 24.5 -1 
Q 15.296875 -1 9.09375 5.75 
Q 2.90625 12.5 2.90625 22.796875 
Q 2.90625 33.203125 9.09375 39.59375 
Q 15.296875 46 25.40625 46 
Q 34.703125 46 40.84375 39.640625 
Q 47 33.296875 47 23.09375 
z
M 38 20.40625 
Q 38 31.796875 33 38.203125 
Q 29 43.203125 23.5 43.203125 
Q 18.296875 43.203125 15.09375 38.953125 
Q 11.90625 34.703125 11.90625 27.296875 
Q 11.90625 14.5 17.203125 6.796875 
Q 20.59375 1.796875 26.203125 1.796875 
Q 31.703125 1.796875 34.84375 6.75 
Q 38 11.703125 38 20.40625 
z
" id="STIXGeneral-Regular-111"/>
       <path d="M 50.5 0 
L 28.703125 0 
L 28.703125 1.5 
L 30.59375 1.5 
Q 32.703125 1.5 32.703125 3 
Q 32.703125 3.90625 31.59375 5.296875 
L 16.59375 25.09375 
L 16.59375 6.703125 
Q 16.59375 4.09375 17.84375 2.890625 
Q 19.09375 1.703125 22.09375 1.59375 
L 24.09375 1.5 
L 24.09375 0 
L 0.703125 0 
L 0.703125 1.5 
Q 6.09375 2.40625 7.140625 3.34375 
Q 8.203125 4.296875 8.203125 8.203125 
L 8.203125 56.40625 
Q 8.203125 60 7.296875 61.25 
Q 6.40625 62.5 3.90625 62.5 
Q 3.296875 62.5 0.703125 62.296875 
L 0.703125 63.90625 
L 3.703125 64.703125 
Q 9.703125 66.296875 16.203125 68.296875 
L 16.59375 68.09375 
L 16.59375 26.09375 
L 30.296875 38.296875 
Q 32.59375 40.40625 32.59375 41.796875 
Q 32.59375 42.796875 31.546875 43.140625 
Q 30.5 43.5 27.59375 43.59375 
L 27.59375 45 
L 48 45 
L 48 43.5 
Q 43 43.5 39.140625 41.34375 
Q 35.296875 39.203125 26.40625 30.90625 
L 23.5 28.203125 
L 38.796875 8.796875 
Q 44.203125 1.90625 50.5 1.5 
z
" id="STIXGeneral-Regular-107"/>
       <path d="M 40.796875 16.40625 
L 42.40625 15.703125 
Q 36.40625 -1 21.5 -1 
Q 12.703125 -1 7.59375 5.140625 
Q 2.5 11.296875 2.5 21.703125 
Q 2.5 32.40625 8.203125 39.203125 
Q 13.90625 46 23.203125 46 
Q 32.203125 46 37.09375 39.09375 
Q 40 35.09375 40.5 27.703125 
L 9.703125 27.703125 
Q 10.09375 21.40625 10.9375 18.09375 
Q 11.796875 14.796875 14.296875 11.40625 
Q 18.5 5.90625 25.40625 5.90625 
Q 30.296875 5.90625 33.640625 8.296875 
Q 37 10.703125 40.796875 16.40625 
z
M 9.90625 30.90625 
L 30.296875 30.90625 
Q 29.40625 37.203125 27.34375 39.796875 
Q 25.296875 42.40625 20.5 42.40625 
Q 16.296875 42.40625 13.5 39.453125 
Q 10.703125 36.5 9.90625 30.90625 
z
" id="STIXGeneral-Regular-101"/>
      </defs>
      <use xlink:href="#STIXGeneral-Regular-49"/>
      <use x="49.999985" xlink:href="#STIXGeneral-Regular-95"/>
      <use x="99.999969" xlink:href="#STIXGeneral-Regular-115"/>
      <use x="138.899963" xlink:href="#STIXGeneral-Regular-116"/>
      <use x="166.699951" xlink:href="#STIXGeneral-Regular-114"/>
      <use x="199.999939" xlink:href="#STIXGeneral-Regular-111"/>
      <use x="249.999924" xlink:href="#STIXGeneral-Regular-107"/>
      <use x="299.999908" xlink:href="#STIXGeneral-Regular-101"/>
     </g>
    </g>
    <g id="line2d_16">
     <path d="M 78.360596 84.176432 
L 118.344596 84.176432 
" style="fill:none;stroke:#ff7f0e;stroke-linecap:square;stroke-width:4;"/>
    </g>
    <g id="line2d_17"/>
    <g id="text_8">
     <!-- 5_stroke -->
     <g transform="translate(134.338196 91.173632)scale(0.19992 -0.19992)">
      <defs>
       <path d="M 43.796875 68.09375 
L 40.203125 59.59375 
Q 39.59375 58.296875 37.5 58.296875 
L 18.09375 58.296875 
L 14.09375 49.796875 
Q 25.09375 47.703125 30 45.25 
Q 34.90625 42.796875 39.09375 37 
Q 42.59375 32.203125 42.59375 24.296875 
Q 42.59375 17.09375 40.25 12.1875 
Q 37.90625 7.296875 32.796875 3.5 
Q 26 -1.40625 15.796875 -1.40625 
Q 10.09375 -1.40625 6.59375 0.296875 
Q 3.09375 2 3.09375 4.796875 
Q 3.09375 8.59375 7.59375 8.59375 
Q 11.203125 8.59375 15 5.5 
Q 18.90625 2.296875 22.09375 2.296875 
Q 27.296875 2.296875 31.4375 7.5 
Q 35.59375 12.703125 35.59375 19.203125 
Q 35.59375 28.796875 28.90625 34.203125 
Q 20.203125 41.203125 7.59375 41.203125 
Q 6.40625 41.203125 6.40625 42 
L 6.5 42.5 
L 17.40625 66.203125 
L 38.09375 66.203125 
Q 39.796875 66.203125 40.75 66.703125 
Q 41.703125 67.203125 42.90625 68.796875 
z
" id="STIXGeneral-Regular-53"/>
      </defs>
      <use xlink:href="#STIXGeneral-Regular-53"/>
      <use x="49.999985" xlink:href="#STIXGeneral-Regular-95"/>
      <use x="99.999969" xlink:href="#STIXGeneral-Regular-115"/>
      <use x="138.899963" xlink:href="#STIXGeneral-Regular-116"/>
      <use x="166.699951" xlink:href="#STIXGeneral-Regular-114"/>
      <use x="199.999939" xlink:href="#STIXGeneral-Regular-111"/>
      <use x="249.999924" xlink:href="#STIXGeneral-Regular-107"/>
      <use x="299.999908" xlink:href="#STIXGeneral-Regular-101"/>
     </g>
    </g>
    <g id="line2d_18">
     <path d="M 243.175894 55.847143 
L 283.159894 55.847143 
" style="fill:none;stroke:#2ca02c;stroke-linecap:square;stroke-width:4;"/>
    </g>
    <g id="line2d_19"/>
    <g id="text_9">
     <!-- wake_effect -->
     <g transform="translate(299.153494 62.844343)scale(0.19992 -0.19992)">
      <defs>
       <path d="M 69.40625 45 
L 69.40625 43.5 
Q 67.90625 43 67.203125 42.046875 
Q 66.5 41.09375 65.296875 38.09375 
L 51.5 3.5 
Q 49.5 -1.40625 48.703125 -1.40625 
Q 48.203125 -1.40625 47.84375 -0.75 
Q 47.5 -0.09375 46.296875 2.90625 
L 37.203125 26.5 
L 26 2.5 
Q 24.203125 -1.40625 23.5 -1.40625 
Q 22.59375 -1.40625 20.90625 3 
L 7.40625 37.203125 
Q 5.90625 41.09375 4.90625 42.1875 
Q 3.90625 43.296875 2.09375 43.5 
L 2.09375 45 
L 20.09375 45 
L 20.09375 43.5 
Q 17.5 43.203125 16.5 42.5 
Q 15.5 41.796875 15.5 40.203125 
Q 15.5 38.703125 16.09375 37.203125 
L 26 11.09375 
L 35.09375 31 
L 33.09375 36.59375 
Q 31.703125 40.59375 30.34375 41.890625 
Q 29 43.203125 26.203125 43.5 
L 26.203125 45 
L 46.5 45 
L 46.5 43.5 
Q 43 43 41.84375 42.296875 
Q 40.703125 41.59375 40.703125 40 
Q 40.703125 38.40625 42.40625 34 
L 50.796875 11.59375 
L 59.796875 33.796875 
Q 61.5 38 61.5 40.5 
Q 61.5 41.703125 60.546875 42.34375 
Q 59.59375 43 57.09375 43.5 
L 57.09375 45 
z
" id="STIXGeneral-Regular-119"/>
       <path d="M 44.203125 6.59375 
L 44.203125 3.796875 
Q 40.40625 -1 35.203125 -1 
Q 29.5 -1 28.796875 6.296875 
L 28.703125 6.296875 
Q 22.296875 -1 14.203125 -1 
Q 9.5 -1 6.59375 1.75 
Q 3.703125 4.5 3.703125 9.40625 
Q 3.703125 16.40625 10.703125 21.09375 
Q 15.5 24.296875 28.703125 29.203125 
L 28.703125 34.59375 
Q 28.703125 39.09375 26.546875 41.34375 
Q 24.40625 43.59375 20.90625 43.59375 
Q 17.90625 43.59375 15.90625 42.140625 
Q 13.90625 40.703125 13.90625 38.703125 
Q 13.90625 37.796875 14.203125 36.6875 
Q 14.5 35.59375 14.5 34.5 
Q 14.5 33 13.140625 31.703125 
Q 11.796875 30.40625 9.90625 30.40625 
Q 8.203125 30.40625 6.890625 31.703125 
Q 5.59375 33 5.59375 35 
Q 5.59375 39.796875 10.703125 43 
Q 15.40625 46 22.203125 46 
Q 30.296875 46 34 41.5 
Q 35.796875 39.40625 36.296875 37.25 
Q 36.796875 35.09375 36.796875 30.40625 
L 36.796875 11.296875 
Q 36.796875 4.703125 39.90625 4.703125 
Q 41.90625 4.703125 44.203125 6.59375 
z
M 28.703125 12.703125 
L 28.703125 26.796875 
Q 19.5 23.59375 15.90625 20.203125 
Q 12.5 17.09375 12.5 12.5 
Q 12.5 8.703125 14.390625 6.75 
Q 16.296875 4.796875 19.40625 4.796875 
Q 22.703125 4.796875 25.203125 6.40625 
Q 27.296875 7.90625 28 9.203125 
Q 28.703125 10.5 28.703125 12.703125 
z
" id="STIXGeneral-Regular-97"/>
       <path d="M 2.09375 45 
L 10.296875 45 
Q 10.40625 51 11.09375 54.34375 
Q 11.796875 57.703125 13.796875 61.09375 
Q 18 68.296875 27.90625 68.296875 
Q 32.40625 68.296875 35.34375 66.546875 
Q 38.296875 64.796875 38.296875 62.09375 
Q 38.296875 60.40625 37.09375 59.203125 
Q 35.90625 58 34.09375 58 
Q 31.703125 58 29.59375 61.59375 
Q 27.203125 65.5 24.296875 65.5 
Q 18.703125 65.5 18.703125 56.59375 
L 18.703125 45 
L 30.90625 45 
L 30.90625 41.796875 
L 18.703125 41.796875 
L 18.703125 10.40625 
Q 18.703125 4.796875 20.296875 3.25 
Q 21.90625 1.703125 28 1.5 
L 28 0 
L 2 0 
L 2 1.5 
Q 7.40625 1.796875 8.84375 3.34375 
Q 10.296875 4.90625 10.296875 10.40625 
L 10.296875 41.796875 
L 2.09375 41.796875 
z
" id="STIXGeneral-Regular-102"/>
       <path d="M 39.796875 15.59375 
L 41.203125 14.703125 
Q 36.90625 6.296875 33 3.203125 
Q 27.90625 -1 21.5 -1 
Q 13.203125 -1 7.84375 5.25 
Q 2.5 11.5 2.5 21.203125 
Q 2.5 33.90625 10.90625 40.90625 
Q 17.09375 46 24.40625 46 
Q 30.703125 46 35.25 42.953125 
Q 39.796875 39.90625 39.796875 35.703125 
Q 39.796875 34 38.390625 32.75 
Q 37 31.5 35.09375 31.5 
Q 31.59375 31.5 30.296875 36.09375 
L 29.703125 38.296875 
Q 28.90625 41.09375 27.703125 42.09375 
Q 26.5 43.09375 23.796875 43.09375 
Q 17.703125 43.09375 13.953125 38.296875 
Q 10.203125 33.5 10.203125 25.703125 
Q 10.203125 17.09375 14.5 11.640625 
Q 18.796875 6.203125 25.703125 6.203125 
Q 30 6.203125 33.09375 8.25 
Q 36.203125 10.296875 39.796875 15.59375 
z
" id="STIXGeneral-Regular-99"/>
      </defs>
      <use xlink:href="#STIXGeneral-Regular-119"/>
      <use x="72.199982" xlink:href="#STIXGeneral-Regular-97"/>
      <use x="116.599976" xlink:href="#STIXGeneral-Regular-107"/>
      <use x="166.59996" xlink:href="#STIXGeneral-Regular-101"/>
      <use x="210.999954" xlink:href="#STIXGeneral-Regular-95"/>
      <use x="260.999939" xlink:href="#STIXGeneral-Regular-101"/>
      <use x="305.399933" xlink:href="#STIXGeneral-Regular-102"/>
      <use x="338.699921" xlink:href="#STIXGeneral-Regular-102"/>
      <use x="371.999908" xlink:href="#STIXGeneral-Regular-101"/>
      <use x="416.399902" xlink:href="#STIXGeneral-Regular-99"/>
      <use x="460.799896" xlink:href="#STIXGeneral-Regular-116"/>
     </g>
    </g>
   </g>
  </g>
  <g id="axes_2">
   <g id="patch_7">
    <path d="M 86.4 648 
L 388.8 648 
L 388.8 373.714286 
L 86.4 373.714286 
z
" style="fill:#ffffff;"/>
   </g>
   <g id="matplotlib.axis_3">
    <g id="xtick_4">
     <g id="line2d_20">
      <g>
       <use style="fill:#ffffff;stroke:#000000;stroke-width:0.8;" x="86.4" xlink:href="#m1ae121be42" y="648"/>
      </g>
     </g>
     <g id="text_10">
      <!-- 0.0 -->
      <g transform="translate(71.4 671.39125)scale(0.24 -0.24)">
       <defs>
        <path d="M 18.09375 4.296875 
Q 18.09375 2.09375 16.4375 0.5 
Q 14.796875 -1.09375 12.5 -1.09375 
Q 10.203125 -1.09375 8.59375 0.5 
Q 7 2.09375 7 4.390625 
Q 7 6.703125 8.640625 8.34375 
Q 10.296875 10 12.59375 10 
Q 14.796875 10 16.4375 8.296875 
Q 18.09375 6.59375 18.09375 4.296875 
z
" id="STIXGeneral-Regular-46"/>
       </defs>
       <use xlink:href="#STIXGeneral-Regular-48"/>
       <use x="49.999985" xlink:href="#STIXGeneral-Regular-46"/>
       <use x="74.999969" xlink:href="#STIXGeneral-Regular-48"/>
      </g>
     </g>
    </g>
    <g id="xtick_5">
     <g id="line2d_21">
      <g>
       <use style="fill:#ffffff;stroke:#000000;stroke-width:0.8;" x="207.36" xlink:href="#m1ae121be42" y="648"/>
      </g>
     </g>
     <g id="text_11">
      <!-- 0.2 -->
      <g transform="translate(192.36 671.39125)scale(0.24 -0.24)">
       <use xlink:href="#STIXGeneral-Regular-48"/>
       <use x="49.999985" xlink:href="#STIXGeneral-Regular-46"/>
       <use x="74.999969" xlink:href="#STIXGeneral-Regular-50"/>
      </g>
     </g>
    </g>
    <g id="xtick_6">
     <g id="line2d_22">
      <g>
       <use style="fill:#ffffff;stroke:#000000;stroke-width:0.8;" x="328.32" xlink:href="#m1ae121be42" y="648"/>
      </g>
     </g>
     <g id="text_12">
      <!-- 0.4 -->
      <g transform="translate(313.32 671.39125)scale(0.24 -0.24)">
       <defs>
        <path d="M 47.296875 16.703125 
L 37 16.703125 
L 37 0 
L 29.203125 0 
L 29.203125 16.703125 
L 1.203125 16.703125 
L 1.203125 23.09375 
L 32.59375 67.59375 
L 37 67.59375 
L 37 23.09375 
L 47.296875 23.09375 
z
M 29.203125 23.09375 
L 29.203125 57.40625 
L 5.203125 23.09375 
z
" id="STIXGeneral-Regular-52"/>
       </defs>
       <use xlink:href="#STIXGeneral-Regular-48"/>
       <use x="49.999985" xlink:href="#STIXGeneral-Regular-46"/>
       <use x="74.999969" xlink:href="#STIXGeneral-Regular-52"/>
      </g>
     </g>
    </g>
    <g id="text_13">
     <!-- $\^t$ -->
     <g transform="translate(234.24 696.99125)scale(0.24 -0.24)">
      <defs>
       <path d="M -7.5 50.703125 
L -10.90625 50.703125 
L -23.09375 61 
L -35.203125 50.703125 
L -38.59375 50.703125 
L -26.203125 67.40625 
L -20 67.40625 
z
" id="STIXGeneral-Regular-770"/>
       <path d="M 29.59375 42.796875 
L 29.09375 39.59375 
L 20.703125 39.59375 
L 12 6.796875 
Q 11.796875 6 11.796875 5.40625 
Q 11.796875 3.796875 13.296875 3.796875 
Q 14.5 3.796875 16.09375 5.34375 
Q 17.703125 6.90625 21.40625 11.703125 
L 22.703125 11 
Q 18.09375 4 15.140625 1.453125 
Q 12.203125 -1.09375 8.40625 -1.09375 
Q 3.796875 -1.09375 3.796875 2.59375 
Q 3.796875 3.59375 5.40625 10 
L 13.203125 39.59375 
L 5.703125 39.59375 
L 5.59375 40.203125 
Q 5.59375 42 8.90625 42.703125 
Q 11.40625 43.296875 15.5 46.546875 
Q 19.59375 49.796875 22.203125 53.703125 
Q 22.796875 54.59375 23.59375 54.59375 
Q 24.5 54.59375 24.5 53.796875 
Q 24.5 53.296875 24.40625 53.09375 
L 21.59375 42.796875 
z
" id="STIXGeneral-Italic-116"/>
      </defs>
      <use transform="translate(39.042969 16.59375)" xlink:href="#STIXGeneral-Regular-770"/>
      <use transform="translate(0 0.203125)" xlink:href="#STIXGeneral-Italic-116"/>
     </g>
    </g>
   </g>
   <g id="matplotlib.axis_4">
    <g id="ytick_6">
     <g id="line2d_23">
      <g>
       <use style="fill:#ffffff;stroke:#000000;stroke-width:0.8;" x="86.4" xlink:href="#m1219cd610d" y="620.571429"/>
      </g>
     </g>
     <g id="text_14">
      <!-- −1 -->
      <g transform="translate(50.96 628.767054)scale(0.24 -0.24)">
       <use xlink:href="#STIXGeneral-Regular-8722"/>
       <use x="68.499985" xlink:href="#STIXGeneral-Regular-49"/>
      </g>
     </g>
    </g>
    <g id="ytick_7">
     <g id="line2d_24">
      <g>
       <use style="fill:#ffffff;stroke:#000000;stroke-width:0.8;" x="86.4" xlink:href="#m1219cd610d" y="565.714286"/>
      </g>
     </g>
     <g id="text_15">
      <!-- 0 -->
      <g transform="translate(67.4 573.909911)scale(0.24 -0.24)">
       <use xlink:href="#STIXGeneral-Regular-48"/>
      </g>
     </g>
    </g>
    <g id="ytick_8">
     <g id="line2d_25">
      <g>
       <use style="fill:#ffffff;stroke:#000000;stroke-width:0.8;" x="86.4" xlink:href="#m1219cd610d" y="510.857143"/>
      </g>
     </g>
     <g id="text_16">
      <!-- 1 -->
      <g transform="translate(67.4 519.052768)scale(0.24 -0.24)">
       <use xlink:href="#STIXGeneral-Regular-49"/>
      </g>
     </g>
    </g>
    <g id="ytick_9">
     <g id="line2d_26">
      <g>
       <use style="fill:#ffffff;stroke:#000000;stroke-width:0.8;" x="86.4" xlink:href="#m1219cd610d" y="456"/>
      </g>
     </g>
     <g id="text_17">
      <!-- 2 -->
      <g transform="translate(67.4 464.195625)scale(0.24 -0.24)">
       <use xlink:href="#STIXGeneral-Regular-50"/>
      </g>
     </g>
    </g>
    <g id="ytick_10">
     <g id="line2d_27">
      <g>
       <use style="fill:#ffffff;stroke:#000000;stroke-width:0.8;" x="86.4" xlink:href="#m1219cd610d" y="401.142857"/>
      </g>
     </g>
     <g id="text_18">
      <!-- 3 -->
      <g transform="translate(67.4 409.338482)scale(0.24 -0.24)">
       <use xlink:href="#STIXGeneral-Regular-51"/>
      </g>
     </g>
    </g>
    <g id="text_19">
     <!-- $C_D$ -->
     <g transform="translate(41.75125 525.497143)rotate(-90)scale(0.24 -0.24)">
      <defs>
       <path d="M 13.09375 65.296875 
L 40.796875 65.296875 
Q 54.203125 65.296875 62.09375 58.296875 
Q 70 51.296875 70 38.40625 
Q 70 20.703125 54 8.296875 
Q 43.40625 0 24.90625 0 
L -0.796875 0 
L -0.796875 1.59375 
Q 3.5 2.40625 4.84375 3.59375 
Q 6.203125 4.796875 7.40625 9.203125 
L 19.59375 53.703125 
Q 20.703125 57.59375 20.703125 59.59375 
Q 20.703125 61.703125 19.09375 62.640625 
Q 17.5 63.59375 13.09375 63.703125 
z
M 31 58.40625 
L 19.203125 16.203125 
Q 17 8.203125 17 6.703125 
Q 17 3 23.796875 3 
Q 38.59375 3 47.90625 12 
Q 53.09375 17 56 24.953125 
Q 58.90625 32.90625 58.90625 40.796875 
Q 58.90625 52.90625 51.09375 58.796875 
Q 46.40625 62.296875 38 62.296875 
Q 34.796875 62.296875 33.25 61.546875 
Q 31.703125 60.796875 31 58.40625 
z
" id="STIXGeneral-Italic-68"/>
      </defs>
      <use transform="translate(0 0.40625)" xlink:href="#STIXGeneral-Italic-67"/>
      <use transform="translate(66.699997 -12.821875)scale(0.7)" xlink:href="#STIXGeneral-Italic-68"/>
     </g>
    </g>
   </g>
   <g id="line2d_28">
    <path clip-path="url(#p2f997dd91f)" d="M 87.371707 721 
L 87.913514 575.675127 
L 88.216216 530.416614 
L 88.518919 503.490622 
L 88.821622 489.845428 
L 89.124324 484.429305 
L 89.72973 479.172163 
L 90.335135 472.70027 
L 91.545946 463.096573 
L 92.756757 455.415361 
L 93.967568 449.057481 
L 95.178378 443.387471 
L 95.783784 441.878428 
L 96.389189 440.2566 
L 97.297297 437.575207 
L 98.508108 434.652834 
L 100.021622 431.633875 
L 101.232432 430.006474 
L 102.140541 429.100272 
L 102.745946 428.015414 
L 103.048649 428.08288 
L 103.351351 428.297481 
L 104.259459 428.154197 
L 104.562162 427.876493 
L 105.167568 426.780003 
L 106.075676 427.647401 
L 106.983784 427.178361 
L 108.194595 426.998716 
L 109.405405 427.328451 
L 110.010811 428.029031 
L 110.616216 427.488971 
L 110.918919 427.502358 
L 112.12973 428.109762 
L 112.432432 428.182732 
L 113.037838 427.863159 
L 113.643243 427.962496 
L 116.064865 428.882762 
L 120 430.657005 
L 122.421622 431.551067 
L 124.540541 432.017163 
L 126.356757 432.187424 
L 128.172973 432.146401 
L 129.383784 431.98747 
L 129.989189 431.180834 
L 130.291892 431.186008 
L 130.897297 431.612635 
L 131.2 431.676941 
L 133.924324 430.478539 
L 135.740541 429.755055 
L 136.043243 429.74272 
L 136.648649 430.392744 
L 136.951351 430.42175 
L 142.097297 428.528738 
L 142.4 428.623723 
L 142.702703 428.534167 
L 143.005405 428.13247 
L 143.308108 427.944672 
L 143.913514 428.512829 
L 144.821622 428.311441 
L 145.124324 428.378521 
L 146.335135 428.258161 
L 148.151351 428.668847 
L 148.756757 428.321583 
L 149.362162 428.48467 
L 150.572973 429.137536 
L 151.783784 430.056446 
L 153.297297 431.542618 
L 154.810811 433.427758 
L 158.140541 439.128282 
L 159.654054 442.318241 
L 161.47027 446.729399 
L 162.378378 448.963485 
L 162.681081 449.054605 
L 163.286486 448.067131 
L 163.589189 447.926222 
L 164.497297 447.920104 
L 165.102703 447.856708 
L 165.708108 447.999526 
L 168.12973 447.30016 
L 174.183784 445.946269 
L 190.52973 442.649079 
L 191.135135 442.804 
L 193.859459 442.355527 
L 200.518919 441.034779 
L 222.313514 436.563416 
L 230.486486 435.155882 
L 237.448649 434.14583 
L 244.410811 433.327015 
L 252.886486 432.591928 
L 261.664865 432.110483 
L 269.837838 431.880842 
L 277.708108 431.834032 
L 281.037838 431.854494 
L 289.210811 431.978873 
L 290.421622 432.059789 
L 291.027027 432.258707 
L 295.567568 432.691089 
L 296.475676 432.878924 
L 297.686486 432.957057 
L 299.805405 432.849191 
L 303.740541 432.92942 
L 304.648649 432.73804 
L 308.583784 432.737375 
L 315.243243 433.130929 
L 322.205405 434.174778 
L 334.313514 435.902761 
L 336.735135 436.584689 
L 338.551351 437.272476 
L 340.064865 438.0016 
L 341.881081 439.100181 
L 343.394595 440.237537 
L 345.210811 441.944566 
L 346.724324 443.660086 
L 348.237838 445.689381 
L 349.751351 448.073783 
L 351.264865 450.84259 
L 352.778378 454.044909 
L 354.594595 458.477884 
L 356.410811 463.610823 
L 358.227027 469.48954 
L 360.043243 476.147346 
L 361.859459 483.58603 
L 363.675676 491.823128 
L 365.794595 502.413767 
L 368.518919 517.270853 
L 371.848649 537.515505 
L 376.086486 565.113886 
L 382.745946 608.380923 
L 385.47027 624.542376 
L 387.589189 636.092252 
L 387.891892 633.406302 
L 388.194595 639.155891 
L 388.497297 656.513794 
L 388.8 642.178722 
L 388.8 642.178722 
" style="fill:none;stroke:#1f77b4;stroke-linecap:square;stroke-width:4;"/>
   </g>
   <g id="line2d_29">
    <path clip-path="url(#p2f997dd91f)" d="M 86.4 628.966497 
L 87.005405 499.666372 
L 87.308108 485.623986 
L 87.610811 497.176864 
L 87.913514 499.27628 
L 88.216216 494.571122 
L 88.518919 492.446679 
L 88.821622 492.169687 
L 89.124324 491.220134 
L 89.72973 488.598066 
L 92.454054 479.452194 
L 94.27027 474.348485 
L 95.783784 470.690442 
L 97.297297 467.577046 
L 98.810811 464.942933 
L 100.324324 462.762874 
L 101.837838 460.982815 
L 103.351351 459.553928 
L 104.864865 458.11477 
L 105.167568 457.629211 
L 105.772973 457.23931 
L 107.589189 456.320711 
L 109.405405 455.635041 
L 110.010811 454.781631 
L 110.616216 454.490978 
L 113.340541 453.651145 
L 114.248649 453.386429 
L 114.854054 453.671717 
L 115.762162 453.598657 
L 116.064865 453.379247 
L 116.67027 452.302012 
L 117.275676 452.375342 
L 117.578378 452.159735 
L 117.881081 452.102627 
L 118.486486 452.729946 
L 119.697297 451.503647 
L 120.302703 451.112583 
L 122.421622 449.294008 
L 122.724324 449.158725 
L 123.632432 449.512357 
L 124.237838 449.156177 
L 126.356757 447.274721 
L 129.686486 443.881972 
L 131.805405 441.605034 
L 133.016216 439.722923 
L 134.832432 437.708683 
L 136.951351 435.632529 
L 139.372973 433.541585 
L 141.491892 431.984254 
L 143.610811 430.73149 
L 145.427027 429.93504 
L 147.243243 429.398008 
L 148.151351 429.304546 
L 149.362162 429.324061 
L 152.086486 430.044736 
L 152.994595 430.47759 
L 155.416216 432.217221 
L 156.627027 433.49232 
L 157.837838 435.054336 
L 159.351351 437.427033 
L 160.864865 440.289422 
L 162.378378 443.46818 
L 162.681081 443.445038 
L 163.286486 442.240938 
L 163.589189 441.997546 
L 164.497297 441.696221 
L 167.827027 440.238358 
L 170.248649 439.246966 
L 170.854054 438.912702 
L 172.972973 438.243552 
L 175.697297 437.662281 
L 178.724324 437.261967 
L 182.054054 437.047373 
L 185.989189 436.999931 
L 192.043243 437.161624 
L 215.048649 437.935314 
L 229.275676 438.078288 
L 244.713514 437.921665 
L 278.010811 437.353064 
L 280.12973 437.608824 
L 285.578378 437.751233 
L 291.32973 438.165305 
L 292.843243 438.250873 
L 294.962162 438.112787 
L 303.437838 438.352623 
L 305.556757 438.387502 
L 306.162162 438.217424 
L 309.491892 438.211511 
L 314.335135 438.505432 
L 320.389189 439.425969 
L 325.232432 439.900955 
L 334.313514 440.661754 
L 337.037838 441.195912 
L 338.854054 441.729404 
L 340.367568 442.324902 
L 341.881081 443.079296 
L 343.394595 444.020321 
L 345.210811 445.466667 
L 346.724324 446.946023 
L 347.935135 448.334766 
L 349.448649 450.363509 
L 350.962162 452.750346 
L 352.475676 455.527505 
L 354.291892 459.415611 
L 355.502703 462.216765 
L 357.318919 467.190064 
L 359.135135 472.880061 
L 360.951351 479.308249 
L 363.07027 487.761048 
L 365.189189 497.189501 
L 367.610811 509.083108 
L 370.032432 522.067777 
L 373.664865 542.774989 
L 379.416216 577.367294 
L 380.021622 581.068701 
L 380.92973 586.204652 
L 383.654054 601.88828 
L 386.378378 616.378196 
L 386.983784 619.418953 
L 387.286486 621.82801 
L 387.589189 622.366558 
L 387.891892 620.339002 
L 388.194595 625.209597 
L 388.497297 639.568991 
L 388.8 628.003549 
L 388.8 628.003549 
" style="fill:none;stroke:#ff7f0e;stroke-linecap:square;stroke-width:4;"/>
   </g>
   <g id="line2d_30">
    <path clip-path="url(#p2f997dd91f)" d="M 86.518449 -1 
L 87.005405 193.417607 
L 87.610811 418.573262 
L 87.913514 489.315438 
L 88.216216 529.868794 
L 88.518919 554.670343 
L 88.821622 568.038545 
L 89.124324 572.505115 
L 89.427027 573.326642 
L 90.032432 577.596296 
L 90.637838 580.951311 
L 91.545946 584.927962 
L 92.454054 587.97879 
L 93.664865 591.232288 
L 94.27027 592.418067 
L 94.875676 593.972962 
L 95.178378 594.405598 
L 95.481081 594.549039 
L 96.086486 594.567583 
L 97.902703 596.143687 
L 98.810811 596.626512 
L 100.324324 597.294249 
L 102.140541 597.284145 
L 102.745946 597.784504 
L 103.956757 596.595706 
L 104.259459 596.464895 
L 104.562162 596.458841 
L 104.864865 596.62657 
L 105.167568 596.563494 
L 105.772973 595.370659 
L 106.075676 595.134963 
L 107.286486 595.051969 
L 108.497297 594.597031 
L 109.102703 594.389086 
L 109.405405 594.020876 
L 110.010811 592.466887 
L 110.313514 592.499437 
L 110.616216 592.716293 
L 110.918919 592.596645 
L 112.12973 591.595172 
L 112.432432 591.431875 
L 113.037838 591.577626 
L 113.340541 591.500487 
L 114.248649 590.929738 
L 114.854054 590.97527 
L 115.762162 590.578799 
L 116.064865 590.210771 
L 116.67027 588.847822 
L 117.275676 588.639542 
L 117.881081 588.090443 
L 118.486486 588.480742 
L 119.697297 586.690182 
L 120.302703 586.043748 
L 122.421622 583.457226 
L 122.724324 583.238986 
L 123.632432 583.373926 
L 124.237838 582.901861 
L 129.383784 577.925495 
L 129.989189 578.098084 
L 130.291892 577.770619 
L 131.2 576.316804 
L 131.805405 575.997816 
L 133.016216 574.614651 
L 135.135135 573.013364 
L 136.043243 572.470504 
L 136.648649 571.234034 
L 137.254054 570.756234 
L 139.07027 569.779323 
L 141.189189 568.89597 
L 142.097297 568.783318 
L 142.4 568.499473 
L 142.702703 568.407856 
L 143.005405 568.639431 
L 143.308108 568.662784 
L 143.913514 567.779649 
L 144.821622 567.571043 
L 145.124324 567.381095 
L 146.335135 567.097919 
L 147.848649 566.349647 
L 148.151351 566.349985 
L 148.756757 566.679271 
L 149.664865 566.48838 
L 150.572973 566.178049 
L 155.113514 563.727301 
L 156.021622 563.170782 
L 159.351351 561.495423 
L 162.075676 560.33503 
L 164.497297 559.490402 
L 165.102703 559.264894 
L 165.708108 558.845382 
L 169.945946 558.30557 
L 170.854054 557.964382 
L 172.972973 557.756627 
L 175.697297 557.74111 
L 178.724324 557.950272 
L 182.054054 558.400255 
L 185.989189 559.153369 
L 190.52973 560.172092 
L 191.135135 560.037833 
L 193.859459 560.594075 
L 200.821622 562.264959 
L 214.443243 565.536617 
L 221.708108 567.074227 
L 229.275676 568.441725 
L 235.632432 569.372761 
L 241.989189 570.092263 
L 248.345946 570.61279 
L 255.610811 570.994739 
L 264.086486 571.21348 
L 275.286486 571.264673 
L 278.313514 571.290546 
L 279.221622 571.44265 
L 285.881081 571.563497 
L 289.513514 571.665488 
L 290.118919 571.76741 
L 291.632432 571.602386 
L 293.751351 571.459706 
L 295.87027 571.06249 
L 297.081081 570.916159 
L 297.989189 570.959273 
L 299.2 571.074442 
L 303.740541 571.154279 
L 304.345946 571.343332 
L 305.556757 571.385865 
L 306.162162 571.224379 
L 308.886486 571.170683 
L 324.021622 571.113553 
L 330.681081 570.754178 
L 337.945946 570.136472 
L 344 569.413188 
L 349.145946 568.570322 
L 353.383784 567.658057 
L 354.594595 567.309034 
L 355.502703 566.978366 
L 359.437838 565.773333 
L 363.675676 564.236903 
L 367.005405 562.851255 
L 367.913514 562.463049 
L 368.518919 562.272156 
L 370.335135 561.343853 
L 371.545946 560.63149 
L 372.151351 560.144358 
L 378.508108 556.660779 
L 379.113514 555.937051 
L 379.718919 555.999111 
L 380.92973 554.984499 
L 386.983784 552.235137 
L 387.286486 551.904772 
L 387.589189 551.988592 
L 387.891892 552.646986 
L 388.194595 551.767992 
L 388.497297 548.769483 
L 388.8 551.539113 
L 388.8 551.539113 
" style="fill:none;stroke:#2ca02c;stroke-linecap:square;stroke-width:4;"/>
   </g>
   <g id="line2d_31">
    <path clip-path="url(#p2f997dd91f)" d="M 86.4 565.714286 
L 388.8 565.714286 
" style="fill:none;stroke:#000000;stroke-dasharray:3.2,0.8,0.5,0.8;stroke-dashoffset:0;stroke-width:0.5;"/>
   </g>
   <g id="line2d_32">
    <path clip-path="url(#p2f997dd91f)" d="M 388.8 648 
L 388.8 373.714286 
" style="fill:none;stroke:#000000;stroke-dasharray:3.2,0.8,0.5,0.8;stroke-dashoffset:0;stroke-width:0.5;"/>
   </g>
   <g id="patch_8">
    <path d="M 86.4 648 
L 86.4 373.714286 
" style="fill:none;stroke:#000000;stroke-linecap:square;stroke-linejoin:miter;stroke-width:0.8;"/>
   </g>
   <g id="patch_9">
    <path d="M 388.8 648 
L 388.8 373.714286 
" style="fill:none;stroke:#000000;stroke-linecap:square;stroke-linejoin:miter;stroke-width:0.8;"/>
   </g>
   <g id="patch_10">
    <path d="M 86.4 648 
L 388.8 648 
" style="fill:none;stroke:#000000;stroke-linecap:square;stroke-linejoin:miter;stroke-width:0.8;"/>
   </g>
   <g id="patch_11">
    <path d="M 86.4 373.714286 
L 388.8 373.714286 
" style="fill:none;stroke:#000000;stroke-linecap:square;stroke-linejoin:miter;stroke-width:0.8;"/>
   </g>
  </g>
 </g>
 <defs>
  <clipPath id="p8a8ecbf07b">
   <rect height="274.285714" width="302.4" x="86.4" y="72"/>
  </clipPath>
  <clipPath id="p2f997dd91f">
   <rect height="274.285714" width="302.4" x="86.4" y="373.714286"/>
  </clipPath>
 </defs>
</svg>
