<?xml version="1.0" encoding="utf-8" standalone="no"?>
<!DOCTYPE svg PUBLIC "-//W3C//DTD SVG 1.1//EN"
  "http://www.w3.org/Graphics/SVG/1.1/DTD/svg11.dtd">
<!-- Created with matplotlib (https://matplotlib.org/) -->
<svg height="720pt" version="1.1" viewBox="0 0 432 720" width="432pt" xmlns="http://www.w3.org/2000/svg" xmlns:xlink="http://www.w3.org/1999/xlink">
 <metadata>
  <rdf:RDF xmlns:cc="http://creativecommons.org/ns#" xmlns:dc="http://purl.org/dc/elements/1.1/" xmlns:rdf="http://www.w3.org/1999/02/22-rdf-syntax-ns#">
   <cc:Work>
    <dc:type rdf:resource="http://purl.org/dc/dcmitype/StillImage"/>
    <dc:date>2022-05-03T18:49:06.683864</dc:date>
    <dc:format>image/svg+xml</dc:format>
    <dc:creator>
     <cc:Agent>
      <dc:title>Matplotlib v3.3.4, https://matplotlib.org/</dc:title>
     </cc:Agent>
    </dc:creator>
   </cc:Work>
  </rdf:RDF>
 </metadata>
 <defs>
  <style type="text/css">*{stroke-linecap:butt;stroke-linejoin:round;}</style>
 </defs>
 <g id="figure_1">
  <g id="patch_1">
   <path d="M 0 720 
L 432 720 
L 432 0 
L 0 0 
z
" style="fill:#ffffff;"/>
  </g>
  <g id="axes_1">
   <g id="patch_2">
    <path d="M 86.4 346.285714 
L 388.8 346.285714 
L 388.8 72 
L 86.4 72 
z
" style="fill:#ffffff;"/>
   </g>
   <g id="matplotlib.axis_1">
    <g id="xtick_1">
     <g id="line2d_1">
      <defs>
       <path d="M 0 0 
L 0 3.5 
" id="m12c640a7dd" style="stroke:#000000;stroke-width:0.8;"/>
      </defs>
      <g>
       <use style="fill:#ffffff;stroke:#000000;stroke-width:0.8;" x="86.4" xlink:href="#m12c640a7dd" y="346.285714"/>
      </g>
     </g>
    </g>
    <g id="xtick_2">
     <g id="line2d_2">
      <g>
       <use style="fill:#ffffff;stroke:#000000;stroke-width:0.8;" x="207.36" xlink:href="#m12c640a7dd" y="346.285714"/>
      </g>
     </g>
    </g>
    <g id="xtick_3">
     <g id="line2d_3">
      <g>
       <use style="fill:#ffffff;stroke:#000000;stroke-width:0.8;" x="328.32" xlink:href="#m12c640a7dd" y="346.285714"/>
      </g>
     </g>
    </g>
   </g>
   <g id="matplotlib.axis_2">
    <g id="ytick_1">
     <g id="line2d_4">
      <defs>
       <path d="M 0 0 
L -3.5 0 
" id="meb8365be42" style="stroke:#000000;stroke-width:0.8;"/>
      </defs>
      <g>
       <use style="fill:#ffffff;stroke:#000000;stroke-width:0.8;" x="86.4" xlink:href="#meb8365be42" y="318.857143"/>
      </g>
     </g>
     <g id="text_1">
      <!-- −1 -->
      <g transform="translate(50.96 327.052768)scale(0.24 -0.24)">
       <defs>
        <path d="M 62.09375 22 
L 6.40625 22 
L 6.40625 28.59375 
L 62.09375 28.59375 
z
" id="STIXGeneral-Regular-8722"/>
        <path d="M 39.40625 0 
L 11.796875 0 
L 11.796875 1.5 
Q 17.296875 1.796875 19.296875 3.546875 
Q 21.296875 5.296875 21.296875 9.5 
L 21.296875 54.40625 
Q 21.296875 59.296875 18.296875 59.296875 
Q 16.90625 59.296875 13.796875 58.09375 
L 11.09375 57.09375 
L 11.09375 58.5 
L 29 67.59375 
L 29.90625 67.296875 
L 29.90625 7.59375 
Q 29.90625 4.296875 31.90625 2.890625 
Q 33.90625 1.5 39.40625 1.5 
z
" id="STIXGeneral-Regular-49"/>
       </defs>
       <use xlink:href="#STIXGeneral-Regular-8722"/>
       <use x="68.499985" xlink:href="#STIXGeneral-Regular-49"/>
      </g>
     </g>
    </g>
    <g id="ytick_2">
     <g id="line2d_5">
      <g>
       <use style="fill:#ffffff;stroke:#000000;stroke-width:0.8;" x="86.4" xlink:href="#meb8365be42" y="264"/>
      </g>
     </g>
     <g id="text_2">
      <!-- 0 -->
      <g transform="translate(67.4 272.195625)scale(0.24 -0.24)">
       <defs>
        <path d="M 47.59375 33 
Q 47.59375 26.296875 46.296875 20.34375 
Q 45 14.40625 42.453125 9.40625 
Q 39.90625 4.40625 35.40625 1.5 
Q 30.90625 -1.40625 25 -1.40625 
Q 18.90625 -1.40625 14.296875 1.6875 
Q 9.703125 4.796875 7.203125 10 
Q 4.703125 15.203125 3.546875 21.09375 
Q 2.40625 27 2.40625 33.59375 
Q 2.40625 42.90625 4.703125 50.34375 
Q 7 57.796875 12.34375 62.6875 
Q 17.703125 67.59375 25.40625 67.59375 
Q 35.203125 67.59375 41.390625 58 
Q 47.59375 48.40625 47.59375 33 
z
M 38 32.5 
Q 38 48.296875 34.640625 56.640625 
Q 31.296875 65 24.796875 65 
Q 18.59375 65 15.296875 56.59375 
Q 12 48.203125 12 32.90625 
Q 12 17.5 15.296875 9.34375 
Q 18.59375 1.203125 25 1.203125 
Q 31.296875 1.203125 34.640625 9.34375 
Q 38 17.5 38 32.5 
z
" id="STIXGeneral-Regular-48"/>
       </defs>
       <use xlink:href="#STIXGeneral-Regular-48"/>
      </g>
     </g>
    </g>
    <g id="ytick_3">
     <g id="line2d_6">
      <g>
       <use style="fill:#ffffff;stroke:#000000;stroke-width:0.8;" x="86.4" xlink:href="#meb8365be42" y="209.142857"/>
      </g>
     </g>
     <g id="text_3">
      <!-- 1 -->
      <g transform="translate(67.4 217.338482)scale(0.24 -0.24)">
       <use xlink:href="#STIXGeneral-Regular-49"/>
      </g>
     </g>
    </g>
    <g id="ytick_4">
     <g id="line2d_7">
      <g>
       <use style="fill:#ffffff;stroke:#000000;stroke-width:0.8;" x="86.4" xlink:href="#meb8365be42" y="154.285714"/>
      </g>
     </g>
     <g id="text_4">
      <!-- 2 -->
      <g transform="translate(67.4 162.481339)scale(0.24 -0.24)">
       <defs>
        <path d="M 47.40625 13.703125 
L 42 0 
L 2.90625 0 
L 2.90625 1.203125 
L 20.703125 20.09375 
Q 27.703125 27.40625 30.703125 33.5 
Q 33.703125 39.59375 33.703125 46.09375 
Q 33.703125 52.796875 30 56.5 
Q 26.296875 60.203125 19.796875 60.203125 
Q 14.40625 60.203125 11.25 57.390625 
Q 8.09375 54.59375 5.09375 47.203125 
L 3 47.703125 
Q 4.703125 57 9.84375 62.296875 
Q 15 67.59375 23.796875 67.59375 
Q 32.09375 67.59375 37.1875 62.59375 
Q 42.296875 57.59375 42.296875 50 
Q 42.296875 38.703125 29.5 25.203125 
L 13 7.59375 
L 36.40625 7.59375 
Q 39.703125 7.59375 41.640625 8.890625 
Q 43.59375 10.203125 46 14.296875 
z
" id="STIXGeneral-Regular-50"/>
       </defs>
       <use xlink:href="#STIXGeneral-Regular-50"/>
      </g>
     </g>
    </g>
    <g id="ytick_5">
     <g id="line2d_8">
      <g>
       <use style="fill:#ffffff;stroke:#000000;stroke-width:0.8;" x="86.4" xlink:href="#meb8365be42" y="99.428571"/>
      </g>
     </g>
     <g id="text_5">
      <!-- 3 -->
      <g transform="translate(67.4 107.624196)scale(0.24 -0.24)">
       <defs>
        <path d="M 6.09375 51 
L 4.5 51.40625 
Q 6.796875 58.90625 11.6875 63.25 
Q 16.59375 67.59375 24.09375 67.59375 
Q 31.09375 67.59375 35.390625 63.796875 
Q 39.703125 60 39.703125 53.90625 
Q 39.703125 45.703125 30.40625 40.09375 
Q 35.90625 37.703125 38.703125 34.796875 
Q 43.09375 29.90625 43.09375 21.90625 
Q 43.09375 13.90625 38.5 7.90625 
Q 35.09375 3.296875 28.75 0.9375 
Q 22.40625 -1.40625 15.296875 -1.40625 
Q 4.09375 -1.40625 4.09375 4.296875 
Q 4.09375 5.90625 5.296875 6.90625 
Q 6.5 7.90625 8.203125 7.90625 
Q 10.703125 7.90625 14.296875 5.296875 
Q 18.703125 2.203125 22.90625 2.203125 
Q 28.40625 2.203125 32.15625 6.640625 
Q 35.90625 11.09375 35.90625 17.5 
Q 35.90625 29 25.5 32 
Q 22.40625 33 15.296875 33 
L 15.296875 34.40625 
Q 20.90625 36.296875 23.703125 38 
Q 31.796875 42.59375 31.796875 51.40625 
Q 31.796875 56.40625 28.9375 59 
Q 26.09375 61.59375 21 61.59375 
Q 12 61.59375 6.09375 51 
z
" id="STIXGeneral-Regular-51"/>
       </defs>
       <use xlink:href="#STIXGeneral-Regular-51"/>
      </g>
     </g>
    </g>
    <g id="text_6">
     <!-- $C_L$ -->
     <g transform="translate(41.75125 222.462857)rotate(-90)scale(0.24 -0.24)">
      <defs>
       <path d="M 68.90625 66.40625 
L 65.203125 46.40625 
L 63.40625 46.703125 
Q 61.59375 63 48.5 63 
Q 37.59375 63 28.59375 53.296875 
Q 23.296875 47.703125 20.546875 39.703125 
Q 17.796875 31.703125 17.796875 23.203125 
Q 17.796875 2.703125 35.296875 2.703125 
Q 41.5 2.703125 46.640625 5.296875 
Q 51.796875 7.90625 58.203125 14.59375 
L 60 13.09375 
Q 53.296875 5.203125 46.84375 1.703125 
Q 40.40625 -1.796875 32.703125 -1.796875 
Q 21 -1.796875 13.796875 5.140625 
Q 6.59375 12.09375 6.59375 24.296875 
Q 6.59375 34.59375 11.6875 43.9375 
Q 16.796875 53.296875 25.296875 59.296875 
Q 35.5 66.59375 47.203125 66.59375 
Q 54.09375 66.59375 58.90625 64.90625 
Q 60.90625 64.203125 63 64.203125 
Q 65.703125 64.203125 66.796875 66.40625 
z
" id="STIXGeneral-Italic-67"/>
       <path d="M 55.90625 18 
L 50.09375 0 
L -0.796875 0 
L -0.796875 1.59375 
Q 3.40625 2 4.703125 3.296875 
Q 6 4.59375 7.40625 9.40625 
L 19.59375 53.203125 
Q 20.703125 56.90625 20.703125 59.40625 
Q 20.703125 61.59375 19.140625 62.5 
Q 17.59375 63.40625 13 63.703125 
L 13 65.296875 
L 40.296875 65.296875 
L 40.296875 63.703125 
Q 35.703125 63.40625 33.546875 61.796875 
Q 31.40625 60.203125 30.203125 56 
L 18.203125 13.09375 
Q 17.203125 9.296875 17.203125 7.703125 
Q 17.203125 5.40625 19.390625 4.5 
Q 21.59375 3.59375 27.703125 3.59375 
Q 35.40625 3.59375 38.75 4.296875 
Q 42.09375 5 45.703125 7.40625 
Q 49.796875 10.09375 53.90625 18.59375 
z
" id="STIXGeneral-Italic-76"/>
      </defs>
      <use transform="translate(0 0.40625)" xlink:href="#STIXGeneral-Italic-67"/>
      <use transform="translate(66.699997 -12.821875)scale(0.7)" xlink:href="#STIXGeneral-Italic-76"/>
     </g>
    </g>
   </g>
   <g id="line2d_9">
    <path clip-path="url(#p9c2b474088)" d="M 86.4 298.218637 
L 87.005405 286.046823 
L 87.610811 278.16364 
L 88.216216 273.438646 
L 88.821622 270.741403 
L 90.940541 264.485307 
L 95.178378 252.374104 
L 96.086486 249.925414 
L 98.810811 242.508524 
L 102.140541 234.540682 
L 104.562162 229.533597 
L 106.983784 225.004937 
L 107.589189 222.882614 
L 108.194595 221.735378 
L 110.918919 217.338782 
L 111.827027 215.975332 
L 112.432432 215.682578 
L 113.340541 214.534339 
L 117.275676 209.343374 
L 121.210811 203.889364 
L 122.724324 201.622743 
L 123.32973 200.050285 
L 124.540541 198.070732 
L 125.145946 197.734686 
L 126.356757 195.693571 
L 129.383784 190.376494 
L 132.713514 184.060675 
L 135.135135 179.478022 
L 135.740541 178.438947 
L 139.675676 169.71621 
L 140.886486 167.575282 
L 141.491892 166.957833 
L 142.4 165.534896 
L 143.005405 164.773771 
L 144.821622 161.958308 
L 146.032432 160.43206 
L 149.664865 156.688635 
L 151.178378 155.640715 
L 151.783784 155.848195 
L 153.297297 155.264666 
L 154.508108 154.950476 
L 155.718919 154.835341 
L 156.92973 154.930608 
L 158.140541 155.243627 
L 159.351351 155.777878 
L 160.562162 156.537314 
L 161.772973 157.535679 
L 162.378378 157.974542 
L 162.681081 157.828472 
L 163.286486 156.861968 
L 163.891892 156.45944 
L 170.248649 153.348479 
L 173.578378 152.170431 
L 177.210811 151.123639 
L 182.054054 149.977724 
L 189.318919 148.536683 
L 214.745946 143.736266 
L 233.210811 140.04428 
L 241.081081 138.794809 
L 248.345946 137.865056 
L 255.610811 137.16206 
L 263.783784 136.615599 
L 272.562162 136.249988 
L 291.632432 135.687859 
L 294.054054 135.755613 
L 302.52973 135.830619 
L 303.135135 135.976475 
L 311.913514 136.06226 
L 313.72973 136.142373 
L 316.151351 137.156256 
L 318.572973 138.201655 
L 320.994595 139.466228 
L 323.416216 140.998594 
L 325.837838 142.833701 
L 327.654054 144.43592 
L 329.47027 146.274418 
L 331.286486 148.329935 
L 333.102703 150.670852 
L 335.221622 153.795586 
L 337.037838 156.807737 
L 339.459459 161.320521 
L 341.578378 165.817099 
L 343.697297 170.794481 
L 346.421622 177.943227 
L 348.843243 184.941138 
L 351.567568 193.479233 
L 354.897297 204.68313 
L 365.794595 242.090308 
L 368.216216 249.17029 
L 370.032432 253.876392 
L 371.848649 257.942814 
L 375.178378 263.678015 
L 376.086486 264.804435 
L 376.691892 264.862972 
L 377.297297 265.899115 
L 377.6 265.971029 
L 377.902703 265.863645 
L 378.205405 265.958476 
L 378.810811 266.33698 
L 380.021622 266.688416 
L 380.92973 266.731952 
L 381.837838 266.588839 
L 382.745946 266.253365 
L 383.956757 265.528338 
L 385.167568 264.507202 
L 386.378378 263.2114 
L 387.891892 261.236158 
L 388.8 259.865204 
L 388.8 259.865204 
" style="fill:none;stroke:#1f77b4;stroke-linecap:square;stroke-width:4;"/>
   </g>
   <g id="line2d_10">
    <path clip-path="url(#p9c2b474088)" d="M 86.4 261.632958 
L 88.216216 259.100141 
L 90.335135 255.741442 
L 92.454054 252.007165 
L 103.048649 233.028977 
L 105.167568 229.811129 
L 105.772973 228.928693 
L 106.681081 227.060969 
L 108.497297 224.65587 
L 109.405405 223.449123 
L 110.010811 223.292253 
L 110.616216 222.5452 
L 111.827027 221.194767 
L 113.945946 218.953014 
L 114.551351 218.314664 
L 115.156757 217.71575 
L 115.762162 217.248252 
L 118.789189 214.27916 
L 120.908108 212.40265 
L 121.513514 211.271819 
L 122.118919 210.75623 
L 123.935135 209.56272 
L 125.448649 208.609251 
L 125.751351 208.640605 
L 126.356757 209.569099 
L 126.659459 209.569197 
L 127.264865 209.243045 
L 128.778378 208.609864 
L 134.227027 206.319418 
L 134.832432 206.830312 
L 135.135135 206.787222 
L 138.464865 204.896289 
L 139.978378 203.593122 
L 141.189189 202.306253 
L 142.702703 200.378217 
L 143.913514 198.528998 
L 145.72973 195.377651 
L 147.545946 191.771113 
L 148.756757 189.061142 
L 149.362162 187.281244 
L 150.27027 185.668623 
L 152.086486 181.687151 
L 154.810811 176.184492 
L 156.627027 173.016479 
L 158.140541 170.837996 
L 159.351351 169.408181 
L 160.562162 168.307703 
L 161.47027 167.715277 
L 162.378378 167.203853 
L 162.681081 166.662195 
L 163.589189 164.28745 
L 166.313514 159.799512 
L 168.12973 157.296372 
L 169.945946 155.193461 
L 171.762162 153.461352 
L 173.578378 152.0634 
L 175.394595 150.971376 
L 177.210811 150.143868 
L 179.32973 149.468716 
L 181.751351 148.976951 
L 182.356757 149.103884 
L 182.962162 149.193724 
L 185.686486 149.134171 
L 199.913514 148.928084 
L 204.756757 148.92592 
L 208.691892 149.163177 
L 213.232432 149.677079 
L 219.286486 150.345987 
L 222.616216 150.474521 
L 225.340541 150.397869 
L 228.67027 150.08415 
L 232.302703 149.539746 
L 238.659459 148.372989 
L 245.621622 147.205672 
L 251.372973 146.512838 
L 256.821622 146.107634 
L 263.783784 145.853989 
L 271.048649 145.818974 
L 279.221622 145.864817 
L 293.751351 145.863979 
L 312.821622 146.279876 
L 315.545946 147.464556 
L 318.875676 148.852583 
L 321.6 150.200919 
L 324.021622 151.629154 
L 326.443243 153.317352 
L 328.562162 155.050191 
L 330.983784 157.37106 
L 332.8 159.374759 
L 334.918919 162.032414 
L 337.037838 165.070038 
L 338.854054 167.993282 
L 340.972973 171.801703 
L 343.394595 176.715046 
L 345.210811 180.785899 
L 346.724324 185.107518 
L 349.751351 193.2891 
L 352.778378 202.229356 
L 357.924324 218.969076 
L 358.832432 221.79105 
L 359.437838 223.508455 
L 362.162162 232.354086 
L 365.189189 241.635218 
L 367.610811 248.420632 
L 369.427027 252.979659 
L 371.243243 257.035232 
L 374.572973 262.622966 
L 375.783784 264.194427 
L 376.994595 265.455623 
L 378.205405 266.398489 
L 379.416216 267.022672 
L 380.627027 267.329843 
L 381.837838 267.328762 
L 383.048649 267.025764 
L 384.259459 266.468495 
L 385.47027 265.617174 
L 386.681081 264.465353 
L 388.194595 262.759956 
L 388.8 261.991666 
L 388.8 261.991666 
" style="fill:none;stroke:#ff7f0e;stroke-linecap:square;stroke-width:4;"/>
   </g>
   <g id="line2d_11">
    <path clip-path="url(#p9c2b474088)" d="M 86.4 227.414321 
L 87.005405 238.784712 
L 87.610811 245.822267 
L 88.216216 249.661495 
L 88.821622 251.433486 
L 90.032432 253.0922 
L 91.545946 254.930372 
L 94.875676 258.456174 
L 95.481081 258.790593 
L 96.691892 259.986361 
L 97.297297 260.738552 
L 100.021622 262.629754 
L 100.324324 262.704463 
L 101.535135 263.694292 
L 102.745946 264.294603 
L 103.956757 265.00088 
L 105.167568 265.425496 
L 105.772973 265.687819 
L 106.681081 265.382673 
L 106.983784 265.683182 
L 107.589189 266.955457 
L 107.891892 267.201146 
L 109.102703 267.592887 
L 109.405405 267.751057 
L 110.010811 268.561896 
L 110.616216 268.757192 
L 111.221622 268.968646 
L 111.524324 269.163422 
L 111.827027 269.219435 
L 112.432432 268.826886 
L 113.037838 268.891571 
L 113.643243 269.009982 
L 114.248649 269.355496 
L 114.854054 269.394938 
L 116.064865 269.989755 
L 118.183784 270.734237 
L 120 271.562182 
L 120.908108 272.083448 
L 121.513514 271.827416 
L 122.421622 272.364686 
L 122.724324 272.697016 
L 123.32973 273.885691 
L 124.540541 275.157607 
L 125.145946 275.14073 
L 125.448649 275.342655 
L 125.751351 275.949069 
L 126.356757 277.875528 
L 126.962162 278.714901 
L 128.778378 281.134424 
L 131.502703 285.078662 
L 134.227027 289.190361 
L 134.832432 290.866447 
L 136.043243 292.627536 
L 136.951351 294.399425 
L 138.767568 297.0001 
L 139.372973 297.907981 
L 140.886486 299.080334 
L 141.491892 298.985953 
L 142.097297 299.293767 
L 143.308108 299.231535 
L 143.913514 299.308275 
L 144.821622 299.056199 
L 145.72973 298.62612 
L 147.545946 297.039565 
L 148.756757 295.56973 
L 149.362162 294.336843 
L 149.967568 293.863498 
L 151.178378 292.011676 
L 152.086486 289.93241 
L 153.902703 286.8683 
L 159.048649 278.112311 
L 161.47027 274.459793 
L 163.589189 271.678686 
L 165.405405 269.596131 
L 167.221622 267.823346 
L 169.037838 266.351182 
L 170.854054 265.168549 
L 172.67027 264.256693 
L 174.486486 263.593456 
L 176.302703 263.159693 
L 178.421622 262.908104 
L 180.540541 262.885464 
L 182.054054 263.017251 
L 182.659459 263.340153 
L 185.081081 263.791257 
L 197.189189 265.915484 
L 203.243243 266.924638 
L 207.178378 267.823791 
L 211.416216 269.057907 
L 220.497297 271.827038 
L 225.945946 272.962588 
L 228.972973 273.236182 
L 232.605405 273.33863 
L 238.054054 273.236973 
L 249.859459 272.969073 
L 256.216216 273.027005 
L 267.113514 273.367215 
L 281.643243 273.89948 
L 302.832432 274.048568 
L 303.740541 274.011154 
L 307.978378 274.025882 
L 311.913514 274.109059 
L 312.518919 274.09988 
L 313.72973 274.456161 
L 316.454054 274.537795 
L 321.297297 274.397342 
L 326.140541 274.008152 
L 330.983784 273.398943 
L 334.918919 272.702198 
L 338.248649 271.999915 
L 342.183784 271.007191 
L 345.210811 270.115559 
L 346.118919 270.454291 
L 349.751351 269.579365 
L 354.291892 268.423062 
L 356.410811 267.925143 
L 357.016216 267.894878 
L 358.52973 267.523813 
L 359.437838 266.835581 
L 360.648649 266.559561 
L 367.610811 264.945907 
L 374.875676 263.763937 
L 376.086486 263.737171 
L 376.691892 264.305091 
L 377.297297 263.825467 
L 377.6 263.999819 
L 377.902703 264.33125 
L 378.205405 264.440013 
L 379.113514 264.449474 
L 382.745946 264.876727 
L 385.47027 265.408651 
L 388.8 266.126462 
L 388.8 266.126462 
" style="fill:none;stroke:#2ca02c;stroke-linecap:square;stroke-width:4;"/>
   </g>
   <g id="line2d_12">
    <path clip-path="url(#p9c2b474088)" d="M 86.4 264 
L 388.8 264 
" style="fill:none;stroke:#000000;stroke-dasharray:3.2,0.8,0.5,0.8;stroke-dashoffset:0;stroke-width:0.5;"/>
   </g>
   <g id="line2d_13">
    <path clip-path="url(#p9c2b474088)" d="M 388.8 346.285714 
L 388.8 72 
" style="fill:none;stroke:#000000;stroke-dasharray:3.2,0.8,0.5,0.8;stroke-dashoffset:0;stroke-width:0.5;"/>
   </g>
   <g id="patch_3">
    <path d="M 86.4 346.285714 
L 86.4 72 
" style="fill:none;stroke:#000000;stroke-linecap:square;stroke-linejoin:miter;stroke-width:0.8;"/>
   </g>
   <g id="patch_4">
    <path d="M 388.8 346.285714 
L 388.8 72 
" style="fill:none;stroke:#000000;stroke-linecap:square;stroke-linejoin:miter;stroke-width:0.8;"/>
   </g>
   <g id="patch_5">
    <path d="M 86.4 346.285714 
L 388.8 346.285714 
" style="fill:none;stroke:#000000;stroke-linecap:square;stroke-linejoin:miter;stroke-width:0.8;"/>
   </g>
   <g id="patch_6">
    <path d="M 86.4 72 
L 388.8 72 
" style="fill:none;stroke:#000000;stroke-linecap:square;stroke-linejoin:miter;stroke-width:0.8;"/>
   </g>
   <g id="legend_1">
    <g id="line2d_14">
     <path d="M 78.360596 55.847143 
L 118.344596 55.847143 
" style="fill:none;stroke:#1f77b4;stroke-linecap:square;stroke-width:4;"/>
    </g>
    <g id="line2d_15"/>
    <g id="text_7">
     <!-- 1_stroke -->
     <g transform="translate(134.338196 62.844343)scale(0.19992 -0.19992)">
      <defs>
       <path d="M 50 -12.5 
L 0 -12.5 
L 0 -7.5 
L 50 -7.5 
z
" id="STIXGeneral-Regular-95"/>
       <path d="M 15.59375 30.09375 
L 26 23.796875 
Q 31 20.796875 32.890625 18.1875 
Q 34.796875 15.59375 34.796875 11.5 
Q 34.796875 6.5 30.640625 2.75 
Q 26.5 -1 20.796875 -1 
Q 16.09375 -1 13.5 -0.09375 
Q 10.796875 0.796875 8.90625 0.796875 
Q 7.203125 0.796875 6.5 -0.40625 
L 5.203125 -0.40625 
L 5.203125 15.296875 
L 6.796875 15.296875 
Q 8.40625 8 11.40625 4.59375 
Q 14.40625 1.203125 19.5 1.203125 
Q 23.203125 1.203125 25.5 3.296875 
Q 27.796875 5.40625 27.796875 8.59375 
Q 27.796875 13.203125 22.5 16.09375 
L 17.09375 19.09375 
Q 5.09375 25.796875 5.09375 33.59375 
Q 5.09375 39.40625 8.84375 42.65625 
Q 12.59375 45.90625 18.90625 45.90625 
Q 23.296875 45.90625 25.59375 44.796875 
Q 27.40625 44 28.40625 44 
Q 29.09375 44 30 45 
L 31.09375 45 
L 31.59375 31.40625 
L 30.09375 31.40625 
Q 28.40625 38.203125 25.84375 40.953125 
Q 23.296875 43.703125 18.796875 43.703125 
Q 15.40625 43.703125 13.34375 42 
Q 11.296875 40.296875 11.296875 36.90625 
Q 11.296875 35.203125 12.4375 33.25 
Q 13.59375 31.296875 15.59375 30.09375 
z
" id="STIXGeneral-Regular-115"/>
       <path d="M 26.59375 7.703125 
L 27.90625 6.59375 
Q 23.09375 -1 15.796875 -1 
Q 7 -1 7 11.703125 
L 7 41.796875 
L 1.703125 41.796875 
Q 1.296875 42.09375 1.296875 42.5 
Q 1.296875 43.296875 3 44.40625 
Q 6.796875 46.59375 12.703125 55.09375 
Q 12.90625 55.40625 13.65625 56.34375 
Q 14.40625 57.296875 14.703125 57.90625 
Q 15.40625 57.90625 15.40625 56.59375 
L 15.40625 45 
L 25.5 45 
L 25.5 41.796875 
L 15.40625 41.796875 
L 15.40625 13.203125 
Q 15.40625 8.40625 16.59375 6.296875 
Q 17.796875 4.203125 20.59375 4.203125 
Q 23.59375 4.203125 26.59375 7.703125 
z
" id="STIXGeneral-Regular-116"/>
       <path d="M 16 45.796875 
L 16 36.59375 
Q 19.796875 42 22.34375 44 
Q 24.90625 46 28 46 
Q 30.59375 46 32.046875 44.59375 
Q 33.5 43.203125 33.5 40.703125 
Q 33.5 38.59375 32.453125 37.390625 
Q 31.40625 36.203125 29.59375 36.203125 
Q 27.703125 36.203125 25.59375 38.203125 
Q 24 39.703125 23 39.703125 
Q 20.90625 39.703125 18.453125 36.796875 
Q 16 33.90625 16 31.5 
L 16 9 
Q 16 4.703125 17.703125 3.203125 
Q 19.40625 1.703125 24.5 1.5 
L 24.5 0 
L 0.5 0 
L 0.5 1.5 
Q 5.296875 2.40625 6.4375 3.5 
Q 7.59375 4.59375 7.59375 8.40625 
L 7.59375 33.40625 
Q 7.59375 36.703125 6.84375 38.046875 
Q 6.09375 39.40625 4.203125 39.40625 
Q 2.59375 39.40625 0.703125 39 
L 0.703125 40.59375 
Q 7 42.59375 15.5 46 
z
" id="STIXGeneral-Regular-114"/>
       <path d="M 47 23.09375 
Q 47 12.59375 40.75 5.796875 
Q 34.5 -1 24.5 -1 
Q 15.296875 -1 9.09375 5.75 
Q 2.90625 12.5 2.90625 22.796875 
Q 2.90625 33.203125 9.09375 39.59375 
Q 15.296875 46 25.40625 46 
Q 34.703125 46 40.84375 39.640625 
Q 47 33.296875 47 23.09375 
z
M 38 20.40625 
Q 38 31.796875 33 38.203125 
Q 29 43.203125 23.5 43.203125 
Q 18.296875 43.203125 15.09375 38.953125 
Q 11.90625 34.703125 11.90625 27.296875 
Q 11.90625 14.5 17.203125 6.796875 
Q 20.59375 1.796875 26.203125 1.796875 
Q 31.703125 1.796875 34.84375 6.75 
Q 38 11.703125 38 20.40625 
z
" id="STIXGeneral-Regular-111"/>
       <path d="M 50.5 0 
L 28.703125 0 
L 28.703125 1.5 
L 30.59375 1.5 
Q 32.703125 1.5 32.703125 3 
Q 32.703125 3.90625 31.59375 5.296875 
L 16.59375 25.09375 
L 16.59375 6.703125 
Q 16.59375 4.09375 17.84375 2.890625 
Q 19.09375 1.703125 22.09375 1.59375 
L 24.09375 1.5 
L 24.09375 0 
L 0.703125 0 
L 0.703125 1.5 
Q 6.09375 2.40625 7.140625 3.34375 
Q 8.203125 4.296875 8.203125 8.203125 
L 8.203125 56.40625 
Q 8.203125 60 7.296875 61.25 
Q 6.40625 62.5 3.90625 62.5 
Q 3.296875 62.5 0.703125 62.296875 
L 0.703125 63.90625 
L 3.703125 64.703125 
Q 9.703125 66.296875 16.203125 68.296875 
L 16.59375 68.09375 
L 16.59375 26.09375 
L 30.296875 38.296875 
Q 32.59375 40.40625 32.59375 41.796875 
Q 32.59375 42.796875 31.546875 43.140625 
Q 30.5 43.5 27.59375 43.59375 
L 27.59375 45 
L 48 45 
L 48 43.5 
Q 43 43.5 39.140625 41.34375 
Q 35.296875 39.203125 26.40625 30.90625 
L 23.5 28.203125 
L 38.796875 8.796875 
Q 44.203125 1.90625 50.5 1.5 
z
" id="STIXGeneral-Regular-107"/>
       <path d="M 40.796875 16.40625 
L 42.40625 15.703125 
Q 36.40625 -1 21.5 -1 
Q 12.703125 -1 7.59375 5.140625 
Q 2.5 11.296875 2.5 21.703125 
Q 2.5 32.40625 8.203125 39.203125 
Q 13.90625 46 23.203125 46 
Q 32.203125 46 37.09375 39.09375 
Q 40 35.09375 40.5 27.703125 
L 9.703125 27.703125 
Q 10.09375 21.40625 10.9375 18.09375 
Q 11.796875 14.796875 14.296875 11.40625 
Q 18.5 5.90625 25.40625 5.90625 
Q 30.296875 5.90625 33.640625 8.296875 
Q 37 10.703125 40.796875 16.40625 
z
M 9.90625 30.90625 
L 30.296875 30.90625 
Q 29.40625 37.203125 27.34375 39.796875 
Q 25.296875 42.40625 20.5 42.40625 
Q 16.296875 42.40625 13.5 39.453125 
Q 10.703125 36.5 9.90625 30.90625 
z
" id="STIXGeneral-Regular-101"/>
      </defs>
      <use xlink:href="#STIXGeneral-Regular-49"/>
      <use x="49.999985" xlink:href="#STIXGeneral-Regular-95"/>
      <use x="99.999969" xlink:href="#STIXGeneral-Regular-115"/>
      <use x="138.899963" xlink:href="#STIXGeneral-Regular-116"/>
      <use x="166.699951" xlink:href="#STIXGeneral-Regular-114"/>
      <use x="199.999939" xlink:href="#STIXGeneral-Regular-111"/>
      <use x="249.999924" xlink:href="#STIXGeneral-Regular-107"/>
      <use x="299.999908" xlink:href="#STIXGeneral-Regular-101"/>
     </g>
    </g>
    <g id="line2d_16">
     <path d="M 78.360596 84.176432 
L 118.344596 84.176432 
" style="fill:none;stroke:#ff7f0e;stroke-linecap:square;stroke-width:4;"/>
    </g>
    <g id="line2d_17"/>
    <g id="text_8">
     <!-- 5_stroke -->
     <g transform="translate(134.338196 91.173632)scale(0.19992 -0.19992)">
      <defs>
       <path d="M 43.796875 68.09375 
L 40.203125 59.59375 
Q 39.59375 58.296875 37.5 58.296875 
L 18.09375 58.296875 
L 14.09375 49.796875 
Q 25.09375 47.703125 30 45.25 
Q 34.90625 42.796875 39.09375 37 
Q 42.59375 32.203125 42.59375 24.296875 
Q 42.59375 17.09375 40.25 12.1875 
Q 37.90625 7.296875 32.796875 3.5 
Q 26 -1.40625 15.796875 -1.40625 
Q 10.09375 -1.40625 6.59375 0.296875 
Q 3.09375 2 3.09375 4.796875 
Q 3.09375 8.59375 7.59375 8.59375 
Q 11.203125 8.59375 15 5.5 
Q 18.90625 2.296875 22.09375 2.296875 
Q 27.296875 2.296875 31.4375 7.5 
Q 35.59375 12.703125 35.59375 19.203125 
Q 35.59375 28.796875 28.90625 34.203125 
Q 20.203125 41.203125 7.59375 41.203125 
Q 6.40625 41.203125 6.40625 42 
L 6.5 42.5 
L 17.40625 66.203125 
L 38.09375 66.203125 
Q 39.796875 66.203125 40.75 66.703125 
Q 41.703125 67.203125 42.90625 68.796875 
z
" id="STIXGeneral-Regular-53"/>
      </defs>
      <use xlink:href="#STIXGeneral-Regular-53"/>
      <use x="49.999985" xlink:href="#STIXGeneral-Regular-95"/>
      <use x="99.999969" xlink:href="#STIXGeneral-Regular-115"/>
      <use x="138.899963" xlink:href="#STIXGeneral-Regular-116"/>
      <use x="166.699951" xlink:href="#STIXGeneral-Regular-114"/>
      <use x="199.999939" xlink:href="#STIXGeneral-Regular-111"/>
      <use x="249.999924" xlink:href="#STIXGeneral-Regular-107"/>
      <use x="299.999908" xlink:href="#STIXGeneral-Regular-101"/>
     </g>
    </g>
    <g id="line2d_18">
     <path d="M 243.175894 55.847143 
L 283.159894 55.847143 
" style="fill:none;stroke:#2ca02c;stroke-linecap:square;stroke-width:4;"/>
    </g>
    <g id="line2d_19"/>
    <g id="text_9">
     <!-- wake_effect -->
     <g transform="translate(299.153494 62.844343)scale(0.19992 -0.19992)">
      <defs>
       <path d="M 69.40625 45 
L 69.40625 43.5 
Q 67.90625 43 67.203125 42.046875 
Q 66.5 41.09375 65.296875 38.09375 
L 51.5 3.5 
Q 49.5 -1.40625 48.703125 -1.40625 
Q 48.203125 -1.40625 47.84375 -0.75 
Q 47.5 -0.09375 46.296875 2.90625 
L 37.203125 26.5 
L 26 2.5 
Q 24.203125 -1.40625 23.5 -1.40625 
Q 22.59375 -1.40625 20.90625 3 
L 7.40625 37.203125 
Q 5.90625 41.09375 4.90625 42.1875 
Q 3.90625 43.296875 2.09375 43.5 
L 2.09375 45 
L 20.09375 45 
L 20.09375 43.5 
Q 17.5 43.203125 16.5 42.5 
Q 15.5 41.796875 15.5 40.203125 
Q 15.5 38.703125 16.09375 37.203125 
L 26 11.09375 
L 35.09375 31 
L 33.09375 36.59375 
Q 31.703125 40.59375 30.34375 41.890625 
Q 29 43.203125 26.203125 43.5 
L 26.203125 45 
L 46.5 45 
L 46.5 43.5 
Q 43 43 41.84375 42.296875 
Q 40.703125 41.59375 40.703125 40 
Q 40.703125 38.40625 42.40625 34 
L 50.796875 11.59375 
L 59.796875 33.796875 
Q 61.5 38 61.5 40.5 
Q 61.5 41.703125 60.546875 42.34375 
Q 59.59375 43 57.09375 43.5 
L 57.09375 45 
z
" id="STIXGeneral-Regular-119"/>
       <path d="M 44.203125 6.59375 
L 44.203125 3.796875 
Q 40.40625 -1 35.203125 -1 
Q 29.5 -1 28.796875 6.296875 
L 28.703125 6.296875 
Q 22.296875 -1 14.203125 -1 
Q 9.5 -1 6.59375 1.75 
Q 3.703125 4.5 3.703125 9.40625 
Q 3.703125 16.40625 10.703125 21.09375 
Q 15.5 24.296875 28.703125 29.203125 
L 28.703125 34.59375 
Q 28.703125 39.09375 26.546875 41.34375 
Q 24.40625 43.59375 20.90625 43.59375 
Q 17.90625 43.59375 15.90625 42.140625 
Q 13.90625 40.703125 13.90625 38.703125 
Q 13.90625 37.796875 14.203125 36.6875 
Q 14.5 35.59375 14.5 34.5 
Q 14.5 33 13.140625 31.703125 
Q 11.796875 30.40625 9.90625 30.40625 
Q 8.203125 30.40625 6.890625 31.703125 
Q 5.59375 33 5.59375 35 
Q 5.59375 39.796875 10.703125 43 
Q 15.40625 46 22.203125 46 
Q 30.296875 46 34 41.5 
Q 35.796875 39.40625 36.296875 37.25 
Q 36.796875 35.09375 36.796875 30.40625 
L 36.796875 11.296875 
Q 36.796875 4.703125 39.90625 4.703125 
Q 41.90625 4.703125 44.203125 6.59375 
z
M 28.703125 12.703125 
L 28.703125 26.796875 
Q 19.5 23.59375 15.90625 20.203125 
Q 12.5 17.09375 12.5 12.5 
Q 12.5 8.703125 14.390625 6.75 
Q 16.296875 4.796875 19.40625 4.796875 
Q 22.703125 4.796875 25.203125 6.40625 
Q 27.296875 7.90625 28 9.203125 
Q 28.703125 10.5 28.703125 12.703125 
z
" id="STIXGeneral-Regular-97"/>
       <path d="M 2.09375 45 
L 10.296875 45 
Q 10.40625 51 11.09375 54.34375 
Q 11.796875 57.703125 13.796875 61.09375 
Q 18 68.296875 27.90625 68.296875 
Q 32.40625 68.296875 35.34375 66.546875 
Q 38.296875 64.796875 38.296875 62.09375 
Q 38.296875 60.40625 37.09375 59.203125 
Q 35.90625 58 34.09375 58 
Q 31.703125 58 29.59375 61.59375 
Q 27.203125 65.5 24.296875 65.5 
Q 18.703125 65.5 18.703125 56.59375 
L 18.703125 45 
L 30.90625 45 
L 30.90625 41.796875 
L 18.703125 41.796875 
L 18.703125 10.40625 
Q 18.703125 4.796875 20.296875 3.25 
Q 21.90625 1.703125 28 1.5 
L 28 0 
L 2 0 
L 2 1.5 
Q 7.40625 1.796875 8.84375 3.34375 
Q 10.296875 4.90625 10.296875 10.40625 
L 10.296875 41.796875 
L 2.09375 41.796875 
z
" id="STIXGeneral-Regular-102"/>
       <path d="M 39.796875 15.59375 
L 41.203125 14.703125 
Q 36.90625 6.296875 33 3.203125 
Q 27.90625 -1 21.5 -1 
Q 13.203125 -1 7.84375 5.25 
Q 2.5 11.5 2.5 21.203125 
Q 2.5 33.90625 10.90625 40.90625 
Q 17.09375 46 24.40625 46 
Q 30.703125 46 35.25 42.953125 
Q 39.796875 39.90625 39.796875 35.703125 
Q 39.796875 34 38.390625 32.75 
Q 37 31.5 35.09375 31.5 
Q 31.59375 31.5 30.296875 36.09375 
L 29.703125 38.296875 
Q 28.90625 41.09375 27.703125 42.09375 
Q 26.5 43.09375 23.796875 43.09375 
Q 17.703125 43.09375 13.953125 38.296875 
Q 10.203125 33.5 10.203125 25.703125 
Q 10.203125 17.09375 14.5 11.640625 
Q 18.796875 6.203125 25.703125 6.203125 
Q 30 6.203125 33.09375 8.25 
Q 36.203125 10.296875 39.796875 15.59375 
z
" id="STIXGeneral-Regular-99"/>
      </defs>
      <use xlink:href="#STIXGeneral-Regular-119"/>
      <use x="72.199982" xlink:href="#STIXGeneral-Regular-97"/>
      <use x="116.599976" xlink:href="#STIXGeneral-Regular-107"/>
      <use x="166.59996" xlink:href="#STIXGeneral-Regular-101"/>
      <use x="210.999954" xlink:href="#STIXGeneral-Regular-95"/>
      <use x="260.999939" xlink:href="#STIXGeneral-Regular-101"/>
      <use x="305.399933" xlink:href="#STIXGeneral-Regular-102"/>
      <use x="338.699921" xlink:href="#STIXGeneral-Regular-102"/>
      <use x="371.999908" xlink:href="#STIXGeneral-Regular-101"/>
      <use x="416.399902" xlink:href="#STIXGeneral-Regular-99"/>
      <use x="460.799896" xlink:href="#STIXGeneral-Regular-116"/>
     </g>
    </g>
   </g>
  </g>
  <g id="axes_2">
   <g id="patch_7">
    <path d="M 86.4 648 
L 388.8 648 
L 388.8 373.714286 
L 86.4 373.714286 
z
" style="fill:#ffffff;"/>
   </g>
   <g id="matplotlib.axis_3">
    <g id="xtick_4">
     <g id="line2d_20">
      <g>
       <use style="fill:#ffffff;stroke:#000000;stroke-width:0.8;" x="86.4" xlink:href="#m12c640a7dd" y="648"/>
      </g>
     </g>
     <g id="text_10">
      <!-- 0.0 -->
      <g transform="translate(71.4 671.39125)scale(0.24 -0.24)">
       <defs>
        <path d="M 18.09375 4.296875 
Q 18.09375 2.09375 16.4375 0.5 
Q 14.796875 -1.09375 12.5 -1.09375 
Q 10.203125 -1.09375 8.59375 0.5 
Q 7 2.09375 7 4.390625 
Q 7 6.703125 8.640625 8.34375 
Q 10.296875 10 12.59375 10 
Q 14.796875 10 16.4375 8.296875 
Q 18.09375 6.59375 18.09375 4.296875 
z
" id="STIXGeneral-Regular-46"/>
       </defs>
       <use xlink:href="#STIXGeneral-Regular-48"/>
       <use x="49.999985" xlink:href="#STIXGeneral-Regular-46"/>
       <use x="74.999969" xlink:href="#STIXGeneral-Regular-48"/>
      </g>
     </g>
    </g>
    <g id="xtick_5">
     <g id="line2d_21">
      <g>
       <use style="fill:#ffffff;stroke:#000000;stroke-width:0.8;" x="207.36" xlink:href="#m12c640a7dd" y="648"/>
      </g>
     </g>
     <g id="text_11">
      <!-- 0.2 -->
      <g transform="translate(192.36 671.39125)scale(0.24 -0.24)">
       <use xlink:href="#STIXGeneral-Regular-48"/>
       <use x="49.999985" xlink:href="#STIXGeneral-Regular-46"/>
       <use x="74.999969" xlink:href="#STIXGeneral-Regular-50"/>
      </g>
     </g>
    </g>
    <g id="xtick_6">
     <g id="line2d_22">
      <g>
       <use style="fill:#ffffff;stroke:#000000;stroke-width:0.8;" x="328.32" xlink:href="#m12c640a7dd" y="648"/>
      </g>
     </g>
     <g id="text_12">
      <!-- 0.4 -->
      <g transform="translate(313.32 671.39125)scale(0.24 -0.24)">
       <defs>
        <path d="M 47.296875 16.703125 
L 37 16.703125 
L 37 0 
L 29.203125 0 
L 29.203125 16.703125 
L 1.203125 16.703125 
L 1.203125 23.09375 
L 32.59375 67.59375 
L 37 67.59375 
L 37 23.09375 
L 47.296875 23.09375 
z
M 29.203125 23.09375 
L 29.203125 57.40625 
L 5.203125 23.09375 
z
" id="STIXGeneral-Regular-52"/>
       </defs>
       <use xlink:href="#STIXGeneral-Regular-48"/>
       <use x="49.999985" xlink:href="#STIXGeneral-Regular-46"/>
       <use x="74.999969" xlink:href="#STIXGeneral-Regular-52"/>
      </g>
     </g>
    </g>
    <g id="text_13">
     <!-- $\^t$ -->
     <g transform="translate(234.24 696.99125)scale(0.24 -0.24)">
      <defs>
       <path d="M -7.5 50.703125 
L -10.90625 50.703125 
L -23.09375 61 
L -35.203125 50.703125 
L -38.59375 50.703125 
L -26.203125 67.40625 
L -20 67.40625 
z
" id="STIXGeneral-Regular-770"/>
       <path d="M 29.59375 42.796875 
L 29.09375 39.59375 
L 20.703125 39.59375 
L 12 6.796875 
Q 11.796875 6 11.796875 5.40625 
Q 11.796875 3.796875 13.296875 3.796875 
Q 14.5 3.796875 16.09375 5.34375 
Q 17.703125 6.90625 21.40625 11.703125 
L 22.703125 11 
Q 18.09375 4 15.140625 1.453125 
Q 12.203125 -1.09375 8.40625 -1.09375 
Q 3.796875 -1.09375 3.796875 2.59375 
Q 3.796875 3.59375 5.40625 10 
L 13.203125 39.59375 
L 5.703125 39.59375 
L 5.59375 40.203125 
Q 5.59375 42 8.90625 42.703125 
Q 11.40625 43.296875 15.5 46.546875 
Q 19.59375 49.796875 22.203125 53.703125 
Q 22.796875 54.59375 23.59375 54.59375 
Q 24.5 54.59375 24.5 53.796875 
Q 24.5 53.296875 24.40625 53.09375 
L 21.59375 42.796875 
z
" id="STIXGeneral-Italic-116"/>
      </defs>
      <use transform="translate(39.042969 16.59375)" xlink:href="#STIXGeneral-Regular-770"/>
      <use transform="translate(0 0.203125)" xlink:href="#STIXGeneral-Italic-116"/>
     </g>
    </g>
   </g>
   <g id="matplotlib.axis_4">
    <g id="ytick_6">
     <g id="line2d_23">
      <g>
       <use style="fill:#ffffff;stroke:#000000;stroke-width:0.8;" x="86.4" xlink:href="#meb8365be42" y="620.571429"/>
      </g>
     </g>
     <g id="text_14">
      <!-- −1 -->
      <g transform="translate(50.96 628.767054)scale(0.24 -0.24)">
       <use xlink:href="#STIXGeneral-Regular-8722"/>
       <use x="68.499985" xlink:href="#STIXGeneral-Regular-49"/>
      </g>
     </g>
    </g>
    <g id="ytick_7">
     <g id="line2d_24">
      <g>
       <use style="fill:#ffffff;stroke:#000000;stroke-width:0.8;" x="86.4" xlink:href="#meb8365be42" y="565.714286"/>
      </g>
     </g>
     <g id="text_15">
      <!-- 0 -->
      <g transform="translate(67.4 573.909911)scale(0.24 -0.24)">
       <use xlink:href="#STIXGeneral-Regular-48"/>
      </g>
     </g>
    </g>
    <g id="ytick_8">
     <g id="line2d_25">
      <g>
       <use style="fill:#ffffff;stroke:#000000;stroke-width:0.8;" x="86.4" xlink:href="#meb8365be42" y="510.857143"/>
      </g>
     </g>
     <g id="text_16">
      <!-- 1 -->
      <g transform="translate(67.4 519.052768)scale(0.24 -0.24)">
       <use xlink:href="#STIXGeneral-Regular-49"/>
      </g>
     </g>
    </g>
    <g id="ytick_9">
     <g id="line2d_26">
      <g>
       <use style="fill:#ffffff;stroke:#000000;stroke-width:0.8;" x="86.4" xlink:href="#meb8365be42" y="456"/>
      </g>
     </g>
     <g id="text_17">
      <!-- 2 -->
      <g transform="translate(67.4 464.195625)scale(0.24 -0.24)">
       <use xlink:href="#STIXGeneral-Regular-50"/>
      </g>
     </g>
    </g>
    <g id="ytick_10">
     <g id="line2d_27">
      <g>
       <use style="fill:#ffffff;stroke:#000000;stroke-width:0.8;" x="86.4" xlink:href="#meb8365be42" y="401.142857"/>
      </g>
     </g>
     <g id="text_18">
      <!-- 3 -->
      <g transform="translate(67.4 409.338482)scale(0.24 -0.24)">
       <use xlink:href="#STIXGeneral-Regular-51"/>
      </g>
     </g>
    </g>
    <g id="text_19">
     <!-- $C_D$ -->
     <g transform="translate(41.75125 525.497143)rotate(-90)scale(0.24 -0.24)">
      <defs>
       <path d="M 13.09375 65.296875 
L 40.796875 65.296875 
Q 54.203125 65.296875 62.09375 58.296875 
Q 70 51.296875 70 38.40625 
Q 70 20.703125 54 8.296875 
Q 43.40625 0 24.90625 0 
L -0.796875 0 
L -0.796875 1.59375 
Q 3.5 2.40625 4.84375 3.59375 
Q 6.203125 4.796875 7.40625 9.203125 
L 19.59375 53.703125 
Q 20.703125 57.59375 20.703125 59.59375 
Q 20.703125 61.703125 19.09375 62.640625 
Q 17.5 63.59375 13.09375 63.703125 
z
M 31 58.40625 
L 19.203125 16.203125 
Q 17 8.203125 17 6.703125 
Q 17 3 23.796875 3 
Q 38.59375 3 47.90625 12 
Q 53.09375 17 56 24.953125 
Q 58.90625 32.90625 58.90625 40.796875 
Q 58.90625 52.90625 51.09375 58.796875 
Q 46.40625 62.296875 38 62.296875 
Q 34.796875 62.296875 33.25 61.546875 
Q 31.703125 60.796875 31 58.40625 
z
" id="STIXGeneral-Italic-68"/>
      </defs>
      <use transform="translate(0 0.40625)" xlink:href="#STIXGeneral-Italic-67"/>
      <use transform="translate(66.699997 -12.821875)scale(0.7)" xlink:href="#STIXGeneral-Italic-68"/>
     </g>
    </g>
   </g>
   <g id="line2d_28">
    <path clip-path="url(#pc047ca995f)" d="M 87.150971 721 
L 87.610811 605.193441 
L 88.216216 525.402214 
L 88.518919 506.651911 
L 88.821622 497.24684 
L 89.124324 493.623271 
L 89.427027 492.217473 
L 91.243243 481.049834 
L 92.454054 475.622259 
L 93.664865 470.948695 
L 94.875676 467.614042 
L 95.783784 466.73061 
L 96.691892 465.134872 
L 97.297297 463.057951 
L 98.508108 461.408846 
L 99.113514 460.860821 
L 99.416216 460.387306 
L 99.718919 460.132473 
L 100.324324 460.718299 
L 100.627027 460.600393 
L 102.140541 458.990827 
L 103.351351 458.476919 
L 104.259459 458.212717 
L 104.864865 458.003148 
L 106.681081 457.972876 
L 107.286486 458.193336 
L 107.891892 458.457549 
L 109.708108 458.908476 
L 112.12973 459.516974 
L 113.340541 459.487847 
L 117.275676 459.744027 
L 119.091892 459.577879 
L 120.908108 459.191622 
L 122.421622 458.798759 
L 122.724324 458.500463 
L 123.32973 457.09287 
L 123.632432 456.948592 
L 123.935135 456.928969 
L 124.237838 456.75178 
L 124.540541 456.790796 
L 125.145946 457.609594 
L 125.448649 457.440796 
L 126.054054 456.84506 
L 126.962162 456.209588 
L 129.686486 454.021453 
L 132.410811 451.582164 
L 133.621622 450.258746 
L 135.135135 448.674232 
L 135.740541 447.976907 
L 136.345946 447.595518 
L 136.951351 447.211214 
L 138.464865 445.792986 
L 139.07027 444.641044 
L 139.675676 444.105569 
L 140.886486 443.32791 
L 141.491892 443.395751 
L 142.097297 442.82908 
L 143.005405 441.857312 
L 144.518919 440.952216 
L 146.940541 439.536368 
L 147.848649 439.209396 
L 149.967568 438.781475 
L 150.572973 438.748649 
L 151.178378 438.708057 
L 151.783784 438.300792 
L 152.389189 438.334004 
L 153.6 438.643251 
L 154.810811 439.184493 
L 156.021622 439.936537 
L 157.535135 441.174636 
L 159.048649 442.754291 
L 160.562162 444.687145 
L 162.378378 447.353244 
L 162.681081 447.394212 
L 163.286486 446.749968 
L 163.891892 446.638654 
L 165.102703 446.492612 
L 171.459459 445.653483 
L 182.962162 444.492925 
L 191.740541 443.467638 
L 199.308108 442.371832 
L 208.389189 440.822726 
L 231.394595 436.770396 
L 238.962162 435.651942 
L 245.621622 434.876438 
L 252.583784 434.29745 
L 259.848649 433.930456 
L 268.324324 433.747731 
L 276.497297 433.764136 
L 277.708108 433.896214 
L 287.697297 434.377436 
L 289.816216 434.623287 
L 291.935135 434.629581 
L 295.567568 434.537847 
L 303.437838 434.503803 
L 307.675676 434.472282 
L 314.032432 434.791048 
L 314.940541 435.297624 
L 317.362162 436.488341 
L 320.691892 438.341987 
L 324.92973 440.963108 
L 328.562162 443.484967 
L 332.194595 446.325288 
L 335.524324 449.231967 
L 337.945946 451.701038 
L 340.67027 454.845671 
L 342.486486 457.237971 
L 344.908108 460.875939 
L 347.32973 465.128075 
L 349.448649 469.435629 
L 351.567568 474.384443 
L 353.383784 479.173566 
L 355.502703 485.457591 
L 357.621622 492.541444 
L 359.740541 500.449519 
L 361.859459 509.18454 
L 364.281081 520.166542 
L 367.005405 533.69331 
L 370.032432 549.914242 
L 375.481081 580.577451 
L 378.810811 599.467805 
L 382.443243 619.118393 
L 385.167568 632.572773 
L 386.983784 640.790123 
L 387.286486 643.323473 
L 387.589189 643.394638 
L 387.891892 640.051429 
L 388.194595 645.740683 
L 388.497297 663.914703 
L 388.8 648.188754 
L 388.8 648.188754 
" style="fill:none;stroke:#1f77b4;stroke-linecap:square;stroke-width:4;"/>
   </g>
   <g id="line2d_29">
    <path clip-path="url(#pc047ca995f)" d="M 86.4 635.044152 
L 87.005405 494.000722 
L 87.308108 478.941919 
L 87.610811 491.881303 
L 87.913514 494.502267 
L 88.216216 489.667773 
L 88.518919 487.613778 
L 88.821622 487.579586 
L 89.124324 486.843465 
L 90.032432 483.496419 
L 91.545946 479.105596 
L 92.454054 476.758455 
L 94.27027 472.286391 
L 95.783784 469.023414 
L 97.297297 466.149906 
L 98.810811 463.710455 
L 100.324324 461.640165 
L 102.140541 459.592363 
L 103.654054 458.263198 
L 105.167568 457.182649 
L 105.47027 457.104597 
L 105.772973 456.785604 
L 106.378378 455.328734 
L 106.681081 455.072219 
L 107.286486 454.977037 
L 109.405405 454.185805 
L 110.010811 455.168103 
L 110.313514 455.15871 
L 110.918919 454.831437 
L 112.12973 454.55318 
L 114.551351 453.954063 
L 115.156757 453.978448 
L 116.367568 453.813832 
L 117.881081 453.825352 
L 119.697297 454.124205 
L 120.908108 454.499 
L 121.513514 455.550776 
L 122.118919 455.819441 
L 123.632432 456.51254 
L 125.751351 457.548075 
L 126.356757 457.246622 
L 126.962162 457.383381 
L 131.805405 458.983857 
L 133.924324 459.381649 
L 134.52973 459.305814 
L 135.437838 459.059152 
L 138.464865 458.562172 
L 139.978378 458.011576 
L 141.189189 457.344937 
L 143.610811 455.530095 
L 145.124324 454.045092 
L 146.940541 451.893414 
L 148.756757 449.558182 
L 149.362162 448.487639 
L 149.967568 448.094101 
L 152.994595 444.048464 
L 154.508108 442.365721 
L 156.021622 441.011128 
L 157.535135 439.857122 
L 158.745946 439.363287 
L 159.654054 439.216785 
L 160.562162 439.268085 
L 161.47027 439.523592 
L 162.378378 439.857333 
L 162.681081 439.583486 
L 163.589189 437.940662 
L 167.221622 434.616969 
L 169.037838 433.34589 
L 170.854054 432.340852 
L 172.67027 431.578344 
L 174.789189 430.957758 
L 176.908108 430.588954 
L 179.32973 430.420715 
L 185.989189 430.391758 
L 206.875676 432.43033 
L 211.718919 433.285879 
L 220.194595 434.903484 
L 223.221622 435.265943 
L 226.854054 435.466673 
L 231.697297 435.426407 
L 247.135135 434.940324 
L 253.491892 435.037927 
L 260.454054 435.339971 
L 263.178378 435.59292 
L 271.351351 436.322028 
L 281.945946 437.305312 
L 287.091892 437.956538 
L 288.302703 438.087678 
L 293.145946 438.191965 
L 294.356757 438.192649 
L 298.897297 438.429064 
L 312.821622 439.406945 
L 313.427027 439.268693 
L 314.032432 439.477009 
L 314.940541 440.011584 
L 317.059459 441.183617 
L 321.6 444.03026 
L 326.745946 447.57954 
L 331.286486 450.992668 
L 334.918919 454.040017 
L 337.945946 456.914026 
L 340.67027 459.873295 
L 342.486486 462.106088 
L 344.908108 465.520866 
L 345.513514 466.207417 
L 345.816216 466.407607 
L 346.421622 467.276762 
L 348.540541 470.896172 
L 350.659459 475.096109 
L 353.081081 480.531623 
L 354.594595 484.401991 
L 356.713514 490.441217 
L 358.52973 496.185585 
L 360.951351 504.84685 
L 363.372973 514.448263 
L 365.794595 524.995058 
L 368.518919 537.846545 
L 371.545946 553.05025 
L 382.140541 607.532185 
L 384.259459 617.13725 
L 386.075676 625.105114 
L 386.983784 628.742576 
L 387.286486 630.999806 
L 387.589189 631.175784 
L 387.891892 628.500101 
L 388.194595 633.527781 
L 388.497297 649.143517 
L 388.8 635.834903 
L 388.8 635.834903 
" style="fill:none;stroke:#ff7f0e;stroke-linecap:square;stroke-width:4;"/>
   </g>
   <g id="line2d_30">
    <path clip-path="url(#pc047ca995f)" d="M 86.4 167.035599 
L 86.702703 246.506504 
L 87.005405 294.58464 
L 87.913514 503.155072 
L 88.216216 529.979844 
L 88.518919 546.676152 
L 88.821622 556.047031 
L 89.124324 558.93448 
L 89.427027 559.066724 
L 89.72973 559.926458 
L 90.335135 562.350493 
L 91.848649 565.884476 
L 93.059459 567.765364 
L 93.664865 568.478612 
L 94.572973 569.024641 
L 94.875676 569.021114 
L 95.783784 568.007089 
L 96.389189 567.741004 
L 96.691892 567.836473 
L 97.297297 568.80624 
L 97.6 568.717268 
L 97.902703 568.471341 
L 98.508108 568.468314 
L 99.113514 568.124266 
L 99.416216 568.163913 
L 99.718919 567.99896 
L 100.324324 566.636152 
L 100.627027 566.385467 
L 102.443243 566.17766 
L 103.351351 565.739774 
L 104.259459 565.312722 
L 104.864865 565.05172 
L 105.772973 564.546597 
L 106.378378 563.069536 
L 106.681081 562.813628 
L 106.983784 562.728051 
L 108.497297 561.714237 
L 109.405405 561.076676 
L 110.010811 561.886039 
L 110.313514 561.787863 
L 110.918919 561.289654 
L 112.432432 560.699368 
L 113.643243 560.4256 
L 114.248649 560.076773 
L 115.459459 559.952943 
L 116.67027 559.760609 
L 117.881081 559.823074 
L 119.091892 560.11417 
L 120.605405 560.714897 
L 120.908108 561.021664 
L 121.513514 562.267049 
L 121.816216 562.602722 
L 122.421622 562.852339 
L 122.724324 563.301472 
L 123.32973 564.995006 
L 124.237838 565.779972 
L 124.540541 565.88829 
L 125.145946 565.37336 
L 125.751351 566.181072 
L 126.659459 566.538677 
L 132.713514 573.681441 
L 133.924324 575.138088 
L 134.52973 575.639812 
L 135.135135 576.157989 
L 135.740541 576.756446 
L 136.345946 577.070907 
L 136.951351 577.375497 
L 138.464865 578.483472 
L 139.07027 579.444067 
L 139.675676 579.752531 
L 140.583784 580.019119 
L 140.886486 579.936612 
L 141.491892 579.45294 
L 141.794595 579.477136 
L 142.702703 579.860813 
L 143.308108 579.848697 
L 146.032432 578.684866 
L 146.940541 578.071332 
L 148.454054 576.675165 
L 149.059459 575.749946 
L 149.362162 575.339538 
L 149.967568 575.026912 
L 151.481081 573.220578 
L 151.783784 573.012622 
L 152.389189 572.218056 
L 159.956757 561.054932 
L 162.075676 558.542553 
L 163.891892 556.727967 
L 165.708108 555.205384 
L 167.524324 553.959084 
L 169.340541 552.971239 
L 171.156757 552.224681 
L 172.972973 551.698362 
L 174.789189 551.369092 
L 176.908108 551.209336 
L 179.027027 551.256907 
L 181.448649 551.51914 
L 182.054054 551.581064 
L 182.962162 551.470704 
L 184.778378 551.708078 
L 188.410811 552.465841 
L 203.243243 555.958918 
L 207.178378 557.150378 
L 211.416216 558.674341 
L 221.102703 562.306383 
L 230.183784 564.210614 
L 235.027027 564.801937 
L 245.318919 565.756663 
L 263.783784 567.547909 
L 270.140541 568.197446 
L 276.497297 568.690063 
L 277.708108 568.653231 
L 281.340541 568.923593 
L 287.394595 569.405601 
L 289.816216 569.230323 
L 299.502703 569.576871 
L 302.52973 569.747102 
L 303.437838 569.945183 
L 307.978378 570.308731 
L 311.308108 570.519067 
L 312.821622 570.562906 
L 313.72973 570.399078 
L 316.151351 570.503783 
L 325.232432 571.057036 
L 335.524324 571.070893 
L 342.486486 570.582403 
L 345.210811 570.294064 
L 346.118919 569.577352 
L 349.751351 568.833673 
L 352.778378 568.05348 
L 353.686486 567.718575 
L 356.713514 566.753668 
L 365.491892 563.30591 
L 370.637838 560.842202 
L 372.151351 560.131627 
L 373.362162 559.698084 
L 374.875676 559.009983 
L 376.994595 558.005301 
L 377.297297 557.765181 
L 378.205405 557.525318 
L 378.810811 557.156013 
L 383.351351 555.229689 
L 384.259459 554.617166 
L 385.772973 554.120063 
L 386.378378 553.826596 
L 386.983784 553.666738 
L 387.286486 553.390619 
L 387.589189 553.495432 
L 387.891892 554.162958 
L 388.194595 553.501384 
L 388.497297 550.9431 
L 388.8 553.360434 
L 388.8 553.360434 
" style="fill:none;stroke:#2ca02c;stroke-linecap:square;stroke-width:4;"/>
   </g>
   <g id="line2d_31">
    <path clip-path="url(#pc047ca995f)" d="M 86.4 565.714286 
L 388.8 565.714286 
" style="fill:none;stroke:#000000;stroke-dasharray:3.2,0.8,0.5,0.8;stroke-dashoffset:0;stroke-width:0.5;"/>
   </g>
   <g id="line2d_32">
    <path clip-path="url(#pc047ca995f)" d="M 388.8 648 
L 388.8 373.714286 
" style="fill:none;stroke:#000000;stroke-dasharray:3.2,0.8,0.5,0.8;stroke-dashoffset:0;stroke-width:0.5;"/>
   </g>
   <g id="patch_8">
    <path d="M 86.4 648 
L 86.4 373.714286 
" style="fill:none;stroke:#000000;stroke-linecap:square;stroke-linejoin:miter;stroke-width:0.8;"/>
   </g>
   <g id="patch_9">
    <path d="M 388.8 648 
L 388.8 373.714286 
" style="fill:none;stroke:#000000;stroke-linecap:square;stroke-linejoin:miter;stroke-width:0.8;"/>
   </g>
   <g id="patch_10">
    <path d="M 86.4 648 
L 388.8 648 
" style="fill:none;stroke:#000000;stroke-linecap:square;stroke-linejoin:miter;stroke-width:0.8;"/>
   </g>
   <g id="patch_11">
    <path d="M 86.4 373.714286 
L 388.8 373.714286 
" style="fill:none;stroke:#000000;stroke-linecap:square;stroke-linejoin:miter;stroke-width:0.8;"/>
   </g>
  </g>
 </g>
 <defs>
  <clipPath id="p9c2b474088">
   <rect height="274.285714" width="302.4" x="86.4" y="72"/>
  </clipPath>
  <clipPath id="pc047ca995f">
   <rect height="274.285714" width="302.4" x="86.4" y="373.714286"/>
  </clipPath>
 </defs>
</svg>
