<?xml version="1.0" encoding="utf-8" standalone="no"?>
<!DOCTYPE svg PUBLIC "-//W3C//DTD SVG 1.1//EN"
  "http://www.w3.org/Graphics/SVG/1.1/DTD/svg11.dtd">
<!-- Created with matplotlib (https://matplotlib.org/) -->
<svg height="720pt" version="1.1" viewBox="0 0 432 720" width="432pt" xmlns="http://www.w3.org/2000/svg" xmlns:xlink="http://www.w3.org/1999/xlink">
 <metadata>
  <rdf:RDF xmlns:cc="http://creativecommons.org/ns#" xmlns:dc="http://purl.org/dc/elements/1.1/" xmlns:rdf="http://www.w3.org/1999/02/22-rdf-syntax-ns#">
   <cc:Work>
    <dc:type rdf:resource="http://purl.org/dc/dcmitype/StillImage"/>
    <dc:date>2022-05-03T18:50:50.593112</dc:date>
    <dc:format>image/svg+xml</dc:format>
    <dc:creator>
     <cc:Agent>
      <dc:title>Matplotlib v3.3.4, https://matplotlib.org/</dc:title>
     </cc:Agent>
    </dc:creator>
   </cc:Work>
  </rdf:RDF>
 </metadata>
 <defs>
  <style type="text/css">*{stroke-linecap:butt;stroke-linejoin:round;}</style>
 </defs>
 <g id="figure_1">
  <g id="patch_1">
   <path d="M 0 720 
L 432 720 
L 432 0 
L 0 0 
z
" style="fill:#ffffff;"/>
  </g>
  <g id="axes_1">
   <g id="patch_2">
    <path d="M 86.4 346.285714 
L 388.8 346.285714 
L 388.8 72 
L 86.4 72 
z
" style="fill:#ffffff;"/>
   </g>
   <g id="matplotlib.axis_1">
    <g id="xtick_1">
     <g id="line2d_1">
      <defs>
       <path d="M 0 0 
L 0 3.5 
" id="m4e817601d0" style="stroke:#000000;stroke-width:0.8;"/>
      </defs>
      <g>
       <use style="fill:#ffffff;stroke:#000000;stroke-width:0.8;" x="86.4" xlink:href="#m4e817601d0" y="346.285714"/>
      </g>
     </g>
    </g>
    <g id="xtick_2">
     <g id="line2d_2">
      <g>
       <use style="fill:#ffffff;stroke:#000000;stroke-width:0.8;" x="207.36" xlink:href="#m4e817601d0" y="346.285714"/>
      </g>
     </g>
    </g>
    <g id="xtick_3">
     <g id="line2d_3">
      <g>
       <use style="fill:#ffffff;stroke:#000000;stroke-width:0.8;" x="328.32" xlink:href="#m4e817601d0" y="346.285714"/>
      </g>
     </g>
    </g>
   </g>
   <g id="matplotlib.axis_2">
    <g id="ytick_1">
     <g id="line2d_4">
      <defs>
       <path d="M 0 0 
L -3.5 0 
" id="m3bba09a1da" style="stroke:#000000;stroke-width:0.8;"/>
      </defs>
      <g>
       <use style="fill:#ffffff;stroke:#000000;stroke-width:0.8;" x="86.4" xlink:href="#m3bba09a1da" y="318.857143"/>
      </g>
     </g>
     <g id="text_1">
      <!-- −1 -->
      <g transform="translate(50.96 327.052768)scale(0.24 -0.24)">
       <defs>
        <path d="M 62.09375 22 
L 6.40625 22 
L 6.40625 28.59375 
L 62.09375 28.59375 
z
" id="STIXGeneral-Regular-8722"/>
        <path d="M 39.40625 0 
L 11.796875 0 
L 11.796875 1.5 
Q 17.296875 1.796875 19.296875 3.546875 
Q 21.296875 5.296875 21.296875 9.5 
L 21.296875 54.40625 
Q 21.296875 59.296875 18.296875 59.296875 
Q 16.90625 59.296875 13.796875 58.09375 
L 11.09375 57.09375 
L 11.09375 58.5 
L 29 67.59375 
L 29.90625 67.296875 
L 29.90625 7.59375 
Q 29.90625 4.296875 31.90625 2.890625 
Q 33.90625 1.5 39.40625 1.5 
z
" id="STIXGeneral-Regular-49"/>
       </defs>
       <use xlink:href="#STIXGeneral-Regular-8722"/>
       <use x="68.499985" xlink:href="#STIXGeneral-Regular-49"/>
      </g>
     </g>
    </g>
    <g id="ytick_2">
     <g id="line2d_5">
      <g>
       <use style="fill:#ffffff;stroke:#000000;stroke-width:0.8;" x="86.4" xlink:href="#m3bba09a1da" y="264"/>
      </g>
     </g>
     <g id="text_2">
      <!-- 0 -->
      <g transform="translate(67.4 272.195625)scale(0.24 -0.24)">
       <defs>
        <path d="M 47.59375 33 
Q 47.59375 26.296875 46.296875 20.34375 
Q 45 14.40625 42.453125 9.40625 
Q 39.90625 4.40625 35.40625 1.5 
Q 30.90625 -1.40625 25 -1.40625 
Q 18.90625 -1.40625 14.296875 1.6875 
Q 9.703125 4.796875 7.203125 10 
Q 4.703125 15.203125 3.546875 21.09375 
Q 2.40625 27 2.40625 33.59375 
Q 2.40625 42.90625 4.703125 50.34375 
Q 7 57.796875 12.34375 62.6875 
Q 17.703125 67.59375 25.40625 67.59375 
Q 35.203125 67.59375 41.390625 58 
Q 47.59375 48.40625 47.59375 33 
z
M 38 32.5 
Q 38 48.296875 34.640625 56.640625 
Q 31.296875 65 24.796875 65 
Q 18.59375 65 15.296875 56.59375 
Q 12 48.203125 12 32.90625 
Q 12 17.5 15.296875 9.34375 
Q 18.59375 1.203125 25 1.203125 
Q 31.296875 1.203125 34.640625 9.34375 
Q 38 17.5 38 32.5 
z
" id="STIXGeneral-Regular-48"/>
       </defs>
       <use xlink:href="#STIXGeneral-Regular-48"/>
      </g>
     </g>
    </g>
    <g id="ytick_3">
     <g id="line2d_6">
      <g>
       <use style="fill:#ffffff;stroke:#000000;stroke-width:0.8;" x="86.4" xlink:href="#m3bba09a1da" y="209.142857"/>
      </g>
     </g>
     <g id="text_3">
      <!-- 1 -->
      <g transform="translate(67.4 217.338482)scale(0.24 -0.24)">
       <use xlink:href="#STIXGeneral-Regular-49"/>
      </g>
     </g>
    </g>
    <g id="ytick_4">
     <g id="line2d_7">
      <g>
       <use style="fill:#ffffff;stroke:#000000;stroke-width:0.8;" x="86.4" xlink:href="#m3bba09a1da" y="154.285714"/>
      </g>
     </g>
     <g id="text_4">
      <!-- 2 -->
      <g transform="translate(67.4 162.481339)scale(0.24 -0.24)">
       <defs>
        <path d="M 47.40625 13.703125 
L 42 0 
L 2.90625 0 
L 2.90625 1.203125 
L 20.703125 20.09375 
Q 27.703125 27.40625 30.703125 33.5 
Q 33.703125 39.59375 33.703125 46.09375 
Q 33.703125 52.796875 30 56.5 
Q 26.296875 60.203125 19.796875 60.203125 
Q 14.40625 60.203125 11.25 57.390625 
Q 8.09375 54.59375 5.09375 47.203125 
L 3 47.703125 
Q 4.703125 57 9.84375 62.296875 
Q 15 67.59375 23.796875 67.59375 
Q 32.09375 67.59375 37.1875 62.59375 
Q 42.296875 57.59375 42.296875 50 
Q 42.296875 38.703125 29.5 25.203125 
L 13 7.59375 
L 36.40625 7.59375 
Q 39.703125 7.59375 41.640625 8.890625 
Q 43.59375 10.203125 46 14.296875 
z
" id="STIXGeneral-Regular-50"/>
       </defs>
       <use xlink:href="#STIXGeneral-Regular-50"/>
      </g>
     </g>
    </g>
    <g id="ytick_5">
     <g id="line2d_8">
      <g>
       <use style="fill:#ffffff;stroke:#000000;stroke-width:0.8;" x="86.4" xlink:href="#m3bba09a1da" y="99.428571"/>
      </g>
     </g>
     <g id="text_5">
      <!-- 3 -->
      <g transform="translate(67.4 107.624196)scale(0.24 -0.24)">
       <defs>
        <path d="M 6.09375 51 
L 4.5 51.40625 
Q 6.796875 58.90625 11.6875 63.25 
Q 16.59375 67.59375 24.09375 67.59375 
Q 31.09375 67.59375 35.390625 63.796875 
Q 39.703125 60 39.703125 53.90625 
Q 39.703125 45.703125 30.40625 40.09375 
Q 35.90625 37.703125 38.703125 34.796875 
Q 43.09375 29.90625 43.09375 21.90625 
Q 43.09375 13.90625 38.5 7.90625 
Q 35.09375 3.296875 28.75 0.9375 
Q 22.40625 -1.40625 15.296875 -1.40625 
Q 4.09375 -1.40625 4.09375 4.296875 
Q 4.09375 5.90625 5.296875 6.90625 
Q 6.5 7.90625 8.203125 7.90625 
Q 10.703125 7.90625 14.296875 5.296875 
Q 18.703125 2.203125 22.90625 2.203125 
Q 28.40625 2.203125 32.15625 6.640625 
Q 35.90625 11.09375 35.90625 17.5 
Q 35.90625 29 25.5 32 
Q 22.40625 33 15.296875 33 
L 15.296875 34.40625 
Q 20.90625 36.296875 23.703125 38 
Q 31.796875 42.59375 31.796875 51.40625 
Q 31.796875 56.40625 28.9375 59 
Q 26.09375 61.59375 21 61.59375 
Q 12 61.59375 6.09375 51 
z
" id="STIXGeneral-Regular-51"/>
       </defs>
       <use xlink:href="#STIXGeneral-Regular-51"/>
      </g>
     </g>
    </g>
    <g id="text_6">
     <!-- $C_L$ -->
     <g transform="translate(41.75125 222.462857)rotate(-90)scale(0.24 -0.24)">
      <defs>
       <path d="M 68.90625 66.40625 
L 65.203125 46.40625 
L 63.40625 46.703125 
Q 61.59375 63 48.5 63 
Q 37.59375 63 28.59375 53.296875 
Q 23.296875 47.703125 20.546875 39.703125 
Q 17.796875 31.703125 17.796875 23.203125 
Q 17.796875 2.703125 35.296875 2.703125 
Q 41.5 2.703125 46.640625 5.296875 
Q 51.796875 7.90625 58.203125 14.59375 
L 60 13.09375 
Q 53.296875 5.203125 46.84375 1.703125 
Q 40.40625 -1.796875 32.703125 -1.796875 
Q 21 -1.796875 13.796875 5.140625 
Q 6.59375 12.09375 6.59375 24.296875 
Q 6.59375 34.59375 11.6875 43.9375 
Q 16.796875 53.296875 25.296875 59.296875 
Q 35.5 66.59375 47.203125 66.59375 
Q 54.09375 66.59375 58.90625 64.90625 
Q 60.90625 64.203125 63 64.203125 
Q 65.703125 64.203125 66.796875 66.40625 
z
" id="STIXGeneral-Italic-67"/>
       <path d="M 55.90625 18 
L 50.09375 0 
L -0.796875 0 
L -0.796875 1.59375 
Q 3.40625 2 4.703125 3.296875 
Q 6 4.59375 7.40625 9.40625 
L 19.59375 53.203125 
Q 20.703125 56.90625 20.703125 59.40625 
Q 20.703125 61.59375 19.140625 62.5 
Q 17.59375 63.40625 13 63.703125 
L 13 65.296875 
L 40.296875 65.296875 
L 40.296875 63.703125 
Q 35.703125 63.40625 33.546875 61.796875 
Q 31.40625 60.203125 30.203125 56 
L 18.203125 13.09375 
Q 17.203125 9.296875 17.203125 7.703125 
Q 17.203125 5.40625 19.390625 4.5 
Q 21.59375 3.59375 27.703125 3.59375 
Q 35.40625 3.59375 38.75 4.296875 
Q 42.09375 5 45.703125 7.40625 
Q 49.796875 10.09375 53.90625 18.59375 
z
" id="STIXGeneral-Italic-76"/>
      </defs>
      <use transform="translate(0 0.40625)" xlink:href="#STIXGeneral-Italic-67"/>
      <use transform="translate(66.699997 -12.821875)scale(0.7)" xlink:href="#STIXGeneral-Italic-76"/>
     </g>
    </g>
   </g>
   <g id="line2d_9">
    <path clip-path="url(#pb240fb46c5)" d="M 86.4 325.421823 
L 87.005405 308.014911 
L 87.610811 296.395458 
L 88.216216 289.044486 
L 88.821622 284.443018 
L 90.637838 274.590293 
L 93.362162 261.648654 
L 95.783784 251.455551 
L 98.508108 240.975108 
L 100.627027 233.525248 
L 103.351351 224.945584 
L 105.167568 219.727059 
L 108.8 210.693125 
L 113.340541 200.951435 
L 116.064865 195.54565 
L 127.87027 171.666255 
L 135.135135 156.575689 
L 138.767568 149.674698 
L 141.794595 144.520658 
L 143.913514 141.481078 
L 145.72973 139.297088 
L 147.243243 137.82489 
L 148.756757 136.697887 
L 149.967568 136.055804 
L 151.178378 135.668546 
L 152.389189 135.528036 
L 153.6 135.660512 
L 154.810811 136.05869 
L 156.021622 136.742208 
L 157.232432 137.712228 
L 158.443243 138.973961 
L 159.654054 140.528296 
L 161.167568 142.90492 
L 162.075676 144.578076 
L 162.378378 145.286718 
L 162.681081 145.417952 
L 163.286486 144.059196 
L 163.589189 143.765601 
L 164.497297 143.368827 
L 166.918919 142.167428 
L 170.248649 140.782977 
L 191.135135 132.299493 
L 198.4 128.918164 
L 204.454054 125.83128 
L 209.6 123.017842 
L 224.12973 115.015443 
L 228.064865 113.146094 
L 231.394595 111.792635 
L 234.421622 110.78626 
L 237.448649 110.016102 
L 240.172973 109.532657 
L 242.897297 109.251704 
L 245.924324 109.15657 
L 249.254054 109.264212 
L 253.189189 109.652221 
L 256.821622 110.233912 
L 258.940541 110.569577 
L 259.243243 110.499436 
L 260.454054 110.79924 
L 260.756757 110.809804 
L 261.664865 111.135205 
L 264.086486 111.651105 
L 266.205405 112.210206 
L 269.535135 113.250049 
L 274.075676 114.717928 
L 278.616216 115.883666 
L 281.340541 116.2161 
L 284.064865 116.478211 
L 290.118919 117.436206 
L 296.475676 118.420717 
L 298.594595 118.593586 
L 301.016216 118.626825 
L 303.437838 118.472935 
L 304.345946 118.264929 
L 305.254054 118.325854 
L 312.821622 117.24016 
L 316.454054 116.828855 
L 321.297297 116.624519 
L 324.324324 116.970323 
L 325.232432 117.177734 
L 327.048649 117.699583 
L 329.47027 118.795371 
L 331.589189 120.155535 
L 333.102703 121.359659 
L 334.918919 123.1535 
L 336.735135 125.261401 
L 338.551351 127.817559 
L 340.064865 130.24221 
L 341.578378 132.971607 
L 343.394595 136.738445 
L 345.210811 140.986301 
L 347.027027 145.7706 
L 348.843243 151.03991 
L 350.962162 157.845574 
L 353.081081 165.310177 
L 355.502703 174.542446 
L 358.52973 186.919644 
L 368.821622 230.207007 
L 371.243243 238.976504 
L 373.059459 244.812762 
L 374.875676 249.919787 
L 376.389189 253.532543 
L 377.902703 256.534677 
L 379.113514 258.483992 
L 380.324324 260.023491 
L 381.535135 261.149391 
L 382.443243 261.721961 
L 383.351351 262.073716 
L 384.259459 262.200672 
L 385.167568 262.130293 
L 386.075676 261.842562 
L 386.983784 261.348527 
L 388.194595 260.398077 
L 388.8 259.807492 
L 388.8 259.807492 
" style="fill:none;stroke:#1f77b4;stroke-linecap:square;stroke-width:4;"/>
   </g>
   <g id="line2d_10">
    <path clip-path="url(#pb240fb46c5)" d="M 86.4 261.42844 
L 87.913514 260.583704 
L 89.427027 259.481951 
L 91.243243 257.891237 
L 93.664865 255.456612 
L 98.205405 250.359309 
L 100.627027 247.368321 
L 102.745946 244.432678 
L 104.864865 241.032134 
L 106.983784 237.691474 
L 108.194595 236.304533 
L 109.102703 235.622687 
L 110.010811 235.176637 
L 111.221622 234.756603 
L 112.432432 234.517544 
L 114.854054 234.173664 
L 115.459459 233.83393 
L 116.064865 233.176546 
L 116.67027 232.122594 
L 117.275676 230.652621 
L 118.183784 227.627034 
L 121.513514 214.740121 
L 122.724324 211.361904 
L 123.632432 209.636642 
L 124.540541 208.410899 
L 125.448649 207.551833 
L 128.475676 205.170222 
L 129.383784 204.045618 
L 130.594595 202.08225 
L 133.016216 197.45468 
L 136.345946 190.418676 
L 138.767568 184.84359 
L 145.124324 169.762454 
L 146.335135 167.457008 
L 150.572973 161.053809 
L 152.994595 157.858446 
L 155.113514 155.240612 
L 156.92973 153.282786 
L 157.837838 152.639861 
L 158.443243 152.354528 
L 159.048649 152.297769 
L 159.654054 152.406468 
L 160.562162 152.968586 
L 161.167568 153.598 
L 162.378378 155.256177 
L 162.681081 155.124893 
L 163.286486 153.835449 
L 163.589189 153.58313 
L 166.313514 152.973771 
L 170.854054 152.481313 
L 172.367568 151.99815 
L 173.881081 151.233901 
L 176 149.823905 
L 178.724324 147.981674 
L 180.843243 146.805485 
L 182.356757 146.230559 
L 184.172973 145.823853 
L 185.989189 145.666545 
L 190.227027 145.683601 
L 192.648649 146.038946 
L 194.464865 146.476345 
L 201.427027 148.374963 
L 203.545946 148.498509 
L 205.059459 148.38725 
L 212.324324 147.031624 
L 215.048649 146.614663 
L 216.864865 146.064562 
L 218.681081 145.267992 
L 223.524324 143.102755 
L 226.248649 142.229948 
L 229.275676 141.57747 
L 231.091892 141.354561 
L 243.805405 140.676416 
L 248.043243 140.656247 
L 250.767568 140.504463 
L 253.491892 140.126967 
L 256.216216 139.487662 
L 258.637838 138.694334 
L 261.362162 137.539523 
L 264.086486 136.196037 
L 267.113514 134.778371 
L 270.745946 133.366666 
L 274.378378 132.319769 
L 277.405405 131.833188 
L 279.524324 131.660883 
L 281.340541 131.601524 
L 283.459459 131.493551 
L 287.394595 131.145256 
L 289.210811 130.902553 
L 290.724324 130.707779 
L 300.108108 129.21015 
L 300.713514 128.991622 
L 301.924324 129.076289 
L 303.135135 128.796463 
L 304.043243 128.822329 
L 306.162162 128.668522 
L 308.886486 128.600082 
L 313.72973 128.701358 
L 318.27027 129.158198 
L 320.389189 129.454413 
L 323.113514 129.913229 
L 324.92973 130.301414 
L 328.864865 131.519784 
L 330.983784 132.435711 
L 333.102703 133.616408 
L 334.918919 134.900823 
L 336.432432 136.179865 
L 338.248649 138.019427 
L 340.064865 140.23459 
L 341.578378 142.384473 
L 343.091892 144.838768 
L 344.605405 147.594008 
L 346.724324 152.02608 
L 348.540541 156.328899 
L 350.659459 161.953926 
L 352.778378 168.206829 
L 355.2 176.082962 
L 357.621622 184.664116 
L 361.254054 198.474705 
L 369.124324 228.842681 
L 371.545946 237.195266 
L 373.664865 243.718712 
L 375.481081 248.604748 
L 376.994595 252.130349 
L 378.508108 255.116769 
L 379.718919 257.112309 
L 380.92973 258.755337 
L 382.140541 260.051284 
L 383.351351 261.0077 
L 384.562162 261.640662 
L 385.772973 261.95653 
L 386.983784 261.979075 
L 388.194595 261.730089 
L 388.8 261.512483 
L 388.8 261.512483 
" style="fill:none;stroke:#ff7f0e;stroke-linecap:square;stroke-width:4;"/>
   </g>
   <g id="line2d_11">
    <path clip-path="url(#pb240fb46c5)" d="M 86.4 200.006618 
L 87.005405 217.110137 
L 87.610811 228.380093 
L 88.216216 235.337063 
L 88.821622 239.5067 
L 90.335135 246.573949 
L 92.151351 253.866354 
L 94.27027 261.092646 
L 96.389189 267.422452 
L 98.810811 273.784693 
L 100.324324 277.236034 
L 102.140541 280.681337 
L 103.048649 282.147622 
L 104.864865 284.448396 
L 106.378378 286.046975 
L 107.286486 287.053689 
L 109.405405 290.071791 
L 112.12973 295.223174 
L 114.551351 299.836643 
L 115.459459 301.173761 
L 116.064865 301.630896 
L 116.67027 301.790115 
L 117.275676 301.470299 
L 117.881081 300.785948 
L 118.486486 299.656421 
L 120.605405 295.267987 
L 121.816216 293.743441 
L 122.724324 293.129068 
L 123.32973 293.186837 
L 123.935135 293.402328 
L 124.843243 294.191472 
L 125.751351 295.308136 
L 128.778378 299.015863 
L 129.383784 299.594922 
L 130.594595 300.181808 
L 132.713514 300.54387 
L 134.832432 300.526565 
L 136.345946 300.19769 
L 138.464865 299.352623 
L 139.675676 298.682699 
L 139.978378 298.590415 
L 140.281081 298.381627 
L 140.886486 297.636584 
L 142.4 296.467423 
L 143.005405 295.767553 
L 143.610811 295.134695 
L 144.518919 294.407932 
L 145.72973 293.269405 
L 146.637838 292.621088 
L 147.848649 291.737274 
L 148.151351 291.621977 
L 149.362162 290.466613 
L 151.481081 288.202613 
L 152.994595 286.297859 
L 155.113514 283.036544 
L 159.048649 276.581467 
L 159.956757 275.583324 
L 160.864865 274.871288 
L 161.47027 274.590785 
L 161.772973 274.531999 
L 162.075676 274.336758 
L 162.681081 273.706941 
L 163.286486 273.776254 
L 164.8 274.05422 
L 167.221622 274.860152 
L 169.945946 275.745359 
L 171.156757 275.980989 
L 172.367568 276.046436 
L 173.578378 275.944573 
L 175.394595 275.490876 
L 178.724324 274.509006 
L 180.843243 274.165334 
L 182.356757 274.18747 
L 183.87027 274.454433 
L 185.383784 274.888015 
L 187.502703 275.719639 
L 189.318919 276.513464 
L 191.740541 277.835267 
L 196.281081 281.079127 
L 201.124324 284.766368 
L 202.940541 285.85559 
L 205.059459 286.874939 
L 211.416216 289.11294 
L 215.048649 290.664315 
L 216.864865 291.133075 
L 218.378378 291.324887 
L 224.12973 291.872987 
L 227.762162 292.577768 
L 231.394595 293.543238 
L 234.724324 294.436151 
L 237.145946 294.89541 
L 239.567568 295.205992 
L 243.502703 295.461049 
L 247.135135 295.503603 
L 249.556757 295.313129 
L 251.978378 294.859614 
L 254.097297 294.230128 
L 255.913514 293.505128 
L 259.545946 291.746817 
L 260.151351 291.210152 
L 260.756757 291.011188 
L 261.664865 290.268044 
L 264.086486 288.544932 
L 272.259459 282.740775 
L 274.983784 281.208756 
L 276.8 280.394256 
L 278.313514 279.922263 
L 280.735135 279.445776 
L 282.551351 279.214428 
L 287.394595 278.190658 
L 289.210811 277.630624 
L 291.027027 277.057632 
L 292.843243 276.463463 
L 299.502703 274.740659 
L 300.108108 274.57554 
L 300.713514 274.357783 
L 301.924324 274.490837 
L 303.135135 274.263798 
L 304.043243 274.537374 
L 305.859459 274.477744 
L 306.767568 274.580466 
L 307.978378 274.673176 
L 309.491892 274.881292 
L 313.124324 275.493351 
L 320.994595 276.916352 
L 323.718919 277.178792 
L 326.745946 277.185626 
L 328.864865 277.00494 
L 330.681081 276.769778 
L 333.405405 276.170498 
L 339.762162 274.098934 
L 342.183784 273.136592 
L 345.210811 271.820941 
L 349.751351 269.589416 
L 358.52973 265.10694 
L 362.162162 263.495397 
L 364.281081 262.70612 
L 367.610811 261.771474 
L 370.032432 261.350348 
L 373.059459 261.119385 
L 375.481081 261.176497 
L 377.902703 261.455068 
L 380.324324 261.954828 
L 382.443243 262.598846 
L 384.864865 263.571513 
L 386.681081 264.464485 
L 388.8 265.704991 
L 388.8 265.704991 
" style="fill:none;stroke:#2ca02c;stroke-linecap:square;stroke-width:4;"/>
   </g>
   <g id="line2d_12">
    <path clip-path="url(#pb240fb46c5)" d="M 86.4 264 
L 388.8 264 
" style="fill:none;stroke:#000000;stroke-dasharray:3.2,0.8,0.5,0.8;stroke-dashoffset:0;stroke-width:0.5;"/>
   </g>
   <g id="line2d_13">
    <path clip-path="url(#pb240fb46c5)" d="M 388.8 346.285714 
L 388.8 72 
" style="fill:none;stroke:#000000;stroke-dasharray:3.2,0.8,0.5,0.8;stroke-dashoffset:0;stroke-width:0.5;"/>
   </g>
   <g id="patch_3">
    <path d="M 86.4 346.285714 
L 86.4 72 
" style="fill:none;stroke:#000000;stroke-linecap:square;stroke-linejoin:miter;stroke-width:0.8;"/>
   </g>
   <g id="patch_4">
    <path d="M 388.8 346.285714 
L 388.8 72 
" style="fill:none;stroke:#000000;stroke-linecap:square;stroke-linejoin:miter;stroke-width:0.8;"/>
   </g>
   <g id="patch_5">
    <path d="M 86.4 346.285714 
L 388.8 346.285714 
" style="fill:none;stroke:#000000;stroke-linecap:square;stroke-linejoin:miter;stroke-width:0.8;"/>
   </g>
   <g id="patch_6">
    <path d="M 86.4 72 
L 388.8 72 
" style="fill:none;stroke:#000000;stroke-linecap:square;stroke-linejoin:miter;stroke-width:0.8;"/>
   </g>
   <g id="legend_1">
    <g id="line2d_14">
     <path d="M 78.360596 55.847143 
L 118.344596 55.847143 
" style="fill:none;stroke:#1f77b4;stroke-linecap:square;stroke-width:4;"/>
    </g>
    <g id="line2d_15"/>
    <g id="text_7">
     <!-- 1_stroke -->
     <g transform="translate(134.338196 62.844343)scale(0.19992 -0.19992)">
      <defs>
       <path d="M 50 -12.5 
L 0 -12.5 
L 0 -7.5 
L 50 -7.5 
z
" id="STIXGeneral-Regular-95"/>
       <path d="M 15.59375 30.09375 
L 26 23.796875 
Q 31 20.796875 32.890625 18.1875 
Q 34.796875 15.59375 34.796875 11.5 
Q 34.796875 6.5 30.640625 2.75 
Q 26.5 -1 20.796875 -1 
Q 16.09375 -1 13.5 -0.09375 
Q 10.796875 0.796875 8.90625 0.796875 
Q 7.203125 0.796875 6.5 -0.40625 
L 5.203125 -0.40625 
L 5.203125 15.296875 
L 6.796875 15.296875 
Q 8.40625 8 11.40625 4.59375 
Q 14.40625 1.203125 19.5 1.203125 
Q 23.203125 1.203125 25.5 3.296875 
Q 27.796875 5.40625 27.796875 8.59375 
Q 27.796875 13.203125 22.5 16.09375 
L 17.09375 19.09375 
Q 5.09375 25.796875 5.09375 33.59375 
Q 5.09375 39.40625 8.84375 42.65625 
Q 12.59375 45.90625 18.90625 45.90625 
Q 23.296875 45.90625 25.59375 44.796875 
Q 27.40625 44 28.40625 44 
Q 29.09375 44 30 45 
L 31.09375 45 
L 31.59375 31.40625 
L 30.09375 31.40625 
Q 28.40625 38.203125 25.84375 40.953125 
Q 23.296875 43.703125 18.796875 43.703125 
Q 15.40625 43.703125 13.34375 42 
Q 11.296875 40.296875 11.296875 36.90625 
Q 11.296875 35.203125 12.4375 33.25 
Q 13.59375 31.296875 15.59375 30.09375 
z
" id="STIXGeneral-Regular-115"/>
       <path d="M 26.59375 7.703125 
L 27.90625 6.59375 
Q 23.09375 -1 15.796875 -1 
Q 7 -1 7 11.703125 
L 7 41.796875 
L 1.703125 41.796875 
Q 1.296875 42.09375 1.296875 42.5 
Q 1.296875 43.296875 3 44.40625 
Q 6.796875 46.59375 12.703125 55.09375 
Q 12.90625 55.40625 13.65625 56.34375 
Q 14.40625 57.296875 14.703125 57.90625 
Q 15.40625 57.90625 15.40625 56.59375 
L 15.40625 45 
L 25.5 45 
L 25.5 41.796875 
L 15.40625 41.796875 
L 15.40625 13.203125 
Q 15.40625 8.40625 16.59375 6.296875 
Q 17.796875 4.203125 20.59375 4.203125 
Q 23.59375 4.203125 26.59375 7.703125 
z
" id="STIXGeneral-Regular-116"/>
       <path d="M 16 45.796875 
L 16 36.59375 
Q 19.796875 42 22.34375 44 
Q 24.90625 46 28 46 
Q 30.59375 46 32.046875 44.59375 
Q 33.5 43.203125 33.5 40.703125 
Q 33.5 38.59375 32.453125 37.390625 
Q 31.40625 36.203125 29.59375 36.203125 
Q 27.703125 36.203125 25.59375 38.203125 
Q 24 39.703125 23 39.703125 
Q 20.90625 39.703125 18.453125 36.796875 
Q 16 33.90625 16 31.5 
L 16 9 
Q 16 4.703125 17.703125 3.203125 
Q 19.40625 1.703125 24.5 1.5 
L 24.5 0 
L 0.5 0 
L 0.5 1.5 
Q 5.296875 2.40625 6.4375 3.5 
Q 7.59375 4.59375 7.59375 8.40625 
L 7.59375 33.40625 
Q 7.59375 36.703125 6.84375 38.046875 
Q 6.09375 39.40625 4.203125 39.40625 
Q 2.59375 39.40625 0.703125 39 
L 0.703125 40.59375 
Q 7 42.59375 15.5 46 
z
" id="STIXGeneral-Regular-114"/>
       <path d="M 47 23.09375 
Q 47 12.59375 40.75 5.796875 
Q 34.5 -1 24.5 -1 
Q 15.296875 -1 9.09375 5.75 
Q 2.90625 12.5 2.90625 22.796875 
Q 2.90625 33.203125 9.09375 39.59375 
Q 15.296875 46 25.40625 46 
Q 34.703125 46 40.84375 39.640625 
Q 47 33.296875 47 23.09375 
z
M 38 20.40625 
Q 38 31.796875 33 38.203125 
Q 29 43.203125 23.5 43.203125 
Q 18.296875 43.203125 15.09375 38.953125 
Q 11.90625 34.703125 11.90625 27.296875 
Q 11.90625 14.5 17.203125 6.796875 
Q 20.59375 1.796875 26.203125 1.796875 
Q 31.703125 1.796875 34.84375 6.75 
Q 38 11.703125 38 20.40625 
z
" id="STIXGeneral-Regular-111"/>
       <path d="M 50.5 0 
L 28.703125 0 
L 28.703125 1.5 
L 30.59375 1.5 
Q 32.703125 1.5 32.703125 3 
Q 32.703125 3.90625 31.59375 5.296875 
L 16.59375 25.09375 
L 16.59375 6.703125 
Q 16.59375 4.09375 17.84375 2.890625 
Q 19.09375 1.703125 22.09375 1.59375 
L 24.09375 1.5 
L 24.09375 0 
L 0.703125 0 
L 0.703125 1.5 
Q 6.09375 2.40625 7.140625 3.34375 
Q 8.203125 4.296875 8.203125 8.203125 
L 8.203125 56.40625 
Q 8.203125 60 7.296875 61.25 
Q 6.40625 62.5 3.90625 62.5 
Q 3.296875 62.5 0.703125 62.296875 
L 0.703125 63.90625 
L 3.703125 64.703125 
Q 9.703125 66.296875 16.203125 68.296875 
L 16.59375 68.09375 
L 16.59375 26.09375 
L 30.296875 38.296875 
Q 32.59375 40.40625 32.59375 41.796875 
Q 32.59375 42.796875 31.546875 43.140625 
Q 30.5 43.5 27.59375 43.59375 
L 27.59375 45 
L 48 45 
L 48 43.5 
Q 43 43.5 39.140625 41.34375 
Q 35.296875 39.203125 26.40625 30.90625 
L 23.5 28.203125 
L 38.796875 8.796875 
Q 44.203125 1.90625 50.5 1.5 
z
" id="STIXGeneral-Regular-107"/>
       <path d="M 40.796875 16.40625 
L 42.40625 15.703125 
Q 36.40625 -1 21.5 -1 
Q 12.703125 -1 7.59375 5.140625 
Q 2.5 11.296875 2.5 21.703125 
Q 2.5 32.40625 8.203125 39.203125 
Q 13.90625 46 23.203125 46 
Q 32.203125 46 37.09375 39.09375 
Q 40 35.09375 40.5 27.703125 
L 9.703125 27.703125 
Q 10.09375 21.40625 10.9375 18.09375 
Q 11.796875 14.796875 14.296875 11.40625 
Q 18.5 5.90625 25.40625 5.90625 
Q 30.296875 5.90625 33.640625 8.296875 
Q 37 10.703125 40.796875 16.40625 
z
M 9.90625 30.90625 
L 30.296875 30.90625 
Q 29.40625 37.203125 27.34375 39.796875 
Q 25.296875 42.40625 20.5 42.40625 
Q 16.296875 42.40625 13.5 39.453125 
Q 10.703125 36.5 9.90625 30.90625 
z
" id="STIXGeneral-Regular-101"/>
      </defs>
      <use xlink:href="#STIXGeneral-Regular-49"/>
      <use x="49.999985" xlink:href="#STIXGeneral-Regular-95"/>
      <use x="99.999969" xlink:href="#STIXGeneral-Regular-115"/>
      <use x="138.899963" xlink:href="#STIXGeneral-Regular-116"/>
      <use x="166.699951" xlink:href="#STIXGeneral-Regular-114"/>
      <use x="199.999939" xlink:href="#STIXGeneral-Regular-111"/>
      <use x="249.999924" xlink:href="#STIXGeneral-Regular-107"/>
      <use x="299.999908" xlink:href="#STIXGeneral-Regular-101"/>
     </g>
    </g>
    <g id="line2d_16">
     <path d="M 78.360596 84.176432 
L 118.344596 84.176432 
" style="fill:none;stroke:#ff7f0e;stroke-linecap:square;stroke-width:4;"/>
    </g>
    <g id="line2d_17"/>
    <g id="text_8">
     <!-- 5_stroke -->
     <g transform="translate(134.338196 91.173632)scale(0.19992 -0.19992)">
      <defs>
       <path d="M 43.796875 68.09375 
L 40.203125 59.59375 
Q 39.59375 58.296875 37.5 58.296875 
L 18.09375 58.296875 
L 14.09375 49.796875 
Q 25.09375 47.703125 30 45.25 
Q 34.90625 42.796875 39.09375 37 
Q 42.59375 32.203125 42.59375 24.296875 
Q 42.59375 17.09375 40.25 12.1875 
Q 37.90625 7.296875 32.796875 3.5 
Q 26 -1.40625 15.796875 -1.40625 
Q 10.09375 -1.40625 6.59375 0.296875 
Q 3.09375 2 3.09375 4.796875 
Q 3.09375 8.59375 7.59375 8.59375 
Q 11.203125 8.59375 15 5.5 
Q 18.90625 2.296875 22.09375 2.296875 
Q 27.296875 2.296875 31.4375 7.5 
Q 35.59375 12.703125 35.59375 19.203125 
Q 35.59375 28.796875 28.90625 34.203125 
Q 20.203125 41.203125 7.59375 41.203125 
Q 6.40625 41.203125 6.40625 42 
L 6.5 42.5 
L 17.40625 66.203125 
L 38.09375 66.203125 
Q 39.796875 66.203125 40.75 66.703125 
Q 41.703125 67.203125 42.90625 68.796875 
z
" id="STIXGeneral-Regular-53"/>
      </defs>
      <use xlink:href="#STIXGeneral-Regular-53"/>
      <use x="49.999985" xlink:href="#STIXGeneral-Regular-95"/>
      <use x="99.999969" xlink:href="#STIXGeneral-Regular-115"/>
      <use x="138.899963" xlink:href="#STIXGeneral-Regular-116"/>
      <use x="166.699951" xlink:href="#STIXGeneral-Regular-114"/>
      <use x="199.999939" xlink:href="#STIXGeneral-Regular-111"/>
      <use x="249.999924" xlink:href="#STIXGeneral-Regular-107"/>
      <use x="299.999908" xlink:href="#STIXGeneral-Regular-101"/>
     </g>
    </g>
    <g id="line2d_18">
     <path d="M 243.175894 55.847143 
L 283.159894 55.847143 
" style="fill:none;stroke:#2ca02c;stroke-linecap:square;stroke-width:4;"/>
    </g>
    <g id="line2d_19"/>
    <g id="text_9">
     <!-- wake_effect -->
     <g transform="translate(299.153494 62.844343)scale(0.19992 -0.19992)">
      <defs>
       <path d="M 69.40625 45 
L 69.40625 43.5 
Q 67.90625 43 67.203125 42.046875 
Q 66.5 41.09375 65.296875 38.09375 
L 51.5 3.5 
Q 49.5 -1.40625 48.703125 -1.40625 
Q 48.203125 -1.40625 47.84375 -0.75 
Q 47.5 -0.09375 46.296875 2.90625 
L 37.203125 26.5 
L 26 2.5 
Q 24.203125 -1.40625 23.5 -1.40625 
Q 22.59375 -1.40625 20.90625 3 
L 7.40625 37.203125 
Q 5.90625 41.09375 4.90625 42.1875 
Q 3.90625 43.296875 2.09375 43.5 
L 2.09375 45 
L 20.09375 45 
L 20.09375 43.5 
Q 17.5 43.203125 16.5 42.5 
Q 15.5 41.796875 15.5 40.203125 
Q 15.5 38.703125 16.09375 37.203125 
L 26 11.09375 
L 35.09375 31 
L 33.09375 36.59375 
Q 31.703125 40.59375 30.34375 41.890625 
Q 29 43.203125 26.203125 43.5 
L 26.203125 45 
L 46.5 45 
L 46.5 43.5 
Q 43 43 41.84375 42.296875 
Q 40.703125 41.59375 40.703125 40 
Q 40.703125 38.40625 42.40625 34 
L 50.796875 11.59375 
L 59.796875 33.796875 
Q 61.5 38 61.5 40.5 
Q 61.5 41.703125 60.546875 42.34375 
Q 59.59375 43 57.09375 43.5 
L 57.09375 45 
z
" id="STIXGeneral-Regular-119"/>
       <path d="M 44.203125 6.59375 
L 44.203125 3.796875 
Q 40.40625 -1 35.203125 -1 
Q 29.5 -1 28.796875 6.296875 
L 28.703125 6.296875 
Q 22.296875 -1 14.203125 -1 
Q 9.5 -1 6.59375 1.75 
Q 3.703125 4.5 3.703125 9.40625 
Q 3.703125 16.40625 10.703125 21.09375 
Q 15.5 24.296875 28.703125 29.203125 
L 28.703125 34.59375 
Q 28.703125 39.09375 26.546875 41.34375 
Q 24.40625 43.59375 20.90625 43.59375 
Q 17.90625 43.59375 15.90625 42.140625 
Q 13.90625 40.703125 13.90625 38.703125 
Q 13.90625 37.796875 14.203125 36.6875 
Q 14.5 35.59375 14.5 34.5 
Q 14.5 33 13.140625 31.703125 
Q 11.796875 30.40625 9.90625 30.40625 
Q 8.203125 30.40625 6.890625 31.703125 
Q 5.59375 33 5.59375 35 
Q 5.59375 39.796875 10.703125 43 
Q 15.40625 46 22.203125 46 
Q 30.296875 46 34 41.5 
Q 35.796875 39.40625 36.296875 37.25 
Q 36.796875 35.09375 36.796875 30.40625 
L 36.796875 11.296875 
Q 36.796875 4.703125 39.90625 4.703125 
Q 41.90625 4.703125 44.203125 6.59375 
z
M 28.703125 12.703125 
L 28.703125 26.796875 
Q 19.5 23.59375 15.90625 20.203125 
Q 12.5 17.09375 12.5 12.5 
Q 12.5 8.703125 14.390625 6.75 
Q 16.296875 4.796875 19.40625 4.796875 
Q 22.703125 4.796875 25.203125 6.40625 
Q 27.296875 7.90625 28 9.203125 
Q 28.703125 10.5 28.703125 12.703125 
z
" id="STIXGeneral-Regular-97"/>
       <path d="M 2.09375 45 
L 10.296875 45 
Q 10.40625 51 11.09375 54.34375 
Q 11.796875 57.703125 13.796875 61.09375 
Q 18 68.296875 27.90625 68.296875 
Q 32.40625 68.296875 35.34375 66.546875 
Q 38.296875 64.796875 38.296875 62.09375 
Q 38.296875 60.40625 37.09375 59.203125 
Q 35.90625 58 34.09375 58 
Q 31.703125 58 29.59375 61.59375 
Q 27.203125 65.5 24.296875 65.5 
Q 18.703125 65.5 18.703125 56.59375 
L 18.703125 45 
L 30.90625 45 
L 30.90625 41.796875 
L 18.703125 41.796875 
L 18.703125 10.40625 
Q 18.703125 4.796875 20.296875 3.25 
Q 21.90625 1.703125 28 1.5 
L 28 0 
L 2 0 
L 2 1.5 
Q 7.40625 1.796875 8.84375 3.34375 
Q 10.296875 4.90625 10.296875 10.40625 
L 10.296875 41.796875 
L 2.09375 41.796875 
z
" id="STIXGeneral-Regular-102"/>
       <path d="M 39.796875 15.59375 
L 41.203125 14.703125 
Q 36.90625 6.296875 33 3.203125 
Q 27.90625 -1 21.5 -1 
Q 13.203125 -1 7.84375 5.25 
Q 2.5 11.5 2.5 21.203125 
Q 2.5 33.90625 10.90625 40.90625 
Q 17.09375 46 24.40625 46 
Q 30.703125 46 35.25 42.953125 
Q 39.796875 39.90625 39.796875 35.703125 
Q 39.796875 34 38.390625 32.75 
Q 37 31.5 35.09375 31.5 
Q 31.59375 31.5 30.296875 36.09375 
L 29.703125 38.296875 
Q 28.90625 41.09375 27.703125 42.09375 
Q 26.5 43.09375 23.796875 43.09375 
Q 17.703125 43.09375 13.953125 38.296875 
Q 10.203125 33.5 10.203125 25.703125 
Q 10.203125 17.09375 14.5 11.640625 
Q 18.796875 6.203125 25.703125 6.203125 
Q 30 6.203125 33.09375 8.25 
Q 36.203125 10.296875 39.796875 15.59375 
z
" id="STIXGeneral-Regular-99"/>
      </defs>
      <use xlink:href="#STIXGeneral-Regular-119"/>
      <use x="72.199982" xlink:href="#STIXGeneral-Regular-97"/>
      <use x="116.599976" xlink:href="#STIXGeneral-Regular-107"/>
      <use x="166.59996" xlink:href="#STIXGeneral-Regular-101"/>
      <use x="210.999954" xlink:href="#STIXGeneral-Regular-95"/>
      <use x="260.999939" xlink:href="#STIXGeneral-Regular-101"/>
      <use x="305.399933" xlink:href="#STIXGeneral-Regular-102"/>
      <use x="338.699921" xlink:href="#STIXGeneral-Regular-102"/>
      <use x="371.999908" xlink:href="#STIXGeneral-Regular-101"/>
      <use x="416.399902" xlink:href="#STIXGeneral-Regular-99"/>
      <use x="460.799896" xlink:href="#STIXGeneral-Regular-116"/>
     </g>
    </g>
   </g>
  </g>
  <g id="axes_2">
   <g id="patch_7">
    <path d="M 86.4 648 
L 388.8 648 
L 388.8 373.714286 
L 86.4 373.714286 
z
" style="fill:#ffffff;"/>
   </g>
   <g id="matplotlib.axis_3">
    <g id="xtick_4">
     <g id="line2d_20">
      <g>
       <use style="fill:#ffffff;stroke:#000000;stroke-width:0.8;" x="86.4" xlink:href="#m4e817601d0" y="648"/>
      </g>
     </g>
     <g id="text_10">
      <!-- 0.0 -->
      <g transform="translate(71.4 671.39125)scale(0.24 -0.24)">
       <defs>
        <path d="M 18.09375 4.296875 
Q 18.09375 2.09375 16.4375 0.5 
Q 14.796875 -1.09375 12.5 -1.09375 
Q 10.203125 -1.09375 8.59375 0.5 
Q 7 2.09375 7 4.390625 
Q 7 6.703125 8.640625 8.34375 
Q 10.296875 10 12.59375 10 
Q 14.796875 10 16.4375 8.296875 
Q 18.09375 6.59375 18.09375 4.296875 
z
" id="STIXGeneral-Regular-46"/>
       </defs>
       <use xlink:href="#STIXGeneral-Regular-48"/>
       <use x="49.999985" xlink:href="#STIXGeneral-Regular-46"/>
       <use x="74.999969" xlink:href="#STIXGeneral-Regular-48"/>
      </g>
     </g>
    </g>
    <g id="xtick_5">
     <g id="line2d_21">
      <g>
       <use style="fill:#ffffff;stroke:#000000;stroke-width:0.8;" x="207.36" xlink:href="#m4e817601d0" y="648"/>
      </g>
     </g>
     <g id="text_11">
      <!-- 0.2 -->
      <g transform="translate(192.36 671.39125)scale(0.24 -0.24)">
       <use xlink:href="#STIXGeneral-Regular-48"/>
       <use x="49.999985" xlink:href="#STIXGeneral-Regular-46"/>
       <use x="74.999969" xlink:href="#STIXGeneral-Regular-50"/>
      </g>
     </g>
    </g>
    <g id="xtick_6">
     <g id="line2d_22">
      <g>
       <use style="fill:#ffffff;stroke:#000000;stroke-width:0.8;" x="328.32" xlink:href="#m4e817601d0" y="648"/>
      </g>
     </g>
     <g id="text_12">
      <!-- 0.4 -->
      <g transform="translate(313.32 671.39125)scale(0.24 -0.24)">
       <defs>
        <path d="M 47.296875 16.703125 
L 37 16.703125 
L 37 0 
L 29.203125 0 
L 29.203125 16.703125 
L 1.203125 16.703125 
L 1.203125 23.09375 
L 32.59375 67.59375 
L 37 67.59375 
L 37 23.09375 
L 47.296875 23.09375 
z
M 29.203125 23.09375 
L 29.203125 57.40625 
L 5.203125 23.09375 
z
" id="STIXGeneral-Regular-52"/>
       </defs>
       <use xlink:href="#STIXGeneral-Regular-48"/>
       <use x="49.999985" xlink:href="#STIXGeneral-Regular-46"/>
       <use x="74.999969" xlink:href="#STIXGeneral-Regular-52"/>
      </g>
     </g>
    </g>
    <g id="text_13">
     <!-- $\^t$ -->
     <g transform="translate(234.24 696.99125)scale(0.24 -0.24)">
      <defs>
       <path d="M -7.5 50.703125 
L -10.90625 50.703125 
L -23.09375 61 
L -35.203125 50.703125 
L -38.59375 50.703125 
L -26.203125 67.40625 
L -20 67.40625 
z
" id="STIXGeneral-Regular-770"/>
       <path d="M 29.59375 42.796875 
L 29.09375 39.59375 
L 20.703125 39.59375 
L 12 6.796875 
Q 11.796875 6 11.796875 5.40625 
Q 11.796875 3.796875 13.296875 3.796875 
Q 14.5 3.796875 16.09375 5.34375 
Q 17.703125 6.90625 21.40625 11.703125 
L 22.703125 11 
Q 18.09375 4 15.140625 1.453125 
Q 12.203125 -1.09375 8.40625 -1.09375 
Q 3.796875 -1.09375 3.796875 2.59375 
Q 3.796875 3.59375 5.40625 10 
L 13.203125 39.59375 
L 5.703125 39.59375 
L 5.59375 40.203125 
Q 5.59375 42 8.90625 42.703125 
Q 11.40625 43.296875 15.5 46.546875 
Q 19.59375 49.796875 22.203125 53.703125 
Q 22.796875 54.59375 23.59375 54.59375 
Q 24.5 54.59375 24.5 53.796875 
Q 24.5 53.296875 24.40625 53.09375 
L 21.59375 42.796875 
z
" id="STIXGeneral-Italic-116"/>
      </defs>
      <use transform="translate(39.042969 16.59375)" xlink:href="#STIXGeneral-Regular-770"/>
      <use transform="translate(0 0.203125)" xlink:href="#STIXGeneral-Italic-116"/>
     </g>
    </g>
   </g>
   <g id="matplotlib.axis_4">
    <g id="ytick_6">
     <g id="line2d_23">
      <g>
       <use style="fill:#ffffff;stroke:#000000;stroke-width:0.8;" x="86.4" xlink:href="#m3bba09a1da" y="620.571429"/>
      </g>
     </g>
     <g id="text_14">
      <!-- −1 -->
      <g transform="translate(50.96 628.767054)scale(0.24 -0.24)">
       <use xlink:href="#STIXGeneral-Regular-8722"/>
       <use x="68.499985" xlink:href="#STIXGeneral-Regular-49"/>
      </g>
     </g>
    </g>
    <g id="ytick_7">
     <g id="line2d_24">
      <g>
       <use style="fill:#ffffff;stroke:#000000;stroke-width:0.8;" x="86.4" xlink:href="#m3bba09a1da" y="565.714286"/>
      </g>
     </g>
     <g id="text_15">
      <!-- 0 -->
      <g transform="translate(67.4 573.909911)scale(0.24 -0.24)">
       <use xlink:href="#STIXGeneral-Regular-48"/>
      </g>
     </g>
    </g>
    <g id="ytick_8">
     <g id="line2d_25">
      <g>
       <use style="fill:#ffffff;stroke:#000000;stroke-width:0.8;" x="86.4" xlink:href="#m3bba09a1da" y="510.857143"/>
      </g>
     </g>
     <g id="text_16">
      <!-- 1 -->
      <g transform="translate(67.4 519.052768)scale(0.24 -0.24)">
       <use xlink:href="#STIXGeneral-Regular-49"/>
      </g>
     </g>
    </g>
    <g id="ytick_9">
     <g id="line2d_26">
      <g>
       <use style="fill:#ffffff;stroke:#000000;stroke-width:0.8;" x="86.4" xlink:href="#m3bba09a1da" y="456"/>
      </g>
     </g>
     <g id="text_17">
      <!-- 2 -->
      <g transform="translate(67.4 464.195625)scale(0.24 -0.24)">
       <use xlink:href="#STIXGeneral-Regular-50"/>
      </g>
     </g>
    </g>
    <g id="ytick_10">
     <g id="line2d_27">
      <g>
       <use style="fill:#ffffff;stroke:#000000;stroke-width:0.8;" x="86.4" xlink:href="#m3bba09a1da" y="401.142857"/>
      </g>
     </g>
     <g id="text_18">
      <!-- 3 -->
      <g transform="translate(67.4 409.338482)scale(0.24 -0.24)">
       <use xlink:href="#STIXGeneral-Regular-51"/>
      </g>
     </g>
    </g>
    <g id="text_19">
     <!-- $C_D$ -->
     <g transform="translate(41.75125 525.497143)rotate(-90)scale(0.24 -0.24)">
      <defs>
       <path d="M 13.09375 65.296875 
L 40.796875 65.296875 
Q 54.203125 65.296875 62.09375 58.296875 
Q 70 51.296875 70 38.40625 
Q 70 20.703125 54 8.296875 
Q 43.40625 0 24.90625 0 
L -0.796875 0 
L -0.796875 1.59375 
Q 3.5 2.40625 4.84375 3.59375 
Q 6.203125 4.796875 7.40625 9.203125 
L 19.59375 53.703125 
Q 20.703125 57.59375 20.703125 59.59375 
Q 20.703125 61.703125 19.09375 62.640625 
Q 17.5 63.59375 13.09375 63.703125 
z
M 31 58.40625 
L 19.203125 16.203125 
Q 17 8.203125 17 6.703125 
Q 17 3 23.796875 3 
Q 38.59375 3 47.90625 12 
Q 53.09375 17 56 24.953125 
Q 58.90625 32.90625 58.90625 40.796875 
Q 58.90625 52.90625 51.09375 58.796875 
Q 46.40625 62.296875 38 62.296875 
Q 34.796875 62.296875 33.25 61.546875 
Q 31.703125 60.796875 31 58.40625 
z
" id="STIXGeneral-Italic-68"/>
      </defs>
      <use transform="translate(0 0.40625)" xlink:href="#STIXGeneral-Italic-67"/>
      <use transform="translate(66.699997 -12.821875)scale(0.7)" xlink:href="#STIXGeneral-Italic-68"/>
     </g>
    </g>
   </g>
   <g id="line2d_28">
    <path clip-path="url(#pc0090a03c7)" d="M 87.289267 721 
L 87.610811 618.12996 
L 88.216216 508.98599 
L 88.518919 484.579251 
L 88.821622 473.526 
L 89.124324 470.758728 
L 89.427027 471.20993 
L 89.72973 470.891843 
L 90.032432 470.008052 
L 90.335135 469.521065 
L 91.243243 469.251065 
L 93.362162 466.715353 
L 94.572973 464.529023 
L 96.086486 461.421897 
L 97.902703 457.991302 
L 99.416216 455.684401 
L 101.232432 453.619935 
L 101.837838 453.115943 
L 103.956757 451.814384 
L 104.864865 451.538845 
L 105.47027 451.399295 
L 106.075676 451.274965 
L 106.378378 451.183952 
L 107.286486 451.179098 
L 107.891892 451.150921 
L 108.497297 451.140366 
L 109.102703 451.152693 
L 110.616216 451.321987 
L 111.524324 451.413583 
L 112.432432 451.508633 
L 115.156757 451.693558 
L 116.972973 451.524017 
L 118.486486 451.244195 
L 119.697297 450.964538 
L 121.513514 450.392788 
L 125.448649 448.745147 
L 129.081081 446.769306 
L 131.502703 445.232143 
L 133.016216 444.084969 
L 135.740541 442.135003 
L 138.767568 439.880379 
L 139.675676 439.181753 
L 140.281081 438.712529 
L 140.886486 438.546722 
L 142.702703 437.509185 
L 144.821622 436.672241 
L 146.335135 436.308347 
L 147.848649 436.171898 
L 149.059459 436.248601 
L 150.572973 436.602678 
L 152.086486 437.266151 
L 153.297297 438.041076 
L 154.508108 439.034789 
L 156.021622 440.620885 
L 157.232432 442.173887 
L 158.745946 444.484723 
L 160.259459 447.221971 
L 161.772973 450.350088 
L 162.378378 451.957063 
L 162.681081 452.191111 
L 163.286486 451.021779 
L 163.589189 450.828427 
L 164.497297 450.726491 
L 167.221622 450.199833 
L 179.632432 448.149531 
L 185.081081 446.930411 
L 190.227027 445.543072 
L 197.189189 443.439814 
L 202.335135 441.698902 
L 207.481081 439.73682 
L 217.167568 435.641928 
L 225.643243 432.057393 
L 229.881081 430.500296 
L 233.513514 429.409891 
L 236.540541 428.698279 
L 239.567568 428.176377 
L 242.594595 427.858761 
L 245.924324 427.723137 
L 249.556757 427.776715 
L 253.794595 428.073685 
L 258.032432 428.595466 
L 258.940541 428.675146 
L 259.243243 428.625478 
L 260.151351 428.908379 
L 260.756757 428.827617 
L 261.967568 429.079133 
L 264.691892 429.474272 
L 268.92973 430.340784 
L 278.918919 432.432903 
L 285.881081 433.142786 
L 299.2 434.811472 
L 302.227027 434.828043 
L 307.372973 434.467823 
L 320.994595 433.074901 
L 326.443243 432.193411 
L 332.194595 431.06601 
L 338.854054 430.115779 
L 340.367568 430.075626 
L 341.881081 430.181066 
L 343.697297 430.547733 
L 345.210811 431.072184 
L 346.421622 431.666889 
L 348.237838 432.910198 
L 349.751351 434.299879 
L 351.264865 436.081021 
L 352.778378 438.293287 
L 354.291892 440.942881 
L 355.805405 444.094295 
L 357.318919 447.772741 
L 359.135135 452.942159 
L 360.648649 457.888721 
L 362.464865 464.60956 
L 364.583784 473.54487 
L 366.702703 483.627208 
L 368.821622 494.766827 
L 371.243243 508.614228 
L 374.27027 527.172916 
L 383.654054 586.206287 
L 386.378378 601.785911 
L 386.983784 605.115934 
L 387.286486 607.487921 
L 387.589189 608.367056 
L 387.891892 607.200768 
L 388.194595 611.536002 
L 388.497297 623.438175 
L 388.8 614.668018 
L 388.8 614.668018 
" style="fill:none;stroke:#1f77b4;stroke-linecap:square;stroke-width:4;"/>
   </g>
   <g id="line2d_29">
    <path clip-path="url(#pc0090a03c7)" d="M 86.4 591.720749 
L 87.005405 537.398285 
L 87.308108 531.017931 
L 87.610811 535.273691 
L 87.913514 535.610798 
L 88.216216 533.127654 
L 88.518919 531.722606 
L 89.124324 530.233076 
L 90.335135 526.433245 
L 91.848649 522.259633 
L 93.664865 517.945511 
L 95.178378 514.813398 
L 96.994595 511.494513 
L 101.535135 503.826275 
L 103.351351 500.220445 
L 106.681081 493.319039 
L 107.589189 492.020366 
L 108.194595 491.40484 
L 108.8 491.04177 
L 109.405405 490.875674 
L 110.313514 490.972351 
L 111.221622 491.334855 
L 114.248649 492.682996 
L 115.156757 492.754253 
L 115.762162 492.486066 
L 116.67027 491.553717 
L 117.275676 490.523794 
L 117.881081 489.03171 
L 119.091892 485.123111 
L 120.605405 480.255034 
L 122.118919 476.752339 
L 123.027027 475.257085 
L 123.935135 474.281511 
L 124.540541 473.883901 
L 125.448649 473.641655 
L 126.356757 473.68782 
L 127.87027 473.893966 
L 128.778378 473.721968 
L 129.383784 473.431553 
L 130.291892 472.70249 
L 131.502703 471.43737 
L 133.016216 469.598077 
L 135.437838 466.093054 
L 139.07027 460.173706 
L 142.4 454.745917 
L 144.216216 451.973256 
L 146.032432 449.61517 
L 147.545946 448.18196 
L 148.151351 447.978479 
L 150.572973 446.148757 
L 152.389189 445.154933 
L 154.810811 444.190738 
L 156.627027 443.793238 
L 157.535135 443.804466 
L 158.443243 444.037971 
L 159.351351 444.584875 
L 160.259459 445.447572 
L 161.167568 446.623851 
L 162.378378 448.56358 
L 162.681081 448.476461 
L 163.286486 447.256473 
L 163.589189 447.025382 
L 166.313514 446.605409 
L 168.735135 446.694385 
L 171.156757 446.786738 
L 172.67027 446.64611 
L 174.183784 446.269066 
L 176 445.580602 
L 179.027027 444.41302 
L 180.540541 443.971193 
L 182.054054 443.729525 
L 183.87027 443.741795 
L 185.686486 443.973404 
L 190.52973 445.113961 
L 192.648649 445.900144 
L 195.372973 447.104318 
L 199.913514 449.00717 
L 201.72973 449.490324 
L 203.848649 449.804797 
L 206.875676 449.70685 
L 213.232432 449.271979 
L 215.048649 449.154204 
L 216.864865 448.850879 
L 218.378378 448.421345 
L 222.918919 446.984013 
L 225.945946 446.349177 
L 228.67027 446.015973 
L 231.697297 445.933094 
L 243.805405 446.011022 
L 248.951351 446.206628 
L 251.978378 446.156826 
L 254.702703 445.911686 
L 258.940541 445.08937 
L 261.059459 444.479515 
L 264.691892 443.236364 
L 268.021622 442.214058 
L 271.048649 441.441218 
L 277.102703 440.516378 
L 288.302703 440.174002 
L 300.108108 438.971432 
L 300.713514 438.82245 
L 301.924324 438.877441 
L 303.135135 438.728122 
L 304.345946 438.714836 
L 306.464865 438.648632 
L 310.4 438.690215 
L 314.940541 438.995911 
L 317.362162 439.193454 
L 321.6 439.262008 
L 324.324324 439.078877 
L 329.167568 438.259084 
L 335.827027 436.398662 
L 339.459459 435.433941 
L 342.183784 434.980674 
L 344.605405 434.938391 
L 346.421622 435.221262 
L 347.935135 435.682138 
L 349.448649 436.407596 
L 350.659459 437.200758 
L 351.87027 438.206009 
L 353.081081 439.448019 
L 354.291892 440.934582 
L 355.805405 443.195672 
L 357.318919 445.893078 
L 358.832432 449.131708 
L 360.345946 452.901796 
L 361.859459 457.22321 
L 363.675676 463.158821 
L 365.491892 469.909692 
L 367.610811 478.715643 
L 370.032432 489.971488 
L 372.454054 502.205381 
L 375.783784 520.141629 
L 381.535135 551.535201 
L 384.562162 567.017087 
L 387.589189 581.213502 
L 387.891892 581.33134 
L 388.194595 583.883421 
L 388.497297 589.776651 
L 388.8 586.488733 
L 388.8 586.488733 
" style="fill:none;stroke:#ff7f0e;stroke-linecap:square;stroke-width:4;"/>
   </g>
   <g id="line2d_30">
    <path clip-path="url(#pc0090a03c7)" d="M 86.500604 -1 
L 87.005405 261.614603 
L 87.610811 482.858017 
L 87.913514 549.51136 
L 88.216216 589.855949 
L 88.518919 612.85764 
L 88.821622 623.291732 
L 89.124324 625.188634 
L 89.427027 623.688057 
L 89.72973 623.045915 
L 90.032432 623.036412 
L 90.335135 622.626466 
L 91.545946 619.874992 
L 92.151351 618.979929 
L 92.756757 618.087822 
L 93.362162 617.601231 
L 94.27027 617.248521 
L 95.178378 617.209729 
L 97.902703 617.677702 
L 99.113514 617.632383 
L 100.627027 616.925683 
L 101.837838 615.856101 
L 103.654054 613.304071 
L 104.259459 612.217125 
L 105.772973 609.336022 
L 107.589189 606.613464 
L 108.194595 605.937406 
L 109.405405 605.388611 
L 110.616216 605.455689 
L 114.248649 606.806628 
L 115.156757 606.774981 
L 115.762162 606.54679 
L 116.367568 606.065384 
L 116.972973 605.283485 
L 117.578378 604.135864 
L 118.183784 602.55364 
L 120.605405 595.280902 
L 121.816216 592.791818 
L 122.724324 591.45409 
L 123.632432 590.714835 
L 124.237838 590.467841 
L 125.145946 590.498909 
L 126.054054 590.896425 
L 128.778378 592.484678 
L 129.383784 592.553225 
L 130.594595 592.294093 
L 133.016216 591.227394 
L 135.740541 589.195518 
L 138.162162 587.15547 
L 140.583784 584.68321 
L 141.189189 583.971527 
L 142.4 582.797625 
L 143.005405 582.005316 
L 143.610811 581.30803 
L 144.518919 580.492276 
L 145.72973 579.235744 
L 147.545946 577.715873 
L 148.151351 577.519238 
L 149.362162 576.406387 
L 152.994595 572.775663 
L 155.718919 569.394765 
L 158.443243 565.762401 
L 159.956757 564.197028 
L 161.167568 563.255682 
L 162.075676 562.749816 
L 162.681081 561.999636 
L 163.589189 561.91124 
L 164.497297 561.845507 
L 166.010811 561.933999 
L 167.827027 562.245259 
L 171.459459 562.919024 
L 172.972973 562.967085 
L 174.486486 562.805196 
L 176.605405 562.326318 
L 179.32973 561.811995 
L 180.843243 561.722306 
L 182.356757 561.854564 
L 183.87027 562.232689 
L 185.686486 562.908725 
L 189.924324 564.997042 
L 192.951351 566.986643 
L 201.124324 572.945904 
L 202.940541 573.927252 
L 205.059459 574.870756 
L 210.810811 576.650964 
L 215.956757 578.583148 
L 218.378378 579.021463 
L 223.221622 579.580835 
L 226.248649 580.195645 
L 231.091892 581.52298 
L 234.118919 582.44313 
L 237.448649 583.17796 
L 240.172973 583.581354 
L 244.410811 583.994189 
L 248.043243 584.173147 
L 250.162162 584.118466 
L 252.583784 583.867629 
L 254.702703 583.453667 
L 258.335135 582.306721 
L 258.940541 582.12851 
L 259.243243 582.1072 
L 260.454054 581.556667 
L 261.059459 581.275556 
L 262.27027 580.679901 
L 264.389189 579.635552 
L 269.535135 577.043036 
L 273.47027 575.279117 
L 276.497297 574.253586 
L 277.708108 573.949893 
L 279.524324 573.651643 
L 283.762162 573.239696 
L 288.605405 572.333618 
L 291.632432 571.612625 
L 293.751351 571.120605 
L 298.897297 570.037012 
L 300.108108 569.846455 
L 300.713514 569.68383 
L 301.924324 569.749465 
L 302.832432 569.647931 
L 304.648649 569.752864 
L 305.556757 569.733022 
L 306.767568 569.860596 
L 308.281081 569.998652 
L 312.821622 570.629076 
L 317.362162 571.37005 
L 325.232432 572.273463 
L 328.259459 572.316942 
L 332.8 572.064287 
L 334.616216 571.858911 
L 343.091892 570.255407 
L 348.540541 568.492264 
L 351.264865 567.305114 
L 353.989189 565.879679 
L 357.016216 564.03941 
L 362.464865 560.227742 
L 367.308108 556.413679 
L 386.983784 539.091415 
L 387.286486 538.416168 
L 387.589189 538.560732 
L 387.891892 539.844857 
L 388.194595 538.061705 
L 388.497297 532.052762 
L 388.8 537.535 
L 388.8 537.535 
" style="fill:none;stroke:#2ca02c;stroke-linecap:square;stroke-width:4;"/>
   </g>
   <g id="line2d_31">
    <path clip-path="url(#pc0090a03c7)" d="M 86.4 565.714286 
L 388.8 565.714286 
" style="fill:none;stroke:#000000;stroke-dasharray:3.2,0.8,0.5,0.8;stroke-dashoffset:0;stroke-width:0.5;"/>
   </g>
   <g id="line2d_32">
    <path clip-path="url(#pc0090a03c7)" d="M 388.8 648 
L 388.8 373.714286 
" style="fill:none;stroke:#000000;stroke-dasharray:3.2,0.8,0.5,0.8;stroke-dashoffset:0;stroke-width:0.5;"/>
   </g>
   <g id="patch_8">
    <path d="M 86.4 648 
L 86.4 373.714286 
" style="fill:none;stroke:#000000;stroke-linecap:square;stroke-linejoin:miter;stroke-width:0.8;"/>
   </g>
   <g id="patch_9">
    <path d="M 388.8 648 
L 388.8 373.714286 
" style="fill:none;stroke:#000000;stroke-linecap:square;stroke-linejoin:miter;stroke-width:0.8;"/>
   </g>
   <g id="patch_10">
    <path d="M 86.4 648 
L 388.8 648 
" style="fill:none;stroke:#000000;stroke-linecap:square;stroke-linejoin:miter;stroke-width:0.8;"/>
   </g>
   <g id="patch_11">
    <path d="M 86.4 373.714286 
L 388.8 373.714286 
" style="fill:none;stroke:#000000;stroke-linecap:square;stroke-linejoin:miter;stroke-width:0.8;"/>
   </g>
  </g>
 </g>
 <defs>
  <clipPath id="pb240fb46c5">
   <rect height="274.285714" width="302.4" x="86.4" y="72"/>
  </clipPath>
  <clipPath id="pc0090a03c7">
   <rect height="274.285714" width="302.4" x="86.4" y="373.714286"/>
  </clipPath>
 </defs>
</svg>
