<?xml version="1.0" encoding="utf-8" standalone="no"?>
<!DOCTYPE svg PUBLIC "-//W3C//DTD SVG 1.1//EN"
  "http://www.w3.org/Graphics/SVG/1.1/DTD/svg11.dtd">
<!-- Created with matplotlib (https://matplotlib.org/) -->
<svg height="576pt" version="1.1" viewBox="0 0 720 576" width="720pt" xmlns="http://www.w3.org/2000/svg" xmlns:xlink="http://www.w3.org/1999/xlink">
 <metadata>
  <rdf:RDF xmlns:cc="http://creativecommons.org/ns#" xmlns:dc="http://purl.org/dc/elements/1.1/" xmlns:rdf="http://www.w3.org/1999/02/22-rdf-syntax-ns#">
   <cc:Work>
    <dc:type rdf:resource="http://purl.org/dc/dcmitype/StillImage"/>
    <dc:date>2021-12-22T16:17:20.787794</dc:date>
    <dc:format>image/svg+xml</dc:format>
    <dc:creator>
     <cc:Agent>
      <dc:title>Matplotlib v3.3.4, https://matplotlib.org/</dc:title>
     </cc:Agent>
    </dc:creator>
   </cc:Work>
  </rdf:RDF>
 </metadata>
 <defs>
  <style type="text/css">*{stroke-linecap:butt;stroke-linejoin:round;}</style>
 </defs>
 <g id="figure_1">
  <g id="patch_1">
   <path d="M 0 576 
L 720 576 
L 720 0 
L 0 0 
z
" style="fill:#ffffff;"/>
  </g>
  <g id="axes_1">
   <g id="patch_2">
    <path d="M 72 248.228571 
L 684 248.228571 
L 684 28.8 
L 72 28.8 
z
" style="fill:#ffffff;"/>
   </g>
   <g id="matplotlib.axis_1">
    <g id="xtick_1">
     <g id="line2d_1">
      <defs>
       <path d="M 0 0 
L 0 3.5 
" id="ma981fcd28e" style="stroke:#000000;stroke-width:0.8;"/>
      </defs>
      <g>
       <use style="stroke:#000000;stroke-width:0.8;" x="72" xlink:href="#ma981fcd28e" y="248.228571"/>
      </g>
     </g>
    </g>
    <g id="xtick_2">
     <g id="line2d_2">
      <g>
       <use style="stroke:#000000;stroke-width:0.8;" x="148.5" xlink:href="#ma981fcd28e" y="248.228571"/>
      </g>
     </g>
    </g>
    <g id="xtick_3">
     <g id="line2d_3">
      <g>
       <use style="stroke:#000000;stroke-width:0.8;" x="225" xlink:href="#ma981fcd28e" y="248.228571"/>
      </g>
     </g>
    </g>
    <g id="xtick_4">
     <g id="line2d_4">
      <g>
       <use style="stroke:#000000;stroke-width:0.8;" x="301.5" xlink:href="#ma981fcd28e" y="248.228571"/>
      </g>
     </g>
    </g>
    <g id="xtick_5">
     <g id="line2d_5">
      <g>
       <use style="stroke:#000000;stroke-width:0.8;" x="378" xlink:href="#ma981fcd28e" y="248.228571"/>
      </g>
     </g>
    </g>
    <g id="xtick_6">
     <g id="line2d_6">
      <g>
       <use style="stroke:#000000;stroke-width:0.8;" x="454.5" xlink:href="#ma981fcd28e" y="248.228571"/>
      </g>
     </g>
    </g>
    <g id="xtick_7">
     <g id="line2d_7">
      <g>
       <use style="stroke:#000000;stroke-width:0.8;" x="531" xlink:href="#ma981fcd28e" y="248.228571"/>
      </g>
     </g>
    </g>
    <g id="xtick_8">
     <g id="line2d_8">
      <g>
       <use style="stroke:#000000;stroke-width:0.8;" x="607.5" xlink:href="#ma981fcd28e" y="248.228571"/>
      </g>
     </g>
    </g>
    <g id="xtick_9">
     <g id="line2d_9">
      <g>
       <use style="stroke:#000000;stroke-width:0.8;" x="684" xlink:href="#ma981fcd28e" y="248.228571"/>
      </g>
     </g>
    </g>
   </g>
   <g id="matplotlib.axis_2">
    <g id="ytick_1">
     <g id="line2d_10">
      <defs>
       <path d="M 0 0 
L -3.5 0 
" id="m41e41613db" style="stroke:#000000;stroke-width:0.8;"/>
      </defs>
      <g>
       <use style="stroke:#000000;stroke-width:0.8;" x="72" xlink:href="#m41e41613db" y="230.297396"/>
      </g>
     </g>
     <g id="text_1">
      <!-- −1 -->
      <g transform="translate(42.485 236.785599)scale(0.19 -0.19)">
       <defs>
        <path d="M 62.09375 22 
L 6.40625 22 
L 6.40625 28.59375 
L 62.09375 28.59375 
z
" id="STIXGeneral-Regular-8722"/>
        <path d="M 39.40625 0 
L 11.796875 0 
L 11.796875 1.5 
Q 17.296875 1.796875 19.296875 3.546875 
Q 21.296875 5.296875 21.296875 9.5 
L 21.296875 54.40625 
Q 21.296875 59.296875 18.296875 59.296875 
Q 16.90625 59.296875 13.796875 58.09375 
L 11.09375 57.09375 
L 11.09375 58.5 
L 29 67.59375 
L 29.90625 67.296875 
L 29.90625 7.59375 
Q 29.90625 4.296875 31.90625 2.890625 
Q 33.90625 1.5 39.40625 1.5 
z
" id="STIXGeneral-Regular-49"/>
       </defs>
       <use xlink:href="#STIXGeneral-Regular-8722"/>
       <use x="68.499985" xlink:href="#STIXGeneral-Regular-49"/>
      </g>
     </g>
    </g>
    <g id="ytick_2">
     <g id="line2d_11">
      <g>
       <use style="stroke:#000000;stroke-width:0.8;" x="72" xlink:href="#m41e41613db" y="185.313475"/>
      </g>
     </g>
     <g id="text_2">
      <!-- 0 -->
      <g transform="translate(55.5 191.801678)scale(0.19 -0.19)">
       <defs>
        <path d="M 47.59375 33 
Q 47.59375 26.296875 46.296875 20.34375 
Q 45 14.40625 42.453125 9.40625 
Q 39.90625 4.40625 35.40625 1.5 
Q 30.90625 -1.40625 25 -1.40625 
Q 18.90625 -1.40625 14.296875 1.6875 
Q 9.703125 4.796875 7.203125 10 
Q 4.703125 15.203125 3.546875 21.09375 
Q 2.40625 27 2.40625 33.59375 
Q 2.40625 42.90625 4.703125 50.34375 
Q 7 57.796875 12.34375 62.6875 
Q 17.703125 67.59375 25.40625 67.59375 
Q 35.203125 67.59375 41.390625 58 
Q 47.59375 48.40625 47.59375 33 
z
M 38 32.5 
Q 38 48.296875 34.640625 56.640625 
Q 31.296875 65 24.796875 65 
Q 18.59375 65 15.296875 56.59375 
Q 12 48.203125 12 32.90625 
Q 12 17.5 15.296875 9.34375 
Q 18.59375 1.203125 25 1.203125 
Q 31.296875 1.203125 34.640625 9.34375 
Q 38 17.5 38 32.5 
z
" id="STIXGeneral-Regular-48"/>
       </defs>
       <use xlink:href="#STIXGeneral-Regular-48"/>
      </g>
     </g>
    </g>
    <g id="ytick_3">
     <g id="line2d_12">
      <g>
       <use style="stroke:#000000;stroke-width:0.8;" x="72" xlink:href="#m41e41613db" y="140.329553"/>
      </g>
     </g>
     <g id="text_3">
      <!-- 1 -->
      <g transform="translate(55.5 146.817756)scale(0.19 -0.19)">
       <use xlink:href="#STIXGeneral-Regular-49"/>
      </g>
     </g>
    </g>
    <g id="ytick_4">
     <g id="line2d_13">
      <g>
       <use style="stroke:#000000;stroke-width:0.8;" x="72" xlink:href="#m41e41613db" y="95.345632"/>
      </g>
     </g>
     <g id="text_4">
      <!-- 2 -->
      <g transform="translate(55.5 101.833835)scale(0.19 -0.19)">
       <defs>
        <path d="M 47.40625 13.703125 
L 42 0 
L 2.90625 0 
L 2.90625 1.203125 
L 20.703125 20.09375 
Q 27.703125 27.40625 30.703125 33.5 
Q 33.703125 39.59375 33.703125 46.09375 
Q 33.703125 52.796875 30 56.5 
Q 26.296875 60.203125 19.796875 60.203125 
Q 14.40625 60.203125 11.25 57.390625 
Q 8.09375 54.59375 5.09375 47.203125 
L 3 47.703125 
Q 4.703125 57 9.84375 62.296875 
Q 15 67.59375 23.796875 67.59375 
Q 32.09375 67.59375 37.1875 62.59375 
Q 42.296875 57.59375 42.296875 50 
Q 42.296875 38.703125 29.5 25.203125 
L 13 7.59375 
L 36.40625 7.59375 
Q 39.703125 7.59375 41.640625 8.890625 
Q 43.59375 10.203125 46 14.296875 
z
" id="STIXGeneral-Regular-50"/>
       </defs>
       <use xlink:href="#STIXGeneral-Regular-50"/>
      </g>
     </g>
    </g>
    <g id="ytick_5">
     <g id="line2d_14">
      <g>
       <use style="stroke:#000000;stroke-width:0.8;" x="72" xlink:href="#m41e41613db" y="50.361711"/>
      </g>
     </g>
     <g id="text_5">
      <!-- 3 -->
      <g transform="translate(55.5 56.849914)scale(0.19 -0.19)">
       <defs>
        <path d="M 6.09375 51 
L 4.5 51.40625 
Q 6.796875 58.90625 11.6875 63.25 
Q 16.59375 67.59375 24.09375 67.59375 
Q 31.09375 67.59375 35.390625 63.796875 
Q 39.703125 60 39.703125 53.90625 
Q 39.703125 45.703125 30.40625 40.09375 
Q 35.90625 37.703125 38.703125 34.796875 
Q 43.09375 29.90625 43.09375 21.90625 
Q 43.09375 13.90625 38.5 7.90625 
Q 35.09375 3.296875 28.75 0.9375 
Q 22.40625 -1.40625 15.296875 -1.40625 
Q 4.09375 -1.40625 4.09375 4.296875 
Q 4.09375 5.90625 5.296875 6.90625 
Q 6.5 7.90625 8.203125 7.90625 
Q 10.703125 7.90625 14.296875 5.296875 
Q 18.703125 2.203125 22.90625 2.203125 
Q 28.40625 2.203125 32.15625 6.640625 
Q 35.90625 11.09375 35.90625 17.5 
Q 35.90625 29 25.5 32 
Q 22.40625 33 15.296875 33 
L 15.296875 34.40625 
Q 20.90625 36.296875 23.703125 38 
Q 31.796875 42.59375 31.796875 51.40625 
Q 31.796875 56.40625 28.9375 59 
Q 26.09375 61.59375 21 61.59375 
Q 12 61.59375 6.09375 51 
z
" id="STIXGeneral-Regular-51"/>
       </defs>
       <use xlink:href="#STIXGeneral-Regular-51"/>
      </g>
     </g>
    </g>
    <g id="text_6">
     <!-- $C_l$ -->
     <g transform="translate(34.361406 147.159286)rotate(-90)scale(0.19 -0.19)">
      <defs>
       <path d="M 68.90625 66.40625 
L 65.203125 46.40625 
L 63.40625 46.703125 
Q 61.59375 63 48.5 63 
Q 37.59375 63 28.59375 53.296875 
Q 23.296875 47.703125 20.546875 39.703125 
Q 17.796875 31.703125 17.796875 23.203125 
Q 17.796875 2.703125 35.296875 2.703125 
Q 41.5 2.703125 46.640625 5.296875 
Q 51.796875 7.90625 58.203125 14.59375 
L 60 13.09375 
Q 53.296875 5.203125 46.84375 1.703125 
Q 40.40625 -1.796875 32.703125 -1.796875 
Q 21 -1.796875 13.796875 5.140625 
Q 6.59375 12.09375 6.59375 24.296875 
Q 6.59375 34.59375 11.6875 43.9375 
Q 16.796875 53.296875 25.296875 59.296875 
Q 35.5 66.59375 47.203125 66.59375 
Q 54.09375 66.59375 58.90625 64.90625 
Q 60.90625 64.203125 63 64.203125 
Q 65.703125 64.203125 66.796875 66.40625 
z
" id="STIXGeneral-Italic-67"/>
       <path d="M 27.90625 67.796875 
L 12.59375 9.296875 
Q 11.796875 6.40625 11.796875 5 
Q 11.796875 3.203125 13.5 3.203125 
Q 16.203125 3.203125 20.203125 8.90625 
L 22.703125 12.40625 
L 24.09375 11.40625 
Q 19.59375 4.296875 16.34375 1.59375 
Q 13.09375 -1.09375 9 -1.09375 
Q 4.09375 -1.09375 4.09375 4.5 
Q 4.09375 6.203125 4.5 7.5 
L 18.203125 59.90625 
Q 18.5 60.90625 18.5 61.796875 
Q 18.5 64 13.59375 64 
L 11.796875 64 
L 11.796875 65.59375 
Q 18.796875 66.40625 27.296875 68.296875 
z
" id="STIXGeneral-Italic-108"/>
      </defs>
      <use transform="translate(0 0.40625)" xlink:href="#STIXGeneral-Italic-67"/>
      <use transform="translate(66.699997 -12.821875)scale(0.7)" xlink:href="#STIXGeneral-Italic-108"/>
     </g>
    </g>
   </g>
   <g id="line2d_15">
    <path clip-path="url(#p16e8e59fcf)" d="M 71.95104 184.509319 
L 72.83232 183.862723 
L 73.41984 183.172355 
L 74.00736 182.169421 
L 74.59488 180.730352 
L 75.1824 178.701639 
L 75.76992 175.911777 
L 76.35744 172.203168 
L 77.23872 164.763424 
L 78.41376 152.134811 
L 79.88256 136.622072 
L 80.76384 129.708298 
L 81.64512 124.902647 
L 82.23264 122.663793 
L 83.11392 120.337438 
L 83.9952 118.835006 
L 84.87648 117.814087 
L 86.05152 116.843815 
L 88.10784 115.537882 
L 90.75168 113.736741 
L 92.808 111.90006 
L 94.2768 110.295296 
L 95.45184 108.700494 
L 96.03936 107.866449 
L 96.62688 106.981727 
L 97.2144 106.104089 
L 98.97696 102.896581 
L 99.27072 102.436156 
L 100.152 100.536077 
L 100.73952 99.33802 
L 105.43968 88.063983 
L 106.61472 84.844219 
L 108.37728 79.995502 
L 109.25856 77.280881 
L 109.84608 75.657089 
L 110.72736 72.906676 
L 111.60864 70.239112 
L 116.60256 53.312964 
L 117.7776 49.121905 
L 118.95264 45.279028 
L 119.83392 42.485167 
L 121.30272 39.2649 
L 121.59648 39.151159 
L 121.89024 38.774026 
L 122.77152 39.574779 
L 123.35904 41.082225 
L 124.24032 45.804072 
L 125.1216 52.659354 
L 127.76544 73.11024 
L 128.64672 76.941989 
L 128.94048 77.629574 
L 129.23424 78.69717 
L 130.11552 80.377403 
L 130.40928 80.70207 
L 130.70304 81.247711 
L 130.9968 81.211678 
L 131.58432 81.739731 
L 131.87808 82.103186 
L 132.4656 82.270346 
L 132.75936 82.621768 
L 133.05312 82.477966 
L 133.34688 82.766108 
L 133.64064 82.740983 
L 134.81568 83.285872 
L 135.10944 83.221656 
L 135.4032 83.448696 
L 135.99072 83.42265 
L 136.28448 83.653693 
L 136.57824 83.572758 
L 136.872 83.76709 
L 137.16576 83.69567 
L 137.45952 83.91981 
L 137.75328 83.937081 
L 138.04704 83.789318 
L 138.3408 84.052341 
L 138.63456 84.011581 
L 138.92832 84.172165 
L 139.51584 84.097078 
L 139.8096 84.38161 
L 140.10336 84.148802 
L 140.39712 84.461871 
L 140.69088 84.267993 
L 140.98464 84.324824 
L 141.2784 84.149981 
L 141.57216 84.290512 
L 141.86592 84.563276 
L 142.15968 84.440632 
L 142.45344 84.676339 
L 142.7472 84.467676 
L 143.04096 84.740146 
L 143.62848 84.596971 
L 143.92224 84.824192 
L 144.216 84.663051 
L 144.50976 84.845072 
L 144.80352 84.847931 
L 145.09728 84.685222 
L 145.39104 84.92422 
L 145.6848 84.743231 
L 145.97856 84.95505 
L 146.27232 84.810404 
L 146.56608 85.024272 
L 147.1536 84.905407 
L 147.44736 85.131364 
L 147.74112 84.954063 
L 148.03488 85.135602 
L 148.91616 85.232716 
L 149.20992 85.086578 
L 149.50368 85.327732 
L 149.79744 85.16341 
L 150.0912 85.377142 
L 150.67872 85.196147 
L 150.97248 85.309259 
L 151.26624 85.095868 
L 151.56 85.414451 
L 151.85376 85.215964 
L 152.14752 85.503041 
L 152.44128 85.520877 
L 152.73504 85.364474 
L 153.0288 85.590476 
L 153.32256 85.445557 
L 153.61632 85.643273 
L 154.20384 85.502428 
L 154.4976 85.670791 
L 154.79136 85.474832 
L 155.08512 85.673838 
L 155.37888 85.510639 
L 155.67264 85.700669 
L 156.26016 85.595811 
L 156.55392 85.80382 
L 156.84768 85.567131 
L 157.14144 85.788297 
L 157.4352 85.643485 
L 157.72896 85.810272 
L 158.31648 85.690928 
L 158.61024 85.893884 
L 158.904 85.682981 
L 159.19776 85.846478 
L 159.78528 85.684357 
L 160.07904 85.920317 
L 160.3728 85.698939 
L 160.66656 85.895635 
L 160.96032 85.672665 
L 161.25408 85.846731 
L 161.8416 85.580417 
L 162.13536 85.775836 
L 162.42912 85.617003 
L 162.72288 85.945756 
L 163.01664 85.740372 
L 163.3104 85.931026 
L 163.60416 85.963628 
L 163.89792 85.829674 
L 164.19168 85.939008 
L 164.48544 85.765672 
L 164.7792 85.968765 
L 165.36672 85.781937 
L 165.66048 85.940291 
L 165.95424 85.780071 
L 166.248 85.954302 
L 166.54176 85.728674 
L 166.83552 86.01644 
L 168.01056 85.73167 
L 168.30432 85.916737 
L 168.59808 85.773279 
L 168.89184 85.907833 
L 169.47936 85.744284 
L 169.77312 85.942537 
L 170.06688 85.786255 
L 170.36064 85.929592 
L 170.94816 85.75039 
L 171.24192 85.957164 
L 171.53568 85.783473 
L 171.82944 85.923573 
L 172.1232 85.752574 
L 172.41696 85.87001 
L 173.00448 85.735085 
L 173.29824 85.902161 
L 173.592 85.713142 
L 173.88576 85.873481 
L 174.76704 85.908202 
L 175.0608 85.751099 
L 175.35456 85.942082 
L 175.64832 85.762124 
L 175.94208 85.9688 
L 176.5296 85.746641 
L 176.82336 85.960673 
L 177.11712 85.744226 
L 177.41088 85.92128 
L 177.70464 85.734201 
L 177.9984 85.884304 
L 178.58592 85.754415 
L 178.87968 85.934252 
L 179.17344 85.753519 
L 179.4672 85.935667 
L 180.05472 85.764192 
L 180.34848 85.937387 
L 180.64224 85.794492 
L 180.936 85.924052 
L 181.22976 85.76616 
L 181.52352 85.923635 
L 182.11104 85.758657 
L 182.4048 85.935487 
L 182.69856 85.751207 
L 182.99232 85.944591 
L 183.28608 85.766174 
L 183.57984 85.960252 
L 183.8736 85.854359 
L 184.16736 85.964602 
L 184.46112 85.61229 
L 184.75488 85.997575 
L 185.04864 85.586478 
L 185.3424 86.055531 
L 185.63616 85.416522 
L 185.92992 86.156086 
L 186.22368 85.53198 
L 186.51744 86.219184 
L 186.8112 85.513115 
L 187.10496 86.230029 
L 187.39872 85.58733 
L 187.69248 85.996987 
L 187.98624 85.634021 
L 188.28 85.994315 
L 188.57376 85.602818 
L 188.86752 85.964914 
L 189.16128 85.605174 
L 189.45504 86.088418 
L 189.7488 85.46341 
L 190.04256 86.169228 
L 190.33632 85.454604 
L 190.63008 86.154812 
L 190.92384 85.561035 
L 191.2176 85.986969 
L 191.51136 85.618688 
L 191.80512 86.005649 
L 192.09888 85.615526 
L 192.39264 85.974813 
L 192.6864 85.632618 
L 192.98016 86.083999 
L 193.27392 85.44547 
L 193.56768 86.181429 
L 193.86144 85.494582 
L 194.1552 86.173164 
L 194.44896 85.476543 
L 194.74272 86.17592 
L 195.03648 85.532696 
L 195.33024 85.964817 
L 195.624 85.603847 
L 195.91776 85.99886 
L 196.21152 85.613639 
L 196.50528 86.0785 
L 196.79904 85.454572 
L 197.0928 86.152766 
L 197.38656 85.466914 
L 197.68032 86.147302 
L 197.97408 85.441016 
L 198.26784 86.132944 
L 198.5616 85.559834 
L 198.85536 85.939056 
L 199.14912 85.893243 
L 199.44288 85.444057 
L 199.73664 86.2151 
L 200.0304 85.610619 
L 200.32416 86.087616 
L 200.61792 85.741738 
L 200.91168 86.103357 
L 201.20544 85.712894 
L 201.4992 86.082239 
L 201.79296 85.711649 
L 202.08672 86.177782 
L 202.38048 85.549044 
L 202.67424 86.226636 
L 202.968 85.576395 
L 203.26176 86.308753 
L 203.55552 85.617594 
L 203.84928 86.303381 
L 204.14304 85.716892 
L 204.4368 86.160381 
L 204.73056 85.805718 
L 205.02432 86.181737 
L 205.31808 85.811563 
L 205.61184 86.293022 
L 205.9056 85.677081 
L 206.19936 86.37739 
L 206.49312 85.724665 
L 206.78688 86.411401 
L 207.08064 85.720571 
L 207.3744 86.413102 
L 207.66816 85.845191 
L 207.96192 86.27965 
L 208.25568 85.939698 
L 208.54944 86.327345 
L 208.8432 85.95926 
L 209.13696 86.33118 
L 209.43072 85.965013 
L 209.72448 86.452871 
L 210.01824 85.839859 
L 210.312 86.505932 
L 210.60576 85.881906 
L 210.89952 86.599333 
L 211.19328 86.041232 
L 211.48704 86.475654 
L 211.7808 86.113752 
L 212.07456 86.495411 
L 212.36832 86.12726 
L 212.66208 86.499214 
L 212.95584 86.190245 
L 213.2496 86.730085 
L 213.54336 86.078356 
L 213.83712 86.777903 
L 214.13088 86.123687 
L 214.42464 86.786871 
L 214.7184 86.138063 
L 215.01216 86.822068 
L 215.30592 86.256199 
L 215.59968 86.685229 
L 215.89344 86.347833 
L 216.1872 86.736914 
L 216.48096 86.387545 
L 216.77472 86.837103 
L 217.06848 86.220394 
L 217.36224 86.933662 
L 217.656 86.284942 
L 217.94976 86.968719 
L 218.24352 86.320896 
L 218.53728 86.993284 
L 218.83104 86.389271 
L 219.1248 86.848747 
L 219.41856 86.897108 
L 219.71232 86.428689 
L 220.00608 87.145649 
L 220.29984 86.580433 
L 220.5936 87.022254 
L 220.88736 86.709716 
L 221.18112 87.110432 
L 221.47488 86.757655 
L 221.76864 87.092382 
L 222.0624 86.755593 
L 222.35616 87.261104 
L 222.64992 86.647257 
L 222.94368 87.343394 
L 223.23744 86.713239 
L 223.5312 87.396649 
L 223.82496 86.74884 
L 224.11872 87.438792 
L 224.41248 86.892545 
L 224.70624 87.2893 
L 225 86.956929 
L 225.29376 87.355057 
L 225.58752 87.018145 
L 225.88128 87.500864 
L 226.17504 86.914875 
L 226.4688 87.611198 
L 226.76256 86.974247 
L 227.05632 87.653244 
L 227.35008 87.038515 
L 227.64384 87.694094 
L 227.9376 87.150502 
L 228.23136 87.573896 
L 228.52512 87.263005 
L 228.81888 87.638666 
L 229.11264 87.315223 
L 229.4064 87.677892 
L 229.70016 87.355037 
L 229.99392 87.832791 
L 230.28768 87.259986 
L 230.58144 87.948388 
L 230.8752 87.325002 
L 231.16896 87.99888 
L 231.46272 87.467303 
L 231.75648 87.885031 
L 232.05024 87.572088 
L 232.344 87.965869 
L 232.63776 87.622097 
L 232.93152 88.026499 
L 233.22528 87.696699 
L 233.51904 88.194345 
L 233.8128 87.590648 
L 234.10656 88.268295 
L 234.40032 87.639793 
L 234.69408 88.315467 
L 234.98784 87.736234 
L 235.2816 88.429322 
L 235.57536 87.923887 
L 235.86912 88.33736 
L 236.16288 88.021955 
L 236.45664 88.391336 
L 236.7504 88.062579 
L 237.04416 88.532467 
L 237.33792 87.957673 
L 237.63168 88.610145 
L 237.92544 88.031945 
L 238.2192 88.691461 
L 238.51296 88.070933 
L 238.80672 88.704364 
L 239.10048 88.499849 
L 239.39424 88.120312 
L 239.688 88.868925 
L 239.98176 88.380343 
L 240.27552 89.05318 
L 240.56928 88.441274 
L 240.86304 89.062892 
L 241.1568 88.558826 
L 241.45056 89.066916 
L 241.74432 88.770076 
L 242.03808 89.156741 
L 242.33184 88.830104 
L 242.6256 89.306118 
L 242.91936 88.754982 
L 243.21312 89.461722 
L 243.50688 88.856165 
L 243.80064 89.514644 
L 244.0944 88.945288 
L 244.38816 89.608927 
L 244.68192 89.103487 
L 244.97568 89.528768 
L 245.26944 89.230358 
L 245.5632 89.640666 
L 245.85696 89.310945 
L 246.15072 89.819405 
L 246.44448 89.261746 
L 246.73824 89.942318 
L 247.032 89.363255 
L 247.32576 90.068495 
L 247.61952 89.501468 
L 247.91328 90.169105 
L 248.20704 89.700967 
L 248.5008 90.12194 
L 248.79456 89.830804 
L 249.08832 90.220961 
L 249.38208 89.902036 
L 249.67584 90.30019 
L 249.9696 90.01248 
L 250.26336 90.508395 
L 250.55712 89.979739 
L 250.85088 90.670177 
L 251.14464 90.126608 
L 251.4384 90.795583 
L 251.73216 90.322857 
L 252.02592 90.763242 
L 252.31968 90.488552 
L 252.61344 90.906079 
L 252.9072 90.620888 
L 253.20096 91.034874 
L 253.49472 90.733646 
L 253.78848 91.240617 
L 254.08224 90.715117 
L 254.376 91.402927 
L 254.66976 90.860777 
L 254.96352 91.545486 
L 255.25728 90.991762 
L 255.55104 91.664227 
L 255.8448 91.192884 
L 256.13856 91.633188 
L 256.43232 91.369969 
L 256.72608 91.794688 
L 257.01984 91.508823 
L 257.3136 92.002958 
L 257.60736 91.48832 
L 257.90112 92.17681 
L 258.19488 91.645788 
L 258.48864 92.321682 
L 258.7824 91.795234 
L 259.07616 92.453394 
L 259.36992 92.326272 
L 259.66368 91.933935 
L 259.95744 92.683095 
L 260.2512 92.147517 
L 260.54496 92.838236 
L 260.83872 92.283701 
L 261.13248 92.951624 
L 261.42624 92.568481 
L 261.72 93.103812 
L 262.01376 92.848002 
L 262.30752 93.254659 
L 262.60128 92.971663 
L 262.89504 93.492475 
L 263.1888 93.037438 
L 263.48256 93.756453 
L 263.77632 93.242243 
L 264.07008 93.896827 
L 264.36384 93.357071 
L 264.6576 94.015592 
L 264.95136 93.589591 
L 265.24512 94.046455 
L 265.53888 93.805843 
L 265.83264 94.219938 
L 266.1264 93.973577 
L 266.42016 94.403986 
L 266.71392 94.153854 
L 267.00768 94.660606 
L 267.30144 94.177667 
L 267.5952 94.876578 
L 267.88896 94.386932 
L 268.18272 95.055283 
L 268.47648 94.637529 
L 268.77024 95.087899 
L 269.064 94.856363 
L 269.35776 95.278823 
L 269.65152 95.031124 
L 269.94528 95.468479 
L 270.23904 95.240729 
L 270.5328 95.748208 
L 270.82656 95.279581 
L 271.12032 95.981799 
L 271.41408 95.493762 
L 271.70784 96.163261 
L 272.0016 95.746322 
L 272.29536 96.206825 
L 272.58912 95.987098 
L 272.88288 96.42224 
L 273.17664 96.165075 
L 273.4704 96.616665 
L 273.76416 96.376389 
L 274.05792 96.886911 
L 274.35168 96.418931 
L 274.64544 97.123865 
L 274.9392 96.64858 
L 275.23296 97.342602 
L 275.52672 96.859722 
L 275.82048 97.537229 
L 276.11424 97.131212 
L 276.408 97.590913 
L 276.70176 97.401871 
L 276.99552 97.824983 
L 277.28928 97.590996 
L 277.58304 98.102822 
L 277.8768 97.668552 
L 278.17056 98.365013 
L 278.46432 97.890522 
L 278.75808 98.573477 
L 279.05184 98.09393 
L 279.3456 98.754193 
L 279.63936 98.695653 
L 279.93312 98.329986 
L 280.22688 99.113625 
L 280.52064 98.629013 
L 280.8144 99.313622 
L 281.10816 98.854724 
L 281.40192 99.565085 
L 281.69568 99.185267 
L 281.98944 99.635564 
L 282.2832 99.43276 
L 282.57696 99.857798 
L 282.87072 99.629219 
L 283.16448 100.129399 
L 283.45824 99.720233 
L 283.752 100.479075 
L 284.04576 100.035303 
L 284.33952 100.709262 
L 284.63328 100.23782 
L 284.92704 100.894653 
L 285.2208 100.56957 
L 285.51456 101.034348 
L 285.80832 100.839026 
L 286.10208 101.282455 
L 286.39584 101.069892 
L 286.6896 101.514241 
L 286.98336 101.303724 
L 287.27712 101.833172 
L 287.57088 101.410332 
L 287.86464 102.072848 
L 288.1584 101.615955 
L 288.45216 102.28477 
L 288.74592 101.931191 
L 289.03968 102.369061 
L 289.33344 102.187312 
L 289.6272 102.644085 
L 289.92096 102.446475 
L 290.21472 102.875756 
L 290.50848 102.665009 
L 290.80224 103.194622 
L 291.096 102.77328 
L 291.38976 103.476539 
L 291.68352 103.06163 
L 291.97728 103.734877 
L 292.27104 103.377153 
L 292.5648 103.846842 
L 292.85856 103.671335 
L 293.15232 104.115481 
L 293.44608 103.920728 
L 293.73984 104.356948 
L 294.0336 104.162651 
L 294.32736 104.695841 
L 294.62112 104.285776 
L 294.91488 104.996744 
L 295.20864 104.569888 
L 295.5024 105.244487 
L 295.79616 104.829126 
L 296.08992 105.494694 
L 296.38368 105.155171 
L 296.67744 105.620957 
L 296.9712 105.453993 
L 297.26496 105.897717 
L 297.55872 105.736002 
L 297.85248 106.276189 
L 298.14624 105.866477 
L 298.44 106.570086 
L 298.73376 106.15845 
L 299.02752 106.844461 
L 299.32128 106.440881 
L 299.61504 107.102234 
L 299.9088 107.096324 
L 300.20256 106.763042 
L 300.49632 107.544379 
L 300.79008 107.131071 
L 301.08384 107.812965 
L 301.3776 107.409971 
L 301.67136 108.094778 
L 301.96512 107.795661 
L 302.25888 108.250014 
L 302.55264 108.104868 
L 302.8464 108.546929 
L 303.14016 108.381429 
L 303.43392 108.933789 
L 303.72768 108.54332 
L 304.02144 109.2608 
L 304.3152 108.872767 
L 304.60896 109.545702 
L 304.90272 109.158491 
L 305.19648 109.860254 
L 305.49024 109.58627 
L 305.784 110.062844 
L 306.07776 109.905384 
L 306.37152 110.411175 
L 306.66528 110.262336 
L 306.95904 110.725196 
L 307.2528 110.569313 
L 307.54656 111.121274 
L 307.84032 110.752496 
L 308.13408 111.46541 
L 308.42784 111.088951 
L 308.7216 111.776432 
L 309.01536 111.511177 
L 309.30912 112.000497 
L 309.60288 111.867039 
L 309.89664 112.328779 
L 310.1904 112.499199 
L 310.48416 112.190958 
L 310.77792 112.981899 
L 311.07168 112.680458 
L 311.36544 113.121335 
L 311.6592 113.325538 
L 311.95296 113.019482 
L 312.24672 113.786178 
L 312.83424 113.678543 
L 313.128 114.302303 
L 313.42176 114.258458 
L 313.71552 114.494696 
L 314.00928 114.569453 
L 314.30304 115.156631 
L 314.5968 114.805532 
L 314.89056 115.260259 
L 315.18432 115.464851 
L 315.47808 115.448079 
L 315.77184 116.02732 
L 316.0656 115.899738 
L 316.35936 116.409873 
L 316.65312 116.397712 
L 316.94688 116.661191 
L 317.24064 117.364929 
L 317.5344 116.955277 
L 317.82816 117.936221 
L 318.12192 117.803099 
L 318.41568 117.957411 
L 318.70944 118.920243 
L 319.0032 118.597511 
L 319.59072 120.10796 
L 319.88448 120.160491 
L 320.17824 121.01032 
L 320.472 121.510262 
L 320.76576 122.656773 
L 321.05952 123.183465 
L 321.64704 125.309474 
L 323.11584 134.367878 
L 323.99712 142.600867 
L 327.22848 180.787112 
L 328.99104 192.897512 
L 329.2848 194.743807 
L 330.16608 198.147374 
L 330.7536 200.548656 
L 331.04736 201.405204 
L 331.34112 202.651891 
L 331.63488 203.142195 
L 332.51616 205.92322 
L 332.80992 206.535722 
L 333.10368 207.648637 
L 333.39744 208.191853 
L 334.57248 211.56523 
L 334.86624 211.860576 
L 335.45376 213.548422 
L 336.04128 214.869531 
L 336.33504 215.471579 
L 336.6288 216.514276 
L 337.21632 217.431594 
L 337.51008 218.453278 
L 337.80384 218.859006 
L 339.86016 223.282875 
L 340.15392 224.075243 
L 340.74144 224.808643 
L 341.91648 227.286828 
L 342.21024 227.372016 
L 342.504 228.536536 
L 342.79776 228.43071 
L 343.09152 229.242016 
L 343.38528 229.55917 
L 343.67904 230.257556 
L 343.9728 230.228159 
L 344.26656 231.22599 
L 344.56032 231.191958 
L 345.14784 232.179813 
L 345.4416 232.710335 
L 346.02912 233.19999 
L 346.32288 233.795269 
L 346.61664 233.731192 
L 346.9104 234.667241 
L 347.20416 234.494501 
L 347.79168 235.539878 
L 348.08544 235.240505 
L 348.67296 236.311756 
L 348.96672 235.934132 
L 349.55424 236.941778 
L 349.848 236.566157 
L 350.43552 237.474163 
L 350.72928 237.126979 
L 351.3168 237.902065 
L 351.61056 237.724945 
L 352.19808 237.822367 
L 352.49184 238.118722 
L 353.07936 237.922181 
L 353.37312 238.254545 
L 353.66688 238.067801 
L 353.96064 238.195794 
L 354.84192 237.946973 
L 355.13568 238.156513 
L 355.42944 237.881748 
L 355.7232 238.021715 
L 356.31072 237.588863 
L 356.60448 237.44349 
L 356.89824 237.613434 
L 357.192 237.285188 
L 357.48576 237.358277 
L 358.36704 236.437576 
L 358.6608 236.901892 
L 358.95456 236.529181 
L 359.24832 236.451173 
L 359.54208 235.791037 
L 359.83584 236.199751 
L 360.42336 235.057601 
L 360.71712 235.526062 
L 361.30464 234.675015 
L 361.5984 234.759747 
L 361.89216 234.074354 
L 362.18592 234.148714 
L 362.77344 233.399362 
L 363.0672 233.256996 
L 363.36096 233.329726 
L 363.65472 232.373608 
L 363.94848 232.672242 
L 364.24224 231.90746 
L 364.536 231.77059 
L 364.82976 231.393981 
L 365.12352 231.21039 
L 366.29856 229.435708 
L 366.88608 228.369315 
L 367.17984 227.826973 
L 368.06112 225.311111 
L 368.64864 223.123083 
L 369.82368 216.482561 
L 370.11744 214.637618 
L 372.17376 192.774913 
L 373.3488 179.078238 
L 374.23008 170.632713 
L 375.11136 164.551908 
L 375.40512 163.19523 
L 375.69888 161.135432 
L 375.99264 160.413567 
L 376.2864 158.950033 
L 376.58016 158.273127 
L 377.46144 155.688693 
L 377.7552 155.249451 
L 378.04896 154.443821 
L 378.34272 154.198961 
L 378.63648 153.806851 
L 378.93024 152.905468 
L 379.51776 152.495926 
L 380.10528 151.278596 
L 380.39904 151.384 
L 380.6928 150.78752 
L 380.98656 150.588835 
L 381.57408 149.75066 
L 381.86784 149.746788 
L 382.45536 148.972109 
L 382.74912 148.692614 
L 383.04288 148.771419 
L 383.33664 148.117341 
L 383.6304 148.023694 
L 383.92416 147.451038 
L 384.21792 147.527032 
L 385.39296 146.479454 
L 385.68672 145.944784 
L 385.98048 146.126506 
L 387.15552 145.173584 
L 389.5056 143.83823 
L 390.9744 143.185631 
L 393.32448 142.604915 
L 394.20576 142.4179 
L 395.3808 142.250473 
L 395.67456 142.531874 
L 395.96832 141.877385 
L 396.26208 142.284439 
L 396.55584 142.36802 
L 396.8496 142.25709 
L 400.08096 142.73073 
L 401.54976 143.138142 
L 404.1936 144.306381 
L 408.30624 146.668266 
L 411.5376 149.026323 
L 420.05664 156.502605 
L 427.40064 163.41426 
L 428.86944 164.748455 
L 433.5696 168.912844 
L 440.03232 174.283212 
L 445.32 178.202861 
L 450.60768 181.901216 
L 455.01408 184.878967 
L 456.18912 185.617846 
L 458.5392 187.101412 
L 464.4144 190.493597 
L 467.05824 191.915137 
L 470.58336 193.576009 
L 472.34592 194.404451 
L 473.81472 195.000513 
L 478.80864 196.911391 
L 482.33376 198.074136 
L 488.50272 199.725273 
L 494.67168 200.892146 
L 500.54688 201.520364 
L 504.95328 201.750878 
L 513.17856 201.726547 
L 517.58496 201.512494 
L 520.52256 201.317036 
L 536.97312 199.703104 
L 540.792 199.260464 
L 544.90464 198.785834 
L 548.136 198.395413 
L 551.0736 198.048366 
L 572.22432 195.605134 
L 578.9808 194.887888 
L 583.68096 194.425723 
L 588.96864 193.949353 
L 604.24416 192.747005 
L 613.93824 192.112616 
L 619.81344 191.794258 
L 643.31424 190.706432 
L 674.74656 189.718735 
L 684.14688 189.485493 
L 684.14688 189.485493 
" style="fill:none;stroke:#1f77b4;stroke-linecap:square;stroke-width:5;"/>
   </g>
   <g id="line2d_16">
    <path clip-path="url(#p16e8e59fcf)" d="M 72.389809 184.143373 
L 77.847134 150.600449 
L 82.135032 111.987083 
L 91.100637 127.198409 
L 100.066242 108.866811 
L 102.015287 90.145179 
L 109.811465 90.145179 
L 119.166879 53.091949 
L 125.403822 57.382323 
L 134.369427 87.024907 
L 144.504459 76.493989 
L 154.249682 82.734533 
L 172.96051 72.983683 
L 187.773248 80.784363 
L 201.806369 74.153785 
L 231.431847 86.634873 
L 259.887898 85.464771 
L 286.394904 105.746539 
L 306.275159 113.547219 
L 317.579618 127.588443 
L 324.985987 177.512795 
L 328.104459 188.823781 
L 335.900637 207.545413 
L 343.307006 207.545413 
L 349.15414 215.736127 
L 356.755414 216.126161 
L 361.238217 224.316875 
L 368.254777 207.155379 
L 371.763057 180.633067 
L 378.389809 150.600449 
L 387.355414 145.920041 
L 396.710828 145.139973 
L 409.184713 155.670891 
L 428.675159 176.732727 
L 440.369427 177.512795 
L 456.351592 188.433747 
L 468.825478 189.993883 
L 486.366879 190.773951 
L 506.636943 193.114155 
L 531.974522 193.114155 
L 568.616561 195.454359 
L 617.732484 188.823781 
L 643.849682 188.433747 
L 681.661146 191.163985 
" style="fill:none;stroke:#ff7f0e;stroke-dasharray:6.4,1.6,1,1.6;stroke-dashoffset:0;"/>
    <defs>
     <path d="M 0 7.5 
C 1.989023 7.5 3.896849 6.709753 5.303301 5.303301 
C 6.709753 3.896849 7.5 1.989023 7.5 0 
C 7.5 -1.989023 6.709753 -3.896849 5.303301 -5.303301 
C 3.896849 -6.709753 1.989023 -7.5 0 -7.5 
C -1.989023 -7.5 -3.896849 -6.709753 -5.303301 -5.303301 
C -6.709753 -3.896849 -7.5 -1.989023 -7.5 0 
C -7.5 1.989023 -6.709753 3.896849 -5.303301 5.303301 
C -3.896849 6.709753 -1.989023 7.5 0 7.5 
z
" id="m4f11a7d863" style="stroke:#ff7f0e;"/>
    </defs>
    <g clip-path="url(#p16e8e59fcf)">
     <use style="fill:#ff7f0e;stroke:#ff7f0e;" x="72.389809" xlink:href="#m4f11a7d863" y="184.143373"/>
     <use style="fill:#ff7f0e;stroke:#ff7f0e;" x="77.847134" xlink:href="#m4f11a7d863" y="150.600449"/>
     <use style="fill:#ff7f0e;stroke:#ff7f0e;" x="82.135032" xlink:href="#m4f11a7d863" y="111.987083"/>
     <use style="fill:#ff7f0e;stroke:#ff7f0e;" x="91.100637" xlink:href="#m4f11a7d863" y="127.198409"/>
     <use style="fill:#ff7f0e;stroke:#ff7f0e;" x="100.066242" xlink:href="#m4f11a7d863" y="108.866811"/>
     <use style="fill:#ff7f0e;stroke:#ff7f0e;" x="102.015287" xlink:href="#m4f11a7d863" y="90.145179"/>
     <use style="fill:#ff7f0e;stroke:#ff7f0e;" x="109.811465" xlink:href="#m4f11a7d863" y="90.145179"/>
     <use style="fill:#ff7f0e;stroke:#ff7f0e;" x="119.166879" xlink:href="#m4f11a7d863" y="53.091949"/>
     <use style="fill:#ff7f0e;stroke:#ff7f0e;" x="125.403822" xlink:href="#m4f11a7d863" y="57.382323"/>
     <use style="fill:#ff7f0e;stroke:#ff7f0e;" x="134.369427" xlink:href="#m4f11a7d863" y="87.024907"/>
     <use style="fill:#ff7f0e;stroke:#ff7f0e;" x="144.504459" xlink:href="#m4f11a7d863" y="76.493989"/>
     <use style="fill:#ff7f0e;stroke:#ff7f0e;" x="154.249682" xlink:href="#m4f11a7d863" y="82.734533"/>
     <use style="fill:#ff7f0e;stroke:#ff7f0e;" x="172.96051" xlink:href="#m4f11a7d863" y="72.983683"/>
     <use style="fill:#ff7f0e;stroke:#ff7f0e;" x="187.773248" xlink:href="#m4f11a7d863" y="80.784363"/>
     <use style="fill:#ff7f0e;stroke:#ff7f0e;" x="201.806369" xlink:href="#m4f11a7d863" y="74.153785"/>
     <use style="fill:#ff7f0e;stroke:#ff7f0e;" x="231.431847" xlink:href="#m4f11a7d863" y="86.634873"/>
     <use style="fill:#ff7f0e;stroke:#ff7f0e;" x="259.887898" xlink:href="#m4f11a7d863" y="85.464771"/>
     <use style="fill:#ff7f0e;stroke:#ff7f0e;" x="286.394904" xlink:href="#m4f11a7d863" y="105.746539"/>
     <use style="fill:#ff7f0e;stroke:#ff7f0e;" x="306.275159" xlink:href="#m4f11a7d863" y="113.547219"/>
     <use style="fill:#ff7f0e;stroke:#ff7f0e;" x="317.579618" xlink:href="#m4f11a7d863" y="127.588443"/>
     <use style="fill:#ff7f0e;stroke:#ff7f0e;" x="324.985987" xlink:href="#m4f11a7d863" y="177.512795"/>
     <use style="fill:#ff7f0e;stroke:#ff7f0e;" x="328.104459" xlink:href="#m4f11a7d863" y="188.823781"/>
     <use style="fill:#ff7f0e;stroke:#ff7f0e;" x="335.900637" xlink:href="#m4f11a7d863" y="207.545413"/>
     <use style="fill:#ff7f0e;stroke:#ff7f0e;" x="343.307006" xlink:href="#m4f11a7d863" y="207.545413"/>
     <use style="fill:#ff7f0e;stroke:#ff7f0e;" x="349.15414" xlink:href="#m4f11a7d863" y="215.736127"/>
     <use style="fill:#ff7f0e;stroke:#ff7f0e;" x="356.755414" xlink:href="#m4f11a7d863" y="216.126161"/>
     <use style="fill:#ff7f0e;stroke:#ff7f0e;" x="361.238217" xlink:href="#m4f11a7d863" y="224.316875"/>
     <use style="fill:#ff7f0e;stroke:#ff7f0e;" x="368.254777" xlink:href="#m4f11a7d863" y="207.155379"/>
     <use style="fill:#ff7f0e;stroke:#ff7f0e;" x="371.763057" xlink:href="#m4f11a7d863" y="180.633067"/>
     <use style="fill:#ff7f0e;stroke:#ff7f0e;" x="378.389809" xlink:href="#m4f11a7d863" y="150.600449"/>
     <use style="fill:#ff7f0e;stroke:#ff7f0e;" x="387.355414" xlink:href="#m4f11a7d863" y="145.920041"/>
     <use style="fill:#ff7f0e;stroke:#ff7f0e;" x="396.710828" xlink:href="#m4f11a7d863" y="145.139973"/>
     <use style="fill:#ff7f0e;stroke:#ff7f0e;" x="409.184713" xlink:href="#m4f11a7d863" y="155.670891"/>
     <use style="fill:#ff7f0e;stroke:#ff7f0e;" x="428.675159" xlink:href="#m4f11a7d863" y="176.732727"/>
     <use style="fill:#ff7f0e;stroke:#ff7f0e;" x="440.369427" xlink:href="#m4f11a7d863" y="177.512795"/>
     <use style="fill:#ff7f0e;stroke:#ff7f0e;" x="456.351592" xlink:href="#m4f11a7d863" y="188.433747"/>
     <use style="fill:#ff7f0e;stroke:#ff7f0e;" x="468.825478" xlink:href="#m4f11a7d863" y="189.993883"/>
     <use style="fill:#ff7f0e;stroke:#ff7f0e;" x="486.366879" xlink:href="#m4f11a7d863" y="190.773951"/>
     <use style="fill:#ff7f0e;stroke:#ff7f0e;" x="506.636943" xlink:href="#m4f11a7d863" y="193.114155"/>
     <use style="fill:#ff7f0e;stroke:#ff7f0e;" x="531.974522" xlink:href="#m4f11a7d863" y="193.114155"/>
     <use style="fill:#ff7f0e;stroke:#ff7f0e;" x="568.616561" xlink:href="#m4f11a7d863" y="195.454359"/>
     <use style="fill:#ff7f0e;stroke:#ff7f0e;" x="617.732484" xlink:href="#m4f11a7d863" y="188.823781"/>
     <use style="fill:#ff7f0e;stroke:#ff7f0e;" x="643.849682" xlink:href="#m4f11a7d863" y="188.433747"/>
     <use style="fill:#ff7f0e;stroke:#ff7f0e;" x="681.661146" xlink:href="#m4f11a7d863" y="191.163985"/>
    </g>
   </g>
   <g id="line2d_17">
    <path clip-path="url(#p16e8e59fcf)" d="M 378 248.228571 
L 378 28.8 
" style="fill:none;stroke:#000000;stroke-linecap:square;stroke-width:0.5;"/>
   </g>
   <g id="line2d_18">
    <path clip-path="url(#p16e8e59fcf)" d="M 72 185.313475 
L 684 185.313475 
" style="fill:none;stroke:#000000;stroke-dasharray:3.2,0.8,0.5,0.8;stroke-dashoffset:0;stroke-width:0.5;"/>
   </g>
   <g id="patch_3">
    <path d="M 72 248.228571 
L 72 28.8 
" style="fill:none;stroke:#000000;stroke-linecap:square;stroke-linejoin:miter;stroke-width:0.8;"/>
   </g>
   <g id="patch_4">
    <path d="M 684 248.228571 
L 684 28.8 
" style="fill:none;stroke:#000000;stroke-linecap:square;stroke-linejoin:miter;stroke-width:0.8;"/>
   </g>
   <g id="patch_5">
    <path d="M 72 248.228571 
L 684 248.228571 
" style="fill:none;stroke:#000000;stroke-linecap:square;stroke-linejoin:miter;stroke-width:0.8;"/>
   </g>
   <g id="patch_6">
    <path d="M 72 28.8 
L 684 28.8 
" style="fill:none;stroke:#000000;stroke-linecap:square;stroke-linejoin:miter;stroke-width:0.8;"/>
   </g>
   <g id="legend_1">
    <g id="line2d_19">
     <path d="M 446.69 52.55 
L 484.69 52.55 
" style="fill:none;stroke:#1f77b4;stroke-linecap:square;stroke-width:5;"/>
    </g>
    <g id="line2d_20"/>
    <g id="text_7">
     <!-- Current CFD, $\alpha = 45 ^\circ$ -->
     <g transform="translate(499.89 59.2)scale(0.19 -0.19)">
      <defs>
       <path d="M 61.40625 13.09375 
L 63.296875 11.296875 
Q 54.40625 -1.40625 36 -1.40625 
Q 21.5 -1.40625 12.40625 7.5 
Q 2.796875 16.90625 2.796875 32.5 
Q 2.796875 47.09375 11.796875 57.203125 
Q 21.203125 67.59375 36.09375 67.59375 
Q 42.5 67.59375 48 66.09375 
Q 54.296875 64.296875 54.90625 64.296875 
Q 58.203125 64.296875 59.09375 67.59375 
L 61.09375 67.59375 
L 62 44.90625 
L 59.703125 44.90625 
Q 58.09375 52.09375 54.5 56 
Q 47.40625 63.59375 38.40625 63.59375 
Q 27.296875 63.59375 20.84375 55.4375 
Q 14.40625 47.296875 14.40625 34.09375 
Q 14.40625 18 21.59375 10.203125 
Q 28.296875 3 39.40625 3 
Q 46 3 50.796875 5.296875 
Q 55.59375 7.59375 61.40625 13.09375 
z
" id="STIXGeneral-Regular-67"/>
       <path d="M 48 5 
L 48 3.59375 
Q 40.203125 1.5 34.296875 -0.90625 
L 33.796875 -0.59375 
L 33.796875 7.59375 
L 33.59375 7.59375 
Q 27.296875 -1 19.296875 -1 
Q 13.59375 -1 10.34375 2.5 
Q 7.09375 6 7.09375 11.796875 
L 7.09375 36.90625 
Q 7.09375 40.59375 5.796875 42 
Q 4.5 43.40625 0.90625 43.59375 
L 0.90625 45 
L 15.5 45 
L 15.5 12.703125 
Q 15.5 9.296875 17.546875 7.046875 
Q 19.59375 4.796875 22.59375 4.796875 
Q 27.5 4.796875 31 7.90625 
Q 32.296875 9.09375 32.796875 10.140625 
Q 33.296875 11.203125 33.296875 13.703125 
L 33.296875 36.796875 
Q 33.296875 40.703125 31.890625 41.84375 
Q 30.5 43 25.90625 43.296875 
L 25.90625 45 
L 41.703125 45 
L 41.703125 10.703125 
Q 41.703125 7.203125 42.84375 6.09375 
Q 44 5 47.40625 5 
z
" id="STIXGeneral-Regular-117"/>
       <path d="M 16 45.796875 
L 16 36.59375 
Q 19.796875 42 22.34375 44 
Q 24.90625 46 28 46 
Q 30.59375 46 32.046875 44.59375 
Q 33.5 43.203125 33.5 40.703125 
Q 33.5 38.59375 32.453125 37.390625 
Q 31.40625 36.203125 29.59375 36.203125 
Q 27.703125 36.203125 25.59375 38.203125 
Q 24 39.703125 23 39.703125 
Q 20.90625 39.703125 18.453125 36.796875 
Q 16 33.90625 16 31.5 
L 16 9 
Q 16 4.703125 17.703125 3.203125 
Q 19.40625 1.703125 24.5 1.5 
L 24.5 0 
L 0.5 0 
L 0.5 1.5 
Q 5.296875 2.40625 6.4375 3.5 
Q 7.59375 4.59375 7.59375 8.40625 
L 7.59375 33.40625 
Q 7.59375 36.703125 6.84375 38.046875 
Q 6.09375 39.40625 4.203125 39.40625 
Q 2.59375 39.40625 0.703125 39 
L 0.703125 40.59375 
Q 7 42.59375 15.5 46 
z
" id="STIXGeneral-Regular-114"/>
       <path d="M 40.796875 16.40625 
L 42.40625 15.703125 
Q 36.40625 -1 21.5 -1 
Q 12.703125 -1 7.59375 5.140625 
Q 2.5 11.296875 2.5 21.703125 
Q 2.5 32.40625 8.203125 39.203125 
Q 13.90625 46 23.203125 46 
Q 32.203125 46 37.09375 39.09375 
Q 40 35.09375 40.5 27.703125 
L 9.703125 27.703125 
Q 10.09375 21.40625 10.9375 18.09375 
Q 11.796875 14.796875 14.296875 11.40625 
Q 18.5 5.90625 25.40625 5.90625 
Q 30.296875 5.90625 33.640625 8.296875 
Q 37 10.703125 40.796875 16.40625 
z
M 9.90625 30.90625 
L 30.296875 30.90625 
Q 29.40625 37.203125 27.34375 39.796875 
Q 25.296875 42.40625 20.5 42.40625 
Q 16.296875 42.40625 13.5 39.453125 
Q 10.703125 36.5 9.90625 30.90625 
z
" id="STIXGeneral-Regular-101"/>
       <path d="M 48.5 0 
L 27.703125 0 
L 27.796875 1.5 
Q 31.5 1.796875 32.75 3.640625 
Q 34 5.5 34 10.5 
L 34 30.40625 
Q 34 40.5 26.703125 40.5 
Q 24.203125 40.5 22 39.296875 
Q 19.796875 38.09375 16.40625 34.796875 
L 16.40625 7.203125 
Q 16.40625 4.203125 17.75 3 
Q 19.09375 1.796875 22.90625 1.5 
L 22.90625 0 
L 1.796875 0 
L 1.796875 1.5 
Q 5.59375 1.796875 6.796875 3.34375 
Q 8 4.90625 8 9.40625 
L 8 33.703125 
Q 8 37.40625 7.296875 38.796875 
Q 6.59375 40.203125 4.5 40.203125 
Q 2.5 40.203125 1.59375 39.796875 
L 1.59375 41.5 
Q 8.59375 43.5 15.296875 46 
L 16.09375 45.703125 
L 16.09375 37.90625 
L 16.203125 37.90625 
Q 23.296875 46 30.59375 46 
Q 36.296875 46 39.34375 42 
Q 42.40625 38 42.40625 30.59375 
L 42.40625 8.5 
Q 42.40625 4.5 43.59375 3.203125 
Q 44.796875 1.90625 48.5 1.5 
z
" id="STIXGeneral-Regular-110"/>
       <path d="M 26.59375 7.703125 
L 27.90625 6.59375 
Q 23.09375 -1 15.796875 -1 
Q 7 -1 7 11.703125 
L 7 41.796875 
L 1.703125 41.796875 
Q 1.296875 42.09375 1.296875 42.5 
Q 1.296875 43.296875 3 44.40625 
Q 6.796875 46.59375 12.703125 55.09375 
Q 12.90625 55.40625 13.65625 56.34375 
Q 14.40625 57.296875 14.703125 57.90625 
Q 15.40625 57.90625 15.40625 56.59375 
L 15.40625 45 
L 25.5 45 
L 25.5 41.796875 
L 15.40625 41.796875 
L 15.40625 13.203125 
Q 15.40625 8.40625 16.59375 6.296875 
Q 17.796875 4.203125 20.59375 4.203125 
Q 23.59375 4.203125 26.59375 7.703125 
z
" id="STIXGeneral-Regular-116"/>
       <path id="STIXGeneral-Regular-32"/>
       <path d="M 54.59375 51.90625 
L 52.09375 51.90625 
Q 51 58.703125 48.34375 60.546875 
Q 45.703125 62.40625 36.703125 62.40625 
L 23.5 62.40625 
Q 21.40625 62.40625 20.75 61.65625 
Q 20.09375 60.90625 20.09375 58.5 
L 20.09375 36.796875 
L 34.296875 36.796875 
Q 40.59375 36.796875 42.75 38.59375 
Q 44.90625 40.40625 45.59375 46.296875 
L 47.90625 46.296875 
L 47.90625 23 
L 45.59375 23 
Q 45 29.09375 42.890625 30.890625 
Q 40.796875 32.703125 34.296875 32.703125 
L 20.09375 32.703125 
L 20.09375 11.203125 
Q 20.09375 5.5 21.75 3.84375 
Q 23.40625 2.203125 29.203125 1.90625 
L 29.203125 0 
L 1.09375 0 
L 1.09375 1.90625 
Q 6.796875 2.296875 8.34375 4.046875 
Q 9.90625 5.796875 9.90625 12.296875 
L 9.90625 55.09375 
Q 9.90625 60.59375 8.40625 62.25 
Q 6.90625 63.90625 1.203125 64.296875 
L 1.203125 66.203125 
L 54.09375 66.203125 
z
" id="STIXGeneral-Regular-70"/>
       <path d="M 1.59375 66.203125 
L 28.59375 66.203125 
Q 48.09375 66.203125 58.59375 57.09375 
Q 68.5 48.59375 68.5 33.40625 
Q 68.5 15.09375 54.90625 6.40625 
Q 45 0 29.703125 0 
L 1.59375 0 
L 1.59375 1.90625 
Q 7.40625 2.296875 8.90625 3.9375 
Q 10.40625 5.59375 10.40625 11.5 
L 10.40625 55 
Q 10.40625 60.796875 8.90625 62.34375 
Q 7.40625 63.90625 1.59375 64.296875 
z
M 20.59375 58.296875 
L 20.59375 8.40625 
Q 20.59375 5.703125 21.546875 4.703125 
Q 22.5 3.703125 25.40625 3.703125 
Q 33.203125 3.703125 38 4.796875 
Q 42.796875 5.90625 47.203125 8.90625 
Q 57.59375 15.90625 57.59375 32.796875 
Q 57.59375 47.296875 48.09375 55.59375 
Q 43.796875 59.40625 38.6875 60.953125 
Q 33.59375 62.5 25.90625 62.5 
Q 23 62.5 21.796875 61.59375 
Q 20.59375 60.703125 20.59375 58.296875 
z
" id="STIXGeneral-Regular-68"/>
       <path d="M 8.296875 -14.09375 
L 7.296875 -12.203125 
Q 15.59375 -6.59375 15.59375 -1.5 
Q 15.59375 -0.203125 14.203125 -0.203125 
Q 13.796875 -0.203125 12.84375 -0.390625 
Q 11.90625 -0.59375 11.296875 -0.59375 
Q 5.5 -0.59375 5.5 4.5 
Q 5.5 7.09375 7.140625 8.640625 
Q 8.796875 10.203125 11.5 10.203125 
Q 14.90625 10.203125 17.203125 7.75 
Q 19.5 5.296875 19.5 1.5 
Q 19.5 -3.09375 16.453125 -7.390625 
Q 13.40625 -11.703125 8.296875 -14.09375 
z
" id="STIXGeneral-Regular-44"/>
       <path d="M 54.90625 42.796875 
L 40.703125 16.703125 
L 40.703125 14.90625 
Q 40.703125 11 41.59375 8 
Q 42.5 5 44.09375 5 
Q 46.40625 5 49.203125 12.40625 
L 50.796875 11.703125 
Q 47.09375 -0.90625 40.703125 -0.90625 
Q 35.796875 -0.90625 35.5 9.59375 
Q 26.703125 -1.09375 16.09375 -1.09375 
Q 9.203125 -1.09375 5.953125 3.09375 
Q 2.703125 7.296875 2.703125 14.09375 
Q 2.703125 20.203125 5.140625 26.140625 
Q 7.59375 32.09375 11.796875 36.40625 
Q 15.203125 39.796875 19.84375 41.9375 
Q 24.5 44.09375 29.09375 44.09375 
Q 35.09375 44.09375 38.390625 40.546875 
Q 41.703125 37 41.703125 32.203125 
L 46.296875 42.796875 
z
M 35.90625 27.203125 
Q 35.90625 42 28.203125 42 
Q 23 42 16.953125 32.796875 
Q 10.90625 23.59375 10.90625 12.5 
Q 10.90625 7.703125 12.59375 4.34375 
Q 14.296875 1 17.796875 1 
Q 25.09375 1 34.296875 20.09375 
Q 34.40625 20.703125 34.84375 22.046875 
Q 35.296875 23.40625 35.59375 24.703125 
Q 35.90625 26 35.90625 27.203125 
z
" id="STIXGeneral-Italic-945"/>
       <path d="M 63.703125 32 
L 4.796875 32 
L 4.796875 38.59375 
L 63.703125 38.59375 
z
M 63.703125 12 
L 4.796875 12 
L 4.796875 18.59375 
L 63.703125 18.59375 
z
" id="STIXGeneral-Regular-61"/>
       <path d="M 47.296875 16.703125 
L 37 16.703125 
L 37 0 
L 29.203125 0 
L 29.203125 16.703125 
L 1.203125 16.703125 
L 1.203125 23.09375 
L 32.59375 67.59375 
L 37 67.59375 
L 37 23.09375 
L 47.296875 23.09375 
z
M 29.203125 23.09375 
L 29.203125 57.40625 
L 5.203125 23.09375 
z
" id="STIXGeneral-Regular-52"/>
       <path d="M 43.796875 68.09375 
L 40.203125 59.59375 
Q 39.59375 58.296875 37.5 58.296875 
L 18.09375 58.296875 
L 14.09375 49.796875 
Q 25.09375 47.703125 30 45.25 
Q 34.90625 42.796875 39.09375 37 
Q 42.59375 32.203125 42.59375 24.296875 
Q 42.59375 17.09375 40.25 12.1875 
Q 37.90625 7.296875 32.796875 3.5 
Q 26 -1.40625 15.796875 -1.40625 
Q 10.09375 -1.40625 6.59375 0.296875 
Q 3.09375 2 3.09375 4.796875 
Q 3.09375 8.59375 7.59375 8.59375 
Q 11.203125 8.59375 15 5.5 
Q 18.90625 2.296875 22.09375 2.296875 
Q 27.296875 2.296875 31.4375 7.5 
Q 35.59375 12.703125 35.59375 19.203125 
Q 35.59375 28.796875 28.90625 34.203125 
Q 20.203125 41.203125 7.59375 41.203125 
Q 6.40625 41.203125 6.40625 42 
L 6.5 42.5 
L 17.40625 66.203125 
L 38.09375 66.203125 
Q 39.796875 66.203125 40.75 66.703125 
Q 41.703125 67.203125 42.90625 68.796875 
z
" id="STIXGeneral-Regular-53"/>
       <path d="M 23.203125 38.703125 
Q 31 30.796875 31 25.1875 
Q 31 19.59375 27.046875 15.640625 
Q 23.09375 11.703125 17.5 11.703125 
Q 11.796875 11.703125 7.890625 15.640625 
Q 4 19.59375 4 25.40625 
Q 4 31 7.953125 34.84375 
Q 11.90625 38.703125 17.703125 38.703125 
Q 23.203125 38.703125 31 30.796875 
z
M 20.40625 18.296875 
Q 24.40625 22.296875 24.40625 25.1875 
Q 24.40625 28.09375 22.40625 30.09375 
Q 20.40625 32.09375 17.703125 32.09375 
Q 14.59375 32.09375 12.59375 30.140625 
Q 10.59375 28.203125 10.59375 25.40625 
Q 10.59375 22.296875 12.546875 20.296875 
Q 14.5 18.296875 17.5 18.296875 
Q 20.40625 18.296875 24.40625 22.296875 
z
" id="STIXGeneral-Regular-8728"/>
      </defs>
      <use transform="translate(0 0.203125)" xlink:href="#STIXGeneral-Regular-67"/>
      <use transform="translate(66.699997 0.203125)" xlink:href="#STIXGeneral-Regular-117"/>
      <use transform="translate(116.699982 0.203125)" xlink:href="#STIXGeneral-Regular-114"/>
      <use transform="translate(149.999969 0.203125)" xlink:href="#STIXGeneral-Regular-114"/>
      <use transform="translate(183.299957 0.203125)" xlink:href="#STIXGeneral-Regular-101"/>
      <use transform="translate(227.699951 0.203125)" xlink:href="#STIXGeneral-Regular-110"/>
      <use transform="translate(277.699936 0.203125)" xlink:href="#STIXGeneral-Regular-116"/>
      <use transform="translate(305.499924 0.203125)" xlink:href="#STIXGeneral-Regular-32"/>
      <use transform="translate(330.499908 0.203125)" xlink:href="#STIXGeneral-Regular-67"/>
      <use transform="translate(397.199905 0.203125)" xlink:href="#STIXGeneral-Regular-70"/>
      <use transform="translate(452.799896 0.203125)" xlink:href="#STIXGeneral-Regular-68"/>
      <use transform="translate(524.999878 0.203125)" xlink:href="#STIXGeneral-Regular-44"/>
      <use transform="translate(549.999863 0.203125)" xlink:href="#STIXGeneral-Regular-32"/>
      <use transform="translate(574.999847 0.203125)" xlink:href="#STIXGeneral-Italic-945"/>
      <use transform="translate(644.639841 0.203125)" xlink:href="#STIXGeneral-Regular-61"/>
      <use transform="translate(727.579822 0.203125)" xlink:href="#STIXGeneral-Regular-52"/>
      <use transform="translate(777.579807 0.203125)" xlink:href="#STIXGeneral-Regular-53"/>
      <use transform="translate(839.23107 35.478125)scale(0.7)" xlink:href="#STIXGeneral-Regular-8728"/>
     </g>
    </g>
    <g id="line2d_21">
     <path d="M 446.69 79.473594 
L 484.69 79.473594 
" style="fill:none;stroke:#ff7f0e;stroke-dasharray:6.4,1.6,1,1.6;stroke-dashoffset:0;"/>
    </g>
    <g id="line2d_22">
     <g>
      <use style="fill:#ff7f0e;stroke:#ff7f0e;" x="465.69" xlink:href="#m4f11a7d863" y="79.473594"/>
     </g>
    </g>
    <g id="text_8">
     <!-- Experiment, $\alpha = 45 ^\circ$ -->
     <g transform="translate(499.89 86.123594)scale(0.19 -0.19)">
      <defs>
       <path d="M 59.703125 16.90625 
L 55.09375 0 
L 1.203125 0 
L 1.203125 1.90625 
Q 6.90625 2.296875 8.40625 3.9375 
Q 9.90625 5.59375 9.90625 11.40625 
L 9.90625 55 
Q 9.90625 60.59375 8.34375 62.296875 
Q 6.796875 64 1.203125 64.296875 
L 1.203125 66.203125 
L 54.203125 66.203125 
L 54.59375 51.90625 
L 52.09375 51.90625 
Q 51 58.59375 48.203125 60.5 
Q 45.40625 62.40625 36.703125 62.40625 
L 23.59375 62.40625 
Q 21.40625 62.40625 20.75 61.75 
Q 20.09375 61.09375 20.09375 58.796875 
L 20.09375 36.796875 
L 35.203125 36.796875 
Q 41.5 36.796875 43.546875 38.59375 
Q 45.59375 40.40625 46.5 46.40625 
L 48.796875 46.40625 
L 48.796875 23 
L 46.5 23 
Q 45.59375 29.296875 43.59375 31 
Q 41.59375 32.703125 35.203125 32.703125 
L 20.09375 32.703125 
L 20.09375 8.40625 
Q 20.09375 5.40625 22.1875 4.546875 
Q 24.296875 3.703125 30.203125 3.703125 
L 33.796875 3.703125 
Q 44.5 3.703125 49 6.296875 
Q 53.5 8.90625 56.90625 16.90625 
z
" id="STIXGeneral-Regular-69"/>
       <path d="M 47.90625 0 
L 27.796875 0 
L 27.796875 1.5 
Q 30.296875 1.703125 31.046875 2.140625 
Q 31.796875 2.59375 31.796875 3.90625 
Q 31.796875 4.796875 31.203125 5.703125 
L 22.09375 19.703125 
L 14.203125 7.40625 
Q 12.203125 4.296875 12.203125 3.296875 
Q 12.203125 1.5 16.203125 1.5 
L 16.203125 0 
L 1.703125 0 
L 1.703125 1.5 
Q 4.203125 1.703125 5.546875 2.640625 
Q 6.90625 3.59375 9 6.59375 
L 20.40625 23.09375 
L 11 37.5 
Q 8.703125 41 7.09375 42.25 
Q 5.5 43.5 3.296875 43.5 
L 2.40625 43.5 
L 2.40625 45 
L 23.09375 45 
L 23.09375 43.5 
Q 18.796875 43.40625 18.796875 41.296875 
Q 18.796875 39.203125 23.40625 32.40625 
Q 24.703125 30.59375 24.796875 30.40625 
Q 25.296875 31.09375 27.796875 34.796875 
Q 28.296875 35.703125 29 36.703125 
Q 29.703125 37.703125 30.046875 38.296875 
Q 30.40625 38.90625 30.796875 39.5 
Q 31.203125 40.09375 31.34375 40.546875 
Q 31.5 41 31.5 41.296875 
Q 31.5 43.203125 27.5 43.5 
L 27.5 45 
L 43.296875 45 
L 43.296875 43.5 
Q 38.203125 43.296875 35.203125 39.09375 
L 26.90625 27.09375 
L 39.703125 7.5 
Q 43.59375 1.5 47.90625 1.5 
z
" id="STIXGeneral-Regular-120"/>
       <path d="M 15.90625 45.796875 
L 15.90625 38.09375 
Q 22.203125 46 30.296875 46 
Q 37.59375 46 42.296875 40 
Q 47 34 47 24.703125 
Q 47 13.796875 40.953125 6.390625 
Q 34.90625 -1 26 -1 
Q 22.90625 -1 20.75 -0.09375 
Q 18.59375 0.796875 15.90625 3.296875 
L 15.90625 -12.40625 
Q 15.90625 -17.09375 17.5 -18.4375 
Q 19.09375 -19.796875 24.703125 -19.90625 
L 24.703125 -21.703125 
L 0.5 -21.703125 
L 0.5 -20 
Q 4.90625 -19.59375 6.203125 -18.296875 
Q 7.5 -17 7.5 -13.09375 
L 7.5 33.703125 
Q 7.5 37.203125 6.703125 38.296875 
Q 5.90625 39.40625 3.40625 39.40625 
Q 1.796875 39.40625 0.90625 39.296875 
L 0.90625 40.90625 
Q 7.90625 43 15.296875 46 
z
M 15.90625 33.40625 
L 15.90625 8.796875 
Q 15.90625 6.59375 19.34375 4.390625 
Q 22.796875 2.203125 26.296875 2.203125 
Q 31.703125 2.203125 35.046875 7.296875 
Q 38.40625 12.40625 38.40625 20.703125 
Q 38.40625 29.5 35.046875 34.75 
Q 31.703125 40 26.09375 40 
Q 22.59375 40 19.25 37.796875 
Q 15.90625 35.59375 15.90625 33.40625 
z
" id="STIXGeneral-Regular-112"/>
       <path d="M 18 63.203125 
Q 18 61 16.5 59.546875 
Q 15 58.09375 12.796875 58.09375 
Q 10.703125 58.09375 9.25 59.546875 
Q 7.796875 61 7.796875 63.203125 
Q 7.796875 65.296875 9.296875 66.796875 
Q 10.796875 68.296875 12.90625 68.296875 
Q 15.09375 68.296875 16.546875 66.796875 
Q 18 65.296875 18 63.203125 
z
M 25.296875 0 
L 1.59375 0 
L 1.59375 1.5 
Q 6.796875 1.796875 8.140625 3.296875 
Q 9.5 4.796875 9.5 10.40625 
L 9.5 33.09375 
Q 9.5 36.59375 8.796875 38 
Q 8.09375 39.40625 6.203125 39.40625 
Q 3.796875 39.40625 2 38.90625 
L 2 40.5 
L 17.5 46 
L 17.90625 45.59375 
L 17.90625 10.5 
Q 17.90625 4.90625 19.15625 3.40625 
Q 20.40625 1.90625 25.296875 1.5 
z
" id="STIXGeneral-Regular-105"/>
       <path d="M 77.5 0 
L 55.703125 0 
L 55.703125 1.5 
Q 59.90625 1.90625 61.046875 3.25 
Q 62.203125 4.59375 62.203125 9 
L 62.203125 29.59375 
Q 62.203125 35.59375 60.453125 38.1875 
Q 58.703125 40.796875 54.5 40.796875 
Q 51 40.796875 48.546875 39.390625 
Q 46.09375 38 43.796875 34.703125 
L 43.796875 9.5 
Q 43.796875 4.703125 45.25 3.140625 
Q 46.703125 1.59375 51 1.5 
L 51 0 
L 28.59375 0 
L 28.59375 1.5 
Q 33 1.796875 34.203125 2.9375 
Q 35.40625 4.09375 35.40625 8.59375 
L 35.40625 29.703125 
Q 35.40625 40.796875 28.90625 40.796875 
Q 26.09375 40.796875 22.9375 39.546875 
Q 19.796875 38.296875 18.296875 36.5 
Q 17 35 17 34.796875 
L 17 7 
Q 17 3.796875 18.390625 2.75 
Q 19.796875 1.703125 23.796875 1.5 
L 23.796875 0 
L 1.59375 0 
L 1.59375 1.5 
Q 5.796875 1.59375 7.1875 3.046875 
Q 8.59375 4.5 8.59375 8.796875 
L 8.59375 33.59375 
Q 8.59375 37.296875 7.796875 38.75 
Q 7 40.203125 5.09375 40.203125 
Q 3.59375 40.203125 1.90625 39.796875 
L 1.90625 41.5 
Q 8.703125 43.40625 15.796875 46 
L 16.59375 45.703125 
L 16.59375 38.296875 
L 16.796875 38.296875 
Q 21.296875 43 24.75 44.5 
Q 28.203125 46 32.09375 46 
Q 40 46 42.703125 37.59375 
Q 50.5 46 59 46 
Q 70.59375 46 70.59375 28 
L 70.59375 7.703125 
Q 70.59375 4.40625 71.59375 3.15625 
Q 72.59375 1.90625 74.90625 1.703125 
L 77.5 1.5 
z
" id="STIXGeneral-Regular-109"/>
      </defs>
      <use transform="translate(0 0.203125)" xlink:href="#STIXGeneral-Regular-69"/>
      <use transform="translate(61.099991 0.203125)" xlink:href="#STIXGeneral-Regular-120"/>
      <use transform="translate(111.099976 0.203125)" xlink:href="#STIXGeneral-Regular-112"/>
      <use transform="translate(161.09996 0.203125)" xlink:href="#STIXGeneral-Regular-101"/>
      <use transform="translate(205.499954 0.203125)" xlink:href="#STIXGeneral-Regular-114"/>
      <use transform="translate(238.799942 0.203125)" xlink:href="#STIXGeneral-Regular-105"/>
      <use transform="translate(266.59993 0.203125)" xlink:href="#STIXGeneral-Regular-109"/>
      <use transform="translate(344.399918 0.203125)" xlink:href="#STIXGeneral-Regular-101"/>
      <use transform="translate(388.799911 0.203125)" xlink:href="#STIXGeneral-Regular-110"/>
      <use transform="translate(438.799896 0.203125)" xlink:href="#STIXGeneral-Regular-116"/>
      <use transform="translate(466.599884 0.203125)" xlink:href="#STIXGeneral-Regular-44"/>
      <use transform="translate(491.599869 0.203125)" xlink:href="#STIXGeneral-Regular-32"/>
      <use transform="translate(516.599854 0.203125)" xlink:href="#STIXGeneral-Italic-945"/>
      <use transform="translate(586.239847 0.203125)" xlink:href="#STIXGeneral-Regular-61"/>
      <use transform="translate(669.179828 0.203125)" xlink:href="#STIXGeneral-Regular-52"/>
      <use transform="translate(719.179813 0.203125)" xlink:href="#STIXGeneral-Regular-53"/>
      <use transform="translate(780.831076 35.478125)scale(0.7)" xlink:href="#STIXGeneral-Regular-8728"/>
     </g>
    </g>
   </g>
  </g>
  <g id="axes_2">
   <g id="patch_7">
    <path d="M 72 489.6 
L 684 489.6 
L 684 270.171429 
L 72 270.171429 
z
" style="fill:#ffffff;"/>
   </g>
   <g id="matplotlib.axis_3">
    <g id="xtick_10">
     <g id="line2d_23">
      <g>
       <use style="stroke:#000000;stroke-width:0.8;" x="72" xlink:href="#ma981fcd28e" y="489.6"/>
      </g>
     </g>
     <g id="text_9">
      <!-- 0.00 -->
      <g transform="translate(55.375 509.576406)scale(0.19 -0.19)">
       <defs>
        <path d="M 18.09375 4.296875 
Q 18.09375 2.09375 16.4375 0.5 
Q 14.796875 -1.09375 12.5 -1.09375 
Q 10.203125 -1.09375 8.59375 0.5 
Q 7 2.09375 7 4.390625 
Q 7 6.703125 8.640625 8.34375 
Q 10.296875 10 12.59375 10 
Q 14.796875 10 16.4375 8.296875 
Q 18.09375 6.59375 18.09375 4.296875 
z
" id="STIXGeneral-Regular-46"/>
       </defs>
       <use xlink:href="#STIXGeneral-Regular-48"/>
       <use x="49.999985" xlink:href="#STIXGeneral-Regular-46"/>
       <use x="74.999969" xlink:href="#STIXGeneral-Regular-48"/>
       <use x="124.999954" xlink:href="#STIXGeneral-Regular-48"/>
      </g>
     </g>
    </g>
    <g id="xtick_11">
     <g id="line2d_24">
      <g>
       <use style="stroke:#000000;stroke-width:0.8;" x="148.5" xlink:href="#ma981fcd28e" y="489.6"/>
      </g>
     </g>
     <g id="text_10">
      <!-- 0.25 -->
      <g transform="translate(131.875 509.576406)scale(0.19 -0.19)">
       <use xlink:href="#STIXGeneral-Regular-48"/>
       <use x="49.999985" xlink:href="#STIXGeneral-Regular-46"/>
       <use x="74.999969" xlink:href="#STIXGeneral-Regular-50"/>
       <use x="124.999954" xlink:href="#STIXGeneral-Regular-53"/>
      </g>
     </g>
    </g>
    <g id="xtick_12">
     <g id="line2d_25">
      <g>
       <use style="stroke:#000000;stroke-width:0.8;" x="225" xlink:href="#ma981fcd28e" y="489.6"/>
      </g>
     </g>
     <g id="text_11">
      <!-- 0.50 -->
      <g transform="translate(208.375 509.576406)scale(0.19 -0.19)">
       <use xlink:href="#STIXGeneral-Regular-48"/>
       <use x="49.999985" xlink:href="#STIXGeneral-Regular-46"/>
       <use x="74.999969" xlink:href="#STIXGeneral-Regular-53"/>
       <use x="124.999954" xlink:href="#STIXGeneral-Regular-48"/>
      </g>
     </g>
    </g>
    <g id="xtick_13">
     <g id="line2d_26">
      <g>
       <use style="stroke:#000000;stroke-width:0.8;" x="301.5" xlink:href="#ma981fcd28e" y="489.6"/>
      </g>
     </g>
     <g id="text_12">
      <!-- 0.75 -->
      <g transform="translate(284.875 509.576406)scale(0.19 -0.19)">
       <defs>
        <path d="M 44.90625 64.59375 
L 23.703125 -0.796875 
L 17.203125 -0.796875 
L 37 58.796875 
L 15.5 58.796875 
Q 11.203125 58.796875 9.09375 57.296875 
Q 7 55.796875 3.796875 50.59375 
L 2 51.5 
L 8 66.203125 
L 44.90625 66.203125 
z
" id="STIXGeneral-Regular-55"/>
       </defs>
       <use xlink:href="#STIXGeneral-Regular-48"/>
       <use x="49.999985" xlink:href="#STIXGeneral-Regular-46"/>
       <use x="74.999969" xlink:href="#STIXGeneral-Regular-55"/>
       <use x="124.999954" xlink:href="#STIXGeneral-Regular-53"/>
      </g>
     </g>
    </g>
    <g id="xtick_14">
     <g id="line2d_27">
      <g>
       <use style="stroke:#000000;stroke-width:0.8;" x="378" xlink:href="#ma981fcd28e" y="489.6"/>
      </g>
     </g>
     <g id="text_13">
      <!-- 1.00 -->
      <g transform="translate(361.375 509.576406)scale(0.19 -0.19)">
       <use xlink:href="#STIXGeneral-Regular-49"/>
       <use x="49.999985" xlink:href="#STIXGeneral-Regular-46"/>
       <use x="74.999969" xlink:href="#STIXGeneral-Regular-48"/>
       <use x="124.999954" xlink:href="#STIXGeneral-Regular-48"/>
      </g>
     </g>
    </g>
    <g id="xtick_15">
     <g id="line2d_28">
      <g>
       <use style="stroke:#000000;stroke-width:0.8;" x="454.5" xlink:href="#ma981fcd28e" y="489.6"/>
      </g>
     </g>
     <g id="text_14">
      <!-- 1.25 -->
      <g transform="translate(437.875 509.576406)scale(0.19 -0.19)">
       <use xlink:href="#STIXGeneral-Regular-49"/>
       <use x="49.999985" xlink:href="#STIXGeneral-Regular-46"/>
       <use x="74.999969" xlink:href="#STIXGeneral-Regular-50"/>
       <use x="124.999954" xlink:href="#STIXGeneral-Regular-53"/>
      </g>
     </g>
    </g>
    <g id="xtick_16">
     <g id="line2d_29">
      <g>
       <use style="stroke:#000000;stroke-width:0.8;" x="531" xlink:href="#ma981fcd28e" y="489.6"/>
      </g>
     </g>
     <g id="text_15">
      <!-- 1.50 -->
      <g transform="translate(514.375 509.576406)scale(0.19 -0.19)">
       <use xlink:href="#STIXGeneral-Regular-49"/>
       <use x="49.999985" xlink:href="#STIXGeneral-Regular-46"/>
       <use x="74.999969" xlink:href="#STIXGeneral-Regular-53"/>
       <use x="124.999954" xlink:href="#STIXGeneral-Regular-48"/>
      </g>
     </g>
    </g>
    <g id="xtick_17">
     <g id="line2d_30">
      <g>
       <use style="stroke:#000000;stroke-width:0.8;" x="607.5" xlink:href="#ma981fcd28e" y="489.6"/>
      </g>
     </g>
     <g id="text_16">
      <!-- 1.75 -->
      <g transform="translate(590.875 509.576406)scale(0.19 -0.19)">
       <use xlink:href="#STIXGeneral-Regular-49"/>
       <use x="49.999985" xlink:href="#STIXGeneral-Regular-46"/>
       <use x="74.999969" xlink:href="#STIXGeneral-Regular-55"/>
       <use x="124.999954" xlink:href="#STIXGeneral-Regular-53"/>
      </g>
     </g>
    </g>
    <g id="xtick_18">
     <g id="line2d_31">
      <g>
       <use style="stroke:#000000;stroke-width:0.8;" x="684" xlink:href="#ma981fcd28e" y="489.6"/>
      </g>
     </g>
     <g id="text_17">
      <!-- 2.00 -->
      <g transform="translate(667.375 509.576406)scale(0.19 -0.19)">
       <use xlink:href="#STIXGeneral-Regular-50"/>
       <use x="49.999985" xlink:href="#STIXGeneral-Regular-46"/>
       <use x="74.999969" xlink:href="#STIXGeneral-Regular-48"/>
       <use x="124.999954" xlink:href="#STIXGeneral-Regular-48"/>
      </g>
     </g>
    </g>
    <g id="text_18">
     <!-- $\^t$ -->
     <g transform="translate(375.34 530.676406)scale(0.19 -0.19)">
      <defs>
       <path d="M -7.5 50.703125 
L -10.90625 50.703125 
L -23.09375 61 
L -35.203125 50.703125 
L -38.59375 50.703125 
L -26.203125 67.40625 
L -20 67.40625 
z
" id="STIXGeneral-Regular-770"/>
       <path d="M 29.59375 42.796875 
L 29.09375 39.59375 
L 20.703125 39.59375 
L 12 6.796875 
Q 11.796875 6 11.796875 5.40625 
Q 11.796875 3.796875 13.296875 3.796875 
Q 14.5 3.796875 16.09375 5.34375 
Q 17.703125 6.90625 21.40625 11.703125 
L 22.703125 11 
Q 18.09375 4 15.140625 1.453125 
Q 12.203125 -1.09375 8.40625 -1.09375 
Q 3.796875 -1.09375 3.796875 2.59375 
Q 3.796875 3.59375 5.40625 10 
L 13.203125 39.59375 
L 5.703125 39.59375 
L 5.59375 40.203125 
Q 5.59375 42 8.90625 42.703125 
Q 11.40625 43.296875 15.5 46.546875 
Q 19.59375 49.796875 22.203125 53.703125 
Q 22.796875 54.59375 23.59375 54.59375 
Q 24.5 54.59375 24.5 53.796875 
Q 24.5 53.296875 24.40625 53.09375 
L 21.59375 42.796875 
z
" id="STIXGeneral-Italic-116"/>
      </defs>
      <use transform="translate(39.042969 16.59375)" xlink:href="#STIXGeneral-Regular-770"/>
      <use transform="translate(0 0.203125)" xlink:href="#STIXGeneral-Italic-116"/>
     </g>
    </g>
   </g>
   <g id="matplotlib.axis_4">
    <g id="ytick_6">
     <g id="line2d_32">
      <g>
       <use style="stroke:#000000;stroke-width:0.8;" x="72" xlink:href="#m41e41613db" y="455.683735"/>
      </g>
     </g>
     <g id="text_19">
      <!-- −1 -->
      <g transform="translate(42.485 462.171938)scale(0.19 -0.19)">
       <use xlink:href="#STIXGeneral-Regular-8722"/>
       <use x="68.499985" xlink:href="#STIXGeneral-Regular-49"/>
      </g>
     </g>
    </g>
    <g id="ytick_7">
     <g id="line2d_33">
      <g>
       <use style="stroke:#000000;stroke-width:0.8;" x="72" xlink:href="#m41e41613db" y="411.544672"/>
      </g>
     </g>
     <g id="text_20">
      <!-- 0 -->
      <g transform="translate(55.5 418.032875)scale(0.19 -0.19)">
       <use xlink:href="#STIXGeneral-Regular-48"/>
      </g>
     </g>
    </g>
    <g id="ytick_8">
     <g id="line2d_34">
      <g>
       <use style="stroke:#000000;stroke-width:0.8;" x="72" xlink:href="#m41e41613db" y="367.405609"/>
      </g>
     </g>
     <g id="text_21">
      <!-- 1 -->
      <g transform="translate(55.5 373.893813)scale(0.19 -0.19)">
       <use xlink:href="#STIXGeneral-Regular-49"/>
      </g>
     </g>
    </g>
    <g id="ytick_9">
     <g id="line2d_35">
      <g>
       <use style="stroke:#000000;stroke-width:0.8;" x="72" xlink:href="#m41e41613db" y="323.266547"/>
      </g>
     </g>
     <g id="text_22">
      <!-- 2 -->
      <g transform="translate(55.5 329.75475)scale(0.19 -0.19)">
       <use xlink:href="#STIXGeneral-Regular-50"/>
      </g>
     </g>
    </g>
    <g id="ytick_10">
     <g id="line2d_36">
      <g>
       <use style="stroke:#000000;stroke-width:0.8;" x="72" xlink:href="#m41e41613db" y="279.127484"/>
      </g>
     </g>
     <g id="text_23">
      <!-- 3 -->
      <g transform="translate(55.5 285.615687)scale(0.19 -0.19)">
       <use xlink:href="#STIXGeneral-Regular-51"/>
      </g>
     </g>
    </g>
    <g id="text_24">
     <!-- $C_l$ -->
     <g transform="translate(34.361406 388.530714)rotate(-90)scale(0.19 -0.19)">
      <use transform="translate(0 0.40625)" xlink:href="#STIXGeneral-Italic-67"/>
      <use transform="translate(66.699997 -12.821875)scale(0.7)" xlink:href="#STIXGeneral-Italic-108"/>
     </g>
    </g>
   </g>
   <g id="line2d_37">
    <path clip-path="url(#pa8d7621aa2)" d="M 71.95104 410.861333 
L 72.83232 410.311881 
L 73.41984 409.725231 
L 74.00736 408.87297 
L 74.59488 407.650087 
L 75.1824 405.926124 
L 75.76992 403.555315 
L 76.35744 400.403691 
L 77.23872 394.080986 
L 78.41376 383.346999 
L 79.88256 370.155264 
L 80.76384 364.269455 
L 81.64512 360.17121 
L 82.5264 357.490894 
L 83.40768 355.767431 
L 84.28896 354.628357 
L 85.17024 353.828847 
L 86.63904 352.855383 
L 90.45792 350.577066 
L 92.22048 349.212164 
L 93.68928 347.796429 
L 96.92064 343.602767 
L 99.27072 339.568908 
L 100.152 337.776036 
L 101.32704 335.413162 
L 107.496 320.710274 
L 111.02112 311.005392 
L 113.66496 302.854221 
L 113.95872 302.102376 
L 114.84 299.170728 
L 115.13376 298.416142 
L 115.72128 296.315419 
L 116.60256 293.592769 
L 118.36512 287.897084 
L 118.95264 286.203842 
L 119.83392 283.718229 
L 121.30272 280.636588 
L 121.59648 280.497175 
L 121.89024 280.145455 
L 122.47776 280.328396 
L 123.06528 281.345963 
L 123.35904 282.044461 
L 124.24032 285.853757 
L 124.82784 289.278708 
L 126.88416 304.411932 
L 127.47168 307.983563 
L 128.0592 310.973469 
L 129.23424 315.0827 
L 130.70304 318.007717 
L 130.9968 318.22392 
L 131.29056 318.787476 
L 131.58432 319.032742 
L 131.87808 319.470446 
L 132.17184 319.405137 
L 132.4656 319.554527 
L 132.75936 320.099832 
L 133.05312 320.255936 
L 133.34688 320.649721 
L 133.9344 320.993665 
L 134.22816 321.332589 
L 134.52192 321.387743 
L 134.81568 321.677489 
L 135.10944 321.802244 
L 135.4032 322.12023 
L 135.99072 322.164504 
L 136.28448 322.509862 
L 136.57824 322.553216 
L 136.872 322.833963 
L 137.16576 322.88275 
L 137.75328 323.272773 
L 138.04704 323.314559 
L 138.3408 323.596272 
L 138.63456 323.655256 
L 138.92832 323.92384 
L 139.51584 324.05976 
L 139.8096 324.335843 
L 140.10336 324.26954 
L 140.39712 324.474622 
L 140.69088 324.458978 
L 140.98464 324.809789 
L 141.57216 324.854251 
L 141.86592 325.214505 
L 142.15968 325.170733 
L 142.45344 325.444968 
L 142.7472 325.382891 
L 143.04096 325.671752 
L 143.62848 325.778562 
L 143.92224 326.073568 
L 144.216 325.989772 
L 144.50976 326.239094 
L 144.80352 326.290396 
L 145.09728 326.178354 
L 145.39104 326.494971 
L 145.6848 326.48294 
L 145.97856 326.745126 
L 146.27232 326.697231 
L 146.56608 326.96563 
L 147.1536 327.01691 
L 147.44736 327.239025 
L 147.74112 327.140041 
L 148.03488 327.39869 
L 148.6224 327.526766 
L 148.91616 327.731285 
L 149.20992 327.731568 
L 149.50368 328.006807 
L 149.79744 327.861198 
L 150.0912 328.156342 
L 150.67872 328.214893 
L 150.97248 328.45929 
L 151.26624 328.41935 
L 151.56 328.652483 
L 151.85376 328.587959 
L 152.14752 328.848489 
L 152.44128 328.889914 
L 152.73504 328.812813 
L 153.0288 329.069612 
L 153.32256 329.014527 
L 153.61632 329.249189 
L 154.20384 329.280048 
L 154.4976 329.527812 
L 154.79136 329.403793 
L 155.08512 329.652376 
L 155.37888 329.57745 
L 155.67264 329.781852 
L 156.26016 329.758997 
L 156.55392 330.03449 
L 156.84768 329.896853 
L 157.14144 330.154205 
L 157.4352 330.114361 
L 157.72896 330.334107 
L 158.31648 330.328497 
L 158.61024 330.594928 
L 158.904 330.506812 
L 159.19776 330.717827 
L 159.78528 330.700829 
L 160.07904 330.961473 
L 160.3728 330.88564 
L 160.66656 331.099743 
L 160.96032 330.972595 
L 161.25408 331.179967 
L 161.8416 331.149368 
L 162.13536 331.370912 
L 162.42912 331.276984 
L 162.72288 331.488193 
L 163.01664 331.401317 
L 163.3104 331.612925 
L 163.89792 331.560783 
L 164.19168 331.778959 
L 164.48544 331.680171 
L 164.7792 331.917493 
L 165.07296 331.850364 
L 165.36672 331.897464 
L 165.66048 332.063947 
L 165.95424 331.998658 
L 166.248 332.229569 
L 166.54176 332.131105 
L 166.83552 332.337654 
L 167.42304 332.238051 
L 167.7168 332.453968 
L 168.01056 332.428044 
L 168.30432 332.628707 
L 168.59808 332.565731 
L 168.89184 332.710675 
L 169.47936 332.680334 
L 169.77312 332.876643 
L 170.06688 332.805997 
L 170.36064 333.016464 
L 170.94816 332.913512 
L 171.24192 333.10681 
L 171.53568 333.012967 
L 171.82944 333.215145 
L 172.1232 333.132408 
L 172.41696 333.369323 
L 172.71072 333.376024 
L 173.00448 333.269197 
L 173.29824 333.477861 
L 173.592 333.39646 
L 173.88576 333.579275 
L 174.47328 333.549706 
L 174.76704 333.755675 
L 175.0608 333.681413 
L 175.35456 333.852706 
L 175.64832 333.754764 
L 175.94208 333.958738 
L 176.5296 333.905366 
L 176.82336 334.126035 
L 177.11712 333.985603 
L 177.41088 334.191332 
L 177.70464 334.074717 
L 177.9984 334.34299 
L 181.22976 334.654183 
L 181.52352 334.864579 
L 182.11104 334.825114 
L 182.4048 335.014841 
L 182.69856 334.891676 
L 182.99232 335.091618 
L 183.28608 335.022359 
L 183.57984 335.222111 
L 183.8736 335.190868 
L 184.16736 335.347498 
L 184.46112 335.158504 
L 184.75488 335.528373 
L 185.04864 335.259428 
L 185.3424 335.698282 
L 185.63616 335.194809 
L 185.92992 335.866466 
L 186.22368 335.320531 
L 186.51744 335.959505 
L 186.8112 335.406297 
L 187.10496 336.037335 
L 187.39872 335.565883 
L 187.69248 335.988348 
L 187.98624 335.766972 
L 188.28 336.13507 
L 188.57376 335.867195 
L 188.86752 336.23976 
L 189.16128 335.924578 
L 189.45504 336.374095 
L 189.7488 335.844637 
L 190.04256 336.484838 
L 190.33632 335.922353 
L 190.63008 336.571307 
L 190.92384 336.107642 
L 191.2176 336.512107 
L 191.51136 336.263802 
L 191.80512 336.615895 
L 192.09888 336.338004 
L 192.39264 336.680884 
L 192.6864 336.341726 
L 192.98016 336.792387 
L 193.27392 336.365368 
L 193.56768 337.047823 
L 193.86144 336.524578 
L 194.1552 337.167712 
L 194.44896 336.60965 
L 194.74272 337.224988 
L 195.03648 336.774073 
L 195.33024 337.156404 
L 195.624 336.879886 
L 195.91776 337.246872 
L 196.21152 336.955236 
L 196.50528 337.41327 
L 196.79904 336.909337 
L 197.0928 337.547173 
L 197.38656 337.003313 
L 197.68032 337.611276 
L 197.97408 337.073505 
L 198.26784 337.763883 
L 198.5616 337.264683 
L 198.85536 337.642881 
L 199.14912 337.653066 
L 199.44288 337.246239 
L 199.73664 337.892644 
L 200.0304 337.445846 
L 200.32416 337.83554 
L 200.61792 337.569479 
L 200.91168 337.913081 
L 201.20544 337.629465 
L 201.4992 337.989028 
L 201.79296 337.703827 
L 202.08672 338.111501 
L 202.38048 337.590415 
L 202.67424 338.229436 
L 202.968 337.700668 
L 203.26176 338.327302 
L 203.55552 337.773864 
L 203.84928 338.376787 
L 204.14304 337.901219 
L 204.4368 338.297581 
L 204.73056 338.025914 
L 205.02432 338.382768 
L 205.31808 338.101727 
L 205.61184 338.546523 
L 205.9056 338.014868 
L 206.19936 338.603461 
L 206.49312 338.045676 
L 206.78688 338.660281 
L 207.08064 338.111885 
L 207.3744 338.720721 
L 207.66816 338.281589 
L 207.96192 338.728318 
L 208.25568 338.486196 
L 208.54944 338.829699 
L 208.8432 338.552802 
L 209.13696 338.904024 
L 209.43072 338.602692 
L 209.72448 339.047245 
L 210.01824 338.538957 
L 210.312 339.126243 
L 210.60576 338.589589 
L 210.89952 339.197358 
L 211.19328 338.762463 
L 211.48704 339.137576 
L 211.7808 338.859244 
L 212.07456 339.210529 
L 212.36832 338.924276 
L 212.66208 339.26792 
L 212.95584 338.991357 
L 213.2496 339.421001 
L 213.54336 338.909105 
L 213.83712 339.523965 
L 214.13088 338.991462 
L 214.42464 339.586699 
L 214.7184 339.053892 
L 215.01216 339.658486 
L 215.30592 339.199407 
L 215.59968 339.581528 
L 215.89344 339.31148 
L 216.1872 339.659235 
L 216.48096 339.378974 
L 216.77472 339.801174 
L 217.06848 339.307876 
L 217.36224 339.920996 
L 217.656 339.392237 
L 217.94976 339.989408 
L 218.24352 339.455938 
L 218.53728 340.05846 
L 218.83104 339.59016 
L 219.1248 339.967536 
L 219.41856 339.993132 
L 219.71232 339.623529 
L 220.00608 340.272088 
L 220.29984 339.809628 
L 220.5936 340.171661 
L 220.88736 339.905437 
L 221.18112 340.278103 
L 221.47488 339.982376 
L 221.76864 340.335602 
L 222.0624 340.074232 
L 222.35616 340.497851 
L 222.64992 340.015136 
L 222.94368 340.625631 
L 223.23744 340.086494 
L 223.5312 340.668248 
L 223.82496 340.148248 
L 224.11872 340.736889 
L 224.41248 340.306266 
L 224.70624 340.676806 
L 225 340.397424 
L 225.29376 340.730069 
L 225.58752 340.441956 
L 225.88128 340.860215 
L 226.17504 340.401342 
L 226.4688 340.992456 
L 226.76256 340.46985 
L 227.05632 341.107336 
L 227.35008 340.64464 
L 227.64384 341.218944 
L 227.9376 340.775474 
L 228.23136 341.13851 
L 228.52512 340.865254 
L 228.81888 341.211825 
L 229.11264 340.925735 
L 229.4064 341.292857 
L 229.70016 341.004309 
L 229.99392 341.416049 
L 230.28768 340.943673 
L 230.58144 341.548816 
L 230.8752 341.034251 
L 231.16896 341.61044 
L 231.46272 341.184347 
L 231.75648 341.55953 
L 232.05024 341.306686 
L 232.344 341.653438 
L 232.63776 341.390775 
L 232.93152 341.737797 
L 233.22528 341.469582 
L 233.51904 341.884199 
L 233.8128 341.416024 
L 234.10656 342.010069 
L 234.40032 341.506225 
L 234.69408 342.087864 
L 234.98784 341.579606 
L 235.2816 342.177827 
L 235.57536 341.753038 
L 235.86912 342.131357 
L 236.16288 341.869174 
L 236.45664 342.216586 
L 236.7504 341.947157 
L 237.04416 342.360828 
L 237.33792 341.895906 
L 237.63168 342.499684 
L 237.92544 341.999421 
L 238.2192 342.576082 
L 238.51296 342.081648 
L 238.80672 342.65193 
L 239.10048 342.519593 
L 239.39424 342.186922 
L 239.688 342.799967 
L 239.98176 342.295286 
L 240.27552 342.872795 
L 240.56928 342.383543 
L 240.86304 342.968553 
L 241.1568 342.547085 
L 241.45056 342.915869 
L 241.74432 342.680137 
L 242.03808 343.026258 
L 242.33184 342.774661 
L 242.6256 343.193739 
L 242.91936 342.72643 
L 243.21312 343.322276 
L 243.50688 342.830823 
L 243.80064 343.412243 
L 244.0944 342.916319 
L 244.38816 343.491541 
L 244.68192 343.070885 
L 244.97568 343.447906 
L 245.26944 343.190299 
L 245.5632 343.54539 
L 245.85696 343.296639 
L 246.15072 343.762556 
L 246.44448 343.313847 
L 246.73824 343.901511 
L 247.032 343.408893 
L 247.32576 343.984292 
L 247.61952 343.495053 
L 247.91328 344.088609 
L 248.20704 343.683646 
L 248.5008 344.076128 
L 248.79456 343.84562 
L 249.08832 344.176604 
L 249.38208 343.933347 
L 249.67584 344.275097 
L 249.9696 344.027135 
L 250.26336 344.442531 
L 250.55712 343.988779 
L 250.85088 344.575947 
L 251.14464 344.087252 
L 251.4384 344.646365 
L 251.73216 344.267912 
L 252.02592 344.648679 
L 252.31968 344.417807 
L 252.61344 344.759151 
L 252.9072 344.501727 
L 253.20096 344.858135 
L 253.49472 344.619568 
L 253.78848 345.038047 
L 254.08224 344.593936 
L 254.376 345.176186 
L 254.66976 344.697454 
L 254.96352 345.279322 
L 255.25728 344.820432 
L 255.55104 345.391072 
L 255.8448 344.98919 
L 256.13856 345.375096 
L 256.43232 345.150899 
L 256.72608 345.489155 
L 257.01984 345.260679 
L 257.3136 345.680466 
L 257.60736 345.23697 
L 257.90112 345.827836 
L 258.19488 345.362076 
L 258.48864 345.936086 
L 258.7824 345.467648 
L 259.07616 346.026519 
L 259.36992 345.921082 
L 259.66368 345.574821 
L 259.95744 346.199459 
L 260.2512 345.738105 
L 260.54496 346.293193 
L 260.83872 345.832164 
L 261.13248 346.409748 
L 261.42624 346.024844 
L 261.72 346.394487 
L 262.01376 346.186509 
L 262.30752 346.532005 
L 262.60128 346.294741 
L 262.89504 346.712989 
L 263.1888 346.280148 
L 263.48256 346.864618 
L 263.77632 346.409144 
L 264.07008 346.9898 
L 264.36384 346.521184 
L 264.6576 347.087439 
L 264.95136 346.720726 
L 265.24512 347.109725 
L 265.53888 346.893848 
L 265.83264 347.237708 
L 266.1264 347.005878 
L 266.42016 347.353537 
L 266.71392 347.123895 
L 267.00768 347.543992 
L 267.30144 347.120556 
L 267.5952 347.700897 
L 267.88896 347.255439 
L 268.18272 347.824182 
L 268.47648 347.456097 
L 268.77024 347.815646 
L 269.064 347.600999 
L 269.35776 347.923809 
L 269.65152 347.705094 
L 269.94528 348.046979 
L 270.23904 347.825148 
L 270.5328 348.239292 
L 270.82656 347.821104 
L 271.12032 348.401558 
L 271.41408 347.966914 
L 271.70784 348.526687 
L 272.0016 348.166996 
L 272.29536 348.530914 
L 272.58912 348.321002 
L 272.88288 348.666168 
L 273.17664 348.445132 
L 273.4704 348.794552 
L 273.76416 348.56972 
L 274.05792 348.985587 
L 274.35168 348.559096 
L 274.64544 349.130176 
L 274.9392 348.705509 
L 275.23296 349.248158 
L 275.52672 348.843619 
L 275.82048 349.428047 
L 276.11424 349.066781 
L 276.408 349.424673 
L 276.70176 349.214097 
L 276.99552 349.560407 
L 277.28928 349.34226 
L 277.58304 349.769233 
L 277.8768 349.363841 
L 278.17056 349.948078 
L 278.46432 349.511295 
L 278.75808 350.071049 
L 279.05184 349.622885 
L 279.3456 350.159257 
L 279.63936 350.086888 
L 279.93312 349.751784 
L 280.22688 350.389721 
L 280.52064 349.960351 
L 280.8144 350.51008 
L 281.10816 350.088934 
L 281.40192 350.657557 
L 281.69568 350.308612 
L 281.98944 350.6665 
L 282.2832 350.454236 
L 282.57696 350.796183 
L 282.87072 350.587829 
L 283.16448 351.00832 
L 283.45824 350.614032 
L 283.752 351.189569 
L 284.04576 350.777425 
L 284.33952 351.322096 
L 284.63328 350.911568 
L 284.92704 351.465569 
L 285.2208 351.121185 
L 285.51456 351.475 
L 285.80832 351.282808 
L 286.10208 351.640324 
L 286.39584 351.426515 
L 286.6896 351.780969 
L 286.98336 351.572439 
L 287.27712 351.986489 
L 287.57088 351.593746 
L 287.86464 352.167319 
L 288.1584 351.758108 
L 288.45216 352.287735 
L 288.74592 351.939797 
L 289.03968 352.296984 
L 289.33344 352.109046 
L 289.6272 352.458735 
L 289.92096 352.258002 
L 290.21472 352.607274 
L 290.50848 352.402359 
L 290.80224 352.821389 
L 291.096 352.432129 
L 291.38976 352.991592 
L 291.68352 352.594227 
L 291.97728 353.142791 
L 292.27104 352.818021 
L 292.5648 353.170254 
L 292.85856 352.98753 
L 293.15232 353.333898 
L 293.44608 353.135885 
L 293.73984 353.491096 
L 294.0336 353.28585 
L 294.32736 353.70108 
L 294.62112 353.30873 
L 294.91488 353.872231 
L 295.20864 353.47563 
L 295.5024 354.019272 
L 295.79616 353.633752 
L 296.08992 354.179757 
L 296.38368 353.863483 
L 296.67744 354.225607 
L 296.9712 354.039844 
L 297.26496 354.383294 
L 297.55872 354.175522 
L 297.85248 354.583594 
L 298.14624 354.21993 
L 298.44 354.78745 
L 298.73376 354.3998 
L 299.02752 354.936458 
L 299.32128 354.560396 
L 299.61504 355.082399 
L 299.9088 355.044968 
L 300.20256 354.716992 
L 300.49632 355.338952 
L 300.79008 354.95359 
L 301.08384 355.495327 
L 301.3776 355.11746 
L 301.67136 355.657165 
L 301.96512 355.33532 
L 302.25888 355.690862 
L 302.55264 355.531819 
L 302.8464 355.886754 
L 303.14016 355.692473 
L 303.43392 356.104697 
L 303.72768 355.744401 
L 304.02144 356.312593 
L 304.3152 355.9484 
L 304.60896 356.483921 
L 304.90272 356.113664 
L 305.19648 356.644719 
L 305.49024 356.348269 
L 305.784 356.711397 
L 306.07776 356.544028 
L 306.37152 356.893523 
L 306.66528 356.69736 
L 306.95904 357.051209 
L 307.2528 356.877232 
L 307.54656 357.290808 
L 307.84032 356.940338 
L 308.13408 357.508622 
L 308.42784 357.125237 
L 308.7216 357.658196 
L 309.01536 357.357425 
L 309.30912 357.721271 
L 309.60288 357.566755 
L 309.89664 357.896957 
L 310.1904 357.989642 
L 310.48416 357.673804 
L 310.77792 358.282491 
L 311.07168 357.99123 
L 311.36544 358.332453 
L 311.6592 358.451949 
L 311.95296 358.131573 
L 312.24672 358.726291 
L 312.83424 358.522122 
L 313.128 358.987383 
L 313.42176 358.888045 
L 313.71552 359.017902 
L 314.00928 358.997596 
L 314.30304 359.438552 
L 314.5968 359.096138 
L 314.89056 359.437292 
L 315.18432 359.544696 
L 315.47808 359.473695 
L 315.77184 359.901665 
L 316.0656 359.718637 
L 316.35936 360.085072 
L 316.65312 359.973561 
L 316.94688 360.121853 
L 317.24064 360.653386 
L 317.5344 360.23174 
L 317.82816 360.992938 
L 318.12192 360.800638 
L 318.41568 360.863016 
L 318.70944 361.608651 
L 319.0032 361.249482 
L 319.59072 362.382019 
L 319.88448 362.354852 
L 320.17824 363.016442 
L 320.472 363.378511 
L 320.76576 364.277268 
L 321.05952 364.645415 
L 321.64704 366.260656 
L 323.11584 373.532173 
L 324.29088 383.205082 
L 325.17216 391.945825 
L 326.3472 403.967886 
L 327.22848 411.664229 
L 328.69728 420.048627 
L 329.87232 424.571622 
L 330.16608 425.276723 
L 330.7536 427.051818 
L 331.04736 427.636779 
L 331.34112 428.566328 
L 331.63488 428.889061 
L 332.51616 430.97269 
L 332.80992 431.384731 
L 333.10368 432.194928 
L 333.39744 432.520534 
L 333.98496 433.792492 
L 334.27872 433.971631 
L 334.57248 434.933255 
L 334.86624 435.092029 
L 335.45376 436.348115 
L 336.04128 437.277985 
L 336.33504 437.693054 
L 336.6288 438.493405 
L 337.21632 439.16256 
L 337.51008 439.980202 
L 337.80384 440.272745 
L 339.86016 443.754482 
L 340.15392 444.437244 
L 340.74144 445.052332 
L 341.91648 447.201594 
L 342.21024 447.301453 
L 342.504 448.358468 
L 342.79776 448.307519 
L 343.09152 449.061215 
L 343.38528 449.406163 
L 343.67904 450.093321 
L 343.9728 450.147069 
L 344.26656 451.112384 
L 344.56032 451.186786 
L 345.14784 452.280507 
L 345.73536 453.227505 
L 346.02912 453.611595 
L 346.32288 454.290509 
L 346.61664 454.40541 
L 346.9104 455.387607 
L 347.20416 455.408218 
L 347.79168 456.737371 
L 348.08544 456.737682 
L 348.67296 458.155551 
L 348.96672 458.125672 
L 349.55424 459.541997 
L 349.848 459.50405 
L 350.43552 460.906109 
L 350.72928 460.926931 
L 351.3168 462.32609 
L 351.90432 462.918094 
L 354.2544 466.686225 
L 354.84192 467.482314 
L 355.13568 468.134273 
L 355.42944 468.404103 
L 355.7232 469.034372 
L 356.31072 469.678049 
L 356.60448 470.055366 
L 356.89824 470.721768 
L 357.192 470.961746 
L 357.48576 471.526018 
L 358.36704 472.298885 
L 358.6608 473.186251 
L 358.95456 473.373617 
L 359.24832 473.881661 
L 359.54208 473.855003 
L 359.83584 474.731577 
L 360.1296 474.664461 
L 360.42336 474.808314 
L 360.71712 475.716927 
L 361.30464 476.027321 
L 361.5984 476.583475 
L 361.89216 476.518975 
L 362.18592 477.102025 
L 362.77344 477.406745 
L 363.36096 478.374773 
L 363.65472 478.052451 
L 363.94848 478.762098 
L 364.24224 478.571482 
L 364.536 478.958674 
L 364.82976 479.076961 
L 365.12352 479.382667 
L 365.41728 479.458891 
L 365.71104 479.398699 
L 366.29856 479.625974 
L 366.59232 479.522646 
L 366.88608 479.579048 
L 367.17984 479.513594 
L 368.06112 478.513003 
L 368.64864 477.412351 
L 369.52992 474.250291 
L 370.11744 471.617444 
L 371.88 457.033562 
L 374.52384 433.11017 
L 375.11136 429.492541 
L 375.40512 428.141344 
L 375.69888 426.165817 
L 375.99264 425.345135 
L 376.2864 423.822971 
L 377.16768 420.887506 
L 377.7552 419.178162 
L 378.04896 418.213488 
L 378.63648 417.13106 
L 378.93024 416.022187 
L 379.81152 414.272525 
L 380.10528 413.396914 
L 380.39904 413.210465 
L 380.98656 411.938357 
L 382.74912 408.419701 
L 383.04288 408.123358 
L 383.33664 407.314822 
L 383.6304 407.129362 
L 383.92416 406.465413 
L 384.21792 406.259086 
L 385.68672 403.553112 
L 385.98048 403.437927 
L 389.21184 399.082975 
L 392.73696 395.354991 
L 395.3808 393.306994 
L 395.67456 393.361632 
L 395.96832 392.605959 
L 396.26208 392.780195 
L 396.55584 392.674587 
L 396.8496 392.327341 
L 398.90592 391.3095 
L 400.37472 390.770766 
L 400.96224 390.518963 
L 403.01856 389.929738 
L 406.54368 389.620004 
L 409.18752 389.743296 
L 410.36256 389.979031 
L 411.24384 390.159961 
L 415.06272 391.131964 
L 418.00032 392.228739 
L 422.11296 394.270624 
L 429.45696 398.355763 
L 433.27584 400.636327 
L 434.45088 401.353616 
L 436.80096 402.775551 
L 450.60768 410.481683 
L 453.54528 411.995695 
L 462.9456 416.50664 
L 464.4144 417.134936 
L 466.17696 417.870857 
L 467.64576 418.556225 
L 469.11456 419.163924 
L 470.2896 419.607173 
L 482.62752 423.962308 
L 491.73408 426.377357 
L 495.2592 427.100352 
L 498.1968 427.644102 
L 506.42208 428.734614 
L 514.05984 429.248941 
L 522.28512 429.372569 
L 526.98528 429.295619 
L 535.50432 428.930586 
L 540.49824 428.57811 
L 551.66112 427.605994 
L 563.41152 426.393579 
L 575.45568 425.055922 
L 578.68704 424.708548 
L 604.24416 422.116645 
L 606.00672 421.974507 
L 614.232 421.288751 
L 638.02656 419.724818 
L 676.80288 418.010306 
L 684.14688 417.754429 
L 684.14688 417.754429 
" style="fill:none;stroke:#1f77b4;stroke-linecap:square;stroke-width:5;"/>
   </g>
   <g id="line2d_38">
    <path clip-path="url(#pa8d7621aa2)" d="M 72.390057 408.419783 
L 77.070746 370.530499 
L 82.921606 349.437495 
L 88.382409 356.077885 
L 95.793499 346.703217 
L 103.594646 332.250604 
L 109.835564 328.735103 
L 114.516252 302.954766 
L 122.707457 297.486209 
L 130.118547 325.219603 
L 141.43021 327.172658 
L 158.592734 332.250604 
L 172.244742 328.735103 
L 188.237094 336.937938 
L 214.370937 340.453438 
L 251.816444 345.140772 
L 276.780115 350.99994 
L 295.502868 356.859108 
L 316.175908 363.890109 
L 320.466539 395.920225 
L 329.047801 415.060173 
L 341.919694 433.809509 
L 353.621415 448.262123 
L 363.372849 464.667792 
L 368.053537 450.215178 
L 379.755258 407.247949 
L 389.506692 399.826337 
L 400.038241 390.451669 
L 415.640535 388.498613 
L 434.363289 404.513671 
L 454.256214 413.497728 
L 491.311663 419.356896 
L 526.416826 421.309952 
L 577.124283 421.309952 
L 609.108987 418.185062 
L 646.944551 415.060173 
L 682.439771 417.013229 
" style="fill:none;stroke:#ff7f0e;stroke-dasharray:6.4,1.6,1,1.6;stroke-dashoffset:0;"/>
    <g clip-path="url(#pa8d7621aa2)">
     <use style="fill:#ff7f0e;stroke:#ff7f0e;" x="72.390057" xlink:href="#m4f11a7d863" y="408.419783"/>
     <use style="fill:#ff7f0e;stroke:#ff7f0e;" x="77.070746" xlink:href="#m4f11a7d863" y="370.530499"/>
     <use style="fill:#ff7f0e;stroke:#ff7f0e;" x="82.921606" xlink:href="#m4f11a7d863" y="349.437495"/>
     <use style="fill:#ff7f0e;stroke:#ff7f0e;" x="88.382409" xlink:href="#m4f11a7d863" y="356.077885"/>
     <use style="fill:#ff7f0e;stroke:#ff7f0e;" x="95.793499" xlink:href="#m4f11a7d863" y="346.703217"/>
     <use style="fill:#ff7f0e;stroke:#ff7f0e;" x="103.594646" xlink:href="#m4f11a7d863" y="332.250604"/>
     <use style="fill:#ff7f0e;stroke:#ff7f0e;" x="109.835564" xlink:href="#m4f11a7d863" y="328.735103"/>
     <use style="fill:#ff7f0e;stroke:#ff7f0e;" x="114.516252" xlink:href="#m4f11a7d863" y="302.954766"/>
     <use style="fill:#ff7f0e;stroke:#ff7f0e;" x="122.707457" xlink:href="#m4f11a7d863" y="297.486209"/>
     <use style="fill:#ff7f0e;stroke:#ff7f0e;" x="130.118547" xlink:href="#m4f11a7d863" y="325.219603"/>
     <use style="fill:#ff7f0e;stroke:#ff7f0e;" x="141.43021" xlink:href="#m4f11a7d863" y="327.172658"/>
     <use style="fill:#ff7f0e;stroke:#ff7f0e;" x="158.592734" xlink:href="#m4f11a7d863" y="332.250604"/>
     <use style="fill:#ff7f0e;stroke:#ff7f0e;" x="172.244742" xlink:href="#m4f11a7d863" y="328.735103"/>
     <use style="fill:#ff7f0e;stroke:#ff7f0e;" x="188.237094" xlink:href="#m4f11a7d863" y="336.937938"/>
     <use style="fill:#ff7f0e;stroke:#ff7f0e;" x="214.370937" xlink:href="#m4f11a7d863" y="340.453438"/>
     <use style="fill:#ff7f0e;stroke:#ff7f0e;" x="251.816444" xlink:href="#m4f11a7d863" y="345.140772"/>
     <use style="fill:#ff7f0e;stroke:#ff7f0e;" x="276.780115" xlink:href="#m4f11a7d863" y="350.99994"/>
     <use style="fill:#ff7f0e;stroke:#ff7f0e;" x="295.502868" xlink:href="#m4f11a7d863" y="356.859108"/>
     <use style="fill:#ff7f0e;stroke:#ff7f0e;" x="316.175908" xlink:href="#m4f11a7d863" y="363.890109"/>
     <use style="fill:#ff7f0e;stroke:#ff7f0e;" x="320.466539" xlink:href="#m4f11a7d863" y="395.920225"/>
     <use style="fill:#ff7f0e;stroke:#ff7f0e;" x="329.047801" xlink:href="#m4f11a7d863" y="415.060173"/>
     <use style="fill:#ff7f0e;stroke:#ff7f0e;" x="341.919694" xlink:href="#m4f11a7d863" y="433.809509"/>
     <use style="fill:#ff7f0e;stroke:#ff7f0e;" x="353.621415" xlink:href="#m4f11a7d863" y="448.262123"/>
     <use style="fill:#ff7f0e;stroke:#ff7f0e;" x="363.372849" xlink:href="#m4f11a7d863" y="464.667792"/>
     <use style="fill:#ff7f0e;stroke:#ff7f0e;" x="368.053537" xlink:href="#m4f11a7d863" y="450.215178"/>
     <use style="fill:#ff7f0e;stroke:#ff7f0e;" x="379.755258" xlink:href="#m4f11a7d863" y="407.247949"/>
     <use style="fill:#ff7f0e;stroke:#ff7f0e;" x="389.506692" xlink:href="#m4f11a7d863" y="399.826337"/>
     <use style="fill:#ff7f0e;stroke:#ff7f0e;" x="400.038241" xlink:href="#m4f11a7d863" y="390.451669"/>
     <use style="fill:#ff7f0e;stroke:#ff7f0e;" x="415.640535" xlink:href="#m4f11a7d863" y="388.498613"/>
     <use style="fill:#ff7f0e;stroke:#ff7f0e;" x="434.363289" xlink:href="#m4f11a7d863" y="404.513671"/>
     <use style="fill:#ff7f0e;stroke:#ff7f0e;" x="454.256214" xlink:href="#m4f11a7d863" y="413.497728"/>
     <use style="fill:#ff7f0e;stroke:#ff7f0e;" x="491.311663" xlink:href="#m4f11a7d863" y="419.356896"/>
     <use style="fill:#ff7f0e;stroke:#ff7f0e;" x="526.416826" xlink:href="#m4f11a7d863" y="421.309952"/>
     <use style="fill:#ff7f0e;stroke:#ff7f0e;" x="577.124283" xlink:href="#m4f11a7d863" y="421.309952"/>
     <use style="fill:#ff7f0e;stroke:#ff7f0e;" x="609.108987" xlink:href="#m4f11a7d863" y="418.185062"/>
     <use style="fill:#ff7f0e;stroke:#ff7f0e;" x="646.944551" xlink:href="#m4f11a7d863" y="415.060173"/>
     <use style="fill:#ff7f0e;stroke:#ff7f0e;" x="682.439771" xlink:href="#m4f11a7d863" y="417.013229"/>
    </g>
   </g>
   <g id="line2d_39">
    <path clip-path="url(#pa8d7621aa2)" d="M 378 489.6 
L 378 270.171429 
" style="fill:none;stroke:#000000;stroke-linecap:square;stroke-width:0.5;"/>
   </g>
   <g id="line2d_40">
    <path clip-path="url(#pa8d7621aa2)" d="M 72 411.544672 
L 684 411.544672 
" style="fill:none;stroke:#000000;stroke-dasharray:3.2,0.8,0.5,0.8;stroke-dashoffset:0;stroke-width:0.5;"/>
   </g>
   <g id="patch_8">
    <path d="M 72 489.6 
L 72 270.171429 
" style="fill:none;stroke:#000000;stroke-linecap:square;stroke-linejoin:miter;stroke-width:0.8;"/>
   </g>
   <g id="patch_9">
    <path d="M 684 489.6 
L 684 270.171429 
" style="fill:none;stroke:#000000;stroke-linecap:square;stroke-linejoin:miter;stroke-width:0.8;"/>
   </g>
   <g id="patch_10">
    <path d="M 72 489.6 
L 684 489.6 
" style="fill:none;stroke:#000000;stroke-linecap:square;stroke-linejoin:miter;stroke-width:0.8;"/>
   </g>
   <g id="patch_11">
    <path d="M 72 270.171429 
L 684 270.171429 
" style="fill:none;stroke:#000000;stroke-linecap:square;stroke-linejoin:miter;stroke-width:0.8;"/>
   </g>
   <g id="legend_2">
    <g id="line2d_41">
     <path d="M 446.69 293.921429 
L 484.69 293.921429 
" style="fill:none;stroke:#1f77b4;stroke-linecap:square;stroke-width:5;"/>
    </g>
    <g id="line2d_42"/>
    <g id="text_25">
     <!-- Current CFD, $\alpha = 60 ^\circ$ -->
     <g transform="translate(499.89 300.571429)scale(0.19 -0.19)">
      <defs>
       <path d="M 44.59375 68.40625 
L 44.796875 66.796875 
Q 33 64.90625 25.09375 57.25 
Q 17.203125 49.59375 15.203125 38.296875 
Q 21 42.796875 27.90625 42.796875 
Q 36.703125 42.796875 41.75 37.1875 
Q 46.796875 31.59375 46.796875 21.90625 
Q 46.796875 12.09375 41.703125 5.90625 
Q 35.796875 -1.40625 25.796875 -1.40625 
Q 13.59375 -1.40625 8.09375 8.703125 
Q 3.40625 17.296875 3.40625 27.90625 
Q 3.40625 44.296875 14.296875 55.5 
Q 20.5 61.90625 27.046875 64.546875 
Q 33.59375 67.203125 44.59375 68.40625 
z
M 37.796875 18.796875 
Q 37.796875 38.203125 24.296875 38.203125 
Q 19.296875 38.203125 16 35.546875 
Q 12.703125 32.90625 12.703125 26.59375 
Q 12.703125 14.90625 16.34375 8.15625 
Q 20 1.40625 26.90625 1.40625 
Q 32.203125 1.40625 35 6.15625 
Q 37.796875 10.90625 37.796875 18.796875 
z
" id="STIXGeneral-Regular-54"/>
      </defs>
      <use transform="translate(0 0.59375)" xlink:href="#STIXGeneral-Regular-67"/>
      <use transform="translate(66.699997 0.59375)" xlink:href="#STIXGeneral-Regular-117"/>
      <use transform="translate(116.699982 0.59375)" xlink:href="#STIXGeneral-Regular-114"/>
      <use transform="translate(149.999969 0.59375)" xlink:href="#STIXGeneral-Regular-114"/>
      <use transform="translate(183.299957 0.59375)" xlink:href="#STIXGeneral-Regular-101"/>
      <use transform="translate(227.699951 0.59375)" xlink:href="#STIXGeneral-Regular-110"/>
      <use transform="translate(277.699936 0.59375)" xlink:href="#STIXGeneral-Regular-116"/>
      <use transform="translate(305.499924 0.59375)" xlink:href="#STIXGeneral-Regular-32"/>
      <use transform="translate(330.499908 0.59375)" xlink:href="#STIXGeneral-Regular-67"/>
      <use transform="translate(397.199905 0.59375)" xlink:href="#STIXGeneral-Regular-70"/>
      <use transform="translate(452.799896 0.59375)" xlink:href="#STIXGeneral-Regular-68"/>
      <use transform="translate(524.999878 0.59375)" xlink:href="#STIXGeneral-Regular-44"/>
      <use transform="translate(549.999863 0.59375)" xlink:href="#STIXGeneral-Regular-32"/>
      <use transform="translate(574.999847 0.59375)" xlink:href="#STIXGeneral-Italic-945"/>
      <use transform="translate(644.639841 0.59375)" xlink:href="#STIXGeneral-Regular-61"/>
      <use transform="translate(727.579822 0.59375)" xlink:href="#STIXGeneral-Regular-54"/>
      <use transform="translate(777.579807 0.59375)" xlink:href="#STIXGeneral-Regular-48"/>
      <use transform="translate(839.23107 35.86875)scale(0.7)" xlink:href="#STIXGeneral-Regular-8728"/>
     </g>
    </g>
    <g id="line2d_43">
     <path d="M 446.69 320.845022 
L 484.69 320.845022 
" style="fill:none;stroke:#ff7f0e;stroke-dasharray:6.4,1.6,1,1.6;stroke-dashoffset:0;"/>
    </g>
    <g id="line2d_44">
     <g>
      <use style="fill:#ff7f0e;stroke:#ff7f0e;" x="465.69" xlink:href="#m4f11a7d863" y="320.845022"/>
     </g>
    </g>
    <g id="text_26">
     <!-- Experiment, $\alpha = 60 ^\circ$ -->
     <g transform="translate(499.89 327.495022)scale(0.19 -0.19)">
      <use transform="translate(0 0.59375)" xlink:href="#STIXGeneral-Regular-69"/>
      <use transform="translate(61.099991 0.59375)" xlink:href="#STIXGeneral-Regular-120"/>
      <use transform="translate(111.099976 0.59375)" xlink:href="#STIXGeneral-Regular-112"/>
      <use transform="translate(161.09996 0.59375)" xlink:href="#STIXGeneral-Regular-101"/>
      <use transform="translate(205.499954 0.59375)" xlink:href="#STIXGeneral-Regular-114"/>
      <use transform="translate(238.799942 0.59375)" xlink:href="#STIXGeneral-Regular-105"/>
      <use transform="translate(266.59993 0.59375)" xlink:href="#STIXGeneral-Regular-109"/>
      <use transform="translate(344.399918 0.59375)" xlink:href="#STIXGeneral-Regular-101"/>
      <use transform="translate(388.799911 0.59375)" xlink:href="#STIXGeneral-Regular-110"/>
      <use transform="translate(438.799896 0.59375)" xlink:href="#STIXGeneral-Regular-116"/>
      <use transform="translate(466.599884 0.59375)" xlink:href="#STIXGeneral-Regular-44"/>
      <use transform="translate(491.599869 0.59375)" xlink:href="#STIXGeneral-Regular-32"/>
      <use transform="translate(516.599854 0.59375)" xlink:href="#STIXGeneral-Italic-945"/>
      <use transform="translate(586.239847 0.59375)" xlink:href="#STIXGeneral-Regular-61"/>
      <use transform="translate(669.179828 0.59375)" xlink:href="#STIXGeneral-Regular-54"/>
      <use transform="translate(719.179813 0.59375)" xlink:href="#STIXGeneral-Regular-48"/>
      <use transform="translate(780.831076 35.86875)scale(0.7)" xlink:href="#STIXGeneral-Regular-8728"/>
     </g>
    </g>
   </g>
  </g>
 </g>
 <defs>
  <clipPath id="p16e8e59fcf">
   <rect height="219.428571" width="612" x="72" y="28.8"/>
  </clipPath>
  <clipPath id="pa8d7621aa2">
   <rect height="219.428571" width="612" x="72" y="270.171429"/>
  </clipPath>
 </defs>
</svg>
