<?xml version="1.0" encoding="utf-8" standalone="no"?>
<!DOCTYPE svg PUBLIC "-//W3C//DTD SVG 1.1//EN"
  "http://www.w3.org/Graphics/SVG/1.1/DTD/svg11.dtd">
<!-- Created with matplotlib (https://matplotlib.org/) -->
<svg height="1008pt" version="1.1" viewBox="0 0 936 1008" width="936pt" xmlns="http://www.w3.org/2000/svg" xmlns:xlink="http://www.w3.org/1999/xlink">
 <defs>
  <style type="text/css">
*{stroke-linecap:butt;stroke-linejoin:round;}
  </style>
 </defs>
 <g id="figure_1">
  <g id="patch_1">
   <path d="M 0 1008 
L 936 1008 
L 936 0 
L 0 0 
z
" style="fill:#ffffff;"/>
  </g>
  <g id="axes_1">
   <g id="patch_2">
    <path d="M 117 267.390573 
L 462.428571 267.390573 
L 462.428571 104.097067 
L 117 104.097067 
z
" style="fill:#ffffff;"/>
   </g>
   <g id="matplotlib.axis_1">
    <g id="xtick_1">
     <g id="line2d_1">
      <defs>
       <path d="M 0 0 
L 0 3.5 
" id="mf754010f0a" style="stroke:#000000;stroke-width:0.8;"/>
      </defs>
      <g>
       <use style="fill:#ffffff;stroke:#000000;stroke-width:0.8;" x="132.701299" xlink:href="#mf754010f0a" y="267.390573"/>
      </g>
     </g>
    </g>
    <g id="xtick_2">
     <g id="line2d_2">
      <g>
       <use style="fill:#ffffff;stroke:#000000;stroke-width:0.8;" x="195.506494" xlink:href="#mf754010f0a" y="267.390573"/>
      </g>
     </g>
    </g>
    <g id="xtick_3">
     <g id="line2d_3">
      <g>
       <use style="fill:#ffffff;stroke:#000000;stroke-width:0.8;" x="258.311688" xlink:href="#mf754010f0a" y="267.390573"/>
      </g>
     </g>
    </g>
    <g id="xtick_4">
     <g id="line2d_4">
      <g>
       <use style="fill:#ffffff;stroke:#000000;stroke-width:0.8;" x="321.116883" xlink:href="#mf754010f0a" y="267.390573"/>
      </g>
     </g>
    </g>
    <g id="xtick_5">
     <g id="line2d_5">
      <g>
       <use style="fill:#ffffff;stroke:#000000;stroke-width:0.8;" x="383.922078" xlink:href="#mf754010f0a" y="267.390573"/>
      </g>
     </g>
    </g>
    <g id="xtick_6">
     <g id="line2d_6">
      <g>
       <use style="fill:#ffffff;stroke:#000000;stroke-width:0.8;" x="446.727273" xlink:href="#mf754010f0a" y="267.390573"/>
      </g>
     </g>
    </g>
   </g>
   <g id="matplotlib.axis_2">
    <g id="ytick_1">
     <g id="line2d_7">
      <defs>
       <path d="M 0 0 
L -3.5 0 
" id="m397f1d49b6" style="stroke:#000000;stroke-width:0.8;"/>
      </defs>
      <g>
       <use style="fill:#ffffff;stroke:#000000;stroke-width:0.8;" x="117" xlink:href="#m397f1d49b6" y="214.006158"/>
      </g>
     </g>
     <g id="text_1">
      <!-- −0.2 -->
      <defs>
       <path d="M 62.09375 22 
L 6.40625 22 
L 6.40625 28.59375 
L 62.09375 28.59375 
z
" id="STIXGeneral-Regular-8722"/>
       <path d="M 47.59375 33 
Q 47.59375 26.296875 46.296875 20.34375 
Q 45 14.40625 42.453125 9.40625 
Q 39.90625 4.40625 35.40625 1.5 
Q 30.90625 -1.40625 25 -1.40625 
Q 18.90625 -1.40625 14.296875 1.6875 
Q 9.703125 4.796875 7.203125 10 
Q 4.703125 15.203125 3.546875 21.09375 
Q 2.40625 27 2.40625 33.59375 
Q 2.40625 42.90625 4.703125 50.34375 
Q 7 57.796875 12.34375 62.6875 
Q 17.703125 67.59375 25.40625 67.59375 
Q 35.203125 67.59375 41.390625 58 
Q 47.59375 48.40625 47.59375 33 
z
M 38 32.5 
Q 38 48.296875 34.640625 56.640625 
Q 31.296875 65 24.796875 65 
Q 18.59375 65 15.296875 56.59375 
Q 12 48.203125 12 32.90625 
Q 12 17.5 15.296875 9.34375 
Q 18.59375 1.203125 25 1.203125 
Q 31.296875 1.203125 34.640625 9.34375 
Q 38 17.5 38 32.5 
z
" id="STIXGeneral-Regular-48"/>
       <path d="M 18.09375 4.296875 
Q 18.09375 2.09375 16.4375 0.5 
Q 14.796875 -1.09375 12.5 -1.09375 
Q 10.203125 -1.09375 8.59375 0.5 
Q 7 2.09375 7 4.390625 
Q 7 6.703125 8.640625 8.34375 
Q 10.296875 10 12.59375 10 
Q 14.796875 10 16.4375 8.296875 
Q 18.09375 6.59375 18.09375 4.296875 
z
" id="STIXGeneral-Regular-46"/>
       <path d="M 47.40625 13.703125 
L 42 0 
L 2.90625 0 
L 2.90625 1.203125 
L 20.703125 20.09375 
Q 27.703125 27.40625 30.703125 33.5 
Q 33.703125 39.59375 33.703125 46.09375 
Q 33.703125 52.796875 30 56.5 
Q 26.296875 60.203125 19.796875 60.203125 
Q 14.40625 60.203125 11.25 57.390625 
Q 8.09375 54.59375 5.09375 47.203125 
L 3 47.703125 
Q 4.703125 57 9.84375 62.296875 
Q 15 67.59375 23.796875 67.59375 
Q 32.09375 67.59375 37.1875 62.59375 
Q 42.296875 57.59375 42.296875 50 
Q 42.296875 38.703125 29.5 25.203125 
L 13 7.59375 
L 36.40625 7.59375 
Q 39.703125 7.59375 41.640625 8.890625 
Q 43.59375 10.203125 46 14.296875 
z
" id="STIXGeneral-Regular-50"/>
      </defs>
      <g transform="translate(75.17 220.152877)scale(0.18 -0.18)">
       <use xlink:href="#STIXGeneral-Regular-8722"/>
       <use x="68.499985" xlink:href="#STIXGeneral-Regular-48"/>
       <use x="118.499969" xlink:href="#STIXGeneral-Regular-46"/>
       <use x="143.499954" xlink:href="#STIXGeneral-Regular-50"/>
      </g>
     </g>
    </g>
    <g id="ytick_2">
     <g id="line2d_8">
      <g>
       <use style="fill:#ffffff;stroke:#000000;stroke-width:0.8;" x="117" xlink:href="#m397f1d49b6" y="151.200963"/>
      </g>
     </g>
     <g id="text_2">
      <!-- 0.0 -->
      <g transform="translate(87.5 157.347682)scale(0.18 -0.18)">
       <use xlink:href="#STIXGeneral-Regular-48"/>
       <use x="49.999985" xlink:href="#STIXGeneral-Regular-46"/>
       <use x="74.999969" xlink:href="#STIXGeneral-Regular-48"/>
      </g>
     </g>
    </g>
    <g id="text_3">
     <!-- $c/R$ -->
     <defs>
      <path d="M 35 10.703125 
L 36.59375 9.703125 
Q 32 3.90625 27.640625 1.40625 
Q 23.296875 -1.09375 17.703125 -1.09375 
Q 10.59375 -1.09375 6.796875 2.796875 
Q 3 6.703125 3 14.296875 
Q 3 21 6.390625 27.25 
Q 9.796875 33.5 15.296875 38 
Q 23 44.09375 32 44.09375 
Q 36.59375 44.09375 39.546875 41.796875 
Q 42.5 39.5 42.5 36 
Q 42.5 34 41.09375 32.59375 
Q 39.703125 31.203125 37.703125 31.203125 
Q 35.703125 31.203125 34.75 32.34375 
Q 33.796875 33.5 33.796875 35.203125 
Q 33.796875 36.09375 34.546875 37.546875 
Q 35.296875 39 35.296875 40 
Q 35.296875 42 31.59375 42 
Q 25.296875 42 20.703125 37.203125 
Q 11.59375 27.59375 11.59375 13.90625 
Q 11.59375 8.5 13.890625 5.5 
Q 16.203125 2.5 20.5 2.5 
Q 24.40625 2.5 27.59375 4.390625 
Q 30.796875 6.296875 35 10.703125 
z
" id="STIXGeneral-Italic-99"/>
      <path d="M 28.703125 67.59375 
L 5.90625 -1.40625 
L -0.90625 -1.40625 
L 22 67.59375 
z
" id="STIXGeneral-Regular-47"/>
      <path d="M 13.203125 65.296875 
L 38.40625 65.296875 
Q 48.09375 65.296875 53.4375 61.5 
Q 58.796875 57.703125 58.796875 51.203125 
Q 58.796875 43.40625 52.203125 38.40625 
Q 48.296875 35.40625 39.09375 33.296875 
L 48 9.796875 
Q 49.703125 5.203125 51.546875 3.390625 
Q 53.40625 1.59375 56.703125 1.59375 
L 56.703125 0 
L 42 0 
L 29.703125 32.40625 
L 23.09375 32.90625 
L 17.59375 12.59375 
Q 16.296875 8 16.296875 6.296875 
Q 16.296875 4 17.59375 3 
Q 18.90625 2 23 1.59375 
L 23 0 
L -1.296875 0 
L -1.296875 1.59375 
Q 2.703125 2.09375 4.34375 3.796875 
Q 6 5.5 7.203125 10.09375 
L 19.09375 53.203125 
Q 20.296875 57.796875 20.296875 59.5 
Q 20.296875 61.296875 18.90625 62.296875 
Q 17.703125 63.09375 13.203125 63.703125 
z
M 30.59375 59.296875 
L 24.296875 36.59375 
Q 27.40625 36.09375 29.40625 36.09375 
Q 38.296875 36.09375 43.296875 40.09375 
Q 48.296875 44.09375 48.296875 51.09375 
Q 48.296875 56.296875 45.1875 59.296875 
Q 42.09375 62.296875 36.296875 62.296875 
Q 31.40625 62.296875 30.59375 59.296875 
z
" id="STIXGeneral-Italic-82"/>
     </defs>
     <g transform="translate(67.263438 197.80382)rotate(-90)scale(0.18 -0.18)">
      <use transform="translate(0 0.40625)" xlink:href="#STIXGeneral-Italic-99"/>
      <use transform="translate(44.399994 0.40625)" xlink:href="#STIXGeneral-Regular-47"/>
      <use transform="translate(72.199982 0.40625)" xlink:href="#STIXGeneral-Italic-82"/>
     </g>
    </g>
   </g>
   <g id="line2d_9">
    <path clip-path="url(#p1c7bf37a5a)" d="M 117 151.200963 
L 462.428571 151.200963 
" style="fill:none;stroke:#000000;stroke-dasharray:3.2,0.8,0.5,0.8;stroke-dashoffset:0;stroke-width:0.5;"/>
   </g>
   <g id="line2d_10">
    <path clip-path="url(#p1c7bf37a5a)" d="M 132.701299 148.438866 
L 133.015325 143.343953 
L 133.643377 140.406302 
L 134.271429 138.695135 
L 135.213506 136.890711 
L 136.155584 135.530266 
L 137.411688 134.090761 
L 138.981818 132.650303 
L 140.865974 131.246544 
L 143.064156 129.896929 
L 145.576364 128.60916 
L 148.716623 127.262083 
L 152.484935 125.914927 
L 156.881299 124.60613 
L 161.905714 123.360652 
L 167.558182 122.195165 
L 174.152727 121.072835 
L 181.689351 120.029824 
L 190.168052 119.094065 
L 199.588831 118.28821 
L 209.951688 117.63187 
L 221.256623 117.1433 
L 233.503636 116.84076 
L 246.692727 116.743711 
L 260.50987 116.86868 
L 274.955065 117.226521 
L 289.714286 117.818646 
L 304.473506 118.63382 
L 319.232727 119.673333 
L 333.677922 120.91633 
L 347.495065 122.329175 
L 360.37013 123.86345 
L 372.617143 125.544856 
L 383.922078 127.322147 
L 393.970909 129.120889 
L 403.077662 130.971619 
L 411.242338 132.858252 
L 418.150909 134.674715 
L 424.117403 136.462304 
L 429.141818 138.185367 
L 433.538182 139.927791 
L 436.992468 141.526271 
L 439.818701 143.069236 
L 442.016883 144.509593 
L 443.587013 145.761376 
L 444.843117 147.013531 
L 445.785195 148.266911 
L 446.413247 149.532664 
L 446.727273 151.200963 
L 446.727273 151.200963 
L 446.413247 156.205859 
L 445.785195 160.00312 
L 444.843117 163.763258 
L 443.587013 167.519723 
L 442.330909 170.580799 
L 440.760779 173.844095 
L 438.876623 177.231129 
L 436.678442 180.694135 
L 434.166234 184.202158 
L 431.34 187.733775 
L 428.19974 191.273184 
L 424.745455 194.808008 
L 420.977143 198.328006 
L 416.894805 201.824291 
L 412.498442 205.288816 
L 407.788052 208.714038 
L 402.763636 212.092679 
L 397.425195 215.417541 
L 391.772727 218.681362 
L 385.806234 221.876694 
L 379.525714 224.995788 
L 372.931169 228.030481 
L 366.022597 230.972081 
L 358.8 233.811235 
L 351.263377 236.537788 
L 343.412727 239.140605 
L 335.248052 241.607369 
L 327.083377 243.842813 
L 318.604675 245.930534 
L 310.125974 247.788491 
L 301.647273 249.422366 
L 293.168571 250.83533 
L 284.68987 252.028195 
L 276.211169 252.999453 
L 267.732468 253.745201 
L 259.567792 254.244162 
L 251.403117 254.519674 
L 243.552468 254.56342 
L 236.015844 254.389198 
L 228.793247 254.009705 
L 221.570649 253.405613 
L 214.662078 252.598611 
L 208.067532 251.59802 
L 201.787013 250.412665 
L 195.820519 249.051068 
L 190.482078 247.613275 
L 185.457662 246.045097 
L 180.747273 244.359019 
L 176.036883 242.432203 
L 171.640519 240.380865 
L 167.558182 238.218357 
L 163.78987 235.960505 
L 160.335584 233.626498 
L 157.195325 231.240002 
L 154.369091 228.83052 
L 151.542857 226.116131 
L 149.030649 223.384102 
L 146.832468 220.68188 
L 144.634286 217.605462 
L 142.75013 214.578814 
L 141.18 211.691193 
L 139.60987 208.352915 
L 138.353766 205.23447 
L 137.097662 201.540778 
L 136.155584 198.213054 
L 135.213506 194.131718 
L 134.585455 190.735558 
L 133.957403 186.385129 
L 133.329351 180.006443 
L 133.015325 174.771992 
L 132.701299 159.487255 
L 132.701299 159.487255 
" style="fill:none;stroke:#000000;stroke-linecap:square;stroke-width:4;"/>
   </g>
   <g id="patch_3">
    <path d="M 117 267.390573 
L 117 104.097067 
" style="fill:none;stroke:#000000;stroke-linecap:square;stroke-linejoin:miter;stroke-width:0.8;"/>
   </g>
   <g id="patch_4">
    <path d="M 462.428571 267.390573 
L 462.428571 104.097067 
" style="fill:none;stroke:#000000;stroke-linecap:square;stroke-linejoin:miter;stroke-width:0.8;"/>
   </g>
   <g id="patch_5">
    <path d="M 117 267.390573 
L 462.428571 267.390573 
" style="fill:none;stroke:#000000;stroke-linecap:square;stroke-linejoin:miter;stroke-width:0.8;"/>
   </g>
   <g id="patch_6">
    <path d="M 117 104.097067 
L 462.428571 104.097067 
" style="fill:none;stroke:#000000;stroke-linecap:square;stroke-linejoin:miter;stroke-width:0.8;"/>
   </g>
   <g id="text_4">
    <!-- Fruit fly -->
    <defs>
     <path d="M 54.59375 51.90625 
L 52.09375 51.90625 
Q 51 58.703125 48.34375 60.546875 
Q 45.703125 62.40625 36.703125 62.40625 
L 23.5 62.40625 
Q 21.40625 62.40625 20.75 61.65625 
Q 20.09375 60.90625 20.09375 58.5 
L 20.09375 36.796875 
L 34.296875 36.796875 
Q 40.59375 36.796875 42.75 38.59375 
Q 44.90625 40.40625 45.59375 46.296875 
L 47.90625 46.296875 
L 47.90625 23 
L 45.59375 23 
Q 45 29.09375 42.890625 30.890625 
Q 40.796875 32.703125 34.296875 32.703125 
L 20.09375 32.703125 
L 20.09375 11.203125 
Q 20.09375 5.5 21.75 3.84375 
Q 23.40625 2.203125 29.203125 1.90625 
L 29.203125 0 
L 1.09375 0 
L 1.09375 1.90625 
Q 6.796875 2.296875 8.34375 4.046875 
Q 9.90625 5.796875 9.90625 12.296875 
L 9.90625 55.09375 
Q 9.90625 60.59375 8.40625 62.25 
Q 6.90625 63.90625 1.203125 64.296875 
L 1.203125 66.203125 
L 54.09375 66.203125 
z
" id="STIXGeneral-Regular-70"/>
     <path d="M 16 45.796875 
L 16 36.59375 
Q 19.796875 42 22.34375 44 
Q 24.90625 46 28 46 
Q 30.59375 46 32.046875 44.59375 
Q 33.5 43.203125 33.5 40.703125 
Q 33.5 38.59375 32.453125 37.390625 
Q 31.40625 36.203125 29.59375 36.203125 
Q 27.703125 36.203125 25.59375 38.203125 
Q 24 39.703125 23 39.703125 
Q 20.90625 39.703125 18.453125 36.796875 
Q 16 33.90625 16 31.5 
L 16 9 
Q 16 4.703125 17.703125 3.203125 
Q 19.40625 1.703125 24.5 1.5 
L 24.5 0 
L 0.5 0 
L 0.5 1.5 
Q 5.296875 2.40625 6.4375 3.5 
Q 7.59375 4.59375 7.59375 8.40625 
L 7.59375 33.40625 
Q 7.59375 36.703125 6.84375 38.046875 
Q 6.09375 39.40625 4.203125 39.40625 
Q 2.59375 39.40625 0.703125 39 
L 0.703125 40.59375 
Q 7 42.59375 15.5 46 
z
" id="STIXGeneral-Regular-114"/>
     <path d="M 48 5 
L 48 3.59375 
Q 40.203125 1.5 34.296875 -0.90625 
L 33.796875 -0.59375 
L 33.796875 7.59375 
L 33.59375 7.59375 
Q 27.296875 -1 19.296875 -1 
Q 13.59375 -1 10.34375 2.5 
Q 7.09375 6 7.09375 11.796875 
L 7.09375 36.90625 
Q 7.09375 40.59375 5.796875 42 
Q 4.5 43.40625 0.90625 43.59375 
L 0.90625 45 
L 15.5 45 
L 15.5 12.703125 
Q 15.5 9.296875 17.546875 7.046875 
Q 19.59375 4.796875 22.59375 4.796875 
Q 27.5 4.796875 31 7.90625 
Q 32.296875 9.09375 32.796875 10.140625 
Q 33.296875 11.203125 33.296875 13.703125 
L 33.296875 36.796875 
Q 33.296875 40.703125 31.890625 41.84375 
Q 30.5 43 25.90625 43.296875 
L 25.90625 45 
L 41.703125 45 
L 41.703125 10.703125 
Q 41.703125 7.203125 42.84375 6.09375 
Q 44 5 47.40625 5 
z
" id="STIXGeneral-Regular-117"/>
     <path d="M 18 63.203125 
Q 18 61 16.5 59.546875 
Q 15 58.09375 12.796875 58.09375 
Q 10.703125 58.09375 9.25 59.546875 
Q 7.796875 61 7.796875 63.203125 
Q 7.796875 65.296875 9.296875 66.796875 
Q 10.796875 68.296875 12.90625 68.296875 
Q 15.09375 68.296875 16.546875 66.796875 
Q 18 65.296875 18 63.203125 
z
M 25.296875 0 
L 1.59375 0 
L 1.59375 1.5 
Q 6.796875 1.796875 8.140625 3.296875 
Q 9.5 4.796875 9.5 10.40625 
L 9.5 33.09375 
Q 9.5 36.59375 8.796875 38 
Q 8.09375 39.40625 6.203125 39.40625 
Q 3.796875 39.40625 2 38.90625 
L 2 40.5 
L 17.5 46 
L 17.90625 45.59375 
L 17.90625 10.5 
Q 17.90625 4.90625 19.15625 3.40625 
Q 20.40625 1.90625 25.296875 1.5 
z
" id="STIXGeneral-Regular-105"/>
     <path d="M 26.59375 7.703125 
L 27.90625 6.59375 
Q 23.09375 -1 15.796875 -1 
Q 7 -1 7 11.703125 
L 7 41.796875 
L 1.703125 41.796875 
Q 1.296875 42.09375 1.296875 42.5 
Q 1.296875 43.296875 3 44.40625 
Q 6.796875 46.59375 12.703125 55.09375 
Q 12.90625 55.40625 13.65625 56.34375 
Q 14.40625 57.296875 14.703125 57.90625 
Q 15.40625 57.90625 15.40625 56.59375 
L 15.40625 45 
L 25.5 45 
L 25.5 41.796875 
L 15.40625 41.796875 
L 15.40625 13.203125 
Q 15.40625 8.40625 16.59375 6.296875 
Q 17.796875 4.203125 20.59375 4.203125 
Q 23.59375 4.203125 26.59375 7.703125 
z
" id="STIXGeneral-Regular-116"/>
     <path id="STIXGeneral-Regular-32"/>
     <path d="M 2.09375 45 
L 10.296875 45 
Q 10.40625 51 11.09375 54.34375 
Q 11.796875 57.703125 13.796875 61.09375 
Q 18 68.296875 27.90625 68.296875 
Q 32.40625 68.296875 35.34375 66.546875 
Q 38.296875 64.796875 38.296875 62.09375 
Q 38.296875 60.40625 37.09375 59.203125 
Q 35.90625 58 34.09375 58 
Q 31.703125 58 29.59375 61.59375 
Q 27.203125 65.5 24.296875 65.5 
Q 18.703125 65.5 18.703125 56.59375 
L 18.703125 45 
L 30.90625 45 
L 30.90625 41.796875 
L 18.703125 41.796875 
L 18.703125 10.40625 
Q 18.703125 4.796875 20.296875 3.25 
Q 21.90625 1.703125 28 1.5 
L 28 0 
L 2 0 
L 2 1.5 
Q 7.40625 1.796875 8.84375 3.34375 
Q 10.296875 4.90625 10.296875 10.40625 
L 10.296875 41.796875 
L 2.09375 41.796875 
z
" id="STIXGeneral-Regular-102"/>
     <path d="M 25.703125 0 
L 2.09375 0 
L 2.09375 1.5 
Q 6.796875 1.90625 8.296875 3.453125 
Q 9.796875 5 9.796875 9.203125 
L 9.796875 56.09375 
Q 9.796875 59.703125 8.890625 61.09375 
Q 8 62.5 5.59375 62.5 
Q 3.5 62.5 1.90625 62.296875 
L 1.90625 63.90625 
Q 11.40625 66.203125 17.703125 68.296875 
L 18.203125 67.90625 
L 18.203125 8.703125 
Q 18.203125 4.5 19.59375 3.140625 
Q 21 1.796875 25.703125 1.5 
z
" id="STIXGeneral-Regular-108"/>
     <path d="M 47.5 45 
L 47.5 43.5 
Q 45.703125 43.296875 44.59375 42.1875 
Q 43.5 41.09375 42.5 38.40625 
L 27.5 -2.5 
Q 23.59375 -13.09375 19.640625 -17.4375 
Q 15.703125 -21.796875 10 -21.796875 
Q 6.796875 -21.796875 4.890625 -20.140625 
Q 3 -18.5 3 -16 
Q 3 -14.09375 4.25 -12.75 
Q 5.5 -11.40625 7.296875 -11.40625 
Q 10.203125 -11.40625 12.5 -12.703125 
Q 13.796875 -13.40625 15.09375 -13.40625 
Q 17.203125 -13.40625 20.09375 -9 
Q 21.5 -7 22.796875 -3.296875 
Q 24.09375 0.40625 24.09375 1.796875 
Q 24.09375 3.09375 19.90625 11.90625 
L 6.703125 40.09375 
Q 5.40625 43 1.40625 43.59375 
L 1.40625 45 
L 21.90625 45 
L 21.90625 43.5 
Q 18.703125 43.40625 17.453125 42.796875 
Q 16.203125 42.203125 16.203125 40.796875 
Q 16.203125 39.703125 17.5 36.703125 
L 28.703125 11.703125 
L 38.40625 39.296875 
Q 38.796875 40.203125 38.796875 41.09375 
Q 38.796875 43.5 34.203125 43.5 
L 34.203125 45 
z
" id="STIXGeneral-Regular-121"/>
    </defs>
    <g transform="translate(259.962254 95.218586)scale(0.18 -0.18)">
     <use xlink:href="#STIXGeneral-Regular-70"/>
     <use x="55.599991" xlink:href="#STIXGeneral-Regular-114"/>
     <use x="88.899979" xlink:href="#STIXGeneral-Regular-117"/>
     <use x="138.899963" xlink:href="#STIXGeneral-Regular-105"/>
     <use x="166.699951" xlink:href="#STIXGeneral-Regular-116"/>
     <use x="194.499939" xlink:href="#STIXGeneral-Regular-32"/>
     <use x="219.499924" xlink:href="#STIXGeneral-Regular-102"/>
     <use x="252.799911" xlink:href="#STIXGeneral-Regular-108"/>
     <use x="280.599899" xlink:href="#STIXGeneral-Regular-121"/>
    </g>
   </g>
  </g>
  <g id="axes_2">
   <g id="patch_7">
    <path d="M 496.971429 267.390573 
L 842.4 267.390573 
L 842.4 104.097067 
L 496.971429 104.097067 
z
" style="fill:#ffffff;"/>
   </g>
   <g id="matplotlib.axis_3">
    <g id="xtick_7">
     <g id="line2d_11">
      <g>
       <use style="fill:#ffffff;stroke:#000000;stroke-width:0.8;" x="512.672727" xlink:href="#mf754010f0a" y="267.390573"/>
      </g>
     </g>
    </g>
    <g id="xtick_8">
     <g id="line2d_12">
      <g>
       <use style="fill:#ffffff;stroke:#000000;stroke-width:0.8;" x="575.477922" xlink:href="#mf754010f0a" y="267.390573"/>
      </g>
     </g>
    </g>
    <g id="xtick_9">
     <g id="line2d_13">
      <g>
       <use style="fill:#ffffff;stroke:#000000;stroke-width:0.8;" x="638.283117" xlink:href="#mf754010f0a" y="267.390573"/>
      </g>
     </g>
    </g>
    <g id="xtick_10">
     <g id="line2d_14">
      <g>
       <use style="fill:#ffffff;stroke:#000000;stroke-width:0.8;" x="701.088312" xlink:href="#mf754010f0a" y="267.390573"/>
      </g>
     </g>
    </g>
    <g id="xtick_11">
     <g id="line2d_15">
      <g>
       <use style="fill:#ffffff;stroke:#000000;stroke-width:0.8;" x="763.893506" xlink:href="#mf754010f0a" y="267.390573"/>
      </g>
     </g>
    </g>
    <g id="xtick_12">
     <g id="line2d_16">
      <g>
       <use style="fill:#ffffff;stroke:#000000;stroke-width:0.8;" x="826.698701" xlink:href="#mf754010f0a" y="267.390573"/>
      </g>
     </g>
    </g>
   </g>
   <g id="matplotlib.axis_4">
    <g id="ytick_3">
     <g id="line2d_17">
      <g>
       <use style="fill:#ffffff;stroke:#000000;stroke-width:0.8;" x="496.971429" xlink:href="#m397f1d49b6" y="214.006158"/>
      </g>
     </g>
    </g>
    <g id="ytick_4">
     <g id="line2d_18">
      <g>
       <use style="fill:#ffffff;stroke:#000000;stroke-width:0.8;" x="496.971429" xlink:href="#m397f1d49b6" y="151.200963"/>
      </g>
     </g>
    </g>
   </g>
   <g id="line2d_19">
    <path clip-path="url(#p7aeace5fad)" d="M 496.971429 151.200963 
L 842.4 151.200963 
" style="fill:none;stroke:#000000;stroke-dasharray:3.2,0.8,0.5,0.8;stroke-dashoffset:0;stroke-width:0.5;"/>
   </g>
   <g id="line2d_20">
    <path clip-path="url(#p7aeace5fad)" d="M 512.672727 148.597035 
L 517.383117 148.579496 
L 521.465455 146.828009 
L 527.117922 144.657983 
L 534.026494 142.253504 
L 542.191169 139.656888 
L 551.297922 137.000462 
L 561.346753 134.309481 
L 572.023636 131.688273 
L 583.014545 129.219462 
L 594.319481 126.904606 
L 605.938442 124.75005 
L 617.871429 122.765981 
L 629.804416 121.009247 
L 641.737403 119.478664 
L 653.67039 118.175885 
L 665.289351 117.130365 
L 676.908312 116.311326 
L 688.213247 115.740424 
L 699.204156 115.40973 
L 709.881039 115.312943 
L 720.243896 115.44537 
L 729.978701 115.789176 
L 739.399481 116.34265 
L 748.192208 117.074947 
L 756.670909 118.000729 
L 764.521558 119.074332 
L 772.058182 120.328252 
L 778.966753 121.699643 
L 785.247273 123.162167 
L 791.213766 124.778016 
L 796.552208 126.44997 
L 801.262597 128.143581 
L 805.658961 129.956126 
L 809.427273 131.737952 
L 812.881558 133.615286 
L 815.707792 135.385486 
L 818.22 137.20588 
L 820.418182 139.075353 
L 822.302338 140.995752 
L 823.558442 142.540017 
L 824.814545 144.461546 
L 825.756623 146.41566 
L 826.384675 148.426332 
L 826.698701 151.200963 
L 826.698701 151.200963 
L 826.384675 159.524857 
L 825.756623 165.556873 
L 824.814545 171.419214 
L 823.872468 175.877299 
L 822.616364 180.732972 
L 821.046234 185.778185 
L 819.476104 190.098654 
L 817.591948 194.631783 
L 815.393766 199.275796 
L 813.195584 203.403188 
L 810.683377 207.634372 
L 808.171169 211.453272 
L 805.344935 215.34993 
L 802.204675 219.270121 
L 799.064416 222.829644 
L 795.61013 226.391861 
L 792.155844 229.635102 
L 788.387532 232.856581 
L 784.619221 235.78698 
L 780.536883 238.669996 
L 776.454545 241.281185 
L 772.058182 243.819096 
L 767.661818 246.098588 
L 762.951429 248.278925 
L 758.241039 250.21003 
L 753.530649 251.910582 
L 748.506234 253.488141 
L 743.481818 254.837651 
L 738.143377 256.037198 
L 732.804935 257.009388 
L 727.152468 257.804678 
L 721.5 258.371628 
L 715.847532 258.721231 
L 709.881039 258.865023 
L 703.914545 258.787116 
L 697.634026 258.474981 
L 691.353506 257.935332 
L 685.072987 257.175691 
L 678.478442 256.148419 
L 671.883896 254.892268 
L 665.289351 253.412756 
L 658.380779 251.628261 
L 651.472208 249.608073 
L 644.563636 247.355633 
L 637.655065 244.873487 
L 630.746494 242.163297 
L 623.523896 239.086906 
L 616.301299 235.761871 
L 609.078701 232.186756 
L 601.856104 228.358773 
L 594.633506 224.273575 
L 587.410909 219.924947 
L 580.502338 215.511059 
L 573.593766 210.838389 
L 566.685195 205.893679 
L 560.090649 200.9037 
L 553.496104 195.62879 
L 547.215584 190.313753 
L 541.249091 184.968316 
L 535.596623 179.596314 
L 530.572208 174.520375 
L 525.861818 169.439588 
L 521.779481 164.700828 
L 518.325195 160.337063 
L 517.383117 159.065364 
L 516.441039 159.012748 
L 512.672727 159.012748 
L 512.672727 159.012748 
" style="fill:none;stroke:#000000;stroke-linecap:square;stroke-width:4;"/>
   </g>
   <g id="patch_8">
    <path d="M 496.971429 267.390573 
L 496.971429 104.097067 
" style="fill:none;stroke:#000000;stroke-linecap:square;stroke-linejoin:miter;stroke-width:0.8;"/>
   </g>
   <g id="patch_9">
    <path d="M 842.4 267.390573 
L 842.4 104.097067 
" style="fill:none;stroke:#000000;stroke-linecap:square;stroke-linejoin:miter;stroke-width:0.8;"/>
   </g>
   <g id="patch_10">
    <path d="M 496.971429 267.390573 
L 842.4 267.390573 
" style="fill:none;stroke:#000000;stroke-linecap:square;stroke-linejoin:miter;stroke-width:0.8;"/>
   </g>
   <g id="patch_11">
    <path d="M 496.971429 104.097067 
L 842.4 104.097067 
" style="fill:none;stroke:#000000;stroke-linecap:square;stroke-linejoin:miter;stroke-width:0.8;"/>
   </g>
   <g id="text_5">
    <!-- Bumblebee -->
    <defs>
     <path d="M 42.203125 34.90625 
L 42.203125 34.796875 
Q 49.703125 33.59375 54.40625 29.296875 
Q 59.296875 24.90625 59.296875 17.796875 
Q 59.296875 9.5 52.796875 4.75 
Q 46.296875 0 35.40625 0 
L 1.703125 0 
L 1.703125 1.90625 
Q 7.59375 2.09375 9.4375 3.84375 
Q 11.296875 5.59375 11.296875 11.296875 
L 11.296875 55 
Q 11.296875 60.796875 9.59375 62.34375 
Q 7.90625 63.90625 1.703125 64.296875 
L 1.703125 66.203125 
L 29.703125 66.203125 
Q 42.59375 66.203125 49.25 61.84375 
Q 55.90625 57.5 55.90625 49.5 
Q 55.90625 42.703125 51.796875 39.09375 
Q 48.90625 36.59375 42.203125 34.90625 
z
M 21.5 36.59375 
L 30.703125 36.59375 
Q 45.703125 36.59375 45.703125 49 
Q 45.703125 55.40625 41.25 58.953125 
Q 36.796875 62.5 28 62.5 
L 23.90625 62.5 
Q 21.5 62.5 21.5 59.296875 
z
M 21.5 32.59375 
L 21.5 8.203125 
Q 21.5 5.703125 22.84375 4.703125 
Q 24.203125 3.703125 27.703125 3.703125 
Q 34.5 3.703125 37.703125 4.453125 
Q 40.90625 5.203125 44 8 
Q 47.796875 11.296875 47.796875 17.90625 
Q 47.796875 25.5 43.09375 28.59375 
Q 42 29.40625 40.890625 29.953125 
Q 39.796875 30.5 38.9375 30.84375 
Q 38.09375 31.203125 36.6875 31.5 
Q 35.296875 31.796875 34.546875 31.9375 
Q 33.796875 32.09375 31.890625 32.1875 
Q 30 32.296875 29.09375 32.34375 
Q 28.203125 32.40625 25.546875 32.5 
Q 22.90625 32.59375 21.5 32.59375 
z
" id="STIXGeneral-Regular-66"/>
     <path d="M 77.5 0 
L 55.703125 0 
L 55.703125 1.5 
Q 59.90625 1.90625 61.046875 3.25 
Q 62.203125 4.59375 62.203125 9 
L 62.203125 29.59375 
Q 62.203125 35.59375 60.453125 38.1875 
Q 58.703125 40.796875 54.5 40.796875 
Q 51 40.796875 48.546875 39.390625 
Q 46.09375 38 43.796875 34.703125 
L 43.796875 9.5 
Q 43.796875 4.703125 45.25 3.140625 
Q 46.703125 1.59375 51 1.5 
L 51 0 
L 28.59375 0 
L 28.59375 1.5 
Q 33 1.796875 34.203125 2.9375 
Q 35.40625 4.09375 35.40625 8.59375 
L 35.40625 29.703125 
Q 35.40625 40.796875 28.90625 40.796875 
Q 26.09375 40.796875 22.9375 39.546875 
Q 19.796875 38.296875 18.296875 36.5 
Q 17 35 17 34.796875 
L 17 7 
Q 17 3.796875 18.390625 2.75 
Q 19.796875 1.703125 23.796875 1.5 
L 23.796875 0 
L 1.59375 0 
L 1.59375 1.5 
Q 5.796875 1.59375 7.1875 3.046875 
Q 8.59375 4.5 8.59375 8.796875 
L 8.59375 33.59375 
Q 8.59375 37.296875 7.796875 38.75 
Q 7 40.203125 5.09375 40.203125 
Q 3.59375 40.203125 1.90625 39.796875 
L 1.90625 41.5 
Q 8.703125 43.40625 15.796875 46 
L 16.59375 45.703125 
L 16.59375 38.296875 
L 16.796875 38.296875 
Q 21.296875 43 24.75 44.5 
Q 28.203125 46 32.09375 46 
Q 40 46 42.703125 37.59375 
Q 50.5 46 59 46 
Q 70.59375 46 70.59375 28 
L 70.59375 7.703125 
Q 70.59375 4.40625 71.59375 3.15625 
Q 72.59375 1.90625 74.90625 1.703125 
L 77.5 1.5 
z
" id="STIXGeneral-Regular-109"/>
     <path d="M 15.296875 68.09375 
L 15.296875 37.59375 
Q 16.90625 41.40625 20.546875 43.703125 
Q 24.203125 46 28.796875 46 
Q 36.703125 46 41.75 39.703125 
Q 46.796875 33.40625 46.796875 24 
Q 46.796875 13 40.09375 6 
Q 33.40625 -1 23.40625 -1 
Q 17.296875 -1 12.09375 1.046875 
Q 6.90625 3.09375 6.90625 5.59375 
L 6.90625 56.59375 
Q 6.90625 60.296875 6 61.34375 
Q 5.09375 62.40625 2 62.40625 
Q 1.296875 62.40625 0.296875 62.203125 
L 0.296875 63.90625 
L 3.296875 64.796875 
Q 13.5 67.90625 14.796875 68.296875 
z
M 15.296875 31.796875 
L 15.296875 7.40625 
Q 15.296875 5.09375 18.140625 3.640625 
Q 21 2.203125 25 2.203125 
Q 30.90625 2.203125 34.296875 6.5 
Q 38 11.09375 38 19.703125 
Q 38 29.5 34.09375 35 
Q 30.796875 39.703125 25.203125 39.703125 
Q 21.203125 39.703125 18.25 37.34375 
Q 15.296875 35 15.296875 31.796875 
z
" id="STIXGeneral-Regular-98"/>
     <path d="M 40.796875 16.40625 
L 42.40625 15.703125 
Q 36.40625 -1 21.5 -1 
Q 12.703125 -1 7.59375 5.140625 
Q 2.5 11.296875 2.5 21.703125 
Q 2.5 32.40625 8.203125 39.203125 
Q 13.90625 46 23.203125 46 
Q 32.203125 46 37.09375 39.09375 
Q 40 35.09375 40.5 27.703125 
L 9.703125 27.703125 
Q 10.09375 21.40625 10.9375 18.09375 
Q 11.796875 14.796875 14.296875 11.40625 
Q 18.5 5.90625 25.40625 5.90625 
Q 30.296875 5.90625 33.640625 8.296875 
Q 37 10.703125 40.796875 16.40625 
z
M 9.90625 30.90625 
L 30.296875 30.90625 
Q 29.40625 37.203125 27.34375 39.796875 
Q 25.296875 42.40625 20.5 42.40625 
Q 16.296875 42.40625 13.5 39.453125 
Q 10.703125 36.5 9.90625 30.90625 
z
" id="STIXGeneral-Regular-101"/>
    </defs>
    <g transform="translate(628.689308 95.227024)scale(0.18 -0.18)">
     <use xlink:href="#STIXGeneral-Regular-66"/>
     <use x="66.699997" xlink:href="#STIXGeneral-Regular-117"/>
     <use x="116.699982" xlink:href="#STIXGeneral-Regular-109"/>
     <use x="194.499969" xlink:href="#STIXGeneral-Regular-98"/>
     <use x="244.499954" xlink:href="#STIXGeneral-Regular-108"/>
     <use x="272.299942" xlink:href="#STIXGeneral-Regular-101"/>
     <use x="316.699936" xlink:href="#STIXGeneral-Regular-98"/>
     <use x="366.699921" xlink:href="#STIXGeneral-Regular-101"/>
     <use x="411.099915" xlink:href="#STIXGeneral-Regular-101"/>
    </g>
   </g>
  </g>
  <g id="axes_3">
   <g id="patch_12">
    <path d="M 117 462.76136 
L 462.428571 462.76136 
L 462.428571 299.467853 
L 117 299.467853 
z
" style="fill:#ffffff;"/>
   </g>
   <g id="matplotlib.axis_5">
    <g id="xtick_13">
     <g id="line2d_21">
      <g>
       <use style="fill:#ffffff;stroke:#000000;stroke-width:0.8;" x="132.701299" xlink:href="#mf754010f0a" y="462.76136"/>
      </g>
     </g>
    </g>
    <g id="xtick_14">
     <g id="line2d_22">
      <g>
       <use style="fill:#ffffff;stroke:#000000;stroke-width:0.8;" x="195.506494" xlink:href="#mf754010f0a" y="462.76136"/>
      </g>
     </g>
    </g>
    <g id="xtick_15">
     <g id="line2d_23">
      <g>
       <use style="fill:#ffffff;stroke:#000000;stroke-width:0.8;" x="258.311688" xlink:href="#mf754010f0a" y="462.76136"/>
      </g>
     </g>
    </g>
    <g id="xtick_16">
     <g id="line2d_24">
      <g>
       <use style="fill:#ffffff;stroke:#000000;stroke-width:0.8;" x="321.116883" xlink:href="#mf754010f0a" y="462.76136"/>
      </g>
     </g>
    </g>
    <g id="xtick_17">
     <g id="line2d_25">
      <g>
       <use style="fill:#ffffff;stroke:#000000;stroke-width:0.8;" x="383.922078" xlink:href="#mf754010f0a" y="462.76136"/>
      </g>
     </g>
    </g>
    <g id="xtick_18">
     <g id="line2d_26">
      <g>
       <use style="fill:#ffffff;stroke:#000000;stroke-width:0.8;" x="446.727273" xlink:href="#mf754010f0a" y="462.76136"/>
      </g>
     </g>
    </g>
   </g>
   <g id="matplotlib.axis_6">
    <g id="ytick_5">
     <g id="line2d_27">
      <g>
       <use style="fill:#ffffff;stroke:#000000;stroke-width:0.8;" x="117" xlink:href="#m397f1d49b6" y="409.376944"/>
      </g>
     </g>
     <g id="text_6">
      <!-- −0.2 -->
      <g transform="translate(75.17 415.523663)scale(0.18 -0.18)">
       <use xlink:href="#STIXGeneral-Regular-8722"/>
       <use x="68.499985" xlink:href="#STIXGeneral-Regular-48"/>
       <use x="118.499969" xlink:href="#STIXGeneral-Regular-46"/>
       <use x="143.499954" xlink:href="#STIXGeneral-Regular-50"/>
      </g>
     </g>
    </g>
    <g id="ytick_6">
     <g id="line2d_28">
      <g>
       <use style="fill:#ffffff;stroke:#000000;stroke-width:0.8;" x="117" xlink:href="#m397f1d49b6" y="346.57175"/>
      </g>
     </g>
     <g id="text_7">
      <!-- 0.0 -->
      <g transform="translate(87.5 352.718468)scale(0.18 -0.18)">
       <use xlink:href="#STIXGeneral-Regular-48"/>
       <use x="49.999985" xlink:href="#STIXGeneral-Regular-46"/>
       <use x="74.999969" xlink:href="#STIXGeneral-Regular-48"/>
      </g>
     </g>
    </g>
    <g id="text_8">
     <!-- $c/R$ -->
     <g transform="translate(67.263438 393.174607)rotate(-90)scale(0.18 -0.18)">
      <use transform="translate(0 0.40625)" xlink:href="#STIXGeneral-Italic-99"/>
      <use transform="translate(44.399994 0.40625)" xlink:href="#STIXGeneral-Regular-47"/>
      <use transform="translate(72.199982 0.40625)" xlink:href="#STIXGeneral-Italic-82"/>
     </g>
    </g>
   </g>
   <g id="line2d_29">
    <path clip-path="url(#p343aa5224a)" d="M 117 346.57175 
L 462.428571 346.57175 
" style="fill:none;stroke:#000000;stroke-dasharray:3.2,0.8,0.5,0.8;stroke-dashoffset:0;stroke-width:0.5;"/>
   </g>
   <g id="line2d_30">
    <path clip-path="url(#p343aa5224a)" d="M 132.701299 344.104403 
L 133.015325 344.104403 
L 133.643377 342.981665 
L 134.585455 341.540063 
L 135.841558 340.124501 
L 137.411688 338.729621 
L 139.295844 337.354219 
L 141.808052 335.820968 
L 144.634286 334.357098 
L 148.088571 332.817202 
L 152.170909 331.242836 
L 156.881299 329.662849 
L 162.533766 328.012593 
L 168.814286 326.416054 
L 176.036883 324.817936 
L 183.887532 323.309434 
L 192.68026 321.848774 
L 202.415065 320.465078 
L 212.777922 319.220027 
L 223.768831 318.121549 
L 235.701818 317.157503 
L 247.948831 316.39146 
L 260.823896 315.811067 
L 274.012987 315.441852 
L 287.202078 315.292354 
L 300.705195 315.363511 
L 313.894286 315.653569 
L 327.083377 316.168129 
L 339.644416 316.878005 
L 351.891429 317.792622 
L 363.51039 318.884138 
L 374.187273 320.103699 
L 384.236104 321.469879 
L 393.342857 322.923371 
L 401.821558 324.4988 
L 409.358182 326.121486 
L 415.952727 327.758769 
L 421.919221 329.467583 
L 426.943636 331.130451 
L 431.34 332.817202 
L 435.108312 334.509272 
L 437.934545 335.998608 
L 440.446753 337.567102 
L 442.330909 338.986096 
L 443.901039 340.445332 
L 445.157143 341.96711 
L 445.785195 342.981665 
L 446.413247 344.472103 
L 446.727273 346.57175 
L 446.727273 346.57175 
L 446.413247 352.87069 
L 445.785195 357.342004 
L 444.843117 361.666808 
L 443.901039 364.951002 
L 442.644935 368.529428 
L 441.074805 372.254337 
L 439.190649 376.046537 
L 437.306494 379.346869 
L 435.108312 382.759181 
L 432.596104 386.233209 
L 429.76987 389.732476 
L 426.62961 393.229495 
L 423.489351 396.400929 
L 420.035065 399.585156 
L 416.266753 402.758692 
L 412.184416 405.901529 
L 407.788052 408.996168 
L 403.077662 412.026914 
L 398.053247 414.979321 
L 393.028831 417.67877 
L 387.69039 420.301905 
L 382.037922 422.833518 
L 376.071429 425.258851 
L 369.790909 427.563335 
L 363.51039 429.634584 
L 356.915844 431.577736 
L 350.007273 433.376617 
L 343.098701 434.94833 
L 335.876104 436.362054 
L 328.653506 437.552456 
L 321.116883 438.566271 
L 313.58026 439.354727 
L 306.043636 439.923783 
L 298.507013 440.277611 
L 290.656364 440.420037 
L 282.805714 440.33277 
L 274.955065 440.015138 
L 267.418442 439.491209 
L 259.881818 438.74889 
L 252.345195 437.782612 
L 245.122597 436.639489 
L 237.9 435.275195 
L 230.677403 433.67888 
L 223.768831 431.922352 
L 217.174286 430.02247 
L 210.57974 427.888414 
L 204.299221 425.620203 
L 198.332727 423.232684 
L 192.68026 420.740677 
L 187.027792 417.999925 
L 181.689351 415.155111 
L 176.664935 412.219505 
L 171.954545 409.206908 
L 167.558182 406.131986 
L 163.475844 403.010691 
L 159.707532 399.86081 
L 156.253247 396.702675 
L 152.798961 393.229495 
L 149.658701 389.732476 
L 146.832468 386.233209 
L 144.32026 382.759181 
L 142.122078 379.346869 
L 140.237922 376.046537 
L 138.353766 372.254337 
L 136.783636 368.529428 
L 135.527532 364.951002 
L 134.585455 361.666808 
L 133.957403 358.963329 
L 133.015325 353.97379 
L 132.701299 353.97379 
L 132.701299 353.97379 
" style="fill:none;stroke:#000000;stroke-linecap:square;stroke-width:4;"/>
   </g>
   <g id="patch_13">
    <path d="M 117 462.76136 
L 117 299.467853 
" style="fill:none;stroke:#000000;stroke-linecap:square;stroke-linejoin:miter;stroke-width:0.8;"/>
   </g>
   <g id="patch_14">
    <path d="M 462.428571 462.76136 
L 462.428571 299.467853 
" style="fill:none;stroke:#000000;stroke-linecap:square;stroke-linejoin:miter;stroke-width:0.8;"/>
   </g>
   <g id="patch_15">
    <path d="M 117 462.76136 
L 462.428571 462.76136 
" style="fill:none;stroke:#000000;stroke-linecap:square;stroke-linejoin:miter;stroke-width:0.8;"/>
   </g>
   <g id="patch_16">
    <path d="M 117 299.467853 
L 462.428571 299.467853 
" style="fill:none;stroke:#000000;stroke-linecap:square;stroke-linejoin:miter;stroke-width:0.8;"/>
   </g>
   <g id="text_9">
    <!-- Hawkmoth -->
    <defs>
     <path d="M 70.296875 0 
L 42.40625 0 
L 42.40625 1.90625 
Q 48.203125 2.296875 49.703125 4.140625 
Q 51.203125 6 51.203125 12.40625 
L 51.203125 31.5 
L 20.90625 31.5 
L 20.90625 11.296875 
Q 20.90625 5.796875 22.5 4 
Q 24.09375 2.203125 29.59375 1.90625 
L 29.703125 0 
L 1.796875 0 
L 1.796875 1.90625 
Q 7.703125 2.296875 9.203125 4.046875 
Q 10.703125 5.796875 10.703125 12.203125 
L 10.703125 54.796875 
Q 10.703125 60.59375 9.140625 62.1875 
Q 7.59375 63.796875 1.796875 64.296875 
L 1.796875 66.203125 
L 29.796875 66.203125 
L 29.796875 64.296875 
Q 24.203125 63.796875 22.546875 62.140625 
Q 20.90625 60.5 20.90625 54.796875 
L 20.90625 35.90625 
L 51.203125 35.90625 
L 51.203125 54.796875 
Q 51.203125 60.59375 49.640625 62.1875 
Q 48.09375 63.796875 42.296875 64.296875 
L 42.296875 66.203125 
L 70.296875 66.203125 
L 70.296875 64.296875 
Q 64.703125 63.796875 63.046875 62.140625 
Q 61.40625 60.5 61.40625 54.796875 
L 61.40625 11.09375 
Q 61.40625 5.796875 63.046875 4.046875 
Q 64.703125 2.296875 70.296875 1.90625 
z
" id="STIXGeneral-Regular-72"/>
     <path d="M 44.203125 6.59375 
L 44.203125 3.796875 
Q 40.40625 -1 35.203125 -1 
Q 29.5 -1 28.796875 6.296875 
L 28.703125 6.296875 
Q 22.296875 -1 14.203125 -1 
Q 9.5 -1 6.59375 1.75 
Q 3.703125 4.5 3.703125 9.40625 
Q 3.703125 16.40625 10.703125 21.09375 
Q 15.5 24.296875 28.703125 29.203125 
L 28.703125 34.59375 
Q 28.703125 39.09375 26.546875 41.34375 
Q 24.40625 43.59375 20.90625 43.59375 
Q 17.90625 43.59375 15.90625 42.140625 
Q 13.90625 40.703125 13.90625 38.703125 
Q 13.90625 37.796875 14.203125 36.6875 
Q 14.5 35.59375 14.5 34.5 
Q 14.5 33 13.140625 31.703125 
Q 11.796875 30.40625 9.90625 30.40625 
Q 8.203125 30.40625 6.890625 31.703125 
Q 5.59375 33 5.59375 35 
Q 5.59375 39.796875 10.703125 43 
Q 15.40625 46 22.203125 46 
Q 30.296875 46 34 41.5 
Q 35.796875 39.40625 36.296875 37.25 
Q 36.796875 35.09375 36.796875 30.40625 
L 36.796875 11.296875 
Q 36.796875 4.703125 39.90625 4.703125 
Q 41.90625 4.703125 44.203125 6.59375 
z
M 28.703125 12.703125 
L 28.703125 26.796875 
Q 19.5 23.59375 15.90625 20.203125 
Q 12.5 17.09375 12.5 12.5 
Q 12.5 8.703125 14.390625 6.75 
Q 16.296875 4.796875 19.40625 4.796875 
Q 22.703125 4.796875 25.203125 6.40625 
Q 27.296875 7.90625 28 9.203125 
Q 28.703125 10.5 28.703125 12.703125 
z
" id="STIXGeneral-Regular-97"/>
     <path d="M 69.40625 45 
L 69.40625 43.5 
Q 67.90625 43 67.203125 42.046875 
Q 66.5 41.09375 65.296875 38.09375 
L 51.5 3.5 
Q 49.5 -1.40625 48.703125 -1.40625 
Q 48.203125 -1.40625 47.84375 -0.75 
Q 47.5 -0.09375 46.296875 2.90625 
L 37.203125 26.5 
L 26 2.5 
Q 24.203125 -1.40625 23.5 -1.40625 
Q 22.59375 -1.40625 20.90625 3 
L 7.40625 37.203125 
Q 5.90625 41.09375 4.90625 42.1875 
Q 3.90625 43.296875 2.09375 43.5 
L 2.09375 45 
L 20.09375 45 
L 20.09375 43.5 
Q 17.5 43.203125 16.5 42.5 
Q 15.5 41.796875 15.5 40.203125 
Q 15.5 38.703125 16.09375 37.203125 
L 26 11.09375 
L 35.09375 31 
L 33.09375 36.59375 
Q 31.703125 40.59375 30.34375 41.890625 
Q 29 43.203125 26.203125 43.5 
L 26.203125 45 
L 46.5 45 
L 46.5 43.5 
Q 43 43 41.84375 42.296875 
Q 40.703125 41.59375 40.703125 40 
Q 40.703125 38.40625 42.40625 34 
L 50.796875 11.59375 
L 59.796875 33.796875 
Q 61.5 38 61.5 40.5 
Q 61.5 41.703125 60.546875 42.34375 
Q 59.59375 43 57.09375 43.5 
L 57.09375 45 
z
" id="STIXGeneral-Regular-119"/>
     <path d="M 50.5 0 
L 28.703125 0 
L 28.703125 1.5 
L 30.59375 1.5 
Q 32.703125 1.5 32.703125 3 
Q 32.703125 3.90625 31.59375 5.296875 
L 16.59375 25.09375 
L 16.59375 6.703125 
Q 16.59375 4.09375 17.84375 2.890625 
Q 19.09375 1.703125 22.09375 1.59375 
L 24.09375 1.5 
L 24.09375 0 
L 0.703125 0 
L 0.703125 1.5 
Q 6.09375 2.40625 7.140625 3.34375 
Q 8.203125 4.296875 8.203125 8.203125 
L 8.203125 56.40625 
Q 8.203125 60 7.296875 61.25 
Q 6.40625 62.5 3.90625 62.5 
Q 3.296875 62.5 0.703125 62.296875 
L 0.703125 63.90625 
L 3.703125 64.703125 
Q 9.703125 66.296875 16.203125 68.296875 
L 16.59375 68.09375 
L 16.59375 26.09375 
L 30.296875 38.296875 
Q 32.59375 40.40625 32.59375 41.796875 
Q 32.59375 42.796875 31.546875 43.140625 
Q 30.5 43.5 27.59375 43.59375 
L 27.59375 45 
L 48 45 
L 48 43.5 
Q 43 43.5 39.140625 41.34375 
Q 35.296875 39.203125 26.40625 30.90625 
L 23.5 28.203125 
L 38.796875 8.796875 
Q 44.203125 1.90625 50.5 1.5 
z
" id="STIXGeneral-Regular-107"/>
     <path d="M 47 23.09375 
Q 47 12.59375 40.75 5.796875 
Q 34.5 -1 24.5 -1 
Q 15.296875 -1 9.09375 5.75 
Q 2.90625 12.5 2.90625 22.796875 
Q 2.90625 33.203125 9.09375 39.59375 
Q 15.296875 46 25.40625 46 
Q 34.703125 46 40.84375 39.640625 
Q 47 33.296875 47 23.09375 
z
M 38 20.40625 
Q 38 31.796875 33 38.203125 
Q 29 43.203125 23.5 43.203125 
Q 18.296875 43.203125 15.09375 38.953125 
Q 11.90625 34.703125 11.90625 27.296875 
Q 11.90625 14.5 17.203125 6.796875 
Q 20.59375 1.796875 26.203125 1.796875 
Q 31.703125 1.796875 34.84375 6.75 
Q 38 11.703125 38 20.40625 
z
" id="STIXGeneral-Regular-111"/>
     <path d="M 48.703125 0 
L 27.5 0 
L 27.5 1.5 
Q 31.90625 2 33.09375 3.5 
Q 34.296875 5 34.296875 10.203125 
L 34.296875 30 
Q 34.296875 40.59375 26.90625 40.59375 
Q 23.90625 40.59375 21.40625 39.1875 
Q 18.90625 37.796875 15.703125 34.296875 
L 15.703125 10.203125 
Q 15.703125 5 16.890625 3.5 
Q 18.09375 2 22.5 1.5 
L 22.5 0 
L 0.90625 0 
L 0.90625 1.5 
Q 5.203125 2.09375 6.25 3.5 
Q 7.296875 4.90625 7.296875 10.203125 
L 7.296875 57.296875 
Q 7.296875 60.5 6.34375 61.453125 
Q 5.40625 62.40625 2.203125 62.40625 
Q 1.296875 62.40625 1 62.296875 
L 1 63.90625 
L 3.703125 64.703125 
Q 11.40625 67 15.203125 68.296875 
L 15.703125 68 
L 15.703125 37.59375 
Q 19.203125 42.09375 22.59375 44.046875 
Q 26 46 30.40625 46 
Q 42.703125 46 42.703125 30.09375 
L 42.703125 10.203125 
Q 42.703125 5 43.640625 3.640625 
Q 44.59375 2.296875 48.703125 1.5 
z
" id="STIXGeneral-Regular-104"/>
    </defs>
    <g transform="translate(249.717723 290.59781)scale(0.18 -0.18)">
     <use xlink:href="#STIXGeneral-Regular-72"/>
     <use x="72.199982" xlink:href="#STIXGeneral-Regular-97"/>
     <use x="116.599976" xlink:href="#STIXGeneral-Regular-119"/>
     <use x="188.799957" xlink:href="#STIXGeneral-Regular-107"/>
     <use x="238.799942" xlink:href="#STIXGeneral-Regular-109"/>
     <use x="316.59993" xlink:href="#STIXGeneral-Regular-111"/>
     <use x="366.599915" xlink:href="#STIXGeneral-Regular-116"/>
     <use x="394.399902" xlink:href="#STIXGeneral-Regular-104"/>
    </g>
   </g>
  </g>
  <g id="axes_4">
   <g id="patch_17">
    <path d="M 496.971429 462.76136 
L 842.4 462.76136 
L 842.4 299.467853 
L 496.971429 299.467853 
z
" style="fill:#ffffff;"/>
   </g>
   <g id="matplotlib.axis_7">
    <g id="xtick_19">
     <g id="line2d_31">
      <g>
       <use style="fill:#ffffff;stroke:#000000;stroke-width:0.8;" x="512.672727" xlink:href="#mf754010f0a" y="462.76136"/>
      </g>
     </g>
    </g>
    <g id="xtick_20">
     <g id="line2d_32">
      <g>
       <use style="fill:#ffffff;stroke:#000000;stroke-width:0.8;" x="575.477922" xlink:href="#mf754010f0a" y="462.76136"/>
      </g>
     </g>
    </g>
    <g id="xtick_21">
     <g id="line2d_33">
      <g>
       <use style="fill:#ffffff;stroke:#000000;stroke-width:0.8;" x="638.283117" xlink:href="#mf754010f0a" y="462.76136"/>
      </g>
     </g>
    </g>
    <g id="xtick_22">
     <g id="line2d_34">
      <g>
       <use style="fill:#ffffff;stroke:#000000;stroke-width:0.8;" x="701.088312" xlink:href="#mf754010f0a" y="462.76136"/>
      </g>
     </g>
    </g>
    <g id="xtick_23">
     <g id="line2d_35">
      <g>
       <use style="fill:#ffffff;stroke:#000000;stroke-width:0.8;" x="763.893506" xlink:href="#mf754010f0a" y="462.76136"/>
      </g>
     </g>
    </g>
    <g id="xtick_24">
     <g id="line2d_36">
      <g>
       <use style="fill:#ffffff;stroke:#000000;stroke-width:0.8;" x="826.698701" xlink:href="#mf754010f0a" y="462.76136"/>
      </g>
     </g>
    </g>
   </g>
   <g id="matplotlib.axis_8">
    <g id="ytick_7">
     <g id="line2d_37">
      <g>
       <use style="fill:#ffffff;stroke:#000000;stroke-width:0.8;" x="496.971429" xlink:href="#m397f1d49b6" y="409.376944"/>
      </g>
     </g>
    </g>
    <g id="ytick_8">
     <g id="line2d_38">
      <g>
       <use style="fill:#ffffff;stroke:#000000;stroke-width:0.8;" x="496.971429" xlink:href="#m397f1d49b6" y="346.57175"/>
      </g>
     </g>
    </g>
   </g>
   <g id="line2d_39">
    <path clip-path="url(#p92eb9b73a9)" d="M 496.971429 346.57175 
L 842.4 346.57175 
" style="fill:none;stroke:#000000;stroke-dasharray:3.2,0.8,0.5,0.8;stroke-dashoffset:0;stroke-width:0.5;"/>
   </g>
   <g id="line2d_40">
    <path clip-path="url(#p92eb9b73a9)" d="M 512.672727 344.18087 
L 512.986753 343.739088 
L 513.614805 342.01001 
L 514.556883 340.415477 
L 515.812987 338.900371 
L 517.383117 337.444893 
L 519.267273 336.039472 
L 521.465455 334.678901 
L 524.291688 333.208837 
L 527.745974 331.692897 
L 531.828312 330.171019 
L 536.538701 328.669277 
L 541.877143 327.205821 
L 548.157662 325.725437 
L 555.066234 324.327055 
L 562.916883 322.966221 
L 571.70961 321.672155 
L 581.444416 320.470318 
L 592.121299 319.384121 
L 603.426234 318.459003 
L 615.673247 317.683988 
L 628.548312 317.09617 
L 642.051429 316.707536 
L 655.868571 316.535547 
L 669.99974 316.585931 
L 684.130909 316.861324 
L 697.948052 317.350145 
L 711.451169 318.045022 
L 724.64026 318.943918 
L 737.201299 320.020597 
L 749.134286 321.266665 
L 760.125195 322.635515 
L 770.174026 324.105902 
L 779.280779 325.656842 
L 787.445455 327.266456 
L 794.668052 328.910486 
L 800.948571 330.560197 
L 806.287013 332.179275 
L 810.997403 333.838309 
L 814.765714 335.389335 
L 817.905974 336.909457 
L 820.418182 338.357631 
L 822.302338 339.66427 
L 823.872468 341.004488 
L 825.128571 342.398172 
L 825.756623 343.324784 
L 826.384675 344.681354 
L 826.698701 346.57175 
L 826.698701 346.57175 
L 826.384675 352.242937 
L 825.756623 356.312647 
L 824.814545 360.264478 
L 823.872468 363.273534 
L 822.616364 366.559301 
L 821.046234 369.987101 
L 819.162078 373.484636 
L 817.277922 376.535055 
L 815.07974 379.69562 
L 812.567532 382.920669 
L 809.741299 386.17714 
L 806.601039 389.440199 
L 803.146753 392.690421 
L 799.378442 395.911963 
L 795.296104 399.09137 
L 790.89974 402.216768 
L 786.189351 405.277315 
L 781.164935 408.262804 
L 775.826494 411.163377 
L 770.174026 413.969293 
L 764.207532 416.670752 
L 757.927013 419.257733 
L 751.646494 421.608132 
L 745.051948 423.844796 
L 738.143377 425.954919 
L 730.920779 427.925205 
L 723.384156 429.741653 
L 715.847532 431.328044 
L 707.996883 432.748405 
L 700.146234 433.941926 
L 692.295584 434.916281 
L 684.130909 435.703025 
L 675.966234 436.262667 
L 667.801558 436.597137 
L 659.636883 436.706385 
L 651.472208 436.588382 
L 643.621558 436.256823 
L 635.770909 435.705817 
L 627.92026 434.927653 
L 620.383636 433.957479 
L 613.161039 432.811821 
L 605.938442 431.441887 
L 599.02987 429.906923 
L 592.435325 428.220633 
L 586.154805 426.396331 
L 579.874286 424.338341 
L 573.907792 422.143493 
L 568.255325 419.823039 
L 562.916883 417.388336 
L 557.892468 414.851087 
L 553.182078 412.223622 
L 548.785714 409.519257 
L 544.703377 406.752736 
L 540.935065 403.940805 
L 537.480779 401.102964 
L 534.340519 398.26243 
L 531.20026 395.117124 
L 528.374026 391.960212 
L 525.861818 388.822268 
L 523.663636 385.743938 
L 521.465455 382.250295 
L 519.581299 378.797676 
L 518.011169 375.454059 
L 516.755065 372.327036 
L 515.498961 368.566748 
L 514.556883 365.040566 
L 513.928831 362.07195 
L 513.300779 358.051546 
L 512.986753 355.069734 
L 512.672727 353.744388 
L 512.672727 353.744388 
" style="fill:none;stroke:#000000;stroke-linecap:square;stroke-width:4;"/>
   </g>
   <g id="patch_18">
    <path d="M 496.971429 462.76136 
L 496.971429 299.467853 
" style="fill:none;stroke:#000000;stroke-linecap:square;stroke-linejoin:miter;stroke-width:0.8;"/>
   </g>
   <g id="patch_19">
    <path d="M 842.4 462.76136 
L 842.4 299.467853 
" style="fill:none;stroke:#000000;stroke-linecap:square;stroke-linejoin:miter;stroke-width:0.8;"/>
   </g>
   <g id="patch_20">
    <path d="M 496.971429 462.76136 
L 842.4 462.76136 
" style="fill:none;stroke:#000000;stroke-linecap:square;stroke-linejoin:miter;stroke-width:0.8;"/>
   </g>
   <g id="patch_21">
    <path d="M 496.971429 299.467853 
L 842.4 299.467853 
" style="fill:none;stroke:#000000;stroke-linecap:square;stroke-linejoin:miter;stroke-width:0.8;"/>
   </g>
   <g id="text_10">
    <!-- Honeybee -->
    <defs>
     <path d="M 48.5 0 
L 27.703125 0 
L 27.796875 1.5 
Q 31.5 1.796875 32.75 3.640625 
Q 34 5.5 34 10.5 
L 34 30.40625 
Q 34 40.5 26.703125 40.5 
Q 24.203125 40.5 22 39.296875 
Q 19.796875 38.09375 16.40625 34.796875 
L 16.40625 7.203125 
Q 16.40625 4.203125 17.75 3 
Q 19.09375 1.796875 22.90625 1.5 
L 22.90625 0 
L 1.796875 0 
L 1.796875 1.5 
Q 5.59375 1.796875 6.796875 3.34375 
Q 8 4.90625 8 9.40625 
L 8 33.703125 
Q 8 37.40625 7.296875 38.796875 
Q 6.59375 40.203125 4.5 40.203125 
Q 2.5 40.203125 1.59375 39.796875 
L 1.59375 41.5 
Q 8.59375 43.5 15.296875 46 
L 16.09375 45.703125 
L 16.09375 37.90625 
L 16.203125 37.90625 
Q 23.296875 46 30.59375 46 
Q 36.296875 46 39.34375 42 
Q 42.40625 38 42.40625 30.59375 
L 42.40625 8.5 
Q 42.40625 4.5 43.59375 3.203125 
Q 44.796875 1.90625 48.5 1.5 
z
" id="STIXGeneral-Regular-110"/>
    </defs>
    <g transform="translate(633.197746 290.589373)scale(0.18 -0.18)">
     <use xlink:href="#STIXGeneral-Regular-72"/>
     <use x="72.199982" xlink:href="#STIXGeneral-Regular-111"/>
     <use x="122.199966" xlink:href="#STIXGeneral-Regular-110"/>
     <use x="172.199951" xlink:href="#STIXGeneral-Regular-101"/>
     <use x="216.599945" xlink:href="#STIXGeneral-Regular-121"/>
     <use x="266.59993" xlink:href="#STIXGeneral-Regular-98"/>
     <use x="316.599915" xlink:href="#STIXGeneral-Regular-101"/>
     <use x="360.999908" xlink:href="#STIXGeneral-Regular-101"/>
    </g>
   </g>
  </g>
  <g id="axes_5">
   <g id="patch_22">
    <path d="M 117 658.132147 
L 462.428571 658.132147 
L 462.428571 494.83864 
L 117 494.83864 
z
" style="fill:#ffffff;"/>
   </g>
   <g id="matplotlib.axis_9">
    <g id="xtick_25">
     <g id="line2d_41">
      <g>
       <use style="fill:#ffffff;stroke:#000000;stroke-width:0.8;" x="132.701299" xlink:href="#mf754010f0a" y="658.132147"/>
      </g>
     </g>
    </g>
    <g id="xtick_26">
     <g id="line2d_42">
      <g>
       <use style="fill:#ffffff;stroke:#000000;stroke-width:0.8;" x="195.506494" xlink:href="#mf754010f0a" y="658.132147"/>
      </g>
     </g>
    </g>
    <g id="xtick_27">
     <g id="line2d_43">
      <g>
       <use style="fill:#ffffff;stroke:#000000;stroke-width:0.8;" x="258.311688" xlink:href="#mf754010f0a" y="658.132147"/>
      </g>
     </g>
    </g>
    <g id="xtick_28">
     <g id="line2d_44">
      <g>
       <use style="fill:#ffffff;stroke:#000000;stroke-width:0.8;" x="321.116883" xlink:href="#mf754010f0a" y="658.132147"/>
      </g>
     </g>
    </g>
    <g id="xtick_29">
     <g id="line2d_45">
      <g>
       <use style="fill:#ffffff;stroke:#000000;stroke-width:0.8;" x="383.922078" xlink:href="#mf754010f0a" y="658.132147"/>
      </g>
     </g>
    </g>
    <g id="xtick_30">
     <g id="line2d_46">
      <g>
       <use style="fill:#ffffff;stroke:#000000;stroke-width:0.8;" x="446.727273" xlink:href="#mf754010f0a" y="658.132147"/>
      </g>
     </g>
    </g>
   </g>
   <g id="matplotlib.axis_10">
    <g id="ytick_9">
     <g id="line2d_47">
      <g>
       <use style="fill:#ffffff;stroke:#000000;stroke-width:0.8;" x="117" xlink:href="#m397f1d49b6" y="604.747731"/>
      </g>
     </g>
     <g id="text_11">
      <!-- −0.2 -->
      <g transform="translate(75.17 610.89445)scale(0.18 -0.18)">
       <use xlink:href="#STIXGeneral-Regular-8722"/>
       <use x="68.499985" xlink:href="#STIXGeneral-Regular-48"/>
       <use x="118.499969" xlink:href="#STIXGeneral-Regular-46"/>
       <use x="143.499954" xlink:href="#STIXGeneral-Regular-50"/>
      </g>
     </g>
    </g>
    <g id="ytick_10">
     <g id="line2d_48">
      <g>
       <use style="fill:#ffffff;stroke:#000000;stroke-width:0.8;" x="117" xlink:href="#m397f1d49b6" y="541.942536"/>
      </g>
     </g>
     <g id="text_12">
      <!-- 0.0 -->
      <g transform="translate(87.5 548.089255)scale(0.18 -0.18)">
       <use xlink:href="#STIXGeneral-Regular-48"/>
       <use x="49.999985" xlink:href="#STIXGeneral-Regular-46"/>
       <use x="74.999969" xlink:href="#STIXGeneral-Regular-48"/>
      </g>
     </g>
    </g>
    <g id="text_13">
     <!-- $c/R$ -->
     <g transform="translate(67.263438 588.545393)rotate(-90)scale(0.18 -0.18)">
      <use transform="translate(0 0.40625)" xlink:href="#STIXGeneral-Italic-99"/>
      <use transform="translate(44.399994 0.40625)" xlink:href="#STIXGeneral-Regular-47"/>
      <use transform="translate(72.199982 0.40625)" xlink:href="#STIXGeneral-Italic-82"/>
     </g>
    </g>
   </g>
   <g id="line2d_49">
    <path clip-path="url(#p140b31c333)" d="M 117 541.942536 
L 462.428571 541.942536 
" style="fill:none;stroke:#000000;stroke-dasharray:3.2,0.8,0.5,0.8;stroke-dashoffset:0;stroke-width:0.5;"/>
   </g>
   <g id="line2d_50">
    <path clip-path="url(#p140b31c333)" d="M 132.701299 539.678465 
L 133.015325 537.048204 
L 133.643377 534.874689 
L 134.271429 533.562275 
L 135.213506 532.146301 
L 136.46961 530.742091 
L 138.03974 529.386339 
L 139.923896 528.089467 
L 142.122078 526.853171 
L 144.948312 525.542632 
L 148.088571 524.331157 
L 151.856883 523.109829 
L 156.567273 521.833026 
L 161.905714 520.625477 
L 168.186234 519.441473 
L 175.408831 518.314993 
L 183.573506 517.271405 
L 192.68026 516.330769 
L 203.043117 515.487691 
L 214.348052 514.791994 
L 226.909091 514.246679 
L 240.412208 513.888311 
L 254.543377 513.734878 
L 269.616623 513.796827 
L 285.003896 514.083997 
L 300.705195 514.601655 
L 316.092468 515.328346 
L 331.165714 516.257343 
L 345.924935 517.389186 
L 359.742078 518.668751 
L 372.617143 520.079625 
L 384.55013 521.609321 
L 395.227013 523.198579 
L 404.647792 524.818334 
L 412.812468 526.435575 
L 420.035065 528.087116 
L 426.001558 529.667341 
L 431.025974 531.214876 
L 435.108312 532.688527 
L 438.562597 534.171713 
L 441.074805 535.473094 
L 442.958961 536.66209 
L 444.529091 537.915509 
L 445.471169 538.905343 
L 446.099221 539.802233 
L 446.413247 540.434778 
L 446.727273 541.942536 
L 446.727273 541.942536 
L 446.413247 546.465811 
L 445.785195 549.822677 
L 444.843117 553.121059 
L 443.587013 556.397901 
L 442.330909 559.057054 
L 440.760779 561.882237 
L 438.876623 564.804877 
L 436.678442 567.783458 
L 434.166234 570.791177 
L 431.34 573.80951 
L 428.19974 576.824775 
L 424.745455 579.826214 
L 420.977143 582.804877 
L 416.894805 585.752938 
L 412.498442 588.663257 
L 407.474026 591.711925 
L 402.135584 594.680079 
L 396.483117 597.56532 
L 390.516623 600.364178 
L 384.236104 603.072256 
L 377.327532 605.803219 
L 370.104935 608.411685 
L 362.568312 610.892391 
L 354.717662 613.238689 
L 346.552987 615.442526 
L 338.074286 617.494356 
L 329.595584 619.319576 
L 320.802857 620.984967 
L 312.01013 622.42773 
L 302.903377 623.693859 
L 293.796623 624.731667 
L 284.68987 625.542316 
L 275.583117 626.124291 
L 266.79039 626.465231 
L 257.997662 626.58255 
L 249.518961 626.475115 
L 241.354286 626.156197 
L 233.18961 625.612305 
L 225.338961 624.861056 
L 217.802338 623.910747 
L 210.893766 622.823171 
L 204.299221 621.571179 
L 198.018701 620.162065 
L 192.052208 618.602729 
L 186.39974 616.899824 
L 181.061299 615.059909 
L 176.036883 613.089642 
L 171.326494 610.996006 
L 166.93013 608.786616 
L 162.847792 606.470126 
L 159.393506 604.269395 
L 155.939221 601.799273 
L 152.798961 599.264943 
L 149.972727 596.688327 
L 147.460519 594.098714 
L 145.262338 591.535704 
L 143.064156 588.607981 
L 141.18 585.707128 
L 139.60987 582.907895 
L 138.03974 579.611128 
L 136.783636 576.440526 
L 135.841558 573.582952 
L 134.899481 570.058333 
L 134.271429 567.08332 
L 133.643377 563.146078 
L 133.329351 560.459291 
L 133.015325 556.625533 
L 132.701299 548.73475 
L 132.701299 548.73475 
" style="fill:none;stroke:#000000;stroke-linecap:square;stroke-width:4;"/>
   </g>
   <g id="patch_23">
    <path d="M 117 658.132147 
L 117 494.83864 
" style="fill:none;stroke:#000000;stroke-linecap:square;stroke-linejoin:miter;stroke-width:0.8;"/>
   </g>
   <g id="patch_24">
    <path d="M 462.428571 658.132147 
L 462.428571 494.83864 
" style="fill:none;stroke:#000000;stroke-linecap:square;stroke-linejoin:miter;stroke-width:0.8;"/>
   </g>
   <g id="patch_25">
    <path d="M 117 658.132147 
L 462.428571 658.132147 
" style="fill:none;stroke:#000000;stroke-linecap:square;stroke-linejoin:miter;stroke-width:0.8;"/>
   </g>
   <g id="patch_26">
    <path d="M 117 494.83864 
L 462.428571 494.83864 
" style="fill:none;stroke:#000000;stroke-linecap:square;stroke-linejoin:miter;stroke-width:0.8;"/>
   </g>
   <g id="text_14">
    <!-- Crane fly -->
    <defs>
     <path d="M 61.40625 13.09375 
L 63.296875 11.296875 
Q 54.40625 -1.40625 36 -1.40625 
Q 21.5 -1.40625 12.40625 7.5 
Q 2.796875 16.90625 2.796875 32.5 
Q 2.796875 47.09375 11.796875 57.203125 
Q 21.203125 67.59375 36.09375 67.59375 
Q 42.5 67.59375 48 66.09375 
Q 54.296875 64.296875 54.90625 64.296875 
Q 58.203125 64.296875 59.09375 67.59375 
L 61.09375 67.59375 
L 62 44.90625 
L 59.703125 44.90625 
Q 58.09375 52.09375 54.5 56 
Q 47.40625 63.59375 38.40625 63.59375 
Q 27.296875 63.59375 20.84375 55.4375 
Q 14.40625 47.296875 14.40625 34.09375 
Q 14.40625 18 21.59375 10.203125 
Q 28.296875 3 39.40625 3 
Q 46 3 50.796875 5.296875 
Q 55.59375 7.59375 61.40625 13.09375 
z
" id="STIXGeneral-Regular-67"/>
    </defs>
    <g transform="translate(255.972723 485.960159)scale(0.18 -0.18)">
     <use xlink:href="#STIXGeneral-Regular-67"/>
     <use x="66.699997" xlink:href="#STIXGeneral-Regular-114"/>
     <use x="99.999985" xlink:href="#STIXGeneral-Regular-97"/>
     <use x="144.399979" xlink:href="#STIXGeneral-Regular-110"/>
     <use x="194.399963" xlink:href="#STIXGeneral-Regular-101"/>
     <use x="238.799957" xlink:href="#STIXGeneral-Regular-32"/>
     <use x="263.799942" xlink:href="#STIXGeneral-Regular-102"/>
     <use x="297.09993" xlink:href="#STIXGeneral-Regular-108"/>
     <use x="324.899918" xlink:href="#STIXGeneral-Regular-121"/>
    </g>
   </g>
  </g>
  <g id="axes_6">
   <g id="patch_27">
    <path d="M 496.971429 658.132147 
L 842.4 658.132147 
L 842.4 494.83864 
L 496.971429 494.83864 
z
" style="fill:#ffffff;"/>
   </g>
   <g id="matplotlib.axis_11">
    <g id="xtick_31">
     <g id="line2d_51">
      <g>
       <use style="fill:#ffffff;stroke:#000000;stroke-width:0.8;" x="512.672727" xlink:href="#mf754010f0a" y="658.132147"/>
      </g>
     </g>
    </g>
    <g id="xtick_32">
     <g id="line2d_52">
      <g>
       <use style="fill:#ffffff;stroke:#000000;stroke-width:0.8;" x="575.477922" xlink:href="#mf754010f0a" y="658.132147"/>
      </g>
     </g>
    </g>
    <g id="xtick_33">
     <g id="line2d_53">
      <g>
       <use style="fill:#ffffff;stroke:#000000;stroke-width:0.8;" x="638.283117" xlink:href="#mf754010f0a" y="658.132147"/>
      </g>
     </g>
    </g>
    <g id="xtick_34">
     <g id="line2d_54">
      <g>
       <use style="fill:#ffffff;stroke:#000000;stroke-width:0.8;" x="701.088312" xlink:href="#mf754010f0a" y="658.132147"/>
      </g>
     </g>
    </g>
    <g id="xtick_35">
     <g id="line2d_55">
      <g>
       <use style="fill:#ffffff;stroke:#000000;stroke-width:0.8;" x="763.893506" xlink:href="#mf754010f0a" y="658.132147"/>
      </g>
     </g>
    </g>
    <g id="xtick_36">
     <g id="line2d_56">
      <g>
       <use style="fill:#ffffff;stroke:#000000;stroke-width:0.8;" x="826.698701" xlink:href="#mf754010f0a" y="658.132147"/>
      </g>
     </g>
    </g>
   </g>
   <g id="matplotlib.axis_12">
    <g id="ytick_11">
     <g id="line2d_57">
      <g>
       <use style="fill:#ffffff;stroke:#000000;stroke-width:0.8;" x="496.971429" xlink:href="#m397f1d49b6" y="604.747731"/>
      </g>
     </g>
    </g>
    <g id="ytick_12">
     <g id="line2d_58">
      <g>
       <use style="fill:#ffffff;stroke:#000000;stroke-width:0.8;" x="496.971429" xlink:href="#m397f1d49b6" y="541.942536"/>
      </g>
     </g>
    </g>
   </g>
   <g id="line2d_59">
    <path clip-path="url(#pe6d5c6537e)" d="M 496.971429 541.942536 
L 842.4 541.942536 
" style="fill:none;stroke:#000000;stroke-dasharray:3.2,0.8,0.5,0.8;stroke-dashoffset:0;stroke-width:0.5;"/>
   </g>
   <g id="line2d_60">
    <path clip-path="url(#pe6d5c6537e)" d="M 512.672727 539.745732 
L 513.300779 537.315524 
L 513.928831 535.912652 
L 514.870909 534.480474 
L 516.127013 533.086037 
L 517.697143 531.74327 
L 519.581299 530.453539 
L 521.779481 529.215251 
L 524.605714 527.890633 
L 528.06 526.540209 
L 532.142338 525.200971 
L 536.852727 523.896148 
L 542.505195 522.573353 
L 549.09974 521.275055 
L 556.636364 520.032401 
L 565.115065 518.869418 
L 574.535844 517.805916 
L 584.898701 516.859474 
L 596.517662 516.027181 
L 609.078701 515.356628 
L 622.581818 514.865102 
L 636.712987 514.576562 
L 651.472208 514.500449 
L 666.545455 514.646281 
L 681.618701 515.011337 
L 696.691948 515.595833 
L 711.451169 516.387757 
L 725.582338 517.362972 
L 739.085455 518.512905 
L 751.646494 519.799524 
L 763.265455 521.207289 
L 773.942338 522.723369 
L 783.363117 524.281223 
L 791.527792 525.845276 
L 798.75039 527.447537 
L 805.030909 529.068966 
L 810.055325 530.582239 
L 814.451688 532.138831 
L 817.905974 533.595977 
L 820.732208 535.039421 
L 822.616364 536.216475 
L 824.186494 537.439273 
L 825.128571 538.376231 
L 825.756623 539.176242 
L 826.384675 540.342051 
L 826.698701 541.942536 
L 826.698701 541.942536 
L 826.384675 546.743992 
L 825.756623 550.241417 
L 824.814545 553.655493 
L 823.872468 556.264237 
L 822.616364 559.120718 
L 821.046234 562.108735 
L 819.162078 565.165666 
L 816.963896 568.255029 
L 814.451688 571.35365 
L 811.625455 574.445503 
L 808.485195 577.518585 
L 805.030909 580.563247 
L 801.262597 583.571239 
L 797.18026 586.535146 
L 792.783896 589.448028 
L 788.073506 592.303181 
L 783.049091 595.093967 
L 777.710649 597.813685 
L 771.744156 600.595702 
L 765.463636 603.268629 
L 758.869091 605.827466 
L 751.960519 608.266184 
L 744.737922 610.577746 
L 737.201299 612.754071 
L 729.350649 614.785966 
L 721.185974 616.663006 
L 713.021299 618.314203 
L 704.542597 619.802286 
L 696.063896 621.06906 
L 687.271169 622.156414 
L 678.478442 623.018257 
L 669.685714 623.657095 
L 660.892987 624.073054 
L 652.10026 624.263891 
L 643.621558 624.230317 
L 635.142857 623.976442 
L 626.978182 623.515136 
L 618.813506 622.829956 
L 610.962857 621.946723 
L 603.426234 620.876576 
L 596.203636 619.629615 
L 589.295065 618.215078 
L 582.700519 616.641497 
L 576.42 614.916829 
L 570.453506 613.048591 
L 564.801039 611.043984 
L 559.462597 608.910032 
L 554.438182 606.653746 
L 549.727792 604.28231 
L 545.645455 601.989967 
L 541.877143 599.641367 
L 538.108831 597.023992 
L 534.654545 594.335672 
L 531.514286 591.592345 
L 528.688052 588.814635 
L 526.175844 586.030024 
L 523.977662 583.275967 
L 522.093506 580.60416 
L 520.209351 577.542666 
L 518.639221 574.575025 
L 517.383117 571.807459 
L 516.127013 568.512034 
L 515.184935 565.493102 
L 514.242857 561.638485 
L 513.614805 558.150725 
L 513.300779 555.823574 
L 512.672727 548.53295 
L 512.672727 548.53295 
" style="fill:none;stroke:#000000;stroke-linecap:square;stroke-width:4;"/>
   </g>
   <g id="patch_28">
    <path d="M 496.971429 658.132147 
L 496.971429 494.83864 
" style="fill:none;stroke:#000000;stroke-linecap:square;stroke-linejoin:miter;stroke-width:0.8;"/>
   </g>
   <g id="patch_29">
    <path d="M 842.4 658.132147 
L 842.4 494.83864 
" style="fill:none;stroke:#000000;stroke-linecap:square;stroke-linejoin:miter;stroke-width:0.8;"/>
   </g>
   <g id="patch_30">
    <path d="M 496.971429 658.132147 
L 842.4 658.132147 
" style="fill:none;stroke:#000000;stroke-linecap:square;stroke-linejoin:miter;stroke-width:0.8;"/>
   </g>
   <g id="patch_31">
    <path d="M 496.971429 494.83864 
L 842.4 494.83864 
" style="fill:none;stroke:#000000;stroke-linecap:square;stroke-linejoin:miter;stroke-width:0.8;"/>
   </g>
   <g id="text_15">
    <!-- Hoverfly -->
    <defs>
     <path d="M 47.703125 45 
L 47.703125 43.5 
Q 45.40625 43.296875 44.296875 42 
Q 43.203125 40.703125 41.203125 35.703125 
L 28.40625 3.59375 
Q 26.40625 -1.40625 25.59375 -1.40625 
Q 24.796875 -1.40625 23.796875 1.203125 
Q 23.59375 1.5 23.390625 2.203125 
Q 23.203125 2.90625 23 3.296875 
L 11 32 
Q 7.796875 39.59375 6.296875 41.4375 
Q 4.796875 43.296875 1.90625 43.5 
L 1.90625 45 
L 21.5 45 
L 21.5 43.5 
Q 18.90625 43.296875 17.90625 42.6875 
Q 16.90625 42.09375 16.90625 40.796875 
Q 16.90625 39.203125 17.796875 37 
L 28 11.40625 
L 37.90625 37.296875 
Q 38.5 38.796875 38.5 40.296875 
Q 38.5 43.09375 33.796875 43.5 
L 33.796875 45 
z
" id="STIXGeneral-Regular-118"/>
    </defs>
    <g transform="translate(637.195714 485.960159)scale(0.18 -0.18)">
     <use xlink:href="#STIXGeneral-Regular-72"/>
     <use x="72.199982" xlink:href="#STIXGeneral-Regular-111"/>
     <use x="122.199966" xlink:href="#STIXGeneral-Regular-118"/>
     <use x="172.199951" xlink:href="#STIXGeneral-Regular-101"/>
     <use x="216.599945" xlink:href="#STIXGeneral-Regular-114"/>
     <use x="249.899933" xlink:href="#STIXGeneral-Regular-102"/>
     <use x="283.199921" xlink:href="#STIXGeneral-Regular-108"/>
     <use x="310.999908" xlink:href="#STIXGeneral-Regular-121"/>
    </g>
   </g>
  </g>
  <g id="axes_7">
   <g id="patch_32">
    <path d="M 117 853.502933 
L 462.428571 853.502933 
L 462.428571 690.209427 
L 117 690.209427 
z
" style="fill:#ffffff;"/>
   </g>
   <g id="matplotlib.axis_13">
    <g id="xtick_37">
     <g id="line2d_61">
      <g>
       <use style="fill:#ffffff;stroke:#000000;stroke-width:0.8;" x="132.701299" xlink:href="#mf754010f0a" y="853.502933"/>
      </g>
     </g>
     <g id="text_16">
      <!-- 0.0 -->
      <g transform="translate(121.451299 872.796371)scale(0.18 -0.18)">
       <use xlink:href="#STIXGeneral-Regular-48"/>
       <use x="49.999985" xlink:href="#STIXGeneral-Regular-46"/>
       <use x="74.999969" xlink:href="#STIXGeneral-Regular-48"/>
      </g>
     </g>
    </g>
    <g id="xtick_38">
     <g id="line2d_62">
      <g>
       <use style="fill:#ffffff;stroke:#000000;stroke-width:0.8;" x="195.506494" xlink:href="#mf754010f0a" y="853.502933"/>
      </g>
     </g>
     <g id="text_17">
      <!-- 0.2 -->
      <g transform="translate(184.256494 872.796371)scale(0.18 -0.18)">
       <use xlink:href="#STIXGeneral-Regular-48"/>
       <use x="49.999985" xlink:href="#STIXGeneral-Regular-46"/>
       <use x="74.999969" xlink:href="#STIXGeneral-Regular-50"/>
      </g>
     </g>
    </g>
    <g id="xtick_39">
     <g id="line2d_63">
      <g>
       <use style="fill:#ffffff;stroke:#000000;stroke-width:0.8;" x="258.311688" xlink:href="#mf754010f0a" y="853.502933"/>
      </g>
     </g>
     <g id="text_18">
      <!-- 0.4 -->
      <defs>
       <path d="M 47.296875 16.703125 
L 37 16.703125 
L 37 0 
L 29.203125 0 
L 29.203125 16.703125 
L 1.203125 16.703125 
L 1.203125 23.09375 
L 32.59375 67.59375 
L 37 67.59375 
L 37 23.09375 
L 47.296875 23.09375 
z
M 29.203125 23.09375 
L 29.203125 57.40625 
L 5.203125 23.09375 
z
" id="STIXGeneral-Regular-52"/>
      </defs>
      <g transform="translate(247.061688 872.796371)scale(0.18 -0.18)">
       <use xlink:href="#STIXGeneral-Regular-48"/>
       <use x="49.999985" xlink:href="#STIXGeneral-Regular-46"/>
       <use x="74.999969" xlink:href="#STIXGeneral-Regular-52"/>
      </g>
     </g>
    </g>
    <g id="xtick_40">
     <g id="line2d_64">
      <g>
       <use style="fill:#ffffff;stroke:#000000;stroke-width:0.8;" x="321.116883" xlink:href="#mf754010f0a" y="853.502933"/>
      </g>
     </g>
     <g id="text_19">
      <!-- 0.6 -->
      <defs>
       <path d="M 44.59375 68.40625 
L 44.796875 66.796875 
Q 33 64.90625 25.09375 57.25 
Q 17.203125 49.59375 15.203125 38.296875 
Q 21 42.796875 27.90625 42.796875 
Q 36.703125 42.796875 41.75 37.1875 
Q 46.796875 31.59375 46.796875 21.90625 
Q 46.796875 12.09375 41.703125 5.90625 
Q 35.796875 -1.40625 25.796875 -1.40625 
Q 13.59375 -1.40625 8.09375 8.703125 
Q 3.40625 17.296875 3.40625 27.90625 
Q 3.40625 44.296875 14.296875 55.5 
Q 20.5 61.90625 27.046875 64.546875 
Q 33.59375 67.203125 44.59375 68.40625 
z
M 37.796875 18.796875 
Q 37.796875 38.203125 24.296875 38.203125 
Q 19.296875 38.203125 16 35.546875 
Q 12.703125 32.90625 12.703125 26.59375 
Q 12.703125 14.90625 16.34375 8.15625 
Q 20 1.40625 26.90625 1.40625 
Q 32.203125 1.40625 35 6.15625 
Q 37.796875 10.90625 37.796875 18.796875 
z
" id="STIXGeneral-Regular-54"/>
      </defs>
      <g transform="translate(309.866883 872.796371)scale(0.18 -0.18)">
       <use xlink:href="#STIXGeneral-Regular-48"/>
       <use x="49.999985" xlink:href="#STIXGeneral-Regular-46"/>
       <use x="74.999969" xlink:href="#STIXGeneral-Regular-54"/>
      </g>
     </g>
    </g>
    <g id="xtick_41">
     <g id="line2d_65">
      <g>
       <use style="fill:#ffffff;stroke:#000000;stroke-width:0.8;" x="383.922078" xlink:href="#mf754010f0a" y="853.502933"/>
      </g>
     </g>
     <g id="text_20">
      <!-- 0.8 -->
      <defs>
       <path d="M 44.5 15.5 
Q 44.5 7.796875 39.140625 3.1875 
Q 33.796875 -1.40625 24.796875 -1.40625 
Q 16.40625 -1.40625 11 3.1875 
Q 5.59375 7.796875 5.59375 14.90625 
Q 5.59375 20.203125 8.1875 23.953125 
Q 10.796875 27.703125 18.59375 33.203125 
Q 11.09375 39.40625 8.640625 43.203125 
Q 6.203125 47 6.203125 52 
Q 6.203125 59.09375 11.640625 63.34375 
Q 17.09375 67.59375 25.59375 67.59375 
Q 32.90625 67.59375 37.65625 63.4375 
Q 42.40625 59.296875 42.40625 53.296875 
Q 42.40625 47.796875 39.546875 44.5 
Q 36.703125 41.203125 29 37.09375 
Q 38 31.09375 41.25 26.390625 
Q 44.5 21.703125 44.5 15.5 
z
M 35.5 53.296875 
Q 35.5 58.5 32.59375 61.640625 
Q 29.703125 64.796875 24.59375 64.796875 
Q 19.5 64.796875 16.546875 62.140625 
Q 13.59375 59.5 13.59375 54.890625 
Q 13.59375 50.296875 16.546875 46.546875 
Q 19.5 42.796875 26.09375 38.90625 
Q 31.203125 41.90625 33.34375 45.25 
Q 35.5 48.59375 35.5 53.296875 
z
M 27.09375 27.203125 
L 21.203125 31.203125 
Q 16.796875 27.59375 15 24.140625 
Q 13.203125 20.703125 13.203125 15.796875 
Q 13.203125 9 16.640625 5.203125 
Q 20.09375 1.40625 25.90625 1.40625 
Q 30.796875 1.40625 33.84375 4.453125 
Q 36.90625 7.5 36.90625 12.40625 
Q 36.90625 16.90625 34.59375 20.296875 
Q 32.296875 23.703125 27.09375 27.203125 
z
" id="STIXGeneral-Regular-56"/>
      </defs>
      <g transform="translate(372.672078 872.796371)scale(0.18 -0.18)">
       <use xlink:href="#STIXGeneral-Regular-48"/>
       <use x="49.999985" xlink:href="#STIXGeneral-Regular-46"/>
       <use x="74.999969" xlink:href="#STIXGeneral-Regular-56"/>
      </g>
     </g>
    </g>
    <g id="xtick_42">
     <g id="line2d_66">
      <g>
       <use style="fill:#ffffff;stroke:#000000;stroke-width:0.8;" x="446.727273" xlink:href="#mf754010f0a" y="853.502933"/>
      </g>
     </g>
     <g id="text_21">
      <!-- 1.0 -->
      <defs>
       <path d="M 39.40625 0 
L 11.796875 0 
L 11.796875 1.5 
Q 17.296875 1.796875 19.296875 3.546875 
Q 21.296875 5.296875 21.296875 9.5 
L 21.296875 54.40625 
Q 21.296875 59.296875 18.296875 59.296875 
Q 16.90625 59.296875 13.796875 58.09375 
L 11.09375 57.09375 
L 11.09375 58.5 
L 29 67.59375 
L 29.90625 67.296875 
L 29.90625 7.59375 
Q 29.90625 4.296875 31.90625 2.890625 
Q 33.90625 1.5 39.40625 1.5 
z
" id="STIXGeneral-Regular-49"/>
      </defs>
      <g transform="translate(435.477273 872.796371)scale(0.18 -0.18)">
       <use xlink:href="#STIXGeneral-Regular-49"/>
       <use x="49.999985" xlink:href="#STIXGeneral-Regular-46"/>
       <use x="74.999969" xlink:href="#STIXGeneral-Regular-48"/>
      </g>
     </g>
    </g>
    <g id="text_22">
     <!-- $r/R$ -->
     <defs>
      <path d="M 17.59375 22.296875 
L 19.203125 25.796875 
Q 22.59375 33.296875 28.59375 39.59375 
Q 32.90625 44.09375 36.5 44.09375 
Q 38.59375 44.09375 39.890625 42.6875 
Q 41.203125 41.296875 41.203125 39 
Q 41.203125 36.703125 39.953125 35.140625 
Q 38.703125 33.59375 36.5 33.59375 
Q 34.59375 33.59375 33 36.203125 
Q 32.203125 37.59375 31.40625 37.59375 
Q 28.703125 37.59375 23.203125 28.203125 
Q 19.796875 22.40625 17.75 17.25 
Q 15.703125 12.09375 12.09375 0 
L 4.5 0 
L 12.59375 29.203125 
Q 14.203125 35.09375 14.203125 37.40625 
Q 14.203125 40 10.40625 40 
Q 9.59375 40 7.296875 39.703125 
L 7.296875 41.40625 
L 22.796875 44.09375 
L 23.09375 43.90625 
z
" id="STIXGeneral-Italic-114"/>
     </defs>
     <g transform="translate(278.194286 892.996371)scale(0.18 -0.18)">
      <use transform="translate(0 0.40625)" xlink:href="#STIXGeneral-Italic-114"/>
      <use transform="translate(38.899994 0.40625)" xlink:href="#STIXGeneral-Regular-47"/>
      <use transform="translate(66.699982 0.40625)" xlink:href="#STIXGeneral-Italic-82"/>
     </g>
    </g>
   </g>
   <g id="matplotlib.axis_14">
    <g id="ytick_13">
     <g id="line2d_67">
      <g>
       <use style="fill:#ffffff;stroke:#000000;stroke-width:0.8;" x="117" xlink:href="#m397f1d49b6" y="800.118517"/>
      </g>
     </g>
     <g id="text_23">
      <!-- −0.2 -->
      <g transform="translate(75.17 806.265236)scale(0.18 -0.18)">
       <use xlink:href="#STIXGeneral-Regular-8722"/>
       <use x="68.499985" xlink:href="#STIXGeneral-Regular-48"/>
       <use x="118.499969" xlink:href="#STIXGeneral-Regular-46"/>
       <use x="143.499954" xlink:href="#STIXGeneral-Regular-50"/>
      </g>
     </g>
    </g>
    <g id="ytick_14">
     <g id="line2d_68">
      <g>
       <use style="fill:#ffffff;stroke:#000000;stroke-width:0.8;" x="117" xlink:href="#m397f1d49b6" y="737.313323"/>
      </g>
     </g>
     <g id="text_24">
      <!-- 0.0 -->
      <g transform="translate(87.5 743.460041)scale(0.18 -0.18)">
       <use xlink:href="#STIXGeneral-Regular-48"/>
       <use x="49.999985" xlink:href="#STIXGeneral-Regular-46"/>
       <use x="74.999969" xlink:href="#STIXGeneral-Regular-48"/>
      </g>
     </g>
    </g>
    <g id="text_25">
     <!-- $c/R$ -->
     <g transform="translate(67.263438 783.91618)rotate(-90)scale(0.18 -0.18)">
      <use transform="translate(0 0.40625)" xlink:href="#STIXGeneral-Italic-99"/>
      <use transform="translate(44.399994 0.40625)" xlink:href="#STIXGeneral-Regular-47"/>
      <use transform="translate(72.199982 0.40625)" xlink:href="#STIXGeneral-Italic-82"/>
     </g>
    </g>
   </g>
   <g id="line2d_69">
    <path clip-path="url(#pde8e6a6e31)" d="M 117 737.313323 
L 462.428571 737.313323 
" style="fill:none;stroke:#000000;stroke-dasharray:3.2,0.8,0.5,0.8;stroke-dashoffset:0;stroke-width:0.5;"/>
   </g>
   <g id="line2d_70">
    <path clip-path="url(#pde8e6a6e31)" d="M 132.701299 735.45618 
L 133.957403 735.45618 
L 134.585455 735.057665 
L 136.155584 734.056183 
L 138.353766 732.929587 
L 141.494026 731.601564 
L 145.262338 730.255573 
L 149.972727 728.807203 
L 155.939221 727.21901 
L 162.847792 725.619024 
L 171.012468 723.968135 
L 180.119221 722.359748 
L 190.168052 720.810218 
L 201.472987 719.298148 
L 213.405974 717.926564 
L 226.281039 716.671813 
L 239.784156 715.580788 
L 253.915325 714.665826 
L 268.360519 713.956771 
L 282.805714 713.46897 
L 297.250909 713.200385 
L 311.696104 713.15411 
L 325.827273 713.332084 
L 339.33039 713.721205 
L 352.205455 714.308787 
L 364.452468 715.085731 
L 376.071429 716.046606 
L 386.748312 717.153976 
L 396.483117 718.388322 
L 404.961818 719.678028 
L 412.498442 721.035835 
L 419.092987 722.434822 
L 425.059481 723.927339 
L 430.083896 725.416111 
L 434.166234 726.851178 
L 437.620519 728.303469 
L 440.132727 729.57372 
L 442.330909 730.931161 
L 443.901039 732.149302 
L 445.157143 733.423694 
L 445.785195 734.275601 
L 446.413247 735.530783 
L 446.727273 737.313323 
L 446.727273 737.313323 
L 446.413247 742.660942 
L 445.785195 746.426486 
L 444.843117 750.056312 
L 443.901039 752.805385 
L 442.644935 755.79346 
L 441.074805 758.895353 
L 439.190649 762.043656 
L 437.306494 764.774955 
L 435.108312 767.589597 
L 432.596104 770.444379 
L 429.76987 773.307683 
L 426.62961 776.155439 
L 423.175325 778.968531 
L 419.407013 781.731114 
L 415.324675 784.429525 
L 410.928312 787.051549 
L 406.217922 789.585919 
L 401.193506 792.021962 
L 395.855065 794.349343 
L 390.202597 796.557865 
L 384.236104 798.637315 
L 377.955584 800.577327 
L 371.675065 802.287408 
L 365.080519 803.857853 
L 358.171948 805.275947 
L 350.949351 806.528639 
L 343.412727 807.602375 
L 335.876104 808.452194 
L 328.025455 809.112022 
L 320.174805 809.552339 
L 312.01013 809.786414 
L 303.845455 809.799384 
L 295.680779 809.596562 
L 287.202078 809.161356 
L 278.723377 808.499452 
L 270.244675 807.61121 
L 261.765974 806.495176 
L 253.287273 805.147986 
L 245.122597 803.627158 
L 236.957922 801.880003 
L 229.107273 799.977933 
L 221.256623 797.84713 
L 213.72 795.573411 
L 206.497403 793.169888 
L 199.274805 790.52851 
L 192.366234 787.75821 
L 185.771688 784.86705 
L 179.491169 781.861486 
L 173.838701 778.916998 
L 168.50026 775.895652 
L 163.475844 772.802165 
L 158.765455 769.639257 
L 154.369091 766.40683 
L 150.600779 763.3671 
L 147.146494 760.3013 
L 144.006234 757.208362 
L 141.494026 754.448598 
L 139.295844 751.740118 
L 137.411688 749.097355 
L 135.841558 746.537201 
L 134.585455 744.080296 
L 133.957403 742.884751 
L 132.701299 742.884751 
L 132.701299 742.884751 
" style="fill:none;stroke:#000000;stroke-linecap:square;stroke-width:4;"/>
   </g>
   <g id="patch_33">
    <path d="M 117 853.502933 
L 117 690.209427 
" style="fill:none;stroke:#000000;stroke-linecap:square;stroke-linejoin:miter;stroke-width:0.8;"/>
   </g>
   <g id="patch_34">
    <path d="M 462.428571 853.502933 
L 462.428571 690.209427 
" style="fill:none;stroke:#000000;stroke-linecap:square;stroke-linejoin:miter;stroke-width:0.8;"/>
   </g>
   <g id="patch_35">
    <path d="M 117 853.502933 
L 462.428571 853.502933 
" style="fill:none;stroke:#000000;stroke-linecap:square;stroke-linejoin:miter;stroke-width:0.8;"/>
   </g>
   <g id="patch_36">
    <path d="M 117 690.209427 
L 462.428571 690.209427 
" style="fill:none;stroke:#000000;stroke-linecap:square;stroke-linejoin:miter;stroke-width:0.8;"/>
   </g>
   <g id="text_26">
    <!-- Drone fly -->
    <defs>
     <path d="M 1.59375 66.203125 
L 28.59375 66.203125 
Q 48.09375 66.203125 58.59375 57.09375 
Q 68.5 48.59375 68.5 33.40625 
Q 68.5 15.09375 54.90625 6.40625 
Q 45 0 29.703125 0 
L 1.59375 0 
L 1.59375 1.90625 
Q 7.40625 2.296875 8.90625 3.9375 
Q 10.40625 5.59375 10.40625 11.5 
L 10.40625 55 
Q 10.40625 60.796875 8.90625 62.34375 
Q 7.40625 63.90625 1.59375 64.296875 
z
M 20.59375 58.296875 
L 20.59375 8.40625 
Q 20.59375 5.703125 21.546875 4.703125 
Q 22.5 3.703125 25.40625 3.703125 
Q 33.203125 3.703125 38 4.796875 
Q 42.796875 5.90625 47.203125 8.90625 
Q 57.59375 15.90625 57.59375 32.796875 
Q 57.59375 47.296875 48.09375 55.59375 
Q 43.796875 59.40625 38.6875 60.953125 
Q 33.59375 62.5 25.90625 62.5 
Q 23 62.5 21.796875 61.59375 
Q 20.59375 60.703125 20.59375 58.296875 
z
" id="STIXGeneral-Regular-68"/>
    </defs>
    <g transform="translate(254.974286 681.330946)scale(0.18 -0.18)">
     <use xlink:href="#STIXGeneral-Regular-68"/>
     <use x="72.199982" xlink:href="#STIXGeneral-Regular-114"/>
     <use x="105.499969" xlink:href="#STIXGeneral-Regular-111"/>
     <use x="155.499954" xlink:href="#STIXGeneral-Regular-110"/>
     <use x="205.499939" xlink:href="#STIXGeneral-Regular-101"/>
     <use x="249.899933" xlink:href="#STIXGeneral-Regular-32"/>
     <use x="274.899918" xlink:href="#STIXGeneral-Regular-102"/>
     <use x="308.199905" xlink:href="#STIXGeneral-Regular-108"/>
     <use x="335.999893" xlink:href="#STIXGeneral-Regular-121"/>
    </g>
   </g>
  </g>
  <g id="axes_8">
   <g id="patch_37">
    <path d="M 496.971429 853.502933 
L 842.4 853.502933 
L 842.4 690.209427 
L 496.971429 690.209427 
z
" style="fill:#ffffff;"/>
   </g>
   <g id="matplotlib.axis_15">
    <g id="xtick_43">
     <g id="line2d_71">
      <g>
       <use style="fill:#ffffff;stroke:#000000;stroke-width:0.8;" x="512.672727" xlink:href="#mf754010f0a" y="853.502933"/>
      </g>
     </g>
     <g id="text_27">
      <!-- 0.0 -->
      <g transform="translate(501.422727 872.796371)scale(0.18 -0.18)">
       <use xlink:href="#STIXGeneral-Regular-48"/>
       <use x="49.999985" xlink:href="#STIXGeneral-Regular-46"/>
       <use x="74.999969" xlink:href="#STIXGeneral-Regular-48"/>
      </g>
     </g>
    </g>
    <g id="xtick_44">
     <g id="line2d_72">
      <g>
       <use style="fill:#ffffff;stroke:#000000;stroke-width:0.8;" x="575.477922" xlink:href="#mf754010f0a" y="853.502933"/>
      </g>
     </g>
     <g id="text_28">
      <!-- 0.2 -->
      <g transform="translate(564.227922 872.796371)scale(0.18 -0.18)">
       <use xlink:href="#STIXGeneral-Regular-48"/>
       <use x="49.999985" xlink:href="#STIXGeneral-Regular-46"/>
       <use x="74.999969" xlink:href="#STIXGeneral-Regular-50"/>
      </g>
     </g>
    </g>
    <g id="xtick_45">
     <g id="line2d_73">
      <g>
       <use style="fill:#ffffff;stroke:#000000;stroke-width:0.8;" x="638.283117" xlink:href="#mf754010f0a" y="853.502933"/>
      </g>
     </g>
     <g id="text_29">
      <!-- 0.4 -->
      <g transform="translate(627.033117 872.796371)scale(0.18 -0.18)">
       <use xlink:href="#STIXGeneral-Regular-48"/>
       <use x="49.999985" xlink:href="#STIXGeneral-Regular-46"/>
       <use x="74.999969" xlink:href="#STIXGeneral-Regular-52"/>
      </g>
     </g>
    </g>
    <g id="xtick_46">
     <g id="line2d_74">
      <g>
       <use style="fill:#ffffff;stroke:#000000;stroke-width:0.8;" x="701.088312" xlink:href="#mf754010f0a" y="853.502933"/>
      </g>
     </g>
     <g id="text_30">
      <!-- 0.6 -->
      <g transform="translate(689.838312 872.796371)scale(0.18 -0.18)">
       <use xlink:href="#STIXGeneral-Regular-48"/>
       <use x="49.999985" xlink:href="#STIXGeneral-Regular-46"/>
       <use x="74.999969" xlink:href="#STIXGeneral-Regular-54"/>
      </g>
     </g>
    </g>
    <g id="xtick_47">
     <g id="line2d_75">
      <g>
       <use style="fill:#ffffff;stroke:#000000;stroke-width:0.8;" x="763.893506" xlink:href="#mf754010f0a" y="853.502933"/>
      </g>
     </g>
     <g id="text_31">
      <!-- 0.8 -->
      <g transform="translate(752.643506 872.796371)scale(0.18 -0.18)">
       <use xlink:href="#STIXGeneral-Regular-48"/>
       <use x="49.999985" xlink:href="#STIXGeneral-Regular-46"/>
       <use x="74.999969" xlink:href="#STIXGeneral-Regular-56"/>
      </g>
     </g>
    </g>
    <g id="xtick_48">
     <g id="line2d_76">
      <g>
       <use style="fill:#ffffff;stroke:#000000;stroke-width:0.8;" x="826.698701" xlink:href="#mf754010f0a" y="853.502933"/>
      </g>
     </g>
     <g id="text_32">
      <!-- 1.0 -->
      <g transform="translate(815.448701 872.796371)scale(0.18 -0.18)">
       <use xlink:href="#STIXGeneral-Regular-49"/>
       <use x="49.999985" xlink:href="#STIXGeneral-Regular-46"/>
       <use x="74.999969" xlink:href="#STIXGeneral-Regular-48"/>
      </g>
     </g>
    </g>
    <g id="text_33">
     <!-- $r/R$ -->
     <g transform="translate(658.165714 892.996371)scale(0.18 -0.18)">
      <use transform="translate(0 0.40625)" xlink:href="#STIXGeneral-Italic-114"/>
      <use transform="translate(38.899994 0.40625)" xlink:href="#STIXGeneral-Regular-47"/>
      <use transform="translate(66.699982 0.40625)" xlink:href="#STIXGeneral-Italic-82"/>
     </g>
    </g>
   </g>
   <g id="matplotlib.axis_16">
    <g id="ytick_15">
     <g id="line2d_77">
      <g>
       <use style="fill:#ffffff;stroke:#000000;stroke-width:0.8;" x="496.971429" xlink:href="#m397f1d49b6" y="800.118517"/>
      </g>
     </g>
    </g>
    <g id="ytick_16">
     <g id="line2d_78">
      <g>
       <use style="fill:#ffffff;stroke:#000000;stroke-width:0.8;" x="496.971429" xlink:href="#m397f1d49b6" y="737.313323"/>
      </g>
     </g>
    </g>
   </g>
   <g id="line2d_79">
    <path clip-path="url(#pd4db253ebc)" d="M 496.971429 737.313323 
L 842.4 737.313323 
" style="fill:none;stroke:#000000;stroke-dasharray:3.2,0.8,0.5,0.8;stroke-dashoffset:0;stroke-width:0.5;"/>
   </g>
   <g id="line2d_80">
    <path clip-path="url(#pd4db253ebc)" d="M 512.672727 735.842099 
L 519.581299 735.749036 
L 529.316104 733.865829 
L 542.191169 731.611166 
L 556.636364 729.309997 
L 572.023636 727.082234 
L 588.038961 724.987805 
L 604.368312 723.078763 
L 620.697662 721.39656 
L 636.712987 719.970209 
L 652.414286 718.793525 
L 667.801558 717.863256 
L 682.560779 717.190673 
L 697.005974 716.755935 
L 710.823117 716.564867 
L 723.698182 716.60435 
L 735.945195 716.858759 
L 747.564156 717.320786 
L 758.241039 717.962533 
L 768.28987 718.788261 
L 777.396623 719.757373 
L 785.561299 720.84291 
L 792.783896 722.014886 
L 799.378442 723.305854 
L 805.030909 724.632326 
L 809.741299 725.947342 
L 813.823636 727.302534 
L 817.277922 728.677453 
L 820.104156 730.043298 
L 822.302338 731.354045 
L 823.872468 732.526701 
L 825.128571 733.745919 
L 825.756623 734.554029 
L 826.384675 735.728574 
L 826.698701 737.313323 
L 826.698701 737.313323 
L 826.384675 742.06757 
L 825.756623 745.591205 
L 824.814545 749.039972 
L 823.872468 751.673189 
L 822.616364 754.548626 
L 821.046234 757.542172 
L 819.162078 760.583746 
L 817.277922 763.220931 
L 815.07974 765.933301 
L 812.567532 768.675004 
L 809.741299 771.411266 
L 806.601039 774.114634 
L 803.460779 776.534128 
L 800.006494 778.927123 
L 796.238182 781.269942 
L 792.155844 783.541836 
L 787.759481 785.724247 
L 783.049091 787.800257 
L 778.338701 789.639294 
L 773.314286 791.370285 
L 767.975844 792.976828 
L 762.323377 794.443384 
L 756.356883 795.755089 
L 750.076364 796.897587 
L 743.795844 797.816502 
L 737.201299 798.55977 
L 730.292727 799.112906 
L 723.07013 799.461653 
L 715.847532 799.591029 
L 708.310909 799.506328 
L 700.46026 799.192971 
L 692.295584 798.636354 
L 684.130909 797.856093 
L 675.652208 796.819897 
L 667.173506 795.563044 
L 658.380779 794.035393 
L 649.274026 792.220715 
L 640.167273 790.176692 
L 631.060519 787.90933 
L 621.63974 785.333856 
L 612.218961 782.52849 
L 602.798182 779.495844 
L 593.063377 776.124527 
L 583.328571 772.511049 
L 573.907792 768.780668 
L 564.487013 764.814895 
L 555.066234 760.603822 
L 545.959481 756.284328 
L 537.480779 752.020038 
L 529.63013 747.829039 
L 522.721558 743.896657 
L 518.953247 741.726995 
L 512.672727 741.726995 
L 512.672727 741.726995 
" style="fill:none;stroke:#000000;stroke-linecap:square;stroke-width:4;"/>
   </g>
   <g id="patch_38">
    <path d="M 496.971429 853.502933 
L 496.971429 690.209427 
" style="fill:none;stroke:#000000;stroke-linecap:square;stroke-linejoin:miter;stroke-width:0.8;"/>
   </g>
   <g id="patch_39">
    <path d="M 842.4 853.502933 
L 842.4 690.209427 
" style="fill:none;stroke:#000000;stroke-linecap:square;stroke-linejoin:miter;stroke-width:0.8;"/>
   </g>
   <g id="patch_40">
    <path d="M 496.971429 853.502933 
L 842.4 853.502933 
" style="fill:none;stroke:#000000;stroke-linecap:square;stroke-linejoin:miter;stroke-width:0.8;"/>
   </g>
   <g id="patch_41">
    <path d="M 496.971429 690.209427 
L 842.4 690.209427 
" style="fill:none;stroke:#000000;stroke-linecap:square;stroke-linejoin:miter;stroke-width:0.8;"/>
   </g>
   <g id="text_34">
    <!-- Ladybird -->
    <defs>
     <path d="M 59.796875 17.40625 
L 55 0 
L 1.203125 0 
L 1.203125 1.90625 
Q 6.703125 2.203125 8.296875 4 
Q 9.90625 5.796875 9.90625 11.5 
L 9.90625 54.59375 
Q 9.90625 60.5 8.453125 62.203125 
Q 7 63.90625 1.203125 64.296875 
L 1.203125 66.203125 
L 29.5 66.203125 
L 29.5 64.296875 
Q 23.40625 63.90625 21.75 62.25 
Q 20.09375 60.59375 20.09375 54.796875 
L 20.09375 8.40625 
Q 20.09375 5.59375 21.84375 4.75 
Q 23.59375 3.90625 29.09375 3.90625 
L 36.09375 3.90625 
Q 48.203125 3.90625 53 10 
Q 55 12.703125 57.203125 17.40625 
z
" id="STIXGeneral-Regular-76"/>
     <path d="M 49.09375 4.203125 
L 34.40625 -1 
L 34 -0.703125 
L 34 5.703125 
Q 29.203125 -1 21.203125 -1 
Q 12.90625 -1 7.796875 4.953125 
Q 2.703125 10.90625 2.703125 20.5 
Q 2.703125 31.09375 8.796875 38.546875 
Q 14.90625 46 23.5 46 
Q 28.90625 46 34 41.703125 
L 34 57.296875 
Q 34 60.40625 33.09375 61.40625 
Q 32.203125 62.40625 29.40625 62.40625 
Q 28 62.40625 27.203125 62.296875 
L 27.203125 63.90625 
Q 36.296875 66.296875 41.90625 68.296875 
L 42.40625 68.09375 
L 42.40625 11.40625 
Q 42.40625 7.90625 43.25 6.796875 
Q 44.09375 5.703125 46.796875 5.703125 
Q 47.40625 5.703125 49.09375 5.796875 
z
M 34 10.203125 
L 34 33.203125 
Q 34 37.203125 30.953125 40.203125 
Q 27.90625 43.203125 23.796875 43.203125 
Q 18.09375 43.203125 14.6875 38.09375 
Q 11.296875 33 11.296875 24.5 
Q 11.296875 15.296875 15.046875 9.75 
Q 18.796875 4.203125 25.09375 4.203125 
Q 29.796875 4.203125 32.5 7.40625 
Q 34 9.09375 34 10.203125 
z
" id="STIXGeneral-Regular-100"/>
    </defs>
    <g transform="translate(636.692277 681.330946)scale(0.18 -0.18)">
     <use xlink:href="#STIXGeneral-Regular-76"/>
     <use x="61.099991" xlink:href="#STIXGeneral-Regular-97"/>
     <use x="105.499985" xlink:href="#STIXGeneral-Regular-100"/>
     <use x="155.499969" xlink:href="#STIXGeneral-Regular-121"/>
     <use x="205.499954" xlink:href="#STIXGeneral-Regular-98"/>
     <use x="255.499939" xlink:href="#STIXGeneral-Regular-105"/>
     <use x="283.299927" xlink:href="#STIXGeneral-Regular-114"/>
     <use x="316.599915" xlink:href="#STIXGeneral-Regular-100"/>
    </g>
   </g>
  </g>
 </g>
 <defs>
  <clipPath id="p1c7bf37a5a">
   <rect height="163.293506" width="345.428571" x="117" y="104.097067"/>
  </clipPath>
  <clipPath id="p7aeace5fad">
   <rect height="163.293506" width="345.428571" x="496.971429" y="104.097067"/>
  </clipPath>
  <clipPath id="p343aa5224a">
   <rect height="163.293506" width="345.428571" x="117" y="299.467853"/>
  </clipPath>
  <clipPath id="p92eb9b73a9">
   <rect height="163.293506" width="345.428571" x="496.971429" y="299.467853"/>
  </clipPath>
  <clipPath id="p140b31c333">
   <rect height="163.293506" width="345.428571" x="117" y="494.83864"/>
  </clipPath>
  <clipPath id="pe6d5c6537e">
   <rect height="163.293506" width="345.428571" x="496.971429" y="494.83864"/>
  </clipPath>
  <clipPath id="pde8e6a6e31">
   <rect height="163.293506" width="345.428571" x="117" y="690.209427"/>
  </clipPath>
  <clipPath id="pd4db253ebc">
   <rect height="163.293506" width="345.428571" x="496.971429" y="690.209427"/>
  </clipPath>
 </defs>
</svg>
