<?xml version="1.0" encoding="utf-8" standalone="no"?>
<!DOCTYPE svg PUBLIC "-//W3C//DTD SVG 1.1//EN"
  "http://www.w3.org/Graphics/SVG/1.1/DTD/svg11.dtd">
<!-- Created with matplotlib (https://matplotlib.org/) -->
<svg height="468pt" version="1.1" viewBox="0 0 864 468" width="864pt" xmlns="http://www.w3.org/2000/svg" xmlns:xlink="http://www.w3.org/1999/xlink">
 <metadata>
  <rdf:RDF xmlns:cc="http://creativecommons.org/ns#" xmlns:dc="http://purl.org/dc/elements/1.1/" xmlns:rdf="http://www.w3.org/1999/02/22-rdf-syntax-ns#">
   <cc:Work>
    <dc:type rdf:resource="http://purl.org/dc/dcmitype/StillImage"/>
    <dc:date>2021-12-16T09:54:23.772510</dc:date>
    <dc:format>image/svg+xml</dc:format>
    <dc:creator>
     <cc:Agent>
      <dc:title>Matplotlib v3.3.4, https://matplotlib.org/</dc:title>
     </cc:Agent>
    </dc:creator>
   </cc:Work>
  </rdf:RDF>
 </metadata>
 <defs>
  <style type="text/css">*{stroke-linecap:butt;stroke-linejoin:round;}</style>
 </defs>
 <g id="figure_1">
  <g id="patch_1">
   <path d="M 0 468 
L 864 468 
L 864 0 
L 0 0 
z
" style="fill:#ffffff;"/>
  </g>
  <g id="axes_1">
   <g id="patch_2">
    <path d="M 86.4 199.172093 
L 412.437736 199.172093 
L 412.437736 46.8 
L 86.4 46.8 
z
" style="fill:#ffffff;"/>
   </g>
   <g id="matplotlib.axis_1">
    <g id="xtick_1">
     <g id="line2d_1">
      <defs>
       <path d="M 0 0 
L 0 3.5 
" id="mb922319aa8" style="stroke:#000000;stroke-width:0.8;"/>
      </defs>
      <g>
       <use style="fill:#ffffff;stroke:#000000;stroke-width:0.8;" x="86.4" xlink:href="#mb922319aa8" y="199.172093"/>
      </g>
     </g>
     <g id="text_1">
      <!-- 1.0 -->
      <g transform="translate(74.525 219.148499)scale(0.19 -0.19)">
       <defs>
        <path d="M 39.40625 0 
L 11.796875 0 
L 11.796875 1.5 
Q 17.296875 1.796875 19.296875 3.546875 
Q 21.296875 5.296875 21.296875 9.5 
L 21.296875 54.40625 
Q 21.296875 59.296875 18.296875 59.296875 
Q 16.90625 59.296875 13.796875 58.09375 
L 11.09375 57.09375 
L 11.09375 58.5 
L 29 67.59375 
L 29.90625 67.296875 
L 29.90625 7.59375 
Q 29.90625 4.296875 31.90625 2.890625 
Q 33.90625 1.5 39.40625 1.5 
z
" id="STIXGeneral-Regular-49"/>
        <path d="M 18.09375 4.296875 
Q 18.09375 2.09375 16.4375 0.5 
Q 14.796875 -1.09375 12.5 -1.09375 
Q 10.203125 -1.09375 8.59375 0.5 
Q 7 2.09375 7 4.390625 
Q 7 6.703125 8.640625 8.34375 
Q 10.296875 10 12.59375 10 
Q 14.796875 10 16.4375 8.296875 
Q 18.09375 6.59375 18.09375 4.296875 
z
" id="STIXGeneral-Regular-46"/>
        <path d="M 47.59375 33 
Q 47.59375 26.296875 46.296875 20.34375 
Q 45 14.40625 42.453125 9.40625 
Q 39.90625 4.40625 35.40625 1.5 
Q 30.90625 -1.40625 25 -1.40625 
Q 18.90625 -1.40625 14.296875 1.6875 
Q 9.703125 4.796875 7.203125 10 
Q 4.703125 15.203125 3.546875 21.09375 
Q 2.40625 27 2.40625 33.59375 
Q 2.40625 42.90625 4.703125 50.34375 
Q 7 57.796875 12.34375 62.6875 
Q 17.703125 67.59375 25.40625 67.59375 
Q 35.203125 67.59375 41.390625 58 
Q 47.59375 48.40625 47.59375 33 
z
M 38 32.5 
Q 38 48.296875 34.640625 56.640625 
Q 31.296875 65 24.796875 65 
Q 18.59375 65 15.296875 56.59375 
Q 12 48.203125 12 32.90625 
Q 12 17.5 15.296875 9.34375 
Q 18.59375 1.203125 25 1.203125 
Q 31.296875 1.203125 34.640625 9.34375 
Q 38 17.5 38 32.5 
z
" id="STIXGeneral-Regular-48"/>
       </defs>
       <use xlink:href="#STIXGeneral-Regular-49"/>
       <use x="49.999985" xlink:href="#STIXGeneral-Regular-46"/>
       <use x="74.999969" xlink:href="#STIXGeneral-Regular-48"/>
      </g>
     </g>
    </g>
    <g id="xtick_2">
     <g id="line2d_2">
      <g>
       <use style="fill:#ffffff;stroke:#000000;stroke-width:0.8;" x="195.079245" xlink:href="#mb922319aa8" y="199.172093"/>
      </g>
     </g>
     <g id="text_2">
      <!-- 1.2 -->
      <g transform="translate(183.204245 219.148499)scale(0.19 -0.19)">
       <defs>
        <path d="M 47.40625 13.703125 
L 42 0 
L 2.90625 0 
L 2.90625 1.203125 
L 20.703125 20.09375 
Q 27.703125 27.40625 30.703125 33.5 
Q 33.703125 39.59375 33.703125 46.09375 
Q 33.703125 52.796875 30 56.5 
Q 26.296875 60.203125 19.796875 60.203125 
Q 14.40625 60.203125 11.25 57.390625 
Q 8.09375 54.59375 5.09375 47.203125 
L 3 47.703125 
Q 4.703125 57 9.84375 62.296875 
Q 15 67.59375 23.796875 67.59375 
Q 32.09375 67.59375 37.1875 62.59375 
Q 42.296875 57.59375 42.296875 50 
Q 42.296875 38.703125 29.5 25.203125 
L 13 7.59375 
L 36.40625 7.59375 
Q 39.703125 7.59375 41.640625 8.890625 
Q 43.59375 10.203125 46 14.296875 
z
" id="STIXGeneral-Regular-50"/>
       </defs>
       <use xlink:href="#STIXGeneral-Regular-49"/>
       <use x="49.999985" xlink:href="#STIXGeneral-Regular-46"/>
       <use x="74.999969" xlink:href="#STIXGeneral-Regular-50"/>
      </g>
     </g>
    </g>
    <g id="xtick_3">
     <g id="line2d_3">
      <g>
       <use style="fill:#ffffff;stroke:#000000;stroke-width:0.8;" x="303.758491" xlink:href="#mb922319aa8" y="199.172093"/>
      </g>
     </g>
     <g id="text_3">
      <!-- 1.4 -->
      <g transform="translate(291.883491 219.148499)scale(0.19 -0.19)">
       <defs>
        <path d="M 47.296875 16.703125 
L 37 16.703125 
L 37 0 
L 29.203125 0 
L 29.203125 16.703125 
L 1.203125 16.703125 
L 1.203125 23.09375 
L 32.59375 67.59375 
L 37 67.59375 
L 37 23.09375 
L 47.296875 23.09375 
z
M 29.203125 23.09375 
L 29.203125 57.40625 
L 5.203125 23.09375 
z
" id="STIXGeneral-Regular-52"/>
       </defs>
       <use xlink:href="#STIXGeneral-Regular-49"/>
       <use x="49.999985" xlink:href="#STIXGeneral-Regular-46"/>
       <use x="74.999969" xlink:href="#STIXGeneral-Regular-52"/>
      </g>
     </g>
    </g>
    <g id="xtick_4">
     <g id="line2d_4">
      <g>
       <use style="fill:#ffffff;stroke:#000000;stroke-width:0.8;" x="412.437736" xlink:href="#mb922319aa8" y="199.172093"/>
      </g>
     </g>
     <g id="text_4">
      <!-- 1.6 -->
      <g transform="translate(400.562736 219.148499)scale(0.19 -0.19)">
       <defs>
        <path d="M 44.59375 68.40625 
L 44.796875 66.796875 
Q 33 64.90625 25.09375 57.25 
Q 17.203125 49.59375 15.203125 38.296875 
Q 21 42.796875 27.90625 42.796875 
Q 36.703125 42.796875 41.75 37.1875 
Q 46.796875 31.59375 46.796875 21.90625 
Q 46.796875 12.09375 41.703125 5.90625 
Q 35.796875 -1.40625 25.796875 -1.40625 
Q 13.59375 -1.40625 8.09375 8.703125 
Q 3.40625 17.296875 3.40625 27.90625 
Q 3.40625 44.296875 14.296875 55.5 
Q 20.5 61.90625 27.046875 64.546875 
Q 33.59375 67.203125 44.59375 68.40625 
z
M 37.796875 18.796875 
Q 37.796875 38.203125 24.296875 38.203125 
Q 19.296875 38.203125 16 35.546875 
Q 12.703125 32.90625 12.703125 26.59375 
Q 12.703125 14.90625 16.34375 8.15625 
Q 20 1.40625 26.90625 1.40625 
Q 32.203125 1.40625 35 6.15625 
Q 37.796875 10.90625 37.796875 18.796875 
z
" id="STIXGeneral-Regular-54"/>
       </defs>
       <use xlink:href="#STIXGeneral-Regular-49"/>
       <use x="49.999985" xlink:href="#STIXGeneral-Regular-46"/>
       <use x="74.999969" xlink:href="#STIXGeneral-Regular-54"/>
      </g>
     </g>
    </g>
   </g>
   <g id="matplotlib.axis_2">
    <g id="ytick_1">
     <g id="line2d_5">
      <defs>
       <path d="M 0 0 
L -3.5 0 
" id="ma0265e4f0b" style="stroke:#000000;stroke-width:0.8;"/>
      </defs>
      <g>
       <use style="fill:#ffffff;stroke:#000000;stroke-width:0.8;" x="86.4" xlink:href="#ma0265e4f0b" y="166.52093"/>
      </g>
     </g>
     <g id="text_5">
      <!-- −2 -->
      <g transform="translate(56.885 173.009133)scale(0.19 -0.19)">
       <defs>
        <path d="M 62.09375 22 
L 6.40625 22 
L 6.40625 28.59375 
L 62.09375 28.59375 
z
" id="STIXGeneral-Regular-8722"/>
       </defs>
       <use xlink:href="#STIXGeneral-Regular-8722"/>
       <use x="68.499985" xlink:href="#STIXGeneral-Regular-50"/>
      </g>
     </g>
    </g>
    <g id="ytick_2">
     <g id="line2d_6">
      <g>
       <use style="fill:#ffffff;stroke:#000000;stroke-width:0.8;" x="86.4" xlink:href="#ma0265e4f0b" y="122.986047"/>
      </g>
     </g>
     <g id="text_6">
      <!-- 0 -->
      <g transform="translate(69.9 129.47425)scale(0.19 -0.19)">
       <use xlink:href="#STIXGeneral-Regular-48"/>
      </g>
     </g>
    </g>
    <g id="ytick_3">
     <g id="line2d_7">
      <g>
       <use style="fill:#ffffff;stroke:#000000;stroke-width:0.8;" x="86.4" xlink:href="#ma0265e4f0b" y="79.451163"/>
      </g>
     </g>
     <g id="text_7">
      <!-- 2 -->
      <g transform="translate(69.9 85.939366)scale(0.19 -0.19)">
       <use xlink:href="#STIXGeneral-Regular-50"/>
      </g>
     </g>
    </g>
    <g id="text_8">
     <!-- $C_l$ -->
     <g transform="translate(48.761406 131.631047)rotate(-90)scale(0.19 -0.19)">
      <defs>
       <path d="M 68.90625 66.40625 
L 65.203125 46.40625 
L 63.40625 46.703125 
Q 61.59375 63 48.5 63 
Q 37.59375 63 28.59375 53.296875 
Q 23.296875 47.703125 20.546875 39.703125 
Q 17.796875 31.703125 17.796875 23.203125 
Q 17.796875 2.703125 35.296875 2.703125 
Q 41.5 2.703125 46.640625 5.296875 
Q 51.796875 7.90625 58.203125 14.59375 
L 60 13.09375 
Q 53.296875 5.203125 46.84375 1.703125 
Q 40.40625 -1.796875 32.703125 -1.796875 
Q 21 -1.796875 13.796875 5.140625 
Q 6.59375 12.09375 6.59375 24.296875 
Q 6.59375 34.59375 11.6875 43.9375 
Q 16.796875 53.296875 25.296875 59.296875 
Q 35.5 66.59375 47.203125 66.59375 
Q 54.09375 66.59375 58.90625 64.90625 
Q 60.90625 64.203125 63 64.203125 
Q 65.703125 64.203125 66.796875 66.40625 
z
" id="STIXGeneral-Italic-67"/>
       <path d="M 27.90625 67.796875 
L 12.59375 9.296875 
Q 11.796875 6.40625 11.796875 5 
Q 11.796875 3.203125 13.5 3.203125 
Q 16.203125 3.203125 20.203125 8.90625 
L 22.703125 12.40625 
L 24.09375 11.40625 
Q 19.59375 4.296875 16.34375 1.59375 
Q 13.09375 -1.09375 9 -1.09375 
Q 4.09375 -1.09375 4.09375 4.5 
Q 4.09375 6.203125 4.5 7.5 
L 18.203125 59.90625 
Q 18.5 60.90625 18.5 61.796875 
Q 18.5 64 13.59375 64 
L 11.796875 64 
L 11.796875 65.59375 
Q 18.796875 66.40625 27.296875 68.296875 
z
" id="STIXGeneral-Italic-108"/>
      </defs>
      <use transform="translate(0 0.40625)" xlink:href="#STIXGeneral-Italic-67"/>
      <use transform="translate(66.699997 -12.821875)scale(0.7)" xlink:href="#STIXGeneral-Italic-108"/>
     </g>
    </g>
   </g>
   <g id="line2d_8">
    <path clip-path="url(#p94ceead921)" d="M 85.856604 165.54898 
L 86.943396 167.294467 
L 87.486792 167.856156 
L 88.573585 168.540462 
L 89.660377 168.735639 
L 90.74717 168.683264 
L 93.464151 167.756732 
L 134.762264 146.234905 
L 147.260377 140.360819 
L 153.237736 137.807054 
L 159.215094 135.455853 
L 166.822642 132.751424 
L 175.516981 130.033276 
L 184.211321 127.770643 
L 191.275472 126.267168 
L 196.709434 125.294543 
L 202.143396 124.485371 
L 209.750943 123.537371 
L 221.162264 122.556438 
L 222.792453 122.453951 
L 227.139623 122.226692 
L 246.701887 121.821385 
L 263.003774 122.013262 
L 311.909434 123.879958 
L 334.732075 124.82699 
L 341.796226 125.09979 
L 406.460377 126.967464 
L 412.981132 127.099282 
L 412.981132 127.099282 
" style="fill:none;stroke:#1f77b4;stroke-linecap:square;stroke-width:3.5;"/>
   </g>
   <g id="line2d_9">
    <path clip-path="url(#p94ceead921)" d="M 85.856604 113.387408 
L 86.943396 113.823226 
L 88.030189 113.994652 
L 89.660377 113.85358 
L 91.833962 113.293948 
L 94.550943 112.286241 
L 110.309434 105.685452 
L 118.460377 103.097472 
L 123.350943 101.878516 
L 127.698113 101.001604 
L 132.588679 100.245495 
L 136.935849 99.738014 
L 141.826415 99.362632 
L 147.260377 99.195291 
L 152.150943 99.257744 
L 157.584906 99.520105 
L 164.649057 100.102115 
L 171.713208 100.915704 
L 179.864151 102.067823 
L 193.449057 104.314456 
L 226.596226 109.971281 
L 244.528302 112.620046 
L 257.569811 114.286991 
L 272.784906 115.952396 
L 288.543396 117.405028 
L 302.671698 118.493482 
L 322.233962 119.730613 
L 343.426415 120.788859 
L 366.249057 121.67493 
L 390.158491 122.398637 
L 412.981132 122.947098 
L 412.981132 122.947098 
" style="fill:none;stroke:#ff7f0e;stroke-linecap:square;stroke-width:3.5;"/>
   </g>
   <g id="line2d_10">
    <path clip-path="url(#p94ceead921)" d="M 86.128302 134.806506 
L 87.215094 135.299099 
L 88.573585 135.664202 
L 90.203774 135.850928 
L 92.10566 135.834866 
L 94.007547 135.66193 
L 97.267925 135.090415 
L 99.984906 134.438425 
L 104.603774 133.051403 
L 110.581132 130.896416 
L 116.286792 128.639557 
L 130.143396 123.146437 
L 137.207547 120.610151 
L 144 118.409091 
L 150.520755 116.523228 
L 157.041509 114.859223 
L 163.562264 113.416536 
L 170.354717 112.145499 
L 177.14717 111.102674 
L 184.211321 110.247624 
L 191.54717 109.587389 
L 199.426415 109.10881 
L 207.849057 108.82567 
L 217.358491 108.74134 
L 228.226415 108.883981 
L 240.996226 109.287424 
L 257.841509 110.062904 
L 288.271698 111.742368 
L 326.309434 113.774848 
L 355.381132 115.099374 
L 384.996226 116.229732 
L 412.709434 117.115156 
L 412.709434 117.115156 
" style="fill:none;stroke:#2ca02c;stroke-linecap:square;stroke-width:3.5;"/>
   </g>
   <g id="line2d_11">
    <path clip-path="url(#p94ceead921)" d="M 85.856604 137.83624 
L 87.486792 138.872048 
L 89.660377 139.893518 
L 92.377358 140.862194 
L 95.637736 141.699016 
L 99.441509 142.437648 
L 103.245283 143.003027 
L 113.026415 143.639432 
L 117.373585 143.622404 
L 122.264151 143.387769 
L 127.154717 142.948911 
L 132.588679 142.246423 
L 139.109434 141.140495 
L 149.977358 138.999314 
L 161.932075 136.70619 
L 171.169811 135.183711 
L 182.037736 133.646792 
L 201.6 131.144373 
L 226.05283 128.183667 
L 240.724528 126.618503 
L 255.939623 125.230378 
L 270.611321 124.123797 
L 286.369811 123.17468 
L 303.758491 122.367534 
L 322.233962 121.738208 
L 343.969811 121.228182 
L 371.683019 120.835563 
L 404.830189 120.588745 
L 412.981132 120.553051 
L 412.981132 120.553051 
" style="fill:none;stroke:#d62728;stroke-linecap:square;stroke-width:3.5;"/>
   </g>
   <g id="line2d_12">
    <path clip-path="url(#p94ceead921)" d="M 86.4 122.986047 
L 412.437736 122.986047 
" style="fill:none;stroke:#000000;stroke-dasharray:3.2,0.8,0.5,0.8;stroke-dashoffset:0;stroke-width:0.5;"/>
   </g>
   <g id="line2d_13">
    <path clip-path="url(#p94ceead921)" d="M 86.4 199.172093 
L 86.4 46.8 
" style="fill:none;stroke:#000000;stroke-linecap:square;stroke-width:0.5;"/>
   </g>
   <g id="line2d_14">
    <path clip-path="url(#p94ceead921)" d="M 195.079245 199.172093 
L 195.079245 46.8 
" style="fill:none;stroke:#000000;stroke-dasharray:6.4,1.6,1,1.6;stroke-dashoffset:0;stroke-opacity:0.25;"/>
   </g>
   <g id="line2d_15">
    <path clip-path="url(#p94ceead921)" d="M 303.758491 199.172093 
L 303.758491 46.8 
" style="fill:none;stroke:#000000;stroke-dasharray:6.4,1.6,1,1.6;stroke-dashoffset:0;stroke-opacity:0.25;"/>
   </g>
   <g id="line2d_16">
    <path clip-path="url(#p94ceead921)" d="M 412.437736 199.172093 
L 412.437736 46.8 
" style="fill:none;stroke:#000000;stroke-dasharray:6.4,1.6,1,1.6;stroke-dashoffset:0;stroke-opacity:0.25;"/>
   </g>
   <g id="patch_3">
    <path d="M 86.4 199.172093 
L 86.4 46.8 
" style="fill:none;stroke:#000000;stroke-linecap:square;stroke-linejoin:miter;stroke-width:0.8;"/>
   </g>
   <g id="patch_4">
    <path d="M 412.437736 199.172093 
L 412.437736 46.8 
" style="fill:none;stroke:#000000;stroke-linecap:square;stroke-linejoin:miter;stroke-width:0.8;"/>
   </g>
   <g id="patch_5">
    <path d="M 86.4 199.172093 
L 412.437736 199.172093 
" style="fill:none;stroke:#000000;stroke-linecap:square;stroke-linejoin:miter;stroke-width:0.8;"/>
   </g>
   <g id="patch_6">
    <path d="M 86.4 46.8 
L 412.437736 46.8 
" style="fill:none;stroke:#000000;stroke-linecap:square;stroke-linejoin:miter;stroke-width:0.8;"/>
   </g>
   <g id="text_9">
    <!-- $Re = 10^2$ -->
    <g transform="translate(216.738868 28.370592)scale(0.19 -0.19)">
     <defs>
      <path d="M 13.203125 65.296875 
L 38.40625 65.296875 
Q 48.09375 65.296875 53.4375 61.5 
Q 58.796875 57.703125 58.796875 51.203125 
Q 58.796875 43.40625 52.203125 38.40625 
Q 48.296875 35.40625 39.09375 33.296875 
L 48 9.796875 
Q 49.703125 5.203125 51.546875 3.390625 
Q 53.40625 1.59375 56.703125 1.59375 
L 56.703125 0 
L 42 0 
L 29.703125 32.40625 
L 23.09375 32.90625 
L 17.59375 12.59375 
Q 16.296875 8 16.296875 6.296875 
Q 16.296875 4 17.59375 3 
Q 18.90625 2 23 1.59375 
L 23 0 
L -1.296875 0 
L -1.296875 1.59375 
Q 2.703125 2.09375 4.34375 3.796875 
Q 6 5.5 7.203125 10.09375 
L 19.09375 53.203125 
Q 20.296875 57.796875 20.296875 59.5 
Q 20.296875 61.296875 18.90625 62.296875 
Q 17.703125 63.09375 13.203125 63.703125 
z
M 30.59375 59.296875 
L 24.296875 36.59375 
Q 27.40625 36.09375 29.40625 36.09375 
Q 38.296875 36.09375 43.296875 40.09375 
Q 48.296875 44.09375 48.296875 51.09375 
Q 48.296875 56.296875 45.1875 59.296875 
Q 42.09375 62.296875 36.296875 62.296875 
Q 31.40625 62.296875 30.59375 59.296875 
z
" id="STIXGeneral-Italic-82"/>
      <path d="M 35.796875 10.90625 
L 37 9.703125 
Q 28.203125 -1.09375 16.59375 -1.09375 
Q 10.5 -1.09375 6.796875 2.65625 
Q 3.09375 6.40625 3.09375 12.59375 
Q 3.09375 24.296875 12.4375 34.1875 
Q 21.796875 44.09375 33 44.09375 
Q 36.90625 44.09375 39.046875 42.296875 
Q 41.203125 40.5 41.203125 37.296875 
Q 41.203125 30.703125 33.546875 25.5 
Q 25.90625 20.296875 12.796875 18.59375 
Q 11.796875 16.59375 11.796875 12.5 
Q 11.796875 8.40625 14.34375 5.90625 
Q 16.90625 3.40625 21.09375 3.40625 
Q 24.40625 3.40625 27.40625 4.953125 
Q 30.40625 6.5 35.796875 10.90625 
z
M 15.203125 25.203125 
L 13.5 20.796875 
Q 24.703125 23.5 29.59375 28.203125 
Q 34.59375 33 34.59375 37.90625 
Q 34.59375 41.796875 31.09375 41.796875 
Q 26.90625 41.796875 22.34375 36.9375 
Q 17.796875 32.09375 15.203125 25.203125 
z
" id="STIXGeneral-Italic-101"/>
      <path d="M 63.703125 32 
L 4.796875 32 
L 4.796875 38.59375 
L 63.703125 38.59375 
z
M 63.703125 12 
L 4.796875 12 
L 4.796875 18.59375 
L 63.703125 18.59375 
z
" id="STIXGeneral-Regular-61"/>
     </defs>
     <use transform="translate(0 0.409375)" xlink:href="#STIXGeneral-Italic-82"/>
     <use transform="translate(61.099991 0.409375)" xlink:href="#STIXGeneral-Italic-101"/>
     <use transform="translate(119.939981 0.409375)" xlink:href="#STIXGeneral-Regular-61"/>
     <use transform="translate(202.879962 0.409375)" xlink:href="#STIXGeneral-Regular-49"/>
     <use transform="translate(252.879947 0.409375)" xlink:href="#STIXGeneral-Regular-48"/>
     <use transform="translate(304.423213 35.684375)scale(0.7)" xlink:href="#STIXGeneral-Regular-50"/>
    </g>
   </g>
  </g>
  <g id="axes_2">
   <g id="patch_7">
    <path d="M 451.562264 199.172093 
L 777.6 199.172093 
L 777.6 46.8 
L 451.562264 46.8 
z
" style="fill:#ffffff;"/>
   </g>
   <g id="matplotlib.axis_3">
    <g id="xtick_5">
     <g id="line2d_17">
      <g>
       <use style="fill:#ffffff;stroke:#000000;stroke-width:0.8;" x="451.562264" xlink:href="#mb922319aa8" y="199.172093"/>
      </g>
     </g>
     <g id="text_10">
      <!-- 1.0 -->
      <g transform="translate(439.687264 219.148499)scale(0.19 -0.19)">
       <use xlink:href="#STIXGeneral-Regular-49"/>
       <use x="49.999985" xlink:href="#STIXGeneral-Regular-46"/>
       <use x="74.999969" xlink:href="#STIXGeneral-Regular-48"/>
      </g>
     </g>
    </g>
    <g id="xtick_6">
     <g id="line2d_18">
      <g>
       <use style="fill:#ffffff;stroke:#000000;stroke-width:0.8;" x="560.241509" xlink:href="#mb922319aa8" y="199.172093"/>
      </g>
     </g>
     <g id="text_11">
      <!-- 1.2 -->
      <g transform="translate(548.366509 219.148499)scale(0.19 -0.19)">
       <use xlink:href="#STIXGeneral-Regular-49"/>
       <use x="49.999985" xlink:href="#STIXGeneral-Regular-46"/>
       <use x="74.999969" xlink:href="#STIXGeneral-Regular-50"/>
      </g>
     </g>
    </g>
    <g id="xtick_7">
     <g id="line2d_19">
      <g>
       <use style="fill:#ffffff;stroke:#000000;stroke-width:0.8;" x="668.920755" xlink:href="#mb922319aa8" y="199.172093"/>
      </g>
     </g>
     <g id="text_12">
      <!-- 1.4 -->
      <g transform="translate(657.045755 219.148499)scale(0.19 -0.19)">
       <use xlink:href="#STIXGeneral-Regular-49"/>
       <use x="49.999985" xlink:href="#STIXGeneral-Regular-46"/>
       <use x="74.999969" xlink:href="#STIXGeneral-Regular-52"/>
      </g>
     </g>
    </g>
    <g id="xtick_8">
     <g id="line2d_20">
      <g>
       <use style="fill:#ffffff;stroke:#000000;stroke-width:0.8;" x="777.6" xlink:href="#mb922319aa8" y="199.172093"/>
      </g>
     </g>
     <g id="text_13">
      <!-- 1.6 -->
      <g transform="translate(765.725 219.148499)scale(0.19 -0.19)">
       <use xlink:href="#STIXGeneral-Regular-49"/>
       <use x="49.999985" xlink:href="#STIXGeneral-Regular-46"/>
       <use x="74.999969" xlink:href="#STIXGeneral-Regular-54"/>
      </g>
     </g>
    </g>
    <g id="text_14">
     <!-- $\^t$ -->
     <g transform="translate(611.921132 240.248499)scale(0.19 -0.19)">
      <defs>
       <path d="M -7.5 50.703125 
L -10.90625 50.703125 
L -23.09375 61 
L -35.203125 50.703125 
L -38.59375 50.703125 
L -26.203125 67.40625 
L -20 67.40625 
z
" id="STIXGeneral-Regular-770"/>
       <path d="M 29.59375 42.796875 
L 29.09375 39.59375 
L 20.703125 39.59375 
L 12 6.796875 
Q 11.796875 6 11.796875 5.40625 
Q 11.796875 3.796875 13.296875 3.796875 
Q 14.5 3.796875 16.09375 5.34375 
Q 17.703125 6.90625 21.40625 11.703125 
L 22.703125 11 
Q 18.09375 4 15.140625 1.453125 
Q 12.203125 -1.09375 8.40625 -1.09375 
Q 3.796875 -1.09375 3.796875 2.59375 
Q 3.796875 3.59375 5.40625 10 
L 13.203125 39.59375 
L 5.703125 39.59375 
L 5.59375 40.203125 
Q 5.59375 42 8.90625 42.703125 
Q 11.40625 43.296875 15.5 46.546875 
Q 19.59375 49.796875 22.203125 53.703125 
Q 22.796875 54.59375 23.59375 54.59375 
Q 24.5 54.59375 24.5 53.796875 
Q 24.5 53.296875 24.40625 53.09375 
L 21.59375 42.796875 
z
" id="STIXGeneral-Italic-116"/>
      </defs>
      <use transform="translate(39.042969 16.59375)" xlink:href="#STIXGeneral-Regular-770"/>
      <use transform="translate(0 0.203125)" xlink:href="#STIXGeneral-Italic-116"/>
     </g>
    </g>
   </g>
   <g id="matplotlib.axis_4">
    <g id="ytick_4">
     <g id="line2d_21">
      <g>
       <use style="fill:#ffffff;stroke:#000000;stroke-width:0.8;" x="451.562264" xlink:href="#ma0265e4f0b" y="166.52093"/>
      </g>
     </g>
     <g id="text_15">
      <!-- −2 -->
      <g transform="translate(422.047264 173.009133)scale(0.19 -0.19)">
       <use xlink:href="#STIXGeneral-Regular-8722"/>
       <use x="68.499985" xlink:href="#STIXGeneral-Regular-50"/>
      </g>
     </g>
    </g>
    <g id="ytick_5">
     <g id="line2d_22">
      <g>
       <use style="fill:#ffffff;stroke:#000000;stroke-width:0.8;" x="451.562264" xlink:href="#ma0265e4f0b" y="122.986047"/>
      </g>
     </g>
     <g id="text_16">
      <!-- 0 -->
      <g transform="translate(435.062264 129.47425)scale(0.19 -0.19)">
       <use xlink:href="#STIXGeneral-Regular-48"/>
      </g>
     </g>
    </g>
    <g id="ytick_6">
     <g id="line2d_23">
      <g>
       <use style="fill:#ffffff;stroke:#000000;stroke-width:0.8;" x="451.562264" xlink:href="#ma0265e4f0b" y="79.451163"/>
      </g>
     </g>
     <g id="text_17">
      <!-- 2 -->
      <g transform="translate(435.062264 85.939366)scale(0.19 -0.19)">
       <use xlink:href="#STIXGeneral-Regular-50"/>
      </g>
     </g>
    </g>
    <g id="text_18">
     <!-- $C_l$ -->
     <g transform="translate(413.92367 131.631047)rotate(-90)scale(0.19 -0.19)">
      <use transform="translate(0 0.40625)" xlink:href="#STIXGeneral-Italic-67"/>
      <use transform="translate(66.699997 -12.821875)scale(0.7)" xlink:href="#STIXGeneral-Italic-108"/>
     </g>
    </g>
   </g>
   <g id="line2d_24">
    <path clip-path="url(#p55d1055b87)" d="M 451.018868 174.574611 
L 452.10566 177.81406 
L 453.192453 180.076735 
L 454.279245 181.738598 
L 455.366038 182.687198 
L 455.909434 182.90491 
L 456.996226 184.444947 
L 457.539623 184.796893 
L 459.169811 186.431615 
L 460.256604 187.082283 
L 461.886792 187.721395 
L 462.430189 187.698126 
L 462.973585 187.443651 
L 464.060377 187.447571 
L 464.603774 187.034651 
L 465.14717 187.018763 
L 467.864151 185.214521 
L 469.49434 183.718064 
L 471.124528 181.774 
L 472.211321 179.990953 
L 472.754717 179.363037 
L 478.732075 168.252321 
L 479.818868 166.002427 
L 482.535849 161.274786 
L 485.25283 157.552423 
L 487.426415 155.258467 
L 490.686792 152.349954 
L 496.120755 147.441928 
L 498.29434 145.483265 
L 501.554717 142.9483 
L 505.358491 140.198229 
L 508.618868 137.766944 
L 510.249057 136.446599 
L 511.879245 135.149072 
L 516.769811 131.266887 
L 517.856604 130.401585 
L 523.833962 125.96151 
L 529.811321 121.878167 
L 533.615094 119.837406 
L 535.245283 119.079639 
L 540.679245 117.115442 
L 547.2 115.346665 
L 549.916981 114.753439 
L 550.460377 114.530267 
L 556.981132 113.366007 
L 558.611321 113.050961 
L 560.241509 112.808585 
L 561.871698 112.497675 
L 562.958491 112.089367 
L 564.045283 112.001248 
L 567.30566 111.362481 
L 568.392453 111.015076 
L 570.566038 110.897697 
L 572.196226 110.77361 
L 573.283019 110.649232 
L 580.890566 110.368862 
L 581.433962 110.366023 
L 581.977358 110.518172 
L 583.607547 110.407429 
L 584.150943 110.542096 
L 585.781132 110.609666 
L 587.411321 110.753902 
L 588.498113 110.831397 
L 589.041509 110.993008 
L 589.584906 110.898273 
L 590.671698 111.045459 
L 591.758491 111.336759 
L 593.932075 111.472215 
L 600.45283 112.376802 
L 600.996226 112.522347 
L 601.539623 112.488306 
L 603.713208 112.907058 
L 604.8 113.008301 
L 605.343396 113.133461 
L 605.886792 113.045816 
L 606.973585 113.289492 
L 608.060377 113.392232 
L 609.14717 113.626138 
L 609.690566 113.77523 
L 610.777358 113.836791 
L 613.49434 114.362605 
L 615.124528 114.575174 
L 615.667925 114.738148 
L 616.754717 114.778433 
L 617.841509 114.990688 
L 624.90566 116.216244 
L 627.079245 116.480414 
L 630.883019 117.227651 
L 632.513208 117.426503 
L 634.143396 117.82559 
L 634.686792 117.819935 
L 635.773585 117.988788 
L 639.033962 118.600613 
L 640.120755 118.77538 
L 649.901887 120.188439 
L 650.988679 120.372625 
L 652.618868 120.367426 
L 653.162264 120.582653 
L 660.226415 121.445125 
L 661.313208 121.46229 
L 663.486792 121.721883 
L 680.332075 122.685584 
L 682.50566 122.759624 
L 683.592453 122.915863 
L 691.2 122.992434 
L 696.090566 123.128098 
L 697.177358 123.138232 
L 698.264151 123.19153 
L 700.981132 123.263787 
L 703.698113 123.387356 
L 706.415094 123.423224 
L 708.045283 123.462409 
L 710.218868 123.525825 
L 713.479245 123.664476 
L 725.977358 124.19054 
L 728.150943 124.29509 
L 747.713208 125.600254 
L 749.343396 125.782463 
L 757.49434 126.397153 
L 761.298113 126.7101 
L 764.558491 126.922271 
L 766.732075 127.127032 
L 768.90566 127.321296 
L 778.143396 128.04941 
L 778.143396 128.04941 
" style="fill:none;stroke:#1f77b4;stroke-linecap:square;stroke-width:3.5;"/>
   </g>
   <g id="line2d_25">
    <path clip-path="url(#p55d1055b87)" d="M 451.018868 73.573972 
L 452.10566 73.819243 
L 453.735849 73.618627 
L 456.45283 72.509214 
L 458.626415 71.478389 
L 462.973585 69.894531 
L 467.864151 68.819353 
L 469.49434 68.489762 
L 470.581132 68.25834 
L 475.471698 67.490739 
L 476.558491 67.280216 
L 480.362264 66.923247 
L 482.535849 66.927634 
L 484.709434 66.997745 
L 489.6 67.768505 
L 492.316981 68.596574 
L 494.490566 69.389799 
L 496.120755 70.125886 
L 498.29434 71.216904 
L 501.011321 72.725377 
L 504.271698 74.795928 
L 507.532075 77.034172 
L 511.879245 80.276965 
L 512.966038 81.097025 
L 528.181132 92.945431 
L 535.788679 98.195497 
L 536.332075 98.486254 
L 537.418868 99.270584 
L 547.2 104.894177 
L 555.89434 109.072147 
L 556.981132 109.457983 
L 559.154717 110.376365 
L 562.958491 111.830511 
L 564.588679 112.385496 
L 565.675472 112.748918 
L 567.849057 113.488089 
L 576 115.817092 
L 580.890566 116.962789 
L 584.69434 117.808371 
L 586.324528 118.090081 
L 592.301887 119.163571 
L 595.562264 119.659699 
L 596.10566 119.679767 
L 597.192453 119.902343 
L 600.45283 120.336541 
L 601.539623 120.480718 
L 608.603774 121.265297 
L 619.471698 122.226334 
L 624.90566 122.59399 
L 627.622642 122.736944 
L 633.056604 123.055648 
L 656.422642 123.884324 
L 660.226415 123.988885 
L 662.943396 124.071654 
L 680.875472 124.444105 
L 715.109434 124.99575 
L 717.826415 125.03946 
L 778.143396 125.686268 
L 778.143396 125.686268 
" style="fill:none;stroke:#ff7f0e;stroke-linecap:square;stroke-width:3.5;"/>
   </g>
   <g id="line2d_26">
    <path clip-path="url(#p55d1055b87)" d="M 451.290566 123.734106 
L 452.649057 121.687963 
L 454.822642 117.923426 
L 459.441509 109.154217 
L 463.788679 101.064204 
L 466.777358 95.997983 
L 468.950943 92.691682 
L 471.396226 89.445016 
L 473.841509 86.730323 
L 475.743396 84.978549 
L 477.916981 83.36723 
L 479.818868 82.262735 
L 481.720755 81.419957 
L 483.89434 80.720677 
L 487.154717 80.040429 
L 493.132075 79.007711 
L 496.392453 78.07093 
L 501.011321 76.408465 
L 504 75.46933 
L 506.173585 74.971696 
L 508.34717 74.657768 
L 511.064151 74.514981 
L 513.781132 74.61438 
L 517.041509 75.000568 
L 520.845283 75.757249 
L 524.377358 76.69737 
L 528.181132 77.937992 
L 531.984906 79.388312 
L 536.332075 81.278343 
L 540.950943 83.51582 
L 546.928302 86.64194 
L 559.426415 93.179423 
L 565.403774 95.998929 
L 570.837736 98.337243 
L 576.271698 100.45614 
L 581.70566 102.347707 
L 587.411321 104.101168 
L 593.388679 105.712934 
L 600.45283 107.378175 
L 607.788679 108.881111 
L 614.85283 110.112247 
L 621.645283 111.066173 
L 627.622642 111.697855 
L 634.415094 112.191466 
L 660.769811 113.718965 
L 668.377358 114.541439 
L 700.437736 118.290394 
L 709.403774 118.984786 
L 720.271698 119.596622 
L 737.388679 120.268083 
L 777.871698 121.716964 
L 777.871698 121.716964 
" style="fill:none;stroke:#2ca02c;stroke-linecap:square;stroke-width:3.5;"/>
   </g>
   <g id="line2d_27">
    <path clip-path="url(#p55d1055b87)" d="M 451.018868 157.91546 
L 453.735849 158.241069 
L 456.996226 158.265268 
L 459.713208 157.989878 
L 461.886792 157.513827 
L 463.516981 156.984676 
L 465.690566 156.08097 
L 467.864151 154.995071 
L 471.667925 152.657746 
L 474.384906 150.753551 
L 477.645283 148.210876 
L 482.535849 143.799227 
L 490.143396 136.488778 
L 493.403774 133.789847 
L 495.577358 132.284603 
L 497.750943 131.076445 
L 499.924528 130.17777 
L 501.554717 129.711987 
L 503.728302 129.3731 
L 505.901887 129.231421 
L 509.70566 129.447712 
L 514.05283 130.019798 
L 516.769811 130.377492 
L 520.573585 130.704182 
L 524.377358 130.761549 
L 527.637736 130.62684 
L 530.898113 130.292881 
L 533.615094 129.797105 
L 536.332075 129.060884 
L 539.049057 128.09798 
L 542.309434 126.657574 
L 545.569811 124.978131 
L 551.003774 121.860942 
L 556.981132 118.563627 
L 560.784906 116.815261 
L 564.045283 115.639982 
L 567.30566 114.781532 
L 570.022642 114.316796 
L 573.283019 114.009398 
L 577.086792 113.943928 
L 582.520755 114.199767 
L 595.018868 115.133503 
L 602.626415 115.376115 
L 608.060377 115.365796 
L 615.124528 115.193457 
L 626.535849 114.82595 
L 636.860377 114.557295 
L 653.70566 114.302841 
L 671.09434 114.378849 
L 691.743396 114.836958 
L 740.649057 115.914853 
L 778.143396 116.050946 
L 778.143396 116.050946 
" style="fill:none;stroke:#d62728;stroke-linecap:square;stroke-width:3.5;"/>
   </g>
   <g id="line2d_28">
    <path clip-path="url(#p55d1055b87)" d="M 451.562264 122.986047 
L 777.6 122.986047 
" style="fill:none;stroke:#000000;stroke-dasharray:3.2,0.8,0.5,0.8;stroke-dashoffset:0;stroke-width:0.5;"/>
   </g>
   <g id="line2d_29">
    <path clip-path="url(#p55d1055b87)" d="M 451.562264 199.172093 
L 451.562264 46.8 
" style="fill:none;stroke:#000000;stroke-linecap:square;stroke-width:0.5;"/>
   </g>
   <g id="line2d_30">
    <path clip-path="url(#p55d1055b87)" d="M 560.241509 199.172093 
L 560.241509 46.8 
" style="fill:none;stroke:#000000;stroke-dasharray:6.4,1.6,1,1.6;stroke-dashoffset:0;stroke-opacity:0.25;"/>
   </g>
   <g id="line2d_31">
    <path clip-path="url(#p55d1055b87)" d="M 668.920755 199.172093 
L 668.920755 46.8 
" style="fill:none;stroke:#000000;stroke-dasharray:6.4,1.6,1,1.6;stroke-dashoffset:0;stroke-opacity:0.25;"/>
   </g>
   <g id="line2d_32">
    <path clip-path="url(#p55d1055b87)" d="M 777.6 199.172093 
L 777.6 46.8 
" style="fill:none;stroke:#000000;stroke-dasharray:6.4,1.6,1,1.6;stroke-dashoffset:0;stroke-opacity:0.25;"/>
   </g>
   <g id="patch_8">
    <path d="M 451.562264 199.172093 
L 451.562264 46.8 
" style="fill:none;stroke:#000000;stroke-linecap:square;stroke-linejoin:miter;stroke-width:0.8;"/>
   </g>
   <g id="patch_9">
    <path d="M 777.6 199.172093 
L 777.6 46.8 
" style="fill:none;stroke:#000000;stroke-linecap:square;stroke-linejoin:miter;stroke-width:0.8;"/>
   </g>
   <g id="patch_10">
    <path d="M 451.562264 199.172093 
L 777.6 199.172093 
" style="fill:none;stroke:#000000;stroke-linecap:square;stroke-linejoin:miter;stroke-width:0.8;"/>
   </g>
   <g id="patch_11">
    <path d="M 451.562264 46.8 
L 777.6 46.8 
" style="fill:none;stroke:#000000;stroke-linecap:square;stroke-linejoin:miter;stroke-width:0.8;"/>
   </g>
   <g id="text_19">
    <!-- $Re = 10^3$ -->
    <g transform="translate(581.901132 28.370592)scale(0.19 -0.19)">
     <defs>
      <path d="M 6.09375 51 
L 4.5 51.40625 
Q 6.796875 58.90625 11.6875 63.25 
Q 16.59375 67.59375 24.09375 67.59375 
Q 31.09375 67.59375 35.390625 63.796875 
Q 39.703125 60 39.703125 53.90625 
Q 39.703125 45.703125 30.40625 40.09375 
Q 35.90625 37.703125 38.703125 34.796875 
Q 43.09375 29.90625 43.09375 21.90625 
Q 43.09375 13.90625 38.5 7.90625 
Q 35.09375 3.296875 28.75 0.9375 
Q 22.40625 -1.40625 15.296875 -1.40625 
Q 4.09375 -1.40625 4.09375 4.296875 
Q 4.09375 5.90625 5.296875 6.90625 
Q 6.5 7.90625 8.203125 7.90625 
Q 10.703125 7.90625 14.296875 5.296875 
Q 18.703125 2.203125 22.90625 2.203125 
Q 28.40625 2.203125 32.15625 6.640625 
Q 35.90625 11.09375 35.90625 17.5 
Q 35.90625 29 25.5 32 
Q 22.40625 33 15.296875 33 
L 15.296875 34.40625 
Q 20.90625 36.296875 23.703125 38 
Q 31.796875 42.59375 31.796875 51.40625 
Q 31.796875 56.40625 28.9375 59 
Q 26.09375 61.59375 21 61.59375 
Q 12 61.59375 6.09375 51 
z
" id="STIXGeneral-Regular-51"/>
     </defs>
     <use transform="translate(0 0.409375)" xlink:href="#STIXGeneral-Italic-82"/>
     <use transform="translate(61.099991 0.409375)" xlink:href="#STIXGeneral-Italic-101"/>
     <use transform="translate(119.939981 0.409375)" xlink:href="#STIXGeneral-Regular-61"/>
     <use transform="translate(202.879962 0.409375)" xlink:href="#STIXGeneral-Regular-49"/>
     <use transform="translate(252.879947 0.409375)" xlink:href="#STIXGeneral-Regular-48"/>
     <use transform="translate(304.423213 35.684375)scale(0.7)" xlink:href="#STIXGeneral-Regular-51"/>
    </g>
   </g>
  </g>
  <g id="axes_3">
   <g id="patch_12">
    <path d="M 86.4 374.4 
L 412.437736 374.4 
L 412.437736 222.027907 
L 86.4 222.027907 
z
" style="fill:#ffffff;"/>
   </g>
   <g id="matplotlib.axis_5">
    <g id="xtick_9">
     <g id="line2d_33">
      <g>
       <use style="fill:#ffffff;stroke:#000000;stroke-width:0.8;" x="86.4" xlink:href="#mb922319aa8" y="374.4"/>
      </g>
     </g>
     <g id="text_20">
      <!-- 1.0 -->
      <g transform="translate(74.525 394.376406)scale(0.19 -0.19)">
       <use xlink:href="#STIXGeneral-Regular-49"/>
       <use x="49.999985" xlink:href="#STIXGeneral-Regular-46"/>
       <use x="74.999969" xlink:href="#STIXGeneral-Regular-48"/>
      </g>
     </g>
    </g>
    <g id="xtick_10">
     <g id="line2d_34">
      <g>
       <use style="fill:#ffffff;stroke:#000000;stroke-width:0.8;" x="195.079245" xlink:href="#mb922319aa8" y="374.4"/>
      </g>
     </g>
     <g id="text_21">
      <!-- 1.2 -->
      <g transform="translate(183.204245 394.376406)scale(0.19 -0.19)">
       <use xlink:href="#STIXGeneral-Regular-49"/>
       <use x="49.999985" xlink:href="#STIXGeneral-Regular-46"/>
       <use x="74.999969" xlink:href="#STIXGeneral-Regular-50"/>
      </g>
     </g>
    </g>
    <g id="xtick_11">
     <g id="line2d_35">
      <g>
       <use style="fill:#ffffff;stroke:#000000;stroke-width:0.8;" x="303.758491" xlink:href="#mb922319aa8" y="374.4"/>
      </g>
     </g>
     <g id="text_22">
      <!-- 1.4 -->
      <g transform="translate(291.883491 394.376406)scale(0.19 -0.19)">
       <use xlink:href="#STIXGeneral-Regular-49"/>
       <use x="49.999985" xlink:href="#STIXGeneral-Regular-46"/>
       <use x="74.999969" xlink:href="#STIXGeneral-Regular-52"/>
      </g>
     </g>
    </g>
    <g id="xtick_12">
     <g id="line2d_36">
      <g>
       <use style="fill:#ffffff;stroke:#000000;stroke-width:0.8;" x="412.437736" xlink:href="#mb922319aa8" y="374.4"/>
      </g>
     </g>
     <g id="text_23">
      <!-- 1.6 -->
      <g transform="translate(400.562736 394.376406)scale(0.19 -0.19)">
       <use xlink:href="#STIXGeneral-Regular-49"/>
       <use x="49.999985" xlink:href="#STIXGeneral-Regular-46"/>
       <use x="74.999969" xlink:href="#STIXGeneral-Regular-54"/>
      </g>
     </g>
    </g>
   </g>
   <g id="matplotlib.axis_6">
    <g id="ytick_7">
     <g id="line2d_37">
      <g>
       <use style="fill:#ffffff;stroke:#000000;stroke-width:0.8;" x="86.4" xlink:href="#ma0265e4f0b" y="339.237209"/>
      </g>
     </g>
     <g id="text_24">
      <!-- −2 -->
      <g transform="translate(56.885 345.725412)scale(0.19 -0.19)">
       <use xlink:href="#STIXGeneral-Regular-8722"/>
       <use x="68.499985" xlink:href="#STIXGeneral-Regular-50"/>
      </g>
     </g>
    </g>
    <g id="ytick_8">
     <g id="line2d_38">
      <g>
       <use style="fill:#ffffff;stroke:#000000;stroke-width:0.8;" x="86.4" xlink:href="#ma0265e4f0b" y="292.353488"/>
      </g>
     </g>
     <g id="text_25">
      <!-- 0 -->
      <g transform="translate(69.9 298.841691)scale(0.19 -0.19)">
       <use xlink:href="#STIXGeneral-Regular-48"/>
      </g>
     </g>
    </g>
    <g id="ytick_9">
     <g id="line2d_39">
      <g>
       <use style="fill:#ffffff;stroke:#000000;stroke-width:0.8;" x="86.4" xlink:href="#ma0265e4f0b" y="245.469767"/>
      </g>
     </g>
     <g id="text_26">
      <!-- 2 -->
      <g transform="translate(69.9 251.957971)scale(0.19 -0.19)">
       <use xlink:href="#STIXGeneral-Regular-50"/>
      </g>
     </g>
    </g>
    <g id="text_27">
     <!-- $C_d$ -->
     <g transform="translate(48.761406 308.378953)rotate(-90)scale(0.19 -0.19)">
      <defs>
       <path d="M 52.09375 68.296875 
L 52.703125 67.703125 
L 48.796875 52.5 
L 42.796875 30.59375 
Q 36.296875 6.703125 36.296875 6 
Q 36.296875 4 38.09375 4 
Q 39.40625 4 40.84375 5.25 
Q 42.296875 6.5 46.296875 11.09375 
L 47.5 10.09375 
Q 39.796875 -1.296875 32.796875 -1.296875 
Q 30.90625 -1.296875 29.796875 -0.09375 
Q 28.703125 1.09375 28.703125 3.203125 
Q 28.703125 6.203125 30 12.09375 
Q 25.703125 4.796875 21.546875 1.84375 
Q 17.40625 -1.09375 12.203125 -1.09375 
Q 7.203125 -1.09375 4.34375 1.953125 
Q 1.5 5 1.5 10.59375 
Q 1.5 22.5 11.140625 33.296875 
Q 20.796875 44.09375 30.703125 44.09375 
Q 33.796875 44.09375 35.25 42.6875 
Q 36.703125 41.296875 37.203125 38.296875 
L 37.296875 38.296875 
L 41.796875 54.59375 
Q 43.203125 59.5 43.203125 61.703125 
Q 43.203125 63.296875 42.09375 63.6875 
Q 41 64.09375 36.796875 64.296875 
L 36.796875 66 
Q 44.5 66.703125 52.09375 68.296875 
z
M 35.59375 36.09375 
Q 35.59375 38.703125 34.140625 40.25 
Q 32.703125 41.796875 30.90625 41.796875 
Q 26.203125 41.796875 21.796875 37.203125 
Q 16.796875 31.90625 13.5 24.546875 
Q 10.203125 17.203125 10.203125 11 
Q 10.203125 7.59375 11.75 5.640625 
Q 13.296875 3.703125 16 3.703125 
Q 20.5 3.703125 25.09375 8.59375 
Q 29.703125 13.5 32.640625 21.09375 
Q 35.59375 28.703125 35.59375 36.09375 
z
" id="STIXGeneral-Italic-100"/>
      </defs>
      <use transform="translate(0 0.40625)" xlink:href="#STIXGeneral-Italic-67"/>
      <use transform="translate(66.699997 -12.821875)scale(0.7)" xlink:href="#STIXGeneral-Italic-100"/>
     </g>
    </g>
   </g>
   <g id="line2d_40">
    <path clip-path="url(#p8695e12729)" d="M 85.856604 304.150271 
L 86.943396 301.277493 
L 88.030189 299.29716 
L 88.573585 298.503971 
L 89.660377 297.383972 
L 90.74717 296.569128 
L 92.920755 295.639263 
L 96.181132 295.198175 
L 97.811321 295.107171 
L 98.354717 295.158555 
L 98.898113 295.094401 
L 99.441509 295.207528 
L 101.071698 295.276522 
L 101.615094 295.297794 
L 102.701887 295.455852 
L 103.788679 295.523129 
L 109.222642 296.261278 
L 109.766038 296.440637 
L 111.396226 296.701261 
L 120.633962 298.962426 
L 142.369811 304.833262 
L 150.520755 306.577736 
L 159.758491 308.031329 
L 164.649057 308.565568 
L 171.713208 309.054863 
L 177.690566 309.268669 
L 186.928302 309.132104 
L 200.513208 308.065397 
L 208.664151 307.119641 
L 217.901887 305.856124 
L 278.762264 296.318488 
L 312.45283 292.173784 
L 318.973585 291.528449 
L 325.49434 290.905129 
L 354.837736 288.632991 
L 380.377358 287.230639 
L 412.981132 286.017965 
L 412.981132 286.017965 
" style="fill:none;stroke:#1f77b4;stroke-linecap:square;stroke-width:3.5;"/>
   </g>
   <g id="line2d_41">
    <path clip-path="url(#p8695e12729)" d="M 85.856604 332.017873 
L 86.943396 331.323115 
L 88.030189 330.91897 
L 89.660377 330.752977 
L 91.290566 330.871051 
L 94.007547 331.429154 
L 99.441509 333.046797 
L 103.788679 334.360426 
L 107.592453 335.348467 
L 110.309434 335.957994 
L 116.830189 336.92253 
L 120.633962 337.193141 
L 124.437736 337.247174 
L 127.698113 337.139086 
L 132.045283 336.771872 
L 137.479245 336.016046 
L 141.283019 335.30385 
L 145.630189 334.30952 
L 150.520755 332.998214 
L 156.498113 331.1652 
L 164.10566 328.607456 
L 175.516981 324.512856 
L 198.339623 316.401553 
L 206.490566 313.767317 
L 216.815094 310.662975 
L 224.966038 308.43315 
L 233.660377 306.2843 
L 243.984906 304.014377 
L 252.135849 302.423964 
L 262.460377 300.64877 
L 274.415094 298.878842 
L 282.566038 297.837255 
L 294.520755 296.510485 
L 307.562264 295.289382 
L 322.233962 294.150837 
L 340.166038 293.029879 
L 360.271698 292.047446 
L 383.637736 291.169783 
L 410.807547 290.404558 
L 412.981132 290.352145 
L 412.981132 290.352145 
" style="fill:none;stroke:#ff7f0e;stroke-linecap:square;stroke-width:3.5;"/>
   </g>
   <g id="line2d_42">
    <path clip-path="url(#p8695e12729)" d="M 86.128302 302.660196 
L 87.215094 302.062116 
L 88.573585 301.593538 
L 90.203774 301.313286 
L 92.10566 301.250708 
L 93.735849 301.343678 
L 95.909434 301.621759 
L 98.898113 302.211741 
L 103.516981 303.447903 
L 108.679245 305.100284 
L 120.633962 309.154255 
L 126.339623 310.868498 
L 131.501887 312.195163 
L 136.664151 313.290055 
L 141.826415 314.157734 
L 147.260377 314.844562 
L 152.966038 315.340161 
L 158.943396 315.638884 
L 165.464151 315.737922 
L 172.528302 315.612696 
L 180.135849 315.249131 
L 188.558491 314.621432 
L 198.339623 313.667243 
L 211.109434 312.181076 
L 233.388679 309.31936 
L 257.298113 306.332943 
L 274.958491 304.359851 
L 291.532075 302.733414 
L 308.377358 301.306199 
L 326.037736 300.037094 
L 345.056604 298.898613 
L 366.249057 297.863045 
L 389.886792 296.937717 
L 412.709434 296.219863 
L 412.709434 296.219863 
" style="fill:none;stroke:#2ca02c;stroke-linecap:square;stroke-width:3.5;"/>
   </g>
   <g id="line2d_43">
    <path clip-path="url(#p8695e12729)" d="M 85.856604 282.961666 
L 87.486792 281.59489 
L 89.116981 280.509185 
L 91.290566 279.317282 
L 94.007547 278.169576 
L 97.267925 277.09405 
L 100.528302 276.250923 
L 104.332075 275.498576 
L 108.135849 275.021026 
L 111.939623 274.763191 
L 115.743396 274.713061 
L 119.54717 274.867121 
L 123.350943 275.2196 
L 127.698113 275.847538 
L 132.588679 276.806311 
L 138.022642 278.149672 
L 145.086792 280.154114 
L 159.215094 284.214032 
L 165.735849 285.832408 
L 172.256604 287.240074 
L 180.407547 288.754125 
L 190.732075 290.426143 
L 205.403774 292.548813 
L 217.358491 294.08198 
L 228.226415 295.287887 
L 239.09434 296.276171 
L 249.962264 297.038406 
L 261.373585 297.611437 
L 273.328302 297.988427 
L 287.456604 298.197426 
L 304.845283 298.200049 
L 326.581132 297.945563 
L 364.075472 297.23373 
L 412.981132 296.297445 
L 412.981132 296.297445 
" style="fill:none;stroke:#d62728;stroke-linecap:square;stroke-width:3.5;"/>
   </g>
   <g id="line2d_44">
    <path clip-path="url(#p8695e12729)" d="M 86.4 292.353488 
L 412.437736 292.353488 
" style="fill:none;stroke:#000000;stroke-dasharray:3.2,0.8,0.5,0.8;stroke-dashoffset:0;stroke-width:0.5;"/>
   </g>
   <g id="line2d_45">
    <path clip-path="url(#p8695e12729)" d="M 86.4 374.4 
L 86.4 222.027907 
" style="fill:none;stroke:#000000;stroke-linecap:square;stroke-width:0.5;"/>
   </g>
   <g id="line2d_46">
    <path clip-path="url(#p8695e12729)" d="M 195.079245 374.4 
L 195.079245 222.027907 
" style="fill:none;stroke:#000000;stroke-dasharray:6.4,1.6,1,1.6;stroke-dashoffset:0;stroke-opacity:0.25;"/>
   </g>
   <g id="line2d_47">
    <path clip-path="url(#p8695e12729)" d="M 303.758491 374.4 
L 303.758491 222.027907 
" style="fill:none;stroke:#000000;stroke-dasharray:6.4,1.6,1,1.6;stroke-dashoffset:0;stroke-opacity:0.25;"/>
   </g>
   <g id="line2d_48">
    <path clip-path="url(#p8695e12729)" d="M 412.437736 374.4 
L 412.437736 222.027907 
" style="fill:none;stroke:#000000;stroke-dasharray:6.4,1.6,1,1.6;stroke-dashoffset:0;stroke-opacity:0.25;"/>
   </g>
   <g id="patch_13">
    <path d="M 86.4 374.4 
L 86.4 222.027907 
" style="fill:none;stroke:#000000;stroke-linecap:square;stroke-linejoin:miter;stroke-width:0.8;"/>
   </g>
   <g id="patch_14">
    <path d="M 412.437736 374.4 
L 412.437736 222.027907 
" style="fill:none;stroke:#000000;stroke-linecap:square;stroke-linejoin:miter;stroke-width:0.8;"/>
   </g>
   <g id="patch_15">
    <path d="M 86.4 374.4 
L 412.437736 374.4 
" style="fill:none;stroke:#000000;stroke-linecap:square;stroke-linejoin:miter;stroke-width:0.8;"/>
   </g>
   <g id="patch_16">
    <path d="M 86.4 222.027907 
L 412.437736 222.027907 
" style="fill:none;stroke:#000000;stroke-linecap:square;stroke-linejoin:miter;stroke-width:0.8;"/>
   </g>
  </g>
  <g id="axes_4">
   <g id="patch_17">
    <path d="M 451.562264 374.4 
L 777.6 374.4 
L 777.6 222.027907 
L 451.562264 222.027907 
z
" style="fill:#ffffff;"/>
   </g>
   <g id="matplotlib.axis_7">
    <g id="xtick_13">
     <g id="line2d_49">
      <g>
       <use style="fill:#ffffff;stroke:#000000;stroke-width:0.8;" x="451.562264" xlink:href="#mb922319aa8" y="374.4"/>
      </g>
     </g>
     <g id="text_28">
      <!-- 1.0 -->
      <g transform="translate(439.687264 394.376406)scale(0.19 -0.19)">
       <use xlink:href="#STIXGeneral-Regular-49"/>
       <use x="49.999985" xlink:href="#STIXGeneral-Regular-46"/>
       <use x="74.999969" xlink:href="#STIXGeneral-Regular-48"/>
      </g>
     </g>
    </g>
    <g id="xtick_14">
     <g id="line2d_50">
      <g>
       <use style="fill:#ffffff;stroke:#000000;stroke-width:0.8;" x="560.241509" xlink:href="#mb922319aa8" y="374.4"/>
      </g>
     </g>
     <g id="text_29">
      <!-- 1.2 -->
      <g transform="translate(548.366509 394.376406)scale(0.19 -0.19)">
       <use xlink:href="#STIXGeneral-Regular-49"/>
       <use x="49.999985" xlink:href="#STIXGeneral-Regular-46"/>
       <use x="74.999969" xlink:href="#STIXGeneral-Regular-50"/>
      </g>
     </g>
    </g>
    <g id="xtick_15">
     <g id="line2d_51">
      <g>
       <use style="fill:#ffffff;stroke:#000000;stroke-width:0.8;" x="668.920755" xlink:href="#mb922319aa8" y="374.4"/>
      </g>
     </g>
     <g id="text_30">
      <!-- 1.4 -->
      <g transform="translate(657.045755 394.376406)scale(0.19 -0.19)">
       <use xlink:href="#STIXGeneral-Regular-49"/>
       <use x="49.999985" xlink:href="#STIXGeneral-Regular-46"/>
       <use x="74.999969" xlink:href="#STIXGeneral-Regular-52"/>
      </g>
     </g>
    </g>
    <g id="xtick_16">
     <g id="line2d_52">
      <g>
       <use style="fill:#ffffff;stroke:#000000;stroke-width:0.8;" x="777.6" xlink:href="#mb922319aa8" y="374.4"/>
      </g>
     </g>
     <g id="text_31">
      <!-- 1.6 -->
      <g transform="translate(765.725 394.376406)scale(0.19 -0.19)">
       <use xlink:href="#STIXGeneral-Regular-49"/>
       <use x="49.999985" xlink:href="#STIXGeneral-Regular-46"/>
       <use x="74.999969" xlink:href="#STIXGeneral-Regular-54"/>
      </g>
     </g>
    </g>
    <g id="text_32">
     <!-- $\^t$ -->
     <g transform="translate(611.921132 415.476406)scale(0.19 -0.19)">
      <use transform="translate(39.042969 16.59375)" xlink:href="#STIXGeneral-Regular-770"/>
      <use transform="translate(0 0.203125)" xlink:href="#STIXGeneral-Italic-116"/>
     </g>
    </g>
   </g>
   <g id="matplotlib.axis_8">
    <g id="ytick_10">
     <g id="line2d_53">
      <g>
       <use style="fill:#ffffff;stroke:#000000;stroke-width:0.8;" x="451.562264" xlink:href="#ma0265e4f0b" y="339.237209"/>
      </g>
     </g>
     <g id="text_33">
      <!-- −2 -->
      <g transform="translate(422.047264 345.725412)scale(0.19 -0.19)">
       <use xlink:href="#STIXGeneral-Regular-8722"/>
       <use x="68.499985" xlink:href="#STIXGeneral-Regular-50"/>
      </g>
     </g>
    </g>
    <g id="ytick_11">
     <g id="line2d_54">
      <g>
       <use style="fill:#ffffff;stroke:#000000;stroke-width:0.8;" x="451.562264" xlink:href="#ma0265e4f0b" y="292.353488"/>
      </g>
     </g>
     <g id="text_34">
      <!-- 0 -->
      <g transform="translate(435.062264 298.841691)scale(0.19 -0.19)">
       <use xlink:href="#STIXGeneral-Regular-48"/>
      </g>
     </g>
    </g>
    <g id="ytick_12">
     <g id="line2d_55">
      <g>
       <use style="fill:#ffffff;stroke:#000000;stroke-width:0.8;" x="451.562264" xlink:href="#ma0265e4f0b" y="245.469767"/>
      </g>
     </g>
     <g id="text_35">
      <!-- 2 -->
      <g transform="translate(435.062264 251.957971)scale(0.19 -0.19)">
       <use xlink:href="#STIXGeneral-Regular-50"/>
      </g>
     </g>
    </g>
    <g id="text_36">
     <!-- $C_d$ -->
     <g transform="translate(413.92367 308.378953)rotate(-90)scale(0.19 -0.19)">
      <use transform="translate(0 0.40625)" xlink:href="#STIXGeneral-Italic-67"/>
      <use transform="translate(66.699997 -12.821875)scale(0.7)" xlink:href="#STIXGeneral-Italic-100"/>
     </g>
    </g>
   </g>
   <g id="line2d_56">
    <path clip-path="url(#p30a160eb40)" d="M 451.018868 271.367651 
L 452.10566 266.126 
L 453.192453 262.027153 
L 454.279245 258.669127 
L 459.169811 247.853468 
L 460.256604 246.136703 
L 461.886792 244.084139 
L 462.430189 243.686807 
L 462.973585 243.56188 
L 464.060377 242.837512 
L 464.603774 242.928748 
L 465.14717 242.634715 
L 465.690566 242.693834 
L 466.233962 242.881976 
L 466.777358 242.902839 
L 467.864151 243.24622 
L 468.950943 243.788992 
L 470.037736 244.791093 
L 471.124528 245.941436 
L 472.211321 247.62645 
L 472.754717 248.213696 
L 476.558491 255.301308 
L 480.362264 263.212177 
L 481.449057 265.208918 
L 484.166038 269.617326 
L 486.339623 272.349077 
L 489.056604 274.981359 
L 490.686792 276.391728 
L 495.577358 280.769609 
L 497.750943 282.762936 
L 499.924528 284.528218 
L 509.162264 291.096686 
L 513.509434 294.408801 
L 514.596226 295.274702 
L 516.226415 296.440987 
L 517.313208 297.103837 
L 518.4 297.935701 
L 521.660377 300.082467 
L 529.267925 304.712919 
L 532.528302 306.130513 
L 534.158491 306.717313 
L 535.788679 307.170855 
L 538.50566 307.787168 
L 545.026415 308.73334 
L 546.113208 308.753962 
L 546.656604 308.865031 
L 547.743396 308.824828 
L 552.633962 309.066829 
L 555.89434 308.937218 
L 558.611321 309.036869 
L 560.241509 308.992651 
L 561.871698 309.032021 
L 562.958491 309.267751 
L 564.045283 309.14307 
L 566.762264 309.160698 
L 568.935849 309.314696 
L 570.566038 309.169101 
L 572.196226 309.049373 
L 572.739623 309.082077 
L 574.913208 308.740268 
L 576 308.640043 
L 578.173585 308.527093 
L 579.260377 308.432017 
L 580.890566 308.20667 
L 581.433962 308.144963 
L 581.977358 307.890015 
L 583.607547 307.794576 
L 584.150943 307.585343 
L 586.324528 307.176517 
L 587.411321 306.98318 
L 588.498113 306.772129 
L 589.041509 306.541069 
L 589.584906 306.608738 
L 590.671698 306.342827 
L 591.758491 305.905634 
L 593.932075 305.540525 
L 598.822642 304.527553 
L 599.909434 304.256717 
L 600.996226 303.792554 
L 601.539623 303.779119 
L 603.713208 303.163288 
L 604.8 302.975345 
L 605.343396 302.800794 
L 605.886792 302.851162 
L 606.973585 302.512473 
L 608.060377 302.333389 
L 609.14717 302.011862 
L 609.690566 301.810632 
L 610.777358 301.669683 
L 613.49434 300.946449 
L 615.124528 300.621253 
L 615.667925 300.414341 
L 616.754717 300.328558 
L 617.841509 300.049808 
L 622.732075 298.856814 
L 623.818868 298.690496 
L 624.90566 298.393793 
L 626.535849 298.127835 
L 627.622642 297.9032 
L 628.709434 297.561646 
L 633.056604 296.695651 
L 634.143396 296.384871 
L 634.686792 296.381035 
L 635.230189 296.217157 
L 636.316981 296.06703 
L 637.94717 295.661204 
L 642.837736 294.654643 
L 643.924528 294.640653 
L 645.554717 294.34255 
L 646.641509 294.069069 
L 648.815094 293.688703 
L 650.988679 293.293171 
L 652.618868 293.26888 
L 653.162264 293.039455 
L 660.226415 292.011465 
L 661.313208 291.968119 
L 664.030189 291.631021 
L 668.377358 291.193596 
L 670.007547 291.095974 
L 672.181132 290.957138 
L 676.528302 290.555708 
L 678.158491 290.568517 
L 678.701887 290.540038 
L 679.245283 290.392092 
L 681.418868 290.425688 
L 683.049057 290.230182 
L 684.135849 290.15677 
L 689.569811 290.060232 
L 691.2 290.013447 
L 696.090566 289.824527 
L 697.177358 289.806259 
L 698.264151 289.745149 
L 700.981132 289.65273 
L 703.154717 289.526571 
L 708.045283 289.399872 
L 710.218868 289.326548 
L 713.479245 289.159336 
L 728.150943 288.447955 
L 747.713208 287.059694 
L 749.343396 286.865315 
L 757.49434 286.226972 
L 760.754717 285.932144 
L 766.188679 285.517791 
L 778.143396 284.522672 
L 778.143396 284.522672 
" style="fill:none;stroke:#1f77b4;stroke-linecap:square;stroke-width:3.5;"/>
   </g>
   <g id="line2d_57">
    <path clip-path="url(#p30a160eb40)" d="M 451.018868 366.028476 
L 452.10566 365.339791 
L 453.735849 364.908554 
L 455.909434 364.999345 
L 457.539623 365.241919 
L 462.430189 365.713361 
L 465.14717 365.704903 
L 468.950943 365.441953 
L 470.037736 365.485374 
L 477.101887 364.689767 
L 480.90566 363.877475 
L 485.796226 362.135708 
L 489.6 360.251882 
L 492.860377 358.147804 
L 493.403774 357.712519 
L 494.490566 357.057533 
L 496.120755 355.804406 
L 498.29434 354.029061 
L 501.011321 351.689681 
L 504.815094 348.142935 
L 509.162264 343.864182 
L 521.660377 331.292044 
L 529.267925 324.237254 
L 534.701887 319.681708 
L 540.135849 315.61013 
L 540.679245 315.332745 
L 542.85283 313.721965 
L 545.026415 312.353143 
L 553.720755 307.295505 
L 559.154717 304.651174 
L 561.871698 303.50234 
L 563.501887 302.770434 
L 569.479245 300.570825 
L 570.566038 300.275155 
L 571.65283 299.88877 
L 579.803774 297.571574 
L 582.520755 296.908643 
L 587.954717 295.735373 
L 595.018868 294.477866 
L 597.735849 294.057553 
L 600.45283 293.691435 
L 601.539623 293.535313 
L 608.603774 292.706816 
L 620.015094 291.655443 
L 621.101887 291.636786 
L 622.732075 291.466941 
L 643.381132 290.428703 
L 682.50566 289.460796 
L 690.656604 289.330652 
L 718.913208 288.907364 
L 728.150943 288.799289 
L 736.845283 288.691744 
L 740.10566 288.655702 
L 755.864151 288.49357 
L 765.645283 288.395289 
L 778.143396 288.283487 
L 778.143396 288.283487 
" style="fill:none;stroke:#ff7f0e;stroke-linecap:square;stroke-width:3.5;"/>
   </g>
   <g id="line2d_58">
    <path clip-path="url(#p30a160eb40)" d="M 451.290566 299.816931 
L 452.649057 301.74165 
L 454.550943 304.880268 
L 457.811321 310.778713 
L 462.430189 319.040667 
L 465.690566 324.377134 
L 467.864151 327.600173 
L 470.309434 330.804624 
L 472.483019 333.231483 
L 474.113208 334.773861 
L 475.743396 336.085515 
L 477.916981 337.462243 
L 479.818868 338.352638 
L 481.720755 338.971493 
L 483.89434 339.407865 
L 487.426415 339.705829 
L 490.958491 339.886816 
L 492.860377 340.09662 
L 495.033962 340.505736 
L 497.750943 341.248133 
L 501.826415 342.507253 
L 504.543396 343.143895 
L 506.716981 343.451475 
L 509.162264 343.564169 
L 511.607547 343.453557 
L 514.324528 343.110617 
L 517.313208 342.505351 
L 520.301887 341.708618 
L 524.920755 340.141174 
L 528.996226 338.478502 
L 533.343396 336.448165 
L 538.233962 333.893341 
L 544.483019 330.332059 
L 556.709434 323.270874 
L 562.415094 320.293888 
L 567.577358 317.848244 
L 572.739623 315.643251 
L 577.901887 313.68215 
L 582.792453 312.04742 
L 588.226415 310.472334 
L 593.932075 309.055903 
L 600.181132 307.734052 
L 607.516981 306.442676 
L 614.309434 305.494962 
L 620.558491 304.857832 
L 625.992453 304.502685 
L 632.241509 304.31138 
L 641.479245 304.29338 
L 651.260377 304.202829 
L 657.509434 303.903514 
L 663.215094 303.419959 
L 671.09434 302.47289 
L 684.950943 300.479006 
L 695.275472 299.106736 
L 703.969811 298.167451 
L 713.750943 297.3687 
L 724.618868 296.744762 
L 737.116981 296.229504 
L 767.54717 295.168756 
L 777.871698 294.80469 
L 777.871698 294.80469 
" style="fill:none;stroke:#2ca02c;stroke-linecap:square;stroke-width:3.5;"/>
   </g>
   <g id="line2d_59">
    <path clip-path="url(#p30a160eb40)" d="M 451.018868 256.065589 
L 453.192453 255.456783 
L 454.822642 255.161471 
L 456.45283 254.981728 
L 458.626415 254.969107 
L 460.256604 255.138915 
L 462.430189 255.633919 
L 464.060377 256.26847 
L 466.233962 257.3476 
L 468.950943 259.117699 
L 471.124528 260.797965 
L 473.841509 263.202382 
L 476.558491 265.903771 
L 479.275472 268.914088 
L 483.622642 274.175151 
L 490.143396 282.126943 
L 492.860377 284.954124 
L 495.033962 286.878079 
L 497.207547 288.390979 
L 498.837736 289.263712 
L 500.467925 289.898635 
L 502.098113 290.280849 
L 504.271698 290.484787 
L 505.901887 290.464635 
L 509.162264 290.007746 
L 512.422642 289.27716 
L 517.856604 288.00738 
L 521.116981 287.467074 
L 524.377358 287.156668 
L 527.09434 287.049194 
L 530.354717 287.127222 
L 533.071698 287.432051 
L 535.788679 288.01506 
L 538.50566 288.854781 
L 541.222642 289.945949 
L 544.483019 291.525099 
L 548.286792 293.641343 
L 554.807547 297.404111 
L 558.611321 299.331108 
L 561.328302 300.460498 
L 564.045283 301.350712 
L 567.30566 302.08165 
L 570.022642 302.420804 
L 573.283019 302.568099 
L 577.086792 302.457572 
L 584.69434 301.793108 
L 592.845283 301.081726 
L 597.735849 300.831926 
L 601.539623 300.754906 
L 608.603774 300.834381 
L 625.449057 301.448985 
L 631.969811 301.646606 
L 649.358491 301.960933 
L 668.377358 301.889187 
L 741.192453 300.203698 
L 759.124528 300.090628 
L 778.143396 300.092169 
L 778.143396 300.092169 
" style="fill:none;stroke:#d62728;stroke-linecap:square;stroke-width:3.5;"/>
   </g>
   <g id="line2d_60">
    <path clip-path="url(#p30a160eb40)" d="M 451.562264 292.353488 
L 777.6 292.353488 
" style="fill:none;stroke:#000000;stroke-dasharray:3.2,0.8,0.5,0.8;stroke-dashoffset:0;stroke-width:0.5;"/>
   </g>
   <g id="line2d_61">
    <path clip-path="url(#p30a160eb40)" d="M 451.562264 374.4 
L 451.562264 222.027907 
" style="fill:none;stroke:#000000;stroke-linecap:square;stroke-width:0.5;"/>
   </g>
   <g id="line2d_62">
    <path clip-path="url(#p30a160eb40)" d="M 560.241509 374.4 
L 560.241509 222.027907 
" style="fill:none;stroke:#000000;stroke-dasharray:6.4,1.6,1,1.6;stroke-dashoffset:0;stroke-opacity:0.25;"/>
   </g>
   <g id="line2d_63">
    <path clip-path="url(#p30a160eb40)" d="M 668.920755 374.4 
L 668.920755 222.027907 
" style="fill:none;stroke:#000000;stroke-dasharray:6.4,1.6,1,1.6;stroke-dashoffset:0;stroke-opacity:0.25;"/>
   </g>
   <g id="line2d_64">
    <path clip-path="url(#p30a160eb40)" d="M 777.6 374.4 
L 777.6 222.027907 
" style="fill:none;stroke:#000000;stroke-dasharray:6.4,1.6,1,1.6;stroke-dashoffset:0;stroke-opacity:0.25;"/>
   </g>
   <g id="patch_18">
    <path d="M 451.562264 374.4 
L 451.562264 222.027907 
" style="fill:none;stroke:#000000;stroke-linecap:square;stroke-linejoin:miter;stroke-width:0.8;"/>
   </g>
   <g id="patch_19">
    <path d="M 777.6 374.4 
L 777.6 222.027907 
" style="fill:none;stroke:#000000;stroke-linecap:square;stroke-linejoin:miter;stroke-width:0.8;"/>
   </g>
   <g id="patch_20">
    <path d="M 451.562264 374.4 
L 777.6 374.4 
" style="fill:none;stroke:#000000;stroke-linecap:square;stroke-linejoin:miter;stroke-width:0.8;"/>
   </g>
   <g id="patch_21">
    <path d="M 451.562264 222.027907 
L 777.6 222.027907 
" style="fill:none;stroke:#000000;stroke-linecap:square;stroke-linejoin:miter;stroke-width:0.8;"/>
   </g>
  </g>
 </g>
 <defs>
  <clipPath id="p94ceead921">
   <rect height="152.372093" width="326.037736" x="86.4" y="46.8"/>
  </clipPath>
  <clipPath id="p55d1055b87">
   <rect height="152.372093" width="326.037736" x="451.562264" y="46.8"/>
  </clipPath>
  <clipPath id="p8695e12729">
   <rect height="152.372093" width="326.037736" x="86.4" y="222.027907"/>
  </clipPath>
  <clipPath id="p30a160eb40">
   <rect height="152.372093" width="326.037736" x="451.562264" y="222.027907"/>
  </clipPath>
 </defs>
</svg>
