<?xml version="1.0" encoding="utf-8" standalone="no"?>
<!DOCTYPE svg PUBLIC "-//W3C//DTD SVG 1.1//EN"
  "http://www.w3.org/Graphics/SVG/1.1/DTD/svg11.dtd">
<!-- Created with matplotlib (https://matplotlib.org/) -->
<svg height="468pt" version="1.1" viewBox="0 0 864 468" width="864pt" xmlns="http://www.w3.org/2000/svg" xmlns:xlink="http://www.w3.org/1999/xlink">
 <metadata>
  <rdf:RDF xmlns:cc="http://creativecommons.org/ns#" xmlns:dc="http://purl.org/dc/elements/1.1/" xmlns:rdf="http://www.w3.org/1999/02/22-rdf-syntax-ns#">
   <cc:Work>
    <dc:type rdf:resource="http://purl.org/dc/dcmitype/StillImage"/>
    <dc:date>2021-12-16T09:58:43.333757</dc:date>
    <dc:format>image/svg+xml</dc:format>
    <dc:creator>
     <cc:Agent>
      <dc:title>Matplotlib v3.3.4, https://matplotlib.org/</dc:title>
     </cc:Agent>
    </dc:creator>
   </cc:Work>
  </rdf:RDF>
 </metadata>
 <defs>
  <style type="text/css">*{stroke-linecap:butt;stroke-linejoin:round;}</style>
 </defs>
 <g id="figure_1">
  <g id="patch_1">
   <path d="M 0 468 
L 864 468 
L 864 0 
L 0 0 
z
" style="fill:#ffffff;"/>
  </g>
  <g id="axes_1">
   <g id="patch_2">
    <path d="M 86.4 199.172093 
L 412.437736 199.172093 
L 412.437736 46.8 
L 86.4 46.8 
z
" style="fill:#ffffff;"/>
   </g>
   <g id="matplotlib.axis_1">
    <g id="xtick_1">
     <g id="line2d_1">
      <defs>
       <path d="M 0 0 
L 0 3.5 
" id="mac04483b99" style="stroke:#000000;stroke-width:0.8;"/>
      </defs>
      <g>
       <use style="fill:#ffffff;stroke:#000000;stroke-width:0.8;" x="86.4" xlink:href="#mac04483b99" y="199.172093"/>
      </g>
     </g>
     <g id="text_1">
      <!-- 1.0 -->
      <g transform="translate(74.525 219.148499)scale(0.19 -0.19)">
       <defs>
        <path d="M 39.40625 0 
L 11.796875 0 
L 11.796875 1.5 
Q 17.296875 1.796875 19.296875 3.546875 
Q 21.296875 5.296875 21.296875 9.5 
L 21.296875 54.40625 
Q 21.296875 59.296875 18.296875 59.296875 
Q 16.90625 59.296875 13.796875 58.09375 
L 11.09375 57.09375 
L 11.09375 58.5 
L 29 67.59375 
L 29.90625 67.296875 
L 29.90625 7.59375 
Q 29.90625 4.296875 31.90625 2.890625 
Q 33.90625 1.5 39.40625 1.5 
z
" id="STIXGeneral-Regular-49"/>
        <path d="M 18.09375 4.296875 
Q 18.09375 2.09375 16.4375 0.5 
Q 14.796875 -1.09375 12.5 -1.09375 
Q 10.203125 -1.09375 8.59375 0.5 
Q 7 2.09375 7 4.390625 
Q 7 6.703125 8.640625 8.34375 
Q 10.296875 10 12.59375 10 
Q 14.796875 10 16.4375 8.296875 
Q 18.09375 6.59375 18.09375 4.296875 
z
" id="STIXGeneral-Regular-46"/>
        <path d="M 47.59375 33 
Q 47.59375 26.296875 46.296875 20.34375 
Q 45 14.40625 42.453125 9.40625 
Q 39.90625 4.40625 35.40625 1.5 
Q 30.90625 -1.40625 25 -1.40625 
Q 18.90625 -1.40625 14.296875 1.6875 
Q 9.703125 4.796875 7.203125 10 
Q 4.703125 15.203125 3.546875 21.09375 
Q 2.40625 27 2.40625 33.59375 
Q 2.40625 42.90625 4.703125 50.34375 
Q 7 57.796875 12.34375 62.6875 
Q 17.703125 67.59375 25.40625 67.59375 
Q 35.203125 67.59375 41.390625 58 
Q 47.59375 48.40625 47.59375 33 
z
M 38 32.5 
Q 38 48.296875 34.640625 56.640625 
Q 31.296875 65 24.796875 65 
Q 18.59375 65 15.296875 56.59375 
Q 12 48.203125 12 32.90625 
Q 12 17.5 15.296875 9.34375 
Q 18.59375 1.203125 25 1.203125 
Q 31.296875 1.203125 34.640625 9.34375 
Q 38 17.5 38 32.5 
z
" id="STIXGeneral-Regular-48"/>
       </defs>
       <use xlink:href="#STIXGeneral-Regular-49"/>
       <use x="49.999985" xlink:href="#STIXGeneral-Regular-46"/>
       <use x="74.999969" xlink:href="#STIXGeneral-Regular-48"/>
      </g>
     </g>
    </g>
    <g id="xtick_2">
     <g id="line2d_2">
      <g>
       <use style="fill:#ffffff;stroke:#000000;stroke-width:0.8;" x="195.079245" xlink:href="#mac04483b99" y="199.172093"/>
      </g>
     </g>
     <g id="text_2">
      <!-- 1.2 -->
      <g transform="translate(183.204245 219.148499)scale(0.19 -0.19)">
       <defs>
        <path d="M 47.40625 13.703125 
L 42 0 
L 2.90625 0 
L 2.90625 1.203125 
L 20.703125 20.09375 
Q 27.703125 27.40625 30.703125 33.5 
Q 33.703125 39.59375 33.703125 46.09375 
Q 33.703125 52.796875 30 56.5 
Q 26.296875 60.203125 19.796875 60.203125 
Q 14.40625 60.203125 11.25 57.390625 
Q 8.09375 54.59375 5.09375 47.203125 
L 3 47.703125 
Q 4.703125 57 9.84375 62.296875 
Q 15 67.59375 23.796875 67.59375 
Q 32.09375 67.59375 37.1875 62.59375 
Q 42.296875 57.59375 42.296875 50 
Q 42.296875 38.703125 29.5 25.203125 
L 13 7.59375 
L 36.40625 7.59375 
Q 39.703125 7.59375 41.640625 8.890625 
Q 43.59375 10.203125 46 14.296875 
z
" id="STIXGeneral-Regular-50"/>
       </defs>
       <use xlink:href="#STIXGeneral-Regular-49"/>
       <use x="49.999985" xlink:href="#STIXGeneral-Regular-46"/>
       <use x="74.999969" xlink:href="#STIXGeneral-Regular-50"/>
      </g>
     </g>
    </g>
    <g id="xtick_3">
     <g id="line2d_3">
      <g>
       <use style="fill:#ffffff;stroke:#000000;stroke-width:0.8;" x="303.758491" xlink:href="#mac04483b99" y="199.172093"/>
      </g>
     </g>
     <g id="text_3">
      <!-- 1.4 -->
      <g transform="translate(291.883491 219.148499)scale(0.19 -0.19)">
       <defs>
        <path d="M 47.296875 16.703125 
L 37 16.703125 
L 37 0 
L 29.203125 0 
L 29.203125 16.703125 
L 1.203125 16.703125 
L 1.203125 23.09375 
L 32.59375 67.59375 
L 37 67.59375 
L 37 23.09375 
L 47.296875 23.09375 
z
M 29.203125 23.09375 
L 29.203125 57.40625 
L 5.203125 23.09375 
z
" id="STIXGeneral-Regular-52"/>
       </defs>
       <use xlink:href="#STIXGeneral-Regular-49"/>
       <use x="49.999985" xlink:href="#STIXGeneral-Regular-46"/>
       <use x="74.999969" xlink:href="#STIXGeneral-Regular-52"/>
      </g>
     </g>
    </g>
    <g id="xtick_4">
     <g id="line2d_4">
      <g>
       <use style="fill:#ffffff;stroke:#000000;stroke-width:0.8;" x="412.437736" xlink:href="#mac04483b99" y="199.172093"/>
      </g>
     </g>
     <g id="text_4">
      <!-- 1.6 -->
      <g transform="translate(400.562736 219.148499)scale(0.19 -0.19)">
       <defs>
        <path d="M 44.59375 68.40625 
L 44.796875 66.796875 
Q 33 64.90625 25.09375 57.25 
Q 17.203125 49.59375 15.203125 38.296875 
Q 21 42.796875 27.90625 42.796875 
Q 36.703125 42.796875 41.75 37.1875 
Q 46.796875 31.59375 46.796875 21.90625 
Q 46.796875 12.09375 41.703125 5.90625 
Q 35.796875 -1.40625 25.796875 -1.40625 
Q 13.59375 -1.40625 8.09375 8.703125 
Q 3.40625 17.296875 3.40625 27.90625 
Q 3.40625 44.296875 14.296875 55.5 
Q 20.5 61.90625 27.046875 64.546875 
Q 33.59375 67.203125 44.59375 68.40625 
z
M 37.796875 18.796875 
Q 37.796875 38.203125 24.296875 38.203125 
Q 19.296875 38.203125 16 35.546875 
Q 12.703125 32.90625 12.703125 26.59375 
Q 12.703125 14.90625 16.34375 8.15625 
Q 20 1.40625 26.90625 1.40625 
Q 32.203125 1.40625 35 6.15625 
Q 37.796875 10.90625 37.796875 18.796875 
z
" id="STIXGeneral-Regular-54"/>
       </defs>
       <use xlink:href="#STIXGeneral-Regular-49"/>
       <use x="49.999985" xlink:href="#STIXGeneral-Regular-46"/>
       <use x="74.999969" xlink:href="#STIXGeneral-Regular-54"/>
      </g>
     </g>
    </g>
   </g>
   <g id="matplotlib.axis_2">
    <g id="ytick_1">
     <g id="line2d_5">
      <defs>
       <path d="M 0 0 
L -3.5 0 
" id="m6f9bcfd6e5" style="stroke:#000000;stroke-width:0.8;"/>
      </defs>
      <g>
       <use style="fill:#ffffff;stroke:#000000;stroke-width:0.8;" x="86.4" xlink:href="#m6f9bcfd6e5" y="199.172093"/>
      </g>
     </g>
     <g id="text_5">
      <!-- −1 -->
      <g transform="translate(56.885 205.660296)scale(0.19 -0.19)">
       <defs>
        <path d="M 62.09375 22 
L 6.40625 22 
L 6.40625 28.59375 
L 62.09375 28.59375 
z
" id="STIXGeneral-Regular-8722"/>
       </defs>
       <use xlink:href="#STIXGeneral-Regular-8722"/>
       <use x="68.499985" xlink:href="#STIXGeneral-Regular-49"/>
      </g>
     </g>
    </g>
    <g id="ytick_2">
     <g id="line2d_6">
      <g>
       <use style="fill:#ffffff;stroke:#000000;stroke-width:0.8;" x="86.4" xlink:href="#m6f9bcfd6e5" y="138.223256"/>
      </g>
     </g>
     <g id="text_6">
      <!-- 0 -->
      <g transform="translate(69.9 144.711459)scale(0.19 -0.19)">
       <use xlink:href="#STIXGeneral-Regular-48"/>
      </g>
     </g>
    </g>
    <g id="ytick_3">
     <g id="line2d_7">
      <g>
       <use style="fill:#ffffff;stroke:#000000;stroke-width:0.8;" x="86.4" xlink:href="#m6f9bcfd6e5" y="77.274419"/>
      </g>
     </g>
     <g id="text_7">
      <!-- 1 -->
      <g transform="translate(69.9 83.762622)scale(0.19 -0.19)">
       <use xlink:href="#STIXGeneral-Regular-49"/>
      </g>
     </g>
    </g>
    <g id="text_8">
     <!-- $C_l$ -->
     <g transform="translate(48.761406 131.631047)rotate(-90)scale(0.19 -0.19)">
      <defs>
       <path d="M 68.90625 66.40625 
L 65.203125 46.40625 
L 63.40625 46.703125 
Q 61.59375 63 48.5 63 
Q 37.59375 63 28.59375 53.296875 
Q 23.296875 47.703125 20.546875 39.703125 
Q 17.796875 31.703125 17.796875 23.203125 
Q 17.796875 2.703125 35.296875 2.703125 
Q 41.5 2.703125 46.640625 5.296875 
Q 51.796875 7.90625 58.203125 14.59375 
L 60 13.09375 
Q 53.296875 5.203125 46.84375 1.703125 
Q 40.40625 -1.796875 32.703125 -1.796875 
Q 21 -1.796875 13.796875 5.140625 
Q 6.59375 12.09375 6.59375 24.296875 
Q 6.59375 34.59375 11.6875 43.9375 
Q 16.796875 53.296875 25.296875 59.296875 
Q 35.5 66.59375 47.203125 66.59375 
Q 54.09375 66.59375 58.90625 64.90625 
Q 60.90625 64.203125 63 64.203125 
Q 65.703125 64.203125 66.796875 66.40625 
z
" id="STIXGeneral-Italic-67"/>
       <path d="M 27.90625 67.796875 
L 12.59375 9.296875 
Q 11.796875 6.40625 11.796875 5 
Q 11.796875 3.203125 13.5 3.203125 
Q 16.203125 3.203125 20.203125 8.90625 
L 22.703125 12.40625 
L 24.09375 11.40625 
Q 19.59375 4.296875 16.34375 1.59375 
Q 13.09375 -1.09375 9 -1.09375 
Q 4.09375 -1.09375 4.09375 4.5 
Q 4.09375 6.203125 4.5 7.5 
L 18.203125 59.90625 
Q 18.5 60.90625 18.5 61.796875 
Q 18.5 64 13.59375 64 
L 11.796875 64 
L 11.796875 65.59375 
Q 18.796875 66.40625 27.296875 68.296875 
z
" id="STIXGeneral-Italic-108"/>
      </defs>
      <use transform="translate(0 0.40625)" xlink:href="#STIXGeneral-Italic-67"/>
      <use transform="translate(66.699997 -12.821875)scale(0.7)" xlink:href="#STIXGeneral-Italic-108"/>
     </g>
    </g>
   </g>
   <g id="line2d_8">
    <path clip-path="url(#p0909e9e343)" d="M 85.856604 137.059877 
L 86.943396 135.027975 
L 88.030189 133.642934 
L 88.573585 132.980624 
L 90.203774 131.772583 
L 91.290566 131.208718 
L 92.377358 130.785821 
L 95.637736 129.936002 
L 96.181132 129.958794 
L 96.724528 129.778449 
L 97.267925 129.795363 
L 97.811321 129.624215 
L 98.354717 129.683155 
L 98.898113 129.495181 
L 99.441509 129.605195 
L 99.984906 129.43485 
L 111.939623 129.200098 
L 112.483019 129.307236 
L 113.026415 129.230168 
L 115.2 129.314912 
L 122.807547 129.65452 
L 133.132075 130.367546 
L 147.260377 131.637254 
L 179.320755 135.053863 
L 226.596226 140.078309 
L 249.418868 142.246389 
L 271.698113 144.149084 
L 295.064151 145.911463 
L 314.626415 147.197282 
L 340.709434 148.643381 
L 364.618868 149.72868 
L 391.788679 150.723009 
L 412.981132 151.340755 
L 412.981132 151.340755 
" style="fill:none;stroke:#1f77b4;stroke-linecap:square;stroke-width:3.5;"/>
   </g>
   <g id="line2d_9">
    <path clip-path="url(#p0909e9e343)" d="M 85.856604 128.307376 
L 87.486792 125.820633 
L 89.116981 123.959631 
L 90.203774 122.894047 
L 92.920755 120.694021 
L 97.267925 117.890138 
L 105.418868 113.677624 
L 113.026415 110.518676 
L 123.89434 107.055806 
L 129.328302 105.681961 
L 134.762264 104.564232 
L 140.739623 103.553927 
L 146.716981 102.797616 
L 152.150943 102.292821 
L 158.671698 101.892563 
L 165.735849 101.695553 
L 173.343396 101.724106 
L 181.49434 101.995982 
L 191.275472 102.607484 
L 201.056604 103.496928 
L 210.837736 104.606553 
L 222.792453 106.201786 
L 238.007547 108.512357 
L 253.766038 111.135778 
L 326.037736 123.475711 
L 342.339623 125.951034 
L 359.728302 128.38498 
L 379.833962 130.93072 
L 396.679245 132.853874 
L 412.981132 134.524587 
L 412.981132 134.524587 
" style="fill:none;stroke:#ff7f0e;stroke-linecap:square;stroke-width:3.5;"/>
   </g>
   <g id="line2d_10">
    <path clip-path="url(#p0909e9e343)" d="M 86.128302 155.129145 
L 87.486792 153.620406 
L 89.116981 152.175285 
L 91.018868 150.789074 
L 93.735849 149.114532 
L 95.909434 147.88864 
L 100.528302 145.457661 
L 117.101887 137.626071 
L 124.166038 134.653946 
L 131.501887 131.808717 
L 138.29434 129.394124 
L 145.358491 127.106499 
L 152.69434 124.96978 
L 160.030189 123.072267 
L 167.366038 121.405792 
L 174.973585 119.911421 
L 182.581132 118.642223 
L 190.732075 117.514031 
L 199.154717 116.577105 
L 208.120755 115.808682 
L 217.630189 115.220209 
L 227.954717 114.806753 
L 239.09434 114.582179 
L 251.592453 114.554327 
L 266.264151 114.759204 
L 282.566038 115.208314 
L 304.573585 116.048245 
L 412.709434 120.599 
L 412.709434 120.599 
" style="fill:none;stroke:#2ca02c;stroke-linecap:square;stroke-width:3.5;"/>
   </g>
   <g id="line2d_11">
    <path clip-path="url(#p0909e9e343)" d="M 85.856604 155.373334 
L 86.943396 155.175731 
L 88.573585 155.140536 
L 90.203774 155.283329 
L 92.920755 155.768758 
L 97.811321 156.91358 
L 104.875472 158.643105 
L 111.939623 160.220674 
L 121.177358 161.898369 
L 128.241509 162.827157 
L 133.675472 163.317526 
L 139.65283 163.631305 
L 145.630189 163.718627 
L 152.150943 163.577283 
L 158.671698 163.216633 
L 167.366038 162.455104 
L 176.060377 161.431572 
L 186.928302 159.914667 
L 199.969811 157.861041 
L 254.309434 149.069042 
L 270.067925 146.869851 
L 286.369811 144.835569 
L 301.041509 143.20868 
L 317.343396 141.615381 
L 333.645283 140.227038 
L 352.664151 138.849972 
L 371.139623 137.731743 
L 391.245283 136.736626 
L 412.981132 135.89 
L 412.981132 135.89 
" style="fill:none;stroke:#d62728;stroke-linecap:square;stroke-width:3.5;"/>
   </g>
   <g id="line2d_12">
    <path clip-path="url(#p0909e9e343)" d="M 86.4 138.223256 
L 412.437736 138.223256 
" style="fill:none;stroke:#000000;stroke-dasharray:3.2,0.8,0.5,0.8;stroke-dashoffset:0;stroke-width:0.5;"/>
   </g>
   <g id="line2d_13">
    <path clip-path="url(#p0909e9e343)" d="M 86.4 199.172093 
L 86.4 46.8 
" style="fill:none;stroke:#000000;stroke-linecap:square;stroke-width:0.5;"/>
   </g>
   <g id="line2d_14">
    <path clip-path="url(#p0909e9e343)" d="M 195.079245 199.172093 
L 195.079245 46.8 
" style="fill:none;stroke:#000000;stroke-dasharray:6.4,1.6,1,1.6;stroke-dashoffset:0;stroke-opacity:0.25;"/>
   </g>
   <g id="line2d_15">
    <path clip-path="url(#p0909e9e343)" d="M 303.758491 199.172093 
L 303.758491 46.8 
" style="fill:none;stroke:#000000;stroke-dasharray:6.4,1.6,1,1.6;stroke-dashoffset:0;stroke-opacity:0.25;"/>
   </g>
   <g id="line2d_16">
    <path clip-path="url(#p0909e9e343)" d="M 412.437736 199.172093 
L 412.437736 46.8 
" style="fill:none;stroke:#000000;stroke-dasharray:6.4,1.6,1,1.6;stroke-dashoffset:0;stroke-opacity:0.25;"/>
   </g>
   <g id="patch_3">
    <path d="M 86.4 199.172093 
L 86.4 46.8 
" style="fill:none;stroke:#000000;stroke-linecap:square;stroke-linejoin:miter;stroke-width:0.8;"/>
   </g>
   <g id="patch_4">
    <path d="M 412.437736 199.172093 
L 412.437736 46.8 
" style="fill:none;stroke:#000000;stroke-linecap:square;stroke-linejoin:miter;stroke-width:0.8;"/>
   </g>
   <g id="patch_5">
    <path d="M 86.4 199.172093 
L 412.437736 199.172093 
" style="fill:none;stroke:#000000;stroke-linecap:square;stroke-linejoin:miter;stroke-width:0.8;"/>
   </g>
   <g id="patch_6">
    <path d="M 86.4 46.8 
L 412.437736 46.8 
" style="fill:none;stroke:#000000;stroke-linecap:square;stroke-linejoin:miter;stroke-width:0.8;"/>
   </g>
   <g id="text_9">
    <!-- $Re = 10^2$ -->
    <g transform="translate(216.738868 28.370592)scale(0.19 -0.19)">
     <defs>
      <path d="M 13.203125 65.296875 
L 38.40625 65.296875 
Q 48.09375 65.296875 53.4375 61.5 
Q 58.796875 57.703125 58.796875 51.203125 
Q 58.796875 43.40625 52.203125 38.40625 
Q 48.296875 35.40625 39.09375 33.296875 
L 48 9.796875 
Q 49.703125 5.203125 51.546875 3.390625 
Q 53.40625 1.59375 56.703125 1.59375 
L 56.703125 0 
L 42 0 
L 29.703125 32.40625 
L 23.09375 32.90625 
L 17.59375 12.59375 
Q 16.296875 8 16.296875 6.296875 
Q 16.296875 4 17.59375 3 
Q 18.90625 2 23 1.59375 
L 23 0 
L -1.296875 0 
L -1.296875 1.59375 
Q 2.703125 2.09375 4.34375 3.796875 
Q 6 5.5 7.203125 10.09375 
L 19.09375 53.203125 
Q 20.296875 57.796875 20.296875 59.5 
Q 20.296875 61.296875 18.90625 62.296875 
Q 17.703125 63.09375 13.203125 63.703125 
z
M 30.59375 59.296875 
L 24.296875 36.59375 
Q 27.40625 36.09375 29.40625 36.09375 
Q 38.296875 36.09375 43.296875 40.09375 
Q 48.296875 44.09375 48.296875 51.09375 
Q 48.296875 56.296875 45.1875 59.296875 
Q 42.09375 62.296875 36.296875 62.296875 
Q 31.40625 62.296875 30.59375 59.296875 
z
" id="STIXGeneral-Italic-82"/>
      <path d="M 35.796875 10.90625 
L 37 9.703125 
Q 28.203125 -1.09375 16.59375 -1.09375 
Q 10.5 -1.09375 6.796875 2.65625 
Q 3.09375 6.40625 3.09375 12.59375 
Q 3.09375 24.296875 12.4375 34.1875 
Q 21.796875 44.09375 33 44.09375 
Q 36.90625 44.09375 39.046875 42.296875 
Q 41.203125 40.5 41.203125 37.296875 
Q 41.203125 30.703125 33.546875 25.5 
Q 25.90625 20.296875 12.796875 18.59375 
Q 11.796875 16.59375 11.796875 12.5 
Q 11.796875 8.40625 14.34375 5.90625 
Q 16.90625 3.40625 21.09375 3.40625 
Q 24.40625 3.40625 27.40625 4.953125 
Q 30.40625 6.5 35.796875 10.90625 
z
M 15.203125 25.203125 
L 13.5 20.796875 
Q 24.703125 23.5 29.59375 28.203125 
Q 34.59375 33 34.59375 37.90625 
Q 34.59375 41.796875 31.09375 41.796875 
Q 26.90625 41.796875 22.34375 36.9375 
Q 17.796875 32.09375 15.203125 25.203125 
z
" id="STIXGeneral-Italic-101"/>
      <path d="M 63.703125 32 
L 4.796875 32 
L 4.796875 38.59375 
L 63.703125 38.59375 
z
M 63.703125 12 
L 4.796875 12 
L 4.796875 18.59375 
L 63.703125 18.59375 
z
" id="STIXGeneral-Regular-61"/>
     </defs>
     <use transform="translate(0 0.409375)" xlink:href="#STIXGeneral-Italic-82"/>
     <use transform="translate(61.099991 0.409375)" xlink:href="#STIXGeneral-Italic-101"/>
     <use transform="translate(119.939981 0.409375)" xlink:href="#STIXGeneral-Regular-61"/>
     <use transform="translate(202.879962 0.409375)" xlink:href="#STIXGeneral-Regular-49"/>
     <use transform="translate(252.879947 0.409375)" xlink:href="#STIXGeneral-Regular-48"/>
     <use transform="translate(304.423213 35.684375)scale(0.7)" xlink:href="#STIXGeneral-Regular-50"/>
    </g>
   </g>
  </g>
  <g id="axes_2">
   <g id="patch_7">
    <path d="M 451.562264 199.172093 
L 777.6 199.172093 
L 777.6 46.8 
L 451.562264 46.8 
z
" style="fill:#ffffff;"/>
   </g>
   <g id="matplotlib.axis_3">
    <g id="xtick_5">
     <g id="line2d_17">
      <g>
       <use style="fill:#ffffff;stroke:#000000;stroke-width:0.8;" x="451.562264" xlink:href="#mac04483b99" y="199.172093"/>
      </g>
     </g>
     <g id="text_10">
      <!-- 1.0 -->
      <g transform="translate(439.687264 219.148499)scale(0.19 -0.19)">
       <use xlink:href="#STIXGeneral-Regular-49"/>
       <use x="49.999985" xlink:href="#STIXGeneral-Regular-46"/>
       <use x="74.999969" xlink:href="#STIXGeneral-Regular-48"/>
      </g>
     </g>
    </g>
    <g id="xtick_6">
     <g id="line2d_18">
      <g>
       <use style="fill:#ffffff;stroke:#000000;stroke-width:0.8;" x="560.241509" xlink:href="#mac04483b99" y="199.172093"/>
      </g>
     </g>
     <g id="text_11">
      <!-- 1.2 -->
      <g transform="translate(548.366509 219.148499)scale(0.19 -0.19)">
       <use xlink:href="#STIXGeneral-Regular-49"/>
       <use x="49.999985" xlink:href="#STIXGeneral-Regular-46"/>
       <use x="74.999969" xlink:href="#STIXGeneral-Regular-50"/>
      </g>
     </g>
    </g>
    <g id="xtick_7">
     <g id="line2d_19">
      <g>
       <use style="fill:#ffffff;stroke:#000000;stroke-width:0.8;" x="668.920755" xlink:href="#mac04483b99" y="199.172093"/>
      </g>
     </g>
     <g id="text_12">
      <!-- 1.4 -->
      <g transform="translate(657.045755 219.148499)scale(0.19 -0.19)">
       <use xlink:href="#STIXGeneral-Regular-49"/>
       <use x="49.999985" xlink:href="#STIXGeneral-Regular-46"/>
       <use x="74.999969" xlink:href="#STIXGeneral-Regular-52"/>
      </g>
     </g>
    </g>
    <g id="xtick_8">
     <g id="line2d_20">
      <g>
       <use style="fill:#ffffff;stroke:#000000;stroke-width:0.8;" x="777.6" xlink:href="#mac04483b99" y="199.172093"/>
      </g>
     </g>
     <g id="text_13">
      <!-- 1.6 -->
      <g transform="translate(765.725 219.148499)scale(0.19 -0.19)">
       <use xlink:href="#STIXGeneral-Regular-49"/>
       <use x="49.999985" xlink:href="#STIXGeneral-Regular-46"/>
       <use x="74.999969" xlink:href="#STIXGeneral-Regular-54"/>
      </g>
     </g>
    </g>
    <g id="text_14">
     <!-- $\^t$ -->
     <g transform="translate(611.921132 240.248499)scale(0.19 -0.19)">
      <defs>
       <path d="M -7.5 50.703125 
L -10.90625 50.703125 
L -23.09375 61 
L -35.203125 50.703125 
L -38.59375 50.703125 
L -26.203125 67.40625 
L -20 67.40625 
z
" id="STIXGeneral-Regular-770"/>
       <path d="M 29.59375 42.796875 
L 29.09375 39.59375 
L 20.703125 39.59375 
L 12 6.796875 
Q 11.796875 6 11.796875 5.40625 
Q 11.796875 3.796875 13.296875 3.796875 
Q 14.5 3.796875 16.09375 5.34375 
Q 17.703125 6.90625 21.40625 11.703125 
L 22.703125 11 
Q 18.09375 4 15.140625 1.453125 
Q 12.203125 -1.09375 8.40625 -1.09375 
Q 3.796875 -1.09375 3.796875 2.59375 
Q 3.796875 3.59375 5.40625 10 
L 13.203125 39.59375 
L 5.703125 39.59375 
L 5.59375 40.203125 
Q 5.59375 42 8.90625 42.703125 
Q 11.40625 43.296875 15.5 46.546875 
Q 19.59375 49.796875 22.203125 53.703125 
Q 22.796875 54.59375 23.59375 54.59375 
Q 24.5 54.59375 24.5 53.796875 
Q 24.5 53.296875 24.40625 53.09375 
L 21.59375 42.796875 
z
" id="STIXGeneral-Italic-116"/>
      </defs>
      <use transform="translate(39.042969 16.59375)" xlink:href="#STIXGeneral-Regular-770"/>
      <use transform="translate(0 0.203125)" xlink:href="#STIXGeneral-Italic-116"/>
     </g>
    </g>
   </g>
   <g id="matplotlib.axis_4">
    <g id="ytick_4">
     <g id="line2d_21">
      <g>
       <use style="fill:#ffffff;stroke:#000000;stroke-width:0.8;" x="451.562264" xlink:href="#m6f9bcfd6e5" y="199.172093"/>
      </g>
     </g>
     <g id="text_15">
      <!-- −1 -->
      <g transform="translate(422.047264 205.660296)scale(0.19 -0.19)">
       <use xlink:href="#STIXGeneral-Regular-8722"/>
       <use x="68.499985" xlink:href="#STIXGeneral-Regular-49"/>
      </g>
     </g>
    </g>
    <g id="ytick_5">
     <g id="line2d_22">
      <g>
       <use style="fill:#ffffff;stroke:#000000;stroke-width:0.8;" x="451.562264" xlink:href="#m6f9bcfd6e5" y="138.223256"/>
      </g>
     </g>
     <g id="text_16">
      <!-- 0 -->
      <g transform="translate(435.062264 144.711459)scale(0.19 -0.19)">
       <use xlink:href="#STIXGeneral-Regular-48"/>
      </g>
     </g>
    </g>
    <g id="ytick_6">
     <g id="line2d_23">
      <g>
       <use style="fill:#ffffff;stroke:#000000;stroke-width:0.8;" x="451.562264" xlink:href="#m6f9bcfd6e5" y="77.274419"/>
      </g>
     </g>
     <g id="text_17">
      <!-- 1 -->
      <g transform="translate(435.062264 83.762622)scale(0.19 -0.19)">
       <use xlink:href="#STIXGeneral-Regular-49"/>
      </g>
     </g>
    </g>
    <g id="text_18">
     <!-- $C_l$ -->
     <g transform="translate(413.92367 131.631047)rotate(-90)scale(0.19 -0.19)">
      <use transform="translate(0 0.40625)" xlink:href="#STIXGeneral-Italic-67"/>
      <use transform="translate(66.699997 -12.821875)scale(0.7)" xlink:href="#STIXGeneral-Italic-108"/>
     </g>
    </g>
   </g>
   <g id="line2d_24">
    <path clip-path="url(#pe18a441446)" d="M 451.018868 128.635351 
L 452.10566 127.658188 
L 453.192453 127.188026 
L 453.735849 126.973737 
L 456.45283 127.102877 
L 457.539623 127.421329 
L 458.083019 127.645085 
L 458.626415 127.744646 
L 460.256604 128.323347 
L 460.8 128.450497 
L 461.343396 128.762883 
L 461.886792 128.875622 
L 462.430189 129.152731 
L 462.973585 129.223059 
L 463.516981 129.530122 
L 464.060377 129.60516 
L 464.603774 129.922184 
L 465.14717 129.980743 
L 465.690566 130.176757 
L 466.233962 130.49859 
L 466.777358 130.545631 
L 467.864151 130.972046 
L 468.407547 131.105172 
L 469.49434 131.607005 
L 470.037736 131.735735 
L 470.581132 131.987033 
L 471.667925 132.286609 
L 489.6 138.577638 
L 491.773585 139.503603 
L 496.120755 141.313118 
L 502.641509 144.348243 
L 505.358491 145.711476 
L 507.532075 146.833172 
L 510.792453 148.522384 
L 512.966038 149.684707 
L 516.226415 151.501225 
L 518.4 152.631106 
L 521.116981 154.126119 
L 523.290566 155.278837 
L 526.007547 156.675287 
L 529.811321 158.566756 
L 533.615094 160.328167 
L 535.245283 161.012807 
L 536.875472 161.687601 
L 541.222642 163.236563 
L 548.830189 165.410692 
L 552.090566 166.065994 
L 558.067925 167.107233 
L 560.241509 167.385401 
L 563.501887 167.784876 
L 578.173585 169.285085 
L 603.713208 171.669753 
L 607.516981 171.942245 
L 613.49434 172.30515 
L 623.275472 172.620949 
L 642.29434 172.508789 
L 656.422642 171.941363 
L 668.920755 171.206639 
L 675.441509 170.7621 
L 679.788679 170.40053 
L 702.611321 168.140736 
L 716.196226 166.504987 
L 720.543396 165.961408 
L 731.954717 164.473409 
L 769.992453 159.533023 
L 778.143396 158.56624 
L 778.143396 158.56624 
" style="fill:none;stroke:#1f77b4;stroke-linecap:square;stroke-width:3.5;"/>
   </g>
   <g id="line2d_25">
    <path clip-path="url(#pe18a441446)" d="M 451.018868 99.723427 
L 452.649057 97.003018 
L 454.279245 94.873122 
L 455.366038 93.583017 
L 460.256604 88.998024 
L 462.430189 87.208117 
L 468.407547 83.037377 
L 470.581132 81.733285 
L 473.841509 80.032587 
L 478.188679 78.247841 
L 483.622642 76.895305 
L 486.339623 76.54753 
L 488.513208 76.389366 
L 491.230189 76.381303 
L 492.316981 76.490708 
L 494.490566 76.702223 
L 498.29434 77.400787 
L 502.098113 78.404894 
L 504.815094 79.342369 
L 511.879245 82.46428 
L 515.683019 84.437397 
L 520.030189 87.032191 
L 524.377358 89.813238 
L 531.441509 94.829671 
L 535.245283 97.691166 
L 542.85283 103.663682 
L 546.113208 106.248636 
L 553.177358 111.583199 
L 559.154717 115.757065 
L 564.588679 119.15328 
L 567.30566 120.723843 
L 570.566038 122.466845 
L 573.826415 124.138175 
L 586.867925 129.800009 
L 614.037736 140.472478 
L 621.101887 142.98308 
L 629.25283 145.467186 
L 635.773585 147.16598 
L 642.29434 148.710429 
L 653.162264 150.788888 
L 661.856604 152.09836 
L 670.007547 153.07086 
L 677.615094 153.771903 
L 686.85283 154.366736 
L 697.177358 154.71339 
L 705.871698 154.814362 
L 724.34717 154.531137 
L 733.584906 154.154835 
L 744.996226 153.590303 
L 750.430189 153.262343 
L 778.143396 151.42357 
L 778.143396 151.42357 
" style="fill:none;stroke:#ff7f0e;stroke-linecap:square;stroke-width:3.5;"/>
   </g>
   <g id="line2d_26">
    <path clip-path="url(#pe18a441446)" d="M 451.290566 125.094515 
L 452.920755 123.701256 
L 454.550943 122.50427 
L 458.083019 120.037629 
L 461.071698 117.82071 
L 464.332075 115.155624 
L 473.026415 107.472973 
L 477.916981 103.594511 
L 480.90566 101.588669 
L 483.350943 100.217813 
L 485.796226 99.09188 
L 488.241509 98.236952 
L 490.686792 97.650413 
L 493.132075 97.334882 
L 495.30566 97.269438 
L 498.022642 97.471482 
L 500.196226 97.846907 
L 502.913208 98.567789 
L 505.358491 99.434218 
L 508.34717 100.750191 
L 511.064151 102.16039 
L 514.596226 104.252287 
L 518.4 106.76991 
L 522.203774 109.491077 
L 527.909434 113.81463 
L 544.483019 126.495925 
L 549.101887 129.695819 
L 553.449057 132.467337 
L 557.25283 134.653475 
L 561.328302 136.735468 
L 565.132075 138.41812 
L 568.935849 139.839685 
L 572.467925 140.928731 
L 576 141.802975 
L 579.803774 142.503866 
L 583.335849 142.951694 
L 587.411321 143.240671 
L 591.758491 143.317571 
L 598.550943 143.056521 
L 605.071698 142.539574 
L 625.449057 140.76779 
L 633.056604 140.352364 
L 646.369811 139.952226 
L 659.954717 139.845307 
L 670.279245 140.003554 
L 683.049057 140.461364 
L 701.524528 141.422273 
L 730.867925 143.089015 
L 747.169811 143.848813 
L 768.633962 144.546086 
L 777.871698 144.751655 
L 777.871698 144.751655 
" style="fill:none;stroke:#2ca02c;stroke-linecap:square;stroke-width:3.5;"/>
   </g>
   <g id="line2d_27">
    <path clip-path="url(#pe18a441446)" d="M 451.018868 154.989257 
L 452.10566 154.943303 
L 455.366038 155.221667 
L 459.713208 155.819326 
L 464.603774 156.278297 
L 468.407547 156.407649 
L 472.754717 156.26352 
L 477.101887 155.814844 
L 482.535849 154.770754 
L 486.883019 153.668596 
L 496.664151 150.431385 
L 504.815094 147.368876 
L 517.856604 141.949438 
L 526.007547 138.1172 
L 529.811321 136.150139 
L 534.701887 133.360182 
L 539.049057 130.623438 
L 543.396226 127.596088 
L 547.2 124.693578 
L 551.003774 121.549347 
L 555.350943 117.665918 
L 561.328302 111.918372 
L 571.65283 101.913589 
L 574.369811 99.653996 
L 576 98.458341 
L 578.173585 97.125022 
L 579.803774 96.343121 
L 581.433962 95.786545 
L 583.064151 95.438328 
L 584.69434 95.31258 
L 586.324528 95.414019 
L 587.954717 95.730586 
L 589.584906 96.271892 
L 591.215094 97.030311 
L 592.845283 98.017368 
L 594.475472 99.221483 
L 596.649057 101.143244 
L 599.366038 104.087255 
L 602.083019 107.495448 
L 610.777358 119.000347 
L 612.407547 120.641664 
L 614.037736 121.903891 
L 615.124528 122.515122 
L 616.211321 122.927699 
L 617.298113 123.133006 
L 618.384906 123.127443 
L 619.471698 122.938606 
L 620.558491 122.57271 
L 622.188679 121.729109 
L 623.818868 120.592513 
L 626.535849 118.318372 
L 633.056604 112.634219 
L 635.230189 111.031981 
L 637.403774 109.674587 
L 639.577358 108.582409 
L 641.750943 107.729231 
L 643.924528 107.092647 
L 646.641509 106.553335 
L 649.358491 106.2418 
L 653.162264 106.086764 
L 658.596226 106.200183 
L 670.550943 106.584398 
L 674.898113 106.485873 
L 678.701887 106.198263 
L 682.50566 105.703222 
L 686.85283 104.912867 
L 692.286792 103.682884 
L 697.720755 102.317499 
L 714.566038 98.044008 
L 719.456604 97.02526 
L 724.890566 96.085749 
L 731.954717 95.127823 
L 741.735849 94.099297 
L 766.188679 91.463029 
L 778.143396 89.729337 
L 778.143396 89.729337 
" style="fill:none;stroke:#d62728;stroke-linecap:square;stroke-width:3.5;"/>
   </g>
   <g id="line2d_28">
    <path clip-path="url(#pe18a441446)" d="M 451.562264 138.223256 
L 777.6 138.223256 
" style="fill:none;stroke:#000000;stroke-dasharray:3.2,0.8,0.5,0.8;stroke-dashoffset:0;stroke-width:0.5;"/>
   </g>
   <g id="line2d_29">
    <path clip-path="url(#pe18a441446)" d="M 451.562264 199.172093 
L 451.562264 46.8 
" style="fill:none;stroke:#000000;stroke-linecap:square;stroke-width:0.5;"/>
   </g>
   <g id="line2d_30">
    <path clip-path="url(#pe18a441446)" d="M 560.241509 199.172093 
L 560.241509 46.8 
" style="fill:none;stroke:#000000;stroke-dasharray:6.4,1.6,1,1.6;stroke-dashoffset:0;stroke-opacity:0.25;"/>
   </g>
   <g id="line2d_31">
    <path clip-path="url(#pe18a441446)" d="M 668.920755 199.172093 
L 668.920755 46.8 
" style="fill:none;stroke:#000000;stroke-dasharray:6.4,1.6,1,1.6;stroke-dashoffset:0;stroke-opacity:0.25;"/>
   </g>
   <g id="line2d_32">
    <path clip-path="url(#pe18a441446)" d="M 777.6 199.172093 
L 777.6 46.8 
" style="fill:none;stroke:#000000;stroke-dasharray:6.4,1.6,1,1.6;stroke-dashoffset:0;stroke-opacity:0.25;"/>
   </g>
   <g id="patch_8">
    <path d="M 451.562264 199.172093 
L 451.562264 46.8 
" style="fill:none;stroke:#000000;stroke-linecap:square;stroke-linejoin:miter;stroke-width:0.8;"/>
   </g>
   <g id="patch_9">
    <path d="M 777.6 199.172093 
L 777.6 46.8 
" style="fill:none;stroke:#000000;stroke-linecap:square;stroke-linejoin:miter;stroke-width:0.8;"/>
   </g>
   <g id="patch_10">
    <path d="M 451.562264 199.172093 
L 777.6 199.172093 
" style="fill:none;stroke:#000000;stroke-linecap:square;stroke-linejoin:miter;stroke-width:0.8;"/>
   </g>
   <g id="patch_11">
    <path d="M 451.562264 46.8 
L 777.6 46.8 
" style="fill:none;stroke:#000000;stroke-linecap:square;stroke-linejoin:miter;stroke-width:0.8;"/>
   </g>
   <g id="text_19">
    <!-- $Re = 10^3$ -->
    <g transform="translate(581.901132 28.370592)scale(0.19 -0.19)">
     <defs>
      <path d="M 6.09375 51 
L 4.5 51.40625 
Q 6.796875 58.90625 11.6875 63.25 
Q 16.59375 67.59375 24.09375 67.59375 
Q 31.09375 67.59375 35.390625 63.796875 
Q 39.703125 60 39.703125 53.90625 
Q 39.703125 45.703125 30.40625 40.09375 
Q 35.90625 37.703125 38.703125 34.796875 
Q 43.09375 29.90625 43.09375 21.90625 
Q 43.09375 13.90625 38.5 7.90625 
Q 35.09375 3.296875 28.75 0.9375 
Q 22.40625 -1.40625 15.296875 -1.40625 
Q 4.09375 -1.40625 4.09375 4.296875 
Q 4.09375 5.90625 5.296875 6.90625 
Q 6.5 7.90625 8.203125 7.90625 
Q 10.703125 7.90625 14.296875 5.296875 
Q 18.703125 2.203125 22.90625 2.203125 
Q 28.40625 2.203125 32.15625 6.640625 
Q 35.90625 11.09375 35.90625 17.5 
Q 35.90625 29 25.5 32 
Q 22.40625 33 15.296875 33 
L 15.296875 34.40625 
Q 20.90625 36.296875 23.703125 38 
Q 31.796875 42.59375 31.796875 51.40625 
Q 31.796875 56.40625 28.9375 59 
Q 26.09375 61.59375 21 61.59375 
Q 12 61.59375 6.09375 51 
z
" id="STIXGeneral-Regular-51"/>
     </defs>
     <use transform="translate(0 0.409375)" xlink:href="#STIXGeneral-Italic-82"/>
     <use transform="translate(61.099991 0.409375)" xlink:href="#STIXGeneral-Italic-101"/>
     <use transform="translate(119.939981 0.409375)" xlink:href="#STIXGeneral-Regular-61"/>
     <use transform="translate(202.879962 0.409375)" xlink:href="#STIXGeneral-Regular-49"/>
     <use transform="translate(252.879947 0.409375)" xlink:href="#STIXGeneral-Regular-48"/>
     <use transform="translate(304.423213 35.684375)scale(0.7)" xlink:href="#STIXGeneral-Regular-51"/>
    </g>
   </g>
  </g>
  <g id="axes_3">
   <g id="patch_12">
    <path d="M 86.4 374.4 
L 412.437736 374.4 
L 412.437736 222.027907 
L 86.4 222.027907 
z
" style="fill:#ffffff;"/>
   </g>
   <g id="matplotlib.axis_5">
    <g id="xtick_9">
     <g id="line2d_33">
      <g>
       <use style="fill:#ffffff;stroke:#000000;stroke-width:0.8;" x="86.4" xlink:href="#mac04483b99" y="374.4"/>
      </g>
     </g>
     <g id="text_20">
      <!-- 1.0 -->
      <g transform="translate(74.525 394.376406)scale(0.19 -0.19)">
       <use xlink:href="#STIXGeneral-Regular-49"/>
       <use x="49.999985" xlink:href="#STIXGeneral-Regular-46"/>
       <use x="74.999969" xlink:href="#STIXGeneral-Regular-48"/>
      </g>
     </g>
    </g>
    <g id="xtick_10">
     <g id="line2d_34">
      <g>
       <use style="fill:#ffffff;stroke:#000000;stroke-width:0.8;" x="195.079245" xlink:href="#mac04483b99" y="374.4"/>
      </g>
     </g>
     <g id="text_21">
      <!-- 1.2 -->
      <g transform="translate(183.204245 394.376406)scale(0.19 -0.19)">
       <use xlink:href="#STIXGeneral-Regular-49"/>
       <use x="49.999985" xlink:href="#STIXGeneral-Regular-46"/>
       <use x="74.999969" xlink:href="#STIXGeneral-Regular-50"/>
      </g>
     </g>
    </g>
    <g id="xtick_11">
     <g id="line2d_35">
      <g>
       <use style="fill:#ffffff;stroke:#000000;stroke-width:0.8;" x="303.758491" xlink:href="#mac04483b99" y="374.4"/>
      </g>
     </g>
     <g id="text_22">
      <!-- 1.4 -->
      <g transform="translate(291.883491 394.376406)scale(0.19 -0.19)">
       <use xlink:href="#STIXGeneral-Regular-49"/>
       <use x="49.999985" xlink:href="#STIXGeneral-Regular-46"/>
       <use x="74.999969" xlink:href="#STIXGeneral-Regular-52"/>
      </g>
     </g>
    </g>
    <g id="xtick_12">
     <g id="line2d_36">
      <g>
       <use style="fill:#ffffff;stroke:#000000;stroke-width:0.8;" x="412.437736" xlink:href="#mac04483b99" y="374.4"/>
      </g>
     </g>
     <g id="text_23">
      <!-- 1.6 -->
      <g transform="translate(400.562736 394.376406)scale(0.19 -0.19)">
       <use xlink:href="#STIXGeneral-Regular-49"/>
       <use x="49.999985" xlink:href="#STIXGeneral-Regular-46"/>
       <use x="74.999969" xlink:href="#STIXGeneral-Regular-54"/>
      </g>
     </g>
    </g>
   </g>
   <g id="matplotlib.axis_6">
    <g id="ytick_7">
     <g id="line2d_37">
      <g>
       <use style="fill:#ffffff;stroke:#000000;stroke-width:0.8;" x="86.4" xlink:href="#m6f9bcfd6e5" y="374.4"/>
      </g>
     </g>
     <g id="text_24">
      <!-- −1 -->
      <g transform="translate(56.885 380.888203)scale(0.19 -0.19)">
       <use xlink:href="#STIXGeneral-Regular-8722"/>
       <use x="68.499985" xlink:href="#STIXGeneral-Regular-49"/>
      </g>
     </g>
    </g>
    <g id="ytick_8">
     <g id="line2d_38">
      <g>
       <use style="fill:#ffffff;stroke:#000000;stroke-width:0.8;" x="86.4" xlink:href="#m6f9bcfd6e5" y="313.451163"/>
      </g>
     </g>
     <g id="text_25">
      <!-- 0 -->
      <g transform="translate(69.9 319.939366)scale(0.19 -0.19)">
       <use xlink:href="#STIXGeneral-Regular-48"/>
      </g>
     </g>
    </g>
    <g id="ytick_9">
     <g id="line2d_39">
      <g>
       <use style="fill:#ffffff;stroke:#000000;stroke-width:0.8;" x="86.4" xlink:href="#m6f9bcfd6e5" y="252.502326"/>
      </g>
     </g>
     <g id="text_26">
      <!-- 1 -->
      <g transform="translate(69.9 258.990529)scale(0.19 -0.19)">
       <use xlink:href="#STIXGeneral-Regular-49"/>
      </g>
     </g>
    </g>
    <g id="text_27">
     <!-- $C_d$ -->
     <g transform="translate(48.761406 308.378953)rotate(-90)scale(0.19 -0.19)">
      <defs>
       <path d="M 52.09375 68.296875 
L 52.703125 67.703125 
L 48.796875 52.5 
L 42.796875 30.59375 
Q 36.296875 6.703125 36.296875 6 
Q 36.296875 4 38.09375 4 
Q 39.40625 4 40.84375 5.25 
Q 42.296875 6.5 46.296875 11.09375 
L 47.5 10.09375 
Q 39.796875 -1.296875 32.796875 -1.296875 
Q 30.90625 -1.296875 29.796875 -0.09375 
Q 28.703125 1.09375 28.703125 3.203125 
Q 28.703125 6.203125 30 12.09375 
Q 25.703125 4.796875 21.546875 1.84375 
Q 17.40625 -1.09375 12.203125 -1.09375 
Q 7.203125 -1.09375 4.34375 1.953125 
Q 1.5 5 1.5 10.59375 
Q 1.5 22.5 11.140625 33.296875 
Q 20.796875 44.09375 30.703125 44.09375 
Q 33.796875 44.09375 35.25 42.6875 
Q 36.703125 41.296875 37.203125 38.296875 
L 37.296875 38.296875 
L 41.796875 54.59375 
Q 43.203125 59.5 43.203125 61.703125 
Q 43.203125 63.296875 42.09375 63.6875 
Q 41 64.09375 36.796875 64.296875 
L 36.796875 66 
Q 44.5 66.703125 52.09375 68.296875 
z
M 35.59375 36.09375 
Q 35.59375 38.703125 34.140625 40.25 
Q 32.703125 41.796875 30.90625 41.796875 
Q 26.203125 41.796875 21.796875 37.203125 
Q 16.796875 31.90625 13.5 24.546875 
Q 10.203125 17.203125 10.203125 11 
Q 10.203125 7.59375 11.75 5.640625 
Q 13.296875 3.703125 16 3.703125 
Q 20.5 3.703125 25.09375 8.59375 
Q 29.703125 13.5 32.640625 21.09375 
Q 35.59375 28.703125 35.59375 36.09375 
z
" id="STIXGeneral-Italic-100"/>
      </defs>
      <use transform="translate(0 0.40625)" xlink:href="#STIXGeneral-Italic-67"/>
      <use transform="translate(66.699997 -12.821875)scale(0.7)" xlink:href="#STIXGeneral-Italic-100"/>
     </g>
    </g>
   </g>
   <g id="line2d_40">
    <path clip-path="url(#p1d7c155697)" d="M 85.856604 354.343534 
L 86.943396 351.295249 
L 88.030189 348.981919 
L 88.573585 347.884648 
L 90.203774 345.469979 
L 91.833962 343.596609 
L 93.464151 342.051289 
L 97.811321 339.019384 
L 98.354717 338.829798 
L 98.898113 338.396288 
L 99.441509 338.269396 
L 99.984906 337.864838 
L 104.875472 335.753948 
L 105.418868 335.613752 
L 106.50566 335.181963 
L 109.222642 334.216049 
L 109.766038 334.177739 
L 110.309434 333.923187 
L 112.483019 333.399472 
L 113.026415 333.166533 
L 115.743396 332.520356 
L 121.177358 331.387261 
L 126.611321 330.483674 
L 133.675472 329.574625 
L 141.283019 328.851032 
L 149.433962 328.305873 
L 158.128302 327.91783 
L 172.8 327.585289 
L 189.645283 327.514177 
L 211.924528 327.664374 
L 256.483019 328.227075 
L 296.150943 328.641875 
L 330.928302 328.807791 
L 367.335849 328.776259 
L 408.090566 328.544247 
L 412.981132 328.504749 
L 412.981132 328.504749 
" style="fill:none;stroke:#1f77b4;stroke-linecap:square;stroke-width:3.5;"/>
   </g>
   <g id="line2d_41">
    <path clip-path="url(#p1d7c155697)" d="M 85.856604 335.298045 
L 87.486792 332.147096 
L 89.116981 329.7313 
L 90.203774 328.346165 
L 92.377358 326.013784 
L 94.007547 324.497889 
L 99.441509 320.413142 
L 104.332075 317.431614 
L 108.135849 315.42931 
L 110.85283 314.099984 
L 113.569811 312.940544 
L 115.743396 312.041986 
L 120.633962 310.257715 
L 125.524528 308.740827 
L 130.415094 307.412802 
L 135.30566 306.311409 
L 141.283019 305.190463 
L 147.260377 304.318413 
L 154.324528 303.556532 
L 161.388679 303.055436 
L 168.45283 302.782147 
L 175.516981 302.70553 
L 184.754717 302.863232 
L 193.449057 303.249573 
L 203.230189 303.892564 
L 216.815094 305.059462 
L 232.030189 306.625054 
L 288 312.926916 
L 312.45283 315.340648 
L 330.384906 316.862859 
L 348.860377 318.199689 
L 365.162264 319.180737 
L 385.267925 320.164449 
L 405.373585 320.923697 
L 412.981132 321.160423 
L 412.981132 321.160423 
" style="fill:none;stroke:#ff7f0e;stroke-linecap:square;stroke-width:3.5;"/>
   </g>
   <g id="line2d_42">
    <path clip-path="url(#p1d7c155697)" d="M 86.128302 341.630118 
L 87.486792 339.543165 
L 89.116981 337.494156 
L 91.018868 335.504288 
L 93.192453 333.561179 
L 95.366038 331.814765 
L 98.626415 329.440649 
L 103.516981 326.219476 
L 108.679245 323.096413 
L 119.275472 317.37767 
L 125.25283 314.487843 
L 131.773585 311.581905 
L 138.29434 308.919572 
L 144.815094 306.491162 
L 151.335849 304.291072 
L 157.856604 302.31636 
L 164.377358 300.560752 
L 171.169811 298.95769 
L 177.962264 297.577046 
L 185.026415 296.365491 
L 192.362264 295.332891 
L 199.969811 294.485945 
L 207.849057 293.827209 
L 216.271698 293.344008 
L 225.237736 293.049588 
L 235.018868 292.953069 
L 245.615094 293.073829 
L 257.026415 293.4219 
L 269.796226 294.024332 
L 286.098113 295.034622 
L 308.377358 296.671508 
L 360.271698 300.57657 
L 386.898113 302.312179 
L 412.709434 303.797368 
L 412.709434 303.797368 
" style="fill:none;stroke:#2ca02c;stroke-linecap:square;stroke-width:3.5;"/>
   </g>
   <g id="line2d_43">
    <path clip-path="url(#p1d7c155697)" d="M 85.856604 342.507877 
L 86.943396 341.745923 
L 88.573585 340.945456 
L 90.203774 340.398878 
L 92.377358 339.943564 
L 95.637736 339.582232 
L 98.898113 339.409155 
L 107.049057 339.350862 
L 128.241509 339.375943 
L 135.849057 339.084621 
L 144 338.524512 
L 152.150943 337.721856 
L 160.845283 336.627435 
L 170.626415 335.174004 
L 182.581132 333.169259 
L 200.513208 329.919982 
L 228.769811 324.81406 
L 245.071698 322.119767 
L 260.286792 319.839792 
L 274.958491 317.876583 
L 288 316.321197 
L 303.215094 314.724915 
L 318.430189 313.344202 
L 334.732075 312.082248 
L 352.664151 310.932734 
L 370.596226 310.001685 
L 390.158491 309.215311 
L 411.350943 308.60092 
L 412.981132 308.562589 
L 412.981132 308.562589 
" style="fill:none;stroke:#d62728;stroke-linecap:square;stroke-width:3.5;"/>
   </g>
   <g id="line2d_44">
    <path clip-path="url(#p1d7c155697)" d="M 86.4 313.451163 
L 412.437736 313.451163 
" style="fill:none;stroke:#000000;stroke-dasharray:3.2,0.8,0.5,0.8;stroke-dashoffset:0;stroke-width:0.5;"/>
   </g>
   <g id="line2d_45">
    <path clip-path="url(#p1d7c155697)" d="M 86.4 374.4 
L 86.4 222.027907 
" style="fill:none;stroke:#000000;stroke-linecap:square;stroke-width:0.5;"/>
   </g>
   <g id="line2d_46">
    <path clip-path="url(#p1d7c155697)" d="M 195.079245 374.4 
L 195.079245 222.027907 
" style="fill:none;stroke:#000000;stroke-dasharray:6.4,1.6,1,1.6;stroke-dashoffset:0;stroke-opacity:0.25;"/>
   </g>
   <g id="line2d_47">
    <path clip-path="url(#p1d7c155697)" d="M 303.758491 374.4 
L 303.758491 222.027907 
" style="fill:none;stroke:#000000;stroke-dasharray:6.4,1.6,1,1.6;stroke-dashoffset:0;stroke-opacity:0.25;"/>
   </g>
   <g id="line2d_48">
    <path clip-path="url(#p1d7c155697)" d="M 412.437736 374.4 
L 412.437736 222.027907 
" style="fill:none;stroke:#000000;stroke-dasharray:6.4,1.6,1,1.6;stroke-dashoffset:0;stroke-opacity:0.25;"/>
   </g>
   <g id="patch_13">
    <path d="M 86.4 374.4 
L 86.4 222.027907 
" style="fill:none;stroke:#000000;stroke-linecap:square;stroke-linejoin:miter;stroke-width:0.8;"/>
   </g>
   <g id="patch_14">
    <path d="M 412.437736 374.4 
L 412.437736 222.027907 
" style="fill:none;stroke:#000000;stroke-linecap:square;stroke-linejoin:miter;stroke-width:0.8;"/>
   </g>
   <g id="patch_15">
    <path d="M 86.4 374.4 
L 412.437736 374.4 
" style="fill:none;stroke:#000000;stroke-linecap:square;stroke-linejoin:miter;stroke-width:0.8;"/>
   </g>
   <g id="patch_16">
    <path d="M 86.4 222.027907 
L 412.437736 222.027907 
" style="fill:none;stroke:#000000;stroke-linecap:square;stroke-linejoin:miter;stroke-width:0.8;"/>
   </g>
  </g>
  <g id="axes_4">
   <g id="patch_17">
    <path d="M 451.562264 374.4 
L 777.6 374.4 
L 777.6 222.027907 
L 451.562264 222.027907 
z
" style="fill:#ffffff;"/>
   </g>
   <g id="matplotlib.axis_7">
    <g id="xtick_13">
     <g id="line2d_49">
      <g>
       <use style="fill:#ffffff;stroke:#000000;stroke-width:0.8;" x="451.562264" xlink:href="#mac04483b99" y="374.4"/>
      </g>
     </g>
     <g id="text_28">
      <!-- 1.0 -->
      <g transform="translate(439.687264 394.376406)scale(0.19 -0.19)">
       <use xlink:href="#STIXGeneral-Regular-49"/>
       <use x="49.999985" xlink:href="#STIXGeneral-Regular-46"/>
       <use x="74.999969" xlink:href="#STIXGeneral-Regular-48"/>
      </g>
     </g>
    </g>
    <g id="xtick_14">
     <g id="line2d_50">
      <g>
       <use style="fill:#ffffff;stroke:#000000;stroke-width:0.8;" x="560.241509" xlink:href="#mac04483b99" y="374.4"/>
      </g>
     </g>
     <g id="text_29">
      <!-- 1.2 -->
      <g transform="translate(548.366509 394.376406)scale(0.19 -0.19)">
       <use xlink:href="#STIXGeneral-Regular-49"/>
       <use x="49.999985" xlink:href="#STIXGeneral-Regular-46"/>
       <use x="74.999969" xlink:href="#STIXGeneral-Regular-50"/>
      </g>
     </g>
    </g>
    <g id="xtick_15">
     <g id="line2d_51">
      <g>
       <use style="fill:#ffffff;stroke:#000000;stroke-width:0.8;" x="668.920755" xlink:href="#mac04483b99" y="374.4"/>
      </g>
     </g>
     <g id="text_30">
      <!-- 1.4 -->
      <g transform="translate(657.045755 394.376406)scale(0.19 -0.19)">
       <use xlink:href="#STIXGeneral-Regular-49"/>
       <use x="49.999985" xlink:href="#STIXGeneral-Regular-46"/>
       <use x="74.999969" xlink:href="#STIXGeneral-Regular-52"/>
      </g>
     </g>
    </g>
    <g id="xtick_16">
     <g id="line2d_52">
      <g>
       <use style="fill:#ffffff;stroke:#000000;stroke-width:0.8;" x="777.6" xlink:href="#mac04483b99" y="374.4"/>
      </g>
     </g>
     <g id="text_31">
      <!-- 1.6 -->
      <g transform="translate(765.725 394.376406)scale(0.19 -0.19)">
       <use xlink:href="#STIXGeneral-Regular-49"/>
       <use x="49.999985" xlink:href="#STIXGeneral-Regular-46"/>
       <use x="74.999969" xlink:href="#STIXGeneral-Regular-54"/>
      </g>
     </g>
    </g>
    <g id="text_32">
     <!-- $\^t$ -->
     <g transform="translate(611.921132 415.476406)scale(0.19 -0.19)">
      <use transform="translate(39.042969 16.59375)" xlink:href="#STIXGeneral-Regular-770"/>
      <use transform="translate(0 0.203125)" xlink:href="#STIXGeneral-Italic-116"/>
     </g>
    </g>
   </g>
   <g id="matplotlib.axis_8">
    <g id="ytick_10">
     <g id="line2d_53">
      <g>
       <use style="fill:#ffffff;stroke:#000000;stroke-width:0.8;" x="451.562264" xlink:href="#m6f9bcfd6e5" y="374.4"/>
      </g>
     </g>
     <g id="text_33">
      <!-- −1 -->
      <g transform="translate(422.047264 380.888203)scale(0.19 -0.19)">
       <use xlink:href="#STIXGeneral-Regular-8722"/>
       <use x="68.499985" xlink:href="#STIXGeneral-Regular-49"/>
      </g>
     </g>
    </g>
    <g id="ytick_11">
     <g id="line2d_54">
      <g>
       <use style="fill:#ffffff;stroke:#000000;stroke-width:0.8;" x="451.562264" xlink:href="#m6f9bcfd6e5" y="313.451163"/>
      </g>
     </g>
     <g id="text_34">
      <!-- 0 -->
      <g transform="translate(435.062264 319.939366)scale(0.19 -0.19)">
       <use xlink:href="#STIXGeneral-Regular-48"/>
      </g>
     </g>
    </g>
    <g id="ytick_12">
     <g id="line2d_55">
      <g>
       <use style="fill:#ffffff;stroke:#000000;stroke-width:0.8;" x="451.562264" xlink:href="#m6f9bcfd6e5" y="252.502326"/>
      </g>
     </g>
     <g id="text_35">
      <!-- 1 -->
      <g transform="translate(435.062264 258.990529)scale(0.19 -0.19)">
       <use xlink:href="#STIXGeneral-Regular-49"/>
      </g>
     </g>
    </g>
    <g id="text_36">
     <!-- $C_d$ -->
     <g transform="translate(413.92367 308.378953)rotate(-90)scale(0.19 -0.19)">
      <use transform="translate(0 0.40625)" xlink:href="#STIXGeneral-Italic-67"/>
      <use transform="translate(66.699997 -12.821875)scale(0.7)" xlink:href="#STIXGeneral-Italic-100"/>
     </g>
    </g>
   </g>
   <g id="line2d_56">
    <path clip-path="url(#p16cd4f48b1)" d="M 451.018868 307.095474 
L 452.10566 305.967396 
L 453.192453 305.373844 
L 453.735849 305.109118 
L 456.45283 305.08047 
L 457.539623 305.357068 
L 458.083019 305.564809 
L 458.626415 305.650315 
L 460.256604 306.213451 
L 460.8 306.337504 
L 461.343396 306.648521 
L 461.886792 306.758777 
L 462.430189 307.039477 
L 462.973585 307.111358 
L 463.516981 307.422494 
L 464.060377 307.50078 
L 464.603774 307.823402 
L 465.14717 307.884098 
L 465.690566 308.086504 
L 466.233962 308.413107 
L 466.777358 308.46729 
L 467.864151 308.902222 
L 468.407547 309.039914 
L 469.49434 309.553865 
L 470.037736 309.688602 
L 470.581132 309.945105 
L 471.667925 310.264816 
L 484.709434 315.10407 
L 488.513208 316.69151 
L 490.143396 317.419752 
L 499.381132 321.838034 
L 511.335849 328.600992 
L 524.377358 336.415457 
L 530.354717 339.573706 
L 537.962264 342.885578 
L 542.85283 344.483396 
L 546.113208 345.285757 
L 553.177358 346.444837 
L 558.067925 346.945518 
L 560.241509 347.059797 
L 563.501887 347.208827 
L 575.456604 347.520337 
L 583.607547 347.769104 
L 611.864151 348.439428 
L 617.298113 348.341938 
L 624.90566 348.087873 
L 631.969811 347.728602 
L 642.29434 346.991574 
L 659.139623 345.455374 
L 668.920755 344.422745 
L 675.984906 343.639036 
L 696.090566 341.132277 
L 752.603774 333.242751 
L 778.143396 330.095381 
L 778.143396 330.095381 
" style="fill:none;stroke:#1f77b4;stroke-linecap:square;stroke-width:3.5;"/>
   </g>
   <g id="line2d_57">
    <path clip-path="url(#p16cd4f48b1)" d="M 451.018868 286.20797 
L 452.649057 283.359407 
L 454.279245 281.132604 
L 455.366038 279.791866 
L 459.713208 275.551149 
L 462.430189 273.216867 
L 468.407547 268.943625 
L 470.581132 267.610562 
L 473.841509 265.880001 
L 478.188679 264.100788 
L 483.079245 262.928113 
L 485.25283 262.668499 
L 487.969811 262.522721 
L 490.143396 262.565815 
L 494.490566 263.177124 
L 498.29434 264.155176 
L 501.554717 265.261252 
L 503.728302 266.1462 
L 505.358491 266.926227 
L 507.532075 267.997847 
L 510.249057 269.462466 
L 517.856604 274.179209 
L 529.267925 282.516756 
L 545.026415 295.123433 
L 548.830189 298.02001 
L 553.720755 301.503965 
L 558.611321 304.654468 
L 565.132075 308.131786 
L 567.849057 309.360051 
L 572.739623 311.281669 
L 575.456604 312.209444 
L 580.34717 313.691635 
L 586.867925 315.42307 
L 601.539623 319.159485 
L 606.973585 320.634268 
L 616.211321 323.036039 
L 621.645283 324.325744 
L 629.796226 325.950268 
L 640.664151 327.610326 
L 648.271698 328.535502 
L 656.422642 329.290918 
L 665.660377 329.920514 
L 672.724528 330.225953 
L 683.592453 330.46848 
L 695.54717 330.379631 
L 708.588679 329.989449 
L 729.237736 328.875017 
L 748.8 327.511594 
L 756.407547 326.906024 
L 778.143396 325.226873 
L 778.143396 325.226873 
" style="fill:none;stroke:#ff7f0e;stroke-linecap:square;stroke-width:3.5;"/>
   </g>
   <g id="line2d_58">
    <path clip-path="url(#p16cd4f48b1)" d="M 451.290566 306.966628 
L 452.920755 305.102048 
L 454.822642 303.138837 
L 458.898113 299.062669 
L 466.777358 290.344309 
L 471.124528 285.423248 
L 476.558491 279.918932 
L 478.732075 278.02852 
L 481.177358 276.159997 
L 483.350943 274.753644 
L 485.524528 273.583024 
L 487.698113 272.67539 
L 489.871698 272.010557 
L 491.773585 271.637762 
L 493.94717 271.443761 
L 495.849057 271.465867 
L 498.022642 271.706653 
L 500.196226 272.167735 
L 502.641509 272.934056 
L 505.086792 273.941413 
L 507.532075 275.169458 
L 509.977358 276.597068 
L 512.69434 278.393976 
L 515.954717 280.796865 
L 520.030189 284.111959 
L 524.649057 288.166892 
L 531.441509 294.479809 
L 545.026415 307.074911 
L 549.373585 310.75729 
L 553.449057 313.938323 
L 556.981132 316.427807 
L 560.784906 318.796366 
L 564.045283 320.554325 
L 567.033962 321.931422 
L 570.022642 323.079995 
L 573.011321 324.00479 
L 576.271698 324.760908 
L 579.260377 325.233123 
L 582.249057 325.50989 
L 585.509434 325.609327 
L 589.041509 325.502277 
L 592.845283 325.182107 
L 597.735849 324.541779 
L 604.528302 323.400683 
L 617.298113 321.2031 
L 624.90566 320.136907 
L 632.513208 319.309677 
L 640.935849 318.625178 
L 651.260377 318.017023 
L 661.313208 317.64311 
L 670.550943 317.534145 
L 681.14717 317.647391 
L 695.275472 318.058468 
L 722.716981 319.134859 
L 737.660377 319.636998 
L 761.841509 320.141574 
L 777.871698 320.293982 
L 777.871698 320.293982 
" style="fill:none;stroke:#2ca02c;stroke-linecap:square;stroke-width:3.5;"/>
   </g>
   <g id="line2d_59">
    <path clip-path="url(#p16cd4f48b1)" d="M 451.018868 326.6296 
L 452.10566 326.436929 
L 454.822642 326.341598 
L 458.626415 326.53868 
L 462.430189 326.710452 
L 466.233962 326.756213 
L 471.124528 326.556872 
L 476.558491 325.933719 
L 480.362264 325.188331 
L 483.079245 324.543901 
L 489.056604 322.814636 
L 493.94717 321.123822 
L 502.098113 318.029951 
L 517.313208 311.711819 
L 528.181132 306.561305 
L 533.615094 303.614244 
L 537.418868 301.369075 
L 541.222642 298.925859 
L 546.113208 295.450627 
L 549.916981 292.487835 
L 553.720755 289.315136 
L 559.698113 283.928537 
L 572.739623 271.857345 
L 575.456604 269.756869 
L 578.173585 268.027739 
L 580.34717 266.969576 
L 581.977358 266.390551 
L 583.607547 265.996202 
L 585.237736 265.79083 
L 586.867925 265.778788 
L 588.498113 265.94496 
L 590.671698 266.457622 
L 592.301887 267.053944 
L 593.932075 267.82825 
L 596.10566 269.121699 
L 598.279245 270.732066 
L 600.45283 272.596732 
L 603.169811 275.219885 
L 609.690566 281.585007 
L 611.864151 283.23575 
L 613.49434 284.158935 
L 614.581132 284.606605 
L 616.211321 284.986559 
L 617.298113 285.043694 
L 618.928302 284.836805 
L 620.558491 284.328375 
L 622.188679 283.558868 
L 624.362264 282.223519 
L 628.709434 279.147599 
L 631.426415 277.280236 
L 634.143396 275.631549 
L 636.316981 274.524843 
L 638.490566 273.632077 
L 640.664151 272.929492 
L 643.381132 272.331452 
L 646.098113 271.958342 
L 648.815094 271.756846 
L 653.162264 271.715601 
L 661.856604 272.037263 
L 666.203774 272.192035 
L 670.550943 272.22818 
L 674.898113 272.08844 
L 678.701887 271.779304 
L 683.049057 271.205494 
L 689.026415 270.110008 
L 700.437736 267.563995 
L 709.132075 265.557882 
L 717.283019 263.935515 
L 722.173585 263.134194 
L 728.69434 262.291828 
L 735.215094 261.653516 
L 748.8 260.614725 
L 755.864151 260.101892 
L 770.535849 258.831042 
L 778.143396 258.085533 
L 778.143396 258.085533 
" style="fill:none;stroke:#d62728;stroke-linecap:square;stroke-width:3.5;"/>
   </g>
   <g id="line2d_60">
    <path clip-path="url(#p16cd4f48b1)" d="M 451.562264 313.451163 
L 777.6 313.451163 
" style="fill:none;stroke:#000000;stroke-dasharray:3.2,0.8,0.5,0.8;stroke-dashoffset:0;stroke-width:0.5;"/>
   </g>
   <g id="line2d_61">
    <path clip-path="url(#p16cd4f48b1)" d="M 451.562264 374.4 
L 451.562264 222.027907 
" style="fill:none;stroke:#000000;stroke-linecap:square;stroke-width:0.5;"/>
   </g>
   <g id="line2d_62">
    <path clip-path="url(#p16cd4f48b1)" d="M 560.241509 374.4 
L 560.241509 222.027907 
" style="fill:none;stroke:#000000;stroke-dasharray:6.4,1.6,1,1.6;stroke-dashoffset:0;stroke-opacity:0.25;"/>
   </g>
   <g id="line2d_63">
    <path clip-path="url(#p16cd4f48b1)" d="M 668.920755 374.4 
L 668.920755 222.027907 
" style="fill:none;stroke:#000000;stroke-dasharray:6.4,1.6,1,1.6;stroke-dashoffset:0;stroke-opacity:0.25;"/>
   </g>
   <g id="line2d_64">
    <path clip-path="url(#p16cd4f48b1)" d="M 777.6 374.4 
L 777.6 222.027907 
" style="fill:none;stroke:#000000;stroke-dasharray:6.4,1.6,1,1.6;stroke-dashoffset:0;stroke-opacity:0.25;"/>
   </g>
   <g id="patch_18">
    <path d="M 451.562264 374.4 
L 451.562264 222.027907 
" style="fill:none;stroke:#000000;stroke-linecap:square;stroke-linejoin:miter;stroke-width:0.8;"/>
   </g>
   <g id="patch_19">
    <path d="M 777.6 374.4 
L 777.6 222.027907 
" style="fill:none;stroke:#000000;stroke-linecap:square;stroke-linejoin:miter;stroke-width:0.8;"/>
   </g>
   <g id="patch_20">
    <path d="M 451.562264 374.4 
L 777.6 374.4 
" style="fill:none;stroke:#000000;stroke-linecap:square;stroke-linejoin:miter;stroke-width:0.8;"/>
   </g>
   <g id="patch_21">
    <path d="M 451.562264 222.027907 
L 777.6 222.027907 
" style="fill:none;stroke:#000000;stroke-linecap:square;stroke-linejoin:miter;stroke-width:0.8;"/>
   </g>
  </g>
 </g>
 <defs>
  <clipPath id="p0909e9e343">
   <rect height="152.372093" width="326.037736" x="86.4" y="46.8"/>
  </clipPath>
  <clipPath id="pe18a441446">
   <rect height="152.372093" width="326.037736" x="451.562264" y="46.8"/>
  </clipPath>
  <clipPath id="p1d7c155697">
   <rect height="152.372093" width="326.037736" x="86.4" y="222.027907"/>
  </clipPath>
  <clipPath id="p16cd4f48b1">
   <rect height="152.372093" width="326.037736" x="451.562264" y="222.027907"/>
  </clipPath>
 </defs>
</svg>
