<?xml version="1.0" encoding="utf-8" standalone="no"?>
<!DOCTYPE svg PUBLIC "-//W3C//DTD SVG 1.1//EN"
  "http://www.w3.org/Graphics/SVG/1.1/DTD/svg11.dtd">
<!-- Created with matplotlib (https://matplotlib.org/) -->
<svg height="720pt" version="1.1" viewBox="0 0 864 720" width="864pt" xmlns="http://www.w3.org/2000/svg" xmlns:xlink="http://www.w3.org/1999/xlink">
 <metadata>
  <rdf:RDF xmlns:cc="http://creativecommons.org/ns#" xmlns:dc="http://purl.org/dc/elements/1.1/" xmlns:rdf="http://www.w3.org/1999/02/22-rdf-syntax-ns#">
   <cc:Work>
    <dc:type rdf:resource="http://purl.org/dc/dcmitype/StillImage"/>
    <dc:date>2022-01-13T01:32:05.287193</dc:date>
    <dc:format>image/svg+xml</dc:format>
    <dc:creator>
     <cc:Agent>
      <dc:title>Matplotlib v3.3.4, https://matplotlib.org/</dc:title>
     </cc:Agent>
    </dc:creator>
   </cc:Work>
  </rdf:RDF>
 </metadata>
 <defs>
  <style type="text/css">*{stroke-linecap:butt;stroke-linejoin:round;}</style>
 </defs>
 <g id="figure_1">
  <g id="patch_1">
   <path d="M 0 720 
L 864 720 
L 864 0 
L 0 0 
z
" style="fill:#ffffff;"/>
  </g>
  <g id="axes_1">
   <g id="patch_2">
    <path d="M 108 312 
L 777.6 312 
L 777.6 72 
L 108 72 
z
" style="fill:#ffffff;"/>
   </g>
   <g id="matplotlib.axis_1">
    <g id="xtick_1">
     <g id="line2d_1">
      <defs>
       <path d="M 0 0 
L 0 3.5 
" id="me98b15f719" style="stroke:#000000;stroke-width:0.8;"/>
      </defs>
      <g>
       <use style="fill:#ffffff;stroke:#000000;stroke-width:0.8;" x="108" xlink:href="#me98b15f719" y="312"/>
      </g>
     </g>
    </g>
    <g id="xtick_2">
     <g id="line2d_2">
      <g>
       <use style="fill:#ffffff;stroke:#000000;stroke-width:0.8;" x="275.4" xlink:href="#me98b15f719" y="312"/>
      </g>
     </g>
    </g>
    <g id="xtick_3">
     <g id="line2d_3">
      <g>
       <use style="fill:#ffffff;stroke:#000000;stroke-width:0.8;" x="442.8" xlink:href="#me98b15f719" y="312"/>
      </g>
     </g>
    </g>
    <g id="xtick_4">
     <g id="line2d_4">
      <g>
       <use style="fill:#ffffff;stroke:#000000;stroke-width:0.8;" x="610.2" xlink:href="#me98b15f719" y="312"/>
      </g>
     </g>
    </g>
    <g id="xtick_5">
     <g id="line2d_5">
      <g>
       <use style="fill:#ffffff;stroke:#000000;stroke-width:0.8;" x="777.6" xlink:href="#me98b15f719" y="312"/>
      </g>
     </g>
    </g>
   </g>
   <g id="matplotlib.axis_2">
    <g id="ytick_1">
     <g id="line2d_6">
      <defs>
       <path d="M 0 0 
L -3.5 0 
" id="md6f042c1be" style="stroke:#000000;stroke-width:0.8;"/>
      </defs>
      <g>
       <use style="fill:#ffffff;stroke:#000000;stroke-width:0.8;" x="108" xlink:href="#md6f042c1be" y="279.272727"/>
      </g>
     </g>
     <g id="text_1">
      <!-- −80 -->
      <g transform="translate(50.45 289.517259)scale(0.3 -0.3)">
       <defs>
        <path d="M 62.09375 22 
L 6.40625 22 
L 6.40625 28.59375 
L 62.09375 28.59375 
z
" id="STIXGeneral-Regular-8722"/>
        <path d="M 44.5 15.5 
Q 44.5 7.796875 39.140625 3.1875 
Q 33.796875 -1.40625 24.796875 -1.40625 
Q 16.40625 -1.40625 11 3.1875 
Q 5.59375 7.796875 5.59375 14.90625 
Q 5.59375 20.203125 8.1875 23.953125 
Q 10.796875 27.703125 18.59375 33.203125 
Q 11.09375 39.40625 8.640625 43.203125 
Q 6.203125 47 6.203125 52 
Q 6.203125 59.09375 11.640625 63.34375 
Q 17.09375 67.59375 25.59375 67.59375 
Q 32.90625 67.59375 37.65625 63.4375 
Q 42.40625 59.296875 42.40625 53.296875 
Q 42.40625 47.796875 39.546875 44.5 
Q 36.703125 41.203125 29 37.09375 
Q 38 31.09375 41.25 26.390625 
Q 44.5 21.703125 44.5 15.5 
z
M 35.5 53.296875 
Q 35.5 58.5 32.59375 61.640625 
Q 29.703125 64.796875 24.59375 64.796875 
Q 19.5 64.796875 16.546875 62.140625 
Q 13.59375 59.5 13.59375 54.890625 
Q 13.59375 50.296875 16.546875 46.546875 
Q 19.5 42.796875 26.09375 38.90625 
Q 31.203125 41.90625 33.34375 45.25 
Q 35.5 48.59375 35.5 53.296875 
z
M 27.09375 27.203125 
L 21.203125 31.203125 
Q 16.796875 27.59375 15 24.140625 
Q 13.203125 20.703125 13.203125 15.796875 
Q 13.203125 9 16.640625 5.203125 
Q 20.09375 1.40625 25.90625 1.40625 
Q 30.796875 1.40625 33.84375 4.453125 
Q 36.90625 7.5 36.90625 12.40625 
Q 36.90625 16.90625 34.59375 20.296875 
Q 32.296875 23.703125 27.09375 27.203125 
z
" id="STIXGeneral-Regular-56"/>
        <path d="M 47.59375 33 
Q 47.59375 26.296875 46.296875 20.34375 
Q 45 14.40625 42.453125 9.40625 
Q 39.90625 4.40625 35.40625 1.5 
Q 30.90625 -1.40625 25 -1.40625 
Q 18.90625 -1.40625 14.296875 1.6875 
Q 9.703125 4.796875 7.203125 10 
Q 4.703125 15.203125 3.546875 21.09375 
Q 2.40625 27 2.40625 33.59375 
Q 2.40625 42.90625 4.703125 50.34375 
Q 7 57.796875 12.34375 62.6875 
Q 17.703125 67.59375 25.40625 67.59375 
Q 35.203125 67.59375 41.390625 58 
Q 47.59375 48.40625 47.59375 33 
z
M 38 32.5 
Q 38 48.296875 34.640625 56.640625 
Q 31.296875 65 24.796875 65 
Q 18.59375 65 15.296875 56.59375 
Q 12 48.203125 12 32.90625 
Q 12 17.5 15.296875 9.34375 
Q 18.59375 1.203125 25 1.203125 
Q 31.296875 1.203125 34.640625 9.34375 
Q 38 17.5 38 32.5 
z
" id="STIXGeneral-Regular-48"/>
       </defs>
       <use xlink:href="#STIXGeneral-Regular-8722"/>
       <use x="68.499985" xlink:href="#STIXGeneral-Regular-56"/>
       <use x="118.499969" xlink:href="#STIXGeneral-Regular-48"/>
      </g>
     </g>
    </g>
    <g id="ytick_2">
     <g id="line2d_7">
      <g>
       <use style="fill:#ffffff;stroke:#000000;stroke-width:0.8;" x="108" xlink:href="#md6f042c1be" y="192"/>
      </g>
     </g>
     <g id="text_2">
      <!-- 0 -->
      <g transform="translate(86 202.244531)scale(0.3 -0.3)">
       <use xlink:href="#STIXGeneral-Regular-48"/>
      </g>
     </g>
    </g>
    <g id="ytick_3">
     <g id="line2d_8">
      <g>
       <use style="fill:#ffffff;stroke:#000000;stroke-width:0.8;" x="108" xlink:href="#md6f042c1be" y="104.727273"/>
      </g>
     </g>
     <g id="text_3">
      <!-- 80 -->
      <g transform="translate(71 114.971804)scale(0.3 -0.3)">
       <use xlink:href="#STIXGeneral-Regular-56"/>
       <use x="49.999985" xlink:href="#STIXGeneral-Regular-48"/>
      </g>
     </g>
    </g>
    <g id="text_4">
     <!-- $\phi$ -->
     <g transform="translate(39.939063 201.45)rotate(-90)scale(0.3 -0.3)">
      <defs>
       <path d="M 48.09375 68.296875 
L 41.40625 44.09375 
Q 48.40625 44.09375 51.5 42.90625 
Q 59.5 39.796875 59.5 30.296875 
Q 59.5 26.703125 58.25 22.59375 
Q 57 18.5 54.390625 14.296875 
Q 51.796875 10.09375 48.25 6.640625 
Q 44.703125 3.203125 39.640625 1.046875 
Q 34.59375 -1.09375 28.90625 -1.09375 
L 23.5 -20.5 
L 15.703125 -20.5 
L 21.09375 -1.09375 
Q 13.796875 -1.09375 10.40625 0 
Q 2.703125 2.5 2.703125 12.796875 
Q 2.703125 15.90625 4 19.90625 
Q 5.296875 23.90625 7.84375 28.15625 
Q 10.40625 32.40625 13.84375 35.953125 
Q 17.296875 39.5 22.140625 41.796875 
Q 27 44.09375 32.203125 44.09375 
L 33.703125 44.09375 
L 40.40625 68.296875 
z
M 40.796875 42 
L 29.5 1 
Q 33.203125 1 36.40625 2.59375 
Q 42.09375 5.5 46.59375 15.59375 
Q 51.09375 25.703125 51.09375 32.703125 
Q 51.09375 38.5 46.59375 41.296875 
Q 45.40625 42 40.796875 42 
z
M 21.703125 1 
L 33.09375 42 
Q 27.5 42 22.296875 36.953125 
Q 17.09375 31.90625 14.09375 24.5 
Q 11.09375 17.09375 11.09375 10.09375 
Q 11.09375 3.703125 15.90625 1.796875 
Q 18 1 21.703125 1 
z
" id="STIXGeneral-Italic-981"/>
      </defs>
      <use transform="translate(0 0.703125)" xlink:href="#STIXGeneral-Italic-981"/>
     </g>
    </g>
   </g>
   <g id="line2d_9">
    <path clip-path="url(#p871b91abf2)" d="M 108 104.725019 
L 112.464 104.844081 
L 116.928 105.200434 
L 121.392 105.791577 
L 125.856 106.613364 
L 130.32 107.660031 
L 134.784 108.924236 
L 139.6944 110.555491 
L 144.6048 112.425363 
L 149.9616 114.718668 
L 155.3184 117.25387 
L 161.1216 120.243566 
L 167.3712 123.706392 
L 174.96 128.182937 
L 184.3344 133.995847 
L 209.7792 150.192131 
L 374.0544 254.729427 
L 382.0896 259.523138 
L 388.7856 263.276174 
L 395.0352 266.524731 
L 400.8384 269.281332 
L 406.1952 271.574637 
L 411.1056 273.444509 
L 416.016 275.075764 
L 420.48 276.339969 
L 424.944 277.386636 
L 429.408 278.208423 
L 433.872 278.799566 
L 438.336 279.155919 
L 442.8 279.274981 
L 447.264 279.155919 
L 451.728 278.799566 
L 456.192 278.208423 
L 460.656 277.386636 
L 465.12 276.339969 
L 469.584 275.075764 
L 474.4944 273.444509 
L 479.4048 271.574637 
L 484.7616 269.281332 
L 490.1184 266.746131 
L 495.9216 263.756434 
L 502.1712 260.293608 
L 509.76 255.817063 
L 519.1344 250.004154 
L 544.5792 233.807869 
L 708.8544 129.270573 
L 716.8896 124.476862 
L 723.5856 120.723826 
L 729.8352 117.475269 
L 735.6384 114.718668 
L 740.9952 112.425363 
L 745.9056 110.555491 
L 750.816 108.924236 
L 755.28 107.660031 
L 759.744 106.613364 
L 764.208 105.791577 
L 768.672 105.200434 
L 773.136 104.844081 
L 777.6 104.725019 
L 778.0464 104.72621 
L 778.0464 104.72621 
" style="fill:none;stroke:#1f77b4;stroke-linecap:square;stroke-width:6;"/>
   </g>
   <g id="line2d_10">
    <path clip-path="url(#p871b91abf2)" d="M 108 192 
L 777.6 192 
" style="fill:none;stroke:#000000;stroke-dasharray:3.2,0.8,0.5,0.8;stroke-dashoffset:0;stroke-width:0.5;"/>
   </g>
   <g id="line2d_11">
    <path clip-path="url(#p871b91abf2)" d="M 442.8 312 
L 442.8 72 
" style="fill:none;stroke:#000000;stroke-dasharray:3.2,0.8,0.5,0.8;stroke-dashoffset:0;stroke-width:0.5;"/>
   </g>
   <g id="patch_3">
    <path d="M 108 312 
L 108 72 
" style="fill:none;stroke:#000000;stroke-linecap:square;stroke-linejoin:miter;stroke-width:0.8;"/>
   </g>
   <g id="patch_4">
    <path d="M 777.6 312 
L 777.6 72 
" style="fill:none;stroke:#000000;stroke-linecap:square;stroke-linejoin:miter;stroke-width:0.8;"/>
   </g>
   <g id="patch_5">
    <path d="M 108 312 
L 777.6 312 
" style="fill:none;stroke:#000000;stroke-linecap:square;stroke-linejoin:miter;stroke-width:0.8;"/>
   </g>
   <g id="patch_6">
    <path d="M 108 72 
L 777.6 72 
" style="fill:none;stroke:#000000;stroke-linecap:square;stroke-linejoin:miter;stroke-width:0.8;"/>
   </g>
  </g>
  <g id="axes_2">
   <g id="patch_7">
    <path d="M 108 576 
L 777.6 576 
L 777.6 336 
L 108 336 
z
" style="fill:#ffffff;"/>
   </g>
   <g id="matplotlib.axis_3">
    <g id="xtick_6">
     <g id="line2d_12">
      <g>
       <use style="fill:#ffffff;stroke:#000000;stroke-width:0.8;" x="108" xlink:href="#me98b15f719" y="576"/>
      </g>
     </g>
     <g id="text_5">
      <!-- 0.00 -->
      <g transform="translate(81.75 603.489062)scale(0.3 -0.3)">
       <defs>
        <path d="M 18.09375 4.296875 
Q 18.09375 2.09375 16.4375 0.5 
Q 14.796875 -1.09375 12.5 -1.09375 
Q 10.203125 -1.09375 8.59375 0.5 
Q 7 2.09375 7 4.390625 
Q 7 6.703125 8.640625 8.34375 
Q 10.296875 10 12.59375 10 
Q 14.796875 10 16.4375 8.296875 
Q 18.09375 6.59375 18.09375 4.296875 
z
" id="STIXGeneral-Regular-46"/>
       </defs>
       <use xlink:href="#STIXGeneral-Regular-48"/>
       <use x="49.999985" xlink:href="#STIXGeneral-Regular-46"/>
       <use x="74.999969" xlink:href="#STIXGeneral-Regular-48"/>
       <use x="124.999954" xlink:href="#STIXGeneral-Regular-48"/>
      </g>
     </g>
    </g>
    <g id="xtick_7">
     <g id="line2d_13">
      <g>
       <use style="fill:#ffffff;stroke:#000000;stroke-width:0.8;" x="275.4" xlink:href="#me98b15f719" y="576"/>
      </g>
     </g>
     <g id="text_6">
      <!-- 0.25 -->
      <g transform="translate(249.15 603.489062)scale(0.3 -0.3)">
       <defs>
        <path d="M 47.40625 13.703125 
L 42 0 
L 2.90625 0 
L 2.90625 1.203125 
L 20.703125 20.09375 
Q 27.703125 27.40625 30.703125 33.5 
Q 33.703125 39.59375 33.703125 46.09375 
Q 33.703125 52.796875 30 56.5 
Q 26.296875 60.203125 19.796875 60.203125 
Q 14.40625 60.203125 11.25 57.390625 
Q 8.09375 54.59375 5.09375 47.203125 
L 3 47.703125 
Q 4.703125 57 9.84375 62.296875 
Q 15 67.59375 23.796875 67.59375 
Q 32.09375 67.59375 37.1875 62.59375 
Q 42.296875 57.59375 42.296875 50 
Q 42.296875 38.703125 29.5 25.203125 
L 13 7.59375 
L 36.40625 7.59375 
Q 39.703125 7.59375 41.640625 8.890625 
Q 43.59375 10.203125 46 14.296875 
z
" id="STIXGeneral-Regular-50"/>
        <path d="M 43.796875 68.09375 
L 40.203125 59.59375 
Q 39.59375 58.296875 37.5 58.296875 
L 18.09375 58.296875 
L 14.09375 49.796875 
Q 25.09375 47.703125 30 45.25 
Q 34.90625 42.796875 39.09375 37 
Q 42.59375 32.203125 42.59375 24.296875 
Q 42.59375 17.09375 40.25 12.1875 
Q 37.90625 7.296875 32.796875 3.5 
Q 26 -1.40625 15.796875 -1.40625 
Q 10.09375 -1.40625 6.59375 0.296875 
Q 3.09375 2 3.09375 4.796875 
Q 3.09375 8.59375 7.59375 8.59375 
Q 11.203125 8.59375 15 5.5 
Q 18.90625 2.296875 22.09375 2.296875 
Q 27.296875 2.296875 31.4375 7.5 
Q 35.59375 12.703125 35.59375 19.203125 
Q 35.59375 28.796875 28.90625 34.203125 
Q 20.203125 41.203125 7.59375 41.203125 
Q 6.40625 41.203125 6.40625 42 
L 6.5 42.5 
L 17.40625 66.203125 
L 38.09375 66.203125 
Q 39.796875 66.203125 40.75 66.703125 
Q 41.703125 67.203125 42.90625 68.796875 
z
" id="STIXGeneral-Regular-53"/>
       </defs>
       <use xlink:href="#STIXGeneral-Regular-48"/>
       <use x="49.999985" xlink:href="#STIXGeneral-Regular-46"/>
       <use x="74.999969" xlink:href="#STIXGeneral-Regular-50"/>
       <use x="124.999954" xlink:href="#STIXGeneral-Regular-53"/>
      </g>
     </g>
    </g>
    <g id="xtick_8">
     <g id="line2d_14">
      <g>
       <use style="fill:#ffffff;stroke:#000000;stroke-width:0.8;" x="442.8" xlink:href="#me98b15f719" y="576"/>
      </g>
     </g>
     <g id="text_7">
      <!-- 0.50 -->
      <g transform="translate(416.55 603.489062)scale(0.3 -0.3)">
       <use xlink:href="#STIXGeneral-Regular-48"/>
       <use x="49.999985" xlink:href="#STIXGeneral-Regular-46"/>
       <use x="74.999969" xlink:href="#STIXGeneral-Regular-53"/>
       <use x="124.999954" xlink:href="#STIXGeneral-Regular-48"/>
      </g>
     </g>
    </g>
    <g id="xtick_9">
     <g id="line2d_15">
      <g>
       <use style="fill:#ffffff;stroke:#000000;stroke-width:0.8;" x="610.2" xlink:href="#me98b15f719" y="576"/>
      </g>
     </g>
     <g id="text_8">
      <!-- 0.75 -->
      <g transform="translate(583.95 603.489062)scale(0.3 -0.3)">
       <defs>
        <path d="M 44.90625 64.59375 
L 23.703125 -0.796875 
L 17.203125 -0.796875 
L 37 58.796875 
L 15.5 58.796875 
Q 11.203125 58.796875 9.09375 57.296875 
Q 7 55.796875 3.796875 50.59375 
L 2 51.5 
L 8 66.203125 
L 44.90625 66.203125 
z
" id="STIXGeneral-Regular-55"/>
       </defs>
       <use xlink:href="#STIXGeneral-Regular-48"/>
       <use x="49.999985" xlink:href="#STIXGeneral-Regular-46"/>
       <use x="74.999969" xlink:href="#STIXGeneral-Regular-55"/>
       <use x="124.999954" xlink:href="#STIXGeneral-Regular-53"/>
      </g>
     </g>
    </g>
    <g id="xtick_10">
     <g id="line2d_16">
      <g>
       <use style="fill:#ffffff;stroke:#000000;stroke-width:0.8;" x="777.6" xlink:href="#me98b15f719" y="576"/>
      </g>
     </g>
     <g id="text_9">
      <!-- 1.00 -->
      <g transform="translate(751.35 603.489062)scale(0.3 -0.3)">
       <defs>
        <path d="M 39.40625 0 
L 11.796875 0 
L 11.796875 1.5 
Q 17.296875 1.796875 19.296875 3.546875 
Q 21.296875 5.296875 21.296875 9.5 
L 21.296875 54.40625 
Q 21.296875 59.296875 18.296875 59.296875 
Q 16.90625 59.296875 13.796875 58.09375 
L 11.09375 57.09375 
L 11.09375 58.5 
L 29 67.59375 
L 29.90625 67.296875 
L 29.90625 7.59375 
Q 29.90625 4.296875 31.90625 2.890625 
Q 33.90625 1.5 39.40625 1.5 
z
" id="STIXGeneral-Regular-49"/>
       </defs>
       <use xlink:href="#STIXGeneral-Regular-49"/>
       <use x="49.999985" xlink:href="#STIXGeneral-Regular-46"/>
       <use x="74.999969" xlink:href="#STIXGeneral-Regular-48"/>
       <use x="124.999954" xlink:href="#STIXGeneral-Regular-48"/>
      </g>
     </g>
    </g>
    <g id="text_10">
     <!-- $\^t$ -->
     <g transform="translate(438.6 634.489062)scale(0.3 -0.3)">
      <defs>
       <path d="M -7.5 50.703125 
L -10.90625 50.703125 
L -23.09375 61 
L -35.203125 50.703125 
L -38.59375 50.703125 
L -26.203125 67.40625 
L -20 67.40625 
z
" id="STIXGeneral-Regular-770"/>
       <path d="M 29.59375 42.796875 
L 29.09375 39.59375 
L 20.703125 39.59375 
L 12 6.796875 
Q 11.796875 6 11.796875 5.40625 
Q 11.796875 3.796875 13.296875 3.796875 
Q 14.5 3.796875 16.09375 5.34375 
Q 17.703125 6.90625 21.40625 11.703125 
L 22.703125 11 
Q 18.09375 4 15.140625 1.453125 
Q 12.203125 -1.09375 8.40625 -1.09375 
Q 3.796875 -1.09375 3.796875 2.59375 
Q 3.796875 3.59375 5.40625 10 
L 13.203125 39.59375 
L 5.703125 39.59375 
L 5.59375 40.203125 
Q 5.59375 42 8.90625 42.703125 
Q 11.40625 43.296875 15.5 46.546875 
Q 19.59375 49.796875 22.203125 53.703125 
Q 22.796875 54.59375 23.59375 54.59375 
Q 24.5 54.59375 24.5 53.796875 
Q 24.5 53.296875 24.40625 53.09375 
L 21.59375 42.796875 
z
" id="STIXGeneral-Italic-116"/>
      </defs>
      <use transform="translate(39.042969 16.59375)" xlink:href="#STIXGeneral-Regular-770"/>
      <use transform="translate(0 0.203125)" xlink:href="#STIXGeneral-Italic-116"/>
     </g>
    </g>
   </g>
   <g id="matplotlib.axis_4">
    <g id="ytick_4">
     <g id="line2d_17">
      <g>
       <use style="fill:#ffffff;stroke:#000000;stroke-width:0.8;" x="108" xlink:href="#md6f042c1be" y="539.076923"/>
      </g>
     </g>
     <g id="text_11">
      <!-- 45 -->
      <g transform="translate(71 549.321454)scale(0.3 -0.3)">
       <defs>
        <path d="M 47.296875 16.703125 
L 37 16.703125 
L 37 0 
L 29.203125 0 
L 29.203125 16.703125 
L 1.203125 16.703125 
L 1.203125 23.09375 
L 32.59375 67.59375 
L 37 67.59375 
L 37 23.09375 
L 47.296875 23.09375 
z
M 29.203125 23.09375 
L 29.203125 57.40625 
L 5.203125 23.09375 
z
" id="STIXGeneral-Regular-52"/>
       </defs>
       <use xlink:href="#STIXGeneral-Regular-52"/>
       <use x="49.999985" xlink:href="#STIXGeneral-Regular-53"/>
      </g>
     </g>
    </g>
    <g id="ytick_5">
     <g id="line2d_18">
      <g>
       <use style="fill:#ffffff;stroke:#000000;stroke-width:0.8;" x="108" xlink:href="#md6f042c1be" y="372.923077"/>
      </g>
     </g>
     <g id="text_12">
      <!-- 90 -->
      <g transform="translate(71 383.167608)scale(0.3 -0.3)">
       <defs>
        <path d="M 5.90625 -2.203125 
L 5.59375 -0.203125 
Q 17.09375 1.796875 25.046875 9.5 
Q 33 17.203125 36 29.40625 
Q 30.203125 23.703125 21 23.703125 
Q 12.90625 23.703125 7.953125 29.296875 
Q 3 34.90625 3 44 
Q 3 54.09375 8.953125 60.84375 
Q 14.90625 67.59375 23.796875 67.59375 
Q 33.296875 67.59375 39.5 60 
Q 45.90625 52 45.90625 39.40625 
Q 45.90625 30.59375 42.84375 22.84375 
Q 39.796875 15.09375 33.90625 9.703125 
Q 27.703125 4.09375 21.796875 1.640625 
Q 15.90625 -0.796875 5.90625 -2.203125 
z
M 36.203125 35.5 
L 36.203125 39.40625 
Q 36.203125 64.796875 23 64.796875 
Q 18.296875 64.796875 15.703125 61.40625 
Q 14.203125 59.40625 13.203125 55.40625 
Q 12.203125 51.40625 12.203125 47.40625 
Q 12.203125 38.5 15.546875 33.25 
Q 18.90625 28 24.5 28 
Q 28.5 28 32.34375 29.953125 
Q 36.203125 31.90625 36.203125 35.5 
z
" id="STIXGeneral-Regular-57"/>
       </defs>
       <use xlink:href="#STIXGeneral-Regular-57"/>
       <use x="49.999985" xlink:href="#STIXGeneral-Regular-48"/>
      </g>
     </g>
    </g>
    <g id="text_13">
     <!-- $\alpha$ -->
     <g transform="translate(60.489063 464.4)rotate(-90)scale(0.3 -0.3)">
      <defs>
       <path d="M 54.90625 42.796875 
L 40.703125 16.703125 
L 40.703125 14.90625 
Q 40.703125 11 41.59375 8 
Q 42.5 5 44.09375 5 
Q 46.40625 5 49.203125 12.40625 
L 50.796875 11.703125 
Q 47.09375 -0.90625 40.703125 -0.90625 
Q 35.796875 -0.90625 35.5 9.59375 
Q 26.703125 -1.09375 16.09375 -1.09375 
Q 9.203125 -1.09375 5.953125 3.09375 
Q 2.703125 7.296875 2.703125 14.09375 
Q 2.703125 20.203125 5.140625 26.140625 
Q 7.59375 32.09375 11.796875 36.40625 
Q 15.203125 39.796875 19.84375 41.9375 
Q 24.5 44.09375 29.09375 44.09375 
Q 35.09375 44.09375 38.390625 40.546875 
Q 41.703125 37 41.703125 32.203125 
L 46.296875 42.796875 
z
M 35.90625 27.203125 
Q 35.90625 42 28.203125 42 
Q 23 42 16.953125 32.796875 
Q 10.90625 23.59375 10.90625 12.5 
Q 10.90625 7.703125 12.59375 4.34375 
Q 14.296875 1 17.796875 1 
Q 25.09375 1 34.296875 20.09375 
Q 34.40625 20.703125 34.84375 22.046875 
Q 35.296875 23.40625 35.59375 24.703125 
Q 35.90625 26 35.90625 27.203125 
z
" id="STIXGeneral-Italic-945"/>
      </defs>
      <use transform="translate(0 0.90625)" xlink:href="#STIXGeneral-Italic-945"/>
     </g>
    </g>
   </g>
   <g id="line2d_19">
    <path clip-path="url(#p428051bf1b)" d="M 108 372.923077 
L 117.8208 411.475344 
L 123.1776 431.578138 
L 127.6416 447.467425 
L 131.6592 460.921447 
L 135.2304 472.102159 
L 138.3552 481.223376 
L 141.48 489.684484 
L 144.6048 497.454459 
L 147.2832 503.547767 
L 149.9616 509.109486 
L 152.64 514.137145 
L 155.3184 518.633664 
L 157.5504 521.980849 
L 159.7824 524.972447 
L 162.0144 527.618553 
L 164.2464 529.931684 
L 166.4784 531.926696 
L 168.7104 533.620672 
L 170.9424 535.03281 
L 173.1744 536.184283 
L 175.4064 537.098093 
L 177.6384 537.798908 
L 180.3168 538.395666 
L 182.9952 538.771121 
L 186.12 538.996119 
L 190.584 539.076275 
L 288.3456 539.076923 
L 365.1264 538.975171 
L 368.2512 538.72182 
L 370.9296 538.312893 
L 373.608 537.674549 
L 375.84 536.933182 
L 378.072 535.973763 
L 380.304 534.771941 
L 382.536 533.305068 
L 384.768 531.552354 
L 387 529.495016 
L 389.232 527.116404 
L 391.464 524.402125 
L 393.696 521.340138 
L 395.928 517.920843 
L 398.16 514.137145 
L 400.8384 509.109486 
L 403.5168 503.547767 
L 406.1952 497.454459 
L 408.8736 490.837401 
L 411.9984 482.473344 
L 415.1232 473.44418 
L 418.6944 462.360931 
L 422.2656 450.531629 
L 426.2832 436.438254 
L 430.7472 419.967589 
L 436.5504 397.621924 
L 442.8 372.923077 
L 452.6208 411.475344 
L 457.9776 431.578138 
L 462.4416 447.467425 
L 466.4592 460.921447 
L 470.0304 472.102159 
L 473.1552 481.223376 
L 476.28 489.684484 
L 479.4048 497.454459 
L 482.0832 503.547767 
L 484.7616 509.109486 
L 487.44 514.137145 
L 490.1184 518.633664 
L 492.3504 521.980849 
L 494.5824 524.972447 
L 496.8144 527.618553 
L 499.0464 529.931684 
L 501.2784 531.926696 
L 503.5104 533.620672 
L 505.7424 535.03281 
L 507.9744 536.184283 
L 510.2064 537.098093 
L 512.4384 537.798908 
L 515.1168 538.395666 
L 517.7952 538.771121 
L 520.92 538.996119 
L 525.384 539.076275 
L 623.1456 539.076923 
L 699.9264 538.975171 
L 703.0512 538.72182 
L 705.7296 538.312893 
L 708.408 537.674549 
L 710.64 536.933182 
L 712.872 535.973763 
L 715.104 534.771941 
L 717.336 533.305068 
L 719.568 531.552354 
L 721.8 529.495016 
L 724.032 527.116404 
L 726.264 524.402125 
L 728.496 521.340138 
L 730.728 517.920843 
L 732.96 514.137145 
L 735.6384 509.109486 
L 738.3168 503.547767 
L 740.9952 497.454459 
L 743.6736 490.837401 
L 746.7984 482.473344 
L 749.9232 473.44418 
L 753.4944 462.360931 
L 757.0656 450.531629 
L 761.0832 436.438254 
L 765.5472 419.967589 
L 771.3504 397.621924 
L 777.6 372.923077 
L 778.0464 374.695343 
L 778.0464 374.695343 
" style="fill:none;stroke:#1f77b4;stroke-linecap:square;stroke-width:6;"/>
   </g>
   <g id="line2d_20">
    <path clip-path="url(#p428051bf1b)" d="M 108 705.230769 
L 777.6 705.230769 
" style="fill:none;stroke:#000000;stroke-dasharray:3.2,0.8,0.5,0.8;stroke-dashoffset:0;stroke-width:0.5;"/>
   </g>
   <g id="line2d_21">
    <path clip-path="url(#p428051bf1b)" d="M 442.8 576 
L 442.8 336 
" style="fill:none;stroke:#000000;stroke-dasharray:3.2,0.8,0.5,0.8;stroke-dashoffset:0;stroke-width:0.5;"/>
   </g>
   <g id="line2d_22">
    <path clip-path="url(#p428051bf1b)" d="M 108 539.076923 
L 777.6 539.076923 
" style="fill:none;stroke:#000000;stroke-dasharray:3.2,0.8,0.5,0.8;stroke-dashoffset:0;stroke-width:0.5;"/>
   </g>
   <g id="patch_8">
    <path d="M 108 576 
L 108 336 
" style="fill:none;stroke:#000000;stroke-linecap:square;stroke-linejoin:miter;stroke-width:0.8;"/>
   </g>
   <g id="patch_9">
    <path d="M 777.6 576 
L 777.6 336 
" style="fill:none;stroke:#000000;stroke-linecap:square;stroke-linejoin:miter;stroke-width:0.8;"/>
   </g>
   <g id="patch_10">
    <path d="M 108 576 
L 777.6 576 
" style="fill:none;stroke:#000000;stroke-linecap:square;stroke-linejoin:miter;stroke-width:0.8;"/>
   </g>
   <g id="patch_11">
    <path d="M 108 336 
L 777.6 336 
" style="fill:none;stroke:#000000;stroke-linecap:square;stroke-linejoin:miter;stroke-width:0.8;"/>
   </g>
  </g>
 </g>
 <defs>
  <clipPath id="p871b91abf2">
   <rect height="240" width="669.6" x="108" y="72"/>
  </clipPath>
  <clipPath id="p428051bf1b">
   <rect height="240" width="669.6" x="108" y="336"/>
  </clipPath>
 </defs>
</svg>
