<?xml version="1.0" encoding="utf-8" standalone="no"?>
<!DOCTYPE svg PUBLIC "-//W3C//DTD SVG 1.1//EN"
  "http://www.w3.org/Graphics/SVG/1.1/DTD/svg11.dtd">
<!-- Created with matplotlib (https://matplotlib.org/) -->
<svg height="576pt" version="1.1" viewBox="0 0 720 576" width="720pt" xmlns="http://www.w3.org/2000/svg" xmlns:xlink="http://www.w3.org/1999/xlink">
 <defs>
  <style type="text/css">
*{stroke-linecap:butt;stroke-linejoin:round;}
  </style>
 </defs>
 <g id="figure_1">
  <g id="patch_1">
   <path d="M 0 576 
L 720 576 
L 720 0 
L 0 0 
z
" style="fill:#ffffff;"/>
  </g>
  <g id="axes_1">
   <g id="patch_2">
    <path d="M 72 256.457143 
L 684 256.457143 
L 684 28.8 
L 72 28.8 
z
" style="fill:#ffffff;"/>
   </g>
   <g id="matplotlib.axis_1">
    <g id="xtick_1">
     <g id="line2d_1">
      <defs>
       <path d="M 0 0 
L 0 3.5 
" id="m12532c5758" style="stroke:#000000;stroke-width:0.8;"/>
      </defs>
      <g>
       <use style="fill:#ffffff;stroke:#000000;stroke-width:0.8;" x="72" xlink:href="#m12532c5758" y="256.457143"/>
      </g>
     </g>
    </g>
    <g id="xtick_2">
     <g id="line2d_2">
      <g>
       <use style="fill:#ffffff;stroke:#000000;stroke-width:0.8;" x="148.5" xlink:href="#m12532c5758" y="256.457143"/>
      </g>
     </g>
    </g>
    <g id="xtick_3">
     <g id="line2d_3">
      <g>
       <use style="fill:#ffffff;stroke:#000000;stroke-width:0.8;" x="225" xlink:href="#m12532c5758" y="256.457143"/>
      </g>
     </g>
    </g>
    <g id="xtick_4">
     <g id="line2d_4">
      <g>
       <use style="fill:#ffffff;stroke:#000000;stroke-width:0.8;" x="301.5" xlink:href="#m12532c5758" y="256.457143"/>
      </g>
     </g>
    </g>
    <g id="xtick_5">
     <g id="line2d_5">
      <g>
       <use style="fill:#ffffff;stroke:#000000;stroke-width:0.8;" x="378" xlink:href="#m12532c5758" y="256.457143"/>
      </g>
     </g>
    </g>
    <g id="xtick_6">
     <g id="line2d_6">
      <g>
       <use style="fill:#ffffff;stroke:#000000;stroke-width:0.8;" x="454.5" xlink:href="#m12532c5758" y="256.457143"/>
      </g>
     </g>
    </g>
    <g id="xtick_7">
     <g id="line2d_7">
      <g>
       <use style="fill:#ffffff;stroke:#000000;stroke-width:0.8;" x="531" xlink:href="#m12532c5758" y="256.457143"/>
      </g>
     </g>
    </g>
    <g id="xtick_8">
     <g id="line2d_8">
      <g>
       <use style="fill:#ffffff;stroke:#000000;stroke-width:0.8;" x="607.5" xlink:href="#m12532c5758" y="256.457143"/>
      </g>
     </g>
    </g>
    <g id="xtick_9">
     <g id="line2d_9">
      <g>
       <use style="fill:#ffffff;stroke:#000000;stroke-width:0.8;" x="684" xlink:href="#m12532c5758" y="256.457143"/>
      </g>
     </g>
    </g>
   </g>
   <g id="matplotlib.axis_2">
    <g id="ytick_1">
     <g id="line2d_10">
      <defs>
       <path d="M 0 0 
L -3.5 0 
" id="m2be1167fe0" style="stroke:#000000;stroke-width:0.8;"/>
      </defs>
      <g>
       <use style="fill:#ffffff;stroke:#000000;stroke-width:0.8;" x="72" xlink:href="#m2be1167fe0" y="237.853548"/>
      </g>
     </g>
     <g id="text_1">
      <!-- −1 -->
      <defs>
       <path d="M 62.09375 22 
L 6.40625 22 
L 6.40625 28.59375 
L 62.09375 28.59375 
z
" id="STIXGeneral-Regular-8722"/>
       <path d="M 39.40625 0 
L 11.796875 0 
L 11.796875 1.5 
Q 17.296875 1.796875 19.296875 3.546875 
Q 21.296875 5.296875 21.296875 9.5 
L 21.296875 54.40625 
Q 21.296875 59.296875 18.296875 59.296875 
Q 16.90625 59.296875 13.796875 58.09375 
L 11.09375 57.09375 
L 11.09375 58.5 
L 29 67.59375 
L 29.90625 67.296875 
L 29.90625 7.59375 
Q 29.90625 4.296875 31.90625 2.890625 
Q 33.90625 1.5 39.40625 1.5 
z
" id="STIXGeneral-Regular-49"/>
      </defs>
      <g transform="translate(42.485 244.341752)scale(0.19 -0.19)">
       <use xlink:href="#STIXGeneral-Regular-8722"/>
       <use x="68.499985" xlink:href="#STIXGeneral-Regular-49"/>
      </g>
     </g>
    </g>
    <g id="ytick_2">
     <g id="line2d_11">
      <g>
       <use style="fill:#ffffff;stroke:#000000;stroke-width:0.8;" x="72" xlink:href="#m2be1167fe0" y="191.18273"/>
      </g>
     </g>
     <g id="text_2">
      <!-- 0 -->
      <defs>
       <path d="M 47.59375 33 
Q 47.59375 26.296875 46.296875 20.34375 
Q 45 14.40625 42.453125 9.40625 
Q 39.90625 4.40625 35.40625 1.5 
Q 30.90625 -1.40625 25 -1.40625 
Q 18.90625 -1.40625 14.296875 1.6875 
Q 9.703125 4.796875 7.203125 10 
Q 4.703125 15.203125 3.546875 21.09375 
Q 2.40625 27 2.40625 33.59375 
Q 2.40625 42.90625 4.703125 50.34375 
Q 7 57.796875 12.34375 62.6875 
Q 17.703125 67.59375 25.40625 67.59375 
Q 35.203125 67.59375 41.390625 58 
Q 47.59375 48.40625 47.59375 33 
z
M 38 32.5 
Q 38 48.296875 34.640625 56.640625 
Q 31.296875 65 24.796875 65 
Q 18.59375 65 15.296875 56.59375 
Q 12 48.203125 12 32.90625 
Q 12 17.5 15.296875 9.34375 
Q 18.59375 1.203125 25 1.203125 
Q 31.296875 1.203125 34.640625 9.34375 
Q 38 17.5 38 32.5 
z
" id="STIXGeneral-Regular-48"/>
      </defs>
      <g transform="translate(55.5 197.670933)scale(0.19 -0.19)">
       <use xlink:href="#STIXGeneral-Regular-48"/>
      </g>
     </g>
    </g>
    <g id="ytick_3">
     <g id="line2d_12">
      <g>
       <use style="fill:#ffffff;stroke:#000000;stroke-width:0.8;" x="72" xlink:href="#m2be1167fe0" y="144.511912"/>
      </g>
     </g>
     <g id="text_3">
      <!-- 1 -->
      <g transform="translate(55.5 151.000115)scale(0.19 -0.19)">
       <use xlink:href="#STIXGeneral-Regular-49"/>
      </g>
     </g>
    </g>
    <g id="ytick_4">
     <g id="line2d_13">
      <g>
       <use style="fill:#ffffff;stroke:#000000;stroke-width:0.8;" x="72" xlink:href="#m2be1167fe0" y="97.841093"/>
      </g>
     </g>
     <g id="text_4">
      <!-- 2 -->
      <defs>
       <path d="M 47.40625 13.703125 
L 42 0 
L 2.90625 0 
L 2.90625 1.203125 
L 20.703125 20.09375 
Q 27.703125 27.40625 30.703125 33.5 
Q 33.703125 39.59375 33.703125 46.09375 
Q 33.703125 52.796875 30 56.5 
Q 26.296875 60.203125 19.796875 60.203125 
Q 14.40625 60.203125 11.25 57.390625 
Q 8.09375 54.59375 5.09375 47.203125 
L 3 47.703125 
Q 4.703125 57 9.84375 62.296875 
Q 15 67.59375 23.796875 67.59375 
Q 32.09375 67.59375 37.1875 62.59375 
Q 42.296875 57.59375 42.296875 50 
Q 42.296875 38.703125 29.5 25.203125 
L 13 7.59375 
L 36.40625 7.59375 
Q 39.703125 7.59375 41.640625 8.890625 
Q 43.59375 10.203125 46 14.296875 
z
" id="STIXGeneral-Regular-50"/>
      </defs>
      <g transform="translate(55.5 104.329296)scale(0.19 -0.19)">
       <use xlink:href="#STIXGeneral-Regular-50"/>
      </g>
     </g>
    </g>
    <g id="ytick_5">
     <g id="line2d_14">
      <g>
       <use style="fill:#ffffff;stroke:#000000;stroke-width:0.8;" x="72" xlink:href="#m2be1167fe0" y="51.170275"/>
      </g>
     </g>
     <g id="text_5">
      <!-- 3 -->
      <defs>
       <path d="M 6.09375 51 
L 4.5 51.40625 
Q 6.796875 58.90625 11.6875 63.25 
Q 16.59375 67.59375 24.09375 67.59375 
Q 31.09375 67.59375 35.390625 63.796875 
Q 39.703125 60 39.703125 53.90625 
Q 39.703125 45.703125 30.40625 40.09375 
Q 35.90625 37.703125 38.703125 34.796875 
Q 43.09375 29.90625 43.09375 21.90625 
Q 43.09375 13.90625 38.5 7.90625 
Q 35.09375 3.296875 28.75 0.9375 
Q 22.40625 -1.40625 15.296875 -1.40625 
Q 4.09375 -1.40625 4.09375 4.296875 
Q 4.09375 5.90625 5.296875 6.90625 
Q 6.5 7.90625 8.203125 7.90625 
Q 10.703125 7.90625 14.296875 5.296875 
Q 18.703125 2.203125 22.90625 2.203125 
Q 28.40625 2.203125 32.15625 6.640625 
Q 35.90625 11.09375 35.90625 17.5 
Q 35.90625 29 25.5 32 
Q 22.40625 33 15.296875 33 
L 15.296875 34.40625 
Q 20.90625 36.296875 23.703125 38 
Q 31.796875 42.59375 31.796875 51.40625 
Q 31.796875 56.40625 28.9375 59 
Q 26.09375 61.59375 21 61.59375 
Q 12 61.59375 6.09375 51 
z
" id="STIXGeneral-Regular-51"/>
      </defs>
      <g transform="translate(55.5 57.658478)scale(0.19 -0.19)">
       <use xlink:href="#STIXGeneral-Regular-51"/>
      </g>
     </g>
    </g>
    <g id="text_6">
     <!-- $C_l$ -->
     <defs>
      <path d="M 68.90625 66.40625 
L 65.203125 46.40625 
L 63.40625 46.703125 
Q 61.59375 63 48.5 63 
Q 37.59375 63 28.59375 53.296875 
Q 23.296875 47.703125 20.546875 39.703125 
Q 17.796875 31.703125 17.796875 23.203125 
Q 17.796875 2.703125 35.296875 2.703125 
Q 41.5 2.703125 46.640625 5.296875 
Q 51.796875 7.90625 58.203125 14.59375 
L 60 13.09375 
Q 53.296875 5.203125 46.84375 1.703125 
Q 40.40625 -1.796875 32.703125 -1.796875 
Q 21 -1.796875 13.796875 5.140625 
Q 6.59375 12.09375 6.59375 24.296875 
Q 6.59375 34.59375 11.6875 43.9375 
Q 16.796875 53.296875 25.296875 59.296875 
Q 35.5 66.59375 47.203125 66.59375 
Q 54.09375 66.59375 58.90625 64.90625 
Q 60.90625 64.203125 63 64.203125 
Q 65.703125 64.203125 66.796875 66.40625 
z
" id="STIXGeneral-Italic-67"/>
      <path d="M 27.90625 67.796875 
L 12.59375 9.296875 
Q 11.796875 6.40625 11.796875 5 
Q 11.796875 3.203125 13.5 3.203125 
Q 16.203125 3.203125 20.203125 8.90625 
L 22.703125 12.40625 
L 24.09375 11.40625 
Q 19.59375 4.296875 16.34375 1.59375 
Q 13.09375 -1.09375 9 -1.09375 
Q 4.09375 -1.09375 4.09375 4.5 
Q 4.09375 6.203125 4.5 7.5 
L 18.203125 59.90625 
Q 18.5 60.90625 18.5 61.796875 
Q 18.5 64 13.59375 64 
L 11.796875 64 
L 11.796875 65.59375 
Q 18.796875 66.40625 27.296875 68.296875 
z
" id="STIXGeneral-Italic-108"/>
     </defs>
     <g transform="translate(34.361406 151.273571)rotate(-90)scale(0.19 -0.19)">
      <use transform="translate(0 0.40625)" xlink:href="#STIXGeneral-Italic-67"/>
      <use transform="translate(66.699997 -12.821875)scale(0.7)" xlink:href="#STIXGeneral-Italic-108"/>
     </g>
    </g>
   </g>
   <g id="line2d_15">
    <path clip-path="url(#p0590f93f61)" d="M 71.95104 190.348418 
L 72.83232 189.677576 
L 73.41984 188.961318 
L 74.00736 187.920774 
L 74.59488 186.42774 
L 75.1824 184.32295 
L 75.76992 181.428468 
L 76.35744 177.580787 
L 77.23872 169.862053 
L 78.41376 156.759866 
L 79.88256 140.6654 
L 80.76384 133.492359 
L 81.64512 128.506497 
L 82.23264 126.183685 
L 83.11392 123.770092 
L 83.9952 122.211318 
L 84.87648 121.152115 
L 86.05152 120.145458 
L 87.81408 118.964372 
L 89.28288 118.016554 
L 92.22048 115.62254 
L 93.68928 114.051898 
L 94.57056 112.901439 
L 95.15808 112.164758 
L 98.38944 106.885798 
L 100.73952 101.983195 
L 105.43968 90.286382 
L 106.61472 86.945877 
L 108.37728 81.915333 
L 109.25856 79.098914 
L 109.84608 77.41423 
L 110.72736 74.560676 
L 111.60864 71.793079 
L 116.60256 54.2322 
L 117.7776 49.883977 
L 118.95264 45.896991 
L 119.83392 42.998361 
L 121.30272 39.657334 
L 121.59648 39.539327 
L 121.89024 39.148052 
L 122.77152 39.978834 
L 123.35904 41.542808 
L 124.24032 46.441724 
L 125.1216 53.55408 
L 127.76544 74.771874 
L 128.64672 78.747314 
L 128.94048 79.460683 
L 129.23424 80.568314 
L 130.11552 82.311555 
L 130.40928 82.648398 
L 130.70304 83.2145 
L 130.9968 83.177116 
L 131.58432 83.72497 
L 131.87808 84.102055 
L 132.4656 84.275484 
L 132.75936 84.640084 
L 133.05312 84.49089 
L 133.34688 84.789837 
L 133.64064 84.76377 
L 134.81568 85.329092 
L 135.10944 85.262468 
L 135.4032 85.498022 
L 135.99072 85.470999 
L 136.28448 85.710706 
L 136.57824 85.626736 
L 136.872 85.828356 
L 137.16576 85.754258 
L 137.45952 85.986802 
L 137.75328 86.004722 
L 138.04704 85.851417 
L 138.3408 86.124304 
L 138.63456 86.082015 
L 138.92832 86.248621 
L 139.22208 86.267332 
L 139.51584 86.170718 
L 139.8096 86.465921 
L 140.10336 86.224382 
L 140.39712 86.549191 
L 140.69088 86.348042 
L 140.98464 86.407005 
L 141.2784 86.225606 
L 141.57216 86.371406 
L 141.86592 86.654399 
L 142.15968 86.527156 
L 142.45344 86.771701 
L 142.7472 86.555214 
L 143.04096 86.837902 
L 143.62848 86.689358 
L 143.92224 86.925099 
L 144.216 86.757915 
L 144.50976 86.946762 
L 144.80352 86.949729 
L 145.09728 86.780918 
L 145.39104 87.028878 
L 145.6848 86.841102 
L 145.97856 87.060865 
L 146.27232 86.910794 
L 146.56608 87.132682 
L 147.1536 87.00936 
L 147.44736 87.24379 
L 147.74112 87.05984 
L 148.03488 87.248187 
L 148.91616 87.348943 
L 149.20992 87.197325 
L 149.50368 87.447522 
L 149.79744 87.277038 
L 150.0912 87.498785 
L 150.67872 87.311002 
L 150.97248 87.428357 
L 151.26624 87.206964 
L 151.56 87.537493 
L 151.85376 87.331562 
L 152.14752 87.629405 
L 152.44128 87.647909 
L 152.73504 87.485642 
L 153.0288 87.720119 
L 153.32256 87.569765 
L 153.61632 87.774896 
L 154.20384 87.628769 
L 154.4976 87.803445 
L 154.79136 87.600138 
L 155.08512 87.806607 
L 155.37888 87.637288 
L 155.67264 87.834444 
L 156.26016 87.725654 
L 156.55392 87.941463 
L 156.84768 87.695898 
L 157.14144 87.925358 
L 157.4352 87.775116 
L 157.72896 87.948158 
L 158.31648 87.824338 
L 158.61024 88.034905 
L 158.904 87.816093 
L 159.19776 87.985721 
L 159.78528 87.81752 
L 160.07904 88.062329 
L 160.3728 87.832649 
L 160.66656 88.036722 
L 160.96032 87.80539 
L 161.25408 87.985984 
L 161.8416 87.709683 
L 162.13536 87.91243 
L 162.42912 87.74764 
L 162.72288 88.088721 
L 163.01664 87.875636 
L 163.3104 88.073439 
L 163.60416 88.107264 
L 163.89792 87.968287 
L 164.19168 88.08172 
L 164.48544 87.901885 
L 164.7792 88.112593 
L 165.36672 87.91876 
L 165.66048 88.083052 
L 165.95424 87.916824 
L 166.248 88.097589 
L 166.54176 87.8635 
L 166.83552 88.162056 
L 167.12928 88.111503 
L 167.42304 87.945157 
L 167.7168 88.041582 
L 168.01056 87.866608 
L 168.30432 88.058615 
L 168.59808 87.909777 
L 168.89184 88.049377 
L 169.47936 87.879695 
L 169.77312 88.085382 
L 170.06688 87.92324 
L 170.36064 88.071952 
L 170.94816 87.886029 
L 171.24192 88.100557 
L 171.53568 87.920353 
L 171.82944 88.065707 
L 172.1232 87.888296 
L 172.41696 88.010136 
L 173.00448 87.87015 
L 173.29824 88.043492 
L 173.592 87.847385 
L 173.88576 88.013736 
L 174.76704 88.049759 
L 175.0608 87.886765 
L 175.35456 88.08491 
L 175.64832 87.898203 
L 175.94208 88.11263 
L 176.5296 87.88214 
L 176.82336 88.104198 
L 177.11712 87.879634 
L 177.41088 88.063328 
L 177.70464 87.869234 
L 177.9984 88.024965 
L 178.58592 87.890206 
L 178.87968 88.076787 
L 179.17344 87.889276 
L 179.4672 88.078255 
L 180.05472 87.900349 
L 180.34848 88.080039 
L 180.64224 87.931785 
L 180.936 88.066204 
L 181.22976 87.902391 
L 181.52352 88.065772 
L 182.11104 87.894607 
L 182.4048 88.078067 
L 182.69856 87.886878 
L 182.99232 88.087513 
L 183.28608 87.902406 
L 183.57984 88.103761 
L 183.8736 87.993898 
L 184.16736 88.108274 
L 184.46112 87.74275 
L 184.75488 88.142484 
L 185.04864 87.715971 
L 185.3424 88.202613 
L 185.63616 87.539642 
L 185.92992 88.30694 
L 186.22368 87.659429 
L 186.51744 88.372403 
L 186.8112 87.639857 
L 187.10496 88.383655 
L 187.39872 87.716855 
L 187.69248 88.141874 
L 187.98624 87.765297 
L 188.28 88.139102 
L 188.57376 87.732924 
L 188.86752 88.108598 
L 189.16128 87.735368 
L 189.45504 88.236734 
L 189.7488 87.588287 
L 190.04256 88.320574 
L 190.33632 87.579152 
L 190.63008 88.305618 
L 190.92384 87.689574 
L 191.2176 88.13148 
L 191.51136 87.749389 
L 191.80512 88.150861 
L 192.09888 87.746109 
L 192.39264 88.118869 
L 192.6864 87.763841 
L 192.98016 88.232149 
L 193.27392 87.569675 
L 193.56768 88.333232 
L 193.86144 87.620629 
L 194.1552 88.324658 
L 194.44896 87.601914 
L 194.74272 88.327517 
L 195.03648 87.660172 
L 195.33024 88.108498 
L 195.624 87.733992 
L 195.91776 88.143817 
L 196.21152 87.744151 
L 196.50528 88.226444 
L 196.79904 87.579119 
L 197.0928 88.303495 
L 197.38656 87.591923 
L 197.68032 88.297826 
L 197.97408 87.565054 
L 198.26784 88.28293 
L 198.5616 87.688328 
L 198.85536 88.081771 
L 199.14912 88.03424 
L 199.44288 87.56821 
L 199.73664 88.368166 
L 200.0304 87.741017 
L 200.32416 88.235902 
L 200.61792 87.877053 
L 200.91168 88.252233 
L 201.20544 87.847128 
L 201.4992 88.230323 
L 201.79296 87.845836 
L 202.08672 88.329449 
L 202.38048 87.677133 
L 202.67424 88.380135 
L 202.968 87.70551 
L 203.26176 88.465331 
L 203.55552 87.748254 
L 203.84928 88.459758 
L 204.14304 87.851276 
L 204.4368 88.311395 
L 204.73056 87.943432 
L 205.02432 88.333552 
L 205.31808 87.949497 
L 205.61184 88.44901 
L 205.9056 87.809972 
L 206.19936 88.536542 
L 206.49312 87.85934 
L 206.78688 88.571828 
L 207.08064 87.855093 
L 207.3744 88.573594 
L 207.66816 87.984385 
L 207.96192 88.435137 
L 208.25568 88.082437 
L 208.54944 88.484621 
L 208.8432 88.102732 
L 209.13696 88.488599 
L 209.43072 88.108701 
L 209.72448 88.614853 
L 210.01824 87.978854 
L 210.312 88.669904 
L 210.60576 88.022478 
L 210.89952 88.766808 
L 211.19328 88.187778 
L 211.48704 88.638491 
L 211.7808 88.263017 
L 212.07456 88.658988 
L 212.36832 88.277032 
L 212.66208 88.662935 
L 212.95584 88.342379 
L 213.2496 88.902463 
L 213.54336 88.226294 
L 213.83712 88.952075 
L 214.13088 88.273326 
L 214.42464 88.961378 
L 214.7184 88.288241 
L 215.01216 88.997896 
L 215.30592 88.410806 
L 215.59968 88.855925 
L 215.89344 88.505877 
L 216.1872 88.909548 
L 216.48096 88.547078 
L 216.77472 89.013494 
L 217.06848 88.373659 
L 217.36224 89.113674 
L 217.656 88.440628 
L 217.94976 89.150046 
L 218.24352 88.47793 
L 218.53728 89.175532 
L 218.83104 88.548869 
L 219.1248 89.025575 
L 219.41856 89.075749 
L 219.71232 88.589765 
L 220.00608 89.333611 
L 220.29984 88.747199 
L 220.5936 89.205588 
L 220.88736 88.88133 
L 221.18112 89.297074 
L 221.47488 88.931067 
L 221.76864 89.278346 
L 222.0624 88.928927 
L 222.35616 89.453396 
L 222.64992 88.816529 
L 222.94368 89.538771 
L 223.23744 88.884986 
L 223.5312 89.594023 
L 223.82496 88.921921 
L 224.11872 89.637747 
L 224.41248 89.071016 
L 224.70624 89.482649 
L 225 89.137814 
L 225.29376 89.550872 
L 225.58752 89.201325 
L 225.88128 89.702147 
L 226.17504 89.094182 
L 226.4688 89.816618 
L 226.76256 89.155781 
L 227.05632 89.860241 
L 227.35008 89.222459 
L 227.64384 89.902623 
L 227.9376 89.338646 
L 228.23136 89.777917 
L 228.52512 89.455368 
L 228.81888 89.845116 
L 229.11264 89.509544 
L 229.4064 89.885813 
L 229.70016 89.550851 
L 229.99392 90.04652 
L 230.28768 89.452236 
L 230.58144 90.166453 
L 230.8752 89.51969 
L 231.16896 90.218838 
L 231.46272 89.667327 
L 231.75648 90.10072 
L 232.05024 89.776041 
L 232.344 90.184589 
L 232.63776 89.827926 
L 232.93152 90.247493 
L 233.22528 89.905325 
L 233.51904 90.421633 
L 233.8128 89.795298 
L 234.10656 90.498356 
L 234.40032 89.846285 
L 234.69408 90.547297 
L 234.98784 89.946343 
L 235.2816 90.665422 
L 235.57536 90.141033 
L 235.86912 90.570011 
L 236.16288 90.242779 
L 236.45664 90.626011 
L 236.7504 90.284926 
L 237.04416 90.772434 
L 237.33792 90.176086 
L 237.63168 90.853025 
L 237.92544 90.253142 
L 238.2192 90.937391 
L 238.51296 90.293593 
L 238.80672 90.950778 
L 239.10048 90.738594 
L 239.39424 90.344824 
L 239.688 91.121509 
L 239.98176 90.614606 
L 240.27552 91.312674 
L 240.56928 90.677822 
L 240.86304 91.32275 
L 241.1568 90.799782 
L 241.45056 91.326925 
L 241.74432 91.018954 
L 242.03808 91.420119 
L 242.33184 91.081233 
L 242.6256 91.575098 
L 242.91936 91.003293 
L 243.21312 91.736536 
L 243.50688 91.108272 
L 243.80064 91.791443 
L 244.0944 91.200736 
L 244.38816 91.889262 
L 244.68192 91.364867 
L 244.97568 91.806097 
L 245.26944 91.496497 
L 245.5632 91.922191 
L 245.85696 91.580105 
L 246.15072 92.107632 
L 246.44448 91.529061 
L 246.73824 92.235155 
L 247.032 91.634377 
L 247.32576 92.366064 
L 247.61952 91.777773 
L 247.91328 92.470446 
L 248.20704 91.984753 
L 248.5008 92.421513 
L 248.79456 92.119459 
L 249.08832 92.524247 
L 249.38208 92.193363 
L 249.67584 92.606447 
L 249.9696 92.307948 
L 250.26336 92.82246 
L 250.55712 92.27398 
L 250.85088 92.990308 
L 251.14464 92.426356 
L 251.4384 93.120417 
L 251.73216 92.629964 
L 252.02592 93.086863 
L 252.31968 92.801873 
L 252.61344 93.235057 
L 252.9072 92.939172 
L 253.20096 93.368681 
L 253.49472 93.056158 
L 253.78848 93.582141 
L 254.08224 93.036934 
L 254.376 93.750537 
L 254.66976 93.188056 
L 254.96352 93.898442 
L 255.25728 93.323954 
L 255.55104 94.021635 
L 255.8448 93.532617 
L 256.13856 93.989432 
L 256.43232 93.716343 
L 256.72608 94.156988 
L 257.01984 93.860403 
L 257.3136 94.373069 
L 257.60736 93.839132 
L 257.90112 94.55344 
L 258.19488 94.002505 
L 258.48864 94.703745 
L 258.7824 94.157555 
L 259.07616 94.840396 
L 259.36992 94.708507 
L 259.66368 94.301458 
L 259.95744 95.078711 
L 260.2512 94.523049 
L 260.54496 95.23967 
L 260.83872 94.66434 
L 261.13248 95.35731 
L 261.42624 94.959799 
L 261.72 95.515205 
L 262.01376 95.249802 
L 262.30752 95.671709 
L 262.60128 95.378101 
L 262.89504 95.918443 
L 263.1888 95.446342 
L 263.48256 96.19232 
L 263.77632 95.658827 
L 264.07008 96.337958 
L 264.36384 95.777961 
L 264.6576 96.461177 
L 264.95136 96.0192 
L 265.24512 96.493197 
L 265.53888 96.243563 
L 265.83264 96.673185 
L 266.1264 96.417586 
L 266.42016 96.864136 
L 266.71392 96.604624 
L 267.00768 97.130379 
L 267.30144 96.62933 
L 267.5952 97.35445 
L 267.88896 96.846442 
L 268.18272 97.539856 
L 268.47648 97.106437 
L 268.77024 97.573695 
L 269.064 97.333476 
L 269.35776 97.771779 
L 269.65152 97.514791 
L 269.94528 97.968547 
L 270.23904 97.732257 
L 270.5328 98.258766 
L 270.82656 97.772566 
L 271.12032 98.501117 
L 271.41408 97.994779 
L 271.70784 98.689383 
L 272.0016 98.256809 
L 272.29536 98.734581 
L 272.58912 98.506615 
L 272.88288 98.958074 
L 273.17664 98.691266 
L 273.4704 99.15979 
L 273.76416 98.910504 
L 274.05792 99.44017 
L 274.35168 98.95464 
L 274.64544 99.68601 
L 274.9392 99.192901 
L 275.23296 99.91295 
L 275.52672 99.411961 
L 275.82048 100.114875 
L 276.11424 99.693632 
L 276.408 100.170572 
L 276.70176 99.974441 
L 276.99552 100.41342 
L 277.28928 100.170658 
L 277.58304 100.701678 
L 277.8768 100.251122 
L 278.17056 100.973701 
L 278.46432 100.481417 
L 278.75808 101.189983 
L 279.05184 100.692452 
L 279.3456 101.377475 
L 279.63936 101.31674 
L 279.93312 100.937361 
L 280.22688 101.750386 
L 280.52064 101.247601 
L 280.8144 101.957883 
L 281.10816 101.481776 
L 281.40192 102.218776 
L 281.69568 101.824715 
L 281.98944 102.291897 
L 282.2832 102.081489 
L 282.57696 102.522465 
L 282.87072 102.285314 
L 283.16448 102.804252 
L 283.45824 102.379742 
L 283.752 103.167041 
L 284.04576 102.706626 
L 284.33952 103.40586 
L 284.63328 102.916739 
L 284.92704 103.598203 
L 285.2208 103.260929 
L 285.51456 103.743136 
L 285.80832 103.540489 
L 286.10208 104.000548 
L 286.39584 103.780013 
L 286.6896 104.241025 
L 286.98336 104.022613 
L 287.27712 104.571916 
L 287.57088 104.133219 
L 287.86464 104.82058 
L 288.1584 104.346553 
L 288.45216 105.040448 
L 288.74592 104.673611 
L 289.03968 105.127901 
L 289.33344 104.939336 
L 289.6272 105.413238 
L 289.92096 105.208218 
L 290.21472 105.653596 
L 290.50848 105.434946 
L 290.80224 105.98442 
L 291.096 105.547278 
L 291.38976 106.276909 
L 291.68352 105.846441 
L 291.97728 106.544935 
L 292.27104 106.173796 
L 292.5648 106.661099 
L 292.85856 106.479011 
L 293.15232 106.939812 
L 293.44608 106.737756 
L 293.73984 107.190333 
L 294.0336 106.98875 
L 294.32736 107.541935 
L 294.62112 107.116493 
L 294.91488 107.854122 
L 295.20864 107.411259 
L 295.5024 108.111155 
L 295.79616 107.680218 
L 296.08992 108.370745 
L 296.38368 108.018489 
L 296.67744 108.501743 
L 296.9712 108.328518 
L 297.26496 108.788881 
L 297.55872 108.621102 
L 297.85248 109.181547 
L 298.14624 108.75647 
L 298.44 109.486464 
L 298.73376 109.059392 
L 299.02752 109.771129 
L 299.32128 109.352415 
L 299.61504 110.038568 
L 299.9088 110.032436 
L 300.20256 109.686656 
L 300.49632 110.497294 
L 300.79008 110.068486 
L 301.08384 110.775951 
L 301.3776 110.357845 
L 301.67136 111.068332 
L 301.96512 110.757999 
L 302.25888 111.22939 
L 302.55264 111.078801 
L 302.8464 111.537439 
L 303.14016 111.365733 
L 303.43392 111.938806 
L 303.72768 111.533694 
L 304.02144 112.27808 
L 304.3152 111.875496 
L 304.60896 112.573666 
L 304.90272 112.171935 
L 305.19648 112.900014 
L 305.49024 112.615756 
L 305.784 113.110201 
L 306.07776 112.946836 
L 306.37152 113.471595 
L 306.66528 113.317173 
L 306.95904 113.797391 
L 307.2528 113.635662 
L 307.54656 114.208321 
L 307.84032 113.825715 
L 308.13408 114.565363 
L 308.42784 114.174787 
L 308.7216 114.888048 
L 309.01536 114.612846 
L 309.30912 115.120516 
L 309.60288 114.982053 
L 309.89664 115.461108 
L 310.1904 115.637919 
L 310.48416 115.318119 
L 310.77792 116.138721 
L 311.07168 115.825975 
L 311.36544 116.283385 
L 311.6592 116.495246 
L 311.95296 116.177713 
L 312.24672 116.97316 
L 312.83424 116.861489 
L 313.128 117.508639 
L 313.42176 117.463151 
L 313.71552 117.708247 
L 314.00928 117.785808 
L 314.30304 118.395004 
L 314.5968 118.03074 
L 314.89056 118.502519 
L 315.18432 118.714783 
L 315.47808 118.697382 
L 315.77184 119.298344 
L 316.0656 119.165978 
L 316.35936 119.695243 
L 316.65312 119.682626 
L 316.94688 119.955986 
L 317.24064 120.686114 
L 317.5344 120.2611 
L 317.82816 121.278829 
L 318.12192 121.140715 
L 318.41568 121.300814 
L 318.70944 122.299752 
L 319.0032 121.964918 
L 319.59072 123.532008 
L 319.88448 123.586509 
L 320.17824 124.468207 
L 320.472 124.986896 
L 320.76576 126.176402 
L 321.05952 126.722845 
L 321.64704 128.92858 
L 323.11584 138.326673 
L 323.99712 146.8684 
L 327.22848 186.486629 
L 328.99104 199.051169 
L 329.2848 200.9667 
L 330.16608 204.4979 
L 330.7536 206.98923 
L 331.04736 207.877899 
L 331.34112 209.171337 
L 331.63488 209.680028 
L 332.51616 212.565341 
L 332.80992 213.200812 
L 333.10368 214.355461 
L 333.39744 214.919047 
L 334.57248 218.418926 
L 334.86624 218.725347 
L 335.45376 220.476488 
L 336.04128 221.847138 
L 336.33504 222.471763 
L 336.6288 223.553561 
L 337.21632 224.505279 
L 337.51008 225.565276 
L 337.80384 225.986219 
L 339.86016 230.575982 
L 340.15392 231.398065 
L 340.74144 232.158967 
L 341.91648 234.730084 
L 342.21024 234.818467 
L 342.504 236.026656 
L 342.79776 235.916862 
L 343.09152 236.758592 
L 343.38528 237.087639 
L 343.67904 237.812214 
L 343.9728 237.781715 
L 344.26656 238.816965 
L 344.56032 238.781656 
L 345.14784 239.806556 
L 345.4416 240.356972 
L 346.02912 240.864989 
L 346.32288 241.482592 
L 346.61664 241.416112 
L 346.9104 242.387262 
L 347.20416 242.208045 
L 347.79168 243.292623 
L 348.08544 242.982024 
L 348.67296 244.093447 
L 348.96672 243.701662 
L 349.55424 244.747094 
L 349.848 244.357388 
L 350.14176 244.954949 
L 350.43552 245.299444 
L 350.72928 244.93924 
L 351.3168 245.743393 
L 351.61056 245.55963 
L 351.90432 245.553758 
L 352.19808 245.660706 
L 352.49184 245.968174 
L 353.07936 245.764263 
L 353.37312 246.109091 
L 353.66688 245.915344 
L 353.96064 246.048137 
L 354.84192 245.789984 
L 355.13568 246.007382 
L 355.42944 245.722313 
L 355.7232 245.867529 
L 356.31072 245.418445 
L 356.60448 245.267621 
L 356.89824 245.443938 
L 357.192 245.103383 
L 357.48576 245.179212 
L 358.36704 244.223985 
L 358.6608 244.705713 
L 358.95456 244.319025 
L 359.24832 244.238092 
L 359.54208 243.553201 
L 359.83584 243.977242 
L 360.42336 242.792261 
L 360.71712 243.27829 
L 361.30464 242.395328 
L 361.5984 242.483237 
L 361.89216 241.772143 
L 362.18592 241.849291 
L 362.77344 241.071838 
L 363.0672 240.924133 
L 363.36096 240.99959 
L 363.65472 240.007619 
L 363.94848 240.317452 
L 364.24224 239.52399 
L 364.536 239.381987 
L 364.82976 238.991255 
L 365.12352 238.800779 
L 366.29856 236.959547 
L 366.88608 235.853164 
L 367.17984 235.290485 
L 368.06112 232.680277 
L 368.64864 230.410198 
L 369.82368 223.520657 
L 370.11744 221.606529 
L 372.17376 198.923973 
L 373.3488 184.713672 
L 374.23008 175.951439 
L 375.11136 169.642604 
L 375.40512 168.235051 
L 375.69888 166.098011 
L 375.99264 165.349076 
L 376.2864 163.830659 
L 376.58016 163.12837 
L 377.46144 160.447019 
L 377.7552 159.991306 
L 378.04896 159.155465 
L 378.34272 158.901422 
L 378.63648 158.494608 
L 378.93024 157.559423 
L 379.51776 157.134524 
L 380.10528 155.871544 
L 380.39904 155.9809 
L 380.6928 155.362052 
L 380.98656 155.155916 
L 381.57408 154.286309 
L 381.86784 154.282292 
L 382.45536 153.478563 
L 382.74912 153.188587 
L 383.04288 153.270348 
L 383.33664 152.591741 
L 383.6304 152.494583 
L 383.92416 151.900452 
L 384.21792 151.979296 
L 385.39296 150.892434 
L 385.68672 150.337713 
L 385.98048 150.52625 
L 387.15552 149.537593 
L 389.5056 148.152164 
L 390.9744 147.475092 
L 393.32448 146.872599 
L 394.20576 146.678572 
L 395.3808 146.504865 
L 395.67456 146.79682 
L 395.96832 146.117786 
L 396.26208 146.540106 
L 396.55584 146.626821 
L 396.8496 146.511731 
L 400.08096 147.003133 
L 401.54976 147.425823 
L 404.1936 148.637871 
L 408.01248 150.905008 
L 409.18752 151.743084 
L 412.71264 154.537308 
L 420.93792 162.108943 
L 424.16928 165.296428 
L 425.63808 166.781751 
L 430.92576 171.762241 
L 432.68832 173.347316 
L 434.74464 175.243836 
L 442.3824 181.56348 
L 451.78272 188.488699 
L 454.42656 190.321021 
L 457.0704 192.096957 
L 462.06432 195.21875 
L 470.2896 199.606541 
L 472.93344 200.819974 
L 475.87104 202.098265 
L 482.33376 204.421916 
L 488.50272 206.134971 
L 494.67168 207.345602 
L 500.54688 207.997377 
L 504.95328 208.236536 
L 513.17856 208.211293 
L 517.2912 208.004821 
L 522.87264 207.598041 
L 550.19232 204.498395 
L 559.29888 203.369136 
L 563.41152 202.867789 
L 567.81792 202.352677 
L 591.31872 199.940663 
L 600.13152 199.207847 
L 603.06912 198.976085 
L 623.33856 197.70532 
L 651.83328 196.467055 
L 663.28992 196.095289 
L 665.64 196.013821 
L 681.50304 195.579603 
L 684.14688 195.511199 
L 684.14688 195.511199 
" style="fill:none;stroke:#1f77b4;stroke-linecap:square;stroke-width:3;"/>
   </g>
   <g id="line2d_16">
    <path clip-path="url(#p0590f93f61)" d="M 71.697841 191.18273 
L 72.619682 188.639361 
L 73.541523 185.587319 
L 74.463364 183.04395 
L 75.385205 179.991907 
L 76.307046 173.887822 
L 77.228887 166.257715 
L 79.072569 142.858722 
L 79.99441 135.737289 
L 80.916251 127.598509 
L 82.759933 115.899012 
L 87.369138 122.003097 
L 90.134661 132.176573 
L 91.056502 126.581161 
L 93.822025 119.968402 
L 97.509389 113.864317 
L 100.274912 107.760232 
L 102.118594 99.621451 
L 104.884117 92.500019 
L 108.571481 94.534714 
L 110.415163 85.378586 
L 111.337004 77.748479 
L 113.180686 68.083678 
L 116.86805 55.875507 
L 121.477255 53.332138 
L 127.008301 65.031635 
L 130.695665 84.869912 
L 135.30487 88.939302 
L 138.992234 85.88726 
L 140.835916 79.274501 
L 144.52328 77.748479 
L 150.054326 86.395933 
L 155.585372 84.361238 
L 162.038259 80.800522 
L 168.491146 75.20511 
L 169.412987 71.644394 
L 174.022192 71.644394 
L 174.944033 76.731132 
L 177.709556 84.869912 
L 183.240603 81.309196 
L 187.849808 85.88726 
L 191.537172 80.800522 
L 195.224536 73.679089 
L 205.364787 77.239805 
L 216.426879 82.835217 
L 226.56713 89.447976 
L 234.863699 89.447976 
L 238.551063 85.88726 
L 245.925791 82.835217 
L 253.300519 84.361238 
L 256.987883 88.939302 
L 262.518929 88.430628 
L 267.128134 94.02604 
L 271.737339 91.991345 
L 277.268385 98.604104 
L 282.799431 107.760232 
L 290.174159 113.355643 
L 299.392569 112.338296 
L 306.767297 117.933707 
L 312.298343 125.05514 
L 318.75123 132.176573 
L 320.594912 140.824027 
L 321.516753 149.471481 
L 323.360435 160.15363 
L 324.282276 173.887822 
L 327.96964 196.778141 
L 331.657004 196.269468 
L 335.344368 203.3909 
L 338.109891 213.055702 
L 342.719096 213.055702 
L 348.250142 219.668461 
L 352.859347 217.633766 
L 356.546711 222.720504 
L 360.234075 231.367958 
L 362.999598 225.772546 
L 367.608803 217.633766 
L 369.452485 207.460291 
L 371.296167 184.061297 
L 374.983531 170.327105 
L 376.827213 160.662304 
L 378.670895 154.049545 
L 383.2801 151.506176 
L 388.811146 154.049545 
L 393.420351 150.997502 
L 399.873238 157.101587 
L 409.091649 157.610261 
L 415.544536 172.3618 
L 426.606628 184.061297 
L 430.293992 182.026602 
L 433.981356 181.517928 
L 437.66872 186.095992 
L 453.340017 193.217425 
L 461.636586 192.200078 
L 468.089473 194.743446 
L 473.620519 193.217425 
L 478.229724 194.743446 
L 487.448134 193.217425 
L 494.822862 196.778141 
L 499.432067 194.234773 
L 504.963113 197.795489 
L 510.494159 196.269468 
L 515.103364 198.812837 
L 521.556251 197.286815 
L 528.009138 198.812837 
L 536.305707 199.32151 
L 550.133322 199.32151 
L 560.273573 201.356205 
L 571.335665 201.864879 
L 576.866711 200.847532 
L 584.241439 201.356205 
L 588.850644 199.830184 
L 602.678259 199.32151 
L 616.505874 197.286815 
L 629.411649 196.269468 
L 644.161105 195.760794 
L 681.956586 197.795489 
L 698.549724 197.795489 
L 715.142862 198.304163 
L 721 197.92393 
L 721 197.92393 
" style="fill:none;stroke:#ff7f0e;stroke-linecap:square;stroke-width:3;"/>
   </g>
   <g id="line2d_17">
    <path clip-path="url(#p0590f93f61)" d="M 378 256.457143 
L 378 28.8 
" style="fill:none;stroke:#000000;stroke-linecap:square;stroke-width:0.5;"/>
   </g>
   <g id="line2d_18">
    <path clip-path="url(#p0590f93f61)" d="M 72 191.18273 
L 684 191.18273 
" style="fill:none;stroke:#000000;stroke-dasharray:3.2,0.8,0.5,0.8;stroke-dashoffset:0;stroke-width:0.5;"/>
   </g>
   <g id="patch_3">
    <path d="M 72 256.457143 
L 72 28.8 
" style="fill:none;stroke:#000000;stroke-linecap:square;stroke-linejoin:miter;stroke-width:0.8;"/>
   </g>
   <g id="patch_4">
    <path d="M 684 256.457143 
L 684 28.8 
" style="fill:none;stroke:#000000;stroke-linecap:square;stroke-linejoin:miter;stroke-width:0.8;"/>
   </g>
   <g id="patch_5">
    <path d="M 72 256.457143 
L 684 256.457143 
" style="fill:none;stroke:#000000;stroke-linecap:square;stroke-linejoin:miter;stroke-width:0.8;"/>
   </g>
   <g id="patch_6">
    <path d="M 72 28.8 
L 684 28.8 
" style="fill:none;stroke:#000000;stroke-linecap:square;stroke-linejoin:miter;stroke-width:0.8;"/>
   </g>
   <g id="legend_1">
    <g id="line2d_19">
     <path d="M 446.69 52.55 
L 484.69 52.55 
" style="fill:none;stroke:#1f77b4;stroke-linecap:square;stroke-width:3;"/>
    </g>
    <g id="line2d_20"/>
    <g id="text_7">
     <!-- Current CFD, $\alpha = 45 ^\circ$ -->
     <defs>
      <path d="M 61.40625 13.09375 
L 63.296875 11.296875 
Q 54.40625 -1.40625 36 -1.40625 
Q 21.5 -1.40625 12.40625 7.5 
Q 2.796875 16.90625 2.796875 32.5 
Q 2.796875 47.09375 11.796875 57.203125 
Q 21.203125 67.59375 36.09375 67.59375 
Q 42.5 67.59375 48 66.09375 
Q 54.296875 64.296875 54.90625 64.296875 
Q 58.203125 64.296875 59.09375 67.59375 
L 61.09375 67.59375 
L 62 44.90625 
L 59.703125 44.90625 
Q 58.09375 52.09375 54.5 56 
Q 47.40625 63.59375 38.40625 63.59375 
Q 27.296875 63.59375 20.84375 55.4375 
Q 14.40625 47.296875 14.40625 34.09375 
Q 14.40625 18 21.59375 10.203125 
Q 28.296875 3 39.40625 3 
Q 46 3 50.796875 5.296875 
Q 55.59375 7.59375 61.40625 13.09375 
z
" id="STIXGeneral-Regular-67"/>
      <path d="M 48 5 
L 48 3.59375 
Q 40.203125 1.5 34.296875 -0.90625 
L 33.796875 -0.59375 
L 33.796875 7.59375 
L 33.59375 7.59375 
Q 27.296875 -1 19.296875 -1 
Q 13.59375 -1 10.34375 2.5 
Q 7.09375 6 7.09375 11.796875 
L 7.09375 36.90625 
Q 7.09375 40.59375 5.796875 42 
Q 4.5 43.40625 0.90625 43.59375 
L 0.90625 45 
L 15.5 45 
L 15.5 12.703125 
Q 15.5 9.296875 17.546875 7.046875 
Q 19.59375 4.796875 22.59375 4.796875 
Q 27.5 4.796875 31 7.90625 
Q 32.296875 9.09375 32.796875 10.140625 
Q 33.296875 11.203125 33.296875 13.703125 
L 33.296875 36.796875 
Q 33.296875 40.703125 31.890625 41.84375 
Q 30.5 43 25.90625 43.296875 
L 25.90625 45 
L 41.703125 45 
L 41.703125 10.703125 
Q 41.703125 7.203125 42.84375 6.09375 
Q 44 5 47.40625 5 
z
" id="STIXGeneral-Regular-117"/>
      <path d="M 16 45.796875 
L 16 36.59375 
Q 19.796875 42 22.34375 44 
Q 24.90625 46 28 46 
Q 30.59375 46 32.046875 44.59375 
Q 33.5 43.203125 33.5 40.703125 
Q 33.5 38.59375 32.453125 37.390625 
Q 31.40625 36.203125 29.59375 36.203125 
Q 27.703125 36.203125 25.59375 38.203125 
Q 24 39.703125 23 39.703125 
Q 20.90625 39.703125 18.453125 36.796875 
Q 16 33.90625 16 31.5 
L 16 9 
Q 16 4.703125 17.703125 3.203125 
Q 19.40625 1.703125 24.5 1.5 
L 24.5 0 
L 0.5 0 
L 0.5 1.5 
Q 5.296875 2.40625 6.4375 3.5 
Q 7.59375 4.59375 7.59375 8.40625 
L 7.59375 33.40625 
Q 7.59375 36.703125 6.84375 38.046875 
Q 6.09375 39.40625 4.203125 39.40625 
Q 2.59375 39.40625 0.703125 39 
L 0.703125 40.59375 
Q 7 42.59375 15.5 46 
z
" id="STIXGeneral-Regular-114"/>
      <path d="M 40.796875 16.40625 
L 42.40625 15.703125 
Q 36.40625 -1 21.5 -1 
Q 12.703125 -1 7.59375 5.140625 
Q 2.5 11.296875 2.5 21.703125 
Q 2.5 32.40625 8.203125 39.203125 
Q 13.90625 46 23.203125 46 
Q 32.203125 46 37.09375 39.09375 
Q 40 35.09375 40.5 27.703125 
L 9.703125 27.703125 
Q 10.09375 21.40625 10.9375 18.09375 
Q 11.796875 14.796875 14.296875 11.40625 
Q 18.5 5.90625 25.40625 5.90625 
Q 30.296875 5.90625 33.640625 8.296875 
Q 37 10.703125 40.796875 16.40625 
z
M 9.90625 30.90625 
L 30.296875 30.90625 
Q 29.40625 37.203125 27.34375 39.796875 
Q 25.296875 42.40625 20.5 42.40625 
Q 16.296875 42.40625 13.5 39.453125 
Q 10.703125 36.5 9.90625 30.90625 
z
" id="STIXGeneral-Regular-101"/>
      <path d="M 48.5 0 
L 27.703125 0 
L 27.796875 1.5 
Q 31.5 1.796875 32.75 3.640625 
Q 34 5.5 34 10.5 
L 34 30.40625 
Q 34 40.5 26.703125 40.5 
Q 24.203125 40.5 22 39.296875 
Q 19.796875 38.09375 16.40625 34.796875 
L 16.40625 7.203125 
Q 16.40625 4.203125 17.75 3 
Q 19.09375 1.796875 22.90625 1.5 
L 22.90625 0 
L 1.796875 0 
L 1.796875 1.5 
Q 5.59375 1.796875 6.796875 3.34375 
Q 8 4.90625 8 9.40625 
L 8 33.703125 
Q 8 37.40625 7.296875 38.796875 
Q 6.59375 40.203125 4.5 40.203125 
Q 2.5 40.203125 1.59375 39.796875 
L 1.59375 41.5 
Q 8.59375 43.5 15.296875 46 
L 16.09375 45.703125 
L 16.09375 37.90625 
L 16.203125 37.90625 
Q 23.296875 46 30.59375 46 
Q 36.296875 46 39.34375 42 
Q 42.40625 38 42.40625 30.59375 
L 42.40625 8.5 
Q 42.40625 4.5 43.59375 3.203125 
Q 44.796875 1.90625 48.5 1.5 
z
" id="STIXGeneral-Regular-110"/>
      <path d="M 26.59375 7.703125 
L 27.90625 6.59375 
Q 23.09375 -1 15.796875 -1 
Q 7 -1 7 11.703125 
L 7 41.796875 
L 1.703125 41.796875 
Q 1.296875 42.09375 1.296875 42.5 
Q 1.296875 43.296875 3 44.40625 
Q 6.796875 46.59375 12.703125 55.09375 
Q 12.90625 55.40625 13.65625 56.34375 
Q 14.40625 57.296875 14.703125 57.90625 
Q 15.40625 57.90625 15.40625 56.59375 
L 15.40625 45 
L 25.5 45 
L 25.5 41.796875 
L 15.40625 41.796875 
L 15.40625 13.203125 
Q 15.40625 8.40625 16.59375 6.296875 
Q 17.796875 4.203125 20.59375 4.203125 
Q 23.59375 4.203125 26.59375 7.703125 
z
" id="STIXGeneral-Regular-116"/>
      <path id="STIXGeneral-Regular-32"/>
      <path d="M 54.59375 51.90625 
L 52.09375 51.90625 
Q 51 58.703125 48.34375 60.546875 
Q 45.703125 62.40625 36.703125 62.40625 
L 23.5 62.40625 
Q 21.40625 62.40625 20.75 61.65625 
Q 20.09375 60.90625 20.09375 58.5 
L 20.09375 36.796875 
L 34.296875 36.796875 
Q 40.59375 36.796875 42.75 38.59375 
Q 44.90625 40.40625 45.59375 46.296875 
L 47.90625 46.296875 
L 47.90625 23 
L 45.59375 23 
Q 45 29.09375 42.890625 30.890625 
Q 40.796875 32.703125 34.296875 32.703125 
L 20.09375 32.703125 
L 20.09375 11.203125 
Q 20.09375 5.5 21.75 3.84375 
Q 23.40625 2.203125 29.203125 1.90625 
L 29.203125 0 
L 1.09375 0 
L 1.09375 1.90625 
Q 6.796875 2.296875 8.34375 4.046875 
Q 9.90625 5.796875 9.90625 12.296875 
L 9.90625 55.09375 
Q 9.90625 60.59375 8.40625 62.25 
Q 6.90625 63.90625 1.203125 64.296875 
L 1.203125 66.203125 
L 54.09375 66.203125 
z
" id="STIXGeneral-Regular-70"/>
      <path d="M 1.59375 66.203125 
L 28.59375 66.203125 
Q 48.09375 66.203125 58.59375 57.09375 
Q 68.5 48.59375 68.5 33.40625 
Q 68.5 15.09375 54.90625 6.40625 
Q 45 0 29.703125 0 
L 1.59375 0 
L 1.59375 1.90625 
Q 7.40625 2.296875 8.90625 3.9375 
Q 10.40625 5.59375 10.40625 11.5 
L 10.40625 55 
Q 10.40625 60.796875 8.90625 62.34375 
Q 7.40625 63.90625 1.59375 64.296875 
z
M 20.59375 58.296875 
L 20.59375 8.40625 
Q 20.59375 5.703125 21.546875 4.703125 
Q 22.5 3.703125 25.40625 3.703125 
Q 33.203125 3.703125 38 4.796875 
Q 42.796875 5.90625 47.203125 8.90625 
Q 57.59375 15.90625 57.59375 32.796875 
Q 57.59375 47.296875 48.09375 55.59375 
Q 43.796875 59.40625 38.6875 60.953125 
Q 33.59375 62.5 25.90625 62.5 
Q 23 62.5 21.796875 61.59375 
Q 20.59375 60.703125 20.59375 58.296875 
z
" id="STIXGeneral-Regular-68"/>
      <path d="M 8.296875 -14.09375 
L 7.296875 -12.203125 
Q 15.59375 -6.59375 15.59375 -1.5 
Q 15.59375 -0.203125 14.203125 -0.203125 
Q 13.796875 -0.203125 12.84375 -0.390625 
Q 11.90625 -0.59375 11.296875 -0.59375 
Q 5.5 -0.59375 5.5 4.5 
Q 5.5 7.09375 7.140625 8.640625 
Q 8.796875 10.203125 11.5 10.203125 
Q 14.90625 10.203125 17.203125 7.75 
Q 19.5 5.296875 19.5 1.5 
Q 19.5 -3.09375 16.453125 -7.390625 
Q 13.40625 -11.703125 8.296875 -14.09375 
z
" id="STIXGeneral-Regular-44"/>
      <path d="M 54.90625 42.796875 
L 40.703125 16.703125 
L 40.703125 14.90625 
Q 40.703125 11 41.59375 8 
Q 42.5 5 44.09375 5 
Q 46.40625 5 49.203125 12.40625 
L 50.796875 11.703125 
Q 47.09375 -0.90625 40.703125 -0.90625 
Q 35.796875 -0.90625 35.5 9.59375 
Q 26.703125 -1.09375 16.09375 -1.09375 
Q 9.203125 -1.09375 5.953125 3.09375 
Q 2.703125 7.296875 2.703125 14.09375 
Q 2.703125 20.203125 5.140625 26.140625 
Q 7.59375 32.09375 11.796875 36.40625 
Q 15.203125 39.796875 19.84375 41.9375 
Q 24.5 44.09375 29.09375 44.09375 
Q 35.09375 44.09375 38.390625 40.546875 
Q 41.703125 37 41.703125 32.203125 
L 46.296875 42.796875 
z
M 35.90625 27.203125 
Q 35.90625 42 28.203125 42 
Q 23 42 16.953125 32.796875 
Q 10.90625 23.59375 10.90625 12.5 
Q 10.90625 7.703125 12.59375 4.34375 
Q 14.296875 1 17.796875 1 
Q 25.09375 1 34.296875 20.09375 
Q 34.40625 20.703125 34.84375 22.046875 
Q 35.296875 23.40625 35.59375 24.703125 
Q 35.90625 26 35.90625 27.203125 
z
" id="STIXGeneral-Italic-945"/>
      <path d="M 63.703125 32 
L 4.796875 32 
L 4.796875 38.59375 
L 63.703125 38.59375 
z
M 63.703125 12 
L 4.796875 12 
L 4.796875 18.59375 
L 63.703125 18.59375 
z
" id="STIXGeneral-Regular-61"/>
      <path d="M 47.296875 16.703125 
L 37 16.703125 
L 37 0 
L 29.203125 0 
L 29.203125 16.703125 
L 1.203125 16.703125 
L 1.203125 23.09375 
L 32.59375 67.59375 
L 37 67.59375 
L 37 23.09375 
L 47.296875 23.09375 
z
M 29.203125 23.09375 
L 29.203125 57.40625 
L 5.203125 23.09375 
z
" id="STIXGeneral-Regular-52"/>
      <path d="M 43.796875 68.09375 
L 40.203125 59.59375 
Q 39.59375 58.296875 37.5 58.296875 
L 18.09375 58.296875 
L 14.09375 49.796875 
Q 25.09375 47.703125 30 45.25 
Q 34.90625 42.796875 39.09375 37 
Q 42.59375 32.203125 42.59375 24.296875 
Q 42.59375 17.09375 40.25 12.1875 
Q 37.90625 7.296875 32.796875 3.5 
Q 26 -1.40625 15.796875 -1.40625 
Q 10.09375 -1.40625 6.59375 0.296875 
Q 3.09375 2 3.09375 4.796875 
Q 3.09375 8.59375 7.59375 8.59375 
Q 11.203125 8.59375 15 5.5 
Q 18.90625 2.296875 22.09375 2.296875 
Q 27.296875 2.296875 31.4375 7.5 
Q 35.59375 12.703125 35.59375 19.203125 
Q 35.59375 28.796875 28.90625 34.203125 
Q 20.203125 41.203125 7.59375 41.203125 
Q 6.40625 41.203125 6.40625 42 
L 6.5 42.5 
L 17.40625 66.203125 
L 38.09375 66.203125 
Q 39.796875 66.203125 40.75 66.703125 
Q 41.703125 67.203125 42.90625 68.796875 
z
" id="STIXGeneral-Regular-53"/>
      <path d="M 23.203125 38.703125 
Q 31 30.796875 31 25.1875 
Q 31 19.59375 27.046875 15.640625 
Q 23.09375 11.703125 17.5 11.703125 
Q 11.796875 11.703125 7.890625 15.640625 
Q 4 19.59375 4 25.40625 
Q 4 31 7.953125 34.84375 
Q 11.90625 38.703125 17.703125 38.703125 
Q 23.203125 38.703125 31 30.796875 
z
M 20.40625 18.296875 
Q 24.40625 22.296875 24.40625 25.1875 
Q 24.40625 28.09375 22.40625 30.09375 
Q 20.40625 32.09375 17.703125 32.09375 
Q 14.59375 32.09375 12.59375 30.140625 
Q 10.59375 28.203125 10.59375 25.40625 
Q 10.59375 22.296875 12.546875 20.296875 
Q 14.5 18.296875 17.5 18.296875 
Q 20.40625 18.296875 24.40625 22.296875 
z
" id="STIXGeneral-Regular-8728"/>
     </defs>
     <g transform="translate(499.89 59.2)scale(0.19 -0.19)">
      <use transform="translate(0 0.203125)" xlink:href="#STIXGeneral-Regular-67"/>
      <use transform="translate(66.699997 0.203125)" xlink:href="#STIXGeneral-Regular-117"/>
      <use transform="translate(116.699982 0.203125)" xlink:href="#STIXGeneral-Regular-114"/>
      <use transform="translate(149.999969 0.203125)" xlink:href="#STIXGeneral-Regular-114"/>
      <use transform="translate(183.299957 0.203125)" xlink:href="#STIXGeneral-Regular-101"/>
      <use transform="translate(227.699951 0.203125)" xlink:href="#STIXGeneral-Regular-110"/>
      <use transform="translate(277.699936 0.203125)" xlink:href="#STIXGeneral-Regular-116"/>
      <use transform="translate(305.499924 0.203125)" xlink:href="#STIXGeneral-Regular-32"/>
      <use transform="translate(330.499908 0.203125)" xlink:href="#STIXGeneral-Regular-67"/>
      <use transform="translate(397.199905 0.203125)" xlink:href="#STIXGeneral-Regular-70"/>
      <use transform="translate(452.799896 0.203125)" xlink:href="#STIXGeneral-Regular-68"/>
      <use transform="translate(524.999878 0.203125)" xlink:href="#STIXGeneral-Regular-44"/>
      <use transform="translate(549.999863 0.203125)" xlink:href="#STIXGeneral-Regular-32"/>
      <use transform="translate(574.999847 0.203125)" xlink:href="#STIXGeneral-Italic-945"/>
      <use transform="translate(644.639841 0.203125)" xlink:href="#STIXGeneral-Regular-61"/>
      <use transform="translate(727.579822 0.203125)" xlink:href="#STIXGeneral-Regular-52"/>
      <use transform="translate(777.579807 0.203125)" xlink:href="#STIXGeneral-Regular-53"/>
      <use transform="translate(839.23107 35.478125)scale(0.7)" xlink:href="#STIXGeneral-Regular-8728"/>
     </g>
    </g>
    <g id="line2d_21">
     <path d="M 446.69 79.473594 
L 484.69 79.473594 
" style="fill:none;stroke:#ff7f0e;stroke-linecap:square;stroke-width:3;"/>
    </g>
    <g id="line2d_22"/>
    <g id="text_8">
     <!-- Experiment, $\alpha = 45 ^\circ$ -->
     <defs>
      <path d="M 59.703125 16.90625 
L 55.09375 0 
L 1.203125 0 
L 1.203125 1.90625 
Q 6.90625 2.296875 8.40625 3.9375 
Q 9.90625 5.59375 9.90625 11.40625 
L 9.90625 55 
Q 9.90625 60.59375 8.34375 62.296875 
Q 6.796875 64 1.203125 64.296875 
L 1.203125 66.203125 
L 54.203125 66.203125 
L 54.59375 51.90625 
L 52.09375 51.90625 
Q 51 58.59375 48.203125 60.5 
Q 45.40625 62.40625 36.703125 62.40625 
L 23.59375 62.40625 
Q 21.40625 62.40625 20.75 61.75 
Q 20.09375 61.09375 20.09375 58.796875 
L 20.09375 36.796875 
L 35.203125 36.796875 
Q 41.5 36.796875 43.546875 38.59375 
Q 45.59375 40.40625 46.5 46.40625 
L 48.796875 46.40625 
L 48.796875 23 
L 46.5 23 
Q 45.59375 29.296875 43.59375 31 
Q 41.59375 32.703125 35.203125 32.703125 
L 20.09375 32.703125 
L 20.09375 8.40625 
Q 20.09375 5.40625 22.1875 4.546875 
Q 24.296875 3.703125 30.203125 3.703125 
L 33.796875 3.703125 
Q 44.5 3.703125 49 6.296875 
Q 53.5 8.90625 56.90625 16.90625 
z
" id="STIXGeneral-Regular-69"/>
      <path d="M 47.90625 0 
L 27.796875 0 
L 27.796875 1.5 
Q 30.296875 1.703125 31.046875 2.140625 
Q 31.796875 2.59375 31.796875 3.90625 
Q 31.796875 4.796875 31.203125 5.703125 
L 22.09375 19.703125 
L 14.203125 7.40625 
Q 12.203125 4.296875 12.203125 3.296875 
Q 12.203125 1.5 16.203125 1.5 
L 16.203125 0 
L 1.703125 0 
L 1.703125 1.5 
Q 4.203125 1.703125 5.546875 2.640625 
Q 6.90625 3.59375 9 6.59375 
L 20.40625 23.09375 
L 11 37.5 
Q 8.703125 41 7.09375 42.25 
Q 5.5 43.5 3.296875 43.5 
L 2.40625 43.5 
L 2.40625 45 
L 23.09375 45 
L 23.09375 43.5 
Q 18.796875 43.40625 18.796875 41.296875 
Q 18.796875 39.203125 23.40625 32.40625 
Q 24.703125 30.59375 24.796875 30.40625 
Q 25.296875 31.09375 27.796875 34.796875 
Q 28.296875 35.703125 29 36.703125 
Q 29.703125 37.703125 30.046875 38.296875 
Q 30.40625 38.90625 30.796875 39.5 
Q 31.203125 40.09375 31.34375 40.546875 
Q 31.5 41 31.5 41.296875 
Q 31.5 43.203125 27.5 43.5 
L 27.5 45 
L 43.296875 45 
L 43.296875 43.5 
Q 38.203125 43.296875 35.203125 39.09375 
L 26.90625 27.09375 
L 39.703125 7.5 
Q 43.59375 1.5 47.90625 1.5 
z
" id="STIXGeneral-Regular-120"/>
      <path d="M 15.90625 45.796875 
L 15.90625 38.09375 
Q 22.203125 46 30.296875 46 
Q 37.59375 46 42.296875 40 
Q 47 34 47 24.703125 
Q 47 13.796875 40.953125 6.390625 
Q 34.90625 -1 26 -1 
Q 22.90625 -1 20.75 -0.09375 
Q 18.59375 0.796875 15.90625 3.296875 
L 15.90625 -12.40625 
Q 15.90625 -17.09375 17.5 -18.4375 
Q 19.09375 -19.796875 24.703125 -19.90625 
L 24.703125 -21.703125 
L 0.5 -21.703125 
L 0.5 -20 
Q 4.90625 -19.59375 6.203125 -18.296875 
Q 7.5 -17 7.5 -13.09375 
L 7.5 33.703125 
Q 7.5 37.203125 6.703125 38.296875 
Q 5.90625 39.40625 3.40625 39.40625 
Q 1.796875 39.40625 0.90625 39.296875 
L 0.90625 40.90625 
Q 7.90625 43 15.296875 46 
z
M 15.90625 33.40625 
L 15.90625 8.796875 
Q 15.90625 6.59375 19.34375 4.390625 
Q 22.796875 2.203125 26.296875 2.203125 
Q 31.703125 2.203125 35.046875 7.296875 
Q 38.40625 12.40625 38.40625 20.703125 
Q 38.40625 29.5 35.046875 34.75 
Q 31.703125 40 26.09375 40 
Q 22.59375 40 19.25 37.796875 
Q 15.90625 35.59375 15.90625 33.40625 
z
" id="STIXGeneral-Regular-112"/>
      <path d="M 18 63.203125 
Q 18 61 16.5 59.546875 
Q 15 58.09375 12.796875 58.09375 
Q 10.703125 58.09375 9.25 59.546875 
Q 7.796875 61 7.796875 63.203125 
Q 7.796875 65.296875 9.296875 66.796875 
Q 10.796875 68.296875 12.90625 68.296875 
Q 15.09375 68.296875 16.546875 66.796875 
Q 18 65.296875 18 63.203125 
z
M 25.296875 0 
L 1.59375 0 
L 1.59375 1.5 
Q 6.796875 1.796875 8.140625 3.296875 
Q 9.5 4.796875 9.5 10.40625 
L 9.5 33.09375 
Q 9.5 36.59375 8.796875 38 
Q 8.09375 39.40625 6.203125 39.40625 
Q 3.796875 39.40625 2 38.90625 
L 2 40.5 
L 17.5 46 
L 17.90625 45.59375 
L 17.90625 10.5 
Q 17.90625 4.90625 19.15625 3.40625 
Q 20.40625 1.90625 25.296875 1.5 
z
" id="STIXGeneral-Regular-105"/>
      <path d="M 77.5 0 
L 55.703125 0 
L 55.703125 1.5 
Q 59.90625 1.90625 61.046875 3.25 
Q 62.203125 4.59375 62.203125 9 
L 62.203125 29.59375 
Q 62.203125 35.59375 60.453125 38.1875 
Q 58.703125 40.796875 54.5 40.796875 
Q 51 40.796875 48.546875 39.390625 
Q 46.09375 38 43.796875 34.703125 
L 43.796875 9.5 
Q 43.796875 4.703125 45.25 3.140625 
Q 46.703125 1.59375 51 1.5 
L 51 0 
L 28.59375 0 
L 28.59375 1.5 
Q 33 1.796875 34.203125 2.9375 
Q 35.40625 4.09375 35.40625 8.59375 
L 35.40625 29.703125 
Q 35.40625 40.796875 28.90625 40.796875 
Q 26.09375 40.796875 22.9375 39.546875 
Q 19.796875 38.296875 18.296875 36.5 
Q 17 35 17 34.796875 
L 17 7 
Q 17 3.796875 18.390625 2.75 
Q 19.796875 1.703125 23.796875 1.5 
L 23.796875 0 
L 1.59375 0 
L 1.59375 1.5 
Q 5.796875 1.59375 7.1875 3.046875 
Q 8.59375 4.5 8.59375 8.796875 
L 8.59375 33.59375 
Q 8.59375 37.296875 7.796875 38.75 
Q 7 40.203125 5.09375 40.203125 
Q 3.59375 40.203125 1.90625 39.796875 
L 1.90625 41.5 
Q 8.703125 43.40625 15.796875 46 
L 16.59375 45.703125 
L 16.59375 38.296875 
L 16.796875 38.296875 
Q 21.296875 43 24.75 44.5 
Q 28.203125 46 32.09375 46 
Q 40 46 42.703125 37.59375 
Q 50.5 46 59 46 
Q 70.59375 46 70.59375 28 
L 70.59375 7.703125 
Q 70.59375 4.40625 71.59375 3.15625 
Q 72.59375 1.90625 74.90625 1.703125 
L 77.5 1.5 
z
" id="STIXGeneral-Regular-109"/>
     </defs>
     <g transform="translate(499.89 86.123594)scale(0.19 -0.19)">
      <use transform="translate(0 0.203125)" xlink:href="#STIXGeneral-Regular-69"/>
      <use transform="translate(61.099991 0.203125)" xlink:href="#STIXGeneral-Regular-120"/>
      <use transform="translate(111.099976 0.203125)" xlink:href="#STIXGeneral-Regular-112"/>
      <use transform="translate(161.09996 0.203125)" xlink:href="#STIXGeneral-Regular-101"/>
      <use transform="translate(205.499954 0.203125)" xlink:href="#STIXGeneral-Regular-114"/>
      <use transform="translate(238.799942 0.203125)" xlink:href="#STIXGeneral-Regular-105"/>
      <use transform="translate(266.59993 0.203125)" xlink:href="#STIXGeneral-Regular-109"/>
      <use transform="translate(344.399918 0.203125)" xlink:href="#STIXGeneral-Regular-101"/>
      <use transform="translate(388.799911 0.203125)" xlink:href="#STIXGeneral-Regular-110"/>
      <use transform="translate(438.799896 0.203125)" xlink:href="#STIXGeneral-Regular-116"/>
      <use transform="translate(466.599884 0.203125)" xlink:href="#STIXGeneral-Regular-44"/>
      <use transform="translate(491.599869 0.203125)" xlink:href="#STIXGeneral-Regular-32"/>
      <use transform="translate(516.599854 0.203125)" xlink:href="#STIXGeneral-Italic-945"/>
      <use transform="translate(586.239847 0.203125)" xlink:href="#STIXGeneral-Regular-61"/>
      <use transform="translate(669.179828 0.203125)" xlink:href="#STIXGeneral-Regular-52"/>
      <use transform="translate(719.179813 0.203125)" xlink:href="#STIXGeneral-Regular-53"/>
      <use transform="translate(780.831076 35.478125)scale(0.7)" xlink:href="#STIXGeneral-Regular-8728"/>
     </g>
    </g>
   </g>
  </g>
  <g id="axes_2">
   <g id="patch_7">
    <path d="M 72 506.88 
L 684 506.88 
L 684 279.222857 
L 72 279.222857 
z
" style="fill:#ffffff;"/>
   </g>
   <g id="matplotlib.axis_3">
    <g id="xtick_10">
     <g id="line2d_23">
      <g>
       <use style="fill:#ffffff;stroke:#000000;stroke-width:0.8;" x="72" xlink:href="#m12532c5758" y="506.88"/>
      </g>
     </g>
     <g id="text_9">
      <!-- 0.00 -->
      <defs>
       <path d="M 18.09375 4.296875 
Q 18.09375 2.09375 16.4375 0.5 
Q 14.796875 -1.09375 12.5 -1.09375 
Q 10.203125 -1.09375 8.59375 0.5 
Q 7 2.09375 7 4.390625 
Q 7 6.703125 8.640625 8.34375 
Q 10.296875 10 12.59375 10 
Q 14.796875 10 16.4375 8.296875 
Q 18.09375 6.59375 18.09375 4.296875 
z
" id="STIXGeneral-Regular-46"/>
      </defs>
      <g transform="translate(55.375 526.856406)scale(0.19 -0.19)">
       <use xlink:href="#STIXGeneral-Regular-48"/>
       <use x="49.999985" xlink:href="#STIXGeneral-Regular-46"/>
       <use x="74.999969" xlink:href="#STIXGeneral-Regular-48"/>
       <use x="124.999954" xlink:href="#STIXGeneral-Regular-48"/>
      </g>
     </g>
    </g>
    <g id="xtick_11">
     <g id="line2d_24">
      <g>
       <use style="fill:#ffffff;stroke:#000000;stroke-width:0.8;" x="148.5" xlink:href="#m12532c5758" y="506.88"/>
      </g>
     </g>
     <g id="text_10">
      <!-- 0.25 -->
      <g transform="translate(131.875 526.856406)scale(0.19 -0.19)">
       <use xlink:href="#STIXGeneral-Regular-48"/>
       <use x="49.999985" xlink:href="#STIXGeneral-Regular-46"/>
       <use x="74.999969" xlink:href="#STIXGeneral-Regular-50"/>
       <use x="124.999954" xlink:href="#STIXGeneral-Regular-53"/>
      </g>
     </g>
    </g>
    <g id="xtick_12">
     <g id="line2d_25">
      <g>
       <use style="fill:#ffffff;stroke:#000000;stroke-width:0.8;" x="225" xlink:href="#m12532c5758" y="506.88"/>
      </g>
     </g>
     <g id="text_11">
      <!-- 0.50 -->
      <g transform="translate(208.375 526.856406)scale(0.19 -0.19)">
       <use xlink:href="#STIXGeneral-Regular-48"/>
       <use x="49.999985" xlink:href="#STIXGeneral-Regular-46"/>
       <use x="74.999969" xlink:href="#STIXGeneral-Regular-53"/>
       <use x="124.999954" xlink:href="#STIXGeneral-Regular-48"/>
      </g>
     </g>
    </g>
    <g id="xtick_13">
     <g id="line2d_26">
      <g>
       <use style="fill:#ffffff;stroke:#000000;stroke-width:0.8;" x="301.5" xlink:href="#m12532c5758" y="506.88"/>
      </g>
     </g>
     <g id="text_12">
      <!-- 0.75 -->
      <defs>
       <path d="M 44.90625 64.59375 
L 23.703125 -0.796875 
L 17.203125 -0.796875 
L 37 58.796875 
L 15.5 58.796875 
Q 11.203125 58.796875 9.09375 57.296875 
Q 7 55.796875 3.796875 50.59375 
L 2 51.5 
L 8 66.203125 
L 44.90625 66.203125 
z
" id="STIXGeneral-Regular-55"/>
      </defs>
      <g transform="translate(284.875 526.856406)scale(0.19 -0.19)">
       <use xlink:href="#STIXGeneral-Regular-48"/>
       <use x="49.999985" xlink:href="#STIXGeneral-Regular-46"/>
       <use x="74.999969" xlink:href="#STIXGeneral-Regular-55"/>
       <use x="124.999954" xlink:href="#STIXGeneral-Regular-53"/>
      </g>
     </g>
    </g>
    <g id="xtick_14">
     <g id="line2d_27">
      <g>
       <use style="fill:#ffffff;stroke:#000000;stroke-width:0.8;" x="378" xlink:href="#m12532c5758" y="506.88"/>
      </g>
     </g>
     <g id="text_13">
      <!-- 1.00 -->
      <g transform="translate(361.375 526.856406)scale(0.19 -0.19)">
       <use xlink:href="#STIXGeneral-Regular-49"/>
       <use x="49.999985" xlink:href="#STIXGeneral-Regular-46"/>
       <use x="74.999969" xlink:href="#STIXGeneral-Regular-48"/>
       <use x="124.999954" xlink:href="#STIXGeneral-Regular-48"/>
      </g>
     </g>
    </g>
    <g id="xtick_15">
     <g id="line2d_28">
      <g>
       <use style="fill:#ffffff;stroke:#000000;stroke-width:0.8;" x="454.5" xlink:href="#m12532c5758" y="506.88"/>
      </g>
     </g>
     <g id="text_14">
      <!-- 1.25 -->
      <g transform="translate(437.875 526.856406)scale(0.19 -0.19)">
       <use xlink:href="#STIXGeneral-Regular-49"/>
       <use x="49.999985" xlink:href="#STIXGeneral-Regular-46"/>
       <use x="74.999969" xlink:href="#STIXGeneral-Regular-50"/>
       <use x="124.999954" xlink:href="#STIXGeneral-Regular-53"/>
      </g>
     </g>
    </g>
    <g id="xtick_16">
     <g id="line2d_29">
      <g>
       <use style="fill:#ffffff;stroke:#000000;stroke-width:0.8;" x="531" xlink:href="#m12532c5758" y="506.88"/>
      </g>
     </g>
     <g id="text_15">
      <!-- 1.50 -->
      <g transform="translate(514.375 526.856406)scale(0.19 -0.19)">
       <use xlink:href="#STIXGeneral-Regular-49"/>
       <use x="49.999985" xlink:href="#STIXGeneral-Regular-46"/>
       <use x="74.999969" xlink:href="#STIXGeneral-Regular-53"/>
       <use x="124.999954" xlink:href="#STIXGeneral-Regular-48"/>
      </g>
     </g>
    </g>
    <g id="xtick_17">
     <g id="line2d_30">
      <g>
       <use style="fill:#ffffff;stroke:#000000;stroke-width:0.8;" x="607.5" xlink:href="#m12532c5758" y="506.88"/>
      </g>
     </g>
     <g id="text_16">
      <!-- 1.75 -->
      <g transform="translate(590.875 526.856406)scale(0.19 -0.19)">
       <use xlink:href="#STIXGeneral-Regular-49"/>
       <use x="49.999985" xlink:href="#STIXGeneral-Regular-46"/>
       <use x="74.999969" xlink:href="#STIXGeneral-Regular-55"/>
       <use x="124.999954" xlink:href="#STIXGeneral-Regular-53"/>
      </g>
     </g>
    </g>
    <g id="xtick_18">
     <g id="line2d_31">
      <g>
       <use style="fill:#ffffff;stroke:#000000;stroke-width:0.8;" x="684" xlink:href="#m12532c5758" y="506.88"/>
      </g>
     </g>
     <g id="text_17">
      <!-- 2.00 -->
      <g transform="translate(667.375 526.856406)scale(0.19 -0.19)">
       <use xlink:href="#STIXGeneral-Regular-50"/>
       <use x="49.999985" xlink:href="#STIXGeneral-Regular-46"/>
       <use x="74.999969" xlink:href="#STIXGeneral-Regular-48"/>
       <use x="124.999954" xlink:href="#STIXGeneral-Regular-48"/>
      </g>
     </g>
    </g>
    <g id="text_18">
     <!-- $\^t$ -->
     <defs>
      <path d="M -7.5 50.703125 
L -10.90625 50.703125 
L -23.09375 61 
L -35.203125 50.703125 
L -38.59375 50.703125 
L -26.203125 67.40625 
L -20 67.40625 
z
" id="STIXGeneral-Regular-770"/>
      <path d="M 29.59375 42.796875 
L 29.09375 39.59375 
L 20.703125 39.59375 
L 12 6.796875 
Q 11.796875 6 11.796875 5.40625 
Q 11.796875 3.796875 13.296875 3.796875 
Q 14.5 3.796875 16.09375 5.34375 
Q 17.703125 6.90625 21.40625 11.703125 
L 22.703125 11 
Q 18.09375 4 15.140625 1.453125 
Q 12.203125 -1.09375 8.40625 -1.09375 
Q 3.796875 -1.09375 3.796875 2.59375 
Q 3.796875 3.59375 5.40625 10 
L 13.203125 39.59375 
L 5.703125 39.59375 
L 5.59375 40.203125 
Q 5.59375 42 8.90625 42.703125 
Q 11.40625 43.296875 15.5 46.546875 
Q 19.59375 49.796875 22.203125 53.703125 
Q 22.796875 54.59375 23.59375 54.59375 
Q 24.5 54.59375 24.5 53.796875 
Q 24.5 53.296875 24.40625 53.09375 
L 21.59375 42.796875 
z
" id="STIXGeneral-Italic-116"/>
     </defs>
     <g transform="translate(375.34 547.956406)scale(0.19 -0.19)">
      <use transform="translate(39.042969 16.59375)" xlink:href="#STIXGeneral-Regular-770"/>
      <use transform="translate(0 0.203125)" xlink:href="#STIXGeneral-Italic-116"/>
     </g>
    </g>
   </g>
   <g id="matplotlib.axis_4">
    <g id="ytick_6">
     <g id="line2d_32">
      <g>
       <use style="fill:#ffffff;stroke:#000000;stroke-width:0.8;" x="72" xlink:href="#m2be1167fe0" y="471.691875"/>
      </g>
     </g>
     <g id="text_19">
      <!-- −1 -->
      <g transform="translate(42.485 478.180078)scale(0.19 -0.19)">
       <use xlink:href="#STIXGeneral-Regular-8722"/>
       <use x="68.499985" xlink:href="#STIXGeneral-Regular-49"/>
      </g>
     </g>
    </g>
    <g id="ytick_7">
     <g id="line2d_33">
      <g>
       <use style="fill:#ffffff;stroke:#000000;stroke-width:0.8;" x="72" xlink:href="#m2be1167fe0" y="425.897597"/>
      </g>
     </g>
     <g id="text_20">
      <!-- 0 -->
      <g transform="translate(55.5 432.385801)scale(0.19 -0.19)">
       <use xlink:href="#STIXGeneral-Regular-48"/>
      </g>
     </g>
    </g>
    <g id="ytick_8">
     <g id="line2d_34">
      <g>
       <use style="fill:#ffffff;stroke:#000000;stroke-width:0.8;" x="72" xlink:href="#m2be1167fe0" y="380.10332"/>
      </g>
     </g>
     <g id="text_21">
      <!-- 1 -->
      <g transform="translate(55.5 386.591523)scale(0.19 -0.19)">
       <use xlink:href="#STIXGeneral-Regular-49"/>
      </g>
     </g>
    </g>
    <g id="ytick_9">
     <g id="line2d_35">
      <g>
       <use style="fill:#ffffff;stroke:#000000;stroke-width:0.8;" x="72" xlink:href="#m2be1167fe0" y="334.309042"/>
      </g>
     </g>
     <g id="text_22">
      <!-- 2 -->
      <g transform="translate(55.5 340.797245)scale(0.19 -0.19)">
       <use xlink:href="#STIXGeneral-Regular-50"/>
      </g>
     </g>
    </g>
    <g id="ytick_10">
     <g id="line2d_36">
      <g>
       <use style="fill:#ffffff;stroke:#000000;stroke-width:0.8;" x="72" xlink:href="#m2be1167fe0" y="288.514765"/>
      </g>
     </g>
     <g id="text_23">
      <!-- 3 -->
      <g transform="translate(55.5 295.002968)scale(0.19 -0.19)">
       <use xlink:href="#STIXGeneral-Regular-51"/>
      </g>
     </g>
    </g>
    <g id="text_24">
     <!-- $C_l$ -->
     <g transform="translate(34.361406 401.696429)rotate(-90)scale(0.19 -0.19)">
      <use transform="translate(0 0.40625)" xlink:href="#STIXGeneral-Italic-67"/>
      <use transform="translate(66.699997 -12.821875)scale(0.7)" xlink:href="#STIXGeneral-Italic-108"/>
     </g>
    </g>
   </g>
   <g id="line2d_37">
    <path clip-path="url(#p540976c1b4)" d="M 71.95104 425.188634 
L 72.83232 424.618577 
L 73.41984 424.009927 
L 74.00736 423.125706 
L 74.59488 421.856965 
L 75.1824 420.068354 
L 75.76992 417.60864 
L 76.35744 414.338829 
L 77.23872 407.779023 
L 78.41376 396.642511 
L 79.88256 382.956086 
L 80.76384 376.84956 
L 81.64512 372.597631 
L 82.5264 369.816803 
L 83.40768 368.028709 
L 84.28896 366.846921 
L 85.17024 366.017428 
L 86.63904 365.00746 
L 90.45792 362.643706 
L 92.22048 361.22762 
L 93.68928 359.758795 
L 96.92064 355.407871 
L 99.27072 351.222742 
L 100.152 349.362637 
L 101.32704 346.911156 
L 107.496 331.65691 
L 111.02112 321.588095 
L 113.66496 313.131254 
L 113.95872 312.351215 
L 114.84 309.30963 
L 115.13376 308.526747 
L 115.72128 306.347247 
L 116.60256 303.522498 
L 118.36512 297.613224 
L 118.95264 295.856487 
L 119.83392 293.277663 
L 121.30272 290.08046 
L 121.59648 289.935819 
L 121.89024 289.570909 
L 122.47776 289.760711 
L 123.06528 290.816437 
L 123.35904 291.541128 
L 124.24032 295.493273 
L 124.82784 299.04666 
L 126.88416 314.747379 
L 127.47168 318.452947 
L 128.0592 321.554974 
L 129.23424 325.818301 
L 130.70304 328.853007 
L 130.9968 329.077317 
L 131.29056 329.662006 
L 131.58432 329.91647 
L 131.87808 330.370588 
L 132.17184 330.302829 
L 132.4656 330.457822 
L 132.75936 331.023576 
L 133.05312 331.185534 
L 133.34688 331.594085 
L 133.9344 331.950928 
L 134.22816 332.302561 
L 134.52192 332.359783 
L 134.81568 332.660395 
L 135.10944 332.789828 
L 135.4032 333.119739 
L 135.99072 333.165672 
L 136.28448 333.523982 
L 136.57824 333.568962 
L 136.872 333.860237 
L 137.16576 333.910853 
L 137.75328 334.315502 
L 138.04704 334.358855 
L 138.3408 334.651132 
L 138.63456 334.712328 
L 138.92832 334.990984 
L 139.51584 335.132001 
L 139.8096 335.418437 
L 140.10336 335.349648 
L 140.39712 335.562421 
L 140.69088 335.546189 
L 140.98464 335.910156 
L 141.57216 335.956286 
L 141.86592 336.330049 
L 142.15968 336.284636 
L 142.45344 336.569155 
L 142.7472 336.50475 
L 143.04096 336.804442 
L 143.62848 336.915258 
L 143.92224 337.221327 
L 144.216 337.134389 
L 144.50976 337.39306 
L 144.80352 337.446286 
L 145.09728 337.330042 
L 145.39104 337.658532 
L 145.6848 337.64605 
L 145.97856 337.918068 
L 146.27232 337.868377 
L 146.56608 338.146841 
L 147.1536 338.200044 
L 147.44736 338.430489 
L 147.74112 338.327793 
L 148.03488 338.59614 
L 148.6224 338.729019 
L 148.91616 338.941208 
L 149.20992 338.941501 
L 149.50368 339.227062 
L 149.79744 339.075993 
L 150.0912 339.382205 
L 150.67872 339.442951 
L 150.97248 339.696514 
L 151.26624 339.655076 
L 151.56 339.896951 
L 151.85376 339.830008 
L 152.14752 340.100308 
L 152.44128 340.143285 
L 152.73504 340.063294 
L 153.0288 340.329723 
L 153.32256 340.272571 
L 153.61632 340.516033 
L 154.20384 340.54805 
L 154.4976 340.805105 
L 154.79136 340.676435 
L 155.08512 340.93434 
L 155.37888 340.856604 
L 155.67264 341.068671 
L 156.26016 341.04496 
L 156.55392 341.330783 
L 156.84768 341.187985 
L 157.14144 341.454988 
L 157.4352 341.41365 
L 157.72896 341.641636 
L 158.31648 341.635816 
L 158.61024 341.912238 
L 158.904 341.820817 
L 159.19776 342.039746 
L 159.78528 342.02211 
L 160.07904 342.292529 
L 160.3728 342.213852 
L 160.66656 342.435984 
L 160.96032 342.304067 
L 161.25408 342.519216 
L 161.8416 342.487469 
L 162.13536 342.717322 
L 162.42912 342.619871 
L 162.72288 342.839 
L 163.01664 342.748866 
L 163.3104 342.96841 
L 163.89792 342.914312 
L 164.19168 343.14067 
L 164.48544 343.038178 
L 164.7792 343.284399 
L 165.07296 343.214753 
L 165.36672 343.263619 
L 165.66048 343.436345 
L 165.95424 343.368608 
L 166.248 343.608178 
L 166.54176 343.506021 
L 166.83552 343.720316 
L 167.42304 343.616978 
L 167.7168 343.840992 
L 168.01056 343.814095 
L 168.30432 344.022283 
L 168.59808 343.956946 
L 168.89184 344.107325 
L 169.47936 344.075846 
L 169.77312 344.279517 
L 170.06688 344.206222 
L 170.36064 344.424581 
L 170.94816 344.317769 
L 171.24192 344.518316 
L 171.53568 344.420953 
L 171.82944 344.630713 
L 172.1232 344.544874 
L 172.41696 344.790673 
L 172.71072 344.797625 
L 173.00448 344.686792 
L 173.29824 344.903281 
L 173.592 344.818828 
L 173.88576 345.008498 
L 174.47328 344.97782 
L 174.76704 345.191513 
L 175.0608 345.114465 
L 175.35456 345.292183 
L 175.64832 345.190568 
L 175.94208 345.402191 
L 176.5296 345.346817 
L 176.82336 345.575762 
L 177.11712 345.430063 
L 177.41088 345.643507 
L 177.70464 345.522519 
L 177.9984 345.800852 
L 181.22976 346.123715 
L 181.52352 346.342001 
L 182.11104 346.301055 
L 182.4048 346.497897 
L 182.69856 346.370114 
L 182.99232 346.577554 
L 183.28608 346.505698 
L 183.57984 346.71294 
L 183.8736 346.680526 
L 184.16736 346.843029 
L 184.46112 346.646948 
L 184.75488 347.030687 
L 185.04864 346.751657 
L 185.3424 347.206968 
L 185.63616 346.684614 
L 185.92992 347.381459 
L 186.22368 346.815051 
L 186.51744 347.477987 
L 186.8112 346.904033 
L 187.10496 347.558735 
L 187.39872 347.069603 
L 187.69248 347.507911 
L 187.98624 347.278234 
L 188.28 347.660135 
L 188.57376 347.382215 
L 188.86752 347.768751 
L 189.16128 347.441749 
L 189.45504 347.908124 
L 189.7488 347.358811 
L 190.04256 348.02302 
L 190.33632 347.439441 
L 190.63008 348.112731 
L 190.92384 347.631678 
L 191.2176 348.051312 
L 191.51136 347.793695 
L 191.80512 348.158992 
L 192.09888 347.870679 
L 192.39264 348.226417 
L 192.6864 347.87454 
L 192.98016 348.342101 
L 193.27392 347.899069 
L 193.56768 348.607116 
L 193.86144 348.064249 
L 194.1552 348.731501 
L 194.44896 348.152512 
L 194.74272 348.790925 
L 195.03648 348.3231 
L 195.33024 348.71977 
L 195.624 348.432882 
L 195.91776 348.81363 
L 196.21152 348.511057 
L 196.50528 348.986268 
L 196.79904 348.463437 
L 197.0928 349.125192 
L 197.38656 348.560937 
L 197.68032 349.191699 
L 197.97408 348.633762 
L 198.26784 349.350028 
L 198.5616 348.832109 
L 198.85536 349.224489 
L 199.14912 349.235056 
L 199.44288 348.812972 
L 199.73664 349.483618 
L 200.0304 349.020065 
L 200.32416 349.424372 
L 200.61792 349.148335 
L 200.91168 349.504822 
L 201.20544 349.21057 
L 201.4992 349.583616 
L 201.79296 349.287721 
L 202.08672 349.710682 
L 202.38048 349.170055 
L 202.67424 349.83304 
L 202.968 349.284443 
L 203.26176 349.934576 
L 203.55552 349.360384 
L 203.84928 349.985916 
L 204.14304 349.492515 
L 204.4368 349.90374 
L 204.73056 349.621886 
L 205.02432 349.992122 
L 205.31808 349.700542 
L 205.61184 350.162018 
L 205.9056 349.610425 
L 206.19936 350.221091 
L 206.49312 349.642389 
L 206.78688 350.280042 
L 207.08064 349.711081 
L 207.3744 350.342748 
L 207.66816 349.887148 
L 207.96192 350.350629 
L 208.25568 350.099429 
L 208.54944 350.455812 
L 208.8432 350.168532 
L 209.13696 350.532925 
L 209.43072 350.220292 
L 209.72448 350.681517 
L 210.01824 350.154168 
L 210.312 350.763477 
L 210.60576 350.206698 
L 210.89952 350.837258 
L 211.19328 350.386055 
L 211.48704 350.775235 
L 211.7808 350.486465 
L 212.07456 350.850924 
L 212.36832 350.553936 
L 212.66208 350.910467 
L 212.95584 350.623532 
L 213.2496 351.069288 
L 213.54336 350.538197 
L 213.83712 351.176114 
L 214.13088 350.623642 
L 214.42464 351.241201 
L 214.7184 350.688413 
L 215.01216 351.31568 
L 215.30592 350.839384 
L 215.59968 351.235836 
L 215.89344 350.95566 
L 216.1872 351.316456 
L 216.48096 351.025685 
L 216.77472 351.463718 
L 217.06848 350.951922 
L 217.36224 351.588033 
L 217.656 351.039446 
L 217.94976 351.659011 
L 218.24352 351.105536 
L 218.53728 351.730653 
L 218.83104 351.244791 
L 219.1248 351.636318 
L 219.41856 351.662875 
L 219.71232 351.279411 
L 220.00608 351.952291 
L 220.29984 351.472489 
L 220.5936 351.848098 
L 220.88736 351.571891 
L 221.18112 351.958532 
L 221.47488 351.651716 
L 221.76864 352.018187 
L 222.0624 351.747016 
L 222.35616 352.18652 
L 222.64992 351.685703 
L 222.94368 352.319092 
L 223.23744 351.759738 
L 223.5312 352.363307 
L 223.82496 351.823807 
L 224.11872 352.434523 
L 224.41248 351.987751 
L 224.70624 352.372186 
L 225 352.082327 
L 225.29376 352.427446 
L 225.58752 352.128529 
L 225.88128 352.562473 
L 226.17504 352.086393 
L 226.4688 352.699673 
L 226.76256 352.15747 
L 227.05632 352.818861 
L 227.35008 352.338814 
L 227.64384 352.934655 
L 227.9376 352.474554 
L 228.23136 352.851204 
L 228.52512 352.567701 
L 228.81888 352.927268 
L 229.11264 352.63045 
L 229.4064 353.011339 
L 229.70016 352.71197 
L 229.99392 353.139151 
L 230.28768 352.649061 
L 230.58144 353.276897 
L 230.8752 352.743036 
L 231.16896 353.340831 
L 231.46272 352.89876 
L 231.75648 353.288012 
L 232.05024 353.025687 
L 232.344 353.385442 
L 232.63776 353.11293 
L 232.93152 353.472964 
L 233.22528 353.194691 
L 233.51904 353.624856 
L 233.8128 353.139125 
L 234.10656 353.755447 
L 234.40032 353.232708 
L 234.69408 353.836159 
L 234.98784 353.308842 
L 235.2816 353.929496 
L 235.57536 353.488777 
L 235.86912 353.881283 
L 236.16288 353.609268 
L 236.45664 353.969708 
L 236.7504 353.690175 
L 237.04416 354.119359 
L 237.33792 353.637002 
L 237.63168 354.263422 
L 237.92544 353.7444 
L 238.2192 354.342685 
L 238.51296 353.829709 
L 238.80672 354.421377 
L 239.10048 354.284078 
L 239.39424 353.938931 
L 239.688 354.574966 
L 239.98176 354.051359 
L 240.27552 354.650525 
L 240.56928 354.142925 
L 240.86304 354.749874 
L 241.1568 354.312601 
L 241.45056 354.695214 
L 241.74432 354.450643 
L 242.03808 354.809742 
L 242.33184 354.548711 
L 242.6256 354.983504 
L 242.91936 354.498671 
L 243.21312 355.116862 
L 243.50688 354.606979 
L 243.80064 355.210202 
L 244.0944 354.695681 
L 244.38816 355.292473 
L 244.68192 354.856043 
L 244.97568 355.247202 
L 245.26944 354.979935 
L 245.5632 355.348342 
L 245.85696 355.090263 
L 246.15072 355.573651 
L 246.44448 355.108117 
L 246.73824 355.717817 
L 247.032 355.206727 
L 247.32576 355.803703 
L 247.61952 355.296118 
L 247.91328 355.911932 
L 248.20704 355.491783 
L 248.5008 355.898983 
L 248.79456 355.659831 
L 249.08832 356.003226 
L 249.38208 355.750847 
L 249.67584 356.105413 
L 249.9696 355.848153 
L 250.26336 356.279126 
L 250.55712 355.808358 
L 250.85088 356.417545 
L 251.14464 355.910524 
L 251.4384 356.490604 
L 251.73216 356.097959 
L 252.02592 356.493004 
L 252.31968 356.253475 
L 252.61344 356.607619 
L 252.9072 356.340542 
L 253.20096 356.710315 
L 253.49472 356.462802 
L 253.78848 356.896973 
L 254.08224 356.436208 
L 254.376 357.040293 
L 254.66976 356.543608 
L 254.96352 357.147296 
L 255.25728 356.671199 
L 255.55104 357.263237 
L 255.8448 356.846285 
L 256.13856 357.246662 
L 256.43232 357.014057 
L 256.72608 357.364999 
L 257.01984 357.127955 
L 257.3136 357.563483 
L 257.60736 357.103356 
L 257.90112 357.716379 
L 258.19488 357.233154 
L 258.48864 357.828689 
L 258.7824 357.342685 
L 259.07616 357.922513 
L 259.36992 357.813122 
L 259.66368 357.453877 
L 259.95744 358.101939 
L 260.2512 357.623283 
L 260.54496 358.199188 
L 260.83872 357.720871 
L 261.13248 358.320114 
L 261.42624 357.920775 
L 261.72 358.30428 
L 262.01376 358.088504 
L 262.30752 358.446955 
L 262.60128 358.200794 
L 262.89504 358.634726 
L 263.1888 358.185654 
L 263.48256 358.792041 
L 263.77632 358.319487 
L 264.07008 358.921917 
L 264.36384 358.435729 
L 264.6576 359.023218 
L 264.95136 358.642753 
L 265.24512 359.046339 
L 265.53888 358.822367 
L 265.83264 359.179122 
L 266.1264 358.938599 
L 266.42016 359.299294 
L 266.71392 359.061041 
L 267.00768 359.496892 
L 267.30144 359.057577 
L 267.5952 359.659681 
L 267.88896 359.197518 
L 268.18272 359.787589 
L 268.47648 359.405701 
L 268.77024 359.778733 
L 269.064 359.556036 
L 269.35776 359.890951 
L 269.65152 359.664035 
L 269.94528 360.01874 
L 270.23904 359.788591 
L 270.5328 360.218265 
L 270.82656 359.784395 
L 271.12032 360.386616 
L 271.41408 359.935673 
L 271.70784 360.516438 
L 272.0016 360.143259 
L 272.29536 360.520823 
L 272.58912 360.303039 
L 272.88288 360.661149 
L 273.17664 360.431824 
L 273.4704 360.794348 
L 273.76416 360.561084 
L 274.05792 360.992547 
L 274.35168 360.550062 
L 274.64544 361.142558 
L 274.9392 360.701965 
L 275.23296 361.264964 
L 275.52672 360.845255 
L 275.82048 361.451598 
L 276.11424 361.076786 
L 276.408 361.448098 
L 276.70176 361.229626 
L 276.99552 361.588922 
L 277.28928 361.362595 
L 277.58304 361.80558 
L 277.8768 361.384985 
L 278.17056 361.991131 
L 278.46432 361.537968 
L 278.75808 362.118713 
L 279.05184 361.653743 
L 279.3456 362.210229 
L 279.63936 362.135146 
L 279.93312 361.787475 
L 280.22688 362.449335 
L 280.52064 362.003864 
L 280.8144 362.574208 
L 281.10816 362.137269 
L 281.40192 362.727216 
L 281.69568 362.365185 
L 281.98944 362.736493 
L 282.2832 362.51627 
L 282.57696 362.87104 
L 282.87072 362.654873 
L 283.16448 363.091132 
L 283.45824 362.682058 
L 283.752 363.279177 
L 284.04576 362.851578 
L 284.33952 363.416675 
L 284.63328 362.990752 
L 284.92704 363.565528 
L 285.2208 363.20823 
L 285.51456 363.575313 
L 285.80832 363.375913 
L 286.10208 363.746836 
L 286.39584 363.52501 
L 286.6896 363.892755 
L 286.98336 363.676405 
L 287.27712 364.105983 
L 287.57088 363.698512 
L 287.86464 364.293594 
L 288.1584 363.869037 
L 288.45216 364.418525 
L 288.74592 364.057539 
L 289.03968 364.428121 
L 289.33344 364.233135 
L 289.6272 364.595938 
L 289.92096 364.387677 
L 290.21472 364.750047 
L 290.50848 364.537448 
L 290.80224 364.972191 
L 291.096 364.568334 
L 291.38976 365.148776 
L 291.68352 364.73651 
L 291.97728 365.305645 
L 292.27104 364.968697 
L 292.5648 365.334139 
L 292.85856 365.144563 
L 293.15232 365.503919 
L 293.44608 365.29848 
L 293.73984 365.667012 
L 294.0336 365.454069 
L 294.32736 365.884871 
L 294.62112 365.477808 
L 294.91488 366.06244 
L 295.20864 365.650966 
L 295.5024 366.214994 
L 295.79616 365.815018 
L 296.08992 366.381498 
L 296.38368 366.053364 
L 296.67744 366.429067 
L 296.9712 366.236338 
L 297.26496 366.592668 
L 297.55872 366.377104 
L 297.85248 366.800479 
L 298.14624 366.423177 
L 298.44 367.011979 
L 298.73376 366.609793 
L 299.02752 367.166575 
L 299.32128 366.776411 
L 299.61504 367.317989 
L 299.9088 367.279155 
L 300.20256 366.93888 
L 300.49632 367.584163 
L 300.79008 367.18435 
L 301.08384 367.746402 
L 301.3776 367.354365 
L 301.67136 367.914308 
L 301.96512 367.580394 
L 302.25888 367.94927 
L 302.55264 367.784262 
L 302.8464 368.152507 
L 303.14016 367.950941 
L 303.43392 368.378623 
L 303.72768 368.004816 
L 304.02144 368.594315 
L 304.3152 368.216465 
L 304.60896 368.772068 
L 304.90272 368.387926 
L 305.19648 368.938896 
L 305.49024 368.631329 
L 305.784 369.008075 
L 306.07776 368.834429 
L 306.37152 369.19703 
L 306.66528 368.993511 
L 306.95904 369.36063 
L 307.2528 369.180128 
L 307.54656 369.609213 
L 307.84032 369.245601 
L 308.13408 369.835195 
L 308.42784 369.437433 
L 308.7216 369.990378 
L 309.01536 369.678328 
L 309.30912 370.055818 
L 309.60288 369.895509 
L 309.89664 370.238093 
L 310.1904 370.334253 
L 310.48416 370.006571 
L 310.77792 370.638085 
L 311.07168 370.335901 
L 311.36544 370.68992 
L 311.6592 370.813897 
L 311.95296 370.481507 
L 312.24672 371.098527 
L 312.83424 370.886702 
L 313.128 371.36941 
L 313.42176 371.266346 
L 313.71552 371.401074 
L 314.00928 371.380006 
L 314.30304 371.837498 
L 314.5968 371.482243 
L 314.89056 371.83619 
L 315.18432 371.947622 
L 315.47808 371.873958 
L 315.77184 372.317978 
L 316.0656 372.128086 
L 316.35936 372.508262 
L 316.65312 372.392569 
L 316.94688 372.546423 
L 317.24064 373.097888 
L 317.5344 372.66043 
L 317.82816 373.450173 
L 318.12192 373.250662 
L 318.41568 373.315379 
L 318.70944 374.088975 
L 319.0032 373.716337 
L 319.59072 374.891344 
L 319.88448 374.863159 
L 320.17824 375.549559 
L 320.472 375.925206 
L 320.76576 376.857666 
L 321.05952 377.239618 
L 321.64704 378.915431 
L 323.11584 386.459629 
L 324.29088 396.495272 
L 325.17216 405.563793 
L 326.3472 418.036682 
L 327.22848 426.021638 
L 328.69728 434.720451 
L 329.87232 439.413058 
L 330.16608 440.1446 
L 330.7536 441.986261 
L 331.04736 442.593158 
L 331.34112 443.557565 
L 331.63488 443.892401 
L 332.51616 446.054166 
L 332.80992 446.481659 
L 333.10368 447.322238 
L 333.39744 447.660054 
L 333.98496 448.979711 
L 334.27872 449.165567 
L 334.57248 450.163252 
L 334.86624 450.32798 
L 335.45376 451.631169 
L 336.04128 452.59591 
L 336.33504 453.026544 
L 336.6288 453.856908 
L 337.21632 454.551156 
L 337.51008 455.39946 
L 337.80384 455.702973 
L 338.97888 457.779665 
L 339.27264 458.421677 
L 339.5664 458.550312 
L 340.15392 460.023641 
L 340.74144 460.661795 
L 341.91648 462.891653 
L 342.21024 462.995257 
L 342.504 464.091911 
L 342.79776 464.039051 
L 343.09152 464.821011 
L 343.38528 465.178894 
L 343.67904 465.891821 
L 343.9728 465.947584 
L 344.26656 466.949098 
L 344.56032 467.02629 
L 345.14784 468.161026 
L 345.73536 469.143537 
L 346.02912 469.542029 
L 346.32288 470.246403 
L 346.61664 470.365613 
L 346.9104 471.384642 
L 347.20416 471.406027 
L 347.79168 472.785023 
L 348.08544 472.785345 
L 348.67296 474.256384 
L 348.96672 474.225385 
L 349.55424 475.694822 
L 349.848 475.655452 
L 350.43552 477.110088 
L 350.72928 477.131691 
L 351.3168 478.583318 
L 351.90432 479.197523 
L 354.2544 483.106959 
L 354.84192 483.932901 
L 355.13568 484.609308 
L 355.42944 484.889257 
L 355.7232 485.543161 
L 356.31072 486.210976 
L 356.60448 486.602443 
L 356.89824 487.293834 
L 357.192 487.542811 
L 357.48576 488.128244 
L 358.36704 488.930093 
L 358.6608 489.850735 
L 358.95456 490.045127 
L 359.24832 490.572224 
L 359.54208 490.544566 
L 359.83584 491.454012 
L 360.1296 491.384378 
L 360.42336 491.533626 
L 360.71712 492.476312 
L 361.30464 492.798345 
L 361.5984 493.375356 
L 361.89216 493.308436 
L 362.18592 493.913351 
L 362.77344 494.229498 
L 363.36096 495.233827 
L 363.65472 494.899418 
L 363.94848 495.635677 
L 364.24224 495.437913 
L 364.536 495.839624 
L 364.82976 495.962347 
L 365.12352 496.279517 
L 365.41728 496.358599 
L 365.71104 496.29615 
L 366.29856 496.531948 
L 366.59232 496.424745 
L 366.88608 496.483262 
L 367.17984 496.415354 
L 368.06112 495.37724 
L 368.64864 494.235314 
L 369.52992 490.954677 
L 370.11744 488.223098 
L 371.88 473.092321 
L 374.52384 448.271801 
L 375.11136 444.518511 
L 375.40512 443.116645 
L 375.69888 441.067035 
L 375.99264 440.215577 
L 376.2864 438.636333 
L 377.16768 435.590788 
L 377.7552 433.817343 
L 378.04896 432.816494 
L 378.63648 431.693474 
L 378.93024 430.543019 
L 379.81152 428.727744 
L 380.10528 427.819298 
L 380.39904 427.625857 
L 380.98656 426.306045 
L 382.74912 422.655439 
L 383.04288 422.347984 
L 383.33664 421.509128 
L 383.6304 421.316713 
L 383.92416 420.627866 
L 384.21792 420.413802 
L 385.68672 417.606354 
L 385.98048 417.48685 
L 389.21184 412.968586 
L 392.73696 409.100803 
L 395.3808 406.976006 
L 395.67456 407.032693 
L 395.96832 406.248683 
L 396.26208 406.429452 
L 396.55584 406.319884 
L 396.8496 405.959617 
L 398.90592 404.903607 
L 400.37472 404.344669 
L 400.96224 404.083424 
L 403.01856 403.472103 
L 405.95616 403.192922 
L 409.18752 403.27867 
L 410.0688 403.451601 
L 412.12512 403.886393 
L 412.71264 403.985181 
L 416.23776 405.147469 
L 419.76288 406.718654 
L 432.1008 413.831033 
L 434.15712 415.137735 
L 438.56352 417.808352 
L 443.26368 420.594785 
L 448.2576 423.56257 
L 449.43264 424.201657 
L 450.31392 424.626821 
L 453.83904 426.515324 
L 461.18304 430.246986 
L 464.4144 431.697496 
L 466.17696 432.461014 
L 467.352 433.016508 
L 468.8208 433.678345 
L 473.52096 435.550038 
L 477.92736 437.200912 
L 480.27744 438.023 
L 489.384 440.707565 
L 499.37184 442.791956 
L 502.30944 443.20324 
L 508.77216 443.938336 
L 520.81632 444.409044 
L 529.62912 444.243546 
L 534.9168 443.965987 
L 536.67936 443.846515 
L 553.71744 442.359842 
L 558.4176 441.844844 
L 586.91232 438.628388 
L 594.25632 437.854295 
L 604.24416 436.866019 
L 605.71296 436.742572 
L 629.80128 434.882794 
L 644.19552 434.035825 
L 651.53952 433.662918 
L 666.52128 433.008003 
L 684.14688 432.34022 
L 684.14688 432.34022 
" style="fill:none;stroke:#1f77b4;stroke-linecap:square;stroke-width:3;"/>
   </g>
   <g id="line2d_38">
    <path clip-path="url(#p540976c1b4)" d="M 70.776 425.206363 
L 72.692868 421.061212 
L 74.609736 417.607295 
L 75.56817 412.769782 
L 76.526604 403.784863 
L 77.485038 396.873647 
L 78.443471 379.593915 
L 79.401905 385.816152 
L 80.360339 374.066295 
L 81.318773 367.155079 
L 83.235641 361.627459 
L 88.986245 372.693975 
L 91.861546 367.167483 
L 92.81998 363.021204 
L 95.695282 358.877181 
L 98.570584 358.189329 
L 99.529018 354.734285 
L 102.40432 349.207793 
L 104.321188 340.915236 
L 108.154923 341.610981 
L 110.071791 334.700892 
L 111.988659 322.952163 
L 113.905527 314.659606 
L 121.572998 307.756283 
L 125.406734 313.981903 
L 128.282036 322.280098 
L 131.157338 338.181872 
L 136.907941 343.027278 
L 141.700111 335.429338 
L 146.492281 338.891148 
L 150.326016 345.808002 
L 158.951922 343.744448 
L 165.660959 345.826044 
L 171.411563 338.920466 
L 180.037468 349.990365 
L 182.91277 344.463873 
L 188.663374 349.309279 
L 195.372411 343.787298 
L 201.123015 350.015173 
L 207.832052 350.714301 
L 215.499524 353.488259 
L 222.208561 350.039981 
L 227.000731 353.501791 
L 229.876033 352.122705 
L 237.543504 356.279132 
L 241.37724 355.592408 
L 245.210976 359.05309 
L 250.003145 357.67626 
L 256.712183 363.214028 
L 259.587485 360.452474 
L 266.296522 363.916539 
L 272.047126 359.775898 
L 280.673031 364.624688 
L 288.340502 370.163584 
L 297.924842 368.792391 
L 303.675445 370.87286 
L 308.467615 370.878498 
L 313.259785 377.105246 
L 317.09352 379.874694 
L 319.010388 388.171762 
L 320.927256 397.160064 
L 321.88569 408.220941 
L 324.760992 419.284074 
L 326.67786 429.654845 
L 332.428463 432.426549 
L 338.179067 443.493064 
L 342.971237 446.26364 
L 349.680274 458.713752 
L 354.472444 460.101859 
L 357.347746 471.164992 
L 361.181481 477.390612 
L 366.452868 473.940642 
L 367.890519 467.02999 
L 369.807387 460.811135 
L 371.724254 449.062406 
L 376.516424 426.948544 
L 378.433292 418.655987 
L 382.267028 414.513091 
L 388.017631 413.137388 
L 394.726669 402.776766 
L 401.435706 403.475894 
L 408.144744 398.645146 
L 413.895347 404.873022 
L 421.562819 405.573277 
L 427.313423 413.874855 
L 432.105592 413.189259 
L 438.81463 420.800731 
L 445.523667 420.808624 
L 453.191139 427.038754 
L 461.817044 427.048903 
L 467.567648 429.129372 
L 475.235119 429.829627 
L 485.777892 431.2245 
L 491.528496 432.613734 
L 499.195967 432.622755 
L 505.905005 434.013117 
L 510.697175 432.636287 
L 516.447778 434.025521 
L 523.156816 434.033415 
L 529.865853 435.423777 
L 533.699589 434.737053 
L 539.450192 435.435053 
L 574.912248 435.476775 
L 582.579719 434.103328 
L 592.164059 434.114604 
L 602.706832 432.744539 
L 625.709246 431.389133 
L 635.293586 430.709175 
L 661.171302 430.739621 
L 673.630943 431.445514 
L 721 431.501245 
L 721 431.501245 
" style="fill:none;stroke:#ff7f0e;stroke-linecap:square;stroke-width:3;"/>
   </g>
   <g id="line2d_39">
    <path clip-path="url(#p540976c1b4)" d="M 378 506.88 
L 378 279.222857 
" style="fill:none;stroke:#000000;stroke-linecap:square;stroke-width:0.5;"/>
   </g>
   <g id="line2d_40">
    <path clip-path="url(#p540976c1b4)" d="M 72 425.897597 
L 684 425.897597 
" style="fill:none;stroke:#000000;stroke-dasharray:3.2,0.8,0.5,0.8;stroke-dashoffset:0;stroke-width:0.5;"/>
   </g>
   <g id="patch_8">
    <path d="M 72 506.88 
L 72 279.222857 
" style="fill:none;stroke:#000000;stroke-linecap:square;stroke-linejoin:miter;stroke-width:0.8;"/>
   </g>
   <g id="patch_9">
    <path d="M 684 506.88 
L 684 279.222857 
" style="fill:none;stroke:#000000;stroke-linecap:square;stroke-linejoin:miter;stroke-width:0.8;"/>
   </g>
   <g id="patch_10">
    <path d="M 72 506.88 
L 684 506.88 
" style="fill:none;stroke:#000000;stroke-linecap:square;stroke-linejoin:miter;stroke-width:0.8;"/>
   </g>
   <g id="patch_11">
    <path d="M 72 279.222857 
L 684 279.222857 
" style="fill:none;stroke:#000000;stroke-linecap:square;stroke-linejoin:miter;stroke-width:0.8;"/>
   </g>
   <g id="legend_2">
    <g id="line2d_41">
     <path d="M 446.69 302.972857 
L 484.69 302.972857 
" style="fill:none;stroke:#1f77b4;stroke-linecap:square;stroke-width:3;"/>
    </g>
    <g id="line2d_42"/>
    <g id="text_25">
     <!-- Current CFD, $\alpha = 60 ^\circ$ -->
     <defs>
      <path d="M 44.59375 68.40625 
L 44.796875 66.796875 
Q 33 64.90625 25.09375 57.25 
Q 17.203125 49.59375 15.203125 38.296875 
Q 21 42.796875 27.90625 42.796875 
Q 36.703125 42.796875 41.75 37.1875 
Q 46.796875 31.59375 46.796875 21.90625 
Q 46.796875 12.09375 41.703125 5.90625 
Q 35.796875 -1.40625 25.796875 -1.40625 
Q 13.59375 -1.40625 8.09375 8.703125 
Q 3.40625 17.296875 3.40625 27.90625 
Q 3.40625 44.296875 14.296875 55.5 
Q 20.5 61.90625 27.046875 64.546875 
Q 33.59375 67.203125 44.59375 68.40625 
z
M 37.796875 18.796875 
Q 37.796875 38.203125 24.296875 38.203125 
Q 19.296875 38.203125 16 35.546875 
Q 12.703125 32.90625 12.703125 26.59375 
Q 12.703125 14.90625 16.34375 8.15625 
Q 20 1.40625 26.90625 1.40625 
Q 32.203125 1.40625 35 6.15625 
Q 37.796875 10.90625 37.796875 18.796875 
z
" id="STIXGeneral-Regular-54"/>
     </defs>
     <g transform="translate(499.89 309.622857)scale(0.19 -0.19)">
      <use transform="translate(0 0.59375)" xlink:href="#STIXGeneral-Regular-67"/>
      <use transform="translate(66.699997 0.59375)" xlink:href="#STIXGeneral-Regular-117"/>
      <use transform="translate(116.699982 0.59375)" xlink:href="#STIXGeneral-Regular-114"/>
      <use transform="translate(149.999969 0.59375)" xlink:href="#STIXGeneral-Regular-114"/>
      <use transform="translate(183.299957 0.59375)" xlink:href="#STIXGeneral-Regular-101"/>
      <use transform="translate(227.699951 0.59375)" xlink:href="#STIXGeneral-Regular-110"/>
      <use transform="translate(277.699936 0.59375)" xlink:href="#STIXGeneral-Regular-116"/>
      <use transform="translate(305.499924 0.59375)" xlink:href="#STIXGeneral-Regular-32"/>
      <use transform="translate(330.499908 0.59375)" xlink:href="#STIXGeneral-Regular-67"/>
      <use transform="translate(397.199905 0.59375)" xlink:href="#STIXGeneral-Regular-70"/>
      <use transform="translate(452.799896 0.59375)" xlink:href="#STIXGeneral-Regular-68"/>
      <use transform="translate(524.999878 0.59375)" xlink:href="#STIXGeneral-Regular-44"/>
      <use transform="translate(549.999863 0.59375)" xlink:href="#STIXGeneral-Regular-32"/>
      <use transform="translate(574.999847 0.59375)" xlink:href="#STIXGeneral-Italic-945"/>
      <use transform="translate(644.639841 0.59375)" xlink:href="#STIXGeneral-Regular-61"/>
      <use transform="translate(727.579822 0.59375)" xlink:href="#STIXGeneral-Regular-54"/>
      <use transform="translate(777.579807 0.59375)" xlink:href="#STIXGeneral-Regular-48"/>
      <use transform="translate(839.23107 35.86875)scale(0.7)" xlink:href="#STIXGeneral-Regular-8728"/>
     </g>
    </g>
    <g id="line2d_43">
     <path d="M 446.69 329.896451 
L 484.69 329.896451 
" style="fill:none;stroke:#ff7f0e;stroke-linecap:square;stroke-width:3;"/>
    </g>
    <g id="line2d_44"/>
    <g id="text_26">
     <!-- Experiment, $\alpha = 60 ^\circ$ -->
     <g transform="translate(499.89 336.546451)scale(0.19 -0.19)">
      <use transform="translate(0 0.59375)" xlink:href="#STIXGeneral-Regular-69"/>
      <use transform="translate(61.099991 0.59375)" xlink:href="#STIXGeneral-Regular-120"/>
      <use transform="translate(111.099976 0.59375)" xlink:href="#STIXGeneral-Regular-112"/>
      <use transform="translate(161.09996 0.59375)" xlink:href="#STIXGeneral-Regular-101"/>
      <use transform="translate(205.499954 0.59375)" xlink:href="#STIXGeneral-Regular-114"/>
      <use transform="translate(238.799942 0.59375)" xlink:href="#STIXGeneral-Regular-105"/>
      <use transform="translate(266.59993 0.59375)" xlink:href="#STIXGeneral-Regular-109"/>
      <use transform="translate(344.399918 0.59375)" xlink:href="#STIXGeneral-Regular-101"/>
      <use transform="translate(388.799911 0.59375)" xlink:href="#STIXGeneral-Regular-110"/>
      <use transform="translate(438.799896 0.59375)" xlink:href="#STIXGeneral-Regular-116"/>
      <use transform="translate(466.599884 0.59375)" xlink:href="#STIXGeneral-Regular-44"/>
      <use transform="translate(491.599869 0.59375)" xlink:href="#STIXGeneral-Regular-32"/>
      <use transform="translate(516.599854 0.59375)" xlink:href="#STIXGeneral-Italic-945"/>
      <use transform="translate(586.239847 0.59375)" xlink:href="#STIXGeneral-Regular-61"/>
      <use transform="translate(669.179828 0.59375)" xlink:href="#STIXGeneral-Regular-54"/>
      <use transform="translate(719.179813 0.59375)" xlink:href="#STIXGeneral-Regular-48"/>
      <use transform="translate(780.831076 35.86875)scale(0.7)" xlink:href="#STIXGeneral-Regular-8728"/>
     </g>
    </g>
   </g>
  </g>
 </g>
 <defs>
  <clipPath id="p0590f93f61">
   <rect height="227.657143" width="612" x="72" y="28.8"/>
  </clipPath>
  <clipPath id="p540976c1b4">
   <rect height="227.657143" width="612" x="72" y="279.222857"/>
  </clipPath>
 </defs>
</svg>
