<?xml version="1.0" encoding="utf-8" standalone="no"?>
<!DOCTYPE svg PUBLIC "-//W3C//DTD SVG 1.1//EN"
  "http://www.w3.org/Graphics/SVG/1.1/DTD/svg11.dtd">
<!-- Created with matplotlib (https://matplotlib.org/) -->
<svg height="432pt" version="1.1" viewBox="0 0 1008 432" width="1008pt" xmlns="http://www.w3.org/2000/svg" xmlns:xlink="http://www.w3.org/1999/xlink">
 <metadata>
  <rdf:RDF xmlns:cc="http://creativecommons.org/ns#" xmlns:dc="http://purl.org/dc/elements/1.1/" xmlns:rdf="http://www.w3.org/1999/02/22-rdf-syntax-ns#">
   <cc:Work>
    <dc:type rdf:resource="http://purl.org/dc/dcmitype/StillImage"/>
    <dc:date>2022-01-13T09:57:59.624738</dc:date>
    <dc:format>image/svg+xml</dc:format>
    <dc:creator>
     <cc:Agent>
      <dc:title>Matplotlib v3.3.4, https://matplotlib.org/</dc:title>
     </cc:Agent>
    </dc:creator>
   </cc:Work>
  </rdf:RDF>
 </metadata>
 <defs>
  <style type="text/css">*{stroke-linecap:butt;stroke-linejoin:round;}</style>
 </defs>
 <g id="figure_1">
  <g id="patch_1">
   <path d="M 0 432 
L 1008 432 
L 1008 0 
L 0 0 
z
" style="fill:#ffffff;"/>
  </g>
  <g id="axes_1">
   <g id="patch_2">
    <path d="M 126 345.6 
L 481.090909 345.6 
L 481.090909 86.4 
L 126 86.4 
z
" style="fill:#ffffff;"/>
   </g>
   <g id="matplotlib.axis_1">
    <g id="xtick_1">
     <g id="line2d_1">
      <defs>
       <path d="M 0 0 
L 0 3.5 
" id="md08532c45c" style="stroke:#000000;stroke-width:0.8;"/>
      </defs>
      <g>
       <use style="fill:#ffffff;stroke:#000000;stroke-width:0.8;" x="126" xlink:href="#md08532c45c" y="345.6"/>
      </g>
     </g>
     <g id="text_1">
      <!-- 4.00 -->
      <g transform="translate(105 368.99125)scale(0.24 -0.24)">
       <defs>
        <path d="M 47.296875 16.703125 
L 37 16.703125 
L 37 0 
L 29.203125 0 
L 29.203125 16.703125 
L 1.203125 16.703125 
L 1.203125 23.09375 
L 32.59375 67.59375 
L 37 67.59375 
L 37 23.09375 
L 47.296875 23.09375 
z
M 29.203125 23.09375 
L 29.203125 57.40625 
L 5.203125 23.09375 
z
" id="STIXGeneral-Regular-52"/>
        <path d="M 18.09375 4.296875 
Q 18.09375 2.09375 16.4375 0.5 
Q 14.796875 -1.09375 12.5 -1.09375 
Q 10.203125 -1.09375 8.59375 0.5 
Q 7 2.09375 7 4.390625 
Q 7 6.703125 8.640625 8.34375 
Q 10.296875 10 12.59375 10 
Q 14.796875 10 16.4375 8.296875 
Q 18.09375 6.59375 18.09375 4.296875 
z
" id="STIXGeneral-Regular-46"/>
        <path d="M 47.59375 33 
Q 47.59375 26.296875 46.296875 20.34375 
Q 45 14.40625 42.453125 9.40625 
Q 39.90625 4.40625 35.40625 1.5 
Q 30.90625 -1.40625 25 -1.40625 
Q 18.90625 -1.40625 14.296875 1.6875 
Q 9.703125 4.796875 7.203125 10 
Q 4.703125 15.203125 3.546875 21.09375 
Q 2.40625 27 2.40625 33.59375 
Q 2.40625 42.90625 4.703125 50.34375 
Q 7 57.796875 12.34375 62.6875 
Q 17.703125 67.59375 25.40625 67.59375 
Q 35.203125 67.59375 41.390625 58 
Q 47.59375 48.40625 47.59375 33 
z
M 38 32.5 
Q 38 48.296875 34.640625 56.640625 
Q 31.296875 65 24.796875 65 
Q 18.59375 65 15.296875 56.59375 
Q 12 48.203125 12 32.90625 
Q 12 17.5 15.296875 9.34375 
Q 18.59375 1.203125 25 1.203125 
Q 31.296875 1.203125 34.640625 9.34375 
Q 38 17.5 38 32.5 
z
" id="STIXGeneral-Regular-48"/>
       </defs>
       <use xlink:href="#STIXGeneral-Regular-52"/>
       <use x="49.999985" xlink:href="#STIXGeneral-Regular-46"/>
       <use x="74.999969" xlink:href="#STIXGeneral-Regular-48"/>
       <use x="124.999954" xlink:href="#STIXGeneral-Regular-48"/>
      </g>
     </g>
    </g>
    <g id="xtick_2">
     <g id="line2d_2">
      <g>
       <use style="fill:#ffffff;stroke:#000000;stroke-width:0.8;" x="214.772727" xlink:href="#md08532c45c" y="345.6"/>
      </g>
     </g>
     <g id="text_2">
      <!-- 4.25 -->
      <g transform="translate(193.772727 368.99125)scale(0.24 -0.24)">
       <defs>
        <path d="M 47.40625 13.703125 
L 42 0 
L 2.90625 0 
L 2.90625 1.203125 
L 20.703125 20.09375 
Q 27.703125 27.40625 30.703125 33.5 
Q 33.703125 39.59375 33.703125 46.09375 
Q 33.703125 52.796875 30 56.5 
Q 26.296875 60.203125 19.796875 60.203125 
Q 14.40625 60.203125 11.25 57.390625 
Q 8.09375 54.59375 5.09375 47.203125 
L 3 47.703125 
Q 4.703125 57 9.84375 62.296875 
Q 15 67.59375 23.796875 67.59375 
Q 32.09375 67.59375 37.1875 62.59375 
Q 42.296875 57.59375 42.296875 50 
Q 42.296875 38.703125 29.5 25.203125 
L 13 7.59375 
L 36.40625 7.59375 
Q 39.703125 7.59375 41.640625 8.890625 
Q 43.59375 10.203125 46 14.296875 
z
" id="STIXGeneral-Regular-50"/>
        <path d="M 43.796875 68.09375 
L 40.203125 59.59375 
Q 39.59375 58.296875 37.5 58.296875 
L 18.09375 58.296875 
L 14.09375 49.796875 
Q 25.09375 47.703125 30 45.25 
Q 34.90625 42.796875 39.09375 37 
Q 42.59375 32.203125 42.59375 24.296875 
Q 42.59375 17.09375 40.25 12.1875 
Q 37.90625 7.296875 32.796875 3.5 
Q 26 -1.40625 15.796875 -1.40625 
Q 10.09375 -1.40625 6.59375 0.296875 
Q 3.09375 2 3.09375 4.796875 
Q 3.09375 8.59375 7.59375 8.59375 
Q 11.203125 8.59375 15 5.5 
Q 18.90625 2.296875 22.09375 2.296875 
Q 27.296875 2.296875 31.4375 7.5 
Q 35.59375 12.703125 35.59375 19.203125 
Q 35.59375 28.796875 28.90625 34.203125 
Q 20.203125 41.203125 7.59375 41.203125 
Q 6.40625 41.203125 6.40625 42 
L 6.5 42.5 
L 17.40625 66.203125 
L 38.09375 66.203125 
Q 39.796875 66.203125 40.75 66.703125 
Q 41.703125 67.203125 42.90625 68.796875 
z
" id="STIXGeneral-Regular-53"/>
       </defs>
       <use xlink:href="#STIXGeneral-Regular-52"/>
       <use x="49.999985" xlink:href="#STIXGeneral-Regular-46"/>
       <use x="74.999969" xlink:href="#STIXGeneral-Regular-50"/>
       <use x="124.999954" xlink:href="#STIXGeneral-Regular-53"/>
      </g>
     </g>
    </g>
    <g id="xtick_3">
     <g id="line2d_3">
      <g>
       <use style="fill:#ffffff;stroke:#000000;stroke-width:0.8;" x="303.545455" xlink:href="#md08532c45c" y="345.6"/>
      </g>
     </g>
     <g id="text_3">
      <!-- 4.50 -->
      <g transform="translate(282.545455 368.99125)scale(0.24 -0.24)">
       <use xlink:href="#STIXGeneral-Regular-52"/>
       <use x="49.999985" xlink:href="#STIXGeneral-Regular-46"/>
       <use x="74.999969" xlink:href="#STIXGeneral-Regular-53"/>
       <use x="124.999954" xlink:href="#STIXGeneral-Regular-48"/>
      </g>
     </g>
    </g>
    <g id="xtick_4">
     <g id="line2d_4">
      <g>
       <use style="fill:#ffffff;stroke:#000000;stroke-width:0.8;" x="392.318182" xlink:href="#md08532c45c" y="345.6"/>
      </g>
     </g>
     <g id="text_4">
      <!-- 4.75 -->
      <g transform="translate(371.318182 368.99125)scale(0.24 -0.24)">
       <defs>
        <path d="M 44.90625 64.59375 
L 23.703125 -0.796875 
L 17.203125 -0.796875 
L 37 58.796875 
L 15.5 58.796875 
Q 11.203125 58.796875 9.09375 57.296875 
Q 7 55.796875 3.796875 50.59375 
L 2 51.5 
L 8 66.203125 
L 44.90625 66.203125 
z
" id="STIXGeneral-Regular-55"/>
       </defs>
       <use xlink:href="#STIXGeneral-Regular-52"/>
       <use x="49.999985" xlink:href="#STIXGeneral-Regular-46"/>
       <use x="74.999969" xlink:href="#STIXGeneral-Regular-55"/>
       <use x="124.999954" xlink:href="#STIXGeneral-Regular-53"/>
      </g>
     </g>
    </g>
    <g id="xtick_5">
     <g id="line2d_5">
      <g>
       <use style="fill:#ffffff;stroke:#000000;stroke-width:0.8;" x="481.090909" xlink:href="#md08532c45c" y="345.6"/>
      </g>
     </g>
     <g id="text_5">
      <!-- 5.00 -->
      <g transform="translate(460.090909 368.99125)scale(0.24 -0.24)">
       <use xlink:href="#STIXGeneral-Regular-53"/>
       <use x="49.999985" xlink:href="#STIXGeneral-Regular-46"/>
       <use x="74.999969" xlink:href="#STIXGeneral-Regular-48"/>
       <use x="124.999954" xlink:href="#STIXGeneral-Regular-48"/>
      </g>
     </g>
    </g>
    <g id="text_6">
     <!-- $\^t$ -->
     <g transform="translate(300.185455 394.59125)scale(0.24 -0.24)">
      <defs>
       <path d="M -7.5 50.703125 
L -10.90625 50.703125 
L -23.09375 61 
L -35.203125 50.703125 
L -38.59375 50.703125 
L -26.203125 67.40625 
L -20 67.40625 
z
" id="STIXGeneral-Regular-770"/>
       <path d="M 29.59375 42.796875 
L 29.09375 39.59375 
L 20.703125 39.59375 
L 12 6.796875 
Q 11.796875 6 11.796875 5.40625 
Q 11.796875 3.796875 13.296875 3.796875 
Q 14.5 3.796875 16.09375 5.34375 
Q 17.703125 6.90625 21.40625 11.703125 
L 22.703125 11 
Q 18.09375 4 15.140625 1.453125 
Q 12.203125 -1.09375 8.40625 -1.09375 
Q 3.796875 -1.09375 3.796875 2.59375 
Q 3.796875 3.59375 5.40625 10 
L 13.203125 39.59375 
L 5.703125 39.59375 
L 5.59375 40.203125 
Q 5.59375 42 8.90625 42.703125 
Q 11.40625 43.296875 15.5 46.546875 
Q 19.59375 49.796875 22.203125 53.703125 
Q 22.796875 54.59375 23.59375 54.59375 
Q 24.5 54.59375 24.5 53.796875 
Q 24.5 53.296875 24.40625 53.09375 
L 21.59375 42.796875 
z
" id="STIXGeneral-Italic-116"/>
      </defs>
      <use transform="translate(39.042969 16.59375)" xlink:href="#STIXGeneral-Regular-770"/>
      <use transform="translate(0 0.203125)" xlink:href="#STIXGeneral-Italic-116"/>
     </g>
    </g>
   </g>
   <g id="matplotlib.axis_2">
    <g id="ytick_1">
     <g id="line2d_6">
      <defs>
       <path d="M 0 0 
L -3.5 0 
" id="ma87aa39d18" style="stroke:#000000;stroke-width:0.8;"/>
      </defs>
      <g>
       <use style="fill:#ffffff;stroke:#000000;stroke-width:0.8;" x="126" xlink:href="#ma87aa39d18" y="280.8"/>
      </g>
     </g>
     <g id="text_7">
      <!-- 0 -->
      <g transform="translate(107 288.995625)scale(0.24 -0.24)">
       <use xlink:href="#STIXGeneral-Regular-48"/>
      </g>
     </g>
    </g>
    <g id="ytick_2">
     <g id="line2d_7">
      <g>
       <use style="fill:#ffffff;stroke:#000000;stroke-width:0.8;" x="126" xlink:href="#ma87aa39d18" y="194.4"/>
      </g>
     </g>
     <g id="text_8">
      <!-- 2 -->
      <g transform="translate(107 202.595625)scale(0.24 -0.24)">
       <use xlink:href="#STIXGeneral-Regular-50"/>
      </g>
     </g>
    </g>
    <g id="ytick_3">
     <g id="line2d_8">
      <g>
       <use style="fill:#ffffff;stroke:#000000;stroke-width:0.8;" x="126" xlink:href="#ma87aa39d18" y="108"/>
      </g>
     </g>
     <g id="text_9">
      <!-- 4 -->
      <g transform="translate(107 116.195625)scale(0.24 -0.24)">
       <use xlink:href="#STIXGeneral-Regular-52"/>
      </g>
     </g>
    </g>
    <g id="text_10">
     <!-- $C_L$ -->
     <g transform="translate(97.79125 229.32)rotate(-90)scale(0.24 -0.24)">
      <defs>
       <path d="M 68.90625 66.40625 
L 65.203125 46.40625 
L 63.40625 46.703125 
Q 61.59375 63 48.5 63 
Q 37.59375 63 28.59375 53.296875 
Q 23.296875 47.703125 20.546875 39.703125 
Q 17.796875 31.703125 17.796875 23.203125 
Q 17.796875 2.703125 35.296875 2.703125 
Q 41.5 2.703125 46.640625 5.296875 
Q 51.796875 7.90625 58.203125 14.59375 
L 60 13.09375 
Q 53.296875 5.203125 46.84375 1.703125 
Q 40.40625 -1.796875 32.703125 -1.796875 
Q 21 -1.796875 13.796875 5.140625 
Q 6.59375 12.09375 6.59375 24.296875 
Q 6.59375 34.59375 11.6875 43.9375 
Q 16.796875 53.296875 25.296875 59.296875 
Q 35.5 66.59375 47.203125 66.59375 
Q 54.09375 66.59375 58.90625 64.90625 
Q 60.90625 64.203125 63 64.203125 
Q 65.703125 64.203125 66.796875 66.40625 
z
" id="STIXGeneral-Italic-67"/>
       <path d="M 55.90625 18 
L 50.09375 0 
L -0.796875 0 
L -0.796875 1.59375 
Q 3.40625 2 4.703125 3.296875 
Q 6 4.59375 7.40625 9.40625 
L 19.59375 53.203125 
Q 20.703125 56.90625 20.703125 59.40625 
Q 20.703125 61.59375 19.140625 62.5 
Q 17.59375 63.40625 13 63.703125 
L 13 65.296875 
L 40.296875 65.296875 
L 40.296875 63.703125 
Q 35.703125 63.40625 33.546875 61.796875 
Q 31.40625 60.203125 30.203125 56 
L 18.203125 13.09375 
Q 17.203125 9.296875 17.203125 7.703125 
Q 17.203125 5.40625 19.390625 4.5 
Q 21.59375 3.59375 27.703125 3.59375 
Q 35.40625 3.59375 38.75 4.296875 
Q 42.09375 5 45.703125 7.40625 
Q 49.796875 10.09375 53.90625 18.59375 
z
" id="STIXGeneral-Italic-76"/>
      </defs>
      <use transform="translate(0 0.40625)" xlink:href="#STIXGeneral-Italic-67"/>
      <use transform="translate(66.699997 -12.821875)scale(0.7)" xlink:href="#STIXGeneral-Italic-76"/>
     </g>
    </g>
   </g>
   <g id="line2d_9">
    <path clip-path="url(#p8436f66113)" d="M 125.644909 311.752951 
L 126.355091 312.740334 
L 127.065273 313.31111 
L 127.775455 313.481511 
L 128.485636 313.271461 
L 129.195818 312.704536 
L 129.906 311.801296 
L 130.616182 310.589873 
L 131.681455 308.252505 
L 132.746727 305.379241 
L 134.167091 300.88124 
L 135.942545 294.48608 
L 138.783273 283.252885 
L 145.885091 254.688448 
L 148.725818 244.361127 
L 151.211455 236.007594 
L 153.342 229.554732 
L 155.117455 224.898196 
L 156.537818 221.815773 
L 157.603091 219.953901 
L 158.668364 218.550279 
L 159.378545 217.89377 
L 160.088727 217.483034 
L 160.798909 217.334547 
L 161.509091 217.463368 
L 162.219273 217.887433 
L 162.929455 218.619618 
L 163.639636 219.675596 
L 164.349818 221.073652 
L 165.415091 223.845776 
L 166.480364 227.463781 
L 167.545636 231.944532 
L 168.610909 237.307605 
L 170.031273 245.819652 
L 170.386364 248.221668 
L 170.741455 249.429616 
L 171.096545 247.314302 
L 171.451636 246.517642 
L 172.161818 245.618768 
L 173.937273 243.261176 
L 175.712727 241.254265 
L 177.843273 239.212868 
L 179.973818 237.465359 
L 182.814545 235.416258 
L 186.365455 233.103319 
L 192.046909 229.667268 
L 197.373273 226.640793 
L 202.699636 223.865841 
L 206.960727 221.867582 
L 211.221818 220.085169 
L 215.127818 218.63492 
L 220.809273 216.798564 
L 226.845818 215.137765 
L 232.527273 213.786684 
L 237.853636 212.671269 
L 241.049455 212.085074 
L 243.535091 211.635639 
L 246.730909 211.128368 
L 249.216545 210.73558 
L 252.412364 210.291906 
L 254.898 209.945634 
L 258.093818 209.563275 
L 259.159091 209.436745 
L 259.514182 209.007298 
L 260.224364 206.313229 
L 261.644727 201.683167 
L 264.485455 191.328483 
L 268.391455 176.9333 
L 270.166909 171.209926 
L 271.587273 167.37582 
L 272.652545 165.05604 
L 273.717818 163.312633 
L 274.428 162.489844 
L 275.138182 161.985903 
L 275.848364 161.801497 
L 276.203455 161.814661 
L 276.913636 162.140185 
L 277.623818 162.818349 
L 278.334 163.857413 
L 279.044182 165.278081 
L 280.109455 168.104375 
L 281.174727 171.771925 
L 282.24 176.264056 
L 283.660364 183.500346 
L 285.080727 192.062992 
L 286.856182 204.388084 
L 288.986727 221.017138 
L 296.443636 281.464153 
L 297.864 290.791933 
L 299.284364 298.70469 
L 300.349636 303.600859 
L 301.414909 307.548297 
L 302.480182 310.528827 
L 303.190364 311.975486 
L 303.900545 312.99781 
L 304.610727 313.60549 
L 305.320909 313.813948 
L 306.031091 313.640948 
L 306.741273 313.111775 
L 307.451455 312.248598 
L 308.161636 311.074771 
L 309.226909 308.795861 
L 310.292182 305.982107 
L 311.712545 301.542321 
L 313.488 295.200716 
L 316.328727 283.977225 
L 324.140727 252.482883 
L 327.336545 240.993555 
L 329.822182 232.888073 
L 331.952727 226.807282 
L 333.373091 223.397184 
L 334.438364 221.250126 
L 335.503636 219.526289 
L 336.568909 218.27862 
L 337.279091 217.739103 
L 337.989273 217.456091 
L 338.699455 217.44417 
L 339.409636 217.711922 
L 340.119818 218.28556 
L 340.83 219.183989 
L 341.540182 220.409063 
L 342.605455 222.912071 
L 343.670727 226.232183 
L 344.736 230.417256 
L 345.801273 235.474989 
L 347.221636 243.575048 
L 347.931818 248.240583 
L 348.286909 249.44106 
L 348.642 247.320516 
L 348.997091 246.506949 
L 349.352182 246.130573 
L 350.772545 244.1146 
L 352.192909 242.334624 
L 353.613273 240.762413 
L 355.388727 239.018163 
L 358.939636 236.104734 
L 365.331273 231.756259 
L 377.404364 224.724279 
L 382.375636 222.269323 
L 386.991818 220.273421 
L 391.252909 218.661064 
L 395.514 217.25059 
L 400.130182 215.908179 
L 406.521818 214.316921 
L 413.978727 212.763631 
L 420.370364 211.630949 
L 427.117091 210.603454 
L 436.704545 209.422761 
L 437.059636 208.986532 
L 437.769818 206.30115 
L 439.190182 201.675323 
L 441.675818 192.683839 
L 446.292 175.79479 
L 448.067455 170.274723 
L 449.487818 166.658689 
L 450.553091 164.538904 
L 451.263273 163.44676 
L 451.973455 162.641361 
L 452.683636 162.140483 
L 453.393818 161.961991 
L 454.104 162.121724 
L 454.814182 162.633093 
L 455.524364 163.501932 
L 456.234545 164.740619 
L 456.944727 166.355631 
L 458.01 169.479531 
L 459.075273 173.445999 
L 460.140545 178.231099 
L 461.560909 185.83155 
L 462.981273 194.718517 
L 464.756727 207.379 
L 466.887273 224.261701 
L 473.634 279.120803 
L 475.409455 290.909828 
L 476.829818 298.783277 
L 477.895091 303.654322 
L 478.960364 307.580945 
L 480.025636 310.538024 
L 480.735818 311.972197 
L 481.090909 312.529897 
L 481.090909 312.529897 
" style="fill:none;stroke:#1f77b4;stroke-linecap:square;stroke-width:4;"/>
   </g>
   <g id="line2d_10">
    <path clip-path="url(#p8436f66113)" d="M 125.644909 284.937963 
L 126.710182 283.184821 
L 128.130545 280.295363 
L 129.906 276.080225 
L 135.232364 262.978725 
L 137.007818 259.395929 
L 138.428182 256.976554 
L 139.848545 254.947059 
L 141.624 252.830704 
L 146.240182 247.632029 
L 147.660545 245.561221 
L 149.080909 243.119525 
L 150.856364 239.553525 
L 153.342 233.890589 
L 157.603091 224.066903 
L 159.378545 220.512141 
L 160.798909 218.080238 
L 162.219273 216.112097 
L 163.284545 214.99343 
L 164.349818 214.226561 
L 165.06 213.928504 
L 165.770182 213.814384 
L 166.480364 213.893384 
L 167.190545 214.175009 
L 167.900727 214.668961 
L 168.610909 215.383547 
L 169.676182 216.884015 
L 170.386364 218.195275 
L 170.741455 218.396591 
L 171.096545 217.186679 
L 171.806727 216.090722 
L 173.582182 213.707641 
L 175.357636 211.668613 
L 177.133091 209.948139 
L 178.908545 208.507276 
L 181.039091 207.089168 
L 183.524727 205.767869 
L 186.010364 204.697593 
L 189.561273 203.44461 
L 194.532545 201.986197 
L 201.634364 200.197934 
L 222.939818 195.330832 
L 231.106909 193.720045 
L 236.433273 192.863013 
L 247.086 191.728137 
L 257.738727 191.37498 
L 262.354909 191.424566 
L 264.840545 191.52087 
L 266.616 191.806198 
L 268.036364 192.249463 
L 269.456727 192.972714 
L 270.522 193.729356 
L 271.587273 194.711267 
L 272.652545 195.947967 
L 274.072909 198.060635 
L 275.138182 200.015862 
L 276.203455 202.316192 
L 277.623818 205.964552 
L 279.044182 210.289845 
L 280.464545 215.281241 
L 282.24 222.408153 
L 284.370545 232.068378 
L 287.566364 247.915944 
L 290.762182 263.55102 
L 292.537636 271.263706 
L 293.958 276.573049 
L 295.378364 280.942499 
L 296.443636 283.515701 
L 297.508909 285.460118 
L 298.219091 286.390998 
L 298.929273 287.031343 
L 299.639455 287.385842 
L 300.349636 287.45903 
L 301.059818 287.263115 
L 301.77 286.8132 
L 302.480182 286.124987 
L 303.545455 284.691548 
L 304.610727 282.843453 
L 306.031091 279.872295 
L 308.161636 274.743664 
L 312.067636 265.145591 
L 313.843091 261.357337 
L 315.618545 258.172338 
L 317.038909 256.053848 
L 318.814364 253.859934 
L 324.140727 247.701061 
L 325.561091 245.504195 
L 326.981455 242.923534 
L 328.756909 239.190354 
L 331.242545 233.35348 
L 335.503636 223.411071 
L 337.279091 219.871265 
L 338.699455 217.484096 
L 340.119818 215.576879 
L 341.185091 214.534196 
L 342.250364 213.847454 
L 342.960545 213.614744 
L 343.670727 213.571627 
L 344.380909 213.726189 
L 345.091091 214.092728 
L 345.801273 214.672843 
L 346.511455 215.481838 
L 347.221636 216.515329 
L 347.931818 217.809333 
L 348.286909 218.001775 
L 348.642 216.785544 
L 349.352182 215.677041 
L 351.127636 213.247882 
L 353.258182 210.803362 
L 355.388727 208.809102 
L 357.519273 207.194723 
L 360.004909 205.702546 
L 361.780364 204.807485 
L 365.686364 203.232686 
L 368.172 202.386221 
L 376.339091 200.1395 
L 382.730727 198.684926 
L 393.738545 196.379443 
L 405.811636 194.050302 
L 412.913455 192.938549 
L 419.660182 192.14947 
L 424.986545 191.724077 
L 431.023091 191.471756 
L 436.349455 191.461151 
L 442.741091 191.669811 
L 444.516545 192.020297 
L 445.936909 192.538809 
L 447.357273 193.34296 
L 448.422545 194.180325 
L 449.487818 195.25156 
L 450.553091 196.592938 
L 451.618364 198.230531 
L 453.038727 200.926625 
L 454.459091 204.252962 
L 455.879455 208.244214 
L 457.299818 212.910272 
L 459.075273 219.660331 
L 460.850727 227.324392 
L 463.336364 239.208193 
L 468.662727 265.352542 
L 470.438182 272.826907 
L 471.858545 277.891863 
L 472.923818 281.055931 
L 473.989091 283.613847 
L 475.054364 285.53509 
L 475.764545 286.452758 
L 476.474727 287.078582 
L 477.184909 287.416858 
L 477.895091 287.47627 
L 478.605273 287.26656 
L 479.315455 286.802514 
L 480.025636 286.102104 
L 481.090909 284.651317 
L 481.090909 284.651317 
" style="fill:none;stroke:#ff7f0e;stroke-linecap:square;stroke-width:4;"/>
   </g>
   <g id="line2d_11">
    <path clip-path="url(#p8436f66113)" d="M 125.644909 279.498592 
L 127.065273 276.801349 
L 128.840727 272.797245 
L 132.036545 264.766399 
L 134.877273 257.795488 
L 137.007818 253.111011 
L 139.138364 248.972709 
L 141.268909 245.306388 
L 143.044364 242.603715 
L 144.464727 240.752213 
L 145.885091 239.222032 
L 147.305455 237.995369 
L 152.631818 233.777437 
L 154.052182 232.165857 
L 155.472545 230.234891 
L 157.248 227.375889 
L 159.023455 224.075169 
L 161.509091 218.904074 
L 165.415091 210.629882 
L 166.835455 208.137082 
L 167.900727 206.652321 
L 168.966 205.589323 
L 169.676182 205.151097 
L 170.386364 204.959322 
L 170.741455 204.624871 
L 171.451636 202.650862 
L 173.582182 198.822227 
L 175.002545 196.778074 
L 176.422909 195.122575 
L 177.843273 193.814708 
L 179.263636 192.809344 
L 180.684 192.06441 
L 182.104364 191.533206 
L 183.879818 191.106637 
L 186.010364 190.843672 
L 188.851091 190.736608 
L 204.12 190.571624 
L 211.221818 190.104654 
L 221.874545 189.361164 
L 227.911091 189.171181 
L 237.853636 189.161423 
L 243.18 189.201291 
L 249.926727 189.218239 
L 257.383636 189.280579 
L 259.514182 189.378495 
L 260.224364 189.823611 
L 261.999818 190.781284 
L 263.775273 191.974556 
L 265.550727 193.451104 
L 266.971091 194.870064 
L 268.391455 196.541008 
L 269.811818 198.488124 
L 271.232182 200.761913 
L 272.652545 203.395559 
L 274.428 207.250958 
L 276.203455 211.78521 
L 277.978909 217.043309 
L 279.754364 223.00241 
L 281.884909 231.011072 
L 284.725636 242.768513 
L 289.696909 263.617626 
L 291.472364 270.098713 
L 292.892727 274.555499 
L 294.313091 278.212957 
L 295.378364 280.366214 
L 296.443636 281.96663 
L 297.153818 282.725586 
L 297.864 283.233842 
L 298.574182 283.491815 
L 299.284364 283.50609 
L 299.994545 283.284503 
L 300.704727 282.838166 
L 301.414909 282.179769 
L 302.480182 280.827741 
L 303.545455 279.088476 
L 304.965818 276.279555 
L 306.741273 272.20073 
L 314.198182 254.205895 
L 316.328727 249.976875 
L 318.459273 246.242394 
L 320.589818 242.979341 
L 322.010182 241.140442 
L 323.430545 239.624028 
L 324.850909 238.406402 
L 329.822182 234.443213 
L 331.242545 232.81698 
L 332.662909 230.841163 
L 334.083273 228.513854 
L 335.858727 225.137421 
L 337.989273 220.559171 
L 342.960545 209.472632 
L 344.380909 206.937153 
L 345.446182 205.450027 
L 346.511455 204.410485 
L 347.221636 203.989351 
L 347.931818 203.824731 
L 348.286909 203.504834 
L 348.997091 201.557337 
L 351.127636 197.821164 
L 352.548 195.834976 
L 353.968364 194.231651 
L 355.388727 192.970119 
L 356.809091 192.006613 
L 358.584545 191.163645 
L 360.004909 190.712566 
L 361.780364 190.357477 
L 364.621091 190.119995 
L 382.020545 189.734205 
L 393.028364 188.942579 
L 399.775091 188.618646 
L 405.811636 188.55716 
L 417.529636 188.751034 
L 437.059636 189.152625 
L 437.769818 189.60768 
L 439.545273 190.585752 
L 441.320727 191.797352 
L 443.096182 193.289928 
L 444.871636 195.120879 
L 446.292 196.870406 
L 447.712364 198.912732 
L 449.132727 201.285929 
L 450.553091 204.028286 
L 451.973455 207.177055 
L 453.748909 211.728469 
L 455.524364 216.995106 
L 457.299818 222.970931 
L 459.430364 230.997935 
L 462.271091 242.776927 
L 467.242364 263.644107 
L 469.017818 270.122212 
L 470.438182 274.576743 
L 471.858545 278.225094 
L 472.923818 280.367164 
L 473.989091 281.961616 
L 474.699273 282.711833 
L 475.409455 283.210068 
L 476.119636 283.459189 
L 476.829818 283.464082 
L 477.54 283.232724 
L 478.250182 282.775898 
L 478.960364 282.106952 
L 480.025636 280.738504 
L 481.090909 278.985722 
L 481.090909 278.985722 
" style="fill:none;stroke:#2ca02c;stroke-linecap:square;stroke-width:4;"/>
   </g>
   <g id="line2d_12">
    <path clip-path="url(#p8436f66113)" d="M 125.644909 277.522599 
L 127.065273 274.617144 
L 128.840727 270.312688 
L 130.971273 264.428741 
L 135.232364 252.284435 
L 137.007818 248.055095 
L 139.493455 242.898643 
L 141.268909 239.573295 
L 142.689273 237.382433 
L 143.754545 236.128389 
L 144.819818 235.200543 
L 145.885091 234.551465 
L 147.305455 233.954381 
L 149.791091 232.974492 
L 150.856364 232.35062 
L 151.921636 231.518261 
L 152.986909 230.445621 
L 154.407273 228.645089 
L 156.182727 225.88087 
L 159.378545 220.254082 
L 161.864182 216.130396 
L 163.639636 213.621536 
L 165.06 211.971369 
L 166.480364 210.701246 
L 167.545636 210.032524 
L 168.610909 209.63539 
L 169.676182 209.535029 
L 170.386364 209.655374 
L 170.741455 209.539002 
L 171.451636 208.357708 
L 174.647455 205.002833 
L 177.488182 202.464867 
L 182.104364 198.362046 
L 185.655273 194.844425 
L 193.467273 186.81455 
L 194.887636 185.72563 
L 196.308 184.886524 
L 197.728364 184.321351 
L 199.148727 184.028567 
L 200.569091 183.986291 
L 201.989455 184.155354 
L 203.764909 184.590227 
L 206.250545 185.464431 
L 216.193091 189.255304 
L 219.388909 190.106678 
L 221.874545 190.556535 
L 224.360182 190.784575 
L 226.845818 190.781952 
L 229.686545 190.518296 
L 232.882364 189.975054 
L 242.469818 188.23232 
L 244.955455 188.029143 
L 248.506364 188.004422 
L 252.767455 188.314717 
L 259.159091 189.169209 
L 259.514182 189.302986 
L 260.224364 189.917614 
L 261.644727 191.032574 
L 263.420182 192.711746 
L 265.195636 194.736408 
L 266.971091 197.138275 
L 268.746545 199.9409 
L 270.522 203.185047 
L 272.297455 206.90404 
L 274.072909 211.142033 
L 275.848364 215.926108 
L 277.623818 221.26578 
L 279.754364 228.401491 
L 282.24 237.582655 
L 290.407091 268.733972 
L 291.827455 273.064557 
L 293.247818 276.706341 
L 294.313091 278.910711 
L 295.378364 280.629415 
L 296.443636 281.826075 
L 297.153818 282.334161 
L 297.864 282.608843 
L 298.574182 282.652135 
L 299.284364 282.471489 
L 299.994545 282.075407 
L 300.704727 281.474721 
L 301.77 280.213605 
L 302.835273 278.557401 
L 304.255636 275.812629 
L 305.676 272.546258 
L 307.451455 267.86216 
L 309.937091 260.558134 
L 312.777818 252.337422 
L 314.553273 247.882826 
L 317.394 241.450769 
L 318.814364 238.638095 
L 319.879636 236.934464 
L 320.944909 235.658655 
L 322.010182 234.78884 
L 323.075455 234.230843 
L 324.495818 233.763376 
L 326.626364 233.049628 
L 327.691636 232.475116 
L 328.756909 231.663135 
L 329.822182 230.584815 
L 330.887455 229.237846 
L 332.307818 227.030528 
L 334.083273 223.760153 
L 337.989273 216.23968 
L 339.409636 213.976421 
L 340.83 212.156555 
L 341.895273 211.108779 
L 342.960545 210.331264 
L 344.025818 209.83025 
L 345.091091 209.598701 
L 346.156364 209.630101 
L 347.221636 209.923521 
L 347.931818 210.269045 
L 348.286909 210.251534 
L 348.642 209.629131 
L 349.707273 208.569534 
L 355.388727 203.263192 
L 357.874364 200.914579 
L 360.36 198.239521 
L 362.845636 195.237728 
L 370.657636 185.324994 
L 372.078 183.979317 
L 373.143273 183.174929 
L 374.563636 182.416113 
L 375.984 182.008415 
L 377.404364 181.921674 
L 378.824727 182.106661 
L 380.600182 182.630626 
L 382.730727 183.536324 
L 391.608 187.642507 
L 394.448727 188.59666 
L 397.289455 189.322774 
L 400.130182 189.820512 
L 402.970909 190.094515 
L 405.811636 190.165045 
L 409.362545 190.021471 
L 414.333818 189.575728 
L 421.435636 188.982547 
L 425.696727 188.85949 
L 430.668 188.979288 
L 436.704545 189.372556 
L 437.059636 189.477838 
L 437.769818 190.043197 
L 439.190182 191.055894 
L 440.965636 192.619073 
L 442.741091 194.539282 
L 444.516545 196.851037 
L 446.292 199.587965 
L 448.067455 202.788682 
L 449.842909 206.49433 
L 451.618364 210.741852 
L 453.393818 215.560664 
L 455.169273 220.960566 
L 457.299818 228.178185 
L 459.785455 237.46725 
L 467.597455 267.66478 
L 469.372909 273.167589 
L 470.793273 276.790256 
L 471.858545 278.974863 
L 472.923818 280.661343 
L 473.989091 281.827381 
L 474.699273 282.308957 
L 475.409455 282.555275 
L 476.119636 282.569749 
L 476.829818 282.360378 
L 477.54 281.935841 
L 478.250182 281.3058 
L 479.315455 280.002551 
L 480.380727 278.310245 
L 481.090909 276.989511 
L 481.090909 276.989511 
" style="fill:none;stroke:#d62728;stroke-linecap:square;stroke-width:4;"/>
   </g>
   <g id="line2d_13">
    <path clip-path="url(#p8436f66113)" d="M 125.644909 277.246057 
L 127.065273 274.149699 
L 128.485636 270.540661 
L 130.616182 264.386787 
L 135.587455 249.465064 
L 137.362909 244.992342 
L 139.138364 241.137471 
L 140.558727 238.509036 
L 141.624 236.890262 
L 142.689273 235.644745 
L 143.754545 234.806453 
L 144.819818 234.350064 
L 145.885091 234.199404 
L 147.305455 234.286175 
L 149.080909 234.426325 
L 150.146182 234.309781 
L 151.211455 233.958592 
L 152.276727 233.374104 
L 153.697091 232.296139 
L 155.117455 230.959897 
L 156.537818 229.364198 
L 157.958182 227.417722 
L 159.378545 224.998494 
L 160.798909 222.074813 
L 163.284545 216.218218 
L 165.06 212.185745 
L 166.480364 209.473066 
L 167.545636 207.872798 
L 168.610909 206.708442 
L 169.321091 206.191308 
L 170.031273 205.891287 
L 170.386364 205.820314 
L 170.741455 205.627715 
L 171.451636 204.570505 
L 173.227091 202.963742 
L 174.647455 201.983088 
L 176.422909 201.04794 
L 178.553455 200.208547 
L 181.394182 199.358556 
L 186.365455 197.916369 
L 189.561273 196.699269 
L 193.112182 195.343132 
L 194.887636 194.874391 
L 196.663091 194.635105 
L 198.438545 194.632911 
L 200.569091 194.885183 
L 204.475091 195.677039 
L 207.670909 196.215504 
L 210.511636 196.439842 
L 213.352364 196.424801 
L 216.903273 196.16921 
L 222.939818 195.448979 
L 231.462 194.474587 
L 237.143455 194.049891 
L 243.535091 193.874749 
L 250.281818 194.078172 
L 255.253091 194.399754 
L 259.159091 194.675836 
L 259.514182 194.780644 
L 260.224364 195.335969 
L 261.644727 196.365538 
L 263.065091 197.628005 
L 264.840545 199.555038 
L 266.616 201.877156 
L 268.391455 204.613338 
L 270.166909 207.77235 
L 271.942364 211.382741 
L 273.717818 215.464437 
L 275.848364 221.023357 
L 277.978909 227.310546 
L 280.109455 234.286423 
L 282.950182 244.440306 
L 288.986727 266.416563 
L 290.762182 271.912757 
L 292.182545 275.65986 
L 293.247818 278.016679 
L 294.313091 279.928871 
L 295.378364 281.373691 
L 296.443636 282.321954 
L 297.153818 282.678477 
L 297.864 282.814613 
L 298.574182 282.733196 
L 299.284364 282.440126 
L 299.994545 281.945343 
L 301.059818 280.84465 
L 302.125091 279.34379 
L 303.190364 277.483449 
L 304.610727 274.509494 
L 306.386182 270.116474 
L 308.516727 264.094783 
L 314.908364 245.351061 
L 316.328727 242.019101 
L 317.749091 239.182117 
L 319.169455 236.785489 
L 320.234727 235.309695 
L 321.3 234.207637 
L 322.010182 233.714202 
L 322.720364 233.421092 
L 323.430545 233.318323 
L 324.495818 233.459038 
L 325.916182 233.964741 
L 327.336545 234.477824 
L 328.401818 234.630962 
L 329.112 234.542547 
L 329.822182 234.267475 
L 330.532364 233.784184 
L 331.242545 233.079316 
L 332.307818 231.609639 
L 333.373091 229.682393 
L 334.793455 226.570394 
L 337.279091 220.419524 
L 339.764727 214.469519 
L 341.185091 211.514349 
L 342.605455 209.026612 
L 343.670727 207.50817 
L 344.736 206.315899 
L 345.801273 205.480908 
L 346.511455 205.128813 
L 347.221636 204.949455 
L 348.286909 204.846743 
L 348.997091 203.939132 
L 350.772545 202.649527 
L 352.192909 201.921235 
L 353.613273 201.475566 
L 354.678545 201.31718 
L 356.098909 201.343477 
L 357.874364 201.69933 
L 362.845636 202.985245 
L 364.266 202.943016 
L 365.686364 202.636801 
L 367.461818 201.932882 
L 369.237273 200.975214 
L 372.433091 198.88354 
L 377.404364 195.630372 
L 379.89 194.294541 
L 382.020545 193.37747 
L 384.151091 192.681153 
L 386.281636 192.198055 
L 388.412182 191.915203 
L 390.897818 191.805929 
L 393.738545 191.920738 
L 397.289455 192.324312 
L 402.615818 193.191596 
L 410.427818 194.428391 
L 415.399091 194.966099 
L 420.370364 195.25881 
L 425.696727 195.323608 
L 432.443455 195.15272 
L 437.059636 195.013589 
L 437.769818 195.483239 
L 439.190182 196.335103 
L 440.610545 197.426003 
L 442.030909 198.767514 
L 443.451273 200.375947 
L 445.226727 202.775465 
L 447.002182 205.62751 
L 448.777636 208.961159 
L 450.553091 212.804133 
L 452.328545 217.181553 
L 454.104 222.111904 
L 456.234545 228.738493 
L 458.720182 237.340094 
L 461.916 249.338924 
L 465.822 263.917695 
L 467.597455 269.82587 
L 469.017818 273.956355 
L 470.438182 277.418192 
L 471.503455 279.505894 
L 472.568727 281.115461 
L 473.634 282.22443 
L 474.344182 282.678556 
L 475.054364 282.904623 
L 475.764545 282.904578 
L 476.474727 282.683901 
L 477.184909 282.250833 
L 477.895091 281.614508 
L 478.960364 280.301447 
L 480.025636 278.59546 
L 481.090909 276.53666 
L 481.090909 276.53666 
" style="fill:none;stroke:#9467bd;stroke-linecap:square;stroke-width:4;"/>
   </g>
   <g id="line2d_14">
    <path clip-path="url(#p8436f66113)" d="M 126 280.8 
L 481.090909 280.8 
" style="fill:none;stroke:#000000;stroke-dasharray:3.2,0.8,0.5,0.8;stroke-dashoffset:0;stroke-width:0.5;"/>
   </g>
   <g id="line2d_15">
    <path clip-path="url(#p8436f66113)" d="M 303.545455 345.6 
L 303.545455 86.4 
" style="fill:none;stroke:#000000;stroke-dasharray:3.2,0.8,0.5,0.8;stroke-dashoffset:0;stroke-width:0.5;"/>
   </g>
   <g id="patch_3">
    <path d="M 126 345.6 
L 126 86.4 
" style="fill:none;stroke:#000000;stroke-linecap:square;stroke-linejoin:miter;stroke-width:0.8;"/>
   </g>
   <g id="patch_4">
    <path d="M 481.090909 345.6 
L 481.090909 86.4 
" style="fill:none;stroke:#000000;stroke-linecap:square;stroke-linejoin:miter;stroke-width:0.8;"/>
   </g>
   <g id="patch_5">
    <path d="M 126 345.6 
L 481.090909 345.6 
" style="fill:none;stroke:#000000;stroke-linecap:square;stroke-linejoin:miter;stroke-width:0.8;"/>
   </g>
   <g id="patch_6">
    <path d="M 126 86.4 
L 481.090909 86.4 
" style="fill:none;stroke:#000000;stroke-linecap:square;stroke-linejoin:miter;stroke-width:0.8;"/>
   </g>
   <g id="legend_1">
    <g id="line2d_16">
     <path d="M 105.561356 59.55 
L 145.545356 59.55 
" style="fill:none;stroke:#1f77b4;stroke-linecap:square;stroke-width:4;"/>
    </g>
    <g id="line2d_17"/>
    <g id="text_11">
     <!-- AR = 1.5 -->
     <g transform="translate(161.538956 66.5472)scale(0.19992 -0.19992)">
      <defs>
       <path d="M 70.703125 0 
L 45.203125 0 
L 45.203125 1.90625 
Q 49.203125 1.90625 50.703125 2.796875 
Q 52.09375 3.5 52.09375 5.203125 
Q 52.09375 7.796875 50.203125 12.203125 
L 46.09375 21.59375 
L 19.90625 21.59375 
L 15.296875 10.203125 
Q 14.40625 7.90625 14.40625 6 
Q 14.40625 3.703125 16.046875 2.796875 
Q 17.703125 1.90625 21.40625 1.90625 
L 21.40625 0 
L 1.5 0 
L 1.5 1.90625 
Q 5.703125 2.296875 7.59375 4.9375 
Q 9.5 7.59375 14.09375 18.59375 
L 34.703125 67.40625 
L 36.703125 67.40625 
L 61.296875 11.09375 
Q 63.5 5.90625 65.25 4.09375 
Q 67 2.296875 70.703125 1.90625 
z
M 44.703125 25.703125 
L 33.09375 53.203125 
L 21.59375 25.703125 
z
" id="STIXGeneral-Regular-65"/>
       <path d="M 66 0 
L 49.796875 0 
L 26 30.796875 
L 20.40625 30.59375 
L 20.40625 11.203125 
Q 20.40625 5.5 21.953125 3.890625 
Q 23.5 2.296875 29.296875 1.90625 
L 29.296875 0 
L 1.703125 0 
L 1.703125 1.90625 
Q 7.40625 2.40625 8.796875 4.09375 
Q 10.203125 5.796875 10.203125 12.40625 
L 10.203125 55.09375 
Q 10.203125 60.703125 8.796875 62.296875 
Q 7.40625 63.90625 1.703125 64.296875 
L 1.703125 66.203125 
L 28.90625 66.203125 
Q 42.59375 66.203125 49.796875 60.296875 
Q 54.703125 56.296875 54.703125 48.296875 
Q 54.703125 34.703125 36.59375 31.90625 
L 56.59375 6.59375 
Q 58.703125 4 60.59375 3.09375 
Q 62.5 2.203125 66 1.90625 
z
M 20.40625 58.296875 
L 20.40625 34.296875 
Q 27.59375 34.40625 31.09375 35.09375 
Q 34.59375 35.796875 38.09375 37.703125 
Q 43.796875 40.90625 43.796875 49.09375 
Q 43.796875 62.5 25.5 62.5 
Q 22.796875 62.5 21.59375 61.640625 
Q 20.40625 60.796875 20.40625 58.296875 
z
" id="STIXGeneral-Regular-82"/>
       <path id="STIXGeneral-Regular-32"/>
       <path d="M 63.703125 32 
L 4.796875 32 
L 4.796875 38.59375 
L 63.703125 38.59375 
z
M 63.703125 12 
L 4.796875 12 
L 4.796875 18.59375 
L 63.703125 18.59375 
z
" id="STIXGeneral-Regular-61"/>
       <path d="M 39.40625 0 
L 11.796875 0 
L 11.796875 1.5 
Q 17.296875 1.796875 19.296875 3.546875 
Q 21.296875 5.296875 21.296875 9.5 
L 21.296875 54.40625 
Q 21.296875 59.296875 18.296875 59.296875 
Q 16.90625 59.296875 13.796875 58.09375 
L 11.09375 57.09375 
L 11.09375 58.5 
L 29 67.59375 
L 29.90625 67.296875 
L 29.90625 7.59375 
Q 29.90625 4.296875 31.90625 2.890625 
Q 33.90625 1.5 39.40625 1.5 
z
" id="STIXGeneral-Regular-49"/>
      </defs>
      <use xlink:href="#STIXGeneral-Regular-65"/>
      <use x="72.199982" xlink:href="#STIXGeneral-Regular-82"/>
      <use x="138.899979" xlink:href="#STIXGeneral-Regular-32"/>
      <use x="163.899963" xlink:href="#STIXGeneral-Regular-61"/>
      <use x="232.399948" xlink:href="#STIXGeneral-Regular-32"/>
      <use x="257.399933" xlink:href="#STIXGeneral-Regular-49"/>
      <use x="307.399918" xlink:href="#STIXGeneral-Regular-46"/>
      <use x="332.399902" xlink:href="#STIXGeneral-Regular-53"/>
     </g>
    </g>
    <g id="line2d_18">
     <path d="M 277.973614 59.55 
L 317.957614 59.55 
" style="fill:none;stroke:#ff7f0e;stroke-linecap:square;stroke-width:4;"/>
    </g>
    <g id="line2d_19"/>
    <g id="text_12">
     <!-- AR = 3.0 -->
     <g transform="translate(333.951214 66.5472)scale(0.19992 -0.19992)">
      <defs>
       <path d="M 6.09375 51 
L 4.5 51.40625 
Q 6.796875 58.90625 11.6875 63.25 
Q 16.59375 67.59375 24.09375 67.59375 
Q 31.09375 67.59375 35.390625 63.796875 
Q 39.703125 60 39.703125 53.90625 
Q 39.703125 45.703125 30.40625 40.09375 
Q 35.90625 37.703125 38.703125 34.796875 
Q 43.09375 29.90625 43.09375 21.90625 
Q 43.09375 13.90625 38.5 7.90625 
Q 35.09375 3.296875 28.75 0.9375 
Q 22.40625 -1.40625 15.296875 -1.40625 
Q 4.09375 -1.40625 4.09375 4.296875 
Q 4.09375 5.90625 5.296875 6.90625 
Q 6.5 7.90625 8.203125 7.90625 
Q 10.703125 7.90625 14.296875 5.296875 
Q 18.703125 2.203125 22.90625 2.203125 
Q 28.40625 2.203125 32.15625 6.640625 
Q 35.90625 11.09375 35.90625 17.5 
Q 35.90625 29 25.5 32 
Q 22.40625 33 15.296875 33 
L 15.296875 34.40625 
Q 20.90625 36.296875 23.703125 38 
Q 31.796875 42.59375 31.796875 51.40625 
Q 31.796875 56.40625 28.9375 59 
Q 26.09375 61.59375 21 61.59375 
Q 12 61.59375 6.09375 51 
z
" id="STIXGeneral-Regular-51"/>
      </defs>
      <use xlink:href="#STIXGeneral-Regular-65"/>
      <use x="72.199982" xlink:href="#STIXGeneral-Regular-82"/>
      <use x="138.899979" xlink:href="#STIXGeneral-Regular-32"/>
      <use x="163.899963" xlink:href="#STIXGeneral-Regular-61"/>
      <use x="232.399948" xlink:href="#STIXGeneral-Regular-32"/>
      <use x="257.399933" xlink:href="#STIXGeneral-Regular-51"/>
      <use x="307.399918" xlink:href="#STIXGeneral-Regular-46"/>
      <use x="332.399902" xlink:href="#STIXGeneral-Regular-48"/>
     </g>
    </g>
    <g id="line2d_20">
     <path d="M 450.385871 59.55 
L 490.369871 59.55 
" style="fill:none;stroke:#2ca02c;stroke-linecap:square;stroke-width:4;"/>
    </g>
    <g id="line2d_21"/>
    <g id="text_13">
     <!-- AR = 4.5 -->
     <g transform="translate(506.363471 66.5472)scale(0.19992 -0.19992)">
      <use xlink:href="#STIXGeneral-Regular-65"/>
      <use x="72.199982" xlink:href="#STIXGeneral-Regular-82"/>
      <use x="138.899979" xlink:href="#STIXGeneral-Regular-32"/>
      <use x="163.899963" xlink:href="#STIXGeneral-Regular-61"/>
      <use x="232.399948" xlink:href="#STIXGeneral-Regular-32"/>
      <use x="257.399933" xlink:href="#STIXGeneral-Regular-52"/>
      <use x="307.399918" xlink:href="#STIXGeneral-Regular-46"/>
      <use x="332.399902" xlink:href="#STIXGeneral-Regular-53"/>
     </g>
    </g>
    <g id="line2d_22">
     <path d="M 622.798129 59.55 
L 662.782129 59.55 
" style="fill:none;stroke:#d62728;stroke-linecap:square;stroke-width:4;"/>
    </g>
    <g id="line2d_23"/>
    <g id="text_14">
     <!-- AR = 6.0 -->
     <g transform="translate(678.775729 66.5472)scale(0.19992 -0.19992)">
      <defs>
       <path d="M 44.59375 68.40625 
L 44.796875 66.796875 
Q 33 64.90625 25.09375 57.25 
Q 17.203125 49.59375 15.203125 38.296875 
Q 21 42.796875 27.90625 42.796875 
Q 36.703125 42.796875 41.75 37.1875 
Q 46.796875 31.59375 46.796875 21.90625 
Q 46.796875 12.09375 41.703125 5.90625 
Q 35.796875 -1.40625 25.796875 -1.40625 
Q 13.59375 -1.40625 8.09375 8.703125 
Q 3.40625 17.296875 3.40625 27.90625 
Q 3.40625 44.296875 14.296875 55.5 
Q 20.5 61.90625 27.046875 64.546875 
Q 33.59375 67.203125 44.59375 68.40625 
z
M 37.796875 18.796875 
Q 37.796875 38.203125 24.296875 38.203125 
Q 19.296875 38.203125 16 35.546875 
Q 12.703125 32.90625 12.703125 26.59375 
Q 12.703125 14.90625 16.34375 8.15625 
Q 20 1.40625 26.90625 1.40625 
Q 32.203125 1.40625 35 6.15625 
Q 37.796875 10.90625 37.796875 18.796875 
z
" id="STIXGeneral-Regular-54"/>
      </defs>
      <use xlink:href="#STIXGeneral-Regular-65"/>
      <use x="72.199982" xlink:href="#STIXGeneral-Regular-82"/>
      <use x="138.899979" xlink:href="#STIXGeneral-Regular-32"/>
      <use x="163.899963" xlink:href="#STIXGeneral-Regular-61"/>
      <use x="232.399948" xlink:href="#STIXGeneral-Regular-32"/>
      <use x="257.399933" xlink:href="#STIXGeneral-Regular-54"/>
      <use x="307.399918" xlink:href="#STIXGeneral-Regular-46"/>
      <use x="332.399902" xlink:href="#STIXGeneral-Regular-48"/>
     </g>
    </g>
    <g id="line2d_24">
     <path d="M 795.210386 59.55 
L 835.194386 59.55 
" style="fill:none;stroke:#9467bd;stroke-linecap:square;stroke-width:4;"/>
    </g>
    <g id="line2d_25"/>
    <g id="text_15">
     <!-- AR = 7.5 -->
     <g transform="translate(851.187986 66.5472)scale(0.19992 -0.19992)">
      <use xlink:href="#STIXGeneral-Regular-65"/>
      <use x="72.199982" xlink:href="#STIXGeneral-Regular-82"/>
      <use x="138.899979" xlink:href="#STIXGeneral-Regular-32"/>
      <use x="163.899963" xlink:href="#STIXGeneral-Regular-61"/>
      <use x="232.399948" xlink:href="#STIXGeneral-Regular-32"/>
      <use x="257.399933" xlink:href="#STIXGeneral-Regular-55"/>
      <use x="307.399918" xlink:href="#STIXGeneral-Regular-46"/>
      <use x="332.399902" xlink:href="#STIXGeneral-Regular-53"/>
     </g>
    </g>
   </g>
  </g>
  <g id="axes_2">
   <g id="patch_7">
    <path d="M 552.109091 345.6 
L 907.2 345.6 
L 907.2 86.4 
L 552.109091 86.4 
z
" style="fill:#ffffff;"/>
   </g>
   <g id="matplotlib.axis_3">
    <g id="xtick_6">
     <g id="line2d_26">
      <g>
       <use style="fill:#ffffff;stroke:#000000;stroke-width:0.8;" x="552.109091" xlink:href="#md08532c45c" y="345.6"/>
      </g>
     </g>
     <g id="text_16">
      <!-- 4.00 -->
      <g transform="translate(531.109091 368.99125)scale(0.24 -0.24)">
       <use xlink:href="#STIXGeneral-Regular-52"/>
       <use x="49.999985" xlink:href="#STIXGeneral-Regular-46"/>
       <use x="74.999969" xlink:href="#STIXGeneral-Regular-48"/>
       <use x="124.999954" xlink:href="#STIXGeneral-Regular-48"/>
      </g>
     </g>
    </g>
    <g id="xtick_7">
     <g id="line2d_27">
      <g>
       <use style="fill:#ffffff;stroke:#000000;stroke-width:0.8;" x="640.881818" xlink:href="#md08532c45c" y="345.6"/>
      </g>
     </g>
     <g id="text_17">
      <!-- 4.25 -->
      <g transform="translate(619.881818 368.99125)scale(0.24 -0.24)">
       <use xlink:href="#STIXGeneral-Regular-52"/>
       <use x="49.999985" xlink:href="#STIXGeneral-Regular-46"/>
       <use x="74.999969" xlink:href="#STIXGeneral-Regular-50"/>
       <use x="124.999954" xlink:href="#STIXGeneral-Regular-53"/>
      </g>
     </g>
    </g>
    <g id="xtick_8">
     <g id="line2d_28">
      <g>
       <use style="fill:#ffffff;stroke:#000000;stroke-width:0.8;" x="729.654545" xlink:href="#md08532c45c" y="345.6"/>
      </g>
     </g>
     <g id="text_18">
      <!-- 4.50 -->
      <g transform="translate(708.654545 368.99125)scale(0.24 -0.24)">
       <use xlink:href="#STIXGeneral-Regular-52"/>
       <use x="49.999985" xlink:href="#STIXGeneral-Regular-46"/>
       <use x="74.999969" xlink:href="#STIXGeneral-Regular-53"/>
       <use x="124.999954" xlink:href="#STIXGeneral-Regular-48"/>
      </g>
     </g>
    </g>
    <g id="xtick_9">
     <g id="line2d_29">
      <g>
       <use style="fill:#ffffff;stroke:#000000;stroke-width:0.8;" x="818.427273" xlink:href="#md08532c45c" y="345.6"/>
      </g>
     </g>
     <g id="text_19">
      <!-- 4.75 -->
      <g transform="translate(797.427273 368.99125)scale(0.24 -0.24)">
       <use xlink:href="#STIXGeneral-Regular-52"/>
       <use x="49.999985" xlink:href="#STIXGeneral-Regular-46"/>
       <use x="74.999969" xlink:href="#STIXGeneral-Regular-55"/>
       <use x="124.999954" xlink:href="#STIXGeneral-Regular-53"/>
      </g>
     </g>
    </g>
    <g id="xtick_10">
     <g id="line2d_30">
      <g>
       <use style="fill:#ffffff;stroke:#000000;stroke-width:0.8;" x="907.2" xlink:href="#md08532c45c" y="345.6"/>
      </g>
     </g>
     <g id="text_20">
      <!-- 5.00 -->
      <g transform="translate(886.2 368.99125)scale(0.24 -0.24)">
       <use xlink:href="#STIXGeneral-Regular-53"/>
       <use x="49.999985" xlink:href="#STIXGeneral-Regular-46"/>
       <use x="74.999969" xlink:href="#STIXGeneral-Regular-48"/>
       <use x="124.999954" xlink:href="#STIXGeneral-Regular-48"/>
      </g>
     </g>
    </g>
    <g id="text_21">
     <!-- $\^t$ -->
     <g transform="translate(726.294545 394.59125)scale(0.24 -0.24)">
      <use transform="translate(39.042969 16.59375)" xlink:href="#STIXGeneral-Regular-770"/>
      <use transform="translate(0 0.203125)" xlink:href="#STIXGeneral-Italic-116"/>
     </g>
    </g>
   </g>
   <g id="matplotlib.axis_4">
    <g id="ytick_4">
     <g id="line2d_31">
      <g>
       <use style="fill:#ffffff;stroke:#000000;stroke-width:0.8;" x="552.109091" xlink:href="#ma87aa39d18" y="280.8"/>
      </g>
     </g>
     <g id="text_22">
      <!-- 0 -->
      <g transform="translate(533.109091 288.995625)scale(0.24 -0.24)">
       <use xlink:href="#STIXGeneral-Regular-48"/>
      </g>
     </g>
    </g>
    <g id="ytick_5">
     <g id="line2d_32">
      <g>
       <use style="fill:#ffffff;stroke:#000000;stroke-width:0.8;" x="552.109091" xlink:href="#ma87aa39d18" y="194.4"/>
      </g>
     </g>
     <g id="text_23">
      <!-- 2 -->
      <g transform="translate(533.109091 202.595625)scale(0.24 -0.24)">
       <use xlink:href="#STIXGeneral-Regular-50"/>
      </g>
     </g>
    </g>
    <g id="ytick_6">
     <g id="line2d_33">
      <g>
       <use style="fill:#ffffff;stroke:#000000;stroke-width:0.8;" x="552.109091" xlink:href="#ma87aa39d18" y="108"/>
      </g>
     </g>
     <g id="text_24">
      <!-- 4 -->
      <g transform="translate(533.109091 116.195625)scale(0.24 -0.24)">
       <use xlink:href="#STIXGeneral-Regular-52"/>
      </g>
     </g>
    </g>
    <g id="text_25">
     <!-- $C_D$ -->
     <g transform="translate(523.900341 230.64)rotate(-90)scale(0.24 -0.24)">
      <defs>
       <path d="M 13.09375 65.296875 
L 40.796875 65.296875 
Q 54.203125 65.296875 62.09375 58.296875 
Q 70 51.296875 70 38.40625 
Q 70 20.703125 54 8.296875 
Q 43.40625 0 24.90625 0 
L -0.796875 0 
L -0.796875 1.59375 
Q 3.5 2.40625 4.84375 3.59375 
Q 6.203125 4.796875 7.40625 9.203125 
L 19.59375 53.703125 
Q 20.703125 57.59375 20.703125 59.59375 
Q 20.703125 61.703125 19.09375 62.640625 
Q 17.5 63.59375 13.09375 63.703125 
z
M 31 58.40625 
L 19.203125 16.203125 
Q 17 8.203125 17 6.703125 
Q 17 3 23.796875 3 
Q 38.59375 3 47.90625 12 
Q 53.09375 17 56 24.953125 
Q 58.90625 32.90625 58.90625 40.796875 
Q 58.90625 52.90625 51.09375 58.796875 
Q 46.40625 62.296875 38 62.296875 
Q 34.796875 62.296875 33.25 61.546875 
Q 31.703125 60.796875 31 58.40625 
z
" id="STIXGeneral-Italic-68"/>
      </defs>
      <use transform="translate(0 0.40625)" xlink:href="#STIXGeneral-Italic-67"/>
      <use transform="translate(66.699997 -12.821875)scale(0.7)" xlink:href="#STIXGeneral-Italic-68"/>
     </g>
    </g>
   </g>
   <g id="line2d_34">
    <path clip-path="url(#p4393536d12)" d="M 551.754 233.303938 
L 552.109091 237.808536 
L 552.464182 319.307613 
L 555.304909 284.848554 
L 557.435455 261.497988 
L 559.210909 244.118482 
L 560.986364 228.731444 
L 562.761818 215.295922 
L 564.537273 203.590929 
L 566.312727 193.394908 
L 568.088182 184.428028 
L 569.863636 176.518421 
L 571.639091 169.534011 
L 573.769636 162.142766 
L 576.255273 154.448601 
L 578.385818 148.617287 
L 580.161273 144.411725 
L 581.581636 141.641518 
L 582.646909 140.002365 
L 583.712182 138.791602 
L 584.422364 138.260061 
L 585.132545 137.971129 
L 585.842727 137.948216 
L 586.552909 138.211475 
L 587.263091 138.786334 
L 587.973273 139.694031 
L 588.683455 140.958291 
L 589.393636 142.599379 
L 590.458909 145.816148 
L 591.524182 149.998153 
L 592.589455 155.200299 
L 593.654727 161.44968 
L 595.075091 171.441105 
L 596.850545 185.315651 
L 597.205636 183.922693 
L 597.560727 183.824172 
L 597.915818 184.123372 
L 607.858364 188.134525 
L 610.344 188.767438 
L 612.829636 189.169505 
L 615.315273 189.361061 
L 618.511091 189.338794 
L 621.706909 189.098679 
L 627.033273 188.403576 
L 643.722545 186.093831 
L 650.469273 185.441219 
L 661.832182 184.621161 
L 664.317818 184.496048 
L 666.803455 184.353459 
L 669.289091 184.253836 
L 671.774727 184.135733 
L 674.260364 184.056507 
L 676.746 183.956382 
L 679.231636 183.891251 
L 681.717273 183.807896 
L 684.202909 183.762802 
L 685.268182 183.737971 
L 685.623273 183.354474 
L 686.333455 180.850114 
L 687.398727 177.767156 
L 689.174182 172.04339 
L 691.304727 164.403745 
L 693.790364 154.662357 
L 698.406545 135.155285 
L 701.957455 120.316227 
L 703.732909 113.483972 
L 705.508364 107.399077 
L 706.928727 103.243192 
L 707.994 100.637074 
L 709.059273 98.565055 
L 709.769455 97.536636 
L 710.479636 96.798703 
L 711.189818 96.394119 
L 711.9 96.337451 
L 712.610182 96.679795 
L 713.320364 97.417665 
L 714.030545 98.580322 
L 714.740727 100.218805 
L 715.450909 102.322263 
L 716.161091 104.904028 
L 717.226364 109.726358 
L 718.291636 115.724373 
L 719.356909 122.908432 
L 720.777273 134.282258 
L 722.197636 147.567446 
L 723.973091 166.488282 
L 726.103636 191.748586 
L 729.654545 236.563227 
L 730.009636 320.584409 
L 732.850364 286.256263 
L 734.980909 262.983396 
L 736.756364 245.597599 
L 738.531818 230.153065 
L 740.662364 214.13344 
L 742.437818 202.644167 
L 744.213273 192.577381 
L 745.988727 183.696669 
L 747.764182 175.828296 
L 749.894727 167.583348 
L 752.025273 160.338076 
L 754.155818 153.806354 
L 756.286364 148.041513 
L 757.706727 144.701546 
L 758.772 142.532653 
L 759.837273 140.738132 
L 760.902545 139.375025 
L 761.967818 138.488535 
L 762.678 138.197623 
L 763.388182 138.171127 
L 764.098364 138.434965 
L 764.808545 139.00838 
L 765.518727 139.907625 
L 766.228909 141.164947 
L 767.294182 143.782191 
L 768.359455 147.297619 
L 769.424727 151.810047 
L 770.49 157.33536 
L 771.555273 163.92263 
L 772.975636 174.353849 
L 774.396 185.401318 
L 774.751091 184.000422 
L 775.106182 183.882273 
L 775.461273 184.184275 
L 777.591818 185.00464 
L 780.077455 185.988494 
L 782.208 186.805803 
L 783.983455 187.42414 
L 787.889455 188.378983 
L 789.664909 188.658449 
L 793.926 188.877164 
L 800.317636 188.414223 
L 805.999091 187.635858 
L 814.521273 186.46548 
L 820.557818 185.802631 
L 829.790182 185.065584 
L 842.573455 184.384725 
L 858.197455 183.891783 
L 862.813636 183.816199 
L 863.168727 183.425399 
L 863.878909 180.928801 
L 865.299273 176.761495 
L 867.429818 169.68384 
L 869.560364 161.828114 
L 872.401091 150.419294 
L 881.278364 113.863488 
L 883.053818 107.847492 
L 884.474182 103.760427 
L 885.539455 101.217479 
L 886.604727 99.21768 
L 887.314909 98.22008 
L 888.025091 97.524134 
L 888.735273 97.154774 
L 889.445455 97.140463 
L 890.155636 97.511186 
L 890.865818 98.291032 
L 891.576 99.495461 
L 892.286182 101.151601 
L 892.996364 103.275302 
L 894.061636 107.369238 
L 895.126909 112.611353 
L 896.192182 119.01245 
L 897.257455 126.575885 
L 898.677818 138.421879 
L 900.098182 152.113925 
L 901.873636 171.421742 
L 904.359273 201.355276 
L 906.844909 232.693382 
L 907.2 324.446864 
L 907.2 324.446864 
" style="fill:none;stroke:#1f77b4;stroke-linecap:square;stroke-width:4;"/>
   </g>
   <g id="line2d_35">
    <path clip-path="url(#p4393536d12)" d="M 551.754 327.977805 
L 552.109091 330.184728 
L 552.464182 229.270633 
L 553.884545 221.374316 
L 555.304909 214.595582 
L 556.725273 208.937366 
L 558.145636 204.356249 
L 559.210909 201.575896 
L 560.276182 199.308721 
L 561.341455 197.507223 
L 562.406727 196.097035 
L 563.472 195.023023 
L 564.537273 194.217134 
L 565.957636 193.446238 
L 570.928909 191.178952 
L 572.349273 190.116917 
L 573.769636 188.765797 
L 575.19 187.135801 
L 577.320545 184.295092 
L 581.936727 177.968104 
L 583.712182 175.938475 
L 585.132545 174.61327 
L 586.552909 173.623936 
L 587.618182 173.151268 
L 588.683455 172.946395 
L 589.748727 173.052935 
L 590.458909 173.317629 
L 591.169091 173.752288 
L 591.879273 174.370719 
L 592.944545 175.668874 
L 594.009818 177.450181 
L 595.075091 179.750543 
L 596.140364 182.604091 
L 596.495455 183.697167 
L 596.850545 184.292466 
L 597.205636 183.441766 
L 597.560727 183.143343 
L 598.626 182.654974 
L 600.756545 181.710884 
L 602.887091 181.018048 
L 605.017636 180.564413 
L 607.503273 180.28423 
L 610.344 180.191508 
L 614.605091 180.290593 
L 633.424909 180.901704 
L 640.881818 180.856132 
L 668.934 180.364054 
L 685.623273 181.114948 
L 688.464 181.684113 
L 691.659818 182.107405 
L 698.051455 182.68025 
L 699.826909 183.141657 
L 701.247273 183.76929 
L 702.312545 184.438315 
L 703.732909 185.690484 
L 705.153273 187.439984 
L 706.218545 189.139168 
L 707.283818 191.225257 
L 708.349091 193.735241 
L 709.769455 197.833742 
L 711.189818 202.854805 
L 712.610182 208.875462 
L 714.030545 215.929455 
L 715.806 226.219102 
L 717.581455 238.020715 
L 719.712 253.810582 
L 723.262909 282.318728 
L 726.458727 307.512705 
L 728.589273 322.57833 
L 729.654545 329.336139 
L 730.009636 230.141681 
L 731.43 222.292125 
L 732.850364 215.553646 
L 734.270727 209.930626 
L 735.691091 205.376118 
L 736.756364 202.595549 
L 737.821636 200.316373 
L 739.242 197.983287 
L 740.662364 196.310339 
L 742.082727 195.146906 
L 743.858182 194.176391 
L 747.764182 192.370736 
L 749.184545 191.406216 
L 750.604909 190.152133 
L 752.025273 188.600482 
L 753.800727 186.311976 
L 760.902545 176.542184 
L 762.678 174.759196 
L 763.743273 173.936379 
L 764.808545 173.336012 
L 765.873818 172.998737 
L 766.584 172.935747 
L 767.294182 173.014137 
L 768.004364 173.255852 
L 768.714545 173.668716 
L 769.424727 174.263639 
L 770.49 175.529254 
L 771.555273 177.282175 
L 772.620545 179.561862 
L 773.685818 182.392246 
L 774.040909 183.474561 
L 774.396 184.062881 
L 774.751091 183.208049 
L 775.106182 182.897467 
L 775.816364 182.577411 
L 778.657091 181.283006 
L 781.142727 180.529407 
L 782.918182 180.169431 
L 786.114 179.863063 
L 788.244545 179.805385 
L 790.730182 179.817864 
L 801.027818 180.212805 
L 818.072182 180.639612 
L 830.145273 180.517459 
L 842.218364 180.403375 
L 850.385455 180.511197 
L 858.552545 180.856161 
L 863.168727 181.198381 
L 865.654364 181.714106 
L 868.850182 182.180457 
L 876.307091 182.999861 
L 877.727455 183.459687 
L 879.147818 184.176618 
L 880.213091 184.939816 
L 881.278364 185.934613 
L 882.343636 187.210247 
L 883.408909 188.809633 
L 884.474182 190.781441 
L 885.539455 193.165919 
L 886.604727 196.012379 
L 887.67 199.356331 
L 889.090364 204.652077 
L 890.510727 210.961992 
L 891.931091 218.314803 
L 893.706545 228.949197 
L 895.482 241.052153 
L 897.612545 257.113928 
L 905.779636 320.693209 
L 906.844909 327.621285 
L 907.2 231.79405 
L 907.2 231.79405 
" style="fill:none;stroke:#ff7f0e;stroke-linecap:square;stroke-width:4;"/>
   </g>
   <g id="line2d_36">
    <path clip-path="url(#p4393536d12)" d="M 551.754 334.3714 
L 552.109091 336.207266 
L 552.464182 223.608811 
L 554.239636 215.515549 
L 555.66 210.026279 
L 557.080364 205.40264 
L 558.500727 201.586873 
L 559.921091 198.525405 
L 560.986364 196.680606 
L 562.051636 195.184052 
L 563.116909 193.988865 
L 564.537273 192.785605 
L 565.957636 191.921112 
L 567.378 191.316303 
L 568.443273 191.046006 
L 569.508545 190.975767 
L 570.573818 191.153393 
L 571.639091 191.588521 
L 572.704364 192.245476 
L 576.965455 195.189316 
L 578.030727 195.53153 
L 579.096 195.614151 
L 580.161273 195.41947 
L 581.226545 194.955857 
L 582.291818 194.236931 
L 583.712182 192.93278 
L 585.132545 191.307022 
L 587.263091 188.472038 
L 590.814 183.690228 
L 592.234364 182.216045 
L 593.299636 181.452184 
L 594.009818 181.151882 
L 594.72 181.045873 
L 595.430182 181.155055 
L 596.140364 181.498177 
L 596.495455 181.771057 
L 596.850545 181.763356 
L 597.205636 180.89362 
L 597.915818 179.96884 
L 599.336182 178.393803 
L 600.756545 177.12182 
L 602.176909 176.135225 
L 603.597273 175.408407 
L 605.017636 174.908704 
L 606.793091 174.557593 
L 608.568545 174.450324 
L 610.699091 174.564151 
L 613.539818 174.974855 
L 620.286545 176.314952 
L 625.968 177.297121 
L 631.294364 177.971158 
L 637.330909 178.506971 
L 685.268182 182.030934 
L 685.623273 182.141415 
L 686.688545 182.943427 
L 688.819091 184.530453 
L 692.37 187.506549 
L 695.210727 190.123278 
L 697.696364 192.681022 
L 699.826909 195.217583 
L 701.602364 197.705063 
L 703.377818 200.683025 
L 704.798182 203.504408 
L 706.218545 206.805101 
L 707.638909 210.674475 
L 709.059273 215.183622 
L 710.479636 220.401616 
L 711.9 226.364299 
L 713.675455 234.917184 
L 715.450909 244.652616 
L 717.581455 257.748807 
L 720.422182 276.936792 
L 725.748545 313.543505 
L 727.879091 326.569213 
L 729.654545 336.128556 
L 730.009636 223.715429 
L 731.43 217.218354 
L 732.850364 211.591067 
L 734.270727 206.820102 
L 735.691091 202.864768 
L 736.756364 200.385853 
L 737.821636 198.302379 
L 739.242 196.09822 
L 740.662364 194.455371 
L 742.082727 193.263665 
L 743.503091 192.426225 
L 744.923455 191.861135 
L 745.988727 191.625732 
L 747.054 191.575929 
L 748.119273 191.781224 
L 749.184545 192.232583 
L 750.604909 193.148705 
L 753.800727 195.377274 
L 754.866 195.814112 
L 755.931273 195.994721 
L 756.996545 195.899751 
L 758.061818 195.504583 
L 759.127091 194.843844 
L 760.192364 193.925727 
L 761.612727 192.354617 
L 763.388182 189.981534 
L 769.069636 181.991591 
L 770.134909 180.996267 
L 771.200182 180.353141 
L 771.910364 180.153765 
L 772.620545 180.174263 
L 773.330727 180.414224 
L 774.040909 180.913657 
L 774.396 180.918631 
L 774.751091 180.062623 
L 775.461273 179.166015 
L 776.881636 177.640551 
L 778.302 176.412906 
L 779.722364 175.464176 
L 781.142727 174.767035 
L 782.563091 174.291915 
L 783.983455 174.00834 
L 785.403818 173.885927 
L 787.179273 173.905876 
L 790.375091 174.290304 
L 793.570909 174.858089 
L 798.187091 175.725379 
L 807.064364 177.010663 
L 813.100909 177.599274 
L 836.892 179.619897 
L 848.61 180.608916 
L 861.393273 181.683159 
L 863.168727 181.933795 
L 864.234 182.748524 
L 866.719636 184.653278 
L 869.915455 187.385454 
L 873.111273 190.389051 
L 875.596909 193.025601 
L 877.727455 195.658901 
L 879.502909 198.256593 
L 880.923273 200.694531 
L 882.343636 203.534249 
L 883.764 206.86098 
L 885.184364 210.754327 
L 886.604727 215.2866 
L 888.025091 220.524703 
L 889.445455 226.51257 
L 891.220909 235.088104 
L 892.996364 244.854973 
L 895.126909 257.989101 
L 897.967636 277.23127 
L 903.294 313.909159 
L 905.424545 326.939278 
L 906.844909 334.694897 
L 907.2 225.096173 
L 907.2 225.096173 
" style="fill:none;stroke:#2ca02c;stroke-linecap:square;stroke-width:4;"/>
   </g>
   <g id="line2d_37">
    <path clip-path="url(#p4393536d12)" d="M 551.754 336.954489 
L 552.109091 338.702298 
L 552.464182 221.187075 
L 554.594727 211.696786 
L 556.725273 203.358296 
L 558.500727 197.271995 
L 559.921091 193.148981 
L 560.986364 190.664679 
L 562.051636 188.79996 
L 562.761818 187.897849 
L 563.472 187.23852 
L 564.537273 186.602981 
L 565.602545 186.279423 
L 566.667818 186.217519 
L 567.378 186.347622 
L 568.088182 186.64191 
L 568.798364 187.120751 
L 569.863636 188.193827 
L 570.928909 189.636373 
L 572.704364 192.55258 
L 574.834909 196.056179 
L 576.255273 197.913012 
L 577.320545 198.912946 
L 578.385818 199.524875 
L 579.096 199.712203 
L 579.806182 199.727504 
L 580.516364 199.576829 
L 581.581636 199.072993 
L 582.646909 198.298136 
L 584.067273 196.966572 
L 589.393636 191.62741 
L 590.814 190.606588 
L 592.234364 189.89197 
L 593.299636 189.597552 
L 594.364909 189.544691 
L 595.430182 189.771882 
L 596.140364 190.101698 
L 596.495455 190.331346 
L 596.850545 190.358673 
L 597.205636 189.768039 
L 598.270909 188.830531 
L 600.401455 187.170844 
L 602.887091 185.528344 
L 609.988909 181.056429 
L 618.156 175.636814 
L 619.931455 174.722375 
L 621.706909 174.053562 
L 623.127273 173.733536 
L 624.547636 173.618605 
L 625.968 173.706062 
L 627.743455 174.064522 
L 629.874 174.779501 
L 632.714727 176.011746 
L 639.106364 178.878636 
L 642.302182 180.064142 
L 645.498 180.995897 
L 648.338727 181.575346 
L 650.824364 181.868395 
L 653.665091 181.962785 
L 656.860909 181.818309 
L 662.187273 181.290954 
L 665.738182 180.983074 
L 668.578909 180.866666 
L 671.419636 180.897001 
L 674.260364 181.072279 
L 677.456182 181.408136 
L 685.268182 182.589339 
L 685.623273 182.734294 
L 686.688545 183.711311 
L 688.464 185.369087 
L 690.594545 187.626576 
L 693.435273 190.984512 
L 696.276 194.707983 
L 698.761636 198.341951 
L 700.892182 201.883614 
L 702.667636 205.257127 
L 704.443091 209.135692 
L 706.218545 213.666996 
L 707.638909 217.847321 
L 709.414364 223.886116 
L 711.189818 230.906772 
L 712.965273 238.968087 
L 714.740727 248.080647 
L 716.871273 260.276334 
L 719.356909 275.85776 
L 726.103636 319.007167 
L 728.234182 330.908492 
L 729.654545 338.100624 
L 730.009636 221.799145 
L 732.140182 212.271628 
L 734.625818 202.451095 
L 736.401273 196.293572 
L 737.821636 192.167293 
L 738.886909 189.759115 
L 739.952182 187.958589 
L 741.017455 186.712275 
L 742.082727 185.842842 
L 743.148 185.264534 
L 743.858182 185.049417 
L 744.568364 185.009747 
L 745.278545 185.185617 
L 745.988727 185.604803 
L 746.698909 186.264103 
L 747.764182 187.662834 
L 749.184545 190.069301 
L 752.380364 195.747345 
L 753.445636 197.212277 
L 754.510909 198.322479 
L 755.576182 199.042512 
L 756.286364 199.293336 
L 756.996545 199.365797 
L 757.706727 199.264337 
L 758.772 198.804646 
L 759.837273 198.039003 
L 761.257636 196.669167 
L 765.873818 191.744253 
L 766.939091 190.909436 
L 768.004364 190.283021 
L 769.069636 189.87274 
L 770.134909 189.699564 
L 771.200182 189.76976 
L 772.265455 190.08718 
L 773.330727 190.663231 
L 774.040909 191.203165 
L 774.396 191.279146 
L 774.751091 190.72802 
L 776.171455 189.54963 
L 779.367273 186.969945 
L 787.179273 181.236761 
L 790.02 178.729792 
L 795.346364 174.103389 
L 797.121818 172.884889 
L 798.542182 172.151773 
L 799.962545 171.674505 
L 801.382909 171.471408 
L 802.803273 171.53143 
L 804.223636 171.8305 
L 805.999091 172.475558 
L 808.129636 173.522495 
L 817.362 178.41019 
L 820.202727 179.505472 
L 823.043455 180.363631 
L 826.239273 181.060485 
L 829.435091 181.501001 
L 832.986 181.737453 
L 837.602182 181.774285 
L 850.030364 181.734051 
L 855.356727 182.020759 
L 862.103455 182.63181 
L 863.168727 182.824789 
L 864.234 183.74306 
L 866.009455 185.311939 
L 868.14 187.480035 
L 870.625636 190.323573 
L 873.111273 193.477481 
L 875.596909 196.998051 
L 877.727455 200.421506 
L 879.502909 203.675199 
L 881.278364 207.411342 
L 883.053818 211.754267 
L 884.474182 215.756304 
L 885.894545 220.305003 
L 887.67 226.848753 
L 889.445455 234.403268 
L 891.220909 243.013924 
L 893.351455 254.686922 
L 895.837091 269.849479 
L 900.453273 300.080231 
L 903.294 317.884509 
L 905.424545 329.951277 
L 906.844909 337.222337 
L 907.2 222.658229 
L 907.2 222.658229 
" style="fill:none;stroke:#d62728;stroke-linecap:square;stroke-width:4;"/>
   </g>
   <g id="line2d_38">
    <path clip-path="url(#p4393536d12)" d="M 551.754 336.775474 
L 552.109091 338.482367 
L 552.464182 221.433295 
L 555.304909 208.646887 
L 557.790545 198.283231 
L 559.210909 193.086911 
L 560.276182 189.857498 
L 561.341455 187.392015 
L 562.051636 186.219823 
L 562.761818 185.429019 
L 563.472 185.005849 
L 564.182182 184.915181 
L 564.892364 185.116387 
L 565.602545 185.565803 
L 566.312727 186.227158 
L 567.378 187.567371 
L 568.443273 189.279305 
L 569.863636 192.009867 
L 574.834909 202.169058 
L 575.900182 203.637784 
L 576.965455 204.656376 
L 577.675636 205.082312 
L 578.385818 205.325265 
L 579.451091 205.394565 
L 580.516364 205.181668 
L 581.581636 204.744153 
L 582.646909 204.096445 
L 583.712182 203.23385 
L 584.777455 202.126146 
L 586.197818 200.250107 
L 587.973273 197.390727 
L 590.814 192.72334 
L 592.234364 190.886215 
L 593.299636 189.885102 
L 594.364909 189.268896 
L 595.075091 189.0933 
L 595.785273 189.115803 
L 596.850545 189.353997 
L 597.205636 188.900829 
L 598.270909 188.243091 
L 600.046364 187.41215 
L 602.176909 186.709629 
L 604.662545 186.139404 
L 608.213455 185.564441 
L 613.539818 184.689694 
L 620.996727 183.234874 
L 622.772182 183.178824 
L 624.902727 183.357838 
L 627.388364 183.834891 
L 634.135091 185.30936 
L 636.975818 185.621051 
L 640.171636 185.717546 
L 644.077636 185.58387 
L 650.114182 185.128768 
L 657.571091 184.619336 
L 663.252545 184.463044 
L 669.999273 184.621314 
L 673.905273 184.877381 
L 684.558 185.984494 
L 685.623273 186.18582 
L 686.688545 187.098273 
L 688.464 188.700793 
L 690.594545 190.966811 
L 693.080182 193.989966 
L 695.565818 197.352143 
L 698.051455 201.083456 
L 700.182 204.663672 
L 701.957455 208.019197 
L 703.732909 211.815569 
L 705.508364 216.176895 
L 707.283818 221.223849 
L 709.059273 227.074023 
L 710.834727 233.834389 
L 712.610182 241.553117 
L 714.385636 250.221905 
L 716.516182 261.758847 
L 719.356909 278.617736 
L 725.748545 317.227471 
L 727.879091 328.618815 
L 729.654545 337.225656 
L 730.009636 222.74551 
L 732.140182 213.464908 
L 734.625818 203.640343 
L 736.756364 196.147472 
L 738.176727 191.958806 
L 739.242 189.422831 
L 740.307273 187.555078 
L 741.017455 186.705407 
L 741.727636 186.186617 
L 742.437818 185.98946 
L 743.148 186.087576 
L 743.858182 186.441642 
L 744.923455 187.348958 
L 745.988727 188.61469 
L 747.054 190.177973 
L 748.474364 192.698638 
L 750.96 197.836079 
L 752.735455 201.306225 
L 753.800727 203.010442 
L 754.866 204.292892 
L 755.576182 204.877273 
L 756.286364 205.225573 
L 756.996545 205.334114 
L 757.706727 205.206136 
L 758.416909 204.853834 
L 759.482182 203.955103 
L 760.547455 202.703951 
L 762.322909 200.139906 
L 765.873818 194.790338 
L 767.294182 193.029893 
L 768.714545 191.651355 
L 769.779818 190.905603 
L 770.845091 190.432775 
L 771.910364 190.26412 
L 772.620545 190.327813 
L 773.330727 190.541848 
L 774.396 190.986932 
L 774.751091 190.583328 
L 775.816364 190.019174 
L 777.946909 189.112663 
L 780.077455 188.489008 
L 781.852909 188.225617 
L 783.273273 188.191985 
L 785.048727 188.334937 
L 788.244545 188.69706 
L 790.02 188.623463 
L 791.440364 188.359552 
L 793.215818 187.809546 
L 796.056545 186.586537 
L 802.093091 183.726144 
L 804.933818 182.66181 
L 807.419455 181.9848 
L 809.905091 181.554132 
L 812.390727 181.352046 
L 814.876364 181.349969 
L 818.427273 181.619585 
L 822.688364 182.224811 
L 830.145273 183.578522 
L 837.602182 184.844166 
L 842.928545 185.532034 
L 848.254909 185.997399 
L 854.291455 186.281569 
L 863.168727 186.495953 
L 864.234 187.29462 
L 866.009455 188.709892 
L 867.784909 190.393721 
L 869.915455 192.716408 
L 872.401091 195.789458 
L 874.531636 198.742231 
L 876.662182 202.048682 
L 878.437636 205.155883 
L 880.213091 208.678587 
L 881.988545 212.721336 
L 883.764 217.401863 
L 885.539455 222.852446 
L 887.314909 229.176306 
L 889.090364 236.452247 
L 890.865818 244.71092 
L 892.996364 255.870851 
L 895.482 270.329647 
L 899.743091 296.98566 
L 902.938909 316.349475 
L 905.069455 328.085326 
L 906.844909 336.982727 
L 907.2 222.926098 
L 907.2 222.926098 
" style="fill:none;stroke:#9467bd;stroke-linecap:square;stroke-width:4;"/>
   </g>
   <g id="line2d_39">
    <path clip-path="url(#p4393536d12)" d="M 552.109091 280.8 
L 907.2 280.8 
" style="fill:none;stroke:#000000;stroke-dasharray:3.2,0.8,0.5,0.8;stroke-dashoffset:0;stroke-width:0.5;"/>
   </g>
   <g id="line2d_40">
    <path clip-path="url(#p4393536d12)" d="M 729.654545 345.6 
L 729.654545 86.4 
" style="fill:none;stroke:#000000;stroke-dasharray:3.2,0.8,0.5,0.8;stroke-dashoffset:0;stroke-width:0.5;"/>
   </g>
   <g id="patch_8">
    <path d="M 552.109091 345.6 
L 552.109091 86.4 
" style="fill:none;stroke:#000000;stroke-linecap:square;stroke-linejoin:miter;stroke-width:0.8;"/>
   </g>
   <g id="patch_9">
    <path d="M 907.2 345.6 
L 907.2 86.4 
" style="fill:none;stroke:#000000;stroke-linecap:square;stroke-linejoin:miter;stroke-width:0.8;"/>
   </g>
   <g id="patch_10">
    <path d="M 552.109091 345.6 
L 907.2 345.6 
" style="fill:none;stroke:#000000;stroke-linecap:square;stroke-linejoin:miter;stroke-width:0.8;"/>
   </g>
   <g id="patch_11">
    <path d="M 552.109091 86.4 
L 907.2 86.4 
" style="fill:none;stroke:#000000;stroke-linecap:square;stroke-linejoin:miter;stroke-width:0.8;"/>
   </g>
  </g>
 </g>
 <defs>
  <clipPath id="p8436f66113">
   <rect height="259.2" width="355.090909" x="126" y="86.4"/>
  </clipPath>
  <clipPath id="p4393536d12">
   <rect height="259.2" width="355.090909" x="552.109091" y="86.4"/>
  </clipPath>
 </defs>
</svg>
