<?xml version="1.0" encoding="utf-8" standalone="no"?>
<!DOCTYPE svg PUBLIC "-//W3C//DTD SVG 1.1//EN"
  "http://www.w3.org/Graphics/SVG/1.1/DTD/svg11.dtd">
<!-- Created with matplotlib (https://matplotlib.org/) -->
<svg height="288pt" version="1.1" viewBox="0 0 864 288" width="864pt" xmlns="http://www.w3.org/2000/svg" xmlns:xlink="http://www.w3.org/1999/xlink">
 <metadata>
  <rdf:RDF xmlns:cc="http://creativecommons.org/ns#" xmlns:dc="http://purl.org/dc/elements/1.1/" xmlns:rdf="http://www.w3.org/1999/02/22-rdf-syntax-ns#">
   <cc:Work>
    <dc:type rdf:resource="http://purl.org/dc/dcmitype/StillImage"/>
    <dc:date>2021-11-09T14:53:12.348717</dc:date>
    <dc:format>image/svg+xml</dc:format>
    <dc:creator>
     <cc:Agent>
      <dc:title>Matplotlib v3.3.4, https://matplotlib.org/</dc:title>
     </cc:Agent>
    </dc:creator>
   </cc:Work>
  </rdf:RDF>
 </metadata>
 <defs>
  <style type="text/css">*{stroke-linecap:butt;stroke-linejoin:round;}</style>
 </defs>
 <g id="figure_1">
  <g id="patch_1">
   <path d="M 0 288 
L 864 288 
L 864 0 
L 0 0 
z
" style="fill:#ffffff;"/>
  </g>
  <g id="axes_1">
   <g id="patch_2">
    <path d="M 108 230.4 
L 412.363636 230.4 
L 412.363636 57.6 
L 108 57.6 
z
" style="fill:#ffffff;"/>
   </g>
   <g id="matplotlib.axis_1">
    <g id="xtick_1">
     <g id="line2d_1">
      <defs>
       <path d="M 0 0 
L 0 3.5 
" id="ma04cd32a53" style="stroke:#000000;stroke-width:0.8;"/>
      </defs>
      <g>
       <use style="fill:#ffffff;stroke:#000000;stroke-width:0.8;" x="108" xlink:href="#ma04cd32a53" y="230.4"/>
      </g>
     </g>
     <g id="text_1">
      <!-- 4.0 -->
      <g transform="translate(96.75 249.693438)scale(0.18 -0.18)">
       <defs>
        <path d="M 47.296875 16.703125 
L 37 16.703125 
L 37 0 
L 29.203125 0 
L 29.203125 16.703125 
L 1.203125 16.703125 
L 1.203125 23.09375 
L 32.59375 67.59375 
L 37 67.59375 
L 37 23.09375 
L 47.296875 23.09375 
z
M 29.203125 23.09375 
L 29.203125 57.40625 
L 5.203125 23.09375 
z
" id="STIXGeneral-Regular-52"/>
        <path d="M 18.09375 4.296875 
Q 18.09375 2.09375 16.4375 0.5 
Q 14.796875 -1.09375 12.5 -1.09375 
Q 10.203125 -1.09375 8.59375 0.5 
Q 7 2.09375 7 4.390625 
Q 7 6.703125 8.640625 8.34375 
Q 10.296875 10 12.59375 10 
Q 14.796875 10 16.4375 8.296875 
Q 18.09375 6.59375 18.09375 4.296875 
z
" id="STIXGeneral-Regular-46"/>
        <path d="M 47.59375 33 
Q 47.59375 26.296875 46.296875 20.34375 
Q 45 14.40625 42.453125 9.40625 
Q 39.90625 4.40625 35.40625 1.5 
Q 30.90625 -1.40625 25 -1.40625 
Q 18.90625 -1.40625 14.296875 1.6875 
Q 9.703125 4.796875 7.203125 10 
Q 4.703125 15.203125 3.546875 21.09375 
Q 2.40625 27 2.40625 33.59375 
Q 2.40625 42.90625 4.703125 50.34375 
Q 7 57.796875 12.34375 62.6875 
Q 17.703125 67.59375 25.40625 67.59375 
Q 35.203125 67.59375 41.390625 58 
Q 47.59375 48.40625 47.59375 33 
z
M 38 32.5 
Q 38 48.296875 34.640625 56.640625 
Q 31.296875 65 24.796875 65 
Q 18.59375 65 15.296875 56.59375 
Q 12 48.203125 12 32.90625 
Q 12 17.5 15.296875 9.34375 
Q 18.59375 1.203125 25 1.203125 
Q 31.296875 1.203125 34.640625 9.34375 
Q 38 17.5 38 32.5 
z
" id="STIXGeneral-Regular-48"/>
       </defs>
       <use xlink:href="#STIXGeneral-Regular-52"/>
       <use x="49.999985" xlink:href="#STIXGeneral-Regular-46"/>
       <use x="74.999969" xlink:href="#STIXGeneral-Regular-48"/>
      </g>
     </g>
    </g>
    <g id="xtick_2">
     <g id="line2d_2">
      <g>
       <use style="fill:#ffffff;stroke:#000000;stroke-width:0.8;" x="168.872727" xlink:href="#ma04cd32a53" y="230.4"/>
      </g>
     </g>
     <g id="text_2">
      <!-- 4.2 -->
      <g transform="translate(157.622727 249.693438)scale(0.18 -0.18)">
       <defs>
        <path d="M 47.40625 13.703125 
L 42 0 
L 2.90625 0 
L 2.90625 1.203125 
L 20.703125 20.09375 
Q 27.703125 27.40625 30.703125 33.5 
Q 33.703125 39.59375 33.703125 46.09375 
Q 33.703125 52.796875 30 56.5 
Q 26.296875 60.203125 19.796875 60.203125 
Q 14.40625 60.203125 11.25 57.390625 
Q 8.09375 54.59375 5.09375 47.203125 
L 3 47.703125 
Q 4.703125 57 9.84375 62.296875 
Q 15 67.59375 23.796875 67.59375 
Q 32.09375 67.59375 37.1875 62.59375 
Q 42.296875 57.59375 42.296875 50 
Q 42.296875 38.703125 29.5 25.203125 
L 13 7.59375 
L 36.40625 7.59375 
Q 39.703125 7.59375 41.640625 8.890625 
Q 43.59375 10.203125 46 14.296875 
z
" id="STIXGeneral-Regular-50"/>
       </defs>
       <use xlink:href="#STIXGeneral-Regular-52"/>
       <use x="49.999985" xlink:href="#STIXGeneral-Regular-46"/>
       <use x="74.999969" xlink:href="#STIXGeneral-Regular-50"/>
      </g>
     </g>
    </g>
    <g id="xtick_3">
     <g id="line2d_3">
      <g>
       <use style="fill:#ffffff;stroke:#000000;stroke-width:0.8;" x="229.745455" xlink:href="#ma04cd32a53" y="230.4"/>
      </g>
     </g>
     <g id="text_3">
      <!-- 4.4 -->
      <g transform="translate(218.495455 249.693438)scale(0.18 -0.18)">
       <use xlink:href="#STIXGeneral-Regular-52"/>
       <use x="49.999985" xlink:href="#STIXGeneral-Regular-46"/>
       <use x="74.999969" xlink:href="#STIXGeneral-Regular-52"/>
      </g>
     </g>
    </g>
    <g id="xtick_4">
     <g id="line2d_4">
      <g>
       <use style="fill:#ffffff;stroke:#000000;stroke-width:0.8;" x="290.618182" xlink:href="#ma04cd32a53" y="230.4"/>
      </g>
     </g>
     <g id="text_4">
      <!-- 4.6 -->
      <g transform="translate(279.368182 249.693438)scale(0.18 -0.18)">
       <defs>
        <path d="M 44.59375 68.40625 
L 44.796875 66.796875 
Q 33 64.90625 25.09375 57.25 
Q 17.203125 49.59375 15.203125 38.296875 
Q 21 42.796875 27.90625 42.796875 
Q 36.703125 42.796875 41.75 37.1875 
Q 46.796875 31.59375 46.796875 21.90625 
Q 46.796875 12.09375 41.703125 5.90625 
Q 35.796875 -1.40625 25.796875 -1.40625 
Q 13.59375 -1.40625 8.09375 8.703125 
Q 3.40625 17.296875 3.40625 27.90625 
Q 3.40625 44.296875 14.296875 55.5 
Q 20.5 61.90625 27.046875 64.546875 
Q 33.59375 67.203125 44.59375 68.40625 
z
M 37.796875 18.796875 
Q 37.796875 38.203125 24.296875 38.203125 
Q 19.296875 38.203125 16 35.546875 
Q 12.703125 32.90625 12.703125 26.59375 
Q 12.703125 14.90625 16.34375 8.15625 
Q 20 1.40625 26.90625 1.40625 
Q 32.203125 1.40625 35 6.15625 
Q 37.796875 10.90625 37.796875 18.796875 
z
" id="STIXGeneral-Regular-54"/>
       </defs>
       <use xlink:href="#STIXGeneral-Regular-52"/>
       <use x="49.999985" xlink:href="#STIXGeneral-Regular-46"/>
       <use x="74.999969" xlink:href="#STIXGeneral-Regular-54"/>
      </g>
     </g>
    </g>
    <g id="xtick_5">
     <g id="line2d_5">
      <g>
       <use style="fill:#ffffff;stroke:#000000;stroke-width:0.8;" x="351.490909" xlink:href="#ma04cd32a53" y="230.4"/>
      </g>
     </g>
     <g id="text_5">
      <!-- 4.8 -->
      <g transform="translate(340.240909 249.693438)scale(0.18 -0.18)">
       <defs>
        <path d="M 44.5 15.5 
Q 44.5 7.796875 39.140625 3.1875 
Q 33.796875 -1.40625 24.796875 -1.40625 
Q 16.40625 -1.40625 11 3.1875 
Q 5.59375 7.796875 5.59375 14.90625 
Q 5.59375 20.203125 8.1875 23.953125 
Q 10.796875 27.703125 18.59375 33.203125 
Q 11.09375 39.40625 8.640625 43.203125 
Q 6.203125 47 6.203125 52 
Q 6.203125 59.09375 11.640625 63.34375 
Q 17.09375 67.59375 25.59375 67.59375 
Q 32.90625 67.59375 37.65625 63.4375 
Q 42.40625 59.296875 42.40625 53.296875 
Q 42.40625 47.796875 39.546875 44.5 
Q 36.703125 41.203125 29 37.09375 
Q 38 31.09375 41.25 26.390625 
Q 44.5 21.703125 44.5 15.5 
z
M 35.5 53.296875 
Q 35.5 58.5 32.59375 61.640625 
Q 29.703125 64.796875 24.59375 64.796875 
Q 19.5 64.796875 16.546875 62.140625 
Q 13.59375 59.5 13.59375 54.890625 
Q 13.59375 50.296875 16.546875 46.546875 
Q 19.5 42.796875 26.09375 38.90625 
Q 31.203125 41.90625 33.34375 45.25 
Q 35.5 48.59375 35.5 53.296875 
z
M 27.09375 27.203125 
L 21.203125 31.203125 
Q 16.796875 27.59375 15 24.140625 
Q 13.203125 20.703125 13.203125 15.796875 
Q 13.203125 9 16.640625 5.203125 
Q 20.09375 1.40625 25.90625 1.40625 
Q 30.796875 1.40625 33.84375 4.453125 
Q 36.90625 7.5 36.90625 12.40625 
Q 36.90625 16.90625 34.59375 20.296875 
Q 32.296875 23.703125 27.09375 27.203125 
z
" id="STIXGeneral-Regular-56"/>
       </defs>
       <use xlink:href="#STIXGeneral-Regular-52"/>
       <use x="49.999985" xlink:href="#STIXGeneral-Regular-46"/>
       <use x="74.999969" xlink:href="#STIXGeneral-Regular-56"/>
      </g>
     </g>
    </g>
    <g id="xtick_6">
     <g id="line2d_6">
      <g>
       <use style="fill:#ffffff;stroke:#000000;stroke-width:0.8;" x="412.363636" xlink:href="#ma04cd32a53" y="230.4"/>
      </g>
     </g>
     <g id="text_6">
      <!-- 5.0 -->
      <g transform="translate(401.113636 249.693438)scale(0.18 -0.18)">
       <defs>
        <path d="M 43.796875 68.09375 
L 40.203125 59.59375 
Q 39.59375 58.296875 37.5 58.296875 
L 18.09375 58.296875 
L 14.09375 49.796875 
Q 25.09375 47.703125 30 45.25 
Q 34.90625 42.796875 39.09375 37 
Q 42.59375 32.203125 42.59375 24.296875 
Q 42.59375 17.09375 40.25 12.1875 
Q 37.90625 7.296875 32.796875 3.5 
Q 26 -1.40625 15.796875 -1.40625 
Q 10.09375 -1.40625 6.59375 0.296875 
Q 3.09375 2 3.09375 4.796875 
Q 3.09375 8.59375 7.59375 8.59375 
Q 11.203125 8.59375 15 5.5 
Q 18.90625 2.296875 22.09375 2.296875 
Q 27.296875 2.296875 31.4375 7.5 
Q 35.59375 12.703125 35.59375 19.203125 
Q 35.59375 28.796875 28.90625 34.203125 
Q 20.203125 41.203125 7.59375 41.203125 
Q 6.40625 41.203125 6.40625 42 
L 6.5 42.5 
L 17.40625 66.203125 
L 38.09375 66.203125 
Q 39.796875 66.203125 40.75 66.703125 
Q 41.703125 67.203125 42.90625 68.796875 
z
" id="STIXGeneral-Regular-53"/>
       </defs>
       <use xlink:href="#STIXGeneral-Regular-53"/>
       <use x="49.999985" xlink:href="#STIXGeneral-Regular-46"/>
       <use x="74.999969" xlink:href="#STIXGeneral-Regular-48"/>
      </g>
     </g>
    </g>
    <g id="text_7">
     <!-- $\^t$ -->
     <g transform="translate(257.661818 269.893438)scale(0.18 -0.18)">
      <defs>
       <path d="M -7.5 50.703125 
L -10.90625 50.703125 
L -23.09375 61 
L -35.203125 50.703125 
L -38.59375 50.703125 
L -26.203125 67.40625 
L -20 67.40625 
z
" id="STIXGeneral-Regular-770"/>
       <path d="M 29.59375 42.796875 
L 29.09375 39.59375 
L 20.703125 39.59375 
L 12 6.796875 
Q 11.796875 6 11.796875 5.40625 
Q 11.796875 3.796875 13.296875 3.796875 
Q 14.5 3.796875 16.09375 5.34375 
Q 17.703125 6.90625 21.40625 11.703125 
L 22.703125 11 
Q 18.09375 4 15.140625 1.453125 
Q 12.203125 -1.09375 8.40625 -1.09375 
Q 3.796875 -1.09375 3.796875 2.59375 
Q 3.796875 3.59375 5.40625 10 
L 13.203125 39.59375 
L 5.703125 39.59375 
L 5.59375 40.203125 
Q 5.59375 42 8.90625 42.703125 
Q 11.40625 43.296875 15.5 46.546875 
Q 19.59375 49.796875 22.203125 53.703125 
Q 22.796875 54.59375 23.59375 54.59375 
Q 24.5 54.59375 24.5 53.796875 
Q 24.5 53.296875 24.40625 53.09375 
L 21.59375 42.796875 
z
" id="STIXGeneral-Italic-116"/>
      </defs>
      <use transform="translate(39.042969 16.59375)" xlink:href="#STIXGeneral-Regular-770"/>
      <use transform="translate(0 0.203125)" xlink:href="#STIXGeneral-Italic-116"/>
     </g>
    </g>
   </g>
   <g id="matplotlib.axis_2">
    <g id="ytick_1">
     <g id="line2d_7">
      <defs>
       <path d="M 0 0 
L -3.5 0 
" id="ma38833f724" style="stroke:#000000;stroke-width:0.8;"/>
      </defs>
      <g>
       <use style="fill:#ffffff;stroke:#000000;stroke-width:0.8;" x="108" xlink:href="#ma38833f724" y="209.828571"/>
      </g>
     </g>
     <g id="text_8">
      <!-- 0 -->
      <g transform="translate(92 215.97529)scale(0.18 -0.18)">
       <use xlink:href="#STIXGeneral-Regular-48"/>
      </g>
     </g>
    </g>
    <g id="ytick_2">
     <g id="line2d_8">
      <g>
       <use style="fill:#ffffff;stroke:#000000;stroke-width:0.8;" x="108" xlink:href="#ma38833f724" y="127.542857"/>
      </g>
     </g>
     <g id="text_9">
      <!-- 2 -->
      <g transform="translate(92 133.689576)scale(0.18 -0.18)">
       <use xlink:href="#STIXGeneral-Regular-50"/>
      </g>
     </g>
    </g>
    <g id="text_10">
     <!-- $C_L$ -->
     <g transform="translate(84.093437 153.99)rotate(-90)scale(0.18 -0.18)">
      <defs>
       <path d="M 68.90625 66.40625 
L 65.203125 46.40625 
L 63.40625 46.703125 
Q 61.59375 63 48.5 63 
Q 37.59375 63 28.59375 53.296875 
Q 23.296875 47.703125 20.546875 39.703125 
Q 17.796875 31.703125 17.796875 23.203125 
Q 17.796875 2.703125 35.296875 2.703125 
Q 41.5 2.703125 46.640625 5.296875 
Q 51.796875 7.90625 58.203125 14.59375 
L 60 13.09375 
Q 53.296875 5.203125 46.84375 1.703125 
Q 40.40625 -1.796875 32.703125 -1.796875 
Q 21 -1.796875 13.796875 5.140625 
Q 6.59375 12.09375 6.59375 24.296875 
Q 6.59375 34.59375 11.6875 43.9375 
Q 16.796875 53.296875 25.296875 59.296875 
Q 35.5 66.59375 47.203125 66.59375 
Q 54.09375 66.59375 58.90625 64.90625 
Q 60.90625 64.203125 63 64.203125 
Q 65.703125 64.203125 66.796875 66.40625 
z
" id="STIXGeneral-Italic-67"/>
       <path d="M 55.90625 18 
L 50.09375 0 
L -0.796875 0 
L -0.796875 1.59375 
Q 3.40625 2 4.703125 3.296875 
Q 6 4.59375 7.40625 9.40625 
L 19.59375 53.203125 
Q 20.703125 56.90625 20.703125 59.40625 
Q 20.703125 61.59375 19.140625 62.5 
Q 17.59375 63.40625 13 63.703125 
L 13 65.296875 
L 40.296875 65.296875 
L 40.296875 63.703125 
Q 35.703125 63.40625 33.546875 61.796875 
Q 31.40625 60.203125 30.203125 56 
L 18.203125 13.09375 
Q 17.203125 9.296875 17.203125 7.703125 
Q 17.203125 5.40625 19.390625 4.5 
Q 21.59375 3.59375 27.703125 3.59375 
Q 35.40625 3.59375 38.75 4.296875 
Q 42.09375 5 45.703125 7.40625 
Q 49.796875 10.09375 53.90625 18.59375 
z
" id="STIXGeneral-Italic-76"/>
      </defs>
      <use transform="translate(0 0.40625)" xlink:href="#STIXGeneral-Italic-67"/>
      <use transform="translate(66.699997 -12.821875)scale(0.7)" xlink:href="#STIXGeneral-Italic-76"/>
     </g>
    </g>
   </g>
   <g id="line2d_9">
    <path clip-path="url(#p24b359c6bd)" d="M 107.695636 221.82251 
L 108.304364 223.45714 
L 108.913091 224.27562 
L 109.217455 224.369233 
L 109.521818 224.253559 
L 109.826182 223.958367 
L 110.434909 222.684816 
L 111.043636 220.65335 
L 111.956727 216.357945 
L 113.174182 208.948507 
L 116.826545 184.949297 
L 118.044 178.856309 
L 118.957091 175.120412 
L 119.870182 172.325217 
L 120.783273 169.930615 
L 121.087636 169.499859 
L 121.392 169.328576 
L 122.913818 167.796588 
L 123.218182 167.291151 
L 123.826909 166.945749 
L 125.348727 167.721792 
L 125.957455 168.569632 
L 126.566182 169.930918 
L 127.174909 171.85081 
L 127.479273 170.461918 
L 127.783636 168.432237 
L 129.305455 164.247737 
L 130.218545 162.557063 
L 131.131636 161.396187 
L 132.044727 160.566739 
L 133.262182 159.78163 
L 134.784 159.115984 
L 136.305818 158.681912 
L 139.349455 158.096555 
L 140.262545 157.656592 
L 141.175636 156.887876 
L 142.088727 155.692313 
L 143.001818 154.076998 
L 143.914909 151.98392 
L 144.828 149.383958 
L 146.045455 145.10649 
L 147.262909 139.859882 
L 148.784727 132.112458 
L 153.350182 107.786458 
L 154.872 101.316543 
L 156.089455 97.003987 
L 157.611273 92.560579 
L 159.133091 88.916016 
L 160.959273 85.293641 
L 162.785455 82.187694 
L 164.916 79.096383 
L 166.437818 77.247198 
L 167.959636 75.696206 
L 170.090182 73.909946 
L 173.742545 71.202993 
L 177.699273 68.512569 
L 179.829818 67.364578 
L 181.351636 66.760978 
L 182.873455 66.383358 
L 184.395273 66.26074 
L 185.612727 66.369443 
L 186.830182 66.675898 
L 188.047636 67.173144 
L 189.265091 67.87554 
L 190.786909 69.033467 
L 192.308727 70.503852 
L 193.830545 72.256382 
L 195.656727 74.736644 
L 197.787273 78.127268 
L 199.613455 81.361758 
L 201.744 85.603253 
L 203.874545 90.321066 
L 206.613818 97.086675 
L 208.744364 102.82989 
L 212.092364 112.411715 
L 215.440364 122.575832 
L 229.441091 166.517574 
L 232.789091 176.257475 
L 236.441455 186.173663 
L 240.093818 195.232935 
L 241.311273 197.89362 
L 241.615636 196.148183 
L 241.92 193.254027 
L 242.833091 187.815144 
L 245.268 172.699362 
L 246.181091 168.029278 
L 247.094182 164.484775 
L 247.702909 162.816929 
L 248.311636 161.781967 
L 248.616 161.525346 
L 248.920364 161.42787 
L 249.224727 161.519011 
L 249.529091 161.767738 
L 250.137818 162.785124 
L 250.746545 164.503376 
L 251.659636 168.390692 
L 252.572727 173.279575 
L 253.790182 181.331461 
L 255.616364 195.194734 
L 257.746909 211.03702 
L 258.66 216.59015 
L 259.573091 220.873024 
L 260.181818 222.859452 
L 260.790545 224.065465 
L 261.094909 224.3827 
L 261.399273 224.496524 
L 261.703636 224.41095 
L 262.008 224.129834 
L 262.616727 222.999959 
L 263.225455 221.090944 
L 264.138545 217.036318 
L 265.051636 211.852614 
L 266.877818 199.712835 
L 268.399636 189.862586 
L 269.921455 181.287667 
L 271.138909 175.82221 
L 272.356364 171.550004 
L 272.660727 170.71926 
L 272.965091 170.237689 
L 273.269455 170.042095 
L 275.095636 166.783371 
L 276.617455 166.160802 
L 277.226182 166.396962 
L 277.530545 166.651108 
L 278.139273 167.579419 
L 278.748 169.101871 
L 279.356727 171.251477 
L 279.661091 169.995153 
L 279.965455 168.109954 
L 281.487273 164.626702 
L 282.400364 163.347249 
L 283.313455 162.622219 
L 284.226545 162.165959 
L 285.444 161.985833 
L 288.792 161.866122 
L 289.705091 161.537977 
L 290.313818 161.232842 
L 291.226909 160.409227 
L 292.14 159.223964 
L 293.053091 157.656095 
L 293.966182 155.681313 
L 294.879273 153.277989 
L 296.096727 149.352039 
L 297.314182 144.596557 
L 298.836 137.656939 
L 301.575273 123.699512 
L 304.010182 111.610679 
L 305.836364 103.613933 
L 307.358182 97.84601 
L 308.88 92.865553 
L 310.401818 88.624984 
L 311.923636 85.072634 
L 313.141091 82.747706 
L 314.358545 80.871674 
L 315.576 79.414444 
L 316.793455 78.256931 
L 318.619636 76.820578 
L 321.967636 74.089115 
L 323.793818 72.34767 
L 328.968 67.470498 
L 330.489818 66.378182 
L 332.316 65.385916 
L 333.837818 64.854542 
L 335.055273 64.621402 
L 336.272727 64.572875 
L 337.794545 64.732009 
L 339.012 65.101253 
L 340.533818 65.828441 
L 342.055636 66.861151 
L 343.273091 67.892632 
L 344.794909 69.478978 
L 346.621091 71.705632 
L 347.838545 73.494598 
L 349.969091 76.877042 
L 351.795273 80.156694 
L 353.925818 84.421383 
L 356.360727 89.854699 
L 358.795636 95.831714 
L 361.230545 102.291327 
L 363.969818 110.045725 
L 368.535273 123.858242 
L 373.709455 140.165009 
L 379.188 157.332363 
L 383.144727 169.202381 
L 387.101455 180.345265 
L 390.145091 188.329981 
L 392.884364 195.034009 
L 393.493091 196.300118 
L 393.797455 194.57292 
L 394.101818 191.68078 
L 394.710545 188.202343 
L 397.754182 169.622938 
L 398.667273 165.320153 
L 399.580364 162.238448 
L 400.189091 160.891063 
L 400.797818 160.213408 
L 401.102182 160.129058 
L 401.406545 160.224125 
L 401.710909 160.490213 
L 402.319636 161.515679 
L 403.232727 164.438562 
L 404.145818 168.685232 
L 405.058909 174.016292 
L 406.276364 182.504955 
L 410.841818 216.388541 
L 411.754909 220.783176 
L 412.363636 222.823338 
L 412.363636 222.823338 
" style="fill:none;stroke:#1f77b4;stroke-linecap:square;stroke-width:2.5;"/>
   </g>
   <g id="line2d_10">
    <path clip-path="url(#p24b359c6bd)" d="M 107.695636 210.403433 
L 108.608727 209.58863 
L 109.826182 208.152879 
L 111.348 205.93028 
L 113.782909 201.809552 
L 116.522182 197.18967 
L 118.957091 193.551797 
L 119.870182 192.361527 
L 121.696364 189.782216 
L 123.522545 186.643903 
L 124.131273 185.258456 
L 127.479273 177.924641 
L 129.001091 175.156045 
L 129.609818 174.227325 
L 129.914182 174.090358 
L 132.349091 171.628508 
L 133.566545 170.857285 
L 134.784 170.394302 
L 136.001455 170.151861 
L 138.436364 169.731405 
L 139.349455 169.289618 
L 139.958182 168.835432 
L 140.871273 167.867129 
L 141.784364 166.490839 
L 142.697455 164.671241 
L 143.610545 162.435729 
L 144.523636 159.700588 
L 145.741091 155.334181 
L 146.349818 152.738516 
L 152.741455 116.24063 
L 154.263273 109.167409 
L 155.785091 103.19898 
L 157.002545 99.157205 
L 158.22 95.691108 
L 159.437455 92.715302 
L 160.959273 89.55998 
L 162.785455 86.440541 
L 164.916 83.40878 
L 167.350909 80.35283 
L 170.698909 76.498544 
L 174.351273 72.622009 
L 177.090545 70.098044 
L 179.221091 68.502307 
L 180.742909 67.606853 
L 182.264727 66.942198 
L 183.786545 66.521896 
L 185.308364 66.373511 
L 186.525818 66.472535 
L 187.743273 66.769906 
L 188.960727 67.281214 
L 190.178182 68.002667 
L 191.7 69.207655 
L 193.221818 70.731977 
L 194.743636 72.569108 
L 196.569818 75.154142 
L 198.396 78.135557 
L 199.917818 80.89277 
L 202.352727 85.755495 
L 204.483273 90.548294 
L 206.613818 95.890571 
L 209.353091 103.201279 
L 212.701091 112.867383 
L 216.049091 123.086065 
L 222.440727 143.240122 
L 223.049455 144.373495 
L 224.875636 148.020001 
L 227.310545 152.320031 
L 230.658545 157.613581 
L 234.310909 163.441246 
L 236.441455 167.286889 
L 238.267636 171.004397 
L 240.398182 175.905619 
L 241.615636 179.166775 
L 244.963636 188.388339 
L 249.224727 200.125734 
L 251.050909 204.428698 
L 252.268364 206.722522 
L 253.485818 208.698321 
L 254.703273 210.173586 
L 255.616364 210.954846 
L 256.529455 211.440132 
L 257.442545 211.619189 
L 258.355636 211.506648 
L 259.268727 211.114364 
L 260.181818 210.461652 
L 261.399273 209.227956 
L 262.616727 207.661181 
L 264.138545 205.351961 
L 267.486545 199.663366 
L 270.225818 195.247183 
L 274.182545 189.09645 
L 275.095636 187.462733 
L 276.008727 185.456264 
L 280.878545 175.790995 
L 281.487273 174.938014 
L 281.791636 174.868272 
L 283.922182 173.052128 
L 286.357091 172.343593 
L 288.183273 172.043127 
L 289.400727 171.57323 
L 290.313818 170.916036 
L 291.226909 169.963047 
L 292.14 168.642085 
L 293.053091 166.925153 
L 293.966182 164.774193 
L 294.879273 162.196707 
L 296.096727 158.078248 
L 297.618545 152.047446 
L 298.531636 148.008641 
L 300.966545 134.361382 
L 303.401455 121.312612 
L 305.227636 112.652258 
L 307.053818 105.232322 
L 308.575636 99.979257 
L 310.097455 95.468853 
L 311.619273 91.65547 
L 313.141091 88.492029 
L 314.358545 86.414021 
L 315.880364 84.27486 
L 318.315273 81.390055 
L 321.967636 77.075982 
L 328.054909 69.842235 
L 329.881091 68.110258 
L 331.402909 66.928496 
L 332.924727 66.006403 
L 334.446545 65.34439 
L 335.968364 64.960553 
L 337.185818 64.862487 
L 338.403273 64.958054 
L 339.620727 65.26747 
L 341.142545 65.868095 
L 342.664364 66.851577 
L 344.186182 68.166869 
L 347.838545 72.637909 
L 349.664727 75.420872 
L 351.490909 78.577189 
L 353.621455 82.705415 
L 356.056364 87.984006 
L 358.795636 94.59007 
L 361.534909 101.809924 
L 365.187273 112.235586 
L 370.361455 128.050371 
L 374.926909 141.81307 
L 377.361818 146.56732 
L 379.492364 150.243895 
L 383.144727 155.909674 
L 386.188364 160.712723 
L 388.318909 164.500361 
L 390.145091 168.181833 
L 391.971273 172.339177 
L 393.188727 175.584453 
L 395.623636 182.266807 
L 402.319636 201.328364 
L 403.537091 204.093439 
L 405.058909 207.093209 
L 406.276364 208.973789 
L 407.189455 210.027685 
L 408.102545 210.780277 
L 409.015636 211.222043 
L 409.928727 211.355217 
L 410.841818 211.174404 
L 411.754909 210.715665 
L 412.363636 210.260845 
L 412.363636 210.260845 
" style="fill:none;stroke:#ff7f0e;stroke-linecap:square;stroke-width:2.5;"/>
   </g>
   <g id="line2d_11">
    <path clip-path="url(#p24b359c6bd)" d="M 107.695636 207.015349 
L 109.521818 205.905941 
L 111.956727 204.10802 
L 114.087273 202.331686 
L 116.217818 200.342246 
L 117.435273 199.164114 
L 119.261455 197.068704 
L 120.174545 195.722063 
L 122.609455 192.080713 
L 124.74 188.888244 
L 126.261818 186.9761 
L 127.479273 185.748981 
L 128.696727 184.820264 
L 129.001091 184.868036 
L 131.740364 184.014009 
L 133.566545 183.570235 
L 134.479636 183.164347 
L 135.392727 182.538054 
L 136.305818 181.615107 
L 137.218909 180.368857 
L 138.132 178.754934 
L 139.045091 176.790526 
L 140.262545 173.609515 
L 141.48 169.826133 
L 143.001818 164.340292 
L 144.828 157.043804 
L 152.741455 124.452006 
L 154.567636 118.139762 
L 156.089455 113.585179 
L 157.611273 109.818757 
L 158.828727 107.377749 
L 160.046182 105.359734 
L 164.611636 98.330857 
L 166.437818 94.687292 
L 172.220727 82.600776 
L 174.046909 79.418787 
L 175.873091 76.657934 
L 177.699273 74.277458 
L 179.829818 71.898378 
L 181.656 70.162693 
L 183.177818 68.981566 
L 186.221455 67.058449 
L 187.438909 66.588576 
L 188.656364 66.382431 
L 189.873818 66.446989 
L 191.091273 66.797979 
L 192.308727 67.414933 
L 193.526182 68.271661 
L 195.048 69.654848 
L 196.569818 71.314074 
L 198.396 73.619285 
L 200.222182 76.199399 
L 202.657091 79.983266 
L 206.613818 87.517047 
L 208.744364 92.137228 
L 211.483636 98.728976 
L 213.614182 104.340936 
L 216.049091 111.253946 
L 219.701455 122.567851 
L 224.266909 137.941709 
L 230.049818 158.298153 
L 233.702182 170.714105 
L 236.441455 179.363802 
L 239.789455 189.047151 
L 241.615636 193.524157 
L 243.441818 197.447556 
L 245.268 200.7888 
L 246.789818 203.114561 
L 248.311636 205.018227 
L 249.529091 206.242562 
L 250.746545 207.211112 
L 251.964 207.927603 
L 253.181455 208.408216 
L 254.398909 208.659823 
L 255.616364 208.695255 
L 256.833818 208.536589 
L 258.355636 208.087437 
L 259.877455 207.392448 
L 261.703636 206.300911 
L 263.834182 204.728983 
L 266.573455 202.413714 
L 269.312727 199.874506 
L 270.225818 198.821928 
L 272.052 196.659948 
L 273.878182 194.106676 
L 276.617455 189.792835 
L 278.443636 187.152846 
L 279.661091 185.743507 
L 280.878545 184.695494 
L 281.182909 184.713931 
L 286.357091 182.241042 
L 287.270182 181.478806 
L 288.183273 180.447511 
L 289.400727 178.722824 
L 290.618182 176.535132 
L 291.835636 173.912319 
L 293.053091 170.847811 
L 294.574909 166.401895 
L 296.401091 160.220421 
L 298.531636 152.057963 
L 301.575273 139.352899 
L 307.966909 112.546005 
L 309.488727 107.230905 
L 310.706182 103.862872 
L 311.619273 101.971594 
L 312.532364 100.613936 
L 313.445455 99.657496 
L 316.184727 97.231856 
L 317.402182 95.593777 
L 318.619636 93.535329 
L 320.445818 89.931573 
L 325.011273 80.589672 
L 327.141818 76.680534 
L 329.272364 73.227156 
L 331.098545 70.643031 
L 332.620364 68.768138 
L 334.142182 67.191497 
L 335.359636 66.183933 
L 337.794545 64.600599 
L 339.012 64.068472 
L 340.533818 63.718504 
L 341.446909 63.739932 
L 342.664364 64.010757 
L 343.881818 64.626826 
L 344.794909 65.30958 
L 346.925455 67.343816 
L 348.447273 69.126509 
L 350.577818 71.996955 
L 353.317091 76.180268 
L 355.447636 79.783631 
L 358.186909 84.966438 
L 360.317455 89.468443 
L 362.448 94.425493 
L 364.578545 99.828848 
L 367.622182 108.32428 
L 370.665818 117.640385 
L 374.318182 129.682329 
L 379.492364 147.781604 
L 385.579636 168.932517 
L 388.623273 178.639805 
L 391.971273 188.422738 
L 393.797455 192.939143 
L 395.623636 196.911522 
L 397.145455 199.782491 
L 398.667273 202.236753 
L 400.189091 204.265532 
L 401.406545 205.585928 
L 402.624 206.642844 
L 403.841455 207.444043 
L 405.058909 208.002801 
L 406.276364 208.327572 
L 407.493818 208.430921 
L 408.711273 208.331964 
L 409.928727 208.049833 
L 411.450545 207.463836 
L 412.363636 207.002494 
L 412.363636 207.002494 
" style="fill:none;stroke:#2ca02c;stroke-linecap:square;stroke-width:2.5;"/>
   </g>
   <g id="line2d_12">
    <path clip-path="url(#p24b359c6bd)" d="M 108 209.828571 
L 412.363636 209.828571 
" style="fill:none;stroke:#000000;stroke-dasharray:3.2,0.8,0.5,0.8;stroke-dashoffset:0;stroke-width:0.5;"/>
   </g>
   <g id="line2d_13">
    <path clip-path="url(#p24b359c6bd)" d="M 260.181818 230.4 
L 260.181818 57.6 
" style="fill:none;stroke:#000000;stroke-dasharray:3.2,0.8,0.5,0.8;stroke-dashoffset:0;stroke-width:0.5;"/>
   </g>
   <g id="patch_3">
    <path d="M 108 230.4 
L 108 57.6 
" style="fill:none;stroke:#000000;stroke-linecap:square;stroke-linejoin:miter;stroke-width:0.8;"/>
   </g>
   <g id="patch_4">
    <path d="M 412.363636 230.4 
L 412.363636 57.6 
" style="fill:none;stroke:#000000;stroke-linecap:square;stroke-linejoin:miter;stroke-width:0.8;"/>
   </g>
   <g id="patch_5">
    <path d="M 108 230.4 
L 412.363636 230.4 
" style="fill:none;stroke:#000000;stroke-linecap:square;stroke-linejoin:miter;stroke-width:0.8;"/>
   </g>
   <g id="patch_6">
    <path d="M 108 57.6 
L 412.363636 57.6 
" style="fill:none;stroke:#000000;stroke-linecap:square;stroke-linejoin:miter;stroke-width:0.8;"/>
   </g>
   <g id="legend_1">
    <g id="line2d_14">
     <path d="M 268.19487 43.88166 
L 298.18287 43.88166 
" style="fill:none;stroke:#1f77b4;stroke-linecap:square;stroke-width:2.5;"/>
    </g>
    <g id="line2d_15"/>
    <g id="text_11">
     <!-- $\^t_p$ = 0.125 -->
     <g transform="translate(310.17807 49.12956)scale(0.14994 -0.14994)">
      <defs>
       <path d="M 21.5 42.796875 
L 18.59375 32.796875 
Q 26.09375 44.09375 35.703125 44.09375 
Q 41.203125 44.09375 44.203125 40.796875 
Q 47.203125 37.5 47.203125 31.59375 
Q 47.203125 19.296875 37.84375 9.09375 
Q 28.5 -1.09375 17.5 -1.09375 
Q 13.90625 -1.09375 10.59375 0.59375 
Q 6.59375 -15.90625 6.59375 -16 
Q 6.59375 -17.59375 7.9375 -18.25 
Q 9.296875 -18.90625 12.796875 -18.90625 
L 12.796875 -20.5 
L -7.5 -20.5 
L -7.5 -18.90625 
Q -4.296875 -18.796875 -2.9375 -17.5 
Q -1.59375 -16.203125 -0.703125 -12.59375 
L 10.796875 30.59375 
Q 12.40625 36.40625 12.40625 37.703125 
Q 12.40625 40.40625 8 40.40625 
L 5.796875 40.40625 
L 5.59375 41.90625 
L 21.203125 44.09375 
Q 21.703125 44.09375 21.703125 43.703125 
Q 21.59375 43.203125 21.5 42.796875 
z
M 38.203125 31.296875 
Q 38.203125 35.703125 36.75 37.75 
Q 35.296875 39.796875 32 39.796875 
Q 28.09375 39.796875 24.1875 36.390625 
Q 20.296875 33 18.5 28.40625 
Q 16.296875 22.703125 14.140625 14.890625 
Q 12 7.09375 12 4.59375 
Q 12 2.90625 13.34375 1.84375 
Q 14.703125 0.796875 16.796875 0.796875 
Q 24.59375 0.796875 31.296875 10.296875 
Q 38.203125 19.90625 38.203125 31.296875 
z
" id="STIXGeneral-Italic-112"/>
       <path id="STIXGeneral-Regular-32"/>
       <path d="M 63.703125 32 
L 4.796875 32 
L 4.796875 38.59375 
L 63.703125 38.59375 
z
M 63.703125 12 
L 4.796875 12 
L 4.796875 18.59375 
L 63.703125 18.59375 
z
" id="STIXGeneral-Regular-61"/>
       <path d="M 39.40625 0 
L 11.796875 0 
L 11.796875 1.5 
Q 17.296875 1.796875 19.296875 3.546875 
Q 21.296875 5.296875 21.296875 9.5 
L 21.296875 54.40625 
Q 21.296875 59.296875 18.296875 59.296875 
Q 16.90625 59.296875 13.796875 58.09375 
L 11.09375 57.09375 
L 11.09375 58.5 
L 29 67.59375 
L 29.90625 67.296875 
L 29.90625 7.59375 
Q 29.90625 4.296875 31.90625 2.890625 
Q 33.90625 1.5 39.40625 1.5 
z
" id="STIXGeneral-Regular-49"/>
      </defs>
      <use transform="translate(39.042969 16.59375)" xlink:href="#STIXGeneral-Regular-770"/>
      <use transform="translate(0 0.203125)" xlink:href="#STIXGeneral-Italic-116"/>
      <use transform="translate(29.343269 -13.025)scale(0.7)" xlink:href="#STIXGeneral-Italic-112"/>
      <use transform="translate(69.03264 0.203125)" xlink:href="#STIXGeneral-Regular-32"/>
      <use transform="translate(94.032625 0.203125)" xlink:href="#STIXGeneral-Regular-61"/>
      <use transform="translate(162.532609 0.203125)" xlink:href="#STIXGeneral-Regular-32"/>
      <use transform="translate(187.532594 0.203125)" xlink:href="#STIXGeneral-Regular-48"/>
      <use transform="translate(237.532579 0.203125)" xlink:href="#STIXGeneral-Regular-46"/>
      <use transform="translate(262.532563 0.203125)" xlink:href="#STIXGeneral-Regular-49"/>
      <use transform="translate(312.532548 0.203125)" xlink:href="#STIXGeneral-Regular-50"/>
      <use transform="translate(362.532533 0.203125)" xlink:href="#STIXGeneral-Regular-53"/>
     </g>
    </g>
    <g id="line2d_16">
     <path d="M 402.09129 43.88166 
L 432.07929 43.88166 
" style="fill:none;stroke:#ff7f0e;stroke-linecap:square;stroke-width:2.5;"/>
    </g>
    <g id="line2d_17"/>
    <g id="text_12">
     <!-- $\^t_p$ = 0.25 -->
     <g transform="translate(444.07449 49.12956)scale(0.14994 -0.14994)">
      <use transform="translate(39.042969 16.59375)" xlink:href="#STIXGeneral-Regular-770"/>
      <use transform="translate(0 0.203125)" xlink:href="#STIXGeneral-Italic-116"/>
      <use transform="translate(29.343269 -13.025)scale(0.7)" xlink:href="#STIXGeneral-Italic-112"/>
      <use transform="translate(69.03264 0.203125)" xlink:href="#STIXGeneral-Regular-32"/>
      <use transform="translate(94.032625 0.203125)" xlink:href="#STIXGeneral-Regular-61"/>
      <use transform="translate(162.532609 0.203125)" xlink:href="#STIXGeneral-Regular-32"/>
      <use transform="translate(187.532594 0.203125)" xlink:href="#STIXGeneral-Regular-48"/>
      <use transform="translate(237.532579 0.203125)" xlink:href="#STIXGeneral-Regular-46"/>
      <use transform="translate(262.532563 0.203125)" xlink:href="#STIXGeneral-Regular-50"/>
      <use transform="translate(312.532548 0.203125)" xlink:href="#STIXGeneral-Regular-53"/>
     </g>
    </g>
    <g id="line2d_18">
     <path d="M 528.49071 43.88166 
L 558.47871 43.88166 
" style="fill:none;stroke:#2ca02c;stroke-linecap:square;stroke-width:2.5;"/>
    </g>
    <g id="line2d_19"/>
    <g id="text_13">
     <!-- $\^t_p$ = 0.5 -->
     <g transform="translate(570.47391 49.12956)scale(0.14994 -0.14994)">
      <use transform="translate(39.042969 16.59375)" xlink:href="#STIXGeneral-Regular-770"/>
      <use transform="translate(0 0.203125)" xlink:href="#STIXGeneral-Italic-116"/>
      <use transform="translate(29.343269 -13.025)scale(0.7)" xlink:href="#STIXGeneral-Italic-112"/>
      <use transform="translate(69.03264 0.203125)" xlink:href="#STIXGeneral-Regular-32"/>
      <use transform="translate(94.032625 0.203125)" xlink:href="#STIXGeneral-Regular-61"/>
      <use transform="translate(162.532609 0.203125)" xlink:href="#STIXGeneral-Regular-32"/>
      <use transform="translate(187.532594 0.203125)" xlink:href="#STIXGeneral-Regular-48"/>
      <use transform="translate(237.532579 0.203125)" xlink:href="#STIXGeneral-Regular-46"/>
      <use transform="translate(262.532563 0.203125)" xlink:href="#STIXGeneral-Regular-53"/>
     </g>
    </g>
   </g>
  </g>
  <g id="axes_2">
   <g id="patch_7">
    <path d="M 473.236364 230.4 
L 777.6 230.4 
L 777.6 57.6 
L 473.236364 57.6 
z
" style="fill:#ffffff;"/>
   </g>
   <g id="matplotlib.axis_3">
    <g id="xtick_7">
     <g id="line2d_20">
      <g>
       <use style="fill:#ffffff;stroke:#000000;stroke-width:0.8;" x="473.236364" xlink:href="#ma04cd32a53" y="230.4"/>
      </g>
     </g>
     <g id="text_14">
      <!-- 4.0 -->
      <g transform="translate(461.986364 249.693438)scale(0.18 -0.18)">
       <use xlink:href="#STIXGeneral-Regular-52"/>
       <use x="49.999985" xlink:href="#STIXGeneral-Regular-46"/>
       <use x="74.999969" xlink:href="#STIXGeneral-Regular-48"/>
      </g>
     </g>
    </g>
    <g id="xtick_8">
     <g id="line2d_21">
      <g>
       <use style="fill:#ffffff;stroke:#000000;stroke-width:0.8;" x="534.109091" xlink:href="#ma04cd32a53" y="230.4"/>
      </g>
     </g>
     <g id="text_15">
      <!-- 4.2 -->
      <g transform="translate(522.859091 249.693438)scale(0.18 -0.18)">
       <use xlink:href="#STIXGeneral-Regular-52"/>
       <use x="49.999985" xlink:href="#STIXGeneral-Regular-46"/>
       <use x="74.999969" xlink:href="#STIXGeneral-Regular-50"/>
      </g>
     </g>
    </g>
    <g id="xtick_9">
     <g id="line2d_22">
      <g>
       <use style="fill:#ffffff;stroke:#000000;stroke-width:0.8;" x="594.981818" xlink:href="#ma04cd32a53" y="230.4"/>
      </g>
     </g>
     <g id="text_16">
      <!-- 4.4 -->
      <g transform="translate(583.731818 249.693438)scale(0.18 -0.18)">
       <use xlink:href="#STIXGeneral-Regular-52"/>
       <use x="49.999985" xlink:href="#STIXGeneral-Regular-46"/>
       <use x="74.999969" xlink:href="#STIXGeneral-Regular-52"/>
      </g>
     </g>
    </g>
    <g id="xtick_10">
     <g id="line2d_23">
      <g>
       <use style="fill:#ffffff;stroke:#000000;stroke-width:0.8;" x="655.854545" xlink:href="#ma04cd32a53" y="230.4"/>
      </g>
     </g>
     <g id="text_17">
      <!-- 4.6 -->
      <g transform="translate(644.604545 249.693438)scale(0.18 -0.18)">
       <use xlink:href="#STIXGeneral-Regular-52"/>
       <use x="49.999985" xlink:href="#STIXGeneral-Regular-46"/>
       <use x="74.999969" xlink:href="#STIXGeneral-Regular-54"/>
      </g>
     </g>
    </g>
    <g id="xtick_11">
     <g id="line2d_24">
      <g>
       <use style="fill:#ffffff;stroke:#000000;stroke-width:0.8;" x="716.727273" xlink:href="#ma04cd32a53" y="230.4"/>
      </g>
     </g>
     <g id="text_18">
      <!-- 4.8 -->
      <g transform="translate(705.477273 249.693438)scale(0.18 -0.18)">
       <use xlink:href="#STIXGeneral-Regular-52"/>
       <use x="49.999985" xlink:href="#STIXGeneral-Regular-46"/>
       <use x="74.999969" xlink:href="#STIXGeneral-Regular-56"/>
      </g>
     </g>
    </g>
    <g id="xtick_12">
     <g id="line2d_25">
      <g>
       <use style="fill:#ffffff;stroke:#000000;stroke-width:0.8;" x="777.6" xlink:href="#ma04cd32a53" y="230.4"/>
      </g>
     </g>
     <g id="text_19">
      <!-- 5.0 -->
      <g transform="translate(766.35 249.693438)scale(0.18 -0.18)">
       <use xlink:href="#STIXGeneral-Regular-53"/>
       <use x="49.999985" xlink:href="#STIXGeneral-Regular-46"/>
       <use x="74.999969" xlink:href="#STIXGeneral-Regular-48"/>
      </g>
     </g>
    </g>
    <g id="text_20">
     <!-- $\^t$ -->
     <g transform="translate(622.898182 269.893438)scale(0.18 -0.18)">
      <use transform="translate(39.042969 16.59375)" xlink:href="#STIXGeneral-Regular-770"/>
      <use transform="translate(0 0.203125)" xlink:href="#STIXGeneral-Italic-116"/>
     </g>
    </g>
   </g>
   <g id="matplotlib.axis_4">
    <g id="ytick_3">
     <g id="line2d_26">
      <g>
       <use style="fill:#ffffff;stroke:#000000;stroke-width:0.8;" x="473.236364" xlink:href="#ma38833f724" y="201.6"/>
      </g>
     </g>
     <g id="text_21">
      <!-- 0 -->
      <g transform="translate(457.236364 207.746719)scale(0.18 -0.18)">
       <use xlink:href="#STIXGeneral-Regular-48"/>
      </g>
     </g>
    </g>
    <g id="ytick_4">
     <g id="line2d_27">
      <g>
       <use style="fill:#ffffff;stroke:#000000;stroke-width:0.8;" x="473.236364" xlink:href="#ma38833f724" y="129.6"/>
      </g>
     </g>
     <g id="text_22">
      <!-- 2 -->
      <g transform="translate(457.236364 135.746719)scale(0.18 -0.18)">
       <use xlink:href="#STIXGeneral-Regular-50"/>
      </g>
     </g>
    </g>
    <g id="ytick_5">
     <g id="line2d_28">
      <g>
       <use style="fill:#ffffff;stroke:#000000;stroke-width:0.8;" x="473.236364" xlink:href="#ma38833f724" y="57.6"/>
      </g>
     </g>
     <g id="text_23">
      <!-- 4 -->
      <g transform="translate(457.236364 63.746719)scale(0.18 -0.18)">
       <use xlink:href="#STIXGeneral-Regular-52"/>
      </g>
     </g>
    </g>
    <g id="text_24">
     <!-- $C_D$ -->
     <g transform="translate(449.329801 154.98)rotate(-90)scale(0.18 -0.18)">
      <defs>
       <path d="M 13.09375 65.296875 
L 40.796875 65.296875 
Q 54.203125 65.296875 62.09375 58.296875 
Q 70 51.296875 70 38.40625 
Q 70 20.703125 54 8.296875 
Q 43.40625 0 24.90625 0 
L -0.796875 0 
L -0.796875 1.59375 
Q 3.5 2.40625 4.84375 3.59375 
Q 6.203125 4.796875 7.40625 9.203125 
L 19.59375 53.703125 
Q 20.703125 57.59375 20.703125 59.59375 
Q 20.703125 61.703125 19.09375 62.640625 
Q 17.5 63.59375 13.09375 63.703125 
z
M 31 58.40625 
L 19.203125 16.203125 
Q 17 8.203125 17 6.703125 
Q 17 3 23.796875 3 
Q 38.59375 3 47.90625 12 
Q 53.09375 17 56 24.953125 
Q 58.90625 32.90625 58.90625 40.796875 
Q 58.90625 52.90625 51.09375 58.796875 
Q 46.40625 62.296875 38 62.296875 
Q 34.796875 62.296875 33.25 61.546875 
Q 31.703125 60.796875 31 58.40625 
z
" id="STIXGeneral-Italic-68"/>
      </defs>
      <use transform="translate(0 0.40625)" xlink:href="#STIXGeneral-Italic-67"/>
      <use transform="translate(66.699997 -12.821875)scale(0.7)" xlink:href="#STIXGeneral-Italic-68"/>
     </g>
    </g>
   </g>
   <g id="line2d_29">
    <path clip-path="url(#pc07d9d5a55)" d="M 472.932 163.385914 
L 473.236364 166.686824 
L 473.540727 233.121838 
L 478.410545 178.010825 
L 479.628 167.801637 
L 480.845455 159.708609 
L 481.454182 156.718541 
L 482.671636 151.378114 
L 483.584727 148.165647 
L 485.106545 144.153072 
L 486.932727 140.071946 
L 487.845818 138.333201 
L 488.150182 137.85724 
L 488.454545 137.701493 
L 489.672 136.442807 
L 489.976364 136.363185 
L 490.280727 136.403655 
L 490.585091 136.58229 
L 490.889455 136.90043 
L 491.498182 138.043109 
L 492.106909 139.912392 
L 492.411273 141.090911 
L 492.715636 140.212604 
L 493.02 138.787654 
L 494.541818 136.980673 
L 495.150545 136.656136 
L 495.759273 136.514384 
L 496.672364 136.505235 
L 498.802909 136.643871 
L 500.324727 136.475851 
L 501.846545 136.085122 
L 503.672727 135.305937 
L 505.194545 134.3259 
L 506.412 133.191496 
L 507.629455 131.637533 
L 508.846909 129.54157 
L 510.064364 126.886775 
L 511.281818 123.543691 
L 512.499273 119.472519 
L 514.325455 112.259478 
L 517.673455 98.50642 
L 519.195273 93.256032 
L 520.717091 88.893648 
L 522.238909 85.36624 
L 523.760727 82.487173 
L 525.586909 79.653382 
L 527.717455 76.88677 
L 529.543636 74.821799 
L 531.369818 73.047627 
L 533.196 71.610981 
L 535.326545 70.321938 
L 537.457091 69.278079 
L 540.500727 68.062119 
L 542.935636 67.327031 
L 545.066182 66.950194 
L 546.892364 66.872636 
L 548.414182 67.018108 
L 549.936 67.368128 
L 551.457818 67.954411 
L 552.979636 68.775723 
L 554.501455 69.853702 
L 556.023273 71.180856 
L 557.849455 73.106805 
L 559.675636 75.384373 
L 561.806182 78.478023 
L 563.632364 81.4887 
L 565.154182 84.298696 
L 567.284727 88.564233 
L 570.024 94.585932 
L 573.067636 101.933675 
L 575.806909 109.150821 
L 580.372364 122.090563 
L 584.633455 134.732492 
L 595.590545 166.828692 
L 600.156 179.054259 
L 603.199636 186.634546 
L 606.243273 193.693173 
L 606.547636 194.231465 
L 606.852 192.770411 
L 607.156364 190.302397 
L 607.765091 187.3405 
L 610.2 173.669563 
L 612.939273 158.639169 
L 614.765455 149.997508 
L 616.591636 142.846389 
L 617.504727 140.15638 
L 618.113455 138.774451 
L 618.722182 137.777553 
L 619.330909 137.2523 
L 619.939636 137.214552 
L 620.244 137.394976 
L 620.548364 137.745261 
L 621.157091 138.986915 
L 621.765818 140.987913 
L 622.374545 143.760905 
L 623.287636 149.346643 
L 624.200727 156.548192 
L 625.113818 165.120829 
L 625.418182 234.942556 
L 627.244364 214.590858 
L 629.679273 187.657305 
L 631.201091 173.598248 
L 632.418545 164.529623 
L 633.331636 159.311899 
L 634.244727 154.730564 
L 635.462182 149.84593 
L 636.679636 146.097352 
L 637.897091 142.670217 
L 638.201455 142.173136 
L 638.810182 140.33344 
L 639.723273 138.511389 
L 640.332 137.754934 
L 640.940727 136.674204 
L 641.549455 136.066195 
L 641.853818 135.896828 
L 642.158182 135.855282 
L 642.462545 135.942058 
L 642.766909 136.150173 
L 643.375636 137.087868 
L 643.984364 138.762852 
L 644.593091 141.206577 
L 644.897455 140.446725 
L 645.201818 139.141484 
L 646.723636 137.896568 
L 647.332364 137.704055 
L 648.245455 137.605069 
L 652.506545 137.905217 
L 653.724 137.663232 
L 654.941455 137.13496 
L 656.463273 135.87249 
L 657.376364 134.836813 
L 658.593818 133.031314 
L 659.506909 131.319297 
L 660.724364 128.498357 
L 661.941818 125.019444 
L 663.463636 119.864274 
L 666.202909 109.454174 
L 668.637818 100.460275 
L 670.464 94.471066 
L 672.290182 89.276418 
L 674.116364 84.807308 
L 675.942545 80.998137 
L 677.464364 78.302075 
L 678.986182 76.07419 
L 680.203636 74.633481 
L 681.421091 73.477906 
L 682.942909 72.323202 
L 685.986545 70.502647 
L 693.291273 66.50131 
L 695.117455 65.850567 
L 696.943636 65.460527 
L 698.769818 65.358673 
L 700.596 65.556713 
L 702.117818 65.96586 
L 703.335273 66.513484 
L 704.857091 67.363626 
L 706.378909 68.479352 
L 707.900727 69.822176 
L 709.422545 71.346001 
L 711.248727 73.5208 
L 713.683636 76.842313 
L 715.814182 80.309662 
L 717.944727 84.221787 
L 720.379636 89.211311 
L 722.814545 94.716015 
L 725.249455 100.67418 
L 727.988727 107.839403 
L 732.249818 119.76553 
L 740.163273 143.110691 
L 745.641818 159.107907 
L 749.598545 170.137841 
L 753.555273 180.512867 
L 756.598909 187.974856 
L 758.729455 192.772468 
L 759.033818 191.327918 
L 759.338182 188.859897 
L 759.946909 185.927121 
L 762.077455 174.020791 
L 765.425455 155.60021 
L 767.251636 146.991301 
L 768.773455 140.874064 
L 769.686545 138.007719 
L 770.599636 135.896922 
L 771.208364 135.016397 
L 771.817091 134.634263 
L 772.121455 134.636053 
L 772.425818 134.769566 
L 772.730182 135.095689 
L 773.338909 136.340527 
L 773.947636 138.348367 
L 774.556364 141.178224 
L 775.469455 146.933081 
L 776.382545 154.417282 
L 777.295636 163.358729 
L 777.6 236.591479 
L 777.6 236.591479 
" style="fill:none;stroke:#1f77b4;stroke-linecap:square;stroke-width:2.5;"/>
   </g>
   <g id="line2d_30">
    <path clip-path="url(#pc07d9d5a55)" d="M 472.932 219.897422 
L 473.236364 221.00805 
L 473.540727 181.139537 
L 475.062545 176.114556 
L 476.888727 170.942436 
L 478.410545 167.42709 
L 479.628 165.13414 
L 480.541091 163.730477 
L 481.454182 162.549346 
L 483.280364 160.659042 
L 486.932727 157.950036 
L 488.454545 156.257828 
L 490.280727 153.840523 
L 493.02 149.869078 
L 494.237455 148.611038 
L 496.368 146.835456 
L 498.498545 145.809913 
L 502.150909 144.194569 
L 503.672727 143.267032 
L 504.890182 142.249358 
L 506.107636 140.872652 
L 507.325091 139.043339 
L 508.238182 137.337643 
L 509.455636 134.560574 
L 510.673091 131.193035 
L 511.586182 128.264619 
L 514.934182 113.352644 
L 517.064727 104.408364 
L 518.890909 97.804602 
L 520.412727 93.149118 
L 521.934545 89.198869 
L 523.456364 85.895602 
L 524.978182 83.102315 
L 526.804364 80.327183 
L 528.630545 78.039201 
L 531.065455 75.515117 
L 533.500364 73.3903 
L 535.630909 71.760335 
L 538.370182 69.924652 
L 540.805091 68.57684 
L 542.935636 67.68431 
L 544.761818 67.177145 
L 546.588 66.940398 
L 548.109818 66.957317 
L 549.631636 67.175973 
L 551.153455 67.623151 
L 552.675273 68.30731 
L 554.197091 69.249489 
L 555.718909 70.44995 
L 557.545091 72.241033 
L 559.371273 74.397575 
L 561.197455 76.914065 
L 563.023636 79.769124 
L 564.849818 82.947288 
L 566.676 86.492398 
L 569.719636 93.037284 
L 573.067636 100.984566 
L 575.806909 108.154505 
L 580.372364 121.023668 
L 584.937818 134.509165 
L 587.677091 142.588217 
L 588.285818 143.690329 
L 590.112 147.128673 
L 591.938182 150.080361 
L 593.764364 152.586923 
L 595.590545 154.713765 
L 597.721091 156.822279 
L 601.069091 159.729729 
L 604.112727 162.528796 
L 606.547636 165.229551 
L 607.765091 166.938178 
L 608.982545 168.929515 
L 610.504364 171.847877 
L 612.026182 175.280666 
L 613.548 179.252006 
L 615.374182 184.740462 
L 617.200364 190.962685 
L 620.244 202.349322 
L 624.200727 217.276634 
L 625.113818 220.440407 
L 625.418182 181.715133 
L 627.548727 175.12787 
L 628.766182 171.851175 
L 629.983636 168.988743 
L 631.505455 166.015792 
L 632.722909 164.075089 
L 634.244727 162.038666 
L 635.157818 161.077643 
L 635.462182 160.935325 
L 639.418909 157.280768 
L 640.940727 155.615403 
L 645.506182 149.735069 
L 647.636727 147.931034 
L 648.854182 147.301176 
L 649.158545 147.30577 
L 650.071636 146.926544 
L 653.419636 145.655489 
L 654.637091 144.865133 
L 655.854545 143.72555 
L 657.072 142.168171 
L 658.289455 140.116082 
L 659.506909 137.514945 
L 660.724364 134.354534 
L 662.550545 128.775599 
L 663.768 124.708006 
L 665.289818 118.212492 
L 668.029091 107.235723 
L 669.855273 100.735549 
L 671.681455 95.056141 
L 673.507636 90.159084 
L 675.333818 85.961979 
L 677.16 82.395793 
L 678.681818 79.904388 
L 680.203636 77.862819 
L 681.725455 76.190091 
L 683.856 74.247919 
L 687.204 71.524793 
L 691.465091 68.376173 
L 693.595636 67.136226 
L 695.421818 66.3522 
L 697.248 65.85786 
L 699.074182 65.663849 
L 700.596 65.73269 
L 702.117818 66.022437 
L 703.639636 66.545665 
L 705.161455 67.321 
L 708.509455 70.03602 
L 710.64 72.238921 
L 712.466182 74.576104 
L 714.292364 77.258811 
L 716.422909 80.803014 
L 718.857818 85.388404 
L 721.597091 91.183439 
L 724.032 96.845122 
L 726.771273 103.727124 
L 730.728 114.45819 
L 734.684727 125.795653 
L 739.858909 140.903228 
L 740.467636 141.982071 
L 742.293818 145.35333 
L 744.12 148.237571 
L 745.946182 150.673858 
L 747.772364 152.726656 
L 749.902909 154.748759 
L 753.859636 158.002027 
L 756.294545 160.17129 
L 758.425091 162.380405 
L 759.946909 164.457517 
L 761.468727 166.988327 
L 762.990545 170.014612 
L 764.512364 173.603709 
L 766.034182 177.771927 
L 767.860364 183.543505 
L 770.599636 193.567239 
L 773.947636 206.965191 
L 776.991273 218.711152 
L 777.295636 219.782537 
L 777.6 182.320251 
L 777.6 182.320251 
" style="fill:none;stroke:#ff7f0e;stroke-linecap:square;stroke-width:2.5;"/>
   </g>
   <g id="line2d_31">
    <path clip-path="url(#pc07d9d5a55)" d="M 472.932 232.232662 
L 473.236364 232.95972 
L 473.540727 169.506066 
L 475.975636 164.013546 
L 478.714909 158.507974 
L 486.628364 144.41951 
L 488.454545 141.015636 
L 489.672 139.16585 
L 490.585091 138.101594 
L 491.498182 137.34323 
L 492.411273 136.835443 
L 493.324364 136.561956 
L 494.846182 136.433062 
L 495.759273 136.614338 
L 498.498545 137.330579 
L 499.411636 137.315165 
L 500.324727 137.042011 
L 500.933455 136.697614 
L 501.846545 135.933329 
L 502.759636 134.848289 
L 503.672727 133.499805 
L 504.890182 131.311376 
L 506.412 128.015122 
L 508.238182 123.446621 
L 512.499273 111.530178 
L 515.238545 104.213865 
L 517.369091 99.101135 
L 519.195273 95.242979 
L 520.717091 92.485249 
L 522.238909 90.233156 
L 523.456364 88.788414 
L 524.673818 87.641986 
L 526.195636 86.483012 
L 528.630545 84.644811 
L 530.152364 83.186862 
L 531.978545 81.100619 
L 537.152727 75.006578 
L 539.283273 72.901975 
L 541.413818 71.11925 
L 543.24 69.848251 
L 545.370545 68.661971 
L 547.196727 67.93562 
L 548.414182 67.645114 
L 551.457818 67.297396 
L 552.979636 67.440081 
L 554.197091 67.755607 
L 555.718909 68.404547 
L 557.545091 69.512587 
L 559.371273 70.911157 
L 561.806182 73.093963 
L 564.545455 75.819571 
L 567.589091 79.199871 
L 572.458909 85.095971 
L 574.893818 88.473873 
L 577.024364 91.68418 
L 580.068 96.753874 
L 583.111636 102.458541 
L 586.155273 108.88943 
L 588.894545 115.359245 
L 591.025091 120.849933 
L 593.764364 128.553358 
L 596.199273 135.96762 
L 598.938545 144.902813 
L 602.590909 157.676416 
L 608.069455 177.830028 
L 612.939273 195.740637 
L 616.287273 207.24571 
L 619.026545 215.896376 
L 621.765818 223.711744 
L 623.896364 229.255936 
L 625.113818 232.232436 
L 625.418182 170.253519 
L 627.853091 164.734856 
L 631.201091 158.023836 
L 631.809818 157.122049 
L 633.940364 153.685984 
L 636.070909 150.433011 
L 637.897091 147.340168 
L 642.158182 139.879109 
L 643.375636 138.397296 
L 644.288727 137.626169 
L 645.201818 137.14313 
L 646.723636 136.693342 
L 648.549818 136.733478 
L 649.462909 136.647424 
L 650.680364 136.536121 
L 651.593455 136.144086 
L 652.506545 135.537523 
L 653.724 134.412483 
L 654.941455 132.970429 
L 656.463273 130.837074 
L 657.985091 128.3829 
L 659.811273 124.93561 
L 661.637455 120.951775 
L 664.072364 115.0037 
L 668.029091 104.684953 
L 673.507636 90.574302 
L 675.029455 87.2577 
L 675.942545 85.631292 
L 676.855636 84.357518 
L 677.768727 83.451623 
L 678.681818 82.843811 
L 680.203636 82.16245 
L 681.725455 81.382265 
L 682.942909 80.480785 
L 684.160364 79.345645 
L 686.290909 77.009926 
L 691.769455 70.839449 
L 694.204364 68.49482 
L 696.030545 67.046867 
L 697.552364 66.091382 
L 699.074182 65.404771 
L 700.291636 65.091236 
L 701.509091 65.013499 
L 704.248364 65.040499 
L 705.161455 65.25603 
L 708.205091 66.794408 
L 710.335636 68.318564 
L 712.161818 69.949955 
L 714.901091 72.716699 
L 719.466545 77.687175 
L 723.423273 82.384232 
L 725.858182 85.578113 
L 728.597455 89.545797 
L 731.641091 94.502011 
L 734.380364 99.519814 
L 736.815273 104.452971 
L 738.945818 109.156953 
L 741.685091 115.784298 
L 743.815636 121.38524 
L 746.859273 130.130709 
L 749.902909 139.700047 
L 753.250909 151.088394 
L 757.512 166.481917 
L 767.556 203.441295 
L 770.599636 213.426784 
L 773.338909 221.546602 
L 775.469455 227.295458 
L 777.295636 231.848666 
L 777.6 170.631065 
L 777.6 170.631065 
" style="fill:none;stroke:#2ca02c;stroke-linecap:square;stroke-width:2.5;"/>
   </g>
   <g id="line2d_32">
    <path clip-path="url(#pc07d9d5a55)" d="M 473.236364 201.6 
L 777.6 201.6 
" style="fill:none;stroke:#000000;stroke-dasharray:3.2,0.8,0.5,0.8;stroke-dashoffset:0;stroke-width:0.5;"/>
   </g>
   <g id="line2d_33">
    <path clip-path="url(#pc07d9d5a55)" d="M 625.418182 230.4 
L 625.418182 57.6 
" style="fill:none;stroke:#000000;stroke-dasharray:3.2,0.8,0.5,0.8;stroke-dashoffset:0;stroke-width:0.5;"/>
   </g>
   <g id="patch_8">
    <path d="M 473.236364 230.4 
L 473.236364 57.6 
" style="fill:none;stroke:#000000;stroke-linecap:square;stroke-linejoin:miter;stroke-width:0.8;"/>
   </g>
   <g id="patch_9">
    <path d="M 777.6 230.4 
L 777.6 57.6 
" style="fill:none;stroke:#000000;stroke-linecap:square;stroke-linejoin:miter;stroke-width:0.8;"/>
   </g>
   <g id="patch_10">
    <path d="M 473.236364 230.4 
L 777.6 230.4 
" style="fill:none;stroke:#000000;stroke-linecap:square;stroke-linejoin:miter;stroke-width:0.8;"/>
   </g>
   <g id="patch_11">
    <path d="M 473.236364 57.6 
L 777.6 57.6 
" style="fill:none;stroke:#000000;stroke-linecap:square;stroke-linejoin:miter;stroke-width:0.8;"/>
   </g>
  </g>
 </g>
 <defs>
  <clipPath id="p24b359c6bd">
   <rect height="172.8" width="304.363636" x="108" y="57.6"/>
  </clipPath>
  <clipPath id="pc07d9d5a55">
   <rect height="172.8" width="304.363636" x="473.236364" y="57.6"/>
  </clipPath>
 </defs>
</svg>
