<?xml version="1.0" encoding="utf-8" standalone="no"?>
<!DOCTYPE svg PUBLIC "-//W3C//DTD SVG 1.1//EN"
  "http://www.w3.org/Graphics/SVG/1.1/DTD/svg11.dtd">
<!-- Created with matplotlib (https://matplotlib.org/) -->
<svg height="288pt" version="1.1" viewBox="0 0 864 288" width="864pt" xmlns="http://www.w3.org/2000/svg" xmlns:xlink="http://www.w3.org/1999/xlink">
 <metadata>
  <rdf:RDF xmlns:cc="http://creativecommons.org/ns#" xmlns:dc="http://purl.org/dc/elements/1.1/" xmlns:rdf="http://www.w3.org/1999/02/22-rdf-syntax-ns#">
   <cc:Work>
    <dc:type rdf:resource="http://purl.org/dc/dcmitype/StillImage"/>
    <dc:date>2021-11-09T14:53:42.004422</dc:date>
    <dc:format>image/svg+xml</dc:format>
    <dc:creator>
     <cc:Agent>
      <dc:title>Matplotlib v3.3.4, https://matplotlib.org/</dc:title>
     </cc:Agent>
    </dc:creator>
   </cc:Work>
  </rdf:RDF>
 </metadata>
 <defs>
  <style type="text/css">*{stroke-linecap:butt;stroke-linejoin:round;}</style>
 </defs>
 <g id="figure_1">
  <g id="patch_1">
   <path d="M 0 288 
L 864 288 
L 864 0 
L 0 0 
z
" style="fill:#ffffff;"/>
  </g>
  <g id="axes_1">
   <g id="patch_2">
    <path d="M 108 230.4 
L 412.363636 230.4 
L 412.363636 57.6 
L 108 57.6 
z
" style="fill:#ffffff;"/>
   </g>
   <g id="matplotlib.axis_1">
    <g id="xtick_1">
     <g id="line2d_1">
      <defs>
       <path d="M 0 0 
L 0 3.5 
" id="mad0d8a122b" style="stroke:#000000;stroke-width:0.8;"/>
      </defs>
      <g>
       <use style="fill:#ffffff;stroke:#000000;stroke-width:0.8;" x="108" xlink:href="#mad0d8a122b" y="230.4"/>
      </g>
     </g>
     <g id="text_1">
      <!-- 4.0 -->
      <g transform="translate(96.75 249.693438)scale(0.18 -0.18)">
       <defs>
        <path d="M 47.296875 16.703125 
L 37 16.703125 
L 37 0 
L 29.203125 0 
L 29.203125 16.703125 
L 1.203125 16.703125 
L 1.203125 23.09375 
L 32.59375 67.59375 
L 37 67.59375 
L 37 23.09375 
L 47.296875 23.09375 
z
M 29.203125 23.09375 
L 29.203125 57.40625 
L 5.203125 23.09375 
z
" id="STIXGeneral-Regular-52"/>
        <path d="M 18.09375 4.296875 
Q 18.09375 2.09375 16.4375 0.5 
Q 14.796875 -1.09375 12.5 -1.09375 
Q 10.203125 -1.09375 8.59375 0.5 
Q 7 2.09375 7 4.390625 
Q 7 6.703125 8.640625 8.34375 
Q 10.296875 10 12.59375 10 
Q 14.796875 10 16.4375 8.296875 
Q 18.09375 6.59375 18.09375 4.296875 
z
" id="STIXGeneral-Regular-46"/>
        <path d="M 47.59375 33 
Q 47.59375 26.296875 46.296875 20.34375 
Q 45 14.40625 42.453125 9.40625 
Q 39.90625 4.40625 35.40625 1.5 
Q 30.90625 -1.40625 25 -1.40625 
Q 18.90625 -1.40625 14.296875 1.6875 
Q 9.703125 4.796875 7.203125 10 
Q 4.703125 15.203125 3.546875 21.09375 
Q 2.40625 27 2.40625 33.59375 
Q 2.40625 42.90625 4.703125 50.34375 
Q 7 57.796875 12.34375 62.6875 
Q 17.703125 67.59375 25.40625 67.59375 
Q 35.203125 67.59375 41.390625 58 
Q 47.59375 48.40625 47.59375 33 
z
M 38 32.5 
Q 38 48.296875 34.640625 56.640625 
Q 31.296875 65 24.796875 65 
Q 18.59375 65 15.296875 56.59375 
Q 12 48.203125 12 32.90625 
Q 12 17.5 15.296875 9.34375 
Q 18.59375 1.203125 25 1.203125 
Q 31.296875 1.203125 34.640625 9.34375 
Q 38 17.5 38 32.5 
z
" id="STIXGeneral-Regular-48"/>
       </defs>
       <use xlink:href="#STIXGeneral-Regular-52"/>
       <use x="49.999985" xlink:href="#STIXGeneral-Regular-46"/>
       <use x="74.999969" xlink:href="#STIXGeneral-Regular-48"/>
      </g>
     </g>
    </g>
    <g id="xtick_2">
     <g id="line2d_2">
      <g>
       <use style="fill:#ffffff;stroke:#000000;stroke-width:0.8;" x="168.872727" xlink:href="#mad0d8a122b" y="230.4"/>
      </g>
     </g>
     <g id="text_2">
      <!-- 4.2 -->
      <g transform="translate(157.622727 249.693438)scale(0.18 -0.18)">
       <defs>
        <path d="M 47.40625 13.703125 
L 42 0 
L 2.90625 0 
L 2.90625 1.203125 
L 20.703125 20.09375 
Q 27.703125 27.40625 30.703125 33.5 
Q 33.703125 39.59375 33.703125 46.09375 
Q 33.703125 52.796875 30 56.5 
Q 26.296875 60.203125 19.796875 60.203125 
Q 14.40625 60.203125 11.25 57.390625 
Q 8.09375 54.59375 5.09375 47.203125 
L 3 47.703125 
Q 4.703125 57 9.84375 62.296875 
Q 15 67.59375 23.796875 67.59375 
Q 32.09375 67.59375 37.1875 62.59375 
Q 42.296875 57.59375 42.296875 50 
Q 42.296875 38.703125 29.5 25.203125 
L 13 7.59375 
L 36.40625 7.59375 
Q 39.703125 7.59375 41.640625 8.890625 
Q 43.59375 10.203125 46 14.296875 
z
" id="STIXGeneral-Regular-50"/>
       </defs>
       <use xlink:href="#STIXGeneral-Regular-52"/>
       <use x="49.999985" xlink:href="#STIXGeneral-Regular-46"/>
       <use x="74.999969" xlink:href="#STIXGeneral-Regular-50"/>
      </g>
     </g>
    </g>
    <g id="xtick_3">
     <g id="line2d_3">
      <g>
       <use style="fill:#ffffff;stroke:#000000;stroke-width:0.8;" x="229.745455" xlink:href="#mad0d8a122b" y="230.4"/>
      </g>
     </g>
     <g id="text_3">
      <!-- 4.4 -->
      <g transform="translate(218.495455 249.693438)scale(0.18 -0.18)">
       <use xlink:href="#STIXGeneral-Regular-52"/>
       <use x="49.999985" xlink:href="#STIXGeneral-Regular-46"/>
       <use x="74.999969" xlink:href="#STIXGeneral-Regular-52"/>
      </g>
     </g>
    </g>
    <g id="xtick_4">
     <g id="line2d_4">
      <g>
       <use style="fill:#ffffff;stroke:#000000;stroke-width:0.8;" x="290.618182" xlink:href="#mad0d8a122b" y="230.4"/>
      </g>
     </g>
     <g id="text_4">
      <!-- 4.6 -->
      <g transform="translate(279.368182 249.693438)scale(0.18 -0.18)">
       <defs>
        <path d="M 44.59375 68.40625 
L 44.796875 66.796875 
Q 33 64.90625 25.09375 57.25 
Q 17.203125 49.59375 15.203125 38.296875 
Q 21 42.796875 27.90625 42.796875 
Q 36.703125 42.796875 41.75 37.1875 
Q 46.796875 31.59375 46.796875 21.90625 
Q 46.796875 12.09375 41.703125 5.90625 
Q 35.796875 -1.40625 25.796875 -1.40625 
Q 13.59375 -1.40625 8.09375 8.703125 
Q 3.40625 17.296875 3.40625 27.90625 
Q 3.40625 44.296875 14.296875 55.5 
Q 20.5 61.90625 27.046875 64.546875 
Q 33.59375 67.203125 44.59375 68.40625 
z
M 37.796875 18.796875 
Q 37.796875 38.203125 24.296875 38.203125 
Q 19.296875 38.203125 16 35.546875 
Q 12.703125 32.90625 12.703125 26.59375 
Q 12.703125 14.90625 16.34375 8.15625 
Q 20 1.40625 26.90625 1.40625 
Q 32.203125 1.40625 35 6.15625 
Q 37.796875 10.90625 37.796875 18.796875 
z
" id="STIXGeneral-Regular-54"/>
       </defs>
       <use xlink:href="#STIXGeneral-Regular-52"/>
       <use x="49.999985" xlink:href="#STIXGeneral-Regular-46"/>
       <use x="74.999969" xlink:href="#STIXGeneral-Regular-54"/>
      </g>
     </g>
    </g>
    <g id="xtick_5">
     <g id="line2d_5">
      <g>
       <use style="fill:#ffffff;stroke:#000000;stroke-width:0.8;" x="351.490909" xlink:href="#mad0d8a122b" y="230.4"/>
      </g>
     </g>
     <g id="text_5">
      <!-- 4.8 -->
      <g transform="translate(340.240909 249.693438)scale(0.18 -0.18)">
       <defs>
        <path d="M 44.5 15.5 
Q 44.5 7.796875 39.140625 3.1875 
Q 33.796875 -1.40625 24.796875 -1.40625 
Q 16.40625 -1.40625 11 3.1875 
Q 5.59375 7.796875 5.59375 14.90625 
Q 5.59375 20.203125 8.1875 23.953125 
Q 10.796875 27.703125 18.59375 33.203125 
Q 11.09375 39.40625 8.640625 43.203125 
Q 6.203125 47 6.203125 52 
Q 6.203125 59.09375 11.640625 63.34375 
Q 17.09375 67.59375 25.59375 67.59375 
Q 32.90625 67.59375 37.65625 63.4375 
Q 42.40625 59.296875 42.40625 53.296875 
Q 42.40625 47.796875 39.546875 44.5 
Q 36.703125 41.203125 29 37.09375 
Q 38 31.09375 41.25 26.390625 
Q 44.5 21.703125 44.5 15.5 
z
M 35.5 53.296875 
Q 35.5 58.5 32.59375 61.640625 
Q 29.703125 64.796875 24.59375 64.796875 
Q 19.5 64.796875 16.546875 62.140625 
Q 13.59375 59.5 13.59375 54.890625 
Q 13.59375 50.296875 16.546875 46.546875 
Q 19.5 42.796875 26.09375 38.90625 
Q 31.203125 41.90625 33.34375 45.25 
Q 35.5 48.59375 35.5 53.296875 
z
M 27.09375 27.203125 
L 21.203125 31.203125 
Q 16.796875 27.59375 15 24.140625 
Q 13.203125 20.703125 13.203125 15.796875 
Q 13.203125 9 16.640625 5.203125 
Q 20.09375 1.40625 25.90625 1.40625 
Q 30.796875 1.40625 33.84375 4.453125 
Q 36.90625 7.5 36.90625 12.40625 
Q 36.90625 16.90625 34.59375 20.296875 
Q 32.296875 23.703125 27.09375 27.203125 
z
" id="STIXGeneral-Regular-56"/>
       </defs>
       <use xlink:href="#STIXGeneral-Regular-52"/>
       <use x="49.999985" xlink:href="#STIXGeneral-Regular-46"/>
       <use x="74.999969" xlink:href="#STIXGeneral-Regular-56"/>
      </g>
     </g>
    </g>
    <g id="xtick_6">
     <g id="line2d_6">
      <g>
       <use style="fill:#ffffff;stroke:#000000;stroke-width:0.8;" x="412.363636" xlink:href="#mad0d8a122b" y="230.4"/>
      </g>
     </g>
     <g id="text_6">
      <!-- 5.0 -->
      <g transform="translate(401.113636 249.693438)scale(0.18 -0.18)">
       <defs>
        <path d="M 43.796875 68.09375 
L 40.203125 59.59375 
Q 39.59375 58.296875 37.5 58.296875 
L 18.09375 58.296875 
L 14.09375 49.796875 
Q 25.09375 47.703125 30 45.25 
Q 34.90625 42.796875 39.09375 37 
Q 42.59375 32.203125 42.59375 24.296875 
Q 42.59375 17.09375 40.25 12.1875 
Q 37.90625 7.296875 32.796875 3.5 
Q 26 -1.40625 15.796875 -1.40625 
Q 10.09375 -1.40625 6.59375 0.296875 
Q 3.09375 2 3.09375 4.796875 
Q 3.09375 8.59375 7.59375 8.59375 
Q 11.203125 8.59375 15 5.5 
Q 18.90625 2.296875 22.09375 2.296875 
Q 27.296875 2.296875 31.4375 7.5 
Q 35.59375 12.703125 35.59375 19.203125 
Q 35.59375 28.796875 28.90625 34.203125 
Q 20.203125 41.203125 7.59375 41.203125 
Q 6.40625 41.203125 6.40625 42 
L 6.5 42.5 
L 17.40625 66.203125 
L 38.09375 66.203125 
Q 39.796875 66.203125 40.75 66.703125 
Q 41.703125 67.203125 42.90625 68.796875 
z
" id="STIXGeneral-Regular-53"/>
       </defs>
       <use xlink:href="#STIXGeneral-Regular-53"/>
       <use x="49.999985" xlink:href="#STIXGeneral-Regular-46"/>
       <use x="74.999969" xlink:href="#STIXGeneral-Regular-48"/>
      </g>
     </g>
    </g>
    <g id="text_7">
     <!-- $\^t$ -->
     <g transform="translate(257.661818 269.893438)scale(0.18 -0.18)">
      <defs>
       <path d="M -7.5 50.703125 
L -10.90625 50.703125 
L -23.09375 61 
L -35.203125 50.703125 
L -38.59375 50.703125 
L -26.203125 67.40625 
L -20 67.40625 
z
" id="STIXGeneral-Regular-770"/>
       <path d="M 29.59375 42.796875 
L 29.09375 39.59375 
L 20.703125 39.59375 
L 12 6.796875 
Q 11.796875 6 11.796875 5.40625 
Q 11.796875 3.796875 13.296875 3.796875 
Q 14.5 3.796875 16.09375 5.34375 
Q 17.703125 6.90625 21.40625 11.703125 
L 22.703125 11 
Q 18.09375 4 15.140625 1.453125 
Q 12.203125 -1.09375 8.40625 -1.09375 
Q 3.796875 -1.09375 3.796875 2.59375 
Q 3.796875 3.59375 5.40625 10 
L 13.203125 39.59375 
L 5.703125 39.59375 
L 5.59375 40.203125 
Q 5.59375 42 8.90625 42.703125 
Q 11.40625 43.296875 15.5 46.546875 
Q 19.59375 49.796875 22.203125 53.703125 
Q 22.796875 54.59375 23.59375 54.59375 
Q 24.5 54.59375 24.5 53.796875 
Q 24.5 53.296875 24.40625 53.09375 
L 21.59375 42.796875 
z
" id="STIXGeneral-Italic-116"/>
      </defs>
      <use transform="translate(39.042969 16.59375)" xlink:href="#STIXGeneral-Regular-770"/>
      <use transform="translate(0 0.203125)" xlink:href="#STIXGeneral-Italic-116"/>
     </g>
    </g>
   </g>
   <g id="matplotlib.axis_2">
    <g id="ytick_1">
     <g id="line2d_7">
      <defs>
       <path d="M 0 0 
L -3.5 0 
" id="mdd1af47428" style="stroke:#000000;stroke-width:0.8;"/>
      </defs>
      <g>
       <use style="fill:#ffffff;stroke:#000000;stroke-width:0.8;" x="108" xlink:href="#mdd1af47428" y="217.44"/>
      </g>
     </g>
     <g id="text_8">
      <!-- 0 -->
      <g transform="translate(92 223.586719)scale(0.18 -0.18)">
       <use xlink:href="#STIXGeneral-Regular-48"/>
      </g>
     </g>
    </g>
    <g id="ytick_2">
     <g id="line2d_8">
      <g>
       <use style="fill:#ffffff;stroke:#000000;stroke-width:0.8;" x="108" xlink:href="#mdd1af47428" y="174.24"/>
      </g>
     </g>
     <g id="text_9">
      <!-- 1 -->
      <g transform="translate(92 180.386719)scale(0.18 -0.18)">
       <defs>
        <path d="M 39.40625 0 
L 11.796875 0 
L 11.796875 1.5 
Q 17.296875 1.796875 19.296875 3.546875 
Q 21.296875 5.296875 21.296875 9.5 
L 21.296875 54.40625 
Q 21.296875 59.296875 18.296875 59.296875 
Q 16.90625 59.296875 13.796875 58.09375 
L 11.09375 57.09375 
L 11.09375 58.5 
L 29 67.59375 
L 29.90625 67.296875 
L 29.90625 7.59375 
Q 29.90625 4.296875 31.90625 2.890625 
Q 33.90625 1.5 39.40625 1.5 
z
" id="STIXGeneral-Regular-49"/>
       </defs>
       <use xlink:href="#STIXGeneral-Regular-49"/>
      </g>
     </g>
    </g>
    <g id="ytick_3">
     <g id="line2d_9">
      <g>
       <use style="fill:#ffffff;stroke:#000000;stroke-width:0.8;" x="108" xlink:href="#mdd1af47428" y="131.04"/>
      </g>
     </g>
     <g id="text_10">
      <!-- 2 -->
      <g transform="translate(92 137.186719)scale(0.18 -0.18)">
       <use xlink:href="#STIXGeneral-Regular-50"/>
      </g>
     </g>
    </g>
    <g id="ytick_4">
     <g id="line2d_10">
      <g>
       <use style="fill:#ffffff;stroke:#000000;stroke-width:0.8;" x="108" xlink:href="#mdd1af47428" y="87.84"/>
      </g>
     </g>
     <g id="text_11">
      <!-- 3 -->
      <g transform="translate(92 93.986719)scale(0.18 -0.18)">
       <defs>
        <path d="M 6.09375 51 
L 4.5 51.40625 
Q 6.796875 58.90625 11.6875 63.25 
Q 16.59375 67.59375 24.09375 67.59375 
Q 31.09375 67.59375 35.390625 63.796875 
Q 39.703125 60 39.703125 53.90625 
Q 39.703125 45.703125 30.40625 40.09375 
Q 35.90625 37.703125 38.703125 34.796875 
Q 43.09375 29.90625 43.09375 21.90625 
Q 43.09375 13.90625 38.5 7.90625 
Q 35.09375 3.296875 28.75 0.9375 
Q 22.40625 -1.40625 15.296875 -1.40625 
Q 4.09375 -1.40625 4.09375 4.296875 
Q 4.09375 5.90625 5.296875 6.90625 
Q 6.5 7.90625 8.203125 7.90625 
Q 10.703125 7.90625 14.296875 5.296875 
Q 18.703125 2.203125 22.90625 2.203125 
Q 28.40625 2.203125 32.15625 6.640625 
Q 35.90625 11.09375 35.90625 17.5 
Q 35.90625 29 25.5 32 
Q 22.40625 33 15.296875 33 
L 15.296875 34.40625 
Q 20.90625 36.296875 23.703125 38 
Q 31.796875 42.59375 31.796875 51.40625 
Q 31.796875 56.40625 28.9375 59 
Q 26.09375 61.59375 21 61.59375 
Q 12 61.59375 6.09375 51 
z
" id="STIXGeneral-Regular-51"/>
       </defs>
       <use xlink:href="#STIXGeneral-Regular-51"/>
      </g>
     </g>
    </g>
    <g id="text_12">
     <!-- $C_L$ -->
     <g transform="translate(84.093437 153.99)rotate(-90)scale(0.18 -0.18)">
      <defs>
       <path d="M 68.90625 66.40625 
L 65.203125 46.40625 
L 63.40625 46.703125 
Q 61.59375 63 48.5 63 
Q 37.59375 63 28.59375 53.296875 
Q 23.296875 47.703125 20.546875 39.703125 
Q 17.796875 31.703125 17.796875 23.203125 
Q 17.796875 2.703125 35.296875 2.703125 
Q 41.5 2.703125 46.640625 5.296875 
Q 51.796875 7.90625 58.203125 14.59375 
L 60 13.09375 
Q 53.296875 5.203125 46.84375 1.703125 
Q 40.40625 -1.796875 32.703125 -1.796875 
Q 21 -1.796875 13.796875 5.140625 
Q 6.59375 12.09375 6.59375 24.296875 
Q 6.59375 34.59375 11.6875 43.9375 
Q 16.796875 53.296875 25.296875 59.296875 
Q 35.5 66.59375 47.203125 66.59375 
Q 54.09375 66.59375 58.90625 64.90625 
Q 60.90625 64.203125 63 64.203125 
Q 65.703125 64.203125 66.796875 66.40625 
z
" id="STIXGeneral-Italic-67"/>
       <path d="M 55.90625 18 
L 50.09375 0 
L -0.796875 0 
L -0.796875 1.59375 
Q 3.40625 2 4.703125 3.296875 
Q 6 4.59375 7.40625 9.40625 
L 19.59375 53.203125 
Q 20.703125 56.90625 20.703125 59.40625 
Q 20.703125 61.59375 19.140625 62.5 
Q 17.59375 63.40625 13 63.703125 
L 13 65.296875 
L 40.296875 65.296875 
L 40.296875 63.703125 
Q 35.703125 63.40625 33.546875 61.796875 
Q 31.40625 60.203125 30.203125 56 
L 18.203125 13.09375 
Q 17.203125 9.296875 17.203125 7.703125 
Q 17.203125 5.40625 19.390625 4.5 
Q 21.59375 3.59375 27.703125 3.59375 
Q 35.40625 3.59375 38.75 4.296875 
Q 42.09375 5 45.703125 7.40625 
Q 49.796875 10.09375 53.90625 18.59375 
z
" id="STIXGeneral-Italic-76"/>
      </defs>
      <use transform="translate(0 0.40625)" xlink:href="#STIXGeneral-Italic-67"/>
      <use transform="translate(66.699997 -12.821875)scale(0.7)" xlink:href="#STIXGeneral-Italic-76"/>
     </g>
    </g>
   </g>
   <g id="line2d_11">
    <path clip-path="url(#pe7b32f0865)" d="M 107.695636 223.593923 
L 108 223.616529 
L 108.304364 223.472844 
L 108.608727 223.163437 
L 109.217455 222.060348 
L 109.826182 220.338702 
L 110.739273 216.73113 
L 111.956727 210.518979 
L 115.304727 191.991093 
L 116.217818 188.047884 
L 117.130909 184.904484 
L 118.044 182.560313 
L 118.957091 180.918148 
L 119.261455 180.497488 
L 119.565818 180.400004 
L 120.478909 179.605463 
L 121.696364 178.893246 
L 122.000727 178.750488 
L 122.305091 178.354374 
L 122.609455 178.537708 
L 123.522545 178.469897 
L 124.74 178.538076 
L 125.348727 178.830812 
L 125.957455 179.385241 
L 126.566182 180.266234 
L 127.174909 181.462572 
L 127.479273 180.576049 
L 127.783636 179.286318 
L 129.609818 175.224012 
L 131.131636 172.212406 
L 132.957818 169.161178 
L 135.392727 165.662111 
L 138.436364 161.28107 
L 139.653818 159.181741 
L 143.001818 153.15594 
L 145.132364 148.646262 
L 148.176 141.526521 
L 151.524 133.823558 
L 152.741455 131.218786 
L 154.263273 127.543588 
L 155.785091 123.236129 
L 157.306909 118.191572 
L 159.133091 111.255695 
L 164.611636 89.663744 
L 166.742182 82.527303 
L 168.264 78.159707 
L 169.785818 74.502251 
L 171.003273 72.117429 
L 172.220727 70.232851 
L 173.438182 68.841598 
L 174.351273 68.100686 
L 175.264364 67.597197 
L 176.481818 67.240846 
L 177.699273 67.166258 
L 179.221091 67.355027 
L 181.047273 67.79497 
L 184.395273 68.829331 
L 187.743273 70.127415 
L 189.569455 71.087849 
L 191.091273 72.095831 
L 192.613091 73.336776 
L 194.439273 75.178386 
L 196.265455 77.387832 
L 198.091636 80.037343 
L 200.222182 83.612415 
L 202.352727 87.732611 
L 204.483273 92.357745 
L 206.613818 97.51241 
L 208.744364 103.102913 
L 212.701091 114.319788 
L 216.353455 125.336462 
L 220.614545 138.563574 
L 232.180364 173.929828 
L 236.745818 186.476489 
L 239.180727 192.643452 
L 241.006909 196.985289 
L 241.311273 197.593612 
L 241.615636 196.769827 
L 241.92 195.251695 
L 242.528727 193.578779 
L 244.963636 186.087959 
L 245.876727 183.807799 
L 246.789818 182.146764 
L 247.398545 181.479672 
L 247.702909 181.292115 
L 248.311636 181.302656 
L 248.616 181.459384 
L 249.224727 182.135514 
L 249.833455 183.144222 
L 250.442182 184.617704 
L 251.355273 187.597568 
L 252.268364 191.401839 
L 253.485818 197.421862 
L 257.442545 217.954753 
L 258.355636 221.115894 
L 258.964364 222.554197 
L 259.573091 223.385076 
L 259.877455 223.558558 
L 260.181818 223.566276 
L 260.486182 223.406381 
L 260.790545 223.080239 
L 261.399273 221.941663 
L 262.008 220.186347 
L 262.921091 216.515449 
L 264.138545 210.196862 
L 267.486545 191.340291 
L 268.399636 187.301061 
L 269.312727 184.053753 
L 270.225818 181.613486 
L 271.138909 179.860286 
L 271.443273 179.43888 
L 271.747636 179.385638 
L 272.965091 178.256708 
L 273.269455 178.037008 
L 273.573818 177.629995 
L 274.182545 177.344469 
L 274.486909 177.410102 
L 274.791273 177.83267 
L 275.704364 177.927794 
L 276.313091 177.993514 
L 276.921818 178.264226 
L 277.530545 178.80903 
L 278.139273 179.672411 
L 278.748 180.888572 
L 279.356727 182.447744 
L 279.661091 181.746823 
L 279.965455 180.640524 
L 281.182909 178.642286 
L 283.922182 174.151929 
L 290.313818 164.28807 
L 292.748727 159.734205 
L 294.879273 154.933715 
L 303.097091 135.028181 
L 304.618909 130.713963 
L 306.140727 125.694057 
L 307.966909 118.674906 
L 314.662909 91.234997 
L 316.489091 85.10183 
L 318.010909 80.703453 
L 319.532727 76.996797 
L 320.750182 74.551076 
L 321.967636 72.561217 
L 323.185091 71.01097 
L 324.402545 69.876043 
L 325.62 69.113577 
L 326.837455 68.665725 
L 328.054909 68.469173 
L 329.272364 68.444598 
L 331.402909 68.635456 
L 339.620727 69.933862 
L 340.838182 70.380087 
L 342.664364 71.34226 
L 343.881818 72.199467 
L 344.794909 72.988681 
L 346.925455 75.19097 
L 348.447273 77.068418 
L 350.273455 79.790148 
L 352.404 83.276118 
L 354.534545 87.23877 
L 356.665091 91.690566 
L 359.1 97.387159 
L 361.534909 103.683612 
L 364.578545 112.26085 
L 368.839636 125.151413 
L 376.144364 148.352221 
L 380.101091 160.712824 
L 386.188364 178.809633 
L 389.840727 188.751178 
L 393.188727 197.004705 
L 393.493091 197.624882 
L 393.797455 196.809878 
L 394.101818 195.295355 
L 394.710545 193.639494 
L 397.449818 185.403002 
L 398.362909 183.340485 
L 398.971636 182.33779 
L 399.580364 181.686034 
L 399.884727 181.509373 
L 400.493455 181.547937 
L 400.797818 181.693342 
L 401.406545 182.338534 
L 402.015273 183.415409 
L 402.624 184.896638 
L 403.537091 187.873061 
L 404.450182 191.677331 
L 405.667636 197.688465 
L 409.32 216.752861 
L 410.233091 220.199342 
L 410.841818 221.876423 
L 411.450545 222.971736 
L 412.059273 223.437637 
L 412.363636 223.427286 
L 412.363636 223.427286 
" style="fill:none;stroke:#1f77b4;stroke-linecap:square;stroke-width:2.5;"/>
   </g>
   <g id="line2d_12">
    <path clip-path="url(#pe7b32f0865)" d="M 107.695636 216.134033 
L 108.913091 214.465843 
L 110.130545 212.412843 
L 111.956727 208.810358 
L 116.522182 199.394584 
L 117.739636 197.388632 
L 118.957091 195.73954 
L 120.174545 194.511444 
L 121.392 193.613 
L 122.305091 193.092349 
L 122.609455 193.08053 
L 123.826909 192.407796 
L 124.435636 191.940386 
L 125.044364 191.285401 
L 126.261818 190.084162 
L 127.479273 188.510927 
L 129.001091 186.067863 
L 131.436 181.548765 
L 132.044727 180.401621 
L 132.349091 180.131753 
L 133.566545 178.023127 
L 139.958182 166.632228 
L 140.566909 165.280454 
L 141.175636 164.2553 
L 143.914909 158.614621 
L 146.349818 153.223441 
L 148.784727 145.86294 
L 153.654545 131.402906 
L 156.393818 123.191573 
L 158.524364 115.989536 
L 160.654909 107.978893 
L 165.829091 88.118466 
L 167.959636 81.012559 
L 169.481455 76.660924 
L 171.003273 73.102007 
L 172.220727 70.884358 
L 173.133818 69.605603 
L 174.046909 68.640891 
L 174.96 67.968342 
L 175.873091 67.536366 
L 177.090545 67.253618 
L 178.612364 67.226484 
L 180.742909 67.482147 
L 183.786545 68.075743 
L 185.917091 68.685948 
L 187.743273 69.433596 
L 189.265091 70.2778 
L 190.786909 71.347215 
L 192.613091 72.9584 
L 194.439273 74.93414 
L 196.265455 77.276366 
L 198.700364 80.898563 
L 201.135273 85.183611 
L 203.570182 90.097683 
L 205.700727 94.896579 
L 211.179273 109.398799 
L 214.831636 120.260164 
L 221.832 142.384766 
L 222.745091 144.935271 
L 225.788727 152.275103 
L 230.354182 162.471375 
L 234.310909 170.919745 
L 237.963273 179.393107 
L 240.702545 186.426223 
L 244.963636 198.209445 
L 248.007273 206.352993 
L 250.137818 211.398952 
L 251.355273 213.761703 
L 252.572727 215.688006 
L 253.485818 216.818513 
L 254.398909 217.65037 
L 255.312 218.166558 
L 256.225091 218.36571 
L 257.138182 218.241133 
L 258.051273 217.804213 
L 258.964364 217.065344 
L 259.877455 216.041359 
L 261.094909 214.282139 
L 262.312364 212.134798 
L 264.138545 208.381817 
L 268.704 198.675158 
L 269.921455 196.609783 
L 271.138909 194.935216 
L 272.660727 193.407165 
L 273.878182 192.560952 
L 275.095636 191.963766 
L 275.4 191.965798 
L 278.443636 189.868337 
L 279.356727 188.974322 
L 280.574182 187.46342 
L 282.096 185.130202 
L 284.226545 181.679815 
L 284.530909 181.490571 
L 285.748364 179.724865 
L 290.313818 172.7699 
L 291.835636 169.998736 
L 293.357455 166.817336 
L 295.488 161.798616 
L 298.836 153.34614 
L 303.097091 140.216383 
L 305.227636 132.584198 
L 307.053818 125.241984 
L 310.706182 109.325777 
L 314.054182 95.264002 
L 316.184727 87.183823 
L 318.010909 81.10147 
L 319.532727 76.820724 
L 320.750182 74.030378 
L 321.967636 71.859531 
L 322.880727 70.650771 
L 323.793818 69.766075 
L 324.706909 69.176292 
L 325.62 68.826723 
L 326.837455 68.645603 
L 328.359273 68.668283 
L 332.011636 68.845293 
L 335.359636 68.739418 
L 337.490182 68.786485 
L 339.316364 69.16762 
L 340.838182 69.745096 
L 342.36 70.634 
L 343.881818 71.756122 
L 345.099273 72.913367 
L 347.534182 75.573758 
L 349.360364 77.909249 
L 351.186545 80.576211 
L 353.012727 83.599612 
L 354.838909 87.004423 
L 356.969455 91.495112 
L 359.1 96.547425 
L 361.534909 102.963023 
L 364.578545 111.764992 
L 369.144 126.020098 
L 373.405091 139.907905 
L 374.622545 143.84071 
L 375.84 146.853277 
L 379.188 154.749797 
L 382.231636 161.395201 
L 388.927636 176.187668 
L 391.666909 182.995787 
L 394.406182 190.408705 
L 399.884727 205.534152 
L 401.710909 209.988314 
L 403.232727 213.135971 
L 404.450182 215.184653 
L 405.667636 216.763788 
L 406.580727 217.597789 
L 407.493818 218.128996 
L 408.406909 218.337783 
L 409.015636 218.301643 
L 409.928727 217.986664 
L 410.841818 217.36495 
L 411.754909 216.464091 
L 412.363636 215.717833 
L 412.363636 215.717833 
" style="fill:none;stroke:#ff7f0e;stroke-linecap:square;stroke-width:2.5;"/>
   </g>
   <g id="line2d_13">
    <path clip-path="url(#pe7b32f0865)" d="M 107.695636 212.903915 
L 109.521818 211.70885 
L 111.652364 210.024174 
L 114.696 207.29646 
L 122.305091 200.251471 
L 122.913818 199.520985 
L 125.044364 197.291825 
L 126.566182 195.347928 
L 128.088 192.975575 
L 132.044727 186.4944 
L 133.566545 184.507041 
L 136.305818 181.496141 
L 136.610182 181.446989 
L 137.523273 180.577657 
L 139.349455 178.500321 
L 141.175636 176.07098 
L 142.088727 174.5715 
L 142.697455 173.777413 
L 144.219273 171.148048 
L 145.741091 168.061824 
L 147.262909 164.514598 
L 148.784727 160.419296 
L 150.610909 154.793956 
L 152.437091 148.398925 
L 154.567636 140.046909 
L 158.22 124.470729 
L 162.176727 107.716319 
L 164.611636 98.360996 
L 166.437818 92.2954 
L 167.959636 88.008478 
L 169.481455 84.391427 
L 171.003273 81.372663 
L 172.525091 78.775333 
L 174.96 75.104222 
L 177.699273 71.367829 
L 179.525455 69.230117 
L 180.742909 68.077131 
L 181.960364 67.221982 
L 183.177818 66.691151 
L 184.090909 66.512657 
L 185.917091 66.391489 
L 187.134545 66.63626 
L 188.352 67.101779 
L 189.873818 67.952756 
L 191.395636 69.065255 
L 193.221818 70.711342 
L 195.048 72.673669 
L 197.178545 75.364135 
L 199.309091 78.373409 
L 201.744 82.334845 
L 206.005091 90.512217 
L 211.788 104.35502 
L 215.136 113.607027 
L 217.570909 120.927491 
L 220.310182 129.690428 
L 224.266909 143.263956 
L 229.441091 161.806273 
L 233.702182 176.722493 
L 236.441455 185.623969 
L 238.876364 192.791528 
L 241.006909 198.360404 
L 242.224364 201.053154 
L 244.050545 204.812971 
L 245.572364 207.46668 
L 247.094182 209.680663 
L 248.616 211.506031 
L 249.833455 212.609381 
L 251.050909 213.445081 
L 252.268364 214.035157 
L 253.485818 214.386953 
L 254.703273 214.519373 
L 255.920727 214.455701 
L 257.442545 214.124438 
L 258.964364 213.558398 
L 260.790545 212.605066 
L 262.616727 211.390916 
L 264.747273 209.695118 
L 267.182182 207.497462 
L 273.878182 201.082612 
L 276.617455 198.223659 
L 277.834909 196.839209 
L 279.356727 194.782954 
L 281.182909 191.81248 
L 284.530909 186.111244 
L 286.052727 184.019791 
L 287.574545 182.139821 
L 287.878909 182.075474 
L 288.792 181.181065 
L 291.835636 177.778474 
L 293.357455 175.717749 
L 294.574909 173.745056 
L 295.792364 171.390769 
L 297.009818 168.640497 
L 298.531636 164.650654 
L 300.357818 159.102437 
L 302.488364 151.705653 
L 304.618909 143.474061 
L 308.271273 128.364957 
L 311.010545 117.523876 
L 312.836727 111.071171 
L 314.662909 105.396626 
L 316.489091 100.416983 
L 321.967636 86.08843 
L 327.750545 69.744518 
L 328.968 67.315247 
L 329.881091 65.930763 
L 330.794182 64.929457 
L 331.707273 64.298626 
L 332.620364 63.994569 
L 333.533455 63.96588 
L 334.446545 64.14903 
L 335.664 64.633167 
L 337.490182 65.460865 
L 339.316364 66.382181 
L 341.751273 67.858057 
L 344.794909 70.374906 
L 346.012364 71.718533 
L 348.142909 74.174652 
L 350.273455 76.943187 
L 353.012727 80.920041 
L 355.447636 84.826912 
L 357.882545 89.146294 
L 360.317455 93.965495 
L 362.752364 99.381133 
L 364.578545 104.014793 
L 367.317818 111.510375 
L 369.448364 117.890431 
L 372.492 127.778599 
L 376.144364 140.62247 
L 386.797091 179.267656 
L 389.536364 188.082597 
L 391.666909 194.260167 
L 393.188727 198.226168 
L 393.797455 199.682022 
L 394.710545 201.645908 
L 396.536727 205.339893 
L 398.058545 207.930593 
L 399.580364 210.128396 
L 401.102182 211.81033 
L 402.319636 212.840316 
L 403.537091 213.60424 
L 404.754545 214.113245 
L 405.972 214.384998 
L 407.189455 214.43797 
L 408.406909 214.293214 
L 409.928727 213.864608 
L 411.450545 213.199766 
L 412.363636 212.703383 
L 412.363636 212.703383 
" style="fill:none;stroke:#2ca02c;stroke-linecap:square;stroke-width:2.5;"/>
   </g>
   <g id="line2d_14">
    <path clip-path="url(#pe7b32f0865)" d="M 108 217.44 
L 412.363636 217.44 
" style="fill:none;stroke:#000000;stroke-dasharray:3.2,0.8,0.5,0.8;stroke-dashoffset:0;stroke-width:0.5;"/>
   </g>
   <g id="line2d_15">
    <path clip-path="url(#pe7b32f0865)" d="M 260.181818 230.4 
L 260.181818 57.6 
" style="fill:none;stroke:#000000;stroke-dasharray:3.2,0.8,0.5,0.8;stroke-dashoffset:0;stroke-width:0.5;"/>
   </g>
   <g id="patch_3">
    <path d="M 108 230.4 
L 108 57.6 
" style="fill:none;stroke:#000000;stroke-linecap:square;stroke-linejoin:miter;stroke-width:0.8;"/>
   </g>
   <g id="patch_4">
    <path d="M 412.363636 230.4 
L 412.363636 57.6 
" style="fill:none;stroke:#000000;stroke-linecap:square;stroke-linejoin:miter;stroke-width:0.8;"/>
   </g>
   <g id="patch_5">
    <path d="M 108 230.4 
L 412.363636 230.4 
" style="fill:none;stroke:#000000;stroke-linecap:square;stroke-linejoin:miter;stroke-width:0.8;"/>
   </g>
   <g id="patch_6">
    <path d="M 108 57.6 
L 412.363636 57.6 
" style="fill:none;stroke:#000000;stroke-linecap:square;stroke-linejoin:miter;stroke-width:0.8;"/>
   </g>
   <g id="legend_1">
    <g id="line2d_16">
     <path d="M 268.19487 43.88166 
L 298.18287 43.88166 
" style="fill:none;stroke:#1f77b4;stroke-linecap:square;stroke-width:2.5;"/>
    </g>
    <g id="line2d_17"/>
    <g id="text_13">
     <!-- $\^t_p$ = 0.125 -->
     <g transform="translate(310.17807 49.12956)scale(0.14994 -0.14994)">
      <defs>
       <path d="M 21.5 42.796875 
L 18.59375 32.796875 
Q 26.09375 44.09375 35.703125 44.09375 
Q 41.203125 44.09375 44.203125 40.796875 
Q 47.203125 37.5 47.203125 31.59375 
Q 47.203125 19.296875 37.84375 9.09375 
Q 28.5 -1.09375 17.5 -1.09375 
Q 13.90625 -1.09375 10.59375 0.59375 
Q 6.59375 -15.90625 6.59375 -16 
Q 6.59375 -17.59375 7.9375 -18.25 
Q 9.296875 -18.90625 12.796875 -18.90625 
L 12.796875 -20.5 
L -7.5 -20.5 
L -7.5 -18.90625 
Q -4.296875 -18.796875 -2.9375 -17.5 
Q -1.59375 -16.203125 -0.703125 -12.59375 
L 10.796875 30.59375 
Q 12.40625 36.40625 12.40625 37.703125 
Q 12.40625 40.40625 8 40.40625 
L 5.796875 40.40625 
L 5.59375 41.90625 
L 21.203125 44.09375 
Q 21.703125 44.09375 21.703125 43.703125 
Q 21.59375 43.203125 21.5 42.796875 
z
M 38.203125 31.296875 
Q 38.203125 35.703125 36.75 37.75 
Q 35.296875 39.796875 32 39.796875 
Q 28.09375 39.796875 24.1875 36.390625 
Q 20.296875 33 18.5 28.40625 
Q 16.296875 22.703125 14.140625 14.890625 
Q 12 7.09375 12 4.59375 
Q 12 2.90625 13.34375 1.84375 
Q 14.703125 0.796875 16.796875 0.796875 
Q 24.59375 0.796875 31.296875 10.296875 
Q 38.203125 19.90625 38.203125 31.296875 
z
" id="STIXGeneral-Italic-112"/>
       <path id="STIXGeneral-Regular-32"/>
       <path d="M 63.703125 32 
L 4.796875 32 
L 4.796875 38.59375 
L 63.703125 38.59375 
z
M 63.703125 12 
L 4.796875 12 
L 4.796875 18.59375 
L 63.703125 18.59375 
z
" id="STIXGeneral-Regular-61"/>
      </defs>
      <use transform="translate(39.042969 16.59375)" xlink:href="#STIXGeneral-Regular-770"/>
      <use transform="translate(0 0.203125)" xlink:href="#STIXGeneral-Italic-116"/>
      <use transform="translate(29.343269 -13.025)scale(0.7)" xlink:href="#STIXGeneral-Italic-112"/>
      <use transform="translate(69.03264 0.203125)" xlink:href="#STIXGeneral-Regular-32"/>
      <use transform="translate(94.032625 0.203125)" xlink:href="#STIXGeneral-Regular-61"/>
      <use transform="translate(162.532609 0.203125)" xlink:href="#STIXGeneral-Regular-32"/>
      <use transform="translate(187.532594 0.203125)" xlink:href="#STIXGeneral-Regular-48"/>
      <use transform="translate(237.532579 0.203125)" xlink:href="#STIXGeneral-Regular-46"/>
      <use transform="translate(262.532563 0.203125)" xlink:href="#STIXGeneral-Regular-49"/>
      <use transform="translate(312.532548 0.203125)" xlink:href="#STIXGeneral-Regular-50"/>
      <use transform="translate(362.532533 0.203125)" xlink:href="#STIXGeneral-Regular-53"/>
     </g>
    </g>
    <g id="line2d_18">
     <path d="M 402.09129 43.88166 
L 432.07929 43.88166 
" style="fill:none;stroke:#ff7f0e;stroke-linecap:square;stroke-width:2.5;"/>
    </g>
    <g id="line2d_19"/>
    <g id="text_14">
     <!-- $\^t_p$ = 0.25 -->
     <g transform="translate(444.07449 49.12956)scale(0.14994 -0.14994)">
      <use transform="translate(39.042969 16.59375)" xlink:href="#STIXGeneral-Regular-770"/>
      <use transform="translate(0 0.203125)" xlink:href="#STIXGeneral-Italic-116"/>
      <use transform="translate(29.343269 -13.025)scale(0.7)" xlink:href="#STIXGeneral-Italic-112"/>
      <use transform="translate(69.03264 0.203125)" xlink:href="#STIXGeneral-Regular-32"/>
      <use transform="translate(94.032625 0.203125)" xlink:href="#STIXGeneral-Regular-61"/>
      <use transform="translate(162.532609 0.203125)" xlink:href="#STIXGeneral-Regular-32"/>
      <use transform="translate(187.532594 0.203125)" xlink:href="#STIXGeneral-Regular-48"/>
      <use transform="translate(237.532579 0.203125)" xlink:href="#STIXGeneral-Regular-46"/>
      <use transform="translate(262.532563 0.203125)" xlink:href="#STIXGeneral-Regular-50"/>
      <use transform="translate(312.532548 0.203125)" xlink:href="#STIXGeneral-Regular-53"/>
     </g>
    </g>
    <g id="line2d_20">
     <path d="M 528.49071 43.88166 
L 558.47871 43.88166 
" style="fill:none;stroke:#2ca02c;stroke-linecap:square;stroke-width:2.5;"/>
    </g>
    <g id="line2d_21"/>
    <g id="text_15">
     <!-- $\^t_p$ = 0.5 -->
     <g transform="translate(570.47391 49.12956)scale(0.14994 -0.14994)">
      <use transform="translate(39.042969 16.59375)" xlink:href="#STIXGeneral-Regular-770"/>
      <use transform="translate(0 0.203125)" xlink:href="#STIXGeneral-Italic-116"/>
      <use transform="translate(29.343269 -13.025)scale(0.7)" xlink:href="#STIXGeneral-Italic-112"/>
      <use transform="translate(69.03264 0.203125)" xlink:href="#STIXGeneral-Regular-32"/>
      <use transform="translate(94.032625 0.203125)" xlink:href="#STIXGeneral-Regular-61"/>
      <use transform="translate(162.532609 0.203125)" xlink:href="#STIXGeneral-Regular-32"/>
      <use transform="translate(187.532594 0.203125)" xlink:href="#STIXGeneral-Regular-48"/>
      <use transform="translate(237.532579 0.203125)" xlink:href="#STIXGeneral-Regular-46"/>
      <use transform="translate(262.532563 0.203125)" xlink:href="#STIXGeneral-Regular-53"/>
     </g>
    </g>
   </g>
  </g>
  <g id="axes_2">
   <g id="patch_7">
    <path d="M 473.236364 230.4 
L 777.6 230.4 
L 777.6 57.6 
L 473.236364 57.6 
z
" style="fill:#ffffff;"/>
   </g>
   <g id="matplotlib.axis_3">
    <g id="xtick_7">
     <g id="line2d_22">
      <g>
       <use style="fill:#ffffff;stroke:#000000;stroke-width:0.8;" x="473.236364" xlink:href="#mad0d8a122b" y="230.4"/>
      </g>
     </g>
     <g id="text_16">
      <!-- 4.0 -->
      <g transform="translate(461.986364 249.693438)scale(0.18 -0.18)">
       <use xlink:href="#STIXGeneral-Regular-52"/>
       <use x="49.999985" xlink:href="#STIXGeneral-Regular-46"/>
       <use x="74.999969" xlink:href="#STIXGeneral-Regular-48"/>
      </g>
     </g>
    </g>
    <g id="xtick_8">
     <g id="line2d_23">
      <g>
       <use style="fill:#ffffff;stroke:#000000;stroke-width:0.8;" x="534.109091" xlink:href="#mad0d8a122b" y="230.4"/>
      </g>
     </g>
     <g id="text_17">
      <!-- 4.2 -->
      <g transform="translate(522.859091 249.693438)scale(0.18 -0.18)">
       <use xlink:href="#STIXGeneral-Regular-52"/>
       <use x="49.999985" xlink:href="#STIXGeneral-Regular-46"/>
       <use x="74.999969" xlink:href="#STIXGeneral-Regular-50"/>
      </g>
     </g>
    </g>
    <g id="xtick_9">
     <g id="line2d_24">
      <g>
       <use style="fill:#ffffff;stroke:#000000;stroke-width:0.8;" x="594.981818" xlink:href="#mad0d8a122b" y="230.4"/>
      </g>
     </g>
     <g id="text_18">
      <!-- 4.4 -->
      <g transform="translate(583.731818 249.693438)scale(0.18 -0.18)">
       <use xlink:href="#STIXGeneral-Regular-52"/>
       <use x="49.999985" xlink:href="#STIXGeneral-Regular-46"/>
       <use x="74.999969" xlink:href="#STIXGeneral-Regular-52"/>
      </g>
     </g>
    </g>
    <g id="xtick_10">
     <g id="line2d_25">
      <g>
       <use style="fill:#ffffff;stroke:#000000;stroke-width:0.8;" x="655.854545" xlink:href="#mad0d8a122b" y="230.4"/>
      </g>
     </g>
     <g id="text_19">
      <!-- 4.6 -->
      <g transform="translate(644.604545 249.693438)scale(0.18 -0.18)">
       <use xlink:href="#STIXGeneral-Regular-52"/>
       <use x="49.999985" xlink:href="#STIXGeneral-Regular-46"/>
       <use x="74.999969" xlink:href="#STIXGeneral-Regular-54"/>
      </g>
     </g>
    </g>
    <g id="xtick_11">
     <g id="line2d_26">
      <g>
       <use style="fill:#ffffff;stroke:#000000;stroke-width:0.8;" x="716.727273" xlink:href="#mad0d8a122b" y="230.4"/>
      </g>
     </g>
     <g id="text_20">
      <!-- 4.8 -->
      <g transform="translate(705.477273 249.693438)scale(0.18 -0.18)">
       <use xlink:href="#STIXGeneral-Regular-52"/>
       <use x="49.999985" xlink:href="#STIXGeneral-Regular-46"/>
       <use x="74.999969" xlink:href="#STIXGeneral-Regular-56"/>
      </g>
     </g>
    </g>
    <g id="xtick_12">
     <g id="line2d_27">
      <g>
       <use style="fill:#ffffff;stroke:#000000;stroke-width:0.8;" x="777.6" xlink:href="#mad0d8a122b" y="230.4"/>
      </g>
     </g>
     <g id="text_21">
      <!-- 5.0 -->
      <g transform="translate(766.35 249.693438)scale(0.18 -0.18)">
       <use xlink:href="#STIXGeneral-Regular-53"/>
       <use x="49.999985" xlink:href="#STIXGeneral-Regular-46"/>
       <use x="74.999969" xlink:href="#STIXGeneral-Regular-48"/>
      </g>
     </g>
    </g>
    <g id="text_22">
     <!-- $\^t$ -->
     <g transform="translate(622.898182 269.893438)scale(0.18 -0.18)">
      <use transform="translate(39.042969 16.59375)" xlink:href="#STIXGeneral-Regular-770"/>
      <use transform="translate(0 0.203125)" xlink:href="#STIXGeneral-Italic-116"/>
     </g>
    </g>
   </g>
   <g id="matplotlib.axis_4">
    <g id="ytick_5">
     <g id="line2d_28">
      <g>
       <use style="fill:#ffffff;stroke:#000000;stroke-width:0.8;" x="473.236364" xlink:href="#mdd1af47428" y="201.6"/>
      </g>
     </g>
     <g id="text_23">
      <!-- 0 -->
      <g transform="translate(457.236364 207.746719)scale(0.18 -0.18)">
       <use xlink:href="#STIXGeneral-Regular-48"/>
      </g>
     </g>
    </g>
    <g id="ytick_6">
     <g id="line2d_29">
      <g>
       <use style="fill:#ffffff;stroke:#000000;stroke-width:0.8;" x="473.236364" xlink:href="#mdd1af47428" y="129.6"/>
      </g>
     </g>
     <g id="text_24">
      <!-- 2 -->
      <g transform="translate(457.236364 135.746719)scale(0.18 -0.18)">
       <use xlink:href="#STIXGeneral-Regular-50"/>
      </g>
     </g>
    </g>
    <g id="ytick_7">
     <g id="line2d_30">
      <g>
       <use style="fill:#ffffff;stroke:#000000;stroke-width:0.8;" x="473.236364" xlink:href="#mdd1af47428" y="57.6"/>
      </g>
     </g>
     <g id="text_25">
      <!-- 4 -->
      <g transform="translate(457.236364 63.746719)scale(0.18 -0.18)">
       <use xlink:href="#STIXGeneral-Regular-52"/>
      </g>
     </g>
    </g>
    <g id="text_26">
     <!-- $C_D$ -->
     <g transform="translate(449.329801 154.98)rotate(-90)scale(0.18 -0.18)">
      <defs>
       <path d="M 13.09375 65.296875 
L 40.796875 65.296875 
Q 54.203125 65.296875 62.09375 58.296875 
Q 70 51.296875 70 38.40625 
Q 70 20.703125 54 8.296875 
Q 43.40625 0 24.90625 0 
L -0.796875 0 
L -0.796875 1.59375 
Q 3.5 2.40625 4.84375 3.59375 
Q 6.203125 4.796875 7.40625 9.203125 
L 19.59375 53.703125 
Q 20.703125 57.59375 20.703125 59.59375 
Q 20.703125 61.703125 19.09375 62.640625 
Q 17.5 63.59375 13.09375 63.703125 
z
M 31 58.40625 
L 19.203125 16.203125 
Q 17 8.203125 17 6.703125 
Q 17 3 23.796875 3 
Q 38.59375 3 47.90625 12 
Q 53.09375 17 56 24.953125 
Q 58.90625 32.90625 58.90625 40.796875 
Q 58.90625 52.90625 51.09375 58.796875 
Q 46.40625 62.296875 38 62.296875 
Q 34.796875 62.296875 33.25 61.546875 
Q 31.703125 60.796875 31 58.40625 
z
" id="STIXGeneral-Italic-68"/>
      </defs>
      <use transform="translate(0 0.40625)" xlink:href="#STIXGeneral-Italic-67"/>
      <use transform="translate(66.699997 -12.821875)scale(0.7)" xlink:href="#STIXGeneral-Italic-68"/>
     </g>
    </g>
   </g>
   <g id="line2d_31">
    <path clip-path="url(#pd17e65e9d0)" d="M 472.932 194.490473 
L 473.236364 197.131472 
L 473.540727 203.3901 
L 476.28 180.040061 
L 477.497455 171.523568 
L 478.410545 166.323674 
L 479.323636 162.147007 
L 480.236727 158.960009 
L 481.149818 156.616982 
L 482.062909 154.920403 
L 482.976 153.668913 
L 484.497818 151.972065 
L 484.802182 151.905334 
L 489.063273 147.147303 
L 489.672 146.891816 
L 490.280727 146.952878 
L 490.889455 147.385509 
L 491.498182 148.247185 
L 492.106909 149.56798 
L 492.411273 150.385248 
L 492.715636 149.959616 
L 493.02 149.210012 
L 494.237455 148.302566 
L 495.759273 147.327684 
L 499.107273 145.352333 
L 500.629091 144.128875 
L 502.150909 142.5977 
L 503.672727 140.744448 
L 505.498909 138.151707 
L 508.238182 133.537475 
L 510.977455 128.450149 
L 514.325455 121.733545 
L 519.804 110.370438 
L 521.325818 106.706348 
L 523.152 101.632389 
L 529.239273 83.763926 
L 531.369818 78.65101 
L 532.891636 75.53181 
L 534.413455 72.930203 
L 535.630909 71.237448 
L 536.848364 69.900948 
L 538.065818 68.917549 
L 539.283273 68.262553 
L 540.500727 67.900769 
L 541.718182 67.785287 
L 543.24 67.903903 
L 545.066182 68.295477 
L 547.196727 68.922069 
L 550.849091 70.274457 
L 553.284 71.463809 
L 555.110182 72.613863 
L 556.936364 74.048862 
L 558.762545 75.814964 
L 560.284364 77.55132 
L 561.806182 79.594461 
L 563.632364 82.320602 
L 566.067273 86.489464 
L 568.197818 90.559266 
L 570.937091 96.256544 
L 573.372 101.786798 
L 577.024364 110.652267 
L 581.894182 123.452513 
L 594.981818 158.981745 
L 601.069091 174.583433 
L 604.721455 183.210576 
L 606.547636 187.174788 
L 606.852 186.57718 
L 607.156364 185.39858 
L 607.765091 184.141673 
L 609.591273 179.357235 
L 613.243636 169.326486 
L 614.461091 166.45884 
L 615.678545 164.105359 
L 616.591636 162.862948 
L 617.200364 162.335147 
L 617.809091 162.101893 
L 618.417818 162.215058 
L 619.026545 162.719641 
L 619.635273 163.663533 
L 620.244 165.061435 
L 620.852727 167.008251 
L 621.765818 170.969976 
L 622.678909 176.152159 
L 623.896364 184.806153 
L 625.113818 194.842138 
L 625.418182 205.702806 
L 628.461818 179.612722 
L 629.679273 171.048821 
L 630.896727 164.328662 
L 631.809818 160.456199 
L 632.722909 157.590041 
L 633.636 155.47884 
L 634.549091 153.954289 
L 635.766545 152.441445 
L 636.679636 151.49126 
L 636.984 151.343201 
L 638.505818 149.738127 
L 638.810182 149.617427 
L 639.418909 148.963156 
L 639.723273 148.498325 
L 640.027636 147.823203 
L 640.636364 147.128544 
L 640.940727 146.894818 
L 641.853818 146.703164 
L 642.462545 146.961553 
L 643.071273 147.580661 
L 643.68 148.652306 
L 644.288727 150.208096 
L 644.593091 151.1464 
L 644.897455 150.844334 
L 645.201818 150.215863 
L 645.810545 149.982202 
L 650.376 147.721289 
L 651.897818 146.585256 
L 653.419636 145.059218 
L 654.941455 143.180915 
L 656.463273 140.944024 
L 660.115636 134.157091 
L 662.854909 128.365598 
L 667.420364 118.675206 
L 669.550909 113.946336 
L 671.377091 109.216516 
L 673.203273 103.700333 
L 677.768727 89.340897 
L 679.899273 83.647847 
L 681.725455 79.455405 
L 683.247273 76.508119 
L 684.769091 74.072285 
L 685.986545 72.495632 
L 687.204 71.233671 
L 688.421455 70.266639 
L 689.638909 69.572328 
L 690.856364 69.119433 
L 692.378182 68.834881 
L 694.204364 68.801919 
L 696.639273 69.061806 
L 700.596 69.832462 
L 702.726545 70.407864 
L 704.857091 71.227348 
L 706.378909 72.012794 
L 708.509455 73.524004 
L 710.335636 75.141096 
L 711.857455 76.767841 
L 714.292364 79.763678 
L 716.118545 82.403224 
L 718.249091 85.869275 
L 720.684 90.299931 
L 723.118909 95.224909 
L 725.858182 101.339943 
L 728.597455 107.981971 
L 732.554182 118.325031 
L 736.815273 130.072829 
L 749.598545 165.185835 
L 754.468364 177.566628 
L 758.425091 186.737175 
L 758.729455 187.334073 
L 759.033818 186.742625 
L 759.338182 185.566902 
L 759.946909 184.322914 
L 761.773091 179.575174 
L 765.729818 168.932841 
L 767.251636 165.632877 
L 768.164727 164.125914 
L 769.077818 163.105571 
L 769.686545 162.757646 
L 770.295273 162.741894 
L 770.904 163.07855 
L 771.512727 163.825772 
L 772.121455 165.012677 
L 772.730182 166.696439 
L 773.338909 168.951665 
L 774.252 173.33466 
L 775.165091 178.919398 
L 776.382545 187.967287 
L 777.295636 195.567752 
L 777.6 204.983043 
L 777.6 204.983043 
" style="fill:none;stroke:#1f77b4;stroke-linecap:square;stroke-width:2.5;"/>
   </g>
   <g id="line2d_32">
    <path clip-path="url(#pd17e65e9d0)" d="M 472.932 224.859218 
L 473.236364 225.909328 
L 473.540727 176.311016 
L 475.671273 169.910659 
L 477.193091 165.972416 
L 478.410545 163.296507 
L 479.628 161.070261 
L 480.845455 159.303963 
L 481.758545 158.270542 
L 482.671636 157.532809 
L 483.889091 156.901605 
L 484.802182 156.650222 
L 486.324 156.648517 
L 487.541455 156.81768 
L 488.150182 157.01706 
L 490.585091 157.190707 
L 491.498182 156.916382 
L 492.715636 156.264519 
L 493.933091 155.351117 
L 496.368 153.169121 
L 497.281091 152.338507 
L 497.889818 151.522456 
L 502.150909 147.083411 
L 503.977091 144.674017 
L 506.107636 141.408887 
L 511.281818 132.171336 
L 511.890545 130.787528 
L 521.325818 107.994164 
L 523.456364 102.396103 
L 526.5 93.580248 
L 529.239273 85.769129 
L 531.674182 79.556012 
L 533.500364 75.561102 
L 535.022182 72.8007 
L 536.239636 71.011008 
L 537.457091 69.631409 
L 538.370182 68.868388 
L 539.283273 68.321885 
L 540.500727 67.899205 
L 541.718182 67.748347 
L 543.24 67.830879 
L 545.370545 68.215396 
L 548.109818 68.912192 
L 550.849091 69.854596 
L 552.979636 70.894025 
L 554.501455 71.857742 
L 556.327636 73.291031 
L 558.153818 75.047467 
L 559.98 77.127517 
L 561.806182 79.532565 
L 563.328 81.77044 
L 567.893455 89.859804 
L 570.632727 95.474682 
L 574.285091 103.693693 
L 577.328727 111.27178 
L 580.676727 120.100035 
L 588.285818 140.638878 
L 590.416364 145.085878 
L 592.242545 148.488423 
L 593.155636 149.932084 
L 597.112364 155.722603 
L 599.547273 158.794848 
L 605.330182 166.17718 
L 607.156364 169.060809 
L 608.678182 171.869781 
L 610.504364 175.78539 
L 612.026182 179.56692 
L 614.156727 185.717977 
L 616.287273 192.862569 
L 618.417818 200.603336 
L 624.809455 224.491281 
L 625.113818 225.540329 
L 625.418182 176.627659 
L 627.548727 169.919357 
L 629.070545 165.768522 
L 630.592364 162.264498 
L 631.809818 160.005657 
L 633.027273 158.23522 
L 634.244727 156.966875 
L 635.157818 156.349904 
L 636.070909 155.976209 
L 636.984 155.804393 
L 638.810182 155.909185 
L 640.636364 156.434693 
L 641.549455 156.667204 
L 643.375636 156.824593 
L 644.593091 156.580648 
L 645.810545 156.047347 
L 647.636727 154.843089 
L 648.245455 154.208291 
L 648.549818 153.969326 
L 648.854182 153.884819 
L 649.462909 153.371585 
L 650.071636 152.607522 
L 653.724 149.185343 
L 655.245818 147.342259 
L 656.767636 145.126871 
L 658.289455 142.530018 
L 660.42 138.374467 
L 663.768 131.546393 
L 665.289818 127.729236 
L 668.637818 119.214579 
L 670.464 114.05445 
L 672.594545 107.347185 
L 677.768727 90.649677 
L 679.899273 84.569661 
L 681.725455 79.930056 
L 683.247273 76.574275 
L 684.769091 73.752054 
L 685.986545 71.935893 
L 687.204 70.534943 
L 688.421455 69.548868 
L 689.638909 68.93802 
L 690.856364 68.635227 
L 692.378182 68.567676 
L 694.508727 68.753502 
L 702.422182 69.819441 
L 704.248364 70.487406 
L 705.465818 71.092423 
L 707.596364 72.504278 
L 709.118182 73.769398 
L 711.857455 76.452647 
L 713.988 79.07741 
L 715.814182 81.635068 
L 717.944727 84.982321 
L 720.379636 89.314269 
L 722.510182 93.544384 
L 724.945091 98.873838 
L 727.684364 105.436571 
L 730.728 113.289839 
L 734.380364 123.235698 
L 740.163273 138.987794 
L 742.293818 143.578589 
L 744.728727 148.192885 
L 747.163636 152.172821 
L 749.902909 156.023994 
L 752.946545 159.867407 
L 756.598909 164.586666 
L 758.425091 167.310117 
L 760.251273 170.479085 
L 762.381818 174.936158 
L 764.208 179.447939 
L 766.034182 184.656257 
L 767.556 189.638257 
L 769.990909 198.24755 
L 777.295636 225.318111 
L 777.6 176.861613 
L 777.6 176.861613 
" style="fill:none;stroke:#ff7f0e;stroke-linecap:square;stroke-width:2.5;"/>
   </g>
   <g id="line2d_33">
    <path clip-path="url(#pd17e65e9d0)" d="M 472.932 231.639696 
L 473.236364 232.375774 
L 473.540727 170.121219 
L 476.28 163.858832 
L 479.932364 156.254412 
L 482.062909 152.301101 
L 483.889091 149.314122 
L 485.410909 147.15619 
L 486.019636 146.388138 
L 486.324 146.196952 
L 487.845818 144.618209 
L 489.367636 143.367709 
L 493.324364 140.345987 
L 496.976727 137.094624 
L 498.498545 136.243213 
L 500.020364 135.670009 
L 501.542182 135.22828 
L 502.150909 134.884581 
L 504.585818 133.908363 
L 506.412 132.898009 
L 507.325091 132.225311 
L 507.933818 131.820255 
L 509.76 130.163685 
L 511.281818 128.463853 
L 512.803636 126.387409 
L 514.325455 123.923676 
L 515.847273 121.027117 
L 517.369091 117.65609 
L 519.195273 113.004566 
L 522.238909 104.420879 
L 525.586909 95.120016 
L 528.326182 88.188381 
L 530.152364 84.114044 
L 531.674182 81.169908 
L 533.196 78.703518 
L 534.413455 77.052255 
L 535.935273 75.332926 
L 537.761455 73.645645 
L 541.109455 70.981851 
L 543.848727 69.021965 
L 545.370545 68.165776 
L 546.588 67.697427 
L 547.805455 67.466369 
L 549.022909 67.495496 
L 551.153455 67.906344 
L 552.675273 68.523599 
L 554.501455 69.563837 
L 556.632 71.085268 
L 559.066909 73.128275 
L 562.110545 76.025701 
L 565.154182 79.289036 
L 569.415273 84.12171 
L 574.589455 90.386303 
L 577.024364 93.72101 
L 580.372364 98.892926 
L 582.198545 102.021245 
L 584.329091 105.970184 
L 587.372727 112.290196 
L 590.112 118.723307 
L 592.242545 124.224757 
L 594.981818 132.00499 
L 597.416727 139.55847 
L 600.156 148.705319 
L 604.417091 164.028326 
L 613.852364 198.859356 
L 616.896 208.870676 
L 619.635273 217.01492 
L 622.374545 224.303744 
L 625.113818 230.842254 
L 625.418182 171.654369 
L 629.679273 162.478935 
L 633.636 154.669218 
L 635.462182 151.452725 
L 637.288364 148.651833 
L 637.897091 147.998906 
L 638.810182 146.821578 
L 641.549455 144.11378 
L 643.071273 142.92326 
L 644.593091 141.749748 
L 647.332364 139.002004 
L 650.071636 136.19792 
L 650.376 136.110318 
L 651.593455 135.26362 
L 654.332727 133.908224 
L 655.550182 133.538893 
L 657.072 132.973923 
L 658.289455 132.344213 
L 659.506909 131.486609 
L 660.724364 130.358113 
L 662.246182 128.503838 
L 663.463636 126.693984 
L 664.985455 124.041558 
L 666.811636 120.320048 
L 668.637818 116.071948 
L 671.072727 109.782481 
L 675.333818 98.668034 
L 677.464364 93.80524 
L 679.290545 90.19224 
L 681.116727 87.086962 
L 683.856 83.020539 
L 686.290909 79.25928 
L 688.725818 74.930464 
L 691.465091 69.987499 
L 692.986909 67.70547 
L 694.204364 66.310678 
L 695.117455 65.565273 
L 696.030545 65.082561 
L 696.943636 64.857713 
L 697.856727 64.863338 
L 698.769818 65.067817 
L 699.987273 65.576148 
L 702.117818 66.838004 
L 703.944 68.02727 
L 707.596364 70.537219 
L 711.553091 73.580077 
L 714.292364 76.015045 
L 720.075273 81.583812 
L 723.423273 85.083353 
L 725.858182 87.868551 
L 727.988727 90.547409 
L 731.336727 95.246169 
L 733.162909 98.208357 
L 734.989091 101.44311 
L 737.119636 105.577975 
L 739.858909 111.527123 
L 741.989455 116.648908 
L 744.728727 123.939048 
L 747.163636 131.075701 
L 749.598545 138.820223 
L 752.337818 148.182857 
L 756.598909 163.794448 
L 764.816727 194.753682 
L 767.860364 205.205084 
L 770.599636 213.801613 
L 773.034545 220.698982 
L 775.469455 226.964123 
L 777.295636 231.301662 
L 777.6 171.18093 
L 777.6 171.18093 
" style="fill:none;stroke:#2ca02c;stroke-linecap:square;stroke-width:2.5;"/>
   </g>
   <g id="line2d_34">
    <path clip-path="url(#pd17e65e9d0)" d="M 473.236364 201.6 
L 777.6 201.6 
" style="fill:none;stroke:#000000;stroke-dasharray:3.2,0.8,0.5,0.8;stroke-dashoffset:0;stroke-width:0.5;"/>
   </g>
   <g id="line2d_35">
    <path clip-path="url(#pd17e65e9d0)" d="M 625.418182 230.4 
L 625.418182 57.6 
" style="fill:none;stroke:#000000;stroke-dasharray:3.2,0.8,0.5,0.8;stroke-dashoffset:0;stroke-width:0.5;"/>
   </g>
   <g id="patch_8">
    <path d="M 473.236364 230.4 
L 473.236364 57.6 
" style="fill:none;stroke:#000000;stroke-linecap:square;stroke-linejoin:miter;stroke-width:0.8;"/>
   </g>
   <g id="patch_9">
    <path d="M 777.6 230.4 
L 777.6 57.6 
" style="fill:none;stroke:#000000;stroke-linecap:square;stroke-linejoin:miter;stroke-width:0.8;"/>
   </g>
   <g id="patch_10">
    <path d="M 473.236364 230.4 
L 777.6 230.4 
" style="fill:none;stroke:#000000;stroke-linecap:square;stroke-linejoin:miter;stroke-width:0.8;"/>
   </g>
   <g id="patch_11">
    <path d="M 473.236364 57.6 
L 777.6 57.6 
" style="fill:none;stroke:#000000;stroke-linecap:square;stroke-linejoin:miter;stroke-width:0.8;"/>
   </g>
  </g>
 </g>
 <defs>
  <clipPath id="pe7b32f0865">
   <rect height="172.8" width="304.363636" x="108" y="57.6"/>
  </clipPath>
  <clipPath id="pd17e65e9d0">
   <rect height="172.8" width="304.363636" x="473.236364" y="57.6"/>
  </clipPath>
 </defs>
</svg>
