<?xml version="1.0" encoding="utf-8" standalone="no"?>
<!DOCTYPE svg PUBLIC "-//W3C//DTD SVG 1.1//EN"
  "http://www.w3.org/Graphics/SVG/1.1/DTD/svg11.dtd">
<!-- Created with matplotlib (https://matplotlib.org/) -->
<svg height="1080pt" version="1.1" viewBox="0 0 576 1080" width="576pt" xmlns="http://www.w3.org/2000/svg" xmlns:xlink="http://www.w3.org/1999/xlink">
 <metadata>
  <rdf:RDF xmlns:cc="http://creativecommons.org/ns#" xmlns:dc="http://purl.org/dc/elements/1.1/" xmlns:rdf="http://www.w3.org/1999/02/22-rdf-syntax-ns#">
   <cc:Work>
    <dc:type rdf:resource="http://purl.org/dc/dcmitype/StillImage"/>
    <dc:date>2022-03-28T23:50:28.284066</dc:date>
    <dc:format>image/svg+xml</dc:format>
    <dc:creator>
     <cc:Agent>
      <dc:title>Matplotlib v3.3.4, https://matplotlib.org/</dc:title>
     </cc:Agent>
    </dc:creator>
   </cc:Work>
  </rdf:RDF>
 </metadata>
 <defs>
  <style type="text/css">*{stroke-linecap:butt;stroke-linejoin:round;}</style>
 </defs>
 <g id="figure_1">
  <g id="patch_1">
   <path d="M 0 1080 
L 576 1080 
L 576 0 
L 0 0 
z
" style="fill:#ffffff;"/>
  </g>
  <g id="axes_1">
   <g id="patch_2">
    <path d="M 72 272.97931 
L 518.4 272.97931 
L 518.4 129.6 
L 72 129.6 
z
" style="fill:#ffffff;"/>
   </g>
   <g id="matplotlib.axis_1">
    <g id="xtick_1">
     <g id="line2d_1">
      <defs>
       <path d="M 0 0 
L 0 3.5 
" id="me268a547a9" style="stroke:#000000;stroke-width:0.8;"/>
      </defs>
      <g>
       <use style="fill:#ffffff;stroke:#000000;stroke-width:0.8;" x="92.290909" xlink:href="#me268a547a9" y="272.97931"/>
      </g>
     </g>
    </g>
    <g id="xtick_2">
     <g id="line2d_2">
      <g>
       <use style="fill:#ffffff;stroke:#000000;stroke-width:0.8;" x="173.454545" xlink:href="#me268a547a9" y="272.97931"/>
      </g>
     </g>
    </g>
    <g id="xtick_3">
     <g id="line2d_3">
      <g>
       <use style="fill:#ffffff;stroke:#000000;stroke-width:0.8;" x="254.618182" xlink:href="#me268a547a9" y="272.97931"/>
      </g>
     </g>
    </g>
    <g id="xtick_4">
     <g id="line2d_4">
      <g>
       <use style="fill:#ffffff;stroke:#000000;stroke-width:0.8;" x="335.781818" xlink:href="#me268a547a9" y="272.97931"/>
      </g>
     </g>
    </g>
    <g id="xtick_5">
     <g id="line2d_5">
      <g>
       <use style="fill:#ffffff;stroke:#000000;stroke-width:0.8;" x="416.945455" xlink:href="#me268a547a9" y="272.97931"/>
      </g>
     </g>
    </g>
    <g id="xtick_6">
     <g id="line2d_6">
      <g>
       <use style="fill:#ffffff;stroke:#000000;stroke-width:0.8;" x="498.109091" xlink:href="#me268a547a9" y="272.97931"/>
      </g>
     </g>
    </g>
   </g>
   <g id="matplotlib.axis_2">
    <g id="ytick_1">
     <g id="line2d_7">
      <defs>
       <path d="M 0 0 
L -3.5 0 
" id="m2db9d0a44e" style="stroke:#000000;stroke-width:0.8;"/>
      </defs>
      <g>
       <use style="fill:#ffffff;stroke:#000000;stroke-width:0.8;" x="72" xlink:href="#m2db9d0a44e" y="246.09569"/>
      </g>
     </g>
     <g id="text_1">
      <!-- −5 -->
      <g transform="translate(43.67 252.242408)scale(0.18 -0.18)">
       <defs>
        <path d="M 62.09375 22 
L 6.40625 22 
L 6.40625 28.59375 
L 62.09375 28.59375 
z
" id="STIXGeneral-Regular-8722"/>
        <path d="M 43.796875 68.09375 
L 40.203125 59.59375 
Q 39.59375 58.296875 37.5 58.296875 
L 18.09375 58.296875 
L 14.09375 49.796875 
Q 25.09375 47.703125 30 45.25 
Q 34.90625 42.796875 39.09375 37 
Q 42.59375 32.203125 42.59375 24.296875 
Q 42.59375 17.09375 40.25 12.1875 
Q 37.90625 7.296875 32.796875 3.5 
Q 26 -1.40625 15.796875 -1.40625 
Q 10.09375 -1.40625 6.59375 0.296875 
Q 3.09375 2 3.09375 4.796875 
Q 3.09375 8.59375 7.59375 8.59375 
Q 11.203125 8.59375 15 5.5 
Q 18.90625 2.296875 22.09375 2.296875 
Q 27.296875 2.296875 31.4375 7.5 
Q 35.59375 12.703125 35.59375 19.203125 
Q 35.59375 28.796875 28.90625 34.203125 
Q 20.203125 41.203125 7.59375 41.203125 
Q 6.40625 41.203125 6.40625 42 
L 6.5 42.5 
L 17.40625 66.203125 
L 38.09375 66.203125 
Q 39.796875 66.203125 40.75 66.703125 
Q 41.703125 67.203125 42.90625 68.796875 
z
" id="STIXGeneral-Regular-53"/>
       </defs>
       <use xlink:href="#STIXGeneral-Regular-8722"/>
       <use x="68.499985" xlink:href="#STIXGeneral-Regular-53"/>
      </g>
     </g>
    </g>
    <g id="ytick_2">
     <g id="line2d_8">
      <g>
       <use style="fill:#ffffff;stroke:#000000;stroke-width:0.8;" x="72" xlink:href="#m2db9d0a44e" y="201.289655"/>
      </g>
     </g>
     <g id="text_2">
      <!-- 0 -->
      <g transform="translate(56 207.436374)scale(0.18 -0.18)">
       <defs>
        <path d="M 47.59375 33 
Q 47.59375 26.296875 46.296875 20.34375 
Q 45 14.40625 42.453125 9.40625 
Q 39.90625 4.40625 35.40625 1.5 
Q 30.90625 -1.40625 25 -1.40625 
Q 18.90625 -1.40625 14.296875 1.6875 
Q 9.703125 4.796875 7.203125 10 
Q 4.703125 15.203125 3.546875 21.09375 
Q 2.40625 27 2.40625 33.59375 
Q 2.40625 42.90625 4.703125 50.34375 
Q 7 57.796875 12.34375 62.6875 
Q 17.703125 67.59375 25.40625 67.59375 
Q 35.203125 67.59375 41.390625 58 
Q 47.59375 48.40625 47.59375 33 
z
M 38 32.5 
Q 38 48.296875 34.640625 56.640625 
Q 31.296875 65 24.796875 65 
Q 18.59375 65 15.296875 56.59375 
Q 12 48.203125 12 32.90625 
Q 12 17.5 15.296875 9.34375 
Q 18.59375 1.203125 25 1.203125 
Q 31.296875 1.203125 34.640625 9.34375 
Q 38 17.5 38 32.5 
z
" id="STIXGeneral-Regular-48"/>
       </defs>
       <use xlink:href="#STIXGeneral-Regular-48"/>
      </g>
     </g>
    </g>
    <g id="ytick_3">
     <g id="line2d_9">
      <g>
       <use style="fill:#ffffff;stroke:#000000;stroke-width:0.8;" x="72" xlink:href="#m2db9d0a44e" y="156.483621"/>
      </g>
     </g>
     <g id="text_3">
      <!-- 5 -->
      <g transform="translate(56 162.630339)scale(0.18 -0.18)">
       <use xlink:href="#STIXGeneral-Regular-53"/>
      </g>
     </g>
    </g>
    <g id="text_4">
     <!-- Cp -->
     <g transform="translate(35.763438 211.792936)rotate(-90)scale(0.18 -0.18)">
      <defs>
       <path d="M 61.40625 13.09375 
L 63.296875 11.296875 
Q 54.40625 -1.40625 36 -1.40625 
Q 21.5 -1.40625 12.40625 7.5 
Q 2.796875 16.90625 2.796875 32.5 
Q 2.796875 47.09375 11.796875 57.203125 
Q 21.203125 67.59375 36.09375 67.59375 
Q 42.5 67.59375 48 66.09375 
Q 54.296875 64.296875 54.90625 64.296875 
Q 58.203125 64.296875 59.09375 67.59375 
L 61.09375 67.59375 
L 62 44.90625 
L 59.703125 44.90625 
Q 58.09375 52.09375 54.5 56 
Q 47.40625 63.59375 38.40625 63.59375 
Q 27.296875 63.59375 20.84375 55.4375 
Q 14.40625 47.296875 14.40625 34.09375 
Q 14.40625 18 21.59375 10.203125 
Q 28.296875 3 39.40625 3 
Q 46 3 50.796875 5.296875 
Q 55.59375 7.59375 61.40625 13.09375 
z
" id="STIXGeneral-Regular-67"/>
       <path d="M 15.90625 45.796875 
L 15.90625 38.09375 
Q 22.203125 46 30.296875 46 
Q 37.59375 46 42.296875 40 
Q 47 34 47 24.703125 
Q 47 13.796875 40.953125 6.390625 
Q 34.90625 -1 26 -1 
Q 22.90625 -1 20.75 -0.09375 
Q 18.59375 0.796875 15.90625 3.296875 
L 15.90625 -12.40625 
Q 15.90625 -17.09375 17.5 -18.4375 
Q 19.09375 -19.796875 24.703125 -19.90625 
L 24.703125 -21.703125 
L 0.5 -21.703125 
L 0.5 -20 
Q 4.90625 -19.59375 6.203125 -18.296875 
Q 7.5 -17 7.5 -13.09375 
L 7.5 33.703125 
Q 7.5 37.203125 6.703125 38.296875 
Q 5.90625 39.40625 3.40625 39.40625 
Q 1.796875 39.40625 0.90625 39.296875 
L 0.90625 40.90625 
Q 7.90625 43 15.296875 46 
z
M 15.90625 33.40625 
L 15.90625 8.796875 
Q 15.90625 6.59375 19.34375 4.390625 
Q 22.796875 2.203125 26.296875 2.203125 
Q 31.703125 2.203125 35.046875 7.296875 
Q 38.40625 12.40625 38.40625 20.703125 
Q 38.40625 29.5 35.046875 34.75 
Q 31.703125 40 26.09375 40 
Q 22.59375 40 19.25 37.796875 
Q 15.90625 35.59375 15.90625 33.40625 
z
" id="STIXGeneral-Regular-112"/>
      </defs>
      <use xlink:href="#STIXGeneral-Regular-67"/>
      <use x="66.699997" xlink:href="#STIXGeneral-Regular-112"/>
     </g>
    </g>
   </g>
   <g id="line2d_10">
    <path clip-path="url(#p8e6004fd31)" d="M 92.290909 198.92559 
L 95.1895 199.311236 
L 107.117133 199.902792 
L 112.889811 199.923931 
L 118.665989 199.927525 
L 124.442168 200.070877 
L 130.218346 200.118336 
L 135.994524 200.147684 
L 141.770702 200.144969 
L 147.546881 200.157469 
L 153.323059 200.187579 
L 159.099237 200.18757 
L 164.875415 200.195322 
L 170.651594 200.201765 
L 176.427772 200.207491 
L 182.20395 200.210063 
L 187.980128 200.212464 
L 193.756308 200.215422 
L 199.532478 200.219167 
L 205.308663 200.222877 
L 211.084842 200.226749 
L 216.86102 200.233505 
L 222.637198 200.239536 
L 228.413376 200.245952 
L 234.189555 200.251033 
L 239.965733 200.255881 
L 245.741911 200.262808 
L 251.518089 200.268956 
L 257.294268 200.275175 
L 263.070446 200.282774 
L 268.846624 200.291377 
L 274.622803 200.300454 
L 280.398981 200.310222 
L 286.175159 200.322114 
L 291.951337 200.3425 
L 291.951337 200.328378 
L 297.727516 200.348908 
L 303.503694 200.363738 
L 309.279872 200.38124 
L 315.05605 200.400453 
L 320.832229 200.421331 
L 326.608407 200.443367 
L 332.384585 200.467379 
L 338.160763 200.494595 
L 343.936942 200.52402 
L 349.71312 200.555515 
L 355.489298 200.590162 
L 361.265477 200.628467 
L 367.041655 200.670329 
L 372.817833 200.714662 
L 378.594011 200.763087 
L 384.37019 200.817149 
L 390.146368 200.874903 
L 395.922546 200.937583 
L 401.698724 201.006977 
L 407.474903 201.082831 
L 413.251081 201.165219 
L 419.027259 201.255466 
L 424.803437 201.349012 
L 430.579616 201.465462 
L 436.355794 201.564639 
L 442.131972 201.695102 
L 447.908151 201.861259 
L 453.684329 202.011422 
L 459.460507 202.216262 
L 465.236685 202.501345 
L 471.012864 202.881192 
L 476.789042 203.047835 
L 482.561719 203.355984 
L 488.290288 204.06098 
L 494.37943 205.196804 
L 498.109091 207.35106 
" style="fill:none;stroke:#1f77b4;stroke-linecap:square;stroke-width:5;"/>
   </g>
   <g id="line2d_11">
    <path clip-path="url(#p8e6004fd31)" d="M 72 201.289655 
L 518.4 201.289655 
" style="fill:none;stroke:#000000;stroke-dasharray:3.2,0.8,0.5,0.8;stroke-dashoffset:0;stroke-width:0.5;"/>
   </g>
   <g id="line2d_12">
    <path clip-path="url(#p8e6004fd31)" d="M 92.290909 197.284363 
L 98.908749 197.414068 
L 98.908749 198.150858 
L 103.618541 198.421961 
L 113.589258 198.687231 
L 118.59129 198.999108 
L 123.593321 199.138939 
L 128.595353 199.243426 
L 133.597385 199.292435 
L 138.599417 199.350316 
L 143.601449 199.438736 
L 148.603481 199.485424 
L 153.605513 199.539845 
L 158.607545 199.590386 
L 163.609577 199.638956 
L 168.611608 199.685088 
L 173.61364 199.729195 
L 178.615672 199.771609 
L 183.617704 199.812544 
L 188.61973 199.852304 
L 193.621768 199.891124 
L 198.623794 199.929147 
L 203.625832 199.966676 
L 208.627864 200.003767 
L 213.629895 200.040373 
L 218.631927 200.077661 
L 223.633959 200.11399 
L 228.635991 200.148625 
L 233.638023 200.182776 
L 238.640055 200.216407 
L 243.642087 200.249268 
L 248.644119 200.284306 
L 253.646151 200.321899 
L 258.648182 200.359204 
L 263.650214 200.396882 
L 268.652246 200.434364 
L 273.654278 200.471344 
L 278.65631 200.489651 
L 278.65631 200.526922 
L 283.658342 200.545244 
L 288.660374 200.583333 
L 293.662406 200.622948 
L 298.664438 200.663043 
L 303.666469 200.704004 
L 308.668501 200.746428 
L 313.670533 200.789486 
L 318.672565 200.833696 
L 323.674597 200.880118 
L 328.676629 200.927823 
L 333.678661 200.976546 
L 338.680693 201.02749 
L 343.682725 201.080817 
L 348.684756 201.136242 
L 353.686788 201.194756 
L 358.68882 201.256293 
L 363.690852 201.321014 
L 368.692884 201.389277 
L 373.694916 201.46125 
L 378.696948 201.537415 
L 383.69898 201.61834 
L 388.701012 201.704728 
L 393.703043 201.796527 
L 398.705075 201.894412 
L 403.707107 201.999471 
L 408.709139 202.111897 
L 413.711171 202.232195 
L 418.713203 202.36215 
L 423.715235 202.502608 
L 428.717267 202.654044 
L 433.719299 202.82022 
L 438.72133 202.991496 
L 443.723362 203.199521 
L 448.725394 203.37051 
L 453.727426 203.595221 
L 458.729458 203.900189 
L 463.73149 204.185496 
L 468.733522 204.58867 
L 473.735554 205.374191 
L 478.737586 205.914767 
L 478.737586 205.362291 
L 483.739011 205.963014 
L 488.708302 207.104771 
L 493.396874 208.361427 
L 498.109091 211.078071 
" style="fill:none;stroke:#ff7f0e;stroke-linecap:square;stroke-width:5;"/>
   </g>
   <g id="line2d_13">
    <path clip-path="url(#p8e6004fd31)" d="M 72 201.289655 
L 518.4 201.289655 
" style="fill:none;stroke:#000000;stroke-dasharray:3.2,0.8,0.5,0.8;stroke-dashoffset:0;stroke-width:0.5;"/>
   </g>
   <g id="line2d_14">
    <path clip-path="url(#p8e6004fd31)" d="M 92.290909 195.238143 
L 97.035399 194.571107 
L 101.384095 195.395583 
L 105.971834 195.853411 
L 105.971834 195.728886 
L 110.590364 196.078158 
L 115.208894 196.611197 
L 119.827424 196.89576 
L 124.445954 197.120633 
L 129.064483 197.266853 
L 133.683013 197.405017 
L 138.301543 197.572224 
L 142.920073 197.689535 
L 147.538603 197.813648 
L 152.157133 197.927796 
L 156.775663 198.037481 
L 161.394192 198.141798 
L 170.631252 198.336938 
L 175.249782 198.428799 
L 179.868312 198.517569 
L 184.486842 198.60365 
L 189.105372 198.687437 
L 193.723905 198.769217 
L 198.342437 198.849295 
L 202.960961 198.927884 
L 207.579491 199.005237 
L 212.198021 199.081506 
L 216.816551 199.156995 
L 221.435081 199.231526 
L 226.05361 199.305026 
L 230.67214 199.377558 
L 235.29067 199.449418 
L 239.9092 199.520847 
L 244.52773 199.592179 
L 249.14626 199.663546 
L 253.764789 199.734536 
L 258.383319 199.805276 
L 263.001849 199.87615 
L 267.620379 199.946523 
L 272.238909 199.981373 
L 272.238909 200.051431 
L 276.857439 200.086524 
L 281.475969 200.157048 
L 286.094498 200.228111 
L 290.713028 200.299603 
L 295.331558 200.371167 
L 299.950088 200.443133 
L 304.568618 200.515928 
L 309.187148 200.589762 
L 313.805678 200.664101 
L 318.424207 200.738607 
L 323.042737 200.814564 
L 327.661267 200.892377 
L 332.279797 200.970832 
L 336.898327 201.050519 
L 341.516857 201.132333 
L 346.135386 201.21634 
L 350.753916 201.301921 
L 355.372446 201.388899 
L 359.990976 201.479148 
L 364.609506 201.572864 
L 369.228036 201.669262 
L 373.846566 201.769518 
L 378.465095 201.874375 
L 383.083625 201.984084 
L 387.702155 202.098522 
L 392.320685 202.218009 
L 396.939215 202.344228 
L 401.557745 202.477822 
L 406.176275 202.617993 
L 410.794804 202.766068 
L 415.413334 202.924027 
L 420.031864 203.092301 
L 424.650394 203.272009 
L 429.268924 203.464692 
L 433.887454 203.672279 
L 438.505983 203.894185 
L 443.124513 204.139919 
L 447.743043 204.371809 
L 452.361573 204.686141 
L 456.980103 204.900009 
L 456.980103 205.027652 
L 461.598633 205.294822 
L 466.217163 205.753304 
L 470.835692 206.21779 
L 475.454222 206.889818 
L 480.072752 207.63514 
L 484.691282 208.19163 
L 489.279022 209.237699 
L 493.627717 210.968744 
L 498.109091 214.164759 
" style="fill:none;stroke:#2ca02c;stroke-linecap:square;stroke-width:5;"/>
   </g>
   <g id="line2d_15">
    <path clip-path="url(#p8e6004fd31)" d="M 72 201.289655 
L 518.4 201.289655 
" style="fill:none;stroke:#000000;stroke-dasharray:3.2,0.8,0.5,0.8;stroke-dashoffset:0;stroke-width:0.5;"/>
   </g>
   <g id="line2d_16">
    <path clip-path="url(#p8e6004fd31)" d="M 92.290909 193.902905 
L 96.34555 190.724751 
L 100.526124 191.402935 
L 104.936501 192.022782 
L 109.376478 192.044557 
L 109.376478 192.935337 
L 113.816455 193.20325 
L 118.256431 193.635763 
L 122.696408 193.983933 
L 127.136385 194.237132 
L 131.576362 194.479254 
L 136.016338 194.74171 
L 140.456315 194.9403 
L 144.896292 195.144239 
L 149.336269 195.332998 
L 153.776246 195.51396 
L 158.216222 195.686123 
L 162.656199 195.850991 
L 167.096176 196.009004 
L 171.536153 196.161174 
L 175.976129 196.308049 
L 180.416106 196.450388 
L 189.296065 196.723266 
L 193.736044 196.854503 
L 198.176008 196.983069 
L 202.61599 197.109189 
L 207.055967 197.233257 
L 211.495943 197.355425 
L 215.93592 197.475954 
L 220.375897 197.594985 
L 224.815874 197.71227 
L 229.255851 197.828066 
L 233.695827 197.942859 
L 238.135804 198.056864 
L 242.575781 198.170465 
L 247.015758 198.28352 
L 251.455734 198.395965 
L 255.895711 198.507908 
L 260.335688 198.61944 
L 264.775665 198.730666 
L 269.215641 198.897353 
L 269.215641 198.786306 
L 273.655618 198.953003 
L 278.095595 199.064381 
L 282.535572 199.176083 
L 286.975548 199.288017 
L 291.415525 199.400337 
L 295.855502 199.513141 
L 300.295479 199.626563 
L 304.735456 199.740773 
L 309.175432 199.855584 
L 313.615409 199.97122 
L 318.055386 200.088056 
L 322.495363 200.206191 
L 326.935339 200.325564 
L 331.375316 200.446111 
L 335.815293 200.568295 
L 340.25527 200.692591 
L 344.695246 200.818561 
L 349.135223 200.946556 
L 353.5752 201.077054 
L 358.015177 201.210012 
L 362.455154 201.345796 
L 366.89513 201.484601 
L 371.335107 201.627019 
L 375.775084 201.773579 
L 380.215061 201.924486 
L 384.655037 202.080365 
L 389.095014 202.24164 
L 393.534991 202.408973 
L 397.974968 202.582677 
L 402.414944 202.763254 
L 406.854921 202.951753 
L 411.294898 203.148882 
L 415.734875 203.355428 
L 420.174851 203.572729 
L 424.614828 203.801804 
L 429.054805 204.043497 
L 433.494782 204.299142 
L 437.934759 204.572316 
L 442.374735 204.860893 
L 446.814712 205.3497 
L 446.814712 205.007732 
L 451.254689 205.479405 
L 455.694666 205.869128 
L 460.134642 206.213462 
L 464.574619 206.624611 
L 469.014596 207.202484 
L 473.454573 207.84088 
L 477.894549 209.051772 
L 482.334526 209.519171 
L 486.773965 210.078144 
L 491.185956 211.914062 
L 495.339084 213.701375 
L 498.109091 216.281844 
" style="fill:none;stroke:#d62728;stroke-linecap:square;stroke-width:5;"/>
   </g>
   <g id="line2d_17">
    <path clip-path="url(#p8e6004fd31)" d="M 72 201.289655 
L 518.4 201.289655 
" style="fill:none;stroke:#000000;stroke-dasharray:3.2,0.8,0.5,0.8;stroke-dashoffset:0;stroke-width:0.5;"/>
   </g>
   <g id="patch_3">
    <path d="M 72 272.97931 
L 72 129.6 
" style="fill:none;stroke:#000000;stroke-linecap:square;stroke-linejoin:miter;stroke-width:0.8;"/>
   </g>
   <g id="patch_4">
    <path d="M 518.4 272.97931 
L 518.4 129.6 
" style="fill:none;stroke:#000000;stroke-linecap:square;stroke-linejoin:miter;stroke-width:0.8;"/>
   </g>
   <g id="patch_5">
    <path d="M 72 272.97931 
L 518.4 272.97931 
" style="fill:none;stroke:#000000;stroke-linecap:square;stroke-linejoin:miter;stroke-width:0.8;"/>
   </g>
   <g id="patch_6">
    <path d="M 72 129.6 
L 518.4 129.6 
" style="fill:none;stroke:#000000;stroke-linecap:square;stroke-linejoin:miter;stroke-width:0.8;"/>
   </g>
   <g id="legend_1">
    <g id="line2d_18">
     <path d="M 112.49811 148.3425 
L 142.48611 148.3425 
" style="fill:none;stroke:#1f77b4;stroke-linecap:square;stroke-width:5;"/>
    </g>
    <g id="line2d_19"/>
    <g id="text_5">
     <!-- r/c = 1.04 -->
     <g transform="translate(154.48131 153.5904)scale(0.14994 -0.14994)">
      <defs>
       <path d="M 16 45.796875 
L 16 36.59375 
Q 19.796875 42 22.34375 44 
Q 24.90625 46 28 46 
Q 30.59375 46 32.046875 44.59375 
Q 33.5 43.203125 33.5 40.703125 
Q 33.5 38.59375 32.453125 37.390625 
Q 31.40625 36.203125 29.59375 36.203125 
Q 27.703125 36.203125 25.59375 38.203125 
Q 24 39.703125 23 39.703125 
Q 20.90625 39.703125 18.453125 36.796875 
Q 16 33.90625 16 31.5 
L 16 9 
Q 16 4.703125 17.703125 3.203125 
Q 19.40625 1.703125 24.5 1.5 
L 24.5 0 
L 0.5 0 
L 0.5 1.5 
Q 5.296875 2.40625 6.4375 3.5 
Q 7.59375 4.59375 7.59375 8.40625 
L 7.59375 33.40625 
Q 7.59375 36.703125 6.84375 38.046875 
Q 6.09375 39.40625 4.203125 39.40625 
Q 2.59375 39.40625 0.703125 39 
L 0.703125 40.59375 
Q 7 42.59375 15.5 46 
z
" id="STIXGeneral-Regular-114"/>
       <path d="M 28.703125 67.59375 
L 5.90625 -1.40625 
L -0.90625 -1.40625 
L 22 67.59375 
z
" id="STIXGeneral-Regular-47"/>
       <path d="M 39.796875 15.59375 
L 41.203125 14.703125 
Q 36.90625 6.296875 33 3.203125 
Q 27.90625 -1 21.5 -1 
Q 13.203125 -1 7.84375 5.25 
Q 2.5 11.5 2.5 21.203125 
Q 2.5 33.90625 10.90625 40.90625 
Q 17.09375 46 24.40625 46 
Q 30.703125 46 35.25 42.953125 
Q 39.796875 39.90625 39.796875 35.703125 
Q 39.796875 34 38.390625 32.75 
Q 37 31.5 35.09375 31.5 
Q 31.59375 31.5 30.296875 36.09375 
L 29.703125 38.296875 
Q 28.90625 41.09375 27.703125 42.09375 
Q 26.5 43.09375 23.796875 43.09375 
Q 17.703125 43.09375 13.953125 38.296875 
Q 10.203125 33.5 10.203125 25.703125 
Q 10.203125 17.09375 14.5 11.640625 
Q 18.796875 6.203125 25.703125 6.203125 
Q 30 6.203125 33.09375 8.25 
Q 36.203125 10.296875 39.796875 15.59375 
z
" id="STIXGeneral-Regular-99"/>
       <path id="STIXGeneral-Regular-32"/>
       <path d="M 63.703125 32 
L 4.796875 32 
L 4.796875 38.59375 
L 63.703125 38.59375 
z
M 63.703125 12 
L 4.796875 12 
L 4.796875 18.59375 
L 63.703125 18.59375 
z
" id="STIXGeneral-Regular-61"/>
       <path d="M 39.40625 0 
L 11.796875 0 
L 11.796875 1.5 
Q 17.296875 1.796875 19.296875 3.546875 
Q 21.296875 5.296875 21.296875 9.5 
L 21.296875 54.40625 
Q 21.296875 59.296875 18.296875 59.296875 
Q 16.90625 59.296875 13.796875 58.09375 
L 11.09375 57.09375 
L 11.09375 58.5 
L 29 67.59375 
L 29.90625 67.296875 
L 29.90625 7.59375 
Q 29.90625 4.296875 31.90625 2.890625 
Q 33.90625 1.5 39.40625 1.5 
z
" id="STIXGeneral-Regular-49"/>
       <path d="M 18.09375 4.296875 
Q 18.09375 2.09375 16.4375 0.5 
Q 14.796875 -1.09375 12.5 -1.09375 
Q 10.203125 -1.09375 8.59375 0.5 
Q 7 2.09375 7 4.390625 
Q 7 6.703125 8.640625 8.34375 
Q 10.296875 10 12.59375 10 
Q 14.796875 10 16.4375 8.296875 
Q 18.09375 6.59375 18.09375 4.296875 
z
" id="STIXGeneral-Regular-46"/>
       <path d="M 47.296875 16.703125 
L 37 16.703125 
L 37 0 
L 29.203125 0 
L 29.203125 16.703125 
L 1.203125 16.703125 
L 1.203125 23.09375 
L 32.59375 67.59375 
L 37 67.59375 
L 37 23.09375 
L 47.296875 23.09375 
z
M 29.203125 23.09375 
L 29.203125 57.40625 
L 5.203125 23.09375 
z
" id="STIXGeneral-Regular-52"/>
      </defs>
      <use xlink:href="#STIXGeneral-Regular-114"/>
      <use x="33.299988" xlink:href="#STIXGeneral-Regular-47"/>
      <use x="61.099976" xlink:href="#STIXGeneral-Regular-99"/>
      <use x="105.499969" xlink:href="#STIXGeneral-Regular-32"/>
      <use x="130.499954" xlink:href="#STIXGeneral-Regular-61"/>
      <use x="198.999939" xlink:href="#STIXGeneral-Regular-32"/>
      <use x="223.999924" xlink:href="#STIXGeneral-Regular-49"/>
      <use x="273.999908" xlink:href="#STIXGeneral-Regular-46"/>
      <use x="298.999893" xlink:href="#STIXGeneral-Regular-48"/>
      <use x="348.999878" xlink:href="#STIXGeneral-Regular-52"/>
     </g>
    </g>
    <g id="line2d_20">
     <path d="M 112.49811 169.589467 
L 142.48611 169.589467 
" style="fill:none;stroke:#ff7f0e;stroke-linecap:square;stroke-width:5;"/>
    </g>
    <g id="line2d_21"/>
    <g id="text_6">
     <!-- r/c = 1.56 -->
     <g transform="translate(154.48131 174.837367)scale(0.14994 -0.14994)">
      <defs>
       <path d="M 44.59375 68.40625 
L 44.796875 66.796875 
Q 33 64.90625 25.09375 57.25 
Q 17.203125 49.59375 15.203125 38.296875 
Q 21 42.796875 27.90625 42.796875 
Q 36.703125 42.796875 41.75 37.1875 
Q 46.796875 31.59375 46.796875 21.90625 
Q 46.796875 12.09375 41.703125 5.90625 
Q 35.796875 -1.40625 25.796875 -1.40625 
Q 13.59375 -1.40625 8.09375 8.703125 
Q 3.40625 17.296875 3.40625 27.90625 
Q 3.40625 44.296875 14.296875 55.5 
Q 20.5 61.90625 27.046875 64.546875 
Q 33.59375 67.203125 44.59375 68.40625 
z
M 37.796875 18.796875 
Q 37.796875 38.203125 24.296875 38.203125 
Q 19.296875 38.203125 16 35.546875 
Q 12.703125 32.90625 12.703125 26.59375 
Q 12.703125 14.90625 16.34375 8.15625 
Q 20 1.40625 26.90625 1.40625 
Q 32.203125 1.40625 35 6.15625 
Q 37.796875 10.90625 37.796875 18.796875 
z
" id="STIXGeneral-Regular-54"/>
      </defs>
      <use xlink:href="#STIXGeneral-Regular-114"/>
      <use x="33.299988" xlink:href="#STIXGeneral-Regular-47"/>
      <use x="61.099976" xlink:href="#STIXGeneral-Regular-99"/>
      <use x="105.499969" xlink:href="#STIXGeneral-Regular-32"/>
      <use x="130.499954" xlink:href="#STIXGeneral-Regular-61"/>
      <use x="198.999939" xlink:href="#STIXGeneral-Regular-32"/>
      <use x="223.999924" xlink:href="#STIXGeneral-Regular-49"/>
      <use x="273.999908" xlink:href="#STIXGeneral-Regular-46"/>
      <use x="298.999893" xlink:href="#STIXGeneral-Regular-53"/>
      <use x="348.999878" xlink:href="#STIXGeneral-Regular-54"/>
     </g>
    </g>
    <g id="line2d_22">
     <path d="M 244.29537 148.3425 
L 274.28337 148.3425 
" style="fill:none;stroke:#2ca02c;stroke-linecap:square;stroke-width:5;"/>
    </g>
    <g id="line2d_23"/>
    <g id="text_7">
     <!-- r/c = 2.08 -->
     <g transform="translate(286.27857 153.5904)scale(0.14994 -0.14994)">
      <defs>
       <path d="M 47.40625 13.703125 
L 42 0 
L 2.90625 0 
L 2.90625 1.203125 
L 20.703125 20.09375 
Q 27.703125 27.40625 30.703125 33.5 
Q 33.703125 39.59375 33.703125 46.09375 
Q 33.703125 52.796875 30 56.5 
Q 26.296875 60.203125 19.796875 60.203125 
Q 14.40625 60.203125 11.25 57.390625 
Q 8.09375 54.59375 5.09375 47.203125 
L 3 47.703125 
Q 4.703125 57 9.84375 62.296875 
Q 15 67.59375 23.796875 67.59375 
Q 32.09375 67.59375 37.1875 62.59375 
Q 42.296875 57.59375 42.296875 50 
Q 42.296875 38.703125 29.5 25.203125 
L 13 7.59375 
L 36.40625 7.59375 
Q 39.703125 7.59375 41.640625 8.890625 
Q 43.59375 10.203125 46 14.296875 
z
" id="STIXGeneral-Regular-50"/>
       <path d="M 44.5 15.5 
Q 44.5 7.796875 39.140625 3.1875 
Q 33.796875 -1.40625 24.796875 -1.40625 
Q 16.40625 -1.40625 11 3.1875 
Q 5.59375 7.796875 5.59375 14.90625 
Q 5.59375 20.203125 8.1875 23.953125 
Q 10.796875 27.703125 18.59375 33.203125 
Q 11.09375 39.40625 8.640625 43.203125 
Q 6.203125 47 6.203125 52 
Q 6.203125 59.09375 11.640625 63.34375 
Q 17.09375 67.59375 25.59375 67.59375 
Q 32.90625 67.59375 37.65625 63.4375 
Q 42.40625 59.296875 42.40625 53.296875 
Q 42.40625 47.796875 39.546875 44.5 
Q 36.703125 41.203125 29 37.09375 
Q 38 31.09375 41.25 26.390625 
Q 44.5 21.703125 44.5 15.5 
z
M 35.5 53.296875 
Q 35.5 58.5 32.59375 61.640625 
Q 29.703125 64.796875 24.59375 64.796875 
Q 19.5 64.796875 16.546875 62.140625 
Q 13.59375 59.5 13.59375 54.890625 
Q 13.59375 50.296875 16.546875 46.546875 
Q 19.5 42.796875 26.09375 38.90625 
Q 31.203125 41.90625 33.34375 45.25 
Q 35.5 48.59375 35.5 53.296875 
z
M 27.09375 27.203125 
L 21.203125 31.203125 
Q 16.796875 27.59375 15 24.140625 
Q 13.203125 20.703125 13.203125 15.796875 
Q 13.203125 9 16.640625 5.203125 
Q 20.09375 1.40625 25.90625 1.40625 
Q 30.796875 1.40625 33.84375 4.453125 
Q 36.90625 7.5 36.90625 12.40625 
Q 36.90625 16.90625 34.59375 20.296875 
Q 32.296875 23.703125 27.09375 27.203125 
z
" id="STIXGeneral-Regular-56"/>
      </defs>
      <use xlink:href="#STIXGeneral-Regular-114"/>
      <use x="33.299988" xlink:href="#STIXGeneral-Regular-47"/>
      <use x="61.099976" xlink:href="#STIXGeneral-Regular-99"/>
      <use x="105.499969" xlink:href="#STIXGeneral-Regular-32"/>
      <use x="130.499954" xlink:href="#STIXGeneral-Regular-61"/>
      <use x="198.999939" xlink:href="#STIXGeneral-Regular-32"/>
      <use x="223.999924" xlink:href="#STIXGeneral-Regular-50"/>
      <use x="273.999908" xlink:href="#STIXGeneral-Regular-46"/>
      <use x="298.999893" xlink:href="#STIXGeneral-Regular-48"/>
      <use x="348.999878" xlink:href="#STIXGeneral-Regular-56"/>
     </g>
    </g>
    <g id="line2d_24">
     <path d="M 376.09263 148.3425 
L 406.08063 148.3425 
" style="fill:none;stroke:#d62728;stroke-linecap:square;stroke-width:5;"/>
    </g>
    <g id="line2d_25"/>
    <g id="text_8">
     <!-- r/c = 2.60 -->
     <g transform="translate(418.07583 153.5904)scale(0.14994 -0.14994)">
      <use xlink:href="#STIXGeneral-Regular-114"/>
      <use x="33.299988" xlink:href="#STIXGeneral-Regular-47"/>
      <use x="61.099976" xlink:href="#STIXGeneral-Regular-99"/>
      <use x="105.499969" xlink:href="#STIXGeneral-Regular-32"/>
      <use x="130.499954" xlink:href="#STIXGeneral-Regular-61"/>
      <use x="198.999939" xlink:href="#STIXGeneral-Regular-32"/>
      <use x="223.999924" xlink:href="#STIXGeneral-Regular-50"/>
      <use x="273.999908" xlink:href="#STIXGeneral-Regular-46"/>
      <use x="298.999893" xlink:href="#STIXGeneral-Regular-54"/>
      <use x="348.999878" xlink:href="#STIXGeneral-Regular-48"/>
     </g>
    </g>
   </g>
  </g>
  <g id="axes_2">
   <g id="patch_7">
    <path d="M 72 445.034483 
L 518.4 445.034483 
L 518.4 301.655172 
L 72 301.655172 
z
" style="fill:#ffffff;"/>
   </g>
   <g id="matplotlib.axis_3">
    <g id="xtick_7">
     <g id="line2d_26">
      <g>
       <use style="fill:#ffffff;stroke:#000000;stroke-width:0.8;" x="92.290909" xlink:href="#me268a547a9" y="445.034483"/>
      </g>
     </g>
    </g>
    <g id="xtick_8">
     <g id="line2d_27">
      <g>
       <use style="fill:#ffffff;stroke:#000000;stroke-width:0.8;" x="173.454545" xlink:href="#me268a547a9" y="445.034483"/>
      </g>
     </g>
    </g>
    <g id="xtick_9">
     <g id="line2d_28">
      <g>
       <use style="fill:#ffffff;stroke:#000000;stroke-width:0.8;" x="254.618182" xlink:href="#me268a547a9" y="445.034483"/>
      </g>
     </g>
    </g>
    <g id="xtick_10">
     <g id="line2d_29">
      <g>
       <use style="fill:#ffffff;stroke:#000000;stroke-width:0.8;" x="335.781818" xlink:href="#me268a547a9" y="445.034483"/>
      </g>
     </g>
    </g>
    <g id="xtick_11">
     <g id="line2d_30">
      <g>
       <use style="fill:#ffffff;stroke:#000000;stroke-width:0.8;" x="416.945455" xlink:href="#me268a547a9" y="445.034483"/>
      </g>
     </g>
    </g>
    <g id="xtick_12">
     <g id="line2d_31">
      <g>
       <use style="fill:#ffffff;stroke:#000000;stroke-width:0.8;" x="498.109091" xlink:href="#me268a547a9" y="445.034483"/>
      </g>
     </g>
    </g>
   </g>
   <g id="matplotlib.axis_4">
    <g id="ytick_4">
     <g id="line2d_32">
      <g>
       <use style="fill:#ffffff;stroke:#000000;stroke-width:0.8;" x="72" xlink:href="#m2db9d0a44e" y="418.150862"/>
      </g>
     </g>
     <g id="text_9">
      <!-- −5 -->
      <g transform="translate(43.67 424.297581)scale(0.18 -0.18)">
       <use xlink:href="#STIXGeneral-Regular-8722"/>
       <use x="68.499985" xlink:href="#STIXGeneral-Regular-53"/>
      </g>
     </g>
    </g>
    <g id="ytick_5">
     <g id="line2d_33">
      <g>
       <use style="fill:#ffffff;stroke:#000000;stroke-width:0.8;" x="72" xlink:href="#m2db9d0a44e" y="373.344828"/>
      </g>
     </g>
     <g id="text_10">
      <!-- 0 -->
      <g transform="translate(56 379.491546)scale(0.18 -0.18)">
       <use xlink:href="#STIXGeneral-Regular-48"/>
      </g>
     </g>
    </g>
    <g id="ytick_6">
     <g id="line2d_34">
      <g>
       <use style="fill:#ffffff;stroke:#000000;stroke-width:0.8;" x="72" xlink:href="#m2db9d0a44e" y="328.538793"/>
      </g>
     </g>
     <g id="text_11">
      <!-- 5 -->
      <g transform="translate(56 334.685512)scale(0.18 -0.18)">
       <use xlink:href="#STIXGeneral-Regular-53"/>
      </g>
     </g>
    </g>
    <g id="text_12">
     <!-- Cp -->
     <g transform="translate(35.763438 383.848109)rotate(-90)scale(0.18 -0.18)">
      <use xlink:href="#STIXGeneral-Regular-67"/>
      <use x="66.699997" xlink:href="#STIXGeneral-Regular-112"/>
     </g>
    </g>
   </g>
   <g id="line2d_35">
    <path clip-path="url(#pd2d5df9703)" d="M 92.290909 372.151087 
L 95.1895 370.175553 
L 107.117133 370.108407 
L 112.889811 370.246535 
L 118.665989 370.349275 
L 124.442168 370.521671 
L 130.218346 370.631903 
L 135.994524 370.720807 
L 141.770702 370.779888 
L 147.546881 370.83896 
L 153.323059 370.909915 
L 159.099237 370.961702 
L 164.875415 371.015559 
L 170.651594 371.06662 
L 176.427772 371.117322 
L 182.20395 371.165821 
L 187.980128 371.212921 
L 193.756312 371.260272 
L 199.532485 371.30721 
L 205.308663 371.353629 
L 211.084842 371.40021 
L 216.86102 371.447077 
L 222.637198 371.493487 
L 228.413376 371.539825 
L 234.189555 371.5862 
L 239.965733 371.632789 
L 245.741911 371.679755 
L 251.518089 371.727195 
L 257.294268 371.775263 
L 263.070446 371.823976 
L 268.846624 371.873406 
L 274.622803 371.923634 
L 280.398981 371.974722 
L 286.175159 372.026786 
L 291.951337 372.106667 
L 291.951337 372.053132 
L 297.727516 372.13416 
L 303.503694 372.189665 
L 309.279872 372.246488 
L 315.05605 372.304736 
L 320.832229 372.364489 
L 326.608407 372.425901 
L 332.384585 372.489069 
L 338.160763 372.554153 
L 343.936942 372.621282 
L 349.71312 372.690628 
L 355.489298 372.762348 
L 361.265477 372.836652 
L 367.041655 372.913711 
L 372.817833 372.993767 
L 378.594011 373.077068 
L 384.37019 373.163921 
L 390.146368 373.254604 
L 395.922546 373.349535 
L 401.698724 373.449094 
L 407.474903 373.553937 
L 413.251081 373.66414 
L 419.027259 373.78161 
L 424.803437 373.901178 
L 430.579616 374.038324 
L 436.355794 374.164335 
L 442.131972 374.318803 
L 447.908151 374.493027 
L 453.684329 374.646972 
L 459.460507 374.852819 
L 465.236685 375.136845 
L 471.012864 375.514694 
L 476.789042 375.655977 
L 482.561719 375.904847 
L 488.290288 376.527087 
L 494.37943 377.458308 
L 498.109091 379.143831 
" style="fill:none;stroke:#1f77b4;stroke-linecap:square;stroke-width:5;"/>
   </g>
   <g id="line2d_36">
    <path clip-path="url(#pd2d5df9703)" d="M 72 373.344828 
L 518.4 373.344828 
" style="fill:none;stroke:#000000;stroke-dasharray:3.2,0.8,0.5,0.8;stroke-dashoffset:0;stroke-width:0.5;"/>
   </g>
   <g id="line2d_37">
    <path clip-path="url(#pd2d5df9703)" d="M 92.290909 371.375531 
L 98.908749 367.46564 
L 98.908749 367.4376 
L 103.618541 367.59409 
L 113.589258 367.887847 
L 118.59129 368.141368 
L 123.593321 368.325163 
L 128.595353 368.480281 
L 133.597385 368.593004 
L 138.599417 368.706202 
L 143.601449 368.835952 
L 148.603481 368.936147 
L 153.605513 369.039774 
L 158.607545 369.138589 
L 163.609577 369.235173 
L 168.611608 369.329374 
L 173.61364 369.421495 
L 178.615672 369.511851 
L 183.617704 369.600611 
L 188.619724 369.688055 
L 193.621773 369.77428 
L 198.623806 369.859698 
L 203.625832 369.944408 
L 208.627864 370.02893 
L 213.629895 370.11321 
L 218.631927 370.19879 
L 223.633959 370.283626 
L 228.635991 370.365764 
L 233.638023 370.447732 
L 238.640055 370.529826 
L 243.642087 370.611444 
L 248.644119 370.694793 
L 253.646151 370.779888 
L 258.648182 370.864742 
L 263.650214 370.949784 
L 268.652246 371.035103 
L 273.654278 371.120952 
L 278.65631 371.164234 
L 278.65631 371.250844 
L 283.658342 371.294934 
L 288.660374 371.3833 
L 293.662406 371.472787 
L 298.664438 371.563384 
L 303.666469 371.655111 
L 308.668501 371.748048 
L 313.670533 371.842248 
L 318.672565 371.937757 
L 323.674597 372.034574 
L 328.676629 372.132806 
L 333.678661 372.232518 
L 338.680693 372.333761 
L 343.682725 372.43669 
L 348.684756 372.541436 
L 353.686788 372.648173 
L 358.68882 372.757075 
L 363.690852 372.86827 
L 368.692884 372.98195 
L 373.694916 373.098266 
L 378.696948 373.21736 
L 383.69898 373.339418 
L 388.701012 373.46467 
L 393.703043 373.593293 
L 398.705075 373.725522 
L 403.707107 373.861602 
L 408.709139 374.001883 
L 413.711171 374.146698 
L 418.713203 374.296418 
L 423.715235 374.451662 
L 428.717267 374.612444 
L 433.719299 374.781121 
L 438.72133 374.949054 
L 443.723362 375.139623 
L 448.725394 375.313076 
L 453.727426 375.513323 
L 458.729458 375.747148 
L 463.73149 375.957745 
L 468.733522 376.250857 
L 473.735554 376.850461 
L 478.737586 377.270329 
L 478.737586 376.635338 
L 483.739011 377.021745 
L 488.708302 377.705978 
L 493.396874 378.389521 
L 498.109091 379.881795 
" style="fill:none;stroke:#ff7f0e;stroke-linecap:square;stroke-width:5;"/>
   </g>
   <g id="line2d_38">
    <path clip-path="url(#pd2d5df9703)" d="M 72 373.344828 
L 518.4 373.344828 
" style="fill:none;stroke:#000000;stroke-dasharray:3.2,0.8,0.5,0.8;stroke-dashoffset:0;stroke-width:0.5;"/>
   </g>
   <g id="line2d_39">
    <path clip-path="url(#pd2d5df9703)" d="M 92.290909 373.061117 
L 97.035399 365.361745 
L 101.384095 364.799412 
L 105.971834 364.855554 
L 105.971834 364.785809 
L 110.590364 364.938131 
L 115.208894 365.225965 
L 119.827424 365.459163 
L 124.445954 365.667072 
L 129.064483 365.832119 
L 133.683013 366.000016 
L 138.301543 366.185926 
L 142.920073 366.339323 
L 147.538603 366.495947 
L 152.157133 366.64551 
L 156.775663 366.792303 
L 161.394192 366.935996 
L 170.631252 367.214932 
L 175.249782 367.350488 
L 179.868312 367.483831 
L 184.486842 367.61496 
L 189.105377 367.744253 
L 193.723911 367.871797 
L 198.342437 367.997801 
L 202.960961 368.122424 
L 207.579491 368.245937 
L 212.198021 368.368401 
L 216.816551 368.490148 
L 221.435081 368.611016 
L 226.05361 368.730828 
L 230.67214 368.849689 
L 235.29067 368.967914 
L 239.9092 369.085763 
L 244.52773 369.203675 
L 249.14626 369.321479 
L 253.764789 369.438879 
L 258.383319 369.555967 
L 263.001849 369.672937 
L 267.620379 369.790024 
L 272.238909 369.848864 
L 272.238909 369.965664 
L 276.857439 370.024683 
L 281.475969 370.142397 
L 286.094498 370.260524 
L 290.713028 370.379071 
L 295.331558 370.498031 
L 299.950088 370.617529 
L 304.568618 370.737708 
L 309.187148 370.858577 
L 313.805678 370.980126 
L 318.424207 371.102483 
L 323.042737 371.225753 
L 327.661267 371.349937 
L 332.279797 371.475063 
L 336.898327 371.601174 
L 341.516857 371.728262 
L 346.135386 371.856371 
L 350.753916 371.985574 
L 355.372446 372.116031 
L 359.990976 372.247967 
L 364.609506 372.381516 
L 369.228036 372.516834 
L 373.846566 372.654105 
L 378.465095 372.793479 
L 383.083625 372.935099 
L 387.702155 373.079142 
L 392.320685 373.225808 
L 396.939215 373.375255 
L 401.557745 373.527733 
L 406.176275 373.683424 
L 410.794804 373.842647 
L 415.413334 374.005676 
L 420.031864 374.172874 
L 424.650394 374.34471 
L 429.268924 374.521658 
L 433.887454 374.704529 
L 438.505983 374.892061 
L 443.124513 375.090793 
L 447.743043 375.271075 
L 452.361573 375.515115 
L 456.980103 375.683308 
L 456.980103 375.748797 
L 461.598633 375.930656 
L 466.217163 376.22021 
L 470.835692 376.490785 
L 475.454222 376.903197 
L 480.072752 377.329733 
L 484.691282 377.495004 
L 489.279022 377.906736 
L 493.627717 378.73934 
L 498.109091 380.34172 
" style="fill:none;stroke:#2ca02c;stroke-linecap:square;stroke-width:5;"/>
   </g>
   <g id="line2d_40">
    <path clip-path="url(#pd2d5df9703)" d="M 72 373.344828 
L 518.4 373.344828 
" style="fill:none;stroke:#000000;stroke-dasharray:3.2,0.8,0.5,0.8;stroke-dashoffset:0;stroke-width:0.5;"/>
   </g>
   <g id="line2d_41">
    <path clip-path="url(#pd2d5df9703)" d="M 92.290909 375.924257 
L 96.34555 363.891919 
L 100.526124 362.263758 
L 104.936501 361.829587 
L 109.376478 361.640506 
L 109.376478 361.78496 
L 113.816455 361.914987 
L 118.256431 362.150667 
L 122.696408 362.380612 
L 127.136385 362.579013 
L 131.576362 362.78978 
L 136.016338 363.023847 
L 140.456315 363.228073 
L 144.896292 363.43445 
L 149.336269 363.63545 
L 153.776246 363.83403 
L 158.216222 364.029295 
L 162.656199 364.221602 
L 167.096176 364.41063 
L 171.536153 364.596647 
L 175.976129 364.7795 
L 180.416106 364.95962 
L 189.296044 365.311545 
L 193.736032 365.483815 
L 198.176002 365.653881 
L 202.61599 365.821876 
L 207.055967 365.988017 
L 211.495943 366.152312 
L 215.93592 366.315119 
L 220.375897 366.476233 
L 224.815874 366.63568 
L 229.255851 366.793773 
L 233.695827 366.950648 
L 238.135804 367.106528 
L 242.575781 367.261611 
L 247.015758 367.415806 
L 251.455734 367.569151 
L 255.895711 367.721527 
L 260.335688 367.873195 
L 264.775665 368.024416 
L 269.215641 368.250274 
L 269.215641 368.100281 
L 273.655618 368.325736 
L 278.095595 368.475935 
L 282.535572 368.626062 
L 286.975548 368.776144 
L 291.415525 368.926119 
L 295.855502 369.076103 
L 300.295479 369.226293 
L 304.735456 369.376707 
L 309.175432 369.527291 
L 313.615409 369.678171 
L 318.055386 369.829534 
L 322.495363 369.981445 
L 326.935339 370.133848 
L 331.375316 370.286878 
L 335.815293 370.44068 
L 340.25527 370.595278 
L 344.695246 370.750693 
L 349.135223 370.907012 
L 353.5752 371.064236 
L 358.015177 371.222473 
L 362.455154 371.381786 
L 366.89513 371.542379 
L 371.335107 371.704515 
L 375.775084 371.868361 
L 380.215061 372.034144 
L 384.655037 372.202094 
L 389.095014 372.372393 
L 393.534991 372.545322 
L 397.974968 372.721012 
L 402.414944 372.899722 
L 406.854921 373.081743 
L 411.294898 373.267336 
L 415.734875 373.456866 
L 420.174851 373.650784 
L 424.614828 373.849451 
L 429.054805 374.053422 
L 433.494782 374.263136 
L 437.934759 374.480078 
L 442.374735 374.701931 
L 446.814712 375.063085 
L 446.814712 374.813381 
L 451.254689 375.151604 
L 455.694666 375.439035 
L 460.134642 375.676991 
L 464.574619 375.926121 
L 469.014596 376.275106 
L 473.454573 376.643914 
L 477.894549 377.408314 
L 482.334526 377.537812 
L 486.773965 377.637506 
L 491.185956 378.596919 
L 495.339084 379.481722 
L 498.109091 380.868576 
" style="fill:none;stroke:#d62728;stroke-linecap:square;stroke-width:5;"/>
   </g>
   <g id="line2d_42">
    <path clip-path="url(#pd2d5df9703)" d="M 72 373.344828 
L 518.4 373.344828 
" style="fill:none;stroke:#000000;stroke-dasharray:3.2,0.8,0.5,0.8;stroke-dashoffset:0;stroke-width:0.5;"/>
   </g>
   <g id="patch_8">
    <path d="M 72 445.034483 
L 72 301.655172 
" style="fill:none;stroke:#000000;stroke-linecap:square;stroke-linejoin:miter;stroke-width:0.8;"/>
   </g>
   <g id="patch_9">
    <path d="M 518.4 445.034483 
L 518.4 301.655172 
" style="fill:none;stroke:#000000;stroke-linecap:square;stroke-linejoin:miter;stroke-width:0.8;"/>
   </g>
   <g id="patch_10">
    <path d="M 72 445.034483 
L 518.4 445.034483 
" style="fill:none;stroke:#000000;stroke-linecap:square;stroke-linejoin:miter;stroke-width:0.8;"/>
   </g>
   <g id="patch_11">
    <path d="M 72 301.655172 
L 518.4 301.655172 
" style="fill:none;stroke:#000000;stroke-linecap:square;stroke-linejoin:miter;stroke-width:0.8;"/>
   </g>
  </g>
  <g id="axes_3">
   <g id="patch_12">
    <path d="M 72 617.089655 
L 518.4 617.089655 
L 518.4 473.710345 
L 72 473.710345 
z
" style="fill:#ffffff;"/>
   </g>
   <g id="matplotlib.axis_5">
    <g id="xtick_13">
     <g id="line2d_43">
      <g>
       <use style="fill:#ffffff;stroke:#000000;stroke-width:0.8;" x="92.290909" xlink:href="#me268a547a9" y="617.089655"/>
      </g>
     </g>
    </g>
    <g id="xtick_14">
     <g id="line2d_44">
      <g>
       <use style="fill:#ffffff;stroke:#000000;stroke-width:0.8;" x="173.454545" xlink:href="#me268a547a9" y="617.089655"/>
      </g>
     </g>
    </g>
    <g id="xtick_15">
     <g id="line2d_45">
      <g>
       <use style="fill:#ffffff;stroke:#000000;stroke-width:0.8;" x="254.618182" xlink:href="#me268a547a9" y="617.089655"/>
      </g>
     </g>
    </g>
    <g id="xtick_16">
     <g id="line2d_46">
      <g>
       <use style="fill:#ffffff;stroke:#000000;stroke-width:0.8;" x="335.781818" xlink:href="#me268a547a9" y="617.089655"/>
      </g>
     </g>
    </g>
    <g id="xtick_17">
     <g id="line2d_47">
      <g>
       <use style="fill:#ffffff;stroke:#000000;stroke-width:0.8;" x="416.945455" xlink:href="#me268a547a9" y="617.089655"/>
      </g>
     </g>
    </g>
    <g id="xtick_18">
     <g id="line2d_48">
      <g>
       <use style="fill:#ffffff;stroke:#000000;stroke-width:0.8;" x="498.109091" xlink:href="#me268a547a9" y="617.089655"/>
      </g>
     </g>
    </g>
   </g>
   <g id="matplotlib.axis_6">
    <g id="ytick_7">
     <g id="line2d_49">
      <g>
       <use style="fill:#ffffff;stroke:#000000;stroke-width:0.8;" x="72" xlink:href="#m2db9d0a44e" y="590.206034"/>
      </g>
     </g>
     <g id="text_13">
      <!-- −5 -->
      <g transform="translate(43.67 596.352753)scale(0.18 -0.18)">
       <use xlink:href="#STIXGeneral-Regular-8722"/>
       <use x="68.499985" xlink:href="#STIXGeneral-Regular-53"/>
      </g>
     </g>
    </g>
    <g id="ytick_8">
     <g id="line2d_50">
      <g>
       <use style="fill:#ffffff;stroke:#000000;stroke-width:0.8;" x="72" xlink:href="#m2db9d0a44e" y="545.4"/>
      </g>
     </g>
     <g id="text_14">
      <!-- 0 -->
      <g transform="translate(56 551.546719)scale(0.18 -0.18)">
       <use xlink:href="#STIXGeneral-Regular-48"/>
      </g>
     </g>
    </g>
    <g id="ytick_9">
     <g id="line2d_51">
      <g>
       <use style="fill:#ffffff;stroke:#000000;stroke-width:0.8;" x="72" xlink:href="#m2db9d0a44e" y="500.593966"/>
      </g>
     </g>
     <g id="text_15">
      <!-- 5 -->
      <g transform="translate(56 506.740684)scale(0.18 -0.18)">
       <use xlink:href="#STIXGeneral-Regular-53"/>
      </g>
     </g>
    </g>
    <g id="text_16">
     <!-- Cp -->
     <g transform="translate(35.763438 555.903281)rotate(-90)scale(0.18 -0.18)">
      <use xlink:href="#STIXGeneral-Regular-67"/>
      <use x="66.699997" xlink:href="#STIXGeneral-Regular-112"/>
     </g>
    </g>
   </g>
   <g id="line2d_52">
    <path clip-path="url(#p0031c1dccf)" d="M 92.290909 548.166271 
L 95.1895 543.885171 
L 107.117133 542.462086 
L 112.889811 542.492581 
L 118.665989 542.529896 
L 124.442168 542.556475 
L 130.218346 542.609337 
L 135.994524 542.66064 
L 141.770702 542.705741 
L 147.546881 542.752178 
L 153.323059 542.802191 
L 159.099237 542.84783 
L 164.875415 542.893757 
L 170.651594 542.939683 
L 176.427772 542.986514 
L 182.20395 543.03287 
L 187.980128 543.079209 
L 193.756308 543.127295 
L 199.532485 543.175739 
L 205.308663 543.224694 
L 211.084842 543.274724 
L 216.86102 543.324369 
L 222.637198 543.373871 
L 228.413376 543.423525 
L 234.189555 543.473475 
L 239.965733 543.523792 
L 245.741911 543.574575 
L 251.518089 543.625851 
L 257.294268 543.677737 
L 263.070446 543.730187 
L 268.846624 543.783273 
L 274.622803 543.837022 
L 280.398981 543.891524 
L 286.175159 543.946815 
L 291.951337 544.031185 
L 291.951337 543.974774 
L 297.727516 544.060067 
L 303.503694 544.118171 
L 309.279872 544.17736 
L 315.05605 544.237714 
L 320.832229 544.299322 
L 326.608407 544.362328 
L 332.384585 544.426813 
L 338.160763 544.49292 
L 343.936942 544.560762 
L 349.71312 544.630516 
L 355.489298 544.702303 
L 361.265477 544.776322 
L 367.041655 544.852727 
L 372.817833 544.93176 
L 378.594011 545.013643 
L 384.37019 545.098661 
L 390.146368 545.187068 
L 395.922546 545.279282 
L 401.698724 545.375648 
L 407.474903 545.47679 
L 413.251081 545.582813 
L 419.027259 545.695455 
L 424.803437 545.810251 
L 430.579616 545.9407 
L 436.355794 546.06107 
L 442.131972 546.210469 
L 447.908151 546.379657 
L 453.684329 546.524918 
L 459.460507 546.714528 
L 465.236685 546.983374 
L 471.012864 547.331714 
L 476.789042 547.471464 
L 482.561719 547.717888 
L 488.290288 548.288959 
L 494.37943 549.202948 
L 498.109091 550.922675 
" style="fill:none;stroke:#1f77b4;stroke-linecap:square;stroke-width:5;"/>
   </g>
   <g id="line2d_53">
    <path clip-path="url(#p0031c1dccf)" d="M 72 545.4 
L 518.4 545.4 
" style="fill:none;stroke:#000000;stroke-dasharray:3.2,0.8,0.5,0.8;stroke-dashoffset:0;stroke-width:0.5;"/>
   </g>
   <g id="line2d_54">
    <path clip-path="url(#p0031c1dccf)" d="M 92.290909 549.474437 
L 98.908749 542.423822 
L 98.908749 541.090717 
L 103.618541 540.860217 
L 113.589258 540.41092 
L 118.59129 540.34846 
L 123.593321 540.365728 
L 128.595353 540.404593 
L 133.597385 540.453109 
L 138.599417 540.509843 
L 143.601449 540.572607 
L 148.603481 540.63409 
L 153.605513 540.698763 
L 158.607545 540.765577 
L 163.609577 540.833942 
L 168.611608 540.903732 
L 173.61364 540.9744 
L 178.615672 541.045848 
L 183.617704 541.117663 
L 188.619736 541.189819 
L 193.621768 541.262073 
L 198.6238 541.334596 
L 203.625832 541.407164 
L 208.627864 541.480028 
L 213.629895 541.552963 
L 218.631927 541.626938 
L 223.633959 541.700778 
L 228.635991 541.773435 
L 233.638023 541.846765 
L 238.640055 541.920471 
L 243.642087 541.993989 
L 248.644119 542.068403 
L 253.646151 542.143435 
L 258.648182 542.218512 
L 263.650214 542.29384 
L 268.652246 542.369508 
L 273.654278 542.44566 
L 278.65631 542.484059 
L 278.65631 542.560767 
L 283.658342 542.599793 
L 288.660374 542.677953 
L 293.662406 542.757017 
L 298.664438 542.836987 
L 303.666469 542.917862 
L 308.668501 542.999741 
L 313.670533 543.082713 
L 318.672565 543.166787 
L 323.674597 543.251963 
L 328.676629 543.338367 
L 333.678661 543.426106 
L 338.680693 543.515234 
L 343.682725 543.605904 
L 348.684756 543.698258 
L 353.686788 543.792476 
L 358.68882 543.888746 
L 363.690852 543.987221 
L 368.692884 544.088115 
L 373.694916 544.191599 
L 378.696948 544.297861 
L 383.69898 544.407116 
L 388.701012 544.519644 
L 393.703043 544.635678 
L 398.705075 544.755516 
L 403.707107 544.879462 
L 408.709139 545.00797 
L 413.711171 545.141446 
L 418.713203 545.280388 
L 423.715235 545.425527 
L 428.717267 545.577068 
L 433.719299 545.737384 
L 438.72133 545.898607 
L 443.723362 546.081276 
L 448.725394 546.249134 
L 453.727426 546.449106 
L 458.729458 546.685198 
L 463.73149 546.898681 
L 468.733522 547.193863 
L 473.735554 547.794909 
L 478.737586 548.214814 
L 478.737586 547.640051 
L 483.739011 548.046451 
L 488.708302 548.772416 
L 493.396874 549.537792 
L 498.109091 551.229256 
" style="fill:none;stroke:#ff7f0e;stroke-linecap:square;stroke-width:5;"/>
   </g>
   <g id="line2d_55">
    <path clip-path="url(#p0031c1dccf)" d="M 72 545.4 
L 518.4 545.4 
" style="fill:none;stroke:#000000;stroke-dasharray:3.2,0.8,0.5,0.8;stroke-dashoffset:0;stroke-width:0.5;"/>
   </g>
   <g id="line2d_56">
    <path clip-path="url(#p0031c1dccf)" d="M 92.290909 553.213447 
L 97.035399 541.039306 
L 101.384095 539.04784 
L 105.971834 538.499485 
L 105.971834 538.020616 
L 110.590364 537.826678 
L 115.208894 537.598266 
L 119.827424 537.577314 
L 124.445954 537.608813 
L 129.064483 537.656603 
L 133.683013 537.723248 
L 138.301543 537.801416 
L 142.920073 537.886306 
L 147.538603 537.976841 
L 152.157133 538.070503 
L 156.775663 538.16758 
L 161.394192 538.26756 
L 170.631252 538.473005 
L 175.249782 538.57734 
L 179.868312 538.682357 
L 184.486842 538.78757 
L 189.105372 538.893026 
L 193.7239 538.998418 
L 198.342431 539.103749 
L 202.960961 539.208935 
L 207.579491 539.314104 
L 212.198021 539.419084 
L 216.816551 539.524047 
L 221.435081 539.62883 
L 226.05361 539.733399 
L 230.67214 539.837734 
L 235.29067 539.941944 
L 239.9092 540.046234 
L 244.52773 540.150892 
L 249.14626 540.255685 
L 253.764789 540.36037 
L 258.383319 540.465028 
L 263.001849 540.569874 
L 267.620379 540.67506 
L 272.238909 540.728003 
L 272.238909 540.833235 
L 276.857439 540.886554 
L 281.475969 540.993013 
L 286.094498 541.100099 
L 290.713028 541.207813 
L 295.331558 541.316127 
L 299.950088 541.425212 
L 304.568618 541.535184 
L 309.187148 541.646052 
L 313.805678 541.757843 
L 318.424207 541.870709 
L 323.042737 541.984732 
L 327.661267 542.099919 
L 332.279797 542.216298 
L 336.898327 542.334031 
L 341.516857 542.45317 
L 346.135386 542.573779 
L 350.753916 542.696001 
L 355.372446 542.820042 
L 359.990976 542.946045 
L 364.609506 543.074199 
L 369.228036 543.20471 
L 373.846566 543.337811 
L 378.465095 543.473681 
L 383.083625 543.612481 
L 387.702155 543.75448 
L 392.320685 543.899957 
L 396.939215 544.049116 
L 401.557745 544.202281 
L 406.176275 544.35972 
L 410.794804 544.521899 
L 415.413334 544.689187 
L 420.031864 544.862033 
L 424.650394 545.041092 
L 429.268924 545.227032 
L 433.887454 545.420842 
L 438.505983 545.621358 
L 443.124513 545.835717 
L 447.743043 546.032633 
L 452.361573 546.293069 
L 456.980103 546.469637 
L 456.980103 546.570405 
L 461.598633 546.764648 
L 466.217163 547.086006 
L 470.835692 547.39653 
L 475.454222 547.859152 
L 480.072752 548.349689 
L 484.691282 548.601086 
L 489.279022 549.13262 
L 493.627717 550.112071 
L 498.109091 551.979444 
" style="fill:none;stroke:#2ca02c;stroke-linecap:square;stroke-width:5;"/>
   </g>
   <g id="line2d_57">
    <path clip-path="url(#p0031c1dccf)" d="M 72 545.4 
L 518.4 545.4 
" style="fill:none;stroke:#000000;stroke-dasharray:3.2,0.8,0.5,0.8;stroke-dashoffset:0;stroke-width:0.5;"/>
   </g>
   <g id="line2d_58">
    <path clip-path="url(#p0031c1dccf)" d="M 92.290909 556.019568 
L 96.34555 540.002719 
L 100.526124 536.862891 
L 104.936501 535.49016 
L 109.376478 535.024804 
L 109.376478 534.412843 
L 113.816455 534.371263 
L 118.256431 534.328429 
L 122.696408 534.346082 
L 127.136385 534.402269 
L 131.576362 534.48991 
L 136.016338 534.597355 
L 140.456315 534.717166 
L 144.896292 534.84325 
L 149.336269 534.976055 
L 153.776246 535.114327 
L 158.216222 535.256272 
L 162.656199 535.401444 
L 167.096176 535.548318 
L 171.536153 535.696447 
L 175.976129 535.845113 
L 180.416106 535.994138 
L 189.29606 536.29165 
L 193.736037 536.439958 
L 198.176008 536.587881 
L 202.61599 536.735328 
L 207.055967 536.882319 
L 211.495943 537.028736 
L 215.93592 537.174849 
L 220.375897 537.320361 
L 224.815874 537.465246 
L 229.255851 537.609763 
L 233.695827 537.75394 
L 238.135804 537.897893 
L 242.575781 538.041693 
L 247.015758 538.185216 
L 251.455734 538.328568 
L 255.895711 538.471553 
L 260.335688 538.614395 
L 264.775665 538.757371 
L 269.215641 538.97184 
L 269.215641 538.829267 
L 273.655618 539.043861 
L 278.095595 539.187401 
L 282.535572 539.331381 
L 286.975548 539.475863 
L 291.415525 539.620729 
L 295.855502 539.766116 
L 300.295479 539.912255 
L 304.735456 540.059174 
L 309.175432 540.206792 
L 313.615409 540.355262 
L 318.055386 540.504824 
L 322.495363 540.655561 
L 326.935339 540.807399 
L 331.375316 540.960475 
L 335.815293 541.115002 
L 340.25527 541.271016 
L 344.695246 541.428519 
L 349.135223 541.587607 
L 353.5752 541.748434 
L 358.015177 541.911169 
L 362.455154 542.075876 
L 366.89513 542.242779 
L 371.335107 542.412172 
L 375.775084 542.584281 
L 380.215061 542.759347 
L 384.655037 542.937613 
L 389.095014 543.119373 
L 393.534991 543.304986 
L 397.974968 543.494605 
L 402.414944 543.688598 
L 406.854921 543.887375 
L 411.294898 544.091323 
L 415.734875 544.30089 
L 420.174851 544.51666 
L 424.614828 544.739194 
L 429.054805 544.969204 
L 433.494782 545.207258 
L 437.934759 545.455276 
L 442.374735 545.71088 
L 446.814712 546.130845 
L 446.814712 545.839765 
L 451.254689 546.236628 
L 455.694666 546.570907 
L 460.134642 546.869952 
L 464.574619 547.171003 
L 469.014596 547.574822 
L 473.454573 548.022103 
L 477.894549 548.905508 
L 482.334526 549.139046 
L 486.773965 549.372225 
L 491.185956 550.54229 
L 495.339084 551.634518 
L 498.109091 553.314 
" style="fill:none;stroke:#d62728;stroke-linecap:square;stroke-width:5;"/>
   </g>
   <g id="line2d_59">
    <path clip-path="url(#p0031c1dccf)" d="M 72 545.4 
L 518.4 545.4 
" style="fill:none;stroke:#000000;stroke-dasharray:3.2,0.8,0.5,0.8;stroke-dashoffset:0;stroke-width:0.5;"/>
   </g>
   <g id="patch_13">
    <path d="M 72 617.089655 
L 72 473.710345 
" style="fill:none;stroke:#000000;stroke-linecap:square;stroke-linejoin:miter;stroke-width:0.8;"/>
   </g>
   <g id="patch_14">
    <path d="M 518.4 617.089655 
L 518.4 473.710345 
" style="fill:none;stroke:#000000;stroke-linecap:square;stroke-linejoin:miter;stroke-width:0.8;"/>
   </g>
   <g id="patch_15">
    <path d="M 72 617.089655 
L 518.4 617.089655 
" style="fill:none;stroke:#000000;stroke-linecap:square;stroke-linejoin:miter;stroke-width:0.8;"/>
   </g>
   <g id="patch_16">
    <path d="M 72 473.710345 
L 518.4 473.710345 
" style="fill:none;stroke:#000000;stroke-linecap:square;stroke-linejoin:miter;stroke-width:0.8;"/>
   </g>
  </g>
  <g id="axes_4">
   <g id="patch_17">
    <path d="M 72 789.144828 
L 518.4 789.144828 
L 518.4 645.765517 
L 72 645.765517 
z
" style="fill:#ffffff;"/>
   </g>
   <g id="matplotlib.axis_7">
    <g id="xtick_19">
     <g id="line2d_60">
      <g>
       <use style="fill:#ffffff;stroke:#000000;stroke-width:0.8;" x="92.290909" xlink:href="#me268a547a9" y="789.144828"/>
      </g>
     </g>
    </g>
    <g id="xtick_20">
     <g id="line2d_61">
      <g>
       <use style="fill:#ffffff;stroke:#000000;stroke-width:0.8;" x="173.454545" xlink:href="#me268a547a9" y="789.144828"/>
      </g>
     </g>
    </g>
    <g id="xtick_21">
     <g id="line2d_62">
      <g>
       <use style="fill:#ffffff;stroke:#000000;stroke-width:0.8;" x="254.618182" xlink:href="#me268a547a9" y="789.144828"/>
      </g>
     </g>
    </g>
    <g id="xtick_22">
     <g id="line2d_63">
      <g>
       <use style="fill:#ffffff;stroke:#000000;stroke-width:0.8;" x="335.781818" xlink:href="#me268a547a9" y="789.144828"/>
      </g>
     </g>
    </g>
    <g id="xtick_23">
     <g id="line2d_64">
      <g>
       <use style="fill:#ffffff;stroke:#000000;stroke-width:0.8;" x="416.945455" xlink:href="#me268a547a9" y="789.144828"/>
      </g>
     </g>
    </g>
    <g id="xtick_24">
     <g id="line2d_65">
      <g>
       <use style="fill:#ffffff;stroke:#000000;stroke-width:0.8;" x="498.109091" xlink:href="#me268a547a9" y="789.144828"/>
      </g>
     </g>
    </g>
   </g>
   <g id="matplotlib.axis_8">
    <g id="ytick_10">
     <g id="line2d_66">
      <g>
       <use style="fill:#ffffff;stroke:#000000;stroke-width:0.8;" x="72" xlink:href="#m2db9d0a44e" y="762.261207"/>
      </g>
     </g>
     <g id="text_17">
      <!-- −5 -->
      <g transform="translate(43.67 768.407926)scale(0.18 -0.18)">
       <use xlink:href="#STIXGeneral-Regular-8722"/>
       <use x="68.499985" xlink:href="#STIXGeneral-Regular-53"/>
      </g>
     </g>
    </g>
    <g id="ytick_11">
     <g id="line2d_67">
      <g>
       <use style="fill:#ffffff;stroke:#000000;stroke-width:0.8;" x="72" xlink:href="#m2db9d0a44e" y="717.455172"/>
      </g>
     </g>
     <g id="text_18">
      <!-- 0 -->
      <g transform="translate(56 723.601891)scale(0.18 -0.18)">
       <use xlink:href="#STIXGeneral-Regular-48"/>
      </g>
     </g>
    </g>
    <g id="ytick_12">
     <g id="line2d_68">
      <g>
       <use style="fill:#ffffff;stroke:#000000;stroke-width:0.8;" x="72" xlink:href="#m2db9d0a44e" y="672.649138"/>
      </g>
     </g>
     <g id="text_19">
      <!-- 5 -->
      <g transform="translate(56 678.795857)scale(0.18 -0.18)">
       <use xlink:href="#STIXGeneral-Regular-53"/>
      </g>
     </g>
    </g>
    <g id="text_20">
     <!-- Cp -->
     <g transform="translate(35.763438 727.958454)rotate(-90)scale(0.18 -0.18)">
      <use xlink:href="#STIXGeneral-Regular-67"/>
      <use x="66.699997" xlink:href="#STIXGeneral-Regular-112"/>
     </g>
    </g>
   </g>
   <g id="line2d_69">
    <path clip-path="url(#pd1a1c9d9ac)" d="M 92.290909 723.048184 
L 95.1895 718.065223 
L 107.117133 715.925736 
L 112.889811 715.851645 
L 118.665989 715.825738 
L 124.442168 715.721734 
L 130.218346 715.700308 
L 135.994524 715.694385 
L 141.770702 715.700272 
L 147.546881 715.70771 
L 153.323059 715.711662 
L 159.099237 715.722604 
L 164.875415 715.731986 
L 170.651594 715.743286 
L 176.427772 715.756253 
L 182.20395 715.769749 
L 187.980121 715.78345 
L 193.756312 715.799769 
L 199.532485 715.816885 
L 205.308663 715.834502 
L 211.084842 715.8535 
L 216.86102 715.871924 
L 222.637198 715.890626 
L 228.413376 715.909741 
L 234.189555 715.929384 
L 239.965733 715.949501 
L 245.741911 715.970148 
L 251.518089 715.991332 
L 257.294268 716.013207 
L 263.070446 716.035771 
L 268.846624 716.05907 
L 274.622803 716.083158 
L 280.398981 716.108124 
L 286.175159 716.133977 
L 291.951337 716.174356 
L 291.951337 716.147284 
L 297.727516 716.188739 
L 303.503694 716.217809 
L 309.279872 716.248134 
L 315.05605 716.279838 
L 320.832229 716.312977 
L 326.608407 716.34772 
L 332.384585 716.384192 
L 338.160763 716.422492 
L 343.936942 716.462746 
L 349.71312 716.505186 
L 355.489298 716.549929 
L 361.265477 716.597322 
L 367.041655 716.647224 
L 372.817833 716.699889 
L 378.594011 716.755915 
L 384.37019 716.815424 
L 390.146368 716.878548 
L 395.922546 716.945715 
L 401.698724 717.017401 
L 407.474903 717.094238 
L 413.251081 717.176288 
L 419.027259 717.265038 
L 424.803437 717.356927 
L 430.579616 717.463256 
L 436.355794 717.558497 
L 442.131972 717.682705 
L 447.908151 717.831326 
L 453.684329 717.958882 
L 459.460507 718.123846 
L 465.236685 718.360613 
L 471.012864 718.658071 
L 476.789042 718.789756 
L 482.561719 719.027757 
L 488.290288 719.535776 
L 494.37943 720.432157 
L 498.109091 722.212068 
" style="fill:none;stroke:#1f77b4;stroke-linecap:square;stroke-width:5;"/>
   </g>
   <g id="line2d_70">
    <path clip-path="url(#pd1a1c9d9ac)" d="M 72 717.455172 
L 518.4 717.455172 
" style="fill:none;stroke:#000000;stroke-dasharray:3.2,0.8,0.5,0.8;stroke-dashoffset:0;stroke-width:0.5;"/>
   </g>
   <g id="line2d_71">
    <path clip-path="url(#pd1a1c9d9ac)" d="M 92.290909 725.091519 
L 98.908749 717.604263 
L 98.908749 715.833104 
L 103.618541 715.386747 
L 113.589258 714.561733 
L 118.59129 714.296338 
L 123.593321 714.205498 
L 128.595353 714.160074 
L 133.597385 714.145046 
L 138.599417 714.141981 
L 143.601449 714.135807 
L 148.603481 714.143621 
L 153.605513 714.153183 
L 158.607545 714.168874 
L 163.609577 714.187872 
L 168.611608 714.210176 
L 173.61364 714.234676 
L 178.615672 714.26112 
L 183.617704 714.28882 
L 188.619742 714.317621 
L 193.62177 714.347193 
L 198.6238 714.377562 
L 203.625832 714.408523 
L 208.627864 714.440246 
L 213.629895 714.472291 
L 218.631927 714.505367 
L 223.633959 714.538156 
L 228.635991 714.569852 
L 233.638023 714.603116 
L 238.640055 714.637151 
L 243.642087 714.671158 
L 248.644119 714.706044 
L 253.646151 714.74111 
L 258.648182 714.776488 
L 263.650214 714.812288 
L 268.652246 714.848537 
L 273.654278 714.885376 
L 278.65631 714.904177 
L 278.65631 714.941903 
L 283.658342 714.961502 
L 288.660374 715.00077 
L 293.662406 715.041059 
L 298.664438 715.082469 
L 303.666469 715.124927 
L 308.668501 715.168559 
L 313.670533 715.213473 
L 318.672565 715.259695 
L 323.674597 715.307216 
L 328.676629 715.356216 
L 333.678661 715.40682 
L 338.680693 715.459108 
L 343.682725 715.513243 
L 348.684756 715.569385 
L 353.686788 715.627696 
L 358.68882 715.688453 
L 363.690852 715.751763 
L 368.692884 715.817727 
L 373.694916 715.88663 
L 378.696948 715.958785 
L 383.69898 716.034337 
L 388.701012 716.113617 
L 393.703043 716.196911 
L 398.705075 716.284543 
L 403.707107 716.376888 
L 408.709139 716.474431 
L 413.711171 716.577584 
L 418.713203 716.686952 
L 423.715235 716.803313 
L 428.717267 716.927038 
L 433.719299 717.060281 
L 438.72133 717.196655 
L 443.723362 717.35257 
L 448.725394 717.491259 
L 453.727426 717.669411 
L 458.729458 717.888826 
L 463.73149 718.085085 
L 468.733522 718.356096 
L 473.735554 718.895651 
L 478.737586 719.269664 
L 478.737586 718.852198 
L 483.739011 719.248408 
L 488.708302 719.969481 
L 493.396874 720.792442 
L 498.109091 722.753961 
" style="fill:none;stroke:#ff7f0e;stroke-linecap:square;stroke-width:5;"/>
   </g>
   <g id="line2d_72">
    <path clip-path="url(#pd1a1c9d9ac)" d="M 72 717.455172 
L 518.4 717.455172 
" style="fill:none;stroke:#000000;stroke-dasharray:3.2,0.8,0.5,0.8;stroke-dashoffset:0;stroke-width:0.5;"/>
   </g>
   <g id="line2d_73">
    <path clip-path="url(#pd1a1c9d9ac)" d="M 92.290909 729.115405 
L 97.035399 716.883242 
L 101.384095 714.446653 
L 105.971834 713.651266 
L 105.971834 713.122241 
L 110.590364 712.804871 
L 115.208894 712.356049 
L 119.827424 712.173312 
L 124.445954 712.075778 
L 129.064483 712.034072 
L 133.683013 712.020272 
L 138.301543 712.010173 
L 142.920073 712.023597 
L 147.538603 712.041573 
L 152.157133 712.068259 
L 156.775663 712.101048 
L 161.394192 712.13908 
L 170.631252 712.226801 
L 175.249782 712.274278 
L 179.868312 712.323842 
L 184.486842 712.374786 
L 189.105377 712.426564 
L 193.723898 712.478907 
L 198.34242 712.531885 
L 202.960961 712.585213 
L 207.579491 712.639026 
L 212.198021 712.693124 
L 216.816551 712.7476 
L 221.435081 712.802245 
L 226.05361 712.857043 
L 230.67214 712.911894 
L 235.29067 712.966961 
L 239.9092 713.022332 
L 244.52773 713.078232 
L 249.14626 713.13441 
L 253.764789 713.190677 
L 258.383319 713.247241 
L 263.001849 713.304306 
L 267.620379 713.361881 
L 272.238909 713.391041 
L 272.238909 713.448957 
L 276.857439 713.478753 
L 281.475969 713.538274 
L 286.094498 713.598636 
L 290.713028 713.659913 
L 295.331558 713.722077 
L 299.950088 713.785289 
L 304.568618 713.84972 
L 309.187148 713.91537 
L 313.805678 713.982319 
L 318.424207 714.050711 
L 323.042737 714.120627 
L 327.661267 714.192128 
L 332.279797 714.265278 
L 336.898327 714.340257 
L 341.516857 714.417189 
L 346.135386 714.496137 
L 350.753916 714.577245 
L 355.372446 714.660728 
L 359.990976 714.746773 
L 364.609506 714.835668 
L 369.228036 714.927628 
L 373.846566 715.022931 
L 378.465095 715.12188 
L 383.083625 715.224701 
L 387.702155 715.331653 
L 392.320685 715.443041 
L 396.939215 715.559223 
L 401.557745 715.680719 
L 406.176275 715.807852 
L 410.794804 715.94115 
L 415.413334 716.081168 
L 420.031864 716.228518 
L 424.650394 716.384084 
L 429.268924 716.54871 
L 433.887454 716.723644 
L 438.505983 716.908111 
L 443.124513 717.109122 
L 447.743043 717.298266 
L 452.361573 717.547213 
L 456.980103 717.71395 
L 456.980103 717.831631 
L 461.598633 718.023686 
L 466.217163 718.355657 
L 470.835692 718.690107 
L 475.454222 719.178654 
L 480.072752 719.707455 
L 484.691282 720.069694 
L 489.279022 720.755979 
L 493.627717 721.921366 
L 498.109091 724.305764 
" style="fill:none;stroke:#2ca02c;stroke-linecap:square;stroke-width:5;"/>
   </g>
   <g id="line2d_74">
    <path clip-path="url(#pd1a1c9d9ac)" d="M 72 717.455172 
L 518.4 717.455172 
" style="fill:none;stroke:#000000;stroke-dasharray:3.2,0.8,0.5,0.8;stroke-dashoffset:0;stroke-width:0.5;"/>
   </g>
   <g id="line2d_75">
    <path clip-path="url(#pd1a1c9d9ac)" d="M 92.290909 731.435462 
L 96.34555 716.129971 
L 100.526124 712.704057 
L 104.936501 711.151931 
L 109.376478 710.707859 
L 109.376478 709.89712 
L 113.816455 709.732825 
L 118.256431 709.502845 
L 122.696408 709.384817 
L 127.136385 709.339563 
L 131.576362 709.333837 
L 136.016338 709.337824 
L 140.456315 709.371725 
L 144.896292 709.412176 
L 149.336269 709.465692 
L 153.776246 709.526861 
L 158.216222 709.594464 
L 162.656199 709.668251 
L 167.096176 709.745864 
L 171.536153 709.825879 
L 175.976129 709.907363 
L 180.416106 709.990881 
L 189.29606 710.16135 
L 193.736028 710.247351 
L 198.176019 710.333639 
L 202.61599 710.420132 
L 207.055967 710.506921 
L 211.495943 710.593872 
L 215.93592 710.681082 
L 220.375897 710.768105 
L 224.815874 710.855172 
L 229.255851 710.942382 
L 233.695827 711.029485 
L 238.135804 711.116848 
L 242.575781 711.204659 
L 247.015758 711.292577 
L 251.455734 711.380711 
L 255.895711 711.468889 
L 260.335688 711.557417 
L 264.775665 711.646554 
L 269.215641 711.780936 
L 269.215641 711.691593 
L 273.655618 711.826647 
L 278.095595 711.917729 
L 282.535572 712.009725 
L 286.975548 712.102885 
L 291.415525 712.196942 
L 295.855502 712.292048 
L 300.295479 712.388524 
L 304.735456 712.486434 
L 309.175432 712.58576 
L 313.615409 712.686565 
L 318.055386 712.789171 
L 322.495363 712.893757 
L 326.935339 713.000243 
L 331.375316 713.10879 
L 335.815293 713.219676 
L 340.25527 713.333026 
L 344.695246 713.44885 
L 349.135223 713.56729 
L 353.5752 713.688643 
L 358.015177 713.813186 
L 362.455154 713.940999 
L 366.89513 714.072344 
L 371.335107 714.207658 
L 375.775084 714.347372 
L 380.215061 714.49171 
L 384.655037 714.640995 
L 389.095014 714.79571 
L 393.534991 714.956358 
L 397.974968 715.123269 
L 402.414944 715.297045 
L 406.854921 715.478276 
L 411.294898 715.667564 
L 415.734875 715.865651 
L 420.174851 716.073399 
L 424.614828 716.291712 
L 429.054805 716.521782 
L 433.494782 716.764741 
L 437.934759 717.022869 
L 442.374735 717.294155 
L 446.814712 717.750114 
L 446.814712 717.43232 
L 451.254689 717.872055 
L 455.694666 718.235722 
L 460.134642 718.56888 
L 464.574619 718.931988 
L 469.014596 719.423519 
L 473.454573 719.977008 
L 477.894549 721.013766 
L 482.334526 721.441592 
L 486.773965 721.941538 
L 491.185956 723.475069 
L 495.339084 725.014757 
L 498.109091 727.433566 
" style="fill:none;stroke:#d62728;stroke-linecap:square;stroke-width:5;"/>
   </g>
   <g id="line2d_76">
    <path clip-path="url(#pd1a1c9d9ac)" d="M 72 717.455172 
L 518.4 717.455172 
" style="fill:none;stroke:#000000;stroke-dasharray:3.2,0.8,0.5,0.8;stroke-dashoffset:0;stroke-width:0.5;"/>
   </g>
   <g id="patch_18">
    <path d="M 72 789.144828 
L 72 645.765517 
" style="fill:none;stroke:#000000;stroke-linecap:square;stroke-linejoin:miter;stroke-width:0.8;"/>
   </g>
   <g id="patch_19">
    <path d="M 518.4 789.144828 
L 518.4 645.765517 
" style="fill:none;stroke:#000000;stroke-linecap:square;stroke-linejoin:miter;stroke-width:0.8;"/>
   </g>
   <g id="patch_20">
    <path d="M 72 789.144828 
L 518.4 789.144828 
" style="fill:none;stroke:#000000;stroke-linecap:square;stroke-linejoin:miter;stroke-width:0.8;"/>
   </g>
   <g id="patch_21">
    <path d="M 72 645.765517 
L 518.4 645.765517 
" style="fill:none;stroke:#000000;stroke-linecap:square;stroke-linejoin:miter;stroke-width:0.8;"/>
   </g>
  </g>
  <g id="axes_5">
   <g id="patch_22">
    <path d="M 72 961.2 
L 518.4 961.2 
L 518.4 817.82069 
L 72 817.82069 
z
" style="fill:#ffffff;"/>
   </g>
   <g id="matplotlib.axis_9">
    <g id="xtick_25">
     <g id="line2d_77">
      <g>
       <use style="fill:#ffffff;stroke:#000000;stroke-width:0.8;" x="92.290909" xlink:href="#me268a547a9" y="961.2"/>
      </g>
     </g>
     <g id="text_21">
      <!-- 0.0 -->
      <g transform="translate(81.040909 980.493438)scale(0.18 -0.18)">
       <use xlink:href="#STIXGeneral-Regular-48"/>
       <use x="49.999985" xlink:href="#STIXGeneral-Regular-46"/>
       <use x="74.999969" xlink:href="#STIXGeneral-Regular-48"/>
      </g>
     </g>
    </g>
    <g id="xtick_26">
     <g id="line2d_78">
      <g>
       <use style="fill:#ffffff;stroke:#000000;stroke-width:0.8;" x="173.454545" xlink:href="#me268a547a9" y="961.2"/>
      </g>
     </g>
     <g id="text_22">
      <!-- 0.2 -->
      <g transform="translate(162.204545 980.493438)scale(0.18 -0.18)">
       <use xlink:href="#STIXGeneral-Regular-48"/>
       <use x="49.999985" xlink:href="#STIXGeneral-Regular-46"/>
       <use x="74.999969" xlink:href="#STIXGeneral-Regular-50"/>
      </g>
     </g>
    </g>
    <g id="xtick_27">
     <g id="line2d_79">
      <g>
       <use style="fill:#ffffff;stroke:#000000;stroke-width:0.8;" x="254.618182" xlink:href="#me268a547a9" y="961.2"/>
      </g>
     </g>
     <g id="text_23">
      <!-- 0.4 -->
      <g transform="translate(243.368182 980.493438)scale(0.18 -0.18)">
       <use xlink:href="#STIXGeneral-Regular-48"/>
       <use x="49.999985" xlink:href="#STIXGeneral-Regular-46"/>
       <use x="74.999969" xlink:href="#STIXGeneral-Regular-52"/>
      </g>
     </g>
    </g>
    <g id="xtick_28">
     <g id="line2d_80">
      <g>
       <use style="fill:#ffffff;stroke:#000000;stroke-width:0.8;" x="335.781818" xlink:href="#me268a547a9" y="961.2"/>
      </g>
     </g>
     <g id="text_24">
      <!-- 0.6 -->
      <g transform="translate(324.531818 980.493438)scale(0.18 -0.18)">
       <use xlink:href="#STIXGeneral-Regular-48"/>
       <use x="49.999985" xlink:href="#STIXGeneral-Regular-46"/>
       <use x="74.999969" xlink:href="#STIXGeneral-Regular-54"/>
      </g>
     </g>
    </g>
    <g id="xtick_29">
     <g id="line2d_81">
      <g>
       <use style="fill:#ffffff;stroke:#000000;stroke-width:0.8;" x="416.945455" xlink:href="#me268a547a9" y="961.2"/>
      </g>
     </g>
     <g id="text_25">
      <!-- 0.8 -->
      <g transform="translate(405.695455 980.493438)scale(0.18 -0.18)">
       <use xlink:href="#STIXGeneral-Regular-48"/>
       <use x="49.999985" xlink:href="#STIXGeneral-Regular-46"/>
       <use x="74.999969" xlink:href="#STIXGeneral-Regular-56"/>
      </g>
     </g>
    </g>
    <g id="xtick_30">
     <g id="line2d_82">
      <g>
       <use style="fill:#ffffff;stroke:#000000;stroke-width:0.8;" x="498.109091" xlink:href="#me268a547a9" y="961.2"/>
      </g>
     </g>
     <g id="text_26">
      <!-- 1.0 -->
      <g transform="translate(486.859091 980.493438)scale(0.18 -0.18)">
       <use xlink:href="#STIXGeneral-Regular-49"/>
       <use x="49.999985" xlink:href="#STIXGeneral-Regular-46"/>
       <use x="74.999969" xlink:href="#STIXGeneral-Regular-48"/>
      </g>
     </g>
    </g>
    <g id="text_27">
     <!-- x/c -->
     <g transform="translate(284.201719 1000.693438)scale(0.18 -0.18)">
      <defs>
       <path d="M 47.90625 0 
L 27.796875 0 
L 27.796875 1.5 
Q 30.296875 1.703125 31.046875 2.140625 
Q 31.796875 2.59375 31.796875 3.90625 
Q 31.796875 4.796875 31.203125 5.703125 
L 22.09375 19.703125 
L 14.203125 7.40625 
Q 12.203125 4.296875 12.203125 3.296875 
Q 12.203125 1.5 16.203125 1.5 
L 16.203125 0 
L 1.703125 0 
L 1.703125 1.5 
Q 4.203125 1.703125 5.546875 2.640625 
Q 6.90625 3.59375 9 6.59375 
L 20.40625 23.09375 
L 11 37.5 
Q 8.703125 41 7.09375 42.25 
Q 5.5 43.5 3.296875 43.5 
L 2.40625 43.5 
L 2.40625 45 
L 23.09375 45 
L 23.09375 43.5 
Q 18.796875 43.40625 18.796875 41.296875 
Q 18.796875 39.203125 23.40625 32.40625 
Q 24.703125 30.59375 24.796875 30.40625 
Q 25.296875 31.09375 27.796875 34.796875 
Q 28.296875 35.703125 29 36.703125 
Q 29.703125 37.703125 30.046875 38.296875 
Q 30.40625 38.90625 30.796875 39.5 
Q 31.203125 40.09375 31.34375 40.546875 
Q 31.5 41 31.5 41.296875 
Q 31.5 43.203125 27.5 43.5 
L 27.5 45 
L 43.296875 45 
L 43.296875 43.5 
Q 38.203125 43.296875 35.203125 39.09375 
L 26.90625 27.09375 
L 39.703125 7.5 
Q 43.59375 1.5 47.90625 1.5 
z
" id="STIXGeneral-Regular-120"/>
      </defs>
      <use xlink:href="#STIXGeneral-Regular-120"/>
      <use x="49.999985" xlink:href="#STIXGeneral-Regular-47"/>
      <use x="77.799973" xlink:href="#STIXGeneral-Regular-99"/>
     </g>
    </g>
   </g>
   <g id="matplotlib.axis_10">
    <g id="ytick_13">
     <g id="line2d_83">
      <g>
       <use style="fill:#ffffff;stroke:#000000;stroke-width:0.8;" x="72" xlink:href="#m2db9d0a44e" y="934.316379"/>
      </g>
     </g>
     <g id="text_28">
      <!-- −5 -->
      <g transform="translate(43.67 940.463098)scale(0.18 -0.18)">
       <use xlink:href="#STIXGeneral-Regular-8722"/>
       <use x="68.499985" xlink:href="#STIXGeneral-Regular-53"/>
      </g>
     </g>
    </g>
    <g id="ytick_14">
     <g id="line2d_84">
      <g>
       <use style="fill:#ffffff;stroke:#000000;stroke-width:0.8;" x="72" xlink:href="#m2db9d0a44e" y="889.510345"/>
      </g>
     </g>
     <g id="text_29">
      <!-- 0 -->
      <g transform="translate(56 895.657064)scale(0.18 -0.18)">
       <use xlink:href="#STIXGeneral-Regular-48"/>
      </g>
     </g>
    </g>
    <g id="ytick_15">
     <g id="line2d_85">
      <g>
       <use style="fill:#ffffff;stroke:#000000;stroke-width:0.8;" x="72" xlink:href="#m2db9d0a44e" y="844.70431"/>
      </g>
     </g>
     <g id="text_30">
      <!-- 5 -->
      <g transform="translate(56 850.851029)scale(0.18 -0.18)">
       <use xlink:href="#STIXGeneral-Regular-53"/>
      </g>
     </g>
    </g>
    <g id="text_31">
     <!-- Cp -->
     <g transform="translate(35.763438 900.013626)rotate(-90)scale(0.18 -0.18)">
      <use xlink:href="#STIXGeneral-Regular-67"/>
      <use x="66.699997" xlink:href="#STIXGeneral-Regular-112"/>
     </g>
    </g>
   </g>
   <g id="line2d_86">
    <path clip-path="url(#p7c1d698f7f)" d="M 92.290909 893.045362 
L 95.1895 892.803875 
L 107.117133 892.845787 
L 112.889811 893.010843 
L 118.665989 893.145826 
L 124.442168 893.140521 
L 130.218346 893.181904 
L 135.994524 893.225213 
L 141.770702 893.276534 
L 147.546881 893.314619 
L 153.323059 893.334119 
L 159.099237 893.360733 
L 164.875415 893.376693 
L 170.651594 893.389373 
L 176.427772 893.398254 
L 182.20395 893.404222 
L 187.980128 893.400898 
L 193.756307 893.395055 
L 199.532485 893.386013 
L 205.308663 893.372697 
L 211.084842 893.359282 
L 216.86102 893.339513 
L 222.637198 893.316358 
L 228.413376 893.289573 
L 234.189555 893.259463 
L 239.965733 893.225957 
L 245.741911 893.189046 
L 251.518089 893.148702 
L 257.294268 893.104954 
L 263.070446 893.057719 
L 268.846624 893.007062 
L 274.622803 892.952945 
L 280.398981 892.895441 
L 286.175159 892.834522 
L 291.951337 892.736639 
L 291.951337 892.803866 
L 297.727516 892.702596 
L 303.503694 892.631641 
L 309.279872 892.557388 
L 315.05605 892.479892 
L 320.832229 892.39916 
L 326.608407 892.315301 
L 332.384585 892.228288 
L 338.160763 892.138228 
L 343.936942 892.045121 
L 349.71312 891.949075 
L 355.489298 891.850089 
L 361.265477 891.748281 
L 367.041655 891.643659 
L 372.817833 891.536402 
L 378.594011 891.426484 
L 384.37019 891.314433 
L 390.146368 891.200061 
L 395.922546 891.083288 
L 401.698724 890.964462 
L 407.474903 890.843996 
L 413.251081 890.721828 
L 419.027259 890.600592 
L 424.803437 890.479392 
L 430.579616 890.357469 
L 436.355794 890.233453 
L 442.131972 890.10963 
L 447.908151 889.989381 
L 453.684329 889.868695 
L 459.460507 889.75162 
L 465.236685 889.665726 
L 471.012864 889.611571 
L 476.789042 889.508354 
L 482.561719 889.494808 
L 488.290288 889.635973 
L 494.37943 890.464785 
L 498.109091 892.851226 
" style="fill:none;stroke:#1f77b4;stroke-linecap:square;stroke-width:5;"/>
   </g>
   <g id="line2d_87">
    <path clip-path="url(#p7c1d698f7f)" d="M 72 889.510345 
L 518.4 889.510345 
" style="fill:none;stroke:#000000;stroke-dasharray:3.2,0.8,0.5,0.8;stroke-dashoffset:0;stroke-width:0.5;"/>
   </g>
   <g id="line2d_88">
    <path clip-path="url(#p7c1d698f7f)" d="M 92.290909 894.215014 
L 98.908749 894.151623 
L 98.908749 894.294814 
L 103.618541 894.327827 
L 113.589258 894.71617 
L 118.59129 894.757642 
L 123.593321 894.84401 
L 128.595353 894.930083 
L 133.597385 895.022231 
L 138.599417 895.098697 
L 143.601449 895.154274 
L 148.603481 895.212576 
L 153.605513 895.259819 
L 158.607545 895.302466 
L 163.609577 895.339637 
L 168.611608 895.372184 
L 173.61364 895.400053 
L 178.615672 895.423343 
L 183.617704 895.442001 
L 188.619736 895.456159 
L 193.621768 895.465829 
L 198.6238 895.471187 
L 203.625832 895.472343 
L 208.627864 895.469512 
L 213.629895 895.462835 
L 218.631927 895.4521 
L 223.633959 895.437269 
L 228.635991 895.414714 
L 233.638023 895.389452 
L 238.640055 895.360785 
L 243.642087 895.328095 
L 248.644119 895.293684 
L 253.646151 895.253197 
L 258.648182 895.208938 
L 263.650214 895.160583 
L 268.652246 895.108411 
L 273.654278 895.052341 
L 278.65631 895.023987 
L 278.65631 894.960649 
L 283.658342 894.928308 
L 288.660374 894.860472 
L 293.662406 894.788836 
L 298.664438 894.71341 
L 303.666469 894.634094 
L 308.668501 894.550943 
L 313.670533 894.463984 
L 318.672565 894.373287 
L 323.674597 894.278684 
L 328.676629 894.180334 
L 333.678661 894.078311 
L 338.680693 893.972605 
L 343.682725 893.863197 
L 348.684756 893.750205 
L 353.686788 893.633665 
L 358.68882 893.513621 
L 363.690852 893.390064 
L 368.692884 893.263083 
L 373.694916 893.132662 
L 378.696948 892.998961 
L 383.69898 892.861935 
L 388.701012 892.721692 
L 393.703043 892.578232 
L 398.705075 892.431779 
L 403.707107 892.282351 
L 408.709139 892.13019 
L 413.711171 891.975788 
L 418.713203 891.819056 
L 423.715235 891.659744 
L 428.717267 891.498864 
L 433.719299 891.33637 
L 438.72133 891.173348 
L 443.723362 891.011696 
L 448.725394 890.846604 
L 453.727426 890.679245 
L 458.729458 890.51478 
L 463.73149 890.350201 
L 468.733522 890.201524 
L 473.735554 890.149338 
L 478.737586 890.163231 
L 478.737586 889.761182 
L 483.739011 889.808143 
L 488.708302 889.900103 
L 493.396874 890.26694 
L 498.109091 892.257233 
" style="fill:none;stroke:#ff7f0e;stroke-linecap:square;stroke-width:5;"/>
   </g>
   <g id="line2d_89">
    <path clip-path="url(#p7c1d698f7f)" d="M 72 889.510345 
L 518.4 889.510345 
" style="fill:none;stroke:#000000;stroke-dasharray:3.2,0.8,0.5,0.8;stroke-dashoffset:0;stroke-width:0.5;"/>
   </g>
   <g id="line2d_90">
    <path clip-path="url(#p7c1d698f7f)" d="M 92.290909 895.075084 
L 97.035399 895.400842 
L 101.384095 895.569008 
L 105.971834 895.631279 
L 105.971834 896.002748 
L 110.590364 896.045135 
L 115.208894 896.152275 
L 119.827424 896.289641 
L 124.445954 896.421505 
L 129.064483 896.553916 
L 133.683013 896.6687 
L 138.301543 896.763098 
L 142.920073 896.858526 
L 147.538603 896.941838 
L 152.157133 897.01713 
L 156.775663 897.085414 
L 161.394192 897.147883 
L 170.631252 897.255677 
L 175.249782 897.301505 
L 179.868312 897.341929 
L 184.486842 897.377146 
L 189.105372 897.407193 
L 193.723901 897.432052 
L 198.342431 897.451874 
L 202.960961 897.466714 
L 207.579491 897.476813 
L 212.198021 897.4821 
L 216.816551 897.482467 
L 221.435081 897.478112 
L 226.05361 897.468936 
L 230.67214 897.455207 
L 235.29067 897.437115 
L 239.9092 897.414461 
L 244.52773 897.38721 
L 249.14626 897.355236 
L 253.764789 897.31854 
L 258.383319 897.277032 
L 263.001849 897.231034 
L 267.620379 897.180564 
L 272.238909 897.154882 
L 272.238909 897.096598 
L 276.857439 897.06647 
L 281.475969 897.002702 
L 286.094498 896.934687 
L 290.713028 896.862415 
L 295.331558 896.785734 
L 299.950088 896.704778 
L 304.568618 896.619476 
L 309.187148 896.529891 
L 313.805678 896.436005 
L 318.424207 896.337888 
L 323.042737 896.235533 
L 327.661267 896.128814 
L 332.279797 896.017678 
L 336.898327 895.902293 
L 341.516857 895.782482 
L 346.135386 895.658333 
L 350.753916 895.529892 
L 355.372446 895.397266 
L 359.990976 895.260429 
L 364.609506 895.119496 
L 369.228036 894.974441 
L 373.846566 894.825335 
L 378.465095 894.672063 
L 383.083625 894.51474 
L 387.702155 894.353339 
L 392.320685 894.187987 
L 396.939215 894.018594 
L 401.557745 893.845293 
L 406.176275 893.66813 
L 410.794804 893.487203 
L 415.413334 893.302486 
L 420.031864 893.114282 
L 424.650394 892.922629 
L 429.268924 892.727938 
L 433.887454 892.530585 
L 438.505983 892.33049 
L 443.124513 892.127519 
L 447.743043 891.921564 
L 452.361573 891.714667 
L 456.980103 891.611712 
L 456.980103 891.393453 
L 461.598633 891.288392 
L 466.217163 891.074273 
L 470.835692 890.855664 
L 475.454222 890.667048 
L 480.072752 890.480566 
L 484.691282 890.256062 
L 489.279022 890.162945 
L 493.627717 890.348276 
L 498.109091 891.881525 
" style="fill:none;stroke:#2ca02c;stroke-linecap:square;stroke-width:5;"/>
   </g>
   <g id="line2d_91">
    <path clip-path="url(#p7c1d698f7f)" d="M 72 889.510345 
L 518.4 889.510345 
" style="fill:none;stroke:#000000;stroke-dasharray:3.2,0.8,0.5,0.8;stroke-dashoffset:0;stroke-width:0.5;"/>
   </g>
   <g id="line2d_92">
    <path clip-path="url(#p7c1d698f7f)" d="M 92.290909 895.813228 
L 96.34555 896.49548 
L 100.526124 896.738194 
L 104.936501 896.998679 
L 109.376478 897.167472 
L 109.376478 897.288126 
L 113.816455 897.379503 
L 118.256431 897.561407 
L 122.696408 897.731983 
L 127.136385 897.896296 
L 131.576362 898.04412 
L 136.016338 898.175572 
L 140.456315 898.303502 
L 144.896292 898.417632 
L 149.336269 898.523527 
L 153.776246 898.621921 
L 158.216222 898.713325 
L 162.656199 898.797919 
L 167.096176 898.876061 
L 171.536153 898.947661 
L 175.976129 899.013167 
L 180.416106 899.072401 
L 189.29606 899.172497 
L 193.736036 899.213898 
L 198.176013 899.249564 
L 202.61599 899.279494 
L 207.055967 899.303958 
L 211.495943 899.322866 
L 215.93592 899.336577 
L 220.375897 899.344911 
L 224.815874 899.347779 
L 229.255851 899.345449 
L 233.695827 899.33819 
L 238.135804 899.325555 
L 242.575781 899.307453 
L 247.015758 899.284064 
L 251.455734 899.255478 
L 255.895711 899.221605 
L 260.335688 899.182534 
L 264.775665 899.138445 
L 269.215641 899.062812 
L 269.215641 899.115773 
L 273.655618 899.035032 
L 278.095595 898.975978 
L 282.535572 898.912085 
L 286.975548 898.842994 
L 291.415525 898.769153 
L 295.855502 898.690564 
L 300.295479 898.607045 
L 304.735456 898.518598 
L 309.175432 898.425186 
L 313.615409 898.326998 
L 318.055386 898.223945 
L 322.495363 898.115935 
L 326.935339 898.002952 
L 331.375316 897.885112 
L 335.815293 897.762389 
L 340.25527 897.634709 
L 344.695246 897.501895 
L 349.135223 897.364144 
L 353.5752 897.221383 
L 358.015177 897.073693 
L 362.455154 896.920949 
L 366.89513 896.763268 
L 371.335107 896.600721 
L 375.775084 896.433325 
L 380.215061 896.260947 
L 384.655037 896.083686 
L 389.095014 895.901585 
L 393.534991 895.71461 
L 397.974968 895.522616 
L 402.414944 895.325747 
L 406.854921 895.123976 
L 411.294898 894.917349 
L 415.734875 894.70573 
L 420.174851 894.48929 
L 424.614828 894.267984 
L 429.054805 894.042009 
L 433.494782 893.811294 
L 437.934759 893.576116 
L 442.374735 893.336422 
L 446.814712 892.968869 
L 446.814712 893.215428 
L 451.254689 892.843663 
L 455.694666 892.588385 
L 460.134642 892.326942 
L 464.574619 892.060704 
L 469.014596 891.786339 
L 473.454573 891.510755 
L 477.894549 891.307748 
L 482.334526 890.998945 
L 486.773965 890.69128 
L 491.185956 890.564272 
L 495.339084 890.643651 
L 498.109091 891.540363 
" style="fill:none;stroke:#d62728;stroke-linecap:square;stroke-width:5;"/>
   </g>
   <g id="line2d_93">
    <path clip-path="url(#p7c1d698f7f)" d="M 72 889.510345 
L 518.4 889.510345 
" style="fill:none;stroke:#000000;stroke-dasharray:3.2,0.8,0.5,0.8;stroke-dashoffset:0;stroke-width:0.5;"/>
   </g>
   <g id="patch_23">
    <path d="M 72 961.2 
L 72 817.82069 
" style="fill:none;stroke:#000000;stroke-linecap:square;stroke-linejoin:miter;stroke-width:0.8;"/>
   </g>
   <g id="patch_24">
    <path d="M 518.4 961.2 
L 518.4 817.82069 
" style="fill:none;stroke:#000000;stroke-linecap:square;stroke-linejoin:miter;stroke-width:0.8;"/>
   </g>
   <g id="patch_25">
    <path d="M 72 961.2 
L 518.4 961.2 
" style="fill:none;stroke:#000000;stroke-linecap:square;stroke-linejoin:miter;stroke-width:0.8;"/>
   </g>
   <g id="patch_26">
    <path d="M 72 817.82069 
L 518.4 817.82069 
" style="fill:none;stroke:#000000;stroke-linecap:square;stroke-linejoin:miter;stroke-width:0.8;"/>
   </g>
  </g>
 </g>
 <defs>
  <clipPath id="p8e6004fd31">
   <rect height="143.37931" width="446.4" x="72" y="129.6"/>
  </clipPath>
  <clipPath id="pd2d5df9703">
   <rect height="143.37931" width="446.4" x="72" y="301.655172"/>
  </clipPath>
  <clipPath id="p0031c1dccf">
   <rect height="143.37931" width="446.4" x="72" y="473.710345"/>
  </clipPath>
  <clipPath id="pd1a1c9d9ac">
   <rect height="143.37931" width="446.4" x="72" y="645.765517"/>
  </clipPath>
  <clipPath id="p7c1d698f7f">
   <rect height="143.37931" width="446.4" x="72" y="817.82069"/>
  </clipPath>
 </defs>
</svg>
