<?xml version="1.0" encoding="utf-8" standalone="no"?>
<!DOCTYPE svg PUBLIC "-//W3C//DTD SVG 1.1//EN"
  "http://www.w3.org/Graphics/SVG/1.1/DTD/svg11.dtd">
<!-- Created with matplotlib (https://matplotlib.org/) -->
<svg height="1080pt" version="1.1" viewBox="0 0 576 1080" width="576pt" xmlns="http://www.w3.org/2000/svg" xmlns:xlink="http://www.w3.org/1999/xlink">
 <metadata>
  <rdf:RDF xmlns:cc="http://creativecommons.org/ns#" xmlns:dc="http://purl.org/dc/elements/1.1/" xmlns:rdf="http://www.w3.org/1999/02/22-rdf-syntax-ns#">
   <cc:Work>
    <dc:type rdf:resource="http://purl.org/dc/dcmitype/StillImage"/>
    <dc:date>2022-03-28T23:50:01.281360</dc:date>
    <dc:format>image/svg+xml</dc:format>
    <dc:creator>
     <cc:Agent>
      <dc:title>Matplotlib v3.3.4, https://matplotlib.org/</dc:title>
     </cc:Agent>
    </dc:creator>
   </cc:Work>
  </rdf:RDF>
 </metadata>
 <defs>
  <style type="text/css">*{stroke-linecap:butt;stroke-linejoin:round;}</style>
 </defs>
 <g id="figure_1">
  <g id="patch_1">
   <path d="M 0 1080 
L 576 1080 
L 576 0 
L 0 0 
z
" style="fill:#ffffff;"/>
  </g>
  <g id="axes_1">
   <g id="patch_2">
    <path d="M 72 272.97931 
L 518.4 272.97931 
L 518.4 129.6 
L 72 129.6 
z
" style="fill:#ffffff;"/>
   </g>
   <g id="matplotlib.axis_1">
    <g id="xtick_1">
     <g id="line2d_1">
      <defs>
       <path d="M 0 0 
L 0 3.5 
" id="mf83e1f91e7" style="stroke:#000000;stroke-width:0.8;"/>
      </defs>
      <g>
       <use style="fill:#ffffff;stroke:#000000;stroke-width:0.8;" x="92.290909" xlink:href="#mf83e1f91e7" y="272.97931"/>
      </g>
     </g>
    </g>
    <g id="xtick_2">
     <g id="line2d_2">
      <g>
       <use style="fill:#ffffff;stroke:#000000;stroke-width:0.8;" x="173.454545" xlink:href="#mf83e1f91e7" y="272.97931"/>
      </g>
     </g>
    </g>
    <g id="xtick_3">
     <g id="line2d_3">
      <g>
       <use style="fill:#ffffff;stroke:#000000;stroke-width:0.8;" x="254.618182" xlink:href="#mf83e1f91e7" y="272.97931"/>
      </g>
     </g>
    </g>
    <g id="xtick_4">
     <g id="line2d_4">
      <g>
       <use style="fill:#ffffff;stroke:#000000;stroke-width:0.8;" x="335.781818" xlink:href="#mf83e1f91e7" y="272.97931"/>
      </g>
     </g>
    </g>
    <g id="xtick_5">
     <g id="line2d_5">
      <g>
       <use style="fill:#ffffff;stroke:#000000;stroke-width:0.8;" x="416.945455" xlink:href="#mf83e1f91e7" y="272.97931"/>
      </g>
     </g>
    </g>
    <g id="xtick_6">
     <g id="line2d_6">
      <g>
       <use style="fill:#ffffff;stroke:#000000;stroke-width:0.8;" x="498.109091" xlink:href="#mf83e1f91e7" y="272.97931"/>
      </g>
     </g>
    </g>
   </g>
   <g id="matplotlib.axis_2">
    <g id="ytick_1">
     <g id="line2d_7">
      <defs>
       <path d="M 0 0 
L -3.5 0 
" id="m8a85b8bfd5" style="stroke:#000000;stroke-width:0.8;"/>
      </defs>
      <g>
       <use style="fill:#ffffff;stroke:#000000;stroke-width:0.8;" x="72" xlink:href="#m8a85b8bfd5" y="246.09569"/>
      </g>
     </g>
     <g id="text_1">
      <!-- −5 -->
      <g transform="translate(43.67 252.242408)scale(0.18 -0.18)">
       <defs>
        <path d="M 62.09375 22 
L 6.40625 22 
L 6.40625 28.59375 
L 62.09375 28.59375 
z
" id="STIXGeneral-Regular-8722"/>
        <path d="M 43.796875 68.09375 
L 40.203125 59.59375 
Q 39.59375 58.296875 37.5 58.296875 
L 18.09375 58.296875 
L 14.09375 49.796875 
Q 25.09375 47.703125 30 45.25 
Q 34.90625 42.796875 39.09375 37 
Q 42.59375 32.203125 42.59375 24.296875 
Q 42.59375 17.09375 40.25 12.1875 
Q 37.90625 7.296875 32.796875 3.5 
Q 26 -1.40625 15.796875 -1.40625 
Q 10.09375 -1.40625 6.59375 0.296875 
Q 3.09375 2 3.09375 4.796875 
Q 3.09375 8.59375 7.59375 8.59375 
Q 11.203125 8.59375 15 5.5 
Q 18.90625 2.296875 22.09375 2.296875 
Q 27.296875 2.296875 31.4375 7.5 
Q 35.59375 12.703125 35.59375 19.203125 
Q 35.59375 28.796875 28.90625 34.203125 
Q 20.203125 41.203125 7.59375 41.203125 
Q 6.40625 41.203125 6.40625 42 
L 6.5 42.5 
L 17.40625 66.203125 
L 38.09375 66.203125 
Q 39.796875 66.203125 40.75 66.703125 
Q 41.703125 67.203125 42.90625 68.796875 
z
" id="STIXGeneral-Regular-53"/>
       </defs>
       <use xlink:href="#STIXGeneral-Regular-8722"/>
       <use x="68.499985" xlink:href="#STIXGeneral-Regular-53"/>
      </g>
     </g>
    </g>
    <g id="ytick_2">
     <g id="line2d_8">
      <g>
       <use style="fill:#ffffff;stroke:#000000;stroke-width:0.8;" x="72" xlink:href="#m8a85b8bfd5" y="201.289655"/>
      </g>
     </g>
     <g id="text_2">
      <!-- 0 -->
      <g transform="translate(56 207.436374)scale(0.18 -0.18)">
       <defs>
        <path d="M 47.59375 33 
Q 47.59375 26.296875 46.296875 20.34375 
Q 45 14.40625 42.453125 9.40625 
Q 39.90625 4.40625 35.40625 1.5 
Q 30.90625 -1.40625 25 -1.40625 
Q 18.90625 -1.40625 14.296875 1.6875 
Q 9.703125 4.796875 7.203125 10 
Q 4.703125 15.203125 3.546875 21.09375 
Q 2.40625 27 2.40625 33.59375 
Q 2.40625 42.90625 4.703125 50.34375 
Q 7 57.796875 12.34375 62.6875 
Q 17.703125 67.59375 25.40625 67.59375 
Q 35.203125 67.59375 41.390625 58 
Q 47.59375 48.40625 47.59375 33 
z
M 38 32.5 
Q 38 48.296875 34.640625 56.640625 
Q 31.296875 65 24.796875 65 
Q 18.59375 65 15.296875 56.59375 
Q 12 48.203125 12 32.90625 
Q 12 17.5 15.296875 9.34375 
Q 18.59375 1.203125 25 1.203125 
Q 31.296875 1.203125 34.640625 9.34375 
Q 38 17.5 38 32.5 
z
" id="STIXGeneral-Regular-48"/>
       </defs>
       <use xlink:href="#STIXGeneral-Regular-48"/>
      </g>
     </g>
    </g>
    <g id="ytick_3">
     <g id="line2d_9">
      <g>
       <use style="fill:#ffffff;stroke:#000000;stroke-width:0.8;" x="72" xlink:href="#m8a85b8bfd5" y="156.483621"/>
      </g>
     </g>
     <g id="text_3">
      <!-- 5 -->
      <g transform="translate(56 162.630339)scale(0.18 -0.18)">
       <use xlink:href="#STIXGeneral-Regular-53"/>
      </g>
     </g>
    </g>
    <g id="text_4">
     <!-- Cp -->
     <g transform="translate(35.763438 211.792936)rotate(-90)scale(0.18 -0.18)">
      <defs>
       <path d="M 61.40625 13.09375 
L 63.296875 11.296875 
Q 54.40625 -1.40625 36 -1.40625 
Q 21.5 -1.40625 12.40625 7.5 
Q 2.796875 16.90625 2.796875 32.5 
Q 2.796875 47.09375 11.796875 57.203125 
Q 21.203125 67.59375 36.09375 67.59375 
Q 42.5 67.59375 48 66.09375 
Q 54.296875 64.296875 54.90625 64.296875 
Q 58.203125 64.296875 59.09375 67.59375 
L 61.09375 67.59375 
L 62 44.90625 
L 59.703125 44.90625 
Q 58.09375 52.09375 54.5 56 
Q 47.40625 63.59375 38.40625 63.59375 
Q 27.296875 63.59375 20.84375 55.4375 
Q 14.40625 47.296875 14.40625 34.09375 
Q 14.40625 18 21.59375 10.203125 
Q 28.296875 3 39.40625 3 
Q 46 3 50.796875 5.296875 
Q 55.59375 7.59375 61.40625 13.09375 
z
" id="STIXGeneral-Regular-67"/>
       <path d="M 15.90625 45.796875 
L 15.90625 38.09375 
Q 22.203125 46 30.296875 46 
Q 37.59375 46 42.296875 40 
Q 47 34 47 24.703125 
Q 47 13.796875 40.953125 6.390625 
Q 34.90625 -1 26 -1 
Q 22.90625 -1 20.75 -0.09375 
Q 18.59375 0.796875 15.90625 3.296875 
L 15.90625 -12.40625 
Q 15.90625 -17.09375 17.5 -18.4375 
Q 19.09375 -19.796875 24.703125 -19.90625 
L 24.703125 -21.703125 
L 0.5 -21.703125 
L 0.5 -20 
Q 4.90625 -19.59375 6.203125 -18.296875 
Q 7.5 -17 7.5 -13.09375 
L 7.5 33.703125 
Q 7.5 37.203125 6.703125 38.296875 
Q 5.90625 39.40625 3.40625 39.40625 
Q 1.796875 39.40625 0.90625 39.296875 
L 0.90625 40.90625 
Q 7.90625 43 15.296875 46 
z
M 15.90625 33.40625 
L 15.90625 8.796875 
Q 15.90625 6.59375 19.34375 4.390625 
Q 22.796875 2.203125 26.296875 2.203125 
Q 31.703125 2.203125 35.046875 7.296875 
Q 38.40625 12.40625 38.40625 20.703125 
Q 38.40625 29.5 35.046875 34.75 
Q 31.703125 40 26.09375 40 
Q 22.59375 40 19.25 37.796875 
Q 15.90625 35.59375 15.90625 33.40625 
z
" id="STIXGeneral-Regular-112"/>
      </defs>
      <use xlink:href="#STIXGeneral-Regular-67"/>
      <use x="66.699997" xlink:href="#STIXGeneral-Regular-112"/>
     </g>
    </g>
   </g>
   <g id="line2d_10">
    <path clip-path="url(#pdbff5f86bf)" d="M 92.290909 199.526448 
L 98.775866 200.114232 
L 111.94468 200.394168 
L 118.759377 200.328494 
L 125.573909 200.261939 
L 132.388441 200.325116 
L 139.202973 200.313663 
L 146.017505 200.277944 
L 152.832037 200.244124 
L 159.646569 200.21414 
L 166.461101 200.186307 
L 173.275633 200.161834 
L 180.090165 200.134869 
L 186.904697 200.109509 
L 193.71923 200.084919 
L 200.533761 200.061334 
L 207.348293 200.038841 
L 214.162825 200.017827 
L 220.977357 199.998453 
L 227.791889 199.980548 
L 234.606421 199.964544 
L 241.420953 199.950376 
L 248.235485 199.938099 
L 255.050017 199.928215 
L 261.864549 199.920705 
L 268.679081 199.915633 
L 275.493613 199.913178 
L 282.308145 199.913268 
L 289.122676 199.916261 
L 295.937208 199.922148 
L 302.75174 199.931504 
L 309.566272 199.937006 
L 309.566272 199.950967 
L 316.380804 199.959391 
L 323.195336 199.978792 
L 330.009868 200.002064 
L 336.8244 200.028786 
L 343.638932 200.059532 
L 350.453464 200.094598 
L 357.267996 200.134045 
L 364.082528 200.178089 
L 370.89706 200.227107 
L 377.711592 200.281421 
L 384.526124 200.341344 
L 391.340656 200.406563 
L 398.155188 200.47667 
L 404.96972 200.554109 
L 411.784252 200.637564 
L 418.598784 200.720293 
L 425.413316 200.820149 
L 432.227848 200.959057 
L 439.04238 201.109301 
L 445.856912 201.266173 
L 452.671444 201.517747 
L 459.485976 201.699584 
L 466.300508 201.767787 
L 473.11504 202.032278 
L 479.913878 202.425282 
L 486.588815 202.857347 
L 491.01537 203.451161 
L 496.869259 204.211125 
L 498.109091 204.955792 
" style="fill:none;stroke:#1f77b4;stroke-linecap:square;stroke-width:5;"/>
   </g>
   <g id="line2d_11">
    <path clip-path="url(#pdbff5f86bf)" d="M 72 201.289655 
L 518.4 201.289655 
" style="fill:none;stroke:#000000;stroke-dasharray:3.2,0.8,0.5,0.8;stroke-dashoffset:0;stroke-width:0.5;"/>
   </g>
   <g id="line2d_12">
    <path clip-path="url(#pdbff5f86bf)" d="M 92.290909 197.439482 
L 98.98428 198.51738 
L 104.087122 199.062482 
L 109.289847 199.113883 
L 114.505214 199.137236 
L 119.720582 199.417363 
L 124.935949 199.513069 
L 130.151317 199.572715 
L 135.366684 199.578118 
L 140.582052 199.599634 
L 145.79742 199.655427 
L 151.012787 199.668277 
L 156.228155 199.69292 
L 161.443522 199.715198 
L 166.65889 199.737243 
L 171.874257 199.758194 
L 177.089625 199.779468 
L 182.304993 199.79713 
L 187.52036 199.813556 
L 192.735729 199.830287 
L 197.951089 199.847403 
L 203.166463 199.863882 
L 208.381831 199.881921 
L 213.597198 199.904907 
L 218.812566 199.92765 
L 224.027933 199.950376 
L 229.243301 199.973559 
L 234.458668 199.997637 
L 239.674036 200.021788 
L 244.889404 200.047211 
L 250.104771 200.074157 
L 255.320139 200.102188 
L 260.535506 200.131294 
L 265.750874 200.161896 
L 270.966241 200.194372 
L 276.181609 200.228344 
L 281.396977 200.281958 
L 281.396977 200.245531 
L 286.612344 200.301028 
L 291.827712 200.340717 
L 297.043079 200.382763 
L 302.258447 200.426921 
L 307.473814 200.473366 
L 312.689182 200.522302 
L 317.90455 200.573998 
L 323.119917 200.628462 
L 328.335285 200.685694 
L 333.550652 200.746057 
L 338.76602 200.810098 
L 343.981387 200.878131 
L 349.196755 200.949935 
L 354.412123 201.025637 
L 359.62749 201.106678 
L 364.842858 201.192943 
L 370.058225 201.283964 
L 375.273593 201.380646 
L 380.488961 201.484022 
L 385.704328 201.594319 
L 390.919696 201.711507 
L 396.135063 201.836141 
L 401.350431 201.96974 
L 406.565798 202.113404 
L 411.781166 202.26648 
L 416.996534 202.431116 
L 422.211901 202.608324 
L 427.427269 202.801384 
L 432.642636 203.001201 
L 437.858004 203.231038 
L 443.073371 203.433176 
L 448.288739 203.69418 
L 453.504107 204.037806 
L 458.719474 204.366853 
L 463.934842 204.787931 
L 469.150209 205.449394 
L 474.365577 205.855059 
L 479.580944 206.20114 
L 484.783669 207.116796 
L 489.886511 208.350217 
L 498.109091 213.734083 
L 498.109091 208.988506 
L 498.109091 213.694743 
" style="fill:none;stroke:#ff7f0e;stroke-linecap:square;stroke-width:5;"/>
   </g>
   <g id="line2d_13">
    <path clip-path="url(#pdbff5f86bf)" d="M 72 201.289655 
L 518.4 201.289655 
" style="fill:none;stroke:#000000;stroke-dasharray:3.2,0.8,0.5,0.8;stroke-dashoffset:0;stroke-width:0.5;"/>
   </g>
   <g id="line2d_14">
    <path clip-path="url(#pdbff5f86bf)" d="M 92.290909 194.068446 
L 97.038715 194.214926 
L 101.386859 195.771953 
L 101.386859 194.718528 
L 110.59196 195.953525 
L 115.209904 196.549696 
L 119.827848 196.843284 
L 124.445792 197.062672 
L 129.063735 197.189733 
L 133.681679 197.322135 
L 138.299623 197.499952 
L 142.917567 197.61341 
L 147.53551 197.734709 
L 152.153454 197.847781 
L 156.771398 197.956758 
L 161.389342 198.060914 
L 166.007285 198.160724 
L 170.625229 198.256851 
L 175.243173 198.349716 
L 179.861117 198.439642 
L 184.479061 198.527157 
L 189.096999 198.612934 
L 193.714948 198.697214 
L 198.332886 198.780069 
L 202.950836 198.861822 
L 207.568779 198.943056 
L 212.186723 199.023617 
L 216.804667 199.105486 
L 221.422611 199.186334 
L 226.040555 199.263652 
L 230.658498 199.339768 
L 235.276442 199.415876 
L 239.894386 199.490397 
L 244.51233 199.567652 
L 249.130273 199.649154 
L 253.748217 199.730002 
L 258.366161 199.810491 
L 262.984105 199.890918 
L 267.602049 199.971139 
L 272.219992 200.091148 
L 272.219992 200.011025 
L 276.837936 200.131383 
L 281.45588 200.212599 
L 286.073824 200.294782 
L 290.691767 200.377754 
L 295.309711 200.46167 
L 299.927655 200.5466 
L 304.545599 200.632698 
L 309.163542 200.720006 
L 313.781486 200.808681 
L 318.39943 200.898999 
L 323.017374 200.990985 
L 327.635318 201.084768 
L 332.253261 201.180647 
L 336.871205 201.278867 
L 341.489149 201.379415 
L 346.107093 201.482412 
L 350.725036 201.588053 
L 355.34298 201.697029 
L 359.960924 201.809828 
L 364.578868 201.926572 
L 369.196812 202.047635 
L 373.814755 202.173818 
L 378.432699 202.305946 
L 383.050643 202.444074 
L 387.668587 202.588725 
L 392.28653 202.741003 
L 396.904474 202.901221 
L 401.522418 203.07074 
L 406.140362 203.250421 
L 410.758305 203.44082 
L 415.376249 203.643612 
L 419.994193 203.860115 
L 424.612137 204.091932 
L 429.230081 204.341197 
L 433.848024 204.609746 
L 438.465968 204.89819 
L 443.083912 205.216214 
L 447.701856 205.524972 
L 452.319799 205.929562 
L 456.937743 206.284775 
L 461.555687 206.375445 
L 461.555687 207.057213 
L 466.173631 207.33053 
L 470.791575 208.014951 
L 475.409518 209.250899 
L 480.027462 209.743649 
L 484.645406 210.368254 
L 489.232004 212.232454 
L 493.577909 214.250249 
L 498.109091 218.104464 
" style="fill:none;stroke:#2ca02c;stroke-linecap:square;stroke-width:5;"/>
   </g>
   <g id="line2d_15">
    <path clip-path="url(#pdbff5f86bf)" d="M 72 201.289655 
L 518.4 201.289655 
" style="fill:none;stroke:#000000;stroke-dasharray:3.2,0.8,0.5,0.8;stroke-dashoffset:0;stroke-width:0.5;"/>
   </g>
   <g id="line2d_16">
    <path clip-path="url(#pdbff5f86bf)" d="M 92.290909 191.47803 
L 96.909131 188.702475 
L 101.065102 189.791351 
L 105.449523 190.488981 
L 105.449523 190.445878 
L 109.86337 191.009538 
L 114.277217 191.89849 
L 118.691064 192.417433 
L 123.104911 192.834255 
L 127.518758 193.13122 
L 131.932605 193.414547 
L 136.346452 193.732114 
L 140.760298 193.971226 
L 145.174145 194.217919 
L 149.587992 194.44677 
L 154.001839 194.666633 
L 158.415686 194.876227 
L 162.829533 195.077164 
L 167.24338 195.270135 
L 171.657227 195.456393 
L 176.071074 195.636514 
L 180.484921 195.812816 
L 184.898768 195.984513 
L 193.726465 196.318596 
L 198.140314 196.47755 
L 202.554155 196.633744 
L 206.968002 196.78345 
L 211.381849 196.930987 
L 215.795696 197.07545 
L 220.209543 197.218292 
L 224.62339 197.359799 
L 229.037237 197.498249 
L 233.451084 197.636323 
L 237.864931 197.7705 
L 242.278778 197.906611 
L 246.692625 198.044551 
L 251.106472 198.184032 
L 255.520319 198.321936 
L 259.934166 198.460486 
L 264.348012 198.602834 
L 268.761859 198.811648 
L 268.761859 198.673081 
L 273.175706 198.879996 
L 277.589553 199.016125 
L 282.0034 199.15169 
L 286.417247 199.286951 
L 290.831094 199.422149 
L 295.244941 199.557597 
L 299.658788 199.693575 
L 304.072635 199.830466 
L 308.486482 199.966569 
L 312.900329 200.108228 
L 317.314176 200.249492 
L 321.728023 200.385756 
L 326.141869 200.514986 
L 330.555716 200.654261 
L 334.969563 200.81137 
L 339.38341 200.972689 
L 343.797257 201.131054 
L 348.211104 201.283738 
L 352.624951 201.429794 
L 357.038798 201.586453 
L 361.452645 201.764631 
L 365.866492 201.943851 
L 370.280339 202.123893 
L 374.694186 202.305865 
L 379.108033 202.490457 
L 383.52188 202.680282 
L 387.935726 202.876864 
L 392.349573 203.080956 
L 396.76342 203.293058 
L 401.177267 203.513943 
L 405.591114 203.745017 
L 410.004961 203.987462 
L 414.418808 204.242032 
L 418.832655 204.509981 
L 423.246502 204.792923 
L 427.660349 205.092675 
L 432.074196 205.410986 
L 436.488043 205.749899 
L 440.90189 206.112666 
L 445.315737 206.49988 
L 449.729583 206.699348 
L 449.729583 207.150195 
L 454.14343 207.334625 
L 458.557277 207.868131 
L 462.971124 208.35571 
L 467.384971 208.923779 
L 471.798818 209.710681 
L 476.212665 210.589685 
L 480.626512 212.168292 
L 485.040359 213.044877 
L 489.42478 214.222917 
L 493.580751 216.908143 
L 498.109091 220.974111 
" style="fill:none;stroke:#d62728;stroke-linecap:square;stroke-width:5;"/>
   </g>
   <g id="line2d_17">
    <path clip-path="url(#pdbff5f86bf)" d="M 72 201.289655 
L 518.4 201.289655 
" style="fill:none;stroke:#000000;stroke-dasharray:3.2,0.8,0.5,0.8;stroke-dashoffset:0;stroke-width:0.5;"/>
   </g>
   <g id="line2d_18">
    <path clip-path="url(#pdbff5f86bf)" d="M 92.290909 191.024413 
L 96.010141 183.290265 
L 100.206364 183.509456 
L 104.633249 184.300461 
L 104.633249 184.202515 
L 109.089846 184.929449 
L 113.546442 185.980688 
L 118.003038 186.689878 
L 122.459634 187.282393 
L 126.91623 187.73108 
L 131.372826 188.180306 
L 135.829422 188.666182 
L 140.286018 189.04793 
L 144.742614 189.430663 
L 149.199211 189.78947 
L 153.655807 190.134297 
L 158.112403 190.464517 
L 162.568999 190.782102 
L 167.025595 191.087948 
L 171.482191 191.383489 
L 175.938787 191.669352 
L 180.395383 191.94688 
L 184.851979 192.216612 
L 193.765179 192.735959 
L 198.221762 192.986756 
L 202.678364 193.232329 
L 207.13496 193.473296 
L 211.591556 193.709971 
L 216.048152 193.942917 
L 220.504748 194.172324 
L 224.961344 194.397976 
L 229.41794 194.620474 
L 233.874537 194.840615 
L 238.331133 195.058668 
L 242.787729 195.274875 
L 247.244325 195.489209 
L 251.700921 195.701868 
L 256.157517 195.912824 
L 260.614113 196.122372 
L 265.070709 196.330801 
L 269.527305 196.43502 
L 269.527305 196.641638 
L 273.983902 196.745033 
L 278.440498 196.951374 
L 282.897094 197.157553 
L 287.35369 197.363455 
L 291.810286 197.569401 
L 296.266882 197.775625 
L 300.723478 197.982226 
L 305.180074 198.189409 
L 309.63667 198.397282 
L 314.093267 198.606222 
L 318.549863 198.816353 
L 323.006459 199.027676 
L 327.463055 199.24063 
L 331.919651 199.455457 
L 336.376247 199.672166 
L 340.832843 199.891017 
L 345.289439 200.112305 
L 349.746035 200.33647 
L 354.202632 200.563784 
L 358.659228 200.794312 
L 363.115824 201.028655 
L 367.57242 201.267346 
L 372.029016 201.51065 
L 376.485612 201.759014 
L 380.942208 202.01293 
L 385.398804 202.273255 
L 389.8554 202.540416 
L 394.311996 202.814906 
L 398.768593 203.09757 
L 403.225189 203.38914 
L 407.681785 203.690452 
L 412.138381 204.002445 
L 416.594977 204.326805 
L 421.051573 204.665297 
L 425.508169 205.01887 
L 429.964765 205.38938 
L 434.421361 205.778557 
L 438.877958 206.190476 
L 443.334554 206.62298 
L 447.79115 207.093578 
L 452.247746 207.344133 
L 452.247746 207.745138 
L 456.704342 208.107494 
L 461.160938 208.614259 
L 465.617534 209.215126 
L 470.07413 210.035802 
L 474.530726 210.940696 
L 478.987323 212.5659 
L 483.443919 213.33746 
L 487.870804 214.290036 
L 492.067027 217.007164 
L 498.109091 221.289814 
" style="fill:none;stroke:#9467bd;stroke-linecap:square;stroke-width:5;"/>
   </g>
   <g id="line2d_19">
    <path clip-path="url(#pdbff5f86bf)" d="M 72 201.289655 
L 518.4 201.289655 
" style="fill:none;stroke:#000000;stroke-dasharray:3.2,0.8,0.5,0.8;stroke-dashoffset:0;stroke-width:0.5;"/>
   </g>
   <g id="patch_3">
    <path d="M 72 272.97931 
L 72 129.6 
" style="fill:none;stroke:#000000;stroke-linecap:square;stroke-linejoin:miter;stroke-width:0.8;"/>
   </g>
   <g id="patch_4">
    <path d="M 518.4 272.97931 
L 518.4 129.6 
" style="fill:none;stroke:#000000;stroke-linecap:square;stroke-linejoin:miter;stroke-width:0.8;"/>
   </g>
   <g id="patch_5">
    <path d="M 72 272.97931 
L 518.4 272.97931 
" style="fill:none;stroke:#000000;stroke-linecap:square;stroke-linejoin:miter;stroke-width:0.8;"/>
   </g>
   <g id="patch_6">
    <path d="M 72 129.6 
L 518.4 129.6 
" style="fill:none;stroke:#000000;stroke-linecap:square;stroke-linejoin:miter;stroke-width:0.8;"/>
   </g>
   <g id="legend_1">
    <g id="line2d_20">
     <path d="M 112.49811 148.3425 
L 142.48611 148.3425 
" style="fill:none;stroke:#1f77b4;stroke-linecap:square;stroke-width:5;"/>
    </g>
    <g id="line2d_21"/>
    <g id="text_5">
     <!-- r/c = 0.52 -->
     <g transform="translate(154.48131 153.5904)scale(0.14994 -0.14994)">
      <defs>
       <path d="M 16 45.796875 
L 16 36.59375 
Q 19.796875 42 22.34375 44 
Q 24.90625 46 28 46 
Q 30.59375 46 32.046875 44.59375 
Q 33.5 43.203125 33.5 40.703125 
Q 33.5 38.59375 32.453125 37.390625 
Q 31.40625 36.203125 29.59375 36.203125 
Q 27.703125 36.203125 25.59375 38.203125 
Q 24 39.703125 23 39.703125 
Q 20.90625 39.703125 18.453125 36.796875 
Q 16 33.90625 16 31.5 
L 16 9 
Q 16 4.703125 17.703125 3.203125 
Q 19.40625 1.703125 24.5 1.5 
L 24.5 0 
L 0.5 0 
L 0.5 1.5 
Q 5.296875 2.40625 6.4375 3.5 
Q 7.59375 4.59375 7.59375 8.40625 
L 7.59375 33.40625 
Q 7.59375 36.703125 6.84375 38.046875 
Q 6.09375 39.40625 4.203125 39.40625 
Q 2.59375 39.40625 0.703125 39 
L 0.703125 40.59375 
Q 7 42.59375 15.5 46 
z
" id="STIXGeneral-Regular-114"/>
       <path d="M 28.703125 67.59375 
L 5.90625 -1.40625 
L -0.90625 -1.40625 
L 22 67.59375 
z
" id="STIXGeneral-Regular-47"/>
       <path d="M 39.796875 15.59375 
L 41.203125 14.703125 
Q 36.90625 6.296875 33 3.203125 
Q 27.90625 -1 21.5 -1 
Q 13.203125 -1 7.84375 5.25 
Q 2.5 11.5 2.5 21.203125 
Q 2.5 33.90625 10.90625 40.90625 
Q 17.09375 46 24.40625 46 
Q 30.703125 46 35.25 42.953125 
Q 39.796875 39.90625 39.796875 35.703125 
Q 39.796875 34 38.390625 32.75 
Q 37 31.5 35.09375 31.5 
Q 31.59375 31.5 30.296875 36.09375 
L 29.703125 38.296875 
Q 28.90625 41.09375 27.703125 42.09375 
Q 26.5 43.09375 23.796875 43.09375 
Q 17.703125 43.09375 13.953125 38.296875 
Q 10.203125 33.5 10.203125 25.703125 
Q 10.203125 17.09375 14.5 11.640625 
Q 18.796875 6.203125 25.703125 6.203125 
Q 30 6.203125 33.09375 8.25 
Q 36.203125 10.296875 39.796875 15.59375 
z
" id="STIXGeneral-Regular-99"/>
       <path id="STIXGeneral-Regular-32"/>
       <path d="M 63.703125 32 
L 4.796875 32 
L 4.796875 38.59375 
L 63.703125 38.59375 
z
M 63.703125 12 
L 4.796875 12 
L 4.796875 18.59375 
L 63.703125 18.59375 
z
" id="STIXGeneral-Regular-61"/>
       <path d="M 18.09375 4.296875 
Q 18.09375 2.09375 16.4375 0.5 
Q 14.796875 -1.09375 12.5 -1.09375 
Q 10.203125 -1.09375 8.59375 0.5 
Q 7 2.09375 7 4.390625 
Q 7 6.703125 8.640625 8.34375 
Q 10.296875 10 12.59375 10 
Q 14.796875 10 16.4375 8.296875 
Q 18.09375 6.59375 18.09375 4.296875 
z
" id="STIXGeneral-Regular-46"/>
       <path d="M 47.40625 13.703125 
L 42 0 
L 2.90625 0 
L 2.90625 1.203125 
L 20.703125 20.09375 
Q 27.703125 27.40625 30.703125 33.5 
Q 33.703125 39.59375 33.703125 46.09375 
Q 33.703125 52.796875 30 56.5 
Q 26.296875 60.203125 19.796875 60.203125 
Q 14.40625 60.203125 11.25 57.390625 
Q 8.09375 54.59375 5.09375 47.203125 
L 3 47.703125 
Q 4.703125 57 9.84375 62.296875 
Q 15 67.59375 23.796875 67.59375 
Q 32.09375 67.59375 37.1875 62.59375 
Q 42.296875 57.59375 42.296875 50 
Q 42.296875 38.703125 29.5 25.203125 
L 13 7.59375 
L 36.40625 7.59375 
Q 39.703125 7.59375 41.640625 8.890625 
Q 43.59375 10.203125 46 14.296875 
z
" id="STIXGeneral-Regular-50"/>
      </defs>
      <use xlink:href="#STIXGeneral-Regular-114"/>
      <use x="33.299988" xlink:href="#STIXGeneral-Regular-47"/>
      <use x="61.099976" xlink:href="#STIXGeneral-Regular-99"/>
      <use x="105.499969" xlink:href="#STIXGeneral-Regular-32"/>
      <use x="130.499954" xlink:href="#STIXGeneral-Regular-61"/>
      <use x="198.999939" xlink:href="#STIXGeneral-Regular-32"/>
      <use x="223.999924" xlink:href="#STIXGeneral-Regular-48"/>
      <use x="273.999908" xlink:href="#STIXGeneral-Regular-46"/>
      <use x="298.999893" xlink:href="#STIXGeneral-Regular-53"/>
      <use x="348.999878" xlink:href="#STIXGeneral-Regular-50"/>
     </g>
    </g>
    <g id="line2d_22">
     <path d="M 112.49811 169.589467 
L 142.48611 169.589467 
" style="fill:none;stroke:#ff7f0e;stroke-linecap:square;stroke-width:5;"/>
    </g>
    <g id="line2d_23"/>
    <g id="text_6">
     <!-- r/c = 1.04 -->
     <g transform="translate(154.48131 174.837367)scale(0.14994 -0.14994)">
      <defs>
       <path d="M 39.40625 0 
L 11.796875 0 
L 11.796875 1.5 
Q 17.296875 1.796875 19.296875 3.546875 
Q 21.296875 5.296875 21.296875 9.5 
L 21.296875 54.40625 
Q 21.296875 59.296875 18.296875 59.296875 
Q 16.90625 59.296875 13.796875 58.09375 
L 11.09375 57.09375 
L 11.09375 58.5 
L 29 67.59375 
L 29.90625 67.296875 
L 29.90625 7.59375 
Q 29.90625 4.296875 31.90625 2.890625 
Q 33.90625 1.5 39.40625 1.5 
z
" id="STIXGeneral-Regular-49"/>
       <path d="M 47.296875 16.703125 
L 37 16.703125 
L 37 0 
L 29.203125 0 
L 29.203125 16.703125 
L 1.203125 16.703125 
L 1.203125 23.09375 
L 32.59375 67.59375 
L 37 67.59375 
L 37 23.09375 
L 47.296875 23.09375 
z
M 29.203125 23.09375 
L 29.203125 57.40625 
L 5.203125 23.09375 
z
" id="STIXGeneral-Regular-52"/>
      </defs>
      <use xlink:href="#STIXGeneral-Regular-114"/>
      <use x="33.299988" xlink:href="#STIXGeneral-Regular-47"/>
      <use x="61.099976" xlink:href="#STIXGeneral-Regular-99"/>
      <use x="105.499969" xlink:href="#STIXGeneral-Regular-32"/>
      <use x="130.499954" xlink:href="#STIXGeneral-Regular-61"/>
      <use x="198.999939" xlink:href="#STIXGeneral-Regular-32"/>
      <use x="223.999924" xlink:href="#STIXGeneral-Regular-49"/>
      <use x="273.999908" xlink:href="#STIXGeneral-Regular-46"/>
      <use x="298.999893" xlink:href="#STIXGeneral-Regular-48"/>
      <use x="348.999878" xlink:href="#STIXGeneral-Regular-52"/>
     </g>
    </g>
    <g id="line2d_24">
     <path d="M 244.29537 148.3425 
L 274.28337 148.3425 
" style="fill:none;stroke:#2ca02c;stroke-linecap:square;stroke-width:5;"/>
    </g>
    <g id="line2d_25"/>
    <g id="text_7">
     <!-- r/c = 1.56 -->
     <g transform="translate(286.27857 153.5904)scale(0.14994 -0.14994)">
      <defs>
       <path d="M 44.59375 68.40625 
L 44.796875 66.796875 
Q 33 64.90625 25.09375 57.25 
Q 17.203125 49.59375 15.203125 38.296875 
Q 21 42.796875 27.90625 42.796875 
Q 36.703125 42.796875 41.75 37.1875 
Q 46.796875 31.59375 46.796875 21.90625 
Q 46.796875 12.09375 41.703125 5.90625 
Q 35.796875 -1.40625 25.796875 -1.40625 
Q 13.59375 -1.40625 8.09375 8.703125 
Q 3.40625 17.296875 3.40625 27.90625 
Q 3.40625 44.296875 14.296875 55.5 
Q 20.5 61.90625 27.046875 64.546875 
Q 33.59375 67.203125 44.59375 68.40625 
z
M 37.796875 18.796875 
Q 37.796875 38.203125 24.296875 38.203125 
Q 19.296875 38.203125 16 35.546875 
Q 12.703125 32.90625 12.703125 26.59375 
Q 12.703125 14.90625 16.34375 8.15625 
Q 20 1.40625 26.90625 1.40625 
Q 32.203125 1.40625 35 6.15625 
Q 37.796875 10.90625 37.796875 18.796875 
z
" id="STIXGeneral-Regular-54"/>
      </defs>
      <use xlink:href="#STIXGeneral-Regular-114"/>
      <use x="33.299988" xlink:href="#STIXGeneral-Regular-47"/>
      <use x="61.099976" xlink:href="#STIXGeneral-Regular-99"/>
      <use x="105.499969" xlink:href="#STIXGeneral-Regular-32"/>
      <use x="130.499954" xlink:href="#STIXGeneral-Regular-61"/>
      <use x="198.999939" xlink:href="#STIXGeneral-Regular-32"/>
      <use x="223.999924" xlink:href="#STIXGeneral-Regular-49"/>
      <use x="273.999908" xlink:href="#STIXGeneral-Regular-46"/>
      <use x="298.999893" xlink:href="#STIXGeneral-Regular-53"/>
      <use x="348.999878" xlink:href="#STIXGeneral-Regular-54"/>
     </g>
    </g>
    <g id="line2d_26">
     <path d="M 244.29537 169.589467 
L 274.28337 169.589467 
" style="fill:none;stroke:#d62728;stroke-linecap:square;stroke-width:5;"/>
    </g>
    <g id="line2d_27"/>
    <g id="text_8">
     <!-- r/c = 2.08 -->
     <g transform="translate(286.27857 174.837367)scale(0.14994 -0.14994)">
      <defs>
       <path d="M 44.5 15.5 
Q 44.5 7.796875 39.140625 3.1875 
Q 33.796875 -1.40625 24.796875 -1.40625 
Q 16.40625 -1.40625 11 3.1875 
Q 5.59375 7.796875 5.59375 14.90625 
Q 5.59375 20.203125 8.1875 23.953125 
Q 10.796875 27.703125 18.59375 33.203125 
Q 11.09375 39.40625 8.640625 43.203125 
Q 6.203125 47 6.203125 52 
Q 6.203125 59.09375 11.640625 63.34375 
Q 17.09375 67.59375 25.59375 67.59375 
Q 32.90625 67.59375 37.65625 63.4375 
Q 42.40625 59.296875 42.40625 53.296875 
Q 42.40625 47.796875 39.546875 44.5 
Q 36.703125 41.203125 29 37.09375 
Q 38 31.09375 41.25 26.390625 
Q 44.5 21.703125 44.5 15.5 
z
M 35.5 53.296875 
Q 35.5 58.5 32.59375 61.640625 
Q 29.703125 64.796875 24.59375 64.796875 
Q 19.5 64.796875 16.546875 62.140625 
Q 13.59375 59.5 13.59375 54.890625 
Q 13.59375 50.296875 16.546875 46.546875 
Q 19.5 42.796875 26.09375 38.90625 
Q 31.203125 41.90625 33.34375 45.25 
Q 35.5 48.59375 35.5 53.296875 
z
M 27.09375 27.203125 
L 21.203125 31.203125 
Q 16.796875 27.59375 15 24.140625 
Q 13.203125 20.703125 13.203125 15.796875 
Q 13.203125 9 16.640625 5.203125 
Q 20.09375 1.40625 25.90625 1.40625 
Q 30.796875 1.40625 33.84375 4.453125 
Q 36.90625 7.5 36.90625 12.40625 
Q 36.90625 16.90625 34.59375 20.296875 
Q 32.296875 23.703125 27.09375 27.203125 
z
" id="STIXGeneral-Regular-56"/>
      </defs>
      <use xlink:href="#STIXGeneral-Regular-114"/>
      <use x="33.299988" xlink:href="#STIXGeneral-Regular-47"/>
      <use x="61.099976" xlink:href="#STIXGeneral-Regular-99"/>
      <use x="105.499969" xlink:href="#STIXGeneral-Regular-32"/>
      <use x="130.499954" xlink:href="#STIXGeneral-Regular-61"/>
      <use x="198.999939" xlink:href="#STIXGeneral-Regular-32"/>
      <use x="223.999924" xlink:href="#STIXGeneral-Regular-50"/>
      <use x="273.999908" xlink:href="#STIXGeneral-Regular-46"/>
      <use x="298.999893" xlink:href="#STIXGeneral-Regular-48"/>
      <use x="348.999878" xlink:href="#STIXGeneral-Regular-56"/>
     </g>
    </g>
    <g id="line2d_28">
     <path d="M 376.09263 148.3425 
L 406.08063 148.3425 
" style="fill:none;stroke:#9467bd;stroke-linecap:square;stroke-width:5;"/>
    </g>
    <g id="line2d_29"/>
    <g id="text_9">
     <!-- r/c = 2.60 -->
     <g transform="translate(418.07583 153.5904)scale(0.14994 -0.14994)">
      <use xlink:href="#STIXGeneral-Regular-114"/>
      <use x="33.299988" xlink:href="#STIXGeneral-Regular-47"/>
      <use x="61.099976" xlink:href="#STIXGeneral-Regular-99"/>
      <use x="105.499969" xlink:href="#STIXGeneral-Regular-32"/>
      <use x="130.499954" xlink:href="#STIXGeneral-Regular-61"/>
      <use x="198.999939" xlink:href="#STIXGeneral-Regular-32"/>
      <use x="223.999924" xlink:href="#STIXGeneral-Regular-50"/>
      <use x="273.999908" xlink:href="#STIXGeneral-Regular-46"/>
      <use x="298.999893" xlink:href="#STIXGeneral-Regular-54"/>
      <use x="348.999878" xlink:href="#STIXGeneral-Regular-48"/>
     </g>
    </g>
   </g>
  </g>
  <g id="axes_2">
   <g id="patch_7">
    <path d="M 72 445.034483 
L 518.4 445.034483 
L 518.4 301.655172 
L 72 301.655172 
z
" style="fill:#ffffff;"/>
   </g>
   <g id="matplotlib.axis_3">
    <g id="xtick_7">
     <g id="line2d_30">
      <g>
       <use style="fill:#ffffff;stroke:#000000;stroke-width:0.8;" x="92.290909" xlink:href="#mf83e1f91e7" y="445.034483"/>
      </g>
     </g>
    </g>
    <g id="xtick_8">
     <g id="line2d_31">
      <g>
       <use style="fill:#ffffff;stroke:#000000;stroke-width:0.8;" x="173.454545" xlink:href="#mf83e1f91e7" y="445.034483"/>
      </g>
     </g>
    </g>
    <g id="xtick_9">
     <g id="line2d_32">
      <g>
       <use style="fill:#ffffff;stroke:#000000;stroke-width:0.8;" x="254.618182" xlink:href="#mf83e1f91e7" y="445.034483"/>
      </g>
     </g>
    </g>
    <g id="xtick_10">
     <g id="line2d_33">
      <g>
       <use style="fill:#ffffff;stroke:#000000;stroke-width:0.8;" x="335.781818" xlink:href="#mf83e1f91e7" y="445.034483"/>
      </g>
     </g>
    </g>
    <g id="xtick_11">
     <g id="line2d_34">
      <g>
       <use style="fill:#ffffff;stroke:#000000;stroke-width:0.8;" x="416.945455" xlink:href="#mf83e1f91e7" y="445.034483"/>
      </g>
     </g>
    </g>
    <g id="xtick_12">
     <g id="line2d_35">
      <g>
       <use style="fill:#ffffff;stroke:#000000;stroke-width:0.8;" x="498.109091" xlink:href="#mf83e1f91e7" y="445.034483"/>
      </g>
     </g>
    </g>
   </g>
   <g id="matplotlib.axis_4">
    <g id="ytick_4">
     <g id="line2d_36">
      <g>
       <use style="fill:#ffffff;stroke:#000000;stroke-width:0.8;" x="72" xlink:href="#m8a85b8bfd5" y="418.150862"/>
      </g>
     </g>
     <g id="text_10">
      <!-- −5 -->
      <g transform="translate(43.67 424.297581)scale(0.18 -0.18)">
       <use xlink:href="#STIXGeneral-Regular-8722"/>
       <use x="68.499985" xlink:href="#STIXGeneral-Regular-53"/>
      </g>
     </g>
    </g>
    <g id="ytick_5">
     <g id="line2d_37">
      <g>
       <use style="fill:#ffffff;stroke:#000000;stroke-width:0.8;" x="72" xlink:href="#m8a85b8bfd5" y="373.344828"/>
      </g>
     </g>
     <g id="text_11">
      <!-- 0 -->
      <g transform="translate(56 379.491546)scale(0.18 -0.18)">
       <use xlink:href="#STIXGeneral-Regular-48"/>
      </g>
     </g>
    </g>
    <g id="ytick_6">
     <g id="line2d_38">
      <g>
       <use style="fill:#ffffff;stroke:#000000;stroke-width:0.8;" x="72" xlink:href="#m8a85b8bfd5" y="328.538793"/>
      </g>
     </g>
     <g id="text_12">
      <!-- 5 -->
      <g transform="translate(56 334.685512)scale(0.18 -0.18)">
       <use xlink:href="#STIXGeneral-Regular-53"/>
      </g>
     </g>
    </g>
    <g id="text_13">
     <!-- Cp -->
     <g transform="translate(35.763438 383.848109)rotate(-90)scale(0.18 -0.18)">
      <use xlink:href="#STIXGeneral-Regular-67"/>
      <use x="66.699997" xlink:href="#STIXGeneral-Regular-112"/>
     </g>
    </g>
   </g>
   <g id="line2d_39">
    <path clip-path="url(#p551247945c)" d="M 92.290909 371.652719 
L 98.775866 370.872422 
L 111.94468 371.227751 
L 118.759377 371.295794 
L 125.573909 371.349274 
L 132.388441 371.472652 
L 139.202973 371.543329 
L 146.017505 371.589551 
L 152.832037 371.629276 
L 159.646569 371.663607 
L 166.461101 371.699586 
L 173.275633 371.735807 
L 180.090165 371.766795 
L 186.904697 371.798338 
L 193.719229 371.829075 
L 200.533761 371.859651 
L 207.348293 371.890137 
L 214.162825 371.920802 
L 220.977357 371.951674 
L 227.791889 371.982859 
L 234.606421 372.014501 
L 241.420953 372.046752 
L 248.235485 372.07972 
L 255.050017 372.113522 
L 261.864549 372.148256 
L 268.679081 372.184073 
L 275.493613 372.221056 
L 282.308145 372.259294 
L 289.122676 372.298911 
L 295.937208 372.340043 
L 302.75174 372.382797 
L 309.566272 372.404582 
L 309.566272 372.450032 
L 316.380804 372.473693 
L 323.195336 372.522154 
L 330.009868 372.572821 
L 336.8244 372.625854 
L 343.638932 372.681454 
L 350.453464 372.739901 
L 357.267996 372.801401 
L 364.082528 372.866256 
L 370.89706 372.934775 
L 377.711592 373.007401 
L 384.526124 373.084496 
L 391.340656 373.166288 
L 398.155188 373.252035 
L 404.96972 373.348684 
L 411.784252 373.44727 
L 418.598784 373.550986 
L 425.413316 373.662162 
L 432.227848 373.797157 
L 439.04238 373.953 
L 445.856912 374.114201 
L 452.671444 374.373986 
L 459.485976 374.573875 
L 466.300508 374.653522 
L 473.11504 374.935039 
L 479.913878 375.361879 
L 486.588815 375.842764 
L 491.01537 376.491717 
L 496.869259 377.32337 
L 498.109091 378.122558 
" style="fill:none;stroke:#1f77b4;stroke-linecap:square;stroke-width:5;"/>
   </g>
   <g id="line2d_40">
    <path clip-path="url(#p551247945c)" d="M 72 373.344828 
L 518.4 373.344828 
" style="fill:none;stroke:#000000;stroke-dasharray:3.2,0.8,0.5,0.8;stroke-dashoffset:0;stroke-width:0.5;"/>
   </g>
   <g id="line2d_41">
    <path clip-path="url(#p551247945c)" d="M 92.290909 368.898053 
L 98.98428 367.792141 
L 104.087122 368.107567 
L 109.289847 368.246439 
L 114.505214 368.373249 
L 119.720582 368.635238 
L 124.935949 368.807025 
L 130.151317 368.948406 
L 135.366684 369.045707 
L 140.582052 369.143859 
L 145.79742 369.260399 
L 151.012787 369.347493 
L 156.228155 369.43741 
L 161.443522 369.522989 
L 166.65889 369.607099 
L 171.874257 369.688969 
L 177.089625 369.770086 
L 182.304993 369.848433 
L 187.52036 369.924962 
L 192.735732 370.001894 
L 197.951095 370.078378 
L 203.166463 370.154154 
L 208.381831 370.230244 
L 213.597198 370.306996 
L 218.812566 370.383122 
L 224.027933 370.45922 
L 229.243301 370.535453 
L 234.458668 370.612045 
L 239.674036 370.689201 
L 244.889404 370.767092 
L 250.104771 370.845896 
L 255.320139 370.925633 
L 260.535506 371.006383 
L 265.750874 371.08827 
L 270.966241 371.17143 
L 276.181609 371.255988 
L 281.396977 371.385307 
L 281.396977 371.298769 
L 286.612344 371.429737 
L 291.827712 371.519179 
L 297.043079 371.610485 
L 302.258447 371.703708 
L 307.473814 371.798921 
L 312.689182 371.89624 
L 317.90455 371.995745 
L 323.119917 372.097517 
L 328.335285 372.201682 
L 333.550652 372.308419 
L 338.76602 372.417952 
L 343.981387 372.530465 
L 349.196755 372.646162 
L 354.412123 372.765243 
L 359.62749 372.887955 
L 364.842858 373.014494 
L 370.058225 373.145094 
L 375.273593 373.279985 
L 380.488961 373.419447 
L 385.704328 373.563769 
L 390.919696 373.713246 
L 396.135063 373.868247 
L 401.350431 374.029162 
L 406.565798 374.196465 
L 411.781166 374.370635 
L 416.996534 374.552467 
L 422.211901 374.741898 
L 427.427269 374.941446 
L 432.642636 375.143082 
L 437.858004 375.366332 
L 443.073371 375.577987 
L 448.288739 375.824949 
L 453.504107 376.111726 
L 458.719474 376.378958 
L 463.934842 376.718695 
L 469.150209 377.273277 
L 474.365577 377.587663 
L 479.580944 377.731285 
L 484.783669 378.286458 
L 489.886511 379.07396 
L 498.109091 382.299152 
L 498.109091 379.455242 
L 498.109091 382.275387 
" style="fill:none;stroke:#ff7f0e;stroke-linecap:square;stroke-width:5;"/>
   </g>
   <g id="line2d_42">
    <path clip-path="url(#p551247945c)" d="M 72 373.344828 
L 518.4 373.344828 
" style="fill:none;stroke:#000000;stroke-dasharray:3.2,0.8,0.5,0.8;stroke-dashoffset:0;stroke-width:0.5;"/>
   </g>
   <g id="line2d_43">
    <path clip-path="url(#p551247945c)" d="M 92.290909 371.639008 
L 97.038715 364.376452 
L 101.386859 364.182173 
L 101.386859 363.870412 
L 110.59196 364.338815 
L 115.209904 364.706825 
L 119.827848 364.981548 
L 124.445792 365.219585 
L 129.063735 365.403343 
L 133.681679 365.587792 
L 138.299623 365.794823 
L 142.917567 365.963374 
L 147.53551 366.133592 
L 152.153454 366.296319 
L 156.771398 366.455434 
L 161.389342 366.611063 
L 166.007285 366.763377 
L 170.625229 366.912832 
L 175.243173 367.059464 
L 179.861117 367.203533 
L 184.479061 367.345389 
L 189.096993 367.485462 
L 193.714952 367.623715 
L 198.332898 367.760544 
L 202.950836 367.896002 
L 207.568779 368.030796 
L 212.186723 368.164757 
L 216.804667 368.300188 
L 221.422611 368.434722 
L 226.040555 368.565332 
L 230.658498 368.695494 
L 235.276442 368.825861 
L 239.894386 368.95518 
L 244.51233 369.08579 
L 249.130273 369.218048 
L 253.748217 369.349742 
L 258.366161 369.481158 
L 262.984105 369.612512 
L 267.602049 369.744188 
L 272.219992 369.942311 
L 272.219992 369.810456 
L 276.837936 370.009117 
L 281.45588 370.142576 
L 286.073824 370.276923 
L 290.691767 370.412147 
L 295.309711 370.548205 
L 299.927655 370.685231 
L 304.545599 370.823386 
L 309.163542 370.962688 
L 313.781486 371.103101 
L 318.39943 371.244742 
L 323.017374 371.387763 
L 327.635318 371.532155 
L 332.253261 371.677945 
L 336.871205 371.825186 
L 341.489149 371.973888 
L 346.107093 372.124096 
L 350.725036 372.275854 
L 355.34298 372.429369 
L 359.960924 372.584818 
L 364.578868 372.742327 
L 369.196812 372.90208 
L 373.814755 373.064295 
L 378.432699 373.229128 
L 383.050643 373.396711 
L 387.668587 373.567221 
L 392.28653 373.740894 
L 396.904474 373.917925 
L 401.522418 374.098491 
L 406.140362 374.28286 
L 410.758305 374.471341 
L 415.376249 374.664231 
L 419.994193 374.861942 
L 424.612137 375.064869 
L 429.230081 375.273683 
L 433.848024 375.48902 
L 438.465968 375.710022 
L 443.083912 375.942565 
L 447.701856 376.157553 
L 452.319799 376.452709 
L 456.937743 376.674669 
L 461.555687 376.695315 
L 461.555687 377.119387 
L 466.173631 377.258348 
L 470.791575 377.626456 
L 475.409518 378.350423 
L 480.027462 378.466238 
L 484.645406 378.522004 
L 489.232004 379.327822 
L 493.577909 380.134555 
L 498.109091 381.825768 
" style="fill:none;stroke:#2ca02c;stroke-linecap:square;stroke-width:5;"/>
   </g>
   <g id="line2d_44">
    <path clip-path="url(#p551247945c)" d="M 72 373.344828 
L 518.4 373.344828 
" style="fill:none;stroke:#000000;stroke-dasharray:3.2,0.8,0.5,0.8;stroke-dashoffset:0;stroke-width:0.5;"/>
   </g>
   <g id="line2d_45">
    <path clip-path="url(#p551247945c)" d="M 92.290909 374.402151 
L 96.909131 361.396671 
L 101.065102 360.08717 
L 105.449523 359.94863 
L 105.449523 359.624772 
L 109.86337 359.788762 
L 114.277217 360.122746 
L 118.691064 360.428592 
L 123.104911 360.725656 
L 127.518758 360.976032 
L 131.932605 361.23761 
L 136.346452 361.528939 
L 140.760298 361.778598 
L 145.174145 362.030945 
L 149.587992 362.275407 
L 154.001839 362.516374 
L 158.415686 362.752502 
L 162.829533 362.984687 
L 167.24338 363.212481 
L 171.657227 363.4366 
L 176.071074 363.656688 
L 180.484921 363.873907 
L 184.898768 364.087274 
L 193.72647 364.50578 
L 198.140314 364.708653 
L 202.554155 364.912278 
L 206.968002 365.110285 
L 211.381849 365.307207 
L 215.795696 365.500958 
L 220.209543 365.69288 
L 224.62339 365.883628 
L 229.037237 366.071607 
L 233.451084 366.259381 
L 237.864931 366.443713 
L 242.278778 366.629568 
L 246.692625 366.815791 
L 251.106472 367.004129 
L 255.520319 367.19062 
L 259.934166 367.376028 
L 264.348012 367.561363 
L 268.761859 367.835254 
L 268.761859 367.653816 
L 273.175706 367.926129 
L 277.589553 368.106671 
L 282.0034 368.286594 
L 286.417247 368.466078 
L 290.831094 368.645194 
L 295.244941 368.824302 
L 299.658788 369.003661 
L 304.072635 369.184489 
L 308.486482 369.366114 
L 312.900329 369.556477 
L 317.314176 369.743677 
L 321.728023 369.919505 
L 326.141869 370.091363 
L 330.555716 370.270793 
L 334.969563 370.461425 
L 339.38341 370.659306 
L 343.797257 370.851757 
L 348.211104 371.031331 
L 352.624951 371.206397 
L 357.038798 371.38813 
L 361.452645 371.581737 
L 365.866492 371.774242 
L 370.280339 371.965752 
L 374.694186 372.157082 
L 379.108033 372.349229 
L 383.52188 372.543071 
L 387.935726 372.739054 
L 392.349573 372.937545 
L 396.76342 373.138794 
L 401.177267 373.343062 
L 405.591114 373.550554 
L 410.004961 373.761444 
L 414.418808 373.976084 
L 418.832655 374.194813 
L 423.246502 374.418022 
L 427.660349 374.646201 
L 432.074196 374.879873 
L 436.488043 375.119971 
L 440.90189 375.367094 
L 445.315737 375.620078 
L 449.729583 375.747435 
L 449.729583 376.025358 
L 454.14343 376.128707 
L 458.557277 376.458605 
L 462.971124 376.724135 
L 467.384971 376.999548 
L 471.798818 377.392685 
L 476.212665 377.805564 
L 480.626512 378.636429 
L 485.040359 378.820125 
L 489.42478 379.025588 
L 493.580751 380.135406 
L 498.109091 381.963797 
" style="fill:none;stroke:#d62728;stroke-linecap:square;stroke-width:5;"/>
   </g>
   <g id="line2d_46">
    <path clip-path="url(#p551247945c)" d="M 72 373.344828 
L 518.4 373.344828 
" style="fill:none;stroke:#000000;stroke-dasharray:3.2,0.8,0.5,0.8;stroke-dashoffset:0;stroke-width:0.5;"/>
   </g>
   <g id="line2d_47">
    <path clip-path="url(#p551247945c)" d="M 92.290909 378.226158 
L 96.010141 359.370094 
L 100.206364 356.155351 
L 104.633249 354.549413 
L 104.633249 355.471432 
L 109.089846 354.593502 
L 113.546442 354.801581 
L 118.003038 355.116657 
L 122.459634 355.455212 
L 126.91623 355.768406 
L 131.372826 356.10929 
L 135.829422 356.488439 
L 140.286018 356.829771 
L 144.742614 357.17424 
L 149.199211 357.511719 
L 153.655807 357.845793 
L 158.112403 358.174848 
L 162.568999 358.499423 
L 167.025595 358.81889 
L 171.482191 359.133608 
L 175.938787 359.443307 
L 180.395383 359.748436 
L 184.851979 360.048906 
L 193.765168 360.63694 
L 198.221757 360.925133 
L 202.678364 361.209561 
L 207.13496 361.490495 
L 211.591556 361.768113 
L 216.048152 362.042953 
L 220.504748 362.314657 
L 224.961344 362.583314 
L 229.41794 362.849641 
L 233.874537 363.113638 
L 238.331133 363.375664 
L 242.787729 363.635718 
L 247.244325 363.89398 
L 251.700921 364.15045 
L 256.157517 364.404868 
L 260.614113 364.657565 
L 265.070709 364.908945 
L 269.527305 365.034921 
L 269.527305 365.283353 
L 273.983902 365.408021 
L 278.440498 365.655781 
L 282.897094 365.902707 
L 287.35369 366.148907 
L 291.810286 366.394157 
L 296.266882 366.638628 
L 300.723478 366.882659 
L 305.180074 367.126297 
L 309.63667 367.369405 
L 314.093267 367.612093 
L 318.549863 367.854601 
L 323.006459 368.097001 
L 327.463055 368.339151 
L 331.919651 368.581166 
L 336.376247 368.823218 
L 340.832843 369.065358 
L 345.289439 369.307571 
L 349.746035 369.54998 
L 354.202632 369.792749 
L 358.659228 370.036001 
L 363.115824 370.279826 
L 367.57242 370.524386 
L 372.029016 370.769905 
L 376.485612 371.016536 
L 380.942208 371.264421 
L 385.398804 371.513766 
L 389.8554 371.76477 
L 394.311996 372.017718 
L 398.768593 372.272709 
L 403.225189 372.530056 
L 407.681785 372.790167 
L 412.138381 373.053222 
L 416.594977 373.319654 
L 421.051573 373.589912 
L 425.508169 373.864375 
L 429.964765 374.143908 
L 434.421361 374.42882 
L 438.877958 374.720991 
L 443.334554 375.017786 
L 447.79115 375.331034 
L 452.247746 375.495508 
L 452.247746 375.734495 
L 456.704342 375.991843 
L 461.160938 376.299642 
L 465.617534 376.615363 
L 470.07413 377.058173 
L 474.530726 377.526118 
L 478.987323 378.464231 
L 483.443919 378.636008 
L 487.870804 378.774459 
L 492.067027 380.028589 
L 498.109091 382.156579 
" style="fill:none;stroke:#9467bd;stroke-linecap:square;stroke-width:5;"/>
   </g>
   <g id="line2d_48">
    <path clip-path="url(#p551247945c)" d="M 72 373.344828 
L 518.4 373.344828 
" style="fill:none;stroke:#000000;stroke-dasharray:3.2,0.8,0.5,0.8;stroke-dashoffset:0;stroke-width:0.5;"/>
   </g>
   <g id="patch_8">
    <path d="M 72 445.034483 
L 72 301.655172 
" style="fill:none;stroke:#000000;stroke-linecap:square;stroke-linejoin:miter;stroke-width:0.8;"/>
   </g>
   <g id="patch_9">
    <path d="M 518.4 445.034483 
L 518.4 301.655172 
" style="fill:none;stroke:#000000;stroke-linecap:square;stroke-linejoin:miter;stroke-width:0.8;"/>
   </g>
   <g id="patch_10">
    <path d="M 72 445.034483 
L 518.4 445.034483 
" style="fill:none;stroke:#000000;stroke-linecap:square;stroke-linejoin:miter;stroke-width:0.8;"/>
   </g>
   <g id="patch_11">
    <path d="M 72 301.655172 
L 518.4 301.655172 
" style="fill:none;stroke:#000000;stroke-linecap:square;stroke-linejoin:miter;stroke-width:0.8;"/>
   </g>
  </g>
  <g id="axes_3">
   <g id="patch_12">
    <path d="M 72 617.089655 
L 518.4 617.089655 
L 518.4 473.710345 
L 72 473.710345 
z
" style="fill:#ffffff;"/>
   </g>
   <g id="matplotlib.axis_5">
    <g id="xtick_13">
     <g id="line2d_49">
      <g>
       <use style="fill:#ffffff;stroke:#000000;stroke-width:0.8;" x="92.290909" xlink:href="#mf83e1f91e7" y="617.089655"/>
      </g>
     </g>
    </g>
    <g id="xtick_14">
     <g id="line2d_50">
      <g>
       <use style="fill:#ffffff;stroke:#000000;stroke-width:0.8;" x="173.454545" xlink:href="#mf83e1f91e7" y="617.089655"/>
      </g>
     </g>
    </g>
    <g id="xtick_15">
     <g id="line2d_51">
      <g>
       <use style="fill:#ffffff;stroke:#000000;stroke-width:0.8;" x="254.618182" xlink:href="#mf83e1f91e7" y="617.089655"/>
      </g>
     </g>
    </g>
    <g id="xtick_16">
     <g id="line2d_52">
      <g>
       <use style="fill:#ffffff;stroke:#000000;stroke-width:0.8;" x="335.781818" xlink:href="#mf83e1f91e7" y="617.089655"/>
      </g>
     </g>
    </g>
    <g id="xtick_17">
     <g id="line2d_53">
      <g>
       <use style="fill:#ffffff;stroke:#000000;stroke-width:0.8;" x="416.945455" xlink:href="#mf83e1f91e7" y="617.089655"/>
      </g>
     </g>
    </g>
    <g id="xtick_18">
     <g id="line2d_54">
      <g>
       <use style="fill:#ffffff;stroke:#000000;stroke-width:0.8;" x="498.109091" xlink:href="#mf83e1f91e7" y="617.089655"/>
      </g>
     </g>
    </g>
   </g>
   <g id="matplotlib.axis_6">
    <g id="ytick_7">
     <g id="line2d_55">
      <g>
       <use style="fill:#ffffff;stroke:#000000;stroke-width:0.8;" x="72" xlink:href="#m8a85b8bfd5" y="590.206034"/>
      </g>
     </g>
     <g id="text_14">
      <!-- −5 -->
      <g transform="translate(43.67 596.352753)scale(0.18 -0.18)">
       <use xlink:href="#STIXGeneral-Regular-8722"/>
       <use x="68.499985" xlink:href="#STIXGeneral-Regular-53"/>
      </g>
     </g>
    </g>
    <g id="ytick_8">
     <g id="line2d_56">
      <g>
       <use style="fill:#ffffff;stroke:#000000;stroke-width:0.8;" x="72" xlink:href="#m8a85b8bfd5" y="545.4"/>
      </g>
     </g>
     <g id="text_15">
      <!-- 0 -->
      <g transform="translate(56 551.546719)scale(0.18 -0.18)">
       <use xlink:href="#STIXGeneral-Regular-48"/>
      </g>
     </g>
    </g>
    <g id="ytick_9">
     <g id="line2d_57">
      <g>
       <use style="fill:#ffffff;stroke:#000000;stroke-width:0.8;" x="72" xlink:href="#m8a85b8bfd5" y="500.593966"/>
      </g>
     </g>
     <g id="text_16">
      <!-- 5 -->
      <g transform="translate(56 506.740684)scale(0.18 -0.18)">
       <use xlink:href="#STIXGeneral-Regular-53"/>
      </g>
     </g>
    </g>
    <g id="text_17">
     <!-- Cp -->
     <g transform="translate(35.763438 555.903281)rotate(-90)scale(0.18 -0.18)">
      <use xlink:href="#STIXGeneral-Regular-67"/>
      <use x="66.699997" xlink:href="#STIXGeneral-Regular-112"/>
     </g>
    </g>
   </g>
   <g id="line2d_58">
    <path clip-path="url(#p048a2cc994)" d="M 92.290909 545.590416 
L 98.775866 543.294708 
L 105.17657 543.182406 
L 111.94468 543.305166 
L 118.759377 543.370269 
L 125.573909 543.437128 
L 132.388441 543.529214 
L 139.202973 543.605814 
L 146.017505 543.665998 
L 152.832037 543.718636 
L 159.646569 543.767152 
L 166.461101 543.817352 
L 173.275633 543.866074 
L 180.090165 543.911615 
L 186.904697 543.957774 
L 193.71923 544.003629 
L 200.533761 544.049707 
L 207.348293 544.095956 
L 214.162825 544.142563 
L 220.977357 544.189413 
L 227.791889 544.236674 
L 234.606421 544.284401 
L 241.420953 544.332738 
L 248.235485 544.381747 
L 255.050017 544.431535 
L 261.864549 544.482166 
L 268.679081 544.533765 
L 275.493613 544.586393 
L 282.308145 544.640163 
L 289.122676 544.695146 
L 295.937208 544.751481 
L 302.75174 544.809255 
L 309.566272 544.898655 
L 309.566272 544.838565 
L 316.380804 544.929649 
L 323.195336 544.992562 
L 330.009868 545.05747 
L 336.8244 545.124553 
L 343.638932 545.193989 
L 350.453464 545.266055 
L 357.267996 545.340937 
L 364.082528 545.418949 
L 370.89706 545.500385 
L 377.711592 545.585686 
L 384.526124 545.675196 
L 391.340656 545.769291 
L 398.155188 545.866752 
L 404.96972 545.977117 
L 411.784252 546.088343 
L 418.598784 546.207296 
L 425.413316 546.331607 
L 432.227848 546.470443 
L 439.04238 546.636924 
L 445.856912 546.809428 
L 452.671444 547.078918 
L 459.485976 547.279783 
L 466.300508 547.358929 
L 473.11504 547.649236 
L 479.913878 548.078388 
L 491.01537 549.185366 
L 496.869259 549.98053 
L 498.109091 550.752475 
" style="fill:none;stroke:#1f77b4;stroke-linecap:square;stroke-width:5;"/>
   </g>
   <g id="line2d_59">
    <path clip-path="url(#p048a2cc994)" d="M 72 545.4 
L 518.4 545.4 
" style="fill:none;stroke:#000000;stroke-dasharray:3.2,0.8,0.5,0.8;stroke-dashoffset:0;stroke-width:0.5;"/>
   </g>
   <g id="line2d_60">
    <path clip-path="url(#p048a2cc994)" d="M 92.290909 545.060597 
L 98.98428 541.508856 
L 104.087122 541.047587 
L 109.289847 540.93377 
L 114.505214 540.908885 
L 119.720582 540.929801 
L 124.935949 540.996024 
L 130.151317 541.067104 
L 135.366684 541.131741 
L 140.582052 541.201164 
L 145.79742 541.278338 
L 151.012787 541.348791 
L 156.228155 541.420238 
L 161.443522 541.49174 
L 166.65889 541.564129 
L 171.874257 541.636661 
L 177.089625 541.709945 
L 182.304993 541.782271 
L 187.52036 541.854364 
L 192.735729 541.928258 
L 197.951095 542.002233 
L 203.166463 542.076405 
L 208.381831 542.151464 
L 213.597198 542.225932 
L 218.812566 542.299862 
L 224.027933 542.373729 
L 229.243301 542.447712 
L 234.458668 542.521884 
L 239.674036 542.596352 
L 244.889404 542.671187 
L 250.104771 542.746479 
L 255.320139 542.822174 
L 260.535506 542.898354 
L 265.750874 542.975062 
L 270.966241 543.052397 
L 276.181609 543.130413 
L 281.396977 543.169753 
L 281.396977 543.248593 
L 286.612344 543.288758 
L 291.827712 543.369265 
L 297.043079 543.450767 
L 302.258447 543.5333 
L 307.473814 543.616881 
L 312.689182 543.701627 
L 317.90455 543.787601 
L 323.119917 543.874892 
L 328.335285 543.963572 
L 333.550652 544.053821 
L 338.76602 544.145781 
L 343.981387 544.239604 
L 349.196755 544.335462 
L 354.412123 544.433525 
L 359.62749 544.533974 
L 364.842858 544.637003 
L 370.058225 544.742787 
L 375.273593 544.851541 
L 380.488961 544.963496 
L 385.704328 545.078921 
L 390.919696 545.198064 
L 396.135063 545.321277 
L 401.350431 545.448905 
L 406.565798 545.581413 
L 411.781166 545.719226 
L 416.996534 545.863114 
L 422.211901 546.013111 
L 427.427269 546.171355 
L 432.642636 546.331455 
L 437.858004 546.510939 
L 443.073371 546.677761 
L 448.288739 546.876897 
L 453.504107 547.111859 
L 458.719474 547.327645 
L 463.934842 547.604699 
L 469.150209 548.074284 
L 474.365577 548.334249 
L 479.580944 548.448755 
L 484.783669 548.92171 
L 498.109091 549.899404 
L 498.109091 552.594129 
L 498.109091 552.572837 
" style="fill:none;stroke:#ff7f0e;stroke-linecap:square;stroke-width:5;"/>
   </g>
   <g id="line2d_61">
    <path clip-path="url(#p048a2cc994)" d="M 72 545.4 
L 518.4 545.4 
" style="fill:none;stroke:#000000;stroke-dasharray:3.2,0.8,0.5,0.8;stroke-dashoffset:0;stroke-width:0.5;"/>
   </g>
   <g id="line2d_62">
    <path clip-path="url(#p048a2cc994)" d="M 92.290909 552.281024 
L 97.038715 540.363605 
L 101.386859 539.017022 
L 101.386859 538.115059 
L 105.974016 537.89369 
L 110.59196 537.54259 
L 115.209904 537.421793 
L 119.827848 537.448757 
L 124.445792 537.502793 
L 129.063735 537.575908 
L 133.681679 537.664749 
L 138.299623 537.767041 
L 142.917567 537.870301 
L 147.53551 537.978033 
L 152.153454 538.087243 
L 156.771398 538.19864 
L 161.389342 538.312017 
L 166.007285 538.426487 
L 170.625229 538.541818 
L 175.243173 538.657328 
L 179.861117 538.772874 
L 184.479061 538.888285 
L 189.097004 539.003553 
L 193.714948 539.118284 
L 198.332892 539.232736 
L 202.950836 539.346651 
L 207.568779 539.460378 
L 212.186723 539.573603 
L 216.804667 539.687607 
L 221.422611 539.801119 
L 226.040555 539.91265 
L 230.658498 540.024746 
L 235.276442 540.137146 
L 239.894386 540.248794 
L 244.51233 540.360961 
L 249.130273 540.473424 
L 253.748217 540.585466 
L 258.366161 540.697248 
L 262.984105 540.80895 
L 267.602049 540.920857 
L 272.219992 541.088969 
L 272.219992 540.97716 
L 276.837936 541.145551 
L 281.45588 541.258453 
L 286.073824 541.37192 
L 290.691767 541.485951 
L 295.309711 541.600475 
L 299.927655 541.715654 
L 304.545599 541.831656 
L 309.163542 541.948493 
L 313.781486 542.066153 
L 318.39943 542.184773 
L 323.017374 542.304485 
L 327.635318 542.425309 
L 332.253261 542.547254 
L 336.871205 542.670434 
L 341.489149 542.79495 
L 346.107093 542.920873 
L 350.725036 543.048293 
L 355.34298 543.177406 
L 359.960924 543.308374 
L 364.578868 543.441331 
L 369.196812 543.576484 
L 373.814755 543.71403 
L 378.432699 543.854174 
L 383.050643 543.99706 
L 387.668587 544.142895 
L 392.28653 544.291965 
L 396.904474 544.444475 
L 401.522418 544.600651 
L 406.140362 544.76081 
L 410.758305 544.925308 
L 415.376249 545.094504 
L 419.994193 545.268885 
L 429.230081 545.635287 
L 433.848024 545.828791 
L 438.465968 546.028706 
L 443.083912 546.24055 
L 447.701856 546.437663 
L 452.319799 546.711473 
L 456.937743 546.917141 
L 461.555687 546.935413 
L 461.555687 547.330719 
L 466.173631 547.464348 
L 470.791575 547.817519 
L 475.409518 548.506035 
L 480.027462 548.637612 
L 484.645406 548.727664 
L 489.232004 549.521402 
L 493.577909 550.334462 
L 498.109091 552.076762 
" style="fill:none;stroke:#2ca02c;stroke-linecap:square;stroke-width:5;"/>
   </g>
   <g id="line2d_63">
    <path clip-path="url(#p048a2cc994)" d="M 72 545.4 
L 518.4 545.4 
" style="fill:none;stroke:#000000;stroke-dasharray:3.2,0.8,0.5,0.8;stroke-dashoffset:0;stroke-width:0.5;"/>
   </g>
   <g id="line2d_64">
    <path clip-path="url(#p048a2cc994)" d="M 92.290909 555.445154 
L 96.909131 538.076301 
L 101.065102 535.20376 
L 105.449523 533.512332 
L 105.449523 534.395907 
L 109.86337 533.295739 
L 114.277217 533.062658 
L 118.691064 533.057461 
L 123.104911 533.113289 
L 127.518758 533.207292 
L 131.932605 533.332839 
L 136.346452 533.482043 
L 140.760298 533.63528 
L 145.174145 533.79461 
L 149.587992 533.9586 
L 154.001839 534.126891 
L 158.415686 534.297692 
L 162.829533 534.470643 
L 167.24338 534.644222 
L 171.657227 534.818517 
L 176.071074 534.992454 
L 180.484921 535.166302 
L 184.898768 535.338895 
L 189.312615 535.511129 
L 193.72646 535.681392 
L 198.140309 535.849146 
L 202.554155 536.019588 
L 206.968002 536.186446 
L 211.381849 536.353751 
L 215.795696 536.519292 
L 220.209543 536.683801 
L 224.62339 536.847881 
L 229.037237 537.010213 
L 233.451084 537.172886 
L 237.864931 537.333086 
L 242.278778 537.494334 
L 246.692625 537.655402 
L 251.106472 537.818756 
L 255.520319 537.981232 
L 259.934166 538.14317 
L 264.348012 538.304875 
L 268.761859 538.385741 
L 268.761859 538.544847 
L 273.175706 538.624817 
L 277.589553 538.783905 
L 282.0034 538.942868 
L 286.417247 539.101813 
L 290.831094 539.260749 
L 295.244941 539.419981 
L 299.658788 539.579705 
L 304.072635 539.740846 
L 308.486482 539.902488 
L 312.900329 540.071245 
L 317.314176 540.238049 
L 321.728023 540.397021 
L 326.141869 540.554442 
L 330.555716 540.718146 
L 334.969563 540.89038 
L 339.38341 541.069111 
L 343.797257 541.243909 
L 348.211104 541.409109 
L 352.624951 541.57231 
L 357.038798 541.742062 
L 361.452645 541.922326 
L 365.866492 542.102312 
L 370.280339 542.282217 
L 374.694186 542.462848 
L 379.108033 542.645137 
L 383.52188 542.829962 
L 387.935726 543.017717 
L 392.349573 543.208797 
L 396.76342 543.403506 
L 401.177267 543.602113 
L 405.591114 543.804869 
L 414.418808 544.224119 
L 418.832655 544.441456 
L 423.246502 544.664505 
L 427.660349 544.893915 
L 432.074196 545.130338 
L 436.488043 545.374794 
L 440.90189 545.628094 
L 445.315737 545.889051 
L 449.729583 546.020834 
L 449.729583 546.310486 
L 454.14343 546.419095 
L 458.557277 546.757695 
L 462.971124 547.05026 
L 467.384971 547.351294 
L 471.798818 547.760929 
L 476.212665 548.204177 
L 480.626512 549.077652 
L 485.040359 549.347098 
L 489.42478 549.661986 
L 493.580751 550.875826 
L 498.109091 552.882769 
" style="fill:none;stroke:#d62728;stroke-linecap:square;stroke-width:5;"/>
   </g>
   <g id="line2d_65">
    <path clip-path="url(#p048a2cc994)" d="M 72 545.4 
L 518.4 545.4 
" style="fill:none;stroke:#000000;stroke-dasharray:3.2,0.8,0.5,0.8;stroke-dashoffset:0;stroke-width:0.5;"/>
   </g>
   <g id="line2d_66">
    <path clip-path="url(#p048a2cc994)" d="M 92.290909 556.111779 
L 96.010141 535.34221 
L 100.206364 530.949247 
L 104.633249 529.689391 
L 104.633249 528.317341 
L 109.089846 528.059975 
L 113.546442 527.762015 
L 118.003038 527.746422 
L 122.459634 527.845892 
L 126.91623 527.996261 
L 131.372826 528.19278 
L 135.829422 528.425144 
L 140.286018 528.658763 
L 144.742614 528.900895 
L 149.199211 529.147776 
L 153.655807 529.399138 
L 158.112403 529.65274 
L 162.568999 529.908045 
L 167.025595 530.163439 
L 171.482191 530.418475 
L 175.938787 530.672346 
L 180.395383 530.925231 
L 184.851979 531.176235 
L 189.308575 531.425625 
L 193.765172 531.673223 
L 198.221762 531.919119 
L 202.678364 532.163132 
L 207.13496 532.405533 
L 211.591556 532.646142 
L 216.048152 532.885406 
L 220.504748 533.122967 
L 224.961344 533.358916 
L 229.41794 533.5937 
L 233.874537 533.827408 
L 238.331133 534.06022 
L 242.787729 534.292226 
L 247.244325 534.523335 
L 251.700921 534.753728 
L 256.157517 534.983135 
L 260.614113 535.211735 
L 265.070709 535.440067 
L 269.527305 535.55468 
L 269.527305 535.781668 
L 273.983902 535.896013 
L 278.440498 536.123717 
L 282.897094 536.351601 
L 287.35369 536.579851 
L 291.810286 536.808219 
L 296.266882 537.036918 
L 300.723478 537.266343 
L 305.180074 537.496538 
L 309.63667 537.727379 
L 314.093267 537.959089 
L 318.549863 538.191964 
L 323.006459 538.426084 
L 327.463055 538.661379 
L 331.919651 538.898035 
L 336.376247 539.136314 
L 340.832843 539.376384 
L 345.289439 539.61831 
L 354.202632 540.108613 
L 358.659228 540.357529 
L 363.115824 540.609213 
L 367.57242 540.863963 
L 372.029016 541.122144 
L 376.485612 541.384053 
L 380.942208 541.649986 
L 385.398804 541.920319 
L 389.8554 542.195428 
L 394.311996 542.475815 
L 398.768593 542.761785 
L 403.225189 543.053929 
L 407.681785 543.352911 
L 412.138381 543.659205 
L 416.594977 543.973609 
L 421.051573 544.296956 
L 425.508169 544.629967 
L 429.964765 544.974087 
L 434.421361 545.330248 
L 438.877958 545.701163 
L 443.334554 546.084418 
L 447.79115 546.494396 
L 452.247746 547.050556 
L 452.247746 546.710559 
L 456.704342 547.360649 
L 461.160938 547.786728 
L 465.617534 548.256456 
L 470.07413 548.88987 
L 474.530726 549.59035 
L 478.987323 550.845923 
L 483.443919 551.237509 
L 487.870804 551.677308 
L 492.067027 553.537054 
L 498.109091 556.600792 
" style="fill:none;stroke:#9467bd;stroke-linecap:square;stroke-width:5;"/>
   </g>
   <g id="line2d_67">
    <path clip-path="url(#p048a2cc994)" d="M 72 545.4 
L 518.4 545.4 
" style="fill:none;stroke:#000000;stroke-dasharray:3.2,0.8,0.5,0.8;stroke-dashoffset:0;stroke-width:0.5;"/>
   </g>
   <g id="patch_13">
    <path d="M 72 617.089655 
L 72 473.710345 
" style="fill:none;stroke:#000000;stroke-linecap:square;stroke-linejoin:miter;stroke-width:0.8;"/>
   </g>
   <g id="patch_14">
    <path d="M 518.4 617.089655 
L 518.4 473.710345 
" style="fill:none;stroke:#000000;stroke-linecap:square;stroke-linejoin:miter;stroke-width:0.8;"/>
   </g>
   <g id="patch_15">
    <path d="M 72 617.089655 
L 518.4 617.089655 
" style="fill:none;stroke:#000000;stroke-linecap:square;stroke-linejoin:miter;stroke-width:0.8;"/>
   </g>
   <g id="patch_16">
    <path d="M 72 473.710345 
L 518.4 473.710345 
" style="fill:none;stroke:#000000;stroke-linecap:square;stroke-linejoin:miter;stroke-width:0.8;"/>
   </g>
  </g>
  <g id="axes_4">
   <g id="patch_17">
    <path d="M 72 789.144828 
L 518.4 789.144828 
L 518.4 645.765517 
L 72 645.765517 
z
" style="fill:#ffffff;"/>
   </g>
   <g id="matplotlib.axis_7">
    <g id="xtick_19">
     <g id="line2d_68">
      <g>
       <use style="fill:#ffffff;stroke:#000000;stroke-width:0.8;" x="92.290909" xlink:href="#mf83e1f91e7" y="789.144828"/>
      </g>
     </g>
    </g>
    <g id="xtick_20">
     <g id="line2d_69">
      <g>
       <use style="fill:#ffffff;stroke:#000000;stroke-width:0.8;" x="173.454545" xlink:href="#mf83e1f91e7" y="789.144828"/>
      </g>
     </g>
    </g>
    <g id="xtick_21">
     <g id="line2d_70">
      <g>
       <use style="fill:#ffffff;stroke:#000000;stroke-width:0.8;" x="254.618182" xlink:href="#mf83e1f91e7" y="789.144828"/>
      </g>
     </g>
    </g>
    <g id="xtick_22">
     <g id="line2d_71">
      <g>
       <use style="fill:#ffffff;stroke:#000000;stroke-width:0.8;" x="335.781818" xlink:href="#mf83e1f91e7" y="789.144828"/>
      </g>
     </g>
    </g>
    <g id="xtick_23">
     <g id="line2d_72">
      <g>
       <use style="fill:#ffffff;stroke:#000000;stroke-width:0.8;" x="416.945455" xlink:href="#mf83e1f91e7" y="789.144828"/>
      </g>
     </g>
    </g>
    <g id="xtick_24">
     <g id="line2d_73">
      <g>
       <use style="fill:#ffffff;stroke:#000000;stroke-width:0.8;" x="498.109091" xlink:href="#mf83e1f91e7" y="789.144828"/>
      </g>
     </g>
    </g>
   </g>
   <g id="matplotlib.axis_8">
    <g id="ytick_10">
     <g id="line2d_74">
      <g>
       <use style="fill:#ffffff;stroke:#000000;stroke-width:0.8;" x="72" xlink:href="#m8a85b8bfd5" y="762.261207"/>
      </g>
     </g>
     <g id="text_18">
      <!-- −5 -->
      <g transform="translate(43.67 768.407926)scale(0.18 -0.18)">
       <use xlink:href="#STIXGeneral-Regular-8722"/>
       <use x="68.499985" xlink:href="#STIXGeneral-Regular-53"/>
      </g>
     </g>
    </g>
    <g id="ytick_11">
     <g id="line2d_75">
      <g>
       <use style="fill:#ffffff;stroke:#000000;stroke-width:0.8;" x="72" xlink:href="#m8a85b8bfd5" y="717.455172"/>
      </g>
     </g>
     <g id="text_19">
      <!-- 0 -->
      <g transform="translate(56 723.601891)scale(0.18 -0.18)">
       <use xlink:href="#STIXGeneral-Regular-48"/>
      </g>
     </g>
    </g>
    <g id="ytick_12">
     <g id="line2d_76">
      <g>
       <use style="fill:#ffffff;stroke:#000000;stroke-width:0.8;" x="72" xlink:href="#m8a85b8bfd5" y="672.649138"/>
      </g>
     </g>
     <g id="text_20">
      <!-- 5 -->
      <g transform="translate(56 678.795857)scale(0.18 -0.18)">
       <use xlink:href="#STIXGeneral-Regular-53"/>
      </g>
     </g>
    </g>
    <g id="text_21">
     <!-- Cp -->
     <g transform="translate(35.763438 727.958454)rotate(-90)scale(0.18 -0.18)">
      <use xlink:href="#STIXGeneral-Regular-67"/>
      <use x="66.699997" xlink:href="#STIXGeneral-Regular-112"/>
     </g>
    </g>
   </g>
   <g id="line2d_77">
    <path clip-path="url(#p7a6b18e179)" d="M 92.290909 719.793402 
L 98.775866 716.740148 
L 111.94468 716.361152 
L 118.759377 716.392875 
L 125.573909 716.433138 
L 132.388441 716.429034 
L 139.202973 716.451867 
L 146.017505 716.472271 
L 152.832037 716.484369 
L 159.646569 716.497067 
L 166.461101 716.513502 
L 173.275633 716.524685 
L 180.090165 716.534704 
L 186.904697 716.544875 
L 193.71923 716.555055 
L 200.533761 716.565547 
L 207.348293 716.576242 
L 214.162825 716.587237 
L 220.977357 716.598452 
L 227.791889 716.610184 
L 234.606421 716.622424 
L 241.420953 716.635377 
L 248.235485 716.649094 
L 255.050017 716.663721 
L 261.864549 716.679316 
L 268.679081 716.696045 
L 275.493613 716.714019 
L 282.308145 716.733374 
L 289.122676 716.754215 
L 295.937208 716.776734 
L 302.75174 716.801044 
L 309.566272 716.813789 
L 309.566272 716.840821 
L 316.380804 716.855679 
L 323.195336 716.886509 
L 330.009868 716.919766 
L 336.8244 716.955683 
L 343.638932 716.994687 
L 350.453464 717.036891 
L 357.267996 717.082498 
L 364.082528 717.132024 
L 370.89706 717.185742 
L 377.711592 717.244059 
L 384.526124 717.307419 
L 391.340656 717.376257 
L 398.155188 717.449377 
L 404.96972 717.535751 
L 411.784252 717.623553 
L 418.598784 717.722978 
L 425.413316 717.829882 
L 432.227848 717.945264 
L 439.04238 718.094205 
L 445.856912 718.252739 
L 452.671444 718.495533 
L 459.485976 718.669515 
L 466.300508 718.752388 
L 473.11504 719.039281 
L 479.913878 719.439569 
L 486.588815 719.908016 
L 491.01537 720.503399 
L 496.869259 721.272817 
L 498.109091 722.056474 
" style="fill:none;stroke:#1f77b4;stroke-linecap:square;stroke-width:5;"/>
   </g>
   <g id="line2d_78">
    <path clip-path="url(#p7a6b18e179)" d="M 72 717.455172 
L 518.4 717.455172 
" style="fill:none;stroke:#000000;stroke-dasharray:3.2,0.8,0.5,0.8;stroke-dashoffset:0;stroke-width:0.5;"/>
   </g>
   <g id="line2d_79">
    <path clip-path="url(#p7a6b18e179)" d="M 92.290909 720.725601 
L 98.98428 716.365293 
L 104.087122 715.48325 
L 109.289847 715.174079 
L 114.505214 715.033379 
L 119.720582 714.876325 
L 124.935949 714.833948 
L 130.151317 714.820085 
L 135.366684 714.823499 
L 140.582052 714.831008 
L 145.79742 714.835722 
L 151.012787 714.849092 
L 156.228155 714.860706 
L 161.443522 714.87456 
L 166.65889 714.889991 
L 171.874257 714.906507 
L 177.089625 714.924286 
L 182.304993 714.941876 
L 187.520354 714.959449 
L 192.735732 714.979119 
L 197.951095 714.998601 
L 203.166463 715.017572 
L 208.381831 715.037116 
L 213.597198 715.055738 
L 218.812566 715.074404 
L 224.027933 715.093294 
L 229.243301 715.112462 
L 234.458668 715.131791 
L 239.674036 715.151327 
L 244.889404 715.171167 
L 250.104771 715.191419 
L 255.320139 715.212066 
L 260.535506 715.233241 
L 265.750874 715.254972 
L 270.966241 715.277366 
L 276.181609 715.300495 
L 281.396977 715.336403 
L 281.396977 715.312422 
L 286.612344 715.349262 
L 291.827712 715.375151 
L 297.043079 715.402205 
L 302.258447 715.430522 
L 307.473814 715.460103 
L 312.689182 715.491118 
L 317.90455 715.523665 
L 323.119917 715.557879 
L 328.335285 715.593858 
L 333.550652 715.631764 
L 338.76602 715.671821 
L 343.981387 715.714171 
L 349.196755 715.758852 
L 354.412123 715.806221 
L 359.62749 715.856663 
L 364.842858 715.910027 
L 370.058225 715.96659 
L 375.273593 716.026881 
L 380.488961 716.09099 
L 385.704328 716.159274 
L 390.919696 716.231735 
L 396.135063 716.308801 
L 401.350431 716.391253 
L 406.565798 716.479467 
L 411.781166 716.57384 
L 416.996534 716.67518 
L 422.211901 716.783728 
L 427.427269 716.901449 
L 432.642636 717.023861 
L 437.858004 717.163236 
L 443.073371 717.28768 
L 448.288739 717.452464 
L 453.504107 717.655441 
L 458.719474 717.841799 
L 463.934842 718.085633 
L 469.150209 718.490801 
L 474.365577 718.718819 
L 479.580944 718.867996 
L 484.783669 719.34225 
L 489.886511 719.972133 
L 498.109091 723.256434 
L 498.109091 720.262253 
L 498.109091 723.236925 
" style="fill:none;stroke:#ff7f0e;stroke-linecap:square;stroke-width:5;"/>
   </g>
   <g id="line2d_80">
    <path clip-path="url(#p7a6b18e179)" d="M 72 717.455172 
L 518.4 717.455172 
" style="fill:none;stroke:#000000;stroke-dasharray:3.2,0.8,0.5,0.8;stroke-dashoffset:0;stroke-width:0.5;"/>
   </g>
   <g id="line2d_81">
    <path clip-path="url(#p7a6b18e179)" d="M 92.290909 728.789217 
L 97.038715 716.576623 
L 101.386859 713.620645 
L 101.386859 715.037528 
L 110.59196 712.88217 
L 115.209904 712.518685 
L 119.827848 712.38192 
L 124.445792 712.311691 
L 129.063735 712.293177 
L 133.681679 712.293302 
L 138.299623 712.293696 
L 142.917567 712.314935 
L 147.53551 712.33973 
L 152.153454 712.369338 
L 156.771398 712.402925 
L 161.389342 712.440275 
L 166.007285 712.479848 
L 170.625229 712.521186 
L 175.243173 712.563366 
L 179.861117 712.606254 
L 184.479061 712.649609 
L 189.09701 712.693277 
L 193.71495 712.73664 
L 198.332892 712.779851 
L 202.950836 712.822703 
L 207.568779 712.865592 
L 212.186723 712.908319 
L 216.804667 712.951906 
L 221.422611 712.994409 
L 226.040555 713.034385 
L 230.658498 713.075302 
L 235.276442 713.116559 
L 239.894386 713.157145 
L 244.51233 713.198277 
L 249.130273 713.239184 
L 253.748217 713.28003 
L 258.366161 713.320973 
L 262.984105 713.362007 
L 267.602049 713.403425 
L 272.219992 713.466136 
L 272.219992 713.424529 
L 276.837936 713.487688 
L 281.45588 713.530594 
L 286.073824 713.574262 
L 290.691767 713.618799 
L 295.309711 713.664134 
L 299.927655 713.710463 
L 304.545599 713.757967 
L 309.163542 713.806671 
L 313.781486 713.856594 
L 318.39943 713.907941 
L 323.017374 713.960875 
L 327.635318 714.015413 
L 332.253261 714.071663 
L 336.871205 714.129803 
L 341.489149 714.18996 
L 346.107093 714.252312 
L 350.725036 714.317047 
L 355.34298 714.384041 
L 359.960924 714.453562 
L 364.578868 714.526157 
L 369.196812 714.602014 
L 373.814755 714.681365 
L 378.432699 714.76448 
L 383.050643 714.851583 
L 387.668587 714.943131 
L 392.28653 715.039249 
L 396.904474 715.140233 
L 401.522418 715.246683 
L 406.140362 715.358976 
L 410.758305 715.477649 
L 415.376249 715.603196 
L 419.994193 715.736207 
L 424.612137 715.877453 
L 429.230081 716.027957 
L 433.848024 716.188497 
L 438.465968 716.358652 
L 443.083912 716.544266 
L 447.701856 716.723218 
L 452.319799 716.962812 
L 456.937743 717.152933 
L 461.555687 717.183913 
L 461.555687 717.567551 
L 466.173631 717.7078 
L 470.791575 718.066235 
L 475.409518 718.730594 
L 480.027462 718.944023 
L 484.645406 719.191021 
L 489.232004 720.094696 
L 493.577909 721.074971 
L 498.109091 723.329871 
" style="fill:none;stroke:#2ca02c;stroke-linecap:square;stroke-width:5;"/>
   </g>
   <g id="line2d_82">
    <path clip-path="url(#p7a6b18e179)" d="M 72 717.455172 
L 518.4 717.455172 
" style="fill:none;stroke:#000000;stroke-dasharray:3.2,0.8,0.5,0.8;stroke-dashoffset:0;stroke-width:0.5;"/>
   </g>
   <g id="line2d_83">
    <path clip-path="url(#p7a6b18e179)" d="M 92.290909 731.155424 
L 96.909131 714.755976 
L 101.065102 711.707499 
L 105.449523 710.748453 
L 105.449523 709.9494 
L 109.86337 709.599635 
L 114.277217 709.126833 
L 118.691064 708.963371 
L 123.104911 708.896745 
L 127.518758 708.890266 
L 131.932605 708.914766 
L 136.346452 708.94717 
L 140.760298 709.003571 
L 145.174145 709.06354 
L 149.587992 709.13203 
L 154.001839 709.206668 
L 158.415686 709.285464 
L 162.829533 709.367647 
L 167.24338 709.451641 
L 171.657227 709.53714 
L 176.071074 709.623391 
L 180.484921 709.710745 
L 184.898768 709.798063 
L 193.726458 709.972403 
L 198.140298 710.054201 
L 202.554155 710.136913 
L 206.968002 710.21587 
L 211.381849 710.29584 
L 215.795696 710.375021 
L 220.209543 710.453701 
L 224.62339 710.532147 
L 229.037237 710.609456 
L 233.451084 710.687015 
L 237.864931 710.762656 
L 242.278778 710.839543 
L 246.692625 710.915929 
L 251.106472 710.994106 
L 255.520319 711.071854 
L 259.934166 711.150336 
L 264.348012 711.229302 
L 268.761859 711.346085 
L 268.761859 711.268911 
L 273.175706 711.385326 
L 277.589553 711.463208 
L 282.0034 711.541403 
L 286.417247 711.620181 
L 290.831094 711.699604 
L 295.244941 711.780004 
L 299.658788 711.86165 
L 304.072635 711.945159 
L 308.486482 712.029717 
L 312.900329 712.119652 
L 317.314176 712.207857 
L 321.728023 712.291134 
L 326.141869 712.375055 
L 330.555716 712.466182 
L 334.969563 712.566126 
L 339.38341 712.671707 
L 343.797257 712.774447 
L 348.211104 712.870735 
L 352.624951 712.967239 
L 357.038798 713.073259 
L 361.452645 713.191959 
L 365.866492 713.312514 
L 370.280339 713.434664 
L 374.694186 713.559225 
L 379.108033 713.687352 
L 383.52188 713.820032 
L 387.935726 713.957963 
L 392.349573 714.101808 
L 396.76342 714.252061 
L 401.177267 714.409195 
L 405.591114 714.573625 
L 410.004961 714.746038 
L 414.418808 714.927207 
L 418.832655 715.117749 
L 423.246502 715.318552 
L 427.660349 715.530744 
L 432.074196 715.755411 
L 436.488043 715.994334 
L 440.90189 716.248913 
L 445.315737 716.518475 
L 449.729583 716.656507 
L 449.729583 716.967686 
L 454.14343 717.09165 
L 458.557277 717.453005 
L 462.971124 717.782784 
L 467.384971 718.153957 
L 471.798818 718.654926 
L 476.212665 719.213639 
L 480.626512 720.23174 
L 485.040359 720.754653 
L 489.42478 721.434791 
L 493.580751 723.086959 
L 498.109091 725.976698 
" style="fill:none;stroke:#d62728;stroke-linecap:square;stroke-width:5;"/>
   </g>
   <g id="line2d_84">
    <path clip-path="url(#p7a6b18e179)" d="M 72 717.455172 
L 518.4 717.455172 
" style="fill:none;stroke:#000000;stroke-dasharray:3.2,0.8,0.5,0.8;stroke-dashoffset:0;stroke-width:0.5;"/>
   </g>
   <g id="line2d_85">
    <path clip-path="url(#p7a6b18e179)" d="M 92.290909 730.186807 
L 96.010141 712.115467 
L 100.206364 708.03551 
L 104.633249 705.664196 
L 104.633249 706.806929 
L 109.089846 705.252159 
L 113.546442 704.764311 
L 118.003038 704.686259 
L 122.459634 704.6954 
L 126.91623 704.751497 
L 131.372826 704.846127 
L 135.829422 704.957873 
L 140.286018 705.086915 
L 144.742614 705.221781 
L 149.199211 705.364085 
L 153.655807 705.510959 
L 158.112403 705.660073 
L 162.568999 705.811607 
L 167.025595 705.96359 
L 171.482191 706.115572 
L 175.938787 706.266837 
L 180.395383 706.417385 
L 184.851979 706.566589 
L 193.765163 706.860606 
L 198.221773 707.005688 
L 202.678364 707.149247 
L 207.13496 707.291372 
L 211.591556 707.432152 
L 216.048152 707.571947 
L 220.504748 707.710487 
L 224.961344 707.847952 
L 229.41794 707.9847 
L 233.874537 708.120552 
L 238.331133 708.255777 
L 242.787729 708.390732 
L 247.244325 708.525428 
L 251.700921 708.659775 
L 256.157517 708.793682 
L 260.614113 708.927571 
L 265.070709 709.061837 
L 269.527305 709.12953 
L 269.527305 709.263626 
L 273.983902 709.331865 
L 278.440498 709.467789 
L 282.897094 709.604761 
L 287.35369 709.743122 
L 291.810286 709.882594 
L 296.266882 710.023455 
L 300.723478 710.166172 
L 305.180074 710.310886 
L 309.63667 710.457653 
L 314.093267 710.606624 
L 318.549863 710.758221 
L 323.006459 710.912667 
L 327.463055 711.069972 
L 331.919651 711.230431 
L 336.376247 711.394421 
L 340.832843 711.56222 
L 345.289439 711.734069 
L 349.746035 711.910264 
L 354.202632 712.091272 
L 358.659228 712.277566 
L 363.115824 712.469444 
L 367.57242 712.667316 
L 372.029016 712.871802 
L 376.485612 713.083519 
L 380.942208 713.302943 
L 385.398804 713.530666 
L 389.8554 713.767403 
L 394.311996 714.013988 
L 398.768593 714.271139 
L 403.225189 714.539859 
L 407.681785 714.821214 
L 412.138381 715.116253 
L 416.594977 715.426418 
L 421.051573 715.753188 
L 425.508169 716.098168 
L 429.964765 716.463669 
L 434.421361 716.851499 
L 438.877958 717.265754 
L 443.334554 717.70504 
L 447.79115 718.185953 
L 452.247746 718.441855 
L 452.247746 718.874538 
L 456.704342 719.264324 
L 461.160938 719.814497 
L 465.617534 720.418366 
L 470.07413 721.247779 
L 474.530726 722.194038 
L 478.987323 723.816751 
L 483.443919 724.692835 
L 487.870804 725.80553 
L 492.067027 728.64073 
L 498.109091 733.44322 
" style="fill:none;stroke:#9467bd;stroke-linecap:square;stroke-width:5;"/>
   </g>
   <g id="line2d_86">
    <path clip-path="url(#p7a6b18e179)" d="M 72 717.455172 
L 518.4 717.455172 
" style="fill:none;stroke:#000000;stroke-dasharray:3.2,0.8,0.5,0.8;stroke-dashoffset:0;stroke-width:0.5;"/>
   </g>
   <g id="patch_18">
    <path d="M 72 789.144828 
L 72 645.765517 
" style="fill:none;stroke:#000000;stroke-linecap:square;stroke-linejoin:miter;stroke-width:0.8;"/>
   </g>
   <g id="patch_19">
    <path d="M 518.4 789.144828 
L 518.4 645.765517 
" style="fill:none;stroke:#000000;stroke-linecap:square;stroke-linejoin:miter;stroke-width:0.8;"/>
   </g>
   <g id="patch_20">
    <path d="M 72 789.144828 
L 518.4 789.144828 
" style="fill:none;stroke:#000000;stroke-linecap:square;stroke-linejoin:miter;stroke-width:0.8;"/>
   </g>
   <g id="patch_21">
    <path d="M 72 645.765517 
L 518.4 645.765517 
" style="fill:none;stroke:#000000;stroke-linecap:square;stroke-linejoin:miter;stroke-width:0.8;"/>
   </g>
  </g>
  <g id="axes_5">
   <g id="patch_22">
    <path d="M 72 961.2 
L 518.4 961.2 
L 518.4 817.82069 
L 72 817.82069 
z
" style="fill:#ffffff;"/>
   </g>
   <g id="matplotlib.axis_9">
    <g id="xtick_25">
     <g id="line2d_87">
      <g>
       <use style="fill:#ffffff;stroke:#000000;stroke-width:0.8;" x="92.290909" xlink:href="#mf83e1f91e7" y="961.2"/>
      </g>
     </g>
     <g id="text_22">
      <!-- 0.0 -->
      <g transform="translate(81.040909 980.493438)scale(0.18 -0.18)">
       <use xlink:href="#STIXGeneral-Regular-48"/>
       <use x="49.999985" xlink:href="#STIXGeneral-Regular-46"/>
       <use x="74.999969" xlink:href="#STIXGeneral-Regular-48"/>
      </g>
     </g>
    </g>
    <g id="xtick_26">
     <g id="line2d_88">
      <g>
       <use style="fill:#ffffff;stroke:#000000;stroke-width:0.8;" x="173.454545" xlink:href="#mf83e1f91e7" y="961.2"/>
      </g>
     </g>
     <g id="text_23">
      <!-- 0.2 -->
      <g transform="translate(162.204545 980.493438)scale(0.18 -0.18)">
       <use xlink:href="#STIXGeneral-Regular-48"/>
       <use x="49.999985" xlink:href="#STIXGeneral-Regular-46"/>
       <use x="74.999969" xlink:href="#STIXGeneral-Regular-50"/>
      </g>
     </g>
    </g>
    <g id="xtick_27">
     <g id="line2d_89">
      <g>
       <use style="fill:#ffffff;stroke:#000000;stroke-width:0.8;" x="254.618182" xlink:href="#mf83e1f91e7" y="961.2"/>
      </g>
     </g>
     <g id="text_24">
      <!-- 0.4 -->
      <g transform="translate(243.368182 980.493438)scale(0.18 -0.18)">
       <use xlink:href="#STIXGeneral-Regular-48"/>
       <use x="49.999985" xlink:href="#STIXGeneral-Regular-46"/>
       <use x="74.999969" xlink:href="#STIXGeneral-Regular-52"/>
      </g>
     </g>
    </g>
    <g id="xtick_28">
     <g id="line2d_90">
      <g>
       <use style="fill:#ffffff;stroke:#000000;stroke-width:0.8;" x="335.781818" xlink:href="#mf83e1f91e7" y="961.2"/>
      </g>
     </g>
     <g id="text_25">
      <!-- 0.6 -->
      <g transform="translate(324.531818 980.493438)scale(0.18 -0.18)">
       <use xlink:href="#STIXGeneral-Regular-48"/>
       <use x="49.999985" xlink:href="#STIXGeneral-Regular-46"/>
       <use x="74.999969" xlink:href="#STIXGeneral-Regular-54"/>
      </g>
     </g>
    </g>
    <g id="xtick_29">
     <g id="line2d_91">
      <g>
       <use style="fill:#ffffff;stroke:#000000;stroke-width:0.8;" x="416.945455" xlink:href="#mf83e1f91e7" y="961.2"/>
      </g>
     </g>
     <g id="text_26">
      <!-- 0.8 -->
      <g transform="translate(405.695455 980.493438)scale(0.18 -0.18)">
       <use xlink:href="#STIXGeneral-Regular-48"/>
       <use x="49.999985" xlink:href="#STIXGeneral-Regular-46"/>
       <use x="74.999969" xlink:href="#STIXGeneral-Regular-56"/>
      </g>
     </g>
    </g>
    <g id="xtick_30">
     <g id="line2d_92">
      <g>
       <use style="fill:#ffffff;stroke:#000000;stroke-width:0.8;" x="498.109091" xlink:href="#mf83e1f91e7" y="961.2"/>
      </g>
     </g>
     <g id="text_27">
      <!-- 1.0 -->
      <g transform="translate(486.859091 980.493438)scale(0.18 -0.18)">
       <use xlink:href="#STIXGeneral-Regular-49"/>
       <use x="49.999985" xlink:href="#STIXGeneral-Regular-46"/>
       <use x="74.999969" xlink:href="#STIXGeneral-Regular-48"/>
      </g>
     </g>
    </g>
    <g id="text_28">
     <!-- x/c -->
     <g transform="translate(284.201719 1000.693438)scale(0.18 -0.18)">
      <defs>
       <path d="M 47.90625 0 
L 27.796875 0 
L 27.796875 1.5 
Q 30.296875 1.703125 31.046875 2.140625 
Q 31.796875 2.59375 31.796875 3.90625 
Q 31.796875 4.796875 31.203125 5.703125 
L 22.09375 19.703125 
L 14.203125 7.40625 
Q 12.203125 4.296875 12.203125 3.296875 
Q 12.203125 1.5 16.203125 1.5 
L 16.203125 0 
L 1.703125 0 
L 1.703125 1.5 
Q 4.203125 1.703125 5.546875 2.640625 
Q 6.90625 3.59375 9 6.59375 
L 20.40625 23.09375 
L 11 37.5 
Q 8.703125 41 7.09375 42.25 
Q 5.5 43.5 3.296875 43.5 
L 2.40625 43.5 
L 2.40625 45 
L 23.09375 45 
L 23.09375 43.5 
Q 18.796875 43.40625 18.796875 41.296875 
Q 18.796875 39.203125 23.40625 32.40625 
Q 24.703125 30.59375 24.796875 30.40625 
Q 25.296875 31.09375 27.796875 34.796875 
Q 28.296875 35.703125 29 36.703125 
Q 29.703125 37.703125 30.046875 38.296875 
Q 30.40625 38.90625 30.796875 39.5 
Q 31.203125 40.09375 31.34375 40.546875 
Q 31.5 41 31.5 41.296875 
Q 31.5 43.203125 27.5 43.5 
L 27.5 45 
L 43.296875 45 
L 43.296875 43.5 
Q 38.203125 43.296875 35.203125 39.09375 
L 26.90625 27.09375 
L 39.703125 7.5 
Q 43.59375 1.5 47.90625 1.5 
z
" id="STIXGeneral-Regular-120"/>
      </defs>
      <use xlink:href="#STIXGeneral-Regular-120"/>
      <use x="49.999985" xlink:href="#STIXGeneral-Regular-47"/>
      <use x="77.799973" xlink:href="#STIXGeneral-Regular-99"/>
     </g>
    </g>
   </g>
   <g id="matplotlib.axis_10">
    <g id="ytick_13">
     <g id="line2d_93">
      <g>
       <use style="fill:#ffffff;stroke:#000000;stroke-width:0.8;" x="72" xlink:href="#m8a85b8bfd5" y="934.316379"/>
      </g>
     </g>
     <g id="text_29">
      <!-- −5 -->
      <g transform="translate(43.67 940.463098)scale(0.18 -0.18)">
       <use xlink:href="#STIXGeneral-Regular-8722"/>
       <use x="68.499985" xlink:href="#STIXGeneral-Regular-53"/>
      </g>
     </g>
    </g>
    <g id="ytick_14">
     <g id="line2d_94">
      <g>
       <use style="fill:#ffffff;stroke:#000000;stroke-width:0.8;" x="72" xlink:href="#m8a85b8bfd5" y="889.510345"/>
      </g>
     </g>
     <g id="text_30">
      <!-- 0 -->
      <g transform="translate(56 895.657064)scale(0.18 -0.18)">
       <use xlink:href="#STIXGeneral-Regular-48"/>
      </g>
     </g>
    </g>
    <g id="ytick_15">
     <g id="line2d_95">
      <g>
       <use style="fill:#ffffff;stroke:#000000;stroke-width:0.8;" x="72" xlink:href="#m8a85b8bfd5" y="844.70431"/>
      </g>
     </g>
     <g id="text_31">
      <!-- 5 -->
      <g transform="translate(56 850.851029)scale(0.18 -0.18)">
       <use xlink:href="#STIXGeneral-Regular-53"/>
      </g>
     </g>
    </g>
    <g id="text_32">
     <!-- Cp -->
     <g transform="translate(35.763438 900.013626)rotate(-90)scale(0.18 -0.18)">
      <use xlink:href="#STIXGeneral-Regular-67"/>
      <use x="66.699997" xlink:href="#STIXGeneral-Regular-112"/>
     </g>
    </g>
   </g>
   <g id="line2d_96">
    <path clip-path="url(#p801adf1984)" d="M 92.290909 892.498253 
L 98.775866 892.194576 
L 105.17657 892.28477 
L 111.94468 892.347284 
L 118.759377 892.504678 
L 125.573909 892.631677 
L 132.388441 892.614785 
L 139.202973 892.639043 
L 146.017505 892.675246 
L 152.832037 892.704737 
L 159.646569 892.724945 
L 166.461101 892.734515 
L 173.275633 892.734014 
L 180.090165 892.730277 
L 186.904697 892.719254 
L 193.719229 892.703097 
L 200.533761 892.681698 
L 207.348293 892.655092 
L 214.162825 892.623459 
L 220.977357 892.586638 
L 227.791889 892.544735 
L 234.606421 892.497751 
L 241.420953 892.445884 
L 248.235485 892.389097 
L 255.050017 892.327506 
L 261.864549 892.261104 
L 268.679081 892.190059 
L 275.493613 892.114319 
L 282.308145 892.033964 
L 289.122676 891.949075 
L 295.937208 891.859848 
L 302.75174 891.766176 
L 309.566272 891.617528 
L 309.566272 891.718996 
L 316.380804 891.56627 
L 323.195336 891.46059 
L 330.009868 891.350914 
L 336.8244 891.237169 
L 343.638932 891.119652 
L 350.453464 890.998595 
L 357.267996 890.873703 
L 364.082528 890.747852 
L 370.89706 890.621974 
L 377.711592 890.493237 
L 384.526124 890.361106 
L 391.340656 890.227407 
L 398.155188 890.093473 
L 404.96972 889.9619 
L 411.784252 889.830544 
L 418.598784 889.700477 
L 425.413316 889.573761 
L 432.227848 889.451029 
L 439.04238 889.34977 
L 445.856912 889.256703 
L 452.671444 889.237828 
L 459.485976 889.184618 
L 466.300508 889.107348 
L 473.11504 889.231929 
L 479.913878 889.497871 
L 491.01537 891.136858 
L 496.869259 892.582659 
L 498.109091 894.23481 
" style="fill:none;stroke:#1f77b4;stroke-linecap:square;stroke-width:5;"/>
   </g>
   <g id="line2d_97">
    <path clip-path="url(#p801adf1984)" d="M 72 889.510345 
L 518.4 889.510345 
" style="fill:none;stroke:#000000;stroke-dasharray:3.2,0.8,0.5,0.8;stroke-dashoffset:0;stroke-width:0.5;"/>
   </g>
   <g id="line2d_98">
    <path clip-path="url(#p801adf1984)" d="M 92.290909 894.368914 
L 98.98428 894.511469 
L 104.087122 894.675119 
L 109.289847 894.936185 
L 114.505214 895.158791 
L 119.720582 895.228034 
L 124.935949 895.339861 
L 130.151317 895.446517 
L 135.366684 895.557842 
L 140.582052 895.650868 
L 145.79742 895.718257 
L 151.012787 895.790117 
L 156.228155 895.84659 
L 161.443522 895.896361 
L 166.65889 895.938263 
L 171.874257 895.97375 
L 177.089625 896.003483 
L 182.304993 896.028897 
L 187.52036 896.040331 
L 192.735728 896.046067 
L 197.951095 896.046237 
L 203.166463 896.038916 
L 208.381831 896.030134 
L 213.597198 896.011826 
L 218.812566 895.987882 
L 224.027933 895.957799 
L 229.243301 895.921766 
L 234.458668 895.879514 
L 239.674036 895.831374 
L 244.889404 895.777625 
L 250.104771 895.718176 
L 255.320139 895.652607 
L 260.535506 895.581114 
L 265.750874 895.503878 
L 270.966241 895.420879 
L 276.181609 895.331814 
L 281.396977 895.286497 
L 281.396977 895.18692 
L 286.612344 895.135949 
L 291.827712 895.029534 
L 297.043079 894.917035 
L 302.258447 894.798801 
L 307.473814 894.675092 
L 312.689182 894.546059 
L 317.90455 894.41113 
L 323.119917 894.270538 
L 328.335285 894.124811 
L 333.550652 893.973832 
L 338.76602 893.817728 
L 343.981387 893.656686 
L 349.196755 893.490734 
L 354.412123 893.319996 
L 359.62749 893.144473 
L 364.842858 892.964388 
L 370.058225 892.779743 
L 375.273593 892.590805 
L 380.488961 892.397807 
L 385.704328 892.201279 
L 390.919696 892.002152 
L 396.135063 891.79962 
L 401.350431 891.592965 
L 406.565798 891.383954 
L 411.781166 891.172559 
L 416.996534 890.960886 
L 422.211901 890.75192 
L 427.427269 890.54419 
L 432.642636 890.33528 
L 437.858004 890.130772 
L 443.073371 889.925633 
L 448.288739 889.726311 
L 453.504107 889.543563 
L 458.719474 889.373762 
L 463.934842 889.228263 
L 469.150209 889.215112 
L 474.365577 889.105695 
L 479.580944 889.036778 
L 484.783669 889.335306 
L 498.109091 890.127456 
L 498.109091 896.052062 
L 498.109091 896.033154 
" style="fill:none;stroke:#ff7f0e;stroke-linecap:square;stroke-width:5;"/>
   </g>
   <g id="line2d_99">
    <path clip-path="url(#p801adf1984)" d="M 72 889.510345 
L 518.4 889.510345 
" style="fill:none;stroke:#000000;stroke-dasharray:3.2,0.8,0.5,0.8;stroke-dashoffset:0;stroke-width:0.5;"/>
   </g>
   <g id="line2d_100">
    <path clip-path="url(#p801adf1984)" d="M 92.290909 895.705604 
L 97.038715 896.254845 
L 101.386859 896.434374 
L 101.386859 896.672339 
L 105.974016 896.908242 
L 110.59196 897.219895 
L 115.209904 897.39868 
L 119.827848 897.607055 
L 124.445792 897.797992 
L 129.063735 897.984698 
L 133.681679 898.152094 
L 138.299623 898.292247 
L 142.917567 898.42869 
L 147.53551 898.551486 
L 152.153454 898.663949 
L 156.771398 898.765121 
L 161.389342 898.856077 
L 166.007285 898.939058 
L 170.625229 899.01487 
L 175.243173 899.081989 
L 179.861117 899.139789 
L 184.479061 899.189255 
L 189.097004 899.232985 
L 193.714948 899.269726 
L 198.332892 899.296968 
L 202.950836 899.316504 
L 207.568779 899.330035 
L 212.186723 899.336846 
L 216.804667 899.33586 
L 221.422611 899.329318 
L 226.040555 899.311665 
L 230.658498 899.287918 
L 235.276442 899.257091 
L 239.894386 899.218558 
L 244.51233 899.177247 
L 249.130273 899.127064 
L 253.748217 899.069085 
L 258.366161 899.003847 
L 262.984105 898.932785 
L 267.602049 898.854106 
L 272.219992 898.720852 
L 272.219992 898.813511 
L 276.837936 898.674075 
L 281.45588 898.575054 
L 286.073824 898.468935 
L 290.691767 898.356096 
L 295.309711 898.236947 
L 299.927655 898.111204 
L 304.545599 897.97925 
L 309.163542 897.840737 
L 313.781486 897.694499 
L 318.39943 897.542481 
L 323.017374 897.384728 
L 327.635318 897.220298 
L 332.253261 897.04922 
L 336.871205 896.871304 
L 341.489149 896.68768 
L 346.107093 896.497586 
L 350.725036 896.300027 
L 355.34298 896.096644 
L 359.960924 895.887579 
L 364.578868 895.672832 
L 369.196812 895.452109 
L 373.814755 895.225596 
L 378.432699 894.99368 
L 383.050643 894.756271 
L 387.668587 894.513342 
L 392.28653 894.265439 
L 396.904474 894.012464 
L 401.522418 893.754803 
L 406.140362 893.492777 
L 410.758305 893.226486 
L 415.376249 892.955938 
L 419.994193 892.681985 
L 429.230081 892.127071 
L 433.848024 891.848727 
L 438.465968 891.56894 
L 443.083912 891.288553 
L 447.701856 891.005943 
L 452.319799 890.737358 
L 456.937743 890.459426 
L 461.555687 890.307193 
L 461.555687 890.06782 
L 466.173631 889.943034 
L 470.791575 889.727481 
L 475.409518 889.696281 
L 480.027462 889.443478 
L 484.645406 889.298254 
L 489.232004 889.661456 
L 493.577909 890.372612 
L 498.109091 893.615429 
" style="fill:none;stroke:#2ca02c;stroke-linecap:square;stroke-width:5;"/>
   </g>
   <g id="line2d_101">
    <path clip-path="url(#p801adf1984)" d="M 72 889.510345 
L 518.4 889.510345 
" style="fill:none;stroke:#000000;stroke-dasharray:3.2,0.8,0.5,0.8;stroke-dashoffset:0;stroke-width:0.5;"/>
   </g>
   <g id="line2d_102">
    <path clip-path="url(#p801adf1984)" d="M 92.290909 896.662418 
L 96.909131 897.877791 
L 101.065102 898.244797 
L 105.449523 898.824623 
L 105.449523 898.401484 
L 109.86337 898.948198 
L 114.277217 899.20655 
L 118.691064 899.473594 
L 123.104911 899.723612 
L 127.518758 899.964578 
L 131.932605 900.189594 
L 136.346452 900.392476 
L 140.760298 900.584156 
L 145.174145 900.759169 
L 149.587992 900.925489 
L 154.001839 901.080428 
L 158.415686 901.222732 
L 162.829533 901.355089 
L 167.24338 901.478843 
L 171.657227 901.591306 
L 176.071074 901.692926 
L 180.484921 901.785944 
L 184.898768 901.873136 
L 189.312615 901.951099 
L 193.726462 902.023326 
L 198.140309 902.080499 
L 202.554155 902.132922 
L 206.968002 902.172978 
L 211.381849 902.204163 
L 215.795696 902.23024 
L 220.209543 902.247984 
L 224.62339 902.257214 
L 229.037237 902.258647 
L 233.451084 902.252285 
L 237.864931 902.236692 
L 242.278778 902.21644 
L 246.692625 902.185703 
L 251.106472 902.146901 
L 255.520319 902.095912 
L 259.934166 902.041069 
L 264.348012 901.976011 
L 268.761859 901.943034 
L 268.761859 901.866953 
L 273.175706 901.826896 
L 277.589553 901.739973 
L 282.0034 901.644357 
L 286.417247 901.542378 
L 290.831094 901.434037 
L 295.244941 901.316914 
L 299.658788 901.190382 
L 304.072635 901.056501 
L 308.486482 900.917782 
L 312.900329 900.773955 
L 317.314176 900.623675 
L 321.728023 900.454129 
L 326.141869 900.2784 
L 330.555716 900.105897 
L 334.969563 899.922192 
L 339.38341 899.732573 
L 343.797257 899.538294 
L 348.211104 899.324659 
L 352.624951 899.102421 
L 357.038798 898.882782 
L 361.452645 898.653912 
L 365.866492 898.418609 
L 370.280339 898.175429 
L 374.694186 897.923843 
L 379.108033 897.666002 
L 383.52188 897.401494 
L 387.935726 897.129835 
L 392.349573 896.851823 
L 396.76342 896.567421 
L 401.177267 896.276522 
L 405.591114 895.978804 
L 414.418808 895.364621 
L 418.832655 895.048873 
L 423.246502 894.727362 
L 427.660349 894.401148 
L 432.074196 894.070147 
L 436.488043 893.735142 
L 440.90189 893.396336 
L 445.315737 893.054583 
L 449.729583 892.883406 
L 449.729583 892.540837 
L 454.14343 892.364946 
L 458.557277 892.026033 
L 462.971124 891.672137 
L 467.384971 891.319487 
L 471.798818 890.991372 
L 476.212665 890.685365 
L 480.626512 890.531949 
L 485.040359 890.190551 
L 489.42478 889.986199 
L 493.580751 890.386921 
L 498.109091 892.626139 
" style="fill:none;stroke:#d62728;stroke-linecap:square;stroke-width:5;"/>
   </g>
   <g id="line2d_103">
    <path clip-path="url(#p801adf1984)" d="M 72 889.510345 
L 518.4 889.510345 
" style="fill:none;stroke:#000000;stroke-dasharray:3.2,0.8,0.5,0.8;stroke-dashoffset:0;stroke-width:0.5;"/>
   </g>
   <g id="line2d_104">
    <path clip-path="url(#p801adf1984)" d="M 92.290909 898.08501 
L 96.010141 899.639107 
L 100.206364 899.952302 
L 104.633249 900.059209 
L 104.633249 900.265765 
L 109.089846 900.387547 
L 113.546442 900.641956 
L 118.003038 900.907387 
L 122.459634 901.17013 
L 126.91623 901.421043 
L 131.372826 901.669986 
L 135.829422 901.914806 
L 140.286018 902.141166 
L 144.742614 902.348797 
L 149.199211 902.544958 
L 153.655807 902.735563 
L 158.112403 902.917386 
L 162.568999 903.087111 
L 167.025595 903.248054 
L 171.482191 903.398961 
L 175.938787 903.538308 
L 180.395383 903.665736 
L 184.851979 903.785637 
L 189.308575 903.897831 
L 193.765172 903.999631 
L 198.221768 904.091931 
L 202.678364 904.172223 
L 207.13496 904.245168 
L 211.591556 904.308613 
L 216.048152 904.36247 
L 220.504748 904.406917 
L 224.961344 904.440612 
L 229.41794 904.468481 
L 233.874537 904.490884 
L 238.331133 904.502534 
L 242.787729 904.501727 
L 247.244325 904.492676 
L 251.700921 904.478876 
L 256.157517 904.455666 
L 260.614113 904.418567 
L 265.070709 904.37403 
L 269.527305 904.352523 
L 269.527305 904.289526 
L 273.983902 904.259774 
L 278.440498 904.195612 
L 282.897094 904.120069 
L 287.35369 904.029113 
L 291.810286 903.932511 
L 296.266882 903.830443 
L 300.723478 903.718876 
L 305.180074 903.596645 
L 309.63667 903.465991 
L 314.093267 903.329691 
L 318.549863 903.184071 
L 323.006459 903.027788 
L 327.463055 902.862902 
L 331.919651 902.690757 
L 336.376247 902.509651 
L 340.832843 902.320211 
L 345.289439 902.12172 
L 354.202632 901.697855 
L 358.659228 901.474004 
L 363.115824 901.240833 
L 367.57242 900.999598 
L 372.029016 900.750297 
L 376.485612 900.492931 
L 380.942208 900.227948 
L 385.398804 899.953198 
L 389.8554 899.669575 
L 394.311996 899.378874 
L 398.768593 899.078763 
L 403.225189 898.771483 
L 407.681785 898.455404 
L 412.138381 898.12961 
L 416.594977 897.796845 
L 421.051573 897.456077 
L 425.508169 897.10685 
L 429.964765 896.750238 
L 434.421361 896.385454 
L 438.877958 896.013188 
L 443.334554 895.634577 
L 447.79115 895.249084 
L 452.247746 894.656416 
L 452.247746 895.054617 
L 456.704342 894.456205 
L 461.160938 894.039769 
L 465.617534 893.616406 
L 470.07413 893.190318 
L 474.530726 892.76096 
L 478.987323 892.463152 
L 483.443919 892.018802 
L 487.870804 891.568483 
L 492.067027 891.448932 
L 498.109091 892.518837 
" style="fill:none;stroke:#9467bd;stroke-linecap:square;stroke-width:5;"/>
   </g>
   <g id="line2d_105">
    <path clip-path="url(#p801adf1984)" d="M 72 889.510345 
L 518.4 889.510345 
" style="fill:none;stroke:#000000;stroke-dasharray:3.2,0.8,0.5,0.8;stroke-dashoffset:0;stroke-width:0.5;"/>
   </g>
   <g id="patch_23">
    <path d="M 72 961.2 
L 72 817.82069 
" style="fill:none;stroke:#000000;stroke-linecap:square;stroke-linejoin:miter;stroke-width:0.8;"/>
   </g>
   <g id="patch_24">
    <path d="M 518.4 961.2 
L 518.4 817.82069 
" style="fill:none;stroke:#000000;stroke-linecap:square;stroke-linejoin:miter;stroke-width:0.8;"/>
   </g>
   <g id="patch_25">
    <path d="M 72 961.2 
L 518.4 961.2 
" style="fill:none;stroke:#000000;stroke-linecap:square;stroke-linejoin:miter;stroke-width:0.8;"/>
   </g>
   <g id="patch_26">
    <path d="M 72 817.82069 
L 518.4 817.82069 
" style="fill:none;stroke:#000000;stroke-linecap:square;stroke-linejoin:miter;stroke-width:0.8;"/>
   </g>
  </g>
 </g>
 <defs>
  <clipPath id="pdbff5f86bf">
   <rect height="143.37931" width="446.4" x="72" y="129.6"/>
  </clipPath>
  <clipPath id="p551247945c">
   <rect height="143.37931" width="446.4" x="72" y="301.655172"/>
  </clipPath>
  <clipPath id="p048a2cc994">
   <rect height="143.37931" width="446.4" x="72" y="473.710345"/>
  </clipPath>
  <clipPath id="p7a6b18e179">
   <rect height="143.37931" width="446.4" x="72" y="645.765517"/>
  </clipPath>
  <clipPath id="p801adf1984">
   <rect height="143.37931" width="446.4" x="72" y="817.82069"/>
  </clipPath>
 </defs>
</svg>
