<?xml version="1.0" encoding="utf-8" standalone="no"?>
<!DOCTYPE svg PUBLIC "-//W3C//DTD SVG 1.1//EN"
  "http://www.w3.org/Graphics/SVG/1.1/DTD/svg11.dtd">
<!-- Created with matplotlib (https://matplotlib.org/) -->
<svg height="1080pt" version="1.1" viewBox="0 0 576 1080" width="576pt" xmlns="http://www.w3.org/2000/svg" xmlns:xlink="http://www.w3.org/1999/xlink">
 <metadata>
  <rdf:RDF xmlns:cc="http://creativecommons.org/ns#" xmlns:dc="http://purl.org/dc/elements/1.1/" xmlns:rdf="http://www.w3.org/1999/02/22-rdf-syntax-ns#">
   <cc:Work>
    <dc:type rdf:resource="http://purl.org/dc/dcmitype/StillImage"/>
    <dc:date>2022-03-29T00:07:23.065146</dc:date>
    <dc:format>image/svg+xml</dc:format>
    <dc:creator>
     <cc:Agent>
      <dc:title>Matplotlib v3.3.4, https://matplotlib.org/</dc:title>
     </cc:Agent>
    </dc:creator>
   </cc:Work>
  </rdf:RDF>
 </metadata>
 <defs>
  <style type="text/css">*{stroke-linecap:butt;stroke-linejoin:round;}</style>
 </defs>
 <g id="figure_1">
  <g id="patch_1">
   <path d="M 0 1080 
L 576 1080 
L 576 0 
L 0 0 
z
" style="fill:#ffffff;"/>
  </g>
  <g id="axes_1">
   <g id="patch_2">
    <path d="M 72 272.97931 
L 518.4 272.97931 
L 518.4 129.6 
L 72 129.6 
z
" style="fill:#ffffff;"/>
   </g>
   <g id="matplotlib.axis_1">
    <g id="xtick_1">
     <g id="line2d_1">
      <defs>
       <path d="M 0 0 
L 0 3.5 
" id="m2937df8f5a" style="stroke:#000000;stroke-width:0.8;"/>
      </defs>
      <g>
       <use style="fill:#ffffff;stroke:#000000;stroke-width:0.8;" x="92.290909" xlink:href="#m2937df8f5a" y="272.97931"/>
      </g>
     </g>
    </g>
    <g id="xtick_2">
     <g id="line2d_2">
      <g>
       <use style="fill:#ffffff;stroke:#000000;stroke-width:0.8;" x="173.454545" xlink:href="#m2937df8f5a" y="272.97931"/>
      </g>
     </g>
    </g>
    <g id="xtick_3">
     <g id="line2d_3">
      <g>
       <use style="fill:#ffffff;stroke:#000000;stroke-width:0.8;" x="254.618182" xlink:href="#m2937df8f5a" y="272.97931"/>
      </g>
     </g>
    </g>
    <g id="xtick_4">
     <g id="line2d_4">
      <g>
       <use style="fill:#ffffff;stroke:#000000;stroke-width:0.8;" x="335.781818" xlink:href="#m2937df8f5a" y="272.97931"/>
      </g>
     </g>
    </g>
    <g id="xtick_5">
     <g id="line2d_5">
      <g>
       <use style="fill:#ffffff;stroke:#000000;stroke-width:0.8;" x="416.945455" xlink:href="#m2937df8f5a" y="272.97931"/>
      </g>
     </g>
    </g>
    <g id="xtick_6">
     <g id="line2d_6">
      <g>
       <use style="fill:#ffffff;stroke:#000000;stroke-width:0.8;" x="498.109091" xlink:href="#m2937df8f5a" y="272.97931"/>
      </g>
     </g>
    </g>
   </g>
   <g id="matplotlib.axis_2">
    <g id="ytick_1">
     <g id="line2d_7">
      <defs>
       <path d="M 0 0 
L -3.5 0 
" id="m5cf5916e51" style="stroke:#000000;stroke-width:0.8;"/>
      </defs>
      <g>
       <use style="fill:#ffffff;stroke:#000000;stroke-width:0.8;" x="72" xlink:href="#m5cf5916e51" y="246.09569"/>
      </g>
     </g>
     <g id="text_1">
      <!-- −5 -->
      <g transform="translate(43.67 252.242408)scale(0.18 -0.18)">
       <defs>
        <path d="M 62.09375 22 
L 6.40625 22 
L 6.40625 28.59375 
L 62.09375 28.59375 
z
" id="STIXGeneral-Regular-8722"/>
        <path d="M 43.796875 68.09375 
L 40.203125 59.59375 
Q 39.59375 58.296875 37.5 58.296875 
L 18.09375 58.296875 
L 14.09375 49.796875 
Q 25.09375 47.703125 30 45.25 
Q 34.90625 42.796875 39.09375 37 
Q 42.59375 32.203125 42.59375 24.296875 
Q 42.59375 17.09375 40.25 12.1875 
Q 37.90625 7.296875 32.796875 3.5 
Q 26 -1.40625 15.796875 -1.40625 
Q 10.09375 -1.40625 6.59375 0.296875 
Q 3.09375 2 3.09375 4.796875 
Q 3.09375 8.59375 7.59375 8.59375 
Q 11.203125 8.59375 15 5.5 
Q 18.90625 2.296875 22.09375 2.296875 
Q 27.296875 2.296875 31.4375 7.5 
Q 35.59375 12.703125 35.59375 19.203125 
Q 35.59375 28.796875 28.90625 34.203125 
Q 20.203125 41.203125 7.59375 41.203125 
Q 6.40625 41.203125 6.40625 42 
L 6.5 42.5 
L 17.40625 66.203125 
L 38.09375 66.203125 
Q 39.796875 66.203125 40.75 66.703125 
Q 41.703125 67.203125 42.90625 68.796875 
z
" id="STIXGeneral-Regular-53"/>
       </defs>
       <use xlink:href="#STIXGeneral-Regular-8722"/>
       <use x="68.499985" xlink:href="#STIXGeneral-Regular-53"/>
      </g>
     </g>
    </g>
    <g id="ytick_2">
     <g id="line2d_8">
      <g>
       <use style="fill:#ffffff;stroke:#000000;stroke-width:0.8;" x="72" xlink:href="#m5cf5916e51" y="201.289655"/>
      </g>
     </g>
     <g id="text_2">
      <!-- 0 -->
      <g transform="translate(56 207.436374)scale(0.18 -0.18)">
       <defs>
        <path d="M 47.59375 33 
Q 47.59375 26.296875 46.296875 20.34375 
Q 45 14.40625 42.453125 9.40625 
Q 39.90625 4.40625 35.40625 1.5 
Q 30.90625 -1.40625 25 -1.40625 
Q 18.90625 -1.40625 14.296875 1.6875 
Q 9.703125 4.796875 7.203125 10 
Q 4.703125 15.203125 3.546875 21.09375 
Q 2.40625 27 2.40625 33.59375 
Q 2.40625 42.90625 4.703125 50.34375 
Q 7 57.796875 12.34375 62.6875 
Q 17.703125 67.59375 25.40625 67.59375 
Q 35.203125 67.59375 41.390625 58 
Q 47.59375 48.40625 47.59375 33 
z
M 38 32.5 
Q 38 48.296875 34.640625 56.640625 
Q 31.296875 65 24.796875 65 
Q 18.59375 65 15.296875 56.59375 
Q 12 48.203125 12 32.90625 
Q 12 17.5 15.296875 9.34375 
Q 18.59375 1.203125 25 1.203125 
Q 31.296875 1.203125 34.640625 9.34375 
Q 38 17.5 38 32.5 
z
" id="STIXGeneral-Regular-48"/>
       </defs>
       <use xlink:href="#STIXGeneral-Regular-48"/>
      </g>
     </g>
    </g>
    <g id="ytick_3">
     <g id="line2d_9">
      <g>
       <use style="fill:#ffffff;stroke:#000000;stroke-width:0.8;" x="72" xlink:href="#m5cf5916e51" y="156.483621"/>
      </g>
     </g>
     <g id="text_3">
      <!-- 5 -->
      <g transform="translate(56 162.630339)scale(0.18 -0.18)">
       <use xlink:href="#STIXGeneral-Regular-53"/>
      </g>
     </g>
    </g>
    <g id="text_4">
     <!-- Cp -->
     <g transform="translate(35.763438 211.792936)rotate(-90)scale(0.18 -0.18)">
      <defs>
       <path d="M 61.40625 13.09375 
L 63.296875 11.296875 
Q 54.40625 -1.40625 36 -1.40625 
Q 21.5 -1.40625 12.40625 7.5 
Q 2.796875 16.90625 2.796875 32.5 
Q 2.796875 47.09375 11.796875 57.203125 
Q 21.203125 67.59375 36.09375 67.59375 
Q 42.5 67.59375 48 66.09375 
Q 54.296875 64.296875 54.90625 64.296875 
Q 58.203125 64.296875 59.09375 67.59375 
L 61.09375 67.59375 
L 62 44.90625 
L 59.703125 44.90625 
Q 58.09375 52.09375 54.5 56 
Q 47.40625 63.59375 38.40625 63.59375 
Q 27.296875 63.59375 20.84375 55.4375 
Q 14.40625 47.296875 14.40625 34.09375 
Q 14.40625 18 21.59375 10.203125 
Q 28.296875 3 39.40625 3 
Q 46 3 50.796875 5.296875 
Q 55.59375 7.59375 61.40625 13.09375 
z
" id="STIXGeneral-Regular-67"/>
       <path d="M 15.90625 45.796875 
L 15.90625 38.09375 
Q 22.203125 46 30.296875 46 
Q 37.59375 46 42.296875 40 
Q 47 34 47 24.703125 
Q 47 13.796875 40.953125 6.390625 
Q 34.90625 -1 26 -1 
Q 22.90625 -1 20.75 -0.09375 
Q 18.59375 0.796875 15.90625 3.296875 
L 15.90625 -12.40625 
Q 15.90625 -17.09375 17.5 -18.4375 
Q 19.09375 -19.796875 24.703125 -19.90625 
L 24.703125 -21.703125 
L 0.5 -21.703125 
L 0.5 -20 
Q 4.90625 -19.59375 6.203125 -18.296875 
Q 7.5 -17 7.5 -13.09375 
L 7.5 33.703125 
Q 7.5 37.203125 6.703125 38.296875 
Q 5.90625 39.40625 3.40625 39.40625 
Q 1.796875 39.40625 0.90625 39.296875 
L 0.90625 40.90625 
Q 7.90625 43 15.296875 46 
z
M 15.90625 33.40625 
L 15.90625 8.796875 
Q 15.90625 6.59375 19.34375 4.390625 
Q 22.796875 2.203125 26.296875 2.203125 
Q 31.703125 2.203125 35.046875 7.296875 
Q 38.40625 12.40625 38.40625 20.703125 
Q 38.40625 29.5 35.046875 34.75 
Q 31.703125 40 26.09375 40 
Q 22.59375 40 19.25 37.796875 
Q 15.90625 35.59375 15.90625 33.40625 
z
" id="STIXGeneral-Regular-112"/>
      </defs>
      <use xlink:href="#STIXGeneral-Regular-67"/>
      <use x="66.699997" xlink:href="#STIXGeneral-Regular-112"/>
     </g>
    </g>
   </g>
   <g id="line2d_10">
    <path clip-path="url(#p40bba2f3aa)" d="M 92.290909 186.436903 
L 100.589459 165.081451 
L 106.881 164.520927 
L 120.200309 165.536859 
L 126.882237 166.932567 
L 133.564165 168.04537 
L 140.246093 168.97868 
L 146.928021 169.873994 
L 153.609949 170.750848 
L 160.291877 171.629046 
L 166.973804 172.477583 
L 173.655732 173.262047 
L 180.33766 174.038177 
L 187.019588 174.793965 
L 193.701531 175.53443 
L 200.38346 176.260646 
L 207.065372 176.973779 
L 213.747299 177.675979 
L 220.429227 178.365454 
L 227.111155 179.043907 
L 233.793083 179.714474 
L 240.475011 180.381815 
L 247.156939 181.050859 
L 253.838867 181.72044 
L 260.520794 182.381867 
L 267.202722 183.030031 
L 273.88465 183.675417 
L 280.566578 184.324746 
L 287.248506 184.97533 
L 293.930434 185.627706 
L 300.612362 186.282322 
L 307.294289 187.268861 
L 307.294289 186.611378 
L 313.976217 187.601949 
L 320.658145 188.269022 
L 327.340073 188.942277 
L 334.022001 189.623329 
L 340.703929 190.312983 
L 347.385857 191.012495 
L 354.067784 191.723656 
L 360.749712 192.448116 
L 367.43164 193.187541 
L 374.113568 193.943795 
L 380.795496 194.719038 
L 387.477424 195.516344 
L 394.159352 196.338597 
L 400.841279 197.188236 
L 407.523207 198.074831 
L 414.205135 198.976212 
L 420.887063 199.961524 
L 427.568991 200.950827 
L 434.250919 202.026537 
L 440.932847 203.210436 
L 447.614774 204.439681 
L 454.296702 205.949321 
L 460.97863 208.030329 
L 467.660558 209.407684 
L 474.342486 210.64641 
L 481.007405 213.451716 
L 487.540306 217.289173 
L 498.109091 223.887399 
L 498.109091 224.394156 
" style="fill:none;stroke:#1f77b4;stroke-linecap:square;stroke-width:5;"/>
   </g>
   <g id="line2d_11">
    <path clip-path="url(#p40bba2f3aa)" d="M 72 201.289655 
L 518.4 201.289655 
" style="fill:none;stroke:#000000;stroke-dasharray:3.2,0.8,0.5,0.8;stroke-dashoffset:0;stroke-width:0.5;"/>
   </g>
   <g id="line2d_12">
    <path clip-path="url(#p40bba2f3aa)" d="M 92.290909 186.085086 
L 97.026395 157.95523 
L 105.96607 150.019633 
L 123.458227 150.539383 
L 132.238683 151.341501 
L 141.019138 153.191453 
L 149.799594 154.674084 
L 158.580049 156.060114 
L 167.360505 157.212525 
L 176.14096 158.451143 
L 184.921416 159.82866 
L 193.701876 161.001413 
L 202.482327 162.193433 
L 211.262783 163.357852 
L 220.043238 164.512056 
L 228.823694 165.654699 
L 237.604149 166.789546 
L 246.384605 167.91839 
L 255.165061 169.044544 
L 263.945516 170.170072 
L 272.725972 171.29784 
L 281.506427 172.430536 
L 290.286883 173.571477 
L 299.067338 174.72344 
L 307.847794 175.8901 
L 316.628249 177.074861 
L 325.408705 178.282025 
L 334.189161 179.515894 
L 342.969616 181.421943 
L 342.969616 180.142013 
L 351.750072 182.085341 
L 360.530527 183.434182 
L 369.310983 184.831413 
L 378.091438 186.303202 
L 386.871894 187.787894 
L 395.65235 189.545725 
L 404.432805 191.086873 
L 413.213261 192.847777 
L 421.993716 195.08928 
L 430.774172 197.205012 
L 439.554627 199.793707 
L 448.335083 203.24111 
L 457.115539 205.944482 
L 465.895994 208.427946 
L 474.672192 213.351708 
L 483.391983 220.151114 
L 492.161796 228.022728 
L 498.109091 237.81195 
" style="fill:none;stroke:#ff7f0e;stroke-linecap:square;stroke-width:5;"/>
   </g>
   <g id="line2d_13">
    <path clip-path="url(#p40bba2f3aa)" d="M 72 201.289655 
L 518.4 201.289655 
" style="fill:none;stroke:#000000;stroke-dasharray:3.2,0.8,0.5,0.8;stroke-dashoffset:0;stroke-width:0.5;"/>
   </g>
   <g id="patch_3">
    <path d="M 72 272.97931 
L 72 129.6 
" style="fill:none;stroke:#000000;stroke-linecap:square;stroke-linejoin:miter;stroke-width:0.8;"/>
   </g>
   <g id="patch_4">
    <path d="M 518.4 272.97931 
L 518.4 129.6 
" style="fill:none;stroke:#000000;stroke-linecap:square;stroke-linejoin:miter;stroke-width:0.8;"/>
   </g>
   <g id="patch_5">
    <path d="M 72 272.97931 
L 518.4 272.97931 
" style="fill:none;stroke:#000000;stroke-linecap:square;stroke-linejoin:miter;stroke-width:0.8;"/>
   </g>
   <g id="patch_6">
    <path d="M 72 129.6 
L 518.4 129.6 
" style="fill:none;stroke:#000000;stroke-linecap:square;stroke-linejoin:miter;stroke-width:0.8;"/>
   </g>
   <g id="legend_1">
    <g id="line2d_14">
     <path d="M 178.39674 148.3425 
L 208.38474 148.3425 
" style="fill:none;stroke:#1f77b4;stroke-linecap:square;stroke-width:5;"/>
    </g>
    <g id="line2d_15"/>
    <g id="text_5">
     <!-- r/c = 3.12 -->
     <g transform="translate(220.37994 153.5904)scale(0.14994 -0.14994)">
      <defs>
       <path d="M 16 45.796875 
L 16 36.59375 
Q 19.796875 42 22.34375 44 
Q 24.90625 46 28 46 
Q 30.59375 46 32.046875 44.59375 
Q 33.5 43.203125 33.5 40.703125 
Q 33.5 38.59375 32.453125 37.390625 
Q 31.40625 36.203125 29.59375 36.203125 
Q 27.703125 36.203125 25.59375 38.203125 
Q 24 39.703125 23 39.703125 
Q 20.90625 39.703125 18.453125 36.796875 
Q 16 33.90625 16 31.5 
L 16 9 
Q 16 4.703125 17.703125 3.203125 
Q 19.40625 1.703125 24.5 1.5 
L 24.5 0 
L 0.5 0 
L 0.5 1.5 
Q 5.296875 2.40625 6.4375 3.5 
Q 7.59375 4.59375 7.59375 8.40625 
L 7.59375 33.40625 
Q 7.59375 36.703125 6.84375 38.046875 
Q 6.09375 39.40625 4.203125 39.40625 
Q 2.59375 39.40625 0.703125 39 
L 0.703125 40.59375 
Q 7 42.59375 15.5 46 
z
" id="STIXGeneral-Regular-114"/>
       <path d="M 28.703125 67.59375 
L 5.90625 -1.40625 
L -0.90625 -1.40625 
L 22 67.59375 
z
" id="STIXGeneral-Regular-47"/>
       <path d="M 39.796875 15.59375 
L 41.203125 14.703125 
Q 36.90625 6.296875 33 3.203125 
Q 27.90625 -1 21.5 -1 
Q 13.203125 -1 7.84375 5.25 
Q 2.5 11.5 2.5 21.203125 
Q 2.5 33.90625 10.90625 40.90625 
Q 17.09375 46 24.40625 46 
Q 30.703125 46 35.25 42.953125 
Q 39.796875 39.90625 39.796875 35.703125 
Q 39.796875 34 38.390625 32.75 
Q 37 31.5 35.09375 31.5 
Q 31.59375 31.5 30.296875 36.09375 
L 29.703125 38.296875 
Q 28.90625 41.09375 27.703125 42.09375 
Q 26.5 43.09375 23.796875 43.09375 
Q 17.703125 43.09375 13.953125 38.296875 
Q 10.203125 33.5 10.203125 25.703125 
Q 10.203125 17.09375 14.5 11.640625 
Q 18.796875 6.203125 25.703125 6.203125 
Q 30 6.203125 33.09375 8.25 
Q 36.203125 10.296875 39.796875 15.59375 
z
" id="STIXGeneral-Regular-99"/>
       <path id="STIXGeneral-Regular-32"/>
       <path d="M 63.703125 32 
L 4.796875 32 
L 4.796875 38.59375 
L 63.703125 38.59375 
z
M 63.703125 12 
L 4.796875 12 
L 4.796875 18.59375 
L 63.703125 18.59375 
z
" id="STIXGeneral-Regular-61"/>
       <path d="M 6.09375 51 
L 4.5 51.40625 
Q 6.796875 58.90625 11.6875 63.25 
Q 16.59375 67.59375 24.09375 67.59375 
Q 31.09375 67.59375 35.390625 63.796875 
Q 39.703125 60 39.703125 53.90625 
Q 39.703125 45.703125 30.40625 40.09375 
Q 35.90625 37.703125 38.703125 34.796875 
Q 43.09375 29.90625 43.09375 21.90625 
Q 43.09375 13.90625 38.5 7.90625 
Q 35.09375 3.296875 28.75 0.9375 
Q 22.40625 -1.40625 15.296875 -1.40625 
Q 4.09375 -1.40625 4.09375 4.296875 
Q 4.09375 5.90625 5.296875 6.90625 
Q 6.5 7.90625 8.203125 7.90625 
Q 10.703125 7.90625 14.296875 5.296875 
Q 18.703125 2.203125 22.90625 2.203125 
Q 28.40625 2.203125 32.15625 6.640625 
Q 35.90625 11.09375 35.90625 17.5 
Q 35.90625 29 25.5 32 
Q 22.40625 33 15.296875 33 
L 15.296875 34.40625 
Q 20.90625 36.296875 23.703125 38 
Q 31.796875 42.59375 31.796875 51.40625 
Q 31.796875 56.40625 28.9375 59 
Q 26.09375 61.59375 21 61.59375 
Q 12 61.59375 6.09375 51 
z
" id="STIXGeneral-Regular-51"/>
       <path d="M 18.09375 4.296875 
Q 18.09375 2.09375 16.4375 0.5 
Q 14.796875 -1.09375 12.5 -1.09375 
Q 10.203125 -1.09375 8.59375 0.5 
Q 7 2.09375 7 4.390625 
Q 7 6.703125 8.640625 8.34375 
Q 10.296875 10 12.59375 10 
Q 14.796875 10 16.4375 8.296875 
Q 18.09375 6.59375 18.09375 4.296875 
z
" id="STIXGeneral-Regular-46"/>
       <path d="M 39.40625 0 
L 11.796875 0 
L 11.796875 1.5 
Q 17.296875 1.796875 19.296875 3.546875 
Q 21.296875 5.296875 21.296875 9.5 
L 21.296875 54.40625 
Q 21.296875 59.296875 18.296875 59.296875 
Q 16.90625 59.296875 13.796875 58.09375 
L 11.09375 57.09375 
L 11.09375 58.5 
L 29 67.59375 
L 29.90625 67.296875 
L 29.90625 7.59375 
Q 29.90625 4.296875 31.90625 2.890625 
Q 33.90625 1.5 39.40625 1.5 
z
" id="STIXGeneral-Regular-49"/>
       <path d="M 47.40625 13.703125 
L 42 0 
L 2.90625 0 
L 2.90625 1.203125 
L 20.703125 20.09375 
Q 27.703125 27.40625 30.703125 33.5 
Q 33.703125 39.59375 33.703125 46.09375 
Q 33.703125 52.796875 30 56.5 
Q 26.296875 60.203125 19.796875 60.203125 
Q 14.40625 60.203125 11.25 57.390625 
Q 8.09375 54.59375 5.09375 47.203125 
L 3 47.703125 
Q 4.703125 57 9.84375 62.296875 
Q 15 67.59375 23.796875 67.59375 
Q 32.09375 67.59375 37.1875 62.59375 
Q 42.296875 57.59375 42.296875 50 
Q 42.296875 38.703125 29.5 25.203125 
L 13 7.59375 
L 36.40625 7.59375 
Q 39.703125 7.59375 41.640625 8.890625 
Q 43.59375 10.203125 46 14.296875 
z
" id="STIXGeneral-Regular-50"/>
      </defs>
      <use xlink:href="#STIXGeneral-Regular-114"/>
      <use x="33.299988" xlink:href="#STIXGeneral-Regular-47"/>
      <use x="61.099976" xlink:href="#STIXGeneral-Regular-99"/>
      <use x="105.499969" xlink:href="#STIXGeneral-Regular-32"/>
      <use x="130.499954" xlink:href="#STIXGeneral-Regular-61"/>
      <use x="198.999939" xlink:href="#STIXGeneral-Regular-32"/>
      <use x="223.999924" xlink:href="#STIXGeneral-Regular-51"/>
      <use x="273.999908" xlink:href="#STIXGeneral-Regular-46"/>
      <use x="298.999893" xlink:href="#STIXGeneral-Regular-49"/>
      <use x="348.999878" xlink:href="#STIXGeneral-Regular-50"/>
     </g>
    </g>
    <g id="line2d_16">
     <path d="M 310.194 148.3425 
L 340.182 148.3425 
" style="fill:none;stroke:#ff7f0e;stroke-linecap:square;stroke-width:5;"/>
    </g>
    <g id="line2d_17"/>
    <g id="text_6">
     <!-- r/c = 3.65 -->
     <g transform="translate(352.1772 153.5904)scale(0.14994 -0.14994)">
      <defs>
       <path d="M 44.59375 68.40625 
L 44.796875 66.796875 
Q 33 64.90625 25.09375 57.25 
Q 17.203125 49.59375 15.203125 38.296875 
Q 21 42.796875 27.90625 42.796875 
Q 36.703125 42.796875 41.75 37.1875 
Q 46.796875 31.59375 46.796875 21.90625 
Q 46.796875 12.09375 41.703125 5.90625 
Q 35.796875 -1.40625 25.796875 -1.40625 
Q 13.59375 -1.40625 8.09375 8.703125 
Q 3.40625 17.296875 3.40625 27.90625 
Q 3.40625 44.296875 14.296875 55.5 
Q 20.5 61.90625 27.046875 64.546875 
Q 33.59375 67.203125 44.59375 68.40625 
z
M 37.796875 18.796875 
Q 37.796875 38.203125 24.296875 38.203125 
Q 19.296875 38.203125 16 35.546875 
Q 12.703125 32.90625 12.703125 26.59375 
Q 12.703125 14.90625 16.34375 8.15625 
Q 20 1.40625 26.90625 1.40625 
Q 32.203125 1.40625 35 6.15625 
Q 37.796875 10.90625 37.796875 18.796875 
z
" id="STIXGeneral-Regular-54"/>
      </defs>
      <use xlink:href="#STIXGeneral-Regular-114"/>
      <use x="33.299988" xlink:href="#STIXGeneral-Regular-47"/>
      <use x="61.099976" xlink:href="#STIXGeneral-Regular-99"/>
      <use x="105.499969" xlink:href="#STIXGeneral-Regular-32"/>
      <use x="130.499954" xlink:href="#STIXGeneral-Regular-61"/>
      <use x="198.999939" xlink:href="#STIXGeneral-Regular-32"/>
      <use x="223.999924" xlink:href="#STIXGeneral-Regular-51"/>
      <use x="273.999908" xlink:href="#STIXGeneral-Regular-46"/>
      <use x="298.999893" xlink:href="#STIXGeneral-Regular-54"/>
      <use x="348.999878" xlink:href="#STIXGeneral-Regular-53"/>
     </g>
    </g>
   </g>
  </g>
  <g id="axes_2">
   <g id="patch_7">
    <path d="M 72 445.034483 
L 518.4 445.034483 
L 518.4 301.655172 
L 72 301.655172 
z
" style="fill:#ffffff;"/>
   </g>
   <g id="matplotlib.axis_3">
    <g id="xtick_7">
     <g id="line2d_18">
      <g>
       <use style="fill:#ffffff;stroke:#000000;stroke-width:0.8;" x="92.290909" xlink:href="#m2937df8f5a" y="445.034483"/>
      </g>
     </g>
    </g>
    <g id="xtick_8">
     <g id="line2d_19">
      <g>
       <use style="fill:#ffffff;stroke:#000000;stroke-width:0.8;" x="173.454545" xlink:href="#m2937df8f5a" y="445.034483"/>
      </g>
     </g>
    </g>
    <g id="xtick_9">
     <g id="line2d_20">
      <g>
       <use style="fill:#ffffff;stroke:#000000;stroke-width:0.8;" x="254.618182" xlink:href="#m2937df8f5a" y="445.034483"/>
      </g>
     </g>
    </g>
    <g id="xtick_10">
     <g id="line2d_21">
      <g>
       <use style="fill:#ffffff;stroke:#000000;stroke-width:0.8;" x="335.781818" xlink:href="#m2937df8f5a" y="445.034483"/>
      </g>
     </g>
    </g>
    <g id="xtick_11">
     <g id="line2d_22">
      <g>
       <use style="fill:#ffffff;stroke:#000000;stroke-width:0.8;" x="416.945455" xlink:href="#m2937df8f5a" y="445.034483"/>
      </g>
     </g>
    </g>
    <g id="xtick_12">
     <g id="line2d_23">
      <g>
       <use style="fill:#ffffff;stroke:#000000;stroke-width:0.8;" x="498.109091" xlink:href="#m2937df8f5a" y="445.034483"/>
      </g>
     </g>
    </g>
   </g>
   <g id="matplotlib.axis_4">
    <g id="ytick_4">
     <g id="line2d_24">
      <g>
       <use style="fill:#ffffff;stroke:#000000;stroke-width:0.8;" x="72" xlink:href="#m5cf5916e51" y="418.150862"/>
      </g>
     </g>
     <g id="text_7">
      <!-- −5 -->
      <g transform="translate(43.67 424.297581)scale(0.18 -0.18)">
       <use xlink:href="#STIXGeneral-Regular-8722"/>
       <use x="68.499985" xlink:href="#STIXGeneral-Regular-53"/>
      </g>
     </g>
    </g>
    <g id="ytick_5">
     <g id="line2d_25">
      <g>
       <use style="fill:#ffffff;stroke:#000000;stroke-width:0.8;" x="72" xlink:href="#m5cf5916e51" y="373.344828"/>
      </g>
     </g>
     <g id="text_8">
      <!-- 0 -->
      <g transform="translate(56 379.491546)scale(0.18 -0.18)">
       <use xlink:href="#STIXGeneral-Regular-48"/>
      </g>
     </g>
    </g>
    <g id="ytick_6">
     <g id="line2d_26">
      <g>
       <use style="fill:#ffffff;stroke:#000000;stroke-width:0.8;" x="72" xlink:href="#m5cf5916e51" y="328.538793"/>
      </g>
     </g>
     <g id="text_9">
      <!-- 5 -->
      <g transform="translate(56 334.685512)scale(0.18 -0.18)">
       <use xlink:href="#STIXGeneral-Regular-53"/>
      </g>
     </g>
    </g>
    <g id="text_10">
     <!-- Cp -->
     <g transform="translate(35.763438 383.848109)rotate(-90)scale(0.18 -0.18)">
      <use xlink:href="#STIXGeneral-Regular-67"/>
      <use x="66.699997" xlink:href="#STIXGeneral-Regular-112"/>
     </g>
    </g>
   </g>
   <g id="line2d_27">
    <path clip-path="url(#p0f7c70bb48)" d="M 92.290909 366.664042 
L 100.589459 342.223631 
L 106.881 340.456571 
L 120.200309 340.421085 
L 126.882237 341.455746 
L 133.564165 342.419434 
L 140.246093 343.296288 
L 146.928021 344.169199 
L 153.609949 345.024546 
L 160.291877 345.888586 
L 166.973804 346.74223 
L 173.655732 347.542556 
L 180.33766 348.33625 
L 187.01958 349.113366 
L 193.701509 349.877757 
L 200.383419 350.63005 
L 207.065372 351.370425 
L 213.747299 352.100494 
L 220.429227 352.818018 
L 227.111155 353.52452 
L 233.793083 354.222239 
L 240.475011 354.916106 
L 247.156939 355.61275 
L 253.838867 356.308677 
L 260.520794 356.996181 
L 267.202722 357.670153 
L 273.88465 358.339735 
L 280.566578 359.012811 
L 287.248506 359.686156 
L 293.930434 360.360845 
L 300.612362 361.037058 
L 307.294289 362.055141 
L 307.294289 361.376957 
L 313.976217 362.398803 
L 320.658145 363.086934 
L 327.340073 363.781607 
L 334.022001 364.48447 
L 340.703929 365.197119 
L 347.385857 365.92148 
L 354.067784 366.659489 
L 360.749712 367.413503 
L 367.43164 368.186058 
L 374.113568 368.980281 
L 380.795496 369.799577 
L 387.477424 370.647917 
L 394.159352 371.530425 
L 400.841279 372.452276 
L 407.523207 373.424675 
L 414.205135 374.431096 
L 420.887063 375.545109 
L 427.568991 376.684768 
L 434.250919 377.936926 
L 440.932847 379.330331 
L 447.614774 380.827928 
L 454.296702 382.697639 
L 460.97863 385.267624 
L 467.660558 387.052248 
L 474.342486 388.832123 
L 481.007405 392.70892 
L 487.540306 398.297039 
L 498.109091 407.986075 
L 498.109091 408.771436 
" style="fill:none;stroke:#1f77b4;stroke-linecap:square;stroke-width:5;"/>
   </g>
   <g id="line2d_28">
    <path clip-path="url(#p0f7c70bb48)" d="M 72 373.344828 
L 518.4 373.344828 
" style="fill:none;stroke:#000000;stroke-dasharray:3.2,0.8,0.5,0.8;stroke-dashoffset:0;stroke-width:0.5;"/>
   </g>
   <g id="line2d_29">
    <path clip-path="url(#p0f7c70bb48)" d="M 92.290909 360.350719 
L 97.026289 334.293053 
L 105.96607 326.466783 
L 123.458227 326.353424 
L 132.238683 327.108853 
L 141.019138 328.767483 
L 149.799594 330.194824 
L 158.580049 331.575119 
L 167.360505 332.772515 
L 176.14096 334.038823 
L 184.921459 335.419477 
L 193.701891 336.635154 
L 202.482359 337.864542 
L 211.262783 339.070093 
L 220.043238 340.266862 
L 228.823694 341.454043 
L 237.604149 342.635757 
L 246.384605 343.813529 
L 255.165061 344.990673 
L 263.945516 346.16943 
L 272.725972 347.353026 
L 281.506427 348.544419 
L 290.286883 349.746923 
L 299.067338 350.964303 
L 307.847794 352.200681 
L 316.628249 353.459999 
L 325.408705 354.747276 
L 334.189161 356.067621 
L 342.969616 358.115167 
L 342.969616 356.739084 
L 351.750072 358.832063 
L 360.530527 360.291486 
L 369.310983 361.809156 
L 378.091438 363.414197 
L 386.871894 365.042269 
L 395.65235 367.001575 
L 404.432805 368.744592 
L 413.213261 370.678689 
L 421.993716 373.150484 
L 430.774172 375.54527 
L 439.554627 378.467179 
L 448.335083 382.33238 
L 457.115539 385.475882 
L 465.895994 388.484876 
L 474.672192 394.270231 
L 483.391983 402.330927 
L 492.161796 411.810539 
L 498.109091 423.692114 
" style="fill:none;stroke:#ff7f0e;stroke-linecap:square;stroke-width:5;"/>
   </g>
   <g id="line2d_30">
    <path clip-path="url(#p0f7c70bb48)" d="M 72 373.344828 
L 518.4 373.344828 
" style="fill:none;stroke:#000000;stroke-dasharray:3.2,0.8,0.5,0.8;stroke-dashoffset:0;stroke-width:0.5;"/>
   </g>
   <g id="patch_8">
    <path d="M 72 445.034483 
L 72 301.655172 
" style="fill:none;stroke:#000000;stroke-linecap:square;stroke-linejoin:miter;stroke-width:0.8;"/>
   </g>
   <g id="patch_9">
    <path d="M 518.4 445.034483 
L 518.4 301.655172 
" style="fill:none;stroke:#000000;stroke-linecap:square;stroke-linejoin:miter;stroke-width:0.8;"/>
   </g>
   <g id="patch_10">
    <path d="M 72 445.034483 
L 518.4 445.034483 
" style="fill:none;stroke:#000000;stroke-linecap:square;stroke-linejoin:miter;stroke-width:0.8;"/>
   </g>
   <g id="patch_11">
    <path d="M 72 301.655172 
L 518.4 301.655172 
" style="fill:none;stroke:#000000;stroke-linecap:square;stroke-linejoin:miter;stroke-width:0.8;"/>
   </g>
  </g>
  <g id="axes_3">
   <g id="patch_12">
    <path d="M 72 617.089655 
L 518.4 617.089655 
L 518.4 473.710345 
L 72 473.710345 
z
" style="fill:#ffffff;"/>
   </g>
   <g id="matplotlib.axis_5">
    <g id="xtick_13">
     <g id="line2d_31">
      <g>
       <use style="fill:#ffffff;stroke:#000000;stroke-width:0.8;" x="92.290909" xlink:href="#m2937df8f5a" y="617.089655"/>
      </g>
     </g>
    </g>
    <g id="xtick_14">
     <g id="line2d_32">
      <g>
       <use style="fill:#ffffff;stroke:#000000;stroke-width:0.8;" x="173.454545" xlink:href="#m2937df8f5a" y="617.089655"/>
      </g>
     </g>
    </g>
    <g id="xtick_15">
     <g id="line2d_33">
      <g>
       <use style="fill:#ffffff;stroke:#000000;stroke-width:0.8;" x="254.618182" xlink:href="#m2937df8f5a" y="617.089655"/>
      </g>
     </g>
    </g>
    <g id="xtick_16">
     <g id="line2d_34">
      <g>
       <use style="fill:#ffffff;stroke:#000000;stroke-width:0.8;" x="335.781818" xlink:href="#m2937df8f5a" y="617.089655"/>
      </g>
     </g>
    </g>
    <g id="xtick_17">
     <g id="line2d_35">
      <g>
       <use style="fill:#ffffff;stroke:#000000;stroke-width:0.8;" x="416.945455" xlink:href="#m2937df8f5a" y="617.089655"/>
      </g>
     </g>
    </g>
    <g id="xtick_18">
     <g id="line2d_36">
      <g>
       <use style="fill:#ffffff;stroke:#000000;stroke-width:0.8;" x="498.109091" xlink:href="#m2937df8f5a" y="617.089655"/>
      </g>
     </g>
    </g>
   </g>
   <g id="matplotlib.axis_6">
    <g id="ytick_7">
     <g id="line2d_37">
      <g>
       <use style="fill:#ffffff;stroke:#000000;stroke-width:0.8;" x="72" xlink:href="#m5cf5916e51" y="590.206034"/>
      </g>
     </g>
     <g id="text_11">
      <!-- −5 -->
      <g transform="translate(43.67 596.352753)scale(0.18 -0.18)">
       <use xlink:href="#STIXGeneral-Regular-8722"/>
       <use x="68.499985" xlink:href="#STIXGeneral-Regular-53"/>
      </g>
     </g>
    </g>
    <g id="ytick_8">
     <g id="line2d_38">
      <g>
       <use style="fill:#ffffff;stroke:#000000;stroke-width:0.8;" x="72" xlink:href="#m5cf5916e51" y="545.4"/>
      </g>
     </g>
     <g id="text_12">
      <!-- 0 -->
      <g transform="translate(56 551.546719)scale(0.18 -0.18)">
       <use xlink:href="#STIXGeneral-Regular-48"/>
      </g>
     </g>
    </g>
    <g id="ytick_9">
     <g id="line2d_39">
      <g>
       <use style="fill:#ffffff;stroke:#000000;stroke-width:0.8;" x="72" xlink:href="#m5cf5916e51" y="500.593966"/>
      </g>
     </g>
     <g id="text_13">
      <!-- 5 -->
      <g transform="translate(56 506.740684)scale(0.18 -0.18)">
       <use xlink:href="#STIXGeneral-Regular-53"/>
      </g>
     </g>
    </g>
    <g id="text_14">
     <!-- Cp -->
     <g transform="translate(35.763438 555.903281)rotate(-90)scale(0.18 -0.18)">
      <use xlink:href="#STIXGeneral-Regular-67"/>
      <use x="66.699997" xlink:href="#STIXGeneral-Regular-112"/>
     </g>
    </g>
   </g>
   <g id="line2d_40">
    <path clip-path="url(#p559fe07cc5)" d="M 92.290909 543.686859 
L 100.589459 515.697901 
L 106.881 512.416038 
L 120.200309 510.729987 
L 126.882237 511.278771 
L 133.564165 511.912149 
L 140.246093 512.548843 
L 146.928021 513.224518 
L 153.609949 513.914352 
L 160.291877 514.63779 
L 166.973804 515.368935 
L 173.655732 516.062084 
L 180.33766 516.76061 
L 187.019588 517.452953 
L 193.701511 518.141353 
L 200.383436 518.825272 
L 207.065372 519.504173 
L 213.747299 520.17931 
L 220.429227 520.847817 
L 227.111155 521.511125 
L 233.793083 522.170759 
L 240.475011 522.830842 
L 247.156939 523.499617 
L 253.838867 524.172693 
L 260.520794 524.84093 
L 267.202722 525.498862 
L 273.88465 526.156884 
L 280.566578 526.824314 
L 287.248506 527.496942 
L 293.930434 528.175933 
L 300.612362 528.861824 
L 307.294289 529.903475 
L 307.294289 529.208085 
L 313.976217 530.258966 
L 320.658145 530.972188 
L 327.340073 531.696791 
L 334.022001 532.435195 
L 340.703929 533.188205 
L 347.385857 533.957793 
L 354.067784 534.746648 
L 360.749712 535.556831 
L 367.43164 536.391657 
L 374.113568 537.25343 
L 380.795496 538.145742 
L 387.477424 539.073245 
L 394.159352 540.040517 
L 400.841279 541.052076 
L 407.523207 542.119786 
L 414.205135 543.22559 
L 420.887063 544.447119 
L 427.568991 545.702901 
L 434.250919 547.073102 
L 440.932847 548.58294 
L 447.614774 550.20128 
L 454.296702 552.206001 
L 460.97863 554.948166 
L 467.660558 556.880202 
L 474.342486 558.67092 
L 481.007405 562.502195 
L 487.540306 567.926503 
L 498.109091 576.886097 
L 498.109091 577.560069 
" style="fill:none;stroke:#1f77b4;stroke-linecap:square;stroke-width:5;"/>
   </g>
   <g id="line2d_41">
    <path clip-path="url(#p559fe07cc5)" d="M 72 545.4 
L 518.4 545.4 
" style="fill:none;stroke:#000000;stroke-dasharray:3.2,0.8,0.5,0.8;stroke-dashoffset:0;stroke-width:0.5;"/>
   </g>
   <g id="line2d_42">
    <path clip-path="url(#p559fe07cc5)" d="M 92.290909 535.264785 
L 97.026289 509.9276 
L 105.96607 502.260571 
L 123.458227 501.77344 
L 132.238683 502.330827 
L 141.019138 503.794729 
L 149.799594 505.030121 
L 158.580049 506.231819 
L 167.360505 507.256175 
L 176.14096 508.372293 
L 184.921416 509.61817 
L 193.70188 510.697368 
L 202.482327 511.799507 
L 211.262783 512.885247 
L 220.043238 513.968388 
L 228.823694 515.047138 
L 237.604149 516.124633 
L 246.384605 517.201949 
L 255.165061 518.281506 
L 263.945516 519.365274 
L 272.725972 520.456033 
L 281.506427 521.556021 
L 290.286883 522.668375 
L 299.067338 523.795964 
L 307.847794 524.942282 
L 316.628249 526.110644 
L 325.408705 527.305083 
L 334.189161 528.529722 
L 342.969616 530.426809 
L 342.969616 529.152346 
L 351.750072 531.089759 
L 360.530527 532.437793 
L 369.310983 533.836459 
L 378.091438 535.310936 
L 386.871894 536.802116 
L 395.65235 538.576964 
L 404.432805 540.13935 
L 413.213261 541.891428 
L 421.993716 544.118646 
L 430.774172 546.236349 
L 439.554627 548.807293 
L 448.335083 552.236093 
L 457.115539 554.967881 
L 465.895994 557.404612 
L 474.672192 562.180756 
L 483.391983 568.785703 
L 492.161796 576.408554 
L 498.109091 585.986202 
" style="fill:none;stroke:#ff7f0e;stroke-linecap:square;stroke-width:5;"/>
   </g>
   <g id="line2d_43">
    <path clip-path="url(#p559fe07cc5)" d="M 72 545.4 
L 518.4 545.4 
" style="fill:none;stroke:#000000;stroke-dasharray:3.2,0.8,0.5,0.8;stroke-dashoffset:0;stroke-width:0.5;"/>
   </g>
   <g id="patch_13">
    <path d="M 72 617.089655 
L 72 473.710345 
" style="fill:none;stroke:#000000;stroke-linecap:square;stroke-linejoin:miter;stroke-width:0.8;"/>
   </g>
   <g id="patch_14">
    <path d="M 518.4 617.089655 
L 518.4 473.710345 
" style="fill:none;stroke:#000000;stroke-linecap:square;stroke-linejoin:miter;stroke-width:0.8;"/>
   </g>
   <g id="patch_15">
    <path d="M 72 617.089655 
L 518.4 617.089655 
" style="fill:none;stroke:#000000;stroke-linecap:square;stroke-linejoin:miter;stroke-width:0.8;"/>
   </g>
   <g id="patch_16">
    <path d="M 72 473.710345 
L 518.4 473.710345 
" style="fill:none;stroke:#000000;stroke-linecap:square;stroke-linejoin:miter;stroke-width:0.8;"/>
   </g>
  </g>
  <g id="axes_4">
   <g id="patch_17">
    <path d="M 72 789.144828 
L 518.4 789.144828 
L 518.4 645.765517 
L 72 645.765517 
z
" style="fill:#ffffff;"/>
   </g>
   <g id="matplotlib.axis_7">
    <g id="xtick_19">
     <g id="line2d_44">
      <g>
       <use style="fill:#ffffff;stroke:#000000;stroke-width:0.8;" x="92.290909" xlink:href="#m2937df8f5a" y="789.144828"/>
      </g>
     </g>
    </g>
    <g id="xtick_20">
     <g id="line2d_45">
      <g>
       <use style="fill:#ffffff;stroke:#000000;stroke-width:0.8;" x="173.454545" xlink:href="#m2937df8f5a" y="789.144828"/>
      </g>
     </g>
    </g>
    <g id="xtick_21">
     <g id="line2d_46">
      <g>
       <use style="fill:#ffffff;stroke:#000000;stroke-width:0.8;" x="254.618182" xlink:href="#m2937df8f5a" y="789.144828"/>
      </g>
     </g>
    </g>
    <g id="xtick_22">
     <g id="line2d_47">
      <g>
       <use style="fill:#ffffff;stroke:#000000;stroke-width:0.8;" x="335.781818" xlink:href="#m2937df8f5a" y="789.144828"/>
      </g>
     </g>
    </g>
    <g id="xtick_23">
     <g id="line2d_48">
      <g>
       <use style="fill:#ffffff;stroke:#000000;stroke-width:0.8;" x="416.945455" xlink:href="#m2937df8f5a" y="789.144828"/>
      </g>
     </g>
    </g>
    <g id="xtick_24">
     <g id="line2d_49">
      <g>
       <use style="fill:#ffffff;stroke:#000000;stroke-width:0.8;" x="498.109091" xlink:href="#m2937df8f5a" y="789.144828"/>
      </g>
     </g>
    </g>
   </g>
   <g id="matplotlib.axis_8">
    <g id="ytick_10">
     <g id="line2d_50">
      <g>
       <use style="fill:#ffffff;stroke:#000000;stroke-width:0.8;" x="72" xlink:href="#m5cf5916e51" y="762.261207"/>
      </g>
     </g>
     <g id="text_15">
      <!-- −5 -->
      <g transform="translate(43.67 768.407926)scale(0.18 -0.18)">
       <use xlink:href="#STIXGeneral-Regular-8722"/>
       <use x="68.499985" xlink:href="#STIXGeneral-Regular-53"/>
      </g>
     </g>
    </g>
    <g id="ytick_11">
     <g id="line2d_51">
      <g>
       <use style="fill:#ffffff;stroke:#000000;stroke-width:0.8;" x="72" xlink:href="#m5cf5916e51" y="717.455172"/>
      </g>
     </g>
     <g id="text_16">
      <!-- 0 -->
      <g transform="translate(56 723.601891)scale(0.18 -0.18)">
       <use xlink:href="#STIXGeneral-Regular-48"/>
      </g>
     </g>
    </g>
    <g id="ytick_12">
     <g id="line2d_52">
      <g>
       <use style="fill:#ffffff;stroke:#000000;stroke-width:0.8;" x="72" xlink:href="#m5cf5916e51" y="672.649138"/>
      </g>
     </g>
     <g id="text_17">
      <!-- 5 -->
      <g transform="translate(56 678.795857)scale(0.18 -0.18)">
       <use xlink:href="#STIXGeneral-Regular-53"/>
      </g>
     </g>
    </g>
    <g id="text_18">
     <!-- Cp -->
     <g transform="translate(35.763438 727.958454)rotate(-90)scale(0.18 -0.18)">
      <use xlink:href="#STIXGeneral-Regular-67"/>
      <use x="66.699997" xlink:href="#STIXGeneral-Regular-112"/>
     </g>
    </g>
   </g>
   <g id="line2d_53">
    <path clip-path="url(#pee1a77e93a)" d="M 92.290909 717.357382 
L 100.589459 695.586243 
L 106.881 693.291278 
L 120.200309 692.272658 
L 126.882237 692.737923 
L 133.564165 693.26072 
L 140.246093 693.769269 
L 146.928021 694.297622 
L 153.609949 694.827946 
L 160.291877 695.377268 
L 166.973804 695.930533 
L 173.655732 696.450103 
L 180.33766 696.971556 
L 187.01958 697.486198 
L 193.701535 697.995912 
L 200.383452 698.501055 
L 207.065372 699.00118 
L 213.747299 699.497451 
L 220.429227 699.987898 
L 227.111155 700.474402 
L 233.793083 700.95768 
L 240.475011 701.440868 
L 247.156939 701.931584 
L 253.838867 702.426512 
L 260.520794 702.91893 
L 267.202722 703.405075 
L 273.88465 703.891938 
L 280.566578 704.386417 
L 287.248506 704.886184 
L 293.930434 705.392581 
L 300.612362 705.9057 
L 307.294289 706.688193 
L 307.294289 706.165217 
L 313.976217 706.95685 
L 320.658145 707.497927 
L 327.340073 708.051013 
L 334.022001 708.617523 
L 340.703929 709.199777 
L 347.385857 709.799837 
L 354.067784 710.419084 
L 360.749712 711.059953 
L 367.43164 711.724982 
L 374.113568 712.417764 
L 380.795496 713.141525 
L 387.477424 713.899231 
L 394.159352 714.69616 
L 400.841279 715.536757 
L 407.523207 716.431623 
L 414.205135 717.364427 
L 420.887063 718.407964 
L 427.568991 719.491777 
L 434.250919 720.676171 
L 440.932847 721.992205 
L 447.614774 723.416391 
L 454.296702 725.189751 
L 460.97863 727.658134 
L 467.660558 729.469014 
L 474.342486 731.222633 
L 481.007405 734.836329 
L 487.540306 739.961781 
L 498.109091 748.812676 
L 498.109091 749.511112 
" style="fill:none;stroke:#1f77b4;stroke-linecap:square;stroke-width:5;"/>
   </g>
   <g id="line2d_54">
    <path clip-path="url(#pee1a77e93a)" d="M 72 717.455172 
L 518.4 717.455172 
" style="fill:none;stroke:#000000;stroke-dasharray:3.2,0.8,0.5,0.8;stroke-dashoffset:0;stroke-width:0.5;"/>
   </g>
   <g id="line2d_55">
    <path clip-path="url(#pee1a77e93a)" d="M 92.290909 711.860171 
L 97.026289 691.334598 
L 105.966176 685.130307 
L 123.458227 684.775264 
L 132.238683 685.153785 
L 141.019138 686.192658 
L 149.799594 687.10697 
L 158.580049 687.996101 
L 167.360505 688.750634 
L 176.14096 689.567359 
L 184.921363 690.479341 
L 193.701908 691.267121 
L 202.482316 692.069686 
L 211.262783 692.858721 
L 220.043238 693.644708 
L 228.823694 694.426304 
L 237.604149 695.206288 
L 246.384605 695.985465 
L 255.165061 696.765538 
L 263.945516 697.548031 
L 272.725972 698.335631 
L 281.506427 699.129773 
L 290.286776 699.933056 
L 299.067338 700.747629 
L 307.847794 701.576451 
L 316.628249 702.422031 
L 325.408705 703.287504 
L 334.189161 704.176098 
L 342.969616 705.555138 
L 342.969616 704.62828 
L 351.750072 706.038326 
L 360.530527 707.021908 
L 369.310983 708.043754 
L 378.091438 709.124673 
L 386.871894 710.211282 
L 395.65235 711.525398 
L 404.432805 712.676295 
L 413.213261 713.974622 
L 421.993716 715.637311 
L 430.774172 717.186744 
L 439.554627 719.087035 
L 448.335083 721.699576 
L 457.115539 723.766515 
L 465.895994 725.563147 
L 474.672192 729.182077 
L 483.391983 734.203041 
L 492.161796 740.068957 
L 498.109091 747.72837 
" style="fill:none;stroke:#ff7f0e;stroke-linecap:square;stroke-width:5;"/>
   </g>
   <g id="line2d_56">
    <path clip-path="url(#pee1a77e93a)" d="M 72 717.455172 
L 518.4 717.455172 
" style="fill:none;stroke:#000000;stroke-dasharray:3.2,0.8,0.5,0.8;stroke-dashoffset:0;stroke-width:0.5;"/>
   </g>
   <g id="patch_18">
    <path d="M 72 789.144828 
L 72 645.765517 
" style="fill:none;stroke:#000000;stroke-linecap:square;stroke-linejoin:miter;stroke-width:0.8;"/>
   </g>
   <g id="patch_19">
    <path d="M 518.4 789.144828 
L 518.4 645.765517 
" style="fill:none;stroke:#000000;stroke-linecap:square;stroke-linejoin:miter;stroke-width:0.8;"/>
   </g>
   <g id="patch_20">
    <path d="M 72 789.144828 
L 518.4 789.144828 
" style="fill:none;stroke:#000000;stroke-linecap:square;stroke-linejoin:miter;stroke-width:0.8;"/>
   </g>
   <g id="patch_21">
    <path d="M 72 645.765517 
L 518.4 645.765517 
" style="fill:none;stroke:#000000;stroke-linecap:square;stroke-linejoin:miter;stroke-width:0.8;"/>
   </g>
  </g>
  <g id="axes_5">
   <g id="patch_22">
    <path d="M 72 961.2 
L 518.4 961.2 
L 518.4 817.82069 
L 72 817.82069 
z
" style="fill:#ffffff;"/>
   </g>
   <g id="matplotlib.axis_9">
    <g id="xtick_25">
     <g id="line2d_57">
      <g>
       <use style="fill:#ffffff;stroke:#000000;stroke-width:0.8;" x="92.290909" xlink:href="#m2937df8f5a" y="961.2"/>
      </g>
     </g>
     <g id="text_19">
      <!-- 0.0 -->
      <g transform="translate(81.040909 980.493438)scale(0.18 -0.18)">
       <use xlink:href="#STIXGeneral-Regular-48"/>
       <use x="49.999985" xlink:href="#STIXGeneral-Regular-46"/>
       <use x="74.999969" xlink:href="#STIXGeneral-Regular-48"/>
      </g>
     </g>
    </g>
    <g id="xtick_26">
     <g id="line2d_58">
      <g>
       <use style="fill:#ffffff;stroke:#000000;stroke-width:0.8;" x="173.454545" xlink:href="#m2937df8f5a" y="961.2"/>
      </g>
     </g>
     <g id="text_20">
      <!-- 0.2 -->
      <g transform="translate(162.204545 980.493438)scale(0.18 -0.18)">
       <use xlink:href="#STIXGeneral-Regular-48"/>
       <use x="49.999985" xlink:href="#STIXGeneral-Regular-46"/>
       <use x="74.999969" xlink:href="#STIXGeneral-Regular-50"/>
      </g>
     </g>
    </g>
    <g id="xtick_27">
     <g id="line2d_59">
      <g>
       <use style="fill:#ffffff;stroke:#000000;stroke-width:0.8;" x="254.618182" xlink:href="#m2937df8f5a" y="961.2"/>
      </g>
     </g>
     <g id="text_21">
      <!-- 0.4 -->
      <g transform="translate(243.368182 980.493438)scale(0.18 -0.18)">
       <defs>
        <path d="M 47.296875 16.703125 
L 37 16.703125 
L 37 0 
L 29.203125 0 
L 29.203125 16.703125 
L 1.203125 16.703125 
L 1.203125 23.09375 
L 32.59375 67.59375 
L 37 67.59375 
L 37 23.09375 
L 47.296875 23.09375 
z
M 29.203125 23.09375 
L 29.203125 57.40625 
L 5.203125 23.09375 
z
" id="STIXGeneral-Regular-52"/>
       </defs>
       <use xlink:href="#STIXGeneral-Regular-48"/>
       <use x="49.999985" xlink:href="#STIXGeneral-Regular-46"/>
       <use x="74.999969" xlink:href="#STIXGeneral-Regular-52"/>
      </g>
     </g>
    </g>
    <g id="xtick_28">
     <g id="line2d_60">
      <g>
       <use style="fill:#ffffff;stroke:#000000;stroke-width:0.8;" x="335.781818" xlink:href="#m2937df8f5a" y="961.2"/>
      </g>
     </g>
     <g id="text_22">
      <!-- 0.6 -->
      <g transform="translate(324.531818 980.493438)scale(0.18 -0.18)">
       <use xlink:href="#STIXGeneral-Regular-48"/>
       <use x="49.999985" xlink:href="#STIXGeneral-Regular-46"/>
       <use x="74.999969" xlink:href="#STIXGeneral-Regular-54"/>
      </g>
     </g>
    </g>
    <g id="xtick_29">
     <g id="line2d_61">
      <g>
       <use style="fill:#ffffff;stroke:#000000;stroke-width:0.8;" x="416.945455" xlink:href="#m2937df8f5a" y="961.2"/>
      </g>
     </g>
     <g id="text_23">
      <!-- 0.8 -->
      <g transform="translate(405.695455 980.493438)scale(0.18 -0.18)">
       <defs>
        <path d="M 44.5 15.5 
Q 44.5 7.796875 39.140625 3.1875 
Q 33.796875 -1.40625 24.796875 -1.40625 
Q 16.40625 -1.40625 11 3.1875 
Q 5.59375 7.796875 5.59375 14.90625 
Q 5.59375 20.203125 8.1875 23.953125 
Q 10.796875 27.703125 18.59375 33.203125 
Q 11.09375 39.40625 8.640625 43.203125 
Q 6.203125 47 6.203125 52 
Q 6.203125 59.09375 11.640625 63.34375 
Q 17.09375 67.59375 25.59375 67.59375 
Q 32.90625 67.59375 37.65625 63.4375 
Q 42.40625 59.296875 42.40625 53.296875 
Q 42.40625 47.796875 39.546875 44.5 
Q 36.703125 41.203125 29 37.09375 
Q 38 31.09375 41.25 26.390625 
Q 44.5 21.703125 44.5 15.5 
z
M 35.5 53.296875 
Q 35.5 58.5 32.59375 61.640625 
Q 29.703125 64.796875 24.59375 64.796875 
Q 19.5 64.796875 16.546875 62.140625 
Q 13.59375 59.5 13.59375 54.890625 
Q 13.59375 50.296875 16.546875 46.546875 
Q 19.5 42.796875 26.09375 38.90625 
Q 31.203125 41.90625 33.34375 45.25 
Q 35.5 48.59375 35.5 53.296875 
z
M 27.09375 27.203125 
L 21.203125 31.203125 
Q 16.796875 27.59375 15 24.140625 
Q 13.203125 20.703125 13.203125 15.796875 
Q 13.203125 9 16.640625 5.203125 
Q 20.09375 1.40625 25.90625 1.40625 
Q 30.796875 1.40625 33.84375 4.453125 
Q 36.90625 7.5 36.90625 12.40625 
Q 36.90625 16.90625 34.59375 20.296875 
Q 32.296875 23.703125 27.09375 27.203125 
z
" id="STIXGeneral-Regular-56"/>
       </defs>
       <use xlink:href="#STIXGeneral-Regular-48"/>
       <use x="49.999985" xlink:href="#STIXGeneral-Regular-46"/>
       <use x="74.999969" xlink:href="#STIXGeneral-Regular-56"/>
      </g>
     </g>
    </g>
    <g id="xtick_30">
     <g id="line2d_62">
      <g>
       <use style="fill:#ffffff;stroke:#000000;stroke-width:0.8;" x="498.109091" xlink:href="#m2937df8f5a" y="961.2"/>
      </g>
     </g>
     <g id="text_24">
      <!-- 1.0 -->
      <g transform="translate(486.859091 980.493438)scale(0.18 -0.18)">
       <use xlink:href="#STIXGeneral-Regular-49"/>
       <use x="49.999985" xlink:href="#STIXGeneral-Regular-46"/>
       <use x="74.999969" xlink:href="#STIXGeneral-Regular-48"/>
      </g>
     </g>
    </g>
    <g id="text_25">
     <!-- x/c -->
     <g transform="translate(284.201719 1000.693438)scale(0.18 -0.18)">
      <defs>
       <path d="M 47.90625 0 
L 27.796875 0 
L 27.796875 1.5 
Q 30.296875 1.703125 31.046875 2.140625 
Q 31.796875 2.59375 31.796875 3.90625 
Q 31.796875 4.796875 31.203125 5.703125 
L 22.09375 19.703125 
L 14.203125 7.40625 
Q 12.203125 4.296875 12.203125 3.296875 
Q 12.203125 1.5 16.203125 1.5 
L 16.203125 0 
L 1.703125 0 
L 1.703125 1.5 
Q 4.203125 1.703125 5.546875 2.640625 
Q 6.90625 3.59375 9 6.59375 
L 20.40625 23.09375 
L 11 37.5 
Q 8.703125 41 7.09375 42.25 
Q 5.5 43.5 3.296875 43.5 
L 2.40625 43.5 
L 2.40625 45 
L 23.09375 45 
L 23.09375 43.5 
Q 18.796875 43.40625 18.796875 41.296875 
Q 18.796875 39.203125 23.40625 32.40625 
Q 24.703125 30.59375 24.796875 30.40625 
Q 25.296875 31.09375 27.796875 34.796875 
Q 28.296875 35.703125 29 36.703125 
Q 29.703125 37.703125 30.046875 38.296875 
Q 30.40625 38.90625 30.796875 39.5 
Q 31.203125 40.09375 31.34375 40.546875 
Q 31.5 41 31.5 41.296875 
Q 31.5 43.203125 27.5 43.5 
L 27.5 45 
L 43.296875 45 
L 43.296875 43.5 
Q 38.203125 43.296875 35.203125 39.09375 
L 26.90625 27.09375 
L 39.703125 7.5 
Q 43.59375 1.5 47.90625 1.5 
z
" id="STIXGeneral-Regular-120"/>
      </defs>
      <use xlink:href="#STIXGeneral-Regular-120"/>
      <use x="49.999985" xlink:href="#STIXGeneral-Regular-47"/>
      <use x="77.799973" xlink:href="#STIXGeneral-Regular-99"/>
     </g>
    </g>
   </g>
   <g id="matplotlib.axis_10">
    <g id="ytick_13">
     <g id="line2d_63">
      <g>
       <use style="fill:#ffffff;stroke:#000000;stroke-width:0.8;" x="72" xlink:href="#m5cf5916e51" y="934.316379"/>
      </g>
     </g>
     <g id="text_26">
      <!-- −5 -->
      <g transform="translate(43.67 940.463098)scale(0.18 -0.18)">
       <use xlink:href="#STIXGeneral-Regular-8722"/>
       <use x="68.499985" xlink:href="#STIXGeneral-Regular-53"/>
      </g>
     </g>
    </g>
    <g id="ytick_14">
     <g id="line2d_64">
      <g>
       <use style="fill:#ffffff;stroke:#000000;stroke-width:0.8;" x="72" xlink:href="#m5cf5916e51" y="889.510345"/>
      </g>
     </g>
     <g id="text_27">
      <!-- 0 -->
      <g transform="translate(56 895.657064)scale(0.18 -0.18)">
       <use xlink:href="#STIXGeneral-Regular-48"/>
      </g>
     </g>
    </g>
    <g id="ytick_15">
     <g id="line2d_65">
      <g>
       <use style="fill:#ffffff;stroke:#000000;stroke-width:0.8;" x="72" xlink:href="#m5cf5916e51" y="844.70431"/>
      </g>
     </g>
     <g id="text_28">
      <!-- 5 -->
      <g transform="translate(56 850.851029)scale(0.18 -0.18)">
       <use xlink:href="#STIXGeneral-Regular-53"/>
      </g>
     </g>
    </g>
    <g id="text_29">
     <!-- Cp -->
     <g transform="translate(35.763438 900.013626)rotate(-90)scale(0.18 -0.18)">
      <use xlink:href="#STIXGeneral-Regular-67"/>
      <use x="66.699997" xlink:href="#STIXGeneral-Regular-112"/>
     </g>
    </g>
   </g>
   <g id="line2d_66">
    <path clip-path="url(#p9664a5007a)" d="M 92.290909 903.377364 
L 100.589459 904.794938 
L 106.881 904.685432 
L 120.200309 904.704967 
L 126.882237 904.894407 
L 133.564165 905.098275 
L 140.246093 905.310476 
L 146.928021 905.526979 
L 153.609949 905.733803 
L 160.291877 905.935162 
L 166.973804 906.133115 
L 173.655732 906.313145 
L 180.33766 906.479555 
L 187.019588 906.631985 
L 193.701516 906.768912 
L 200.383444 906.894011 
L 207.065372 907.005847 
L 213.747299 907.100477 
L 220.429227 907.176289 
L 227.111155 907.241347 
L 233.793083 907.301387 
L 240.475011 907.326568 
L 247.156939 907.337859 
L 253.838867 907.339562 
L 260.520794 907.319041 
L 267.202722 907.29386 
L 273.88465 907.252907 
L 280.566578 907.196272 
L 287.248506 907.119116 
L 293.930434 907.022963 
L 300.612362 906.913815 
L 307.294289 906.729573 
L 307.294289 906.85727 
L 313.976217 906.657077 
L 320.658145 906.500972 
L 327.340073 906.328559 
L 334.022001 906.141897 
L 340.703929 905.940001 
L 347.385857 905.720362 
L 354.067784 905.484503 
L 360.749712 905.231707 
L 367.43164 904.961258 
L 374.113568 904.673961 
L 380.795496 904.368743 
L 387.477424 904.046677 
L 394.159352 903.705345 
L 400.841279 903.345194 
L 407.523207 902.965955 
L 414.205135 902.570677 
L 420.887063 902.147528 
L 427.568991 901.709415 
L 434.250919 901.249615 
L 440.932847 900.759706 
L 447.614774 900.243451 
L 454.296702 899.67549 
L 460.97863 899.098299 
L 467.660558 898.569498 
L 474.342486 897.892057 
L 481.007405 897.116124 
L 487.540306 896.372819 
L 498.109091 895.419275 
L 498.109091 895.345614 
" style="fill:none;stroke:#1f77b4;stroke-linecap:square;stroke-width:5;"/>
   </g>
   <g id="line2d_67">
    <path clip-path="url(#p9664a5007a)" d="M 72 889.510345 
L 518.4 889.510345 
" style="fill:none;stroke:#000000;stroke-dasharray:3.2,0.8,0.5,0.8;stroke-dashoffset:0;stroke-width:0.5;"/>
   </g>
   <g id="line2d_68">
    <path clip-path="url(#p9664a5007a)" d="M 92.290909 906.0927 
L 97.026289 906.870353 
L 105.96607 906.794631 
L 123.458227 906.106769 
L 132.238683 906.038305 
L 141.019138 906.083559 
L 149.799594 906.163314 
L 158.580049 906.270759 
L 167.360505 906.37444 
L 176.14096 906.486545 
L 184.921416 906.613973 
L 193.701872 906.729304 
L 202.482327 906.836838 
L 211.262783 906.925017 
L 220.043238 907.003427 
L 228.823694 907.068037 
L 237.604149 907.115801 
L 246.384605 907.157918 
L 255.165061 907.176737 
L 263.945516 907.17378 
L 272.725972 907.162757 
L 281.506427 907.136053 
L 290.286883 907.091068 
L 299.067338 907.031028 
L 307.847794 906.950735 
L 316.628249 906.846785 
L 325.408705 906.720163 
L 334.189161 906.578845 
L 342.969616 906.338595 
L 342.969616 906.508052 
L 351.750072 906.246474 
L 360.530527 906.044399 
L 369.310983 905.819204 
L 378.091438 905.572681 
L 386.871894 905.310924 
L 395.65235 905.00239 
L 404.432805 904.703175 
L 413.213261 904.380213 
L 421.993716 903.994612 
L 430.774172 903.60946 
L 439.554627 903.16579 
L 448.335083 902.658855 
L 457.115539 902.272537 
L 465.895994 901.824118 
L 474.672192 901.229184 
L 483.391983 900.741963 
L 492.161796 899.933841 
L 498.109091 898.280992 
" style="fill:none;stroke:#ff7f0e;stroke-linecap:square;stroke-width:5;"/>
   </g>
   <g id="line2d_69">
    <path clip-path="url(#p9664a5007a)" d="M 72 889.510345 
L 518.4 889.510345 
" style="fill:none;stroke:#000000;stroke-dasharray:3.2,0.8,0.5,0.8;stroke-dashoffset:0;stroke-width:0.5;"/>
   </g>
   <g id="patch_23">
    <path d="M 72 961.2 
L 72 817.82069 
" style="fill:none;stroke:#000000;stroke-linecap:square;stroke-linejoin:miter;stroke-width:0.8;"/>
   </g>
   <g id="patch_24">
    <path d="M 518.4 961.2 
L 518.4 817.82069 
" style="fill:none;stroke:#000000;stroke-linecap:square;stroke-linejoin:miter;stroke-width:0.8;"/>
   </g>
   <g id="patch_25">
    <path d="M 72 961.2 
L 518.4 961.2 
" style="fill:none;stroke:#000000;stroke-linecap:square;stroke-linejoin:miter;stroke-width:0.8;"/>
   </g>
   <g id="patch_26">
    <path d="M 72 817.82069 
L 518.4 817.82069 
" style="fill:none;stroke:#000000;stroke-linecap:square;stroke-linejoin:miter;stroke-width:0.8;"/>
   </g>
  </g>
 </g>
 <defs>
  <clipPath id="p40bba2f3aa">
   <rect height="143.37931" width="446.4" x="72" y="129.6"/>
  </clipPath>
  <clipPath id="p0f7c70bb48">
   <rect height="143.37931" width="446.4" x="72" y="301.655172"/>
  </clipPath>
  <clipPath id="p559fe07cc5">
   <rect height="143.37931" width="446.4" x="72" y="473.710345"/>
  </clipPath>
  <clipPath id="pee1a77e93a">
   <rect height="143.37931" width="446.4" x="72" y="645.765517"/>
  </clipPath>
  <clipPath id="p9664a5007a">
   <rect height="143.37931" width="446.4" x="72" y="817.82069"/>
  </clipPath>
 </defs>
</svg>
