<?xml version="1.0" encoding="utf-8" standalone="no"?>
<!DOCTYPE svg PUBLIC "-//W3C//DTD SVG 1.1//EN"
  "http://www.w3.org/Graphics/SVG/1.1/DTD/svg11.dtd">
<!-- Created with matplotlib (https://matplotlib.org/) -->
<svg height="1080pt" version="1.1" viewBox="0 0 576 1080" width="576pt" xmlns="http://www.w3.org/2000/svg" xmlns:xlink="http://www.w3.org/1999/xlink">
 <metadata>
  <rdf:RDF xmlns:cc="http://creativecommons.org/ns#" xmlns:dc="http://purl.org/dc/elements/1.1/" xmlns:rdf="http://www.w3.org/1999/02/22-rdf-syntax-ns#">
   <cc:Work>
    <dc:type rdf:resource="http://purl.org/dc/dcmitype/StillImage"/>
    <dc:date>2022-03-29T00:07:45.955257</dc:date>
    <dc:format>image/svg+xml</dc:format>
    <dc:creator>
     <cc:Agent>
      <dc:title>Matplotlib v3.3.4, https://matplotlib.org/</dc:title>
     </cc:Agent>
    </dc:creator>
   </cc:Work>
  </rdf:RDF>
 </metadata>
 <defs>
  <style type="text/css">*{stroke-linecap:butt;stroke-linejoin:round;}</style>
 </defs>
 <g id="figure_1">
  <g id="patch_1">
   <path d="M 0 1080 
L 576 1080 
L 576 0 
L 0 0 
z
" style="fill:#ffffff;"/>
  </g>
  <g id="axes_1">
   <g id="patch_2">
    <path d="M 72 272.97931 
L 518.4 272.97931 
L 518.4 129.6 
L 72 129.6 
z
" style="fill:#ffffff;"/>
   </g>
   <g id="matplotlib.axis_1">
    <g id="xtick_1">
     <g id="line2d_1">
      <defs>
       <path d="M 0 0 
L 0 3.5 
" id="m30ccf05253" style="stroke:#000000;stroke-width:0.8;"/>
      </defs>
      <g>
       <use style="fill:#ffffff;stroke:#000000;stroke-width:0.8;" x="92.290909" xlink:href="#m30ccf05253" y="272.97931"/>
      </g>
     </g>
    </g>
    <g id="xtick_2">
     <g id="line2d_2">
      <g>
       <use style="fill:#ffffff;stroke:#000000;stroke-width:0.8;" x="173.454545" xlink:href="#m30ccf05253" y="272.97931"/>
      </g>
     </g>
    </g>
    <g id="xtick_3">
     <g id="line2d_3">
      <g>
       <use style="fill:#ffffff;stroke:#000000;stroke-width:0.8;" x="254.618182" xlink:href="#m30ccf05253" y="272.97931"/>
      </g>
     </g>
    </g>
    <g id="xtick_4">
     <g id="line2d_4">
      <g>
       <use style="fill:#ffffff;stroke:#000000;stroke-width:0.8;" x="335.781818" xlink:href="#m30ccf05253" y="272.97931"/>
      </g>
     </g>
    </g>
    <g id="xtick_5">
     <g id="line2d_5">
      <g>
       <use style="fill:#ffffff;stroke:#000000;stroke-width:0.8;" x="416.945455" xlink:href="#m30ccf05253" y="272.97931"/>
      </g>
     </g>
    </g>
    <g id="xtick_6">
     <g id="line2d_6">
      <g>
       <use style="fill:#ffffff;stroke:#000000;stroke-width:0.8;" x="498.109091" xlink:href="#m30ccf05253" y="272.97931"/>
      </g>
     </g>
    </g>
   </g>
   <g id="matplotlib.axis_2">
    <g id="ytick_1">
     <g id="line2d_7">
      <defs>
       <path d="M 0 0 
L -3.5 0 
" id="m2507568236" style="stroke:#000000;stroke-width:0.8;"/>
      </defs>
      <g>
       <use style="fill:#ffffff;stroke:#000000;stroke-width:0.8;" x="72" xlink:href="#m2507568236" y="246.09569"/>
      </g>
     </g>
     <g id="text_1">
      <!-- −5 -->
      <g transform="translate(43.67 252.242408)scale(0.18 -0.18)">
       <defs>
        <path d="M 62.09375 22 
L 6.40625 22 
L 6.40625 28.59375 
L 62.09375 28.59375 
z
" id="STIXGeneral-Regular-8722"/>
        <path d="M 43.796875 68.09375 
L 40.203125 59.59375 
Q 39.59375 58.296875 37.5 58.296875 
L 18.09375 58.296875 
L 14.09375 49.796875 
Q 25.09375 47.703125 30 45.25 
Q 34.90625 42.796875 39.09375 37 
Q 42.59375 32.203125 42.59375 24.296875 
Q 42.59375 17.09375 40.25 12.1875 
Q 37.90625 7.296875 32.796875 3.5 
Q 26 -1.40625 15.796875 -1.40625 
Q 10.09375 -1.40625 6.59375 0.296875 
Q 3.09375 2 3.09375 4.796875 
Q 3.09375 8.59375 7.59375 8.59375 
Q 11.203125 8.59375 15 5.5 
Q 18.90625 2.296875 22.09375 2.296875 
Q 27.296875 2.296875 31.4375 7.5 
Q 35.59375 12.703125 35.59375 19.203125 
Q 35.59375 28.796875 28.90625 34.203125 
Q 20.203125 41.203125 7.59375 41.203125 
Q 6.40625 41.203125 6.40625 42 
L 6.5 42.5 
L 17.40625 66.203125 
L 38.09375 66.203125 
Q 39.796875 66.203125 40.75 66.703125 
Q 41.703125 67.203125 42.90625 68.796875 
z
" id="STIXGeneral-Regular-53"/>
       </defs>
       <use xlink:href="#STIXGeneral-Regular-8722"/>
       <use x="68.499985" xlink:href="#STIXGeneral-Regular-53"/>
      </g>
     </g>
    </g>
    <g id="ytick_2">
     <g id="line2d_8">
      <g>
       <use style="fill:#ffffff;stroke:#000000;stroke-width:0.8;" x="72" xlink:href="#m2507568236" y="201.289655"/>
      </g>
     </g>
     <g id="text_2">
      <!-- 0 -->
      <g transform="translate(56 207.436374)scale(0.18 -0.18)">
       <defs>
        <path d="M 47.59375 33 
Q 47.59375 26.296875 46.296875 20.34375 
Q 45 14.40625 42.453125 9.40625 
Q 39.90625 4.40625 35.40625 1.5 
Q 30.90625 -1.40625 25 -1.40625 
Q 18.90625 -1.40625 14.296875 1.6875 
Q 9.703125 4.796875 7.203125 10 
Q 4.703125 15.203125 3.546875 21.09375 
Q 2.40625 27 2.40625 33.59375 
Q 2.40625 42.90625 4.703125 50.34375 
Q 7 57.796875 12.34375 62.6875 
Q 17.703125 67.59375 25.40625 67.59375 
Q 35.203125 67.59375 41.390625 58 
Q 47.59375 48.40625 47.59375 33 
z
M 38 32.5 
Q 38 48.296875 34.640625 56.640625 
Q 31.296875 65 24.796875 65 
Q 18.59375 65 15.296875 56.59375 
Q 12 48.203125 12 32.90625 
Q 12 17.5 15.296875 9.34375 
Q 18.59375 1.203125 25 1.203125 
Q 31.296875 1.203125 34.640625 9.34375 
Q 38 17.5 38 32.5 
z
" id="STIXGeneral-Regular-48"/>
       </defs>
       <use xlink:href="#STIXGeneral-Regular-48"/>
      </g>
     </g>
    </g>
    <g id="ytick_3">
     <g id="line2d_9">
      <g>
       <use style="fill:#ffffff;stroke:#000000;stroke-width:0.8;" x="72" xlink:href="#m2507568236" y="156.483621"/>
      </g>
     </g>
     <g id="text_3">
      <!-- 5 -->
      <g transform="translate(56 162.630339)scale(0.18 -0.18)">
       <use xlink:href="#STIXGeneral-Regular-53"/>
      </g>
     </g>
    </g>
    <g id="text_4">
     <!-- Cp -->
     <g transform="translate(35.763438 211.792936)rotate(-90)scale(0.18 -0.18)">
      <defs>
       <path d="M 61.40625 13.09375 
L 63.296875 11.296875 
Q 54.40625 -1.40625 36 -1.40625 
Q 21.5 -1.40625 12.40625 7.5 
Q 2.796875 16.90625 2.796875 32.5 
Q 2.796875 47.09375 11.796875 57.203125 
Q 21.203125 67.59375 36.09375 67.59375 
Q 42.5 67.59375 48 66.09375 
Q 54.296875 64.296875 54.90625 64.296875 
Q 58.203125 64.296875 59.09375 67.59375 
L 61.09375 67.59375 
L 62 44.90625 
L 59.703125 44.90625 
Q 58.09375 52.09375 54.5 56 
Q 47.40625 63.59375 38.40625 63.59375 
Q 27.296875 63.59375 20.84375 55.4375 
Q 14.40625 47.296875 14.40625 34.09375 
Q 14.40625 18 21.59375 10.203125 
Q 28.296875 3 39.40625 3 
Q 46 3 50.796875 5.296875 
Q 55.59375 7.59375 61.40625 13.09375 
z
" id="STIXGeneral-Regular-67"/>
       <path d="M 15.90625 45.796875 
L 15.90625 38.09375 
Q 22.203125 46 30.296875 46 
Q 37.59375 46 42.296875 40 
Q 47 34 47 24.703125 
Q 47 13.796875 40.953125 6.390625 
Q 34.90625 -1 26 -1 
Q 22.90625 -1 20.75 -0.09375 
Q 18.59375 0.796875 15.90625 3.296875 
L 15.90625 -12.40625 
Q 15.90625 -17.09375 17.5 -18.4375 
Q 19.09375 -19.796875 24.703125 -19.90625 
L 24.703125 -21.703125 
L 0.5 -21.703125 
L 0.5 -20 
Q 4.90625 -19.59375 6.203125 -18.296875 
Q 7.5 -17 7.5 -13.09375 
L 7.5 33.703125 
Q 7.5 37.203125 6.703125 38.296875 
Q 5.90625 39.40625 3.40625 39.40625 
Q 1.796875 39.40625 0.90625 39.296875 
L 0.90625 40.90625 
Q 7.90625 43 15.296875 46 
z
M 15.90625 33.40625 
L 15.90625 8.796875 
Q 15.90625 6.59375 19.34375 4.390625 
Q 22.796875 2.203125 26.296875 2.203125 
Q 31.703125 2.203125 35.046875 7.296875 
Q 38.40625 12.40625 38.40625 20.703125 
Q 38.40625 29.5 35.046875 34.75 
Q 31.703125 40 26.09375 40 
Q 22.59375 40 19.25 37.796875 
Q 15.90625 35.59375 15.90625 33.40625 
z
" id="STIXGeneral-Regular-112"/>
      </defs>
      <use xlink:href="#STIXGeneral-Regular-67"/>
      <use x="66.699997" xlink:href="#STIXGeneral-Regular-112"/>
     </g>
    </g>
   </g>
   <g id="line2d_10">
    <path clip-path="url(#p16cefa8377)" d="M 92.290909 199.779468 
L 115.134075 199.90686 
L 137.783416 200.072508 
L 160.585108 200.174648 
L 183.396202 200.250621 
L 206.207293 200.314667 
L 229.018385 200.371902 
L 251.829477 200.425563 
L 274.64057 200.47779 
L 297.451662 200.530005 
L 320.262755 200.583229 
L 343.073847 200.638374 
L 365.884939 200.696654 
L 388.696032 200.760795 
L 411.507401 200.837061 
L 434.307986 200.929096 
L 456.999908 201.041991 
L 479.713673 201.338009 
L 498.109091 202.381596 
" style="fill:none;stroke:#1f77b4;stroke-linecap:square;stroke-width:5;"/>
   </g>
   <g id="line2d_11">
    <path clip-path="url(#p16cefa8377)" d="M 72 201.289655 
L 518.4 201.289655 
" style="fill:none;stroke:#000000;stroke-dasharray:3.2,0.8,0.5,0.8;stroke-dashoffset:0;stroke-width:0.5;"/>
   </g>
   <g id="line2d_12">
    <path clip-path="url(#p16cefa8377)" d="M 92.290909 198.044094 
L 101.458043 197.503931 
L 110.199973 197.78689 
L 119.425196 198.036325 
L 128.7129 198.203254 
L 138.000491 198.326749 
L 147.288081 198.424444 
L 156.575672 198.504763 
L 165.863263 198.573191 
L 175.150854 198.633303 
L 184.438444 198.687616 
L 193.726038 198.737853 
L 203.013615 198.786002 
L 212.301217 198.833424 
L 221.588807 198.880363 
L 230.876398 198.927105 
L 240.163989 198.974043 
L 249.45158 199.021627 
L 258.73917 199.070376 
L 268.026761 199.120792 
L 277.314352 199.173377 
L 286.601943 199.228613 
L 295.889533 199.287014 
L 305.177124 199.349079 
L 314.464715 199.415383 
L 323.752305 199.486508 
L 333.039896 199.523285 
L 333.039896 199.603049 
L 342.327487 199.646116 
L 351.615078 199.736293 
L 360.902668 199.834615 
L 370.190259 199.942096 
L 379.47785 200.05929 
L 388.765441 200.187032 
L 398.053031 200.326639 
L 407.340622 200.479517 
L 416.628213 200.648701 
L 425.915804 200.837522 
L 435.203394 201.05034 
L 444.490985 201.294276 
L 453.778576 201.583041 
L 463.066167 201.943258 
L 481.572676 202.9849 
L 491.14959 204.113188 
L 498.109091 206.736519 
" style="fill:none;stroke:#ff7f0e;stroke-linecap:square;stroke-width:5;"/>
   </g>
   <g id="line2d_13">
    <path clip-path="url(#p16cefa8377)" d="M 72 201.289655 
L 518.4 201.289655 
" style="fill:none;stroke:#000000;stroke-dasharray:3.2,0.8,0.5,0.8;stroke-dashoffset:0;stroke-width:0.5;"/>
   </g>
   <g id="line2d_14">
    <path clip-path="url(#p16cefa8377)" d="M 92.290909 195.734737 
L 100.162058 194.925836 
L 105.753424 195.605768 
L 111.590831 196.015465 
L 117.457393 196.294759 
L 123.323955 196.513565 
L 129.190517 196.691741 
L 135.057079 196.841321 
L 140.923641 196.970658 
L 146.790203 197.085129 
L 152.656765 197.188568 
L 158.523327 197.283557 
L 164.389889 197.371896 
L 170.256451 197.455056 
L 176.123013 197.533691 
L 181.989575 197.608257 
L 187.85613 197.679292 
L 193.722699 197.747299 
L 199.589254 197.812832 
L 205.455823 197.876331 
L 211.322385 197.938227 
L 217.188947 197.998804 
L 223.055509 198.058325 
L 228.922071 198.117003 
L 234.788633 198.175071 
L 240.655195 198.232728 
L 246.521757 198.290151 
L 252.388319 198.347512 
L 258.254881 198.404971 
L 264.121443 198.462681 
L 269.988005 198.520821 
L 275.854567 198.579553 
L 281.721129 198.609027 
L 281.721129 198.669058 
L 287.587691 198.699472 
L 293.454253 198.761054 
L 299.320815 198.82397 
L 305.187377 198.888446 
L 311.053939 198.954723 
L 316.920501 199.023061 
L 322.787063 199.09372 
L 328.653625 199.167041 
L 334.520187 199.243337 
L 340.386749 199.322984 
L 346.253311 199.406377 
L 352.119873 199.493982 
L 357.986435 199.586264 
L 363.852997 199.683789 
L 369.719559 199.787148 
L 375.586121 199.897039 
L 381.452683 200.014216 
L 387.319245 200.139619 
L 393.185807 200.274234 
L 399.052369 200.419359 
L 404.918931 200.576304 
L 410.785493 200.746793 
L 416.652055 200.932207 
L 422.518617 201.134459 
L 428.385179 201.354591 
L 434.251741 201.594981 
L 440.118303 201.861411 
L 445.984865 202.158486 
L 451.851427 202.49233 
L 457.717989 202.872312 
L 463.584551 203.312845 
L 469.451113 203.839889 
L 475.317675 204.502069 
L 486.997467 206.463336 
L 493.533884 208.505828 
L 498.109091 212.433812 
" style="fill:none;stroke:#2ca02c;stroke-linecap:square;stroke-width:5;"/>
   </g>
   <g id="line2d_15">
    <path clip-path="url(#p16cefa8377)" d="M 72 201.289655 
L 518.4 201.289655 
" style="fill:none;stroke:#000000;stroke-dasharray:3.2,0.8,0.5,0.8;stroke-dashoffset:0;stroke-width:0.5;"/>
   </g>
   <g id="line2d_16">
    <path clip-path="url(#p16cefa8377)" d="M 92.290909 193.760171 
L 96.497278 190.845189 
L 100.668187 191.391733 
L 105.070663 192.130854 
L 109.503228 192.670282 
L 113.935792 193.088574 
L 118.368356 193.436439 
L 122.80092 193.73404 
L 127.233485 193.994677 
L 131.666049 194.227516 
L 136.098613 194.438974 
L 140.531177 194.63388 
L 144.963742 194.815497 
L 149.396306 194.987176 
L 153.82887 195.150198 
L 158.261434 195.305236 
L 162.693999 195.453185 
L 167.126563 195.594835 
L 171.559127 195.731072 
L 175.991692 195.862569 
L 180.424256 195.990033 
L 184.85682 196.113985 
L 189.289384 196.234943 
L 193.721952 196.353276 
L 198.154518 196.469386 
L 202.587077 196.583534 
L 207.019641 196.696015 
L 211.452206 196.807 
L 215.88477 196.916658 
L 220.317334 197.025214 
L 224.749898 197.132874 
L 229.182463 197.239736 
L 233.615027 197.345936 
L 238.047591 197.451615 
L 242.480155 197.556981 
L 246.91272 197.662194 
L 251.345284 197.767408 
L 255.777848 197.872738 
L 260.210412 198.031172 
L 260.210412 197.925528 
L 264.642977 198.084393 
L 269.075541 198.190968 
L 273.508105 198.298171 
L 277.940669 198.406109 
L 282.373234 198.514898 
L 286.805798 198.624637 
L 291.238362 198.735433 
L 295.670926 198.847422 
L 300.103491 198.960709 
L 304.536055 199.075448 
L 308.968619 199.191765 
L 313.401183 199.309802 
L 317.833748 199.429667 
L 322.266312 199.551522 
L 326.698876 199.675581 
L 331.13144 199.801996 
L 335.564005 199.930903 
L 339.996569 200.062516 
L 344.429133 200.197078 
L 348.861697 200.334892 
L 353.294262 200.476229 
L 357.726826 200.621311 
L 362.15939 200.770557 
L 366.591954 200.924399 
L 371.024519 201.083109 
L 375.457083 201.24689 
L 379.889647 201.416131 
L 384.322211 201.591323 
L 388.754776 201.773031 
L 393.18734 201.961865 
L 397.619904 202.158479 
L 402.052468 202.363584 
L 406.485033 202.577954 
L 415.350161 203.038121 
L 419.782725 203.286033 
L 424.21529 203.547584 
L 428.647854 203.824386 
L 433.080418 204.118 
L 437.512983 204.430495 
L 441.945547 204.762186 
L 446.378111 205.115284 
L 450.810675 205.49411 
L 455.24324 205.902544 
L 459.675804 206.346912 
L 464.108368 206.834536 
L 468.540932 207.374745 
L 472.973497 207.98279 
L 477.406061 208.687239 
L 481.838625 209.538742 
L 486.266354 210.579918 
L 490.650563 211.957703 
L 495.711745 214.303299 
L 498.109091 217.6271 
" style="fill:none;stroke:#d62728;stroke-linecap:square;stroke-width:5;"/>
   </g>
   <g id="line2d_17">
    <path clip-path="url(#p16cefa8377)" d="M 72 201.289655 
L 518.4 201.289655 
" style="fill:none;stroke:#000000;stroke-dasharray:3.2,0.8,0.5,0.8;stroke-dashoffset:0;stroke-width:0.5;"/>
   </g>
   <g id="line2d_18">
    <path clip-path="url(#p16cefa8377)" d="M 92.290909 194.163963 
L 96.243118 186.373995 
L 96.243118 186.444251 
L 99.782519 186.75395 
L 103.516478 187.580801 
L 107.275496 188.221975 
L 111.034515 188.746027 
L 114.793534 189.204303 
L 118.552552 189.611769 
L 122.311571 189.979089 
L 126.070589 190.314686 
L 129.829608 190.624833 
L 133.588627 190.914459 
L 137.347645 191.186522 
L 141.106664 191.445232 
L 144.865683 191.692382 
L 148.624701 191.928958 
L 152.38372 192.155766 
L 156.142738 192.373747 
L 159.901757 192.583941 
L 163.660776 192.787011 
L 167.419794 192.983817 
L 171.178813 193.174906 
L 174.937831 193.360914 
L 178.69685 193.542271 
L 182.455869 193.719443 
L 186.214887 193.89277 
L 189.97391 194.062603 
L 193.732931 194.229201 
L 197.491939 194.392868 
L 201.250962 194.553803 
L 205.00998 194.712255 
L 208.768999 194.868377 
L 212.528018 195.022402 
L 216.287036 195.174501 
L 220.046055 195.324888 
L 223.805073 195.473751 
L 227.564092 195.621217 
L 231.323111 195.767294 
L 235.082129 195.912187 
L 238.841148 196.056077 
L 242.600166 196.199053 
L 246.359185 196.341133 
L 250.118204 196.412097 
L 250.118204 196.552815 
L 253.877222 196.623178 
L 257.636241 196.763359 
L 261.39526 196.90301 
L 265.154278 197.042258 
L 268.913297 197.181238 
L 272.672315 197.319993 
L 276.431334 197.458569 
L 280.190353 197.597073 
L 283.949371 197.735649 
L 287.70839 197.87436 
L 291.467408 198.013241 
L 295.226427 198.152417 
L 298.985446 198.292042 
L 302.744464 198.432177 
L 306.503483 198.572886 
L 310.262501 198.714303 
L 314.02152 198.856562 
L 317.780539 198.999771 
L 321.539557 199.144002 
L 325.298576 199.289397 
L 329.057595 199.436119 
L 332.816613 199.584275 
L 336.575632 199.733972 
L 340.33465 199.885353 
L 344.093669 200.038554 
L 347.852688 200.193717 
L 351.611706 200.35104 
L 355.370725 200.51062 
L 359.129743 200.672508 
L 362.888762 200.836862 
L 366.647781 201.003889 
L 370.406799 201.17386 
L 374.165818 201.347107 
L 377.924837 201.523931 
L 381.683855 201.704667 
L 385.442874 201.889681 
L 389.201892 202.079376 
L 392.960911 202.27416 
L 396.71993 202.474479 
L 400.478948 202.680775 
L 404.237967 202.893568 
L 407.996985 203.113395 
L 411.756004 203.340858 
L 415.515023 203.576609 
L 419.274041 203.821393 
L 423.03306 204.076071 
L 426.792079 204.341582 
L 430.551097 204.619057 
L 434.310116 204.90975 
L 438.069134 205.215157 
L 441.828153 205.537088 
L 445.587172 205.877703 
L 449.34619 206.238742 
L 453.105209 206.623052 
L 456.864227 207.029927 
L 460.623246 207.685412 
L 464.382265 207.929533 
L 468.141283 208.441299 
L 471.900302 209.005147 
L 475.65932 209.634098 
L 479.418339 210.350511 
L 483.177358 211.19842 
L 486.935921 212.231737 
L 490.671702 213.555755 
L 494.190599 215.333569 
L 498.109091 218.53738 
" style="fill:none;stroke:#9467bd;stroke-linecap:square;stroke-width:5;"/>
   </g>
   <g id="line2d_19">
    <path clip-path="url(#p16cefa8377)" d="M 72 201.289655 
L 518.4 201.289655 
" style="fill:none;stroke:#000000;stroke-dasharray:3.2,0.8,0.5,0.8;stroke-dashoffset:0;stroke-width:0.5;"/>
   </g>
   <g id="patch_3">
    <path d="M 72 272.97931 
L 72 129.6 
" style="fill:none;stroke:#000000;stroke-linecap:square;stroke-linejoin:miter;stroke-width:0.8;"/>
   </g>
   <g id="patch_4">
    <path d="M 518.4 272.97931 
L 518.4 129.6 
" style="fill:none;stroke:#000000;stroke-linecap:square;stroke-linejoin:miter;stroke-width:0.8;"/>
   </g>
   <g id="patch_5">
    <path d="M 72 272.97931 
L 518.4 272.97931 
" style="fill:none;stroke:#000000;stroke-linecap:square;stroke-linejoin:miter;stroke-width:0.8;"/>
   </g>
   <g id="patch_6">
    <path d="M 72 129.6 
L 518.4 129.6 
" style="fill:none;stroke:#000000;stroke-linecap:square;stroke-linejoin:miter;stroke-width:0.8;"/>
   </g>
   <g id="legend_1">
    <g id="line2d_20">
     <path d="M 112.49811 148.3425 
L 142.48611 148.3425 
" style="fill:none;stroke:#1f77b4;stroke-linecap:square;stroke-width:5;"/>
    </g>
    <g id="line2d_21"/>
    <g id="text_5">
     <!-- r/c = 0.52 -->
     <g transform="translate(154.48131 153.5904)scale(0.14994 -0.14994)">
      <defs>
       <path d="M 16 45.796875 
L 16 36.59375 
Q 19.796875 42 22.34375 44 
Q 24.90625 46 28 46 
Q 30.59375 46 32.046875 44.59375 
Q 33.5 43.203125 33.5 40.703125 
Q 33.5 38.59375 32.453125 37.390625 
Q 31.40625 36.203125 29.59375 36.203125 
Q 27.703125 36.203125 25.59375 38.203125 
Q 24 39.703125 23 39.703125 
Q 20.90625 39.703125 18.453125 36.796875 
Q 16 33.90625 16 31.5 
L 16 9 
Q 16 4.703125 17.703125 3.203125 
Q 19.40625 1.703125 24.5 1.5 
L 24.5 0 
L 0.5 0 
L 0.5 1.5 
Q 5.296875 2.40625 6.4375 3.5 
Q 7.59375 4.59375 7.59375 8.40625 
L 7.59375 33.40625 
Q 7.59375 36.703125 6.84375 38.046875 
Q 6.09375 39.40625 4.203125 39.40625 
Q 2.59375 39.40625 0.703125 39 
L 0.703125 40.59375 
Q 7 42.59375 15.5 46 
z
" id="STIXGeneral-Regular-114"/>
       <path d="M 28.703125 67.59375 
L 5.90625 -1.40625 
L -0.90625 -1.40625 
L 22 67.59375 
z
" id="STIXGeneral-Regular-47"/>
       <path d="M 39.796875 15.59375 
L 41.203125 14.703125 
Q 36.90625 6.296875 33 3.203125 
Q 27.90625 -1 21.5 -1 
Q 13.203125 -1 7.84375 5.25 
Q 2.5 11.5 2.5 21.203125 
Q 2.5 33.90625 10.90625 40.90625 
Q 17.09375 46 24.40625 46 
Q 30.703125 46 35.25 42.953125 
Q 39.796875 39.90625 39.796875 35.703125 
Q 39.796875 34 38.390625 32.75 
Q 37 31.5 35.09375 31.5 
Q 31.59375 31.5 30.296875 36.09375 
L 29.703125 38.296875 
Q 28.90625 41.09375 27.703125 42.09375 
Q 26.5 43.09375 23.796875 43.09375 
Q 17.703125 43.09375 13.953125 38.296875 
Q 10.203125 33.5 10.203125 25.703125 
Q 10.203125 17.09375 14.5 11.640625 
Q 18.796875 6.203125 25.703125 6.203125 
Q 30 6.203125 33.09375 8.25 
Q 36.203125 10.296875 39.796875 15.59375 
z
" id="STIXGeneral-Regular-99"/>
       <path id="STIXGeneral-Regular-32"/>
       <path d="M 63.703125 32 
L 4.796875 32 
L 4.796875 38.59375 
L 63.703125 38.59375 
z
M 63.703125 12 
L 4.796875 12 
L 4.796875 18.59375 
L 63.703125 18.59375 
z
" id="STIXGeneral-Regular-61"/>
       <path d="M 18.09375 4.296875 
Q 18.09375 2.09375 16.4375 0.5 
Q 14.796875 -1.09375 12.5 -1.09375 
Q 10.203125 -1.09375 8.59375 0.5 
Q 7 2.09375 7 4.390625 
Q 7 6.703125 8.640625 8.34375 
Q 10.296875 10 12.59375 10 
Q 14.796875 10 16.4375 8.296875 
Q 18.09375 6.59375 18.09375 4.296875 
z
" id="STIXGeneral-Regular-46"/>
       <path d="M 47.40625 13.703125 
L 42 0 
L 2.90625 0 
L 2.90625 1.203125 
L 20.703125 20.09375 
Q 27.703125 27.40625 30.703125 33.5 
Q 33.703125 39.59375 33.703125 46.09375 
Q 33.703125 52.796875 30 56.5 
Q 26.296875 60.203125 19.796875 60.203125 
Q 14.40625 60.203125 11.25 57.390625 
Q 8.09375 54.59375 5.09375 47.203125 
L 3 47.703125 
Q 4.703125 57 9.84375 62.296875 
Q 15 67.59375 23.796875 67.59375 
Q 32.09375 67.59375 37.1875 62.59375 
Q 42.296875 57.59375 42.296875 50 
Q 42.296875 38.703125 29.5 25.203125 
L 13 7.59375 
L 36.40625 7.59375 
Q 39.703125 7.59375 41.640625 8.890625 
Q 43.59375 10.203125 46 14.296875 
z
" id="STIXGeneral-Regular-50"/>
      </defs>
      <use xlink:href="#STIXGeneral-Regular-114"/>
      <use x="33.299988" xlink:href="#STIXGeneral-Regular-47"/>
      <use x="61.099976" xlink:href="#STIXGeneral-Regular-99"/>
      <use x="105.499969" xlink:href="#STIXGeneral-Regular-32"/>
      <use x="130.499954" xlink:href="#STIXGeneral-Regular-61"/>
      <use x="198.999939" xlink:href="#STIXGeneral-Regular-32"/>
      <use x="223.999924" xlink:href="#STIXGeneral-Regular-48"/>
      <use x="273.999908" xlink:href="#STIXGeneral-Regular-46"/>
      <use x="298.999893" xlink:href="#STIXGeneral-Regular-53"/>
      <use x="348.999878" xlink:href="#STIXGeneral-Regular-50"/>
     </g>
    </g>
    <g id="line2d_22">
     <path d="M 112.49811 169.589467 
L 142.48611 169.589467 
" style="fill:none;stroke:#ff7f0e;stroke-linecap:square;stroke-width:5;"/>
    </g>
    <g id="line2d_23"/>
    <g id="text_6">
     <!-- r/c = 1.04 -->
     <g transform="translate(154.48131 174.837367)scale(0.14994 -0.14994)">
      <defs>
       <path d="M 39.40625 0 
L 11.796875 0 
L 11.796875 1.5 
Q 17.296875 1.796875 19.296875 3.546875 
Q 21.296875 5.296875 21.296875 9.5 
L 21.296875 54.40625 
Q 21.296875 59.296875 18.296875 59.296875 
Q 16.90625 59.296875 13.796875 58.09375 
L 11.09375 57.09375 
L 11.09375 58.5 
L 29 67.59375 
L 29.90625 67.296875 
L 29.90625 7.59375 
Q 29.90625 4.296875 31.90625 2.890625 
Q 33.90625 1.5 39.40625 1.5 
z
" id="STIXGeneral-Regular-49"/>
       <path d="M 47.296875 16.703125 
L 37 16.703125 
L 37 0 
L 29.203125 0 
L 29.203125 16.703125 
L 1.203125 16.703125 
L 1.203125 23.09375 
L 32.59375 67.59375 
L 37 67.59375 
L 37 23.09375 
L 47.296875 23.09375 
z
M 29.203125 23.09375 
L 29.203125 57.40625 
L 5.203125 23.09375 
z
" id="STIXGeneral-Regular-52"/>
      </defs>
      <use xlink:href="#STIXGeneral-Regular-114"/>
      <use x="33.299988" xlink:href="#STIXGeneral-Regular-47"/>
      <use x="61.099976" xlink:href="#STIXGeneral-Regular-99"/>
      <use x="105.499969" xlink:href="#STIXGeneral-Regular-32"/>
      <use x="130.499954" xlink:href="#STIXGeneral-Regular-61"/>
      <use x="198.999939" xlink:href="#STIXGeneral-Regular-32"/>
      <use x="223.999924" xlink:href="#STIXGeneral-Regular-49"/>
      <use x="273.999908" xlink:href="#STIXGeneral-Regular-46"/>
      <use x="298.999893" xlink:href="#STIXGeneral-Regular-48"/>
      <use x="348.999878" xlink:href="#STIXGeneral-Regular-52"/>
     </g>
    </g>
    <g id="line2d_24">
     <path d="M 244.29537 148.3425 
L 274.28337 148.3425 
" style="fill:none;stroke:#2ca02c;stroke-linecap:square;stroke-width:5;"/>
    </g>
    <g id="line2d_25"/>
    <g id="text_7">
     <!-- r/c = 1.56 -->
     <g transform="translate(286.27857 153.5904)scale(0.14994 -0.14994)">
      <defs>
       <path d="M 44.59375 68.40625 
L 44.796875 66.796875 
Q 33 64.90625 25.09375 57.25 
Q 17.203125 49.59375 15.203125 38.296875 
Q 21 42.796875 27.90625 42.796875 
Q 36.703125 42.796875 41.75 37.1875 
Q 46.796875 31.59375 46.796875 21.90625 
Q 46.796875 12.09375 41.703125 5.90625 
Q 35.796875 -1.40625 25.796875 -1.40625 
Q 13.59375 -1.40625 8.09375 8.703125 
Q 3.40625 17.296875 3.40625 27.90625 
Q 3.40625 44.296875 14.296875 55.5 
Q 20.5 61.90625 27.046875 64.546875 
Q 33.59375 67.203125 44.59375 68.40625 
z
M 37.796875 18.796875 
Q 37.796875 38.203125 24.296875 38.203125 
Q 19.296875 38.203125 16 35.546875 
Q 12.703125 32.90625 12.703125 26.59375 
Q 12.703125 14.90625 16.34375 8.15625 
Q 20 1.40625 26.90625 1.40625 
Q 32.203125 1.40625 35 6.15625 
Q 37.796875 10.90625 37.796875 18.796875 
z
" id="STIXGeneral-Regular-54"/>
      </defs>
      <use xlink:href="#STIXGeneral-Regular-114"/>
      <use x="33.299988" xlink:href="#STIXGeneral-Regular-47"/>
      <use x="61.099976" xlink:href="#STIXGeneral-Regular-99"/>
      <use x="105.499969" xlink:href="#STIXGeneral-Regular-32"/>
      <use x="130.499954" xlink:href="#STIXGeneral-Regular-61"/>
      <use x="198.999939" xlink:href="#STIXGeneral-Regular-32"/>
      <use x="223.999924" xlink:href="#STIXGeneral-Regular-49"/>
      <use x="273.999908" xlink:href="#STIXGeneral-Regular-46"/>
      <use x="298.999893" xlink:href="#STIXGeneral-Regular-53"/>
      <use x="348.999878" xlink:href="#STIXGeneral-Regular-54"/>
     </g>
    </g>
    <g id="line2d_26">
     <path d="M 244.29537 169.589467 
L 274.28337 169.589467 
" style="fill:none;stroke:#d62728;stroke-linecap:square;stroke-width:5;"/>
    </g>
    <g id="line2d_27"/>
    <g id="text_8">
     <!-- r/c = 2.08 -->
     <g transform="translate(286.27857 174.837367)scale(0.14994 -0.14994)">
      <defs>
       <path d="M 44.5 15.5 
Q 44.5 7.796875 39.140625 3.1875 
Q 33.796875 -1.40625 24.796875 -1.40625 
Q 16.40625 -1.40625 11 3.1875 
Q 5.59375 7.796875 5.59375 14.90625 
Q 5.59375 20.203125 8.1875 23.953125 
Q 10.796875 27.703125 18.59375 33.203125 
Q 11.09375 39.40625 8.640625 43.203125 
Q 6.203125 47 6.203125 52 
Q 6.203125 59.09375 11.640625 63.34375 
Q 17.09375 67.59375 25.59375 67.59375 
Q 32.90625 67.59375 37.65625 63.4375 
Q 42.40625 59.296875 42.40625 53.296875 
Q 42.40625 47.796875 39.546875 44.5 
Q 36.703125 41.203125 29 37.09375 
Q 38 31.09375 41.25 26.390625 
Q 44.5 21.703125 44.5 15.5 
z
M 35.5 53.296875 
Q 35.5 58.5 32.59375 61.640625 
Q 29.703125 64.796875 24.59375 64.796875 
Q 19.5 64.796875 16.546875 62.140625 
Q 13.59375 59.5 13.59375 54.890625 
Q 13.59375 50.296875 16.546875 46.546875 
Q 19.5 42.796875 26.09375 38.90625 
Q 31.203125 41.90625 33.34375 45.25 
Q 35.5 48.59375 35.5 53.296875 
z
M 27.09375 27.203125 
L 21.203125 31.203125 
Q 16.796875 27.59375 15 24.140625 
Q 13.203125 20.703125 13.203125 15.796875 
Q 13.203125 9 16.640625 5.203125 
Q 20.09375 1.40625 25.90625 1.40625 
Q 30.796875 1.40625 33.84375 4.453125 
Q 36.90625 7.5 36.90625 12.40625 
Q 36.90625 16.90625 34.59375 20.296875 
Q 32.296875 23.703125 27.09375 27.203125 
z
" id="STIXGeneral-Regular-56"/>
      </defs>
      <use xlink:href="#STIXGeneral-Regular-114"/>
      <use x="33.299988" xlink:href="#STIXGeneral-Regular-47"/>
      <use x="61.099976" xlink:href="#STIXGeneral-Regular-99"/>
      <use x="105.499969" xlink:href="#STIXGeneral-Regular-32"/>
      <use x="130.499954" xlink:href="#STIXGeneral-Regular-61"/>
      <use x="198.999939" xlink:href="#STIXGeneral-Regular-32"/>
      <use x="223.999924" xlink:href="#STIXGeneral-Regular-50"/>
      <use x="273.999908" xlink:href="#STIXGeneral-Regular-46"/>
      <use x="298.999893" xlink:href="#STIXGeneral-Regular-48"/>
      <use x="348.999878" xlink:href="#STIXGeneral-Regular-56"/>
     </g>
    </g>
    <g id="line2d_28">
     <path d="M 376.09263 148.3425 
L 406.08063 148.3425 
" style="fill:none;stroke:#9467bd;stroke-linecap:square;stroke-width:5;"/>
    </g>
    <g id="line2d_29"/>
    <g id="text_9">
     <!-- r/c = 2.60 -->
     <g transform="translate(418.07583 153.5904)scale(0.14994 -0.14994)">
      <use xlink:href="#STIXGeneral-Regular-114"/>
      <use x="33.299988" xlink:href="#STIXGeneral-Regular-47"/>
      <use x="61.099976" xlink:href="#STIXGeneral-Regular-99"/>
      <use x="105.499969" xlink:href="#STIXGeneral-Regular-32"/>
      <use x="130.499954" xlink:href="#STIXGeneral-Regular-61"/>
      <use x="198.999939" xlink:href="#STIXGeneral-Regular-32"/>
      <use x="223.999924" xlink:href="#STIXGeneral-Regular-50"/>
      <use x="273.999908" xlink:href="#STIXGeneral-Regular-46"/>
      <use x="298.999893" xlink:href="#STIXGeneral-Regular-54"/>
      <use x="348.999878" xlink:href="#STIXGeneral-Regular-48"/>
     </g>
    </g>
   </g>
  </g>
  <g id="axes_2">
   <g id="patch_7">
    <path d="M 72 445.034483 
L 518.4 445.034483 
L 518.4 301.655172 
L 72 301.655172 
z
" style="fill:#ffffff;"/>
   </g>
   <g id="matplotlib.axis_3">
    <g id="xtick_7">
     <g id="line2d_30">
      <g>
       <use style="fill:#ffffff;stroke:#000000;stroke-width:0.8;" x="92.290909" xlink:href="#m30ccf05253" y="445.034483"/>
      </g>
     </g>
    </g>
    <g id="xtick_8">
     <g id="line2d_31">
      <g>
       <use style="fill:#ffffff;stroke:#000000;stroke-width:0.8;" x="173.454545" xlink:href="#m30ccf05253" y="445.034483"/>
      </g>
     </g>
    </g>
    <g id="xtick_9">
     <g id="line2d_32">
      <g>
       <use style="fill:#ffffff;stroke:#000000;stroke-width:0.8;" x="254.618182" xlink:href="#m30ccf05253" y="445.034483"/>
      </g>
     </g>
    </g>
    <g id="xtick_10">
     <g id="line2d_33">
      <g>
       <use style="fill:#ffffff;stroke:#000000;stroke-width:0.8;" x="335.781818" xlink:href="#m30ccf05253" y="445.034483"/>
      </g>
     </g>
    </g>
    <g id="xtick_11">
     <g id="line2d_34">
      <g>
       <use style="fill:#ffffff;stroke:#000000;stroke-width:0.8;" x="416.945455" xlink:href="#m30ccf05253" y="445.034483"/>
      </g>
     </g>
    </g>
    <g id="xtick_12">
     <g id="line2d_35">
      <g>
       <use style="fill:#ffffff;stroke:#000000;stroke-width:0.8;" x="498.109091" xlink:href="#m30ccf05253" y="445.034483"/>
      </g>
     </g>
    </g>
   </g>
   <g id="matplotlib.axis_4">
    <g id="ytick_4">
     <g id="line2d_36">
      <g>
       <use style="fill:#ffffff;stroke:#000000;stroke-width:0.8;" x="72" xlink:href="#m2507568236" y="418.150862"/>
      </g>
     </g>
     <g id="text_10">
      <!-- −5 -->
      <g transform="translate(43.67 424.297581)scale(0.18 -0.18)">
       <use xlink:href="#STIXGeneral-Regular-8722"/>
       <use x="68.499985" xlink:href="#STIXGeneral-Regular-53"/>
      </g>
     </g>
    </g>
    <g id="ytick_5">
     <g id="line2d_37">
      <g>
       <use style="fill:#ffffff;stroke:#000000;stroke-width:0.8;" x="72" xlink:href="#m2507568236" y="373.344828"/>
      </g>
     </g>
     <g id="text_11">
      <!-- 0 -->
      <g transform="translate(56 379.491546)scale(0.18 -0.18)">
       <use xlink:href="#STIXGeneral-Regular-48"/>
      </g>
     </g>
    </g>
    <g id="ytick_6">
     <g id="line2d_38">
      <g>
       <use style="fill:#ffffff;stroke:#000000;stroke-width:0.8;" x="72" xlink:href="#m2507568236" y="328.538793"/>
      </g>
     </g>
     <g id="text_12">
      <!-- 5 -->
      <g transform="translate(56 334.685512)scale(0.18 -0.18)">
       <use xlink:href="#STIXGeneral-Regular-53"/>
      </g>
     </g>
    </g>
    <g id="text_13">
     <!-- Cp -->
     <g transform="translate(35.763438 383.848109)rotate(-90)scale(0.18 -0.18)">
      <use xlink:href="#STIXGeneral-Regular-67"/>
      <use x="66.699997" xlink:href="#STIXGeneral-Regular-112"/>
     </g>
    </g>
   </g>
   <g id="line2d_39">
    <path clip-path="url(#p0c493834ca)" d="M 92.290909 371.781429 
L 115.134075 371.860457 
L 137.783416 372.1163 
L 160.585108 372.283059 
L 183.396199 372.409986 
L 206.207293 372.519904 
L 229.018385 372.619293 
L 251.829477 372.712553 
L 274.64057 372.802886 
L 297.451662 372.892539 
L 320.262755 372.983227 
L 343.073847 373.076548 
L 365.884939 373.174589 
L 388.696032 373.281621 
L 411.507401 373.406975 
L 434.307986 373.556906 
L 456.999908 373.739148 
L 479.713673 374.156483 
L 498.109091 375.514623 
" style="fill:none;stroke:#1f77b4;stroke-linecap:square;stroke-width:5;"/>
   </g>
   <g id="line2d_40">
    <path clip-path="url(#p0c493834ca)" d="M 72 373.344828 
L 518.4 373.344828 
" style="fill:none;stroke:#000000;stroke-dasharray:3.2,0.8,0.5,0.8;stroke-dashoffset:0;stroke-width:0.5;"/>
   </g>
   <g id="line2d_41">
    <path clip-path="url(#p0c493834ca)" d="M 92.290909 371.972849 
L 101.458043 369.350432 
L 110.199861 369.389754 
L 119.425196 369.658985 
L 128.7129 369.877871 
L 138.000491 370.061576 
L 147.288081 370.223505 
L 156.575672 370.368712 
L 165.863263 370.50193 
L 175.150854 370.626437 
L 184.438444 370.744689 
L 193.726043 370.858326 
L 203.013626 370.968764 
L 212.301217 371.078162 
L 221.588807 371.186996 
L 230.876398 371.295444 
L 240.163989 371.403893 
L 249.45158 371.512637 
L 258.73917 371.622152 
L 268.026761 371.73276 
L 277.314352 371.844937 
L 286.601943 371.959022 
L 295.889533 372.075491 
L 305.177124 372.194719 
L 314.464715 372.317237 
L 323.752305 372.443491 
L 333.039896 372.507716 
L 333.039896 372.640539 
L 342.327487 372.709758 
L 351.615078 372.851209 
L 360.902668 372.999196 
L 370.190259 373.154597 
L 379.47785 373.317644 
L 388.765441 373.488927 
L 398.053031 373.669516 
L 407.340622 373.861014 
L 416.628213 374.066284 
L 425.915804 374.288344 
L 435.203394 374.530906 
L 444.490985 374.800137 
L 453.778576 375.10833 
L 463.066167 375.479566 
L 481.572676 376.506583 
L 491.14959 377.564714 
L 498.109091 379.935634 
" style="fill:none;stroke:#ff7f0e;stroke-linecap:square;stroke-width:5;"/>
   </g>
   <g id="line2d_42">
    <path clip-path="url(#p0c493834ca)" d="M 72 373.344828 
L 518.4 373.344828 
" style="fill:none;stroke:#000000;stroke-dasharray:3.2,0.8,0.5,0.8;stroke-dashoffset:0;stroke-width:0.5;"/>
   </g>
   <g id="line2d_43">
    <path clip-path="url(#p0c493834ca)" d="M 92.290909 373.039681 
L 100.162058 366.403916 
L 105.753424 366.426525 
L 111.590831 366.587773 
L 117.457393 366.735884 
L 123.323955 366.905537 
L 129.190517 367.078282 
L 135.057079 367.244459 
L 140.923641 367.40422 
L 146.790203 367.558272 
L 152.656765 367.707189 
L 158.523327 367.851608 
L 164.389889 367.991824 
L 170.256451 368.130113 
L 176.123013 368.266906 
L 181.989575 368.401978 
L 187.856123 368.5355 
L 193.722705 368.66749 
L 199.589269 368.79827 
L 205.455823 368.927983 
L 211.322385 369.056953 
L 217.188947 369.185259 
L 223.055509 369.313118 
L 228.922071 369.440663 
L 234.788633 369.568118 
L 240.655195 369.695636 
L 246.521757 369.823414 
L 252.388319 369.951586 
L 258.254881 370.080341 
L 264.121443 370.209812 
L 269.988005 370.340162 
L 275.854567 370.471524 
L 281.721129 370.537676 
L 281.721129 370.670472 
L 287.587691 370.73795 
L 293.454253 370.873327 
L 299.320815 371.010353 
L 305.187377 371.149215 
L 311.053939 371.290086 
L 316.920501 371.433151 
L 322.787063 371.578619 
L 328.653625 371.726693 
L 334.520187 371.8776 
L 340.386749 372.03159 
L 346.253311 372.188904 
L 352.119873 372.34982 
L 357.986435 372.514643 
L 363.852997 372.683691 
L 369.719559 372.857317 
L 375.586121 373.035927 
L 381.452683 373.219956 
L 387.319245 373.40993 
L 393.185807 373.606434 
L 399.052369 373.810191 
L 404.918931 374.021962 
L 410.785493 374.242723 
L 416.652055 374.473044 
L 422.518617 374.713733 
L 428.385179 374.964503 
L 434.251741 375.226475 
L 440.118303 375.502946 
L 445.984865 375.796721 
L 451.851427 376.110695 
L 457.717989 376.448981 
L 463.584551 376.818156 
L 469.451113 377.231545 
L 475.317675 377.71493 
L 486.997467 378.992574 
L 493.533884 380.227267 
L 498.109091 382.526659 
" style="fill:none;stroke:#2ca02c;stroke-linecap:square;stroke-width:5;"/>
   </g>
   <g id="line2d_44">
    <path clip-path="url(#p0c493834ca)" d="M 72 373.344828 
L 518.4 373.344828 
" style="fill:none;stroke:#000000;stroke-dasharray:3.2,0.8,0.5,0.8;stroke-dashoffset:0;stroke-width:0.5;"/>
   </g>
   <g id="line2d_45">
    <path clip-path="url(#p0c493834ca)" d="M 92.290909 376.086948 
L 96.497278 364.873987 
L 100.668187 363.33964 
L 105.070663 363.065427 
L 109.503228 363.015603 
L 113.935792 363.086486 
L 118.368356 363.223055 
L 122.80092 363.386866 
L 127.233485 363.561609 
L 131.666049 363.741102 
L 136.098613 363.92176 
L 140.531177 364.101163 
L 144.963742 364.277251 
L 149.396306 364.452434 
L 153.82887 364.626882 
L 158.261434 364.799779 
L 162.693999 364.971001 
L 167.126563 365.14018 
L 171.559127 365.307423 
L 175.991692 365.472596 
L 180.424256 365.635905 
L 184.85682 365.797341 
L 189.28939 365.957128 
L 193.721957 366.11532 
L 198.154518 366.272114 
L 202.587077 366.4276 
L 207.019641 366.581921 
L 211.452206 366.735122 
L 215.88477 366.887292 
L 220.317334 367.038548 
L 224.749898 367.189052 
L 229.182463 367.338812 
L 233.615027 367.487953 
L 238.047591 367.636584 
L 242.480155 367.784847 
L 246.91272 367.932868 
L 251.345284 368.080728 
L 255.777848 368.228427 
L 260.210412 368.449858 
L 260.210412 368.302473 
L 264.642977 368.524209 
L 269.075541 368.672553 
L 273.508105 368.821148 
L 277.940669 368.970137 
L 282.373234 369.119717 
L 286.805798 369.269889 
L 291.238362 369.42059 
L 295.670926 369.571971 
L 300.103491 369.724222 
L 304.536055 369.87736 
L 308.968619 370.031359 
L 313.401183 370.186334 
L 317.833748 370.342447 
L 322.266312 370.499734 
L 326.698876 370.658195 
L 331.13144 370.81792 
L 335.564005 370.97897 
L 339.996569 371.141428 
L 344.429133 371.305382 
L 348.861697 371.471021 
L 353.294262 371.638479 
L 357.726826 371.80781 
L 362.15939 371.979247 
L 366.591954 372.153077 
L 371.024519 372.329379 
L 375.457083 372.508173 
L 379.889647 372.689623 
L 384.322211 372.873937 
L 388.754776 373.061357 
L 393.18734 373.252125 
L 397.619904 373.446496 
L 402.052468 373.644736 
L 406.485033 373.847131 
L 415.350161 374.265699 
L 419.782725 374.482659 
L 424.21529 374.705417 
L 428.647854 374.934644 
L 433.080418 375.170844 
L 437.512983 375.414813 
L 441.945547 375.666166 
L 446.378111 375.925888 
L 450.810675 376.194975 
L 455.24324 376.474538 
L 459.675804 376.767193 
L 464.108368 377.075584 
L 468.540932 377.402722 
L 472.973497 377.754028 
L 477.406061 378.141206 
L 481.838625 378.586238 
L 486.266354 379.099213 
L 490.650563 379.754609 
L 495.711745 380.907056 
L 498.109091 382.601396 
" style="fill:none;stroke:#d62728;stroke-linecap:square;stroke-width:5;"/>
   </g>
   <g id="line2d_46">
    <path clip-path="url(#p0c493834ca)" d="M 72 373.344828 
L 518.4 373.344828 
" style="fill:none;stroke:#000000;stroke-dasharray:3.2,0.8,0.5,0.8;stroke-dashoffset:0;stroke-width:0.5;"/>
   </g>
   <g id="line2d_47">
    <path clip-path="url(#p0c493834ca)" d="M 92.290909 381.032136 
L 96.243118 361.033563 
L 96.243118 363.659197 
L 99.782519 359.820036 
L 103.516478 359.170797 
L 107.275496 358.873554 
L 111.034515 358.806882 
L 114.793534 358.883949 
L 118.552552 359.039515 
L 122.311571 359.23021 
L 126.070589 359.436318 
L 129.829608 359.651297 
L 133.588627 359.87004 
L 137.347645 360.087797 
L 141.106664 360.306451 
L 144.865683 360.525642 
L 148.624701 360.743937 
L 152.38372 360.960798 
L 156.142738 361.175419 
L 159.901757 361.3878 
L 163.660776 361.597492 
L 167.419794 361.804675 
L 171.178813 362.00908 
L 174.937831 362.210976 
L 178.69685 362.410273 
L 182.455869 362.607241 
L 186.214887 362.801788 
L 189.973892 362.994186 
L 193.732921 363.184522 
L 197.491934 363.372886 
L 201.250962 363.559279 
L 205.00998 363.744059 
L 208.768999 363.927137 
L 212.528018 364.108601 
L 216.287036 364.288722 
L 220.046055 364.467453 
L 223.805073 364.645028 
L 227.564092 364.821438 
L 231.323111 364.996603 
L 235.082129 365.170746 
L 238.841148 365.344172 
L 242.600166 365.516864 
L 246.359185 365.688695 
L 250.118204 365.774678 
L 250.118204 365.944994 
L 253.877222 366.03052 
L 257.636241 366.20072 
L 261.39526 366.37032 
L 265.154278 366.539454 
L 268.913297 366.708328 
L 272.672315 366.876924 
L 276.431334 367.045126 
L 280.190353 367.213077 
L 283.949371 367.380974 
L 287.70839 367.5488 
L 291.467408 367.716473 
L 295.226427 367.884137 
L 298.985446 368.052016 
L 302.744464 368.220102 
L 306.503483 368.388321 
L 310.262501 368.556801 
L 314.02152 368.725773 
L 317.780539 368.895221 
L 321.539557 369.065072 
L 325.298576 369.235424 
L 329.057595 369.406494 
L 332.816613 369.578253 
L 336.575632 369.750631 
L 340.33465 369.923717 
L 344.093669 370.097654 
L 347.852688 370.272451 
L 351.611706 370.448091 
L 355.370725 370.624564 
L 359.129743 370.801816 
L 362.888762 370.979822 
L 366.647781 371.158571 
L 370.406799 371.338189 
L 374.165818 371.518829 
L 377.924837 371.700598 
L 381.683855 371.88364 
L 385.442874 372.068133 
L 389.201892 372.254267 
L 392.960911 372.442228 
L 396.71993 372.632204 
L 400.478948 372.824371 
L 404.237967 373.018915 
L 407.996985 373.216014 
L 411.756004 373.415864 
L 415.515023 373.618669 
L 419.274041 373.824651 
L 423.03306 374.034063 
L 426.792079 374.247194 
L 430.551097 374.464378 
L 434.310116 374.685998 
L 438.069134 374.912564 
L 441.828153 375.144686 
L 445.587172 375.383215 
L 449.34619 375.628502 
L 453.105209 375.881297 
L 456.864227 376.140312 
L 460.623246 376.542625 
L 464.382265 376.684759 
L 468.141283 376.975998 
L 471.900302 377.28257 
L 475.65932 377.608202 
L 479.418339 377.960674 
L 483.177358 378.357852 
L 486.935921 378.817042 
L 490.671702 379.371544 
L 494.190143 380.134931 
L 498.109091 381.686179 
" style="fill:none;stroke:#9467bd;stroke-linecap:square;stroke-width:5;"/>
   </g>
   <g id="line2d_48">
    <path clip-path="url(#p0c493834ca)" d="M 72 373.344828 
L 518.4 373.344828 
" style="fill:none;stroke:#000000;stroke-dasharray:3.2,0.8,0.5,0.8;stroke-dashoffset:0;stroke-width:0.5;"/>
   </g>
   <g id="patch_8">
    <path d="M 72 445.034483 
L 72 301.655172 
" style="fill:none;stroke:#000000;stroke-linecap:square;stroke-linejoin:miter;stroke-width:0.8;"/>
   </g>
   <g id="patch_9">
    <path d="M 518.4 445.034483 
L 518.4 301.655172 
" style="fill:none;stroke:#000000;stroke-linecap:square;stroke-linejoin:miter;stroke-width:0.8;"/>
   </g>
   <g id="patch_10">
    <path d="M 72 445.034483 
L 518.4 445.034483 
" style="fill:none;stroke:#000000;stroke-linecap:square;stroke-linejoin:miter;stroke-width:0.8;"/>
   </g>
   <g id="patch_11">
    <path d="M 72 301.655172 
L 518.4 301.655172 
" style="fill:none;stroke:#000000;stroke-linecap:square;stroke-linejoin:miter;stroke-width:0.8;"/>
   </g>
  </g>
  <g id="axes_3">
   <g id="patch_12">
    <path d="M 72 617.089655 
L 518.4 617.089655 
L 518.4 473.710345 
L 72 473.710345 
z
" style="fill:#ffffff;"/>
   </g>
   <g id="matplotlib.axis_5">
    <g id="xtick_13">
     <g id="line2d_49">
      <g>
       <use style="fill:#ffffff;stroke:#000000;stroke-width:0.8;" x="92.290909" xlink:href="#m30ccf05253" y="617.089655"/>
      </g>
     </g>
    </g>
    <g id="xtick_14">
     <g id="line2d_50">
      <g>
       <use style="fill:#ffffff;stroke:#000000;stroke-width:0.8;" x="173.454545" xlink:href="#m30ccf05253" y="617.089655"/>
      </g>
     </g>
    </g>
    <g id="xtick_15">
     <g id="line2d_51">
      <g>
       <use style="fill:#ffffff;stroke:#000000;stroke-width:0.8;" x="254.618182" xlink:href="#m30ccf05253" y="617.089655"/>
      </g>
     </g>
    </g>
    <g id="xtick_16">
     <g id="line2d_52">
      <g>
       <use style="fill:#ffffff;stroke:#000000;stroke-width:0.8;" x="335.781818" xlink:href="#m30ccf05253" y="617.089655"/>
      </g>
     </g>
    </g>
    <g id="xtick_17">
     <g id="line2d_53">
      <g>
       <use style="fill:#ffffff;stroke:#000000;stroke-width:0.8;" x="416.945455" xlink:href="#m30ccf05253" y="617.089655"/>
      </g>
     </g>
    </g>
    <g id="xtick_18">
     <g id="line2d_54">
      <g>
       <use style="fill:#ffffff;stroke:#000000;stroke-width:0.8;" x="498.109091" xlink:href="#m30ccf05253" y="617.089655"/>
      </g>
     </g>
    </g>
   </g>
   <g id="matplotlib.axis_6">
    <g id="ytick_7">
     <g id="line2d_55">
      <g>
       <use style="fill:#ffffff;stroke:#000000;stroke-width:0.8;" x="72" xlink:href="#m2507568236" y="590.206034"/>
      </g>
     </g>
     <g id="text_14">
      <!-- −5 -->
      <g transform="translate(43.67 596.352753)scale(0.18 -0.18)">
       <use xlink:href="#STIXGeneral-Regular-8722"/>
       <use x="68.499985" xlink:href="#STIXGeneral-Regular-53"/>
      </g>
     </g>
    </g>
    <g id="ytick_8">
     <g id="line2d_56">
      <g>
       <use style="fill:#ffffff;stroke:#000000;stroke-width:0.8;" x="72" xlink:href="#m2507568236" y="545.4"/>
      </g>
     </g>
     <g id="text_15">
      <!-- 0 -->
      <g transform="translate(56 551.546719)scale(0.18 -0.18)">
       <use xlink:href="#STIXGeneral-Regular-48"/>
      </g>
     </g>
    </g>
    <g id="ytick_9">
     <g id="line2d_57">
      <g>
       <use style="fill:#ffffff;stroke:#000000;stroke-width:0.8;" x="72" xlink:href="#m2507568236" y="500.593966"/>
      </g>
     </g>
     <g id="text_16">
      <!-- 5 -->
      <g transform="translate(56 506.740684)scale(0.18 -0.18)">
       <use xlink:href="#STIXGeneral-Regular-53"/>
      </g>
     </g>
    </g>
    <g id="text_17">
     <!-- Cp -->
     <g transform="translate(35.763438 555.903281)rotate(-90)scale(0.18 -0.18)">
      <use xlink:href="#STIXGeneral-Regular-67"/>
      <use x="66.699997" xlink:href="#STIXGeneral-Regular-112"/>
     </g>
    </g>
   </g>
   <g id="line2d_58">
    <path clip-path="url(#p9090b295ac)" d="M 92.290909 543.753871 
L 115.134075 543.664151 
L 137.783416 543.956269 
L 160.585108 544.160405 
L 183.396205 544.320201 
L 206.207293 544.462174 
L 229.018385 544.592907 
L 251.829477 544.717477 
L 274.64057 544.840103 
L 297.451662 544.963837 
L 320.262755 545.091156 
L 343.073847 545.22462 
L 365.884939 545.367729 
L 388.696032 545.527269 
L 411.507401 545.717408 
L 434.307986 545.948836 
L 456.999908 546.233408 
L 479.710908 546.834268 
L 498.109091 548.644602 
" style="fill:none;stroke:#1f77b4;stroke-linecap:square;stroke-width:5;"/>
   </g>
   <g id="line2d_59">
    <path clip-path="url(#p9090b295ac)" d="M 72 545.4 
L 518.4 545.4 
" style="fill:none;stroke:#000000;stroke-dasharray:3.2,0.8,0.5,0.8;stroke-dashoffset:0;stroke-width:0.5;"/>
   </g>
   <g id="line2d_60">
    <path clip-path="url(#p9090b295ac)" d="M 92.290909 547.252586 
L 101.458043 542.577112 
L 110.199973 542.143757 
L 119.425196 542.182434 
L 128.7129 542.246157 
L 138.000491 542.334515 
L 147.288081 542.44014 
L 156.575672 542.546653 
L 165.863263 542.651938 
L 175.150854 542.757734 
L 184.438444 542.863665 
L 193.726037 542.969506 
L 203.013626 543.075284 
L 212.301217 543.182962 
L 221.588807 543.292808 
L 230.876398 543.404635 
L 240.163989 543.518604 
L 249.45158 543.634732 
L 258.73917 543.75328 
L 268.026761 543.87439 
L 277.314352 543.998413 
L 286.601943 544.125609 
L 295.889533 544.256398 
L 305.177124 544.391129 
L 314.464715 544.530335 
L 323.752305 544.674502 
L 333.039896 544.748026 
L 333.039896 544.900601 
L 342.327487 544.980437 
L 351.615078 545.143789 
L 360.902668 545.31522 
L 370.190259 545.495786 
L 379.47785 545.685875 
L 388.765441 545.886263 
L 398.053031 546.098181 
L 407.340622 546.323623 
L 416.628213 546.565987 
L 425.915804 546.829044 
L 435.203394 547.117424 
L 444.490985 547.438755 
L 453.778576 547.807814 
L 463.066167 548.252818 
L 481.572676 549.488129 
L 491.14959 550.742501 
L 498.109091 553.468465 
" style="fill:none;stroke:#ff7f0e;stroke-linecap:square;stroke-width:5;"/>
   </g>
   <g id="line2d_61">
    <path clip-path="url(#p9090b295ac)" d="M 72 545.4 
L 518.4 545.4 
" style="fill:none;stroke:#000000;stroke-dasharray:3.2,0.8,0.5,0.8;stroke-dashoffset:0;stroke-width:0.5;"/>
   </g>
   <g id="line2d_62">
    <path clip-path="url(#p9090b295ac)" d="M 92.290909 551.722866 
L 100.162058 541.337831 
L 105.753424 540.456237 
L 111.590831 540.120406 
L 117.457393 539.923708 
L 123.323955 539.847896 
L 129.190517 539.840485 
L 135.057079 539.879018 
L 140.923641 539.948109 
L 146.790203 540.030472 
L 152.656765 540.118973 
L 158.523327 540.212411 
L 164.389889 540.309389 
L 170.256451 540.410696 
L 176.123013 540.5159 
L 181.989575 540.623937 
L 187.856137 540.734321 
L 193.722699 540.846363 
L 199.589261 540.959847 
L 205.455823 541.074434 
L 211.322385 541.190088 
L 217.188947 541.30661 
L 223.055509 541.423993 
L 228.922071 541.542156 
L 234.788633 541.661196 
L 240.655195 541.781088 
L 246.521757 541.901939 
L 252.388319 542.023758 
L 258.254881 542.146661 
L 264.121443 542.270693 
L 269.988005 542.395953 
L 275.854567 542.522512 
L 281.721129 542.586333 
L 281.721129 542.714649 
L 287.587691 542.779985 
L 293.454253 542.911123 
L 299.320815 543.044018 
L 305.187377 543.17883 
L 311.053939 543.315704 
L 316.920501 543.454809 
L 322.787063 543.596315 
L 328.653625 543.740429 
L 334.520187 543.887348 
L 340.386749 544.037287 
L 346.253311 544.190488 
L 352.119873 544.347211 
L 357.986435 544.507729 
L 363.852997 544.672359 
L 369.719559 544.841433 
L 375.586121 545.015344 
L 381.452683 545.194511 
L 387.319245 545.379428 
L 393.185807 545.570646 
L 399.052369 545.768938 
L 404.918931 545.975106 
L 410.785493 546.190127 
L 416.652055 546.414597 
L 422.518617 546.649309 
L 428.385179 546.894084 
L 434.251741 547.15007 
L 440.118303 547.420376 
L 445.984865 547.707815 
L 451.851427 548.015481 
L 457.717989 548.347637 
L 463.584551 548.711094 
L 469.451113 549.119492 
L 475.317675 549.59915 
L 486.997467 550.873882 
L 493.533884 552.135628 
L 498.109091 554.536667 
" style="fill:none;stroke:#2ca02c;stroke-linecap:square;stroke-width:5;"/>
   </g>
   <g id="line2d_63">
    <path clip-path="url(#p9090b295ac)" d="M 72 545.4 
L 518.4 545.4 
" style="fill:none;stroke:#000000;stroke-dasharray:3.2,0.8,0.5,0.8;stroke-dashoffset:0;stroke-width:0.5;"/>
   </g>
   <g id="line2d_64">
    <path clip-path="url(#p9090b295ac)" d="M 92.290909 555.974403 
L 96.497278 541.496776 
L 100.668187 538.7654 
L 105.070663 537.672482 
L 109.503228 537.037966 
L 113.935792 536.709377 
L 118.368356 536.568211 
L 122.80092 536.515089 
L 127.233485 536.515644 
L 131.666049 536.564259 
L 136.098613 536.645188 
L 140.531177 536.736852 
L 144.963742 536.833077 
L 149.396306 536.938551 
L 153.82887 537.051802 
L 158.261434 537.170243 
L 162.693999 537.29276 
L 167.126563 537.418056 
L 171.559127 537.545484 
L 175.991692 537.674257 
L 180.424256 537.80406 
L 184.85682 537.934436 
L 189.289384 538.06527 
L 193.721947 538.196301 
L 198.154513 538.327502 
L 202.587077 538.45873 
L 207.019641 538.589985 
L 211.452206 538.721159 
L 215.88477 538.852252 
L 220.317334 538.983256 
L 224.749898 539.114233 
L 229.182463 539.245112 
L 233.615027 539.375936 
L 238.047591 539.506752 
L 242.480155 539.637594 
L 246.91272 539.768482 
L 251.345284 539.899432 
L 255.777848 540.030391 
L 260.210412 540.227 
L 260.210412 540.096104 
L 264.642977 540.293134 
L 269.075541 540.425123 
L 273.508105 540.557444 
L 277.940669 540.690258 
L 282.373234 540.823736 
L 286.805798 540.957858 
L 291.238362 541.092563 
L 295.670926 541.228003 
L 300.103491 541.364338 
L 304.536055 541.501579 
L 308.968619 541.63968 
L 313.401183 541.778758 
L 317.833748 541.918939 
L 322.266312 542.060239 
L 326.698876 542.202632 
L 331.13144 542.346209 
L 335.564005 542.491058 
L 339.996569 542.637242 
L 344.429133 542.784869 
L 348.861697 542.934109 
L 353.294262 543.085105 
L 357.726826 543.237965 
L 362.15939 543.392896 
L 366.591954 543.550183 
L 371.024519 543.709952 
L 375.457083 543.87224 
L 379.889647 544.037233 
L 384.322211 544.205149 
L 388.754776 544.376227 
L 393.18734 544.550732 
L 397.619904 544.728929 
L 402.052468 544.911115 
L 406.485033 545.097609 
L 415.350161 545.48502 
L 419.782725 545.686842 
L 424.21529 545.894849 
L 428.647854 546.109792 
L 433.080418 546.332315 
L 437.512983 546.563308 
L 441.945547 546.802617 
L 446.378111 547.051165 
L 450.810675 547.309902 
L 455.24324 547.580244 
L 459.675804 547.86521 
L 464.108368 548.167758 
L 468.540932 548.491357 
L 472.973497 548.842035 
L 477.406061 549.232457 
L 481.838625 549.686387 
L 486.266354 550.215905 
L 490.650563 550.896786 
L 495.711745 552.12431 
L 498.109091 553.977479 
" style="fill:none;stroke:#d62728;stroke-linecap:square;stroke-width:5;"/>
   </g>
   <g id="line2d_65">
    <path clip-path="url(#p9090b295ac)" d="M 72 545.4 
L 518.4 545.4 
" style="fill:none;stroke:#000000;stroke-dasharray:3.2,0.8,0.5,0.8;stroke-dashoffset:0;stroke-width:0.5;"/>
   </g>
   <g id="line2d_66">
    <path clip-path="url(#p9090b295ac)" d="M 92.290909 559.825034 
L 96.243118 537.035251 
L 96.243118 540.522469 
L 99.782519 535.169886 
L 103.516478 533.790936 
L 107.275496 532.956647 
L 111.034515 532.536188 
L 114.793534 532.359741 
L 118.552552 532.295848 
L 122.311571 532.302748 
L 126.070589 532.369509 
L 129.829608 532.473728 
L 133.588627 532.592195 
L 137.347645 532.7181 
L 141.106664 532.855206 
L 144.865683 533.001274 
L 148.624701 533.153167 
L 152.38372 533.30954 
L 156.142738 533.468601 
L 159.901757 533.629634 
L 163.660776 533.791653 
L 167.419794 533.954209 
L 171.178813 534.116765 
L 174.937831 534.279053 
L 178.69685 534.440982 
L 182.455869 534.602283 
L 186.214887 534.762868 
L 189.973906 534.922736 
L 193.732925 535.081798 
L 197.491939 535.240142 
L 201.250962 535.39759 
L 205.00998 535.554232 
L 208.768999 535.710157 
L 212.528018 535.865186 
L 216.287036 536.019588 
L 220.046055 536.173273 
L 223.805073 536.32624 
L 227.564092 536.478536 
L 231.323111 536.630034 
L 235.082129 536.780941 
L 238.841148 536.931489 
L 242.600166 537.081643 
L 246.359185 537.231268 
L 250.118204 537.306202 
L 250.118204 537.45486 
L 253.877222 537.529623 
L 257.636241 537.678513 
L 261.39526 537.827063 
L 265.154278 537.975425 
L 268.913297 538.123814 
L 272.672315 538.272175 
L 276.431334 538.420421 
L 280.190353 538.568684 
L 283.949371 538.717153 
L 287.70839 538.865793 
L 291.467408 539.014522 
L 295.226427 539.163484 
L 298.985446 539.31284 
L 302.744464 539.462582 
L 306.503483 539.612638 
L 310.262501 539.763123 
L 314.02152 539.914218 
L 317.780539 540.065922 
L 321.539557 540.218164 
L 325.298576 540.371078 
L 329.057595 540.524835 
L 332.816613 540.679451 
L 336.575632 540.834883 
L 340.33465 540.991256 
L 344.093669 541.14875 
L 347.852688 541.307363 
L 351.611706 541.467132 
L 355.370725 541.628085 
L 359.129743 541.790211 
L 362.888762 541.95352 
L 366.647781 542.118083 
L 370.406799 542.284036 
L 374.165818 542.451566 
L 377.924837 542.620834 
L 381.683855 542.792011 
L 385.442874 542.965294 
L 389.201892 543.140916 
L 392.960911 543.319082 
L 396.71993 543.500018 
L 400.478948 543.683938 
L 404.237967 543.871093 
L 407.996985 544.061698 
L 411.756004 544.256021 
L 415.515023 544.454342 
L 419.274041 544.656971 
L 423.03306 544.864252 
L 426.792079 545.076575 
L 430.551097 545.294417 
L 434.310116 545.5183 
L 438.069134 545.748884 
L 441.828153 545.986988 
L 445.587172 546.233655 
L 449.34619 546.489486 
L 453.105209 546.755436 
L 456.864227 547.030393 
L 460.623246 547.46114 
L 464.382265 547.615219 
L 468.141283 547.932894 
L 471.900302 548.271502 
L 475.65932 548.636017 
L 479.418339 549.036117 
L 483.177358 549.492736 
L 486.935921 550.027209 
L 490.671702 550.679943 
L 494.190599 551.580957 
L 498.109091 553.393495 
" style="fill:none;stroke:#9467bd;stroke-linecap:square;stroke-width:5;"/>
   </g>
   <g id="line2d_67">
    <path clip-path="url(#p9090b295ac)" d="M 72 545.4 
L 518.4 545.4 
" style="fill:none;stroke:#000000;stroke-dasharray:3.2,0.8,0.5,0.8;stroke-dashoffset:0;stroke-width:0.5;"/>
   </g>
   <g id="patch_13">
    <path d="M 72 617.089655 
L 72 473.710345 
" style="fill:none;stroke:#000000;stroke-linecap:square;stroke-linejoin:miter;stroke-width:0.8;"/>
   </g>
   <g id="patch_14">
    <path d="M 518.4 617.089655 
L 518.4 473.710345 
" style="fill:none;stroke:#000000;stroke-linecap:square;stroke-linejoin:miter;stroke-width:0.8;"/>
   </g>
   <g id="patch_15">
    <path d="M 72 617.089655 
L 518.4 617.089655 
" style="fill:none;stroke:#000000;stroke-linecap:square;stroke-linejoin:miter;stroke-width:0.8;"/>
   </g>
   <g id="patch_16">
    <path d="M 72 473.710345 
L 518.4 473.710345 
" style="fill:none;stroke:#000000;stroke-linecap:square;stroke-linejoin:miter;stroke-width:0.8;"/>
   </g>
  </g>
  <g id="axes_4">
   <g id="patch_17">
    <path d="M 72 789.144828 
L 518.4 789.144828 
L 518.4 645.765517 
L 72 645.765517 
z
" style="fill:#ffffff;"/>
   </g>
   <g id="matplotlib.axis_7">
    <g id="xtick_19">
     <g id="line2d_68">
      <g>
       <use style="fill:#ffffff;stroke:#000000;stroke-width:0.8;" x="92.290909" xlink:href="#m30ccf05253" y="789.144828"/>
      </g>
     </g>
    </g>
    <g id="xtick_20">
     <g id="line2d_69">
      <g>
       <use style="fill:#ffffff;stroke:#000000;stroke-width:0.8;" x="173.454545" xlink:href="#m30ccf05253" y="789.144828"/>
      </g>
     </g>
    </g>
    <g id="xtick_21">
     <g id="line2d_70">
      <g>
       <use style="fill:#ffffff;stroke:#000000;stroke-width:0.8;" x="254.618182" xlink:href="#m30ccf05253" y="789.144828"/>
      </g>
     </g>
    </g>
    <g id="xtick_22">
     <g id="line2d_71">
      <g>
       <use style="fill:#ffffff;stroke:#000000;stroke-width:0.8;" x="335.781818" xlink:href="#m30ccf05253" y="789.144828"/>
      </g>
     </g>
    </g>
    <g id="xtick_23">
     <g id="line2d_72">
      <g>
       <use style="fill:#ffffff;stroke:#000000;stroke-width:0.8;" x="416.945455" xlink:href="#m30ccf05253" y="789.144828"/>
      </g>
     </g>
    </g>
    <g id="xtick_24">
     <g id="line2d_73">
      <g>
       <use style="fill:#ffffff;stroke:#000000;stroke-width:0.8;" x="498.109091" xlink:href="#m30ccf05253" y="789.144828"/>
      </g>
     </g>
    </g>
   </g>
   <g id="matplotlib.axis_8">
    <g id="ytick_10">
     <g id="line2d_74">
      <g>
       <use style="fill:#ffffff;stroke:#000000;stroke-width:0.8;" x="72" xlink:href="#m2507568236" y="762.261207"/>
      </g>
     </g>
     <g id="text_18">
      <!-- −5 -->
      <g transform="translate(43.67 768.407926)scale(0.18 -0.18)">
       <use xlink:href="#STIXGeneral-Regular-8722"/>
       <use x="68.499985" xlink:href="#STIXGeneral-Regular-53"/>
      </g>
     </g>
    </g>
    <g id="ytick_11">
     <g id="line2d_75">
      <g>
       <use style="fill:#ffffff;stroke:#000000;stroke-width:0.8;" x="72" xlink:href="#m2507568236" y="717.455172"/>
      </g>
     </g>
     <g id="text_19">
      <!-- 0 -->
      <g transform="translate(56 723.601891)scale(0.18 -0.18)">
       <use xlink:href="#STIXGeneral-Regular-48"/>
      </g>
     </g>
    </g>
    <g id="ytick_12">
     <g id="line2d_76">
      <g>
       <use style="fill:#ffffff;stroke:#000000;stroke-width:0.8;" x="72" xlink:href="#m2507568236" y="672.649138"/>
      </g>
     </g>
     <g id="text_20">
      <!-- 5 -->
      <g transform="translate(56 678.795857)scale(0.18 -0.18)">
       <use xlink:href="#STIXGeneral-Regular-53"/>
      </g>
     </g>
    </g>
    <g id="text_21">
     <!-- Cp -->
     <g transform="translate(35.763438 727.958454)rotate(-90)scale(0.18 -0.18)">
      <use xlink:href="#STIXGeneral-Regular-67"/>
      <use x="66.699997" xlink:href="#STIXGeneral-Regular-112"/>
     </g>
    </g>
   </g>
   <g id="line2d_77">
    <path clip-path="url(#p404037420d)" d="M 92.290909 716.26896 
L 115.134075 716.024354 
L 137.783416 716.27827 
L 160.585108 716.451204 
L 183.396205 716.585253 
L 206.207293 716.707978 
L 229.018385 716.823026 
L 251.829477 716.934103 
L 274.64057 717.044952 
L 297.451662 717.158643 
L 320.262755 717.277938 
L 343.073847 717.405844 
L 365.884939 717.546546 
L 388.696032 717.708066 
L 411.507401 717.907054 
L 434.307986 718.157096 
L 456.999908 718.472287 
L 479.713673 719.156198 
L 498.109091 721.204846 
" style="fill:none;stroke:#1f77b4;stroke-linecap:square;stroke-width:5;"/>
   </g>
   <g id="line2d_78">
    <path clip-path="url(#p404037420d)" d="M 72 717.455172 
L 518.4 717.455172 
" style="fill:none;stroke:#000000;stroke-dasharray:3.2,0.8,0.5,0.8;stroke-dashoffset:0;stroke-width:0.5;"/>
   </g>
   <g id="line2d_79">
    <path clip-path="url(#p404037420d)" d="M 92.290909 721.709344 
L 101.458043 716.4232 
L 110.199973 715.710121 
L 119.425196 715.531327 
L 128.7129 715.468114 
L 138.000491 715.47005 
L 147.288081 715.500948 
L 156.575672 715.547036 
L 165.863263 715.602443 
L 175.150854 715.660852 
L 184.438433 715.721071 
L 193.726043 715.783199 
L 203.013626 715.846609 
L 212.301217 715.913101 
L 221.588807 715.982936 
L 230.876398 716.055889 
L 240.163989 716.131996 
L 249.45158 716.21107 
L 258.73917 716.293307 
L 268.026761 716.378779 
L 277.314352 716.467809 
L 286.601943 716.560633 
L 295.889533 716.657679 
L 305.177124 716.759322 
L 314.464715 716.866129 
L 323.752305 716.978633 
L 333.039896 717.036538 
L 333.039896 717.158637 
L 342.327487 717.22375 
L 351.615078 717.358144 
L 360.902668 717.501709 
L 370.190259 717.655618 
L 379.47785 717.820566 
L 388.765441 717.997594 
L 398.053031 718.187983 
L 407.340622 718.393877 
L 416.628213 718.618937 
L 425.915804 718.867432 
L 435.203394 719.1447 
L 444.490985 719.459364 
L 453.778576 719.827858 
L 463.066167 720.281367 
L 481.572676 721.572587 
L 491.14959 722.933544 
L 498.109091 725.9627 
" style="fill:none;stroke:#ff7f0e;stroke-linecap:square;stroke-width:5;"/>
   </g>
   <g id="line2d_80">
    <path clip-path="url(#p404037420d)" d="M 72 717.455172 
L 518.4 717.455172 
" style="fill:none;stroke:#000000;stroke-dasharray:3.2,0.8,0.5,0.8;stroke-dashoffset:0;stroke-width:0.5;"/>
   </g>
   <g id="line2d_81">
    <path clip-path="url(#p404037420d)" d="M 92.290909 727.075386 
L 100.162058 716.38774 
L 105.753424 715.215498 
L 111.590831 714.624014 
L 117.457393 714.257966 
L 123.323955 714.068222 
L 129.190517 713.969863 
L 135.057079 713.924009 
L 140.923641 713.909635 
L 146.790203 713.9146 
L 152.656765 713.936895 
L 158.523327 713.971458 
L 164.389889 714.010001 
L 170.256451 714.053041 
L 176.123013 714.101046 
L 181.989575 714.152977 
L 187.856145 714.208231 
L 193.722701 714.26596 
L 199.589261 714.325802 
L 205.455823 714.387294 
L 211.322385 714.450283 
L 217.188947 714.514472 
L 223.055509 714.579826 
L 228.922071 714.646228 
L 234.788633 714.713724 
L 240.655195 714.782322 
L 246.521757 714.852139 
L 252.388319 714.92321 
L 258.254881 714.995617 
L 264.121443 715.069412 
L 269.988005 715.144722 
L 275.854567 715.221645 
L 281.721129 715.260716 
L 281.721129 715.339888 
L 287.587691 715.380832 
L 293.454253 715.463392 
L 299.320815 715.54812 
L 305.187377 715.635214 
L 311.053939 715.724862 
L 316.920501 715.817261 
L 322.787063 715.912653 
L 328.653625 716.011253 
L 334.520187 716.113339 
L 340.386749 716.219171 
L 346.253311 716.329053 
L 352.119873 716.443318 
L 357.986435 716.562299 
L 363.852997 716.686399 
L 369.719559 716.816035 
L 375.586121 716.951694 
L 381.452683 717.093907 
L 387.319245 717.243312 
L 393.185807 717.400618 
L 399.052369 717.566704 
L 404.918931 717.742513 
L 410.785493 717.929226 
L 416.652055 718.127761 
L 422.518617 718.339227 
L 428.385179 718.56388 
L 434.251741 718.803332 
L 440.118303 719.060904 
L 445.984865 719.339822 
L 451.851427 719.643938 
L 457.717989 719.978684 
L 463.584551 720.352519 
L 469.451113 720.781716 
L 475.317675 721.297317 
L 486.997467 722.710553 
L 493.533884 724.173703 
L 498.109091 727.067769 
" style="fill:none;stroke:#2ca02c;stroke-linecap:square;stroke-width:5;"/>
   </g>
   <g id="line2d_82">
    <path clip-path="url(#p404037420d)" d="M 72 717.455172 
L 518.4 717.455172 
" style="fill:none;stroke:#000000;stroke-dasharray:3.2,0.8,0.5,0.8;stroke-dashoffset:0;stroke-width:0.5;"/>
   </g>
   <g id="line2d_83">
    <path clip-path="url(#p404037420d)" d="M 92.290909 730.61354 
L 96.497278 717.078672 
L 100.668187 714.289393 
L 105.070663 713.067694 
L 109.503228 712.35466 
L 113.935792 711.943331 
L 118.368356 711.722088 
L 122.80092 711.599176 
L 127.233485 711.535435 
L 131.666049 711.511777 
L 136.098613 711.514063 
L 140.531177 711.536107 
L 144.963742 711.570948 
L 149.396306 711.614786 
L 153.82887 711.665184 
L 158.261434 711.720699 
L 162.693999 711.78056 
L 167.126563 711.843423 
L 171.559127 711.908571 
L 175.991692 711.975161 
L 180.424256 712.042836 
L 184.85682 712.111121 
L 189.28939 712.179871 
L 193.721945 712.24881 
L 198.154502 712.317901 
L 202.587077 712.387001 
L 207.019641 712.456118 
L 211.452206 712.525129 
L 215.88477 712.594058 
L 220.317334 712.662889 
L 224.749898 712.731702 
L 229.182463 712.800462 
L 233.615027 712.869239 
L 238.047591 712.93807 
L 242.480155 713.007009 
L 246.91272 713.076082 
L 251.345284 713.145361 
L 255.777848 713.214855 
L 260.210412 713.319674 
L 260.210412 713.249866 
L 264.642977 713.355322 
L 269.075541 713.426518 
L 273.508105 713.498334 
L 277.940669 713.570955 
L 282.373234 713.644536 
L 286.805798 713.71912 
L 291.238362 713.79469 
L 295.670926 713.871424 
L 300.103491 713.949503 
L 304.536055 714.028962 
L 308.968619 714.109819 
L 313.401183 714.192227 
L 317.833748 714.27639 
L 322.266312 714.362373 
L 326.698876 714.450229 
L 331.13144 714.540083 
L 335.564005 714.632052 
L 339.996569 714.726279 
L 344.429133 714.822908 
L 348.861697 714.922189 
L 353.294262 715.024329 
L 357.726826 715.129533 
L 362.15939 715.238089 
L 366.591954 715.350328 
L 371.024519 715.466474 
L 375.457083 715.586671 
L 379.889647 715.711205 
L 384.322211 715.840399 
L 388.754776 715.97462 
L 393.18734 716.114253 
L 397.619904 716.259694 
L 402.052468 716.411416 
L 406.485033 716.569898 
L 415.350161 716.909514 
L 419.782725 717.092022 
L 424.21529 717.284143 
L 428.647854 717.486955 
L 433.080418 717.701486 
L 437.512983 717.929022 
L 441.945547 718.169996 
L 446.378111 718.426003 
L 450.810675 718.698782 
L 455.24324 718.990559 
L 459.675804 719.305402 
L 464.108368 719.647702 
L 468.540932 720.02289 
L 472.973497 720.439971 
L 477.406061 720.916448 
L 481.838625 721.484481 
L 486.266354 722.165685 
L 490.650563 723.054305 
L 495.711745 724.682198 
L 498.109091 727.200575 
" style="fill:none;stroke:#d62728;stroke-linecap:square;stroke-width:5;"/>
   </g>
   <g id="line2d_84">
    <path clip-path="url(#p404037420d)" d="M 72 717.455172 
L 518.4 717.455172 
" style="fill:none;stroke:#000000;stroke-dasharray:3.2,0.8,0.5,0.8;stroke-dashoffset:0;stroke-width:0.5;"/>
   </g>
   <g id="line2d_85">
    <path clip-path="url(#p404037420d)" d="M 92.290909 732.849002 
L 96.243118 712.928652 
L 96.243118 716.054679 
L 99.782519 711.212079 
L 103.516478 709.899576 
L 107.275496 709.100729 
L 111.034515 708.666666 
L 114.793534 708.459554 
L 118.552552 708.364118 
L 122.311571 708.325316 
L 126.070589 708.327466 
L 129.829608 708.365462 
L 133.588627 708.42586 
L 137.347645 708.493786 
L 141.106664 708.569096 
L 144.865683 708.651369 
L 148.624701 708.738589 
L 152.38372 708.8295 
L 156.142738 708.922553 
L 159.901757 709.016959 
L 163.660776 709.111805 
L 167.419794 709.206731 
L 171.178813 709.301218 
L 174.937831 709.39514 
L 178.69685 709.488229 
L 182.455869 709.580458 
L 186.214887 709.671674 
L 189.973906 709.761914 
L 193.732917 709.851122 
L 197.491948 709.939336 
L 201.250962 710.026547 
L 205.00998 710.112817 
L 208.768999 710.198145 
L 212.528018 710.282596 
L 216.287036 710.366213 
L 220.046055 710.449059 
L 223.805073 710.531144 
L 227.564092 710.612529 
L 231.323111 710.69318 
L 235.082129 710.77332 
L 238.841148 710.853173 
L 242.600166 710.93274 
L 246.359185 711.011939 
L 250.118204 711.051673 
L 250.118204 711.130245 
L 253.877222 711.16997 
L 257.636241 711.248972 
L 261.39526 711.32792 
L 265.154278 711.406958 
L 268.913297 711.486292 
L 272.672315 711.565939 
L 276.431334 711.645846 
L 280.190353 711.726192 
L 283.949371 711.807157 
L 287.70839 711.888766 
L 291.467408 711.971021 
L 295.226427 712.054065 
L 298.985446 712.138112 
L 302.744464 712.22319 
L 306.503483 712.309298 
L 310.262501 712.396625 
L 314.02152 712.485359 
L 317.780539 712.575571 
L 321.539557 712.667271 
L 325.298576 712.760647 
L 329.057595 712.855923 
L 332.816613 712.953152 
L 336.575632 713.052406 
L 340.33465 713.153847 
L 344.093669 713.257689 
L 347.852688 713.364023 
L 351.611706 713.472938 
L 355.370725 713.584558 
L 359.129743 713.698966 
L 362.888762 713.816277 
L 366.647781 713.936644 
L 370.406799 714.060327 
L 374.165818 714.187603 
L 377.924837 714.318714 
L 381.683855 714.453966 
L 385.442874 714.593734 
L 389.201892 714.738466 
L 392.960911 714.888477 
L 396.71993 715.044133 
L 400.478948 715.205829 
L 404.237967 715.374022 
L 407.996985 715.549151 
L 411.756004 715.731735 
L 415.515023 715.922313 
L 419.274041 716.121512 
L 423.03306 716.330021 
L 426.792079 716.54863 
L 430.551097 716.778244 
L 434.310116 717.019887 
L 438.069134 717.274799 
L 441.828153 717.544431 
L 445.587172 717.830552 
L 449.34619 718.134703 
L 453.105209 718.458872 
L 456.864227 718.80266 
L 460.623246 719.357825 
L 464.382265 719.563843 
L 468.141283 719.994922 
L 471.900302 720.46802 
L 475.65932 720.992994 
L 479.418339 721.587068 
L 483.177358 722.284761 
L 486.935921 723.127885 
L 490.671702 724.191043 
L 494.190599 725.664409 
L 498.109091 728.575582 
" style="fill:none;stroke:#9467bd;stroke-linecap:square;stroke-width:5;"/>
   </g>
   <g id="line2d_86">
    <path clip-path="url(#p404037420d)" d="M 72 717.455172 
L 518.4 717.455172 
" style="fill:none;stroke:#000000;stroke-dasharray:3.2,0.8,0.5,0.8;stroke-dashoffset:0;stroke-width:0.5;"/>
   </g>
   <g id="patch_18">
    <path d="M 72 789.144828 
L 72 645.765517 
" style="fill:none;stroke:#000000;stroke-linecap:square;stroke-linejoin:miter;stroke-width:0.8;"/>
   </g>
   <g id="patch_19">
    <path d="M 518.4 789.144828 
L 518.4 645.765517 
" style="fill:none;stroke:#000000;stroke-linecap:square;stroke-linejoin:miter;stroke-width:0.8;"/>
   </g>
   <g id="patch_20">
    <path d="M 72 789.144828 
L 518.4 789.144828 
" style="fill:none;stroke:#000000;stroke-linecap:square;stroke-linejoin:miter;stroke-width:0.8;"/>
   </g>
   <g id="patch_21">
    <path d="M 72 645.765517 
L 518.4 645.765517 
" style="fill:none;stroke:#000000;stroke-linecap:square;stroke-linejoin:miter;stroke-width:0.8;"/>
   </g>
  </g>
  <g id="axes_5">
   <g id="patch_22">
    <path d="M 72 961.2 
L 518.4 961.2 
L 518.4 817.82069 
L 72 817.82069 
z
" style="fill:#ffffff;"/>
   </g>
   <g id="matplotlib.axis_9">
    <g id="xtick_25">
     <g id="line2d_87">
      <g>
       <use style="fill:#ffffff;stroke:#000000;stroke-width:0.8;" x="92.290909" xlink:href="#m30ccf05253" y="961.2"/>
      </g>
     </g>
     <g id="text_22">
      <!-- 0.0 -->
      <g transform="translate(81.040909 980.493438)scale(0.18 -0.18)">
       <use xlink:href="#STIXGeneral-Regular-48"/>
       <use x="49.999985" xlink:href="#STIXGeneral-Regular-46"/>
       <use x="74.999969" xlink:href="#STIXGeneral-Regular-48"/>
      </g>
     </g>
    </g>
    <g id="xtick_26">
     <g id="line2d_88">
      <g>
       <use style="fill:#ffffff;stroke:#000000;stroke-width:0.8;" x="173.454545" xlink:href="#m30ccf05253" y="961.2"/>
      </g>
     </g>
     <g id="text_23">
      <!-- 0.2 -->
      <g transform="translate(162.204545 980.493438)scale(0.18 -0.18)">
       <use xlink:href="#STIXGeneral-Regular-48"/>
       <use x="49.999985" xlink:href="#STIXGeneral-Regular-46"/>
       <use x="74.999969" xlink:href="#STIXGeneral-Regular-50"/>
      </g>
     </g>
    </g>
    <g id="xtick_27">
     <g id="line2d_89">
      <g>
       <use style="fill:#ffffff;stroke:#000000;stroke-width:0.8;" x="254.618182" xlink:href="#m30ccf05253" y="961.2"/>
      </g>
     </g>
     <g id="text_24">
      <!-- 0.4 -->
      <g transform="translate(243.368182 980.493438)scale(0.18 -0.18)">
       <use xlink:href="#STIXGeneral-Regular-48"/>
       <use x="49.999985" xlink:href="#STIXGeneral-Regular-46"/>
       <use x="74.999969" xlink:href="#STIXGeneral-Regular-52"/>
      </g>
     </g>
    </g>
    <g id="xtick_28">
     <g id="line2d_90">
      <g>
       <use style="fill:#ffffff;stroke:#000000;stroke-width:0.8;" x="335.781818" xlink:href="#m30ccf05253" y="961.2"/>
      </g>
     </g>
     <g id="text_25">
      <!-- 0.6 -->
      <g transform="translate(324.531818 980.493438)scale(0.18 -0.18)">
       <use xlink:href="#STIXGeneral-Regular-48"/>
       <use x="49.999985" xlink:href="#STIXGeneral-Regular-46"/>
       <use x="74.999969" xlink:href="#STIXGeneral-Regular-54"/>
      </g>
     </g>
    </g>
    <g id="xtick_29">
     <g id="line2d_91">
      <g>
       <use style="fill:#ffffff;stroke:#000000;stroke-width:0.8;" x="416.945455" xlink:href="#m30ccf05253" y="961.2"/>
      </g>
     </g>
     <g id="text_26">
      <!-- 0.8 -->
      <g transform="translate(405.695455 980.493438)scale(0.18 -0.18)">
       <use xlink:href="#STIXGeneral-Regular-48"/>
       <use x="49.999985" xlink:href="#STIXGeneral-Regular-46"/>
       <use x="74.999969" xlink:href="#STIXGeneral-Regular-56"/>
      </g>
     </g>
    </g>
    <g id="xtick_30">
     <g id="line2d_92">
      <g>
       <use style="fill:#ffffff;stroke:#000000;stroke-width:0.8;" x="498.109091" xlink:href="#m30ccf05253" y="961.2"/>
      </g>
     </g>
     <g id="text_27">
      <!-- 1.0 -->
      <g transform="translate(486.859091 980.493438)scale(0.18 -0.18)">
       <use xlink:href="#STIXGeneral-Regular-49"/>
       <use x="49.999985" xlink:href="#STIXGeneral-Regular-46"/>
       <use x="74.999969" xlink:href="#STIXGeneral-Regular-48"/>
      </g>
     </g>
    </g>
    <g id="text_28">
     <!-- x/c -->
     <g transform="translate(284.201719 1000.693438)scale(0.18 -0.18)">
      <defs>
       <path d="M 47.90625 0 
L 27.796875 0 
L 27.796875 1.5 
Q 30.296875 1.703125 31.046875 2.140625 
Q 31.796875 2.59375 31.796875 3.90625 
Q 31.796875 4.796875 31.203125 5.703125 
L 22.09375 19.703125 
L 14.203125 7.40625 
Q 12.203125 4.296875 12.203125 3.296875 
Q 12.203125 1.5 16.203125 1.5 
L 16.203125 0 
L 1.703125 0 
L 1.703125 1.5 
Q 4.203125 1.703125 5.546875 2.640625 
Q 6.90625 3.59375 9 6.59375 
L 20.40625 23.09375 
L 11 37.5 
Q 8.703125 41 7.09375 42.25 
Q 5.5 43.5 3.296875 43.5 
L 2.40625 43.5 
L 2.40625 45 
L 23.09375 45 
L 23.09375 43.5 
Q 18.796875 43.40625 18.796875 41.296875 
Q 18.796875 39.203125 23.40625 32.40625 
Q 24.703125 30.59375 24.796875 30.40625 
Q 25.296875 31.09375 27.796875 34.796875 
Q 28.296875 35.703125 29 36.703125 
Q 29.703125 37.703125 30.046875 38.296875 
Q 30.40625 38.90625 30.796875 39.5 
Q 31.203125 40.09375 31.34375 40.546875 
Q 31.5 41 31.5 41.296875 
Q 31.5 43.203125 27.5 43.5 
L 27.5 45 
L 43.296875 45 
L 43.296875 43.5 
Q 38.203125 43.296875 35.203125 39.09375 
L 26.90625 27.09375 
L 39.703125 7.5 
Q 43.59375 1.5 47.90625 1.5 
z
" id="STIXGeneral-Regular-120"/>
      </defs>
      <use xlink:href="#STIXGeneral-Regular-120"/>
      <use x="49.999985" xlink:href="#STIXGeneral-Regular-47"/>
      <use x="77.799973" xlink:href="#STIXGeneral-Regular-99"/>
     </g>
    </g>
   </g>
   <g id="matplotlib.axis_10">
    <g id="ytick_13">
     <g id="line2d_93">
      <g>
       <use style="fill:#ffffff;stroke:#000000;stroke-width:0.8;" x="72" xlink:href="#m2507568236" y="934.316379"/>
      </g>
     </g>
     <g id="text_29">
      <!-- −5 -->
      <g transform="translate(43.67 940.463098)scale(0.18 -0.18)">
       <use xlink:href="#STIXGeneral-Regular-8722"/>
       <use x="68.499985" xlink:href="#STIXGeneral-Regular-53"/>
      </g>
     </g>
    </g>
    <g id="ytick_14">
     <g id="line2d_94">
      <g>
       <use style="fill:#ffffff;stroke:#000000;stroke-width:0.8;" x="72" xlink:href="#m2507568236" y="889.510345"/>
      </g>
     </g>
     <g id="text_30">
      <!-- 0 -->
      <g transform="translate(56 895.657064)scale(0.18 -0.18)">
       <use xlink:href="#STIXGeneral-Regular-48"/>
      </g>
     </g>
    </g>
    <g id="ytick_15">
     <g id="line2d_95">
      <g>
       <use style="fill:#ffffff;stroke:#000000;stroke-width:0.8;" x="72" xlink:href="#m2507568236" y="844.70431"/>
      </g>
     </g>
     <g id="text_31">
      <!-- 5 -->
      <g transform="translate(56 850.851029)scale(0.18 -0.18)">
       <use xlink:href="#STIXGeneral-Regular-53"/>
      </g>
     </g>
    </g>
    <g id="text_32">
     <!-- Cp -->
     <g transform="translate(35.763438 900.013626)rotate(-90)scale(0.18 -0.18)">
      <use xlink:href="#STIXGeneral-Regular-67"/>
      <use x="66.699997" xlink:href="#STIXGeneral-Regular-112"/>
     </g>
    </g>
   </g>
   <g id="line2d_96">
    <path clip-path="url(#p68055003c0)" d="M 92.290909 890.547237 
L 115.134075 890.52314 
L 137.783416 890.541816 
L 160.585108 890.549684 
L 183.3962 890.544809 
L 206.207293 890.530157 
L 229.018385 890.505352 
L 251.829477 890.47078 
L 274.64057 890.426888 
L 297.451662 890.373817 
L 320.262755 890.311379 
L 343.073847 890.239839 
L 365.884939 890.156589 
L 388.696032 890.059316 
L 411.507401 889.956475 
L 434.307986 889.846878 
L 456.999908 889.694031 
L 479.713673 889.734288 
L 498.109091 890.666851 
" style="fill:none;stroke:#1f77b4;stroke-linecap:square;stroke-width:5;"/>
   </g>
   <g id="line2d_97">
    <path clip-path="url(#p68055003c0)" d="M 72 889.510345 
L 518.4 889.510345 
" style="fill:none;stroke:#000000;stroke-dasharray:3.2,0.8,0.5,0.8;stroke-dashoffset:0;stroke-width:0.5;"/>
   </g>
   <g id="line2d_98">
    <path clip-path="url(#p68055003c0)" d="M 92.290909 892.530576 
L 101.458043 892.557003 
L 110.199973 892.686268 
L 119.425196 892.794278 
L 128.7129 892.884418 
L 138.000491 892.96144 
L 147.288081 893.025244 
L 156.575672 893.076636 
L 165.863263 893.116989 
L 175.150854 893.147663 
L 184.438444 893.170012 
L 193.726035 893.183579 
L 203.013626 893.186931 
L 212.301217 893.182791 
L 221.588807 893.171948 
L 230.876398 893.154599 
L 240.163989 893.131031 
L 249.45158 893.101244 
L 258.73917 893.065399 
L 268.026761 893.023523 
L 277.314352 892.975787 
L 286.601943 892.922253 
L 295.889533 892.863109 
L 305.177124 892.798328 
L 314.464715 892.728063 
L 323.752305 892.652395 
L 333.039896 892.61362 
L 333.039896 892.529635 
L 342.327487 892.486093 
L 351.615078 892.395683 
L 360.902668 892.299906 
L 370.190259 892.199236 
L 379.47785 892.09421 
L 388.765441 891.986783 
L 398.053031 891.875261 
L 407.340622 891.756686 
L 416.628213 891.631301 
L 425.915804 891.50157 
L 435.203394 891.373281 
L 444.490985 891.248102 
L 453.778576 891.123371 
L 463.066167 891.008954 
L 481.572676 890.841317 
L 491.14959 891.259142 
L 498.109091 893.198141 
" style="fill:none;stroke:#ff7f0e;stroke-linecap:square;stroke-width:5;"/>
   </g>
   <g id="line2d_99">
    <path clip-path="url(#p68055003c0)" d="M 72 889.510345 
L 518.4 889.510345 
" style="fill:none;stroke:#000000;stroke-dasharray:3.2,0.8,0.5,0.8;stroke-dashoffset:0;stroke-width:0.5;"/>
   </g>
   <g id="line2d_100">
    <path clip-path="url(#p68055003c0)" d="M 92.290909 894.110849 
L 100.162058 894.505617 
L 105.753424 894.75292 
L 111.590831 894.957307 
L 117.457393 895.134613 
L 123.323955 895.292124 
L 129.190517 895.432466 
L 135.057079 895.55795 
L 140.923641 895.67061 
L 146.790203 895.771988 
L 152.656765 895.863097 
L 158.523327 895.944545 
L 164.389889 896.015016 
L 170.256451 896.076741 
L 176.123013 896.130992 
L 181.989575 896.178074 
L 187.856137 896.218373 
L 193.722699 896.251735 
L 199.589261 896.27835 
L 205.455823 896.298522 
L 211.322385 896.312385 
L 217.188947 896.320038 
L 223.055509 896.32157 
L 228.922071 896.316856 
L 234.788633 896.306022 
L 240.655195 896.289184 
L 246.521757 896.266485 
L 252.388319 896.237953 
L 258.254881 896.203703 
L 264.121443 896.163781 
L 269.988005 896.118285 
L 275.854567 896.067287 
L 281.721129 896.040905 
L 281.721129 895.98082 
L 287.587691 895.949017 
L 293.454253 895.881736 
L 299.320815 895.808944 
L 305.187377 895.730677 
L 311.053939 895.646917 
L 316.920501 895.557762 
L 322.787063 895.463239 
L 328.653625 895.3635 
L 334.520187 895.258636 
L 340.386749 895.148862 
L 346.253311 895.034006 
L 352.119873 894.913979 
L 357.986435 894.788693 
L 363.852997 894.658917 
L 369.719559 894.525099 
L 375.586121 894.38715 
L 381.452683 894.245223 
L 387.319245 894.098761 
L 393.185807 893.947352 
L 399.052369 893.791911 
L 404.918931 893.633315 
L 410.785493 893.473887 
L 416.652055 893.312934 
L 422.518617 893.147591 
L 428.385179 892.977821 
L 434.251741 892.804099 
L 440.118303 892.630306 
L 445.984865 892.462937 
L 451.851427 892.300049 
L 457.717989 892.139151 
L 463.584551 891.984095 
L 469.451113 891.841737 
L 475.317675 891.729104 
L 486.997467 891.697023 
L 493.533884 892.448599 
L 498.109091 895.00024 
" style="fill:none;stroke:#2ca02c;stroke-linecap:square;stroke-width:5;"/>
   </g>
   <g id="line2d_101">
    <path clip-path="url(#p68055003c0)" d="M 72 889.510345 
L 518.4 889.510345 
" style="fill:none;stroke:#000000;stroke-dasharray:3.2,0.8,0.5,0.8;stroke-dashoffset:0;stroke-width:0.5;"/>
   </g>
   <g id="line2d_102">
    <path clip-path="url(#p68055003c0)" d="M 92.290909 894.897303 
L 96.497278 895.885338 
L 100.668187 896.210066 
L 105.070663 896.473749 
L 109.503228 896.721356 
L 113.935792 896.948532 
L 118.368356 897.162418 
L 122.80092 897.363176 
L 127.233485 897.546235 
L 131.666049 897.71424 
L 136.098613 897.873131 
L 140.531177 898.023966 
L 144.963742 898.163519 
L 149.396306 898.29351 
L 153.82887 898.415186 
L 158.261434 898.528903 
L 162.693999 898.634915 
L 167.126563 898.733488 
L 171.559127 898.824713 
L 175.991692 898.908859 
L 180.424256 898.986104 
L 184.85682 899.056719 
L 189.289384 899.120433 
L 193.721949 899.177247 
L 198.154513 899.227609 
L 202.587077 899.271787 
L 207.019641 899.309693 
L 211.452206 899.341506 
L 215.88477 899.367224 
L 220.317334 899.387029 
L 224.749898 899.400918 
L 229.182463 899.408984 
L 233.615027 899.411313 
L 238.047591 899.407908 
L 242.480155 899.398768 
L 246.91272 899.383534 
L 251.345284 899.362116 
L 255.777848 899.334785 
L 260.210412 899.283079 
L 260.210412 899.320088 
L 264.642977 899.262826 
L 269.075541 899.218468 
L 273.508105 899.168465 
L 277.940669 899.112905 
L 282.373234 899.052059 
L 286.805798 898.985835 
L 291.238362 898.914056 
L 295.670926 898.8369 
L 300.103491 898.754457 
L 304.536055 898.666727 
L 308.968619 898.57353 
L 313.401183 898.475136 
L 317.833748 898.371383 
L 322.266312 898.262406 
L 326.698876 898.148106 
L 331.13144 898.028671 
L 335.564005 897.904182 
L 339.996569 897.774683 
L 344.429133 897.640131 
L 348.861697 897.500542 
L 353.294262 897.35581 
L 357.726826 897.205871 
L 362.15939 897.050761 
L 366.591954 896.890858 
L 371.024519 896.726142 
L 375.457083 896.556596 
L 379.889647 896.382318 
L 384.322211 896.203587 
L 388.754776 896.020393 
L 393.18734 895.832638 
L 397.619904 895.639999 
L 402.052468 895.442494 
L 406.485033 895.241592 
L 415.350161 894.831949 
L 419.782725 894.62179 
L 424.21529 894.407698 
L 428.647854 894.191106 
L 433.080418 893.973044 
L 437.512983 893.754847 
L 441.945547 893.534348 
L 446.378111 893.311563 
L 450.810675 893.09179 
L 455.24324 892.87474 
L 459.675804 892.662019 
L 464.108368 892.456628 
L 468.540932 892.258756 
L 472.973497 892.073151 
L 477.406061 891.909072 
L 481.838625 891.797433 
L 486.266354 891.785882 
L 490.650563 891.931036 
L 495.711745 893.040765 
L 498.109091 895.66086 
" style="fill:none;stroke:#d62728;stroke-linecap:square;stroke-width:5;"/>
   </g>
   <g id="line2d_103">
    <path clip-path="url(#p68055003c0)" d="M 72 889.510345 
L 518.4 889.510345 
" style="fill:none;stroke:#000000;stroke-dasharray:3.2,0.8,0.5,0.8;stroke-dashoffset:0;stroke-width:0.5;"/>
   </g>
   <g id="line2d_104">
    <path clip-path="url(#p68055003c0)" d="M 92.290909 895.792447 
L 96.243118 897.644298 
L 96.243118 897.450897 
L 99.782519 897.77894 
L 103.516478 897.941102 
L 107.275496 898.142433 
L 111.034515 898.351615 
L 114.793534 898.562956 
L 118.552552 898.774261 
L 122.311571 898.982072 
L 126.070589 899.183788 
L 129.829608 899.381114 
L 133.588627 899.57611 
L 137.347645 899.761069 
L 141.106664 899.933573 
L 144.865683 900.099534 
L 148.624701 900.260567 
L 152.38372 900.411743 
L 156.142738 900.552165 
L 159.901757 900.686135 
L 163.660776 900.814818 
L 167.419794 900.937138 
L 171.178813 901.052827 
L 174.937831 901.161885 
L 178.69685 901.264491 
L 182.455869 901.360914 
L 186.214887 901.452408 
L 189.973906 901.536016 
L 193.732924 901.611469 
L 197.491943 901.682263 
L 201.250962 901.747948 
L 205.00998 901.808167 
L 208.768999 901.861845 
L 212.528018 901.908891 
L 216.287036 901.949844 
L 220.046055 901.984703 
L 223.805073 902.013379 
L 227.564092 902.035872 
L 231.323111 902.052271 
L 235.082129 902.062755 
L 238.841148 902.067594 
L 242.600166 902.066788 
L 246.359185 902.060157 
L 250.118204 902.056034 
L 250.118204 902.040084 
L 253.877222 902.030495 
L 257.636241 902.007286 
L 261.39526 901.978162 
L 265.154278 901.943482 
L 268.913297 901.903336 
L 272.672315 901.857633 
L 276.431334 901.806196 
L 280.190353 901.749382 
L 283.949371 901.687281 
L 287.70839 901.619713 
L 291.467408 901.546769 
L 295.226427 901.468359 
L 298.985446 901.384661 
L 302.744464 901.295676 
L 306.503483 901.201225 
L 310.262501 901.101487 
L 314.02152 900.996461 
L 317.780539 900.886059 
L 321.539557 900.770281 
L 325.298576 900.649215 
L 329.057595 900.523041 
L 332.816613 900.391759 
L 336.575632 900.25537 
L 340.33465 900.113782 
L 344.093669 899.967177 
L 347.852688 899.815464 
L 351.611706 899.658374 
L 355.370725 899.496087 
L 359.129743 899.328512 
L 362.888762 899.15565 
L 366.647781 898.977501 
L 370.406799 898.794424 
L 374.165818 898.606418 
L 377.924837 898.413546 
L 381.683855 898.215924 
L 385.442874 898.013697 
L 389.201892 897.806944 
L 392.960911 897.595782 
L 396.71993 897.380211 
L 400.478948 897.160214 
L 404.237967 896.935682 
L 407.996985 896.706552 
L 411.756004 896.472844 
L 415.515023 896.235085 
L 419.274041 895.993599 
L 423.03306 895.748689 
L 426.792079 895.500544 
L 430.551097 895.24955 
L 434.310116 894.995213 
L 438.069134 894.737005 
L 441.828153 894.475418 
L 445.587172 894.212774 
L 449.34619 893.952765 
L 453.105209 893.697514 
L 456.864227 893.44332 
L 460.623246 893.061967 
L 464.382265 892.937765 
L 468.141283 892.691062 
L 471.900302 892.450373 
L 475.65932 892.223054 
L 479.418339 892.017556 
L 483.177358 891.860144 
L 486.935921 891.793974 
L 490.671702 891.856416 
L 494.190599 892.304046 
L 498.109091 894.60885 
" style="fill:none;stroke:#9467bd;stroke-linecap:square;stroke-width:5;"/>
   </g>
   <g id="line2d_105">
    <path clip-path="url(#p68055003c0)" d="M 72 889.510345 
L 518.4 889.510345 
" style="fill:none;stroke:#000000;stroke-dasharray:3.2,0.8,0.5,0.8;stroke-dashoffset:0;stroke-width:0.5;"/>
   </g>
   <g id="patch_23">
    <path d="M 72 961.2 
L 72 817.82069 
" style="fill:none;stroke:#000000;stroke-linecap:square;stroke-linejoin:miter;stroke-width:0.8;"/>
   </g>
   <g id="patch_24">
    <path d="M 518.4 961.2 
L 518.4 817.82069 
" style="fill:none;stroke:#000000;stroke-linecap:square;stroke-linejoin:miter;stroke-width:0.8;"/>
   </g>
   <g id="patch_25">
    <path d="M 72 961.2 
L 518.4 961.2 
" style="fill:none;stroke:#000000;stroke-linecap:square;stroke-linejoin:miter;stroke-width:0.8;"/>
   </g>
   <g id="patch_26">
    <path d="M 72 817.82069 
L 518.4 817.82069 
" style="fill:none;stroke:#000000;stroke-linecap:square;stroke-linejoin:miter;stroke-width:0.8;"/>
   </g>
  </g>
 </g>
 <defs>
  <clipPath id="p16cefa8377">
   <rect height="143.37931" width="446.4" x="72" y="129.6"/>
  </clipPath>
  <clipPath id="p0c493834ca">
   <rect height="143.37931" width="446.4" x="72" y="301.655172"/>
  </clipPath>
  <clipPath id="p9090b295ac">
   <rect height="143.37931" width="446.4" x="72" y="473.710345"/>
  </clipPath>
  <clipPath id="p404037420d">
   <rect height="143.37931" width="446.4" x="72" y="645.765517"/>
  </clipPath>
  <clipPath id="p68055003c0">
   <rect height="143.37931" width="446.4" x="72" y="817.82069"/>
  </clipPath>
 </defs>
</svg>
