<?xml version="1.0" encoding="utf-8" standalone="no"?>
<!DOCTYPE svg PUBLIC "-//W3C//DTD SVG 1.1//EN"
  "http://www.w3.org/Graphics/SVG/1.1/DTD/svg11.dtd">
<!-- Created with matplotlib (https://matplotlib.org/) -->
<svg height="576pt" version="1.1" viewBox="0 0 864 576" width="864pt" xmlns="http://www.w3.org/2000/svg" xmlns:xlink="http://www.w3.org/1999/xlink">
 <defs>
  <style type="text/css">
*{stroke-linecap:butt;stroke-linejoin:round;}
  </style>
 </defs>
 <g id="figure_1">
  <g id="patch_1">
   <path d="M 0 576 
L 864 576 
L 864 0 
L 0 0 
z
" style="fill:#ffffff;"/>
  </g>
  <g id="axes_1">
   <g id="patch_2">
    <path d="M 108 270.72 
L 777.6 270.72 
L 777.6 69.12 
L 108 69.12 
z
" style="fill:#ffffff;"/>
   </g>
   <g id="matplotlib.axis_1">
    <g id="xtick_1">
     <g id="line2d_1">
      <defs>
       <path d="M 0 0 
L 0 3.5 
" id="m08097c97aa" style="stroke:#000000;stroke-width:0.8;"/>
      </defs>
      <g>
       <use style="fill:#ffffff;stroke:#000000;stroke-width:0.8;" x="108" xlink:href="#m08097c97aa" y="270.72"/>
      </g>
     </g>
    </g>
    <g id="xtick_2">
     <g id="line2d_2">
      <g>
       <use style="fill:#ffffff;stroke:#000000;stroke-width:0.8;" x="191.7" xlink:href="#m08097c97aa" y="270.72"/>
      </g>
     </g>
    </g>
    <g id="xtick_3">
     <g id="line2d_3">
      <g>
       <use style="fill:#ffffff;stroke:#000000;stroke-width:0.8;" x="275.4" xlink:href="#m08097c97aa" y="270.72"/>
      </g>
     </g>
    </g>
    <g id="xtick_4">
     <g id="line2d_4">
      <g>
       <use style="fill:#ffffff;stroke:#000000;stroke-width:0.8;" x="359.1" xlink:href="#m08097c97aa" y="270.72"/>
      </g>
     </g>
    </g>
    <g id="xtick_5">
     <g id="line2d_5">
      <g>
       <use style="fill:#ffffff;stroke:#000000;stroke-width:0.8;" x="442.8" xlink:href="#m08097c97aa" y="270.72"/>
      </g>
     </g>
    </g>
    <g id="xtick_6">
     <g id="line2d_6">
      <g>
       <use style="fill:#ffffff;stroke:#000000;stroke-width:0.8;" x="526.5" xlink:href="#m08097c97aa" y="270.72"/>
      </g>
     </g>
    </g>
    <g id="xtick_7">
     <g id="line2d_7">
      <g>
       <use style="fill:#ffffff;stroke:#000000;stroke-width:0.8;" x="610.2" xlink:href="#m08097c97aa" y="270.72"/>
      </g>
     </g>
    </g>
    <g id="xtick_8">
     <g id="line2d_8">
      <g>
       <use style="fill:#ffffff;stroke:#000000;stroke-width:0.8;" x="693.9" xlink:href="#m08097c97aa" y="270.72"/>
      </g>
     </g>
    </g>
    <g id="xtick_9">
     <g id="line2d_9">
      <g>
       <use style="fill:#ffffff;stroke:#000000;stroke-width:0.8;" x="777.6" xlink:href="#m08097c97aa" y="270.72"/>
      </g>
     </g>
    </g>
   </g>
   <g id="matplotlib.axis_2">
    <g id="ytick_1">
     <g id="line2d_10">
      <defs>
       <path d="M 0 0 
L -3.5 0 
" id="m9482f4fa0d" style="stroke:#000000;stroke-width:0.8;"/>
      </defs>
      <g>
       <use style="fill:#ffffff;stroke:#000000;stroke-width:0.8;" x="108" xlink:href="#m9482f4fa0d" y="261.556364"/>
      </g>
     </g>
     <g id="text_1">
      <!-- 0.00 -->
      <defs>
       <path d="M 47.59375 33 
Q 47.59375 26.296875 46.296875 20.34375 
Q 45 14.40625 42.453125 9.40625 
Q 39.90625 4.40625 35.40625 1.5 
Q 30.90625 -1.40625 25 -1.40625 
Q 18.90625 -1.40625 14.296875 1.6875 
Q 9.703125 4.796875 7.203125 10 
Q 4.703125 15.203125 3.546875 21.09375 
Q 2.40625 27 2.40625 33.59375 
Q 2.40625 42.90625 4.703125 50.34375 
Q 7 57.796875 12.34375 62.6875 
Q 17.703125 67.59375 25.40625 67.59375 
Q 35.203125 67.59375 41.390625 58 
Q 47.59375 48.40625 47.59375 33 
z
M 38 32.5 
Q 38 48.296875 34.640625 56.640625 
Q 31.296875 65 24.796875 65 
Q 18.59375 65 15.296875 56.59375 
Q 12 48.203125 12 32.90625 
Q 12 17.5 15.296875 9.34375 
Q 18.59375 1.203125 25 1.203125 
Q 31.296875 1.203125 34.640625 9.34375 
Q 38 17.5 38 32.5 
z
" id="STIXGeneral-Regular-48"/>
       <path d="M 18.09375 4.296875 
Q 18.09375 2.09375 16.4375 0.5 
Q 14.796875 -1.09375 12.5 -1.09375 
Q 10.203125 -1.09375 8.59375 0.5 
Q 7 2.09375 7 4.390625 
Q 7 6.703125 8.640625 8.34375 
Q 10.296875 10 12.59375 10 
Q 14.796875 10 16.4375 8.296875 
Q 18.09375 6.59375 18.09375 4.296875 
z
" id="STIXGeneral-Regular-46"/>
      </defs>
      <g transform="translate(69.5 267.703082)scale(0.18 -0.18)">
       <use xlink:href="#STIXGeneral-Regular-48"/>
       <use x="49.999985" xlink:href="#STIXGeneral-Regular-46"/>
       <use x="74.999969" xlink:href="#STIXGeneral-Regular-48"/>
       <use x="124.999954" xlink:href="#STIXGeneral-Regular-48"/>
      </g>
     </g>
    </g>
    <g id="ytick_2">
     <g id="line2d_11">
      <g>
       <use style="fill:#ffffff;stroke:#000000;stroke-width:0.8;" x="108" xlink:href="#m9482f4fa0d" y="215.738182"/>
      </g>
     </g>
     <g id="text_2">
      <!-- 0.25 -->
      <defs>
       <path d="M 47.40625 13.703125 
L 42 0 
L 2.90625 0 
L 2.90625 1.203125 
L 20.703125 20.09375 
Q 27.703125 27.40625 30.703125 33.5 
Q 33.703125 39.59375 33.703125 46.09375 
Q 33.703125 52.796875 30 56.5 
Q 26.296875 60.203125 19.796875 60.203125 
Q 14.40625 60.203125 11.25 57.390625 
Q 8.09375 54.59375 5.09375 47.203125 
L 3 47.703125 
Q 4.703125 57 9.84375 62.296875 
Q 15 67.59375 23.796875 67.59375 
Q 32.09375 67.59375 37.1875 62.59375 
Q 42.296875 57.59375 42.296875 50 
Q 42.296875 38.703125 29.5 25.203125 
L 13 7.59375 
L 36.40625 7.59375 
Q 39.703125 7.59375 41.640625 8.890625 
Q 43.59375 10.203125 46 14.296875 
z
" id="STIXGeneral-Regular-50"/>
       <path d="M 43.796875 68.09375 
L 40.203125 59.59375 
Q 39.59375 58.296875 37.5 58.296875 
L 18.09375 58.296875 
L 14.09375 49.796875 
Q 25.09375 47.703125 30 45.25 
Q 34.90625 42.796875 39.09375 37 
Q 42.59375 32.203125 42.59375 24.296875 
Q 42.59375 17.09375 40.25 12.1875 
Q 37.90625 7.296875 32.796875 3.5 
Q 26 -1.40625 15.796875 -1.40625 
Q 10.09375 -1.40625 6.59375 0.296875 
Q 3.09375 2 3.09375 4.796875 
Q 3.09375 8.59375 7.59375 8.59375 
Q 11.203125 8.59375 15 5.5 
Q 18.90625 2.296875 22.09375 2.296875 
Q 27.296875 2.296875 31.4375 7.5 
Q 35.59375 12.703125 35.59375 19.203125 
Q 35.59375 28.796875 28.90625 34.203125 
Q 20.203125 41.203125 7.59375 41.203125 
Q 6.40625 41.203125 6.40625 42 
L 6.5 42.5 
L 17.40625 66.203125 
L 38.09375 66.203125 
Q 39.796875 66.203125 40.75 66.703125 
Q 41.703125 67.203125 42.90625 68.796875 
z
" id="STIXGeneral-Regular-53"/>
      </defs>
      <g transform="translate(69.5 221.884901)scale(0.18 -0.18)">
       <use xlink:href="#STIXGeneral-Regular-48"/>
       <use x="49.999985" xlink:href="#STIXGeneral-Regular-46"/>
       <use x="74.999969" xlink:href="#STIXGeneral-Regular-50"/>
       <use x="124.999954" xlink:href="#STIXGeneral-Regular-53"/>
      </g>
     </g>
    </g>
    <g id="ytick_3">
     <g id="line2d_12">
      <g>
       <use style="fill:#ffffff;stroke:#000000;stroke-width:0.8;" x="108" xlink:href="#m9482f4fa0d" y="169.92"/>
      </g>
     </g>
     <g id="text_3">
      <!-- 0.50 -->
      <g transform="translate(69.5 176.066719)scale(0.18 -0.18)">
       <use xlink:href="#STIXGeneral-Regular-48"/>
       <use x="49.999985" xlink:href="#STIXGeneral-Regular-46"/>
       <use x="74.999969" xlink:href="#STIXGeneral-Regular-53"/>
       <use x="124.999954" xlink:href="#STIXGeneral-Regular-48"/>
      </g>
     </g>
    </g>
    <g id="ytick_4">
     <g id="line2d_13">
      <g>
       <use style="fill:#ffffff;stroke:#000000;stroke-width:0.8;" x="108" xlink:href="#m9482f4fa0d" y="124.101818"/>
      </g>
     </g>
     <g id="text_4">
      <!-- 0.75 -->
      <defs>
       <path d="M 44.90625 64.59375 
L 23.703125 -0.796875 
L 17.203125 -0.796875 
L 37 58.796875 
L 15.5 58.796875 
Q 11.203125 58.796875 9.09375 57.296875 
Q 7 55.796875 3.796875 50.59375 
L 2 51.5 
L 8 66.203125 
L 44.90625 66.203125 
z
" id="STIXGeneral-Regular-55"/>
      </defs>
      <g transform="translate(69.5 130.248537)scale(0.18 -0.18)">
       <use xlink:href="#STIXGeneral-Regular-48"/>
       <use x="49.999985" xlink:href="#STIXGeneral-Regular-46"/>
       <use x="74.999969" xlink:href="#STIXGeneral-Regular-55"/>
       <use x="124.999954" xlink:href="#STIXGeneral-Regular-53"/>
      </g>
     </g>
    </g>
    <g id="ytick_5">
     <g id="line2d_14">
      <g>
       <use style="fill:#ffffff;stroke:#000000;stroke-width:0.8;" x="108" xlink:href="#m9482f4fa0d" y="78.283636"/>
      </g>
     </g>
     <g id="text_5">
      <!-- 1.00 -->
      <defs>
       <path d="M 39.40625 0 
L 11.796875 0 
L 11.796875 1.5 
Q 17.296875 1.796875 19.296875 3.546875 
Q 21.296875 5.296875 21.296875 9.5 
L 21.296875 54.40625 
Q 21.296875 59.296875 18.296875 59.296875 
Q 16.90625 59.296875 13.796875 58.09375 
L 11.09375 57.09375 
L 11.09375 58.5 
L 29 67.59375 
L 29.90625 67.296875 
L 29.90625 7.59375 
Q 29.90625 4.296875 31.90625 2.890625 
Q 33.90625 1.5 39.40625 1.5 
z
" id="STIXGeneral-Regular-49"/>
      </defs>
      <g transform="translate(69.5 84.430355)scale(0.18 -0.18)">
       <use xlink:href="#STIXGeneral-Regular-49"/>
       <use x="49.999985" xlink:href="#STIXGeneral-Regular-46"/>
       <use x="74.999969" xlink:href="#STIXGeneral-Regular-48"/>
       <use x="124.999954" xlink:href="#STIXGeneral-Regular-48"/>
      </g>
     </g>
    </g>
    <g id="text_6">
     <!-- $u/U_T$ -->
     <defs>
      <path d="M 46.09375 11.90625 
L 47.5 11 
Q 42.703125 3.703125 40 1.390625 
Q 37.296875 -0.90625 33.703125 -0.90625 
Q 28.90625 -0.90625 28.90625 3.90625 
Q 28.90625 8.40625 33.40625 23.59375 
Q 24.5 9 19.640625 3.953125 
Q 14.796875 -1.09375 9.5 -1.09375 
Q 4.203125 -1.09375 4.203125 4.203125 
Q 4.203125 6 6.90625 17 
L 10.40625 30.90625 
Q 11.796875 36.703125 11.796875 37.59375 
Q 11.796875 38.796875 10.6875 39.390625 
Q 9.59375 40 5.703125 40 
L 5.703125 41.40625 
Q 12.59375 42.203125 20.703125 44.09375 
L 21.09375 43.796875 
L 12.203125 8.296875 
Q 11.90625 7.40625 11.90625 6.703125 
Q 11.90625 4.203125 13.90625 4.203125 
Q 18.40625 4.203125 28.09375 18.90625 
Q 31.40625 23.90625 33.25 28.046875 
Q 35.09375 32.203125 39.09375 43.203125 
L 46.5 43.203125 
L 38.59375 13.296875 
Q 36.703125 6.09375 36.703125 5.5 
Q 36.703125 3.796875 37.796875 3.796875 
Q 39 3.796875 40.703125 5.390625 
Q 42.40625 7 46.09375 11.90625 
z
" id="STIXGeneral-Italic-117"/>
      <path d="M 28.703125 67.59375 
L 5.90625 -1.40625 
L -0.90625 -1.40625 
L 22 67.59375 
z
" id="STIXGeneral-Regular-47"/>
      <path d="M 76.5 65.296875 
L 76.5 63.703125 
Q 74.40625 63.203125 73.34375 62.75 
Q 72.296875 62.296875 71.296875 61.640625 
Q 70.296875 61 69.546875 59.203125 
Q 68.796875 57.40625 68.09375 55.296875 
Q 67.40625 53.203125 66.09375 48.796875 
L 57.796875 20.296875 
Q 54.40625 8.703125 48.09375 3.40625 
Q 42.09375 -1.796875 32.296875 -1.796875 
Q 22.5 -1.796875 16.34375 2.796875 
Q 10.203125 7.40625 10.203125 14.59375 
Q 10.203125 20.09375 14.59375 36.203125 
L 19.796875 55.09375 
Q 20.703125 58.296875 20.703125 59.59375 
Q 20.703125 61.59375 18.953125 62.59375 
Q 17.203125 63.59375 12.703125 63.703125 
L 12.703125 65.296875 
L 39.90625 65.296875 
L 39.90625 63.703125 
Q 34.796875 63.203125 32.84375 61.5 
Q 30.90625 59.796875 29.5 54.59375 
L 23.203125 32 
Q 19.203125 17.90625 19.203125 14.09375 
Q 19.203125 8.796875 23.140625 5.546875 
Q 27.09375 2.296875 33 2.296875 
Q 41.40625 2.296875 46.5 7.6875 
Q 51.59375 13.09375 55 25.5 
L 61.40625 48.796875 
Q 63.703125 57.296875 63.703125 59.09375 
Q 63.703125 61.296875 62.203125 62.296875 
Q 60.703125 63.296875 56.703125 63.703125 
L 56.703125 65.296875 
z
" id="STIXGeneral-Italic-85"/>
      <path d="M 63.296875 65.296875 
L 58.90625 48.90625 
L 57.203125 49.09375 
Q 57.5 51.59375 57.5 53.703125 
Q 57.5 61.796875 47.40625 61.796875 
L 41.59375 61.796875 
L 27.90625 12.796875 
Q 26.5 7.90625 26.5 6.203125 
Q 26.5 3.90625 27.59375 3.046875 
Q 28.703125 2.203125 31.796875 1.90625 
L 35.296875 1.59375 
L 35.296875 0 
L 6.5 0 
L 6.5 1.59375 
Q 11.703125 2.09375 13.890625 3.59375 
Q 16.09375 5.09375 17.203125 9.09375 
L 31.5 61.796875 
Q 19.59375 61.796875 15.4375 59.640625 
Q 11.296875 57.5 7.703125 49.40625 
L 5.90625 49.796875 
L 10.09375 65.296875 
z
" id="STIXGeneral-Italic-84"/>
     </defs>
     <g transform="translate(61.593438 187.38)rotate(-90)scale(0.18 -0.18)">
      <use transform="translate(0 0.40625)" xlink:href="#STIXGeneral-Italic-117"/>
      <use transform="translate(49.999985 0.40625)" xlink:href="#STIXGeneral-Regular-47"/>
      <use transform="translate(77.799973 0.40625)" xlink:href="#STIXGeneral-Italic-85"/>
      <use transform="translate(149.999954 -12.821875)scale(0.7)" xlink:href="#STIXGeneral-Italic-84"/>
     </g>
    </g>
   </g>
   <g id="line2d_15">
    <path clip-path="url(#p187a017ce1)" d="M 108 261.278723 
L 109.339583 260.946045 
L 110.34427 260.46176 
L 111.014061 259.950711 
L 111.683853 259.218672 
L 112.353644 258.187817 
L 113.023435 256.768583 
L 113.693227 254.869607 
L 114.363018 252.413885 
L 115.367705 247.600957 
L 116.372392 241.483881 
L 117.711975 231.70837 
L 119.721349 214.969633 
L 123.740097 178.995991 
L 130.438011 119.033344 
L 132.447385 102.982817 
L 133.786968 94.08798 
L 134.791655 88.837336 
L 135.796342 84.942368 
L 136.466133 83.05045 
L 137.135924 81.637857 
L 137.805716 80.611918 
L 138.475507 79.883439 
L 139.480194 79.183362 
L 140.484881 78.785121 
L 141.824466 78.512317 
L 143.833838 78.35665 
L 147.517689 78.293208 
L 203.780167 78.285939 
L 408.401429 78.446005 
L 410.075908 78.719708 
L 411.080596 79.067036 
L 412.085281 79.683561 
L 412.755071 80.321957 
L 413.424866 81.229476 
L 414.094656 82.495572 
L 414.764447 84.203468 
L 415.434238 86.450261 
L 416.104029 89.282059 
L 417.108717 94.657349 
L 418.113405 101.255584 
L 419.787884 114.223614 
L 422.467047 137.460357 
L 433.18371 232.458346 
L 434.523292 242.120069 
L 435.52798 248.117912 
L 436.532668 252.800022 
L 437.537352 256.149058 
L 438.207143 257.727761 
L 438.876937 258.891175 
L 439.546728 259.715904 
L 440.216519 260.303796 
L 441.221207 260.854748 
L 442.225892 261.169058 
L 443.900387 261.41166 
L 446.579524 261.525945 
L 454.617034 261.556364 
L 777.791372 261.556364 
L 777.791372 261.556364 
" style="fill:none;stroke:#1f77b4;stroke-linecap:square;stroke-width:4;"/>
   </g>
   <g id="line2d_16">
    <path clip-path="url(#p187a017ce1)" d="M 108 261.417543 
L 109.674478 261.185238 
L 111.014061 260.753532 
L 112.018748 260.151173 
L 112.68854 259.544459 
L 113.358331 258.720379 
L 114.028122 257.63569 
L 115.032809 255.456532 
L 116.037496 252.60632 
L 117.377079 247.923894 
L 119.051557 241.141627 
L 122.065619 227.845571 
L 134.121863 172.941807 
L 150.196856 100.068388 
L 152.206232 91.859991 
L 153.545814 87.18864 
L 154.550502 84.34767 
L 155.555186 82.179132 
L 156.559874 80.662668 
L 157.564562 79.679653 
L 158.56925 79.081908 
L 159.573935 78.733097 
L 160.91352 78.490075 
L 163.257789 78.336889 
L 168.951013 78.28765 
L 190.049443 78.287757 
L 213.492142 78.286159 
L 282.480652 78.287842 
L 301.234809 78.285834 
L 319.654072 78.286237 
L 388.977478 78.405455 
L 390.651957 78.607881 
L 391.991539 78.983173 
L 392.996227 79.509647 
L 393.666018 80.045207 
L 394.335812 80.778221 
L 395.005603 81.763102 
L 396.010287 83.76645 
L 397.014975 86.450298 
L 398.35456 90.965287 
L 400.029036 97.625037 
L 403.043099 110.850472 
L 414.42955 162.682829 
L 430.839441 237.218078 
L 433.18371 247.006855 
L 434.523292 251.833317 
L 435.52798 254.833884 
L 436.532668 257.176467 
L 437.537352 258.853391 
L 438.54204 259.959706 
L 439.546728 260.638967 
L 440.551416 261.039393 
L 441.890998 261.318884 
L 443.900387 261.480413 
L 446.914424 261.543514 
L 462.319644 261.556364 
L 777.791372 261.556364 
L 777.791372 261.556364 
" style="fill:none;stroke:#ff7f0e;stroke-linecap:square;stroke-width:4;"/>
   </g>
   <g id="line2d_17">
    <path clip-path="url(#p187a017ce1)" d="M 108 261.486954 
L 110.34427 261.282713 
L 111.683853 260.971941 
L 112.68854 260.550418 
L 113.693227 259.884673 
L 114.697914 258.907673 
L 115.702601 257.591888 
L 117.042183 255.364724 
L 118.716662 252.054972 
L 121.730723 245.454701 
L 132.447385 221.06851 
L 190.719234 88.438167 
L 192.728609 84.429728 
L 194.068191 82.214233 
L 195.072879 80.905717 
L 196.077564 79.937183 
L 197.082251 79.279336 
L 198.086939 78.863286 
L 199.426521 78.556947 
L 201.435897 78.370971 
L 205.454645 78.294898 
L 239.948898 78.287505 
L 258.368162 78.288005 
L 347.450413 78.313165 
L 351.134268 78.525223 
L 352.473849 78.793131 
L 353.478537 79.161516 
L 354.483225 79.755796 
L 355.48791 80.645067 
L 356.492598 81.874017 
L 357.497286 83.421691 
L 358.836867 85.881975 
L 361.181137 90.816338 
L 366.874364 103.663739 
L 407.731638 196.842311 
L 430.504544 248.650667 
L 432.848813 253.623268 
L 434.523292 256.699693 
L 435.862874 258.625013 
L 436.867562 259.683028 
L 437.87225 260.418238 
L 438.876937 260.888946 
L 440.216519 261.241566 
L 442.225892 261.461263 
L 447.249325 261.552759 
L 467.67795 261.556364 
L 777.791372 261.556364 
L 777.791372 261.556364 
" style="fill:none;stroke:#2ca02c;stroke-linecap:square;stroke-width:4;"/>
   </g>
   <g id="line2d_18">
    <path clip-path="url(#p187a017ce1)" d="M 442.8 270.72 
L 442.8 69.12 
" style="fill:none;stroke:#000000;stroke-linecap:square;stroke-width:0.5;"/>
   </g>
   <g id="patch_3">
    <path d="M 108 270.72 
L 108 69.12 
" style="fill:none;stroke:#000000;stroke-linecap:square;stroke-linejoin:miter;stroke-width:0.8;"/>
   </g>
   <g id="patch_4">
    <path d="M 777.6 270.72 
L 777.6 69.12 
" style="fill:none;stroke:#000000;stroke-linecap:square;stroke-linejoin:miter;stroke-width:0.8;"/>
   </g>
   <g id="patch_5">
    <path d="M 108 270.72 
L 777.6 270.72 
" style="fill:none;stroke:#000000;stroke-linecap:square;stroke-linejoin:miter;stroke-width:0.8;"/>
   </g>
   <g id="patch_6">
    <path d="M 108 69.12 
L 777.6 69.12 
" style="fill:none;stroke:#000000;stroke-linecap:square;stroke-linejoin:miter;stroke-width:0.8;"/>
   </g>
   <g id="legend_1">
    <g id="line2d_19">
     <path d="M 659.1474 87.8625 
L 689.1354 87.8625 
" style="fill:none;stroke:#1f77b4;stroke-linecap:square;stroke-width:4;"/>
    </g>
    <g id="line2d_20"/>
    <g id="text_7">
     <!-- $\^a_t$ = 0.125 -->
     <defs>
      <path d="M -7.5 50.703125 
L -10.90625 50.703125 
L -23.09375 61 
L -35.203125 50.703125 
L -38.59375 50.703125 
L -26.203125 67.40625 
L -20 67.40625 
z
" id="STIXGeneral-Regular-770"/>
      <path d="M 46.296875 11.09375 
L 47.59375 10 
Q 42 3.203125 39.34375 1.09375 
Q 36.703125 -1 33.703125 -1 
Q 29.703125 -1 29.703125 3.09375 
Q 29.703125 5.59375 32 14.59375 
Q 26.40625 6.203125 21.703125 2.546875 
Q 17 -1.09375 11.703125 -1.09375 
Q 7.296875 -1.09375 4.5 1.953125 
Q 1.703125 5 1.703125 10.5 
Q 1.703125 18.09375 6.046875 26 
Q 10.40625 33.90625 17.09375 39 
Q 23.796875 44.09375 30.296875 44.09375 
Q 37 44.09375 38.296875 38.296875 
L 39.40625 43.09375 
L 39.703125 43.40625 
L 45.796875 44.09375 
L 46.5 43.796875 
Q 46.40625 43.40625 45.90625 41.703125 
Q 37 9.296875 37 5.40625 
Q 37 4.09375 38.40625 4.09375 
Q 39.90625 4.09375 43.59375 8.203125 
z
M 36.5 36.09375 
Q 36.5 38.703125 35 40.296875 
Q 33.5 41.90625 30.90625 41.90625 
Q 24.09375 41.90625 17.796875 32.703125 
Q 14.5 27.796875 12.296875 21.796875 
Q 10.09375 15.796875 10.09375 11.203125 
Q 10.09375 3.796875 16.09375 3.796875 
Q 22 3.796875 28.796875 13.59375 
Q 36.5 24.703125 36.5 36.09375 
z
" id="STIXGeneral-Italic-97"/>
      <path d="M 29.59375 42.796875 
L 29.09375 39.59375 
L 20.703125 39.59375 
L 12 6.796875 
Q 11.796875 6 11.796875 5.40625 
Q 11.796875 3.796875 13.296875 3.796875 
Q 14.5 3.796875 16.09375 5.34375 
Q 17.703125 6.90625 21.40625 11.703125 
L 22.703125 11 
Q 18.09375 4 15.140625 1.453125 
Q 12.203125 -1.09375 8.40625 -1.09375 
Q 3.796875 -1.09375 3.796875 2.59375 
Q 3.796875 3.59375 5.40625 10 
L 13.203125 39.59375 
L 5.703125 39.59375 
L 5.59375 40.203125 
Q 5.59375 42 8.90625 42.703125 
Q 11.40625 43.296875 15.5 46.546875 
Q 19.59375 49.796875 22.203125 53.703125 
Q 22.796875 54.59375 23.59375 54.59375 
Q 24.5 54.59375 24.5 53.796875 
Q 24.5 53.296875 24.40625 53.09375 
L 21.59375 42.796875 
z
" id="STIXGeneral-Italic-116"/>
      <path id="STIXGeneral-Regular-32"/>
      <path d="M 63.703125 32 
L 4.796875 32 
L 4.796875 38.59375 
L 63.703125 38.59375 
z
M 63.703125 12 
L 4.796875 12 
L 4.796875 18.59375 
L 63.703125 18.59375 
z
" id="STIXGeneral-Regular-61"/>
     </defs>
     <g transform="translate(701.1306 93.1104)scale(0.14994 -0.14994)">
      <use transform="translate(52.066406 6.59375)" xlink:href="#STIXGeneral-Regular-770"/>
      <use transform="translate(0 0.703125)" xlink:href="#STIXGeneral-Italic-97"/>
      <use transform="translate(51.643272 -12.525)scale(0.7)" xlink:href="#STIXGeneral-Italic-116"/>
      <use transform="translate(75.512639 0.703125)" xlink:href="#STIXGeneral-Regular-32"/>
      <use transform="translate(100.512623 0.703125)" xlink:href="#STIXGeneral-Regular-61"/>
      <use transform="translate(169.012608 0.703125)" xlink:href="#STIXGeneral-Regular-32"/>
      <use transform="translate(194.012593 0.703125)" xlink:href="#STIXGeneral-Regular-48"/>
      <use transform="translate(244.012578 0.703125)" xlink:href="#STIXGeneral-Regular-46"/>
      <use transform="translate(269.012562 0.703125)" xlink:href="#STIXGeneral-Regular-49"/>
      <use transform="translate(319.012547 0.703125)" xlink:href="#STIXGeneral-Regular-50"/>
      <use transform="translate(369.012532 0.703125)" xlink:href="#STIXGeneral-Regular-53"/>
     </g>
    </g>
    <g id="line2d_21">
     <path d="M 659.1474 109.109467 
L 689.1354 109.109467 
" style="fill:none;stroke:#ff7f0e;stroke-linecap:square;stroke-width:4;"/>
    </g>
    <g id="line2d_22"/>
    <g id="text_8">
     <!-- $\^a_t$ = 0.25 -->
     <g transform="translate(701.1306 114.357367)scale(0.14994 -0.14994)">
      <use transform="translate(52.066406 6.59375)" xlink:href="#STIXGeneral-Regular-770"/>
      <use transform="translate(0 0.703125)" xlink:href="#STIXGeneral-Italic-97"/>
      <use transform="translate(51.643272 -12.525)scale(0.7)" xlink:href="#STIXGeneral-Italic-116"/>
      <use transform="translate(75.512639 0.703125)" xlink:href="#STIXGeneral-Regular-32"/>
      <use transform="translate(100.512623 0.703125)" xlink:href="#STIXGeneral-Regular-61"/>
      <use transform="translate(169.012608 0.703125)" xlink:href="#STIXGeneral-Regular-32"/>
      <use transform="translate(194.012593 0.703125)" xlink:href="#STIXGeneral-Regular-48"/>
      <use transform="translate(244.012578 0.703125)" xlink:href="#STIXGeneral-Regular-46"/>
      <use transform="translate(269.012562 0.703125)" xlink:href="#STIXGeneral-Regular-50"/>
      <use transform="translate(319.012547 0.703125)" xlink:href="#STIXGeneral-Regular-53"/>
     </g>
    </g>
    <g id="line2d_23">
     <path d="M 659.1474 130.356433 
L 689.1354 130.356433 
" style="fill:none;stroke:#2ca02c;stroke-linecap:square;stroke-width:4;"/>
    </g>
    <g id="line2d_24"/>
    <g id="text_9">
     <!-- $\^a_t$ = 0.5 -->
     <g transform="translate(701.1306 135.604333)scale(0.14994 -0.14994)">
      <use transform="translate(52.066406 6.59375)" xlink:href="#STIXGeneral-Regular-770"/>
      <use transform="translate(0 0.703125)" xlink:href="#STIXGeneral-Italic-97"/>
      <use transform="translate(51.643272 -12.525)scale(0.7)" xlink:href="#STIXGeneral-Italic-116"/>
      <use transform="translate(75.512639 0.703125)" xlink:href="#STIXGeneral-Regular-32"/>
      <use transform="translate(100.512623 0.703125)" xlink:href="#STIXGeneral-Regular-61"/>
      <use transform="translate(169.012608 0.703125)" xlink:href="#STIXGeneral-Regular-32"/>
      <use transform="translate(194.012593 0.703125)" xlink:href="#STIXGeneral-Regular-48"/>
      <use transform="translate(244.012578 0.703125)" xlink:href="#STIXGeneral-Regular-46"/>
      <use transform="translate(269.012562 0.703125)" xlink:href="#STIXGeneral-Regular-53"/>
     </g>
    </g>
   </g>
  </g>
  <g id="axes_2">
   <g id="patch_7">
    <path d="M 108 512.64 
L 777.6 512.64 
L 777.6 311.04 
L 108 311.04 
z
" style="fill:#ffffff;"/>
   </g>
   <g id="matplotlib.axis_3">
    <g id="xtick_10">
     <g id="line2d_25">
      <g>
       <use style="fill:#ffffff;stroke:#000000;stroke-width:0.8;" x="108" xlink:href="#m08097c97aa" y="512.64"/>
      </g>
     </g>
     <g id="text_10">
      <!-- 0.00 -->
      <g transform="translate(92.25 531.933437)scale(0.18 -0.18)">
       <use xlink:href="#STIXGeneral-Regular-48"/>
       <use x="49.999985" xlink:href="#STIXGeneral-Regular-46"/>
       <use x="74.999969" xlink:href="#STIXGeneral-Regular-48"/>
       <use x="124.999954" xlink:href="#STIXGeneral-Regular-48"/>
      </g>
     </g>
    </g>
    <g id="xtick_11">
     <g id="line2d_26">
      <g>
       <use style="fill:#ffffff;stroke:#000000;stroke-width:0.8;" x="191.7" xlink:href="#m08097c97aa" y="512.64"/>
      </g>
     </g>
     <g id="text_11">
      <!-- 0.25 -->
      <g transform="translate(175.95 531.933437)scale(0.18 -0.18)">
       <use xlink:href="#STIXGeneral-Regular-48"/>
       <use x="49.999985" xlink:href="#STIXGeneral-Regular-46"/>
       <use x="74.999969" xlink:href="#STIXGeneral-Regular-50"/>
       <use x="124.999954" xlink:href="#STIXGeneral-Regular-53"/>
      </g>
     </g>
    </g>
    <g id="xtick_12">
     <g id="line2d_27">
      <g>
       <use style="fill:#ffffff;stroke:#000000;stroke-width:0.8;" x="275.4" xlink:href="#m08097c97aa" y="512.64"/>
      </g>
     </g>
     <g id="text_12">
      <!-- 0.50 -->
      <g transform="translate(259.65 531.933437)scale(0.18 -0.18)">
       <use xlink:href="#STIXGeneral-Regular-48"/>
       <use x="49.999985" xlink:href="#STIXGeneral-Regular-46"/>
       <use x="74.999969" xlink:href="#STIXGeneral-Regular-53"/>
       <use x="124.999954" xlink:href="#STIXGeneral-Regular-48"/>
      </g>
     </g>
    </g>
    <g id="xtick_13">
     <g id="line2d_28">
      <g>
       <use style="fill:#ffffff;stroke:#000000;stroke-width:0.8;" x="359.1" xlink:href="#m08097c97aa" y="512.64"/>
      </g>
     </g>
     <g id="text_13">
      <!-- 0.75 -->
      <g transform="translate(343.35 531.933437)scale(0.18 -0.18)">
       <use xlink:href="#STIXGeneral-Regular-48"/>
       <use x="49.999985" xlink:href="#STIXGeneral-Regular-46"/>
       <use x="74.999969" xlink:href="#STIXGeneral-Regular-55"/>
       <use x="124.999954" xlink:href="#STIXGeneral-Regular-53"/>
      </g>
     </g>
    </g>
    <g id="xtick_14">
     <g id="line2d_29">
      <g>
       <use style="fill:#ffffff;stroke:#000000;stroke-width:0.8;" x="442.8" xlink:href="#m08097c97aa" y="512.64"/>
      </g>
     </g>
     <g id="text_14">
      <!-- 1.00 -->
      <g transform="translate(427.05 531.933437)scale(0.18 -0.18)">
       <use xlink:href="#STIXGeneral-Regular-49"/>
       <use x="49.999985" xlink:href="#STIXGeneral-Regular-46"/>
       <use x="74.999969" xlink:href="#STIXGeneral-Regular-48"/>
       <use x="124.999954" xlink:href="#STIXGeneral-Regular-48"/>
      </g>
     </g>
    </g>
    <g id="xtick_15">
     <g id="line2d_30">
      <g>
       <use style="fill:#ffffff;stroke:#000000;stroke-width:0.8;" x="526.5" xlink:href="#m08097c97aa" y="512.64"/>
      </g>
     </g>
     <g id="text_15">
      <!-- 1.25 -->
      <g transform="translate(510.75 531.933437)scale(0.18 -0.18)">
       <use xlink:href="#STIXGeneral-Regular-49"/>
       <use x="49.999985" xlink:href="#STIXGeneral-Regular-46"/>
       <use x="74.999969" xlink:href="#STIXGeneral-Regular-50"/>
       <use x="124.999954" xlink:href="#STIXGeneral-Regular-53"/>
      </g>
     </g>
    </g>
    <g id="xtick_16">
     <g id="line2d_31">
      <g>
       <use style="fill:#ffffff;stroke:#000000;stroke-width:0.8;" x="610.2" xlink:href="#m08097c97aa" y="512.64"/>
      </g>
     </g>
     <g id="text_16">
      <!-- 1.50 -->
      <g transform="translate(594.45 531.933437)scale(0.18 -0.18)">
       <use xlink:href="#STIXGeneral-Regular-49"/>
       <use x="49.999985" xlink:href="#STIXGeneral-Regular-46"/>
       <use x="74.999969" xlink:href="#STIXGeneral-Regular-53"/>
       <use x="124.999954" xlink:href="#STIXGeneral-Regular-48"/>
      </g>
     </g>
    </g>
    <g id="xtick_17">
     <g id="line2d_32">
      <g>
       <use style="fill:#ffffff;stroke:#000000;stroke-width:0.8;" x="693.9" xlink:href="#m08097c97aa" y="512.64"/>
      </g>
     </g>
     <g id="text_17">
      <!-- 1.75 -->
      <g transform="translate(678.15 531.933437)scale(0.18 -0.18)">
       <use xlink:href="#STIXGeneral-Regular-49"/>
       <use x="49.999985" xlink:href="#STIXGeneral-Regular-46"/>
       <use x="74.999969" xlink:href="#STIXGeneral-Regular-55"/>
       <use x="124.999954" xlink:href="#STIXGeneral-Regular-53"/>
      </g>
     </g>
    </g>
    <g id="xtick_18">
     <g id="line2d_33">
      <g>
       <use style="fill:#ffffff;stroke:#000000;stroke-width:0.8;" x="777.6" xlink:href="#m08097c97aa" y="512.64"/>
      </g>
     </g>
     <g id="text_18">
      <!-- 2.00 -->
      <g transform="translate(761.85 531.933437)scale(0.18 -0.18)">
       <use xlink:href="#STIXGeneral-Regular-50"/>
       <use x="49.999985" xlink:href="#STIXGeneral-Regular-46"/>
       <use x="74.999969" xlink:href="#STIXGeneral-Regular-48"/>
       <use x="124.999954" xlink:href="#STIXGeneral-Regular-48"/>
      </g>
     </g>
    </g>
    <g id="text_19">
     <!-- $\^t$ -->
     <g transform="translate(440.28 552.133438)scale(0.18 -0.18)">
      <use transform="translate(39.042969 16.59375)" xlink:href="#STIXGeneral-Regular-770"/>
      <use transform="translate(0 0.203125)" xlink:href="#STIXGeneral-Italic-116"/>
     </g>
    </g>
   </g>
   <g id="matplotlib.axis_4">
    <g id="ytick_6">
     <g id="line2d_34">
      <g>
       <use style="fill:#ffffff;stroke:#000000;stroke-width:0.8;" x="108" xlink:href="#m9482f4fa0d" y="472.930897"/>
      </g>
     </g>
     <g id="text_20">
      <!-- 60 -->
      <defs>
       <path d="M 44.59375 68.40625 
L 44.796875 66.796875 
Q 33 64.90625 25.09375 57.25 
Q 17.203125 49.59375 15.203125 38.296875 
Q 21 42.796875 27.90625 42.796875 
Q 36.703125 42.796875 41.75 37.1875 
Q 46.796875 31.59375 46.796875 21.90625 
Q 46.796875 12.09375 41.703125 5.90625 
Q 35.796875 -1.40625 25.796875 -1.40625 
Q 13.59375 -1.40625 8.09375 8.703125 
Q 3.40625 17.296875 3.40625 27.90625 
Q 3.40625 44.296875 14.296875 55.5 
Q 20.5 61.90625 27.046875 64.546875 
Q 33.59375 67.203125 44.59375 68.40625 
z
M 37.796875 18.796875 
Q 37.796875 38.203125 24.296875 38.203125 
Q 19.296875 38.203125 16 35.546875 
Q 12.703125 32.90625 12.703125 26.59375 
Q 12.703125 14.90625 16.34375 8.15625 
Q 20 1.40625 26.90625 1.40625 
Q 32.203125 1.40625 35 6.15625 
Q 37.796875 10.90625 37.796875 18.796875 
z
" id="STIXGeneral-Regular-54"/>
      </defs>
      <g transform="translate(83 479.077616)scale(0.18 -0.18)">
       <use xlink:href="#STIXGeneral-Regular-54"/>
       <use x="49.999985" xlink:href="#STIXGeneral-Regular-48"/>
      </g>
     </g>
    </g>
    <g id="ytick_7">
     <g id="line2d_35">
      <g>
       <use style="fill:#ffffff;stroke:#000000;stroke-width:0.8;" x="108" xlink:href="#m9482f4fa0d" y="432.203609"/>
      </g>
     </g>
     <g id="text_21">
      <!-- 80 -->
      <defs>
       <path d="M 44.5 15.5 
Q 44.5 7.796875 39.140625 3.1875 
Q 33.796875 -1.40625 24.796875 -1.40625 
Q 16.40625 -1.40625 11 3.1875 
Q 5.59375 7.796875 5.59375 14.90625 
Q 5.59375 20.203125 8.1875 23.953125 
Q 10.796875 27.703125 18.59375 33.203125 
Q 11.09375 39.40625 8.640625 43.203125 
Q 6.203125 47 6.203125 52 
Q 6.203125 59.09375 11.640625 63.34375 
Q 17.09375 67.59375 25.59375 67.59375 
Q 32.90625 67.59375 37.65625 63.4375 
Q 42.40625 59.296875 42.40625 53.296875 
Q 42.40625 47.796875 39.546875 44.5 
Q 36.703125 41.203125 29 37.09375 
Q 38 31.09375 41.25 26.390625 
Q 44.5 21.703125 44.5 15.5 
z
M 35.5 53.296875 
Q 35.5 58.5 32.59375 61.640625 
Q 29.703125 64.796875 24.59375 64.796875 
Q 19.5 64.796875 16.546875 62.140625 
Q 13.59375 59.5 13.59375 54.890625 
Q 13.59375 50.296875 16.546875 46.546875 
Q 19.5 42.796875 26.09375 38.90625 
Q 31.203125 41.90625 33.34375 45.25 
Q 35.5 48.59375 35.5 53.296875 
z
M 27.09375 27.203125 
L 21.203125 31.203125 
Q 16.796875 27.59375 15 24.140625 
Q 13.203125 20.703125 13.203125 15.796875 
Q 13.203125 9 16.640625 5.203125 
Q 20.09375 1.40625 25.90625 1.40625 
Q 30.796875 1.40625 33.84375 4.453125 
Q 36.90625 7.5 36.90625 12.40625 
Q 36.90625 16.90625 34.59375 20.296875 
Q 32.296875 23.703125 27.09375 27.203125 
z
" id="STIXGeneral-Regular-56"/>
      </defs>
      <g transform="translate(83 438.350327)scale(0.18 -0.18)">
       <use xlink:href="#STIXGeneral-Regular-56"/>
       <use x="49.999985" xlink:href="#STIXGeneral-Regular-48"/>
      </g>
     </g>
    </g>
    <g id="ytick_8">
     <g id="line2d_36">
      <g>
       <use style="fill:#ffffff;stroke:#000000;stroke-width:0.8;" x="108" xlink:href="#m9482f4fa0d" y="391.47632"/>
      </g>
     </g>
     <g id="text_22">
      <!-- 100 -->
      <g transform="translate(74 397.623039)scale(0.18 -0.18)">
       <use xlink:href="#STIXGeneral-Regular-49"/>
       <use x="49.999985" xlink:href="#STIXGeneral-Regular-48"/>
       <use x="99.999969" xlink:href="#STIXGeneral-Regular-48"/>
      </g>
     </g>
    </g>
    <g id="ytick_9">
     <g id="line2d_37">
      <g>
       <use style="fill:#ffffff;stroke:#000000;stroke-width:0.8;" x="108" xlink:href="#m9482f4fa0d" y="350.749032"/>
      </g>
     </g>
     <g id="text_23">
      <!-- 120 -->
      <g transform="translate(74 356.89575)scale(0.18 -0.18)">
       <use xlink:href="#STIXGeneral-Regular-49"/>
       <use x="49.999985" xlink:href="#STIXGeneral-Regular-50"/>
       <use x="99.999969" xlink:href="#STIXGeneral-Regular-48"/>
      </g>
     </g>
    </g>
    <g id="text_24">
     <!-- $\alpha,\/\deg$ -->
     <defs>
      <path d="M 54.90625 42.796875 
L 40.703125 16.703125 
L 40.703125 14.90625 
Q 40.703125 11 41.59375 8 
Q 42.5 5 44.09375 5 
Q 46.40625 5 49.203125 12.40625 
L 50.796875 11.703125 
Q 47.09375 -0.90625 40.703125 -0.90625 
Q 35.796875 -0.90625 35.5 9.59375 
Q 26.703125 -1.09375 16.09375 -1.09375 
Q 9.203125 -1.09375 5.953125 3.09375 
Q 2.703125 7.296875 2.703125 14.09375 
Q 2.703125 20.203125 5.140625 26.140625 
Q 7.59375 32.09375 11.796875 36.40625 
Q 15.203125 39.796875 19.84375 41.9375 
Q 24.5 44.09375 29.09375 44.09375 
Q 35.09375 44.09375 38.390625 40.546875 
Q 41.703125 37 41.703125 32.203125 
L 46.296875 42.796875 
z
M 35.90625 27.203125 
Q 35.90625 42 28.203125 42 
Q 23 42 16.953125 32.796875 
Q 10.90625 23.59375 10.90625 12.5 
Q 10.90625 7.703125 12.59375 4.34375 
Q 14.296875 1 17.796875 1 
Q 25.09375 1 34.296875 20.09375 
Q 34.40625 20.703125 34.84375 22.046875 
Q 35.296875 23.40625 35.59375 24.703125 
Q 35.90625 26 35.90625 27.203125 
z
" id="STIXGeneral-Italic-945"/>
      <path d="M 8.296875 -14.09375 
L 7.296875 -12.203125 
Q 15.59375 -6.59375 15.59375 -1.5 
Q 15.59375 -0.203125 14.203125 -0.203125 
Q 13.796875 -0.203125 12.84375 -0.390625 
Q 11.90625 -0.59375 11.296875 -0.59375 
Q 5.5 -0.59375 5.5 4.5 
Q 5.5 7.09375 7.140625 8.640625 
Q 8.796875 10.203125 11.5 10.203125 
Q 14.90625 10.203125 17.203125 7.75 
Q 19.5 5.296875 19.5 1.5 
Q 19.5 -3.09375 16.453125 -7.390625 
Q 13.40625 -11.703125 8.296875 -14.09375 
z
" id="STIXGeneral-Regular-44"/>
      <path d="M 49.09375 4.203125 
L 34.40625 -1 
L 34 -0.703125 
L 34 5.703125 
Q 29.203125 -1 21.203125 -1 
Q 12.90625 -1 7.796875 4.953125 
Q 2.703125 10.90625 2.703125 20.5 
Q 2.703125 31.09375 8.796875 38.546875 
Q 14.90625 46 23.5 46 
Q 28.90625 46 34 41.703125 
L 34 57.296875 
Q 34 60.40625 33.09375 61.40625 
Q 32.203125 62.40625 29.40625 62.40625 
Q 28 62.40625 27.203125 62.296875 
L 27.203125 63.90625 
Q 36.296875 66.296875 41.90625 68.296875 
L 42.40625 68.09375 
L 42.40625 11.40625 
Q 42.40625 7.90625 43.25 6.796875 
Q 44.09375 5.703125 46.796875 5.703125 
Q 47.40625 5.703125 49.09375 5.796875 
z
M 34 10.203125 
L 34 33.203125 
Q 34 37.203125 30.953125 40.203125 
Q 27.90625 43.203125 23.796875 43.203125 
Q 18.09375 43.203125 14.6875 38.09375 
Q 11.296875 33 11.296875 24.5 
Q 11.296875 15.296875 15.046875 9.75 
Q 18.796875 4.203125 25.09375 4.203125 
Q 29.796875 4.203125 32.5 7.40625 
Q 34 9.09375 34 10.203125 
z
" id="STIXGeneral-Regular-100"/>
      <path d="M 40.796875 16.40625 
L 42.40625 15.703125 
Q 36.40625 -1 21.5 -1 
Q 12.703125 -1 7.59375 5.140625 
Q 2.5 11.296875 2.5 21.703125 
Q 2.5 32.40625 8.203125 39.203125 
Q 13.90625 46 23.203125 46 
Q 32.203125 46 37.09375 39.09375 
Q 40 35.09375 40.5 27.703125 
L 9.703125 27.703125 
Q 10.09375 21.40625 10.9375 18.09375 
Q 11.796875 14.796875 14.296875 11.40625 
Q 18.5 5.90625 25.40625 5.90625 
Q 30.296875 5.90625 33.640625 8.296875 
Q 37 10.703125 40.796875 16.40625 
z
M 9.90625 30.90625 
L 30.296875 30.90625 
Q 29.40625 37.203125 27.34375 39.796875 
Q 25.296875 42.40625 20.5 42.40625 
Q 16.296875 42.40625 13.5 39.453125 
Q 10.703125 36.5 9.90625 30.90625 
z
" id="STIXGeneral-Regular-101"/>
      <path d="M 47 38.796875 
L 38.703125 38.796875 
Q 40.59375 34.5 40.59375 30.40625 
Q 40.59375 22.703125 35.390625 18.796875 
Q 30.203125 14.90625 25 14.90625 
Q 23.90625 14.90625 21.203125 15.203125 
L 19.296875 15.40625 
Q 17.296875 14.796875 15.296875 12.6875 
Q 13.296875 10.59375 13.296875 9.09375 
Q 13.296875 6.796875 21.09375 6.40625 
L 34 5.796875 
Q 39.5 5.59375 42.796875 2.6875 
Q 46.09375 -0.203125 46.09375 -4.90625 
Q 46.09375 -10.703125 40.09375 -15.40625 
Q 31.796875 -21.796875 20.09375 -21.796875 
Q 12.90625 -21.796875 7.84375 -18.9375 
Q 2.796875 -16.09375 2.796875 -12.09375 
Q 2.796875 -9.296875 5 -6.546875 
Q 7.203125 -3.796875 12.59375 0.09375 
Q 9.40625 1.59375 8.34375 2.6875 
Q 7.296875 3.796875 7.296875 5.40625 
Q 7.296875 8.296875 11.90625 12.296875 
Q 14.203125 14.296875 16.203125 16.296875 
Q 11.203125 18.796875 9.046875 21.890625 
Q 6.90625 25 6.90625 29.703125 
Q 6.90625 36.5 11.75 41.25 
Q 16.59375 46 23.59375 46 
Q 27.59375 46 31.59375 44.5 
L 33.796875 43.703125 
Q 36.703125 42.703125 39.296875 42.703125 
L 47 42.703125 
z
M 15.203125 33.796875 
L 15.203125 33.5 
Q 15.203125 26.296875 18.046875 21.84375 
Q 20.90625 17.40625 25.5 17.40625 
Q 28.90625 17.40625 30.90625 19.84375 
Q 32.90625 22.296875 32.90625 26.40625 
Q 32.90625 33 29.90625 38.5 
Q 27.40625 43.203125 22.59375 43.203125 
Q 19.09375 43.203125 17.140625 40.703125 
Q 15.203125 38.203125 15.203125 33.796875 
z
M 43.296875 -6.40625 
Q 43.296875 -3.59375 40.546875 -2.546875 
Q 37.796875 -1.5 30.90625 -1.5 
Q 21 -1.5 14.703125 -0.203125 
Q 11.703125 -3.796875 10.75 -5.4375 
Q 9.796875 -7.09375 9.796875 -8.796875 
Q 9.796875 -12.09375 13.75 -14.09375 
Q 17.703125 -16.09375 24.296875 -16.09375 
Q 32.796875 -16.09375 38.046875 -13.4375 
Q 43.296875 -10.796875 43.296875 -6.40625 
z
" id="STIXGeneral-Regular-103"/>
     </defs>
     <g transform="translate(66.04 434.52)rotate(-90)scale(0.18 -0.18)">
      <use transform="translate(0 0.703125)" xlink:href="#STIXGeneral-Italic-945"/>
      <use transform="translate(55.199997 0.703125)" xlink:href="#STIXGeneral-Regular-44"/>
      <use transform="translate(106.673549 0.703125)" xlink:href="#STIXGeneral-Regular-100"/>
      <use transform="translate(156.673534 0.703125)" xlink:href="#STIXGeneral-Regular-101"/>
      <use transform="translate(201.073528 0.703125)" xlink:href="#STIXGeneral-Regular-103"/>
     </g>
    </g>
   </g>
   <g id="line2d_38">
    <path clip-path="url(#pe8baa636cb)" d="M 108 503.476364 
L 391.321748 503.370575 
L 393.331124 503.135568 
L 394.670705 502.756889 
L 395.675393 502.252923 
L 396.680081 501.467349 
L 397.684766 500.312001 
L 398.689454 498.710008 
L 399.694142 496.604949 
L 400.69883 493.962645 
L 401.703514 490.769141 
L 403.043099 485.664378 
L 404.382681 479.655028 
L 406.05716 471.080553 
L 408.401429 457.779489 
L 413.424866 427.5819 
L 424.811317 359.067892 
L 427.155586 346.444642 
L 428.830065 338.683906 
L 430.16965 333.467213 
L 431.509232 329.215706 
L 432.51392 326.669097 
L 433.518604 324.655276 
L 434.523292 323.136268 
L 435.52798 322.051755 
L 436.532668 321.322008 
L 437.537352 320.858325 
L 438.876937 320.512868 
L 440.88631 320.30002 
L 444.570155 320.214885 
L 465.333681 320.204701 
L 777.791372 320.204701 
L 777.791372 320.204701 
" style="fill:none;stroke:#1f77b4;stroke-linecap:square;stroke-width:4;"/>
   </g>
   <g id="line2d_39">
    <path clip-path="url(#pe8baa636cb)" d="M 108 503.476364 
L 353.478537 503.373725 
L 355.822807 503.114954 
L 357.497286 502.686202 
L 358.836867 502.123016 
L 360.176449 501.326545 
L 361.516034 500.277256 
L 362.855616 498.965179 
L 364.195197 497.385599 
L 365.869676 495.031949 
L 367.544155 492.256095 
L 369.218634 489.059376 
L 371.228009 484.675536 
L 373.237382 479.720741 
L 375.581652 473.319822 
L 379.265503 462.460372 
L 393.666018 418.719156 
L 415.769135 351.807741 
L 418.448299 344.403863 
L 420.457674 339.403128 
L 422.467047 334.969421 
L 424.476423 331.132599 
L 426.150902 328.398223 
L 427.82538 326.086052 
L 429.499856 324.194717 
L 430.839441 322.98138 
L 432.179022 322.027924 
L 433.518604 321.321395 
L 434.858189 320.837402 
L 436.532668 320.483989 
L 438.54204 320.297352 
L 442.560789 320.212625 
L 467.343083 320.20385 
L 777.791372 320.20385 
L 777.791372 320.20385 
" style="fill:none;stroke:#ff7f0e;stroke-linecap:square;stroke-width:4;"/>
   </g>
   <g id="line2d_40">
    <path clip-path="url(#pe8baa636cb)" d="M 108 503.476364 
L 275.782737 503.370921 
L 278.7968 503.097095 
L 281.475964 502.606107 
L 283.820233 501.960909 
L 286.164503 501.109295 
L 288.84367 499.88179 
L 291.522836 498.382724 
L 294.202 496.612009 
L 296.881166 494.56963 
L 299.560333 492.255585 
L 302.239496 489.669894 
L 305.253557 486.436412 
L 308.267621 482.860033 
L 311.281681 478.945361 
L 314.630639 474.230442 
L 319.988969 466.213183 
L 372.567591 386.270503 
L 397.684766 348.276315 
L 401.033723 343.648208 
L 404.047784 339.823574 
L 407.061848 336.339328 
L 410.075908 333.198338 
L 413.089969 330.401084 
L 415.769135 328.203272 
L 418.448299 326.277126 
L 421.127465 324.622643 
L 423.806632 323.239784 
L 426.485795 322.128384 
L 428.830065 321.377965 
L 431.174334 320.832439 
L 433.853501 320.447878 
L 436.867562 320.2624 
L 442.560789 320.20583 
L 537.00137 320.203636 
L 777.791372 320.203636 
L 777.791372 320.203636 
" style="fill:none;stroke:#2ca02c;stroke-linecap:square;stroke-width:4;"/>
   </g>
   <g id="line2d_41">
    <path clip-path="url(#pe8baa636cb)" d="M 442.8 512.64 
L 442.8 311.04 
" style="fill:none;stroke:#000000;stroke-linecap:square;stroke-width:0.5;"/>
   </g>
   <g id="patch_8">
    <path d="M 108 512.64 
L 108 311.04 
" style="fill:none;stroke:#000000;stroke-linecap:square;stroke-linejoin:miter;stroke-width:0.8;"/>
   </g>
   <g id="patch_9">
    <path d="M 777.6 512.64 
L 777.6 311.04 
" style="fill:none;stroke:#000000;stroke-linecap:square;stroke-linejoin:miter;stroke-width:0.8;"/>
   </g>
   <g id="patch_10">
    <path d="M 108 512.64 
L 777.6 512.64 
" style="fill:none;stroke:#000000;stroke-linecap:square;stroke-linejoin:miter;stroke-width:0.8;"/>
   </g>
   <g id="patch_11">
    <path d="M 108 311.04 
L 777.6 311.04 
" style="fill:none;stroke:#000000;stroke-linecap:square;stroke-linejoin:miter;stroke-width:0.8;"/>
   </g>
   <g id="legend_2">
    <g id="line2d_42">
     <path d="M 658.54764 447.160733 
L 688.53564 447.160733 
" style="fill:none;stroke:#1f77b4;stroke-linecap:square;stroke-width:4;"/>
    </g>
    <g id="line2d_43"/>
    <g id="text_25">
     <!-- $\^p_t$ = 0.125 -->
     <defs>
      <path d="M 21.5 42.796875 
L 18.59375 32.796875 
Q 26.09375 44.09375 35.703125 44.09375 
Q 41.203125 44.09375 44.203125 40.796875 
Q 47.203125 37.5 47.203125 31.59375 
Q 47.203125 19.296875 37.84375 9.09375 
Q 28.5 -1.09375 17.5 -1.09375 
Q 13.90625 -1.09375 10.59375 0.59375 
Q 6.59375 -15.90625 6.59375 -16 
Q 6.59375 -17.59375 7.9375 -18.25 
Q 9.296875 -18.90625 12.796875 -18.90625 
L 12.796875 -20.5 
L -7.5 -20.5 
L -7.5 -18.90625 
Q -4.296875 -18.796875 -2.9375 -17.5 
Q -1.59375 -16.203125 -0.703125 -12.59375 
L 10.796875 30.59375 
Q 12.40625 36.40625 12.40625 37.703125 
Q 12.40625 40.40625 8 40.40625 
L 5.796875 40.40625 
L 5.59375 41.90625 
L 21.203125 44.09375 
Q 21.703125 44.09375 21.703125 43.703125 
Q 21.59375 43.203125 21.5 42.796875 
z
M 38.203125 31.296875 
Q 38.203125 35.703125 36.75 37.75 
Q 35.296875 39.796875 32 39.796875 
Q 28.09375 39.796875 24.1875 36.390625 
Q 20.296875 33 18.5 28.40625 
Q 16.296875 22.703125 14.140625 14.890625 
Q 12 7.09375 12 4.59375 
Q 12 2.90625 13.34375 1.84375 
Q 14.703125 0.796875 16.796875 0.796875 
Q 24.59375 0.796875 31.296875 10.296875 
Q 38.203125 19.90625 38.203125 31.296875 
z
" id="STIXGeneral-Italic-112"/>
     </defs>
     <g transform="translate(700.53084 452.408633)scale(0.14994 -0.14994)">
      <use transform="translate(57.265625 6.59375)" xlink:href="#STIXGeneral-Regular-770"/>
      <use transform="translate(0 0.703125)" xlink:href="#STIXGeneral-Italic-112"/>
      <use transform="translate(56.230781 -12.525)scale(0.7)" xlink:href="#STIXGeneral-Italic-116"/>
      <use transform="translate(80.100148 0.703125)" xlink:href="#STIXGeneral-Regular-32"/>
      <use transform="translate(105.100132 0.703125)" xlink:href="#STIXGeneral-Regular-61"/>
      <use transform="translate(173.600117 0.703125)" xlink:href="#STIXGeneral-Regular-32"/>
      <use transform="translate(198.600102 0.703125)" xlink:href="#STIXGeneral-Regular-48"/>
      <use transform="translate(248.600087 0.703125)" xlink:href="#STIXGeneral-Regular-46"/>
      <use transform="translate(273.600071 0.703125)" xlink:href="#STIXGeneral-Regular-49"/>
      <use transform="translate(323.600056 0.703125)" xlink:href="#STIXGeneral-Regular-50"/>
      <use transform="translate(373.600041 0.703125)" xlink:href="#STIXGeneral-Regular-53"/>
     </g>
    </g>
    <g id="line2d_44">
     <path d="M 658.54764 468.902033 
L 688.53564 468.902033 
" style="fill:none;stroke:#ff7f0e;stroke-linecap:square;stroke-width:4;"/>
    </g>
    <g id="line2d_45"/>
    <g id="text_26">
     <!-- $\^p_t$ = 0.25 -->
     <g transform="translate(700.53084 474.149933)scale(0.14994 -0.14994)">
      <use transform="translate(57.265625 6.59375)" xlink:href="#STIXGeneral-Regular-770"/>
      <use transform="translate(0 0.703125)" xlink:href="#STIXGeneral-Italic-112"/>
      <use transform="translate(56.230781 -12.525)scale(0.7)" xlink:href="#STIXGeneral-Italic-116"/>
      <use transform="translate(80.100148 0.703125)" xlink:href="#STIXGeneral-Regular-32"/>
      <use transform="translate(105.100132 0.703125)" xlink:href="#STIXGeneral-Regular-61"/>
      <use transform="translate(173.600117 0.703125)" xlink:href="#STIXGeneral-Regular-32"/>
      <use transform="translate(198.600102 0.703125)" xlink:href="#STIXGeneral-Regular-48"/>
      <use transform="translate(248.600087 0.703125)" xlink:href="#STIXGeneral-Regular-46"/>
      <use transform="translate(273.600071 0.703125)" xlink:href="#STIXGeneral-Regular-50"/>
      <use transform="translate(323.600056 0.703125)" xlink:href="#STIXGeneral-Regular-53"/>
     </g>
    </g>
    <g id="line2d_46">
     <path d="M 658.54764 490.643333 
L 688.53564 490.643333 
" style="fill:none;stroke:#2ca02c;stroke-linecap:square;stroke-width:4;"/>
    </g>
    <g id="line2d_47"/>
    <g id="text_27">
     <!-- $\^p_t$ = 0.5 -->
     <g transform="translate(700.53084 495.891233)scale(0.14994 -0.14994)">
      <use transform="translate(57.265625 6.59375)" xlink:href="#STIXGeneral-Regular-770"/>
      <use transform="translate(0 0.703125)" xlink:href="#STIXGeneral-Italic-112"/>
      <use transform="translate(56.230781 -12.525)scale(0.7)" xlink:href="#STIXGeneral-Italic-116"/>
      <use transform="translate(80.100148 0.703125)" xlink:href="#STIXGeneral-Regular-32"/>
      <use transform="translate(105.100132 0.703125)" xlink:href="#STIXGeneral-Regular-61"/>
      <use transform="translate(173.600117 0.703125)" xlink:href="#STIXGeneral-Regular-32"/>
      <use transform="translate(198.600102 0.703125)" xlink:href="#STIXGeneral-Regular-48"/>
      <use transform="translate(248.600087 0.703125)" xlink:href="#STIXGeneral-Regular-46"/>
      <use transform="translate(273.600071 0.703125)" xlink:href="#STIXGeneral-Regular-53"/>
     </g>
    </g>
   </g>
  </g>
 </g>
 <defs>
  <clipPath id="p187a017ce1">
   <rect height="201.6" width="669.6" x="108" y="69.12"/>
  </clipPath>
  <clipPath id="pe8baa636cb">
   <rect height="201.6" width="669.6" x="108" y="311.04"/>
  </clipPath>
 </defs>
</svg>
