<?xml version="1.0" encoding="utf-8" standalone="no"?>
<!DOCTYPE svg PUBLIC "-//W3C//DTD SVG 1.1//EN"
  "http://www.w3.org/Graphics/SVG/1.1/DTD/svg11.dtd">
<!-- Created with matplotlib (https://matplotlib.org/) -->
<svg height="594pt" version="1.1" viewBox="0 0 864 594" width="864pt" xmlns="http://www.w3.org/2000/svg" xmlns:xlink="http://www.w3.org/1999/xlink">
 <defs>
  <style type="text/css">
*{stroke-linecap:butt;stroke-linejoin:round;}
  </style>
 </defs>
 <g id="figure_1">
  <g id="patch_1">
   <path d="M 0 594 
L 864 594 
L 864 0 
L 0 0 
z
" style="fill:#ffffff;"/>
  </g>
  <g id="axes_1">
   <g id="PathCollection_1">
    <defs>
     <path d="M 0 7.905694 
C 2.096615 7.905694 4.10764 7.0727 5.59017 5.59017 
C 7.0727 4.10764 7.905694 2.096615 7.905694 0 
C 7.905694 -2.096615 7.0727 -4.10764 5.59017 -5.59017 
C 4.10764 -7.0727 2.096615 -7.905694 0 -7.905694 
C -2.096615 -7.905694 -4.10764 -7.0727 -5.59017 -5.59017 
C -7.0727 -4.10764 -7.905694 -2.096615 -7.905694 0 
C -7.905694 2.096615 -7.0727 4.10764 -5.59017 5.59017 
C -4.10764 7.0727 -2.096615 7.905694 0 7.905694 
z
" id="m38c50d52de" style="stroke:#000000;"/>
    </defs>
    <g clip-path="url(#p5bfe55e7e0)">
     <use style="stroke:#000000;" x="253.988013" xlink:href="#m38c50d52de" y="315.932049"/>
     <use style="stroke:#000000;" x="670.568381" xlink:href="#m38c50d52de" y="315.697521"/>
     <use style="stroke:#000000;" x="739.613143" xlink:href="#m38c50d52de" y="315.930801"/>
    </g>
   </g>
   <g id="patch_2">
    <path clip-path="url(#p5bfe55e7e0)" d="M 325.674955 244.245107 
L 235.511997 334.408065 
" style="fill:#1f77b4;stroke:#000000;stroke-dasharray:6.4,1.6,1,1.6;stroke-dashoffset:0;stroke-linejoin:miter;"/>
   </g>
   <g id="patch_3">
    <path clip-path="url(#p5bfe55e7e0)" d="M 667.931041 244.23902 
L 758.087912 334.408065 
" style="fill:#1f77b4;stroke:#000000;stroke-dasharray:6.4,1.6,1,1.6;stroke-dashoffset:0;stroke-linejoin:miter;"/>
   </g>
   <g id="patch_4">
    <path clip-path="url(#p5bfe55e7e0)" d="M 253.988013 315.932049 
L 180.083949 389.836112 
M 670.568381 315.697521 
L 597.614491 390.539696 
M 739.613143 315.930801 
L 813.512217 389.839854 
" style="fill:#1f77b4;stroke:#000000;stroke-linejoin:miter;stroke-width:6;"/>
   </g>
   <g id="patch_5">
    <path clip-path="url(#p5bfe55e7e0)" d="M 652.329908 240.343548 
L 652.329908 208.98871 
M 758.090323 240.343548 
L 758.090323 208.98871 
M 235.509677 350.085484 
L 235.509677 318.730645 
M 758.090323 350.085484 
L 758.090323 318.730645 
" style="fill:#1f77b4;stroke:#000000;stroke-linejoin:miter;"/>
   </g>
   <g id="patch_6">
    <path d="M 318.620899 255.387299 
Q 371.203584 278.201283 349.7458 332.553676 
" style="fill:none;stroke:#000000;stroke-linecap:round;"/>
    <path d="M 324.080479 261.898288 
L 318.620899 255.387299 
L 327.105438 254.926228 
" style="fill:none;stroke:#000000;stroke-linecap:round;"/>
   </g>
   <g id="text_1">
    <!-- $\alpha$ -->
    <defs>
     <path d="M 54.90625 42.796875 
L 40.703125 16.703125 
L 40.703125 14.90625 
Q 40.703125 11 41.59375 8 
Q 42.5 5 44.09375 5 
Q 46.40625 5 49.203125 12.40625 
L 50.796875 11.703125 
Q 47.09375 -0.90625 40.703125 -0.90625 
Q 35.796875 -0.90625 35.5 9.59375 
Q 26.703125 -1.09375 16.09375 -1.09375 
Q 9.203125 -1.09375 5.953125 3.09375 
Q 2.703125 7.296875 2.703125 14.09375 
Q 2.703125 20.203125 5.140625 26.140625 
Q 7.59375 32.09375 11.796875 36.40625 
Q 15.203125 39.796875 19.84375 41.9375 
Q 24.5 44.09375 29.09375 44.09375 
Q 35.09375 44.09375 38.390625 40.546875 
Q 41.703125 37 41.703125 32.203125 
L 46.296875 42.796875 
z
M 35.90625 27.203125 
Q 35.90625 42 28.203125 42 
Q 23 42 16.953125 32.796875 
Q 10.90625 23.59375 10.90625 12.5 
Q 10.90625 7.703125 12.59375 4.34375 
Q 14.296875 1 17.796875 1 
Q 25.09375 1 34.296875 20.09375 
Q 34.40625 20.703125 34.84375 22.046875 
Q 35.296875 23.40625 35.59375 24.703125 
Q 35.90625 26 35.90625 27.203125 
z
" id="STIXGeneral-Italic-945"/>
    </defs>
    <g transform="translate(356.006222 286.720513)scale(0.19 -0.19)">
     <use transform="translate(0 0.90625)" xlink:href="#STIXGeneral-Italic-945"/>
    </g>
   </g>
   <g id="patch_7">
    <path d="M 674.984236 255.381849 
Q 622.396412 278.195953 643.85411 332.553499 
" style="fill:none;stroke:#000000;stroke-linecap:round;"/>
    <path d="M 666.499712 254.920491 
L 674.984236 255.381849 
L 669.524436 261.892653 
" style="fill:none;stroke:#000000;stroke-linecap:round;"/>
   </g>
   <g id="text_2">
    <!-- $\alpha_{int}$ -->
    <defs>
     <path d="M 26.40625 59.90625 
Q 26.40625 57.796875 24.953125 56.296875 
Q 23.5 54.796875 21.5 54.796875 
Q 19.296875 54.796875 18 56.25 
Q 16.703125 57.703125 16.703125 60.09375 
Q 16.703125 62.40625 18.046875 63.90625 
Q 19.40625 65.40625 21.40625 65.40625 
Q 23.40625 65.40625 24.90625 63.75 
Q 26.40625 62.09375 26.40625 59.90625 
z
M 22.203125 11.40625 
L 23.5 10.296875 
Q 19.296875 3.796875 16.390625 1.34375 
Q 13.5 -1.09375 9.796875 -1.09375 
Q 4.90625 -1.09375 4.90625 4.40625 
Q 4.90625 7.296875 7.09375 15.5 
L 11.90625 33.203125 
Q 12.796875 36.40625 12.796875 37.59375 
Q 12.796875 39.09375 11.640625 39.5 
Q 10.5 39.90625 6.40625 40 
L 6.40625 41.59375 
Q 11 42 22.40625 44.09375 
L 22.796875 43.796875 
L 13.40625 9.5 
Q 12.40625 6.09375 12.40625 5.09375 
Q 12.40625 3.59375 13.796875 3.59375 
Q 16.296875 3.59375 22.203125 11.40625 
z
" id="STIXGeneral-Italic-105"/>
     <path d="M 46 11.703125 
L 47.40625 10.40625 
Q 42.296875 3.40625 39.59375 1.25 
Q 36.90625 -0.90625 33.40625 -0.90625 
Q 31.40625 -0.90625 30.046875 0.4375 
Q 28.703125 1.796875 28.703125 4.5 
Q 28.703125 6.09375 30.296875 12 
L 34.703125 28.203125 
Q 36.09375 33.59375 36.09375 36.09375 
Q 36.09375 39 33.703125 39 
Q 30.796875 39 27.34375 35.546875 
Q 23.90625 32.09375 18.90625 24.796875 
Q 15.59375 19.90625 14.046875 16 
Q 12.5 12.09375 8.90625 0 
L 1.40625 0 
L 11 35 
Q 11.203125 36 11.203125 36.703125 
Q 11.203125 38.203125 9.84375 38.75 
Q 8.5 39.296875 4.703125 39.40625 
L 4.703125 41 
Q 8.59375 41.796875 13.390625 42.640625 
Q 18.203125 43.5 20.90625 44.09375 
L 21.296875 43.90625 
L 14.59375 22.09375 
Q 22 33.90625 27.390625 39 
Q 32.796875 44.09375 37.703125 44.09375 
Q 40.796875 44.09375 42.5 42.4375 
Q 44.203125 40.796875 44.203125 38 
Q 44.203125 35.5 43.203125 32 
L 37.59375 11.703125 
Q 36.203125 6.703125 36.203125 5.59375 
Q 36.203125 3.796875 37.796875 3.796875 
Q 39.703125 3.796875 43.90625 9.09375 
Q 44.59375 9.90625 46 11.703125 
z
" id="STIXGeneral-Italic-110"/>
     <path d="M 29.59375 42.796875 
L 29.09375 39.59375 
L 20.703125 39.59375 
L 12 6.796875 
Q 11.796875 6 11.796875 5.40625 
Q 11.796875 3.796875 13.296875 3.796875 
Q 14.5 3.796875 16.09375 5.34375 
Q 17.703125 6.90625 21.40625 11.703125 
L 22.703125 11 
Q 18.09375 4 15.140625 1.453125 
Q 12.203125 -1.09375 8.40625 -1.09375 
Q 3.796875 -1.09375 3.796875 2.59375 
Q 3.796875 3.59375 5.40625 10 
L 13.203125 39.59375 
L 5.703125 39.59375 
L 5.59375 40.203125 
Q 5.59375 42 8.90625 42.703125 
Q 11.40625 43.296875 15.5 46.546875 
Q 19.59375 49.796875 22.203125 53.703125 
Q 22.796875 54.59375 23.59375 54.59375 
Q 24.5 54.59375 24.5 53.796875 
Q 24.5 53.296875 24.40625 53.09375 
L 21.59375 42.796875 
z
" id="STIXGeneral-Italic-116"/>
    </defs>
    <g transform="translate(613.523392 286.707772)scale(0.19 -0.19)">
     <use transform="translate(0 0.90625)" xlink:href="#STIXGeneral-Italic-945"/>
     <use transform="translate(55.199997 -12.321875)scale(0.7)" xlink:href="#STIXGeneral-Italic-105"/>
     <use transform="translate(74.659988 -12.321875)scale(0.7)" xlink:href="#STIXGeneral-Italic-110"/>
     <use transform="translate(109.659978 -12.321875)scale(0.7)" xlink:href="#STIXGeneral-Italic-116"/>
    </g>
   </g>
   <g id="patch_8">
    <path d="M 775.933448 356.663297 
Q 705.461077 426.002244 633.948238 356.126891 
" style="fill:none;stroke:#000000;stroke-linecap:round;"/>
    <path d="M 767.850914 359.284868 
L 775.933448 356.663297 
L 773.181184 364.702268 
" style="fill:none;stroke:#000000;stroke-linecap:round;"/>
   </g>
   <g id="text_3">
    <!-- $\theta$ -->
    <defs>
     <path d="M 49.40625 51.09375 
Q 49.40625 39.59375 45.703125 29.09375 
Q 42 18.59375 36 10.59375 
Q 27.203125 -1.09375 15.5 -1.09375 
Q 9.5 -1.09375 6.09375 3.5 
Q 2.703125 8.09375 2.703125 16.09375 
Q 2.703125 31.203125 9.25 43.953125 
Q 15.796875 56.703125 24.90625 63.59375 
Q 30.5 67.796875 37.09375 67.796875 
Q 42.703125 67.796875 46.046875 63.6875 
Q 49.40625 59.59375 49.40625 51.09375 
z
M 14.703125 34.703125 
L 38 34.703125 
Q 41 44.90625 41 55.203125 
Q 41 65.703125 35.703125 65.703125 
Q 31.703125 65.703125 27 59.59375 
Q 22.296875 53.5 19.25 46.75 
Q 16.203125 40 14.703125 34.703125 
z
M 37.296875 31.5 
L 14 31.5 
Q 11.09375 23.90625 11.09375 15 
Q 11.09375 1 16.703125 1 
Q 20.09375 1 23.59375 4.296875 
Q 27.09375 7.59375 29.75 12.59375 
Q 32.40625 17.59375 34.34375 22.5 
Q 36.296875 27.40625 37.296875 31.5 
z
" id="STIXGeneral-Italic-952"/>
    </defs>
    <g transform="translate(701.081555 406.923264)scale(0.19 -0.19)">
     <use transform="translate(0 0.203125)" xlink:href="#STIXGeneral-Italic-952"/>
    </g>
   </g>
   <g id="patch_9">
    <path d="M 183.251613 243.562377 
Q 183.251613 288.576234 183.251613 334.708126 
" style="fill:none;stroke:#000000;stroke-linecap:round;"/>
    <path d="M 179.451613 251.162377 
L 183.251613 243.562377 
L 187.051613 251.162377 
" style="fill:none;stroke:#000000;stroke-linecap:round;"/>
   </g>
   <g id="text_4">
    <!-- Lift -->
    <defs>
     <path d="M 59.796875 17.40625 
L 55 0 
L 1.203125 0 
L 1.203125 1.90625 
Q 6.703125 2.203125 8.296875 4 
Q 9.90625 5.796875 9.90625 11.5 
L 9.90625 54.59375 
Q 9.90625 60.5 8.453125 62.203125 
Q 7 63.90625 1.203125 64.296875 
L 1.203125 66.203125 
L 29.5 66.203125 
L 29.5 64.296875 
Q 23.40625 63.90625 21.75 62.25 
Q 20.09375 60.59375 20.09375 54.796875 
L 20.09375 8.40625 
Q 20.09375 5.59375 21.84375 4.75 
Q 23.59375 3.90625 29.09375 3.90625 
L 36.09375 3.90625 
Q 48.203125 3.90625 53 10 
Q 55 12.703125 57.203125 17.40625 
z
" id="STIXGeneral-Regular-76"/>
     <path d="M 18 63.203125 
Q 18 61 16.5 59.546875 
Q 15 58.09375 12.796875 58.09375 
Q 10.703125 58.09375 9.25 59.546875 
Q 7.796875 61 7.796875 63.203125 
Q 7.796875 65.296875 9.296875 66.796875 
Q 10.796875 68.296875 12.90625 68.296875 
Q 15.09375 68.296875 16.546875 66.796875 
Q 18 65.296875 18 63.203125 
z
M 25.296875 0 
L 1.59375 0 
L 1.59375 1.5 
Q 6.796875 1.796875 8.140625 3.296875 
Q 9.5 4.796875 9.5 10.40625 
L 9.5 33.09375 
Q 9.5 36.59375 8.796875 38 
Q 8.09375 39.40625 6.203125 39.40625 
Q 3.796875 39.40625 2 38.90625 
L 2 40.5 
L 17.5 46 
L 17.90625 45.59375 
L 17.90625 10.5 
Q 17.90625 4.90625 19.15625 3.40625 
Q 20.40625 1.90625 25.296875 1.5 
z
" id="STIXGeneral-Regular-105"/>
     <path d="M 2.09375 45 
L 10.296875 45 
Q 10.40625 51 11.09375 54.34375 
Q 11.796875 57.703125 13.796875 61.09375 
Q 18 68.296875 27.90625 68.296875 
Q 32.40625 68.296875 35.34375 66.546875 
Q 38.296875 64.796875 38.296875 62.09375 
Q 38.296875 60.40625 37.09375 59.203125 
Q 35.90625 58 34.09375 58 
Q 31.703125 58 29.59375 61.59375 
Q 27.203125 65.5 24.296875 65.5 
Q 18.703125 65.5 18.703125 56.59375 
L 18.703125 45 
L 30.90625 45 
L 30.90625 41.796875 
L 18.703125 41.796875 
L 18.703125 10.40625 
Q 18.703125 4.796875 20.296875 3.25 
Q 21.90625 1.703125 28 1.5 
L 28 0 
L 2 0 
L 2 1.5 
Q 7.40625 1.796875 8.84375 3.34375 
Q 10.296875 4.90625 10.296875 10.40625 
L 10.296875 41.796875 
L 2.09375 41.796875 
z
" id="STIXGeneral-Regular-102"/>
     <path d="M 26.59375 7.703125 
L 27.90625 6.59375 
Q 23.09375 -1 15.796875 -1 
Q 7 -1 7 11.703125 
L 7 41.796875 
L 1.703125 41.796875 
Q 1.296875 42.09375 1.296875 42.5 
Q 1.296875 43.296875 3 44.40625 
Q 6.796875 46.59375 12.703125 55.09375 
Q 12.90625 55.40625 13.65625 56.34375 
Q 14.40625 57.296875 14.703125 57.90625 
Q 15.40625 57.90625 15.40625 56.59375 
L 15.40625 45 
L 25.5 45 
L 25.5 41.796875 
L 15.40625 41.796875 
L 15.40625 13.203125 
Q 15.40625 8.40625 16.59375 6.296875 
Q 17.796875 4.203125 20.59375 4.203125 
Q 23.59375 4.203125 26.59375 7.703125 
z
" id="STIXGeneral-Regular-116"/>
    </defs>
    <g transform="translate(169.003097 234.318342)scale(0.19 -0.19)">
     <use xlink:href="#STIXGeneral-Regular-76"/>
     <use x="61.099991" xlink:href="#STIXGeneral-Regular-105"/>
     <use x="88.899979" xlink:href="#STIXGeneral-Regular-102"/>
     <use x="122.199966" xlink:href="#STIXGeneral-Regular-116"/>
    </g>
   </g>
   <g id="patch_10">
    <path d="M 102.841497 334.408065 
Q 142.638233 334.408065 183.553004 334.408065 
" style="fill:none;stroke:#000000;stroke-linecap:round;"/>
    <path d="M 110.441497 338.208065 
L 102.841497 334.408065 
L 110.441497 330.608065 
" style="fill:none;stroke:#000000;stroke-linecap:round;"/>
   </g>
   <g id="text_5">
    <!-- Drag -->
    <defs>
     <path d="M 1.59375 66.203125 
L 28.59375 66.203125 
Q 48.09375 66.203125 58.59375 57.09375 
Q 68.5 48.59375 68.5 33.40625 
Q 68.5 15.09375 54.90625 6.40625 
Q 45 0 29.703125 0 
L 1.59375 0 
L 1.59375 1.90625 
Q 7.40625 2.296875 8.90625 3.9375 
Q 10.40625 5.59375 10.40625 11.5 
L 10.40625 55 
Q 10.40625 60.796875 8.90625 62.34375 
Q 7.40625 63.90625 1.59375 64.296875 
z
M 20.59375 58.296875 
L 20.59375 8.40625 
Q 20.59375 5.703125 21.546875 4.703125 
Q 22.5 3.703125 25.40625 3.703125 
Q 33.203125 3.703125 38 4.796875 
Q 42.796875 5.90625 47.203125 8.90625 
Q 57.59375 15.90625 57.59375 32.796875 
Q 57.59375 47.296875 48.09375 55.59375 
Q 43.796875 59.40625 38.6875 60.953125 
Q 33.59375 62.5 25.90625 62.5 
Q 23 62.5 21.796875 61.59375 
Q 20.59375 60.703125 20.59375 58.296875 
z
" id="STIXGeneral-Regular-68"/>
     <path d="M 16 45.796875 
L 16 36.59375 
Q 19.796875 42 22.34375 44 
Q 24.90625 46 28 46 
Q 30.59375 46 32.046875 44.59375 
Q 33.5 43.203125 33.5 40.703125 
Q 33.5 38.59375 32.453125 37.390625 
Q 31.40625 36.203125 29.59375 36.203125 
Q 27.703125 36.203125 25.59375 38.203125 
Q 24 39.703125 23 39.703125 
Q 20.90625 39.703125 18.453125 36.796875 
Q 16 33.90625 16 31.5 
L 16 9 
Q 16 4.703125 17.703125 3.203125 
Q 19.40625 1.703125 24.5 1.5 
L 24.5 0 
L 0.5 0 
L 0.5 1.5 
Q 5.296875 2.40625 6.4375 3.5 
Q 7.59375 4.59375 7.59375 8.40625 
L 7.59375 33.40625 
Q 7.59375 36.703125 6.84375 38.046875 
Q 6.09375 39.40625 4.203125 39.40625 
Q 2.59375 39.40625 0.703125 39 
L 0.703125 40.59375 
Q 7 42.59375 15.5 46 
z
" id="STIXGeneral-Regular-114"/>
     <path d="M 44.203125 6.59375 
L 44.203125 3.796875 
Q 40.40625 -1 35.203125 -1 
Q 29.5 -1 28.796875 6.296875 
L 28.703125 6.296875 
Q 22.296875 -1 14.203125 -1 
Q 9.5 -1 6.59375 1.75 
Q 3.703125 4.5 3.703125 9.40625 
Q 3.703125 16.40625 10.703125 21.09375 
Q 15.5 24.296875 28.703125 29.203125 
L 28.703125 34.59375 
Q 28.703125 39.09375 26.546875 41.34375 
Q 24.40625 43.59375 20.90625 43.59375 
Q 17.90625 43.59375 15.90625 42.140625 
Q 13.90625 40.703125 13.90625 38.703125 
Q 13.90625 37.796875 14.203125 36.6875 
Q 14.5 35.59375 14.5 34.5 
Q 14.5 33 13.140625 31.703125 
Q 11.796875 30.40625 9.90625 30.40625 
Q 8.203125 30.40625 6.890625 31.703125 
Q 5.59375 33 5.59375 35 
Q 5.59375 39.796875 10.703125 43 
Q 15.40625 46 22.203125 46 
Q 30.296875 46 34 41.5 
Q 35.796875 39.40625 36.296875 37.25 
Q 36.796875 35.09375 36.796875 30.40625 
L 36.796875 11.296875 
Q 36.796875 4.703125 39.90625 4.703125 
Q 41.90625 4.703125 44.203125 6.59375 
z
M 28.703125 12.703125 
L 28.703125 26.796875 
Q 19.5 23.59375 15.90625 20.203125 
Q 12.5 17.09375 12.5 12.5 
Q 12.5 8.703125 14.390625 6.75 
Q 16.296875 4.796875 19.40625 4.796875 
Q 22.703125 4.796875 25.203125 6.40625 
Q 27.296875 7.90625 28 9.203125 
Q 28.703125 10.5 28.703125 12.703125 
z
" id="STIXGeneral-Regular-97"/>
     <path d="M 47 38.796875 
L 38.703125 38.796875 
Q 40.59375 34.5 40.59375 30.40625 
Q 40.59375 22.703125 35.390625 18.796875 
Q 30.203125 14.90625 25 14.90625 
Q 23.90625 14.90625 21.203125 15.203125 
L 19.296875 15.40625 
Q 17.296875 14.796875 15.296875 12.6875 
Q 13.296875 10.59375 13.296875 9.09375 
Q 13.296875 6.796875 21.09375 6.40625 
L 34 5.796875 
Q 39.5 5.59375 42.796875 2.6875 
Q 46.09375 -0.203125 46.09375 -4.90625 
Q 46.09375 -10.703125 40.09375 -15.40625 
Q 31.796875 -21.796875 20.09375 -21.796875 
Q 12.90625 -21.796875 7.84375 -18.9375 
Q 2.796875 -16.09375 2.796875 -12.09375 
Q 2.796875 -9.296875 5 -6.546875 
Q 7.203125 -3.796875 12.59375 0.09375 
Q 9.40625 1.59375 8.34375 2.6875 
Q 7.296875 3.796875 7.296875 5.40625 
Q 7.296875 8.296875 11.90625 12.296875 
Q 14.203125 14.296875 16.203125 16.296875 
Q 11.203125 18.796875 9.046875 21.890625 
Q 6.90625 25 6.90625 29.703125 
Q 6.90625 36.5 11.75 41.25 
Q 16.59375 46 23.59375 46 
Q 27.59375 46 31.59375 44.5 
L 33.796875 43.703125 
Q 36.703125 42.703125 39.296875 42.703125 
L 47 42.703125 
z
M 15.203125 33.796875 
L 15.203125 33.5 
Q 15.203125 26.296875 18.046875 21.84375 
Q 20.90625 17.40625 25.5 17.40625 
Q 28.90625 17.40625 30.90625 19.84375 
Q 32.90625 22.296875 32.90625 26.40625 
Q 32.90625 33 29.90625 38.5 
Q 27.40625 43.203125 22.59375 43.203125 
Q 19.09375 43.203125 17.140625 40.703125 
Q 15.203125 38.203125 15.203125 33.796875 
z
M 43.296875 -6.40625 
Q 43.296875 -3.59375 40.546875 -2.546875 
Q 37.796875 -1.5 30.90625 -1.5 
Q 21 -1.5 14.703125 -0.203125 
Q 11.703125 -3.796875 10.75 -5.4375 
Q 9.796875 -7.09375 9.796875 -8.796875 
Q 9.796875 -12.09375 13.75 -14.09375 
Q 17.703125 -16.09375 24.296875 -16.09375 
Q 32.796875 -16.09375 38.046875 -13.4375 
Q 43.296875 -10.796875 43.296875 -6.40625 
z
" id="STIXGeneral-Regular-103"/>
    </defs>
    <g transform="translate(59.74439 338.816658)scale(0.19 -0.19)">
     <use xlink:href="#STIXGeneral-Regular-68"/>
     <use x="72.199982" xlink:href="#STIXGeneral-Regular-114"/>
     <use x="105.499969" xlink:href="#STIXGeneral-Regular-97"/>
     <use x="149.899963" xlink:href="#STIXGeneral-Regular-103"/>
    </g>
   </g>
   <g id="patch_11">
    <path d="M 754.974434 224.666129 
Q 705.210245 224.666129 654.328022 224.666129 
" style="fill:none;stroke:#000000;stroke-dasharray:6.4,1.6,1,1.6;stroke-dashoffset:0;stroke-linecap:round;"/>
    <path d="M 747.374434 220.866129 
L 754.974434 224.666129 
L 747.374434 228.466129 
" style="fill:none;stroke:#000000;stroke-dasharray:6.4,1.6,1,1.6;stroke-dashoffset:0;stroke-linecap:round;"/>
   </g>
   <g id="text_6">
    <!-- Pitch rotation -->
    <defs>
     <path d="M 1.59375 66.203125 
L 27.5 66.203125 
Q 41.703125 66.203125 49.203125 59.90625 
Q 54.203125 55.703125 54.203125 48 
Q 54.203125 40 48.5 34.90625 
Q 44.296875 31.09375 39.890625 29.9375 
Q 35.5 28.796875 27.09375 28.796875 
Q 24.203125 28.796875 20.203125 29.09375 
L 20.203125 11.203125 
Q 20.203125 5.5 21.84375 3.84375 
Q 23.5 2.203125 29.59375 1.90625 
L 29.59375 0 
L 1.59375 0 
L 1.59375 1.90625 
Q 7.40625 2.296875 8.703125 4 
Q 10 5.703125 10 12.203125 
L 10 55.09375 
Q 10 60.703125 8.546875 62.296875 
Q 7.09375 63.90625 1.59375 64.296875 
z
M 20.203125 58.90625 
L 20.203125 33.09375 
Q 23.59375 32.796875 26.296875 32.796875 
Q 34.40625 32.796875 38.84375 36.75 
Q 43.296875 40.703125 43.296875 47.5 
Q 43.296875 55.59375 38.6875 59.046875 
Q 34.09375 62.5 23.703125 62.5 
Q 21.59375 62.5 20.890625 61.75 
Q 20.203125 61 20.203125 58.90625 
z
" id="STIXGeneral-Regular-80"/>
     <path d="M 39.796875 15.59375 
L 41.203125 14.703125 
Q 36.90625 6.296875 33 3.203125 
Q 27.90625 -1 21.5 -1 
Q 13.203125 -1 7.84375 5.25 
Q 2.5 11.5 2.5 21.203125 
Q 2.5 33.90625 10.90625 40.90625 
Q 17.09375 46 24.40625 46 
Q 30.703125 46 35.25 42.953125 
Q 39.796875 39.90625 39.796875 35.703125 
Q 39.796875 34 38.390625 32.75 
Q 37 31.5 35.09375 31.5 
Q 31.59375 31.5 30.296875 36.09375 
L 29.703125 38.296875 
Q 28.90625 41.09375 27.703125 42.09375 
Q 26.5 43.09375 23.796875 43.09375 
Q 17.703125 43.09375 13.953125 38.296875 
Q 10.203125 33.5 10.203125 25.703125 
Q 10.203125 17.09375 14.5 11.640625 
Q 18.796875 6.203125 25.703125 6.203125 
Q 30 6.203125 33.09375 8.25 
Q 36.203125 10.296875 39.796875 15.59375 
z
" id="STIXGeneral-Regular-99"/>
     <path d="M 48.703125 0 
L 27.5 0 
L 27.5 1.5 
Q 31.90625 2 33.09375 3.5 
Q 34.296875 5 34.296875 10.203125 
L 34.296875 30 
Q 34.296875 40.59375 26.90625 40.59375 
Q 23.90625 40.59375 21.40625 39.1875 
Q 18.90625 37.796875 15.703125 34.296875 
L 15.703125 10.203125 
Q 15.703125 5 16.890625 3.5 
Q 18.09375 2 22.5 1.5 
L 22.5 0 
L 0.90625 0 
L 0.90625 1.5 
Q 5.203125 2.09375 6.25 3.5 
Q 7.296875 4.90625 7.296875 10.203125 
L 7.296875 57.296875 
Q 7.296875 60.5 6.34375 61.453125 
Q 5.40625 62.40625 2.203125 62.40625 
Q 1.296875 62.40625 1 62.296875 
L 1 63.90625 
L 3.703125 64.703125 
Q 11.40625 67 15.203125 68.296875 
L 15.703125 68 
L 15.703125 37.59375 
Q 19.203125 42.09375 22.59375 44.046875 
Q 26 46 30.40625 46 
Q 42.703125 46 42.703125 30.09375 
L 42.703125 10.203125 
Q 42.703125 5 43.640625 3.640625 
Q 44.59375 2.296875 48.703125 1.5 
z
" id="STIXGeneral-Regular-104"/>
     <path id="STIXGeneral-Regular-32"/>
     <path d="M 47 23.09375 
Q 47 12.59375 40.75 5.796875 
Q 34.5 -1 24.5 -1 
Q 15.296875 -1 9.09375 5.75 
Q 2.90625 12.5 2.90625 22.796875 
Q 2.90625 33.203125 9.09375 39.59375 
Q 15.296875 46 25.40625 46 
Q 34.703125 46 40.84375 39.640625 
Q 47 33.296875 47 23.09375 
z
M 38 20.40625 
Q 38 31.796875 33 38.203125 
Q 29 43.203125 23.5 43.203125 
Q 18.296875 43.203125 15.09375 38.953125 
Q 11.90625 34.703125 11.90625 27.296875 
Q 11.90625 14.5 17.203125 6.796875 
Q 20.59375 1.796875 26.203125 1.796875 
Q 31.703125 1.796875 34.84375 6.75 
Q 38 11.703125 38 20.40625 
z
" id="STIXGeneral-Regular-111"/>
     <path d="M 48.5 0 
L 27.703125 0 
L 27.796875 1.5 
Q 31.5 1.796875 32.75 3.640625 
Q 34 5.5 34 10.5 
L 34 30.40625 
Q 34 40.5 26.703125 40.5 
Q 24.203125 40.5 22 39.296875 
Q 19.796875 38.09375 16.40625 34.796875 
L 16.40625 7.203125 
Q 16.40625 4.203125 17.75 3 
Q 19.09375 1.796875 22.90625 1.5 
L 22.90625 0 
L 1.796875 0 
L 1.796875 1.5 
Q 5.59375 1.796875 6.796875 3.34375 
Q 8 4.90625 8 9.40625 
L 8 33.703125 
Q 8 37.40625 7.296875 38.796875 
Q 6.59375 40.203125 4.5 40.203125 
Q 2.5 40.203125 1.59375 39.796875 
L 1.59375 41.5 
Q 8.59375 43.5 15.296875 46 
L 16.09375 45.703125 
L 16.09375 37.90625 
L 16.203125 37.90625 
Q 23.296875 46 30.59375 46 
Q 36.296875 46 39.34375 42 
Q 42.40625 38 42.40625 30.59375 
L 42.40625 8.5 
Q 42.40625 4.5 43.59375 3.203125 
Q 44.796875 1.90625 48.5 1.5 
z
" id="STIXGeneral-Regular-110"/>
    </defs>
    <g transform="translate(653.739412 215.505439)scale(0.19 -0.19)">
     <use xlink:href="#STIXGeneral-Regular-80"/>
     <use x="55.699997" xlink:href="#STIXGeneral-Regular-105"/>
     <use x="83.499985" xlink:href="#STIXGeneral-Regular-116"/>
     <use x="111.299973" xlink:href="#STIXGeneral-Regular-99"/>
     <use x="155.699966" xlink:href="#STIXGeneral-Regular-104"/>
     <use x="205.699951" xlink:href="#STIXGeneral-Regular-32"/>
     <use x="230.699936" xlink:href="#STIXGeneral-Regular-114"/>
     <use x="263.999924" xlink:href="#STIXGeneral-Regular-111"/>
     <use x="313.999908" xlink:href="#STIXGeneral-Regular-116"/>
     <use x="341.799896" xlink:href="#STIXGeneral-Regular-97"/>
     <use x="386.19989" xlink:href="#STIXGeneral-Regular-116"/>
     <use x="413.999878" xlink:href="#STIXGeneral-Regular-105"/>
     <use x="441.799866" xlink:href="#STIXGeneral-Regular-111"/>
     <use x="491.79985" xlink:href="#STIXGeneral-Regular-110"/>
    </g>
   </g>
   <g id="patch_12">
    <path d="M 501.52077 334.408065 
Q 370.074915 334.408065 237.511026 334.408065 
" style="fill:none;stroke:#000000;stroke-dasharray:6.4,1.6,1,1.6;stroke-dashoffset:0;stroke-linecap:round;"/>
    <path d="M 493.92077 330.608065 
L 501.52077 334.408065 
L 493.92077 338.208065 
" style="fill:none;stroke:#000000;stroke-dasharray:6.4,1.6,1,1.6;stroke-dashoffset:0;stroke-linecap:round;"/>
   </g>
   <g id="text_7">
    <!-- Plate translation -->
    <defs>
     <path d="M 25.703125 0 
L 2.09375 0 
L 2.09375 1.5 
Q 6.796875 1.90625 8.296875 3.453125 
Q 9.796875 5 9.796875 9.203125 
L 9.796875 56.09375 
Q 9.796875 59.703125 8.890625 61.09375 
Q 8 62.5 5.59375 62.5 
Q 3.5 62.5 1.90625 62.296875 
L 1.90625 63.90625 
Q 11.40625 66.203125 17.703125 68.296875 
L 18.203125 67.90625 
L 18.203125 8.703125 
Q 18.203125 4.5 19.59375 3.140625 
Q 21 1.796875 25.703125 1.5 
z
" id="STIXGeneral-Regular-108"/>
     <path d="M 40.796875 16.40625 
L 42.40625 15.703125 
Q 36.40625 -1 21.5 -1 
Q 12.703125 -1 7.59375 5.140625 
Q 2.5 11.296875 2.5 21.703125 
Q 2.5 32.40625 8.203125 39.203125 
Q 13.90625 46 23.203125 46 
Q 32.203125 46 37.09375 39.09375 
Q 40 35.09375 40.5 27.703125 
L 9.703125 27.703125 
Q 10.09375 21.40625 10.9375 18.09375 
Q 11.796875 14.796875 14.296875 11.40625 
Q 18.5 5.90625 25.40625 5.90625 
Q 30.296875 5.90625 33.640625 8.296875 
Q 37 10.703125 40.796875 16.40625 
z
M 9.90625 30.90625 
L 30.296875 30.90625 
Q 29.40625 37.203125 27.34375 39.796875 
Q 25.296875 42.40625 20.5 42.40625 
Q 16.296875 42.40625 13.5 39.453125 
Q 10.703125 36.5 9.90625 30.90625 
z
" id="STIXGeneral-Regular-101"/>
     <path d="M 15.59375 30.09375 
L 26 23.796875 
Q 31 20.796875 32.890625 18.1875 
Q 34.796875 15.59375 34.796875 11.5 
Q 34.796875 6.5 30.640625 2.75 
Q 26.5 -1 20.796875 -1 
Q 16.09375 -1 13.5 -0.09375 
Q 10.796875 0.796875 8.90625 0.796875 
Q 7.203125 0.796875 6.5 -0.40625 
L 5.203125 -0.40625 
L 5.203125 15.296875 
L 6.796875 15.296875 
Q 8.40625 8 11.40625 4.59375 
Q 14.40625 1.203125 19.5 1.203125 
Q 23.203125 1.203125 25.5 3.296875 
Q 27.796875 5.40625 27.796875 8.59375 
Q 27.796875 13.203125 22.5 16.09375 
L 17.09375 19.09375 
Q 5.09375 25.796875 5.09375 33.59375 
Q 5.09375 39.40625 8.84375 42.65625 
Q 12.59375 45.90625 18.90625 45.90625 
Q 23.296875 45.90625 25.59375 44.796875 
Q 27.40625 44 28.40625 44 
Q 29.09375 44 30 45 
L 31.09375 45 
L 31.59375 31.40625 
L 30.09375 31.40625 
Q 28.40625 38.203125 25.84375 40.953125 
Q 23.296875 43.703125 18.796875 43.703125 
Q 15.40625 43.703125 13.34375 42 
Q 11.296875 40.296875 11.296875 36.90625 
Q 11.296875 35.203125 12.4375 33.25 
Q 13.59375 31.296875 15.59375 30.09375 
z
" id="STIXGeneral-Regular-115"/>
    </defs>
    <g transform="translate(435.305313 325.247374)scale(0.19 -0.19)">
     <use xlink:href="#STIXGeneral-Regular-80"/>
     <use x="55.699997" xlink:href="#STIXGeneral-Regular-108"/>
     <use x="83.499985" xlink:href="#STIXGeneral-Regular-97"/>
     <use x="127.899979" xlink:href="#STIXGeneral-Regular-116"/>
     <use x="155.699966" xlink:href="#STIXGeneral-Regular-101"/>
     <use x="200.09996" xlink:href="#STIXGeneral-Regular-32"/>
     <use x="225.099945" xlink:href="#STIXGeneral-Regular-116"/>
     <use x="252.899933" xlink:href="#STIXGeneral-Regular-114"/>
     <use x="286.199921" xlink:href="#STIXGeneral-Regular-97"/>
     <use x="330.599915" xlink:href="#STIXGeneral-Regular-110"/>
     <use x="380.599899" xlink:href="#STIXGeneral-Regular-115"/>
     <use x="419.499893" xlink:href="#STIXGeneral-Regular-108"/>
     <use x="447.299881" xlink:href="#STIXGeneral-Regular-97"/>
     <use x="491.699875" xlink:href="#STIXGeneral-Regular-116"/>
     <use x="519.499863" xlink:href="#STIXGeneral-Regular-105"/>
     <use x="547.29985" xlink:href="#STIXGeneral-Regular-111"/>
     <use x="597.299835" xlink:href="#STIXGeneral-Regular-110"/>
    </g>
   </g>
   <g id="patch_13">
    <path d="M 756.092849 334.408065 
Q 627.445439 334.408065 498.79803 334.408065 
" style="fill:none;stroke:#000000;stroke-dasharray:6.4,1.6,1,1.6;stroke-dashoffset:0;stroke-linecap:round;"/>
   </g>
  </g>
 </g>
 <defs>
  <clipPath id="p5bfe55e7e0">
   <rect height="313.548387" width="648" x="172.8" y="125.375806"/>
  </clipPath>
 </defs>
</svg>
