<?xml version="1.0" encoding="utf-8" standalone="no"?>
<!DOCTYPE svg PUBLIC "-//W3C//DTD SVG 1.1//EN"
  "http://www.w3.org/Graphics/SVG/1.1/DTD/svg11.dtd">
<!-- Created with matplotlib (https://matplotlib.org/) -->
<svg height="594pt" version="1.1" viewBox="0 0 864 594" width="864pt" xmlns="http://www.w3.org/2000/svg" xmlns:xlink="http://www.w3.org/1999/xlink">
 <defs>
  <style type="text/css">
*{stroke-linecap:butt;stroke-linejoin:round;}
  </style>
 </defs>
 <g id="figure_1">
  <g id="patch_1">
   <path d="M 0 594 
L 864 594 
L 864 0 
L 0 0 
z
" style="fill:#ffffff;"/>
  </g>
  <g id="axes_1">
   <g id="patch_2">
    <path d="M 172.8 225.506587 
L 411.694009 225.506587 
L 411.694009 118.8 
L 172.8 118.8 
z
" style="fill:#ffffff;"/>
   </g>
   <g id="matplotlib.axis_1">
    <g id="xtick_1">
     <g id="line2d_1">
      <defs>
       <path d="M 0 0 
L 0 3.5 
" id="md86eeb2c23" style="stroke:#000000;stroke-width:0.8;"/>
      </defs>
      <g>
       <use style="fill:#ffffff;stroke:#000000;stroke-width:0.8;" x="172.8" xlink:href="#md86eeb2c23" y="225.506587"/>
      </g>
     </g>
    </g>
    <g id="xtick_2">
     <g id="line2d_2">
      <g>
       <use style="fill:#ffffff;stroke:#000000;stroke-width:0.8;" x="232.523502" xlink:href="#md86eeb2c23" y="225.506587"/>
      </g>
     </g>
    </g>
    <g id="xtick_3">
     <g id="line2d_3">
      <g>
       <use style="fill:#ffffff;stroke:#000000;stroke-width:0.8;" x="292.247005" xlink:href="#md86eeb2c23" y="225.506587"/>
      </g>
     </g>
    </g>
    <g id="xtick_4">
     <g id="line2d_4">
      <g>
       <use style="fill:#ffffff;stroke:#000000;stroke-width:0.8;" x="351.970507" xlink:href="#md86eeb2c23" y="225.506587"/>
      </g>
     </g>
    </g>
    <g id="xtick_5">
     <g id="line2d_5">
      <g>
       <use style="fill:#ffffff;stroke:#000000;stroke-width:0.8;" x="411.694009" xlink:href="#md86eeb2c23" y="225.506587"/>
      </g>
     </g>
    </g>
   </g>
   <g id="matplotlib.axis_2">
    <g id="ytick_1">
     <g id="line2d_6">
      <defs>
       <path d="M 0 0 
L -3.5 0 
" id="mb12d6a9a74" style="stroke:#000000;stroke-width:0.8;"/>
      </defs>
      <g>
       <use style="fill:#ffffff;stroke:#000000;stroke-width:0.8;" x="172.8" xlink:href="#mb12d6a9a74" y="220.656287"/>
      </g>
     </g>
     <g id="text_1">
      <!-- 0.0 -->
      <defs>
       <path d="M 47.59375 33 
Q 47.59375 26.296875 46.296875 20.34375 
Q 45 14.40625 42.453125 9.40625 
Q 39.90625 4.40625 35.40625 1.5 
Q 30.90625 -1.40625 25 -1.40625 
Q 18.90625 -1.40625 14.296875 1.6875 
Q 9.703125 4.796875 7.203125 10 
Q 4.703125 15.203125 3.546875 21.09375 
Q 2.40625 27 2.40625 33.59375 
Q 2.40625 42.90625 4.703125 50.34375 
Q 7 57.796875 12.34375 62.6875 
Q 17.703125 67.59375 25.40625 67.59375 
Q 35.203125 67.59375 41.390625 58 
Q 47.59375 48.40625 47.59375 33 
z
M 38 32.5 
Q 38 48.296875 34.640625 56.640625 
Q 31.296875 65 24.796875 65 
Q 18.59375 65 15.296875 56.59375 
Q 12 48.203125 12 32.90625 
Q 12 17.5 15.296875 9.34375 
Q 18.59375 1.203125 25 1.203125 
Q 31.296875 1.203125 34.640625 9.34375 
Q 38 17.5 38 32.5 
z
" id="STIXGeneral-Regular-48"/>
       <path d="M 18.09375 4.296875 
Q 18.09375 2.09375 16.4375 0.5 
Q 14.796875 -1.09375 12.5 -1.09375 
Q 10.203125 -1.09375 8.59375 0.5 
Q 7 2.09375 7 4.390625 
Q 7 6.703125 8.640625 8.34375 
Q 10.296875 10 12.59375 10 
Q 14.796875 10 16.4375 8.296875 
Q 18.09375 6.59375 18.09375 4.296875 
z
" id="STIXGeneral-Regular-46"/>
      </defs>
      <g transform="translate(148.3 225.437069)scale(0.14 -0.14)">
       <use xlink:href="#STIXGeneral-Regular-48"/>
       <use x="49.999985" xlink:href="#STIXGeneral-Regular-46"/>
       <use x="74.999969" xlink:href="#STIXGeneral-Regular-48"/>
      </g>
     </g>
    </g>
    <g id="ytick_2">
     <g id="line2d_7">
      <g>
       <use style="fill:#ffffff;stroke:#000000;stroke-width:0.8;" x="172.8" xlink:href="#mb12d6a9a74" y="172.153293"/>
      </g>
     </g>
     <g id="text_2">
      <!-- 0.5 -->
      <defs>
       <path d="M 43.796875 68.09375 
L 40.203125 59.59375 
Q 39.59375 58.296875 37.5 58.296875 
L 18.09375 58.296875 
L 14.09375 49.796875 
Q 25.09375 47.703125 30 45.25 
Q 34.90625 42.796875 39.09375 37 
Q 42.59375 32.203125 42.59375 24.296875 
Q 42.59375 17.09375 40.25 12.1875 
Q 37.90625 7.296875 32.796875 3.5 
Q 26 -1.40625 15.796875 -1.40625 
Q 10.09375 -1.40625 6.59375 0.296875 
Q 3.09375 2 3.09375 4.796875 
Q 3.09375 8.59375 7.59375 8.59375 
Q 11.203125 8.59375 15 5.5 
Q 18.90625 2.296875 22.09375 2.296875 
Q 27.296875 2.296875 31.4375 7.5 
Q 35.59375 12.703125 35.59375 19.203125 
Q 35.59375 28.796875 28.90625 34.203125 
Q 20.203125 41.203125 7.59375 41.203125 
Q 6.40625 41.203125 6.40625 42 
L 6.5 42.5 
L 17.40625 66.203125 
L 38.09375 66.203125 
Q 39.796875 66.203125 40.75 66.703125 
Q 41.703125 67.203125 42.90625 68.796875 
z
" id="STIXGeneral-Regular-53"/>
      </defs>
      <g transform="translate(148.3 176.934075)scale(0.14 -0.14)">
       <use xlink:href="#STIXGeneral-Regular-48"/>
       <use x="49.999985" xlink:href="#STIXGeneral-Regular-46"/>
       <use x="74.999969" xlink:href="#STIXGeneral-Regular-53"/>
      </g>
     </g>
    </g>
    <g id="ytick_3">
     <g id="line2d_8">
      <g>
       <use style="fill:#ffffff;stroke:#000000;stroke-width:0.8;" x="172.8" xlink:href="#mb12d6a9a74" y="123.650299"/>
      </g>
     </g>
     <g id="text_3">
      <!-- 1.0 -->
      <defs>
       <path d="M 39.40625 0 
L 11.796875 0 
L 11.796875 1.5 
Q 17.296875 1.796875 19.296875 3.546875 
Q 21.296875 5.296875 21.296875 9.5 
L 21.296875 54.40625 
Q 21.296875 59.296875 18.296875 59.296875 
Q 16.90625 59.296875 13.796875 58.09375 
L 11.09375 57.09375 
L 11.09375 58.5 
L 29 67.59375 
L 29.90625 67.296875 
L 29.90625 7.59375 
Q 29.90625 4.296875 31.90625 2.890625 
Q 33.90625 1.5 39.40625 1.5 
z
" id="STIXGeneral-Regular-49"/>
      </defs>
      <g transform="translate(148.3 128.431081)scale(0.14 -0.14)">
       <use xlink:href="#STIXGeneral-Regular-49"/>
       <use x="49.999985" xlink:href="#STIXGeneral-Regular-46"/>
       <use x="74.999969" xlink:href="#STIXGeneral-Regular-48"/>
      </g>
     </g>
    </g>
   </g>
   <g id="line2d_9">
    <path clip-path="url(#p672609bf38)" d="M 172.8 220.582814 
L 173.636451 220.366578 
L 174.114423 220.037527 
L 174.592394 219.388949 
L 175.070366 218.236175 
L 175.548338 216.458539 
L 176.265296 212.755373 
L 177.579719 204.404264 
L 184.988283 154.344237 
L 188.573071 130.833259 
L 189.290029 127.321987 
L 189.887494 125.410168 
L 190.365466 124.538641 
L 190.843438 124.07772 
L 191.440902 123.817306 
L 192.396846 123.69034 
L 195.264678 123.658016 
L 265.885018 123.656904 
L 273.652061 123.830527 
L 274.249525 124.108791 
L 274.727497 124.602318 
L 275.205469 125.52281 
L 275.683441 127.033231 
L 276.280907 129.779763 
L 277.23685 135.468435 
L 280.224174 155.464619 
L 288.94716 213.696358 
L 289.664118 217.144839 
L 290.261583 218.993103 
L 290.739555 219.823602 
L 291.217527 220.26119 
L 291.814991 220.506565 
L 292.770935 220.625712 
L 295.877752 220.656287 
L 411.785924 220.656287 
L 411.785924 220.656287 
" style="fill:none;stroke:#1f77b4;stroke-linecap:square;stroke-width:4;"/>
   </g>
   <g id="line2d_10">
    <path clip-path="url(#p672609bf38)" d="M 172.8 220.656287 
L 411.785924 220.656287 
L 411.785924 220.656287 
" style="fill:none;stroke:#ff7f0e;stroke-linecap:square;stroke-width:4;"/>
   </g>
   <g id="line2d_11">
    <path clip-path="url(#p672609bf38)" d="M 292.247005 225.506587 
L 292.247005 118.8 
" style="fill:none;stroke:#000000;stroke-linecap:square;stroke-width:0.5;"/>
   </g>
   <g id="patch_3">
    <path d="M 172.8 225.506587 
L 172.8 118.8 
" style="fill:none;stroke:#000000;stroke-linecap:square;stroke-linejoin:miter;stroke-width:0.8;"/>
   </g>
   <g id="patch_4">
    <path d="M 411.694009 225.506587 
L 411.694009 118.8 
" style="fill:none;stroke:#000000;stroke-linecap:square;stroke-linejoin:miter;stroke-width:0.8;"/>
   </g>
   <g id="patch_5">
    <path d="M 172.8 225.506587 
L 411.694009 225.506587 
" style="fill:none;stroke:#000000;stroke-linecap:square;stroke-linejoin:miter;stroke-width:0.8;"/>
   </g>
   <g id="patch_6">
    <path d="M 172.8 118.8 
L 411.694009 118.8 
" style="fill:none;stroke:#000000;stroke-linecap:square;stroke-linejoin:miter;stroke-width:0.8;"/>
   </g>
   <g id="legend_1">
    <g id="line2d_12">
     <path d="M 344.870749 133.3775 
L 368.194749 133.3775 
" style="fill:none;stroke:#1f77b4;stroke-linecap:square;stroke-width:4;"/>
    </g>
    <g id="line2d_13"/>
    <g id="text_4">
     <!-- $u/U_T$ -->
     <defs>
      <path d="M 46.09375 11.90625 
L 47.5 11 
Q 42.703125 3.703125 40 1.390625 
Q 37.296875 -0.90625 33.703125 -0.90625 
Q 28.90625 -0.90625 28.90625 3.90625 
Q 28.90625 8.40625 33.40625 23.59375 
Q 24.5 9 19.640625 3.953125 
Q 14.796875 -1.09375 9.5 -1.09375 
Q 4.203125 -1.09375 4.203125 4.203125 
Q 4.203125 6 6.90625 17 
L 10.40625 30.90625 
Q 11.796875 36.703125 11.796875 37.59375 
Q 11.796875 38.796875 10.6875 39.390625 
Q 9.59375 40 5.703125 40 
L 5.703125 41.40625 
Q 12.59375 42.203125 20.703125 44.09375 
L 21.09375 43.796875 
L 12.203125 8.296875 
Q 11.90625 7.40625 11.90625 6.703125 
Q 11.90625 4.203125 13.90625 4.203125 
Q 18.40625 4.203125 28.09375 18.90625 
Q 31.40625 23.90625 33.25 28.046875 
Q 35.09375 32.203125 39.09375 43.203125 
L 46.5 43.203125 
L 38.59375 13.296875 
Q 36.703125 6.09375 36.703125 5.5 
Q 36.703125 3.796875 37.796875 3.796875 
Q 39 3.796875 40.703125 5.390625 
Q 42.40625 7 46.09375 11.90625 
z
" id="STIXGeneral-Italic-117"/>
      <path d="M 28.703125 67.59375 
L 5.90625 -1.40625 
L -0.90625 -1.40625 
L 22 67.59375 
z
" id="STIXGeneral-Regular-47"/>
      <path d="M 76.5 65.296875 
L 76.5 63.703125 
Q 74.40625 63.203125 73.34375 62.75 
Q 72.296875 62.296875 71.296875 61.640625 
Q 70.296875 61 69.546875 59.203125 
Q 68.796875 57.40625 68.09375 55.296875 
Q 67.40625 53.203125 66.09375 48.796875 
L 57.796875 20.296875 
Q 54.40625 8.703125 48.09375 3.40625 
Q 42.09375 -1.796875 32.296875 -1.796875 
Q 22.5 -1.796875 16.34375 2.796875 
Q 10.203125 7.40625 10.203125 14.59375 
Q 10.203125 20.09375 14.59375 36.203125 
L 19.796875 55.09375 
Q 20.703125 58.296875 20.703125 59.59375 
Q 20.703125 61.59375 18.953125 62.59375 
Q 17.203125 63.59375 12.703125 63.703125 
L 12.703125 65.296875 
L 39.90625 65.296875 
L 39.90625 63.703125 
Q 34.796875 63.203125 32.84375 61.5 
Q 30.90625 59.796875 29.5 54.59375 
L 23.203125 32 
Q 19.203125 17.90625 19.203125 14.09375 
Q 19.203125 8.796875 23.140625 5.546875 
Q 27.09375 2.296875 33 2.296875 
Q 41.40625 2.296875 46.5 7.6875 
Q 51.59375 13.09375 55 25.5 
L 61.40625 48.796875 
Q 63.703125 57.296875 63.703125 59.09375 
Q 63.703125 61.296875 62.203125 62.296875 
Q 60.703125 63.296875 56.703125 63.703125 
L 56.703125 65.296875 
z
" id="STIXGeneral-Italic-85"/>
      <path d="M 63.296875 65.296875 
L 58.90625 48.90625 
L 57.203125 49.09375 
Q 57.5 51.59375 57.5 53.703125 
Q 57.5 61.796875 47.40625 61.796875 
L 41.59375 61.796875 
L 27.90625 12.796875 
Q 26.5 7.90625 26.5 6.203125 
Q 26.5 3.90625 27.59375 3.046875 
Q 28.703125 2.203125 31.796875 1.90625 
L 35.296875 1.59375 
L 35.296875 0 
L 6.5 0 
L 6.5 1.59375 
Q 11.703125 2.09375 13.890625 3.59375 
Q 16.09375 5.09375 17.203125 9.09375 
L 31.5 61.796875 
Q 19.59375 61.796875 15.4375 59.640625 
Q 11.296875 57.5 7.703125 49.40625 
L 5.90625 49.796875 
L 10.09375 65.296875 
z
" id="STIXGeneral-Italic-84"/>
     </defs>
     <g transform="translate(377.524349 137.4592)scale(0.11662 -0.11662)">
      <use transform="translate(0 0.40625)" xlink:href="#STIXGeneral-Italic-117"/>
      <use transform="translate(49.999985 0.40625)" xlink:href="#STIXGeneral-Regular-47"/>
      <use transform="translate(77.799973 0.40625)" xlink:href="#STIXGeneral-Italic-85"/>
      <use transform="translate(149.999954 -12.821875)scale(0.7)" xlink:href="#STIXGeneral-Italic-84"/>
     </g>
    </g>
    <g id="line2d_14">
     <path d="M 344.870749 149.902918 
L 368.194749 149.902918 
" style="fill:none;stroke:#ff7f0e;stroke-linecap:square;stroke-width:4;"/>
    </g>
    <g id="line2d_15"/>
    <g id="text_5">
     <!-- $\.\alpha/\.\alpha_M$ -->
     <defs>
      <path d="M -18.09375 57.203125 
Q -18.09375 55.09375 -19.546875 53.6875 
Q -21 52.296875 -23.09375 52.296875 
Q -25.09375 52.296875 -26.546875 53.75 
Q -28 55.203125 -28 57.203125 
Q -28 59.296875 -26.640625 60.75 
Q -25.296875 62.203125 -23.09375 62.203125 
Q -20.796875 62.203125 -19.4375 60.796875 
Q -18.09375 59.40625 -18.09375 57.203125 
z
" id="STIXGeneral-Regular-775"/>
      <path d="M 54.90625 42.796875 
L 40.703125 16.703125 
L 40.703125 14.90625 
Q 40.703125 11 41.59375 8 
Q 42.5 5 44.09375 5 
Q 46.40625 5 49.203125 12.40625 
L 50.796875 11.703125 
Q 47.09375 -0.90625 40.703125 -0.90625 
Q 35.796875 -0.90625 35.5 9.59375 
Q 26.703125 -1.09375 16.09375 -1.09375 
Q 9.203125 -1.09375 5.953125 3.09375 
Q 2.703125 7.296875 2.703125 14.09375 
Q 2.703125 20.203125 5.140625 26.140625 
Q 7.59375 32.09375 11.796875 36.40625 
Q 15.203125 39.796875 19.84375 41.9375 
Q 24.5 44.09375 29.09375 44.09375 
Q 35.09375 44.09375 38.390625 40.546875 
Q 41.703125 37 41.703125 32.203125 
L 46.296875 42.796875 
z
M 35.90625 27.203125 
Q 35.90625 42 28.203125 42 
Q 23 42 16.953125 32.796875 
Q 10.90625 23.59375 10.90625 12.5 
Q 10.90625 7.703125 12.59375 4.34375 
Q 14.296875 1 17.796875 1 
Q 25.09375 1 34.296875 20.09375 
Q 34.40625 20.703125 34.84375 22.046875 
Q 35.296875 23.40625 35.59375 24.703125 
Q 35.90625 26 35.90625 27.203125 
z
" id="STIXGeneral-Italic-945"/>
      <path d="M 87.203125 65.296875 
L 87.203125 63.703125 
Q 83.09375 63 81.640625 61.640625 
Q 80.203125 60.296875 79.09375 56.296875 
L 66.796875 12 
Q 65.40625 7 65.40625 5.796875 
Q 65.40625 3.796875 67.203125 2.75 
Q 69 1.703125 73.5 1.59375 
L 73.40625 0 
L 46.296875 0 
L 46.296875 1.59375 
Q 51.203125 2.09375 53.203125 3.796875 
Q 55.203125 5.5 56.5 10.203125 
L 69.09375 56.09375 
L 31.5 0 
L 29.796875 0 
L 23.59375 54.59375 
L 11.796875 11.796875 
Q 10.90625 8.59375 10.90625 6.40625 
Q 10.90625 2.09375 17.90625 1.59375 
L 17.90625 0 
L -1.796875 0 
L -1.796875 1.59375 
Q 2.203125 2.09375 4.046875 4.4375 
Q 5.90625 6.796875 8.203125 15 
L 19.59375 55.09375 
Q 20.796875 59.203125 20.796875 60.296875 
Q 20.796875 63.296875 13.40625 63.703125 
L 13.40625 65.296875 
L 31.5 65.296875 
L 37.09375 16.09375 
L 70.59375 65.296875 
z
" id="STIXGeneral-Italic-77"/>
     </defs>
     <g transform="translate(377.524349 153.984618)scale(0.11662 -0.11662)">
      <use transform="translate(56.046875 4.703125)" xlink:href="#STIXGeneral-Regular-775"/>
      <use transform="translate(0 0.40625)" xlink:href="#STIXGeneral-Italic-945"/>
      <use transform="translate(55.199997 0.40625)" xlink:href="#STIXGeneral-Regular-47"/>
      <use transform="translate(139.04686 4.703125)" xlink:href="#STIXGeneral-Regular-775"/>
      <use transform="translate(82.999985 0.40625)" xlink:href="#STIXGeneral-Italic-945"/>
      <use transform="translate(139.743263 -12.821875)scale(0.7)" xlink:href="#STIXGeneral-Italic-77"/>
     </g>
    </g>
   </g>
  </g>
  <g id="axes_2">
   <g id="PathCollection_1">
    <defs>
     <path d="M 0 2.236068 
C 0.593012 2.236068 1.161816 2.000462 1.581139 1.581139 
C 2.000462 1.161816 2.236068 0.593012 2.236068 0 
C 2.236068 -0.593012 2.000462 -1.161816 1.581139 -1.581139 
C 1.161816 -2.000462 0.593012 -2.236068 0 -2.236068 
C -0.593012 -2.236068 -1.161816 -2.000462 -1.581139 -1.581139 
C -2.000462 -1.161816 -2.236068 -0.593012 -2.236068 0 
C -2.236068 0.593012 -2.000462 1.161816 -1.581139 1.581139 
C -1.161816 2.000462 -0.593012 2.236068 0 2.236068 
z
" id="mc655ea4f3a" style="stroke:#000000;"/>
    </defs>
    <g clip-path="url(#p9d1c25cc7b)">
     <use style="stroke:#000000;" x="482.237055" xlink:href="#mc655ea4f3a" y="169.194988"/>
     <use style="stroke:#000000;" x="482.512625" xlink:href="#mc655ea4f3a" y="169.194988"/>
     <use style="stroke:#000000;" x="484.606036" xlink:href="#mc655ea4f3a" y="169.194988"/>
     <use style="stroke:#000000;" x="488.969439" xlink:href="#mc655ea4f3a" y="169.194988"/>
     <use style="stroke:#000000;" x="495.578026" xlink:href="#mc655ea4f3a" y="169.194988"/>
     <use style="stroke:#000000;" x="503.431631" xlink:href="#mc655ea4f3a" y="169.194988"/>
     <use style="stroke:#000000;" x="511.340279" xlink:href="#mc655ea4f3a" y="169.194988"/>
     <use style="stroke:#000000;" x="519.249001" xlink:href="#mc655ea4f3a" y="169.194988"/>
     <use style="stroke:#000000;" x="527.157726" xlink:href="#mc655ea4f3a" y="169.194988"/>
     <use style="stroke:#000000;" x="535.066445" xlink:href="#mc655ea4f3a" y="169.194988"/>
     <use style="stroke:#000000;" x="542.975168" xlink:href="#mc655ea4f3a" y="169.194988"/>
     <use style="stroke:#000000;" x="550.883887" xlink:href="#mc655ea4f3a" y="169.194988"/>
     <use style="stroke:#000000;" x="558.79261" xlink:href="#mc655ea4f3a" y="169.194988"/>
     <use style="stroke:#000000;" x="566.701332" xlink:href="#mc655ea4f3a" y="169.194988"/>
     <use style="stroke:#000000;" x="574.610052" xlink:href="#mc655ea4f3a" y="169.194988"/>
     <use style="stroke:#000000;" x="582.518774" xlink:href="#mc655ea4f3a" y="169.194988"/>
     <use style="stroke:#000000;" x="590.427495" xlink:href="#mc655ea4f3a" y="169.194988"/>
     <use style="stroke:#000000;" x="598.336217" xlink:href="#mc655ea4f3a" y="169.194988"/>
     <use style="stroke:#000000;" x="606.24494" xlink:href="#mc655ea4f3a" y="169.194988"/>
     <use style="stroke:#000000;" x="614.153663" xlink:href="#mc655ea4f3a" y="169.194988"/>
     <use style="stroke:#000000;" x="622.062383" xlink:href="#mc655ea4f3a" y="169.194988"/>
     <use style="stroke:#000000;" x="629.971106" xlink:href="#mc655ea4f3a" y="169.194988"/>
     <use style="stroke:#000000;" x="637.879827" xlink:href="#mc655ea4f3a" y="169.194988"/>
     <use style="stroke:#000000;" x="645.788548" xlink:href="#mc655ea4f3a" y="169.194988"/>
     <use style="stroke:#000000;" x="653.697196" xlink:href="#mc655ea4f3a" y="169.194988"/>
     <use style="stroke:#000000;" x="661.550801" xlink:href="#mc655ea4f3a" y="169.194988"/>
     <use style="stroke:#000000;" x="668.159388" xlink:href="#mc655ea4f3a" y="169.194988"/>
     <use style="stroke:#000000;" x="672.522792" xlink:href="#mc655ea4f3a" y="169.194988"/>
     <use style="stroke:#000000;" x="674.616201" xlink:href="#mc655ea4f3a" y="169.194988"/>
     <use style="stroke:#000000;" x="674.891771" xlink:href="#mc655ea4f3a" y="169.194988"/>
    </g>
   </g>
   <g id="patch_7">
    <path clip-path="url(#p9d1c25cc7b)" d="M 482.237055 169.194988 
L 454.991318 196.440726 
M 482.512625 169.194988 
L 455.266887 196.440726 
M 484.606036 169.194988 
L 457.360298 196.440726 
M 488.969439 169.194988 
L 461.723702 196.440726 
M 495.578026 169.194988 
L 468.332288 196.440726 
M 503.431631 169.194988 
L 476.185894 196.440726 
M 511.340279 169.194988 
L 484.094541 196.440726 
M 519.249001 169.194988 
L 492.003264 196.440726 
M 527.157726 169.194988 
L 499.911988 196.440726 
M 535.066445 169.194988 
L 507.820707 196.440726 
M 542.975168 169.194988 
L 515.72943 196.440726 
M 550.883887 169.194988 
L 523.63815 196.440726 
M 558.79261 169.194988 
L 531.546872 196.440726 
M 566.701332 169.194988 
L 539.455594 196.440726 
M 574.610052 169.194988 
L 547.364314 196.440726 
M 582.518774 169.194988 
L 555.273037 196.440726 
M 590.427495 169.194988 
L 563.181757 196.440726 
M 598.336217 169.194988 
L 571.090479 196.440726 
M 606.24494 169.194988 
L 578.999202 196.440726 
M 614.153663 169.194988 
L 586.907925 196.440726 
M 622.062383 169.194988 
L 594.816645 196.440726 
M 629.971106 169.194988 
L 602.725368 196.440726 
M 637.879827 169.194988 
L 610.634089 196.440726 
M 645.788548 169.194988 
L 618.542811 196.440726 
M 653.697196 169.194988 
L 626.451459 196.440726 
M 661.550801 169.194988 
L 634.305063 196.440726 
M 668.159388 169.194988 
L 640.91365 196.440726 
M 672.522792 169.194988 
L 645.277054 196.440726 
M 674.616201 169.194988 
L 647.370463 196.440726 
M 674.891771 169.194988 
L 647.646033 196.440726 
" style="fill:#1f77b4;stroke:#000000;stroke-linejoin:miter;stroke-width:1.5;"/>
   </g>
   <g id="line2d_16">
    <path clip-path="url(#p9d1c25cc7b)" d="M 452.305991 176.006423 
L 691.2 176.006423 
" style="fill:none;stroke:#000000;stroke-dasharray:6.4,1.6,1,1.6;stroke-dashoffset:0;"/>
   </g>
   <g id="text_6">
    <!-- $\alpha_E$ = 135$^\circ$ -->
    <defs>
     <path d="M 63.40625 65.296875 
L 60.296875 49.90625 
L 58.09375 50.09375 
Q 58.40625 52.59375 58.40625 54.703125 
Q 58.40625 59.203125 54.703125 60.59375 
Q 51 62 39.203125 62 
Q 35 62 33.703125 61.546875 
Q 32.40625 61.09375 31.90625 59.40625 
L 25.296875 36.09375 
L 33.09375 36.09375 
Q 39.703125 36.09375 41.890625 37.6875 
Q 44.09375 39.296875 47 45.796875 
L 48.796875 45.40625 
L 42 22.203125 
L 40 22.703125 
Q 40.703125 25.796875 40.703125 27.90625 
Q 40.703125 30.296875 40 31 
Q 38.296875 32.5 32.203125 32.5 
L 24.40625 32.5 
L 21.203125 21.296875 
Q 17.59375 8.59375 17.59375 6.703125 
Q 17.59375 3.296875 25.5 3.296875 
Q 38.40625 3.296875 45.796875 7.203125 
Q 49.59375 9.203125 55.203125 17 
L 56.796875 16.203125 
L 50.59375 0 
L -0.09375 0 
L -0.09375 1.59375 
Q 4.203125 2.40625 5.5 3.546875 
Q 6.796875 4.703125 8 9 
L 20.296875 53.203125 
Q 21.40625 56.90625 21.40625 59.59375 
Q 21.40625 61.59375 19.84375 62.4375 
Q 18.296875 63.296875 13.703125 63.703125 
L 13.703125 65.296875 
z
" id="STIXGeneral-Italic-69"/>
     <path id="STIXGeneral-Regular-32"/>
     <path d="M 63.703125 32 
L 4.796875 32 
L 4.796875 38.59375 
L 63.703125 38.59375 
z
M 63.703125 12 
L 4.796875 12 
L 4.796875 18.59375 
L 63.703125 18.59375 
z
" id="STIXGeneral-Regular-61"/>
     <path d="M 6.09375 51 
L 4.5 51.40625 
Q 6.796875 58.90625 11.6875 63.25 
Q 16.59375 67.59375 24.09375 67.59375 
Q 31.09375 67.59375 35.390625 63.796875 
Q 39.703125 60 39.703125 53.90625 
Q 39.703125 45.703125 30.40625 40.09375 
Q 35.90625 37.703125 38.703125 34.796875 
Q 43.09375 29.90625 43.09375 21.90625 
Q 43.09375 13.90625 38.5 7.90625 
Q 35.09375 3.296875 28.75 0.9375 
Q 22.40625 -1.40625 15.296875 -1.40625 
Q 4.09375 -1.40625 4.09375 4.296875 
Q 4.09375 5.90625 5.296875 6.90625 
Q 6.5 7.90625 8.203125 7.90625 
Q 10.703125 7.90625 14.296875 5.296875 
Q 18.703125 2.203125 22.90625 2.203125 
Q 28.40625 2.203125 32.15625 6.640625 
Q 35.90625 11.09375 35.90625 17.5 
Q 35.90625 29 25.5 32 
Q 22.40625 33 15.296875 33 
L 15.296875 34.40625 
Q 20.90625 36.296875 23.703125 38 
Q 31.796875 42.59375 31.796875 51.40625 
Q 31.796875 56.40625 28.9375 59 
Q 26.09375 61.59375 21 61.59375 
Q 12 61.59375 6.09375 51 
z
" id="STIXGeneral-Regular-51"/>
     <path d="M 23.203125 38.703125 
Q 31 30.796875 31 25.1875 
Q 31 19.59375 27.046875 15.640625 
Q 23.09375 11.703125 17.5 11.703125 
Q 11.796875 11.703125 7.890625 15.640625 
Q 4 19.59375 4 25.40625 
Q 4 31 7.953125 34.84375 
Q 11.90625 38.703125 17.703125 38.703125 
Q 23.203125 38.703125 31 30.796875 
z
M 20.40625 18.296875 
Q 24.40625 22.296875 24.40625 25.1875 
Q 24.40625 28.09375 22.40625 30.09375 
Q 20.40625 32.09375 17.703125 32.09375 
Q 14.59375 32.09375 12.59375 30.140625 
Q 10.59375 28.203125 10.59375 25.40625 
Q 10.59375 22.296875 12.546875 20.296875 
Q 14.5 18.296875 17.5 18.296875 
Q 20.40625 18.296875 24.40625 22.296875 
z
" id="STIXGeneral-Regular-8728"/>
    </defs>
    <g transform="translate(538.258617 133.030435)scale(0.14 -0.14)">
     <use transform="translate(0 0.203125)" xlink:href="#STIXGeneral-Italic-945"/>
     <use transform="translate(55.199997 -13.025)scale(0.7)" xlink:href="#STIXGeneral-Italic-69"/>
     <use transform="translate(102.379366 0.203125)" xlink:href="#STIXGeneral-Regular-32"/>
     <use transform="translate(127.37935 0.203125)" xlink:href="#STIXGeneral-Regular-61"/>
     <use transform="translate(195.879335 0.203125)" xlink:href="#STIXGeneral-Regular-32"/>
     <use transform="translate(220.87932 0.203125)" xlink:href="#STIXGeneral-Regular-49"/>
     <use transform="translate(270.879305 0.203125)" xlink:href="#STIXGeneral-Regular-51"/>
     <use transform="translate(320.879289 0.203125)" xlink:href="#STIXGeneral-Regular-53"/>
     <use transform="translate(382.530553 35.478125)scale(0.7)" xlink:href="#STIXGeneral-Regular-8728"/>
    </g>
   </g>
   <g id="patch_8">
    <path d="M 475.425621 141.990677 
Q 475.425621 153.086249 475.425621 163.622804 
" style="fill:none;stroke:#000000;stroke-linecap:round;stroke-width:0.5;"/>
    <path d="M 478.225621 158.022804 
L 475.425621 163.622804 
L 472.625621 158.022804 
" style="fill:none;stroke:#000000;stroke-linecap:round;stroke-width:0.5;"/>
   </g>
   <g id="text_7">
    <!-- $\^t = 0$ -->
    <defs>
     <path d="M -7.5 50.703125 
L -10.90625 50.703125 
L -23.09375 61 
L -35.203125 50.703125 
L -38.59375 50.703125 
L -26.203125 67.40625 
L -20 67.40625 
z
" id="STIXGeneral-Regular-770"/>
     <path d="M 29.59375 42.796875 
L 29.09375 39.59375 
L 20.703125 39.59375 
L 12 6.796875 
Q 11.796875 6 11.796875 5.40625 
Q 11.796875 3.796875 13.296875 3.796875 
Q 14.5 3.796875 16.09375 5.34375 
Q 17.703125 6.90625 21.40625 11.703125 
L 22.703125 11 
Q 18.09375 4 15.140625 1.453125 
Q 12.203125 -1.09375 8.40625 -1.09375 
Q 3.796875 -1.09375 3.796875 2.59375 
Q 3.796875 3.59375 5.40625 10 
L 13.203125 39.59375 
L 5.703125 39.59375 
L 5.59375 40.203125 
Q 5.59375 42 8.90625 42.703125 
Q 11.40625 43.296875 15.5 46.546875 
Q 19.59375 49.796875 22.203125 53.703125 
Q 22.796875 54.59375 23.59375 54.59375 
Q 24.5 54.59375 24.5 53.796875 
Q 24.5 53.296875 24.40625 53.09375 
L 21.59375 42.796875 
z
" id="STIXGeneral-Italic-116"/>
    </defs>
    <g transform="translate(463.105621 134.957)scale(0.14 -0.14)">
     <use transform="translate(39.042969 16.59375)" xlink:href="#STIXGeneral-Regular-770"/>
     <use transform="translate(0 0.203125)" xlink:href="#STIXGeneral-Italic-116"/>
     <use transform="translate(42.239984 0.203125)" xlink:href="#STIXGeneral-Regular-61"/>
     <use transform="translate(125.179965 0.203125)" xlink:href="#STIXGeneral-Regular-48"/>
    </g>
   </g>
   <g id="patch_9">
    <path d="M 668.080336 141.990677 
Q 668.080336 153.086249 668.080336 163.622804 
" style="fill:none;stroke:#000000;stroke-linecap:round;stroke-width:0.5;"/>
    <path d="M 670.880336 158.022804 
L 668.080336 163.622804 
L 665.280336 158.022804 
" style="fill:none;stroke:#000000;stroke-linecap:round;stroke-width:0.5;"/>
   </g>
   <g id="text_8">
    <!-- $\^t\/=\/1$ -->
    <g transform="translate(654.080336 134.957)scale(0.14 -0.14)">
     <use transform="translate(39.042969 16.59375)" xlink:href="#STIXGeneral-Regular-770"/>
     <use transform="translate(0 0.203125)" xlink:href="#STIXGeneral-Italic-116"/>
     <use transform="translate(54.273555 0.203125)" xlink:href="#STIXGeneral-Regular-61"/>
     <use transform="translate(149.247107 0.203125)" xlink:href="#STIXGeneral-Regular-49"/>
    </g>
   </g>
  </g>
  <g id="axes_3">
   <g id="patch_10">
    <path d="M 172.8 350.353293 
L 411.694009 350.353293 
L 411.694009 243.646707 
L 172.8 243.646707 
z
" style="fill:#ffffff;"/>
   </g>
   <g id="matplotlib.axis_3">
    <g id="xtick_6">
     <g id="line2d_17">
      <g>
       <use style="fill:#ffffff;stroke:#000000;stroke-width:0.8;" x="172.8" xlink:href="#md86eeb2c23" y="350.353293"/>
      </g>
     </g>
    </g>
    <g id="xtick_7">
     <g id="line2d_18">
      <g>
       <use style="fill:#ffffff;stroke:#000000;stroke-width:0.8;" x="232.523502" xlink:href="#md86eeb2c23" y="350.353293"/>
      </g>
     </g>
    </g>
    <g id="xtick_8">
     <g id="line2d_19">
      <g>
       <use style="fill:#ffffff;stroke:#000000;stroke-width:0.8;" x="292.247005" xlink:href="#md86eeb2c23" y="350.353293"/>
      </g>
     </g>
    </g>
    <g id="xtick_9">
     <g id="line2d_20">
      <g>
       <use style="fill:#ffffff;stroke:#000000;stroke-width:0.8;" x="351.970507" xlink:href="#md86eeb2c23" y="350.353293"/>
      </g>
     </g>
    </g>
    <g id="xtick_10">
     <g id="line2d_21">
      <g>
       <use style="fill:#ffffff;stroke:#000000;stroke-width:0.8;" x="411.694009" xlink:href="#md86eeb2c23" y="350.353293"/>
      </g>
     </g>
    </g>
   </g>
   <g id="matplotlib.axis_4">
    <g id="ytick_4">
     <g id="line2d_22">
      <g>
       <use style="fill:#ffffff;stroke:#000000;stroke-width:0.8;" x="172.8" xlink:href="#mb12d6a9a74" y="345.502994"/>
      </g>
     </g>
     <g id="text_9">
      <!-- 0.0 -->
      <g transform="translate(148.3 350.283775)scale(0.14 -0.14)">
       <use xlink:href="#STIXGeneral-Regular-48"/>
       <use x="49.999985" xlink:href="#STIXGeneral-Regular-46"/>
       <use x="74.999969" xlink:href="#STIXGeneral-Regular-48"/>
      </g>
     </g>
    </g>
    <g id="ytick_5">
     <g id="line2d_23">
      <g>
       <use style="fill:#ffffff;stroke:#000000;stroke-width:0.8;" x="172.8" xlink:href="#mb12d6a9a74" y="297"/>
      </g>
     </g>
     <g id="text_10">
      <!-- 0.5 -->
      <g transform="translate(148.3 301.780781)scale(0.14 -0.14)">
       <use xlink:href="#STIXGeneral-Regular-48"/>
       <use x="49.999985" xlink:href="#STIXGeneral-Regular-46"/>
       <use x="74.999969" xlink:href="#STIXGeneral-Regular-53"/>
      </g>
     </g>
    </g>
    <g id="ytick_6">
     <g id="line2d_24">
      <g>
       <use style="fill:#ffffff;stroke:#000000;stroke-width:0.8;" x="172.8" xlink:href="#mb12d6a9a74" y="248.497006"/>
      </g>
     </g>
     <g id="text_11">
      <!-- 1.0 -->
      <g transform="translate(148.3 253.277787)scale(0.14 -0.14)">
       <use xlink:href="#STIXGeneral-Regular-49"/>
       <use x="49.999985" xlink:href="#STIXGeneral-Regular-46"/>
       <use x="74.999969" xlink:href="#STIXGeneral-Regular-48"/>
      </g>
     </g>
    </g>
    <g id="text_12">
     <!-- Normalized velocity -->
     <defs>
      <path d="M 70.703125 66.203125 
L 70.703125 64.296875 
Q 65.59375 63.796875 64.09375 62.5 
Q 62.5 61.09375 61.84375 58.6875 
Q 61.203125 56.296875 61.203125 50.703125 
L 61.203125 -1.09375 
L 59.40625 -1.09375 
L 15.296875 53.796875 
L 15.296875 15 
Q 15.296875 7.40625 17 5.046875 
Q 18.703125 2.703125 24.59375 1.90625 
L 24.59375 0 
L 1.203125 0 
L 1.203125 1.90625 
Q 7.40625 2.59375 9.15625 4.84375 
Q 10.90625 7.09375 10.90625 15 
L 10.90625 59 
Q 8.296875 62.203125 6.5 63.25 
Q 4.703125 64.296875 1.203125 64.296875 
L 1.203125 66.203125 
L 18.203125 66.203125 
L 56.796875 17.90625 
L 56.796875 51.90625 
Q 56.796875 59.5 54.90625 61.703125 
Q 53.703125 63 52.25 63.453125 
Q 50.796875 63.90625 47 64.296875 
L 47 66.203125 
z
" id="STIXGeneral-Regular-78"/>
      <path d="M 47 23.09375 
Q 47 12.59375 40.75 5.796875 
Q 34.5 -1 24.5 -1 
Q 15.296875 -1 9.09375 5.75 
Q 2.90625 12.5 2.90625 22.796875 
Q 2.90625 33.203125 9.09375 39.59375 
Q 15.296875 46 25.40625 46 
Q 34.703125 46 40.84375 39.640625 
Q 47 33.296875 47 23.09375 
z
M 38 20.40625 
Q 38 31.796875 33 38.203125 
Q 29 43.203125 23.5 43.203125 
Q 18.296875 43.203125 15.09375 38.953125 
Q 11.90625 34.703125 11.90625 27.296875 
Q 11.90625 14.5 17.203125 6.796875 
Q 20.59375 1.796875 26.203125 1.796875 
Q 31.703125 1.796875 34.84375 6.75 
Q 38 11.703125 38 20.40625 
z
" id="STIXGeneral-Regular-111"/>
      <path d="M 16 45.796875 
L 16 36.59375 
Q 19.796875 42 22.34375 44 
Q 24.90625 46 28 46 
Q 30.59375 46 32.046875 44.59375 
Q 33.5 43.203125 33.5 40.703125 
Q 33.5 38.59375 32.453125 37.390625 
Q 31.40625 36.203125 29.59375 36.203125 
Q 27.703125 36.203125 25.59375 38.203125 
Q 24 39.703125 23 39.703125 
Q 20.90625 39.703125 18.453125 36.796875 
Q 16 33.90625 16 31.5 
L 16 9 
Q 16 4.703125 17.703125 3.203125 
Q 19.40625 1.703125 24.5 1.5 
L 24.5 0 
L 0.5 0 
L 0.5 1.5 
Q 5.296875 2.40625 6.4375 3.5 
Q 7.59375 4.59375 7.59375 8.40625 
L 7.59375 33.40625 
Q 7.59375 36.703125 6.84375 38.046875 
Q 6.09375 39.40625 4.203125 39.40625 
Q 2.59375 39.40625 0.703125 39 
L 0.703125 40.59375 
Q 7 42.59375 15.5 46 
z
" id="STIXGeneral-Regular-114"/>
      <path d="M 77.5 0 
L 55.703125 0 
L 55.703125 1.5 
Q 59.90625 1.90625 61.046875 3.25 
Q 62.203125 4.59375 62.203125 9 
L 62.203125 29.59375 
Q 62.203125 35.59375 60.453125 38.1875 
Q 58.703125 40.796875 54.5 40.796875 
Q 51 40.796875 48.546875 39.390625 
Q 46.09375 38 43.796875 34.703125 
L 43.796875 9.5 
Q 43.796875 4.703125 45.25 3.140625 
Q 46.703125 1.59375 51 1.5 
L 51 0 
L 28.59375 0 
L 28.59375 1.5 
Q 33 1.796875 34.203125 2.9375 
Q 35.40625 4.09375 35.40625 8.59375 
L 35.40625 29.703125 
Q 35.40625 40.796875 28.90625 40.796875 
Q 26.09375 40.796875 22.9375 39.546875 
Q 19.796875 38.296875 18.296875 36.5 
Q 17 35 17 34.796875 
L 17 7 
Q 17 3.796875 18.390625 2.75 
Q 19.796875 1.703125 23.796875 1.5 
L 23.796875 0 
L 1.59375 0 
L 1.59375 1.5 
Q 5.796875 1.59375 7.1875 3.046875 
Q 8.59375 4.5 8.59375 8.796875 
L 8.59375 33.59375 
Q 8.59375 37.296875 7.796875 38.75 
Q 7 40.203125 5.09375 40.203125 
Q 3.59375 40.203125 1.90625 39.796875 
L 1.90625 41.5 
Q 8.703125 43.40625 15.796875 46 
L 16.59375 45.703125 
L 16.59375 38.296875 
L 16.796875 38.296875 
Q 21.296875 43 24.75 44.5 
Q 28.203125 46 32.09375 46 
Q 40 46 42.703125 37.59375 
Q 50.5 46 59 46 
Q 70.59375 46 70.59375 28 
L 70.59375 7.703125 
Q 70.59375 4.40625 71.59375 3.15625 
Q 72.59375 1.90625 74.90625 1.703125 
L 77.5 1.5 
z
" id="STIXGeneral-Regular-109"/>
      <path d="M 44.203125 6.59375 
L 44.203125 3.796875 
Q 40.40625 -1 35.203125 -1 
Q 29.5 -1 28.796875 6.296875 
L 28.703125 6.296875 
Q 22.296875 -1 14.203125 -1 
Q 9.5 -1 6.59375 1.75 
Q 3.703125 4.5 3.703125 9.40625 
Q 3.703125 16.40625 10.703125 21.09375 
Q 15.5 24.296875 28.703125 29.203125 
L 28.703125 34.59375 
Q 28.703125 39.09375 26.546875 41.34375 
Q 24.40625 43.59375 20.90625 43.59375 
Q 17.90625 43.59375 15.90625 42.140625 
Q 13.90625 40.703125 13.90625 38.703125 
Q 13.90625 37.796875 14.203125 36.6875 
Q 14.5 35.59375 14.5 34.5 
Q 14.5 33 13.140625 31.703125 
Q 11.796875 30.40625 9.90625 30.40625 
Q 8.203125 30.40625 6.890625 31.703125 
Q 5.59375 33 5.59375 35 
Q 5.59375 39.796875 10.703125 43 
Q 15.40625 46 22.203125 46 
Q 30.296875 46 34 41.5 
Q 35.796875 39.40625 36.296875 37.25 
Q 36.796875 35.09375 36.796875 30.40625 
L 36.796875 11.296875 
Q 36.796875 4.703125 39.90625 4.703125 
Q 41.90625 4.703125 44.203125 6.59375 
z
M 28.703125 12.703125 
L 28.703125 26.796875 
Q 19.5 23.59375 15.90625 20.203125 
Q 12.5 17.09375 12.5 12.5 
Q 12.5 8.703125 14.390625 6.75 
Q 16.296875 4.796875 19.40625 4.796875 
Q 22.703125 4.796875 25.203125 6.40625 
Q 27.296875 7.90625 28 9.203125 
Q 28.703125 10.5 28.703125 12.703125 
z
" id="STIXGeneral-Regular-97"/>
      <path d="M 25.703125 0 
L 2.09375 0 
L 2.09375 1.5 
Q 6.796875 1.90625 8.296875 3.453125 
Q 9.796875 5 9.796875 9.203125 
L 9.796875 56.09375 
Q 9.796875 59.703125 8.890625 61.09375 
Q 8 62.5 5.59375 62.5 
Q 3.5 62.5 1.90625 62.296875 
L 1.90625 63.90625 
Q 11.40625 66.203125 17.703125 68.296875 
L 18.203125 67.90625 
L 18.203125 8.703125 
Q 18.203125 4.5 19.59375 3.140625 
Q 21 1.796875 25.703125 1.5 
z
" id="STIXGeneral-Regular-108"/>
      <path d="M 18 63.203125 
Q 18 61 16.5 59.546875 
Q 15 58.09375 12.796875 58.09375 
Q 10.703125 58.09375 9.25 59.546875 
Q 7.796875 61 7.796875 63.203125 
Q 7.796875 65.296875 9.296875 66.796875 
Q 10.796875 68.296875 12.90625 68.296875 
Q 15.09375 68.296875 16.546875 66.796875 
Q 18 65.296875 18 63.203125 
z
M 25.296875 0 
L 1.59375 0 
L 1.59375 1.5 
Q 6.796875 1.796875 8.140625 3.296875 
Q 9.5 4.796875 9.5 10.40625 
L 9.5 33.09375 
Q 9.5 36.59375 8.796875 38 
Q 8.09375 39.40625 6.203125 39.40625 
Q 3.796875 39.40625 2 38.90625 
L 2 40.5 
L 17.5 46 
L 17.90625 45.59375 
L 17.90625 10.5 
Q 17.90625 4.90625 19.15625 3.40625 
Q 20.40625 1.90625 25.296875 1.5 
z
" id="STIXGeneral-Regular-105"/>
      <path d="M 41.796875 13.59375 
L 40.296875 0 
L 2.703125 0 
L 2.703125 1.5 
L 29.296875 42 
L 15.796875 42 
Q 11.09375 42 9.4375 40.34375 
Q 7.796875 38.703125 7.09375 33.203125 
L 5.296875 33.203125 
L 5.703125 45 
L 40.296875 45 
L 40.296875 43.5 
L 13.40625 3 
L 26.703125 3 
Q 35.09375 3 37.296875 5.703125 
Q 38.703125 7.40625 40 14 
z
" id="STIXGeneral-Regular-122"/>
      <path d="M 40.796875 16.40625 
L 42.40625 15.703125 
Q 36.40625 -1 21.5 -1 
Q 12.703125 -1 7.59375 5.140625 
Q 2.5 11.296875 2.5 21.703125 
Q 2.5 32.40625 8.203125 39.203125 
Q 13.90625 46 23.203125 46 
Q 32.203125 46 37.09375 39.09375 
Q 40 35.09375 40.5 27.703125 
L 9.703125 27.703125 
Q 10.09375 21.40625 10.9375 18.09375 
Q 11.796875 14.796875 14.296875 11.40625 
Q 18.5 5.90625 25.40625 5.90625 
Q 30.296875 5.90625 33.640625 8.296875 
Q 37 10.703125 40.796875 16.40625 
z
M 9.90625 30.90625 
L 30.296875 30.90625 
Q 29.40625 37.203125 27.34375 39.796875 
Q 25.296875 42.40625 20.5 42.40625 
Q 16.296875 42.40625 13.5 39.453125 
Q 10.703125 36.5 9.90625 30.90625 
z
" id="STIXGeneral-Regular-101"/>
      <path d="M 49.09375 4.203125 
L 34.40625 -1 
L 34 -0.703125 
L 34 5.703125 
Q 29.203125 -1 21.203125 -1 
Q 12.90625 -1 7.796875 4.953125 
Q 2.703125 10.90625 2.703125 20.5 
Q 2.703125 31.09375 8.796875 38.546875 
Q 14.90625 46 23.5 46 
Q 28.90625 46 34 41.703125 
L 34 57.296875 
Q 34 60.40625 33.09375 61.40625 
Q 32.203125 62.40625 29.40625 62.40625 
Q 28 62.40625 27.203125 62.296875 
L 27.203125 63.90625 
Q 36.296875 66.296875 41.90625 68.296875 
L 42.40625 68.09375 
L 42.40625 11.40625 
Q 42.40625 7.90625 43.25 6.796875 
Q 44.09375 5.703125 46.796875 5.703125 
Q 47.40625 5.703125 49.09375 5.796875 
z
M 34 10.203125 
L 34 33.203125 
Q 34 37.203125 30.953125 40.203125 
Q 27.90625 43.203125 23.796875 43.203125 
Q 18.09375 43.203125 14.6875 38.09375 
Q 11.296875 33 11.296875 24.5 
Q 11.296875 15.296875 15.046875 9.75 
Q 18.796875 4.203125 25.09375 4.203125 
Q 29.796875 4.203125 32.5 7.40625 
Q 34 9.09375 34 10.203125 
z
" id="STIXGeneral-Regular-100"/>
      <path d="M 47.703125 45 
L 47.703125 43.5 
Q 45.40625 43.296875 44.296875 42 
Q 43.203125 40.703125 41.203125 35.703125 
L 28.40625 3.59375 
Q 26.40625 -1.40625 25.59375 -1.40625 
Q 24.796875 -1.40625 23.796875 1.203125 
Q 23.59375 1.5 23.390625 2.203125 
Q 23.203125 2.90625 23 3.296875 
L 11 32 
Q 7.796875 39.59375 6.296875 41.4375 
Q 4.796875 43.296875 1.90625 43.5 
L 1.90625 45 
L 21.5 45 
L 21.5 43.5 
Q 18.90625 43.296875 17.90625 42.6875 
Q 16.90625 42.09375 16.90625 40.796875 
Q 16.90625 39.203125 17.796875 37 
L 28 11.40625 
L 37.90625 37.296875 
Q 38.5 38.796875 38.5 40.296875 
Q 38.5 43.09375 33.796875 43.5 
L 33.796875 45 
z
" id="STIXGeneral-Regular-118"/>
      <path d="M 39.796875 15.59375 
L 41.203125 14.703125 
Q 36.90625 6.296875 33 3.203125 
Q 27.90625 -1 21.5 -1 
Q 13.203125 -1 7.84375 5.25 
Q 2.5 11.5 2.5 21.203125 
Q 2.5 33.90625 10.90625 40.90625 
Q 17.09375 46 24.40625 46 
Q 30.703125 46 35.25 42.953125 
Q 39.796875 39.90625 39.796875 35.703125 
Q 39.796875 34 38.390625 32.75 
Q 37 31.5 35.09375 31.5 
Q 31.59375 31.5 30.296875 36.09375 
L 29.703125 38.296875 
Q 28.90625 41.09375 27.703125 42.09375 
Q 26.5 43.09375 23.796875 43.09375 
Q 17.703125 43.09375 13.953125 38.296875 
Q 10.203125 33.5 10.203125 25.703125 
Q 10.203125 17.09375 14.5 11.640625 
Q 18.796875 6.203125 25.703125 6.203125 
Q 30 6.203125 33.09375 8.25 
Q 36.203125 10.296875 39.796875 15.59375 
z
" id="STIXGeneral-Regular-99"/>
      <path d="M 26.59375 7.703125 
L 27.90625 6.59375 
Q 23.09375 -1 15.796875 -1 
Q 7 -1 7 11.703125 
L 7 41.796875 
L 1.703125 41.796875 
Q 1.296875 42.09375 1.296875 42.5 
Q 1.296875 43.296875 3 44.40625 
Q 6.796875 46.59375 12.703125 55.09375 
Q 12.90625 55.40625 13.65625 56.34375 
Q 14.40625 57.296875 14.703125 57.90625 
Q 15.40625 57.90625 15.40625 56.59375 
L 15.40625 45 
L 25.5 45 
L 25.5 41.796875 
L 15.40625 41.796875 
L 15.40625 13.203125 
Q 15.40625 8.40625 16.59375 6.296875 
Q 17.796875 4.203125 20.59375 4.203125 
Q 23.59375 4.203125 26.59375 7.703125 
z
" id="STIXGeneral-Regular-116"/>
      <path d="M 47.5 45 
L 47.5 43.5 
Q 45.703125 43.296875 44.59375 42.1875 
Q 43.5 41.09375 42.5 38.40625 
L 27.5 -2.5 
Q 23.59375 -13.09375 19.640625 -17.4375 
Q 15.703125 -21.796875 10 -21.796875 
Q 6.796875 -21.796875 4.890625 -20.140625 
Q 3 -18.5 3 -16 
Q 3 -14.09375 4.25 -12.75 
Q 5.5 -11.40625 7.296875 -11.40625 
Q 10.203125 -11.40625 12.5 -12.703125 
Q 13.796875 -13.40625 15.09375 -13.40625 
Q 17.203125 -13.40625 20.09375 -9 
Q 21.5 -7 22.796875 -3.296875 
Q 24.09375 0.40625 24.09375 1.796875 
Q 24.09375 3.09375 19.90625 11.90625 
L 6.703125 40.09375 
Q 5.40625 43 1.40625 43.59375 
L 1.40625 45 
L 21.90625 45 
L 21.90625 43.5 
Q 18.703125 43.40625 17.453125 42.796875 
Q 16.203125 42.203125 16.203125 40.796875 
Q 16.203125 39.703125 17.5 36.703125 
L 28.703125 11.703125 
L 38.40625 39.296875 
Q 38.796875 40.203125 38.796875 41.09375 
Q 38.796875 43.5 34.203125 43.5 
L 34.203125 45 
z
" id="STIXGeneral-Regular-121"/>
     </defs>
     <g transform="translate(141.248438 354.351875)rotate(-90)scale(0.14 -0.14)">
      <use xlink:href="#STIXGeneral-Regular-78"/>
      <use x="72.199982" xlink:href="#STIXGeneral-Regular-111"/>
      <use x="122.199966" xlink:href="#STIXGeneral-Regular-114"/>
      <use x="155.499954" xlink:href="#STIXGeneral-Regular-109"/>
      <use x="233.299942" xlink:href="#STIXGeneral-Regular-97"/>
      <use x="277.699936" xlink:href="#STIXGeneral-Regular-108"/>
      <use x="305.499924" xlink:href="#STIXGeneral-Regular-105"/>
      <use x="333.299911" xlink:href="#STIXGeneral-Regular-122"/>
      <use x="377.699905" xlink:href="#STIXGeneral-Regular-101"/>
      <use x="422.099899" xlink:href="#STIXGeneral-Regular-100"/>
      <use x="472.099884" xlink:href="#STIXGeneral-Regular-32"/>
      <use x="497.099869" xlink:href="#STIXGeneral-Regular-118"/>
      <use x="547.099854" xlink:href="#STIXGeneral-Regular-101"/>
      <use x="591.499847" xlink:href="#STIXGeneral-Regular-108"/>
      <use x="619.299835" xlink:href="#STIXGeneral-Regular-111"/>
      <use x="669.29982" xlink:href="#STIXGeneral-Regular-99"/>
      <use x="713.699814" xlink:href="#STIXGeneral-Regular-105"/>
      <use x="741.499802" xlink:href="#STIXGeneral-Regular-116"/>
      <use x="769.299789" xlink:href="#STIXGeneral-Regular-121"/>
     </g>
    </g>
   </g>
   <g id="line2d_25">
    <path clip-path="url(#pfd4601a7d4)" d="M 172.8 345.429521 
L 173.636451 345.213285 
L 174.114423 344.884234 
L 174.592394 344.235655 
L 175.070366 343.082882 
L 175.548338 341.305246 
L 176.265296 337.602079 
L 177.579719 329.25097 
L 184.988283 279.190944 
L 188.573071 255.679966 
L 189.290029 252.168694 
L 189.887494 250.256874 
L 190.365466 249.385348 
L 190.843438 248.924427 
L 191.440902 248.664013 
L 192.396846 248.537047 
L 195.264678 248.504723 
L 265.885018 248.50361 
L 273.652061 248.677234 
L 274.249525 248.955497 
L 274.727497 249.449025 
L 275.205469 250.369517 
L 275.683441 251.879937 
L 276.280907 254.626469 
L 277.23685 260.315142 
L 280.224174 280.311326 
L 288.94716 338.543064 
L 289.664118 341.991546 
L 290.261583 343.839809 
L 290.739555 344.670309 
L 291.217527 345.107896 
L 291.814991 345.353271 
L 292.770935 345.472419 
L 295.877752 345.502994 
L 411.785924 345.502994 
L 411.785924 345.502994 
" style="fill:none;stroke:#1f77b4;stroke-linecap:square;stroke-width:4;"/>
   </g>
   <g id="line2d_26">
    <path clip-path="url(#pfd4601a7d4)" d="M 172.8 345.502994 
L 272.457131 345.40833 
L 273.174089 345.190674 
L 273.652061 344.815788 
L 274.010539 344.271729 
L 274.369019 343.325107 
L 274.727497 341.731271 
L 275.085977 339.179409 
L 275.563949 333.785654 
L 276.161413 323.574827 
L 277.117357 301.826339 
L 278.670766 266.530305 
L 279.26823 257.574918 
L 279.746202 253.180161 
L 280.224174 250.732497 
L 280.702146 249.499536 
L 281.180118 248.914726 
L 281.777582 248.609272 
L 282.614034 248.497491 
L 283.569978 248.599428 
L 284.167442 248.887247 
L 284.52592 249.260029 
L 284.8844 249.91964 
L 285.242878 251.057087 
L 285.601358 252.944291 
L 285.959836 255.900156 
L 286.437808 261.940103 
L 287.035273 272.8742 
L 288.11071 298.047501 
L 289.305639 325.232438 
L 289.903104 334.92291 
L 290.381076 339.884863 
L 290.859048 342.735018 
L 291.33702 344.200441 
L 291.814991 344.904868 
L 292.292968 345.231598 
L 293.009925 345.420926 
L 294.443838 345.495399 
L 301.135438 345.502994 
L 411.785924 345.502994 
L 411.785924 345.502994 
" style="fill:none;stroke:#ff7f0e;stroke-linecap:square;stroke-width:4;"/>
   </g>
   <g id="line2d_27">
    <path clip-path="url(#pfd4601a7d4)" d="M 292.247005 350.353293 
L 292.247005 243.646707 
" style="fill:none;stroke:#000000;stroke-linecap:square;stroke-width:0.5;"/>
   </g>
   <g id="patch_11">
    <path d="M 172.8 350.353293 
L 172.8 243.646707 
" style="fill:none;stroke:#000000;stroke-linecap:square;stroke-linejoin:miter;stroke-width:0.8;"/>
   </g>
   <g id="patch_12">
    <path d="M 411.694009 350.353293 
L 411.694009 243.646707 
" style="fill:none;stroke:#000000;stroke-linecap:square;stroke-linejoin:miter;stroke-width:0.8;"/>
   </g>
   <g id="patch_13">
    <path d="M 172.8 350.353293 
L 411.694009 350.353293 
" style="fill:none;stroke:#000000;stroke-linecap:square;stroke-linejoin:miter;stroke-width:0.8;"/>
   </g>
   <g id="patch_14">
    <path d="M 172.8 243.646707 
L 411.694009 243.646707 
" style="fill:none;stroke:#000000;stroke-linecap:square;stroke-linejoin:miter;stroke-width:0.8;"/>
   </g>
  </g>
  <g id="axes_4">
   <g id="PathCollection_2">
    <g clip-path="url(#p1eafe2a910)">
     <use style="stroke:#000000;" x="482.237055" xlink:href="#mc655ea4f3a" y="294.041695"/>
     <use style="stroke:#000000;" x="482.512625" xlink:href="#mc655ea4f3a" y="294.041695"/>
     <use style="stroke:#000000;" x="484.606036" xlink:href="#mc655ea4f3a" y="294.041695"/>
     <use style="stroke:#000000;" x="488.969439" xlink:href="#mc655ea4f3a" y="294.041695"/>
     <use style="stroke:#000000;" x="495.578026" xlink:href="#mc655ea4f3a" y="294.041695"/>
     <use style="stroke:#000000;" x="503.431631" xlink:href="#mc655ea4f3a" y="294.041695"/>
     <use style="stroke:#000000;" x="511.340279" xlink:href="#mc655ea4f3a" y="294.041695"/>
     <use style="stroke:#000000;" x="519.249001" xlink:href="#mc655ea4f3a" y="294.041695"/>
     <use style="stroke:#000000;" x="527.157726" xlink:href="#mc655ea4f3a" y="294.041695"/>
     <use style="stroke:#000000;" x="535.066445" xlink:href="#mc655ea4f3a" y="294.041695"/>
     <use style="stroke:#000000;" x="542.975168" xlink:href="#mc655ea4f3a" y="294.041695"/>
     <use style="stroke:#000000;" x="550.883887" xlink:href="#mc655ea4f3a" y="294.041695"/>
     <use style="stroke:#000000;" x="558.79261" xlink:href="#mc655ea4f3a" y="294.041695"/>
     <use style="stroke:#000000;" x="566.701332" xlink:href="#mc655ea4f3a" y="294.041695"/>
     <use style="stroke:#000000;" x="574.610052" xlink:href="#mc655ea4f3a" y="294.041695"/>
     <use style="stroke:#000000;" x="582.518774" xlink:href="#mc655ea4f3a" y="294.041695"/>
     <use style="stroke:#000000;" x="590.427495" xlink:href="#mc655ea4f3a" y="294.041695"/>
     <use style="stroke:#000000;" x="598.336217" xlink:href="#mc655ea4f3a" y="294.041695"/>
     <use style="stroke:#000000;" x="606.24494" xlink:href="#mc655ea4f3a" y="294.041695"/>
     <use style="stroke:#000000;" x="614.153663" xlink:href="#mc655ea4f3a" y="294.041695"/>
     <use style="stroke:#000000;" x="622.062383" xlink:href="#mc655ea4f3a" y="294.041695"/>
     <use style="stroke:#000000;" x="629.971106" xlink:href="#mc655ea4f3a" y="294.041695"/>
     <use style="stroke:#000000;" x="637.879827" xlink:href="#mc655ea4f3a" y="294.041695"/>
     <use style="stroke:#000000;" x="645.788548" xlink:href="#mc655ea4f3a" y="294.041695"/>
     <use style="stroke:#000000;" x="653.697137" xlink:href="#mc655ea4f3a" y="294.041636"/>
     <use style="stroke:#000000;" x="661.493552" xlink:href="#mc655ea4f3a" y="293.984923"/>
     <use style="stroke:#000000;" x="666.75113" xlink:href="#mc655ea4f3a" y="292.878359"/>
     <use style="stroke:#000000;" x="668.526451" xlink:href="#mc655ea4f3a" y="291.640826"/>
     <use style="stroke:#000000;" x="668.206846" xlink:href="#mc655ea4f3a" y="291.228701"/>
     <use style="stroke:#000000;" x="668.081633" xlink:href="#mc655ea4f3a" y="291.220306"/>
    </g>
   </g>
   <g id="patch_15">
    <path clip-path="url(#p1eafe2a910)" d="M 482.237055 294.041695 
L 454.991318 321.287432 
M 482.512625 294.041695 
L 455.266887 321.287432 
M 484.606036 294.041695 
L 457.360298 321.287432 
M 488.969439 294.041695 
L 461.723702 321.287432 
M 495.578026 294.041695 
L 468.332288 321.287432 
M 503.431631 294.041695 
L 476.185894 321.287432 
M 511.340279 294.041695 
L 484.094541 321.287432 
M 519.249001 294.041695 
L 492.003264 321.287432 
M 527.157726 294.041695 
L 499.911988 321.287432 
M 535.066445 294.041695 
L 507.820707 321.287432 
M 542.975168 294.041695 
L 515.72943 321.287432 
M 550.883887 294.041695 
L 523.63815 321.287432 
M 558.79261 294.041695 
L 531.546872 321.287432 
M 566.701332 294.041695 
L 539.455594 321.287432 
M 574.610052 294.041695 
L 547.364314 321.287432 
M 582.518774 294.041695 
L 555.273037 321.287432 
M 590.427495 294.041695 
L 563.181757 321.287432 
M 598.336217 294.041695 
L 571.090479 321.287432 
M 606.24494 294.041695 
L 578.999202 321.287432 
M 614.153663 294.041695 
L 586.907925 321.287432 
M 622.062383 294.041695 
L 594.816645 321.287432 
M 629.971106 294.041695 
L 602.725368 321.287432 
M 637.879827 294.041695 
L 610.634089 321.287432 
M 645.788548 294.041695 
L 618.542811 321.287432 
M 653.697137 294.041636 
L 626.451635 321.287609 
M 661.493552 293.984923 
L 634.476811 321.457749 
M 666.75113 292.878359 
L 645.138424 324.77744 
M 668.526451 291.640826 
L 657.266077 328.490038 
M 668.206846 291.228701 
L 666.598528 329.726413 
M 668.081633 291.220306 
L 668.076444 329.751598 
" style="fill:#1f77b4;stroke:#000000;stroke-linejoin:miter;stroke-width:1.5;"/>
   </g>
   <g id="line2d_28">
    <path clip-path="url(#p1eafe2a910)" d="M 452.305991 300.853129 
L 691.2 300.853129 
" style="fill:none;stroke:#000000;stroke-dasharray:6.4,1.6,1,1.6;stroke-dashoffset:0;"/>
   </g>
   <g id="text_13">
    <!-- $\alpha_E$ = 90$^\circ$ -->
    <defs>
     <path d="M 5.90625 -2.203125 
L 5.59375 -0.203125 
Q 17.09375 1.796875 25.046875 9.5 
Q 33 17.203125 36 29.40625 
Q 30.203125 23.703125 21 23.703125 
Q 12.90625 23.703125 7.953125 29.296875 
Q 3 34.90625 3 44 
Q 3 54.09375 8.953125 60.84375 
Q 14.90625 67.59375 23.796875 67.59375 
Q 33.296875 67.59375 39.5 60 
Q 45.90625 52 45.90625 39.40625 
Q 45.90625 30.59375 42.84375 22.84375 
Q 39.796875 15.09375 33.90625 9.703125 
Q 27.703125 4.09375 21.796875 1.640625 
Q 15.90625 -0.796875 5.90625 -2.203125 
z
M 36.203125 35.5 
L 36.203125 39.40625 
Q 36.203125 64.796875 23 64.796875 
Q 18.296875 64.796875 15.703125 61.40625 
Q 14.203125 59.40625 13.203125 55.40625 
Q 12.203125 51.40625 12.203125 47.40625 
Q 12.203125 38.5 15.546875 33.25 
Q 18.90625 28 24.5 28 
Q 28.5 28 32.34375 29.953125 
Q 36.203125 31.90625 36.203125 35.5 
z
" id="STIXGeneral-Regular-57"/>
    </defs>
    <g transform="translate(541.758617 257.877142)scale(0.14 -0.14)">
     <use transform="translate(0 0.40625)" xlink:href="#STIXGeneral-Italic-945"/>
     <use transform="translate(55.199997 -12.821875)scale(0.7)" xlink:href="#STIXGeneral-Italic-69"/>
     <use transform="translate(102.379366 0.40625)" xlink:href="#STIXGeneral-Regular-32"/>
     <use transform="translate(127.37935 0.40625)" xlink:href="#STIXGeneral-Regular-61"/>
     <use transform="translate(195.879335 0.40625)" xlink:href="#STIXGeneral-Regular-32"/>
     <use transform="translate(220.87932 0.40625)" xlink:href="#STIXGeneral-Regular-57"/>
     <use transform="translate(270.879305 0.40625)" xlink:href="#STIXGeneral-Regular-48"/>
     <use transform="translate(332.530568 35.68125)scale(0.7)" xlink:href="#STIXGeneral-Regular-8728"/>
    </g>
   </g>
   <g id="patch_16">
    <path d="M 475.425621 266.837383 
Q 475.425621 277.932955 475.425621 288.46951 
" style="fill:none;stroke:#000000;stroke-linecap:round;stroke-width:0.5;"/>
    <path d="M 478.225621 282.86951 
L 475.425621 288.46951 
L 472.625621 282.86951 
" style="fill:none;stroke:#000000;stroke-linecap:round;stroke-width:0.5;"/>
   </g>
   <g id="text_14">
    <!-- $\^t = 0$ -->
    <g transform="translate(463.105621 259.803706)scale(0.14 -0.14)">
     <use transform="translate(39.042969 16.59375)" xlink:href="#STIXGeneral-Regular-770"/>
     <use transform="translate(0 0.203125)" xlink:href="#STIXGeneral-Italic-116"/>
     <use transform="translate(42.239984 0.203125)" xlink:href="#STIXGeneral-Regular-61"/>
     <use transform="translate(125.179965 0.203125)" xlink:href="#STIXGeneral-Regular-48"/>
    </g>
   </g>
   <g id="patch_17">
    <path d="M 668.080336 266.837383 
Q 668.080336 277.932955 668.080336 288.46951 
" style="fill:none;stroke:#000000;stroke-linecap:round;stroke-width:0.5;"/>
    <path d="M 670.880336 282.86951 
L 668.080336 288.46951 
L 665.280336 282.86951 
" style="fill:none;stroke:#000000;stroke-linecap:round;stroke-width:0.5;"/>
   </g>
   <g id="text_15">
    <!-- $\^t\/=\/1$ -->
    <g transform="translate(654.080336 259.803706)scale(0.14 -0.14)">
     <use transform="translate(39.042969 16.59375)" xlink:href="#STIXGeneral-Regular-770"/>
     <use transform="translate(0 0.203125)" xlink:href="#STIXGeneral-Italic-116"/>
     <use transform="translate(54.273555 0.203125)" xlink:href="#STIXGeneral-Regular-61"/>
     <use transform="translate(149.247107 0.203125)" xlink:href="#STIXGeneral-Regular-49"/>
    </g>
   </g>
  </g>
  <g id="axes_5">
   <g id="patch_18">
    <path d="M 172.8 475.2 
L 411.694009 475.2 
L 411.694009 368.493413 
L 172.8 368.493413 
z
" style="fill:#ffffff;"/>
   </g>
   <g id="matplotlib.axis_5">
    <g id="xtick_11">
     <g id="line2d_29">
      <g>
       <use style="fill:#ffffff;stroke:#000000;stroke-width:0.8;" x="172.8" xlink:href="#md86eeb2c23" y="475.2"/>
      </g>
     </g>
     <g id="text_16">
      <!-- 0.0 -->
      <g transform="translate(164.05 491.761563)scale(0.14 -0.14)">
       <use xlink:href="#STIXGeneral-Regular-48"/>
       <use x="49.999985" xlink:href="#STIXGeneral-Regular-46"/>
       <use x="74.999969" xlink:href="#STIXGeneral-Regular-48"/>
      </g>
     </g>
    </g>
    <g id="xtick_12">
     <g id="line2d_30">
      <g>
       <use style="fill:#ffffff;stroke:#000000;stroke-width:0.8;" x="232.523502" xlink:href="#md86eeb2c23" y="475.2"/>
      </g>
     </g>
     <g id="text_17">
      <!-- 0.5 -->
      <g transform="translate(223.773502 491.761563)scale(0.14 -0.14)">
       <use xlink:href="#STIXGeneral-Regular-48"/>
       <use x="49.999985" xlink:href="#STIXGeneral-Regular-46"/>
       <use x="74.999969" xlink:href="#STIXGeneral-Regular-53"/>
      </g>
     </g>
    </g>
    <g id="xtick_13">
     <g id="line2d_31">
      <g>
       <use style="fill:#ffffff;stroke:#000000;stroke-width:0.8;" x="292.247005" xlink:href="#md86eeb2c23" y="475.2"/>
      </g>
     </g>
     <g id="text_18">
      <!-- 1.0 -->
      <g transform="translate(283.497005 491.761563)scale(0.14 -0.14)">
       <use xlink:href="#STIXGeneral-Regular-49"/>
       <use x="49.999985" xlink:href="#STIXGeneral-Regular-46"/>
       <use x="74.999969" xlink:href="#STIXGeneral-Regular-48"/>
      </g>
     </g>
    </g>
    <g id="xtick_14">
     <g id="line2d_32">
      <g>
       <use style="fill:#ffffff;stroke:#000000;stroke-width:0.8;" x="351.970507" xlink:href="#md86eeb2c23" y="475.2"/>
      </g>
     </g>
     <g id="text_19">
      <!-- 1.5 -->
      <g transform="translate(343.220507 491.761563)scale(0.14 -0.14)">
       <use xlink:href="#STIXGeneral-Regular-49"/>
       <use x="49.999985" xlink:href="#STIXGeneral-Regular-46"/>
       <use x="74.999969" xlink:href="#STIXGeneral-Regular-53"/>
      </g>
     </g>
    </g>
    <g id="xtick_15">
     <g id="line2d_33">
      <g>
       <use style="fill:#ffffff;stroke:#000000;stroke-width:0.8;" x="411.694009" xlink:href="#md86eeb2c23" y="475.2"/>
      </g>
     </g>
     <g id="text_20">
      <!-- 2.0 -->
      <defs>
       <path d="M 47.40625 13.703125 
L 42 0 
L 2.90625 0 
L 2.90625 1.203125 
L 20.703125 20.09375 
Q 27.703125 27.40625 30.703125 33.5 
Q 33.703125 39.59375 33.703125 46.09375 
Q 33.703125 52.796875 30 56.5 
Q 26.296875 60.203125 19.796875 60.203125 
Q 14.40625 60.203125 11.25 57.390625 
Q 8.09375 54.59375 5.09375 47.203125 
L 3 47.703125 
Q 4.703125 57 9.84375 62.296875 
Q 15 67.59375 23.796875 67.59375 
Q 32.09375 67.59375 37.1875 62.59375 
Q 42.296875 57.59375 42.296875 50 
Q 42.296875 38.703125 29.5 25.203125 
L 13 7.59375 
L 36.40625 7.59375 
Q 39.703125 7.59375 41.640625 8.890625 
Q 43.59375 10.203125 46 14.296875 
z
" id="STIXGeneral-Regular-50"/>
      </defs>
      <g transform="translate(402.944009 491.761563)scale(0.14 -0.14)">
       <use xlink:href="#STIXGeneral-Regular-50"/>
       <use x="49.999985" xlink:href="#STIXGeneral-Regular-46"/>
       <use x="74.999969" xlink:href="#STIXGeneral-Regular-48"/>
      </g>
     </g>
    </g>
    <g id="text_21">
     <!-- $\^t$ -->
     <g transform="translate(290.287005 508.361563)scale(0.14 -0.14)">
      <use transform="translate(39.042969 16.59375)" xlink:href="#STIXGeneral-Regular-770"/>
      <use transform="translate(0 0.203125)" xlink:href="#STIXGeneral-Italic-116"/>
     </g>
    </g>
   </g>
   <g id="matplotlib.axis_6">
    <g id="ytick_7">
     <g id="line2d_34">
      <g>
       <use style="fill:#ffffff;stroke:#000000;stroke-width:0.8;" x="172.8" xlink:href="#mb12d6a9a74" y="470.349701"/>
      </g>
     </g>
     <g id="text_22">
      <!-- 0.0 -->
      <g transform="translate(148.3 475.130482)scale(0.14 -0.14)">
       <use xlink:href="#STIXGeneral-Regular-48"/>
       <use x="49.999985" xlink:href="#STIXGeneral-Regular-46"/>
       <use x="74.999969" xlink:href="#STIXGeneral-Regular-48"/>
      </g>
     </g>
    </g>
    <g id="ytick_8">
     <g id="line2d_35">
      <g>
       <use style="fill:#ffffff;stroke:#000000;stroke-width:0.8;" x="172.8" xlink:href="#mb12d6a9a74" y="421.846707"/>
      </g>
     </g>
     <g id="text_23">
      <!-- 0.5 -->
      <g transform="translate(148.3 426.627488)scale(0.14 -0.14)">
       <use xlink:href="#STIXGeneral-Regular-48"/>
       <use x="49.999985" xlink:href="#STIXGeneral-Regular-46"/>
       <use x="74.999969" xlink:href="#STIXGeneral-Regular-53"/>
      </g>
     </g>
    </g>
    <g id="ytick_9">
     <g id="line2d_36">
      <g>
       <use style="fill:#ffffff;stroke:#000000;stroke-width:0.8;" x="172.8" xlink:href="#mb12d6a9a74" y="373.343713"/>
      </g>
     </g>
     <g id="text_24">
      <!-- 1.0 -->
      <g transform="translate(148.3 378.124494)scale(0.14 -0.14)">
       <use xlink:href="#STIXGeneral-Regular-49"/>
       <use x="49.999985" xlink:href="#STIXGeneral-Regular-46"/>
       <use x="74.999969" xlink:href="#STIXGeneral-Regular-48"/>
      </g>
     </g>
    </g>
   </g>
   <g id="line2d_37">
    <path clip-path="url(#pd0572a5d27)" d="M 172.8 470.276227 
L 173.636451 470.059991 
L 174.114423 469.73094 
L 174.592394 469.082362 
L 175.070366 467.929588 
L 175.548338 466.151952 
L 176.265296 462.448786 
L 177.579719 454.097677 
L 184.988283 404.037651 
L 188.573071 380.526672 
L 189.290029 377.0154 
L 189.887494 375.103581 
L 190.365466 374.232054 
L 190.843438 373.771133 
L 191.440902 373.510719 
L 192.396846 373.383753 
L 195.264678 373.351429 
L 265.885018 373.350317 
L 273.652061 373.52394 
L 274.249525 373.802204 
L 274.727497 374.295731 
L 275.205469 375.216223 
L 275.683441 376.726644 
L 276.280907 379.473176 
L 277.23685 385.161848 
L 280.224174 405.158032 
L 288.94716 463.389771 
L 289.664118 466.838253 
L 290.261583 468.686516 
L 290.739555 469.517015 
L 291.217527 469.954603 
L 291.814991 470.199978 
L 292.770935 470.319125 
L 295.877752 470.349701 
L 411.785924 470.349701 
L 411.785924 470.349701 
" style="fill:none;stroke:#1f77b4;stroke-linecap:square;stroke-width:4;"/>
   </g>
   <g id="line2d_38">
    <path clip-path="url(#pd0572a5d27)" d="M 172.8 470.349701 
L 258.595948 470.245491 
L 259.312906 470.008611 
L 259.790878 469.609095 
L 260.149356 469.046995 
L 260.507836 468.113387 
L 260.866314 466.647727 
L 261.344286 463.641076 
L 261.94175 458.162055 
L 262.897694 446.795925 
L 265.885018 406.936209 
L 267.55792 386.050031 
L 268.274878 379.526863 
L 268.752849 376.7077 
L 269.230821 375.029281 
L 269.708793 374.145037 
L 270.186765 373.713866 
L 270.784231 373.482251 
L 271.859667 373.367294 
L 275.683441 373.344491 
L 280.104681 373.450084 
L 280.821639 373.690139 
L 281.299611 374.094973 
L 281.65809 374.663679 
L 282.016568 375.607801 
L 282.375048 377.087672 
L 282.85302 380.116464 
L 283.450484 385.619338 
L 284.406428 397.004208 
L 287.393752 436.867934 
L 289.066653 457.732659 
L 289.783611 464.226802 
L 290.261583 467.024612 
L 290.739555 468.685748 
L 291.217527 469.559567 
L 291.695499 469.985273 
L 292.292968 470.213793 
L 293.368397 470.327056 
L 297.19217 470.349701 
L 411.785924 470.349701 
L 411.785924 470.349701 
" style="fill:none;stroke:#ff7f0e;stroke-linecap:square;stroke-width:4;"/>
   </g>
   <g id="line2d_39">
    <path clip-path="url(#pd0572a5d27)" d="M 292.247005 475.2 
L 292.247005 368.493413 
" style="fill:none;stroke:#000000;stroke-linecap:square;stroke-width:0.5;"/>
   </g>
   <g id="patch_19">
    <path d="M 172.8 475.2 
L 172.8 368.493413 
" style="fill:none;stroke:#000000;stroke-linecap:square;stroke-linejoin:miter;stroke-width:0.8;"/>
   </g>
   <g id="patch_20">
    <path d="M 411.694009 475.2 
L 411.694009 368.493413 
" style="fill:none;stroke:#000000;stroke-linecap:square;stroke-linejoin:miter;stroke-width:0.8;"/>
   </g>
   <g id="patch_21">
    <path d="M 172.8 475.2 
L 411.694009 475.2 
" style="fill:none;stroke:#000000;stroke-linecap:square;stroke-linejoin:miter;stroke-width:0.8;"/>
   </g>
   <g id="patch_22">
    <path d="M 172.8 368.493413 
L 411.694009 368.493413 
" style="fill:none;stroke:#000000;stroke-linecap:square;stroke-linejoin:miter;stroke-width:0.8;"/>
   </g>
  </g>
  <g id="axes_6">
   <g id="PathCollection_3">
    <g clip-path="url(#pf4a0a6b3f1)">
     <use style="stroke:#000000;" x="482.237055" xlink:href="#mc655ea4f3a" y="418.888401"/>
     <use style="stroke:#000000;" x="482.512625" xlink:href="#mc655ea4f3a" y="418.888401"/>
     <use style="stroke:#000000;" x="484.606036" xlink:href="#mc655ea4f3a" y="418.888401"/>
     <use style="stroke:#000000;" x="488.969439" xlink:href="#mc655ea4f3a" y="418.888401"/>
     <use style="stroke:#000000;" x="495.578026" xlink:href="#mc655ea4f3a" y="418.888401"/>
     <use style="stroke:#000000;" x="503.431631" xlink:href="#mc655ea4f3a" y="418.888401"/>
     <use style="stroke:#000000;" x="511.340279" xlink:href="#mc655ea4f3a" y="418.888401"/>
     <use style="stroke:#000000;" x="519.249001" xlink:href="#mc655ea4f3a" y="418.888401"/>
     <use style="stroke:#000000;" x="527.157726" xlink:href="#mc655ea4f3a" y="418.888401"/>
     <use style="stroke:#000000;" x="535.066445" xlink:href="#mc655ea4f3a" y="418.888401"/>
     <use style="stroke:#000000;" x="542.975168" xlink:href="#mc655ea4f3a" y="418.888401"/>
     <use style="stroke:#000000;" x="550.883887" xlink:href="#mc655ea4f3a" y="418.888401"/>
     <use style="stroke:#000000;" x="558.79261" xlink:href="#mc655ea4f3a" y="418.888401"/>
     <use style="stroke:#000000;" x="566.701332" xlink:href="#mc655ea4f3a" y="418.888401"/>
     <use style="stroke:#000000;" x="574.610052" xlink:href="#mc655ea4f3a" y="418.888401"/>
     <use style="stroke:#000000;" x="582.518774" xlink:href="#mc655ea4f3a" y="418.888401"/>
     <use style="stroke:#000000;" x="590.427495" xlink:href="#mc655ea4f3a" y="418.888401"/>
     <use style="stroke:#000000;" x="598.336217" xlink:href="#mc655ea4f3a" y="418.888401"/>
     <use style="stroke:#000000;" x="606.24494" xlink:href="#mc655ea4f3a" y="418.888401"/>
     <use style="stroke:#000000;" x="614.153663" xlink:href="#mc655ea4f3a" y="418.888401"/>
     <use style="stroke:#000000;" x="622.062383" xlink:href="#mc655ea4f3a" y="418.888401"/>
     <use style="stroke:#000000;" x="629.970087" xlink:href="#mc655ea4f3a" y="418.887383"/>
     <use style="stroke:#000000;" x="637.664685" xlink:href="#mc655ea4f3a" y="418.679849"/>
     <use style="stroke:#000000;" x="644.217454" xlink:href="#mc655ea4f3a" y="417.617131"/>
     <use style="stroke:#000000;" x="649.574223" xlink:href="#mc655ea4f3a" y="416.449784"/>
     <use style="stroke:#000000;" x="654.565466" xlink:href="#mc655ea4f3a" y="416.068583"/>
     <use style="stroke:#000000;" x="658.327489" xlink:href="#mc655ea4f3a" y="416.55281"/>
     <use style="stroke:#000000;" x="660.229043" xlink:href="#mc655ea4f3a" y="417.779261"/>
     <use style="stroke:#000000;" x="661.138123" xlink:href="#mc655ea4f3a" y="418.746624"/>
     <use style="stroke:#000000;" x="661.269361" xlink:href="#mc655ea4f3a" y="418.887942"/>
    </g>
   </g>
   <g id="patch_23">
    <path clip-path="url(#pf4a0a6b3f1)" d="M 482.237055 418.888401 
L 454.991318 446.134139 
M 482.512625 418.888401 
L 455.266887 446.134139 
M 484.606036 418.888401 
L 457.360298 446.134139 
M 488.969439 418.888401 
L 461.723702 446.134139 
M 495.578026 418.888401 
L 468.332288 446.134139 
M 503.431631 418.888401 
L 476.185894 446.134139 
M 511.340279 418.888401 
L 484.094541 446.134139 
M 519.249001 418.888401 
L 492.003264 446.134139 
M 527.157726 418.888401 
L 499.911988 446.134139 
M 535.066445 418.888401 
L 507.820707 446.134139 
M 542.975168 418.888401 
L 515.72943 446.134139 
M 550.883887 418.888401 
L 523.63815 446.134139 
M 558.79261 418.888401 
L 531.546872 446.134139 
M 566.701332 418.888401 
L 539.455594 446.134139 
M 574.610052 418.888401 
L 547.364314 446.134139 
M 582.518774 418.888401 
L 555.273037 446.134139 
M 590.427495 418.888401 
L 563.181757 446.134139 
M 598.336217 418.888401 
L 571.090479 446.134139 
M 606.24494 418.888401 
L 578.999202 446.134139 
M 614.153663 418.888401 
L 586.907925 446.134139 
M 622.062383 418.888401 
L 594.816645 446.134139 
M 629.970087 418.887383 
L 602.728425 446.137195 
M 637.664685 418.679849 
L 611.279516 446.759795 
M 644.217454 417.617131 
L 623.256094 449.94795 
M 649.574223 416.449784 
L 638.820377 453.44999 
M 654.565466 416.068583 
L 655.261067 454.593595 
M 658.327489 416.55281 
L 670.409346 453.140912 
M 660.229043 417.779261 
L 682.158302 449.461559 
M 661.138123 418.746624 
L 687.804695 446.55947 
M 661.269361 418.887942 
L 688.51326 446.135519 
" style="fill:#1f77b4;stroke:#000000;stroke-linejoin:miter;stroke-width:1.5;"/>
   </g>
   <g id="line2d_40">
    <path clip-path="url(#pf4a0a6b3f1)" d="M 452.305991 425.699836 
L 691.2 425.699836 
" style="fill:none;stroke:#000000;stroke-dasharray:6.4,1.6,1,1.6;stroke-dashoffset:0;"/>
   </g>
   <g id="text_25">
    <!-- $\alpha_E$ = 45$^\circ$ -->
    <defs>
     <path d="M 47.296875 16.703125 
L 37 16.703125 
L 37 0 
L 29.203125 0 
L 29.203125 16.703125 
L 1.203125 16.703125 
L 1.203125 23.09375 
L 32.59375 67.59375 
L 37 67.59375 
L 37 23.09375 
L 47.296875 23.09375 
z
M 29.203125 23.09375 
L 29.203125 57.40625 
L 5.203125 23.09375 
z
" id="STIXGeneral-Regular-52"/>
    </defs>
    <g transform="translate(541.758617 382.723848)scale(0.14 -0.14)">
     <use transform="translate(0 0.203125)" xlink:href="#STIXGeneral-Italic-945"/>
     <use transform="translate(55.199997 -13.025)scale(0.7)" xlink:href="#STIXGeneral-Italic-69"/>
     <use transform="translate(102.379366 0.203125)" xlink:href="#STIXGeneral-Regular-32"/>
     <use transform="translate(127.37935 0.203125)" xlink:href="#STIXGeneral-Regular-61"/>
     <use transform="translate(195.879335 0.203125)" xlink:href="#STIXGeneral-Regular-32"/>
     <use transform="translate(220.87932 0.203125)" xlink:href="#STIXGeneral-Regular-52"/>
     <use transform="translate(270.879305 0.203125)" xlink:href="#STIXGeneral-Regular-53"/>
     <use transform="translate(332.530568 35.478125)scale(0.7)" xlink:href="#STIXGeneral-Regular-8728"/>
    </g>
   </g>
   <g id="patch_24">
    <path d="M 475.425621 391.68409 
Q 475.425621 402.779662 475.425621 413.316217 
" style="fill:none;stroke:#000000;stroke-linecap:round;stroke-width:0.5;"/>
    <path d="M 478.225621 407.716217 
L 475.425621 413.316217 
L 472.625621 407.716217 
" style="fill:none;stroke:#000000;stroke-linecap:round;stroke-width:0.5;"/>
   </g>
   <g id="text_26">
    <!-- $\^t = 0$ -->
    <g transform="translate(463.105621 384.650413)scale(0.14 -0.14)">
     <use transform="translate(39.042969 16.59375)" xlink:href="#STIXGeneral-Regular-770"/>
     <use transform="translate(0 0.203125)" xlink:href="#STIXGeneral-Italic-116"/>
     <use transform="translate(42.239984 0.203125)" xlink:href="#STIXGeneral-Regular-61"/>
     <use transform="translate(125.179965 0.203125)" xlink:href="#STIXGeneral-Regular-48"/>
    </g>
   </g>
   <g id="patch_25">
    <path d="M 668.080336 391.68409 
Q 668.080336 402.779662 668.080336 413.316217 
" style="fill:none;stroke:#000000;stroke-linecap:round;stroke-width:0.5;"/>
    <path d="M 670.880336 407.716217 
L 668.080336 413.316217 
L 665.280336 407.716217 
" style="fill:none;stroke:#000000;stroke-linecap:round;stroke-width:0.5;"/>
   </g>
   <g id="text_27">
    <!-- $\^t\/=\/1$ -->
    <g transform="translate(654.080336 384.650413)scale(0.14 -0.14)">
     <use transform="translate(39.042969 16.59375)" xlink:href="#STIXGeneral-Regular-770"/>
     <use transform="translate(0 0.203125)" xlink:href="#STIXGeneral-Italic-116"/>
     <use transform="translate(54.273555 0.203125)" xlink:href="#STIXGeneral-Regular-61"/>
     <use transform="translate(149.247107 0.203125)" xlink:href="#STIXGeneral-Regular-49"/>
    </g>
   </g>
  </g>
 </g>
 <defs>
  <clipPath id="p672609bf38">
   <rect height="106.706587" width="238.894009" x="172.8" y="118.8"/>
  </clipPath>
  <clipPath id="p9d1c25cc7b">
   <rect height="69.356325" width="238.894009" x="452.305991" y="137.475131"/>
  </clipPath>
  <clipPath id="pfd4601a7d4">
   <rect height="106.706587" width="238.894009" x="172.8" y="243.646707"/>
  </clipPath>
  <clipPath id="p1eafe2a910">
   <rect height="69.356325" width="238.894009" x="452.305991" y="262.321837"/>
  </clipPath>
  <clipPath id="pd0572a5d27">
   <rect height="106.706587" width="238.894009" x="172.8" y="368.493413"/>
  </clipPath>
  <clipPath id="pf4a0a6b3f1">
   <rect height="69.356325" width="238.894009" x="452.305991" y="387.168544"/>
  </clipPath>
 </defs>
</svg>
