<?xml version="1.0" encoding="utf-8" standalone="no"?>
<!DOCTYPE svg PUBLIC "-//W3C//DTD SVG 1.1//EN"
  "http://www.w3.org/Graphics/SVG/1.1/DTD/svg11.dtd">
<!-- Created with matplotlib (https://matplotlib.org/) -->
<svg height="594pt" version="1.1" viewBox="0 0 864 594" width="864pt" xmlns="http://www.w3.org/2000/svg" xmlns:xlink="http://www.w3.org/1999/xlink">
 <defs>
  <style type="text/css">
*{stroke-linecap:butt;stroke-linejoin:round;}
  </style>
 </defs>
 <g id="figure_1">
  <g id="patch_1">
   <path d="M 0 594 
L 864 594 
L 864 0 
L 0 0 
z
" style="fill:#ffffff;"/>
  </g>
  <g id="axes_1">
   <g id="patch_2">
    <path d="M 86.4 180.867665 
L 424.83318 180.867665 
L 424.83318 29.7 
L 86.4 29.7 
z
" style="fill:#ffffff;"/>
   </g>
   <g id="matplotlib.axis_1">
    <g id="xtick_1">
     <g id="line2d_1">
      <defs>
       <path d="M 0 0 
L 0 3.5 
" id="mabf1348481" style="stroke:#000000;stroke-width:0.8;"/>
      </defs>
      <g>
       <use style="fill:#ffffff;stroke:#000000;stroke-width:0.8;" x="86.4" xlink:href="#mabf1348481" y="180.867665"/>
      </g>
     </g>
    </g>
    <g id="xtick_2">
     <g id="line2d_2">
      <g>
       <use style="fill:#ffffff;stroke:#000000;stroke-width:0.8;" x="171.008295" xlink:href="#mabf1348481" y="180.867665"/>
      </g>
     </g>
    </g>
    <g id="xtick_3">
     <g id="line2d_3">
      <g>
       <use style="fill:#ffffff;stroke:#000000;stroke-width:0.8;" x="255.61659" xlink:href="#mabf1348481" y="180.867665"/>
      </g>
     </g>
    </g>
    <g id="xtick_4">
     <g id="line2d_4">
      <g>
       <use style="fill:#ffffff;stroke:#000000;stroke-width:0.8;" x="340.224885" xlink:href="#mabf1348481" y="180.867665"/>
      </g>
     </g>
    </g>
    <g id="xtick_5">
     <g id="line2d_5">
      <g>
       <use style="fill:#ffffff;stroke:#000000;stroke-width:0.8;" x="424.83318" xlink:href="#mabf1348481" y="180.867665"/>
      </g>
     </g>
    </g>
   </g>
   <g id="matplotlib.axis_2">
    <g id="ytick_1">
     <g id="line2d_6">
      <defs>
       <path d="M 0 0 
L -3.5 0 
" id="m76796ed482" style="stroke:#000000;stroke-width:0.8;"/>
      </defs>
      <g>
       <use style="fill:#ffffff;stroke:#000000;stroke-width:0.8;" x="86.4" xlink:href="#m76796ed482" y="173.996407"/>
      </g>
     </g>
     <g id="text_1">
      <!-- 0.0 -->
      <defs>
       <path d="M 47.59375 33 
Q 47.59375 26.296875 46.296875 20.34375 
Q 45 14.40625 42.453125 9.40625 
Q 39.90625 4.40625 35.40625 1.5 
Q 30.90625 -1.40625 25 -1.40625 
Q 18.90625 -1.40625 14.296875 1.6875 
Q 9.703125 4.796875 7.203125 10 
Q 4.703125 15.203125 3.546875 21.09375 
Q 2.40625 27 2.40625 33.59375 
Q 2.40625 42.90625 4.703125 50.34375 
Q 7 57.796875 12.34375 62.6875 
Q 17.703125 67.59375 25.40625 67.59375 
Q 35.203125 67.59375 41.390625 58 
Q 47.59375 48.40625 47.59375 33 
z
M 38 32.5 
Q 38 48.296875 34.640625 56.640625 
Q 31.296875 65 24.796875 65 
Q 18.59375 65 15.296875 56.59375 
Q 12 48.203125 12 32.90625 
Q 12 17.5 15.296875 9.34375 
Q 18.59375 1.203125 25 1.203125 
Q 31.296875 1.203125 34.640625 9.34375 
Q 38 17.5 38 32.5 
z
" id="STIXGeneral-Regular-48"/>
       <path d="M 18.09375 4.296875 
Q 18.09375 2.09375 16.4375 0.5 
Q 14.796875 -1.09375 12.5 -1.09375 
Q 10.203125 -1.09375 8.59375 0.5 
Q 7 2.09375 7 4.390625 
Q 7 6.703125 8.640625 8.34375 
Q 10.296875 10 12.59375 10 
Q 14.796875 10 16.4375 8.296875 
Q 18.09375 6.59375 18.09375 4.296875 
z
" id="STIXGeneral-Regular-46"/>
      </defs>
      <g transform="translate(56.9 180.143126)scale(0.18 -0.18)">
       <use xlink:href="#STIXGeneral-Regular-48"/>
       <use x="49.999985" xlink:href="#STIXGeneral-Regular-46"/>
       <use x="74.999969" xlink:href="#STIXGeneral-Regular-48"/>
      </g>
     </g>
    </g>
    <g id="ytick_2">
     <g id="line2d_7">
      <g>
       <use style="fill:#ffffff;stroke:#000000;stroke-width:0.8;" x="86.4" xlink:href="#m76796ed482" y="105.283832"/>
      </g>
     </g>
     <g id="text_2">
      <!-- 0.5 -->
      <defs>
       <path d="M 43.796875 68.09375 
L 40.203125 59.59375 
Q 39.59375 58.296875 37.5 58.296875 
L 18.09375 58.296875 
L 14.09375 49.796875 
Q 25.09375 47.703125 30 45.25 
Q 34.90625 42.796875 39.09375 37 
Q 42.59375 32.203125 42.59375 24.296875 
Q 42.59375 17.09375 40.25 12.1875 
Q 37.90625 7.296875 32.796875 3.5 
Q 26 -1.40625 15.796875 -1.40625 
Q 10.09375 -1.40625 6.59375 0.296875 
Q 3.09375 2 3.09375 4.796875 
Q 3.09375 8.59375 7.59375 8.59375 
Q 11.203125 8.59375 15 5.5 
Q 18.90625 2.296875 22.09375 2.296875 
Q 27.296875 2.296875 31.4375 7.5 
Q 35.59375 12.703125 35.59375 19.203125 
Q 35.59375 28.796875 28.90625 34.203125 
Q 20.203125 41.203125 7.59375 41.203125 
Q 6.40625 41.203125 6.40625 42 
L 6.5 42.5 
L 17.40625 66.203125 
L 38.09375 66.203125 
Q 39.796875 66.203125 40.75 66.703125 
Q 41.703125 67.203125 42.90625 68.796875 
z
" id="STIXGeneral-Regular-53"/>
      </defs>
      <g transform="translate(56.9 111.430551)scale(0.18 -0.18)">
       <use xlink:href="#STIXGeneral-Regular-48"/>
       <use x="49.999985" xlink:href="#STIXGeneral-Regular-46"/>
       <use x="74.999969" xlink:href="#STIXGeneral-Regular-53"/>
      </g>
     </g>
    </g>
    <g id="ytick_3">
     <g id="line2d_8">
      <g>
       <use style="fill:#ffffff;stroke:#000000;stroke-width:0.8;" x="86.4" xlink:href="#m76796ed482" y="36.571257"/>
      </g>
     </g>
     <g id="text_3">
      <!-- 1.0 -->
      <defs>
       <path d="M 39.40625 0 
L 11.796875 0 
L 11.796875 1.5 
Q 17.296875 1.796875 19.296875 3.546875 
Q 21.296875 5.296875 21.296875 9.5 
L 21.296875 54.40625 
Q 21.296875 59.296875 18.296875 59.296875 
Q 16.90625 59.296875 13.796875 58.09375 
L 11.09375 57.09375 
L 11.09375 58.5 
L 29 67.59375 
L 29.90625 67.296875 
L 29.90625 7.59375 
Q 29.90625 4.296875 31.90625 2.890625 
Q 33.90625 1.5 39.40625 1.5 
z
" id="STIXGeneral-Regular-49"/>
      </defs>
      <g transform="translate(56.9 42.717976)scale(0.18 -0.18)">
       <use xlink:href="#STIXGeneral-Regular-49"/>
       <use x="49.999985" xlink:href="#STIXGeneral-Regular-46"/>
       <use x="74.999969" xlink:href="#STIXGeneral-Regular-48"/>
      </g>
     </g>
    </g>
   </g>
   <g id="line2d_9">
    <path clip-path="url(#p5f45fc6c67)" d="M 86.4 173.89232 
L 87.41569 173.658258 
L 88.092817 173.269142 
L 88.600662 172.733249 
L 89.108507 171.869438 
L 89.616352 170.567915 
L 90.293479 168.049597 
L 91.139887 163.772208 
L 92.494141 155.430431 
L 96.38762 129.308282 
L 108.406621 48.70919 
L 109.422311 43.245679 
L 110.099438 40.519687 
L 110.776565 38.686762 
L 111.28441 37.829742 
L 111.961537 37.17677 
L 112.638664 36.856471 
L 113.654354 36.665998 
L 115.685733 36.589411 
L 128.043297 36.581725 
L 152.927707 36.580202 
L 161.053229 36.580614 
L 207.436415 36.582579 
L 215.054091 36.581367 
L 227.750218 36.622085 
L 229.104472 36.782961 
L 229.95088 37.111364 
L 230.458725 37.513525 
L 230.966571 38.179477 
L 231.474415 39.223981 
L 231.982261 40.742414 
L 232.659388 43.552678 
L 233.505796 48.092616 
L 235.029331 57.725675 
L 240.615627 95.384204 
L 250.433966 161.180424 
L 251.449655 166.787886 
L 252.126782 169.661237 
L 252.803909 171.640229 
L 253.311755 172.585869 
L 253.819599 173.180356 
L 254.496726 173.615564 
L 255.343134 173.852713 
L 256.697393 173.967665 
L 260.42158 173.996407 
L 424.963392 173.996407 
L 424.963392 173.996407 
" style="fill:none;stroke:#1f77b4;stroke-linecap:square;stroke-width:4;"/>
   </g>
   <g id="line2d_10">
    <path clip-path="url(#p5f45fc6c67)" d="M 86.4 173.996407 
L 424.963392 173.996407 
L 424.963392 173.996407 
" style="fill:none;stroke:#ff7f0e;stroke-linecap:square;stroke-width:4;"/>
   </g>
   <g id="line2d_11">
    <path clip-path="url(#p5f45fc6c67)" d="M 255.61659 180.867665 
L 255.61659 29.7 
" style="fill:none;stroke:#000000;stroke-linecap:square;stroke-width:0.5;"/>
   </g>
   <g id="patch_3">
    <path d="M 86.4 180.867665 
L 86.4 29.7 
" style="fill:none;stroke:#000000;stroke-linecap:square;stroke-linejoin:miter;stroke-width:0.8;"/>
   </g>
   <g id="patch_4">
    <path d="M 424.83318 180.867665 
L 424.83318 29.7 
" style="fill:none;stroke:#000000;stroke-linecap:square;stroke-linejoin:miter;stroke-width:0.8;"/>
   </g>
   <g id="patch_5">
    <path d="M 86.4 180.867665 
L 424.83318 180.867665 
" style="fill:none;stroke:#000000;stroke-linecap:square;stroke-linejoin:miter;stroke-width:0.8;"/>
   </g>
   <g id="patch_6">
    <path d="M 86.4 29.7 
L 424.83318 29.7 
" style="fill:none;stroke:#000000;stroke-linecap:square;stroke-linejoin:miter;stroke-width:0.8;"/>
   </g>
   <g id="legend_1">
    <g id="line2d_12">
     <path d="M 338.91756 48.4425 
L 368.90556 48.4425 
" style="fill:none;stroke:#1f77b4;stroke-linecap:square;stroke-width:4;"/>
    </g>
    <g id="line2d_13"/>
    <g id="text_4">
     <!-- $u/U_T$ -->
     <defs>
      <path d="M 46.09375 11.90625 
L 47.5 11 
Q 42.703125 3.703125 40 1.390625 
Q 37.296875 -0.90625 33.703125 -0.90625 
Q 28.90625 -0.90625 28.90625 3.90625 
Q 28.90625 8.40625 33.40625 23.59375 
Q 24.5 9 19.640625 3.953125 
Q 14.796875 -1.09375 9.5 -1.09375 
Q 4.203125 -1.09375 4.203125 4.203125 
Q 4.203125 6 6.90625 17 
L 10.40625 30.90625 
Q 11.796875 36.703125 11.796875 37.59375 
Q 11.796875 38.796875 10.6875 39.390625 
Q 9.59375 40 5.703125 40 
L 5.703125 41.40625 
Q 12.59375 42.203125 20.703125 44.09375 
L 21.09375 43.796875 
L 12.203125 8.296875 
Q 11.90625 7.40625 11.90625 6.703125 
Q 11.90625 4.203125 13.90625 4.203125 
Q 18.40625 4.203125 28.09375 18.90625 
Q 31.40625 23.90625 33.25 28.046875 
Q 35.09375 32.203125 39.09375 43.203125 
L 46.5 43.203125 
L 38.59375 13.296875 
Q 36.703125 6.09375 36.703125 5.5 
Q 36.703125 3.796875 37.796875 3.796875 
Q 39 3.796875 40.703125 5.390625 
Q 42.40625 7 46.09375 11.90625 
z
" id="STIXGeneral-Italic-117"/>
      <path d="M 28.703125 67.59375 
L 5.90625 -1.40625 
L -0.90625 -1.40625 
L 22 67.59375 
z
" id="STIXGeneral-Regular-47"/>
      <path d="M 76.5 65.296875 
L 76.5 63.703125 
Q 74.40625 63.203125 73.34375 62.75 
Q 72.296875 62.296875 71.296875 61.640625 
Q 70.296875 61 69.546875 59.203125 
Q 68.796875 57.40625 68.09375 55.296875 
Q 67.40625 53.203125 66.09375 48.796875 
L 57.796875 20.296875 
Q 54.40625 8.703125 48.09375 3.40625 
Q 42.09375 -1.796875 32.296875 -1.796875 
Q 22.5 -1.796875 16.34375 2.796875 
Q 10.203125 7.40625 10.203125 14.59375 
Q 10.203125 20.09375 14.59375 36.203125 
L 19.796875 55.09375 
Q 20.703125 58.296875 20.703125 59.59375 
Q 20.703125 61.59375 18.953125 62.59375 
Q 17.203125 63.59375 12.703125 63.703125 
L 12.703125 65.296875 
L 39.90625 65.296875 
L 39.90625 63.703125 
Q 34.796875 63.203125 32.84375 61.5 
Q 30.90625 59.796875 29.5 54.59375 
L 23.203125 32 
Q 19.203125 17.90625 19.203125 14.09375 
Q 19.203125 8.796875 23.140625 5.546875 
Q 27.09375 2.296875 33 2.296875 
Q 41.40625 2.296875 46.5 7.6875 
Q 51.59375 13.09375 55 25.5 
L 61.40625 48.796875 
Q 63.703125 57.296875 63.703125 59.09375 
Q 63.703125 61.296875 62.203125 62.296875 
Q 60.703125 63.296875 56.703125 63.703125 
L 56.703125 65.296875 
z
" id="STIXGeneral-Italic-85"/>
      <path d="M 63.296875 65.296875 
L 58.90625 48.90625 
L 57.203125 49.09375 
Q 57.5 51.59375 57.5 53.703125 
Q 57.5 61.796875 47.40625 61.796875 
L 41.59375 61.796875 
L 27.90625 12.796875 
Q 26.5 7.90625 26.5 6.203125 
Q 26.5 3.90625 27.59375 3.046875 
Q 28.703125 2.203125 31.796875 1.90625 
L 35.296875 1.59375 
L 35.296875 0 
L 6.5 0 
L 6.5 1.59375 
Q 11.703125 2.09375 13.890625 3.59375 
Q 16.09375 5.09375 17.203125 9.09375 
L 31.5 61.796875 
Q 19.59375 61.796875 15.4375 59.640625 
Q 11.296875 57.5 7.703125 49.40625 
L 5.90625 49.796875 
L 10.09375 65.296875 
z
" id="STIXGeneral-Italic-84"/>
     </defs>
     <g transform="translate(380.90076 53.6904)scale(0.14994 -0.14994)">
      <use transform="translate(0 0.40625)" xlink:href="#STIXGeneral-Italic-117"/>
      <use transform="translate(49.999985 0.40625)" xlink:href="#STIXGeneral-Regular-47"/>
      <use transform="translate(77.799973 0.40625)" xlink:href="#STIXGeneral-Italic-85"/>
      <use transform="translate(149.999954 -12.821875)scale(0.7)" xlink:href="#STIXGeneral-Italic-84"/>
     </g>
    </g>
    <g id="line2d_14">
     <path d="M 338.91756 69.689467 
L 368.90556 69.689467 
" style="fill:none;stroke:#ff7f0e;stroke-linecap:square;stroke-width:4;"/>
    </g>
    <g id="line2d_15"/>
    <g id="text_5">
     <!-- $\.\alpha/\.\alpha_M$ -->
     <defs>
      <path d="M -18.09375 57.203125 
Q -18.09375 55.09375 -19.546875 53.6875 
Q -21 52.296875 -23.09375 52.296875 
Q -25.09375 52.296875 -26.546875 53.75 
Q -28 55.203125 -28 57.203125 
Q -28 59.296875 -26.640625 60.75 
Q -25.296875 62.203125 -23.09375 62.203125 
Q -20.796875 62.203125 -19.4375 60.796875 
Q -18.09375 59.40625 -18.09375 57.203125 
z
" id="STIXGeneral-Regular-775"/>
      <path d="M 54.90625 42.796875 
L 40.703125 16.703125 
L 40.703125 14.90625 
Q 40.703125 11 41.59375 8 
Q 42.5 5 44.09375 5 
Q 46.40625 5 49.203125 12.40625 
L 50.796875 11.703125 
Q 47.09375 -0.90625 40.703125 -0.90625 
Q 35.796875 -0.90625 35.5 9.59375 
Q 26.703125 -1.09375 16.09375 -1.09375 
Q 9.203125 -1.09375 5.953125 3.09375 
Q 2.703125 7.296875 2.703125 14.09375 
Q 2.703125 20.203125 5.140625 26.140625 
Q 7.59375 32.09375 11.796875 36.40625 
Q 15.203125 39.796875 19.84375 41.9375 
Q 24.5 44.09375 29.09375 44.09375 
Q 35.09375 44.09375 38.390625 40.546875 
Q 41.703125 37 41.703125 32.203125 
L 46.296875 42.796875 
z
M 35.90625 27.203125 
Q 35.90625 42 28.203125 42 
Q 23 42 16.953125 32.796875 
Q 10.90625 23.59375 10.90625 12.5 
Q 10.90625 7.703125 12.59375 4.34375 
Q 14.296875 1 17.796875 1 
Q 25.09375 1 34.296875 20.09375 
Q 34.40625 20.703125 34.84375 22.046875 
Q 35.296875 23.40625 35.59375 24.703125 
Q 35.90625 26 35.90625 27.203125 
z
" id="STIXGeneral-Italic-945"/>
      <path d="M 87.203125 65.296875 
L 87.203125 63.703125 
Q 83.09375 63 81.640625 61.640625 
Q 80.203125 60.296875 79.09375 56.296875 
L 66.796875 12 
Q 65.40625 7 65.40625 5.796875 
Q 65.40625 3.796875 67.203125 2.75 
Q 69 1.703125 73.5 1.59375 
L 73.40625 0 
L 46.296875 0 
L 46.296875 1.59375 
Q 51.203125 2.09375 53.203125 3.796875 
Q 55.203125 5.5 56.5 10.203125 
L 69.09375 56.09375 
L 31.5 0 
L 29.796875 0 
L 23.59375 54.59375 
L 11.796875 11.796875 
Q 10.90625 8.59375 10.90625 6.40625 
Q 10.90625 2.09375 17.90625 1.59375 
L 17.90625 0 
L -1.796875 0 
L -1.796875 1.59375 
Q 2.203125 2.09375 4.046875 4.4375 
Q 5.90625 6.796875 8.203125 15 
L 19.59375 55.09375 
Q 20.796875 59.203125 20.796875 60.296875 
Q 20.796875 63.296875 13.40625 63.703125 
L 13.40625 65.296875 
L 31.5 65.296875 
L 37.09375 16.09375 
L 70.59375 65.296875 
z
" id="STIXGeneral-Italic-77"/>
     </defs>
     <g transform="translate(380.90076 74.937367)scale(0.14994 -0.14994)">
      <use transform="translate(56.046875 4.703125)" xlink:href="#STIXGeneral-Regular-775"/>
      <use transform="translate(0 0.40625)" xlink:href="#STIXGeneral-Italic-945"/>
      <use transform="translate(55.199997 0.40625)" xlink:href="#STIXGeneral-Regular-47"/>
      <use transform="translate(139.04686 4.703125)" xlink:href="#STIXGeneral-Regular-775"/>
      <use transform="translate(82.999985 0.40625)" xlink:href="#STIXGeneral-Italic-945"/>
      <use transform="translate(139.743263 -12.821875)scale(0.7)" xlink:href="#STIXGeneral-Italic-77"/>
     </g>
    </g>
   </g>
  </g>
  <g id="axes_2">
   <g id="PathCollection_1">
    <defs>
     <path d="M 0 2.236068 
C 0.593012 2.236068 1.161816 2.000462 1.581139 1.581139 
C 2.000462 1.161816 2.236068 0.593012 2.236068 0 
C 2.236068 -0.593012 2.000462 -1.161816 1.581139 -1.581139 
C 1.161816 -2.000462 0.593012 -2.236068 0 -2.236068 
C -0.593012 -2.236068 -1.161816 -2.000462 -1.581139 -1.581139 
C -2.000462 -1.161816 -2.236068 -0.593012 -2.236068 0 
C -2.236068 0.593012 -2.000462 1.161816 -1.581139 1.581139 
C -1.161816 2.000462 -0.593012 2.236068 0 2.236068 
z
" id="m1cc70047a4" style="stroke:#000000;"/>
    </defs>
    <g clip-path="url(#pf4d3f97e6b)">
     <use style="stroke:#000000;" x="524.769162" xlink:href="#m1cc70047a4" y="101.0929"/>
     <use style="stroke:#000000;" x="525.159552" xlink:href="#m1cc70047a4" y="101.0929"/>
     <use style="stroke:#000000;" x="528.125218" xlink:href="#m1cc70047a4" y="101.0929"/>
     <use style="stroke:#000000;" x="534.306706" xlink:href="#m1cc70047a4" y="101.0929"/>
     <use style="stroke:#000000;" x="543.66887" xlink:href="#m1cc70047a4" y="101.0929"/>
     <use style="stroke:#000000;" x="554.794811" xlink:href="#m1cc70047a4" y="101.0929"/>
     <use style="stroke:#000000;" x="565.998729" xlink:href="#m1cc70047a4" y="101.0929"/>
     <use style="stroke:#000000;" x="577.202752" xlink:href="#m1cc70047a4" y="101.0929"/>
     <use style="stroke:#000000;" x="588.406778" xlink:href="#m1cc70047a4" y="101.0929"/>
     <use style="stroke:#000000;" x="599.610797" xlink:href="#m1cc70047a4" y="101.0929"/>
     <use style="stroke:#000000;" x="610.814821" xlink:href="#m1cc70047a4" y="101.0929"/>
     <use style="stroke:#000000;" x="622.018841" xlink:href="#m1cc70047a4" y="101.0929"/>
     <use style="stroke:#000000;" x="633.222864" xlink:href="#m1cc70047a4" y="101.0929"/>
     <use style="stroke:#000000;" x="644.426887" xlink:href="#m1cc70047a4" y="101.0929"/>
     <use style="stroke:#000000;" x="655.630907" xlink:href="#m1cc70047a4" y="101.0929"/>
     <use style="stroke:#000000;" x="666.83493" xlink:href="#m1cc70047a4" y="101.0929"/>
     <use style="stroke:#000000;" x="678.038951" xlink:href="#m1cc70047a4" y="101.0929"/>
     <use style="stroke:#000000;" x="689.242974" xlink:href="#m1cc70047a4" y="101.0929"/>
     <use style="stroke:#000000;" x="700.446999" xlink:href="#m1cc70047a4" y="101.0929"/>
     <use style="stroke:#000000;" x="711.651023" xlink:href="#m1cc70047a4" y="101.0929"/>
     <use style="stroke:#000000;" x="722.855042" xlink:href="#m1cc70047a4" y="101.0929"/>
     <use style="stroke:#000000;" x="734.059066" xlink:href="#m1cc70047a4" y="101.0929"/>
     <use style="stroke:#000000;" x="745.263088" xlink:href="#m1cc70047a4" y="101.0929"/>
     <use style="stroke:#000000;" x="756.46711" xlink:href="#m1cc70047a4" y="101.0929"/>
     <use style="stroke:#000000;" x="767.671028" xlink:href="#m1cc70047a4" y="101.0929"/>
     <use style="stroke:#000000;" x="778.796968" xlink:href="#m1cc70047a4" y="101.0929"/>
     <use style="stroke:#000000;" x="788.159133" xlink:href="#m1cc70047a4" y="101.0929"/>
     <use style="stroke:#000000;" x="794.340622" xlink:href="#m1cc70047a4" y="101.0929"/>
     <use style="stroke:#000000;" x="797.306284" xlink:href="#m1cc70047a4" y="101.0929"/>
     <use style="stroke:#000000;" x="797.696675" xlink:href="#m1cc70047a4" y="101.0929"/>
    </g>
   </g>
   <g id="patch_7">
    <path clip-path="url(#pf4d3f97e6b)" d="M 524.769162 101.0929 
L 486.171033 139.691028 
M 525.159552 101.0929 
L 486.561423 139.691028 
M 528.125218 101.0929 
L 489.527089 139.691028 
M 534.306706 101.0929 
L 495.708577 139.691028 
M 543.66887 101.0929 
L 505.070741 139.691028 
M 554.794811 101.0929 
L 516.196683 139.691028 
M 565.998729 101.0929 
L 527.4006 139.691028 
M 577.202752 101.0929 
L 538.604623 139.691028 
M 588.406778 101.0929 
L 549.80865 139.691028 
M 599.610797 101.0929 
L 561.012669 139.691028 
M 610.814821 101.0929 
L 572.216693 139.691028 
M 622.018841 101.0929 
L 583.420712 139.691028 
M 633.222864 101.0929 
L 594.624735 139.691028 
M 644.426887 101.0929 
L 605.828759 139.691028 
M 655.630907 101.0929 
L 617.032778 139.691028 
M 666.83493 101.0929 
L 628.236802 139.691028 
M 678.038951 101.0929 
L 639.440823 139.691028 
M 689.242974 101.0929 
L 650.644845 139.691028 
M 700.446999 101.0929 
L 661.84887 139.691028 
M 711.651023 101.0929 
L 673.052894 139.691028 
M 722.855042 101.0929 
L 684.256914 139.691028 
M 734.059066 101.0929 
L 695.460938 139.691028 
M 745.263088 101.0929 
L 706.66496 139.691028 
M 756.46711 101.0929 
L 717.868982 139.691028 
M 767.671028 101.0929 
L 729.0729 139.691028 
M 778.796968 101.0929 
L 740.19884 139.691028 
M 788.159133 101.0929 
L 749.561004 139.691028 
M 794.340622 101.0929 
L 755.742494 139.691028 
M 797.306284 101.0929 
L 758.708156 139.691028 
M 797.696675 101.0929 
L 759.098546 139.691028 
" style="fill:#1f77b4;stroke:#000000;stroke-linejoin:miter;stroke-width:1.5;"/>
   </g>
   <g id="line2d_16">
    <path clip-path="url(#pf4d3f97e6b)" d="M 482.36682 110.742432 
L 820.8 110.742432 
" style="fill:none;stroke:#000000;stroke-dasharray:6.4,1.6,1,1.6;stroke-dashoffset:0;"/>
   </g>
   <g id="text_6">
    <!-- $\alpha_E$ = 135$^\circ$ -->
    <defs>
     <path d="M 63.40625 65.296875 
L 60.296875 49.90625 
L 58.09375 50.09375 
Q 58.40625 52.59375 58.40625 54.703125 
Q 58.40625 59.203125 54.703125 60.59375 
Q 51 62 39.203125 62 
Q 35 62 33.703125 61.546875 
Q 32.40625 61.09375 31.90625 59.40625 
L 25.296875 36.09375 
L 33.09375 36.09375 
Q 39.703125 36.09375 41.890625 37.6875 
Q 44.09375 39.296875 47 45.796875 
L 48.796875 45.40625 
L 42 22.203125 
L 40 22.703125 
Q 40.703125 25.796875 40.703125 27.90625 
Q 40.703125 30.296875 40 31 
Q 38.296875 32.5 32.203125 32.5 
L 24.40625 32.5 
L 21.203125 21.296875 
Q 17.59375 8.59375 17.59375 6.703125 
Q 17.59375 3.296875 25.5 3.296875 
Q 38.40625 3.296875 45.796875 7.203125 
Q 49.59375 9.203125 55.203125 17 
L 56.796875 16.203125 
L 50.59375 0 
L -0.09375 0 
L -0.09375 1.59375 
Q 4.203125 2.40625 5.5 3.546875 
Q 6.796875 4.703125 8 9 
L 20.296875 53.203125 
Q 21.40625 56.90625 21.40625 59.59375 
Q 21.40625 61.59375 19.84375 62.4375 
Q 18.296875 63.296875 13.703125 63.703125 
L 13.703125 65.296875 
z
" id="STIXGeneral-Italic-69"/>
     <path id="STIXGeneral-Regular-32"/>
     <path d="M 63.703125 32 
L 4.796875 32 
L 4.796875 38.59375 
L 63.703125 38.59375 
z
M 63.703125 12 
L 4.796875 12 
L 4.796875 18.59375 
L 63.703125 18.59375 
z
" id="STIXGeneral-Regular-61"/>
     <path d="M 6.09375 51 
L 4.5 51.40625 
Q 6.796875 58.90625 11.6875 63.25 
Q 16.59375 67.59375 24.09375 67.59375 
Q 31.09375 67.59375 35.390625 63.796875 
Q 39.703125 60 39.703125 53.90625 
Q 39.703125 45.703125 30.40625 40.09375 
Q 35.90625 37.703125 38.703125 34.796875 
Q 43.09375 29.90625 43.09375 21.90625 
Q 43.09375 13.90625 38.5 7.90625 
Q 35.09375 3.296875 28.75 0.9375 
Q 22.40625 -1.40625 15.296875 -1.40625 
Q 4.09375 -1.40625 4.09375 4.296875 
Q 4.09375 5.90625 5.296875 6.90625 
Q 6.5 7.90625 8.203125 7.90625 
Q 10.703125 7.90625 14.296875 5.296875 
Q 18.703125 2.203125 22.90625 2.203125 
Q 28.40625 2.203125 32.15625 6.640625 
Q 35.90625 11.09375 35.90625 17.5 
Q 35.90625 29 25.5 32 
Q 22.40625 33 15.296875 33 
L 15.296875 34.40625 
Q 20.90625 36.296875 23.703125 38 
Q 31.796875 42.59375 31.796875 51.40625 
Q 31.796875 56.40625 28.9375 59 
Q 26.09375 61.59375 21 61.59375 
Q 12 61.59375 6.09375 51 
z
" id="STIXGeneral-Regular-51"/>
     <path d="M 23.203125 38.703125 
Q 31 30.796875 31 25.1875 
Q 31 19.59375 27.046875 15.640625 
Q 23.09375 11.703125 17.5 11.703125 
Q 11.796875 11.703125 7.890625 15.640625 
Q 4 19.59375 4 25.40625 
Q 4 31 7.953125 34.84375 
Q 11.90625 38.703125 17.703125 38.703125 
Q 23.203125 38.703125 31 30.796875 
z
M 20.40625 18.296875 
Q 24.40625 22.296875 24.40625 25.1875 
Q 24.40625 28.09375 22.40625 30.09375 
Q 20.40625 32.09375 17.703125 32.09375 
Q 14.59375 32.09375 12.59375 30.140625 
Q 10.59375 28.203125 10.59375 25.40625 
Q 10.59375 22.296875 12.546875 20.296875 
Q 14.5 18.296875 17.5 18.296875 
Q 20.40625 18.296875 24.40625 22.296875 
z
" id="STIXGeneral-Regular-8728"/>
    </defs>
    <g transform="translate(608.001374 49.432673)scale(0.18 -0.18)">
     <use transform="translate(0 0.203125)" xlink:href="#STIXGeneral-Italic-945"/>
     <use transform="translate(55.199997 -13.025)scale(0.7)" xlink:href="#STIXGeneral-Italic-69"/>
     <use transform="translate(102.379366 0.203125)" xlink:href="#STIXGeneral-Regular-32"/>
     <use transform="translate(127.37935 0.203125)" xlink:href="#STIXGeneral-Regular-61"/>
     <use transform="translate(195.879335 0.203125)" xlink:href="#STIXGeneral-Regular-32"/>
     <use transform="translate(220.87932 0.203125)" xlink:href="#STIXGeneral-Regular-49"/>
     <use transform="translate(270.879305 0.203125)" xlink:href="#STIXGeneral-Regular-51"/>
     <use transform="translate(320.879289 0.203125)" xlink:href="#STIXGeneral-Regular-53"/>
     <use transform="translate(382.530553 35.478125)scale(0.7)" xlink:href="#STIXGeneral-Regular-8728"/>
    </g>
   </g>
   <g id="patch_8">
    <path d="M 515.11963 60.06917 
Q 515.11963 77.447829 515.11963 94.26747 
" style="fill:none;stroke:#000000;stroke-linecap:round;stroke-width:0.5;"/>
    <path d="M 518.71963 87.06747 
L 515.11963 94.26747 
L 511.51963 87.06747 
" style="fill:none;stroke:#000000;stroke-linecap:round;stroke-width:0.5;"/>
   </g>
   <g id="text_7">
    <!-- $\^t = 0$ -->
    <defs>
     <path d="M -7.5 50.703125 
L -10.90625 50.703125 
L -23.09375 61 
L -35.203125 50.703125 
L -38.59375 50.703125 
L -26.203125 67.40625 
L -20 67.40625 
z
" id="STIXGeneral-Regular-770"/>
     <path d="M 29.59375 42.796875 
L 29.09375 39.59375 
L 20.703125 39.59375 
L 12 6.796875 
Q 11.796875 6 11.796875 5.40625 
Q 11.796875 3.796875 13.296875 3.796875 
Q 14.5 3.796875 16.09375 5.34375 
Q 17.703125 6.90625 21.40625 11.703125 
L 22.703125 11 
Q 18.09375 4 15.140625 1.453125 
Q 12.203125 -1.09375 8.40625 -1.09375 
Q 3.796875 -1.09375 3.796875 2.59375 
Q 3.796875 3.59375 5.40625 10 
L 13.203125 39.59375 
L 5.703125 39.59375 
L 5.59375 40.203125 
Q 5.59375 42 8.90625 42.703125 
Q 11.40625 43.296875 15.5 46.546875 
Q 19.59375 49.796875 22.203125 53.703125 
Q 22.796875 54.59375 23.59375 54.59375 
Q 24.5 54.59375 24.5 53.796875 
Q 24.5 53.296875 24.40625 53.09375 
L 21.59375 42.796875 
z
" id="STIXGeneral-Italic-116"/>
    </defs>
    <g transform="translate(499.27963 52.161973)scale(0.18 -0.18)">
     <use transform="translate(39.042969 16.59375)" xlink:href="#STIXGeneral-Regular-770"/>
     <use transform="translate(0 0.203125)" xlink:href="#STIXGeneral-Italic-116"/>
     <use transform="translate(42.239984 0.203125)" xlink:href="#STIXGeneral-Regular-61"/>
     <use transform="translate(125.179965 0.203125)" xlink:href="#STIXGeneral-Regular-48"/>
    </g>
   </g>
   <g id="patch_9">
    <path d="M 788.047143 60.06917 
Q 788.047143 77.447829 788.047143 94.26747 
" style="fill:none;stroke:#000000;stroke-linecap:round;stroke-width:0.5;"/>
    <path d="M 791.647143 87.06747 
L 788.047143 94.26747 
L 784.447143 87.06747 
" style="fill:none;stroke:#000000;stroke-linecap:round;stroke-width:0.5;"/>
   </g>
   <g id="text_8">
    <!-- $\^t\/=\/1$ -->
    <g transform="translate(770.047143 52.161973)scale(0.18 -0.18)">
     <use transform="translate(39.042969 16.59375)" xlink:href="#STIXGeneral-Regular-770"/>
     <use transform="translate(0 0.203125)" xlink:href="#STIXGeneral-Italic-116"/>
     <use transform="translate(54.273555 0.203125)" xlink:href="#STIXGeneral-Regular-61"/>
     <use transform="translate(149.247107 0.203125)" xlink:href="#STIXGeneral-Regular-49"/>
    </g>
   </g>
  </g>
  <g id="axes_3">
   <g id="patch_10">
    <path d="M 86.4 357.733832 
L 424.83318 357.733832 
L 424.83318 206.566168 
L 86.4 206.566168 
z
" style="fill:#ffffff;"/>
   </g>
   <g id="matplotlib.axis_3">
    <g id="xtick_6">
     <g id="line2d_17">
      <g>
       <use style="fill:#ffffff;stroke:#000000;stroke-width:0.8;" x="86.4" xlink:href="#mabf1348481" y="357.733832"/>
      </g>
     </g>
    </g>
    <g id="xtick_7">
     <g id="line2d_18">
      <g>
       <use style="fill:#ffffff;stroke:#000000;stroke-width:0.8;" x="171.008295" xlink:href="#mabf1348481" y="357.733832"/>
      </g>
     </g>
    </g>
    <g id="xtick_8">
     <g id="line2d_19">
      <g>
       <use style="fill:#ffffff;stroke:#000000;stroke-width:0.8;" x="255.61659" xlink:href="#mabf1348481" y="357.733832"/>
      </g>
     </g>
    </g>
    <g id="xtick_9">
     <g id="line2d_20">
      <g>
       <use style="fill:#ffffff;stroke:#000000;stroke-width:0.8;" x="340.224885" xlink:href="#mabf1348481" y="357.733832"/>
      </g>
     </g>
    </g>
    <g id="xtick_10">
     <g id="line2d_21">
      <g>
       <use style="fill:#ffffff;stroke:#000000;stroke-width:0.8;" x="424.83318" xlink:href="#mabf1348481" y="357.733832"/>
      </g>
     </g>
    </g>
   </g>
   <g id="matplotlib.axis_4">
    <g id="ytick_4">
     <g id="line2d_22">
      <g>
       <use style="fill:#ffffff;stroke:#000000;stroke-width:0.8;" x="86.4" xlink:href="#m76796ed482" y="350.862575"/>
      </g>
     </g>
     <g id="text_9">
      <!-- 0.0 -->
      <g transform="translate(56.9 357.009294)scale(0.18 -0.18)">
       <use xlink:href="#STIXGeneral-Regular-48"/>
       <use x="49.999985" xlink:href="#STIXGeneral-Regular-46"/>
       <use x="74.999969" xlink:href="#STIXGeneral-Regular-48"/>
      </g>
     </g>
    </g>
    <g id="ytick_5">
     <g id="line2d_23">
      <g>
       <use style="fill:#ffffff;stroke:#000000;stroke-width:0.8;" x="86.4" xlink:href="#m76796ed482" y="282.15"/>
      </g>
     </g>
     <g id="text_10">
      <!-- 0.5 -->
      <g transform="translate(56.9 288.296719)scale(0.18 -0.18)">
       <use xlink:href="#STIXGeneral-Regular-48"/>
       <use x="49.999985" xlink:href="#STIXGeneral-Regular-46"/>
       <use x="74.999969" xlink:href="#STIXGeneral-Regular-53"/>
      </g>
     </g>
    </g>
    <g id="ytick_6">
     <g id="line2d_24">
      <g>
       <use style="fill:#ffffff;stroke:#000000;stroke-width:0.8;" x="86.4" xlink:href="#m76796ed482" y="213.437425"/>
      </g>
     </g>
     <g id="text_11">
      <!-- 1.0 -->
      <g transform="translate(56.9 219.584144)scale(0.18 -0.18)">
       <use xlink:href="#STIXGeneral-Regular-49"/>
       <use x="49.999985" xlink:href="#STIXGeneral-Regular-46"/>
       <use x="74.999969" xlink:href="#STIXGeneral-Regular-48"/>
      </g>
     </g>
    </g>
    <g id="text_12">
     <!-- Normalized velocity -->
     <defs>
      <path d="M 70.703125 66.203125 
L 70.703125 64.296875 
Q 65.59375 63.796875 64.09375 62.5 
Q 62.5 61.09375 61.84375 58.6875 
Q 61.203125 56.296875 61.203125 50.703125 
L 61.203125 -1.09375 
L 59.40625 -1.09375 
L 15.296875 53.796875 
L 15.296875 15 
Q 15.296875 7.40625 17 5.046875 
Q 18.703125 2.703125 24.59375 1.90625 
L 24.59375 0 
L 1.203125 0 
L 1.203125 1.90625 
Q 7.40625 2.59375 9.15625 4.84375 
Q 10.90625 7.09375 10.90625 15 
L 10.90625 59 
Q 8.296875 62.203125 6.5 63.25 
Q 4.703125 64.296875 1.203125 64.296875 
L 1.203125 66.203125 
L 18.203125 66.203125 
L 56.796875 17.90625 
L 56.796875 51.90625 
Q 56.796875 59.5 54.90625 61.703125 
Q 53.703125 63 52.25 63.453125 
Q 50.796875 63.90625 47 64.296875 
L 47 66.203125 
z
" id="STIXGeneral-Regular-78"/>
      <path d="M 47 23.09375 
Q 47 12.59375 40.75 5.796875 
Q 34.5 -1 24.5 -1 
Q 15.296875 -1 9.09375 5.75 
Q 2.90625 12.5 2.90625 22.796875 
Q 2.90625 33.203125 9.09375 39.59375 
Q 15.296875 46 25.40625 46 
Q 34.703125 46 40.84375 39.640625 
Q 47 33.296875 47 23.09375 
z
M 38 20.40625 
Q 38 31.796875 33 38.203125 
Q 29 43.203125 23.5 43.203125 
Q 18.296875 43.203125 15.09375 38.953125 
Q 11.90625 34.703125 11.90625 27.296875 
Q 11.90625 14.5 17.203125 6.796875 
Q 20.59375 1.796875 26.203125 1.796875 
Q 31.703125 1.796875 34.84375 6.75 
Q 38 11.703125 38 20.40625 
z
" id="STIXGeneral-Regular-111"/>
      <path d="M 16 45.796875 
L 16 36.59375 
Q 19.796875 42 22.34375 44 
Q 24.90625 46 28 46 
Q 30.59375 46 32.046875 44.59375 
Q 33.5 43.203125 33.5 40.703125 
Q 33.5 38.59375 32.453125 37.390625 
Q 31.40625 36.203125 29.59375 36.203125 
Q 27.703125 36.203125 25.59375 38.203125 
Q 24 39.703125 23 39.703125 
Q 20.90625 39.703125 18.453125 36.796875 
Q 16 33.90625 16 31.5 
L 16 9 
Q 16 4.703125 17.703125 3.203125 
Q 19.40625 1.703125 24.5 1.5 
L 24.5 0 
L 0.5 0 
L 0.5 1.5 
Q 5.296875 2.40625 6.4375 3.5 
Q 7.59375 4.59375 7.59375 8.40625 
L 7.59375 33.40625 
Q 7.59375 36.703125 6.84375 38.046875 
Q 6.09375 39.40625 4.203125 39.40625 
Q 2.59375 39.40625 0.703125 39 
L 0.703125 40.59375 
Q 7 42.59375 15.5 46 
z
" id="STIXGeneral-Regular-114"/>
      <path d="M 77.5 0 
L 55.703125 0 
L 55.703125 1.5 
Q 59.90625 1.90625 61.046875 3.25 
Q 62.203125 4.59375 62.203125 9 
L 62.203125 29.59375 
Q 62.203125 35.59375 60.453125 38.1875 
Q 58.703125 40.796875 54.5 40.796875 
Q 51 40.796875 48.546875 39.390625 
Q 46.09375 38 43.796875 34.703125 
L 43.796875 9.5 
Q 43.796875 4.703125 45.25 3.140625 
Q 46.703125 1.59375 51 1.5 
L 51 0 
L 28.59375 0 
L 28.59375 1.5 
Q 33 1.796875 34.203125 2.9375 
Q 35.40625 4.09375 35.40625 8.59375 
L 35.40625 29.703125 
Q 35.40625 40.796875 28.90625 40.796875 
Q 26.09375 40.796875 22.9375 39.546875 
Q 19.796875 38.296875 18.296875 36.5 
Q 17 35 17 34.796875 
L 17 7 
Q 17 3.796875 18.390625 2.75 
Q 19.796875 1.703125 23.796875 1.5 
L 23.796875 0 
L 1.59375 0 
L 1.59375 1.5 
Q 5.796875 1.59375 7.1875 3.046875 
Q 8.59375 4.5 8.59375 8.796875 
L 8.59375 33.59375 
Q 8.59375 37.296875 7.796875 38.75 
Q 7 40.203125 5.09375 40.203125 
Q 3.59375 40.203125 1.90625 39.796875 
L 1.90625 41.5 
Q 8.703125 43.40625 15.796875 46 
L 16.59375 45.703125 
L 16.59375 38.296875 
L 16.796875 38.296875 
Q 21.296875 43 24.75 44.5 
Q 28.203125 46 32.09375 46 
Q 40 46 42.703125 37.59375 
Q 50.5 46 59 46 
Q 70.59375 46 70.59375 28 
L 70.59375 7.703125 
Q 70.59375 4.40625 71.59375 3.15625 
Q 72.59375 1.90625 74.90625 1.703125 
L 77.5 1.5 
z
" id="STIXGeneral-Regular-109"/>
      <path d="M 44.203125 6.59375 
L 44.203125 3.796875 
Q 40.40625 -1 35.203125 -1 
Q 29.5 -1 28.796875 6.296875 
L 28.703125 6.296875 
Q 22.296875 -1 14.203125 -1 
Q 9.5 -1 6.59375 1.75 
Q 3.703125 4.5 3.703125 9.40625 
Q 3.703125 16.40625 10.703125 21.09375 
Q 15.5 24.296875 28.703125 29.203125 
L 28.703125 34.59375 
Q 28.703125 39.09375 26.546875 41.34375 
Q 24.40625 43.59375 20.90625 43.59375 
Q 17.90625 43.59375 15.90625 42.140625 
Q 13.90625 40.703125 13.90625 38.703125 
Q 13.90625 37.796875 14.203125 36.6875 
Q 14.5 35.59375 14.5 34.5 
Q 14.5 33 13.140625 31.703125 
Q 11.796875 30.40625 9.90625 30.40625 
Q 8.203125 30.40625 6.890625 31.703125 
Q 5.59375 33 5.59375 35 
Q 5.59375 39.796875 10.703125 43 
Q 15.40625 46 22.203125 46 
Q 30.296875 46 34 41.5 
Q 35.796875 39.40625 36.296875 37.25 
Q 36.796875 35.09375 36.796875 30.40625 
L 36.796875 11.296875 
Q 36.796875 4.703125 39.90625 4.703125 
Q 41.90625 4.703125 44.203125 6.59375 
z
M 28.703125 12.703125 
L 28.703125 26.796875 
Q 19.5 23.59375 15.90625 20.203125 
Q 12.5 17.09375 12.5 12.5 
Q 12.5 8.703125 14.390625 6.75 
Q 16.296875 4.796875 19.40625 4.796875 
Q 22.703125 4.796875 25.203125 6.40625 
Q 27.296875 7.90625 28 9.203125 
Q 28.703125 10.5 28.703125 12.703125 
z
" id="STIXGeneral-Regular-97"/>
      <path d="M 25.703125 0 
L 2.09375 0 
L 2.09375 1.5 
Q 6.796875 1.90625 8.296875 3.453125 
Q 9.796875 5 9.796875 9.203125 
L 9.796875 56.09375 
Q 9.796875 59.703125 8.890625 61.09375 
Q 8 62.5 5.59375 62.5 
Q 3.5 62.5 1.90625 62.296875 
L 1.90625 63.90625 
Q 11.40625 66.203125 17.703125 68.296875 
L 18.203125 67.90625 
L 18.203125 8.703125 
Q 18.203125 4.5 19.59375 3.140625 
Q 21 1.796875 25.703125 1.5 
z
" id="STIXGeneral-Regular-108"/>
      <path d="M 18 63.203125 
Q 18 61 16.5 59.546875 
Q 15 58.09375 12.796875 58.09375 
Q 10.703125 58.09375 9.25 59.546875 
Q 7.796875 61 7.796875 63.203125 
Q 7.796875 65.296875 9.296875 66.796875 
Q 10.796875 68.296875 12.90625 68.296875 
Q 15.09375 68.296875 16.546875 66.796875 
Q 18 65.296875 18 63.203125 
z
M 25.296875 0 
L 1.59375 0 
L 1.59375 1.5 
Q 6.796875 1.796875 8.140625 3.296875 
Q 9.5 4.796875 9.5 10.40625 
L 9.5 33.09375 
Q 9.5 36.59375 8.796875 38 
Q 8.09375 39.40625 6.203125 39.40625 
Q 3.796875 39.40625 2 38.90625 
L 2 40.5 
L 17.5 46 
L 17.90625 45.59375 
L 17.90625 10.5 
Q 17.90625 4.90625 19.15625 3.40625 
Q 20.40625 1.90625 25.296875 1.5 
z
" id="STIXGeneral-Regular-105"/>
      <path d="M 41.796875 13.59375 
L 40.296875 0 
L 2.703125 0 
L 2.703125 1.5 
L 29.296875 42 
L 15.796875 42 
Q 11.09375 42 9.4375 40.34375 
Q 7.796875 38.703125 7.09375 33.203125 
L 5.296875 33.203125 
L 5.703125 45 
L 40.296875 45 
L 40.296875 43.5 
L 13.40625 3 
L 26.703125 3 
Q 35.09375 3 37.296875 5.703125 
Q 38.703125 7.40625 40 14 
z
" id="STIXGeneral-Regular-122"/>
      <path d="M 40.796875 16.40625 
L 42.40625 15.703125 
Q 36.40625 -1 21.5 -1 
Q 12.703125 -1 7.59375 5.140625 
Q 2.5 11.296875 2.5 21.703125 
Q 2.5 32.40625 8.203125 39.203125 
Q 13.90625 46 23.203125 46 
Q 32.203125 46 37.09375 39.09375 
Q 40 35.09375 40.5 27.703125 
L 9.703125 27.703125 
Q 10.09375 21.40625 10.9375 18.09375 
Q 11.796875 14.796875 14.296875 11.40625 
Q 18.5 5.90625 25.40625 5.90625 
Q 30.296875 5.90625 33.640625 8.296875 
Q 37 10.703125 40.796875 16.40625 
z
M 9.90625 30.90625 
L 30.296875 30.90625 
Q 29.40625 37.203125 27.34375 39.796875 
Q 25.296875 42.40625 20.5 42.40625 
Q 16.296875 42.40625 13.5 39.453125 
Q 10.703125 36.5 9.90625 30.90625 
z
" id="STIXGeneral-Regular-101"/>
      <path d="M 49.09375 4.203125 
L 34.40625 -1 
L 34 -0.703125 
L 34 5.703125 
Q 29.203125 -1 21.203125 -1 
Q 12.90625 -1 7.796875 4.953125 
Q 2.703125 10.90625 2.703125 20.5 
Q 2.703125 31.09375 8.796875 38.546875 
Q 14.90625 46 23.5 46 
Q 28.90625 46 34 41.703125 
L 34 57.296875 
Q 34 60.40625 33.09375 61.40625 
Q 32.203125 62.40625 29.40625 62.40625 
Q 28 62.40625 27.203125 62.296875 
L 27.203125 63.90625 
Q 36.296875 66.296875 41.90625 68.296875 
L 42.40625 68.09375 
L 42.40625 11.40625 
Q 42.40625 7.90625 43.25 6.796875 
Q 44.09375 5.703125 46.796875 5.703125 
Q 47.40625 5.703125 49.09375 5.796875 
z
M 34 10.203125 
L 34 33.203125 
Q 34 37.203125 30.953125 40.203125 
Q 27.90625 43.203125 23.796875 43.203125 
Q 18.09375 43.203125 14.6875 38.09375 
Q 11.296875 33 11.296875 24.5 
Q 11.296875 15.296875 15.046875 9.75 
Q 18.796875 4.203125 25.09375 4.203125 
Q 29.796875 4.203125 32.5 7.40625 
Q 34 9.09375 34 10.203125 
z
" id="STIXGeneral-Regular-100"/>
      <path d="M 47.703125 45 
L 47.703125 43.5 
Q 45.40625 43.296875 44.296875 42 
Q 43.203125 40.703125 41.203125 35.703125 
L 28.40625 3.59375 
Q 26.40625 -1.40625 25.59375 -1.40625 
Q 24.796875 -1.40625 23.796875 1.203125 
Q 23.59375 1.5 23.390625 2.203125 
Q 23.203125 2.90625 23 3.296875 
L 11 32 
Q 7.796875 39.59375 6.296875 41.4375 
Q 4.796875 43.296875 1.90625 43.5 
L 1.90625 45 
L 21.5 45 
L 21.5 43.5 
Q 18.90625 43.296875 17.90625 42.6875 
Q 16.90625 42.09375 16.90625 40.796875 
Q 16.90625 39.203125 17.796875 37 
L 28 11.40625 
L 37.90625 37.296875 
Q 38.5 38.796875 38.5 40.296875 
Q 38.5 43.09375 33.796875 43.5 
L 33.796875 45 
z
" id="STIXGeneral-Regular-118"/>
      <path d="M 39.796875 15.59375 
L 41.203125 14.703125 
Q 36.90625 6.296875 33 3.203125 
Q 27.90625 -1 21.5 -1 
Q 13.203125 -1 7.84375 5.25 
Q 2.5 11.5 2.5 21.203125 
Q 2.5 33.90625 10.90625 40.90625 
Q 17.09375 46 24.40625 46 
Q 30.703125 46 35.25 42.953125 
Q 39.796875 39.90625 39.796875 35.703125 
Q 39.796875 34 38.390625 32.75 
Q 37 31.5 35.09375 31.5 
Q 31.59375 31.5 30.296875 36.09375 
L 29.703125 38.296875 
Q 28.90625 41.09375 27.703125 42.09375 
Q 26.5 43.09375 23.796875 43.09375 
Q 17.703125 43.09375 13.953125 38.296875 
Q 10.203125 33.5 10.203125 25.703125 
Q 10.203125 17.09375 14.5 11.640625 
Q 18.796875 6.203125 25.703125 6.203125 
Q 30 6.203125 33.09375 8.25 
Q 36.203125 10.296875 39.796875 15.59375 
z
" id="STIXGeneral-Regular-99"/>
      <path d="M 26.59375 7.703125 
L 27.90625 6.59375 
Q 23.09375 -1 15.796875 -1 
Q 7 -1 7 11.703125 
L 7 41.796875 
L 1.703125 41.796875 
Q 1.296875 42.09375 1.296875 42.5 
Q 1.296875 43.296875 3 44.40625 
Q 6.796875 46.59375 12.703125 55.09375 
Q 12.90625 55.40625 13.65625 56.34375 
Q 14.40625 57.296875 14.703125 57.90625 
Q 15.40625 57.90625 15.40625 56.59375 
L 15.40625 45 
L 25.5 45 
L 25.5 41.796875 
L 15.40625 41.796875 
L 15.40625 13.203125 
Q 15.40625 8.40625 16.59375 6.296875 
Q 17.796875 4.203125 20.59375 4.203125 
Q 23.59375 4.203125 26.59375 7.703125 
z
" id="STIXGeneral-Regular-116"/>
      <path d="M 47.5 45 
L 47.5 43.5 
Q 45.703125 43.296875 44.59375 42.1875 
Q 43.5 41.09375 42.5 38.40625 
L 27.5 -2.5 
Q 23.59375 -13.09375 19.640625 -17.4375 
Q 15.703125 -21.796875 10 -21.796875 
Q 6.796875 -21.796875 4.890625 -20.140625 
Q 3 -18.5 3 -16 
Q 3 -14.09375 4.25 -12.75 
Q 5.5 -11.40625 7.296875 -11.40625 
Q 10.203125 -11.40625 12.5 -12.703125 
Q 13.796875 -13.40625 15.09375 -13.40625 
Q 17.203125 -13.40625 20.09375 -9 
Q 21.5 -7 22.796875 -3.296875 
Q 24.09375 0.40625 24.09375 1.796875 
Q 24.09375 3.09375 19.90625 11.90625 
L 6.703125 40.09375 
Q 5.40625 43 1.40625 43.59375 
L 1.40625 45 
L 21.90625 45 
L 21.90625 43.5 
Q 18.703125 43.40625 17.453125 42.796875 
Q 16.203125 42.203125 16.203125 40.796875 
Q 16.203125 39.703125 17.5 36.703125 
L 28.703125 11.703125 
L 38.40625 39.296875 
Q 38.796875 40.203125 38.796875 41.09375 
Q 38.796875 43.5 34.203125 43.5 
L 34.203125 45 
z
" id="STIXGeneral-Regular-121"/>
     </defs>
     <g transform="translate(48.976562 355.888125)rotate(-90)scale(0.18 -0.18)">
      <use xlink:href="#STIXGeneral-Regular-78"/>
      <use x="72.199982" xlink:href="#STIXGeneral-Regular-111"/>
      <use x="122.199966" xlink:href="#STIXGeneral-Regular-114"/>
      <use x="155.499954" xlink:href="#STIXGeneral-Regular-109"/>
      <use x="233.299942" xlink:href="#STIXGeneral-Regular-97"/>
      <use x="277.699936" xlink:href="#STIXGeneral-Regular-108"/>
      <use x="305.499924" xlink:href="#STIXGeneral-Regular-105"/>
      <use x="333.299911" xlink:href="#STIXGeneral-Regular-122"/>
      <use x="377.699905" xlink:href="#STIXGeneral-Regular-101"/>
      <use x="422.099899" xlink:href="#STIXGeneral-Regular-100"/>
      <use x="472.099884" xlink:href="#STIXGeneral-Regular-32"/>
      <use x="497.099869" xlink:href="#STIXGeneral-Regular-118"/>
      <use x="547.099854" xlink:href="#STIXGeneral-Regular-101"/>
      <use x="591.499847" xlink:href="#STIXGeneral-Regular-108"/>
      <use x="619.299835" xlink:href="#STIXGeneral-Regular-111"/>
      <use x="669.29982" xlink:href="#STIXGeneral-Regular-99"/>
      <use x="713.699814" xlink:href="#STIXGeneral-Regular-105"/>
      <use x="741.499802" xlink:href="#STIXGeneral-Regular-116"/>
      <use x="769.299789" xlink:href="#STIXGeneral-Regular-121"/>
     </g>
    </g>
   </g>
   <g id="line2d_25">
    <path clip-path="url(#pd71ea0aa56)" d="M 86.4 350.758488 
L 87.41569 350.524426 
L 88.092817 350.13531 
L 88.600662 349.599417 
L 89.108507 348.735606 
L 89.616352 347.434083 
L 90.293479 344.915764 
L 91.139887 340.638375 
L 92.494141 332.296599 
L 96.38762 306.17445 
L 108.406621 225.575358 
L 109.422311 220.111847 
L 110.099438 217.385855 
L 110.776565 215.552929 
L 111.28441 214.695909 
L 111.961537 214.042938 
L 112.638664 213.722639 
L 113.654354 213.532166 
L 115.685733 213.455579 
L 128.043297 213.447892 
L 152.927707 213.44637 
L 161.053229 213.446781 
L 207.436415 213.448747 
L 215.054091 213.447534 
L 227.750218 213.488252 
L 229.104472 213.649129 
L 229.95088 213.977531 
L 230.458725 214.379692 
L 230.966571 215.045645 
L 231.474415 216.090148 
L 231.982261 217.608582 
L 232.659388 220.418845 
L 233.505796 224.958784 
L 235.029331 234.591843 
L 240.615627 272.250372 
L 250.433966 338.046591 
L 251.449655 343.654053 
L 252.126782 346.527405 
L 252.803909 348.506397 
L 253.311755 349.452036 
L 253.819599 350.046524 
L 254.496726 350.481732 
L 255.343134 350.718881 
L 256.697393 350.833833 
L 260.42158 350.862575 
L 424.963392 350.862575 
L 424.963392 350.862575 
" style="fill:none;stroke:#1f77b4;stroke-linecap:square;stroke-width:4;"/>
   </g>
   <g id="line2d_26">
    <path clip-path="url(#pd71ea0aa56)" d="M 86.4 350.862575 
L 227.411655 350.752726 
L 228.427345 350.499717 
L 229.104472 350.062509 
L 229.612317 349.424819 
L 230.120161 348.306613 
L 230.628007 346.399793 
L 231.135852 343.288489 
L 231.643698 338.523842 
L 232.151542 331.793286 
L 232.828669 319.797672 
L 233.844359 297.177072 
L 236.214304 242.153508 
L 237.060712 228.388616 
L 237.737838 221.329887 
L 238.245683 218.059726 
L 238.753529 216.044086 
L 239.261373 214.857676 
L 239.769219 214.180846 
L 240.446345 213.71973 
L 241.292754 213.489505 
L 242.477725 213.450044 
L 243.493416 213.634042 
L 244.170543 213.990267 
L 244.678387 214.518374 
L 245.186233 215.452824 
L 245.694078 217.064207 
L 246.201924 219.737745 
L 246.709768 223.925221 
L 247.217614 230.005601 
L 247.894739 241.207728 
L 248.91043 263.13011 
L 251.618938 325.308385 
L 252.296065 335.874122 
L 252.973192 342.903556 
L 253.481036 346.15698 
L 253.988882 348.161603 
L 254.496726 349.340998 
L 255.004571 350.015229 
L 255.681704 350.478098 
L 256.528109 350.720374 
L 257.882366 350.833687 
L 262.114405 350.862575 
L 424.963392 350.862575 
L 424.963392 350.862575 
" style="fill:none;stroke:#ff7f0e;stroke-linecap:square;stroke-width:4;"/>
   </g>
   <g id="line2d_27">
    <path clip-path="url(#pd71ea0aa56)" d="M 255.61659 357.733832 
L 255.61659 206.566168 
" style="fill:none;stroke:#000000;stroke-linecap:square;stroke-width:0.5;"/>
   </g>
   <g id="patch_11">
    <path d="M 86.4 357.733832 
L 86.4 206.566168 
" style="fill:none;stroke:#000000;stroke-linecap:square;stroke-linejoin:miter;stroke-width:0.8;"/>
   </g>
   <g id="patch_12">
    <path d="M 424.83318 357.733832 
L 424.83318 206.566168 
" style="fill:none;stroke:#000000;stroke-linecap:square;stroke-linejoin:miter;stroke-width:0.8;"/>
   </g>
   <g id="patch_13">
    <path d="M 86.4 357.733832 
L 424.83318 357.733832 
" style="fill:none;stroke:#000000;stroke-linecap:square;stroke-linejoin:miter;stroke-width:0.8;"/>
   </g>
   <g id="patch_14">
    <path d="M 86.4 206.566168 
L 424.83318 206.566168 
" style="fill:none;stroke:#000000;stroke-linecap:square;stroke-linejoin:miter;stroke-width:0.8;"/>
   </g>
  </g>
  <g id="axes_4">
   <g id="PathCollection_2">
    <g clip-path="url(#p5b58b46f5f)">
     <use style="stroke:#000000;" x="524.769162" xlink:href="#m1cc70047a4" y="277.959068"/>
     <use style="stroke:#000000;" x="525.159552" xlink:href="#m1cc70047a4" y="277.959068"/>
     <use style="stroke:#000000;" x="528.125218" xlink:href="#m1cc70047a4" y="277.959068"/>
     <use style="stroke:#000000;" x="534.306706" xlink:href="#m1cc70047a4" y="277.959068"/>
     <use style="stroke:#000000;" x="543.66887" xlink:href="#m1cc70047a4" y="277.959068"/>
     <use style="stroke:#000000;" x="554.794811" xlink:href="#m1cc70047a4" y="277.959068"/>
     <use style="stroke:#000000;" x="565.998729" xlink:href="#m1cc70047a4" y="277.959068"/>
     <use style="stroke:#000000;" x="577.202752" xlink:href="#m1cc70047a4" y="277.959068"/>
     <use style="stroke:#000000;" x="588.406778" xlink:href="#m1cc70047a4" y="277.959068"/>
     <use style="stroke:#000000;" x="599.610797" xlink:href="#m1cc70047a4" y="277.959068"/>
     <use style="stroke:#000000;" x="610.814821" xlink:href="#m1cc70047a4" y="277.959068"/>
     <use style="stroke:#000000;" x="622.018841" xlink:href="#m1cc70047a4" y="277.959068"/>
     <use style="stroke:#000000;" x="633.222864" xlink:href="#m1cc70047a4" y="277.959068"/>
     <use style="stroke:#000000;" x="644.426887" xlink:href="#m1cc70047a4" y="277.959068"/>
     <use style="stroke:#000000;" x="655.630907" xlink:href="#m1cc70047a4" y="277.959068"/>
     <use style="stroke:#000000;" x="666.83493" xlink:href="#m1cc70047a4" y="277.959068"/>
     <use style="stroke:#000000;" x="678.038951" xlink:href="#m1cc70047a4" y="277.959068"/>
     <use style="stroke:#000000;" x="689.242974" xlink:href="#m1cc70047a4" y="277.959068"/>
     <use style="stroke:#000000;" x="700.446999" xlink:href="#m1cc70047a4" y="277.959068"/>
     <use style="stroke:#000000;" x="711.651023" xlink:href="#m1cc70047a4" y="277.959068"/>
     <use style="stroke:#000000;" x="722.855042" xlink:href="#m1cc70047a4" y="277.959068"/>
     <use style="stroke:#000000;" x="734.059066" xlink:href="#m1cc70047a4" y="277.959068"/>
     <use style="stroke:#000000;" x="745.263088" xlink:href="#m1cc70047a4" y="277.959068"/>
     <use style="stroke:#000000;" x="756.46711" xlink:href="#m1cc70047a4" y="277.959068"/>
     <use style="stroke:#000000;" x="767.670944" xlink:href="#m1cc70047a4" y="277.958984"/>
     <use style="stroke:#000000;" x="778.715865" xlink:href="#m1cc70047a4" y="277.87864"/>
     <use style="stroke:#000000;" x="786.164101" xlink:href="#m1cc70047a4" y="276.311008"/>
     <use style="stroke:#000000;" x="788.679139" xlink:href="#m1cc70047a4" y="274.557837"/>
     <use style="stroke:#000000;" x="788.226365" xlink:href="#m1cc70047a4" y="273.973994"/>
     <use style="stroke:#000000;" x="788.048981" xlink:href="#m1cc70047a4" y="273.962101"/>
    </g>
   </g>
   <g id="patch_15">
    <path clip-path="url(#p5b58b46f5f)" d="M 524.769162 277.959068 
L 486.171033 316.557196 
M 525.159552 277.959068 
L 486.561423 316.557196 
M 528.125218 277.959068 
L 489.527089 316.557196 
M 534.306706 277.959068 
L 495.708577 316.557196 
M 543.66887 277.959068 
L 505.070741 316.557196 
M 554.794811 277.959068 
L 516.196683 316.557196 
M 565.998729 277.959068 
L 527.4006 316.557196 
M 577.202752 277.959068 
L 538.604623 316.557196 
M 588.406778 277.959068 
L 549.80865 316.557196 
M 599.610797 277.959068 
L 561.012669 316.557196 
M 610.814821 277.959068 
L 572.216693 316.557196 
M 622.018841 277.959068 
L 583.420712 316.557196 
M 633.222864 277.959068 
L 594.624735 316.557196 
M 644.426887 277.959068 
L 605.828759 316.557196 
M 655.630907 277.959068 
L 617.032778 316.557196 
M 666.83493 277.959068 
L 628.236802 316.557196 
M 678.038951 277.959068 
L 639.440823 316.557196 
M 689.242974 277.959068 
L 650.644845 316.557196 
M 700.446999 277.959068 
L 661.84887 316.557196 
M 711.651023 277.959068 
L 673.052894 316.557196 
M 722.855042 277.959068 
L 684.256914 316.557196 
M 734.059066 277.959068 
L 695.460938 316.557196 
M 745.263088 277.959068 
L 706.66496 316.557196 
M 756.46711 277.959068 
L 717.868982 316.557196 
M 767.670944 277.958984 
L 729.07315 316.557447 
M 778.715865 277.87864 
L 740.442149 316.798478 
M 786.164101 276.311008 
L 755.5461 321.501374 
M 788.679139 274.557837 
L 772.726943 326.760887 
M 788.226365 273.973994 
L 785.947915 328.512418 
M 788.048981 273.962101 
L 788.041629 328.548097 
" style="fill:#1f77b4;stroke:#000000;stroke-linejoin:miter;stroke-width:1.5;"/>
   </g>
   <g id="line2d_28">
    <path clip-path="url(#p5b58b46f5f)" d="M 482.36682 287.6086 
L 820.8 287.6086 
" style="fill:none;stroke:#000000;stroke-dasharray:6.4,1.6,1,1.6;stroke-dashoffset:0;"/>
   </g>
   <g id="text_13">
    <!-- $\alpha_E$ = 90$^\circ$ -->
    <defs>
     <path d="M 5.90625 -2.203125 
L 5.59375 -0.203125 
Q 17.09375 1.796875 25.046875 9.5 
Q 33 17.203125 36 29.40625 
Q 30.203125 23.703125 21 23.703125 
Q 12.90625 23.703125 7.953125 29.296875 
Q 3 34.90625 3 44 
Q 3 54.09375 8.953125 60.84375 
Q 14.90625 67.59375 23.796875 67.59375 
Q 33.296875 67.59375 39.5 60 
Q 45.90625 52 45.90625 39.40625 
Q 45.90625 30.59375 42.84375 22.84375 
Q 39.796875 15.09375 33.90625 9.703125 
Q 27.703125 4.09375 21.796875 1.640625 
Q 15.90625 -0.796875 5.90625 -2.203125 
z
M 36.203125 35.5 
L 36.203125 39.40625 
Q 36.203125 64.796875 23 64.796875 
Q 18.296875 64.796875 15.703125 61.40625 
Q 14.203125 59.40625 13.203125 55.40625 
Q 12.203125 51.40625 12.203125 47.40625 
Q 12.203125 38.5 15.546875 33.25 
Q 18.90625 28 24.5 28 
Q 28.5 28 32.34375 29.953125 
Q 36.203125 31.90625 36.203125 35.5 
z
" id="STIXGeneral-Regular-57"/>
    </defs>
    <g transform="translate(612.501374 226.298841)scale(0.18 -0.18)">
     <use transform="translate(0 0.40625)" xlink:href="#STIXGeneral-Italic-945"/>
     <use transform="translate(55.199997 -12.821875)scale(0.7)" xlink:href="#STIXGeneral-Italic-69"/>
     <use transform="translate(102.379366 0.40625)" xlink:href="#STIXGeneral-Regular-32"/>
     <use transform="translate(127.37935 0.40625)" xlink:href="#STIXGeneral-Regular-61"/>
     <use transform="translate(195.879335 0.40625)" xlink:href="#STIXGeneral-Regular-32"/>
     <use transform="translate(220.87932 0.40625)" xlink:href="#STIXGeneral-Regular-57"/>
     <use transform="translate(270.879305 0.40625)" xlink:href="#STIXGeneral-Regular-48"/>
     <use transform="translate(332.530568 35.68125)scale(0.7)" xlink:href="#STIXGeneral-Regular-8728"/>
    </g>
   </g>
   <g id="patch_16">
    <path d="M 515.11963 236.935338 
Q 515.11963 254.313996 515.11963 271.133638 
" style="fill:none;stroke:#000000;stroke-linecap:round;stroke-width:0.5;"/>
    <path d="M 518.71963 263.933638 
L 515.11963 271.133638 
L 511.51963 263.933638 
" style="fill:none;stroke:#000000;stroke-linecap:round;stroke-width:0.5;"/>
   </g>
   <g id="text_14">
    <!-- $\^t = 0$ -->
    <g transform="translate(499.27963 229.028141)scale(0.18 -0.18)">
     <use transform="translate(39.042969 16.59375)" xlink:href="#STIXGeneral-Regular-770"/>
     <use transform="translate(0 0.203125)" xlink:href="#STIXGeneral-Italic-116"/>
     <use transform="translate(42.239984 0.203125)" xlink:href="#STIXGeneral-Regular-61"/>
     <use transform="translate(125.179965 0.203125)" xlink:href="#STIXGeneral-Regular-48"/>
    </g>
   </g>
   <g id="patch_17">
    <path d="M 788.047143 236.935338 
Q 788.047143 254.313996 788.047143 271.133638 
" style="fill:none;stroke:#000000;stroke-linecap:round;stroke-width:0.5;"/>
    <path d="M 791.647143 263.933638 
L 788.047143 271.133638 
L 784.447143 263.933638 
" style="fill:none;stroke:#000000;stroke-linecap:round;stroke-width:0.5;"/>
   </g>
   <g id="text_15">
    <!-- $\^t\/=\/1$ -->
    <g transform="translate(770.047143 229.028141)scale(0.18 -0.18)">
     <use transform="translate(39.042969 16.59375)" xlink:href="#STIXGeneral-Regular-770"/>
     <use transform="translate(0 0.203125)" xlink:href="#STIXGeneral-Italic-116"/>
     <use transform="translate(54.273555 0.203125)" xlink:href="#STIXGeneral-Regular-61"/>
     <use transform="translate(149.247107 0.203125)" xlink:href="#STIXGeneral-Regular-49"/>
    </g>
   </g>
  </g>
  <g id="axes_5">
   <g id="patch_18">
    <path d="M 86.4 534.6 
L 424.83318 534.6 
L 424.83318 383.432335 
L 86.4 383.432335 
z
" style="fill:#ffffff;"/>
   </g>
   <g id="matplotlib.axis_5">
    <g id="xtick_11">
     <g id="line2d_29">
      <g>
       <use style="fill:#ffffff;stroke:#000000;stroke-width:0.8;" x="86.4" xlink:href="#mabf1348481" y="534.6"/>
      </g>
     </g>
     <g id="text_16">
      <!-- 0.0 -->
      <g transform="translate(75.15 553.893438)scale(0.18 -0.18)">
       <use xlink:href="#STIXGeneral-Regular-48"/>
       <use x="49.999985" xlink:href="#STIXGeneral-Regular-46"/>
       <use x="74.999969" xlink:href="#STIXGeneral-Regular-48"/>
      </g>
     </g>
    </g>
    <g id="xtick_12">
     <g id="line2d_30">
      <g>
       <use style="fill:#ffffff;stroke:#000000;stroke-width:0.8;" x="171.008295" xlink:href="#mabf1348481" y="534.6"/>
      </g>
     </g>
     <g id="text_17">
      <!-- 0.5 -->
      <g transform="translate(159.758295 553.893438)scale(0.18 -0.18)">
       <use xlink:href="#STIXGeneral-Regular-48"/>
       <use x="49.999985" xlink:href="#STIXGeneral-Regular-46"/>
       <use x="74.999969" xlink:href="#STIXGeneral-Regular-53"/>
      </g>
     </g>
    </g>
    <g id="xtick_13">
     <g id="line2d_31">
      <g>
       <use style="fill:#ffffff;stroke:#000000;stroke-width:0.8;" x="255.61659" xlink:href="#mabf1348481" y="534.6"/>
      </g>
     </g>
     <g id="text_18">
      <!-- 1.0 -->
      <g transform="translate(244.36659 553.893438)scale(0.18 -0.18)">
       <use xlink:href="#STIXGeneral-Regular-49"/>
       <use x="49.999985" xlink:href="#STIXGeneral-Regular-46"/>
       <use x="74.999969" xlink:href="#STIXGeneral-Regular-48"/>
      </g>
     </g>
    </g>
    <g id="xtick_14">
     <g id="line2d_32">
      <g>
       <use style="fill:#ffffff;stroke:#000000;stroke-width:0.8;" x="340.224885" xlink:href="#mabf1348481" y="534.6"/>
      </g>
     </g>
     <g id="text_19">
      <!-- 1.5 -->
      <g transform="translate(328.974885 553.893438)scale(0.18 -0.18)">
       <use xlink:href="#STIXGeneral-Regular-49"/>
       <use x="49.999985" xlink:href="#STIXGeneral-Regular-46"/>
       <use x="74.999969" xlink:href="#STIXGeneral-Regular-53"/>
      </g>
     </g>
    </g>
    <g id="xtick_15">
     <g id="line2d_33">
      <g>
       <use style="fill:#ffffff;stroke:#000000;stroke-width:0.8;" x="424.83318" xlink:href="#mabf1348481" y="534.6"/>
      </g>
     </g>
     <g id="text_20">
      <!-- 2.0 -->
      <defs>
       <path d="M 47.40625 13.703125 
L 42 0 
L 2.90625 0 
L 2.90625 1.203125 
L 20.703125 20.09375 
Q 27.703125 27.40625 30.703125 33.5 
Q 33.703125 39.59375 33.703125 46.09375 
Q 33.703125 52.796875 30 56.5 
Q 26.296875 60.203125 19.796875 60.203125 
Q 14.40625 60.203125 11.25 57.390625 
Q 8.09375 54.59375 5.09375 47.203125 
L 3 47.703125 
Q 4.703125 57 9.84375 62.296875 
Q 15 67.59375 23.796875 67.59375 
Q 32.09375 67.59375 37.1875 62.59375 
Q 42.296875 57.59375 42.296875 50 
Q 42.296875 38.703125 29.5 25.203125 
L 13 7.59375 
L 36.40625 7.59375 
Q 39.703125 7.59375 41.640625 8.890625 
Q 43.59375 10.203125 46 14.296875 
z
" id="STIXGeneral-Regular-50"/>
      </defs>
      <g transform="translate(413.58318 553.893438)scale(0.18 -0.18)">
       <use xlink:href="#STIXGeneral-Regular-50"/>
       <use x="49.999985" xlink:href="#STIXGeneral-Regular-46"/>
       <use x="74.999969" xlink:href="#STIXGeneral-Regular-48"/>
      </g>
     </g>
    </g>
    <g id="text_21">
     <!-- $\^t$ -->
     <g transform="translate(253.09659 574.093438)scale(0.18 -0.18)">
      <use transform="translate(39.042969 16.59375)" xlink:href="#STIXGeneral-Regular-770"/>
      <use transform="translate(0 0.203125)" xlink:href="#STIXGeneral-Italic-116"/>
     </g>
    </g>
   </g>
   <g id="matplotlib.axis_6">
    <g id="ytick_7">
     <g id="line2d_34">
      <g>
       <use style="fill:#ffffff;stroke:#000000;stroke-width:0.8;" x="86.4" xlink:href="#m76796ed482" y="527.728743"/>
      </g>
     </g>
     <g id="text_22">
      <!-- 0.0 -->
      <g transform="translate(56.9 533.875461)scale(0.18 -0.18)">
       <use xlink:href="#STIXGeneral-Regular-48"/>
       <use x="49.999985" xlink:href="#STIXGeneral-Regular-46"/>
       <use x="74.999969" xlink:href="#STIXGeneral-Regular-48"/>
      </g>
     </g>
    </g>
    <g id="ytick_8">
     <g id="line2d_35">
      <g>
       <use style="fill:#ffffff;stroke:#000000;stroke-width:0.8;" x="86.4" xlink:href="#m76796ed482" y="459.016168"/>
      </g>
     </g>
     <g id="text_23">
      <!-- 0.5 -->
      <g transform="translate(56.9 465.162886)scale(0.18 -0.18)">
       <use xlink:href="#STIXGeneral-Regular-48"/>
       <use x="49.999985" xlink:href="#STIXGeneral-Regular-46"/>
       <use x="74.999969" xlink:href="#STIXGeneral-Regular-53"/>
      </g>
     </g>
    </g>
    <g id="ytick_9">
     <g id="line2d_36">
      <g>
       <use style="fill:#ffffff;stroke:#000000;stroke-width:0.8;" x="86.4" xlink:href="#m76796ed482" y="390.303593"/>
      </g>
     </g>
     <g id="text_24">
      <!-- 1.0 -->
      <g transform="translate(56.9 396.450312)scale(0.18 -0.18)">
       <use xlink:href="#STIXGeneral-Regular-49"/>
       <use x="49.999985" xlink:href="#STIXGeneral-Regular-46"/>
       <use x="74.999969" xlink:href="#STIXGeneral-Regular-48"/>
      </g>
     </g>
    </g>
   </g>
   <g id="line2d_37">
    <path clip-path="url(#p2bc6a08107)" d="M 86.4 527.624655 
L 87.41569 527.390593 
L 88.092817 527.001478 
L 88.600662 526.465584 
L 89.108507 525.601774 
L 89.616352 524.30025 
L 90.293479 521.781932 
L 91.139887 517.504543 
L 92.494141 509.162767 
L 96.38762 483.040618 
L 108.406621 402.441525 
L 109.422311 396.978014 
L 110.099438 394.252022 
L 110.776565 392.419097 
L 111.28441 391.562077 
L 111.961537 390.909105 
L 112.638664 390.588807 
L 113.654354 390.398334 
L 115.685733 390.321747 
L 128.043297 390.31406 
L 152.927707 390.312537 
L 161.053229 390.312949 
L 207.436415 390.314915 
L 215.054091 390.313702 
L 227.750218 390.35442 
L 229.104472 390.515297 
L 229.95088 390.843699 
L 230.458725 391.24586 
L 230.966571 391.911812 
L 231.474415 392.956316 
L 231.982261 394.47475 
L 232.659388 397.285013 
L 233.505796 401.824952 
L 235.029331 411.45801 
L 240.615627 449.11654 
L 250.433966 514.912759 
L 251.449655 520.520221 
L 252.126782 523.393572 
L 252.803909 525.372564 
L 253.311755 526.318204 
L 253.819599 526.912692 
L 254.496726 527.3479 
L 255.343134 527.585048 
L 256.697393 527.700001 
L 260.42158 527.728742 
L 424.963392 527.728743 
L 424.963392 527.728743 
" style="fill:none;stroke:#1f77b4;stroke-linecap:square;stroke-width:4;"/>
   </g>
   <g id="line2d_38">
    <path clip-path="url(#p2bc6a08107)" d="M 86.4 527.728743 
L 207.605696 527.629589 
L 208.621386 527.402645 
L 209.298513 527.015047 
L 209.806358 526.459616 
L 210.314204 525.511788 
L 210.822048 523.963461 
L 211.329894 521.588277 
L 211.837738 518.224857 
L 212.514865 512.205797 
L 213.530556 500.73405 
L 215.561935 474.276485 
L 220.301824 412.074085 
L 221.317514 401.737254 
L 221.994641 396.842193 
L 222.502485 394.339096 
L 223.01033 392.691482 
L 223.518176 391.675412 
L 224.02602 391.076803 
L 224.703147 390.657969 
L 225.549557 390.43591 
L 227.073091 390.326393 
L 232.659388 390.304833 
L 238.076402 390.405127 
L 239.092092 390.635159 
L 239.769219 391.027948 
L 240.277064 391.589376 
L 240.784908 392.549798 
L 241.292754 394.114608 
L 241.800598 396.511065 
L 242.308445 399.898323 
L 242.985571 405.945399 
L 244.00126 417.443161 
L 246.032641 443.914065 
L 250.77253 506.094149 
L 251.788219 516.395948 
L 252.465345 521.260134 
L 252.973192 523.740771 
L 253.481036 525.371476 
L 253.988882 526.375862 
L 254.496726 526.966711 
L 255.173853 527.380367 
L 256.020256 527.599399 
L 257.543798 527.707341 
L 263.299378 527.728743 
L 424.963392 527.728743 
L 424.963392 527.728743 
" style="fill:none;stroke:#ff7f0e;stroke-linecap:square;stroke-width:4;"/>
   </g>
   <g id="line2d_39">
    <path clip-path="url(#p2bc6a08107)" d="M 255.61659 534.6 
L 255.61659 383.432335 
" style="fill:none;stroke:#000000;stroke-linecap:square;stroke-width:0.5;"/>
   </g>
   <g id="patch_19">
    <path d="M 86.4 534.6 
L 86.4 383.432335 
" style="fill:none;stroke:#000000;stroke-linecap:square;stroke-linejoin:miter;stroke-width:0.8;"/>
   </g>
   <g id="patch_20">
    <path d="M 424.83318 534.6 
L 424.83318 383.432335 
" style="fill:none;stroke:#000000;stroke-linecap:square;stroke-linejoin:miter;stroke-width:0.8;"/>
   </g>
   <g id="patch_21">
    <path d="M 86.4 534.6 
L 424.83318 534.6 
" style="fill:none;stroke:#000000;stroke-linecap:square;stroke-linejoin:miter;stroke-width:0.8;"/>
   </g>
   <g id="patch_22">
    <path d="M 86.4 383.432335 
L 424.83318 383.432335 
" style="fill:none;stroke:#000000;stroke-linecap:square;stroke-linejoin:miter;stroke-width:0.8;"/>
   </g>
  </g>
  <g id="axes_6">
   <g id="PathCollection_3">
    <g clip-path="url(#p15ec80a555)">
     <use style="stroke:#000000;" x="524.769162" xlink:href="#m1cc70047a4" y="454.825235"/>
     <use style="stroke:#000000;" x="525.159552" xlink:href="#m1cc70047a4" y="454.825235"/>
     <use style="stroke:#000000;" x="528.125218" xlink:href="#m1cc70047a4" y="454.825235"/>
     <use style="stroke:#000000;" x="534.306706" xlink:href="#m1cc70047a4" y="454.825235"/>
     <use style="stroke:#000000;" x="543.66887" xlink:href="#m1cc70047a4" y="454.825235"/>
     <use style="stroke:#000000;" x="554.794811" xlink:href="#m1cc70047a4" y="454.825235"/>
     <use style="stroke:#000000;" x="565.998729" xlink:href="#m1cc70047a4" y="454.825235"/>
     <use style="stroke:#000000;" x="577.202752" xlink:href="#m1cc70047a4" y="454.825235"/>
     <use style="stroke:#000000;" x="588.406778" xlink:href="#m1cc70047a4" y="454.825235"/>
     <use style="stroke:#000000;" x="599.610797" xlink:href="#m1cc70047a4" y="454.825235"/>
     <use style="stroke:#000000;" x="610.814821" xlink:href="#m1cc70047a4" y="454.825235"/>
     <use style="stroke:#000000;" x="622.018841" xlink:href="#m1cc70047a4" y="454.825235"/>
     <use style="stroke:#000000;" x="633.222864" xlink:href="#m1cc70047a4" y="454.825235"/>
     <use style="stroke:#000000;" x="644.426887" xlink:href="#m1cc70047a4" y="454.825235"/>
     <use style="stroke:#000000;" x="655.630907" xlink:href="#m1cc70047a4" y="454.825235"/>
     <use style="stroke:#000000;" x="666.83493" xlink:href="#m1cc70047a4" y="454.825235"/>
     <use style="stroke:#000000;" x="678.038951" xlink:href="#m1cc70047a4" y="454.825235"/>
     <use style="stroke:#000000;" x="689.242974" xlink:href="#m1cc70047a4" y="454.825235"/>
     <use style="stroke:#000000;" x="700.446999" xlink:href="#m1cc70047a4" y="454.825235"/>
     <use style="stroke:#000000;" x="711.651023" xlink:href="#m1cc70047a4" y="454.825235"/>
     <use style="stroke:#000000;" x="722.855042" xlink:href="#m1cc70047a4" y="454.825235"/>
     <use style="stroke:#000000;" x="734.057623" xlink:href="#m1cc70047a4" y="454.823792"/>
     <use style="stroke:#000000;" x="744.958304" xlink:href="#m1cc70047a4" y="454.529787"/>
     <use style="stroke:#000000;" x="754.241393" xlink:href="#m1cc70047a4" y="453.024269"/>
     <use style="stroke:#000000;" x="761.83015" xlink:href="#m1cc70047a4" y="451.370528"/>
     <use style="stroke:#000000;" x="768.901077" xlink:href="#m1cc70047a4" y="450.830492"/>
     <use style="stroke:#000000;" x="774.230609" xlink:href="#m1cc70047a4" y="451.516481"/>
     <use style="stroke:#000000;" x="776.924477" xlink:href="#m1cc70047a4" y="453.253953"/>
     <use style="stroke:#000000;" x="778.212341" xlink:href="#m1cc70047a4" y="454.624385"/>
     <use style="stroke:#000000;" x="778.398262" xlink:href="#m1cc70047a4" y="454.824584"/>
    </g>
   </g>
   <g id="patch_23">
    <path clip-path="url(#p15ec80a555)" d="M 524.769162 454.825235 
L 486.171033 493.423364 
M 525.159552 454.825235 
L 486.561423 493.423364 
M 528.125218 454.825235 
L 489.527089 493.423364 
M 534.306706 454.825235 
L 495.708577 493.423364 
M 543.66887 454.825235 
L 505.070741 493.423364 
M 554.794811 454.825235 
L 516.196683 493.423364 
M 565.998729 454.825235 
L 527.4006 493.423364 
M 577.202752 454.825235 
L 538.604623 493.423364 
M 588.406778 454.825235 
L 549.80865 493.423364 
M 599.610797 454.825235 
L 561.012669 493.423364 
M 610.814821 454.825235 
L 572.216693 493.423364 
M 622.018841 454.825235 
L 583.420712 493.423364 
M 633.222864 454.825235 
L 594.624735 493.423364 
M 644.426887 454.825235 
L 605.828759 493.423364 
M 655.630907 454.825235 
L 617.032778 493.423364 
M 666.83493 454.825235 
L 628.236802 493.423364 
M 678.038951 454.825235 
L 639.440823 493.423364 
M 689.242974 454.825235 
L 650.644845 493.423364 
M 700.446999 454.825235 
L 661.84887 493.423364 
M 711.651023 454.825235 
L 673.052894 493.423364 
M 722.855042 454.825235 
L 684.256914 493.423364 
M 734.057623 454.823792 
L 695.465268 493.427693 
M 744.958304 454.529787 
L 707.579315 494.309709 
M 754.241393 453.024269 
L 724.546133 498.826262 
M 761.83015 451.370528 
L 746.595534 503.787486 
M 768.901077 450.830492 
L 769.886512 505.407593 
M 774.230609 451.516481 
L 791.346574 503.349625 
M 776.924477 453.253953 
L 807.990929 498.137209 
M 778.212341 454.624385 
L 815.989985 494.025916 
M 778.398262 454.824584 
L 816.993785 493.425318 
" style="fill:#1f77b4;stroke:#000000;stroke-linejoin:miter;stroke-width:1.5;"/>
   </g>
   <g id="line2d_40">
    <path clip-path="url(#p15ec80a555)" d="M 482.36682 464.474767 
L 820.8 464.474767 
" style="fill:none;stroke:#000000;stroke-dasharray:6.4,1.6,1,1.6;stroke-dashoffset:0;"/>
   </g>
   <g id="text_25">
    <!-- $\alpha_E$ = 45$^\circ$ -->
    <defs>
     <path d="M 47.296875 16.703125 
L 37 16.703125 
L 37 0 
L 29.203125 0 
L 29.203125 16.703125 
L 1.203125 16.703125 
L 1.203125 23.09375 
L 32.59375 67.59375 
L 37 67.59375 
L 37 23.09375 
L 47.296875 23.09375 
z
M 29.203125 23.09375 
L 29.203125 57.40625 
L 5.203125 23.09375 
z
" id="STIXGeneral-Regular-52"/>
    </defs>
    <g transform="translate(612.501374 403.165009)scale(0.18 -0.18)">
     <use transform="translate(0 0.203125)" xlink:href="#STIXGeneral-Italic-945"/>
     <use transform="translate(55.199997 -13.025)scale(0.7)" xlink:href="#STIXGeneral-Italic-69"/>
     <use transform="translate(102.379366 0.203125)" xlink:href="#STIXGeneral-Regular-32"/>
     <use transform="translate(127.37935 0.203125)" xlink:href="#STIXGeneral-Regular-61"/>
     <use transform="translate(195.879335 0.203125)" xlink:href="#STIXGeneral-Regular-32"/>
     <use transform="translate(220.87932 0.203125)" xlink:href="#STIXGeneral-Regular-52"/>
     <use transform="translate(270.879305 0.203125)" xlink:href="#STIXGeneral-Regular-53"/>
     <use transform="translate(332.530568 35.478125)scale(0.7)" xlink:href="#STIXGeneral-Regular-8728"/>
    </g>
   </g>
   <g id="patch_24">
    <path d="M 515.11963 413.801505 
Q 515.11963 431.180164 515.11963 447.999806 
" style="fill:none;stroke:#000000;stroke-linecap:round;stroke-width:0.5;"/>
    <path d="M 518.71963 440.799806 
L 515.11963 447.999806 
L 511.51963 440.799806 
" style="fill:none;stroke:#000000;stroke-linecap:round;stroke-width:0.5;"/>
   </g>
   <g id="text_26">
    <!-- $\^t = 0$ -->
    <g transform="translate(499.27963 405.894309)scale(0.18 -0.18)">
     <use transform="translate(39.042969 16.59375)" xlink:href="#STIXGeneral-Regular-770"/>
     <use transform="translate(0 0.203125)" xlink:href="#STIXGeneral-Italic-116"/>
     <use transform="translate(42.239984 0.203125)" xlink:href="#STIXGeneral-Regular-61"/>
     <use transform="translate(125.179965 0.203125)" xlink:href="#STIXGeneral-Regular-48"/>
    </g>
   </g>
   <g id="patch_25">
    <path d="M 788.047143 413.801505 
Q 788.047143 431.180164 788.047143 447.999806 
" style="fill:none;stroke:#000000;stroke-linecap:round;stroke-width:0.5;"/>
    <path d="M 791.647143 440.799806 
L 788.047143 447.999806 
L 784.447143 440.799806 
" style="fill:none;stroke:#000000;stroke-linecap:round;stroke-width:0.5;"/>
   </g>
   <g id="text_27">
    <!-- $\^t\/=\/1$ -->
    <g transform="translate(770.047143 405.894309)scale(0.18 -0.18)">
     <use transform="translate(39.042969 16.59375)" xlink:href="#STIXGeneral-Regular-770"/>
     <use transform="translate(0 0.203125)" xlink:href="#STIXGeneral-Italic-116"/>
     <use transform="translate(54.273555 0.203125)" xlink:href="#STIXGeneral-Regular-61"/>
     <use transform="translate(149.247107 0.203125)" xlink:href="#STIXGeneral-Regular-49"/>
    </g>
   </g>
  </g>
 </g>
 <defs>
  <clipPath id="p5f45fc6c67">
   <rect height="151.167665" width="338.43318" x="86.4" y="29.7"/>
  </clipPath>
  <clipPath id="pf4d3f97e6b">
   <rect height="98.254794" width="338.43318" x="482.36682" y="56.156435"/>
  </clipPath>
  <clipPath id="pd71ea0aa56">
   <rect height="151.167665" width="338.43318" x="86.4" y="206.566168"/>
  </clipPath>
  <clipPath id="p5b58b46f5f">
   <rect height="98.254794" width="338.43318" x="482.36682" y="233.022603"/>
  </clipPath>
  <clipPath id="p2bc6a08107">
   <rect height="151.167665" width="338.43318" x="86.4" y="383.432335"/>
  </clipPath>
  <clipPath id="p15ec80a555">
   <rect height="98.254794" width="338.43318" x="482.36682" y="409.888771"/>
  </clipPath>
 </defs>
</svg>
