<?xml version="1.0" encoding="utf-8" standalone="no"?>
<!DOCTYPE svg PUBLIC "-//W3C//DTD SVG 1.1//EN"
  "http://www.w3.org/Graphics/SVG/1.1/DTD/svg11.dtd">
<!-- Created with matplotlib (https://matplotlib.org/) -->
<svg height="1152pt" version="1.1" viewBox="0 0 720 1152" width="720pt" xmlns="http://www.w3.org/2000/svg" xmlns:xlink="http://www.w3.org/1999/xlink">
 <metadata>
  <rdf:RDF xmlns:cc="http://creativecommons.org/ns#" xmlns:dc="http://purl.org/dc/elements/1.1/" xmlns:rdf="http://www.w3.org/1999/02/22-rdf-syntax-ns#">
   <cc:Work>
    <dc:type rdf:resource="http://purl.org/dc/dcmitype/StillImage"/>
    <dc:date>2022-01-07T23:05:01.397254</dc:date>
    <dc:format>image/svg+xml</dc:format>
    <dc:creator>
     <cc:Agent>
      <dc:title>Matplotlib v3.3.4, https://matplotlib.org/</dc:title>
     </cc:Agent>
    </dc:creator>
   </cc:Work>
  </rdf:RDF>
 </metadata>
 <defs>
  <style type="text/css">*{stroke-linecap:butt;stroke-linejoin:round;}</style>
 </defs>
 <g id="figure_1">
  <g id="patch_1">
   <path d="M 0 1152 
L 720 1152 
L 720 0 
L 0 0 
z
" style="fill:#ffffff;"/>
  </g>
  <g id="axes_1">
   <g id="patch_2">
    <path d="M 108 403.2 
L 612 403.2 
L 612 115.2 
L 108 115.2 
z
" style="fill:#ffffff;"/>
   </g>
   <g id="matplotlib.axis_1">
    <g id="xtick_1">
     <g id="line2d_1">
      <defs>
       <path d="M 0 0 
L 0 3.5 
" id="me1f6ec7ffd" style="stroke:#000000;stroke-width:0.8;"/>
      </defs>
      <g>
       <use style="fill:#ffffff;stroke:#000000;stroke-width:0.8;" x="130.909091" xlink:href="#me1f6ec7ffd" y="403.2"/>
      </g>
     </g>
    </g>
    <g id="xtick_2">
     <g id="line2d_2">
      <g>
       <use style="fill:#ffffff;stroke:#000000;stroke-width:0.8;" x="360" xlink:href="#me1f6ec7ffd" y="403.2"/>
      </g>
     </g>
    </g>
    <g id="xtick_3">
     <g id="line2d_3">
      <g>
       <use style="fill:#ffffff;stroke:#000000;stroke-width:0.8;" x="589.090909" xlink:href="#me1f6ec7ffd" y="403.2"/>
      </g>
     </g>
    </g>
   </g>
   <g id="matplotlib.axis_2">
    <g id="ytick_1">
     <g id="line2d_4">
      <defs>
       <path d="M 0 0 
L -3.5 0 
" id="m25c842db38" style="stroke:#000000;stroke-width:0.8;"/>
      </defs>
      <g>
       <use style="fill:#ffffff;stroke:#000000;stroke-width:0.8;" x="108" xlink:href="#m25c842db38" y="355.2"/>
      </g>
     </g>
     <g id="text_1">
      <!-- −2 -->
      <g transform="translate(51.23 369.542344)scale(0.42 -0.42)">
       <defs>
        <path d="M 62.09375 22 
L 6.40625 22 
L 6.40625 28.59375 
L 62.09375 28.59375 
z
" id="STIXGeneral-Regular-8722"/>
        <path d="M 47.40625 13.703125 
L 42 0 
L 2.90625 0 
L 2.90625 1.203125 
L 20.703125 20.09375 
Q 27.703125 27.40625 30.703125 33.5 
Q 33.703125 39.59375 33.703125 46.09375 
Q 33.703125 52.796875 30 56.5 
Q 26.296875 60.203125 19.796875 60.203125 
Q 14.40625 60.203125 11.25 57.390625 
Q 8.09375 54.59375 5.09375 47.203125 
L 3 47.703125 
Q 4.703125 57 9.84375 62.296875 
Q 15 67.59375 23.796875 67.59375 
Q 32.09375 67.59375 37.1875 62.59375 
Q 42.296875 57.59375 42.296875 50 
Q 42.296875 38.703125 29.5 25.203125 
L 13 7.59375 
L 36.40625 7.59375 
Q 39.703125 7.59375 41.640625 8.890625 
Q 43.59375 10.203125 46 14.296875 
z
" id="STIXGeneral-Regular-50"/>
       </defs>
       <use xlink:href="#STIXGeneral-Regular-8722"/>
       <use x="68.499985" xlink:href="#STIXGeneral-Regular-50"/>
      </g>
     </g>
    </g>
    <g id="ytick_2">
     <g id="line2d_5">
      <g>
       <use style="fill:#ffffff;stroke:#000000;stroke-width:0.8;" x="108" xlink:href="#m25c842db38" y="259.2"/>
      </g>
     </g>
     <g id="text_2">
      <!-- 0 -->
      <g transform="translate(80 273.542344)scale(0.42 -0.42)">
       <defs>
        <path d="M 47.59375 33 
Q 47.59375 26.296875 46.296875 20.34375 
Q 45 14.40625 42.453125 9.40625 
Q 39.90625 4.40625 35.40625 1.5 
Q 30.90625 -1.40625 25 -1.40625 
Q 18.90625 -1.40625 14.296875 1.6875 
Q 9.703125 4.796875 7.203125 10 
Q 4.703125 15.203125 3.546875 21.09375 
Q 2.40625 27 2.40625 33.59375 
Q 2.40625 42.90625 4.703125 50.34375 
Q 7 57.796875 12.34375 62.6875 
Q 17.703125 67.59375 25.40625 67.59375 
Q 35.203125 67.59375 41.390625 58 
Q 47.59375 48.40625 47.59375 33 
z
M 38 32.5 
Q 38 48.296875 34.640625 56.640625 
Q 31.296875 65 24.796875 65 
Q 18.59375 65 15.296875 56.59375 
Q 12 48.203125 12 32.90625 
Q 12 17.5 15.296875 9.34375 
Q 18.59375 1.203125 25 1.203125 
Q 31.296875 1.203125 34.640625 9.34375 
Q 38 17.5 38 32.5 
z
" id="STIXGeneral-Regular-48"/>
       </defs>
       <use xlink:href="#STIXGeneral-Regular-48"/>
      </g>
     </g>
    </g>
    <g id="ytick_3">
     <g id="line2d_6">
      <g>
       <use style="fill:#ffffff;stroke:#000000;stroke-width:0.8;" x="108" xlink:href="#m25c842db38" y="163.2"/>
      </g>
     </g>
     <g id="text_3">
      <!-- 2 -->
      <g transform="translate(80 177.542344)scale(0.42 -0.42)">
       <use xlink:href="#STIXGeneral-Regular-50"/>
      </g>
     </g>
    </g>
    <g id="text_4">
     <!-- Cp -->
     <g transform="translate(38.114688 283.707656)rotate(-90)scale(0.42 -0.42)">
      <defs>
       <path d="M 61.40625 13.09375 
L 63.296875 11.296875 
Q 54.40625 -1.40625 36 -1.40625 
Q 21.5 -1.40625 12.40625 7.5 
Q 2.796875 16.90625 2.796875 32.5 
Q 2.796875 47.09375 11.796875 57.203125 
Q 21.203125 67.59375 36.09375 67.59375 
Q 42.5 67.59375 48 66.09375 
Q 54.296875 64.296875 54.90625 64.296875 
Q 58.203125 64.296875 59.09375 67.59375 
L 61.09375 67.59375 
L 62 44.90625 
L 59.703125 44.90625 
Q 58.09375 52.09375 54.5 56 
Q 47.40625 63.59375 38.40625 63.59375 
Q 27.296875 63.59375 20.84375 55.4375 
Q 14.40625 47.296875 14.40625 34.09375 
Q 14.40625 18 21.59375 10.203125 
Q 28.296875 3 39.40625 3 
Q 46 3 50.796875 5.296875 
Q 55.59375 7.59375 61.40625 13.09375 
z
" id="STIXGeneral-Regular-67"/>
       <path d="M 15.90625 45.796875 
L 15.90625 38.09375 
Q 22.203125 46 30.296875 46 
Q 37.59375 46 42.296875 40 
Q 47 34 47 24.703125 
Q 47 13.796875 40.953125 6.390625 
Q 34.90625 -1 26 -1 
Q 22.90625 -1 20.75 -0.09375 
Q 18.59375 0.796875 15.90625 3.296875 
L 15.90625 -12.40625 
Q 15.90625 -17.09375 17.5 -18.4375 
Q 19.09375 -19.796875 24.703125 -19.90625 
L 24.703125 -21.703125 
L 0.5 -21.703125 
L 0.5 -20 
Q 4.90625 -19.59375 6.203125 -18.296875 
Q 7.5 -17 7.5 -13.09375 
L 7.5 33.703125 
Q 7.5 37.203125 6.703125 38.296875 
Q 5.90625 39.40625 3.40625 39.40625 
Q 1.796875 39.40625 0.90625 39.296875 
L 0.90625 40.90625 
Q 7.90625 43 15.296875 46 
z
M 15.90625 33.40625 
L 15.90625 8.796875 
Q 15.90625 6.59375 19.34375 4.390625 
Q 22.796875 2.203125 26.296875 2.203125 
Q 31.703125 2.203125 35.046875 7.296875 
Q 38.40625 12.40625 38.40625 20.703125 
Q 38.40625 29.5 35.046875 34.75 
Q 31.703125 40 26.09375 40 
Q 22.59375 40 19.25 37.796875 
Q 15.90625 35.59375 15.90625 33.40625 
z
" id="STIXGeneral-Regular-112"/>
      </defs>
      <use xlink:href="#STIXGeneral-Regular-67"/>
      <use x="66.699997" xlink:href="#STIXGeneral-Regular-112"/>
     </g>
    </g>
   </g>
   <g id="line2d_7">
    <path clip-path="url(#p2825db9d82)" d="M 130.909091 274.07352 
L 135.53719 282.989611 
L 140.165289 283.919326 
L 144.793388 284.015426 
L 149.421488 283.814874 
L 154.049587 283.645836 
L 158.677686 283.416234 
L 163.305785 283.189546 
L 167.933884 282.972856 
L 172.561983 282.762508 
L 177.190083 282.563722 
L 181.818182 282.363008 
L 186.446281 282.140254 
L 191.07438 281.879634 
L 195.702479 281.557416 
L 200.330579 281.145041 
L 204.958678 280.630785 
L 209.586777 280.002457 
L 214.214876 279.26078 
L 218.842975 278.401405 
L 223.471074 277.419935 
L 228.099174 276.363553 
L 232.727273 275.256692 
L 237.355372 274.136755 
L 241.983471 273.078104 
L 246.61157 272.074375 
L 251.239669 271.141573 
L 255.867769 270.320145 
L 260.495868 269.608008 
L 265.123967 269.014981 
L 269.752066 268.52421 
L 274.380165 268.135824 
L 279.008264 267.862001 
L 283.636364 267.710366 
L 288.264463 267.675996 
L 292.892562 267.716413 
L 297.520661 267.817831 
L 302.14876 267.972632 
L 306.77686 268.176074 
L 311.404959 268.428279 
L 316.033058 268.721654 
L 320.661157 269.050421 
L 325.289256 269.412134 
L 329.917355 269.797563 
L 334.545455 270.198629 
L 339.173554 270.623483 
L 343.801653 271.069898 
L 348.429752 271.540614 
L 353.057851 272.039671 
L 357.68595 272.555956 
L 362.31405 273.176155 
L 366.942149 273.551441 
L 371.570248 274.214416 
L 376.198347 274.778224 
L 380.826446 275.327092 
L 385.454545 275.882863 
L 390.082645 276.471085 
L 394.710744 277.112291 
L 399.338843 277.807338 
L 403.966942 278.561143 
L 408.595041 279.39684 
L 413.22314 280.32639 
L 417.85124 281.35822 
L 422.479339 282.521039 
L 427.107438 283.847519 
L 431.735537 285.332581 
L 436.363636 286.950972 
L 440.991736 288.648549 
L 445.619835 290.330557 
L 450.247934 291.87226 
L 454.876033 293.199214 
L 459.504132 294.216172 
L 464.132231 294.86881 
L 468.760331 295.106982 
L 473.38843 294.951013 
L 478.016529 294.524353 
L 482.644628 293.927294 
L 487.272727 293.237411 
L 491.900826 292.511476 
L 496.528926 291.788457 
L 501.157025 291.084449 
L 505.785124 290.406165 
L 510.413223 289.756801 
L 515.041322 289.136164 
L 519.669421 288.536071 
L 524.297521 287.94518 
L 528.92562 287.353523 
L 533.553719 286.750855 
L 538.181818 286.124078 
L 542.809917 285.46235 
L 547.438017 284.74428 
L 552.066116 283.98886 
L 556.694215 283.122494 
L 561.322314 282.149772 
L 565.950413 281.076208 
L 570.578512 280.375192 
L 575.206612 279.546861 
L 579.834711 278.107746 
L 584.46281 276.479263 
L 589.090909 274.854768 
" style="fill:none;stroke:#1f77b4;stroke-linecap:square;stroke-width:8;"/>
   </g>
   <g id="line2d_8">
    <path clip-path="url(#p2825db9d82)" d="M 108 259.2 
L 612 259.2 
" style="fill:none;stroke:#000000;stroke-dasharray:3.2,0.8,0.5,0.8;stroke-dashoffset:0;stroke-width:0.5;"/>
   </g>
   <g id="line2d_9">
    <path clip-path="url(#p2825db9d82)" d="M 130.909091 303.200328 
L 135.53719 308.124484 
L 140.165289 309.9793 
L 144.793388 310.7796 
L 149.421488 311.091859 
L 154.049587 311.203252 
L 158.677686 311.233809 
L 163.305785 311.217322 
L 167.933884 311.147447 
L 172.561983 311.025516 
L 177.190083 310.842062 
L 181.818182 310.620899 
L 186.446281 310.391974 
L 191.07438 310.203831 
L 195.702479 310.095507 
L 200.330579 310.113298 
L 204.958678 310.258855 
L 209.586777 310.55714 
L 214.214876 310.998297 
L 218.842975 311.550774 
L 223.471074 312.229695 
L 228.099174 313.087335 
L 232.727273 314.100685 
L 237.355372 315.273929 
L 241.983471 316.616253 
L 246.61157 318.135909 
L 251.239669 319.736293 
L 255.867769 321.222706 
L 260.495868 322.426876 
L 265.123967 323.101033 
L 269.752066 323.207702 
L 274.380165 322.546817 
L 279.008264 321.188455 
L 283.636364 319.085766 
L 288.264463 316.410456 
L 292.892562 313.287353 
L 297.520661 309.892263 
L 302.14876 306.504258 
L 306.77686 303.212209 
L 311.404959 300.153948 
L 316.033058 297.486962 
L 320.661157 295.216559 
L 325.289256 293.363461 
L 329.917355 291.925843 
L 334.545455 290.576153 
L 339.173554 290.109867 
L 343.801653 289.63619 
L 348.429752 289.41777 
L 353.057851 289.389429 
L 357.68595 289.524354 
L 362.31405 289.780049 
L 366.942149 290.124659 
L 371.570248 290.526611 
L 376.198347 290.969516 
L 380.826446 291.454392 
L 385.454545 291.958356 
L 390.082645 292.46692 
L 394.710744 292.968063 
L 399.338843 293.453494 
L 403.966942 293.93344 
L 408.595041 294.379766 
L 413.22314 294.793013 
L 417.85124 295.155571 
L 422.479339 295.470668 
L 427.107438 295.772675 
L 431.735537 296.048361 
L 436.363636 296.286754 
L 440.991736 296.483798 
L 445.619835 296.640915 
L 450.247934 296.782278 
L 454.876033 296.864601 
L 459.504132 296.899387 
L 464.132231 296.878135 
L 468.760331 296.804032 
L 473.38843 296.710075 
L 478.016529 296.584481 
L 482.644628 296.427291 
L 487.272727 296.231496 
L 491.900826 295.993164 
L 496.528926 295.710953 
L 501.157025 295.361626 
L 505.785124 294.953196 
L 510.413223 294.48682 
L 515.041322 293.977101 
L 519.669421 293.410766 
L 524.297521 292.780513 
L 528.92562 292.066144 
L 533.553719 291.26974 
L 538.181818 290.381449 
L 542.809917 289.386069 
L 547.438017 288.278975 
L 552.066116 287.018359 
L 556.694215 285.553552 
L 561.322314 284.024023 
L 565.950413 282.171025 
L 570.578512 279.93524 
L 575.206612 277.411458 
L 579.834711 275.361623 
L 584.46281 271.225565 
L 589.090909 267.24216 
" style="fill:none;stroke:#ff7f0e;stroke-linecap:square;stroke-width:8;"/>
   </g>
   <g id="line2d_10">
    <path clip-path="url(#p2825db9d82)" d="M 108 259.2 
L 612 259.2 
" style="fill:none;stroke:#000000;stroke-dasharray:3.2,0.8,0.5,0.8;stroke-dashoffset:0;stroke-width:0.5;"/>
   </g>
   <g id="line2d_11">
    <path clip-path="url(#p2825db9d82)" d="M 130.909091 226.6884 
L 135.53719 294.529307 
L 140.165289 304.686288 
L 144.793388 310.361753 
L 149.421488 313.054269 
L 154.049587 314.537187 
L 158.677686 315.670342 
L 163.305785 316.519179 
L 167.933884 317.280994 
L 172.561983 318.032612 
L 177.190083 318.790263 
L 181.818182 319.513881 
L 186.446281 320.127333 
L 191.07438 320.531872 
L 195.702479 320.621887 
L 200.330579 320.330334 
L 204.958678 319.729602 
L 209.586777 318.980249 
L 214.214876 318.322745 
L 218.842975 318.020392 
L 223.471074 318.175768 
L 228.099174 318.704306 
L 232.727273 319.480465 
L 237.355372 320.337997 
L 241.983471 321.161334 
L 246.61157 321.982954 
L 251.239669 322.929969 
L 255.867769 324.193238 
L 260.495868 326.026829 
L 265.123967 328.651417 
L 269.752066 332.108095 
L 274.380165 336.408309 
L 279.008264 341.400672 
L 283.636364 346.831172 
L 288.264463 351.884876 
L 292.892562 355.981186 
L 297.520661 358.53141 
L 302.14876 358.847367 
L 306.77686 356.841103 
L 311.404959 352.734468 
L 316.033058 347.022295 
L 320.661157 340.169632 
L 325.289256 331.197284 
L 329.917355 324.871351 
L 334.545455 317.565034 
L 339.173554 310.774451 
L 343.801653 304.733179 
L 348.429752 299.622773 
L 353.057851 295.434402 
L 357.68595 292.13522 
L 362.31405 289.689428 
L 366.942149 287.958589 
L 371.570248 286.835508 
L 376.198347 286.221272 
L 380.826446 286.016759 
L 385.454545 286.144335 
L 390.082645 286.510393 
L 394.710744 287.054889 
L 399.338843 287.719208 
L 403.966942 288.462578 
L 408.595041 289.258838 
L 413.22314 290.085936 
L 417.85124 290.92366 
L 422.479339 291.75612 
L 427.107438 292.574783 
L 431.735537 293.377046 
L 436.363636 294.148022 
L 440.991736 294.874178 
L 445.619835 295.541207 
L 450.247934 296.168325 
L 454.876033 296.76458 
L 459.504132 297.332823 
L 464.132231 297.870953 
L 468.760331 298.379157 
L 473.38843 298.861124 
L 478.016529 299.306375 
L 482.644628 299.710928 
L 487.272727 300.066922 
L 491.900826 300.392629 
L 496.528926 300.692257 
L 501.157025 300.966651 
L 505.785124 301.212285 
L 510.413223 301.426457 
L 515.041322 301.606649 
L 519.669421 301.74303 
L 524.297521 301.826549 
L 528.92562 301.837953 
L 533.553719 301.771608 
L 538.181818 301.628634 
L 542.809917 301.401866 
L 547.438017 301.069536 
L 552.066116 300.606035 
L 556.694215 299.979181 
L 561.322314 299.134064 
L 565.950413 298.055555 
L 570.578512 296.138542 
L 575.206612 294.230583 
L 579.834711 292.189053 
L 584.46281 288.571478 
L 589.090909 284.127312 
" style="fill:none;stroke:#2ca02c;stroke-linecap:square;stroke-width:8;"/>
   </g>
   <g id="line2d_12">
    <path clip-path="url(#p2825db9d82)" d="M 108 259.2 
L 612 259.2 
" style="fill:none;stroke:#000000;stroke-dasharray:3.2,0.8,0.5,0.8;stroke-dashoffset:0;stroke-width:0.5;"/>
   </g>
   <g id="line2d_13">
    <path clip-path="url(#p2825db9d82)" d="M 130.909091 154.513584 
L 135.53719 254.548676 
L 140.165289 278.851319 
L 144.793388 291.102894 
L 149.421488 298.116842 
L 154.049587 302.578749 
L 158.677686 305.98787 
L 163.305785 308.65538 
L 167.933884 310.839636 
L 172.561983 312.689644 
L 177.190083 314.283921 
L 181.818182 315.66955 
L 186.446281 316.877671 
L 191.07438 317.92295 
L 195.702479 318.811407 
L 200.330579 319.550036 
L 204.958678 320.164463 
L 209.586777 320.684955 
L 214.214876 321.148618 
L 218.842975 321.581052 
L 223.471074 321.995425 
L 228.099174 322.420652 
L 232.727273 322.883166 
L 237.355372 323.393978 
L 241.983471 323.911665 
L 246.61157 324.405831 
L 251.239669 324.867331 
L 255.867769 325.297631 
L 260.495868 325.716355 
L 265.123967 326.149384 
L 269.752066 326.614514 
L 274.380165 327.10963 
L 279.008264 327.609471 
L 283.636364 328.093973 
L 288.264463 328.557799 
L 292.892562 329.035424 
L 297.520661 329.629789 
L 302.14876 330.503868 
L 306.77686 331.793889 
L 311.404959 333.616332 
L 316.033058 336.037581 
L 320.661157 339.482182 
L 325.289256 343.314036 
L 329.917355 348.312913 
L 334.545455 354.084624 
L 339.173554 360.451515 
L 343.801653 367.010982 
L 348.429752 372.859415 
L 353.057851 377.148217 
L 357.68595 379.104894 
L 362.31405 378.00934 
L 366.942149 373.568156 
L 371.570248 366.321565 
L 376.198347 357.106276 
L 380.826446 346.915851 
L 385.454545 336.512937 
L 390.082645 326.811741 
L 394.710744 318.455416 
L 399.338843 311.473994 
L 403.966942 305.843295 
L 408.595041 301.427247 
L 413.22314 298.007668 
L 417.85124 295.439371 
L 422.479339 293.561515 
L 427.107438 292.223878 
L 431.735537 291.29113 
L 436.363636 290.673165 
L 440.991736 290.295947 
L 445.619835 290.110041 
L 450.247934 290.081354 
L 454.876033 290.188382 
L 459.504132 290.419734 
L 464.132231 290.764782 
L 468.760331 291.216445 
L 473.38843 291.770143 
L 478.016529 292.425106 
L 482.644628 293.179874 
L 487.272727 294.028963 
L 491.900826 294.972224 
L 496.528926 296.004042 
L 501.157025 297.113439 
L 505.785124 298.2928 
L 510.413223 299.53336 
L 515.041322 300.826048 
L 519.669421 302.164941 
L 524.297521 303.545825 
L 528.92562 304.957735 
L 533.553719 306.388893 
L 538.181818 307.832605 
L 542.809917 309.289925 
L 547.438017 310.758665 
L 552.066116 312.237184 
L 556.694215 314.087189 
L 561.322314 315.202724 
L 565.950413 316.684945 
L 570.578512 317.88762 
L 575.206612 319.203916 
L 579.834711 320.458301 
L 584.46281 319.943187 
L 589.090909 317.30448 
" style="fill:none;stroke:#d62728;stroke-linecap:square;stroke-width:8;"/>
   </g>
   <g id="line2d_14">
    <path clip-path="url(#p2825db9d82)" d="M 108 259.2 
L 612 259.2 
" style="fill:none;stroke:#000000;stroke-dasharray:3.2,0.8,0.5,0.8;stroke-dashoffset:0;stroke-width:0.5;"/>
   </g>
   <g id="line2d_15">
    <path clip-path="url(#p2825db9d82)" d="M 130.909091 237.48 
L 135.53719 274.983238 
L 140.165289 282.461537 
L 144.793388 285.588005 
L 149.421488 286.84947 
L 154.049587 288.009942 
L 158.677686 288.777486 
L 163.305785 289.397738 
L 167.933884 289.93317 
L 172.561983 290.414493 
L 177.190083 290.857305 
L 181.818182 291.280255 
L 186.446281 291.695897 
L 191.07438 292.117841 
L 195.702479 292.524462 
L 200.330579 292.909188 
L 204.958678 293.273031 
L 209.586777 293.614414 
L 214.214876 293.926959 
L 218.842975 294.201349 
L 223.471074 294.438073 
L 228.099174 294.64169 
L 232.727273 294.840872 
L 237.355372 295.012414 
L 241.983471 295.148217 
L 246.61157 295.26594 
L 251.239669 295.359325 
L 255.867769 295.430605 
L 260.495868 295.489238 
L 265.123967 295.53126 
L 269.752066 295.584211 
L 274.380165 295.673525 
L 279.008264 295.79466 
L 283.636364 295.939717 
L 288.264463 296.101685 
L 292.892562 296.278642 
L 297.520661 296.475558 
L 302.14876 296.688198 
L 306.77686 296.901954 
L 311.404959 297.129471 
L 316.033058 297.370555 
L 320.661157 297.631884 
L 325.289256 297.934974 
L 329.917355 298.212079 
L 334.545455 298.520903 
L 339.173554 298.835527 
L 343.801653 299.1625 
L 348.429752 299.498321 
L 353.057851 299.857751 
L 357.68595 300.237366 
L 362.31405 300.626298 
L 366.942149 301.031571 
L 371.570248 301.454353 
L 376.198347 301.904105 
L 380.826446 302.392011 
L 385.454545 302.919473 
L 390.082645 303.4789 
L 394.710744 304.062552 
L 399.338843 304.623269 
L 403.966942 305.134829 
L 408.595041 305.603081 
L 413.22314 306.034644 
L 417.85124 306.397803 
L 422.479339 306.668728 
L 427.107438 306.835372 
L 431.735537 306.861145 
L 436.363636 306.755606 
L 440.991736 306.534142 
L 445.619835 306.212185 
L 450.247934 305.825266 
L 454.876033 305.410278 
L 459.504132 305.018441 
L 464.132231 304.669176 
L 468.760331 304.42678 
L 473.38843 304.317322 
L 478.016529 304.384555 
L 482.644628 304.619591 
L 487.272727 305.016688 
L 491.900826 305.56962 
L 496.528926 306.261598 
L 501.157025 307.064473 
L 505.785124 307.94599 
L 510.413223 308.888153 
L 515.041322 309.858761 
L 519.669421 310.889078 
L 524.297521 311.970011 
L 528.92562 313.095352 
L 533.553719 314.272294 
L 538.181818 315.525304 
L 542.809917 316.880009 
L 547.438017 318.363552 
L 552.066116 320.013933 
L 556.694215 321.460672 
L 561.322314 323.970862 
L 565.950413 326.325806 
L 570.578512 328.695366 
L 575.206612 332.259153 
L 579.834711 334.447658 
L 584.46281 335.973202 
L 589.090909 332.74704 
" style="fill:none;stroke:#9467bd;stroke-linecap:square;stroke-width:8;"/>
   </g>
   <g id="line2d_16">
    <path clip-path="url(#p2825db9d82)" d="M 108 259.2 
L 612 259.2 
" style="fill:none;stroke:#000000;stroke-dasharray:3.2,0.8,0.5,0.8;stroke-dashoffset:0;stroke-width:0.5;"/>
   </g>
   <g id="line2d_17">
    <path clip-path="url(#p2825db9d82)" d="M 130.909091 258.46896 
L 135.53719 284.066032 
L 140.165289 280.935275 
L 144.793388 278.832918 
L 149.421488 273.744541 
L 154.049587 270.400958 
L 158.677686 267.684517 
L 163.305785 265.083146 
L 167.933884 262.775307 
L 172.561983 260.671887 
L 177.190083 258.728896 
L 181.818182 256.91678 
L 186.446281 255.224607 
L 191.07438 253.654394 
L 195.702479 252.19767 
L 200.330579 250.852133 
L 204.958678 249.617246 
L 209.586777 248.49592 
L 214.214876 247.476549 
L 218.842975 246.543686 
L 223.471074 245.689356 
L 228.099174 244.897192 
L 232.727273 244.186542 
L 237.355372 243.547184 
L 241.983471 242.974038 
L 246.61157 242.459577 
L 251.239669 242.010204 
L 255.867769 241.633869 
L 260.495868 241.347995 
L 265.123967 241.150619 
L 269.752066 241.034858 
L 274.380165 241.029211 
L 279.008264 241.132546 
L 283.636364 241.352345 
L 288.264463 241.701383 
L 292.892562 242.189207 
L 297.520661 242.802273 
L 302.14876 243.531965 
L 306.77686 244.371174 
L 311.404959 245.309278 
L 316.033058 246.345385 
L 320.661157 247.523445 
L 325.289256 248.854362 
L 329.917355 250.075538 
L 334.545455 252.028003 
L 339.173554 253.838476 
L 343.801653 255.724717 
L 348.429752 257.652067 
L 353.057851 259.580956 
L 357.68595 261.478906 
L 362.31405 263.28778 
L 366.942149 264.990213 
L 371.570248 266.644301 
L 376.198347 268.277297 
L 380.826446 269.907168 
L 385.454545 271.561899 
L 390.082645 273.261398 
L 394.710744 275.065359 
L 399.338843 276.936753 
L 403.966942 278.888483 
L 408.595041 280.894935 
L 413.22314 282.958777 
L 417.85124 285.067216 
L 422.479339 287.199662 
L 427.107438 289.3348 
L 431.735537 291.453297 
L 436.363636 293.574193 
L 440.991736 295.658854 
L 445.619835 297.722678 
L 450.247934 299.740478 
L 454.876033 301.727687 
L 459.504132 303.709747 
L 464.132231 305.694608 
L 468.760331 307.684577 
L 473.38843 309.67897 
L 478.016529 311.669569 
L 482.644628 313.646642 
L 487.272727 315.579159 
L 491.900826 317.453083 
L 496.528926 319.214988 
L 501.157025 320.874746 
L 505.785124 322.428359 
L 510.413223 323.882781 
L 515.041322 325.235994 
L 519.669421 326.487719 
L 524.297521 327.649456 
L 528.92562 328.762753 
L 533.553719 329.843637 
L 538.181818 330.927722 
L 542.809917 332.041349 
L 547.438017 333.211881 
L 552.066116 334.473393 
L 556.694215 335.84868 
L 561.322314 337.34366 
L 565.950413 338.788003 
L 570.578512 340.465146 
L 575.206612 342.11341 
L 579.834711 342.923914 
L 584.46281 341.38681 
L 589.090909 327.54096 
" style="fill:none;stroke:#8c564b;stroke-linecap:square;stroke-width:8;"/>
   </g>
   <g id="line2d_18">
    <path clip-path="url(#p2825db9d82)" d="M 108 259.2 
L 612 259.2 
" style="fill:none;stroke:#000000;stroke-dasharray:3.2,0.8,0.5,0.8;stroke-dashoffset:0;stroke-width:0.5;"/>
   </g>
   <g id="patch_3">
    <path d="M 108 403.2 
L 108 115.2 
" style="fill:none;stroke:#000000;stroke-linecap:square;stroke-linejoin:miter;stroke-width:0.8;"/>
   </g>
   <g id="patch_4">
    <path d="M 612 403.2 
L 612 115.2 
" style="fill:none;stroke:#000000;stroke-linecap:square;stroke-linejoin:miter;stroke-width:0.8;"/>
   </g>
   <g id="patch_5">
    <path d="M 108 403.2 
L 612 403.2 
" style="fill:none;stroke:#000000;stroke-linecap:square;stroke-linejoin:miter;stroke-width:0.8;"/>
   </g>
   <g id="patch_6">
    <path d="M 108 115.2 
L 612 115.2 
" style="fill:none;stroke:#000000;stroke-linecap:square;stroke-linejoin:miter;stroke-width:0.8;"/>
   </g>
   <g id="text_5">
    <!-- $\^t = 0.05$ -->
    <g transform="translate(599.19 268.984688)scale(0.42 -0.42)">
     <defs>
      <path d="M -7.5 50.703125 
L -10.90625 50.703125 
L -23.09375 61 
L -35.203125 50.703125 
L -38.59375 50.703125 
L -26.203125 67.40625 
L -20 67.40625 
z
" id="STIXGeneral-Regular-770"/>
      <path d="M 29.59375 42.796875 
L 29.09375 39.59375 
L 20.703125 39.59375 
L 12 6.796875 
Q 11.796875 6 11.796875 5.40625 
Q 11.796875 3.796875 13.296875 3.796875 
Q 14.5 3.796875 16.09375 5.34375 
Q 17.703125 6.90625 21.40625 11.703125 
L 22.703125 11 
Q 18.09375 4 15.140625 1.453125 
Q 12.203125 -1.09375 8.40625 -1.09375 
Q 3.796875 -1.09375 3.796875 2.59375 
Q 3.796875 3.59375 5.40625 10 
L 13.203125 39.59375 
L 5.703125 39.59375 
L 5.59375 40.203125 
Q 5.59375 42 8.90625 42.703125 
Q 11.40625 43.296875 15.5 46.546875 
Q 19.59375 49.796875 22.203125 53.703125 
Q 22.796875 54.59375 23.59375 54.59375 
Q 24.5 54.59375 24.5 53.796875 
Q 24.5 53.296875 24.40625 53.09375 
L 21.59375 42.796875 
z
" id="STIXGeneral-Italic-116"/>
      <path d="M 63.703125 32 
L 4.796875 32 
L 4.796875 38.59375 
L 63.703125 38.59375 
z
M 63.703125 12 
L 4.796875 12 
L 4.796875 18.59375 
L 63.703125 18.59375 
z
" id="STIXGeneral-Regular-61"/>
      <path d="M 18.09375 4.296875 
Q 18.09375 2.09375 16.4375 0.5 
Q 14.796875 -1.09375 12.5 -1.09375 
Q 10.203125 -1.09375 8.59375 0.5 
Q 7 2.09375 7 4.390625 
Q 7 6.703125 8.640625 8.34375 
Q 10.296875 10 12.59375 10 
Q 14.796875 10 16.4375 8.296875 
Q 18.09375 6.59375 18.09375 4.296875 
z
" id="STIXGeneral-Regular-46"/>
      <path d="M 43.796875 68.09375 
L 40.203125 59.59375 
Q 39.59375 58.296875 37.5 58.296875 
L 18.09375 58.296875 
L 14.09375 49.796875 
Q 25.09375 47.703125 30 45.25 
Q 34.90625 42.796875 39.09375 37 
Q 42.59375 32.203125 42.59375 24.296875 
Q 42.59375 17.09375 40.25 12.1875 
Q 37.90625 7.296875 32.796875 3.5 
Q 26 -1.40625 15.796875 -1.40625 
Q 10.09375 -1.40625 6.59375 0.296875 
Q 3.09375 2 3.09375 4.796875 
Q 3.09375 8.59375 7.59375 8.59375 
Q 11.203125 8.59375 15 5.5 
Q 18.90625 2.296875 22.09375 2.296875 
Q 27.296875 2.296875 31.4375 7.5 
Q 35.59375 12.703125 35.59375 19.203125 
Q 35.59375 28.796875 28.90625 34.203125 
Q 20.203125 41.203125 7.59375 41.203125 
Q 6.40625 41.203125 6.40625 42 
L 6.5 42.5 
L 17.40625 66.203125 
L 38.09375 66.203125 
Q 39.796875 66.203125 40.75 66.703125 
Q 41.703125 67.203125 42.90625 68.796875 
z
" id="STIXGeneral-Regular-53"/>
     </defs>
     <use transform="translate(39.042969 16.59375)" xlink:href="#STIXGeneral-Regular-770"/>
     <use transform="translate(0 0.203125)" xlink:href="#STIXGeneral-Italic-116"/>
     <use transform="translate(42.239984 0.203125)" xlink:href="#STIXGeneral-Regular-61"/>
     <use transform="translate(125.179965 0.203125)" xlink:href="#STIXGeneral-Regular-48"/>
     <use transform="translate(175.17995 0.203125)" xlink:href="#STIXGeneral-Regular-46"/>
     <use transform="translate(200.179935 0.203125)" xlink:href="#STIXGeneral-Regular-48"/>
     <use transform="translate(250.179919 0.203125)" xlink:href="#STIXGeneral-Regular-53"/>
    </g>
   </g>
   <g id="legend_1">
    <g id="line2d_19">
     <path d="M 87.45906 158.9325 
L 157.43106 158.9325 
" style="fill:none;stroke:#1f77b4;stroke-linecap:square;stroke-width:8;"/>
    </g>
    <g id="line2d_20"/>
    <g id="text_6">
     <!-- r/c = 0.52 -->
     <g transform="translate(185.41986 171.1776)scale(0.34986 -0.34986)">
      <defs>
       <path d="M 16 45.796875 
L 16 36.59375 
Q 19.796875 42 22.34375 44 
Q 24.90625 46 28 46 
Q 30.59375 46 32.046875 44.59375 
Q 33.5 43.203125 33.5 40.703125 
Q 33.5 38.59375 32.453125 37.390625 
Q 31.40625 36.203125 29.59375 36.203125 
Q 27.703125 36.203125 25.59375 38.203125 
Q 24 39.703125 23 39.703125 
Q 20.90625 39.703125 18.453125 36.796875 
Q 16 33.90625 16 31.5 
L 16 9 
Q 16 4.703125 17.703125 3.203125 
Q 19.40625 1.703125 24.5 1.5 
L 24.5 0 
L 0.5 0 
L 0.5 1.5 
Q 5.296875 2.40625 6.4375 3.5 
Q 7.59375 4.59375 7.59375 8.40625 
L 7.59375 33.40625 
Q 7.59375 36.703125 6.84375 38.046875 
Q 6.09375 39.40625 4.203125 39.40625 
Q 2.59375 39.40625 0.703125 39 
L 0.703125 40.59375 
Q 7 42.59375 15.5 46 
z
" id="STIXGeneral-Regular-114"/>
       <path d="M 28.703125 67.59375 
L 5.90625 -1.40625 
L -0.90625 -1.40625 
L 22 67.59375 
z
" id="STIXGeneral-Regular-47"/>
       <path d="M 39.796875 15.59375 
L 41.203125 14.703125 
Q 36.90625 6.296875 33 3.203125 
Q 27.90625 -1 21.5 -1 
Q 13.203125 -1 7.84375 5.25 
Q 2.5 11.5 2.5 21.203125 
Q 2.5 33.90625 10.90625 40.90625 
Q 17.09375 46 24.40625 46 
Q 30.703125 46 35.25 42.953125 
Q 39.796875 39.90625 39.796875 35.703125 
Q 39.796875 34 38.390625 32.75 
Q 37 31.5 35.09375 31.5 
Q 31.59375 31.5 30.296875 36.09375 
L 29.703125 38.296875 
Q 28.90625 41.09375 27.703125 42.09375 
Q 26.5 43.09375 23.796875 43.09375 
Q 17.703125 43.09375 13.953125 38.296875 
Q 10.203125 33.5 10.203125 25.703125 
Q 10.203125 17.09375 14.5 11.640625 
Q 18.796875 6.203125 25.703125 6.203125 
Q 30 6.203125 33.09375 8.25 
Q 36.203125 10.296875 39.796875 15.59375 
z
" id="STIXGeneral-Regular-99"/>
       <path id="STIXGeneral-Regular-32"/>
      </defs>
      <use xlink:href="#STIXGeneral-Regular-114"/>
      <use x="33.299988" xlink:href="#STIXGeneral-Regular-47"/>
      <use x="61.099976" xlink:href="#STIXGeneral-Regular-99"/>
      <use x="105.499969" xlink:href="#STIXGeneral-Regular-32"/>
      <use x="130.499954" xlink:href="#STIXGeneral-Regular-61"/>
      <use x="198.999939" xlink:href="#STIXGeneral-Regular-32"/>
      <use x="223.999924" xlink:href="#STIXGeneral-Regular-48"/>
      <use x="273.999908" xlink:href="#STIXGeneral-Regular-46"/>
      <use x="298.999893" xlink:href="#STIXGeneral-Regular-53"/>
      <use x="348.999878" xlink:href="#STIXGeneral-Regular-50"/>
     </g>
    </g>
    <g id="line2d_21">
     <path d="M 87.45906 208.508755 
L 157.43106 208.508755 
" style="fill:none;stroke:#ff7f0e;stroke-linecap:square;stroke-width:8;"/>
    </g>
    <g id="line2d_22"/>
    <g id="text_7">
     <!-- r/c = 1.04 -->
     <g transform="translate(185.41986 220.753855)scale(0.34986 -0.34986)">
      <defs>
       <path d="M 39.40625 0 
L 11.796875 0 
L 11.796875 1.5 
Q 17.296875 1.796875 19.296875 3.546875 
Q 21.296875 5.296875 21.296875 9.5 
L 21.296875 54.40625 
Q 21.296875 59.296875 18.296875 59.296875 
Q 16.90625 59.296875 13.796875 58.09375 
L 11.09375 57.09375 
L 11.09375 58.5 
L 29 67.59375 
L 29.90625 67.296875 
L 29.90625 7.59375 
Q 29.90625 4.296875 31.90625 2.890625 
Q 33.90625 1.5 39.40625 1.5 
z
" id="STIXGeneral-Regular-49"/>
       <path d="M 47.296875 16.703125 
L 37 16.703125 
L 37 0 
L 29.203125 0 
L 29.203125 16.703125 
L 1.203125 16.703125 
L 1.203125 23.09375 
L 32.59375 67.59375 
L 37 67.59375 
L 37 23.09375 
L 47.296875 23.09375 
z
M 29.203125 23.09375 
L 29.203125 57.40625 
L 5.203125 23.09375 
z
" id="STIXGeneral-Regular-52"/>
      </defs>
      <use xlink:href="#STIXGeneral-Regular-114"/>
      <use x="33.299988" xlink:href="#STIXGeneral-Regular-47"/>
      <use x="61.099976" xlink:href="#STIXGeneral-Regular-99"/>
      <use x="105.499969" xlink:href="#STIXGeneral-Regular-32"/>
      <use x="130.499954" xlink:href="#STIXGeneral-Regular-61"/>
      <use x="198.999939" xlink:href="#STIXGeneral-Regular-32"/>
      <use x="223.999924" xlink:href="#STIXGeneral-Regular-49"/>
      <use x="273.999908" xlink:href="#STIXGeneral-Regular-46"/>
      <use x="298.999893" xlink:href="#STIXGeneral-Regular-48"/>
      <use x="348.999878" xlink:href="#STIXGeneral-Regular-52"/>
     </g>
    </g>
    <g id="line2d_23">
     <path d="M 87.45906 258.085011 
L 157.43106 258.085011 
" style="fill:none;stroke:#2ca02c;stroke-linecap:square;stroke-width:8;"/>
    </g>
    <g id="line2d_24"/>
    <g id="text_8">
     <!-- r/c = 1.56 -->
     <g transform="translate(185.41986 270.330111)scale(0.34986 -0.34986)">
      <defs>
       <path d="M 44.59375 68.40625 
L 44.796875 66.796875 
Q 33 64.90625 25.09375 57.25 
Q 17.203125 49.59375 15.203125 38.296875 
Q 21 42.796875 27.90625 42.796875 
Q 36.703125 42.796875 41.75 37.1875 
Q 46.796875 31.59375 46.796875 21.90625 
Q 46.796875 12.09375 41.703125 5.90625 
Q 35.796875 -1.40625 25.796875 -1.40625 
Q 13.59375 -1.40625 8.09375 8.703125 
Q 3.40625 17.296875 3.40625 27.90625 
Q 3.40625 44.296875 14.296875 55.5 
Q 20.5 61.90625 27.046875 64.546875 
Q 33.59375 67.203125 44.59375 68.40625 
z
M 37.796875 18.796875 
Q 37.796875 38.203125 24.296875 38.203125 
Q 19.296875 38.203125 16 35.546875 
Q 12.703125 32.90625 12.703125 26.59375 
Q 12.703125 14.90625 16.34375 8.15625 
Q 20 1.40625 26.90625 1.40625 
Q 32.203125 1.40625 35 6.15625 
Q 37.796875 10.90625 37.796875 18.796875 
z
" id="STIXGeneral-Regular-54"/>
      </defs>
      <use xlink:href="#STIXGeneral-Regular-114"/>
      <use x="33.299988" xlink:href="#STIXGeneral-Regular-47"/>
      <use x="61.099976" xlink:href="#STIXGeneral-Regular-99"/>
      <use x="105.499969" xlink:href="#STIXGeneral-Regular-32"/>
      <use x="130.499954" xlink:href="#STIXGeneral-Regular-61"/>
      <use x="198.999939" xlink:href="#STIXGeneral-Regular-32"/>
      <use x="223.999924" xlink:href="#STIXGeneral-Regular-49"/>
      <use x="273.999908" xlink:href="#STIXGeneral-Regular-46"/>
      <use x="298.999893" xlink:href="#STIXGeneral-Regular-53"/>
      <use x="348.999878" xlink:href="#STIXGeneral-Regular-54"/>
     </g>
    </g>
    <g id="line2d_25">
     <path d="M 394.986 158.9325 
L 464.958 158.9325 
" style="fill:none;stroke:#d62728;stroke-linecap:square;stroke-width:8;"/>
    </g>
    <g id="line2d_26"/>
    <g id="text_9">
     <!-- r/c = 2.08 -->
     <g transform="translate(492.9468 171.1776)scale(0.34986 -0.34986)">
      <defs>
       <path d="M 44.5 15.5 
Q 44.5 7.796875 39.140625 3.1875 
Q 33.796875 -1.40625 24.796875 -1.40625 
Q 16.40625 -1.40625 11 3.1875 
Q 5.59375 7.796875 5.59375 14.90625 
Q 5.59375 20.203125 8.1875 23.953125 
Q 10.796875 27.703125 18.59375 33.203125 
Q 11.09375 39.40625 8.640625 43.203125 
Q 6.203125 47 6.203125 52 
Q 6.203125 59.09375 11.640625 63.34375 
Q 17.09375 67.59375 25.59375 67.59375 
Q 32.90625 67.59375 37.65625 63.4375 
Q 42.40625 59.296875 42.40625 53.296875 
Q 42.40625 47.796875 39.546875 44.5 
Q 36.703125 41.203125 29 37.09375 
Q 38 31.09375 41.25 26.390625 
Q 44.5 21.703125 44.5 15.5 
z
M 35.5 53.296875 
Q 35.5 58.5 32.59375 61.640625 
Q 29.703125 64.796875 24.59375 64.796875 
Q 19.5 64.796875 16.546875 62.140625 
Q 13.59375 59.5 13.59375 54.890625 
Q 13.59375 50.296875 16.546875 46.546875 
Q 19.5 42.796875 26.09375 38.90625 
Q 31.203125 41.90625 33.34375 45.25 
Q 35.5 48.59375 35.5 53.296875 
z
M 27.09375 27.203125 
L 21.203125 31.203125 
Q 16.796875 27.59375 15 24.140625 
Q 13.203125 20.703125 13.203125 15.796875 
Q 13.203125 9 16.640625 5.203125 
Q 20.09375 1.40625 25.90625 1.40625 
Q 30.796875 1.40625 33.84375 4.453125 
Q 36.90625 7.5 36.90625 12.40625 
Q 36.90625 16.90625 34.59375 20.296875 
Q 32.296875 23.703125 27.09375 27.203125 
z
" id="STIXGeneral-Regular-56"/>
      </defs>
      <use xlink:href="#STIXGeneral-Regular-114"/>
      <use x="33.299988" xlink:href="#STIXGeneral-Regular-47"/>
      <use x="61.099976" xlink:href="#STIXGeneral-Regular-99"/>
      <use x="105.499969" xlink:href="#STIXGeneral-Regular-32"/>
      <use x="130.499954" xlink:href="#STIXGeneral-Regular-61"/>
      <use x="198.999939" xlink:href="#STIXGeneral-Regular-32"/>
      <use x="223.999924" xlink:href="#STIXGeneral-Regular-50"/>
      <use x="273.999908" xlink:href="#STIXGeneral-Regular-46"/>
      <use x="298.999893" xlink:href="#STIXGeneral-Regular-48"/>
      <use x="348.999878" xlink:href="#STIXGeneral-Regular-56"/>
     </g>
    </g>
    <g id="line2d_27">
     <path d="M 394.986 208.508755 
L 464.958 208.508755 
" style="fill:none;stroke:#9467bd;stroke-linecap:square;stroke-width:8;"/>
    </g>
    <g id="line2d_28"/>
    <g id="text_10">
     <!-- r/c = 2.60 -->
     <g transform="translate(492.9468 220.753855)scale(0.34986 -0.34986)">
      <use xlink:href="#STIXGeneral-Regular-114"/>
      <use x="33.299988" xlink:href="#STIXGeneral-Regular-47"/>
      <use x="61.099976" xlink:href="#STIXGeneral-Regular-99"/>
      <use x="105.499969" xlink:href="#STIXGeneral-Regular-32"/>
      <use x="130.499954" xlink:href="#STIXGeneral-Regular-61"/>
      <use x="198.999939" xlink:href="#STIXGeneral-Regular-32"/>
      <use x="223.999924" xlink:href="#STIXGeneral-Regular-50"/>
      <use x="273.999908" xlink:href="#STIXGeneral-Regular-46"/>
      <use x="298.999893" xlink:href="#STIXGeneral-Regular-54"/>
      <use x="348.999878" xlink:href="#STIXGeneral-Regular-48"/>
     </g>
    </g>
    <g id="line2d_29">
     <path d="M 394.986 258.085011 
L 464.958 258.085011 
" style="fill:none;stroke:#8c564b;stroke-linecap:square;stroke-width:8;"/>
    </g>
    <g id="line2d_30"/>
    <g id="text_11">
     <!-- r/c = 3.12 -->
     <g transform="translate(492.9468 270.330111)scale(0.34986 -0.34986)">
      <defs>
       <path d="M 6.09375 51 
L 4.5 51.40625 
Q 6.796875 58.90625 11.6875 63.25 
Q 16.59375 67.59375 24.09375 67.59375 
Q 31.09375 67.59375 35.390625 63.796875 
Q 39.703125 60 39.703125 53.90625 
Q 39.703125 45.703125 30.40625 40.09375 
Q 35.90625 37.703125 38.703125 34.796875 
Q 43.09375 29.90625 43.09375 21.90625 
Q 43.09375 13.90625 38.5 7.90625 
Q 35.09375 3.296875 28.75 0.9375 
Q 22.40625 -1.40625 15.296875 -1.40625 
Q 4.09375 -1.40625 4.09375 4.296875 
Q 4.09375 5.90625 5.296875 6.90625 
Q 6.5 7.90625 8.203125 7.90625 
Q 10.703125 7.90625 14.296875 5.296875 
Q 18.703125 2.203125 22.90625 2.203125 
Q 28.40625 2.203125 32.15625 6.640625 
Q 35.90625 11.09375 35.90625 17.5 
Q 35.90625 29 25.5 32 
Q 22.40625 33 15.296875 33 
L 15.296875 34.40625 
Q 20.90625 36.296875 23.703125 38 
Q 31.796875 42.59375 31.796875 51.40625 
Q 31.796875 56.40625 28.9375 59 
Q 26.09375 61.59375 21 61.59375 
Q 12 61.59375 6.09375 51 
z
" id="STIXGeneral-Regular-51"/>
      </defs>
      <use xlink:href="#STIXGeneral-Regular-114"/>
      <use x="33.299988" xlink:href="#STIXGeneral-Regular-47"/>
      <use x="61.099976" xlink:href="#STIXGeneral-Regular-99"/>
      <use x="105.499969" xlink:href="#STIXGeneral-Regular-32"/>
      <use x="130.499954" xlink:href="#STIXGeneral-Regular-61"/>
      <use x="198.999939" xlink:href="#STIXGeneral-Regular-32"/>
      <use x="223.999924" xlink:href="#STIXGeneral-Regular-51"/>
      <use x="273.999908" xlink:href="#STIXGeneral-Regular-46"/>
      <use x="298.999893" xlink:href="#STIXGeneral-Regular-49"/>
      <use x="348.999878" xlink:href="#STIXGeneral-Regular-50"/>
     </g>
    </g>
   </g>
  </g>
  <g id="axes_2">
   <g id="patch_7">
    <path d="M 108 720 
L 612 720 
L 612 432 
L 108 432 
z
" style="fill:#ffffff;"/>
   </g>
   <g id="matplotlib.axis_3">
    <g id="xtick_4">
     <g id="line2d_31">
      <g>
       <use style="fill:#ffffff;stroke:#000000;stroke-width:0.8;" x="130.909091" xlink:href="#me1f6ec7ffd" y="720"/>
      </g>
     </g>
    </g>
    <g id="xtick_5">
     <g id="line2d_32">
      <g>
       <use style="fill:#ffffff;stroke:#000000;stroke-width:0.8;" x="360" xlink:href="#me1f6ec7ffd" y="720"/>
      </g>
     </g>
    </g>
    <g id="xtick_6">
     <g id="line2d_33">
      <g>
       <use style="fill:#ffffff;stroke:#000000;stroke-width:0.8;" x="589.090909" xlink:href="#me1f6ec7ffd" y="720"/>
      </g>
     </g>
    </g>
   </g>
   <g id="matplotlib.axis_4">
    <g id="ytick_4">
     <g id="line2d_34">
      <g>
       <use style="fill:#ffffff;stroke:#000000;stroke-width:0.8;" x="108" xlink:href="#m25c842db38" y="672"/>
      </g>
     </g>
     <g id="text_12">
      <!-- −2 -->
      <g transform="translate(51.23 686.342344)scale(0.42 -0.42)">
       <use xlink:href="#STIXGeneral-Regular-8722"/>
       <use x="68.499985" xlink:href="#STIXGeneral-Regular-50"/>
      </g>
     </g>
    </g>
    <g id="ytick_5">
     <g id="line2d_35">
      <g>
       <use style="fill:#ffffff;stroke:#000000;stroke-width:0.8;" x="108" xlink:href="#m25c842db38" y="576"/>
      </g>
     </g>
     <g id="text_13">
      <!-- 0 -->
      <g transform="translate(80 590.342344)scale(0.42 -0.42)">
       <use xlink:href="#STIXGeneral-Regular-48"/>
      </g>
     </g>
    </g>
    <g id="ytick_6">
     <g id="line2d_36">
      <g>
       <use style="fill:#ffffff;stroke:#000000;stroke-width:0.8;" x="108" xlink:href="#m25c842db38" y="480"/>
      </g>
     </g>
     <g id="text_14">
      <!-- 2 -->
      <g transform="translate(80 494.342344)scale(0.42 -0.42)">
       <use xlink:href="#STIXGeneral-Regular-50"/>
      </g>
     </g>
    </g>
    <g id="text_15">
     <!-- Cp -->
     <g transform="translate(38.114688 600.507656)rotate(-90)scale(0.42 -0.42)">
      <use xlink:href="#STIXGeneral-Regular-67"/>
      <use x="66.699997" xlink:href="#STIXGeneral-Regular-112"/>
     </g>
    </g>
   </g>
   <g id="line2d_37">
    <path clip-path="url(#pbfd273bd2f)" d="M 130.909091 526.462896 
L 135.53719 548.812926 
L 140.165289 556.814838 
L 144.793388 560.93558 
L 149.421488 563.055229 
L 154.049587 564.877227 
L 158.677686 565.991625 
L 163.305785 566.756114 
L 167.933884 567.32564 
L 172.561983 567.757863 
L 177.190083 568.101561 
L 181.818182 568.367433 
L 186.446281 568.580964 
L 191.07438 568.747566 
L 195.702479 568.875849 
L 200.330579 568.975188 
L 204.958678 569.049423 
L 209.586777 569.099582 
L 214.214876 569.128387 
L 218.842975 569.136226 
L 223.471074 569.124221 
L 228.099174 569.095013 
L 232.727273 569.048804 
L 237.355372 568.986301 
L 241.983471 568.906681 
L 246.61157 568.810731 
L 251.239669 568.700847 
L 255.867769 568.578289 
L 260.495868 568.444487 
L 265.123967 568.30149 
L 269.752066 568.151442 
L 274.380165 567.997968 
L 279.008264 567.843144 
L 283.636364 567.689005 
L 288.264463 567.53761 
L 292.892562 567.391414 
L 297.520661 567.250422 
L 302.14876 567.11553 
L 306.77686 566.98761 
L 311.404959 566.868125 
L 316.033058 566.756909 
L 320.661157 566.653605 
L 325.289256 566.558133 
L 329.917355 566.469523 
L 334.545455 566.387805 
L 339.173554 566.31371 
L 343.801653 566.245909 
L 348.429752 566.183312 
L 353.057851 566.124686 
L 357.68595 566.069979 
L 362.31405 566.017097 
L 366.942149 565.989322 
L 371.570248 565.946496 
L 376.198347 565.912555 
L 380.826446 565.876967 
L 385.454545 565.844047 
L 390.082645 565.820059 
L 394.710744 565.808133 
L 399.338843 565.80373 
L 403.966942 565.806605 
L 408.595041 565.81681 
L 413.22314 565.838107 
L 417.85124 565.873144 
L 422.479339 565.922251 
L 427.107438 565.988643 
L 431.735537 566.072569 
L 436.363636 566.175986 
L 440.991736 566.300946 
L 445.619835 566.450081 
L 450.247934 566.627844 
L 454.876033 566.832588 
L 459.504132 567.065128 
L 464.132231 567.326521 
L 468.760331 567.615656 
L 473.38843 567.9322 
L 478.016529 568.272863 
L 482.644628 568.635515 
L 487.272727 569.016988 
L 491.900826 569.415015 
L 496.528926 569.826417 
L 501.157025 570.245172 
L 505.785124 570.668399 
L 510.413223 571.0938 
L 515.041322 571.519895 
L 519.669421 571.94631 
L 524.297521 572.373402 
L 528.92562 572.802029 
L 533.553719 573.235492 
L 538.181818 573.671387 
L 542.809917 574.095043 
L 547.438017 574.516254 
L 552.066116 574.954124 
L 556.694215 575.365671 
L 561.322314 575.731088 
L 565.950413 576.051447 
L 570.578512 576.383142 
L 575.206612 576.726633 
L 579.834711 577.069214 
L 584.46281 577.699326 
L 589.090909 579.029664 
" style="fill:none;stroke:#1f77b4;stroke-linecap:square;stroke-width:8;"/>
   </g>
   <g id="line2d_38">
    <path clip-path="url(#pbfd273bd2f)" d="M 108 576 
L 612 576 
" style="fill:none;stroke:#000000;stroke-dasharray:3.2,0.8,0.5,0.8;stroke-dashoffset:0;stroke-width:0.5;"/>
   </g>
   <g id="line2d_39">
    <path clip-path="url(#pbfd273bd2f)" d="M 130.909091 510.541296 
L 135.53719 535.579386 
L 140.165289 546.469307 
L 144.793388 552.704727 
L 149.421488 556.641193 
L 154.049587 559.288523 
L 158.677686 561.162348 
L 163.305785 562.642153 
L 167.933884 563.753789 
L 172.561983 564.647444 
L 177.190083 565.363943 
L 181.818182 565.945289 
L 186.446281 566.424124 
L 191.07438 566.827548 
L 195.702479 567.168655 
L 200.330579 567.453875 
L 204.958678 567.701336 
L 209.586777 567.91264 
L 214.214876 568.099208 
L 218.842975 568.253741 
L 223.471074 568.385919 
L 228.099174 568.491699 
L 232.727273 568.587579 
L 237.355372 568.676463 
L 241.983471 568.753507 
L 246.61157 568.820144 
L 251.239669 568.877712 
L 255.867769 568.92919 
L 260.495868 568.981151 
L 265.123967 569.019399 
L 269.752066 569.052065 
L 274.380165 569.079152 
L 279.008264 569.108965 
L 283.636364 569.143759 
L 288.264463 569.177361 
L 292.892562 569.20926 
L 297.520661 569.24112 
L 302.14876 569.274697 
L 306.77686 569.315022 
L 311.404959 569.357858 
L 316.033058 569.400844 
L 320.661157 569.447257 
L 325.289256 569.498909 
L 329.917355 569.567889 
L 334.545455 569.668816 
L 339.173554 569.729872 
L 343.801653 569.823218 
L 348.429752 569.928046 
L 353.057851 570.044613 
L 357.68595 570.173719 
L 362.31405 570.310244 
L 366.942149 570.459602 
L 371.570248 570.607782 
L 376.198347 570.771474 
L 380.826446 570.947751 
L 385.454545 571.132035 
L 390.082645 571.323181 
L 394.710744 571.520315 
L 399.338843 571.720823 
L 403.966942 571.931708 
L 408.595041 572.148463 
L 413.22314 572.379022 
L 417.85124 572.589829 
L 422.479339 572.816194 
L 427.107438 573.058999 
L 431.735537 573.312191 
L 436.363636 573.576467 
L 440.991736 573.851722 
L 445.619835 574.138047 
L 450.247934 574.445154 
L 454.876033 574.786175 
L 459.504132 575.152795 
L 464.132231 575.502413 
L 468.760331 575.852079 
L 473.38843 576.241976 
L 478.016529 576.663902 
L 482.644628 577.113434 
L 487.272727 577.589836 
L 491.900826 578.08846 
L 496.528926 578.614783 
L 501.157025 579.18176 
L 505.785124 579.770018 
L 510.413223 580.356964 
L 515.041322 580.912688 
L 519.669421 581.509462 
L 524.297521 582.14173 
L 528.92562 582.804765 
L 533.553719 583.482894 
L 538.181818 584.167289 
L 542.809917 584.851962 
L 547.438017 585.533141 
L 552.066116 586.197703 
L 556.694215 586.903674 
L 561.322314 587.405218 
L 565.950413 588.127875 
L 570.578512 588.744921 
L 575.206612 589.19986 
L 579.834711 588.576769 
L 584.46281 588.520422 
L 589.090909 587.635536 
" style="fill:none;stroke:#ff7f0e;stroke-linecap:square;stroke-width:8;"/>
   </g>
   <g id="line2d_40">
    <path clip-path="url(#pbfd273bd2f)" d="M 108 576 
L 612 576 
" style="fill:none;stroke:#000000;stroke-dasharray:3.2,0.8,0.5,0.8;stroke-dashoffset:0;stroke-width:0.5;"/>
   </g>
   <g id="line2d_41">
    <path clip-path="url(#pbfd273bd2f)" d="M 130.909091 397.006944 
L 135.53719 497.689649 
L 140.165289 523.094433 
L 144.793388 538.064243 
L 149.421488 546.519125 
L 154.049587 551.671158 
L 158.677686 555.538736 
L 163.305785 558.405947 
L 167.933884 560.655053 
L 172.561983 562.467885 
L 177.190083 563.950043 
L 181.818182 565.182492 
L 186.446281 566.239029 
L 191.07438 567.15525 
L 195.702479 567.953592 
L 200.330579 568.656428 
L 204.958678 569.285644 
L 209.586777 569.853697 
L 214.214876 570.370483 
L 218.842975 570.841419 
L 223.471074 571.273135 
L 228.099174 571.667341 
L 232.727273 572.029911 
L 237.355372 572.37234 
L 241.983471 572.69981 
L 246.61157 573.013103 
L 251.239669 573.31224 
L 255.867769 573.598661 
L 260.495868 573.873931 
L 265.123967 574.136545 
L 269.752066 574.386334 
L 274.380165 574.631142 
L 279.008264 574.878901 
L 283.636364 575.13242 
L 288.264463 575.36744 
L 292.892562 575.588758 
L 297.520661 575.786144 
L 302.14876 575.992232 
L 306.77686 576.219933 
L 311.404959 576.456418 
L 316.033058 576.690331 
L 320.661157 576.925605 
L 325.289256 577.212092 
L 329.917355 577.415759 
L 334.545455 577.66641 
L 339.173554 577.918752 
L 343.801653 578.173486 
L 348.429752 578.428364 
L 353.057851 578.678782 
L 357.68595 578.925149 
L 362.31405 579.175425 
L 366.942149 579.43498 
L 371.570248 579.701884 
L 376.198347 579.973664 
L 380.826446 580.249595 
L 385.454545 580.530428 
L 390.082645 580.813563 
L 394.710744 581.093504 
L 399.338843 581.367612 
L 403.966942 581.643098 
L 408.595041 581.927999 
L 413.22314 582.222477 
L 417.85124 582.524333 
L 422.479339 582.831413 
L 427.107438 583.142477 
L 431.735537 583.455497 
L 436.363636 583.767115 
L 440.991736 584.073099 
L 445.619835 584.378253 
L 450.247934 584.691835 
L 454.876033 585.014675 
L 459.504132 585.344824 
L 464.132231 585.680483 
L 468.760331 586.020879 
L 473.38843 586.362913 
L 478.016529 586.702848 
L 482.644628 587.03826 
L 487.272727 587.371736 
L 491.900826 587.710944 
L 496.528926 588.056457 
L 501.157025 588.406978 
L 505.785124 588.762854 
L 510.413223 589.123435 
L 515.041322 589.488427 
L 519.669421 589.853657 
L 524.297521 590.213649 
L 528.92562 590.566328 
L 533.553719 590.914585 
L 538.181818 591.258962 
L 542.809917 591.597817 
L 547.438017 591.926843 
L 552.066116 592.241381 
L 556.694215 592.537331 
L 561.322314 592.805826 
L 565.950413 593.051743 
L 570.578512 593.249294 
L 575.206612 593.435675 
L 579.834711 593.003246 
L 584.46281 592.125879 
L 589.090909 590.483376 
" style="fill:none;stroke:#2ca02c;stroke-linecap:square;stroke-width:8;"/>
   </g>
   <g id="line2d_42">
    <path clip-path="url(#pbfd273bd2f)" d="M 108 576 
L 612 576 
" style="fill:none;stroke:#000000;stroke-dasharray:3.2,0.8,0.5,0.8;stroke-dashoffset:0;stroke-width:0.5;"/>
   </g>
   <g id="line2d_43">
    <path clip-path="url(#pbfd273bd2f)" d="M 130.909091 400.259472 
L 135.53719 495.489134 
L 140.165289 520.907378 
L 144.793388 535.189879 
L 149.421488 544.322158 
L 154.049587 550.206371 
L 158.677686 554.707813 
L 163.305785 558.14922 
L 167.933884 560.879785 
L 172.561983 563.123843 
L 177.190083 565.011863 
L 181.818182 566.624434 
L 186.446281 568.031433 
L 191.07438 569.269939 
L 195.702479 570.374029 
L 200.330579 571.365413 
L 204.958678 572.265038 
L 209.586777 573.08916 
L 214.214876 573.84998 
L 218.842975 574.555985 
L 223.471074 575.215971 
L 228.099174 575.834719 
L 232.727273 576.416197 
L 237.355372 576.968112 
L 241.983471 577.496396 
L 246.61157 578.004357 
L 251.239669 578.49394 
L 255.867769 578.966619 
L 260.495868 579.423593 
L 265.123967 579.86516 
L 269.752066 580.293042 
L 274.380165 580.709333 
L 279.008264 581.117111 
L 283.636364 581.518431 
L 288.264463 581.911701 
L 292.892562 582.297962 
L 297.520661 582.679767 
L 302.14876 583.055798 
L 306.77686 583.425433 
L 311.404959 583.78967 
L 316.033058 584.149974 
L 320.661157 584.527876 
L 325.289256 584.869231 
L 329.917355 585.22836 
L 334.545455 585.587606 
L 339.173554 585.944865 
L 343.801653 586.299995 
L 348.429752 586.650005 
L 353.057851 586.995707 
L 357.68595 587.338143 
L 362.31405 587.680448 
L 366.942149 588.023816 
L 371.570248 588.368001 
L 376.198347 588.712589 
L 380.826446 589.055805 
L 385.454545 589.395571 
L 390.082645 589.728878 
L 394.710744 590.057 
L 399.338843 590.381166 
L 403.966942 590.703218 
L 408.595041 591.022072 
L 413.22314 591.336161 
L 417.85124 591.646329 
L 422.479339 591.953312 
L 427.107438 592.258807 
L 431.735537 592.565584 
L 436.363636 592.8757 
L 440.991736 593.191891 
L 445.619835 593.516815 
L 450.247934 593.851224 
L 454.876033 594.194738 
L 459.504132 594.544648 
L 464.132231 594.897643 
L 468.760331 595.246818 
L 473.38843 595.588048 
L 478.016529 595.918383 
L 482.644628 596.235165 
L 487.272727 596.53552 
L 491.900826 596.814838 
L 496.528926 597.070201 
L 501.157025 597.300752 
L 505.785124 597.505447 
L 510.413223 597.685921 
L 515.041322 597.843825 
L 519.669421 597.978797 
L 524.297521 598.087342 
L 528.92562 598.166963 
L 533.553719 598.215838 
L 538.181818 598.232225 
L 542.809917 598.215927 
L 547.438017 598.163259 
L 552.066116 598.066338 
L 556.694215 597.863031 
L 561.322314 597.675565 
L 565.950413 597.333887 
L 570.578512 596.876534 
L 575.206612 596.125165 
L 579.834711 594.908425 
L 584.46281 593.466298 
L 589.090909 590.688432 
" style="fill:none;stroke:#d62728;stroke-linecap:square;stroke-width:8;"/>
   </g>
   <g id="line2d_44">
    <path clip-path="url(#pbfd273bd2f)" d="M 108 576 
L 612 576 
" style="fill:none;stroke:#000000;stroke-dasharray:3.2,0.8,0.5,0.8;stroke-dashoffset:0;stroke-width:0.5;"/>
   </g>
   <g id="line2d_45">
    <path clip-path="url(#pbfd273bd2f)" d="M 130.909091 569.44752 
L 135.53719 562.324314 
L 140.165289 563.837687 
L 144.793388 565.344446 
L 149.421488 566.317462 
L 154.049587 566.917478 
L 158.677686 567.44037 
L 163.305785 567.916695 
L 167.933884 568.378744 
L 172.561983 568.852832 
L 177.190083 569.346619 
L 181.818182 569.863947 
L 186.446281 570.401666 
L 191.07438 570.959076 
L 195.702479 571.528177 
L 200.330579 572.100475 
L 204.958678 572.671486 
L 209.586777 573.2405 
L 214.214876 573.804819 
L 218.842975 574.36185 
L 223.471074 574.915956 
L 228.099174 575.469417 
L 232.727273 576.013342 
L 237.355372 576.533321 
L 241.983471 577.041005 
L 246.61157 577.539129 
L 251.239669 578.027948 
L 255.867769 578.506025 
L 260.495868 578.972131 
L 265.123967 579.441759 
L 269.752066 579.911804 
L 274.380165 580.368703 
L 279.008264 580.803854 
L 283.636364 581.225229 
L 288.264463 581.635387 
L 292.892562 582.025583 
L 297.520661 582.415009 
L 302.14876 582.821348 
L 306.77686 583.253389 
L 311.404959 583.697744 
L 316.033058 584.126731 
L 320.661157 584.538347 
L 325.289256 584.973725 
L 329.917355 585.350139 
L 334.545455 585.763572 
L 339.173554 586.177768 
L 343.801653 586.598047 
L 348.429752 587.023525 
L 353.057851 587.45112 
L 357.68595 587.855693 
L 362.31405 588.249435 
L 366.942149 588.647974 
L 371.570248 589.055489 
L 376.198347 589.468418 
L 380.826446 589.887409 
L 385.454545 590.325427 
L 390.082645 590.77066 
L 394.710744 591.220801 
L 399.338843 591.668899 
L 403.966942 592.133439 
L 408.595041 592.618289 
L 413.22314 593.109046 
L 417.85124 593.585599 
L 422.479339 594.030169 
L 427.107438 594.41666 
L 431.735537 594.723346 
L 436.363636 594.932761 
L 440.991736 595.042829 
L 445.619835 595.081018 
L 450.247934 595.070992 
L 454.876033 595.039461 
L 459.504132 595.013806 
L 464.132231 595.031546 
L 468.760331 595.071804 
L 473.38843 595.151559 
L 478.016529 595.298427 
L 482.644628 595.591225 
L 487.272727 596.061931 
L 491.900826 596.709367 
L 496.528926 597.512464 
L 501.157025 598.423689 
L 505.785124 599.380721 
L 510.413223 600.369928 
L 515.041322 601.376804 
L 519.669421 602.347352 
L 524.297521 603.239466 
L 528.92562 604.041061 
L 533.553719 604.688158 
L 538.181818 605.17022 
L 542.809917 605.465342 
L 547.438017 605.541616 
L 552.066116 605.361715 
L 556.694215 605.033436 
L 561.322314 604.151144 
L 565.950413 603.051627 
L 570.578512 601.740068 
L 575.206612 599.833847 
L 579.834711 597.419692 
L 584.46281 593.372058 
L 589.090909 587.684304 
" style="fill:none;stroke:#9467bd;stroke-linecap:square;stroke-width:8;"/>
   </g>
   <g id="line2d_46">
    <path clip-path="url(#pbfd273bd2f)" d="M 108 576 
L 612 576 
" style="fill:none;stroke:#000000;stroke-dasharray:3.2,0.8,0.5,0.8;stroke-dashoffset:0;stroke-width:0.5;"/>
   </g>
   <g id="line2d_47">
    <path clip-path="url(#pbfd273bd2f)" d="M 130.909091 607.83456 
L 135.53719 515.643807 
L 140.165289 505.508002 
L 144.793388 504.827916 
L 149.421488 506.278571 
L 154.049587 508.577122 
L 158.677686 511.243835 
L 163.305785 514.034933 
L 167.933884 516.836489 
L 172.561983 519.602336 
L 177.190083 522.318888 
L 181.818182 524.982873 
L 186.446281 527.587732 
L 191.07438 530.129786 
L 195.702479 532.619358 
L 200.330579 535.064519 
L 204.958678 537.457684 
L 209.586777 539.795072 
L 214.214876 542.086532 
L 218.842975 544.332003 
L 223.471074 546.556491 
L 228.099174 548.74887 
L 232.727273 550.872525 
L 237.355372 552.93896 
L 241.983471 554.979101 
L 246.61157 556.989167 
L 251.239669 558.969651 
L 255.867769 560.927582 
L 260.495868 562.852467 
L 265.123967 564.758425 
L 269.752066 566.64117 
L 274.380165 568.490215 
L 279.008264 570.315003 
L 283.636364 572.120233 
L 288.264463 573.905611 
L 292.892562 575.64843 
L 297.520661 577.343076 
L 302.14876 578.964209 
L 306.77686 580.510488 
L 311.404959 582.003117 
L 316.033058 583.463731 
L 320.661157 584.832293 
L 325.289256 586.153264 
L 329.917355 587.215401 
L 334.545455 588.721411 
L 339.173554 589.951492 
L 343.801653 591.137898 
L 348.429752 592.283121 
L 353.057851 593.374269 
L 357.68595 594.406952 
L 362.31405 595.354531 
L 366.942149 596.221477 
L 371.570248 597.038476 
L 376.198347 597.823274 
L 380.826446 598.576277 
L 385.454545 599.298698 
L 390.082645 599.999097 
L 394.710744 600.656218 
L 399.338843 601.26738 
L 403.966942 601.82378 
L 408.595041 602.308797 
L 413.22314 602.75113 
L 417.85124 603.174708 
L 422.479339 603.581471 
L 427.107438 603.969917 
L 431.735537 604.347526 
L 436.363636 604.703923 
L 440.991736 605.007008 
L 445.619835 605.276498 
L 450.247934 605.49825 
L 454.876033 605.681054 
L 459.504132 605.845898 
L 464.132231 605.996066 
L 468.760331 606.127615 
L 473.38843 606.243911 
L 478.016529 606.338151 
L 482.644628 606.375278 
L 487.272727 606.373114 
L 491.900826 606.334784 
L 496.528926 606.253407 
L 501.157025 606.127435 
L 505.785124 605.955599 
L 510.413223 605.73285 
L 515.041322 605.450578 
L 519.669421 605.094852 
L 524.297521 604.642971 
L 528.92562 604.115786 
L 533.553719 603.470402 
L 538.181818 602.695102 
L 542.809917 601.792068 
L 547.438017 600.748314 
L 552.066116 599.537229 
L 556.694215 598.121486 
L 561.322314 596.450158 
L 565.950413 594.715847 
L 570.578512 592.304216 
L 575.206612 589.04729 
L 579.834711 586.170453 
L 584.46281 580.962728 
L 589.090909 573.175584 
" style="fill:none;stroke:#8c564b;stroke-linecap:square;stroke-width:8;"/>
   </g>
   <g id="line2d_48">
    <path clip-path="url(#pbfd273bd2f)" d="M 108 576 
L 612 576 
" style="fill:none;stroke:#000000;stroke-dasharray:3.2,0.8,0.5,0.8;stroke-dashoffset:0;stroke-width:0.5;"/>
   </g>
   <g id="patch_8">
    <path d="M 108 720 
L 108 432 
" style="fill:none;stroke:#000000;stroke-linecap:square;stroke-linejoin:miter;stroke-width:0.8;"/>
   </g>
   <g id="patch_9">
    <path d="M 612 720 
L 612 432 
" style="fill:none;stroke:#000000;stroke-linecap:square;stroke-linejoin:miter;stroke-width:0.8;"/>
   </g>
   <g id="patch_10">
    <path d="M 108 720 
L 612 720 
" style="fill:none;stroke:#000000;stroke-linecap:square;stroke-linejoin:miter;stroke-width:0.8;"/>
   </g>
   <g id="patch_11">
    <path d="M 108 432 
L 612 432 
" style="fill:none;stroke:#000000;stroke-linecap:square;stroke-linejoin:miter;stroke-width:0.8;"/>
   </g>
   <g id="text_16">
    <!-- $\^t = 0.15$ -->
    <g transform="translate(599.19 585.784688)scale(0.42 -0.42)">
     <use transform="translate(39.042969 16.59375)" xlink:href="#STIXGeneral-Regular-770"/>
     <use transform="translate(0 0.203125)" xlink:href="#STIXGeneral-Italic-116"/>
     <use transform="translate(42.239984 0.203125)" xlink:href="#STIXGeneral-Regular-61"/>
     <use transform="translate(125.179965 0.203125)" xlink:href="#STIXGeneral-Regular-48"/>
     <use transform="translate(175.17995 0.203125)" xlink:href="#STIXGeneral-Regular-46"/>
     <use transform="translate(200.179935 0.203125)" xlink:href="#STIXGeneral-Regular-49"/>
     <use transform="translate(250.179919 0.203125)" xlink:href="#STIXGeneral-Regular-53"/>
    </g>
   </g>
  </g>
  <g id="axes_3">
   <g id="patch_12">
    <path d="M 108 1036.8 
L 612 1036.8 
L 612 748.8 
L 108 748.8 
z
" style="fill:#ffffff;"/>
   </g>
   <g id="matplotlib.axis_5">
    <g id="xtick_7">
     <g id="line2d_49">
      <g>
       <use style="fill:#ffffff;stroke:#000000;stroke-width:0.8;" x="130.909091" xlink:href="#me1f6ec7ffd" y="1036.8"/>
      </g>
     </g>
     <g id="text_17">
      <!-- 0.0 -->
      <g transform="translate(104.659091 1072.484688)scale(0.42 -0.42)">
       <use xlink:href="#STIXGeneral-Regular-48"/>
       <use x="49.999985" xlink:href="#STIXGeneral-Regular-46"/>
       <use x="74.999969" xlink:href="#STIXGeneral-Regular-48"/>
      </g>
     </g>
    </g>
    <g id="xtick_8">
     <g id="line2d_50">
      <g>
       <use style="fill:#ffffff;stroke:#000000;stroke-width:0.8;" x="360" xlink:href="#me1f6ec7ffd" y="1036.8"/>
      </g>
     </g>
     <g id="text_18">
      <!-- 0.5 -->
      <g transform="translate(333.75 1072.484688)scale(0.42 -0.42)">
       <use xlink:href="#STIXGeneral-Regular-48"/>
       <use x="49.999985" xlink:href="#STIXGeneral-Regular-46"/>
       <use x="74.999969" xlink:href="#STIXGeneral-Regular-53"/>
      </g>
     </g>
    </g>
    <g id="xtick_9">
     <g id="line2d_51">
      <g>
       <use style="fill:#ffffff;stroke:#000000;stroke-width:0.8;" x="589.090909" xlink:href="#me1f6ec7ffd" y="1036.8"/>
      </g>
     </g>
     <g id="text_19">
      <!-- 1.0 -->
      <g transform="translate(562.840909 1072.484688)scale(0.42 -0.42)">
       <use xlink:href="#STIXGeneral-Regular-49"/>
       <use x="49.999985" xlink:href="#STIXGeneral-Regular-46"/>
       <use x="74.999969" xlink:href="#STIXGeneral-Regular-48"/>
      </g>
     </g>
    </g>
    <g id="text_20">
     <!-- x/c -->
     <g transform="translate(334.337344 1114.284688)scale(0.42 -0.42)">
      <defs>
       <path d="M 47.90625 0 
L 27.796875 0 
L 27.796875 1.5 
Q 30.296875 1.703125 31.046875 2.140625 
Q 31.796875 2.59375 31.796875 3.90625 
Q 31.796875 4.796875 31.203125 5.703125 
L 22.09375 19.703125 
L 14.203125 7.40625 
Q 12.203125 4.296875 12.203125 3.296875 
Q 12.203125 1.5 16.203125 1.5 
L 16.203125 0 
L 1.703125 0 
L 1.703125 1.5 
Q 4.203125 1.703125 5.546875 2.640625 
Q 6.90625 3.59375 9 6.59375 
L 20.40625 23.09375 
L 11 37.5 
Q 8.703125 41 7.09375 42.25 
Q 5.5 43.5 3.296875 43.5 
L 2.40625 43.5 
L 2.40625 45 
L 23.09375 45 
L 23.09375 43.5 
Q 18.796875 43.40625 18.796875 41.296875 
Q 18.796875 39.203125 23.40625 32.40625 
Q 24.703125 30.59375 24.796875 30.40625 
Q 25.296875 31.09375 27.796875 34.796875 
Q 28.296875 35.703125 29 36.703125 
Q 29.703125 37.703125 30.046875 38.296875 
Q 30.40625 38.90625 30.796875 39.5 
Q 31.203125 40.09375 31.34375 40.546875 
Q 31.5 41 31.5 41.296875 
Q 31.5 43.203125 27.5 43.5 
L 27.5 45 
L 43.296875 45 
L 43.296875 43.5 
Q 38.203125 43.296875 35.203125 39.09375 
L 26.90625 27.09375 
L 39.703125 7.5 
Q 43.59375 1.5 47.90625 1.5 
z
" id="STIXGeneral-Regular-120"/>
      </defs>
      <use xlink:href="#STIXGeneral-Regular-120"/>
      <use x="49.999985" xlink:href="#STIXGeneral-Regular-47"/>
      <use x="77.799973" xlink:href="#STIXGeneral-Regular-99"/>
     </g>
    </g>
   </g>
   <g id="matplotlib.axis_6">
    <g id="ytick_7">
     <g id="line2d_52">
      <g>
       <use style="fill:#ffffff;stroke:#000000;stroke-width:0.8;" x="108" xlink:href="#m25c842db38" y="988.8"/>
      </g>
     </g>
     <g id="text_21">
      <!-- −2 -->
      <g transform="translate(51.23 1003.142344)scale(0.42 -0.42)">
       <use xlink:href="#STIXGeneral-Regular-8722"/>
       <use x="68.499985" xlink:href="#STIXGeneral-Regular-50"/>
      </g>
     </g>
    </g>
    <g id="ytick_8">
     <g id="line2d_53">
      <g>
       <use style="fill:#ffffff;stroke:#000000;stroke-width:0.8;" x="108" xlink:href="#m25c842db38" y="892.8"/>
      </g>
     </g>
     <g id="text_22">
      <!-- 0 -->
      <g transform="translate(80 907.142344)scale(0.42 -0.42)">
       <use xlink:href="#STIXGeneral-Regular-48"/>
      </g>
     </g>
    </g>
    <g id="ytick_9">
     <g id="line2d_54">
      <g>
       <use style="fill:#ffffff;stroke:#000000;stroke-width:0.8;" x="108" xlink:href="#m25c842db38" y="796.8"/>
      </g>
     </g>
     <g id="text_23">
      <!-- 2 -->
      <g transform="translate(80 811.142344)scale(0.42 -0.42)">
       <use xlink:href="#STIXGeneral-Regular-50"/>
      </g>
     </g>
    </g>
    <g id="text_24">
     <!-- Cp -->
     <g transform="translate(38.114688 917.307656)rotate(-90)scale(0.42 -0.42)">
      <use xlink:href="#STIXGeneral-Regular-67"/>
      <use x="66.699997" xlink:href="#STIXGeneral-Regular-112"/>
     </g>
    </g>
   </g>
   <g id="line2d_55">
    <path clip-path="url(#p4f05a64377)" d="M 130.909091 827.073888 
L 135.53719 853.868311 
L 140.165289 864.35252 
L 144.793388 869.778497 
L 149.421488 872.480096 
L 154.049587 875.116283 
L 158.677686 877.0168 
L 163.305785 878.370866 
L 167.933884 879.400974 
L 172.561983 880.21996 
L 177.190083 880.90454 
L 181.818182 881.470374 
L 186.446281 881.95496 
L 191.07438 882.371662 
L 195.702479 882.730949 
L 200.330579 883.041884 
L 204.958678 883.316177 
L 209.586777 883.55927 
L 214.214876 883.775628 
L 218.842975 883.967751 
L 223.471074 884.13948 
L 228.099174 884.294866 
L 232.727273 884.43567 
L 237.355372 884.563406 
L 241.983471 884.678617 
L 246.61157 884.782814 
L 251.239669 884.87787 
L 255.867769 884.964594 
L 260.495868 885.043852 
L 265.123967 885.115984 
L 269.752066 885.18145 
L 274.380165 885.241352 
L 279.008264 885.296646 
L 283.636364 885.348007 
L 288.264463 885.395276 
L 292.892562 885.438911 
L 297.520661 885.479117 
L 302.14876 885.516309 
L 306.77686 885.550631 
L 311.404959 885.581471 
L 316.033058 885.610234 
L 320.661157 885.637241 
L 325.289256 885.662366 
L 329.917355 885.685575 
L 334.545455 885.706817 
L 339.173554 885.727039 
L 343.801653 885.746419 
L 348.429752 885.765412 
L 353.057851 885.783707 
L 357.68595 885.801767 
L 362.31405 885.823739 
L 366.942149 885.835227 
L 371.570248 885.853298 
L 376.198347 885.867425 
L 380.826446 885.882794 
L 385.454545 885.900653 
L 390.082645 885.920577 
L 394.710744 885.942628 
L 399.338843 885.96531 
L 403.966942 885.988754 
L 408.595041 886.013175 
L 413.22314 886.039753 
L 417.85124 886.069238 
L 422.479339 886.101512 
L 427.107438 886.136934 
L 431.735537 886.175435 
L 436.363636 886.217326 
L 440.991736 886.262947 
L 445.619835 886.312788 
L 450.247934 886.367839 
L 454.876033 886.427691 
L 459.504132 886.492604 
L 464.132231 886.563837 
L 468.760331 886.641506 
L 473.38843 886.726742 
L 478.016529 886.82086 
L 482.644628 886.924153 
L 487.272727 887.036735 
L 491.900826 887.16008 
L 496.528926 887.29507 
L 501.157025 887.441804 
L 505.785124 887.601863 
L 510.413223 887.776823 
L 515.041322 887.969605 
L 519.669421 888.182789 
L 524.297521 888.417302 
L 528.92562 888.675632 
L 533.553719 888.96375 
L 538.181818 889.289861 
L 542.809917 889.641798 
L 547.438017 890.027849 
L 552.066116 890.486821 
L 556.694215 891.033427 
L 561.322314 891.683116 
L 565.950413 892.448798 
L 570.578512 893.134795 
L 575.206612 894.121109 
L 579.834711 895.671008 
L 584.46281 897.691193 
L 589.090909 899.831232 
" style="fill:none;stroke:#1f77b4;stroke-linecap:square;stroke-width:8;"/>
   </g>
   <g id="line2d_56">
    <path clip-path="url(#p4f05a64377)" d="M 108 892.8 
L 612 892.8 
" style="fill:none;stroke:#000000;stroke-dasharray:3.2,0.8,0.5,0.8;stroke-dashoffset:0;stroke-width:0.5;"/>
   </g>
   <g id="line2d_57">
    <path clip-path="url(#p4f05a64377)" d="M 130.909091 829.800528 
L 135.53719 849.302668 
L 140.165289 857.901679 
L 144.793388 863.795254 
L 149.421488 867.805226 
L 154.049587 870.594975 
L 158.677686 872.622736 
L 163.305785 874.306711 
L 167.933884 875.619132 
L 172.561983 876.707882 
L 177.190083 877.609655 
L 181.818182 878.375988 
L 186.446281 879.033815 
L 191.07438 879.600541 
L 195.702479 880.100688 
L 200.330579 880.536467 
L 204.958678 880.927384 
L 209.586777 881.272362 
L 214.214876 881.583707 
L 218.842975 881.868576 
L 223.471074 882.127483 
L 228.099174 882.354428 
L 232.727273 882.561477 
L 237.355372 882.755304 
L 241.983471 882.932796 
L 246.61157 883.09725 
L 251.239669 883.249221 
L 255.867769 883.389766 
L 260.495868 883.52193 
L 265.123967 883.644598 
L 269.752066 883.761339 
L 274.380165 883.86497 
L 279.008264 883.962094 
L 283.636364 884.058484 
L 288.264463 884.150397 
L 292.892562 884.237702 
L 297.520661 884.32144 
L 302.14876 884.402684 
L 306.77686 884.484768 
L 311.404959 884.56335 
L 316.033058 884.636499 
L 320.661157 884.707144 
L 325.289256 884.772833 
L 329.917355 884.843605 
L 334.545455 884.935731 
L 339.173554 884.984851 
L 343.801653 885.054494 
L 348.429752 885.123979 
L 353.057851 885.196143 
L 357.68595 885.269515 
L 362.31405 885.336347 
L 366.942149 885.405141 
L 371.570248 885.468588 
L 376.198347 885.539981 
L 380.826446 885.617109 
L 385.454545 885.696263 
L 390.082645 885.776891 
L 394.710744 885.859875 
L 399.338843 885.94717 
L 403.966942 886.041663 
L 408.595041 886.128511 
L 413.22314 886.220362 
L 417.85124 886.309102 
L 422.479339 886.408193 
L 427.107438 886.517422 
L 431.735537 886.632577 
L 436.363636 886.752228 
L 440.991736 886.87655 
L 445.619835 887.008179 
L 450.247934 887.154801 
L 454.876033 887.297291 
L 459.504132 887.441665 
L 464.132231 887.581249 
L 468.760331 887.728677 
L 473.38843 887.899447 
L 478.016529 888.087615 
L 482.644628 888.285947 
L 487.272727 888.493672 
L 491.900826 888.710365 
L 496.528926 888.945841 
L 501.157025 889.192855 
L 505.785124 889.450601 
L 510.413223 889.717124 
L 515.041322 889.983942 
L 519.669421 890.284888 
L 524.297521 890.608439 
L 528.92562 890.954739 
L 533.553719 891.323034 
L 538.181818 891.717072 
L 542.809917 892.14253 
L 547.438017 892.601078 
L 552.066116 893.10268 
L 556.694215 893.679518 
L 561.322314 894.218075 
L 565.950413 894.934775 
L 570.578512 895.763577 
L 575.206612 896.702718 
L 579.834711 897.189441 
L 584.46281 898.618719 
L 589.090909 899.836368 
" style="fill:none;stroke:#ff7f0e;stroke-linecap:square;stroke-width:8;"/>
   </g>
   <g id="line2d_58">
    <path clip-path="url(#p4f05a64377)" d="M 108 892.8 
L 612 892.8 
" style="fill:none;stroke:#000000;stroke-dasharray:3.2,0.8,0.5,0.8;stroke-dashoffset:0;stroke-width:0.5;"/>
   </g>
   <g id="line2d_59">
    <path clip-path="url(#p4f05a64377)" d="M 130.909091 752.96448 
L 135.53719 823.788381 
L 140.165289 841.326634 
L 144.793388 852.639388 
L 149.421488 859.821957 
L 154.049587 864.154715 
L 158.677686 867.470716 
L 163.305785 870.018898 
L 167.933884 872.041213 
L 172.561983 873.687145 
L 177.190083 875.043787 
L 181.818182 876.191636 
L 186.446281 877.178716 
L 191.07438 878.037367 
L 195.702479 878.789866 
L 200.330579 879.453133 
L 204.958678 880.04695 
L 209.586777 880.58152 
L 214.214876 881.065341 
L 218.842975 881.503114 
L 223.471074 881.903122 
L 228.099174 882.27009 
L 232.727273 882.609302 
L 237.355372 882.926092 
L 241.983471 883.221135 
L 246.61157 883.496558 
L 251.239669 883.754556 
L 255.867769 883.997674 
L 260.495868 884.227096 
L 265.123967 884.443427 
L 269.752066 884.648894 
L 274.380165 884.845668 
L 279.008264 885.034386 
L 283.636364 885.220797 
L 288.264463 885.400431 
L 292.892562 885.570393 
L 297.520661 885.721149 
L 302.14876 885.871982 
L 306.77686 886.030475 
L 311.404959 886.189188 
L 316.033058 886.342799 
L 320.661157 886.497772 
L 325.289256 886.683118 
L 329.917355 886.811316 
L 334.545455 886.965418 
L 339.173554 887.116911 
L 343.801653 887.267384 
L 348.429752 887.414319 
L 353.057851 887.556717 
L 357.68595 887.697009 
L 362.31405 887.841983 
L 366.942149 887.992621 
L 371.570248 888.145661 
L 376.198347 888.299651 
L 380.826446 888.454326 
L 385.454545 888.610946 
L 390.082645 888.767259 
L 394.710744 888.921279 
L 399.338843 889.073608 
L 403.966942 889.232651 
L 408.595041 889.4011 
L 413.22314 889.576617 
L 417.85124 889.756732 
L 422.479339 889.940273 
L 427.107438 890.128167 
L 431.735537 890.318228 
L 436.363636 890.507551 
L 440.991736 890.695358 
L 445.619835 890.891157 
L 450.247934 891.098993 
L 454.876033 891.316726 
L 459.504132 891.541678 
L 464.132231 891.772454 
L 468.760331 892.01002 
L 473.38843 892.252408 
L 478.016529 892.496277 
L 482.644628 892.739121 
L 487.272727 892.990471 
L 491.900826 893.256241 
L 496.528926 893.535463 
L 501.157025 893.825649 
L 505.785124 894.125262 
L 510.413223 894.435306 
L 515.041322 894.754646 
L 519.669421 895.08089 
L 524.297521 895.410611 
L 528.92562 895.752009 
L 533.553719 896.109689 
L 538.181818 896.485424 
L 542.809917 896.878149 
L 547.438017 897.28948 
L 552.066116 897.721623 
L 556.694215 898.177641 
L 561.322314 898.663471 
L 565.950413 899.182315 
L 570.578512 900.602144 
L 575.206612 900.546061 
L 579.834711 900.913715 
L 584.46281 901.488931 
L 589.090909 901.977792 
" style="fill:none;stroke:#2ca02c;stroke-linecap:square;stroke-width:8;"/>
   </g>
   <g id="line2d_60">
    <path clip-path="url(#p4f05a64377)" d="M 108 892.8 
L 612 892.8 
" style="fill:none;stroke:#000000;stroke-dasharray:3.2,0.8,0.5,0.8;stroke-dashoffset:0;stroke-width:0.5;"/>
   </g>
   <g id="line2d_61">
    <path clip-path="url(#p4f05a64377)" d="M 130.909091 745.95984 
L 135.53719 820.731632 
L 140.165289 839.426631 
L 144.793388 851.063751 
L 149.421488 858.757168 
L 154.049587 863.566074 
L 158.677686 867.2837 
L 163.305785 870.137587 
L 167.933884 872.404331 
L 172.561983 874.261262 
L 177.190083 875.819362 
L 181.818182 877.148738 
L 186.446281 878.300398 
L 191.07438 879.311322 
L 195.702479 880.203801 
L 200.330579 880.998469 
L 204.958678 881.714891 
L 209.586777 882.365372 
L 214.214876 882.960283 
L 218.842975 883.507436 
L 223.471074 884.012817 
L 228.099174 884.481467 
L 232.727273 884.917139 
L 237.355372 885.325232 
L 241.983471 885.710613 
L 246.61157 886.075085 
L 251.239669 886.420443 
L 255.867769 886.748381 
L 260.495868 887.061226 
L 265.123967 887.360342 
L 269.752066 887.647676 
L 274.380165 887.925255 
L 279.008264 888.194599 
L 283.636364 888.456542 
L 288.264463 888.711383 
L 292.892562 888.959547 
L 297.520661 889.201248 
L 302.14876 889.436928 
L 306.77686 889.666715 
L 311.404959 889.891471 
L 316.033058 890.112374 
L 320.661157 890.343837 
L 325.289256 890.552229 
L 329.917355 890.770981 
L 334.545455 890.988744 
L 339.173554 891.204868 
L 343.801653 891.42004 
L 348.429752 891.633309 
L 353.057851 891.84568 
L 357.68595 892.058889 
L 362.31405 892.275604 
L 366.942149 892.496704 
L 371.570248 892.722083 
L 376.198347 892.951706 
L 380.826446 893.185667 
L 385.454545 893.423581 
L 390.082645 893.665214 
L 394.710744 893.911573 
L 399.338843 894.164602 
L 403.966942 894.426438 
L 408.595041 894.697554 
L 413.22314 894.977169 
L 417.85124 895.264141 
L 422.479339 895.556493 
L 427.107438 895.85124 
L 431.735537 896.145008 
L 436.363636 896.437405 
L 440.991736 896.728944 
L 445.619835 897.020047 
L 450.247934 897.309386 
L 454.876033 897.59577 
L 459.504132 897.877436 
L 464.132231 898.152526 
L 468.760331 898.419962 
L 473.38843 898.679531 
L 478.016529 898.932633 
L 482.644628 899.181849 
L 487.272727 899.430027 
L 491.900826 899.679743 
L 496.528926 899.933812 
L 501.157025 900.194149 
L 505.785124 900.462959 
L 510.413223 900.742674 
L 515.041322 901.035306 
L 519.669421 901.342753 
L 524.297521 901.663565 
L 528.92562 901.995287 
L 533.553719 902.332198 
L 538.181818 902.668959 
L 542.809917 903.001299 
L 547.438017 903.324117 
L 552.066116 903.632625 
L 556.694215 903.985476 
L 561.322314 904.171331 
L 565.950413 904.383093 
L 570.578512 904.49844 
L 575.206612 904.560505 
L 579.834711 904.29899 
L 584.46281 902.79245 
L 589.090909 901.462848 
" style="fill:none;stroke:#d62728;stroke-linecap:square;stroke-width:8;"/>
   </g>
   <g id="line2d_62">
    <path clip-path="url(#p4f05a64377)" d="M 108 892.8 
L 612 892.8 
" style="fill:none;stroke:#000000;stroke-dasharray:3.2,0.8,0.5,0.8;stroke-dashoffset:0;stroke-width:0.5;"/>
   </g>
   <g id="line2d_63">
    <path clip-path="url(#p4f05a64377)" d="M 130.909091 796.25136 
L 135.53719 839.912463 
L 140.165289 852.854268 
L 144.793388 859.975552 
L 149.421488 865.579297 
L 154.049587 869.230655 
L 158.677686 872.072487 
L 163.305785 874.273508 
L 167.933884 876.070764 
L 172.561983 877.567064 
L 177.190083 878.829519 
L 181.818182 879.919733 
L 186.446281 880.874812 
L 191.07438 881.722569 
L 195.702479 882.477741 
L 200.330579 883.156784 
L 204.958678 883.770962 
L 209.586777 884.33318 
L 214.214876 884.850959 
L 218.842975 885.330664 
L 223.471074 885.782242 
L 228.099174 886.209136 
L 232.727273 886.602816 
L 237.355372 886.966627 
L 241.983471 887.312018 
L 246.61157 887.64129 
L 251.239669 887.955863 
L 255.867769 888.255029 
L 260.495868 888.541842 
L 265.123967 888.822426 
L 269.752066 889.096748 
L 274.380165 889.354205 
L 279.008264 889.59651 
L 283.636364 889.832277 
L 288.264463 890.059786 
L 292.892562 890.276758 
L 297.520661 890.490084 
L 302.14876 890.707341 
L 306.77686 890.934182 
L 311.404959 891.164524 
L 316.033058 891.381344 
L 320.661157 891.589352 
L 325.289256 891.80976 
L 329.917355 891.99847 
L 334.545455 892.199236 
L 339.173554 892.39549 
L 343.801653 892.590794 
L 348.429752 892.793072 
L 353.057851 892.992461 
L 357.68595 893.177791 
L 362.31405 893.358331 
L 366.942149 893.537969 
L 371.570248 893.716979 
L 376.198347 893.895047 
L 380.826446 894.070624 
L 385.454545 894.248496 
L 390.082645 894.430202 
L 394.710744 894.605746 
L 399.338843 894.768404 
L 403.966942 894.924503 
L 408.595041 895.077988 
L 413.22314 895.230333 
L 417.85124 895.381111 
L 422.479339 895.529721 
L 427.107438 895.67974 
L 431.735537 895.831338 
L 436.363636 895.973257 
L 440.991736 896.102124 
L 445.619835 896.22352 
L 450.247934 896.34086 
L 454.876033 896.454872 
L 459.504132 896.565274 
L 464.132231 896.670218 
L 468.760331 896.77432 
L 473.38843 896.874564 
L 478.016529 896.962099 
L 482.644628 897.034645 
L 487.272727 897.09663 
L 491.900826 897.15038 
L 496.528926 897.196026 
L 501.157025 897.231299 
L 505.785124 897.256428 
L 510.413223 897.27598 
L 515.041322 897.285927 
L 519.669421 897.2788 
L 524.297521 897.247066 
L 528.92562 897.192225 
L 533.553719 897.114525 
L 538.181818 897.010628 
L 542.809917 896.876063 
L 547.438017 896.702939 
L 552.066116 896.480043 
L 556.694215 896.260195 
L 561.322314 895.807921 
L 565.950413 895.36907 
L 570.578512 894.734357 
L 575.206612 893.793723 
L 579.834711 892.693441 
L 584.46281 890.640131 
L 589.090909 886.776576 
" style="fill:none;stroke:#9467bd;stroke-linecap:square;stroke-width:8;"/>
   </g>
   <g id="line2d_64">
    <path clip-path="url(#p4f05a64377)" d="M 108 892.8 
L 612 892.8 
" style="fill:none;stroke:#000000;stroke-dasharray:3.2,0.8,0.5,0.8;stroke-dashoffset:0;stroke-width:0.5;"/>
   </g>
   <g id="line2d_65">
    <path clip-path="url(#p4f05a64377)" d="M 130.909091 828.40656 
L 135.53719 846.592713 
L 140.165289 853.846074 
L 144.793388 857.415785 
L 149.421488 860.633519 
L 154.049587 862.94962 
L 158.677686 864.696289 
L 163.305785 866.170142 
L 167.933884 867.419024 
L 172.561983 868.49984 
L 177.190083 869.451826 
L 181.818182 870.310008 
L 186.446281 871.092083 
L 191.07438 871.812691 
L 195.702479 872.486796 
L 200.330579 873.117678 
L 204.958678 873.711758 
L 209.586777 874.273613 
L 214.214876 874.810312 
L 218.842975 875.329424 
L 223.471074 875.828031 
L 228.099174 876.302972 
L 232.727273 876.758267 
L 237.355372 877.207609 
L 241.983471 877.650986 
L 246.61157 878.085668 
L 251.239669 878.510206 
L 255.867769 878.926029 
L 260.495868 879.334351 
L 265.123967 879.738748 
L 269.752066 880.13407 
L 274.380165 880.518285 
L 279.008264 880.892878 
L 283.636364 881.269445 
L 288.264463 881.645656 
L 292.892562 882.017248 
L 297.520661 882.384114 
L 302.14876 882.736403 
L 306.77686 883.068777 
L 311.404959 883.397759 
L 316.033058 883.720754 
L 320.661157 884.029348 
L 325.289256 884.34222 
L 329.917355 884.60007 
L 334.545455 884.97193 
L 339.173554 885.280134 
L 343.801653 885.580001 
L 348.429752 885.880425 
L 353.057851 886.174029 
L 357.68595 886.446949 
L 362.31405 886.696999 
L 366.942149 886.936125 
L 371.570248 887.171295 
L 376.198347 887.400513 
L 380.826446 887.62036 
L 385.454545 887.830537 
L 390.082645 888.03195 
L 394.710744 888.229224 
L 399.338843 888.402284 
L 403.966942 888.546445 
L 408.595041 888.668279 
L 413.22314 888.775904 
L 417.85124 888.870013 
L 422.479339 888.946369 
L 427.107438 889.003449 
L 431.735537 889.041776 
L 436.363636 889.070974 
L 440.991736 889.063906 
L 445.619835 889.014931 
L 450.247934 888.927492 
L 454.876033 888.801863 
L 459.504132 888.64046 
L 464.132231 888.440928 
L 468.760331 888.197809 
L 473.38843 887.901498 
L 478.016529 887.560578 
L 482.644628 887.16067 
L 487.272727 886.677304 
L 491.900826 886.110349 
L 496.528926 885.454664 
L 501.157025 884.699714 
L 505.785124 883.831489 
L 510.413223 882.842363 
L 515.041322 881.715897 
L 519.669421 880.422486 
L 524.297521 878.913258 
L 528.92562 877.232923 
L 533.553719 875.27385 
L 538.181818 872.982761 
L 542.809917 870.319574 
L 547.438017 867.20454 
L 552.066116 863.49869 
L 556.694215 859.009983 
L 561.322314 853.525178 
L 565.950413 847.135959 
L 570.578512 838.187096 
L 575.206612 825.177017 
L 579.834711 813.076074 
L 584.46281 787.034362 
L 589.090909 726.67008 
" style="fill:none;stroke:#8c564b;stroke-linecap:square;stroke-width:8;"/>
   </g>
   <g id="line2d_66">
    <path clip-path="url(#p4f05a64377)" d="M 108 892.8 
L 612 892.8 
" style="fill:none;stroke:#000000;stroke-dasharray:3.2,0.8,0.5,0.8;stroke-dashoffset:0;stroke-width:0.5;"/>
   </g>
   <g id="patch_13">
    <path d="M 108 1036.8 
L 108 748.8 
" style="fill:none;stroke:#000000;stroke-linecap:square;stroke-linejoin:miter;stroke-width:0.8;"/>
   </g>
   <g id="patch_14">
    <path d="M 612 1036.8 
L 612 748.8 
" style="fill:none;stroke:#000000;stroke-linecap:square;stroke-linejoin:miter;stroke-width:0.8;"/>
   </g>
   <g id="patch_15">
    <path d="M 108 1036.8 
L 612 1036.8 
" style="fill:none;stroke:#000000;stroke-linecap:square;stroke-linejoin:miter;stroke-width:0.8;"/>
   </g>
   <g id="patch_16">
    <path d="M 108 748.8 
L 612 748.8 
" style="fill:none;stroke:#000000;stroke-linecap:square;stroke-linejoin:miter;stroke-width:0.8;"/>
   </g>
   <g id="text_25">
    <!-- $\^t = 0.25$ -->
    <g transform="translate(599.19 902.584687)scale(0.42 -0.42)">
     <use transform="translate(39.042969 16.59375)" xlink:href="#STIXGeneral-Regular-770"/>
     <use transform="translate(0 0.203125)" xlink:href="#STIXGeneral-Italic-116"/>
     <use transform="translate(42.239984 0.203125)" xlink:href="#STIXGeneral-Regular-61"/>
     <use transform="translate(125.179965 0.203125)" xlink:href="#STIXGeneral-Regular-48"/>
     <use transform="translate(175.17995 0.203125)" xlink:href="#STIXGeneral-Regular-46"/>
     <use transform="translate(200.179935 0.203125)" xlink:href="#STIXGeneral-Regular-50"/>
     <use transform="translate(250.179919 0.203125)" xlink:href="#STIXGeneral-Regular-53"/>
    </g>
   </g>
  </g>
 </g>
 <defs>
  <clipPath id="p2825db9d82">
   <rect height="288" width="504" x="108" y="115.2"/>
  </clipPath>
  <clipPath id="pbfd273bd2f">
   <rect height="288" width="504" x="108" y="432"/>
  </clipPath>
  <clipPath id="p4f05a64377">
   <rect height="288" width="504" x="108" y="748.8"/>
  </clipPath>
 </defs>
</svg>
