<?xml version="1.0" encoding="utf-8" standalone="no"?>
<!DOCTYPE svg PUBLIC "-//W3C//DTD SVG 1.1//EN"
  "http://www.w3.org/Graphics/SVG/1.1/DTD/svg11.dtd">
<!-- Created with matplotlib (https://matplotlib.org/) -->
<svg height="1152pt" version="1.1" viewBox="0 0 720 1152" width="720pt" xmlns="http://www.w3.org/2000/svg" xmlns:xlink="http://www.w3.org/1999/xlink">
 <metadata>
  <rdf:RDF xmlns:cc="http://creativecommons.org/ns#" xmlns:dc="http://purl.org/dc/elements/1.1/" xmlns:rdf="http://www.w3.org/1999/02/22-rdf-syntax-ns#">
   <cc:Work>
    <dc:type rdf:resource="http://purl.org/dc/dcmitype/StillImage"/>
    <dc:date>2022-01-07T23:06:57.446252</dc:date>
    <dc:format>image/svg+xml</dc:format>
    <dc:creator>
     <cc:Agent>
      <dc:title>Matplotlib v3.3.4, https://matplotlib.org/</dc:title>
     </cc:Agent>
    </dc:creator>
   </cc:Work>
  </rdf:RDF>
 </metadata>
 <defs>
  <style type="text/css">*{stroke-linecap:butt;stroke-linejoin:round;}</style>
 </defs>
 <g id="figure_1">
  <g id="patch_1">
   <path d="M 0 1152 
L 720 1152 
L 720 0 
L 0 0 
z
" style="fill:#ffffff;"/>
  </g>
  <g id="axes_1">
   <g id="patch_2">
    <path d="M 108 403.2 
L 612 403.2 
L 612 115.2 
L 108 115.2 
z
" style="fill:#ffffff;"/>
   </g>
   <g id="matplotlib.axis_1">
    <g id="xtick_1">
     <g id="line2d_1">
      <defs>
       <path d="M 0 0 
L 0 3.5 
" id="m3fdfac368c" style="stroke:#000000;stroke-width:0.8;"/>
      </defs>
      <g>
       <use style="fill:#ffffff;stroke:#000000;stroke-width:0.8;" x="130.909091" xlink:href="#m3fdfac368c" y="403.2"/>
      </g>
     </g>
    </g>
    <g id="xtick_2">
     <g id="line2d_2">
      <g>
       <use style="fill:#ffffff;stroke:#000000;stroke-width:0.8;" x="360" xlink:href="#m3fdfac368c" y="403.2"/>
      </g>
     </g>
    </g>
    <g id="xtick_3">
     <g id="line2d_3">
      <g>
       <use style="fill:#ffffff;stroke:#000000;stroke-width:0.8;" x="589.090909" xlink:href="#m3fdfac368c" y="403.2"/>
      </g>
     </g>
    </g>
   </g>
   <g id="matplotlib.axis_2">
    <g id="ytick_1">
     <g id="line2d_4">
      <defs>
       <path d="M 0 0 
L -3.5 0 
" id="m4e6c07e907" style="stroke:#000000;stroke-width:0.8;"/>
      </defs>
      <g>
       <use style="fill:#ffffff;stroke:#000000;stroke-width:0.8;" x="108" xlink:href="#m4e6c07e907" y="355.2"/>
      </g>
     </g>
     <g id="text_1">
      <!-- −2 -->
      <g transform="translate(51.23 369.542344)scale(0.42 -0.42)">
       <defs>
        <path d="M 62.09375 22 
L 6.40625 22 
L 6.40625 28.59375 
L 62.09375 28.59375 
z
" id="STIXGeneral-Regular-8722"/>
        <path d="M 47.40625 13.703125 
L 42 0 
L 2.90625 0 
L 2.90625 1.203125 
L 20.703125 20.09375 
Q 27.703125 27.40625 30.703125 33.5 
Q 33.703125 39.59375 33.703125 46.09375 
Q 33.703125 52.796875 30 56.5 
Q 26.296875 60.203125 19.796875 60.203125 
Q 14.40625 60.203125 11.25 57.390625 
Q 8.09375 54.59375 5.09375 47.203125 
L 3 47.703125 
Q 4.703125 57 9.84375 62.296875 
Q 15 67.59375 23.796875 67.59375 
Q 32.09375 67.59375 37.1875 62.59375 
Q 42.296875 57.59375 42.296875 50 
Q 42.296875 38.703125 29.5 25.203125 
L 13 7.59375 
L 36.40625 7.59375 
Q 39.703125 7.59375 41.640625 8.890625 
Q 43.59375 10.203125 46 14.296875 
z
" id="STIXGeneral-Regular-50"/>
       </defs>
       <use xlink:href="#STIXGeneral-Regular-8722"/>
       <use x="68.499985" xlink:href="#STIXGeneral-Regular-50"/>
      </g>
     </g>
    </g>
    <g id="ytick_2">
     <g id="line2d_5">
      <g>
       <use style="fill:#ffffff;stroke:#000000;stroke-width:0.8;" x="108" xlink:href="#m4e6c07e907" y="259.2"/>
      </g>
     </g>
     <g id="text_2">
      <!-- 0 -->
      <g transform="translate(80 273.542344)scale(0.42 -0.42)">
       <defs>
        <path d="M 47.59375 33 
Q 47.59375 26.296875 46.296875 20.34375 
Q 45 14.40625 42.453125 9.40625 
Q 39.90625 4.40625 35.40625 1.5 
Q 30.90625 -1.40625 25 -1.40625 
Q 18.90625 -1.40625 14.296875 1.6875 
Q 9.703125 4.796875 7.203125 10 
Q 4.703125 15.203125 3.546875 21.09375 
Q 2.40625 27 2.40625 33.59375 
Q 2.40625 42.90625 4.703125 50.34375 
Q 7 57.796875 12.34375 62.6875 
Q 17.703125 67.59375 25.40625 67.59375 
Q 35.203125 67.59375 41.390625 58 
Q 47.59375 48.40625 47.59375 33 
z
M 38 32.5 
Q 38 48.296875 34.640625 56.640625 
Q 31.296875 65 24.796875 65 
Q 18.59375 65 15.296875 56.59375 
Q 12 48.203125 12 32.90625 
Q 12 17.5 15.296875 9.34375 
Q 18.59375 1.203125 25 1.203125 
Q 31.296875 1.203125 34.640625 9.34375 
Q 38 17.5 38 32.5 
z
" id="STIXGeneral-Regular-48"/>
       </defs>
       <use xlink:href="#STIXGeneral-Regular-48"/>
      </g>
     </g>
    </g>
    <g id="ytick_3">
     <g id="line2d_6">
      <g>
       <use style="fill:#ffffff;stroke:#000000;stroke-width:0.8;" x="108" xlink:href="#m4e6c07e907" y="163.2"/>
      </g>
     </g>
     <g id="text_3">
      <!-- 2 -->
      <g transform="translate(80 177.542344)scale(0.42 -0.42)">
       <use xlink:href="#STIXGeneral-Regular-50"/>
      </g>
     </g>
    </g>
    <g id="text_4">
     <!-- Cp -->
     <g transform="translate(38.114688 283.707656)rotate(-90)scale(0.42 -0.42)">
      <defs>
       <path d="M 61.40625 13.09375 
L 63.296875 11.296875 
Q 54.40625 -1.40625 36 -1.40625 
Q 21.5 -1.40625 12.40625 7.5 
Q 2.796875 16.90625 2.796875 32.5 
Q 2.796875 47.09375 11.796875 57.203125 
Q 21.203125 67.59375 36.09375 67.59375 
Q 42.5 67.59375 48 66.09375 
Q 54.296875 64.296875 54.90625 64.296875 
Q 58.203125 64.296875 59.09375 67.59375 
L 61.09375 67.59375 
L 62 44.90625 
L 59.703125 44.90625 
Q 58.09375 52.09375 54.5 56 
Q 47.40625 63.59375 38.40625 63.59375 
Q 27.296875 63.59375 20.84375 55.4375 
Q 14.40625 47.296875 14.40625 34.09375 
Q 14.40625 18 21.59375 10.203125 
Q 28.296875 3 39.40625 3 
Q 46 3 50.796875 5.296875 
Q 55.59375 7.59375 61.40625 13.09375 
z
" id="STIXGeneral-Regular-67"/>
       <path d="M 15.90625 45.796875 
L 15.90625 38.09375 
Q 22.203125 46 30.296875 46 
Q 37.59375 46 42.296875 40 
Q 47 34 47 24.703125 
Q 47 13.796875 40.953125 6.390625 
Q 34.90625 -1 26 -1 
Q 22.90625 -1 20.75 -0.09375 
Q 18.59375 0.796875 15.90625 3.296875 
L 15.90625 -12.40625 
Q 15.90625 -17.09375 17.5 -18.4375 
Q 19.09375 -19.796875 24.703125 -19.90625 
L 24.703125 -21.703125 
L 0.5 -21.703125 
L 0.5 -20 
Q 4.90625 -19.59375 6.203125 -18.296875 
Q 7.5 -17 7.5 -13.09375 
L 7.5 33.703125 
Q 7.5 37.203125 6.703125 38.296875 
Q 5.90625 39.40625 3.40625 39.40625 
Q 1.796875 39.40625 0.90625 39.296875 
L 0.90625 40.90625 
Q 7.90625 43 15.296875 46 
z
M 15.90625 33.40625 
L 15.90625 8.796875 
Q 15.90625 6.59375 19.34375 4.390625 
Q 22.796875 2.203125 26.296875 2.203125 
Q 31.703125 2.203125 35.046875 7.296875 
Q 38.40625 12.40625 38.40625 20.703125 
Q 38.40625 29.5 35.046875 34.75 
Q 31.703125 40 26.09375 40 
Q 22.59375 40 19.25 37.796875 
Q 15.90625 35.59375 15.90625 33.40625 
z
" id="STIXGeneral-Regular-112"/>
      </defs>
      <use xlink:href="#STIXGeneral-Regular-67"/>
      <use x="66.699997" xlink:href="#STIXGeneral-Regular-112"/>
     </g>
    </g>
   </g>
   <g id="line2d_7">
    <path clip-path="url(#pc66217a0f1)" d="M 130.909091 293.483962 
L 135.53719 295.654675 
L 140.165289 296.38371 
L 144.793388 296.79783 
L 149.421488 296.908484 
L 154.049587 296.931738 
L 158.677686 296.874142 
L 163.305785 296.815201 
L 167.933884 296.73457 
L 172.561983 296.662612 
L 177.190083 296.619941 
L 181.818182 296.623944 
L 186.446281 296.679015 
L 191.07438 296.803838 
L 195.702479 296.991708 
L 200.330579 297.240219 
L 204.958678 297.555062 
L 209.586777 297.944704 
L 214.214876 298.372918 
L 218.842975 298.837858 
L 223.471074 299.339157 
L 228.099174 299.904714 
L 232.727273 300.482435 
L 237.355372 301.023646 
L 241.983471 301.485967 
L 246.61157 301.80971 
L 251.239669 301.942432 
L 255.867769 301.854013 
L 260.495868 301.454029 
L 265.123967 300.757736 
L 269.752066 299.74146 
L 274.380165 298.490762 
L 279.008264 297.07768 
L 283.636364 295.526029 
L 288.264463 293.898227 
L 292.892562 292.221734 
L 297.520661 290.559659 
L 302.14876 289.029708 
L 306.77686 287.654032 
L 311.404959 286.402454 
L 316.033058 285.299264 
L 320.661157 284.353166 
L 325.289256 283.571192 
L 329.917355 282.969038 
L 334.545455 282.50708 
L 339.173554 282.208822 
L 343.801653 282.008052 
L 348.429752 281.971841 
L 353.057851 282.010693 
L 357.68595 282.124278 
L 362.31405 282.312662 
L 366.942149 282.556295 
L 371.570248 282.840156 
L 376.198347 283.149171 
L 380.826446 283.474891 
L 385.454545 283.803419 
L 390.082645 284.142765 
L 394.710744 284.494795 
L 399.338843 284.850238 
L 403.966942 285.201722 
L 408.595041 285.541131 
L 413.22314 285.866627 
L 417.85124 286.176691 
L 422.479339 286.469218 
L 427.107438 286.722491 
L 431.735537 286.948257 
L 436.363636 287.140547 
L 440.991736 287.301306 
L 445.619835 287.450492 
L 450.247934 287.580281 
L 454.876033 287.681873 
L 459.504132 287.749999 
L 464.132231 287.774617 
L 468.760331 287.760833 
L 473.38843 287.719683 
L 478.016529 287.63316 
L 482.644628 287.50798 
L 487.272727 287.346293 
L 491.900826 287.147619 
L 496.528926 286.91789 
L 501.157025 286.649515 
L 505.785124 286.34077 
L 510.413223 285.983441 
L 515.041322 285.587531 
L 519.669421 285.148032 
L 524.297521 284.660766 
L 528.92562 284.127348 
L 533.553719 283.532618 
L 538.181818 282.88339 
L 542.809917 282.167131 
L 547.438017 281.380609 
L 552.066116 280.481882 
L 556.694215 279.556572 
L 561.322314 278.433985 
L 565.950413 277.149742 
L 570.578512 275.552758 
L 575.206612 274.02183 
L 579.834711 272.143031 
L 584.46281 268.985796 
L 589.090909 265.00944 
" style="fill:none;stroke:#1f77b4;stroke-linecap:square;stroke-width:8;"/>
   </g>
   <g id="line2d_8">
    <path clip-path="url(#pc66217a0f1)" d="M 108 259.2 
L 612 259.2 
" style="fill:none;stroke:#000000;stroke-dasharray:3.2,0.8,0.5,0.8;stroke-dashoffset:0;stroke-width:0.5;"/>
   </g>
   <g id="line2d_9">
    <path clip-path="url(#pc66217a0f1)" d="M 130.909091 255.192816 
L 135.53719 289.589532 
L 140.165289 297.889695 
L 144.793388 300.367701 
L 149.421488 302.04378 
L 154.049587 302.87969 
L 158.677686 303.364947 
L 163.305785 303.624471 
L 167.933884 303.612709 
L 172.561983 303.393019 
L 177.190083 303.034349 
L 181.818182 302.668101 
L 186.446281 302.416944 
L 191.07438 302.394211 
L 195.702479 302.612577 
L 200.330579 303.014519 
L 204.958678 303.513858 
L 209.586777 304.023884 
L 214.214876 304.514844 
L 218.842975 305.000218 
L 223.471074 305.552738 
L 228.099174 306.224545 
L 232.727273 307.094901 
L 237.355372 308.228393 
L 241.983471 309.629812 
L 246.61157 311.338506 
L 251.239669 313.270401 
L 255.867769 315.509204 
L 260.495868 317.914713 
L 265.123967 320.288266 
L 269.752066 322.340117 
L 274.380165 323.90987 
L 279.008264 324.790218 
L 283.636364 324.770179 
L 288.264463 323.835084 
L 292.892562 321.918411 
L 297.520661 319.096568 
L 302.14876 315.555579 
L 306.77686 311.438048 
L 311.404959 307.016424 
L 316.033058 302.467294 
L 320.661157 297.995163 
L 325.289256 293.722723 
L 329.917355 289.786229 
L 334.545455 286.77739 
L 339.173554 283.359204 
L 343.801653 280.908312 
L 348.429752 278.937038 
L 353.057851 277.359468 
L 357.68595 276.177807 
L 362.31405 275.324795 
L 366.942149 274.733136 
L 371.570248 274.387545 
L 376.198347 274.225276 
L 380.826446 274.217132 
L 385.454545 274.349196 
L 390.082645 274.579088 
L 394.710744 274.888716 
L 399.338843 275.263355 
L 403.966942 275.680743 
L 408.595041 276.124754 
L 413.22314 276.580422 
L 417.85124 277.04073 
L 422.479339 277.505838 
L 427.107438 277.97013 
L 431.735537 278.42826 
L 436.363636 278.874787 
L 440.991736 279.311754 
L 445.619835 279.745133 
L 450.247934 280.155615 
L 454.876033 280.546151 
L 459.504132 280.900027 
L 464.132231 281.216369 
L 468.760331 281.531139 
L 473.38843 281.845757 
L 478.016529 282.14367 
L 482.644628 282.420605 
L 487.272727 282.6847 
L 491.900826 282.933519 
L 496.528926 283.157935 
L 501.157025 283.352855 
L 505.785124 283.520597 
L 510.413223 283.665519 
L 515.041322 283.788144 
L 519.669421 283.887971 
L 524.297521 283.957762 
L 528.92562 283.986365 
L 533.553719 283.97355 
L 538.181818 283.910405 
L 542.809917 283.793601 
L 547.438017 283.615125 
L 552.066116 283.348741 
L 556.694215 282.98248 
L 561.322314 282.50569 
L 565.950413 281.840049 
L 570.578512 280.918381 
L 575.206612 279.49883 
L 579.834711 278.161924 
L 584.46281 275.557762 
L 589.090909 272.215728 
" style="fill:none;stroke:#ff7f0e;stroke-linecap:square;stroke-width:8;"/>
   </g>
   <g id="line2d_10">
    <path clip-path="url(#pc66217a0f1)" d="M 108 259.2 
L 612 259.2 
" style="fill:none;stroke:#000000;stroke-dasharray:3.2,0.8,0.5,0.8;stroke-dashoffset:0;stroke-width:0.5;"/>
   </g>
   <g id="line2d_11">
    <path clip-path="url(#pc66217a0f1)" d="M 130.909091 222.086784 
L 135.53719 281.175989 
L 140.165289 292.776092 
L 144.793388 298.436409 
L 149.421488 301.630577 
L 154.049587 303.570623 
L 158.677686 305.114567 
L 163.305785 306.264764 
L 167.933884 307.091454 
L 172.561983 307.57134 
L 177.190083 307.659703 
L 181.818182 307.39756 
L 186.446281 306.897471 
L 191.07438 306.334026 
L 195.702479 305.909259 
L 200.330579 305.811301 
L 204.958678 306.061041 
L 209.586777 306.585433 
L 214.214876 307.252529 
L 218.842975 307.926836 
L 223.471074 308.522277 
L 228.099174 309.008653 
L 232.727273 309.405706 
L 237.355372 309.801192 
L 241.983471 310.341962 
L 246.61157 311.137516 
L 251.239669 312.223687 
L 255.867769 313.702216 
L 260.495868 315.634351 
L 265.123967 318.027231 
L 269.752066 320.810076 
L 274.380165 323.898907 
L 279.008264 327.293864 
L 283.636364 330.680639 
L 288.264463 333.747122 
L 292.892562 336.206653 
L 297.520661 337.824556 
L 302.14876 338.393359 
L 306.77686 337.814556 
L 311.404959 336.12604 
L 316.033058 333.413724 
L 320.661157 329.787199 
L 325.289256 324.610995 
L 329.917355 320.621715 
L 334.545455 315.518967 
L 339.173554 310.291306 
L 343.801653 305.17119 
L 348.429752 300.214026 
L 353.057851 295.571245 
L 357.68595 291.423447 
L 362.31405 287.69005 
L 366.942149 284.456393 
L 371.570248 281.701905 
L 376.198347 279.400072 
L 380.826446 277.548365 
L 385.454545 276.109644 
L 390.082645 275.020381 
L 394.710744 274.251744 
L 399.338843 273.761218 
L 403.966942 273.530107 
L 408.595041 273.504748 
L 413.22314 273.646218 
L 417.85124 273.923805 
L 422.479339 274.314511 
L 427.107438 274.794428 
L 431.735537 275.33965 
L 436.363636 275.935961 
L 440.991736 276.57102 
L 445.619835 277.234991 
L 450.247934 277.918539 
L 454.876033 278.613898 
L 459.504132 279.318142 
L 464.132231 280.028267 
L 468.760331 280.739214 
L 473.38843 281.447179 
L 478.016529 282.149777 
L 482.644628 282.845698 
L 487.272727 283.534441 
L 491.900826 284.218054 
L 496.528926 284.895436 
L 501.157025 285.566936 
L 505.785124 286.232317 
L 510.413223 286.892415 
L 515.041322 287.547701 
L 519.669421 288.19958 
L 524.297521 288.848838 
L 528.92562 289.496152 
L 533.553719 290.136166 
L 538.181818 290.76892 
L 542.809917 291.395336 
L 547.438017 292.013985 
L 552.066116 292.623201 
L 556.694215 293.21711 
L 561.322314 293.78732 
L 565.950413 294.343698 
L 570.578512 294.720987 
L 575.206612 295.090948 
L 579.834711 295.092023 
L 584.46281 294.589472 
L 589.090909 291.572112 
" style="fill:none;stroke:#2ca02c;stroke-linecap:square;stroke-width:8;"/>
   </g>
   <g id="line2d_12">
    <path clip-path="url(#pc66217a0f1)" d="M 108 259.2 
L 612 259.2 
" style="fill:none;stroke:#000000;stroke-dasharray:3.2,0.8,0.5,0.8;stroke-dashoffset:0;stroke-width:0.5;"/>
   </g>
   <g id="line2d_13">
    <path clip-path="url(#pc66217a0f1)" d="M 130.909091 222.035141 
L 135.53719 261.123465 
L 140.165289 280.483629 
L 144.793388 290.633174 
L 149.421488 296.439884 
L 154.049587 300.439526 
L 158.677686 303.64733 
L 163.305785 306.256185 
L 167.933884 308.385464 
L 172.561983 310.027797 
L 177.190083 311.140696 
L 181.818182 311.694846 
L 186.446281 311.686845 
L 191.07438 311.173189 
L 195.702479 310.307451 
L 200.330579 309.289066 
L 204.958678 308.374175 
L 209.586777 307.783329 
L 214.214876 307.647977 
L 218.842975 307.947539 
L 223.471074 308.562348 
L 228.099174 309.374796 
L 232.727273 310.182774 
L 237.355372 310.924217 
L 241.983471 311.56798 
L 246.61157 312.080453 
L 251.239669 312.452802 
L 255.867769 312.736407 
L 260.495868 313.047737 
L 265.123967 313.504972 
L 269.752066 314.158226 
L 274.380165 315.077421 
L 279.008264 316.338116 
L 283.636364 317.968878 
L 288.264463 320.114348 
L 292.892562 322.667427 
L 297.520661 325.846999 
L 302.14876 329.371296 
L 306.77686 333.082926 
L 311.404959 336.847793 
L 316.033058 340.400151 
L 320.661157 343.444607 
L 325.289256 345.823029 
L 329.917355 347.127138 
L 334.545455 347.54775 
L 339.173554 347.053733 
L 343.801653 345.58881 
L 348.429752 343.206091 
L 353.057851 340.055326 
L 357.68595 336.27524 
L 362.31405 332.018324 
L 366.942149 327.430367 
L 371.570248 322.638806 
L 376.198347 317.716622 
L 380.826446 312.816682 
L 385.454545 308.009971 
L 390.082645 303.392752 
L 394.710744 299.080855 
L 399.338843 295.059057 
L 403.966942 291.379614 
L 408.595041 288.06336 
L 413.22314 285.118022 
L 417.85124 282.548646 
L 422.479339 280.324586 
L 427.107438 278.426093 
L 431.735537 276.855327 
L 436.363636 275.604072 
L 440.991736 274.630612 
L 445.619835 273.914121 
L 450.247934 273.422823 
L 454.876033 273.132629 
L 459.504132 273.029254 
L 464.132231 273.085836 
L 468.760331 273.285558 
L 473.38843 273.615726 
L 478.016529 274.083211 
L 482.644628 274.670399 
L 487.272727 275.359094 
L 491.900826 276.13634 
L 496.528926 276.993824 
L 501.157025 277.923363 
L 505.785124 278.92026 
L 510.413223 279.982186 
L 515.041322 281.091848 
L 519.669421 282.269955 
L 524.297521 283.51639 
L 528.92562 284.821469 
L 533.553719 286.182681 
L 538.181818 287.600459 
L 542.809917 289.075573 
L 547.438017 290.611409 
L 552.066116 292.368049 
L 556.694215 293.903044 
L 561.322314 295.683396 
L 565.950413 297.636986 
L 570.578512 299.397044 
L 575.206612 301.815528 
L 579.834711 304.1335 
L 584.46281 305.054868 
L 589.090909 305.09808 
" style="fill:none;stroke:#d62728;stroke-linecap:square;stroke-width:8;"/>
   </g>
   <g id="line2d_14">
    <path clip-path="url(#pc66217a0f1)" d="M 108 259.2 
L 612 259.2 
" style="fill:none;stroke:#000000;stroke-dasharray:3.2,0.8,0.5,0.8;stroke-dashoffset:0;stroke-width:0.5;"/>
   </g>
   <g id="line2d_15">
    <path clip-path="url(#pc66217a0f1)" d="M 130.909091 200.509296 
L 135.53719 238.879629 
L 140.165289 266.286691 
L 144.793388 280.31466 
L 149.421488 288.481426 
L 154.049587 293.460968 
L 158.677686 297.075904 
L 163.305785 299.663539 
L 167.933884 301.573227 
L 172.561983 303.037889 
L 177.190083 304.199614 
L 181.818182 305.170503 
L 186.446281 306.028894 
L 191.07438 306.836485 
L 195.702479 307.629193 
L 200.330579 308.412205 
L 204.958678 309.184539 
L 209.586777 309.930565 
L 214.214876 310.686732 
L 218.842975 311.471234 
L 223.471074 312.305071 
L 228.099174 313.25528 
L 232.727273 314.42489 
L 237.355372 315.8759 
L 241.983471 317.612044 
L 246.61157 319.44276 
L 251.239669 321.26622 
L 255.867769 323.331842 
L 260.495868 325.970099 
L 265.123967 329.051621 
L 269.752066 332.247681 
L 274.380165 335.167251 
L 279.008264 337.270175 
L 283.636364 338.276419 
L 288.264463 338.236104 
L 292.892562 337.587095 
L 297.520661 336.99314 
L 302.14876 337.004806 
L 306.77686 337.771182 
L 311.404959 339.444238 
L 316.033058 342.053754 
L 320.661157 345.124544 
L 325.289256 349.100029 
L 329.917355 352.871495 
L 334.545455 356.239589 
L 339.173554 358.784662 
L 343.801653 360.163815 
L 348.429752 360.251688 
L 353.057851 359.010158 
L 357.68595 356.411094 
L 362.31405 352.520317 
L 366.942149 347.428175 
L 371.570248 341.350983 
L 376.198347 334.441368 
L 380.826446 326.945462 
L 385.454545 319.119721 
L 390.082645 311.239523 
L 394.710744 303.489191 
L 399.338843 296.137444 
L 403.966942 289.217726 
L 408.595041 283.106102 
L 413.22314 277.640499 
L 417.85124 272.606154 
L 422.479339 268.09344 
L 427.107438 264.231329 
L 431.735537 261.037296 
L 436.363636 258.391677 
L 440.991736 256.256348 
L 445.619835 254.586441 
L 450.247934 253.354858 
L 454.876033 252.510605 
L 459.504132 251.993937 
L 464.132231 251.812167 
L 468.760331 251.914019 
L 473.38843 252.259749 
L 478.016529 252.776939 
L 482.644628 253.461516 
L 487.272727 254.308317 
L 491.900826 255.30684 
L 496.528926 256.460597 
L 501.157025 257.780203 
L 505.785124 259.301601 
L 510.413223 260.95497 
L 515.041322 262.726819 
L 519.669421 264.651116 
L 524.297521 266.765399 
L 528.92562 269.081256 
L 533.553719 271.614823 
L 538.181818 274.337949 
L 542.809917 277.22793 
L 547.438017 280.274828 
L 552.066116 284.107154 
L 556.694215 286.850346 
L 561.322314 290.408719 
L 565.950413 294.310925 
L 570.578512 297.868066 
L 575.206612 302.836837 
L 579.834711 307.759419 
L 584.46281 309.981678 
L 589.090909 309.34896 
" style="fill:none;stroke:#9467bd;stroke-linecap:square;stroke-width:8;"/>
   </g>
   <g id="line2d_16">
    <path clip-path="url(#pc66217a0f1)" d="M 108 259.2 
L 612 259.2 
" style="fill:none;stroke:#000000;stroke-dasharray:3.2,0.8,0.5,0.8;stroke-dashoffset:0;stroke-width:0.5;"/>
   </g>
   <g id="patch_3">
    <path d="M 108 403.2 
L 108 115.2 
" style="fill:none;stroke:#000000;stroke-linecap:square;stroke-linejoin:miter;stroke-width:0.8;"/>
   </g>
   <g id="patch_4">
    <path d="M 612 403.2 
L 612 115.2 
" style="fill:none;stroke:#000000;stroke-linecap:square;stroke-linejoin:miter;stroke-width:0.8;"/>
   </g>
   <g id="patch_5">
    <path d="M 108 403.2 
L 612 403.2 
" style="fill:none;stroke:#000000;stroke-linecap:square;stroke-linejoin:miter;stroke-width:0.8;"/>
   </g>
   <g id="patch_6">
    <path d="M 108 115.2 
L 612 115.2 
" style="fill:none;stroke:#000000;stroke-linecap:square;stroke-linejoin:miter;stroke-width:0.8;"/>
   </g>
   <g id="text_5">
    <!-- $\^t = 0.05$ -->
    <g transform="translate(599.19 268.984688)scale(0.42 -0.42)">
     <defs>
      <path d="M -7.5 50.703125 
L -10.90625 50.703125 
L -23.09375 61 
L -35.203125 50.703125 
L -38.59375 50.703125 
L -26.203125 67.40625 
L -20 67.40625 
z
" id="STIXGeneral-Regular-770"/>
      <path d="M 29.59375 42.796875 
L 29.09375 39.59375 
L 20.703125 39.59375 
L 12 6.796875 
Q 11.796875 6 11.796875 5.40625 
Q 11.796875 3.796875 13.296875 3.796875 
Q 14.5 3.796875 16.09375 5.34375 
Q 17.703125 6.90625 21.40625 11.703125 
L 22.703125 11 
Q 18.09375 4 15.140625 1.453125 
Q 12.203125 -1.09375 8.40625 -1.09375 
Q 3.796875 -1.09375 3.796875 2.59375 
Q 3.796875 3.59375 5.40625 10 
L 13.203125 39.59375 
L 5.703125 39.59375 
L 5.59375 40.203125 
Q 5.59375 42 8.90625 42.703125 
Q 11.40625 43.296875 15.5 46.546875 
Q 19.59375 49.796875 22.203125 53.703125 
Q 22.796875 54.59375 23.59375 54.59375 
Q 24.5 54.59375 24.5 53.796875 
Q 24.5 53.296875 24.40625 53.09375 
L 21.59375 42.796875 
z
" id="STIXGeneral-Italic-116"/>
      <path d="M 63.703125 32 
L 4.796875 32 
L 4.796875 38.59375 
L 63.703125 38.59375 
z
M 63.703125 12 
L 4.796875 12 
L 4.796875 18.59375 
L 63.703125 18.59375 
z
" id="STIXGeneral-Regular-61"/>
      <path d="M 18.09375 4.296875 
Q 18.09375 2.09375 16.4375 0.5 
Q 14.796875 -1.09375 12.5 -1.09375 
Q 10.203125 -1.09375 8.59375 0.5 
Q 7 2.09375 7 4.390625 
Q 7 6.703125 8.640625 8.34375 
Q 10.296875 10 12.59375 10 
Q 14.796875 10 16.4375 8.296875 
Q 18.09375 6.59375 18.09375 4.296875 
z
" id="STIXGeneral-Regular-46"/>
      <path d="M 43.796875 68.09375 
L 40.203125 59.59375 
Q 39.59375 58.296875 37.5 58.296875 
L 18.09375 58.296875 
L 14.09375 49.796875 
Q 25.09375 47.703125 30 45.25 
Q 34.90625 42.796875 39.09375 37 
Q 42.59375 32.203125 42.59375 24.296875 
Q 42.59375 17.09375 40.25 12.1875 
Q 37.90625 7.296875 32.796875 3.5 
Q 26 -1.40625 15.796875 -1.40625 
Q 10.09375 -1.40625 6.59375 0.296875 
Q 3.09375 2 3.09375 4.796875 
Q 3.09375 8.59375 7.59375 8.59375 
Q 11.203125 8.59375 15 5.5 
Q 18.90625 2.296875 22.09375 2.296875 
Q 27.296875 2.296875 31.4375 7.5 
Q 35.59375 12.703125 35.59375 19.203125 
Q 35.59375 28.796875 28.90625 34.203125 
Q 20.203125 41.203125 7.59375 41.203125 
Q 6.40625 41.203125 6.40625 42 
L 6.5 42.5 
L 17.40625 66.203125 
L 38.09375 66.203125 
Q 39.796875 66.203125 40.75 66.703125 
Q 41.703125 67.203125 42.90625 68.796875 
z
" id="STIXGeneral-Regular-53"/>
     </defs>
     <use transform="translate(39.042969 16.59375)" xlink:href="#STIXGeneral-Regular-770"/>
     <use transform="translate(0 0.203125)" xlink:href="#STIXGeneral-Italic-116"/>
     <use transform="translate(42.239984 0.203125)" xlink:href="#STIXGeneral-Regular-61"/>
     <use transform="translate(125.179965 0.203125)" xlink:href="#STIXGeneral-Regular-48"/>
     <use transform="translate(175.17995 0.203125)" xlink:href="#STIXGeneral-Regular-46"/>
     <use transform="translate(200.179935 0.203125)" xlink:href="#STIXGeneral-Regular-48"/>
     <use transform="translate(250.179919 0.203125)" xlink:href="#STIXGeneral-Regular-53"/>
    </g>
   </g>
   <g id="legend_1">
    <g id="line2d_17">
     <path d="M 87.45906 158.9325 
L 157.43106 158.9325 
" style="fill:none;stroke:#1f77b4;stroke-linecap:square;stroke-width:8;"/>
    </g>
    <g id="line2d_18"/>
    <g id="text_6">
     <!-- r/c = 1.04 -->
     <g transform="translate(185.41986 171.1776)scale(0.34986 -0.34986)">
      <defs>
       <path d="M 16 45.796875 
L 16 36.59375 
Q 19.796875 42 22.34375 44 
Q 24.90625 46 28 46 
Q 30.59375 46 32.046875 44.59375 
Q 33.5 43.203125 33.5 40.703125 
Q 33.5 38.59375 32.453125 37.390625 
Q 31.40625 36.203125 29.59375 36.203125 
Q 27.703125 36.203125 25.59375 38.203125 
Q 24 39.703125 23 39.703125 
Q 20.90625 39.703125 18.453125 36.796875 
Q 16 33.90625 16 31.5 
L 16 9 
Q 16 4.703125 17.703125 3.203125 
Q 19.40625 1.703125 24.5 1.5 
L 24.5 0 
L 0.5 0 
L 0.5 1.5 
Q 5.296875 2.40625 6.4375 3.5 
Q 7.59375 4.59375 7.59375 8.40625 
L 7.59375 33.40625 
Q 7.59375 36.703125 6.84375 38.046875 
Q 6.09375 39.40625 4.203125 39.40625 
Q 2.59375 39.40625 0.703125 39 
L 0.703125 40.59375 
Q 7 42.59375 15.5 46 
z
" id="STIXGeneral-Regular-114"/>
       <path d="M 28.703125 67.59375 
L 5.90625 -1.40625 
L -0.90625 -1.40625 
L 22 67.59375 
z
" id="STIXGeneral-Regular-47"/>
       <path d="M 39.796875 15.59375 
L 41.203125 14.703125 
Q 36.90625 6.296875 33 3.203125 
Q 27.90625 -1 21.5 -1 
Q 13.203125 -1 7.84375 5.25 
Q 2.5 11.5 2.5 21.203125 
Q 2.5 33.90625 10.90625 40.90625 
Q 17.09375 46 24.40625 46 
Q 30.703125 46 35.25 42.953125 
Q 39.796875 39.90625 39.796875 35.703125 
Q 39.796875 34 38.390625 32.75 
Q 37 31.5 35.09375 31.5 
Q 31.59375 31.5 30.296875 36.09375 
L 29.703125 38.296875 
Q 28.90625 41.09375 27.703125 42.09375 
Q 26.5 43.09375 23.796875 43.09375 
Q 17.703125 43.09375 13.953125 38.296875 
Q 10.203125 33.5 10.203125 25.703125 
Q 10.203125 17.09375 14.5 11.640625 
Q 18.796875 6.203125 25.703125 6.203125 
Q 30 6.203125 33.09375 8.25 
Q 36.203125 10.296875 39.796875 15.59375 
z
" id="STIXGeneral-Regular-99"/>
       <path id="STIXGeneral-Regular-32"/>
       <path d="M 39.40625 0 
L 11.796875 0 
L 11.796875 1.5 
Q 17.296875 1.796875 19.296875 3.546875 
Q 21.296875 5.296875 21.296875 9.5 
L 21.296875 54.40625 
Q 21.296875 59.296875 18.296875 59.296875 
Q 16.90625 59.296875 13.796875 58.09375 
L 11.09375 57.09375 
L 11.09375 58.5 
L 29 67.59375 
L 29.90625 67.296875 
L 29.90625 7.59375 
Q 29.90625 4.296875 31.90625 2.890625 
Q 33.90625 1.5 39.40625 1.5 
z
" id="STIXGeneral-Regular-49"/>
       <path d="M 47.296875 16.703125 
L 37 16.703125 
L 37 0 
L 29.203125 0 
L 29.203125 16.703125 
L 1.203125 16.703125 
L 1.203125 23.09375 
L 32.59375 67.59375 
L 37 67.59375 
L 37 23.09375 
L 47.296875 23.09375 
z
M 29.203125 23.09375 
L 29.203125 57.40625 
L 5.203125 23.09375 
z
" id="STIXGeneral-Regular-52"/>
      </defs>
      <use xlink:href="#STIXGeneral-Regular-114"/>
      <use x="33.299988" xlink:href="#STIXGeneral-Regular-47"/>
      <use x="61.099976" xlink:href="#STIXGeneral-Regular-99"/>
      <use x="105.499969" xlink:href="#STIXGeneral-Regular-32"/>
      <use x="130.499954" xlink:href="#STIXGeneral-Regular-61"/>
      <use x="198.999939" xlink:href="#STIXGeneral-Regular-32"/>
      <use x="223.999924" xlink:href="#STIXGeneral-Regular-49"/>
      <use x="273.999908" xlink:href="#STIXGeneral-Regular-46"/>
      <use x="298.999893" xlink:href="#STIXGeneral-Regular-48"/>
      <use x="348.999878" xlink:href="#STIXGeneral-Regular-52"/>
     </g>
    </g>
    <g id="line2d_19">
     <path d="M 87.45906 208.508755 
L 157.43106 208.508755 
" style="fill:none;stroke:#ff7f0e;stroke-linecap:square;stroke-width:8;"/>
    </g>
    <g id="line2d_20"/>
    <g id="text_7">
     <!-- r/c = 1.56 -->
     <g transform="translate(185.41986 220.753855)scale(0.34986 -0.34986)">
      <defs>
       <path d="M 44.59375 68.40625 
L 44.796875 66.796875 
Q 33 64.90625 25.09375 57.25 
Q 17.203125 49.59375 15.203125 38.296875 
Q 21 42.796875 27.90625 42.796875 
Q 36.703125 42.796875 41.75 37.1875 
Q 46.796875 31.59375 46.796875 21.90625 
Q 46.796875 12.09375 41.703125 5.90625 
Q 35.796875 -1.40625 25.796875 -1.40625 
Q 13.59375 -1.40625 8.09375 8.703125 
Q 3.40625 17.296875 3.40625 27.90625 
Q 3.40625 44.296875 14.296875 55.5 
Q 20.5 61.90625 27.046875 64.546875 
Q 33.59375 67.203125 44.59375 68.40625 
z
M 37.796875 18.796875 
Q 37.796875 38.203125 24.296875 38.203125 
Q 19.296875 38.203125 16 35.546875 
Q 12.703125 32.90625 12.703125 26.59375 
Q 12.703125 14.90625 16.34375 8.15625 
Q 20 1.40625 26.90625 1.40625 
Q 32.203125 1.40625 35 6.15625 
Q 37.796875 10.90625 37.796875 18.796875 
z
" id="STIXGeneral-Regular-54"/>
      </defs>
      <use xlink:href="#STIXGeneral-Regular-114"/>
      <use x="33.299988" xlink:href="#STIXGeneral-Regular-47"/>
      <use x="61.099976" xlink:href="#STIXGeneral-Regular-99"/>
      <use x="105.499969" xlink:href="#STIXGeneral-Regular-32"/>
      <use x="130.499954" xlink:href="#STIXGeneral-Regular-61"/>
      <use x="198.999939" xlink:href="#STIXGeneral-Regular-32"/>
      <use x="223.999924" xlink:href="#STIXGeneral-Regular-49"/>
      <use x="273.999908" xlink:href="#STIXGeneral-Regular-46"/>
      <use x="298.999893" xlink:href="#STIXGeneral-Regular-53"/>
      <use x="348.999878" xlink:href="#STIXGeneral-Regular-54"/>
     </g>
    </g>
    <g id="line2d_21">
     <path d="M 87.45906 258.085011 
L 157.43106 258.085011 
" style="fill:none;stroke:#2ca02c;stroke-linecap:square;stroke-width:8;"/>
    </g>
    <g id="line2d_22"/>
    <g id="text_8">
     <!-- r/c = 2.08 -->
     <g transform="translate(185.41986 270.330111)scale(0.34986 -0.34986)">
      <defs>
       <path d="M 44.5 15.5 
Q 44.5 7.796875 39.140625 3.1875 
Q 33.796875 -1.40625 24.796875 -1.40625 
Q 16.40625 -1.40625 11 3.1875 
Q 5.59375 7.796875 5.59375 14.90625 
Q 5.59375 20.203125 8.1875 23.953125 
Q 10.796875 27.703125 18.59375 33.203125 
Q 11.09375 39.40625 8.640625 43.203125 
Q 6.203125 47 6.203125 52 
Q 6.203125 59.09375 11.640625 63.34375 
Q 17.09375 67.59375 25.59375 67.59375 
Q 32.90625 67.59375 37.65625 63.4375 
Q 42.40625 59.296875 42.40625 53.296875 
Q 42.40625 47.796875 39.546875 44.5 
Q 36.703125 41.203125 29 37.09375 
Q 38 31.09375 41.25 26.390625 
Q 44.5 21.703125 44.5 15.5 
z
M 35.5 53.296875 
Q 35.5 58.5 32.59375 61.640625 
Q 29.703125 64.796875 24.59375 64.796875 
Q 19.5 64.796875 16.546875 62.140625 
Q 13.59375 59.5 13.59375 54.890625 
Q 13.59375 50.296875 16.546875 46.546875 
Q 19.5 42.796875 26.09375 38.90625 
Q 31.203125 41.90625 33.34375 45.25 
Q 35.5 48.59375 35.5 53.296875 
z
M 27.09375 27.203125 
L 21.203125 31.203125 
Q 16.796875 27.59375 15 24.140625 
Q 13.203125 20.703125 13.203125 15.796875 
Q 13.203125 9 16.640625 5.203125 
Q 20.09375 1.40625 25.90625 1.40625 
Q 30.796875 1.40625 33.84375 4.453125 
Q 36.90625 7.5 36.90625 12.40625 
Q 36.90625 16.90625 34.59375 20.296875 
Q 32.296875 23.703125 27.09375 27.203125 
z
" id="STIXGeneral-Regular-56"/>
      </defs>
      <use xlink:href="#STIXGeneral-Regular-114"/>
      <use x="33.299988" xlink:href="#STIXGeneral-Regular-47"/>
      <use x="61.099976" xlink:href="#STIXGeneral-Regular-99"/>
      <use x="105.499969" xlink:href="#STIXGeneral-Regular-32"/>
      <use x="130.499954" xlink:href="#STIXGeneral-Regular-61"/>
      <use x="198.999939" xlink:href="#STIXGeneral-Regular-32"/>
      <use x="223.999924" xlink:href="#STIXGeneral-Regular-50"/>
      <use x="273.999908" xlink:href="#STIXGeneral-Regular-46"/>
      <use x="298.999893" xlink:href="#STIXGeneral-Regular-48"/>
      <use x="348.999878" xlink:href="#STIXGeneral-Regular-56"/>
     </g>
    </g>
    <g id="line2d_23">
     <path d="M 394.986 158.9325 
L 464.958 158.9325 
" style="fill:none;stroke:#d62728;stroke-linecap:square;stroke-width:8;"/>
    </g>
    <g id="line2d_24"/>
    <g id="text_9">
     <!-- r/c = 2.60 -->
     <g transform="translate(492.9468 171.1776)scale(0.34986 -0.34986)">
      <use xlink:href="#STIXGeneral-Regular-114"/>
      <use x="33.299988" xlink:href="#STIXGeneral-Regular-47"/>
      <use x="61.099976" xlink:href="#STIXGeneral-Regular-99"/>
      <use x="105.499969" xlink:href="#STIXGeneral-Regular-32"/>
      <use x="130.499954" xlink:href="#STIXGeneral-Regular-61"/>
      <use x="198.999939" xlink:href="#STIXGeneral-Regular-32"/>
      <use x="223.999924" xlink:href="#STIXGeneral-Regular-50"/>
      <use x="273.999908" xlink:href="#STIXGeneral-Regular-46"/>
      <use x="298.999893" xlink:href="#STIXGeneral-Regular-54"/>
      <use x="348.999878" xlink:href="#STIXGeneral-Regular-48"/>
     </g>
    </g>
    <g id="line2d_25">
     <path d="M 394.986 208.508755 
L 464.958 208.508755 
" style="fill:none;stroke:#9467bd;stroke-linecap:square;stroke-width:8;"/>
    </g>
    <g id="line2d_26"/>
    <g id="text_10">
     <!-- r/c = 3.12 -->
     <g transform="translate(492.9468 220.753855)scale(0.34986 -0.34986)">
      <defs>
       <path d="M 6.09375 51 
L 4.5 51.40625 
Q 6.796875 58.90625 11.6875 63.25 
Q 16.59375 67.59375 24.09375 67.59375 
Q 31.09375 67.59375 35.390625 63.796875 
Q 39.703125 60 39.703125 53.90625 
Q 39.703125 45.703125 30.40625 40.09375 
Q 35.90625 37.703125 38.703125 34.796875 
Q 43.09375 29.90625 43.09375 21.90625 
Q 43.09375 13.90625 38.5 7.90625 
Q 35.09375 3.296875 28.75 0.9375 
Q 22.40625 -1.40625 15.296875 -1.40625 
Q 4.09375 -1.40625 4.09375 4.296875 
Q 4.09375 5.90625 5.296875 6.90625 
Q 6.5 7.90625 8.203125 7.90625 
Q 10.703125 7.90625 14.296875 5.296875 
Q 18.703125 2.203125 22.90625 2.203125 
Q 28.40625 2.203125 32.15625 6.640625 
Q 35.90625 11.09375 35.90625 17.5 
Q 35.90625 29 25.5 32 
Q 22.40625 33 15.296875 33 
L 15.296875 34.40625 
Q 20.90625 36.296875 23.703125 38 
Q 31.796875 42.59375 31.796875 51.40625 
Q 31.796875 56.40625 28.9375 59 
Q 26.09375 61.59375 21 61.59375 
Q 12 61.59375 6.09375 51 
z
" id="STIXGeneral-Regular-51"/>
      </defs>
      <use xlink:href="#STIXGeneral-Regular-114"/>
      <use x="33.299988" xlink:href="#STIXGeneral-Regular-47"/>
      <use x="61.099976" xlink:href="#STIXGeneral-Regular-99"/>
      <use x="105.499969" xlink:href="#STIXGeneral-Regular-32"/>
      <use x="130.499954" xlink:href="#STIXGeneral-Regular-61"/>
      <use x="198.999939" xlink:href="#STIXGeneral-Regular-32"/>
      <use x="223.999924" xlink:href="#STIXGeneral-Regular-51"/>
      <use x="273.999908" xlink:href="#STIXGeneral-Regular-46"/>
      <use x="298.999893" xlink:href="#STIXGeneral-Regular-49"/>
      <use x="348.999878" xlink:href="#STIXGeneral-Regular-50"/>
     </g>
    </g>
   </g>
  </g>
  <g id="axes_2">
   <g id="patch_7">
    <path d="M 108 720 
L 612 720 
L 612 432 
L 108 432 
z
" style="fill:#ffffff;"/>
   </g>
   <g id="matplotlib.axis_3">
    <g id="xtick_4">
     <g id="line2d_27">
      <g>
       <use style="fill:#ffffff;stroke:#000000;stroke-width:0.8;" x="130.909091" xlink:href="#m3fdfac368c" y="720"/>
      </g>
     </g>
    </g>
    <g id="xtick_5">
     <g id="line2d_28">
      <g>
       <use style="fill:#ffffff;stroke:#000000;stroke-width:0.8;" x="360" xlink:href="#m3fdfac368c" y="720"/>
      </g>
     </g>
    </g>
    <g id="xtick_6">
     <g id="line2d_29">
      <g>
       <use style="fill:#ffffff;stroke:#000000;stroke-width:0.8;" x="589.090909" xlink:href="#m3fdfac368c" y="720"/>
      </g>
     </g>
    </g>
   </g>
   <g id="matplotlib.axis_4">
    <g id="ytick_4">
     <g id="line2d_30">
      <g>
       <use style="fill:#ffffff;stroke:#000000;stroke-width:0.8;" x="108" xlink:href="#m4e6c07e907" y="672"/>
      </g>
     </g>
     <g id="text_11">
      <!-- −2 -->
      <g transform="translate(51.23 686.342344)scale(0.42 -0.42)">
       <use xlink:href="#STIXGeneral-Regular-8722"/>
       <use x="68.499985" xlink:href="#STIXGeneral-Regular-50"/>
      </g>
     </g>
    </g>
    <g id="ytick_5">
     <g id="line2d_31">
      <g>
       <use style="fill:#ffffff;stroke:#000000;stroke-width:0.8;" x="108" xlink:href="#m4e6c07e907" y="576"/>
      </g>
     </g>
     <g id="text_12">
      <!-- 0 -->
      <g transform="translate(80 590.342344)scale(0.42 -0.42)">
       <use xlink:href="#STIXGeneral-Regular-48"/>
      </g>
     </g>
    </g>
    <g id="ytick_6">
     <g id="line2d_32">
      <g>
       <use style="fill:#ffffff;stroke:#000000;stroke-width:0.8;" x="108" xlink:href="#m4e6c07e907" y="480"/>
      </g>
     </g>
     <g id="text_13">
      <!-- 2 -->
      <g transform="translate(80 494.342344)scale(0.42 -0.42)">
       <use xlink:href="#STIXGeneral-Regular-50"/>
      </g>
     </g>
    </g>
    <g id="text_14">
     <!-- Cp -->
     <g transform="translate(38.114688 600.507656)rotate(-90)scale(0.42 -0.42)">
      <use xlink:href="#STIXGeneral-Regular-67"/>
      <use x="66.699997" xlink:href="#STIXGeneral-Regular-112"/>
     </g>
    </g>
   </g>
   <g id="line2d_33">
    <path clip-path="url(#p0761f2cc0a)" d="M 130.909091 536.72616 
L 135.53719 550.093773 
L 140.165289 556.190505 
L 144.793388 560.141609 
L 149.421488 562.615909 
L 154.049587 564.358498 
L 158.677686 565.501262 
L 163.305785 566.458658 
L 167.933884 567.165908 
L 172.561983 567.740087 
L 177.190083 568.20315 
L 181.818182 568.575948 
L 186.446281 568.886547 
L 191.07438 569.133491 
L 195.702479 569.340597 
L 200.330579 569.515082 
L 204.958678 569.656133 
L 209.586777 569.774593 
L 214.214876 569.871188 
L 218.842975 569.950435 
L 223.471074 570.010992 
L 228.099174 570.05648 
L 232.727273 570.094092 
L 237.355372 570.121426 
L 241.983471 570.14106 
L 246.61157 570.153469 
L 251.239669 570.160264 
L 255.867769 570.162641 
L 260.495868 570.160661 
L 265.123967 570.15398 
L 269.752066 570.140571 
L 274.380165 570.122906 
L 279.008264 570.100103 
L 283.636364 570.072955 
L 288.264463 570.037858 
L 292.892562 569.9922 
L 297.520661 569.93647 
L 302.14876 569.871164 
L 306.77686 569.794501 
L 311.404959 569.706052 
L 316.033058 569.603718 
L 320.661157 569.49647 
L 325.289256 569.385147 
L 329.917355 569.265372 
L 334.545455 569.15288 
L 339.173554 569.049552 
L 343.801653 568.92306 
L 348.429752 568.854018 
L 353.057851 568.767661 
L 357.68595 568.691125 
L 362.31405 568.627702 
L 366.942149 568.575917 
L 371.570248 568.536927 
L 376.198347 568.513562 
L 380.826446 568.499915 
L 385.454545 568.497325 
L 390.082645 568.513408 
L 394.710744 568.541694 
L 399.338843 568.580192 
L 403.966942 568.627814 
L 408.595041 568.685777 
L 413.22314 568.751958 
L 417.85124 568.827449 
L 422.479339 568.913252 
L 427.107438 569.006924 
L 431.735537 569.108597 
L 436.363636 569.209052 
L 440.991736 569.313032 
L 445.619835 569.424423 
L 450.247934 569.539778 
L 454.876033 569.656311 
L 459.504132 569.771514 
L 464.132231 569.882891 
L 468.760331 569.987941 
L 473.38843 570.086784 
L 478.016529 570.178773 
L 482.644628 570.265183 
L 487.272727 570.336852 
L 491.900826 570.392709 
L 496.528926 570.445417 
L 501.157025 570.497674 
L 505.785124 570.552943 
L 510.413223 570.617741 
L 515.041322 570.698247 
L 519.669421 570.802215 
L 524.297521 570.935478 
L 528.92562 571.099189 
L 533.553719 571.303569 
L 538.181818 571.544651 
L 542.809917 571.829555 
L 547.438017 572.156494 
L 552.066116 572.545218 
L 556.694215 572.950873 
L 561.322314 573.470253 
L 565.950413 573.977746 
L 570.578512 574.671373 
L 575.206612 575.291133 
L 579.834711 576.285731 
L 584.46281 577.994422 
L 589.090909 581.105952 
" style="fill:none;stroke:#1f77b4;stroke-linecap:square;stroke-width:8;"/>
   </g>
   <g id="line2d_34">
    <path clip-path="url(#p0761f2cc0a)" d="M 108 576 
L 612 576 
" style="fill:none;stroke:#000000;stroke-dasharray:3.2,0.8,0.5,0.8;stroke-dashoffset:0;stroke-width:0.5;"/>
   </g>
   <g id="line2d_35">
    <path clip-path="url(#p0761f2cc0a)" d="M 130.909091 448.197504 
L 135.53719 513.929687 
L 140.165289 537.582594 
L 144.793388 546.443973 
L 149.421488 553.063123 
L 154.049587 556.975626 
L 158.677686 559.680734 
L 163.305785 561.798386 
L 167.933884 563.390727 
L 172.561983 564.670999 
L 177.190083 565.708489 
L 181.818182 566.56426 
L 186.446281 567.288408 
L 191.07438 567.891221 
L 195.702479 568.414637 
L 200.330579 568.873831 
L 204.958678 569.2716 
L 209.586777 569.625081 
L 214.214876 569.940151 
L 218.842975 570.219824 
L 223.471074 570.470112 
L 228.099174 570.693859 
L 232.727273 570.896141 
L 237.355372 571.083938 
L 241.983471 571.257807 
L 246.61157 571.419079 
L 251.239669 571.569698 
L 255.867769 571.710243 
L 260.495868 571.843384 
L 265.123967 571.969462 
L 269.752066 572.085531 
L 274.380165 572.195874 
L 279.008264 572.303646 
L 283.636364 572.411224 
L 288.264463 572.517896 
L 292.892562 572.622752 
L 297.520661 572.725913 
L 302.14876 572.827988 
L 306.77686 572.930379 
L 311.404959 573.031504 
L 316.033058 573.130387 
L 320.661157 573.228784 
L 325.289256 573.329849 
L 329.917355 573.434789 
L 334.545455 573.529033 
L 339.173554 573.653964 
L 343.801653 573.766866 
L 348.429752 573.881612 
L 353.057851 573.999277 
L 357.68595 574.11862 
L 362.31405 574.23921 
L 366.942149 574.362136 
L 371.570248 574.490277 
L 376.198347 574.624099 
L 380.826446 574.76267 
L 385.454545 574.905221 
L 390.082645 575.05098 
L 394.710744 575.200314 
L 399.338843 575.35426 
L 403.966942 575.510315 
L 408.595041 575.668323 
L 413.22314 575.82812 
L 417.85124 575.992787 
L 422.479339 576.164648 
L 427.107438 576.343053 
L 431.735537 576.526671 
L 436.363636 576.715629 
L 440.991736 576.914728 
L 445.619835 577.125351 
L 450.247934 577.332937 
L 454.876033 577.539164 
L 459.504132 577.737594 
L 464.132231 577.92872 
L 468.760331 578.139726 
L 473.38843 578.368248 
L 478.016529 578.599908 
L 482.644628 578.832138 
L 487.272727 579.076376 
L 491.900826 579.331209 
L 496.528926 579.589038 
L 501.157025 579.845205 
L 505.785124 580.098378 
L 510.413223 580.352601 
L 515.041322 580.611412 
L 519.669421 580.873781 
L 524.297521 581.140009 
L 528.92562 581.405274 
L 533.553719 581.668385 
L 538.181818 581.926918 
L 542.809917 582.179142 
L 547.438017 582.423115 
L 552.066116 582.65361 
L 556.694215 582.865701 
L 561.322314 583.052277 
L 565.950413 583.217248 
L 570.578512 583.321347 
L 575.206612 583.520706 
L 579.834711 582.966634 
L 584.46281 582.378934 
L 589.090909 581.194176 
" style="fill:none;stroke:#ff7f0e;stroke-linecap:square;stroke-width:8;"/>
   </g>
   <g id="line2d_36">
    <path clip-path="url(#p0761f2cc0a)" d="M 108 576 
L 612 576 
" style="fill:none;stroke:#000000;stroke-dasharray:3.2,0.8,0.5,0.8;stroke-dashoffset:0;stroke-width:0.5;"/>
   </g>
   <g id="line2d_37">
    <path clip-path="url(#p0761f2cc0a)" d="M 130.909091 413.709168 
L 135.53719 501.906255 
L 140.165289 526.239467 
L 144.793388 539.109081 
L 149.421488 547.341154 
L 154.049587 552.403892 
L 158.677686 556.236532 
L 163.305785 559.115133 
L 167.933884 561.387925 
L 172.561983 563.231135 
L 177.190083 564.744754 
L 181.818182 566.022399 
L 186.446281 567.111029 
L 191.07438 568.055438 
L 195.702479 568.88915 
L 200.330579 569.622349 
L 204.958678 570.278689 
L 209.586777 570.870183 
L 214.214876 571.407045 
L 218.842975 571.894608 
L 223.471074 572.341587 
L 228.099174 572.752837 
L 232.727273 573.132876 
L 237.355372 573.486276 
L 241.983471 573.817347 
L 246.61157 574.129618 
L 251.239669 574.424971 
L 255.867769 574.705028 
L 260.495868 574.970076 
L 265.123967 575.222845 
L 269.752066 575.464221 
L 274.380165 575.696038 
L 279.008264 575.918234 
L 283.636364 576.134041 
L 288.264463 576.345822 
L 292.892562 576.552661 
L 297.520661 576.75437 
L 302.14876 576.951329 
L 306.77686 577.143652 
L 311.404959 577.331139 
L 316.033058 577.514577 
L 320.661157 577.696275 
L 325.289256 577.8462 
L 329.917355 578.059736 
L 334.545455 578.240489 
L 339.173554 578.420461 
L 343.801653 578.599187 
L 348.429752 578.776676 
L 353.057851 578.95141 
L 357.68595 579.124888 
L 362.31405 579.298166 
L 366.942149 579.472268 
L 371.570248 579.64796 
L 376.198347 579.823989 
L 380.826446 580.003515 
L 385.454545 580.183211 
L 390.082645 580.362458 
L 394.710744 580.540237 
L 399.338843 580.716986 
L 403.966942 580.895007 
L 408.595041 581.074638 
L 413.22314 581.257573 
L 417.85124 581.440779 
L 422.479339 581.627378 
L 427.107438 581.813976 
L 431.735537 582.00174 
L 436.363636 582.188548 
L 440.991736 582.375871 
L 445.619835 582.557935 
L 450.247934 582.742381 
L 454.876033 582.932025 
L 459.504132 583.121861 
L 464.132231 583.314668 
L 468.760331 583.507915 
L 473.38843 583.701712 
L 478.016529 583.893912 
L 482.644628 584.083964 
L 487.272727 584.273702 
L 491.900826 584.4647 
L 496.528926 584.658631 
L 501.157025 584.852561 
L 505.785124 585.046491 
L 510.413223 585.240422 
L 515.041322 585.430359 
L 519.669421 585.619257 
L 524.297521 585.804253 
L 528.92562 585.982382 
L 533.553719 586.152679 
L 538.181818 586.31497 
L 542.809917 586.467351 
L 547.438017 586.606112 
L 552.066116 586.726859 
L 556.694215 586.823795 
L 561.322314 586.871557 
L 565.950413 586.848509 
L 570.578512 586.851778 
L 575.206612 586.719622 
L 579.834711 586.152697 
L 584.46281 585.17837 
L 589.090909 583.501152 
" style="fill:none;stroke:#2ca02c;stroke-linecap:square;stroke-width:8;"/>
   </g>
   <g id="line2d_38">
    <path clip-path="url(#p0761f2cc0a)" d="M 108 576 
L 612 576 
" style="fill:none;stroke:#000000;stroke-dasharray:3.2,0.8,0.5,0.8;stroke-dashoffset:0;stroke-width:0.5;"/>
   </g>
   <g id="line2d_39">
    <path clip-path="url(#p0761f2cc0a)" d="M 130.909091 460.446336 
L 135.53719 501.705346 
L 140.165289 523.512603 
L 144.793388 536.941389 
L 149.421488 545.314567 
L 154.049587 550.878454 
L 158.677686 555.134706 
L 163.305785 558.411608 
L 167.933884 561.030587 
L 172.561983 563.173509 
L 177.190083 564.96827 
L 181.818182 566.500904 
L 186.446281 567.823811 
L 191.07438 568.992889 
L 195.702479 570.027865 
L 200.330579 570.95317 
L 204.958678 571.78481 
L 209.586777 572.540326 
L 214.214876 573.230768 
L 218.842975 573.865804 
L 223.471074 574.457542 
L 228.099174 575.009096 
L 232.727273 575.513358 
L 237.355372 575.979176 
L 241.983471 576.423145 
L 246.61157 576.847207 
L 251.239669 577.250308 
L 255.867769 577.633202 
L 260.495868 578.001253 
L 265.123967 578.353727 
L 269.752066 578.689532 
L 274.380165 579.000016 
L 279.008264 579.297298 
L 283.636364 579.589704 
L 288.264463 579.876851 
L 292.892562 580.155664 
L 297.520661 580.426008 
L 302.14876 580.69497 
L 306.77686 580.954187 
L 311.404959 581.201945 
L 316.033058 581.432531 
L 320.661157 581.660723 
L 325.289256 581.900413 
L 329.917355 582.118323 
L 334.545455 582.342062 
L 339.173554 582.564526 
L 343.801653 582.787667 
L 348.429752 583.000985 
L 353.057851 583.203219 
L 357.68595 583.393219 
L 362.31405 583.585604 
L 366.942149 583.781128 
L 371.570248 583.976941 
L 376.198347 584.17219 
L 380.826446 584.371805 
L 385.454545 584.56822 
L 390.082645 584.75422 
L 394.710744 584.927808 
L 399.338843 585.097404 
L 403.966942 585.270064 
L 408.595041 585.444445 
L 413.22314 585.618385 
L 417.85124 585.792489 
L 422.479339 585.971386 
L 427.107438 586.141708 
L 431.735537 586.302056 
L 436.363636 586.450805 
L 440.991736 586.598791 
L 445.619835 586.749133 
L 450.247934 586.899376 
L 454.876033 587.048192 
L 459.504132 587.197879 
L 464.132231 587.347179 
L 468.760331 587.484499 
L 473.38843 587.609689 
L 478.016529 587.725238 
L 482.644628 587.838883 
L 487.272727 587.950715 
L 491.900826 588.058764 
L 496.528926 588.161488 
L 501.157025 588.262125 
L 505.785124 588.350561 
L 510.413223 588.423747 
L 515.041322 588.478504 
L 519.669421 588.517637 
L 524.297521 588.544621 
L 528.92562 588.557213 
L 533.553719 588.551101 
L 538.181818 588.519604 
L 542.809917 588.459122 
L 547.438017 588.365615 
L 552.066116 588.217618 
L 556.694215 588.053304 
L 561.322314 587.81411 
L 565.950413 587.496609 
L 570.578512 587.085891 
L 575.206612 586.533613 
L 579.834711 585.578109 
L 584.46281 583.763883 
L 589.090909 581.581248 
" style="fill:none;stroke:#d62728;stroke-linecap:square;stroke-width:8;"/>
   </g>
   <g id="line2d_40">
    <path clip-path="url(#p0761f2cc0a)" d="M 108 576 
L 612 576 
" style="fill:none;stroke:#000000;stroke-dasharray:3.2,0.8,0.5,0.8;stroke-dashoffset:0;stroke-width:0.5;"/>
   </g>
   <g id="line2d_41">
    <path clip-path="url(#p0761f2cc0a)" d="M 130.909091 498.33384 
L 135.53719 519.629855 
L 140.165289 534.558998 
L 144.793388 544.341584 
L 149.421488 551.242486 
L 154.049587 555.838033 
L 158.677686 559.516575 
L 163.305785 562.407874 
L 167.933884 564.757371 
L 172.561983 566.734636 
L 177.190083 568.430538 
L 181.818182 569.90795 
L 186.446281 571.220712 
L 191.07438 572.401561 
L 195.702479 573.476782 
L 200.330579 574.463771 
L 204.958678 575.3821 
L 209.586777 576.246393 
L 214.214876 577.065409 
L 218.842975 577.843248 
L 223.471074 578.604229 
L 228.099174 579.33925 
L 232.727273 580.039475 
L 237.355372 580.724242 
L 241.983471 581.400907 
L 246.61157 582.059327 
L 251.239669 582.691912 
L 255.867769 583.296874 
L 260.495868 583.87944 
L 265.123967 584.436902 
L 269.752066 584.954225 
L 274.380165 585.400465 
L 279.008264 585.824745 
L 283.636364 586.234703 
L 288.264463 586.618787 
L 292.892562 586.96764 
L 297.520661 587.282172 
L 302.14876 587.577592 
L 306.77686 587.83318 
L 311.404959 588.038271 
L 316.033058 588.194079 
L 320.661157 588.328913 
L 325.289256 588.475148 
L 329.917355 588.59186 
L 334.545455 588.686619 
L 339.173554 588.784648 
L 343.801653 588.861625 
L 348.429752 588.901341 
L 353.057851 588.90539 
L 357.68595 588.899851 
L 362.31405 588.907589 
L 366.942149 588.92371 
L 371.570248 588.939259 
L 376.198347 588.961039 
L 380.826446 588.998132 
L 385.454545 589.004778 
L 390.082645 588.992459 
L 394.710744 588.95742 
L 399.338843 588.932566 
L 403.966942 588.918427 
L 408.595041 588.904989 
L 413.22314 588.885141 
L 417.85124 588.871528 
L 422.479339 588.85085 
L 427.107438 588.801362 
L 431.735537 588.722254 
L 436.363636 588.629426 
L 440.991736 588.548969 
L 445.619835 588.47986 
L 450.247934 588.417478 
L 454.876033 588.363344 
L 459.504132 588.331316 
L 464.132231 588.297342 
L 468.760331 588.253492 
L 473.38843 588.182593 
L 478.016529 588.112898 
L 482.644628 588.052856 
L 487.272727 587.995985 
L 491.900826 587.932553 
L 496.528926 587.862239 
L 501.157025 587.803231 
L 505.785124 587.710728 
L 510.413223 587.583575 
L 515.041322 587.425654 
L 519.669421 587.277353 
L 524.297521 587.148947 
L 528.92562 587.041058 
L 533.553719 586.951804 
L 538.181818 586.875797 
L 542.809917 586.805593 
L 547.438017 586.730401 
L 552.066116 586.618501 
L 556.694215 586.513458 
L 561.322314 586.336592 
L 565.950413 586.072242 
L 570.578512 585.708769 
L 575.206612 585.125913 
L 579.834711 584.150882 
L 584.46281 582.680611 
L 589.090909 580.5768 
" style="fill:none;stroke:#9467bd;stroke-linecap:square;stroke-width:8;"/>
   </g>
   <g id="line2d_42">
    <path clip-path="url(#p0761f2cc0a)" d="M 108 576 
L 612 576 
" style="fill:none;stroke:#000000;stroke-dasharray:3.2,0.8,0.5,0.8;stroke-dashoffset:0;stroke-width:0.5;"/>
   </g>
   <g id="patch_8">
    <path d="M 108 720 
L 108 432 
" style="fill:none;stroke:#000000;stroke-linecap:square;stroke-linejoin:miter;stroke-width:0.8;"/>
   </g>
   <g id="patch_9">
    <path d="M 612 720 
L 612 432 
" style="fill:none;stroke:#000000;stroke-linecap:square;stroke-linejoin:miter;stroke-width:0.8;"/>
   </g>
   <g id="patch_10">
    <path d="M 108 720 
L 612 720 
" style="fill:none;stroke:#000000;stroke-linecap:square;stroke-linejoin:miter;stroke-width:0.8;"/>
   </g>
   <g id="patch_11">
    <path d="M 108 432 
L 612 432 
" style="fill:none;stroke:#000000;stroke-linecap:square;stroke-linejoin:miter;stroke-width:0.8;"/>
   </g>
   <g id="text_15">
    <!-- $\^t = 0.15$ -->
    <g transform="translate(599.19 585.784688)scale(0.42 -0.42)">
     <use transform="translate(39.042969 16.59375)" xlink:href="#STIXGeneral-Regular-770"/>
     <use transform="translate(0 0.203125)" xlink:href="#STIXGeneral-Italic-116"/>
     <use transform="translate(42.239984 0.203125)" xlink:href="#STIXGeneral-Regular-61"/>
     <use transform="translate(125.179965 0.203125)" xlink:href="#STIXGeneral-Regular-48"/>
     <use transform="translate(175.17995 0.203125)" xlink:href="#STIXGeneral-Regular-46"/>
     <use transform="translate(200.179935 0.203125)" xlink:href="#STIXGeneral-Regular-49"/>
     <use transform="translate(250.179919 0.203125)" xlink:href="#STIXGeneral-Regular-53"/>
    </g>
   </g>
  </g>
  <g id="axes_3">
   <g id="patch_12">
    <path d="M 108 1036.8 
L 612 1036.8 
L 612 748.8 
L 108 748.8 
z
" style="fill:#ffffff;"/>
   </g>
   <g id="matplotlib.axis_5">
    <g id="xtick_7">
     <g id="line2d_43">
      <g>
       <use style="fill:#ffffff;stroke:#000000;stroke-width:0.8;" x="130.909091" xlink:href="#m3fdfac368c" y="1036.8"/>
      </g>
     </g>
     <g id="text_16">
      <!-- 0.0 -->
      <g transform="translate(104.659091 1072.484688)scale(0.42 -0.42)">
       <use xlink:href="#STIXGeneral-Regular-48"/>
       <use x="49.999985" xlink:href="#STIXGeneral-Regular-46"/>
       <use x="74.999969" xlink:href="#STIXGeneral-Regular-48"/>
      </g>
     </g>
    </g>
    <g id="xtick_8">
     <g id="line2d_44">
      <g>
       <use style="fill:#ffffff;stroke:#000000;stroke-width:0.8;" x="360" xlink:href="#m3fdfac368c" y="1036.8"/>
      </g>
     </g>
     <g id="text_17">
      <!-- 0.5 -->
      <g transform="translate(333.75 1072.484688)scale(0.42 -0.42)">
       <use xlink:href="#STIXGeneral-Regular-48"/>
       <use x="49.999985" xlink:href="#STIXGeneral-Regular-46"/>
       <use x="74.999969" xlink:href="#STIXGeneral-Regular-53"/>
      </g>
     </g>
    </g>
    <g id="xtick_9">
     <g id="line2d_45">
      <g>
       <use style="fill:#ffffff;stroke:#000000;stroke-width:0.8;" x="589.090909" xlink:href="#m3fdfac368c" y="1036.8"/>
      </g>
     </g>
     <g id="text_18">
      <!-- 1.0 -->
      <g transform="translate(562.840909 1072.484688)scale(0.42 -0.42)">
       <use xlink:href="#STIXGeneral-Regular-49"/>
       <use x="49.999985" xlink:href="#STIXGeneral-Regular-46"/>
       <use x="74.999969" xlink:href="#STIXGeneral-Regular-48"/>
      </g>
     </g>
    </g>
    <g id="text_19">
     <!-- x/c -->
     <g transform="translate(334.337344 1114.284688)scale(0.42 -0.42)">
      <defs>
       <path d="M 47.90625 0 
L 27.796875 0 
L 27.796875 1.5 
Q 30.296875 1.703125 31.046875 2.140625 
Q 31.796875 2.59375 31.796875 3.90625 
Q 31.796875 4.796875 31.203125 5.703125 
L 22.09375 19.703125 
L 14.203125 7.40625 
Q 12.203125 4.296875 12.203125 3.296875 
Q 12.203125 1.5 16.203125 1.5 
L 16.203125 0 
L 1.703125 0 
L 1.703125 1.5 
Q 4.203125 1.703125 5.546875 2.640625 
Q 6.90625 3.59375 9 6.59375 
L 20.40625 23.09375 
L 11 37.5 
Q 8.703125 41 7.09375 42.25 
Q 5.5 43.5 3.296875 43.5 
L 2.40625 43.5 
L 2.40625 45 
L 23.09375 45 
L 23.09375 43.5 
Q 18.796875 43.40625 18.796875 41.296875 
Q 18.796875 39.203125 23.40625 32.40625 
Q 24.703125 30.59375 24.796875 30.40625 
Q 25.296875 31.09375 27.796875 34.796875 
Q 28.296875 35.703125 29 36.703125 
Q 29.703125 37.703125 30.046875 38.296875 
Q 30.40625 38.90625 30.796875 39.5 
Q 31.203125 40.09375 31.34375 40.546875 
Q 31.5 41 31.5 41.296875 
Q 31.5 43.203125 27.5 43.5 
L 27.5 45 
L 43.296875 45 
L 43.296875 43.5 
Q 38.203125 43.296875 35.203125 39.09375 
L 26.90625 27.09375 
L 39.703125 7.5 
Q 43.59375 1.5 47.90625 1.5 
z
" id="STIXGeneral-Regular-120"/>
      </defs>
      <use xlink:href="#STIXGeneral-Regular-120"/>
      <use x="49.999985" xlink:href="#STIXGeneral-Regular-47"/>
      <use x="77.799973" xlink:href="#STIXGeneral-Regular-99"/>
     </g>
    </g>
   </g>
   <g id="matplotlib.axis_6">
    <g id="ytick_7">
     <g id="line2d_46">
      <g>
       <use style="fill:#ffffff;stroke:#000000;stroke-width:0.8;" x="108" xlink:href="#m4e6c07e907" y="988.8"/>
      </g>
     </g>
     <g id="text_20">
      <!-- −2 -->
      <g transform="translate(51.23 1003.142344)scale(0.42 -0.42)">
       <use xlink:href="#STIXGeneral-Regular-8722"/>
       <use x="68.499985" xlink:href="#STIXGeneral-Regular-50"/>
      </g>
     </g>
    </g>
    <g id="ytick_8">
     <g id="line2d_47">
      <g>
       <use style="fill:#ffffff;stroke:#000000;stroke-width:0.8;" x="108" xlink:href="#m4e6c07e907" y="892.8"/>
      </g>
     </g>
     <g id="text_21">
      <!-- 0 -->
      <g transform="translate(80 907.142344)scale(0.42 -0.42)">
       <use xlink:href="#STIXGeneral-Regular-48"/>
      </g>
     </g>
    </g>
    <g id="ytick_9">
     <g id="line2d_48">
      <g>
       <use style="fill:#ffffff;stroke:#000000;stroke-width:0.8;" x="108" xlink:href="#m4e6c07e907" y="796.8"/>
      </g>
     </g>
     <g id="text_22">
      <!-- 2 -->
      <g transform="translate(80 811.142344)scale(0.42 -0.42)">
       <use xlink:href="#STIXGeneral-Regular-50"/>
      </g>
     </g>
    </g>
    <g id="text_23">
     <!-- Cp -->
     <g transform="translate(38.114688 917.307656)rotate(-90)scale(0.42 -0.42)">
      <use xlink:href="#STIXGeneral-Regular-67"/>
      <use x="66.699997" xlink:href="#STIXGeneral-Regular-112"/>
     </g>
    </g>
   </g>
   <g id="line2d_49">
    <path clip-path="url(#p609fbc7a0f)" d="M 130.909091 848.191008 
L 135.53719 861.191316 
L 140.165289 866.652589 
L 144.793388 870.775395 
L 149.421488 873.751623 
L 154.049587 875.852307 
L 158.677686 877.319408 
L 163.305785 878.553124 
L 167.933884 879.528774 
L 172.561983 880.342457 
L 177.190083 881.026648 
L 181.818182 881.603367 
L 186.446281 882.106046 
L 191.07438 882.537253 
L 195.702479 882.917679 
L 200.330579 883.253232 
L 204.958678 883.549079 
L 209.586777 883.81572 
L 214.214876 884.057382 
L 218.842975 884.279644 
L 223.471074 884.475842 
L 228.099174 884.65075 
L 232.727273 884.813436 
L 237.355372 884.961863 
L 241.983471 885.099459 
L 246.61157 885.22609 
L 251.239669 885.343148 
L 255.867769 885.45166 
L 260.495868 885.551276 
L 265.123967 885.645417 
L 269.752066 885.734451 
L 274.380165 885.818406 
L 279.008264 885.894155 
L 283.636364 885.967162 
L 288.264463 886.037168 
L 292.892562 886.103245 
L 297.520661 886.166 
L 302.14876 886.225952 
L 306.77686 886.283479 
L 311.404959 886.339497 
L 316.033058 886.394252 
L 320.661157 886.444581 
L 325.289256 886.494635 
L 329.917355 886.541687 
L 334.545455 886.588874 
L 339.173554 886.637599 
L 343.801653 886.69805 
L 348.429752 886.732453 
L 353.057851 886.778868 
L 357.68595 886.825492 
L 362.31405 886.872457 
L 366.942149 886.921839 
L 371.570248 886.968663 
L 376.198347 887.015397 
L 380.826446 887.063615 
L 385.454545 887.111039 
L 390.082645 887.163197 
L 394.710744 887.2172 
L 399.338843 887.272057 
L 403.966942 887.327904 
L 408.595041 887.385511 
L 413.22314 887.445126 
L 417.85124 887.509839 
L 422.479339 887.576865 
L 427.107438 887.64156 
L 431.735537 887.711181 
L 436.363636 887.780032 
L 440.991736 887.855836 
L 445.619835 887.93813 
L 450.247934 888.024138 
L 454.876033 888.114168 
L 459.504132 888.207825 
L 464.132231 888.306906 
L 468.760331 888.41155 
L 473.38843 888.525526 
L 478.016529 888.640922 
L 482.644628 888.763759 
L 487.272727 888.891894 
L 491.900826 889.024158 
L 496.528926 889.171469 
L 501.157025 889.330469 
L 505.785124 889.498845 
L 510.413223 889.67827 
L 515.041322 889.868333 
L 519.669421 890.071147 
L 524.297521 890.289461 
L 528.92562 890.523858 
L 533.553719 890.780952 
L 538.181818 891.059238 
L 542.809917 891.364587 
L 547.438017 891.698626 
L 552.066116 892.088752 
L 556.694215 892.469546 
L 561.322314 892.953886 
L 565.950413 893.501439 
L 570.578512 894.225726 
L 575.206612 894.854279 
L 579.834711 895.577477 
L 584.46281 896.959629 
L 589.090909 898.424304 
" style="fill:none;stroke:#1f77b4;stroke-linecap:square;stroke-width:8;"/>
   </g>
   <g id="line2d_50">
    <path clip-path="url(#p609fbc7a0f)" d="M 108 892.8 
L 612 892.8 
" style="fill:none;stroke:#000000;stroke-dasharray:3.2,0.8,0.5,0.8;stroke-dashoffset:0;stroke-width:0.5;"/>
   </g>
   <g id="line2d_51">
    <path clip-path="url(#p609fbc7a0f)" d="M 130.909091 794.82576 
L 135.53719 837.536334 
L 140.165289 854.279107 
L 144.793388 860.21839 
L 149.421488 865.949903 
L 154.049587 869.410719 
L 158.677686 871.807314 
L 163.305785 873.770894 
L 167.933884 875.296323 
L 172.561983 876.546265 
L 177.190083 877.579725 
L 181.818182 878.450527 
L 186.446281 879.201506 
L 191.07438 879.847122 
L 195.702479 880.412055 
L 200.330579 880.912814 
L 204.958678 881.35469 
L 209.586777 881.752712 
L 214.214876 882.112106 
L 218.842975 882.43586 
L 223.471074 882.731479 
L 228.099174 883.001099 
L 232.727273 883.248013 
L 237.355372 883.476943 
L 241.983471 883.687954 
L 246.61157 883.88345 
L 251.239669 884.065984 
L 255.867769 884.235912 
L 260.495868 884.395623 
L 265.123967 884.545812 
L 269.752066 884.68564 
L 274.380165 884.818667 
L 279.008264 884.946666 
L 283.636364 885.069943 
L 288.264463 885.188201 
L 292.892562 885.301161 
L 297.520661 885.409529 
L 302.14876 885.514297 
L 306.77686 885.615666 
L 311.404959 885.712908 
L 316.033058 885.806398 
L 320.661157 885.898216 
L 325.289256 885.990925 
L 329.917355 886.084152 
L 334.545455 886.164384 
L 339.173554 886.267562 
L 343.801653 886.358202 
L 348.429752 886.448492 
L 353.057851 886.538798 
L 357.68595 886.62671 
L 362.31405 886.714054 
L 366.942149 886.802639 
L 371.570248 886.895277 
L 376.198347 886.990941 
L 380.826446 887.088075 
L 385.454545 887.186142 
L 390.082645 887.285623 
L 394.710744 887.387414 
L 399.338843 887.491474 
L 403.966942 887.595239 
L 408.595041 887.700284 
L 413.22314 887.808826 
L 417.85124 887.923535 
L 422.479339 888.044127 
L 427.107438 888.168727 
L 431.735537 888.296326 
L 436.363636 888.429103 
L 440.991736 888.574159 
L 445.619835 888.727625 
L 450.247934 888.870816 
L 454.876033 889.013763 
L 459.504132 889.160539 
L 464.132231 889.314878 
L 468.760331 889.486556 
L 473.38843 889.671569 
L 478.016529 889.861317 
L 482.644628 890.05303 
L 487.272727 890.256511 
L 491.900826 890.469593 
L 496.528926 890.689243 
L 501.157025 890.916062 
L 505.785124 891.153072 
L 510.413223 891.40609 
L 515.041322 891.675472 
L 519.669421 891.95831 
L 524.297521 892.255458 
L 528.92562 892.56402 
L 533.553719 892.886802 
L 538.181818 893.22856 
L 542.809917 893.591211 
L 547.438017 893.977056 
L 552.066116 894.392961 
L 556.694215 894.839654 
L 561.322314 895.31518 
L 565.950413 895.83872 
L 570.578512 896.443259 
L 575.206612 897.315465 
L 579.834711 897.594038 
L 584.46281 898.405458 
L 589.090909 898.883088 
" style="fill:none;stroke:#ff7f0e;stroke-linecap:square;stroke-width:8;"/>
   </g>
   <g id="line2d_52">
    <path clip-path="url(#p609fbc7a0f)" d="M 108 892.8 
L 612 892.8 
" style="fill:none;stroke:#000000;stroke-dasharray:3.2,0.8,0.5,0.8;stroke-dashoffset:0;stroke-width:0.5;"/>
   </g>
   <g id="line2d_53">
    <path clip-path="url(#p609fbc7a0f)" d="M 130.909091 778.85664 
L 135.53719 831.708011 
L 140.165289 846.380883 
L 144.793388 855.419547 
L 149.421488 861.833268 
L 154.049587 865.670786 
L 158.677686 868.691853 
L 163.305785 871.030913 
L 167.933884 872.902421 
L 172.561983 874.437598 
L 177.190083 875.709991 
L 181.818182 876.792561 
L 186.446281 877.728965 
L 191.07438 878.547684 
L 195.702479 879.26789 
L 200.330579 879.906146 
L 204.958678 880.480555 
L 209.586777 881.000028 
L 214.214876 881.472545 
L 218.842975 881.902231 
L 223.471074 882.297019 
L 228.099174 882.661627 
L 232.727273 883.000073 
L 237.355372 883.31514 
L 241.983471 883.609418 
L 246.61157 883.885791 
L 251.239669 884.145878 
L 255.867769 884.391558 
L 260.495868 884.623798 
L 265.123967 884.845227 
L 269.752066 885.056747 
L 274.380165 885.259529 
L 279.008264 885.45471 
L 283.636364 885.643254 
L 288.264463 885.825794 
L 292.892562 886.002669 
L 297.520661 886.174386 
L 302.14876 886.341136 
L 306.77686 886.503596 
L 311.404959 886.662349 
L 316.033058 886.818011 
L 320.661157 886.972402 
L 325.289256 887.153329 
L 329.917355 887.278651 
L 334.545455 887.429815 
L 339.173554 887.579441 
L 343.801653 887.728066 
L 348.429752 887.875733 
L 353.057851 888.022305 
L 357.68595 888.168604 
L 362.31405 888.315771 
L 366.942149 888.46488 
L 371.570248 888.615704 
L 376.198347 888.768179 
L 380.826446 888.92199 
L 385.454545 889.077154 
L 390.082645 889.233381 
L 394.710744 889.390277 
L 399.338843 889.548375 
L 403.966942 889.708947 
L 408.595041 889.873043 
L 413.22314 890.041055 
L 417.85124 890.212774 
L 422.479339 890.387932 
L 427.107438 890.566252 
L 431.735537 890.747355 
L 436.363636 890.930774 
L 440.991736 891.116693 
L 445.619835 891.306981 
L 450.247934 891.502821 
L 454.876033 891.704438 
L 459.504132 891.911759 
L 464.132231 892.12455 
L 468.760331 892.342651 
L 473.38843 892.565603 
L 478.016529 892.792759 
L 482.644628 893.02454 
L 487.272727 893.262867 
L 491.900826 893.509029 
L 496.528926 893.766477 
L 501.157025 894.027647 
L 505.785124 894.304921 
L 510.413223 894.579704 
L 515.041322 894.870978 
L 519.669421 895.16563 
L 524.297521 895.470486 
L 528.92562 895.786421 
L 533.553719 896.111696 
L 538.181818 896.44894 
L 542.809917 896.799683 
L 547.438017 897.166849 
L 552.066116 897.551883 
L 556.694215 897.9567 
L 561.322314 898.37953 
L 565.950413 898.879149 
L 570.578512 899.325668 
L 575.206612 899.981638 
L 579.834711 900.300203 
L 584.46281 900.697105 
L 589.090909 901.024176 
" style="fill:none;stroke:#2ca02c;stroke-linecap:square;stroke-width:8;"/>
   </g>
   <g id="line2d_54">
    <path clip-path="url(#p609fbc7a0f)" d="M 108 892.8 
L 612 892.8 
" style="fill:none;stroke:#000000;stroke-dasharray:3.2,0.8,0.5,0.8;stroke-dashoffset:0;stroke-width:0.5;"/>
   </g>
   <g id="line2d_55">
    <path clip-path="url(#p609fbc7a0f)" d="M 130.909091 800.34048 
L 135.53719 829.741961 
L 140.165289 843.622527 
L 144.793388 853.721266 
L 149.421488 860.220438 
L 154.049587 864.370975 
L 158.677686 867.652118 
L 163.305785 870.197478 
L 167.933884 872.246315 
L 172.561983 873.929964 
L 177.190083 875.34603 
L 181.818182 876.561699 
L 186.446281 877.620143 
L 191.07438 878.552191 
L 195.702479 879.378197 
L 200.330579 880.119753 
L 204.958678 880.7882 
L 209.586777 881.3972 
L 214.214876 881.95443 
L 218.842975 882.467553 
L 223.471074 882.94537 
L 228.099174 883.390696 
L 232.727273 883.799249 
L 237.355372 884.180387 
L 241.983471 884.541916 
L 246.61157 884.883844 
L 251.239669 885.207872 
L 255.867769 885.515086 
L 260.495868 885.808984 
L 265.123967 886.091725 
L 269.752066 886.362626 
L 274.380165 886.61616 
L 279.008264 886.861198 
L 283.636364 887.101702 
L 288.264463 887.336144 
L 292.892562 887.56369 
L 297.520661 887.784529 
L 302.14876 888.00229 
L 306.77686 888.214795 
L 311.404959 888.420199 
L 316.033058 888.613035 
L 320.661157 888.805146 
L 325.289256 889.006501 
L 329.917355 889.190625 
L 334.545455 889.380249 
L 339.173554 889.568861 
L 343.801653 889.758647 
L 348.429752 889.945276 
L 353.057851 890.125772 
L 357.68595 890.299274 
L 362.31405 890.476483 
L 366.942149 890.656317 
L 371.570248 890.837028 
L 376.198347 891.017982 
L 380.826446 891.202447 
L 385.454545 891.388462 
L 390.082645 891.572081 
L 394.710744 891.747828 
L 399.338843 891.922693 
L 403.966942 892.102902 
L 408.595041 892.287005 
L 413.22314 892.473451 
L 417.85124 892.662311 
L 422.479339 892.857701 
L 427.107438 893.054174 
L 431.735537 893.24845 
L 436.363636 893.436002 
L 440.991736 893.627047 
L 445.619835 893.824856 
L 450.247934 894.027822 
L 454.876033 894.234697 
L 459.504132 894.446408 
L 464.132231 894.665276 
L 468.760331 894.88634 
L 473.38843 895.104355 
L 478.016529 895.318663 
L 482.644628 895.539924 
L 487.272727 895.769181 
L 491.900826 896.005086 
L 496.528926 896.246803 
L 501.157025 896.496326 
L 505.785124 896.754094 
L 510.413223 897.015226 
L 515.041322 897.272288 
L 519.669421 897.531883 
L 524.297521 897.801573 
L 528.92562 898.081569 
L 533.553719 898.371314 
L 538.181818 898.668148 
L 542.809917 898.972067 
L 547.438017 899.283246 
L 552.066116 899.632941 
L 556.694215 899.933923 
L 561.322314 900.277503 
L 565.950413 900.658757 
L 570.578512 900.986771 
L 575.206612 901.460513 
L 579.834711 901.848304 
L 584.46281 901.703987 
L 589.090909 901.946832 
" style="fill:none;stroke:#d62728;stroke-linecap:square;stroke-width:8;"/>
   </g>
   <g id="line2d_56">
    <path clip-path="url(#p609fbc7a0f)" d="M 108 892.8 
L 612 892.8 
" style="fill:none;stroke:#000000;stroke-dasharray:3.2,0.8,0.5,0.8;stroke-dashoffset:0;stroke-width:0.5;"/>
   </g>
   <g id="line2d_57">
    <path clip-path="url(#p609fbc7a0f)" d="M 130.909091 826.4256 
L 135.53719 842.252378 
L 140.165289 852.32983 
L 144.793388 859.562981 
L 149.421488 864.78863 
L 154.049587 868.215275 
L 158.677686 870.973043 
L 163.305785 873.153664 
L 167.933884 874.932714 
L 172.561983 876.429622 
L 177.190083 877.711133 
L 181.818182 878.824438 
L 186.446281 879.804653 
L 191.07438 880.678621 
L 195.702479 881.459004 
L 200.330579 882.161318 
L 204.958678 882.801496 
L 209.586777 883.387954 
L 214.214876 883.928271 
L 218.842975 884.424799 
L 223.471074 884.891026 
L 228.099174 885.326828 
L 232.727273 885.725671 
L 237.355372 886.099598 
L 241.983471 886.456639 
L 246.61157 886.79325 
L 251.239669 887.110192 
L 255.867769 887.408223 
L 260.495868 887.693262 
L 265.123967 887.966206 
L 269.752066 888.22238 
L 274.380165 888.453678 
L 279.008264 888.680911 
L 283.636364 888.907143 
L 288.264463 889.125859 
L 292.892562 889.335219 
L 297.520661 889.535699 
L 302.14876 889.733487 
L 306.77686 889.918994 
L 311.404959 890.087962 
L 316.033058 890.24297 
L 320.661157 890.390726 
L 325.289256 890.560837 
L 329.917355 890.715611 
L 334.545455 890.864831 
L 339.173554 891.013471 
L 343.801653 891.159938 
L 348.429752 891.293225 
L 353.057851 891.408604 
L 357.68595 891.520698 
L 362.31405 891.63935 
L 366.942149 891.758986 
L 371.570248 891.875854 
L 376.198347 891.989986 
L 380.826446 892.10977 
L 385.454545 892.22063 
L 390.082645 892.318335 
L 394.710744 892.40013 
L 399.338843 892.487587 
L 403.966942 892.580404 
L 408.595041 892.673276 
L 413.22314 892.763492 
L 417.85124 892.855595 
L 422.479339 892.950365 
L 427.107438 893.030927 
L 431.735537 893.095013 
L 436.363636 893.152596 
L 440.991736 893.216123 
L 445.619835 893.282667 
L 450.247934 893.348288 
L 454.876033 893.412143 
L 459.504132 893.482233 
L 464.132231 893.546236 
L 468.760331 893.594742 
L 473.38843 893.62789 
L 478.016529 893.660582 
L 482.644628 893.696433 
L 487.272727 893.732117 
L 491.900826 893.764854 
L 496.528926 893.795189 
L 501.157025 893.828845 
L 505.785124 893.84738 
L 510.413223 893.847209 
L 515.041322 893.834543 
L 519.669421 893.816772 
L 524.297521 893.793057 
L 528.92562 893.759171 
L 533.553719 893.709526 
L 538.181818 893.640441 
L 542.809917 893.547489 
L 547.438017 893.425076 
L 552.066116 893.23199 
L 556.694215 893.057188 
L 561.322314 892.784915 
L 565.950413 892.44877 
L 570.578512 891.997686 
L 575.206612 891.212967 
L 579.834711 890.324514 
L 584.46281 889.321426 
L 589.090909 886.73544 
" style="fill:none;stroke:#9467bd;stroke-linecap:square;stroke-width:8;"/>
   </g>
   <g id="line2d_58">
    <path clip-path="url(#p609fbc7a0f)" d="M 108 892.8 
L 612 892.8 
" style="fill:none;stroke:#000000;stroke-dasharray:3.2,0.8,0.5,0.8;stroke-dashoffset:0;stroke-width:0.5;"/>
   </g>
   <g id="patch_13">
    <path d="M 108 1036.8 
L 108 748.8 
" style="fill:none;stroke:#000000;stroke-linecap:square;stroke-linejoin:miter;stroke-width:0.8;"/>
   </g>
   <g id="patch_14">
    <path d="M 612 1036.8 
L 612 748.8 
" style="fill:none;stroke:#000000;stroke-linecap:square;stroke-linejoin:miter;stroke-width:0.8;"/>
   </g>
   <g id="patch_15">
    <path d="M 108 1036.8 
L 612 1036.8 
" style="fill:none;stroke:#000000;stroke-linecap:square;stroke-linejoin:miter;stroke-width:0.8;"/>
   </g>
   <g id="patch_16">
    <path d="M 108 748.8 
L 612 748.8 
" style="fill:none;stroke:#000000;stroke-linecap:square;stroke-linejoin:miter;stroke-width:0.8;"/>
   </g>
   <g id="text_24">
    <!-- $\^t = 0.25$ -->
    <g transform="translate(599.19 902.584687)scale(0.42 -0.42)">
     <use transform="translate(39.042969 16.59375)" xlink:href="#STIXGeneral-Regular-770"/>
     <use transform="translate(0 0.203125)" xlink:href="#STIXGeneral-Italic-116"/>
     <use transform="translate(42.239984 0.203125)" xlink:href="#STIXGeneral-Regular-61"/>
     <use transform="translate(125.179965 0.203125)" xlink:href="#STIXGeneral-Regular-48"/>
     <use transform="translate(175.17995 0.203125)" xlink:href="#STIXGeneral-Regular-46"/>
     <use transform="translate(200.179935 0.203125)" xlink:href="#STIXGeneral-Regular-50"/>
     <use transform="translate(250.179919 0.203125)" xlink:href="#STIXGeneral-Regular-53"/>
    </g>
   </g>
  </g>
 </g>
 <defs>
  <clipPath id="pc66217a0f1">
   <rect height="288" width="504" x="108" y="115.2"/>
  </clipPath>
  <clipPath id="p0761f2cc0a">
   <rect height="288" width="504" x="108" y="432"/>
  </clipPath>
  <clipPath id="p609fbc7a0f">
   <rect height="288" width="504" x="108" y="748.8"/>
  </clipPath>
 </defs>
</svg>
