<?xml version="1.0" encoding="utf-8" standalone="no"?>
<!DOCTYPE svg PUBLIC "-//W3C//DTD SVG 1.1//EN"
  "http://www.w3.org/Graphics/SVG/1.1/DTD/svg11.dtd">
<!-- Created with matplotlib (https://matplotlib.org/) -->
<svg height="1152pt" version="1.1" viewBox="0 0 720 1152" width="720pt" xmlns="http://www.w3.org/2000/svg" xmlns:xlink="http://www.w3.org/1999/xlink">
 <metadata>
  <rdf:RDF xmlns:cc="http://creativecommons.org/ns#" xmlns:dc="http://purl.org/dc/elements/1.1/" xmlns:rdf="http://www.w3.org/1999/02/22-rdf-syntax-ns#">
   <cc:Work>
    <dc:type rdf:resource="http://purl.org/dc/dcmitype/StillImage"/>
    <dc:date>2022-01-07T23:04:42.399745</dc:date>
    <dc:format>image/svg+xml</dc:format>
    <dc:creator>
     <cc:Agent>
      <dc:title>Matplotlib v3.3.4, https://matplotlib.org/</dc:title>
     </cc:Agent>
    </dc:creator>
   </cc:Work>
  </rdf:RDF>
 </metadata>
 <defs>
  <style type="text/css">*{stroke-linecap:butt;stroke-linejoin:round;}</style>
 </defs>
 <g id="figure_1">
  <g id="patch_1">
   <path d="M 0 1152 
L 720 1152 
L 720 0 
L 0 0 
z
" style="fill:#ffffff;"/>
  </g>
  <g id="axes_1">
   <g id="patch_2">
    <path d="M 108 403.2 
L 612 403.2 
L 612 115.2 
L 108 115.2 
z
" style="fill:#ffffff;"/>
   </g>
   <g id="matplotlib.axis_1">
    <g id="xtick_1">
     <g id="line2d_1">
      <defs>
       <path d="M 0 0 
L 0 3.5 
" id="m9421cd8359" style="stroke:#000000;stroke-width:0.8;"/>
      </defs>
      <g>
       <use style="fill:#ffffff;stroke:#000000;stroke-width:0.8;" x="130.909091" xlink:href="#m9421cd8359" y="403.2"/>
      </g>
     </g>
    </g>
    <g id="xtick_2">
     <g id="line2d_2">
      <g>
       <use style="fill:#ffffff;stroke:#000000;stroke-width:0.8;" x="360" xlink:href="#m9421cd8359" y="403.2"/>
      </g>
     </g>
    </g>
    <g id="xtick_3">
     <g id="line2d_3">
      <g>
       <use style="fill:#ffffff;stroke:#000000;stroke-width:0.8;" x="589.090909" xlink:href="#m9421cd8359" y="403.2"/>
      </g>
     </g>
    </g>
   </g>
   <g id="matplotlib.axis_2">
    <g id="ytick_1">
     <g id="line2d_4">
      <defs>
       <path d="M 0 0 
L -3.5 0 
" id="md9846df092" style="stroke:#000000;stroke-width:0.8;"/>
      </defs>
      <g>
       <use style="fill:#ffffff;stroke:#000000;stroke-width:0.8;" x="108" xlink:href="#md9846df092" y="355.2"/>
      </g>
     </g>
     <g id="text_1">
      <!-- −2 -->
      <g transform="translate(51.23 369.542344)scale(0.42 -0.42)">
       <defs>
        <path d="M 62.09375 22 
L 6.40625 22 
L 6.40625 28.59375 
L 62.09375 28.59375 
z
" id="STIXGeneral-Regular-8722"/>
        <path d="M 47.40625 13.703125 
L 42 0 
L 2.90625 0 
L 2.90625 1.203125 
L 20.703125 20.09375 
Q 27.703125 27.40625 30.703125 33.5 
Q 33.703125 39.59375 33.703125 46.09375 
Q 33.703125 52.796875 30 56.5 
Q 26.296875 60.203125 19.796875 60.203125 
Q 14.40625 60.203125 11.25 57.390625 
Q 8.09375 54.59375 5.09375 47.203125 
L 3 47.703125 
Q 4.703125 57 9.84375 62.296875 
Q 15 67.59375 23.796875 67.59375 
Q 32.09375 67.59375 37.1875 62.59375 
Q 42.296875 57.59375 42.296875 50 
Q 42.296875 38.703125 29.5 25.203125 
L 13 7.59375 
L 36.40625 7.59375 
Q 39.703125 7.59375 41.640625 8.890625 
Q 43.59375 10.203125 46 14.296875 
z
" id="STIXGeneral-Regular-50"/>
       </defs>
       <use xlink:href="#STIXGeneral-Regular-8722"/>
       <use x="68.499985" xlink:href="#STIXGeneral-Regular-50"/>
      </g>
     </g>
    </g>
    <g id="ytick_2">
     <g id="line2d_5">
      <g>
       <use style="fill:#ffffff;stroke:#000000;stroke-width:0.8;" x="108" xlink:href="#md9846df092" y="259.2"/>
      </g>
     </g>
     <g id="text_2">
      <!-- 0 -->
      <g transform="translate(80 273.542344)scale(0.42 -0.42)">
       <defs>
        <path d="M 47.59375 33 
Q 47.59375 26.296875 46.296875 20.34375 
Q 45 14.40625 42.453125 9.40625 
Q 39.90625 4.40625 35.40625 1.5 
Q 30.90625 -1.40625 25 -1.40625 
Q 18.90625 -1.40625 14.296875 1.6875 
Q 9.703125 4.796875 7.203125 10 
Q 4.703125 15.203125 3.546875 21.09375 
Q 2.40625 27 2.40625 33.59375 
Q 2.40625 42.90625 4.703125 50.34375 
Q 7 57.796875 12.34375 62.6875 
Q 17.703125 67.59375 25.40625 67.59375 
Q 35.203125 67.59375 41.390625 58 
Q 47.59375 48.40625 47.59375 33 
z
M 38 32.5 
Q 38 48.296875 34.640625 56.640625 
Q 31.296875 65 24.796875 65 
Q 18.59375 65 15.296875 56.59375 
Q 12 48.203125 12 32.90625 
Q 12 17.5 15.296875 9.34375 
Q 18.59375 1.203125 25 1.203125 
Q 31.296875 1.203125 34.640625 9.34375 
Q 38 17.5 38 32.5 
z
" id="STIXGeneral-Regular-48"/>
       </defs>
       <use xlink:href="#STIXGeneral-Regular-48"/>
      </g>
     </g>
    </g>
    <g id="ytick_3">
     <g id="line2d_6">
      <g>
       <use style="fill:#ffffff;stroke:#000000;stroke-width:0.8;" x="108" xlink:href="#md9846df092" y="163.2"/>
      </g>
     </g>
     <g id="text_3">
      <!-- 2 -->
      <g transform="translate(80 177.542344)scale(0.42 -0.42)">
       <use xlink:href="#STIXGeneral-Regular-50"/>
      </g>
     </g>
    </g>
    <g id="text_4">
     <!-- Cp -->
     <g transform="translate(38.114688 283.707656)rotate(-90)scale(0.42 -0.42)">
      <defs>
       <path d="M 61.40625 13.09375 
L 63.296875 11.296875 
Q 54.40625 -1.40625 36 -1.40625 
Q 21.5 -1.40625 12.40625 7.5 
Q 2.796875 16.90625 2.796875 32.5 
Q 2.796875 47.09375 11.796875 57.203125 
Q 21.203125 67.59375 36.09375 67.59375 
Q 42.5 67.59375 48 66.09375 
Q 54.296875 64.296875 54.90625 64.296875 
Q 58.203125 64.296875 59.09375 67.59375 
L 61.09375 67.59375 
L 62 44.90625 
L 59.703125 44.90625 
Q 58.09375 52.09375 54.5 56 
Q 47.40625 63.59375 38.40625 63.59375 
Q 27.296875 63.59375 20.84375 55.4375 
Q 14.40625 47.296875 14.40625 34.09375 
Q 14.40625 18 21.59375 10.203125 
Q 28.296875 3 39.40625 3 
Q 46 3 50.796875 5.296875 
Q 55.59375 7.59375 61.40625 13.09375 
z
" id="STIXGeneral-Regular-67"/>
       <path d="M 15.90625 45.796875 
L 15.90625 38.09375 
Q 22.203125 46 30.296875 46 
Q 37.59375 46 42.296875 40 
Q 47 34 47 24.703125 
Q 47 13.796875 40.953125 6.390625 
Q 34.90625 -1 26 -1 
Q 22.90625 -1 20.75 -0.09375 
Q 18.59375 0.796875 15.90625 3.296875 
L 15.90625 -12.40625 
Q 15.90625 -17.09375 17.5 -18.4375 
Q 19.09375 -19.796875 24.703125 -19.90625 
L 24.703125 -21.703125 
L 0.5 -21.703125 
L 0.5 -20 
Q 4.90625 -19.59375 6.203125 -18.296875 
Q 7.5 -17 7.5 -13.09375 
L 7.5 33.703125 
Q 7.5 37.203125 6.703125 38.296875 
Q 5.90625 39.40625 3.40625 39.40625 
Q 1.796875 39.40625 0.90625 39.296875 
L 0.90625 40.90625 
Q 7.90625 43 15.296875 46 
z
M 15.90625 33.40625 
L 15.90625 8.796875 
Q 15.90625 6.59375 19.34375 4.390625 
Q 22.796875 2.203125 26.296875 2.203125 
Q 31.703125 2.203125 35.046875 7.296875 
Q 38.40625 12.40625 38.40625 20.703125 
Q 38.40625 29.5 35.046875 34.75 
Q 31.703125 40 26.09375 40 
Q 22.59375 40 19.25 37.796875 
Q 15.90625 35.59375 15.90625 33.40625 
z
" id="STIXGeneral-Regular-112"/>
      </defs>
      <use xlink:href="#STIXGeneral-Regular-67"/>
      <use x="66.699997" xlink:href="#STIXGeneral-Regular-112"/>
     </g>
    </g>
   </g>
   <g id="line2d_7">
    <path clip-path="url(#p2201c22cbc)" d="M 130.909091 263.552558 
L 135.53719 275.707585 
L 140.165289 276.786233 
L 144.793388 275.903554 
L 149.421488 274.867219 
L 154.049587 275.036141 
L 158.677686 274.622519 
L 163.305785 274.284567 
L 167.933884 274.092697 
L 172.561983 273.895006 
L 177.190083 273.732909 
L 181.818182 273.572057 
L 186.446281 273.4386 
L 191.07438 273.318844 
L 195.702479 273.208265 
L 200.330579 273.10609 
L 204.958678 273.010559 
L 209.586777 272.91817 
L 214.214876 272.826685 
L 218.842975 272.734057 
L 223.471074 272.639421 
L 228.099174 272.545381 
L 232.727273 272.456523 
L 237.355372 272.378436 
L 241.983471 272.304483 
L 246.61157 272.232946 
L 251.239669 272.173287 
L 255.867769 272.119217 
L 260.495868 272.060745 
L 265.123967 272.01524 
L 269.752066 271.962292 
L 274.380165 271.900604 
L 279.008264 271.862253 
L 283.636364 271.840986 
L 288.264463 271.825679 
L 292.892562 271.815424 
L 297.520661 271.805695 
L 302.14876 271.790447 
L 306.77686 271.787024 
L 311.404959 271.783856 
L 316.033058 271.781918 
L 320.661157 271.782307 
L 325.289256 271.797369 
L 329.917355 271.799731 
L 334.545455 271.787986 
L 339.173554 271.787296 
L 343.801653 271.809789 
L 348.429752 271.844924 
L 353.057851 271.883552 
L 357.68595 271.921759 
L 362.31405 271.93573 
L 366.942149 271.951753 
L 371.570248 271.976017 
L 376.198347 271.976804 
L 380.826446 271.997017 
L 385.454545 272.052495 
L 390.082645 272.1194 
L 394.710744 272.185171 
L 399.338843 272.247813 
L 403.966942 272.31261 
L 408.595041 272.384773 
L 413.22314 272.448079 
L 417.85124 272.508732 
L 422.479339 272.569715 
L 427.107438 272.61805 
L 431.735537 272.658441 
L 436.363636 272.700306 
L 440.991736 272.746922 
L 445.619835 272.777793 
L 450.247934 272.843105 
L 454.876033 272.862236 
L 459.504132 272.859404 
L 464.132231 272.874671 
L 468.760331 272.903287 
L 473.38843 272.910478 
L 478.016529 272.917965 
L 482.644628 272.920034 
L 487.272727 272.913727 
L 491.900826 272.906273 
L 496.528926 272.876922 
L 501.157025 272.865945 
L 505.785124 272.83986 
L 510.413223 272.807605 
L 515.041322 272.750241 
L 519.669421 272.679054 
L 524.297521 272.601408 
L 528.92562 272.522119 
L 533.553719 272.452537 
L 538.181818 272.308985 
L 542.809917 272.15095 
L 547.438017 272.010417 
L 552.066116 271.874803 
L 556.694215 271.70305 
L 561.322314 271.451703 
L 565.950413 271.176021 
L 570.578512 271.056737 
L 575.206612 270.887942 
L 579.834711 270.585978 
L 584.46281 269.964777 
L 589.090909 267.734333 
" style="fill:none;stroke:#1f77b4;stroke-linecap:square;stroke-width:8;"/>
   </g>
   <g id="line2d_8">
    <path clip-path="url(#p2201c22cbc)" d="M 108 259.2 
L 612 259.2 
" style="fill:none;stroke:#000000;stroke-dasharray:3.2,0.8,0.5,0.8;stroke-dashoffset:0;stroke-width:0.5;"/>
   </g>
   <g id="line2d_9">
    <path clip-path="url(#p2201c22cbc)" d="M 130.909091 279.802627 
L 135.53719 283.88583 
L 140.165289 283.781077 
L 144.793388 284.820623 
L 149.421488 285.108541 
L 154.049587 285.170458 
L 158.677686 285.375189 
L 163.305785 285.549075 
L 167.933884 285.691907 
L 172.561983 285.828951 
L 177.190083 285.932715 
L 181.818182 286.022139 
L 186.446281 286.091094 
L 191.07438 286.154207 
L 195.702479 286.186481 
L 200.330579 286.205114 
L 204.958678 286.21708 
L 209.586777 286.196787 
L 214.214876 286.185885 
L 218.842975 286.131047 
L 223.471074 286.053332 
L 228.099174 285.965376 
L 232.727273 285.955208 
L 237.355372 285.919809 
L 241.983471 285.877234 
L 246.61157 285.805001 
L 251.239669 285.733819 
L 255.867769 285.669025 
L 260.495868 285.58457 
L 265.123967 285.508103 
L 269.752066 285.418878 
L 274.380165 285.282588 
L 279.008264 285.225949 
L 283.636364 285.135455 
L 288.264463 285.045454 
L 292.892562 284.953379 
L 297.520661 284.833006 
L 302.14876 284.760407 
L 306.77686 284.64698 
L 311.404959 284.538317 
L 316.033058 284.395831 
L 320.661157 284.25014 
L 325.289256 284.154406 
L 329.917355 284.067268 
L 334.545455 283.89878 
L 339.173554 283.818027 
L 343.801653 283.695462 
L 348.429752 283.589666 
L 353.057851 283.440398 
L 357.68595 283.320646 
L 362.31405 283.181271 
L 366.942149 283.041556 
L 371.570248 282.95355 
L 376.198347 282.8646 
L 380.826446 282.778305 
L 385.454545 282.707707 
L 390.082645 282.617044 
L 394.710744 282.536273 
L 399.338843 282.423105 
L 403.966942 282.339964 
L 408.595041 282.246052 
L 413.22314 282.144998 
L 417.85124 282.067649 
L 422.479339 281.996862 
L 427.107438 281.915171 
L 431.735537 281.830424 
L 436.363636 281.74107 
L 440.991736 281.661157 
L 445.619835 281.521032 
L 450.247934 281.424085 
L 454.876033 281.270213 
L 459.504132 281.141957 
L 464.132231 280.999525 
L 468.760331 280.879561 
L 473.38843 280.788856 
L 478.016529 280.657606 
L 482.644628 280.528686 
L 487.272727 280.376046 
L 491.900826 280.206232 
L 496.528926 280.067854 
L 501.157025 279.902443 
L 505.785124 279.67962 
L 510.413223 279.453438 
L 515.041322 279.223636 
L 519.669421 279.019257 
L 524.297521 278.806424 
L 528.92562 278.603755 
L 533.553719 278.43148 
L 538.181818 278.190457 
L 542.809917 277.930392 
L 547.438017 277.615836 
L 552.066116 277.289593 
L 556.694215 276.9271 
L 561.322314 276.574617 
L 565.950413 276.18052 
L 570.578512 275.642232 
L 575.206612 275.039531 
L 579.834711 274.43432 
L 584.46281 273.208768 
L 589.090909 269.487696 
" style="fill:none;stroke:#ff7f0e;stroke-linecap:square;stroke-width:8;"/>
   </g>
   <g id="line2d_10">
    <path clip-path="url(#p2201c22cbc)" d="M 108 259.2 
L 612 259.2 
" style="fill:none;stroke:#000000;stroke-dasharray:3.2,0.8,0.5,0.8;stroke-dashoffset:0;stroke-width:0.5;"/>
   </g>
   <g id="line2d_11">
    <path clip-path="url(#p2201c22cbc)" d="M 130.909091 233.100384 
L 135.53719 277.058263 
L 140.165289 281.221346 
L 144.793388 285.869478 
L 149.421488 287.776142 
L 154.049587 288.827288 
L 158.677686 290.015123 
L 163.305785 290.873548 
L 167.933884 291.63492 
L 172.561983 292.261771 
L 177.190083 292.821918 
L 181.818182 293.283572 
L 186.446281 293.663913 
L 191.07438 293.950616 
L 195.702479 294.206926 
L 200.330579 294.413851 
L 204.958678 294.568561 
L 209.586777 294.711478 
L 214.214876 294.817767 
L 218.842975 294.901536 
L 223.471074 294.980315 
L 228.099174 295.011664 
L 232.727273 295.009345 
L 237.355372 295.050844 
L 241.983471 295.029678 
L 246.61157 294.990157 
L 251.239669 294.925161 
L 255.867769 294.871274 
L 260.495868 294.786579 
L 265.123967 294.6805 
L 269.752066 294.554474 
L 274.380165 294.415053 
L 279.008264 294.265552 
L 283.636364 294.104226 
L 288.264463 293.942107 
L 292.892562 293.753065 
L 297.520661 293.56784 
L 302.14876 293.335063 
L 306.77686 293.110722 
L 311.404959 292.852802 
L 316.033058 292.614629 
L 320.661157 292.369773 
L 325.289256 292.100047 
L 329.917355 291.906575 
L 334.545455 291.648554 
L 339.173554 291.398022 
L 343.801653 291.156742 
L 348.429752 290.925357 
L 353.057851 290.674385 
L 357.68595 290.414922 
L 362.31405 290.132369 
L 366.942149 289.891279 
L 371.570248 289.631114 
L 376.198347 289.372694 
L 380.826446 289.103222 
L 385.454545 288.825395 
L 390.082645 288.539992 
L 394.710744 288.283014 
L 399.338843 288.00373 
L 403.966942 287.693174 
L 408.595041 287.430502 
L 413.22314 287.195116 
L 417.85124 287.015142 
L 422.479339 286.793164 
L 427.107438 286.594244 
L 431.735537 286.397837 
L 436.363636 286.206947 
L 440.991736 286.028701 
L 445.619835 285.82272 
L 450.247934 285.685002 
L 454.876033 285.471242 
L 459.504132 285.365037 
L 464.132231 285.187563 
L 468.760331 285.02656 
L 473.38843 284.880295 
L 478.016529 284.734038 
L 482.644628 284.614558 
L 487.272727 284.483135 
L 491.900826 284.351472 
L 496.528926 284.229338 
L 501.157025 284.130282 
L 505.785124 284.021653 
L 510.413223 283.866016 
L 515.041322 283.746781 
L 519.669421 283.61747 
L 524.297521 283.448519 
L 528.92562 283.299037 
L 533.553719 283.289442 
L 538.181818 283.262134 
L 542.809917 283.221863 
L 547.438017 283.182913 
L 552.066116 283.156538 
L 556.694215 283.061346 
L 561.322314 283.034691 
L 565.950413 282.970568 
L 570.578512 282.918918 
L 575.206612 282.954675 
L 579.834711 282.770179 
L 584.46281 282.433886 
L 589.090909 280.246992 
" style="fill:none;stroke:#2ca02c;stroke-linecap:square;stroke-width:8;"/>
   </g>
   <g id="line2d_12">
    <path clip-path="url(#p2201c22cbc)" d="M 108 259.2 
L 612 259.2 
" style="fill:none;stroke:#000000;stroke-dasharray:3.2,0.8,0.5,0.8;stroke-dashoffset:0;stroke-width:0.5;"/>
   </g>
   <g id="line2d_13">
    <path clip-path="url(#p2201c22cbc)" d="M 130.909091 211.87584 
L 135.53719 263.906478 
L 140.165289 273.079986 
L 144.793388 280.435989 
L 149.421488 283.971846 
L 154.049587 286.28129 
L 158.677686 288.030004 
L 163.305785 289.536996 
L 167.933884 290.747248 
L 172.561983 291.755461 
L 177.190083 292.645721 
L 181.818182 293.366092 
L 186.446281 293.918376 
L 191.07438 294.405404 
L 195.702479 294.798637 
L 200.330579 295.102753 
L 204.958678 295.362465 
L 209.586777 295.600282 
L 214.214876 295.832227 
L 218.842975 296.001068 
L 223.471074 296.116042 
L 228.099174 296.239539 
L 232.727273 296.310632 
L 237.355372 296.404892 
L 241.983471 296.446582 
L 246.61157 296.452136 
L 251.239669 296.448256 
L 255.867769 296.419051 
L 260.495868 296.360626 
L 265.123967 296.302332 
L 269.752066 296.211523 
L 274.380165 296.110554 
L 279.008264 296.011616 
L 283.636364 295.900631 
L 288.264463 295.74829 
L 292.892562 295.616226 
L 297.520661 295.441861 
L 302.14876 295.273589 
L 306.77686 295.084439 
L 311.404959 294.90988 
L 316.033058 294.71676 
L 320.661157 294.519477 
L 325.289256 294.311032 
L 329.917355 294.066839 
L 334.545455 293.87388 
L 339.173554 293.645595 
L 343.801653 293.387566 
L 348.429752 293.149698 
L 353.057851 292.967674 
L 357.68595 292.735305 
L 362.31405 292.481116 
L 366.942149 292.232644 
L 371.570248 292.005696 
L 376.198347 291.781276 
L 380.826446 291.581755 
L 385.454545 291.341725 
L 390.082645 291.075828 
L 394.710744 290.878989 
L 399.338843 290.67182 
L 403.966942 290.454786 
L 408.595041 290.210679 
L 413.22314 290.019216 
L 417.85124 289.805123 
L 422.479339 289.626874 
L 427.107438 289.436406 
L 431.735537 289.283494 
L 436.363636 289.111105 
L 440.991736 288.995903 
L 445.619835 288.898476 
L 450.247934 288.779644 
L 454.876033 288.644338 
L 459.504132 288.595525 
L 464.132231 288.553447 
L 468.760331 288.501823 
L 473.38843 288.473361 
L 478.016529 288.468278 
L 482.644628 288.419576 
L 487.272727 288.412107 
L 491.900826 288.493266 
L 496.528926 288.501379 
L 501.157025 288.565898 
L 505.785124 288.62189 
L 510.413223 288.774345 
L 515.041322 288.908297 
L 519.669421 289.09878 
L 524.297521 289.225839 
L 528.92562 289.530817 
L 533.553719 289.823112 
L 538.181818 290.188029 
L 542.809917 290.591997 
L 547.438017 291.085899 
L 552.066116 291.653255 
L 556.694215 292.349735 
L 561.322314 292.74072 
L 565.950413 293.440749 
L 570.578512 294.269572 
L 575.206612 295.410441 
L 579.834711 297.293173 
L 584.46281 298.678184 
L 589.090909 301.683984 
" style="fill:none;stroke:#d62728;stroke-linecap:square;stroke-width:8;"/>
   </g>
   <g id="line2d_14">
    <path clip-path="url(#p2201c22cbc)" d="M 108 259.2 
L 612 259.2 
" style="fill:none;stroke:#000000;stroke-dasharray:3.2,0.8,0.5,0.8;stroke-dashoffset:0;stroke-width:0.5;"/>
   </g>
   <g id="line2d_15">
    <path clip-path="url(#p2201c22cbc)" d="M 130.909091 223.615872 
L 135.53719 259.375471 
L 140.165289 267.926846 
L 144.793388 272.801195 
L 149.421488 276.182186 
L 154.049587 278.119591 
L 158.677686 279.551223 
L 163.305785 280.642278 
L 167.933884 281.677194 
L 172.561983 282.554443 
L 177.190083 283.258348 
L 181.818182 283.850138 
L 186.446281 284.299238 
L 191.07438 284.701585 
L 195.702479 285.027042 
L 200.330579 285.31569 
L 204.958678 285.575395 
L 209.586777 285.81247 
L 214.214876 286.035539 
L 218.842975 286.205835 
L 223.471074 286.38417 
L 228.099174 286.560238 
L 232.727273 286.664283 
L 237.355372 286.768408 
L 241.983471 286.868792 
L 246.61157 286.930432 
L 251.239669 287.012451 
L 255.867769 287.099889 
L 260.495868 287.154725 
L 265.123967 287.193578 
L 269.752066 287.267371 
L 274.380165 287.224948 
L 279.008264 287.245376 
L 283.636364 287.227743 
L 288.264463 287.228045 
L 292.892562 287.256274 
L 297.520661 287.231607 
L 302.14876 287.250346 
L 306.77686 287.240241 
L 311.404959 287.271187 
L 316.033058 287.212508 
L 320.661157 287.184763 
L 325.289256 287.118766 
L 329.917355 287.130771 
L 334.545455 287.115151 
L 339.173554 287.053301 
L 343.801653 287.064385 
L 348.429752 287.0389 
L 353.057851 287.052801 
L 357.68595 287.010476 
L 362.31405 286.959375 
L 366.942149 286.920278 
L 371.570248 286.923042 
L 376.198347 286.954475 
L 380.826446 286.905017 
L 385.454545 286.951467 
L 390.082645 286.987181 
L 394.710744 287.003658 
L 399.338843 287.001324 
L 403.966942 287.02295 
L 408.595041 287.058372 
L 413.22314 287.093739 
L 417.85124 287.181348 
L 422.479339 287.268357 
L 427.107438 287.32488 
L 431.735537 287.495451 
L 436.363636 287.596247 
L 440.991736 287.644607 
L 445.619835 287.807845 
L 450.247934 287.986373 
L 454.876033 288.196178 
L 459.504132 288.352729 
L 464.132231 288.651705 
L 468.760331 288.864102 
L 473.38843 289.186162 
L 478.016529 289.436846 
L 482.644628 289.81086 
L 487.272727 290.212878 
L 491.900826 290.603936 
L 496.528926 291.055483 
L 501.157025 291.532828 
L 505.785124 292.062278 
L 510.413223 292.680019 
L 515.041322 293.29885 
L 519.669421 294.054647 
L 524.297521 294.784912 
L 528.92562 295.617577 
L 533.553719 296.57478 
L 538.181818 297.597229 
L 542.809917 298.77131 
L 547.438017 299.997334 
L 552.066116 301.406897 
L 556.694215 302.608844 
L 561.322314 304.634643 
L 565.950413 306.439004 
L 570.578512 308.762342 
L 575.206612 311.990083 
L 579.834711 315.789067 
L 584.46281 321.059063 
L 589.090909 330.15168 
" style="fill:none;stroke:#9467bd;stroke-linecap:square;stroke-width:8;"/>
   </g>
   <g id="line2d_16">
    <path clip-path="url(#p2201c22cbc)" d="M 108 259.2 
L 612 259.2 
" style="fill:none;stroke:#000000;stroke-dasharray:3.2,0.8,0.5,0.8;stroke-dashoffset:0;stroke-width:0.5;"/>
   </g>
   <g id="line2d_17">
    <path clip-path="url(#p2201c22cbc)" d="M 130.909091 278.78304 
L 135.53719 275.781261 
L 140.165289 272.239764 
L 144.793388 270.775399 
L 149.421488 269.937431 
L 154.049587 269.615912 
L 158.677686 268.905852 
L 163.305785 268.907288 
L 167.933884 268.805493 
L 172.561983 268.71096 
L 177.190083 268.662746 
L 181.818182 268.669517 
L 186.446281 268.662116 
L 191.07438 268.648438 
L 195.702479 268.646545 
L 200.330579 268.611364 
L 204.958678 268.625315 
L 209.586777 268.533109 
L 214.214876 268.559842 
L 218.842975 268.702099 
L 223.471074 268.718052 
L 228.099174 268.734393 
L 232.727273 268.805367 
L 237.355372 268.820551 
L 241.983471 268.879757 
L 246.61157 268.927999 
L 251.239669 268.980459 
L 255.867769 269.060276 
L 260.495868 269.14434 
L 265.123967 269.128263 
L 269.752066 269.191951 
L 274.380165 269.218352 
L 279.008264 269.24813 
L 283.636364 269.323189 
L 288.264463 269.322631 
L 292.892562 269.399409 
L 297.520661 269.472647 
L 302.14876 269.510396 
L 306.77686 269.532595 
L 311.404959 269.6112 
L 316.033058 269.6605 
L 320.661157 269.650117 
L 325.289256 269.713516 
L 329.917355 269.725724 
L 334.545455 269.789451 
L 339.173554 269.790944 
L 343.801653 269.864564 
L 348.429752 269.960746 
L 353.057851 270.053699 
L 357.68595 270.175764 
L 362.31405 270.256217 
L 366.942149 270.293605 
L 371.570248 270.333355 
L 376.198347 270.496144 
L 380.826446 270.621795 
L 385.454545 270.749521 
L 390.082645 270.983517 
L 394.710744 271.090235 
L 399.338843 271.318427 
L 403.966942 271.582347 
L 408.595041 271.700875 
L 413.22314 271.946781 
L 417.85124 272.193626 
L 422.479339 272.511362 
L 427.107438 272.830824 
L 431.735537 273.206247 
L 436.363636 273.551721 
L 440.991736 273.952643 
L 445.619835 274.413441 
L 450.247934 274.939124 
L 454.876033 275.469151 
L 459.504132 275.986654 
L 464.132231 276.623101 
L 468.760331 277.270247 
L 473.38843 278.00402 
L 478.016529 278.766826 
L 482.644628 279.582916 
L 487.272727 280.419876 
L 491.900826 281.410385 
L 496.528926 282.466226 
L 501.157025 283.535514 
L 505.785124 284.736191 
L 510.413223 286.029095 
L 515.041322 287.38374 
L 519.669421 288.920922 
L 524.297521 290.565848 
L 528.92562 292.358661 
L 533.553719 294.225381 
L 538.181818 296.333485 
L 542.809917 298.557024 
L 547.438017 301.048622 
L 552.066116 303.813847 
L 556.694215 306.746016 
L 561.322314 310.097906 
L 565.950413 314.078416 
L 570.578512 319.04293 
L 575.206612 325.771288 
L 579.834711 332.888701 
L 584.46281 342.320138 
L 589.090909 357.17664 
" style="fill:none;stroke:#8c564b;stroke-linecap:square;stroke-width:8;"/>
   </g>
   <g id="line2d_18">
    <path clip-path="url(#p2201c22cbc)" d="M 108 259.2 
L 612 259.2 
" style="fill:none;stroke:#000000;stroke-dasharray:3.2,0.8,0.5,0.8;stroke-dashoffset:0;stroke-width:0.5;"/>
   </g>
   <g id="patch_3">
    <path d="M 108 403.2 
L 108 115.2 
" style="fill:none;stroke:#000000;stroke-linecap:square;stroke-linejoin:miter;stroke-width:0.8;"/>
   </g>
   <g id="patch_4">
    <path d="M 612 403.2 
L 612 115.2 
" style="fill:none;stroke:#000000;stroke-linecap:square;stroke-linejoin:miter;stroke-width:0.8;"/>
   </g>
   <g id="patch_5">
    <path d="M 108 403.2 
L 612 403.2 
" style="fill:none;stroke:#000000;stroke-linecap:square;stroke-linejoin:miter;stroke-width:0.8;"/>
   </g>
   <g id="patch_6">
    <path d="M 108 115.2 
L 612 115.2 
" style="fill:none;stroke:#000000;stroke-linecap:square;stroke-linejoin:miter;stroke-width:0.8;"/>
   </g>
   <g id="text_5">
    <!-- $\^t = 0.05$ -->
    <g transform="translate(599.19 268.984688)scale(0.42 -0.42)">
     <defs>
      <path d="M -7.5 50.703125 
L -10.90625 50.703125 
L -23.09375 61 
L -35.203125 50.703125 
L -38.59375 50.703125 
L -26.203125 67.40625 
L -20 67.40625 
z
" id="STIXGeneral-Regular-770"/>
      <path d="M 29.59375 42.796875 
L 29.09375 39.59375 
L 20.703125 39.59375 
L 12 6.796875 
Q 11.796875 6 11.796875 5.40625 
Q 11.796875 3.796875 13.296875 3.796875 
Q 14.5 3.796875 16.09375 5.34375 
Q 17.703125 6.90625 21.40625 11.703125 
L 22.703125 11 
Q 18.09375 4 15.140625 1.453125 
Q 12.203125 -1.09375 8.40625 -1.09375 
Q 3.796875 -1.09375 3.796875 2.59375 
Q 3.796875 3.59375 5.40625 10 
L 13.203125 39.59375 
L 5.703125 39.59375 
L 5.59375 40.203125 
Q 5.59375 42 8.90625 42.703125 
Q 11.40625 43.296875 15.5 46.546875 
Q 19.59375 49.796875 22.203125 53.703125 
Q 22.796875 54.59375 23.59375 54.59375 
Q 24.5 54.59375 24.5 53.796875 
Q 24.5 53.296875 24.40625 53.09375 
L 21.59375 42.796875 
z
" id="STIXGeneral-Italic-116"/>
      <path d="M 63.703125 32 
L 4.796875 32 
L 4.796875 38.59375 
L 63.703125 38.59375 
z
M 63.703125 12 
L 4.796875 12 
L 4.796875 18.59375 
L 63.703125 18.59375 
z
" id="STIXGeneral-Regular-61"/>
      <path d="M 18.09375 4.296875 
Q 18.09375 2.09375 16.4375 0.5 
Q 14.796875 -1.09375 12.5 -1.09375 
Q 10.203125 -1.09375 8.59375 0.5 
Q 7 2.09375 7 4.390625 
Q 7 6.703125 8.640625 8.34375 
Q 10.296875 10 12.59375 10 
Q 14.796875 10 16.4375 8.296875 
Q 18.09375 6.59375 18.09375 4.296875 
z
" id="STIXGeneral-Regular-46"/>
      <path d="M 43.796875 68.09375 
L 40.203125 59.59375 
Q 39.59375 58.296875 37.5 58.296875 
L 18.09375 58.296875 
L 14.09375 49.796875 
Q 25.09375 47.703125 30 45.25 
Q 34.90625 42.796875 39.09375 37 
Q 42.59375 32.203125 42.59375 24.296875 
Q 42.59375 17.09375 40.25 12.1875 
Q 37.90625 7.296875 32.796875 3.5 
Q 26 -1.40625 15.796875 -1.40625 
Q 10.09375 -1.40625 6.59375 0.296875 
Q 3.09375 2 3.09375 4.796875 
Q 3.09375 8.59375 7.59375 8.59375 
Q 11.203125 8.59375 15 5.5 
Q 18.90625 2.296875 22.09375 2.296875 
Q 27.296875 2.296875 31.4375 7.5 
Q 35.59375 12.703125 35.59375 19.203125 
Q 35.59375 28.796875 28.90625 34.203125 
Q 20.203125 41.203125 7.59375 41.203125 
Q 6.40625 41.203125 6.40625 42 
L 6.5 42.5 
L 17.40625 66.203125 
L 38.09375 66.203125 
Q 39.796875 66.203125 40.75 66.703125 
Q 41.703125 67.203125 42.90625 68.796875 
z
" id="STIXGeneral-Regular-53"/>
     </defs>
     <use transform="translate(39.042969 16.59375)" xlink:href="#STIXGeneral-Regular-770"/>
     <use transform="translate(0 0.203125)" xlink:href="#STIXGeneral-Italic-116"/>
     <use transform="translate(42.239984 0.203125)" xlink:href="#STIXGeneral-Regular-61"/>
     <use transform="translate(125.179965 0.203125)" xlink:href="#STIXGeneral-Regular-48"/>
     <use transform="translate(175.17995 0.203125)" xlink:href="#STIXGeneral-Regular-46"/>
     <use transform="translate(200.179935 0.203125)" xlink:href="#STIXGeneral-Regular-48"/>
     <use transform="translate(250.179919 0.203125)" xlink:href="#STIXGeneral-Regular-53"/>
    </g>
   </g>
   <g id="legend_1">
    <g id="line2d_19">
     <path d="M 87.45906 158.9325 
L 157.43106 158.9325 
" style="fill:none;stroke:#1f77b4;stroke-linecap:square;stroke-width:8;"/>
    </g>
    <g id="line2d_20"/>
    <g id="text_6">
     <!-- r/c = 0.52 -->
     <g transform="translate(185.41986 171.1776)scale(0.34986 -0.34986)">
      <defs>
       <path d="M 16 45.796875 
L 16 36.59375 
Q 19.796875 42 22.34375 44 
Q 24.90625 46 28 46 
Q 30.59375 46 32.046875 44.59375 
Q 33.5 43.203125 33.5 40.703125 
Q 33.5 38.59375 32.453125 37.390625 
Q 31.40625 36.203125 29.59375 36.203125 
Q 27.703125 36.203125 25.59375 38.203125 
Q 24 39.703125 23 39.703125 
Q 20.90625 39.703125 18.453125 36.796875 
Q 16 33.90625 16 31.5 
L 16 9 
Q 16 4.703125 17.703125 3.203125 
Q 19.40625 1.703125 24.5 1.5 
L 24.5 0 
L 0.5 0 
L 0.5 1.5 
Q 5.296875 2.40625 6.4375 3.5 
Q 7.59375 4.59375 7.59375 8.40625 
L 7.59375 33.40625 
Q 7.59375 36.703125 6.84375 38.046875 
Q 6.09375 39.40625 4.203125 39.40625 
Q 2.59375 39.40625 0.703125 39 
L 0.703125 40.59375 
Q 7 42.59375 15.5 46 
z
" id="STIXGeneral-Regular-114"/>
       <path d="M 28.703125 67.59375 
L 5.90625 -1.40625 
L -0.90625 -1.40625 
L 22 67.59375 
z
" id="STIXGeneral-Regular-47"/>
       <path d="M 39.796875 15.59375 
L 41.203125 14.703125 
Q 36.90625 6.296875 33 3.203125 
Q 27.90625 -1 21.5 -1 
Q 13.203125 -1 7.84375 5.25 
Q 2.5 11.5 2.5 21.203125 
Q 2.5 33.90625 10.90625 40.90625 
Q 17.09375 46 24.40625 46 
Q 30.703125 46 35.25 42.953125 
Q 39.796875 39.90625 39.796875 35.703125 
Q 39.796875 34 38.390625 32.75 
Q 37 31.5 35.09375 31.5 
Q 31.59375 31.5 30.296875 36.09375 
L 29.703125 38.296875 
Q 28.90625 41.09375 27.703125 42.09375 
Q 26.5 43.09375 23.796875 43.09375 
Q 17.703125 43.09375 13.953125 38.296875 
Q 10.203125 33.5 10.203125 25.703125 
Q 10.203125 17.09375 14.5 11.640625 
Q 18.796875 6.203125 25.703125 6.203125 
Q 30 6.203125 33.09375 8.25 
Q 36.203125 10.296875 39.796875 15.59375 
z
" id="STIXGeneral-Regular-99"/>
       <path id="STIXGeneral-Regular-32"/>
      </defs>
      <use xlink:href="#STIXGeneral-Regular-114"/>
      <use x="33.299988" xlink:href="#STIXGeneral-Regular-47"/>
      <use x="61.099976" xlink:href="#STIXGeneral-Regular-99"/>
      <use x="105.499969" xlink:href="#STIXGeneral-Regular-32"/>
      <use x="130.499954" xlink:href="#STIXGeneral-Regular-61"/>
      <use x="198.999939" xlink:href="#STIXGeneral-Regular-32"/>
      <use x="223.999924" xlink:href="#STIXGeneral-Regular-48"/>
      <use x="273.999908" xlink:href="#STIXGeneral-Regular-46"/>
      <use x="298.999893" xlink:href="#STIXGeneral-Regular-53"/>
      <use x="348.999878" xlink:href="#STIXGeneral-Regular-50"/>
     </g>
    </g>
    <g id="line2d_21">
     <path d="M 87.45906 208.508755 
L 157.43106 208.508755 
" style="fill:none;stroke:#ff7f0e;stroke-linecap:square;stroke-width:8;"/>
    </g>
    <g id="line2d_22"/>
    <g id="text_7">
     <!-- r/c = 1.04 -->
     <g transform="translate(185.41986 220.753855)scale(0.34986 -0.34986)">
      <defs>
       <path d="M 39.40625 0 
L 11.796875 0 
L 11.796875 1.5 
Q 17.296875 1.796875 19.296875 3.546875 
Q 21.296875 5.296875 21.296875 9.5 
L 21.296875 54.40625 
Q 21.296875 59.296875 18.296875 59.296875 
Q 16.90625 59.296875 13.796875 58.09375 
L 11.09375 57.09375 
L 11.09375 58.5 
L 29 67.59375 
L 29.90625 67.296875 
L 29.90625 7.59375 
Q 29.90625 4.296875 31.90625 2.890625 
Q 33.90625 1.5 39.40625 1.5 
z
" id="STIXGeneral-Regular-49"/>
       <path d="M 47.296875 16.703125 
L 37 16.703125 
L 37 0 
L 29.203125 0 
L 29.203125 16.703125 
L 1.203125 16.703125 
L 1.203125 23.09375 
L 32.59375 67.59375 
L 37 67.59375 
L 37 23.09375 
L 47.296875 23.09375 
z
M 29.203125 23.09375 
L 29.203125 57.40625 
L 5.203125 23.09375 
z
" id="STIXGeneral-Regular-52"/>
      </defs>
      <use xlink:href="#STIXGeneral-Regular-114"/>
      <use x="33.299988" xlink:href="#STIXGeneral-Regular-47"/>
      <use x="61.099976" xlink:href="#STIXGeneral-Regular-99"/>
      <use x="105.499969" xlink:href="#STIXGeneral-Regular-32"/>
      <use x="130.499954" xlink:href="#STIXGeneral-Regular-61"/>
      <use x="198.999939" xlink:href="#STIXGeneral-Regular-32"/>
      <use x="223.999924" xlink:href="#STIXGeneral-Regular-49"/>
      <use x="273.999908" xlink:href="#STIXGeneral-Regular-46"/>
      <use x="298.999893" xlink:href="#STIXGeneral-Regular-48"/>
      <use x="348.999878" xlink:href="#STIXGeneral-Regular-52"/>
     </g>
    </g>
    <g id="line2d_23">
     <path d="M 87.45906 258.085011 
L 157.43106 258.085011 
" style="fill:none;stroke:#2ca02c;stroke-linecap:square;stroke-width:8;"/>
    </g>
    <g id="line2d_24"/>
    <g id="text_8">
     <!-- r/c = 1.56 -->
     <g transform="translate(185.41986 270.330111)scale(0.34986 -0.34986)">
      <defs>
       <path d="M 44.59375 68.40625 
L 44.796875 66.796875 
Q 33 64.90625 25.09375 57.25 
Q 17.203125 49.59375 15.203125 38.296875 
Q 21 42.796875 27.90625 42.796875 
Q 36.703125 42.796875 41.75 37.1875 
Q 46.796875 31.59375 46.796875 21.90625 
Q 46.796875 12.09375 41.703125 5.90625 
Q 35.796875 -1.40625 25.796875 -1.40625 
Q 13.59375 -1.40625 8.09375 8.703125 
Q 3.40625 17.296875 3.40625 27.90625 
Q 3.40625 44.296875 14.296875 55.5 
Q 20.5 61.90625 27.046875 64.546875 
Q 33.59375 67.203125 44.59375 68.40625 
z
M 37.796875 18.796875 
Q 37.796875 38.203125 24.296875 38.203125 
Q 19.296875 38.203125 16 35.546875 
Q 12.703125 32.90625 12.703125 26.59375 
Q 12.703125 14.90625 16.34375 8.15625 
Q 20 1.40625 26.90625 1.40625 
Q 32.203125 1.40625 35 6.15625 
Q 37.796875 10.90625 37.796875 18.796875 
z
" id="STIXGeneral-Regular-54"/>
      </defs>
      <use xlink:href="#STIXGeneral-Regular-114"/>
      <use x="33.299988" xlink:href="#STIXGeneral-Regular-47"/>
      <use x="61.099976" xlink:href="#STIXGeneral-Regular-99"/>
      <use x="105.499969" xlink:href="#STIXGeneral-Regular-32"/>
      <use x="130.499954" xlink:href="#STIXGeneral-Regular-61"/>
      <use x="198.999939" xlink:href="#STIXGeneral-Regular-32"/>
      <use x="223.999924" xlink:href="#STIXGeneral-Regular-49"/>
      <use x="273.999908" xlink:href="#STIXGeneral-Regular-46"/>
      <use x="298.999893" xlink:href="#STIXGeneral-Regular-53"/>
      <use x="348.999878" xlink:href="#STIXGeneral-Regular-54"/>
     </g>
    </g>
    <g id="line2d_25">
     <path d="M 394.986 158.9325 
L 464.958 158.9325 
" style="fill:none;stroke:#d62728;stroke-linecap:square;stroke-width:8;"/>
    </g>
    <g id="line2d_26"/>
    <g id="text_9">
     <!-- r/c = 2.08 -->
     <g transform="translate(492.9468 171.1776)scale(0.34986 -0.34986)">
      <defs>
       <path d="M 44.5 15.5 
Q 44.5 7.796875 39.140625 3.1875 
Q 33.796875 -1.40625 24.796875 -1.40625 
Q 16.40625 -1.40625 11 3.1875 
Q 5.59375 7.796875 5.59375 14.90625 
Q 5.59375 20.203125 8.1875 23.953125 
Q 10.796875 27.703125 18.59375 33.203125 
Q 11.09375 39.40625 8.640625 43.203125 
Q 6.203125 47 6.203125 52 
Q 6.203125 59.09375 11.640625 63.34375 
Q 17.09375 67.59375 25.59375 67.59375 
Q 32.90625 67.59375 37.65625 63.4375 
Q 42.40625 59.296875 42.40625 53.296875 
Q 42.40625 47.796875 39.546875 44.5 
Q 36.703125 41.203125 29 37.09375 
Q 38 31.09375 41.25 26.390625 
Q 44.5 21.703125 44.5 15.5 
z
M 35.5 53.296875 
Q 35.5 58.5 32.59375 61.640625 
Q 29.703125 64.796875 24.59375 64.796875 
Q 19.5 64.796875 16.546875 62.140625 
Q 13.59375 59.5 13.59375 54.890625 
Q 13.59375 50.296875 16.546875 46.546875 
Q 19.5 42.796875 26.09375 38.90625 
Q 31.203125 41.90625 33.34375 45.25 
Q 35.5 48.59375 35.5 53.296875 
z
M 27.09375 27.203125 
L 21.203125 31.203125 
Q 16.796875 27.59375 15 24.140625 
Q 13.203125 20.703125 13.203125 15.796875 
Q 13.203125 9 16.640625 5.203125 
Q 20.09375 1.40625 25.90625 1.40625 
Q 30.796875 1.40625 33.84375 4.453125 
Q 36.90625 7.5 36.90625 12.40625 
Q 36.90625 16.90625 34.59375 20.296875 
Q 32.296875 23.703125 27.09375 27.203125 
z
" id="STIXGeneral-Regular-56"/>
      </defs>
      <use xlink:href="#STIXGeneral-Regular-114"/>
      <use x="33.299988" xlink:href="#STIXGeneral-Regular-47"/>
      <use x="61.099976" xlink:href="#STIXGeneral-Regular-99"/>
      <use x="105.499969" xlink:href="#STIXGeneral-Regular-32"/>
      <use x="130.499954" xlink:href="#STIXGeneral-Regular-61"/>
      <use x="198.999939" xlink:href="#STIXGeneral-Regular-32"/>
      <use x="223.999924" xlink:href="#STIXGeneral-Regular-50"/>
      <use x="273.999908" xlink:href="#STIXGeneral-Regular-46"/>
      <use x="298.999893" xlink:href="#STIXGeneral-Regular-48"/>
      <use x="348.999878" xlink:href="#STIXGeneral-Regular-56"/>
     </g>
    </g>
    <g id="line2d_27">
     <path d="M 394.986 208.508755 
L 464.958 208.508755 
" style="fill:none;stroke:#9467bd;stroke-linecap:square;stroke-width:8;"/>
    </g>
    <g id="line2d_28"/>
    <g id="text_10">
     <!-- r/c = 2.60 -->
     <g transform="translate(492.9468 220.753855)scale(0.34986 -0.34986)">
      <use xlink:href="#STIXGeneral-Regular-114"/>
      <use x="33.299988" xlink:href="#STIXGeneral-Regular-47"/>
      <use x="61.099976" xlink:href="#STIXGeneral-Regular-99"/>
      <use x="105.499969" xlink:href="#STIXGeneral-Regular-32"/>
      <use x="130.499954" xlink:href="#STIXGeneral-Regular-61"/>
      <use x="198.999939" xlink:href="#STIXGeneral-Regular-32"/>
      <use x="223.999924" xlink:href="#STIXGeneral-Regular-50"/>
      <use x="273.999908" xlink:href="#STIXGeneral-Regular-46"/>
      <use x="298.999893" xlink:href="#STIXGeneral-Regular-54"/>
      <use x="348.999878" xlink:href="#STIXGeneral-Regular-48"/>
     </g>
    </g>
    <g id="line2d_29">
     <path d="M 394.986 258.085011 
L 464.958 258.085011 
" style="fill:none;stroke:#8c564b;stroke-linecap:square;stroke-width:8;"/>
    </g>
    <g id="line2d_30"/>
    <g id="text_11">
     <!-- r/c = 3.12 -->
     <g transform="translate(492.9468 270.330111)scale(0.34986 -0.34986)">
      <defs>
       <path d="M 6.09375 51 
L 4.5 51.40625 
Q 6.796875 58.90625 11.6875 63.25 
Q 16.59375 67.59375 24.09375 67.59375 
Q 31.09375 67.59375 35.390625 63.796875 
Q 39.703125 60 39.703125 53.90625 
Q 39.703125 45.703125 30.40625 40.09375 
Q 35.90625 37.703125 38.703125 34.796875 
Q 43.09375 29.90625 43.09375 21.90625 
Q 43.09375 13.90625 38.5 7.90625 
Q 35.09375 3.296875 28.75 0.9375 
Q 22.40625 -1.40625 15.296875 -1.40625 
Q 4.09375 -1.40625 4.09375 4.296875 
Q 4.09375 5.90625 5.296875 6.90625 
Q 6.5 7.90625 8.203125 7.90625 
Q 10.703125 7.90625 14.296875 5.296875 
Q 18.703125 2.203125 22.90625 2.203125 
Q 28.40625 2.203125 32.15625 6.640625 
Q 35.90625 11.09375 35.90625 17.5 
Q 35.90625 29 25.5 32 
Q 22.40625 33 15.296875 33 
L 15.296875 34.40625 
Q 20.90625 36.296875 23.703125 38 
Q 31.796875 42.59375 31.796875 51.40625 
Q 31.796875 56.40625 28.9375 59 
Q 26.09375 61.59375 21 61.59375 
Q 12 61.59375 6.09375 51 
z
" id="STIXGeneral-Regular-51"/>
      </defs>
      <use xlink:href="#STIXGeneral-Regular-114"/>
      <use x="33.299988" xlink:href="#STIXGeneral-Regular-47"/>
      <use x="61.099976" xlink:href="#STIXGeneral-Regular-99"/>
      <use x="105.499969" xlink:href="#STIXGeneral-Regular-32"/>
      <use x="130.499954" xlink:href="#STIXGeneral-Regular-61"/>
      <use x="198.999939" xlink:href="#STIXGeneral-Regular-32"/>
      <use x="223.999924" xlink:href="#STIXGeneral-Regular-51"/>
      <use x="273.999908" xlink:href="#STIXGeneral-Regular-46"/>
      <use x="298.999893" xlink:href="#STIXGeneral-Regular-49"/>
      <use x="348.999878" xlink:href="#STIXGeneral-Regular-50"/>
     </g>
    </g>
   </g>
  </g>
  <g id="axes_2">
   <g id="patch_7">
    <path d="M 108 720 
L 612 720 
L 612 432 
L 108 432 
z
" style="fill:#ffffff;"/>
   </g>
   <g id="matplotlib.axis_3">
    <g id="xtick_4">
     <g id="line2d_31">
      <g>
       <use style="fill:#ffffff;stroke:#000000;stroke-width:0.8;" x="130.909091" xlink:href="#m9421cd8359" y="720"/>
      </g>
     </g>
    </g>
    <g id="xtick_5">
     <g id="line2d_32">
      <g>
       <use style="fill:#ffffff;stroke:#000000;stroke-width:0.8;" x="360" xlink:href="#m9421cd8359" y="720"/>
      </g>
     </g>
    </g>
    <g id="xtick_6">
     <g id="line2d_33">
      <g>
       <use style="fill:#ffffff;stroke:#000000;stroke-width:0.8;" x="589.090909" xlink:href="#m9421cd8359" y="720"/>
      </g>
     </g>
    </g>
   </g>
   <g id="matplotlib.axis_4">
    <g id="ytick_4">
     <g id="line2d_34">
      <g>
       <use style="fill:#ffffff;stroke:#000000;stroke-width:0.8;" x="108" xlink:href="#md9846df092" y="672"/>
      </g>
     </g>
     <g id="text_12">
      <!-- −2 -->
      <g transform="translate(51.23 686.342344)scale(0.42 -0.42)">
       <use xlink:href="#STIXGeneral-Regular-8722"/>
       <use x="68.499985" xlink:href="#STIXGeneral-Regular-50"/>
      </g>
     </g>
    </g>
    <g id="ytick_5">
     <g id="line2d_35">
      <g>
       <use style="fill:#ffffff;stroke:#000000;stroke-width:0.8;" x="108" xlink:href="#md9846df092" y="576"/>
      </g>
     </g>
     <g id="text_13">
      <!-- 0 -->
      <g transform="translate(80 590.342344)scale(0.42 -0.42)">
       <use xlink:href="#STIXGeneral-Regular-48"/>
      </g>
     </g>
    </g>
    <g id="ytick_6">
     <g id="line2d_36">
      <g>
       <use style="fill:#ffffff;stroke:#000000;stroke-width:0.8;" x="108" xlink:href="#md9846df092" y="480"/>
      </g>
     </g>
     <g id="text_14">
      <!-- 2 -->
      <g transform="translate(80 494.342344)scale(0.42 -0.42)">
       <use xlink:href="#STIXGeneral-Regular-50"/>
      </g>
     </g>
    </g>
    <g id="text_15">
     <!-- Cp -->
     <g transform="translate(38.114688 600.507656)rotate(-90)scale(0.42 -0.42)">
      <use xlink:href="#STIXGeneral-Regular-67"/>
      <use x="66.699997" xlink:href="#STIXGeneral-Regular-112"/>
     </g>
    </g>
   </g>
   <g id="line2d_37">
    <path clip-path="url(#pbeb595e1ed)" d="M 130.909091 559.446298 
L 135.53719 570.938361 
L 140.165289 572.738507 
L 144.793388 572.405553 
L 149.421488 571.724474 
L 154.049587 572.289 
L 158.677686 572.209435 
L 163.305785 572.113991 
L 167.933884 572.053542 
L 172.561983 571.984276 
L 177.190083 571.95239 
L 181.818182 571.901208 
L 186.446281 571.862847 
L 191.07438 571.825471 
L 195.702479 571.789875 
L 200.330579 571.755554 
L 204.958678 571.722396 
L 209.586777 571.689511 
L 214.214876 571.65621 
L 218.842975 571.622045 
L 223.471074 571.588693 
L 228.099174 571.557185 
L 232.727273 571.526104 
L 237.355372 571.494658 
L 241.983471 571.462144 
L 246.61157 571.428498 
L 251.239669 571.394308 
L 255.867769 571.359836 
L 260.495868 571.324394 
L 265.123967 571.287408 
L 269.752066 571.246888 
L 274.380165 571.205953 
L 279.008264 571.170475 
L 283.636364 571.140618 
L 288.264463 571.112442 
L 292.892562 571.084904 
L 297.520661 571.056742 
L 302.14876 571.028365 
L 306.77686 570.999783 
L 311.404959 570.971966 
L 316.033058 570.945154 
L 320.661157 570.918947 
L 325.289256 570.89314 
L 329.917355 570.866715 
L 334.545455 570.839247 
L 339.173554 570.814865 
L 343.801653 570.794597 
L 348.429752 570.77985 
L 353.057851 570.766606 
L 357.68595 570.747837 
L 362.31405 570.724018 
L 366.942149 570.708281 
L 371.570248 570.678801 
L 376.198347 570.650261 
L 380.826446 570.635707 
L 385.454545 570.633822 
L 390.082645 570.646163 
L 394.710744 570.664855 
L 399.338843 570.677535 
L 403.966942 570.685989 
L 408.595041 570.695401 
L 413.22314 570.707576 
L 417.85124 570.72265 
L 422.479339 570.739186 
L 427.107438 570.756901 
L 431.735537 570.776012 
L 436.363636 570.797627 
L 440.991736 570.822173 
L 445.619835 570.848811 
L 450.247934 570.878225 
L 454.876033 570.906942 
L 459.504132 570.936171 
L 464.132231 570.967959 
L 468.760331 571.005893 
L 473.38843 571.050221 
L 478.016529 571.09942 
L 482.644628 571.151468 
L 487.272727 571.206847 
L 491.900826 571.267483 
L 496.528926 571.335268 
L 501.157025 571.409181 
L 505.785124 571.487515 
L 510.413223 571.56989 
L 515.041322 571.657062 
L 519.669421 571.749461 
L 524.297521 571.847157 
L 528.92562 571.950648 
L 533.553719 572.06906 
L 538.181818 572.16767 
L 542.809917 572.265829 
L 547.438017 572.407389 
L 552.066116 572.602231 
L 556.694215 572.735666 
L 561.322314 572.950654 
L 565.950413 573.3729 
L 570.578512 573.588522 
L 575.206612 573.808918 
L 579.834711 574.319588 
L 584.46281 574.944513 
L 589.090909 576.46992 
" style="fill:none;stroke:#1f77b4;stroke-linecap:square;stroke-width:8;"/>
   </g>
   <g id="line2d_38">
    <path clip-path="url(#pbeb595e1ed)" d="M 108 576 
L 612 576 
" style="fill:none;stroke:#000000;stroke-dasharray:3.2,0.8,0.5,0.8;stroke-dashoffset:0;stroke-width:0.5;"/>
   </g>
   <g id="line2d_39">
    <path clip-path="url(#pbeb595e1ed)" d="M 130.909091 556.619856 
L 135.53719 564.574582 
L 140.165289 566.330436 
L 144.793388 568.95377 
L 149.421488 569.95537 
L 154.049587 570.578381 
L 158.677686 571.143552 
L 163.305785 571.685475 
L 167.933884 572.101047 
L 172.561983 572.453675 
L 177.190083 572.755367 
L 181.818182 573.017577 
L 186.446281 573.247856 
L 191.07438 573.451815 
L 195.702479 573.636583 
L 200.330579 573.806508 
L 204.958678 573.970204 
L 209.586777 574.133507 
L 214.214876 574.256643 
L 218.842975 574.321731 
L 223.471074 574.367538 
L 228.099174 574.413715 
L 232.727273 574.525431 
L 237.355372 574.624259 
L 241.983471 574.706869 
L 246.61157 574.784653 
L 251.239669 574.866279 
L 255.867769 574.95783 
L 260.495868 575.037538 
L 265.123967 575.06523 
L 269.752066 575.084846 
L 274.380165 575.101138 
L 279.008264 575.183439 
L 283.636364 575.268213 
L 288.264463 575.341004 
L 292.892562 575.40913 
L 297.520661 575.482977 
L 302.14876 575.568805 
L 306.77686 575.659628 
L 311.404959 575.704837 
L 316.033058 575.739137 
L 320.661157 575.770136 
L 325.289256 575.860665 
L 329.917355 575.973682 
L 334.545455 576.113738 
L 339.173554 576.185469 
L 343.801653 576.287804 
L 348.429752 576.399048 
L 353.057851 576.519534 
L 357.68595 576.598094 
L 362.31405 576.656811 
L 366.942149 576.710259 
L 371.570248 576.810881 
L 376.198347 576.94747 
L 380.826446 577.081802 
L 385.454545 577.214675 
L 390.082645 577.352587 
L 394.710744 577.50399 
L 399.338843 577.674925 
L 403.966942 577.819 
L 408.595041 577.933251 
L 413.22314 578.042608 
L 417.85124 578.174417 
L 422.479339 578.357917 
L 427.107438 578.539017 
L 431.735537 578.718559 
L 436.363636 578.905972 
L 440.991736 579.111544 
L 445.619835 579.347482 
L 450.247934 579.575377 
L 454.876033 579.736549 
L 459.504132 579.887549 
L 464.132231 580.059278 
L 468.760331 580.312947 
L 473.38843 580.570201 
L 478.016529 580.820663 
L 482.644628 581.073085 
L 487.272727 581.339189 
L 491.900826 581.626672 
L 496.528926 581.930667 
L 501.157025 582.185675 
L 505.785124 582.435451 
L 510.413223 582.688844 
L 515.041322 583.0008 
L 519.669421 583.338947 
L 524.297521 583.685859 
L 528.92562 584.04207 
L 533.553719 584.402145 
L 538.181818 584.765218 
L 542.809917 585.131565 
L 547.438017 585.501318 
L 552.066116 585.871042 
L 556.694215 586.378646 
L 561.322314 586.643648 
L 565.950413 587.125866 
L 570.578512 587.605244 
L 575.206612 588.482247 
L 579.834711 588.024175 
L 584.46281 588.74537 
L 589.090909 588.741888 
" style="fill:none;stroke:#ff7f0e;stroke-linecap:square;stroke-width:8;"/>
   </g>
   <g id="line2d_40">
    <path clip-path="url(#pbeb595e1ed)" d="M 108 576 
L 612 576 
" style="fill:none;stroke:#000000;stroke-dasharray:3.2,0.8,0.5,0.8;stroke-dashoffset:0;stroke-width:0.5;"/>
   </g>
   <g id="line2d_41">
    <path clip-path="url(#pbeb595e1ed)" d="M 130.909091 489.250368 
L 135.53719 540.856921 
L 140.165289 551.127285 
L 144.793388 560.026188 
L 149.421488 563.962444 
L 154.049587 566.153236 
L 158.677686 568.321677 
L 163.305785 569.856741 
L 167.933884 571.165098 
L 172.561983 572.262634 
L 177.190083 573.186708 
L 181.818182 573.981945 
L 186.446281 574.676493 
L 191.07438 575.290669 
L 195.702479 575.84701 
L 200.330579 576.350797 
L 204.958678 576.806955 
L 209.586777 577.222494 
L 214.214876 577.606252 
L 218.842975 577.962019 
L 223.471074 578.281808 
L 228.099174 578.574155 
L 232.727273 578.857273 
L 237.355372 579.135706 
L 241.983471 579.399226 
L 246.61157 579.6493 
L 251.239669 579.890774 
L 255.867769 580.127151 
L 260.495868 580.358555 
L 265.123967 580.576529 
L 269.752066 580.795502 
L 274.380165 581.034206 
L 279.008264 581.264018 
L 283.636364 581.424478 
L 288.264463 581.537301 
L 292.892562 581.64232 
L 297.520661 581.837349 
L 302.14876 582.068057 
L 306.77686 582.278687 
L 311.404959 582.472488 
L 316.033058 582.669021 
L 320.661157 582.871375 
L 325.289256 583.098769 
L 329.917355 583.251303 
L 334.545455 583.433882 
L 339.173554 583.617585 
L 343.801653 583.801996 
L 348.429752 583.975791 
L 353.057851 584.140759 
L 357.68595 584.311644 
L 362.31405 584.494894 
L 366.942149 584.679781 
L 371.570248 584.865494 
L 376.198347 585.054294 
L 380.826446 585.248656 
L 385.454545 585.44768 
L 390.082645 585.635943 
L 394.710744 585.813812 
L 399.338843 585.998614 
L 403.966942 586.198153 
L 408.595041 586.406366 
L 413.22314 586.619016 
L 417.85124 586.834332 
L 422.479339 587.054503 
L 427.107438 587.277125 
L 431.735537 587.488655 
L 436.363636 587.688451 
L 440.991736 587.893027 
L 445.619835 588.108441 
L 450.247934 588.323858 
L 454.876033 588.537654 
L 459.504132 588.75269 
L 464.132231 588.971489 
L 468.760331 589.193489 
L 473.38843 589.404148 
L 478.016529 589.601714 
L 482.644628 589.802995 
L 487.272727 590.01141 
L 491.900826 590.21668 
L 496.528926 590.416659 
L 501.157025 590.613263 
L 505.785124 590.807346 
L 510.413223 590.997854 
L 515.041322 591.171499 
L 519.669421 591.327091 
L 524.297521 591.477016 
L 528.92562 591.637932 
L 533.553719 591.81909 
L 538.181818 591.991916 
L 542.809917 592.14028 
L 547.438017 592.257442 
L 552.066116 592.33632 
L 556.694215 592.37468 
L 561.322314 592.379176 
L 565.950413 592.368773 
L 570.578512 592.127338 
L 575.206612 592.000377 
L 579.834711 591.412107 
L 584.46281 590.395163 
L 589.090909 586.39392 
" style="fill:none;stroke:#2ca02c;stroke-linecap:square;stroke-width:8;"/>
   </g>
   <g id="line2d_42">
    <path clip-path="url(#pbeb595e1ed)" d="M 108 576 
L 612 576 
" style="fill:none;stroke:#000000;stroke-dasharray:3.2,0.8,0.5,0.8;stroke-dashoffset:0;stroke-width:0.5;"/>
   </g>
   <g id="line2d_43">
    <path clip-path="url(#pbeb595e1ed)" d="M 130.909091 463.976976 
L 135.53719 523.676043 
L 140.165289 540.422542 
L 144.793388 552.478453 
L 149.421488 558.329766 
L 154.049587 562.19983 
L 158.677686 565.228507 
L 163.305785 567.727312 
L 167.933884 569.777875 
L 172.561983 571.49187 
L 177.190083 572.9508 
L 181.818182 574.207958 
L 186.446281 575.306044 
L 191.07438 576.285534 
L 195.702479 577.179137 
L 200.330579 577.989333 
L 204.958678 578.725066 
L 209.586777 579.399524 
L 214.214876 580.023776 
L 218.842975 580.605003 
L 223.471074 581.146356 
L 228.099174 581.653139 
L 232.727273 582.131092 
L 237.355372 582.583735 
L 241.983471 583.013674 
L 246.61157 583.422011 
L 251.239669 583.814094 
L 255.867769 584.190537 
L 260.495868 584.552626 
L 265.123967 584.897107 
L 269.752066 585.229038 
L 274.380165 585.550644 
L 279.008264 585.862162 
L 283.636364 586.165112 
L 288.264463 586.460509 
L 292.892562 586.750574 
L 297.520661 587.0342 
L 302.14876 587.314584 
L 306.77686 587.592074 
L 311.404959 587.869756 
L 316.033058 588.144397 
L 320.661157 588.423783 
L 325.289256 588.666476 
L 329.917355 588.916577 
L 334.545455 589.162938 
L 339.173554 589.404507 
L 343.801653 589.640588 
L 348.429752 589.872823 
L 353.057851 590.102981 
L 357.68595 590.330837 
L 362.31405 590.555626 
L 366.942149 590.777925 
L 371.570248 590.999374 
L 376.198347 591.218821 
L 380.826446 591.436154 
L 385.454545 591.649226 
L 390.082645 591.860105 
L 394.710744 592.069732 
L 399.338843 592.275866 
L 403.966942 592.480167 
L 408.595041 592.686278 
L 413.22314 592.897952 
L 417.85124 593.110236 
L 422.479339 593.319823 
L 427.107438 593.523928 
L 431.735537 593.724044 
L 436.363636 593.919799 
L 440.991736 594.10995 
L 445.619835 594.294066 
L 450.247934 594.473576 
L 454.876033 594.648303 
L 459.504132 594.81726 
L 464.132231 594.977873 
L 468.760331 595.131617 
L 473.38843 595.279582 
L 478.016529 595.418205 
L 482.644628 595.547202 
L 487.272727 595.665536 
L 491.900826 595.773849 
L 496.528926 595.868672 
L 501.157025 595.949858 
L 505.785124 596.013632 
L 510.413223 596.060262 
L 515.041322 596.087085 
L 519.669421 596.089619 
L 524.297521 596.064673 
L 528.92562 596.016897 
L 533.553719 595.968584 
L 538.181818 595.908831 
L 542.809917 595.815099 
L 547.438017 595.670134 
L 552.066116 595.461276 
L 556.694215 595.093811 
L 561.322314 594.798044 
L 565.950413 594.390138 
L 570.578512 593.877272 
L 575.206612 592.894988 
L 579.834711 591.410034 
L 584.46281 589.412949 
L 589.090909 582.61536 
" style="fill:none;stroke:#d62728;stroke-linecap:square;stroke-width:8;"/>
   </g>
   <g id="line2d_44">
    <path clip-path="url(#pbeb595e1ed)" d="M 108 576 
L 612 576 
" style="fill:none;stroke:#000000;stroke-dasharray:3.2,0.8,0.5,0.8;stroke-dashoffset:0;stroke-width:0.5;"/>
   </g>
   <g id="line2d_45">
    <path clip-path="url(#pbeb595e1ed)" d="M 130.909091 472.524384 
L 135.53719 518.327744 
L 140.165289 536.868973 
L 144.793388 547.988457 
L 149.421488 554.984904 
L 154.049587 558.982038 
L 158.677686 562.530329 
L 163.305785 565.122606 
L 167.933884 567.397589 
L 172.561983 569.326877 
L 177.190083 570.973399 
L 181.818182 572.409622 
L 186.446281 573.677743 
L 191.07438 574.822809 
L 195.702479 575.876461 
L 200.330579 576.845793 
L 204.958678 577.736927 
L 209.586777 578.562564 
L 214.214876 579.340786 
L 218.842975 580.075795 
L 223.471074 580.744913 
L 228.099174 581.363542 
L 232.727273 581.966448 
L 237.355372 582.568366 
L 241.983471 583.133114 
L 246.61157 583.66901 
L 251.239669 584.186744 
L 255.867769 584.69538 
L 260.495868 585.187929 
L 265.123967 585.635414 
L 269.752066 586.069206 
L 274.380165 586.51319 
L 279.008264 586.959396 
L 283.636364 587.38132 
L 288.264463 587.783287 
L 292.892562 588.184569 
L 297.520661 588.59363 
L 302.14876 588.983401 
L 306.77686 589.345881 
L 311.404959 589.705638 
L 316.033058 590.079723 
L 320.661157 590.449367 
L 325.289256 590.830098 
L 329.917355 591.155065 
L 334.545455 591.504767 
L 339.173554 591.858077 
L 343.801653 592.185978 
L 348.429752 592.496682 
L 353.057851 592.802623 
L 357.68595 593.122445 
L 362.31405 593.436795 
L 366.942149 593.743978 
L 371.570248 594.045817 
L 376.198347 594.349798 
L 380.826446 594.654807 
L 385.454545 594.931766 
L 390.082645 595.19949 
L 394.710744 595.466653 
L 399.338843 595.742465 
L 403.966942 596.010675 
L 408.595041 596.268011 
L 413.22314 596.522437 
L 417.85124 596.77909 
L 422.479339 597.027249 
L 427.107438 597.252313 
L 431.735537 597.470558 
L 436.363636 597.691354 
L 440.991736 597.911671 
L 445.619835 598.120741 
L 450.247934 598.317828 
L 454.876033 598.508124 
L 459.504132 598.694643 
L 464.132231 598.855464 
L 468.760331 598.989683 
L 473.38843 599.109528 
L 478.016529 599.224174 
L 482.644628 599.324685 
L 487.272727 599.404055 
L 491.900826 599.4628 
L 496.528926 599.503 
L 501.157025 599.521079 
L 505.785124 599.500104 
L 510.413223 599.4411 
L 515.041322 599.347184 
L 519.669421 599.225316 
L 524.297521 599.05962 
L 528.92562 598.850007 
L 533.553719 598.612286 
L 538.181818 598.340912 
L 542.809917 598.017221 
L 547.438017 597.618744 
L 552.066116 597.122114 
L 556.694215 596.646421 
L 561.322314 595.773702 
L 565.950413 595.012125 
L 570.578512 593.780842 
L 575.206612 592.036022 
L 579.834711 589.809463 
L 584.46281 586.602044 
L 589.090909 576.86304 
" style="fill:none;stroke:#9467bd;stroke-linecap:square;stroke-width:8;"/>
   </g>
   <g id="line2d_46">
    <path clip-path="url(#pbeb595e1ed)" d="M 108 576 
L 612 576 
" style="fill:none;stroke:#000000;stroke-dasharray:3.2,0.8,0.5,0.8;stroke-dashoffset:0;stroke-width:0.5;"/>
   </g>
   <g id="line2d_47">
    <path clip-path="url(#pbeb595e1ed)" d="M 130.909091 530.553312 
L 135.53719 528.84685 
L 140.165289 537.246392 
L 144.793388 541.741629 
L 149.421488 546.115837 
L 154.049587 548.677118 
L 158.677686 550.918042 
L 163.305785 552.772832 
L 167.933884 554.412466 
L 172.561983 555.850745 
L 177.190083 557.129415 
L 181.818182 558.28434 
L 186.446281 559.341017 
L 191.07438 560.315449 
L 195.702479 561.238119 
L 200.330579 562.127534 
L 204.958678 562.988524 
L 209.586777 563.822462 
L 214.214876 564.635936 
L 218.842975 565.437461 
L 223.471074 566.194595 
L 228.099174 566.932558 
L 232.727273 567.626989 
L 237.355372 568.328471 
L 241.983471 569.02193 
L 246.61157 569.701673 
L 251.239669 570.373793 
L 255.867769 571.043334 
L 260.495868 571.71581 
L 265.123967 572.34909 
L 269.752066 572.972364 
L 274.380165 573.57807 
L 279.008264 574.193377 
L 283.636364 574.817472 
L 288.264463 575.425712 
L 292.892562 576.022941 
L 297.520661 576.611119 
L 302.14876 577.201499 
L 306.77686 577.833837 
L 311.404959 578.458799 
L 316.033058 579.052686 
L 320.661157 579.635748 
L 325.289256 580.227237 
L 329.917355 580.703111 
L 334.545455 581.380142 
L 339.173554 581.953424 
L 343.801653 582.548957 
L 348.429752 583.13724 
L 353.057851 583.665277 
L 357.68595 584.195411 
L 362.31405 584.711717 
L 366.942149 585.248474 
L 371.570248 585.777435 
L 376.198347 586.294359 
L 380.826446 586.809158 
L 385.454545 587.336007 
L 390.082645 587.887634 
L 394.710744 588.365498 
L 399.338843 588.838897 
L 403.966942 589.288291 
L 408.595041 589.758545 
L 413.22314 590.226682 
L 417.85124 590.684017 
L 422.479339 591.13594 
L 427.107438 591.596892 
L 431.735537 592.081691 
L 436.363636 592.513429 
L 440.991736 592.908288 
L 445.619835 593.286716 
L 450.247934 593.670898 
L 454.876033 594.055928 
L 459.504132 594.420705 
L 464.132231 594.767507 
L 468.760331 595.106701 
L 473.38843 595.455797 
L 478.016529 595.772054 
L 482.644628 596.006189 
L 487.272727 596.217037 
L 491.900826 596.410739 
L 496.528926 596.601663 
L 501.157025 596.759865 
L 505.785124 596.87297 
L 510.413223 596.941838 
L 515.041322 596.96533 
L 519.669421 596.937155 
L 524.297521 596.862135 
L 528.92562 596.763613 
L 533.553719 596.632319 
L 538.181818 596.429486 
L 542.809917 596.138411 
L 547.438017 595.742604 
L 552.066116 595.225131 
L 556.694215 594.556821 
L 561.322314 593.957316 
L 565.950413 592.794892 
L 570.578512 591.323574 
L 575.206612 589.099095 
L 579.834711 586.586165 
L 584.46281 582.212699 
L 589.090909 570.62784 
" style="fill:none;stroke:#8c564b;stroke-linecap:square;stroke-width:8;"/>
   </g>
   <g id="line2d_48">
    <path clip-path="url(#pbeb595e1ed)" d="M 108 576 
L 612 576 
" style="fill:none;stroke:#000000;stroke-dasharray:3.2,0.8,0.5,0.8;stroke-dashoffset:0;stroke-width:0.5;"/>
   </g>
   <g id="patch_8">
    <path d="M 108 720 
L 108 432 
" style="fill:none;stroke:#000000;stroke-linecap:square;stroke-linejoin:miter;stroke-width:0.8;"/>
   </g>
   <g id="patch_9">
    <path d="M 612 720 
L 612 432 
" style="fill:none;stroke:#000000;stroke-linecap:square;stroke-linejoin:miter;stroke-width:0.8;"/>
   </g>
   <g id="patch_10">
    <path d="M 108 720 
L 612 720 
" style="fill:none;stroke:#000000;stroke-linecap:square;stroke-linejoin:miter;stroke-width:0.8;"/>
   </g>
   <g id="patch_11">
    <path d="M 108 432 
L 612 432 
" style="fill:none;stroke:#000000;stroke-linecap:square;stroke-linejoin:miter;stroke-width:0.8;"/>
   </g>
   <g id="text_16">
    <!-- $\^t = 0.15$ -->
    <g transform="translate(599.19 585.784688)scale(0.42 -0.42)">
     <use transform="translate(39.042969 16.59375)" xlink:href="#STIXGeneral-Regular-770"/>
     <use transform="translate(0 0.203125)" xlink:href="#STIXGeneral-Italic-116"/>
     <use transform="translate(42.239984 0.203125)" xlink:href="#STIXGeneral-Regular-61"/>
     <use transform="translate(125.179965 0.203125)" xlink:href="#STIXGeneral-Regular-48"/>
     <use transform="translate(175.17995 0.203125)" xlink:href="#STIXGeneral-Regular-46"/>
     <use transform="translate(200.179935 0.203125)" xlink:href="#STIXGeneral-Regular-49"/>
     <use transform="translate(250.179919 0.203125)" xlink:href="#STIXGeneral-Regular-53"/>
    </g>
   </g>
  </g>
  <g id="axes_3">
   <g id="patch_12">
    <path d="M 108 1036.8 
L 612 1036.8 
L 612 748.8 
L 108 748.8 
z
" style="fill:#ffffff;"/>
   </g>
   <g id="matplotlib.axis_5">
    <g id="xtick_7">
     <g id="line2d_49">
      <g>
       <use style="fill:#ffffff;stroke:#000000;stroke-width:0.8;" x="130.909091" xlink:href="#m9421cd8359" y="1036.8"/>
      </g>
     </g>
     <g id="text_17">
      <!-- 0.0 -->
      <g transform="translate(104.659091 1072.484688)scale(0.42 -0.42)">
       <use xlink:href="#STIXGeneral-Regular-48"/>
       <use x="49.999985" xlink:href="#STIXGeneral-Regular-46"/>
       <use x="74.999969" xlink:href="#STIXGeneral-Regular-48"/>
      </g>
     </g>
    </g>
    <g id="xtick_8">
     <g id="line2d_50">
      <g>
       <use style="fill:#ffffff;stroke:#000000;stroke-width:0.8;" x="360" xlink:href="#m9421cd8359" y="1036.8"/>
      </g>
     </g>
     <g id="text_18">
      <!-- 0.5 -->
      <g transform="translate(333.75 1072.484688)scale(0.42 -0.42)">
       <use xlink:href="#STIXGeneral-Regular-48"/>
       <use x="49.999985" xlink:href="#STIXGeneral-Regular-46"/>
       <use x="74.999969" xlink:href="#STIXGeneral-Regular-53"/>
      </g>
     </g>
    </g>
    <g id="xtick_9">
     <g id="line2d_51">
      <g>
       <use style="fill:#ffffff;stroke:#000000;stroke-width:0.8;" x="589.090909" xlink:href="#m9421cd8359" y="1036.8"/>
      </g>
     </g>
     <g id="text_19">
      <!-- 1.0 -->
      <g transform="translate(562.840909 1072.484688)scale(0.42 -0.42)">
       <use xlink:href="#STIXGeneral-Regular-49"/>
       <use x="49.999985" xlink:href="#STIXGeneral-Regular-46"/>
       <use x="74.999969" xlink:href="#STIXGeneral-Regular-48"/>
      </g>
     </g>
    </g>
    <g id="text_20">
     <!-- x/c -->
     <g transform="translate(334.337344 1114.284688)scale(0.42 -0.42)">
      <defs>
       <path d="M 47.90625 0 
L 27.796875 0 
L 27.796875 1.5 
Q 30.296875 1.703125 31.046875 2.140625 
Q 31.796875 2.59375 31.796875 3.90625 
Q 31.796875 4.796875 31.203125 5.703125 
L 22.09375 19.703125 
L 14.203125 7.40625 
Q 12.203125 4.296875 12.203125 3.296875 
Q 12.203125 1.5 16.203125 1.5 
L 16.203125 0 
L 1.703125 0 
L 1.703125 1.5 
Q 4.203125 1.703125 5.546875 2.640625 
Q 6.90625 3.59375 9 6.59375 
L 20.40625 23.09375 
L 11 37.5 
Q 8.703125 41 7.09375 42.25 
Q 5.5 43.5 3.296875 43.5 
L 2.40625 43.5 
L 2.40625 45 
L 23.09375 45 
L 23.09375 43.5 
Q 18.796875 43.40625 18.796875 41.296875 
Q 18.796875 39.203125 23.40625 32.40625 
Q 24.703125 30.59375 24.796875 30.40625 
Q 25.296875 31.09375 27.796875 34.796875 
Q 28.296875 35.703125 29 36.703125 
Q 29.703125 37.703125 30.046875 38.296875 
Q 30.40625 38.90625 30.796875 39.5 
Q 31.203125 40.09375 31.34375 40.546875 
Q 31.5 41 31.5 41.296875 
Q 31.5 43.203125 27.5 43.5 
L 27.5 45 
L 43.296875 45 
L 43.296875 43.5 
Q 38.203125 43.296875 35.203125 39.09375 
L 26.90625 27.09375 
L 39.703125 7.5 
Q 43.59375 1.5 47.90625 1.5 
z
" id="STIXGeneral-Regular-120"/>
      </defs>
      <use xlink:href="#STIXGeneral-Regular-120"/>
      <use x="49.999985" xlink:href="#STIXGeneral-Regular-47"/>
      <use x="77.799973" xlink:href="#STIXGeneral-Regular-99"/>
     </g>
    </g>
   </g>
   <g id="matplotlib.axis_6">
    <g id="ytick_7">
     <g id="line2d_52">
      <g>
       <use style="fill:#ffffff;stroke:#000000;stroke-width:0.8;" x="108" xlink:href="#md9846df092" y="988.8"/>
      </g>
     </g>
     <g id="text_21">
      <!-- −2 -->
      <g transform="translate(51.23 1003.142344)scale(0.42 -0.42)">
       <use xlink:href="#STIXGeneral-Regular-8722"/>
       <use x="68.499985" xlink:href="#STIXGeneral-Regular-50"/>
      </g>
     </g>
    </g>
    <g id="ytick_8">
     <g id="line2d_53">
      <g>
       <use style="fill:#ffffff;stroke:#000000;stroke-width:0.8;" x="108" xlink:href="#md9846df092" y="892.8"/>
      </g>
     </g>
     <g id="text_22">
      <!-- 0 -->
      <g transform="translate(80 907.142344)scale(0.42 -0.42)">
       <use xlink:href="#STIXGeneral-Regular-48"/>
      </g>
     </g>
    </g>
    <g id="ytick_9">
     <g id="line2d_54">
      <g>
       <use style="fill:#ffffff;stroke:#000000;stroke-width:0.8;" x="108" xlink:href="#md9846df092" y="796.8"/>
      </g>
     </g>
     <g id="text_23">
      <!-- 2 -->
      <g transform="translate(80 811.142344)scale(0.42 -0.42)">
       <use xlink:href="#STIXGeneral-Regular-50"/>
      </g>
     </g>
    </g>
    <g id="text_24">
     <!-- Cp -->
     <g transform="translate(38.114688 917.307656)rotate(-90)scale(0.42 -0.42)">
      <use xlink:href="#STIXGeneral-Regular-67"/>
      <use x="66.699997" xlink:href="#STIXGeneral-Regular-112"/>
     </g>
    </g>
   </g>
   <g id="line2d_55">
    <path clip-path="url(#pa920e5a5a1)" d="M 130.909091 871.66128 
L 135.53719 879.743962 
L 140.165289 882.2764 
L 144.793388 882.68492 
L 149.421488 882.568694 
L 154.049587 883.703814 
L 158.677686 884.091445 
L 163.305785 884.314786 
L 167.933884 884.507738 
L 172.561983 884.695054 
L 177.190083 884.886306 
L 181.818182 885.028784 
L 186.446281 885.165715 
L 191.07438 885.289375 
L 195.702479 885.401682 
L 200.330579 885.503687 
L 204.958678 885.597423 
L 209.586777 885.683929 
L 214.214876 885.763484 
L 218.842975 885.836275 
L 223.471074 885.904558 
L 228.099174 885.968976 
L 232.727273 886.028677 
L 237.355372 886.083927 
L 241.983471 886.13494 
L 246.61157 886.182306 
L 251.239669 886.226796 
L 255.867769 886.268935 
L 260.495868 886.308763 
L 265.123967 886.345933 
L 269.752066 886.377871 
L 274.380165 886.405765 
L 279.008264 886.432902 
L 283.636364 886.461027 
L 288.264463 886.490354 
L 292.892562 886.518903 
L 297.520661 886.545571 
L 302.14876 886.571048 
L 306.77686 886.595595 
L 311.404959 886.619778 
L 316.033058 886.643876 
L 320.661157 886.66787 
L 325.289256 886.691617 
L 329.917355 886.713619 
L 334.545455 886.734563 
L 339.173554 886.757617 
L 343.801653 886.782638 
L 348.429752 886.810214 
L 353.057851 886.836445 
L 357.68595 886.86078 
L 362.31405 886.885308 
L 366.942149 886.896986 
L 371.570248 886.917171 
L 376.198347 886.93158 
L 380.826446 886.954848 
L 385.454545 886.987569 
L 390.082645 887.028237 
L 394.710744 887.072445 
L 399.338843 887.113655 
L 403.966942 887.153134 
L 408.595041 887.195313 
L 413.22314 887.240975 
L 417.85124 887.288242 
L 422.479339 887.337068 
L 427.107438 887.387659 
L 431.735537 887.440491 
L 436.363636 887.496428 
L 440.991736 887.555823 
L 445.619835 887.618677 
L 450.247934 887.68528 
L 454.876033 887.752351 
L 459.504132 887.822018 
L 464.132231 887.896961 
L 468.760331 887.980368 
L 473.38843 888.073582 
L 478.016529 888.172665 
L 482.644628 888.276211 
L 487.272727 888.384377 
L 491.900826 888.498304 
L 496.528926 888.619862 
L 501.157025 888.749342 
L 505.785124 888.887144 
L 510.413223 889.034069 
L 515.041322 889.191447 
L 519.669421 889.360016 
L 524.297521 889.540403 
L 528.92562 889.732491 
L 533.553719 889.941656 
L 538.181818 890.176456 
L 542.809917 890.428512 
L 547.438017 890.68788 
L 552.066116 890.972363 
L 556.694215 891.282632 
L 561.322314 891.726907 
L 565.950413 892.450552 
L 570.578512 892.779248 
L 575.206612 893.233783 
L 579.834711 894.297909 
L 584.46281 895.888889 
L 589.090909 899.416368 
" style="fill:none;stroke:#1f77b4;stroke-linecap:square;stroke-width:8;"/>
   </g>
   <g id="line2d_56">
    <path clip-path="url(#pa920e5a5a1)" d="M 108 892.8 
L 612 892.8 
" style="fill:none;stroke:#000000;stroke-dasharray:3.2,0.8,0.5,0.8;stroke-dashoffset:0;stroke-width:0.5;"/>
   </g>
   <g id="line2d_57">
    <path clip-path="url(#pa920e5a5a1)" d="M 130.909091 860.371579 
L 135.53719 868.258679 
L 140.165289 871.384676 
L 144.793388 874.507201 
L 149.421488 876.036023 
L 154.049587 877.089739 
L 158.677686 878.064076 
L 163.305785 878.783892 
L 167.933884 879.428612 
L 172.561983 879.988356 
L 177.190083 880.471885 
L 181.818182 880.896313 
L 186.446281 881.271161 
L 191.07438 881.603294 
L 195.702479 881.907336 
L 200.330579 882.192063 
L 204.958678 882.461167 
L 209.586777 882.714928 
L 214.214876 882.942088 
L 218.842975 883.12872 
L 223.471074 883.290392 
L 228.099174 883.436621 
L 232.727273 883.604858 
L 237.355372 883.759864 
L 241.983471 883.900595 
L 246.61157 884.03352 
L 251.239669 884.164054 
L 255.867769 884.295858 
L 260.495868 884.417312 
L 265.123967 884.503656 
L 269.752066 884.583314 
L 274.380165 884.653747 
L 279.008264 884.760298 
L 283.636364 884.865287 
L 288.264463 884.961219 
L 292.892562 885.05223 
L 297.520661 885.144958 
L 302.14876 885.243174 
L 306.77686 885.341938 
L 311.404959 885.407169 
L 316.033058 885.466289 
L 320.661157 885.517325 
L 325.289256 885.607602 
L 329.917355 885.709126 
L 334.545455 885.830327 
L 339.173554 885.89325 
L 343.801653 885.986042 
L 348.429752 886.089186 
L 353.057851 886.202009 
L 357.68595 886.283397 
L 362.31405 886.354 
L 366.942149 886.417091 
L 371.570248 886.515648 
L 376.198347 886.64185 
L 380.826446 886.761067 
L 385.454545 886.877479 
L 390.082645 886.99788 
L 394.710744 887.129144 
L 399.338843 887.276135 
L 403.966942 887.399859 
L 408.595041 887.503928 
L 413.22314 887.606097 
L 417.85124 887.727295 
L 422.479339 887.896972 
L 427.107438 888.063023 
L 431.735537 888.227064 
L 436.363636 888.398556 
L 440.991736 888.586509 
L 445.619835 888.801489 
L 450.247934 889.009222 
L 454.876033 889.16003 
L 459.504132 889.307639 
L 464.132231 889.473672 
L 468.760331 889.714832 
L 473.38843 889.963418 
L 478.016529 890.208182 
L 482.644628 890.456816 
L 487.272727 890.720943 
L 491.900826 891.006316 
L 496.528926 891.309152 
L 501.157025 891.576172 
L 505.785124 891.850615 
L 510.413223 892.136257 
L 515.041322 892.487367 
L 519.669421 892.870956 
L 524.297521 893.264988 
L 528.92562 893.670188 
L 533.553719 894.086004 
L 538.181818 894.515051 
L 542.809917 894.962663 
L 547.438017 895.429122 
L 552.066116 895.91171 
L 556.694215 896.580783 
L 561.322314 896.972273 
L 565.950413 897.660158 
L 570.578512 898.471754 
L 575.206612 899.788801 
L 579.834711 899.732029 
L 584.46281 901.526837 
L 589.090909 904.534464 
" style="fill:none;stroke:#ff7f0e;stroke-linecap:square;stroke-width:8;"/>
   </g>
   <g id="line2d_58">
    <path clip-path="url(#pa920e5a5a1)" d="M 108 892.8 
L 612 892.8 
" style="fill:none;stroke:#000000;stroke-dasharray:3.2,0.8,0.5,0.8;stroke-dashoffset:0;stroke-width:0.5;"/>
   </g>
   <g id="line2d_59">
    <path clip-path="url(#pa920e5a5a1)" d="M 130.909091 821.552736 
L 135.53719 849.351516 
L 140.165289 858.307819 
L 144.793388 865.111617 
L 149.421488 868.711507 
L 154.049587 870.843754 
L 158.677686 872.734115 
L 163.305785 874.151975 
L 167.933884 875.409639 
L 172.561983 876.477458 
L 177.190083 877.386189 
L 181.818182 878.175606 
L 186.446281 878.869536 
L 191.07438 879.487332 
L 195.702479 880.053533 
L 200.330579 880.576056 
L 204.958678 881.054165 
L 209.586777 881.490544 
L 214.214876 881.891997 
L 218.842975 882.263304 
L 223.471074 882.599484 
L 228.099174 882.907086 
L 232.727273 883.199991 
L 237.355372 883.481861 
L 241.983471 883.746738 
L 246.61157 883.997315 
L 251.239669 884.237053 
L 255.867769 884.469158 
L 260.495868 884.694522 
L 265.123967 884.907707 
L 269.752066 885.117358 
L 274.380165 885.335328 
L 279.008264 885.542426 
L 283.636364 885.705692 
L 288.264463 885.843406 
L 292.892562 885.972 
L 297.520661 886.153631 
L 302.14876 886.351148 
L 306.77686 886.533657 
L 311.404959 886.700808 
L 316.033058 886.865858 
L 320.661157 887.035026 
L 325.289256 887.231806 
L 329.917355 887.368377 
L 334.545455 887.535542 
L 339.173554 887.705408 
L 343.801653 887.877207 
L 348.429752 888.042382 
L 353.057851 888.20185 
L 357.68595 888.365607 
L 362.31405 888.53865 
L 366.942149 888.712989 
L 371.570248 888.888483 
L 376.198347 889.067238 
L 380.826446 889.250882 
L 385.454545 889.439976 
L 390.082645 889.622984 
L 394.710744 889.799968 
L 399.338843 889.982571 
L 403.966942 890.176372 
L 408.595041 890.375835 
L 413.22314 890.57984 
L 417.85124 890.789236 
L 422.479339 891.004468 
L 427.107438 891.225671 
L 431.735537 891.441747 
L 436.363636 891.652059 
L 440.991736 891.868283 
L 445.619835 892.096419 
L 450.247934 892.327608 
L 454.876033 892.561268 
L 459.504132 892.799869 
L 464.132231 893.045741 
L 468.760331 893.29924 
L 473.38843 893.54871 
L 478.016529 893.792523 
L 482.644628 894.042837 
L 487.272727 894.305531 
L 491.900826 894.571446 
L 496.528926 894.839793 
L 501.157025 895.11312 
L 505.785124 895.393084 
L 510.413223 895.680558 
L 515.041322 895.965292 
L 519.669421 896.247538 
L 524.297521 896.537786 
L 528.92562 896.848064 
L 533.553719 897.18144 
L 538.181818 897.519758 
L 542.809917 897.853843 
L 547.438017 898.182032 
L 552.066116 898.508237 
L 556.694215 898.832692 
L 561.322314 899.168961 
L 565.950413 899.543852 
L 570.578512 900.312982 
L 575.206612 900.470395 
L 579.834711 900.560013 
L 584.46281 900.860215 
L 589.090909 900.67872 
" style="fill:none;stroke:#2ca02c;stroke-linecap:square;stroke-width:8;"/>
   </g>
   <g id="line2d_60">
    <path clip-path="url(#pa920e5a5a1)" d="M 108 892.8 
L 612 892.8 
" style="fill:none;stroke:#000000;stroke-dasharray:3.2,0.8,0.5,0.8;stroke-dashoffset:0;stroke-width:0.5;"/>
   </g>
   <g id="line2d_61">
    <path clip-path="url(#pa920e5a5a1)" d="M 130.909091 811.695744 
L 135.53719 841.838763 
L 140.165289 853.418284 
L 144.793388 861.254075 
L 149.421488 865.772624 
L 154.049587 868.685568 
L 158.677686 870.87305 
L 163.305785 872.836417 
L 167.933884 874.478774 
L 172.561983 875.869625 
L 177.190083 877.069068 
L 181.818182 878.118523 
L 186.446281 879.044223 
L 191.07438 879.874384 
L 195.702479 880.642253 
L 200.330579 881.344456 
L 204.958678 881.983593 
L 209.586777 882.568527 
L 214.214876 883.108393 
L 218.842975 883.609784 
L 223.471074 884.075767 
L 228.099174 884.510715 
L 232.727273 884.919467 
L 237.355372 885.305784 
L 241.983471 885.671104 
L 246.61157 886.018259 
L 251.239669 886.350126 
L 255.867769 886.668183 
L 260.495868 886.973315 
L 265.123967 887.263822 
L 269.752066 887.542377 
L 274.380165 887.811511 
L 279.008264 888.07182 
L 283.636364 888.324324 
L 288.264463 888.569643 
L 292.892562 888.808745 
L 297.520661 889.04179 
L 302.14876 889.270133 
L 306.77686 889.494522 
L 311.404959 889.716806 
L 316.033058 889.936548 
L 320.661157 890.162295 
L 325.289256 890.362006 
L 329.917355 890.569098 
L 334.545455 890.773651 
L 339.173554 890.975549 
L 343.801653 891.173103 
L 348.429752 891.367263 
L 353.057851 891.559224 
L 357.68595 891.749449 
L 362.31405 891.937003 
L 366.942149 892.123288 
L 371.570248 892.308394 
L 376.198347 892.49303 
L 380.826446 892.676152 
L 385.454545 892.85661 
L 390.082645 893.035674 
L 394.710744 893.213993 
L 399.338843 893.391204 
L 403.966942 893.56691 
L 408.595041 893.743201 
L 413.22314 893.922012 
L 417.85124 894.101426 
L 422.479339 894.278769 
L 427.107438 894.453482 
L 431.735537 894.62597 
L 436.363636 894.796477 
L 440.991736 894.963937 
L 445.619835 895.128652 
L 450.247934 895.291124 
L 454.876033 895.451078 
L 459.504132 895.608589 
L 464.132231 895.761274 
L 468.760331 895.909874 
L 473.38843 896.054409 
L 478.016529 896.193898 
L 482.644628 896.327408 
L 487.272727 896.455059 
L 491.900826 896.57702 
L 496.528926 896.691922 
L 501.157025 896.798804 
L 505.785124 896.896387 
L 510.413223 896.983909 
L 515.041322 897.060177 
L 519.669421 897.124365 
L 524.297521 897.173463 
L 528.92562 897.205531 
L 533.553719 897.22285 
L 538.181818 897.229822 
L 542.809917 897.21633 
L 547.438017 897.171653 
L 552.066116 897.087407 
L 556.694215 896.91554 
L 561.322314 896.766705 
L 565.950413 896.561315 
L 570.578512 896.230506 
L 575.206612 895.719026 
L 579.834711 894.862147 
L 584.46281 893.616089 
L 589.090909 888.676128 
" style="fill:none;stroke:#d62728;stroke-linecap:square;stroke-width:8;"/>
   </g>
   <g id="line2d_62">
    <path clip-path="url(#pa920e5a5a1)" d="M 108 892.8 
L 612 892.8 
" style="fill:none;stroke:#000000;stroke-dasharray:3.2,0.8,0.5,0.8;stroke-dashoffset:0;stroke-width:0.5;"/>
   </g>
   <g id="line2d_63">
    <path clip-path="url(#pa920e5a5a1)" d="M 130.909091 816.19824 
L 135.53719 842.533461 
L 140.165289 855.032945 
L 144.793388 862.468039 
L 149.421488 867.325953 
L 154.049587 870.346205 
L 158.677686 872.847977 
L 163.305785 874.754346 
L 167.933884 876.506959 
L 172.561983 878.0114 
L 177.190083 879.307658 
L 181.818182 880.441207 
L 186.446281 881.445728 
L 191.07438 882.35632 
L 195.702479 883.194229 
L 200.330579 883.966192 
L 204.958678 884.671361 
L 209.586777 885.319846 
L 214.214876 885.926178 
L 218.842975 886.497516 
L 223.471074 887.013934 
L 228.099174 887.48302 
L 232.727273 887.935779 
L 237.355372 888.387338 
L 241.983471 888.806752 
L 246.61157 889.20019 
L 251.239669 889.576945 
L 255.867769 889.943382 
L 260.495868 890.296557 
L 265.123967 890.609064 
L 269.752066 890.90293 
L 274.380165 891.207039 
L 279.008264 891.512093 
L 283.636364 891.794893 
L 288.264463 892.060901 
L 292.892562 892.322691 
L 297.520661 892.588677 
L 302.14876 892.836819 
L 306.77686 893.056259 
L 311.404959 893.266873 
L 316.033058 893.491866 
L 320.661157 893.711391 
L 325.289256 893.933404 
L 329.917355 894.119635 
L 334.545455 894.317956 
L 339.173554 894.516196 
L 343.801653 894.694169 
L 348.429752 894.855235 
L 353.057851 895.010223 
L 357.68595 895.173751 
L 362.31405 895.33029 
L 366.942149 895.477687 
L 371.570248 895.618865 
L 376.198347 895.757024 
L 380.826446 895.892225 
L 385.454545 896.003809 
L 390.082645 896.105263 
L 394.710744 896.202899 
L 399.338843 896.301585 
L 403.966942 896.390002 
L 408.595041 896.466468 
L 413.22314 896.535179 
L 417.85124 896.598589 
L 422.479339 896.650321 
L 427.107438 896.681996 
L 431.735537 896.703821 
L 436.363636 896.718229 
L 440.991736 896.721666 
L 445.619835 896.709773 
L 450.247934 896.682161 
L 454.876033 896.638954 
L 459.504132 896.579663 
L 464.132231 896.494652 
L 468.760331 896.385299 
L 473.38843 896.253153 
L 478.016529 896.096058 
L 482.644628 895.913321 
L 487.272727 895.701547 
L 491.900826 895.458182 
L 496.528926 895.178992 
L 501.157025 894.856232 
L 505.785124 894.487922 
L 510.413223 894.067728 
L 515.041322 893.591458 
L 519.669421 893.05119 
L 524.297521 892.44088 
L 528.92562 891.757637 
L 533.553719 891.007497 
L 538.181818 890.185752 
L 542.809917 889.260223 
L 547.438017 888.199831 
L 552.066116 886.972363 
L 556.694215 885.859763 
L 561.322314 883.90281 
L 565.950413 882.141335 
L 570.578512 879.753154 
L 575.206612 876.105767 
L 579.834711 871.702314 
L 584.46281 865.613307 
L 589.090909 846.08112 
" style="fill:none;stroke:#9467bd;stroke-linecap:square;stroke-width:8;"/>
   </g>
   <g id="line2d_64">
    <path clip-path="url(#pa920e5a5a1)" d="M 108 892.8 
L 612 892.8 
" style="fill:none;stroke:#000000;stroke-dasharray:3.2,0.8,0.5,0.8;stroke-dashoffset:0;stroke-width:0.5;"/>
   </g>
   <g id="line2d_65">
    <path clip-path="url(#pa920e5a5a1)" d="M 130.909091 826.717728 
L 135.53719 847.938334 
L 140.165289 859.373381 
L 144.793388 865.524628 
L 149.421488 870.515127 
L 154.049587 873.389487 
L 158.677686 875.815345 
L 163.305785 877.710198 
L 167.933884 879.409538 
L 172.561983 880.867496 
L 177.190083 882.129053 
L 181.818182 883.243895 
L 186.446281 884.236836 
L 191.07438 885.122565 
L 195.702479 885.926887 
L 200.330579 886.672047 
L 204.958678 887.362894 
L 209.586777 888.003042 
L 214.214876 888.613729 
L 218.842975 889.198909 
L 223.471074 889.688213 
L 228.099174 890.13855 
L 232.727273 890.579115 
L 237.355372 891.029706 
L 241.983471 891.446308 
L 246.61157 891.837856 
L 251.239669 892.213859 
L 255.867769 892.583906 
L 260.495868 892.952143 
L 265.123967 893.271918 
L 269.752066 893.570095 
L 274.380165 893.863226 
L 279.008264 894.143416 
L 283.636364 894.408052 
L 288.264463 894.657454 
L 292.892562 894.896565 
L 297.520661 895.129597 
L 302.14876 895.358272 
L 306.77686 895.593506 
L 311.404959 895.81128 
L 316.033058 896.005242 
L 320.661157 896.2071 
L 325.289256 896.408499 
L 329.917355 896.562033 
L 334.545455 896.769871 
L 339.173554 896.940236 
L 343.801653 897.115801 
L 348.429752 897.278188 
L 353.057851 897.400741 
L 357.68595 897.507708 
L 362.31405 897.612536 
L 366.942149 897.730027 
L 371.570248 897.835284 
L 376.198347 897.926875 
L 380.826446 898.01098 
L 385.454545 898.092682 
L 390.082645 898.172641 
L 394.710744 898.212193 
L 399.338843 898.232457 
L 403.966942 898.233082 
L 408.595041 898.242917 
L 413.22314 898.242144 
L 417.85124 898.226146 
L 422.479339 898.195694 
L 427.107438 898.155786 
L 431.735537 898.107447 
L 436.363636 898.023361 
L 440.991736 897.906574 
L 445.619835 897.761771 
L 450.247934 897.602199 
L 454.876033 897.426885 
L 459.504132 897.224272 
L 464.132231 896.992685 
L 468.760331 896.731597 
L 473.38843 896.436934 
L 478.016529 896.094469 
L 482.644628 895.70002 
L 487.272727 895.259366 
L 491.900826 894.757079 
L 496.528926 894.214824 
L 501.157025 893.619381 
L 505.785124 892.948459 
L 510.413223 892.200103 
L 515.041322 891.363636 
L 519.669421 890.426317 
L 524.297521 889.375535 
L 528.92562 888.245594 
L 533.553719 886.98246 
L 538.181818 885.551034 
L 542.809917 883.934273 
L 547.438017 882.091822 
L 552.066116 879.971255 
L 556.694215 877.507576 
L 561.322314 874.72213 
L 565.950413 871.197853 
L 570.578512 866.808337 
L 575.206612 860.316205 
L 579.834711 852.897302 
L 584.46281 840.264416 
L 589.090909 809.65152 
" style="fill:none;stroke:#8c564b;stroke-linecap:square;stroke-width:8;"/>
   </g>
   <g id="line2d_66">
    <path clip-path="url(#pa920e5a5a1)" d="M 108 892.8 
L 612 892.8 
" style="fill:none;stroke:#000000;stroke-dasharray:3.2,0.8,0.5,0.8;stroke-dashoffset:0;stroke-width:0.5;"/>
   </g>
   <g id="patch_13">
    <path d="M 108 1036.8 
L 108 748.8 
" style="fill:none;stroke:#000000;stroke-linecap:square;stroke-linejoin:miter;stroke-width:0.8;"/>
   </g>
   <g id="patch_14">
    <path d="M 612 1036.8 
L 612 748.8 
" style="fill:none;stroke:#000000;stroke-linecap:square;stroke-linejoin:miter;stroke-width:0.8;"/>
   </g>
   <g id="patch_15">
    <path d="M 108 1036.8 
L 612 1036.8 
" style="fill:none;stroke:#000000;stroke-linecap:square;stroke-linejoin:miter;stroke-width:0.8;"/>
   </g>
   <g id="patch_16">
    <path d="M 108 748.8 
L 612 748.8 
" style="fill:none;stroke:#000000;stroke-linecap:square;stroke-linejoin:miter;stroke-width:0.8;"/>
   </g>
   <g id="text_25">
    <!-- $\^t = 0.25$ -->
    <g transform="translate(599.19 902.584687)scale(0.42 -0.42)">
     <use transform="translate(39.042969 16.59375)" xlink:href="#STIXGeneral-Regular-770"/>
     <use transform="translate(0 0.203125)" xlink:href="#STIXGeneral-Italic-116"/>
     <use transform="translate(42.239984 0.203125)" xlink:href="#STIXGeneral-Regular-61"/>
     <use transform="translate(125.179965 0.203125)" xlink:href="#STIXGeneral-Regular-48"/>
     <use transform="translate(175.17995 0.203125)" xlink:href="#STIXGeneral-Regular-46"/>
     <use transform="translate(200.179935 0.203125)" xlink:href="#STIXGeneral-Regular-50"/>
     <use transform="translate(250.179919 0.203125)" xlink:href="#STIXGeneral-Regular-53"/>
    </g>
   </g>
  </g>
 </g>
 <defs>
  <clipPath id="p2201c22cbc">
   <rect height="288" width="504" x="108" y="115.2"/>
  </clipPath>
  <clipPath id="pbeb595e1ed">
   <rect height="288" width="504" x="108" y="432"/>
  </clipPath>
  <clipPath id="pa920e5a5a1">
   <rect height="288" width="504" x="108" y="748.8"/>
  </clipPath>
 </defs>
</svg>
