<?xml version="1.0" encoding="utf-8" standalone="no"?>
<!DOCTYPE svg PUBLIC "-//W3C//DTD SVG 1.1//EN"
  "http://www.w3.org/Graphics/SVG/1.1/DTD/svg11.dtd">
<!-- Created with matplotlib (https://matplotlib.org/) -->
<svg height="1152pt" version="1.1" viewBox="0 0 720 1152" width="720pt" xmlns="http://www.w3.org/2000/svg" xmlns:xlink="http://www.w3.org/1999/xlink">
 <metadata>
  <rdf:RDF xmlns:cc="http://creativecommons.org/ns#" xmlns:dc="http://purl.org/dc/elements/1.1/" xmlns:rdf="http://www.w3.org/1999/02/22-rdf-syntax-ns#">
   <cc:Work>
    <dc:type rdf:resource="http://purl.org/dc/dcmitype/StillImage"/>
    <dc:date>2022-01-07T23:06:57.677947</dc:date>
    <dc:format>image/svg+xml</dc:format>
    <dc:creator>
     <cc:Agent>
      <dc:title>Matplotlib v3.3.4, https://matplotlib.org/</dc:title>
     </cc:Agent>
    </dc:creator>
   </cc:Work>
  </rdf:RDF>
 </metadata>
 <defs>
  <style type="text/css">*{stroke-linecap:butt;stroke-linejoin:round;}</style>
 </defs>
 <g id="figure_1">
  <g id="patch_1">
   <path d="M 0 1152 
L 720 1152 
L 720 0 
L 0 0 
z
" style="fill:#ffffff;"/>
  </g>
  <g id="axes_1">
   <g id="patch_2">
    <path d="M 108 403.2 
L 612 403.2 
L 612 115.2 
L 108 115.2 
z
" style="fill:#ffffff;"/>
   </g>
   <g id="matplotlib.axis_1">
    <g id="xtick_1">
     <g id="line2d_1">
      <defs>
       <path d="M 0 0 
L 0 3.5 
" id="m34a9a82cfe" style="stroke:#000000;stroke-width:0.8;"/>
      </defs>
      <g>
       <use style="fill:#ffffff;stroke:#000000;stroke-width:0.8;" x="130.909091" xlink:href="#m34a9a82cfe" y="403.2"/>
      </g>
     </g>
    </g>
    <g id="xtick_2">
     <g id="line2d_2">
      <g>
       <use style="fill:#ffffff;stroke:#000000;stroke-width:0.8;" x="360" xlink:href="#m34a9a82cfe" y="403.2"/>
      </g>
     </g>
    </g>
    <g id="xtick_3">
     <g id="line2d_3">
      <g>
       <use style="fill:#ffffff;stroke:#000000;stroke-width:0.8;" x="589.090909" xlink:href="#m34a9a82cfe" y="403.2"/>
      </g>
     </g>
    </g>
   </g>
   <g id="matplotlib.axis_2">
    <g id="ytick_1">
     <g id="line2d_4">
      <defs>
       <path d="M 0 0 
L -3.5 0 
" id="m61bd96033f" style="stroke:#000000;stroke-width:0.8;"/>
      </defs>
      <g>
       <use style="fill:#ffffff;stroke:#000000;stroke-width:0.8;" x="108" xlink:href="#m61bd96033f" y="355.2"/>
      </g>
     </g>
     <g id="text_1">
      <!-- −2 -->
      <g transform="translate(51.23 369.542344)scale(0.42 -0.42)">
       <defs>
        <path d="M 62.09375 22 
L 6.40625 22 
L 6.40625 28.59375 
L 62.09375 28.59375 
z
" id="STIXGeneral-Regular-8722"/>
        <path d="M 47.40625 13.703125 
L 42 0 
L 2.90625 0 
L 2.90625 1.203125 
L 20.703125 20.09375 
Q 27.703125 27.40625 30.703125 33.5 
Q 33.703125 39.59375 33.703125 46.09375 
Q 33.703125 52.796875 30 56.5 
Q 26.296875 60.203125 19.796875 60.203125 
Q 14.40625 60.203125 11.25 57.390625 
Q 8.09375 54.59375 5.09375 47.203125 
L 3 47.703125 
Q 4.703125 57 9.84375 62.296875 
Q 15 67.59375 23.796875 67.59375 
Q 32.09375 67.59375 37.1875 62.59375 
Q 42.296875 57.59375 42.296875 50 
Q 42.296875 38.703125 29.5 25.203125 
L 13 7.59375 
L 36.40625 7.59375 
Q 39.703125 7.59375 41.640625 8.890625 
Q 43.59375 10.203125 46 14.296875 
z
" id="STIXGeneral-Regular-50"/>
       </defs>
       <use xlink:href="#STIXGeneral-Regular-8722"/>
       <use x="68.499985" xlink:href="#STIXGeneral-Regular-50"/>
      </g>
     </g>
    </g>
    <g id="ytick_2">
     <g id="line2d_5">
      <g>
       <use style="fill:#ffffff;stroke:#000000;stroke-width:0.8;" x="108" xlink:href="#m61bd96033f" y="259.2"/>
      </g>
     </g>
     <g id="text_2">
      <!-- 0 -->
      <g transform="translate(80 273.542344)scale(0.42 -0.42)">
       <defs>
        <path d="M 47.59375 33 
Q 47.59375 26.296875 46.296875 20.34375 
Q 45 14.40625 42.453125 9.40625 
Q 39.90625 4.40625 35.40625 1.5 
Q 30.90625 -1.40625 25 -1.40625 
Q 18.90625 -1.40625 14.296875 1.6875 
Q 9.703125 4.796875 7.203125 10 
Q 4.703125 15.203125 3.546875 21.09375 
Q 2.40625 27 2.40625 33.59375 
Q 2.40625 42.90625 4.703125 50.34375 
Q 7 57.796875 12.34375 62.6875 
Q 17.703125 67.59375 25.40625 67.59375 
Q 35.203125 67.59375 41.390625 58 
Q 47.59375 48.40625 47.59375 33 
z
M 38 32.5 
Q 38 48.296875 34.640625 56.640625 
Q 31.296875 65 24.796875 65 
Q 18.59375 65 15.296875 56.59375 
Q 12 48.203125 12 32.90625 
Q 12 17.5 15.296875 9.34375 
Q 18.59375 1.203125 25 1.203125 
Q 31.296875 1.203125 34.640625 9.34375 
Q 38 17.5 38 32.5 
z
" id="STIXGeneral-Regular-48"/>
       </defs>
       <use xlink:href="#STIXGeneral-Regular-48"/>
      </g>
     </g>
    </g>
    <g id="ytick_3">
     <g id="line2d_6">
      <g>
       <use style="fill:#ffffff;stroke:#000000;stroke-width:0.8;" x="108" xlink:href="#m61bd96033f" y="163.2"/>
      </g>
     </g>
     <g id="text_3">
      <!-- 2 -->
      <g transform="translate(80 177.542344)scale(0.42 -0.42)">
       <use xlink:href="#STIXGeneral-Regular-50"/>
      </g>
     </g>
    </g>
    <g id="text_4">
     <!-- Cp -->
     <g transform="translate(38.114688 283.707656)rotate(-90)scale(0.42 -0.42)">
      <defs>
       <path d="M 61.40625 13.09375 
L 63.296875 11.296875 
Q 54.40625 -1.40625 36 -1.40625 
Q 21.5 -1.40625 12.40625 7.5 
Q 2.796875 16.90625 2.796875 32.5 
Q 2.796875 47.09375 11.796875 57.203125 
Q 21.203125 67.59375 36.09375 67.59375 
Q 42.5 67.59375 48 66.09375 
Q 54.296875 64.296875 54.90625 64.296875 
Q 58.203125 64.296875 59.09375 67.59375 
L 61.09375 67.59375 
L 62 44.90625 
L 59.703125 44.90625 
Q 58.09375 52.09375 54.5 56 
Q 47.40625 63.59375 38.40625 63.59375 
Q 27.296875 63.59375 20.84375 55.4375 
Q 14.40625 47.296875 14.40625 34.09375 
Q 14.40625 18 21.59375 10.203125 
Q 28.296875 3 39.40625 3 
Q 46 3 50.796875 5.296875 
Q 55.59375 7.59375 61.40625 13.09375 
z
" id="STIXGeneral-Regular-67"/>
       <path d="M 15.90625 45.796875 
L 15.90625 38.09375 
Q 22.203125 46 30.296875 46 
Q 37.59375 46 42.296875 40 
Q 47 34 47 24.703125 
Q 47 13.796875 40.953125 6.390625 
Q 34.90625 -1 26 -1 
Q 22.90625 -1 20.75 -0.09375 
Q 18.59375 0.796875 15.90625 3.296875 
L 15.90625 -12.40625 
Q 15.90625 -17.09375 17.5 -18.4375 
Q 19.09375 -19.796875 24.703125 -19.90625 
L 24.703125 -21.703125 
L 0.5 -21.703125 
L 0.5 -20 
Q 4.90625 -19.59375 6.203125 -18.296875 
Q 7.5 -17 7.5 -13.09375 
L 7.5 33.703125 
Q 7.5 37.203125 6.703125 38.296875 
Q 5.90625 39.40625 3.40625 39.40625 
Q 1.796875 39.40625 0.90625 39.296875 
L 0.90625 40.90625 
Q 7.90625 43 15.296875 46 
z
M 15.90625 33.40625 
L 15.90625 8.796875 
Q 15.90625 6.59375 19.34375 4.390625 
Q 22.796875 2.203125 26.296875 2.203125 
Q 31.703125 2.203125 35.046875 7.296875 
Q 38.40625 12.40625 38.40625 20.703125 
Q 38.40625 29.5 35.046875 34.75 
Q 31.703125 40 26.09375 40 
Q 22.59375 40 19.25 37.796875 
Q 15.90625 35.59375 15.90625 33.40625 
z
" id="STIXGeneral-Regular-112"/>
      </defs>
      <use xlink:href="#STIXGeneral-Regular-67"/>
      <use x="66.699997" xlink:href="#STIXGeneral-Regular-112"/>
     </g>
    </g>
   </g>
   <g id="line2d_7">
    <path clip-path="url(#p887748e681)" d="M 130.909091 331.27152 
L 135.53719 348.764609 
L 140.165289 344.98876 
L 144.793388 335.058266 
L 149.421488 325.827725 
L 154.049587 319.356916 
L 158.677686 313.33184 
L 163.305785 308.306548 
L 167.933884 303.933014 
L 172.561983 300.073276 
L 177.190083 296.621911 
L 181.818182 293.501683 
L 186.446281 290.669294 
L 191.07438 288.06022 
L 195.702479 285.628145 
L 200.330579 283.345988 
L 204.958678 281.187645 
L 209.586777 279.136137 
L 214.214876 277.183782 
L 218.842975 275.319712 
L 223.471074 273.525677 
L 228.099174 271.775051 
L 232.727273 270.05878 
L 237.355372 268.386905 
L 241.983471 266.752926 
L 246.61157 265.154833 
L 251.239669 263.591528 
L 255.867769 262.063584 
L 260.495868 260.57642 
L 265.123967 259.12698 
L 269.752066 257.702721 
L 274.380165 256.301466 
L 279.008264 254.924494 
L 283.636364 253.573205 
L 288.264463 252.249922 
L 292.892562 250.954087 
L 297.520661 249.685716 
L 302.14876 248.444257 
L 306.77686 247.22763 
L 311.404959 246.040102 
L 316.033058 244.899605 
L 320.661157 243.834849 
L 325.289256 243.010388 
L 329.917355 241.971117 
L 334.545455 241.216683 
L 339.173554 240.601199 
L 343.801653 240.152557 
L 348.429752 239.902976 
L 353.057851 239.832409 
L 357.68595 239.926243 
L 362.31405 240.159189 
L 366.942149 240.546819 
L 371.570248 241.070647 
L 376.198347 241.714266 
L 380.826446 242.487564 
L 385.454545 243.380053 
L 390.082645 244.410353 
L 394.710744 245.562489 
L 399.338843 246.842265 
L 403.966942 248.234588 
L 408.595041 249.733267 
L 413.22314 251.350932 
L 417.85124 253.095191 
L 422.479339 254.956941 
L 427.107438 256.931407 
L 431.735537 259.010257 
L 436.363636 261.175564 
L 440.991736 263.400487 
L 445.619835 265.660179 
L 450.247934 267.937846 
L 454.876033 270.223809 
L 459.504132 272.507238 
L 464.132231 274.777129 
L 468.760331 277.020448 
L 473.38843 279.221936 
L 478.016529 281.365514 
L 482.644628 283.436689 
L 487.272727 285.428876 
L 491.900826 287.33451 
L 496.528926 289.153043 
L 501.157025 290.883333 
L 505.785124 292.549577 
L 510.413223 294.149216 
L 515.041322 295.698514 
L 519.669421 297.195406 
L 524.297521 298.64803 
L 528.92562 300.064113 
L 533.553719 301.450297 
L 538.181818 302.815061 
L 542.809917 304.160233 
L 547.438017 305.499232 
L 552.066116 306.845862 
L 556.694215 307.98942 
L 561.322314 309.639721 
L 565.950413 311.172846 
L 570.578512 312.465315 
L 575.206612 314.415679 
L 579.834711 315.635134 
L 584.46281 314.277013 
L 589.090909 306.58608 
" style="fill:none;stroke:#1f77b4;stroke-linecap:square;stroke-width:8;"/>
   </g>
   <g id="line2d_8">
    <path clip-path="url(#p887748e681)" d="M 108 259.2 
L 612 259.2 
" style="fill:none;stroke:#000000;stroke-dasharray:3.2,0.8,0.5,0.8;stroke-dashoffset:0;stroke-width:0.5;"/>
   </g>
   <g id="line2d_9">
    <path clip-path="url(#p887748e681)" d="M 130.909091 209.67072 
L 135.53719 215.119321 
L 140.165289 215.715657 
L 144.793388 217.173598 
L 149.421488 217.576493 
L 154.049587 217.880845 
L 158.677686 217.940187 
L 163.305785 217.649916 
L 167.933884 217.051841 
L 172.561983 216.173147 
L 177.190083 215.032386 
L 181.818182 213.690983 
L 186.446281 212.220515 
L 191.07438 210.689132 
L 195.702479 209.167601 
L 200.330579 207.734306 
L 204.958678 206.459353 
L 209.586777 205.383735 
L 214.214876 204.544974 
L 218.842975 203.963548 
L 223.471074 203.669684 
L 228.099174 203.638611 
L 232.727273 203.793932 
L 237.355372 204.01548 
L 241.983471 204.164808 
L 246.61157 204.103922 
L 251.239669 203.681586 
L 255.867769 202.819604 
L 260.495868 201.566073 
L 265.123967 200.00031 
L 269.752066 198.293801 
L 274.380165 196.566239 
L 279.008264 194.870216 
L 283.636364 193.277206 
L 288.264463 191.858716 
L 292.892562 190.67398 
L 297.520661 189.753613 
L 302.14876 189.132917 
L 306.77686 188.814092 
L 311.404959 188.780859 
L 316.033058 189.024164 
L 320.661157 189.521079 
L 325.289256 190.30928 
L 329.917355 191.144025 
L 334.545455 192.665406 
L 339.173554 194.315885 
L 343.801653 196.344685 
L 348.429752 198.811798 
L 353.057851 201.735105 
L 357.68595 205.221887 
L 362.31405 209.166183 
L 366.942149 213.592162 
L 371.570248 218.493607 
L 376.198347 223.817065 
L 380.826446 229.461869 
L 385.454545 235.289301 
L 390.082645 241.207968 
L 394.710744 247.064832 
L 399.338843 252.727152 
L 403.966942 258.09206 
L 408.595041 263.01407 
L 413.22314 267.525656 
L 417.85124 271.628327 
L 422.479339 275.202488 
L 427.107438 278.285529 
L 431.735537 280.963814 
L 436.363636 283.318187 
L 440.991736 285.402252 
L 445.619835 287.254975 
L 450.247934 288.903171 
L 454.876033 290.353676 
L 459.504132 291.636747 
L 464.132231 292.809201 
L 468.760331 293.953272 
L 473.38843 295.164169 
L 478.016529 296.457091 
L 482.644628 297.799105 
L 487.272727 299.130797 
L 491.900826 300.386386 
L 496.528926 301.514718 
L 501.157025 302.480093 
L 505.785124 303.203775 
L 510.413223 303.770099 
L 515.041322 304.131392 
L 519.669421 304.381093 
L 524.297521 304.583018 
L 528.92562 304.807991 
L 533.553719 305.180858 
L 538.181818 305.815826 
L 542.809917 306.683334 
L 547.438017 307.740465 
L 552.066116 308.953027 
L 556.694215 310.277215 
L 561.322314 311.687061 
L 565.950413 312.980076 
L 570.578512 314.464655 
L 575.206612 316.381753 
L 579.834711 315.848516 
L 584.46281 314.975968 
L 589.090909 306.60672 
" style="fill:none;stroke:#ff7f0e;stroke-linecap:square;stroke-width:8;"/>
   </g>
   <g id="line2d_10">
    <path clip-path="url(#p887748e681)" d="M 108 259.2 
L 612 259.2 
" style="fill:none;stroke:#000000;stroke-dasharray:3.2,0.8,0.5,0.8;stroke-dashoffset:0;stroke-width:0.5;"/>
   </g>
   <g id="line2d_11">
    <path clip-path="url(#p887748e681)" d="M 130.909091 192.30096 
L 135.53719 192.381004 
L 140.165289 192.555515 
L 144.793388 192.801446 
L 149.421488 193.113908 
L 154.049587 193.496234 
L 158.677686 193.952064 
L 163.305785 194.486368 
L 167.933884 195.108484 
L 172.561983 195.808841 
L 177.190083 196.591158 
L 181.818182 197.460886 
L 186.446281 198.422722 
L 191.07438 199.477653 
L 195.702479 200.637682 
L 200.330579 201.875701 
L 204.958678 203.190439 
L 209.586777 204.582432 
L 214.214876 206.050782 
L 218.842975 207.592644 
L 223.471074 209.215465 
L 228.099174 210.91728 
L 232.727273 212.689313 
L 237.355372 214.524999 
L 241.983471 216.419102 
L 246.61157 218.366439 
L 251.239669 220.358332 
L 255.867769 222.402501 
L 260.495868 224.483384 
L 265.123967 226.597628 
L 269.752066 228.74466 
L 274.380165 230.919182 
L 279.008264 233.109191 
L 283.636364 235.302478 
L 288.264463 237.468037 
L 292.892562 239.606573 
L 297.520661 241.716016 
L 302.14876 243.796136 
L 306.77686 245.847922 
L 311.404959 247.872292 
L 316.033058 249.867419 
L 320.661157 251.834858 
L 325.289256 253.772389 
L 329.917355 255.679012 
L 334.545455 257.552698 
L 339.173554 259.389882 
L 343.801653 261.185346 
L 348.429752 262.931941 
L 353.057851 264.635362 
L 357.68595 266.303019 
L 362.31405 267.940627 
L 366.942149 269.547808 
L 371.570248 271.114788 
L 376.198347 272.61734 
L 380.826446 274.07621 
L 385.454545 275.503056 
L 390.082645 276.905905 
L 394.710744 278.290607 
L 399.338843 279.661272 
L 403.966942 281.021207 
L 408.595041 282.371974 
L 413.22314 283.717068 
L 417.85124 285.060557 
L 422.479339 286.402311 
L 427.107438 287.743634 
L 431.735537 289.094445 
L 436.363636 290.46221 
L 440.991736 291.82851 
L 445.619835 293.204805 
L 450.247934 294.605086 
L 454.876033 296.031041 
L 459.504132 297.468379 
L 464.132231 298.895478 
L 468.760331 300.322349 
L 473.38843 301.760052 
L 478.016529 303.213118 
L 482.644628 304.684233 
L 487.272727 306.174933 
L 491.900826 307.686049 
L 496.528926 309.221065 
L 501.157025 310.774056 
L 505.785124 312.335996 
L 510.413223 313.901311 
L 515.041322 315.457413 
L 519.669421 316.981544 
L 524.297521 318.436558 
L 528.92562 319.888659 
L 533.553719 321.06158 
L 538.181818 322.005906 
L 542.809917 322.826453 
L 547.438017 323.556277 
L 552.066116 324.068866 
L 556.694215 324.37344 
L 561.322314 324.690237 
L 565.950413 323.724391 
L 570.578512 322.11011 
L 575.206612 321.171135 
L 579.834711 321.662268 
L 584.46281 321.092836 
L 589.090909 312.47568 
" style="fill:none;stroke:#2ca02c;stroke-linecap:square;stroke-width:8;"/>
   </g>
   <g id="line2d_12">
    <path clip-path="url(#p887748e681)" d="M 108 259.2 
L 612 259.2 
" style="fill:none;stroke:#000000;stroke-dasharray:3.2,0.8,0.5,0.8;stroke-dashoffset:0;stroke-width:0.5;"/>
   </g>
   <g id="line2d_13">
    <path clip-path="url(#p887748e681)" d="M 130.909091 321.49248 
L 135.53719 266.014929 
L 140.165289 234.632047 
L 144.793388 228.970859 
L 149.421488 222.267932 
L 154.049587 214.834465 
L 158.677686 210.125925 
L 163.305785 206.599119 
L 167.933884 203.513939 
L 172.561983 200.632156 
L 177.190083 197.982959 
L 181.818182 195.471585 
L 186.446281 193.048801 
L 191.07438 190.689776 
L 195.702479 188.383108 
L 200.330579 186.141275 
L 204.958678 183.980703 
L 209.586777 181.917042 
L 214.214876 179.938834 
L 218.842975 178.06415 
L 223.471074 176.272929 
L 228.099174 174.579795 
L 232.727273 172.976617 
L 237.355372 171.46681 
L 241.983471 170.074716 
L 246.61157 168.814157 
L 251.239669 167.631404 
L 255.867769 166.531088 
L 260.495868 165.543899 
L 265.123967 164.671343 
L 269.752066 163.900537 
L 274.380165 163.217846 
L 279.008264 162.623525 
L 283.636364 162.105854 
L 288.264463 161.647321 
L 292.892562 161.254752 
L 297.520661 160.944565 
L 302.14876 160.701345 
L 306.77686 160.539826 
L 311.404959 160.47742 
L 316.033058 160.517984 
L 320.661157 160.638254 
L 325.289256 160.854636 
L 329.917355 161.139788 
L 334.545455 161.462875 
L 339.173554 161.842679 
L 343.801653 162.276707 
L 348.429752 162.807497 
L 353.057851 163.543044 
L 357.68595 164.004649 
L 362.31405 164.739555 
L 366.942149 165.449957 
L 371.570248 166.160719 
L 376.198347 166.87892 
L 380.826446 167.586309 
L 385.454545 168.270981 
L 390.082645 169.004886 
L 394.710744 169.851826 
L 399.338843 170.881197 
L 403.966942 172.024369 
L 408.595041 173.260986 
L 413.22314 174.700523 
L 417.85124 176.602097 
L 422.479339 179.024642 
L 427.107438 182.003478 
L 431.735537 185.611327 
L 436.363636 189.804264 
L 440.991736 194.462203 
L 445.619835 199.541554 
L 450.247934 204.847862 
L 454.876033 210.332002 
L 459.504132 215.828723 
L 464.132231 221.32457 
L 468.760331 226.939427 
L 473.38843 232.692622 
L 478.016529 238.578193 
L 482.644628 244.48109 
L 487.272727 250.288381 
L 491.900826 255.874939 
L 496.528926 261.24325 
L 501.157025 266.454018 
L 505.785124 271.607566 
L 510.413223 276.659024 
L 515.041322 281.490796 
L 519.669421 286.055243 
L 524.297521 290.41302 
L 528.92562 294.537314 
L 533.553719 298.368573 
L 538.181818 301.806976 
L 542.809917 304.883103 
L 547.438017 307.686017 
L 552.066116 309.892132 
L 556.694215 311.961723 
L 561.322314 314.395381 
L 565.950413 316.365888 
L 570.578512 317.658122 
L 575.206612 316.253148 
L 579.834711 316.2407 
L 584.46281 317.140676 
L 589.090909 313.09872 
" style="fill:none;stroke:#d62728;stroke-linecap:square;stroke-width:8;"/>
   </g>
   <g id="line2d_14">
    <path clip-path="url(#p887748e681)" d="M 108 259.2 
L 612 259.2 
" style="fill:none;stroke:#000000;stroke-dasharray:3.2,0.8,0.5,0.8;stroke-dashoffset:0;stroke-width:0.5;"/>
   </g>
   <g id="patch_3">
    <path d="M 108 403.2 
L 108 115.2 
" style="fill:none;stroke:#000000;stroke-linecap:square;stroke-linejoin:miter;stroke-width:0.8;"/>
   </g>
   <g id="patch_4">
    <path d="M 612 403.2 
L 612 115.2 
" style="fill:none;stroke:#000000;stroke-linecap:square;stroke-linejoin:miter;stroke-width:0.8;"/>
   </g>
   <g id="patch_5">
    <path d="M 108 403.2 
L 612 403.2 
" style="fill:none;stroke:#000000;stroke-linecap:square;stroke-linejoin:miter;stroke-width:0.8;"/>
   </g>
   <g id="patch_6">
    <path d="M 108 115.2 
L 612 115.2 
" style="fill:none;stroke:#000000;stroke-linecap:square;stroke-linejoin:miter;stroke-width:0.8;"/>
   </g>
   <g id="text_5">
    <!-- $\^t = 0.05$ -->
    <g transform="translate(599.19 268.984688)scale(0.42 -0.42)">
     <defs>
      <path d="M -7.5 50.703125 
L -10.90625 50.703125 
L -23.09375 61 
L -35.203125 50.703125 
L -38.59375 50.703125 
L -26.203125 67.40625 
L -20 67.40625 
z
" id="STIXGeneral-Regular-770"/>
      <path d="M 29.59375 42.796875 
L 29.09375 39.59375 
L 20.703125 39.59375 
L 12 6.796875 
Q 11.796875 6 11.796875 5.40625 
Q 11.796875 3.796875 13.296875 3.796875 
Q 14.5 3.796875 16.09375 5.34375 
Q 17.703125 6.90625 21.40625 11.703125 
L 22.703125 11 
Q 18.09375 4 15.140625 1.453125 
Q 12.203125 -1.09375 8.40625 -1.09375 
Q 3.796875 -1.09375 3.796875 2.59375 
Q 3.796875 3.59375 5.40625 10 
L 13.203125 39.59375 
L 5.703125 39.59375 
L 5.59375 40.203125 
Q 5.59375 42 8.90625 42.703125 
Q 11.40625 43.296875 15.5 46.546875 
Q 19.59375 49.796875 22.203125 53.703125 
Q 22.796875 54.59375 23.59375 54.59375 
Q 24.5 54.59375 24.5 53.796875 
Q 24.5 53.296875 24.40625 53.09375 
L 21.59375 42.796875 
z
" id="STIXGeneral-Italic-116"/>
      <path d="M 63.703125 32 
L 4.796875 32 
L 4.796875 38.59375 
L 63.703125 38.59375 
z
M 63.703125 12 
L 4.796875 12 
L 4.796875 18.59375 
L 63.703125 18.59375 
z
" id="STIXGeneral-Regular-61"/>
      <path d="M 18.09375 4.296875 
Q 18.09375 2.09375 16.4375 0.5 
Q 14.796875 -1.09375 12.5 -1.09375 
Q 10.203125 -1.09375 8.59375 0.5 
Q 7 2.09375 7 4.390625 
Q 7 6.703125 8.640625 8.34375 
Q 10.296875 10 12.59375 10 
Q 14.796875 10 16.4375 8.296875 
Q 18.09375 6.59375 18.09375 4.296875 
z
" id="STIXGeneral-Regular-46"/>
      <path d="M 43.796875 68.09375 
L 40.203125 59.59375 
Q 39.59375 58.296875 37.5 58.296875 
L 18.09375 58.296875 
L 14.09375 49.796875 
Q 25.09375 47.703125 30 45.25 
Q 34.90625 42.796875 39.09375 37 
Q 42.59375 32.203125 42.59375 24.296875 
Q 42.59375 17.09375 40.25 12.1875 
Q 37.90625 7.296875 32.796875 3.5 
Q 26 -1.40625 15.796875 -1.40625 
Q 10.09375 -1.40625 6.59375 0.296875 
Q 3.09375 2 3.09375 4.796875 
Q 3.09375 8.59375 7.59375 8.59375 
Q 11.203125 8.59375 15 5.5 
Q 18.90625 2.296875 22.09375 2.296875 
Q 27.296875 2.296875 31.4375 7.5 
Q 35.59375 12.703125 35.59375 19.203125 
Q 35.59375 28.796875 28.90625 34.203125 
Q 20.203125 41.203125 7.59375 41.203125 
Q 6.40625 41.203125 6.40625 42 
L 6.5 42.5 
L 17.40625 66.203125 
L 38.09375 66.203125 
Q 39.796875 66.203125 40.75 66.703125 
Q 41.703125 67.203125 42.90625 68.796875 
z
" id="STIXGeneral-Regular-53"/>
     </defs>
     <use transform="translate(39.042969 16.59375)" xlink:href="#STIXGeneral-Regular-770"/>
     <use transform="translate(0 0.203125)" xlink:href="#STIXGeneral-Italic-116"/>
     <use transform="translate(42.239984 0.203125)" xlink:href="#STIXGeneral-Regular-61"/>
     <use transform="translate(125.179965 0.203125)" xlink:href="#STIXGeneral-Regular-48"/>
     <use transform="translate(175.17995 0.203125)" xlink:href="#STIXGeneral-Regular-46"/>
     <use transform="translate(200.179935 0.203125)" xlink:href="#STIXGeneral-Regular-48"/>
     <use transform="translate(250.179919 0.203125)" xlink:href="#STIXGeneral-Regular-53"/>
    </g>
   </g>
   <g id="legend_1">
    <g id="line2d_15">
     <path d="M 87.45906 158.9325 
L 157.43106 158.9325 
" style="fill:none;stroke:#1f77b4;stroke-linecap:square;stroke-width:8;"/>
    </g>
    <g id="line2d_16"/>
    <g id="text_6">
     <!-- r/c = 3.65 -->
     <g transform="translate(185.41986 171.1776)scale(0.34986 -0.34986)">
      <defs>
       <path d="M 16 45.796875 
L 16 36.59375 
Q 19.796875 42 22.34375 44 
Q 24.90625 46 28 46 
Q 30.59375 46 32.046875 44.59375 
Q 33.5 43.203125 33.5 40.703125 
Q 33.5 38.59375 32.453125 37.390625 
Q 31.40625 36.203125 29.59375 36.203125 
Q 27.703125 36.203125 25.59375 38.203125 
Q 24 39.703125 23 39.703125 
Q 20.90625 39.703125 18.453125 36.796875 
Q 16 33.90625 16 31.5 
L 16 9 
Q 16 4.703125 17.703125 3.203125 
Q 19.40625 1.703125 24.5 1.5 
L 24.5 0 
L 0.5 0 
L 0.5 1.5 
Q 5.296875 2.40625 6.4375 3.5 
Q 7.59375 4.59375 7.59375 8.40625 
L 7.59375 33.40625 
Q 7.59375 36.703125 6.84375 38.046875 
Q 6.09375 39.40625 4.203125 39.40625 
Q 2.59375 39.40625 0.703125 39 
L 0.703125 40.59375 
Q 7 42.59375 15.5 46 
z
" id="STIXGeneral-Regular-114"/>
       <path d="M 28.703125 67.59375 
L 5.90625 -1.40625 
L -0.90625 -1.40625 
L 22 67.59375 
z
" id="STIXGeneral-Regular-47"/>
       <path d="M 39.796875 15.59375 
L 41.203125 14.703125 
Q 36.90625 6.296875 33 3.203125 
Q 27.90625 -1 21.5 -1 
Q 13.203125 -1 7.84375 5.25 
Q 2.5 11.5 2.5 21.203125 
Q 2.5 33.90625 10.90625 40.90625 
Q 17.09375 46 24.40625 46 
Q 30.703125 46 35.25 42.953125 
Q 39.796875 39.90625 39.796875 35.703125 
Q 39.796875 34 38.390625 32.75 
Q 37 31.5 35.09375 31.5 
Q 31.59375 31.5 30.296875 36.09375 
L 29.703125 38.296875 
Q 28.90625 41.09375 27.703125 42.09375 
Q 26.5 43.09375 23.796875 43.09375 
Q 17.703125 43.09375 13.953125 38.296875 
Q 10.203125 33.5 10.203125 25.703125 
Q 10.203125 17.09375 14.5 11.640625 
Q 18.796875 6.203125 25.703125 6.203125 
Q 30 6.203125 33.09375 8.25 
Q 36.203125 10.296875 39.796875 15.59375 
z
" id="STIXGeneral-Regular-99"/>
       <path id="STIXGeneral-Regular-32"/>
       <path d="M 6.09375 51 
L 4.5 51.40625 
Q 6.796875 58.90625 11.6875 63.25 
Q 16.59375 67.59375 24.09375 67.59375 
Q 31.09375 67.59375 35.390625 63.796875 
Q 39.703125 60 39.703125 53.90625 
Q 39.703125 45.703125 30.40625 40.09375 
Q 35.90625 37.703125 38.703125 34.796875 
Q 43.09375 29.90625 43.09375 21.90625 
Q 43.09375 13.90625 38.5 7.90625 
Q 35.09375 3.296875 28.75 0.9375 
Q 22.40625 -1.40625 15.296875 -1.40625 
Q 4.09375 -1.40625 4.09375 4.296875 
Q 4.09375 5.90625 5.296875 6.90625 
Q 6.5 7.90625 8.203125 7.90625 
Q 10.703125 7.90625 14.296875 5.296875 
Q 18.703125 2.203125 22.90625 2.203125 
Q 28.40625 2.203125 32.15625 6.640625 
Q 35.90625 11.09375 35.90625 17.5 
Q 35.90625 29 25.5 32 
Q 22.40625 33 15.296875 33 
L 15.296875 34.40625 
Q 20.90625 36.296875 23.703125 38 
Q 31.796875 42.59375 31.796875 51.40625 
Q 31.796875 56.40625 28.9375 59 
Q 26.09375 61.59375 21 61.59375 
Q 12 61.59375 6.09375 51 
z
" id="STIXGeneral-Regular-51"/>
       <path d="M 44.59375 68.40625 
L 44.796875 66.796875 
Q 33 64.90625 25.09375 57.25 
Q 17.203125 49.59375 15.203125 38.296875 
Q 21 42.796875 27.90625 42.796875 
Q 36.703125 42.796875 41.75 37.1875 
Q 46.796875 31.59375 46.796875 21.90625 
Q 46.796875 12.09375 41.703125 5.90625 
Q 35.796875 -1.40625 25.796875 -1.40625 
Q 13.59375 -1.40625 8.09375 8.703125 
Q 3.40625 17.296875 3.40625 27.90625 
Q 3.40625 44.296875 14.296875 55.5 
Q 20.5 61.90625 27.046875 64.546875 
Q 33.59375 67.203125 44.59375 68.40625 
z
M 37.796875 18.796875 
Q 37.796875 38.203125 24.296875 38.203125 
Q 19.296875 38.203125 16 35.546875 
Q 12.703125 32.90625 12.703125 26.59375 
Q 12.703125 14.90625 16.34375 8.15625 
Q 20 1.40625 26.90625 1.40625 
Q 32.203125 1.40625 35 6.15625 
Q 37.796875 10.90625 37.796875 18.796875 
z
" id="STIXGeneral-Regular-54"/>
      </defs>
      <use xlink:href="#STIXGeneral-Regular-114"/>
      <use x="33.299988" xlink:href="#STIXGeneral-Regular-47"/>
      <use x="61.099976" xlink:href="#STIXGeneral-Regular-99"/>
      <use x="105.499969" xlink:href="#STIXGeneral-Regular-32"/>
      <use x="130.499954" xlink:href="#STIXGeneral-Regular-61"/>
      <use x="198.999939" xlink:href="#STIXGeneral-Regular-32"/>
      <use x="223.999924" xlink:href="#STIXGeneral-Regular-51"/>
      <use x="273.999908" xlink:href="#STIXGeneral-Regular-46"/>
      <use x="298.999893" xlink:href="#STIXGeneral-Regular-54"/>
      <use x="348.999878" xlink:href="#STIXGeneral-Regular-53"/>
     </g>
    </g>
    <g id="line2d_17">
     <path d="M 87.45906 208.508755 
L 157.43106 208.508755 
" style="fill:none;stroke:#ff7f0e;stroke-linecap:square;stroke-width:8;"/>
    </g>
    <g id="line2d_18"/>
    <g id="text_7">
     <!-- r/c = 4.17 -->
     <g transform="translate(185.41986 220.753855)scale(0.34986 -0.34986)">
      <defs>
       <path d="M 47.296875 16.703125 
L 37 16.703125 
L 37 0 
L 29.203125 0 
L 29.203125 16.703125 
L 1.203125 16.703125 
L 1.203125 23.09375 
L 32.59375 67.59375 
L 37 67.59375 
L 37 23.09375 
L 47.296875 23.09375 
z
M 29.203125 23.09375 
L 29.203125 57.40625 
L 5.203125 23.09375 
z
" id="STIXGeneral-Regular-52"/>
       <path d="M 39.40625 0 
L 11.796875 0 
L 11.796875 1.5 
Q 17.296875 1.796875 19.296875 3.546875 
Q 21.296875 5.296875 21.296875 9.5 
L 21.296875 54.40625 
Q 21.296875 59.296875 18.296875 59.296875 
Q 16.90625 59.296875 13.796875 58.09375 
L 11.09375 57.09375 
L 11.09375 58.5 
L 29 67.59375 
L 29.90625 67.296875 
L 29.90625 7.59375 
Q 29.90625 4.296875 31.90625 2.890625 
Q 33.90625 1.5 39.40625 1.5 
z
" id="STIXGeneral-Regular-49"/>
       <path d="M 44.90625 64.59375 
L 23.703125 -0.796875 
L 17.203125 -0.796875 
L 37 58.796875 
L 15.5 58.796875 
Q 11.203125 58.796875 9.09375 57.296875 
Q 7 55.796875 3.796875 50.59375 
L 2 51.5 
L 8 66.203125 
L 44.90625 66.203125 
z
" id="STIXGeneral-Regular-55"/>
      </defs>
      <use xlink:href="#STIXGeneral-Regular-114"/>
      <use x="33.299988" xlink:href="#STIXGeneral-Regular-47"/>
      <use x="61.099976" xlink:href="#STIXGeneral-Regular-99"/>
      <use x="105.499969" xlink:href="#STIXGeneral-Regular-32"/>
      <use x="130.499954" xlink:href="#STIXGeneral-Regular-61"/>
      <use x="198.999939" xlink:href="#STIXGeneral-Regular-32"/>
      <use x="223.999924" xlink:href="#STIXGeneral-Regular-52"/>
      <use x="273.999908" xlink:href="#STIXGeneral-Regular-46"/>
      <use x="298.999893" xlink:href="#STIXGeneral-Regular-49"/>
      <use x="348.999878" xlink:href="#STIXGeneral-Regular-55"/>
     </g>
    </g>
    <g id="line2d_19">
     <path d="M 394.986 158.9325 
L 464.958 158.9325 
" style="fill:none;stroke:#2ca02c;stroke-linecap:square;stroke-width:8;"/>
    </g>
    <g id="line2d_20"/>
    <g id="text_8">
     <!-- r/c = 4.69 -->
     <g transform="translate(492.9468 171.1776)scale(0.34986 -0.34986)">
      <defs>
       <path d="M 5.90625 -2.203125 
L 5.59375 -0.203125 
Q 17.09375 1.796875 25.046875 9.5 
Q 33 17.203125 36 29.40625 
Q 30.203125 23.703125 21 23.703125 
Q 12.90625 23.703125 7.953125 29.296875 
Q 3 34.90625 3 44 
Q 3 54.09375 8.953125 60.84375 
Q 14.90625 67.59375 23.796875 67.59375 
Q 33.296875 67.59375 39.5 60 
Q 45.90625 52 45.90625 39.40625 
Q 45.90625 30.59375 42.84375 22.84375 
Q 39.796875 15.09375 33.90625 9.703125 
Q 27.703125 4.09375 21.796875 1.640625 
Q 15.90625 -0.796875 5.90625 -2.203125 
z
M 36.203125 35.5 
L 36.203125 39.40625 
Q 36.203125 64.796875 23 64.796875 
Q 18.296875 64.796875 15.703125 61.40625 
Q 14.203125 59.40625 13.203125 55.40625 
Q 12.203125 51.40625 12.203125 47.40625 
Q 12.203125 38.5 15.546875 33.25 
Q 18.90625 28 24.5 28 
Q 28.5 28 32.34375 29.953125 
Q 36.203125 31.90625 36.203125 35.5 
z
" id="STIXGeneral-Regular-57"/>
      </defs>
      <use xlink:href="#STIXGeneral-Regular-114"/>
      <use x="33.299988" xlink:href="#STIXGeneral-Regular-47"/>
      <use x="61.099976" xlink:href="#STIXGeneral-Regular-99"/>
      <use x="105.499969" xlink:href="#STIXGeneral-Regular-32"/>
      <use x="130.499954" xlink:href="#STIXGeneral-Regular-61"/>
      <use x="198.999939" xlink:href="#STIXGeneral-Regular-32"/>
      <use x="223.999924" xlink:href="#STIXGeneral-Regular-52"/>
      <use x="273.999908" xlink:href="#STIXGeneral-Regular-46"/>
      <use x="298.999893" xlink:href="#STIXGeneral-Regular-54"/>
      <use x="348.999878" xlink:href="#STIXGeneral-Regular-57"/>
     </g>
    </g>
    <g id="line2d_21">
     <path d="M 394.986 208.508755 
L 464.958 208.508755 
" style="fill:none;stroke:#d62728;stroke-linecap:square;stroke-width:8;"/>
    </g>
    <g id="line2d_22"/>
    <g id="text_9">
     <!-- r/c = 5.21 -->
     <g transform="translate(492.9468 220.753855)scale(0.34986 -0.34986)">
      <use xlink:href="#STIXGeneral-Regular-114"/>
      <use x="33.299988" xlink:href="#STIXGeneral-Regular-47"/>
      <use x="61.099976" xlink:href="#STIXGeneral-Regular-99"/>
      <use x="105.499969" xlink:href="#STIXGeneral-Regular-32"/>
      <use x="130.499954" xlink:href="#STIXGeneral-Regular-61"/>
      <use x="198.999939" xlink:href="#STIXGeneral-Regular-32"/>
      <use x="223.999924" xlink:href="#STIXGeneral-Regular-53"/>
      <use x="273.999908" xlink:href="#STIXGeneral-Regular-46"/>
      <use x="298.999893" xlink:href="#STIXGeneral-Regular-50"/>
      <use x="348.999878" xlink:href="#STIXGeneral-Regular-49"/>
     </g>
    </g>
   </g>
  </g>
  <g id="axes_2">
   <g id="patch_7">
    <path d="M 108 720 
L 612 720 
L 612 432 
L 108 432 
z
" style="fill:#ffffff;"/>
   </g>
   <g id="matplotlib.axis_3">
    <g id="xtick_4">
     <g id="line2d_23">
      <g>
       <use style="fill:#ffffff;stroke:#000000;stroke-width:0.8;" x="130.909091" xlink:href="#m34a9a82cfe" y="720"/>
      </g>
     </g>
    </g>
    <g id="xtick_5">
     <g id="line2d_24">
      <g>
       <use style="fill:#ffffff;stroke:#000000;stroke-width:0.8;" x="360" xlink:href="#m34a9a82cfe" y="720"/>
      </g>
     </g>
    </g>
    <g id="xtick_6">
     <g id="line2d_25">
      <g>
       <use style="fill:#ffffff;stroke:#000000;stroke-width:0.8;" x="589.090909" xlink:href="#m34a9a82cfe" y="720"/>
      </g>
     </g>
    </g>
   </g>
   <g id="matplotlib.axis_4">
    <g id="ytick_4">
     <g id="line2d_26">
      <g>
       <use style="fill:#ffffff;stroke:#000000;stroke-width:0.8;" x="108" xlink:href="#m61bd96033f" y="672"/>
      </g>
     </g>
     <g id="text_10">
      <!-- −2 -->
      <g transform="translate(51.23 686.342344)scale(0.42 -0.42)">
       <use xlink:href="#STIXGeneral-Regular-8722"/>
       <use x="68.499985" xlink:href="#STIXGeneral-Regular-50"/>
      </g>
     </g>
    </g>
    <g id="ytick_5">
     <g id="line2d_27">
      <g>
       <use style="fill:#ffffff;stroke:#000000;stroke-width:0.8;" x="108" xlink:href="#m61bd96033f" y="576"/>
      </g>
     </g>
     <g id="text_11">
      <!-- 0 -->
      <g transform="translate(80 590.342344)scale(0.42 -0.42)">
       <use xlink:href="#STIXGeneral-Regular-48"/>
      </g>
     </g>
    </g>
    <g id="ytick_6">
     <g id="line2d_28">
      <g>
       <use style="fill:#ffffff;stroke:#000000;stroke-width:0.8;" x="108" xlink:href="#m61bd96033f" y="480"/>
      </g>
     </g>
     <g id="text_12">
      <!-- 2 -->
      <g transform="translate(80 494.342344)scale(0.42 -0.42)">
       <use xlink:href="#STIXGeneral-Regular-50"/>
      </g>
     </g>
    </g>
    <g id="text_13">
     <!-- Cp -->
     <g transform="translate(38.114688 600.507656)rotate(-90)scale(0.42 -0.42)">
      <use xlink:href="#STIXGeneral-Regular-67"/>
      <use x="66.699997" xlink:href="#STIXGeneral-Regular-112"/>
     </g>
    </g>
   </g>
   <g id="line2d_29">
    <path clip-path="url(#p56b46c80d8)" d="M 130.909091 625.9896 
L 135.53719 587.578341 
L 140.165289 583.10388 
L 144.793388 582.339924 
L 149.421488 582.083566 
L 154.049587 582.401342 
L 158.677686 582.792918 
L 163.305785 583.218721 
L 167.933884 583.656912 
L 172.561983 584.077321 
L 177.190083 584.471179 
L 181.818182 584.846493 
L 186.446281 585.213993 
L 191.07438 585.574109 
L 195.702479 585.926089 
L 200.330579 586.272215 
L 204.958678 586.612833 
L 209.586777 586.9469 
L 214.214876 587.271339 
L 218.842975 587.584968 
L 223.471074 587.883593 
L 228.099174 588.180436 
L 232.727273 588.49117 
L 237.355372 588.829594 
L 241.983471 589.177506 
L 246.61157 589.528728 
L 251.239669 589.88124 
L 255.867769 590.235125 
L 260.495868 590.589243 
L 265.123967 590.935348 
L 269.752066 591.277322 
L 274.380165 591.622778 
L 279.008264 591.989104 
L 283.636364 592.37076 
L 288.264463 592.757209 
L 292.892562 593.140768 
L 297.520661 593.517947 
L 302.14876 593.884222 
L 306.77686 594.232347 
L 311.404959 594.562682 
L 316.033058 594.879611 
L 320.661157 595.195297 
L 325.289256 595.454496 
L 329.917355 595.801235 
L 334.545455 596.079903 
L 339.173554 596.338321 
L 343.801653 596.57724 
L 348.429752 596.792602 
L 353.057851 596.98077 
L 357.68595 597.150044 
L 362.31405 597.311598 
L 366.942149 597.463849 
L 371.570248 597.59791 
L 376.198347 597.712369 
L 380.826446 597.808028 
L 385.454545 597.88678 
L 390.082645 597.938974 
L 394.710744 597.957857 
L 399.338843 597.960432 
L 403.966942 597.950951 
L 408.595041 597.922954 
L 413.22314 597.866763 
L 417.85124 597.775082 
L 422.479339 597.649582 
L 427.107438 597.491727 
L 431.735537 597.291884 
L 436.363636 597.044445 
L 440.991736 596.768585 
L 445.619835 596.474214 
L 450.247934 596.15854 
L 454.876033 595.818946 
L 459.504132 595.456873 
L 464.132231 595.083241 
L 468.760331 594.710378 
L 473.38843 594.321797 
L 478.016529 593.913824 
L 482.644628 593.507353 
L 487.272727 593.109827 
L 491.900826 592.718019 
L 496.528926 592.31899 
L 501.157025 591.905848 
L 505.785124 591.486623 
L 510.413223 591.060491 
L 515.041322 590.600089 
L 519.669421 590.086975 
L 524.297521 589.546572 
L 528.92562 588.985346 
L 533.553719 588.383911 
L 538.181818 587.719201 
L 542.809917 586.970292 
L 547.438017 586.136221 
L 552.066116 585.225007 
L 556.694215 584.411354 
L 561.322314 583.167449 
L 565.950413 581.994219 
L 570.578512 580.641343 
L 575.206612 579.08594 
L 579.834711 576.925762 
L 584.46281 573.185772 
L 589.090909 568.431456 
" style="fill:none;stroke:#1f77b4;stroke-linecap:square;stroke-width:8;"/>
   </g>
   <g id="line2d_30">
    <path clip-path="url(#p56b46c80d8)" d="M 108 576 
L 612 576 
" style="fill:none;stroke:#000000;stroke-dasharray:3.2,0.8,0.5,0.8;stroke-dashoffset:0;stroke-width:0.5;"/>
   </g>
   <g id="line2d_31">
    <path clip-path="url(#p56b46c80d8)" d="M 130.909091 491.22576 
L 135.53719 500.154273 
L 140.165289 515.376951 
L 144.793388 524.704221 
L 149.421488 532.945805 
L 154.049587 538.988829 
L 158.677686 543.736088 
L 163.305785 547.686205 
L 167.933884 551.020587 
L 172.561983 553.837758 
L 177.190083 556.269405 
L 181.818182 558.455583 
L 186.446281 560.423385 
L 191.07438 562.176039 
L 195.702479 563.763749 
L 200.330579 565.221081 
L 204.958678 566.568349 
L 209.586777 567.806978 
L 214.214876 568.955295 
L 218.842975 570.02442 
L 223.471074 571.024391 
L 228.099174 571.965128 
L 232.727273 572.856329 
L 237.355372 573.702788 
L 241.983471 574.513941 
L 246.61157 575.298171 
L 251.239669 576.057699 
L 255.867769 576.790658 
L 260.495868 577.496751 
L 265.123967 578.17809 
L 269.752066 578.834814 
L 274.380165 579.466597 
L 279.008264 580.073742 
L 283.636364 580.658918 
L 288.264463 581.225917 
L 292.892562 581.779087 
L 297.520661 582.319789 
L 302.14876 582.847617 
L 306.77686 583.363516 
L 311.404959 583.865677 
L 316.033058 584.351274 
L 320.661157 584.817217 
L 325.289256 585.263462 
L 329.917355 585.621489 
L 334.545455 586.128196 
L 339.173554 586.538525 
L 343.801653 586.928775 
L 348.429752 587.29712 
L 353.057851 587.642698 
L 357.68595 587.958318 
L 362.31405 588.241946 
L 366.942149 588.489384 
L 371.570248 588.697883 
L 376.198347 588.86852 
L 380.826446 589.000448 
L 385.454545 589.092072 
L 390.082645 589.136621 
L 394.710744 589.136543 
L 399.338843 589.090839 
L 403.966942 588.996016 
L 408.595041 588.847282 
L 413.22314 588.646395 
L 417.85124 588.39345 
L 422.479339 588.079179 
L 427.107438 587.703643 
L 431.735537 587.264508 
L 436.363636 586.755999 
L 440.991736 586.172566 
L 445.619835 585.51712 
L 450.247934 584.78775 
L 454.876033 583.975355 
L 459.504132 583.084121 
L 464.132231 582.115854 
L 468.760331 581.068669 
L 473.38843 579.93731 
L 478.016529 578.726629 
L 482.644628 577.433406 
L 487.272727 576.047764 
L 491.900826 574.570058 
L 496.528926 573.00207 
L 501.157025 571.344642 
L 505.785124 569.582094 
L 510.413223 567.754519 
L 515.041322 565.836573 
L 519.669421 563.838574 
L 524.297521 561.760282 
L 528.92562 559.593701 
L 533.553719 557.318216 
L 538.181818 554.903447 
L 542.809917 552.376107 
L 547.438017 549.74333 
L 552.066116 547.008266 
L 556.694215 544.169101 
L 561.322314 541.239243 
L 565.950413 538.329455 
L 570.578512 534.970977 
L 575.206612 530.872912 
L 579.834711 526.656348 
L 584.46281 518.694882 
L 589.090909 508.622448 
" style="fill:none;stroke:#ff7f0e;stroke-linecap:square;stroke-width:8;"/>
   </g>
   <g id="line2d_32">
    <path clip-path="url(#p56b46c80d8)" d="M 108 576 
L 612 576 
" style="fill:none;stroke:#000000;stroke-dasharray:3.2,0.8,0.5,0.8;stroke-dashoffset:0;stroke-width:0.5;"/>
   </g>
   <g id="line2d_33">
    <path clip-path="url(#p56b46c80d8)" d="M 130.909091 641.61888 
L 135.53719 502.920036 
L 140.165289 485.51102 
L 144.793388 484.68113 
L 149.421488 485.140705 
L 154.049587 485.600281 
L 158.677686 486.059857 
L 163.305785 487.274655 
L 167.933884 489.847318 
L 172.561983 492.461895 
L 177.190083 495.067303 
L 181.818182 497.617912 
L 186.446281 500.078183 
L 191.07438 502.350921 
L 195.702479 504.623659 
L 200.330579 506.896397 
L 204.958678 509.169136 
L 209.586777 511.441874 
L 214.214876 513.714612 
L 218.842975 515.98735 
L 223.471074 518.230389 
L 228.099174 520.198407 
L 232.727273 521.784056 
L 237.355372 523.369704 
L 241.983471 524.955352 
L 246.61157 526.541 
L 251.239669 528.126648 
L 255.867769 529.712296 
L 260.495868 531.297944 
L 265.123967 532.883592 
L 269.752066 534.46924 
L 274.380165 536.054888 
L 279.008264 537.640536 
L 283.636364 539.226184 
L 288.264463 540.811833 
L 292.892562 542.397481 
L 297.520661 543.983129 
L 302.14876 545.568777 
L 306.77686 547.154425 
L 311.404959 548.740073 
L 316.033058 550.325721 
L 320.661157 551.911369 
L 325.289256 553.497017 
L 329.917355 555.082665 
L 334.545455 556.668313 
L 339.173554 558.053665 
L 343.801653 558.990224 
L 348.429752 560.169561 
L 353.057851 561.326886 
L 357.68595 562.455144 
L 362.31405 563.562035 
L 366.942149 564.634982 
L 371.570248 565.686079 
L 376.198347 566.696983 
L 380.826446 567.65454 
L 385.454545 568.562081 
L 390.082645 569.425572 
L 394.710744 570.251142 
L 399.338843 571.036252 
L 403.966942 571.787638 
L 408.595041 572.497627 
L 413.22314 573.167735 
L 417.85124 573.785432 
L 422.479339 574.347483 
L 427.107438 574.843613 
L 431.735537 575.284716 
L 436.363636 575.680825 
L 440.991736 576.034528 
L 445.619835 576.347229 
L 450.247934 576.613247 
L 454.876033 576.835496 
L 459.504132 577.014051 
L 464.132231 577.137358 
L 468.760331 577.192098 
L 473.38843 577.199947 
L 478.016529 577.195589 
L 482.644628 577.181672 
L 487.272727 577.150513 
L 491.900826 577.11031 
L 496.528926 577.068158 
L 501.157025 577.031733 
L 505.785124 577.019288 
L 510.413223 577.039985 
L 515.041322 577.095313 
L 519.669421 577.33509 
L 524.297521 577.786689 
L 528.92562 578.471228 
L 533.553719 579.397099 
L 538.181818 580.620031 
L 542.809917 582.223573 
L 547.438017 584.278567 
L 552.066116 586.9292 
L 556.694215 590.351695 
L 561.322314 594.192602 
L 565.950413 599.634551 
L 570.578512 606.521405 
L 575.206612 614.766299 
L 579.834711 620.654367 
L 584.46281 637.299261 
L 589.090909 661.51296 
" style="fill:none;stroke:#2ca02c;stroke-linecap:square;stroke-width:8;"/>
   </g>
   <g id="line2d_34">
    <path clip-path="url(#p56b46c80d8)" d="M 108 576 
L 612 576 
" style="fill:none;stroke:#000000;stroke-dasharray:3.2,0.8,0.5,0.8;stroke-dashoffset:0;stroke-width:0.5;"/>
   </g>
   <g id="line2d_35">
    <path clip-path="url(#p56b46c80d8)" d="M 130.909091 650.10336 
L 135.53719 556.917362 
L 140.165289 518.967784 
L 144.793388 510.79636 
L 149.421488 506.582943 
L 154.049587 504.034757 
L 158.677686 502.660422 
L 163.305785 501.854028 
L 167.933884 501.494476 
L 172.561983 501.387694 
L 177.190083 501.460735 
L 181.818182 501.654012 
L 186.446281 501.939821 
L 191.07438 502.301443 
L 195.702479 502.725906 
L 200.330579 503.184323 
L 204.958678 503.662058 
L 209.586777 504.192643 
L 214.214876 504.76623 
L 218.842975 505.35838 
L 223.471074 505.958766 
L 228.099174 506.574713 
L 232.727273 507.20826 
L 237.355372 507.855682 
L 241.983471 508.5188 
L 246.61157 509.203454 
L 251.239669 509.902853 
L 255.867769 510.619783 
L 260.495868 511.354803 
L 265.123967 512.104669 
L 269.752066 512.869567 
L 274.380165 513.652563 
L 279.008264 514.456369 
L 283.636364 515.276418 
L 288.264463 516.113468 
L 292.892562 516.962545 
L 297.520661 517.822832 
L 302.14876 518.691617 
L 306.77686 519.57278 
L 311.404959 520.467919 
L 316.033058 521.377797 
L 320.661157 522.300773 
L 325.289256 523.240463 
L 329.917355 524.203134 
L 334.545455 525.179605 
L 339.173554 526.159969 
L 343.801653 527.143007 
L 348.429752 528.137287 
L 353.057851 529.360805 
L 357.68595 530.083425 
L 362.31405 531.185049 
L 366.942149 532.229852 
L 371.570248 533.289715 
L 376.198347 534.365027 
L 380.826446 535.454842 
L 385.454545 536.558148 
L 390.082645 537.673216 
L 394.710744 538.796174 
L 399.338843 539.916068 
L 403.966942 541.038582 
L 408.595041 542.170754 
L 413.22314 543.317689 
L 417.85124 544.484805 
L 422.479339 545.664427 
L 427.107438 546.857589 
L 431.735537 548.060652 
L 436.363636 549.277485 
L 440.991736 550.508495 
L 445.619835 551.749436 
L 450.247934 553.003829 
L 454.876033 554.267133 
L 459.504132 555.532942 
L 464.132231 556.809325 
L 468.760331 558.108253 
L 473.38843 559.437227 
L 478.016529 560.796933 
L 482.644628 562.191949 
L 487.272727 563.626487 
L 491.900826 565.104323 
L 496.528926 566.631813 
L 501.157025 568.219173 
L 505.785124 569.869527 
L 510.413223 571.588442 
L 515.041322 573.385389 
L 519.669421 575.292675 
L 524.297521 577.310879 
L 528.92562 579.456896 
L 533.553719 581.760789 
L 538.181818 584.275688 
L 542.809917 587.018503 
L 547.438017 590.07559 
L 552.066116 593.25731 
L 556.694215 597.007614 
L 561.322314 601.575474 
L 565.950413 607.079513 
L 570.578512 613.888249 
L 575.206612 618.183716 
L 579.834711 628.5356 
L 584.46281 646.822203 
L 589.090909 677.70336 
" style="fill:none;stroke:#d62728;stroke-linecap:square;stroke-width:8;"/>
   </g>
   <g id="line2d_36">
    <path clip-path="url(#p56b46c80d8)" d="M 108 576 
L 612 576 
" style="fill:none;stroke:#000000;stroke-dasharray:3.2,0.8,0.5,0.8;stroke-dashoffset:0;stroke-width:0.5;"/>
   </g>
   <g id="patch_8">
    <path d="M 108 720 
L 108 432 
" style="fill:none;stroke:#000000;stroke-linecap:square;stroke-linejoin:miter;stroke-width:0.8;"/>
   </g>
   <g id="patch_9">
    <path d="M 612 720 
L 612 432 
" style="fill:none;stroke:#000000;stroke-linecap:square;stroke-linejoin:miter;stroke-width:0.8;"/>
   </g>
   <g id="patch_10">
    <path d="M 108 720 
L 612 720 
" style="fill:none;stroke:#000000;stroke-linecap:square;stroke-linejoin:miter;stroke-width:0.8;"/>
   </g>
   <g id="patch_11">
    <path d="M 108 432 
L 612 432 
" style="fill:none;stroke:#000000;stroke-linecap:square;stroke-linejoin:miter;stroke-width:0.8;"/>
   </g>
   <g id="text_14">
    <!-- $\^t = 0.15$ -->
    <g transform="translate(599.19 585.784688)scale(0.42 -0.42)">
     <use transform="translate(39.042969 16.59375)" xlink:href="#STIXGeneral-Regular-770"/>
     <use transform="translate(0 0.203125)" xlink:href="#STIXGeneral-Italic-116"/>
     <use transform="translate(42.239984 0.203125)" xlink:href="#STIXGeneral-Regular-61"/>
     <use transform="translate(125.179965 0.203125)" xlink:href="#STIXGeneral-Regular-48"/>
     <use transform="translate(175.17995 0.203125)" xlink:href="#STIXGeneral-Regular-46"/>
     <use transform="translate(200.179935 0.203125)" xlink:href="#STIXGeneral-Regular-49"/>
     <use transform="translate(250.179919 0.203125)" xlink:href="#STIXGeneral-Regular-53"/>
    </g>
   </g>
  </g>
  <g id="axes_3">
   <g id="patch_12">
    <path d="M 108 1036.8 
L 612 1036.8 
L 612 748.8 
L 108 748.8 
z
" style="fill:#ffffff;"/>
   </g>
   <g id="matplotlib.axis_5">
    <g id="xtick_7">
     <g id="line2d_37">
      <g>
       <use style="fill:#ffffff;stroke:#000000;stroke-width:0.8;" x="130.909091" xlink:href="#m34a9a82cfe" y="1036.8"/>
      </g>
     </g>
     <g id="text_15">
      <!-- 0.0 -->
      <g transform="translate(104.659091 1072.484688)scale(0.42 -0.42)">
       <use xlink:href="#STIXGeneral-Regular-48"/>
       <use x="49.999985" xlink:href="#STIXGeneral-Regular-46"/>
       <use x="74.999969" xlink:href="#STIXGeneral-Regular-48"/>
      </g>
     </g>
    </g>
    <g id="xtick_8">
     <g id="line2d_38">
      <g>
       <use style="fill:#ffffff;stroke:#000000;stroke-width:0.8;" x="360" xlink:href="#m34a9a82cfe" y="1036.8"/>
      </g>
     </g>
     <g id="text_16">
      <!-- 0.5 -->
      <g transform="translate(333.75 1072.484688)scale(0.42 -0.42)">
       <use xlink:href="#STIXGeneral-Regular-48"/>
       <use x="49.999985" xlink:href="#STIXGeneral-Regular-46"/>
       <use x="74.999969" xlink:href="#STIXGeneral-Regular-53"/>
      </g>
     </g>
    </g>
    <g id="xtick_9">
     <g id="line2d_39">
      <g>
       <use style="fill:#ffffff;stroke:#000000;stroke-width:0.8;" x="589.090909" xlink:href="#m34a9a82cfe" y="1036.8"/>
      </g>
     </g>
     <g id="text_17">
      <!-- 1.0 -->
      <g transform="translate(562.840909 1072.484688)scale(0.42 -0.42)">
       <use xlink:href="#STIXGeneral-Regular-49"/>
       <use x="49.999985" xlink:href="#STIXGeneral-Regular-46"/>
       <use x="74.999969" xlink:href="#STIXGeneral-Regular-48"/>
      </g>
     </g>
    </g>
    <g id="text_18">
     <!-- x/c -->
     <g transform="translate(334.337344 1114.284688)scale(0.42 -0.42)">
      <defs>
       <path d="M 47.90625 0 
L 27.796875 0 
L 27.796875 1.5 
Q 30.296875 1.703125 31.046875 2.140625 
Q 31.796875 2.59375 31.796875 3.90625 
Q 31.796875 4.796875 31.203125 5.703125 
L 22.09375 19.703125 
L 14.203125 7.40625 
Q 12.203125 4.296875 12.203125 3.296875 
Q 12.203125 1.5 16.203125 1.5 
L 16.203125 0 
L 1.703125 0 
L 1.703125 1.5 
Q 4.203125 1.703125 5.546875 2.640625 
Q 6.90625 3.59375 9 6.59375 
L 20.40625 23.09375 
L 11 37.5 
Q 8.703125 41 7.09375 42.25 
Q 5.5 43.5 3.296875 43.5 
L 2.40625 43.5 
L 2.40625 45 
L 23.09375 45 
L 23.09375 43.5 
Q 18.796875 43.40625 18.796875 41.296875 
Q 18.796875 39.203125 23.40625 32.40625 
Q 24.703125 30.59375 24.796875 30.40625 
Q 25.296875 31.09375 27.796875 34.796875 
Q 28.296875 35.703125 29 36.703125 
Q 29.703125 37.703125 30.046875 38.296875 
Q 30.40625 38.90625 30.796875 39.5 
Q 31.203125 40.09375 31.34375 40.546875 
Q 31.5 41 31.5 41.296875 
Q 31.5 43.203125 27.5 43.5 
L 27.5 45 
L 43.296875 45 
L 43.296875 43.5 
Q 38.203125 43.296875 35.203125 39.09375 
L 26.90625 27.09375 
L 39.703125 7.5 
Q 43.59375 1.5 47.90625 1.5 
z
" id="STIXGeneral-Regular-120"/>
      </defs>
      <use xlink:href="#STIXGeneral-Regular-120"/>
      <use x="49.999985" xlink:href="#STIXGeneral-Regular-47"/>
      <use x="77.799973" xlink:href="#STIXGeneral-Regular-99"/>
     </g>
    </g>
   </g>
   <g id="matplotlib.axis_6">
    <g id="ytick_7">
     <g id="line2d_40">
      <g>
       <use style="fill:#ffffff;stroke:#000000;stroke-width:0.8;" x="108" xlink:href="#m61bd96033f" y="988.8"/>
      </g>
     </g>
     <g id="text_19">
      <!-- −2 -->
      <g transform="translate(51.23 1003.142344)scale(0.42 -0.42)">
       <use xlink:href="#STIXGeneral-Regular-8722"/>
       <use x="68.499985" xlink:href="#STIXGeneral-Regular-50"/>
      </g>
     </g>
    </g>
    <g id="ytick_8">
     <g id="line2d_41">
      <g>
       <use style="fill:#ffffff;stroke:#000000;stroke-width:0.8;" x="108" xlink:href="#m61bd96033f" y="892.8"/>
      </g>
     </g>
     <g id="text_20">
      <!-- 0 -->
      <g transform="translate(80 907.142344)scale(0.42 -0.42)">
       <use xlink:href="#STIXGeneral-Regular-48"/>
      </g>
     </g>
    </g>
    <g id="ytick_9">
     <g id="line2d_42">
      <g>
       <use style="fill:#ffffff;stroke:#000000;stroke-width:0.8;" x="108" xlink:href="#m61bd96033f" y="796.8"/>
      </g>
     </g>
     <g id="text_21">
      <!-- 2 -->
      <g transform="translate(80 811.142344)scale(0.42 -0.42)">
       <use xlink:href="#STIXGeneral-Regular-50"/>
      </g>
     </g>
    </g>
    <g id="text_22">
     <!-- Cp -->
     <g transform="translate(38.114688 917.307656)rotate(-90)scale(0.42 -0.42)">
      <use xlink:href="#STIXGeneral-Regular-67"/>
      <use x="66.699997" xlink:href="#STIXGeneral-Regular-112"/>
     </g>
    </g>
   </g>
   <g id="line2d_43">
    <path clip-path="url(#p474e070f1a)" d="M 130.909091 816.74544 
L 135.53719 848.214123 
L 140.165289 858.595559 
L 144.793388 864.949021 
L 149.421488 869.633389 
L 154.049587 872.77815 
L 158.677686 875.292205 
L 163.305785 877.276902 
L 167.933884 878.913598 
L 172.561983 880.290899 
L 177.190083 881.471101 
L 181.818182 882.495938 
L 186.446281 883.391313 
L 191.07438 884.191519 
L 195.702479 884.90495 
L 200.330579 885.545296 
L 204.958678 886.12459 
L 209.586777 886.650762 
L 214.214876 887.13018 
L 218.842975 887.569886 
L 223.471074 887.974409 
L 228.099174 888.345334 
L 232.727273 888.685004 
L 237.355372 888.998288 
L 241.983471 889.28931 
L 246.61157 889.558607 
L 251.239669 889.80728 
L 255.867769 890.035549 
L 260.495868 890.244183 
L 265.123967 890.434144 
L 269.752066 890.606009 
L 274.380165 890.761002 
L 279.008264 890.902303 
L 283.636364 891.031496 
L 288.264463 891.147435 
L 292.892562 891.25067 
L 297.520661 891.341084 
L 302.14876 891.41735 
L 306.77686 891.479086 
L 311.404959 891.525245 
L 316.033058 891.556163 
L 320.661157 891.574439 
L 325.289256 891.58138 
L 329.917355 891.577279 
L 334.545455 891.560495 
L 339.173554 891.529698 
L 343.801653 891.485037 
L 348.429752 891.425732 
L 353.057851 891.350366 
L 357.68595 891.259157 
L 362.31405 891.154111 
L 366.942149 891.034739 
L 371.570248 890.900649 
L 376.198347 890.750943 
L 380.826446 890.584841 
L 385.454545 890.40047 
L 390.082645 890.194875 
L 394.710744 889.967082 
L 399.338843 889.718139 
L 403.966942 889.447899 
L 408.595041 889.155702 
L 413.22314 888.839509 
L 417.85124 888.495997 
L 422.479339 888.124511 
L 427.107438 887.722564 
L 431.735537 887.28777 
L 436.363636 886.81867 
L 440.991736 886.31381 
L 445.619835 885.771854 
L 450.247934 885.190405 
L 454.876033 884.565802 
L 459.504132 883.894386 
L 464.132231 883.171906 
L 468.760331 882.389711 
L 473.38843 881.545628 
L 478.016529 880.635139 
L 482.644628 879.654161 
L 487.272727 878.595629 
L 491.900826 877.44843 
L 496.528926 876.202091 
L 501.157025 874.840369 
L 505.785124 873.374015 
L 510.413223 871.761742 
L 515.041322 869.993002 
L 519.669421 868.037442 
L 524.297521 865.878407 
L 528.92562 863.484378 
L 533.553719 860.811505 
L 538.181818 857.796265 
L 542.809917 854.362841 
L 547.438017 850.412462 
L 552.066116 845.832576 
L 556.694215 841.396255 
L 561.322314 833.980952 
L 565.950413 826.00021 
L 570.578512 816.359875 
L 575.206612 801.827626 
L 579.834711 784.003152 
L 584.46281 762.44236 
L 589.090909 705.583104 
" style="fill:none;stroke:#1f77b4;stroke-linecap:square;stroke-width:8;"/>
   </g>
   <g id="line2d_44">
    <path clip-path="url(#p474e070f1a)" d="M 108 892.8 
L 612 892.8 
" style="fill:none;stroke:#000000;stroke-dasharray:3.2,0.8,0.5,0.8;stroke-dashoffset:0;stroke-width:0.5;"/>
   </g>
   <g id="line2d_45">
    <path clip-path="url(#p474e070f1a)" d="M 130.909091 846.10368 
L 135.53719 862.353341 
L 140.165289 869.574112 
L 144.793388 873.369734 
L 149.421488 876.601104 
L 154.049587 878.957137 
L 158.677686 880.748941 
L 163.305785 882.228858 
L 167.933884 883.461895 
L 172.561983 884.507019 
L 177.190083 885.402538 
L 181.818182 886.188286 
L 186.446281 886.881927 
L 191.07438 887.498617 
L 195.702479 888.049274 
L 200.330579 888.5473 
L 204.958678 888.996172 
L 209.586777 889.401644 
L 214.214876 889.76972 
L 218.842975 890.104294 
L 223.471074 890.408105 
L 228.099174 890.682873 
L 232.727273 890.932067 
L 237.355372 891.15708 
L 241.983471 891.359863 
L 246.61157 891.543528 
L 251.239669 891.709187 
L 255.867769 891.856799 
L 260.495868 891.98696 
L 265.123967 892.101187 
L 269.752066 892.199555 
L 274.380165 892.281051 
L 279.008264 892.346519 
L 283.636364 892.396291 
L 288.264463 892.432419 
L 292.892562 892.453852 
L 297.520661 892.46256 
L 302.14876 892.458185 
L 306.77686 892.440336 
L 311.404959 892.408806 
L 316.033058 892.363264 
L 320.661157 892.302659 
L 325.289256 892.226406 
L 329.917355 892.153591 
L 334.545455 892.032912 
L 339.173554 891.913933 
L 343.801653 891.779273 
L 348.429752 891.629909 
L 353.057851 891.464258 
L 357.68595 891.280598 
L 362.31405 891.080178 
L 366.942149 890.861964 
L 371.570248 890.624841 
L 376.198347 890.367963 
L 380.826446 890.092377 
L 385.454545 889.797674 
L 390.082645 889.480603 
L 394.710744 889.142601 
L 399.338843 888.782494 
L 403.966942 888.397025 
L 408.595041 887.983546 
L 413.22314 887.543187 
L 417.85124 887.075524 
L 422.479339 886.576363 
L 427.107438 886.047162 
L 431.735537 885.486531 
L 436.363636 884.89179 
L 440.991736 884.25843 
L 445.619835 883.585924 
L 450.247934 882.871417 
L 454.876033 882.109058 
L 459.504132 881.29917 
L 464.132231 880.440073 
L 468.760331 879.527671 
L 473.38843 878.554394 
L 478.016529 877.520465 
L 482.644628 876.42036 
L 487.272727 875.242188 
L 491.900826 873.981831 
L 496.528926 872.63339 
L 501.157025 871.187972 
L 505.785124 869.612426 
L 510.413223 867.946826 
L 515.041322 866.135923 
L 519.669421 864.169334 
L 524.297521 862.024695 
L 528.92562 859.682765 
L 533.553719 857.099828 
L 538.181818 854.216245 
L 542.809917 851.010725 
L 547.438017 847.420755 
L 552.066116 843.338758 
L 556.694215 838.618332 
L 561.322314 833.095425 
L 565.950413 826.770961 
L 570.578512 818.769424 
L 575.206612 805.168069 
L 579.834711 795.836256 
L 584.46281 773.938853 
L 589.090909 734.41344 
" style="fill:none;stroke:#ff7f0e;stroke-linecap:square;stroke-width:8;"/>
   </g>
   <g id="line2d_46">
    <path clip-path="url(#p474e070f1a)" d="M 108 892.8 
L 612 892.8 
" style="fill:none;stroke:#000000;stroke-dasharray:3.2,0.8,0.5,0.8;stroke-dashoffset:0;stroke-width:0.5;"/>
   </g>
   <g id="line2d_47">
    <path clip-path="url(#p474e070f1a)" d="M 130.909091 892.91424 
L 135.53719 892.934556 
L 140.165289 892.970838 
L 144.793388 893.00988 
L 149.421488 893.047739 
L 154.049587 893.084267 
L 158.677686 893.119503 
L 163.305785 893.153633 
L 167.933884 893.187022 
L 172.561983 893.22034 
L 177.190083 893.252989 
L 181.818182 893.28434 
L 186.446281 893.314332 
L 191.07438 893.343976 
L 195.702479 893.370386 
L 200.330579 893.392111 
L 204.958678 893.410484 
L 209.586777 893.426612 
L 214.214876 893.441305 
L 218.842975 893.454999 
L 223.471074 893.467595 
L 228.099174 893.479073 
L 232.727273 893.489852 
L 237.355372 893.499515 
L 241.983471 893.508151 
L 246.61157 893.516044 
L 251.239669 893.522951 
L 255.867769 893.529858 
L 260.495868 893.536766 
L 265.123967 893.543147 
L 269.752066 893.548484 
L 274.380165 893.553069 
L 279.008264 893.557735 
L 283.636364 893.560579 
L 288.264463 893.559301 
L 292.892562 893.554666 
L 297.520661 893.547613 
L 302.14876 893.539487 
L 306.77686 893.531201 
L 311.404959 893.522249 
L 316.033058 893.512498 
L 320.661157 893.502441 
L 325.289256 893.491847 
L 329.917355 893.480615 
L 334.545455 893.468907 
L 339.173554 893.457145 
L 343.801653 893.44589 
L 348.429752 893.434597 
L 353.057851 893.423544 
L 357.68595 893.412206 
L 362.31405 893.401022 
L 366.942149 893.390662 
L 371.570248 893.380697 
L 376.198347 893.366354 
L 380.826446 893.349146 
L 385.454545 893.330749 
L 390.082645 893.312095 
L 394.710744 893.293587 
L 399.338843 893.275323 
L 403.966942 893.257851 
L 408.595041 893.241327 
L 413.22314 893.225817 
L 417.85124 893.211131 
L 422.479339 893.197049 
L 427.107438 893.183753 
L 431.735537 893.172176 
L 436.363636 893.162221 
L 440.991736 893.152301 
L 445.619835 893.142629 
L 450.247934 893.135682 
L 454.876033 893.133307 
L 459.504132 893.135081 
L 464.132231 893.13699 
L 468.760331 893.1384 
L 473.38843 893.14144 
L 478.016529 893.146931 
L 482.644628 893.155454 
L 487.272727 893.167578 
L 491.900826 893.184018 
L 496.528926 893.206366 
L 501.157025 893.234961 
L 505.785124 893.269468 
L 510.413223 893.311564 
L 515.041322 893.36175 
L 519.669421 893.419622 
L 524.297521 893.489915 
L 528.92562 893.580242 
L 533.553719 893.658079 
L 538.181818 893.749064 
L 542.809917 893.8773 
L 547.438017 894.047617 
L 552.066116 894.239944 
L 556.694215 894.54468 
L 561.322314 894.915051 
L 565.950413 895.159239 
L 570.578512 895.296429 
L 575.206612 895.466848 
L 579.834711 895.881656 
L 584.46281 896.802123 
L 589.090909 898.03872 
" style="fill:none;stroke:#2ca02c;stroke-linecap:square;stroke-width:8;"/>
   </g>
   <g id="line2d_48">
    <path clip-path="url(#p474e070f1a)" d="M 108 892.8 
L 612 892.8 
" style="fill:none;stroke:#000000;stroke-dasharray:3.2,0.8,0.5,0.8;stroke-dashoffset:0;stroke-width:0.5;"/>
   </g>
   <g id="line2d_49">
    <path clip-path="url(#p474e070f1a)" d="M 130.909091 845.81472 
L 135.53719 862.220698 
L 140.165289 871.347879 
L 144.793388 874.493909 
L 149.421488 876.799789 
L 154.049587 878.761184 
L 158.677686 880.266196 
L 163.305785 881.510877 
L 167.933884 882.533426 
L 172.561983 883.422788 
L 177.190083 884.206348 
L 181.818182 884.912184 
L 186.446281 885.553794 
L 191.07438 886.133762 
L 195.702479 886.667876 
L 200.330579 887.183148 
L 204.958678 887.65951 
L 209.586777 888.094353 
L 214.214876 888.507084 
L 218.842975 888.904103 
L 223.471074 889.285233 
L 228.099174 889.64153 
L 232.727273 889.982961 
L 237.355372 890.31443 
L 241.983471 890.638293 
L 246.61157 890.947521 
L 251.239669 891.242655 
L 255.867769 891.534193 
L 260.495868 891.8198 
L 265.123967 892.097555 
L 269.752066 892.369477 
L 274.380165 892.634287 
L 279.008264 892.891793 
L 283.636364 893.142224 
L 288.264463 893.386743 
L 292.892562 893.626238 
L 297.520661 893.861365 
L 302.14876 894.096307 
L 306.77686 894.331175 
L 311.404959 894.563049 
L 316.033058 894.793077 
L 320.661157 895.020996 
L 325.289256 895.247293 
L 329.917355 895.470659 
L 334.545455 895.691305 
L 339.173554 895.911952 
L 343.801653 896.12825 
L 348.429752 896.34272 
L 353.057851 896.606706 
L 357.68595 896.762391 
L 362.31405 896.998984 
L 366.942149 897.221629 
L 371.570248 897.445313 
L 376.198347 897.670903 
L 380.826446 897.896713 
L 385.454545 898.124688 
L 390.082645 898.352179 
L 394.710744 898.580647 
L 399.338843 898.81163 
L 403.966942 899.040939 
L 408.595041 899.275847 
L 413.22314 899.519346 
L 417.85124 899.771107 
L 422.479339 900.031453 
L 427.107438 900.2991 
L 431.735537 900.57627 
L 436.363636 900.862042 
L 440.991736 901.156723 
L 445.619835 901.462325 
L 450.247934 901.774184 
L 454.876033 902.099411 
L 459.504132 902.434372 
L 464.132231 902.777677 
L 468.760331 903.14355 
L 473.38843 903.530309 
L 478.016529 903.93847 
L 482.644628 904.371667 
L 487.272727 904.832505 
L 491.900826 905.32116 
L 496.528926 905.840196 
L 501.157025 906.397711 
L 505.785124 906.996757 
L 510.413223 907.640916 
L 515.041322 908.336313 
L 519.669421 909.101223 
L 524.297521 909.936193 
L 528.92562 910.849929 
L 533.553719 911.858511 
L 538.181818 912.991995 
L 542.809917 914.262412 
L 547.438017 915.701491 
L 552.066116 917.241542 
L 556.694215 919.108653 
L 561.322314 921.407554 
L 565.950413 924.159681 
L 570.578512 927.331852 
L 575.206612 929.870077 
L 579.834711 934.947722 
L 584.46281 943.450253 
L 589.090909 956.14752 
" style="fill:none;stroke:#d62728;stroke-linecap:square;stroke-width:8;"/>
   </g>
   <g id="line2d_50">
    <path clip-path="url(#p474e070f1a)" d="M 108 892.8 
L 612 892.8 
" style="fill:none;stroke:#000000;stroke-dasharray:3.2,0.8,0.5,0.8;stroke-dashoffset:0;stroke-width:0.5;"/>
   </g>
   <g id="patch_13">
    <path d="M 108 1036.8 
L 108 748.8 
" style="fill:none;stroke:#000000;stroke-linecap:square;stroke-linejoin:miter;stroke-width:0.8;"/>
   </g>
   <g id="patch_14">
    <path d="M 612 1036.8 
L 612 748.8 
" style="fill:none;stroke:#000000;stroke-linecap:square;stroke-linejoin:miter;stroke-width:0.8;"/>
   </g>
   <g id="patch_15">
    <path d="M 108 1036.8 
L 612 1036.8 
" style="fill:none;stroke:#000000;stroke-linecap:square;stroke-linejoin:miter;stroke-width:0.8;"/>
   </g>
   <g id="patch_16">
    <path d="M 108 748.8 
L 612 748.8 
" style="fill:none;stroke:#000000;stroke-linecap:square;stroke-linejoin:miter;stroke-width:0.8;"/>
   </g>
   <g id="text_23">
    <!-- $\^t = 0.25$ -->
    <g transform="translate(599.19 902.584687)scale(0.42 -0.42)">
     <use transform="translate(39.042969 16.59375)" xlink:href="#STIXGeneral-Regular-770"/>
     <use transform="translate(0 0.203125)" xlink:href="#STIXGeneral-Italic-116"/>
     <use transform="translate(42.239984 0.203125)" xlink:href="#STIXGeneral-Regular-61"/>
     <use transform="translate(125.179965 0.203125)" xlink:href="#STIXGeneral-Regular-48"/>
     <use transform="translate(175.17995 0.203125)" xlink:href="#STIXGeneral-Regular-46"/>
     <use transform="translate(200.179935 0.203125)" xlink:href="#STIXGeneral-Regular-50"/>
     <use transform="translate(250.179919 0.203125)" xlink:href="#STIXGeneral-Regular-53"/>
    </g>
   </g>
  </g>
 </g>
 <defs>
  <clipPath id="p887748e681">
   <rect height="288" width="504" x="108" y="115.2"/>
  </clipPath>
  <clipPath id="p56b46c80d8">
   <rect height="288" width="504" x="108" y="432"/>
  </clipPath>
  <clipPath id="p474e070f1a">
   <rect height="288" width="504" x="108" y="748.8"/>
  </clipPath>
 </defs>
</svg>
