<?xml version="1.0" encoding="utf-8" standalone="no"?>
<!DOCTYPE svg PUBLIC "-//W3C//DTD SVG 1.1//EN"
  "http://www.w3.org/Graphics/SVG/1.1/DTD/svg11.dtd">
<!-- Created with matplotlib (https://matplotlib.org/) -->
<svg height="1152pt" version="1.1" viewBox="0 0 720 1152" width="720pt" xmlns="http://www.w3.org/2000/svg" xmlns:xlink="http://www.w3.org/1999/xlink">
 <metadata>
  <rdf:RDF xmlns:cc="http://creativecommons.org/ns#" xmlns:dc="http://purl.org/dc/elements/1.1/" xmlns:rdf="http://www.w3.org/1999/02/22-rdf-syntax-ns#">
   <cc:Work>
    <dc:type rdf:resource="http://purl.org/dc/dcmitype/StillImage"/>
    <dc:date>2022-05-11T21:37:02.202559</dc:date>
    <dc:format>image/svg+xml</dc:format>
    <dc:creator>
     <cc:Agent>
      <dc:title>Matplotlib v3.3.4, https://matplotlib.org/</dc:title>
     </cc:Agent>
    </dc:creator>
   </cc:Work>
  </rdf:RDF>
 </metadata>
 <defs>
  <style type="text/css">*{stroke-linecap:butt;stroke-linejoin:round;}</style>
 </defs>
 <g id="figure_1">
  <g id="patch_1">
   <path d="M 0 1152 
L 720 1152 
L 720 0 
L 0 0 
z
" style="fill:#ffffff;"/>
  </g>
  <g id="axes_1">
   <g id="patch_2">
    <path d="M 108 385.2 
L 612 385.2 
L 612 133.2 
L 108 133.2 
z
" style="fill:#ffffff;"/>
   </g>
   <g id="PathCollection_1"/>
   <g id="PathCollection_2"/>
   <g id="PathCollection_3"/>
   <g id="PathCollection_4"/>
   <g id="PathCollection_5"/>
   <g id="PathCollection_6"/>
   <g id="PathCollection_7"/>
   <g id="PathCollection_8"/>
   <g id="PathCollection_9">
    <path clip-path="url(#p2c0c26b32e)" d="M 511.2 135.286333 
L 612 133.540181 
L 612 133.2 
L 511.2 133.2 
L 476.176668 133.2 
z
" style="fill:#f2a17f;"/>
   </g>
   <g id="PathCollection_10">
    <path clip-path="url(#p2c0c26b32e)" d="M 511.2 137.612474 
L 612 136.841589 
L 612 133.540181 
L 511.2 135.286333 
L 476.176668 133.2 
L 437.127682 133.2 
z
" style="fill:#f6b394;"/>
   </g>
   <g id="PathCollection_11">
    <path clip-path="url(#p2c0c26b32e)" d="M 410.4 134.116883 
L 511.2 139.938615 
L 612 140.142997 
L 612 136.841589 
L 511.2 137.612474 
L 437.127682 133.2 
L 410.4 133.2 
L 398.323625 133.2 
z
" style="fill:#f9c6ac;"/>
   </g>
   <g id="PathCollection_12">
    <path clip-path="url(#p2c0c26b32e)" d="M 410.4 137.022692 
L 511.2 142.264756 
L 612 143.444405 
L 612 140.142997 
L 511.2 139.938615 
L 410.4 134.116883 
L 398.323625 133.2 
L 360.050876 133.2 
z
" style="fill:#fdd9c4;"/>
   </g>
   <g id="PathCollection_13">
    <path clip-path="url(#p2c0c26b32e)" d="M 410.4 139.928501 
L 511.2 144.590897 
L 612 146.745814 
L 612 143.444405 
L 511.2 142.264756 
L 410.4 137.022692 
L 360.050876 133.2 
L 321.778127 133.2 
z
" style="fill:#fbe4d6;"/>
   </g>
   <g id="PathCollection_14">
    <path clip-path="url(#p2c0c26b32e)" d="M 309.6 136.275342 
L 410.4 142.83431 
L 511.2 146.917038 
L 612 150.047222 
L 612 146.745814 
L 511.2 144.590897 
L 410.4 139.928501 
L 321.778127 133.2 
L 309.6 133.2 
L 266.335103 133.2 
z
" style="fill:#f9eee7;"/>
   </g>
   <g id="PathCollection_15">
    <path clip-path="url(#p2c0c26b32e)" d="M 130.251048 357.2 
L 141.347487 329.2 
L 136.083541 301.2 
L 132.553095 273.2 
L 130.719086 245.2 
L 128.871018 217.2 
L 124.33305 189.2 
L 122.230206 161.2 
L 208.8 134.226111 
L 309.6 140.785918 
L 410.4 145.740119 
L 511.2 149.243179 
L 612 153.34863 
L 612 150.047222 
L 511.2 146.917038 
L 410.4 142.83431 
L 309.6 136.275342 
L 266.335103 133.2 
L 208.8 133.2 
L 108 133.2 
L 108 161.2 
L 108 189.2 
L 108 217.2 
L 108 245.2 
L 108 273.2 
L 108 301.2 
L 108 329.2 
L 108 357.2 
L 108 385.2 
L 128.345366 385.2 
z
" style="fill:#f6f7f7;"/>
   </g>
   <g id="PathCollection_16">
    <path clip-path="url(#p2c0c26b32e)" d="M 177.337778 357.2 
L 208.8 331.260421 
L 210.85978 329.2 
L 208.8 323.114896 
L 197.131241 301.2 
L 187.330691 273.2 
L 181.266729 245.2 
L 177.191058 217.2 
L 162.210104 189.2 
L 157.523036 161.2 
L 208.8 145.222843 
L 309.6 145.296495 
L 410.4 148.645929 
L 511.2 151.56932 
L 612 156.650038 
L 612 153.34863 
L 511.2 149.243179 
L 410.4 145.740119 
L 309.6 140.785918 
L 208.8 134.226111 
L 122.230206 161.2 
L 124.33305 189.2 
L 128.871018 217.2 
L 130.719086 245.2 
L 132.553095 273.2 
L 136.083541 301.2 
L 141.347487 329.2 
L 130.251048 357.2 
L 128.345366 385.2 
L 171.125672 385.2 
z
" style="fill:#eaf1f5;"/>
   </g>
   <g id="PathCollection_17">
    <path clip-path="url(#p2c0c26b32e)" d="M 208.8 385.2 
L 212.858015 385.2 
L 220.487429 357.2 
L 249.669169 329.2 
L 236.287119 301.2 
L 228.123149 273.2 
L 222.883781 245.2 
L 219.392359 217.2 
L 208.8 200.384487 
L 200.087158 189.2 
L 192.815865 161.2 
L 208.8 156.219576 
L 309.6 149.807071 
L 410.4 151.551738 
L 511.2 153.895461 
L 612 159.951446 
L 612 156.650038 
L 511.2 151.56932 
L 410.4 148.645929 
L 309.6 145.296495 
L 208.8 145.222843 
L 157.523036 161.2 
L 162.210104 189.2 
L 177.191058 217.2 
L 181.266729 245.2 
L 187.330691 273.2 
L 197.131241 301.2 
L 208.8 323.114896 
L 210.85978 329.2 
L 208.8 331.260421 
L 177.337778 357.2 
L 171.125672 385.2 
z
" style="fill:#ddebf2;"/>
   </g>
   <g id="PathCollection_18">
    <path clip-path="url(#p2c0c26b32e)" d="M 255.709201 357.2 
L 288.478559 329.2 
L 270.26973 301.2 
L 259.901297 273.2 
L 253.816707 245.2 
L 250.0201 217.2 
L 232.069128 189.2 
L 235.403781 161.2 
L 309.6 154.317648 
L 410.4 154.457547 
L 511.2 156.221602 
L 589.306866 161.2 
L 612 164.754693 
L 612 161.2 
L 612 159.951446 
L 511.2 153.895461 
L 410.4 151.551738 
L 309.6 149.807071 
L 208.8 156.219576 
L 192.815865 161.2 
L 200.087158 189.2 
L 208.8 200.384487 
L 219.392359 217.2 
L 222.883781 245.2 
L 228.123149 273.2 
L 236.287119 301.2 
L 249.669169 329.2 
L 220.487429 357.2 
L 212.858015 385.2 
L 246.857994 385.2 
z
" style="fill:#cfe4ef;"/>
   </g>
   <g id="PathCollection_19">
    <path clip-path="url(#p2c0c26b32e)" d="M 290.930973 357.2 
L 309.6 342.145142 
L 321.745797 329.2 
L 309.6 308.386426 
L 304.252341 301.2 
L 291.679445 273.2 
L 284.749634 245.2 
L 280.647842 217.2 
L 262.289936 189.2 
L 284.030719 161.2 
L 309.6 158.828224 
L 410.4 157.363356 
L 511.2 158.547742 
L 552.81168 161.2 
L 612 170.471364 
L 612 164.754693 
L 589.306866 161.2 
L 511.2 156.221602 
L 410.4 154.457547 
L 309.6 154.317648 
L 235.403781 161.2 
L 232.069128 189.2 
L 250.0201 217.2 
L 253.816707 245.2 
L 259.901297 273.2 
L 270.26973 301.2 
L 288.478559 329.2 
L 255.709201 357.2 
L 246.857994 385.2 
L 280.857973 385.2 
z
" style="fill:#b8d8e9;"/>
   </g>
   <g id="PathCollection_20">
    <path clip-path="url(#p2c0c26b32e)" d="M 309.6 385.2 
L 317.376498 385.2 
L 325.248303 357.2 
L 348.395068 329.2 
L 329.989125 301.2 
L 319.742165 273.2 
L 314.167048 245.2 
L 310.899174 217.2 
L 309.6 214.730063 
L 292.510743 189.2 
L 309.6 173.970482 
L 369.758797 161.2 
L 410.4 160.269165 
L 511.2 160.873883 
L 516.316495 161.2 
L 612 176.188035 
L 612 170.471364 
L 552.81168 161.2 
L 511.2 158.547742 
L 410.4 157.363356 
L 309.6 158.828224 
L 284.030719 161.2 
L 262.289936 189.2 
L 280.647842 217.2 
L 284.749634 245.2 
L 291.679445 273.2 
L 304.252341 301.2 
L 309.6 308.386426 
L 321.745797 329.2 
L 309.6 342.145142 
L 290.930973 357.2 
L 280.857973 385.2 
z
" style="fill:#a2cde3;"/>
   </g>
   <g id="PathCollection_21">
    <path clip-path="url(#p2c0c26b32e)" d="M 358.54556 357.2 
L 375.044339 329.2 
L 354.185978 301.2 
L 343.000115 273.2 
L 337.392821 245.2 
L 334.646589 217.2 
L 322.135261 189.2 
L 410.4 166.289404 
L 511.2 165.709633 
L 612 181.904706 
L 612 176.188035 
L 516.316495 161.2 
L 511.2 160.873883 
L 410.4 160.269165 
L 369.758797 161.2 
L 309.6 173.970482 
L 292.510743 189.2 
L 309.6 214.730063 
L 310.899174 217.2 
L 314.167048 245.2 
L 319.742165 273.2 
L 329.989125 301.2 
L 348.395068 329.2 
L 325.248303 357.2 
L 317.376498 385.2 
L 367.662379 385.2 
z
" style="fill:#8dc2dc;"/>
   </g>
   <g id="PathCollection_22">
    <path clip-path="url(#p2c0c26b32e)" d="M 410.4 385.2 
L 422.329257 385.2 
L 410.4 379.258748 
L 391.842817 357.2 
L 401.69361 329.2 
L 378.38283 301.2 
L 366.258066 273.2 
L 360.618594 245.2 
L 358.394005 217.2 
L 350.983775 189.2 
L 410.4 173.77752 
L 511.2 170.954591 
L 612 187.621377 
L 612 181.904706 
L 511.2 165.709633 
L 410.4 166.289404 
L 322.135261 189.2 
L 334.646589 217.2 
L 337.392821 245.2 
L 343.000115 273.2 
L 354.185978 301.2 
L 375.044339 329.2 
L 358.54556 357.2 
L 367.662379 385.2 
z
" style="fill:#71b0d3;"/>
    <path clip-path="url(#p2c0c26b32e)" d="M 612 385.2 
L 612 377.185506 
L 570.50194 385.2 
z
" style="fill:#71b0d3;"/>
   </g>
   <g id="PathCollection_23">
    <path clip-path="url(#p2c0c26b32e)" d="M 410.4 379.258748 
L 422.329257 385.2 
L 501.800981 385.2 
L 431.959392 357.2 
L 438.670211 329.2 
L 410.4 310.281327 
L 402.579683 301.2 
L 389.516016 273.2 
L 383.844366 245.2 
L 382.14142 217.2 
L 379.832289 189.2 
L 410.4 181.265637 
L 511.2 176.199548 
L 589.216423 189.2 
L 612 209.351139 
L 612 189.2 
L 612 187.621377 
L 511.2 170.954591 
L 410.4 173.77752 
L 350.983775 189.2 
L 358.394005 217.2 
L 360.618594 245.2 
L 366.258066 273.2 
L 378.38283 301.2 
L 401.69361 329.2 
L 391.842817 357.2 
z
" style="fill:#569fc9;"/>
    <path clip-path="url(#p2c0c26b32e)" d="M 612 377.185506 
L 612 366.943829 
L 517.471806 385.2 
L 570.50194 385.2 
z
" style="fill:#569fc9;"/>
   </g>
   <g id="PathCollection_24">
    <path clip-path="url(#p2c0c26b32e)" d="M 511.2 385.2 
L 517.471806 385.2 
L 612 366.943829 
L 612 357.2 
L 612 329.2 
L 612 301.2 
L 612 273.2 
L 612 245.2 
L 612 217.2 
L 612 209.351139 
L 589.216423 189.2 
L 511.2 176.199548 
L 410.4 181.265637 
L 379.832289 189.2 
L 382.14142 217.2 
L 383.844366 245.2 
L 389.516016 273.2 
L 402.579683 301.2 
L 410.4 310.281327 
L 438.670211 329.2 
L 431.959392 357.2 
L 501.800981 385.2 
z
M 480.661224 357.2 
L 480.657921 329.2 
L 435.999226 301.2 
L 414.075917 273.2 
L 410.4 261.555653 
L 407.070139 245.2 
L 405.888835 217.2 
L 408.680803 189.2 
L 410.4 188.753754 
L 511.2 181.444506 
L 557.741146 189.2 
L 588.530294 217.2 
L 594.979025 245.2 
L 596.161142 273.2 
L 595.025839 301.2 
L 606.229069 329.2 
L 604.748061 357.2 
L 511.2 368.836874 
z
" style="fill:#3f8ec0;"/>
   </g>
   <g id="PathCollection_25">
    <path clip-path="url(#p2c0c26b32e)" d="M 511.2 368.836874 
L 604.748061 357.2 
L 606.229069 329.2 
L 595.025839 301.2 
L 596.161142 273.2 
L 594.979025 245.2 
L 588.530294 217.2 
L 557.741146 189.2 
L 511.2 181.444506 
L 410.4 188.753754 
L 408.680803 189.2 
L 405.888835 217.2 
L 407.070139 245.2 
L 410.4 261.555653 
L 414.075917 273.2 
L 435.999226 301.2 
L 480.657921 329.2 
L 480.661224 357.2 
z
M 473.822899 301.2 
L 450.089181 273.2 
L 443.853862 245.2 
L 447.924319 217.2 
L 477.199648 189.2 
L 511.2 186.689463 
L 526.26587 189.2 
L 555.845332 217.2 
L 564.228647 245.2 
L 564.657854 273.2 
L 552.864025 301.2 
L 511.2 323.146125 
z
" style="fill:#337eb8;"/>
   </g>
   <g id="PathCollection_26">
    <path clip-path="url(#p2c0c26b32e)" d="M 511.2 323.146125 
L 552.864025 301.2 
L 564.657854 273.2 
L 564.228647 245.2 
L 555.845332 217.2 
L 526.26587 189.2 
L 511.2 186.689463 
L 477.199648 189.2 
L 447.924319 217.2 
L 443.853862 245.2 
L 450.089181 273.2 
L 473.822899 301.2 
z
M 486.102445 273.2 
L 482.9067 245.2 
L 494.248607 217.2 
L 511.2 205.65223 
L 523.160371 217.2 
L 533.47827 245.2 
L 533.154565 273.2 
L 511.2 300.733534 
z
" style="fill:#276eb0;"/>
   </g>
   <g id="PathCollection_27">
    <path clip-path="url(#p2c0c26b32e)" d="M 511.2 300.733534 
L 533.154565 273.2 
L 533.47827 245.2 
L 523.160371 217.2 
L 511.2 205.65223 
L 494.248607 217.2 
L 482.9067 245.2 
L 486.102445 273.2 
z
" style="fill:#1d5fa2;"/>
   </g>
   <g id="PathCollection_28"/>
   <g id="PathCollection_29"/>
   <g id="matplotlib.axis_1">
    <g id="xtick_1">
     <g id="line2d_1">
      <path clip-path="url(#p2c0c26b32e)" d="M 108 385.2 
L 108 133.2 
" style="fill:none;stroke:#b0b0b0;stroke-dasharray:3.2,0.8,0.5,0.8;stroke-dashoffset:0;stroke-width:0.5;"/>
     </g>
     <g id="line2d_2">
      <defs>
       <path d="M 0 0 
L 0 3.5 
" id="m062af46b69" style="stroke:#000000;stroke-width:0.8;"/>
      </defs>
      <g>
       <use style="fill:#ffffff;stroke:#000000;stroke-width:0.8;" x="108" xlink:href="#m062af46b69" y="385.2"/>
      </g>
     </g>
     <g id="text_1">
      <!-- 0 -->
      <g transform="translate(102 408.59125)scale(0.24 -0.24)">
       <defs>
        <path d="M 47.59375 33 
Q 47.59375 26.296875 46.296875 20.34375 
Q 45 14.40625 42.453125 9.40625 
Q 39.90625 4.40625 35.40625 1.5 
Q 30.90625 -1.40625 25 -1.40625 
Q 18.90625 -1.40625 14.296875 1.6875 
Q 9.703125 4.796875 7.203125 10 
Q 4.703125 15.203125 3.546875 21.09375 
Q 2.40625 27 2.40625 33.59375 
Q 2.40625 42.90625 4.703125 50.34375 
Q 7 57.796875 12.34375 62.6875 
Q 17.703125 67.59375 25.40625 67.59375 
Q 35.203125 67.59375 41.390625 58 
Q 47.59375 48.40625 47.59375 33 
z
M 38 32.5 
Q 38 48.296875 34.640625 56.640625 
Q 31.296875 65 24.796875 65 
Q 18.59375 65 15.296875 56.59375 
Q 12 48.203125 12 32.90625 
Q 12 17.5 15.296875 9.34375 
Q 18.59375 1.203125 25 1.203125 
Q 31.296875 1.203125 34.640625 9.34375 
Q 38 17.5 38 32.5 
z
" id="STIXGeneral-Regular-48"/>
       </defs>
       <use xlink:href="#STIXGeneral-Regular-48"/>
      </g>
     </g>
    </g>
    <g id="xtick_2">
     <g id="line2d_3">
      <path clip-path="url(#p2c0c26b32e)" d="M 301.536 385.2 
L 301.536 133.2 
" style="fill:none;stroke:#b0b0b0;stroke-dasharray:3.2,0.8,0.5,0.8;stroke-dashoffset:0;stroke-width:0.5;"/>
     </g>
     <g id="line2d_4">
      <g>
       <use style="fill:#ffffff;stroke:#000000;stroke-width:0.8;" x="301.536" xlink:href="#m062af46b69" y="385.2"/>
      </g>
     </g>
     <g id="text_2">
      <!-- 1 -->
      <g transform="translate(295.536 408.59125)scale(0.24 -0.24)">
       <defs>
        <path d="M 39.40625 0 
L 11.796875 0 
L 11.796875 1.5 
Q 17.296875 1.796875 19.296875 3.546875 
Q 21.296875 5.296875 21.296875 9.5 
L 21.296875 54.40625 
Q 21.296875 59.296875 18.296875 59.296875 
Q 16.90625 59.296875 13.796875 58.09375 
L 11.09375 57.09375 
L 11.09375 58.5 
L 29 67.59375 
L 29.90625 67.296875 
L 29.90625 7.59375 
Q 29.90625 4.296875 31.90625 2.890625 
Q 33.90625 1.5 39.40625 1.5 
z
" id="STIXGeneral-Regular-49"/>
       </defs>
       <use xlink:href="#STIXGeneral-Regular-49"/>
      </g>
     </g>
    </g>
    <g id="xtick_3">
     <g id="line2d_5">
      <path clip-path="url(#p2c0c26b32e)" d="M 495.072 385.2 
L 495.072 133.2 
" style="fill:none;stroke:#b0b0b0;stroke-dasharray:3.2,0.8,0.5,0.8;stroke-dashoffset:0;stroke-width:0.5;"/>
     </g>
     <g id="line2d_6">
      <g>
       <use style="fill:#ffffff;stroke:#000000;stroke-width:0.8;" x="495.072" xlink:href="#m062af46b69" y="385.2"/>
      </g>
     </g>
     <g id="text_3">
      <!-- 2 -->
      <g transform="translate(489.072 408.59125)scale(0.24 -0.24)">
       <defs>
        <path d="M 47.40625 13.703125 
L 42 0 
L 2.90625 0 
L 2.90625 1.203125 
L 20.703125 20.09375 
Q 27.703125 27.40625 30.703125 33.5 
Q 33.703125 39.59375 33.703125 46.09375 
Q 33.703125 52.796875 30 56.5 
Q 26.296875 60.203125 19.796875 60.203125 
Q 14.40625 60.203125 11.25 57.390625 
Q 8.09375 54.59375 5.09375 47.203125 
L 3 47.703125 
Q 4.703125 57 9.84375 62.296875 
Q 15 67.59375 23.796875 67.59375 
Q 32.09375 67.59375 37.1875 62.59375 
Q 42.296875 57.59375 42.296875 50 
Q 42.296875 38.703125 29.5 25.203125 
L 13 7.59375 
L 36.40625 7.59375 
Q 39.703125 7.59375 41.640625 8.890625 
Q 43.59375 10.203125 46 14.296875 
z
" id="STIXGeneral-Regular-50"/>
       </defs>
       <use xlink:href="#STIXGeneral-Regular-50"/>
      </g>
     </g>
    </g>
   </g>
   <g id="matplotlib.axis_2">
    <g id="ytick_1">
     <g id="line2d_7">
      <path clip-path="url(#p2c0c26b32e)" d="M 108 357.2 
L 612 357.2 
" style="fill:none;stroke:#b0b0b0;stroke-dasharray:3.2,0.8,0.5,0.8;stroke-dashoffset:0;stroke-width:0.5;"/>
     </g>
     <g id="line2d_8">
      <defs>
       <path d="M 0 0 
L -3.5 0 
" id="m163e6e8862" style="stroke:#000000;stroke-width:0.8;"/>
      </defs>
      <g>
       <use style="fill:#ffffff;stroke:#000000;stroke-width:0.8;" x="108" xlink:href="#m163e6e8862" y="357.2"/>
      </g>
     </g>
     <g id="text_4">
      <!-- 0.1 -->
      <g transform="translate(71 365.395625)scale(0.24 -0.24)">
       <defs>
        <path d="M 18.09375 4.296875 
Q 18.09375 2.09375 16.4375 0.5 
Q 14.796875 -1.09375 12.5 -1.09375 
Q 10.203125 -1.09375 8.59375 0.5 
Q 7 2.09375 7 4.390625 
Q 7 6.703125 8.640625 8.34375 
Q 10.296875 10 12.59375 10 
Q 14.796875 10 16.4375 8.296875 
Q 18.09375 6.59375 18.09375 4.296875 
z
" id="STIXGeneral-Regular-46"/>
       </defs>
       <use xlink:href="#STIXGeneral-Regular-48"/>
       <use x="49.999985" xlink:href="#STIXGeneral-Regular-46"/>
       <use x="74.999969" xlink:href="#STIXGeneral-Regular-49"/>
      </g>
     </g>
    </g>
    <g id="ytick_2">
     <g id="line2d_9">
      <path clip-path="url(#p2c0c26b32e)" d="M 108 301.2 
L 612 301.2 
" style="fill:none;stroke:#b0b0b0;stroke-dasharray:3.2,0.8,0.5,0.8;stroke-dashoffset:0;stroke-width:0.5;"/>
     </g>
     <g id="line2d_10">
      <g>
       <use style="fill:#ffffff;stroke:#000000;stroke-width:0.8;" x="108" xlink:href="#m163e6e8862" y="301.2"/>
      </g>
     </g>
     <g id="text_5">
      <!-- 0.2 -->
      <g transform="translate(71 309.395625)scale(0.24 -0.24)">
       <use xlink:href="#STIXGeneral-Regular-48"/>
       <use x="49.999985" xlink:href="#STIXGeneral-Regular-46"/>
       <use x="74.999969" xlink:href="#STIXGeneral-Regular-50"/>
      </g>
     </g>
    </g>
    <g id="ytick_3">
     <g id="line2d_11">
      <path clip-path="url(#p2c0c26b32e)" d="M 108 245.2 
L 612 245.2 
" style="fill:none;stroke:#b0b0b0;stroke-dasharray:3.2,0.8,0.5,0.8;stroke-dashoffset:0;stroke-width:0.5;"/>
     </g>
     <g id="line2d_12">
      <g>
       <use style="fill:#ffffff;stroke:#000000;stroke-width:0.8;" x="108" xlink:href="#m163e6e8862" y="245.2"/>
      </g>
     </g>
     <g id="text_6">
      <!-- 0.3 -->
      <g transform="translate(71 253.395625)scale(0.24 -0.24)">
       <defs>
        <path d="M 6.09375 51 
L 4.5 51.40625 
Q 6.796875 58.90625 11.6875 63.25 
Q 16.59375 67.59375 24.09375 67.59375 
Q 31.09375 67.59375 35.390625 63.796875 
Q 39.703125 60 39.703125 53.90625 
Q 39.703125 45.703125 30.40625 40.09375 
Q 35.90625 37.703125 38.703125 34.796875 
Q 43.09375 29.90625 43.09375 21.90625 
Q 43.09375 13.90625 38.5 7.90625 
Q 35.09375 3.296875 28.75 0.9375 
Q 22.40625 -1.40625 15.296875 -1.40625 
Q 4.09375 -1.40625 4.09375 4.296875 
Q 4.09375 5.90625 5.296875 6.90625 
Q 6.5 7.90625 8.203125 7.90625 
Q 10.703125 7.90625 14.296875 5.296875 
Q 18.703125 2.203125 22.90625 2.203125 
Q 28.40625 2.203125 32.15625 6.640625 
Q 35.90625 11.09375 35.90625 17.5 
Q 35.90625 29 25.5 32 
Q 22.40625 33 15.296875 33 
L 15.296875 34.40625 
Q 20.90625 36.296875 23.703125 38 
Q 31.796875 42.59375 31.796875 51.40625 
Q 31.796875 56.40625 28.9375 59 
Q 26.09375 61.59375 21 61.59375 
Q 12 61.59375 6.09375 51 
z
" id="STIXGeneral-Regular-51"/>
       </defs>
       <use xlink:href="#STIXGeneral-Regular-48"/>
       <use x="49.999985" xlink:href="#STIXGeneral-Regular-46"/>
       <use x="74.999969" xlink:href="#STIXGeneral-Regular-51"/>
      </g>
     </g>
    </g>
    <g id="ytick_4">
     <g id="line2d_13">
      <path clip-path="url(#p2c0c26b32e)" d="M 108 189.2 
L 612 189.2 
" style="fill:none;stroke:#b0b0b0;stroke-dasharray:3.2,0.8,0.5,0.8;stroke-dashoffset:0;stroke-width:0.5;"/>
     </g>
     <g id="line2d_14">
      <g>
       <use style="fill:#ffffff;stroke:#000000;stroke-width:0.8;" x="108" xlink:href="#m163e6e8862" y="189.2"/>
      </g>
     </g>
     <g id="text_7">
      <!-- 0.4 -->
      <g transform="translate(71 197.395625)scale(0.24 -0.24)">
       <defs>
        <path d="M 47.296875 16.703125 
L 37 16.703125 
L 37 0 
L 29.203125 0 
L 29.203125 16.703125 
L 1.203125 16.703125 
L 1.203125 23.09375 
L 32.59375 67.59375 
L 37 67.59375 
L 37 23.09375 
L 47.296875 23.09375 
z
M 29.203125 23.09375 
L 29.203125 57.40625 
L 5.203125 23.09375 
z
" id="STIXGeneral-Regular-52"/>
       </defs>
       <use xlink:href="#STIXGeneral-Regular-48"/>
       <use x="49.999985" xlink:href="#STIXGeneral-Regular-46"/>
       <use x="74.999969" xlink:href="#STIXGeneral-Regular-52"/>
      </g>
     </g>
    </g>
    <g id="ytick_5">
     <g id="line2d_15">
      <path clip-path="url(#p2c0c26b32e)" d="M 108 133.2 
L 612 133.2 
" style="fill:none;stroke:#b0b0b0;stroke-dasharray:3.2,0.8,0.5,0.8;stroke-dashoffset:0;stroke-width:0.5;"/>
     </g>
     <g id="line2d_16">
      <g>
       <use style="fill:#ffffff;stroke:#000000;stroke-width:0.8;" x="108" xlink:href="#m163e6e8862" y="133.2"/>
      </g>
     </g>
     <g id="text_8">
      <!-- 0.5 -->
      <g transform="translate(71 141.395625)scale(0.24 -0.24)">
       <defs>
        <path d="M 43.796875 68.09375 
L 40.203125 59.59375 
Q 39.59375 58.296875 37.5 58.296875 
L 18.09375 58.296875 
L 14.09375 49.796875 
Q 25.09375 47.703125 30 45.25 
Q 34.90625 42.796875 39.09375 37 
Q 42.59375 32.203125 42.59375 24.296875 
Q 42.59375 17.09375 40.25 12.1875 
Q 37.90625 7.296875 32.796875 3.5 
Q 26 -1.40625 15.796875 -1.40625 
Q 10.09375 -1.40625 6.59375 0.296875 
Q 3.09375 2 3.09375 4.796875 
Q 3.09375 8.59375 7.59375 8.59375 
Q 11.203125 8.59375 15 5.5 
Q 18.90625 2.296875 22.09375 2.296875 
Q 27.296875 2.296875 31.4375 7.5 
Q 35.59375 12.703125 35.59375 19.203125 
Q 35.59375 28.796875 28.90625 34.203125 
Q 20.203125 41.203125 7.59375 41.203125 
Q 6.40625 41.203125 6.40625 42 
L 6.5 42.5 
L 17.40625 66.203125 
L 38.09375 66.203125 
Q 39.796875 66.203125 40.75 66.703125 
Q 41.703125 67.203125 42.90625 68.796875 
z
" id="STIXGeneral-Regular-53"/>
       </defs>
       <use xlink:href="#STIXGeneral-Regular-48"/>
       <use x="49.999985" xlink:href="#STIXGeneral-Regular-46"/>
       <use x="74.999969" xlink:href="#STIXGeneral-Regular-53"/>
      </g>
     </g>
    </g>
   </g>
   <g id="LineCollection_1"/>
   <g id="LineCollection_2"/>
   <g id="LineCollection_3"/>
   <g id="LineCollection_4"/>
   <g id="LineCollection_5"/>
   <g id="LineCollection_6"/>
   <g id="LineCollection_7"/>
   <g id="LineCollection_8"/>
   <g id="LineCollection_9"/>
   <g id="LineCollection_10">
    <path clip-path="url(#p2c0c26b32e)" d="M 612 133.540181 
L 511.2 135.286333 
L 476.176668 133.2 
" style="fill:none;stroke:#000000;stroke-dasharray:1.85,0.8;stroke-dashoffset:0;stroke-width:0.5;"/>
   </g>
   <g id="LineCollection_11">
    <path clip-path="url(#p2c0c26b32e)" d="M 612 136.841589 
L 511.2 137.612474 
L 437.127682 133.2 
" style="fill:none;stroke:#000000;stroke-dasharray:1.85,0.8;stroke-dashoffset:0;stroke-width:0.5;"/>
   </g>
   <g id="LineCollection_12">
    <path clip-path="url(#p2c0c26b32e)" d="M 612 140.142997 
L 511.2 139.938615 
L 410.4 134.116883 
L 398.323625 133.2 
" style="fill:none;stroke:#000000;stroke-dasharray:1.85,0.8;stroke-dashoffset:0;stroke-width:0.5;"/>
   </g>
   <g id="LineCollection_13">
    <path clip-path="url(#p2c0c26b32e)" d="M 612 143.444405 
L 511.2 142.264756 
L 410.4 137.022692 
L 360.050876 133.2 
" style="fill:none;stroke:#000000;stroke-dasharray:1.85,0.8;stroke-dashoffset:0;stroke-width:0.5;"/>
   </g>
   <g id="LineCollection_14">
    <path clip-path="url(#p2c0c26b32e)" d="M 612 146.745814 
L 511.2 144.590897 
L 410.4 139.928501 
L 321.778127 133.2 
" style="fill:none;stroke:#000000;stroke-dasharray:1.85,0.8;stroke-dashoffset:0;stroke-width:0.5;"/>
   </g>
   <g id="LineCollection_15">
    <path clip-path="url(#p2c0c26b32e)" d="M 612 150.047222 
L 511.2 146.917038 
L 410.4 142.83431 
L 309.6 136.275342 
L 266.335103 133.2 
" style="fill:none;stroke:#000000;stroke-dasharray:1.85,0.8;stroke-dashoffset:0;stroke-width:0.5;"/>
   </g>
   <g id="LineCollection_16">
    <path clip-path="url(#p2c0c26b32e)" d="M 612 153.34863 
L 511.2 149.243179 
L 410.4 145.740119 
L 309.6 140.785918 
L 208.8 134.226111 
L 122.230206 161.2 
L 124.33305 189.2 
L 128.871018 217.2 
L 130.719086 245.2 
L 132.553095 273.2 
L 136.083541 301.2 
L 141.347487 329.2 
L 130.251048 357.2 
L 128.345366 385.2 
" style="fill:none;stroke:#000000;stroke-width:0.5;"/>
   </g>
   <g id="LineCollection_17">
    <path clip-path="url(#p2c0c26b32e)" d="M 612 156.650038 
L 511.2 151.56932 
L 410.4 148.645929 
L 309.6 145.296495 
L 208.8 145.222843 
L 157.523036 161.2 
L 162.210104 189.2 
L 177.191058 217.2 
L 181.266729 245.2 
L 187.330691 273.2 
L 197.131241 301.2 
L 208.8 323.114896 
L 210.85978 329.2 
L 208.8 331.260421 
L 177.337778 357.2 
L 171.125672 385.2 
" style="fill:none;stroke:#000000;stroke-width:0.5;"/>
   </g>
   <g id="LineCollection_18">
    <path clip-path="url(#p2c0c26b32e)" d="M 612 159.951446 
L 511.2 153.895461 
L 410.4 151.551738 
L 309.6 149.807071 
L 208.8 156.219576 
L 192.815865 161.2 
L 200.087158 189.2 
L 208.8 200.384487 
L 219.392359 217.2 
L 222.883781 245.2 
L 228.123149 273.2 
L 236.287119 301.2 
L 249.669169 329.2 
L 220.487429 357.2 
L 212.858015 385.2 
" style="fill:none;stroke:#000000;stroke-width:0.5;"/>
   </g>
   <g id="LineCollection_19">
    <path clip-path="url(#p2c0c26b32e)" d="M 612 164.754693 
L 589.306866 161.2 
L 511.2 156.221602 
L 410.4 154.457547 
L 309.6 154.317648 
L 235.403781 161.2 
L 232.069128 189.2 
L 250.0201 217.2 
L 253.816707 245.2 
L 259.901297 273.2 
L 270.26973 301.2 
L 288.478559 329.2 
L 255.709201 357.2 
L 246.857994 385.2 
" style="fill:none;stroke:#000000;stroke-width:0.5;"/>
   </g>
   <g id="LineCollection_20">
    <path clip-path="url(#p2c0c26b32e)" d="M 612 170.471364 
L 552.81168 161.2 
L 511.2 158.547742 
L 410.4 157.363356 
L 309.6 158.828224 
L 284.030719 161.2 
L 262.289936 189.2 
L 280.647842 217.2 
L 284.749634 245.2 
L 291.679445 273.2 
L 304.252341 301.2 
L 309.6 308.386426 
L 321.745797 329.2 
L 309.6 342.145142 
L 290.930973 357.2 
L 280.857973 385.2 
" style="fill:none;stroke:#000000;stroke-width:0.5;"/>
   </g>
   <g id="LineCollection_21">
    <path clip-path="url(#p2c0c26b32e)" d="M 612 176.188035 
L 516.316495 161.2 
L 511.2 160.873883 
L 410.4 160.269165 
L 369.758797 161.2 
L 309.6 173.970482 
L 292.510743 189.2 
L 309.6 214.730063 
L 310.899174 217.2 
L 314.167048 245.2 
L 319.742165 273.2 
L 329.989125 301.2 
L 348.395068 329.2 
L 325.248303 357.2 
L 317.376498 385.2 
" style="fill:none;stroke:#000000;stroke-width:0.5;"/>
   </g>
   <g id="LineCollection_22">
    <path clip-path="url(#p2c0c26b32e)" d="M 612 181.904706 
L 511.2 165.709633 
L 410.4 166.289404 
L 322.135261 189.2 
L 334.646589 217.2 
L 337.392821 245.2 
L 343.000115 273.2 
L 354.185978 301.2 
L 375.044339 329.2 
L 358.54556 357.2 
L 367.662379 385.2 
" style="fill:none;stroke:#000000;stroke-width:0.5;"/>
   </g>
   <g id="LineCollection_23">
    <path clip-path="url(#p2c0c26b32e)" d="M 570.50194 385.2 
L 612 377.185506 
" style="fill:none;stroke:#000000;stroke-width:0.5;"/>
    <path clip-path="url(#p2c0c26b32e)" d="M 612 187.621377 
L 511.2 170.954591 
L 410.4 173.77752 
L 350.983775 189.2 
L 358.394005 217.2 
L 360.618594 245.2 
L 366.258066 273.2 
L 378.38283 301.2 
L 401.69361 329.2 
L 391.842817 357.2 
L 410.4 379.258748 
L 422.329257 385.2 
" style="fill:none;stroke:#000000;stroke-width:0.5;"/>
   </g>
   <g id="LineCollection_24">
    <path clip-path="url(#p2c0c26b32e)" d="M 517.471806 385.2 
L 612 366.943829 
" style="fill:none;stroke:#000000;stroke-width:0.5;"/>
    <path clip-path="url(#p2c0c26b32e)" d="M 612 209.351139 
L 589.216423 189.2 
L 511.2 176.199548 
L 410.4 181.265637 
L 379.832289 189.2 
L 382.14142 217.2 
L 383.844366 245.2 
L 389.516016 273.2 
L 402.579683 301.2 
L 410.4 310.281327 
L 438.670211 329.2 
L 431.959392 357.2 
L 501.800981 385.2 
" style="fill:none;stroke:#000000;stroke-width:0.5;"/>
   </g>
   <g id="LineCollection_25">
    <path clip-path="url(#p2c0c26b32e)" d="M 511.2 368.836874 
L 604.748061 357.2 
L 606.229069 329.2 
L 595.025839 301.2 
L 596.161142 273.2 
L 594.979025 245.2 
L 588.530294 217.2 
L 557.741146 189.2 
L 511.2 181.444506 
L 410.4 188.753754 
L 408.680803 189.2 
L 405.888835 217.2 
L 407.070139 245.2 
L 410.4 261.555653 
L 414.075917 273.2 
L 435.999226 301.2 
L 480.657921 329.2 
L 480.661224 357.2 
L 511.2 368.836874 
" style="fill:none;stroke:#000000;stroke-width:0.5;"/>
   </g>
   <g id="LineCollection_26">
    <path clip-path="url(#p2c0c26b32e)" d="M 511.2 323.146125 
L 552.864025 301.2 
L 564.657854 273.2 
L 564.228647 245.2 
L 555.845332 217.2 
L 526.26587 189.2 
L 511.2 186.689463 
L 477.199648 189.2 
L 447.924319 217.2 
L 443.853862 245.2 
L 450.089181 273.2 
L 473.822899 301.2 
L 511.2 323.146125 
" style="fill:none;stroke:#000000;stroke-width:0.5;"/>
   </g>
   <g id="LineCollection_27">
    <path clip-path="url(#p2c0c26b32e)" d="M 511.2 300.733534 
L 533.154565 273.2 
L 533.47827 245.2 
L 523.160371 217.2 
L 511.2 205.65223 
L 494.248607 217.2 
L 482.9067 245.2 
L 486.102445 273.2 
L 511.2 300.733534 
" style="fill:none;stroke:#000000;stroke-width:0.5;"/>
   </g>
   <g id="LineCollection_28"/>
   <g id="LineCollection_29"/>
   <g id="LineCollection_30"/>
   <g id="patch_3">
    <path d="M 108 385.2 
L 108 133.2 
" style="fill:none;stroke:#000000;stroke-linecap:square;stroke-linejoin:miter;stroke-width:0.8;"/>
   </g>
   <g id="patch_4">
    <path d="M 612 385.2 
L 612 133.2 
" style="fill:none;stroke:#000000;stroke-linecap:square;stroke-linejoin:miter;stroke-width:0.8;"/>
   </g>
   <g id="patch_5">
    <path d="M 108 385.2 
L 612 385.2 
" style="fill:none;stroke:#000000;stroke-linecap:square;stroke-linejoin:miter;stroke-width:0.8;"/>
   </g>
   <g id="patch_6">
    <path d="M 108 133.2 
L 612 133.2 
" style="fill:none;stroke:#000000;stroke-linecap:square;stroke-linejoin:miter;stroke-width:0.8;"/>
   </g>
  </g>
  <g id="axes_2">
   <g id="patch_7">
    <path d="M 108 702 
L 612 702 
L 612 450 
L 108 450 
z
" style="fill:#ffffff;"/>
   </g>
   <g id="PathCollection_30"/>
   <g id="PathCollection_31"/>
   <g id="PathCollection_32"/>
   <g id="PathCollection_33"/>
   <g id="PathCollection_34"/>
   <g id="PathCollection_35"/>
   <g id="PathCollection_36"/>
   <g id="PathCollection_37"/>
   <g id="PathCollection_38">
    <path clip-path="url(#p64477267b3)" d="M 511.2 450.640504 
L 612 450.708968 
L 612 450 
L 511.2 450 
L 501.919921 450 
z
" style="fill:#f2a17f;"/>
   </g>
   <g id="PathCollection_39">
    <path clip-path="url(#p64477267b3)" d="M 511.2 453.173095 
L 612 454.120022 
L 612 450.708968 
L 511.2 450.640504 
L 501.919921 450 
L 465.225957 450 
z
" style="fill:#f6b394;"/>
   </g>
   <g id="PathCollection_40">
    <path clip-path="url(#p64477267b3)" d="M 511.2 455.705685 
L 612 457.531075 
L 612 454.120022 
L 511.2 453.173095 
L 465.225957 450 
L 428.531992 450 
z
" style="fill:#f9c6ac;"/>
   </g>
   <g id="PathCollection_41">
    <path clip-path="url(#p64477267b3)" d="M 410.4 451.656232 
L 511.2 458.238276 
L 612 460.942128 
L 612 457.531075 
L 511.2 455.705685 
L 428.531992 450 
L 410.4 450 
L 391.078101 450 
z
" style="fill:#fdd9c4;"/>
   </g>
   <g id="PathCollection_42">
    <path clip-path="url(#p64477267b3)" d="M 410.4 454.93033 
L 511.2 460.770866 
L 612 464.353181 
L 612 460.942128 
L 511.2 458.238276 
L 410.4 451.656232 
L 391.078101 450 
L 352.881885 450 
z
" style="fill:#fbe4d6;"/>
   </g>
   <g id="PathCollection_43">
    <path clip-path="url(#p64477267b3)" d="M 410.4 458.204427 
L 511.2 463.303457 
L 612 467.764234 
L 612 464.353181 
L 511.2 460.770866 
L 410.4 454.93033 
L 352.881885 450 
L 314.68567 450 
z
" style="fill:#f9eee7;"/>
   </g>
   <g id="PathCollection_44">
    <path clip-path="url(#p64477267b3)" d="M 139.718561 674 
L 143.22121 646 
L 135.552799 618 
L 132.38536 590 
L 131.109923 562 
L 130.194918 534 
L 125.223657 506 
L 120.835153 478 
L 145.404405 450 
L 108 450 
L 108 478 
L 108 506 
L 108 534 
L 108 562 
L 108 590 
L 108 618 
L 108 646 
L 108 674 
L 108 702 
L 165.366314 702 
z
" style="fill:#f6f7f7;"/>
    <path clip-path="url(#p64477267b3)" d="M 309.6 454.385421 
L 410.4 461.478525 
L 511.2 465.836048 
L 612 471.175287 
L 612 467.764234 
L 511.2 463.303457 
L 410.4 458.204427 
L 314.68567 450 
L 309.6 450 
L 253.703361 450 
z
" style="fill:#f6f7f7;"/>
   </g>
   <g id="PathCollection_45">
    <path clip-path="url(#p64477267b3)" d="M 208.8 702 
L 245.755459 702 
L 208.8 677.890665 
L 202.811432 674 
L 208.8 659.693223 
L 214.012467 646 
L 208.8 638.295983 
L 194.654998 618 
L 186.628797 590 
L 183.11492 562 
L 181.307933 534 
L 164.740845 506 
L 152.91044 478 
L 208.8 454.155105 
L 309.6 459.444427 
L 410.4 464.752623 
L 511.2 468.368638 
L 612 474.58634 
L 612 471.175287 
L 511.2 465.836048 
L 410.4 461.478525 
L 309.6 454.385421 
L 253.703361 450 
L 208.8 450 
L 145.404405 450 
L 120.835153 478 
L 125.223657 506 
L 130.194918 534 
L 131.109923 562 
L 132.38536 590 
L 135.552799 618 
L 143.22121 646 
L 139.718561 674 
L 165.366314 702 
z
" style="fill:#eaf1f5;"/>
   </g>
   <g id="PathCollection_46">
    <path clip-path="url(#p64477267b3)" d="M 208.8 677.890665 
L 245.755459 702 
L 308.586529 702 
L 271.015401 674 
L 271.389327 646 
L 242.531986 618 
L 231.81428 590 
L 227.079192 562 
L 224.867288 534 
L 208.8 511.576847 
L 204.258033 506 
L 184.985727 478 
L 208.8 467.839805 
L 309.6 464.503434 
L 410.4 468.026721 
L 511.2 470.901229 
L 612 477.997393 
L 612 474.58634 
L 511.2 468.368638 
L 410.4 464.752623 
L 309.6 459.444427 
L 208.8 454.155105 
L 152.91044 478 
L 164.740845 506 
L 181.307933 534 
L 183.11492 562 
L 186.628797 590 
L 194.654998 618 
L 208.8 638.295983 
L 214.012467 646 
L 208.8 659.693223 
L 202.811432 674 
z
" style="fill:#ddebf2;"/>
   </g>
   <g id="PathCollection_47">
    <path clip-path="url(#p64477267b3)" d="M 309.6 702 
L 383.37923 702 
L 330.155034 674 
L 320.621419 646 
L 309.6 634.950154 
L 286.877157 618 
L 270.738093 590 
L 263.196681 562 
L 259.635052 534 
L 238.497625 506 
L 222.28363 478 
L 309.6 469.56244 
L 410.4 471.300819 
L 511.2 473.433819 
L 576.055808 478 
L 612 483.676759 
L 612 478 
L 612 477.997393 
L 511.2 470.901229 
L 410.4 468.026721 
L 309.6 464.503434 
L 208.8 467.839805 
L 184.985727 478 
L 204.258033 506 
L 208.8 511.576847 
L 224.867288 534 
L 227.079192 562 
L 231.81428 590 
L 242.531986 618 
L 271.389327 646 
L 271.015401 674 
L 308.586529 702 
z
" style="fill:#cfe4ef;"/>
   </g>
   <g id="PathCollection_48">
    <path clip-path="url(#p64477267b3)" d="M 410.4 702 
L 437.520596 702 
L 410.4 688.755011 
L 377.010779 674 
L 353.615692 646 
L 324.32436 618 
L 309.645614 590 
L 309.6 589.8445 
L 299.31417 562 
L 294.402816 534 
L 272.051855 506 
L 274.636929 478 
L 309.6 474.621447 
L 410.4 474.574916 
L 511.2 475.96641 
L 540.084126 478 
L 612 489.357859 
L 612 483.676759 
L 576.055808 478 
L 511.2 473.433819 
L 410.4 471.300819 
L 309.6 469.56244 
L 222.28363 478 
L 238.497625 506 
L 259.635052 534 
L 263.196681 562 
L 270.738093 590 
L 286.877157 618 
L 309.6 634.950154 
L 320.621419 646 
L 330.155034 674 
L 383.37923 702 
z
" style="fill:#b8d8e9;"/>
   </g>
   <g id="PathCollection_49">
    <path clip-path="url(#p64477267b3)" d="M 410.4 688.755011 
L 437.520596 702 
L 479.918435 702 
L 422.135075 674 
L 410.4 666.020035 
L 386.609965 646 
L 354.522508 618 
L 338.325705 590 
L 329.250016 562 
L 324.755172 534 
L 309.6 510.887358 
L 305.606086 506 
L 309.6 498.613459 
L 398.111897 478 
L 410.4 477.849014 
L 429.517735 478 
L 511.2 479.114939 
L 612 495.03896 
L 612 489.357859 
L 540.084126 478 
L 511.2 475.96641 
L 410.4 474.574916 
L 309.6 474.621447 
L 274.636929 478 
L 272.051855 506 
L 294.402816 534 
L 299.31417 562 
L 309.6 589.8445 
L 309.645614 590 
L 324.32436 618 
L 353.615692 646 
L 377.010779 674 
z
" style="fill:#a2cde3;"/>
   </g>
   <g id="PathCollection_50">
    <path clip-path="url(#p64477267b3)" d="M 511.2 702 
L 519.183388 702 
L 511.2 696.914159 
L 462.966375 674 
L 418.777667 646 
L 410.4 639.083476 
L 384.720656 618 
L 367.005796 590 
L 356.724412 562 
L 351.678821 534 
L 338.512612 506 
L 410.4 486.494337 
L 511.2 484.773621 
L 612 500.72006 
L 612 495.03896 
L 511.2 479.114939 
L 429.517735 478 
L 410.4 477.849014 
L 398.111897 478 
L 309.6 498.613459 
L 305.606086 506 
L 309.6 510.887358 
L 324.755172 534 
L 329.250016 562 
L 338.325705 590 
L 354.522508 618 
L 386.609965 646 
L 410.4 666.020035 
L 422.135075 674 
L 479.918435 702 
z
" style="fill:#8dc2dc;"/>
   </g>
   <g id="PathCollection_51">
    <path clip-path="url(#p64477267b3)" d="M 511.2 696.914159 
L 519.183388 702 
L 549.632295 702 
L 511.2 677.516593 
L 503.797675 674 
L 448.808947 646 
L 415.581744 618 
L 410.4 611.677387 
L 395.685887 590 
L 384.198808 562 
L 378.60247 534 
L 371.331626 506 
L 410.4 495.399329 
L 511.2 490.432303 
L 609.4775 506 
L 612 507.839929 
L 612 506 
L 612 500.72006 
L 511.2 484.773621 
L 410.4 486.494337 
L 338.512612 506 
L 351.678821 534 
L 356.724412 562 
L 367.005796 590 
L 384.720656 618 
L 410.4 639.083476 
L 418.777667 646 
L 462.966375 674 
z
" style="fill:#71b0d3;"/>
   </g>
   <g id="PathCollection_52">
    <path clip-path="url(#p64477267b3)" d="M 511.2 677.516593 
L 549.632295 702 
L 580.081202 702 
L 525.408504 674 
L 511.2 661.910916 
L 478.840227 646 
L 450.210174 618 
L 430.398231 590 
L 412.446748 562 
L 410.4 556.293109 
L 405.526119 534 
L 404.15064 506 
L 410.4 504.304321 
L 511.2 496.090985 
L 573.754738 506 
L 612 533.896353 
L 612 507.839929 
L 609.4775 506 
L 511.2 490.432303 
L 410.4 495.399329 
L 371.331626 506 
L 378.60247 534 
L 384.198808 562 
L 395.685887 590 
L 410.4 611.677387 
L 415.581744 618 
L 448.808947 646 
L 503.797675 674 
z
" style="fill:#569fc9;"/>
   </g>
   <g id="PathCollection_53">
    <path clip-path="url(#p64477267b3)" d="M 542.763259 674 
L 511.2 647.144892 
L 508.871507 646 
L 484.838603 618 
L 471.465965 590 
L 456.613403 562 
L 448.350717 534 
L 462.687994 506 
L 511.2 501.749667 
L 538.031976 506 
L 569.318879 534 
L 572.500294 562 
L 576.22086 590 
L 612 610.090503 
L 612 590 
L 612 562 
L 612 534 
L 612 533.896353 
L 573.754738 506 
L 511.2 496.090985 
L 410.4 504.304321 
L 404.15064 506 
L 405.526119 534 
L 410.4 556.293109 
L 412.446748 562 
L 430.398231 590 
L 450.210174 618 
L 478.840227 646 
L 511.2 661.910916 
L 525.408504 674 
L 580.081202 702 
L 610.530109 702 
z
" style="fill:#3f8ec0;"/>
   </g>
   <g id="PathCollection_54">
    <path clip-path="url(#p64477267b3)" d="M 612 702 
L 612 695.238564 
L 560.118014 674 
L 558.61955 646 
L 612 630.101309 
L 612 618 
L 612 610.090503 
L 576.22086 590 
L 572.500294 562 
L 569.318879 534 
L 538.031976 506 
L 511.2 501.749667 
L 462.687994 506 
L 448.350717 534 
L 456.613403 562 
L 471.465965 590 
L 484.838603 618 
L 508.871507 646 
L 511.2 647.144892 
L 542.763259 674 
L 610.530109 702 
z
M 500.780057 562 
L 494.690062 534 
L 511.2 517.515383 
L 526.467304 534 
L 522.901509 562 
L 511.2 586.612069 
z
" style="fill:#337eb8;"/>
   </g>
   <g id="PathCollection_55">
    <path clip-path="url(#p64477267b3)" d="M 612 695.238564 
L 612 688.13417 
L 577.472769 674 
L 610.02484 646 
L 612 645.411724 
L 612 630.101309 
L 558.61955 646 
L 560.118014 674 
z
" style="fill:#276eb0;"/>
    <path clip-path="url(#p64477267b3)" d="M 511.2 586.612069 
L 522.901509 562 
L 526.467304 534 
L 511.2 517.515383 
L 494.690062 534 
L 500.780057 562 
z
" style="fill:#276eb0;"/>
   </g>
   <g id="PathCollection_56">
    <path clip-path="url(#p64477267b3)" d="M 612 688.13417 
L 612 681.029776 
L 594.827524 674 
L 612 659.799658 
L 612 646 
L 612 645.411724 
L 610.02484 646 
L 577.472769 674 
z
" style="fill:#1d5fa2;"/>
   </g>
   <g id="PathCollection_57">
    <path clip-path="url(#p64477267b3)" d="M 612 681.029776 
L 612 674 
L 612 659.799658 
L 594.827524 674 
z
" style="fill:#134c87;"/>
   </g>
   <g id="PathCollection_58"/>
   <g id="matplotlib.axis_3">
    <g id="xtick_4">
     <g id="line2d_17">
      <path clip-path="url(#p64477267b3)" d="M 108 702 
L 108 450 
" style="fill:none;stroke:#b0b0b0;stroke-dasharray:3.2,0.8,0.5,0.8;stroke-dashoffset:0;stroke-width:0.5;"/>
     </g>
     <g id="line2d_18">
      <g>
       <use style="fill:#ffffff;stroke:#000000;stroke-width:0.8;" x="108" xlink:href="#m062af46b69" y="702"/>
      </g>
     </g>
     <g id="text_9">
      <!-- 0 -->
      <g transform="translate(102 725.39125)scale(0.24 -0.24)">
       <use xlink:href="#STIXGeneral-Regular-48"/>
      </g>
     </g>
    </g>
    <g id="xtick_5">
     <g id="line2d_19">
      <path clip-path="url(#p64477267b3)" d="M 301.536 702 
L 301.536 450 
" style="fill:none;stroke:#b0b0b0;stroke-dasharray:3.2,0.8,0.5,0.8;stroke-dashoffset:0;stroke-width:0.5;"/>
     </g>
     <g id="line2d_20">
      <g>
       <use style="fill:#ffffff;stroke:#000000;stroke-width:0.8;" x="301.536" xlink:href="#m062af46b69" y="702"/>
      </g>
     </g>
     <g id="text_10">
      <!-- 1 -->
      <g transform="translate(295.536 725.39125)scale(0.24 -0.24)">
       <use xlink:href="#STIXGeneral-Regular-49"/>
      </g>
     </g>
    </g>
    <g id="xtick_6">
     <g id="line2d_21">
      <path clip-path="url(#p64477267b3)" d="M 495.072 702 
L 495.072 450 
" style="fill:none;stroke:#b0b0b0;stroke-dasharray:3.2,0.8,0.5,0.8;stroke-dashoffset:0;stroke-width:0.5;"/>
     </g>
     <g id="line2d_22">
      <g>
       <use style="fill:#ffffff;stroke:#000000;stroke-width:0.8;" x="495.072" xlink:href="#m062af46b69" y="702"/>
      </g>
     </g>
     <g id="text_11">
      <!-- 2 -->
      <g transform="translate(489.072 725.39125)scale(0.24 -0.24)">
       <use xlink:href="#STIXGeneral-Regular-50"/>
      </g>
     </g>
    </g>
   </g>
   <g id="matplotlib.axis_4">
    <g id="ytick_6">
     <g id="line2d_23">
      <path clip-path="url(#p64477267b3)" d="M 108 674 
L 612 674 
" style="fill:none;stroke:#b0b0b0;stroke-dasharray:3.2,0.8,0.5,0.8;stroke-dashoffset:0;stroke-width:0.5;"/>
     </g>
     <g id="line2d_24">
      <g>
       <use style="fill:#ffffff;stroke:#000000;stroke-width:0.8;" x="108" xlink:href="#m163e6e8862" y="674"/>
      </g>
     </g>
     <g id="text_12">
      <!-- 0.1 -->
      <g transform="translate(71 682.195625)scale(0.24 -0.24)">
       <use xlink:href="#STIXGeneral-Regular-48"/>
       <use x="49.999985" xlink:href="#STIXGeneral-Regular-46"/>
       <use x="74.999969" xlink:href="#STIXGeneral-Regular-49"/>
      </g>
     </g>
    </g>
    <g id="ytick_7">
     <g id="line2d_25">
      <path clip-path="url(#p64477267b3)" d="M 108 618 
L 612 618 
" style="fill:none;stroke:#b0b0b0;stroke-dasharray:3.2,0.8,0.5,0.8;stroke-dashoffset:0;stroke-width:0.5;"/>
     </g>
     <g id="line2d_26">
      <g>
       <use style="fill:#ffffff;stroke:#000000;stroke-width:0.8;" x="108" xlink:href="#m163e6e8862" y="618"/>
      </g>
     </g>
     <g id="text_13">
      <!-- 0.2 -->
      <g transform="translate(71 626.195625)scale(0.24 -0.24)">
       <use xlink:href="#STIXGeneral-Regular-48"/>
       <use x="49.999985" xlink:href="#STIXGeneral-Regular-46"/>
       <use x="74.999969" xlink:href="#STIXGeneral-Regular-50"/>
      </g>
     </g>
    </g>
    <g id="ytick_8">
     <g id="line2d_27">
      <path clip-path="url(#p64477267b3)" d="M 108 562 
L 612 562 
" style="fill:none;stroke:#b0b0b0;stroke-dasharray:3.2,0.8,0.5,0.8;stroke-dashoffset:0;stroke-width:0.5;"/>
     </g>
     <g id="line2d_28">
      <g>
       <use style="fill:#ffffff;stroke:#000000;stroke-width:0.8;" x="108" xlink:href="#m163e6e8862" y="562"/>
      </g>
     </g>
     <g id="text_14">
      <!-- 0.3 -->
      <g transform="translate(71 570.195625)scale(0.24 -0.24)">
       <use xlink:href="#STIXGeneral-Regular-48"/>
       <use x="49.999985" xlink:href="#STIXGeneral-Regular-46"/>
       <use x="74.999969" xlink:href="#STIXGeneral-Regular-51"/>
      </g>
     </g>
    </g>
    <g id="ytick_9">
     <g id="line2d_29">
      <path clip-path="url(#p64477267b3)" d="M 108 506 
L 612 506 
" style="fill:none;stroke:#b0b0b0;stroke-dasharray:3.2,0.8,0.5,0.8;stroke-dashoffset:0;stroke-width:0.5;"/>
     </g>
     <g id="line2d_30">
      <g>
       <use style="fill:#ffffff;stroke:#000000;stroke-width:0.8;" x="108" xlink:href="#m163e6e8862" y="506"/>
      </g>
     </g>
     <g id="text_15">
      <!-- 0.4 -->
      <g transform="translate(71 514.195625)scale(0.24 -0.24)">
       <use xlink:href="#STIXGeneral-Regular-48"/>
       <use x="49.999985" xlink:href="#STIXGeneral-Regular-46"/>
       <use x="74.999969" xlink:href="#STIXGeneral-Regular-52"/>
      </g>
     </g>
    </g>
    <g id="ytick_10">
     <g id="line2d_31">
      <path clip-path="url(#p64477267b3)" d="M 108 450 
L 612 450 
" style="fill:none;stroke:#b0b0b0;stroke-dasharray:3.2,0.8,0.5,0.8;stroke-dashoffset:0;stroke-width:0.5;"/>
     </g>
     <g id="line2d_32">
      <g>
       <use style="fill:#ffffff;stroke:#000000;stroke-width:0.8;" x="108" xlink:href="#m163e6e8862" y="450"/>
      </g>
     </g>
     <g id="text_16">
      <!-- 0.5 -->
      <g transform="translate(71 458.195625)scale(0.24 -0.24)">
       <use xlink:href="#STIXGeneral-Regular-48"/>
       <use x="49.999985" xlink:href="#STIXGeneral-Regular-46"/>
       <use x="74.999969" xlink:href="#STIXGeneral-Regular-53"/>
      </g>
     </g>
    </g>
   </g>
   <g id="LineCollection_31"/>
   <g id="LineCollection_32"/>
   <g id="LineCollection_33"/>
   <g id="LineCollection_34"/>
   <g id="LineCollection_35"/>
   <g id="LineCollection_36"/>
   <g id="LineCollection_37"/>
   <g id="LineCollection_38"/>
   <g id="LineCollection_39"/>
   <g id="LineCollection_40">
    <path clip-path="url(#p64477267b3)" d="M 612 450.708968 
L 511.2 450.640504 
L 501.919921 450 
" style="fill:none;stroke:#000000;stroke-dasharray:1.85,0.8;stroke-dashoffset:0;stroke-width:0.5;"/>
   </g>
   <g id="LineCollection_41">
    <path clip-path="url(#p64477267b3)" d="M 612 454.120022 
L 511.2 453.173095 
L 465.225957 450 
" style="fill:none;stroke:#000000;stroke-dasharray:1.85,0.8;stroke-dashoffset:0;stroke-width:0.5;"/>
   </g>
   <g id="LineCollection_42">
    <path clip-path="url(#p64477267b3)" d="M 612 457.531075 
L 511.2 455.705685 
L 428.531992 450 
" style="fill:none;stroke:#000000;stroke-dasharray:1.85,0.8;stroke-dashoffset:0;stroke-width:0.5;"/>
   </g>
   <g id="LineCollection_43">
    <path clip-path="url(#p64477267b3)" d="M 612 460.942128 
L 511.2 458.238276 
L 410.4 451.656232 
L 391.078101 450 
" style="fill:none;stroke:#000000;stroke-dasharray:1.85,0.8;stroke-dashoffset:0;stroke-width:0.5;"/>
   </g>
   <g id="LineCollection_44">
    <path clip-path="url(#p64477267b3)" d="M 612 464.353181 
L 511.2 460.770866 
L 410.4 454.93033 
L 352.881885 450 
" style="fill:none;stroke:#000000;stroke-dasharray:1.85,0.8;stroke-dashoffset:0;stroke-width:0.5;"/>
   </g>
   <g id="LineCollection_45">
    <path clip-path="url(#p64477267b3)" d="M 612 467.764234 
L 511.2 463.303457 
L 410.4 458.204427 
L 314.68567 450 
" style="fill:none;stroke:#000000;stroke-dasharray:1.85,0.8;stroke-dashoffset:0;stroke-width:0.5;"/>
   </g>
   <g id="LineCollection_46">
    <path clip-path="url(#p64477267b3)" d="M 145.404405 450 
L 120.835153 478 
L 125.223657 506 
L 130.194918 534 
L 131.109923 562 
L 132.38536 590 
L 135.552799 618 
L 143.22121 646 
L 139.718561 674 
L 165.366314 702 
" style="fill:none;stroke:#000000;stroke-width:0.5;"/>
    <path clip-path="url(#p64477267b3)" d="M 612 471.175287 
L 511.2 465.836048 
L 410.4 461.478525 
L 309.6 454.385421 
L 253.703361 450 
" style="fill:none;stroke:#000000;stroke-width:0.5;"/>
   </g>
   <g id="LineCollection_47">
    <path clip-path="url(#p64477267b3)" d="M 612 474.58634 
L 511.2 468.368638 
L 410.4 464.752623 
L 309.6 459.444427 
L 208.8 454.155105 
L 152.91044 478 
L 164.740845 506 
L 181.307933 534 
L 183.11492 562 
L 186.628797 590 
L 194.654998 618 
L 208.8 638.295983 
L 214.012467 646 
L 208.8 659.693223 
L 202.811432 674 
L 208.8 677.890665 
L 245.755459 702 
" style="fill:none;stroke:#000000;stroke-width:0.5;"/>
   </g>
   <g id="LineCollection_48">
    <path clip-path="url(#p64477267b3)" d="M 612 477.997393 
L 511.2 470.901229 
L 410.4 468.026721 
L 309.6 464.503434 
L 208.8 467.839805 
L 184.985727 478 
L 204.258033 506 
L 208.8 511.576847 
L 224.867288 534 
L 227.079192 562 
L 231.81428 590 
L 242.531986 618 
L 271.389327 646 
L 271.015401 674 
L 308.586529 702 
" style="fill:none;stroke:#000000;stroke-width:0.5;"/>
   </g>
   <g id="LineCollection_49">
    <path clip-path="url(#p64477267b3)" d="M 612 483.676759 
L 576.055808 478 
L 511.2 473.433819 
L 410.4 471.300819 
L 309.6 469.56244 
L 222.28363 478 
L 238.497625 506 
L 259.635052 534 
L 263.196681 562 
L 270.738093 590 
L 286.877157 618 
L 309.6 634.950154 
L 320.621419 646 
L 330.155034 674 
L 383.37923 702 
" style="fill:none;stroke:#000000;stroke-width:0.5;"/>
   </g>
   <g id="LineCollection_50">
    <path clip-path="url(#p64477267b3)" d="M 612 489.357859 
L 540.084126 478 
L 511.2 475.96641 
L 410.4 474.574916 
L 309.6 474.621447 
L 274.636929 478 
L 272.051855 506 
L 294.402816 534 
L 299.31417 562 
L 309.6 589.8445 
L 309.645614 590 
L 324.32436 618 
L 353.615692 646 
L 377.010779 674 
L 410.4 688.755011 
L 437.520596 702 
" style="fill:none;stroke:#000000;stroke-width:0.5;"/>
   </g>
   <g id="LineCollection_51">
    <path clip-path="url(#p64477267b3)" d="M 612 495.03896 
L 511.2 479.114939 
L 429.517735 478 
L 410.4 477.849014 
L 398.111897 478 
L 309.6 498.613459 
L 305.606086 506 
L 309.6 510.887358 
L 324.755172 534 
L 329.250016 562 
L 338.325705 590 
L 354.522508 618 
L 386.609965 646 
L 410.4 666.020035 
L 422.135075 674 
L 479.918435 702 
" style="fill:none;stroke:#000000;stroke-width:0.5;"/>
   </g>
   <g id="LineCollection_52">
    <path clip-path="url(#p64477267b3)" d="M 612 500.72006 
L 511.2 484.773621 
L 410.4 486.494337 
L 338.512612 506 
L 351.678821 534 
L 356.724412 562 
L 367.005796 590 
L 384.720656 618 
L 410.4 639.083476 
L 418.777667 646 
L 462.966375 674 
L 511.2 696.914159 
L 519.183388 702 
" style="fill:none;stroke:#000000;stroke-width:0.5;"/>
   </g>
   <g id="LineCollection_53">
    <path clip-path="url(#p64477267b3)" d="M 612 507.839929 
L 609.4775 506 
L 511.2 490.432303 
L 410.4 495.399329 
L 371.331626 506 
L 378.60247 534 
L 384.198808 562 
L 395.685887 590 
L 410.4 611.677387 
L 415.581744 618 
L 448.808947 646 
L 503.797675 674 
L 511.2 677.516593 
L 549.632295 702 
" style="fill:none;stroke:#000000;stroke-width:0.5;"/>
   </g>
   <g id="LineCollection_54">
    <path clip-path="url(#p64477267b3)" d="M 612 533.896353 
L 573.754738 506 
L 511.2 496.090985 
L 410.4 504.304321 
L 404.15064 506 
L 405.526119 534 
L 410.4 556.293109 
L 412.446748 562 
L 430.398231 590 
L 450.210174 618 
L 478.840227 646 
L 511.2 661.910916 
L 525.408504 674 
L 580.081202 702 
" style="fill:none;stroke:#000000;stroke-width:0.5;"/>
   </g>
   <g id="LineCollection_55">
    <path clip-path="url(#p64477267b3)" d="M 612 610.090503 
L 576.22086 590 
L 572.500294 562 
L 569.318879 534 
L 538.031976 506 
L 511.2 501.749667 
L 462.687994 506 
L 448.350717 534 
L 456.613403 562 
L 471.465965 590 
L 484.838603 618 
L 508.871507 646 
L 511.2 647.144892 
L 542.763259 674 
L 610.530109 702 
" style="fill:none;stroke:#000000;stroke-width:0.5;"/>
   </g>
   <g id="LineCollection_56">
    <path clip-path="url(#p64477267b3)" d="M 612 630.101309 
L 558.61955 646 
L 560.118014 674 
L 612 695.238564 
" style="fill:none;stroke:#000000;stroke-width:0.5;"/>
    <path clip-path="url(#p64477267b3)" d="M 511.2 586.612069 
L 522.901509 562 
L 526.467304 534 
L 511.2 517.515383 
L 494.690062 534 
L 500.780057 562 
L 511.2 586.612069 
" style="fill:none;stroke:#000000;stroke-width:0.5;"/>
   </g>
   <g id="LineCollection_57">
    <path clip-path="url(#p64477267b3)" d="M 612 645.411724 
L 610.02484 646 
L 577.472769 674 
L 612 688.13417 
" style="fill:none;stroke:#000000;stroke-width:0.5;"/>
   </g>
   <g id="LineCollection_58">
    <path clip-path="url(#p64477267b3)" d="M 612 659.799658 
L 594.827524 674 
L 612 681.029776 
" style="fill:none;stroke:#000000;stroke-width:0.5;"/>
   </g>
   <g id="LineCollection_59"/>
   <g id="LineCollection_60"/>
   <g id="patch_8">
    <path d="M 108 702 
L 108 450 
" style="fill:none;stroke:#000000;stroke-linecap:square;stroke-linejoin:miter;stroke-width:0.8;"/>
   </g>
   <g id="patch_9">
    <path d="M 612 702 
L 612 450 
" style="fill:none;stroke:#000000;stroke-linecap:square;stroke-linejoin:miter;stroke-width:0.8;"/>
   </g>
   <g id="patch_10">
    <path d="M 108 702 
L 612 702 
" style="fill:none;stroke:#000000;stroke-linecap:square;stroke-linejoin:miter;stroke-width:0.8;"/>
   </g>
   <g id="patch_11">
    <path d="M 108 450 
L 612 450 
" style="fill:none;stroke:#000000;stroke-linecap:square;stroke-linejoin:miter;stroke-width:0.8;"/>
   </g>
  </g>
  <g id="axes_3">
   <g id="patch_12">
    <path d="M 108 1018.8 
L 612 1018.8 
L 612 766.8 
L 108 766.8 
z
" style="fill:#ffffff;"/>
   </g>
   <g id="PathCollection_59"/>
   <g id="PathCollection_60"/>
   <g id="PathCollection_61"/>
   <g id="PathCollection_62"/>
   <g id="PathCollection_63"/>
   <g id="PathCollection_64"/>
   <g id="PathCollection_65"/>
   <g id="PathCollection_66"/>
   <g id="PathCollection_67"/>
   <g id="PathCollection_68"/>
   <g id="PathCollection_69"/>
   <g id="PathCollection_70">
    <path clip-path="url(#p7d9d8c41d5)" d="M 309.6 1018.8 
L 410.4 1018.8 
L 500.335558 1018.8 
L 497.497189 990.8 
L 410.4 983.010006 
L 370.732963 990.8 
L 309.6 1008.087231 
L 285.205961 1018.8 
z
" style="fill:#fdd9c4;"/>
   </g>
   <g id="PathCollection_71">
    <path clip-path="url(#p7d9d8c41d5)" d="M 309.6 1008.087231 
L 370.732963 990.8 
L 410.4 983.010006 
L 497.497189 990.8 
L 500.335558 1018.8 
L 511.2 1018.8 
L 528.230438 1018.8 
L 525.903122 990.8 
L 511.2 976.054471 
L 421.543861 962.8 
L 410.4 940.526313 
L 395.756889 962.8 
L 309.6 978.764248 
L 275.741908 990.8 
L 211.110428 1018.8 
L 285.205961 1018.8 
z
" style="fill:#fbe4d6;"/>
    <path clip-path="url(#p7d9d8c41d5)" d="M 511.2 919.582406 
L 524.802557 906.8 
L 511.2 880.129675 
L 444.083367 906.8 
z
" style="fill:#fbe4d6;"/>
   </g>
   <g id="PathCollection_72">
    <path clip-path="url(#p7d9d8c41d5)" d="M 208.8 1018.8 
L 211.110428 1018.8 
L 275.741908 990.8 
L 309.6 978.764248 
L 395.756889 962.8 
L 410.4 940.526313 
L 421.543861 962.8 
L 511.2 976.054471 
L 525.903122 990.8 
L 528.230438 1018.8 
L 547.573132 1018.8 
L 541.449387 990.8 
L 516.728651 962.8 
L 551.041953 934.8 
L 584.105737 906.8 
L 591.192964 878.8 
L 581.411237 850.8 
L 571.433875 822.8 
L 511.2 806.476849 
L 410.4 805.425723 
L 322.368903 822.8 
L 309.6 847.087064 
L 307.494374 850.8 
L 305.597311 878.8 
L 298.258825 906.8 
L 288.519915 934.8 
L 264.234127 962.8 
L 208.8 986.969359 
L 195.202634 990.8 
L 139.068089 1018.8 
z
M 444.083367 906.8 
L 511.2 880.129675 
L 524.802557 906.8 
L 511.2 919.582406 
z
" style="fill:#f9eee7;"/>
   </g>
   <g id="PathCollection_73">
    <path clip-path="url(#p7d9d8c41d5)" d="M 195.202634 990.8 
L 208.8 986.969359 
L 264.234127 962.8 
L 288.519915 934.8 
L 298.258825 906.8 
L 305.597311 878.8 
L 307.494374 850.8 
L 309.6 847.087064 
L 322.368903 822.8 
L 410.4 805.425723 
L 511.2 806.476849 
L 571.433875 822.8 
L 581.411237 850.8 
L 591.192964 878.8 
L 584.105737 906.8 
L 551.041953 934.8 
L 516.728651 962.8 
L 541.449387 990.8 
L 547.573132 1018.8 
L 566.915827 1018.8 
L 556.995652 990.8 
L 553.618395 962.8 
L 605.85056 934.8 
L 612 929.905324 
L 612 906.8 
L 612 878.8 
L 612 850.8 
L 612 822.8 
L 612 794.8 
L 612 766.8 
L 530.584836 766.8 
L 511.2 770.909205 
L 410.4 774.799765 
L 309.6 779.904529 
L 208.8 783.017807 
L 170.468264 766.8 
L 108 766.8 
L 108 794.8 
L 108 822.8 
L 108 850.8 
L 108 878.8 
L 108 906.8 
L 108 934.8 
L 108 962.8 
L 108 990.8 
L 108 1018.8 
L 139.068089 1018.8 
z
" style="fill:#f6f7f7;"/>
   </g>
   <g id="PathCollection_74">
    <path clip-path="url(#p7d9d8c41d5)" d="M 572.541917 990.8 
L 590.508139 962.8 
L 612 951.70592 
L 612 934.8 
L 612 929.905324 
L 605.85056 934.8 
L 553.618395 962.8 
L 556.995652 990.8 
L 566.915827 1018.8 
L 586.258522 1018.8 
z
" style="fill:#eaf1f5;"/>
    <path clip-path="url(#p7d9d8c41d5)" d="M 208.8 783.017807 
L 309.6 779.904529 
L 410.4 774.799765 
L 511.2 770.909205 
L 530.584836 766.8 
L 511.2 766.8 
L 410.4 766.8 
L 309.6 766.8 
L 208.8 766.8 
L 170.468264 766.8 
z
" style="fill:#eaf1f5;"/>
   </g>
   <g id="PathCollection_75">
    <path clip-path="url(#p7d9d8c41d5)" d="M 588.088183 990.8 
L 612 968.77659 
L 612 962.8 
L 612 951.70592 
L 590.508139 962.8 
L 572.541917 990.8 
L 586.258522 1018.8 
L 605.601217 1018.8 
z
" style="fill:#ddebf2;"/>
   </g>
   <g id="PathCollection_76">
    <path clip-path="url(#p7d9d8c41d5)" d="M 612 1018.8 
L 612 1003.279954 
L 603.634448 990.8 
L 612 983.095107 
L 612 968.77659 
L 588.088183 990.8 
L 605.601217 1018.8 
z
" style="fill:#cfe4ef;"/>
   </g>
   <g id="PathCollection_77">
    <path clip-path="url(#p7d9d8c41d5)" d="M 612 1003.279954 
L 612 990.8 
L 612 983.095107 
L 603.634448 990.8 
z
" style="fill:#b8d8e9;"/>
   </g>
   <g id="PathCollection_78"/>
   <g id="PathCollection_79"/>
   <g id="PathCollection_80"/>
   <g id="PathCollection_81"/>
   <g id="PathCollection_82"/>
   <g id="PathCollection_83"/>
   <g id="PathCollection_84"/>
   <g id="PathCollection_85"/>
   <g id="PathCollection_86"/>
   <g id="PathCollection_87"/>
   <g id="matplotlib.axis_5">
    <g id="xtick_7">
     <g id="line2d_33">
      <path clip-path="url(#p7d9d8c41d5)" d="M 108 1018.8 
L 108 766.8 
" style="fill:none;stroke:#b0b0b0;stroke-dasharray:3.2,0.8,0.5,0.8;stroke-dashoffset:0;stroke-width:0.5;"/>
     </g>
     <g id="line2d_34">
      <g>
       <use style="fill:#ffffff;stroke:#000000;stroke-width:0.8;" x="108" xlink:href="#m062af46b69" y="1018.8"/>
      </g>
     </g>
     <g id="text_17">
      <!-- 0 -->
      <g transform="translate(102 1042.19125)scale(0.24 -0.24)">
       <use xlink:href="#STIXGeneral-Regular-48"/>
      </g>
     </g>
    </g>
    <g id="xtick_8">
     <g id="line2d_35">
      <path clip-path="url(#p7d9d8c41d5)" d="M 301.536 1018.8 
L 301.536 766.8 
" style="fill:none;stroke:#b0b0b0;stroke-dasharray:3.2,0.8,0.5,0.8;stroke-dashoffset:0;stroke-width:0.5;"/>
     </g>
     <g id="line2d_36">
      <g>
       <use style="fill:#ffffff;stroke:#000000;stroke-width:0.8;" x="301.536" xlink:href="#m062af46b69" y="1018.8"/>
      </g>
     </g>
     <g id="text_18">
      <!-- 1 -->
      <g transform="translate(295.536 1042.19125)scale(0.24 -0.24)">
       <use xlink:href="#STIXGeneral-Regular-49"/>
      </g>
     </g>
    </g>
    <g id="xtick_9">
     <g id="line2d_37">
      <path clip-path="url(#p7d9d8c41d5)" d="M 495.072 1018.8 
L 495.072 766.8 
" style="fill:none;stroke:#b0b0b0;stroke-dasharray:3.2,0.8,0.5,0.8;stroke-dashoffset:0;stroke-width:0.5;"/>
     </g>
     <g id="line2d_38">
      <g>
       <use style="fill:#ffffff;stroke:#000000;stroke-width:0.8;" x="495.072" xlink:href="#m062af46b69" y="1018.8"/>
      </g>
     </g>
     <g id="text_19">
      <!-- 2 -->
      <g transform="translate(489.072 1042.19125)scale(0.24 -0.24)">
       <use xlink:href="#STIXGeneral-Regular-50"/>
      </g>
     </g>
    </g>
   </g>
   <g id="matplotlib.axis_6">
    <g id="ytick_11">
     <g id="line2d_39">
      <path clip-path="url(#p7d9d8c41d5)" d="M 108 990.8 
L 612 990.8 
" style="fill:none;stroke:#b0b0b0;stroke-dasharray:3.2,0.8,0.5,0.8;stroke-dashoffset:0;stroke-width:0.5;"/>
     </g>
     <g id="line2d_40">
      <g>
       <use style="fill:#ffffff;stroke:#000000;stroke-width:0.8;" x="108" xlink:href="#m163e6e8862" y="990.8"/>
      </g>
     </g>
     <g id="text_20">
      <!-- 0.1 -->
      <g transform="translate(71 998.995625)scale(0.24 -0.24)">
       <use xlink:href="#STIXGeneral-Regular-48"/>
       <use x="49.999985" xlink:href="#STIXGeneral-Regular-46"/>
       <use x="74.999969" xlink:href="#STIXGeneral-Regular-49"/>
      </g>
     </g>
    </g>
    <g id="ytick_12">
     <g id="line2d_41">
      <path clip-path="url(#p7d9d8c41d5)" d="M 108 934.8 
L 612 934.8 
" style="fill:none;stroke:#b0b0b0;stroke-dasharray:3.2,0.8,0.5,0.8;stroke-dashoffset:0;stroke-width:0.5;"/>
     </g>
     <g id="line2d_42">
      <g>
       <use style="fill:#ffffff;stroke:#000000;stroke-width:0.8;" x="108" xlink:href="#m163e6e8862" y="934.8"/>
      </g>
     </g>
     <g id="text_21">
      <!-- 0.2 -->
      <g transform="translate(71 942.995625)scale(0.24 -0.24)">
       <use xlink:href="#STIXGeneral-Regular-48"/>
       <use x="49.999985" xlink:href="#STIXGeneral-Regular-46"/>
       <use x="74.999969" xlink:href="#STIXGeneral-Regular-50"/>
      </g>
     </g>
    </g>
    <g id="ytick_13">
     <g id="line2d_43">
      <path clip-path="url(#p7d9d8c41d5)" d="M 108 878.8 
L 612 878.8 
" style="fill:none;stroke:#b0b0b0;stroke-dasharray:3.2,0.8,0.5,0.8;stroke-dashoffset:0;stroke-width:0.5;"/>
     </g>
     <g id="line2d_44">
      <g>
       <use style="fill:#ffffff;stroke:#000000;stroke-width:0.8;" x="108" xlink:href="#m163e6e8862" y="878.8"/>
      </g>
     </g>
     <g id="text_22">
      <!-- 0.3 -->
      <g transform="translate(71 886.995625)scale(0.24 -0.24)">
       <use xlink:href="#STIXGeneral-Regular-48"/>
       <use x="49.999985" xlink:href="#STIXGeneral-Regular-46"/>
       <use x="74.999969" xlink:href="#STIXGeneral-Regular-51"/>
      </g>
     </g>
    </g>
    <g id="ytick_14">
     <g id="line2d_45">
      <path clip-path="url(#p7d9d8c41d5)" d="M 108 822.8 
L 612 822.8 
" style="fill:none;stroke:#b0b0b0;stroke-dasharray:3.2,0.8,0.5,0.8;stroke-dashoffset:0;stroke-width:0.5;"/>
     </g>
     <g id="line2d_46">
      <g>
       <use style="fill:#ffffff;stroke:#000000;stroke-width:0.8;" x="108" xlink:href="#m163e6e8862" y="822.8"/>
      </g>
     </g>
     <g id="text_23">
      <!-- 0.4 -->
      <g transform="translate(71 830.995625)scale(0.24 -0.24)">
       <use xlink:href="#STIXGeneral-Regular-48"/>
       <use x="49.999985" xlink:href="#STIXGeneral-Regular-46"/>
       <use x="74.999969" xlink:href="#STIXGeneral-Regular-52"/>
      </g>
     </g>
    </g>
    <g id="ytick_15">
     <g id="line2d_47">
      <path clip-path="url(#p7d9d8c41d5)" d="M 108 766.8 
L 612 766.8 
" style="fill:none;stroke:#b0b0b0;stroke-dasharray:3.2,0.8,0.5,0.8;stroke-dashoffset:0;stroke-width:0.5;"/>
     </g>
     <g id="line2d_48">
      <g>
       <use style="fill:#ffffff;stroke:#000000;stroke-width:0.8;" x="108" xlink:href="#m163e6e8862" y="766.8"/>
      </g>
     </g>
     <g id="text_24">
      <!-- 0.5 -->
      <g transform="translate(71 774.995625)scale(0.24 -0.24)">
       <use xlink:href="#STIXGeneral-Regular-48"/>
       <use x="49.999985" xlink:href="#STIXGeneral-Regular-46"/>
       <use x="74.999969" xlink:href="#STIXGeneral-Regular-53"/>
      </g>
     </g>
    </g>
   </g>
   <g id="LineCollection_61"/>
   <g id="LineCollection_62"/>
   <g id="LineCollection_63"/>
   <g id="LineCollection_64"/>
   <g id="LineCollection_65"/>
   <g id="LineCollection_66"/>
   <g id="LineCollection_67"/>
   <g id="LineCollection_68"/>
   <g id="LineCollection_69"/>
   <g id="LineCollection_70"/>
   <g id="LineCollection_71"/>
   <g id="LineCollection_72"/>
   <g id="LineCollection_73">
    <path clip-path="url(#p7d9d8c41d5)" d="M 285.205961 1018.8 
L 309.6 1008.087231 
L 370.732963 990.8 
L 410.4 983.010006 
L 497.497189 990.8 
L 500.335558 1018.8 
" style="fill:none;stroke:#000000;stroke-dasharray:1.85,0.8;stroke-dashoffset:0;stroke-width:0.5;"/>
   </g>
   <g id="LineCollection_74">
    <path clip-path="url(#p7d9d8c41d5)" d="M 211.110428 1018.8 
L 275.741908 990.8 
L 309.6 978.764248 
L 395.756889 962.8 
L 410.4 940.526313 
L 421.543861 962.8 
L 511.2 976.054471 
L 525.903122 990.8 
L 528.230438 1018.8 
" style="fill:none;stroke:#000000;stroke-dasharray:1.85,0.8;stroke-dashoffset:0;stroke-width:0.5;"/>
    <path clip-path="url(#p7d9d8c41d5)" d="M 511.2 919.582406 
L 444.083367 906.8 
L 511.2 880.129675 
L 524.802557 906.8 
L 511.2 919.582406 
" style="fill:none;stroke:#000000;stroke-dasharray:1.85,0.8;stroke-dashoffset:0;stroke-width:0.5;"/>
   </g>
   <g id="LineCollection_75">
    <path clip-path="url(#p7d9d8c41d5)" d="M 139.068089 1018.8 
L 195.202634 990.8 
L 208.8 986.969359 
L 264.234127 962.8 
L 288.519915 934.8 
L 298.258825 906.8 
L 305.597311 878.8 
L 307.494374 850.8 
L 309.6 847.087064 
L 322.368903 822.8 
L 410.4 805.425723 
L 511.2 806.476849 
L 571.433875 822.8 
L 581.411237 850.8 
L 591.192964 878.8 
L 584.105737 906.8 
L 551.041953 934.8 
L 516.728651 962.8 
L 541.449387 990.8 
L 547.573132 1018.8 
" style="fill:none;stroke:#000000;stroke-dasharray:1.85,0.8;stroke-dashoffset:0;stroke-width:0.5;"/>
   </g>
   <g id="LineCollection_76">
    <path clip-path="url(#p7d9d8c41d5)" d="M 612 929.905324 
L 605.85056 934.8 
L 553.618395 962.8 
L 556.995652 990.8 
L 566.915827 1018.8 
" style="fill:none;stroke:#000000;stroke-width:0.5;"/>
    <path clip-path="url(#p7d9d8c41d5)" d="M 170.468264 766.8 
L 208.8 783.017807 
L 309.6 779.904529 
L 410.4 774.799765 
L 511.2 770.909205 
L 530.584836 766.8 
" style="fill:none;stroke:#000000;stroke-width:0.5;"/>
   </g>
   <g id="LineCollection_77">
    <path clip-path="url(#p7d9d8c41d5)" d="M 612 951.70592 
L 590.508139 962.8 
L 572.541917 990.8 
L 586.258522 1018.8 
" style="fill:none;stroke:#000000;stroke-width:0.5;"/>
   </g>
   <g id="LineCollection_78">
    <path clip-path="url(#p7d9d8c41d5)" d="M 612 968.77659 
L 588.088183 990.8 
L 605.601217 1018.8 
" style="fill:none;stroke:#000000;stroke-width:0.5;"/>
   </g>
   <g id="LineCollection_79">
    <path clip-path="url(#p7d9d8c41d5)" d="M 612 983.095107 
L 603.634448 990.8 
L 612 1003.279954 
" style="fill:none;stroke:#000000;stroke-width:0.5;"/>
   </g>
   <g id="LineCollection_80"/>
   <g id="LineCollection_81"/>
   <g id="LineCollection_82"/>
   <g id="LineCollection_83"/>
   <g id="LineCollection_84"/>
   <g id="LineCollection_85"/>
   <g id="LineCollection_86"/>
   <g id="LineCollection_87"/>
   <g id="LineCollection_88"/>
   <g id="LineCollection_89"/>
   <g id="LineCollection_90"/>
   <g id="patch_13">
    <path d="M 108 1018.8 
L 108 766.8 
" style="fill:none;stroke:#000000;stroke-linecap:square;stroke-linejoin:miter;stroke-width:0.8;"/>
   </g>
   <g id="patch_14">
    <path d="M 612 1018.8 
L 612 766.8 
" style="fill:none;stroke:#000000;stroke-linecap:square;stroke-linejoin:miter;stroke-width:0.8;"/>
   </g>
   <g id="patch_15">
    <path d="M 108 1018.8 
L 612 1018.8 
" style="fill:none;stroke:#000000;stroke-linecap:square;stroke-linejoin:miter;stroke-width:0.8;"/>
   </g>
   <g id="patch_16">
    <path d="M 108 766.8 
L 612 766.8 
" style="fill:none;stroke:#000000;stroke-linecap:square;stroke-linejoin:miter;stroke-width:0.8;"/>
   </g>
  </g>
  <g id="axes_4">
   <g id="patch_17">
    <path clip-path="url(#p2eefbccfa6)" d="M 619.2 385.2 
L 619.2 376.510345 
L 619.2 141.889655 
L 619.2 133.2 
L 633.6 133.2 
L 633.6 141.889655 
L 633.6 376.510345 
L 633.6 385.2 
z
" style="fill:#ffffff;stroke:#ffffff;stroke-linejoin:miter;stroke-width:0.01;"/>
   </g>
   <g id="QuadMesh_1">
    <path clip-path="url(#p2eefbccfa6)" d="M 619.2 385.2 
L 633.6 385.2 
L 633.6 376.510345 
L 619.2 376.510345 
L 619.2 385.2 
" style="fill:#730421;"/>
    <path clip-path="url(#p2eefbccfa6)" d="M 619.2 376.510345 
L 633.6 376.510345 
L 633.6 367.82069 
L 619.2 367.82069 
L 619.2 376.510345 
" style="fill:#8d0c25;"/>
    <path clip-path="url(#p2eefbccfa6)" d="M 619.2 367.82069 
L 633.6 367.82069 
L 633.6 359.131034 
L 619.2 359.131034 
L 619.2 367.82069 
" style="fill:#a81529;"/>
    <path clip-path="url(#p2eefbccfa6)" d="M 619.2 359.131034 
L 633.6 359.131034 
L 633.6 350.441379 
L 619.2 350.441379 
L 619.2 359.131034 
" style="fill:#b82531;"/>
    <path clip-path="url(#p2eefbccfa6)" d="M 619.2 350.441379 
L 633.6 350.441379 
L 633.6 341.751724 
L 619.2 341.751724 
L 619.2 350.441379 
" style="fill:#c53e3d;"/>
    <path clip-path="url(#p2eefbccfa6)" d="M 619.2 341.751724 
L 633.6 341.751724 
L 633.6 333.062069 
L 619.2 333.062069 
L 619.2 341.751724 
" style="fill:#d25849;"/>
    <path clip-path="url(#p2eefbccfa6)" d="M 619.2 333.062069 
L 633.6 333.062069 
L 633.6 324.372414 
L 619.2 324.372414 
L 619.2 333.062069 
" style="fill:#dd7059;"/>
    <path clip-path="url(#p2eefbccfa6)" d="M 619.2 324.372414 
L 633.6 324.372414 
L 633.6 315.682759 
L 619.2 315.682759 
L 619.2 324.372414 
" style="fill:#e8896c;"/>
    <path clip-path="url(#p2eefbccfa6)" d="M 619.2 315.682759 
L 633.6 315.682759 
L 633.6 306.993103 
L 619.2 306.993103 
L 619.2 315.682759 
" style="fill:#f2a17f;"/>
    <path clip-path="url(#p2eefbccfa6)" d="M 619.2 306.993103 
L 633.6 306.993103 
L 633.6 298.303448 
L 619.2 298.303448 
L 619.2 306.993103 
" style="fill:#f6b394;"/>
    <path clip-path="url(#p2eefbccfa6)" d="M 619.2 298.303448 
L 633.6 298.303448 
L 633.6 289.613793 
L 619.2 289.613793 
L 619.2 298.303448 
" style="fill:#f9c6ac;"/>
    <path clip-path="url(#p2eefbccfa6)" d="M 619.2 289.613793 
L 633.6 289.613793 
L 633.6 280.924138 
L 619.2 280.924138 
L 619.2 289.613793 
" style="fill:#fdd9c4;"/>
    <path clip-path="url(#p2eefbccfa6)" d="M 619.2 280.924138 
L 633.6 280.924138 
L 633.6 272.234483 
L 619.2 272.234483 
L 619.2 280.924138 
" style="fill:#fbe4d6;"/>
    <path clip-path="url(#p2eefbccfa6)" d="M 619.2 272.234483 
L 633.6 272.234483 
L 633.6 263.544828 
L 619.2 263.544828 
L 619.2 272.234483 
" style="fill:#f9eee7;"/>
    <path clip-path="url(#p2eefbccfa6)" d="M 619.2 263.544828 
L 633.6 263.544828 
L 633.6 254.855172 
L 619.2 254.855172 
L 619.2 263.544828 
" style="fill:#f6f7f7;"/>
    <path clip-path="url(#p2eefbccfa6)" d="M 619.2 254.855172 
L 633.6 254.855172 
L 633.6 246.165517 
L 619.2 246.165517 
L 619.2 254.855172 
" style="fill:#eaf1f5;"/>
    <path clip-path="url(#p2eefbccfa6)" d="M 619.2 246.165517 
L 633.6 246.165517 
L 633.6 237.475862 
L 619.2 237.475862 
L 619.2 246.165517 
" style="fill:#ddebf2;"/>
    <path clip-path="url(#p2eefbccfa6)" d="M 619.2 237.475862 
L 633.6 237.475862 
L 633.6 228.786207 
L 619.2 228.786207 
L 619.2 237.475862 
" style="fill:#cfe4ef;"/>
    <path clip-path="url(#p2eefbccfa6)" d="M 619.2 228.786207 
L 633.6 228.786207 
L 633.6 220.096552 
L 619.2 220.096552 
L 619.2 228.786207 
" style="fill:#b8d8e9;"/>
    <path clip-path="url(#p2eefbccfa6)" d="M 619.2 220.096552 
L 633.6 220.096552 
L 633.6 211.406897 
L 619.2 211.406897 
L 619.2 220.096552 
" style="fill:#a2cde3;"/>
    <path clip-path="url(#p2eefbccfa6)" d="M 619.2 211.406897 
L 633.6 211.406897 
L 633.6 202.717241 
L 619.2 202.717241 
L 619.2 211.406897 
" style="fill:#8dc2dc;"/>
    <path clip-path="url(#p2eefbccfa6)" d="M 619.2 202.717241 
L 633.6 202.717241 
L 633.6 194.027586 
L 619.2 194.027586 
L 619.2 202.717241 
" style="fill:#71b0d3;"/>
    <path clip-path="url(#p2eefbccfa6)" d="M 619.2 194.027586 
L 633.6 194.027586 
L 633.6 185.337931 
L 619.2 185.337931 
L 619.2 194.027586 
" style="fill:#569fc9;"/>
    <path clip-path="url(#p2eefbccfa6)" d="M 619.2 185.337931 
L 633.6 185.337931 
L 633.6 176.648276 
L 619.2 176.648276 
L 619.2 185.337931 
" style="fill:#3f8ec0;"/>
    <path clip-path="url(#p2eefbccfa6)" d="M 619.2 176.648276 
L 633.6 176.648276 
L 633.6 167.958621 
L 619.2 167.958621 
L 619.2 176.648276 
" style="fill:#337eb8;"/>
    <path clip-path="url(#p2eefbccfa6)" d="M 619.2 167.958621 
L 633.6 167.958621 
L 633.6 159.268966 
L 619.2 159.268966 
L 619.2 167.958621 
" style="fill:#276eb0;"/>
    <path clip-path="url(#p2eefbccfa6)" d="M 619.2 159.268966 
L 633.6 159.268966 
L 633.6 150.57931 
L 619.2 150.57931 
L 619.2 159.268966 
" style="fill:#1d5fa2;"/>
    <path clip-path="url(#p2eefbccfa6)" d="M 619.2 150.57931 
L 633.6 150.57931 
L 633.6 141.889655 
L 619.2 141.889655 
L 619.2 150.57931 
" style="fill:#134c87;"/>
    <path clip-path="url(#p2eefbccfa6)" d="M 619.2 141.889655 
L 633.6 141.889655 
L 633.6 133.2 
L 619.2 133.2 
L 619.2 141.889655 
" style="fill:#09386d;"/>
   </g>
   <g id="matplotlib.axis_7"/>
   <g id="matplotlib.axis_8">
    <g id="ytick_16">
     <g id="line2d_49">
      <defs>
       <path d="M 0 0 
L 3.5 0 
" id="m40530b456b" style="stroke:#000000;stroke-width:0.8;"/>
      </defs>
      <g>
       <use style="fill:#ffffff;stroke:#000000;stroke-width:0.8;" x="633.6" xlink:href="#m40530b456b" y="367.2"/>
      </g>
     </g>
     <g id="text_25">
      <!-- 6 -->
      <g transform="translate(640.6 375.395625)scale(0.24 -0.24)">
       <defs>
        <path d="M 62.09375 22 
L 6.40625 22 
L 6.40625 28.59375 
L 62.09375 28.59375 
z
" id="STIXGeneral-Regular-8722"/>
        <path d="M 44.59375 68.40625 
L 44.796875 66.796875 
Q 33 64.90625 25.09375 57.25 
Q 17.203125 49.59375 15.203125 38.296875 
Q 21 42.796875 27.90625 42.796875 
Q 36.703125 42.796875 41.75 37.1875 
Q 46.796875 31.59375 46.796875 21.90625 
Q 46.796875 12.09375 41.703125 5.90625 
Q 35.796875 -1.40625 25.796875 -1.40625 
Q 13.59375 -1.40625 8.09375 8.703125 
Q 3.40625 17.296875 3.40625 27.90625 
Q 3.40625 44.296875 14.296875 55.5 
Q 20.5 61.90625 27.046875 64.546875 
Q 33.59375 67.203125 44.59375 68.40625 
z
M 37.796875 18.796875 
Q 37.796875 38.203125 24.296875 38.203125 
Q 19.296875 38.203125 16 35.546875 
Q 12.703125 32.90625 12.703125 26.59375 
Q 12.703125 14.90625 16.34375 8.15625 
Q 20 1.40625 26.90625 1.40625 
Q 32.203125 1.40625 35 6.15625 
Q 37.796875 10.90625 37.796875 18.796875 
z
" id="STIXGeneral-Regular-54"/>
       </defs>
       <use xlink:href="#STIXGeneral-Regular-8722"/>
       <use x="68.499985" xlink:href="#STIXGeneral-Regular-54"/>
      </g>
     </g>
    </g>
    <g id="ytick_17">
     <g id="line2d_50">
      <g>
       <use style="fill:#ffffff;stroke:#000000;stroke-width:0.8;" x="633.6" xlink:href="#m40530b456b" y="331.2"/>
      </g>
     </g>
     <g id="text_26">
      <!-- 4 -->
      <g transform="translate(640.6 339.395625)scale(0.24 -0.24)">
       <use xlink:href="#STIXGeneral-Regular-8722"/>
       <use x="68.499985" xlink:href="#STIXGeneral-Regular-52"/>
      </g>
     </g>
    </g>
    <g id="ytick_18">
     <g id="line2d_51">
      <g>
       <use style="fill:#ffffff;stroke:#000000;stroke-width:0.8;" x="633.6" xlink:href="#m40530b456b" y="295.2"/>
      </g>
     </g>
     <g id="text_27">
      <!-- 2 -->
      <g transform="translate(640.6 303.395625)scale(0.24 -0.24)">
       <use xlink:href="#STIXGeneral-Regular-8722"/>
       <use x="68.499985" xlink:href="#STIXGeneral-Regular-50"/>
      </g>
     </g>
    </g>
    <g id="ytick_19">
     <g id="line2d_52">
      <g>
       <use style="fill:#ffffff;stroke:#000000;stroke-width:0.8;" x="633.6" xlink:href="#m40530b456b" y="259.2"/>
      </g>
     </g>
     <g id="text_28">
      <!-- 0 -->
      <g transform="translate(640.6 267.395625)scale(0.24 -0.24)">
       <use xlink:href="#STIXGeneral-Regular-48"/>
      </g>
     </g>
    </g>
    <g id="ytick_20">
     <g id="line2d_53">
      <g>
       <use style="fill:#ffffff;stroke:#000000;stroke-width:0.8;" x="633.6" xlink:href="#m40530b456b" y="223.2"/>
      </g>
     </g>
     <g id="text_29">
      <!-- 2 -->
      <g transform="translate(640.6 231.395625)scale(0.24 -0.24)">
       <use xlink:href="#STIXGeneral-Regular-50"/>
      </g>
     </g>
    </g>
    <g id="ytick_21">
     <g id="line2d_54">
      <g>
       <use style="fill:#ffffff;stroke:#000000;stroke-width:0.8;" x="633.6" xlink:href="#m40530b456b" y="187.2"/>
      </g>
     </g>
     <g id="text_30">
      <!-- 4 -->
      <g transform="translate(640.6 195.395625)scale(0.24 -0.24)">
       <use xlink:href="#STIXGeneral-Regular-52"/>
      </g>
     </g>
    </g>
    <g id="ytick_22">
     <g id="line2d_55">
      <g>
       <use style="fill:#ffffff;stroke:#000000;stroke-width:0.8;" x="633.6" xlink:href="#m40530b456b" y="151.2"/>
      </g>
     </g>
     <g id="text_31">
      <!-- 6 -->
      <g transform="translate(640.6 159.395625)scale(0.24 -0.24)">
       <use xlink:href="#STIXGeneral-Regular-54"/>
      </g>
     </g>
    </g>
   </g>
   <g id="patch_18">
    <path d="M 619.2 385.2 
L 619.2 376.510345 
L 619.2 141.889655 
L 619.2 133.2 
L 633.6 133.2 
L 633.6 141.889655 
L 633.6 376.510345 
L 633.6 385.2 
z
" style="fill:none;stroke:#000000;stroke-linejoin:miter;stroke-width:0.8;"/>
   </g>
  </g>
  <g id="axes_5">
   <g id="patch_19">
    <path clip-path="url(#pb86a7e6c9a)" d="M 619.2 702 
L 619.2 693.310345 
L 619.2 458.689655 
L 619.2 450 
L 633.6 450 
L 633.6 458.689655 
L 633.6 693.310345 
L 633.6 702 
z
" style="fill:#ffffff;stroke:#ffffff;stroke-linejoin:miter;stroke-width:0.01;"/>
   </g>
   <g id="QuadMesh_2">
    <path clip-path="url(#pb86a7e6c9a)" d="M 619.2 702 
L 633.6 702 
L 633.6 693.310345 
L 619.2 693.310345 
L 619.2 702 
" style="fill:#730421;"/>
    <path clip-path="url(#pb86a7e6c9a)" d="M 619.2 693.310345 
L 633.6 693.310345 
L 633.6 684.62069 
L 619.2 684.62069 
L 619.2 693.310345 
" style="fill:#8d0c25;"/>
    <path clip-path="url(#pb86a7e6c9a)" d="M 619.2 684.62069 
L 633.6 684.62069 
L 633.6 675.931034 
L 619.2 675.931034 
L 619.2 684.62069 
" style="fill:#a81529;"/>
    <path clip-path="url(#pb86a7e6c9a)" d="M 619.2 675.931034 
L 633.6 675.931034 
L 633.6 667.241379 
L 619.2 667.241379 
L 619.2 675.931034 
" style="fill:#b82531;"/>
    <path clip-path="url(#pb86a7e6c9a)" d="M 619.2 667.241379 
L 633.6 667.241379 
L 633.6 658.551724 
L 619.2 658.551724 
L 619.2 667.241379 
" style="fill:#c53e3d;"/>
    <path clip-path="url(#pb86a7e6c9a)" d="M 619.2 658.551724 
L 633.6 658.551724 
L 633.6 649.862069 
L 619.2 649.862069 
L 619.2 658.551724 
" style="fill:#d25849;"/>
    <path clip-path="url(#pb86a7e6c9a)" d="M 619.2 649.862069 
L 633.6 649.862069 
L 633.6 641.172414 
L 619.2 641.172414 
L 619.2 649.862069 
" style="fill:#dd7059;"/>
    <path clip-path="url(#pb86a7e6c9a)" d="M 619.2 641.172414 
L 633.6 641.172414 
L 633.6 632.482759 
L 619.2 632.482759 
L 619.2 641.172414 
" style="fill:#e8896c;"/>
    <path clip-path="url(#pb86a7e6c9a)" d="M 619.2 632.482759 
L 633.6 632.482759 
L 633.6 623.793103 
L 619.2 623.793103 
L 619.2 632.482759 
" style="fill:#f2a17f;"/>
    <path clip-path="url(#pb86a7e6c9a)" d="M 619.2 623.793103 
L 633.6 623.793103 
L 633.6 615.103448 
L 619.2 615.103448 
L 619.2 623.793103 
" style="fill:#f6b394;"/>
    <path clip-path="url(#pb86a7e6c9a)" d="M 619.2 615.103448 
L 633.6 615.103448 
L 633.6 606.413793 
L 619.2 606.413793 
L 619.2 615.103448 
" style="fill:#f9c6ac;"/>
    <path clip-path="url(#pb86a7e6c9a)" d="M 619.2 606.413793 
L 633.6 606.413793 
L 633.6 597.724138 
L 619.2 597.724138 
L 619.2 606.413793 
" style="fill:#fdd9c4;"/>
    <path clip-path="url(#pb86a7e6c9a)" d="M 619.2 597.724138 
L 633.6 597.724138 
L 633.6 589.034483 
L 619.2 589.034483 
L 619.2 597.724138 
" style="fill:#fbe4d6;"/>
    <path clip-path="url(#pb86a7e6c9a)" d="M 619.2 589.034483 
L 633.6 589.034483 
L 633.6 580.344828 
L 619.2 580.344828 
L 619.2 589.034483 
" style="fill:#f9eee7;"/>
    <path clip-path="url(#pb86a7e6c9a)" d="M 619.2 580.344828 
L 633.6 580.344828 
L 633.6 571.655172 
L 619.2 571.655172 
L 619.2 580.344828 
" style="fill:#f6f7f7;"/>
    <path clip-path="url(#pb86a7e6c9a)" d="M 619.2 571.655172 
L 633.6 571.655172 
L 633.6 562.965517 
L 619.2 562.965517 
L 619.2 571.655172 
" style="fill:#eaf1f5;"/>
    <path clip-path="url(#pb86a7e6c9a)" d="M 619.2 562.965517 
L 633.6 562.965517 
L 633.6 554.275862 
L 619.2 554.275862 
L 619.2 562.965517 
" style="fill:#ddebf2;"/>
    <path clip-path="url(#pb86a7e6c9a)" d="M 619.2 554.275862 
L 633.6 554.275862 
L 633.6 545.586207 
L 619.2 545.586207 
L 619.2 554.275862 
" style="fill:#cfe4ef;"/>
    <path clip-path="url(#pb86a7e6c9a)" d="M 619.2 545.586207 
L 633.6 545.586207 
L 633.6 536.896552 
L 619.2 536.896552 
L 619.2 545.586207 
" style="fill:#b8d8e9;"/>
    <path clip-path="url(#pb86a7e6c9a)" d="M 619.2 536.896552 
L 633.6 536.896552 
L 633.6 528.206897 
L 619.2 528.206897 
L 619.2 536.896552 
" style="fill:#a2cde3;"/>
    <path clip-path="url(#pb86a7e6c9a)" d="M 619.2 528.206897 
L 633.6 528.206897 
L 633.6 519.517241 
L 619.2 519.517241 
L 619.2 528.206897 
" style="fill:#8dc2dc;"/>
    <path clip-path="url(#pb86a7e6c9a)" d="M 619.2 519.517241 
L 633.6 519.517241 
L 633.6 510.827586 
L 619.2 510.827586 
L 619.2 519.517241 
" style="fill:#71b0d3;"/>
    <path clip-path="url(#pb86a7e6c9a)" d="M 619.2 510.827586 
L 633.6 510.827586 
L 633.6 502.137931 
L 619.2 502.137931 
L 619.2 510.827586 
" style="fill:#569fc9;"/>
    <path clip-path="url(#pb86a7e6c9a)" d="M 619.2 502.137931 
L 633.6 502.137931 
L 633.6 493.448276 
L 619.2 493.448276 
L 619.2 502.137931 
" style="fill:#3f8ec0;"/>
    <path clip-path="url(#pb86a7e6c9a)" d="M 619.2 493.448276 
L 633.6 493.448276 
L 633.6 484.758621 
L 619.2 484.758621 
L 619.2 493.448276 
" style="fill:#337eb8;"/>
    <path clip-path="url(#pb86a7e6c9a)" d="M 619.2 484.758621 
L 633.6 484.758621 
L 633.6 476.068966 
L 619.2 476.068966 
L 619.2 484.758621 
" style="fill:#276eb0;"/>
    <path clip-path="url(#pb86a7e6c9a)" d="M 619.2 476.068966 
L 633.6 476.068966 
L 633.6 467.37931 
L 619.2 467.37931 
L 619.2 476.068966 
" style="fill:#1d5fa2;"/>
    <path clip-path="url(#pb86a7e6c9a)" d="M 619.2 467.37931 
L 633.6 467.37931 
L 633.6 458.689655 
L 619.2 458.689655 
L 619.2 467.37931 
" style="fill:#134c87;"/>
    <path clip-path="url(#pb86a7e6c9a)" d="M 619.2 458.689655 
L 633.6 458.689655 
L 633.6 450 
L 619.2 450 
L 619.2 458.689655 
" style="fill:#09386d;"/>
   </g>
   <g id="matplotlib.axis_9"/>
   <g id="matplotlib.axis_10">
    <g id="ytick_23">
     <g id="line2d_56">
      <g>
       <use style="fill:#ffffff;stroke:#000000;stroke-width:0.8;" x="633.6" xlink:href="#m40530b456b" y="684"/>
      </g>
     </g>
     <g id="text_32">
      <!-- 6 -->
      <g transform="translate(640.6 692.195625)scale(0.24 -0.24)">
       <use xlink:href="#STIXGeneral-Regular-8722"/>
       <use x="68.499985" xlink:href="#STIXGeneral-Regular-54"/>
      </g>
     </g>
    </g>
    <g id="ytick_24">
     <g id="line2d_57">
      <g>
       <use style="fill:#ffffff;stroke:#000000;stroke-width:0.8;" x="633.6" xlink:href="#m40530b456b" y="648"/>
      </g>
     </g>
     <g id="text_33">
      <!-- 4 -->
      <g transform="translate(640.6 656.195625)scale(0.24 -0.24)">
       <use xlink:href="#STIXGeneral-Regular-8722"/>
       <use x="68.499985" xlink:href="#STIXGeneral-Regular-52"/>
      </g>
     </g>
    </g>
    <g id="ytick_25">
     <g id="line2d_58">
      <g>
       <use style="fill:#ffffff;stroke:#000000;stroke-width:0.8;" x="633.6" xlink:href="#m40530b456b" y="612"/>
      </g>
     </g>
     <g id="text_34">
      <!-- 2 -->
      <g transform="translate(640.6 620.195625)scale(0.24 -0.24)">
       <use xlink:href="#STIXGeneral-Regular-8722"/>
       <use x="68.499985" xlink:href="#STIXGeneral-Regular-50"/>
      </g>
     </g>
    </g>
    <g id="ytick_26">
     <g id="line2d_59">
      <g>
       <use style="fill:#ffffff;stroke:#000000;stroke-width:0.8;" x="633.6" xlink:href="#m40530b456b" y="576"/>
      </g>
     </g>
     <g id="text_35">
      <!-- 0 -->
      <g transform="translate(640.6 584.195625)scale(0.24 -0.24)">
       <use xlink:href="#STIXGeneral-Regular-48"/>
      </g>
     </g>
    </g>
    <g id="ytick_27">
     <g id="line2d_60">
      <g>
       <use style="fill:#ffffff;stroke:#000000;stroke-width:0.8;" x="633.6" xlink:href="#m40530b456b" y="540"/>
      </g>
     </g>
     <g id="text_36">
      <!-- 2 -->
      <g transform="translate(640.6 548.195625)scale(0.24 -0.24)">
       <use xlink:href="#STIXGeneral-Regular-50"/>
      </g>
     </g>
    </g>
    <g id="ytick_28">
     <g id="line2d_61">
      <g>
       <use style="fill:#ffffff;stroke:#000000;stroke-width:0.8;" x="633.6" xlink:href="#m40530b456b" y="504"/>
      </g>
     </g>
     <g id="text_37">
      <!-- 4 -->
      <g transform="translate(640.6 512.195625)scale(0.24 -0.24)">
       <use xlink:href="#STIXGeneral-Regular-52"/>
      </g>
     </g>
    </g>
    <g id="ytick_29">
     <g id="line2d_62">
      <g>
       <use style="fill:#ffffff;stroke:#000000;stroke-width:0.8;" x="633.6" xlink:href="#m40530b456b" y="468"/>
      </g>
     </g>
     <g id="text_38">
      <!-- 6 -->
      <g transform="translate(640.6 476.195625)scale(0.24 -0.24)">
       <use xlink:href="#STIXGeneral-Regular-54"/>
      </g>
     </g>
    </g>
   </g>
   <g id="patch_20">
    <path d="M 619.2 702 
L 619.2 693.310345 
L 619.2 458.689655 
L 619.2 450 
L 633.6 450 
L 633.6 458.689655 
L 633.6 693.310345 
L 633.6 702 
z
" style="fill:none;stroke:#000000;stroke-linejoin:miter;stroke-width:0.8;"/>
   </g>
  </g>
  <g id="axes_6">
   <g id="patch_21">
    <path clip-path="url(#p674cdd2a38)" d="M 619.2 1018.8 
L 619.2 1010.110345 
L 619.2 775.489655 
L 619.2 766.8 
L 633.6 766.8 
L 633.6 775.489655 
L 633.6 1010.110345 
L 633.6 1018.8 
z
" style="fill:#ffffff;stroke:#ffffff;stroke-linejoin:miter;stroke-width:0.01;"/>
   </g>
   <g id="QuadMesh_3">
    <path clip-path="url(#p674cdd2a38)" d="M 619.2 1018.8 
L 633.6 1018.8 
L 633.6 1010.110345 
L 619.2 1010.110345 
L 619.2 1018.8 
" style="fill:#730421;"/>
    <path clip-path="url(#p674cdd2a38)" d="M 619.2 1010.110345 
L 633.6 1010.110345 
L 633.6 1001.42069 
L 619.2 1001.42069 
L 619.2 1010.110345 
" style="fill:#8d0c25;"/>
    <path clip-path="url(#p674cdd2a38)" d="M 619.2 1001.42069 
L 633.6 1001.42069 
L 633.6 992.731034 
L 619.2 992.731034 
L 619.2 1001.42069 
" style="fill:#a81529;"/>
    <path clip-path="url(#p674cdd2a38)" d="M 619.2 992.731034 
L 633.6 992.731034 
L 633.6 984.041379 
L 619.2 984.041379 
L 619.2 992.731034 
" style="fill:#b82531;"/>
    <path clip-path="url(#p674cdd2a38)" d="M 619.2 984.041379 
L 633.6 984.041379 
L 633.6 975.351724 
L 619.2 975.351724 
L 619.2 984.041379 
" style="fill:#c53e3d;"/>
    <path clip-path="url(#p674cdd2a38)" d="M 619.2 975.351724 
L 633.6 975.351724 
L 633.6 966.662069 
L 619.2 966.662069 
L 619.2 975.351724 
" style="fill:#d25849;"/>
    <path clip-path="url(#p674cdd2a38)" d="M 619.2 966.662069 
L 633.6 966.662069 
L 633.6 957.972414 
L 619.2 957.972414 
L 619.2 966.662069 
" style="fill:#dd7059;"/>
    <path clip-path="url(#p674cdd2a38)" d="M 619.2 957.972414 
L 633.6 957.972414 
L 633.6 949.282759 
L 619.2 949.282759 
L 619.2 957.972414 
" style="fill:#e8896c;"/>
    <path clip-path="url(#p674cdd2a38)" d="M 619.2 949.282759 
L 633.6 949.282759 
L 633.6 940.593103 
L 619.2 940.593103 
L 619.2 949.282759 
" style="fill:#f2a17f;"/>
    <path clip-path="url(#p674cdd2a38)" d="M 619.2 940.593103 
L 633.6 940.593103 
L 633.6 931.903448 
L 619.2 931.903448 
L 619.2 940.593103 
" style="fill:#f6b394;"/>
    <path clip-path="url(#p674cdd2a38)" d="M 619.2 931.903448 
L 633.6 931.903448 
L 633.6 923.213793 
L 619.2 923.213793 
L 619.2 931.903448 
" style="fill:#f9c6ac;"/>
    <path clip-path="url(#p674cdd2a38)" d="M 619.2 923.213793 
L 633.6 923.213793 
L 633.6 914.524138 
L 619.2 914.524138 
L 619.2 923.213793 
" style="fill:#fdd9c4;"/>
    <path clip-path="url(#p674cdd2a38)" d="M 619.2 914.524138 
L 633.6 914.524138 
L 633.6 905.834483 
L 619.2 905.834483 
L 619.2 914.524138 
" style="fill:#fbe4d6;"/>
    <path clip-path="url(#p674cdd2a38)" d="M 619.2 905.834483 
L 633.6 905.834483 
L 633.6 897.144828 
L 619.2 897.144828 
L 619.2 905.834483 
" style="fill:#f9eee7;"/>
    <path clip-path="url(#p674cdd2a38)" d="M 619.2 897.144828 
L 633.6 897.144828 
L 633.6 888.455172 
L 619.2 888.455172 
L 619.2 897.144828 
" style="fill:#f6f7f7;"/>
    <path clip-path="url(#p674cdd2a38)" d="M 619.2 888.455172 
L 633.6 888.455172 
L 633.6 879.765517 
L 619.2 879.765517 
L 619.2 888.455172 
" style="fill:#eaf1f5;"/>
    <path clip-path="url(#p674cdd2a38)" d="M 619.2 879.765517 
L 633.6 879.765517 
L 633.6 871.075862 
L 619.2 871.075862 
L 619.2 879.765517 
" style="fill:#ddebf2;"/>
    <path clip-path="url(#p674cdd2a38)" d="M 619.2 871.075862 
L 633.6 871.075862 
L 633.6 862.386207 
L 619.2 862.386207 
L 619.2 871.075862 
" style="fill:#cfe4ef;"/>
    <path clip-path="url(#p674cdd2a38)" d="M 619.2 862.386207 
L 633.6 862.386207 
L 633.6 853.696552 
L 619.2 853.696552 
L 619.2 862.386207 
" style="fill:#b8d8e9;"/>
    <path clip-path="url(#p674cdd2a38)" d="M 619.2 853.696552 
L 633.6 853.696552 
L 633.6 845.006897 
L 619.2 845.006897 
L 619.2 853.696552 
" style="fill:#a2cde3;"/>
    <path clip-path="url(#p674cdd2a38)" d="M 619.2 845.006897 
L 633.6 845.006897 
L 633.6 836.317241 
L 619.2 836.317241 
L 619.2 845.006897 
" style="fill:#8dc2dc;"/>
    <path clip-path="url(#p674cdd2a38)" d="M 619.2 836.317241 
L 633.6 836.317241 
L 633.6 827.627586 
L 619.2 827.627586 
L 619.2 836.317241 
" style="fill:#71b0d3;"/>
    <path clip-path="url(#p674cdd2a38)" d="M 619.2 827.627586 
L 633.6 827.627586 
L 633.6 818.937931 
L 619.2 818.937931 
L 619.2 827.627586 
" style="fill:#569fc9;"/>
    <path clip-path="url(#p674cdd2a38)" d="M 619.2 818.937931 
L 633.6 818.937931 
L 633.6 810.248276 
L 619.2 810.248276 
L 619.2 818.937931 
" style="fill:#3f8ec0;"/>
    <path clip-path="url(#p674cdd2a38)" d="M 619.2 810.248276 
L 633.6 810.248276 
L 633.6 801.558621 
L 619.2 801.558621 
L 619.2 810.248276 
" style="fill:#337eb8;"/>
    <path clip-path="url(#p674cdd2a38)" d="M 619.2 801.558621 
L 633.6 801.558621 
L 633.6 792.868966 
L 619.2 792.868966 
L 619.2 801.558621 
" style="fill:#276eb0;"/>
    <path clip-path="url(#p674cdd2a38)" d="M 619.2 792.868966 
L 633.6 792.868966 
L 633.6 784.17931 
L 619.2 784.17931 
L 619.2 792.868966 
" style="fill:#1d5fa2;"/>
    <path clip-path="url(#p674cdd2a38)" d="M 619.2 784.17931 
L 633.6 784.17931 
L 633.6 775.489655 
L 619.2 775.489655 
L 619.2 784.17931 
" style="fill:#134c87;"/>
    <path clip-path="url(#p674cdd2a38)" d="M 619.2 775.489655 
L 633.6 775.489655 
L 633.6 766.8 
L 619.2 766.8 
L 619.2 775.489655 
" style="fill:#09386d;"/>
   </g>
   <g id="matplotlib.axis_11"/>
   <g id="matplotlib.axis_12">
    <g id="ytick_30">
     <g id="line2d_63">
      <g>
       <use style="fill:#ffffff;stroke:#000000;stroke-width:0.8;" x="633.6" xlink:href="#m40530b456b" y="1000.8"/>
      </g>
     </g>
     <g id="text_39">
      <!-- 6 -->
      <g transform="translate(640.6 1008.995625)scale(0.24 -0.24)">
       <use xlink:href="#STIXGeneral-Regular-8722"/>
       <use x="68.499985" xlink:href="#STIXGeneral-Regular-54"/>
      </g>
     </g>
    </g>
    <g id="ytick_31">
     <g id="line2d_64">
      <g>
       <use style="fill:#ffffff;stroke:#000000;stroke-width:0.8;" x="633.6" xlink:href="#m40530b456b" y="964.8"/>
      </g>
     </g>
     <g id="text_40">
      <!-- 4 -->
      <g transform="translate(640.6 972.995625)scale(0.24 -0.24)">
       <use xlink:href="#STIXGeneral-Regular-8722"/>
       <use x="68.499985" xlink:href="#STIXGeneral-Regular-52"/>
      </g>
     </g>
    </g>
    <g id="ytick_32">
     <g id="line2d_65">
      <g>
       <use style="fill:#ffffff;stroke:#000000;stroke-width:0.8;" x="633.6" xlink:href="#m40530b456b" y="928.8"/>
      </g>
     </g>
     <g id="text_41">
      <!-- 2 -->
      <g transform="translate(640.6 936.995625)scale(0.24 -0.24)">
       <use xlink:href="#STIXGeneral-Regular-8722"/>
       <use x="68.499985" xlink:href="#STIXGeneral-Regular-50"/>
      </g>
     </g>
    </g>
    <g id="ytick_33">
     <g id="line2d_66">
      <g>
       <use style="fill:#ffffff;stroke:#000000;stroke-width:0.8;" x="633.6" xlink:href="#m40530b456b" y="892.8"/>
      </g>
     </g>
     <g id="text_42">
      <!-- 0 -->
      <g transform="translate(640.6 900.995625)scale(0.24 -0.24)">
       <use xlink:href="#STIXGeneral-Regular-48"/>
      </g>
     </g>
    </g>
    <g id="ytick_34">
     <g id="line2d_67">
      <g>
       <use style="fill:#ffffff;stroke:#000000;stroke-width:0.8;" x="633.6" xlink:href="#m40530b456b" y="856.8"/>
      </g>
     </g>
     <g id="text_43">
      <!-- 2 -->
      <g transform="translate(640.6 864.995625)scale(0.24 -0.24)">
       <use xlink:href="#STIXGeneral-Regular-50"/>
      </g>
     </g>
    </g>
    <g id="ytick_35">
     <g id="line2d_68">
      <g>
       <use style="fill:#ffffff;stroke:#000000;stroke-width:0.8;" x="633.6" xlink:href="#m40530b456b" y="820.8"/>
      </g>
     </g>
     <g id="text_44">
      <!-- 4 -->
      <g transform="translate(640.6 828.995625)scale(0.24 -0.24)">
       <use xlink:href="#STIXGeneral-Regular-52"/>
      </g>
     </g>
    </g>
    <g id="ytick_36">
     <g id="line2d_69">
      <g>
       <use style="fill:#ffffff;stroke:#000000;stroke-width:0.8;" x="633.6" xlink:href="#m40530b456b" y="784.8"/>
      </g>
     </g>
     <g id="text_45">
      <!-- 6 -->
      <g transform="translate(640.6 792.995625)scale(0.24 -0.24)">
       <use xlink:href="#STIXGeneral-Regular-54"/>
      </g>
     </g>
    </g>
   </g>
   <g id="patch_22">
    <path d="M 619.2 1018.8 
L 619.2 1010.110345 
L 619.2 775.489655 
L 619.2 766.8 
L 633.6 766.8 
L 633.6 775.489655 
L 633.6 1010.110345 
L 633.6 1018.8 
z
" style="fill:none;stroke:#000000;stroke-linejoin:miter;stroke-width:0.8;"/>
   </g>
  </g>
 </g>
 <defs>
  <clipPath id="p2c0c26b32e">
   <rect height="252" width="504" x="108" y="133.2"/>
  </clipPath>
  <clipPath id="p64477267b3">
   <rect height="252" width="504" x="108" y="450"/>
  </clipPath>
  <clipPath id="p7d9d8c41d5">
   <rect height="252" width="504" x="108" y="766.8"/>
  </clipPath>
  <clipPath id="p2eefbccfa6">
   <rect height="252" width="14.4" x="619.2" y="133.2"/>
  </clipPath>
  <clipPath id="pb86a7e6c9a">
   <rect height="252" width="14.4" x="619.2" y="450"/>
  </clipPath>
  <clipPath id="p674cdd2a38">
   <rect height="252" width="14.4" x="619.2" y="766.8"/>
  </clipPath>
 </defs>
</svg>
