<?xml version="1.0" encoding="utf-8" standalone="no"?>
<!DOCTYPE svg PUBLIC "-//W3C//DTD SVG 1.1//EN"
  "http://www.w3.org/Graphics/SVG/1.1/DTD/svg11.dtd">
<!-- Created with matplotlib (https://matplotlib.org/) -->
<svg height="1152pt" version="1.1" viewBox="0 0 720 1152" width="720pt" xmlns="http://www.w3.org/2000/svg" xmlns:xlink="http://www.w3.org/1999/xlink">
 <metadata>
  <rdf:RDF xmlns:cc="http://creativecommons.org/ns#" xmlns:dc="http://purl.org/dc/elements/1.1/" xmlns:rdf="http://www.w3.org/1999/02/22-rdf-syntax-ns#">
   <cc:Work>
    <dc:type rdf:resource="http://purl.org/dc/dcmitype/StillImage"/>
    <dc:date>2022-05-03T19:01:48.852918</dc:date>
    <dc:format>image/svg+xml</dc:format>
    <dc:creator>
     <cc:Agent>
      <dc:title>Matplotlib v3.3.4, https://matplotlib.org/</dc:title>
     </cc:Agent>
    </dc:creator>
   </cc:Work>
  </rdf:RDF>
 </metadata>
 <defs>
  <style type="text/css">*{stroke-linecap:butt;stroke-linejoin:round;}</style>
 </defs>
 <g id="figure_1">
  <g id="patch_1">
   <path d="M 0 1152 
L 720 1152 
L 720 0 
L 0 0 
z
" style="fill:#ffffff;"/>
  </g>
  <g id="axes_1">
   <g id="patch_2">
    <path d="M 108 199.750459 
L 612 199.750459 
L 612 115.2 
L 108 115.2 
z
" style="fill:#ffffff;"/>
   </g>
   <g id="matplotlib.axis_1">
    <g id="xtick_1">
     <g id="line2d_1">
      <defs>
       <path d="M 0 0 
L 0 3.5 
" id="mfb8294cf51" style="stroke:#000000;stroke-width:0.8;"/>
      </defs>
      <g>
       <use style="fill:#ffffff;stroke:#000000;stroke-width:0.8;" x="130.909091" xlink:href="#mfb8294cf51" y="199.750459"/>
      </g>
     </g>
    </g>
    <g id="xtick_2">
     <g id="line2d_2">
      <g>
       <use style="fill:#ffffff;stroke:#000000;stroke-width:0.8;" x="360" xlink:href="#mfb8294cf51" y="199.750459"/>
      </g>
     </g>
    </g>
    <g id="xtick_3">
     <g id="line2d_3">
      <g>
       <use style="fill:#ffffff;stroke:#000000;stroke-width:0.8;" x="589.090909" xlink:href="#mfb8294cf51" y="199.750459"/>
      </g>
     </g>
    </g>
   </g>
   <g id="matplotlib.axis_2">
    <g id="ytick_1">
     <g id="line2d_4">
      <defs>
       <path d="M 0 0 
L -3.5 0 
" id="m9b7858c670" style="stroke:#000000;stroke-width:0.8;"/>
      </defs>
      <g>
       <use style="fill:#ffffff;stroke:#000000;stroke-width:0.8;" x="108" xlink:href="#m9b7858c670" y="192.704587"/>
      </g>
     </g>
     <g id="text_1">
      <!-- −2.5 -->
      <g transform="translate(19.73 207.046931)scale(0.42 -0.42)">
       <defs>
        <path d="M 62.09375 22 
L 6.40625 22 
L 6.40625 28.59375 
L 62.09375 28.59375 
z
" id="STIXGeneral-Regular-8722"/>
        <path d="M 47.40625 13.703125 
L 42 0 
L 2.90625 0 
L 2.90625 1.203125 
L 20.703125 20.09375 
Q 27.703125 27.40625 30.703125 33.5 
Q 33.703125 39.59375 33.703125 46.09375 
Q 33.703125 52.796875 30 56.5 
Q 26.296875 60.203125 19.796875 60.203125 
Q 14.40625 60.203125 11.25 57.390625 
Q 8.09375 54.59375 5.09375 47.203125 
L 3 47.703125 
Q 4.703125 57 9.84375 62.296875 
Q 15 67.59375 23.796875 67.59375 
Q 32.09375 67.59375 37.1875 62.59375 
Q 42.296875 57.59375 42.296875 50 
Q 42.296875 38.703125 29.5 25.203125 
L 13 7.59375 
L 36.40625 7.59375 
Q 39.703125 7.59375 41.640625 8.890625 
Q 43.59375 10.203125 46 14.296875 
z
" id="STIXGeneral-Regular-50"/>
        <path d="M 18.09375 4.296875 
Q 18.09375 2.09375 16.4375 0.5 
Q 14.796875 -1.09375 12.5 -1.09375 
Q 10.203125 -1.09375 8.59375 0.5 
Q 7 2.09375 7 4.390625 
Q 7 6.703125 8.640625 8.34375 
Q 10.296875 10 12.59375 10 
Q 14.796875 10 16.4375 8.296875 
Q 18.09375 6.59375 18.09375 4.296875 
z
" id="STIXGeneral-Regular-46"/>
        <path d="M 43.796875 68.09375 
L 40.203125 59.59375 
Q 39.59375 58.296875 37.5 58.296875 
L 18.09375 58.296875 
L 14.09375 49.796875 
Q 25.09375 47.703125 30 45.25 
Q 34.90625 42.796875 39.09375 37 
Q 42.59375 32.203125 42.59375 24.296875 
Q 42.59375 17.09375 40.25 12.1875 
Q 37.90625 7.296875 32.796875 3.5 
Q 26 -1.40625 15.796875 -1.40625 
Q 10.09375 -1.40625 6.59375 0.296875 
Q 3.09375 2 3.09375 4.796875 
Q 3.09375 8.59375 7.59375 8.59375 
Q 11.203125 8.59375 15 5.5 
Q 18.90625 2.296875 22.09375 2.296875 
Q 27.296875 2.296875 31.4375 7.5 
Q 35.59375 12.703125 35.59375 19.203125 
Q 35.59375 28.796875 28.90625 34.203125 
Q 20.203125 41.203125 7.59375 41.203125 
Q 6.40625 41.203125 6.40625 42 
L 6.5 42.5 
L 17.40625 66.203125 
L 38.09375 66.203125 
Q 39.796875 66.203125 40.75 66.703125 
Q 41.703125 67.203125 42.90625 68.796875 
z
" id="STIXGeneral-Regular-53"/>
       </defs>
       <use xlink:href="#STIXGeneral-Regular-8722"/>
       <use x="68.499985" xlink:href="#STIXGeneral-Regular-50"/>
       <use x="118.499969" xlink:href="#STIXGeneral-Regular-46"/>
       <use x="143.499954" xlink:href="#STIXGeneral-Regular-53"/>
      </g>
     </g>
    </g>
    <g id="ytick_2">
     <g id="line2d_5">
      <g>
       <use style="fill:#ffffff;stroke:#000000;stroke-width:0.8;" x="108" xlink:href="#m9b7858c670" y="157.475229"/>
      </g>
     </g>
     <g id="text_2">
      <!-- 0.0 -->
      <g transform="translate(48.5 171.817573)scale(0.42 -0.42)">
       <defs>
        <path d="M 47.59375 33 
Q 47.59375 26.296875 46.296875 20.34375 
Q 45 14.40625 42.453125 9.40625 
Q 39.90625 4.40625 35.40625 1.5 
Q 30.90625 -1.40625 25 -1.40625 
Q 18.90625 -1.40625 14.296875 1.6875 
Q 9.703125 4.796875 7.203125 10 
Q 4.703125 15.203125 3.546875 21.09375 
Q 2.40625 27 2.40625 33.59375 
Q 2.40625 42.90625 4.703125 50.34375 
Q 7 57.796875 12.34375 62.6875 
Q 17.703125 67.59375 25.40625 67.59375 
Q 35.203125 67.59375 41.390625 58 
Q 47.59375 48.40625 47.59375 33 
z
M 38 32.5 
Q 38 48.296875 34.640625 56.640625 
Q 31.296875 65 24.796875 65 
Q 18.59375 65 15.296875 56.59375 
Q 12 48.203125 12 32.90625 
Q 12 17.5 15.296875 9.34375 
Q 18.59375 1.203125 25 1.203125 
Q 31.296875 1.203125 34.640625 9.34375 
Q 38 17.5 38 32.5 
z
" id="STIXGeneral-Regular-48"/>
       </defs>
       <use xlink:href="#STIXGeneral-Regular-48"/>
       <use x="49.999985" xlink:href="#STIXGeneral-Regular-46"/>
       <use x="74.999969" xlink:href="#STIXGeneral-Regular-48"/>
      </g>
     </g>
    </g>
    <g id="ytick_3">
     <g id="line2d_6">
      <g>
       <use style="fill:#ffffff;stroke:#000000;stroke-width:0.8;" x="108" xlink:href="#m9b7858c670" y="122.245872"/>
      </g>
     </g>
     <g id="text_3">
      <!-- 2.5 -->
      <g transform="translate(48.5 136.588215)scale(0.42 -0.42)">
       <use xlink:href="#STIXGeneral-Regular-50"/>
       <use x="49.999985" xlink:href="#STIXGeneral-Regular-46"/>
       <use x="74.999969" xlink:href="#STIXGeneral-Regular-53"/>
      </g>
     </g>
    </g>
    <g id="text_4">
     <!-- Cp -->
     <g transform="translate(6.614688 181.982886)rotate(-90)scale(0.42 -0.42)">
      <defs>
       <path d="M 61.40625 13.09375 
L 63.296875 11.296875 
Q 54.40625 -1.40625 36 -1.40625 
Q 21.5 -1.40625 12.40625 7.5 
Q 2.796875 16.90625 2.796875 32.5 
Q 2.796875 47.09375 11.796875 57.203125 
Q 21.203125 67.59375 36.09375 67.59375 
Q 42.5 67.59375 48 66.09375 
Q 54.296875 64.296875 54.90625 64.296875 
Q 58.203125 64.296875 59.09375 67.59375 
L 61.09375 67.59375 
L 62 44.90625 
L 59.703125 44.90625 
Q 58.09375 52.09375 54.5 56 
Q 47.40625 63.59375 38.40625 63.59375 
Q 27.296875 63.59375 20.84375 55.4375 
Q 14.40625 47.296875 14.40625 34.09375 
Q 14.40625 18 21.59375 10.203125 
Q 28.296875 3 39.40625 3 
Q 46 3 50.796875 5.296875 
Q 55.59375 7.59375 61.40625 13.09375 
z
" id="STIXGeneral-Regular-67"/>
       <path d="M 15.90625 45.796875 
L 15.90625 38.09375 
Q 22.203125 46 30.296875 46 
Q 37.59375 46 42.296875 40 
Q 47 34 47 24.703125 
Q 47 13.796875 40.953125 6.390625 
Q 34.90625 -1 26 -1 
Q 22.90625 -1 20.75 -0.09375 
Q 18.59375 0.796875 15.90625 3.296875 
L 15.90625 -12.40625 
Q 15.90625 -17.09375 17.5 -18.4375 
Q 19.09375 -19.796875 24.703125 -19.90625 
L 24.703125 -21.703125 
L 0.5 -21.703125 
L 0.5 -20 
Q 4.90625 -19.59375 6.203125 -18.296875 
Q 7.5 -17 7.5 -13.09375 
L 7.5 33.703125 
Q 7.5 37.203125 6.703125 38.296875 
Q 5.90625 39.40625 3.40625 39.40625 
Q 1.796875 39.40625 0.90625 39.296875 
L 0.90625 40.90625 
Q 7.90625 43 15.296875 46 
z
M 15.90625 33.40625 
L 15.90625 8.796875 
Q 15.90625 6.59375 19.34375 4.390625 
Q 22.796875 2.203125 26.296875 2.203125 
Q 31.703125 2.203125 35.046875 7.296875 
Q 38.40625 12.40625 38.40625 20.703125 
Q 38.40625 29.5 35.046875 34.75 
Q 31.703125 40 26.09375 40 
Q 22.59375 40 19.25 37.796875 
Q 15.90625 35.59375 15.90625 33.40625 
z
" id="STIXGeneral-Regular-112"/>
      </defs>
      <use xlink:href="#STIXGeneral-Regular-67"/>
      <use x="66.699997" xlink:href="#STIXGeneral-Regular-112"/>
     </g>
    </g>
   </g>
   <g id="line2d_7">
    <path clip-path="url(#pff48efff54)" d="M 130.909091 169.789722 
L 135.53719 157.209691 
L 140.165289 153.981655 
L 144.793388 152.571172 
L 149.421488 151.420879 
L 154.049587 150.879317 
L 158.677686 150.589953 
L 163.305785 150.271386 
L 167.933884 149.993988 
L 172.561983 149.814191 
L 177.190083 149.673856 
L 181.818182 149.558258 
L 186.446281 149.461324 
L 191.07438 149.37588 
L 195.702479 149.299643 
L 200.330579 149.229647 
L 204.958678 149.141611 
L 209.586777 149.054645 
L 214.214876 148.970495 
L 218.842975 148.880444 
L 223.471074 148.801191 
L 228.099174 148.717598 
L 232.727273 148.653372 
L 237.355372 148.574664 
L 241.983471 148.506005 
L 246.61157 148.43276 
L 251.239669 148.359258 
L 255.867769 148.291108 
L 260.495868 148.223064 
L 265.123967 148.152255 
L 269.752066 148.073337 
L 274.380165 148.007638 
L 279.008264 147.923658 
L 283.636364 147.855027 
L 288.264463 147.774933 
L 292.892562 147.694836 
L 297.520661 147.620667 
L 302.14876 147.550633 
L 306.77686 147.476111 
L 311.404959 147.410165 
L 316.033058 147.331823 
L 320.661157 147.264816 
L 325.289256 147.20219 
L 329.917355 147.130323 
L 334.545455 147.069604 
L 339.173554 147.017669 
L 343.801653 146.937873 
L 348.429752 146.916843 
L 353.057851 146.870396 
L 357.68595 146.83313 
L 362.31405 146.807822 
L 366.942149 146.788409 
L 371.570248 146.757484 
L 376.198347 146.777183 
L 380.826446 146.769603 
L 385.454545 146.793331 
L 390.082645 146.8153 
L 394.710744 146.850846 
L 399.338843 146.919759 
L 403.966942 146.987118 
L 408.595041 147.047163 
L 413.22314 147.156536 
L 417.85124 147.259 
L 422.479339 147.388921 
L 427.107438 147.542843 
L 431.735537 147.70386 
L 436.363636 147.889891 
L 440.991736 148.11024 
L 445.619835 148.336771 
L 450.247934 148.604001 
L 454.876033 148.889615 
L 459.504132 149.194527 
L 464.132231 149.542025 
L 468.760331 149.902588 
L 473.38843 150.310309 
L 478.016529 150.749596 
L 482.644628 151.206082 
L 487.272727 151.716944 
L 491.900826 152.267057 
L 496.528926 152.846861 
L 501.157025 153.496551 
L 505.785124 154.189343 
L 510.413223 154.930569 
L 515.041322 155.732491 
L 519.669421 156.569849 
L 524.297521 157.474065 
L 528.92562 158.462421 
L 533.553719 159.533357 
L 538.181818 160.700863 
L 542.809917 161.972229 
L 547.438017 163.332821 
L 552.066116 164.844742 
L 556.694215 166.540125 
L 561.322314 168.563166 
L 565.950413 170.657239 
L 570.578512 173.57404 
L 575.206612 176.432813 
L 579.834711 179.3604 
L 584.46281 185.133512 
L 589.090909 191.152382 
" style="fill:none;stroke:#1f77b4;stroke-linecap:square;stroke-width:8;"/>
   </g>
   <g id="line2d_8">
    <path clip-path="url(#pff48efff54)" d="M 108 157.475229 
L 612 157.475229 
" style="fill:none;stroke:#000000;stroke-dasharray:3.2,0.8,0.5,0.8;stroke-dashoffset:0;stroke-width:0.5;"/>
   </g>
   <g id="patch_3">
    <path d="M 108 199.750459 
L 108 115.2 
" style="fill:none;stroke:#000000;stroke-linecap:square;stroke-linejoin:miter;stroke-width:0.8;"/>
   </g>
   <g id="patch_4">
    <path d="M 612 199.750459 
L 612 115.2 
" style="fill:none;stroke:#000000;stroke-linecap:square;stroke-linejoin:miter;stroke-width:0.8;"/>
   </g>
   <g id="patch_5">
    <path d="M 108 199.750459 
L 612 199.750459 
" style="fill:none;stroke:#000000;stroke-linecap:square;stroke-linejoin:miter;stroke-width:0.8;"/>
   </g>
   <g id="patch_6">
    <path d="M 108 115.2 
L 612 115.2 
" style="fill:none;stroke:#000000;stroke-linecap:square;stroke-linejoin:miter;stroke-width:0.8;"/>
   </g>
   <g id="text_5">
    <!-- $\^t = 0.05$ -->
    <g transform="translate(599.19 167.259917)scale(0.42 -0.42)">
     <defs>
      <path d="M -7.5 50.703125 
L -10.90625 50.703125 
L -23.09375 61 
L -35.203125 50.703125 
L -38.59375 50.703125 
L -26.203125 67.40625 
L -20 67.40625 
z
" id="STIXGeneral-Regular-770"/>
      <path d="M 29.59375 42.796875 
L 29.09375 39.59375 
L 20.703125 39.59375 
L 12 6.796875 
Q 11.796875 6 11.796875 5.40625 
Q 11.796875 3.796875 13.296875 3.796875 
Q 14.5 3.796875 16.09375 5.34375 
Q 17.703125 6.90625 21.40625 11.703125 
L 22.703125 11 
Q 18.09375 4 15.140625 1.453125 
Q 12.203125 -1.09375 8.40625 -1.09375 
Q 3.796875 -1.09375 3.796875 2.59375 
Q 3.796875 3.59375 5.40625 10 
L 13.203125 39.59375 
L 5.703125 39.59375 
L 5.59375 40.203125 
Q 5.59375 42 8.90625 42.703125 
Q 11.40625 43.296875 15.5 46.546875 
Q 19.59375 49.796875 22.203125 53.703125 
Q 22.796875 54.59375 23.59375 54.59375 
Q 24.5 54.59375 24.5 53.796875 
Q 24.5 53.296875 24.40625 53.09375 
L 21.59375 42.796875 
z
" id="STIXGeneral-Italic-116"/>
      <path d="M 63.703125 32 
L 4.796875 32 
L 4.796875 38.59375 
L 63.703125 38.59375 
z
M 63.703125 12 
L 4.796875 12 
L 4.796875 18.59375 
L 63.703125 18.59375 
z
" id="STIXGeneral-Regular-61"/>
     </defs>
     <use transform="translate(39.042969 16.59375)" xlink:href="#STIXGeneral-Regular-770"/>
     <use transform="translate(0 0.203125)" xlink:href="#STIXGeneral-Italic-116"/>
     <use transform="translate(42.239984 0.203125)" xlink:href="#STIXGeneral-Regular-61"/>
     <use transform="translate(125.179965 0.203125)" xlink:href="#STIXGeneral-Regular-48"/>
     <use transform="translate(175.17995 0.203125)" xlink:href="#STIXGeneral-Regular-46"/>
     <use transform="translate(200.179935 0.203125)" xlink:href="#STIXGeneral-Regular-48"/>
     <use transform="translate(250.179919 0.203125)" xlink:href="#STIXGeneral-Regular-53"/>
    </g>
   </g>
   <g id="legend_1">
    <g id="line2d_9">
     <path d="M 241.22253 158.9325 
L 311.19453 158.9325 
" style="fill:none;stroke:#1f77b4;stroke-linecap:square;stroke-width:8;"/>
    </g>
    <g id="line2d_10"/>
    <g id="text_6">
     <!-- r/c = 3.65 -->
     <g transform="translate(339.18333 171.1776)scale(0.34986 -0.34986)">
      <defs>
       <path d="M 16 45.796875 
L 16 36.59375 
Q 19.796875 42 22.34375 44 
Q 24.90625 46 28 46 
Q 30.59375 46 32.046875 44.59375 
Q 33.5 43.203125 33.5 40.703125 
Q 33.5 38.59375 32.453125 37.390625 
Q 31.40625 36.203125 29.59375 36.203125 
Q 27.703125 36.203125 25.59375 38.203125 
Q 24 39.703125 23 39.703125 
Q 20.90625 39.703125 18.453125 36.796875 
Q 16 33.90625 16 31.5 
L 16 9 
Q 16 4.703125 17.703125 3.203125 
Q 19.40625 1.703125 24.5 1.5 
L 24.5 0 
L 0.5 0 
L 0.5 1.5 
Q 5.296875 2.40625 6.4375 3.5 
Q 7.59375 4.59375 7.59375 8.40625 
L 7.59375 33.40625 
Q 7.59375 36.703125 6.84375 38.046875 
Q 6.09375 39.40625 4.203125 39.40625 
Q 2.59375 39.40625 0.703125 39 
L 0.703125 40.59375 
Q 7 42.59375 15.5 46 
z
" id="STIXGeneral-Regular-114"/>
       <path d="M 28.703125 67.59375 
L 5.90625 -1.40625 
L -0.90625 -1.40625 
L 22 67.59375 
z
" id="STIXGeneral-Regular-47"/>
       <path d="M 39.796875 15.59375 
L 41.203125 14.703125 
Q 36.90625 6.296875 33 3.203125 
Q 27.90625 -1 21.5 -1 
Q 13.203125 -1 7.84375 5.25 
Q 2.5 11.5 2.5 21.203125 
Q 2.5 33.90625 10.90625 40.90625 
Q 17.09375 46 24.40625 46 
Q 30.703125 46 35.25 42.953125 
Q 39.796875 39.90625 39.796875 35.703125 
Q 39.796875 34 38.390625 32.75 
Q 37 31.5 35.09375 31.5 
Q 31.59375 31.5 30.296875 36.09375 
L 29.703125 38.296875 
Q 28.90625 41.09375 27.703125 42.09375 
Q 26.5 43.09375 23.796875 43.09375 
Q 17.703125 43.09375 13.953125 38.296875 
Q 10.203125 33.5 10.203125 25.703125 
Q 10.203125 17.09375 14.5 11.640625 
Q 18.796875 6.203125 25.703125 6.203125 
Q 30 6.203125 33.09375 8.25 
Q 36.203125 10.296875 39.796875 15.59375 
z
" id="STIXGeneral-Regular-99"/>
       <path id="STIXGeneral-Regular-32"/>
       <path d="M 6.09375 51 
L 4.5 51.40625 
Q 6.796875 58.90625 11.6875 63.25 
Q 16.59375 67.59375 24.09375 67.59375 
Q 31.09375 67.59375 35.390625 63.796875 
Q 39.703125 60 39.703125 53.90625 
Q 39.703125 45.703125 30.40625 40.09375 
Q 35.90625 37.703125 38.703125 34.796875 
Q 43.09375 29.90625 43.09375 21.90625 
Q 43.09375 13.90625 38.5 7.90625 
Q 35.09375 3.296875 28.75 0.9375 
Q 22.40625 -1.40625 15.296875 -1.40625 
Q 4.09375 -1.40625 4.09375 4.296875 
Q 4.09375 5.90625 5.296875 6.90625 
Q 6.5 7.90625 8.203125 7.90625 
Q 10.703125 7.90625 14.296875 5.296875 
Q 18.703125 2.203125 22.90625 2.203125 
Q 28.40625 2.203125 32.15625 6.640625 
Q 35.90625 11.09375 35.90625 17.5 
Q 35.90625 29 25.5 32 
Q 22.40625 33 15.296875 33 
L 15.296875 34.40625 
Q 20.90625 36.296875 23.703125 38 
Q 31.796875 42.59375 31.796875 51.40625 
Q 31.796875 56.40625 28.9375 59 
Q 26.09375 61.59375 21 61.59375 
Q 12 61.59375 6.09375 51 
z
" id="STIXGeneral-Regular-51"/>
       <path d="M 44.59375 68.40625 
L 44.796875 66.796875 
Q 33 64.90625 25.09375 57.25 
Q 17.203125 49.59375 15.203125 38.296875 
Q 21 42.796875 27.90625 42.796875 
Q 36.703125 42.796875 41.75 37.1875 
Q 46.796875 31.59375 46.796875 21.90625 
Q 46.796875 12.09375 41.703125 5.90625 
Q 35.796875 -1.40625 25.796875 -1.40625 
Q 13.59375 -1.40625 8.09375 8.703125 
Q 3.40625 17.296875 3.40625 27.90625 
Q 3.40625 44.296875 14.296875 55.5 
Q 20.5 61.90625 27.046875 64.546875 
Q 33.59375 67.203125 44.59375 68.40625 
z
M 37.796875 18.796875 
Q 37.796875 38.203125 24.296875 38.203125 
Q 19.296875 38.203125 16 35.546875 
Q 12.703125 32.90625 12.703125 26.59375 
Q 12.703125 14.90625 16.34375 8.15625 
Q 20 1.40625 26.90625 1.40625 
Q 32.203125 1.40625 35 6.15625 
Q 37.796875 10.90625 37.796875 18.796875 
z
" id="STIXGeneral-Regular-54"/>
      </defs>
      <use xlink:href="#STIXGeneral-Regular-114"/>
      <use x="33.299988" xlink:href="#STIXGeneral-Regular-47"/>
      <use x="61.099976" xlink:href="#STIXGeneral-Regular-99"/>
      <use x="105.499969" xlink:href="#STIXGeneral-Regular-32"/>
      <use x="130.499954" xlink:href="#STIXGeneral-Regular-61"/>
      <use x="198.999939" xlink:href="#STIXGeneral-Regular-32"/>
      <use x="223.999924" xlink:href="#STIXGeneral-Regular-51"/>
      <use x="273.999908" xlink:href="#STIXGeneral-Regular-46"/>
      <use x="298.999893" xlink:href="#STIXGeneral-Regular-54"/>
      <use x="348.999878" xlink:href="#STIXGeneral-Regular-53"/>
     </g>
    </g>
   </g>
  </g>
  <g id="axes_2">
   <g id="patch_7">
    <path d="M 108 292.755963 
L 612 292.755963 
L 612 208.205505 
L 108 208.205505 
z
" style="fill:#ffffff;"/>
   </g>
   <g id="matplotlib.axis_3">
    <g id="xtick_4">
     <g id="line2d_11">
      <g>
       <use style="fill:#ffffff;stroke:#000000;stroke-width:0.8;" x="130.909091" xlink:href="#mfb8294cf51" y="292.755963"/>
      </g>
     </g>
    </g>
    <g id="xtick_5">
     <g id="line2d_12">
      <g>
       <use style="fill:#ffffff;stroke:#000000;stroke-width:0.8;" x="360" xlink:href="#mfb8294cf51" y="292.755963"/>
      </g>
     </g>
    </g>
    <g id="xtick_6">
     <g id="line2d_13">
      <g>
       <use style="fill:#ffffff;stroke:#000000;stroke-width:0.8;" x="589.090909" xlink:href="#mfb8294cf51" y="292.755963"/>
      </g>
     </g>
    </g>
   </g>
   <g id="matplotlib.axis_4">
    <g id="ytick_4">
     <g id="line2d_14">
      <g>
       <use style="fill:#ffffff;stroke:#000000;stroke-width:0.8;" x="108" xlink:href="#m9b7858c670" y="285.710092"/>
      </g>
     </g>
     <g id="text_7">
      <!-- −2.5 -->
      <g transform="translate(19.73 300.052435)scale(0.42 -0.42)">
       <use xlink:href="#STIXGeneral-Regular-8722"/>
       <use x="68.499985" xlink:href="#STIXGeneral-Regular-50"/>
       <use x="118.499969" xlink:href="#STIXGeneral-Regular-46"/>
       <use x="143.499954" xlink:href="#STIXGeneral-Regular-53"/>
      </g>
     </g>
    </g>
    <g id="ytick_5">
     <g id="line2d_15">
      <g>
       <use style="fill:#ffffff;stroke:#000000;stroke-width:0.8;" x="108" xlink:href="#m9b7858c670" y="250.480734"/>
      </g>
     </g>
     <g id="text_8">
      <!-- 0.0 -->
      <g transform="translate(48.5 264.823078)scale(0.42 -0.42)">
       <use xlink:href="#STIXGeneral-Regular-48"/>
       <use x="49.999985" xlink:href="#STIXGeneral-Regular-46"/>
       <use x="74.999969" xlink:href="#STIXGeneral-Regular-48"/>
      </g>
     </g>
    </g>
    <g id="ytick_6">
     <g id="line2d_16">
      <g>
       <use style="fill:#ffffff;stroke:#000000;stroke-width:0.8;" x="108" xlink:href="#m9b7858c670" y="215.251376"/>
      </g>
     </g>
     <g id="text_9">
      <!-- 2.5 -->
      <g transform="translate(48.5 229.59372)scale(0.42 -0.42)">
       <use xlink:href="#STIXGeneral-Regular-50"/>
       <use x="49.999985" xlink:href="#STIXGeneral-Regular-46"/>
       <use x="74.999969" xlink:href="#STIXGeneral-Regular-53"/>
      </g>
     </g>
    </g>
    <g id="text_10">
     <!-- Cp -->
     <g transform="translate(6.614688 274.98839)rotate(-90)scale(0.42 -0.42)">
      <use xlink:href="#STIXGeneral-Regular-67"/>
      <use x="66.699997" xlink:href="#STIXGeneral-Regular-112"/>
     </g>
    </g>
   </g>
   <g id="line2d_17">
    <path clip-path="url(#pa99b895e44)" d="M 130.909091 202.341902 
L 135.53719 226.673074 
L 140.165289 234.74256 
L 144.793388 238.68177 
L 149.421488 242.420171 
L 154.049587 244.428075 
L 158.677686 245.959543 
L 163.305785 247.273357 
L 167.933884 248.395523 
L 172.561983 249.361032 
L 177.190083 250.21492 
L 181.818182 250.989797 
L 186.446281 251.69314 
L 191.07438 252.340457 
L 195.702479 252.937371 
L 200.330579 253.49064 
L 204.958678 254.006126 
L 209.586777 254.489013 
L 214.214876 254.943228 
L 218.842975 255.369702 
L 223.471074 255.776629 
L 228.099174 256.166764 
L 232.727273 256.544969 
L 237.355372 256.911283 
L 241.983471 257.268307 
L 246.61157 257.616146 
L 251.239669 257.956947 
L 255.867769 258.2915 
L 260.495868 258.621354 
L 265.123967 258.943981 
L 269.752066 259.259059 
L 274.380165 259.567856 
L 279.008264 259.872136 
L 283.636364 260.171485 
L 288.264463 260.465489 
L 292.892562 260.753465 
L 297.520661 261.037557 
L 302.14876 261.319159 
L 306.77686 261.594726 
L 311.404959 261.866471 
L 316.033058 262.133199 
L 320.661157 262.395157 
L 325.289256 262.650313 
L 329.917355 262.903592 
L 334.545455 263.152764 
L 339.173554 263.395215 
L 343.801653 263.696329 
L 348.429752 263.870706 
L 353.057851 264.097003 
L 357.68595 264.321406 
L 362.31405 264.540914 
L 366.942149 264.754402 
L 371.570248 264.960966 
L 376.198347 265.160898 
L 380.826446 265.354307 
L 385.454545 265.539601 
L 390.082645 265.720495 
L 394.710744 265.893575 
L 399.338843 266.058391 
L 403.966942 266.216295 
L 408.595041 266.367568 
L 413.22314 266.51304 
L 417.85124 266.648628 
L 422.479339 266.773662 
L 427.107438 266.887067 
L 431.735537 266.992231 
L 436.363636 267.083198 
L 440.991736 267.164938 
L 445.619835 267.235946 
L 450.247934 267.296352 
L 454.876033 267.341352 
L 459.504132 267.375336 
L 464.132231 267.394767 
L 468.760331 267.401346 
L 473.38843 267.390221 
L 478.016529 267.36141 
L 482.644628 267.313505 
L 487.272727 267.246125 
L 491.900826 267.161158 
L 496.528926 267.055735 
L 501.157025 266.923539 
L 505.785124 266.763709 
L 510.413223 266.580737 
L 515.041322 266.377845 
L 519.669421 266.155627 
L 524.297521 265.899581 
L 528.92562 265.610996 
L 533.553719 265.279572 
L 538.181818 264.907943 
L 542.809917 264.484634 
L 547.438017 264.011943 
L 552.066116 263.514793 
L 556.694215 262.896109 
L 561.322314 262.120704 
L 565.950413 261.372637 
L 570.578512 260.305079 
L 575.206612 259.313727 
L 579.834711 257.936683 
L 584.46281 255.668484 
L 589.090909 252.136655 
" style="fill:none;stroke:#1f77b4;stroke-linecap:square;stroke-width:8;"/>
   </g>
   <g id="line2d_18">
    <path clip-path="url(#pa99b895e44)" d="M 108 250.480734 
L 612 250.480734 
" style="fill:none;stroke:#000000;stroke-dasharray:3.2,0.8,0.5,0.8;stroke-dashoffset:0;stroke-width:0.5;"/>
   </g>
   <g id="patch_8">
    <path d="M 108 292.755963 
L 108 208.205505 
" style="fill:none;stroke:#000000;stroke-linecap:square;stroke-linejoin:miter;stroke-width:0.8;"/>
   </g>
   <g id="patch_9">
    <path d="M 612 292.755963 
L 612 208.205505 
" style="fill:none;stroke:#000000;stroke-linecap:square;stroke-linejoin:miter;stroke-width:0.8;"/>
   </g>
   <g id="patch_10">
    <path d="M 108 292.755963 
L 612 292.755963 
" style="fill:none;stroke:#000000;stroke-linecap:square;stroke-linejoin:miter;stroke-width:0.8;"/>
   </g>
   <g id="patch_11">
    <path d="M 108 208.205505 
L 612 208.205505 
" style="fill:none;stroke:#000000;stroke-linecap:square;stroke-linejoin:miter;stroke-width:0.8;"/>
   </g>
   <g id="text_11">
    <!-- $\^t = 0.10$ -->
    <g transform="translate(599.19 260.265421)scale(0.42 -0.42)">
     <defs>
      <path d="M 39.40625 0 
L 11.796875 0 
L 11.796875 1.5 
Q 17.296875 1.796875 19.296875 3.546875 
Q 21.296875 5.296875 21.296875 9.5 
L 21.296875 54.40625 
Q 21.296875 59.296875 18.296875 59.296875 
Q 16.90625 59.296875 13.796875 58.09375 
L 11.09375 57.09375 
L 11.09375 58.5 
L 29 67.59375 
L 29.90625 67.296875 
L 29.90625 7.59375 
Q 29.90625 4.296875 31.90625 2.890625 
Q 33.90625 1.5 39.40625 1.5 
z
" id="STIXGeneral-Regular-49"/>
     </defs>
     <use transform="translate(39.042969 16.59375)" xlink:href="#STIXGeneral-Regular-770"/>
     <use transform="translate(0 0.203125)" xlink:href="#STIXGeneral-Italic-116"/>
     <use transform="translate(42.239984 0.203125)" xlink:href="#STIXGeneral-Regular-61"/>
     <use transform="translate(125.179965 0.203125)" xlink:href="#STIXGeneral-Regular-48"/>
     <use transform="translate(175.17995 0.203125)" xlink:href="#STIXGeneral-Regular-46"/>
     <use transform="translate(200.179935 0.203125)" xlink:href="#STIXGeneral-Regular-49"/>
     <use transform="translate(250.179919 0.203125)" xlink:href="#STIXGeneral-Regular-48"/>
    </g>
   </g>
  </g>
  <g id="axes_3">
   <g id="patch_12">
    <path d="M 108 385.761468 
L 612 385.761468 
L 612 301.211009 
L 108 301.211009 
z
" style="fill:#ffffff;"/>
   </g>
   <g id="matplotlib.axis_5">
    <g id="xtick_7">
     <g id="line2d_19">
      <g>
       <use style="fill:#ffffff;stroke:#000000;stroke-width:0.8;" x="130.909091" xlink:href="#mfb8294cf51" y="385.761468"/>
      </g>
     </g>
    </g>
    <g id="xtick_8">
     <g id="line2d_20">
      <g>
       <use style="fill:#ffffff;stroke:#000000;stroke-width:0.8;" x="360" xlink:href="#mfb8294cf51" y="385.761468"/>
      </g>
     </g>
    </g>
    <g id="xtick_9">
     <g id="line2d_21">
      <g>
       <use style="fill:#ffffff;stroke:#000000;stroke-width:0.8;" x="589.090909" xlink:href="#mfb8294cf51" y="385.761468"/>
      </g>
     </g>
    </g>
   </g>
   <g id="matplotlib.axis_6">
    <g id="ytick_7">
     <g id="line2d_22">
      <g>
       <use style="fill:#ffffff;stroke:#000000;stroke-width:0.8;" x="108" xlink:href="#m9b7858c670" y="378.715596"/>
      </g>
     </g>
     <g id="text_12">
      <!-- −2.5 -->
      <g transform="translate(19.73 393.05794)scale(0.42 -0.42)">
       <use xlink:href="#STIXGeneral-Regular-8722"/>
       <use x="68.499985" xlink:href="#STIXGeneral-Regular-50"/>
       <use x="118.499969" xlink:href="#STIXGeneral-Regular-46"/>
       <use x="143.499954" xlink:href="#STIXGeneral-Regular-53"/>
      </g>
     </g>
    </g>
    <g id="ytick_8">
     <g id="line2d_23">
      <g>
       <use style="fill:#ffffff;stroke:#000000;stroke-width:0.8;" x="108" xlink:href="#m9b7858c670" y="343.486239"/>
      </g>
     </g>
     <g id="text_13">
      <!-- 0.0 -->
      <g transform="translate(48.5 357.828582)scale(0.42 -0.42)">
       <use xlink:href="#STIXGeneral-Regular-48"/>
       <use x="49.999985" xlink:href="#STIXGeneral-Regular-46"/>
       <use x="74.999969" xlink:href="#STIXGeneral-Regular-48"/>
      </g>
     </g>
    </g>
    <g id="ytick_9">
     <g id="line2d_24">
      <g>
       <use style="fill:#ffffff;stroke:#000000;stroke-width:0.8;" x="108" xlink:href="#m9b7858c670" y="308.256881"/>
      </g>
     </g>
     <g id="text_14">
      <!-- 2.5 -->
      <g transform="translate(48.5 322.599224)scale(0.42 -0.42)">
       <use xlink:href="#STIXGeneral-Regular-50"/>
       <use x="49.999985" xlink:href="#STIXGeneral-Regular-46"/>
       <use x="74.999969" xlink:href="#STIXGeneral-Regular-53"/>
      </g>
     </g>
    </g>
    <g id="text_15">
     <!-- Cp -->
     <g transform="translate(6.614688 367.993895)rotate(-90)scale(0.42 -0.42)">
      <use xlink:href="#STIXGeneral-Regular-67"/>
      <use x="66.699997" xlink:href="#STIXGeneral-Regular-112"/>
     </g>
    </g>
   </g>
   <g id="line2d_25">
    <path clip-path="url(#p9ec5adc73b)" d="M 130.909091 354.154111 
L 135.53719 325.734064 
L 140.165289 323.53236 
L 144.793388 322.668471 
L 149.421488 322.917196 
L 154.049587 323.377711 
L 158.677686 323.823845 
L 163.305785 324.228568 
L 167.933884 324.688997 
L 172.561983 325.140128 
L 177.190083 325.58693 
L 181.818182 326.024998 
L 186.446281 326.451083 
L 191.07438 326.865519 
L 195.702479 327.266885 
L 200.330579 327.656685 
L 204.958678 328.036752 
L 209.586777 328.409468 
L 214.214876 328.776412 
L 218.842975 329.135504 
L 223.471074 329.485666 
L 228.099174 329.827332 
L 232.727273 330.160986 
L 237.355372 330.485092 
L 241.983471 330.801691 
L 246.61157 331.109638 
L 251.239669 331.411385 
L 255.867769 331.70666 
L 260.495868 331.996364 
L 265.123967 332.279599 
L 269.752066 332.554942 
L 274.380165 332.823149 
L 279.008264 333.085536 
L 283.636364 333.342757 
L 288.264463 333.593557 
L 292.892562 333.83849 
L 297.520661 334.077298 
L 302.14876 334.311697 
L 306.77686 334.541213 
L 311.404959 334.76732 
L 316.033058 334.98788 
L 320.661157 335.202707 
L 325.289256 335.411496 
L 329.917355 335.616725 
L 334.545455 335.817988 
L 339.173554 336.014723 
L 343.801653 336.255054 
L 348.429752 336.393853 
L 353.057851 336.577148 
L 357.68595 336.757648 
L 362.31405 336.935698 
L 366.942149 337.109716 
L 371.570248 337.279166 
L 376.198347 337.444601 
L 380.826446 337.607596 
L 385.454545 337.767341 
L 390.082645 337.924386 
L 394.710744 338.077847 
L 399.338843 338.228228 
L 403.966942 338.376741 
L 408.595041 338.523445 
L 413.22314 338.669649 
L 417.85124 338.812905 
L 422.479339 338.952869 
L 427.107438 339.090466 
L 431.735537 339.227217 
L 436.363636 339.362696 
L 440.991736 339.496735 
L 445.619835 339.628461 
L 450.247934 339.758974 
L 454.876033 339.889152 
L 459.504132 340.019471 
L 464.132231 340.150948 
L 468.760331 340.281023 
L 473.38843 340.409566 
L 478.016529 340.537459 
L 482.644628 340.666098 
L 487.272727 340.795348 
L 491.900826 340.923889 
L 496.528926 341.051476 
L 501.157025 341.179048 
L 505.785124 341.307847 
L 510.413223 341.437031 
L 515.041322 341.574831 
L 519.669421 341.722882 
L 524.297521 341.877501 
L 528.92562 342.034301 
L 533.553719 342.192403 
L 538.181818 342.351246 
L 542.809917 342.511773 
L 547.438017 342.669653 
L 552.066116 342.859036 
L 556.694215 343.022683 
L 561.322314 343.140183 
L 565.950413 343.317627 
L 570.578512 343.56681 
L 575.206612 343.766301 
L 579.834711 343.502967 
L 584.46281 343.573565 
L 589.090909 342.96724 
" style="fill:none;stroke:#1f77b4;stroke-linecap:square;stroke-width:8;"/>
   </g>
   <g id="line2d_26">
    <path clip-path="url(#p9ec5adc73b)" d="M 108 343.486239 
L 612 343.486239 
" style="fill:none;stroke:#000000;stroke-dasharray:3.2,0.8,0.5,0.8;stroke-dashoffset:0;stroke-width:0.5;"/>
   </g>
   <g id="patch_13">
    <path d="M 108 385.761468 
L 108 301.211009 
" style="fill:none;stroke:#000000;stroke-linecap:square;stroke-linejoin:miter;stroke-width:0.8;"/>
   </g>
   <g id="patch_14">
    <path d="M 612 385.761468 
L 612 301.211009 
" style="fill:none;stroke:#000000;stroke-linecap:square;stroke-linejoin:miter;stroke-width:0.8;"/>
   </g>
   <g id="patch_15">
    <path d="M 108 385.761468 
L 612 385.761468 
" style="fill:none;stroke:#000000;stroke-linecap:square;stroke-linejoin:miter;stroke-width:0.8;"/>
   </g>
   <g id="patch_16">
    <path d="M 108 301.211009 
L 612 301.211009 
" style="fill:none;stroke:#000000;stroke-linecap:square;stroke-linejoin:miter;stroke-width:0.8;"/>
   </g>
   <g id="text_16">
    <!-- $\^t = 0.15$ -->
    <g transform="translate(599.19 353.270926)scale(0.42 -0.42)">
     <use transform="translate(39.042969 16.59375)" xlink:href="#STIXGeneral-Regular-770"/>
     <use transform="translate(0 0.203125)" xlink:href="#STIXGeneral-Italic-116"/>
     <use transform="translate(42.239984 0.203125)" xlink:href="#STIXGeneral-Regular-61"/>
     <use transform="translate(125.179965 0.203125)" xlink:href="#STIXGeneral-Regular-48"/>
     <use transform="translate(175.17995 0.203125)" xlink:href="#STIXGeneral-Regular-46"/>
     <use transform="translate(200.179935 0.203125)" xlink:href="#STIXGeneral-Regular-49"/>
     <use transform="translate(250.179919 0.203125)" xlink:href="#STIXGeneral-Regular-53"/>
    </g>
   </g>
  </g>
  <g id="axes_4">
   <g id="patch_17">
    <path d="M 108 478.766972 
L 612 478.766972 
L 612 394.216514 
L 108 394.216514 
z
" style="fill:#ffffff;"/>
   </g>
   <g id="matplotlib.axis_7">
    <g id="xtick_10">
     <g id="line2d_27">
      <g>
       <use style="fill:#ffffff;stroke:#000000;stroke-width:0.8;" x="130.909091" xlink:href="#mfb8294cf51" y="478.766972"/>
      </g>
     </g>
    </g>
    <g id="xtick_11">
     <g id="line2d_28">
      <g>
       <use style="fill:#ffffff;stroke:#000000;stroke-width:0.8;" x="360" xlink:href="#mfb8294cf51" y="478.766972"/>
      </g>
     </g>
    </g>
    <g id="xtick_12">
     <g id="line2d_29">
      <g>
       <use style="fill:#ffffff;stroke:#000000;stroke-width:0.8;" x="589.090909" xlink:href="#mfb8294cf51" y="478.766972"/>
      </g>
     </g>
    </g>
   </g>
   <g id="matplotlib.axis_8">
    <g id="ytick_10">
     <g id="line2d_30">
      <g>
       <use style="fill:#ffffff;stroke:#000000;stroke-width:0.8;" x="108" xlink:href="#m9b7858c670" y="471.721101"/>
      </g>
     </g>
     <g id="text_17">
      <!-- −2.5 -->
      <g transform="translate(19.73 486.063445)scale(0.42 -0.42)">
       <use xlink:href="#STIXGeneral-Regular-8722"/>
       <use x="68.499985" xlink:href="#STIXGeneral-Regular-50"/>
       <use x="118.499969" xlink:href="#STIXGeneral-Regular-46"/>
       <use x="143.499954" xlink:href="#STIXGeneral-Regular-53"/>
      </g>
     </g>
    </g>
    <g id="ytick_11">
     <g id="line2d_31">
      <g>
       <use style="fill:#ffffff;stroke:#000000;stroke-width:0.8;" x="108" xlink:href="#m9b7858c670" y="436.491743"/>
      </g>
     </g>
     <g id="text_18">
      <!-- 0.0 -->
      <g transform="translate(48.5 450.834087)scale(0.42 -0.42)">
       <use xlink:href="#STIXGeneral-Regular-48"/>
       <use x="49.999985" xlink:href="#STIXGeneral-Regular-46"/>
       <use x="74.999969" xlink:href="#STIXGeneral-Regular-48"/>
      </g>
     </g>
    </g>
    <g id="ytick_12">
     <g id="line2d_32">
      <g>
       <use style="fill:#ffffff;stroke:#000000;stroke-width:0.8;" x="108" xlink:href="#m9b7858c670" y="401.262385"/>
      </g>
     </g>
     <g id="text_19">
      <!-- 2.5 -->
      <g transform="translate(48.5 415.604729)scale(0.42 -0.42)">
       <use xlink:href="#STIXGeneral-Regular-50"/>
       <use x="49.999985" xlink:href="#STIXGeneral-Regular-46"/>
       <use x="74.999969" xlink:href="#STIXGeneral-Regular-53"/>
      </g>
     </g>
    </g>
    <g id="text_20">
     <!-- Cp -->
     <g transform="translate(6.614688 460.999399)rotate(-90)scale(0.42 -0.42)">
      <use xlink:href="#STIXGeneral-Regular-67"/>
      <use x="66.699997" xlink:href="#STIXGeneral-Regular-112"/>
     </g>
    </g>
   </g>
   <g id="line2d_33">
    <path clip-path="url(#p5125124f2c)" d="M 130.909091 428.959988 
L 135.53719 422.226722 
L 140.165289 423.06157 
L 144.793388 423.710153 
L 149.421488 424.608354 
L 154.049587 425.236531 
L 158.677686 425.807404 
L 163.305785 426.2621 
L 167.933884 426.700508 
L 172.561983 427.093038 
L 177.190083 427.451038 
L 181.818182 427.782852 
L 186.446281 428.088402 
L 191.07438 428.37214 
L 195.702479 428.634776 
L 200.330579 428.878627 
L 204.958678 429.105335 
L 209.586777 429.316927 
L 214.214876 429.515817 
L 218.842975 429.701863 
L 223.471074 429.877711 
L 228.099174 430.043166 
L 232.727273 430.200248 
L 237.355372 430.34852 
L 241.983471 430.490523 
L 246.61157 430.625545 
L 251.239669 430.755317 
L 255.867769 430.879599 
L 260.495868 430.999379 
L 265.123967 431.113964 
L 269.752066 431.223967 
L 274.380165 431.330117 
L 279.008264 431.432678 
L 283.636364 431.531687 
L 288.264463 431.627226 
L 292.892562 431.719666 
L 297.520661 431.808774 
L 302.14876 431.895436 
L 306.77686 431.97996 
L 311.404959 432.063121 
L 316.033058 432.144101 
L 320.661157 432.222977 
L 325.289256 432.300199 
L 329.917355 432.376144 
L 334.545455 432.450834 
L 339.173554 432.524147 
L 343.801653 432.614084 
L 348.429752 432.666589 
L 353.057851 432.736628 
L 357.68595 432.806454 
L 362.31405 432.876494 
L 366.942149 432.946332 
L 371.570248 433.015421 
L 376.198347 433.084584 
L 380.826446 433.154158 
L 385.454545 433.224278 
L 390.082645 433.294271 
L 394.710744 433.364298 
L 399.338843 433.43475 
L 403.966942 433.506077 
L 408.595041 433.578716 
L 413.22314 433.653128 
L 417.85124 433.72832 
L 422.479339 433.804194 
L 427.107438 433.8815 
L 431.735537 433.960893 
L 436.363636 434.042488 
L 440.991736 434.125326 
L 445.619835 434.209743 
L 450.247934 434.295691 
L 454.876033 434.384329 
L 459.504132 434.475326 
L 464.132231 434.569972 
L 468.760331 434.666521 
L 473.38843 434.765975 
L 478.016529 434.868758 
L 482.644628 434.975725 
L 487.272727 435.086299 
L 491.900826 435.199835 
L 496.528926 435.316579 
L 501.157025 435.43753 
L 505.785124 435.563533 
L 510.413223 435.693777 
L 515.041322 435.830299 
L 519.669421 435.975221 
L 524.297521 436.129513 
L 528.92562 436.290893 
L 533.553719 436.461229 
L 538.181818 436.639804 
L 542.809917 436.829232 
L 547.438017 437.027102 
L 552.066116 437.253562 
L 556.694215 437.487257 
L 561.322314 437.747415 
L 565.950413 438.04239 
L 570.578512 438.459059 
L 575.206612 438.767822 
L 579.834711 439.008359 
L 584.46281 439.797617 
L 589.090909 440.736176 
" style="fill:none;stroke:#1f77b4;stroke-linecap:square;stroke-width:8;"/>
   </g>
   <g id="line2d_34">
    <path clip-path="url(#p5125124f2c)" d="M 108 436.491743 
L 612 436.491743 
" style="fill:none;stroke:#000000;stroke-dasharray:3.2,0.8,0.5,0.8;stroke-dashoffset:0;stroke-width:0.5;"/>
   </g>
   <g id="patch_18">
    <path d="M 108 478.766972 
L 108 394.216514 
" style="fill:none;stroke:#000000;stroke-linecap:square;stroke-linejoin:miter;stroke-width:0.8;"/>
   </g>
   <g id="patch_19">
    <path d="M 612 478.766972 
L 612 394.216514 
" style="fill:none;stroke:#000000;stroke-linecap:square;stroke-linejoin:miter;stroke-width:0.8;"/>
   </g>
   <g id="patch_20">
    <path d="M 108 478.766972 
L 612 478.766972 
" style="fill:none;stroke:#000000;stroke-linecap:square;stroke-linejoin:miter;stroke-width:0.8;"/>
   </g>
   <g id="patch_21">
    <path d="M 108 394.216514 
L 612 394.216514 
" style="fill:none;stroke:#000000;stroke-linecap:square;stroke-linejoin:miter;stroke-width:0.8;"/>
   </g>
   <g id="text_21">
    <!-- $\^t = 0.20$ -->
    <g transform="translate(599.19 446.276431)scale(0.42 -0.42)">
     <use transform="translate(39.042969 16.59375)" xlink:href="#STIXGeneral-Regular-770"/>
     <use transform="translate(0 0.203125)" xlink:href="#STIXGeneral-Italic-116"/>
     <use transform="translate(42.239984 0.203125)" xlink:href="#STIXGeneral-Regular-61"/>
     <use transform="translate(125.179965 0.203125)" xlink:href="#STIXGeneral-Regular-48"/>
     <use transform="translate(175.17995 0.203125)" xlink:href="#STIXGeneral-Regular-46"/>
     <use transform="translate(200.179935 0.203125)" xlink:href="#STIXGeneral-Regular-50"/>
     <use transform="translate(250.179919 0.203125)" xlink:href="#STIXGeneral-Regular-48"/>
    </g>
   </g>
  </g>
  <g id="axes_5">
   <g id="patch_22">
    <path d="M 108 571.772477 
L 612 571.772477 
L 612 487.222018 
L 108 487.222018 
z
" style="fill:#ffffff;"/>
   </g>
   <g id="matplotlib.axis_9">
    <g id="xtick_13">
     <g id="line2d_35">
      <g>
       <use style="fill:#ffffff;stroke:#000000;stroke-width:0.8;" x="130.909091" xlink:href="#mfb8294cf51" y="571.772477"/>
      </g>
     </g>
    </g>
    <g id="xtick_14">
     <g id="line2d_36">
      <g>
       <use style="fill:#ffffff;stroke:#000000;stroke-width:0.8;" x="360" xlink:href="#mfb8294cf51" y="571.772477"/>
      </g>
     </g>
    </g>
    <g id="xtick_15">
     <g id="line2d_37">
      <g>
       <use style="fill:#ffffff;stroke:#000000;stroke-width:0.8;" x="589.090909" xlink:href="#mfb8294cf51" y="571.772477"/>
      </g>
     </g>
    </g>
   </g>
   <g id="matplotlib.axis_10">
    <g id="ytick_13">
     <g id="line2d_38">
      <g>
       <use style="fill:#ffffff;stroke:#000000;stroke-width:0.8;" x="108" xlink:href="#m9b7858c670" y="564.726606"/>
      </g>
     </g>
     <g id="text_22">
      <!-- −2.5 -->
      <g transform="translate(19.73 579.068949)scale(0.42 -0.42)">
       <use xlink:href="#STIXGeneral-Regular-8722"/>
       <use x="68.499985" xlink:href="#STIXGeneral-Regular-50"/>
       <use x="118.499969" xlink:href="#STIXGeneral-Regular-46"/>
       <use x="143.499954" xlink:href="#STIXGeneral-Regular-53"/>
      </g>
     </g>
    </g>
    <g id="ytick_14">
     <g id="line2d_39">
      <g>
       <use style="fill:#ffffff;stroke:#000000;stroke-width:0.8;" x="108" xlink:href="#m9b7858c670" y="529.497248"/>
      </g>
     </g>
     <g id="text_23">
      <!-- 0.0 -->
      <g transform="translate(48.5 543.839591)scale(0.42 -0.42)">
       <use xlink:href="#STIXGeneral-Regular-48"/>
       <use x="49.999985" xlink:href="#STIXGeneral-Regular-46"/>
       <use x="74.999969" xlink:href="#STIXGeneral-Regular-48"/>
      </g>
     </g>
    </g>
    <g id="ytick_15">
     <g id="line2d_40">
      <g>
       <use style="fill:#ffffff;stroke:#000000;stroke-width:0.8;" x="108" xlink:href="#m9b7858c670" y="494.26789"/>
      </g>
     </g>
     <g id="text_24">
      <!-- 2.5 -->
      <g transform="translate(48.5 508.610234)scale(0.42 -0.42)">
       <use xlink:href="#STIXGeneral-Regular-50"/>
       <use x="49.999985" xlink:href="#STIXGeneral-Regular-46"/>
       <use x="74.999969" xlink:href="#STIXGeneral-Regular-53"/>
      </g>
     </g>
    </g>
    <g id="text_25">
     <!-- Cp -->
     <g transform="translate(6.614688 554.004904)rotate(-90)scale(0.42 -0.42)">
      <use xlink:href="#STIXGeneral-Regular-67"/>
      <use x="66.699997" xlink:href="#STIXGeneral-Regular-112"/>
     </g>
    </g>
   </g>
   <g id="line2d_41">
    <path clip-path="url(#p91e4ac1491)" d="M 130.909091 513.896279 
L 135.53719 517.948079 
L 140.165289 520.664491 
L 144.793388 521.926652 
L 149.421488 523.341188 
L 154.049587 524.142194 
L 158.677686 524.770451 
L 163.305785 525.259713 
L 167.933884 525.707357 
L 172.561983 526.087641 
L 177.190083 526.421027 
L 181.818182 526.720333 
L 186.446281 526.987297 
L 191.07438 527.229701 
L 195.702479 527.450064 
L 200.330579 527.65265 
L 204.958678 527.841031 
L 209.586777 528.01807 
L 214.214876 528.184809 
L 218.842975 528.338878 
L 223.471074 528.482925 
L 228.099174 528.617943 
L 232.727273 528.746099 
L 237.355372 528.866446 
L 241.983471 528.980925 
L 246.61157 529.089276 
L 251.239669 529.193109 
L 255.867769 529.292395 
L 260.495868 529.388138 
L 265.123967 529.479545 
L 269.752066 529.566587 
L 274.380165 529.649808 
L 279.008264 529.72981 
L 283.636364 529.807132 
L 288.264463 529.881247 
L 292.892562 529.952549 
L 297.520661 530.021162 
L 302.14876 530.088111 
L 306.77686 530.152633 
L 311.404959 530.21388 
L 316.033058 530.271628 
L 320.661157 530.327797 
L 325.289256 530.382211 
L 329.917355 530.434929 
L 334.545455 530.487178 
L 339.173554 530.536122 
L 343.801653 530.593335 
L 348.429752 530.62599 
L 353.057851 530.668847 
L 357.68595 530.710358 
L 362.31405 530.750781 
L 366.942149 530.789095 
L 371.570248 530.825034 
L 376.198347 530.859129 
L 380.826446 530.891324 
L 385.454545 530.921848 
L 390.082645 530.950442 
L 394.710744 530.977069 
L 399.338843 531.001873 
L 403.966942 531.024722 
L 408.595041 531.047269 
L 413.22314 531.066805 
L 417.85124 531.081602 
L 422.479339 531.094975 
L 427.107438 531.107593 
L 431.735537 531.120521 
L 436.363636 531.130433 
L 440.991736 531.135372 
L 445.619835 531.136201 
L 450.247934 531.134174 
L 454.876033 531.129317 
L 459.504132 531.121042 
L 464.132231 531.109735 
L 468.760331 531.093398 
L 473.38843 531.072399 
L 478.016529 531.048446 
L 482.644628 531.020206 
L 487.272727 530.987033 
L 491.900826 530.948284 
L 496.528926 530.903196 
L 501.157025 530.8516 
L 505.785124 530.792275 
L 510.413223 530.725977 
L 515.041322 530.654389 
L 519.669421 530.577587 
L 524.297521 530.489587 
L 528.92562 530.390004 
L 533.553719 530.274018 
L 538.181818 530.14254 
L 542.809917 529.991023 
L 547.438017 529.820556 
L 552.066116 529.637202 
L 556.694215 529.402937 
L 561.322314 529.126537 
L 565.950413 528.842652 
L 570.578512 528.445689 
L 575.206612 527.909999 
L 579.834711 527.15495 
L 584.46281 526.065633 
L 589.090909 523.694832 
" style="fill:none;stroke:#1f77b4;stroke-linecap:square;stroke-width:8;"/>
   </g>
   <g id="line2d_42">
    <path clip-path="url(#p91e4ac1491)" d="M 108 529.497248 
L 612 529.497248 
" style="fill:none;stroke:#000000;stroke-dasharray:3.2,0.8,0.5,0.8;stroke-dashoffset:0;stroke-width:0.5;"/>
   </g>
   <g id="patch_23">
    <path d="M 108 571.772477 
L 108 487.222018 
" style="fill:none;stroke:#000000;stroke-linecap:square;stroke-linejoin:miter;stroke-width:0.8;"/>
   </g>
   <g id="patch_24">
    <path d="M 612 571.772477 
L 612 487.222018 
" style="fill:none;stroke:#000000;stroke-linecap:square;stroke-linejoin:miter;stroke-width:0.8;"/>
   </g>
   <g id="patch_25">
    <path d="M 108 571.772477 
L 612 571.772477 
" style="fill:none;stroke:#000000;stroke-linecap:square;stroke-linejoin:miter;stroke-width:0.8;"/>
   </g>
   <g id="patch_26">
    <path d="M 108 487.222018 
L 612 487.222018 
" style="fill:none;stroke:#000000;stroke-linecap:square;stroke-linejoin:miter;stroke-width:0.8;"/>
   </g>
   <g id="text_26">
    <!-- $\^t = 0.25$ -->
    <g transform="translate(599.19 539.281935)scale(0.42 -0.42)">
     <use transform="translate(39.042969 16.59375)" xlink:href="#STIXGeneral-Regular-770"/>
     <use transform="translate(0 0.203125)" xlink:href="#STIXGeneral-Italic-116"/>
     <use transform="translate(42.239984 0.203125)" xlink:href="#STIXGeneral-Regular-61"/>
     <use transform="translate(125.179965 0.203125)" xlink:href="#STIXGeneral-Regular-48"/>
     <use transform="translate(175.17995 0.203125)" xlink:href="#STIXGeneral-Regular-46"/>
     <use transform="translate(200.179935 0.203125)" xlink:href="#STIXGeneral-Regular-50"/>
     <use transform="translate(250.179919 0.203125)" xlink:href="#STIXGeneral-Regular-53"/>
    </g>
   </g>
  </g>
  <g id="axes_6">
   <g id="patch_27">
    <path d="M 108 664.777982 
L 612 664.777982 
L 612 580.227523 
L 108 580.227523 
z
" style="fill:#ffffff;"/>
   </g>
   <g id="matplotlib.axis_11">
    <g id="xtick_16">
     <g id="line2d_43">
      <g>
       <use style="fill:#ffffff;stroke:#000000;stroke-width:0.8;" x="130.909091" xlink:href="#mfb8294cf51" y="664.777982"/>
      </g>
     </g>
    </g>
    <g id="xtick_17">
     <g id="line2d_44">
      <g>
       <use style="fill:#ffffff;stroke:#000000;stroke-width:0.8;" x="360" xlink:href="#mfb8294cf51" y="664.777982"/>
      </g>
     </g>
    </g>
    <g id="xtick_18">
     <g id="line2d_45">
      <g>
       <use style="fill:#ffffff;stroke:#000000;stroke-width:0.8;" x="589.090909" xlink:href="#mfb8294cf51" y="664.777982"/>
      </g>
     </g>
    </g>
   </g>
   <g id="matplotlib.axis_12">
    <g id="ytick_16">
     <g id="line2d_46">
      <g>
       <use style="fill:#ffffff;stroke:#000000;stroke-width:0.8;" x="108" xlink:href="#m9b7858c670" y="657.73211"/>
      </g>
     </g>
     <g id="text_27">
      <!-- −2.5 -->
      <g transform="translate(19.73 672.074454)scale(0.42 -0.42)">
       <use xlink:href="#STIXGeneral-Regular-8722"/>
       <use x="68.499985" xlink:href="#STIXGeneral-Regular-50"/>
       <use x="118.499969" xlink:href="#STIXGeneral-Regular-46"/>
       <use x="143.499954" xlink:href="#STIXGeneral-Regular-53"/>
      </g>
     </g>
    </g>
    <g id="ytick_17">
     <g id="line2d_47">
      <g>
       <use style="fill:#ffffff;stroke:#000000;stroke-width:0.8;" x="108" xlink:href="#m9b7858c670" y="622.502752"/>
      </g>
     </g>
     <g id="text_28">
      <!-- 0.0 -->
      <g transform="translate(48.5 636.845096)scale(0.42 -0.42)">
       <use xlink:href="#STIXGeneral-Regular-48"/>
       <use x="49.999985" xlink:href="#STIXGeneral-Regular-46"/>
       <use x="74.999969" xlink:href="#STIXGeneral-Regular-48"/>
      </g>
     </g>
    </g>
    <g id="ytick_18">
     <g id="line2d_48">
      <g>
       <use style="fill:#ffffff;stroke:#000000;stroke-width:0.8;" x="108" xlink:href="#m9b7858c670" y="587.273394"/>
      </g>
     </g>
     <g id="text_29">
      <!-- 2.5 -->
      <g transform="translate(48.5 601.615738)scale(0.42 -0.42)">
       <use xlink:href="#STIXGeneral-Regular-50"/>
       <use x="49.999985" xlink:href="#STIXGeneral-Regular-46"/>
       <use x="74.999969" xlink:href="#STIXGeneral-Regular-53"/>
      </g>
     </g>
    </g>
    <g id="text_30">
     <!-- Cp -->
     <g transform="translate(6.614688 647.010409)rotate(-90)scale(0.42 -0.42)">
      <use xlink:href="#STIXGeneral-Regular-67"/>
      <use x="66.699997" xlink:href="#STIXGeneral-Regular-112"/>
     </g>
    </g>
   </g>
   <g id="line2d_49">
    <path clip-path="url(#p9c0901ef0c)" d="M 130.909091 607.350606 
L 135.53719 613.741837 
L 140.165289 616.348963 
L 144.793388 617.57245 
L 149.421488 618.727872 
L 154.049587 619.410604 
L 158.677686 619.924268 
L 163.305785 620.307659 
L 167.933884 620.661002 
L 172.561983 620.956827 
L 177.190083 621.212005 
L 181.818182 621.438345 
L 186.446281 621.637477 
L 191.07438 621.815777 
L 195.702479 621.976092 
L 200.330579 622.121076 
L 204.958678 622.254157 
L 209.586777 622.377363 
L 214.214876 622.491641 
L 218.842975 622.596389 
L 223.471074 622.692522 
L 228.099174 622.781535 
L 232.727273 622.86504 
L 237.355372 622.942703 
L 241.983471 623.015579 
L 246.61157 623.083964 
L 251.239669 623.148248 
L 255.867769 623.208903 
L 260.495868 623.266609 
L 265.123967 623.320969 
L 269.752066 623.372037 
L 274.380165 623.419149 
L 279.008264 623.463768 
L 283.636364 623.506155 
L 288.264463 623.546021 
L 292.892562 623.583809 
L 297.520661 623.61896 
L 302.14876 623.652196 
L 306.77686 623.683559 
L 311.404959 623.713285 
L 316.033058 623.740734 
L 320.661157 623.766782 
L 325.289256 623.790045 
L 329.917355 623.811912 
L 334.545455 623.832006 
L 339.173554 623.850686 
L 343.801653 623.871447 
L 348.429752 623.882299 
L 353.057851 623.89554 
L 357.68595 623.907405 
L 362.31405 623.917552 
L 366.942149 623.926119 
L 371.570248 623.933657 
L 376.198347 623.938329 
L 380.826446 623.941911 
L 385.454545 623.943325 
L 390.082645 623.943113 
L 394.710744 623.941283 
L 399.338843 623.937713 
L 403.966942 623.932674 
L 408.595041 623.92535 
L 413.22314 623.916352 
L 417.85124 623.905287 
L 422.479339 623.893015 
L 427.107438 623.877559 
L 431.735537 623.8604 
L 436.363636 623.840241 
L 440.991736 623.817918 
L 445.619835 623.792898 
L 450.247934 623.765036 
L 454.876033 623.734576 
L 459.504132 623.700817 
L 464.132231 623.66328 
L 468.760331 623.622316 
L 473.38843 623.577769 
L 478.016529 623.528778 
L 482.644628 623.475223 
L 487.272727 623.416497 
L 491.900826 623.352521 
L 496.528926 623.28275 
L 501.157025 623.206272 
L 505.785124 623.12272 
L 510.413223 623.032215 
L 515.041322 622.936642 
L 519.669421 622.835044 
L 524.297521 622.722787 
L 528.92562 622.598962 
L 533.553719 622.459232 
L 538.181818 622.304399 
L 542.809917 622.129429 
L 547.438017 621.934362 
L 552.066116 621.719171 
L 556.694215 621.460936 
L 561.322314 621.135585 
L 565.950413 620.799212 
L 570.578512 620.319573 
L 575.206612 619.733486 
L 579.834711 618.999255 
L 584.46281 617.736828 
L 589.090909 615.246773 
" style="fill:none;stroke:#1f77b4;stroke-linecap:square;stroke-width:8;"/>
   </g>
   <g id="line2d_50">
    <path clip-path="url(#p9c0901ef0c)" d="M 108 622.502752 
L 612 622.502752 
" style="fill:none;stroke:#000000;stroke-dasharray:3.2,0.8,0.5,0.8;stroke-dashoffset:0;stroke-width:0.5;"/>
   </g>
   <g id="patch_28">
    <path d="M 108 664.777982 
L 108 580.227523 
" style="fill:none;stroke:#000000;stroke-linecap:square;stroke-linejoin:miter;stroke-width:0.8;"/>
   </g>
   <g id="patch_29">
    <path d="M 612 664.777982 
L 612 580.227523 
" style="fill:none;stroke:#000000;stroke-linecap:square;stroke-linejoin:miter;stroke-width:0.8;"/>
   </g>
   <g id="patch_30">
    <path d="M 108 664.777982 
L 612 664.777982 
" style="fill:none;stroke:#000000;stroke-linecap:square;stroke-linejoin:miter;stroke-width:0.8;"/>
   </g>
   <g id="patch_31">
    <path d="M 108 580.227523 
L 612 580.227523 
" style="fill:none;stroke:#000000;stroke-linecap:square;stroke-linejoin:miter;stroke-width:0.8;"/>
   </g>
   <g id="text_31">
    <!-- $\^t = 0.30$ -->
    <g transform="translate(599.19 632.28744)scale(0.42 -0.42)">
     <use transform="translate(39.042969 16.59375)" xlink:href="#STIXGeneral-Regular-770"/>
     <use transform="translate(0 0.203125)" xlink:href="#STIXGeneral-Italic-116"/>
     <use transform="translate(42.239984 0.203125)" xlink:href="#STIXGeneral-Regular-61"/>
     <use transform="translate(125.179965 0.203125)" xlink:href="#STIXGeneral-Regular-48"/>
     <use transform="translate(175.17995 0.203125)" xlink:href="#STIXGeneral-Regular-46"/>
     <use transform="translate(200.179935 0.203125)" xlink:href="#STIXGeneral-Regular-51"/>
     <use transform="translate(250.179919 0.203125)" xlink:href="#STIXGeneral-Regular-48"/>
    </g>
   </g>
  </g>
  <g id="axes_7">
   <g id="patch_32">
    <path d="M 108 757.783486 
L 612 757.783486 
L 612 673.233028 
L 108 673.233028 
z
" style="fill:#ffffff;"/>
   </g>
   <g id="matplotlib.axis_13">
    <g id="xtick_19">
     <g id="line2d_51">
      <g>
       <use style="fill:#ffffff;stroke:#000000;stroke-width:0.8;" x="130.909091" xlink:href="#mfb8294cf51" y="757.783486"/>
      </g>
     </g>
    </g>
    <g id="xtick_20">
     <g id="line2d_52">
      <g>
       <use style="fill:#ffffff;stroke:#000000;stroke-width:0.8;" x="360" xlink:href="#mfb8294cf51" y="757.783486"/>
      </g>
     </g>
    </g>
    <g id="xtick_21">
     <g id="line2d_53">
      <g>
       <use style="fill:#ffffff;stroke:#000000;stroke-width:0.8;" x="589.090909" xlink:href="#mfb8294cf51" y="757.783486"/>
      </g>
     </g>
    </g>
   </g>
   <g id="matplotlib.axis_14">
    <g id="ytick_19">
     <g id="line2d_54">
      <g>
       <use style="fill:#ffffff;stroke:#000000;stroke-width:0.8;" x="108" xlink:href="#m9b7858c670" y="750.737615"/>
      </g>
     </g>
     <g id="text_32">
      <!-- −2.5 -->
      <g transform="translate(19.73 765.079958)scale(0.42 -0.42)">
       <use xlink:href="#STIXGeneral-Regular-8722"/>
       <use x="68.499985" xlink:href="#STIXGeneral-Regular-50"/>
       <use x="118.499969" xlink:href="#STIXGeneral-Regular-46"/>
       <use x="143.499954" xlink:href="#STIXGeneral-Regular-53"/>
      </g>
     </g>
    </g>
    <g id="ytick_20">
     <g id="line2d_55">
      <g>
       <use style="fill:#ffffff;stroke:#000000;stroke-width:0.8;" x="108" xlink:href="#m9b7858c670" y="715.508257"/>
      </g>
     </g>
     <g id="text_33">
      <!-- 0.0 -->
      <g transform="translate(48.5 729.850601)scale(0.42 -0.42)">
       <use xlink:href="#STIXGeneral-Regular-48"/>
       <use x="49.999985" xlink:href="#STIXGeneral-Regular-46"/>
       <use x="74.999969" xlink:href="#STIXGeneral-Regular-48"/>
      </g>
     </g>
    </g>
    <g id="ytick_21">
     <g id="line2d_56">
      <g>
       <use style="fill:#ffffff;stroke:#000000;stroke-width:0.8;" x="108" xlink:href="#m9b7858c670" y="680.278899"/>
      </g>
     </g>
     <g id="text_34">
      <!-- 2.5 -->
      <g transform="translate(48.5 694.621243)scale(0.42 -0.42)">
       <use xlink:href="#STIXGeneral-Regular-50"/>
       <use x="49.999985" xlink:href="#STIXGeneral-Regular-46"/>
       <use x="74.999969" xlink:href="#STIXGeneral-Regular-53"/>
      </g>
     </g>
    </g>
    <g id="text_35">
     <!-- Cp -->
     <g transform="translate(6.614688 740.015913)rotate(-90)scale(0.42 -0.42)">
      <use xlink:href="#STIXGeneral-Regular-67"/>
      <use x="66.699997" xlink:href="#STIXGeneral-Regular-112"/>
     </g>
    </g>
   </g>
   <g id="line2d_57">
    <path clip-path="url(#pff07f5cb1a)" d="M 130.909091 701.985538 
L 135.53719 709.321237 
L 140.165289 711.720587 
L 144.793388 712.85631 
L 149.421488 713.915158 
L 154.049587 714.452753 
L 158.677686 714.877232 
L 163.305785 715.192133 
L 167.933884 715.479745 
L 172.561983 715.718693 
L 177.190083 715.922118 
L 181.818182 716.101252 
L 186.446281 716.256005 
L 191.07438 716.39382 
L 195.702479 716.515908 
L 200.330579 716.623864 
L 204.958678 716.723145 
L 209.586777 716.815245 
L 214.214876 716.899166 
L 218.842975 716.975039 
L 223.471074 717.043601 
L 228.099174 717.105356 
L 232.727273 717.164091 
L 237.355372 717.217342 
L 241.983471 717.266624 
L 246.61157 717.31147 
L 251.239669 717.352793 
L 255.867769 717.391208 
L 260.495868 717.427772 
L 265.123967 717.462517 
L 269.752066 717.494655 
L 274.380165 717.523662 
L 279.008264 717.551478 
L 283.636364 717.577803 
L 288.264463 717.60103 
L 292.892562 717.623267 
L 297.520661 717.643779 
L 302.14876 717.662871 
L 306.77686 717.681479 
L 311.404959 717.698451 
L 316.033058 717.714006 
L 320.661157 717.728597 
L 325.289256 717.741888 
L 329.917355 717.754743 
L 334.545455 717.766605 
L 339.173554 717.776741 
L 343.801653 717.788631 
L 348.429752 717.794884 
L 353.057851 717.801905 
L 357.68595 717.808226 
L 362.31405 717.814399 
L 366.942149 717.820027 
L 371.570248 717.824475 
L 376.198347 717.827079 
L 380.826446 717.828869 
L 385.454545 717.830998 
L 390.082645 717.832234 
L 394.710744 717.832236 
L 399.338843 717.831925 
L 403.966942 717.829511 
L 408.595041 717.82572 
L 413.22314 717.82128 
L 417.85124 717.817041 
L 422.479339 717.8112 
L 427.107438 717.803152 
L 431.735537 717.794792 
L 436.363636 717.784787 
L 440.991736 717.773295 
L 445.619835 717.760665 
L 450.247934 717.746199 
L 454.876033 717.72978 
L 459.504132 717.711346 
L 464.132231 717.691945 
L 468.760331 717.671636 
L 473.38843 717.64819 
L 478.016529 717.622122 
L 482.644628 717.594066 
L 487.272727 717.562854 
L 491.900826 717.528352 
L 496.528926 717.490885 
L 501.157025 717.449279 
L 505.785124 717.403663 
L 510.413223 717.354103 
L 515.041322 717.301182 
L 519.669421 717.244794 
L 524.297521 717.181022 
L 528.92562 717.110051 
L 533.553719 717.029915 
L 538.181818 716.940172 
L 542.809917 716.839376 
L 547.438017 716.726004 
L 552.066116 716.598362 
L 556.694215 716.447838 
L 561.322314 716.258254 
L 565.950413 716.060727 
L 570.578512 715.778011 
L 575.206612 715.445998 
L 579.834711 715.007207 
L 584.46281 714.236156 
L 589.090909 712.694981 
" style="fill:none;stroke:#1f77b4;stroke-linecap:square;stroke-width:8;"/>
   </g>
   <g id="line2d_58">
    <path clip-path="url(#pff07f5cb1a)" d="M 108 715.508257 
L 612 715.508257 
" style="fill:none;stroke:#000000;stroke-dasharray:3.2,0.8,0.5,0.8;stroke-dashoffset:0;stroke-width:0.5;"/>
   </g>
   <g id="patch_33">
    <path d="M 108 757.783486 
L 108 673.233028 
" style="fill:none;stroke:#000000;stroke-linecap:square;stroke-linejoin:miter;stroke-width:0.8;"/>
   </g>
   <g id="patch_34">
    <path d="M 612 757.783486 
L 612 673.233028 
" style="fill:none;stroke:#000000;stroke-linecap:square;stroke-linejoin:miter;stroke-width:0.8;"/>
   </g>
   <g id="patch_35">
    <path d="M 108 757.783486 
L 612 757.783486 
" style="fill:none;stroke:#000000;stroke-linecap:square;stroke-linejoin:miter;stroke-width:0.8;"/>
   </g>
   <g id="patch_36">
    <path d="M 108 673.233028 
L 612 673.233028 
" style="fill:none;stroke:#000000;stroke-linecap:square;stroke-linejoin:miter;stroke-width:0.8;"/>
   </g>
   <g id="text_36">
    <!-- $\^t = 0.35$ -->
    <g transform="translate(599.19 725.292944)scale(0.42 -0.42)">
     <use transform="translate(39.042969 16.59375)" xlink:href="#STIXGeneral-Regular-770"/>
     <use transform="translate(0 0.203125)" xlink:href="#STIXGeneral-Italic-116"/>
     <use transform="translate(42.239984 0.203125)" xlink:href="#STIXGeneral-Regular-61"/>
     <use transform="translate(125.179965 0.203125)" xlink:href="#STIXGeneral-Regular-48"/>
     <use transform="translate(175.17995 0.203125)" xlink:href="#STIXGeneral-Regular-46"/>
     <use transform="translate(200.179935 0.203125)" xlink:href="#STIXGeneral-Regular-51"/>
     <use transform="translate(250.179919 0.203125)" xlink:href="#STIXGeneral-Regular-53"/>
    </g>
   </g>
  </g>
  <g id="axes_8">
   <g id="patch_37">
    <path d="M 108 850.788991 
L 612 850.788991 
L 612 766.238532 
L 108 766.238532 
z
" style="fill:#ffffff;"/>
   </g>
   <g id="matplotlib.axis_15">
    <g id="xtick_22">
     <g id="line2d_59">
      <g>
       <use style="fill:#ffffff;stroke:#000000;stroke-width:0.8;" x="130.909091" xlink:href="#mfb8294cf51" y="850.788991"/>
      </g>
     </g>
    </g>
    <g id="xtick_23">
     <g id="line2d_60">
      <g>
       <use style="fill:#ffffff;stroke:#000000;stroke-width:0.8;" x="360" xlink:href="#mfb8294cf51" y="850.788991"/>
      </g>
     </g>
    </g>
    <g id="xtick_24">
     <g id="line2d_61">
      <g>
       <use style="fill:#ffffff;stroke:#000000;stroke-width:0.8;" x="589.090909" xlink:href="#mfb8294cf51" y="850.788991"/>
      </g>
     </g>
    </g>
   </g>
   <g id="matplotlib.axis_16">
    <g id="ytick_22">
     <g id="line2d_62">
      <g>
       <use style="fill:#ffffff;stroke:#000000;stroke-width:0.8;" x="108" xlink:href="#m9b7858c670" y="843.743119"/>
      </g>
     </g>
     <g id="text_37">
      <!-- −2.5 -->
      <g transform="translate(19.73 858.085463)scale(0.42 -0.42)">
       <use xlink:href="#STIXGeneral-Regular-8722"/>
       <use x="68.499985" xlink:href="#STIXGeneral-Regular-50"/>
       <use x="118.499969" xlink:href="#STIXGeneral-Regular-46"/>
       <use x="143.499954" xlink:href="#STIXGeneral-Regular-53"/>
      </g>
     </g>
    </g>
    <g id="ytick_23">
     <g id="line2d_63">
      <g>
       <use style="fill:#ffffff;stroke:#000000;stroke-width:0.8;" x="108" xlink:href="#m9b7858c670" y="808.513761"/>
      </g>
     </g>
     <g id="text_38">
      <!-- 0.0 -->
      <g transform="translate(48.5 822.856105)scale(0.42 -0.42)">
       <use xlink:href="#STIXGeneral-Regular-48"/>
       <use x="49.999985" xlink:href="#STIXGeneral-Regular-46"/>
       <use x="74.999969" xlink:href="#STIXGeneral-Regular-48"/>
      </g>
     </g>
    </g>
    <g id="ytick_24">
     <g id="line2d_64">
      <g>
       <use style="fill:#ffffff;stroke:#000000;stroke-width:0.8;" x="108" xlink:href="#m9b7858c670" y="773.284404"/>
      </g>
     </g>
     <g id="text_39">
      <!-- 2.5 -->
      <g transform="translate(48.5 787.626747)scale(0.42 -0.42)">
       <use xlink:href="#STIXGeneral-Regular-50"/>
       <use x="49.999985" xlink:href="#STIXGeneral-Regular-46"/>
       <use x="74.999969" xlink:href="#STIXGeneral-Regular-53"/>
      </g>
     </g>
    </g>
    <g id="text_40">
     <!-- Cp -->
     <g transform="translate(6.614688 833.021418)rotate(-90)scale(0.42 -0.42)">
      <use xlink:href="#STIXGeneral-Regular-67"/>
      <use x="66.699997" xlink:href="#STIXGeneral-Regular-112"/>
     </g>
    </g>
   </g>
   <g id="line2d_65">
    <path clip-path="url(#pc59e0f9b19)" d="M 130.909091 796.768575 
L 135.53719 805.712972 
L 140.165289 807.949089 
L 144.793388 809.009405 
L 149.421488 809.877996 
L 154.049587 810.333418 
L 158.677686 810.722505 
L 163.305785 810.998554 
L 167.933884 811.228665 
L 172.561983 811.417534 
L 177.190083 811.574678 
L 181.818182 811.707509 
L 186.446281 811.815625 
L 191.07438 811.905204 
L 195.702479 811.981051 
L 200.330579 812.047746 
L 204.958678 812.104387 
L 209.586777 812.153444 
L 214.214876 812.196456 
L 218.842975 812.232043 
L 223.471074 812.260921 
L 228.099174 812.284231 
L 232.727273 812.303738 
L 237.355372 812.318521 
L 241.983471 812.331041 
L 246.61157 812.34008 
L 251.239669 812.34562 
L 255.867769 812.349384 
L 260.495868 812.35043 
L 265.123967 812.348867 
L 269.752066 812.346774 
L 274.380165 812.341667 
L 279.008264 812.335996 
L 283.636364 812.327337 
L 288.264463 812.317969 
L 292.892562 812.307335 
L 297.520661 812.294988 
L 302.14876 812.281455 
L 306.77686 812.266821 
L 311.404959 812.25055 
L 316.033058 812.234025 
L 320.661157 812.215026 
L 325.289256 812.195632 
L 329.917355 812.175655 
L 334.545455 812.153562 
L 339.173554 812.130733 
L 343.801653 812.101884 
L 348.429752 812.085652 
L 353.057851 812.058856 
L 357.68595 812.031435 
L 362.31405 812.003696 
L 366.942149 811.976897 
L 371.570248 811.946364 
L 376.198347 811.916601 
L 380.826446 811.884254 
L 385.454545 811.851582 
L 390.082645 811.817836 
L 394.710744 811.78343 
L 399.338843 811.74754 
L 403.966942 811.710157 
L 408.595041 811.67133 
L 413.22314 811.631132 
L 417.85124 811.589762 
L 422.479339 811.547158 
L 427.107438 811.502495 
L 431.735537 811.456562 
L 436.363636 811.408432 
L 440.991736 811.358511 
L 445.619835 811.306847 
L 450.247934 811.253043 
L 454.876033 811.196795 
L 459.504132 811.138146 
L 464.132231 811.076795 
L 468.760331 811.012957 
L 473.38843 810.945915 
L 478.016529 810.875678 
L 482.644628 810.801742 
L 487.272727 810.723718 
L 491.900826 810.641448 
L 496.528926 810.554291 
L 501.157025 810.462078 
L 505.785124 810.364279 
L 510.413223 810.259956 
L 515.041322 810.149844 
L 519.669421 810.033138 
L 524.297521 809.905589 
L 528.92562 809.767851 
L 533.553719 809.616242 
L 538.181818 809.45165 
L 542.809917 809.270158 
L 547.438017 809.071916 
L 552.066116 808.845024 
L 556.694215 808.575183 
L 561.322314 808.288608 
L 565.950413 807.974471 
L 570.578512 807.527134 
L 575.206612 807.032726 
L 579.834711 806.424725 
L 584.46281 805.313676 
L 589.090909 803.213998 
" style="fill:none;stroke:#1f77b4;stroke-linecap:square;stroke-width:8;"/>
   </g>
   <g id="line2d_66">
    <path clip-path="url(#pc59e0f9b19)" d="M 108 808.513761 
L 612 808.513761 
" style="fill:none;stroke:#000000;stroke-dasharray:3.2,0.8,0.5,0.8;stroke-dashoffset:0;stroke-width:0.5;"/>
   </g>
   <g id="patch_38">
    <path d="M 108 850.788991 
L 108 766.238532 
" style="fill:none;stroke:#000000;stroke-linecap:square;stroke-linejoin:miter;stroke-width:0.8;"/>
   </g>
   <g id="patch_39">
    <path d="M 612 850.788991 
L 612 766.238532 
" style="fill:none;stroke:#000000;stroke-linecap:square;stroke-linejoin:miter;stroke-width:0.8;"/>
   </g>
   <g id="patch_40">
    <path d="M 108 850.788991 
L 612 850.788991 
" style="fill:none;stroke:#000000;stroke-linecap:square;stroke-linejoin:miter;stroke-width:0.8;"/>
   </g>
   <g id="patch_41">
    <path d="M 108 766.238532 
L 612 766.238532 
" style="fill:none;stroke:#000000;stroke-linecap:square;stroke-linejoin:miter;stroke-width:0.8;"/>
   </g>
   <g id="text_41">
    <!-- $\^t = 0.40$ -->
    <g transform="translate(599.19 818.298449)scale(0.42 -0.42)">
     <defs>
      <path d="M 47.296875 16.703125 
L 37 16.703125 
L 37 0 
L 29.203125 0 
L 29.203125 16.703125 
L 1.203125 16.703125 
L 1.203125 23.09375 
L 32.59375 67.59375 
L 37 67.59375 
L 37 23.09375 
L 47.296875 23.09375 
z
M 29.203125 23.09375 
L 29.203125 57.40625 
L 5.203125 23.09375 
z
" id="STIXGeneral-Regular-52"/>
     </defs>
     <use transform="translate(39.042969 16.59375)" xlink:href="#STIXGeneral-Regular-770"/>
     <use transform="translate(0 0.203125)" xlink:href="#STIXGeneral-Italic-116"/>
     <use transform="translate(42.239984 0.203125)" xlink:href="#STIXGeneral-Regular-61"/>
     <use transform="translate(125.179965 0.203125)" xlink:href="#STIXGeneral-Regular-48"/>
     <use transform="translate(175.17995 0.203125)" xlink:href="#STIXGeneral-Regular-46"/>
     <use transform="translate(200.179935 0.203125)" xlink:href="#STIXGeneral-Regular-52"/>
     <use transform="translate(250.179919 0.203125)" xlink:href="#STIXGeneral-Regular-48"/>
    </g>
   </g>
  </g>
  <g id="axes_9">
   <g id="patch_42">
    <path d="M 108 943.794495 
L 612 943.794495 
L 612 859.244037 
L 108 859.244037 
z
" style="fill:#ffffff;"/>
   </g>
   <g id="matplotlib.axis_17">
    <g id="xtick_25">
     <g id="line2d_67">
      <g>
       <use style="fill:#ffffff;stroke:#000000;stroke-width:0.8;" x="130.909091" xlink:href="#mfb8294cf51" y="943.794495"/>
      </g>
     </g>
    </g>
    <g id="xtick_26">
     <g id="line2d_68">
      <g>
       <use style="fill:#ffffff;stroke:#000000;stroke-width:0.8;" x="360" xlink:href="#mfb8294cf51" y="943.794495"/>
      </g>
     </g>
    </g>
    <g id="xtick_27">
     <g id="line2d_69">
      <g>
       <use style="fill:#ffffff;stroke:#000000;stroke-width:0.8;" x="589.090909" xlink:href="#mfb8294cf51" y="943.794495"/>
      </g>
     </g>
    </g>
   </g>
   <g id="matplotlib.axis_18">
    <g id="ytick_25">
     <g id="line2d_70">
      <g>
       <use style="fill:#ffffff;stroke:#000000;stroke-width:0.8;" x="108" xlink:href="#m9b7858c670" y="936.748624"/>
      </g>
     </g>
     <g id="text_42">
      <!-- −2.5 -->
      <g transform="translate(19.73 951.090968)scale(0.42 -0.42)">
       <use xlink:href="#STIXGeneral-Regular-8722"/>
       <use x="68.499985" xlink:href="#STIXGeneral-Regular-50"/>
       <use x="118.499969" xlink:href="#STIXGeneral-Regular-46"/>
       <use x="143.499954" xlink:href="#STIXGeneral-Regular-53"/>
      </g>
     </g>
    </g>
    <g id="ytick_26">
     <g id="line2d_71">
      <g>
       <use style="fill:#ffffff;stroke:#000000;stroke-width:0.8;" x="108" xlink:href="#m9b7858c670" y="901.519266"/>
      </g>
     </g>
     <g id="text_43">
      <!-- 0.0 -->
      <g transform="translate(48.5 915.86161)scale(0.42 -0.42)">
       <use xlink:href="#STIXGeneral-Regular-48"/>
       <use x="49.999985" xlink:href="#STIXGeneral-Regular-46"/>
       <use x="74.999969" xlink:href="#STIXGeneral-Regular-48"/>
      </g>
     </g>
    </g>
    <g id="ytick_27">
     <g id="line2d_72">
      <g>
       <use style="fill:#ffffff;stroke:#000000;stroke-width:0.8;" x="108" xlink:href="#m9b7858c670" y="866.289908"/>
      </g>
     </g>
     <g id="text_44">
      <!-- 2.5 -->
      <g transform="translate(48.5 880.632252)scale(0.42 -0.42)">
       <use xlink:href="#STIXGeneral-Regular-50"/>
       <use x="49.999985" xlink:href="#STIXGeneral-Regular-46"/>
       <use x="74.999969" xlink:href="#STIXGeneral-Regular-53"/>
      </g>
     </g>
    </g>
    <g id="text_45">
     <!-- Cp -->
     <g transform="translate(6.614688 926.026922)rotate(-90)scale(0.42 -0.42)">
      <use xlink:href="#STIXGeneral-Regular-67"/>
      <use x="66.699997" xlink:href="#STIXGeneral-Regular-112"/>
     </g>
    </g>
   </g>
   <g id="line2d_73">
    <path clip-path="url(#p5b5d822d20)" d="M 130.909091 894.962096 
L 135.53719 900.034787 
L 140.165289 901.207781 
L 144.793388 901.737678 
L 149.421488 902.325676 
L 154.049587 902.648573 
L 158.677686 902.949306 
L 163.305785 903.148467 
L 167.933884 903.323565 
L 172.561983 903.469834 
L 177.190083 903.615688 
L 181.818182 903.747901 
L 186.446281 903.857969 
L 191.07438 903.961544 
L 195.702479 904.060067 
L 200.330579 904.142243 
L 204.958678 904.221021 
L 209.586777 904.305809 
L 214.214876 904.364219 
L 218.842975 904.43142 
L 223.471074 904.476713 
L 228.099174 904.520528 
L 232.727273 904.575681 
L 237.355372 904.619386 
L 241.983471 904.664534 
L 246.61157 904.702331 
L 251.239669 904.740141 
L 255.867769 904.792425 
L 260.495868 904.822583 
L 265.123967 904.850011 
L 269.752066 904.890644 
L 274.380165 904.91355 
L 279.008264 904.943773 
L 283.636364 904.96563 
L 288.264463 904.995528 
L 292.892562 905.009415 
L 297.520661 905.033637 
L 302.14876 905.060505 
L 306.77686 905.080638 
L 311.404959 905.098929 
L 316.033058 905.112931 
L 320.661157 905.136833 
L 325.289256 905.161004 
L 329.917355 905.17773 
L 334.545455 905.187721 
L 339.173554 905.208549 
L 343.801653 905.207458 
L 348.429752 905.225863 
L 353.057851 905.244489 
L 357.68595 905.252231 
L 362.31405 905.269785 
L 366.942149 905.272712 
L 371.570248 905.288628 
L 376.198347 905.303794 
L 380.826446 905.303285 
L 385.454545 905.313211 
L 390.082645 905.325269 
L 394.710744 905.325687 
L 399.338843 905.336668 
L 403.966942 905.340051 
L 408.595041 905.340359 
L 413.22314 905.345518 
L 417.85124 905.34421 
L 422.479339 905.337467 
L 427.107438 905.344025 
L 431.735537 905.339075 
L 436.363636 905.340264 
L 440.991736 905.33403 
L 445.619835 905.317712 
L 450.247934 905.30853 
L 454.876033 905.293264 
L 459.504132 905.286493 
L 464.132231 905.271501 
L 468.760331 905.250862 
L 473.38843 905.235617 
L 478.016529 905.208324 
L 482.644628 905.192539 
L 487.272727 905.143689 
L 491.900826 905.114717 
L 496.528926 905.073588 
L 501.157025 905.026143 
L 505.785124 904.974166 
L 510.413223 904.921506 
L 515.041322 904.861919 
L 519.669421 904.78902 
L 524.297521 904.710997 
L 528.92562 904.61687 
L 533.553719 904.513851 
L 538.181818 904.400255 
L 542.809917 904.268116 
L 547.438017 904.125962 
L 552.066116 903.962507 
L 556.694215 903.772764 
L 561.322314 903.488512 
L 565.950413 903.214942 
L 570.578512 902.796301 
L 575.206612 902.332286 
L 579.834711 901.691428 
L 584.46281 900.415886 
L 589.090909 897.703645 
" style="fill:none;stroke:#1f77b4;stroke-linecap:square;stroke-width:8;"/>
   </g>
   <g id="line2d_74">
    <path clip-path="url(#p5b5d822d20)" d="M 108 901.519266 
L 612 901.519266 
" style="fill:none;stroke:#000000;stroke-dasharray:3.2,0.8,0.5,0.8;stroke-dashoffset:0;stroke-width:0.5;"/>
   </g>
   <g id="patch_43">
    <path d="M 108 943.794495 
L 108 859.244037 
" style="fill:none;stroke:#000000;stroke-linecap:square;stroke-linejoin:miter;stroke-width:0.8;"/>
   </g>
   <g id="patch_44">
    <path d="M 612 943.794495 
L 612 859.244037 
" style="fill:none;stroke:#000000;stroke-linecap:square;stroke-linejoin:miter;stroke-width:0.8;"/>
   </g>
   <g id="patch_45">
    <path d="M 108 943.794495 
L 612 943.794495 
" style="fill:none;stroke:#000000;stroke-linecap:square;stroke-linejoin:miter;stroke-width:0.8;"/>
   </g>
   <g id="patch_46">
    <path d="M 108 859.244037 
L 612 859.244037 
" style="fill:none;stroke:#000000;stroke-linecap:square;stroke-linejoin:miter;stroke-width:0.8;"/>
   </g>
   <g id="text_46">
    <!-- $\^t = 0.45$ -->
    <g transform="translate(599.19 911.303954)scale(0.42 -0.42)">
     <use transform="translate(39.042969 16.59375)" xlink:href="#STIXGeneral-Regular-770"/>
     <use transform="translate(0 0.203125)" xlink:href="#STIXGeneral-Italic-116"/>
     <use transform="translate(42.239984 0.203125)" xlink:href="#STIXGeneral-Regular-61"/>
     <use transform="translate(125.179965 0.203125)" xlink:href="#STIXGeneral-Regular-48"/>
     <use transform="translate(175.17995 0.203125)" xlink:href="#STIXGeneral-Regular-46"/>
     <use transform="translate(200.179935 0.203125)" xlink:href="#STIXGeneral-Regular-52"/>
     <use transform="translate(250.179919 0.203125)" xlink:href="#STIXGeneral-Regular-53"/>
    </g>
   </g>
  </g>
  <g id="axes_10">
   <g id="patch_47">
    <path d="M 108 1036.8 
L 612 1036.8 
L 612 952.249541 
L 108 952.249541 
z
" style="fill:#ffffff;"/>
   </g>
   <g id="matplotlib.axis_19">
    <g id="xtick_28">
     <g id="line2d_75">
      <g>
       <use style="fill:#ffffff;stroke:#000000;stroke-width:0.8;" x="130.909091" xlink:href="#mfb8294cf51" y="1036.8"/>
      </g>
     </g>
     <g id="text_47">
      <!-- 0.0 -->
      <g transform="translate(104.659091 1072.484688)scale(0.42 -0.42)">
       <use xlink:href="#STIXGeneral-Regular-48"/>
       <use x="49.999985" xlink:href="#STIXGeneral-Regular-46"/>
       <use x="74.999969" xlink:href="#STIXGeneral-Regular-48"/>
      </g>
     </g>
    </g>
    <g id="xtick_29">
     <g id="line2d_76">
      <g>
       <use style="fill:#ffffff;stroke:#000000;stroke-width:0.8;" x="360" xlink:href="#mfb8294cf51" y="1036.8"/>
      </g>
     </g>
     <g id="text_48">
      <!-- 0.5 -->
      <g transform="translate(333.75 1072.484688)scale(0.42 -0.42)">
       <use xlink:href="#STIXGeneral-Regular-48"/>
       <use x="49.999985" xlink:href="#STIXGeneral-Regular-46"/>
       <use x="74.999969" xlink:href="#STIXGeneral-Regular-53"/>
      </g>
     </g>
    </g>
    <g id="xtick_30">
     <g id="line2d_77">
      <g>
       <use style="fill:#ffffff;stroke:#000000;stroke-width:0.8;" x="589.090909" xlink:href="#mfb8294cf51" y="1036.8"/>
      </g>
     </g>
     <g id="text_49">
      <!-- 1.0 -->
      <g transform="translate(562.840909 1072.484688)scale(0.42 -0.42)">
       <use xlink:href="#STIXGeneral-Regular-49"/>
       <use x="49.999985" xlink:href="#STIXGeneral-Regular-46"/>
       <use x="74.999969" xlink:href="#STIXGeneral-Regular-48"/>
      </g>
     </g>
    </g>
    <g id="text_50">
     <!-- x/c -->
     <g transform="translate(334.337344 1114.284688)scale(0.42 -0.42)">
      <defs>
       <path d="M 47.90625 0 
L 27.796875 0 
L 27.796875 1.5 
Q 30.296875 1.703125 31.046875 2.140625 
Q 31.796875 2.59375 31.796875 3.90625 
Q 31.796875 4.796875 31.203125 5.703125 
L 22.09375 19.703125 
L 14.203125 7.40625 
Q 12.203125 4.296875 12.203125 3.296875 
Q 12.203125 1.5 16.203125 1.5 
L 16.203125 0 
L 1.703125 0 
L 1.703125 1.5 
Q 4.203125 1.703125 5.546875 2.640625 
Q 6.90625 3.59375 9 6.59375 
L 20.40625 23.09375 
L 11 37.5 
Q 8.703125 41 7.09375 42.25 
Q 5.5 43.5 3.296875 43.5 
L 2.40625 43.5 
L 2.40625 45 
L 23.09375 45 
L 23.09375 43.5 
Q 18.796875 43.40625 18.796875 41.296875 
Q 18.796875 39.203125 23.40625 32.40625 
Q 24.703125 30.59375 24.796875 30.40625 
Q 25.296875 31.09375 27.796875 34.796875 
Q 28.296875 35.703125 29 36.703125 
Q 29.703125 37.703125 30.046875 38.296875 
Q 30.40625 38.90625 30.796875 39.5 
Q 31.203125 40.09375 31.34375 40.546875 
Q 31.5 41 31.5 41.296875 
Q 31.5 43.203125 27.5 43.5 
L 27.5 45 
L 43.296875 45 
L 43.296875 43.5 
Q 38.203125 43.296875 35.203125 39.09375 
L 26.90625 27.09375 
L 39.703125 7.5 
Q 43.59375 1.5 47.90625 1.5 
z
" id="STIXGeneral-Regular-120"/>
      </defs>
      <use xlink:href="#STIXGeneral-Regular-120"/>
      <use x="49.999985" xlink:href="#STIXGeneral-Regular-47"/>
      <use x="77.799973" xlink:href="#STIXGeneral-Regular-99"/>
     </g>
    </g>
   </g>
   <g id="matplotlib.axis_20">
    <g id="ytick_28">
     <g id="line2d_78">
      <g>
       <use style="fill:#ffffff;stroke:#000000;stroke-width:0.8;" x="108" xlink:href="#m9b7858c670" y="1029.754128"/>
      </g>
     </g>
     <g id="text_51">
      <!-- −2.5 -->
      <g transform="translate(19.73 1044.096472)scale(0.42 -0.42)">
       <use xlink:href="#STIXGeneral-Regular-8722"/>
       <use x="68.499985" xlink:href="#STIXGeneral-Regular-50"/>
       <use x="118.499969" xlink:href="#STIXGeneral-Regular-46"/>
       <use x="143.499954" xlink:href="#STIXGeneral-Regular-53"/>
      </g>
     </g>
    </g>
    <g id="ytick_29">
     <g id="line2d_79">
      <g>
       <use style="fill:#ffffff;stroke:#000000;stroke-width:0.8;" x="108" xlink:href="#m9b7858c670" y="994.524771"/>
      </g>
     </g>
     <g id="text_52">
      <!-- 0.0 -->
      <g transform="translate(48.5 1008.867114)scale(0.42 -0.42)">
       <use xlink:href="#STIXGeneral-Regular-48"/>
       <use x="49.999985" xlink:href="#STIXGeneral-Regular-46"/>
       <use x="74.999969" xlink:href="#STIXGeneral-Regular-48"/>
      </g>
     </g>
    </g>
    <g id="ytick_30">
     <g id="line2d_80">
      <g>
       <use style="fill:#ffffff;stroke:#000000;stroke-width:0.8;" x="108" xlink:href="#m9b7858c670" y="959.295413"/>
      </g>
     </g>
     <g id="text_53">
      <!-- 2.5 -->
      <g transform="translate(48.5 973.637757)scale(0.42 -0.42)">
       <use xlink:href="#STIXGeneral-Regular-50"/>
       <use x="49.999985" xlink:href="#STIXGeneral-Regular-46"/>
       <use x="74.999969" xlink:href="#STIXGeneral-Regular-53"/>
      </g>
     </g>
    </g>
    <g id="text_54">
     <!-- Cp -->
     <g transform="translate(6.614688 1019.032427)rotate(-90)scale(0.42 -0.42)">
      <use xlink:href="#STIXGeneral-Regular-67"/>
      <use x="66.699997" xlink:href="#STIXGeneral-Regular-112"/>
     </g>
    </g>
   </g>
   <g id="line2d_81">
    <path clip-path="url(#p74682582eb)" d="M 130.909091 995.203852 
L 135.53719 995.227762 
L 140.165289 995.016609 
L 144.793388 994.836856 
L 149.421488 994.658896 
L 154.049587 994.506291 
L 158.677686 994.36602 
L 163.305785 994.23234 
L 167.933884 994.116614 
L 172.561983 993.972355 
L 177.190083 993.906676 
L 181.818182 993.821907 
L 186.446281 993.755998 
L 191.07438 993.703013 
L 195.702479 993.66735 
L 200.330579 993.636965 
L 204.958678 993.588583 
L 209.586777 993.558004 
L 214.214876 993.542843 
L 218.842975 993.503482 
L 223.471074 993.480861 
L 228.099174 993.43658 
L 232.727273 993.392068 
L 237.355372 993.381001 
L 241.983471 993.374548 
L 246.61157 993.359607 
L 251.239669 993.358196 
L 255.867769 993.343751 
L 260.495868 993.345363 
L 265.123967 993.340079 
L 269.752066 993.333692 
L 274.380165 993.342208 
L 279.008264 993.347634 
L 283.636364 993.360075 
L 288.264463 993.389467 
L 292.892562 993.39213 
L 297.520661 993.401616 
L 302.14876 993.417541 
L 306.77686 993.433427 
L 311.404959 993.440871 
L 316.033058 993.459483 
L 320.661157 993.476049 
L 325.289256 993.49498 
L 329.917355 993.527692 
L 334.545455 993.557581 
L 339.173554 993.568744 
L 343.801653 993.606454 
L 348.429752 993.613719 
L 353.057851 993.642795 
L 357.68595 993.668369 
L 362.31405 993.678364 
L 366.942149 993.711905 
L 371.570248 993.737671 
L 376.198347 993.784834 
L 380.826446 993.823659 
L 385.454545 993.853427 
L 390.082645 993.896263 
L 394.710744 993.92693 
L 399.338843 993.96698 
L 403.966942 994.003515 
L 408.595041 994.026845 
L 413.22314 994.069124 
L 417.85124 994.105798 
L 422.479339 994.147224 
L 427.107438 994.201087 
L 431.735537 994.234121 
L 436.363636 994.270513 
L 440.991736 994.326859 
L 445.619835 994.357427 
L 450.247934 994.419561 
L 454.876033 994.461112 
L 459.504132 994.478879 
L 464.132231 994.544482 
L 468.760331 994.590474 
L 473.38843 994.634532 
L 478.016529 994.713738 
L 482.644628 994.73685 
L 487.272727 994.799799 
L 491.900826 994.86515 
L 496.528926 994.912378 
L 501.157025 994.967382 
L 505.785124 995.004818 
L 510.413223 995.062324 
L 515.041322 995.107919 
L 519.669421 995.141831 
L 524.297521 995.196762 
L 528.92562 995.246221 
L 533.553719 995.29931 
L 538.181818 995.35278 
L 542.809917 995.428201 
L 547.438017 995.499714 
L 552.066116 995.570929 
L 556.694215 995.651563 
L 561.322314 995.74853 
L 565.950413 995.831454 
L 570.578512 995.925035 
L 575.206612 996.044182 
L 579.834711 996.146813 
L 584.46281 996.281647 
L 589.090909 996.242681 
" style="fill:none;stroke:#1f77b4;stroke-linecap:square;stroke-width:8;"/>
   </g>
   <g id="line2d_82">
    <path clip-path="url(#p74682582eb)" d="M 108 994.524771 
L 612 994.524771 
" style="fill:none;stroke:#000000;stroke-dasharray:3.2,0.8,0.5,0.8;stroke-dashoffset:0;stroke-width:0.5;"/>
   </g>
   <g id="patch_48">
    <path d="M 108 1036.8 
L 108 952.249541 
" style="fill:none;stroke:#000000;stroke-linecap:square;stroke-linejoin:miter;stroke-width:0.8;"/>
   </g>
   <g id="patch_49">
    <path d="M 612 1036.8 
L 612 952.249541 
" style="fill:none;stroke:#000000;stroke-linecap:square;stroke-linejoin:miter;stroke-width:0.8;"/>
   </g>
   <g id="patch_50">
    <path d="M 108 1036.8 
L 612 1036.8 
" style="fill:none;stroke:#000000;stroke-linecap:square;stroke-linejoin:miter;stroke-width:0.8;"/>
   </g>
   <g id="patch_51">
    <path d="M 108 952.249541 
L 612 952.249541 
" style="fill:none;stroke:#000000;stroke-linecap:square;stroke-linejoin:miter;stroke-width:0.8;"/>
   </g>
   <g id="text_55">
    <!-- $\^t = 0.50$ -->
    <g transform="translate(599.19 1004.309458)scale(0.42 -0.42)">
     <use transform="translate(39.042969 16.59375)" xlink:href="#STIXGeneral-Regular-770"/>
     <use transform="translate(0 0.203125)" xlink:href="#STIXGeneral-Italic-116"/>
     <use transform="translate(42.239984 0.203125)" xlink:href="#STIXGeneral-Regular-61"/>
     <use transform="translate(125.179965 0.203125)" xlink:href="#STIXGeneral-Regular-48"/>
     <use transform="translate(175.17995 0.203125)" xlink:href="#STIXGeneral-Regular-46"/>
     <use transform="translate(200.179935 0.203125)" xlink:href="#STIXGeneral-Regular-53"/>
     <use transform="translate(250.179919 0.203125)" xlink:href="#STIXGeneral-Regular-48"/>
    </g>
   </g>
  </g>
 </g>
 <defs>
  <clipPath id="pff48efff54">
   <rect height="84.550459" width="504" x="108" y="115.2"/>
  </clipPath>
  <clipPath id="pa99b895e44">
   <rect height="84.550459" width="504" x="108" y="208.205505"/>
  </clipPath>
  <clipPath id="p9ec5adc73b">
   <rect height="84.550459" width="504" x="108" y="301.211009"/>
  </clipPath>
  <clipPath id="p5125124f2c">
   <rect height="84.550459" width="504" x="108" y="394.216514"/>
  </clipPath>
  <clipPath id="p91e4ac1491">
   <rect height="84.550459" width="504" x="108" y="487.222018"/>
  </clipPath>
  <clipPath id="p9c0901ef0c">
   <rect height="84.550459" width="504" x="108" y="580.227523"/>
  </clipPath>
  <clipPath id="pff07f5cb1a">
   <rect height="84.550459" width="504" x="108" y="673.233028"/>
  </clipPath>
  <clipPath id="pc59e0f9b19">
   <rect height="84.550459" width="504" x="108" y="766.238532"/>
  </clipPath>
  <clipPath id="p5b5d822d20">
   <rect height="84.550459" width="504" x="108" y="859.244037"/>
  </clipPath>
  <clipPath id="p74682582eb">
   <rect height="84.550459" width="504" x="108" y="952.249541"/>
  </clipPath>
 </defs>
</svg>
