<?xml version="1.0" encoding="utf-8" standalone="no"?>
<!DOCTYPE svg PUBLIC "-//W3C//DTD SVG 1.1//EN"
  "http://www.w3.org/Graphics/SVG/1.1/DTD/svg11.dtd">
<!-- Created with matplotlib (https://matplotlib.org/) -->
<svg height="1152pt" version="1.1" viewBox="0 0 720 1152" width="720pt" xmlns="http://www.w3.org/2000/svg" xmlns:xlink="http://www.w3.org/1999/xlink">
 <metadata>
  <rdf:RDF xmlns:cc="http://creativecommons.org/ns#" xmlns:dc="http://purl.org/dc/elements/1.1/" xmlns:rdf="http://www.w3.org/1999/02/22-rdf-syntax-ns#">
   <cc:Work>
    <dc:type rdf:resource="http://purl.org/dc/dcmitype/StillImage"/>
    <dc:date>2022-05-03T19:00:43.161334</dc:date>
    <dc:format>image/svg+xml</dc:format>
    <dc:creator>
     <cc:Agent>
      <dc:title>Matplotlib v3.3.4, https://matplotlib.org/</dc:title>
     </cc:Agent>
    </dc:creator>
   </cc:Work>
  </rdf:RDF>
 </metadata>
 <defs>
  <style type="text/css">*{stroke-linecap:butt;stroke-linejoin:round;}</style>
 </defs>
 <g id="figure_1">
  <g id="patch_1">
   <path d="M 0 1152 
L 720 1152 
L 720 0 
L 0 0 
z
" style="fill:#ffffff;"/>
  </g>
  <g id="axes_1">
   <g id="patch_2">
    <path d="M 108 199.750459 
L 612 199.750459 
L 612 115.2 
L 108 115.2 
z
" style="fill:#ffffff;"/>
   </g>
   <g id="matplotlib.axis_1">
    <g id="xtick_1">
     <g id="line2d_1">
      <defs>
       <path d="M 0 0 
L 0 3.5 
" id="m1c16f65f7b" style="stroke:#000000;stroke-width:0.8;"/>
      </defs>
      <g>
       <use style="fill:#ffffff;stroke:#000000;stroke-width:0.8;" x="130.909091" xlink:href="#m1c16f65f7b" y="199.750459"/>
      </g>
     </g>
    </g>
    <g id="xtick_2">
     <g id="line2d_2">
      <g>
       <use style="fill:#ffffff;stroke:#000000;stroke-width:0.8;" x="360" xlink:href="#m1c16f65f7b" y="199.750459"/>
      </g>
     </g>
    </g>
    <g id="xtick_3">
     <g id="line2d_3">
      <g>
       <use style="fill:#ffffff;stroke:#000000;stroke-width:0.8;" x="589.090909" xlink:href="#m1c16f65f7b" y="199.750459"/>
      </g>
     </g>
    </g>
   </g>
   <g id="matplotlib.axis_2">
    <g id="ytick_1">
     <g id="line2d_4">
      <defs>
       <path d="M 0 0 
L -3.5 0 
" id="mf29efa8f1e" style="stroke:#000000;stroke-width:0.8;"/>
      </defs>
      <g>
       <use style="fill:#ffffff;stroke:#000000;stroke-width:0.8;" x="108" xlink:href="#mf29efa8f1e" y="192.704587"/>
      </g>
     </g>
     <g id="text_1">
      <!-- −2.5 -->
      <g transform="translate(19.73 207.046931)scale(0.42 -0.42)">
       <defs>
        <path d="M 62.09375 22 
L 6.40625 22 
L 6.40625 28.59375 
L 62.09375 28.59375 
z
" id="STIXGeneral-Regular-8722"/>
        <path d="M 47.40625 13.703125 
L 42 0 
L 2.90625 0 
L 2.90625 1.203125 
L 20.703125 20.09375 
Q 27.703125 27.40625 30.703125 33.5 
Q 33.703125 39.59375 33.703125 46.09375 
Q 33.703125 52.796875 30 56.5 
Q 26.296875 60.203125 19.796875 60.203125 
Q 14.40625 60.203125 11.25 57.390625 
Q 8.09375 54.59375 5.09375 47.203125 
L 3 47.703125 
Q 4.703125 57 9.84375 62.296875 
Q 15 67.59375 23.796875 67.59375 
Q 32.09375 67.59375 37.1875 62.59375 
Q 42.296875 57.59375 42.296875 50 
Q 42.296875 38.703125 29.5 25.203125 
L 13 7.59375 
L 36.40625 7.59375 
Q 39.703125 7.59375 41.640625 8.890625 
Q 43.59375 10.203125 46 14.296875 
z
" id="STIXGeneral-Regular-50"/>
        <path d="M 18.09375 4.296875 
Q 18.09375 2.09375 16.4375 0.5 
Q 14.796875 -1.09375 12.5 -1.09375 
Q 10.203125 -1.09375 8.59375 0.5 
Q 7 2.09375 7 4.390625 
Q 7 6.703125 8.640625 8.34375 
Q 10.296875 10 12.59375 10 
Q 14.796875 10 16.4375 8.296875 
Q 18.09375 6.59375 18.09375 4.296875 
z
" id="STIXGeneral-Regular-46"/>
        <path d="M 43.796875 68.09375 
L 40.203125 59.59375 
Q 39.59375 58.296875 37.5 58.296875 
L 18.09375 58.296875 
L 14.09375 49.796875 
Q 25.09375 47.703125 30 45.25 
Q 34.90625 42.796875 39.09375 37 
Q 42.59375 32.203125 42.59375 24.296875 
Q 42.59375 17.09375 40.25 12.1875 
Q 37.90625 7.296875 32.796875 3.5 
Q 26 -1.40625 15.796875 -1.40625 
Q 10.09375 -1.40625 6.59375 0.296875 
Q 3.09375 2 3.09375 4.796875 
Q 3.09375 8.59375 7.59375 8.59375 
Q 11.203125 8.59375 15 5.5 
Q 18.90625 2.296875 22.09375 2.296875 
Q 27.296875 2.296875 31.4375 7.5 
Q 35.59375 12.703125 35.59375 19.203125 
Q 35.59375 28.796875 28.90625 34.203125 
Q 20.203125 41.203125 7.59375 41.203125 
Q 6.40625 41.203125 6.40625 42 
L 6.5 42.5 
L 17.40625 66.203125 
L 38.09375 66.203125 
Q 39.796875 66.203125 40.75 66.703125 
Q 41.703125 67.203125 42.90625 68.796875 
z
" id="STIXGeneral-Regular-53"/>
       </defs>
       <use xlink:href="#STIXGeneral-Regular-8722"/>
       <use x="68.499985" xlink:href="#STIXGeneral-Regular-50"/>
       <use x="118.499969" xlink:href="#STIXGeneral-Regular-46"/>
       <use x="143.499954" xlink:href="#STIXGeneral-Regular-53"/>
      </g>
     </g>
    </g>
    <g id="ytick_2">
     <g id="line2d_5">
      <g>
       <use style="fill:#ffffff;stroke:#000000;stroke-width:0.8;" x="108" xlink:href="#mf29efa8f1e" y="157.475229"/>
      </g>
     </g>
     <g id="text_2">
      <!-- 0.0 -->
      <g transform="translate(48.5 171.817573)scale(0.42 -0.42)">
       <defs>
        <path d="M 47.59375 33 
Q 47.59375 26.296875 46.296875 20.34375 
Q 45 14.40625 42.453125 9.40625 
Q 39.90625 4.40625 35.40625 1.5 
Q 30.90625 -1.40625 25 -1.40625 
Q 18.90625 -1.40625 14.296875 1.6875 
Q 9.703125 4.796875 7.203125 10 
Q 4.703125 15.203125 3.546875 21.09375 
Q 2.40625 27 2.40625 33.59375 
Q 2.40625 42.90625 4.703125 50.34375 
Q 7 57.796875 12.34375 62.6875 
Q 17.703125 67.59375 25.40625 67.59375 
Q 35.203125 67.59375 41.390625 58 
Q 47.59375 48.40625 47.59375 33 
z
M 38 32.5 
Q 38 48.296875 34.640625 56.640625 
Q 31.296875 65 24.796875 65 
Q 18.59375 65 15.296875 56.59375 
Q 12 48.203125 12 32.90625 
Q 12 17.5 15.296875 9.34375 
Q 18.59375 1.203125 25 1.203125 
Q 31.296875 1.203125 34.640625 9.34375 
Q 38 17.5 38 32.5 
z
" id="STIXGeneral-Regular-48"/>
       </defs>
       <use xlink:href="#STIXGeneral-Regular-48"/>
       <use x="49.999985" xlink:href="#STIXGeneral-Regular-46"/>
       <use x="74.999969" xlink:href="#STIXGeneral-Regular-48"/>
      </g>
     </g>
    </g>
    <g id="ytick_3">
     <g id="line2d_6">
      <g>
       <use style="fill:#ffffff;stroke:#000000;stroke-width:0.8;" x="108" xlink:href="#mf29efa8f1e" y="122.245872"/>
      </g>
     </g>
     <g id="text_3">
      <!-- 2.5 -->
      <g transform="translate(48.5 136.588215)scale(0.42 -0.42)">
       <use xlink:href="#STIXGeneral-Regular-50"/>
       <use x="49.999985" xlink:href="#STIXGeneral-Regular-46"/>
       <use x="74.999969" xlink:href="#STIXGeneral-Regular-53"/>
      </g>
     </g>
    </g>
    <g id="text_4">
     <!-- Cp -->
     <g transform="translate(6.614688 181.982886)rotate(-90)scale(0.42 -0.42)">
      <defs>
       <path d="M 61.40625 13.09375 
L 63.296875 11.296875 
Q 54.40625 -1.40625 36 -1.40625 
Q 21.5 -1.40625 12.40625 7.5 
Q 2.796875 16.90625 2.796875 32.5 
Q 2.796875 47.09375 11.796875 57.203125 
Q 21.203125 67.59375 36.09375 67.59375 
Q 42.5 67.59375 48 66.09375 
Q 54.296875 64.296875 54.90625 64.296875 
Q 58.203125 64.296875 59.09375 67.59375 
L 61.09375 67.59375 
L 62 44.90625 
L 59.703125 44.90625 
Q 58.09375 52.09375 54.5 56 
Q 47.40625 63.59375 38.40625 63.59375 
Q 27.296875 63.59375 20.84375 55.4375 
Q 14.40625 47.296875 14.40625 34.09375 
Q 14.40625 18 21.59375 10.203125 
Q 28.296875 3 39.40625 3 
Q 46 3 50.796875 5.296875 
Q 55.59375 7.59375 61.40625 13.09375 
z
" id="STIXGeneral-Regular-67"/>
       <path d="M 15.90625 45.796875 
L 15.90625 38.09375 
Q 22.203125 46 30.296875 46 
Q 37.59375 46 42.296875 40 
Q 47 34 47 24.703125 
Q 47 13.796875 40.953125 6.390625 
Q 34.90625 -1 26 -1 
Q 22.90625 -1 20.75 -0.09375 
Q 18.59375 0.796875 15.90625 3.296875 
L 15.90625 -12.40625 
Q 15.90625 -17.09375 17.5 -18.4375 
Q 19.09375 -19.796875 24.703125 -19.90625 
L 24.703125 -21.703125 
L 0.5 -21.703125 
L 0.5 -20 
Q 4.90625 -19.59375 6.203125 -18.296875 
Q 7.5 -17 7.5 -13.09375 
L 7.5 33.703125 
Q 7.5 37.203125 6.703125 38.296875 
Q 5.90625 39.40625 3.40625 39.40625 
Q 1.796875 39.40625 0.90625 39.296875 
L 0.90625 40.90625 
Q 7.90625 43 15.296875 46 
z
M 15.90625 33.40625 
L 15.90625 8.796875 
Q 15.90625 6.59375 19.34375 4.390625 
Q 22.796875 2.203125 26.296875 2.203125 
Q 31.703125 2.203125 35.046875 7.296875 
Q 38.40625 12.40625 38.40625 20.703125 
Q 38.40625 29.5 35.046875 34.75 
Q 31.703125 40 26.09375 40 
Q 22.59375 40 19.25 37.796875 
Q 15.90625 35.59375 15.90625 33.40625 
z
" id="STIXGeneral-Regular-112"/>
      </defs>
      <use xlink:href="#STIXGeneral-Regular-67"/>
      <use x="66.699997" xlink:href="#STIXGeneral-Regular-112"/>
     </g>
    </g>
   </g>
   <g id="line2d_7">
    <path clip-path="url(#p81c9a3eb0d)" d="M 130.909091 156.173998 
L 135.53719 137.121027 
L 140.165289 134.71749 
L 144.793388 133.857673 
L 149.421488 132.804173 
L 154.049587 131.815036 
L 158.677686 130.838561 
L 163.305785 129.797043 
L 167.933884 128.693256 
L 172.561983 127.567331 
L 177.190083 126.456983 
L 181.818182 125.401723 
L 186.446281 124.462733 
L 191.07438 123.672138 
L 195.702479 123.074402 
L 200.330579 122.693673 
L 204.958678 122.577554 
L 209.586777 122.718232 
L 214.214876 123.061707 
L 218.842975 123.622202 
L 223.471074 124.360011 
L 228.099174 125.25235 
L 232.727273 126.232282 
L 237.355372 127.28976 
L 241.983471 128.384812 
L 246.61157 129.504724 
L 251.239669 130.637957 
L 255.867769 131.74376 
L 260.495868 132.814481 
L 265.123967 133.865248 
L 269.752066 134.920017 
L 274.380165 136.017537 
L 279.008264 137.200635 
L 283.636364 138.500655 
L 288.264463 139.911771 
L 292.892562 141.366285 
L 297.520661 142.81599 
L 302.14876 144.25922 
L 306.77686 145.688329 
L 311.404959 147.073796 
L 316.033058 148.395014 
L 320.661157 149.674316 
L 325.289256 150.907291 
L 329.917355 152.097143 
L 334.545455 153.23754 
L 339.173554 154.324056 
L 343.801653 155.58865 
L 348.429752 156.2413 
L 353.057851 157.017298 
L 357.68595 157.643361 
L 362.31405 158.139146 
L 366.942149 158.518882 
L 371.570248 158.828516 
L 376.198347 159.093398 
L 380.826446 159.351769 
L 385.454545 159.629019 
L 390.082645 159.937207 
L 394.710744 160.288517 
L 399.338843 160.675084 
L 403.966942 161.093186 
L 408.595041 161.531064 
L 413.22314 161.979753 
L 417.85124 162.431606 
L 422.479339 162.881154 
L 427.107438 163.326821 
L 431.735537 163.769953 
L 436.363636 164.212414 
L 440.991736 164.657826 
L 445.619835 165.110338 
L 450.247934 165.571234 
L 454.876033 166.045375 
L 459.504132 166.531762 
L 464.132231 167.035162 
L 468.760331 167.555039 
L 473.38843 168.096167 
L 478.016529 168.659725 
L 482.644628 169.250395 
L 487.272727 169.869103 
L 491.900826 170.519689 
L 496.528926 171.205759 
L 501.157025 171.928406 
L 505.785124 172.694139 
L 510.413223 173.500928 
L 515.041322 174.357153 
L 519.669421 175.256334 
L 524.297521 176.207821 
L 528.92562 177.201183 
L 533.553719 178.243295 
L 538.181818 179.323603 
L 542.809917 180.445568 
L 547.438017 181.596628 
L 552.066116 182.779477 
L 556.694215 183.906466 
L 561.322314 185.060419 
L 565.950413 186.131682 
L 570.578512 186.96102 
L 575.206612 187.136299 
L 579.834711 186.623088 
L 584.46281 185.26784 
L 589.090909 176.631686 
" style="fill:none;stroke:#1f77b4;stroke-linecap:square;stroke-width:8;"/>
   </g>
   <g id="line2d_8">
    <path clip-path="url(#p81c9a3eb0d)" d="M 108 157.475229 
L 612 157.475229 
" style="fill:none;stroke:#000000;stroke-dasharray:3.2,0.8,0.5,0.8;stroke-dashoffset:0;stroke-width:0.5;"/>
   </g>
   <g id="patch_3">
    <path d="M 108 199.750459 
L 108 115.2 
" style="fill:none;stroke:#000000;stroke-linecap:square;stroke-linejoin:miter;stroke-width:0.8;"/>
   </g>
   <g id="patch_4">
    <path d="M 612 199.750459 
L 612 115.2 
" style="fill:none;stroke:#000000;stroke-linecap:square;stroke-linejoin:miter;stroke-width:0.8;"/>
   </g>
   <g id="patch_5">
    <path d="M 108 199.750459 
L 612 199.750459 
" style="fill:none;stroke:#000000;stroke-linecap:square;stroke-linejoin:miter;stroke-width:0.8;"/>
   </g>
   <g id="patch_6">
    <path d="M 108 115.2 
L 612 115.2 
" style="fill:none;stroke:#000000;stroke-linecap:square;stroke-linejoin:miter;stroke-width:0.8;"/>
   </g>
   <g id="text_5">
    <!-- $\^t = 0.05$ -->
    <g transform="translate(599.19 167.259917)scale(0.42 -0.42)">
     <defs>
      <path d="M -7.5 50.703125 
L -10.90625 50.703125 
L -23.09375 61 
L -35.203125 50.703125 
L -38.59375 50.703125 
L -26.203125 67.40625 
L -20 67.40625 
z
" id="STIXGeneral-Regular-770"/>
      <path d="M 29.59375 42.796875 
L 29.09375 39.59375 
L 20.703125 39.59375 
L 12 6.796875 
Q 11.796875 6 11.796875 5.40625 
Q 11.796875 3.796875 13.296875 3.796875 
Q 14.5 3.796875 16.09375 5.34375 
Q 17.703125 6.90625 21.40625 11.703125 
L 22.703125 11 
Q 18.09375 4 15.140625 1.453125 
Q 12.203125 -1.09375 8.40625 -1.09375 
Q 3.796875 -1.09375 3.796875 2.59375 
Q 3.796875 3.59375 5.40625 10 
L 13.203125 39.59375 
L 5.703125 39.59375 
L 5.59375 40.203125 
Q 5.59375 42 8.90625 42.703125 
Q 11.40625 43.296875 15.5 46.546875 
Q 19.59375 49.796875 22.203125 53.703125 
Q 22.796875 54.59375 23.59375 54.59375 
Q 24.5 54.59375 24.5 53.796875 
Q 24.5 53.296875 24.40625 53.09375 
L 21.59375 42.796875 
z
" id="STIXGeneral-Italic-116"/>
      <path d="M 63.703125 32 
L 4.796875 32 
L 4.796875 38.59375 
L 63.703125 38.59375 
z
M 63.703125 12 
L 4.796875 12 
L 4.796875 18.59375 
L 63.703125 18.59375 
z
" id="STIXGeneral-Regular-61"/>
     </defs>
     <use transform="translate(39.042969 16.59375)" xlink:href="#STIXGeneral-Regular-770"/>
     <use transform="translate(0 0.203125)" xlink:href="#STIXGeneral-Italic-116"/>
     <use transform="translate(42.239984 0.203125)" xlink:href="#STIXGeneral-Regular-61"/>
     <use transform="translate(125.179965 0.203125)" xlink:href="#STIXGeneral-Regular-48"/>
     <use transform="translate(175.17995 0.203125)" xlink:href="#STIXGeneral-Regular-46"/>
     <use transform="translate(200.179935 0.203125)" xlink:href="#STIXGeneral-Regular-48"/>
     <use transform="translate(250.179919 0.203125)" xlink:href="#STIXGeneral-Regular-53"/>
    </g>
   </g>
   <g id="legend_1">
    <g id="line2d_9">
     <path d="M 241.22253 158.9325 
L 311.19453 158.9325 
" style="fill:none;stroke:#1f77b4;stroke-linecap:square;stroke-width:8;"/>
    </g>
    <g id="line2d_10"/>
    <g id="text_6">
     <!-- r/c = 3.65 -->
     <g transform="translate(339.18333 171.1776)scale(0.34986 -0.34986)">
      <defs>
       <path d="M 16 45.796875 
L 16 36.59375 
Q 19.796875 42 22.34375 44 
Q 24.90625 46 28 46 
Q 30.59375 46 32.046875 44.59375 
Q 33.5 43.203125 33.5 40.703125 
Q 33.5 38.59375 32.453125 37.390625 
Q 31.40625 36.203125 29.59375 36.203125 
Q 27.703125 36.203125 25.59375 38.203125 
Q 24 39.703125 23 39.703125 
Q 20.90625 39.703125 18.453125 36.796875 
Q 16 33.90625 16 31.5 
L 16 9 
Q 16 4.703125 17.703125 3.203125 
Q 19.40625 1.703125 24.5 1.5 
L 24.5 0 
L 0.5 0 
L 0.5 1.5 
Q 5.296875 2.40625 6.4375 3.5 
Q 7.59375 4.59375 7.59375 8.40625 
L 7.59375 33.40625 
Q 7.59375 36.703125 6.84375 38.046875 
Q 6.09375 39.40625 4.203125 39.40625 
Q 2.59375 39.40625 0.703125 39 
L 0.703125 40.59375 
Q 7 42.59375 15.5 46 
z
" id="STIXGeneral-Regular-114"/>
       <path d="M 28.703125 67.59375 
L 5.90625 -1.40625 
L -0.90625 -1.40625 
L 22 67.59375 
z
" id="STIXGeneral-Regular-47"/>
       <path d="M 39.796875 15.59375 
L 41.203125 14.703125 
Q 36.90625 6.296875 33 3.203125 
Q 27.90625 -1 21.5 -1 
Q 13.203125 -1 7.84375 5.25 
Q 2.5 11.5 2.5 21.203125 
Q 2.5 33.90625 10.90625 40.90625 
Q 17.09375 46 24.40625 46 
Q 30.703125 46 35.25 42.953125 
Q 39.796875 39.90625 39.796875 35.703125 
Q 39.796875 34 38.390625 32.75 
Q 37 31.5 35.09375 31.5 
Q 31.59375 31.5 30.296875 36.09375 
L 29.703125 38.296875 
Q 28.90625 41.09375 27.703125 42.09375 
Q 26.5 43.09375 23.796875 43.09375 
Q 17.703125 43.09375 13.953125 38.296875 
Q 10.203125 33.5 10.203125 25.703125 
Q 10.203125 17.09375 14.5 11.640625 
Q 18.796875 6.203125 25.703125 6.203125 
Q 30 6.203125 33.09375 8.25 
Q 36.203125 10.296875 39.796875 15.59375 
z
" id="STIXGeneral-Regular-99"/>
       <path id="STIXGeneral-Regular-32"/>
       <path d="M 6.09375 51 
L 4.5 51.40625 
Q 6.796875 58.90625 11.6875 63.25 
Q 16.59375 67.59375 24.09375 67.59375 
Q 31.09375 67.59375 35.390625 63.796875 
Q 39.703125 60 39.703125 53.90625 
Q 39.703125 45.703125 30.40625 40.09375 
Q 35.90625 37.703125 38.703125 34.796875 
Q 43.09375 29.90625 43.09375 21.90625 
Q 43.09375 13.90625 38.5 7.90625 
Q 35.09375 3.296875 28.75 0.9375 
Q 22.40625 -1.40625 15.296875 -1.40625 
Q 4.09375 -1.40625 4.09375 4.296875 
Q 4.09375 5.90625 5.296875 6.90625 
Q 6.5 7.90625 8.203125 7.90625 
Q 10.703125 7.90625 14.296875 5.296875 
Q 18.703125 2.203125 22.90625 2.203125 
Q 28.40625 2.203125 32.15625 6.640625 
Q 35.90625 11.09375 35.90625 17.5 
Q 35.90625 29 25.5 32 
Q 22.40625 33 15.296875 33 
L 15.296875 34.40625 
Q 20.90625 36.296875 23.703125 38 
Q 31.796875 42.59375 31.796875 51.40625 
Q 31.796875 56.40625 28.9375 59 
Q 26.09375 61.59375 21 61.59375 
Q 12 61.59375 6.09375 51 
z
" id="STIXGeneral-Regular-51"/>
       <path d="M 44.59375 68.40625 
L 44.796875 66.796875 
Q 33 64.90625 25.09375 57.25 
Q 17.203125 49.59375 15.203125 38.296875 
Q 21 42.796875 27.90625 42.796875 
Q 36.703125 42.796875 41.75 37.1875 
Q 46.796875 31.59375 46.796875 21.90625 
Q 46.796875 12.09375 41.703125 5.90625 
Q 35.796875 -1.40625 25.796875 -1.40625 
Q 13.59375 -1.40625 8.09375 8.703125 
Q 3.40625 17.296875 3.40625 27.90625 
Q 3.40625 44.296875 14.296875 55.5 
Q 20.5 61.90625 27.046875 64.546875 
Q 33.59375 67.203125 44.59375 68.40625 
z
M 37.796875 18.796875 
Q 37.796875 38.203125 24.296875 38.203125 
Q 19.296875 38.203125 16 35.546875 
Q 12.703125 32.90625 12.703125 26.59375 
Q 12.703125 14.90625 16.34375 8.15625 
Q 20 1.40625 26.90625 1.40625 
Q 32.203125 1.40625 35 6.15625 
Q 37.796875 10.90625 37.796875 18.796875 
z
" id="STIXGeneral-Regular-54"/>
      </defs>
      <use xlink:href="#STIXGeneral-Regular-114"/>
      <use x="33.299988" xlink:href="#STIXGeneral-Regular-47"/>
      <use x="61.099976" xlink:href="#STIXGeneral-Regular-99"/>
      <use x="105.499969" xlink:href="#STIXGeneral-Regular-32"/>
      <use x="130.499954" xlink:href="#STIXGeneral-Regular-61"/>
      <use x="198.999939" xlink:href="#STIXGeneral-Regular-32"/>
      <use x="223.999924" xlink:href="#STIXGeneral-Regular-51"/>
      <use x="273.999908" xlink:href="#STIXGeneral-Regular-46"/>
      <use x="298.999893" xlink:href="#STIXGeneral-Regular-54"/>
      <use x="348.999878" xlink:href="#STIXGeneral-Regular-53"/>
     </g>
    </g>
   </g>
  </g>
  <g id="axes_2">
   <g id="patch_7">
    <path d="M 108 292.755963 
L 612 292.755963 
L 612 208.205505 
L 108 208.205505 
z
" style="fill:#ffffff;"/>
   </g>
   <g id="matplotlib.axis_3">
    <g id="xtick_4">
     <g id="line2d_11">
      <g>
       <use style="fill:#ffffff;stroke:#000000;stroke-width:0.8;" x="130.909091" xlink:href="#m1c16f65f7b" y="292.755963"/>
      </g>
     </g>
    </g>
    <g id="xtick_5">
     <g id="line2d_12">
      <g>
       <use style="fill:#ffffff;stroke:#000000;stroke-width:0.8;" x="360" xlink:href="#m1c16f65f7b" y="292.755963"/>
      </g>
     </g>
    </g>
    <g id="xtick_6">
     <g id="line2d_13">
      <g>
       <use style="fill:#ffffff;stroke:#000000;stroke-width:0.8;" x="589.090909" xlink:href="#m1c16f65f7b" y="292.755963"/>
      </g>
     </g>
    </g>
   </g>
   <g id="matplotlib.axis_4">
    <g id="ytick_4">
     <g id="line2d_14">
      <g>
       <use style="fill:#ffffff;stroke:#000000;stroke-width:0.8;" x="108" xlink:href="#mf29efa8f1e" y="285.710092"/>
      </g>
     </g>
     <g id="text_7">
      <!-- −2.5 -->
      <g transform="translate(19.73 300.052435)scale(0.42 -0.42)">
       <use xlink:href="#STIXGeneral-Regular-8722"/>
       <use x="68.499985" xlink:href="#STIXGeneral-Regular-50"/>
       <use x="118.499969" xlink:href="#STIXGeneral-Regular-46"/>
       <use x="143.499954" xlink:href="#STIXGeneral-Regular-53"/>
      </g>
     </g>
    </g>
    <g id="ytick_5">
     <g id="line2d_15">
      <g>
       <use style="fill:#ffffff;stroke:#000000;stroke-width:0.8;" x="108" xlink:href="#mf29efa8f1e" y="250.480734"/>
      </g>
     </g>
     <g id="text_8">
      <!-- 0.0 -->
      <g transform="translate(48.5 264.823078)scale(0.42 -0.42)">
       <use xlink:href="#STIXGeneral-Regular-48"/>
       <use x="49.999985" xlink:href="#STIXGeneral-Regular-46"/>
       <use x="74.999969" xlink:href="#STIXGeneral-Regular-48"/>
      </g>
     </g>
    </g>
    <g id="ytick_6">
     <g id="line2d_16">
      <g>
       <use style="fill:#ffffff;stroke:#000000;stroke-width:0.8;" x="108" xlink:href="#mf29efa8f1e" y="215.251376"/>
      </g>
     </g>
     <g id="text_9">
      <!-- 2.5 -->
      <g transform="translate(48.5 229.59372)scale(0.42 -0.42)">
       <use xlink:href="#STIXGeneral-Regular-50"/>
       <use x="49.999985" xlink:href="#STIXGeneral-Regular-46"/>
       <use x="74.999969" xlink:href="#STIXGeneral-Regular-53"/>
      </g>
     </g>
    </g>
    <g id="text_10">
     <!-- Cp -->
     <g transform="translate(6.614688 274.98839)rotate(-90)scale(0.42 -0.42)">
      <use xlink:href="#STIXGeneral-Regular-67"/>
      <use x="66.699997" xlink:href="#STIXGeneral-Regular-112"/>
     </g>
    </g>
   </g>
   <g id="line2d_17">
    <path clip-path="url(#pe27c2ef56f)" d="M 130.909091 223.58481 
L 135.53719 238.55957 
L 140.165289 243.784067 
L 144.793388 246.467645 
L 149.421488 248.411949 
L 154.049587 249.86949 
L 158.677686 251.004564 
L 163.305785 251.943982 
L 167.933884 252.72953 
L 172.561983 253.416784 
L 177.190083 254.030681 
L 181.818182 254.596647 
L 186.446281 255.10827 
L 191.07438 255.58453 
L 195.702479 256.028377 
L 200.330579 256.437688 
L 204.958678 256.817419 
L 209.586777 257.16578 
L 214.214876 257.479585 
L 218.842975 257.752628 
L 223.471074 257.985319 
L 228.099174 258.167162 
L 232.727273 258.304849 
L 237.355372 258.38388 
L 241.983471 258.412589 
L 246.61157 258.378242 
L 251.239669 258.291885 
L 255.867769 258.149295 
L 260.495868 257.961282 
L 265.123967 257.730634 
L 269.752066 257.465985 
L 274.380165 257.176986 
L 279.008264 256.880321 
L 283.636364 256.588607 
L 288.264463 256.306393 
L 292.892562 256.035395 
L 297.520661 255.780399 
L 302.14876 255.542409 
L 306.77686 255.32745 
L 311.404959 255.131722 
L 316.033058 254.957578 
L 320.661157 254.797821 
L 325.289256 254.65129 
L 329.917355 254.516688 
L 334.545455 254.397686 
L 339.173554 254.291375 
L 343.801653 254.170454 
L 348.429752 254.104541 
L 353.057851 254.017663 
L 357.68595 253.934567 
L 362.31405 253.85472 
L 366.942149 253.780035 
L 371.570248 253.710719 
L 376.198347 253.646156 
L 380.826446 253.585289 
L 385.454545 253.530423 
L 390.082645 253.483146 
L 394.710744 253.444165 
L 399.338843 253.410313 
L 403.966942 253.377601 
L 408.595041 253.344214 
L 413.22314 253.308055 
L 417.85124 253.270203 
L 422.479339 253.233535 
L 427.107438 253.200002 
L 431.735537 253.172541 
L 436.363636 253.158075 
L 440.991736 253.159234 
L 445.619835 253.181134 
L 450.247934 253.221915 
L 454.876033 253.286832 
L 459.504132 253.372333 
L 464.132231 253.483471 
L 468.760331 253.616883 
L 473.38843 253.778597 
L 478.016529 253.969104 
L 482.644628 254.197125 
L 487.272727 254.474267 
L 491.900826 254.816972 
L 496.528926 255.244265 
L 501.157025 255.770118 
L 505.785124 256.421249 
L 510.413223 257.202564 
L 515.041322 258.148452 
L 519.669421 259.243089 
L 524.297521 260.533132 
L 528.92562 261.993124 
L 533.553719 263.673258 
L 538.181818 265.53968 
L 542.809917 267.587517 
L 547.438017 269.707618 
L 552.066116 271.697532 
L 556.694215 273.281545 
L 561.322314 273.843646 
L 565.950413 272.887818 
L 570.578512 270.238976 
L 575.206612 267.061531 
L 579.834711 263.241532 
L 584.46281 258.198812 
L 589.090909 256.42449 
" style="fill:none;stroke:#1f77b4;stroke-linecap:square;stroke-width:8;"/>
   </g>
   <g id="line2d_18">
    <path clip-path="url(#pe27c2ef56f)" d="M 108 250.480734 
L 612 250.480734 
" style="fill:none;stroke:#000000;stroke-dasharray:3.2,0.8,0.5,0.8;stroke-dashoffset:0;stroke-width:0.5;"/>
   </g>
   <g id="patch_8">
    <path d="M 108 292.755963 
L 108 208.205505 
" style="fill:none;stroke:#000000;stroke-linecap:square;stroke-linejoin:miter;stroke-width:0.8;"/>
   </g>
   <g id="patch_9">
    <path d="M 612 292.755963 
L 612 208.205505 
" style="fill:none;stroke:#000000;stroke-linecap:square;stroke-linejoin:miter;stroke-width:0.8;"/>
   </g>
   <g id="patch_10">
    <path d="M 108 292.755963 
L 612 292.755963 
" style="fill:none;stroke:#000000;stroke-linecap:square;stroke-linejoin:miter;stroke-width:0.8;"/>
   </g>
   <g id="patch_11">
    <path d="M 108 208.205505 
L 612 208.205505 
" style="fill:none;stroke:#000000;stroke-linecap:square;stroke-linejoin:miter;stroke-width:0.8;"/>
   </g>
   <g id="text_11">
    <!-- $\^t = 0.10$ -->
    <g transform="translate(599.19 260.265421)scale(0.42 -0.42)">
     <defs>
      <path d="M 39.40625 0 
L 11.796875 0 
L 11.796875 1.5 
Q 17.296875 1.796875 19.296875 3.546875 
Q 21.296875 5.296875 21.296875 9.5 
L 21.296875 54.40625 
Q 21.296875 59.296875 18.296875 59.296875 
Q 16.90625 59.296875 13.796875 58.09375 
L 11.09375 57.09375 
L 11.09375 58.5 
L 29 67.59375 
L 29.90625 67.296875 
L 29.90625 7.59375 
Q 29.90625 4.296875 31.90625 2.890625 
Q 33.90625 1.5 39.40625 1.5 
z
" id="STIXGeneral-Regular-49"/>
     </defs>
     <use transform="translate(39.042969 16.59375)" xlink:href="#STIXGeneral-Regular-770"/>
     <use transform="translate(0 0.203125)" xlink:href="#STIXGeneral-Italic-116"/>
     <use transform="translate(42.239984 0.203125)" xlink:href="#STIXGeneral-Regular-61"/>
     <use transform="translate(125.179965 0.203125)" xlink:href="#STIXGeneral-Regular-48"/>
     <use transform="translate(175.17995 0.203125)" xlink:href="#STIXGeneral-Regular-46"/>
     <use transform="translate(200.179935 0.203125)" xlink:href="#STIXGeneral-Regular-49"/>
     <use transform="translate(250.179919 0.203125)" xlink:href="#STIXGeneral-Regular-48"/>
    </g>
   </g>
  </g>
  <g id="axes_3">
   <g id="patch_12">
    <path d="M 108 385.761468 
L 612 385.761468 
L 612 301.211009 
L 108 301.211009 
z
" style="fill:#ffffff;"/>
   </g>
   <g id="matplotlib.axis_5">
    <g id="xtick_7">
     <g id="line2d_19">
      <g>
       <use style="fill:#ffffff;stroke:#000000;stroke-width:0.8;" x="130.909091" xlink:href="#m1c16f65f7b" y="385.761468"/>
      </g>
     </g>
    </g>
    <g id="xtick_8">
     <g id="line2d_20">
      <g>
       <use style="fill:#ffffff;stroke:#000000;stroke-width:0.8;" x="360" xlink:href="#m1c16f65f7b" y="385.761468"/>
      </g>
     </g>
    </g>
    <g id="xtick_9">
     <g id="line2d_21">
      <g>
       <use style="fill:#ffffff;stroke:#000000;stroke-width:0.8;" x="589.090909" xlink:href="#m1c16f65f7b" y="385.761468"/>
      </g>
     </g>
    </g>
   </g>
   <g id="matplotlib.axis_6">
    <g id="ytick_7">
     <g id="line2d_22">
      <g>
       <use style="fill:#ffffff;stroke:#000000;stroke-width:0.8;" x="108" xlink:href="#mf29efa8f1e" y="378.715596"/>
      </g>
     </g>
     <g id="text_12">
      <!-- −2.5 -->
      <g transform="translate(19.73 393.05794)scale(0.42 -0.42)">
       <use xlink:href="#STIXGeneral-Regular-8722"/>
       <use x="68.499985" xlink:href="#STIXGeneral-Regular-50"/>
       <use x="118.499969" xlink:href="#STIXGeneral-Regular-46"/>
       <use x="143.499954" xlink:href="#STIXGeneral-Regular-53"/>
      </g>
     </g>
    </g>
    <g id="ytick_8">
     <g id="line2d_23">
      <g>
       <use style="fill:#ffffff;stroke:#000000;stroke-width:0.8;" x="108" xlink:href="#mf29efa8f1e" y="343.486239"/>
      </g>
     </g>
     <g id="text_13">
      <!-- 0.0 -->
      <g transform="translate(48.5 357.828582)scale(0.42 -0.42)">
       <use xlink:href="#STIXGeneral-Regular-48"/>
       <use x="49.999985" xlink:href="#STIXGeneral-Regular-46"/>
       <use x="74.999969" xlink:href="#STIXGeneral-Regular-48"/>
      </g>
     </g>
    </g>
    <g id="ytick_9">
     <g id="line2d_24">
      <g>
       <use style="fill:#ffffff;stroke:#000000;stroke-width:0.8;" x="108" xlink:href="#mf29efa8f1e" y="308.256881"/>
      </g>
     </g>
     <g id="text_14">
      <!-- 2.5 -->
      <g transform="translate(48.5 322.599224)scale(0.42 -0.42)">
       <use xlink:href="#STIXGeneral-Regular-50"/>
       <use x="49.999985" xlink:href="#STIXGeneral-Regular-46"/>
       <use x="74.999969" xlink:href="#STIXGeneral-Regular-53"/>
      </g>
     </g>
    </g>
    <g id="text_15">
     <!-- Cp -->
     <g transform="translate(6.614688 367.993895)rotate(-90)scale(0.42 -0.42)">
      <use xlink:href="#STIXGeneral-Regular-67"/>
      <use x="66.699997" xlink:href="#STIXGeneral-Regular-112"/>
     </g>
    </g>
   </g>
   <g id="line2d_25">
    <path clip-path="url(#p569389ceb0)" d="M 130.909091 327.804524 
L 135.53719 301.034459 
L 140.165289 302.463062 
L 144.793388 304.614638 
L 149.421488 307.543041 
L 154.049587 310.171194 
L 158.677686 312.554748 
L 163.305785 314.798623 
L 167.933884 316.909524 
L 172.561983 318.858894 
L 177.190083 320.670843 
L 181.818182 322.382476 
L 186.446281 324.000051 
L 191.07438 325.527383 
L 195.702479 326.958064 
L 200.330579 328.307882 
L 204.958678 329.592444 
L 209.586777 330.809534 
L 214.214876 331.959257 
L 218.842975 333.041401 
L 223.471074 334.069396 
L 228.099174 335.037589 
L 232.727273 335.958224 
L 237.355372 336.823484 
L 241.983471 337.645616 
L 246.61157 338.417929 
L 251.239669 339.151444 
L 255.867769 339.843029 
L 260.495868 340.498432 
L 265.123967 341.117066 
L 269.752066 341.702741 
L 274.380165 342.256285 
L 279.008264 342.779172 
L 283.636364 343.273602 
L 288.264463 343.739572 
L 292.892562 344.182383 
L 297.520661 344.600143 
L 302.14876 344.998291 
L 306.77686 345.374333 
L 311.404959 345.733597 
L 316.033058 346.073332 
L 320.661157 346.397506 
L 325.289256 346.703904 
L 329.917355 346.995686 
L 334.545455 347.272567 
L 339.173554 347.536381 
L 343.801653 347.852399 
L 348.429752 348.02936 
L 353.057851 348.260966 
L 357.68595 348.483174 
L 362.31405 348.697194 
L 366.942149 348.902453 
L 371.570248 349.099994 
L 376.198347 349.288341 
L 380.826446 349.469724 
L 385.454545 349.643025 
L 390.082645 349.810255 
L 394.710744 349.971792 
L 399.338843 350.12905 
L 403.966942 350.281665 
L 408.595041 350.430595 
L 413.22314 350.575536 
L 417.85124 350.716722 
L 422.479339 350.85445 
L 427.107438 350.989799 
L 431.735537 351.123056 
L 436.363636 351.253497 
L 440.991736 351.382222 
L 445.619835 351.50974 
L 450.247934 351.636439 
L 454.876033 351.761773 
L 459.504132 351.885204 
L 464.132231 352.005874 
L 468.760331 352.122704 
L 473.38843 352.232585 
L 478.016529 352.334213 
L 482.644628 352.42456 
L 487.272727 352.503936 
L 491.900826 352.573677 
L 496.528926 352.634429 
L 501.157025 352.686985 
L 505.785124 352.730591 
L 510.413223 352.765957 
L 515.041322 352.792726 
L 519.669421 352.813317 
L 524.297521 352.82737 
L 528.92562 352.836415 
L 533.553719 352.839775 
L 538.181818 352.838394 
L 542.809917 352.832571 
L 547.438017 352.823104 
L 552.066116 352.805834 
L 556.694215 352.790994 
L 561.322314 352.73763 
L 565.950413 352.706914 
L 570.578512 352.643781 
L 575.206612 352.635101 
L 579.834711 352.548957 
L 584.46281 352.25041 
L 589.090909 351.965522 
" style="fill:none;stroke:#1f77b4;stroke-linecap:square;stroke-width:8;"/>
   </g>
   <g id="line2d_26">
    <path clip-path="url(#p569389ceb0)" d="M 108 343.486239 
L 612 343.486239 
" style="fill:none;stroke:#000000;stroke-dasharray:3.2,0.8,0.5,0.8;stroke-dashoffset:0;stroke-width:0.5;"/>
   </g>
   <g id="patch_13">
    <path d="M 108 385.761468 
L 108 301.211009 
" style="fill:none;stroke:#000000;stroke-linecap:square;stroke-linejoin:miter;stroke-width:0.8;"/>
   </g>
   <g id="patch_14">
    <path d="M 612 385.761468 
L 612 301.211009 
" style="fill:none;stroke:#000000;stroke-linecap:square;stroke-linejoin:miter;stroke-width:0.8;"/>
   </g>
   <g id="patch_15">
    <path d="M 108 385.761468 
L 612 385.761468 
" style="fill:none;stroke:#000000;stroke-linecap:square;stroke-linejoin:miter;stroke-width:0.8;"/>
   </g>
   <g id="patch_16">
    <path d="M 108 301.211009 
L 612 301.211009 
" style="fill:none;stroke:#000000;stroke-linecap:square;stroke-linejoin:miter;stroke-width:0.8;"/>
   </g>
   <g id="text_16">
    <!-- $\^t = 0.15$ -->
    <g transform="translate(599.19 353.270926)scale(0.42 -0.42)">
     <use transform="translate(39.042969 16.59375)" xlink:href="#STIXGeneral-Regular-770"/>
     <use transform="translate(0 0.203125)" xlink:href="#STIXGeneral-Italic-116"/>
     <use transform="translate(42.239984 0.203125)" xlink:href="#STIXGeneral-Regular-61"/>
     <use transform="translate(125.179965 0.203125)" xlink:href="#STIXGeneral-Regular-48"/>
     <use transform="translate(175.17995 0.203125)" xlink:href="#STIXGeneral-Regular-46"/>
     <use transform="translate(200.179935 0.203125)" xlink:href="#STIXGeneral-Regular-49"/>
     <use transform="translate(250.179919 0.203125)" xlink:href="#STIXGeneral-Regular-53"/>
    </g>
   </g>
  </g>
  <g id="axes_4">
   <g id="patch_17">
    <path d="M 108 478.766972 
L 612 478.766972 
L 612 394.216514 
L 108 394.216514 
z
" style="fill:#ffffff;"/>
   </g>
   <g id="matplotlib.axis_7">
    <g id="xtick_10">
     <g id="line2d_27">
      <g>
       <use style="fill:#ffffff;stroke:#000000;stroke-width:0.8;" x="130.909091" xlink:href="#m1c16f65f7b" y="478.766972"/>
      </g>
     </g>
    </g>
    <g id="xtick_11">
     <g id="line2d_28">
      <g>
       <use style="fill:#ffffff;stroke:#000000;stroke-width:0.8;" x="360" xlink:href="#m1c16f65f7b" y="478.766972"/>
      </g>
     </g>
    </g>
    <g id="xtick_12">
     <g id="line2d_29">
      <g>
       <use style="fill:#ffffff;stroke:#000000;stroke-width:0.8;" x="589.090909" xlink:href="#m1c16f65f7b" y="478.766972"/>
      </g>
     </g>
    </g>
   </g>
   <g id="matplotlib.axis_8">
    <g id="ytick_10">
     <g id="line2d_30">
      <g>
       <use style="fill:#ffffff;stroke:#000000;stroke-width:0.8;" x="108" xlink:href="#mf29efa8f1e" y="471.721101"/>
      </g>
     </g>
     <g id="text_17">
      <!-- −2.5 -->
      <g transform="translate(19.73 486.063445)scale(0.42 -0.42)">
       <use xlink:href="#STIXGeneral-Regular-8722"/>
       <use x="68.499985" xlink:href="#STIXGeneral-Regular-50"/>
       <use x="118.499969" xlink:href="#STIXGeneral-Regular-46"/>
       <use x="143.499954" xlink:href="#STIXGeneral-Regular-53"/>
      </g>
     </g>
    </g>
    <g id="ytick_11">
     <g id="line2d_31">
      <g>
       <use style="fill:#ffffff;stroke:#000000;stroke-width:0.8;" x="108" xlink:href="#mf29efa8f1e" y="436.491743"/>
      </g>
     </g>
     <g id="text_18">
      <!-- 0.0 -->
      <g transform="translate(48.5 450.834087)scale(0.42 -0.42)">
       <use xlink:href="#STIXGeneral-Regular-48"/>
       <use x="49.999985" xlink:href="#STIXGeneral-Regular-46"/>
       <use x="74.999969" xlink:href="#STIXGeneral-Regular-48"/>
      </g>
     </g>
    </g>
    <g id="ytick_12">
     <g id="line2d_32">
      <g>
       <use style="fill:#ffffff;stroke:#000000;stroke-width:0.8;" x="108" xlink:href="#mf29efa8f1e" y="401.262385"/>
      </g>
     </g>
     <g id="text_19">
      <!-- 2.5 -->
      <g transform="translate(48.5 415.604729)scale(0.42 -0.42)">
       <use xlink:href="#STIXGeneral-Regular-50"/>
       <use x="49.999985" xlink:href="#STIXGeneral-Regular-46"/>
       <use x="74.999969" xlink:href="#STIXGeneral-Regular-53"/>
      </g>
     </g>
    </g>
    <g id="text_20">
     <!-- Cp -->
     <g transform="translate(6.614688 460.999399)rotate(-90)scale(0.42 -0.42)">
      <use xlink:href="#STIXGeneral-Regular-67"/>
      <use x="66.699997" xlink:href="#STIXGeneral-Regular-112"/>
     </g>
    </g>
   </g>
   <g id="line2d_33">
    <path clip-path="url(#pec3756c46c)" d="M 130.909091 435.873538 
L 135.53719 425.6088 
L 140.165289 425.664455 
L 144.793388 425.863315 
L 149.421488 426.329142 
L 154.049587 426.754869 
L 158.677686 427.13778 
L 163.305785 427.484092 
L 167.933884 427.798105 
L 172.561983 428.084189 
L 177.190083 428.345796 
L 181.818182 428.588949 
L 186.446281 428.811898 
L 191.07438 429.027872 
L 195.702479 429.235392 
L 200.330579 429.427226 
L 204.958678 429.607409 
L 209.586777 429.778398 
L 214.214876 429.941646 
L 218.842975 430.097275 
L 223.471074 430.248008 
L 228.099174 430.392021 
L 232.727273 430.530702 
L 237.355372 430.663592 
L 241.983471 430.792112 
L 246.61157 430.915342 
L 251.239669 431.034193 
L 255.867769 431.148149 
L 260.495868 431.258025 
L 265.123967 431.363918 
L 269.752066 431.465746 
L 274.380165 431.563731 
L 279.008264 431.657617 
L 283.636364 431.748057 
L 288.264463 431.835735 
L 292.892562 431.921659 
L 297.520661 432.005658 
L 302.14876 432.088272 
L 306.77686 432.169214 
L 311.404959 432.248655 
L 316.033058 432.326901 
L 320.661157 432.403628 
L 325.289256 432.478871 
L 329.917355 432.552541 
L 334.545455 432.625312 
L 339.173554 432.697602 
L 343.801653 432.788498 
L 348.429752 432.843051 
L 353.057851 432.916111 
L 357.68595 432.989222 
L 362.31405 433.062308 
L 366.942149 433.135452 
L 371.570248 433.208021 
L 376.198347 433.279994 
L 380.826446 433.350732 
L 385.454545 433.420602 
L 390.082645 433.489898 
L 394.710744 433.559029 
L 399.338843 433.627705 
L 403.966942 433.696148 
L 408.595041 433.763963 
L 413.22314 433.830968 
L 417.85124 433.896753 
L 422.479339 433.959992 
L 427.107438 434.020885 
L 431.735537 434.07875 
L 436.363636 434.133218 
L 440.991736 434.184983 
L 445.619835 434.233533 
L 450.247934 434.279907 
L 454.876033 434.323374 
L 459.504132 434.363966 
L 464.132231 434.400718 
L 468.760331 434.433584 
L 473.38843 434.461089 
L 478.016529 434.483906 
L 482.644628 434.500358 
L 487.272727 434.510261 
L 491.900826 434.514432 
L 496.528926 434.51291 
L 501.157025 434.50689 
L 505.785124 434.496561 
L 510.413223 434.482168 
L 515.041322 434.463875 
L 519.669421 434.442505 
L 524.297521 434.417149 
L 528.92562 434.390949 
L 533.553719 434.365723 
L 538.181818 434.344152 
L 542.809917 434.334733 
L 547.438017 434.342647 
L 552.066116 434.381679 
L 556.694215 434.447496 
L 561.322314 434.583653 
L 565.950413 434.877365 
L 570.578512 435.374654 
L 575.206612 435.512467 
L 579.834711 435.697367 
L 584.46281 437.379559 
L 589.090909 439.175938 
" style="fill:none;stroke:#1f77b4;stroke-linecap:square;stroke-width:8;"/>
   </g>
   <g id="line2d_34">
    <path clip-path="url(#pec3756c46c)" d="M 108 436.491743 
L 612 436.491743 
" style="fill:none;stroke:#000000;stroke-dasharray:3.2,0.8,0.5,0.8;stroke-dashoffset:0;stroke-width:0.5;"/>
   </g>
   <g id="patch_18">
    <path d="M 108 478.766972 
L 108 394.216514 
" style="fill:none;stroke:#000000;stroke-linecap:square;stroke-linejoin:miter;stroke-width:0.8;"/>
   </g>
   <g id="patch_19">
    <path d="M 612 478.766972 
L 612 394.216514 
" style="fill:none;stroke:#000000;stroke-linecap:square;stroke-linejoin:miter;stroke-width:0.8;"/>
   </g>
   <g id="patch_20">
    <path d="M 108 478.766972 
L 612 478.766972 
" style="fill:none;stroke:#000000;stroke-linecap:square;stroke-linejoin:miter;stroke-width:0.8;"/>
   </g>
   <g id="patch_21">
    <path d="M 108 394.216514 
L 612 394.216514 
" style="fill:none;stroke:#000000;stroke-linecap:square;stroke-linejoin:miter;stroke-width:0.8;"/>
   </g>
   <g id="text_21">
    <!-- $\^t = 0.20$ -->
    <g transform="translate(599.19 446.276431)scale(0.42 -0.42)">
     <use transform="translate(39.042969 16.59375)" xlink:href="#STIXGeneral-Regular-770"/>
     <use transform="translate(0 0.203125)" xlink:href="#STIXGeneral-Italic-116"/>
     <use transform="translate(42.239984 0.203125)" xlink:href="#STIXGeneral-Regular-61"/>
     <use transform="translate(125.179965 0.203125)" xlink:href="#STIXGeneral-Regular-48"/>
     <use transform="translate(175.17995 0.203125)" xlink:href="#STIXGeneral-Regular-46"/>
     <use transform="translate(200.179935 0.203125)" xlink:href="#STIXGeneral-Regular-50"/>
     <use transform="translate(250.179919 0.203125)" xlink:href="#STIXGeneral-Regular-48"/>
    </g>
   </g>
  </g>
  <g id="axes_5">
   <g id="patch_22">
    <path d="M 108 571.772477 
L 612 571.772477 
L 612 487.222018 
L 108 487.222018 
z
" style="fill:#ffffff;"/>
   </g>
   <g id="matplotlib.axis_9">
    <g id="xtick_13">
     <g id="line2d_35">
      <g>
       <use style="fill:#ffffff;stroke:#000000;stroke-width:0.8;" x="130.909091" xlink:href="#m1c16f65f7b" y="571.772477"/>
      </g>
     </g>
    </g>
    <g id="xtick_14">
     <g id="line2d_36">
      <g>
       <use style="fill:#ffffff;stroke:#000000;stroke-width:0.8;" x="360" xlink:href="#m1c16f65f7b" y="571.772477"/>
      </g>
     </g>
    </g>
    <g id="xtick_15">
     <g id="line2d_37">
      <g>
       <use style="fill:#ffffff;stroke:#000000;stroke-width:0.8;" x="589.090909" xlink:href="#m1c16f65f7b" y="571.772477"/>
      </g>
     </g>
    </g>
   </g>
   <g id="matplotlib.axis_10">
    <g id="ytick_13">
     <g id="line2d_38">
      <g>
       <use style="fill:#ffffff;stroke:#000000;stroke-width:0.8;" x="108" xlink:href="#mf29efa8f1e" y="564.726606"/>
      </g>
     </g>
     <g id="text_22">
      <!-- −2.5 -->
      <g transform="translate(19.73 579.068949)scale(0.42 -0.42)">
       <use xlink:href="#STIXGeneral-Regular-8722"/>
       <use x="68.499985" xlink:href="#STIXGeneral-Regular-50"/>
       <use x="118.499969" xlink:href="#STIXGeneral-Regular-46"/>
       <use x="143.499954" xlink:href="#STIXGeneral-Regular-53"/>
      </g>
     </g>
    </g>
    <g id="ytick_14">
     <g id="line2d_39">
      <g>
       <use style="fill:#ffffff;stroke:#000000;stroke-width:0.8;" x="108" xlink:href="#mf29efa8f1e" y="529.497248"/>
      </g>
     </g>
     <g id="text_23">
      <!-- 0.0 -->
      <g transform="translate(48.5 543.839591)scale(0.42 -0.42)">
       <use xlink:href="#STIXGeneral-Regular-48"/>
       <use x="49.999985" xlink:href="#STIXGeneral-Regular-46"/>
       <use x="74.999969" xlink:href="#STIXGeneral-Regular-48"/>
      </g>
     </g>
    </g>
    <g id="ytick_15">
     <g id="line2d_40">
      <g>
       <use style="fill:#ffffff;stroke:#000000;stroke-width:0.8;" x="108" xlink:href="#mf29efa8f1e" y="494.26789"/>
      </g>
     </g>
     <g id="text_24">
      <!-- 2.5 -->
      <g transform="translate(48.5 508.610234)scale(0.42 -0.42)">
       <use xlink:href="#STIXGeneral-Regular-50"/>
       <use x="49.999985" xlink:href="#STIXGeneral-Regular-46"/>
       <use x="74.999969" xlink:href="#STIXGeneral-Regular-53"/>
      </g>
     </g>
    </g>
    <g id="text_25">
     <!-- Cp -->
     <g transform="translate(6.614688 554.004904)rotate(-90)scale(0.42 -0.42)">
      <use xlink:href="#STIXGeneral-Regular-67"/>
      <use x="66.699997" xlink:href="#STIXGeneral-Regular-112"/>
     </g>
    </g>
   </g>
   <g id="line2d_41">
    <path clip-path="url(#pcd711cb2f1)" d="M 130.909091 521.007677 
L 135.53719 517.400959 
L 140.165289 517.993576 
L 144.793388 518.399875 
L 149.421488 518.902222 
L 154.049587 519.349432 
L 158.677686 519.721793 
L 163.305785 520.09866 
L 167.933884 520.431031 
L 172.561983 520.737249 
L 177.190083 521.023432 
L 181.818182 521.29571 
L 186.446281 521.553849 
L 191.07438 521.802675 
L 195.702479 522.047508 
L 200.330579 522.281337 
L 204.958678 522.507061 
L 209.586777 522.726351 
L 214.214876 522.941855 
L 218.842975 523.15273 
L 223.471074 523.359791 
L 228.099174 523.56138 
L 232.727273 523.759527 
L 237.355372 523.95309 
L 241.983471 524.143641 
L 246.61157 524.330292 
L 251.239669 524.514098 
L 255.867769 524.694381 
L 260.495868 524.871509 
L 265.123967 525.04538 
L 269.752066 525.215691 
L 274.380165 525.382653 
L 279.008264 525.546041 
L 283.636364 525.705918 
L 288.264463 525.862124 
L 292.892562 526.015136 
L 297.520661 526.164852 
L 302.14876 526.311228 
L 306.77686 526.453734 
L 311.404959 526.59283 
L 316.033058 526.727643 
L 320.661157 526.858614 
L 325.289256 526.985313 
L 329.917355 527.108184 
L 334.545455 527.227043 
L 339.173554 527.342191 
L 343.801653 527.481621 
L 348.429752 527.56012 
L 353.057851 527.663105 
L 357.68595 527.76174 
L 362.31405 527.855936 
L 366.942149 527.944151 
L 371.570248 528.027345 
L 376.198347 528.104356 
L 380.826446 528.176461 
L 385.454545 528.242035 
L 390.082645 528.301983 
L 394.710744 528.354885 
L 399.338843 528.40113 
L 403.966942 528.440323 
L 408.595041 528.47357 
L 413.22314 528.500291 
L 417.85124 528.520061 
L 422.479339 528.532148 
L 427.107438 528.536237 
L 431.735537 528.532275 
L 436.363636 528.519438 
L 440.991736 528.498493 
L 445.619835 528.467526 
L 450.247934 528.427666 
L 454.876033 528.376205 
L 459.504132 528.314634 
L 464.132231 528.241225 
L 468.760331 528.157637 
L 473.38843 528.062081 
L 478.016529 527.954862 
L 482.644628 527.83427 
L 487.272727 527.700596 
L 491.900826 527.552944 
L 496.528926 527.39016 
L 501.157025 527.212414 
L 505.785124 527.018084 
L 510.413223 526.808208 
L 515.041322 526.579464 
L 519.669421 526.332862 
L 524.297521 526.06331 
L 528.92562 525.774465 
L 533.553719 525.460016 
L 538.181818 525.122775 
L 542.809917 524.755887 
L 547.438017 524.358255 
L 552.066116 523.919099 
L 556.694215 523.437286 
L 561.322314 522.896846 
L 565.950413 522.284362 
L 570.578512 521.553803 
L 575.206612 520.747253 
L 579.834711 519.72053 
L 584.46281 517.848771 
L 589.090909 514.314945 
" style="fill:none;stroke:#1f77b4;stroke-linecap:square;stroke-width:8;"/>
   </g>
   <g id="line2d_42">
    <path clip-path="url(#pcd711cb2f1)" d="M 108 529.497248 
L 612 529.497248 
" style="fill:none;stroke:#000000;stroke-dasharray:3.2,0.8,0.5,0.8;stroke-dashoffset:0;stroke-width:0.5;"/>
   </g>
   <g id="patch_23">
    <path d="M 108 571.772477 
L 108 487.222018 
" style="fill:none;stroke:#000000;stroke-linecap:square;stroke-linejoin:miter;stroke-width:0.8;"/>
   </g>
   <g id="patch_24">
    <path d="M 612 571.772477 
L 612 487.222018 
" style="fill:none;stroke:#000000;stroke-linecap:square;stroke-linejoin:miter;stroke-width:0.8;"/>
   </g>
   <g id="patch_25">
    <path d="M 108 571.772477 
L 612 571.772477 
" style="fill:none;stroke:#000000;stroke-linecap:square;stroke-linejoin:miter;stroke-width:0.8;"/>
   </g>
   <g id="patch_26">
    <path d="M 108 487.222018 
L 612 487.222018 
" style="fill:none;stroke:#000000;stroke-linecap:square;stroke-linejoin:miter;stroke-width:0.8;"/>
   </g>
   <g id="text_26">
    <!-- $\^t = 0.25$ -->
    <g transform="translate(599.19 539.281935)scale(0.42 -0.42)">
     <use transform="translate(39.042969 16.59375)" xlink:href="#STIXGeneral-Regular-770"/>
     <use transform="translate(0 0.203125)" xlink:href="#STIXGeneral-Italic-116"/>
     <use transform="translate(42.239984 0.203125)" xlink:href="#STIXGeneral-Regular-61"/>
     <use transform="translate(125.179965 0.203125)" xlink:href="#STIXGeneral-Regular-48"/>
     <use transform="translate(175.17995 0.203125)" xlink:href="#STIXGeneral-Regular-46"/>
     <use transform="translate(200.179935 0.203125)" xlink:href="#STIXGeneral-Regular-50"/>
     <use transform="translate(250.179919 0.203125)" xlink:href="#STIXGeneral-Regular-53"/>
    </g>
   </g>
  </g>
  <g id="axes_6">
   <g id="patch_27">
    <path d="M 108 664.777982 
L 612 664.777982 
L 612 580.227523 
L 108 580.227523 
z
" style="fill:#ffffff;"/>
   </g>
   <g id="matplotlib.axis_11">
    <g id="xtick_16">
     <g id="line2d_43">
      <g>
       <use style="fill:#ffffff;stroke:#000000;stroke-width:0.8;" x="130.909091" xlink:href="#m1c16f65f7b" y="664.777982"/>
      </g>
     </g>
    </g>
    <g id="xtick_17">
     <g id="line2d_44">
      <g>
       <use style="fill:#ffffff;stroke:#000000;stroke-width:0.8;" x="360" xlink:href="#m1c16f65f7b" y="664.777982"/>
      </g>
     </g>
    </g>
    <g id="xtick_18">
     <g id="line2d_45">
      <g>
       <use style="fill:#ffffff;stroke:#000000;stroke-width:0.8;" x="589.090909" xlink:href="#m1c16f65f7b" y="664.777982"/>
      </g>
     </g>
    </g>
   </g>
   <g id="matplotlib.axis_12">
    <g id="ytick_16">
     <g id="line2d_46">
      <g>
       <use style="fill:#ffffff;stroke:#000000;stroke-width:0.8;" x="108" xlink:href="#mf29efa8f1e" y="657.73211"/>
      </g>
     </g>
     <g id="text_27">
      <!-- −2.5 -->
      <g transform="translate(19.73 672.074454)scale(0.42 -0.42)">
       <use xlink:href="#STIXGeneral-Regular-8722"/>
       <use x="68.499985" xlink:href="#STIXGeneral-Regular-50"/>
       <use x="118.499969" xlink:href="#STIXGeneral-Regular-46"/>
       <use x="143.499954" xlink:href="#STIXGeneral-Regular-53"/>
      </g>
     </g>
    </g>
    <g id="ytick_17">
     <g id="line2d_47">
      <g>
       <use style="fill:#ffffff;stroke:#000000;stroke-width:0.8;" x="108" xlink:href="#mf29efa8f1e" y="622.502752"/>
      </g>
     </g>
     <g id="text_28">
      <!-- 0.0 -->
      <g transform="translate(48.5 636.845096)scale(0.42 -0.42)">
       <use xlink:href="#STIXGeneral-Regular-48"/>
       <use x="49.999985" xlink:href="#STIXGeneral-Regular-46"/>
       <use x="74.999969" xlink:href="#STIXGeneral-Regular-48"/>
      </g>
     </g>
    </g>
    <g id="ytick_18">
     <g id="line2d_48">
      <g>
       <use style="fill:#ffffff;stroke:#000000;stroke-width:0.8;" x="108" xlink:href="#mf29efa8f1e" y="587.273394"/>
      </g>
     </g>
     <g id="text_29">
      <!-- 2.5 -->
      <g transform="translate(48.5 601.615738)scale(0.42 -0.42)">
       <use xlink:href="#STIXGeneral-Regular-50"/>
       <use x="49.999985" xlink:href="#STIXGeneral-Regular-46"/>
       <use x="74.999969" xlink:href="#STIXGeneral-Regular-53"/>
      </g>
     </g>
    </g>
    <g id="text_30">
     <!-- Cp -->
     <g transform="translate(6.614688 647.010409)rotate(-90)scale(0.42 -0.42)">
      <use xlink:href="#STIXGeneral-Regular-67"/>
      <use x="66.699997" xlink:href="#STIXGeneral-Regular-112"/>
     </g>
    </g>
   </g>
   <g id="line2d_49">
    <path clip-path="url(#p0bdfa09a4c)" d="M 130.909091 587.763083 
L 135.53719 605.745933 
L 140.165289 610.658601 
L 144.793388 612.879596 
L 149.421488 614.40583 
L 154.049587 615.483231 
L 158.677686 616.262987 
L 163.305785 616.873217 
L 167.933884 617.353281 
L 172.561983 617.748969 
L 177.190083 618.071049 
L 181.818182 618.34246 
L 186.446281 618.570135 
L 191.07438 618.77111 
L 195.702479 618.943767 
L 200.330579 619.090282 
L 204.958678 619.215795 
L 209.586777 619.325821 
L 214.214876 619.423628 
L 218.842975 619.508986 
L 223.471074 619.583989 
L 228.099174 619.647182 
L 232.727273 619.701868 
L 237.355372 619.747473 
L 241.983471 619.786803 
L 246.61157 619.819284 
L 251.239669 619.846165 
L 255.867769 619.867027 
L 260.495868 619.882528 
L 265.123967 619.892974 
L 269.752066 619.898616 
L 274.380165 619.899551 
L 279.008264 619.896214 
L 283.636364 619.888943 
L 288.264463 619.878159 
L 292.892562 619.864417 
L 297.520661 619.84736 
L 302.14876 619.827659 
L 306.77686 619.804826 
L 311.404959 619.779947 
L 316.033058 619.752457 
L 320.661157 619.722638 
L 325.289256 619.689866 
L 329.917355 619.654553 
L 334.545455 619.61662 
L 339.173554 619.577197 
L 343.801653 619.525657 
L 348.429752 619.494449 
L 353.057851 619.451295 
L 357.68595 619.406755 
L 362.31405 619.361348 
L 366.942149 619.314727 
L 371.570248 619.266885 
L 376.198347 619.217556 
L 380.826446 619.166595 
L 385.454545 619.114617 
L 390.082645 619.062489 
L 394.710744 619.010699 
L 399.338843 618.959383 
L 403.966942 618.908867 
L 408.595041 618.859127 
L 413.22314 618.8098 
L 417.85124 618.760157 
L 422.479339 618.710249 
L 427.107438 618.659702 
L 431.735537 618.608938 
L 436.363636 618.557845 
L 440.991736 618.507053 
L 445.619835 618.456525 
L 450.247934 618.406616 
L 454.876033 618.357768 
L 459.504132 618.309287 
L 464.132231 618.260865 
L 468.760331 618.212255 
L 473.38843 618.16331 
L 478.016529 618.113944 
L 482.644628 618.063309 
L 487.272727 618.011405 
L 491.900826 617.958433 
L 496.528926 617.904407 
L 501.157025 617.849004 
L 505.785124 617.791329 
L 510.413223 617.730093 
L 515.041322 617.662834 
L 519.669421 617.58793 
L 524.297521 617.50234 
L 528.92562 617.406692 
L 533.553719 617.29537 
L 538.181818 617.167692 
L 542.809917 617.01603 
L 547.438017 616.836228 
L 552.066116 616.614978 
L 556.694215 616.34073 
L 561.322314 615.992486 
L 565.950413 615.553372 
L 570.578512 614.960239 
L 575.206612 614.14797 
L 579.834711 612.980776 
L 584.46281 610.872313 
L 589.090909 606.157458 
" style="fill:none;stroke:#1f77b4;stroke-linecap:square;stroke-width:8;"/>
   </g>
   <g id="line2d_50">
    <path clip-path="url(#p0bdfa09a4c)" d="M 108 622.502752 
L 612 622.502752 
" style="fill:none;stroke:#000000;stroke-dasharray:3.2,0.8,0.5,0.8;stroke-dashoffset:0;stroke-width:0.5;"/>
   </g>
   <g id="patch_28">
    <path d="M 108 664.777982 
L 108 580.227523 
" style="fill:none;stroke:#000000;stroke-linecap:square;stroke-linejoin:miter;stroke-width:0.8;"/>
   </g>
   <g id="patch_29">
    <path d="M 612 664.777982 
L 612 580.227523 
" style="fill:none;stroke:#000000;stroke-linecap:square;stroke-linejoin:miter;stroke-width:0.8;"/>
   </g>
   <g id="patch_30">
    <path d="M 108 664.777982 
L 612 664.777982 
" style="fill:none;stroke:#000000;stroke-linecap:square;stroke-linejoin:miter;stroke-width:0.8;"/>
   </g>
   <g id="patch_31">
    <path d="M 108 580.227523 
L 612 580.227523 
" style="fill:none;stroke:#000000;stroke-linecap:square;stroke-linejoin:miter;stroke-width:0.8;"/>
   </g>
   <g id="text_31">
    <!-- $\^t = 0.30$ -->
    <g transform="translate(599.19 632.28744)scale(0.42 -0.42)">
     <use transform="translate(39.042969 16.59375)" xlink:href="#STIXGeneral-Regular-770"/>
     <use transform="translate(0 0.203125)" xlink:href="#STIXGeneral-Italic-116"/>
     <use transform="translate(42.239984 0.203125)" xlink:href="#STIXGeneral-Regular-61"/>
     <use transform="translate(125.179965 0.203125)" xlink:href="#STIXGeneral-Regular-48"/>
     <use transform="translate(175.17995 0.203125)" xlink:href="#STIXGeneral-Regular-46"/>
     <use transform="translate(200.179935 0.203125)" xlink:href="#STIXGeneral-Regular-51"/>
     <use transform="translate(250.179919 0.203125)" xlink:href="#STIXGeneral-Regular-48"/>
    </g>
   </g>
  </g>
  <g id="axes_7">
   <g id="patch_32">
    <path d="M 108 757.783486 
L 612 757.783486 
L 612 673.233028 
L 108 673.233028 
z
" style="fill:#ffffff;"/>
   </g>
   <g id="matplotlib.axis_13">
    <g id="xtick_19">
     <g id="line2d_51">
      <g>
       <use style="fill:#ffffff;stroke:#000000;stroke-width:0.8;" x="130.909091" xlink:href="#m1c16f65f7b" y="757.783486"/>
      </g>
     </g>
    </g>
    <g id="xtick_20">
     <g id="line2d_52">
      <g>
       <use style="fill:#ffffff;stroke:#000000;stroke-width:0.8;" x="360" xlink:href="#m1c16f65f7b" y="757.783486"/>
      </g>
     </g>
    </g>
    <g id="xtick_21">
     <g id="line2d_53">
      <g>
       <use style="fill:#ffffff;stroke:#000000;stroke-width:0.8;" x="589.090909" xlink:href="#m1c16f65f7b" y="757.783486"/>
      </g>
     </g>
    </g>
   </g>
   <g id="matplotlib.axis_14">
    <g id="ytick_19">
     <g id="line2d_54">
      <g>
       <use style="fill:#ffffff;stroke:#000000;stroke-width:0.8;" x="108" xlink:href="#mf29efa8f1e" y="750.737615"/>
      </g>
     </g>
     <g id="text_32">
      <!-- −2.5 -->
      <g transform="translate(19.73 765.079958)scale(0.42 -0.42)">
       <use xlink:href="#STIXGeneral-Regular-8722"/>
       <use x="68.499985" xlink:href="#STIXGeneral-Regular-50"/>
       <use x="118.499969" xlink:href="#STIXGeneral-Regular-46"/>
       <use x="143.499954" xlink:href="#STIXGeneral-Regular-53"/>
      </g>
     </g>
    </g>
    <g id="ytick_20">
     <g id="line2d_55">
      <g>
       <use style="fill:#ffffff;stroke:#000000;stroke-width:0.8;" x="108" xlink:href="#mf29efa8f1e" y="715.508257"/>
      </g>
     </g>
     <g id="text_33">
      <!-- 0.0 -->
      <g transform="translate(48.5 729.850601)scale(0.42 -0.42)">
       <use xlink:href="#STIXGeneral-Regular-48"/>
       <use x="49.999985" xlink:href="#STIXGeneral-Regular-46"/>
       <use x="74.999969" xlink:href="#STIXGeneral-Regular-48"/>
      </g>
     </g>
    </g>
    <g id="ytick_21">
     <g id="line2d_56">
      <g>
       <use style="fill:#ffffff;stroke:#000000;stroke-width:0.8;" x="108" xlink:href="#mf29efa8f1e" y="680.278899"/>
      </g>
     </g>
     <g id="text_34">
      <!-- 2.5 -->
      <g transform="translate(48.5 694.621243)scale(0.42 -0.42)">
       <use xlink:href="#STIXGeneral-Regular-50"/>
       <use x="49.999985" xlink:href="#STIXGeneral-Regular-46"/>
       <use x="74.999969" xlink:href="#STIXGeneral-Regular-53"/>
      </g>
     </g>
    </g>
    <g id="text_35">
     <!-- Cp -->
     <g transform="translate(6.614688 740.015913)rotate(-90)scale(0.42 -0.42)">
      <use xlink:href="#STIXGeneral-Regular-67"/>
      <use x="66.699997" xlink:href="#STIXGeneral-Regular-112"/>
     </g>
    </g>
   </g>
   <g id="line2d_57">
    <path clip-path="url(#p7b87bcf5c9)" d="M 130.909091 691.783257 
L 135.53719 705.664403 
L 140.165289 709.090256 
L 144.793388 710.658165 
L 149.421488 711.734887 
L 154.049587 712.460209 
L 158.677686 713.005725 
L 163.305785 713.436567 
L 167.933884 713.778079 
L 172.561983 714.061511 
L 177.190083 714.296259 
L 181.818182 714.499027 
L 186.446281 714.672473 
L 191.07438 714.826837 
L 195.702479 714.965592 
L 200.330579 715.08709 
L 204.958678 715.195175 
L 209.586777 715.294403 
L 214.214876 715.385885 
L 218.842975 715.470271 
L 223.471074 715.54901 
L 228.099174 715.620724 
L 232.727273 715.687774 
L 237.355372 715.749844 
L 241.983471 715.808641 
L 246.61157 715.86406 
L 251.239669 715.916638 
L 255.867769 715.966065 
L 260.495868 716.013246 
L 265.123967 716.058051 
L 269.752066 716.100851 
L 274.380165 716.141966 
L 279.008264 716.181097 
L 283.636364 716.218665 
L 288.264463 716.254924 
L 292.892562 716.290347 
L 297.520661 716.324654 
L 302.14876 716.357996 
L 306.77686 716.390741 
L 311.404959 716.422667 
L 316.033058 716.453732 
L 320.661157 716.484092 
L 325.289256 716.513363 
L 329.917355 716.541761 
L 334.545455 716.569482 
L 339.173554 716.596775 
L 343.801653 716.630599 
L 348.429752 716.650548 
L 353.057851 716.677289 
L 357.68595 716.703675 
L 362.31405 716.729929 
L 366.942149 716.755993 
L 371.570248 716.781887 
L 376.198347 716.807051 
L 380.826446 716.831941 
L 385.454545 716.856828 
L 390.082645 716.881857 
L 394.710744 716.907137 
L 399.338843 716.932701 
L 403.966942 716.958351 
L 408.595041 716.984113 
L 413.22314 717.010043 
L 417.85124 717.036211 
L 422.479339 717.062219 
L 427.107438 717.087869 
L 431.735537 717.1132 
L 436.363636 717.138267 
L 440.991736 717.163089 
L 445.619835 717.188063 
L 450.247934 717.213725 
L 454.876033 717.240136 
L 459.504132 717.267358 
L 464.132231 717.29549 
L 468.760331 717.324077 
L 473.38843 717.35289 
L 478.016529 717.381773 
L 482.644628 717.410594 
L 487.272727 717.439419 
L 491.900826 717.468415 
L 496.528926 717.497952 
L 501.157025 717.528272 
L 505.785124 717.559399 
L 510.413223 717.590833 
L 515.041322 717.622636 
L 519.669421 717.655232 
L 524.297521 717.688229 
L 528.92562 717.720864 
L 533.553719 717.752656 
L 538.181818 717.783317 
L 542.809917 717.812308 
L 547.438017 717.839016 
L 552.066116 717.859805 
L 556.694215 717.877673 
L 561.322314 717.86572 
L 565.950413 717.848806 
L 570.578512 717.820689 
L 575.206612 717.835356 
L 579.834711 717.72506 
L 584.46281 717.424765 
L 589.090909 716.805966 
" style="fill:none;stroke:#1f77b4;stroke-linecap:square;stroke-width:8;"/>
   </g>
   <g id="line2d_58">
    <path clip-path="url(#p7b87bcf5c9)" d="M 108 715.508257 
L 612 715.508257 
" style="fill:none;stroke:#000000;stroke-dasharray:3.2,0.8,0.5,0.8;stroke-dashoffset:0;stroke-width:0.5;"/>
   </g>
   <g id="patch_33">
    <path d="M 108 757.783486 
L 108 673.233028 
" style="fill:none;stroke:#000000;stroke-linecap:square;stroke-linejoin:miter;stroke-width:0.8;"/>
   </g>
   <g id="patch_34">
    <path d="M 612 757.783486 
L 612 673.233028 
" style="fill:none;stroke:#000000;stroke-linecap:square;stroke-linejoin:miter;stroke-width:0.8;"/>
   </g>
   <g id="patch_35">
    <path d="M 108 757.783486 
L 612 757.783486 
" style="fill:none;stroke:#000000;stroke-linecap:square;stroke-linejoin:miter;stroke-width:0.8;"/>
   </g>
   <g id="patch_36">
    <path d="M 108 673.233028 
L 612 673.233028 
" style="fill:none;stroke:#000000;stroke-linecap:square;stroke-linejoin:miter;stroke-width:0.8;"/>
   </g>
   <g id="text_36">
    <!-- $\^t = 0.35$ -->
    <g transform="translate(599.19 725.292944)scale(0.42 -0.42)">
     <use transform="translate(39.042969 16.59375)" xlink:href="#STIXGeneral-Regular-770"/>
     <use transform="translate(0 0.203125)" xlink:href="#STIXGeneral-Italic-116"/>
     <use transform="translate(42.239984 0.203125)" xlink:href="#STIXGeneral-Regular-61"/>
     <use transform="translate(125.179965 0.203125)" xlink:href="#STIXGeneral-Regular-48"/>
     <use transform="translate(175.17995 0.203125)" xlink:href="#STIXGeneral-Regular-46"/>
     <use transform="translate(200.179935 0.203125)" xlink:href="#STIXGeneral-Regular-51"/>
     <use transform="translate(250.179919 0.203125)" xlink:href="#STIXGeneral-Regular-53"/>
    </g>
   </g>
  </g>
  <g id="axes_8">
   <g id="patch_37">
    <path d="M 108 850.788991 
L 612 850.788991 
L 612 766.238532 
L 108 766.238532 
z
" style="fill:#ffffff;"/>
   </g>
   <g id="matplotlib.axis_15">
    <g id="xtick_22">
     <g id="line2d_59">
      <g>
       <use style="fill:#ffffff;stroke:#000000;stroke-width:0.8;" x="130.909091" xlink:href="#m1c16f65f7b" y="850.788991"/>
      </g>
     </g>
    </g>
    <g id="xtick_23">
     <g id="line2d_60">
      <g>
       <use style="fill:#ffffff;stroke:#000000;stroke-width:0.8;" x="360" xlink:href="#m1c16f65f7b" y="850.788991"/>
      </g>
     </g>
    </g>
    <g id="xtick_24">
     <g id="line2d_61">
      <g>
       <use style="fill:#ffffff;stroke:#000000;stroke-width:0.8;" x="589.090909" xlink:href="#m1c16f65f7b" y="850.788991"/>
      </g>
     </g>
    </g>
   </g>
   <g id="matplotlib.axis_16">
    <g id="ytick_22">
     <g id="line2d_62">
      <g>
       <use style="fill:#ffffff;stroke:#000000;stroke-width:0.8;" x="108" xlink:href="#mf29efa8f1e" y="843.743119"/>
      </g>
     </g>
     <g id="text_37">
      <!-- −2.5 -->
      <g transform="translate(19.73 858.085463)scale(0.42 -0.42)">
       <use xlink:href="#STIXGeneral-Regular-8722"/>
       <use x="68.499985" xlink:href="#STIXGeneral-Regular-50"/>
       <use x="118.499969" xlink:href="#STIXGeneral-Regular-46"/>
       <use x="143.499954" xlink:href="#STIXGeneral-Regular-53"/>
      </g>
     </g>
    </g>
    <g id="ytick_23">
     <g id="line2d_63">
      <g>
       <use style="fill:#ffffff;stroke:#000000;stroke-width:0.8;" x="108" xlink:href="#mf29efa8f1e" y="808.513761"/>
      </g>
     </g>
     <g id="text_38">
      <!-- 0.0 -->
      <g transform="translate(48.5 822.856105)scale(0.42 -0.42)">
       <use xlink:href="#STIXGeneral-Regular-48"/>
       <use x="49.999985" xlink:href="#STIXGeneral-Regular-46"/>
       <use x="74.999969" xlink:href="#STIXGeneral-Regular-48"/>
      </g>
     </g>
    </g>
    <g id="ytick_24">
     <g id="line2d_64">
      <g>
       <use style="fill:#ffffff;stroke:#000000;stroke-width:0.8;" x="108" xlink:href="#mf29efa8f1e" y="773.284404"/>
      </g>
     </g>
     <g id="text_39">
      <!-- 2.5 -->
      <g transform="translate(48.5 787.626747)scale(0.42 -0.42)">
       <use xlink:href="#STIXGeneral-Regular-50"/>
       <use x="49.999985" xlink:href="#STIXGeneral-Regular-46"/>
       <use x="74.999969" xlink:href="#STIXGeneral-Regular-53"/>
      </g>
     </g>
    </g>
    <g id="text_40">
     <!-- Cp -->
     <g transform="translate(6.614688 833.021418)rotate(-90)scale(0.42 -0.42)">
      <use xlink:href="#STIXGeneral-Regular-67"/>
      <use x="66.699997" xlink:href="#STIXGeneral-Regular-112"/>
     </g>
    </g>
   </g>
   <g id="line2d_65">
    <path clip-path="url(#pe16910e973)" d="M 130.909091 793.83087 
L 135.53719 804.03554 
L 140.165289 806.361864 
L 144.793388 807.444102 
L 149.421488 808.172404 
L 154.049587 808.710256 
L 158.677686 809.078444 
L 163.305785 809.359494 
L 167.933884 809.574845 
L 172.561983 809.750555 
L 177.190083 809.88863 
L 181.818182 810.003094 
L 186.446281 810.096945 
L 191.07438 810.175939 
L 195.702479 810.242268 
L 200.330579 810.298103 
L 204.958678 810.345504 
L 209.586777 810.385788 
L 214.214876 810.421627 
L 218.842975 810.452402 
L 223.471074 810.479074 
L 228.099174 810.50119 
L 232.727273 810.520434 
L 237.355372 810.536989 
L 241.983471 810.551507 
L 246.61157 810.564215 
L 251.239669 810.575258 
L 255.867769 810.585037 
L 260.495868 810.593561 
L 265.123967 810.601143 
L 269.752066 810.607963 
L 274.380165 810.614002 
L 279.008264 810.61949 
L 283.636364 810.624496 
L 288.264463 810.629135 
L 292.892562 810.633752 
L 297.520661 810.638509 
L 302.14876 810.643267 
L 306.77686 810.648095 
L 311.404959 810.65306 
L 316.033058 810.658306 
L 320.661157 810.663525 
L 325.289256 810.668903 
L 329.917355 810.674518 
L 334.545455 810.680494 
L 339.173554 810.68682 
L 343.801653 810.696095 
L 348.429752 810.702028 
L 353.057851 810.71067 
L 357.68595 810.720069 
L 362.31405 810.730104 
L 366.942149 810.741107 
L 371.570248 810.752646 
L 376.198347 810.764935 
L 380.826446 810.777899 
L 385.454545 810.79202 
L 390.082645 810.806942 
L 394.710744 810.823252 
L 399.338843 810.840698 
L 403.966942 810.859605 
L 408.595041 810.879927 
L 413.22314 810.901537 
L 417.85124 810.924701 
L 422.479339 810.949444 
L 427.107438 810.975563 
L 431.735537 811.003336 
L 436.363636 811.033133 
L 440.991736 811.064984 
L 445.619835 811.09966 
L 450.247934 811.136632 
L 454.876033 811.176959 
L 459.504132 811.220081 
L 464.132231 811.267007 
L 468.760331 811.317616 
L 473.38843 811.372552 
L 478.016529 811.431772 
L 482.644628 811.496202 
L 487.272727 811.566232 
L 491.900826 811.643089 
L 496.528926 811.727759 
L 501.157025 811.820778 
L 505.785124 811.923995 
L 510.413223 812.037322 
L 515.041322 812.164018 
L 519.669421 812.304722 
L 524.297521 812.464884 
L 528.92562 812.642843 
L 533.553719 812.846444 
L 538.181818 813.075309 
L 542.809917 813.340387 
L 547.438017 813.644953 
L 552.066116 814.002978 
L 556.694215 814.406585 
L 561.322314 814.89666 
L 565.950413 815.522837 
L 570.578512 816.314385 
L 575.206612 817.103129 
L 579.834711 818.142041 
L 584.46281 820.206097 
L 589.090909 823.338275 
" style="fill:none;stroke:#1f77b4;stroke-linecap:square;stroke-width:8;"/>
   </g>
   <g id="line2d_66">
    <path clip-path="url(#pe16910e973)" d="M 108 808.513761 
L 612 808.513761 
" style="fill:none;stroke:#000000;stroke-dasharray:3.2,0.8,0.5,0.8;stroke-dashoffset:0;stroke-width:0.5;"/>
   </g>
   <g id="patch_38">
    <path d="M 108 850.788991 
L 108 766.238532 
" style="fill:none;stroke:#000000;stroke-linecap:square;stroke-linejoin:miter;stroke-width:0.8;"/>
   </g>
   <g id="patch_39">
    <path d="M 612 850.788991 
L 612 766.238532 
" style="fill:none;stroke:#000000;stroke-linecap:square;stroke-linejoin:miter;stroke-width:0.8;"/>
   </g>
   <g id="patch_40">
    <path d="M 108 850.788991 
L 612 850.788991 
" style="fill:none;stroke:#000000;stroke-linecap:square;stroke-linejoin:miter;stroke-width:0.8;"/>
   </g>
   <g id="patch_41">
    <path d="M 108 766.238532 
L 612 766.238532 
" style="fill:none;stroke:#000000;stroke-linecap:square;stroke-linejoin:miter;stroke-width:0.8;"/>
   </g>
   <g id="text_41">
    <!-- $\^t = 0.40$ -->
    <g transform="translate(599.19 818.298449)scale(0.42 -0.42)">
     <defs>
      <path d="M 47.296875 16.703125 
L 37 16.703125 
L 37 0 
L 29.203125 0 
L 29.203125 16.703125 
L 1.203125 16.703125 
L 1.203125 23.09375 
L 32.59375 67.59375 
L 37 67.59375 
L 37 23.09375 
L 47.296875 23.09375 
z
M 29.203125 23.09375 
L 29.203125 57.40625 
L 5.203125 23.09375 
z
" id="STIXGeneral-Regular-52"/>
     </defs>
     <use transform="translate(39.042969 16.59375)" xlink:href="#STIXGeneral-Regular-770"/>
     <use transform="translate(0 0.203125)" xlink:href="#STIXGeneral-Italic-116"/>
     <use transform="translate(42.239984 0.203125)" xlink:href="#STIXGeneral-Regular-61"/>
     <use transform="translate(125.179965 0.203125)" xlink:href="#STIXGeneral-Regular-48"/>
     <use transform="translate(175.17995 0.203125)" xlink:href="#STIXGeneral-Regular-46"/>
     <use transform="translate(200.179935 0.203125)" xlink:href="#STIXGeneral-Regular-52"/>
     <use transform="translate(250.179919 0.203125)" xlink:href="#STIXGeneral-Regular-48"/>
    </g>
   </g>
  </g>
  <g id="axes_9">
   <g id="patch_42">
    <path d="M 108 943.794495 
L 612 943.794495 
L 612 859.244037 
L 108 859.244037 
z
" style="fill:#ffffff;"/>
   </g>
   <g id="matplotlib.axis_17">
    <g id="xtick_25">
     <g id="line2d_67">
      <g>
       <use style="fill:#ffffff;stroke:#000000;stroke-width:0.8;" x="130.909091" xlink:href="#m1c16f65f7b" y="943.794495"/>
      </g>
     </g>
    </g>
    <g id="xtick_26">
     <g id="line2d_68">
      <g>
       <use style="fill:#ffffff;stroke:#000000;stroke-width:0.8;" x="360" xlink:href="#m1c16f65f7b" y="943.794495"/>
      </g>
     </g>
    </g>
    <g id="xtick_27">
     <g id="line2d_69">
      <g>
       <use style="fill:#ffffff;stroke:#000000;stroke-width:0.8;" x="589.090909" xlink:href="#m1c16f65f7b" y="943.794495"/>
      </g>
     </g>
    </g>
   </g>
   <g id="matplotlib.axis_18">
    <g id="ytick_25">
     <g id="line2d_70">
      <g>
       <use style="fill:#ffffff;stroke:#000000;stroke-width:0.8;" x="108" xlink:href="#mf29efa8f1e" y="936.748624"/>
      </g>
     </g>
     <g id="text_42">
      <!-- −2.5 -->
      <g transform="translate(19.73 951.090968)scale(0.42 -0.42)">
       <use xlink:href="#STIXGeneral-Regular-8722"/>
       <use x="68.499985" xlink:href="#STIXGeneral-Regular-50"/>
       <use x="118.499969" xlink:href="#STIXGeneral-Regular-46"/>
       <use x="143.499954" xlink:href="#STIXGeneral-Regular-53"/>
      </g>
     </g>
    </g>
    <g id="ytick_26">
     <g id="line2d_71">
      <g>
       <use style="fill:#ffffff;stroke:#000000;stroke-width:0.8;" x="108" xlink:href="#mf29efa8f1e" y="901.519266"/>
      </g>
     </g>
     <g id="text_43">
      <!-- 0.0 -->
      <g transform="translate(48.5 915.86161)scale(0.42 -0.42)">
       <use xlink:href="#STIXGeneral-Regular-48"/>
       <use x="49.999985" xlink:href="#STIXGeneral-Regular-46"/>
       <use x="74.999969" xlink:href="#STIXGeneral-Regular-48"/>
      </g>
     </g>
    </g>
    <g id="ytick_27">
     <g id="line2d_72">
      <g>
       <use style="fill:#ffffff;stroke:#000000;stroke-width:0.8;" x="108" xlink:href="#mf29efa8f1e" y="866.289908"/>
      </g>
     </g>
     <g id="text_44">
      <!-- 2.5 -->
      <g transform="translate(48.5 880.632252)scale(0.42 -0.42)">
       <use xlink:href="#STIXGeneral-Regular-50"/>
       <use x="49.999985" xlink:href="#STIXGeneral-Regular-46"/>
       <use x="74.999969" xlink:href="#STIXGeneral-Regular-53"/>
      </g>
     </g>
    </g>
    <g id="text_45">
     <!-- Cp -->
     <g transform="translate(6.614688 926.026922)rotate(-90)scale(0.42 -0.42)">
      <use xlink:href="#STIXGeneral-Regular-67"/>
      <use x="66.699997" xlink:href="#STIXGeneral-Regular-112"/>
     </g>
    </g>
   </g>
   <g id="line2d_73">
    <path clip-path="url(#p8e424e2910)" d="M 130.909091 902.153676 
L 135.53719 904.357594 
L 140.165289 904.947293 
L 144.793388 905.20093 
L 149.421488 905.407485 
L 154.049587 905.52692 
L 158.677686 905.589895 
L 163.305785 905.637198 
L 167.933884 905.671107 
L 172.561983 905.694544 
L 177.190083 905.708436 
L 181.818182 905.715661 
L 186.446281 905.716768 
L 191.07438 905.713849 
L 195.702479 905.706928 
L 200.330579 905.696729 
L 204.958678 905.683836 
L 209.586777 905.668445 
L 214.214876 905.651096 
L 218.842975 905.63243 
L 223.471074 905.613853 
L 228.099174 905.594218 
L 232.727273 905.572872 
L 237.355372 905.550671 
L 241.983471 905.527487 
L 246.61157 905.500396 
L 251.239669 905.472372 
L 255.867769 905.446175 
L 260.495868 905.420601 
L 265.123967 905.393274 
L 269.752066 905.363172 
L 274.380165 905.329604 
L 279.008264 905.295405 
L 283.636364 905.263548 
L 288.264463 905.231177 
L 292.892562 905.197203 
L 297.520661 905.163043 
L 302.14876 905.127572 
L 306.77686 905.091127 
L 311.404959 905.054764 
L 316.033058 905.01652 
L 320.661157 904.976743 
L 325.289256 904.935198 
L 329.917355 904.893289 
L 334.545455 904.851633 
L 339.173554 904.809162 
L 343.801653 904.753864 
L 348.429752 904.720759 
L 353.057851 904.675694 
L 357.68595 904.630692 
L 362.31405 904.584547 
L 366.942149 904.53667 
L 371.570248 904.487928 
L 376.198347 904.437735 
L 380.826446 904.38641 
L 385.454545 904.333631 
L 390.082645 904.280038 
L 394.710744 904.224956 
L 399.338843 904.168372 
L 403.966942 904.110065 
L 408.595041 904.050795 
L 413.22314 903.990433 
L 417.85124 903.928926 
L 422.479339 903.866219 
L 427.107438 903.802187 
L 431.735537 903.736551 
L 436.363636 903.669384 
L 440.991736 903.600515 
L 445.619835 903.529213 
L 450.247934 903.456201 
L 454.876033 903.380921 
L 459.504132 903.302113 
L 464.132231 903.220883 
L 468.760331 903.138029 
L 473.38843 903.051974 
L 478.016529 902.964423 
L 482.644628 902.87584 
L 487.272727 902.783143 
L 491.900826 902.68671 
L 496.528926 902.587694 
L 501.157025 902.485125 
L 505.785124 902.378401 
L 510.413223 902.26755 
L 515.041322 902.151168 
L 519.669421 902.029686 
L 524.297521 901.901519 
L 528.92562 901.767312 
L 533.553719 901.624734 
L 538.181818 901.474116 
L 542.809917 901.312607 
L 547.438017 901.139683 
L 552.066116 900.950823 
L 556.694215 900.754159 
L 561.322314 900.525083 
L 565.950413 900.266112 
L 570.578512 899.959467 
L 575.206612 899.735865 
L 579.834711 899.508647 
L 584.46281 898.993212 
L 589.090909 898.39414 
" style="fill:none;stroke:#1f77b4;stroke-linecap:square;stroke-width:8;"/>
   </g>
   <g id="line2d_74">
    <path clip-path="url(#p8e424e2910)" d="M 108 901.519266 
L 612 901.519266 
" style="fill:none;stroke:#000000;stroke-dasharray:3.2,0.8,0.5,0.8;stroke-dashoffset:0;stroke-width:0.5;"/>
   </g>
   <g id="patch_43">
    <path d="M 108 943.794495 
L 108 859.244037 
" style="fill:none;stroke:#000000;stroke-linecap:square;stroke-linejoin:miter;stroke-width:0.8;"/>
   </g>
   <g id="patch_44">
    <path d="M 612 943.794495 
L 612 859.244037 
" style="fill:none;stroke:#000000;stroke-linecap:square;stroke-linejoin:miter;stroke-width:0.8;"/>
   </g>
   <g id="patch_45">
    <path d="M 108 943.794495 
L 612 943.794495 
" style="fill:none;stroke:#000000;stroke-linecap:square;stroke-linejoin:miter;stroke-width:0.8;"/>
   </g>
   <g id="patch_46">
    <path d="M 108 859.244037 
L 612 859.244037 
" style="fill:none;stroke:#000000;stroke-linecap:square;stroke-linejoin:miter;stroke-width:0.8;"/>
   </g>
   <g id="text_46">
    <!-- $\^t = 0.45$ -->
    <g transform="translate(599.19 911.303954)scale(0.42 -0.42)">
     <use transform="translate(39.042969 16.59375)" xlink:href="#STIXGeneral-Regular-770"/>
     <use transform="translate(0 0.203125)" xlink:href="#STIXGeneral-Italic-116"/>
     <use transform="translate(42.239984 0.203125)" xlink:href="#STIXGeneral-Regular-61"/>
     <use transform="translate(125.179965 0.203125)" xlink:href="#STIXGeneral-Regular-48"/>
     <use transform="translate(175.17995 0.203125)" xlink:href="#STIXGeneral-Regular-46"/>
     <use transform="translate(200.179935 0.203125)" xlink:href="#STIXGeneral-Regular-52"/>
     <use transform="translate(250.179919 0.203125)" xlink:href="#STIXGeneral-Regular-53"/>
    </g>
   </g>
  </g>
  <g id="axes_10">
   <g id="patch_47">
    <path d="M 108 1036.8 
L 612 1036.8 
L 612 952.249541 
L 108 952.249541 
z
" style="fill:#ffffff;"/>
   </g>
   <g id="matplotlib.axis_19">
    <g id="xtick_28">
     <g id="line2d_75">
      <g>
       <use style="fill:#ffffff;stroke:#000000;stroke-width:0.8;" x="130.909091" xlink:href="#m1c16f65f7b" y="1036.8"/>
      </g>
     </g>
     <g id="text_47">
      <!-- 0.0 -->
      <g transform="translate(104.659091 1072.484688)scale(0.42 -0.42)">
       <use xlink:href="#STIXGeneral-Regular-48"/>
       <use x="49.999985" xlink:href="#STIXGeneral-Regular-46"/>
       <use x="74.999969" xlink:href="#STIXGeneral-Regular-48"/>
      </g>
     </g>
    </g>
    <g id="xtick_29">
     <g id="line2d_76">
      <g>
       <use style="fill:#ffffff;stroke:#000000;stroke-width:0.8;" x="360" xlink:href="#m1c16f65f7b" y="1036.8"/>
      </g>
     </g>
     <g id="text_48">
      <!-- 0.5 -->
      <g transform="translate(333.75 1072.484688)scale(0.42 -0.42)">
       <use xlink:href="#STIXGeneral-Regular-48"/>
       <use x="49.999985" xlink:href="#STIXGeneral-Regular-46"/>
       <use x="74.999969" xlink:href="#STIXGeneral-Regular-53"/>
      </g>
     </g>
    </g>
    <g id="xtick_30">
     <g id="line2d_77">
      <g>
       <use style="fill:#ffffff;stroke:#000000;stroke-width:0.8;" x="589.090909" xlink:href="#m1c16f65f7b" y="1036.8"/>
      </g>
     </g>
     <g id="text_49">
      <!-- 1.0 -->
      <g transform="translate(562.840909 1072.484688)scale(0.42 -0.42)">
       <use xlink:href="#STIXGeneral-Regular-49"/>
       <use x="49.999985" xlink:href="#STIXGeneral-Regular-46"/>
       <use x="74.999969" xlink:href="#STIXGeneral-Regular-48"/>
      </g>
     </g>
    </g>
    <g id="text_50">
     <!-- x/c -->
     <g transform="translate(334.337344 1114.284688)scale(0.42 -0.42)">
      <defs>
       <path d="M 47.90625 0 
L 27.796875 0 
L 27.796875 1.5 
Q 30.296875 1.703125 31.046875 2.140625 
Q 31.796875 2.59375 31.796875 3.90625 
Q 31.796875 4.796875 31.203125 5.703125 
L 22.09375 19.703125 
L 14.203125 7.40625 
Q 12.203125 4.296875 12.203125 3.296875 
Q 12.203125 1.5 16.203125 1.5 
L 16.203125 0 
L 1.703125 0 
L 1.703125 1.5 
Q 4.203125 1.703125 5.546875 2.640625 
Q 6.90625 3.59375 9 6.59375 
L 20.40625 23.09375 
L 11 37.5 
Q 8.703125 41 7.09375 42.25 
Q 5.5 43.5 3.296875 43.5 
L 2.40625 43.5 
L 2.40625 45 
L 23.09375 45 
L 23.09375 43.5 
Q 18.796875 43.40625 18.796875 41.296875 
Q 18.796875 39.203125 23.40625 32.40625 
Q 24.703125 30.59375 24.796875 30.40625 
Q 25.296875 31.09375 27.796875 34.796875 
Q 28.296875 35.703125 29 36.703125 
Q 29.703125 37.703125 30.046875 38.296875 
Q 30.40625 38.90625 30.796875 39.5 
Q 31.203125 40.09375 31.34375 40.546875 
Q 31.5 41 31.5 41.296875 
Q 31.5 43.203125 27.5 43.5 
L 27.5 45 
L 43.296875 45 
L 43.296875 43.5 
Q 38.203125 43.296875 35.203125 39.09375 
L 26.90625 27.09375 
L 39.703125 7.5 
Q 43.59375 1.5 47.90625 1.5 
z
" id="STIXGeneral-Regular-120"/>
      </defs>
      <use xlink:href="#STIXGeneral-Regular-120"/>
      <use x="49.999985" xlink:href="#STIXGeneral-Regular-47"/>
      <use x="77.799973" xlink:href="#STIXGeneral-Regular-99"/>
     </g>
    </g>
   </g>
   <g id="matplotlib.axis_20">
    <g id="ytick_28">
     <g id="line2d_78">
      <g>
       <use style="fill:#ffffff;stroke:#000000;stroke-width:0.8;" x="108" xlink:href="#mf29efa8f1e" y="1029.754128"/>
      </g>
     </g>
     <g id="text_51">
      <!-- −2.5 -->
      <g transform="translate(19.73 1044.096472)scale(0.42 -0.42)">
       <use xlink:href="#STIXGeneral-Regular-8722"/>
       <use x="68.499985" xlink:href="#STIXGeneral-Regular-50"/>
       <use x="118.499969" xlink:href="#STIXGeneral-Regular-46"/>
       <use x="143.499954" xlink:href="#STIXGeneral-Regular-53"/>
      </g>
     </g>
    </g>
    <g id="ytick_29">
     <g id="line2d_79">
      <g>
       <use style="fill:#ffffff;stroke:#000000;stroke-width:0.8;" x="108" xlink:href="#mf29efa8f1e" y="994.524771"/>
      </g>
     </g>
     <g id="text_52">
      <!-- 0.0 -->
      <g transform="translate(48.5 1008.867114)scale(0.42 -0.42)">
       <use xlink:href="#STIXGeneral-Regular-48"/>
       <use x="49.999985" xlink:href="#STIXGeneral-Regular-46"/>
       <use x="74.999969" xlink:href="#STIXGeneral-Regular-48"/>
      </g>
     </g>
    </g>
    <g id="ytick_30">
     <g id="line2d_80">
      <g>
       <use style="fill:#ffffff;stroke:#000000;stroke-width:0.8;" x="108" xlink:href="#mf29efa8f1e" y="959.295413"/>
      </g>
     </g>
     <g id="text_53">
      <!-- 2.5 -->
      <g transform="translate(48.5 973.637757)scale(0.42 -0.42)">
       <use xlink:href="#STIXGeneral-Regular-50"/>
       <use x="49.999985" xlink:href="#STIXGeneral-Regular-46"/>
       <use x="74.999969" xlink:href="#STIXGeneral-Regular-53"/>
      </g>
     </g>
    </g>
    <g id="text_54">
     <!-- Cp -->
     <g transform="translate(6.614688 1019.032427)rotate(-90)scale(0.42 -0.42)">
      <use xlink:href="#STIXGeneral-Regular-67"/>
      <use x="66.699997" xlink:href="#STIXGeneral-Regular-112"/>
     </g>
    </g>
   </g>
   <g id="line2d_81">
    <path clip-path="url(#p1c7d85672e)" d="M 130.909091 987.181 
L 135.53719 992.12336 
L 140.165289 993.276276 
L 144.793388 993.879849 
L 149.421488 994.174245 
L 154.049587 994.342168 
L 158.677686 994.430954 
L 163.305785 994.484006 
L 167.933884 994.50534 
L 172.561983 994.512474 
L 177.190083 994.50838 
L 181.818182 994.497947 
L 186.446281 994.483008 
L 191.07438 994.466101 
L 195.702479 994.447614 
L 200.330579 994.42879 
L 204.958678 994.410082 
L 209.586777 994.392371 
L 214.214876 994.375918 
L 218.842975 994.361505 
L 223.471074 994.349208 
L 228.099174 994.33948 
L 232.727273 994.331663 
L 237.355372 994.326413 
L 241.983471 994.323479 
L 246.61157 994.323153 
L 251.239669 994.324895 
L 255.867769 994.3293 
L 260.495868 994.33567 
L 265.123967 994.344354 
L 269.752066 994.355756 
L 274.380165 994.369171 
L 279.008264 994.385952 
L 283.636364 994.403118 
L 288.264463 994.423742 
L 292.892562 994.445469 
L 297.520661 994.468237 
L 302.14876 994.492735 
L 306.77686 994.517011 
L 311.404959 994.544152 
L 316.033058 994.572472 
L 320.661157 994.601989 
L 325.289256 994.632876 
L 329.917355 994.665086 
L 334.545455 994.697877 
L 339.173554 994.731617 
L 343.801653 994.774848 
L 348.429752 994.801144 
L 353.057851 994.836607 
L 357.68595 994.872666 
L 362.31405 994.90937 
L 366.942149 994.94623 
L 371.570248 994.983619 
L 376.198347 995.021193 
L 380.826446 995.058912 
L 385.454545 995.096766 
L 390.082645 995.134491 
L 394.710744 995.172138 
L 399.338843 995.209786 
L 403.966942 995.247155 
L 408.595041 995.28407 
L 413.22314 995.320853 
L 417.85124 995.357261 
L 422.479339 995.393264 
L 427.107438 995.428768 
L 431.735537 995.463718 
L 436.363636 995.497801 
L 440.991736 995.531329 
L 445.619835 995.563861 
L 450.247934 995.595845 
L 454.876033 995.626814 
L 459.504132 995.656956 
L 464.132231 995.685868 
L 468.760331 995.713136 
L 473.38843 995.738441 
L 478.016529 995.762048 
L 482.644628 995.784169 
L 487.272727 995.805155 
L 491.900826 995.824655 
L 496.528926 995.842887 
L 501.157025 995.859433 
L 505.785124 995.874041 
L 510.413223 995.88624 
L 515.041322 995.896085 
L 519.669421 995.903449 
L 524.297521 995.908135 
L 528.92562 995.911048 
L 533.553719 995.911902 
L 538.181818 995.911442 
L 542.809917 995.911296 
L 547.438017 995.910718 
L 552.066116 995.904296 
L 556.694215 995.896198 
L 561.322314 995.886536 
L 565.950413 995.884935 
L 570.578512 995.873199 
L 575.206612 995.880707 
L 579.834711 995.972703 
L 584.46281 996.130947 
L 589.090909 995.748723 
" style="fill:none;stroke:#1f77b4;stroke-linecap:square;stroke-width:8;"/>
   </g>
   <g id="line2d_82">
    <path clip-path="url(#p1c7d85672e)" d="M 108 994.524771 
L 612 994.524771 
" style="fill:none;stroke:#000000;stroke-dasharray:3.2,0.8,0.5,0.8;stroke-dashoffset:0;stroke-width:0.5;"/>
   </g>
   <g id="patch_48">
    <path d="M 108 1036.8 
L 108 952.249541 
" style="fill:none;stroke:#000000;stroke-linecap:square;stroke-linejoin:miter;stroke-width:0.8;"/>
   </g>
   <g id="patch_49">
    <path d="M 612 1036.8 
L 612 952.249541 
" style="fill:none;stroke:#000000;stroke-linecap:square;stroke-linejoin:miter;stroke-width:0.8;"/>
   </g>
   <g id="patch_50">
    <path d="M 108 1036.8 
L 612 1036.8 
" style="fill:none;stroke:#000000;stroke-linecap:square;stroke-linejoin:miter;stroke-width:0.8;"/>
   </g>
   <g id="patch_51">
    <path d="M 108 952.249541 
L 612 952.249541 
" style="fill:none;stroke:#000000;stroke-linecap:square;stroke-linejoin:miter;stroke-width:0.8;"/>
   </g>
   <g id="text_55">
    <!-- $\^t = 0.50$ -->
    <g transform="translate(599.19 1004.309458)scale(0.42 -0.42)">
     <use transform="translate(39.042969 16.59375)" xlink:href="#STIXGeneral-Regular-770"/>
     <use transform="translate(0 0.203125)" xlink:href="#STIXGeneral-Italic-116"/>
     <use transform="translate(42.239984 0.203125)" xlink:href="#STIXGeneral-Regular-61"/>
     <use transform="translate(125.179965 0.203125)" xlink:href="#STIXGeneral-Regular-48"/>
     <use transform="translate(175.17995 0.203125)" xlink:href="#STIXGeneral-Regular-46"/>
     <use transform="translate(200.179935 0.203125)" xlink:href="#STIXGeneral-Regular-53"/>
     <use transform="translate(250.179919 0.203125)" xlink:href="#STIXGeneral-Regular-48"/>
    </g>
   </g>
  </g>
 </g>
 <defs>
  <clipPath id="p81c9a3eb0d">
   <rect height="84.550459" width="504" x="108" y="115.2"/>
  </clipPath>
  <clipPath id="pe27c2ef56f">
   <rect height="84.550459" width="504" x="108" y="208.205505"/>
  </clipPath>
  <clipPath id="p569389ceb0">
   <rect height="84.550459" width="504" x="108" y="301.211009"/>
  </clipPath>
  <clipPath id="pec3756c46c">
   <rect height="84.550459" width="504" x="108" y="394.216514"/>
  </clipPath>
  <clipPath id="pcd711cb2f1">
   <rect height="84.550459" width="504" x="108" y="487.222018"/>
  </clipPath>
  <clipPath id="p0bdfa09a4c">
   <rect height="84.550459" width="504" x="108" y="580.227523"/>
  </clipPath>
  <clipPath id="p7b87bcf5c9">
   <rect height="84.550459" width="504" x="108" y="673.233028"/>
  </clipPath>
  <clipPath id="pe16910e973">
   <rect height="84.550459" width="504" x="108" y="766.238532"/>
  </clipPath>
  <clipPath id="p8e424e2910">
   <rect height="84.550459" width="504" x="108" y="859.244037"/>
  </clipPath>
  <clipPath id="p1c7d85672e">
   <rect height="84.550459" width="504" x="108" y="952.249541"/>
  </clipPath>
 </defs>
</svg>
