<?xml version="1.0" encoding="utf-8" standalone="no"?>
<!DOCTYPE svg PUBLIC "-//W3C//DTD SVG 1.1//EN"
  "http://www.w3.org/Graphics/SVG/1.1/DTD/svg11.dtd">
<!-- Created with matplotlib (https://matplotlib.org/) -->
<svg height="432pt" version="1.1" viewBox="0 0 720 432" width="720pt" xmlns="http://www.w3.org/2000/svg" xmlns:xlink="http://www.w3.org/1999/xlink">
 <metadata>
  <rdf:RDF xmlns:cc="http://creativecommons.org/ns#" xmlns:dc="http://purl.org/dc/elements/1.1/" xmlns:rdf="http://www.w3.org/1999/02/22-rdf-syntax-ns#">
   <cc:Work>
    <dc:type rdf:resource="http://purl.org/dc/dcmitype/StillImage"/>
    <dc:date>2021-11-12T10:46:02.261728</dc:date>
    <dc:format>image/svg+xml</dc:format>
    <dc:creator>
     <cc:Agent>
      <dc:title>Matplotlib v3.3.4, https://matplotlib.org/</dc:title>
     </cc:Agent>
    </dc:creator>
   </cc:Work>
  </rdf:RDF>
 </metadata>
 <defs>
  <style type="text/css">*{stroke-linecap:butt;stroke-linejoin:round;}</style>
 </defs>
 <g id="figure_1">
  <g id="patch_1">
   <path d="M 0 432 
L 720 432 
L 720 0 
L 0 0 
z
" style="fill:#ffffff;"/>
  </g>
  <g id="axes_1">
   <g id="line2d_1">
    <path clip-path="url(#pb954d85cc8)" d="M 90 213.3 
L 576 213.3 
" style="fill:none;stroke:#000000;stroke-dasharray:3.2,0.8,0.5,0.8;stroke-dashoffset:0;stroke-width:0.5;"/>
   </g>
   <g id="line2d_2">
    <path clip-path="url(#pb954d85cc8)" d="M 90 211.4775 
L 90.2187 211.4775 
L 91.9683 208.774736 
L 93.2805 207.50743 
L 95.0301 206.188796 
L 97.2171 204.857918 
L 99.8415 203.534719 
L 103.122 202.145876 
L 107.0586 200.737862 
L 111.6513 199.342231 
L 116.9001 197.982327 
L 123.0237 196.632545 
L 129.8034 195.367751 
L 137.4579 194.1702 
L 145.7685 193.096715 
L 154.7352 192.161695 
L 164.358 191.382021 
L 174.4182 190.788241 
L 184.9158 190.390482 
L 195.6321 190.205724 
L 206.5671 190.241945 
L 217.2834 190.498776 
L 227.781 190.970398 
L 237.8412 191.640462 
L 247.464 192.501157 
L 256.4307 193.522552 
L 264.7413 194.690415 
L 272.1771 195.953063 
L 278.9568 197.327837 
L 284.8617 198.749186 
L 289.8918 200.179387 
L 294.2658 201.650095 
L 297.765 203.044616 
L 300.8268 204.504231 
L 303.2325 205.900183 
L 304.9821 207.147826 
L 306.2943 208.312943 
L 307.3878 209.583357 
L 308.0439 210.648192 
L 308.4813 211.749101 
L 308.7 213.3 
L 308.7 213.3 
L 308.4813 217.952698 
L 308.0439 221.255423 
L 307.3878 224.44993 
L 306.513 227.586735 
L 305.4195 230.677709 
L 304.1073 233.725522 
L 302.5764 236.729479 
L 300.8268 239.687306 
L 298.8585 242.595844 
L 296.6715 245.451363 
L 294.2658 248.249716 
L 291.4227 251.201858 
L 288.3609 254.04419 
L 285.0804 256.779935 
L 281.5812 259.40965 
L 277.8633 261.93199 
L 273.9267 264.34417 
L 269.5527 266.756784 
L 264.96 269.026802 
L 260.1486 271.150895 
L 255.1185 273.124244 
L 249.8697 274.940678 
L 244.4022 276.592729 
L 238.716 278.071621 
L 233.0298 279.323396 
L 227.1249 280.397098 
L 221.0013 281.279091 
L 214.8777 281.93474 
L 208.7541 282.370771 
L 202.4118 282.595447 
L 196.0695 282.591512 
L 189.7272 282.358925 
L 183.6036 281.915138 
L 177.48 281.251536 
L 171.3564 280.361302 
L 165.4515 279.27928 
L 159.7653 278.019037 
L 154.0791 276.531096 
L 148.6116 274.869641 
L 143.3628 273.043346 
L 138.3327 271.059561 
L 133.5213 268.924313 
L 128.9286 266.642246 
L 124.5546 264.216472 
L 120.3993 261.648303 
L 116.6814 259.095412 
L 113.1822 256.431424 
L 109.9017 253.656665 
L 106.8399 250.76916 
L 103.9968 247.763634 
L 101.5911 244.906735 
L 99.4041 241.980889 
L 97.4358 238.985786 
L 95.6862 235.918101 
L 94.1553 232.76908 
L 92.8431 229.518987 
L 91.7496 226.122069 
L 91.0935 223.503618 
L 90 218.7675 
L 90 218.7675 
" style="fill:none;stroke:#1f77b4;stroke-linecap:square;stroke-width:4;"/>
   </g>
   <g id="line2d_3">
    <path clip-path="url(#pb954d85cc8)" d="M 90 211.4775 
L 90.32805 211.4775 
L 90.98415 210.648192 
L 91.9683 209.583357 
L 93.2805 208.537755 
L 94.92075 207.50743 
L 97.2171 206.338268 
L 100.16955 205.103906 
L 103.7781 203.844282 
L 108.3708 202.493601 
L 113.94765 201.106209 
L 120.50865 199.718603 
L 128.0538 198.357124 
L 136.91115 196.995868 
L 146.75265 195.713249 
L 157.90635 194.490209 
L 170.0442 193.385551 
L 183.1662 192.413339 
L 197.27235 191.589878 
L 212.36265 190.934301 
L 228.10905 190.476644 
L 244.1835 190.233382 
L 260.586 190.210746 
L 276.66045 190.408965 
L 292.40685 190.820463 
L 307.8252 191.444032 
L 322.58745 192.264419 
L 336.36555 193.25215 
L 349.1595 194.392442 
L 360.64125 195.635024 
L 370.8108 196.949537 
L 379.9962 198.357124 
L 387.8694 199.782951 
L 394.4304 201.181814 
L 400.00725 202.582879 
L 404.59995 203.950315 
L 408.2085 205.230245 
L 411.16095 206.491493 
L 413.4573 207.696875 
L 415.09755 208.774736 
L 416.40975 209.898794 
L 417.06585 210.648192 
L 417.72195 211.749101 
L 418.05 213.3 
L 418.05 213.3 
L 417.72195 217.952698 
L 417.06585 221.255423 
L 416.0817 224.44993 
L 415.09755 226.875792 
L 413.78535 229.518987 
L 412.1451 232.270382 
L 410.1768 235.071482 
L 407.88045 237.888283 
L 405.25605 240.699133 
L 402.3036 243.488942 
L 399.0231 246.246276 
L 395.41455 248.961807 
L 391.47795 251.627443 
L 387.2133 254.235811 
L 382.6206 256.779935 
L 377.69985 259.25302 
L 372.45105 261.648303 
L 366.54615 264.088063 
L 360.3132 266.411323 
L 353.7522 268.613595 
L 346.86315 270.689401 
L 339.64605 272.632344 
L 332.1009 274.435115 
L 324.2277 276.089472 
L 316.02645 277.586176 
L 307.49715 278.914895 
L 298.6398 280.064059 
L 289.78245 280.990505 
L 280.59705 281.726086 
L 271.41165 282.239937 
L 262.22625 282.537211 
L 252.7128 282.619867 
L 243.19935 282.474165 
L 234.01395 282.115403 
L 224.82855 281.538831 
L 215.64315 280.73861 
L 206.7858 279.747283 
L 197.92845 278.529886 
L 189.39915 277.131329 
L 181.1979 275.562547 
L 173.3247 273.83318 
L 165.77955 271.95169 
L 158.56245 269.925419 
L 151.6734 267.760605 
L 145.1124 265.462351 
L 139.2075 263.168818 
L 133.63065 260.77695 
L 128.38185 258.292332 
L 123.4611 255.719991 
L 118.8684 253.064343 
L 114.60375 250.32909 
L 110.9952 247.763634 
L 107.7147 245.180569 
L 104.76225 242.595844 
L 102.13785 240.029761 
L 99.8415 237.509265 
L 97.8732 235.071482 
L 95.9049 232.270382 
L 94.26465 229.518987 
L 92.95245 226.875792 
L 91.9683 224.44993 
L 91.3122 222.453011 
L 90.32805 218.7675 
L 90 218.7675 
L 90 218.7675 
" style="fill:none;stroke:#ff7f0e;stroke-linecap:square;stroke-width:4;"/>
   </g>
   <g id="line2d_4">
    <path clip-path="url(#pb954d85cc8)" d="M 90 211.4775 
L 90.4374 211.4775 
L 91.3122 210.648192 
L 92.6244 209.583357 
L 94.374 208.537755 
L 96.561 207.50743 
L 99.6228 206.338268 
L 103.5594 205.103906 
L 108.3708 203.844282 
L 114.4944 202.493601 
L 121.4928 201.181814 
L 129.8034 199.847778 
L 139.8636 198.467319 
L 151.236 197.13648 
L 164.358 195.832181 
L 178.7922 194.622979 
L 194.976 193.49486 
L 212.472 192.501157 
L 231.2802 191.657545 
L 251.4006 190.982631 
L 272.3958 190.506342 
L 293.8284 190.244981 
L 315.6984 190.204232 
L 337.131 190.384506 
L 358.5636 190.788241 
L 379.1214 191.397363 
L 398.8044 192.202424 
L 417.1752 193.173805 
L 434.2338 194.296197 
L 449.5428 195.519251 
L 463.5396 196.857671 
L 475.7868 198.248337 
L 486.2844 199.65473 
L 495.4698 201.106209 
L 502.9056 202.493601 
L 509.0292 203.844282 
L 514.278 205.230245 
L 518.2146 206.491493 
L 521.2764 207.696875 
L 523.4634 208.774736 
L 525.213 209.898794 
L 526.0878 210.648192 
L 526.9626 211.749101 
L 527.4 213.3 
L 527.4 213.3 
L 526.9626 217.952698 
L 526.0878 221.255423 
L 525.213 223.503618 
L 523.9008 226.122069 
L 522.5886 228.26117 
L 520.839 230.677709 
L 518.652 233.253785 
L 516.465 235.499452 
L 513.8406 237.888283 
L 510.7788 240.36697 
L 507.2796 242.897331 
L 503.343 245.451363 
L 498.969 248.007843 
L 494.1576 250.550063 
L 488.9088 253.064343 
L 483.2226 255.539039 
L 477.099 257.96387 
L 470.538 260.329457 
L 463.1022 262.763604 
L 455.229 265.095735 
L 446.9184 267.320387 
L 438.1704 269.431424 
L 428.985 271.422042 
L 419.3622 273.28475 
L 409.302 275.011323 
L 398.8044 276.592729 
L 387.8694 278.019037 
L 376.497 279.27928 
L 364.6872 280.361302 
L 352.8774 281.223693 
L 340.6302 281.895256 
L 328.383 282.346804 
L 315.6984 282.587305 
L 303.0138 282.599111 
L 290.3292 282.382343 
L 278.082 281.954062 
L 265.8348 281.306357 
L 253.5876 280.432593 
L 241.7778 279.367197 
L 230.4054 278.123871 
L 219.033 276.654002 
L 208.098 275.011323 
L 197.6004 273.204711 
L 187.5402 271.241752 
L 178.3548 269.230174 
L 169.6068 267.096746 
L 161.2962 264.847964 
L 153.423 262.489583 
L 145.9872 260.026594 
L 139.4262 257.631136 
L 133.3026 255.173306 
L 127.6164 252.661839 
L 122.3676 250.106206 
L 117.5562 247.517037 
L 113.1822 244.906735 
L 109.2456 242.290407 
L 105.7464 239.687306 
L 102.6846 237.123118 
L 100.0602 234.633611 
L 97.8732 232.270382 
L 96.1236 230.109375 
L 94.374 227.586735 
L 93.0618 225.317258 
L 92.187 223.503618 
L 91.3122 221.255423 
L 90.4374 218.7675 
L 90 218.7675 
L 90 218.7675 
" style="fill:none;stroke:#2ca02c;stroke-linecap:square;stroke-width:4;"/>
   </g>
   <g id="line2d_5">
    <path clip-path="url(#pb954d85cc8)" d="M 90 310.5 
L 90 164.7 
" style="fill:none;stroke:#000000;stroke-dasharray:3.2,0.8,0.5,0.8;stroke-dashoffset:0;stroke-width:0.5;"/>
   </g>
   <g id="text_1">
    <!-- $o$ -->
    <g transform="translate(70.92 217.493437)scale(0.18 -0.18)">
     <defs>
      <path d="M 46.796875 30.09375 
Q 46.796875 24.40625 43.9375 18.25 
Q 41.09375 12.09375 36.203125 7.203125 
Q 27.90625 -1.09375 17.40625 -1.09375 
Q 10.40625 -1.09375 6.546875 2.546875 
Q 2.703125 6.203125 2.703125 12.796875 
Q 2.703125 21.09375 7.75 29 
Q 12.796875 36.90625 20.703125 41.09375 
Q 26.296875 44.09375 32.703125 44.09375 
Q 38.90625 44.09375 42.84375 40.34375 
Q 46.796875 36.59375 46.796875 30.09375 
z
M 38.40625 32.59375 
Q 38.40625 37.09375 36.5 39.546875 
Q 34.59375 42 31.296875 42 
Q 24.59375 42 18.5 32.90625 
Q 11.09375 21.59375 11.09375 10.09375 
Q 11.09375 5.703125 13.1875 3.34375 
Q 15.296875 1 18.90625 1 
Q 25 1 31 9.296875 
Q 34.40625 13.90625 36.40625 20.34375 
Q 38.40625 26.796875 38.40625 32.59375 
z
" id="STIXGeneral-Italic-111"/>
     </defs>
     <use transform="translate(0 0.90625)" xlink:href="#STIXGeneral-Italic-111"/>
    </g>
   </g>
   <g id="legend_1">
    <g id="line2d_6">
     <path d="M 157.72014 168.8625 
L 187.70814 168.8625 
" style="fill:none;stroke:#1f77b4;stroke-linecap:square;stroke-width:4;"/>
    </g>
    <g id="line2d_7"/>
    <g id="text_2">
     <!-- $AR$ = 3.0 -->
     <g transform="translate(199.70334 174.1104)scale(0.14994 -0.14994)">
      <defs>
       <path d="M 56.40625 0 
L 31.90625 0 
L 31.90625 1.59375 
Q 36.40625 1.796875 38 3 
Q 39.59375 4.203125 39.59375 6.90625 
Q 39.59375 7.703125 39.40625 9.5 
L 37.40625 22.59375 
L 15.40625 22.59375 
L 9.5 11.5 
Q 7.296875 7.40625 7.296875 4.90625 
Q 7.296875 1.90625 13.5 1.59375 
L 13.5 0 
L -5.09375 0 
L -5.09375 1.59375 
Q -1.703125 2.296875 0.4375 4.796875 
Q 2.59375 7.296875 8.296875 17.203125 
L 36.796875 66.796875 
L 39.40625 66.796875 
L 48.59375 11.5 
Q 49.59375 5.296875 51 3.59375 
Q 52.40625 1.90625 56.40625 1.59375 
z
M 36.90625 26.203125 
L 32.40625 52.5 
L 17.5 26.203125 
z
" id="STIXGeneral-Italic-65"/>
       <path d="M 13.203125 65.296875 
L 38.40625 65.296875 
Q 48.09375 65.296875 53.4375 61.5 
Q 58.796875 57.703125 58.796875 51.203125 
Q 58.796875 43.40625 52.203125 38.40625 
Q 48.296875 35.40625 39.09375 33.296875 
L 48 9.796875 
Q 49.703125 5.203125 51.546875 3.390625 
Q 53.40625 1.59375 56.703125 1.59375 
L 56.703125 0 
L 42 0 
L 29.703125 32.40625 
L 23.09375 32.90625 
L 17.59375 12.59375 
Q 16.296875 8 16.296875 6.296875 
Q 16.296875 4 17.59375 3 
Q 18.90625 2 23 1.59375 
L 23 0 
L -1.296875 0 
L -1.296875 1.59375 
Q 2.703125 2.09375 4.34375 3.796875 
Q 6 5.5 7.203125 10.09375 
L 19.09375 53.203125 
Q 20.296875 57.796875 20.296875 59.5 
Q 20.296875 61.296875 18.90625 62.296875 
Q 17.703125 63.09375 13.203125 63.703125 
z
M 30.59375 59.296875 
L 24.296875 36.59375 
Q 27.40625 36.09375 29.40625 36.09375 
Q 38.296875 36.09375 43.296875 40.09375 
Q 48.296875 44.09375 48.296875 51.09375 
Q 48.296875 56.296875 45.1875 59.296875 
Q 42.09375 62.296875 36.296875 62.296875 
Q 31.40625 62.296875 30.59375 59.296875 
z
" id="STIXGeneral-Italic-82"/>
       <path id="STIXGeneral-Regular-32"/>
       <path d="M 63.703125 32 
L 4.796875 32 
L 4.796875 38.59375 
L 63.703125 38.59375 
z
M 63.703125 12 
L 4.796875 12 
L 4.796875 18.59375 
L 63.703125 18.59375 
z
" id="STIXGeneral-Regular-61"/>
       <path d="M 6.09375 51 
L 4.5 51.40625 
Q 6.796875 58.90625 11.6875 63.25 
Q 16.59375 67.59375 24.09375 67.59375 
Q 31.09375 67.59375 35.390625 63.796875 
Q 39.703125 60 39.703125 53.90625 
Q 39.703125 45.703125 30.40625 40.09375 
Q 35.90625 37.703125 38.703125 34.796875 
Q 43.09375 29.90625 43.09375 21.90625 
Q 43.09375 13.90625 38.5 7.90625 
Q 35.09375 3.296875 28.75 0.9375 
Q 22.40625 -1.40625 15.296875 -1.40625 
Q 4.09375 -1.40625 4.09375 4.296875 
Q 4.09375 5.90625 5.296875 6.90625 
Q 6.5 7.90625 8.203125 7.90625 
Q 10.703125 7.90625 14.296875 5.296875 
Q 18.703125 2.203125 22.90625 2.203125 
Q 28.40625 2.203125 32.15625 6.640625 
Q 35.90625 11.09375 35.90625 17.5 
Q 35.90625 29 25.5 32 
Q 22.40625 33 15.296875 33 
L 15.296875 34.40625 
Q 20.90625 36.296875 23.703125 38 
Q 31.796875 42.59375 31.796875 51.40625 
Q 31.796875 56.40625 28.9375 59 
Q 26.09375 61.59375 21 61.59375 
Q 12 61.59375 6.09375 51 
z
" id="STIXGeneral-Regular-51"/>
       <path d="M 18.09375 4.296875 
Q 18.09375 2.09375 16.4375 0.5 
Q 14.796875 -1.09375 12.5 -1.09375 
Q 10.203125 -1.09375 8.59375 0.5 
Q 7 2.09375 7 4.390625 
Q 7 6.703125 8.640625 8.34375 
Q 10.296875 10 12.59375 10 
Q 14.796875 10 16.4375 8.296875 
Q 18.09375 6.59375 18.09375 4.296875 
z
" id="STIXGeneral-Regular-46"/>
       <path d="M 47.59375 33 
Q 47.59375 26.296875 46.296875 20.34375 
Q 45 14.40625 42.453125 9.40625 
Q 39.90625 4.40625 35.40625 1.5 
Q 30.90625 -1.40625 25 -1.40625 
Q 18.90625 -1.40625 14.296875 1.6875 
Q 9.703125 4.796875 7.203125 10 
Q 4.703125 15.203125 3.546875 21.09375 
Q 2.40625 27 2.40625 33.59375 
Q 2.40625 42.90625 4.703125 50.34375 
Q 7 57.796875 12.34375 62.6875 
Q 17.703125 67.59375 25.40625 67.59375 
Q 35.203125 67.59375 41.390625 58 
Q 47.59375 48.40625 47.59375 33 
z
M 38 32.5 
Q 38 48.296875 34.640625 56.640625 
Q 31.296875 65 24.796875 65 
Q 18.59375 65 15.296875 56.59375 
Q 12 48.203125 12 32.90625 
Q 12 17.5 15.296875 9.34375 
Q 18.59375 1.203125 25 1.203125 
Q 31.296875 1.203125 34.640625 9.34375 
Q 38 17.5 38 32.5 
z
" id="STIXGeneral-Regular-48"/>
      </defs>
      <use transform="translate(0 0.40625)" xlink:href="#STIXGeneral-Italic-65"/>
      <use transform="translate(61.099991 0.40625)" xlink:href="#STIXGeneral-Italic-82"/>
      <use transform="translate(122.199982 0.40625)" xlink:href="#STIXGeneral-Regular-32"/>
      <use transform="translate(147.199966 0.40625)" xlink:href="#STIXGeneral-Regular-61"/>
      <use transform="translate(215.699951 0.40625)" xlink:href="#STIXGeneral-Regular-32"/>
      <use transform="translate(240.699936 0.40625)" xlink:href="#STIXGeneral-Regular-51"/>
      <use transform="translate(290.699921 0.40625)" xlink:href="#STIXGeneral-Regular-46"/>
      <use transform="translate(315.699905 0.40625)" xlink:href="#STIXGeneral-Regular-48"/>
     </g>
    </g>
    <g id="line2d_8">
     <path d="M 284.56938 168.8625 
L 314.55738 168.8625 
" style="fill:none;stroke:#ff7f0e;stroke-linecap:square;stroke-width:4;"/>
    </g>
    <g id="line2d_9"/>
    <g id="text_3">
     <!-- $AR$ = 4.5 -->
     <g transform="translate(326.55258 174.1104)scale(0.14994 -0.14994)">
      <defs>
       <path d="M 47.296875 16.703125 
L 37 16.703125 
L 37 0 
L 29.203125 0 
L 29.203125 16.703125 
L 1.203125 16.703125 
L 1.203125 23.09375 
L 32.59375 67.59375 
L 37 67.59375 
L 37 23.09375 
L 47.296875 23.09375 
z
M 29.203125 23.09375 
L 29.203125 57.40625 
L 5.203125 23.09375 
z
" id="STIXGeneral-Regular-52"/>
       <path d="M 43.796875 68.09375 
L 40.203125 59.59375 
Q 39.59375 58.296875 37.5 58.296875 
L 18.09375 58.296875 
L 14.09375 49.796875 
Q 25.09375 47.703125 30 45.25 
Q 34.90625 42.796875 39.09375 37 
Q 42.59375 32.203125 42.59375 24.296875 
Q 42.59375 17.09375 40.25 12.1875 
Q 37.90625 7.296875 32.796875 3.5 
Q 26 -1.40625 15.796875 -1.40625 
Q 10.09375 -1.40625 6.59375 0.296875 
Q 3.09375 2 3.09375 4.796875 
Q 3.09375 8.59375 7.59375 8.59375 
Q 11.203125 8.59375 15 5.5 
Q 18.90625 2.296875 22.09375 2.296875 
Q 27.296875 2.296875 31.4375 7.5 
Q 35.59375 12.703125 35.59375 19.203125 
Q 35.59375 28.796875 28.90625 34.203125 
Q 20.203125 41.203125 7.59375 41.203125 
Q 6.40625 41.203125 6.40625 42 
L 6.5 42.5 
L 17.40625 66.203125 
L 38.09375 66.203125 
Q 39.796875 66.203125 40.75 66.703125 
Q 41.703125 67.203125 42.90625 68.796875 
z
" id="STIXGeneral-Regular-53"/>
      </defs>
      <use transform="translate(0 0.203125)" xlink:href="#STIXGeneral-Italic-65"/>
      <use transform="translate(61.099991 0.203125)" xlink:href="#STIXGeneral-Italic-82"/>
      <use transform="translate(122.199982 0.203125)" xlink:href="#STIXGeneral-Regular-32"/>
      <use transform="translate(147.199966 0.203125)" xlink:href="#STIXGeneral-Regular-61"/>
      <use transform="translate(215.699951 0.203125)" xlink:href="#STIXGeneral-Regular-32"/>
      <use transform="translate(240.699936 0.203125)" xlink:href="#STIXGeneral-Regular-52"/>
      <use transform="translate(290.699921 0.203125)" xlink:href="#STIXGeneral-Regular-46"/>
      <use transform="translate(315.699905 0.203125)" xlink:href="#STIXGeneral-Regular-53"/>
     </g>
    </g>
    <g id="line2d_10">
     <path d="M 411.41862 168.8625 
L 441.40662 168.8625 
" style="fill:none;stroke:#2ca02c;stroke-linecap:square;stroke-width:4;"/>
    </g>
    <g id="line2d_11"/>
    <g id="text_4">
     <!-- $AR$ = 6.0 -->
     <g transform="translate(453.40182 174.1104)scale(0.14994 -0.14994)">
      <defs>
       <path d="M 44.59375 68.40625 
L 44.796875 66.796875 
Q 33 64.90625 25.09375 57.25 
Q 17.203125 49.59375 15.203125 38.296875 
Q 21 42.796875 27.90625 42.796875 
Q 36.703125 42.796875 41.75 37.1875 
Q 46.796875 31.59375 46.796875 21.90625 
Q 46.796875 12.09375 41.703125 5.90625 
Q 35.796875 -1.40625 25.796875 -1.40625 
Q 13.59375 -1.40625 8.09375 8.703125 
Q 3.40625 17.296875 3.40625 27.90625 
Q 3.40625 44.296875 14.296875 55.5 
Q 20.5 61.90625 27.046875 64.546875 
Q 33.59375 67.203125 44.59375 68.40625 
z
M 37.796875 18.796875 
Q 37.796875 38.203125 24.296875 38.203125 
Q 19.296875 38.203125 16 35.546875 
Q 12.703125 32.90625 12.703125 26.59375 
Q 12.703125 14.90625 16.34375 8.15625 
Q 20 1.40625 26.90625 1.40625 
Q 32.203125 1.40625 35 6.15625 
Q 37.796875 10.90625 37.796875 18.796875 
z
" id="STIXGeneral-Regular-54"/>
      </defs>
      <use transform="translate(0 0.59375)" xlink:href="#STIXGeneral-Italic-65"/>
      <use transform="translate(61.099991 0.59375)" xlink:href="#STIXGeneral-Italic-82"/>
      <use transform="translate(122.199982 0.59375)" xlink:href="#STIXGeneral-Regular-32"/>
      <use transform="translate(147.199966 0.59375)" xlink:href="#STIXGeneral-Regular-61"/>
      <use transform="translate(215.699951 0.59375)" xlink:href="#STIXGeneral-Regular-32"/>
      <use transform="translate(240.699936 0.59375)" xlink:href="#STIXGeneral-Regular-54"/>
      <use transform="translate(290.699921 0.59375)" xlink:href="#STIXGeneral-Regular-46"/>
      <use transform="translate(315.699905 0.59375)" xlink:href="#STIXGeneral-Regular-48"/>
     </g>
    </g>
   </g>
  </g>
 </g>
 <defs>
  <clipPath id="pb954d85cc8">
   <rect height="145.8" width="486" x="90" y="164.7"/>
  </clipPath>
 </defs>
</svg>
