<?xml version="1.0" encoding="utf-8" standalone="no"?>
<!DOCTYPE svg PUBLIC "-//W3C//DTD SVG 1.1//EN"
  "http://www.w3.org/Graphics/SVG/1.1/DTD/svg11.dtd">
<!-- Created with matplotlib (https://matplotlib.org/) -->
<svg height="288pt" version="1.1" viewBox="0 0 864 288" width="864pt" xmlns="http://www.w3.org/2000/svg" xmlns:xlink="http://www.w3.org/1999/xlink">
 <metadata>
  <rdf:RDF xmlns:cc="http://creativecommons.org/ns#" xmlns:dc="http://purl.org/dc/elements/1.1/" xmlns:rdf="http://www.w3.org/1999/02/22-rdf-syntax-ns#">
   <cc:Work>
    <dc:type rdf:resource="http://purl.org/dc/dcmitype/StillImage"/>
    <dc:date>2021-11-09T11:42:58.421533</dc:date>
    <dc:format>image/svg+xml</dc:format>
    <dc:creator>
     <cc:Agent>
      <dc:title>Matplotlib v3.3.4, https://matplotlib.org/</dc:title>
     </cc:Agent>
    </dc:creator>
   </cc:Work>
  </rdf:RDF>
 </metadata>
 <defs>
  <style type="text/css">*{stroke-linecap:butt;stroke-linejoin:round;}</style>
 </defs>
 <g id="figure_1">
  <g id="patch_1">
   <path d="M 0 288 
L 864 288 
L 864 0 
L 0 0 
z
" style="fill:#ffffff;"/>
  </g>
  <g id="axes_1">
   <g id="patch_2">
    <path d="M 108 230.4 
L 412.363636 230.4 
L 412.363636 57.6 
L 108 57.6 
z
" style="fill:#ffffff;"/>
   </g>
   <g id="matplotlib.axis_1">
    <g id="xtick_1">
     <g id="line2d_1">
      <defs>
       <path d="M 0 0 
L 0 3.5 
" id="m8a76d985b3" style="stroke:#000000;stroke-width:0.8;"/>
      </defs>
      <g>
       <use style="fill:#ffffff;stroke:#000000;stroke-width:0.8;" x="108" xlink:href="#m8a76d985b3" y="230.4"/>
      </g>
     </g>
     <g id="text_1">
      <!-- 4.0 -->
      <g transform="translate(96.75 249.693438)scale(0.18 -0.18)">
       <defs>
        <path d="M 47.296875 16.703125 
L 37 16.703125 
L 37 0 
L 29.203125 0 
L 29.203125 16.703125 
L 1.203125 16.703125 
L 1.203125 23.09375 
L 32.59375 67.59375 
L 37 67.59375 
L 37 23.09375 
L 47.296875 23.09375 
z
M 29.203125 23.09375 
L 29.203125 57.40625 
L 5.203125 23.09375 
z
" id="STIXGeneral-Regular-52"/>
        <path d="M 18.09375 4.296875 
Q 18.09375 2.09375 16.4375 0.5 
Q 14.796875 -1.09375 12.5 -1.09375 
Q 10.203125 -1.09375 8.59375 0.5 
Q 7 2.09375 7 4.390625 
Q 7 6.703125 8.640625 8.34375 
Q 10.296875 10 12.59375 10 
Q 14.796875 10 16.4375 8.296875 
Q 18.09375 6.59375 18.09375 4.296875 
z
" id="STIXGeneral-Regular-46"/>
        <path d="M 47.59375 33 
Q 47.59375 26.296875 46.296875 20.34375 
Q 45 14.40625 42.453125 9.40625 
Q 39.90625 4.40625 35.40625 1.5 
Q 30.90625 -1.40625 25 -1.40625 
Q 18.90625 -1.40625 14.296875 1.6875 
Q 9.703125 4.796875 7.203125 10 
Q 4.703125 15.203125 3.546875 21.09375 
Q 2.40625 27 2.40625 33.59375 
Q 2.40625 42.90625 4.703125 50.34375 
Q 7 57.796875 12.34375 62.6875 
Q 17.703125 67.59375 25.40625 67.59375 
Q 35.203125 67.59375 41.390625 58 
Q 47.59375 48.40625 47.59375 33 
z
M 38 32.5 
Q 38 48.296875 34.640625 56.640625 
Q 31.296875 65 24.796875 65 
Q 18.59375 65 15.296875 56.59375 
Q 12 48.203125 12 32.90625 
Q 12 17.5 15.296875 9.34375 
Q 18.59375 1.203125 25 1.203125 
Q 31.296875 1.203125 34.640625 9.34375 
Q 38 17.5 38 32.5 
z
" id="STIXGeneral-Regular-48"/>
       </defs>
       <use xlink:href="#STIXGeneral-Regular-52"/>
       <use x="49.999985" xlink:href="#STIXGeneral-Regular-46"/>
       <use x="74.999969" xlink:href="#STIXGeneral-Regular-48"/>
      </g>
     </g>
    </g>
    <g id="xtick_2">
     <g id="line2d_2">
      <g>
       <use style="fill:#ffffff;stroke:#000000;stroke-width:0.8;" x="168.872727" xlink:href="#m8a76d985b3" y="230.4"/>
      </g>
     </g>
     <g id="text_2">
      <!-- 4.2 -->
      <g transform="translate(157.622727 249.693438)scale(0.18 -0.18)">
       <defs>
        <path d="M 47.40625 13.703125 
L 42 0 
L 2.90625 0 
L 2.90625 1.203125 
L 20.703125 20.09375 
Q 27.703125 27.40625 30.703125 33.5 
Q 33.703125 39.59375 33.703125 46.09375 
Q 33.703125 52.796875 30 56.5 
Q 26.296875 60.203125 19.796875 60.203125 
Q 14.40625 60.203125 11.25 57.390625 
Q 8.09375 54.59375 5.09375 47.203125 
L 3 47.703125 
Q 4.703125 57 9.84375 62.296875 
Q 15 67.59375 23.796875 67.59375 
Q 32.09375 67.59375 37.1875 62.59375 
Q 42.296875 57.59375 42.296875 50 
Q 42.296875 38.703125 29.5 25.203125 
L 13 7.59375 
L 36.40625 7.59375 
Q 39.703125 7.59375 41.640625 8.890625 
Q 43.59375 10.203125 46 14.296875 
z
" id="STIXGeneral-Regular-50"/>
       </defs>
       <use xlink:href="#STIXGeneral-Regular-52"/>
       <use x="49.999985" xlink:href="#STIXGeneral-Regular-46"/>
       <use x="74.999969" xlink:href="#STIXGeneral-Regular-50"/>
      </g>
     </g>
    </g>
    <g id="xtick_3">
     <g id="line2d_3">
      <g>
       <use style="fill:#ffffff;stroke:#000000;stroke-width:0.8;" x="229.745455" xlink:href="#m8a76d985b3" y="230.4"/>
      </g>
     </g>
     <g id="text_3">
      <!-- 4.4 -->
      <g transform="translate(218.495455 249.693438)scale(0.18 -0.18)">
       <use xlink:href="#STIXGeneral-Regular-52"/>
       <use x="49.999985" xlink:href="#STIXGeneral-Regular-46"/>
       <use x="74.999969" xlink:href="#STIXGeneral-Regular-52"/>
      </g>
     </g>
    </g>
    <g id="xtick_4">
     <g id="line2d_4">
      <g>
       <use style="fill:#ffffff;stroke:#000000;stroke-width:0.8;" x="290.618182" xlink:href="#m8a76d985b3" y="230.4"/>
      </g>
     </g>
     <g id="text_4">
      <!-- 4.6 -->
      <g transform="translate(279.368182 249.693438)scale(0.18 -0.18)">
       <defs>
        <path d="M 44.59375 68.40625 
L 44.796875 66.796875 
Q 33 64.90625 25.09375 57.25 
Q 17.203125 49.59375 15.203125 38.296875 
Q 21 42.796875 27.90625 42.796875 
Q 36.703125 42.796875 41.75 37.1875 
Q 46.796875 31.59375 46.796875 21.90625 
Q 46.796875 12.09375 41.703125 5.90625 
Q 35.796875 -1.40625 25.796875 -1.40625 
Q 13.59375 -1.40625 8.09375 8.703125 
Q 3.40625 17.296875 3.40625 27.90625 
Q 3.40625 44.296875 14.296875 55.5 
Q 20.5 61.90625 27.046875 64.546875 
Q 33.59375 67.203125 44.59375 68.40625 
z
M 37.796875 18.796875 
Q 37.796875 38.203125 24.296875 38.203125 
Q 19.296875 38.203125 16 35.546875 
Q 12.703125 32.90625 12.703125 26.59375 
Q 12.703125 14.90625 16.34375 8.15625 
Q 20 1.40625 26.90625 1.40625 
Q 32.203125 1.40625 35 6.15625 
Q 37.796875 10.90625 37.796875 18.796875 
z
" id="STIXGeneral-Regular-54"/>
       </defs>
       <use xlink:href="#STIXGeneral-Regular-52"/>
       <use x="49.999985" xlink:href="#STIXGeneral-Regular-46"/>
       <use x="74.999969" xlink:href="#STIXGeneral-Regular-54"/>
      </g>
     </g>
    </g>
    <g id="xtick_5">
     <g id="line2d_5">
      <g>
       <use style="fill:#ffffff;stroke:#000000;stroke-width:0.8;" x="351.490909" xlink:href="#m8a76d985b3" y="230.4"/>
      </g>
     </g>
     <g id="text_5">
      <!-- 4.8 -->
      <g transform="translate(340.240909 249.693438)scale(0.18 -0.18)">
       <defs>
        <path d="M 44.5 15.5 
Q 44.5 7.796875 39.140625 3.1875 
Q 33.796875 -1.40625 24.796875 -1.40625 
Q 16.40625 -1.40625 11 3.1875 
Q 5.59375 7.796875 5.59375 14.90625 
Q 5.59375 20.203125 8.1875 23.953125 
Q 10.796875 27.703125 18.59375 33.203125 
Q 11.09375 39.40625 8.640625 43.203125 
Q 6.203125 47 6.203125 52 
Q 6.203125 59.09375 11.640625 63.34375 
Q 17.09375 67.59375 25.59375 67.59375 
Q 32.90625 67.59375 37.65625 63.4375 
Q 42.40625 59.296875 42.40625 53.296875 
Q 42.40625 47.796875 39.546875 44.5 
Q 36.703125 41.203125 29 37.09375 
Q 38 31.09375 41.25 26.390625 
Q 44.5 21.703125 44.5 15.5 
z
M 35.5 53.296875 
Q 35.5 58.5 32.59375 61.640625 
Q 29.703125 64.796875 24.59375 64.796875 
Q 19.5 64.796875 16.546875 62.140625 
Q 13.59375 59.5 13.59375 54.890625 
Q 13.59375 50.296875 16.546875 46.546875 
Q 19.5 42.796875 26.09375 38.90625 
Q 31.203125 41.90625 33.34375 45.25 
Q 35.5 48.59375 35.5 53.296875 
z
M 27.09375 27.203125 
L 21.203125 31.203125 
Q 16.796875 27.59375 15 24.140625 
Q 13.203125 20.703125 13.203125 15.796875 
Q 13.203125 9 16.640625 5.203125 
Q 20.09375 1.40625 25.90625 1.40625 
Q 30.796875 1.40625 33.84375 4.453125 
Q 36.90625 7.5 36.90625 12.40625 
Q 36.90625 16.90625 34.59375 20.296875 
Q 32.296875 23.703125 27.09375 27.203125 
z
" id="STIXGeneral-Regular-56"/>
       </defs>
       <use xlink:href="#STIXGeneral-Regular-52"/>
       <use x="49.999985" xlink:href="#STIXGeneral-Regular-46"/>
       <use x="74.999969" xlink:href="#STIXGeneral-Regular-56"/>
      </g>
     </g>
    </g>
    <g id="xtick_6">
     <g id="line2d_6">
      <g>
       <use style="fill:#ffffff;stroke:#000000;stroke-width:0.8;" x="412.363636" xlink:href="#m8a76d985b3" y="230.4"/>
      </g>
     </g>
     <g id="text_6">
      <!-- 5.0 -->
      <g transform="translate(401.113636 249.693438)scale(0.18 -0.18)">
       <defs>
        <path d="M 43.796875 68.09375 
L 40.203125 59.59375 
Q 39.59375 58.296875 37.5 58.296875 
L 18.09375 58.296875 
L 14.09375 49.796875 
Q 25.09375 47.703125 30 45.25 
Q 34.90625 42.796875 39.09375 37 
Q 42.59375 32.203125 42.59375 24.296875 
Q 42.59375 17.09375 40.25 12.1875 
Q 37.90625 7.296875 32.796875 3.5 
Q 26 -1.40625 15.796875 -1.40625 
Q 10.09375 -1.40625 6.59375 0.296875 
Q 3.09375 2 3.09375 4.796875 
Q 3.09375 8.59375 7.59375 8.59375 
Q 11.203125 8.59375 15 5.5 
Q 18.90625 2.296875 22.09375 2.296875 
Q 27.296875 2.296875 31.4375 7.5 
Q 35.59375 12.703125 35.59375 19.203125 
Q 35.59375 28.796875 28.90625 34.203125 
Q 20.203125 41.203125 7.59375 41.203125 
Q 6.40625 41.203125 6.40625 42 
L 6.5 42.5 
L 17.40625 66.203125 
L 38.09375 66.203125 
Q 39.796875 66.203125 40.75 66.703125 
Q 41.703125 67.203125 42.90625 68.796875 
z
" id="STIXGeneral-Regular-53"/>
       </defs>
       <use xlink:href="#STIXGeneral-Regular-53"/>
       <use x="49.999985" xlink:href="#STIXGeneral-Regular-46"/>
       <use x="74.999969" xlink:href="#STIXGeneral-Regular-48"/>
      </g>
     </g>
    </g>
    <g id="text_7">
     <!-- $\^t$ -->
     <g transform="translate(257.661818 269.893438)scale(0.18 -0.18)">
      <defs>
       <path d="M -7.5 50.703125 
L -10.90625 50.703125 
L -23.09375 61 
L -35.203125 50.703125 
L -38.59375 50.703125 
L -26.203125 67.40625 
L -20 67.40625 
z
" id="STIXGeneral-Regular-770"/>
       <path d="M 29.59375 42.796875 
L 29.09375 39.59375 
L 20.703125 39.59375 
L 12 6.796875 
Q 11.796875 6 11.796875 5.40625 
Q 11.796875 3.796875 13.296875 3.796875 
Q 14.5 3.796875 16.09375 5.34375 
Q 17.703125 6.90625 21.40625 11.703125 
L 22.703125 11 
Q 18.09375 4 15.140625 1.453125 
Q 12.203125 -1.09375 8.40625 -1.09375 
Q 3.796875 -1.09375 3.796875 2.59375 
Q 3.796875 3.59375 5.40625 10 
L 13.203125 39.59375 
L 5.703125 39.59375 
L 5.59375 40.203125 
Q 5.59375 42 8.90625 42.703125 
Q 11.40625 43.296875 15.5 46.546875 
Q 19.59375 49.796875 22.203125 53.703125 
Q 22.796875 54.59375 23.59375 54.59375 
Q 24.5 54.59375 24.5 53.796875 
Q 24.5 53.296875 24.40625 53.09375 
L 21.59375 42.796875 
z
" id="STIXGeneral-Italic-116"/>
      </defs>
      <use transform="translate(39.042969 16.59375)" xlink:href="#STIXGeneral-Regular-770"/>
      <use transform="translate(0 0.203125)" xlink:href="#STIXGeneral-Italic-116"/>
     </g>
    </g>
   </g>
   <g id="matplotlib.axis_2">
    <g id="ytick_1">
     <g id="line2d_7">
      <defs>
       <path d="M 0 0 
L -3.5 0 
" id="mbb6d1bd2e4" style="stroke:#000000;stroke-width:0.8;"/>
      </defs>
      <g>
       <use style="fill:#ffffff;stroke:#000000;stroke-width:0.8;" x="108" xlink:href="#mbb6d1bd2e4" y="207.048649"/>
      </g>
     </g>
     <g id="text_8">
      <!-- 0 -->
      <g transform="translate(92 213.195367)scale(0.18 -0.18)">
       <use xlink:href="#STIXGeneral-Regular-48"/>
      </g>
     </g>
    </g>
    <g id="ytick_2">
     <g id="line2d_8">
      <g>
       <use style="fill:#ffffff;stroke:#000000;stroke-width:0.8;" x="108" xlink:href="#mbb6d1bd2e4" y="160.345946"/>
      </g>
     </g>
     <g id="text_9">
      <!-- 1 -->
      <g transform="translate(92 166.492665)scale(0.18 -0.18)">
       <defs>
        <path d="M 39.40625 0 
L 11.796875 0 
L 11.796875 1.5 
Q 17.296875 1.796875 19.296875 3.546875 
Q 21.296875 5.296875 21.296875 9.5 
L 21.296875 54.40625 
Q 21.296875 59.296875 18.296875 59.296875 
Q 16.90625 59.296875 13.796875 58.09375 
L 11.09375 57.09375 
L 11.09375 58.5 
L 29 67.59375 
L 29.90625 67.296875 
L 29.90625 7.59375 
Q 29.90625 4.296875 31.90625 2.890625 
Q 33.90625 1.5 39.40625 1.5 
z
" id="STIXGeneral-Regular-49"/>
       </defs>
       <use xlink:href="#STIXGeneral-Regular-49"/>
      </g>
     </g>
    </g>
    <g id="ytick_3">
     <g id="line2d_9">
      <g>
       <use style="fill:#ffffff;stroke:#000000;stroke-width:0.8;" x="108" xlink:href="#mbb6d1bd2e4" y="113.643243"/>
      </g>
     </g>
     <g id="text_10">
      <!-- 2 -->
      <g transform="translate(92 119.789962)scale(0.18 -0.18)">
       <use xlink:href="#STIXGeneral-Regular-50"/>
      </g>
     </g>
    </g>
    <g id="ytick_4">
     <g id="line2d_10">
      <g>
       <use style="fill:#ffffff;stroke:#000000;stroke-width:0.8;" x="108" xlink:href="#mbb6d1bd2e4" y="66.940541"/>
      </g>
     </g>
     <g id="text_11">
      <!-- 3 -->
      <g transform="translate(92 73.087259)scale(0.18 -0.18)">
       <defs>
        <path d="M 6.09375 51 
L 4.5 51.40625 
Q 6.796875 58.90625 11.6875 63.25 
Q 16.59375 67.59375 24.09375 67.59375 
Q 31.09375 67.59375 35.390625 63.796875 
Q 39.703125 60 39.703125 53.90625 
Q 39.703125 45.703125 30.40625 40.09375 
Q 35.90625 37.703125 38.703125 34.796875 
Q 43.09375 29.90625 43.09375 21.90625 
Q 43.09375 13.90625 38.5 7.90625 
Q 35.09375 3.296875 28.75 0.9375 
Q 22.40625 -1.40625 15.296875 -1.40625 
Q 4.09375 -1.40625 4.09375 4.296875 
Q 4.09375 5.90625 5.296875 6.90625 
Q 6.5 7.90625 8.203125 7.90625 
Q 10.703125 7.90625 14.296875 5.296875 
Q 18.703125 2.203125 22.90625 2.203125 
Q 28.40625 2.203125 32.15625 6.640625 
Q 35.90625 11.09375 35.90625 17.5 
Q 35.90625 29 25.5 32 
Q 22.40625 33 15.296875 33 
L 15.296875 34.40625 
Q 20.90625 36.296875 23.703125 38 
Q 31.796875 42.59375 31.796875 51.40625 
Q 31.796875 56.40625 28.9375 59 
Q 26.09375 61.59375 21 61.59375 
Q 12 61.59375 6.09375 51 
z
" id="STIXGeneral-Regular-51"/>
       </defs>
       <use xlink:href="#STIXGeneral-Regular-51"/>
      </g>
     </g>
    </g>
    <g id="text_12">
     <!-- $C_L$ -->
     <g transform="translate(84.093437 153.99)rotate(-90)scale(0.18 -0.18)">
      <defs>
       <path d="M 68.90625 66.40625 
L 65.203125 46.40625 
L 63.40625 46.703125 
Q 61.59375 63 48.5 63 
Q 37.59375 63 28.59375 53.296875 
Q 23.296875 47.703125 20.546875 39.703125 
Q 17.796875 31.703125 17.796875 23.203125 
Q 17.796875 2.703125 35.296875 2.703125 
Q 41.5 2.703125 46.640625 5.296875 
Q 51.796875 7.90625 58.203125 14.59375 
L 60 13.09375 
Q 53.296875 5.203125 46.84375 1.703125 
Q 40.40625 -1.796875 32.703125 -1.796875 
Q 21 -1.796875 13.796875 5.140625 
Q 6.59375 12.09375 6.59375 24.296875 
Q 6.59375 34.59375 11.6875 43.9375 
Q 16.796875 53.296875 25.296875 59.296875 
Q 35.5 66.59375 47.203125 66.59375 
Q 54.09375 66.59375 58.90625 64.90625 
Q 60.90625 64.203125 63 64.203125 
Q 65.703125 64.203125 66.796875 66.40625 
z
" id="STIXGeneral-Italic-67"/>
       <path d="M 55.90625 18 
L 50.09375 0 
L -0.796875 0 
L -0.796875 1.59375 
Q 3.40625 2 4.703125 3.296875 
Q 6 4.59375 7.40625 9.40625 
L 19.59375 53.203125 
Q 20.703125 56.90625 20.703125 59.40625 
Q 20.703125 61.59375 19.140625 62.5 
Q 17.59375 63.40625 13 63.703125 
L 13 65.296875 
L 40.296875 65.296875 
L 40.296875 63.703125 
Q 35.703125 63.40625 33.546875 61.796875 
Q 31.40625 60.203125 30.203125 56 
L 18.203125 13.09375 
Q 17.203125 9.296875 17.203125 7.703125 
Q 17.203125 5.40625 19.390625 4.5 
Q 21.59375 3.59375 27.703125 3.59375 
Q 35.40625 3.59375 38.75 4.296875 
Q 42.09375 5 45.703125 7.40625 
Q 49.796875 10.09375 53.90625 18.59375 
z
" id="STIXGeneral-Italic-76"/>
      </defs>
      <use transform="translate(0 0.40625)" xlink:href="#STIXGeneral-Italic-67"/>
      <use transform="translate(66.699997 -12.821875)scale(0.7)" xlink:href="#STIXGeneral-Italic-76"/>
     </g>
    </g>
   </g>
   <g id="line2d_11">
    <path clip-path="url(#p394c117d0a)" d="M 107.695636 224.119068 
L 108.304364 223.13209 
L 108.913091 221.658521 
L 109.826182 218.613129 
L 110.739273 214.670731 
L 111.956727 208.277925 
L 113.478545 199.003194 
L 118.652727 166.233652 
L 120.174545 158.283755 
L 121.696364 151.539875 
L 123.218182 146.022725 
L 124.435636 142.351909 
L 125.044364 140.997535 
L 126.261818 138.241408 
L 126.566182 137.080685 
L 126.870545 136.804391 
L 127.479273 135.624567 
L 128.088 134.051187 
L 131.436 127.175262 
L 133.566545 123.107938 
L 134.784 121.22764 
L 135.697091 120.17832 
L 136.610182 119.549455 
L 137.218909 119.395849 
L 137.827636 119.496767 
L 138.436364 119.869569 
L 139.045091 120.54484 
L 139.653818 121.551393 
L 140.262545 122.906446 
L 141.175636 125.62925 
L 142.088727 129.250139 
L 143.001818 133.796733 
L 144.219273 141.415781 
L 145.436727 150.837703 
L 146.045455 156.285617 
L 146.349818 157.636947 
L 146.654182 154.964316 
L 146.958545 153.940062 
L 147.567273 152.698744 
L 149.393455 148.834322 
L 151.219636 145.479323 
L 153.350182 142.073109 
L 155.785091 138.643867 
L 158.524364 135.216565 
L 161.263636 132.159341 
L 164.002909 129.395775 
L 166.742182 126.894656 
L 170.090182 124.161194 
L 172.829455 122.151946 
L 177.090545 119.43247 
L 181.047273 117.283514 
L 184.699636 115.564822 
L 188.656364 113.92848 
L 194.134909 111.998238 
L 198.091636 110.798976 
L 203.874545 109.344151 
L 208.744364 108.344566 
L 214.527273 107.431193 
L 219.092727 106.894866 
L 222.136364 106.618911 
L 222.440727 106.182822 
L 223.049455 103.442985 
L 224.266909 98.872637 
L 229.745455 77.69113 
L 230.962909 74.007019 
L 231.876 71.763891 
L 232.789091 70.058269 
L 233.397818 69.267356 
L 234.006545 68.7606 
L 234.615273 68.567195 
L 235.224 68.702991 
L 235.832727 69.187818 
L 236.441455 70.03181 
L 237.050182 71.231143 
L 237.658909 72.811294 
L 238.572 75.870641 
L 239.485091 79.786021 
L 240.398182 84.489997 
L 241.615636 92.015258 
L 242.833091 100.88379 
L 244.354909 113.601317 
L 246.181091 130.76843 
L 249.833455 168.023358 
L 252.268364 191.53996 
L 253.790182 204.085291 
L 255.007636 212.289176 
L 255.920727 217.181914 
L 256.833818 220.882922 
L 257.442545 222.654393 
L 258.051273 223.859993 
L 258.66 224.494679 
L 258.964364 224.601861 
L 259.268727 224.572348 
L 259.573091 224.40498 
L 260.181818 223.674286 
L 260.790545 222.432574 
L 261.399273 220.710063 
L 262.312364 217.314972 
L 263.225455 213.072689 
L 264.442909 206.361685 
L 267.486545 186.714251 
L 270.530182 167.651967 
L 272.052 159.452318 
L 273.573818 152.457823 
L 274.486909 149.16824 
L 276.313091 142.812984 
L 277.834909 139.269024 
L 278.748 136.883753 
L 280.878545 132.534037 
L 286.052727 122.543956 
L 286.965818 121.156143 
L 287.878909 120.102171 
L 288.792 119.440586 
L 289.400727 119.265554 
L 290.009455 119.33337 
L 290.618182 119.665507 
L 291.226909 120.301195 
L 291.835636 121.258615 
L 292.444364 122.55426 
L 293.357455 125.189296 
L 294.270545 128.719284 
L 295.183636 133.178233 
L 296.096727 138.644078 
L 297.314182 147.495947 
L 298.531636 156.725922 
L 298.836 154.046995 
L 299.140364 152.992455 
L 299.749091 151.717901 
L 301.575273 147.771199 
L 303.401455 144.356729 
L 305.532 140.897273 
L 307.966909 137.43961 
L 310.706182 134.009012 
L 313.141091 131.284804 
L 315.880364 128.508851 
L 319.228364 125.472967 
L 323.489455 122.14565 
L 326.837455 119.881047 
L 330.185455 117.897838 
L 333.837818 116.015152 
L 337.794545 114.2525 
L 342.664364 112.387809 
L 347.838545 110.724714 
L 352.099636 109.585161 
L 355.752 108.766445 
L 359.708727 108.031489 
L 364.578545 107.351536 
L 370.665818 106.790734 
L 374.318182 106.616512 
L 374.622545 106.188705 
L 375.231273 103.480046 
L 376.448727 98.967061 
L 381.927273 78.043546 
L 383.144727 74.40487 
L 384.057818 72.19408 
L 384.970909 70.518639 
L 385.579636 69.742853 
L 386.188364 69.252913 
L 386.797091 69.07572 
L 387.405818 69.22144 
L 388.014545 69.710703 
L 388.623273 70.560962 
L 389.232 71.776758 
L 389.840727 73.358472 
L 390.753818 76.437073 
L 391.666909 80.36484 
L 392.884364 86.840877 
L 394.101818 94.728737 
L 395.623636 106.387912 
L 397.449818 122.541729 
L 399.884727 146.643622 
L 403.841455 186.326709 
L 405.363273 199.619624 
L 406.580727 208.638744 
L 407.798182 215.867294 
L 408.711273 219.957673 
L 409.32 222.009951 
L 409.928727 223.502076 
L 410.537455 224.427013 
L 411.146182 224.788873 
L 411.450545 224.766433 
L 411.754909 224.609529 
L 412.363636 223.902752 
L 412.363636 223.902752 
" style="fill:none;stroke:#1f77b4;stroke-linecap:square;stroke-width:2.5;"/>
   </g>
   <g id="line2d_12">
    <path clip-path="url(#p394c117d0a)" d="M 107.695636 207.845251 
L 108.913091 204.296708 
L 110.130545 200.066334 
L 111.956727 192.812162 
L 115.913455 176.757697 
L 117.739636 170.282335 
L 119.870182 163.771098 
L 123.522545 155.747209 
L 123.826909 155.217816 
L 124.131273 155.156768 
L 124.74 154.358795 
L 132.957818 142.222676 
L 135.697091 137.038172 
L 138.740727 131.221157 
L 139.958182 129.352883 
L 140.871273 128.284923 
L 141.784364 127.600713 
L 142.393091 127.383746 
L 143.001818 127.371773 
L 143.610545 127.575839 
L 144.219273 128.00671 
L 144.828 128.67875 
L 145.436727 129.597236 
L 146.045455 130.787123 
L 146.349818 130.937443 
L 146.654182 129.717218 
L 147.262909 128.585939 
L 148.784727 126.139753 
L 150.610909 123.666155 
L 152.437091 121.6114 
L 154.263273 119.90958 
L 156.089455 118.493207 
L 158.22 117.140108 
L 160.350545 116.044231 
L 163.089818 114.91748 
L 166.437818 113.816297 
L 171.307636 112.48609 
L 177.090545 111.165115 
L 182.264727 110.190877 
L 187.134545 109.440144 
L 194.743636 108.53847 
L 200.222182 108.059993 
L 206.309455 107.72251 
L 211.788 107.585763 
L 218.179636 107.59942 
L 222.440727 107.737002 
L 223.353818 108.0364 
L 225.788727 108.789387 
L 227.614909 109.689167 
L 228.832364 110.529961 
L 230.049818 111.649003 
L 231.267273 113.107876 
L 232.180364 114.451611 
L 233.397818 116.621789 
L 234.615273 119.321256 
L 235.832727 122.593293 
L 237.050182 126.476478 
L 238.267636 131.032621 
L 239.789455 137.59231 
L 241.615636 146.689442 
L 243.746182 158.719655 
L 249.833455 194.659303 
L 251.355273 201.713734 
L 252.572727 206.259998 
L 253.485818 208.924956 
L 254.398909 210.884337 
L 255.007636 211.796311 
L 255.616364 212.373056 
L 256.225091 212.627358 
L 256.833818 212.560388 
L 257.442545 212.178423 
L 258.051273 211.494293 
L 258.66 210.525236 
L 259.573091 208.578308 
L 260.790545 205.130378 
L 262.008 200.994826 
L 264.138545 192.539391 
L 269.312727 172.355218 
L 271.138909 166.494361 
L 272.965091 161.689009 
L 275.095636 156.975109 
L 276.008727 155.491566 
L 276.313091 155.015051 
L 276.617455 154.966484 
L 277.226182 154.172697 
L 277.834909 153.26158 
L 278.443636 152.102548 
L 280.269818 149.425857 
L 283.617818 144.558419 
L 285.444 141.470868 
L 286.965818 138.564399 
L 291.531273 129.736814 
L 292.444364 128.438499 
L 293.357455 127.473074 
L 294.270545 126.908598 
L 294.879273 126.77822 
L 295.488 126.874902 
L 296.096727 127.195931 
L 296.705455 127.752792 
L 297.314182 128.559467 
L 298.531636 130.421295 
L 298.836 129.209053 
L 299.444727 128.101851 
L 300.966545 125.710436 
L 302.488364 123.669385 
L 304.314545 121.607892 
L 306.140727 119.891065 
L 307.966909 118.466011 
L 309.793091 117.269706 
L 311.923636 116.11547 
L 314.967273 114.781932 
L 320.141455 112.932833 
L 324.402545 111.557986 
L 328.054909 110.598528 
L 332.011636 109.695688 
L 337.490182 108.718845 
L 343.881818 107.888736 
L 349.969091 107.311095 
L 355.752 106.932461 
L 363.969818 106.65417 
L 371.274545 106.62188 
L 374.622545 106.702027 
L 375.535636 106.989071 
L 377.666182 107.604839 
L 379.188 108.248373 
L 380.405455 108.968915 
L 381.622909 109.932574 
L 382.840364 111.196789 
L 384.057818 112.822696 
L 385.275273 114.884635 
L 386.492727 117.444993 
L 387.710182 120.564557 
L 388.927636 124.287602 
L 390.145091 128.644704 
L 391.666909 134.99701 
L 393.188727 142.314406 
L 395.014909 152.22039 
L 397.145455 164.918431 
L 398.667273 174.593927 
L 401.102182 188.995972 
L 402.624 196.930607 
L 403.841455 202.353435 
L 405.058909 206.742693 
L 405.972 209.268809 
L 406.885091 211.085975 
L 407.493818 211.893563 
L 408.102545 212.370853 
L 408.406909 212.487569 
L 408.711273 212.391808 
L 409.015636 212.453757 
L 409.32 212.356669 
L 409.928727 211.844468 
L 410.537455 211.05352 
L 411.754909 208.609091 
L 412.363636 207.064684 
L 412.363636 207.064684 
" style="fill:none;stroke:#ff7f0e;stroke-linecap:square;stroke-width:2.5;"/>
   </g>
   <g id="line2d_13">
    <path clip-path="url(#p394c117d0a)" d="M 107.695636 205.574639 
L 108.913091 202.709591 
L 110.434909 198.440645 
L 112.869818 190.768628 
L 116.217818 180.446133 
L 118.044 175.601447 
L 119.565818 172.055921 
L 122.913818 165.042048 
L 124.131273 163.11852 
L 125.044364 161.90455 
L 125.348727 161.98118 
L 125.957455 161.462102 
L 130.827273 156.760703 
L 131.740364 155.500724 
L 133.262182 152.862413 
L 134.479636 150.31544 
L 136.001455 146.698917 
L 138.436364 140.211217 
L 141.48 132.181555 
L 143.001818 128.80188 
L 143.914909 127.181482 
L 144.828 125.974999 
L 145.436727 125.437353 
L 146.045455 125.153442 
L 146.349818 124.745986 
L 146.958545 122.539835 
L 148.784727 118.23967 
L 150.002182 116.012727 
L 151.219636 114.296645 
L 152.437091 113.054252 
L 153.350182 112.380082 
L 154.567636 111.776339 
L 155.785091 111.435297 
L 157.306909 111.251828 
L 159.437455 111.249902 
L 169.785818 111.526354 
L 173.133818 111.290021 
L 178.612364 110.636179 
L 195.656727 108.363709 
L 201.135273 108.088119 
L 208.135636 107.935179 
L 209.353091 107.995999 
L 222.440727 108.354181 
L 223.049455 108.829164 
L 224.875636 110.060548 
L 226.397455 111.338817 
L 227.919273 112.927505 
L 229.136727 114.456715 
L 230.658545 116.754 
L 232.180364 119.572041 
L 233.397818 122.245296 
L 234.615273 125.343237 
L 236.137091 129.864938 
L 237.658909 135.175056 
L 239.180727 141.255794 
L 241.006909 149.542156 
L 242.528727 157.367142 
L 248.616 189.820135 
L 250.137818 196.670976 
L 251.355273 201.317799 
L 252.572727 205.06016 
L 253.181455 206.376039 
L 254.094545 208.084122 
L 254.703273 208.918797 
L 255.312 209.487151 
L 255.920727 209.784793 
L 256.529455 209.819267 
L 257.138182 209.600064 
L 257.746909 209.140798 
L 258.355636 208.453851 
L 259.268727 207.029002 
L 260.181818 205.180975 
L 261.399273 202.189536 
L 262.921091 197.841028 
L 266.573455 186.333003 
L 268.095273 181.648863 
L 269.617091 177.639198 
L 271.747636 172.47473 
L 272.660727 170.441963 
L 273.269455 168.863804 
L 274.486909 166.523627 
L 276.008727 163.908398 
L 277.530545 161.83006 
L 277.834909 161.900957 
L 278.443636 161.387637 
L 279.965455 159.862389 
L 280.269818 159.336136 
L 280.574182 159.036677 
L 280.878545 158.973278 
L 281.487273 158.481772 
L 282.704727 157.067344 
L 284.226545 154.776951 
L 285.444 152.505302 
L 286.661455 149.859001 
L 288.183273 146.136082 
L 294.574909 129.320355 
L 295.792364 126.959398 
L 296.705455 125.629634 
L 297.618545 124.759087 
L 298.227273 124.491695 
L 298.531636 124.104745 
L 299.140364 121.908087 
L 300.966545 117.648294 
L 302.184 115.440868 
L 303.401455 113.738477 
L 304.618909 112.504202 
L 305.836364 111.663519 
L 307.053818 111.143317 
L 308.575636 110.822523 
L 310.097455 110.712354 
L 321.358909 110.880614 
L 325.62 110.487952 
L 334.142182 109.278848 
L 339.925091 108.396575 
L 347.229818 107.685116 
L 353.925818 107.515824 
L 374.622545 107.907113 
L 375.231273 108.376757 
L 376.753091 109.357462 
L 378.579273 110.845483 
L 380.101091 112.420189 
L 381.318545 113.9349 
L 382.536 115.726021 
L 383.753455 117.835266 
L 384.970909 120.303585 
L 386.188364 123.177701 
L 387.710182 127.40181 
L 389.232 132.39137 
L 390.753818 138.16646 
L 392.58 146.120755 
L 394.101818 153.51274 
L 395.928 163.441041 
L 401.102182 190.922346 
L 402.624 197.610333 
L 403.841455 202.073818 
L 404.450182 203.777232 
L 405.667636 206.751278 
L 406.580727 208.341678 
L 407.189455 209.054398 
L 407.798182 209.496221 
L 408.406909 209.668916 
L 409.015636 209.581944 
L 409.624364 209.245131 
L 410.233091 208.669694 
L 411.146182 207.386165 
L 412.059273 205.66883 
L 412.363636 205.008605 
L 412.363636 205.008605 
" style="fill:none;stroke:#2ca02c;stroke-linecap:square;stroke-width:2.5;"/>
   </g>
   <g id="line2d_14">
    <path clip-path="url(#p394c117d0a)" d="M 107.695636 205.133672 
L 108.913091 202.481541 
L 110.434909 198.540571 
L 112.869818 191.464142 
L 116.826545 180.04677 
L 118.348364 176.368141 
L 121.087636 170.222332 
L 122.913818 166.750716 
L 123.826909 165.591549 
L 125.044364 164.437576 
L 125.957455 163.752024 
L 126.261818 163.976125 
L 126.870545 163.701109 
L 128.088 162.772197 
L 129.001091 161.860162 
L 130.218545 160.230356 
L 131.436 158.075133 
L 132.653455 155.375882 
L 133.566545 152.997275 
L 134.175273 151.069137 
L 134.784 149.458479 
L 136.914545 142.504603 
L 140.871273 129.690809 
L 142.088727 126.714988 
L 143.001818 125.052632 
L 143.610545 124.243766 
L 144.219273 123.693164 
L 144.828 123.398718 
L 145.436727 123.364856 
L 146.349818 123.479375 
L 146.958545 122.072155 
L 149.697818 118.458278 
L 152.132727 115.775769 
L 154.263273 113.755375 
L 156.393818 112.0781 
L 158.22 110.905801 
L 160.046182 109.973173 
L 161.872364 109.263937 
L 163.698545 108.75694 
L 165.829091 108.380826 
L 168.264 108.158568 
L 171.916364 108.076824 
L 179.525455 108.214141 
L 186.830182 108.343648 
L 195.352364 108.33551 
L 196.569818 108.258078 
L 201.135273 108.245665 
L 218.179636 108.41257 
L 222.440727 108.793488 
L 223.049455 109.342737 
L 224.571273 110.53606 
L 226.093091 112.007716 
L 227.614909 113.786141 
L 229.136727 115.939617 
L 230.658545 118.506277 
L 232.180364 121.580529 
L 233.397818 124.431911 
L 234.919636 128.558235 
L 236.441455 133.36769 
L 237.963273 138.892761 
L 239.789455 146.45553 
L 241.615636 154.941726 
L 242.833091 161.349486 
L 248.616 190.844391 
L 250.137818 197.2695 
L 251.355273 201.585639 
L 251.964 203.227482 
L 253.181455 206.145382 
L 254.094545 207.730703 
L 254.703273 208.469752 
L 255.312 208.955739 
L 255.920727 209.193554 
L 256.529455 209.188837 
L 257.138182 208.950359 
L 257.746909 208.490507 
L 258.66 207.418635 
L 259.573091 205.93867 
L 260.790545 203.42581 
L 262.312364 199.643144 
L 264.442909 193.648196 
L 269.312727 179.781813 
L 270.834545 176.162988 
L 272.965091 171.419378 
L 275.095636 167.371317 
L 276.008727 166.208657 
L 277.530545 164.791066 
L 278.139273 164.32412 
L 278.443636 164.539735 
L 279.052364 164.236435 
L 280.269818 163.238261 
L 281.487273 161.843218 
L 282.400364 160.462309 
L 283.313455 158.767852 
L 284.530909 156.007823 
L 286.052727 151.747941 
L 286.661455 149.831624 
L 288.183273 144.764553 
L 292.444364 130.132539 
L 293.661818 126.922669 
L 294.574909 125.104615 
L 295.488 123.824755 
L 296.096727 123.303389 
L 296.705455 123.028156 
L 297.314182 123.002016 
L 297.922909 123.199946 
L 298.227273 123.4044 
L 298.531636 123.324947 
L 299.140364 121.969422 
L 305.532 113.810063 
L 307.358182 111.999196 
L 308.88 110.732511 
L 310.706182 109.51108 
L 312.532364 108.590203 
L 314.358545 107.933644 
L 316.184727 107.505247 
L 318.315273 107.239406 
L 320.750182 107.157581 
L 323.793818 107.246479 
L 342.968727 108.004417 
L 347.838545 107.951477 
L 351.186545 107.849877 
L 352.404 107.894133 
L 357.578182 107.753579 
L 368.230909 107.802368 
L 372.492 108.037375 
L 374.622545 108.261561 
L 375.231273 108.806918 
L 376.448727 109.736165 
L 377.970545 111.133794 
L 379.492364 112.850259 
L 380.709818 114.474283 
L 381.927273 116.35783 
L 383.144727 118.532306 
L 384.362182 121.033685 
L 385.884 124.672614 
L 387.405818 128.960364 
L 388.927636 133.93197 
L 390.449455 139.630214 
L 392.275636 147.399186 
L 393.493091 153.385499 
L 395.928 165.775999 
L 400.493455 189.218474 
L 402.015273 195.881215 
L 402.928364 199.357947 
L 404.145818 203.039165 
L 404.450182 204.057794 
L 406.276364 207.621998 
L 406.885091 208.365293 
L 407.493818 208.858038 
L 408.102545 209.101942 
L 408.711273 209.100682 
L 409.32 208.863989 
L 409.928727 208.406816 
L 410.841818 207.333859 
L 411.754909 205.834721 
L 412.363636 204.645779 
L 412.363636 204.645779 
" style="fill:none;stroke:#d62728;stroke-linecap:square;stroke-width:2.5;"/>
   </g>
   <g id="line2d_15">
    <path clip-path="url(#p394c117d0a)" d="M 108 207.048649 
L 412.363636 207.048649 
" style="fill:none;stroke:#000000;stroke-dasharray:3.2,0.8,0.5,0.8;stroke-dashoffset:0;stroke-width:0.5;"/>
   </g>
   <g id="line2d_16">
    <path clip-path="url(#p394c117d0a)" d="M 260.181818 230.4 
L 260.181818 57.6 
" style="fill:none;stroke:#000000;stroke-dasharray:3.2,0.8,0.5,0.8;stroke-dashoffset:0;stroke-width:0.5;"/>
   </g>
   <g id="patch_3">
    <path d="M 108 230.4 
L 108 57.6 
" style="fill:none;stroke:#000000;stroke-linecap:square;stroke-linejoin:miter;stroke-width:0.8;"/>
   </g>
   <g id="patch_4">
    <path d="M 412.363636 230.4 
L 412.363636 57.6 
" style="fill:none;stroke:#000000;stroke-linecap:square;stroke-linejoin:miter;stroke-width:0.8;"/>
   </g>
   <g id="patch_5">
    <path d="M 108 230.4 
L 412.363636 230.4 
" style="fill:none;stroke:#000000;stroke-linecap:square;stroke-linejoin:miter;stroke-width:0.8;"/>
   </g>
   <g id="patch_6">
    <path d="M 108 57.6 
L 412.363636 57.6 
" style="fill:none;stroke:#000000;stroke-linecap:square;stroke-linejoin:miter;stroke-width:0.8;"/>
   </g>
   <g id="legend_1">
    <g id="line2d_17">
     <path d="M 198.84762 41.7825 
L 228.83562 41.7825 
" style="fill:none;stroke:#1f77b4;stroke-linecap:square;stroke-width:2.5;"/>
    </g>
    <g id="line2d_18"/>
    <g id="text_13">
     <!-- $\Phi$ = 60$^\circ$ -->
     <g transform="translate(240.83082 47.0304)scale(0.14994 -0.14994)">
      <defs>
       <path d="M 43.203125 58 
L 43.203125 56 
Q 48.703125 56 53.75 54.703125 
Q 58.796875 53.40625 63.140625 50.75 
Q 67.5 48.09375 70.140625 43.546875 
Q 72.796875 39 72.796875 33 
Q 72.796875 27.40625 70.140625 22.84375 
Q 67.5 18.296875 63.34375 15.640625 
Q 59.203125 13 54.59375 11.640625 
Q 50 10.296875 45.703125 10.296875 
L 43.203125 10.296875 
L 43.203125 8.59375 
Q 43.203125 4.796875 45.453125 3.5 
Q 47.703125 2.203125 53.5 1.90625 
L 53.5 0 
L 22.90625 0 
L 22.90625 1.90625 
Q 28.09375 1.90625 30.546875 3.34375 
Q 33 4.796875 33 8.5 
L 33 10.296875 
L 31.296875 10.296875 
Q 17.703125 10.296875 10.59375 16.5 
Q 3.5 22.703125 3.5 33 
Q 3.5 39 6.046875 43.546875 
Q 8.59375 48.09375 12.9375 50.75 
Q 17.296875 53.40625 22.34375 54.703125 
Q 27.40625 56 33 56 
L 33 58 
Q 33 61.59375 31.046875 62.9375 
Q 29.09375 64.296875 22.90625 64.296875 
L 22.90625 66.203125 
L 53.5 66.203125 
L 53.5 64.296875 
Q 47.296875 64.296875 45.25 62.796875 
Q 43.203125 61.296875 43.203125 58 
z
M 43 52.296875 
L 43 14 
Q 50.5 14 56.203125 18.84375 
Q 61.90625 23.703125 61.90625 31.796875 
Q 61.90625 39.90625 56.953125 46.09375 
Q 52 52.296875 43 52.296875 
z
M 33.203125 14 
L 33.203125 52.296875 
Q 25.203125 52.296875 19.796875 45.9375 
Q 14.40625 39.59375 14.40625 31.796875 
Q 14.40625 24.40625 19.453125 19.203125 
Q 24.5 14 33.203125 14 
z
" id="STIXGeneral-Regular-934"/>
       <path id="STIXGeneral-Regular-32"/>
       <path d="M 63.703125 32 
L 4.796875 32 
L 4.796875 38.59375 
L 63.703125 38.59375 
z
M 63.703125 12 
L 4.796875 12 
L 4.796875 18.59375 
L 63.703125 18.59375 
z
" id="STIXGeneral-Regular-61"/>
       <path d="M 23.203125 38.703125 
Q 31 30.796875 31 25.1875 
Q 31 19.59375 27.046875 15.640625 
Q 23.09375 11.703125 17.5 11.703125 
Q 11.796875 11.703125 7.890625 15.640625 
Q 4 19.59375 4 25.40625 
Q 4 31 7.953125 34.84375 
Q 11.90625 38.703125 17.703125 38.703125 
Q 23.203125 38.703125 31 30.796875 
z
M 20.40625 18.296875 
Q 24.40625 22.296875 24.40625 25.1875 
Q 24.40625 28.09375 22.40625 30.09375 
Q 20.40625 32.09375 17.703125 32.09375 
Q 14.59375 32.09375 12.59375 30.140625 
Q 10.59375 28.203125 10.59375 25.40625 
Q 10.59375 22.296875 12.546875 20.296875 
Q 14.5 18.296875 17.5 18.296875 
Q 20.40625 18.296875 24.40625 22.296875 
z
" id="STIXGeneral-Regular-8728"/>
      </defs>
      <use transform="translate(0 0.59375)" xlink:href="#STIXGeneral-Regular-934"/>
      <use transform="translate(76.299988 0.59375)" xlink:href="#STIXGeneral-Regular-32"/>
      <use transform="translate(101.299973 0.59375)" xlink:href="#STIXGeneral-Regular-61"/>
      <use transform="translate(169.799957 0.59375)" xlink:href="#STIXGeneral-Regular-32"/>
      <use transform="translate(194.799942 0.59375)" xlink:href="#STIXGeneral-Regular-54"/>
      <use transform="translate(244.799927 0.59375)" xlink:href="#STIXGeneral-Regular-48"/>
      <use transform="translate(306.45119 35.86875)scale(0.7)" xlink:href="#STIXGeneral-Regular-8728"/>
     </g>
    </g>
    <g id="line2d_19">
     <path d="M 322.69806 41.7825 
L 352.68606 41.7825 
" style="fill:none;stroke:#ff7f0e;stroke-linecap:square;stroke-width:2.5;"/>
    </g>
    <g id="line2d_20"/>
    <g id="text_14">
     <!-- $\Phi$ = 120$^\circ$ -->
     <g transform="translate(364.68126 47.0304)scale(0.14994 -0.14994)">
      <use transform="translate(0 0.40625)" xlink:href="#STIXGeneral-Regular-934"/>
      <use transform="translate(76.299988 0.40625)" xlink:href="#STIXGeneral-Regular-32"/>
      <use transform="translate(101.299973 0.40625)" xlink:href="#STIXGeneral-Regular-61"/>
      <use transform="translate(169.799957 0.40625)" xlink:href="#STIXGeneral-Regular-32"/>
      <use transform="translate(194.799942 0.40625)" xlink:href="#STIXGeneral-Regular-49"/>
      <use transform="translate(244.799927 0.40625)" xlink:href="#STIXGeneral-Regular-50"/>
      <use transform="translate(294.799911 0.40625)" xlink:href="#STIXGeneral-Regular-48"/>
      <use transform="translate(356.451175 35.68125)scale(0.7)" xlink:href="#STIXGeneral-Regular-8728"/>
     </g>
    </g>
    <g id="line2d_21">
     <path d="M 454.0455 41.7825 
L 484.0335 41.7825 
" style="fill:none;stroke:#2ca02c;stroke-linecap:square;stroke-width:2.5;"/>
    </g>
    <g id="line2d_22"/>
    <g id="text_15">
     <!-- $\Phi$ = 160$^\circ$ -->
     <g transform="translate(496.0287 47.0304)scale(0.14994 -0.14994)">
      <use transform="translate(0 0.59375)" xlink:href="#STIXGeneral-Regular-934"/>
      <use transform="translate(76.299988 0.59375)" xlink:href="#STIXGeneral-Regular-32"/>
      <use transform="translate(101.299973 0.59375)" xlink:href="#STIXGeneral-Regular-61"/>
      <use transform="translate(169.799957 0.59375)" xlink:href="#STIXGeneral-Regular-32"/>
      <use transform="translate(194.799942 0.59375)" xlink:href="#STIXGeneral-Regular-49"/>
      <use transform="translate(244.799927 0.59375)" xlink:href="#STIXGeneral-Regular-54"/>
      <use transform="translate(294.799911 0.59375)" xlink:href="#STIXGeneral-Regular-48"/>
      <use transform="translate(356.451175 35.86875)scale(0.7)" xlink:href="#STIXGeneral-Regular-8728"/>
     </g>
    </g>
    <g id="line2d_23">
     <path d="M 585.39294 41.7825 
L 615.38094 41.7825 
" style="fill:none;stroke:#d62728;stroke-linecap:square;stroke-width:2.5;"/>
    </g>
    <g id="line2d_24"/>
    <g id="text_16">
     <!-- $\Phi$ = 180$^\circ$ -->
     <g transform="translate(627.37614 47.0304)scale(0.14994 -0.14994)">
      <use transform="translate(0 0.40625)" xlink:href="#STIXGeneral-Regular-934"/>
      <use transform="translate(76.299988 0.40625)" xlink:href="#STIXGeneral-Regular-32"/>
      <use transform="translate(101.299973 0.40625)" xlink:href="#STIXGeneral-Regular-61"/>
      <use transform="translate(169.799957 0.40625)" xlink:href="#STIXGeneral-Regular-32"/>
      <use transform="translate(194.799942 0.40625)" xlink:href="#STIXGeneral-Regular-49"/>
      <use transform="translate(244.799927 0.40625)" xlink:href="#STIXGeneral-Regular-56"/>
      <use transform="translate(294.799911 0.40625)" xlink:href="#STIXGeneral-Regular-48"/>
      <use transform="translate(356.451175 35.68125)scale(0.7)" xlink:href="#STIXGeneral-Regular-8728"/>
     </g>
    </g>
   </g>
  </g>
  <g id="axes_2">
   <g id="patch_7">
    <path d="M 473.236364 230.4 
L 777.6 230.4 
L 777.6 57.6 
L 473.236364 57.6 
z
" style="fill:#ffffff;"/>
   </g>
   <g id="matplotlib.axis_3">
    <g id="xtick_7">
     <g id="line2d_25">
      <g>
       <use style="fill:#ffffff;stroke:#000000;stroke-width:0.8;" x="473.236364" xlink:href="#m8a76d985b3" y="230.4"/>
      </g>
     </g>
     <g id="text_17">
      <!-- 4.0 -->
      <g transform="translate(461.986364 249.693438)scale(0.18 -0.18)">
       <use xlink:href="#STIXGeneral-Regular-52"/>
       <use x="49.999985" xlink:href="#STIXGeneral-Regular-46"/>
       <use x="74.999969" xlink:href="#STIXGeneral-Regular-48"/>
      </g>
     </g>
    </g>
    <g id="xtick_8">
     <g id="line2d_26">
      <g>
       <use style="fill:#ffffff;stroke:#000000;stroke-width:0.8;" x="534.109091" xlink:href="#m8a76d985b3" y="230.4"/>
      </g>
     </g>
     <g id="text_18">
      <!-- 4.2 -->
      <g transform="translate(522.859091 249.693438)scale(0.18 -0.18)">
       <use xlink:href="#STIXGeneral-Regular-52"/>
       <use x="49.999985" xlink:href="#STIXGeneral-Regular-46"/>
       <use x="74.999969" xlink:href="#STIXGeneral-Regular-50"/>
      </g>
     </g>
    </g>
    <g id="xtick_9">
     <g id="line2d_27">
      <g>
       <use style="fill:#ffffff;stroke:#000000;stroke-width:0.8;" x="594.981818" xlink:href="#m8a76d985b3" y="230.4"/>
      </g>
     </g>
     <g id="text_19">
      <!-- 4.4 -->
      <g transform="translate(583.731818 249.693438)scale(0.18 -0.18)">
       <use xlink:href="#STIXGeneral-Regular-52"/>
       <use x="49.999985" xlink:href="#STIXGeneral-Regular-46"/>
       <use x="74.999969" xlink:href="#STIXGeneral-Regular-52"/>
      </g>
     </g>
    </g>
    <g id="xtick_10">
     <g id="line2d_28">
      <g>
       <use style="fill:#ffffff;stroke:#000000;stroke-width:0.8;" x="655.854545" xlink:href="#m8a76d985b3" y="230.4"/>
      </g>
     </g>
     <g id="text_20">
      <!-- 4.6 -->
      <g transform="translate(644.604545 249.693438)scale(0.18 -0.18)">
       <use xlink:href="#STIXGeneral-Regular-52"/>
       <use x="49.999985" xlink:href="#STIXGeneral-Regular-46"/>
       <use x="74.999969" xlink:href="#STIXGeneral-Regular-54"/>
      </g>
     </g>
    </g>
    <g id="xtick_11">
     <g id="line2d_29">
      <g>
       <use style="fill:#ffffff;stroke:#000000;stroke-width:0.8;" x="716.727273" xlink:href="#m8a76d985b3" y="230.4"/>
      </g>
     </g>
     <g id="text_21">
      <!-- 4.8 -->
      <g transform="translate(705.477273 249.693438)scale(0.18 -0.18)">
       <use xlink:href="#STIXGeneral-Regular-52"/>
       <use x="49.999985" xlink:href="#STIXGeneral-Regular-46"/>
       <use x="74.999969" xlink:href="#STIXGeneral-Regular-56"/>
      </g>
     </g>
    </g>
    <g id="xtick_12">
     <g id="line2d_30">
      <g>
       <use style="fill:#ffffff;stroke:#000000;stroke-width:0.8;" x="777.6" xlink:href="#m8a76d985b3" y="230.4"/>
      </g>
     </g>
     <g id="text_22">
      <!-- 5.0 -->
      <g transform="translate(766.35 249.693438)scale(0.18 -0.18)">
       <use xlink:href="#STIXGeneral-Regular-53"/>
       <use x="49.999985" xlink:href="#STIXGeneral-Regular-46"/>
       <use x="74.999969" xlink:href="#STIXGeneral-Regular-48"/>
      </g>
     </g>
    </g>
    <g id="text_23">
     <!-- $\^t$ -->
     <g transform="translate(622.898182 269.893438)scale(0.18 -0.18)">
      <use transform="translate(39.042969 16.59375)" xlink:href="#STIXGeneral-Regular-770"/>
      <use transform="translate(0 0.203125)" xlink:href="#STIXGeneral-Italic-116"/>
     </g>
    </g>
   </g>
   <g id="matplotlib.axis_4">
    <g id="ytick_5">
     <g id="line2d_31">
      <g>
       <use style="fill:#ffffff;stroke:#000000;stroke-width:0.8;" x="473.236364" xlink:href="#mbb6d1bd2e4" y="183.272727"/>
      </g>
     </g>
     <g id="text_24">
      <!-- 0 -->
      <g transform="translate(457.236364 189.419446)scale(0.18 -0.18)">
       <use xlink:href="#STIXGeneral-Regular-48"/>
      </g>
     </g>
    </g>
    <g id="ytick_6">
     <g id="line2d_32">
      <g>
       <use style="fill:#ffffff;stroke:#000000;stroke-width:0.8;" x="473.236364" xlink:href="#mbb6d1bd2e4" y="120.436364"/>
      </g>
     </g>
     <g id="text_25">
      <!-- 2 -->
      <g transform="translate(457.236364 126.583082)scale(0.18 -0.18)">
       <use xlink:href="#STIXGeneral-Regular-50"/>
      </g>
     </g>
    </g>
    <g id="ytick_7">
     <g id="line2d_33">
      <g>
       <use style="fill:#ffffff;stroke:#000000;stroke-width:0.8;" x="473.236364" xlink:href="#mbb6d1bd2e4" y="57.6"/>
      </g>
     </g>
     <g id="text_26">
      <!-- 4 -->
      <g transform="translate(457.236364 63.746719)scale(0.18 -0.18)">
       <use xlink:href="#STIXGeneral-Regular-52"/>
      </g>
     </g>
    </g>
    <g id="text_27">
     <!-- $C_D$ -->
     <g transform="translate(449.329801 154.98)rotate(-90)scale(0.18 -0.18)">
      <defs>
       <path d="M 13.09375 65.296875 
L 40.796875 65.296875 
Q 54.203125 65.296875 62.09375 58.296875 
Q 70 51.296875 70 38.40625 
Q 70 20.703125 54 8.296875 
Q 43.40625 0 24.90625 0 
L -0.796875 0 
L -0.796875 1.59375 
Q 3.5 2.40625 4.84375 3.59375 
Q 6.203125 4.796875 7.40625 9.203125 
L 19.59375 53.703125 
Q 20.703125 57.59375 20.703125 59.59375 
Q 20.703125 61.703125 19.09375 62.640625 
Q 17.5 63.59375 13.09375 63.703125 
z
M 31 58.40625 
L 19.203125 16.203125 
Q 17 8.203125 17 6.703125 
Q 17 3 23.796875 3 
Q 38.59375 3 47.90625 12 
Q 53.09375 17 56 24.953125 
Q 58.90625 32.90625 58.90625 40.796875 
Q 58.90625 52.90625 51.09375 58.796875 
Q 46.40625 62.296875 38 62.296875 
Q 34.796875 62.296875 33.25 61.546875 
Q 31.703125 60.796875 31 58.40625 
z
" id="STIXGeneral-Italic-68"/>
      </defs>
      <use transform="translate(0 0.40625)" xlink:href="#STIXGeneral-Italic-67"/>
      <use transform="translate(66.699997 -12.821875)scale(0.7)" xlink:href="#STIXGeneral-Italic-68"/>
     </g>
    </g>
   </g>
   <g id="line2d_34">
    <path clip-path="url(#p6c030e0e29)" d="M 472.932 193.86924 
L 473.236364 197.561325 
L 473.540727 165.334851 
L 475.366909 144.737747 
L 476.888727 129.599112 
L 478.410545 116.634924 
L 479.628 107.941231 
L 480.845455 100.716251 
L 482.062909 94.900546 
L 483.280364 90.304389 
L 484.497818 86.757486 
L 485.715273 84.094377 
L 486.932727 82.117996 
L 488.150182 80.62663 
L 491.193818 77.774086 
L 492.715636 76.579716 
L 493.324364 76.303986 
L 495.454909 74.450903 
L 498.498545 71.939503 
L 499.716 71.339516 
L 500.629091 71.182911 
L 501.237818 71.251532 
L 501.846545 71.477995 
L 502.455273 71.879751 
L 503.064 72.484092 
L 503.672727 73.299356 
L 504.585818 74.967587 
L 505.498909 77.227898 
L 506.412 80.117651 
L 507.325091 83.697285 
L 508.238182 87.99041 
L 509.455636 94.910766 
L 510.673091 103.21727 
L 511.586182 109.359483 
L 511.890545 108.048004 
L 512.194909 107.82976 
L 512.499273 107.928927 
L 515.847273 107.721481 
L 528.934909 107.35435 
L 544.761818 106.99889 
L 563.328 107.101335 
L 579.763636 107.535995 
L 587.372727 107.921884 
L 587.677091 107.671729 
L 588.285818 105.983526 
L 589.503273 103.248647 
L 591.633818 97.899885 
L 594.373091 90.318547 
L 600.460364 73.112709 
L 602.286545 68.681202 
L 603.808364 65.544896 
L 605.025818 63.529677 
L 605.938909 62.367529 
L 606.852 61.587012 
L 607.460727 61.319534 
L 608.069455 61.265332 
L 608.678182 61.443732 
L 609.286909 61.885106 
L 609.895636 62.598653 
L 610.504364 63.618564 
L 611.417455 65.780087 
L 612.330545 68.73559 
L 613.243636 72.567023 
L 614.156727 77.293273 
L 615.374182 85.100296 
L 616.591636 94.686354 
L 617.809091 105.942299 
L 619.330909 122.09721 
L 621.461455 147.611251 
L 625.418182 197.590682 
L 625.722545 165.270839 
L 627.548727 144.474985 
L 629.070545 129.234903 
L 630.592364 116.213512 
L 631.809818 107.47667 
L 633.027273 100.228483 
L 634.244727 94.364942 
L 635.462182 89.751024 
L 636.679636 86.209805 
L 637.897091 83.556382 
L 639.114545 81.591954 
L 639.723273 80.686154 
L 640.940727 79.378233 
L 643.071273 77.642047 
L 643.68 77.331799 
L 646.723636 74.92084 
L 650.984727 71.358586 
L 652.506545 70.856333 
L 653.419636 70.884159 
L 654.028364 71.087298 
L 654.637091 71.466522 
L 655.245818 72.039752 
L 655.854545 72.818429 
L 656.767636 74.428688 
L 657.680727 76.628441 
L 658.593818 79.454153 
L 659.506909 82.969363 
L 660.42 87.203398 
L 661.637455 94.050857 
L 662.854909 102.29451 
L 663.768 108.398154 
L 664.072364 107.085119 
L 664.376727 106.850389 
L 664.681091 106.943888 
L 667.420364 106.717982 
L 670.159636 106.620745 
L 699.682909 106.447599 
L 717.640364 106.809931 
L 731.032364 107.403661 
L 739.554545 107.977466 
L 739.858909 107.729605 
L 740.467636 106.056354 
L 741.685091 103.347315 
L 743.815636 98.047649 
L 746.250545 91.389317 
L 752.946545 72.679831 
L 754.772727 68.396528 
L 756.294545 65.442936 
L 757.512 63.598097 
L 758.425091 62.581631 
L 759.033818 62.140946 
L 759.642545 61.907828 
L 760.251273 61.895191 
L 760.86 62.09201 
L 761.468727 62.546118 
L 762.077455 63.26257 
L 762.686182 64.283727 
L 763.599273 66.450263 
L 764.512364 69.407979 
L 765.425455 73.246311 
L 766.338545 77.962727 
L 767.556 85.74192 
L 768.773455 95.259951 
L 769.990909 106.423127 
L 771.512727 122.427879 
L 773.643273 147.676342 
L 777.295636 193.37078 
L 777.6 183.272727 
L 777.6 183.272727 
" style="fill:none;stroke:#1f77b4;stroke-linecap:square;stroke-width:2.5;"/>
   </g>
   <g id="line2d_35">
    <path clip-path="url(#p6c030e0e29)" d="M 472.932 226.113153 
L 473.236364 227.829795 
L 473.540727 137.018652 
L 475.062545 129.285254 
L 476.28 123.95386 
L 477.497455 119.420715 
L 478.714909 115.696906 
L 479.628 113.375726 
L 480.541091 111.488134 
L 481.758545 109.550893 
L 482.976 108.164987 
L 484.497818 106.907938 
L 485.106545 106.628458 
L 485.410909 106.698057 
L 486.324 106.414606 
L 487.237091 106.262136 
L 487.845818 106.227092 
L 488.150182 106.388979 
L 489.063273 106.44911 
L 489.367636 106.277573 
L 490.280727 106.249128 
L 491.802545 106.380789 
L 496.976727 107.167751 
L 498.802909 107.060609 
L 500.933455 106.505509 
L 504.281455 105.481069 
L 505.498909 105.417427 
L 506.107636 105.5132 
L 507.020727 105.830294 
L 507.933818 106.41919 
L 508.846909 107.331475 
L 509.76 108.600301 
L 510.673091 110.249802 
L 511.586182 111.943909 
L 511.890545 111.358859 
L 512.499273 111.035675 
L 514.629818 110.1223 
L 517.064727 109.325099 
L 519.804 108.696853 
L 522.847636 108.266063 
L 525.891273 108.070768 
L 529.239273 108.057068 
L 538.370182 108.413141 
L 548.718545 108.745253 
L 569.719636 109.478431 
L 581.285455 110.11437 
L 587.677091 110.60359 
L 589.198909 111.178176 
L 597.112364 114.175761 
L 598.938545 115.109621 
L 600.764727 116.347815 
L 601.982182 117.431773 
L 603.199636 118.788893 
L 604.417091 120.479549 
L 605.634545 122.59752 
L 606.852 125.219368 
L 608.069455 128.432385 
L 609.286909 132.292167 
L 610.504364 136.838933 
L 612.026182 143.408225 
L 613.548 151.24033 
L 615.374182 162.002821 
L 617.809091 178.239219 
L 623.592 218.226259 
L 625.113818 227.343864 
L 625.722545 135.854924 
L 627.548727 126.677122 
L 629.070545 120.542057 
L 629.983636 117.69698 
L 631.201091 114.306221 
L 632.418545 111.67257 
L 633.636 109.652157 
L 634.549091 108.520575 
L 635.766545 107.465841 
L 637.288364 106.663201 
L 638.201455 106.351173 
L 639.723273 106.164238 
L 640.027636 106.181098 
L 640.332 105.99055 
L 640.636364 105.987714 
L 640.940727 106.195912 
L 642.766909 105.980044 
L 643.071273 106.008208 
L 643.68 106.232374 
L 645.506182 106.552669 
L 648.549818 107.086541 
L 650.071636 107.107157 
L 651.289091 106.943727 
L 652.506545 106.624911 
L 656.767636 105.25737 
L 657.680727 105.207124 
L 658.593818 105.360316 
L 659.506909 105.766993 
L 660.42 106.468442 
L 661.333091 107.507426 
L 662.246182 108.906678 
L 663.159273 110.698446 
L 663.463636 111.395077 
L 663.768 111.761664 
L 664.072364 111.179561 
L 664.681091 110.867446 
L 667.116 109.86701 
L 669.550909 109.115693 
L 671.985818 108.576133 
L 674.725091 108.185984 
L 677.768727 107.97967 
L 682.638545 107.948683 
L 694.813091 108.063119 
L 705.770182 108.318356 
L 719.466545 108.809209 
L 733.467273 109.469919 
L 739.858909 109.89098 
L 741.380727 110.445635 
L 749.294182 113.32043 
L 751.424727 114.368088 
L 752.946545 115.376423 
L 754.164 116.419817 
L 755.381455 117.738215 
L 756.598909 119.398215 
L 757.816364 121.478774 
L 759.033818 124.047948 
L 760.251273 127.198185 
L 761.468727 131.001369 
L 762.990545 136.615308 
L 764.208 141.98927 
L 765.729818 149.748965 
L 767.556 160.468924 
L 769.686545 174.554802 
L 776.686909 222.511226 
L 777.295636 226.077428 
L 777.6 183.272727 
L 777.6 183.272727 
" style="fill:none;stroke:#ff7f0e;stroke-linecap:square;stroke-width:2.5;"/>
   </g>
   <g id="line2d_36">
    <path clip-path="url(#p6c030e0e29)" d="M 472.932 221.653694 
L 473.236364 222.9931 
L 473.540727 142.232832 
L 475.062545 136.221687 
L 476.584364 131.25813 
L 477.801818 127.955916 
L 478.714909 125.840143 
L 480.236727 123.075629 
L 481.149818 121.804815 
L 482.671636 120.027308 
L 482.976 119.786735 
L 483.280364 119.756897 
L 484.802182 118.864458 
L 486.932727 118.2082 
L 487.237091 118.308096 
L 488.758909 118.293165 
L 489.672 118.462104 
L 490.280727 118.684454 
L 490.585091 118.622914 
L 491.193818 118.847455 
L 495.150545 121.084592 
L 496.063636 121.264004 
L 496.976727 121.248347 
L 498.194182 120.873283 
L 499.411636 120.157613 
L 500.933455 118.854411 
L 502.759636 116.912302 
L 506.107636 113.13041 
L 507.325091 112.048747 
L 508.238182 111.446501 
L 509.151273 111.086171 
L 510.064364 111.026534 
L 510.673091 111.176142 
L 511.586182 111.482943 
L 512.194909 110.450803 
L 514.325455 108.481957 
L 515.542909 107.685886 
L 516.760364 107.136588 
L 517.977818 106.806912 
L 519.499636 106.65033 
L 521.021455 106.70714 
L 523.152 106.998139 
L 535.326545 109.088327 
L 539.892 109.437328 
L 545.370545 109.653357 
L 552.675273 109.7582 
L 563.936727 110.018552 
L 580.981091 110.988629 
L 587.677091 111.551789 
L 588.590182 112.138899 
L 590.720727 113.505338 
L 593.46 115.450986 
L 596.808 118.100942 
L 598.938545 120.049473 
L 600.764727 122.040694 
L 602.286545 124.034658 
L 603.504 125.91296 
L 604.721455 128.106696 
L 605.938909 130.683917 
L 607.156364 133.702549 
L 608.678182 138.021489 
L 610.2 143.344318 
L 611.721818 149.550785 
L 613.243636 156.636829 
L 615.069818 166.145712 
L 617.504727 180.074461 
L 622.070182 206.70399 
L 624.200727 217.598224 
L 625.418182 223.158774 
L 625.722545 142.122705 
L 627.244364 136.296277 
L 628.766182 131.450602 
L 629.983636 128.228294 
L 630.896727 126.186342 
L 632.418545 123.247149 
L 633.331636 121.993824 
L 633.940364 121.491398 
L 634.853455 120.578886 
L 635.766545 119.894794 
L 637.288364 119.099444 
L 637.897091 118.896956 
L 638.505818 118.854659 
L 640.027636 118.5764 
L 641.549455 118.70843 
L 642.462545 118.974963 
L 642.766909 119.130824 
L 643.071273 119.074005 
L 643.984364 119.49789 
L 646.419273 120.943347 
L 647.332364 121.254767 
L 648.549818 121.392044 
L 649.462909 121.228276 
L 650.376 120.843218 
L 651.593455 120.037328 
L 653.419636 118.306697 
L 659.202545 111.866609 
L 660.42 111.027817 
L 661.333091 110.684722 
L 661.941818 110.61886 
L 662.550545 110.70262 
L 663.159273 110.951953 
L 663.463636 111.137235 
L 663.768 111.13512 
L 664.072364 110.492488 
L 664.985455 109.508822 
L 666.507273 108.188486 
L 667.724727 107.413819 
L 668.942182 106.877348 
L 670.159636 106.556791 
L 671.377091 106.415766 
L 672.898909 106.432839 
L 675.333818 106.741168 
L 683.247273 108.17159 
L 686.290909 108.5639 
L 689.638909 108.836623 
L 696.334909 109.113694 
L 718.249091 109.779665 
L 727.684364 110.352087 
L 739.858909 111.264325 
L 740.772 111.843138 
L 743.511273 113.620133 
L 746.250545 115.592614 
L 749.598545 118.3022 
L 751.424727 120.026125 
L 752.946545 121.699262 
L 754.468364 123.683264 
L 755.990182 126.071825 
L 757.512 128.98516 
L 758.729455 131.775061 
L 760.251273 135.779868 
L 761.773091 140.756362 
L 763.294909 146.606052 
L 764.816727 153.364701 
L 766.642909 162.552725 
L 768.773455 174.464599 
L 775.773818 214.651773 
L 777.295636 221.860852 
L 777.6 143.299826 
L 777.6 143.299826 
" style="fill:none;stroke:#2ca02c;stroke-linecap:square;stroke-width:2.5;"/>
   </g>
   <g id="line2d_37">
    <path clip-path="url(#p6c030e0e29)" d="M 472.932 220.066769 
L 473.236364 221.29606 
L 473.540727 144.07667 
L 475.062545 138.634875 
L 476.888727 133.222004 
L 478.410545 129.589994 
L 479.628 127.211958 
L 480.845455 125.298906 
L 481.149818 124.89957 
L 481.454182 124.310111 
L 482.367273 123.308831 
L 482.671636 123.212933 
L 484.193455 121.972161 
L 485.715273 121.145546 
L 486.628364 120.839434 
L 486.932727 120.802885 
L 487.541455 120.962017 
L 488.454545 121.166426 
L 489.367636 121.634459 
L 490.280727 122.28399 
L 491.193818 123.061114 
L 491.802545 123.335773 
L 493.324364 124.418302 
L 494.237455 124.831724 
L 495.150545 124.991566 
L 496.063636 124.896129 
L 496.976727 124.535225 
L 497.889818 123.92791 
L 498.802909 123.129211 
L 501.846545 119.196335 
L 505.803273 113.4123 
L 507.020727 112.086558 
L 507.933818 111.383901 
L 508.846909 111.003659 
L 509.455636 110.940772 
L 510.064364 111.039204 
L 510.673091 111.307635 
L 511.586182 111.815347 
L 511.890545 111.352623 
L 512.803636 110.716749 
L 515.542909 109.145804 
L 517.977818 108.004617 
L 520.108364 107.242215 
L 522.238909 106.739511 
L 524.065091 106.491222 
L 526.195636 106.386119 
L 528.934909 106.496551 
L 531.978545 106.85436 
L 547.501091 109.099042 
L 555.110182 109.764377 
L 569.719636 110.68235 
L 577.024364 111.120885 
L 584.024727 111.673022 
L 587.677091 112.104396 
L 588.590182 112.752834 
L 590.720727 114.309326 
L 593.46 116.580774 
L 596.808 119.713155 
L 598.634182 121.644902 
L 600.460364 123.855429 
L 601.982182 125.99639 
L 603.504 128.513494 
L 605.025818 131.504698 
L 606.547636 135.083797 
L 608.373818 140.131553 
L 609.895636 145.301496 
L 611.417455 151.294869 
L 613.243636 159.495076 
L 615.374182 170.263283 
L 618.417818 187.033012 
L 621.765818 205.043991 
L 623.592 213.795879 
L 625.113818 220.286932 
L 625.722545 143.918502 
L 627.244364 138.658362 
L 628.766182 134.247365 
L 629.983636 131.250424 
L 631.201091 128.70301 
L 632.114182 127.102873 
L 633.636 124.75877 
L 634.853455 123.492263 
L 635.157818 123.431806 
L 636.070909 122.692666 
L 637.288364 121.969624 
L 638.201455 121.5689 
L 639.114545 121.37108 
L 639.723273 121.526999 
L 640.636364 121.739486 
L 641.853818 122.377807 
L 644.593091 124.235927 
L 645.506182 124.799171 
L 646.419273 125.138408 
L 647.332364 125.227081 
L 648.245455 125.040154 
L 649.158545 124.589057 
L 650.071636 123.879448 
L 650.984727 122.967142 
L 652.202182 121.447648 
L 653.724 119.209475 
L 657.680727 113.097635 
L 658.898182 111.70013 
L 659.811273 110.976938 
L 660.42 110.665664 
L 661.028727 110.50875 
L 661.637455 110.507786 
L 662.246182 110.671166 
L 662.854909 110.993063 
L 663.768 111.560698 
L 664.376727 110.871352 
L 665.898545 109.946598 
L 668.333455 108.504285 
L 670.159636 107.55478 
L 671.985818 106.803634 
L 673.812 106.275376 
L 675.638182 105.950723 
L 677.464364 105.805971 
L 679.594909 105.822851 
L 682.334182 106.08302 
L 685.682182 106.633523 
L 694.508727 108.195196 
L 699.682909 108.843301 
L 707.596364 109.556351 
L 716.727273 110.152741 
L 722.205818 110.40023 
L 735.293455 111.264507 
L 739.554545 111.691325 
L 739.858909 111.782736 
L 740.772 112.430288 
L 743.206909 114.224317 
L 746.554909 117.076934 
L 748.989818 119.394823 
L 751.120364 121.678725 
L 752.946545 123.952917 
L 754.468364 126.172206 
L 755.990182 128.780962 
L 757.512 131.890994 
L 759.338182 136.275738 
L 760.555636 139.862862 
L 762.077455 145.042349 
L 763.599273 151.046416 
L 765.425455 159.265891 
L 767.556 170.055005 
L 770.904 188.559281 
L 773.947636 204.970741 
L 775.773818 213.778009 
L 777.6 221.524821 
L 777.6 221.524821 
" style="fill:none;stroke:#d62728;stroke-linecap:square;stroke-width:2.5;"/>
   </g>
   <g id="line2d_38">
    <path clip-path="url(#p6c030e0e29)" d="M 473.236364 183.272727 
L 777.6 183.272727 
" style="fill:none;stroke:#000000;stroke-dasharray:3.2,0.8,0.5,0.8;stroke-dashoffset:0;stroke-width:0.5;"/>
   </g>
   <g id="line2d_39">
    <path clip-path="url(#p6c030e0e29)" d="M 625.418182 230.4 
L 625.418182 57.6 
" style="fill:none;stroke:#000000;stroke-dasharray:3.2,0.8,0.5,0.8;stroke-dashoffset:0;stroke-width:0.5;"/>
   </g>
   <g id="patch_8">
    <path d="M 473.236364 230.4 
L 473.236364 57.6 
" style="fill:none;stroke:#000000;stroke-linecap:square;stroke-linejoin:miter;stroke-width:0.8;"/>
   </g>
   <g id="patch_9">
    <path d="M 777.6 230.4 
L 777.6 57.6 
" style="fill:none;stroke:#000000;stroke-linecap:square;stroke-linejoin:miter;stroke-width:0.8;"/>
   </g>
   <g id="patch_10">
    <path d="M 473.236364 230.4 
L 777.6 230.4 
" style="fill:none;stroke:#000000;stroke-linecap:square;stroke-linejoin:miter;stroke-width:0.8;"/>
   </g>
   <g id="patch_11">
    <path d="M 473.236364 57.6 
L 777.6 57.6 
" style="fill:none;stroke:#000000;stroke-linecap:square;stroke-linejoin:miter;stroke-width:0.8;"/>
   </g>
  </g>
 </g>
 <defs>
  <clipPath id="p394c117d0a">
   <rect height="172.8" width="304.363636" x="108" y="57.6"/>
  </clipPath>
  <clipPath id="p6c030e0e29">
   <rect height="172.8" width="304.363636" x="473.236364" y="57.6"/>
  </clipPath>
 </defs>
</svg>
