<?xml version="1.0" encoding="utf-8" standalone="no"?>
<!DOCTYPE svg PUBLIC "-//W3C//DTD SVG 1.1//EN"
  "http://www.w3.org/Graphics/SVG/1.1/DTD/svg11.dtd">
<!-- Created with matplotlib (https://matplotlib.org/) -->
<svg height="288pt" version="1.1" viewBox="0 0 864 288" width="864pt" xmlns="http://www.w3.org/2000/svg" xmlns:xlink="http://www.w3.org/1999/xlink">
 <metadata>
  <rdf:RDF xmlns:cc="http://creativecommons.org/ns#" xmlns:dc="http://purl.org/dc/elements/1.1/" xmlns:rdf="http://www.w3.org/1999/02/22-rdf-syntax-ns#">
   <cc:Work>
    <dc:type rdf:resource="http://purl.org/dc/dcmitype/StillImage"/>
    <dc:date>2021-11-09T11:45:19.960652</dc:date>
    <dc:format>image/svg+xml</dc:format>
    <dc:creator>
     <cc:Agent>
      <dc:title>Matplotlib v3.3.4, https://matplotlib.org/</dc:title>
     </cc:Agent>
    </dc:creator>
   </cc:Work>
  </rdf:RDF>
 </metadata>
 <defs>
  <style type="text/css">*{stroke-linecap:butt;stroke-linejoin:round;}</style>
 </defs>
 <g id="figure_1">
  <g id="patch_1">
   <path d="M 0 288 
L 864 288 
L 864 0 
L 0 0 
z
" style="fill:#ffffff;"/>
  </g>
  <g id="axes_1">
   <g id="patch_2">
    <path d="M 108 230.4 
L 412.363636 230.4 
L 412.363636 57.6 
L 108 57.6 
z
" style="fill:#ffffff;"/>
   </g>
   <g id="matplotlib.axis_1">
    <g id="xtick_1">
     <g id="line2d_1">
      <defs>
       <path d="M 0 0 
L 0 3.5 
" id="m2bf0da1725" style="stroke:#000000;stroke-width:0.8;"/>
      </defs>
      <g>
       <use style="fill:#ffffff;stroke:#000000;stroke-width:0.8;" x="108" xlink:href="#m2bf0da1725" y="230.4"/>
      </g>
     </g>
     <g id="text_1">
      <!-- 4.0 -->
      <g transform="translate(96.75 249.693438)scale(0.18 -0.18)">
       <defs>
        <path d="M 47.296875 16.703125 
L 37 16.703125 
L 37 0 
L 29.203125 0 
L 29.203125 16.703125 
L 1.203125 16.703125 
L 1.203125 23.09375 
L 32.59375 67.59375 
L 37 67.59375 
L 37 23.09375 
L 47.296875 23.09375 
z
M 29.203125 23.09375 
L 29.203125 57.40625 
L 5.203125 23.09375 
z
" id="STIXGeneral-Regular-52"/>
        <path d="M 18.09375 4.296875 
Q 18.09375 2.09375 16.4375 0.5 
Q 14.796875 -1.09375 12.5 -1.09375 
Q 10.203125 -1.09375 8.59375 0.5 
Q 7 2.09375 7 4.390625 
Q 7 6.703125 8.640625 8.34375 
Q 10.296875 10 12.59375 10 
Q 14.796875 10 16.4375 8.296875 
Q 18.09375 6.59375 18.09375 4.296875 
z
" id="STIXGeneral-Regular-46"/>
        <path d="M 47.59375 33 
Q 47.59375 26.296875 46.296875 20.34375 
Q 45 14.40625 42.453125 9.40625 
Q 39.90625 4.40625 35.40625 1.5 
Q 30.90625 -1.40625 25 -1.40625 
Q 18.90625 -1.40625 14.296875 1.6875 
Q 9.703125 4.796875 7.203125 10 
Q 4.703125 15.203125 3.546875 21.09375 
Q 2.40625 27 2.40625 33.59375 
Q 2.40625 42.90625 4.703125 50.34375 
Q 7 57.796875 12.34375 62.6875 
Q 17.703125 67.59375 25.40625 67.59375 
Q 35.203125 67.59375 41.390625 58 
Q 47.59375 48.40625 47.59375 33 
z
M 38 32.5 
Q 38 48.296875 34.640625 56.640625 
Q 31.296875 65 24.796875 65 
Q 18.59375 65 15.296875 56.59375 
Q 12 48.203125 12 32.90625 
Q 12 17.5 15.296875 9.34375 
Q 18.59375 1.203125 25 1.203125 
Q 31.296875 1.203125 34.640625 9.34375 
Q 38 17.5 38 32.5 
z
" id="STIXGeneral-Regular-48"/>
       </defs>
       <use xlink:href="#STIXGeneral-Regular-52"/>
       <use x="49.999985" xlink:href="#STIXGeneral-Regular-46"/>
       <use x="74.999969" xlink:href="#STIXGeneral-Regular-48"/>
      </g>
     </g>
    </g>
    <g id="xtick_2">
     <g id="line2d_2">
      <g>
       <use style="fill:#ffffff;stroke:#000000;stroke-width:0.8;" x="168.872727" xlink:href="#m2bf0da1725" y="230.4"/>
      </g>
     </g>
     <g id="text_2">
      <!-- 4.2 -->
      <g transform="translate(157.622727 249.693438)scale(0.18 -0.18)">
       <defs>
        <path d="M 47.40625 13.703125 
L 42 0 
L 2.90625 0 
L 2.90625 1.203125 
L 20.703125 20.09375 
Q 27.703125 27.40625 30.703125 33.5 
Q 33.703125 39.59375 33.703125 46.09375 
Q 33.703125 52.796875 30 56.5 
Q 26.296875 60.203125 19.796875 60.203125 
Q 14.40625 60.203125 11.25 57.390625 
Q 8.09375 54.59375 5.09375 47.203125 
L 3 47.703125 
Q 4.703125 57 9.84375 62.296875 
Q 15 67.59375 23.796875 67.59375 
Q 32.09375 67.59375 37.1875 62.59375 
Q 42.296875 57.59375 42.296875 50 
Q 42.296875 38.703125 29.5 25.203125 
L 13 7.59375 
L 36.40625 7.59375 
Q 39.703125 7.59375 41.640625 8.890625 
Q 43.59375 10.203125 46 14.296875 
z
" id="STIXGeneral-Regular-50"/>
       </defs>
       <use xlink:href="#STIXGeneral-Regular-52"/>
       <use x="49.999985" xlink:href="#STIXGeneral-Regular-46"/>
       <use x="74.999969" xlink:href="#STIXGeneral-Regular-50"/>
      </g>
     </g>
    </g>
    <g id="xtick_3">
     <g id="line2d_3">
      <g>
       <use style="fill:#ffffff;stroke:#000000;stroke-width:0.8;" x="229.745455" xlink:href="#m2bf0da1725" y="230.4"/>
      </g>
     </g>
     <g id="text_3">
      <!-- 4.4 -->
      <g transform="translate(218.495455 249.693438)scale(0.18 -0.18)">
       <use xlink:href="#STIXGeneral-Regular-52"/>
       <use x="49.999985" xlink:href="#STIXGeneral-Regular-46"/>
       <use x="74.999969" xlink:href="#STIXGeneral-Regular-52"/>
      </g>
     </g>
    </g>
    <g id="xtick_4">
     <g id="line2d_4">
      <g>
       <use style="fill:#ffffff;stroke:#000000;stroke-width:0.8;" x="290.618182" xlink:href="#m2bf0da1725" y="230.4"/>
      </g>
     </g>
     <g id="text_4">
      <!-- 4.6 -->
      <g transform="translate(279.368182 249.693438)scale(0.18 -0.18)">
       <defs>
        <path d="M 44.59375 68.40625 
L 44.796875 66.796875 
Q 33 64.90625 25.09375 57.25 
Q 17.203125 49.59375 15.203125 38.296875 
Q 21 42.796875 27.90625 42.796875 
Q 36.703125 42.796875 41.75 37.1875 
Q 46.796875 31.59375 46.796875 21.90625 
Q 46.796875 12.09375 41.703125 5.90625 
Q 35.796875 -1.40625 25.796875 -1.40625 
Q 13.59375 -1.40625 8.09375 8.703125 
Q 3.40625 17.296875 3.40625 27.90625 
Q 3.40625 44.296875 14.296875 55.5 
Q 20.5 61.90625 27.046875 64.546875 
Q 33.59375 67.203125 44.59375 68.40625 
z
M 37.796875 18.796875 
Q 37.796875 38.203125 24.296875 38.203125 
Q 19.296875 38.203125 16 35.546875 
Q 12.703125 32.90625 12.703125 26.59375 
Q 12.703125 14.90625 16.34375 8.15625 
Q 20 1.40625 26.90625 1.40625 
Q 32.203125 1.40625 35 6.15625 
Q 37.796875 10.90625 37.796875 18.796875 
z
" id="STIXGeneral-Regular-54"/>
       </defs>
       <use xlink:href="#STIXGeneral-Regular-52"/>
       <use x="49.999985" xlink:href="#STIXGeneral-Regular-46"/>
       <use x="74.999969" xlink:href="#STIXGeneral-Regular-54"/>
      </g>
     </g>
    </g>
    <g id="xtick_5">
     <g id="line2d_5">
      <g>
       <use style="fill:#ffffff;stroke:#000000;stroke-width:0.8;" x="351.490909" xlink:href="#m2bf0da1725" y="230.4"/>
      </g>
     </g>
     <g id="text_5">
      <!-- 4.8 -->
      <g transform="translate(340.240909 249.693438)scale(0.18 -0.18)">
       <defs>
        <path d="M 44.5 15.5 
Q 44.5 7.796875 39.140625 3.1875 
Q 33.796875 -1.40625 24.796875 -1.40625 
Q 16.40625 -1.40625 11 3.1875 
Q 5.59375 7.796875 5.59375 14.90625 
Q 5.59375 20.203125 8.1875 23.953125 
Q 10.796875 27.703125 18.59375 33.203125 
Q 11.09375 39.40625 8.640625 43.203125 
Q 6.203125 47 6.203125 52 
Q 6.203125 59.09375 11.640625 63.34375 
Q 17.09375 67.59375 25.59375 67.59375 
Q 32.90625 67.59375 37.65625 63.4375 
Q 42.40625 59.296875 42.40625 53.296875 
Q 42.40625 47.796875 39.546875 44.5 
Q 36.703125 41.203125 29 37.09375 
Q 38 31.09375 41.25 26.390625 
Q 44.5 21.703125 44.5 15.5 
z
M 35.5 53.296875 
Q 35.5 58.5 32.59375 61.640625 
Q 29.703125 64.796875 24.59375 64.796875 
Q 19.5 64.796875 16.546875 62.140625 
Q 13.59375 59.5 13.59375 54.890625 
Q 13.59375 50.296875 16.546875 46.546875 
Q 19.5 42.796875 26.09375 38.90625 
Q 31.203125 41.90625 33.34375 45.25 
Q 35.5 48.59375 35.5 53.296875 
z
M 27.09375 27.203125 
L 21.203125 31.203125 
Q 16.796875 27.59375 15 24.140625 
Q 13.203125 20.703125 13.203125 15.796875 
Q 13.203125 9 16.640625 5.203125 
Q 20.09375 1.40625 25.90625 1.40625 
Q 30.796875 1.40625 33.84375 4.453125 
Q 36.90625 7.5 36.90625 12.40625 
Q 36.90625 16.90625 34.59375 20.296875 
Q 32.296875 23.703125 27.09375 27.203125 
z
" id="STIXGeneral-Regular-56"/>
       </defs>
       <use xlink:href="#STIXGeneral-Regular-52"/>
       <use x="49.999985" xlink:href="#STIXGeneral-Regular-46"/>
       <use x="74.999969" xlink:href="#STIXGeneral-Regular-56"/>
      </g>
     </g>
    </g>
    <g id="xtick_6">
     <g id="line2d_6">
      <g>
       <use style="fill:#ffffff;stroke:#000000;stroke-width:0.8;" x="412.363636" xlink:href="#m2bf0da1725" y="230.4"/>
      </g>
     </g>
     <g id="text_6">
      <!-- 5.0 -->
      <g transform="translate(401.113636 249.693438)scale(0.18 -0.18)">
       <defs>
        <path d="M 43.796875 68.09375 
L 40.203125 59.59375 
Q 39.59375 58.296875 37.5 58.296875 
L 18.09375 58.296875 
L 14.09375 49.796875 
Q 25.09375 47.703125 30 45.25 
Q 34.90625 42.796875 39.09375 37 
Q 42.59375 32.203125 42.59375 24.296875 
Q 42.59375 17.09375 40.25 12.1875 
Q 37.90625 7.296875 32.796875 3.5 
Q 26 -1.40625 15.796875 -1.40625 
Q 10.09375 -1.40625 6.59375 0.296875 
Q 3.09375 2 3.09375 4.796875 
Q 3.09375 8.59375 7.59375 8.59375 
Q 11.203125 8.59375 15 5.5 
Q 18.90625 2.296875 22.09375 2.296875 
Q 27.296875 2.296875 31.4375 7.5 
Q 35.59375 12.703125 35.59375 19.203125 
Q 35.59375 28.796875 28.90625 34.203125 
Q 20.203125 41.203125 7.59375 41.203125 
Q 6.40625 41.203125 6.40625 42 
L 6.5 42.5 
L 17.40625 66.203125 
L 38.09375 66.203125 
Q 39.796875 66.203125 40.75 66.703125 
Q 41.703125 67.203125 42.90625 68.796875 
z
" id="STIXGeneral-Regular-53"/>
       </defs>
       <use xlink:href="#STIXGeneral-Regular-53"/>
       <use x="49.999985" xlink:href="#STIXGeneral-Regular-46"/>
       <use x="74.999969" xlink:href="#STIXGeneral-Regular-48"/>
      </g>
     </g>
    </g>
    <g id="text_7">
     <!-- $\^t$ -->
     <g transform="translate(257.661818 269.893438)scale(0.18 -0.18)">
      <defs>
       <path d="M -7.5 50.703125 
L -10.90625 50.703125 
L -23.09375 61 
L -35.203125 50.703125 
L -38.59375 50.703125 
L -26.203125 67.40625 
L -20 67.40625 
z
" id="STIXGeneral-Regular-770"/>
       <path d="M 29.59375 42.796875 
L 29.09375 39.59375 
L 20.703125 39.59375 
L 12 6.796875 
Q 11.796875 6 11.796875 5.40625 
Q 11.796875 3.796875 13.296875 3.796875 
Q 14.5 3.796875 16.09375 5.34375 
Q 17.703125 6.90625 21.40625 11.703125 
L 22.703125 11 
Q 18.09375 4 15.140625 1.453125 
Q 12.203125 -1.09375 8.40625 -1.09375 
Q 3.796875 -1.09375 3.796875 2.59375 
Q 3.796875 3.59375 5.40625 10 
L 13.203125 39.59375 
L 5.703125 39.59375 
L 5.59375 40.203125 
Q 5.59375 42 8.90625 42.703125 
Q 11.40625 43.296875 15.5 46.546875 
Q 19.59375 49.796875 22.203125 53.703125 
Q 22.796875 54.59375 23.59375 54.59375 
Q 24.5 54.59375 24.5 53.796875 
Q 24.5 53.296875 24.40625 53.09375 
L 21.59375 42.796875 
z
" id="STIXGeneral-Italic-116"/>
      </defs>
      <use transform="translate(39.042969 16.59375)" xlink:href="#STIXGeneral-Regular-770"/>
      <use transform="translate(0 0.203125)" xlink:href="#STIXGeneral-Italic-116"/>
     </g>
    </g>
   </g>
   <g id="matplotlib.axis_2">
    <g id="ytick_1">
     <g id="line2d_7">
      <defs>
       <path d="M 0 0 
L -3.5 0 
" id="mf17733d10b" style="stroke:#000000;stroke-width:0.8;"/>
      </defs>
      <g>
       <use style="fill:#ffffff;stroke:#000000;stroke-width:0.8;" x="108" xlink:href="#mf17733d10b" y="211.885714"/>
      </g>
     </g>
     <g id="text_8">
      <!-- 0 -->
      <g transform="translate(92 218.032433)scale(0.18 -0.18)">
       <use xlink:href="#STIXGeneral-Regular-48"/>
      </g>
     </g>
    </g>
    <g id="ytick_2">
     <g id="line2d_8">
      <g>
       <use style="fill:#ffffff;stroke:#000000;stroke-width:0.8;" x="108" xlink:href="#mf17733d10b" y="150.171429"/>
      </g>
     </g>
     <g id="text_9">
      <!-- 1 -->
      <g transform="translate(92 156.318147)scale(0.18 -0.18)">
       <defs>
        <path d="M 39.40625 0 
L 11.796875 0 
L 11.796875 1.5 
Q 17.296875 1.796875 19.296875 3.546875 
Q 21.296875 5.296875 21.296875 9.5 
L 21.296875 54.40625 
Q 21.296875 59.296875 18.296875 59.296875 
Q 16.90625 59.296875 13.796875 58.09375 
L 11.09375 57.09375 
L 11.09375 58.5 
L 29 67.59375 
L 29.90625 67.296875 
L 29.90625 7.59375 
Q 29.90625 4.296875 31.90625 2.890625 
Q 33.90625 1.5 39.40625 1.5 
z
" id="STIXGeneral-Regular-49"/>
       </defs>
       <use xlink:href="#STIXGeneral-Regular-49"/>
      </g>
     </g>
    </g>
    <g id="ytick_3">
     <g id="line2d_9">
      <g>
       <use style="fill:#ffffff;stroke:#000000;stroke-width:0.8;" x="108" xlink:href="#mf17733d10b" y="88.457143"/>
      </g>
     </g>
     <g id="text_10">
      <!-- 2 -->
      <g transform="translate(92 94.603862)scale(0.18 -0.18)">
       <use xlink:href="#STIXGeneral-Regular-50"/>
      </g>
     </g>
    </g>
    <g id="text_11">
     <!-- $C_L$ -->
     <g transform="translate(84.093437 153.99)rotate(-90)scale(0.18 -0.18)">
      <defs>
       <path d="M 68.90625 66.40625 
L 65.203125 46.40625 
L 63.40625 46.703125 
Q 61.59375 63 48.5 63 
Q 37.59375 63 28.59375 53.296875 
Q 23.296875 47.703125 20.546875 39.703125 
Q 17.796875 31.703125 17.796875 23.203125 
Q 17.796875 2.703125 35.296875 2.703125 
Q 41.5 2.703125 46.640625 5.296875 
Q 51.796875 7.90625 58.203125 14.59375 
L 60 13.09375 
Q 53.296875 5.203125 46.84375 1.703125 
Q 40.40625 -1.796875 32.703125 -1.796875 
Q 21 -1.796875 13.796875 5.140625 
Q 6.59375 12.09375 6.59375 24.296875 
Q 6.59375 34.59375 11.6875 43.9375 
Q 16.796875 53.296875 25.296875 59.296875 
Q 35.5 66.59375 47.203125 66.59375 
Q 54.09375 66.59375 58.90625 64.90625 
Q 60.90625 64.203125 63 64.203125 
Q 65.703125 64.203125 66.796875 66.40625 
z
" id="STIXGeneral-Italic-67"/>
       <path d="M 55.90625 18 
L 50.09375 0 
L -0.796875 0 
L -0.796875 1.59375 
Q 3.40625 2 4.703125 3.296875 
Q 6 4.59375 7.40625 9.40625 
L 19.59375 53.203125 
Q 20.703125 56.90625 20.703125 59.40625 
Q 20.703125 61.59375 19.140625 62.5 
Q 17.59375 63.40625 13 63.703125 
L 13 65.296875 
L 40.296875 65.296875 
L 40.296875 63.703125 
Q 35.703125 63.40625 33.546875 61.796875 
Q 31.40625 60.203125 30.203125 56 
L 18.203125 13.09375 
Q 17.203125 9.296875 17.203125 7.703125 
Q 17.203125 5.40625 19.390625 4.5 
Q 21.59375 3.59375 27.703125 3.59375 
Q 35.40625 3.59375 38.75 4.296875 
Q 42.09375 5 45.703125 7.40625 
Q 49.796875 10.09375 53.90625 18.59375 
z
" id="STIXGeneral-Italic-76"/>
      </defs>
      <use transform="translate(0 0.40625)" xlink:href="#STIXGeneral-Italic-67"/>
      <use transform="translate(66.699997 -12.821875)scale(0.7)" xlink:href="#STIXGeneral-Italic-76"/>
     </g>
    </g>
   </g>
   <g id="line2d_10">
    <path clip-path="url(#p94866f3e43)" d="M 107.695636 220.210484 
L 108.608727 215.836755 
L 109.521818 210.402245 
L 110.739273 201.77321 
L 112.565455 186.794695 
L 117.435273 145.301112 
L 118.957091 134.509594 
L 119.870182 128.839013 
L 121.087636 123.036061 
L 121.696364 120.330804 
L 122.000727 119.715017 
L 122.913818 116.536906 
L 123.218182 115.092814 
L 124.131273 113.334261 
L 126.261818 108.62411 
L 127.783636 106.302073 
L 134.175273 97.322304 
L 135.088364 96.414026 
L 136.001455 95.837115 
L 136.610182 95.658018 
L 137.218909 95.670785 
L 137.827636 95.900865 
L 138.436364 96.355383 
L 139.045091 97.048711 
L 139.653818 98.008325 
L 140.262545 99.252556 
L 141.175636 101.686811 
L 142.088727 104.873818 
L 143.001818 108.829916 
L 144.219273 115.449283 
L 145.436727 123.653748 
L 146.045455 128.417514 
L 146.349818 129.625117 
L 146.654182 127.337545 
L 146.958545 126.461744 
L 147.567273 125.397784 
L 149.697818 121.469657 
L 151.828364 118.035138 
L 154.263273 114.51073 
L 157.306909 110.589362 
L 160.350545 107.105742 
L 163.394182 104.015656 
L 166.437818 101.30079 
L 169.481455 98.953484 
L 172.829455 96.743628 
L 176.177455 94.835198 
L 181.047273 92.450967 
L 188.656364 89.195247 
L 194.743636 86.859139 
L 200.526545 84.918271 
L 204.483273 83.790839 
L 209.353091 82.654456 
L 214.222909 81.784519 
L 219.701455 81.062669 
L 222.136364 80.809944 
L 222.440727 80.606825 
L 223.049455 79.352795 
L 224.571273 76.562488 
L 227.614909 70.835309 
L 228.832364 68.92052 
L 229.745455 67.763096 
L 230.658545 66.927978 
L 231.267273 66.585692 
L 231.876 66.435266 
L 232.484727 66.503008 
L 233.093455 66.807378 
L 233.702182 67.362972 
L 234.310909 68.191511 
L 234.919636 69.310793 
L 235.832727 71.574008 
L 236.745818 74.545933 
L 237.658909 78.276191 
L 238.876364 84.414688 
L 240.093818 91.868734 
L 241.311273 100.604038 
L 242.833091 113.214965 
L 244.659273 130.358515 
L 247.702909 161.71033 
L 250.442182 189.203187 
L 251.964 202.505036 
L 253.181455 211.441065 
L 254.094545 216.963546 
L 255.007636 221.295041 
L 255.616364 223.379658 
L 256.225091 224.843578 
L 256.833818 225.684747 
L 257.138182 225.868577 
L 257.442545 225.896178 
L 257.746909 225.767746 
L 258.051273 225.487182 
L 258.66 224.458931 
L 259.268727 222.830465 
L 259.877455 220.63832 
L 260.790545 216.339709 
L 261.703636 210.986327 
L 262.921091 202.480718 
L 264.442909 190.25921 
L 269.617091 147.053106 
L 271.138909 136.354824 
L 272.356364 128.921862 
L 273.269455 124.381982 
L 274.486909 119.27227 
L 274.791273 118.776809 
L 275.704364 115.810736 
L 276.921818 112.800838 
L 278.139273 110.437505 
L 280.269818 107.097706 
L 282.096 104.48476 
L 283.313455 102.736522 
L 286.357091 98.245493 
L 287.270182 97.284833 
L 288.183273 96.646869 
L 288.792 96.432314 
L 289.400727 96.410486 
L 290.009455 96.592251 
L 290.618182 96.991366 
L 291.226909 97.639266 
L 291.835636 98.555379 
L 292.444364 99.752548 
L 293.357455 102.106901 
L 294.270545 105.216681 
L 295.183636 109.103957 
L 296.401091 115.629602 
L 297.618545 123.752498 
L 298.227273 128.480046 
L 298.531636 129.660144 
L 298.836 127.361267 
L 299.140364 126.458852 
L 299.749091 125.368034 
L 301.879636 121.354357 
L 304.010182 117.825522 
L 306.749455 113.817549 
L 309.184364 110.66292 
L 311.314909 108.15162 
L 314.358545 104.945876 
L 317.097818 102.413439 
L 319.532727 100.425136 
L 322.272 98.468099 
L 325.62 96.420618 
L 329.576727 94.354025 
L 333.229091 92.67087 
L 338.098909 90.62577 
L 343.577455 88.493217 
L 349.664727 86.373084 
L 353.621455 85.167559 
L 358.491273 83.903153 
L 362.752364 82.995621 
L 369.144 81.934925 
L 374.622545 81.038228 
L 375.231273 79.765492 
L 376.448727 77.523225 
L 380.405455 70.084165 
L 381.622909 68.326136 
L 382.536 67.344543 
L 383.449091 66.73336 
L 384.057818 66.563488 
L 384.666545 66.612861 
L 385.275273 66.898273 
L 385.884 67.445288 
L 386.492727 68.261831 
L 387.101455 69.363464 
L 388.014545 71.607758 
L 388.927636 74.56871 
L 389.840727 78.293286 
L 390.753818 82.754073 
L 391.971273 89.887274 
L 393.188727 98.314566 
L 394.710545 110.608134 
L 396.536727 127.475767 
L 398.971636 152.29258 
L 402.319636 186.452864 
L 403.841455 200.122308 
L 405.058909 209.48709 
L 406.276364 217.164192 
L 407.189455 221.359286 
L 407.798182 223.418818 
L 408.406909 224.871444 
L 409.015636 225.698253 
L 409.32 225.870504 
L 409.624364 225.889607 
L 409.928727 225.749654 
L 410.537455 224.962704 
L 411.146182 223.600495 
L 411.754909 221.668104 
L 412.363636 219.184362 
L 412.363636 219.184362 
" style="fill:none;stroke:#1f77b4;stroke-linecap:square;stroke-width:2.5;"/>
   </g>
   <g id="line2d_11">
    <path clip-path="url(#p94866f3e43)" d="M 107.695636 208.315118 
L 108.913091 203.557544 
L 110.434909 196.465968 
L 112.565455 185.274146 
L 115.609091 169.250481 
L 117.130909 162.319088 
L 118.652727 156.381087 
L 119.261455 154.565005 
L 120.783273 149.676057 
L 122.305091 144.88645 
L 123.218182 142.38314 
L 124.435636 139.819439 
L 125.348727 138.443579 
L 126.261818 137.530104 
L 127.174909 137.060924 
L 127.479273 137.500288 
L 128.088 137.583655 
L 130.218545 137.509605 
L 131.436 137.211842 
L 132.349091 136.692654 
L 133.262182 135.838954 
L 134.175273 134.610195 
L 135.088364 132.973954 
L 136.001455 130.983066 
L 137.523273 126.973797 
L 141.784364 115.013148 
L 143.001818 112.599257 
L 143.914909 111.320265 
L 144.523636 110.81779 
L 145.132364 110.573628 
L 145.741091 110.608792 
L 146.045455 110.756919 
L 146.349818 110.48046 
L 146.958545 107.982636 
L 149.089091 102.602051 
L 150.610909 99.524968 
L 151.828364 97.498853 
L 153.350182 95.463518 
L 154.567636 94.161661 
L 155.785091 93.109735 
L 157.306909 92.078744 
L 159.133091 91.157662 
L 161.872364 90.135786 
L 169.785818 87.372132 
L 178.916727 84.01705 
L 182.569091 82.954064 
L 186.221455 82.139047 
L 189.265091 81.674185 
L 192.613091 81.36348 
L 196.265455 81.22048 
L 201.439636 81.217999 
L 209.657455 81.228576 
L 214.831636 81.050634 
L 220.310182 80.621554 
L 222.440727 80.470286 
L 223.049455 81.017757 
L 224.571273 82.128744 
L 225.788727 83.242161 
L 227.310545 84.999812 
L 228.528 86.759516 
L 229.745455 88.87536 
L 230.962909 91.397503 
L 232.484727 95.196435 
L 233.702182 98.850794 
L 234.919636 103.108568 
L 237.354545 113.788352 
L 239.485091 125.343555 
L 241.311273 136.780087 
L 243.441818 151.642907 
L 248.616 188.838205 
L 250.137818 198.197128 
L 251.355273 204.518709 
L 252.572727 209.564261 
L 253.485818 212.412473 
L 254.398909 214.425734 
L 255.007636 215.267757 
L 255.616364 215.708189 
L 255.920727 215.818662 
L 256.529455 215.64889 
L 257.138182 215.118268 
L 257.746909 214.202282 
L 258.66 212.228634 
L 259.573091 209.52242 
L 260.790545 204.964977 
L 262.008 199.512812 
L 263.834182 190.161062 
L 268.704 164.357058 
L 270.225818 157.829509 
L 271.138909 154.585088 
L 274.486909 143.602012 
L 276.313091 139.387596 
L 277.226182 137.900228 
L 277.530545 137.540886 
L 277.834909 136.966421 
L 278.443636 136.397513 
L 279.356727 136.022356 
L 279.661091 136.496007 
L 280.269818 136.62802 
L 282.096 136.559417 
L 283.313455 136.195849 
L 284.226545 135.594604 
L 284.835273 135.007317 
L 285.748364 133.814278 
L 286.661455 132.179243 
L 287.574545 130.147417 
L 288.792 126.842965 
L 290.922545 120.064095 
L 293.053091 113.423213 
L 294.270545 110.364394 
L 295.183636 108.677536 
L 295.792364 107.877339 
L 296.401091 107.392335 
L 297.009818 107.219184 
L 297.618545 107.391216 
L 298.227273 107.924292 
L 298.531636 107.828131 
L 298.836 106.503283 
L 299.444727 105.112388 
L 300.662182 102.80306 
L 301.879636 100.949398 
L 303.097091 99.462668 
L 304.314545 98.274195 
L 305.836364 97.110857 
L 307.358182 96.199856 
L 310.401818 94.728292 
L 312.836727 93.454306 
L 314.967273 92.075104 
L 317.402182 90.269024 
L 325.011273 84.545854 
L 326.533091 83.652311 
L 329.272364 82.218412 
L 331.402909 81.3458 
L 334.446545 80.510025 
L 337.185818 80.127534 
L 339.620727 80.016324 
L 342.055636 80.058319 
L 345.708 80.26973 
L 364.578545 81.166789 
L 368.839636 81.074943 
L 372.796364 80.787635 
L 374.622545 80.676537 
L 375.231273 81.221418 
L 376.448727 82.075429 
L 377.970545 83.410952 
L 379.492364 85.143471 
L 380.709818 86.865554 
L 381.927273 88.94227 
L 383.144727 91.426473 
L 384.362182 94.378791 
L 385.579636 97.856328 
L 386.797091 101.913955 
L 388.318909 107.880075 
L 389.536364 113.593069 
L 391.666909 125.076373 
L 393.493091 136.458753 
L 395.623636 151.297806 
L 400.797818 188.525722 
L 402.319636 197.879645 
L 403.537091 204.218397 
L 404.754545 209.316915 
L 405.667636 212.182985 
L 406.580727 214.201273 
L 407.189455 215.061878 
L 407.798182 215.521932 
L 408.406909 215.586778 
L 408.711273 215.474253 
L 409.32 214.930195 
L 409.928727 214.062544 
L 410.841818 212.157034 
L 411.754909 209.496257 
L 412.363636 207.37195 
L 412.363636 207.37195 
" style="fill:none;stroke:#ff7f0e;stroke-linecap:square;stroke-width:2.5;"/>
   </g>
   <g id="line2d_12">
    <path clip-path="url(#p94866f3e43)" d="M 107.695636 207.111671 
L 108.913091 203.117664 
L 110.434909 197.176992 
L 112.261091 189.058837 
L 116.217818 171.088617 
L 118.044 164.303214 
L 119.870182 158.342009 
L 120.478909 156.721303 
L 121.696364 153.260184 
L 123.218182 149.328013 
L 124.131273 147.86629 
L 124.74 147.175474 
L 125.653091 146.498921 
L 126.566182 146.176318 
L 129.305455 145.633165 
L 129.609818 146.020478 
L 129.914182 145.974022 
L 130.522909 145.584213 
L 131.131636 144.982923 
L 132.044727 143.706804 
L 132.957818 141.968259 
L 133.870909 139.78063 
L 134.784 137.147065 
L 135.392727 134.988475 
L 136.001455 133.166336 
L 138.132 125.681524 
L 139.958182 119.459126 
L 141.48 115.038763 
L 142.697455 112.257923 
L 143.610545 110.719836 
L 144.523636 109.713125 
L 145.132364 109.354785 
L 145.741091 109.258212 
L 146.045455 109.32572 
L 146.349818 109.108834 
L 146.958545 107.37585 
L 149.393455 103.136132 
L 151.828364 99.559175 
L 158.828727 89.568412 
L 161.263636 86.239206 
L 162.785455 84.443119 
L 164.307273 82.984303 
L 165.524727 82.094684 
L 166.742182 81.455075 
L 167.959636 81.066445 
L 169.177091 80.893674 
L 170.698909 80.930088 
L 172.525091 81.231705 
L 176.481818 82.22545 
L 178.916727 82.751224 
L 181.656 83.151789 
L 184.699636 83.345581 
L 187.438909 83.29092 
L 189.873818 83.064141 
L 192.917455 82.562334 
L 202.352727 80.696984 
L 206.005091 80.310757 
L 208.744364 80.392248 
L 222.440727 81.201987 
L 223.049455 81.924133 
L 224.266909 83.179429 
L 225.484364 84.707892 
L 227.006182 87.061953 
L 228.528 89.964506 
L 229.745455 92.70031 
L 231.267273 96.693104 
L 232.789091 101.405307 
L 233.702182 104.725722 
L 235.832727 113.417767 
L 237.354545 120.571643 
L 239.180727 130.282237 
L 241.311273 143.025514 
L 243.746182 159.054556 
L 247.702909 185.090666 
L 249.529091 195.629639 
L 250.746545 201.594077 
L 251.964 206.473711 
L 253.181455 210.242314 
L 254.094545 212.147895 
L 254.703273 213.001874 
L 255.312 213.517798 
L 255.920727 213.701305 
L 256.529455 213.557393 
L 257.138182 213.105215 
L 257.746909 212.355567 
L 258.66 210.698349 
L 259.573091 208.464225 
L 260.790545 204.719397 
L 262.008 200.247577 
L 263.529818 193.848198 
L 266.269091 181.062013 
L 268.399636 171.49378 
L 270.225818 164.49815 
L 271.747636 159.054413 
L 272.052 158.321612 
L 273.573818 153.270454 
L 274.791273 149.656495 
L 275.704364 147.847223 
L 276.313091 147.010415 
L 276.921818 146.448615 
L 277.530545 146.104645 
L 278.748 145.726061 
L 279.661091 145.914205 
L 280.269818 146.012426 
L 281.182909 145.948774 
L 281.487273 146.330254 
L 281.791636 146.31678 
L 282.400364 145.963438 
L 283.009091 145.278062 
L 283.922182 143.901793 
L 284.835273 142.026254 
L 286.052727 138.729134 
L 287.574545 133.790426 
L 290.009455 124.487423 
L 292.14 116.786092 
L 293.357455 113.122363 
L 294.574909 110.229047 
L 295.488 108.647289 
L 296.096727 107.892091 
L 296.705455 107.391126 
L 297.314182 107.160771 
L 297.922909 107.199708 
L 298.227273 107.333443 
L 298.531636 107.192563 
L 299.140364 105.607662 
L 301.270909 102.520889 
L 302.488364 101.141241 
L 304.010182 99.689163 
L 308.88 95.43354 
L 310.706182 93.503805 
L 312.532364 91.348219 
L 319.228364 83.348028 
L 321.054545 81.767928 
L 322.576364 80.778209 
L 324.098182 80.084094 
L 325.62 79.660443 
L 327.141818 79.473827 
L 328.968 79.481046 
L 331.402909 79.745035 
L 335.055273 80.353788 
L 338.403273 80.909118 
L 341.751273 81.18667 
L 348.142909 81.403438 
L 355.752 81.063875 
L 374.622545 81.011212 
L 375.231273 81.70568 
L 376.144364 82.575885 
L 377.666182 84.398372 
L 378.883636 86.200256 
L 380.101091 88.343391 
L 381.318545 90.858707 
L 382.536 93.769538 
L 384.057818 98.00637 
L 385.275273 102.06251 
L 387.405818 110.267062 
L 388.927636 117.077594 
L 390.753818 126.400233 
L 392.884364 138.77807 
L 395.014909 152.527583 
L 400.189091 186.812083 
L 401.710909 195.524886 
L 402.928364 201.507654 
L 404.145818 206.526044 
L 405.058909 209.39855 
L 405.972 211.513696 
L 406.580727 212.519211 
L 407.189455 213.185804 
L 407.798182 213.511762 
L 408.406909 213.504219 
L 409.015636 213.177487 
L 409.624364 212.539202 
L 410.233091 211.606798 
L 411.146182 209.700275 
L 412.059273 207.244746 
L 412.363636 206.320351 
L 412.363636 206.320351 
" style="fill:none;stroke:#2ca02c;stroke-linecap:square;stroke-width:2.5;"/>
   </g>
   <g id="line2d_13">
    <path clip-path="url(#p94866f3e43)" d="M 107.695636 207.054166 
L 108.913091 203.42652 
L 110.434909 198.016066 
L 112.261091 190.570241 
L 116.522182 172.620272 
L 118.044 167.221685 
L 121.087636 157.166259 
L 122.305091 153.615599 
L 122.609455 152.880318 
L 122.913818 151.772862 
L 123.522545 150.574463 
L 124.131273 149.826318 
L 124.74 149.376628 
L 125.348727 149.171008 
L 125.653091 149.136219 
L 126.261818 149.406613 
L 127.783636 149.674353 
L 128.696727 149.570573 
L 129.305455 149.302293 
L 129.914182 148.816534 
L 130.218545 148.491161 
L 130.522909 148.576879 
L 131.131636 147.726954 
L 132.044727 145.731844 
L 132.957818 142.857951 
L 133.566545 141.129447 
L 135.088364 135.410564 
L 140.262545 114.516617 
L 141.48 110.774597 
L 142.393091 108.501431 
L 143.306182 106.741615 
L 144.219273 105.531682 
L 144.828 105.040612 
L 145.436727 104.815323 
L 146.349818 104.68999 
L 146.958545 103.246698 
L 148.784727 100.69723 
L 150.306545 99.000913 
L 151.828364 97.584907 
L 153.958909 95.914174 
L 157.306909 93.629005 
L 160.046182 91.718966 
L 162.785455 89.529996 
L 166.133455 86.515348 
L 169.177091 83.885246 
L 171.003273 82.580719 
L 172.829455 81.574855 
L 174.351273 80.975336 
L 176.177455 80.536663 
L 178.003636 80.364505 
L 180.134182 80.428297 
L 182.569091 80.752326 
L 187.438909 81.737435 
L 191.395636 82.39949 
L 192.917455 82.547468 
L 194.134909 82.532746 
L 197.482909 82.399218 
L 202.352727 81.930482 
L 209.657455 81.183457 
L 213.614182 81.109343 
L 219.092727 81.260885 
L 222.440727 81.487891 
L 223.049455 82.220489 
L 223.962545 83.165895 
L 225.18 84.707992 
L 226.397455 86.581873 
L 227.919273 89.441334 
L 229.136727 92.154715 
L 230.354182 95.375946 
L 231.876 99.940132 
L 233.702182 106.329757 
L 235.528364 113.800556 
L 237.354545 122.401079 
L 239.485091 133.85725 
L 241.615636 146.647349 
L 248.920364 192.624797 
L 250.442182 200.171747 
L 251.659636 205.235555 
L 252.572727 208.188487 
L 253.485818 210.45325 
L 254.398909 212.007414 
L 255.007636 212.653745 
L 255.616364 212.986712 
L 256.225091 213.004248 
L 256.833818 212.728226 
L 257.442545 212.164499 
L 258.051273 211.330608 
L 258.964364 209.603775 
L 259.877455 207.389701 
L 261.094909 203.763649 
L 262.616727 198.321571 
L 264.442909 190.771555 
L 269.008364 171.206613 
L 271.747636 161.484199 
L 272.356364 159.650303 
L 273.878182 154.9779 
L 274.791273 152.964996 
L 275.095636 152.44113 
L 275.4 151.625029 
L 276.008727 150.849763 
L 276.617455 150.443528 
L 277.226182 150.24713 
L 278.139273 150.240359 
L 279.661091 150.345098 
L 280.269818 150.246984 
L 280.878545 150.005602 
L 281.487273 149.576171 
L 282.096 148.939904 
L 282.704727 148.068126 
L 283.009091 148.016127 
L 283.617818 146.90059 
L 284.226545 145.441379 
L 285.139636 142.509372 
L 285.748364 140.78045 
L 287.270182 135.227408 
L 291.531273 118.893518 
L 293.053091 114.166326 
L 294.270545 111.168391 
L 295.183636 109.456783 
L 296.096727 108.228138 
L 296.705455 107.694027 
L 297.314182 107.395958 
L 297.922909 107.328631 
L 298.227273 107.399024 
L 298.531636 107.2224 
L 299.140364 105.75571 
L 302.184 101.287322 
L 308.88 92.308841 
L 314.662909 84.476367 
L 316.489091 82.446901 
L 318.010909 81.094374 
L 319.228364 80.280746 
L 320.445818 79.710728 
L 321.663273 79.382067 
L 322.880727 79.25479 
L 324.402545 79.331886 
L 326.533091 79.72656 
L 335.664 81.843104 
L 338.098909 82.047763 
L 339.925091 82.030303 
L 342.055636 81.822107 
L 345.099273 81.196871 
L 351.795273 79.402829 
L 355.752 78.966585 
L 358.491273 79.02855 
L 360.621818 79.263683 
L 364.578545 80.005929 
L 374.622545 82.034009 
L 375.231273 82.821364 
L 376.448727 84.233709 
L 377.666182 85.938658 
L 378.883636 87.967536 
L 380.101091 90.342985 
L 381.318545 93.164858 
L 382.840364 97.199559 
L 384.666545 102.885457 
L 386.492727 109.572328 
L 388.318909 117.345994 
L 390.145091 126.235163 
L 392.275636 137.978688 
L 394.406182 150.988703 
L 400.189091 187.6625 
L 401.710909 195.914187 
L 403.232727 202.952427 
L 404.450182 207.294956 
L 405.363273 209.740736 
L 406.276364 211.521989 
L 406.885091 212.308514 
L 407.493818 212.779404 
L 408.102545 212.942023 
L 408.711273 212.800339 
L 409.32 212.353688 
L 409.928727 211.649136 
L 410.841818 210.110316 
L 411.754909 208.06294 
L 412.363636 206.445856 
L 412.363636 206.445856 
" style="fill:none;stroke:#d62728;stroke-linecap:square;stroke-width:2.5;"/>
   </g>
   <g id="line2d_14">
    <path clip-path="url(#p94866f3e43)" d="M 108 211.885714 
L 412.363636 211.885714 
" style="fill:none;stroke:#000000;stroke-dasharray:3.2,0.8,0.5,0.8;stroke-dashoffset:0;stroke-width:0.5;"/>
   </g>
   <g id="line2d_15">
    <path clip-path="url(#p94866f3e43)" d="M 260.181818 230.4 
L 260.181818 57.6 
" style="fill:none;stroke:#000000;stroke-dasharray:3.2,0.8,0.5,0.8;stroke-dashoffset:0;stroke-width:0.5;"/>
   </g>
   <g id="patch_3">
    <path d="M 108 230.4 
L 108 57.6 
" style="fill:none;stroke:#000000;stroke-linecap:square;stroke-linejoin:miter;stroke-width:0.8;"/>
   </g>
   <g id="patch_4">
    <path d="M 412.363636 230.4 
L 412.363636 57.6 
" style="fill:none;stroke:#000000;stroke-linecap:square;stroke-linejoin:miter;stroke-width:0.8;"/>
   </g>
   <g id="patch_5">
    <path d="M 108 230.4 
L 412.363636 230.4 
" style="fill:none;stroke:#000000;stroke-linecap:square;stroke-linejoin:miter;stroke-width:0.8;"/>
   </g>
   <g id="patch_6">
    <path d="M 108 57.6 
L 412.363636 57.6 
" style="fill:none;stroke:#000000;stroke-linecap:square;stroke-linejoin:miter;stroke-width:0.8;"/>
   </g>
   <g id="legend_1">
    <g id="line2d_16">
     <path d="M 198.84762 41.7825 
L 228.83562 41.7825 
" style="fill:none;stroke:#1f77b4;stroke-linecap:square;stroke-width:2.5;"/>
    </g>
    <g id="line2d_17"/>
    <g id="text_12">
     <!-- $\Phi$ = 60$^\circ$ -->
     <g transform="translate(240.83082 47.0304)scale(0.14994 -0.14994)">
      <defs>
       <path d="M 43.203125 58 
L 43.203125 56 
Q 48.703125 56 53.75 54.703125 
Q 58.796875 53.40625 63.140625 50.75 
Q 67.5 48.09375 70.140625 43.546875 
Q 72.796875 39 72.796875 33 
Q 72.796875 27.40625 70.140625 22.84375 
Q 67.5 18.296875 63.34375 15.640625 
Q 59.203125 13 54.59375 11.640625 
Q 50 10.296875 45.703125 10.296875 
L 43.203125 10.296875 
L 43.203125 8.59375 
Q 43.203125 4.796875 45.453125 3.5 
Q 47.703125 2.203125 53.5 1.90625 
L 53.5 0 
L 22.90625 0 
L 22.90625 1.90625 
Q 28.09375 1.90625 30.546875 3.34375 
Q 33 4.796875 33 8.5 
L 33 10.296875 
L 31.296875 10.296875 
Q 17.703125 10.296875 10.59375 16.5 
Q 3.5 22.703125 3.5 33 
Q 3.5 39 6.046875 43.546875 
Q 8.59375 48.09375 12.9375 50.75 
Q 17.296875 53.40625 22.34375 54.703125 
Q 27.40625 56 33 56 
L 33 58 
Q 33 61.59375 31.046875 62.9375 
Q 29.09375 64.296875 22.90625 64.296875 
L 22.90625 66.203125 
L 53.5 66.203125 
L 53.5 64.296875 
Q 47.296875 64.296875 45.25 62.796875 
Q 43.203125 61.296875 43.203125 58 
z
M 43 52.296875 
L 43 14 
Q 50.5 14 56.203125 18.84375 
Q 61.90625 23.703125 61.90625 31.796875 
Q 61.90625 39.90625 56.953125 46.09375 
Q 52 52.296875 43 52.296875 
z
M 33.203125 14 
L 33.203125 52.296875 
Q 25.203125 52.296875 19.796875 45.9375 
Q 14.40625 39.59375 14.40625 31.796875 
Q 14.40625 24.40625 19.453125 19.203125 
Q 24.5 14 33.203125 14 
z
" id="STIXGeneral-Regular-934"/>
       <path id="STIXGeneral-Regular-32"/>
       <path d="M 63.703125 32 
L 4.796875 32 
L 4.796875 38.59375 
L 63.703125 38.59375 
z
M 63.703125 12 
L 4.796875 12 
L 4.796875 18.59375 
L 63.703125 18.59375 
z
" id="STIXGeneral-Regular-61"/>
       <path d="M 23.203125 38.703125 
Q 31 30.796875 31 25.1875 
Q 31 19.59375 27.046875 15.640625 
Q 23.09375 11.703125 17.5 11.703125 
Q 11.796875 11.703125 7.890625 15.640625 
Q 4 19.59375 4 25.40625 
Q 4 31 7.953125 34.84375 
Q 11.90625 38.703125 17.703125 38.703125 
Q 23.203125 38.703125 31 30.796875 
z
M 20.40625 18.296875 
Q 24.40625 22.296875 24.40625 25.1875 
Q 24.40625 28.09375 22.40625 30.09375 
Q 20.40625 32.09375 17.703125 32.09375 
Q 14.59375 32.09375 12.59375 30.140625 
Q 10.59375 28.203125 10.59375 25.40625 
Q 10.59375 22.296875 12.546875 20.296875 
Q 14.5 18.296875 17.5 18.296875 
Q 20.40625 18.296875 24.40625 22.296875 
z
" id="STIXGeneral-Regular-8728"/>
      </defs>
      <use transform="translate(0 0.59375)" xlink:href="#STIXGeneral-Regular-934"/>
      <use transform="translate(76.299988 0.59375)" xlink:href="#STIXGeneral-Regular-32"/>
      <use transform="translate(101.299973 0.59375)" xlink:href="#STIXGeneral-Regular-61"/>
      <use transform="translate(169.799957 0.59375)" xlink:href="#STIXGeneral-Regular-32"/>
      <use transform="translate(194.799942 0.59375)" xlink:href="#STIXGeneral-Regular-54"/>
      <use transform="translate(244.799927 0.59375)" xlink:href="#STIXGeneral-Regular-48"/>
      <use transform="translate(306.45119 35.86875)scale(0.7)" xlink:href="#STIXGeneral-Regular-8728"/>
     </g>
    </g>
    <g id="line2d_18">
     <path d="M 322.69806 41.7825 
L 352.68606 41.7825 
" style="fill:none;stroke:#ff7f0e;stroke-linecap:square;stroke-width:2.5;"/>
    </g>
    <g id="line2d_19"/>
    <g id="text_13">
     <!-- $\Phi$ = 120$^\circ$ -->
     <g transform="translate(364.68126 47.0304)scale(0.14994 -0.14994)">
      <use transform="translate(0 0.40625)" xlink:href="#STIXGeneral-Regular-934"/>
      <use transform="translate(76.299988 0.40625)" xlink:href="#STIXGeneral-Regular-32"/>
      <use transform="translate(101.299973 0.40625)" xlink:href="#STIXGeneral-Regular-61"/>
      <use transform="translate(169.799957 0.40625)" xlink:href="#STIXGeneral-Regular-32"/>
      <use transform="translate(194.799942 0.40625)" xlink:href="#STIXGeneral-Regular-49"/>
      <use transform="translate(244.799927 0.40625)" xlink:href="#STIXGeneral-Regular-50"/>
      <use transform="translate(294.799911 0.40625)" xlink:href="#STIXGeneral-Regular-48"/>
      <use transform="translate(356.451175 35.68125)scale(0.7)" xlink:href="#STIXGeneral-Regular-8728"/>
     </g>
    </g>
    <g id="line2d_20">
     <path d="M 454.0455 41.7825 
L 484.0335 41.7825 
" style="fill:none;stroke:#2ca02c;stroke-linecap:square;stroke-width:2.5;"/>
    </g>
    <g id="line2d_21"/>
    <g id="text_14">
     <!-- $\Phi$ = 160$^\circ$ -->
     <g transform="translate(496.0287 47.0304)scale(0.14994 -0.14994)">
      <use transform="translate(0 0.59375)" xlink:href="#STIXGeneral-Regular-934"/>
      <use transform="translate(76.299988 0.59375)" xlink:href="#STIXGeneral-Regular-32"/>
      <use transform="translate(101.299973 0.59375)" xlink:href="#STIXGeneral-Regular-61"/>
      <use transform="translate(169.799957 0.59375)" xlink:href="#STIXGeneral-Regular-32"/>
      <use transform="translate(194.799942 0.59375)" xlink:href="#STIXGeneral-Regular-49"/>
      <use transform="translate(244.799927 0.59375)" xlink:href="#STIXGeneral-Regular-54"/>
      <use transform="translate(294.799911 0.59375)" xlink:href="#STIXGeneral-Regular-48"/>
      <use transform="translate(356.451175 35.86875)scale(0.7)" xlink:href="#STIXGeneral-Regular-8728"/>
     </g>
    </g>
    <g id="line2d_22">
     <path d="M 585.39294 41.7825 
L 615.38094 41.7825 
" style="fill:none;stroke:#d62728;stroke-linecap:square;stroke-width:2.5;"/>
    </g>
    <g id="line2d_23"/>
    <g id="text_15">
     <!-- $\Phi$ = 180$^\circ$ -->
     <g transform="translate(627.37614 47.0304)scale(0.14994 -0.14994)">
      <use transform="translate(0 0.40625)" xlink:href="#STIXGeneral-Regular-934"/>
      <use transform="translate(76.299988 0.40625)" xlink:href="#STIXGeneral-Regular-32"/>
      <use transform="translate(101.299973 0.40625)" xlink:href="#STIXGeneral-Regular-61"/>
      <use transform="translate(169.799957 0.40625)" xlink:href="#STIXGeneral-Regular-32"/>
      <use transform="translate(194.799942 0.40625)" xlink:href="#STIXGeneral-Regular-49"/>
      <use transform="translate(244.799927 0.40625)" xlink:href="#STIXGeneral-Regular-56"/>
      <use transform="translate(294.799911 0.40625)" xlink:href="#STIXGeneral-Regular-48"/>
      <use transform="translate(356.451175 35.68125)scale(0.7)" xlink:href="#STIXGeneral-Regular-8728"/>
     </g>
    </g>
   </g>
  </g>
  <g id="axes_2">
   <g id="patch_7">
    <path d="M 473.236364 230.4 
L 777.6 230.4 
L 777.6 57.6 
L 473.236364 57.6 
z
" style="fill:#ffffff;"/>
   </g>
   <g id="matplotlib.axis_3">
    <g id="xtick_7">
     <g id="line2d_24">
      <g>
       <use style="fill:#ffffff;stroke:#000000;stroke-width:0.8;" x="473.236364" xlink:href="#m2bf0da1725" y="230.4"/>
      </g>
     </g>
     <g id="text_16">
      <!-- 4.0 -->
      <g transform="translate(461.986364 249.693438)scale(0.18 -0.18)">
       <use xlink:href="#STIXGeneral-Regular-52"/>
       <use x="49.999985" xlink:href="#STIXGeneral-Regular-46"/>
       <use x="74.999969" xlink:href="#STIXGeneral-Regular-48"/>
      </g>
     </g>
    </g>
    <g id="xtick_8">
     <g id="line2d_25">
      <g>
       <use style="fill:#ffffff;stroke:#000000;stroke-width:0.8;" x="534.109091" xlink:href="#m2bf0da1725" y="230.4"/>
      </g>
     </g>
     <g id="text_17">
      <!-- 4.2 -->
      <g transform="translate(522.859091 249.693438)scale(0.18 -0.18)">
       <use xlink:href="#STIXGeneral-Regular-52"/>
       <use x="49.999985" xlink:href="#STIXGeneral-Regular-46"/>
       <use x="74.999969" xlink:href="#STIXGeneral-Regular-50"/>
      </g>
     </g>
    </g>
    <g id="xtick_9">
     <g id="line2d_26">
      <g>
       <use style="fill:#ffffff;stroke:#000000;stroke-width:0.8;" x="594.981818" xlink:href="#m2bf0da1725" y="230.4"/>
      </g>
     </g>
     <g id="text_18">
      <!-- 4.4 -->
      <g transform="translate(583.731818 249.693438)scale(0.18 -0.18)">
       <use xlink:href="#STIXGeneral-Regular-52"/>
       <use x="49.999985" xlink:href="#STIXGeneral-Regular-46"/>
       <use x="74.999969" xlink:href="#STIXGeneral-Regular-52"/>
      </g>
     </g>
    </g>
    <g id="xtick_10">
     <g id="line2d_27">
      <g>
       <use style="fill:#ffffff;stroke:#000000;stroke-width:0.8;" x="655.854545" xlink:href="#m2bf0da1725" y="230.4"/>
      </g>
     </g>
     <g id="text_19">
      <!-- 4.6 -->
      <g transform="translate(644.604545 249.693438)scale(0.18 -0.18)">
       <use xlink:href="#STIXGeneral-Regular-52"/>
       <use x="49.999985" xlink:href="#STIXGeneral-Regular-46"/>
       <use x="74.999969" xlink:href="#STIXGeneral-Regular-54"/>
      </g>
     </g>
    </g>
    <g id="xtick_11">
     <g id="line2d_28">
      <g>
       <use style="fill:#ffffff;stroke:#000000;stroke-width:0.8;" x="716.727273" xlink:href="#m2bf0da1725" y="230.4"/>
      </g>
     </g>
     <g id="text_20">
      <!-- 4.8 -->
      <g transform="translate(705.477273 249.693438)scale(0.18 -0.18)">
       <use xlink:href="#STIXGeneral-Regular-52"/>
       <use x="49.999985" xlink:href="#STIXGeneral-Regular-46"/>
       <use x="74.999969" xlink:href="#STIXGeneral-Regular-56"/>
      </g>
     </g>
    </g>
    <g id="xtick_12">
     <g id="line2d_29">
      <g>
       <use style="fill:#ffffff;stroke:#000000;stroke-width:0.8;" x="777.6" xlink:href="#m2bf0da1725" y="230.4"/>
      </g>
     </g>
     <g id="text_21">
      <!-- 5.0 -->
      <g transform="translate(766.35 249.693438)scale(0.18 -0.18)">
       <use xlink:href="#STIXGeneral-Regular-53"/>
       <use x="49.999985" xlink:href="#STIXGeneral-Regular-46"/>
       <use x="74.999969" xlink:href="#STIXGeneral-Regular-48"/>
      </g>
     </g>
    </g>
    <g id="text_22">
     <!-- $\^t$ -->
     <g transform="translate(622.898182 269.893438)scale(0.18 -0.18)">
      <use transform="translate(39.042969 16.59375)" xlink:href="#STIXGeneral-Regular-770"/>
      <use transform="translate(0 0.203125)" xlink:href="#STIXGeneral-Italic-116"/>
     </g>
    </g>
   </g>
   <g id="matplotlib.axis_4">
    <g id="ytick_4">
     <g id="line2d_30">
      <g>
       <use style="fill:#ffffff;stroke:#000000;stroke-width:0.8;" x="473.236364" xlink:href="#mf17733d10b" y="179.576471"/>
      </g>
     </g>
     <g id="text_23">
      <!-- 0 -->
      <g transform="translate(457.236364 185.723189)scale(0.18 -0.18)">
       <use xlink:href="#STIXGeneral-Regular-48"/>
      </g>
     </g>
    </g>
    <g id="ytick_5">
     <g id="line2d_31">
      <g>
       <use style="fill:#ffffff;stroke:#000000;stroke-width:0.8;" x="473.236364" xlink:href="#mf17733d10b" y="111.811765"/>
      </g>
     </g>
     <g id="text_24">
      <!-- 2 -->
      <g transform="translate(457.236364 117.958483)scale(0.18 -0.18)">
       <use xlink:href="#STIXGeneral-Regular-50"/>
      </g>
     </g>
    </g>
    <g id="text_25">
     <!-- $C_D$ -->
     <g transform="translate(449.329801 154.98)rotate(-90)scale(0.18 -0.18)">
      <defs>
       <path d="M 13.09375 65.296875 
L 40.796875 65.296875 
Q 54.203125 65.296875 62.09375 58.296875 
Q 70 51.296875 70 38.40625 
Q 70 20.703125 54 8.296875 
Q 43.40625 0 24.90625 0 
L -0.796875 0 
L -0.796875 1.59375 
Q 3.5 2.40625 4.84375 3.59375 
Q 6.203125 4.796875 7.40625 9.203125 
L 19.59375 53.703125 
Q 20.703125 57.59375 20.703125 59.59375 
Q 20.703125 61.703125 19.09375 62.640625 
Q 17.5 63.59375 13.09375 63.703125 
z
M 31 58.40625 
L 19.203125 16.203125 
Q 17 8.203125 17 6.703125 
Q 17 3 23.796875 3 
Q 38.59375 3 47.90625 12 
Q 53.09375 17 56 24.953125 
Q 58.90625 32.90625 58.90625 40.796875 
Q 58.90625 52.90625 51.09375 58.796875 
Q 46.40625 62.296875 38 62.296875 
Q 34.796875 62.296875 33.25 61.546875 
Q 31.703125 60.796875 31 58.40625 
z
" id="STIXGeneral-Italic-68"/>
      </defs>
      <use transform="translate(0 0.40625)" xlink:href="#STIXGeneral-Italic-67"/>
      <use transform="translate(66.699997 -12.821875)scale(0.7)" xlink:href="#STIXGeneral-Italic-68"/>
     </g>
    </g>
   </g>
   <g id="line2d_32">
    <path clip-path="url(#pd44d462871)" d="M 472.932 225.924661 
L 473.236364 229.047548 
L 473.540727 127.030015 
L 475.366909 109.96251 
L 476.888727 97.806802 
L 478.106182 89.54906 
L 479.323636 82.686157 
L 480.541091 77.177721 
L 481.454182 73.859739 
L 482.367273 71.220908 
L 483.280364 69.179386 
L 484.193455 67.709386 
L 485.106545 66.685859 
L 485.715273 66.080599 
L 486.324 65.806456 
L 487.541455 65.462267 
L 488.454545 65.652586 
L 488.758909 65.94283 
L 489.367636 66.102783 
L 490.280727 66.597258 
L 490.889455 67.19699 
L 493.02 68.428452 
L 494.541818 69.042122 
L 499.716 70.773541 
L 500.933455 71.596903 
L 502.150909 72.776605 
L 503.368364 74.401493 
L 504.585818 76.547119 
L 505.803273 79.318898 
L 507.020727 82.795731 
L 508.238182 87.068161 
L 509.455636 92.235492 
L 510.673091 98.352743 
L 511.586182 102.889333 
L 511.890545 102.014843 
L 512.194909 101.899175 
L 512.803636 102.010422 
L 515.542909 101.996214 
L 520.108364 101.735545 
L 528.326182 101.04072 
L 533.500364 100.692866 
L 540.196364 100.469299 
L 554.197091 100.078522 
L 573.980727 99.35136 
L 582.198545 99.370181 
L 587.677091 99.40671 
L 588.285818 98.849842 
L 589.807636 97.67989 
L 591.938182 95.731763 
L 594.677455 92.849797 
L 598.938545 88.294199 
L 600.460364 86.980291 
L 601.677818 86.187682 
L 602.590909 85.793261 
L 603.504 85.601716 
L 604.417091 85.647368 
L 605.330182 85.976894 
L 605.938909 86.372956 
L 606.547636 86.944151 
L 607.460727 88.158546 
L 608.373818 89.83074 
L 609.286909 92.020735 
L 610.2 94.810743 
L 611.113091 98.214819 
L 612.330545 103.82709 
L 613.548 110.729069 
L 614.765455 118.960219 
L 616.287273 131.107937 
L 617.809091 145.173213 
L 619.939636 167.313178 
L 625.418182 227.512829 
L 625.722545 128.556782 
L 627.548727 111.503264 
L 629.070545 99.36724 
L 630.288 91.125103 
L 631.505455 84.250963 
L 632.418545 79.908278 
L 633.331636 76.315556 
L 634.549091 72.604292 
L 635.462182 70.54464 
L 636.375273 69.011972 
L 636.679636 68.664577 
L 636.984 68.077371 
L 637.288364 67.808098 
L 637.592727 67.776473 
L 638.505818 67.286504 
L 639.114545 67.173895 
L 640.332 67.171311 
L 641.549455 67.658861 
L 644.897455 69.463807 
L 646.723636 70.11947 
L 648.245455 70.432267 
L 650.376 70.991058 
L 651.593455 71.448376 
L 652.810909 72.130188 
L 653.724 72.854395 
L 654.941455 74.179487 
L 656.158909 75.989722 
L 657.376364 78.371442 
L 658.593818 81.416376 
L 659.811273 85.219207 
L 661.028727 89.866314 
L 662.246182 95.452393 
L 663.768 103.106961 
L 664.072364 102.225601 
L 664.376727 102.094331 
L 664.985455 102.189324 
L 668.029091 102.071941 
L 673.203273 101.671771 
L 682.942909 100.857289 
L 688.117091 100.635733 
L 699.378545 100.445772 
L 706.074545 100.253228 
L 727.38 99.603575 
L 738.032727 99.698401 
L 739.858909 99.648652 
L 740.467636 99.086701 
L 741.989455 97.90715 
L 744.12 95.944101 
L 746.554909 93.372847 
L 751.120364 88.45542 
L 752.642182 87.139529 
L 753.859636 86.345815 
L 754.772727 85.952204 
L 755.685818 85.76575 
L 756.598909 85.817527 
L 757.512 86.157148 
L 758.120727 86.565333 
L 759.033818 87.510849 
L 759.946909 88.904681 
L 760.86 90.763122 
L 761.773091 93.17994 
L 762.686182 96.184514 
L 763.599273 99.84404 
L 764.816727 105.794886 
L 766.034182 113.040059 
L 767.251636 121.619554 
L 768.773455 134.191379 
L 770.599636 151.684725 
L 772.425818 171.093724 
L 777.295636 224.883327 
L 777.6 179.576471 
L 777.6 179.576471 
" style="fill:none;stroke:#1f77b4;stroke-linecap:square;stroke-width:2.5;"/>
   </g>
   <g id="line2d_33">
    <path clip-path="url(#pd44d462871)" d="M 472.932 227.717907 
L 473.236364 229.578988 
L 473.540727 127.964946 
L 475.062545 120.546456 
L 476.584364 114.28016 
L 477.801818 110.086843 
L 478.714909 107.394951 
L 479.932364 104.508181 
L 480.845455 102.834315 
L 481.758545 101.607407 
L 482.976 100.591248 
L 483.889091 100.201388 
L 484.193455 100.281583 
L 486.019636 100.122064 
L 487.237091 100.176328 
L 487.541455 100.398184 
L 488.758909 100.713997 
L 489.672 101.137691 
L 490.889455 102.0791 
L 492.106909 103.362438 
L 492.411273 103.740529 
L 492.715636 103.894041 
L 493.933091 105.292632 
L 495.454909 107.080082 
L 496.672364 108.236983 
L 497.889818 109.037956 
L 498.802909 109.370982 
L 499.716 109.457115 
L 500.629091 109.308721 
L 501.846545 108.784391 
L 503.368364 107.778175 
L 506.412 105.657868 
L 507.933818 105.13702 
L 508.846909 105.137166 
L 509.76 105.423059 
L 510.368727 105.803463 
L 511.586182 106.812081 
L 511.890545 106.217249 
L 512.803636 105.419075 
L 514.629818 104.078147 
L 516.456 103.034969 
L 518.282182 102.265447 
L 520.412727 101.667967 
L 522.543273 101.323312 
L 525.282545 101.14063 
L 548.414182 100.405817 
L 554.197091 100.495809 
L 563.023636 100.929555 
L 573.067636 101.39122 
L 580.981091 101.501554 
L 587.677091 101.500599 
L 588.590182 102.049853 
L 590.720727 103.329576 
L 593.46 105.202647 
L 596.808 107.811154 
L 598.938545 109.811127 
L 600.764727 111.836423 
L 602.895273 114.745422 
L 604.112727 116.854634 
L 605.330182 119.386327 
L 606.547636 122.386032 
L 607.765091 125.919809 
L 608.982545 130.057937 
L 610.2 134.86175 
L 611.417455 140.351944 
L 612.939273 148.237138 
L 614.765455 158.998186 
L 616.896 173.049157 
L 624.200727 223.062968 
L 625.113818 228.284417 
L 625.722545 127.591267 
L 627.244364 120.131433 
L 628.766182 113.782333 
L 629.983636 109.488624 
L 631.201091 105.882317 
L 632.114182 103.641228 
L 633.331636 101.411819 
L 634.244727 100.263518 
L 635.157818 99.515571 
L 636.070909 99.094017 
L 636.679636 99.128118 
L 637.897091 99.008242 
L 638.201455 98.796482 
L 639.114545 98.795398 
L 639.418909 99.010577 
L 640.940727 99.297397 
L 641.549455 99.587542 
L 642.462545 100.234162 
L 643.071273 100.944937 
L 648.549818 107.196716 
L 649.767273 108.057408 
L 650.984727 108.48071 
L 651.897818 108.49959 
L 652.810909 108.292139 
L 654.028364 107.678686 
L 655.854545 106.303158 
L 657.680727 104.819541 
L 658.898182 104.066612 
L 659.811273 103.741519 
L 660.42 103.66842 
L 661.028727 103.732456 
L 661.637455 103.957516 
L 662.246182 104.343054 
L 663.159273 105.263265 
L 663.463636 105.670041 
L 663.768 105.842211 
L 664.072364 105.31312 
L 664.681091 104.908641 
L 666.202909 104.119048 
L 668.029091 103.462762 
L 669.855273 103.045479 
L 672.290182 102.730427 
L 678.377455 102.118548 
L 681.421091 101.489048 
L 689.030182 99.899058 
L 692.682545 99.381009 
L 695.421818 99.187837 
L 699.378545 99.182333 
L 702.726545 99.379388 
L 708.813818 100.00503 
L 715.205455 100.658656 
L 722.205818 101.160731 
L 729.206182 101.461695 
L 736.206545 101.545873 
L 739.858909 101.553725 
L 740.772 102.094495 
L 743.206909 103.549767 
L 746.859273 106.077954 
L 749.598545 108.261868 
L 751.424727 109.970191 
L 752.946545 111.652346 
L 754.772727 114.036563 
L 755.990182 116.010364 
L 757.207636 118.397378 
L 758.425091 121.247067 
L 759.642545 124.623408 
L 761.164364 129.684819 
L 762.381818 134.470982 
L 763.903636 141.434988 
L 765.425455 149.566724 
L 767.251636 160.559826 
L 769.382182 174.826802 
L 776.078182 220.847258 
L 777.295636 227.845217 
L 777.6 179.576471 
L 777.6 179.576471 
" style="fill:none;stroke:#ff7f0e;stroke-linecap:square;stroke-width:2.5;"/>
   </g>
   <g id="line2d_34">
    <path clip-path="url(#pd44d462871)" d="M 472.932 222.31177 
L 473.236364 223.647084 
L 473.540727 134.169751 
L 475.062545 127.903052 
L 476.888727 121.315317 
L 478.410545 116.586337 
L 479.628 113.377866 
L 480.541091 111.396676 
L 481.454182 109.867279 
L 482.367273 108.758877 
L 483.280364 108.059317 
L 484.193455 107.649725 
L 485.106545 107.478994 
L 485.410909 107.610827 
L 486.628364 107.682421 
L 487.541455 108.015294 
L 487.845818 108.174373 
L 488.454545 108.829329 
L 489.672 110.156577 
L 491.193818 112.321768 
L 493.628727 115.859837 
L 494.541818 116.896996 
L 495.150545 117.174663 
L 496.063636 117.702313 
L 496.976727 117.926458 
L 497.585455 117.899957 
L 498.498545 117.607138 
L 499.411636 117.033461 
L 500.020364 116.518869 
L 504.281455 111.449433 
L 506.107636 109.417441 
L 507.325091 108.440884 
L 508.238182 107.961662 
L 509.151273 107.738289 
L 510.064364 107.805247 
L 510.977455 108.180508 
L 511.281818 108.389216 
L 511.586182 108.435808 
L 512.194909 107.762352 
L 517.673455 104.696383 
L 527.717455 99.662159 
L 529.543636 99.121978 
L 531.369818 98.83263 
L 533.196 98.793375 
L 535.022182 98.967221 
L 537.761455 99.491449 
L 544.457455 100.890094 
L 547.805455 101.318687 
L 551.457818 101.567667 
L 555.414545 101.612236 
L 561.197455 101.398712 
L 566.980364 101.224318 
L 569.719636 101.303948 
L 578.850545 101.825179 
L 587.677091 102.438292 
L 588.590182 103.113134 
L 590.416364 104.506592 
L 592.546909 106.414614 
L 594.981818 108.882668 
L 597.416727 111.658085 
L 599.851636 114.734116 
L 601.373455 117.014781 
L 603.199636 120.228454 
L 604.721455 123.418123 
L 605.938909 126.375603 
L 607.156364 129.764194 
L 608.678182 134.667626 
L 610.2 140.406051 
L 612.026182 148.489183 
L 613.852364 157.720625 
L 615.982909 169.719666 
L 618.722182 186.437126 
L 622.070182 206.169973 
L 623.896364 215.818879 
L 625.418182 222.952705 
L 625.722545 134.823171 
L 627.853091 126.312666 
L 629.679273 120.013783 
L 631.201091 115.539825 
L 632.418545 112.566604 
L 633.940364 109.909448 
L 634.853455 108.901942 
L 635.766545 108.193586 
L 636.984 107.560191 
L 637.288364 107.643295 
L 637.897091 107.421057 
L 638.505818 107.297863 
L 638.810182 107.259366 
L 640.027636 107.747314 
L 640.940727 108.477384 
L 641.853818 109.547799 
L 643.375636 111.901341 
L 645.506182 115.28579 
L 646.419273 116.485802 
L 647.028 116.884983 
L 648.245455 117.750303 
L 649.158545 117.979589 
L 649.767273 117.929902 
L 650.680364 117.579347 
L 651.593455 116.927171 
L 654.028364 114.077148 
L 657.680727 109.468828 
L 658.898182 108.335182 
L 659.811273 107.719273 
L 660.724364 107.346471 
L 661.637455 107.236084 
L 662.550545 107.425132 
L 663.768 107.9998 
L 664.376727 107.342768 
L 667.724727 105.645729 
L 669.855273 104.879392 
L 675.029455 103.154357 
L 680.508 100.813232 
L 683.247273 99.736414 
L 685.986545 98.98695 
L 687.812727 98.712116 
L 689.943273 98.628433 
L 692.073818 98.747753 
L 695.117455 99.158192 
L 705.770182 100.813298 
L 709.726909 101.157534 
L 714.596727 101.299962 
L 720.988364 101.489674 
L 737.728364 102.2491 
L 739.858909 102.379139 
L 740.772 103.030125 
L 742.902545 104.655582 
L 745.033091 106.570462 
L 747.772364 109.391408 
L 749.902909 111.860727 
L 752.642182 115.434764 
L 754.164 117.846112 
L 755.685818 120.661833 
L 757.207636 123.961743 
L 758.729455 127.891834 
L 760.251273 132.520037 
L 761.773091 138.01029 
L 763.294909 144.342823 
L 764.816727 151.537893 
L 766.642909 161.22875 
L 768.469091 171.810754 
L 769.990909 181.258548 
L 774.252 206.789147 
L 776.078182 216.414928 
L 777.295636 222.227441 
L 777.6 135.54874 
L 777.6 135.54874 
" style="fill:none;stroke:#2ca02c;stroke-linecap:square;stroke-width:2.5;"/>
   </g>
   <g id="line2d_35">
    <path clip-path="url(#pd44d462871)" d="M 472.932 219.33836 
L 473.236364 220.614571 
L 473.540727 137.300073 
L 475.366909 130.414255 
L 477.193091 124.327987 
L 479.019273 119.055372 
L 480.236727 116.118421 
L 481.454182 113.894735 
L 482.671636 112.426897 
L 483.584727 111.743492 
L 484.802182 111.168444 
L 485.106545 111.245349 
L 486.019636 110.993436 
L 486.932727 110.987517 
L 487.541455 111.171593 
L 487.845818 111.33332 
L 488.454545 112.055928 
L 489.367636 113.134702 
L 490.585091 115.001774 
L 492.715636 118.370333 
L 493.628727 119.569768 
L 494.541818 120.456132 
L 495.454909 120.979263 
L 496.063636 120.862873 
L 496.976727 120.726633 
L 497.585455 120.370758 
L 498.498545 119.778444 
L 499.716 118.419845 
L 501.237818 116.317441 
L 505.803273 109.741728 
L 507.020727 108.500885 
L 507.933818 107.814971 
L 508.846909 107.377717 
L 509.76 107.211686 
L 510.673091 107.345899 
L 511.586182 107.6374 
L 512.194909 107.02448 
L 515.238545 105.434701 
L 517.673455 104.527175 
L 520.108364 103.865787 
L 530.761091 101.28264 
L 535.022182 100.178943 
L 537.761455 99.758055 
L 540.196364 99.63139 
L 542.326909 99.690574 
L 545.979273 100.075785 
L 552.979636 101.17159 
L 556.936364 101.676728 
L 562.414909 102.068797 
L 566.676 102.000885 
L 572.154545 101.982233 
L 577.328727 102.144384 
L 586.459636 102.704513 
L 587.677091 102.843248 
L 588.590182 103.522888 
L 590.416364 104.976618 
L 592.546909 107.004645 
L 594.677455 109.306783 
L 598.025455 113.366947 
L 599.851636 115.954338 
L 601.373455 118.375238 
L 603.199636 121.726772 
L 605.025818 125.719007 
L 606.547636 129.667049 
L 608.069455 134.263948 
L 609.591273 139.608449 
L 611.721818 148.467921 
L 613.548 157.219667 
L 615.678545 168.576814 
L 619.026545 187.908413 
L 621.765818 203.093454 
L 623.896364 213.560759 
L 625.113818 218.947483 
L 625.722545 137.688842 
L 627.548727 130.754074 
L 629.374909 124.541398 
L 631.201091 119.063674 
L 632.722909 115.366114 
L 633.636 113.707072 
L 634.244727 112.814106 
L 635.157818 111.900755 
L 636.070909 111.259629 
L 636.984 110.811471 
L 637.288364 110.905246 
L 637.897091 110.739064 
L 638.505818 110.712323 
L 639.114545 110.86176 
L 639.723273 111.196204 
L 640.332 111.751758 
L 644.897455 119.156146 
L 645.810545 120.293797 
L 646.723636 121.088878 
L 647.332364 121.417456 
L 647.941091 121.573854 
L 648.549818 121.317667 
L 649.462909 120.991983 
L 651.593455 119.080882 
L 653.115273 117.043084 
L 657.985091 110.207102 
L 659.202545 109.017627 
L 660.115636 108.364153 
L 661.028727 107.961911 
L 661.941818 107.822018 
L 662.854909 107.979023 
L 663.768 108.287532 
L 664.376727 107.679553 
L 670.768364 104.320912 
L 679.899273 99.81062 
L 682.029818 99.063773 
L 683.856 98.64827 
L 685.682182 98.47173 
L 687.508364 98.517795 
L 689.943273 98.838771 
L 693.9 99.622056 
L 698.465455 100.459059 
L 702.117818 100.903199 
L 705.465818 101.07916 
L 709.118182 101.018839 
L 713.988 100.793241 
L 716.727273 100.69094 
L 717.944727 100.602911 
L 721.597091 100.712102 
L 725.249455 101.06873 
L 732.858545 102.196036 
L 739.250182 103.048518 
L 739.858909 103.178864 
L 740.772 103.901025 
L 742.598182 105.42048 
L 745.033091 107.824833 
L 748.381091 111.599782 
L 750.511636 114.345179 
L 752.642182 117.462197 
L 754.164 119.997978 
L 755.990182 123.531109 
L 757.512 127.004761 
L 759.033818 131.049999 
L 760.555636 135.782405 
L 761.773091 140.139171 
L 763.294909 146.253526 
L 765.121091 154.628148 
L 767.251636 165.638854 
L 768.773455 174.294668 
L 774.252 204.962831 
L 776.686909 216.518263 
L 777.6 220.387464 
L 777.6 220.387464 
" style="fill:none;stroke:#d62728;stroke-linecap:square;stroke-width:2.5;"/>
   </g>
   <g id="line2d_36">
    <path clip-path="url(#pd44d462871)" d="M 473.236364 179.576471 
L 777.6 179.576471 
" style="fill:none;stroke:#000000;stroke-dasharray:3.2,0.8,0.5,0.8;stroke-dashoffset:0;stroke-width:0.5;"/>
   </g>
   <g id="line2d_37">
    <path clip-path="url(#pd44d462871)" d="M 625.418182 230.4 
L 625.418182 57.6 
" style="fill:none;stroke:#000000;stroke-dasharray:3.2,0.8,0.5,0.8;stroke-dashoffset:0;stroke-width:0.5;"/>
   </g>
   <g id="patch_8">
    <path d="M 473.236364 230.4 
L 473.236364 57.6 
" style="fill:none;stroke:#000000;stroke-linecap:square;stroke-linejoin:miter;stroke-width:0.8;"/>
   </g>
   <g id="patch_9">
    <path d="M 777.6 230.4 
L 777.6 57.6 
" style="fill:none;stroke:#000000;stroke-linecap:square;stroke-linejoin:miter;stroke-width:0.8;"/>
   </g>
   <g id="patch_10">
    <path d="M 473.236364 230.4 
L 777.6 230.4 
" style="fill:none;stroke:#000000;stroke-linecap:square;stroke-linejoin:miter;stroke-width:0.8;"/>
   </g>
   <g id="patch_11">
    <path d="M 473.236364 57.6 
L 777.6 57.6 
" style="fill:none;stroke:#000000;stroke-linecap:square;stroke-linejoin:miter;stroke-width:0.8;"/>
   </g>
  </g>
 </g>
 <defs>
  <clipPath id="p94866f3e43">
   <rect height="172.8" width="304.363636" x="108" y="57.6"/>
  </clipPath>
  <clipPath id="pd44d462871">
   <rect height="172.8" width="304.363636" x="473.236364" y="57.6"/>
  </clipPath>
 </defs>
</svg>
