<?xml version="1.0" encoding="utf-8" standalone="no"?>
<!DOCTYPE svg PUBLIC "-//W3C//DTD SVG 1.1//EN"
  "http://www.w3.org/Graphics/SVG/1.1/DTD/svg11.dtd">
<!-- Created with matplotlib (https://matplotlib.org/) -->
<svg height="288pt" version="1.1" viewBox="0 0 864 288" width="864pt" xmlns="http://www.w3.org/2000/svg" xmlns:xlink="http://www.w3.org/1999/xlink">
 <metadata>
  <rdf:RDF xmlns:cc="http://creativecommons.org/ns#" xmlns:dc="http://purl.org/dc/elements/1.1/" xmlns:rdf="http://www.w3.org/1999/02/22-rdf-syntax-ns#">
   <cc:Work>
    <dc:type rdf:resource="http://purl.org/dc/dcmitype/StillImage"/>
    <dc:date>2021-11-09T11:40:51.026467</dc:date>
    <dc:format>image/svg+xml</dc:format>
    <dc:creator>
     <cc:Agent>
      <dc:title>Matplotlib v3.3.4, https://matplotlib.org/</dc:title>
     </cc:Agent>
    </dc:creator>
   </cc:Work>
  </rdf:RDF>
 </metadata>
 <defs>
  <style type="text/css">*{stroke-linecap:butt;stroke-linejoin:round;}</style>
 </defs>
 <g id="figure_1">
  <g id="patch_1">
   <path d="M 0 288 
L 864 288 
L 864 0 
L 0 0 
z
" style="fill:#ffffff;"/>
  </g>
  <g id="axes_1">
   <g id="patch_2">
    <path d="M 108 230.4 
L 412.363636 230.4 
L 412.363636 57.6 
L 108 57.6 
z
" style="fill:#ffffff;"/>
   </g>
   <g id="matplotlib.axis_1">
    <g id="xtick_1">
     <g id="line2d_1">
      <defs>
       <path d="M 0 0 
L 0 3.5 
" id="md951e61f5f" style="stroke:#000000;stroke-width:0.8;"/>
      </defs>
      <g>
       <use style="fill:#ffffff;stroke:#000000;stroke-width:0.8;" x="108" xlink:href="#md951e61f5f" y="230.4"/>
      </g>
     </g>
     <g id="text_1">
      <!-- 4.0 -->
      <g transform="translate(96.75 249.693438)scale(0.18 -0.18)">
       <defs>
        <path d="M 47.296875 16.703125 
L 37 16.703125 
L 37 0 
L 29.203125 0 
L 29.203125 16.703125 
L 1.203125 16.703125 
L 1.203125 23.09375 
L 32.59375 67.59375 
L 37 67.59375 
L 37 23.09375 
L 47.296875 23.09375 
z
M 29.203125 23.09375 
L 29.203125 57.40625 
L 5.203125 23.09375 
z
" id="STIXGeneral-Regular-52"/>
        <path d="M 18.09375 4.296875 
Q 18.09375 2.09375 16.4375 0.5 
Q 14.796875 -1.09375 12.5 -1.09375 
Q 10.203125 -1.09375 8.59375 0.5 
Q 7 2.09375 7 4.390625 
Q 7 6.703125 8.640625 8.34375 
Q 10.296875 10 12.59375 10 
Q 14.796875 10 16.4375 8.296875 
Q 18.09375 6.59375 18.09375 4.296875 
z
" id="STIXGeneral-Regular-46"/>
        <path d="M 47.59375 33 
Q 47.59375 26.296875 46.296875 20.34375 
Q 45 14.40625 42.453125 9.40625 
Q 39.90625 4.40625 35.40625 1.5 
Q 30.90625 -1.40625 25 -1.40625 
Q 18.90625 -1.40625 14.296875 1.6875 
Q 9.703125 4.796875 7.203125 10 
Q 4.703125 15.203125 3.546875 21.09375 
Q 2.40625 27 2.40625 33.59375 
Q 2.40625 42.90625 4.703125 50.34375 
Q 7 57.796875 12.34375 62.6875 
Q 17.703125 67.59375 25.40625 67.59375 
Q 35.203125 67.59375 41.390625 58 
Q 47.59375 48.40625 47.59375 33 
z
M 38 32.5 
Q 38 48.296875 34.640625 56.640625 
Q 31.296875 65 24.796875 65 
Q 18.59375 65 15.296875 56.59375 
Q 12 48.203125 12 32.90625 
Q 12 17.5 15.296875 9.34375 
Q 18.59375 1.203125 25 1.203125 
Q 31.296875 1.203125 34.640625 9.34375 
Q 38 17.5 38 32.5 
z
" id="STIXGeneral-Regular-48"/>
       </defs>
       <use xlink:href="#STIXGeneral-Regular-52"/>
       <use x="49.999985" xlink:href="#STIXGeneral-Regular-46"/>
       <use x="74.999969" xlink:href="#STIXGeneral-Regular-48"/>
      </g>
     </g>
    </g>
    <g id="xtick_2">
     <g id="line2d_2">
      <g>
       <use style="fill:#ffffff;stroke:#000000;stroke-width:0.8;" x="168.872727" xlink:href="#md951e61f5f" y="230.4"/>
      </g>
     </g>
     <g id="text_2">
      <!-- 4.2 -->
      <g transform="translate(157.622727 249.693438)scale(0.18 -0.18)">
       <defs>
        <path d="M 47.40625 13.703125 
L 42 0 
L 2.90625 0 
L 2.90625 1.203125 
L 20.703125 20.09375 
Q 27.703125 27.40625 30.703125 33.5 
Q 33.703125 39.59375 33.703125 46.09375 
Q 33.703125 52.796875 30 56.5 
Q 26.296875 60.203125 19.796875 60.203125 
Q 14.40625 60.203125 11.25 57.390625 
Q 8.09375 54.59375 5.09375 47.203125 
L 3 47.703125 
Q 4.703125 57 9.84375 62.296875 
Q 15 67.59375 23.796875 67.59375 
Q 32.09375 67.59375 37.1875 62.59375 
Q 42.296875 57.59375 42.296875 50 
Q 42.296875 38.703125 29.5 25.203125 
L 13 7.59375 
L 36.40625 7.59375 
Q 39.703125 7.59375 41.640625 8.890625 
Q 43.59375 10.203125 46 14.296875 
z
" id="STIXGeneral-Regular-50"/>
       </defs>
       <use xlink:href="#STIXGeneral-Regular-52"/>
       <use x="49.999985" xlink:href="#STIXGeneral-Regular-46"/>
       <use x="74.999969" xlink:href="#STIXGeneral-Regular-50"/>
      </g>
     </g>
    </g>
    <g id="xtick_3">
     <g id="line2d_3">
      <g>
       <use style="fill:#ffffff;stroke:#000000;stroke-width:0.8;" x="229.745455" xlink:href="#md951e61f5f" y="230.4"/>
      </g>
     </g>
     <g id="text_3">
      <!-- 4.4 -->
      <g transform="translate(218.495455 249.693438)scale(0.18 -0.18)">
       <use xlink:href="#STIXGeneral-Regular-52"/>
       <use x="49.999985" xlink:href="#STIXGeneral-Regular-46"/>
       <use x="74.999969" xlink:href="#STIXGeneral-Regular-52"/>
      </g>
     </g>
    </g>
    <g id="xtick_4">
     <g id="line2d_4">
      <g>
       <use style="fill:#ffffff;stroke:#000000;stroke-width:0.8;" x="290.618182" xlink:href="#md951e61f5f" y="230.4"/>
      </g>
     </g>
     <g id="text_4">
      <!-- 4.6 -->
      <g transform="translate(279.368182 249.693438)scale(0.18 -0.18)">
       <defs>
        <path d="M 44.59375 68.40625 
L 44.796875 66.796875 
Q 33 64.90625 25.09375 57.25 
Q 17.203125 49.59375 15.203125 38.296875 
Q 21 42.796875 27.90625 42.796875 
Q 36.703125 42.796875 41.75 37.1875 
Q 46.796875 31.59375 46.796875 21.90625 
Q 46.796875 12.09375 41.703125 5.90625 
Q 35.796875 -1.40625 25.796875 -1.40625 
Q 13.59375 -1.40625 8.09375 8.703125 
Q 3.40625 17.296875 3.40625 27.90625 
Q 3.40625 44.296875 14.296875 55.5 
Q 20.5 61.90625 27.046875 64.546875 
Q 33.59375 67.203125 44.59375 68.40625 
z
M 37.796875 18.796875 
Q 37.796875 38.203125 24.296875 38.203125 
Q 19.296875 38.203125 16 35.546875 
Q 12.703125 32.90625 12.703125 26.59375 
Q 12.703125 14.90625 16.34375 8.15625 
Q 20 1.40625 26.90625 1.40625 
Q 32.203125 1.40625 35 6.15625 
Q 37.796875 10.90625 37.796875 18.796875 
z
" id="STIXGeneral-Regular-54"/>
       </defs>
       <use xlink:href="#STIXGeneral-Regular-52"/>
       <use x="49.999985" xlink:href="#STIXGeneral-Regular-46"/>
       <use x="74.999969" xlink:href="#STIXGeneral-Regular-54"/>
      </g>
     </g>
    </g>
    <g id="xtick_5">
     <g id="line2d_5">
      <g>
       <use style="fill:#ffffff;stroke:#000000;stroke-width:0.8;" x="351.490909" xlink:href="#md951e61f5f" y="230.4"/>
      </g>
     </g>
     <g id="text_5">
      <!-- 4.8 -->
      <g transform="translate(340.240909 249.693438)scale(0.18 -0.18)">
       <defs>
        <path d="M 44.5 15.5 
Q 44.5 7.796875 39.140625 3.1875 
Q 33.796875 -1.40625 24.796875 -1.40625 
Q 16.40625 -1.40625 11 3.1875 
Q 5.59375 7.796875 5.59375 14.90625 
Q 5.59375 20.203125 8.1875 23.953125 
Q 10.796875 27.703125 18.59375 33.203125 
Q 11.09375 39.40625 8.640625 43.203125 
Q 6.203125 47 6.203125 52 
Q 6.203125 59.09375 11.640625 63.34375 
Q 17.09375 67.59375 25.59375 67.59375 
Q 32.90625 67.59375 37.65625 63.4375 
Q 42.40625 59.296875 42.40625 53.296875 
Q 42.40625 47.796875 39.546875 44.5 
Q 36.703125 41.203125 29 37.09375 
Q 38 31.09375 41.25 26.390625 
Q 44.5 21.703125 44.5 15.5 
z
M 35.5 53.296875 
Q 35.5 58.5 32.59375 61.640625 
Q 29.703125 64.796875 24.59375 64.796875 
Q 19.5 64.796875 16.546875 62.140625 
Q 13.59375 59.5 13.59375 54.890625 
Q 13.59375 50.296875 16.546875 46.546875 
Q 19.5 42.796875 26.09375 38.90625 
Q 31.203125 41.90625 33.34375 45.25 
Q 35.5 48.59375 35.5 53.296875 
z
M 27.09375 27.203125 
L 21.203125 31.203125 
Q 16.796875 27.59375 15 24.140625 
Q 13.203125 20.703125 13.203125 15.796875 
Q 13.203125 9 16.640625 5.203125 
Q 20.09375 1.40625 25.90625 1.40625 
Q 30.796875 1.40625 33.84375 4.453125 
Q 36.90625 7.5 36.90625 12.40625 
Q 36.90625 16.90625 34.59375 20.296875 
Q 32.296875 23.703125 27.09375 27.203125 
z
" id="STIXGeneral-Regular-56"/>
       </defs>
       <use xlink:href="#STIXGeneral-Regular-52"/>
       <use x="49.999985" xlink:href="#STIXGeneral-Regular-46"/>
       <use x="74.999969" xlink:href="#STIXGeneral-Regular-56"/>
      </g>
     </g>
    </g>
    <g id="xtick_6">
     <g id="line2d_6">
      <g>
       <use style="fill:#ffffff;stroke:#000000;stroke-width:0.8;" x="412.363636" xlink:href="#md951e61f5f" y="230.4"/>
      </g>
     </g>
     <g id="text_6">
      <!-- 5.0 -->
      <g transform="translate(401.113636 249.693438)scale(0.18 -0.18)">
       <defs>
        <path d="M 43.796875 68.09375 
L 40.203125 59.59375 
Q 39.59375 58.296875 37.5 58.296875 
L 18.09375 58.296875 
L 14.09375 49.796875 
Q 25.09375 47.703125 30 45.25 
Q 34.90625 42.796875 39.09375 37 
Q 42.59375 32.203125 42.59375 24.296875 
Q 42.59375 17.09375 40.25 12.1875 
Q 37.90625 7.296875 32.796875 3.5 
Q 26 -1.40625 15.796875 -1.40625 
Q 10.09375 -1.40625 6.59375 0.296875 
Q 3.09375 2 3.09375 4.796875 
Q 3.09375 8.59375 7.59375 8.59375 
Q 11.203125 8.59375 15 5.5 
Q 18.90625 2.296875 22.09375 2.296875 
Q 27.296875 2.296875 31.4375 7.5 
Q 35.59375 12.703125 35.59375 19.203125 
Q 35.59375 28.796875 28.90625 34.203125 
Q 20.203125 41.203125 7.59375 41.203125 
Q 6.40625 41.203125 6.40625 42 
L 6.5 42.5 
L 17.40625 66.203125 
L 38.09375 66.203125 
Q 39.796875 66.203125 40.75 66.703125 
Q 41.703125 67.203125 42.90625 68.796875 
z
" id="STIXGeneral-Regular-53"/>
       </defs>
       <use xlink:href="#STIXGeneral-Regular-53"/>
       <use x="49.999985" xlink:href="#STIXGeneral-Regular-46"/>
       <use x="74.999969" xlink:href="#STIXGeneral-Regular-48"/>
      </g>
     </g>
    </g>
    <g id="text_7">
     <!-- $\^t$ -->
     <g transform="translate(257.661818 269.893438)scale(0.18 -0.18)">
      <defs>
       <path d="M -7.5 50.703125 
L -10.90625 50.703125 
L -23.09375 61 
L -35.203125 50.703125 
L -38.59375 50.703125 
L -26.203125 67.40625 
L -20 67.40625 
z
" id="STIXGeneral-Regular-770"/>
       <path d="M 29.59375 42.796875 
L 29.09375 39.59375 
L 20.703125 39.59375 
L 12 6.796875 
Q 11.796875 6 11.796875 5.40625 
Q 11.796875 3.796875 13.296875 3.796875 
Q 14.5 3.796875 16.09375 5.34375 
Q 17.703125 6.90625 21.40625 11.703125 
L 22.703125 11 
Q 18.09375 4 15.140625 1.453125 
Q 12.203125 -1.09375 8.40625 -1.09375 
Q 3.796875 -1.09375 3.796875 2.59375 
Q 3.796875 3.59375 5.40625 10 
L 13.203125 39.59375 
L 5.703125 39.59375 
L 5.59375 40.203125 
Q 5.59375 42 8.90625 42.703125 
Q 11.40625 43.296875 15.5 46.546875 
Q 19.59375 49.796875 22.203125 53.703125 
Q 22.796875 54.59375 23.59375 54.59375 
Q 24.5 54.59375 24.5 53.796875 
Q 24.5 53.296875 24.40625 53.09375 
L 21.59375 42.796875 
z
" id="STIXGeneral-Italic-116"/>
      </defs>
      <use transform="translate(39.042969 16.59375)" xlink:href="#STIXGeneral-Regular-770"/>
      <use transform="translate(0 0.203125)" xlink:href="#STIXGeneral-Italic-116"/>
     </g>
    </g>
   </g>
   <g id="matplotlib.axis_2">
    <g id="ytick_1">
     <g id="line2d_7">
      <defs>
       <path d="M 0 0 
L -3.5 0 
" id="m9e2d900429" style="stroke:#000000;stroke-width:0.8;"/>
      </defs>
      <g>
       <use style="fill:#ffffff;stroke:#000000;stroke-width:0.8;" x="108" xlink:href="#m9e2d900429" y="190.523077"/>
      </g>
     </g>
     <g id="text_8">
      <!-- 0 -->
      <g transform="translate(92 196.669796)scale(0.18 -0.18)">
       <use xlink:href="#STIXGeneral-Regular-48"/>
      </g>
     </g>
    </g>
    <g id="ytick_2">
     <g id="line2d_8">
      <g>
       <use style="fill:#ffffff;stroke:#000000;stroke-width:0.8;" x="108" xlink:href="#m9e2d900429" y="137.353846"/>
      </g>
     </g>
     <g id="text_9">
      <!-- 2 -->
      <g transform="translate(92 143.500565)scale(0.18 -0.18)">
       <use xlink:href="#STIXGeneral-Regular-50"/>
      </g>
     </g>
    </g>
    <g id="ytick_3">
     <g id="line2d_9">
      <g>
       <use style="fill:#ffffff;stroke:#000000;stroke-width:0.8;" x="108" xlink:href="#m9e2d900429" y="84.184615"/>
      </g>
     </g>
     <g id="text_10">
      <!-- 4 -->
      <g transform="translate(92 90.331334)scale(0.18 -0.18)">
       <use xlink:href="#STIXGeneral-Regular-52"/>
      </g>
     </g>
    </g>
    <g id="text_11">
     <!-- $C_L$ -->
     <g transform="translate(84.093437 153.99)rotate(-90)scale(0.18 -0.18)">
      <defs>
       <path d="M 68.90625 66.40625 
L 65.203125 46.40625 
L 63.40625 46.703125 
Q 61.59375 63 48.5 63 
Q 37.59375 63 28.59375 53.296875 
Q 23.296875 47.703125 20.546875 39.703125 
Q 17.796875 31.703125 17.796875 23.203125 
Q 17.796875 2.703125 35.296875 2.703125 
Q 41.5 2.703125 46.640625 5.296875 
Q 51.796875 7.90625 58.203125 14.59375 
L 60 13.09375 
Q 53.296875 5.203125 46.84375 1.703125 
Q 40.40625 -1.796875 32.703125 -1.796875 
Q 21 -1.796875 13.796875 5.140625 
Q 6.59375 12.09375 6.59375 24.296875 
Q 6.59375 34.59375 11.6875 43.9375 
Q 16.796875 53.296875 25.296875 59.296875 
Q 35.5 66.59375 47.203125 66.59375 
Q 54.09375 66.59375 58.90625 64.90625 
Q 60.90625 64.203125 63 64.203125 
Q 65.703125 64.203125 66.796875 66.40625 
z
" id="STIXGeneral-Italic-67"/>
       <path d="M 55.90625 18 
L 50.09375 0 
L -0.796875 0 
L -0.796875 1.59375 
Q 3.40625 2 4.703125 3.296875 
Q 6 4.59375 7.40625 9.40625 
L 19.59375 53.203125 
Q 20.703125 56.90625 20.703125 59.40625 
Q 20.703125 61.59375 19.140625 62.5 
Q 17.59375 63.40625 13 63.703125 
L 13 65.296875 
L 40.296875 65.296875 
L 40.296875 63.703125 
Q 35.703125 63.40625 33.546875 61.796875 
Q 31.40625 60.203125 30.203125 56 
L 18.203125 13.09375 
Q 17.203125 9.296875 17.203125 7.703125 
Q 17.203125 5.40625 19.390625 4.5 
Q 21.59375 3.59375 27.703125 3.59375 
Q 35.40625 3.59375 38.75 4.296875 
Q 42.09375 5 45.703125 7.40625 
Q 49.796875 10.09375 53.90625 18.59375 
z
" id="STIXGeneral-Italic-76"/>
      </defs>
      <use transform="translate(0 0.40625)" xlink:href="#STIXGeneral-Italic-67"/>
      <use transform="translate(66.699997 -12.821875)scale(0.7)" xlink:href="#STIXGeneral-Italic-76"/>
     </g>
    </g>
   </g>
   <g id="line2d_10">
    <path clip-path="url(#paa16ec9cc5)" d="M 107.695636 217.755932 
L 108.304364 219.39856 
L 108.913091 220.549728 
L 109.521818 221.219433 
L 110.130545 221.417456 
L 110.739273 221.167169 
L 111.348 220.496118 
L 111.956727 219.426193 
L 112.869818 217.132798 
L 113.782909 214.08723 
L 115.000364 209.10955 
L 116.522182 201.851421 
L 118.957091 188.972833 
L 122.609455 169.681183 
L 124.74 159.539098 
L 126.566182 151.850117 
L 128.392364 145.165081 
L 130.218545 139.478101 
L 131.740364 135.49444 
L 132.653455 133.436213 
L 135.392727 129.071864 
L 136.305818 128.347859 
L 136.914545 128.120737 
L 137.523273 128.122535 
L 138.132 128.364053 
L 138.740727 128.893204 
L 139.349455 129.716187 
L 139.958182 130.8652 
L 140.871273 133.265463 
L 141.784364 136.523238 
L 142.697455 140.742005 
L 143.610545 145.961492 
L 144.828 154.587169 
L 146.349818 166.545627 
L 146.654182 163.747537 
L 146.958545 162.674184 
L 147.567273 161.426611 
L 148.784727 158.8812 
L 150.002182 156.780584 
L 151.219636 155.05282 
L 152.741455 153.318604 
L 154.263273 151.945682 
L 155.785091 150.84034 
L 157.611273 149.778995 
L 159.741818 148.801573 
L 162.481091 147.812861 
L 166.133455 146.787918 
L 170.698909 145.677383 
L 179.525455 143.790436 
L 188.960727 142.055485 
L 198.396 140.644869 
L 208.135636 139.477788 
L 222.136364 138.224119 
L 222.440727 137.498036 
L 223.049455 132.929961 
L 224.571273 123.590221 
L 230.354182 87.098097 
L 231.876 79.255733 
L 232.789091 75.25299 
L 233.397818 73.240301 
L 234.310909 70.339204 
L 235.224 68.164277 
L 235.832727 67.150138 
L 236.441455 66.513148 
L 237.050182 66.239511 
L 237.658909 66.339573 
L 238.267636 66.819501 
L 238.876364 67.664479 
L 239.485091 68.885029 
L 240.398182 71.354181 
L 241.311273 74.650142 
L 242.224364 78.750222 
L 243.441818 85.376931 
L 244.659273 93.208256 
L 246.181091 104.559946 
L 248.007273 120.20964 
L 250.137818 140.546446 
L 254.703273 185.336616 
L 256.225091 197.947603 
L 257.442545 206.38658 
L 258.355636 211.584952 
L 259.268727 215.727074 
L 260.181818 218.770639 
L 260.790545 220.186003 
L 261.399273 221.113648 
L 262.008 221.565366 
L 262.616727 221.557015 
L 263.225455 221.111525 
L 263.834182 220.2537 
L 264.442909 219.014793 
L 265.356 216.511237 
L 266.269091 213.307624 
L 267.486545 208.193834 
L 269.008364 200.821745 
L 271.443273 187.879169 
L 275.4 167.157135 
L 277.226182 158.630565 
L 279.052364 151.019344 
L 280.574182 145.427076 
L 282.400364 139.64169 
L 283.617818 136.449232 
L 285.444 132.325519 
L 286.661455 130.263878 
L 287.574545 129.12929 
L 288.183273 128.599699 
L 288.792 128.273873 
L 289.400727 128.196689 
L 290.009455 128.347091 
L 290.618182 128.729738 
L 291.226909 129.375611 
L 291.835636 130.35871 
L 292.444364 131.688163 
L 293.357455 134.376998 
L 294.270545 137.981114 
L 295.183636 142.537612 
L 296.096727 148.130849 
L 297.314182 157.243067 
L 298.531636 166.753024 
L 298.836 163.958764 
L 299.140364 162.88509 
L 299.749091 161.639626 
L 300.966545 159.096231 
L 302.184 156.994245 
L 303.401455 155.262059 
L 304.923273 153.518768 
L 306.445091 152.134027 
L 308.271273 150.830203 
L 310.097455 149.802016 
L 312.228 148.839971 
L 314.967273 147.865744 
L 318.619636 146.832146 
L 323.793818 145.567415 
L 335.968364 143.042199 
L 347.229818 141.197322 
L 354.230182 140.26849 
L 364.578545 139.150326 
L 374.318182 138.34295 
L 374.622545 137.612981 
L 375.231273 133.043575 
L 376.753091 123.707503 
L 382.536 87.230969 
L 384.057818 79.403957 
L 384.970909 75.720397 
L 385.884 72.358743 
L 386.797091 69.698165 
L 387.710182 67.771102 
L 388.318909 66.939173 
L 388.927636 66.48886 
L 389.536364 66.4042 
L 390.145091 66.699279 
L 390.753818 67.366687 
L 391.362545 68.406927 
L 392.275636 70.645105 
L 393.188727 73.667744 
L 394.101818 77.518441 
L 395.319273 83.824256 
L 396.536727 91.348668 
L 398.058545 102.33542 
L 399.884727 117.630102 
L 402.015273 137.680358 
L 407.189455 188.081911 
L 408.711273 200.23721 
L 409.928727 208.241133 
L 410.841818 213.075099 
L 411.754909 216.8347 
L 412.363636 218.733076 
L 412.363636 218.733076 
" style="fill:none;stroke:#1f77b4;stroke-linecap:square;stroke-width:2.5;"/>
   </g>
   <g id="line2d_11">
    <path clip-path="url(#paa16ec9cc5)" d="M 107.695636 196.033521 
L 108.608727 195.032693 
L 109.521818 193.697531 
L 110.739273 191.499491 
L 112.565455 187.609085 
L 116.826545 178.208814 
L 118.652727 174.856977 
L 120.174545 172.542414 
L 121.696364 170.631162 
L 122.305091 170.193675 
L 123.522545 168.913936 
L 123.826909 168.41047 
L 124.131273 168.363489 
L 125.044364 167.557868 
L 125.653091 166.757399 
L 128.088 163.99648 
L 129.914182 161.482748 
L 132.653455 157.107135 
L 135.088364 153.26155 
L 136.610182 151.286466 
L 137.523273 150.35971 
L 138.436364 149.687951 
L 139.349455 149.290835 
L 140.262545 149.215646 
L 140.871273 149.351275 
L 141.48 149.640245 
L 142.393091 150.3886 
L 143.306182 151.539989 
L 144.219273 153.080393 
L 145.132364 155.030905 
L 146.349818 157.768504 
L 146.654182 156.787446 
L 147.262909 156.085914 
L 149.393455 153.975547 
L 151.524 152.156024 
L 153.958909 150.352406 
L 156.393818 148.78506 
L 159.133091 147.268301 
L 162.176727 145.840611 
L 165.524727 144.525154 
L 169.177091 143.325357 
L 173.438182 142.163082 
L 178.612364 141.002011 
L 185.004 139.821618 
L 194.439273 138.456971 
L 200.222182 137.749418 
L 212.092364 136.626731 
L 219.092727 136.188039 
L 222.440727 135.989609 
L 223.353818 135.316934 
L 226.093091 133.283622 
L 228.223636 131.728506 
L 230.049818 130.677868 
L 231.267273 130.245491 
L 232.180364 130.097536 
L 233.093455 130.151898 
L 234.006545 130.430087 
L 234.919636 130.953004 
L 235.832727 131.750272 
L 236.745818 132.863444 
L 237.658909 134.266721 
L 238.572 136.007132 
L 239.789455 138.837117 
L 241.311273 143.164286 
L 242.833091 148.320998 
L 244.659273 155.422721 
L 247.398545 167.193945 
L 250.442182 180.100916 
L 252.268364 186.751477 
L 253.485818 190.422667 
L 254.703273 193.332896 
L 255.616364 194.971594 
L 256.529455 196.112084 
L 257.138182 196.595817 
L 257.746909 196.858081 
L 258.355636 196.906663 
L 258.964364 196.750195 
L 259.573091 196.397034 
L 260.486182 195.532176 
L 261.399273 194.311667 
L 262.616727 192.25634 
L 264.138545 189.173671 
L 267.486545 181.688857 
L 270.225818 176.034235 
L 271.138909 174.627874 
L 272.660727 172.47287 
L 274.486909 170.277454 
L 276.313091 168.490564 
L 276.921818 168.095204 
L 277.834909 167.224528 
L 278.139273 166.654739 
L 279.052364 165.92396 
L 279.661091 165.120473 
L 282.400364 161.353265 
L 284.835273 157.459844 
L 287.574545 153.179304 
L 288.792 151.614219 
L 289.705091 150.664284 
L 290.922545 149.794846 
L 291.835636 149.476582 
L 292.444364 149.439105 
L 293.357455 149.664744 
L 294.270545 150.260747 
L 295.183636 151.242498 
L 296.096727 152.612237 
L 297.009818 154.389464 
L 297.922909 156.576501 
L 298.227273 157.412975 
L 298.531636 157.764906 
L 298.836 156.775263 
L 299.444727 156.051712 
L 301.575273 153.879297 
L 303.705818 152.006339 
L 306.140727 150.156121 
L 308.88 148.365178 
L 311.619273 146.83341 
L 314.662909 145.390228 
L 318.010909 144.057442 
L 321.663273 142.84755 
L 326.228727 141.587216 
L 335.968364 139.634411 
L 342.968727 138.588894 
L 351.186545 137.588976 
L 360.926182 136.66921 
L 369.448364 136.113359 
L 374.622545 135.8532 
L 375.535636 135.186078 
L 377.970545 133.39714 
L 380.709818 131.432601 
L 382.231636 130.592957 
L 383.449091 130.164231 
L 384.362182 130.028268 
L 385.275273 130.086375 
L 386.188364 130.370257 
L 387.101455 130.904074 
L 388.014545 131.717382 
L 388.927636 132.823369 
L 389.840727 134.250191 
L 391.058182 136.650018 
L 392.275636 139.62572 
L 393.493091 143.155803 
L 395.014909 148.319797 
L 396.841091 155.435558 
L 399.580364 167.22027 
L 402.624 180.116009 
L 404.145818 185.744969 
L 405.363273 189.580912 
L 406.580727 192.69096 
L 407.493818 194.483909 
L 408.406909 195.791211 
L 409.015636 196.384175 
L 409.624364 196.757908 
L 410.233091 196.913045 
L 410.841818 196.857718 
L 411.450545 196.603214 
L 412.059273 196.160412 
L 412.363636 195.816232 
L 412.363636 195.816232 
" style="fill:none;stroke:#ff7f0e;stroke-linecap:square;stroke-width:2.5;"/>
   </g>
   <g id="line2d_12">
    <path clip-path="url(#paa16ec9cc5)" d="M 107.695636 193.025763 
L 108.608727 191.937047 
L 109.826182 190.144163 
L 111.652364 186.981518 
L 116.217818 178.910138 
L 116.826545 177.996981 
L 117.130909 177.811752 
L 119.261455 175.643906 
L 121.392 173.474533 
L 122.000727 173.306613 
L 123.218182 172.46292 
L 123.826909 171.797332 
L 125.957455 169.805297 
L 127.174909 168.380305 
L 128.696727 166.237601 
L 130.522909 163.21981 
L 135.088364 155.294376 
L 136.914545 152.701065 
L 138.436364 151.007691 
L 139.653818 150.029536 
L 140.566909 149.531643 
L 141.48 149.257783 
L 142.393091 149.229347 
L 143.306182 149.464147 
L 144.219273 149.98144 
L 145.132364 150.79563 
L 146.349818 152.04762 
L 146.654182 151.295933 
L 147.262909 150.614792 
L 149.089091 148.843907 
L 150.915273 147.3743 
L 152.741455 146.182722 
L 154.567636 145.231114 
L 156.698182 144.361231 
L 159.133091 143.593278 
L 162.176727 142.839792 
L 167.046545 141.870648 
L 173.438182 140.801492 
L 198.396 137.140022 
L 205.700727 136.390984 
L 216.657818 135.797798 
L 228.223636 135.90658 
L 229.745455 136.214082 
L 231.267273 136.781958 
L 232.484727 137.48144 
L 233.702182 138.449275 
L 234.919636 139.737182 
L 236.137091 141.372427 
L 237.354545 143.39614 
L 238.876364 146.511801 
L 240.398182 150.259132 
L 241.92 154.614885 
L 243.746182 160.514586 
L 246.485455 170.224769 
L 249.529091 180.809615 
L 251.050909 185.408799 
L 252.268364 188.539805 
L 253.485818 191.078263 
L 254.398909 192.553093 
L 255.312 193.627264 
L 256.225091 194.302541 
L 256.833818 194.533309 
L 257.442545 194.592991 
L 258.051273 194.489222 
L 258.964364 194.044034 
L 259.877455 193.285568 
L 261.399273 191.325365 
L 263.225455 188.384054 
L 265.964727 183.393548 
L 266.269091 183.056643 
L 267.182182 181.276449 
L 268.399636 179.299196 
L 269.312727 178.147191 
L 269.617091 177.746248 
L 269.921455 177.606199 
L 271.138909 176.333856 
L 272.052 175.335039 
L 272.356364 174.856915 
L 272.965091 174.522304 
L 273.573818 174.170822 
L 274.791273 173.174047 
L 276.313091 171.923318 
L 277.530545 170.827804 
L 279.052364 169.173306 
L 280.269818 167.551184 
L 281.487273 165.671306 
L 281.791636 164.995792 
L 282.400364 164.124443 
L 288.183273 154.112962 
L 289.705091 152.099877 
L 290.922545 150.828791 
L 292.14 149.89716 
L 293.053091 149.450979 
L 293.966182 149.232907 
L 294.879273 149.26741 
L 295.792364 149.576014 
L 296.705455 150.16634 
L 297.618545 151.063526 
L 298.227273 151.847218 
L 298.531636 151.95667 
L 298.836 151.199363 
L 299.444727 150.50874 
L 300.966545 148.98146 
L 302.792727 147.437795 
L 304.923273 146.001096 
L 306.445091 145.163676 
L 309.184364 144.004682 
L 311.314909 143.30102 
L 315.880364 142.152876 
L 318.924 141.52522 
L 322.272 140.916545 
L 330.185455 139.712293 
L 350.882182 136.943408 
L 359.708727 136.157327 
L 366.100364 135.836942 
L 373.100727 135.745728 
L 380.405455 135.94733 
L 381.927273 136.269057 
L 383.144727 136.707086 
L 384.362182 137.357408 
L 385.579636 138.264744 
L 386.797091 139.47498 
L 388.014545 141.032372 
L 389.232 142.967028 
L 390.449455 145.308016 
L 391.971273 148.813478 
L 393.493091 152.944828 
L 395.319273 158.62551 
L 397.754182 167.085148 
L 401.710909 180.943951 
L 403.232727 185.5275 
L 404.450182 188.642514 
L 405.667636 191.161039 
L 406.580727 192.618844 
L 407.493818 193.678547 
L 408.406909 194.339046 
L 409.015636 194.559624 
L 409.928727 194.58925 
L 410.537455 194.374092 
L 411.450545 193.767563 
L 412.363636 192.848685 
L 412.363636 192.848685 
" style="fill:none;stroke:#2ca02c;stroke-linecap:square;stroke-width:2.5;"/>
   </g>
   <g id="line2d_13">
    <path clip-path="url(#paa16ec9cc5)" d="M 107.695636 192.347314 
L 108.913091 190.877782 
L 110.434909 188.618648 
L 113.478545 183.490458 
L 115.609091 180.085266 
L 116.522182 178.94502 
L 117.435273 177.884479 
L 117.739636 177.793247 
L 118.957091 176.705713 
L 119.870182 175.851454 
L 120.478909 175.179091 
L 121.087636 175.041454 
L 122.609455 174.057165 
L 123.218182 173.42339 
L 125.044364 171.802576 
L 126.566182 170.034784 
L 127.783636 168.313238 
L 129.305455 165.834 
L 136.001455 154.329159 
L 137.523273 152.211206 
L 139.045091 150.430398 
L 140.262545 149.305196 
L 141.175636 148.666378 
L 142.088727 148.238627 
L 143.001818 148.041701 
L 143.914909 148.102317 
L 144.828 148.445551 
L 145.741091 149.089239 
L 146.045455 149.383678 
L 146.349818 149.424118 
L 146.654182 148.741162 
L 147.567273 147.769671 
L 149.089091 146.402726 
L 150.610909 145.293362 
L 152.437091 144.268984 
L 154.567636 143.419605 
L 156.698182 142.826938 
L 159.437455 142.295194 
L 164.307273 141.602666 
L 185.004 138.749298 
L 192.308727 137.645611 
L 197.787273 136.969572 
L 203.265818 136.459954 
L 208.44 136.134295 
L 216.657818 135.923705 
L 222.440727 136.019443 
L 223.658182 136.239417 
L 226.701818 136.822315 
L 228.528 137.379348 
L 230.049818 138.051719 
L 231.571636 138.987773 
L 232.789091 139.96987 
L 234.006545 141.207515 
L 235.224 142.737519 
L 236.441455 144.589122 
L 237.963273 147.402416 
L 239.485091 150.778757 
L 241.006909 154.714953 
L 242.833091 160.079752 
L 245.268 168.021322 
L 249.224727 181.0166 
L 250.746545 185.329032 
L 251.964 188.263456 
L 253.181455 190.650923 
L 254.094545 192.03967 
L 255.007636 193.066954 
L 255.920727 193.722865 
L 256.529455 193.957402 
L 257.138182 194.032244 
L 258.051273 193.880177 
L 258.964364 193.362213 
L 259.877455 192.561621 
L 261.094909 191.128844 
L 262.616727 188.910833 
L 268.399636 179.643063 
L 269.008364 179.045088 
L 269.312727 178.674718 
L 269.617091 178.587077 
L 271.747636 176.666747 
L 272.660727 175.663567 
L 273.269455 175.529554 
L 275.095636 174.336678 
L 275.704364 173.672102 
L 277.226182 172.283925 
L 278.443636 170.899105 
L 279.661091 169.234751 
L 281.182909 166.785459 
L 284.226545 161.248255 
L 287.574545 155.293914 
L 288.487636 153.961727 
L 290.313818 151.43986 
L 291.835636 149.740408 
L 293.053091 148.714683 
L 293.966182 148.172448 
L 294.879273 147.867401 
L 295.792364 147.810821 
L 296.705455 148.035132 
L 297.618545 148.557937 
L 298.227273 149.094068 
L 298.531636 149.13256 
L 298.836 148.443354 
L 299.749091 147.463478 
L 301.270909 146.086954 
L 302.792727 144.971266 
L 304.618909 143.936021 
L 306.749455 143.070607 
L 308.88 142.455825 
L 311.619273 141.889479 
L 316.184727 141.189126 
L 341.446909 137.922448 
L 348.142909 137.091262 
L 353.621455 136.554085 
L 359.404364 136.15118 
L 367.317818 135.905285 
L 374.013818 135.982586 
L 374.926909 136.102828 
L 379.188 136.928575 
L 381.014182 137.539986 
L 382.536 138.271638 
L 384.057818 139.277096 
L 385.275273 140.331465 
L 386.492727 141.648128 
L 387.710182 143.265133 
L 388.927636 145.216722 
L 390.449455 148.152671 
L 391.971273 151.654701 
L 393.493091 155.700692 
L 395.319273 161.179899 
L 398.058545 170.223992 
L 401.102182 180.221614 
L 402.928364 185.44226 
L 404.145818 188.362991 
L 405.363273 190.729567 
L 406.276364 192.101697 
L 407.189455 193.110936 
L 408.102545 193.747844 
L 408.711273 194.036371 
L 409.32 194.085785 
L 409.928727 193.976422 
L 410.841818 193.539676 
L 411.754909 192.808652 
L 412.363636 192.179138 
L 412.363636 192.179138 
" style="fill:none;stroke:#d62728;stroke-linecap:square;stroke-width:2.5;"/>
   </g>
   <g id="line2d_14">
    <path clip-path="url(#paa16ec9cc5)" d="M 108 190.523077 
L 412.363636 190.523077 
" style="fill:none;stroke:#000000;stroke-dasharray:3.2,0.8,0.5,0.8;stroke-dashoffset:0;stroke-width:0.5;"/>
   </g>
   <g id="line2d_15">
    <path clip-path="url(#paa16ec9cc5)" d="M 260.181818 230.4 
L 260.181818 57.6 
" style="fill:none;stroke:#000000;stroke-dasharray:3.2,0.8,0.5,0.8;stroke-dashoffset:0;stroke-width:0.5;"/>
   </g>
   <g id="patch_3">
    <path d="M 108 230.4 
L 108 57.6 
" style="fill:none;stroke:#000000;stroke-linecap:square;stroke-linejoin:miter;stroke-width:0.8;"/>
   </g>
   <g id="patch_4">
    <path d="M 412.363636 230.4 
L 412.363636 57.6 
" style="fill:none;stroke:#000000;stroke-linecap:square;stroke-linejoin:miter;stroke-width:0.8;"/>
   </g>
   <g id="patch_5">
    <path d="M 108 230.4 
L 412.363636 230.4 
" style="fill:none;stroke:#000000;stroke-linecap:square;stroke-linejoin:miter;stroke-width:0.8;"/>
   </g>
   <g id="patch_6">
    <path d="M 108 57.6 
L 412.363636 57.6 
" style="fill:none;stroke:#000000;stroke-linecap:square;stroke-linejoin:miter;stroke-width:0.8;"/>
   </g>
   <g id="legend_1">
    <g id="line2d_16">
     <path d="M 198.84762 41.7825 
L 228.83562 41.7825 
" style="fill:none;stroke:#1f77b4;stroke-linecap:square;stroke-width:2.5;"/>
    </g>
    <g id="line2d_17"/>
    <g id="text_12">
     <!-- $\Phi$ = 60$^\circ$ -->
     <g transform="translate(240.83082 47.0304)scale(0.14994 -0.14994)">
      <defs>
       <path d="M 43.203125 58 
L 43.203125 56 
Q 48.703125 56 53.75 54.703125 
Q 58.796875 53.40625 63.140625 50.75 
Q 67.5 48.09375 70.140625 43.546875 
Q 72.796875 39 72.796875 33 
Q 72.796875 27.40625 70.140625 22.84375 
Q 67.5 18.296875 63.34375 15.640625 
Q 59.203125 13 54.59375 11.640625 
Q 50 10.296875 45.703125 10.296875 
L 43.203125 10.296875 
L 43.203125 8.59375 
Q 43.203125 4.796875 45.453125 3.5 
Q 47.703125 2.203125 53.5 1.90625 
L 53.5 0 
L 22.90625 0 
L 22.90625 1.90625 
Q 28.09375 1.90625 30.546875 3.34375 
Q 33 4.796875 33 8.5 
L 33 10.296875 
L 31.296875 10.296875 
Q 17.703125 10.296875 10.59375 16.5 
Q 3.5 22.703125 3.5 33 
Q 3.5 39 6.046875 43.546875 
Q 8.59375 48.09375 12.9375 50.75 
Q 17.296875 53.40625 22.34375 54.703125 
Q 27.40625 56 33 56 
L 33 58 
Q 33 61.59375 31.046875 62.9375 
Q 29.09375 64.296875 22.90625 64.296875 
L 22.90625 66.203125 
L 53.5 66.203125 
L 53.5 64.296875 
Q 47.296875 64.296875 45.25 62.796875 
Q 43.203125 61.296875 43.203125 58 
z
M 43 52.296875 
L 43 14 
Q 50.5 14 56.203125 18.84375 
Q 61.90625 23.703125 61.90625 31.796875 
Q 61.90625 39.90625 56.953125 46.09375 
Q 52 52.296875 43 52.296875 
z
M 33.203125 14 
L 33.203125 52.296875 
Q 25.203125 52.296875 19.796875 45.9375 
Q 14.40625 39.59375 14.40625 31.796875 
Q 14.40625 24.40625 19.453125 19.203125 
Q 24.5 14 33.203125 14 
z
" id="STIXGeneral-Regular-934"/>
       <path id="STIXGeneral-Regular-32"/>
       <path d="M 63.703125 32 
L 4.796875 32 
L 4.796875 38.59375 
L 63.703125 38.59375 
z
M 63.703125 12 
L 4.796875 12 
L 4.796875 18.59375 
L 63.703125 18.59375 
z
" id="STIXGeneral-Regular-61"/>
       <path d="M 23.203125 38.703125 
Q 31 30.796875 31 25.1875 
Q 31 19.59375 27.046875 15.640625 
Q 23.09375 11.703125 17.5 11.703125 
Q 11.796875 11.703125 7.890625 15.640625 
Q 4 19.59375 4 25.40625 
Q 4 31 7.953125 34.84375 
Q 11.90625 38.703125 17.703125 38.703125 
Q 23.203125 38.703125 31 30.796875 
z
M 20.40625 18.296875 
Q 24.40625 22.296875 24.40625 25.1875 
Q 24.40625 28.09375 22.40625 30.09375 
Q 20.40625 32.09375 17.703125 32.09375 
Q 14.59375 32.09375 12.59375 30.140625 
Q 10.59375 28.203125 10.59375 25.40625 
Q 10.59375 22.296875 12.546875 20.296875 
Q 14.5 18.296875 17.5 18.296875 
Q 20.40625 18.296875 24.40625 22.296875 
z
" id="STIXGeneral-Regular-8728"/>
      </defs>
      <use transform="translate(0 0.59375)" xlink:href="#STIXGeneral-Regular-934"/>
      <use transform="translate(76.299988 0.59375)" xlink:href="#STIXGeneral-Regular-32"/>
      <use transform="translate(101.299973 0.59375)" xlink:href="#STIXGeneral-Regular-61"/>
      <use transform="translate(169.799957 0.59375)" xlink:href="#STIXGeneral-Regular-32"/>
      <use transform="translate(194.799942 0.59375)" xlink:href="#STIXGeneral-Regular-54"/>
      <use transform="translate(244.799927 0.59375)" xlink:href="#STIXGeneral-Regular-48"/>
      <use transform="translate(306.45119 35.86875)scale(0.7)" xlink:href="#STIXGeneral-Regular-8728"/>
     </g>
    </g>
    <g id="line2d_18">
     <path d="M 322.69806 41.7825 
L 352.68606 41.7825 
" style="fill:none;stroke:#ff7f0e;stroke-linecap:square;stroke-width:2.5;"/>
    </g>
    <g id="line2d_19"/>
    <g id="text_13">
     <!-- $\Phi$ = 120$^\circ$ -->
     <g transform="translate(364.68126 47.0304)scale(0.14994 -0.14994)">
      <defs>
       <path d="M 39.40625 0 
L 11.796875 0 
L 11.796875 1.5 
Q 17.296875 1.796875 19.296875 3.546875 
Q 21.296875 5.296875 21.296875 9.5 
L 21.296875 54.40625 
Q 21.296875 59.296875 18.296875 59.296875 
Q 16.90625 59.296875 13.796875 58.09375 
L 11.09375 57.09375 
L 11.09375 58.5 
L 29 67.59375 
L 29.90625 67.296875 
L 29.90625 7.59375 
Q 29.90625 4.296875 31.90625 2.890625 
Q 33.90625 1.5 39.40625 1.5 
z
" id="STIXGeneral-Regular-49"/>
      </defs>
      <use transform="translate(0 0.40625)" xlink:href="#STIXGeneral-Regular-934"/>
      <use transform="translate(76.299988 0.40625)" xlink:href="#STIXGeneral-Regular-32"/>
      <use transform="translate(101.299973 0.40625)" xlink:href="#STIXGeneral-Regular-61"/>
      <use transform="translate(169.799957 0.40625)" xlink:href="#STIXGeneral-Regular-32"/>
      <use transform="translate(194.799942 0.40625)" xlink:href="#STIXGeneral-Regular-49"/>
      <use transform="translate(244.799927 0.40625)" xlink:href="#STIXGeneral-Regular-50"/>
      <use transform="translate(294.799911 0.40625)" xlink:href="#STIXGeneral-Regular-48"/>
      <use transform="translate(356.451175 35.68125)scale(0.7)" xlink:href="#STIXGeneral-Regular-8728"/>
     </g>
    </g>
    <g id="line2d_20">
     <path d="M 454.0455 41.7825 
L 484.0335 41.7825 
" style="fill:none;stroke:#2ca02c;stroke-linecap:square;stroke-width:2.5;"/>
    </g>
    <g id="line2d_21"/>
    <g id="text_14">
     <!-- $\Phi$ = 160$^\circ$ -->
     <g transform="translate(496.0287 47.0304)scale(0.14994 -0.14994)">
      <use transform="translate(0 0.59375)" xlink:href="#STIXGeneral-Regular-934"/>
      <use transform="translate(76.299988 0.59375)" xlink:href="#STIXGeneral-Regular-32"/>
      <use transform="translate(101.299973 0.59375)" xlink:href="#STIXGeneral-Regular-61"/>
      <use transform="translate(169.799957 0.59375)" xlink:href="#STIXGeneral-Regular-32"/>
      <use transform="translate(194.799942 0.59375)" xlink:href="#STIXGeneral-Regular-49"/>
      <use transform="translate(244.799927 0.59375)" xlink:href="#STIXGeneral-Regular-54"/>
      <use transform="translate(294.799911 0.59375)" xlink:href="#STIXGeneral-Regular-48"/>
      <use transform="translate(356.451175 35.86875)scale(0.7)" xlink:href="#STIXGeneral-Regular-8728"/>
     </g>
    </g>
    <g id="line2d_22">
     <path d="M 585.39294 41.7825 
L 615.38094 41.7825 
" style="fill:none;stroke:#d62728;stroke-linecap:square;stroke-width:2.5;"/>
    </g>
    <g id="line2d_23"/>
    <g id="text_15">
     <!-- $\Phi$ = 180$^\circ$ -->
     <g transform="translate(627.37614 47.0304)scale(0.14994 -0.14994)">
      <use transform="translate(0 0.40625)" xlink:href="#STIXGeneral-Regular-934"/>
      <use transform="translate(76.299988 0.40625)" xlink:href="#STIXGeneral-Regular-32"/>
      <use transform="translate(101.299973 0.40625)" xlink:href="#STIXGeneral-Regular-61"/>
      <use transform="translate(169.799957 0.40625)" xlink:href="#STIXGeneral-Regular-32"/>
      <use transform="translate(194.799942 0.40625)" xlink:href="#STIXGeneral-Regular-49"/>
      <use transform="translate(244.799927 0.40625)" xlink:href="#STIXGeneral-Regular-56"/>
      <use transform="translate(294.799911 0.40625)" xlink:href="#STIXGeneral-Regular-48"/>
      <use transform="translate(356.451175 35.68125)scale(0.7)" xlink:href="#STIXGeneral-Regular-8728"/>
     </g>
    </g>
   </g>
  </g>
  <g id="axes_2">
   <g id="patch_7">
    <path d="M 473.236364 230.4 
L 777.6 230.4 
L 777.6 57.6 
L 473.236364 57.6 
z
" style="fill:#ffffff;"/>
   </g>
   <g id="matplotlib.axis_3">
    <g id="xtick_7">
     <g id="line2d_24">
      <g>
       <use style="fill:#ffffff;stroke:#000000;stroke-width:0.8;" x="473.236364" xlink:href="#md951e61f5f" y="230.4"/>
      </g>
     </g>
     <g id="text_16">
      <!-- 4.0 -->
      <g transform="translate(461.986364 249.693438)scale(0.18 -0.18)">
       <use xlink:href="#STIXGeneral-Regular-52"/>
       <use x="49.999985" xlink:href="#STIXGeneral-Regular-46"/>
       <use x="74.999969" xlink:href="#STIXGeneral-Regular-48"/>
      </g>
     </g>
    </g>
    <g id="xtick_8">
     <g id="line2d_25">
      <g>
       <use style="fill:#ffffff;stroke:#000000;stroke-width:0.8;" x="534.109091" xlink:href="#md951e61f5f" y="230.4"/>
      </g>
     </g>
     <g id="text_17">
      <!-- 4.2 -->
      <g transform="translate(522.859091 249.693438)scale(0.18 -0.18)">
       <use xlink:href="#STIXGeneral-Regular-52"/>
       <use x="49.999985" xlink:href="#STIXGeneral-Regular-46"/>
       <use x="74.999969" xlink:href="#STIXGeneral-Regular-50"/>
      </g>
     </g>
    </g>
    <g id="xtick_9">
     <g id="line2d_26">
      <g>
       <use style="fill:#ffffff;stroke:#000000;stroke-width:0.8;" x="594.981818" xlink:href="#md951e61f5f" y="230.4"/>
      </g>
     </g>
     <g id="text_18">
      <!-- 4.4 -->
      <g transform="translate(583.731818 249.693438)scale(0.18 -0.18)">
       <use xlink:href="#STIXGeneral-Regular-52"/>
       <use x="49.999985" xlink:href="#STIXGeneral-Regular-46"/>
       <use x="74.999969" xlink:href="#STIXGeneral-Regular-52"/>
      </g>
     </g>
    </g>
    <g id="xtick_10">
     <g id="line2d_27">
      <g>
       <use style="fill:#ffffff;stroke:#000000;stroke-width:0.8;" x="655.854545" xlink:href="#md951e61f5f" y="230.4"/>
      </g>
     </g>
     <g id="text_19">
      <!-- 4.6 -->
      <g transform="translate(644.604545 249.693438)scale(0.18 -0.18)">
       <use xlink:href="#STIXGeneral-Regular-52"/>
       <use x="49.999985" xlink:href="#STIXGeneral-Regular-46"/>
       <use x="74.999969" xlink:href="#STIXGeneral-Regular-54"/>
      </g>
     </g>
    </g>
    <g id="xtick_11">
     <g id="line2d_28">
      <g>
       <use style="fill:#ffffff;stroke:#000000;stroke-width:0.8;" x="716.727273" xlink:href="#md951e61f5f" y="230.4"/>
      </g>
     </g>
     <g id="text_20">
      <!-- 4.8 -->
      <g transform="translate(705.477273 249.693438)scale(0.18 -0.18)">
       <use xlink:href="#STIXGeneral-Regular-52"/>
       <use x="49.999985" xlink:href="#STIXGeneral-Regular-46"/>
       <use x="74.999969" xlink:href="#STIXGeneral-Regular-56"/>
      </g>
     </g>
    </g>
    <g id="xtick_12">
     <g id="line2d_29">
      <g>
       <use style="fill:#ffffff;stroke:#000000;stroke-width:0.8;" x="777.6" xlink:href="#md951e61f5f" y="230.4"/>
      </g>
     </g>
     <g id="text_21">
      <!-- 5.0 -->
      <g transform="translate(766.35 249.693438)scale(0.18 -0.18)">
       <use xlink:href="#STIXGeneral-Regular-53"/>
       <use x="49.999985" xlink:href="#STIXGeneral-Regular-46"/>
       <use x="74.999969" xlink:href="#STIXGeneral-Regular-48"/>
      </g>
     </g>
    </g>
    <g id="text_22">
     <!-- $\^t$ -->
     <g transform="translate(622.898182 269.893438)scale(0.18 -0.18)">
      <use transform="translate(39.042969 16.59375)" xlink:href="#STIXGeneral-Regular-770"/>
      <use transform="translate(0 0.203125)" xlink:href="#STIXGeneral-Italic-116"/>
     </g>
    </g>
   </g>
   <g id="matplotlib.axis_4">
    <g id="ytick_4">
     <g id="line2d_30">
      <g>
       <use style="fill:#ffffff;stroke:#000000;stroke-width:0.8;" x="473.236364" xlink:href="#m9e2d900429" y="203.115789"/>
      </g>
     </g>
     <g id="text_23">
      <!-- 0.0 -->
      <g transform="translate(443.736364 209.262508)scale(0.18 -0.18)">
       <use xlink:href="#STIXGeneral-Regular-48"/>
       <use x="49.999985" xlink:href="#STIXGeneral-Regular-46"/>
       <use x="74.999969" xlink:href="#STIXGeneral-Regular-48"/>
      </g>
     </g>
    </g>
    <g id="ytick_5">
     <g id="line2d_31">
      <g>
       <use style="fill:#ffffff;stroke:#000000;stroke-width:0.8;" x="473.236364" xlink:href="#m9e2d900429" y="157.642105"/>
      </g>
     </g>
     <g id="text_24">
      <!-- 2.5 -->
      <g transform="translate(443.736364 163.788824)scale(0.18 -0.18)">
       <use xlink:href="#STIXGeneral-Regular-50"/>
       <use x="49.999985" xlink:href="#STIXGeneral-Regular-46"/>
       <use x="74.999969" xlink:href="#STIXGeneral-Regular-53"/>
      </g>
     </g>
    </g>
    <g id="ytick_6">
     <g id="line2d_32">
      <g>
       <use style="fill:#ffffff;stroke:#000000;stroke-width:0.8;" x="473.236364" xlink:href="#m9e2d900429" y="112.168421"/>
      </g>
     </g>
     <g id="text_25">
      <!-- 5.0 -->
      <g transform="translate(443.736364 118.31514)scale(0.18 -0.18)">
       <use xlink:href="#STIXGeneral-Regular-53"/>
       <use x="49.999985" xlink:href="#STIXGeneral-Regular-46"/>
       <use x="74.999969" xlink:href="#STIXGeneral-Regular-48"/>
      </g>
     </g>
    </g>
    <g id="ytick_7">
     <g id="line2d_33">
      <g>
       <use style="fill:#ffffff;stroke:#000000;stroke-width:0.8;" x="473.236364" xlink:href="#m9e2d900429" y="66.694737"/>
      </g>
     </g>
     <g id="text_26">
      <!-- 7.5 -->
      <g transform="translate(443.736364 72.841456)scale(0.18 -0.18)">
       <defs>
        <path d="M 44.90625 64.59375 
L 23.703125 -0.796875 
L 17.203125 -0.796875 
L 37 58.796875 
L 15.5 58.796875 
Q 11.203125 58.796875 9.09375 57.296875 
Q 7 55.796875 3.796875 50.59375 
L 2 51.5 
L 8 66.203125 
L 44.90625 66.203125 
z
" id="STIXGeneral-Regular-55"/>
       </defs>
       <use xlink:href="#STIXGeneral-Regular-55"/>
       <use x="49.999985" xlink:href="#STIXGeneral-Regular-46"/>
       <use x="74.999969" xlink:href="#STIXGeneral-Regular-53"/>
      </g>
     </g>
    </g>
    <g id="text_27">
     <!-- $C_D$ -->
     <g transform="translate(435.829801 154.98)rotate(-90)scale(0.18 -0.18)">
      <defs>
       <path d="M 13.09375 65.296875 
L 40.796875 65.296875 
Q 54.203125 65.296875 62.09375 58.296875 
Q 70 51.296875 70 38.40625 
Q 70 20.703125 54 8.296875 
Q 43.40625 0 24.90625 0 
L -0.796875 0 
L -0.796875 1.59375 
Q 3.5 2.40625 4.84375 3.59375 
Q 6.203125 4.796875 7.40625 9.203125 
L 19.59375 53.703125 
Q 20.703125 57.59375 20.703125 59.59375 
Q 20.703125 61.703125 19.09375 62.640625 
Q 17.5 63.59375 13.09375 63.703125 
z
M 31 58.40625 
L 19.203125 16.203125 
Q 17 8.203125 17 6.703125 
Q 17 3 23.796875 3 
Q 38.59375 3 47.90625 12 
Q 53.09375 17 56 24.953125 
Q 58.90625 32.90625 58.90625 40.796875 
Q 58.90625 52.90625 51.09375 58.796875 
Q 46.40625 62.296875 38 62.296875 
Q 34.796875 62.296875 33.25 61.546875 
Q 31.703125 60.796875 31 58.40625 
z
" id="STIXGeneral-Italic-68"/>
      </defs>
      <use transform="translate(0 0.40625)" xlink:href="#STIXGeneral-Italic-67"/>
      <use transform="translate(66.699997 -12.821875)scale(0.7)" xlink:href="#STIXGeneral-Italic-68"/>
     </g>
    </g>
   </g>
   <g id="line2d_34">
    <path clip-path="url(#p1d19106c6d)" d="M 472.932 142.1981 
L 473.236364 145.738194 
L 473.540727 256.943999 
L 476.888727 219.134583 
L 479.019273 197.652914 
L 480.541091 184.121444 
L 482.062909 172.298737 
L 483.584727 162.120017 
L 485.106545 153.471589 
L 486.628364 146.123436 
L 488.150182 139.954016 
L 489.672 134.69605 
L 491.193818 130.184673 
L 493.02 125.569017 
L 494.846182 121.638153 
L 496.672364 118.326237 
L 498.498545 115.540288 
L 499.107273 114.798777 
L 500.933455 113.433049 
L 501.846545 113.168216 
L 502.455273 113.204733 
L 503.064 113.438382 
L 503.672727 113.891319 
L 504.281455 114.592753 
L 504.890182 115.55379 
L 505.803273 117.541875 
L 506.716364 120.258463 
L 507.629455 123.743751 
L 508.542545 128.080608 
L 509.455636 133.272713 
L 510.673091 141.595213 
L 511.586182 147.80017 
L 511.890545 146.357797 
L 512.194909 146.086497 
L 512.499273 146.175229 
L 513.716727 146.131683 
L 514.934182 146.303102 
L 516.456 146.746081 
L 518.586545 147.637002 
L 522.543273 149.634816 
L 528.630545 152.595622 
L 532.282909 154.079845 
L 535.935273 155.289972 
L 539.587636 156.268765 
L 543.544364 157.109139 
L 548.718545 157.951618 
L 555.110182 158.731099 
L 564.241091 159.512782 
L 572.458909 160.004463 
L 587.372727 160.655758 
L 587.677091 160.192439 
L 588.285818 157.182834 
L 589.807636 151.101587 
L 592.242545 140.490781 
L 595.894909 123.425893 
L 602.895273 90.613635 
L 605.634545 78.723009 
L 607.460727 71.578286 
L 608.982545 66.494158 
L 610.2 63.1869 
L 611.113091 61.306397 
L 611.721818 60.402702 
L 612.330545 59.815508 
L 612.939273 59.550194 
L 613.548 59.660838 
L 614.156727 60.163435 
L 614.765455 61.091117 
L 615.374182 62.484148 
L 616.287273 65.47669 
L 617.200364 69.545095 
L 618.113455 74.668825 
L 619.330909 83.175138 
L 620.548364 93.318027 
L 622.070182 108.030876 
L 624.200727 131.244646 
L 625.418182 145.264029 
L 625.722545 257.43793 
L 629.070545 219.747006 
L 631.201091 198.326267 
L 633.027273 182.360966 
L 634.549091 170.874215 
L 636.070909 160.94537 
L 637.592727 152.52835 
L 639.114545 145.35983 
L 640.636364 139.322401 
L 642.158182 134.155266 
L 643.984364 128.899118 
L 645.810545 124.465034 
L 647.636727 120.695097 
L 649.462909 117.461903 
L 650.376 116.232103 
L 651.593455 114.811451 
L 652.506545 114.006133 
L 653.419636 113.508517 
L 654.028364 113.370775 
L 654.637091 113.386092 
L 655.245818 113.616413 
L 655.854545 114.07052 
L 656.767636 115.258673 
L 657.680727 117.04148 
L 658.593818 119.513529 
L 659.506909 122.757133 
L 660.42 126.80529 
L 661.637455 133.551088 
L 662.854909 141.875487 
L 663.768 148.082056 
L 664.072364 146.640353 
L 664.376727 146.367446 
L 664.681091 146.456692 
L 665.898545 146.406593 
L 667.116 146.568964 
L 668.637818 146.99859 
L 670.768364 147.869544 
L 674.420727 149.671935 
L 678.073091 151.489247 
L 682.029818 153.259176 
L 685.682182 154.628724 
L 689.030182 155.638304 
L 692.378182 156.482686 
L 696.639273 157.336051 
L 700.900364 158.007433 
L 708.509455 158.901392 
L 716.422909 159.560017 
L 724.336364 160.045968 
L 736.510909 160.595504 
L 739.554545 160.723417 
L 739.858909 160.257168 
L 740.467636 157.246863 
L 741.989455 151.167446 
L 744.424364 140.564727 
L 748.076727 123.509529 
L 755.381455 89.394108 
L 758.120727 77.690221 
L 759.946909 70.755035 
L 761.468727 65.842942 
L 762.686182 62.73384 
L 763.599273 61.051091 
L 764.208 60.294398 
L 764.816727 59.864999 
L 765.425455 59.785832 
L 766.034182 60.084677 
L 766.642909 60.795762 
L 767.251636 61.967082 
L 767.860364 63.599637 
L 768.773455 66.937575 
L 769.686545 71.384476 
L 770.599636 76.881199 
L 771.817091 85.811684 
L 773.034545 96.348057 
L 774.556364 111.4429 
L 776.686909 135.000978 
L 777.295636 142.005589 
L 777.6 203.115789 
L 777.6 203.115789 
" style="fill:none;stroke:#1f77b4;stroke-linecap:square;stroke-width:2.5;"/>
   </g>
   <g id="line2d_35">
    <path clip-path="url(#p1d19106c6d)" d="M 472.932 219.168921 
L 473.236364 220.462793 
L 473.540727 184.497881 
L 475.062545 178.663399 
L 476.584364 173.710218 
L 477.801818 170.403988 
L 479.019273 167.665011 
L 480.236727 165.471551 
L 481.454182 163.757741 
L 482.671636 162.452923 
L 483.889091 161.490047 
L 485.410909 160.638855 
L 487.845818 159.605322 
L 489.976364 158.84694 
L 492.715636 157.609479 
L 494.846182 156.187512 
L 500.020364 152.568044 
L 501.237818 152.051797 
L 502.150909 151.829174 
L 503.064 151.784848 
L 503.977091 151.929277 
L 504.890182 152.293076 
L 505.803273 152.889023 
L 506.716364 153.74423 
L 507.629455 154.865816 
L 508.846909 156.801298 
L 510.064364 159.27092 
L 511.586182 162.769471 
L 511.890545 162.309656 
L 512.499273 162.228921 
L 520.412727 161.518095 
L 526.195636 161.150229 
L 534.717818 160.863472 
L 545.066182 160.780617 
L 570.632727 160.855711 
L 584.633455 160.999497 
L 587.677091 161.024885 
L 588.590182 160.677272 
L 591.025091 159.743186 
L 593.46 158.572298 
L 597.112364 156.562761 
L 599.547273 155.295639 
L 601.373455 154.579935 
L 602.895273 154.240507 
L 604.112727 154.184907 
L 605.330182 154.401901 
L 606.243273 154.762265 
L 607.156364 155.340387 
L 608.069455 156.155662 
L 608.982545 157.22237 
L 610.2 159.101649 
L 611.417455 161.537407 
L 612.634909 164.556118 
L 613.852364 168.182395 
L 615.374182 173.529801 
L 617.200364 181.073075 
L 619.330909 191.043322 
L 625.113818 218.868406 
L 625.722545 184.80273 
L 627.244364 178.965264 
L 628.766182 174.017688 
L 629.983636 170.715243 
L 631.201091 167.977546 
L 632.418545 165.774065 
L 633.331636 164.432152 
L 634.549091 163.046942 
L 635.766545 161.89093 
L 636.070909 161.801978 
L 637.288364 161.063555 
L 639.114545 160.311078 
L 641.853818 159.294775 
L 645.201818 157.701642 
L 647.028 156.484765 
L 652.506545 152.71807 
L 653.724 152.238464 
L 654.941455 152.029914 
L 656.158909 152.154649 
L 657.072 152.494552 
L 657.985091 153.067128 
L 658.898182 153.894945 
L 659.811273 154.98752 
L 660.724364 156.365252 
L 661.941818 158.666023 
L 663.159273 161.506448 
L 663.463636 162.312583 
L 663.768 162.784017 
L 664.072364 162.318816 
L 664.681091 162.22375 
L 671.681455 161.484424 
L 678.377455 160.98939 
L 685.377818 160.699503 
L 694.508727 160.583532 
L 710.335636 160.664775 
L 739.858909 160.968738 
L 740.772 160.622257 
L 742.902545 159.822276 
L 745.337455 158.682504 
L 749.294182 156.524103 
L 752.033455 155.13146 
L 753.859636 154.461659 
L 755.077091 154.21539 
L 756.294545 154.179656 
L 757.512 154.404365 
L 758.425091 154.775064 
L 759.338182 155.358863 
L 760.251273 156.177605 
L 761.164364 157.25973 
L 762.077455 158.621824 
L 763.294909 160.916321 
L 764.512364 163.793324 
L 765.729818 167.268083 
L 766.947273 171.334477 
L 768.469091 177.206555 
L 770.295273 185.251882 
L 773.034545 198.588318 
L 776.382545 214.818596 
L 777.295636 218.856819 
L 777.6 203.115789 
L 777.6 203.115789 
" style="fill:none;stroke:#ff7f0e;stroke-linecap:square;stroke-width:2.5;"/>
   </g>
   <g id="line2d_36">
    <path clip-path="url(#p1d19106c6d)" d="M 472.932 222.898455 
L 473.236364 223.816534 
L 473.540727 181.516195 
L 475.062545 177.46505 
L 476.28 174.752437 
L 477.497455 172.502762 
L 478.714909 170.691312 
L 479.932364 169.276385 
L 481.149818 168.211224 
L 482.671636 167.2074 
L 484.802182 166.353779 
L 490.280727 165.182417 
L 492.411273 164.134484 
L 494.237455 162.938264 
L 500.324727 158.761631 
L 501.846545 158.103134 
L 503.064 157.773963 
L 504.281455 157.623807 
L 505.498909 157.71185 
L 506.716364 158.062051 
L 507.933818 158.708586 
L 509.151273 159.690252 
L 510.368727 161.042355 
L 511.586182 162.570783 
L 511.890545 162.207227 
L 512.803636 161.940599 
L 515.542909 161.308918 
L 518.282182 160.924202 
L 521.325818 160.75078 
L 525.282545 160.755526 
L 549.631636 161.165536 
L 581.894182 161.127747 
L 590.112 161.54982 
L 595.286182 161.84834 
L 598.634182 162.061073 
L 600.460364 162.355237 
L 602.286545 162.915622 
L 603.504 163.496907 
L 604.721455 164.293009 
L 605.938909 165.350561 
L 607.156364 166.714225 
L 608.373818 168.420528 
L 609.591273 170.518328 
L 610.808727 173.033643 
L 612.026182 175.981994 
L 613.548 180.2873 
L 615.374182 186.275206 
L 617.504727 194.134807 
L 623.592 217.546863 
L 625.113818 222.52613 
L 625.418182 223.43503 
L 625.722545 181.897311 
L 627.244364 177.879552 
L 628.461818 175.183056 
L 629.679273 172.950356 
L 630.896727 171.14449 
L 632.114182 169.736935 
L 633.331636 168.67496 
L 634.549091 167.831411 
L 636.679636 166.897237 
L 641.549455 165.852896 
L 642.766909 165.397709 
L 644.288727 164.610905 
L 646.419273 163.203218 
L 652.506545 158.93533 
L 654.028364 158.235214 
L 655.245818 157.87032 
L 656.463273 157.711258 
L 657.680727 157.779762 
L 658.898182 158.112446 
L 660.115636 158.740686 
L 661.333091 159.705848 
L 662.550545 161.042885 
L 663.768 162.560124 
L 664.072364 162.194221 
L 664.985455 161.918209 
L 668.333455 161.164308 
L 670.464 160.871894 
L 674.116364 160.65803 
L 681.421091 160.703259 
L 689.943273 160.888789 
L 704.552727 161.052609 
L 731.336727 161.065141 
L 740.163273 161.354956 
L 745.337455 161.788577 
L 751.120364 162.166281 
L 752.946545 162.51515 
L 754.468364 163.014656 
L 755.685818 163.608881 
L 756.903273 164.42118 
L 758.120727 165.494181 
L 759.338182 166.87316 
L 760.555636 168.598985 
L 761.773091 170.717661 
L 762.990545 173.254841 
L 764.512364 177.039326 
L 766.034182 181.485492 
L 767.860364 187.620826 
L 769.990909 195.609396 
L 775.773818 217.826564 
L 777.295636 222.785109 
L 777.6 182.537952 
L 777.6 182.537952 
" style="fill:none;stroke:#2ca02c;stroke-linecap:square;stroke-width:2.5;"/>
   </g>
   <g id="line2d_37">
    <path clip-path="url(#p1d19106c6d)" d="M 472.932 223.011608 
L 473.236364 223.829843 
L 473.540727 181.601445 
L 475.062545 178.026464 
L 476.28 175.639791 
L 477.497455 173.668024 
L 478.714909 172.073545 
L 479.932364 170.835569 
L 481.149818 169.905681 
L 482.976 168.85765 
L 484.193455 168.458268 
L 487.845818 167.843287 
L 488.454545 167.812304 
L 490.280727 167.220466 
L 492.106909 166.288801 
L 494.541818 164.637617 
L 498.498545 161.847081 
L 500.933455 160.474273 
L 502.759636 159.673886 
L 504.281455 159.21886 
L 505.803273 159.013554 
L 507.020727 159.087161 
L 508.238182 159.421518 
L 509.151273 159.874097 
L 510.064364 160.525175 
L 510.977455 161.390522 
L 511.281818 161.736966 
L 511.586182 161.90632 
L 511.890545 161.566413 
L 512.803636 161.250833 
L 514.934182 160.695832 
L 517.064727 160.36784 
L 519.804 160.240598 
L 522.847636 160.33269 
L 542.631273 161.291786 
L 549.022909 161.296505 
L 573.676364 161.175199 
L 587.068364 161.510886 
L 587.981455 161.629569 
L 598.938545 163.937656 
L 600.764727 164.572611 
L 602.286545 165.309539 
L 603.504 166.079647 
L 604.721455 167.05427 
L 605.938909 168.277972 
L 607.156364 169.788258 
L 608.373818 171.61713 
L 609.591273 173.800803 
L 611.113091 177.069012 
L 612.634909 180.946937 
L 614.156727 185.392748 
L 615.982909 191.383909 
L 618.722182 201.204895 
L 622.070182 213.232327 
L 624.200727 220.024723 
L 625.113818 222.61127 
L 625.722545 182.015954 
L 627.244364 178.475446 
L 628.461818 176.120088 
L 629.679273 174.163207 
L 630.896727 172.580423 
L 632.114182 171.34454 
L 633.331636 170.40984 
L 635.157818 169.327707 
L 636.679636 168.877121 
L 637.897091 168.62836 
L 638.201455 168.669345 
L 639.418909 168.405438 
L 641.549455 167.976228 
L 643.071273 167.34182 
L 644.593091 166.47986 
L 646.419273 165.205732 
L 650.984727 161.847479 
L 653.115273 160.582194 
L 654.941455 159.710371 
L 656.767636 159.133792 
L 658.289455 158.95207 
L 659.202545 159.002381 
L 660.42 159.314173 
L 661.637455 159.944449 
L 662.550545 160.658268 
L 663.768 161.770312 
L 664.072364 161.427569 
L 664.985455 161.111361 
L 667.116 160.559092 
L 669.246545 160.235674 
L 671.985818 160.107442 
L 675.029455 160.186154 
L 695.421818 161.169381 
L 703.335273 161.215383 
L 734.380364 161.322317 
L 740.163273 161.630043 
L 750.816 163.917077 
L 752.946545 164.659261 
L 754.468364 165.411957 
L 755.990182 166.422238 
L 757.207636 167.47314 
L 758.425091 168.780026 
L 759.642545 170.381315 
L 760.86 172.312833 
L 762.077455 174.610819 
L 763.599273 178.025148 
L 765.121091 182.042149 
L 766.947273 187.590982 
L 769.077818 194.873747 
L 775.469455 217.538094 
L 777.295636 222.906441 
L 777.6 223.713193 
L 777.6 223.713193 
" style="fill:none;stroke:#d62728;stroke-linecap:square;stroke-width:2.5;"/>
   </g>
   <g id="line2d_38">
    <path clip-path="url(#p1d19106c6d)" d="M 473.236364 203.115789 
L 777.6 203.115789 
" style="fill:none;stroke:#000000;stroke-dasharray:3.2,0.8,0.5,0.8;stroke-dashoffset:0;stroke-width:0.5;"/>
   </g>
   <g id="line2d_39">
    <path clip-path="url(#p1d19106c6d)" d="M 625.418182 230.4 
L 625.418182 57.6 
" style="fill:none;stroke:#000000;stroke-dasharray:3.2,0.8,0.5,0.8;stroke-dashoffset:0;stroke-width:0.5;"/>
   </g>
   <g id="patch_8">
    <path d="M 473.236364 230.4 
L 473.236364 57.6 
" style="fill:none;stroke:#000000;stroke-linecap:square;stroke-linejoin:miter;stroke-width:0.8;"/>
   </g>
   <g id="patch_9">
    <path d="M 777.6 230.4 
L 777.6 57.6 
" style="fill:none;stroke:#000000;stroke-linecap:square;stroke-linejoin:miter;stroke-width:0.8;"/>
   </g>
   <g id="patch_10">
    <path d="M 473.236364 230.4 
L 777.6 230.4 
" style="fill:none;stroke:#000000;stroke-linecap:square;stroke-linejoin:miter;stroke-width:0.8;"/>
   </g>
   <g id="patch_11">
    <path d="M 473.236364 57.6 
L 777.6 57.6 
" style="fill:none;stroke:#000000;stroke-linecap:square;stroke-linejoin:miter;stroke-width:0.8;"/>
   </g>
  </g>
 </g>
 <defs>
  <clipPath id="paa16ec9cc5">
   <rect height="172.8" width="304.363636" x="108" y="57.6"/>
  </clipPath>
  <clipPath id="p1d19106c6d">
   <rect height="172.8" width="304.363636" x="473.236364" y="57.6"/>
  </clipPath>
 </defs>
</svg>
