<?xml version="1.0" encoding="utf-8" standalone="no"?>
<!DOCTYPE svg PUBLIC "-//W3C//DTD SVG 1.1//EN"
  "http://www.w3.org/Graphics/SVG/1.1/DTD/svg11.dtd">
<!-- Created with matplotlib (https://matplotlib.org/) -->
<svg height="432pt" version="1.1" viewBox="0 0 864 432" width="864pt" xmlns="http://www.w3.org/2000/svg" xmlns:xlink="http://www.w3.org/1999/xlink">
 <defs>
  <style type="text/css">
*{stroke-linecap:butt;stroke-linejoin:round;}
  </style>
 </defs>
 <g id="figure_1">
  <g id="patch_1">
   <path d="M 0 432 
L 864 432 
L 864 0 
L 0 0 
z
" style="fill:#ffffff;"/>
  </g>
  <g id="axes_1">
   <g id="patch_2">
    <path d="M 86.4 151.2 
L 412.437736 151.2 
L 412.437736 43.2 
L 86.4 43.2 
z
" style="fill:#ffffff;"/>
   </g>
   <g id="matplotlib.axis_1">
    <g id="xtick_1">
     <g id="line2d_1">
      <defs>
       <path d="M 0 0 
L 0 3.5 
" id="m72d5aa68b2" style="stroke:#000000;stroke-width:0.8;"/>
      </defs>
      <g>
       <use style="fill:#ffffff;stroke:#000000;stroke-width:0.8;" x="86.4" xlink:href="#m72d5aa68b2" y="151.2"/>
      </g>
     </g>
    </g>
    <g id="xtick_2">
     <g id="line2d_2">
      <g>
       <use style="fill:#ffffff;stroke:#000000;stroke-width:0.8;" x="151.607547" xlink:href="#m72d5aa68b2" y="151.2"/>
      </g>
     </g>
    </g>
    <g id="xtick_3">
     <g id="line2d_3">
      <g>
       <use style="fill:#ffffff;stroke:#000000;stroke-width:0.8;" x="216.815094" xlink:href="#m72d5aa68b2" y="151.2"/>
      </g>
     </g>
    </g>
    <g id="xtick_4">
     <g id="line2d_4">
      <g>
       <use style="fill:#ffffff;stroke:#000000;stroke-width:0.8;" x="282.022642" xlink:href="#m72d5aa68b2" y="151.2"/>
      </g>
     </g>
    </g>
    <g id="xtick_5">
     <g id="line2d_5">
      <g>
       <use style="fill:#ffffff;stroke:#000000;stroke-width:0.8;" x="347.230189" xlink:href="#m72d5aa68b2" y="151.2"/>
      </g>
     </g>
    </g>
    <g id="xtick_6">
     <g id="line2d_6">
      <g>
       <use style="fill:#ffffff;stroke:#000000;stroke-width:0.8;" x="412.437736" xlink:href="#m72d5aa68b2" y="151.2"/>
      </g>
     </g>
    </g>
   </g>
   <g id="matplotlib.axis_2">
    <g id="ytick_1">
     <g id="line2d_7">
      <defs>
       <path d="M 0 0 
L -3.5 0 
" id="m1525286007" style="stroke:#000000;stroke-width:0.8;"/>
      </defs>
      <g>
       <use style="fill:#ffffff;stroke:#000000;stroke-width:0.8;" x="86.4" xlink:href="#m1525286007" y="133.2"/>
      </g>
     </g>
     <g id="text_1">
      <!-- −1 -->
      <defs>
       <path d="M 62.09375 22 
L 6.40625 22 
L 6.40625 28.59375 
L 62.09375 28.59375 
z
" id="STIXGeneral-Regular-8722"/>
       <path d="M 39.40625 0 
L 11.796875 0 
L 11.796875 1.5 
Q 17.296875 1.796875 19.296875 3.546875 
Q 21.296875 5.296875 21.296875 9.5 
L 21.296875 54.40625 
Q 21.296875 59.296875 18.296875 59.296875 
Q 16.90625 59.296875 13.796875 58.09375 
L 11.09375 57.09375 
L 11.09375 58.5 
L 29 67.59375 
L 29.90625 67.296875 
L 29.90625 7.59375 
Q 29.90625 4.296875 31.90625 2.890625 
Q 33.90625 1.5 39.40625 1.5 
z
" id="STIXGeneral-Regular-49"/>
      </defs>
      <g transform="translate(56.885 139.688203)scale(0.19 -0.19)">
       <use xlink:href="#STIXGeneral-Regular-8722"/>
       <use x="68.499985" xlink:href="#STIXGeneral-Regular-49"/>
      </g>
     </g>
    </g>
    <g id="ytick_2">
     <g id="line2d_8">
      <g>
       <use style="fill:#ffffff;stroke:#000000;stroke-width:0.8;" x="86.4" xlink:href="#m1525286007" y="97.2"/>
      </g>
     </g>
     <g id="text_2">
      <!-- 0 -->
      <defs>
       <path d="M 47.59375 33 
Q 47.59375 26.296875 46.296875 20.34375 
Q 45 14.40625 42.453125 9.40625 
Q 39.90625 4.40625 35.40625 1.5 
Q 30.90625 -1.40625 25 -1.40625 
Q 18.90625 -1.40625 14.296875 1.6875 
Q 9.703125 4.796875 7.203125 10 
Q 4.703125 15.203125 3.546875 21.09375 
Q 2.40625 27 2.40625 33.59375 
Q 2.40625 42.90625 4.703125 50.34375 
Q 7 57.796875 12.34375 62.6875 
Q 17.703125 67.59375 25.40625 67.59375 
Q 35.203125 67.59375 41.390625 58 
Q 47.59375 48.40625 47.59375 33 
z
M 38 32.5 
Q 38 48.296875 34.640625 56.640625 
Q 31.296875 65 24.796875 65 
Q 18.59375 65 15.296875 56.59375 
Q 12 48.203125 12 32.90625 
Q 12 17.5 15.296875 9.34375 
Q 18.59375 1.203125 25 1.203125 
Q 31.296875 1.203125 34.640625 9.34375 
Q 38 17.5 38 32.5 
z
" id="STIXGeneral-Regular-48"/>
      </defs>
      <g transform="translate(69.9 103.688203)scale(0.19 -0.19)">
       <use xlink:href="#STIXGeneral-Regular-48"/>
      </g>
     </g>
    </g>
    <g id="ytick_3">
     <g id="line2d_9">
      <g>
       <use style="fill:#ffffff;stroke:#000000;stroke-width:0.8;" x="86.4" xlink:href="#m1525286007" y="61.2"/>
      </g>
     </g>
     <g id="text_3">
      <!-- 1 -->
      <g transform="translate(69.9 67.688203)scale(0.19 -0.19)">
       <use xlink:href="#STIXGeneral-Regular-49"/>
      </g>
     </g>
    </g>
    <g id="text_4">
     <!-- $C_l$ -->
     <defs>
      <path d="M 68.90625 66.40625 
L 65.203125 46.40625 
L 63.40625 46.703125 
Q 61.59375 63 48.5 63 
Q 37.59375 63 28.59375 53.296875 
Q 23.296875 47.703125 20.546875 39.703125 
Q 17.796875 31.703125 17.796875 23.203125 
Q 17.796875 2.703125 35.296875 2.703125 
Q 41.5 2.703125 46.640625 5.296875 
Q 51.796875 7.90625 58.203125 14.59375 
L 60 13.09375 
Q 53.296875 5.203125 46.84375 1.703125 
Q 40.40625 -1.796875 32.703125 -1.796875 
Q 21 -1.796875 13.796875 5.140625 
Q 6.59375 12.09375 6.59375 24.296875 
Q 6.59375 34.59375 11.6875 43.9375 
Q 16.796875 53.296875 25.296875 59.296875 
Q 35.5 66.59375 47.203125 66.59375 
Q 54.09375 66.59375 58.90625 64.90625 
Q 60.90625 64.203125 63 64.203125 
Q 65.703125 64.203125 66.796875 66.40625 
z
" id="STIXGeneral-Italic-67"/>
      <path d="M 27.90625 67.796875 
L 12.59375 9.296875 
Q 11.796875 6.40625 11.796875 5 
Q 11.796875 3.203125 13.5 3.203125 
Q 16.203125 3.203125 20.203125 8.90625 
L 22.703125 12.40625 
L 24.09375 11.40625 
Q 19.59375 4.296875 16.34375 1.59375 
Q 13.09375 -1.09375 9 -1.09375 
Q 4.09375 -1.09375 4.09375 4.5 
Q 4.09375 6.203125 4.5 7.5 
L 18.203125 59.90625 
Q 18.5 60.90625 18.5 61.796875 
Q 18.5 64 13.59375 64 
L 11.796875 64 
L 11.796875 65.59375 
Q 18.796875 66.40625 27.296875 68.296875 
z
" id="STIXGeneral-Italic-108"/>
     </defs>
     <g transform="translate(48.761406 105.845)rotate(-90)scale(0.19 -0.19)">
      <use transform="translate(0 0.40625)" xlink:href="#STIXGeneral-Italic-67"/>
      <use transform="translate(66.699997 -12.821875)scale(0.7)" xlink:href="#STIXGeneral-Italic-108"/>
     </g>
    </g>
   </g>
   <g id="line2d_10">
    <path clip-path="url(#pd3149ebd61)" d="M 86.073962 96.512839 
L 87.052075 94.859544 
L 88.030189 93.85719 
L 89.008302 93.206636 
L 90.312453 92.717274 
L 90.964528 92.538099 
L 93.246792 92.120896 
L 93.57283 92.15571 
L 93.898868 92.044681 
L 94.224906 92.109662 
L 94.876981 92.001603 
L 95.203019 92.035599 
L 95.529057 91.924585 
L 96.181132 91.966909 
L 96.833208 91.922029 
L 99.115472 91.89713 
L 99.441509 91.838626 
L 99.767547 91.911847 
L 100.093585 91.837206 
L 100.419623 91.914077 
L 101.071698 91.884864 
L 105.636226 92.00992 
L 112.156981 92.389908 
L 121.612075 93.185871 
L 134.001509 94.451837 
L 177.038491 98.920623 
L 193.01434 100.330718 
L 208.990189 101.558252 
L 225.944151 102.65416 
L 246.484528 103.705404 
L 265.720755 104.45518 
L 285.283019 105.022007 
L 308.431698 105.49168 
L 336.796981 105.82598 
L 368.096604 105.966936 
L 404.61283 105.921019 
L 412.763774 105.886666 
L 412.763774 105.886666 
" style="fill:none;stroke:#1f77b4;stroke-linecap:square;stroke-width:2;"/>
   </g>
   <g id="line2d_11">
    <path clip-path="url(#pd3149ebd61)" d="M 86.073962 91.536815 
L 86.726038 90.959644 
L 87.704151 90.555367 
L 89.660377 90.705638 
L 99.115472 93.934493 
L 100.093585 94.186965 
L 100.74566 94.422483 
L 102.049811 94.921057 
L 102.701887 95.077434 
L 104.658113 95.781917 
L 106.61434 96.459578 
L 109.548679 97.56315 
L 116.395472 100.513985 
L 120.96 102.777242 
L 127.480755 106.235211 
L 133.023396 109.083894 
L 136.283774 110.50314 
L 137.913962 111.18174 
L 141.500377 112.398197 
L 142.804528 112.758694 
L 145.41283 113.404512 
L 148.673208 113.990034 
L 153.237736 114.624788 
L 163.670943 115.67649 
L 167.583396 116.061868 
L 169.539623 116.25029 
L 174.104151 116.643859 
L 177.038491 116.912085 
L 181.929057 117.238167 
L 187.14566 117.466486 
L 197.578868 117.525862 
L 215.510943 116.764704 
L 228.878491 115.715434 
L 239.311698 114.61383 
L 283.326792 109.100443 
L 299.628679 107.455168 
L 314.952453 106.273394 
L 332.232453 105.328369 
L 335.49283 105.187942 
L 339.405283 105.032008 
L 366.792453 104.088643 
L 382.442264 103.648811 
L 393.201509 103.384054 
L 401.352453 103.178977 
L 412.763774 102.914007 
L 412.763774 102.914007 
" style="fill:none;stroke:#ff7f0e;stroke-linecap:square;stroke-width:2;"/>
   </g>
   <g id="line2d_12">
    <path clip-path="url(#pd3149ebd61)" d="M 86.4 97.2 
L 412.437736 97.2 
" style="fill:none;stroke:#000000;stroke-dasharray:3.2,0.8,0.5,0.8;stroke-dashoffset:0;stroke-width:0.5;"/>
   </g>
   <g id="line2d_13">
    <path clip-path="url(#pd3149ebd61)" d="M 86.4 151.2 
L 86.4 43.2 
" style="fill:none;stroke:#000000;stroke-linecap:square;stroke-width:0.5;"/>
   </g>
   <g id="line2d_14">
    <path clip-path="url(#pd3149ebd61)" d="M 151.607547 151.2 
L 151.607547 43.2 
" style="fill:none;stroke:#000000;stroke-dasharray:6.4,1.6,1,1.6;stroke-dashoffset:0;stroke-opacity:0.25;"/>
   </g>
   <g id="line2d_15">
    <path clip-path="url(#pd3149ebd61)" d="M 216.815094 151.2 
L 216.815094 43.2 
" style="fill:none;stroke:#000000;stroke-dasharray:6.4,1.6,1,1.6;stroke-dashoffset:0;stroke-opacity:0.25;"/>
   </g>
   <g id="line2d_16">
    <path clip-path="url(#pd3149ebd61)" d="M 282.022642 151.2 
L 282.022642 43.2 
" style="fill:none;stroke:#000000;stroke-dasharray:6.4,1.6,1,1.6;stroke-dashoffset:0;stroke-opacity:0.25;"/>
   </g>
   <g id="patch_3">
    <path d="M 86.4 151.2 
L 86.4 43.2 
" style="fill:none;stroke:#000000;stroke-linecap:square;stroke-linejoin:miter;stroke-width:0.8;"/>
   </g>
   <g id="patch_4">
    <path d="M 412.437736 151.2 
L 412.437736 43.2 
" style="fill:none;stroke:#000000;stroke-linecap:square;stroke-linejoin:miter;stroke-width:0.8;"/>
   </g>
   <g id="patch_5">
    <path d="M 86.4 151.2 
L 412.437736 151.2 
" style="fill:none;stroke:#000000;stroke-linecap:square;stroke-linejoin:miter;stroke-width:0.8;"/>
   </g>
   <g id="patch_6">
    <path d="M 86.4 43.2 
L 412.437736 43.2 
" style="fill:none;stroke:#000000;stroke-linecap:square;stroke-linejoin:miter;stroke-width:0.8;"/>
   </g>
  </g>
  <g id="axes_2">
   <g id="patch_7">
    <path d="M 451.562264 151.2 
L 777.6 151.2 
L 777.6 43.2 
L 451.562264 43.2 
z
" style="fill:#ffffff;"/>
   </g>
   <g id="matplotlib.axis_3">
    <g id="xtick_7">
     <g id="line2d_17">
      <g>
       <use style="fill:#ffffff;stroke:#000000;stroke-width:0.8;" x="451.562264" xlink:href="#m72d5aa68b2" y="151.2"/>
      </g>
     </g>
    </g>
    <g id="xtick_8">
     <g id="line2d_18">
      <g>
       <use style="fill:#ffffff;stroke:#000000;stroke-width:0.8;" x="516.769811" xlink:href="#m72d5aa68b2" y="151.2"/>
      </g>
     </g>
    </g>
    <g id="xtick_9">
     <g id="line2d_19">
      <g>
       <use style="fill:#ffffff;stroke:#000000;stroke-width:0.8;" x="581.977358" xlink:href="#m72d5aa68b2" y="151.2"/>
      </g>
     </g>
    </g>
    <g id="xtick_10">
     <g id="line2d_20">
      <g>
       <use style="fill:#ffffff;stroke:#000000;stroke-width:0.8;" x="647.184906" xlink:href="#m72d5aa68b2" y="151.2"/>
      </g>
     </g>
    </g>
    <g id="xtick_11">
     <g id="line2d_21">
      <g>
       <use style="fill:#ffffff;stroke:#000000;stroke-width:0.8;" x="712.392453" xlink:href="#m72d5aa68b2" y="151.2"/>
      </g>
     </g>
    </g>
    <g id="xtick_12">
     <g id="line2d_22">
      <g>
       <use style="fill:#ffffff;stroke:#000000;stroke-width:0.8;" x="777.6" xlink:href="#m72d5aa68b2" y="151.2"/>
      </g>
     </g>
    </g>
   </g>
   <g id="matplotlib.axis_4">
    <g id="ytick_4">
     <g id="line2d_23">
      <g>
       <use style="fill:#ffffff;stroke:#000000;stroke-width:0.8;" x="451.562264" xlink:href="#m1525286007" y="133.2"/>
      </g>
     </g>
    </g>
    <g id="ytick_5">
     <g id="line2d_24">
      <g>
       <use style="fill:#ffffff;stroke:#000000;stroke-width:0.8;" x="451.562264" xlink:href="#m1525286007" y="97.2"/>
      </g>
     </g>
    </g>
    <g id="ytick_6">
     <g id="line2d_25">
      <g>
       <use style="fill:#ffffff;stroke:#000000;stroke-width:0.8;" x="451.562264" xlink:href="#m1525286007" y="61.2"/>
      </g>
     </g>
    </g>
    <g id="text_5">
     <!-- $C_d$ -->
     <defs>
      <path d="M 52.09375 68.296875 
L 52.703125 67.703125 
L 48.796875 52.5 
L 42.796875 30.59375 
Q 36.296875 6.703125 36.296875 6 
Q 36.296875 4 38.09375 4 
Q 39.40625 4 40.84375 5.25 
Q 42.296875 6.5 46.296875 11.09375 
L 47.5 10.09375 
Q 39.796875 -1.296875 32.796875 -1.296875 
Q 30.90625 -1.296875 29.796875 -0.09375 
Q 28.703125 1.09375 28.703125 3.203125 
Q 28.703125 6.203125 30 12.09375 
Q 25.703125 4.796875 21.546875 1.84375 
Q 17.40625 -1.09375 12.203125 -1.09375 
Q 7.203125 -1.09375 4.34375 1.953125 
Q 1.5 5 1.5 10.59375 
Q 1.5 22.5 11.140625 33.296875 
Q 20.796875 44.09375 30.703125 44.09375 
Q 33.796875 44.09375 35.25 42.6875 
Q 36.703125 41.296875 37.203125 38.296875 
L 37.296875 38.296875 
L 41.796875 54.59375 
Q 43.203125 59.5 43.203125 61.703125 
Q 43.203125 63.296875 42.09375 63.6875 
Q 41 64.09375 36.796875 64.296875 
L 36.796875 66 
Q 44.5 66.703125 52.09375 68.296875 
z
M 35.59375 36.09375 
Q 35.59375 38.703125 34.140625 40.25 
Q 32.703125 41.796875 30.90625 41.796875 
Q 26.203125 41.796875 21.796875 37.203125 
Q 16.796875 31.90625 13.5 24.546875 
Q 10.203125 17.203125 10.203125 11 
Q 10.203125 7.59375 11.75 5.640625 
Q 13.296875 3.703125 16 3.703125 
Q 20.5 3.703125 25.09375 8.59375 
Q 29.703125 13.5 32.640625 21.09375 
Q 35.59375 28.703125 35.59375 36.09375 
z
" id="STIXGeneral-Italic-100"/>
     </defs>
     <g transform="translate(436.43867 107.365)rotate(-90)scale(0.19 -0.19)">
      <use transform="translate(0 0.40625)" xlink:href="#STIXGeneral-Italic-67"/>
      <use transform="translate(66.699997 -12.821875)scale(0.7)" xlink:href="#STIXGeneral-Italic-100"/>
     </g>
    </g>
   </g>
   <g id="line2d_26">
    <path clip-path="url(#pa8b19a5acd)" d="M 451.236226 121.353461 
L 452.21434 118.819062 
L 453.192453 117.045446 
L 454.170566 115.709132 
L 455.474717 114.412585 
L 456.126792 113.864089 
L 457.756981 112.69982 
L 458.735094 112.190128 
L 459.061132 111.934071 
L 459.38717 111.859121 
L 460.039245 111.477173 
L 460.365283 111.379266 
L 460.691321 111.13788 
L 461.343396 110.929507 
L 461.995472 110.642074 
L 467.864151 108.780495 
L 471.124528 108.043117 
L 475.363019 107.308025 
L 480.579623 106.65386 
L 486.77434 106.130742 
L 493.621132 105.780086 
L 502.098113 105.566572 
L 514.813585 105.50999 
L 534.375849 105.677981 
L 590.45434 106.245393 
L 614.255094 106.268348 
L 658.270189 105.998417 
L 703.915472 105.477695 
L 777.926038 104.477131 
L 777.926038 104.477131 
" style="fill:none;stroke:#1f77b4;stroke-linecap:square;stroke-width:2;"/>
   </g>
   <g id="line2d_27">
    <path clip-path="url(#pa8b19a5acd)" d="M 451.236226 93.445953 
L 451.888302 92.779643 
L 452.866415 92.272693 
L 454.496604 92.255772 
L 455.800755 92.592356 
L 458.083019 93.412878 
L 458.409057 93.455335 
L 458.735094 93.639111 
L 459.061132 93.685351 
L 459.38717 93.875911 
L 460.039245 94.031314 
L 460.365283 94.224225 
L 460.691321 94.256229 
L 461.343396 94.513125 
L 461.995472 94.769649 
L 464.277736 95.571284 
L 465.255849 95.844947 
L 465.907925 96.096432 
L 467.212075 96.630276 
L 467.864151 96.806624 
L 469.820377 97.571145 
L 471.776604 98.319491 
L 474.710943 99.544084 
L 481.231698 102.676779 
L 486.77434 105.776968 
L 498.18566 112.326301 
L 504.706415 115.011436 
L 506.662642 115.61512 
L 507.966792 115.924063 
L 510.249057 116.390152 
L 512.857358 116.72645 
L 519.704151 117.173117 
L 532.093585 117.503097 
L 534.701887 117.611351 
L 539.266415 117.733472 
L 542.200755 117.826747 
L 557.850566 117.556186 
L 567.30566 116.908646 
L 581.325283 115.563102 
L 587.846038 114.845792 
L 596.975094 113.728596 
L 601.539623 113.118207 
L 632.18717 108.890086 
L 650.771321 106.668264 
L 668.051321 105.09832 
L 683.375094 104.123111 
L 693.156226 103.67227 
L 696.742642 103.524223 
L 703.915472 103.284157 
L 727.716226 102.643664 
L 743.04 102.35002 
L 747.930566 102.244778 
L 773.687547 101.838195 
L 777.273962 101.780484 
L 777.926038 101.77904 
L 777.926038 101.77904 
" style="fill:none;stroke:#ff7f0e;stroke-linecap:square;stroke-width:2;"/>
   </g>
   <g id="line2d_28">
    <path clip-path="url(#pa8b19a5acd)" d="M 451.562264 97.2 
L 777.6 97.2 
" style="fill:none;stroke:#000000;stroke-dasharray:3.2,0.8,0.5,0.8;stroke-dashoffset:0;stroke-width:0.5;"/>
   </g>
   <g id="line2d_29">
    <path clip-path="url(#pa8b19a5acd)" d="M 451.562264 151.2 
L 451.562264 43.2 
" style="fill:none;stroke:#000000;stroke-linecap:square;stroke-width:0.5;"/>
   </g>
   <g id="line2d_30">
    <path clip-path="url(#pa8b19a5acd)" d="M 516.769811 151.2 
L 516.769811 43.2 
" style="fill:none;stroke:#000000;stroke-dasharray:6.4,1.6,1,1.6;stroke-dashoffset:0;stroke-opacity:0.25;"/>
   </g>
   <g id="line2d_31">
    <path clip-path="url(#pa8b19a5acd)" d="M 581.977358 151.2 
L 581.977358 43.2 
" style="fill:none;stroke:#000000;stroke-dasharray:6.4,1.6,1,1.6;stroke-dashoffset:0;stroke-opacity:0.25;"/>
   </g>
   <g id="line2d_32">
    <path clip-path="url(#pa8b19a5acd)" d="M 647.184906 151.2 
L 647.184906 43.2 
" style="fill:none;stroke:#000000;stroke-dasharray:6.4,1.6,1,1.6;stroke-dashoffset:0;stroke-opacity:0.25;"/>
   </g>
   <g id="patch_8">
    <path d="M 451.562264 151.2 
L 451.562264 43.2 
" style="fill:none;stroke:#000000;stroke-linecap:square;stroke-linejoin:miter;stroke-width:0.8;"/>
   </g>
   <g id="patch_9">
    <path d="M 777.6 151.2 
L 777.6 43.2 
" style="fill:none;stroke:#000000;stroke-linecap:square;stroke-linejoin:miter;stroke-width:0.8;"/>
   </g>
   <g id="patch_10">
    <path d="M 451.562264 151.2 
L 777.6 151.2 
" style="fill:none;stroke:#000000;stroke-linecap:square;stroke-linejoin:miter;stroke-width:0.8;"/>
   </g>
   <g id="patch_11">
    <path d="M 451.562264 43.2 
L 777.6 43.2 
" style="fill:none;stroke:#000000;stroke-linecap:square;stroke-linejoin:miter;stroke-width:0.8;"/>
   </g>
   <g id="text_6">
    <!-- $s/c = 1.5$ -->
    <defs>
     <path d="M 36.59375 44.203125 
L 34.59375 30.203125 
L 33 30.203125 
Q 31.59375 41.796875 24.09375 41.796875 
Q 21.40625 41.796875 19.796875 40.296875 
Q 18.203125 38.796875 18.203125 36.09375 
Q 18.203125 32.296875 23.59375 25.90625 
Q 30.40625 18 30.40625 12.296875 
Q 30.40625 6.203125 26.34375 2.546875 
Q 22.296875 -1.09375 16 -1.09375 
Q 13.09375 -1.09375 10.5 -0.09375 
Q 8.40625 0.796875 6.09375 0.796875 
Q 4.09375 0.796875 3.203125 -1.296875 
L 1.59375 -1.296875 
L 3.59375 14.59375 
L 5.203125 14.59375 
Q 7.203125 1 15.203125 1 
Q 18.796875 1 20.796875 3 
Q 22.796875 5 22.796875 8.703125 
Q 22.796875 13.203125 17.203125 20.203125 
Q 10.90625 28.09375 10.90625 33.296875 
Q 10.90625 38.296875 14.203125 41.1875 
Q 17.5 44.09375 23 44.09375 
Q 25 44.09375 28.59375 43.09375 
Q 30.796875 42.40625 32.203125 42.40625 
Q 34.203125 42.40625 35.203125 44.203125 
z
" id="STIXGeneral-Italic-115"/>
     <path d="M 28.703125 67.59375 
L 5.90625 -1.40625 
L -0.90625 -1.40625 
L 22 67.59375 
z
" id="STIXGeneral-Regular-47"/>
     <path d="M 35 10.703125 
L 36.59375 9.703125 
Q 32 3.90625 27.640625 1.40625 
Q 23.296875 -1.09375 17.703125 -1.09375 
Q 10.59375 -1.09375 6.796875 2.796875 
Q 3 6.703125 3 14.296875 
Q 3 21 6.390625 27.25 
Q 9.796875 33.5 15.296875 38 
Q 23 44.09375 32 44.09375 
Q 36.59375 44.09375 39.546875 41.796875 
Q 42.5 39.5 42.5 36 
Q 42.5 34 41.09375 32.59375 
Q 39.703125 31.203125 37.703125 31.203125 
Q 35.703125 31.203125 34.75 32.34375 
Q 33.796875 33.5 33.796875 35.203125 
Q 33.796875 36.09375 34.546875 37.546875 
Q 35.296875 39 35.296875 40 
Q 35.296875 42 31.59375 42 
Q 25.296875 42 20.703125 37.203125 
Q 11.59375 27.59375 11.59375 13.90625 
Q 11.59375 8.5 13.890625 5.5 
Q 16.203125 2.5 20.5 2.5 
Q 24.40625 2.5 27.59375 4.390625 
Q 30.796875 6.296875 35 10.703125 
z
" id="STIXGeneral-Italic-99"/>
     <path d="M 63.703125 32 
L 4.796875 32 
L 4.796875 38.59375 
L 63.703125 38.59375 
z
M 63.703125 12 
L 4.796875 12 
L 4.796875 18.59375 
L 63.703125 18.59375 
z
" id="STIXGeneral-Regular-61"/>
     <path d="M 18.09375 4.296875 
Q 18.09375 2.09375 16.4375 0.5 
Q 14.796875 -1.09375 12.5 -1.09375 
Q 10.203125 -1.09375 8.59375 0.5 
Q 7 2.09375 7 4.390625 
Q 7 6.703125 8.640625 8.34375 
Q 10.296875 10 12.59375 10 
Q 14.796875 10 16.4375 8.296875 
Q 18.09375 6.59375 18.09375 4.296875 
z
" id="STIXGeneral-Regular-46"/>
     <path d="M 43.796875 68.09375 
L 40.203125 59.59375 
Q 39.59375 58.296875 37.5 58.296875 
L 18.09375 58.296875 
L 14.09375 49.796875 
Q 25.09375 47.703125 30 45.25 
Q 34.90625 42.796875 39.09375 37 
Q 42.59375 32.203125 42.59375 24.296875 
Q 42.59375 17.09375 40.25 12.1875 
Q 37.90625 7.296875 32.796875 3.5 
Q 26 -1.40625 15.796875 -1.40625 
Q 10.09375 -1.40625 6.59375 0.296875 
Q 3.09375 2 3.09375 4.796875 
Q 3.09375 8.59375 7.59375 8.59375 
Q 11.203125 8.59375 15 5.5 
Q 18.90625 2.296875 22.09375 2.296875 
Q 27.296875 2.296875 31.4375 7.5 
Q 35.59375 12.703125 35.59375 19.203125 
Q 35.59375 28.796875 28.90625 34.203125 
Q 20.203125 41.203125 7.59375 41.203125 
Q 6.40625 41.203125 6.40625 42 
L 6.5 42.5 
L 17.40625 66.203125 
L 38.09375 66.203125 
Q 39.796875 66.203125 40.75 66.703125 
Q 41.703125 67.203125 42.90625 68.796875 
z
" id="STIXGeneral-Regular-53"/>
    </defs>
    <g transform="translate(788.254906 101.626406)scale(0.19 -0.19)">
     <use transform="translate(0 0.203125)" xlink:href="#STIXGeneral-Italic-115"/>
     <use transform="translate(38.899994 0.203125)" xlink:href="#STIXGeneral-Regular-47"/>
     <use transform="translate(66.699982 0.203125)" xlink:href="#STIXGeneral-Italic-99"/>
     <use transform="translate(125.539972 0.203125)" xlink:href="#STIXGeneral-Regular-61"/>
     <use transform="translate(208.479953 0.203125)" xlink:href="#STIXGeneral-Regular-49"/>
     <use transform="translate(258.479938 0.203125)" xlink:href="#STIXGeneral-Regular-46"/>
     <use transform="translate(283.479922 0.203125)" xlink:href="#STIXGeneral-Regular-53"/>
    </g>
   </g>
   <g id="legend_1">
    <g id="line2d_33">
     <path d="M 320.672897 30.58375 
L 352.326897 30.58375 
" style="fill:none;stroke:#1f77b4;stroke-linecap:square;stroke-width:2;"/>
    </g>
    <g id="line2d_34"/>
    <g id="text_7">
     <!-- $Re = 10^2$ -->
     <defs>
      <path d="M 13.203125 65.296875 
L 38.40625 65.296875 
Q 48.09375 65.296875 53.4375 61.5 
Q 58.796875 57.703125 58.796875 51.203125 
Q 58.796875 43.40625 52.203125 38.40625 
Q 48.296875 35.40625 39.09375 33.296875 
L 48 9.796875 
Q 49.703125 5.203125 51.546875 3.390625 
Q 53.40625 1.59375 56.703125 1.59375 
L 56.703125 0 
L 42 0 
L 29.703125 32.40625 
L 23.09375 32.90625 
L 17.59375 12.59375 
Q 16.296875 8 16.296875 6.296875 
Q 16.296875 4 17.59375 3 
Q 18.90625 2 23 1.59375 
L 23 0 
L -1.296875 0 
L -1.296875 1.59375 
Q 2.703125 2.09375 4.34375 3.796875 
Q 6 5.5 7.203125 10.09375 
L 19.09375 53.203125 
Q 20.296875 57.796875 20.296875 59.5 
Q 20.296875 61.296875 18.90625 62.296875 
Q 17.703125 63.09375 13.203125 63.703125 
z
M 30.59375 59.296875 
L 24.296875 36.59375 
Q 27.40625 36.09375 29.40625 36.09375 
Q 38.296875 36.09375 43.296875 40.09375 
Q 48.296875 44.09375 48.296875 51.09375 
Q 48.296875 56.296875 45.1875 59.296875 
Q 42.09375 62.296875 36.296875 62.296875 
Q 31.40625 62.296875 30.59375 59.296875 
z
" id="STIXGeneral-Italic-82"/>
      <path d="M 35.796875 10.90625 
L 37 9.703125 
Q 28.203125 -1.09375 16.59375 -1.09375 
Q 10.5 -1.09375 6.796875 2.65625 
Q 3.09375 6.40625 3.09375 12.59375 
Q 3.09375 24.296875 12.4375 34.1875 
Q 21.796875 44.09375 33 44.09375 
Q 36.90625 44.09375 39.046875 42.296875 
Q 41.203125 40.5 41.203125 37.296875 
Q 41.203125 30.703125 33.546875 25.5 
Q 25.90625 20.296875 12.796875 18.59375 
Q 11.796875 16.59375 11.796875 12.5 
Q 11.796875 8.40625 14.34375 5.90625 
Q 16.90625 3.40625 21.09375 3.40625 
Q 24.40625 3.40625 27.40625 4.953125 
Q 30.40625 6.5 35.796875 10.90625 
z
M 15.203125 25.203125 
L 13.5 20.796875 
Q 24.703125 23.5 29.59375 28.203125 
Q 34.59375 33 34.59375 37.90625 
Q 34.59375 41.796875 31.09375 41.796875 
Q 26.90625 41.796875 22.34375 36.9375 
Q 17.796875 32.09375 15.203125 25.203125 
z
" id="STIXGeneral-Italic-101"/>
      <path d="M 47.40625 13.703125 
L 42 0 
L 2.90625 0 
L 2.90625 1.203125 
L 20.703125 20.09375 
Q 27.703125 27.40625 30.703125 33.5 
Q 33.703125 39.59375 33.703125 46.09375 
Q 33.703125 52.796875 30 56.5 
Q 26.296875 60.203125 19.796875 60.203125 
Q 14.40625 60.203125 11.25 57.390625 
Q 8.09375 54.59375 5.09375 47.203125 
L 3 47.703125 
Q 4.703125 57 9.84375 62.296875 
Q 15 67.59375 23.796875 67.59375 
Q 32.09375 67.59375 37.1875 62.59375 
Q 42.296875 57.59375 42.296875 50 
Q 42.296875 38.703125 29.5 25.203125 
L 13 7.59375 
L 36.40625 7.59375 
Q 39.703125 7.59375 41.640625 8.890625 
Q 43.59375 10.203125 46 14.296875 
z
" id="STIXGeneral-Regular-50"/>
     </defs>
     <g transform="translate(364.988497 36.1232)scale(0.15827 -0.15827)">
      <use transform="translate(0 0.409375)" xlink:href="#STIXGeneral-Italic-82"/>
      <use transform="translate(61.099991 0.409375)" xlink:href="#STIXGeneral-Italic-101"/>
      <use transform="translate(119.939981 0.409375)" xlink:href="#STIXGeneral-Regular-61"/>
      <use transform="translate(202.879962 0.409375)" xlink:href="#STIXGeneral-Regular-49"/>
      <use transform="translate(252.879947 0.409375)" xlink:href="#STIXGeneral-Regular-48"/>
      <use transform="translate(304.423213 35.684375)scale(0.7)" xlink:href="#STIXGeneral-Regular-50"/>
     </g>
    </g>
    <g id="line2d_35">
     <path d="M 451.087377 30.58375 
L 482.741377 30.58375 
" style="fill:none;stroke:#ff7f0e;stroke-linecap:square;stroke-width:2;"/>
    </g>
    <g id="line2d_36"/>
    <g id="text_8">
     <!-- $Re = 10^3$ -->
     <defs>
      <path d="M 6.09375 51 
L 4.5 51.40625 
Q 6.796875 58.90625 11.6875 63.25 
Q 16.59375 67.59375 24.09375 67.59375 
Q 31.09375 67.59375 35.390625 63.796875 
Q 39.703125 60 39.703125 53.90625 
Q 39.703125 45.703125 30.40625 40.09375 
Q 35.90625 37.703125 38.703125 34.796875 
Q 43.09375 29.90625 43.09375 21.90625 
Q 43.09375 13.90625 38.5 7.90625 
Q 35.09375 3.296875 28.75 0.9375 
Q 22.40625 -1.40625 15.296875 -1.40625 
Q 4.09375 -1.40625 4.09375 4.296875 
Q 4.09375 5.90625 5.296875 6.90625 
Q 6.5 7.90625 8.203125 7.90625 
Q 10.703125 7.90625 14.296875 5.296875 
Q 18.703125 2.203125 22.90625 2.203125 
Q 28.40625 2.203125 32.15625 6.640625 
Q 35.90625 11.09375 35.90625 17.5 
Q 35.90625 29 25.5 32 
Q 22.40625 33 15.296875 33 
L 15.296875 34.40625 
Q 20.90625 36.296875 23.703125 38 
Q 31.796875 42.59375 31.796875 51.40625 
Q 31.796875 56.40625 28.9375 59 
Q 26.09375 61.59375 21 61.59375 
Q 12 61.59375 6.09375 51 
z
" id="STIXGeneral-Regular-51"/>
     </defs>
     <g transform="translate(495.402977 36.1232)scale(0.15827 -0.15827)">
      <use transform="translate(0 0.409375)" xlink:href="#STIXGeneral-Italic-82"/>
      <use transform="translate(61.099991 0.409375)" xlink:href="#STIXGeneral-Italic-101"/>
      <use transform="translate(119.939981 0.409375)" xlink:href="#STIXGeneral-Regular-61"/>
      <use transform="translate(202.879962 0.409375)" xlink:href="#STIXGeneral-Regular-49"/>
      <use transform="translate(252.879947 0.409375)" xlink:href="#STIXGeneral-Regular-48"/>
      <use transform="translate(304.423213 35.684375)scale(0.7)" xlink:href="#STIXGeneral-Regular-51"/>
     </g>
    </g>
   </g>
  </g>
  <g id="axes_3">
   <g id="patch_12">
    <path d="M 86.4 270 
L 412.437736 270 
L 412.437736 162 
L 86.4 162 
z
" style="fill:#ffffff;"/>
   </g>
   <g id="matplotlib.axis_5">
    <g id="xtick_13">
     <g id="line2d_37">
      <g>
       <use style="fill:#ffffff;stroke:#000000;stroke-width:0.8;" x="86.4" xlink:href="#m72d5aa68b2" y="270"/>
      </g>
     </g>
    </g>
    <g id="xtick_14">
     <g id="line2d_38">
      <g>
       <use style="fill:#ffffff;stroke:#000000;stroke-width:0.8;" x="151.607547" xlink:href="#m72d5aa68b2" y="270"/>
      </g>
     </g>
    </g>
    <g id="xtick_15">
     <g id="line2d_39">
      <g>
       <use style="fill:#ffffff;stroke:#000000;stroke-width:0.8;" x="216.815094" xlink:href="#m72d5aa68b2" y="270"/>
      </g>
     </g>
    </g>
    <g id="xtick_16">
     <g id="line2d_40">
      <g>
       <use style="fill:#ffffff;stroke:#000000;stroke-width:0.8;" x="282.022642" xlink:href="#m72d5aa68b2" y="270"/>
      </g>
     </g>
    </g>
    <g id="xtick_17">
     <g id="line2d_41">
      <g>
       <use style="fill:#ffffff;stroke:#000000;stroke-width:0.8;" x="347.230189" xlink:href="#m72d5aa68b2" y="270"/>
      </g>
     </g>
    </g>
    <g id="xtick_18">
     <g id="line2d_42">
      <g>
       <use style="fill:#ffffff;stroke:#000000;stroke-width:0.8;" x="412.437736" xlink:href="#m72d5aa68b2" y="270"/>
      </g>
     </g>
    </g>
   </g>
   <g id="matplotlib.axis_6">
    <g id="ytick_7">
     <g id="line2d_43">
      <g>
       <use style="fill:#ffffff;stroke:#000000;stroke-width:0.8;" x="86.4" xlink:href="#m1525286007" y="252"/>
      </g>
     </g>
     <g id="text_9">
      <!-- −1 -->
      <g transform="translate(56.885 258.488203)scale(0.19 -0.19)">
       <use xlink:href="#STIXGeneral-Regular-8722"/>
       <use x="68.499985" xlink:href="#STIXGeneral-Regular-49"/>
      </g>
     </g>
    </g>
    <g id="ytick_8">
     <g id="line2d_44">
      <g>
       <use style="fill:#ffffff;stroke:#000000;stroke-width:0.8;" x="86.4" xlink:href="#m1525286007" y="216"/>
      </g>
     </g>
     <g id="text_10">
      <!-- 0 -->
      <g transform="translate(69.9 222.488203)scale(0.19 -0.19)">
       <use xlink:href="#STIXGeneral-Regular-48"/>
      </g>
     </g>
    </g>
    <g id="ytick_9">
     <g id="line2d_45">
      <g>
       <use style="fill:#ffffff;stroke:#000000;stroke-width:0.8;" x="86.4" xlink:href="#m1525286007" y="180"/>
      </g>
     </g>
     <g id="text_11">
      <!-- 1 -->
      <g transform="translate(69.9 186.488203)scale(0.19 -0.19)">
       <use xlink:href="#STIXGeneral-Regular-49"/>
      </g>
     </g>
    </g>
    <g id="text_12">
     <!-- $C_l$ -->
     <g transform="translate(48.761406 224.645)rotate(-90)scale(0.19 -0.19)">
      <use transform="translate(0 0.40625)" xlink:href="#STIXGeneral-Italic-67"/>
      <use transform="translate(66.699997 -12.821875)scale(0.7)" xlink:href="#STIXGeneral-Italic-108"/>
     </g>
    </g>
   </g>
   <g id="line2d_46">
    <path clip-path="url(#p60dd87ac3e)" d="M 86.073962 210.143093 
L 87.052075 208.674275 
L 88.356226 207.238198 
L 89.986415 205.887319 
L 91.616604 204.778406 
L 94.550943 203.105587 
L 96.833208 201.957289 
L 101.071698 200.124045 
L 110.200755 197.249031 
L 113.78717 196.434008 
L 118.677736 195.568581 
L 123.568302 194.976701 
L 128.458868 194.605308 
L 133.675472 194.428665 
L 139.544151 194.460549 
L 146.716981 194.780888 
L 153.563774 195.328817 
L 161.062642 196.14398 
L 170.517736 197.414256 
L 181.929057 199.186866 
L 199.861132 202.23972 
L 223.987925 206.306835 
L 238.659623 208.563241 
L 253.331321 210.568688 
L 266.046792 212.110218 
L 280.392453 213.626392 
L 294.738113 214.919502 
L 309.735849 216.053589 
L 326.363774 217.089397 
L 344.621887 218.001369 
L 365.488302 218.797725 
L 388.636981 219.449828 
L 412.763774 219.926542 
L 412.763774 219.926542 
" style="fill:none;stroke:#1f77b4;stroke-linecap:square;stroke-width:2;"/>
   </g>
   <g id="line2d_47">
    <path clip-path="url(#p60dd87ac3e)" d="M 86.073962 193.259716 
L 87.378113 191.210073 
L 88.682264 189.632826 
L 91.942642 186.645659 
L 94.876981 184.435728 
L 98.789434 182.118003 
L 101.071698 181.061693 
L 104.984151 179.901065 
L 106.940377 179.606463 
L 108.896604 179.471957 
L 111.504906 179.584409 
L 113.78717 179.932467 
L 116.395472 180.572371 
L 118.351698 181.221454 
L 123.242264 183.386223 
L 125.524528 184.614932 
L 130.415094 187.628649 
L 134.001509 190.131489 
L 139.218113 194.061491 
L 148.673208 201.178539 
L 153.889811 204.547886 
L 158.128302 206.869839 
L 162.040755 208.719908 
L 168.561509 211.41504 
L 175.408302 214.074492 
L 189.427925 219.231313 
L 194.970566 220.786158 
L 199.535094 221.898303 
L 206.707925 223.310394 
L 211.924528 224.103934 
L 219.097358 224.930514 
L 225.944151 225.450382 
L 234.421132 225.755839 
L 252.02717 225.566983 
L 275.827925 224.243618 
L 289.195472 223.335939 
L 299.302642 222.694769 
L 314.626415 221.862829 
L 334.514717 221.11029 
L 339.731321 220.972374 
L 356.033208 220.641925 
L 394.179623 220.155448 
L 412.763774 219.891984 
L 412.763774 219.891984 
" style="fill:none;stroke:#ff7f0e;stroke-linecap:square;stroke-width:2;"/>
   </g>
   <g id="line2d_48">
    <path clip-path="url(#p60dd87ac3e)" d="M 86.4 216 
L 412.437736 216 
" style="fill:none;stroke:#000000;stroke-dasharray:3.2,0.8,0.5,0.8;stroke-dashoffset:0;stroke-width:0.5;"/>
   </g>
   <g id="line2d_49">
    <path clip-path="url(#p60dd87ac3e)" d="M 86.4 270 
L 86.4 162 
" style="fill:none;stroke:#000000;stroke-linecap:square;stroke-width:0.5;"/>
   </g>
   <g id="line2d_50">
    <path clip-path="url(#p60dd87ac3e)" d="M 151.607547 270 
L 151.607547 162 
" style="fill:none;stroke:#000000;stroke-dasharray:6.4,1.6,1,1.6;stroke-dashoffset:0;stroke-opacity:0.25;"/>
   </g>
   <g id="line2d_51">
    <path clip-path="url(#p60dd87ac3e)" d="M 216.815094 270 
L 216.815094 162 
" style="fill:none;stroke:#000000;stroke-dasharray:6.4,1.6,1,1.6;stroke-dashoffset:0;stroke-opacity:0.25;"/>
   </g>
   <g id="line2d_52">
    <path clip-path="url(#p60dd87ac3e)" d="M 282.022642 270 
L 282.022642 162 
" style="fill:none;stroke:#000000;stroke-dasharray:6.4,1.6,1,1.6;stroke-dashoffset:0;stroke-opacity:0.25;"/>
   </g>
   <g id="patch_13">
    <path d="M 86.4 270 
L 86.4 162 
" style="fill:none;stroke:#000000;stroke-linecap:square;stroke-linejoin:miter;stroke-width:0.8;"/>
   </g>
   <g id="patch_14">
    <path d="M 412.437736 270 
L 412.437736 162 
" style="fill:none;stroke:#000000;stroke-linecap:square;stroke-linejoin:miter;stroke-width:0.8;"/>
   </g>
   <g id="patch_15">
    <path d="M 86.4 270 
L 412.437736 270 
" style="fill:none;stroke:#000000;stroke-linecap:square;stroke-linejoin:miter;stroke-width:0.8;"/>
   </g>
   <g id="patch_16">
    <path d="M 86.4 162 
L 412.437736 162 
" style="fill:none;stroke:#000000;stroke-linecap:square;stroke-linejoin:miter;stroke-width:0.8;"/>
   </g>
  </g>
  <g id="axes_4">
   <g id="patch_17">
    <path d="M 451.562264 270 
L 777.6 270 
L 777.6 162 
L 451.562264 162 
z
" style="fill:#ffffff;"/>
   </g>
   <g id="matplotlib.axis_7">
    <g id="xtick_19">
     <g id="line2d_53">
      <g>
       <use style="fill:#ffffff;stroke:#000000;stroke-width:0.8;" x="451.562264" xlink:href="#m72d5aa68b2" y="270"/>
      </g>
     </g>
    </g>
    <g id="xtick_20">
     <g id="line2d_54">
      <g>
       <use style="fill:#ffffff;stroke:#000000;stroke-width:0.8;" x="516.769811" xlink:href="#m72d5aa68b2" y="270"/>
      </g>
     </g>
    </g>
    <g id="xtick_21">
     <g id="line2d_55">
      <g>
       <use style="fill:#ffffff;stroke:#000000;stroke-width:0.8;" x="581.977358" xlink:href="#m72d5aa68b2" y="270"/>
      </g>
     </g>
    </g>
    <g id="xtick_22">
     <g id="line2d_56">
      <g>
       <use style="fill:#ffffff;stroke:#000000;stroke-width:0.8;" x="647.184906" xlink:href="#m72d5aa68b2" y="270"/>
      </g>
     </g>
    </g>
    <g id="xtick_23">
     <g id="line2d_57">
      <g>
       <use style="fill:#ffffff;stroke:#000000;stroke-width:0.8;" x="712.392453" xlink:href="#m72d5aa68b2" y="270"/>
      </g>
     </g>
    </g>
    <g id="xtick_24">
     <g id="line2d_58">
      <g>
       <use style="fill:#ffffff;stroke:#000000;stroke-width:0.8;" x="777.6" xlink:href="#m72d5aa68b2" y="270"/>
      </g>
     </g>
    </g>
   </g>
   <g id="matplotlib.axis_8">
    <g id="ytick_10">
     <g id="line2d_59">
      <g>
       <use style="fill:#ffffff;stroke:#000000;stroke-width:0.8;" x="451.562264" xlink:href="#m1525286007" y="252"/>
      </g>
     </g>
    </g>
    <g id="ytick_11">
     <g id="line2d_60">
      <g>
       <use style="fill:#ffffff;stroke:#000000;stroke-width:0.8;" x="451.562264" xlink:href="#m1525286007" y="216"/>
      </g>
     </g>
    </g>
    <g id="ytick_12">
     <g id="line2d_61">
      <g>
       <use style="fill:#ffffff;stroke:#000000;stroke-width:0.8;" x="451.562264" xlink:href="#m1525286007" y="180"/>
      </g>
     </g>
    </g>
    <g id="text_13">
     <!-- $C_d$ -->
     <g transform="translate(436.43867 226.165)rotate(-90)scale(0.19 -0.19)">
      <use transform="translate(0 0.40625)" xlink:href="#STIXGeneral-Italic-67"/>
      <use transform="translate(66.699997 -12.821875)scale(0.7)" xlink:href="#STIXGeneral-Italic-100"/>
     </g>
    </g>
   </g>
   <g id="line2d_62">
    <path clip-path="url(#p62296f6b84)" d="M 451.236226 228.904065 
L 452.21434 227.042928 
L 453.518491 225.181546 
L 455.148679 223.420229 
L 456.778868 221.995332 
L 459.38717 220.112158 
L 462.973585 217.990562 
L 467.538113 215.820568 
L 473.73283 213.599948 
L 477.645283 212.513618 
L 481.557736 211.64721 
L 488.078491 210.605656 
L 493.621132 210.04934 
L 498.837736 209.756868 
L 504.706415 209.651005 
L 512.205283 209.805197 
L 519.378113 210.193898 
L 527.855094 210.863823 
L 538.940377 211.968095 
L 576.434717 216.087437 
L 591.432453 217.481134 
L 605.778113 218.587305 
L 619.797736 219.436561 
L 636.099623 220.174625 
L 653.379623 220.710604 
L 672.289811 221.063927 
L 695.438491 221.260383 
L 725.107925 221.273877 
L 768.470943 221.05893 
L 777.926038 220.991916 
L 777.926038 220.991916 
" style="fill:none;stroke:#1f77b4;stroke-linecap:square;stroke-width:2;"/>
   </g>
   <g id="line2d_63">
    <path clip-path="url(#p62296f6b84)" d="M 451.236226 199.908554 
L 452.540377 197.762186 
L 453.844528 196.118822 
L 457.104906 193.034485 
L 460.039245 190.768804 
L 463.62566 188.565157 
L 466.233962 187.331167 
L 469.820377 186.275765 
L 471.776604 186.004745 
L 473.73283 185.915704 
L 475.689057 186.066695 
L 477.319245 186.30517 
L 479.927547 186.983211 
L 481.883774 187.658585 
L 484.492075 188.815544 
L 488.078491 190.765315 
L 491.338868 192.803654 
L 498.837736 198.249576 
L 502.424151 201.054292 
L 506.988679 204.681222 
L 511.879245 208.274309 
L 514.487547 209.999982 
L 517.747925 211.882613 
L 520.356226 213.161545 
L 524.920755 214.955526 
L 531.767547 216.915981 
L 537.310189 218.284679 
L 555.89434 222.898746 
L 565.023396 224.363242 
L 571.218113 225.075017 
L 579.695094 225.711652 
L 587.846038 226.007594 
L 593.388679 226.051796 
L 602.843774 225.867426 
L 608.712453 225.643843 
L 627.622642 224.472388 
L 632.839245 224.066441 
L 639.686038 223.549134 
L 646.858868 223.005744 
L 663.160755 221.874389 
L 684.02717 220.796509 
L 686.961509 220.68953 
L 700.003019 220.305726 
L 715.326792 220.005768 
L 723.477736 219.911802 
L 777.926038 219.389315 
L 777.926038 219.389315 
" style="fill:none;stroke:#ff7f0e;stroke-linecap:square;stroke-width:2;"/>
   </g>
   <g id="line2d_64">
    <path clip-path="url(#p62296f6b84)" d="M 451.562264 216 
L 777.6 216 
" style="fill:none;stroke:#000000;stroke-dasharray:3.2,0.8,0.5,0.8;stroke-dashoffset:0;stroke-width:0.5;"/>
   </g>
   <g id="line2d_65">
    <path clip-path="url(#p62296f6b84)" d="M 451.562264 270 
L 451.562264 162 
" style="fill:none;stroke:#000000;stroke-linecap:square;stroke-width:0.5;"/>
   </g>
   <g id="line2d_66">
    <path clip-path="url(#p62296f6b84)" d="M 516.769811 270 
L 516.769811 162 
" style="fill:none;stroke:#000000;stroke-dasharray:6.4,1.6,1,1.6;stroke-dashoffset:0;stroke-opacity:0.25;"/>
   </g>
   <g id="line2d_67">
    <path clip-path="url(#p62296f6b84)" d="M 581.977358 270 
L 581.977358 162 
" style="fill:none;stroke:#000000;stroke-dasharray:6.4,1.6,1,1.6;stroke-dashoffset:0;stroke-opacity:0.25;"/>
   </g>
   <g id="line2d_68">
    <path clip-path="url(#p62296f6b84)" d="M 647.184906 270 
L 647.184906 162 
" style="fill:none;stroke:#000000;stroke-dasharray:6.4,1.6,1,1.6;stroke-dashoffset:0;stroke-opacity:0.25;"/>
   </g>
   <g id="patch_18">
    <path d="M 451.562264 270 
L 451.562264 162 
" style="fill:none;stroke:#000000;stroke-linecap:square;stroke-linejoin:miter;stroke-width:0.8;"/>
   </g>
   <g id="patch_19">
    <path d="M 777.6 270 
L 777.6 162 
" style="fill:none;stroke:#000000;stroke-linecap:square;stroke-linejoin:miter;stroke-width:0.8;"/>
   </g>
   <g id="patch_20">
    <path d="M 451.562264 270 
L 777.6 270 
" style="fill:none;stroke:#000000;stroke-linecap:square;stroke-linejoin:miter;stroke-width:0.8;"/>
   </g>
   <g id="patch_21">
    <path d="M 451.562264 162 
L 777.6 162 
" style="fill:none;stroke:#000000;stroke-linecap:square;stroke-linejoin:miter;stroke-width:0.8;"/>
   </g>
   <g id="text_14">
    <!-- $s/c = 3.0$ -->
    <g transform="translate(788.254906 220.426406)scale(0.19 -0.19)">
     <use transform="translate(0 0.40625)" xlink:href="#STIXGeneral-Italic-115"/>
     <use transform="translate(38.899994 0.40625)" xlink:href="#STIXGeneral-Regular-47"/>
     <use transform="translate(66.699982 0.40625)" xlink:href="#STIXGeneral-Italic-99"/>
     <use transform="translate(125.539972 0.40625)" xlink:href="#STIXGeneral-Regular-61"/>
     <use transform="translate(208.479953 0.40625)" xlink:href="#STIXGeneral-Regular-51"/>
     <use transform="translate(258.479938 0.40625)" xlink:href="#STIXGeneral-Regular-46"/>
     <use transform="translate(283.479922 0.40625)" xlink:href="#STIXGeneral-Regular-48"/>
    </g>
   </g>
  </g>
  <g id="axes_5">
   <g id="patch_22">
    <path d="M 86.4 388.8 
L 412.437736 388.8 
L 412.437736 280.8 
L 86.4 280.8 
z
" style="fill:#ffffff;"/>
   </g>
   <g id="matplotlib.axis_9">
    <g id="xtick_25">
     <g id="line2d_69">
      <g>
       <use style="fill:#ffffff;stroke:#000000;stroke-width:0.8;" x="86.4" xlink:href="#m72d5aa68b2" y="388.8"/>
      </g>
     </g>
     <g id="text_15">
      <!-- 1.0 -->
      <g transform="translate(74.525 408.776406)scale(0.19 -0.19)">
       <use xlink:href="#STIXGeneral-Regular-49"/>
       <use x="49.999985" xlink:href="#STIXGeneral-Regular-46"/>
       <use x="74.999969" xlink:href="#STIXGeneral-Regular-48"/>
      </g>
     </g>
    </g>
    <g id="xtick_26">
     <g id="line2d_70">
      <g>
       <use style="fill:#ffffff;stroke:#000000;stroke-width:0.8;" x="151.607547" xlink:href="#m72d5aa68b2" y="388.8"/>
      </g>
     </g>
     <g id="text_16">
      <!-- 1.2 -->
      <g transform="translate(139.732547 408.776406)scale(0.19 -0.19)">
       <use xlink:href="#STIXGeneral-Regular-49"/>
       <use x="49.999985" xlink:href="#STIXGeneral-Regular-46"/>
       <use x="74.999969" xlink:href="#STIXGeneral-Regular-50"/>
      </g>
     </g>
    </g>
    <g id="xtick_27">
     <g id="line2d_71">
      <g>
       <use style="fill:#ffffff;stroke:#000000;stroke-width:0.8;" x="216.815094" xlink:href="#m72d5aa68b2" y="388.8"/>
      </g>
     </g>
     <g id="text_17">
      <!-- 1.4 -->
      <defs>
       <path d="M 47.296875 16.703125 
L 37 16.703125 
L 37 0 
L 29.203125 0 
L 29.203125 16.703125 
L 1.203125 16.703125 
L 1.203125 23.09375 
L 32.59375 67.59375 
L 37 67.59375 
L 37 23.09375 
L 47.296875 23.09375 
z
M 29.203125 23.09375 
L 29.203125 57.40625 
L 5.203125 23.09375 
z
" id="STIXGeneral-Regular-52"/>
      </defs>
      <g transform="translate(204.940094 408.776406)scale(0.19 -0.19)">
       <use xlink:href="#STIXGeneral-Regular-49"/>
       <use x="49.999985" xlink:href="#STIXGeneral-Regular-46"/>
       <use x="74.999969" xlink:href="#STIXGeneral-Regular-52"/>
      </g>
     </g>
    </g>
    <g id="xtick_28">
     <g id="line2d_72">
      <g>
       <use style="fill:#ffffff;stroke:#000000;stroke-width:0.8;" x="282.022642" xlink:href="#m72d5aa68b2" y="388.8"/>
      </g>
     </g>
     <g id="text_18">
      <!-- 1.6 -->
      <defs>
       <path d="M 44.59375 68.40625 
L 44.796875 66.796875 
Q 33 64.90625 25.09375 57.25 
Q 17.203125 49.59375 15.203125 38.296875 
Q 21 42.796875 27.90625 42.796875 
Q 36.703125 42.796875 41.75 37.1875 
Q 46.796875 31.59375 46.796875 21.90625 
Q 46.796875 12.09375 41.703125 5.90625 
Q 35.796875 -1.40625 25.796875 -1.40625 
Q 13.59375 -1.40625 8.09375 8.703125 
Q 3.40625 17.296875 3.40625 27.90625 
Q 3.40625 44.296875 14.296875 55.5 
Q 20.5 61.90625 27.046875 64.546875 
Q 33.59375 67.203125 44.59375 68.40625 
z
M 37.796875 18.796875 
Q 37.796875 38.203125 24.296875 38.203125 
Q 19.296875 38.203125 16 35.546875 
Q 12.703125 32.90625 12.703125 26.59375 
Q 12.703125 14.90625 16.34375 8.15625 
Q 20 1.40625 26.90625 1.40625 
Q 32.203125 1.40625 35 6.15625 
Q 37.796875 10.90625 37.796875 18.796875 
z
" id="STIXGeneral-Regular-54"/>
      </defs>
      <g transform="translate(270.147642 408.776406)scale(0.19 -0.19)">
       <use xlink:href="#STIXGeneral-Regular-49"/>
       <use x="49.999985" xlink:href="#STIXGeneral-Regular-46"/>
       <use x="74.999969" xlink:href="#STIXGeneral-Regular-54"/>
      </g>
     </g>
    </g>
    <g id="xtick_29">
     <g id="line2d_73">
      <g>
       <use style="fill:#ffffff;stroke:#000000;stroke-width:0.8;" x="347.230189" xlink:href="#m72d5aa68b2" y="388.8"/>
      </g>
     </g>
     <g id="text_19">
      <!-- 1.8 -->
      <defs>
       <path d="M 44.5 15.5 
Q 44.5 7.796875 39.140625 3.1875 
Q 33.796875 -1.40625 24.796875 -1.40625 
Q 16.40625 -1.40625 11 3.1875 
Q 5.59375 7.796875 5.59375 14.90625 
Q 5.59375 20.203125 8.1875 23.953125 
Q 10.796875 27.703125 18.59375 33.203125 
Q 11.09375 39.40625 8.640625 43.203125 
Q 6.203125 47 6.203125 52 
Q 6.203125 59.09375 11.640625 63.34375 
Q 17.09375 67.59375 25.59375 67.59375 
Q 32.90625 67.59375 37.65625 63.4375 
Q 42.40625 59.296875 42.40625 53.296875 
Q 42.40625 47.796875 39.546875 44.5 
Q 36.703125 41.203125 29 37.09375 
Q 38 31.09375 41.25 26.390625 
Q 44.5 21.703125 44.5 15.5 
z
M 35.5 53.296875 
Q 35.5 58.5 32.59375 61.640625 
Q 29.703125 64.796875 24.59375 64.796875 
Q 19.5 64.796875 16.546875 62.140625 
Q 13.59375 59.5 13.59375 54.890625 
Q 13.59375 50.296875 16.546875 46.546875 
Q 19.5 42.796875 26.09375 38.90625 
Q 31.203125 41.90625 33.34375 45.25 
Q 35.5 48.59375 35.5 53.296875 
z
M 27.09375 27.203125 
L 21.203125 31.203125 
Q 16.796875 27.59375 15 24.140625 
Q 13.203125 20.703125 13.203125 15.796875 
Q 13.203125 9 16.640625 5.203125 
Q 20.09375 1.40625 25.90625 1.40625 
Q 30.796875 1.40625 33.84375 4.453125 
Q 36.90625 7.5 36.90625 12.40625 
Q 36.90625 16.90625 34.59375 20.296875 
Q 32.296875 23.703125 27.09375 27.203125 
z
" id="STIXGeneral-Regular-56"/>
      </defs>
      <g transform="translate(335.355189 408.776406)scale(0.19 -0.19)">
       <use xlink:href="#STIXGeneral-Regular-49"/>
       <use x="49.999985" xlink:href="#STIXGeneral-Regular-46"/>
       <use x="74.999969" xlink:href="#STIXGeneral-Regular-56"/>
      </g>
     </g>
    </g>
    <g id="xtick_30">
     <g id="line2d_74">
      <g>
       <use style="fill:#ffffff;stroke:#000000;stroke-width:0.8;" x="412.437736" xlink:href="#m72d5aa68b2" y="388.8"/>
      </g>
     </g>
     <g id="text_20">
      <!-- 2.0 -->
      <g transform="translate(400.562736 408.776406)scale(0.19 -0.19)">
       <use xlink:href="#STIXGeneral-Regular-50"/>
       <use x="49.999985" xlink:href="#STIXGeneral-Regular-46"/>
       <use x="74.999969" xlink:href="#STIXGeneral-Regular-48"/>
      </g>
     </g>
    </g>
    <g id="text_21">
     <!-- $\^t$ -->
     <defs>
      <path d="M -7.5 50.703125 
L -10.90625 50.703125 
L -23.09375 61 
L -35.203125 50.703125 
L -38.59375 50.703125 
L -26.203125 67.40625 
L -20 67.40625 
z
" id="STIXGeneral-Regular-770"/>
      <path d="M 29.59375 42.796875 
L 29.09375 39.59375 
L 20.703125 39.59375 
L 12 6.796875 
Q 11.796875 6 11.796875 5.40625 
Q 11.796875 3.796875 13.296875 3.796875 
Q 14.5 3.796875 16.09375 5.34375 
Q 17.703125 6.90625 21.40625 11.703125 
L 22.703125 11 
Q 18.09375 4 15.140625 1.453125 
Q 12.203125 -1.09375 8.40625 -1.09375 
Q 3.796875 -1.09375 3.796875 2.59375 
Q 3.796875 3.59375 5.40625 10 
L 13.203125 39.59375 
L 5.703125 39.59375 
L 5.59375 40.203125 
Q 5.59375 42 8.90625 42.703125 
Q 11.40625 43.296875 15.5 46.546875 
Q 19.59375 49.796875 22.203125 53.703125 
Q 22.796875 54.59375 23.59375 54.59375 
Q 24.5 54.59375 24.5 53.796875 
Q 24.5 53.296875 24.40625 53.09375 
L 21.59375 42.796875 
z
" id="STIXGeneral-Italic-116"/>
     </defs>
     <g transform="translate(246.758868 429.876406)scale(0.19 -0.19)">
      <use transform="translate(39.042969 16.59375)" xlink:href="#STIXGeneral-Regular-770"/>
      <use transform="translate(0 0.203125)" xlink:href="#STIXGeneral-Italic-116"/>
     </g>
    </g>
   </g>
   <g id="matplotlib.axis_10">
    <g id="ytick_13">
     <g id="line2d_75">
      <g>
       <use style="fill:#ffffff;stroke:#000000;stroke-width:0.8;" x="86.4" xlink:href="#m1525286007" y="370.8"/>
      </g>
     </g>
     <g id="text_22">
      <!-- −1 -->
      <g transform="translate(56.885 377.288203)scale(0.19 -0.19)">
       <use xlink:href="#STIXGeneral-Regular-8722"/>
       <use x="68.499985" xlink:href="#STIXGeneral-Regular-49"/>
      </g>
     </g>
    </g>
    <g id="ytick_14">
     <g id="line2d_76">
      <g>
       <use style="fill:#ffffff;stroke:#000000;stroke-width:0.8;" x="86.4" xlink:href="#m1525286007" y="334.8"/>
      </g>
     </g>
     <g id="text_23">
      <!-- 0 -->
      <g transform="translate(69.9 341.288203)scale(0.19 -0.19)">
       <use xlink:href="#STIXGeneral-Regular-48"/>
      </g>
     </g>
    </g>
    <g id="ytick_15">
     <g id="line2d_77">
      <g>
       <use style="fill:#ffffff;stroke:#000000;stroke-width:0.8;" x="86.4" xlink:href="#m1525286007" y="298.8"/>
      </g>
     </g>
     <g id="text_24">
      <!-- 1 -->
      <g transform="translate(69.9 305.288203)scale(0.19 -0.19)">
       <use xlink:href="#STIXGeneral-Regular-49"/>
      </g>
     </g>
    </g>
    <g id="text_25">
     <!-- $C_l$ -->
     <g transform="translate(48.761406 343.445)rotate(-90)scale(0.19 -0.19)">
      <use transform="translate(0 0.40625)" xlink:href="#STIXGeneral-Italic-67"/>
      <use transform="translate(66.699997 -12.821875)scale(0.7)" xlink:href="#STIXGeneral-Italic-108"/>
     </g>
    </g>
   </g>
   <g id="line2d_78">
    <path clip-path="url(#pba9602feef)" d="M 86.073962 344.929854 
L 87.052075 344.78888 
L 88.682264 344.876692 
L 90.964528 345.302924 
L 105.636226 348.522805 
L 110.526792 349.223817 
L 115.091321 349.644819 
L 119.655849 349.840913 
L 124.220377 349.827506 
L 129.436981 349.583588 
L 134.653585 349.144935 
L 140.848302 348.424525 
L 149.651321 347.171768 
L 164.649057 344.737968 
L 183.559245 341.732317 
L 195.948679 339.992341 
L 208.012075 338.518972 
L 220.401509 337.22693 
L 233.443019 336.085647 
L 247.462642 335.085695 
L 262.13434 334.255685 
L 278.436226 333.558305 
L 296.69434 333.008917 
L 316.582642 332.629371 
L 342.991698 332.373975 
L 376.573585 332.290685 
L 412.763774 332.325102 
L 412.763774 332.325102 
" style="fill:none;stroke:#1f77b4;stroke-linecap:square;stroke-width:2;"/>
   </g>
   <g id="line2d_79">
    <path clip-path="url(#pba9602feef)" d="M 86.073962 344.702995 
L 87.052075 344.692343 
L 89.008302 344.89176 
L 93.898868 345.438169 
L 96.50717 345.540782 
L 99.767547 345.406915 
L 101.723774 345.190636 
L 105.310189 344.498288 
L 109.548679 343.332818 
L 116.721509 340.809179 
L 126.176604 337.000904 
L 132.045283 334.255438 
L 135.957736 332.118791 
L 139.218113 330.09645 
L 142.478491 327.811951 
L 146.064906 324.9514 
L 149.325283 322.055384 
L 155.52 316.079256 
L 158.780377 313.070947 
L 160.736604 311.532579 
L 162.366792 310.524944 
L 163.670943 309.94177 
L 164.975094 309.581337 
L 166.279245 309.454408 
L 167.583396 309.563633 
L 168.887547 309.90186 
L 170.191698 310.469003 
L 171.495849 311.274134 
L 173.126038 312.592464 
L 174.756226 314.263918 
L 176.712453 316.650333 
L 182.255094 323.791902 
L 183.559245 324.93373 
L 184.537358 325.521844 
L 185.515472 325.840992 
L 186.493585 325.883517 
L 187.471698 325.676589 
L 188.449811 325.24583 
L 189.753962 324.386237 
L 191.710189 322.756467 
L 195.622642 319.436248 
L 197.25283 318.319679 
L 198.883019 317.437012 
L 200.839245 316.683254 
L 202.795472 316.206004 
L 204.751698 315.935775 
L 207.36 315.818281 
L 211.598491 315.92615 
L 219.423396 316.091106 
L 223.009811 315.850006 
L 226.596226 315.306196 
L 229.204528 314.775992 
L 234.421132 313.508327 
L 245.180377 310.855166 
L 249.744906 310.012926 
L 255.287547 309.26861 
L 261.482264 308.64266 
L 274.523774 307.263268 
L 280.718491 306.402327 
L 295.716226 304.283979 
L 301.910943 303.710396 
L 306.149434 303.457489 
L 312.344151 303.280292 
L 318.538868 303.299776 
L 325.38566 303.510819 
L 332.558491 303.930445 
L 339.731321 304.577791 
L 346.578113 305.433632 
L 351.142642 306.209971 
L 355.055094 307.097802 
L 358.641509 308.127926 
L 362.227925 309.37925 
L 365.81434 310.891084 
L 369.726792 312.800745 
L 373.965283 315.113352 
L 394.831698 327.025452 
L 401.678491 330.492686 
L 407.873208 333.234575 
L 412.437736 334.899072 
L 412.763774 335.002269 
L 412.763774 335.002269 
" style="fill:none;stroke:#ff7f0e;stroke-linecap:square;stroke-width:2;"/>
   </g>
   <g id="line2d_80">
    <path clip-path="url(#pba9602feef)" d="M 86.4 334.8 
L 412.437736 334.8 
" style="fill:none;stroke:#000000;stroke-dasharray:3.2,0.8,0.5,0.8;stroke-dashoffset:0;stroke-width:0.5;"/>
   </g>
   <g id="line2d_81">
    <path clip-path="url(#pba9602feef)" d="M 86.4 388.8 
L 86.4 280.8 
" style="fill:none;stroke:#000000;stroke-linecap:square;stroke-width:0.5;"/>
   </g>
   <g id="line2d_82">
    <path clip-path="url(#pba9602feef)" d="M 151.607547 388.8 
L 151.607547 280.8 
" style="fill:none;stroke:#000000;stroke-dasharray:6.4,1.6,1,1.6;stroke-dashoffset:0;stroke-opacity:0.25;"/>
   </g>
   <g id="line2d_83">
    <path clip-path="url(#pba9602feef)" d="M 216.815094 388.8 
L 216.815094 280.8 
" style="fill:none;stroke:#000000;stroke-dasharray:6.4,1.6,1,1.6;stroke-dashoffset:0;stroke-opacity:0.25;"/>
   </g>
   <g id="line2d_84">
    <path clip-path="url(#pba9602feef)" d="M 282.022642 388.8 
L 282.022642 280.8 
" style="fill:none;stroke:#000000;stroke-dasharray:6.4,1.6,1,1.6;stroke-dashoffset:0;stroke-opacity:0.25;"/>
   </g>
   <g id="patch_23">
    <path d="M 86.4 388.8 
L 86.4 280.8 
" style="fill:none;stroke:#000000;stroke-linecap:square;stroke-linejoin:miter;stroke-width:0.8;"/>
   </g>
   <g id="patch_24">
    <path d="M 412.437736 388.8 
L 412.437736 280.8 
" style="fill:none;stroke:#000000;stroke-linecap:square;stroke-linejoin:miter;stroke-width:0.8;"/>
   </g>
   <g id="patch_25">
    <path d="M 86.4 388.8 
L 412.437736 388.8 
" style="fill:none;stroke:#000000;stroke-linecap:square;stroke-linejoin:miter;stroke-width:0.8;"/>
   </g>
   <g id="patch_26">
    <path d="M 86.4 280.8 
L 412.437736 280.8 
" style="fill:none;stroke:#000000;stroke-linecap:square;stroke-linejoin:miter;stroke-width:0.8;"/>
   </g>
  </g>
  <g id="axes_6">
   <g id="patch_27">
    <path d="M 451.562264 388.8 
L 777.6 388.8 
L 777.6 280.8 
L 451.562264 280.8 
z
" style="fill:#ffffff;"/>
   </g>
   <g id="matplotlib.axis_11">
    <g id="xtick_31">
     <g id="line2d_85">
      <g>
       <use style="fill:#ffffff;stroke:#000000;stroke-width:0.8;" x="451.562264" xlink:href="#m72d5aa68b2" y="388.8"/>
      </g>
     </g>
     <g id="text_26">
      <!-- 1.0 -->
      <g transform="translate(439.687264 408.776406)scale(0.19 -0.19)">
       <use xlink:href="#STIXGeneral-Regular-49"/>
       <use x="49.999985" xlink:href="#STIXGeneral-Regular-46"/>
       <use x="74.999969" xlink:href="#STIXGeneral-Regular-48"/>
      </g>
     </g>
    </g>
    <g id="xtick_32">
     <g id="line2d_86">
      <g>
       <use style="fill:#ffffff;stroke:#000000;stroke-width:0.8;" x="516.769811" xlink:href="#m72d5aa68b2" y="388.8"/>
      </g>
     </g>
     <g id="text_27">
      <!-- 1.2 -->
      <g transform="translate(504.894811 408.776406)scale(0.19 -0.19)">
       <use xlink:href="#STIXGeneral-Regular-49"/>
       <use x="49.999985" xlink:href="#STIXGeneral-Regular-46"/>
       <use x="74.999969" xlink:href="#STIXGeneral-Regular-50"/>
      </g>
     </g>
    </g>
    <g id="xtick_33">
     <g id="line2d_87">
      <g>
       <use style="fill:#ffffff;stroke:#000000;stroke-width:0.8;" x="581.977358" xlink:href="#m72d5aa68b2" y="388.8"/>
      </g>
     </g>
     <g id="text_28">
      <!-- 1.4 -->
      <g transform="translate(570.102358 408.776406)scale(0.19 -0.19)">
       <use xlink:href="#STIXGeneral-Regular-49"/>
       <use x="49.999985" xlink:href="#STIXGeneral-Regular-46"/>
       <use x="74.999969" xlink:href="#STIXGeneral-Regular-52"/>
      </g>
     </g>
    </g>
    <g id="xtick_34">
     <g id="line2d_88">
      <g>
       <use style="fill:#ffffff;stroke:#000000;stroke-width:0.8;" x="647.184906" xlink:href="#m72d5aa68b2" y="388.8"/>
      </g>
     </g>
     <g id="text_29">
      <!-- 1.6 -->
      <g transform="translate(635.309906 408.776406)scale(0.19 -0.19)">
       <use xlink:href="#STIXGeneral-Regular-49"/>
       <use x="49.999985" xlink:href="#STIXGeneral-Regular-46"/>
       <use x="74.999969" xlink:href="#STIXGeneral-Regular-54"/>
      </g>
     </g>
    </g>
    <g id="xtick_35">
     <g id="line2d_89">
      <g>
       <use style="fill:#ffffff;stroke:#000000;stroke-width:0.8;" x="712.392453" xlink:href="#m72d5aa68b2" y="388.8"/>
      </g>
     </g>
     <g id="text_30">
      <!-- 1.8 -->
      <g transform="translate(700.517453 408.776406)scale(0.19 -0.19)">
       <use xlink:href="#STIXGeneral-Regular-49"/>
       <use x="49.999985" xlink:href="#STIXGeneral-Regular-46"/>
       <use x="74.999969" xlink:href="#STIXGeneral-Regular-56"/>
      </g>
     </g>
    </g>
    <g id="xtick_36">
     <g id="line2d_90">
      <g>
       <use style="fill:#ffffff;stroke:#000000;stroke-width:0.8;" x="777.6" xlink:href="#m72d5aa68b2" y="388.8"/>
      </g>
     </g>
     <g id="text_31">
      <!-- 2.0 -->
      <g transform="translate(765.725 408.776406)scale(0.19 -0.19)">
       <use xlink:href="#STIXGeneral-Regular-50"/>
       <use x="49.999985" xlink:href="#STIXGeneral-Regular-46"/>
       <use x="74.999969" xlink:href="#STIXGeneral-Regular-48"/>
      </g>
     </g>
    </g>
    <g id="text_32">
     <!-- $\^t$ -->
     <g transform="translate(611.921132 429.876406)scale(0.19 -0.19)">
      <use transform="translate(39.042969 16.59375)" xlink:href="#STIXGeneral-Regular-770"/>
      <use transform="translate(0 0.203125)" xlink:href="#STIXGeneral-Italic-116"/>
     </g>
    </g>
   </g>
   <g id="matplotlib.axis_12">
    <g id="ytick_16">
     <g id="line2d_91">
      <g>
       <use style="fill:#ffffff;stroke:#000000;stroke-width:0.8;" x="451.562264" xlink:href="#m1525286007" y="370.8"/>
      </g>
     </g>
    </g>
    <g id="ytick_17">
     <g id="line2d_92">
      <g>
       <use style="fill:#ffffff;stroke:#000000;stroke-width:0.8;" x="451.562264" xlink:href="#m1525286007" y="334.8"/>
      </g>
     </g>
    </g>
    <g id="ytick_18">
     <g id="line2d_93">
      <g>
       <use style="fill:#ffffff;stroke:#000000;stroke-width:0.8;" x="451.562264" xlink:href="#m1525286007" y="298.8"/>
      </g>
     </g>
    </g>
    <g id="text_33">
     <!-- $C_d$ -->
     <g transform="translate(436.43867 344.965)rotate(-90)scale(0.19 -0.19)">
      <use transform="translate(0 0.40625)" xlink:href="#STIXGeneral-Italic-67"/>
      <use transform="translate(66.699997 -12.821875)scale(0.7)" xlink:href="#STIXGeneral-Italic-100"/>
     </g>
    </g>
   </g>
   <g id="line2d_94">
    <path clip-path="url(#p23ec437da8)" d="M 451.236226 351.962619 
L 452.21434 351.332496 
L 453.518491 350.809134 
L 455.148679 350.447984 
L 457.756981 350.190393 
L 461.669434 350.090488 
L 468.842264 350.149705 
L 475.363019 350.139977 
L 481.231698 349.940641 
L 487.426415 349.496325 
L 493.621132 348.829148 
L 501.772075 347.681978 
L 512.205283 345.935209 
L 548.395472 339.669215 
L 560.13283 337.997787 
L 570.24 336.752085 
L 581.977358 335.520926 
L 594.040755 334.470536 
L 607.082264 333.564461 
L 621.101887 332.807351 
L 636.099623 332.222499 
L 652.075472 331.816095 
L 670.333585 331.5668 
L 692.830189 331.489891 
L 722.499623 331.634344 
L 761.950189 332.005684 
L 777.926038 332.17024 
L 777.926038 332.17024 
" style="fill:none;stroke:#1f77b4;stroke-linecap:square;stroke-width:2;"/>
   </g>
   <g id="line2d_95">
    <path clip-path="url(#p23ec437da8)" d="M 451.236226 342.583967 
L 452.21434 342.447299 
L 453.844528 342.422704 
L 459.061132 342.652843 
L 461.669434 342.632973 
L 465.255849 342.355706 
L 468.842264 341.732668 
L 471.450566 341.095422 
L 474.384906 340.226384 
L 478.297358 338.862033 
L 483.187925 337.017991 
L 496.555472 331.21547 
L 501.446038 328.622698 
L 505.032453 326.432596 
L 507.966792 324.408423 
L 511.553208 321.635563 
L 515.139623 318.537728 
L 519.052075 314.926501 
L 523.290566 311.057649 
L 525.57283 309.224027 
L 527.203019 308.157713 
L 528.833208 307.345216 
L 530.137358 306.91154 
L 531.441509 306.676401 
L 532.74566 306.641866 
L 534.049811 306.799081 
L 535.353962 307.14658 
L 536.984151 307.8524 
L 538.61434 308.835597 
L 540.570566 310.379993 
L 542.85283 312.535349 
L 546.439245 315.977957 
L 548.069434 317.159259 
L 549.373585 317.762693 
L 550.351698 317.987116 
L 551.329811 317.998037 
L 552.307925 317.816222 
L 553.612075 317.31154 
L 555.242264 316.355101 
L 561.763019 312.120022 
L 563.719245 311.280485 
L 565.349434 310.782096 
L 567.631698 310.366247 
L 570.24 310.161959 
L 573.500377 310.169992 
L 582.955472 310.45126 
L 586.541887 310.304287 
L 590.128302 309.896986 
L 594.040755 309.200142 
L 603.169811 307.163549 
L 608.712453 305.970911 
L 613.276981 305.176328 
L 619.14566 304.445135 
L 625.340377 303.923411 
L 644.576604 302.381304 
L 656.313962 301.377782 
L 661.204528 301.185682 
L 665.769057 301.211004 
L 670.333585 301.461155 
L 674.246038 301.843817 
L 679.788679 302.654795 
L 684.679245 303.605194 
L 690.547925 304.98067 
L 697.068679 306.742796 
L 717.935094 312.434369 
L 723.151698 313.883301 
L 727.716226 315.37095 
L 731.302642 316.743153 
L 735.86717 318.746126 
L 741.735849 321.662416 
L 754.451321 328.229602 
L 761.298113 331.469368 
L 766.840755 333.889582 
L 773.035472 336.219822 
L 777.6 337.571066 
L 777.926038 337.651587 
L 777.926038 337.651587 
" style="fill:none;stroke:#ff7f0e;stroke-linecap:square;stroke-width:2;"/>
   </g>
   <g id="line2d_96">
    <path clip-path="url(#p23ec437da8)" d="M 451.562264 334.8 
L 777.6 334.8 
" style="fill:none;stroke:#000000;stroke-dasharray:3.2,0.8,0.5,0.8;stroke-dashoffset:0;stroke-width:0.5;"/>
   </g>
   <g id="line2d_97">
    <path clip-path="url(#p23ec437da8)" d="M 451.562264 388.8 
L 451.562264 280.8 
" style="fill:none;stroke:#000000;stroke-linecap:square;stroke-width:0.5;"/>
   </g>
   <g id="line2d_98">
    <path clip-path="url(#p23ec437da8)" d="M 516.769811 388.8 
L 516.769811 280.8 
" style="fill:none;stroke:#000000;stroke-dasharray:6.4,1.6,1,1.6;stroke-dashoffset:0;stroke-opacity:0.25;"/>
   </g>
   <g id="line2d_99">
    <path clip-path="url(#p23ec437da8)" d="M 581.977358 388.8 
L 581.977358 280.8 
" style="fill:none;stroke:#000000;stroke-dasharray:6.4,1.6,1,1.6;stroke-dashoffset:0;stroke-opacity:0.25;"/>
   </g>
   <g id="line2d_100">
    <path clip-path="url(#p23ec437da8)" d="M 647.184906 388.8 
L 647.184906 280.8 
" style="fill:none;stroke:#000000;stroke-dasharray:6.4,1.6,1,1.6;stroke-dashoffset:0;stroke-opacity:0.25;"/>
   </g>
   <g id="patch_28">
    <path d="M 451.562264 388.8 
L 451.562264 280.8 
" style="fill:none;stroke:#000000;stroke-linecap:square;stroke-linejoin:miter;stroke-width:0.8;"/>
   </g>
   <g id="patch_29">
    <path d="M 777.6 388.8 
L 777.6 280.8 
" style="fill:none;stroke:#000000;stroke-linecap:square;stroke-linejoin:miter;stroke-width:0.8;"/>
   </g>
   <g id="patch_30">
    <path d="M 451.562264 388.8 
L 777.6 388.8 
" style="fill:none;stroke:#000000;stroke-linecap:square;stroke-linejoin:miter;stroke-width:0.8;"/>
   </g>
   <g id="patch_31">
    <path d="M 451.562264 280.8 
L 777.6 280.8 
" style="fill:none;stroke:#000000;stroke-linecap:square;stroke-linejoin:miter;stroke-width:0.8;"/>
   </g>
   <g id="text_34">
    <!-- $s/c = 6.0$ -->
    <g transform="translate(788.254906 339.226406)scale(0.19 -0.19)">
     <use transform="translate(0 0.59375)" xlink:href="#STIXGeneral-Italic-115"/>
     <use transform="translate(38.899994 0.59375)" xlink:href="#STIXGeneral-Regular-47"/>
     <use transform="translate(66.699982 0.59375)" xlink:href="#STIXGeneral-Italic-99"/>
     <use transform="translate(125.539972 0.59375)" xlink:href="#STIXGeneral-Regular-61"/>
     <use transform="translate(208.479953 0.59375)" xlink:href="#STIXGeneral-Regular-54"/>
     <use transform="translate(258.479938 0.59375)" xlink:href="#STIXGeneral-Regular-46"/>
     <use transform="translate(283.479922 0.59375)" xlink:href="#STIXGeneral-Regular-48"/>
    </g>
   </g>
  </g>
 </g>
 <defs>
  <clipPath id="pd3149ebd61">
   <rect height="108" width="326.037736" x="86.4" y="43.2"/>
  </clipPath>
  <clipPath id="pa8b19a5acd">
   <rect height="108" width="326.037736" x="451.562264" y="43.2"/>
  </clipPath>
  <clipPath id="p60dd87ac3e">
   <rect height="108" width="326.037736" x="86.4" y="162"/>
  </clipPath>
  <clipPath id="p62296f6b84">
   <rect height="108" width="326.037736" x="451.562264" y="162"/>
  </clipPath>
  <clipPath id="pba9602feef">
   <rect height="108" width="326.037736" x="86.4" y="280.8"/>
  </clipPath>
  <clipPath id="p23ec437da8">
   <rect height="108" width="326.037736" x="451.562264" y="280.8"/>
  </clipPath>
 </defs>
</svg>
