<?xml version="1.0" encoding="utf-8" standalone="no"?>
<!DOCTYPE svg PUBLIC "-//W3C//DTD SVG 1.1//EN"
  "http://www.w3.org/Graphics/SVG/1.1/DTD/svg11.dtd">
<!-- Created with matplotlib (https://matplotlib.org/) -->
<svg height="360pt" version="1.1" viewBox="0 0 1008 360" width="1008pt" xmlns="http://www.w3.org/2000/svg" xmlns:xlink="http://www.w3.org/1999/xlink">
 <metadata>
  <rdf:RDF xmlns:cc="http://creativecommons.org/ns#" xmlns:dc="http://purl.org/dc/elements/1.1/" xmlns:rdf="http://www.w3.org/1999/02/22-rdf-syntax-ns#">
   <cc:Work>
    <dc:type rdf:resource="http://purl.org/dc/dcmitype/StillImage"/>
    <dc:date>2022-01-21T14:25:53.791827</dc:date>
    <dc:format>image/svg+xml</dc:format>
    <dc:creator>
     <cc:Agent>
      <dc:title>Matplotlib v3.3.4, https://matplotlib.org/</dc:title>
     </cc:Agent>
    </dc:creator>
   </cc:Work>
  </rdf:RDF>
 </metadata>
 <defs>
  <style type="text/css">*{stroke-linecap:butt;stroke-linejoin:round;}</style>
 </defs>
 <g id="figure_1">
  <g id="patch_1">
   <path d="M 0 360 
L 1008 360 
L 1008 0 
L 0 0 
z
" style="fill:#ffffff;"/>
  </g>
  <g id="axes_1">
   <g id="patch_2">
    <path d="M 252 288 
L 406 288 
L 406 36 
L 252 36 
z
" style="fill:#ffffff;"/>
   </g>
   <g id="matplotlib.axis_1">
    <g id="xtick_1">
     <g id="line2d_1">
      <defs>
       <path d="M 0 0 
L 0 3.5 
" id="meb07c32843" style="stroke:#000000;stroke-width:0.8;"/>
      </defs>
      <g>
       <use style="stroke:#000000;stroke-width:0.8;" x="277.666667" xlink:href="#meb07c32843" y="288"/>
      </g>
     </g>
     <g id="text_1">
      <!-- 0.4 -->
      <g transform="translate(267.666667 305.9275)scale(0.16 -0.16)">
       <defs>
        <path d="M 47.59375 33 
Q 47.59375 26.296875 46.296875 20.34375 
Q 45 14.40625 42.453125 9.40625 
Q 39.90625 4.40625 35.40625 1.5 
Q 30.90625 -1.40625 25 -1.40625 
Q 18.90625 -1.40625 14.296875 1.6875 
Q 9.703125 4.796875 7.203125 10 
Q 4.703125 15.203125 3.546875 21.09375 
Q 2.40625 27 2.40625 33.59375 
Q 2.40625 42.90625 4.703125 50.34375 
Q 7 57.796875 12.34375 62.6875 
Q 17.703125 67.59375 25.40625 67.59375 
Q 35.203125 67.59375 41.390625 58 
Q 47.59375 48.40625 47.59375 33 
z
M 38 32.5 
Q 38 48.296875 34.640625 56.640625 
Q 31.296875 65 24.796875 65 
Q 18.59375 65 15.296875 56.59375 
Q 12 48.203125 12 32.90625 
Q 12 17.5 15.296875 9.34375 
Q 18.59375 1.203125 25 1.203125 
Q 31.296875 1.203125 34.640625 9.34375 
Q 38 17.5 38 32.5 
z
" id="STIXGeneral-Regular-48"/>
        <path d="M 18.09375 4.296875 
Q 18.09375 2.09375 16.4375 0.5 
Q 14.796875 -1.09375 12.5 -1.09375 
Q 10.203125 -1.09375 8.59375 0.5 
Q 7 2.09375 7 4.390625 
Q 7 6.703125 8.640625 8.34375 
Q 10.296875 10 12.59375 10 
Q 14.796875 10 16.4375 8.296875 
Q 18.09375 6.59375 18.09375 4.296875 
z
" id="STIXGeneral-Regular-46"/>
        <path d="M 47.296875 16.703125 
L 37 16.703125 
L 37 0 
L 29.203125 0 
L 29.203125 16.703125 
L 1.203125 16.703125 
L 1.203125 23.09375 
L 32.59375 67.59375 
L 37 67.59375 
L 37 23.09375 
L 47.296875 23.09375 
z
M 29.203125 23.09375 
L 29.203125 57.40625 
L 5.203125 23.09375 
z
" id="STIXGeneral-Regular-52"/>
       </defs>
       <use xlink:href="#STIXGeneral-Regular-48"/>
       <use x="49.999985" xlink:href="#STIXGeneral-Regular-46"/>
       <use x="74.999969" xlink:href="#STIXGeneral-Regular-52"/>
      </g>
     </g>
    </g>
    <g id="xtick_2">
     <g id="line2d_2">
      <g>
       <use style="stroke:#000000;stroke-width:0.8;" x="329" xlink:href="#meb07c32843" y="288"/>
      </g>
     </g>
     <g id="text_2">
      <!-- 0.5 -->
      <g transform="translate(319 305.9275)scale(0.16 -0.16)">
       <defs>
        <path d="M 43.796875 68.09375 
L 40.203125 59.59375 
Q 39.59375 58.296875 37.5 58.296875 
L 18.09375 58.296875 
L 14.09375 49.796875 
Q 25.09375 47.703125 30 45.25 
Q 34.90625 42.796875 39.09375 37 
Q 42.59375 32.203125 42.59375 24.296875 
Q 42.59375 17.09375 40.25 12.1875 
Q 37.90625 7.296875 32.796875 3.5 
Q 26 -1.40625 15.796875 -1.40625 
Q 10.09375 -1.40625 6.59375 0.296875 
Q 3.09375 2 3.09375 4.796875 
Q 3.09375 8.59375 7.59375 8.59375 
Q 11.203125 8.59375 15 5.5 
Q 18.90625 2.296875 22.09375 2.296875 
Q 27.296875 2.296875 31.4375 7.5 
Q 35.59375 12.703125 35.59375 19.203125 
Q 35.59375 28.796875 28.90625 34.203125 
Q 20.203125 41.203125 7.59375 41.203125 
Q 6.40625 41.203125 6.40625 42 
L 6.5 42.5 
L 17.40625 66.203125 
L 38.09375 66.203125 
Q 39.796875 66.203125 40.75 66.703125 
Q 41.703125 67.203125 42.90625 68.796875 
z
" id="STIXGeneral-Regular-53"/>
       </defs>
       <use xlink:href="#STIXGeneral-Regular-48"/>
       <use x="49.999985" xlink:href="#STIXGeneral-Regular-46"/>
       <use x="74.999969" xlink:href="#STIXGeneral-Regular-53"/>
      </g>
     </g>
    </g>
    <g id="xtick_3">
     <g id="line2d_3">
      <g>
       <use style="stroke:#000000;stroke-width:0.8;" x="380.333333" xlink:href="#meb07c32843" y="288"/>
      </g>
     </g>
     <g id="text_3">
      <!-- 0.6 -->
      <g transform="translate(370.333333 305.9275)scale(0.16 -0.16)">
       <defs>
        <path d="M 44.59375 68.40625 
L 44.796875 66.796875 
Q 33 64.90625 25.09375 57.25 
Q 17.203125 49.59375 15.203125 38.296875 
Q 21 42.796875 27.90625 42.796875 
Q 36.703125 42.796875 41.75 37.1875 
Q 46.796875 31.59375 46.796875 21.90625 
Q 46.796875 12.09375 41.703125 5.90625 
Q 35.796875 -1.40625 25.796875 -1.40625 
Q 13.59375 -1.40625 8.09375 8.703125 
Q 3.40625 17.296875 3.40625 27.90625 
Q 3.40625 44.296875 14.296875 55.5 
Q 20.5 61.90625 27.046875 64.546875 
Q 33.59375 67.203125 44.59375 68.40625 
z
M 37.796875 18.796875 
Q 37.796875 38.203125 24.296875 38.203125 
Q 19.296875 38.203125 16 35.546875 
Q 12.703125 32.90625 12.703125 26.59375 
Q 12.703125 14.90625 16.34375 8.15625 
Q 20 1.40625 26.90625 1.40625 
Q 32.203125 1.40625 35 6.15625 
Q 37.796875 10.90625 37.796875 18.796875 
z
" id="STIXGeneral-Regular-54"/>
       </defs>
       <use xlink:href="#STIXGeneral-Regular-48"/>
       <use x="49.999985" xlink:href="#STIXGeneral-Regular-46"/>
       <use x="74.999969" xlink:href="#STIXGeneral-Regular-54"/>
      </g>
     </g>
    </g>
    <g id="text_4">
     <!-- $\hat r_1$ -->
     <g transform="translate(322.6 324.3275)scale(0.16 -0.16)">
      <defs>
       <path d="M -7.5 50.703125 
L -10.90625 50.703125 
L -23.09375 61 
L -35.203125 50.703125 
L -38.59375 50.703125 
L -26.203125 67.40625 
L -20 67.40625 
z
" id="STIXGeneral-Regular-770"/>
       <path d="M 17.59375 22.296875 
L 19.203125 25.796875 
Q 22.59375 33.296875 28.59375 39.59375 
Q 32.90625 44.09375 36.5 44.09375 
Q 38.59375 44.09375 39.890625 42.6875 
Q 41.203125 41.296875 41.203125 39 
Q 41.203125 36.703125 39.953125 35.140625 
Q 38.703125 33.59375 36.5 33.59375 
Q 34.59375 33.59375 33 36.203125 
Q 32.203125 37.59375 31.40625 37.59375 
Q 28.703125 37.59375 23.203125 28.203125 
Q 19.796875 22.40625 17.75 17.25 
Q 15.703125 12.09375 12.09375 0 
L 4.5 0 
L 12.59375 29.203125 
Q 14.203125 35.09375 14.203125 37.40625 
Q 14.203125 40 10.40625 40 
Q 9.59375 40 7.296875 39.703125 
L 7.296875 41.40625 
L 22.796875 44.09375 
L 23.09375 43.90625 
z
" id="STIXGeneral-Italic-114"/>
       <path d="M 39.40625 0 
L 11.796875 0 
L 11.796875 1.5 
Q 17.296875 1.796875 19.296875 3.546875 
Q 21.296875 5.296875 21.296875 9.5 
L 21.296875 54.40625 
Q 21.296875 59.296875 18.296875 59.296875 
Q 16.90625 59.296875 13.796875 58.09375 
L 11.09375 57.09375 
L 11.09375 58.5 
L 29 67.59375 
L 29.90625 67.296875 
L 29.90625 7.59375 
Q 29.90625 4.296875 31.90625 2.890625 
Q 33.90625 1.5 39.40625 1.5 
z
" id="STIXGeneral-Regular-49"/>
      </defs>
      <use transform="translate(45.765625 6.59375)" xlink:href="#STIXGeneral-Regular-770"/>
      <use transform="translate(0 0.703125)" xlink:href="#STIXGeneral-Italic-114"/>
      <use transform="translate(40.443275 -12.525)scale(0.7)" xlink:href="#STIXGeneral-Regular-49"/>
     </g>
    </g>
   </g>
   <g id="matplotlib.axis_2">
    <g id="ytick_1">
     <g id="line2d_4">
      <defs>
       <path d="M 0 0 
L -3.5 0 
" id="me4f405638a" style="stroke:#000000;stroke-width:0.8;"/>
      </defs>
      <g>
       <use style="stroke:#000000;stroke-width:0.8;" x="252" xlink:href="#me4f405638a" y="288"/>
      </g>
     </g>
     <g id="text_5">
      <!-- 1.1 -->
      <g transform="translate(225 293.46375)scale(0.16 -0.16)">
       <use xlink:href="#STIXGeneral-Regular-49"/>
       <use x="49.999985" xlink:href="#STIXGeneral-Regular-46"/>
       <use x="74.999969" xlink:href="#STIXGeneral-Regular-49"/>
      </g>
     </g>
    </g>
    <g id="ytick_2">
     <g id="line2d_5">
      <g>
       <use style="stroke:#000000;stroke-width:0.8;" x="252" xlink:href="#me4f405638a" y="237.6"/>
      </g>
     </g>
     <g id="text_6">
      <!-- 1.2 -->
      <g transform="translate(225 243.06375)scale(0.16 -0.16)">
       <defs>
        <path d="M 47.40625 13.703125 
L 42 0 
L 2.90625 0 
L 2.90625 1.203125 
L 20.703125 20.09375 
Q 27.703125 27.40625 30.703125 33.5 
Q 33.703125 39.59375 33.703125 46.09375 
Q 33.703125 52.796875 30 56.5 
Q 26.296875 60.203125 19.796875 60.203125 
Q 14.40625 60.203125 11.25 57.390625 
Q 8.09375 54.59375 5.09375 47.203125 
L 3 47.703125 
Q 4.703125 57 9.84375 62.296875 
Q 15 67.59375 23.796875 67.59375 
Q 32.09375 67.59375 37.1875 62.59375 
Q 42.296875 57.59375 42.296875 50 
Q 42.296875 38.703125 29.5 25.203125 
L 13 7.59375 
L 36.40625 7.59375 
Q 39.703125 7.59375 41.640625 8.890625 
Q 43.59375 10.203125 46 14.296875 
z
" id="STIXGeneral-Regular-50"/>
       </defs>
       <use xlink:href="#STIXGeneral-Regular-49"/>
       <use x="49.999985" xlink:href="#STIXGeneral-Regular-46"/>
       <use x="74.999969" xlink:href="#STIXGeneral-Regular-50"/>
      </g>
     </g>
    </g>
    <g id="ytick_3">
     <g id="line2d_6">
      <g>
       <use style="stroke:#000000;stroke-width:0.8;" x="252" xlink:href="#me4f405638a" y="187.2"/>
      </g>
     </g>
     <g id="text_7">
      <!-- 1.3 -->
      <g transform="translate(225 192.66375)scale(0.16 -0.16)">
       <defs>
        <path d="M 6.09375 51 
L 4.5 51.40625 
Q 6.796875 58.90625 11.6875 63.25 
Q 16.59375 67.59375 24.09375 67.59375 
Q 31.09375 67.59375 35.390625 63.796875 
Q 39.703125 60 39.703125 53.90625 
Q 39.703125 45.703125 30.40625 40.09375 
Q 35.90625 37.703125 38.703125 34.796875 
Q 43.09375 29.90625 43.09375 21.90625 
Q 43.09375 13.90625 38.5 7.90625 
Q 35.09375 3.296875 28.75 0.9375 
Q 22.40625 -1.40625 15.296875 -1.40625 
Q 4.09375 -1.40625 4.09375 4.296875 
Q 4.09375 5.90625 5.296875 6.90625 
Q 6.5 7.90625 8.203125 7.90625 
Q 10.703125 7.90625 14.296875 5.296875 
Q 18.703125 2.203125 22.90625 2.203125 
Q 28.40625 2.203125 32.15625 6.640625 
Q 35.90625 11.09375 35.90625 17.5 
Q 35.90625 29 25.5 32 
Q 22.40625 33 15.296875 33 
L 15.296875 34.40625 
Q 20.90625 36.296875 23.703125 38 
Q 31.796875 42.59375 31.796875 51.40625 
Q 31.796875 56.40625 28.9375 59 
Q 26.09375 61.59375 21 61.59375 
Q 12 61.59375 6.09375 51 
z
" id="STIXGeneral-Regular-51"/>
       </defs>
       <use xlink:href="#STIXGeneral-Regular-49"/>
       <use x="49.999985" xlink:href="#STIXGeneral-Regular-46"/>
       <use x="74.999969" xlink:href="#STIXGeneral-Regular-51"/>
      </g>
     </g>
    </g>
    <g id="ytick_4">
     <g id="line2d_7">
      <g>
       <use style="stroke:#000000;stroke-width:0.8;" x="252" xlink:href="#me4f405638a" y="136.8"/>
      </g>
     </g>
     <g id="text_8">
      <!-- 1.4 -->
      <g transform="translate(225 142.26375)scale(0.16 -0.16)">
       <use xlink:href="#STIXGeneral-Regular-49"/>
       <use x="49.999985" xlink:href="#STIXGeneral-Regular-46"/>
       <use x="74.999969" xlink:href="#STIXGeneral-Regular-52"/>
      </g>
     </g>
    </g>
    <g id="ytick_5">
     <g id="line2d_8">
      <g>
       <use style="stroke:#000000;stroke-width:0.8;" x="252" xlink:href="#me4f405638a" y="86.4"/>
      </g>
     </g>
     <g id="text_9">
      <!-- 1.5 -->
      <g transform="translate(225 91.86375)scale(0.16 -0.16)">
       <use xlink:href="#STIXGeneral-Regular-49"/>
       <use x="49.999985" xlink:href="#STIXGeneral-Regular-46"/>
       <use x="74.999969" xlink:href="#STIXGeneral-Regular-53"/>
      </g>
     </g>
    </g>
    <g id="ytick_6">
     <g id="line2d_9">
      <g>
       <use style="stroke:#000000;stroke-width:0.8;" x="252" xlink:href="#me4f405638a" y="36"/>
      </g>
     </g>
     <g id="text_10">
      <!-- 1.6 -->
      <g transform="translate(225 41.46375)scale(0.16 -0.16)">
       <use xlink:href="#STIXGeneral-Regular-49"/>
       <use x="49.999985" xlink:href="#STIXGeneral-Regular-46"/>
       <use x="74.999969" xlink:href="#STIXGeneral-Regular-54"/>
      </g>
     </g>
    </g>
    <g id="text_11">
     <!-- $\bar{C}_L$ -->
     <g transform="translate(217.5275 170.96)rotate(-90)scale(0.16 -0.16)">
      <defs>
       <path d="M -7.40625 54.703125 
L -38.5 54.703125 
L -38.5 60.09375 
L -7.40625 60.09375 
z
" id="STIXGeneral-Regular-772"/>
       <path d="M 68.90625 66.40625 
L 65.203125 46.40625 
L 63.40625 46.703125 
Q 61.59375 63 48.5 63 
Q 37.59375 63 28.59375 53.296875 
Q 23.296875 47.703125 20.546875 39.703125 
Q 17.796875 31.703125 17.796875 23.203125 
Q 17.796875 2.703125 35.296875 2.703125 
Q 41.5 2.703125 46.640625 5.296875 
Q 51.796875 7.90625 58.203125 14.59375 
L 60 13.09375 
Q 53.296875 5.203125 46.84375 1.703125 
Q 40.40625 -1.796875 32.703125 -1.796875 
Q 21 -1.796875 13.796875 5.140625 
Q 6.59375 12.09375 6.59375 24.296875 
Q 6.59375 34.59375 11.6875 43.9375 
Q 16.796875 53.296875 25.296875 59.296875 
Q 35.5 66.59375 47.203125 66.59375 
Q 54.09375 66.59375 58.90625 64.90625 
Q 60.90625 64.203125 63 64.203125 
Q 65.703125 64.203125 66.796875 66.40625 
z
" id="STIXGeneral-Italic-67"/>
       <path d="M 55.90625 18 
L 50.09375 0 
L -0.796875 0 
L -0.796875 1.59375 
Q 3.40625 2 4.703125 3.296875 
Q 6 4.59375 7.40625 9.40625 
L 19.59375 53.203125 
Q 20.703125 56.90625 20.703125 59.40625 
Q 20.703125 61.59375 19.140625 62.5 
Q 17.59375 63.40625 13 63.703125 
L 13 65.296875 
L 40.296875 65.296875 
L 40.296875 63.703125 
Q 35.703125 63.40625 33.546875 61.796875 
Q 31.40625 60.203125 30.203125 56 
L 18.203125 13.09375 
Q 17.203125 9.296875 17.203125 7.703125 
Q 17.203125 5.40625 19.390625 4.5 
Q 21.59375 3.59375 27.703125 3.59375 
Q 35.40625 3.59375 38.75 4.296875 
Q 42.09375 5 45.703125 7.40625 
Q 49.796875 10.09375 53.90625 18.59375 
z
" id="STIXGeneral-Italic-76"/>
      </defs>
      <use transform="translate(64.174999 24.90625)" xlink:href="#STIXGeneral-Regular-772"/>
      <use transform="translate(0 0.515625)" xlink:href="#STIXGeneral-Italic-67"/>
      <use transform="translate(68.243278 -12.7125)scale(0.7)" xlink:href="#STIXGeneral-Italic-76"/>
     </g>
    </g>
   </g>
   <g id="line2d_10">
    <path clip-path="url(#pe1b24a7480)" d="M 277.666667 235.552286 
L 329 230.921838 
L 380.333333 261.590587 
" style="fill:none;stroke:#1f77b4;stroke-dasharray:3.2,0.8,0.5,0.8;stroke-dashoffset:0;stroke-width:0.5;"/>
    <defs>
     <path d="M 0 7.5 
C 1.989023 7.5 3.896849 6.709753 5.303301 5.303301 
C 6.709753 3.896849 7.5 1.989023 7.5 0 
C 7.5 -1.989023 6.709753 -3.896849 5.303301 -5.303301 
C 3.896849 -6.709753 1.989023 -7.5 0 -7.5 
C -1.989023 -7.5 -3.896849 -6.709753 -5.303301 -5.303301 
C -6.709753 -3.896849 -7.5 -1.989023 -7.5 0 
C -7.5 1.989023 -6.709753 3.896849 -5.303301 5.303301 
C -3.896849 6.709753 -1.989023 7.5 0 7.5 
z
" id="m60b2066e26" style="stroke:#1f77b4;"/>
    </defs>
    <g clip-path="url(#pe1b24a7480)">
     <use style="fill:#1f77b4;stroke:#1f77b4;" x="277.666667" xlink:href="#m60b2066e26" y="235.552286"/>
     <use style="fill:#1f77b4;stroke:#1f77b4;" x="329" xlink:href="#m60b2066e26" y="230.921838"/>
     <use style="fill:#1f77b4;stroke:#1f77b4;" x="380.333333" xlink:href="#m60b2066e26" y="261.590587"/>
    </g>
   </g>
   <g id="line2d_11">
    <path clip-path="url(#pe1b24a7480)" style="fill:none;stroke:#000000;stroke-dasharray:3.2,0.8,0.5,0.8;stroke-dashoffset:0;stroke-width:0.5;"/>
   </g>
   <g id="line2d_12">
    <path clip-path="url(#pe1b24a7480)" d="M 277.666667 95.002767 
L 329 106.322477 
L 380.333333 170.929947 
" style="fill:none;stroke:#ff7f0e;stroke-dasharray:3.2,0.8,0.5,0.8;stroke-dashoffset:0;stroke-width:0.5;"/>
    <defs>
     <path d="M -0 7.5 
L 7.5 -7.5 
L -7.5 -7.5 
z
" id="meaa1be9f66" style="stroke:#ff7f0e;stroke-linejoin:miter;"/>
    </defs>
    <g clip-path="url(#pe1b24a7480)">
     <use style="fill:#ff7f0e;stroke:#ff7f0e;stroke-linejoin:miter;" x="277.666667" xlink:href="#meaa1be9f66" y="95.002767"/>
     <use style="fill:#ff7f0e;stroke:#ff7f0e;stroke-linejoin:miter;" x="329" xlink:href="#meaa1be9f66" y="106.322477"/>
     <use style="fill:#ff7f0e;stroke:#ff7f0e;stroke-linejoin:miter;" x="380.333333" xlink:href="#meaa1be9f66" y="170.929947"/>
    </g>
   </g>
   <g id="line2d_13">
    <path clip-path="url(#pe1b24a7480)" d="M 277.666667 65.811573 
L 329 56.248574 
L 380.333333 95.850049 
" style="fill:none;stroke:#2ca02c;stroke-dasharray:3.2,0.8,0.5,0.8;stroke-dashoffset:0;stroke-width:0.5;"/>
    <defs>
     <path d="M -7.5 7.5 
L 7.5 7.5 
L 7.5 -7.5 
L -7.5 -7.5 
z
" id="m4154e14d80" style="stroke:#2ca02c;stroke-linejoin:miter;"/>
    </defs>
    <g clip-path="url(#pe1b24a7480)">
     <use style="fill:#2ca02c;stroke:#2ca02c;stroke-linejoin:miter;" x="277.666667" xlink:href="#m4154e14d80" y="65.811573"/>
     <use style="fill:#2ca02c;stroke:#2ca02c;stroke-linejoin:miter;" x="329" xlink:href="#m4154e14d80" y="56.248574"/>
     <use style="fill:#2ca02c;stroke:#2ca02c;stroke-linejoin:miter;" x="380.333333" xlink:href="#m4154e14d80" y="95.850049"/>
    </g>
   </g>
   <g id="line2d_14">
    <path clip-path="url(#pe1b24a7480)" d="M 277.666667 89.733891 
L 329 55.518114 
L 380.333333 75.495791 
" style="fill:none;stroke:#d62728;stroke-dasharray:3.2,0.8,0.5,0.8;stroke-dashoffset:0;stroke-width:0.5;"/>
    <defs>
     <path d="M 7.5 0 
L -7.5 -7.5 
L -7.5 7.5 
z
" id="m225a5a977f" style="stroke:#d62728;stroke-linejoin:miter;"/>
    </defs>
    <g clip-path="url(#pe1b24a7480)">
     <use style="fill:#d62728;stroke:#d62728;stroke-linejoin:miter;" x="277.666667" xlink:href="#m225a5a977f" y="89.733891"/>
     <use style="fill:#d62728;stroke:#d62728;stroke-linejoin:miter;" x="329" xlink:href="#m225a5a977f" y="55.518114"/>
     <use style="fill:#d62728;stroke:#d62728;stroke-linejoin:miter;" x="380.333333" xlink:href="#m225a5a977f" y="75.495791"/>
    </g>
   </g>
   <g id="line2d_15">
    <path clip-path="url(#pe1b24a7480)" d="M 277.666667 118.065489 
L 329 98.343393 
L 380.333333 79.417839 
" style="fill:none;stroke:#9467bd;stroke-dasharray:3.2,0.8,0.5,0.8;stroke-dashoffset:0;stroke-width:0.5;"/>
    <defs>
     <path d="M 0 -7.5 
L -7.5 7.5 
L 7.5 7.5 
z
" id="m457dba8484" style="stroke:#9467bd;stroke-linejoin:miter;"/>
    </defs>
    <g clip-path="url(#pe1b24a7480)">
     <use style="fill:#9467bd;stroke:#9467bd;stroke-linejoin:miter;" x="277.666667" xlink:href="#m457dba8484" y="118.065489"/>
     <use style="fill:#9467bd;stroke:#9467bd;stroke-linejoin:miter;" x="329" xlink:href="#m457dba8484" y="98.343393"/>
     <use style="fill:#9467bd;stroke:#9467bd;stroke-linejoin:miter;" x="380.333333" xlink:href="#m457dba8484" y="79.417839"/>
    </g>
   </g>
   <g id="patch_3">
    <path d="M 252 288 
L 252 36 
" style="fill:none;stroke:#000000;stroke-linecap:square;stroke-linejoin:miter;stroke-width:0.8;"/>
   </g>
   <g id="patch_4">
    <path d="M 406 288 
L 406 36 
" style="fill:none;stroke:#000000;stroke-linecap:square;stroke-linejoin:miter;stroke-width:0.8;"/>
   </g>
   <g id="patch_5">
    <path d="M 252 288 
L 406 288 
" style="fill:none;stroke:#000000;stroke-linecap:square;stroke-linejoin:miter;stroke-width:0.8;"/>
   </g>
   <g id="patch_6">
    <path d="M 252 36 
L 406 36 
" style="fill:none;stroke:#000000;stroke-linecap:square;stroke-linejoin:miter;stroke-width:0.8;"/>
   </g>
   <g id="legend_1">
    <g id="line2d_16">
     <path style="fill:none;stroke:#1f77b4;stroke-dasharray:3.2,0.8,0.5,0.8;stroke-dashoffset:0;stroke-width:0.5;"/>
    </g>
    <g id="line2d_17">
     <g/>
    </g>
    <g id="text_12">
     <!-- AR = 1.5 -->
     <g transform="translate(207.234143 -30.8752)scale(0.13328 -0.13328)">
      <defs>
       <path d="M 70.703125 0 
L 45.203125 0 
L 45.203125 1.90625 
Q 49.203125 1.90625 50.703125 2.796875 
Q 52.09375 3.5 52.09375 5.203125 
Q 52.09375 7.796875 50.203125 12.203125 
L 46.09375 21.59375 
L 19.90625 21.59375 
L 15.296875 10.203125 
Q 14.40625 7.90625 14.40625 6 
Q 14.40625 3.703125 16.046875 2.796875 
Q 17.703125 1.90625 21.40625 1.90625 
L 21.40625 0 
L 1.5 0 
L 1.5 1.90625 
Q 5.703125 2.296875 7.59375 4.9375 
Q 9.5 7.59375 14.09375 18.59375 
L 34.703125 67.40625 
L 36.703125 67.40625 
L 61.296875 11.09375 
Q 63.5 5.90625 65.25 4.09375 
Q 67 2.296875 70.703125 1.90625 
z
M 44.703125 25.703125 
L 33.09375 53.203125 
L 21.59375 25.703125 
z
" id="STIXGeneral-Regular-65"/>
       <path d="M 66 0 
L 49.796875 0 
L 26 30.796875 
L 20.40625 30.59375 
L 20.40625 11.203125 
Q 20.40625 5.5 21.953125 3.890625 
Q 23.5 2.296875 29.296875 1.90625 
L 29.296875 0 
L 1.703125 0 
L 1.703125 1.90625 
Q 7.40625 2.40625 8.796875 4.09375 
Q 10.203125 5.796875 10.203125 12.40625 
L 10.203125 55.09375 
Q 10.203125 60.703125 8.796875 62.296875 
Q 7.40625 63.90625 1.703125 64.296875 
L 1.703125 66.203125 
L 28.90625 66.203125 
Q 42.59375 66.203125 49.796875 60.296875 
Q 54.703125 56.296875 54.703125 48.296875 
Q 54.703125 34.703125 36.59375 31.90625 
L 56.59375 6.59375 
Q 58.703125 4 60.59375 3.09375 
Q 62.5 2.203125 66 1.90625 
z
M 20.40625 58.296875 
L 20.40625 34.296875 
Q 27.59375 34.40625 31.09375 35.09375 
Q 34.59375 35.796875 38.09375 37.703125 
Q 43.796875 40.90625 43.796875 49.09375 
Q 43.796875 62.5 25.5 62.5 
Q 22.796875 62.5 21.59375 61.640625 
Q 20.40625 60.796875 20.40625 58.296875 
z
" id="STIXGeneral-Regular-82"/>
       <path id="STIXGeneral-Regular-32"/>
       <path d="M 63.703125 32 
L 4.796875 32 
L 4.796875 38.59375 
L 63.703125 38.59375 
z
M 63.703125 12 
L 4.796875 12 
L 4.796875 18.59375 
L 63.703125 18.59375 
z
" id="STIXGeneral-Regular-61"/>
      </defs>
      <use xlink:href="#STIXGeneral-Regular-65"/>
      <use x="72.199982" xlink:href="#STIXGeneral-Regular-82"/>
      <use x="138.899979" xlink:href="#STIXGeneral-Regular-32"/>
      <use x="163.899963" xlink:href="#STIXGeneral-Regular-61"/>
      <use x="232.399948" xlink:href="#STIXGeneral-Regular-32"/>
      <use x="257.399933" xlink:href="#STIXGeneral-Regular-49"/>
      <use x="307.399918" xlink:href="#STIXGeneral-Regular-46"/>
      <use x="332.399902" xlink:href="#STIXGeneral-Regular-53"/>
     </g>
    </g>
    <g id="line2d_18">
     <path style="fill:none;stroke:#ff7f0e;stroke-dasharray:3.2,0.8,0.5,0.8;stroke-dashoffset:0;stroke-width:0.5;"/>
    </g>
    <g id="line2d_19">
     <g/>
    </g>
    <g id="text_13">
     <!-- AR = 3.0 -->
     <g transform="translate(207.234143 -11.989008)scale(0.13328 -0.13328)">
      <use xlink:href="#STIXGeneral-Regular-65"/>
      <use x="72.199982" xlink:href="#STIXGeneral-Regular-82"/>
      <use x="138.899979" xlink:href="#STIXGeneral-Regular-32"/>
      <use x="163.899963" xlink:href="#STIXGeneral-Regular-61"/>
      <use x="232.399948" xlink:href="#STIXGeneral-Regular-32"/>
      <use x="257.399933" xlink:href="#STIXGeneral-Regular-51"/>
      <use x="307.399918" xlink:href="#STIXGeneral-Regular-46"/>
      <use x="332.399902" xlink:href="#STIXGeneral-Regular-48"/>
     </g>
    </g>
    <g id="line2d_20">
     <path style="fill:none;stroke:#2ca02c;stroke-dasharray:3.2,0.8,0.5,0.8;stroke-dashoffset:0;stroke-width:0.5;"/>
    </g>
    <g id="line2d_21">
     <g/>
    </g>
    <g id="text_14">
     <!-- AR = 4.5 -->
     <g transform="translate(322.175648 -30.8752)scale(0.13328 -0.13328)">
      <use xlink:href="#STIXGeneral-Regular-65"/>
      <use x="72.199982" xlink:href="#STIXGeneral-Regular-82"/>
      <use x="138.899979" xlink:href="#STIXGeneral-Regular-32"/>
      <use x="163.899963" xlink:href="#STIXGeneral-Regular-61"/>
      <use x="232.399948" xlink:href="#STIXGeneral-Regular-32"/>
      <use x="257.399933" xlink:href="#STIXGeneral-Regular-52"/>
      <use x="307.399918" xlink:href="#STIXGeneral-Regular-46"/>
      <use x="332.399902" xlink:href="#STIXGeneral-Regular-53"/>
     </g>
    </g>
    <g id="line2d_22">
     <path style="fill:none;stroke:#d62728;stroke-dasharray:3.2,0.8,0.5,0.8;stroke-dashoffset:0;stroke-width:0.5;"/>
    </g>
    <g id="line2d_23">
     <g/>
    </g>
    <g id="text_15">
     <!-- AR = 6.0 -->
     <g transform="translate(322.175648 -11.989008)scale(0.13328 -0.13328)">
      <use xlink:href="#STIXGeneral-Regular-65"/>
      <use x="72.199982" xlink:href="#STIXGeneral-Regular-82"/>
      <use x="138.899979" xlink:href="#STIXGeneral-Regular-32"/>
      <use x="163.899963" xlink:href="#STIXGeneral-Regular-61"/>
      <use x="232.399948" xlink:href="#STIXGeneral-Regular-32"/>
      <use x="257.399933" xlink:href="#STIXGeneral-Regular-54"/>
      <use x="307.399918" xlink:href="#STIXGeneral-Regular-46"/>
      <use x="332.399902" xlink:href="#STIXGeneral-Regular-48"/>
     </g>
    </g>
    <g id="line2d_24">
     <path style="fill:none;stroke:#9467bd;stroke-dasharray:3.2,0.8,0.5,0.8;stroke-dashoffset:0;stroke-width:0.5;"/>
    </g>
    <g id="line2d_25">
     <g/>
    </g>
    <g id="text_16">
     <!-- AR = 7.5 -->
     <g transform="translate(437.117152 -30.8752)scale(0.13328 -0.13328)">
      <defs>
       <path d="M 44.90625 64.59375 
L 23.703125 -0.796875 
L 17.203125 -0.796875 
L 37 58.796875 
L 15.5 58.796875 
Q 11.203125 58.796875 9.09375 57.296875 
Q 7 55.796875 3.796875 50.59375 
L 2 51.5 
L 8 66.203125 
L 44.90625 66.203125 
z
" id="STIXGeneral-Regular-55"/>
      </defs>
      <use xlink:href="#STIXGeneral-Regular-65"/>
      <use x="72.199982" xlink:href="#STIXGeneral-Regular-82"/>
      <use x="138.899979" xlink:href="#STIXGeneral-Regular-32"/>
      <use x="163.899963" xlink:href="#STIXGeneral-Regular-61"/>
      <use x="232.399948" xlink:href="#STIXGeneral-Regular-32"/>
      <use x="257.399933" xlink:href="#STIXGeneral-Regular-55"/>
      <use x="307.399918" xlink:href="#STIXGeneral-Regular-46"/>
      <use x="332.399902" xlink:href="#STIXGeneral-Regular-53"/>
     </g>
    </g>
   </g>
  </g>
  <g id="axes_2">
   <g id="patch_7">
    <path d="M 452.2 288 
L 606.2 288 
L 606.2 36 
L 452.2 36 
z
" style="fill:#ffffff;"/>
   </g>
   <g id="matplotlib.axis_3">
    <g id="xtick_4">
     <g id="line2d_26">
      <g>
       <use style="stroke:#000000;stroke-width:0.8;" x="477.866667" xlink:href="#meb07c32843" y="288"/>
      </g>
     </g>
     <g id="text_17">
      <!-- 0.4 -->
      <g transform="translate(467.866667 305.9275)scale(0.16 -0.16)">
       <use xlink:href="#STIXGeneral-Regular-48"/>
       <use x="49.999985" xlink:href="#STIXGeneral-Regular-46"/>
       <use x="74.999969" xlink:href="#STIXGeneral-Regular-52"/>
      </g>
     </g>
    </g>
    <g id="xtick_5">
     <g id="line2d_27">
      <g>
       <use style="stroke:#000000;stroke-width:0.8;" x="529.2" xlink:href="#meb07c32843" y="288"/>
      </g>
     </g>
     <g id="text_18">
      <!-- 0.5 -->
      <g transform="translate(519.2 305.9275)scale(0.16 -0.16)">
       <use xlink:href="#STIXGeneral-Regular-48"/>
       <use x="49.999985" xlink:href="#STIXGeneral-Regular-46"/>
       <use x="74.999969" xlink:href="#STIXGeneral-Regular-53"/>
      </g>
     </g>
    </g>
    <g id="xtick_6">
     <g id="line2d_28">
      <g>
       <use style="stroke:#000000;stroke-width:0.8;" x="580.533333" xlink:href="#meb07c32843" y="288"/>
      </g>
     </g>
     <g id="text_19">
      <!-- 0.6 -->
      <g transform="translate(570.533333 305.9275)scale(0.16 -0.16)">
       <use xlink:href="#STIXGeneral-Regular-48"/>
       <use x="49.999985" xlink:href="#STIXGeneral-Regular-46"/>
       <use x="74.999969" xlink:href="#STIXGeneral-Regular-54"/>
      </g>
     </g>
    </g>
    <g id="text_20">
     <!-- $\hat r_1$ -->
     <g transform="translate(522.8 324.3275)scale(0.16 -0.16)">
      <use transform="translate(45.765625 6.59375)" xlink:href="#STIXGeneral-Regular-770"/>
      <use transform="translate(0 0.703125)" xlink:href="#STIXGeneral-Italic-114"/>
      <use transform="translate(40.443275 -12.525)scale(0.7)" xlink:href="#STIXGeneral-Regular-49"/>
     </g>
    </g>
   </g>
   <g id="matplotlib.axis_4">
    <g id="ytick_7">
     <g id="line2d_29">
      <g>
       <use style="stroke:#000000;stroke-width:0.8;" x="452.2" xlink:href="#me4f405638a" y="265.090909"/>
      </g>
     </g>
     <g id="text_21">
      <!-- 1.8 -->
      <g transform="translate(425.2 270.554659)scale(0.16 -0.16)">
       <defs>
        <path d="M 44.5 15.5 
Q 44.5 7.796875 39.140625 3.1875 
Q 33.796875 -1.40625 24.796875 -1.40625 
Q 16.40625 -1.40625 11 3.1875 
Q 5.59375 7.796875 5.59375 14.90625 
Q 5.59375 20.203125 8.1875 23.953125 
Q 10.796875 27.703125 18.59375 33.203125 
Q 11.09375 39.40625 8.640625 43.203125 
Q 6.203125 47 6.203125 52 
Q 6.203125 59.09375 11.640625 63.34375 
Q 17.09375 67.59375 25.59375 67.59375 
Q 32.90625 67.59375 37.65625 63.4375 
Q 42.40625 59.296875 42.40625 53.296875 
Q 42.40625 47.796875 39.546875 44.5 
Q 36.703125 41.203125 29 37.09375 
Q 38 31.09375 41.25 26.390625 
Q 44.5 21.703125 44.5 15.5 
z
M 35.5 53.296875 
Q 35.5 58.5 32.59375 61.640625 
Q 29.703125 64.796875 24.59375 64.796875 
Q 19.5 64.796875 16.546875 62.140625 
Q 13.59375 59.5 13.59375 54.890625 
Q 13.59375 50.296875 16.546875 46.546875 
Q 19.5 42.796875 26.09375 38.90625 
Q 31.203125 41.90625 33.34375 45.25 
Q 35.5 48.59375 35.5 53.296875 
z
M 27.09375 27.203125 
L 21.203125 31.203125 
Q 16.796875 27.59375 15 24.140625 
Q 13.203125 20.703125 13.203125 15.796875 
Q 13.203125 9 16.640625 5.203125 
Q 20.09375 1.40625 25.90625 1.40625 
Q 30.796875 1.40625 33.84375 4.453125 
Q 36.90625 7.5 36.90625 12.40625 
Q 36.90625 16.90625 34.59375 20.296875 
Q 32.296875 23.703125 27.09375 27.203125 
z
" id="STIXGeneral-Regular-56"/>
       </defs>
       <use xlink:href="#STIXGeneral-Regular-49"/>
       <use x="49.999985" xlink:href="#STIXGeneral-Regular-46"/>
       <use x="74.999969" xlink:href="#STIXGeneral-Regular-56"/>
      </g>
     </g>
    </g>
    <g id="ytick_8">
     <g id="line2d_30">
      <g>
       <use style="stroke:#000000;stroke-width:0.8;" x="452.2" xlink:href="#me4f405638a" y="219.272727"/>
      </g>
     </g>
     <g id="text_22">
      <!-- 2.0 -->
      <g transform="translate(425.2 224.736477)scale(0.16 -0.16)">
       <use xlink:href="#STIXGeneral-Regular-50"/>
       <use x="49.999985" xlink:href="#STIXGeneral-Regular-46"/>
       <use x="74.999969" xlink:href="#STIXGeneral-Regular-48"/>
      </g>
     </g>
    </g>
    <g id="ytick_9">
     <g id="line2d_31">
      <g>
       <use style="stroke:#000000;stroke-width:0.8;" x="452.2" xlink:href="#me4f405638a" y="173.454545"/>
      </g>
     </g>
     <g id="text_23">
      <!-- 2.2 -->
      <g transform="translate(425.2 178.918295)scale(0.16 -0.16)">
       <use xlink:href="#STIXGeneral-Regular-50"/>
       <use x="49.999985" xlink:href="#STIXGeneral-Regular-46"/>
       <use x="74.999969" xlink:href="#STIXGeneral-Regular-50"/>
      </g>
     </g>
    </g>
    <g id="ytick_10">
     <g id="line2d_32">
      <g>
       <use style="stroke:#000000;stroke-width:0.8;" x="452.2" xlink:href="#me4f405638a" y="127.636364"/>
      </g>
     </g>
     <g id="text_24">
      <!-- 2.4 -->
      <g transform="translate(425.2 133.100114)scale(0.16 -0.16)">
       <use xlink:href="#STIXGeneral-Regular-50"/>
       <use x="49.999985" xlink:href="#STIXGeneral-Regular-46"/>
       <use x="74.999969" xlink:href="#STIXGeneral-Regular-52"/>
      </g>
     </g>
    </g>
    <g id="ytick_11">
     <g id="line2d_33">
      <g>
       <use style="stroke:#000000;stroke-width:0.8;" x="452.2" xlink:href="#me4f405638a" y="81.818182"/>
      </g>
     </g>
     <g id="text_25">
      <!-- 2.6 -->
      <g transform="translate(425.2 87.281932)scale(0.16 -0.16)">
       <use xlink:href="#STIXGeneral-Regular-50"/>
       <use x="49.999985" xlink:href="#STIXGeneral-Regular-46"/>
       <use x="74.999969" xlink:href="#STIXGeneral-Regular-54"/>
      </g>
     </g>
    </g>
    <g id="ytick_12">
     <g id="line2d_34">
      <g>
       <use style="stroke:#000000;stroke-width:0.8;" x="452.2" xlink:href="#me4f405638a" y="36"/>
      </g>
     </g>
     <g id="text_26">
      <!-- 2.8 -->
      <g transform="translate(425.2 41.46375)scale(0.16 -0.16)">
       <use xlink:href="#STIXGeneral-Regular-50"/>
       <use x="49.999985" xlink:href="#STIXGeneral-Regular-46"/>
       <use x="74.999969" xlink:href="#STIXGeneral-Regular-56"/>
      </g>
     </g>
    </g>
    <g id="text_27">
     <!-- $\bar{C}_D$ -->
     <g transform="translate(417.7275 171.92)rotate(-90)scale(0.16 -0.16)">
      <defs>
       <path d="M 13.09375 65.296875 
L 40.796875 65.296875 
Q 54.203125 65.296875 62.09375 58.296875 
Q 70 51.296875 70 38.40625 
Q 70 20.703125 54 8.296875 
Q 43.40625 0 24.90625 0 
L -0.796875 0 
L -0.796875 1.59375 
Q 3.5 2.40625 4.84375 3.59375 
Q 6.203125 4.796875 7.40625 9.203125 
L 19.59375 53.703125 
Q 20.703125 57.59375 20.703125 59.59375 
Q 20.703125 61.703125 19.09375 62.640625 
Q 17.5 63.59375 13.09375 63.703125 
z
M 31 58.40625 
L 19.203125 16.203125 
Q 17 8.203125 17 6.703125 
Q 17 3 23.796875 3 
Q 38.59375 3 47.90625 12 
Q 53.09375 17 56 24.953125 
Q 58.90625 32.90625 58.90625 40.796875 
Q 58.90625 52.90625 51.09375 58.796875 
Q 46.40625 62.296875 38 62.296875 
Q 34.796875 62.296875 33.25 61.546875 
Q 31.703125 60.796875 31 58.40625 
z
" id="STIXGeneral-Italic-68"/>
      </defs>
      <use transform="translate(64.174999 24.90625)" xlink:href="#STIXGeneral-Regular-772"/>
      <use transform="translate(0 0.515625)" xlink:href="#STIXGeneral-Italic-67"/>
      <use transform="translate(68.243278 -12.7125)scale(0.7)" xlink:href="#STIXGeneral-Italic-68"/>
     </g>
    </g>
   </g>
   <g id="line2d_35">
    <path clip-path="url(#p59925071c3)" d="M 477.866667 73.940165 
L 529.2 114.109867 
L 580.533333 140.997165 
" style="fill:none;stroke:#1f77b4;stroke-dasharray:3.2,0.8,0.5,0.8;stroke-dashoffset:0;stroke-width:0.5;"/>
    <g clip-path="url(#p59925071c3)">
     <use style="fill:#1f77b4;stroke:#1f77b4;" x="477.866667" xlink:href="#m60b2066e26" y="73.940165"/>
     <use style="fill:#1f77b4;stroke:#1f77b4;" x="529.2" xlink:href="#m60b2066e26" y="114.109867"/>
     <use style="fill:#1f77b4;stroke:#1f77b4;" x="580.533333" xlink:href="#m60b2066e26" y="140.997165"/>
    </g>
   </g>
   <g id="line2d_36">
    <path clip-path="url(#p59925071c3)" style="fill:none;stroke:#000000;stroke-dasharray:3.2,0.8,0.5,0.8;stroke-dashoffset:0;stroke-width:0.5;"/>
   </g>
   <g id="line2d_37">
    <path clip-path="url(#p59925071c3)" d="M 477.866667 166.479679 
L 529.2 206.955025 
L 580.533333 249.059761 
" style="fill:none;stroke:#ff7f0e;stroke-dasharray:3.2,0.8,0.5,0.8;stroke-dashoffset:0;stroke-width:0.5;"/>
    <g clip-path="url(#p59925071c3)">
     <use style="fill:#ff7f0e;stroke:#ff7f0e;stroke-linejoin:miter;" x="477.866667" xlink:href="#meaa1be9f66" y="166.479679"/>
     <use style="fill:#ff7f0e;stroke:#ff7f0e;stroke-linejoin:miter;" x="529.2" xlink:href="#meaa1be9f66" y="206.955025"/>
     <use style="fill:#ff7f0e;stroke:#ff7f0e;stroke-linejoin:miter;" x="580.533333" xlink:href="#meaa1be9f66" y="249.059761"/>
    </g>
   </g>
   <g id="line2d_38">
    <path clip-path="url(#p59925071c3)" d="M 477.866667 199.338579 
L 529.2 224.075535 
L 580.533333 252.758647 
" style="fill:none;stroke:#2ca02c;stroke-dasharray:3.2,0.8,0.5,0.8;stroke-dashoffset:0;stroke-width:0.5;"/>
    <g clip-path="url(#p59925071c3)">
     <use style="fill:#2ca02c;stroke:#2ca02c;stroke-linejoin:miter;" x="477.866667" xlink:href="#m4154e14d80" y="199.338579"/>
     <use style="fill:#2ca02c;stroke:#2ca02c;stroke-linejoin:miter;" x="529.2" xlink:href="#m4154e14d80" y="224.075535"/>
     <use style="fill:#2ca02c;stroke:#2ca02c;stroke-linejoin:miter;" x="580.533333" xlink:href="#m4154e14d80" y="252.758647"/>
    </g>
   </g>
   <g id="line2d_39">
    <path clip-path="url(#p59925071c3)" d="M 477.866667 223.292353 
L 529.2 236.034439 
L 580.533333 258.199254 
" style="fill:none;stroke:#d62728;stroke-dasharray:3.2,0.8,0.5,0.8;stroke-dashoffset:0;stroke-width:0.5;"/>
    <g clip-path="url(#p59925071c3)">
     <use style="fill:#d62728;stroke:#d62728;stroke-linejoin:miter;" x="477.866667" xlink:href="#m225a5a977f" y="223.292353"/>
     <use style="fill:#d62728;stroke:#d62728;stroke-linejoin:miter;" x="529.2" xlink:href="#m225a5a977f" y="236.034439"/>
     <use style="fill:#d62728;stroke:#d62728;stroke-linejoin:miter;" x="580.533333" xlink:href="#m225a5a977f" y="258.199254"/>
    </g>
   </g>
   <g id="line2d_40">
    <path clip-path="url(#p59925071c3)" d="M 477.866667 242.471404 
L 529.2 256.735355 
L 580.533333 264.584281 
" style="fill:none;stroke:#9467bd;stroke-dasharray:3.2,0.8,0.5,0.8;stroke-dashoffset:0;stroke-width:0.5;"/>
    <g clip-path="url(#p59925071c3)">
     <use style="fill:#9467bd;stroke:#9467bd;stroke-linejoin:miter;" x="477.866667" xlink:href="#m457dba8484" y="242.471404"/>
     <use style="fill:#9467bd;stroke:#9467bd;stroke-linejoin:miter;" x="529.2" xlink:href="#m457dba8484" y="256.735355"/>
     <use style="fill:#9467bd;stroke:#9467bd;stroke-linejoin:miter;" x="580.533333" xlink:href="#m457dba8484" y="264.584281"/>
    </g>
   </g>
   <g id="patch_8">
    <path d="M 452.2 288 
L 452.2 36 
" style="fill:none;stroke:#000000;stroke-linecap:square;stroke-linejoin:miter;stroke-width:0.8;"/>
   </g>
   <g id="patch_9">
    <path d="M 606.2 288 
L 606.2 36 
" style="fill:none;stroke:#000000;stroke-linecap:square;stroke-linejoin:miter;stroke-width:0.8;"/>
   </g>
   <g id="patch_10">
    <path d="M 452.2 288 
L 606.2 288 
" style="fill:none;stroke:#000000;stroke-linecap:square;stroke-linejoin:miter;stroke-width:0.8;"/>
   </g>
   <g id="patch_11">
    <path d="M 452.2 36 
L 606.2 36 
" style="fill:none;stroke:#000000;stroke-linecap:square;stroke-linejoin:miter;stroke-width:0.8;"/>
   </g>
  </g>
  <g id="axes_3">
   <g id="patch_12">
    <path d="M 652.4 288 
L 806.4 288 
L 806.4 36 
L 652.4 36 
z
" style="fill:#ffffff;"/>
   </g>
   <g id="matplotlib.axis_5">
    <g id="xtick_7">
     <g id="line2d_41">
      <g>
       <use style="stroke:#000000;stroke-width:0.8;" x="678.066667" xlink:href="#meb07c32843" y="288"/>
      </g>
     </g>
     <g id="text_28">
      <!-- 0.4 -->
      <g transform="translate(668.066667 305.9275)scale(0.16 -0.16)">
       <use xlink:href="#STIXGeneral-Regular-48"/>
       <use x="49.999985" xlink:href="#STIXGeneral-Regular-46"/>
       <use x="74.999969" xlink:href="#STIXGeneral-Regular-52"/>
      </g>
     </g>
    </g>
    <g id="xtick_8">
     <g id="line2d_42">
      <g>
       <use style="stroke:#000000;stroke-width:0.8;" x="729.4" xlink:href="#meb07c32843" y="288"/>
      </g>
     </g>
     <g id="text_29">
      <!-- 0.5 -->
      <g transform="translate(719.4 305.9275)scale(0.16 -0.16)">
       <use xlink:href="#STIXGeneral-Regular-48"/>
       <use x="49.999985" xlink:href="#STIXGeneral-Regular-46"/>
       <use x="74.999969" xlink:href="#STIXGeneral-Regular-53"/>
      </g>
     </g>
    </g>
    <g id="xtick_9">
     <g id="line2d_43">
      <g>
       <use style="stroke:#000000;stroke-width:0.8;" x="780.733333" xlink:href="#meb07c32843" y="288"/>
      </g>
     </g>
     <g id="text_30">
      <!-- 0.6 -->
      <g transform="translate(770.733333 305.9275)scale(0.16 -0.16)">
       <use xlink:href="#STIXGeneral-Regular-48"/>
       <use x="49.999985" xlink:href="#STIXGeneral-Regular-46"/>
       <use x="74.999969" xlink:href="#STIXGeneral-Regular-54"/>
      </g>
     </g>
    </g>
    <g id="text_31">
     <!-- $\hat r_1$ -->
     <g transform="translate(723 324.3275)scale(0.16 -0.16)">
      <use transform="translate(45.765625 6.59375)" xlink:href="#STIXGeneral-Regular-770"/>
      <use transform="translate(0 0.703125)" xlink:href="#STIXGeneral-Italic-114"/>
      <use transform="translate(40.443275 -12.525)scale(0.7)" xlink:href="#STIXGeneral-Regular-49"/>
     </g>
    </g>
   </g>
   <g id="matplotlib.axis_6">
    <g id="ytick_13">
     <g id="line2d_44">
      <g>
       <use style="stroke:#000000;stroke-width:0.8;" x="652.4" xlink:href="#me4f405638a" y="288"/>
      </g>
     </g>
     <g id="text_32">
      <!-- 0.2 -->
      <g transform="translate(625.4 293.46375)scale(0.16 -0.16)">
       <use xlink:href="#STIXGeneral-Regular-48"/>
       <use x="49.999985" xlink:href="#STIXGeneral-Regular-46"/>
       <use x="74.999969" xlink:href="#STIXGeneral-Regular-50"/>
      </g>
     </g>
    </g>
    <g id="ytick_14">
     <g id="line2d_45">
      <g>
       <use style="stroke:#000000;stroke-width:0.8;" x="652.4" xlink:href="#me4f405638a" y="220.8"/>
      </g>
     </g>
     <g id="text_33">
      <!-- 0.4 -->
      <g transform="translate(625.4 226.26375)scale(0.16 -0.16)">
       <use xlink:href="#STIXGeneral-Regular-48"/>
       <use x="49.999985" xlink:href="#STIXGeneral-Regular-46"/>
       <use x="74.999969" xlink:href="#STIXGeneral-Regular-52"/>
      </g>
     </g>
    </g>
    <g id="ytick_15">
     <g id="line2d_46">
      <g>
       <use style="stroke:#000000;stroke-width:0.8;" x="652.4" xlink:href="#me4f405638a" y="153.6"/>
      </g>
     </g>
     <g id="text_34">
      <!-- 0.6 -->
      <g transform="translate(625.4 159.06375)scale(0.16 -0.16)">
       <use xlink:href="#STIXGeneral-Regular-48"/>
       <use x="49.999985" xlink:href="#STIXGeneral-Regular-46"/>
       <use x="74.999969" xlink:href="#STIXGeneral-Regular-54"/>
      </g>
     </g>
    </g>
    <g id="ytick_16">
     <g id="line2d_47">
      <g>
       <use style="stroke:#000000;stroke-width:0.8;" x="652.4" xlink:href="#me4f405638a" y="86.4"/>
      </g>
     </g>
     <g id="text_35">
      <!-- 0.8 -->
      <g transform="translate(625.4 91.86375)scale(0.16 -0.16)">
       <use xlink:href="#STIXGeneral-Regular-48"/>
       <use x="49.999985" xlink:href="#STIXGeneral-Regular-46"/>
       <use x="74.999969" xlink:href="#STIXGeneral-Regular-56"/>
      </g>
     </g>
    </g>
    <g id="text_36">
     <!-- $P_f$ -->
     <g transform="translate(616.92 168.8)rotate(-90)scale(0.16 -0.16)">
      <defs>
       <path d="M 14.59375 65.296875 
L 38.703125 65.296875 
Q 60.5 65.296875 60.5 50.5 
Q 60.5 46.5 58.640625 42.640625 
Q 56.796875 38.796875 53.703125 36.203125 
Q 46.796875 30.5 33.203125 30.5 
Q 27.703125 30.5 24.203125 31.296875 
L 18.90625 12 
Q 17.5 6.59375 17.5 5.703125 
Q 17.5 3.90625 19 2.953125 
Q 20.5 2 24.40625 1.59375 
L 24.40625 0 
L 0 0 
L 0 1.59375 
Q 4.296875 2.203125 5.640625 3.546875 
Q 7 4.90625 8.40625 9.796875 
L 20 51.203125 
Q 21.703125 57.296875 21.703125 59.5 
Q 21.703125 61.5 20.296875 62.34375 
Q 18.90625 63.203125 14.59375 63.703125 
z
M 32 59.203125 
L 25.09375 34.703125 
Q 28 34.203125 30.296875 34.203125 
Q 39 34.203125 43.09375 36.59375 
Q 50.203125 40.59375 50.203125 50 
Q 50.203125 62.296875 37.203125 62.296875 
Q 32.796875 62.296875 32 59.203125 
z
" id="STIXGeneral-Italic-80"/>
       <path d="M 4.09375 42.796875 
L 13.40625 42.796875 
Q 17.296875 55.40625 20.59375 60.09375 
Q 26 67.796875 33.796875 67.796875 
Q 37.5 67.796875 39.953125 66.046875 
Q 42.40625 64.296875 42.40625 61.59375 
Q 42.40625 59.90625 41.15625 58.59375 
Q 39.90625 57.296875 38.203125 57.296875 
Q 36.796875 57.296875 35.640625 58.390625 
Q 34.5 59.5 34.5 61.203125 
Q 34.5 62.203125 35 63.09375 
Q 35.5 64 35.5 64.296875 
Q 35.5 65.59375 33.296875 65.59375 
Q 29.09375 65.59375 26.1875 60.140625 
Q 23.296875 54.703125 21.09375 42.796875 
L 31.796875 42.796875 
L 31.203125 39.59375 
L 20.40625 39.59375 
L 13.203125 7.59375 
Q 6.796875 -20.703125 -6.796875 -20.703125 
Q -10.203125 -20.703125 -12.453125 -18.953125 
Q -14.703125 -17.203125 -14.703125 -14.59375 
Q -14.703125 -12.90625 -13.59375 -11.65625 
Q -12.5 -10.40625 -10.90625 -10.40625 
Q -9.203125 -10.40625 -8.140625 -11.453125 
Q -7.09375 -12.5 -7.09375 -14.09375 
Q -7.09375 -14.796875 -7.546875 -15.640625 
Q -8 -16.5 -8 -17 
Q -8 -18.59375 -6 -18.59375 
Q 0.203125 -18.59375 3.703125 -2.40625 
L 12.5 39.59375 
L 3.40625 39.59375 
z
" id="STIXGeneral-Italic-102"/>
      </defs>
      <use transform="translate(0 0.703125)" xlink:href="#STIXGeneral-Italic-80"/>
      <use transform="translate(61.099991 -12.525)scale(0.7)" xlink:href="#STIXGeneral-Italic-102"/>
     </g>
    </g>
   </g>
   <g id="line2d_48">
    <path clip-path="url(#pd40ca87805)" d="M 678.066667 258.158907 
L 729.4 219.943618 
L 780.733333 224.542461 
" style="fill:none;stroke:#1f77b4;stroke-dasharray:3.2,0.8,0.5,0.8;stroke-dashoffset:0;stroke-width:0.5;"/>
    <g clip-path="url(#pd40ca87805)">
     <use style="fill:#1f77b4;stroke:#1f77b4;" x="678.066667" xlink:href="#m60b2066e26" y="258.158907"/>
     <use style="fill:#1f77b4;stroke:#1f77b4;" x="729.4" xlink:href="#m60b2066e26" y="219.943618"/>
     <use style="fill:#1f77b4;stroke:#1f77b4;" x="780.733333" xlink:href="#m60b2066e26" y="224.542461"/>
    </g>
   </g>
   <g id="line2d_49">
    <path clip-path="url(#pd40ca87805)" d="M 652.4 355.2 
L 806.4 355.2 
" style="fill:none;stroke:#000000;stroke-dasharray:3.2,0.8,0.5,0.8;stroke-dashoffset:0;stroke-width:0.5;"/>
   </g>
   <g id="line2d_50">
    <path clip-path="url(#pd40ca87805)" d="M 678.066667 155.005116 
L 729.4 117.675826 
L 780.733333 114.183908 
" style="fill:none;stroke:#ff7f0e;stroke-dasharray:3.2,0.8,0.5,0.8;stroke-dashoffset:0;stroke-width:0.5;"/>
    <g clip-path="url(#pd40ca87805)">
     <use style="fill:#ff7f0e;stroke:#ff7f0e;stroke-linejoin:miter;" x="678.066667" xlink:href="#meaa1be9f66" y="155.005116"/>
     <use style="fill:#ff7f0e;stroke:#ff7f0e;stroke-linejoin:miter;" x="729.4" xlink:href="#meaa1be9f66" y="117.675826"/>
     <use style="fill:#ff7f0e;stroke:#ff7f0e;stroke-linejoin:miter;" x="780.733333" xlink:href="#meaa1be9f66" y="114.183908"/>
    </g>
   </g>
   <g id="line2d_51">
    <path clip-path="url(#pd40ca87805)" d="M 678.066667 124.277079 
L 729.4 85.212161 
L 780.733333 71.899044 
" style="fill:none;stroke:#2ca02c;stroke-dasharray:3.2,0.8,0.5,0.8;stroke-dashoffset:0;stroke-width:0.5;"/>
    <g clip-path="url(#pd40ca87805)">
     <use style="fill:#2ca02c;stroke:#2ca02c;stroke-linejoin:miter;" x="678.066667" xlink:href="#m4154e14d80" y="124.277079"/>
     <use style="fill:#2ca02c;stroke:#2ca02c;stroke-linejoin:miter;" x="729.4" xlink:href="#m4154e14d80" y="85.212161"/>
     <use style="fill:#2ca02c;stroke:#2ca02c;stroke-linejoin:miter;" x="780.733333" xlink:href="#m4154e14d80" y="71.899044"/>
    </g>
   </g>
   <g id="line2d_52">
    <path clip-path="url(#pd40ca87805)" d="M 678.066667 122.335308 
L 729.4 78.10226 
L 780.733333 58.101495 
" style="fill:none;stroke:#d62728;stroke-dasharray:3.2,0.8,0.5,0.8;stroke-dashoffset:0;stroke-width:0.5;"/>
    <g clip-path="url(#pd40ca87805)">
     <use style="fill:#d62728;stroke:#d62728;stroke-linejoin:miter;" x="678.066667" xlink:href="#m225a5a977f" y="122.335308"/>
     <use style="fill:#d62728;stroke:#d62728;stroke-linejoin:miter;" x="729.4" xlink:href="#m225a5a977f" y="78.10226"/>
     <use style="fill:#d62728;stroke:#d62728;stroke-linejoin:miter;" x="780.733333" xlink:href="#m225a5a977f" y="58.101495"/>
    </g>
   </g>
   <g id="line2d_53">
    <path clip-path="url(#pd40ca87805)" d="M 678.066667 127.216794 
L 729.4 88.765604 
L 780.733333 56.212684 
" style="fill:none;stroke:#9467bd;stroke-dasharray:3.2,0.8,0.5,0.8;stroke-dashoffset:0;stroke-width:0.5;"/>
    <g clip-path="url(#pd40ca87805)">
     <use style="fill:#9467bd;stroke:#9467bd;stroke-linejoin:miter;" x="678.066667" xlink:href="#m457dba8484" y="127.216794"/>
     <use style="fill:#9467bd;stroke:#9467bd;stroke-linejoin:miter;" x="729.4" xlink:href="#m457dba8484" y="88.765604"/>
     <use style="fill:#9467bd;stroke:#9467bd;stroke-linejoin:miter;" x="780.733333" xlink:href="#m457dba8484" y="56.212684"/>
    </g>
   </g>
   <g id="patch_13">
    <path d="M 652.4 288 
L 652.4 36 
" style="fill:none;stroke:#000000;stroke-linecap:square;stroke-linejoin:miter;stroke-width:0.8;"/>
   </g>
   <g id="patch_14">
    <path d="M 806.4 288 
L 806.4 36 
" style="fill:none;stroke:#000000;stroke-linecap:square;stroke-linejoin:miter;stroke-width:0.8;"/>
   </g>
   <g id="patch_15">
    <path d="M 652.4 288 
L 806.4 288 
" style="fill:none;stroke:#000000;stroke-linecap:square;stroke-linejoin:miter;stroke-width:0.8;"/>
   </g>
   <g id="patch_16">
    <path d="M 652.4 36 
L 806.4 36 
" style="fill:none;stroke:#000000;stroke-linecap:square;stroke-linejoin:miter;stroke-width:0.8;"/>
   </g>
  </g>
 </g>
 <defs>
  <clipPath id="pe1b24a7480">
   <rect height="252" width="154" x="252" y="36"/>
  </clipPath>
  <clipPath id="p59925071c3">
   <rect height="252" width="154" x="452.2" y="36"/>
  </clipPath>
  <clipPath id="pd40ca87805">
   <rect height="252" width="154" x="652.4" y="36"/>
  </clipPath>
 </defs>
</svg>
