<?xml version="1.0" encoding="utf-8" standalone="no"?>
<!DOCTYPE svg PUBLIC "-//W3C//DTD SVG 1.1//EN"
  "http://www.w3.org/Graphics/SVG/1.1/DTD/svg11.dtd">
<!-- Created with matplotlib (https://matplotlib.org/) -->
<svg height="432pt" version="1.1" viewBox="0 0 864 432" width="864pt" xmlns="http://www.w3.org/2000/svg" xmlns:xlink="http://www.w3.org/1999/xlink">
 <defs>
  <style type="text/css">
*{stroke-linecap:butt;stroke-linejoin:round;}
  </style>
 </defs>
 <g id="figure_1">
  <g id="patch_1">
   <path d="M 0 432 
L 864 432 
L 864 0 
L 0 0 
z
" style="fill:#ffffff;"/>
  </g>
  <g id="axes_1">
   <g id="patch_2">
    <path d="M 86.4 187.2 
L 412.437736 187.2 
L 412.437736 43.2 
L 86.4 43.2 
z
" style="fill:#ffffff;"/>
   </g>
   <g id="matplotlib.axis_1">
    <g id="xtick_1">
     <g id="line2d_1">
      <defs>
       <path d="M 0 0 
L 0 3.5 
" id="md6122381fa" style="stroke:#000000;stroke-width:0.8;"/>
      </defs>
      <g>
       <use style="fill:#ffffff;stroke:#000000;stroke-width:0.8;" x="86.4" xlink:href="#md6122381fa" y="187.2"/>
      </g>
     </g>
    </g>
    <g id="xtick_2">
     <g id="line2d_2">
      <g>
       <use style="fill:#ffffff;stroke:#000000;stroke-width:0.8;" x="167.909434" xlink:href="#md6122381fa" y="187.2"/>
      </g>
     </g>
    </g>
    <g id="xtick_3">
     <g id="line2d_3">
      <g>
       <use style="fill:#ffffff;stroke:#000000;stroke-width:0.8;" x="249.418868" xlink:href="#md6122381fa" y="187.2"/>
      </g>
     </g>
    </g>
    <g id="xtick_4">
     <g id="line2d_4">
      <g>
       <use style="fill:#ffffff;stroke:#000000;stroke-width:0.8;" x="330.928302" xlink:href="#md6122381fa" y="187.2"/>
      </g>
     </g>
    </g>
    <g id="xtick_5">
     <g id="line2d_5">
      <g>
       <use style="fill:#ffffff;stroke:#000000;stroke-width:0.8;" x="412.437736" xlink:href="#md6122381fa" y="187.2"/>
      </g>
     </g>
    </g>
   </g>
   <g id="matplotlib.axis_2">
    <g id="ytick_1">
     <g id="line2d_6">
      <defs>
       <path d="M 0 0 
L -3.5 0 
" id="mf59119d967" style="stroke:#000000;stroke-width:0.8;"/>
      </defs>
      <g>
       <use style="fill:#ffffff;stroke:#000000;stroke-width:0.8;" x="86.4" xlink:href="#mf59119d967" y="154.989474"/>
      </g>
     </g>
     <g id="text_1">
      <!-- −25 -->
      <defs>
       <path d="M 62.09375 22 
L 6.40625 22 
L 6.40625 28.59375 
L 62.09375 28.59375 
z
" id="STIXGeneral-Regular-8722"/>
       <path d="M 47.40625 13.703125 
L 42 0 
L 2.90625 0 
L 2.90625 1.203125 
L 20.703125 20.09375 
Q 27.703125 27.40625 30.703125 33.5 
Q 33.703125 39.59375 33.703125 46.09375 
Q 33.703125 52.796875 30 56.5 
Q 26.296875 60.203125 19.796875 60.203125 
Q 14.40625 60.203125 11.25 57.390625 
Q 8.09375 54.59375 5.09375 47.203125 
L 3 47.703125 
Q 4.703125 57 9.84375 62.296875 
Q 15 67.59375 23.796875 67.59375 
Q 32.09375 67.59375 37.1875 62.59375 
Q 42.296875 57.59375 42.296875 50 
Q 42.296875 38.703125 29.5 25.203125 
L 13 7.59375 
L 36.40625 7.59375 
Q 39.703125 7.59375 41.640625 8.890625 
Q 43.59375 10.203125 46 14.296875 
z
" id="STIXGeneral-Regular-50"/>
       <path d="M 43.796875 68.09375 
L 40.203125 59.59375 
Q 39.59375 58.296875 37.5 58.296875 
L 18.09375 58.296875 
L 14.09375 49.796875 
Q 25.09375 47.703125 30 45.25 
Q 34.90625 42.796875 39.09375 37 
Q 42.59375 32.203125 42.59375 24.296875 
Q 42.59375 17.09375 40.25 12.1875 
Q 37.90625 7.296875 32.796875 3.5 
Q 26 -1.40625 15.796875 -1.40625 
Q 10.09375 -1.40625 6.59375 0.296875 
Q 3.09375 2 3.09375 4.796875 
Q 3.09375 8.59375 7.59375 8.59375 
Q 11.203125 8.59375 15 5.5 
Q 18.90625 2.296875 22.09375 2.296875 
Q 27.296875 2.296875 31.4375 7.5 
Q 35.59375 12.703125 35.59375 19.203125 
Q 35.59375 28.796875 28.90625 34.203125 
Q 20.203125 41.203125 7.59375 41.203125 
Q 6.40625 41.203125 6.40625 42 
L 6.5 42.5 
L 17.40625 66.203125 
L 38.09375 66.203125 
Q 39.796875 66.203125 40.75 66.703125 
Q 41.703125 67.203125 42.90625 68.796875 
z
" id="STIXGeneral-Regular-53"/>
      </defs>
      <g transform="translate(47.385 161.477677)scale(0.19 -0.19)">
       <use xlink:href="#STIXGeneral-Regular-8722"/>
       <use x="68.499985" xlink:href="#STIXGeneral-Regular-50"/>
       <use x="118.499969" xlink:href="#STIXGeneral-Regular-53"/>
      </g>
     </g>
    </g>
    <g id="ytick_2">
     <g id="line2d_7">
      <g>
       <use style="fill:#ffffff;stroke:#000000;stroke-width:0.8;" x="86.4" xlink:href="#mf59119d967" y="107.621053"/>
      </g>
     </g>
     <g id="text_2">
      <!-- 0 -->
      <defs>
       <path d="M 47.59375 33 
Q 47.59375 26.296875 46.296875 20.34375 
Q 45 14.40625 42.453125 9.40625 
Q 39.90625 4.40625 35.40625 1.5 
Q 30.90625 -1.40625 25 -1.40625 
Q 18.90625 -1.40625 14.296875 1.6875 
Q 9.703125 4.796875 7.203125 10 
Q 4.703125 15.203125 3.546875 21.09375 
Q 2.40625 27 2.40625 33.59375 
Q 2.40625 42.90625 4.703125 50.34375 
Q 7 57.796875 12.34375 62.6875 
Q 17.703125 67.59375 25.40625 67.59375 
Q 35.203125 67.59375 41.390625 58 
Q 47.59375 48.40625 47.59375 33 
z
M 38 32.5 
Q 38 48.296875 34.640625 56.640625 
Q 31.296875 65 24.796875 65 
Q 18.59375 65 15.296875 56.59375 
Q 12 48.203125 12 32.90625 
Q 12 17.5 15.296875 9.34375 
Q 18.59375 1.203125 25 1.203125 
Q 31.296875 1.203125 34.640625 9.34375 
Q 38 17.5 38 32.5 
z
" id="STIXGeneral-Regular-48"/>
      </defs>
      <g transform="translate(69.9 114.109256)scale(0.19 -0.19)">
       <use xlink:href="#STIXGeneral-Regular-48"/>
      </g>
     </g>
    </g>
    <g id="ytick_3">
     <g id="line2d_8">
      <g>
       <use style="fill:#ffffff;stroke:#000000;stroke-width:0.8;" x="86.4" xlink:href="#mf59119d967" y="60.252632"/>
      </g>
     </g>
     <g id="text_3">
      <!-- 25 -->
      <g transform="translate(60.4 66.740835)scale(0.19 -0.19)">
       <use xlink:href="#STIXGeneral-Regular-50"/>
       <use x="49.999985" xlink:href="#STIXGeneral-Regular-53"/>
      </g>
     </g>
    </g>
    <g id="text_4">
     <!-- $C_l$ -->
     <defs>
      <path d="M 68.90625 66.40625 
L 65.203125 46.40625 
L 63.40625 46.703125 
Q 61.59375 63 48.5 63 
Q 37.59375 63 28.59375 53.296875 
Q 23.296875 47.703125 20.546875 39.703125 
Q 17.796875 31.703125 17.796875 23.203125 
Q 17.796875 2.703125 35.296875 2.703125 
Q 41.5 2.703125 46.640625 5.296875 
Q 51.796875 7.90625 58.203125 14.59375 
L 60 13.09375 
Q 53.296875 5.203125 46.84375 1.703125 
Q 40.40625 -1.796875 32.703125 -1.796875 
Q 21 -1.796875 13.796875 5.140625 
Q 6.59375 12.09375 6.59375 24.296875 
Q 6.59375 34.59375 11.6875 43.9375 
Q 16.796875 53.296875 25.296875 59.296875 
Q 35.5 66.59375 47.203125 66.59375 
Q 54.09375 66.59375 58.90625 64.90625 
Q 60.90625 64.203125 63 64.203125 
Q 65.703125 64.203125 66.796875 66.40625 
z
" id="STIXGeneral-Italic-67"/>
      <path d="M 27.90625 67.796875 
L 12.59375 9.296875 
Q 11.796875 6.40625 11.796875 5 
Q 11.796875 3.203125 13.5 3.203125 
Q 16.203125 3.203125 20.203125 8.90625 
L 22.703125 12.40625 
L 24.09375 11.40625 
Q 19.59375 4.296875 16.34375 1.59375 
Q 13.09375 -1.09375 9 -1.09375 
Q 4.09375 -1.09375 4.09375 4.5 
Q 4.09375 6.203125 4.5 7.5 
L 18.203125 59.90625 
Q 18.5 60.90625 18.5 61.796875 
Q 18.5 64 13.59375 64 
L 11.796875 64 
L 11.796875 65.59375 
Q 18.796875 66.40625 27.296875 68.296875 
z
" id="STIXGeneral-Italic-108"/>
     </defs>
     <g transform="translate(39.261406 123.845)rotate(-90)scale(0.19 -0.19)">
      <use transform="translate(0 0.40625)" xlink:href="#STIXGeneral-Italic-67"/>
      <use transform="translate(66.699997 -12.821875)scale(0.7)" xlink:href="#STIXGeneral-Italic-108"/>
     </g>
    </g>
   </g>
   <g id="line2d_9">
    <path clip-path="url(#p88562263f6)" d="M 86.889057 107.408357 
L 88.030189 106.714528 
L 88.519245 106.109373 
L 89.171321 104.887208 
L 90.964528 101.02282 
L 91.616604 100.287776 
L 92.268679 99.86726 
L 93.246792 99.540865 
L 94.876981 99.283582 
L 106.940377 97.969238 
L 107.592453 98.282201 
L 108.244528 98.992778 
L 108.896604 100.167633 
L 110.363774 103.094141 
L 111.015849 103.81373 
L 111.667925 104.193351 
L 112.483019 104.400242 
L 113.950189 104.481731 
L 119.166792 104.404008 
L 134.327547 104.175363 
L 171.984906 103.890119 
L 222.031698 103.625921 
L 222.846792 103.346683 
L 223.498868 102.787932 
L 223.987925 101.994076 
L 224.476981 100.606825 
L 224.966038 98.282394 
L 225.455094 94.602428 
L 226.10717 87.189222 
L 227.737358 65.951482 
L 228.226415 62.614668 
L 228.552453 61.38502 
L 228.878491 60.858058 
L 229.041509 60.839403 
L 229.204528 60.977442 
L 229.530566 61.721537 
L 229.856604 63.130896 
L 230.34566 66.494336 
L 230.834717 71.385418 
L 232.790943 93.385571 
L 233.443019 96.956537 
L 234.095094 99.13096 
L 234.910189 100.956388 
L 236.051321 102.881184 
L 238.98566 107.564626 
L 239.800755 109.496171 
L 241.430943 113.80295 
L 241.756981 114.181727 
L 242.083019 114.280547 
L 242.409057 114.141626 
L 242.898113 113.621199 
L 244.365283 111.841394 
L 244.85434 111.576602 
L 245.343396 111.514022 
L 246.158491 111.704085 
L 247.299623 111.984435 
L 248.114717 111.948383 
L 249.418868 111.628068 
L 257.406792 109.34982 
L 260.830189 108.697991 
L 264.579623 108.223103 
L 269.144151 107.879259 
L 275.501887 107.643514 
L 285.772075 107.512096 
L 308.757736 107.487511 
L 412.600755 107.614384 
L 412.600755 107.614384 
" style="fill:none;stroke:#1f77b4;stroke-linecap:square;stroke-width:2;"/>
   </g>
   <g id="line2d_10">
    <path clip-path="url(#p88562263f6)" d="M 86.889057 107.512161 
L 88.193208 107.069948 
L 88.845283 106.567311 
L 89.823396 105.426873 
L 90.801509 104.360657 
L 91.616604 103.839276 
L 92.594717 103.530739 
L 94.224906 103.307812 
L 102.21283 102.449362 
L 106.940377 101.643502 
L 107.755472 101.750172 
L 108.407547 102.073017 
L 109.222642 102.788263 
L 110.363774 103.797803 
L 111.178868 104.171191 
L 112.156981 104.325551 
L 114.113208 104.335957 
L 135.794717 103.918845 
L 166.279245 103.835644 
L 168.072453 103.844972 
L 207.36 104.7621 
L 208.990189 104.812635 
L 223.009811 105.14707 
L 223.987925 104.917976 
L 224.64 104.481901 
L 225.129057 103.900331 
L 225.618113 102.997779 
L 226.270189 101.253003 
L 227.737358 97.03023 
L 228.226415 96.24835 
L 228.715472 95.855171 
L 229.204528 95.806406 
L 229.530566 95.962792 
L 230.019623 96.509454 
L 230.508679 97.469125 
L 231.160755 99.393628 
L 232.464906 103.61281 
L 233.116981 104.961427 
L 233.769057 105.825804 
L 234.584151 106.540473 
L 235.888302 107.346913 
L 237.681509 108.181775 
L 239.800755 109.163851 
L 241.430943 110.021184 
L 242.083019 110.019375 
L 242.898113 109.692353 
L 244.528302 108.939861 
L 245.506415 108.793618 
L 247.62566 108.869295 
L 249.907925 108.76823 
L 267.024906 107.661776 
L 275.827925 107.445466 
L 290.336604 107.343898 
L 326.689811 107.37522 
L 412.600755 107.530212 
L 412.600755 107.530212 
" style="fill:none;stroke:#ff7f0e;stroke-linecap:square;stroke-width:2;"/>
   </g>
   <g id="line2d_11">
    <path clip-path="url(#p88562263f6)" d="M 86.889057 107.564803 
L 88.356226 107.28518 
L 89.33434 106.804579 
L 91.127547 105.798971 
L 92.268679 105.521333 
L 94.387925 105.318011 
L 100.093585 104.787731 
L 103.190943 104.258983 
L 107.592453 103.32223 
L 108.407547 103.376606 
L 109.38566 103.694183 
L 110.526792 104.060423 
L 111.504906 104.176291 
L 113.78717 104.151607 
L 115.580377 104.074381 
L 123.242264 103.897305 
L 126.176604 103.869028 
L 127.806792 103.849499 
L 134.979623 103.888177 
L 144.271698 104.178282 
L 151.770566 104.592562 
L 165.953208 105.472264 
L 168.235472 105.57789 
L 174.104151 105.804456 
L 175.73434 105.838887 
L 194.644528 106.016332 
L 196.111698 105.999208 
L 204.42566 105.929495 
L 211.435472 105.808261 
L 224.476981 105.28403 
L 225.455094 105.022331 
L 226.596226 104.433092 
L 227.900377 103.75957 
L 228.715472 103.59147 
L 229.530566 103.665542 
L 230.182642 103.940393 
L 230.834717 104.438676 
L 233.28 106.710335 
L 234.258113 107.145661 
L 235.725283 107.553153 
L 237.844528 107.894012 
L 241.593962 108.20653 
L 242.898113 108.05234 
L 244.85434 107.832598 
L 247.136604 107.89768 
L 250.56 107.882301 
L 262.13434 107.811967 
L 340.546415 107.813889 
L 412.600755 107.628747 
L 412.600755 107.628747 
" style="fill:none;stroke:#2ca02c;stroke-linecap:square;stroke-width:2;"/>
   </g>
   <g id="line2d_12">
    <path clip-path="url(#p88562263f6)" d="M 86.4 107.621053 
L 412.437736 107.621053 
" style="fill:none;stroke:#000000;stroke-dasharray:3.2,0.8,0.5,0.8;stroke-dashoffset:0;stroke-width:0.5;"/>
   </g>
   <g id="line2d_13">
    <path clip-path="url(#p88562263f6)" d="M 249.418868 187.2 
L 249.418868 43.2 
" style="fill:none;stroke:#000000;stroke-linecap:square;stroke-width:0.5;"/>
   </g>
   <g id="line2d_14">
    <path clip-path="url(#p88562263f6)" d="M 282.022642 187.2 
L 282.022642 43.2 
" style="fill:none;stroke:#000000;stroke-dasharray:6.4,1.6,1,1.6;stroke-dashoffset:0;stroke-opacity:0.25;"/>
   </g>
   <g id="line2d_15">
    <path clip-path="url(#p88562263f6)" d="M 314.626415 187.2 
L 314.626415 43.2 
" style="fill:none;stroke:#000000;stroke-dasharray:6.4,1.6,1,1.6;stroke-dashoffset:0;stroke-opacity:0.25;"/>
   </g>
   <g id="line2d_16">
    <path clip-path="url(#p88562263f6)" d="M 347.230189 187.2 
L 347.230189 43.2 
" style="fill:none;stroke:#000000;stroke-dasharray:6.4,1.6,1,1.6;stroke-dashoffset:0;stroke-opacity:0.25;"/>
   </g>
   <g id="patch_3">
    <path d="M 86.4 187.2 
L 86.4 43.2 
" style="fill:none;stroke:#000000;stroke-linecap:square;stroke-linejoin:miter;stroke-width:0.8;"/>
   </g>
   <g id="patch_4">
    <path d="M 412.437736 187.2 
L 412.437736 43.2 
" style="fill:none;stroke:#000000;stroke-linecap:square;stroke-linejoin:miter;stroke-width:0.8;"/>
   </g>
   <g id="patch_5">
    <path d="M 86.4 187.2 
L 412.437736 187.2 
" style="fill:none;stroke:#000000;stroke-linecap:square;stroke-linejoin:miter;stroke-width:0.8;"/>
   </g>
   <g id="patch_6">
    <path d="M 86.4 43.2 
L 412.437736 43.2 
" style="fill:none;stroke:#000000;stroke-linecap:square;stroke-linejoin:miter;stroke-width:0.8;"/>
   </g>
  </g>
  <g id="axes_2">
   <g id="patch_7">
    <path d="M 451.562264 187.2 
L 777.6 187.2 
L 777.6 43.2 
L 451.562264 43.2 
z
" style="fill:#ffffff;"/>
   </g>
   <g id="matplotlib.axis_3">
    <g id="xtick_6">
     <g id="line2d_17">
      <g>
       <use style="fill:#ffffff;stroke:#000000;stroke-width:0.8;" x="451.562264" xlink:href="#md6122381fa" y="187.2"/>
      </g>
     </g>
    </g>
    <g id="xtick_7">
     <g id="line2d_18">
      <g>
       <use style="fill:#ffffff;stroke:#000000;stroke-width:0.8;" x="533.071698" xlink:href="#md6122381fa" y="187.2"/>
      </g>
     </g>
    </g>
    <g id="xtick_8">
     <g id="line2d_19">
      <g>
       <use style="fill:#ffffff;stroke:#000000;stroke-width:0.8;" x="614.581132" xlink:href="#md6122381fa" y="187.2"/>
      </g>
     </g>
    </g>
    <g id="xtick_9">
     <g id="line2d_20">
      <g>
       <use style="fill:#ffffff;stroke:#000000;stroke-width:0.8;" x="696.090566" xlink:href="#md6122381fa" y="187.2"/>
      </g>
     </g>
    </g>
    <g id="xtick_10">
     <g id="line2d_21">
      <g>
       <use style="fill:#ffffff;stroke:#000000;stroke-width:0.8;" x="777.6" xlink:href="#md6122381fa" y="187.2"/>
      </g>
     </g>
    </g>
   </g>
   <g id="matplotlib.axis_4">
    <g id="ytick_4">
     <g id="line2d_22">
      <g>
       <use style="fill:#ffffff;stroke:#000000;stroke-width:0.8;" x="451.562264" xlink:href="#mf59119d967" y="154.989474"/>
      </g>
     </g>
    </g>
    <g id="ytick_5">
     <g id="line2d_23">
      <g>
       <use style="fill:#ffffff;stroke:#000000;stroke-width:0.8;" x="451.562264" xlink:href="#mf59119d967" y="107.621053"/>
      </g>
     </g>
    </g>
    <g id="ytick_6">
     <g id="line2d_24">
      <g>
       <use style="fill:#ffffff;stroke:#000000;stroke-width:0.8;" x="451.562264" xlink:href="#mf59119d967" y="60.252632"/>
      </g>
     </g>
    </g>
    <g id="text_5">
     <!-- $C_d$ -->
     <defs>
      <path d="M 52.09375 68.296875 
L 52.703125 67.703125 
L 48.796875 52.5 
L 42.796875 30.59375 
Q 36.296875 6.703125 36.296875 6 
Q 36.296875 4 38.09375 4 
Q 39.40625 4 40.84375 5.25 
Q 42.296875 6.5 46.296875 11.09375 
L 47.5 10.09375 
Q 39.796875 -1.296875 32.796875 -1.296875 
Q 30.90625 -1.296875 29.796875 -0.09375 
Q 28.703125 1.09375 28.703125 3.203125 
Q 28.703125 6.203125 30 12.09375 
Q 25.703125 4.796875 21.546875 1.84375 
Q 17.40625 -1.09375 12.203125 -1.09375 
Q 7.203125 -1.09375 4.34375 1.953125 
Q 1.5 5 1.5 10.59375 
Q 1.5 22.5 11.140625 33.296875 
Q 20.796875 44.09375 30.703125 44.09375 
Q 33.796875 44.09375 35.25 42.6875 
Q 36.703125 41.296875 37.203125 38.296875 
L 37.296875 38.296875 
L 41.796875 54.59375 
Q 43.203125 59.5 43.203125 61.703125 
Q 43.203125 63.296875 42.09375 63.6875 
Q 41 64.09375 36.796875 64.296875 
L 36.796875 66 
Q 44.5 66.703125 52.09375 68.296875 
z
M 35.59375 36.09375 
Q 35.59375 38.703125 34.140625 40.25 
Q 32.703125 41.796875 30.90625 41.796875 
Q 26.203125 41.796875 21.796875 37.203125 
Q 16.796875 31.90625 13.5 24.546875 
Q 10.203125 17.203125 10.203125 11 
Q 10.203125 7.59375 11.75 5.640625 
Q 13.296875 3.703125 16 3.703125 
Q 20.5 3.703125 25.09375 8.59375 
Q 29.703125 13.5 32.640625 21.09375 
Q 35.59375 28.703125 35.59375 36.09375 
z
" id="STIXGeneral-Italic-100"/>
     </defs>
     <g transform="translate(436.43867 125.365)rotate(-90)scale(0.19 -0.19)">
      <use transform="translate(0 0.40625)" xlink:href="#STIXGeneral-Italic-67"/>
      <use transform="translate(66.699997 -12.821875)scale(0.7)" xlink:href="#STIXGeneral-Italic-100"/>
     </g>
    </g>
   </g>
   <g id="line2d_25">
    <path clip-path="url(#pce5444dc9c)" d="M 452.051321 107.394992 
L 453.192453 106.667279 
L 453.681509 106.028827 
L 454.333585 104.732769 
L 456.289811 100.249589 
L 456.941887 99.472359 
L 457.756981 98.894795 
L 458.898113 98.432796 
L 460.85434 97.939118 
L 468.842264 96.327035 
L 471.287547 95.910232 
L 472.102642 95.983716 
L 472.754717 96.30453 
L 473.243774 96.815282 
L 473.895849 97.938466 
L 475.852075 101.947487 
L 476.504151 102.590509 
L 477.319245 103.013104 
L 478.460377 103.276303 
L 482.046792 103.528754 
L 488.567547 103.709549 
L 500.956981 103.853928 
L 535.353962 103.98142 
L 586.867925 103.923943 
L 587.846038 103.656985 
L 588.335094 103.358168 
L 588.824151 102.81329 
L 589.313208 101.852229 
L 589.802264 100.197439 
L 590.291321 97.452108 
L 590.780377 93.203233 
L 591.432453 84.953978 
L 593.062642 61.945844 
L 593.714717 56.177293 
L 594.366792 52.396551 
L 594.855849 50.865751 
L 595.181887 50.61503 
L 595.344906 50.764272 
L 595.670943 51.694227 
L 595.996981 53.604413 
L 596.486038 58.189334 
L 597.953208 74.301809 
L 598.605283 78.575825 
L 599.257358 81.220963 
L 599.909434 83.026575 
L 601.050566 85.354175 
L 602.517736 88.295773 
L 603.169811 90.074678 
L 603.658868 91.957763 
L 604.147925 94.677306 
L 604.636981 98.792986 
L 605.126038 105.060307 
L 605.615094 114.099487 
L 606.26717 130.490551 
L 607.571321 164.849615 
L 608.223396 175.948824 
L 608.712453 181.110859 
L 609.038491 183.105287 
L 609.364528 183.894629 
L 609.527547 183.800325 
L 609.690566 183.373226 
L 610.016604 181.419777 
L 610.342642 177.868981 
L 610.831698 169.542815 
L 612.787925 130.372345 
L 613.276981 125.947471 
L 613.766038 123.405223 
L 614.255094 122.026625 
L 614.744151 121.286846 
L 615.396226 120.815349 
L 616.37434 120.449044 
L 618.493585 119.6343 
L 621.590943 117.937649 
L 626.481509 114.892983 
L 629.25283 113.403857 
L 632.18717 112.123434 
L 634.958491 111.174719 
L 638.218868 110.326548 
L 642.29434 109.571372 
L 646.695849 109.014946 
L 652.890566 108.511765 
L 662.997736 108.063142 
L 682.56 107.704807 
L 695.764528 107.602725 
L 730.487547 107.501187 
L 777.763019 107.484256 
L 777.763019 107.484256 
" style="fill:none;stroke:#1f77b4;stroke-linecap:square;stroke-width:2;"/>
   </g>
   <g id="line2d_26">
    <path clip-path="url(#pce5444dc9c)" d="M 452.051321 107.502801 
L 453.192453 107.125208 
L 453.844528 106.64884 
L 454.659623 105.690383 
L 455.963774 104.020227 
L 456.778868 103.373146 
L 457.756981 102.933596 
L 459.224151 102.567374 
L 462.973585 101.944597 
L 468.516226 100.961357 
L 471.939623 100.349818 
L 472.754717 100.432982 
L 473.406792 100.734989 
L 474.058868 101.308935 
L 476.015094 103.169181 
L 476.830189 103.499228 
L 478.460377 103.721049 
L 481.557736 103.833469 
L 489.54566 103.932704 
L 506.336604 104.003219 
L 561.273962 104.389048 
L 588.009057 104.702502 
L 588.98717 104.495255 
L 589.476226 104.24937 
L 589.965283 103.823387 
L 590.45434 103.128166 
L 590.943396 102.081459 
L 591.595472 100.133376 
L 593.22566 95.010586 
L 594.040755 93.399349 
L 594.69283 92.576685 
L 595.181887 92.329873 
L 595.507925 92.408637 
L 595.833962 92.747459 
L 596.323019 93.750199 
L 597.138113 96.306608 
L 597.953208 98.713147 
L 598.605283 100.080567 
L 599.420377 101.268512 
L 600.887547 102.907509 
L 602.843774 105.135991 
L 603.658868 106.365697 
L 604.310943 107.754572 
L 604.8 109.25454 
L 605.289057 111.35572 
L 605.941132 115.302781 
L 607.897358 128.872426 
L 608.549434 131.320461 
L 609.038491 132.298126 
L 609.364528 132.520953 
L 609.690566 132.362759 
L 610.016604 131.766444 
L 610.342642 130.68745 
L 610.831698 128.159859 
L 612.787925 115.946073 
L 613.276981 114.46723 
L 613.766038 113.571404 
L 614.255094 113.061093 
L 614.90717 112.716325 
L 615.885283 112.52992 
L 618.167547 112.417687 
L 620.938868 112.177654 
L 623.873208 111.756844 
L 639.033962 109.393436 
L 644.902642 108.855571 
L 651.749434 108.451859 
L 661.041509 108.141554 
L 675.061132 107.914483 
L 703.426415 107.719899 
L 750.864906 107.608872 
L 777.763019 107.597761 
L 777.763019 107.597761 
" style="fill:none;stroke:#ff7f0e;stroke-linecap:square;stroke-width:2;"/>
   </g>
   <g id="line2d_27">
    <path clip-path="url(#pce5444dc9c)" d="M 452.051321 107.558154 
L 453.518491 107.251178 
L 454.333585 106.824903 
L 456.615849 105.376903 
L 457.756981 105.045954 
L 460.039245 104.682937 
L 467.049057 103.656536 
L 473.080755 102.606492 
L 473.895849 102.80929 
L 476.66717 103.842764 
L 478.460377 103.964825 
L 482.535849 104.008812 
L 492.969057 104.040474 
L 503.076226 104.133509 
L 541.38566 105.020253 
L 554.264151 105.084221 
L 555.731321 105.086787 
L 557.687547 105.086526 
L 580.34717 105.15472 
L 581.81434 105.133188 
L 588.498113 105.047068 
L 590.780377 104.640581 
L 591.758491 104.144461 
L 593.551698 103.176741 
L 594.529811 102.887291 
L 595.181887 102.863355 
L 595.833962 103.077432 
L 596.486038 103.588377 
L 598.931321 105.90932 
L 600.887547 107.068827 
L 603.658868 108.731104 
L 604.473962 109.406825 
L 605.289057 110.401583 
L 606.104151 111.878324 
L 607.73434 115.064846 
L 608.386415 115.81714 
L 608.875472 116.133982 
L 609.364528 116.224208 
L 609.853585 116.039606 
L 610.342642 115.525497 
L 610.831698 114.654622 
L 612.950943 110.173808 
L 613.603019 109.552877 
L 614.418113 109.130817 
L 615.559245 108.837457 
L 617.841509 108.541669 
L 622.732075 108.159159 
L 629.089811 107.890481 
L 638.218868 107.749879 
L 663.160755 107.679568 
L 737.33434 107.672949 
L 777.763019 107.686953 
L 777.763019 107.686953 
" style="fill:none;stroke:#2ca02c;stroke-linecap:square;stroke-width:2;"/>
   </g>
   <g id="line2d_28">
    <path clip-path="url(#pce5444dc9c)" d="M 451.562264 107.621053 
L 777.6 107.621053 
" style="fill:none;stroke:#000000;stroke-dasharray:3.2,0.8,0.5,0.8;stroke-dashoffset:0;stroke-width:0.5;"/>
   </g>
   <g id="line2d_29">
    <path clip-path="url(#pce5444dc9c)" d="M 614.581132 187.2 
L 614.581132 43.2 
" style="fill:none;stroke:#000000;stroke-linecap:square;stroke-width:0.5;"/>
   </g>
   <g id="line2d_30">
    <path clip-path="url(#pce5444dc9c)" d="M 647.184906 187.2 
L 647.184906 43.2 
" style="fill:none;stroke:#000000;stroke-dasharray:6.4,1.6,1,1.6;stroke-dashoffset:0;stroke-opacity:0.25;"/>
   </g>
   <g id="line2d_31">
    <path clip-path="url(#pce5444dc9c)" d="M 679.788679 187.2 
L 679.788679 43.2 
" style="fill:none;stroke:#000000;stroke-dasharray:6.4,1.6,1,1.6;stroke-dashoffset:0;stroke-opacity:0.25;"/>
   </g>
   <g id="line2d_32">
    <path clip-path="url(#pce5444dc9c)" d="M 712.392453 187.2 
L 712.392453 43.2 
" style="fill:none;stroke:#000000;stroke-dasharray:6.4,1.6,1,1.6;stroke-dashoffset:0;stroke-opacity:0.25;"/>
   </g>
   <g id="patch_8">
    <path d="M 451.562264 187.2 
L 451.562264 43.2 
" style="fill:none;stroke:#000000;stroke-linecap:square;stroke-linejoin:miter;stroke-width:0.8;"/>
   </g>
   <g id="patch_9">
    <path d="M 777.6 187.2 
L 777.6 43.2 
" style="fill:none;stroke:#000000;stroke-linecap:square;stroke-linejoin:miter;stroke-width:0.8;"/>
   </g>
   <g id="patch_10">
    <path d="M 451.562264 187.2 
L 777.6 187.2 
" style="fill:none;stroke:#000000;stroke-linecap:square;stroke-linejoin:miter;stroke-width:0.8;"/>
   </g>
   <g id="patch_11">
    <path d="M 451.562264 43.2 
L 777.6 43.2 
" style="fill:none;stroke:#000000;stroke-linecap:square;stroke-linejoin:miter;stroke-width:0.8;"/>
   </g>
   <g id="text_6">
    <!-- $Re = 10^2$ -->
    <defs>
     <path d="M 13.203125 65.296875 
L 38.40625 65.296875 
Q 48.09375 65.296875 53.4375 61.5 
Q 58.796875 57.703125 58.796875 51.203125 
Q 58.796875 43.40625 52.203125 38.40625 
Q 48.296875 35.40625 39.09375 33.296875 
L 48 9.796875 
Q 49.703125 5.203125 51.546875 3.390625 
Q 53.40625 1.59375 56.703125 1.59375 
L 56.703125 0 
L 42 0 
L 29.703125 32.40625 
L 23.09375 32.90625 
L 17.59375 12.59375 
Q 16.296875 8 16.296875 6.296875 
Q 16.296875 4 17.59375 3 
Q 18.90625 2 23 1.59375 
L 23 0 
L -1.296875 0 
L -1.296875 1.59375 
Q 2.703125 2.09375 4.34375 3.796875 
Q 6 5.5 7.203125 10.09375 
L 19.09375 53.203125 
Q 20.296875 57.796875 20.296875 59.5 
Q 20.296875 61.296875 18.90625 62.296875 
Q 17.703125 63.09375 13.203125 63.703125 
z
M 30.59375 59.296875 
L 24.296875 36.59375 
Q 27.40625 36.09375 29.40625 36.09375 
Q 38.296875 36.09375 43.296875 40.09375 
Q 48.296875 44.09375 48.296875 51.09375 
Q 48.296875 56.296875 45.1875 59.296875 
Q 42.09375 62.296875 36.296875 62.296875 
Q 31.40625 62.296875 30.59375 59.296875 
z
" id="STIXGeneral-Italic-82"/>
     <path d="M 35.796875 10.90625 
L 37 9.703125 
Q 28.203125 -1.09375 16.59375 -1.09375 
Q 10.5 -1.09375 6.796875 2.65625 
Q 3.09375 6.40625 3.09375 12.59375 
Q 3.09375 24.296875 12.4375 34.1875 
Q 21.796875 44.09375 33 44.09375 
Q 36.90625 44.09375 39.046875 42.296875 
Q 41.203125 40.5 41.203125 37.296875 
Q 41.203125 30.703125 33.546875 25.5 
Q 25.90625 20.296875 12.796875 18.59375 
Q 11.796875 16.59375 11.796875 12.5 
Q 11.796875 8.40625 14.34375 5.90625 
Q 16.90625 3.40625 21.09375 3.40625 
Q 24.40625 3.40625 27.40625 4.953125 
Q 30.40625 6.5 35.796875 10.90625 
z
M 15.203125 25.203125 
L 13.5 20.796875 
Q 24.703125 23.5 29.59375 28.203125 
Q 34.59375 33 34.59375 37.90625 
Q 34.59375 41.796875 31.09375 41.796875 
Q 26.90625 41.796875 22.34375 36.9375 
Q 17.796875 32.09375 15.203125 25.203125 
z
" id="STIXGeneral-Italic-101"/>
     <path d="M 63.703125 32 
L 4.796875 32 
L 4.796875 38.59375 
L 63.703125 38.59375 
z
M 63.703125 12 
L 4.796875 12 
L 4.796875 18.59375 
L 63.703125 18.59375 
z
" id="STIXGeneral-Regular-61"/>
     <path d="M 39.40625 0 
L 11.796875 0 
L 11.796875 1.5 
Q 17.296875 1.796875 19.296875 3.546875 
Q 21.296875 5.296875 21.296875 9.5 
L 21.296875 54.40625 
Q 21.296875 59.296875 18.296875 59.296875 
Q 16.90625 59.296875 13.796875 58.09375 
L 11.09375 57.09375 
L 11.09375 58.5 
L 29 67.59375 
L 29.90625 67.296875 
L 29.90625 7.59375 
Q 29.90625 4.296875 31.90625 2.890625 
Q 33.90625 1.5 39.40625 1.5 
z
" id="STIXGeneral-Regular-49"/>
    </defs>
    <g transform="translate(787.304906 119.626406)scale(0.19 -0.19)">
     <use transform="translate(0 0.409375)" xlink:href="#STIXGeneral-Italic-82"/>
     <use transform="translate(61.099991 0.409375)" xlink:href="#STIXGeneral-Italic-101"/>
     <use transform="translate(119.939981 0.409375)" xlink:href="#STIXGeneral-Regular-61"/>
     <use transform="translate(202.879962 0.409375)" xlink:href="#STIXGeneral-Regular-49"/>
     <use transform="translate(252.879947 0.409375)" xlink:href="#STIXGeneral-Regular-48"/>
     <use transform="translate(304.423213 35.684375)scale(0.7)" xlink:href="#STIXGeneral-Regular-50"/>
    </g>
   </g>
   <g id="legend_1">
    <g id="line2d_33">
     <path d="M 257.839707 34.18375 
L 289.493707 34.18375 
" style="fill:none;stroke:#1f77b4;stroke-linecap:square;stroke-width:2;"/>
    </g>
    <g id="line2d_34"/>
    <g id="text_7">
     <!-- $s/c = 1.5$ -->
     <defs>
      <path d="M 36.59375 44.203125 
L 34.59375 30.203125 
L 33 30.203125 
Q 31.59375 41.796875 24.09375 41.796875 
Q 21.40625 41.796875 19.796875 40.296875 
Q 18.203125 38.796875 18.203125 36.09375 
Q 18.203125 32.296875 23.59375 25.90625 
Q 30.40625 18 30.40625 12.296875 
Q 30.40625 6.203125 26.34375 2.546875 
Q 22.296875 -1.09375 16 -1.09375 
Q 13.09375 -1.09375 10.5 -0.09375 
Q 8.40625 0.796875 6.09375 0.796875 
Q 4.09375 0.796875 3.203125 -1.296875 
L 1.59375 -1.296875 
L 3.59375 14.59375 
L 5.203125 14.59375 
Q 7.203125 1 15.203125 1 
Q 18.796875 1 20.796875 3 
Q 22.796875 5 22.796875 8.703125 
Q 22.796875 13.203125 17.203125 20.203125 
Q 10.90625 28.09375 10.90625 33.296875 
Q 10.90625 38.296875 14.203125 41.1875 
Q 17.5 44.09375 23 44.09375 
Q 25 44.09375 28.59375 43.09375 
Q 30.796875 42.40625 32.203125 42.40625 
Q 34.203125 42.40625 35.203125 44.203125 
z
" id="STIXGeneral-Italic-115"/>
      <path d="M 28.703125 67.59375 
L 5.90625 -1.40625 
L -0.90625 -1.40625 
L 22 67.59375 
z
" id="STIXGeneral-Regular-47"/>
      <path d="M 35 10.703125 
L 36.59375 9.703125 
Q 32 3.90625 27.640625 1.40625 
Q 23.296875 -1.09375 17.703125 -1.09375 
Q 10.59375 -1.09375 6.796875 2.796875 
Q 3 6.703125 3 14.296875 
Q 3 21 6.390625 27.25 
Q 9.796875 33.5 15.296875 38 
Q 23 44.09375 32 44.09375 
Q 36.59375 44.09375 39.546875 41.796875 
Q 42.5 39.5 42.5 36 
Q 42.5 34 41.09375 32.59375 
Q 39.703125 31.203125 37.703125 31.203125 
Q 35.703125 31.203125 34.75 32.34375 
Q 33.796875 33.5 33.796875 35.203125 
Q 33.796875 36.09375 34.546875 37.546875 
Q 35.296875 39 35.296875 40 
Q 35.296875 42 31.59375 42 
Q 25.296875 42 20.703125 37.203125 
Q 11.59375 27.59375 11.59375 13.90625 
Q 11.59375 8.5 13.890625 5.5 
Q 16.203125 2.5 20.5 2.5 
Q 24.40625 2.5 27.59375 4.390625 
Q 30.796875 6.296875 35 10.703125 
z
" id="STIXGeneral-Italic-99"/>
      <path d="M 18.09375 4.296875 
Q 18.09375 2.09375 16.4375 0.5 
Q 14.796875 -1.09375 12.5 -1.09375 
Q 10.203125 -1.09375 8.59375 0.5 
Q 7 2.09375 7 4.390625 
Q 7 6.703125 8.640625 8.34375 
Q 10.296875 10 12.59375 10 
Q 14.796875 10 16.4375 8.296875 
Q 18.09375 6.59375 18.09375 4.296875 
z
" id="STIXGeneral-Regular-46"/>
     </defs>
     <g transform="translate(302.155307 39.7232)scale(0.15827 -0.15827)">
      <use transform="translate(0 0.203125)" xlink:href="#STIXGeneral-Italic-115"/>
      <use transform="translate(38.899994 0.203125)" xlink:href="#STIXGeneral-Regular-47"/>
      <use transform="translate(66.699982 0.203125)" xlink:href="#STIXGeneral-Italic-99"/>
      <use transform="translate(125.539972 0.203125)" xlink:href="#STIXGeneral-Regular-61"/>
      <use transform="translate(208.479953 0.203125)" xlink:href="#STIXGeneral-Regular-49"/>
      <use transform="translate(258.479938 0.203125)" xlink:href="#STIXGeneral-Regular-46"/>
      <use transform="translate(283.479922 0.203125)" xlink:href="#STIXGeneral-Regular-53"/>
     </g>
    </g>
    <g id="line2d_35">
     <path d="M 386.671487 34.18375 
L 418.325487 34.18375 
" style="fill:none;stroke:#ff7f0e;stroke-linecap:square;stroke-width:2;"/>
    </g>
    <g id="line2d_36"/>
    <g id="text_8">
     <!-- $s/c = 3.0$ -->
     <defs>
      <path d="M 6.09375 51 
L 4.5 51.40625 
Q 6.796875 58.90625 11.6875 63.25 
Q 16.59375 67.59375 24.09375 67.59375 
Q 31.09375 67.59375 35.390625 63.796875 
Q 39.703125 60 39.703125 53.90625 
Q 39.703125 45.703125 30.40625 40.09375 
Q 35.90625 37.703125 38.703125 34.796875 
Q 43.09375 29.90625 43.09375 21.90625 
Q 43.09375 13.90625 38.5 7.90625 
Q 35.09375 3.296875 28.75 0.9375 
Q 22.40625 -1.40625 15.296875 -1.40625 
Q 4.09375 -1.40625 4.09375 4.296875 
Q 4.09375 5.90625 5.296875 6.90625 
Q 6.5 7.90625 8.203125 7.90625 
Q 10.703125 7.90625 14.296875 5.296875 
Q 18.703125 2.203125 22.90625 2.203125 
Q 28.40625 2.203125 32.15625 6.640625 
Q 35.90625 11.09375 35.90625 17.5 
Q 35.90625 29 25.5 32 
Q 22.40625 33 15.296875 33 
L 15.296875 34.40625 
Q 20.90625 36.296875 23.703125 38 
Q 31.796875 42.59375 31.796875 51.40625 
Q 31.796875 56.40625 28.9375 59 
Q 26.09375 61.59375 21 61.59375 
Q 12 61.59375 6.09375 51 
z
" id="STIXGeneral-Regular-51"/>
     </defs>
     <g transform="translate(430.987087 39.7232)scale(0.15827 -0.15827)">
      <use transform="translate(0 0.40625)" xlink:href="#STIXGeneral-Italic-115"/>
      <use transform="translate(38.899994 0.40625)" xlink:href="#STIXGeneral-Regular-47"/>
      <use transform="translate(66.699982 0.40625)" xlink:href="#STIXGeneral-Italic-99"/>
      <use transform="translate(125.539972 0.40625)" xlink:href="#STIXGeneral-Regular-61"/>
      <use transform="translate(208.479953 0.40625)" xlink:href="#STIXGeneral-Regular-51"/>
      <use transform="translate(258.479938 0.40625)" xlink:href="#STIXGeneral-Regular-46"/>
      <use transform="translate(283.479922 0.40625)" xlink:href="#STIXGeneral-Regular-48"/>
     </g>
    </g>
    <g id="line2d_37">
     <path d="M 515.503267 34.18375 
L 547.157267 34.18375 
" style="fill:none;stroke:#2ca02c;stroke-linecap:square;stroke-width:2;"/>
    </g>
    <g id="line2d_38"/>
    <g id="text_9">
     <!-- $s/c = 6.0$ -->
     <defs>
      <path d="M 44.59375 68.40625 
L 44.796875 66.796875 
Q 33 64.90625 25.09375 57.25 
Q 17.203125 49.59375 15.203125 38.296875 
Q 21 42.796875 27.90625 42.796875 
Q 36.703125 42.796875 41.75 37.1875 
Q 46.796875 31.59375 46.796875 21.90625 
Q 46.796875 12.09375 41.703125 5.90625 
Q 35.796875 -1.40625 25.796875 -1.40625 
Q 13.59375 -1.40625 8.09375 8.703125 
Q 3.40625 17.296875 3.40625 27.90625 
Q 3.40625 44.296875 14.296875 55.5 
Q 20.5 61.90625 27.046875 64.546875 
Q 33.59375 67.203125 44.59375 68.40625 
z
M 37.796875 18.796875 
Q 37.796875 38.203125 24.296875 38.203125 
Q 19.296875 38.203125 16 35.546875 
Q 12.703125 32.90625 12.703125 26.59375 
Q 12.703125 14.90625 16.34375 8.15625 
Q 20 1.40625 26.90625 1.40625 
Q 32.203125 1.40625 35 6.15625 
Q 37.796875 10.90625 37.796875 18.796875 
z
" id="STIXGeneral-Regular-54"/>
     </defs>
     <g transform="translate(559.818867 39.7232)scale(0.15827 -0.15827)">
      <use transform="translate(0 0.59375)" xlink:href="#STIXGeneral-Italic-115"/>
      <use transform="translate(38.899994 0.59375)" xlink:href="#STIXGeneral-Regular-47"/>
      <use transform="translate(66.699982 0.59375)" xlink:href="#STIXGeneral-Italic-99"/>
      <use transform="translate(125.539972 0.59375)" xlink:href="#STIXGeneral-Regular-61"/>
      <use transform="translate(208.479953 0.59375)" xlink:href="#STIXGeneral-Regular-54"/>
      <use transform="translate(258.479938 0.59375)" xlink:href="#STIXGeneral-Regular-46"/>
      <use transform="translate(283.479922 0.59375)" xlink:href="#STIXGeneral-Regular-48"/>
     </g>
    </g>
   </g>
  </g>
  <g id="axes_3">
   <g id="patch_12">
    <path d="M 86.4 345.6 
L 412.437736 345.6 
L 412.437736 201.6 
L 86.4 201.6 
z
" style="fill:#ffffff;"/>
   </g>
   <g id="matplotlib.axis_5">
    <g id="xtick_11">
     <g id="line2d_39">
      <g>
       <use style="fill:#ffffff;stroke:#000000;stroke-width:0.8;" x="86.4" xlink:href="#md6122381fa" y="345.6"/>
      </g>
     </g>
     <g id="text_10">
      <!-- 0.0 -->
      <g transform="translate(74.525 365.576406)scale(0.19 -0.19)">
       <use xlink:href="#STIXGeneral-Regular-48"/>
       <use x="49.999985" xlink:href="#STIXGeneral-Regular-46"/>
       <use x="74.999969" xlink:href="#STIXGeneral-Regular-48"/>
      </g>
     </g>
    </g>
    <g id="xtick_12">
     <g id="line2d_40">
      <g>
       <use style="fill:#ffffff;stroke:#000000;stroke-width:0.8;" x="167.909434" xlink:href="#md6122381fa" y="345.6"/>
      </g>
     </g>
     <g id="text_11">
      <!-- 0.5 -->
      <g transform="translate(156.034434 365.576406)scale(0.19 -0.19)">
       <use xlink:href="#STIXGeneral-Regular-48"/>
       <use x="49.999985" xlink:href="#STIXGeneral-Regular-46"/>
       <use x="74.999969" xlink:href="#STIXGeneral-Regular-53"/>
      </g>
     </g>
    </g>
    <g id="xtick_13">
     <g id="line2d_41">
      <g>
       <use style="fill:#ffffff;stroke:#000000;stroke-width:0.8;" x="249.418868" xlink:href="#md6122381fa" y="345.6"/>
      </g>
     </g>
     <g id="text_12">
      <!-- 1.0 -->
      <g transform="translate(237.543868 365.576406)scale(0.19 -0.19)">
       <use xlink:href="#STIXGeneral-Regular-49"/>
       <use x="49.999985" xlink:href="#STIXGeneral-Regular-46"/>
       <use x="74.999969" xlink:href="#STIXGeneral-Regular-48"/>
      </g>
     </g>
    </g>
    <g id="xtick_14">
     <g id="line2d_42">
      <g>
       <use style="fill:#ffffff;stroke:#000000;stroke-width:0.8;" x="330.928302" xlink:href="#md6122381fa" y="345.6"/>
      </g>
     </g>
     <g id="text_13">
      <!-- 1.5 -->
      <g transform="translate(319.053302 365.576406)scale(0.19 -0.19)">
       <use xlink:href="#STIXGeneral-Regular-49"/>
       <use x="49.999985" xlink:href="#STIXGeneral-Regular-46"/>
       <use x="74.999969" xlink:href="#STIXGeneral-Regular-53"/>
      </g>
     </g>
    </g>
    <g id="xtick_15">
     <g id="line2d_43">
      <g>
       <use style="fill:#ffffff;stroke:#000000;stroke-width:0.8;" x="412.437736" xlink:href="#md6122381fa" y="345.6"/>
      </g>
     </g>
     <g id="text_14">
      <!-- 2.0 -->
      <g transform="translate(400.562736 365.576406)scale(0.19 -0.19)">
       <use xlink:href="#STIXGeneral-Regular-50"/>
       <use x="49.999985" xlink:href="#STIXGeneral-Regular-46"/>
       <use x="74.999969" xlink:href="#STIXGeneral-Regular-48"/>
      </g>
     </g>
    </g>
    <g id="text_15">
     <!-- $\^t$ -->
     <defs>
      <path d="M -7.5 50.703125 
L -10.90625 50.703125 
L -23.09375 61 
L -35.203125 50.703125 
L -38.59375 50.703125 
L -26.203125 67.40625 
L -20 67.40625 
z
" id="STIXGeneral-Regular-770"/>
      <path d="M 29.59375 42.796875 
L 29.09375 39.59375 
L 20.703125 39.59375 
L 12 6.796875 
Q 11.796875 6 11.796875 5.40625 
Q 11.796875 3.796875 13.296875 3.796875 
Q 14.5 3.796875 16.09375 5.34375 
Q 17.703125 6.90625 21.40625 11.703125 
L 22.703125 11 
Q 18.09375 4 15.140625 1.453125 
Q 12.203125 -1.09375 8.40625 -1.09375 
Q 3.796875 -1.09375 3.796875 2.59375 
Q 3.796875 3.59375 5.40625 10 
L 13.203125 39.59375 
L 5.703125 39.59375 
L 5.59375 40.203125 
Q 5.59375 42 8.90625 42.703125 
Q 11.40625 43.296875 15.5 46.546875 
Q 19.59375 49.796875 22.203125 53.703125 
Q 22.796875 54.59375 23.59375 54.59375 
Q 24.5 54.59375 24.5 53.796875 
Q 24.5 53.296875 24.40625 53.09375 
L 21.59375 42.796875 
z
" id="STIXGeneral-Italic-116"/>
     </defs>
     <g transform="translate(246.758868 386.676406)scale(0.19 -0.19)">
      <use transform="translate(39.042969 16.59375)" xlink:href="#STIXGeneral-Regular-770"/>
      <use transform="translate(0 0.203125)" xlink:href="#STIXGeneral-Italic-116"/>
     </g>
    </g>
   </g>
   <g id="matplotlib.axis_6">
    <g id="ytick_7">
     <g id="line2d_44">
      <g>
       <use style="fill:#ffffff;stroke:#000000;stroke-width:0.8;" x="86.4" xlink:href="#mf59119d967" y="313.389474"/>
      </g>
     </g>
     <g id="text_16">
      <!-- −25 -->
      <g transform="translate(47.385 319.877677)scale(0.19 -0.19)">
       <use xlink:href="#STIXGeneral-Regular-8722"/>
       <use x="68.499985" xlink:href="#STIXGeneral-Regular-50"/>
       <use x="118.499969" xlink:href="#STIXGeneral-Regular-53"/>
      </g>
     </g>
    </g>
    <g id="ytick_8">
     <g id="line2d_45">
      <g>
       <use style="fill:#ffffff;stroke:#000000;stroke-width:0.8;" x="86.4" xlink:href="#mf59119d967" y="266.021053"/>
      </g>
     </g>
     <g id="text_17">
      <!-- 0 -->
      <g transform="translate(69.9 272.509256)scale(0.19 -0.19)">
       <use xlink:href="#STIXGeneral-Regular-48"/>
      </g>
     </g>
    </g>
    <g id="ytick_9">
     <g id="line2d_46">
      <g>
       <use style="fill:#ffffff;stroke:#000000;stroke-width:0.8;" x="86.4" xlink:href="#mf59119d967" y="218.652632"/>
      </g>
     </g>
     <g id="text_18">
      <!-- 25 -->
      <g transform="translate(60.4 225.140835)scale(0.19 -0.19)">
       <use xlink:href="#STIXGeneral-Regular-50"/>
       <use x="49.999985" xlink:href="#STIXGeneral-Regular-53"/>
      </g>
     </g>
    </g>
    <g id="text_19">
     <!-- $C_l$ -->
     <g transform="translate(39.261406 282.245)rotate(-90)scale(0.19 -0.19)">
      <use transform="translate(0 0.40625)" xlink:href="#STIXGeneral-Italic-67"/>
      <use transform="translate(66.699997 -12.821875)scale(0.7)" xlink:href="#STIXGeneral-Italic-108"/>
     </g>
    </g>
   </g>
   <g id="line2d_47">
    <path clip-path="url(#pdde0070360)" d="M 86.889057 265.817377 
L 88.030189 265.147343 
L 88.519245 264.564875 
L 89.171321 263.391739 
L 90.964528 259.741891 
L 91.616604 259.077333 
L 92.268679 258.713327 
L 93.246792 258.454594 
L 95.203019 258.251781 
L 99.278491 257.833728 
L 101.886792 257.331457 
L 104.332075 256.634499 
L 106.451321 256.074808 
L 107.103396 256.088301 
L 107.592453 256.258771 
L 108.081509 256.661617 
L 108.570566 257.323236 
L 109.548679 259.213159 
L 110.363774 260.585009 
L 111.015849 261.241355 
L 111.667925 261.579144 
L 112.646038 261.783442 
L 114.602264 261.880898 
L 122.264151 261.888304 
L 221.542642 261.788424 
L 222.520755 261.591356 
L 223.335849 261.098357 
L 223.824906 260.472844 
L 224.313962 259.380414 
L 224.803019 257.519525 
L 225.292075 254.513243 
L 225.781132 250.026694 
L 226.596226 239.652145 
L 227.57434 227.774315 
L 228.063396 224.167278 
L 228.552453 222.253665 
L 228.878491 221.578058 
L 229.204528 221.242657 
L 229.530566 221.182622 
L 229.856604 221.458202 
L 230.182642 222.158155 
L 230.508679 223.375873 
L 230.997736 226.814849 
L 231.81283 235.707732 
L 232.790943 245.472124 
L 233.443019 249.561172 
L 234.095094 252.265922 
L 234.74717 254.303458 
L 236.051321 257.42253 
L 239.474717 264.574272 
L 240.45283 267.538222 
L 241.267925 269.893615 
L 241.756981 270.731835 
L 242.083019 270.966264 
L 242.409057 270.970723 
L 242.898113 270.697647 
L 244.202264 269.763532 
L 244.691321 269.685596 
L 245.506415 269.837737 
L 246.810566 270.113643 
L 247.462642 269.928328 
L 249.907925 268.789063 
L 252.353208 267.958497 
L 255.613585 267.101214 
L 259.2 266.464436 
L 261.971321 266.175048 
L 266.535849 265.951871 
L 273.382642 265.860156 
L 304.356226 265.836246 
L 377.388679 266.009672 
L 412.600755 266.007835 
L 412.600755 266.007835 
" style="fill:none;stroke:#1f77b4;stroke-linecap:square;stroke-width:2;"/>
   </g>
   <g id="line2d_48">
    <path clip-path="url(#pdde0070360)" d="M 86.889057 265.918245 
L 88.193208 265.49663 
L 88.845283 265.019732 
L 89.823396 263.946427 
L 90.801509 262.965022 
L 91.616604 262.505111 
L 92.594717 262.254255 
L 94.550943 262.069626 
L 98.137358 261.709988 
L 100.582642 261.236093 
L 103.353962 260.45899 
L 107.103396 259.388153 
L 107.918491 259.448934 
L 108.570566 259.752681 
L 109.548679 260.570328 
L 110.526792 261.278654 
L 111.341887 261.575292 
L 112.483019 261.731116 
L 115.091321 261.819473 
L 125.035472 261.881422 
L 183.070189 262.050453 
L 186.819623 262.124416 
L 201.980377 262.533861 
L 209.316226 262.808817 
L 217.304151 263.166044 
L 223.009811 263.364212 
L 223.987925 263.173421 
L 224.64 262.801621 
L 225.129057 262.279548 
L 225.618113 261.463834 
L 226.270189 259.8742 
L 227.737358 256.026843 
L 228.389434 255.050872 
L 229.041509 254.438725 
L 229.693585 254.104248 
L 230.019623 254.119385 
L 230.34566 254.318281 
L 230.671698 254.751541 
L 231.160755 255.82694 
L 233.28 261.428234 
L 234.095094 262.622102 
L 235.073208 263.641802 
L 236.21434 264.543993 
L 237.844528 265.554675 
L 240.126792 266.951225 
L 241.267925 267.678582 
L 241.92 267.829194 
L 242.572075 267.72482 
L 245.017358 267.014666 
L 246.484528 267.061823 
L 248.114717 267.017715 
L 258.873962 265.883262 
L 263.112453 265.703016 
L 269.796226 265.656987 
L 291.966792 265.851772 
L 316.256604 266.01239 
L 405.101887 266.053796 
L 412.600755 266.051759 
L 412.600755 266.051759 
" style="fill:none;stroke:#ff7f0e;stroke-linecap:square;stroke-width:2;"/>
   </g>
   <g id="line2d_49">
    <path clip-path="url(#pdde0070360)" d="M 86.889057 265.969049 
L 88.519245 265.650417 
L 89.497358 265.165858 
L 90.964528 264.41037 
L 92.10566 264.151348 
L 94.387925 263.967601 
L 97.485283 263.632301 
L 100.093585 263.113116 
L 103.353962 262.230114 
L 107.918491 260.972658 
L 108.733585 261.056948 
L 111.993962 261.774719 
L 115.580377 261.869166 
L 124.057358 261.877964 
L 139.055094 261.965786 
L 146.88 262.223114 
L 162.69283 263.469296 
L 170.028679 264.216789 
L 174.104151 264.124052 
L 182.418113 263.344721 
L 190.895094 263.08342 
L 196.437736 263.196834 
L 202.958491 263.306076 
L 205.566792 263.207001 
L 212.087547 262.449504 
L 218.445283 261.58761 
L 225.618113 260.739923 
L 228.389434 259.770684 
L 229.367547 259.844195 
L 230.182642 260.135422 
L 230.834717 260.587973 
L 231.975849 261.76797 
L 233.116981 262.832966 
L 234.421132 263.688496 
L 236.377358 264.664948 
L 238.170566 265.315985 
L 240.941887 266.045046 
L 242.246038 266.196237 
L 250.396981 266.24974 
L 258.547925 266.09692 
L 271.915472 266.052915 
L 312.996226 266.131727 
L 347.719245 265.974137 
L 358.967547 265.974385 
L 385.213585 265.913394 
L 408.036226 265.942497 
L 412.600755 265.961504 
L 412.600755 265.961504 
" style="fill:none;stroke:#2ca02c;stroke-linecap:square;stroke-width:2;"/>
   </g>
   <g id="line2d_50">
    <path clip-path="url(#pdde0070360)" d="M 86.4 266.021053 
L 412.437736 266.021053 
" style="fill:none;stroke:#000000;stroke-dasharray:3.2,0.8,0.5,0.8;stroke-dashoffset:0;stroke-width:0.5;"/>
   </g>
   <g id="line2d_51">
    <path clip-path="url(#pdde0070360)" d="M 249.418868 345.6 
L 249.418868 201.6 
" style="fill:none;stroke:#000000;stroke-linecap:square;stroke-width:0.5;"/>
   </g>
   <g id="line2d_52">
    <path clip-path="url(#pdde0070360)" d="M 282.022642 345.6 
L 282.022642 201.6 
" style="fill:none;stroke:#000000;stroke-dasharray:6.4,1.6,1,1.6;stroke-dashoffset:0;stroke-opacity:0.25;"/>
   </g>
   <g id="line2d_53">
    <path clip-path="url(#pdde0070360)" d="M 314.626415 345.6 
L 314.626415 201.6 
" style="fill:none;stroke:#000000;stroke-dasharray:6.4,1.6,1,1.6;stroke-dashoffset:0;stroke-opacity:0.25;"/>
   </g>
   <g id="line2d_54">
    <path clip-path="url(#pdde0070360)" d="M 347.230189 345.6 
L 347.230189 201.6 
" style="fill:none;stroke:#000000;stroke-dasharray:6.4,1.6,1,1.6;stroke-dashoffset:0;stroke-opacity:0.25;"/>
   </g>
   <g id="patch_13">
    <path d="M 86.4 345.6 
L 86.4 201.6 
" style="fill:none;stroke:#000000;stroke-linecap:square;stroke-linejoin:miter;stroke-width:0.8;"/>
   </g>
   <g id="patch_14">
    <path d="M 412.437736 345.6 
L 412.437736 201.6 
" style="fill:none;stroke:#000000;stroke-linecap:square;stroke-linejoin:miter;stroke-width:0.8;"/>
   </g>
   <g id="patch_15">
    <path d="M 86.4 345.6 
L 412.437736 345.6 
" style="fill:none;stroke:#000000;stroke-linecap:square;stroke-linejoin:miter;stroke-width:0.8;"/>
   </g>
   <g id="patch_16">
    <path d="M 86.4 201.6 
L 412.437736 201.6 
" style="fill:none;stroke:#000000;stroke-linecap:square;stroke-linejoin:miter;stroke-width:0.8;"/>
   </g>
   <g id="text_20">
    <!-- Stroke motion -->
    <defs>
     <path d="M 46.90625 46.296875 
L 44.40625 46.296875 
Q 42.703125 52.5 40.296875 55.703125 
Q 34.203125 63.5 25.796875 63.5 
Q 21.203125 63.5 18.453125 60.84375 
Q 15.703125 58.203125 15.703125 54 
Q 15.703125 52 16.703125 50.09375 
Q 17.703125 48.203125 18.84375 46.84375 
Q 20 45.5 22.890625 43.5 
Q 25.796875 41.5 27.59375 40.453125 
Q 29.40625 39.40625 33.59375 36.90625 
Q 41.703125 32.203125 45.390625 27.546875 
Q 49.09375 22.90625 49.09375 17.296875 
Q 49.09375 9 43.296875 3.796875 
Q 37.5 -1.40625 28.703125 -1.40625 
Q 22.203125 -1.40625 16.90625 0.90625 
Q 14.296875 2 12.203125 2 
Q 11 2 10.203125 1.09375 
Q 9.40625 0.203125 9.40625 -1.296875 
L 7.203125 -1.296875 
L 4.296875 19.90625 
L 6.5 19.90625 
Q 13.203125 2.203125 27.09375 2.203125 
Q 32.40625 2.203125 35.703125 5.34375 
Q 39 8.5 39 13.40625 
Q 39 18.09375 36.09375 21.296875 
Q 31.296875 26.5 19.296875 32.90625 
Q 7.09375 39.40625 7.09375 50.09375 
Q 7.09375 58.09375 12 62.84375 
Q 16.90625 67.59375 24.5 67.59375 
Q 29.796875 67.59375 35 65.40625 
Q 37.703125 64.203125 39.40625 64.203125 
Q 42 64.203125 42.59375 67.59375 
L 44.703125 67.59375 
z
" id="STIXGeneral-Regular-83"/>
     <path d="M 26.59375 7.703125 
L 27.90625 6.59375 
Q 23.09375 -1 15.796875 -1 
Q 7 -1 7 11.703125 
L 7 41.796875 
L 1.703125 41.796875 
Q 1.296875 42.09375 1.296875 42.5 
Q 1.296875 43.296875 3 44.40625 
Q 6.796875 46.59375 12.703125 55.09375 
Q 12.90625 55.40625 13.65625 56.34375 
Q 14.40625 57.296875 14.703125 57.90625 
Q 15.40625 57.90625 15.40625 56.59375 
L 15.40625 45 
L 25.5 45 
L 25.5 41.796875 
L 15.40625 41.796875 
L 15.40625 13.203125 
Q 15.40625 8.40625 16.59375 6.296875 
Q 17.796875 4.203125 20.59375 4.203125 
Q 23.59375 4.203125 26.59375 7.703125 
z
" id="STIXGeneral-Regular-116"/>
     <path d="M 16 45.796875 
L 16 36.59375 
Q 19.796875 42 22.34375 44 
Q 24.90625 46 28 46 
Q 30.59375 46 32.046875 44.59375 
Q 33.5 43.203125 33.5 40.703125 
Q 33.5 38.59375 32.453125 37.390625 
Q 31.40625 36.203125 29.59375 36.203125 
Q 27.703125 36.203125 25.59375 38.203125 
Q 24 39.703125 23 39.703125 
Q 20.90625 39.703125 18.453125 36.796875 
Q 16 33.90625 16 31.5 
L 16 9 
Q 16 4.703125 17.703125 3.203125 
Q 19.40625 1.703125 24.5 1.5 
L 24.5 0 
L 0.5 0 
L 0.5 1.5 
Q 5.296875 2.40625 6.4375 3.5 
Q 7.59375 4.59375 7.59375 8.40625 
L 7.59375 33.40625 
Q 7.59375 36.703125 6.84375 38.046875 
Q 6.09375 39.40625 4.203125 39.40625 
Q 2.59375 39.40625 0.703125 39 
L 0.703125 40.59375 
Q 7 42.59375 15.5 46 
z
" id="STIXGeneral-Regular-114"/>
     <path d="M 47 23.09375 
Q 47 12.59375 40.75 5.796875 
Q 34.5 -1 24.5 -1 
Q 15.296875 -1 9.09375 5.75 
Q 2.90625 12.5 2.90625 22.796875 
Q 2.90625 33.203125 9.09375 39.59375 
Q 15.296875 46 25.40625 46 
Q 34.703125 46 40.84375 39.640625 
Q 47 33.296875 47 23.09375 
z
M 38 20.40625 
Q 38 31.796875 33 38.203125 
Q 29 43.203125 23.5 43.203125 
Q 18.296875 43.203125 15.09375 38.953125 
Q 11.90625 34.703125 11.90625 27.296875 
Q 11.90625 14.5 17.203125 6.796875 
Q 20.59375 1.796875 26.203125 1.796875 
Q 31.703125 1.796875 34.84375 6.75 
Q 38 11.703125 38 20.40625 
z
" id="STIXGeneral-Regular-111"/>
     <path d="M 50.5 0 
L 28.703125 0 
L 28.703125 1.5 
L 30.59375 1.5 
Q 32.703125 1.5 32.703125 3 
Q 32.703125 3.90625 31.59375 5.296875 
L 16.59375 25.09375 
L 16.59375 6.703125 
Q 16.59375 4.09375 17.84375 2.890625 
Q 19.09375 1.703125 22.09375 1.59375 
L 24.09375 1.5 
L 24.09375 0 
L 0.703125 0 
L 0.703125 1.5 
Q 6.09375 2.40625 7.140625 3.34375 
Q 8.203125 4.296875 8.203125 8.203125 
L 8.203125 56.40625 
Q 8.203125 60 7.296875 61.25 
Q 6.40625 62.5 3.90625 62.5 
Q 3.296875 62.5 0.703125 62.296875 
L 0.703125 63.90625 
L 3.703125 64.703125 
Q 9.703125 66.296875 16.203125 68.296875 
L 16.59375 68.09375 
L 16.59375 26.09375 
L 30.296875 38.296875 
Q 32.59375 40.40625 32.59375 41.796875 
Q 32.59375 42.796875 31.546875 43.140625 
Q 30.5 43.5 27.59375 43.59375 
L 27.59375 45 
L 48 45 
L 48 43.5 
Q 43 43.5 39.140625 41.34375 
Q 35.296875 39.203125 26.40625 30.90625 
L 23.5 28.203125 
L 38.796875 8.796875 
Q 44.203125 1.90625 50.5 1.5 
z
" id="STIXGeneral-Regular-107"/>
     <path d="M 40.796875 16.40625 
L 42.40625 15.703125 
Q 36.40625 -1 21.5 -1 
Q 12.703125 -1 7.59375 5.140625 
Q 2.5 11.296875 2.5 21.703125 
Q 2.5 32.40625 8.203125 39.203125 
Q 13.90625 46 23.203125 46 
Q 32.203125 46 37.09375 39.09375 
Q 40 35.09375 40.5 27.703125 
L 9.703125 27.703125 
Q 10.09375 21.40625 10.9375 18.09375 
Q 11.796875 14.796875 14.296875 11.40625 
Q 18.5 5.90625 25.40625 5.90625 
Q 30.296875 5.90625 33.640625 8.296875 
Q 37 10.703125 40.796875 16.40625 
z
M 9.90625 30.90625 
L 30.296875 30.90625 
Q 29.40625 37.203125 27.34375 39.796875 
Q 25.296875 42.40625 20.5 42.40625 
Q 16.296875 42.40625 13.5 39.453125 
Q 10.703125 36.5 9.90625 30.90625 
z
" id="STIXGeneral-Regular-101"/>
     <path id="STIXGeneral-Regular-32"/>
     <path d="M 77.5 0 
L 55.703125 0 
L 55.703125 1.5 
Q 59.90625 1.90625 61.046875 3.25 
Q 62.203125 4.59375 62.203125 9 
L 62.203125 29.59375 
Q 62.203125 35.59375 60.453125 38.1875 
Q 58.703125 40.796875 54.5 40.796875 
Q 51 40.796875 48.546875 39.390625 
Q 46.09375 38 43.796875 34.703125 
L 43.796875 9.5 
Q 43.796875 4.703125 45.25 3.140625 
Q 46.703125 1.59375 51 1.5 
L 51 0 
L 28.59375 0 
L 28.59375 1.5 
Q 33 1.796875 34.203125 2.9375 
Q 35.40625 4.09375 35.40625 8.59375 
L 35.40625 29.703125 
Q 35.40625 40.796875 28.90625 40.796875 
Q 26.09375 40.796875 22.9375 39.546875 
Q 19.796875 38.296875 18.296875 36.5 
Q 17 35 17 34.796875 
L 17 7 
Q 17 3.796875 18.390625 2.75 
Q 19.796875 1.703125 23.796875 1.5 
L 23.796875 0 
L 1.59375 0 
L 1.59375 1.5 
Q 5.796875 1.59375 7.1875 3.046875 
Q 8.59375 4.5 8.59375 8.796875 
L 8.59375 33.59375 
Q 8.59375 37.296875 7.796875 38.75 
Q 7 40.203125 5.09375 40.203125 
Q 3.59375 40.203125 1.90625 39.796875 
L 1.90625 41.5 
Q 8.703125 43.40625 15.796875 46 
L 16.59375 45.703125 
L 16.59375 38.296875 
L 16.796875 38.296875 
Q 21.296875 43 24.75 44.5 
Q 28.203125 46 32.09375 46 
Q 40 46 42.703125 37.59375 
Q 50.5 46 59 46 
Q 70.59375 46 70.59375 28 
L 70.59375 7.703125 
Q 70.59375 4.40625 71.59375 3.15625 
Q 72.59375 1.90625 74.90625 1.703125 
L 77.5 1.5 
z
" id="STIXGeneral-Regular-109"/>
     <path d="M 18 63.203125 
Q 18 61 16.5 59.546875 
Q 15 58.09375 12.796875 58.09375 
Q 10.703125 58.09375 9.25 59.546875 
Q 7.796875 61 7.796875 63.203125 
Q 7.796875 65.296875 9.296875 66.796875 
Q 10.796875 68.296875 12.90625 68.296875 
Q 15.09375 68.296875 16.546875 66.796875 
Q 18 65.296875 18 63.203125 
z
M 25.296875 0 
L 1.59375 0 
L 1.59375 1.5 
Q 6.796875 1.796875 8.140625 3.296875 
Q 9.5 4.796875 9.5 10.40625 
L 9.5 33.09375 
Q 9.5 36.59375 8.796875 38 
Q 8.09375 39.40625 6.203125 39.40625 
Q 3.796875 39.40625 2 38.90625 
L 2 40.5 
L 17.5 46 
L 17.90625 45.59375 
L 17.90625 10.5 
Q 17.90625 4.90625 19.15625 3.40625 
Q 20.40625 1.90625 25.296875 1.5 
z
" id="STIXGeneral-Regular-105"/>
     <path d="M 48.5 0 
L 27.703125 0 
L 27.796875 1.5 
Q 31.5 1.796875 32.75 3.640625 
Q 34 5.5 34 10.5 
L 34 30.40625 
Q 34 40.5 26.703125 40.5 
Q 24.203125 40.5 22 39.296875 
Q 19.796875 38.09375 16.40625 34.796875 
L 16.40625 7.203125 
Q 16.40625 4.203125 17.75 3 
Q 19.09375 1.796875 22.90625 1.5 
L 22.90625 0 
L 1.796875 0 
L 1.796875 1.5 
Q 5.59375 1.796875 6.796875 3.34375 
Q 8 4.90625 8 9.40625 
L 8 33.703125 
Q 8 37.40625 7.296875 38.796875 
Q 6.59375 40.203125 4.5 40.203125 
Q 2.5 40.203125 1.59375 39.796875 
L 1.59375 41.5 
Q 8.59375 43.5 15.296875 46 
L 16.09375 45.703125 
L 16.09375 37.90625 
L 16.203125 37.90625 
Q 23.296875 46 30.59375 46 
Q 36.296875 46 39.34375 42 
Q 42.40625 38 42.40625 30.59375 
L 42.40625 8.5 
Q 42.40625 4.5 43.59375 3.203125 
Q 44.796875 1.90625 48.5 1.5 
z
" id="STIXGeneral-Regular-110"/>
    </defs>
    <g transform="translate(121.959362 342.826406)scale(0.19 -0.19)">
     <use xlink:href="#STIXGeneral-Regular-83"/>
     <use x="55.599991" xlink:href="#STIXGeneral-Regular-116"/>
     <use x="83.399979" xlink:href="#STIXGeneral-Regular-114"/>
     <use x="116.699966" xlink:href="#STIXGeneral-Regular-111"/>
     <use x="166.699951" xlink:href="#STIXGeneral-Regular-107"/>
     <use x="216.699936" xlink:href="#STIXGeneral-Regular-101"/>
     <use x="261.09993" xlink:href="#STIXGeneral-Regular-32"/>
     <use x="286.099915" xlink:href="#STIXGeneral-Regular-109"/>
     <use x="363.899902" xlink:href="#STIXGeneral-Regular-111"/>
     <use x="413.899887" xlink:href="#STIXGeneral-Regular-116"/>
     <use x="441.699875" xlink:href="#STIXGeneral-Regular-105"/>
     <use x="469.499863" xlink:href="#STIXGeneral-Regular-111"/>
     <use x="519.499847" xlink:href="#STIXGeneral-Regular-110"/>
    </g>
   </g>
   <g id="text_21">
    <!-- Wake interaction -->
    <defs>
     <path d="M 93.203125 66.203125 
L 93.203125 64.296875 
Q 89.203125 63.5 87.75 62.34375 
Q 86.296875 61.203125 84.90625 57.296875 
Q 73.5 26.703125 64.5 -1.09375 
L 63 -1.09375 
Q 56.90625 15.796875 47 41.203125 
L 31.59375 -1.09375 
L 30.09375 -1.09375 
Q 26.703125 9 19.953125 27.390625 
Q 13.203125 45.796875 10.90625 52.296875 
Q 8.40625 59.5 6.34375 61.84375 
Q 4.296875 64.203125 0.5 64.296875 
L 0.5 66.203125 
L 24.90625 66.203125 
L 24.90625 64.296875 
Q 21.203125 64.203125 19.84375 63.5 
Q 18.5 62.796875 18.5 61.203125 
Q 18.5 59.5 19.59375 56.5 
L 34 18.90625 
L 44.40625 47.203125 
L 41.59375 54.703125 
Q 39.203125 61.203125 37.5 62.703125 
Q 35.796875 64.203125 31.40625 64.296875 
L 31.40625 66.203125 
L 57.90625 66.203125 
L 57.90625 64.296875 
Q 50.203125 64.09375 50.203125 60.796875 
Q 50.203125 59.5 51.90625 55 
L 66.203125 18.59375 
L 78.796875 52.5 
Q 80.5 57.296875 80.5 60.203125 
Q 80.5 64.203125 73.5 64.296875 
L 73.5 66.203125 
z
" id="STIXGeneral-Regular-87"/>
     <path d="M 44.203125 6.59375 
L 44.203125 3.796875 
Q 40.40625 -1 35.203125 -1 
Q 29.5 -1 28.796875 6.296875 
L 28.703125 6.296875 
Q 22.296875 -1 14.203125 -1 
Q 9.5 -1 6.59375 1.75 
Q 3.703125 4.5 3.703125 9.40625 
Q 3.703125 16.40625 10.703125 21.09375 
Q 15.5 24.296875 28.703125 29.203125 
L 28.703125 34.59375 
Q 28.703125 39.09375 26.546875 41.34375 
Q 24.40625 43.59375 20.90625 43.59375 
Q 17.90625 43.59375 15.90625 42.140625 
Q 13.90625 40.703125 13.90625 38.703125 
Q 13.90625 37.796875 14.203125 36.6875 
Q 14.5 35.59375 14.5 34.5 
Q 14.5 33 13.140625 31.703125 
Q 11.796875 30.40625 9.90625 30.40625 
Q 8.203125 30.40625 6.890625 31.703125 
Q 5.59375 33 5.59375 35 
Q 5.59375 39.796875 10.703125 43 
Q 15.40625 46 22.203125 46 
Q 30.296875 46 34 41.5 
Q 35.796875 39.40625 36.296875 37.25 
Q 36.796875 35.09375 36.796875 30.40625 
L 36.796875 11.296875 
Q 36.796875 4.703125 39.90625 4.703125 
Q 41.90625 4.703125 44.203125 6.59375 
z
M 28.703125 12.703125 
L 28.703125 26.796875 
Q 19.5 23.59375 15.90625 20.203125 
Q 12.5 17.09375 12.5 12.5 
Q 12.5 8.703125 14.390625 6.75 
Q 16.296875 4.796875 19.40625 4.796875 
Q 22.703125 4.796875 25.203125 6.40625 
Q 27.296875 7.90625 28 9.203125 
Q 28.703125 10.5 28.703125 12.703125 
z
" id="STIXGeneral-Regular-97"/>
     <path d="M 39.796875 15.59375 
L 41.203125 14.703125 
Q 36.90625 6.296875 33 3.203125 
Q 27.90625 -1 21.5 -1 
Q 13.203125 -1 7.84375 5.25 
Q 2.5 11.5 2.5 21.203125 
Q 2.5 33.90625 10.90625 40.90625 
Q 17.09375 46 24.40625 46 
Q 30.703125 46 35.25 42.953125 
Q 39.796875 39.90625 39.796875 35.703125 
Q 39.796875 34 38.390625 32.75 
Q 37 31.5 35.09375 31.5 
Q 31.59375 31.5 30.296875 36.09375 
L 29.703125 38.296875 
Q 28.90625 41.09375 27.703125 42.09375 
Q 26.5 43.09375 23.796875 43.09375 
Q 17.703125 43.09375 13.953125 38.296875 
Q 10.203125 33.5 10.203125 25.703125 
Q 10.203125 17.09375 14.5 11.640625 
Q 18.796875 6.203125 25.703125 6.203125 
Q 30 6.203125 33.09375 8.25 
Q 36.203125 10.296875 39.796875 15.59375 
z
" id="STIXGeneral-Regular-99"/>
    </defs>
    <g transform="translate(273.916667 342.826406)scale(0.19 -0.19)">
     <use xlink:href="#STIXGeneral-Regular-87"/>
     <use x="94.399994" xlink:href="#STIXGeneral-Regular-97"/>
     <use x="138.799988" xlink:href="#STIXGeneral-Regular-107"/>
     <use x="188.799973" xlink:href="#STIXGeneral-Regular-101"/>
     <use x="233.199966" xlink:href="#STIXGeneral-Regular-32"/>
     <use x="258.199951" xlink:href="#STIXGeneral-Regular-105"/>
     <use x="285.999939" xlink:href="#STIXGeneral-Regular-110"/>
     <use x="335.999924" xlink:href="#STIXGeneral-Regular-116"/>
     <use x="363.799911" xlink:href="#STIXGeneral-Regular-101"/>
     <use x="408.199905" xlink:href="#STIXGeneral-Regular-114"/>
     <use x="441.499893" xlink:href="#STIXGeneral-Regular-97"/>
     <use x="485.899887" xlink:href="#STIXGeneral-Regular-99"/>
     <use x="530.299881" xlink:href="#STIXGeneral-Regular-116"/>
     <use x="558.099869" xlink:href="#STIXGeneral-Regular-105"/>
     <use x="585.899857" xlink:href="#STIXGeneral-Regular-111"/>
     <use x="635.899841" xlink:href="#STIXGeneral-Regular-110"/>
    </g>
   </g>
  </g>
  <g id="axes_4">
   <g id="patch_17">
    <path d="M 451.562264 345.6 
L 777.6 345.6 
L 777.6 201.6 
L 451.562264 201.6 
z
" style="fill:#ffffff;"/>
   </g>
   <g id="matplotlib.axis_7">
    <g id="xtick_16">
     <g id="line2d_55">
      <g>
       <use style="fill:#ffffff;stroke:#000000;stroke-width:0.8;" x="451.562264" xlink:href="#md6122381fa" y="345.6"/>
      </g>
     </g>
     <g id="text_22">
      <!-- 0.0 -->
      <g transform="translate(439.687264 365.576406)scale(0.19 -0.19)">
       <use xlink:href="#STIXGeneral-Regular-48"/>
       <use x="49.999985" xlink:href="#STIXGeneral-Regular-46"/>
       <use x="74.999969" xlink:href="#STIXGeneral-Regular-48"/>
      </g>
     </g>
    </g>
    <g id="xtick_17">
     <g id="line2d_56">
      <g>
       <use style="fill:#ffffff;stroke:#000000;stroke-width:0.8;" x="533.071698" xlink:href="#md6122381fa" y="345.6"/>
      </g>
     </g>
     <g id="text_23">
      <!-- 0.5 -->
      <g transform="translate(521.196698 365.576406)scale(0.19 -0.19)">
       <use xlink:href="#STIXGeneral-Regular-48"/>
       <use x="49.999985" xlink:href="#STIXGeneral-Regular-46"/>
       <use x="74.999969" xlink:href="#STIXGeneral-Regular-53"/>
      </g>
     </g>
    </g>
    <g id="xtick_18">
     <g id="line2d_57">
      <g>
       <use style="fill:#ffffff;stroke:#000000;stroke-width:0.8;" x="614.581132" xlink:href="#md6122381fa" y="345.6"/>
      </g>
     </g>
     <g id="text_24">
      <!-- 1.0 -->
      <g transform="translate(602.706132 365.576406)scale(0.19 -0.19)">
       <use xlink:href="#STIXGeneral-Regular-49"/>
       <use x="49.999985" xlink:href="#STIXGeneral-Regular-46"/>
       <use x="74.999969" xlink:href="#STIXGeneral-Regular-48"/>
      </g>
     </g>
    </g>
    <g id="xtick_19">
     <g id="line2d_58">
      <g>
       <use style="fill:#ffffff;stroke:#000000;stroke-width:0.8;" x="696.090566" xlink:href="#md6122381fa" y="345.6"/>
      </g>
     </g>
     <g id="text_25">
      <!-- 1.5 -->
      <g transform="translate(684.215566 365.576406)scale(0.19 -0.19)">
       <use xlink:href="#STIXGeneral-Regular-49"/>
       <use x="49.999985" xlink:href="#STIXGeneral-Regular-46"/>
       <use x="74.999969" xlink:href="#STIXGeneral-Regular-53"/>
      </g>
     </g>
    </g>
    <g id="xtick_20">
     <g id="line2d_59">
      <g>
       <use style="fill:#ffffff;stroke:#000000;stroke-width:0.8;" x="777.6" xlink:href="#md6122381fa" y="345.6"/>
      </g>
     </g>
     <g id="text_26">
      <!-- 2.0 -->
      <g transform="translate(765.725 365.576406)scale(0.19 -0.19)">
       <use xlink:href="#STIXGeneral-Regular-50"/>
       <use x="49.999985" xlink:href="#STIXGeneral-Regular-46"/>
       <use x="74.999969" xlink:href="#STIXGeneral-Regular-48"/>
      </g>
     </g>
    </g>
    <g id="text_27">
     <!-- $\^t$ -->
     <g transform="translate(611.921132 386.676406)scale(0.19 -0.19)">
      <use transform="translate(39.042969 16.59375)" xlink:href="#STIXGeneral-Regular-770"/>
      <use transform="translate(0 0.203125)" xlink:href="#STIXGeneral-Italic-116"/>
     </g>
    </g>
   </g>
   <g id="matplotlib.axis_8">
    <g id="ytick_10">
     <g id="line2d_60">
      <g>
       <use style="fill:#ffffff;stroke:#000000;stroke-width:0.8;" x="451.562264" xlink:href="#mf59119d967" y="313.389474"/>
      </g>
     </g>
    </g>
    <g id="ytick_11">
     <g id="line2d_61">
      <g>
       <use style="fill:#ffffff;stroke:#000000;stroke-width:0.8;" x="451.562264" xlink:href="#mf59119d967" y="266.021053"/>
      </g>
     </g>
    </g>
    <g id="ytick_12">
     <g id="line2d_62">
      <g>
       <use style="fill:#ffffff;stroke:#000000;stroke-width:0.8;" x="451.562264" xlink:href="#mf59119d967" y="218.652632"/>
      </g>
     </g>
    </g>
    <g id="text_28">
     <!-- $C_d$ -->
     <g transform="translate(436.43867 283.765)rotate(-90)scale(0.19 -0.19)">
      <use transform="translate(0 0.40625)" xlink:href="#STIXGeneral-Italic-67"/>
      <use transform="translate(66.699997 -12.821875)scale(0.7)" xlink:href="#STIXGeneral-Italic-100"/>
     </g>
    </g>
   </g>
   <g id="line2d_63">
    <path clip-path="url(#p7f984ca8a9)" d="M 452.051321 265.813055 
L 453.192453 265.132322 
L 453.681509 264.539312 
L 454.333585 263.342777 
L 456.126792 259.577518 
L 456.778868 258.867497 
L 457.430943 258.462258 
L 458.409057 258.149316 
L 460.202264 257.883583 
L 465.255849 257.210525 
L 468.02717 256.602737 
L 471.776604 255.72468 
L 472.428679 255.8304 
L 472.917736 256.105037 
L 473.406792 256.624864 
L 474.058868 257.730079 
L 475.526038 260.541905 
L 476.178113 261.248347 
L 476.830189 261.626039 
L 477.808302 261.877705 
L 479.601509 262.031595 
L 484.492075 262.133753 
L 511.064151 262.212947 
L 512.531321 262.21211 
L 584.911698 262.141359 
L 587.193962 261.990058 
L 588.009057 261.717513 
L 588.498113 261.365392 
L 588.98717 260.735634 
L 589.476226 259.634899 
L 589.965283 257.756433 
L 590.45434 254.709066 
L 590.943396 250.127208 
L 591.595472 241.634758 
L 593.062642 221.930292 
L 593.714717 216.149096 
L 594.69283 209.491007 
L 595.181887 207.128438 
L 595.507925 206.24793 
L 595.670943 206.101202 
L 595.833962 206.31754 
L 595.996981 206.818975 
L 596.323019 208.885275 
L 596.812075 213.894508 
L 597.953208 226.882551 
L 598.605283 231.825852 
L 599.257358 235.048243 
L 599.909434 237.387277 
L 601.539623 241.617577 
L 603.169811 246.007056 
L 603.821887 248.867196 
L 604.310943 252.039447 
L 604.8 256.823176 
L 605.289057 263.903999 
L 605.941132 277.702075 
L 607.897358 324.988056 
L 608.386415 331.455324 
L 608.875472 335.450775 
L 609.201509 336.870147 
L 609.364528 337.195774 
L 609.527547 337.220725 
L 609.690566 336.973066 
L 610.016604 335.525692 
L 610.342642 332.920363 
L 610.831698 326.225952 
L 611.646792 310.889493 
L 612.461887 296.583693 
L 613.113962 289.355145 
L 613.603019 286.295803 
L 614.092075 284.647096 
L 614.744151 283.409566 
L 615.559245 282.400259 
L 616.048302 282.048604 
L 618.493585 280.88229 
L 619.960755 279.816815 
L 628.111698 272.160405 
L 628.763774 271.653613 
L 630.230943 270.713217 
L 633.165283 269.185274 
L 636.262642 268.062652 
L 637.566792 267.736862 
L 639.196981 267.345469 
L 645.06566 266.636552 
L 649.630189 266.457743 
L 655.335849 266.35649 
L 658.596226 266.31774 
L 660.389434 266.293908 
L 689.080755 266.211347 
L 696.742642 266.211291 
L 715.65283 266.079948 
L 723.477736 266.025819 
L 777.763019 265.752467 
L 777.763019 265.752467 
" style="fill:none;stroke:#1f77b4;stroke-linecap:square;stroke-width:2;"/>
   </g>
   <g id="line2d_64">
    <path clip-path="url(#p7f984ca8a9)" d="M 452.051321 265.915111 
L 453.355472 265.483913 
L 454.007547 264.994405 
L 454.98566 263.886467 
L 455.963774 262.856883 
L 456.778868 262.357111 
L 457.756981 262.064445 
L 459.550189 261.835152 
L 463.951698 261.313748 
L 466.886038 260.706968 
L 472.428679 259.410668 
L 473.080755 259.521206 
L 473.73283 259.866453 
L 474.710943 260.746054 
L 475.689057 261.503649 
L 476.504151 261.828212 
L 477.645283 262.008106 
L 480.090566 262.12126 
L 487.915472 262.210984 
L 491.175849 262.211698 
L 550.02566 262.261358 
L 582.140377 263.063378 
L 588.172075 263.198992 
L 589.150189 262.989035 
L 589.802264 262.598322 
L 590.291321 262.054196 
L 590.780377 261.202105 
L 591.432453 259.51446 
L 593.551698 253.275116 
L 594.855849 250.459666 
L 595.344906 249.811786 
L 595.670943 249.682247 
L 595.996981 249.864295 
L 596.323019 250.357837 
L 596.812075 251.573715 
L 598.442264 256.126585 
L 599.420377 257.860152 
L 600.887547 259.761125 
L 603.006792 262.394611 
L 603.821887 263.765164 
L 604.473962 265.325489 
L 604.963019 266.987473 
L 605.615094 270.205736 
L 606.430189 275.842273 
L 607.571321 283.65905 
L 608.223396 286.593472 
L 608.712453 287.992262 
L 609.201509 288.717291 
L 609.527547 288.801105 
L 609.853585 288.519962 
L 610.179623 287.844546 
L 610.668679 286.095787 
L 611.483774 281.816855 
L 612.298868 277.79271 
L 612.787925 276.204135 
L 613.276981 275.206723 
L 613.766038 274.673549 
L 614.255094 274.448663 
L 614.90717 274.403253 
L 617.515472 274.482046 
L 619.14566 274.217291 
L 620.61283 273.675535 
L 622.243019 272.771325 
L 628.437736 269.084756 
L 630.883019 268.136393 
L 633.817358 267.36262 
L 635.936604 267.007712 
L 639.033962 266.700101 
L 646.53283 266.469702 
L 651.912453 266.464438 
L 658.922264 266.64572 
L 663.649811 266.877959 
L 669.192453 267.11523 
L 673.756981 267.161523 
L 681.255849 267.019352 
L 692.178113 266.764985 
L 752.658113 266.166077 
L 777.763019 266.117465 
L 777.763019 266.117465 
" style="fill:none;stroke:#ff7f0e;stroke-linecap:square;stroke-width:2;"/>
   </g>
   <g id="line2d_65">
    <path clip-path="url(#p7f984ca8a9)" d="M 452.051321 265.966865 
L 453.518491 265.696139 
L 454.496604 265.232177 
L 456.289811 264.269158 
L 457.430943 264.006952 
L 459.876226 263.773728 
L 463.299623 263.363171 
L 466.56 262.724012 
L 469.983396 261.845618 
L 472.591698 261.211335 
L 473.569811 261.226943 
L 474.547925 261.525153 
L 475.852075 261.936608 
L 477.156226 262.096721 
L 480.416604 262.199359 
L 492.48 262.172494 
L 513.509434 262.413494 
L 521.986415 262.860995 
L 529.811321 263.476516 
L 532.74566 263.69474 
L 535.516981 263.738132 
L 538.451321 263.555396 
L 543.830943 262.936512 
L 548.232453 262.539717 
L 552.307925 262.385571 
L 556.709434 262.408469 
L 563.06717 262.703014 
L 568.935849 262.954823 
L 572.685283 262.889948 
L 576.434717 262.586088 
L 579.695094 262.229748 
L 584.911698 261.757438 
L 590.291321 261.270665 
L 591.269434 260.899311 
L 593.714717 259.601628 
L 594.855849 259.218481 
L 595.507925 259.171792 
L 595.996981 259.302222 
L 596.649057 259.729066 
L 599.257358 261.836608 
L 603.984906 264.943161 
L 604.8 265.706221 
L 605.452075 266.543649 
L 606.430189 268.252392 
L 607.408302 269.914443 
L 608.060377 270.642312 
L 608.712453 271.036306 
L 609.201509 271.125107 
L 609.690566 271.027955 
L 610.179623 270.717024 
L 610.668679 270.150355 
L 611.320755 269.040115 
L 612.461887 267.002914 
L 613.113962 266.259684 
L 613.766038 265.830758 
L 614.744151 265.521475 
L 616.211321 265.351681 
L 618.982642 265.257225 
L 628.600755 265.188048 
L 655.661887 265.471851 
L 672.45283 265.093543 
L 685.331321 264.831873 
L 693.808302 264.425447 
L 702.448302 264.03247 
L 708.153962 264.002301 
L 714.511698 264.200856 
L 721.032453 264.57279 
L 730.487547 265.137682 
L 742.224906 265.664079 
L 772.546415 266.679398 
L 777.763019 266.773665 
L 777.763019 266.773665 
" style="fill:none;stroke:#2ca02c;stroke-linecap:square;stroke-width:2;"/>
   </g>
   <g id="line2d_66">
    <path clip-path="url(#p7f984ca8a9)" d="M 451.562264 266.021053 
L 777.6 266.021053 
" style="fill:none;stroke:#000000;stroke-dasharray:3.2,0.8,0.5,0.8;stroke-dashoffset:0;stroke-width:0.5;"/>
   </g>
   <g id="line2d_67">
    <path clip-path="url(#p7f984ca8a9)" d="M 614.581132 345.6 
L 614.581132 201.6 
" style="fill:none;stroke:#000000;stroke-linecap:square;stroke-width:0.5;"/>
   </g>
   <g id="line2d_68">
    <path clip-path="url(#p7f984ca8a9)" d="M 647.184906 345.6 
L 647.184906 201.6 
" style="fill:none;stroke:#000000;stroke-dasharray:6.4,1.6,1,1.6;stroke-dashoffset:0;stroke-opacity:0.25;"/>
   </g>
   <g id="line2d_69">
    <path clip-path="url(#p7f984ca8a9)" d="M 679.788679 345.6 
L 679.788679 201.6 
" style="fill:none;stroke:#000000;stroke-dasharray:6.4,1.6,1,1.6;stroke-dashoffset:0;stroke-opacity:0.25;"/>
   </g>
   <g id="line2d_70">
    <path clip-path="url(#p7f984ca8a9)" d="M 712.392453 345.6 
L 712.392453 201.6 
" style="fill:none;stroke:#000000;stroke-dasharray:6.4,1.6,1,1.6;stroke-dashoffset:0;stroke-opacity:0.25;"/>
   </g>
   <g id="patch_18">
    <path d="M 451.562264 345.6 
L 451.562264 201.6 
" style="fill:none;stroke:#000000;stroke-linecap:square;stroke-linejoin:miter;stroke-width:0.8;"/>
   </g>
   <g id="patch_19">
    <path d="M 777.6 345.6 
L 777.6 201.6 
" style="fill:none;stroke:#000000;stroke-linecap:square;stroke-linejoin:miter;stroke-width:0.8;"/>
   </g>
   <g id="patch_20">
    <path d="M 451.562264 345.6 
L 777.6 345.6 
" style="fill:none;stroke:#000000;stroke-linecap:square;stroke-linejoin:miter;stroke-width:0.8;"/>
   </g>
   <g id="patch_21">
    <path d="M 451.562264 201.6 
L 777.6 201.6 
" style="fill:none;stroke:#000000;stroke-linecap:square;stroke-linejoin:miter;stroke-width:0.8;"/>
   </g>
   <g id="text_29">
    <!-- Stroke motion -->
    <g transform="translate(487.121626 342.826406)scale(0.19 -0.19)">
     <use xlink:href="#STIXGeneral-Regular-83"/>
     <use x="55.599991" xlink:href="#STIXGeneral-Regular-116"/>
     <use x="83.399979" xlink:href="#STIXGeneral-Regular-114"/>
     <use x="116.699966" xlink:href="#STIXGeneral-Regular-111"/>
     <use x="166.699951" xlink:href="#STIXGeneral-Regular-107"/>
     <use x="216.699936" xlink:href="#STIXGeneral-Regular-101"/>
     <use x="261.09993" xlink:href="#STIXGeneral-Regular-32"/>
     <use x="286.099915" xlink:href="#STIXGeneral-Regular-109"/>
     <use x="363.899902" xlink:href="#STIXGeneral-Regular-111"/>
     <use x="413.899887" xlink:href="#STIXGeneral-Regular-116"/>
     <use x="441.699875" xlink:href="#STIXGeneral-Regular-105"/>
     <use x="469.499863" xlink:href="#STIXGeneral-Regular-111"/>
     <use x="519.499847" xlink:href="#STIXGeneral-Regular-110"/>
    </g>
   </g>
   <g id="text_30">
    <!-- Wake interaction -->
    <g transform="translate(639.078931 342.826406)scale(0.19 -0.19)">
     <use xlink:href="#STIXGeneral-Regular-87"/>
     <use x="94.399994" xlink:href="#STIXGeneral-Regular-97"/>
     <use x="138.799988" xlink:href="#STIXGeneral-Regular-107"/>
     <use x="188.799973" xlink:href="#STIXGeneral-Regular-101"/>
     <use x="233.199966" xlink:href="#STIXGeneral-Regular-32"/>
     <use x="258.199951" xlink:href="#STIXGeneral-Regular-105"/>
     <use x="285.999939" xlink:href="#STIXGeneral-Regular-110"/>
     <use x="335.999924" xlink:href="#STIXGeneral-Regular-116"/>
     <use x="363.799911" xlink:href="#STIXGeneral-Regular-101"/>
     <use x="408.199905" xlink:href="#STIXGeneral-Regular-114"/>
     <use x="441.499893" xlink:href="#STIXGeneral-Regular-97"/>
     <use x="485.899887" xlink:href="#STIXGeneral-Regular-99"/>
     <use x="530.299881" xlink:href="#STIXGeneral-Regular-116"/>
     <use x="558.099869" xlink:href="#STIXGeneral-Regular-105"/>
     <use x="585.899857" xlink:href="#STIXGeneral-Regular-111"/>
     <use x="635.899841" xlink:href="#STIXGeneral-Regular-110"/>
    </g>
   </g>
   <g id="text_31">
    <!-- $Re = 10^3$ -->
    <g transform="translate(787.304906 278.026406)scale(0.19 -0.19)">
     <use transform="translate(0 0.409375)" xlink:href="#STIXGeneral-Italic-82"/>
     <use transform="translate(61.099991 0.409375)" xlink:href="#STIXGeneral-Italic-101"/>
     <use transform="translate(119.939981 0.409375)" xlink:href="#STIXGeneral-Regular-61"/>
     <use transform="translate(202.879962 0.409375)" xlink:href="#STIXGeneral-Regular-49"/>
     <use transform="translate(252.879947 0.409375)" xlink:href="#STIXGeneral-Regular-48"/>
     <use transform="translate(304.423213 35.684375)scale(0.7)" xlink:href="#STIXGeneral-Regular-51"/>
    </g>
   </g>
  </g>
 </g>
 <defs>
  <clipPath id="p88562263f6">
   <rect height="144" width="326.037736" x="86.4" y="43.2"/>
  </clipPath>
  <clipPath id="pce5444dc9c">
   <rect height="144" width="326.037736" x="451.562264" y="43.2"/>
  </clipPath>
  <clipPath id="pdde0070360">
   <rect height="144" width="326.037736" x="86.4" y="201.6"/>
  </clipPath>
  <clipPath id="p7f984ca8a9">
   <rect height="144" width="326.037736" x="451.562264" y="201.6"/>
  </clipPath>
 </defs>
</svg>
