<?xml version="1.0" encoding="utf-8" standalone="no"?>
<!DOCTYPE svg PUBLIC "-//W3C//DTD SVG 1.1//EN"
  "http://www.w3.org/Graphics/SVG/1.1/DTD/svg11.dtd">
<!-- Created with matplotlib (https://matplotlib.org/) -->
<svg height="720pt" version="1.1" viewBox="0 0 1008 720" width="1008pt" xmlns="http://www.w3.org/2000/svg" xmlns:xlink="http://www.w3.org/1999/xlink">
 <defs>
  <style type="text/css">
*{stroke-linecap:butt;stroke-linejoin:round;}
  </style>
 </defs>
 <g id="figure_1">
  <g id="patch_1">
   <path d="M 0 720 
L 1008 720 
L 1008 0 
L 0 0 
z
" style="fill:#ffffff;"/>
  </g>
  <g id="axes_1">
   <g id="patch_2">
    <path d="M 100.8 337.437788 
L 472.412903 337.437788 
L 472.412903 72 
L 100.8 72 
z
" style="fill:#ffffff;"/>
   </g>
   <g id="matplotlib.axis_1">
    <g id="xtick_1">
     <g id="line2d_1">
      <defs>
       <path d="M 0 0 
L 0 3.5 
" id="mdd8e9d6463" style="stroke:#000000;stroke-width:0.8;"/>
      </defs>
      <g>
       <use style="fill:#ffffff;stroke:#000000;stroke-width:0.8;" x="100.8" xlink:href="#mdd8e9d6463" y="337.437788"/>
      </g>
     </g>
    </g>
    <g id="xtick_2">
     <g id="line2d_2">
      <g>
       <use style="fill:#ffffff;stroke:#000000;stroke-width:0.8;" x="193.703226" xlink:href="#mdd8e9d6463" y="337.437788"/>
      </g>
     </g>
    </g>
    <g id="xtick_3">
     <g id="line2d_3">
      <g>
       <use style="fill:#ffffff;stroke:#000000;stroke-width:0.8;" x="286.606452" xlink:href="#mdd8e9d6463" y="337.437788"/>
      </g>
     </g>
    </g>
    <g id="xtick_4">
     <g id="line2d_4">
      <g>
       <use style="fill:#ffffff;stroke:#000000;stroke-width:0.8;" x="379.509677" xlink:href="#mdd8e9d6463" y="337.437788"/>
      </g>
     </g>
    </g>
    <g id="xtick_5">
     <g id="line2d_5">
      <g>
       <use style="fill:#ffffff;stroke:#000000;stroke-width:0.8;" x="472.412903" xlink:href="#mdd8e9d6463" y="337.437788"/>
      </g>
     </g>
    </g>
   </g>
   <g id="matplotlib.axis_2">
    <g id="ytick_1">
     <g id="line2d_6">
      <defs>
       <path d="M 0 0 
L -3.5 0 
" id="m0bd6805e60" style="stroke:#000000;stroke-width:0.8;"/>
      </defs>
      <g>
       <use style="fill:#ffffff;stroke:#000000;stroke-width:0.8;" x="100.8" xlink:href="#m0bd6805e60" y="307.388227"/>
      </g>
     </g>
     <g id="text_1">
      <!-- −10 -->
      <defs>
       <path d="M 62.09375 22 
L 6.40625 22 
L 6.40625 28.59375 
L 62.09375 28.59375 
z
" id="STIXGeneral-Regular-8722"/>
       <path d="M 39.40625 0 
L 11.796875 0 
L 11.796875 1.5 
Q 17.296875 1.796875 19.296875 3.546875 
Q 21.296875 5.296875 21.296875 9.5 
L 21.296875 54.40625 
Q 21.296875 59.296875 18.296875 59.296875 
Q 16.90625 59.296875 13.796875 58.09375 
L 11.09375 57.09375 
L 11.09375 58.5 
L 29 67.59375 
L 29.90625 67.296875 
L 29.90625 7.59375 
Q 29.90625 4.296875 31.90625 2.890625 
Q 33.90625 1.5 39.40625 1.5 
z
" id="STIXGeneral-Regular-49"/>
       <path d="M 47.59375 33 
Q 47.59375 26.296875 46.296875 20.34375 
Q 45 14.40625 42.453125 9.40625 
Q 39.90625 4.40625 35.40625 1.5 
Q 30.90625 -1.40625 25 -1.40625 
Q 18.90625 -1.40625 14.296875 1.6875 
Q 9.703125 4.796875 7.203125 10 
Q 4.703125 15.203125 3.546875 21.09375 
Q 2.40625 27 2.40625 33.59375 
Q 2.40625 42.90625 4.703125 50.34375 
Q 7 57.796875 12.34375 62.6875 
Q 17.703125 67.59375 25.40625 67.59375 
Q 35.203125 67.59375 41.390625 58 
Q 47.59375 48.40625 47.59375 33 
z
M 38 32.5 
Q 38 48.296875 34.640625 56.640625 
Q 31.296875 65 24.796875 65 
Q 18.59375 65 15.296875 56.59375 
Q 12 48.203125 12 32.90625 
Q 12 17.5 15.296875 9.34375 
Q 18.59375 1.203125 25 1.203125 
Q 31.296875 1.203125 34.640625 9.34375 
Q 38 17.5 38 32.5 
z
" id="STIXGeneral-Regular-48"/>
      </defs>
      <g transform="translate(63.47 313.534946)scale(0.18 -0.18)">
       <use xlink:href="#STIXGeneral-Regular-8722"/>
       <use x="68.499985" xlink:href="#STIXGeneral-Regular-49"/>
       <use x="118.499969" xlink:href="#STIXGeneral-Regular-48"/>
      </g>
     </g>
    </g>
    <g id="ytick_2">
     <g id="line2d_7">
      <g>
       <use style="fill:#ffffff;stroke:#000000;stroke-width:0.8;" x="100.8" xlink:href="#m0bd6805e60" y="257.305626"/>
      </g>
     </g>
     <g id="text_2">
      <!-- 0 -->
      <g transform="translate(84.8 263.452344)scale(0.18 -0.18)">
       <use xlink:href="#STIXGeneral-Regular-48"/>
      </g>
     </g>
    </g>
    <g id="ytick_3">
     <g id="line2d_8">
      <g>
       <use style="fill:#ffffff;stroke:#000000;stroke-width:0.8;" x="100.8" xlink:href="#m0bd6805e60" y="207.223024"/>
      </g>
     </g>
     <g id="text_3">
      <!-- 10 -->
      <g transform="translate(75.8 213.369743)scale(0.18 -0.18)">
       <use xlink:href="#STIXGeneral-Regular-49"/>
       <use x="49.999985" xlink:href="#STIXGeneral-Regular-48"/>
      </g>
     </g>
    </g>
    <g id="ytick_4">
     <g id="line2d_9">
      <g>
       <use style="fill:#ffffff;stroke:#000000;stroke-width:0.8;" x="100.8" xlink:href="#m0bd6805e60" y="157.140423"/>
      </g>
     </g>
     <g id="text_4">
      <!-- 20 -->
      <defs>
       <path d="M 47.40625 13.703125 
L 42 0 
L 2.90625 0 
L 2.90625 1.203125 
L 20.703125 20.09375 
Q 27.703125 27.40625 30.703125 33.5 
Q 33.703125 39.59375 33.703125 46.09375 
Q 33.703125 52.796875 30 56.5 
Q 26.296875 60.203125 19.796875 60.203125 
Q 14.40625 60.203125 11.25 57.390625 
Q 8.09375 54.59375 5.09375 47.203125 
L 3 47.703125 
Q 4.703125 57 9.84375 62.296875 
Q 15 67.59375 23.796875 67.59375 
Q 32.09375 67.59375 37.1875 62.59375 
Q 42.296875 57.59375 42.296875 50 
Q 42.296875 38.703125 29.5 25.203125 
L 13 7.59375 
L 36.40625 7.59375 
Q 39.703125 7.59375 41.640625 8.890625 
Q 43.59375 10.203125 46 14.296875 
z
" id="STIXGeneral-Regular-50"/>
      </defs>
      <g transform="translate(75.8 163.287141)scale(0.18 -0.18)">
       <use xlink:href="#STIXGeneral-Regular-50"/>
       <use x="49.999985" xlink:href="#STIXGeneral-Regular-48"/>
      </g>
     </g>
    </g>
    <g id="ytick_5">
     <g id="line2d_10">
      <g>
       <use style="fill:#ffffff;stroke:#000000;stroke-width:0.8;" x="100.8" xlink:href="#m0bd6805e60" y="107.057821"/>
      </g>
     </g>
     <g id="text_5">
      <!-- 30 -->
      <defs>
       <path d="M 6.09375 51 
L 4.5 51.40625 
Q 6.796875 58.90625 11.6875 63.25 
Q 16.59375 67.59375 24.09375 67.59375 
Q 31.09375 67.59375 35.390625 63.796875 
Q 39.703125 60 39.703125 53.90625 
Q 39.703125 45.703125 30.40625 40.09375 
Q 35.90625 37.703125 38.703125 34.796875 
Q 43.09375 29.90625 43.09375 21.90625 
Q 43.09375 13.90625 38.5 7.90625 
Q 35.09375 3.296875 28.75 0.9375 
Q 22.40625 -1.40625 15.296875 -1.40625 
Q 4.09375 -1.40625 4.09375 4.296875 
Q 4.09375 5.90625 5.296875 6.90625 
Q 6.5 7.90625 8.203125 7.90625 
Q 10.703125 7.90625 14.296875 5.296875 
Q 18.703125 2.203125 22.90625 2.203125 
Q 28.40625 2.203125 32.15625 6.640625 
Q 35.90625 11.09375 35.90625 17.5 
Q 35.90625 29 25.5 32 
Q 22.40625 33 15.296875 33 
L 15.296875 34.40625 
Q 20.90625 36.296875 23.703125 38 
Q 31.796875 42.59375 31.796875 51.40625 
Q 31.796875 56.40625 28.9375 59 
Q 26.09375 61.59375 21 61.59375 
Q 12 61.59375 6.09375 51 
z
" id="STIXGeneral-Regular-51"/>
      </defs>
      <g transform="translate(75.8 113.20454)scale(0.18 -0.18)">
       <use xlink:href="#STIXGeneral-Regular-51"/>
       <use x="49.999985" xlink:href="#STIXGeneral-Regular-48"/>
      </g>
     </g>
    </g>
    <g id="text_6">
     <!-- $C_l$ -->
     <defs>
      <path d="M 68.90625 66.40625 
L 65.203125 46.40625 
L 63.40625 46.703125 
Q 61.59375 63 48.5 63 
Q 37.59375 63 28.59375 53.296875 
Q 23.296875 47.703125 20.546875 39.703125 
Q 17.796875 31.703125 17.796875 23.203125 
Q 17.796875 2.703125 35.296875 2.703125 
Q 41.5 2.703125 46.640625 5.296875 
Q 51.796875 7.90625 58.203125 14.59375 
L 60 13.09375 
Q 53.296875 5.203125 46.84375 1.703125 
Q 40.40625 -1.796875 32.703125 -1.796875 
Q 21 -1.796875 13.796875 5.140625 
Q 6.59375 12.09375 6.59375 24.296875 
Q 6.59375 34.59375 11.6875 43.9375 
Q 16.796875 53.296875 25.296875 59.296875 
Q 35.5 66.59375 47.203125 66.59375 
Q 54.09375 66.59375 58.90625 64.90625 
Q 60.90625 64.203125 63 64.203125 
Q 65.703125 64.203125 66.796875 66.40625 
z
" id="STIXGeneral-Italic-67"/>
      <path d="M 27.90625 67.796875 
L 12.59375 9.296875 
Q 11.796875 6.40625 11.796875 5 
Q 11.796875 3.203125 13.5 3.203125 
Q 16.203125 3.203125 20.203125 8.90625 
L 22.703125 12.40625 
L 24.09375 11.40625 
Q 19.59375 4.296875 16.34375 1.59375 
Q 13.09375 -1.09375 9 -1.09375 
Q 4.09375 -1.09375 4.09375 4.5 
Q 4.09375 6.203125 4.5 7.5 
L 18.203125 59.90625 
Q 18.5 60.90625 18.5 61.796875 
Q 18.5 64 13.59375 64 
L 11.796875 64 
L 11.796875 65.59375 
Q 18.796875 66.40625 27.296875 68.296875 
z
" id="STIXGeneral-Italic-108"/>
     </defs>
     <g transform="translate(55.563438 212.908894)rotate(-90)scale(0.18 -0.18)">
      <use transform="translate(0 0.40625)" xlink:href="#STIXGeneral-Italic-67"/>
      <use transform="translate(66.699997 -12.821875)scale(0.7)" xlink:href="#STIXGeneral-Italic-108"/>
     </g>
    </g>
   </g>
   <g id="line2d_11">
    <path clip-path="url(#pfce9de121c)" d="M 101.357419 256.743417 
L 102.472258 255.302721 
L 103.029677 253.918827 
L 103.587097 251.849201 
L 104.330323 248.074206 
L 105.630968 241.26505 
L 106.374194 238.763904 
L 106.931613 237.582199 
L 107.489032 236.810425 
L 108.232258 236.168262 
L 109.16129 235.689553 
L 110.647742 235.217243 
L 119.566452 232.763925 
L 123.096774 231.584398 
L 123.84 231.626001 
L 124.397419 231.931091 
L 124.954839 232.620719 
L 125.512258 233.914528 
L 126.069677 235.909345 
L 126.99871 240.437616 
L 127.927742 244.685678 
L 128.485161 246.427034 
L 129.042581 247.561514 
L 129.6 248.245358 
L 130.157419 248.635798 
L 131.086452 248.945277 
L 139.076129 248.758886 
L 152.64 248.26772 
L 180.325161 247.681479 
L 232.536774 247.042365 
L 233.651613 246.69811 
L 234.209032 246.31352 
L 234.766452 245.616068 
L 235.323871 244.380849 
L 235.695484 243.080326 
L 236.067097 241.225609 
L 236.624516 236.988145 
L 237.181935 230.483445 
L 237.925161 217.818958 
L 239.597419 186.850465 
L 240.154839 180.438726 
L 240.712258 176.141924 
L 241.269677 173.341707 
L 241.827097 171.495422 
L 242.570323 169.854253 
L 243.685161 168.124865 
L 245.914839 164.974303 
L 246.286452 164.675137 
L 246.658065 164.609642 
L 247.029677 164.935285 
L 247.40129 165.762961 
L 247.772903 167.271715 
L 248.144516 169.577927 
L 248.701935 174.823 
L 249.630968 186.956212 
L 250.745806 200.973054 
L 251.489032 207.783101 
L 252.418065 214.364103 
L 254.461935 226.659099 
L 260.221935 260.232201 
L 261.150968 264.133792 
L 262.08 267.029931 
L 263.380645 270.180457 
L 264.867097 273.155646 
L 266.353548 275.552781 
L 267.468387 276.880457 
L 268.025806 277.284177 
L 268.397419 277.374611 
L 268.769032 277.293615 
L 269.140645 276.922785 
L 269.512258 276.145347 
L 269.883871 274.809511 
L 270.255484 272.722405 
L 270.812903 267.864016 
L 271.370323 260.638497 
L 272.485161 242.005179 
L 273.414194 227.915578 
L 274.157419 219.457825 
L 275.086452 211.683004 
L 276.015484 205.844627 
L 277.130323 200.522459 
L 278.059355 197.137439 
L 278.802581 195.158014 
L 279.36 194.238667 
L 279.731613 194.033504 
L 280.103226 194.28422 
L 280.474839 195.133823 
L 280.846452 196.778534 
L 281.218065 199.463952 
L 281.775484 205.993042 
L 282.332903 215.716051 
L 284.376774 255.63891 
L 284.934194 261.255253 
L 285.491613 264.584206 
L 286.049032 266.429057 
L 286.420645 267.098519 
L 286.978065 267.629355 
L 287.535484 267.815082 
L 288.27871 267.78215 
L 289.393548 267.480033 
L 291.809032 266.635065 
L 292.923871 266.237332 
L 303.700645 262.468989 
L 310.203871 260.513341 
L 314.849032 259.388151 
L 320.237419 258.377972 
L 323.953548 257.876538 
L 328.412903 257.462568 
L 333.80129 257.159806 
L 339.56129 257.048141 
L 348.294194 257.106688 
L 366.689032 257.5963 
L 390.286452 258.136201 
L 452.903226 258.513419 
L 472.59871 258.505436 
L 472.59871 258.505436 
" style="fill:none;stroke:#1f77b4;stroke-linecap:square;stroke-width:3;"/>
   </g>
   <g id="line2d_12">
    <path clip-path="url(#pfce9de121c)" d="M 101.357419 257.017799 
L 102.472258 256.283901 
L 103.029677 255.577621 
L 103.587097 254.520326 
L 104.330323 252.587721 
L 105.630968 249.07339 
L 106.374194 247.759487 
L 107.117419 246.964638 
L 107.860645 246.493909 
L 108.975484 246.089129 
L 111.205161 245.603462 
L 115.47871 244.67738 
L 118.265806 243.830884 
L 120.495484 242.939536 
L 123.84 241.54984 
L 124.583226 241.536588 
L 125.140645 241.787347 
L 125.698065 242.365367 
L 126.255484 243.312317 
L 128.299355 247.46179 
L 128.856774 248.049795 
L 129.6 248.48335 
L 130.900645 248.653547 
L 132.75871 248.616307 
L 133.687742 248.51923 
L 141.491613 248.053918 
L 157.285161 247.517161 
L 185.156129 247.22024 
L 193.331613 247.312845 
L 200.392258 247.491187 
L 222.131613 248.544575 
L 233.094194 249.253581 
L 234.580645 249.097754 
L 235.323871 248.772469 
L 235.88129 248.287287 
L 236.624516 246.962126 
L 237.181935 245.313026 
L 237.925161 242.113905 
L 239.597419 234.106784 
L 240.340645 231.937423 
L 241.083871 230.620313 
L 241.827097 229.797869 
L 242.941935 228.929074 
L 246.100645 227.017933 
L 246.658065 226.91318 
L 247.215484 227.064554 
L 247.587097 227.367687 
L 247.95871 227.886882 
L 248.516129 229.145486 
L 249.259355 231.639857 
L 250.931613 237.797818 
L 251.860645 240.34295 
L 253.71871 244.63242 
L 260.036129 258.731001 
L 260.779355 259.869749 
L 261.522581 260.619255 
L 262.265806 261.062461 
L 263.194839 261.364479 
L 264.309677 261.492946 
L 265.424516 261.420554 
L 266.539355 261.16321 
L 267.84 260.62511 
L 268.769032 259.983282 
L 269.326452 259.399 
L 269.883871 258.545998 
L 270.44129 257.265521 
L 270.99871 255.437089 
L 271.741935 252.127839 
L 273.414194 244.207641 
L 274.157419 241.625564 
L 275.086452 239.179136 
L 276.015484 237.279693 
L 277.130323 235.478894 
L 278.245161 234.1109 
L 279.174194 233.295131 
L 279.731613 233.048009 
L 280.103226 233.04412 
L 280.474839 233.222246 
L 280.846452 233.652888 
L 281.218065 234.410204 
L 281.589677 235.573661 
L 282.147097 238.171918 
L 283.076129 244.175407 
L 284.005161 249.89325 
L 284.562581 252.223498 
L 285.12 253.716045 
L 285.677419 254.564013 
L 286.234839 255.012658 
L 286.792258 255.197441 
L 287.535484 255.219154 
L 288.650323 255.034513 
L 290.88 254.408209 
L 296.454194 252.948346 
L 299.984516 252.341973 
L 304.072258 251.944742 
L 307.416774 251.831841 
L 311.31871 251.924217 
L 316.52129 252.293842 
L 323.581935 253.052958 
L 341.233548 254.971043 
L 351.267097 255.750688 
L 362.415484 256.357419 
L 374.307097 256.794573 
L 390.843871 257.177095 
L 416.670968 257.510247 
L 457.548387 257.752718 
L 472.59871 257.799978 
L 472.59871 257.799978 
" style="fill:none;stroke:#ff7f0e;stroke-linecap:square;stroke-width:3;"/>
   </g>
   <g id="line2d_13">
    <path clip-path="url(#pfce9de121c)" d="M 101.357419 257.156945 
L 102.658065 256.677756 
L 103.40129 256.076546 
L 104.144516 255.147482 
L 105.816774 252.839062 
L 106.56 252.21198 
L 107.489032 251.75555 
L 108.789677 251.413852 
L 116.221935 249.874412 
L 118.451613 249.070621 
L 120.68129 248.027977 
L 124.769032 245.970399 
L 125.326452 245.946326 
L 125.883871 246.086482 
L 126.627097 246.588093 
L 128.113548 247.792235 
L 128.856774 248.114628 
L 129.6 248.215392 
L 130.900645 248.197359 
L 140.562581 247.537316 
L 150.03871 247.326434 
L 159.514839 247.603312 
L 169.362581 248.509644 
L 170.663226 248.665771 
L 187.2 251.052802 
L 195.003871 251.993126 
L 200.763871 252.50389 
L 201.507097 252.522147 
L 206.523871 252.785332 
L 210.425806 252.915579 
L 216.185806 253.025223 
L 216.929032 253.022457 
L 231.236129 252.937347 
L 234.766452 252.744187 
L 235.695484 252.531468 
L 236.624516 252.091538 
L 237.553548 251.121639 
L 238.482581 249.719632 
L 239.783226 247.746282 
L 240.712258 246.678462 
L 242.384516 245.249218 
L 244.614194 243.66947 
L 245.914839 242.950424 
L 246.843871 242.647178 
L 247.587097 242.636076 
L 248.144516 242.825565 
L 248.887742 243.37434 
L 250.002581 244.645411 
L 251.674839 246.520397 
L 255.762581 250.88451 
L 260.221935 255.908701 
L 261.150968 256.563405 
L 262.08 256.920083 
L 263.194839 257.083421 
L 264.495484 257.039408 
L 265.981935 256.743491 
L 267.654194 256.161467 
L 268.954839 255.5531 
L 270.069677 254.814085 
L 270.812903 254.097655 
L 271.741935 252.887951 
L 273.228387 250.935223 
L 274.157419 250.13852 
L 275.086452 249.662185 
L 276.20129 249.395567 
L 277.316129 249.354542 
L 278.616774 249.535965 
L 279.731613 249.915247 
L 280.474839 250.384434 
L 281.032258 250.956763 
L 281.589677 251.806754 
L 282.332903 253.458526 
L 284.376774 258.688761 
L 285.12 259.74921 
L 285.863226 260.399626 
L 286.978065 260.960682 
L 288.464516 261.379964 
L 290.694194 261.737331 
L 293.667097 261.995106 
L 297.011613 262.056383 
L 300.541935 261.898688 
L 304.629677 261.482607 
L 318.936774 259.79194 
L 334.916129 258.458954 
L 345.507097 257.771049 
L 355.912258 257.31652 
L 368.36129 256.9977 
L 385.083871 256.804371 
L 413.140645 256.724989 
L 472.59871 256.76387 
L 472.59871 256.76387 
" style="fill:none;stroke:#2ca02c;stroke-linecap:square;stroke-width:3;"/>
   </g>
   <g id="line2d_14">
    <path clip-path="url(#pfce9de121c)" d="M 100.8 257.305626 
L 472.412903 257.305626 
" style="fill:none;stroke:#000000;stroke-dasharray:3.2,0.8,0.5,0.8;stroke-dashoffset:0;stroke-width:0.5;"/>
   </g>
   <g id="line2d_15">
    <path clip-path="url(#pfce9de121c)" d="M 286.606452 337.437788 
L 286.606452 72 
" style="fill:none;stroke:#000000;stroke-linecap:square;stroke-width:0.5;"/>
   </g>
   <g id="line2d_16">
    <path clip-path="url(#pfce9de121c)" d="M 323.767742 337.437788 
L 323.767742 72 
" style="fill:none;stroke:#000000;stroke-dasharray:3.2,0.8,0.5,0.8;stroke-dashoffset:0;stroke-opacity:0.25;stroke-width:0.5;"/>
   </g>
   <g id="line2d_17">
    <path clip-path="url(#pfce9de121c)" d="M 360.929032 337.437788 
L 360.929032 72 
" style="fill:none;stroke:#000000;stroke-dasharray:3.2,0.8,0.5,0.8;stroke-dashoffset:0;stroke-opacity:0.25;stroke-width:0.5;"/>
   </g>
   <g id="line2d_18">
    <path clip-path="url(#pfce9de121c)" d="M 398.090323 337.437788 
L 398.090323 72 
" style="fill:none;stroke:#000000;stroke-dasharray:3.2,0.8,0.5,0.8;stroke-dashoffset:0;stroke-opacity:0.25;stroke-width:0.5;"/>
   </g>
   <g id="patch_3">
    <path d="M 100.8 337.437788 
L 100.8 72 
" style="fill:none;stroke:#000000;stroke-linecap:square;stroke-linejoin:miter;stroke-width:0.8;"/>
   </g>
   <g id="patch_4">
    <path d="M 472.412903 337.437788 
L 472.412903 72 
" style="fill:none;stroke:#000000;stroke-linecap:square;stroke-linejoin:miter;stroke-width:0.8;"/>
   </g>
   <g id="patch_5">
    <path d="M 100.8 337.437788 
L 472.412903 337.437788 
" style="fill:none;stroke:#000000;stroke-linecap:square;stroke-linejoin:miter;stroke-width:0.8;"/>
   </g>
   <g id="patch_6">
    <path d="M 100.8 72 
L 472.412903 72 
" style="fill:none;stroke:#000000;stroke-linecap:square;stroke-linejoin:miter;stroke-width:0.8;"/>
   </g>
  </g>
  <g id="axes_2">
   <g id="patch_7">
    <path d="M 535.587097 337.437788 
L 907.2 337.437788 
L 907.2 72 
L 535.587097 72 
z
" style="fill:#ffffff;"/>
   </g>
   <g id="matplotlib.axis_3">
    <g id="xtick_6">
     <g id="line2d_19">
      <g>
       <use style="fill:#ffffff;stroke:#000000;stroke-width:0.8;" x="535.587097" xlink:href="#mdd8e9d6463" y="337.437788"/>
      </g>
     </g>
    </g>
    <g id="xtick_7">
     <g id="line2d_20">
      <g>
       <use style="fill:#ffffff;stroke:#000000;stroke-width:0.8;" x="628.490323" xlink:href="#mdd8e9d6463" y="337.437788"/>
      </g>
     </g>
    </g>
    <g id="xtick_8">
     <g id="line2d_21">
      <g>
       <use style="fill:#ffffff;stroke:#000000;stroke-width:0.8;" x="721.393548" xlink:href="#mdd8e9d6463" y="337.437788"/>
      </g>
     </g>
    </g>
    <g id="xtick_9">
     <g id="line2d_22">
      <g>
       <use style="fill:#ffffff;stroke:#000000;stroke-width:0.8;" x="814.296774" xlink:href="#mdd8e9d6463" y="337.437788"/>
      </g>
     </g>
    </g>
    <g id="xtick_10">
     <g id="line2d_23">
      <g>
       <use style="fill:#ffffff;stroke:#000000;stroke-width:0.8;" x="907.2" xlink:href="#mdd8e9d6463" y="337.437788"/>
      </g>
     </g>
    </g>
   </g>
   <g id="matplotlib.axis_4">
    <g id="ytick_6">
     <g id="line2d_24">
      <g>
       <use style="fill:#ffffff;stroke:#000000;stroke-width:0.8;" x="535.587097" xlink:href="#m0bd6805e60" y="307.388227"/>
      </g>
     </g>
    </g>
    <g id="ytick_7">
     <g id="line2d_25">
      <g>
       <use style="fill:#ffffff;stroke:#000000;stroke-width:0.8;" x="535.587097" xlink:href="#m0bd6805e60" y="257.305626"/>
      </g>
     </g>
    </g>
    <g id="ytick_8">
     <g id="line2d_26">
      <g>
       <use style="fill:#ffffff;stroke:#000000;stroke-width:0.8;" x="535.587097" xlink:href="#m0bd6805e60" y="207.223024"/>
      </g>
     </g>
    </g>
    <g id="ytick_9">
     <g id="line2d_27">
      <g>
       <use style="fill:#ffffff;stroke:#000000;stroke-width:0.8;" x="535.587097" xlink:href="#m0bd6805e60" y="157.140423"/>
      </g>
     </g>
    </g>
    <g id="ytick_10">
     <g id="line2d_28">
      <g>
       <use style="fill:#ffffff;stroke:#000000;stroke-width:0.8;" x="535.587097" xlink:href="#m0bd6805e60" y="107.057821"/>
      </g>
     </g>
    </g>
    <g id="text_7">
     <!-- $C_d$ -->
     <defs>
      <path d="M 52.09375 68.296875 
L 52.703125 67.703125 
L 48.796875 52.5 
L 42.796875 30.59375 
Q 36.296875 6.703125 36.296875 6 
Q 36.296875 4 38.09375 4 
Q 39.40625 4 40.84375 5.25 
Q 42.296875 6.5 46.296875 11.09375 
L 47.5 10.09375 
Q 39.796875 -1.296875 32.796875 -1.296875 
Q 30.90625 -1.296875 29.796875 -0.09375 
Q 28.703125 1.09375 28.703125 3.203125 
Q 28.703125 6.203125 30 12.09375 
Q 25.703125 4.796875 21.546875 1.84375 
Q 17.40625 -1.09375 12.203125 -1.09375 
Q 7.203125 -1.09375 4.34375 1.953125 
Q 1.5 5 1.5 10.59375 
Q 1.5 22.5 11.140625 33.296875 
Q 20.796875 44.09375 30.703125 44.09375 
Q 33.796875 44.09375 35.25 42.6875 
Q 36.703125 41.296875 37.203125 38.296875 
L 37.296875 38.296875 
L 41.796875 54.59375 
Q 43.203125 59.5 43.203125 61.703125 
Q 43.203125 63.296875 42.09375 63.6875 
Q 41 64.09375 36.796875 64.296875 
L 36.796875 66 
Q 44.5 66.703125 52.09375 68.296875 
z
M 35.59375 36.09375 
Q 35.59375 38.703125 34.140625 40.25 
Q 32.703125 41.796875 30.90625 41.796875 
Q 26.203125 41.796875 21.796875 37.203125 
Q 16.796875 31.90625 13.5 24.546875 
Q 10.203125 17.203125 10.203125 11 
Q 10.203125 7.59375 11.75 5.640625 
Q 13.296875 3.703125 16 3.703125 
Q 20.5 3.703125 25.09375 8.59375 
Q 29.703125 13.5 32.640625 21.09375 
Q 35.59375 28.703125 35.59375 36.09375 
z
" id="STIXGeneral-Italic-100"/>
     </defs>
     <g transform="translate(520.680534 214.348894)rotate(-90)scale(0.18 -0.18)">
      <use transform="translate(0 0.40625)" xlink:href="#STIXGeneral-Italic-67"/>
      <use transform="translate(66.699997 -12.821875)scale(0.7)" xlink:href="#STIXGeneral-Italic-100"/>
     </g>
    </g>
   </g>
   <g id="line2d_29">
    <path clip-path="url(#p5e0db9ecde)" d="M 536.144516 256.70809 
L 537.259355 255.198683 
L 537.816774 253.740039 
L 538.374194 251.551178 
L 539.117419 247.529688 
L 540.418065 240.094491 
L 541.16129 237.213368 
L 541.904516 235.388555 
L 542.647742 234.23996 
L 543.576774 233.306719 
L 544.691613 232.524967 
L 546.549677 231.528412 
L 552.123871 228.967517 
L 557.883871 226.378392 
L 558.44129 226.35049 
L 558.99871 226.545254 
L 559.370323 226.86824 
L 559.927742 227.78148 
L 560.485161 229.357765 
L 561.042581 231.712142 
L 563.086452 241.721781 
L 563.643871 243.276405 
L 564.20129 244.301891 
L 564.75871 244.962791 
L 565.501935 245.498514 
L 566.430968 245.865105 
L 567.917419 246.187108 
L 571.076129 246.558753 
L 576.27871 246.892764 
L 582.03871 247.118184 
L 590.771613 247.364603 
L 591.329032 247.3431 
L 603.034839 247.513471 
L 616.784516 247.619218 
L 628.11871 247.685629 
L 628.676129 247.69757 
L 630.348387 247.682424 
L 667.323871 247.618833 
L 668.43871 247.278595 
L 668.996129 246.89476 
L 669.553548 246.196093 
L 670.110968 244.956246 
L 670.482581 243.649061 
L 670.854194 241.784629 
L 671.411613 237.51762 
L 671.969032 230.94642 
L 672.712258 218.056128 
L 674.570323 182.181794 
L 675.313548 172.847001 
L 676.242581 164.135352 
L 678.286452 146.221299 
L 679.215484 136.255012 
L 680.516129 119.629014 
L 682.188387 97.599322 
L 682.745806 92.765327 
L 683.117419 91.155845 
L 683.303226 90.959009 
L 683.489032 91.218408 
L 683.860645 92.862349 
L 684.418065 97.514845 
L 685.71871 109.509414 
L 686.276129 112.410363 
L 686.833548 114.035828 
L 687.390968 114.809695 
L 688.134194 115.250676 
L 689.620645 115.719847 
L 690.549677 116.462958 
L 691.107097 117.183045 
L 691.664516 118.177237 
L 692.221935 119.560663 
L 692.779355 121.605499 
L 693.336774 124.442647 
L 693.894194 128.703194 
L 694.451613 134.475457 
L 695.194839 144.61083 
L 696.68129 166.202602 
L 697.424516 174.271938 
L 698.353548 181.802419 
L 699.468387 188.8223 
L 700.954839 196.759514 
L 702.812903 206.221919 
L 703.556129 210.966092 
L 704.113548 215.665426 
L 704.670968 222.057036 
L 705.228387 230.957 
L 705.971613 247.467287 
L 707.829677 293.984406 
L 708.572903 305.255837 
L 709.130323 310.929194 
L 709.873548 316.075371 
L 710.616774 319.662864 
L 711.545806 322.999638 
L 712.846452 326.655773 
L 713.775484 328.740167 
L 714.332903 329.574899 
L 714.704516 329.782305 
L 714.890323 329.752243 
L 715.076129 329.582921 
L 715.447742 328.757677 
L 715.819355 327.080684 
L 716.190968 324.263537 
L 716.748387 317.411619 
L 717.491613 303.676798 
L 718.792258 277.561937 
L 719.349677 270.00505 
L 719.907097 265.060161 
L 720.464516 262.025174 
L 721.021935 260.216889 
L 721.579355 259.212204 
L 722.136774 258.619652 
L 722.88 258.20628 
L 723.994839 257.972743 
L 725.667097 257.891211 
L 726.967742 257.968433 
L 728.825806 258.088914 
L 743.504516 260.364195 
L 747.220645 260.709413 
L 751.68 260.906217 
L 755.953548 260.882092 
L 762.642581 260.499576 
L 770.260645 259.817326 
L 773.976774 259.432325 
L 783.63871 258.473445 
L 794.787097 257.537639 
L 806.67871 256.807561 
L 822.472258 256.195033 
L 850.343226 255.739457 
L 871.153548 255.651732 
L 907.385806 255.689145 
L 907.385806 255.689145 
" style="fill:none;stroke:#1f77b4;stroke-linecap:square;stroke-width:3;"/>
   </g>
   <g id="line2d_30">
    <path clip-path="url(#p5e0db9ecde)" d="M 536.144516 256.993056 
L 537.259355 256.210377 
L 537.816774 255.451239 
L 538.374194 254.309594 
L 539.117419 252.202385 
L 540.603871 247.78775 
L 541.347097 246.351171 
L 542.090323 245.410675 
L 543.019355 244.650706 
L 544.32 243.947497 
L 546.549677 243.051911 
L 553.424516 240.394783 
L 555.282581 239.525895 
L 558.255484 238.194217 
L 558.99871 238.080936 
L 559.556129 238.205034 
L 560.113548 238.619892 
L 560.670968 239.415151 
L 561.414194 241.06583 
L 562.900645 244.664293 
L 563.643871 245.760624 
L 564.387097 246.410632 
L 565.501935 246.841461 
L 566.988387 247.104865 
L 569.589677 247.283599 
L 574.606452 247.459626 
L 587.055484 247.665578 
L 632.578065 247.985581 
L 637.223226 248.066408 
L 642.24 248.190264 
L 642.797419 248.201446 
L 645.39871 248.273705 
L 646.141935 248.285474 
L 654.689032 248.554987 
L 658.776774 248.690519 
L 663.050323 248.844621 
L 667.509677 249.004085 
L 668.067097 248.951661 
L 669.181935 248.801884 
L 669.925161 248.506359 
L 670.482581 248.065615 
L 670.854194 247.572024 
L 671.225806 246.913665 
L 671.783226 245.421139 
L 672.340645 243.241147 
L 673.269677 238.343835 
L 674.570323 231.683588 
L 675.499355 228.304436 
L 678.843871 217.755745 
L 680.144516 212.297617 
L 682.56 201.678303 
L 683.117419 200.336469 
L 683.489032 199.950654 
L 683.860645 199.973493 
L 684.232258 200.380218 
L 686.090323 203.243526 
L 686.647742 203.547803 
L 687.390968 203.701111 
L 688.877419 203.806409 
L 689.992258 204.140709 
L 690.735484 204.559583 
L 691.47871 205.186099 
L 692.407742 206.470822 
L 692.965161 207.679223 
L 693.522581 209.376915 
L 694.08 211.869172 
L 694.637419 215.110592 
L 695.566452 222.280956 
L 696.68129 230.700225 
L 697.610323 235.951854 
L 698.539355 239.88322 
L 699.654194 243.628956 
L 700.769032 246.809651 
L 702.069677 250.05451 
L 704.113548 255.279735 
L 704.856774 258.034885 
L 705.6 261.92553 
L 706.714839 269.758919 
L 707.643871 275.840065 
L 708.387097 279.231071 
L 709.130323 281.397105 
L 709.873548 282.819427 
L 710.616774 283.834491 
L 711.731613 284.980756 
L 713.403871 286.368599 
L 714.332903 286.963073 
L 714.890323 287.09348 
L 715.261935 287.000036 
L 715.633548 286.676271 
L 716.005161 286.042435 
L 716.376774 285.013363 
L 716.934194 282.619552 
L 717.677419 278.104762 
L 718.792258 271.229512 
L 719.349677 268.877147 
L 719.907097 267.328302 
L 720.464516 266.410311 
L 721.021935 265.888181 
L 721.765161 265.581631 
L 722.508387 265.509523 
L 723.994839 265.653986 
L 730.869677 266.758054 
L 733.470968 266.893477 
L 736.443871 266.830501 
L 739.974194 266.505809 
L 743.690323 265.921394 
L 749.07871 264.80587 
L 763.571613 261.664544 
L 770.260645 260.504956 
L 776.949677 259.588615 
L 784.753548 258.781455 
L 791.070968 258.291305 
L 800.547097 257.756594 
L 813.553548 257.281287 
L 831.948387 256.894825 
L 857.96129 256.613794 
L 896.609032 256.441349 
L 907.385806 256.420658 
L 907.385806 256.420658 
" style="fill:none;stroke:#ff7f0e;stroke-linecap:square;stroke-width:3;"/>
   </g>
   <g id="line2d_31">
    <path clip-path="url(#p5e0db9ecde)" d="M 536.144516 257.13937 
L 537.445161 256.615001 
L 538.188387 255.94955 
L 538.931613 254.909063 
L 540.789677 251.96105 
L 541.532903 251.212513 
L 542.461935 250.59486 
L 543.762581 250.029927 
L 546.549677 249.150055 
L 551.009032 247.712804 
L 553.796129 246.583509 
L 556.397419 245.319458 
L 558.99871 244.096936 
L 559.741935 243.991849 
L 560.299355 244.111475 
L 561.042581 244.586957 
L 561.971613 245.625772 
L 562.714839 246.416625 
L 563.458065 246.998809 
L 564.20129 247.31876 
L 565.316129 247.580985 
L 566.245161 247.641348 
L 568.474839 247.735603 
L 569.589677 247.745694 
L 574.606452 247.817711 
L 575.535484 247.79788 
L 582.410323 247.861946 
L 583.339355 247.845052 
L 591.886452 248.017888 
L 593.00129 248.04296 
L 596.531613 248.206306 
L 597.274839 248.211473 
L 623.101935 249.956678 
L 624.030968 249.9901 
L 628.11871 250.179296 
L 641.868387 250.497932 
L 642.797419 250.486474 
L 648.371613 250.532712 
L 655.432258 250.597872 
L 660.449032 250.684276 
L 661.192258 250.659083 
L 669.181935 250.672617 
L 670.482581 250.460195 
L 671.411613 250.045213 
L 672.340645 249.081029 
L 673.269677 247.639507 
L 674.941935 244.889924 
L 679.215484 238.370341 
L 680.887742 235.078061 
L 682.56 231.842107 
L 683.303226 230.839841 
L 683.860645 230.403123 
L 684.418065 230.187241 
L 687.390968 229.482323 
L 688.877419 229.146272 
L 689.806452 229.096441 
L 691.107097 229.300506 
L 692.221935 229.878357 
L 692.965161 230.610414 
L 693.522581 231.474105 
L 694.08 232.760559 
L 694.637419 234.493391 
L 695.938065 240.008546 
L 697.052903 244.368096 
L 697.981935 247.195947 
L 699.282581 250.266542 
L 700.583226 252.77057 
L 702.069677 255.151964 
L 705.6 260.220965 
L 707.829677 264.335831 
L 708.572903 265.053887 
L 709.316129 265.44652 
L 710.059355 265.625645 
L 711.36 265.697244 
L 713.775484 265.583173 
L 714.890323 265.377598 
L 715.633548 264.978632 
L 716.190968 264.402511 
L 716.748387 263.488312 
L 717.491613 261.722225 
L 718.978065 257.901353 
L 719.72129 256.646494 
L 720.464516 255.833266 
L 721.393548 255.193158 
L 722.508387 254.707367 
L 724.180645 254.232894 
L 726.596129 253.814872 
L 729.383226 253.573098 
L 732.541935 253.562262 
L 735.700645 253.799644 
L 738.673548 254.209813 
L 746.105806 255.53566 
L 750.936774 256.236296 
L 757.44 256.929273 
L 767.473548 257.77016 
L 775.463226 258.231269 
L 783.824516 258.485244 
L 793.858065 258.560253 
L 809.651613 258.431957 
L 861.863226 257.914081 
L 907.385806 257.744943 
L 907.385806 257.744943 
" style="fill:none;stroke:#2ca02c;stroke-linecap:square;stroke-width:3;"/>
   </g>
   <g id="line2d_32">
    <path clip-path="url(#p5e0db9ecde)" d="M 535.587097 257.305626 
L 907.2 257.305626 
" style="fill:none;stroke:#000000;stroke-dasharray:3.2,0.8,0.5,0.8;stroke-dashoffset:0;stroke-width:0.5;"/>
   </g>
   <g id="line2d_33">
    <path clip-path="url(#p5e0db9ecde)" d="M 721.393548 337.437788 
L 721.393548 72 
" style="fill:none;stroke:#000000;stroke-linecap:square;stroke-width:0.5;"/>
   </g>
   <g id="line2d_34">
    <path clip-path="url(#p5e0db9ecde)" d="M 758.554839 337.437788 
L 758.554839 72 
" style="fill:none;stroke:#000000;stroke-dasharray:3.2,0.8,0.5,0.8;stroke-dashoffset:0;stroke-opacity:0.25;stroke-width:0.5;"/>
   </g>
   <g id="line2d_35">
    <path clip-path="url(#p5e0db9ecde)" d="M 795.716129 337.437788 
L 795.716129 72 
" style="fill:none;stroke:#000000;stroke-dasharray:3.2,0.8,0.5,0.8;stroke-dashoffset:0;stroke-opacity:0.25;stroke-width:0.5;"/>
   </g>
   <g id="line2d_36">
    <path clip-path="url(#p5e0db9ecde)" d="M 832.877419 337.437788 
L 832.877419 72 
" style="fill:none;stroke:#000000;stroke-dasharray:3.2,0.8,0.5,0.8;stroke-dashoffset:0;stroke-opacity:0.25;stroke-width:0.5;"/>
   </g>
   <g id="patch_8">
    <path d="M 535.587097 337.437788 
L 535.587097 72 
" style="fill:none;stroke:#000000;stroke-linecap:square;stroke-linejoin:miter;stroke-width:0.8;"/>
   </g>
   <g id="patch_9">
    <path d="M 907.2 337.437788 
L 907.2 72 
" style="fill:none;stroke:#000000;stroke-linecap:square;stroke-linejoin:miter;stroke-width:0.8;"/>
   </g>
   <g id="patch_10">
    <path d="M 535.587097 337.437788 
L 907.2 337.437788 
" style="fill:none;stroke:#000000;stroke-linecap:square;stroke-linejoin:miter;stroke-width:0.8;"/>
   </g>
   <g id="patch_11">
    <path d="M 535.587097 72 
L 907.2 72 
" style="fill:none;stroke:#000000;stroke-linecap:square;stroke-linejoin:miter;stroke-width:0.8;"/>
   </g>
   <g id="text_8">
    <!-- $Re = 10^2$ -->
    <defs>
     <path d="M 13.203125 65.296875 
L 38.40625 65.296875 
Q 48.09375 65.296875 53.4375 61.5 
Q 58.796875 57.703125 58.796875 51.203125 
Q 58.796875 43.40625 52.203125 38.40625 
Q 48.296875 35.40625 39.09375 33.296875 
L 48 9.796875 
Q 49.703125 5.203125 51.546875 3.390625 
Q 53.40625 1.59375 56.703125 1.59375 
L 56.703125 0 
L 42 0 
L 29.703125 32.40625 
L 23.09375 32.90625 
L 17.59375 12.59375 
Q 16.296875 8 16.296875 6.296875 
Q 16.296875 4 17.59375 3 
Q 18.90625 2 23 1.59375 
L 23 0 
L -1.296875 0 
L -1.296875 1.59375 
Q 2.703125 2.09375 4.34375 3.796875 
Q 6 5.5 7.203125 10.09375 
L 19.09375 53.203125 
Q 20.296875 57.796875 20.296875 59.5 
Q 20.296875 61.296875 18.90625 62.296875 
Q 17.703125 63.09375 13.203125 63.703125 
z
M 30.59375 59.296875 
L 24.296875 36.59375 
Q 27.40625 36.09375 29.40625 36.09375 
Q 38.296875 36.09375 43.296875 40.09375 
Q 48.296875 44.09375 48.296875 51.09375 
Q 48.296875 56.296875 45.1875 59.296875 
Q 42.09375 62.296875 36.296875 62.296875 
Q 31.40625 62.296875 30.59375 59.296875 
z
" id="STIXGeneral-Italic-82"/>
     <path d="M 35.796875 10.90625 
L 37 9.703125 
Q 28.203125 -1.09375 16.59375 -1.09375 
Q 10.5 -1.09375 6.796875 2.65625 
Q 3.09375 6.40625 3.09375 12.59375 
Q 3.09375 24.296875 12.4375 34.1875 
Q 21.796875 44.09375 33 44.09375 
Q 36.90625 44.09375 39.046875 42.296875 
Q 41.203125 40.5 41.203125 37.296875 
Q 41.203125 30.703125 33.546875 25.5 
Q 25.90625 20.296875 12.796875 18.59375 
Q 11.796875 16.59375 11.796875 12.5 
Q 11.796875 8.40625 14.34375 5.90625 
Q 16.90625 3.40625 21.09375 3.40625 
Q 24.40625 3.40625 27.40625 4.953125 
Q 30.40625 6.5 35.796875 10.90625 
z
M 15.203125 25.203125 
L 13.5 20.796875 
Q 24.703125 23.5 29.59375 28.203125 
Q 34.59375 33 34.59375 37.90625 
Q 34.59375 41.796875 31.09375 41.796875 
Q 26.90625 41.796875 22.34375 36.9375 
Q 17.796875 32.09375 15.203125 25.203125 
z
" id="STIXGeneral-Italic-101"/>
     <path d="M 63.703125 32 
L 4.796875 32 
L 4.796875 38.59375 
L 63.703125 38.59375 
z
M 63.703125 12 
L 4.796875 12 
L 4.796875 18.59375 
L 63.703125 18.59375 
z
" id="STIXGeneral-Regular-61"/>
    </defs>
    <g transform="translate(924.549677 208.912332)scale(0.18 -0.18)">
     <use transform="translate(0 0.409375)" xlink:href="#STIXGeneral-Italic-82"/>
     <use transform="translate(61.099991 0.409375)" xlink:href="#STIXGeneral-Italic-101"/>
     <use transform="translate(119.939981 0.409375)" xlink:href="#STIXGeneral-Regular-61"/>
     <use transform="translate(202.879962 0.409375)" xlink:href="#STIXGeneral-Regular-49"/>
     <use transform="translate(252.879947 0.409375)" xlink:href="#STIXGeneral-Regular-48"/>
     <use transform="translate(304.423213 35.684375)scale(0.7)" xlink:href="#STIXGeneral-Regular-50"/>
    </g>
   </g>
   <g id="legend_1">
    <g id="line2d_37">
     <path d="M 348.923712 42.963698 
L 378.911712 42.963698 
" style="fill:none;stroke:#1f77b4;stroke-linecap:square;stroke-width:3;"/>
    </g>
    <g id="line2d_38"/>
    <g id="text_9">
     <!-- $s/c = 1.5$ -->
     <defs>
      <path d="M 36.59375 44.203125 
L 34.59375 30.203125 
L 33 30.203125 
Q 31.59375 41.796875 24.09375 41.796875 
Q 21.40625 41.796875 19.796875 40.296875 
Q 18.203125 38.796875 18.203125 36.09375 
Q 18.203125 32.296875 23.59375 25.90625 
Q 30.40625 18 30.40625 12.296875 
Q 30.40625 6.203125 26.34375 2.546875 
Q 22.296875 -1.09375 16 -1.09375 
Q 13.09375 -1.09375 10.5 -0.09375 
Q 8.40625 0.796875 6.09375 0.796875 
Q 4.09375 0.796875 3.203125 -1.296875 
L 1.59375 -1.296875 
L 3.59375 14.59375 
L 5.203125 14.59375 
Q 7.203125 1 15.203125 1 
Q 18.796875 1 20.796875 3 
Q 22.796875 5 22.796875 8.703125 
Q 22.796875 13.203125 17.203125 20.203125 
Q 10.90625 28.09375 10.90625 33.296875 
Q 10.90625 38.296875 14.203125 41.1875 
Q 17.5 44.09375 23 44.09375 
Q 25 44.09375 28.59375 43.09375 
Q 30.796875 42.40625 32.203125 42.40625 
Q 34.203125 42.40625 35.203125 44.203125 
z
" id="STIXGeneral-Italic-115"/>
      <path d="M 28.703125 67.59375 
L 5.90625 -1.40625 
L -0.90625 -1.40625 
L 22 67.59375 
z
" id="STIXGeneral-Regular-47"/>
      <path d="M 35 10.703125 
L 36.59375 9.703125 
Q 32 3.90625 27.640625 1.40625 
Q 23.296875 -1.09375 17.703125 -1.09375 
Q 10.59375 -1.09375 6.796875 2.796875 
Q 3 6.703125 3 14.296875 
Q 3 21 6.390625 27.25 
Q 9.796875 33.5 15.296875 38 
Q 23 44.09375 32 44.09375 
Q 36.59375 44.09375 39.546875 41.796875 
Q 42.5 39.5 42.5 36 
Q 42.5 34 41.09375 32.59375 
Q 39.703125 31.203125 37.703125 31.203125 
Q 35.703125 31.203125 34.75 32.34375 
Q 33.796875 33.5 33.796875 35.203125 
Q 33.796875 36.09375 34.546875 37.546875 
Q 35.296875 39 35.296875 40 
Q 35.296875 42 31.59375 42 
Q 25.296875 42 20.703125 37.203125 
Q 11.59375 27.59375 11.59375 13.90625 
Q 11.59375 8.5 13.890625 5.5 
Q 16.203125 2.5 20.5 2.5 
Q 24.40625 2.5 27.59375 4.390625 
Q 30.796875 6.296875 35 10.703125 
z
" id="STIXGeneral-Italic-99"/>
      <path d="M 18.09375 4.296875 
Q 18.09375 2.09375 16.4375 0.5 
Q 14.796875 -1.09375 12.5 -1.09375 
Q 10.203125 -1.09375 8.59375 0.5 
Q 7 2.09375 7 4.390625 
Q 7 6.703125 8.640625 8.34375 
Q 10.296875 10 12.59375 10 
Q 14.796875 10 16.4375 8.296875 
Q 18.09375 6.59375 18.09375 4.296875 
z
" id="STIXGeneral-Regular-46"/>
      <path d="M 43.796875 68.09375 
L 40.203125 59.59375 
Q 39.59375 58.296875 37.5 58.296875 
L 18.09375 58.296875 
L 14.09375 49.796875 
Q 25.09375 47.703125 30 45.25 
Q 34.90625 42.796875 39.09375 37 
Q 42.59375 32.203125 42.59375 24.296875 
Q 42.59375 17.09375 40.25 12.1875 
Q 37.90625 7.296875 32.796875 3.5 
Q 26 -1.40625 15.796875 -1.40625 
Q 10.09375 -1.40625 6.59375 0.296875 
Q 3.09375 2 3.09375 4.796875 
Q 3.09375 8.59375 7.59375 8.59375 
Q 11.203125 8.59375 15 5.5 
Q 18.90625 2.296875 22.09375 2.296875 
Q 27.296875 2.296875 31.4375 7.5 
Q 35.59375 12.703125 35.59375 19.203125 
Q 35.59375 28.796875 28.90625 34.203125 
Q 20.203125 41.203125 7.59375 41.203125 
Q 6.40625 41.203125 6.40625 42 
L 6.5 42.5 
L 17.40625 66.203125 
L 38.09375 66.203125 
Q 39.796875 66.203125 40.75 66.703125 
Q 41.703125 67.203125 42.90625 68.796875 
z
" id="STIXGeneral-Regular-53"/>
     </defs>
     <g transform="translate(390.906912 48.211598)scale(0.14994 -0.14994)">
      <use transform="translate(0 0.203125)" xlink:href="#STIXGeneral-Italic-115"/>
      <use transform="translate(38.899994 0.203125)" xlink:href="#STIXGeneral-Regular-47"/>
      <use transform="translate(66.699982 0.203125)" xlink:href="#STIXGeneral-Italic-99"/>
      <use transform="translate(125.539972 0.203125)" xlink:href="#STIXGeneral-Regular-61"/>
      <use transform="translate(208.479953 0.203125)" xlink:href="#STIXGeneral-Regular-49"/>
      <use transform="translate(258.479938 0.203125)" xlink:href="#STIXGeneral-Regular-46"/>
      <use transform="translate(283.479922 0.203125)" xlink:href="#STIXGeneral-Regular-53"/>
     </g>
    </g>
    <g id="line2d_39">
     <path d="M 470.974872 42.963698 
L 500.962872 42.963698 
" style="fill:none;stroke:#ff7f0e;stroke-linecap:square;stroke-width:3;"/>
    </g>
    <g id="line2d_40"/>
    <g id="text_10">
     <!-- $s/c = 3.0$ -->
     <g transform="translate(512.958072 48.211598)scale(0.14994 -0.14994)">
      <use transform="translate(0 0.40625)" xlink:href="#STIXGeneral-Italic-115"/>
      <use transform="translate(38.899994 0.40625)" xlink:href="#STIXGeneral-Regular-47"/>
      <use transform="translate(66.699982 0.40625)" xlink:href="#STIXGeneral-Italic-99"/>
      <use transform="translate(125.539972 0.40625)" xlink:href="#STIXGeneral-Regular-61"/>
      <use transform="translate(208.479953 0.40625)" xlink:href="#STIXGeneral-Regular-51"/>
      <use transform="translate(258.479938 0.40625)" xlink:href="#STIXGeneral-Regular-46"/>
      <use transform="translate(283.479922 0.40625)" xlink:href="#STIXGeneral-Regular-48"/>
     </g>
    </g>
    <g id="line2d_41">
     <path d="M 593.026032 42.963698 
L 623.014032 42.963698 
" style="fill:none;stroke:#2ca02c;stroke-linecap:square;stroke-width:3;"/>
    </g>
    <g id="line2d_42"/>
    <g id="text_11">
     <!-- $s/c = 6.0$ -->
     <defs>
      <path d="M 44.59375 68.40625 
L 44.796875 66.796875 
Q 33 64.90625 25.09375 57.25 
Q 17.203125 49.59375 15.203125 38.296875 
Q 21 42.796875 27.90625 42.796875 
Q 36.703125 42.796875 41.75 37.1875 
Q 46.796875 31.59375 46.796875 21.90625 
Q 46.796875 12.09375 41.703125 5.90625 
Q 35.796875 -1.40625 25.796875 -1.40625 
Q 13.59375 -1.40625 8.09375 8.703125 
Q 3.40625 17.296875 3.40625 27.90625 
Q 3.40625 44.296875 14.296875 55.5 
Q 20.5 61.90625 27.046875 64.546875 
Q 33.59375 67.203125 44.59375 68.40625 
z
M 37.796875 18.796875 
Q 37.796875 38.203125 24.296875 38.203125 
Q 19.296875 38.203125 16 35.546875 
Q 12.703125 32.90625 12.703125 26.59375 
Q 12.703125 14.90625 16.34375 8.15625 
Q 20 1.40625 26.90625 1.40625 
Q 32.203125 1.40625 35 6.15625 
Q 37.796875 10.90625 37.796875 18.796875 
z
" id="STIXGeneral-Regular-54"/>
     </defs>
     <g transform="translate(635.009232 48.211598)scale(0.14994 -0.14994)">
      <use transform="translate(0 0.59375)" xlink:href="#STIXGeneral-Italic-115"/>
      <use transform="translate(38.899994 0.59375)" xlink:href="#STIXGeneral-Regular-47"/>
      <use transform="translate(66.699982 0.59375)" xlink:href="#STIXGeneral-Italic-99"/>
      <use transform="translate(125.539972 0.59375)" xlink:href="#STIXGeneral-Regular-61"/>
      <use transform="translate(208.479953 0.59375)" xlink:href="#STIXGeneral-Regular-54"/>
      <use transform="translate(258.479938 0.59375)" xlink:href="#STIXGeneral-Regular-46"/>
      <use transform="translate(283.479922 0.59375)" xlink:href="#STIXGeneral-Regular-48"/>
     </g>
    </g>
   </g>
  </g>
  <g id="axes_3">
   <g id="patch_12">
    <path d="M 100.8 648 
L 472.412903 648 
L 472.412903 382.562212 
L 100.8 382.562212 
z
" style="fill:#ffffff;"/>
   </g>
   <g id="matplotlib.axis_5">
    <g id="xtick_11">
     <g id="line2d_43">
      <g>
       <use style="fill:#ffffff;stroke:#000000;stroke-width:0.8;" x="100.8" xlink:href="#mdd8e9d6463" y="648"/>
      </g>
     </g>
     <g id="text_12">
      <!-- 0.0 -->
      <g transform="translate(89.55 667.293437)scale(0.18 -0.18)">
       <use xlink:href="#STIXGeneral-Regular-48"/>
       <use x="49.999985" xlink:href="#STIXGeneral-Regular-46"/>
       <use x="74.999969" xlink:href="#STIXGeneral-Regular-48"/>
      </g>
     </g>
    </g>
    <g id="xtick_12">
     <g id="line2d_44">
      <g>
       <use style="fill:#ffffff;stroke:#000000;stroke-width:0.8;" x="193.703226" xlink:href="#mdd8e9d6463" y="648"/>
      </g>
     </g>
     <g id="text_13">
      <!-- 0.5 -->
      <g transform="translate(182.453226 667.293437)scale(0.18 -0.18)">
       <use xlink:href="#STIXGeneral-Regular-48"/>
       <use x="49.999985" xlink:href="#STIXGeneral-Regular-46"/>
       <use x="74.999969" xlink:href="#STIXGeneral-Regular-53"/>
      </g>
     </g>
    </g>
    <g id="xtick_13">
     <g id="line2d_45">
      <g>
       <use style="fill:#ffffff;stroke:#000000;stroke-width:0.8;" x="286.606452" xlink:href="#mdd8e9d6463" y="648"/>
      </g>
     </g>
     <g id="text_14">
      <!-- 1.0 -->
      <g transform="translate(275.356452 667.293437)scale(0.18 -0.18)">
       <use xlink:href="#STIXGeneral-Regular-49"/>
       <use x="49.999985" xlink:href="#STIXGeneral-Regular-46"/>
       <use x="74.999969" xlink:href="#STIXGeneral-Regular-48"/>
      </g>
     </g>
    </g>
    <g id="xtick_14">
     <g id="line2d_46">
      <g>
       <use style="fill:#ffffff;stroke:#000000;stroke-width:0.8;" x="379.509677" xlink:href="#mdd8e9d6463" y="648"/>
      </g>
     </g>
     <g id="text_15">
      <!-- 1.5 -->
      <g transform="translate(368.259677 667.293437)scale(0.18 -0.18)">
       <use xlink:href="#STIXGeneral-Regular-49"/>
       <use x="49.999985" xlink:href="#STIXGeneral-Regular-46"/>
       <use x="74.999969" xlink:href="#STIXGeneral-Regular-53"/>
      </g>
     </g>
    </g>
    <g id="xtick_15">
     <g id="line2d_47">
      <g>
       <use style="fill:#ffffff;stroke:#000000;stroke-width:0.8;" x="472.412903" xlink:href="#mdd8e9d6463" y="648"/>
      </g>
     </g>
     <g id="text_16">
      <!-- 2.0 -->
      <g transform="translate(461.162903 667.293437)scale(0.18 -0.18)">
       <use xlink:href="#STIXGeneral-Regular-50"/>
       <use x="49.999985" xlink:href="#STIXGeneral-Regular-46"/>
       <use x="74.999969" xlink:href="#STIXGeneral-Regular-48"/>
      </g>
     </g>
    </g>
    <g id="text_17">
     <!-- $\^t$ -->
     <defs>
      <path d="M -7.5 50.703125 
L -10.90625 50.703125 
L -23.09375 61 
L -35.203125 50.703125 
L -38.59375 50.703125 
L -26.203125 67.40625 
L -20 67.40625 
z
" id="STIXGeneral-Regular-770"/>
      <path d="M 29.59375 42.796875 
L 29.09375 39.59375 
L 20.703125 39.59375 
L 12 6.796875 
Q 11.796875 6 11.796875 5.40625 
Q 11.796875 3.796875 13.296875 3.796875 
Q 14.5 3.796875 16.09375 5.34375 
Q 17.703125 6.90625 21.40625 11.703125 
L 22.703125 11 
Q 18.09375 4 15.140625 1.453125 
Q 12.203125 -1.09375 8.40625 -1.09375 
Q 3.796875 -1.09375 3.796875 2.59375 
Q 3.796875 3.59375 5.40625 10 
L 13.203125 39.59375 
L 5.703125 39.59375 
L 5.59375 40.203125 
Q 5.59375 42 8.90625 42.703125 
Q 11.40625 43.296875 15.5 46.546875 
Q 19.59375 49.796875 22.203125 53.703125 
Q 22.796875 54.59375 23.59375 54.59375 
Q 24.5 54.59375 24.5 53.796875 
Q 24.5 53.296875 24.40625 53.09375 
L 21.59375 42.796875 
z
" id="STIXGeneral-Italic-116"/>
     </defs>
     <g transform="translate(284.086452 687.493438)scale(0.18 -0.18)">
      <use transform="translate(39.042969 16.59375)" xlink:href="#STIXGeneral-Regular-770"/>
      <use transform="translate(0 0.203125)" xlink:href="#STIXGeneral-Italic-116"/>
     </g>
    </g>
   </g>
   <g id="matplotlib.axis_6">
    <g id="ytick_11">
     <g id="line2d_48">
      <g>
       <use style="fill:#ffffff;stroke:#000000;stroke-width:0.8;" x="100.8" xlink:href="#m0bd6805e60" y="617.950439"/>
      </g>
     </g>
     <g id="text_18">
      <!-- −10 -->
      <g transform="translate(63.47 624.097158)scale(0.18 -0.18)">
       <use xlink:href="#STIXGeneral-Regular-8722"/>
       <use x="68.499985" xlink:href="#STIXGeneral-Regular-49"/>
       <use x="118.499969" xlink:href="#STIXGeneral-Regular-48"/>
      </g>
     </g>
    </g>
    <g id="ytick_12">
     <g id="line2d_49">
      <g>
       <use style="fill:#ffffff;stroke:#000000;stroke-width:0.8;" x="100.8" xlink:href="#m0bd6805e60" y="567.867838"/>
      </g>
     </g>
     <g id="text_19">
      <!-- 0 -->
      <g transform="translate(84.8 574.014556)scale(0.18 -0.18)">
       <use xlink:href="#STIXGeneral-Regular-48"/>
      </g>
     </g>
    </g>
    <g id="ytick_13">
     <g id="line2d_50">
      <g>
       <use style="fill:#ffffff;stroke:#000000;stroke-width:0.8;" x="100.8" xlink:href="#m0bd6805e60" y="517.785236"/>
      </g>
     </g>
     <g id="text_20">
      <!-- 10 -->
      <g transform="translate(75.8 523.931955)scale(0.18 -0.18)">
       <use xlink:href="#STIXGeneral-Regular-49"/>
       <use x="49.999985" xlink:href="#STIXGeneral-Regular-48"/>
      </g>
     </g>
    </g>
    <g id="ytick_14">
     <g id="line2d_51">
      <g>
       <use style="fill:#ffffff;stroke:#000000;stroke-width:0.8;" x="100.8" xlink:href="#m0bd6805e60" y="467.702635"/>
      </g>
     </g>
     <g id="text_21">
      <!-- 20 -->
      <g transform="translate(75.8 473.849353)scale(0.18 -0.18)">
       <use xlink:href="#STIXGeneral-Regular-50"/>
       <use x="49.999985" xlink:href="#STIXGeneral-Regular-48"/>
      </g>
     </g>
    </g>
    <g id="ytick_15">
     <g id="line2d_52">
      <g>
       <use style="fill:#ffffff;stroke:#000000;stroke-width:0.8;" x="100.8" xlink:href="#m0bd6805e60" y="417.620033"/>
      </g>
     </g>
     <g id="text_22">
      <!-- 30 -->
      <g transform="translate(75.8 423.766752)scale(0.18 -0.18)">
       <use xlink:href="#STIXGeneral-Regular-51"/>
       <use x="49.999985" xlink:href="#STIXGeneral-Regular-48"/>
      </g>
     </g>
    </g>
    <g id="text_23">
     <!-- $C_l$ -->
     <g transform="translate(55.563438 523.471106)rotate(-90)scale(0.18 -0.18)">
      <use transform="translate(0 0.40625)" xlink:href="#STIXGeneral-Italic-67"/>
      <use transform="translate(66.699997 -12.821875)scale(0.7)" xlink:href="#STIXGeneral-Italic-108"/>
     </g>
    </g>
   </g>
   <g id="line2d_53">
    <path clip-path="url(#pd14a269ca6)" d="M 101.357419 567.329473 
L 102.472258 565.93731 
L 103.029677 564.60462 
L 103.587097 562.615187 
L 104.330323 559.000304 
L 105.630968 552.564173 
L 106.188387 550.734873 
L 106.745806 549.513862 
L 107.303226 548.739193 
L 108.046452 548.134358 
L 108.975484 547.739047 
L 110.461935 547.398377 
L 114.178065 546.622333 
L 116.221935 545.953506 
L 117.894194 545.198083 
L 119.752258 544.107099 
L 123.654194 541.577444 
L 124.211613 541.557641 
L 124.583226 541.717014 
L 124.954839 542.063705 
L 125.512258 543.128524 
L 126.069677 544.877348 
L 126.99871 548.999192 
L 127.927742 552.901537 
L 128.485161 554.492553 
L 129.042581 555.518581 
L 129.6 556.126769 
L 130.343226 556.546378 
L 131.272258 556.763785 
L 132.015484 556.878052 
L 135.174194 556.973183 
L 139.819355 556.95384 
L 151.710968 556.910888 
L 162.301935 556.917658 
L 162.859355 556.915572 
L 174.565161 556.931318 
L 176.609032 556.931988 
L 189.615484 556.9288 
L 199.091613 556.923083 
L 212.283871 556.924817 
L 212.84129 556.916088 
L 224.547097 556.909872 
L 226.033548 556.917572 
L 229.192258 556.899082 
L 231.050323 556.882447 
L 231.979355 556.835669 
L 233.28 556.605154 
L 234.023226 556.229 
L 234.580645 555.692184 
L 235.138065 554.720409 
L 235.695484 553.012999 
L 236.067097 551.249039 
L 236.624516 547.232024 
L 237.181935 541.052342 
L 237.925161 529.135257 
L 239.411613 502.762613 
L 239.969032 496.134154 
L 240.526452 491.695619 
L 241.083871 488.794573 
L 243.313548 479.339593 
L 246.100645 463.335768 
L 246.658065 461.3424 
L 247.029677 460.771394 
L 247.215484 460.736105 
L 247.40129 460.858689 
L 247.772903 461.770165 
L 248.144516 463.606205 
L 248.701935 468.368524 
L 249.445161 477.745539 
L 250.745806 495.71461 
L 251.674839 505.391134 
L 252.789677 514.398744 
L 254.647742 527.42809 
L 260.221935 564.970685 
L 261.150968 569.676358 
L 262.08 573.302251 
L 263.194839 576.771669 
L 264.309677 579.604003 
L 265.610323 582.203696 
L 266.725161 583.925057 
L 267.468387 584.775414 
L 268.211613 585.272411 
L 268.769032 585.238041 
L 269.140645 584.881694 
L 269.512258 584.153066 
L 269.883871 582.899823 
L 270.255484 580.920164 
L 270.812903 576.335779 
L 271.556129 566.919166 
L 273.414194 540.174219 
L 274.157419 533.317889 
L 274.900645 528.521781 
L 275.643871 525.064871 
L 276.572903 521.875694 
L 277.316129 520.053031 
L 278.059355 518.786585 
L 278.802581 517.960229 
L 279.36 517.622378 
L 279.917419 517.611605 
L 280.289032 517.784052 
L 280.660645 518.355011 
L 281.218065 520.452542 
L 281.589677 523.085077 
L 282.147097 529.627629 
L 282.890323 542.07413 
L 284.005161 562.317073 
L 284.562581 569.179105 
L 285.12 573.956939 
L 285.677419 577.178549 
L 286.234839 579.229932 
L 286.792258 580.482685 
L 287.349677 581.185068 
L 287.72129 581.489045 
L 289.765161 582.66 
L 290.322581 582.756814 
L 290.694194 582.690995 
L 291.065806 582.604161 
L 291.437419 582.520505 
L 293.295484 581.393789 
L 297.754839 576.154973 
L 299.055484 575.176082 
L 300.913548 574.074686 
L 304.072258 572.279609 
L 306.487742 571.056904 
L 314.477419 567.197581 
L 317.450323 566.444665 
L 321.538065 565.794293 
L 324.139355 565.488105 
L 326.926452 565.096999 
L 331.757419 564.973745 
L 332.872258 565.056169 
L 334.172903 565.120543 
L 334.916129 565.187531 
L 338.260645 565.494038 
L 355.169032 567.27946 
L 355.726452 567.33162 
L 357.770323 567.496319 
L 360.929032 567.676644 
L 362.415484 567.72582 
L 363.716129 567.77495 
L 367.246452 567.845979 
L 370.033548 567.902536 
L 373.749677 567.968424 
L 377.28 568.049206 
L 379.88129 568.123263 
L 387.870968 568.469315 
L 389.729032 568.569461 
L 411.654194 569.583316 
L 416.299355 569.674248 
L 423.731613 569.696901 
L 430.234839 569.599961 
L 451.045161 569.190992 
L 462.007742 569.356341 
L 472.59871 569.579164 
L 472.59871 569.579164 
" style="fill:none;stroke:#1f77b4;stroke-linecap:square;stroke-width:3;"/>
   </g>
   <g id="line2d_54">
    <path clip-path="url(#pd14a269ca6)" d="M 101.357419 567.596092 
L 102.658065 566.704474 
L 103.215484 565.928639 
L 103.95871 564.365147 
L 105.816774 559.789989 
L 106.56 558.754918 
L 107.303226 558.169269 
L 108.232258 557.789107 
L 109.71871 557.483651 
L 112.877419 556.864408 
L 114.735484 556.27088 
L 116.407742 555.517208 
L 118.265806 554.443051 
L 120.68129 552.755352 
L 123.654194 550.625938 
L 124.397419 550.335436 
L 124.954839 550.336342 
L 125.512258 550.634716 
L 126.069677 551.298974 
L 126.812903 552.681904 
L 127.927742 554.822379 
L 128.670968 555.719593 
L 129.414194 556.210027 
L 130.343226 556.495535 
L 132.015484 556.685577 
L 135.917419 556.84739 
L 137.218065 556.874605 
L 142.234839 556.923904 
L 143.535484 556.923727 
L 195.003871 556.996312 
L 211.726452 557.415221 
L 220.273548 557.825858 
L 221.202581 557.872533 
L 233.651613 558.627611 
L 234.766452 558.459661 
L 235.323871 558.215993 
L 235.88129 557.753818 
L 236.43871 556.938237 
L 236.996129 555.628498 
L 237.553548 553.716745 
L 238.668387 548.675656 
L 239.411613 545.650156 
L 240.154839 543.597415 
L 240.898065 542.325639 
L 243.127742 539.103126 
L 245.914839 534.165674 
L 246.658065 533.328268 
L 247.215484 533.093979 
L 247.587097 533.16553 
L 247.95871 533.48715 
L 248.516129 534.545984 
L 249.073548 536.22762 
L 252.232258 547.385136 
L 255.205161 555.353752 
L 259.664516 566.897555 
L 260.593548 568.768212 
L 261.336774 569.833595 
L 262.08 570.545185 
L 263.009032 571.103271 
L 263.938065 571.413927 
L 264.867097 571.521165 
L 265.981935 571.38769 
L 266.910968 571.050873 
L 268.025806 570.328348 
L 268.769032 569.584464 
L 269.326452 568.798871 
L 269.883871 567.715182 
L 270.44129 566.205129 
L 271.184516 563.325595 
L 272.299355 557.595163 
L 273.414194 552.256331 
L 274.343226 548.974887 
L 275.272258 546.482192 
L 276.387097 544.168294 
L 277.501935 542.424246 
L 278.430968 541.336933 
L 279.36 540.624106 
L 279.917419 540.438328 
L 280.474839 540.475215 
L 280.846452 540.692933 
L 281.218065 541.125507 
L 281.775484 542.282305 
L 282.332903 544.179588 
L 283.261935 548.628452 
L 284.190968 552.86537 
L 284.748387 554.599592 
L 285.305806 555.662322 
L 285.863226 556.232857 
L 286.420645 556.499091 
L 286.978065 556.546016 
L 287.907097 556.369756 
L 290.322581 555.688382 
L 292.923871 555.296291 
L 296.825806 554.967109 
L 298.683871 555.041734 
L 300.356129 555.308775 
L 302.585806 555.956776 
L 304.629677 556.780239 
L 307.230968 558.041318 
L 309.646452 559.32211 
L 314.477419 561.753997 
L 320.609032 564.141292 
L 322.095484 564.593908 
L 323.210323 564.917591 
L 326.926452 565.802416 
L 336.96 567.21154 
L 341.605161 567.557135 
L 351.08129 567.951986 
L 394.56 568.466927 
L 404.965161 568.522454 
L 409.981935 568.54894 
L 472.59871 568.710787 
L 472.59871 568.710787 
" style="fill:none;stroke:#ff7f0e;stroke-linecap:square;stroke-width:3;"/>
   </g>
   <g id="line2d_55">
    <path clip-path="url(#pd14a269ca6)" d="M 101.357419 567.73038 
L 102.658065 567.280202 
L 103.40129 566.719211 
L 104.144516 565.857707 
L 105.816774 563.77048 
L 106.56 563.235824 
L 107.489032 562.870768 
L 108.975484 562.583301 
L 111.948387 562.018424 
L 113.806452 561.413544 
L 115.664516 560.572627 
L 117.894194 559.318569 
L 120.309677 557.7193 
L 124.583226 554.722106 
L 125.326452 554.523676 
L 125.883871 554.580625 
L 126.627097 554.984189 
L 128.485161 556.265756 
L 129.414194 556.551536 
L 131.086452 556.753627 
L 134.988387 556.917289 
L 138.332903 556.942602 
L 140.005161 556.921522 
L 142.792258 556.92035 
L 150.781935 556.921466 
L 152.268387 556.925665 
L 159.514839 557.093161 
L 165.646452 557.450576 
L 171.592258 558.05947 
L 176.794839 558.821198 
L 182.554839 559.890156 
L 187.2 560.973932 
L 195.375484 563.018928 
L 197.233548 563.147803 
L 199.091613 563.068854 
L 201.135484 562.786462 
L 203.922581 562.193973 
L 205.223226 561.877768 
L 211.912258 560.539729 
L 214.885161 560.253408 
L 216 560.180391 
L 220.273548 560.105802 
L 223.989677 560.244577 
L 229.378065 560.652915 
L 232.722581 560.718156 
L 234.580645 560.557687 
L 235.695484 560.261145 
L 236.43871 559.859837 
L 236.996129 559.376271 
L 237.739355 558.418524 
L 238.854194 556.4624 
L 240.526452 553.544969 
L 244.056774 548.061934 
L 245.357419 546.436429 
L 246.472258 545.398739 
L 247.215484 544.994708 
L 247.772903 544.902902 
L 248.330323 545.050776 
L 248.887742 545.445538 
L 249.630968 546.293534 
L 251.303226 548.784072 
L 253.347097 552.217586 
L 255.762581 556.809194 
L 260.221935 565.38246 
L 261.150968 566.711942 
L 262.08 567.700207 
L 263.194839 568.543739 
L 264.309677 569.10485 
L 265.424516 569.420526 
L 266.539355 569.523495 
L 267.84 569.423891 
L 269.326452 569.051772 
L 270.255484 568.61495 
L 271.184516 567.901321 
L 273.228387 566.099194 
L 273.971613 565.796517 
L 274.900645 565.706338 
L 275.829677 565.825297 
L 277.130323 566.195771 
L 279.174194 567.016024 
L 280.289032 567.667859 
L 281.032258 568.3719 
L 281.775484 569.475647 
L 282.51871 571.04445 
L 283.819355 573.970194 
L 284.376774 574.82335 
L 284.934194 575.36335 
L 285.677419 575.7401 
L 286.606452 575.923131 
L 288.092903 575.989954 
L 289.579355 575.898443 
L 291.251613 575.537512 
L 292.923871 574.933752 
L 294.967742 573.972564 
L 297.197419 572.656541 
L 300.727742 570.451647 
L 302.214194 569.792416 
L 303.514839 569.448277 
L 304.815484 569.315077 
L 306.487742 569.35454 
L 312.061935 569.648705 
L 314.663226 569.434928 
L 316.707097 568.993022 
L 318.936774 568.257337 
L 324.139355 566.399008 
L 326.183226 565.98014 
L 328.227097 565.802487 
L 331.014194 565.830422 
L 339.747097 566.116834 
L 345.692903 566.006318 
L 357.770323 565.867192 
L 372.820645 566.07086 
L 390.100645 566.264562 
L 451.045161 566.553352 
L 472.59871 566.801252 
L 472.59871 566.801252 
" style="fill:none;stroke:#2ca02c;stroke-linecap:square;stroke-width:3;"/>
   </g>
   <g id="line2d_56">
    <path clip-path="url(#pd14a269ca6)" d="M 100.8 567.867838 
L 472.412903 567.867838 
" style="fill:none;stroke:#000000;stroke-dasharray:3.2,0.8,0.5,0.8;stroke-dashoffset:0;stroke-width:0.5;"/>
   </g>
   <g id="line2d_57">
    <path clip-path="url(#pd14a269ca6)" d="M 286.606452 648 
L 286.606452 382.562212 
" style="fill:none;stroke:#000000;stroke-linecap:square;stroke-width:0.5;"/>
   </g>
   <g id="line2d_58">
    <path clip-path="url(#pd14a269ca6)" d="M 323.767742 648 
L 323.767742 382.562212 
" style="fill:none;stroke:#000000;stroke-dasharray:3.2,0.8,0.5,0.8;stroke-dashoffset:0;stroke-opacity:0.25;stroke-width:0.5;"/>
   </g>
   <g id="line2d_59">
    <path clip-path="url(#pd14a269ca6)" d="M 360.929032 648 
L 360.929032 382.562212 
" style="fill:none;stroke:#000000;stroke-dasharray:3.2,0.8,0.5,0.8;stroke-dashoffset:0;stroke-opacity:0.25;stroke-width:0.5;"/>
   </g>
   <g id="line2d_60">
    <path clip-path="url(#pd14a269ca6)" d="M 398.090323 648 
L 398.090323 382.562212 
" style="fill:none;stroke:#000000;stroke-dasharray:3.2,0.8,0.5,0.8;stroke-dashoffset:0;stroke-opacity:0.25;stroke-width:0.5;"/>
   </g>
   <g id="patch_13">
    <path d="M 100.8 648 
L 100.8 382.562212 
" style="fill:none;stroke:#000000;stroke-linecap:square;stroke-linejoin:miter;stroke-width:0.8;"/>
   </g>
   <g id="patch_14">
    <path d="M 472.412903 648 
L 472.412903 382.562212 
" style="fill:none;stroke:#000000;stroke-linecap:square;stroke-linejoin:miter;stroke-width:0.8;"/>
   </g>
   <g id="patch_15">
    <path d="M 100.8 648 
L 472.412903 648 
" style="fill:none;stroke:#000000;stroke-linecap:square;stroke-linejoin:miter;stroke-width:0.8;"/>
   </g>
   <g id="patch_16">
    <path d="M 100.8 382.562212 
L 472.412903 382.562212 
" style="fill:none;stroke:#000000;stroke-linecap:square;stroke-linejoin:miter;stroke-width:0.8;"/>
   </g>
   <g id="text_24">
    <!-- stroke motion -->
    <defs>
     <path d="M 15.59375 30.09375 
L 26 23.796875 
Q 31 20.796875 32.890625 18.1875 
Q 34.796875 15.59375 34.796875 11.5 
Q 34.796875 6.5 30.640625 2.75 
Q 26.5 -1 20.796875 -1 
Q 16.09375 -1 13.5 -0.09375 
Q 10.796875 0.796875 8.90625 0.796875 
Q 7.203125 0.796875 6.5 -0.40625 
L 5.203125 -0.40625 
L 5.203125 15.296875 
L 6.796875 15.296875 
Q 8.40625 8 11.40625 4.59375 
Q 14.40625 1.203125 19.5 1.203125 
Q 23.203125 1.203125 25.5 3.296875 
Q 27.796875 5.40625 27.796875 8.59375 
Q 27.796875 13.203125 22.5 16.09375 
L 17.09375 19.09375 
Q 5.09375 25.796875 5.09375 33.59375 
Q 5.09375 39.40625 8.84375 42.65625 
Q 12.59375 45.90625 18.90625 45.90625 
Q 23.296875 45.90625 25.59375 44.796875 
Q 27.40625 44 28.40625 44 
Q 29.09375 44 30 45 
L 31.09375 45 
L 31.59375 31.40625 
L 30.09375 31.40625 
Q 28.40625 38.203125 25.84375 40.953125 
Q 23.296875 43.703125 18.796875 43.703125 
Q 15.40625 43.703125 13.34375 42 
Q 11.296875 40.296875 11.296875 36.90625 
Q 11.296875 35.203125 12.4375 33.25 
Q 13.59375 31.296875 15.59375 30.09375 
z
" id="STIXGeneral-Regular-115"/>
     <path d="M 26.59375 7.703125 
L 27.90625 6.59375 
Q 23.09375 -1 15.796875 -1 
Q 7 -1 7 11.703125 
L 7 41.796875 
L 1.703125 41.796875 
Q 1.296875 42.09375 1.296875 42.5 
Q 1.296875 43.296875 3 44.40625 
Q 6.796875 46.59375 12.703125 55.09375 
Q 12.90625 55.40625 13.65625 56.34375 
Q 14.40625 57.296875 14.703125 57.90625 
Q 15.40625 57.90625 15.40625 56.59375 
L 15.40625 45 
L 25.5 45 
L 25.5 41.796875 
L 15.40625 41.796875 
L 15.40625 13.203125 
Q 15.40625 8.40625 16.59375 6.296875 
Q 17.796875 4.203125 20.59375 4.203125 
Q 23.59375 4.203125 26.59375 7.703125 
z
" id="STIXGeneral-Regular-116"/>
     <path d="M 16 45.796875 
L 16 36.59375 
Q 19.796875 42 22.34375 44 
Q 24.90625 46 28 46 
Q 30.59375 46 32.046875 44.59375 
Q 33.5 43.203125 33.5 40.703125 
Q 33.5 38.59375 32.453125 37.390625 
Q 31.40625 36.203125 29.59375 36.203125 
Q 27.703125 36.203125 25.59375 38.203125 
Q 24 39.703125 23 39.703125 
Q 20.90625 39.703125 18.453125 36.796875 
Q 16 33.90625 16 31.5 
L 16 9 
Q 16 4.703125 17.703125 3.203125 
Q 19.40625 1.703125 24.5 1.5 
L 24.5 0 
L 0.5 0 
L 0.5 1.5 
Q 5.296875 2.40625 6.4375 3.5 
Q 7.59375 4.59375 7.59375 8.40625 
L 7.59375 33.40625 
Q 7.59375 36.703125 6.84375 38.046875 
Q 6.09375 39.40625 4.203125 39.40625 
Q 2.59375 39.40625 0.703125 39 
L 0.703125 40.59375 
Q 7 42.59375 15.5 46 
z
" id="STIXGeneral-Regular-114"/>
     <path d="M 47 23.09375 
Q 47 12.59375 40.75 5.796875 
Q 34.5 -1 24.5 -1 
Q 15.296875 -1 9.09375 5.75 
Q 2.90625 12.5 2.90625 22.796875 
Q 2.90625 33.203125 9.09375 39.59375 
Q 15.296875 46 25.40625 46 
Q 34.703125 46 40.84375 39.640625 
Q 47 33.296875 47 23.09375 
z
M 38 20.40625 
Q 38 31.796875 33 38.203125 
Q 29 43.203125 23.5 43.203125 
Q 18.296875 43.203125 15.09375 38.953125 
Q 11.90625 34.703125 11.90625 27.296875 
Q 11.90625 14.5 17.203125 6.796875 
Q 20.59375 1.796875 26.203125 1.796875 
Q 31.703125 1.796875 34.84375 6.75 
Q 38 11.703125 38 20.40625 
z
" id="STIXGeneral-Regular-111"/>
     <path d="M 50.5 0 
L 28.703125 0 
L 28.703125 1.5 
L 30.59375 1.5 
Q 32.703125 1.5 32.703125 3 
Q 32.703125 3.90625 31.59375 5.296875 
L 16.59375 25.09375 
L 16.59375 6.703125 
Q 16.59375 4.09375 17.84375 2.890625 
Q 19.09375 1.703125 22.09375 1.59375 
L 24.09375 1.5 
L 24.09375 0 
L 0.703125 0 
L 0.703125 1.5 
Q 6.09375 2.40625 7.140625 3.34375 
Q 8.203125 4.296875 8.203125 8.203125 
L 8.203125 56.40625 
Q 8.203125 60 7.296875 61.25 
Q 6.40625 62.5 3.90625 62.5 
Q 3.296875 62.5 0.703125 62.296875 
L 0.703125 63.90625 
L 3.703125 64.703125 
Q 9.703125 66.296875 16.203125 68.296875 
L 16.59375 68.09375 
L 16.59375 26.09375 
L 30.296875 38.296875 
Q 32.59375 40.40625 32.59375 41.796875 
Q 32.59375 42.796875 31.546875 43.140625 
Q 30.5 43.5 27.59375 43.59375 
L 27.59375 45 
L 48 45 
L 48 43.5 
Q 43 43.5 39.140625 41.34375 
Q 35.296875 39.203125 26.40625 30.90625 
L 23.5 28.203125 
L 38.796875 8.796875 
Q 44.203125 1.90625 50.5 1.5 
z
" id="STIXGeneral-Regular-107"/>
     <path d="M 40.796875 16.40625 
L 42.40625 15.703125 
Q 36.40625 -1 21.5 -1 
Q 12.703125 -1 7.59375 5.140625 
Q 2.5 11.296875 2.5 21.703125 
Q 2.5 32.40625 8.203125 39.203125 
Q 13.90625 46 23.203125 46 
Q 32.203125 46 37.09375 39.09375 
Q 40 35.09375 40.5 27.703125 
L 9.703125 27.703125 
Q 10.09375 21.40625 10.9375 18.09375 
Q 11.796875 14.796875 14.296875 11.40625 
Q 18.5 5.90625 25.40625 5.90625 
Q 30.296875 5.90625 33.640625 8.296875 
Q 37 10.703125 40.796875 16.40625 
z
M 9.90625 30.90625 
L 30.296875 30.90625 
Q 29.40625 37.203125 27.34375 39.796875 
Q 25.296875 42.40625 20.5 42.40625 
Q 16.296875 42.40625 13.5 39.453125 
Q 10.703125 36.5 9.90625 30.90625 
z
" id="STIXGeneral-Regular-101"/>
     <path id="STIXGeneral-Regular-32"/>
     <path d="M 77.5 0 
L 55.703125 0 
L 55.703125 1.5 
Q 59.90625 1.90625 61.046875 3.25 
Q 62.203125 4.59375 62.203125 9 
L 62.203125 29.59375 
Q 62.203125 35.59375 60.453125 38.1875 
Q 58.703125 40.796875 54.5 40.796875 
Q 51 40.796875 48.546875 39.390625 
Q 46.09375 38 43.796875 34.703125 
L 43.796875 9.5 
Q 43.796875 4.703125 45.25 3.140625 
Q 46.703125 1.59375 51 1.5 
L 51 0 
L 28.59375 0 
L 28.59375 1.5 
Q 33 1.796875 34.203125 2.9375 
Q 35.40625 4.09375 35.40625 8.59375 
L 35.40625 29.703125 
Q 35.40625 40.796875 28.90625 40.796875 
Q 26.09375 40.796875 22.9375 39.546875 
Q 19.796875 38.296875 18.296875 36.5 
Q 17 35 17 34.796875 
L 17 7 
Q 17 3.796875 18.390625 2.75 
Q 19.796875 1.703125 23.796875 1.5 
L 23.796875 0 
L 1.59375 0 
L 1.59375 1.5 
Q 5.796875 1.59375 7.1875 3.046875 
Q 8.59375 4.5 8.59375 8.796875 
L 8.59375 33.59375 
Q 8.59375 37.296875 7.796875 38.75 
Q 7 40.203125 5.09375 40.203125 
Q 3.59375 40.203125 1.90625 39.796875 
L 1.90625 41.5 
Q 8.703125 43.40625 15.796875 46 
L 16.59375 45.703125 
L 16.59375 38.296875 
L 16.796875 38.296875 
Q 21.296875 43 24.75 44.5 
Q 28.203125 46 32.09375 46 
Q 40 46 42.703125 37.59375 
Q 50.5 46 59 46 
Q 70.59375 46 70.59375 28 
L 70.59375 7.703125 
Q 70.59375 4.40625 71.59375 3.15625 
Q 72.59375 1.90625 74.90625 1.703125 
L 77.5 1.5 
z
" id="STIXGeneral-Regular-109"/>
     <path d="M 18 63.203125 
Q 18 61 16.5 59.546875 
Q 15 58.09375 12.796875 58.09375 
Q 10.703125 58.09375 9.25 59.546875 
Q 7.796875 61 7.796875 63.203125 
Q 7.796875 65.296875 9.296875 66.796875 
Q 10.796875 68.296875 12.90625 68.296875 
Q 15.09375 68.296875 16.546875 66.796875 
Q 18 65.296875 18 63.203125 
z
M 25.296875 0 
L 1.59375 0 
L 1.59375 1.5 
Q 6.796875 1.796875 8.140625 3.296875 
Q 9.5 4.796875 9.5 10.40625 
L 9.5 33.09375 
Q 9.5 36.59375 8.796875 38 
Q 8.09375 39.40625 6.203125 39.40625 
Q 3.796875 39.40625 2 38.90625 
L 2 40.5 
L 17.5 46 
L 17.90625 45.59375 
L 17.90625 10.5 
Q 17.90625 4.90625 19.15625 3.40625 
Q 20.40625 1.90625 25.296875 1.5 
z
" id="STIXGeneral-Regular-105"/>
     <path d="M 48.5 0 
L 27.703125 0 
L 27.796875 1.5 
Q 31.5 1.796875 32.75 3.640625 
Q 34 5.5 34 10.5 
L 34 30.40625 
Q 34 40.5 26.703125 40.5 
Q 24.203125 40.5 22 39.296875 
Q 19.796875 38.09375 16.40625 34.796875 
L 16.40625 7.203125 
Q 16.40625 4.203125 17.75 3 
Q 19.09375 1.796875 22.90625 1.5 
L 22.90625 0 
L 1.796875 0 
L 1.796875 1.5 
Q 5.59375 1.796875 6.796875 3.34375 
Q 8 4.90625 8 9.40625 
L 8 33.703125 
Q 8 37.40625 7.296875 38.796875 
Q 6.59375 40.203125 4.5 40.203125 
Q 2.5 40.203125 1.59375 39.796875 
L 1.59375 41.5 
Q 8.59375 43.5 15.296875 46 
L 16.09375 45.703125 
L 16.09375 37.90625 
L 16.203125 37.90625 
Q 23.296875 46 30.59375 46 
Q 36.296875 46 39.34375 42 
Q 42.40625 38 42.40625 30.59375 
L 42.40625 8.5 
Q 42.40625 4.5 43.59375 3.203125 
Q 44.796875 1.90625 48.5 1.5 
z
" id="STIXGeneral-Regular-110"/>
    </defs>
    <g transform="translate(153.24183 638.921548)scale(0.18 -0.18)">
     <use xlink:href="#STIXGeneral-Regular-115"/>
     <use x="38.899994" xlink:href="#STIXGeneral-Regular-116"/>
     <use x="66.699982" xlink:href="#STIXGeneral-Regular-114"/>
     <use x="99.999969" xlink:href="#STIXGeneral-Regular-111"/>
     <use x="149.999954" xlink:href="#STIXGeneral-Regular-107"/>
     <use x="199.999939" xlink:href="#STIXGeneral-Regular-101"/>
     <use x="244.399933" xlink:href="#STIXGeneral-Regular-32"/>
     <use x="269.399918" xlink:href="#STIXGeneral-Regular-109"/>
     <use x="347.199905" xlink:href="#STIXGeneral-Regular-111"/>
     <use x="397.19989" xlink:href="#STIXGeneral-Regular-116"/>
     <use x="424.999878" xlink:href="#STIXGeneral-Regular-105"/>
     <use x="452.799866" xlink:href="#STIXGeneral-Regular-111"/>
     <use x="502.79985" xlink:href="#STIXGeneral-Regular-110"/>
    </g>
   </g>
   <g id="text_25">
    <!-- wake effect -->
    <defs>
     <path d="M 69.40625 45 
L 69.40625 43.5 
Q 67.90625 43 67.203125 42.046875 
Q 66.5 41.09375 65.296875 38.09375 
L 51.5 3.5 
Q 49.5 -1.40625 48.703125 -1.40625 
Q 48.203125 -1.40625 47.84375 -0.75 
Q 47.5 -0.09375 46.296875 2.90625 
L 37.203125 26.5 
L 26 2.5 
Q 24.203125 -1.40625 23.5 -1.40625 
Q 22.59375 -1.40625 20.90625 3 
L 7.40625 37.203125 
Q 5.90625 41.09375 4.90625 42.1875 
Q 3.90625 43.296875 2.09375 43.5 
L 2.09375 45 
L 20.09375 45 
L 20.09375 43.5 
Q 17.5 43.203125 16.5 42.5 
Q 15.5 41.796875 15.5 40.203125 
Q 15.5 38.703125 16.09375 37.203125 
L 26 11.09375 
L 35.09375 31 
L 33.09375 36.59375 
Q 31.703125 40.59375 30.34375 41.890625 
Q 29 43.203125 26.203125 43.5 
L 26.203125 45 
L 46.5 45 
L 46.5 43.5 
Q 43 43 41.84375 42.296875 
Q 40.703125 41.59375 40.703125 40 
Q 40.703125 38.40625 42.40625 34 
L 50.796875 11.59375 
L 59.796875 33.796875 
Q 61.5 38 61.5 40.5 
Q 61.5 41.703125 60.546875 42.34375 
Q 59.59375 43 57.09375 43.5 
L 57.09375 45 
z
" id="STIXGeneral-Regular-119"/>
     <path d="M 44.203125 6.59375 
L 44.203125 3.796875 
Q 40.40625 -1 35.203125 -1 
Q 29.5 -1 28.796875 6.296875 
L 28.703125 6.296875 
Q 22.296875 -1 14.203125 -1 
Q 9.5 -1 6.59375 1.75 
Q 3.703125 4.5 3.703125 9.40625 
Q 3.703125 16.40625 10.703125 21.09375 
Q 15.5 24.296875 28.703125 29.203125 
L 28.703125 34.59375 
Q 28.703125 39.09375 26.546875 41.34375 
Q 24.40625 43.59375 20.90625 43.59375 
Q 17.90625 43.59375 15.90625 42.140625 
Q 13.90625 40.703125 13.90625 38.703125 
Q 13.90625 37.796875 14.203125 36.6875 
Q 14.5 35.59375 14.5 34.5 
Q 14.5 33 13.140625 31.703125 
Q 11.796875 30.40625 9.90625 30.40625 
Q 8.203125 30.40625 6.890625 31.703125 
Q 5.59375 33 5.59375 35 
Q 5.59375 39.796875 10.703125 43 
Q 15.40625 46 22.203125 46 
Q 30.296875 46 34 41.5 
Q 35.796875 39.40625 36.296875 37.25 
Q 36.796875 35.09375 36.796875 30.40625 
L 36.796875 11.296875 
Q 36.796875 4.703125 39.90625 4.703125 
Q 41.90625 4.703125 44.203125 6.59375 
z
M 28.703125 12.703125 
L 28.703125 26.796875 
Q 19.5 23.59375 15.90625 20.203125 
Q 12.5 17.09375 12.5 12.5 
Q 12.5 8.703125 14.390625 6.75 
Q 16.296875 4.796875 19.40625 4.796875 
Q 22.703125 4.796875 25.203125 6.40625 
Q 27.296875 7.90625 28 9.203125 
Q 28.703125 10.5 28.703125 12.703125 
z
" id="STIXGeneral-Regular-97"/>
     <path d="M 2.09375 45 
L 10.296875 45 
Q 10.40625 51 11.09375 54.34375 
Q 11.796875 57.703125 13.796875 61.09375 
Q 18 68.296875 27.90625 68.296875 
Q 32.40625 68.296875 35.34375 66.546875 
Q 38.296875 64.796875 38.296875 62.09375 
Q 38.296875 60.40625 37.09375 59.203125 
Q 35.90625 58 34.09375 58 
Q 31.703125 58 29.59375 61.59375 
Q 27.203125 65.5 24.296875 65.5 
Q 18.703125 65.5 18.703125 56.59375 
L 18.703125 45 
L 30.90625 45 
L 30.90625 41.796875 
L 18.703125 41.796875 
L 18.703125 10.40625 
Q 18.703125 4.796875 20.296875 3.25 
Q 21.90625 1.703125 28 1.5 
L 28 0 
L 2 0 
L 2 1.5 
Q 7.40625 1.796875 8.84375 3.34375 
Q 10.296875 4.90625 10.296875 10.40625 
L 10.296875 41.796875 
L 2.09375 41.796875 
z
" id="STIXGeneral-Regular-102"/>
     <path d="M 39.796875 15.59375 
L 41.203125 14.703125 
Q 36.90625 6.296875 33 3.203125 
Q 27.90625 -1 21.5 -1 
Q 13.203125 -1 7.84375 5.25 
Q 2.5 11.5 2.5 21.203125 
Q 2.5 33.90625 10.90625 40.90625 
Q 17.09375 46 24.40625 46 
Q 30.703125 46 35.25 42.953125 
Q 39.796875 39.90625 39.796875 35.703125 
Q 39.796875 34 38.390625 32.75 
Q 37 31.5 35.09375 31.5 
Q 31.59375 31.5 30.296875 36.09375 
L 29.703125 38.296875 
Q 28.90625 41.09375 27.703125 42.09375 
Q 26.5 43.09375 23.796875 43.09375 
Q 17.703125 43.09375 13.953125 38.296875 
Q 10.203125 33.5 10.203125 25.703125 
Q 10.203125 17.09375 14.5 11.640625 
Q 18.796875 6.203125 25.703125 6.203125 
Q 30 6.203125 33.09375 8.25 
Q 36.203125 10.296875 39.796875 15.59375 
z
" id="STIXGeneral-Regular-99"/>
    </defs>
    <g transform="translate(347.07375 638.921548)scale(0.18 -0.18)">
     <use xlink:href="#STIXGeneral-Regular-119"/>
     <use x="72.199982" xlink:href="#STIXGeneral-Regular-97"/>
     <use x="116.599976" xlink:href="#STIXGeneral-Regular-107"/>
     <use x="166.59996" xlink:href="#STIXGeneral-Regular-101"/>
     <use x="210.999954" xlink:href="#STIXGeneral-Regular-32"/>
     <use x="235.999939" xlink:href="#STIXGeneral-Regular-101"/>
     <use x="280.399933" xlink:href="#STIXGeneral-Regular-102"/>
     <use x="313.699921" xlink:href="#STIXGeneral-Regular-102"/>
     <use x="346.999908" xlink:href="#STIXGeneral-Regular-101"/>
     <use x="391.399902" xlink:href="#STIXGeneral-Regular-99"/>
     <use x="435.799896" xlink:href="#STIXGeneral-Regular-116"/>
    </g>
   </g>
  </g>
  <g id="axes_4">
   <g id="patch_17">
    <path d="M 535.587097 648 
L 907.2 648 
L 907.2 382.562212 
L 535.587097 382.562212 
z
" style="fill:#ffffff;"/>
   </g>
   <g id="matplotlib.axis_7">
    <g id="xtick_16">
     <g id="line2d_61">
      <g>
       <use style="fill:#ffffff;stroke:#000000;stroke-width:0.8;" x="535.587097" xlink:href="#mdd8e9d6463" y="648"/>
      </g>
     </g>
     <g id="text_26">
      <!-- 0.0 -->
      <g transform="translate(524.337097 667.293437)scale(0.18 -0.18)">
       <use xlink:href="#STIXGeneral-Regular-48"/>
       <use x="49.999985" xlink:href="#STIXGeneral-Regular-46"/>
       <use x="74.999969" xlink:href="#STIXGeneral-Regular-48"/>
      </g>
     </g>
    </g>
    <g id="xtick_17">
     <g id="line2d_62">
      <g>
       <use style="fill:#ffffff;stroke:#000000;stroke-width:0.8;" x="628.490323" xlink:href="#mdd8e9d6463" y="648"/>
      </g>
     </g>
     <g id="text_27">
      <!-- 0.5 -->
      <g transform="translate(617.240323 667.293437)scale(0.18 -0.18)">
       <use xlink:href="#STIXGeneral-Regular-48"/>
       <use x="49.999985" xlink:href="#STIXGeneral-Regular-46"/>
       <use x="74.999969" xlink:href="#STIXGeneral-Regular-53"/>
      </g>
     </g>
    </g>
    <g id="xtick_18">
     <g id="line2d_63">
      <g>
       <use style="fill:#ffffff;stroke:#000000;stroke-width:0.8;" x="721.393548" xlink:href="#mdd8e9d6463" y="648"/>
      </g>
     </g>
     <g id="text_28">
      <!-- 1.0 -->
      <g transform="translate(710.143548 667.293437)scale(0.18 -0.18)">
       <use xlink:href="#STIXGeneral-Regular-49"/>
       <use x="49.999985" xlink:href="#STIXGeneral-Regular-46"/>
       <use x="74.999969" xlink:href="#STIXGeneral-Regular-48"/>
      </g>
     </g>
    </g>
    <g id="xtick_19">
     <g id="line2d_64">
      <g>
       <use style="fill:#ffffff;stroke:#000000;stroke-width:0.8;" x="814.296774" xlink:href="#mdd8e9d6463" y="648"/>
      </g>
     </g>
     <g id="text_29">
      <!-- 1.5 -->
      <g transform="translate(803.046774 667.293437)scale(0.18 -0.18)">
       <use xlink:href="#STIXGeneral-Regular-49"/>
       <use x="49.999985" xlink:href="#STIXGeneral-Regular-46"/>
       <use x="74.999969" xlink:href="#STIXGeneral-Regular-53"/>
      </g>
     </g>
    </g>
    <g id="xtick_20">
     <g id="line2d_65">
      <g>
       <use style="fill:#ffffff;stroke:#000000;stroke-width:0.8;" x="907.2" xlink:href="#mdd8e9d6463" y="648"/>
      </g>
     </g>
     <g id="text_30">
      <!-- 2.0 -->
      <g transform="translate(895.95 667.293437)scale(0.18 -0.18)">
       <use xlink:href="#STIXGeneral-Regular-50"/>
       <use x="49.999985" xlink:href="#STIXGeneral-Regular-46"/>
       <use x="74.999969" xlink:href="#STIXGeneral-Regular-48"/>
      </g>
     </g>
    </g>
    <g id="text_31">
     <!-- $\^t$ -->
     <g transform="translate(718.873548 687.493438)scale(0.18 -0.18)">
      <use transform="translate(39.042969 16.59375)" xlink:href="#STIXGeneral-Regular-770"/>
      <use transform="translate(0 0.203125)" xlink:href="#STIXGeneral-Italic-116"/>
     </g>
    </g>
   </g>
   <g id="matplotlib.axis_8">
    <g id="ytick_16">
     <g id="line2d_66">
      <g>
       <use style="fill:#ffffff;stroke:#000000;stroke-width:0.8;" x="535.587097" xlink:href="#m0bd6805e60" y="617.950439"/>
      </g>
     </g>
    </g>
    <g id="ytick_17">
     <g id="line2d_67">
      <g>
       <use style="fill:#ffffff;stroke:#000000;stroke-width:0.8;" x="535.587097" xlink:href="#m0bd6805e60" y="567.867838"/>
      </g>
     </g>
    </g>
    <g id="ytick_18">
     <g id="line2d_68">
      <g>
       <use style="fill:#ffffff;stroke:#000000;stroke-width:0.8;" x="535.587097" xlink:href="#m0bd6805e60" y="517.785236"/>
      </g>
     </g>
    </g>
    <g id="ytick_19">
     <g id="line2d_69">
      <g>
       <use style="fill:#ffffff;stroke:#000000;stroke-width:0.8;" x="535.587097" xlink:href="#m0bd6805e60" y="467.702635"/>
      </g>
     </g>
    </g>
    <g id="ytick_20">
     <g id="line2d_70">
      <g>
       <use style="fill:#ffffff;stroke:#000000;stroke-width:0.8;" x="535.587097" xlink:href="#m0bd6805e60" y="417.620033"/>
      </g>
     </g>
    </g>
    <g id="text_32">
     <!-- $C_d$ -->
     <g transform="translate(520.680534 524.911106)rotate(-90)scale(0.18 -0.18)">
      <use transform="translate(0 0.40625)" xlink:href="#STIXGeneral-Italic-67"/>
      <use transform="translate(66.699997 -12.821875)scale(0.7)" xlink:href="#STIXGeneral-Italic-100"/>
     </g>
    </g>
   </g>
   <g id="line2d_71">
    <path clip-path="url(#p3c0be8bd23)" d="M 536.144516 567.318049 
L 537.259355 565.904198 
L 537.816774 564.547854 
L 538.374194 562.520668 
L 539.117419 558.827681 
L 540.418065 552.191825 
L 540.975484 550.26964 
L 541.532903 548.959213 
L 542.090323 548.101563 
L 542.833548 547.396645 
L 543.762581 546.891686 
L 545.249032 546.408261 
L 550.08 545.010315 
L 552.123871 544.168999 
L 554.539355 542.861293 
L 558.255484 540.698244 
L 558.812903 540.667952 
L 559.370323 540.931413 
L 559.741935 541.335194 
L 560.299355 542.493201 
L 560.856774 544.345604 
L 561.785806 548.65693 
L 562.714839 552.75275 
L 563.272258 554.447347 
L 563.829677 555.565265 
L 564.387097 556.250726 
L 565.130323 556.757621 
L 566.059355 557.063439 
L 566.802581 557.234301 
L 569.403871 557.474281 
L 590.028387 557.74807 
L 602.663226 557.795095 
L 612.882581 557.805571 
L 653.016774 557.739314 
L 655.246452 557.729945 
L 667.323871 557.560268 
L 668.43871 557.231493 
L 668.996129 556.862887 
L 669.553548 556.19504 
L 670.110968 555.014119 
L 670.482581 553.769161 
L 670.854194 551.99166 
L 671.411613 547.938188 
L 671.969032 541.682472 
L 672.712258 529.517521 
L 674.570323 495.78846 
L 675.313548 486.970348 
L 677.914839 460.321486 
L 679.029677 444.35036 
L 681.073548 411.839477 
L 682.002581 398.073407 
L 682.56 391.92754 
L 682.931613 389.300144 
L 683.303226 388.330656 
L 683.489032 388.405361 
L 683.674839 388.887344 
L 684.046452 391.196105 
L 684.418065 394.640273 
L 685.904516 409.399071 
L 686.461935 412.498453 
L 687.019355 414.394987 
L 687.576774 415.394523 
L 687.948387 415.851313 
L 688.877419 416.295614 
L 689.806452 416.563014 
L 690.549677 417.027784 
L 690.92129 417.389224 
L 691.47871 418.158908 
L 692.221935 419.866871 
L 692.779355 421.832486 
L 693.522581 425.76571 
L 694.265806 432.26639 
L 695.194839 444.703862 
L 696.867097 469.036532 
L 697.796129 478.926375 
L 698.910968 488.175937 
L 701.140645 502.804114 
L 703.556129 517.545758 
L 704.299355 524.262113 
L 704.856774 531.341798 
L 705.414194 540.991666 
L 706.157419 557.987847 
L 707.643871 593.549789 
L 708.20129 602.402952 
L 708.75871 608.474599 
L 709.316129 612.538183 
L 709.873548 615.365731 
L 710.616774 617.825623 
L 711.174194 619.273275 
L 712.289032 621.304257 
L 715.076129 625.519817 
L 715.447742 625.668716 
L 715.819355 625.182632 
L 716.190968 623.809962 
L 716.562581 621.082584 
L 716.934194 616.867062 
L 717.491613 608.062144 
L 719.163871 578.281575 
L 719.907097 570.605301 
L 720.650323 565.690295 
L 721.207742 563.384297 
L 721.950968 561.388737 
L 722.694194 560.139553 
L 723.065806 559.624776 
L 723.623226 558.841887 
L 724.366452 557.993805 
L 725.109677 557.470395 
L 726.781935 557.335208 
L 727.525161 557.595935 
L 728.268387 558.148208 
L 729.197419 559.048426 
L 732.356129 562.846382 
L 733.470968 563.712404 
L 734.771613 564.457671 
L 739.230968 566.776274 
L 741.089032 567.599327 
L 744.619355 569.220432 
L 749.07871 570.811244 
L 750.379355 571.063709 
L 755.210323 571.437685 
L 763.943226 571.347395 
L 767.473548 571.034719 
L 771.375484 570.485908 
L 772.11871 570.410915 
L 773.047742 570.24962 
L 779.922581 569.257247 
L 781.409032 569.084533 
L 785.125161 568.574518 
L 789.584516 568.068597 
L 791.442581 567.898813 
L 798.131613 567.488446 
L 821.357419 566.794109 
L 827.489032 566.477619 
L 831.576774 566.28172 
L 839.380645 565.911071 
L 849.6 565.596523 
L 859.261935 565.542787 
L 874.126452 565.882787 
L 885.460645 566.075014 
L 891.220645 566.037685 
L 907.385806 565.734254 
L 907.385806 565.734254 
" style="fill:none;stroke:#1f77b4;stroke-linecap:square;stroke-width:3;"/>
   </g>
   <g id="line2d_72">
    <path clip-path="url(#p3c0be8bd23)" d="M 536.144516 567.587807 
L 537.259355 566.872 
L 537.816774 566.18371 
L 538.374194 565.154154 
L 539.117419 563.27509 
L 540.418065 559.875409 
L 541.16129 558.613343 
L 541.904516 557.854396 
L 542.647742 557.409542 
L 543.762581 557.025499 
L 549.894194 555.352601 
L 551.938065 554.421381 
L 554.353548 553.055366 
L 558.627097 550.515703 
L 559.370323 550.394949 
L 559.927742 550.561492 
L 560.485161 551.060199 
L 561.042581 551.929607 
L 563.272258 556.151743 
L 564.015484 556.785119 
L 564.75871 557.117907 
L 565.873548 557.359198 
L 568.103226 557.559714 
L 573.305806 557.758174 
L 582.224516 557.795029 
L 598.76129 557.758312 
L 599.876129 557.747131 
L 617.341935 557.646269 
L 620.686452 557.641378 
L 621.429677 557.633634 
L 645.956129 557.881885 
L 668.810323 558.71096 
L 669.739355 558.481777 
L 670.296774 558.15429 
L 670.854194 557.548096 
L 671.225806 556.957297 
L 671.783226 555.598924 
L 672.340645 553.606671 
L 673.269677 549.156753 
L 674.384516 543.946324 
L 675.313548 540.746459 
L 677.171613 534.944574 
L 678.100645 531.186843 
L 679.40129 525.103136 
L 682.745806 508.766007 
L 683.303226 507.566711 
L 683.674839 507.306284 
L 684.046452 507.48416 
L 684.603871 508.295963 
L 685.71871 510.268322 
L 686.461935 510.988761 
L 687.019355 511.282776 
L 688.134194 511.513693 
L 689.620645 511.853157 
L 690.549677 512.308279 
L 691.47871 513.052344 
L 692.593548 514.690465 
L 693.336774 516.547493 
L 694.08 519.623579 
L 694.637419 522.881807 
L 695.566452 529.819935 
L 696.495484 537.071961 
L 697.424516 542.794148 
L 698.353548 547.240816 
L 699.468387 551.519939 
L 700.769032 555.753175 
L 704.485161 567.468549 
L 705.228387 571.159265 
L 706.157419 577.378895 
L 707.643871 587.782239 
L 708.387097 591.210805 
L 709.130323 593.422586 
L 709.873548 594.898219 
L 710.616774 595.943664 
L 711.545806 596.939752 
L 713.032258 598.08246 
L 714.332903 598.816232 
L 715.076129 599.022811 
L 715.447742 599.013704 
L 715.819355 598.834943 
L 716.190968 598.427882 
L 716.562581 597.778249 
L 717.12 596.13448 
L 717.863226 592.87601 
L 718.978065 587.692973 
L 719.535484 585.866556 
L 720.092903 584.697245 
L 720.650323 584.00598 
L 721.207742 583.608205 
L 721.765161 583.423655 
L 722.694194 583.372604 
L 725.852903 583.535154 
L 727.896774 583.480881 
L 731.79871 583.075877 
L 734.214194 582.437792 
L 736.072258 581.691599 
L 738.116129 580.654946 
L 743.690323 577.220976 
L 748.335484 574.487259 
L 751.68 572.836526 
L 752.609032 572.433128 
L 755.210323 571.44046 
L 757.997419 570.547371 
L 761.527742 569.665275 
L 764.500645 569.105275 
L 766.916129 568.732551 
L 769.145806 568.469587 
L 771.747097 568.1992 
L 776.392258 567.860523 
L 785.868387 567.482901 
L 827.860645 567.028442 
L 864.092903 566.865464 
L 888.247742 566.815401 
L 907.385806 566.782369 
L 907.385806 566.782369 
" style="fill:none;stroke:#ff7f0e;stroke-linecap:square;stroke-width:3;"/>
   </g>
   <g id="line2d_73">
    <path clip-path="url(#p3c0be8bd23)" d="M 536.144516 567.724607 
L 537.445161 567.260392 
L 538.188387 566.679162 
L 538.931613 565.782644 
L 540.603871 563.569157 
L 541.347097 562.974825 
L 542.276129 562.54407 
L 543.762581 562.177127 
L 547.47871 561.342609 
L 549.708387 560.550188 
L 552.123871 559.4403 
L 554.725161 558.005585 
L 559.370323 555.211419 
L 560.113548 555.085595 
L 560.670968 555.195816 
L 561.414194 555.665729 
L 563.086452 556.977026 
L 564.015484 557.335437 
L 565.130323 557.546631 
L 566.988387 557.690718 
L 569.032258 557.779952 
L 574.606452 557.782906 
L 576.092903 557.758565 
L 596.903226 557.772352 
L 603.592258 558.118967 
L 609.538065 558.675494 
L 615.483871 559.448645 
L 617.899355 559.840371 
L 622.544516 560.697556 
L 628.304516 561.741077 
L 630.348387 561.859305 
L 632.392258 561.737293 
L 637.780645 560.538476 
L 642.983226 559.174822 
L 645.956129 558.637868 
L 649.300645 558.309158 
L 653.202581 558.239646 
L 656.732903 558.403882 
L 660.077419 558.738447 
L 667.323871 559.640574 
L 669.367742 559.672821 
L 670.482581 559.488715 
L 671.225806 559.158568 
L 671.783226 558.722485 
L 672.526452 557.811185 
L 673.455484 556.20908 
L 676.8 549.653878 
L 678.472258 545.724225 
L 680.144516 541.245908 
L 683.117419 533.033515 
L 683.860645 531.671121 
L 684.603871 530.725848 
L 686.647742 528.780935 
L 687.762581 527.892003 
L 688.691613 527.374771 
L 689.806452 527.091838 
L 690.735484 527.15644 
L 691.664516 527.524771 
L 692.407742 528.092635 
L 693.150968 529.05343 
L 693.708387 530.128245 
L 694.265806 531.638333 
L 695.009032 534.416925 
L 696.123871 539.461708 
L 697.23871 544.11072 
L 698.353548 547.826711 
L 699.84 551.933721 
L 701.512258 555.862857 
L 702.99871 558.854559 
L 706.529032 565.667766 
L 707.458065 567.340893 
L 708.20129 568.189208 
L 708.944516 568.640143 
L 709.687742 568.83588 
L 710.616774 568.891223 
L 712.289032 568.797906 
L 714.51871 568.467387 
L 715.261935 568.145023 
L 715.819355 567.706198 
L 716.376774 567.023559 
L 717.12 565.662789 
L 718.978065 561.676071 
L 719.535484 560.980547 
L 720.27871 560.443114 
L 721.207742 560.115072 
L 722.88 559.893984 
L 724.366452 559.917092 
L 725.852903 560.21079 
L 727.525161 560.85232 
L 729.383226 561.862696 
L 731.427097 563.271558 
L 735.700645 566.397532 
L 737.00129 567.021263 
L 738.116129 567.343368 
L 739.416774 567.468597 
L 740.903226 567.387953 
L 747.406452 566.734071 
L 749.450323 566.837473 
L 751.308387 567.162404 
L 753.538065 567.81347 
L 759.298065 569.682919 
L 761.156129 569.964181 
L 763.571613 570.046802 
L 766.544516 569.906865 
L 772.676129 569.662767 
L 778.436129 569.758724 
L 794.043871 569.916562 
L 832.505806 569.520514 
L 869.852903 569.504393 
L 907.385806 569.230367 
L 907.385806 569.230367 
" style="fill:none;stroke:#2ca02c;stroke-linecap:square;stroke-width:3;"/>
   </g>
   <g id="line2d_74">
    <path clip-path="url(#p3c0be8bd23)" d="M 535.587097 567.867838 
L 907.2 567.867838 
" style="fill:none;stroke:#000000;stroke-dasharray:3.2,0.8,0.5,0.8;stroke-dashoffset:0;stroke-width:0.5;"/>
   </g>
   <g id="line2d_75">
    <path clip-path="url(#p3c0be8bd23)" d="M 721.393548 648 
L 721.393548 382.562212 
" style="fill:none;stroke:#000000;stroke-linecap:square;stroke-width:0.5;"/>
   </g>
   <g id="line2d_76">
    <path clip-path="url(#p3c0be8bd23)" d="M 758.554839 648 
L 758.554839 382.562212 
" style="fill:none;stroke:#000000;stroke-dasharray:3.2,0.8,0.5,0.8;stroke-dashoffset:0;stroke-opacity:0.25;stroke-width:0.5;"/>
   </g>
   <g id="line2d_77">
    <path clip-path="url(#p3c0be8bd23)" d="M 795.716129 648 
L 795.716129 382.562212 
" style="fill:none;stroke:#000000;stroke-dasharray:3.2,0.8,0.5,0.8;stroke-dashoffset:0;stroke-opacity:0.25;stroke-width:0.5;"/>
   </g>
   <g id="line2d_78">
    <path clip-path="url(#p3c0be8bd23)" d="M 832.877419 648 
L 832.877419 382.562212 
" style="fill:none;stroke:#000000;stroke-dasharray:3.2,0.8,0.5,0.8;stroke-dashoffset:0;stroke-opacity:0.25;stroke-width:0.5;"/>
   </g>
   <g id="patch_18">
    <path d="M 535.587097 648 
L 535.587097 382.562212 
" style="fill:none;stroke:#000000;stroke-linecap:square;stroke-linejoin:miter;stroke-width:0.8;"/>
   </g>
   <g id="patch_19">
    <path d="M 907.2 648 
L 907.2 382.562212 
" style="fill:none;stroke:#000000;stroke-linecap:square;stroke-linejoin:miter;stroke-width:0.8;"/>
   </g>
   <g id="patch_20">
    <path d="M 535.587097 648 
L 907.2 648 
" style="fill:none;stroke:#000000;stroke-linecap:square;stroke-linejoin:miter;stroke-width:0.8;"/>
   </g>
   <g id="patch_21">
    <path d="M 535.587097 382.562212 
L 907.2 382.562212 
" style="fill:none;stroke:#000000;stroke-linecap:square;stroke-linejoin:miter;stroke-width:0.8;"/>
   </g>
   <g id="text_33">
    <!-- stroke motion -->
    <g transform="translate(588.028926 638.921548)scale(0.18 -0.18)">
     <use xlink:href="#STIXGeneral-Regular-115"/>
     <use x="38.899994" xlink:href="#STIXGeneral-Regular-116"/>
     <use x="66.699982" xlink:href="#STIXGeneral-Regular-114"/>
     <use x="99.999969" xlink:href="#STIXGeneral-Regular-111"/>
     <use x="149.999954" xlink:href="#STIXGeneral-Regular-107"/>
     <use x="199.999939" xlink:href="#STIXGeneral-Regular-101"/>
     <use x="244.399933" xlink:href="#STIXGeneral-Regular-32"/>
     <use x="269.399918" xlink:href="#STIXGeneral-Regular-109"/>
     <use x="347.199905" xlink:href="#STIXGeneral-Regular-111"/>
     <use x="397.19989" xlink:href="#STIXGeneral-Regular-116"/>
     <use x="424.999878" xlink:href="#STIXGeneral-Regular-105"/>
     <use x="452.799866" xlink:href="#STIXGeneral-Regular-111"/>
     <use x="502.79985" xlink:href="#STIXGeneral-Regular-110"/>
    </g>
   </g>
   <g id="text_34">
    <!-- wake effect -->
    <g transform="translate(781.860847 638.921548)scale(0.18 -0.18)">
     <use xlink:href="#STIXGeneral-Regular-119"/>
     <use x="72.199982" xlink:href="#STIXGeneral-Regular-97"/>
     <use x="116.599976" xlink:href="#STIXGeneral-Regular-107"/>
     <use x="166.59996" xlink:href="#STIXGeneral-Regular-101"/>
     <use x="210.999954" xlink:href="#STIXGeneral-Regular-32"/>
     <use x="235.999939" xlink:href="#STIXGeneral-Regular-101"/>
     <use x="280.399933" xlink:href="#STIXGeneral-Regular-102"/>
     <use x="313.699921" xlink:href="#STIXGeneral-Regular-102"/>
     <use x="346.999908" xlink:href="#STIXGeneral-Regular-101"/>
     <use x="391.399902" xlink:href="#STIXGeneral-Regular-99"/>
     <use x="435.799896" xlink:href="#STIXGeneral-Regular-116"/>
    </g>
   </g>
   <g id="text_35">
    <!-- $Re = 10^3$ -->
    <g transform="translate(924.549677 519.474543)scale(0.18 -0.18)">
     <use transform="translate(0 0.409375)" xlink:href="#STIXGeneral-Italic-82"/>
     <use transform="translate(61.099991 0.409375)" xlink:href="#STIXGeneral-Italic-101"/>
     <use transform="translate(119.939981 0.409375)" xlink:href="#STIXGeneral-Regular-61"/>
     <use transform="translate(202.879962 0.409375)" xlink:href="#STIXGeneral-Regular-49"/>
     <use transform="translate(252.879947 0.409375)" xlink:href="#STIXGeneral-Regular-48"/>
     <use transform="translate(304.423213 35.684375)scale(0.7)" xlink:href="#STIXGeneral-Regular-51"/>
    </g>
   </g>
  </g>
 </g>
 <defs>
  <clipPath id="pfce9de121c">
   <rect height="265.437788" width="371.612903" x="100.8" y="72"/>
  </clipPath>
  <clipPath id="p5e0db9ecde">
   <rect height="265.437788" width="371.612903" x="535.587097" y="72"/>
  </clipPath>
  <clipPath id="pd14a269ca6">
   <rect height="265.437788" width="371.612903" x="100.8" y="382.562212"/>
  </clipPath>
  <clipPath id="p3c0be8bd23">
   <rect height="265.437788" width="371.612903" x="535.587097" y="382.562212"/>
  </clipPath>
 </defs>
</svg>
