<?xml version="1.0" encoding="utf-8" standalone="no"?>
<!DOCTYPE svg PUBLIC "-//W3C//DTD SVG 1.1//EN"
  "http://www.w3.org/Graphics/SVG/1.1/DTD/svg11.dtd">
<!-- Created with matplotlib (https://matplotlib.org/) -->
<svg height="720pt" version="1.1" viewBox="0 0 1008 720" width="1008pt" xmlns="http://www.w3.org/2000/svg" xmlns:xlink="http://www.w3.org/1999/xlink">
 <defs>
  <style type="text/css">
*{stroke-linecap:butt;stroke-linejoin:round;}
  </style>
 </defs>
 <g id="figure_1">
  <g id="patch_1">
   <path d="M 0 720 
L 1008 720 
L 1008 0 
L 0 0 
z
" style="fill:#ffffff;"/>
  </g>
  <g id="axes_1">
   <g id="patch_2">
    <path d="M 100.8 244.45509 
L 472.412903 244.45509 
L 472.412903 72 
L 100.8 72 
z
" style="fill:#ffffff;"/>
   </g>
   <g id="matplotlib.axis_1">
    <g id="xtick_1">
     <g id="line2d_1">
      <defs>
       <path d="M 0 0 
L 0 3.5 
" id="m88c9429c6b" style="stroke:#000000;stroke-width:0.8;"/>
      </defs>
      <g>
       <use style="fill:#ffffff;stroke:#000000;stroke-width:0.8;" x="100.8" xlink:href="#m88c9429c6b" y="244.45509"/>
      </g>
     </g>
    </g>
    <g id="xtick_2">
     <g id="line2d_2">
      <g>
       <use style="fill:#ffffff;stroke:#000000;stroke-width:0.8;" x="175.122581" xlink:href="#m88c9429c6b" y="244.45509"/>
      </g>
     </g>
    </g>
    <g id="xtick_3">
     <g id="line2d_3">
      <g>
       <use style="fill:#ffffff;stroke:#000000;stroke-width:0.8;" x="249.445161" xlink:href="#m88c9429c6b" y="244.45509"/>
      </g>
     </g>
    </g>
    <g id="xtick_4">
     <g id="line2d_4">
      <g>
       <use style="fill:#ffffff;stroke:#000000;stroke-width:0.8;" x="323.767742" xlink:href="#m88c9429c6b" y="244.45509"/>
      </g>
     </g>
    </g>
    <g id="xtick_5">
     <g id="line2d_5">
      <g>
       <use style="fill:#ffffff;stroke:#000000;stroke-width:0.8;" x="398.090323" xlink:href="#m88c9429c6b" y="244.45509"/>
      </g>
     </g>
    </g>
    <g id="xtick_6">
     <g id="line2d_6">
      <g>
       <use style="fill:#ffffff;stroke:#000000;stroke-width:0.8;" x="472.412903" xlink:href="#m88c9429c6b" y="244.45509"/>
      </g>
     </g>
    </g>
   </g>
   <g id="matplotlib.axis_2">
    <g id="ytick_1">
     <g id="line2d_7">
      <defs>
       <path d="M 0 0 
L -3.5 0 
" id="m4a4d4e50c8" style="stroke:#000000;stroke-width:0.8;"/>
      </defs>
      <g>
       <use style="fill:#ffffff;stroke:#000000;stroke-width:0.8;" x="100.8" xlink:href="#m4a4d4e50c8" y="235.832335"/>
      </g>
     </g>
     <g id="text_1">
      <!-- −7.5 -->
      <defs>
       <path d="M 62.09375 22 
L 6.40625 22 
L 6.40625 28.59375 
L 62.09375 28.59375 
z
" id="STIXGeneral-Regular-8722"/>
       <path d="M 44.90625 64.59375 
L 23.703125 -0.796875 
L 17.203125 -0.796875 
L 37 58.796875 
L 15.5 58.796875 
Q 11.203125 58.796875 9.09375 57.296875 
Q 7 55.796875 3.796875 50.59375 
L 2 51.5 
L 8 66.203125 
L 44.90625 66.203125 
z
" id="STIXGeneral-Regular-55"/>
       <path d="M 18.09375 4.296875 
Q 18.09375 2.09375 16.4375 0.5 
Q 14.796875 -1.09375 12.5 -1.09375 
Q 10.203125 -1.09375 8.59375 0.5 
Q 7 2.09375 7 4.390625 
Q 7 6.703125 8.640625 8.34375 
Q 10.296875 10 12.59375 10 
Q 14.796875 10 16.4375 8.296875 
Q 18.09375 6.59375 18.09375 4.296875 
z
" id="STIXGeneral-Regular-46"/>
       <path d="M 43.796875 68.09375 
L 40.203125 59.59375 
Q 39.59375 58.296875 37.5 58.296875 
L 18.09375 58.296875 
L 14.09375 49.796875 
Q 25.09375 47.703125 30 45.25 
Q 34.90625 42.796875 39.09375 37 
Q 42.59375 32.203125 42.59375 24.296875 
Q 42.59375 17.09375 40.25 12.1875 
Q 37.90625 7.296875 32.796875 3.5 
Q 26 -1.40625 15.796875 -1.40625 
Q 10.09375 -1.40625 6.59375 0.296875 
Q 3.09375 2 3.09375 4.796875 
Q 3.09375 8.59375 7.59375 8.59375 
Q 11.203125 8.59375 15 5.5 
Q 18.90625 2.296875 22.09375 2.296875 
Q 27.296875 2.296875 31.4375 7.5 
Q 35.59375 12.703125 35.59375 19.203125 
Q 35.59375 28.796875 28.90625 34.203125 
Q 20.203125 41.203125 7.59375 41.203125 
Q 6.40625 41.203125 6.40625 42 
L 6.5 42.5 
L 17.40625 66.203125 
L 38.09375 66.203125 
Q 39.796875 66.203125 40.75 66.703125 
Q 41.703125 67.203125 42.90625 68.796875 
z
" id="STIXGeneral-Regular-53"/>
      </defs>
      <g transform="translate(58.97 241.979054)scale(0.18 -0.18)">
       <use xlink:href="#STIXGeneral-Regular-8722"/>
       <use x="68.499985" xlink:href="#STIXGeneral-Regular-55"/>
       <use x="118.499969" xlink:href="#STIXGeneral-Regular-46"/>
       <use x="143.499954" xlink:href="#STIXGeneral-Regular-53"/>
      </g>
     </g>
    </g>
    <g id="ytick_2">
     <g id="line2d_8">
      <g>
       <use style="fill:#ffffff;stroke:#000000;stroke-width:0.8;" x="100.8" xlink:href="#m4a4d4e50c8" y="192.718563"/>
      </g>
     </g>
     <g id="text_2">
      <!-- −5.0 -->
      <defs>
       <path d="M 47.59375 33 
Q 47.59375 26.296875 46.296875 20.34375 
Q 45 14.40625 42.453125 9.40625 
Q 39.90625 4.40625 35.40625 1.5 
Q 30.90625 -1.40625 25 -1.40625 
Q 18.90625 -1.40625 14.296875 1.6875 
Q 9.703125 4.796875 7.203125 10 
Q 4.703125 15.203125 3.546875 21.09375 
Q 2.40625 27 2.40625 33.59375 
Q 2.40625 42.90625 4.703125 50.34375 
Q 7 57.796875 12.34375 62.6875 
Q 17.703125 67.59375 25.40625 67.59375 
Q 35.203125 67.59375 41.390625 58 
Q 47.59375 48.40625 47.59375 33 
z
M 38 32.5 
Q 38 48.296875 34.640625 56.640625 
Q 31.296875 65 24.796875 65 
Q 18.59375 65 15.296875 56.59375 
Q 12 48.203125 12 32.90625 
Q 12 17.5 15.296875 9.34375 
Q 18.59375 1.203125 25 1.203125 
Q 31.296875 1.203125 34.640625 9.34375 
Q 38 17.5 38 32.5 
z
" id="STIXGeneral-Regular-48"/>
      </defs>
      <g transform="translate(58.97 198.865282)scale(0.18 -0.18)">
       <use xlink:href="#STIXGeneral-Regular-8722"/>
       <use x="68.499985" xlink:href="#STIXGeneral-Regular-53"/>
       <use x="118.499969" xlink:href="#STIXGeneral-Regular-46"/>
       <use x="143.499954" xlink:href="#STIXGeneral-Regular-48"/>
      </g>
     </g>
    </g>
    <g id="ytick_3">
     <g id="line2d_9">
      <g>
       <use style="fill:#ffffff;stroke:#000000;stroke-width:0.8;" x="100.8" xlink:href="#m4a4d4e50c8" y="149.60479"/>
      </g>
     </g>
     <g id="text_3">
      <!-- −2.5 -->
      <defs>
       <path d="M 47.40625 13.703125 
L 42 0 
L 2.90625 0 
L 2.90625 1.203125 
L 20.703125 20.09375 
Q 27.703125 27.40625 30.703125 33.5 
Q 33.703125 39.59375 33.703125 46.09375 
Q 33.703125 52.796875 30 56.5 
Q 26.296875 60.203125 19.796875 60.203125 
Q 14.40625 60.203125 11.25 57.390625 
Q 8.09375 54.59375 5.09375 47.203125 
L 3 47.703125 
Q 4.703125 57 9.84375 62.296875 
Q 15 67.59375 23.796875 67.59375 
Q 32.09375 67.59375 37.1875 62.59375 
Q 42.296875 57.59375 42.296875 50 
Q 42.296875 38.703125 29.5 25.203125 
L 13 7.59375 
L 36.40625 7.59375 
Q 39.703125 7.59375 41.640625 8.890625 
Q 43.59375 10.203125 46 14.296875 
z
" id="STIXGeneral-Regular-50"/>
      </defs>
      <g transform="translate(58.97 155.751509)scale(0.18 -0.18)">
       <use xlink:href="#STIXGeneral-Regular-8722"/>
       <use x="68.499985" xlink:href="#STIXGeneral-Regular-50"/>
       <use x="118.499969" xlink:href="#STIXGeneral-Regular-46"/>
       <use x="143.499954" xlink:href="#STIXGeneral-Regular-53"/>
      </g>
     </g>
    </g>
    <g id="ytick_4">
     <g id="line2d_10">
      <g>
       <use style="fill:#ffffff;stroke:#000000;stroke-width:0.8;" x="100.8" xlink:href="#m4a4d4e50c8" y="106.491018"/>
      </g>
     </g>
     <g id="text_4">
      <!-- 0.0 -->
      <g transform="translate(71.3 112.637737)scale(0.18 -0.18)">
       <use xlink:href="#STIXGeneral-Regular-48"/>
       <use x="49.999985" xlink:href="#STIXGeneral-Regular-46"/>
       <use x="74.999969" xlink:href="#STIXGeneral-Regular-48"/>
      </g>
     </g>
    </g>
    <g id="text_5">
     <!-- $C_l$ -->
     <defs>
      <path d="M 68.90625 66.40625 
L 65.203125 46.40625 
L 63.40625 46.703125 
Q 61.59375 63 48.5 63 
Q 37.59375 63 28.59375 53.296875 
Q 23.296875 47.703125 20.546875 39.703125 
Q 17.796875 31.703125 17.796875 23.203125 
Q 17.796875 2.703125 35.296875 2.703125 
Q 41.5 2.703125 46.640625 5.296875 
Q 51.796875 7.90625 58.203125 14.59375 
L 60 13.09375 
Q 53.296875 5.203125 46.84375 1.703125 
Q 40.40625 -1.796875 32.703125 -1.796875 
Q 21 -1.796875 13.796875 5.140625 
Q 6.59375 12.09375 6.59375 24.296875 
Q 6.59375 34.59375 11.6875 43.9375 
Q 16.796875 53.296875 25.296875 59.296875 
Q 35.5 66.59375 47.203125 66.59375 
Q 54.09375 66.59375 58.90625 64.90625 
Q 60.90625 64.203125 63 64.203125 
Q 65.703125 64.203125 66.796875 66.40625 
z
" id="STIXGeneral-Italic-67"/>
      <path d="M 27.90625 67.796875 
L 12.59375 9.296875 
Q 11.796875 6.40625 11.796875 5 
Q 11.796875 3.203125 13.5 3.203125 
Q 16.203125 3.203125 20.203125 8.90625 
L 22.703125 12.40625 
L 24.09375 11.40625 
Q 19.59375 4.296875 16.34375 1.59375 
Q 13.09375 -1.09375 9 -1.09375 
Q 4.09375 -1.09375 4.09375 4.5 
Q 4.09375 6.203125 4.5 7.5 
L 18.203125 59.90625 
Q 18.5 60.90625 18.5 61.796875 
Q 18.5 64 13.59375 64 
L 11.796875 64 
L 11.796875 65.59375 
Q 18.796875 66.40625 27.296875 68.296875 
z
" id="STIXGeneral-Italic-108"/>
     </defs>
     <g transform="translate(51.063438 166.417545)rotate(-90)scale(0.18 -0.18)">
      <use transform="translate(0 0.40625)" xlink:href="#STIXGeneral-Italic-67"/>
      <use transform="translate(66.699997 -12.821875)scale(0.7)" xlink:href="#STIXGeneral-Italic-108"/>
     </g>
    </g>
   </g>
   <g id="line2d_11">
    <path clip-path="url(#p3134822fc4)" d="M 100.428387 143.399504 
L 103.772903 139.315792 
L 110.090323 131.45119 
L 113.434839 127.695516 
L 116.407742 124.646251 
L 119.752258 121.576537 
L 122.725161 119.146768 
L 125.698065 117.013437 
L 128.670968 115.18107 
L 131.643871 113.610077 
L 134.616774 112.272857 
L 137.96129 111.004775 
L 141.677419 109.85045 
L 145.765161 108.841158 
L 150.224516 107.981747 
L 155.427097 107.223021 
L 161.372903 106.593449 
L 168.061935 106.102799 
L 176.980645 105.689611 
L 188.500645 105.402846 
L 204.48 105.249422 
L 229.378065 105.251297 
L 285.12 105.536194 
L 427.447742 106.268154 
L 472.784516 106.430318 
L 472.784516 106.430318 
" style="fill:none;stroke:#1f77b4;stroke-linecap:square;stroke-width:3;"/>
   </g>
   <g id="line2d_12">
    <path clip-path="url(#p3134822fc4)" d="M 100.428387 134.119743 
L 102.658065 130.566344 
L 106.374194 125.53177 
L 107.860645 123.682441 
L 111.576774 119.540744 
L 114.178065 116.993327 
L 117.150968 114.44503 
L 120.123871 112.28192 
L 123.096774 110.526606 
L 124.583226 109.785613 
L 127.184516 108.676057 
L 130.900645 107.455678 
L 133.873548 106.776935 
L 136.474839 106.307017 
L 140.562581 105.773546 
L 148.738065 105.232226 
L 155.79871 105.020165 
L 174.379355 104.707112 
L 181.068387 104.621646 
L 189.243871 104.542752 
L 197.790968 104.521271 
L 210.797419 104.617143 
L 353.125161 106.269588 
L 400.691613 106.396752 
L 472.784516 106.370715 
L 472.784516 106.370715 
" style="fill:none;stroke:#ff7f0e;stroke-linecap:square;stroke-width:3;"/>
   </g>
   <g id="line2d_13">
    <path clip-path="url(#p3134822fc4)" d="M 100.8 106.491018 
L 472.412903 106.491018 
" style="fill:none;stroke:#000000;stroke-dasharray:3.2,0.8,0.5,0.8;stroke-dashoffset:0;stroke-width:0.5;"/>
   </g>
   <g id="line2d_14">
    <path clip-path="url(#p3134822fc4)" d="M 100.8 244.45509 
L 100.8 72 
" style="fill:none;stroke:#000000;stroke-linecap:square;stroke-width:0.5;"/>
   </g>
   <g id="line2d_15">
    <path clip-path="url(#p3134822fc4)" d="M 175.122581 244.45509 
L 175.122581 72 
" style="fill:none;stroke:#000000;stroke-dasharray:3.2,0.8,0.5,0.8;stroke-dashoffset:0;stroke-opacity:0.25;stroke-width:0.5;"/>
   </g>
   <g id="line2d_16">
    <path clip-path="url(#p3134822fc4)" d="M 249.445161 244.45509 
L 249.445161 72 
" style="fill:none;stroke:#000000;stroke-dasharray:3.2,0.8,0.5,0.8;stroke-dashoffset:0;stroke-opacity:0.25;stroke-width:0.5;"/>
   </g>
   <g id="line2d_17">
    <path clip-path="url(#p3134822fc4)" d="M 323.767742 244.45509 
L 323.767742 72 
" style="fill:none;stroke:#000000;stroke-dasharray:3.2,0.8,0.5,0.8;stroke-dashoffset:0;stroke-opacity:0.25;stroke-width:0.5;"/>
   </g>
   <g id="patch_3">
    <path d="M 100.8 244.45509 
L 100.8 72 
" style="fill:none;stroke:#000000;stroke-linecap:square;stroke-linejoin:miter;stroke-width:0.8;"/>
   </g>
   <g id="patch_4">
    <path d="M 472.412903 244.45509 
L 472.412903 72 
" style="fill:none;stroke:#000000;stroke-linecap:square;stroke-linejoin:miter;stroke-width:0.8;"/>
   </g>
   <g id="patch_5">
    <path d="M 100.8 244.45509 
L 472.412903 244.45509 
" style="fill:none;stroke:#000000;stroke-linecap:square;stroke-linejoin:miter;stroke-width:0.8;"/>
   </g>
   <g id="patch_6">
    <path d="M 100.8 72 
L 472.412903 72 
" style="fill:none;stroke:#000000;stroke-linecap:square;stroke-linejoin:miter;stroke-width:0.8;"/>
   </g>
  </g>
  <g id="axes_2">
   <g id="patch_7">
    <path d="M 535.587097 244.45509 
L 907.2 244.45509 
L 907.2 72 
L 535.587097 72 
z
" style="fill:#ffffff;"/>
   </g>
   <g id="matplotlib.axis_3">
    <g id="xtick_7">
     <g id="line2d_18">
      <g>
       <use style="fill:#ffffff;stroke:#000000;stroke-width:0.8;" x="535.587097" xlink:href="#m88c9429c6b" y="244.45509"/>
      </g>
     </g>
    </g>
    <g id="xtick_8">
     <g id="line2d_19">
      <g>
       <use style="fill:#ffffff;stroke:#000000;stroke-width:0.8;" x="609.909677" xlink:href="#m88c9429c6b" y="244.45509"/>
      </g>
     </g>
    </g>
    <g id="xtick_9">
     <g id="line2d_20">
      <g>
       <use style="fill:#ffffff;stroke:#000000;stroke-width:0.8;" x="684.232258" xlink:href="#m88c9429c6b" y="244.45509"/>
      </g>
     </g>
    </g>
    <g id="xtick_10">
     <g id="line2d_21">
      <g>
       <use style="fill:#ffffff;stroke:#000000;stroke-width:0.8;" x="758.554839" xlink:href="#m88c9429c6b" y="244.45509"/>
      </g>
     </g>
    </g>
    <g id="xtick_11">
     <g id="line2d_22">
      <g>
       <use style="fill:#ffffff;stroke:#000000;stroke-width:0.8;" x="832.877419" xlink:href="#m88c9429c6b" y="244.45509"/>
      </g>
     </g>
    </g>
    <g id="xtick_12">
     <g id="line2d_23">
      <g>
       <use style="fill:#ffffff;stroke:#000000;stroke-width:0.8;" x="907.2" xlink:href="#m88c9429c6b" y="244.45509"/>
      </g>
     </g>
    </g>
   </g>
   <g id="matplotlib.axis_4">
    <g id="ytick_5">
     <g id="line2d_24">
      <g>
       <use style="fill:#ffffff;stroke:#000000;stroke-width:0.8;" x="535.587097" xlink:href="#m4a4d4e50c8" y="235.832335"/>
      </g>
     </g>
    </g>
    <g id="ytick_6">
     <g id="line2d_25">
      <g>
       <use style="fill:#ffffff;stroke:#000000;stroke-width:0.8;" x="535.587097" xlink:href="#m4a4d4e50c8" y="192.718563"/>
      </g>
     </g>
    </g>
    <g id="ytick_7">
     <g id="line2d_26">
      <g>
       <use style="fill:#ffffff;stroke:#000000;stroke-width:0.8;" x="535.587097" xlink:href="#m4a4d4e50c8" y="149.60479"/>
      </g>
     </g>
    </g>
    <g id="ytick_8">
     <g id="line2d_27">
      <g>
       <use style="fill:#ffffff;stroke:#000000;stroke-width:0.8;" x="535.587097" xlink:href="#m4a4d4e50c8" y="106.491018"/>
      </g>
     </g>
    </g>
    <g id="text_6">
     <!-- $C_d$ -->
     <defs>
      <path d="M 52.09375 68.296875 
L 52.703125 67.703125 
L 48.796875 52.5 
L 42.796875 30.59375 
Q 36.296875 6.703125 36.296875 6 
Q 36.296875 4 38.09375 4 
Q 39.40625 4 40.84375 5.25 
Q 42.296875 6.5 46.296875 11.09375 
L 47.5 10.09375 
Q 39.796875 -1.296875 32.796875 -1.296875 
Q 30.90625 -1.296875 29.796875 -0.09375 
Q 28.703125 1.09375 28.703125 3.203125 
Q 28.703125 6.203125 30 12.09375 
Q 25.703125 4.796875 21.546875 1.84375 
Q 17.40625 -1.09375 12.203125 -1.09375 
Q 7.203125 -1.09375 4.34375 1.953125 
Q 1.5 5 1.5 10.59375 
Q 1.5 22.5 11.140625 33.296875 
Q 20.796875 44.09375 30.703125 44.09375 
Q 33.796875 44.09375 35.25 42.6875 
Q 36.703125 41.296875 37.203125 38.296875 
L 37.296875 38.296875 
L 41.796875 54.59375 
Q 43.203125 59.5 43.203125 61.703125 
Q 43.203125 63.296875 42.09375 63.6875 
Q 41 64.09375 36.796875 64.296875 
L 36.796875 66 
Q 44.5 66.703125 52.09375 68.296875 
z
M 35.59375 36.09375 
Q 35.59375 38.703125 34.140625 40.25 
Q 32.703125 41.796875 30.90625 41.796875 
Q 26.203125 41.796875 21.796875 37.203125 
Q 16.796875 31.90625 13.5 24.546875 
Q 10.203125 17.203125 10.203125 11 
Q 10.203125 7.59375 11.75 5.640625 
Q 13.296875 3.703125 16 3.703125 
Q 20.5 3.703125 25.09375 8.59375 
Q 29.703125 13.5 32.640625 21.09375 
Q 35.59375 28.703125 35.59375 36.09375 
z
" id="STIXGeneral-Italic-100"/>
     </defs>
     <g transform="translate(520.680534 167.857545)rotate(-90)scale(0.18 -0.18)">
      <use transform="translate(0 0.40625)" xlink:href="#STIXGeneral-Italic-67"/>
      <use transform="translate(66.699997 -12.821875)scale(0.7)" xlink:href="#STIXGeneral-Italic-100"/>
     </g>
    </g>
   </g>
   <g id="line2d_28">
    <path clip-path="url(#pf2f894124a)" d="M 535.215484 234.843116 
L 535.95871 230.874288 
L 536.701935 228.338557 
L 537.445161 226.582817 
L 538.188387 225.318852 
L 543.762581 217.172261 
L 545.249032 214.393041 
L 546.363871 212.216518 
L 548.593548 207.365347 
L 553.424516 195.768056 
L 555.654194 190.074364 
L 560.485161 177.984336 
L 563.829677 170.113896 
L 566.802581 163.62244 
L 569.403871 158.41635 
L 572.005161 153.62223 
L 574.234839 149.828807 
L 577.579355 144.69015 
L 579.809032 141.647696 
L 582.410323 138.397381 
L 585.383226 135.068682 
L 588.356129 132.11853 
L 592.443871 128.639017 
L 595.416774 126.439841 
L 598.389677 124.477456 
L 600.990968 122.953609 
L 603.592258 121.556298 
L 608.051613 119.473569 
L 610.28129 118.572296 
L 613.254194 117.491737 
L 618.456774 115.794137 
L 621.80129 114.900998 
L 623.659355 114.41274 
L 624.774194 114.159814 
L 635.922581 111.952335 
L 645.212903 110.599776 
L 648.929032 110.16789 
L 654.874839 109.551561 
L 660.077419 109.075074 
L 670.482581 108.290956 
L 675.685161 107.991133 
L 683.117419 107.596579 
L 695.380645 107.070594 
L 713.218065 106.501045 
L 734.771613 106.043296 
L 761.899355 105.675333 
L 872.64 105.242759 
L 907.571613 105.245923 
L 907.571613 105.245923 
" style="fill:none;stroke:#1f77b4;stroke-linecap:square;stroke-width:3;"/>
   </g>
   <g id="line2d_29">
    <path clip-path="url(#pf2f894124a)" d="M 535.215484 269.604194 
L 536.330323 262.562249 
L 537.445161 256.951232 
L 538.188387 254.236132 
L 538.931613 252.370524 
L 539.303226 251.726956 
L 539.674839 251.351112 
L 541.16129 248.962026 
L 541.532903 248.030023 
L 541.904516 247.579747 
L 543.762581 243.265343 
L 544.134194 242.274427 
L 544.505806 241.754973 
L 545.249032 240.10839 
L 545.620645 239.182689 
L 549.336774 226.454143 
L 553.796129 209.760471 
L 557.140645 196.246792 
L 557.512258 195.065322 
L 558.255484 191.643429 
L 558.99871 188.856877 
L 559.741935 186.243114 
L 562.714839 174.686773 
L 563.458065 172.094521 
L 563.829677 170.649332 
L 564.572903 168.536637 
L 565.316129 165.856135 
L 565.687742 164.889688 
L 566.430968 162.370157 
L 566.802581 161.500875 
L 567.917419 157.757435 
L 568.660645 155.589937 
L 569.032258 154.979515 
L 569.403871 154.132748 
L 569.775484 152.868035 
L 572.376774 146.649458 
L 573.12 144.673101 
L 573.863226 143.211389 
L 574.606452 141.456208 
L 578.694194 134.145792 
L 579.065806 133.119844 
L 579.809032 132.0973 
L 580.180645 131.50658 
L 580.552258 131.206359 
L 580.923871 130.742525 
L 581.667097 129.256946 
L 582.410323 128.464613 
L 583.525161 127.020802 
L 584.268387 125.89738 
L 585.383226 124.812763 
L 585.754839 124.487931 
L 586.869677 122.976762 
L 587.984516 122.10797 
L 589.470968 120.439767 
L 590.214194 119.907032 
L 590.585806 119.6954 
L 591.700645 118.545582 
L 593.187097 117.640388 
L 594.301935 116.664688 
L 596.531613 115.58307 
L 596.903226 115.124992 
L 597.646452 114.949203 
L 599.132903 113.976097 
L 599.876129 114.022186 
L 600.247742 113.753216 
L 600.619355 113.631893 
L 600.990968 113.666603 
L 601.362581 113.902639 
L 602.477419 112.740791 
L 603.220645 112.563178 
L 603.963871 112.212362 
L 604.707097 111.906323 
L 605.07871 112.093168 
L 605.450323 112.000333 
L 605.821935 112.054997 
L 606.193548 111.702855 
L 606.565161 111.699138 
L 606.936774 111.472377 
L 607.308387 111.040675 
L 608.051613 110.759602 
L 608.794839 111.036333 
L 609.538065 110.977427 
L 609.909677 110.796985 
L 610.652903 111.086105 
L 613.997419 109.917884 
L 614.369032 110.267667 
L 615.112258 110.318872 
L 615.483871 110.465686 
L 615.855484 110.466711 
L 616.59871 110.075545 
L 616.970323 109.782025 
L 617.341935 109.733544 
L 618.085161 109.818859 
L 619.2 109.569959 
L 619.571613 109.765332 
L 619.943226 109.660638 
L 620.686452 109.775588 
L 621.429677 109.988369 
L 622.544516 109.684489 
L 624.030968 109.558223 
L 625.145806 109.684125 
L 625.517419 109.659515 
L 625.889032 109.796354 
L 629.233548 109.406842 
L 629.976774 109.617762 
L 632.206452 109.522423 
L 633.32129 109.301766 
L 634.064516 109.211852 
L 637.037419 109.211961 
L 637.409032 109.250509 
L 638.152258 109.015504 
L 639.267097 108.906964 
L 639.63871 108.998695 
L 641.125161 108.981143 
L 642.24 108.935597 
L 644.469677 108.561436 
L 645.956129 108.561951 
L 646.699355 108.501385 
L 647.814194 108.418833 
L 650.415484 108.192722 
L 651.901935 108.171564 
L 652.645161 108.167523 
L 654.874839 107.91257 
L 655.989677 107.916633 
L 658.219355 107.879925 
L 663.421935 107.62495 
L 664.908387 107.627793 
L 665.651613 107.529961 
L 666.766452 107.57784 
L 671.969032 107.540003 
L 673.455484 107.614814 
L 676.056774 107.591102 
L 697.981935 108.151214 
L 699.096774 108.125977 
L 700.583226 108.171684 
L 703.184516 108.237229 
L 706.529032 108.264156 
L 717.305806 108.26847 
L 718.792258 108.281847 
L 729.197419 108.086132 
L 732.170323 108.024394 
L 735.143226 107.932181 
L 737.00129 107.918727 
L 739.602581 107.828337 
L 741.832258 107.765643 
L 747.034839 107.60033 
L 754.467097 107.385662 
L 758.183226 107.268005 
L 766.730323 107.027508 
L 770.074839 106.908445 
L 780.851613 106.61803 
L 783.452903 106.548253 
L 797.202581 106.145821 
L 809.837419 105.766478 
L 823.95871 105.351356 
L 870.781935 104.367102 
L 907.571613 104.046403 
L 907.571613 104.046403 
" style="fill:none;stroke:#ff7f0e;stroke-linecap:square;stroke-width:3;"/>
   </g>
   <g id="line2d_30">
    <path clip-path="url(#pf2f894124a)" d="M 535.587097 106.491018 
L 907.2 106.491018 
" style="fill:none;stroke:#000000;stroke-dasharray:3.2,0.8,0.5,0.8;stroke-dashoffset:0;stroke-width:0.5;"/>
   </g>
   <g id="line2d_31">
    <path clip-path="url(#pf2f894124a)" d="M 535.587097 244.45509 
L 535.587097 72 
" style="fill:none;stroke:#000000;stroke-linecap:square;stroke-width:0.5;"/>
   </g>
   <g id="line2d_32">
    <path clip-path="url(#pf2f894124a)" d="M 609.909677 244.45509 
L 609.909677 72 
" style="fill:none;stroke:#000000;stroke-dasharray:3.2,0.8,0.5,0.8;stroke-dashoffset:0;stroke-opacity:0.25;stroke-width:0.5;"/>
   </g>
   <g id="line2d_33">
    <path clip-path="url(#pf2f894124a)" d="M 684.232258 244.45509 
L 684.232258 72 
" style="fill:none;stroke:#000000;stroke-dasharray:3.2,0.8,0.5,0.8;stroke-dashoffset:0;stroke-opacity:0.25;stroke-width:0.5;"/>
   </g>
   <g id="line2d_34">
    <path clip-path="url(#pf2f894124a)" d="M 758.554839 244.45509 
L 758.554839 72 
" style="fill:none;stroke:#000000;stroke-dasharray:3.2,0.8,0.5,0.8;stroke-dashoffset:0;stroke-opacity:0.25;stroke-width:0.5;"/>
   </g>
   <g id="patch_8">
    <path d="M 535.587097 244.45509 
L 535.587097 72 
" style="fill:none;stroke:#000000;stroke-linecap:square;stroke-linejoin:miter;stroke-width:0.8;"/>
   </g>
   <g id="patch_9">
    <path d="M 907.2 244.45509 
L 907.2 72 
" style="fill:none;stroke:#000000;stroke-linecap:square;stroke-linejoin:miter;stroke-width:0.8;"/>
   </g>
   <g id="patch_10">
    <path d="M 535.587097 244.45509 
L 907.2 244.45509 
" style="fill:none;stroke:#000000;stroke-linecap:square;stroke-linejoin:miter;stroke-width:0.8;"/>
   </g>
   <g id="patch_11">
    <path d="M 535.587097 72 
L 907.2 72 
" style="fill:none;stroke:#000000;stroke-linecap:square;stroke-linejoin:miter;stroke-width:0.8;"/>
   </g>
   <g id="text_7">
    <!-- $s/c = 1.5$ -->
    <defs>
     <path d="M 36.59375 44.203125 
L 34.59375 30.203125 
L 33 30.203125 
Q 31.59375 41.796875 24.09375 41.796875 
Q 21.40625 41.796875 19.796875 40.296875 
Q 18.203125 38.796875 18.203125 36.09375 
Q 18.203125 32.296875 23.59375 25.90625 
Q 30.40625 18 30.40625 12.296875 
Q 30.40625 6.203125 26.34375 2.546875 
Q 22.296875 -1.09375 16 -1.09375 
Q 13.09375 -1.09375 10.5 -0.09375 
Q 8.40625 0.796875 6.09375 0.796875 
Q 4.09375 0.796875 3.203125 -1.296875 
L 1.59375 -1.296875 
L 3.59375 14.59375 
L 5.203125 14.59375 
Q 7.203125 1 15.203125 1 
Q 18.796875 1 20.796875 3 
Q 22.796875 5 22.796875 8.703125 
Q 22.796875 13.203125 17.203125 20.203125 
Q 10.90625 28.09375 10.90625 33.296875 
Q 10.90625 38.296875 14.203125 41.1875 
Q 17.5 44.09375 23 44.09375 
Q 25 44.09375 28.59375 43.09375 
Q 30.796875 42.40625 32.203125 42.40625 
Q 34.203125 42.40625 35.203125 44.203125 
z
" id="STIXGeneral-Italic-115"/>
     <path d="M 28.703125 67.59375 
L 5.90625 -1.40625 
L -0.90625 -1.40625 
L 22 67.59375 
z
" id="STIXGeneral-Regular-47"/>
     <path d="M 35 10.703125 
L 36.59375 9.703125 
Q 32 3.90625 27.640625 1.40625 
Q 23.296875 -1.09375 17.703125 -1.09375 
Q 10.59375 -1.09375 6.796875 2.796875 
Q 3 6.703125 3 14.296875 
Q 3 21 6.390625 27.25 
Q 9.796875 33.5 15.296875 38 
Q 23 44.09375 32 44.09375 
Q 36.59375 44.09375 39.546875 41.796875 
Q 42.5 39.5 42.5 36 
Q 42.5 34 41.09375 32.59375 
Q 39.703125 31.203125 37.703125 31.203125 
Q 35.703125 31.203125 34.75 32.34375 
Q 33.796875 33.5 33.796875 35.203125 
Q 33.796875 36.09375 34.546875 37.546875 
Q 35.296875 39 35.296875 40 
Q 35.296875 42 31.59375 42 
Q 25.296875 42 20.703125 37.203125 
Q 11.59375 27.59375 11.59375 13.90625 
Q 11.59375 8.5 13.890625 5.5 
Q 16.203125 2.5 20.5 2.5 
Q 24.40625 2.5 27.59375 4.390625 
Q 30.796875 6.296875 35 10.703125 
z
" id="STIXGeneral-Italic-99"/>
     <path d="M 63.703125 32 
L 4.796875 32 
L 4.796875 38.59375 
L 63.703125 38.59375 
z
M 63.703125 12 
L 4.796875 12 
L 4.796875 18.59375 
L 63.703125 18.59375 
z
" id="STIXGeneral-Regular-61"/>
     <path d="M 39.40625 0 
L 11.796875 0 
L 11.796875 1.5 
Q 17.296875 1.796875 19.296875 3.546875 
Q 21.296875 5.296875 21.296875 9.5 
L 21.296875 54.40625 
Q 21.296875 59.296875 18.296875 59.296875 
Q 16.90625 59.296875 13.796875 58.09375 
L 11.09375 57.09375 
L 11.09375 58.5 
L 29 67.59375 
L 29.90625 67.296875 
L 29.90625 7.59375 
Q 29.90625 4.296875 31.90625 2.890625 
Q 33.90625 1.5 39.40625 1.5 
z
" id="STIXGeneral-Regular-49"/>
    </defs>
    <g transform="translate(925.449677 162.420982)scale(0.18 -0.18)">
     <use transform="translate(0 0.203125)" xlink:href="#STIXGeneral-Italic-115"/>
     <use transform="translate(38.899994 0.203125)" xlink:href="#STIXGeneral-Regular-47"/>
     <use transform="translate(66.699982 0.203125)" xlink:href="#STIXGeneral-Italic-99"/>
     <use transform="translate(125.539972 0.203125)" xlink:href="#STIXGeneral-Regular-61"/>
     <use transform="translate(208.479953 0.203125)" xlink:href="#STIXGeneral-Regular-49"/>
     <use transform="translate(258.479938 0.203125)" xlink:href="#STIXGeneral-Regular-46"/>
     <use transform="translate(283.479922 0.203125)" xlink:href="#STIXGeneral-Regular-53"/>
    </g>
   </g>
   <g id="legend_1">
    <g id="line2d_35">
     <path d="M 408.449892 47.628728 
L 438.437892 47.628728 
" style="fill:none;stroke:#1f77b4;stroke-linecap:square;stroke-width:3;"/>
    </g>
    <g id="line2d_36"/>
    <g id="text_8">
     <!-- $Re = 10^2$ -->
     <defs>
      <path d="M 13.203125 65.296875 
L 38.40625 65.296875 
Q 48.09375 65.296875 53.4375 61.5 
Q 58.796875 57.703125 58.796875 51.203125 
Q 58.796875 43.40625 52.203125 38.40625 
Q 48.296875 35.40625 39.09375 33.296875 
L 48 9.796875 
Q 49.703125 5.203125 51.546875 3.390625 
Q 53.40625 1.59375 56.703125 1.59375 
L 56.703125 0 
L 42 0 
L 29.703125 32.40625 
L 23.09375 32.90625 
L 17.59375 12.59375 
Q 16.296875 8 16.296875 6.296875 
Q 16.296875 4 17.59375 3 
Q 18.90625 2 23 1.59375 
L 23 0 
L -1.296875 0 
L -1.296875 1.59375 
Q 2.703125 2.09375 4.34375 3.796875 
Q 6 5.5 7.203125 10.09375 
L 19.09375 53.203125 
Q 20.296875 57.796875 20.296875 59.5 
Q 20.296875 61.296875 18.90625 62.296875 
Q 17.703125 63.09375 13.203125 63.703125 
z
M 30.59375 59.296875 
L 24.296875 36.59375 
Q 27.40625 36.09375 29.40625 36.09375 
Q 38.296875 36.09375 43.296875 40.09375 
Q 48.296875 44.09375 48.296875 51.09375 
Q 48.296875 56.296875 45.1875 59.296875 
Q 42.09375 62.296875 36.296875 62.296875 
Q 31.40625 62.296875 30.59375 59.296875 
z
" id="STIXGeneral-Italic-82"/>
      <path d="M 35.796875 10.90625 
L 37 9.703125 
Q 28.203125 -1.09375 16.59375 -1.09375 
Q 10.5 -1.09375 6.796875 2.65625 
Q 3.09375 6.40625 3.09375 12.59375 
Q 3.09375 24.296875 12.4375 34.1875 
Q 21.796875 44.09375 33 44.09375 
Q 36.90625 44.09375 39.046875 42.296875 
Q 41.203125 40.5 41.203125 37.296875 
Q 41.203125 30.703125 33.546875 25.5 
Q 25.90625 20.296875 12.796875 18.59375 
Q 11.796875 16.59375 11.796875 12.5 
Q 11.796875 8.40625 14.34375 5.90625 
Q 16.90625 3.40625 21.09375 3.40625 
Q 24.40625 3.40625 27.40625 4.953125 
Q 30.40625 6.5 35.796875 10.90625 
z
M 15.203125 25.203125 
L 13.5 20.796875 
Q 24.703125 23.5 29.59375 28.203125 
Q 34.59375 33 34.59375 37.90625 
Q 34.59375 41.796875 31.09375 41.796875 
Q 26.90625 41.796875 22.34375 36.9375 
Q 17.796875 32.09375 15.203125 25.203125 
z
" id="STIXGeneral-Italic-101"/>
     </defs>
     <g transform="translate(450.433092 52.876628)scale(0.14994 -0.14994)">
      <use transform="translate(0 0.409375)" xlink:href="#STIXGeneral-Italic-82"/>
      <use transform="translate(61.099991 0.409375)" xlink:href="#STIXGeneral-Italic-101"/>
      <use transform="translate(119.939981 0.409375)" xlink:href="#STIXGeneral-Regular-61"/>
      <use transform="translate(202.879962 0.409375)" xlink:href="#STIXGeneral-Regular-49"/>
      <use transform="translate(252.879947 0.409375)" xlink:href="#STIXGeneral-Regular-48"/>
      <use transform="translate(304.423213 35.684375)scale(0.7)" xlink:href="#STIXGeneral-Regular-50"/>
     </g>
    </g>
    <g id="line2d_37">
     <path d="M 532.000452 47.628728 
L 561.988452 47.628728 
" style="fill:none;stroke:#ff7f0e;stroke-linecap:square;stroke-width:3;"/>
    </g>
    <g id="line2d_38"/>
    <g id="text_9">
     <!-- $Re = 10^3$ -->
     <defs>
      <path d="M 6.09375 51 
L 4.5 51.40625 
Q 6.796875 58.90625 11.6875 63.25 
Q 16.59375 67.59375 24.09375 67.59375 
Q 31.09375 67.59375 35.390625 63.796875 
Q 39.703125 60 39.703125 53.90625 
Q 39.703125 45.703125 30.40625 40.09375 
Q 35.90625 37.703125 38.703125 34.796875 
Q 43.09375 29.90625 43.09375 21.90625 
Q 43.09375 13.90625 38.5 7.90625 
Q 35.09375 3.296875 28.75 0.9375 
Q 22.40625 -1.40625 15.296875 -1.40625 
Q 4.09375 -1.40625 4.09375 4.296875 
Q 4.09375 5.90625 5.296875 6.90625 
Q 6.5 7.90625 8.203125 7.90625 
Q 10.703125 7.90625 14.296875 5.296875 
Q 18.703125 2.203125 22.90625 2.203125 
Q 28.40625 2.203125 32.15625 6.640625 
Q 35.90625 11.09375 35.90625 17.5 
Q 35.90625 29 25.5 32 
Q 22.40625 33 15.296875 33 
L 15.296875 34.40625 
Q 20.90625 36.296875 23.703125 38 
Q 31.796875 42.59375 31.796875 51.40625 
Q 31.796875 56.40625 28.9375 59 
Q 26.09375 61.59375 21 61.59375 
Q 12 61.59375 6.09375 51 
z
" id="STIXGeneral-Regular-51"/>
     </defs>
     <g transform="translate(573.983652 52.876628)scale(0.14994 -0.14994)">
      <use transform="translate(0 0.409375)" xlink:href="#STIXGeneral-Italic-82"/>
      <use transform="translate(61.099991 0.409375)" xlink:href="#STIXGeneral-Italic-101"/>
      <use transform="translate(119.939981 0.409375)" xlink:href="#STIXGeneral-Regular-61"/>
      <use transform="translate(202.879962 0.409375)" xlink:href="#STIXGeneral-Regular-49"/>
      <use transform="translate(252.879947 0.409375)" xlink:href="#STIXGeneral-Regular-48"/>
      <use transform="translate(304.423213 35.684375)scale(0.7)" xlink:href="#STIXGeneral-Regular-51"/>
     </g>
    </g>
   </g>
  </g>
  <g id="axes_3">
   <g id="patch_12">
    <path d="M 100.8 446.227545 
L 472.412903 446.227545 
L 472.412903 273.772455 
L 100.8 273.772455 
z
" style="fill:#ffffff;"/>
   </g>
   <g id="matplotlib.axis_5">
    <g id="xtick_13">
     <g id="line2d_39">
      <g>
       <use style="fill:#ffffff;stroke:#000000;stroke-width:0.8;" x="100.8" xlink:href="#m88c9429c6b" y="446.227545"/>
      </g>
     </g>
    </g>
    <g id="xtick_14">
     <g id="line2d_40">
      <g>
       <use style="fill:#ffffff;stroke:#000000;stroke-width:0.8;" x="175.122581" xlink:href="#m88c9429c6b" y="446.227545"/>
      </g>
     </g>
    </g>
    <g id="xtick_15">
     <g id="line2d_41">
      <g>
       <use style="fill:#ffffff;stroke:#000000;stroke-width:0.8;" x="249.445161" xlink:href="#m88c9429c6b" y="446.227545"/>
      </g>
     </g>
    </g>
    <g id="xtick_16">
     <g id="line2d_42">
      <g>
       <use style="fill:#ffffff;stroke:#000000;stroke-width:0.8;" x="323.767742" xlink:href="#m88c9429c6b" y="446.227545"/>
      </g>
     </g>
    </g>
    <g id="xtick_17">
     <g id="line2d_43">
      <g>
       <use style="fill:#ffffff;stroke:#000000;stroke-width:0.8;" x="398.090323" xlink:href="#m88c9429c6b" y="446.227545"/>
      </g>
     </g>
    </g>
    <g id="xtick_18">
     <g id="line2d_44">
      <g>
       <use style="fill:#ffffff;stroke:#000000;stroke-width:0.8;" x="472.412903" xlink:href="#m88c9429c6b" y="446.227545"/>
      </g>
     </g>
    </g>
   </g>
   <g id="matplotlib.axis_6">
    <g id="ytick_9">
     <g id="line2d_45">
      <g>
       <use style="fill:#ffffff;stroke:#000000;stroke-width:0.8;" x="100.8" xlink:href="#m4a4d4e50c8" y="437.60479"/>
      </g>
     </g>
     <g id="text_10">
      <!-- −7.5 -->
      <g transform="translate(58.97 443.751509)scale(0.18 -0.18)">
       <use xlink:href="#STIXGeneral-Regular-8722"/>
       <use x="68.499985" xlink:href="#STIXGeneral-Regular-55"/>
       <use x="118.499969" xlink:href="#STIXGeneral-Regular-46"/>
       <use x="143.499954" xlink:href="#STIXGeneral-Regular-53"/>
      </g>
     </g>
    </g>
    <g id="ytick_10">
     <g id="line2d_46">
      <g>
       <use style="fill:#ffffff;stroke:#000000;stroke-width:0.8;" x="100.8" xlink:href="#m4a4d4e50c8" y="394.491018"/>
      </g>
     </g>
     <g id="text_11">
      <!-- −5.0 -->
      <g transform="translate(58.97 400.637737)scale(0.18 -0.18)">
       <use xlink:href="#STIXGeneral-Regular-8722"/>
       <use x="68.499985" xlink:href="#STIXGeneral-Regular-53"/>
       <use x="118.499969" xlink:href="#STIXGeneral-Regular-46"/>
       <use x="143.499954" xlink:href="#STIXGeneral-Regular-48"/>
      </g>
     </g>
    </g>
    <g id="ytick_11">
     <g id="line2d_47">
      <g>
       <use style="fill:#ffffff;stroke:#000000;stroke-width:0.8;" x="100.8" xlink:href="#m4a4d4e50c8" y="351.377246"/>
      </g>
     </g>
     <g id="text_12">
      <!-- −2.5 -->
      <g transform="translate(58.97 357.523964)scale(0.18 -0.18)">
       <use xlink:href="#STIXGeneral-Regular-8722"/>
       <use x="68.499985" xlink:href="#STIXGeneral-Regular-50"/>
       <use x="118.499969" xlink:href="#STIXGeneral-Regular-46"/>
       <use x="143.499954" xlink:href="#STIXGeneral-Regular-53"/>
      </g>
     </g>
    </g>
    <g id="ytick_12">
     <g id="line2d_48">
      <g>
       <use style="fill:#ffffff;stroke:#000000;stroke-width:0.8;" x="100.8" xlink:href="#m4a4d4e50c8" y="308.263473"/>
      </g>
     </g>
     <g id="text_13">
      <!-- 0.0 -->
      <g transform="translate(71.3 314.410192)scale(0.18 -0.18)">
       <use xlink:href="#STIXGeneral-Regular-48"/>
       <use x="49.999985" xlink:href="#STIXGeneral-Regular-46"/>
       <use x="74.999969" xlink:href="#STIXGeneral-Regular-48"/>
      </g>
     </g>
    </g>
    <g id="text_14">
     <!-- $C_l$ -->
     <g transform="translate(51.063438 368.19)rotate(-90)scale(0.18 -0.18)">
      <use transform="translate(0 0.40625)" xlink:href="#STIXGeneral-Italic-67"/>
      <use transform="translate(66.699997 -12.821875)scale(0.7)" xlink:href="#STIXGeneral-Italic-108"/>
     </g>
    </g>
   </g>
   <g id="line2d_49">
    <path clip-path="url(#p79c18c1c18)" d="M 100.428387 319.099649 
L 104.144516 318.05692 
L 113.434839 315.142484 
L 121.610323 312.732453 
L 127.556129 311.202747 
L 133.501935 309.91179 
L 139.447742 308.861259 
L 145.393548 308.03175 
L 152.082581 307.323259 
L 159.886452 306.732905 
L 169.176774 306.269767 
L 180.696774 305.933455 
L 195.932903 305.72548 
L 216.371613 305.679986 
L 252.046452 305.850371 
L 365.76 306.705675 
L 472.784516 307.436657 
L 472.784516 307.436657 
" style="fill:none;stroke:#1f77b4;stroke-linecap:square;stroke-width:3;"/>
   </g>
   <g id="line2d_50">
    <path clip-path="url(#p79c18c1c18)" d="M 100.428387 316.03188 
L 104.144516 314.332455 
L 110.090323 311.723838 
L 116.407742 308.966403 
L 119.752258 307.764849 
L 123.096774 306.814586 
L 126.812903 306.042613 
L 130.900645 305.479428 
L 134.988387 305.146047 
L 139.819355 304.962729 
L 146.88 304.945947 
L 155.79871 305.149905 
L 182.926452 306.104313 
L 230.492903 307.932095 
L 245.357419 308.127929 
L 287.72129 308.390498 
L 347.179355 308.591225 
L 418.529032 308.597378 
L 472.784516 308.542959 
L 472.784516 308.542959 
" style="fill:none;stroke:#ff7f0e;stroke-linecap:square;stroke-width:3;"/>
   </g>
   <g id="line2d_51">
    <path clip-path="url(#p79c18c1c18)" d="M 100.8 308.263473 
L 472.412903 308.263473 
" style="fill:none;stroke:#000000;stroke-dasharray:3.2,0.8,0.5,0.8;stroke-dashoffset:0;stroke-width:0.5;"/>
   </g>
   <g id="line2d_52">
    <path clip-path="url(#p79c18c1c18)" d="M 100.8 446.227545 
L 100.8 273.772455 
" style="fill:none;stroke:#000000;stroke-linecap:square;stroke-width:0.5;"/>
   </g>
   <g id="line2d_53">
    <path clip-path="url(#p79c18c1c18)" d="M 175.122581 446.227545 
L 175.122581 273.772455 
" style="fill:none;stroke:#000000;stroke-dasharray:3.2,0.8,0.5,0.8;stroke-dashoffset:0;stroke-opacity:0.25;stroke-width:0.5;"/>
   </g>
   <g id="line2d_54">
    <path clip-path="url(#p79c18c1c18)" d="M 249.445161 446.227545 
L 249.445161 273.772455 
" style="fill:none;stroke:#000000;stroke-dasharray:3.2,0.8,0.5,0.8;stroke-dashoffset:0;stroke-opacity:0.25;stroke-width:0.5;"/>
   </g>
   <g id="line2d_55">
    <path clip-path="url(#p79c18c1c18)" d="M 323.767742 446.227545 
L 323.767742 273.772455 
" style="fill:none;stroke:#000000;stroke-dasharray:3.2,0.8,0.5,0.8;stroke-dashoffset:0;stroke-opacity:0.25;stroke-width:0.5;"/>
   </g>
   <g id="patch_13">
    <path d="M 100.8 446.227545 
L 100.8 273.772455 
" style="fill:none;stroke:#000000;stroke-linecap:square;stroke-linejoin:miter;stroke-width:0.8;"/>
   </g>
   <g id="patch_14">
    <path d="M 472.412903 446.227545 
L 472.412903 273.772455 
" style="fill:none;stroke:#000000;stroke-linecap:square;stroke-linejoin:miter;stroke-width:0.8;"/>
   </g>
   <g id="patch_15">
    <path d="M 100.8 446.227545 
L 472.412903 446.227545 
" style="fill:none;stroke:#000000;stroke-linecap:square;stroke-linejoin:miter;stroke-width:0.8;"/>
   </g>
   <g id="patch_16">
    <path d="M 100.8 273.772455 
L 472.412903 273.772455 
" style="fill:none;stroke:#000000;stroke-linecap:square;stroke-linejoin:miter;stroke-width:0.8;"/>
   </g>
  </g>
  <g id="axes_4">
   <g id="patch_17">
    <path d="M 535.587097 446.227545 
L 907.2 446.227545 
L 907.2 273.772455 
L 535.587097 273.772455 
z
" style="fill:#ffffff;"/>
   </g>
   <g id="matplotlib.axis_7">
    <g id="xtick_19">
     <g id="line2d_56">
      <g>
       <use style="fill:#ffffff;stroke:#000000;stroke-width:0.8;" x="535.587097" xlink:href="#m88c9429c6b" y="446.227545"/>
      </g>
     </g>
    </g>
    <g id="xtick_20">
     <g id="line2d_57">
      <g>
       <use style="fill:#ffffff;stroke:#000000;stroke-width:0.8;" x="609.909677" xlink:href="#m88c9429c6b" y="446.227545"/>
      </g>
     </g>
    </g>
    <g id="xtick_21">
     <g id="line2d_58">
      <g>
       <use style="fill:#ffffff;stroke:#000000;stroke-width:0.8;" x="684.232258" xlink:href="#m88c9429c6b" y="446.227545"/>
      </g>
     </g>
    </g>
    <g id="xtick_22">
     <g id="line2d_59">
      <g>
       <use style="fill:#ffffff;stroke:#000000;stroke-width:0.8;" x="758.554839" xlink:href="#m88c9429c6b" y="446.227545"/>
      </g>
     </g>
    </g>
    <g id="xtick_23">
     <g id="line2d_60">
      <g>
       <use style="fill:#ffffff;stroke:#000000;stroke-width:0.8;" x="832.877419" xlink:href="#m88c9429c6b" y="446.227545"/>
      </g>
     </g>
    </g>
    <g id="xtick_24">
     <g id="line2d_61">
      <g>
       <use style="fill:#ffffff;stroke:#000000;stroke-width:0.8;" x="907.2" xlink:href="#m88c9429c6b" y="446.227545"/>
      </g>
     </g>
    </g>
   </g>
   <g id="matplotlib.axis_8">
    <g id="ytick_13">
     <g id="line2d_62">
      <g>
       <use style="fill:#ffffff;stroke:#000000;stroke-width:0.8;" x="535.587097" xlink:href="#m4a4d4e50c8" y="437.60479"/>
      </g>
     </g>
    </g>
    <g id="ytick_14">
     <g id="line2d_63">
      <g>
       <use style="fill:#ffffff;stroke:#000000;stroke-width:0.8;" x="535.587097" xlink:href="#m4a4d4e50c8" y="394.491018"/>
      </g>
     </g>
    </g>
    <g id="ytick_15">
     <g id="line2d_64">
      <g>
       <use style="fill:#ffffff;stroke:#000000;stroke-width:0.8;" x="535.587097" xlink:href="#m4a4d4e50c8" y="351.377246"/>
      </g>
     </g>
    </g>
    <g id="ytick_16">
     <g id="line2d_65">
      <g>
       <use style="fill:#ffffff;stroke:#000000;stroke-width:0.8;" x="535.587097" xlink:href="#m4a4d4e50c8" y="308.263473"/>
      </g>
     </g>
    </g>
    <g id="text_15">
     <!-- $C_d$ -->
     <g transform="translate(520.680534 369.63)rotate(-90)scale(0.18 -0.18)">
      <use transform="translate(0 0.40625)" xlink:href="#STIXGeneral-Italic-67"/>
      <use transform="translate(66.699997 -12.821875)scale(0.7)" xlink:href="#STIXGeneral-Italic-100"/>
     </g>
    </g>
   </g>
   <g id="line2d_66">
    <path clip-path="url(#p94eb733e29)" d="M 535.215484 356.740018 
L 535.95871 355.209837 
L 536.701935 354.19922 
L 537.445161 353.534542 
L 538.188387 353.089448 
L 539.303226 352.712504 
L 541.532903 352.293689 
L 544.134194 351.851253 
L 547.107097 350.975195 
L 550.451613 349.578745 
L 554.539355 347.306684 
L 557.512258 345.419762 
L 562.714839 341.819191 
L 571.261935 335.813179 
L 576.836129 332.175579 
L 581.667097 329.280062 
L 585.754839 327.063457 
L 590.585806 324.725768 
L 595.045161 322.839316 
L 599.504516 321.178748 
L 604.335484 319.610627 
L 609.538065 318.16348 
L 615.112258 316.856472 
L 622.172903 315.497077 
L 629.233548 314.408782 
L 637.037419 313.454706 
L 645.956129 312.603371 
L 658.219355 311.725507 
L 672.340645 310.984846 
L 685.347097 310.472261 
L 704.299355 309.898018 
L 731.79871 309.280068 
L 761.527742 308.797504 
L 804.634839 308.3604 
L 849.971613 308.14124 
L 907.571613 308.051479 
L 907.571613 308.051479 
" style="fill:none;stroke:#1f77b4;stroke-linecap:square;stroke-width:3;"/>
   </g>
   <g id="line2d_67">
    <path clip-path="url(#p94eb733e29)" d="M 535.215484 384.683353 
L 536.330323 384.556551 
L 537.816774 384.937864 
L 538.188387 385.200713 
L 539.303226 385.344251 
L 540.046452 385.457238 
L 541.16129 385.451012 
L 543.019355 384.982144 
L 543.762581 384.645871 
L 544.877419 383.903737 
L 545.992258 382.86397 
L 547.47871 380.981309 
L 548.593548 379.250767 
L 550.451613 375.720596 
L 552.68129 370.643543 
L 557.512258 358.16952 
L 559.370323 353.428644 
L 561.6 347.944383 
L 566.430968 337.616422 
L 570.890323 330.076106 
L 574.234839 325.652401 
L 577.207742 322.433389 
L 580.552258 319.595589 
L 583.153548 317.888234 
L 585.383226 316.672396 
L 587.24129 315.871089 
L 587.984516 315.493912 
L 588.727742 315.210551 
L 589.470968 315.137283 
L 591.329032 314.44403 
L 595.788387 313.603051 
L 596.16 313.446933 
L 598.76129 313.201149 
L 599.504516 312.981021 
L 600.619355 312.957948 
L 602.105806 312.813187 
L 603.220645 312.651928 
L 604.707097 312.640845 
L 606.936774 312.438359 
L 607.68 312.463289 
L 608.794839 312.316063 
L 609.538065 312.347531 
L 613.254194 312.202193 
L 613.997419 312.264121 
L 615.483871 312.192553 
L 616.227097 312.22427 
L 618.828387 312.243778 
L 619.943226 312.315906 
L 626.260645 312.62366 
L 627.375484 312.733789 
L 629.605161 312.941306 
L 630.72 313.086815 
L 632.206452 313.249427 
L 639.267097 314.372478 
L 645.584516 315.669302 
L 651.901935 316.973645 
L 659.705806 318.174217 
L 662.67871 318.453833 
L 665.28 318.599101 
L 671.597419 318.604099 
L 675.313548 318.437858 
L 680.516129 318.035996 
L 700.211613 316.089834 
L 723.251613 314.252402 
L 728.825806 313.878876 
L 743.690323 312.906761 
L 759.669677 311.982866 
L 774.905806 311.249042 
L 806.492903 310.241348 
L 832.505806 309.786184 
L 853.687742 309.555019 
L 866.322581 309.442793 
L 907.571613 309.140997 
L 907.571613 309.140997 
" style="fill:none;stroke:#ff7f0e;stroke-linecap:square;stroke-width:3;"/>
   </g>
   <g id="line2d_68">
    <path clip-path="url(#p94eb733e29)" d="M 535.587097 308.263473 
L 907.2 308.263473 
" style="fill:none;stroke:#000000;stroke-dasharray:3.2,0.8,0.5,0.8;stroke-dashoffset:0;stroke-width:0.5;"/>
   </g>
   <g id="line2d_69">
    <path clip-path="url(#p94eb733e29)" d="M 535.587097 446.227545 
L 535.587097 273.772455 
" style="fill:none;stroke:#000000;stroke-linecap:square;stroke-width:0.5;"/>
   </g>
   <g id="line2d_70">
    <path clip-path="url(#p94eb733e29)" d="M 609.909677 446.227545 
L 609.909677 273.772455 
" style="fill:none;stroke:#000000;stroke-dasharray:3.2,0.8,0.5,0.8;stroke-dashoffset:0;stroke-opacity:0.25;stroke-width:0.5;"/>
   </g>
   <g id="line2d_71">
    <path clip-path="url(#p94eb733e29)" d="M 684.232258 446.227545 
L 684.232258 273.772455 
" style="fill:none;stroke:#000000;stroke-dasharray:3.2,0.8,0.5,0.8;stroke-dashoffset:0;stroke-opacity:0.25;stroke-width:0.5;"/>
   </g>
   <g id="line2d_72">
    <path clip-path="url(#p94eb733e29)" d="M 758.554839 446.227545 
L 758.554839 273.772455 
" style="fill:none;stroke:#000000;stroke-dasharray:3.2,0.8,0.5,0.8;stroke-dashoffset:0;stroke-opacity:0.25;stroke-width:0.5;"/>
   </g>
   <g id="patch_18">
    <path d="M 535.587097 446.227545 
L 535.587097 273.772455 
" style="fill:none;stroke:#000000;stroke-linecap:square;stroke-linejoin:miter;stroke-width:0.8;"/>
   </g>
   <g id="patch_19">
    <path d="M 907.2 446.227545 
L 907.2 273.772455 
" style="fill:none;stroke:#000000;stroke-linecap:square;stroke-linejoin:miter;stroke-width:0.8;"/>
   </g>
   <g id="patch_20">
    <path d="M 535.587097 446.227545 
L 907.2 446.227545 
" style="fill:none;stroke:#000000;stroke-linecap:square;stroke-linejoin:miter;stroke-width:0.8;"/>
   </g>
   <g id="patch_21">
    <path d="M 535.587097 273.772455 
L 907.2 273.772455 
" style="fill:none;stroke:#000000;stroke-linecap:square;stroke-linejoin:miter;stroke-width:0.8;"/>
   </g>
   <g id="text_16">
    <!-- $s/c = 3.0$ -->
    <g transform="translate(925.449677 364.193438)scale(0.18 -0.18)">
     <use transform="translate(0 0.40625)" xlink:href="#STIXGeneral-Italic-115"/>
     <use transform="translate(38.899994 0.40625)" xlink:href="#STIXGeneral-Regular-47"/>
     <use transform="translate(66.699982 0.40625)" xlink:href="#STIXGeneral-Italic-99"/>
     <use transform="translate(125.539972 0.40625)" xlink:href="#STIXGeneral-Regular-61"/>
     <use transform="translate(208.479953 0.40625)" xlink:href="#STIXGeneral-Regular-51"/>
     <use transform="translate(258.479938 0.40625)" xlink:href="#STIXGeneral-Regular-46"/>
     <use transform="translate(283.479922 0.40625)" xlink:href="#STIXGeneral-Regular-48"/>
    </g>
   </g>
  </g>
  <g id="axes_5">
   <g id="patch_22">
    <path d="M 100.8 648 
L 472.412903 648 
L 472.412903 475.54491 
L 100.8 475.54491 
z
" style="fill:#ffffff;"/>
   </g>
   <g id="matplotlib.axis_9">
    <g id="xtick_25">
     <g id="line2d_73">
      <g>
       <use style="fill:#ffffff;stroke:#000000;stroke-width:0.8;" x="100.8" xlink:href="#m88c9429c6b" y="648"/>
      </g>
     </g>
     <g id="text_17">
      <!-- 1.0 -->
      <g transform="translate(89.55 667.293437)scale(0.18 -0.18)">
       <use xlink:href="#STIXGeneral-Regular-49"/>
       <use x="49.999985" xlink:href="#STIXGeneral-Regular-46"/>
       <use x="74.999969" xlink:href="#STIXGeneral-Regular-48"/>
      </g>
     </g>
    </g>
    <g id="xtick_26">
     <g id="line2d_74">
      <g>
       <use style="fill:#ffffff;stroke:#000000;stroke-width:0.8;" x="175.122581" xlink:href="#m88c9429c6b" y="648"/>
      </g>
     </g>
     <g id="text_18">
      <!-- 1.2 -->
      <g transform="translate(163.872581 667.293437)scale(0.18 -0.18)">
       <use xlink:href="#STIXGeneral-Regular-49"/>
       <use x="49.999985" xlink:href="#STIXGeneral-Regular-46"/>
       <use x="74.999969" xlink:href="#STIXGeneral-Regular-50"/>
      </g>
     </g>
    </g>
    <g id="xtick_27">
     <g id="line2d_75">
      <g>
       <use style="fill:#ffffff;stroke:#000000;stroke-width:0.8;" x="249.445161" xlink:href="#m88c9429c6b" y="648"/>
      </g>
     </g>
     <g id="text_19">
      <!-- 1.4 -->
      <defs>
       <path d="M 47.296875 16.703125 
L 37 16.703125 
L 37 0 
L 29.203125 0 
L 29.203125 16.703125 
L 1.203125 16.703125 
L 1.203125 23.09375 
L 32.59375 67.59375 
L 37 67.59375 
L 37 23.09375 
L 47.296875 23.09375 
z
M 29.203125 23.09375 
L 29.203125 57.40625 
L 5.203125 23.09375 
z
" id="STIXGeneral-Regular-52"/>
      </defs>
      <g transform="translate(238.195161 667.293437)scale(0.18 -0.18)">
       <use xlink:href="#STIXGeneral-Regular-49"/>
       <use x="49.999985" xlink:href="#STIXGeneral-Regular-46"/>
       <use x="74.999969" xlink:href="#STIXGeneral-Regular-52"/>
      </g>
     </g>
    </g>
    <g id="xtick_28">
     <g id="line2d_76">
      <g>
       <use style="fill:#ffffff;stroke:#000000;stroke-width:0.8;" x="323.767742" xlink:href="#m88c9429c6b" y="648"/>
      </g>
     </g>
     <g id="text_20">
      <!-- 1.6 -->
      <defs>
       <path d="M 44.59375 68.40625 
L 44.796875 66.796875 
Q 33 64.90625 25.09375 57.25 
Q 17.203125 49.59375 15.203125 38.296875 
Q 21 42.796875 27.90625 42.796875 
Q 36.703125 42.796875 41.75 37.1875 
Q 46.796875 31.59375 46.796875 21.90625 
Q 46.796875 12.09375 41.703125 5.90625 
Q 35.796875 -1.40625 25.796875 -1.40625 
Q 13.59375 -1.40625 8.09375 8.703125 
Q 3.40625 17.296875 3.40625 27.90625 
Q 3.40625 44.296875 14.296875 55.5 
Q 20.5 61.90625 27.046875 64.546875 
Q 33.59375 67.203125 44.59375 68.40625 
z
M 37.796875 18.796875 
Q 37.796875 38.203125 24.296875 38.203125 
Q 19.296875 38.203125 16 35.546875 
Q 12.703125 32.90625 12.703125 26.59375 
Q 12.703125 14.90625 16.34375 8.15625 
Q 20 1.40625 26.90625 1.40625 
Q 32.203125 1.40625 35 6.15625 
Q 37.796875 10.90625 37.796875 18.796875 
z
" id="STIXGeneral-Regular-54"/>
      </defs>
      <g transform="translate(312.517742 667.293437)scale(0.18 -0.18)">
       <use xlink:href="#STIXGeneral-Regular-49"/>
       <use x="49.999985" xlink:href="#STIXGeneral-Regular-46"/>
       <use x="74.999969" xlink:href="#STIXGeneral-Regular-54"/>
      </g>
     </g>
    </g>
    <g id="xtick_29">
     <g id="line2d_77">
      <g>
       <use style="fill:#ffffff;stroke:#000000;stroke-width:0.8;" x="398.090323" xlink:href="#m88c9429c6b" y="648"/>
      </g>
     </g>
     <g id="text_21">
      <!-- 1.8 -->
      <defs>
       <path d="M 44.5 15.5 
Q 44.5 7.796875 39.140625 3.1875 
Q 33.796875 -1.40625 24.796875 -1.40625 
Q 16.40625 -1.40625 11 3.1875 
Q 5.59375 7.796875 5.59375 14.90625 
Q 5.59375 20.203125 8.1875 23.953125 
Q 10.796875 27.703125 18.59375 33.203125 
Q 11.09375 39.40625 8.640625 43.203125 
Q 6.203125 47 6.203125 52 
Q 6.203125 59.09375 11.640625 63.34375 
Q 17.09375 67.59375 25.59375 67.59375 
Q 32.90625 67.59375 37.65625 63.4375 
Q 42.40625 59.296875 42.40625 53.296875 
Q 42.40625 47.796875 39.546875 44.5 
Q 36.703125 41.203125 29 37.09375 
Q 38 31.09375 41.25 26.390625 
Q 44.5 21.703125 44.5 15.5 
z
M 35.5 53.296875 
Q 35.5 58.5 32.59375 61.640625 
Q 29.703125 64.796875 24.59375 64.796875 
Q 19.5 64.796875 16.546875 62.140625 
Q 13.59375 59.5 13.59375 54.890625 
Q 13.59375 50.296875 16.546875 46.546875 
Q 19.5 42.796875 26.09375 38.90625 
Q 31.203125 41.90625 33.34375 45.25 
Q 35.5 48.59375 35.5 53.296875 
z
M 27.09375 27.203125 
L 21.203125 31.203125 
Q 16.796875 27.59375 15 24.140625 
Q 13.203125 20.703125 13.203125 15.796875 
Q 13.203125 9 16.640625 5.203125 
Q 20.09375 1.40625 25.90625 1.40625 
Q 30.796875 1.40625 33.84375 4.453125 
Q 36.90625 7.5 36.90625 12.40625 
Q 36.90625 16.90625 34.59375 20.296875 
Q 32.296875 23.703125 27.09375 27.203125 
z
" id="STIXGeneral-Regular-56"/>
      </defs>
      <g transform="translate(386.840323 667.293437)scale(0.18 -0.18)">
       <use xlink:href="#STIXGeneral-Regular-49"/>
       <use x="49.999985" xlink:href="#STIXGeneral-Regular-46"/>
       <use x="74.999969" xlink:href="#STIXGeneral-Regular-56"/>
      </g>
     </g>
    </g>
    <g id="xtick_30">
     <g id="line2d_78">
      <g>
       <use style="fill:#ffffff;stroke:#000000;stroke-width:0.8;" x="472.412903" xlink:href="#m88c9429c6b" y="648"/>
      </g>
     </g>
     <g id="text_22">
      <!-- 2.0 -->
      <g transform="translate(461.162903 667.293437)scale(0.18 -0.18)">
       <use xlink:href="#STIXGeneral-Regular-50"/>
       <use x="49.999985" xlink:href="#STIXGeneral-Regular-46"/>
       <use x="74.999969" xlink:href="#STIXGeneral-Regular-48"/>
      </g>
     </g>
    </g>
    <g id="text_23">
     <!-- $\^t$ -->
     <defs>
      <path d="M -7.5 50.703125 
L -10.90625 50.703125 
L -23.09375 61 
L -35.203125 50.703125 
L -38.59375 50.703125 
L -26.203125 67.40625 
L -20 67.40625 
z
" id="STIXGeneral-Regular-770"/>
      <path d="M 29.59375 42.796875 
L 29.09375 39.59375 
L 20.703125 39.59375 
L 12 6.796875 
Q 11.796875 6 11.796875 5.40625 
Q 11.796875 3.796875 13.296875 3.796875 
Q 14.5 3.796875 16.09375 5.34375 
Q 17.703125 6.90625 21.40625 11.703125 
L 22.703125 11 
Q 18.09375 4 15.140625 1.453125 
Q 12.203125 -1.09375 8.40625 -1.09375 
Q 3.796875 -1.09375 3.796875 2.59375 
Q 3.796875 3.59375 5.40625 10 
L 13.203125 39.59375 
L 5.703125 39.59375 
L 5.59375 40.203125 
Q 5.59375 42 8.90625 42.703125 
Q 11.40625 43.296875 15.5 46.546875 
Q 19.59375 49.796875 22.203125 53.703125 
Q 22.796875 54.59375 23.59375 54.59375 
Q 24.5 54.59375 24.5 53.796875 
Q 24.5 53.296875 24.40625 53.09375 
L 21.59375 42.796875 
z
" id="STIXGeneral-Italic-116"/>
     </defs>
     <g transform="translate(284.086452 687.493438)scale(0.18 -0.18)">
      <use transform="translate(39.042969 16.59375)" xlink:href="#STIXGeneral-Regular-770"/>
      <use transform="translate(0 0.203125)" xlink:href="#STIXGeneral-Italic-116"/>
     </g>
    </g>
   </g>
   <g id="matplotlib.axis_10">
    <g id="ytick_17">
     <g id="line2d_79">
      <g>
       <use style="fill:#ffffff;stroke:#000000;stroke-width:0.8;" x="100.8" xlink:href="#m4a4d4e50c8" y="639.377246"/>
      </g>
     </g>
     <g id="text_24">
      <!-- −7.5 -->
      <g transform="translate(58.97 645.523964)scale(0.18 -0.18)">
       <use xlink:href="#STIXGeneral-Regular-8722"/>
       <use x="68.499985" xlink:href="#STIXGeneral-Regular-55"/>
       <use x="118.499969" xlink:href="#STIXGeneral-Regular-46"/>
       <use x="143.499954" xlink:href="#STIXGeneral-Regular-53"/>
      </g>
     </g>
    </g>
    <g id="ytick_18">
     <g id="line2d_80">
      <g>
       <use style="fill:#ffffff;stroke:#000000;stroke-width:0.8;" x="100.8" xlink:href="#m4a4d4e50c8" y="596.263473"/>
      </g>
     </g>
     <g id="text_25">
      <!-- −5.0 -->
      <g transform="translate(58.97 602.410192)scale(0.18 -0.18)">
       <use xlink:href="#STIXGeneral-Regular-8722"/>
       <use x="68.499985" xlink:href="#STIXGeneral-Regular-53"/>
       <use x="118.499969" xlink:href="#STIXGeneral-Regular-46"/>
       <use x="143.499954" xlink:href="#STIXGeneral-Regular-48"/>
      </g>
     </g>
    </g>
    <g id="ytick_19">
     <g id="line2d_81">
      <g>
       <use style="fill:#ffffff;stroke:#000000;stroke-width:0.8;" x="100.8" xlink:href="#m4a4d4e50c8" y="553.149701"/>
      </g>
     </g>
     <g id="text_26">
      <!-- −2.5 -->
      <g transform="translate(58.97 559.296419)scale(0.18 -0.18)">
       <use xlink:href="#STIXGeneral-Regular-8722"/>
       <use x="68.499985" xlink:href="#STIXGeneral-Regular-50"/>
       <use x="118.499969" xlink:href="#STIXGeneral-Regular-46"/>
       <use x="143.499954" xlink:href="#STIXGeneral-Regular-53"/>
      </g>
     </g>
    </g>
    <g id="ytick_20">
     <g id="line2d_82">
      <g>
       <use style="fill:#ffffff;stroke:#000000;stroke-width:0.8;" x="100.8" xlink:href="#m4a4d4e50c8" y="510.035928"/>
      </g>
     </g>
     <g id="text_27">
      <!-- 0.0 -->
      <g transform="translate(71.3 516.182647)scale(0.18 -0.18)">
       <use xlink:href="#STIXGeneral-Regular-48"/>
       <use x="49.999985" xlink:href="#STIXGeneral-Regular-46"/>
       <use x="74.999969" xlink:href="#STIXGeneral-Regular-48"/>
      </g>
     </g>
    </g>
    <g id="text_28">
     <!-- $C_l$ -->
     <g transform="translate(51.063438 569.962455)rotate(-90)scale(0.18 -0.18)">
      <use transform="translate(0 0.40625)" xlink:href="#STIXGeneral-Italic-67"/>
      <use transform="translate(66.699997 -12.821875)scale(0.7)" xlink:href="#STIXGeneral-Italic-108"/>
     </g>
    </g>
   </g>
   <g id="line2d_83">
    <path clip-path="url(#pdbcb2b612e)" d="M 100.428387 512.593393 
L 115.292903 511.882769 
L 124.583226 511.764912 
L 137.218065 511.842007 
L 201.87871 512.528561 
L 233.837419 512.474403 
L 273.971613 512.169483 
L 346.436129 511.335757 
L 430.420645 510.436312 
L 472.784516 510.10596 
L 472.784516 510.10596 
" style="fill:none;stroke:#1f77b4;stroke-linecap:square;stroke-width:3;"/>
   </g>
   <g id="line2d_84">
    <path clip-path="url(#pdbcb2b612e)" d="M 100.428387 512.503923 
L 104.887742 511.891262 
L 110.090323 511.409473 
L 117.894194 510.910422 
L 128.299355 510.462514 
L 137.96129 510.24993 
L 146.88 510.250201 
L 159.886452 510.499158 
L 190.35871 511.14784 
L 206.709677 511.225936 
L 232.722581 511.124683 
L 270.627097 510.992379 
L 291.065806 510.929879 
L 302.214194 510.66517 
L 313.734194 510.166071 
L 329.341935 509.467838 
L 336.030968 509.424837 
L 366.131613 509.605142 
L 400.691613 509.215039 
L 422.245161 508.946251 
L 438.596129 508.994917 
L 460.149677 509.283334 
L 472.784516 509.493929 
L 472.784516 509.493929 
" style="fill:none;stroke:#ff7f0e;stroke-linecap:square;stroke-width:3;"/>
   </g>
   <g id="line2d_85">
    <path clip-path="url(#pdbcb2b612e)" d="M 100.8 510.035928 
L 472.412903 510.035928 
" style="fill:none;stroke:#000000;stroke-dasharray:3.2,0.8,0.5,0.8;stroke-dashoffset:0;stroke-width:0.5;"/>
   </g>
   <g id="line2d_86">
    <path clip-path="url(#pdbcb2b612e)" d="M 100.8 648 
L 100.8 475.54491 
" style="fill:none;stroke:#000000;stroke-linecap:square;stroke-width:0.5;"/>
   </g>
   <g id="line2d_87">
    <path clip-path="url(#pdbcb2b612e)" d="M 175.122581 648 
L 175.122581 475.54491 
" style="fill:none;stroke:#000000;stroke-dasharray:3.2,0.8,0.5,0.8;stroke-dashoffset:0;stroke-opacity:0.25;stroke-width:0.5;"/>
   </g>
   <g id="line2d_88">
    <path clip-path="url(#pdbcb2b612e)" d="M 249.445161 648 
L 249.445161 475.54491 
" style="fill:none;stroke:#000000;stroke-dasharray:3.2,0.8,0.5,0.8;stroke-dashoffset:0;stroke-opacity:0.25;stroke-width:0.5;"/>
   </g>
   <g id="line2d_89">
    <path clip-path="url(#pdbcb2b612e)" d="M 323.767742 648 
L 323.767742 475.54491 
" style="fill:none;stroke:#000000;stroke-dasharray:3.2,0.8,0.5,0.8;stroke-dashoffset:0;stroke-opacity:0.25;stroke-width:0.5;"/>
   </g>
   <g id="patch_23">
    <path d="M 100.8 648 
L 100.8 475.54491 
" style="fill:none;stroke:#000000;stroke-linecap:square;stroke-linejoin:miter;stroke-width:0.8;"/>
   </g>
   <g id="patch_24">
    <path d="M 472.412903 648 
L 472.412903 475.54491 
" style="fill:none;stroke:#000000;stroke-linecap:square;stroke-linejoin:miter;stroke-width:0.8;"/>
   </g>
   <g id="patch_25">
    <path d="M 100.8 648 
L 472.412903 648 
" style="fill:none;stroke:#000000;stroke-linecap:square;stroke-linejoin:miter;stroke-width:0.8;"/>
   </g>
   <g id="patch_26">
    <path d="M 100.8 475.54491 
L 472.412903 475.54491 
" style="fill:none;stroke:#000000;stroke-linecap:square;stroke-linejoin:miter;stroke-width:0.8;"/>
   </g>
  </g>
  <g id="axes_6">
   <g id="patch_27">
    <path d="M 535.587097 648 
L 907.2 648 
L 907.2 475.54491 
L 535.587097 475.54491 
z
" style="fill:#ffffff;"/>
   </g>
   <g id="matplotlib.axis_11">
    <g id="xtick_31">
     <g id="line2d_90">
      <g>
       <use style="fill:#ffffff;stroke:#000000;stroke-width:0.8;" x="535.587097" xlink:href="#m88c9429c6b" y="648"/>
      </g>
     </g>
     <g id="text_29">
      <!-- 1.0 -->
      <g transform="translate(524.337097 667.293437)scale(0.18 -0.18)">
       <use xlink:href="#STIXGeneral-Regular-49"/>
       <use x="49.999985" xlink:href="#STIXGeneral-Regular-46"/>
       <use x="74.999969" xlink:href="#STIXGeneral-Regular-48"/>
      </g>
     </g>
    </g>
    <g id="xtick_32">
     <g id="line2d_91">
      <g>
       <use style="fill:#ffffff;stroke:#000000;stroke-width:0.8;" x="609.909677" xlink:href="#m88c9429c6b" y="648"/>
      </g>
     </g>
     <g id="text_30">
      <!-- 1.2 -->
      <g transform="translate(598.659677 667.293437)scale(0.18 -0.18)">
       <use xlink:href="#STIXGeneral-Regular-49"/>
       <use x="49.999985" xlink:href="#STIXGeneral-Regular-46"/>
       <use x="74.999969" xlink:href="#STIXGeneral-Regular-50"/>
      </g>
     </g>
    </g>
    <g id="xtick_33">
     <g id="line2d_92">
      <g>
       <use style="fill:#ffffff;stroke:#000000;stroke-width:0.8;" x="684.232258" xlink:href="#m88c9429c6b" y="648"/>
      </g>
     </g>
     <g id="text_31">
      <!-- 1.4 -->
      <g transform="translate(672.982258 667.293437)scale(0.18 -0.18)">
       <use xlink:href="#STIXGeneral-Regular-49"/>
       <use x="49.999985" xlink:href="#STIXGeneral-Regular-46"/>
       <use x="74.999969" xlink:href="#STIXGeneral-Regular-52"/>
      </g>
     </g>
    </g>
    <g id="xtick_34">
     <g id="line2d_93">
      <g>
       <use style="fill:#ffffff;stroke:#000000;stroke-width:0.8;" x="758.554839" xlink:href="#m88c9429c6b" y="648"/>
      </g>
     </g>
     <g id="text_32">
      <!-- 1.6 -->
      <g transform="translate(747.304839 667.293437)scale(0.18 -0.18)">
       <use xlink:href="#STIXGeneral-Regular-49"/>
       <use x="49.999985" xlink:href="#STIXGeneral-Regular-46"/>
       <use x="74.999969" xlink:href="#STIXGeneral-Regular-54"/>
      </g>
     </g>
    </g>
    <g id="xtick_35">
     <g id="line2d_94">
      <g>
       <use style="fill:#ffffff;stroke:#000000;stroke-width:0.8;" x="832.877419" xlink:href="#m88c9429c6b" y="648"/>
      </g>
     </g>
     <g id="text_33">
      <!-- 1.8 -->
      <g transform="translate(821.627419 667.293437)scale(0.18 -0.18)">
       <use xlink:href="#STIXGeneral-Regular-49"/>
       <use x="49.999985" xlink:href="#STIXGeneral-Regular-46"/>
       <use x="74.999969" xlink:href="#STIXGeneral-Regular-56"/>
      </g>
     </g>
    </g>
    <g id="xtick_36">
     <g id="line2d_95">
      <g>
       <use style="fill:#ffffff;stroke:#000000;stroke-width:0.8;" x="907.2" xlink:href="#m88c9429c6b" y="648"/>
      </g>
     </g>
     <g id="text_34">
      <!-- 2.0 -->
      <g transform="translate(895.95 667.293437)scale(0.18 -0.18)">
       <use xlink:href="#STIXGeneral-Regular-50"/>
       <use x="49.999985" xlink:href="#STIXGeneral-Regular-46"/>
       <use x="74.999969" xlink:href="#STIXGeneral-Regular-48"/>
      </g>
     </g>
    </g>
    <g id="text_35">
     <!-- $\^t$ -->
     <g transform="translate(718.873548 687.493438)scale(0.18 -0.18)">
      <use transform="translate(39.042969 16.59375)" xlink:href="#STIXGeneral-Regular-770"/>
      <use transform="translate(0 0.203125)" xlink:href="#STIXGeneral-Italic-116"/>
     </g>
    </g>
   </g>
   <g id="matplotlib.axis_12">
    <g id="ytick_21">
     <g id="line2d_96">
      <g>
       <use style="fill:#ffffff;stroke:#000000;stroke-width:0.8;" x="535.587097" xlink:href="#m4a4d4e50c8" y="639.377246"/>
      </g>
     </g>
    </g>
    <g id="ytick_22">
     <g id="line2d_97">
      <g>
       <use style="fill:#ffffff;stroke:#000000;stroke-width:0.8;" x="535.587097" xlink:href="#m4a4d4e50c8" y="596.263473"/>
      </g>
     </g>
    </g>
    <g id="ytick_23">
     <g id="line2d_98">
      <g>
       <use style="fill:#ffffff;stroke:#000000;stroke-width:0.8;" x="535.587097" xlink:href="#m4a4d4e50c8" y="553.149701"/>
      </g>
     </g>
    </g>
    <g id="ytick_24">
     <g id="line2d_99">
      <g>
       <use style="fill:#ffffff;stroke:#000000;stroke-width:0.8;" x="535.587097" xlink:href="#m4a4d4e50c8" y="510.035928"/>
      </g>
     </g>
    </g>
    <g id="text_36">
     <!-- $C_d$ -->
     <g transform="translate(520.680534 571.402455)rotate(-90)scale(0.18 -0.18)">
      <use transform="translate(0 0.40625)" xlink:href="#STIXGeneral-Italic-67"/>
      <use transform="translate(66.699997 -12.821875)scale(0.7)" xlink:href="#STIXGeneral-Italic-100"/>
     </g>
    </g>
   </g>
   <g id="line2d_100">
    <path clip-path="url(#p1a80f4f26b)" d="M 535.215484 523.7775 
L 536.330323 522.397992 
L 537.445161 521.388716 
L 538.931613 520.374524 
L 541.16129 519.207597 
L 543.762581 518.12514 
L 547.107097 516.922038 
L 550.823226 515.798023 
L 555.654194 514.591701 
L 558.255484 514.039867 
L 563.086452 513.209338 
L 568.289032 512.529506 
L 574.234839 511.969875 
L 582.03871 511.487997 
L 590.957419 511.166819 
L 603.963871 510.922539 
L 632.206452 510.665244 
L 693.522581 510.359749 
L 759.298065 510.37002 
L 907.571613 510.635742 
L 907.571613 510.635742 
" style="fill:none;stroke:#1f77b4;stroke-linecap:square;stroke-width:3;"/>
   </g>
   <g id="line2d_101">
    <path clip-path="url(#p1a80f4f26b)" d="M 535.215484 506.158916 
L 536.330323 505.216449 
L 537.445161 504.597585 
L 538.931613 504.051897 
L 540.789677 503.621093 
L 543.390968 503.259959 
L 548.965161 502.87827 
L 564.944516 502.364578 
L 571.633548 502.681908 
L 576.464516 503.014167 
L 597.274839 504.813626 
L 603.592258 505.415275 
L 611.396129 505.87265 
L 615.855484 505.918463 
L 621.80129 505.705443 
L 627.375484 505.235004 
L 635.550968 504.306628 
L 652.273548 502.514017 
L 671.969032 501.377772 
L 681.630968 500.820589 
L 691.292903 499.925199 
L 697.23871 499.160143 
L 703.927742 498.05737 
L 711.36 496.566031 
L 726.596129 493.297922 
L 731.79871 492.430706 
L 736.258065 491.899895 
L 740.345806 491.613749 
L 745.176774 491.531292 
L 749.636129 491.70976 
L 755.210323 492.236852 
L 759.669677 492.846349 
L 765.615484 493.872441 
L 769.703226 494.721619 
L 773.047742 495.484877 
L 779.736774 497.272992 
L 786.797419 499.201406 
L 791.628387 500.292486 
L 804.263226 502.98847 
L 810.209032 504.214451 
L 816.898065 505.366101 
L 837.336774 508.602569 
L 848.485161 510.70751 
L 855.174194 511.789805 
L 862.606452 512.753433 
L 873.754839 513.954365 
L 890.849032 515.614113 
L 903.483871 516.61884 
L 907.571613 516.886057 
L 907.571613 516.886057 
" style="fill:none;stroke:#ff7f0e;stroke-linecap:square;stroke-width:3;"/>
   </g>
   <g id="line2d_102">
    <path clip-path="url(#p1a80f4f26b)" d="M 535.587097 510.035928 
L 907.2 510.035928 
" style="fill:none;stroke:#000000;stroke-dasharray:3.2,0.8,0.5,0.8;stroke-dashoffset:0;stroke-width:0.5;"/>
   </g>
   <g id="line2d_103">
    <path clip-path="url(#p1a80f4f26b)" d="M 535.587097 648 
L 535.587097 475.54491 
" style="fill:none;stroke:#000000;stroke-linecap:square;stroke-width:0.5;"/>
   </g>
   <g id="line2d_104">
    <path clip-path="url(#p1a80f4f26b)" d="M 609.909677 648 
L 609.909677 475.54491 
" style="fill:none;stroke:#000000;stroke-dasharray:3.2,0.8,0.5,0.8;stroke-dashoffset:0;stroke-opacity:0.25;stroke-width:0.5;"/>
   </g>
   <g id="line2d_105">
    <path clip-path="url(#p1a80f4f26b)" d="M 684.232258 648 
L 684.232258 475.54491 
" style="fill:none;stroke:#000000;stroke-dasharray:3.2,0.8,0.5,0.8;stroke-dashoffset:0;stroke-opacity:0.25;stroke-width:0.5;"/>
   </g>
   <g id="line2d_106">
    <path clip-path="url(#p1a80f4f26b)" d="M 758.554839 648 
L 758.554839 475.54491 
" style="fill:none;stroke:#000000;stroke-dasharray:3.2,0.8,0.5,0.8;stroke-dashoffset:0;stroke-opacity:0.25;stroke-width:0.5;"/>
   </g>
   <g id="patch_28">
    <path d="M 535.587097 648 
L 535.587097 475.54491 
" style="fill:none;stroke:#000000;stroke-linecap:square;stroke-linejoin:miter;stroke-width:0.8;"/>
   </g>
   <g id="patch_29">
    <path d="M 907.2 648 
L 907.2 475.54491 
" style="fill:none;stroke:#000000;stroke-linecap:square;stroke-linejoin:miter;stroke-width:0.8;"/>
   </g>
   <g id="patch_30">
    <path d="M 535.587097 648 
L 907.2 648 
" style="fill:none;stroke:#000000;stroke-linecap:square;stroke-linejoin:miter;stroke-width:0.8;"/>
   </g>
   <g id="patch_31">
    <path d="M 535.587097 475.54491 
L 907.2 475.54491 
" style="fill:none;stroke:#000000;stroke-linecap:square;stroke-linejoin:miter;stroke-width:0.8;"/>
   </g>
   <g id="text_37">
    <!-- $s/c = 6.0$ -->
    <g transform="translate(925.449677 565.965893)scale(0.18 -0.18)">
     <use transform="translate(0 0.59375)" xlink:href="#STIXGeneral-Italic-115"/>
     <use transform="translate(38.899994 0.59375)" xlink:href="#STIXGeneral-Regular-47"/>
     <use transform="translate(66.699982 0.59375)" xlink:href="#STIXGeneral-Italic-99"/>
     <use transform="translate(125.539972 0.59375)" xlink:href="#STIXGeneral-Regular-61"/>
     <use transform="translate(208.479953 0.59375)" xlink:href="#STIXGeneral-Regular-54"/>
     <use transform="translate(258.479938 0.59375)" xlink:href="#STIXGeneral-Regular-46"/>
     <use transform="translate(283.479922 0.59375)" xlink:href="#STIXGeneral-Regular-48"/>
    </g>
   </g>
  </g>
 </g>
 <defs>
  <clipPath id="p3134822fc4">
   <rect height="172.45509" width="371.612903" x="100.8" y="72"/>
  </clipPath>
  <clipPath id="pf2f894124a">
   <rect height="172.45509" width="371.612903" x="535.587097" y="72"/>
  </clipPath>
  <clipPath id="p79c18c1c18">
   <rect height="172.45509" width="371.612903" x="100.8" y="273.772455"/>
  </clipPath>
  <clipPath id="p94eb733e29">
   <rect height="172.45509" width="371.612903" x="535.587097" y="273.772455"/>
  </clipPath>
  <clipPath id="pdbcb2b612e">
   <rect height="172.45509" width="371.612903" x="100.8" y="475.54491"/>
  </clipPath>
  <clipPath id="p1a80f4f26b">
   <rect height="172.45509" width="371.612903" x="535.587097" y="475.54491"/>
  </clipPath>
 </defs>
</svg>
