<?xml version="1.0" encoding="utf-8" standalone="no"?>
<!DOCTYPE svg PUBLIC "-//W3C//DTD SVG 1.1//EN"
  "http://www.w3.org/Graphics/SVG/1.1/DTD/svg11.dtd">
<!-- Created with matplotlib (https://matplotlib.org/) -->
<svg height="432pt" version="1.1" viewBox="0 0 864 432" width="864pt" xmlns="http://www.w3.org/2000/svg" xmlns:xlink="http://www.w3.org/1999/xlink">
 <defs>
  <style type="text/css">
*{stroke-linecap:butt;stroke-linejoin:round;}
  </style>
 </defs>
 <g id="figure_1">
  <g id="patch_1">
   <path d="M 0 432 
L 864 432 
L 864 0 
L 0 0 
z
" style="fill:#ffffff;"/>
  </g>
  <g id="axes_1">
   <g id="patch_2">
    <path d="M 86.4 207.771429 
L 412.437736 207.771429 
L 412.437736 43.2 
L 86.4 43.2 
z
" style="fill:#ffffff;"/>
   </g>
   <g id="matplotlib.axis_1">
    <g id="xtick_1">
     <g id="line2d_1">
      <defs>
       <path d="M 0 0 
L 0 3.5 
" id="mae83ba4d5e" style="stroke:#000000;stroke-width:0.8;"/>
      </defs>
      <g>
       <use style="fill:#ffffff;stroke:#000000;stroke-width:0.8;" x="86.4" xlink:href="#mae83ba4d5e" y="207.771429"/>
      </g>
     </g>
    </g>
    <g id="xtick_2">
     <g id="line2d_2">
      <g>
       <use style="fill:#ffffff;stroke:#000000;stroke-width:0.8;" x="167.909434" xlink:href="#mae83ba4d5e" y="207.771429"/>
      </g>
     </g>
    </g>
    <g id="xtick_3">
     <g id="line2d_3">
      <g>
       <use style="fill:#ffffff;stroke:#000000;stroke-width:0.8;" x="249.418868" xlink:href="#mae83ba4d5e" y="207.771429"/>
      </g>
     </g>
    </g>
    <g id="xtick_4">
     <g id="line2d_4">
      <g>
       <use style="fill:#ffffff;stroke:#000000;stroke-width:0.8;" x="330.928302" xlink:href="#mae83ba4d5e" y="207.771429"/>
      </g>
     </g>
    </g>
    <g id="xtick_5">
     <g id="line2d_5">
      <g>
       <use style="fill:#ffffff;stroke:#000000;stroke-width:0.8;" x="412.437736" xlink:href="#mae83ba4d5e" y="207.771429"/>
      </g>
     </g>
    </g>
   </g>
   <g id="matplotlib.axis_2">
    <g id="ytick_1">
     <g id="line2d_6">
      <defs>
       <path d="M 0 0 
L -3.5 0 
" id="m43206a2f35" style="stroke:#000000;stroke-width:0.8;"/>
      </defs>
      <g>
       <use style="fill:#ffffff;stroke:#000000;stroke-width:0.8;" x="86.4" xlink:href="#m43206a2f35" y="173.615094"/>
      </g>
     </g>
     <g id="text_1">
      <!-- −5 -->
      <defs>
       <path d="M 62.09375 22 
L 6.40625 22 
L 6.40625 28.59375 
L 62.09375 28.59375 
z
" id="STIXGeneral-Regular-8722"/>
       <path d="M 43.796875 68.09375 
L 40.203125 59.59375 
Q 39.59375 58.296875 37.5 58.296875 
L 18.09375 58.296875 
L 14.09375 49.796875 
Q 25.09375 47.703125 30 45.25 
Q 34.90625 42.796875 39.09375 37 
Q 42.59375 32.203125 42.59375 24.296875 
Q 42.59375 17.09375 40.25 12.1875 
Q 37.90625 7.296875 32.796875 3.5 
Q 26 -1.40625 15.796875 -1.40625 
Q 10.09375 -1.40625 6.59375 0.296875 
Q 3.09375 2 3.09375 4.796875 
Q 3.09375 8.59375 7.59375 8.59375 
Q 11.203125 8.59375 15 5.5 
Q 18.90625 2.296875 22.09375 2.296875 
Q 27.296875 2.296875 31.4375 7.5 
Q 35.59375 12.703125 35.59375 19.203125 
Q 35.59375 28.796875 28.90625 34.203125 
Q 20.203125 41.203125 7.59375 41.203125 
Q 6.40625 41.203125 6.40625 42 
L 6.5 42.5 
L 17.40625 66.203125 
L 38.09375 66.203125 
Q 39.796875 66.203125 40.75 66.703125 
Q 41.703125 67.203125 42.90625 68.796875 
z
" id="STIXGeneral-Regular-53"/>
      </defs>
      <g transform="translate(56.885 180.103297)scale(0.19 -0.19)">
       <use xlink:href="#STIXGeneral-Regular-8722"/>
       <use x="68.499985" xlink:href="#STIXGeneral-Regular-53"/>
      </g>
     </g>
    </g>
    <g id="ytick_2">
     <g id="line2d_7">
      <g>
       <use style="fill:#ffffff;stroke:#000000;stroke-width:0.8;" x="86.4" xlink:href="#m43206a2f35" y="127.038275"/>
      </g>
     </g>
     <g id="text_2">
      <!-- 10 -->
      <defs>
       <path d="M 39.40625 0 
L 11.796875 0 
L 11.796875 1.5 
Q 17.296875 1.796875 19.296875 3.546875 
Q 21.296875 5.296875 21.296875 9.5 
L 21.296875 54.40625 
Q 21.296875 59.296875 18.296875 59.296875 
Q 16.90625 59.296875 13.796875 58.09375 
L 11.09375 57.09375 
L 11.09375 58.5 
L 29 67.59375 
L 29.90625 67.296875 
L 29.90625 7.59375 
Q 29.90625 4.296875 31.90625 2.890625 
Q 33.90625 1.5 39.40625 1.5 
z
" id="STIXGeneral-Regular-49"/>
       <path d="M 47.59375 33 
Q 47.59375 26.296875 46.296875 20.34375 
Q 45 14.40625 42.453125 9.40625 
Q 39.90625 4.40625 35.40625 1.5 
Q 30.90625 -1.40625 25 -1.40625 
Q 18.90625 -1.40625 14.296875 1.6875 
Q 9.703125 4.796875 7.203125 10 
Q 4.703125 15.203125 3.546875 21.09375 
Q 2.40625 27 2.40625 33.59375 
Q 2.40625 42.90625 4.703125 50.34375 
Q 7 57.796875 12.34375 62.6875 
Q 17.703125 67.59375 25.40625 67.59375 
Q 35.203125 67.59375 41.390625 58 
Q 47.59375 48.40625 47.59375 33 
z
M 38 32.5 
Q 38 48.296875 34.640625 56.640625 
Q 31.296875 65 24.796875 65 
Q 18.59375 65 15.296875 56.59375 
Q 12 48.203125 12 32.90625 
Q 12 17.5 15.296875 9.34375 
Q 18.59375 1.203125 25 1.203125 
Q 31.296875 1.203125 34.640625 9.34375 
Q 38 17.5 38 32.5 
z
" id="STIXGeneral-Regular-48"/>
      </defs>
      <g transform="translate(60.4 133.526478)scale(0.19 -0.19)">
       <use xlink:href="#STIXGeneral-Regular-49"/>
       <use x="49.999985" xlink:href="#STIXGeneral-Regular-48"/>
      </g>
     </g>
    </g>
    <g id="ytick_3">
     <g id="line2d_8">
      <g>
       <use style="fill:#ffffff;stroke:#000000;stroke-width:0.8;" x="86.4" xlink:href="#m43206a2f35" y="80.461456"/>
      </g>
     </g>
     <g id="text_3">
      <!-- 25 -->
      <defs>
       <path d="M 47.40625 13.703125 
L 42 0 
L 2.90625 0 
L 2.90625 1.203125 
L 20.703125 20.09375 
Q 27.703125 27.40625 30.703125 33.5 
Q 33.703125 39.59375 33.703125 46.09375 
Q 33.703125 52.796875 30 56.5 
Q 26.296875 60.203125 19.796875 60.203125 
Q 14.40625 60.203125 11.25 57.390625 
Q 8.09375 54.59375 5.09375 47.203125 
L 3 47.703125 
Q 4.703125 57 9.84375 62.296875 
Q 15 67.59375 23.796875 67.59375 
Q 32.09375 67.59375 37.1875 62.59375 
Q 42.296875 57.59375 42.296875 50 
Q 42.296875 38.703125 29.5 25.203125 
L 13 7.59375 
L 36.40625 7.59375 
Q 39.703125 7.59375 41.640625 8.890625 
Q 43.59375 10.203125 46 14.296875 
z
" id="STIXGeneral-Regular-50"/>
      </defs>
      <g transform="translate(60.4 86.949659)scale(0.19 -0.19)">
       <use xlink:href="#STIXGeneral-Regular-50"/>
       <use x="49.999985" xlink:href="#STIXGeneral-Regular-53"/>
      </g>
     </g>
    </g>
    <g id="text_4">
     <!-- $C_l$ -->
     <defs>
      <path d="M 68.90625 66.40625 
L 65.203125 46.40625 
L 63.40625 46.703125 
Q 61.59375 63 48.5 63 
Q 37.59375 63 28.59375 53.296875 
Q 23.296875 47.703125 20.546875 39.703125 
Q 17.796875 31.703125 17.796875 23.203125 
Q 17.796875 2.703125 35.296875 2.703125 
Q 41.5 2.703125 46.640625 5.296875 
Q 51.796875 7.90625 58.203125 14.59375 
L 60 13.09375 
Q 53.296875 5.203125 46.84375 1.703125 
Q 40.40625 -1.796875 32.703125 -1.796875 
Q 21 -1.796875 13.796875 5.140625 
Q 6.59375 12.09375 6.59375 24.296875 
Q 6.59375 34.59375 11.6875 43.9375 
Q 16.796875 53.296875 25.296875 59.296875 
Q 35.5 66.59375 47.203125 66.59375 
Q 54.09375 66.59375 58.90625 64.90625 
Q 60.90625 64.203125 63 64.203125 
Q 65.703125 64.203125 66.796875 66.40625 
z
" id="STIXGeneral-Italic-67"/>
      <path d="M 27.90625 67.796875 
L 12.59375 9.296875 
Q 11.796875 6.40625 11.796875 5 
Q 11.796875 3.203125 13.5 3.203125 
Q 16.203125 3.203125 20.203125 8.90625 
L 22.703125 12.40625 
L 24.09375 11.40625 
Q 19.59375 4.296875 16.34375 1.59375 
Q 13.09375 -1.09375 9 -1.09375 
Q 4.09375 -1.09375 4.09375 4.5 
Q 4.09375 6.203125 4.5 7.5 
L 18.203125 59.90625 
Q 18.5 60.90625 18.5 61.796875 
Q 18.5 64 13.59375 64 
L 11.796875 64 
L 11.796875 65.59375 
Q 18.796875 66.40625 27.296875 68.296875 
z
" id="STIXGeneral-Italic-108"/>
     </defs>
     <g transform="translate(48.761406 134.130714)rotate(-90)scale(0.19 -0.19)">
      <use transform="translate(0 0.40625)" xlink:href="#STIXGeneral-Italic-67"/>
      <use transform="translate(66.699997 -12.821875)scale(0.7)" xlink:href="#STIXGeneral-Italic-108"/>
     </g>
    </g>
   </g>
   <g id="line2d_9">
    <path clip-path="url(#p8f6a0258bf)" d="M 86.889057 157.740919 
L 87.86717 156.847687 
L 88.356226 155.989673 
L 88.845283 154.706504 
L 89.660377 151.714643 
L 90.638491 148.144331 
L 91.290566 146.59362 
L 91.942642 145.678307 
L 92.594717 145.157826 
L 93.409811 144.789374 
L 94.876981 144.425924 
L 104.006038 142.572854 
L 105.962264 142.142327 
L 106.61434 142.16812 
L 107.103396 142.357277 
L 107.592453 142.784846 
L 108.081509 143.587007 
L 108.570566 144.823794 
L 109.548679 148.216233 
L 110.363774 150.670721 
L 111.015849 151.849993 
L 111.667925 152.472122 
L 112.32 152.767535 
L 113.298113 152.93046 
L 118.514717 152.856258 
L 119.329811 152.811388 
L 131.882264 152.485987 
L 161.714717 152.06595 
L 202.143396 151.701396 
L 203.121509 151.452436 
L 203.773585 151.018524 
L 204.262642 150.384094 
L 204.751698 149.269802 
L 205.240755 147.379991 
L 205.729811 144.317557 
L 206.218868 139.715636 
L 206.870943 131.325579 
L 208.012075 116.077309 
L 208.664151 110.43201 
L 209.153208 107.767993 
L 209.642264 106.031859 
L 210.29434 104.59364 
L 211.109434 103.478903 
L 212.902642 101.602396 
L 213.880755 100.733277 
L 214.369811 100.617978 
L 214.695849 100.819876 
L 215.021887 101.333036 
L 215.347925 102.268464 
L 215.836981 104.632542 
L 216.326038 108.302825 
L 218.445283 126.439983 
L 219.423396 131.465744 
L 221.542642 140.45005 
L 226.270189 159.903964 
L 227.085283 162.322951 
L 228.063396 164.422769 
L 229.204528 166.318822 
L 230.508679 168.119141 
L 231.649811 169.402724 
L 232.627925 170.225883 
L 233.28 170.520285 
L 233.769057 170.482041 
L 234.095094 170.252127 
L 234.421132 169.770115 
L 234.74717 168.941897 
L 235.236226 166.804318 
L 235.725283 163.296478 
L 236.377358 156.507164 
L 237.844528 139.867658 
L 238.659623 133.531374 
L 239.474717 128.994591 
L 240.45283 124.976789 
L 241.430943 121.9791 
L 242.246038 120.109992 
L 242.898113 119.14292 
L 243.224151 118.90155 
L 243.550189 118.908474 
L 243.876226 119.223472 
L 244.202264 119.978354 
L 244.528302 121.303487 
L 245.017358 124.705788 
L 245.506415 130.091005 
L 246.484528 144.857937 
L 247.136604 153.767799 
L 247.62566 158.408238 
L 248.114717 161.351165 
L 248.603774 163.05782 
L 249.09283 163.984607 
L 249.581887 164.410075 
L 250.070943 164.587816 
L 250.886038 164.584933 
L 252.353208 164.283459 
L 256.26566 163.302725 
L 257.895849 162.890016 
L 268.655094 160.366251 
L 275.175849 159.235315 
L 280.392453 158.603523 
L 285.446038 158.223794 
L 294.086038 157.943053 
L 302.563019 157.953508 
L 347.230189 158.674669 
L 372.661132 158.809601 
L 412.600755 158.83337 
L 412.600755 158.83337 
" style="fill:none;stroke:#1f77b4;stroke-linecap:square;stroke-width:2;"/>
   </g>
   <g id="line2d_10">
    <path clip-path="url(#p8f6a0258bf)" d="M 86.889057 157.911035 
L 88.030189 157.331616 
L 88.682264 156.606893 
L 89.33434 155.490062 
L 90.801509 152.746305 
L 91.453585 152.022134 
L 92.10566 151.590643 
L 93.083774 151.243337 
L 94.876981 150.924339 
L 100.256604 150.069194 
L 103.027925 149.377793 
L 107.103396 148.29609 
L 107.755472 148.468155 
L 108.244528 148.826527 
L 108.896604 149.662271 
L 110.526792 151.98631 
L 111.178868 152.43579 
L 111.993962 152.668619 
L 113.298113 152.726237 
L 116.721509 152.574039 
L 129.273962 152.145577 
L 149.488302 151.853982 
L 158.291321 151.849078 
L 159.106415 151.829776 
L 165.138113 151.866325 
L 182.092075 152.230659 
L 188.449811 152.487923 
L 189.101887 152.493057 
L 199.209057 152.9702 
L 200.18717 153.013358 
L 203.610566 153.028125 
L 204.42566 152.798931 
L 204.914717 152.498118 
L 205.566792 151.676518 
L 206.055849 150.654076 
L 206.707925 148.670621 
L 208.175094 143.706206 
L 208.82717 142.361202 
L 209.479245 141.544594 
L 210.29434 140.931891 
L 211.924528 140.117267 
L 213.880755 139.311118 
L 214.53283 139.257367 
L 215.021887 139.416768 
L 215.510943 139.849867 
L 216 140.630201 
L 216.652075 142.176711 
L 218.282264 146.341237 
L 219.423396 148.403176 
L 225.455094 158.074266 
L 226.433208 159.355841 
L 227.248302 160.048028 
L 228.063396 160.418726 
L 229.204528 160.648751 
L 230.508679 160.668571 
L 231.81283 160.48119 
L 233.116981 160.078806 
L 233.932075 159.646239 
L 234.584151 159.056506 
L 235.073208 158.366037 
L 235.725283 156.930995 
L 236.540377 154.301457 
L 237.844528 149.968738 
L 238.659623 148.031781 
L 239.474717 146.588503 
L 240.615849 145.079453 
L 241.756981 143.964892 
L 242.898113 143.202981 
L 243.550189 143.036466 
L 244.039245 143.157793 
L 244.528302 143.630683 
L 245.017358 144.61567 
L 245.506415 146.226589 
L 246.321509 149.948752 
L 247.136604 153.493815 
L 247.788679 155.29916 
L 248.277736 156.071473 
L 248.766792 156.504623 
L 249.418868 156.756965 
L 250.233962 156.795875 
L 251.538113 156.623373 
L 255.124528 155.893721 
L 258.710943 155.295681 
L 262.623396 154.889268 
L 267.024906 154.701431 
L 271.426415 154.763639 
L 277.132075 155.082383 
L 287.076226 155.882902 
L 297.183396 156.63182 
L 308.431698 157.226489 
L 320.821132 157.642428 
L 338.264151 157.975467 
L 363.369057 158.21526 
L 404.286792 158.378686 
L 412.600755 158.395986 
L 412.600755 158.395986 
" style="fill:none;stroke:#ff7f0e;stroke-linecap:square;stroke-width:2;"/>
   </g>
   <g id="line2d_11">
    <path clip-path="url(#p8f6a0258bf)" d="M 86.889057 157.997306 
L 88.193208 157.625539 
L 88.845283 157.201643 
L 89.823396 156.23527 
L 90.801509 155.320218 
L 91.616604 154.860258 
L 92.594717 154.573699 
L 94.550943 154.295436 
L 98.463396 153.773857 
L 101.723774 153.030781 
L 104.169057 152.215201 
L 107.429434 151.061647 
L 108.081509 151.065011 
L 108.896604 151.349388 
L 110.689811 152.309529 
L 111.504906 152.444137 
L 112.972075 152.433227 
L 125.524528 151.934522 
L 135.30566 151.984212 
L 143.782642 152.416506 
L 145.41283 152.544314 
L 146.553962 152.635979 
L 148.34717 152.790114 
L 153.400755 153.299162 
L 155.193962 153.483897 
L 173.289057 155.053766 
L 180.298868 155.316254 
L 188.286792 155.433923 
L 202.795472 155.354203 
L 204.099623 155.245825 
L 204.914717 155.088074 
L 205.729811 154.750075 
L 206.381887 154.255416 
L 207.36 153.194714 
L 208.501132 152.010909 
L 209.642264 151.183202 
L 211.435472 150.184921 
L 213.228679 149.360291 
L 214.369811 149.025616 
L 215.184906 148.994367 
L 215.836981 149.179068 
L 216.489057 149.568961 
L 222.357736 154.108396 
L 226.433208 157.321026 
L 227.411321 157.737741 
L 228.552453 157.932884 
L 229.856604 157.936728 
L 231.486792 157.708325 
L 233.443019 157.179991 
L 234.910189 156.544733 
L 235.725283 155.967455 
L 238.496604 153.645883 
L 239.474717 153.311239 
L 240.615849 153.163594 
L 241.92 153.206572 
L 243.224151 153.455589 
L 244.039245 153.798349 
L 244.691321 154.307613 
L 245.343396 155.14609 
L 246.158491 156.66287 
L 247.136604 158.488884 
L 247.788679 159.31484 
L 248.440755 159.830438 
L 249.255849 160.207865 
L 250.56 160.531664 
L 252.842264 160.822924 
L 256.26566 161.016931 
L 260.015094 161.005294 
L 264.416604 160.74876 
L 283.000755 159.311533 
L 299.628679 158.435716 
L 311.692075 158.061853 
L 326.689811 157.838729 
L 351.30566 157.736279 
L 412.600755 157.7536 
L 412.600755 157.7536 
" style="fill:none;stroke:#2ca02c;stroke-linecap:square;stroke-width:2;"/>
   </g>
   <g id="line2d_12">
    <path clip-path="url(#p8f6a0258bf)" d="M 86.4 158.089488 
L 412.437736 158.089488 
" style="fill:none;stroke:#000000;stroke-dasharray:3.2,0.8,0.5,0.8;stroke-dashoffset:0;stroke-width:0.5;"/>
   </g>
   <g id="line2d_13">
    <path clip-path="url(#p8f6a0258bf)" d="M 249.418868 207.771429 
L 249.418868 43.2 
" style="fill:none;stroke:#000000;stroke-linecap:square;stroke-width:0.5;"/>
   </g>
   <g id="line2d_14">
    <path clip-path="url(#p8f6a0258bf)" d="M 282.022642 207.771429 
L 282.022642 43.2 
" style="fill:none;stroke:#000000;stroke-dasharray:6.4,1.6,1,1.6;stroke-dashoffset:0;stroke-opacity:0.25;"/>
   </g>
   <g id="line2d_15">
    <path clip-path="url(#p8f6a0258bf)" d="M 314.626415 207.771429 
L 314.626415 43.2 
" style="fill:none;stroke:#000000;stroke-dasharray:6.4,1.6,1,1.6;stroke-dashoffset:0;stroke-opacity:0.25;"/>
   </g>
   <g id="line2d_16">
    <path clip-path="url(#p8f6a0258bf)" d="M 347.230189 207.771429 
L 347.230189 43.2 
" style="fill:none;stroke:#000000;stroke-dasharray:6.4,1.6,1,1.6;stroke-dashoffset:0;stroke-opacity:0.25;"/>
   </g>
   <g id="patch_3">
    <path d="M 86.4 207.771429 
L 86.4 43.2 
" style="fill:none;stroke:#000000;stroke-linecap:square;stroke-linejoin:miter;stroke-width:0.8;"/>
   </g>
   <g id="patch_4">
    <path d="M 412.437736 207.771429 
L 412.437736 43.2 
" style="fill:none;stroke:#000000;stroke-linecap:square;stroke-linejoin:miter;stroke-width:0.8;"/>
   </g>
   <g id="patch_5">
    <path d="M 86.4 207.771429 
L 412.437736 207.771429 
" style="fill:none;stroke:#000000;stroke-linecap:square;stroke-linejoin:miter;stroke-width:0.8;"/>
   </g>
   <g id="patch_6">
    <path d="M 86.4 43.2 
L 412.437736 43.2 
" style="fill:none;stroke:#000000;stroke-linecap:square;stroke-linejoin:miter;stroke-width:0.8;"/>
   </g>
  </g>
  <g id="axes_2">
   <g id="patch_7">
    <path d="M 451.562264 207.771429 
L 777.6 207.771429 
L 777.6 43.2 
L 451.562264 43.2 
z
" style="fill:#ffffff;"/>
   </g>
   <g id="matplotlib.axis_3">
    <g id="xtick_6">
     <g id="line2d_17">
      <g>
       <use style="fill:#ffffff;stroke:#000000;stroke-width:0.8;" x="451.562264" xlink:href="#mae83ba4d5e" y="207.771429"/>
      </g>
     </g>
    </g>
    <g id="xtick_7">
     <g id="line2d_18">
      <g>
       <use style="fill:#ffffff;stroke:#000000;stroke-width:0.8;" x="533.071698" xlink:href="#mae83ba4d5e" y="207.771429"/>
      </g>
     </g>
    </g>
    <g id="xtick_8">
     <g id="line2d_19">
      <g>
       <use style="fill:#ffffff;stroke:#000000;stroke-width:0.8;" x="614.581132" xlink:href="#mae83ba4d5e" y="207.771429"/>
      </g>
     </g>
    </g>
    <g id="xtick_9">
     <g id="line2d_20">
      <g>
       <use style="fill:#ffffff;stroke:#000000;stroke-width:0.8;" x="696.090566" xlink:href="#mae83ba4d5e" y="207.771429"/>
      </g>
     </g>
    </g>
    <g id="xtick_10">
     <g id="line2d_21">
      <g>
       <use style="fill:#ffffff;stroke:#000000;stroke-width:0.8;" x="777.6" xlink:href="#mae83ba4d5e" y="207.771429"/>
      </g>
     </g>
    </g>
   </g>
   <g id="matplotlib.axis_4">
    <g id="ytick_4">
     <g id="line2d_22">
      <g>
       <use style="fill:#ffffff;stroke:#000000;stroke-width:0.8;" x="451.562264" xlink:href="#m43206a2f35" y="173.615094"/>
      </g>
     </g>
    </g>
    <g id="ytick_5">
     <g id="line2d_23">
      <g>
       <use style="fill:#ffffff;stroke:#000000;stroke-width:0.8;" x="451.562264" xlink:href="#m43206a2f35" y="127.038275"/>
      </g>
     </g>
    </g>
    <g id="ytick_6">
     <g id="line2d_24">
      <g>
       <use style="fill:#ffffff;stroke:#000000;stroke-width:0.8;" x="451.562264" xlink:href="#m43206a2f35" y="80.461456"/>
      </g>
     </g>
    </g>
    <g id="text_5">
     <!-- $C_d$ -->
     <defs>
      <path d="M 52.09375 68.296875 
L 52.703125 67.703125 
L 48.796875 52.5 
L 42.796875 30.59375 
Q 36.296875 6.703125 36.296875 6 
Q 36.296875 4 38.09375 4 
Q 39.40625 4 40.84375 5.25 
Q 42.296875 6.5 46.296875 11.09375 
L 47.5 10.09375 
Q 39.796875 -1.296875 32.796875 -1.296875 
Q 30.90625 -1.296875 29.796875 -0.09375 
Q 28.703125 1.09375 28.703125 3.203125 
Q 28.703125 6.203125 30 12.09375 
Q 25.703125 4.796875 21.546875 1.84375 
Q 17.40625 -1.09375 12.203125 -1.09375 
Q 7.203125 -1.09375 4.34375 1.953125 
Q 1.5 5 1.5 10.59375 
Q 1.5 22.5 11.140625 33.296875 
Q 20.796875 44.09375 30.703125 44.09375 
Q 33.796875 44.09375 35.25 42.6875 
Q 36.703125 41.296875 37.203125 38.296875 
L 37.296875 38.296875 
L 41.796875 54.59375 
Q 43.203125 59.5 43.203125 61.703125 
Q 43.203125 63.296875 42.09375 63.6875 
Q 41 64.09375 36.796875 64.296875 
L 36.796875 66 
Q 44.5 66.703125 52.09375 68.296875 
z
M 35.59375 36.09375 
Q 35.59375 38.703125 34.140625 40.25 
Q 32.703125 41.796875 30.90625 41.796875 
Q 26.203125 41.796875 21.796875 37.203125 
Q 16.796875 31.90625 13.5 24.546875 
Q 10.203125 17.203125 10.203125 11 
Q 10.203125 7.59375 11.75 5.640625 
Q 13.296875 3.703125 16 3.703125 
Q 20.5 3.703125 25.09375 8.59375 
Q 29.703125 13.5 32.640625 21.09375 
Q 35.59375 28.703125 35.59375 36.09375 
z
" id="STIXGeneral-Italic-100"/>
     </defs>
     <g transform="translate(436.43867 135.650714)rotate(-90)scale(0.19 -0.19)">
      <use transform="translate(0 0.40625)" xlink:href="#STIXGeneral-Italic-67"/>
      <use transform="translate(66.699997 -12.821875)scale(0.7)" xlink:href="#STIXGeneral-Italic-100"/>
     </g>
    </g>
   </g>
   <g id="line2d_25">
    <path clip-path="url(#pa8b1511fbe)" d="M 452.051321 157.719016 
L 453.029434 156.783183 
L 453.518491 155.878824 
L 454.007547 154.52173 
L 454.659623 152.028406 
L 455.963774 146.900568 
L 456.615849 145.296944 
L 457.267925 144.292445 
L 458.083019 143.52769 
L 459.061132 142.949624 
L 460.691321 142.281023 
L 464.766792 140.936637 
L 467.049057 140.196942 
L 471.124528 138.914603 
L 471.776604 138.918449 
L 472.26566 139.103512 
L 472.754717 139.543812 
L 473.243774 140.380838 
L 473.73283 141.685032 
L 474.547925 144.679693 
L 475.363019 147.56122 
L 476.015094 149.111569 
L 476.66717 150.027172 
L 477.319245 150.537918 
L 478.13434 150.889064 
L 481.394717 151.333605 
L 485.30717 151.552949 
L 491.501887 151.752618 
L 503.728302 151.950224 
L 516.443774 152.075806 
L 517.258868 152.055973 
L 566.653585 152.124573 
L 568.120755 151.872729 
L 568.77283 151.515659 
L 569.261887 150.992602 
L 569.750943 150.066558 
L 570.24 148.46647 
L 570.729057 145.820924 
L 571.218113 141.74678 
L 571.870189 133.7548 
L 573.500377 111.512712 
L 574.152453 105.725141 
L 575.130566 99.364219 
L 576.923774 88.078414 
L 577.901887 80.269338 
L 579.206038 67.931126 
L 580.184151 59.07158 
L 580.673208 56.074503 
L 580.999245 55.076624 
L 581.162264 54.954585 
L 581.325283 55.115413 
L 581.651321 56.134656 
L 582.140377 59.019204 
L 583.281509 66.455837 
L 583.770566 68.254425 
L 584.259623 69.262213 
L 584.748679 69.742011 
L 585.563774 70.046701 
L 586.704906 70.306305 
L 587.683019 70.888071 
L 588.335094 71.603252 
L 588.98717 72.687611 
L 589.639245 74.488499 
L 590.128302 76.503635 
L 590.617358 79.431412 
L 591.269434 84.867868 
L 593.551698 106.608601 
L 594.366792 111.2775 
L 595.507925 116.289826 
L 596.975094 121.691086 
L 598.605283 127.810197 
L 599.257358 131.197836 
L 599.909434 136.235362 
L 600.398491 141.75334 
L 601.050566 151.989718 
L 602.680755 180.830332 
L 603.33283 187.818619 
L 603.984906 192.274231 
L 604.636981 195.15651 
L 605.452075 197.634796 
L 606.26717 199.513073 
L 607.408302 201.652341 
L 608.223396 202.764322 
L 608.712453 203.025029 
L 609.038491 202.901411 
L 609.364528 202.38976 
L 609.690566 201.350024 
L 610.016604 199.603393 
L 610.50566 195.355204 
L 611.157736 186.839615 
L 612.461887 168.896093 
L 612.950943 164.781256 
L 613.44 162.161659 
L 613.929057 160.576398 
L 614.418113 159.652096 
L 615.070189 159.00925 
L 615.722264 158.700361 
L 616.537358 158.524723 
L 618.656604 158.465778 
L 621.916981 158.650685 
L 626.644528 159.183812 
L 634.143396 159.999871 
L 638.218868 160.242909 
L 643.272453 160.329849 
L 648.326038 160.193578 
L 657.455094 159.646742 
L 662.34566 159.292715 
L 680.766792 158.14401 
L 694.297358 157.621772 
L 705.871698 157.351918 
L 734.073962 157.090116 
L 771.89434 157.077034 
L 777.763019 157.08727 
L 777.763019 157.08727 
" style="fill:none;stroke:#1f77b4;stroke-linecap:square;stroke-width:2;"/>
   </g>
   <g id="line2d_26">
    <path clip-path="url(#pa8b1511fbe)" d="M 452.051321 157.895695 
L 453.192453 157.27689 
L 453.681509 156.732019 
L 454.333585 155.622304 
L 456.289811 151.697498 
L 456.941887 150.975476 
L 457.756981 150.407619 
L 458.898113 149.917289 
L 461.180377 149.252185 
L 467.701132 147.444887 
L 471.776604 146.187001 
L 472.428679 146.204839 
L 472.917736 146.394649 
L 473.406792 146.804533 
L 474.058868 147.745117 
L 475.852075 150.633958 
L 476.504151 151.156206 
L 477.319245 151.490867 
L 478.623396 151.717184 
L 480.90566 151.85433 
L 487.263396 152.015608 
L 497.207547 152.114729 
L 517.095849 152.183088 
L 542.526792 152.396436 
L 543.830943 152.407418 
L 567.30566 152.942533 
L 568.120755 152.892869 
L 569.261887 152.696043 
L 569.913962 152.360681 
L 570.403019 151.874307 
L 570.892075 151.07282 
L 571.381132 149.868021 
L 572.033208 147.623814 
L 573.500377 142.203825 
L 574.315472 140.10875 
L 577.249811 133.568562 
L 578.390943 130.184523 
L 580.510189 123.600548 
L 580.999245 122.768611 
L 581.325283 122.529405 
L 581.651321 122.543566 
L 582.140377 122.979298 
L 583.444528 124.46829 
L 584.096604 124.759638 
L 585.074717 124.86484 
L 586.541887 125.003992 
L 587.52 125.310777 
L 588.335094 125.775381 
L 589.150189 126.57191 
L 589.639245 127.321118 
L 590.128302 128.373687 
L 590.780377 130.527428 
L 591.432453 133.59855 
L 593.062642 142.32914 
L 593.877736 145.396791 
L 594.855849 148.12421 
L 595.996981 150.646815 
L 597.62717 153.593796 
L 599.420377 156.833435 
L 600.072453 158.541629 
L 600.724528 160.953829 
L 601.702642 165.81053 
L 602.517736 169.58084 
L 603.169811 171.683264 
L 603.821887 173.026205 
L 604.473962 173.908044 
L 605.289057 174.669108 
L 606.593208 175.548788 
L 608.223396 176.421658 
L 608.875472 176.557958 
L 609.364528 176.419146 
L 609.690566 176.130489 
L 610.016604 175.621169 
L 610.50566 174.348936 
L 611.157736 171.743379 
L 612.461887 166.177915 
L 613.113962 164.575401 
L 613.603019 163.891548 
L 614.255094 163.410672 
L 614.90717 163.220611 
L 615.885283 163.185371 
L 617.515472 163.349405 
L 622.895094 163.949994 
L 625.992453 164.036129 
L 629.089811 163.928013 
L 632.839245 163.592399 
L 637.729811 162.916665 
L 655.824906 160.257023 
L 663.486792 159.491407 
L 671.148679 158.943664 
L 681.907925 158.442339 
L 694.623396 158.091075 
L 712.392453 157.826102 
L 741.898868 157.626046 
L 777.763019 157.540808 
L 777.763019 157.540808 
" style="fill:none;stroke:#ff7f0e;stroke-linecap:square;stroke-width:2;"/>
   </g>
   <g id="line2d_27">
    <path clip-path="url(#pa8b1511fbe)" d="M 452.051321 157.986409 
L 453.355472 157.578913 
L 454.007547 157.108676 
L 454.822642 156.215274 
L 456.126792 154.775851 
L 456.941887 154.220856 
L 458.083019 153.761845 
L 460.039245 153.274463 
L 466.233962 151.840724 
L 472.754717 149.834946 
L 473.406792 149.969742 
L 473.895849 150.203914 
L 475.036981 151.101149 
L 475.852075 151.624077 
L 476.66717 151.897631 
L 477.971321 152.069184 
L 481.720755 152.178137 
L 482.698868 152.173311 
L 490.034717 152.215722 
L 491.827925 152.213269 
L 501.772075 152.343074 
L 510.249057 152.6338 
L 517.421887 152.997014 
L 518.563019 153.052753 
L 520.193208 153.131536 
L 526.224906 153.430961 
L 532.74566 153.671163 
L 547.743396 153.875711 
L 554.101132 153.914705 
L 555.079245 153.91645 
L 568.609811 153.983993 
L 569.913962 153.845321 
L 570.729057 153.588032 
L 571.70717 152.832823 
L 572.685283 151.691584 
L 574.152453 150.057087 
L 576.760755 147.358577 
L 578.227925 145.472139 
L 580.836226 141.960102 
L 581.488302 141.480859 
L 582.140377 141.276089 
L 587.356981 140.627057 
L 588.498113 140.875105 
L 589.150189 141.178249 
L 589.802264 141.699075 
L 590.45434 142.574795 
L 591.106415 143.945902 
L 592.410566 147.853554 
L 593.388679 150.452343 
L 594.366792 152.411321 
L 595.344906 153.967254 
L 596.975094 156.050863 
L 598.442264 157.543458 
L 600.398491 159.484453 
L 601.86566 161.515742 
L 602.680755 162.448215 
L 603.33283 162.89341 
L 604.147925 163.177841 
L 605.452075 163.290427 
L 607.897358 163.221567 
L 609.038491 163.049834 
L 609.690566 162.747851 
L 610.342642 162.137424 
L 610.994717 161.131074 
L 612.787925 158.029377 
L 613.44 157.400966 
L 614.255094 156.916453 
L 615.396226 156.520585 
L 617.189434 156.159043 
L 619.960755 155.856877 
L 623.058113 155.752132 
L 626.318491 155.857721 
L 630.067925 156.208043 
L 642.946415 157.625096 
L 653.053585 158.274537 
L 662.019623 158.663387 
L 671.474717 158.843492 
L 684.353208 158.845112 
L 777.763019 158.361865 
L 777.763019 158.361865 
" style="fill:none;stroke:#2ca02c;stroke-linecap:square;stroke-width:2;"/>
   </g>
   <g id="line2d_28">
    <path clip-path="url(#pa8b1511fbe)" d="M 451.562264 158.089488 
L 777.6 158.089488 
" style="fill:none;stroke:#000000;stroke-dasharray:3.2,0.8,0.5,0.8;stroke-dashoffset:0;stroke-width:0.5;"/>
   </g>
   <g id="line2d_29">
    <path clip-path="url(#pa8b1511fbe)" d="M 614.581132 207.771429 
L 614.581132 43.2 
" style="fill:none;stroke:#000000;stroke-linecap:square;stroke-width:0.5;"/>
   </g>
   <g id="line2d_30">
    <path clip-path="url(#pa8b1511fbe)" d="M 647.184906 207.771429 
L 647.184906 43.2 
" style="fill:none;stroke:#000000;stroke-dasharray:6.4,1.6,1,1.6;stroke-dashoffset:0;stroke-opacity:0.25;"/>
   </g>
   <g id="line2d_31">
    <path clip-path="url(#pa8b1511fbe)" d="M 679.788679 207.771429 
L 679.788679 43.2 
" style="fill:none;stroke:#000000;stroke-dasharray:6.4,1.6,1,1.6;stroke-dashoffset:0;stroke-opacity:0.25;"/>
   </g>
   <g id="line2d_32">
    <path clip-path="url(#pa8b1511fbe)" d="M 712.392453 207.771429 
L 712.392453 43.2 
" style="fill:none;stroke:#000000;stroke-dasharray:6.4,1.6,1,1.6;stroke-dashoffset:0;stroke-opacity:0.25;"/>
   </g>
   <g id="patch_8">
    <path d="M 451.562264 207.771429 
L 451.562264 43.2 
" style="fill:none;stroke:#000000;stroke-linecap:square;stroke-linejoin:miter;stroke-width:0.8;"/>
   </g>
   <g id="patch_9">
    <path d="M 777.6 207.771429 
L 777.6 43.2 
" style="fill:none;stroke:#000000;stroke-linecap:square;stroke-linejoin:miter;stroke-width:0.8;"/>
   </g>
   <g id="patch_10">
    <path d="M 451.562264 207.771429 
L 777.6 207.771429 
" style="fill:none;stroke:#000000;stroke-linecap:square;stroke-linejoin:miter;stroke-width:0.8;"/>
   </g>
   <g id="patch_11">
    <path d="M 451.562264 43.2 
L 777.6 43.2 
" style="fill:none;stroke:#000000;stroke-linecap:square;stroke-linejoin:miter;stroke-width:0.8;"/>
   </g>
   <g id="text_6">
    <!-- $Re = 10^2$ -->
    <defs>
     <path d="M 13.203125 65.296875 
L 38.40625 65.296875 
Q 48.09375 65.296875 53.4375 61.5 
Q 58.796875 57.703125 58.796875 51.203125 
Q 58.796875 43.40625 52.203125 38.40625 
Q 48.296875 35.40625 39.09375 33.296875 
L 48 9.796875 
Q 49.703125 5.203125 51.546875 3.390625 
Q 53.40625 1.59375 56.703125 1.59375 
L 56.703125 0 
L 42 0 
L 29.703125 32.40625 
L 23.09375 32.90625 
L 17.59375 12.59375 
Q 16.296875 8 16.296875 6.296875 
Q 16.296875 4 17.59375 3 
Q 18.90625 2 23 1.59375 
L 23 0 
L -1.296875 0 
L -1.296875 1.59375 
Q 2.703125 2.09375 4.34375 3.796875 
Q 6 5.5 7.203125 10.09375 
L 19.09375 53.203125 
Q 20.296875 57.796875 20.296875 59.5 
Q 20.296875 61.296875 18.90625 62.296875 
Q 17.703125 63.09375 13.203125 63.703125 
z
M 30.59375 59.296875 
L 24.296875 36.59375 
Q 27.40625 36.09375 29.40625 36.09375 
Q 38.296875 36.09375 43.296875 40.09375 
Q 48.296875 44.09375 48.296875 51.09375 
Q 48.296875 56.296875 45.1875 59.296875 
Q 42.09375 62.296875 36.296875 62.296875 
Q 31.40625 62.296875 30.59375 59.296875 
z
" id="STIXGeneral-Italic-82"/>
     <path d="M 35.796875 10.90625 
L 37 9.703125 
Q 28.203125 -1.09375 16.59375 -1.09375 
Q 10.5 -1.09375 6.796875 2.65625 
Q 3.09375 6.40625 3.09375 12.59375 
Q 3.09375 24.296875 12.4375 34.1875 
Q 21.796875 44.09375 33 44.09375 
Q 36.90625 44.09375 39.046875 42.296875 
Q 41.203125 40.5 41.203125 37.296875 
Q 41.203125 30.703125 33.546875 25.5 
Q 25.90625 20.296875 12.796875 18.59375 
Q 11.796875 16.59375 11.796875 12.5 
Q 11.796875 8.40625 14.34375 5.90625 
Q 16.90625 3.40625 21.09375 3.40625 
Q 24.40625 3.40625 27.40625 4.953125 
Q 30.40625 6.5 35.796875 10.90625 
z
M 15.203125 25.203125 
L 13.5 20.796875 
Q 24.703125 23.5 29.59375 28.203125 
Q 34.59375 33 34.59375 37.90625 
Q 34.59375 41.796875 31.09375 41.796875 
Q 26.90625 41.796875 22.34375 36.9375 
Q 17.796875 32.09375 15.203125 25.203125 
z
" id="STIXGeneral-Italic-101"/>
     <path d="M 63.703125 32 
L 4.796875 32 
L 4.796875 38.59375 
L 63.703125 38.59375 
z
M 63.703125 12 
L 4.796875 12 
L 4.796875 18.59375 
L 63.703125 18.59375 
z
" id="STIXGeneral-Regular-61"/>
    </defs>
    <g transform="translate(817.474971 133.416213)scale(0.19 -0.19)">
     <use transform="translate(0 0.409375)" xlink:href="#STIXGeneral-Italic-82"/>
     <use transform="translate(61.099991 0.409375)" xlink:href="#STIXGeneral-Italic-101"/>
     <use transform="translate(119.939981 0.409375)" xlink:href="#STIXGeneral-Regular-61"/>
     <use transform="translate(202.879962 0.409375)" xlink:href="#STIXGeneral-Regular-49"/>
     <use transform="translate(252.879947 0.409375)" xlink:href="#STIXGeneral-Regular-48"/>
     <use transform="translate(304.423213 35.684375)scale(0.7)" xlink:href="#STIXGeneral-Regular-50"/>
    </g>
   </g>
   <g id="legend_1">
    <g id="line2d_33">
     <path d="M 257.839707 30.069464 
L 289.493707 30.069464 
" style="fill:none;stroke:#1f77b4;stroke-linecap:square;stroke-width:2;"/>
    </g>
    <g id="line2d_34"/>
    <g id="text_7">
     <!-- $s/c = 1.5$ -->
     <defs>
      <path d="M 36.59375 44.203125 
L 34.59375 30.203125 
L 33 30.203125 
Q 31.59375 41.796875 24.09375 41.796875 
Q 21.40625 41.796875 19.796875 40.296875 
Q 18.203125 38.796875 18.203125 36.09375 
Q 18.203125 32.296875 23.59375 25.90625 
Q 30.40625 18 30.40625 12.296875 
Q 30.40625 6.203125 26.34375 2.546875 
Q 22.296875 -1.09375 16 -1.09375 
Q 13.09375 -1.09375 10.5 -0.09375 
Q 8.40625 0.796875 6.09375 0.796875 
Q 4.09375 0.796875 3.203125 -1.296875 
L 1.59375 -1.296875 
L 3.59375 14.59375 
L 5.203125 14.59375 
Q 7.203125 1 15.203125 1 
Q 18.796875 1 20.796875 3 
Q 22.796875 5 22.796875 8.703125 
Q 22.796875 13.203125 17.203125 20.203125 
Q 10.90625 28.09375 10.90625 33.296875 
Q 10.90625 38.296875 14.203125 41.1875 
Q 17.5 44.09375 23 44.09375 
Q 25 44.09375 28.59375 43.09375 
Q 30.796875 42.40625 32.203125 42.40625 
Q 34.203125 42.40625 35.203125 44.203125 
z
" id="STIXGeneral-Italic-115"/>
      <path d="M 28.703125 67.59375 
L 5.90625 -1.40625 
L -0.90625 -1.40625 
L 22 67.59375 
z
" id="STIXGeneral-Regular-47"/>
      <path d="M 35 10.703125 
L 36.59375 9.703125 
Q 32 3.90625 27.640625 1.40625 
Q 23.296875 -1.09375 17.703125 -1.09375 
Q 10.59375 -1.09375 6.796875 2.796875 
Q 3 6.703125 3 14.296875 
Q 3 21 6.390625 27.25 
Q 9.796875 33.5 15.296875 38 
Q 23 44.09375 32 44.09375 
Q 36.59375 44.09375 39.546875 41.796875 
Q 42.5 39.5 42.5 36 
Q 42.5 34 41.09375 32.59375 
Q 39.703125 31.203125 37.703125 31.203125 
Q 35.703125 31.203125 34.75 32.34375 
Q 33.796875 33.5 33.796875 35.203125 
Q 33.796875 36.09375 34.546875 37.546875 
Q 35.296875 39 35.296875 40 
Q 35.296875 42 31.59375 42 
Q 25.296875 42 20.703125 37.203125 
Q 11.59375 27.59375 11.59375 13.90625 
Q 11.59375 8.5 13.890625 5.5 
Q 16.203125 2.5 20.5 2.5 
Q 24.40625 2.5 27.59375 4.390625 
Q 30.796875 6.296875 35 10.703125 
z
" id="STIXGeneral-Italic-99"/>
      <path d="M 18.09375 4.296875 
Q 18.09375 2.09375 16.4375 0.5 
Q 14.796875 -1.09375 12.5 -1.09375 
Q 10.203125 -1.09375 8.59375 0.5 
Q 7 2.09375 7 4.390625 
Q 7 6.703125 8.640625 8.34375 
Q 10.296875 10 12.59375 10 
Q 14.796875 10 16.4375 8.296875 
Q 18.09375 6.59375 18.09375 4.296875 
z
" id="STIXGeneral-Regular-46"/>
     </defs>
     <g transform="translate(302.155307 35.608914)scale(0.15827 -0.15827)">
      <use transform="translate(0 0.203125)" xlink:href="#STIXGeneral-Italic-115"/>
      <use transform="translate(38.899994 0.203125)" xlink:href="#STIXGeneral-Regular-47"/>
      <use transform="translate(66.699982 0.203125)" xlink:href="#STIXGeneral-Italic-99"/>
      <use transform="translate(125.539972 0.203125)" xlink:href="#STIXGeneral-Regular-61"/>
      <use transform="translate(208.479953 0.203125)" xlink:href="#STIXGeneral-Regular-49"/>
      <use transform="translate(258.479938 0.203125)" xlink:href="#STIXGeneral-Regular-46"/>
      <use transform="translate(283.479922 0.203125)" xlink:href="#STIXGeneral-Regular-53"/>
     </g>
    </g>
    <g id="line2d_35">
     <path d="M 386.671487 30.069464 
L 418.325487 30.069464 
" style="fill:none;stroke:#ff7f0e;stroke-linecap:square;stroke-width:2;"/>
    </g>
    <g id="line2d_36"/>
    <g id="text_8">
     <!-- $s/c = 3.0$ -->
     <defs>
      <path d="M 6.09375 51 
L 4.5 51.40625 
Q 6.796875 58.90625 11.6875 63.25 
Q 16.59375 67.59375 24.09375 67.59375 
Q 31.09375 67.59375 35.390625 63.796875 
Q 39.703125 60 39.703125 53.90625 
Q 39.703125 45.703125 30.40625 40.09375 
Q 35.90625 37.703125 38.703125 34.796875 
Q 43.09375 29.90625 43.09375 21.90625 
Q 43.09375 13.90625 38.5 7.90625 
Q 35.09375 3.296875 28.75 0.9375 
Q 22.40625 -1.40625 15.296875 -1.40625 
Q 4.09375 -1.40625 4.09375 4.296875 
Q 4.09375 5.90625 5.296875 6.90625 
Q 6.5 7.90625 8.203125 7.90625 
Q 10.703125 7.90625 14.296875 5.296875 
Q 18.703125 2.203125 22.90625 2.203125 
Q 28.40625 2.203125 32.15625 6.640625 
Q 35.90625 11.09375 35.90625 17.5 
Q 35.90625 29 25.5 32 
Q 22.40625 33 15.296875 33 
L 15.296875 34.40625 
Q 20.90625 36.296875 23.703125 38 
Q 31.796875 42.59375 31.796875 51.40625 
Q 31.796875 56.40625 28.9375 59 
Q 26.09375 61.59375 21 61.59375 
Q 12 61.59375 6.09375 51 
z
" id="STIXGeneral-Regular-51"/>
     </defs>
     <g transform="translate(430.987087 35.608914)scale(0.15827 -0.15827)">
      <use transform="translate(0 0.40625)" xlink:href="#STIXGeneral-Italic-115"/>
      <use transform="translate(38.899994 0.40625)" xlink:href="#STIXGeneral-Regular-47"/>
      <use transform="translate(66.699982 0.40625)" xlink:href="#STIXGeneral-Italic-99"/>
      <use transform="translate(125.539972 0.40625)" xlink:href="#STIXGeneral-Regular-61"/>
      <use transform="translate(208.479953 0.40625)" xlink:href="#STIXGeneral-Regular-51"/>
      <use transform="translate(258.479938 0.40625)" xlink:href="#STIXGeneral-Regular-46"/>
      <use transform="translate(283.479922 0.40625)" xlink:href="#STIXGeneral-Regular-48"/>
     </g>
    </g>
    <g id="line2d_37">
     <path d="M 515.503267 30.069464 
L 547.157267 30.069464 
" style="fill:none;stroke:#2ca02c;stroke-linecap:square;stroke-width:2;"/>
    </g>
    <g id="line2d_38"/>
    <g id="text_9">
     <!-- $s/c = 6.0$ -->
     <defs>
      <path d="M 44.59375 68.40625 
L 44.796875 66.796875 
Q 33 64.90625 25.09375 57.25 
Q 17.203125 49.59375 15.203125 38.296875 
Q 21 42.796875 27.90625 42.796875 
Q 36.703125 42.796875 41.75 37.1875 
Q 46.796875 31.59375 46.796875 21.90625 
Q 46.796875 12.09375 41.703125 5.90625 
Q 35.796875 -1.40625 25.796875 -1.40625 
Q 13.59375 -1.40625 8.09375 8.703125 
Q 3.40625 17.296875 3.40625 27.90625 
Q 3.40625 44.296875 14.296875 55.5 
Q 20.5 61.90625 27.046875 64.546875 
Q 33.59375 67.203125 44.59375 68.40625 
z
M 37.796875 18.796875 
Q 37.796875 38.203125 24.296875 38.203125 
Q 19.296875 38.203125 16 35.546875 
Q 12.703125 32.90625 12.703125 26.59375 
Q 12.703125 14.90625 16.34375 8.15625 
Q 20 1.40625 26.90625 1.40625 
Q 32.203125 1.40625 35 6.15625 
Q 37.796875 10.90625 37.796875 18.796875 
z
" id="STIXGeneral-Regular-54"/>
     </defs>
     <g transform="translate(559.818867 35.608914)scale(0.15827 -0.15827)">
      <use transform="translate(0 0.59375)" xlink:href="#STIXGeneral-Italic-115"/>
      <use transform="translate(38.899994 0.59375)" xlink:href="#STIXGeneral-Regular-47"/>
      <use transform="translate(66.699982 0.59375)" xlink:href="#STIXGeneral-Italic-99"/>
      <use transform="translate(125.539972 0.59375)" xlink:href="#STIXGeneral-Regular-61"/>
      <use transform="translate(208.479953 0.59375)" xlink:href="#STIXGeneral-Regular-54"/>
      <use transform="translate(258.479938 0.59375)" xlink:href="#STIXGeneral-Regular-46"/>
      <use transform="translate(283.479922 0.59375)" xlink:href="#STIXGeneral-Regular-48"/>
     </g>
    </g>
   </g>
  </g>
  <g id="axes_3">
   <g id="patch_12">
    <path d="M 86.4 388.8 
L 412.437736 388.8 
L 412.437736 224.228571 
L 86.4 224.228571 
z
" style="fill:#ffffff;"/>
   </g>
   <g id="matplotlib.axis_5">
    <g id="xtick_11">
     <g id="line2d_39">
      <g>
       <use style="fill:#ffffff;stroke:#000000;stroke-width:0.8;" x="86.4" xlink:href="#mae83ba4d5e" y="388.8"/>
      </g>
     </g>
     <g id="text_10">
      <!-- 0.0 -->
      <g transform="translate(74.525 408.776406)scale(0.19 -0.19)">
       <use xlink:href="#STIXGeneral-Regular-48"/>
       <use x="49.999985" xlink:href="#STIXGeneral-Regular-46"/>
       <use x="74.999969" xlink:href="#STIXGeneral-Regular-48"/>
      </g>
     </g>
    </g>
    <g id="xtick_12">
     <g id="line2d_40">
      <g>
       <use style="fill:#ffffff;stroke:#000000;stroke-width:0.8;" x="167.909434" xlink:href="#mae83ba4d5e" y="388.8"/>
      </g>
     </g>
     <g id="text_11">
      <!-- 0.5 -->
      <g transform="translate(156.034434 408.776406)scale(0.19 -0.19)">
       <use xlink:href="#STIXGeneral-Regular-48"/>
       <use x="49.999985" xlink:href="#STIXGeneral-Regular-46"/>
       <use x="74.999969" xlink:href="#STIXGeneral-Regular-53"/>
      </g>
     </g>
    </g>
    <g id="xtick_13">
     <g id="line2d_41">
      <g>
       <use style="fill:#ffffff;stroke:#000000;stroke-width:0.8;" x="249.418868" xlink:href="#mae83ba4d5e" y="388.8"/>
      </g>
     </g>
     <g id="text_12">
      <!-- 1.0 -->
      <g transform="translate(237.543868 408.776406)scale(0.19 -0.19)">
       <use xlink:href="#STIXGeneral-Regular-49"/>
       <use x="49.999985" xlink:href="#STIXGeneral-Regular-46"/>
       <use x="74.999969" xlink:href="#STIXGeneral-Regular-48"/>
      </g>
     </g>
    </g>
    <g id="xtick_14">
     <g id="line2d_42">
      <g>
       <use style="fill:#ffffff;stroke:#000000;stroke-width:0.8;" x="330.928302" xlink:href="#mae83ba4d5e" y="388.8"/>
      </g>
     </g>
     <g id="text_13">
      <!-- 1.5 -->
      <g transform="translate(319.053302 408.776406)scale(0.19 -0.19)">
       <use xlink:href="#STIXGeneral-Regular-49"/>
       <use x="49.999985" xlink:href="#STIXGeneral-Regular-46"/>
       <use x="74.999969" xlink:href="#STIXGeneral-Regular-53"/>
      </g>
     </g>
    </g>
    <g id="xtick_15">
     <g id="line2d_43">
      <g>
       <use style="fill:#ffffff;stroke:#000000;stroke-width:0.8;" x="412.437736" xlink:href="#mae83ba4d5e" y="388.8"/>
      </g>
     </g>
     <g id="text_14">
      <!-- 2.0 -->
      <g transform="translate(400.562736 408.776406)scale(0.19 -0.19)">
       <use xlink:href="#STIXGeneral-Regular-50"/>
       <use x="49.999985" xlink:href="#STIXGeneral-Regular-46"/>
       <use x="74.999969" xlink:href="#STIXGeneral-Regular-48"/>
      </g>
     </g>
    </g>
    <g id="text_15">
     <!-- $\^t$ -->
     <defs>
      <path d="M -7.5 50.703125 
L -10.90625 50.703125 
L -23.09375 61 
L -35.203125 50.703125 
L -38.59375 50.703125 
L -26.203125 67.40625 
L -20 67.40625 
z
" id="STIXGeneral-Regular-770"/>
      <path d="M 29.59375 42.796875 
L 29.09375 39.59375 
L 20.703125 39.59375 
L 12 6.796875 
Q 11.796875 6 11.796875 5.40625 
Q 11.796875 3.796875 13.296875 3.796875 
Q 14.5 3.796875 16.09375 5.34375 
Q 17.703125 6.90625 21.40625 11.703125 
L 22.703125 11 
Q 18.09375 4 15.140625 1.453125 
Q 12.203125 -1.09375 8.40625 -1.09375 
Q 3.796875 -1.09375 3.796875 2.59375 
Q 3.796875 3.59375 5.40625 10 
L 13.203125 39.59375 
L 5.703125 39.59375 
L 5.59375 40.203125 
Q 5.59375 42 8.90625 42.703125 
Q 11.40625 43.296875 15.5 46.546875 
Q 19.59375 49.796875 22.203125 53.703125 
Q 22.796875 54.59375 23.59375 54.59375 
Q 24.5 54.59375 24.5 53.796875 
Q 24.5 53.296875 24.40625 53.09375 
L 21.59375 42.796875 
z
" id="STIXGeneral-Italic-116"/>
     </defs>
     <g transform="translate(246.758868 429.876406)scale(0.19 -0.19)">
      <use transform="translate(39.042969 16.59375)" xlink:href="#STIXGeneral-Regular-770"/>
      <use transform="translate(0 0.203125)" xlink:href="#STIXGeneral-Italic-116"/>
     </g>
    </g>
   </g>
   <g id="matplotlib.axis_6">
    <g id="ytick_7">
     <g id="line2d_44">
      <g>
       <use style="fill:#ffffff;stroke:#000000;stroke-width:0.8;" x="86.4" xlink:href="#m43206a2f35" y="354.643666"/>
      </g>
     </g>
     <g id="text_16">
      <!-- −5 -->
      <g transform="translate(56.885 361.131869)scale(0.19 -0.19)">
       <use xlink:href="#STIXGeneral-Regular-8722"/>
       <use x="68.499985" xlink:href="#STIXGeneral-Regular-53"/>
      </g>
     </g>
    </g>
    <g id="ytick_8">
     <g id="line2d_45">
      <g>
       <use style="fill:#ffffff;stroke:#000000;stroke-width:0.8;" x="86.4" xlink:href="#m43206a2f35" y="308.066846"/>
      </g>
     </g>
     <g id="text_17">
      <!-- 10 -->
      <g transform="translate(60.4 314.555049)scale(0.19 -0.19)">
       <use xlink:href="#STIXGeneral-Regular-49"/>
       <use x="49.999985" xlink:href="#STIXGeneral-Regular-48"/>
      </g>
     </g>
    </g>
    <g id="ytick_9">
     <g id="line2d_46">
      <g>
       <use style="fill:#ffffff;stroke:#000000;stroke-width:0.8;" x="86.4" xlink:href="#m43206a2f35" y="261.490027"/>
      </g>
     </g>
     <g id="text_18">
      <!-- 25 -->
      <g transform="translate(60.4 267.97823)scale(0.19 -0.19)">
       <use xlink:href="#STIXGeneral-Regular-50"/>
       <use x="49.999985" xlink:href="#STIXGeneral-Regular-53"/>
      </g>
     </g>
    </g>
    <g id="text_19">
     <!-- $C_l$ -->
     <g transform="translate(48.761406 315.159286)rotate(-90)scale(0.19 -0.19)">
      <use transform="translate(0 0.40625)" xlink:href="#STIXGeneral-Italic-67"/>
      <use transform="translate(66.699997 -12.821875)scale(0.7)" xlink:href="#STIXGeneral-Italic-108"/>
     </g>
    </g>
   </g>
   <g id="line2d_47">
    <path clip-path="url(#pfb8d857041)" d="M 86.889057 338.784273 
L 87.86717 337.921132 
L 88.356226 337.094865 
L 88.845283 335.861416 
L 89.660377 332.99902 
L 90.638491 329.629788 
L 91.290566 328.205905 
L 91.942642 327.394189 
L 92.594717 326.956817 
L 93.409811 326.675945 
L 95.04 326.406116 
L 98.626415 325.845216 
L 100.256604 325.438658 
L 102.21283 324.745133 
L 104.332075 323.735247 
L 106.288302 322.853675 
L 106.940377 322.805737 
L 107.429434 323.00277 
L 107.755472 323.300882 
L 108.244528 324.092775 
L 108.733585 325.321016 
L 110.526792 330.538553 
L 111.178868 331.46152 
L 111.830943 331.92175 
L 112.646038 332.173403 
L 114.113208 332.317368 
L 119.329811 332.356661 
L 137.587925 332.323782 
L 200.676226 332.307117 
L 203.284528 331.90198 
L 203.773585 331.569154 
L 204.262642 330.966654 
L 204.751698 329.908059 
L 205.240755 328.111768 
L 205.729811 325.210502 
L 206.218868 320.848573 
L 206.870943 312.960215 
L 208.012075 298.75282 
L 208.664151 293.594425 
L 209.153208 291.211365 
L 209.805283 289.195337 
L 210.946415 286.051648 
L 211.924528 282.148325 
L 213.391698 275.977529 
L 214.206792 273.422563 
L 214.53283 272.84845 
L 214.858868 272.696385 
L 215.021887 272.772387 
L 215.347925 273.337502 
L 215.673962 274.475847 
L 216.163019 277.428485 
L 216.815094 283.242234 
L 218.119245 295.729221 
L 218.93434 301.401412 
L 220.075472 307.656353 
L 224.966038 331.461535 
L 226.270189 337.321825 
L 227.248302 340.733245 
L 228.226415 343.258454 
L 229.367547 345.556963 
L 230.508679 347.370299 
L 231.486792 348.578028 
L 232.464906 349.483761 
L 233.116981 349.861738 
L 233.606038 349.926391 
L 233.932075 349.800539 
L 234.258113 349.470384 
L 234.584151 348.867433 
L 234.910189 347.883964 
L 235.399245 345.454065 
L 235.888302 341.701346 
L 236.703396 333.153292 
L 237.681509 323.259863 
L 238.333585 318.635212 
L 238.98566 315.388105 
L 239.637736 313.058318 
L 240.45283 310.930551 
L 241.267925 309.472879 
L 242.083019 308.531899 
L 242.735094 308.083618 
L 243.38717 307.937031 
L 243.876226 308.066112 
L 244.202264 308.420107 
L 244.691321 309.720576 
L 245.017358 311.352748 
L 245.506415 315.40913 
L 246.158491 323.125961 
L 247.136604 335.676585 
L 247.788679 341.027064 
L 248.440755 344.290422 
L 248.929811 345.829495 
L 249.581887 346.939265 
L 250.233962 347.499099 
L 252.679245 348.349225 
L 254.798491 347.78147 
L 255.776604 347.160226 
L 259.363019 344.158327 
L 260.178113 343.721714 
L 264.253585 342.024294 
L 273.54566 338.783404 
L 276.153962 338.280619 
L 280.555472 337.796474 
L 282.674717 337.59414 
L 283.65283 337.509985 
L 287.076226 337.334984 
L 289.358491 337.344159 
L 293.923019 337.577588 
L 295.22717 337.682126 
L 312.670189 338.923613 
L 317.397736 339.060499 
L 343.480755 339.683536 
L 346.741132 339.811635 
L 359.293585 340.181254 
L 371.193962 340.246621 
L 383.257358 340.046056 
L 393.690566 339.938415 
L 406.406038 340.093431 
L 412.600755 340.179082 
L 412.600755 340.179082 
" style="fill:none;stroke:#1f77b4;stroke-linecap:square;stroke-width:2;"/>
   </g>
   <g id="line2d_48">
    <path clip-path="url(#pfb8d857041)" d="M 86.889057 338.949577 
L 88.030189 338.396774 
L 88.682264 337.708551 
L 89.33434 336.652864 
L 90.801509 334.109793 
L 91.453585 333.468049 
L 92.10566 333.104947 
L 93.083774 332.837913 
L 95.529057 332.523451 
L 97.97434 332.092432 
L 99.930566 331.519609 
L 102.049811 330.644638 
L 104.658113 329.313661 
L 106.61434 328.369503 
L 107.429434 328.231325 
L 107.918491 328.34758 
L 108.407547 328.681807 
L 109.059623 329.460175 
L 110.200755 331.029875 
L 110.85283 331.586148 
L 111.667925 331.939916 
L 113.298113 332.158587 
L 117.210566 332.285382 
L 119.003774 332.31091 
L 126.991698 332.332241 
L 159.758491 332.31838 
L 174.756226 332.451124 
L 175.897358 332.465951 
L 182.744151 332.613643 
L 203.936604 333.28499 
L 204.588679 333.054882 
L 205.077736 332.694442 
L 205.566792 332.11156 
L 206.055849 331.174997 
L 206.707925 329.36341 
L 208.175094 324.968608 
L 208.82717 323.836891 
L 209.642264 322.973248 
L 210.946415 321.680574 
L 214.206792 317.809221 
L 214.695849 317.573555 
L 215.184906 317.602629 
L 215.510943 317.802033 
L 216 318.45851 
L 216.652075 319.921735 
L 218.771321 325.411441 
L 220.401509 328.608001 
L 225.944151 338.772478 
L 226.759245 339.866145 
L 227.57434 340.581028 
L 228.389434 341.007925 
L 229.530566 341.316634 
L 230.671698 341.374868 
L 231.81283 341.190751 
L 232.953962 340.737658 
L 233.769057 340.182368 
L 234.421132 339.49733 
L 235.073208 338.434677 
L 235.725283 336.808346 
L 236.540377 333.984014 
L 237.844528 329.438925 
L 238.659623 327.40443 
L 239.474717 325.858959 
L 240.615849 324.222533 
L 241.593962 323.192683 
L 242.572075 322.460285 
L 243.38717 322.132683 
L 244.039245 322.134634 
L 244.528302 322.385651 
L 245.017358 322.978114 
L 245.506415 323.985253 
L 246.158491 326.031871 
L 247.462642 330.230565 
L 247.951698 331.15125 
L 248.440755 331.703448 
L 249.09283 332.029992 
L 249.744906 332.09853 
L 250.886038 331.917549 
L 252.842264 331.544565 
L 257.080755 331.16283 
L 259.689057 331.147165 
L 261.808302 331.391801 
L 265.557736 332.346603 
L 269.30717 333.694928 
L 272.404528 334.832771 
L 276.969057 336.244459 
L 279.740377 336.915626 
L 282.837736 337.526724 
L 285.935094 337.989794 
L 290.173585 338.452953 
L 295.553208 338.824476 
L 297.672453 338.925423 
L 308.10566 339.207105 
L 318.375849 339.327539 
L 365.977358 339.56458 
L 389.778113 339.609296 
L 412.600755 339.640688 
L 412.600755 339.640688 
" style="fill:none;stroke:#ff7f0e;stroke-linecap:square;stroke-width:2;"/>
   </g>
   <g id="line2d_49">
    <path clip-path="url(#pfb8d857041)" d="M 86.889057 339.032836 
L 88.193208 338.68393 
L 89.008302 338.159991 
L 91.290566 336.313483 
L 92.268679 336.019876 
L 94.224906 335.770462 
L 96.670189 335.39482 
L 98.626415 334.871729 
L 100.74566 334.092852 
L 103.353962 332.905414 
L 107.755472 330.858318 
L 108.407547 330.879987 
L 109.222642 331.216996 
L 110.689811 331.924769 
L 111.830943 332.142246 
L 114.113208 332.274866 
L 119.329811 332.344413 
L 121.775094 332.332896 
L 138.076981 332.442519 
L 144.597736 332.737814 
L 150.955472 333.267952 
L 156.172075 333.898251 
L 162.529811 334.904522 
L 169.213585 336.096794 
L 171.33283 336.193633 
L 175.408302 335.834722 
L 177.853585 335.431774 
L 182.90717 334.681896 
L 186.656604 334.379048 
L 195.78566 334.454401 
L 200.18717 334.681904 
L 204.588679 334.445133 
L 205.403774 334.153099 
L 206.055849 333.726414 
L 206.870943 332.885539 
L 210.131321 328.941909 
L 212.413585 326.527084 
L 213.717736 325.478616 
L 214.53283 325.039326 
L 215.184906 324.882259 
L 215.836981 324.971481 
L 216.489057 325.32999 
L 217.46717 326.230778 
L 219.586415 328.606334 
L 221.542642 331.137376 
L 226.759245 338.098114 
L 227.737358 338.906869 
L 228.878491 339.537118 
L 230.019623 339.927479 
L 231.323774 340.127835 
L 232.790943 340.097989 
L 234.258113 339.852099 
L 235.236226 339.506394 
L 236.21434 338.918622 
L 237.518491 338.091013 
L 238.333585 337.833841 
L 239.311698 337.781556 
L 240.778868 338.009213 
L 242.572075 338.487198 
L 243.876226 338.994072 
L 244.528302 339.430578 
L 245.180377 340.114901 
L 245.995472 341.362207 
L 247.136604 343.101721 
L 247.788679 343.674553 
L 248.440755 343.95724 
L 249.418868 344.112342 
L 251.212075 344.145402 
L 252.842264 343.997331 
L 254.798491 343.547811 
L 257.243774 342.716376 
L 263.438491 340.236106 
L 264.90566 340.038923 
L 266.698868 340.032644 
L 272.730566 340.188556 
L 275.01283 339.960181 
L 277.295094 339.484816 
L 283.326792 338.047669 
L 285.609057 337.8479 
L 288.706415 337.864698 
L 295.716226 338.034924 
L 317.071698 337.904919 
L 355.055094 338.125427 
L 381.953208 338.212949 
L 412.600755 338.456776 
L 412.600755 338.456776 
" style="fill:none;stroke:#2ca02c;stroke-linecap:square;stroke-width:2;"/>
   </g>
   <g id="line2d_50">
    <path clip-path="url(#pfb8d857041)" d="M 86.4 339.118059 
L 412.437736 339.118059 
" style="fill:none;stroke:#000000;stroke-dasharray:3.2,0.8,0.5,0.8;stroke-dashoffset:0;stroke-width:0.5;"/>
   </g>
   <g id="line2d_51">
    <path clip-path="url(#pfb8d857041)" d="M 249.418868 388.8 
L 249.418868 224.228571 
" style="fill:none;stroke:#000000;stroke-linecap:square;stroke-width:0.5;"/>
   </g>
   <g id="line2d_52">
    <path clip-path="url(#pfb8d857041)" d="M 282.022642 388.8 
L 282.022642 224.228571 
" style="fill:none;stroke:#000000;stroke-dasharray:6.4,1.6,1,1.6;stroke-dashoffset:0;stroke-opacity:0.25;"/>
   </g>
   <g id="line2d_53">
    <path clip-path="url(#pfb8d857041)" d="M 314.626415 388.8 
L 314.626415 224.228571 
" style="fill:none;stroke:#000000;stroke-dasharray:6.4,1.6,1,1.6;stroke-dashoffset:0;stroke-opacity:0.25;"/>
   </g>
   <g id="line2d_54">
    <path clip-path="url(#pfb8d857041)" d="M 347.230189 388.8 
L 347.230189 224.228571 
" style="fill:none;stroke:#000000;stroke-dasharray:6.4,1.6,1,1.6;stroke-dashoffset:0;stroke-opacity:0.25;"/>
   </g>
   <g id="patch_13">
    <path d="M 86.4 388.8 
L 86.4 224.228571 
" style="fill:none;stroke:#000000;stroke-linecap:square;stroke-linejoin:miter;stroke-width:0.8;"/>
   </g>
   <g id="patch_14">
    <path d="M 412.437736 388.8 
L 412.437736 224.228571 
" style="fill:none;stroke:#000000;stroke-linecap:square;stroke-linejoin:miter;stroke-width:0.8;"/>
   </g>
   <g id="patch_15">
    <path d="M 86.4 388.8 
L 412.437736 388.8 
" style="fill:none;stroke:#000000;stroke-linecap:square;stroke-linejoin:miter;stroke-width:0.8;"/>
   </g>
   <g id="patch_16">
    <path d="M 86.4 224.228571 
L 412.437736 224.228571 
" style="fill:none;stroke:#000000;stroke-linecap:square;stroke-linejoin:miter;stroke-width:0.8;"/>
   </g>
   <g id="text_20">
    <!-- Stroke motion -->
    <defs>
     <path d="M 46.90625 46.296875 
L 44.40625 46.296875 
Q 42.703125 52.5 40.296875 55.703125 
Q 34.203125 63.5 25.796875 63.5 
Q 21.203125 63.5 18.453125 60.84375 
Q 15.703125 58.203125 15.703125 54 
Q 15.703125 52 16.703125 50.09375 
Q 17.703125 48.203125 18.84375 46.84375 
Q 20 45.5 22.890625 43.5 
Q 25.796875 41.5 27.59375 40.453125 
Q 29.40625 39.40625 33.59375 36.90625 
Q 41.703125 32.203125 45.390625 27.546875 
Q 49.09375 22.90625 49.09375 17.296875 
Q 49.09375 9 43.296875 3.796875 
Q 37.5 -1.40625 28.703125 -1.40625 
Q 22.203125 -1.40625 16.90625 0.90625 
Q 14.296875 2 12.203125 2 
Q 11 2 10.203125 1.09375 
Q 9.40625 0.203125 9.40625 -1.296875 
L 7.203125 -1.296875 
L 4.296875 19.90625 
L 6.5 19.90625 
Q 13.203125 2.203125 27.09375 2.203125 
Q 32.40625 2.203125 35.703125 5.34375 
Q 39 8.5 39 13.40625 
Q 39 18.09375 36.09375 21.296875 
Q 31.296875 26.5 19.296875 32.90625 
Q 7.09375 39.40625 7.09375 50.09375 
Q 7.09375 58.09375 12 62.84375 
Q 16.90625 67.59375 24.5 67.59375 
Q 29.796875 67.59375 35 65.40625 
Q 37.703125 64.203125 39.40625 64.203125 
Q 42 64.203125 42.59375 67.59375 
L 44.703125 67.59375 
z
" id="STIXGeneral-Regular-83"/>
     <path d="M 26.59375 7.703125 
L 27.90625 6.59375 
Q 23.09375 -1 15.796875 -1 
Q 7 -1 7 11.703125 
L 7 41.796875 
L 1.703125 41.796875 
Q 1.296875 42.09375 1.296875 42.5 
Q 1.296875 43.296875 3 44.40625 
Q 6.796875 46.59375 12.703125 55.09375 
Q 12.90625 55.40625 13.65625 56.34375 
Q 14.40625 57.296875 14.703125 57.90625 
Q 15.40625 57.90625 15.40625 56.59375 
L 15.40625 45 
L 25.5 45 
L 25.5 41.796875 
L 15.40625 41.796875 
L 15.40625 13.203125 
Q 15.40625 8.40625 16.59375 6.296875 
Q 17.796875 4.203125 20.59375 4.203125 
Q 23.59375 4.203125 26.59375 7.703125 
z
" id="STIXGeneral-Regular-116"/>
     <path d="M 16 45.796875 
L 16 36.59375 
Q 19.796875 42 22.34375 44 
Q 24.90625 46 28 46 
Q 30.59375 46 32.046875 44.59375 
Q 33.5 43.203125 33.5 40.703125 
Q 33.5 38.59375 32.453125 37.390625 
Q 31.40625 36.203125 29.59375 36.203125 
Q 27.703125 36.203125 25.59375 38.203125 
Q 24 39.703125 23 39.703125 
Q 20.90625 39.703125 18.453125 36.796875 
Q 16 33.90625 16 31.5 
L 16 9 
Q 16 4.703125 17.703125 3.203125 
Q 19.40625 1.703125 24.5 1.5 
L 24.5 0 
L 0.5 0 
L 0.5 1.5 
Q 5.296875 2.40625 6.4375 3.5 
Q 7.59375 4.59375 7.59375 8.40625 
L 7.59375 33.40625 
Q 7.59375 36.703125 6.84375 38.046875 
Q 6.09375 39.40625 4.203125 39.40625 
Q 2.59375 39.40625 0.703125 39 
L 0.703125 40.59375 
Q 7 42.59375 15.5 46 
z
" id="STIXGeneral-Regular-114"/>
     <path d="M 47 23.09375 
Q 47 12.59375 40.75 5.796875 
Q 34.5 -1 24.5 -1 
Q 15.296875 -1 9.09375 5.75 
Q 2.90625 12.5 2.90625 22.796875 
Q 2.90625 33.203125 9.09375 39.59375 
Q 15.296875 46 25.40625 46 
Q 34.703125 46 40.84375 39.640625 
Q 47 33.296875 47 23.09375 
z
M 38 20.40625 
Q 38 31.796875 33 38.203125 
Q 29 43.203125 23.5 43.203125 
Q 18.296875 43.203125 15.09375 38.953125 
Q 11.90625 34.703125 11.90625 27.296875 
Q 11.90625 14.5 17.203125 6.796875 
Q 20.59375 1.796875 26.203125 1.796875 
Q 31.703125 1.796875 34.84375 6.75 
Q 38 11.703125 38 20.40625 
z
" id="STIXGeneral-Regular-111"/>
     <path d="M 50.5 0 
L 28.703125 0 
L 28.703125 1.5 
L 30.59375 1.5 
Q 32.703125 1.5 32.703125 3 
Q 32.703125 3.90625 31.59375 5.296875 
L 16.59375 25.09375 
L 16.59375 6.703125 
Q 16.59375 4.09375 17.84375 2.890625 
Q 19.09375 1.703125 22.09375 1.59375 
L 24.09375 1.5 
L 24.09375 0 
L 0.703125 0 
L 0.703125 1.5 
Q 6.09375 2.40625 7.140625 3.34375 
Q 8.203125 4.296875 8.203125 8.203125 
L 8.203125 56.40625 
Q 8.203125 60 7.296875 61.25 
Q 6.40625 62.5 3.90625 62.5 
Q 3.296875 62.5 0.703125 62.296875 
L 0.703125 63.90625 
L 3.703125 64.703125 
Q 9.703125 66.296875 16.203125 68.296875 
L 16.59375 68.09375 
L 16.59375 26.09375 
L 30.296875 38.296875 
Q 32.59375 40.40625 32.59375 41.796875 
Q 32.59375 42.796875 31.546875 43.140625 
Q 30.5 43.5 27.59375 43.59375 
L 27.59375 45 
L 48 45 
L 48 43.5 
Q 43 43.5 39.140625 41.34375 
Q 35.296875 39.203125 26.40625 30.90625 
L 23.5 28.203125 
L 38.796875 8.796875 
Q 44.203125 1.90625 50.5 1.5 
z
" id="STIXGeneral-Regular-107"/>
     <path d="M 40.796875 16.40625 
L 42.40625 15.703125 
Q 36.40625 -1 21.5 -1 
Q 12.703125 -1 7.59375 5.140625 
Q 2.5 11.296875 2.5 21.703125 
Q 2.5 32.40625 8.203125 39.203125 
Q 13.90625 46 23.203125 46 
Q 32.203125 46 37.09375 39.09375 
Q 40 35.09375 40.5 27.703125 
L 9.703125 27.703125 
Q 10.09375 21.40625 10.9375 18.09375 
Q 11.796875 14.796875 14.296875 11.40625 
Q 18.5 5.90625 25.40625 5.90625 
Q 30.296875 5.90625 33.640625 8.296875 
Q 37 10.703125 40.796875 16.40625 
z
M 9.90625 30.90625 
L 30.296875 30.90625 
Q 29.40625 37.203125 27.34375 39.796875 
Q 25.296875 42.40625 20.5 42.40625 
Q 16.296875 42.40625 13.5 39.453125 
Q 10.703125 36.5 9.90625 30.90625 
z
" id="STIXGeneral-Regular-101"/>
     <path id="STIXGeneral-Regular-32"/>
     <path d="M 77.5 0 
L 55.703125 0 
L 55.703125 1.5 
Q 59.90625 1.90625 61.046875 3.25 
Q 62.203125 4.59375 62.203125 9 
L 62.203125 29.59375 
Q 62.203125 35.59375 60.453125 38.1875 
Q 58.703125 40.796875 54.5 40.796875 
Q 51 40.796875 48.546875 39.390625 
Q 46.09375 38 43.796875 34.703125 
L 43.796875 9.5 
Q 43.796875 4.703125 45.25 3.140625 
Q 46.703125 1.59375 51 1.5 
L 51 0 
L 28.59375 0 
L 28.59375 1.5 
Q 33 1.796875 34.203125 2.9375 
Q 35.40625 4.09375 35.40625 8.59375 
L 35.40625 29.703125 
Q 35.40625 40.796875 28.90625 40.796875 
Q 26.09375 40.796875 22.9375 39.546875 
Q 19.796875 38.296875 18.296875 36.5 
Q 17 35 17 34.796875 
L 17 7 
Q 17 3.796875 18.390625 2.75 
Q 19.796875 1.703125 23.796875 1.5 
L 23.796875 0 
L 1.59375 0 
L 1.59375 1.5 
Q 5.796875 1.59375 7.1875 3.046875 
Q 8.59375 4.5 8.59375 8.796875 
L 8.59375 33.59375 
Q 8.59375 37.296875 7.796875 38.75 
Q 7 40.203125 5.09375 40.203125 
Q 3.59375 40.203125 1.90625 39.796875 
L 1.90625 41.5 
Q 8.703125 43.40625 15.796875 46 
L 16.59375 45.703125 
L 16.59375 38.296875 
L 16.796875 38.296875 
Q 21.296875 43 24.75 44.5 
Q 28.203125 46 32.09375 46 
Q 40 46 42.703125 37.59375 
Q 50.5 46 59 46 
Q 70.59375 46 70.59375 28 
L 70.59375 7.703125 
Q 70.59375 4.40625 71.59375 3.15625 
Q 72.59375 1.90625 74.90625 1.703125 
L 77.5 1.5 
z
" id="STIXGeneral-Regular-109"/>
     <path d="M 18 63.203125 
Q 18 61 16.5 59.546875 
Q 15 58.09375 12.796875 58.09375 
Q 10.703125 58.09375 9.25 59.546875 
Q 7.796875 61 7.796875 63.203125 
Q 7.796875 65.296875 9.296875 66.796875 
Q 10.796875 68.296875 12.90625 68.296875 
Q 15.09375 68.296875 16.546875 66.796875 
Q 18 65.296875 18 63.203125 
z
M 25.296875 0 
L 1.59375 0 
L 1.59375 1.5 
Q 6.796875 1.796875 8.140625 3.296875 
Q 9.5 4.796875 9.5 10.40625 
L 9.5 33.09375 
Q 9.5 36.59375 8.796875 38 
Q 8.09375 39.40625 6.203125 39.40625 
Q 3.796875 39.40625 2 38.90625 
L 2 40.5 
L 17.5 46 
L 17.90625 45.59375 
L 17.90625 10.5 
Q 17.90625 4.90625 19.15625 3.40625 
Q 20.40625 1.90625 25.296875 1.5 
z
" id="STIXGeneral-Regular-105"/>
     <path d="M 48.5 0 
L 27.703125 0 
L 27.796875 1.5 
Q 31.5 1.796875 32.75 3.640625 
Q 34 5.5 34 10.5 
L 34 30.40625 
Q 34 40.5 26.703125 40.5 
Q 24.203125 40.5 22 39.296875 
Q 19.796875 38.09375 16.40625 34.796875 
L 16.40625 7.203125 
Q 16.40625 4.203125 17.75 3 
Q 19.09375 1.796875 22.90625 1.5 
L 22.90625 0 
L 1.796875 0 
L 1.796875 1.5 
Q 5.59375 1.796875 6.796875 3.34375 
Q 8 4.90625 8 9.40625 
L 8 33.703125 
Q 8 37.40625 7.296875 38.796875 
Q 6.59375 40.203125 4.5 40.203125 
Q 2.5 40.203125 1.59375 39.796875 
L 1.59375 41.5 
Q 8.59375 43.5 15.296875 46 
L 16.09375 45.703125 
L 16.09375 37.90625 
L 16.203125 37.90625 
Q 23.296875 46 30.59375 46 
Q 36.296875 46 39.34375 42 
Q 42.40625 38 42.40625 30.59375 
L 42.40625 8.5 
Q 42.40625 4.5 43.59375 3.203125 
Q 44.796875 1.90625 48.5 1.5 
z
" id="STIXGeneral-Regular-110"/>
    </defs>
    <g transform="translate(121.959362 353.966647)scale(0.19 -0.19)">
     <use xlink:href="#STIXGeneral-Regular-83"/>
     <use x="55.599991" xlink:href="#STIXGeneral-Regular-116"/>
     <use x="83.399979" xlink:href="#STIXGeneral-Regular-114"/>
     <use x="116.699966" xlink:href="#STIXGeneral-Regular-111"/>
     <use x="166.699951" xlink:href="#STIXGeneral-Regular-107"/>
     <use x="216.699936" xlink:href="#STIXGeneral-Regular-101"/>
     <use x="261.09993" xlink:href="#STIXGeneral-Regular-32"/>
     <use x="286.099915" xlink:href="#STIXGeneral-Regular-109"/>
     <use x="363.899902" xlink:href="#STIXGeneral-Regular-111"/>
     <use x="413.899887" xlink:href="#STIXGeneral-Regular-116"/>
     <use x="441.699875" xlink:href="#STIXGeneral-Regular-105"/>
     <use x="469.499863" xlink:href="#STIXGeneral-Regular-111"/>
     <use x="519.499847" xlink:href="#STIXGeneral-Regular-110"/>
    </g>
   </g>
   <g id="text_21">
    <!-- Wake interaction -->
    <defs>
     <path d="M 93.203125 66.203125 
L 93.203125 64.296875 
Q 89.203125 63.5 87.75 62.34375 
Q 86.296875 61.203125 84.90625 57.296875 
Q 73.5 26.703125 64.5 -1.09375 
L 63 -1.09375 
Q 56.90625 15.796875 47 41.203125 
L 31.59375 -1.09375 
L 30.09375 -1.09375 
Q 26.703125 9 19.953125 27.390625 
Q 13.203125 45.796875 10.90625 52.296875 
Q 8.40625 59.5 6.34375 61.84375 
Q 4.296875 64.203125 0.5 64.296875 
L 0.5 66.203125 
L 24.90625 66.203125 
L 24.90625 64.296875 
Q 21.203125 64.203125 19.84375 63.5 
Q 18.5 62.796875 18.5 61.203125 
Q 18.5 59.5 19.59375 56.5 
L 34 18.90625 
L 44.40625 47.203125 
L 41.59375 54.703125 
Q 39.203125 61.203125 37.5 62.703125 
Q 35.796875 64.203125 31.40625 64.296875 
L 31.40625 66.203125 
L 57.90625 66.203125 
L 57.90625 64.296875 
Q 50.203125 64.09375 50.203125 60.796875 
Q 50.203125 59.5 51.90625 55 
L 66.203125 18.59375 
L 78.796875 52.5 
Q 80.5 57.296875 80.5 60.203125 
Q 80.5 64.203125 73.5 64.296875 
L 73.5 66.203125 
z
" id="STIXGeneral-Regular-87"/>
     <path d="M 44.203125 6.59375 
L 44.203125 3.796875 
Q 40.40625 -1 35.203125 -1 
Q 29.5 -1 28.796875 6.296875 
L 28.703125 6.296875 
Q 22.296875 -1 14.203125 -1 
Q 9.5 -1 6.59375 1.75 
Q 3.703125 4.5 3.703125 9.40625 
Q 3.703125 16.40625 10.703125 21.09375 
Q 15.5 24.296875 28.703125 29.203125 
L 28.703125 34.59375 
Q 28.703125 39.09375 26.546875 41.34375 
Q 24.40625 43.59375 20.90625 43.59375 
Q 17.90625 43.59375 15.90625 42.140625 
Q 13.90625 40.703125 13.90625 38.703125 
Q 13.90625 37.796875 14.203125 36.6875 
Q 14.5 35.59375 14.5 34.5 
Q 14.5 33 13.140625 31.703125 
Q 11.796875 30.40625 9.90625 30.40625 
Q 8.203125 30.40625 6.890625 31.703125 
Q 5.59375 33 5.59375 35 
Q 5.59375 39.796875 10.703125 43 
Q 15.40625 46 22.203125 46 
Q 30.296875 46 34 41.5 
Q 35.796875 39.40625 36.296875 37.25 
Q 36.796875 35.09375 36.796875 30.40625 
L 36.796875 11.296875 
Q 36.796875 4.703125 39.90625 4.703125 
Q 41.90625 4.703125 44.203125 6.59375 
z
M 28.703125 12.703125 
L 28.703125 26.796875 
Q 19.5 23.59375 15.90625 20.203125 
Q 12.5 17.09375 12.5 12.5 
Q 12.5 8.703125 14.390625 6.75 
Q 16.296875 4.796875 19.40625 4.796875 
Q 22.703125 4.796875 25.203125 6.40625 
Q 27.296875 7.90625 28 9.203125 
Q 28.703125 10.5 28.703125 12.703125 
z
" id="STIXGeneral-Regular-97"/>
     <path d="M 39.796875 15.59375 
L 41.203125 14.703125 
Q 36.90625 6.296875 33 3.203125 
Q 27.90625 -1 21.5 -1 
Q 13.203125 -1 7.84375 5.25 
Q 2.5 11.5 2.5 21.203125 
Q 2.5 33.90625 10.90625 40.90625 
Q 17.09375 46 24.40625 46 
Q 30.703125 46 35.25 42.953125 
Q 39.796875 39.90625 39.796875 35.703125 
Q 39.796875 34 38.390625 32.75 
Q 37 31.5 35.09375 31.5 
Q 31.59375 31.5 30.296875 36.09375 
L 29.703125 38.296875 
Q 28.90625 41.09375 27.703125 42.09375 
Q 26.5 43.09375 23.796875 43.09375 
Q 17.703125 43.09375 13.953125 38.296875 
Q 10.203125 33.5 10.203125 25.703125 
Q 10.203125 17.09375 14.5 11.640625 
Q 18.796875 6.203125 25.703125 6.203125 
Q 30 6.203125 33.09375 8.25 
Q 36.203125 10.296875 39.796875 15.59375 
z
" id="STIXGeneral-Regular-99"/>
    </defs>
    <g transform="translate(273.916667 353.966647)scale(0.19 -0.19)">
     <use xlink:href="#STIXGeneral-Regular-87"/>
     <use x="94.399994" xlink:href="#STIXGeneral-Regular-97"/>
     <use x="138.799988" xlink:href="#STIXGeneral-Regular-107"/>
     <use x="188.799973" xlink:href="#STIXGeneral-Regular-101"/>
     <use x="233.199966" xlink:href="#STIXGeneral-Regular-32"/>
     <use x="258.199951" xlink:href="#STIXGeneral-Regular-105"/>
     <use x="285.999939" xlink:href="#STIXGeneral-Regular-110"/>
     <use x="335.999924" xlink:href="#STIXGeneral-Regular-116"/>
     <use x="363.799911" xlink:href="#STIXGeneral-Regular-101"/>
     <use x="408.199905" xlink:href="#STIXGeneral-Regular-114"/>
     <use x="441.499893" xlink:href="#STIXGeneral-Regular-97"/>
     <use x="485.899887" xlink:href="#STIXGeneral-Regular-99"/>
     <use x="530.299881" xlink:href="#STIXGeneral-Regular-116"/>
     <use x="558.099869" xlink:href="#STIXGeneral-Regular-105"/>
     <use x="585.899857" xlink:href="#STIXGeneral-Regular-111"/>
     <use x="635.899841" xlink:href="#STIXGeneral-Regular-110"/>
    </g>
   </g>
  </g>
  <g id="axes_4">
   <g id="patch_17">
    <path d="M 451.562264 388.8 
L 777.6 388.8 
L 777.6 224.228571 
L 451.562264 224.228571 
z
" style="fill:#ffffff;"/>
   </g>
   <g id="matplotlib.axis_7">
    <g id="xtick_16">
     <g id="line2d_55">
      <g>
       <use style="fill:#ffffff;stroke:#000000;stroke-width:0.8;" x="451.562264" xlink:href="#mae83ba4d5e" y="388.8"/>
      </g>
     </g>
     <g id="text_22">
      <!-- 0.0 -->
      <g transform="translate(439.687264 408.776406)scale(0.19 -0.19)">
       <use xlink:href="#STIXGeneral-Regular-48"/>
       <use x="49.999985" xlink:href="#STIXGeneral-Regular-46"/>
       <use x="74.999969" xlink:href="#STIXGeneral-Regular-48"/>
      </g>
     </g>
    </g>
    <g id="xtick_17">
     <g id="line2d_56">
      <g>
       <use style="fill:#ffffff;stroke:#000000;stroke-width:0.8;" x="533.071698" xlink:href="#mae83ba4d5e" y="388.8"/>
      </g>
     </g>
     <g id="text_23">
      <!-- 0.5 -->
      <g transform="translate(521.196698 408.776406)scale(0.19 -0.19)">
       <use xlink:href="#STIXGeneral-Regular-48"/>
       <use x="49.999985" xlink:href="#STIXGeneral-Regular-46"/>
       <use x="74.999969" xlink:href="#STIXGeneral-Regular-53"/>
      </g>
     </g>
    </g>
    <g id="xtick_18">
     <g id="line2d_57">
      <g>
       <use style="fill:#ffffff;stroke:#000000;stroke-width:0.8;" x="614.581132" xlink:href="#mae83ba4d5e" y="388.8"/>
      </g>
     </g>
     <g id="text_24">
      <!-- 1.0 -->
      <g transform="translate(602.706132 408.776406)scale(0.19 -0.19)">
       <use xlink:href="#STIXGeneral-Regular-49"/>
       <use x="49.999985" xlink:href="#STIXGeneral-Regular-46"/>
       <use x="74.999969" xlink:href="#STIXGeneral-Regular-48"/>
      </g>
     </g>
    </g>
    <g id="xtick_19">
     <g id="line2d_58">
      <g>
       <use style="fill:#ffffff;stroke:#000000;stroke-width:0.8;" x="696.090566" xlink:href="#mae83ba4d5e" y="388.8"/>
      </g>
     </g>
     <g id="text_25">
      <!-- 1.5 -->
      <g transform="translate(684.215566 408.776406)scale(0.19 -0.19)">
       <use xlink:href="#STIXGeneral-Regular-49"/>
       <use x="49.999985" xlink:href="#STIXGeneral-Regular-46"/>
       <use x="74.999969" xlink:href="#STIXGeneral-Regular-53"/>
      </g>
     </g>
    </g>
    <g id="xtick_20">
     <g id="line2d_59">
      <g>
       <use style="fill:#ffffff;stroke:#000000;stroke-width:0.8;" x="777.6" xlink:href="#mae83ba4d5e" y="388.8"/>
      </g>
     </g>
     <g id="text_26">
      <!-- 2.0 -->
      <g transform="translate(765.725 408.776406)scale(0.19 -0.19)">
       <use xlink:href="#STIXGeneral-Regular-50"/>
       <use x="49.999985" xlink:href="#STIXGeneral-Regular-46"/>
       <use x="74.999969" xlink:href="#STIXGeneral-Regular-48"/>
      </g>
     </g>
    </g>
    <g id="text_27">
     <!-- $\^t$ -->
     <g transform="translate(611.921132 429.876406)scale(0.19 -0.19)">
      <use transform="translate(39.042969 16.59375)" xlink:href="#STIXGeneral-Regular-770"/>
      <use transform="translate(0 0.203125)" xlink:href="#STIXGeneral-Italic-116"/>
     </g>
    </g>
   </g>
   <g id="matplotlib.axis_8">
    <g id="ytick_10">
     <g id="line2d_60">
      <g>
       <use style="fill:#ffffff;stroke:#000000;stroke-width:0.8;" x="451.562264" xlink:href="#m43206a2f35" y="354.643666"/>
      </g>
     </g>
    </g>
    <g id="ytick_11">
     <g id="line2d_61">
      <g>
       <use style="fill:#ffffff;stroke:#000000;stroke-width:0.8;" x="451.562264" xlink:href="#m43206a2f35" y="308.066846"/>
      </g>
     </g>
    </g>
    <g id="ytick_12">
     <g id="line2d_62">
      <g>
       <use style="fill:#ffffff;stroke:#000000;stroke-width:0.8;" x="451.562264" xlink:href="#m43206a2f35" y="261.490027"/>
      </g>
     </g>
    </g>
    <g id="text_28">
     <!-- $C_d$ -->
     <g transform="translate(436.43867 316.679286)rotate(-90)scale(0.19 -0.19)">
      <use transform="translate(0 0.40625)" xlink:href="#STIXGeneral-Italic-67"/>
      <use transform="translate(66.699997 -12.821875)scale(0.7)" xlink:href="#STIXGeneral-Italic-100"/>
     </g>
    </g>
   </g>
   <g id="line2d_63">
    <path clip-path="url(#p8fc96abf23)" d="M 452.051321 338.77719 
L 453.029434 337.900603 
L 453.518491 337.059669 
L 454.007547 335.802814 
L 454.822642 332.876764 
L 455.800755 329.398932 
L 456.45283 327.898652 
L 457.104906 327.015495 
L 457.756981 326.514502 
L 458.572075 326.162788 
L 460.039245 325.813122 
L 464.766792 324.809325 
L 466.396981 324.312516 
L 468.516226 323.472173 
L 471.450566 322.272911 
L 472.102642 322.285724 
L 472.591698 322.533343 
L 472.917736 322.867555 
L 473.406792 323.719454 
L 474.058868 325.530697 
L 475.526038 330.138756 
L 476.178113 331.296482 
L 476.830189 331.91545 
L 477.645283 332.281711 
L 478.786415 332.505127 
L 480.90566 332.65752 
L 487.915472 332.785497 
L 499.978868 332.847108 
L 500.956981 332.847895 
L 566.490566 332.771144 
L 567.631698 332.651572 
L 568.283774 332.466044 
L 568.935849 332.049885 
L 569.424906 331.442732 
L 569.913962 330.37688 
L 570.403019 328.566325 
L 570.892075 325.636314 
L 571.381132 321.212771 
L 572.033208 313.131206 
L 573.337358 296.082146 
L 573.989434 290.184791 
L 574.967547 283.584753 
L 575.94566 276.693304 
L 576.923774 267.703902 
L 579.043019 244.267164 
L 580.021132 233.845513 
L 580.510189 230.035075 
L 580.836226 228.406089 
L 581.162264 227.805007 
L 581.325283 227.851324 
L 581.488302 228.150153 
L 581.81434 229.581585 
L 582.303396 232.926545 
L 583.444528 240.867424 
L 584.096604 243.247504 
L 584.58566 244.218147 
L 585.074717 244.745528 
L 585.563774 245.021606 
L 586.867925 245.309069 
L 587.683019 245.688382 
L 588.335094 246.298523 
L 588.98717 247.35746 
L 589.476226 248.576141 
L 590.128302 251.01474 
L 590.780377 255.045162 
L 591.758491 264.536264 
L 593.062642 277.84265 
L 593.877736 283.974353 
L 594.855849 289.709081 
L 596.812075 298.77855 
L 598.931321 307.91837 
L 599.583396 312.08251 
L 600.072453 316.471915 
L 600.724528 324.808069 
L 601.702642 341.926683 
L 602.517736 355.040869 
L 603.169811 361.977208 
L 603.821887 366.082031 
L 604.473962 368.566753 
L 605.126038 370.091886 
L 605.778113 371.218439 
L 606.593208 372.248639 
L 609.038491 374.862287 
L 609.364528 374.954604 
L 609.690566 374.653232 
L 610.016604 373.802176 
L 610.342642 372.111202 
L 610.831698 367.861978 
L 611.483774 359.560068 
L 612.461887 347.12236 
L 613.113962 341.838138 
L 613.766038 338.415613 
L 614.255094 336.771872 
L 614.744151 335.643952 
L 615.396226 334.656211 
L 617.189434 332.996159 
L 618.004528 332.655097 
L 618.819623 332.540115 
L 620.123774 332.817919 
L 621.101887 333.403337 
L 622.406038 334.514972 
L 623.873208 335.788238 
L 625.340377 336.619174 
L 628.926792 338.027883 
L 636.262642 340.331641 
L 639.033962 340.972916 
L 641.968302 341.245351 
L 645.717736 341.320362 
L 647.836981 341.341584 
L 648.815094 341.341537 
L 652.727547 341.261426 
L 661.856604 340.397413 
L 663.81283 340.185804 
L 664.953962 340.079371 
L 673.104906 339.345306 
L 682.070943 338.879924 
L 684.516226 338.826715 
L 691.363019 338.728765 
L 700.655094 338.507003 
L 703.100377 338.42929 
L 709.295094 338.19624 
L 725.596981 337.733211 
L 749.071698 337.896746 
L 756.244528 337.995479 
L 773.361509 337.850987 
L 777.763019 337.795237 
L 777.763019 337.795237 
" style="fill:none;stroke:#1f77b4;stroke-linecap:square;stroke-width:2;"/>
   </g>
   <g id="line2d_64">
    <path clip-path="url(#p8fc96abf23)" d="M 452.051321 338.94444 
L 453.192453 338.379377 
L 453.844528 337.673387 
L 454.496604 336.586946 
L 455.963774 333.932574 
L 456.615849 333.238007 
L 457.430943 332.75383 
L 458.572075 332.427285 
L 465.09283 331.062077 
L 467.538113 330.137154 
L 469.820377 329.131703 
L 471.776604 328.359736 
L 472.428679 328.284868 
L 472.917736 328.388125 
L 473.406792 328.697324 
L 474.058868 329.462798 
L 475.689057 331.714875 
L 476.341132 332.169904 
L 477.156226 332.453102 
L 478.460377 332.631939 
L 482.046792 332.7954 
L 488.404528 332.87631 
L 535.190943 332.789362 
L 558.828679 333.184001 
L 564.53434 333.387686 
L 565.675472 333.426595 
L 568.609811 333.422838 
L 569.424906 333.243705 
L 570.076981 332.878855 
L 570.729057 332.114824 
L 571.218113 331.142729 
L 571.870189 329.243628 
L 573.663396 323.424066 
L 574.804528 320.947254 
L 575.782642 318.705636 
L 576.760755 315.872818 
L 578.227925 310.844697 
L 580.510189 302.854038 
L 580.999245 301.900118 
L 581.325283 301.622194 
L 581.651321 301.593529 
L 581.977358 301.815545 
L 583.933585 303.853032 
L 584.58566 304.070848 
L 587.356981 304.608002 
L 588.172075 305.03671 
L 588.824151 305.541266 
L 589.476226 306.405552 
L 589.802264 306.963294 
L 590.291321 308.146845 
L 590.780377 309.816833 
L 591.432453 312.859393 
L 593.388679 322.96471 
L 594.529811 326.814999 
L 595.670943 329.78366 
L 597.464151 333.656381 
L 599.09434 337.111126 
L 599.909434 339.381512 
L 600.561509 341.853422 
L 601.376604 345.880002 
L 602.517736 351.464988 
L 603.169811 353.590699 
L 603.821887 354.962004 
L 604.473962 355.876896 
L 605.289057 356.663533 
L 606.26717 357.342324 
L 608.060377 358.198786 
L 609.038491 358.434143 
L 609.527547 358.387271 
L 610.016604 358.065287 
L 610.50566 357.376011 
L 610.994717 356.190983 
L 611.97283 352.922536 
L 612.787925 350.597611 
L 613.44 349.552292 
L 613.929057 349.123707 
L 614.581132 348.82403 
L 615.396226 348.729002 
L 617.026415 348.80926 
L 619.14566 348.820558 
L 622.08 348.712081 
L 624.525283 348.422186 
L 627.133585 347.775551 
L 628.274717 347.407391 
L 631.209057 346.230622 
L 639.033962 342.910078 
L 644.087547 341.375989 
L 647.021887 340.718482 
L 649.304151 340.315225 
L 651.423396 340.004468 
L 657.129057 339.436269 
L 662.34566 339.141916 
L 672.941887 338.85208 
L 744.996226 338.487417 
L 777.763019 338.445069 
L 777.763019 338.445069 
" style="fill:none;stroke:#ff7f0e;stroke-linecap:square;stroke-width:2;"/>
   </g>
   <g id="line2d_65">
    <path clip-path="url(#p8fc96abf23)" d="M 452.051321 339.029256 
L 453.355472 338.669216 
L 454.007547 338.259557 
L 454.98566 337.328598 
L 455.963774 336.452878 
L 456.778868 336.017074 
L 457.92 335.71634 
L 464.114717 334.533173 
L 466.886038 333.592361 
L 469.820377 332.350432 
L 472.26566 331.314426 
L 473.080755 331.193069 
L 473.73283 331.31851 
L 474.547925 331.750117 
L 475.689057 332.365756 
L 476.66717 332.621621 
L 478.460377 332.783791 
L 482.698868 332.881201 
L 493.132075 332.805755 
L 502.424151 332.800965 
L 506.010566 332.873904 
L 513.672453 333.216607 
L 519.86717 333.723653 
L 529.322264 334.884597 
L 533.071698 335.331258 
L 535.190943 335.38826 
L 538.940377 334.999795 
L 543.341887 334.15787 
L 544.972075 333.852743 
L 551.329811 333.191678 
L 555.568302 333.163646 
L 561.436981 333.518865 
L 568.446792 334.049985 
L 569.913962 333.923003 
L 570.729057 333.644738 
L 571.544151 333.046258 
L 572.359245 332.102816 
L 575.130566 328.317775 
L 576.760755 325.675292 
L 578.390943 322.612463 
L 581.162264 317.278814 
L 581.977358 316.35667 
L 582.955472 315.637884 
L 584.58566 314.591251 
L 585.726792 314.073447 
L 586.541887 313.875314 
L 587.52 313.855821 
L 588.335094 314.043518 
L 589.150189 314.457434 
L 589.802264 315.053126 
L 590.45434 316.001753 
L 591.106415 317.459108 
L 591.921509 319.921077 
L 593.388679 324.388646 
L 594.529811 327.037414 
L 595.996981 329.812025 
L 597.790189 332.637536 
L 599.583396 334.989491 
L 601.050566 337.023739 
L 602.354717 338.791354 
L 603.006792 339.317309 
L 603.821887 339.641815 
L 604.963019 339.750855 
L 606.919245 339.671527 
L 608.712453 339.452249 
L 609.527547 339.12285 
L 610.179623 338.594607 
L 610.831698 337.750929 
L 612.461887 335.279164 
L 613.113962 334.744828 
L 613.929057 334.413473 
L 615.233208 334.213663 
L 617.026415 334.177932 
L 618.493585 334.37069 
L 620.286792 334.880964 
L 622.08 335.614516 
L 624.199245 336.710147 
L 627.133585 338.20647 
L 628.600755 338.673322 
L 629.904906 338.85327 
L 631.535094 338.833482 
L 638.055849 338.421867 
L 640.175094 338.583224 
L 642.29434 338.970881 
L 648.815094 340.363661 
L 650.93434 340.469534 
L 654.031698 340.390094 
L 659.57434 340.230916 
L 667.073208 340.328238 
L 677.343396 340.391696 
L 688.102642 340.287856 
L 712.718491 340.14303 
L 749.560755 340.114395 
L 777.763019 339.962828 
L 777.763019 339.962828 
" style="fill:none;stroke:#2ca02c;stroke-linecap:square;stroke-width:2;"/>
   </g>
   <g id="line2d_66">
    <path clip-path="url(#p8fc96abf23)" d="M 451.562264 339.118059 
L 777.6 339.118059 
" style="fill:none;stroke:#000000;stroke-dasharray:3.2,0.8,0.5,0.8;stroke-dashoffset:0;stroke-width:0.5;"/>
   </g>
   <g id="line2d_67">
    <path clip-path="url(#p8fc96abf23)" d="M 614.581132 388.8 
L 614.581132 224.228571 
" style="fill:none;stroke:#000000;stroke-linecap:square;stroke-width:0.5;"/>
   </g>
   <g id="line2d_68">
    <path clip-path="url(#p8fc96abf23)" d="M 647.184906 388.8 
L 647.184906 224.228571 
" style="fill:none;stroke:#000000;stroke-dasharray:6.4,1.6,1,1.6;stroke-dashoffset:0;stroke-opacity:0.25;"/>
   </g>
   <g id="line2d_69">
    <path clip-path="url(#p8fc96abf23)" d="M 679.788679 388.8 
L 679.788679 224.228571 
" style="fill:none;stroke:#000000;stroke-dasharray:6.4,1.6,1,1.6;stroke-dashoffset:0;stroke-opacity:0.25;"/>
   </g>
   <g id="line2d_70">
    <path clip-path="url(#p8fc96abf23)" d="M 712.392453 388.8 
L 712.392453 224.228571 
" style="fill:none;stroke:#000000;stroke-dasharray:6.4,1.6,1,1.6;stroke-dashoffset:0;stroke-opacity:0.25;"/>
   </g>
   <g id="patch_18">
    <path d="M 451.562264 388.8 
L 451.562264 224.228571 
" style="fill:none;stroke:#000000;stroke-linecap:square;stroke-linejoin:miter;stroke-width:0.8;"/>
   </g>
   <g id="patch_19">
    <path d="M 777.6 388.8 
L 777.6 224.228571 
" style="fill:none;stroke:#000000;stroke-linecap:square;stroke-linejoin:miter;stroke-width:0.8;"/>
   </g>
   <g id="patch_20">
    <path d="M 451.562264 388.8 
L 777.6 388.8 
" style="fill:none;stroke:#000000;stroke-linecap:square;stroke-linejoin:miter;stroke-width:0.8;"/>
   </g>
   <g id="patch_21">
    <path d="M 451.562264 224.228571 
L 777.6 224.228571 
" style="fill:none;stroke:#000000;stroke-linecap:square;stroke-linejoin:miter;stroke-width:0.8;"/>
   </g>
   <g id="text_29">
    <!-- Stroke motion -->
    <g transform="translate(487.121626 378.645262)scale(0.19 -0.19)">
     <use xlink:href="#STIXGeneral-Regular-83"/>
     <use x="55.599991" xlink:href="#STIXGeneral-Regular-116"/>
     <use x="83.399979" xlink:href="#STIXGeneral-Regular-114"/>
     <use x="116.699966" xlink:href="#STIXGeneral-Regular-111"/>
     <use x="166.699951" xlink:href="#STIXGeneral-Regular-107"/>
     <use x="216.699936" xlink:href="#STIXGeneral-Regular-101"/>
     <use x="261.09993" xlink:href="#STIXGeneral-Regular-32"/>
     <use x="286.099915" xlink:href="#STIXGeneral-Regular-109"/>
     <use x="363.899902" xlink:href="#STIXGeneral-Regular-111"/>
     <use x="413.899887" xlink:href="#STIXGeneral-Regular-116"/>
     <use x="441.699875" xlink:href="#STIXGeneral-Regular-105"/>
     <use x="469.499863" xlink:href="#STIXGeneral-Regular-111"/>
     <use x="519.499847" xlink:href="#STIXGeneral-Regular-110"/>
    </g>
   </g>
   <g id="text_30">
    <!-- Wake interaction -->
    <g transform="translate(639.078931 378.645262)scale(0.19 -0.19)">
     <use xlink:href="#STIXGeneral-Regular-87"/>
     <use x="94.399994" xlink:href="#STIXGeneral-Regular-97"/>
     <use x="138.799988" xlink:href="#STIXGeneral-Regular-107"/>
     <use x="188.799973" xlink:href="#STIXGeneral-Regular-101"/>
     <use x="233.199966" xlink:href="#STIXGeneral-Regular-32"/>
     <use x="258.199951" xlink:href="#STIXGeneral-Regular-105"/>
     <use x="285.999939" xlink:href="#STIXGeneral-Regular-110"/>
     <use x="335.999924" xlink:href="#STIXGeneral-Regular-116"/>
     <use x="363.799911" xlink:href="#STIXGeneral-Regular-101"/>
     <use x="408.199905" xlink:href="#STIXGeneral-Regular-114"/>
     <use x="441.499893" xlink:href="#STIXGeneral-Regular-97"/>
     <use x="485.899887" xlink:href="#STIXGeneral-Regular-99"/>
     <use x="530.299881" xlink:href="#STIXGeneral-Regular-116"/>
     <use x="558.099869" xlink:href="#STIXGeneral-Regular-105"/>
     <use x="585.899857" xlink:href="#STIXGeneral-Regular-111"/>
     <use x="635.899841" xlink:href="#STIXGeneral-Regular-110"/>
    </g>
   </g>
   <g id="text_31">
    <!-- $Re = 10^3$ -->
    <g transform="translate(817.474971 305.806212)scale(0.19 -0.19)">
     <use transform="translate(0 0.409375)" xlink:href="#STIXGeneral-Italic-82"/>
     <use transform="translate(61.099991 0.409375)" xlink:href="#STIXGeneral-Italic-101"/>
     <use transform="translate(119.939981 0.409375)" xlink:href="#STIXGeneral-Regular-61"/>
     <use transform="translate(202.879962 0.409375)" xlink:href="#STIXGeneral-Regular-49"/>
     <use transform="translate(252.879947 0.409375)" xlink:href="#STIXGeneral-Regular-48"/>
     <use transform="translate(304.423213 35.684375)scale(0.7)" xlink:href="#STIXGeneral-Regular-51"/>
    </g>
   </g>
  </g>
 </g>
 <defs>
  <clipPath id="p8f6a0258bf">
   <rect height="164.571429" width="326.037736" x="86.4" y="43.2"/>
  </clipPath>
  <clipPath id="pa8b1511fbe">
   <rect height="164.571429" width="326.037736" x="451.562264" y="43.2"/>
  </clipPath>
  <clipPath id="pfb8d857041">
   <rect height="164.571429" width="326.037736" x="86.4" y="224.228571"/>
  </clipPath>
  <clipPath id="p8fc96abf23">
   <rect height="164.571429" width="326.037736" x="451.562264" y="224.228571"/>
  </clipPath>
 </defs>
</svg>
