<?xml version="1.0" encoding="utf-8" standalone="no"?>
<!DOCTYPE svg PUBLIC "-//W3C//DTD SVG 1.1//EN"
  "http://www.w3.org/Graphics/SVG/1.1/DTD/svg11.dtd">
<!-- Created with matplotlib (https://matplotlib.org/) -->
<svg height="720pt" version="1.1" viewBox="0 0 1080 720" width="1080pt" xmlns="http://www.w3.org/2000/svg" xmlns:xlink="http://www.w3.org/1999/xlink">
 <defs>
  <style type="text/css">
*{stroke-linecap:butt;stroke-linejoin:round;}
  </style>
 </defs>
 <g id="figure_1">
  <g id="patch_1">
   <path d="M 0 720 
L 1080 720 
L 1080 0 
L 0 0 
z
" style="fill:#ffffff;"/>
  </g>
  <g id="axes_1">
   <g id="patch_2">
    <path d="M 216 273.341317 
L 514.617512 273.341317 
L 514.617512 144 
L 216 144 
z
" style="fill:#ffffff;"/>
   </g>
   <g id="matplotlib.axis_1">
    <g id="xtick_1">
     <g id="line2d_1">
      <defs>
       <path d="M 0 0 
L 0 3.5 
" id="m38d8f08a15" style="stroke:#000000;stroke-width:0.8;"/>
      </defs>
      <g>
       <use style="fill:#ffffff;stroke:#000000;stroke-width:0.8;" x="216" xlink:href="#m38d8f08a15" y="273.341317"/>
      </g>
     </g>
    </g>
    <g id="xtick_2">
     <g id="line2d_2">
      <g>
       <use style="fill:#ffffff;stroke:#000000;stroke-width:0.8;" x="275.723502" xlink:href="#m38d8f08a15" y="273.341317"/>
      </g>
     </g>
    </g>
    <g id="xtick_3">
     <g id="line2d_3">
      <g>
       <use style="fill:#ffffff;stroke:#000000;stroke-width:0.8;" x="335.447005" xlink:href="#m38d8f08a15" y="273.341317"/>
      </g>
     </g>
    </g>
    <g id="xtick_4">
     <g id="line2d_4">
      <g>
       <use style="fill:#ffffff;stroke:#000000;stroke-width:0.8;" x="395.170507" xlink:href="#m38d8f08a15" y="273.341317"/>
      </g>
     </g>
    </g>
    <g id="xtick_5">
     <g id="line2d_5">
      <g>
       <use style="fill:#ffffff;stroke:#000000;stroke-width:0.8;" x="454.894009" xlink:href="#m38d8f08a15" y="273.341317"/>
      </g>
     </g>
    </g>
    <g id="xtick_6">
     <g id="line2d_6">
      <g>
       <use style="fill:#ffffff;stroke:#000000;stroke-width:0.8;" x="514.617512" xlink:href="#m38d8f08a15" y="273.341317"/>
      </g>
     </g>
    </g>
   </g>
   <g id="matplotlib.axis_2">
    <g id="ytick_1">
     <g id="line2d_7">
      <defs>
       <path d="M 0 0 
L -3.5 0 
" id="m8b106a89ae" style="stroke:#000000;stroke-width:0.8;"/>
      </defs>
      <g>
       <use style="fill:#ffffff;stroke:#000000;stroke-width:0.8;" x="216" xlink:href="#m8b106a89ae" y="266.874251"/>
      </g>
     </g>
     <g id="text_1">
      <!-- −7.5 -->
      <defs>
       <path d="M 62.09375 22 
L 6.40625 22 
L 6.40625 28.59375 
L 62.09375 28.59375 
z
" id="STIXGeneral-Regular-8722"/>
       <path d="M 44.90625 64.59375 
L 23.703125 -0.796875 
L 17.203125 -0.796875 
L 37 58.796875 
L 15.5 58.796875 
Q 11.203125 58.796875 9.09375 57.296875 
Q 7 55.796875 3.796875 50.59375 
L 2 51.5 
L 8 66.203125 
L 44.90625 66.203125 
z
" id="STIXGeneral-Regular-55"/>
       <path d="M 18.09375 4.296875 
Q 18.09375 2.09375 16.4375 0.5 
Q 14.796875 -1.09375 12.5 -1.09375 
Q 10.203125 -1.09375 8.59375 0.5 
Q 7 2.09375 7 4.390625 
Q 7 6.703125 8.640625 8.34375 
Q 10.296875 10 12.59375 10 
Q 14.796875 10 16.4375 8.296875 
Q 18.09375 6.59375 18.09375 4.296875 
z
" id="STIXGeneral-Regular-46"/>
       <path d="M 43.796875 68.09375 
L 40.203125 59.59375 
Q 39.59375 58.296875 37.5 58.296875 
L 18.09375 58.296875 
L 14.09375 49.796875 
Q 25.09375 47.703125 30 45.25 
Q 34.90625 42.796875 39.09375 37 
Q 42.59375 32.203125 42.59375 24.296875 
Q 42.59375 17.09375 40.25 12.1875 
Q 37.90625 7.296875 32.796875 3.5 
Q 26 -1.40625 15.796875 -1.40625 
Q 10.09375 -1.40625 6.59375 0.296875 
Q 3.09375 2 3.09375 4.796875 
Q 3.09375 8.59375 7.59375 8.59375 
Q 11.203125 8.59375 15 5.5 
Q 18.90625 2.296875 22.09375 2.296875 
Q 27.296875 2.296875 31.4375 7.5 
Q 35.59375 12.703125 35.59375 19.203125 
Q 35.59375 28.796875 28.90625 34.203125 
Q 20.203125 41.203125 7.59375 41.203125 
Q 6.40625 41.203125 6.40625 42 
L 6.5 42.5 
L 17.40625 66.203125 
L 38.09375 66.203125 
Q 39.796875 66.203125 40.75 66.703125 
Q 41.703125 67.203125 42.90625 68.796875 
z
" id="STIXGeneral-Regular-53"/>
      </defs>
      <g transform="translate(181.91 271.655033)scale(0.14 -0.14)">
       <use xlink:href="#STIXGeneral-Regular-8722"/>
       <use x="68.499985" xlink:href="#STIXGeneral-Regular-55"/>
       <use x="118.499969" xlink:href="#STIXGeneral-Regular-46"/>
       <use x="143.499954" xlink:href="#STIXGeneral-Regular-53"/>
      </g>
     </g>
    </g>
    <g id="ytick_2">
     <g id="line2d_8">
      <g>
       <use style="fill:#ffffff;stroke:#000000;stroke-width:0.8;" x="216" xlink:href="#m8b106a89ae" y="234.538922"/>
      </g>
     </g>
     <g id="text_2">
      <!-- −5.0 -->
      <defs>
       <path d="M 47.59375 33 
Q 47.59375 26.296875 46.296875 20.34375 
Q 45 14.40625 42.453125 9.40625 
Q 39.90625 4.40625 35.40625 1.5 
Q 30.90625 -1.40625 25 -1.40625 
Q 18.90625 -1.40625 14.296875 1.6875 
Q 9.703125 4.796875 7.203125 10 
Q 4.703125 15.203125 3.546875 21.09375 
Q 2.40625 27 2.40625 33.59375 
Q 2.40625 42.90625 4.703125 50.34375 
Q 7 57.796875 12.34375 62.6875 
Q 17.703125 67.59375 25.40625 67.59375 
Q 35.203125 67.59375 41.390625 58 
Q 47.59375 48.40625 47.59375 33 
z
M 38 32.5 
Q 38 48.296875 34.640625 56.640625 
Q 31.296875 65 24.796875 65 
Q 18.59375 65 15.296875 56.59375 
Q 12 48.203125 12 32.90625 
Q 12 17.5 15.296875 9.34375 
Q 18.59375 1.203125 25 1.203125 
Q 31.296875 1.203125 34.640625 9.34375 
Q 38 17.5 38 32.5 
z
" id="STIXGeneral-Regular-48"/>
      </defs>
      <g transform="translate(181.91 239.319703)scale(0.14 -0.14)">
       <use xlink:href="#STIXGeneral-Regular-8722"/>
       <use x="68.499985" xlink:href="#STIXGeneral-Regular-53"/>
       <use x="118.499969" xlink:href="#STIXGeneral-Regular-46"/>
       <use x="143.499954" xlink:href="#STIXGeneral-Regular-48"/>
      </g>
     </g>
    </g>
    <g id="ytick_3">
     <g id="line2d_9">
      <g>
       <use style="fill:#ffffff;stroke:#000000;stroke-width:0.8;" x="216" xlink:href="#m8b106a89ae" y="202.203593"/>
      </g>
     </g>
     <g id="text_3">
      <!-- −2.5 -->
      <defs>
       <path d="M 47.40625 13.703125 
L 42 0 
L 2.90625 0 
L 2.90625 1.203125 
L 20.703125 20.09375 
Q 27.703125 27.40625 30.703125 33.5 
Q 33.703125 39.59375 33.703125 46.09375 
Q 33.703125 52.796875 30 56.5 
Q 26.296875 60.203125 19.796875 60.203125 
Q 14.40625 60.203125 11.25 57.390625 
Q 8.09375 54.59375 5.09375 47.203125 
L 3 47.703125 
Q 4.703125 57 9.84375 62.296875 
Q 15 67.59375 23.796875 67.59375 
Q 32.09375 67.59375 37.1875 62.59375 
Q 42.296875 57.59375 42.296875 50 
Q 42.296875 38.703125 29.5 25.203125 
L 13 7.59375 
L 36.40625 7.59375 
Q 39.703125 7.59375 41.640625 8.890625 
Q 43.59375 10.203125 46 14.296875 
z
" id="STIXGeneral-Regular-50"/>
      </defs>
      <g transform="translate(181.91 206.984374)scale(0.14 -0.14)">
       <use xlink:href="#STIXGeneral-Regular-8722"/>
       <use x="68.499985" xlink:href="#STIXGeneral-Regular-50"/>
       <use x="118.499969" xlink:href="#STIXGeneral-Regular-46"/>
       <use x="143.499954" xlink:href="#STIXGeneral-Regular-53"/>
      </g>
     </g>
    </g>
    <g id="ytick_4">
     <g id="line2d_10">
      <g>
       <use style="fill:#ffffff;stroke:#000000;stroke-width:0.8;" x="216" xlink:href="#m8b106a89ae" y="169.868263"/>
      </g>
     </g>
     <g id="text_4">
      <!-- 0.0 -->
      <g transform="translate(191.5 174.649045)scale(0.14 -0.14)">
       <use xlink:href="#STIXGeneral-Regular-48"/>
       <use x="49.999985" xlink:href="#STIXGeneral-Regular-46"/>
       <use x="74.999969" xlink:href="#STIXGeneral-Regular-48"/>
      </g>
     </g>
    </g>
    <g id="text_5">
     <!-- $C_l$ -->
     <defs>
      <path d="M 68.90625 66.40625 
L 65.203125 46.40625 
L 63.40625 46.703125 
Q 61.59375 63 48.5 63 
Q 37.59375 63 28.59375 53.296875 
Q 23.296875 47.703125 20.546875 39.703125 
Q 17.796875 31.703125 17.796875 23.203125 
Q 17.796875 2.703125 35.296875 2.703125 
Q 41.5 2.703125 46.640625 5.296875 
Q 51.796875 7.90625 58.203125 14.59375 
L 60 13.09375 
Q 53.296875 5.203125 46.84375 1.703125 
Q 40.40625 -1.796875 32.703125 -1.796875 
Q 21 -1.796875 13.796875 5.140625 
Q 6.59375 12.09375 6.59375 24.296875 
Q 6.59375 34.59375 11.6875 43.9375 
Q 16.796875 53.296875 25.296875 59.296875 
Q 35.5 66.59375 47.203125 66.59375 
Q 54.09375 66.59375 58.90625 64.90625 
Q 60.90625 64.203125 63 64.203125 
Q 65.703125 64.203125 66.796875 66.40625 
z
" id="STIXGeneral-Italic-67"/>
      <path d="M 27.90625 67.796875 
L 12.59375 9.296875 
Q 11.796875 6.40625 11.796875 5 
Q 11.796875 3.203125 13.5 3.203125 
Q 16.203125 3.203125 20.203125 8.90625 
L 22.703125 12.40625 
L 24.09375 11.40625 
Q 19.59375 4.296875 16.34375 1.59375 
Q 13.09375 -1.09375 9 -1.09375 
Q 4.09375 -1.09375 4.09375 4.5 
Q 4.09375 6.203125 4.5 7.5 
L 18.203125 59.90625 
Q 18.5 60.90625 18.5 61.796875 
Q 18.5 64 13.59375 64 
L 11.796875 64 
L 11.796875 65.59375 
Q 18.796875 66.40625 27.296875 68.296875 
z
" id="STIXGeneral-Italic-108"/>
     </defs>
     <g transform="translate(174.871562 215.040659)rotate(-90)scale(0.14 -0.14)">
      <use transform="translate(0 0.40625)" xlink:href="#STIXGeneral-Italic-67"/>
      <use transform="translate(66.699997 -12.821875)scale(0.7)" xlink:href="#STIXGeneral-Italic-108"/>
     </g>
    </g>
   </g>
   <g id="line2d_11">
    <path clip-path="url(#p22df77b4ba)" d="M 215.701382 197.549628 
L 218.687558 194.132548 
L 222.868203 189.246761 
L 225.854378 186.071871 
L 228.840553 183.216192 
L 231.528111 180.943957 
L 234.215668 178.938399 
L 236.903226 177.219817 
L 239.590783 175.773629 
L 242.278341 174.562102 
L 245.264516 173.449249 
L 248.549309 172.466117 
L 252.132719 171.630869 
L 256.313364 170.894201 
L 261.091244 170.283444 
L 267.063594 169.763509 
L 274.230415 169.376364 
L 284.084793 169.093855 
L 298.418433 168.941431 
L 318.127189 168.935311 
L 384.121659 169.262547 
L 479.97788 169.706572 
L 514.916129 169.822739 
L 514.916129 169.822739 
" style="fill:none;stroke:#1f77b4;stroke-linecap:square;stroke-width:3;"/>
   </g>
   <g id="line2d_12">
    <path clip-path="url(#p22df77b4ba)" d="M 215.701382 190.589807 
L 217.791705 187.532839 
L 221.076498 183.431245 
L 223.764055 180.544418 
L 227.048848 177.492702 
L 229.437788 175.618938 
L 232.423963 173.67879 
L 234.812903 172.465981 
L 237.799078 171.293841 
L 240.486636 170.518095 
L 244.368664 169.764707 
L 251.236866 169.083402 
L 255.716129 168.876571 
L 286.175115 168.409403 
L 331.266359 168.778443 
L 438.470046 169.769949 
L 486.248848 169.798452 
L 514.916129 169.778036 
L 514.916129 169.778036 
" style="fill:none;stroke:#ff7f0e;stroke-linecap:square;stroke-width:3;"/>
   </g>
   <g id="line2d_13">
    <path clip-path="url(#p22df77b4ba)" d="M 216 169.868263 
L 514.617512 169.868263 
" style="fill:none;stroke:#000000;stroke-dasharray:3.2,0.8,0.5,0.8;stroke-dashoffset:0;stroke-width:0.5;"/>
   </g>
   <g id="line2d_14">
    <path clip-path="url(#p22df77b4ba)" d="M 216 273.341317 
L 216 144 
" style="fill:none;stroke:#000000;stroke-linecap:square;stroke-width:0.5;"/>
   </g>
   <g id="line2d_15">
    <path clip-path="url(#p22df77b4ba)" d="M 275.723502 273.341317 
L 275.723502 144 
" style="fill:none;stroke:#000000;stroke-dasharray:3.2,0.8,0.5,0.8;stroke-dashoffset:0;stroke-opacity:0.25;stroke-width:0.5;"/>
   </g>
   <g id="line2d_16">
    <path clip-path="url(#p22df77b4ba)" d="M 335.447005 273.341317 
L 335.447005 144 
" style="fill:none;stroke:#000000;stroke-dasharray:3.2,0.8,0.5,0.8;stroke-dashoffset:0;stroke-opacity:0.25;stroke-width:0.5;"/>
   </g>
   <g id="line2d_17">
    <path clip-path="url(#p22df77b4ba)" d="M 395.170507 273.341317 
L 395.170507 144 
" style="fill:none;stroke:#000000;stroke-dasharray:3.2,0.8,0.5,0.8;stroke-dashoffset:0;stroke-opacity:0.25;stroke-width:0.5;"/>
   </g>
   <g id="patch_3">
    <path d="M 216 273.341317 
L 216 144 
" style="fill:none;stroke:#000000;stroke-linecap:square;stroke-linejoin:miter;stroke-width:0.8;"/>
   </g>
   <g id="patch_4">
    <path d="M 514.617512 273.341317 
L 514.617512 144 
" style="fill:none;stroke:#000000;stroke-linecap:square;stroke-linejoin:miter;stroke-width:0.8;"/>
   </g>
   <g id="patch_5">
    <path d="M 216 273.341317 
L 514.617512 273.341317 
" style="fill:none;stroke:#000000;stroke-linecap:square;stroke-linejoin:miter;stroke-width:0.8;"/>
   </g>
   <g id="patch_6">
    <path d="M 216 144 
L 514.617512 144 
" style="fill:none;stroke:#000000;stroke-linecap:square;stroke-linejoin:miter;stroke-width:0.8;"/>
   </g>
  </g>
  <g id="axes_2">
   <g id="patch_7">
    <path d="M 565.382488 273.341317 
L 864 273.341317 
L 864 144 
L 565.382488 144 
z
" style="fill:#ffffff;"/>
   </g>
   <g id="matplotlib.axis_3">
    <g id="xtick_7">
     <g id="line2d_18">
      <g>
       <use style="fill:#ffffff;stroke:#000000;stroke-width:0.8;" x="565.382488" xlink:href="#m38d8f08a15" y="273.341317"/>
      </g>
     </g>
    </g>
    <g id="xtick_8">
     <g id="line2d_19">
      <g>
       <use style="fill:#ffffff;stroke:#000000;stroke-width:0.8;" x="625.105991" xlink:href="#m38d8f08a15" y="273.341317"/>
      </g>
     </g>
    </g>
    <g id="xtick_9">
     <g id="line2d_20">
      <g>
       <use style="fill:#ffffff;stroke:#000000;stroke-width:0.8;" x="684.829493" xlink:href="#m38d8f08a15" y="273.341317"/>
      </g>
     </g>
    </g>
    <g id="xtick_10">
     <g id="line2d_21">
      <g>
       <use style="fill:#ffffff;stroke:#000000;stroke-width:0.8;" x="744.552995" xlink:href="#m38d8f08a15" y="273.341317"/>
      </g>
     </g>
    </g>
    <g id="xtick_11">
     <g id="line2d_22">
      <g>
       <use style="fill:#ffffff;stroke:#000000;stroke-width:0.8;" x="804.276498" xlink:href="#m38d8f08a15" y="273.341317"/>
      </g>
     </g>
    </g>
    <g id="xtick_12">
     <g id="line2d_23">
      <g>
       <use style="fill:#ffffff;stroke:#000000;stroke-width:0.8;" x="864" xlink:href="#m38d8f08a15" y="273.341317"/>
      </g>
     </g>
    </g>
   </g>
   <g id="matplotlib.axis_4">
    <g id="ytick_5">
     <g id="line2d_24">
      <g>
       <use style="fill:#ffffff;stroke:#000000;stroke-width:0.8;" x="565.382488" xlink:href="#m8b106a89ae" y="266.874251"/>
      </g>
     </g>
    </g>
    <g id="ytick_6">
     <g id="line2d_25">
      <g>
       <use style="fill:#ffffff;stroke:#000000;stroke-width:0.8;" x="565.382488" xlink:href="#m8b106a89ae" y="234.538922"/>
      </g>
     </g>
    </g>
    <g id="ytick_7">
     <g id="line2d_26">
      <g>
       <use style="fill:#ffffff;stroke:#000000;stroke-width:0.8;" x="565.382488" xlink:href="#m8b106a89ae" y="202.203593"/>
      </g>
     </g>
    </g>
    <g id="ytick_8">
     <g id="line2d_27">
      <g>
       <use style="fill:#ffffff;stroke:#000000;stroke-width:0.8;" x="565.382488" xlink:href="#m8b106a89ae" y="169.868263"/>
      </g>
     </g>
    </g>
    <g id="text_6">
     <!-- $C_d$ -->
     <defs>
      <path d="M 52.09375 68.296875 
L 52.703125 67.703125 
L 48.796875 52.5 
L 42.796875 30.59375 
Q 36.296875 6.703125 36.296875 6 
Q 36.296875 4 38.09375 4 
Q 39.40625 4 40.84375 5.25 
Q 42.296875 6.5 46.296875 11.09375 
L 47.5 10.09375 
Q 39.796875 -1.296875 32.796875 -1.296875 
Q 30.90625 -1.296875 29.796875 -0.09375 
Q 28.703125 1.09375 28.703125 3.203125 
Q 28.703125 6.203125 30 12.09375 
Q 25.703125 4.796875 21.546875 1.84375 
Q 17.40625 -1.09375 12.203125 -1.09375 
Q 7.203125 -1.09375 4.34375 1.953125 
Q 1.5 5 1.5 10.59375 
Q 1.5 22.5 11.140625 33.296875 
Q 20.796875 44.09375 30.703125 44.09375 
Q 33.796875 44.09375 35.25 42.6875 
Q 36.703125 41.296875 37.203125 38.296875 
L 37.296875 38.296875 
L 41.796875 54.59375 
Q 43.203125 59.5 43.203125 61.703125 
Q 43.203125 63.296875 42.09375 63.6875 
Q 41 64.09375 36.796875 64.296875 
L 36.796875 66 
Q 44.5 66.703125 52.09375 68.296875 
z
M 35.59375 36.09375 
Q 35.59375 38.703125 34.140625 40.25 
Q 32.703125 41.796875 30.90625 41.796875 
Q 26.203125 41.796875 21.796875 37.203125 
Q 16.796875 31.90625 13.5 24.546875 
Q 10.203125 17.203125 10.203125 11 
Q 10.203125 7.59375 11.75 5.640625 
Q 13.296875 3.703125 16 3.703125 
Q 20.5 3.703125 25.09375 8.59375 
Q 29.703125 13.5 32.640625 21.09375 
Q 35.59375 28.703125 35.59375 36.09375 
z
" id="STIXGeneral-Italic-100"/>
     </defs>
     <g transform="translate(551.344051 216.160659)rotate(-90)scale(0.14 -0.14)">
      <use transform="translate(0 0.40625)" xlink:href="#STIXGeneral-Italic-67"/>
      <use transform="translate(66.699997 -12.821875)scale(0.7)" xlink:href="#STIXGeneral-Italic-100"/>
     </g>
    </g>
   </g>
   <g id="line2d_28">
    <path clip-path="url(#p66ce4cff17)" d="M 565.083871 266.132337 
L 565.681106 263.155716 
L 566.278341 261.253918 
L 566.875576 259.937113 
L 567.472811 258.989139 
L 571.952074 252.879196 
L 576.132719 244.870734 
L 579.118894 238.196352 
L 584.792627 224.852411 
L 588.077419 217.585422 
L 591.063594 211.556657 
L 594.04977 206.207282 
L 596.737327 201.926983 
L 598.82765 198.927069 
L 600.917972 196.235772 
L 603.306912 193.472389 
L 605.695853 191.012786 
L 608.682028 188.336913 
L 612.265438 185.628429 
L 615.55023 183.53949 
L 617.939171 182.215207 
L 620.328111 181.029904 
L 623.314286 179.733303 
L 625.703226 178.818518 
L 628.092166 178.023424 
L 633.168664 176.539377 
L 637.349309 175.56215 
L 648.696774 173.56791 
L 666.315207 171.737546 
L 673.18341 171.261645 
L 679.454378 170.912931 
L 692.593548 170.341631 
L 731.413825 169.441193 
L 798.901382 168.977837 
L 831.749309 168.933934 
L 864.298618 168.934442 
L 864.298618 168.934442 
" style="fill:none;stroke:#1f77b4;stroke-linecap:square;stroke-width:3;"/>
   </g>
   <g id="line2d_29">
    <path clip-path="url(#p66ce4cff17)" d="M 565.083871 292.203146 
L 565.979724 286.921687 
L 566.875576 282.713424 
L 567.771429 279.97119 
L 568.368664 278.795217 
L 568.667281 278.513334 
L 569.861751 276.72152 
L 570.160369 276.022517 
L 570.458986 275.68481 
L 573.445161 269.387016 
L 577.327189 257.064229 
L 580.910599 243.858432 
L 581.209217 243.092857 
L 581.806452 240.4599 
L 582.702304 237.185094 
L 583.000922 236.298992 
L 583.598157 233.732572 
L 584.195392 231.642658 
L 585.688479 226.201977 
L 586.882949 222.211033 
L 587.778802 219.070891 
L 588.376037 217.276679 
L 592.258065 206.234636 
L 592.556682 205.599561 
L 593.153917 204.008232 
L 594.647005 200.587175 
L 595.24424 199.150652 
L 596.737327 196.092156 
L 601.21659 188.629935 
L 601.813825 188.056894 
L 602.709677 186.686437 
L 603.904147 185.265601 
L 604.501382 184.423035 
L 608.682028 180.329825 
L 609.279263 179.930274 
L 609.57788 179.77155 
L 610.473733 178.909186 
L 611.668203 178.230291 
L 612.564055 177.498516 
L 614.35576 176.687302 
L 614.654378 176.343744 
L 615.55023 176.047464 
L 616.7447 175.510468 
L 617.043318 175.51664 
L 617.640553 175.223919 
L 617.939171 175.249952 
L 618.237788 175.426979 
L 619.133641 174.555593 
L 620.029493 174.324464 
L 620.925346 173.929742 
L 621.223963 174.069876 
L 622.418433 173.774354 
L 622.717051 173.604283 
L 623.015668 173.280506 
L 623.612903 173.069702 
L 624.210138 173.27725 
L 624.807373 173.23307 
L 625.105991 173.097739 
L 625.703226 173.314579 
L 628.390783 172.438413 
L 628.689401 172.70075 
L 629.286636 172.739154 
L 629.883871 172.850033 
L 630.481106 172.556659 
L 630.779724 172.336519 
L 631.376959 172.354238 
L 631.974194 172.293639 
L 632.571429 172.177469 
L 632.870046 172.323999 
L 633.168664 172.245478 
L 634.363134 172.491277 
L 635.258986 172.263367 
L 636.453456 172.168667 
L 637.349309 172.263094 
L 637.647926 172.244636 
L 637.946544 172.347266 
L 640.634101 172.055131 
L 641.529954 172.214706 
L 643.023041 172.141817 
L 644.516129 171.908889 
L 648.398157 171.707846 
L 649.294009 171.730868 
L 651.682949 171.595237 
L 653.474654 171.36729 
L 655.863594 171.277921 
L 657.953917 171.127185 
L 659.447005 171.125643 
L 661.537327 170.912942 
L 663.030415 170.919906 
L 664.224885 170.890922 
L 666.613825 170.685115 
L 668.40553 170.730273 
L 669.301382 170.720845 
L 669.898618 170.647471 
L 671.093088 170.676982 
L 673.780645 170.654407 
L 679.752995 170.713235 
L 681.843318 170.807535 
L 683.037788 170.779706 
L 689.905991 170.956457 
L 691.100461 171.014371 
L 693.190783 171.01785 
L 694.683871 171.073031 
L 700.954839 171.171979 
L 703.642396 171.231654 
L 704.836866 171.233379 
L 706.031336 171.212287 
L 708.718894 171.244547 
L 714.094009 171.203545 
L 715.587097 171.166766 
L 721.559447 171.063439 
L 727.23318 170.939045 
L 730.517972 170.827514 
L 744.851613 170.426904 
L 747.837788 170.34484 
L 754.407373 170.167489 
L 757.990783 170.071999 
L 764.261751 169.910157 
L 767.546544 169.816414 
L 809.95023 168.699917 
L 818.311521 168.528053 
L 825.179724 168.400064 
L 842.798157 168.179135 
L 857.131797 168.072127 
L 864.298618 168.034802 
L 864.298618 168.034802 
" style="fill:none;stroke:#ff7f0e;stroke-linecap:square;stroke-width:3;"/>
   </g>
   <g id="line2d_30">
    <path clip-path="url(#p66ce4cff17)" d="M 565.382488 169.868263 
L 864 169.868263 
" style="fill:none;stroke:#000000;stroke-dasharray:3.2,0.8,0.5,0.8;stroke-dashoffset:0;stroke-width:0.5;"/>
   </g>
   <g id="line2d_31">
    <path clip-path="url(#p66ce4cff17)" d="M 565.382488 273.341317 
L 565.382488 144 
" style="fill:none;stroke:#000000;stroke-linecap:square;stroke-width:0.5;"/>
   </g>
   <g id="line2d_32">
    <path clip-path="url(#p66ce4cff17)" d="M 625.105991 273.341317 
L 625.105991 144 
" style="fill:none;stroke:#000000;stroke-dasharray:3.2,0.8,0.5,0.8;stroke-dashoffset:0;stroke-opacity:0.25;stroke-width:0.5;"/>
   </g>
   <g id="line2d_33">
    <path clip-path="url(#p66ce4cff17)" d="M 684.829493 273.341317 
L 684.829493 144 
" style="fill:none;stroke:#000000;stroke-dasharray:3.2,0.8,0.5,0.8;stroke-dashoffset:0;stroke-opacity:0.25;stroke-width:0.5;"/>
   </g>
   <g id="line2d_34">
    <path clip-path="url(#p66ce4cff17)" d="M 744.552995 273.341317 
L 744.552995 144 
" style="fill:none;stroke:#000000;stroke-dasharray:3.2,0.8,0.5,0.8;stroke-dashoffset:0;stroke-opacity:0.25;stroke-width:0.5;"/>
   </g>
   <g id="patch_8">
    <path d="M 565.382488 273.341317 
L 565.382488 144 
" style="fill:none;stroke:#000000;stroke-linecap:square;stroke-linejoin:miter;stroke-width:0.8;"/>
   </g>
   <g id="patch_9">
    <path d="M 864 273.341317 
L 864 144 
" style="fill:none;stroke:#000000;stroke-linecap:square;stroke-linejoin:miter;stroke-width:0.8;"/>
   </g>
   <g id="patch_10">
    <path d="M 565.382488 273.341317 
L 864 273.341317 
" style="fill:none;stroke:#000000;stroke-linecap:square;stroke-linejoin:miter;stroke-width:0.8;"/>
   </g>
   <g id="patch_11">
    <path d="M 565.382488 144 
L 864 144 
" style="fill:none;stroke:#000000;stroke-linecap:square;stroke-linejoin:miter;stroke-width:0.8;"/>
   </g>
   <g id="text_7">
    <!-- $s/c = 1.5$ -->
    <defs>
     <path d="M 36.59375 44.203125 
L 34.59375 30.203125 
L 33 30.203125 
Q 31.59375 41.796875 24.09375 41.796875 
Q 21.40625 41.796875 19.796875 40.296875 
Q 18.203125 38.796875 18.203125 36.09375 
Q 18.203125 32.296875 23.59375 25.90625 
Q 30.40625 18 30.40625 12.296875 
Q 30.40625 6.203125 26.34375 2.546875 
Q 22.296875 -1.09375 16 -1.09375 
Q 13.09375 -1.09375 10.5 -0.09375 
Q 8.40625 0.796875 6.09375 0.796875 
Q 4.09375 0.796875 3.203125 -1.296875 
L 1.59375 -1.296875 
L 3.59375 14.59375 
L 5.203125 14.59375 
Q 7.203125 1 15.203125 1 
Q 18.796875 1 20.796875 3 
Q 22.796875 5 22.796875 8.703125 
Q 22.796875 13.203125 17.203125 20.203125 
Q 10.90625 28.09375 10.90625 33.296875 
Q 10.90625 38.296875 14.203125 41.1875 
Q 17.5 44.09375 23 44.09375 
Q 25 44.09375 28.59375 43.09375 
Q 30.796875 42.40625 32.203125 42.40625 
Q 34.203125 42.40625 35.203125 44.203125 
z
" id="STIXGeneral-Italic-115"/>
     <path d="M 28.703125 67.59375 
L 5.90625 -1.40625 
L -0.90625 -1.40625 
L 22 67.59375 
z
" id="STIXGeneral-Regular-47"/>
     <path d="M 35 10.703125 
L 36.59375 9.703125 
Q 32 3.90625 27.640625 1.40625 
Q 23.296875 -1.09375 17.703125 -1.09375 
Q 10.59375 -1.09375 6.796875 2.796875 
Q 3 6.703125 3 14.296875 
Q 3 21 6.390625 27.25 
Q 9.796875 33.5 15.296875 38 
Q 23 44.09375 32 44.09375 
Q 36.59375 44.09375 39.546875 41.796875 
Q 42.5 39.5 42.5 36 
Q 42.5 34 41.09375 32.59375 
Q 39.703125 31.203125 37.703125 31.203125 
Q 35.703125 31.203125 34.75 32.34375 
Q 33.796875 33.5 33.796875 35.203125 
Q 33.796875 36.09375 34.546875 37.546875 
Q 35.296875 39 35.296875 40 
Q 35.296875 42 31.59375 42 
Q 25.296875 42 20.703125 37.203125 
Q 11.59375 27.59375 11.59375 13.90625 
Q 11.59375 8.5 13.890625 5.5 
Q 16.203125 2.5 20.5 2.5 
Q 24.40625 2.5 27.59375 4.390625 
Q 30.796875 6.296875 35 10.703125 
z
" id="STIXGeneral-Italic-99"/>
     <path d="M 63.703125 32 
L 4.796875 32 
L 4.796875 38.59375 
L 63.703125 38.59375 
z
M 63.703125 12 
L 4.796875 12 
L 4.796875 18.59375 
L 63.703125 18.59375 
z
" id="STIXGeneral-Regular-61"/>
     <path d="M 39.40625 0 
L 11.796875 0 
L 11.796875 1.5 
Q 17.296875 1.796875 19.296875 3.546875 
Q 21.296875 5.296875 21.296875 9.5 
L 21.296875 54.40625 
Q 21.296875 59.296875 18.296875 59.296875 
Q 16.90625 59.296875 13.796875 58.09375 
L 11.09375 57.09375 
L 11.09375 58.5 
L 29 67.59375 
L 29.90625 67.296875 
L 29.90625 7.59375 
Q 29.90625 4.296875 31.90625 2.890625 
Q 33.90625 1.5 39.40625 1.5 
z
" id="STIXGeneral-Regular-49"/>
    </defs>
    <g transform="translate(873.467926 211.932221)scale(0.14 -0.14)">
     <use transform="translate(0 0.203125)" xlink:href="#STIXGeneral-Italic-115"/>
     <use transform="translate(38.899994 0.203125)" xlink:href="#STIXGeneral-Regular-47"/>
     <use transform="translate(66.699982 0.203125)" xlink:href="#STIXGeneral-Italic-99"/>
     <use transform="translate(125.539972 0.203125)" xlink:href="#STIXGeneral-Regular-61"/>
     <use transform="translate(208.479953 0.203125)" xlink:href="#STIXGeneral-Regular-49"/>
     <use transform="translate(258.479938 0.203125)" xlink:href="#STIXGeneral-Regular-46"/>
     <use transform="translate(283.479922 0.203125)" xlink:href="#STIXGeneral-Regular-53"/>
    </g>
   </g>
   <g id="legend_1">
    <g id="line2d_35">
     <path d="M 466.018733 131.415823 
L 489.342733 131.415823 
" style="fill:none;stroke:#1f77b4;stroke-linecap:square;stroke-width:3;"/>
    </g>
    <g id="line2d_36"/>
    <g id="text_8">
     <!-- $Re = 10^2$ -->
     <defs>
      <path d="M 13.203125 65.296875 
L 38.40625 65.296875 
Q 48.09375 65.296875 53.4375 61.5 
Q 58.796875 57.703125 58.796875 51.203125 
Q 58.796875 43.40625 52.203125 38.40625 
Q 48.296875 35.40625 39.09375 33.296875 
L 48 9.796875 
Q 49.703125 5.203125 51.546875 3.390625 
Q 53.40625 1.59375 56.703125 1.59375 
L 56.703125 0 
L 42 0 
L 29.703125 32.40625 
L 23.09375 32.90625 
L 17.59375 12.59375 
Q 16.296875 8 16.296875 6.296875 
Q 16.296875 4 17.59375 3 
Q 18.90625 2 23 1.59375 
L 23 0 
L -1.296875 0 
L -1.296875 1.59375 
Q 2.703125 2.09375 4.34375 3.796875 
Q 6 5.5 7.203125 10.09375 
L 19.09375 53.203125 
Q 20.296875 57.796875 20.296875 59.5 
Q 20.296875 61.296875 18.90625 62.296875 
Q 17.703125 63.09375 13.203125 63.703125 
z
M 30.59375 59.296875 
L 24.296875 36.59375 
Q 27.40625 36.09375 29.40625 36.09375 
Q 38.296875 36.09375 43.296875 40.09375 
Q 48.296875 44.09375 48.296875 51.09375 
Q 48.296875 56.296875 45.1875 59.296875 
Q 42.09375 62.296875 36.296875 62.296875 
Q 31.40625 62.296875 30.59375 59.296875 
z
" id="STIXGeneral-Italic-82"/>
      <path d="M 35.796875 10.90625 
L 37 9.703125 
Q 28.203125 -1.09375 16.59375 -1.09375 
Q 10.5 -1.09375 6.796875 2.65625 
Q 3.09375 6.40625 3.09375 12.59375 
Q 3.09375 24.296875 12.4375 34.1875 
Q 21.796875 44.09375 33 44.09375 
Q 36.90625 44.09375 39.046875 42.296875 
Q 41.203125 40.5 41.203125 37.296875 
Q 41.203125 30.703125 33.546875 25.5 
Q 25.90625 20.296875 12.796875 18.59375 
Q 11.796875 16.59375 11.796875 12.5 
Q 11.796875 8.40625 14.34375 5.90625 
Q 16.90625 3.40625 21.09375 3.40625 
Q 24.40625 3.40625 27.40625 4.953125 
Q 30.40625 6.5 35.796875 10.90625 
z
M 15.203125 25.203125 
L 13.5 20.796875 
Q 24.703125 23.5 29.59375 28.203125 
Q 34.59375 33 34.59375 37.90625 
Q 34.59375 41.796875 31.09375 41.796875 
Q 26.90625 41.796875 22.34375 36.9375 
Q 17.796875 32.09375 15.203125 25.203125 
z
" id="STIXGeneral-Italic-101"/>
     </defs>
     <g transform="translate(498.672333 135.497523)scale(0.11662 -0.11662)">
      <use transform="translate(0 0.409375)" xlink:href="#STIXGeneral-Italic-82"/>
      <use transform="translate(61.099991 0.409375)" xlink:href="#STIXGeneral-Italic-101"/>
      <use transform="translate(119.939981 0.409375)" xlink:href="#STIXGeneral-Regular-61"/>
      <use transform="translate(202.879962 0.409375)" xlink:href="#STIXGeneral-Regular-49"/>
      <use transform="translate(252.879947 0.409375)" xlink:href="#STIXGeneral-Regular-48"/>
      <use transform="translate(304.423213 35.684375)scale(0.7)" xlink:href="#STIXGeneral-Regular-50"/>
     </g>
    </g>
    <g id="line2d_37">
     <path d="M 562.113613 131.415823 
L 585.437613 131.415823 
" style="fill:none;stroke:#ff7f0e;stroke-linecap:square;stroke-width:3;"/>
    </g>
    <g id="line2d_38"/>
    <g id="text_9">
     <!-- $Re = 10^3$ -->
     <defs>
      <path d="M 6.09375 51 
L 4.5 51.40625 
Q 6.796875 58.90625 11.6875 63.25 
Q 16.59375 67.59375 24.09375 67.59375 
Q 31.09375 67.59375 35.390625 63.796875 
Q 39.703125 60 39.703125 53.90625 
Q 39.703125 45.703125 30.40625 40.09375 
Q 35.90625 37.703125 38.703125 34.796875 
Q 43.09375 29.90625 43.09375 21.90625 
Q 43.09375 13.90625 38.5 7.90625 
Q 35.09375 3.296875 28.75 0.9375 
Q 22.40625 -1.40625 15.296875 -1.40625 
Q 4.09375 -1.40625 4.09375 4.296875 
Q 4.09375 5.90625 5.296875 6.90625 
Q 6.5 7.90625 8.203125 7.90625 
Q 10.703125 7.90625 14.296875 5.296875 
Q 18.703125 2.203125 22.90625 2.203125 
Q 28.40625 2.203125 32.15625 6.640625 
Q 35.90625 11.09375 35.90625 17.5 
Q 35.90625 29 25.5 32 
Q 22.40625 33 15.296875 33 
L 15.296875 34.40625 
Q 20.90625 36.296875 23.703125 38 
Q 31.796875 42.59375 31.796875 51.40625 
Q 31.796875 56.40625 28.9375 59 
Q 26.09375 61.59375 21 61.59375 
Q 12 61.59375 6.09375 51 
z
" id="STIXGeneral-Regular-51"/>
     </defs>
     <g transform="translate(594.767213 135.497523)scale(0.11662 -0.11662)">
      <use transform="translate(0 0.409375)" xlink:href="#STIXGeneral-Italic-82"/>
      <use transform="translate(61.099991 0.409375)" xlink:href="#STIXGeneral-Italic-101"/>
      <use transform="translate(119.939981 0.409375)" xlink:href="#STIXGeneral-Regular-61"/>
      <use transform="translate(202.879962 0.409375)" xlink:href="#STIXGeneral-Regular-49"/>
      <use transform="translate(252.879947 0.409375)" xlink:href="#STIXGeneral-Regular-48"/>
      <use transform="translate(304.423213 35.684375)scale(0.7)" xlink:href="#STIXGeneral-Regular-51"/>
     </g>
    </g>
   </g>
  </g>
  <g id="axes_3">
   <g id="patch_12">
    <path d="M 216 424.670659 
L 514.617512 424.670659 
L 514.617512 295.329341 
L 216 295.329341 
z
" style="fill:#ffffff;"/>
   </g>
   <g id="matplotlib.axis_5">
    <g id="xtick_13">
     <g id="line2d_39">
      <g>
       <use style="fill:#ffffff;stroke:#000000;stroke-width:0.8;" x="216" xlink:href="#m38d8f08a15" y="424.670659"/>
      </g>
     </g>
    </g>
    <g id="xtick_14">
     <g id="line2d_40">
      <g>
       <use style="fill:#ffffff;stroke:#000000;stroke-width:0.8;" x="275.723502" xlink:href="#m38d8f08a15" y="424.670659"/>
      </g>
     </g>
    </g>
    <g id="xtick_15">
     <g id="line2d_41">
      <g>
       <use style="fill:#ffffff;stroke:#000000;stroke-width:0.8;" x="335.447005" xlink:href="#m38d8f08a15" y="424.670659"/>
      </g>
     </g>
    </g>
    <g id="xtick_16">
     <g id="line2d_42">
      <g>
       <use style="fill:#ffffff;stroke:#000000;stroke-width:0.8;" x="395.170507" xlink:href="#m38d8f08a15" y="424.670659"/>
      </g>
     </g>
    </g>
    <g id="xtick_17">
     <g id="line2d_43">
      <g>
       <use style="fill:#ffffff;stroke:#000000;stroke-width:0.8;" x="454.894009" xlink:href="#m38d8f08a15" y="424.670659"/>
      </g>
     </g>
    </g>
    <g id="xtick_18">
     <g id="line2d_44">
      <g>
       <use style="fill:#ffffff;stroke:#000000;stroke-width:0.8;" x="514.617512" xlink:href="#m38d8f08a15" y="424.670659"/>
      </g>
     </g>
    </g>
   </g>
   <g id="matplotlib.axis_6">
    <g id="ytick_9">
     <g id="line2d_45">
      <g>
       <use style="fill:#ffffff;stroke:#000000;stroke-width:0.8;" x="216" xlink:href="#m8b106a89ae" y="418.203593"/>
      </g>
     </g>
     <g id="text_10">
      <!-- −7.5 -->
      <g transform="translate(181.91 422.984374)scale(0.14 -0.14)">
       <use xlink:href="#STIXGeneral-Regular-8722"/>
       <use x="68.499985" xlink:href="#STIXGeneral-Regular-55"/>
       <use x="118.499969" xlink:href="#STIXGeneral-Regular-46"/>
       <use x="143.499954" xlink:href="#STIXGeneral-Regular-53"/>
      </g>
     </g>
    </g>
    <g id="ytick_10">
     <g id="line2d_46">
      <g>
       <use style="fill:#ffffff;stroke:#000000;stroke-width:0.8;" x="216" xlink:href="#m8b106a89ae" y="385.868263"/>
      </g>
     </g>
     <g id="text_11">
      <!-- −5.0 -->
      <g transform="translate(181.91 390.649045)scale(0.14 -0.14)">
       <use xlink:href="#STIXGeneral-Regular-8722"/>
       <use x="68.499985" xlink:href="#STIXGeneral-Regular-53"/>
       <use x="118.499969" xlink:href="#STIXGeneral-Regular-46"/>
       <use x="143.499954" xlink:href="#STIXGeneral-Regular-48"/>
      </g>
     </g>
    </g>
    <g id="ytick_11">
     <g id="line2d_47">
      <g>
       <use style="fill:#ffffff;stroke:#000000;stroke-width:0.8;" x="216" xlink:href="#m8b106a89ae" y="353.532934"/>
      </g>
     </g>
     <g id="text_12">
      <!-- −2.5 -->
      <g transform="translate(181.91 358.313715)scale(0.14 -0.14)">
       <use xlink:href="#STIXGeneral-Regular-8722"/>
       <use x="68.499985" xlink:href="#STIXGeneral-Regular-50"/>
       <use x="118.499969" xlink:href="#STIXGeneral-Regular-46"/>
       <use x="143.499954" xlink:href="#STIXGeneral-Regular-53"/>
      </g>
     </g>
    </g>
    <g id="ytick_12">
     <g id="line2d_48">
      <g>
       <use style="fill:#ffffff;stroke:#000000;stroke-width:0.8;" x="216" xlink:href="#m8b106a89ae" y="321.197605"/>
      </g>
     </g>
     <g id="text_13">
      <!-- 0.0 -->
      <g transform="translate(191.5 325.978386)scale(0.14 -0.14)">
       <use xlink:href="#STIXGeneral-Regular-48"/>
       <use x="49.999985" xlink:href="#STIXGeneral-Regular-46"/>
       <use x="74.999969" xlink:href="#STIXGeneral-Regular-48"/>
      </g>
     </g>
    </g>
    <g id="text_14">
     <!-- $C_l$ -->
     <g transform="translate(174.871562 366.37)rotate(-90)scale(0.14 -0.14)">
      <use transform="translate(0 0.40625)" xlink:href="#STIXGeneral-Italic-67"/>
      <use transform="translate(66.699997 -12.821875)scale(0.7)" xlink:href="#STIXGeneral-Italic-108"/>
     </g>
    </g>
   </g>
   <g id="line2d_49">
    <path clip-path="url(#pd9c850f2d8)" d="M 215.701382 329.324737 
L 219.284793 328.373728 
L 235.111521 323.954509 
L 240.486636 322.775172 
L 245.861751 321.827143 
L 251.535484 321.058263 
L 257.806452 320.442782 
L 264.973272 319.966716 
L 273.931797 319.603389 
L 285.876498 319.35858 
L 302.300461 319.25767 
L 328.877419 319.337398 
L 410.101382 319.893283 
L 514.916129 320.577493 
L 514.916129 320.577493 
" style="fill:none;stroke:#1f77b4;stroke-linecap:square;stroke-width:3;"/>
   </g>
   <g id="line2d_50">
    <path clip-path="url(#pd9c850f2d8)" d="M 215.701382 327.02391 
L 219.284793 325.509742 
L 226.152995 322.662064 
L 229.736406 321.301707 
L 232.722581 320.404621 
L 235.708756 319.740748 
L 239.292166 319.205644 
L 243.174194 318.876764 
L 247.952074 318.712391 
L 254.521659 318.729604 
L 264.973272 318.999925 
L 297.522581 320.189709 
L 317.529954 320.893408 
L 330.669124 321.083819 
L 365.308756 321.288389 
L 418.76129 321.449783 
L 494.012903 321.428096 
L 514.916129 321.407219 
L 514.916129 321.407219 
" style="fill:none;stroke:#ff7f0e;stroke-linecap:square;stroke-width:3;"/>
   </g>
   <g id="line2d_51">
    <path clip-path="url(#pd9c850f2d8)" d="M 216 321.197605 
L 514.617512 321.197605 
" style="fill:none;stroke:#000000;stroke-dasharray:3.2,0.8,0.5,0.8;stroke-dashoffset:0;stroke-width:0.5;"/>
   </g>
   <g id="line2d_52">
    <path clip-path="url(#pd9c850f2d8)" d="M 216 424.670659 
L 216 295.329341 
" style="fill:none;stroke:#000000;stroke-linecap:square;stroke-width:0.5;"/>
   </g>
   <g id="line2d_53">
    <path clip-path="url(#pd9c850f2d8)" d="M 275.723502 424.670659 
L 275.723502 295.329341 
" style="fill:none;stroke:#000000;stroke-dasharray:3.2,0.8,0.5,0.8;stroke-dashoffset:0;stroke-opacity:0.25;stroke-width:0.5;"/>
   </g>
   <g id="line2d_54">
    <path clip-path="url(#pd9c850f2d8)" d="M 335.447005 424.670659 
L 335.447005 295.329341 
" style="fill:none;stroke:#000000;stroke-dasharray:3.2,0.8,0.5,0.8;stroke-dashoffset:0;stroke-opacity:0.25;stroke-width:0.5;"/>
   </g>
   <g id="line2d_55">
    <path clip-path="url(#pd9c850f2d8)" d="M 395.170507 424.670659 
L 395.170507 295.329341 
" style="fill:none;stroke:#000000;stroke-dasharray:3.2,0.8,0.5,0.8;stroke-dashoffset:0;stroke-opacity:0.25;stroke-width:0.5;"/>
   </g>
   <g id="patch_13">
    <path d="M 216 424.670659 
L 216 295.329341 
" style="fill:none;stroke:#000000;stroke-linecap:square;stroke-linejoin:miter;stroke-width:0.8;"/>
   </g>
   <g id="patch_14">
    <path d="M 514.617512 424.670659 
L 514.617512 295.329341 
" style="fill:none;stroke:#000000;stroke-linecap:square;stroke-linejoin:miter;stroke-width:0.8;"/>
   </g>
   <g id="patch_15">
    <path d="M 216 424.670659 
L 514.617512 424.670659 
" style="fill:none;stroke:#000000;stroke-linecap:square;stroke-linejoin:miter;stroke-width:0.8;"/>
   </g>
   <g id="patch_16">
    <path d="M 216 295.329341 
L 514.617512 295.329341 
" style="fill:none;stroke:#000000;stroke-linecap:square;stroke-linejoin:miter;stroke-width:0.8;"/>
   </g>
  </g>
  <g id="axes_4">
   <g id="patch_17">
    <path d="M 565.382488 424.670659 
L 864 424.670659 
L 864 295.329341 
L 565.382488 295.329341 
z
" style="fill:#ffffff;"/>
   </g>
   <g id="matplotlib.axis_7">
    <g id="xtick_19">
     <g id="line2d_56">
      <g>
       <use style="fill:#ffffff;stroke:#000000;stroke-width:0.8;" x="565.382488" xlink:href="#m38d8f08a15" y="424.670659"/>
      </g>
     </g>
    </g>
    <g id="xtick_20">
     <g id="line2d_57">
      <g>
       <use style="fill:#ffffff;stroke:#000000;stroke-width:0.8;" x="625.105991" xlink:href="#m38d8f08a15" y="424.670659"/>
      </g>
     </g>
    </g>
    <g id="xtick_21">
     <g id="line2d_58">
      <g>
       <use style="fill:#ffffff;stroke:#000000;stroke-width:0.8;" x="684.829493" xlink:href="#m38d8f08a15" y="424.670659"/>
      </g>
     </g>
    </g>
    <g id="xtick_22">
     <g id="line2d_59">
      <g>
       <use style="fill:#ffffff;stroke:#000000;stroke-width:0.8;" x="744.552995" xlink:href="#m38d8f08a15" y="424.670659"/>
      </g>
     </g>
    </g>
    <g id="xtick_23">
     <g id="line2d_60">
      <g>
       <use style="fill:#ffffff;stroke:#000000;stroke-width:0.8;" x="804.276498" xlink:href="#m38d8f08a15" y="424.670659"/>
      </g>
     </g>
    </g>
    <g id="xtick_24">
     <g id="line2d_61">
      <g>
       <use style="fill:#ffffff;stroke:#000000;stroke-width:0.8;" x="864" xlink:href="#m38d8f08a15" y="424.670659"/>
      </g>
     </g>
    </g>
   </g>
   <g id="matplotlib.axis_8">
    <g id="ytick_13">
     <g id="line2d_62">
      <g>
       <use style="fill:#ffffff;stroke:#000000;stroke-width:0.8;" x="565.382488" xlink:href="#m8b106a89ae" y="418.203593"/>
      </g>
     </g>
    </g>
    <g id="ytick_14">
     <g id="line2d_63">
      <g>
       <use style="fill:#ffffff;stroke:#000000;stroke-width:0.8;" x="565.382488" xlink:href="#m8b106a89ae" y="385.868263"/>
      </g>
     </g>
    </g>
    <g id="ytick_15">
     <g id="line2d_64">
      <g>
       <use style="fill:#ffffff;stroke:#000000;stroke-width:0.8;" x="565.382488" xlink:href="#m8b106a89ae" y="353.532934"/>
      </g>
     </g>
    </g>
    <g id="ytick_16">
     <g id="line2d_65">
      <g>
       <use style="fill:#ffffff;stroke:#000000;stroke-width:0.8;" x="565.382488" xlink:href="#m8b106a89ae" y="321.197605"/>
      </g>
     </g>
    </g>
    <g id="text_15">
     <!-- $C_d$ -->
     <g transform="translate(551.344051 367.49)rotate(-90)scale(0.14 -0.14)">
      <use transform="translate(0 0.40625)" xlink:href="#STIXGeneral-Italic-67"/>
      <use transform="translate(66.699997 -12.821875)scale(0.7)" xlink:href="#STIXGeneral-Italic-100"/>
     </g>
    </g>
   </g>
   <g id="line2d_66">
    <path clip-path="url(#pe9e220b299)" d="M 565.083871 357.555014 
L 565.681106 356.407378 
L 566.278341 355.649415 
L 567.174194 354.956943 
L 568.070046 354.598404 
L 570.458986 354.184733 
L 572.250691 353.88844 
L 574.639631 353.231396 
L 577.625806 352.037628 
L 579.716129 350.984279 
L 583.299539 348.878233 
L 588.376037 345.568359 
L 594.945622 341.298757 
L 600.02212 338.273596 
L 604.202765 336.033137 
L 608.084793 334.190391 
L 611.96682 332.580391 
L 616.147465 331.080105 
L 620.925346 329.624856 
L 625.404608 328.481356 
L 630.779724 327.350942 
L 637.647926 326.212513 
L 643.620276 325.442252 
L 650.787097 324.723949 
L 662.731797 323.863029 
L 674.37788 323.276071 
L 690.503226 322.704589 
L 718.573272 322.042342 
L 749.032258 321.572253 
L 783.671889 321.256432 
L 833.839631 321.071488 
L 864.298618 321.038609 
L 864.298618 321.038609 
" style="fill:none;stroke:#1f77b4;stroke-linecap:square;stroke-width:3;"/>
   </g>
   <g id="line2d_67">
    <path clip-path="url(#pe9e220b299)" d="M 565.083871 378.512515 
L 565.979724 378.417413 
L 568.965899 379.092928 
L 569.861751 379.088259 
L 571.653456 378.644538 
L 572.847926 377.927803 
L 574.042396 376.821102 
L 575.535484 374.907186 
L 576.729954 372.913925 
L 578.820276 368.643534 
L 580.611982 364.450216 
L 587.778802 347.807774 
L 588.973272 345.418956 
L 591.362212 341.178273 
L 594.945622 335.975955 
L 598.529032 332.062669 
L 602.112442 329.286093 
L 605.695853 327.369678 
L 608.38341 326.409022 
L 609.279263 326.191831 
L 609.876498 325.92923 
L 611.070968 325.660728 
L 611.668203 325.581104 
L 614.654378 325.049086 
L 616.147465 324.900862 
L 616.7447 324.735765 
L 617.939171 324.708541 
L 618.835023 324.60989 
L 619.730876 324.488946 
L 620.925346 324.480634 
L 622.717051 324.328769 
L 623.314286 324.347467 
L 624.210138 324.237047 
L 624.807373 324.260648 
L 627.793548 324.151645 
L 628.689401 324.173557 
L 629.883871 324.182074 
L 631.974194 324.173225 
L 638.245161 324.467745 
L 639.141014 324.550342 
L 640.932719 324.70598 
L 642.127189 324.827689 
L 647.800922 325.644446 
L 660.04424 327.936689 
L 666.613825 328.777599 
L 674.37788 328.961911 
L 679.454378 328.713263 
L 687.517051 328.012344 
L 691.399078 327.631235 
L 699.461751 326.914054 
L 704.538249 326.510911 
L 717.080184 325.63646 
L 723.052535 325.263789 
L 739.476498 324.290692 
L 754.705991 323.561864 
L 794.42212 322.469487 
L 829.360369 322.095461 
L 864.298618 321.855748 
L 864.298618 321.855748 
" style="fill:none;stroke:#ff7f0e;stroke-linecap:square;stroke-width:3;"/>
   </g>
   <g id="line2d_68">
    <path clip-path="url(#pe9e220b299)" d="M 565.382488 321.197605 
L 864 321.197605 
" style="fill:none;stroke:#000000;stroke-dasharray:3.2,0.8,0.5,0.8;stroke-dashoffset:0;stroke-width:0.5;"/>
   </g>
   <g id="line2d_69">
    <path clip-path="url(#pe9e220b299)" d="M 565.382488 424.670659 
L 565.382488 295.329341 
" style="fill:none;stroke:#000000;stroke-linecap:square;stroke-width:0.5;"/>
   </g>
   <g id="line2d_70">
    <path clip-path="url(#pe9e220b299)" d="M 625.105991 424.670659 
L 625.105991 295.329341 
" style="fill:none;stroke:#000000;stroke-dasharray:3.2,0.8,0.5,0.8;stroke-dashoffset:0;stroke-opacity:0.25;stroke-width:0.5;"/>
   </g>
   <g id="line2d_71">
    <path clip-path="url(#pe9e220b299)" d="M 684.829493 424.670659 
L 684.829493 295.329341 
" style="fill:none;stroke:#000000;stroke-dasharray:3.2,0.8,0.5,0.8;stroke-dashoffset:0;stroke-opacity:0.25;stroke-width:0.5;"/>
   </g>
   <g id="line2d_72">
    <path clip-path="url(#pe9e220b299)" d="M 744.552995 424.670659 
L 744.552995 295.329341 
" style="fill:none;stroke:#000000;stroke-dasharray:3.2,0.8,0.5,0.8;stroke-dashoffset:0;stroke-opacity:0.25;stroke-width:0.5;"/>
   </g>
   <g id="patch_18">
    <path d="M 565.382488 424.670659 
L 565.382488 295.329341 
" style="fill:none;stroke:#000000;stroke-linecap:square;stroke-linejoin:miter;stroke-width:0.8;"/>
   </g>
   <g id="patch_19">
    <path d="M 864 424.670659 
L 864 295.329341 
" style="fill:none;stroke:#000000;stroke-linecap:square;stroke-linejoin:miter;stroke-width:0.8;"/>
   </g>
   <g id="patch_20">
    <path d="M 565.382488 424.670659 
L 864 424.670659 
" style="fill:none;stroke:#000000;stroke-linecap:square;stroke-linejoin:miter;stroke-width:0.8;"/>
   </g>
   <g id="patch_21">
    <path d="M 565.382488 295.329341 
L 864 295.329341 
" style="fill:none;stroke:#000000;stroke-linecap:square;stroke-linejoin:miter;stroke-width:0.8;"/>
   </g>
   <g id="text_16">
    <!-- $s/c = 3.0$ -->
    <g transform="translate(873.467926 363.261563)scale(0.14 -0.14)">
     <use transform="translate(0 0.40625)" xlink:href="#STIXGeneral-Italic-115"/>
     <use transform="translate(38.899994 0.40625)" xlink:href="#STIXGeneral-Regular-47"/>
     <use transform="translate(66.699982 0.40625)" xlink:href="#STIXGeneral-Italic-99"/>
     <use transform="translate(125.539972 0.40625)" xlink:href="#STIXGeneral-Regular-61"/>
     <use transform="translate(208.479953 0.40625)" xlink:href="#STIXGeneral-Regular-51"/>
     <use transform="translate(258.479938 0.40625)" xlink:href="#STIXGeneral-Regular-46"/>
     <use transform="translate(283.479922 0.40625)" xlink:href="#STIXGeneral-Regular-48"/>
    </g>
   </g>
  </g>
  <g id="axes_5">
   <g id="patch_22">
    <path d="M 216 576 
L 514.617512 576 
L 514.617512 446.658683 
L 216 446.658683 
z
" style="fill:#ffffff;"/>
   </g>
   <g id="matplotlib.axis_9">
    <g id="xtick_25">
     <g id="line2d_73">
      <g>
       <use style="fill:#ffffff;stroke:#000000;stroke-width:0.8;" x="216" xlink:href="#m38d8f08a15" y="576"/>
      </g>
     </g>
     <g id="text_17">
      <!-- 1.0 -->
      <g transform="translate(207.25 592.561563)scale(0.14 -0.14)">
       <use xlink:href="#STIXGeneral-Regular-49"/>
       <use x="49.999985" xlink:href="#STIXGeneral-Regular-46"/>
       <use x="74.999969" xlink:href="#STIXGeneral-Regular-48"/>
      </g>
     </g>
    </g>
    <g id="xtick_26">
     <g id="line2d_74">
      <g>
       <use style="fill:#ffffff;stroke:#000000;stroke-width:0.8;" x="275.723502" xlink:href="#m38d8f08a15" y="576"/>
      </g>
     </g>
     <g id="text_18">
      <!-- 1.2 -->
      <g transform="translate(266.973502 592.561563)scale(0.14 -0.14)">
       <use xlink:href="#STIXGeneral-Regular-49"/>
       <use x="49.999985" xlink:href="#STIXGeneral-Regular-46"/>
       <use x="74.999969" xlink:href="#STIXGeneral-Regular-50"/>
      </g>
     </g>
    </g>
    <g id="xtick_27">
     <g id="line2d_75">
      <g>
       <use style="fill:#ffffff;stroke:#000000;stroke-width:0.8;" x="335.447005" xlink:href="#m38d8f08a15" y="576"/>
      </g>
     </g>
     <g id="text_19">
      <!-- 1.4 -->
      <defs>
       <path d="M 47.296875 16.703125 
L 37 16.703125 
L 37 0 
L 29.203125 0 
L 29.203125 16.703125 
L 1.203125 16.703125 
L 1.203125 23.09375 
L 32.59375 67.59375 
L 37 67.59375 
L 37 23.09375 
L 47.296875 23.09375 
z
M 29.203125 23.09375 
L 29.203125 57.40625 
L 5.203125 23.09375 
z
" id="STIXGeneral-Regular-52"/>
      </defs>
      <g transform="translate(326.697005 592.561563)scale(0.14 -0.14)">
       <use xlink:href="#STIXGeneral-Regular-49"/>
       <use x="49.999985" xlink:href="#STIXGeneral-Regular-46"/>
       <use x="74.999969" xlink:href="#STIXGeneral-Regular-52"/>
      </g>
     </g>
    </g>
    <g id="xtick_28">
     <g id="line2d_76">
      <g>
       <use style="fill:#ffffff;stroke:#000000;stroke-width:0.8;" x="395.170507" xlink:href="#m38d8f08a15" y="576"/>
      </g>
     </g>
     <g id="text_20">
      <!-- 1.6 -->
      <defs>
       <path d="M 44.59375 68.40625 
L 44.796875 66.796875 
Q 33 64.90625 25.09375 57.25 
Q 17.203125 49.59375 15.203125 38.296875 
Q 21 42.796875 27.90625 42.796875 
Q 36.703125 42.796875 41.75 37.1875 
Q 46.796875 31.59375 46.796875 21.90625 
Q 46.796875 12.09375 41.703125 5.90625 
Q 35.796875 -1.40625 25.796875 -1.40625 
Q 13.59375 -1.40625 8.09375 8.703125 
Q 3.40625 17.296875 3.40625 27.90625 
Q 3.40625 44.296875 14.296875 55.5 
Q 20.5 61.90625 27.046875 64.546875 
Q 33.59375 67.203125 44.59375 68.40625 
z
M 37.796875 18.796875 
Q 37.796875 38.203125 24.296875 38.203125 
Q 19.296875 38.203125 16 35.546875 
Q 12.703125 32.90625 12.703125 26.59375 
Q 12.703125 14.90625 16.34375 8.15625 
Q 20 1.40625 26.90625 1.40625 
Q 32.203125 1.40625 35 6.15625 
Q 37.796875 10.90625 37.796875 18.796875 
z
" id="STIXGeneral-Regular-54"/>
      </defs>
      <g transform="translate(386.420507 592.561563)scale(0.14 -0.14)">
       <use xlink:href="#STIXGeneral-Regular-49"/>
       <use x="49.999985" xlink:href="#STIXGeneral-Regular-46"/>
       <use x="74.999969" xlink:href="#STIXGeneral-Regular-54"/>
      </g>
     </g>
    </g>
    <g id="xtick_29">
     <g id="line2d_77">
      <g>
       <use style="fill:#ffffff;stroke:#000000;stroke-width:0.8;" x="454.894009" xlink:href="#m38d8f08a15" y="576"/>
      </g>
     </g>
     <g id="text_21">
      <!-- 1.8 -->
      <defs>
       <path d="M 44.5 15.5 
Q 44.5 7.796875 39.140625 3.1875 
Q 33.796875 -1.40625 24.796875 -1.40625 
Q 16.40625 -1.40625 11 3.1875 
Q 5.59375 7.796875 5.59375 14.90625 
Q 5.59375 20.203125 8.1875 23.953125 
Q 10.796875 27.703125 18.59375 33.203125 
Q 11.09375 39.40625 8.640625 43.203125 
Q 6.203125 47 6.203125 52 
Q 6.203125 59.09375 11.640625 63.34375 
Q 17.09375 67.59375 25.59375 67.59375 
Q 32.90625 67.59375 37.65625 63.4375 
Q 42.40625 59.296875 42.40625 53.296875 
Q 42.40625 47.796875 39.546875 44.5 
Q 36.703125 41.203125 29 37.09375 
Q 38 31.09375 41.25 26.390625 
Q 44.5 21.703125 44.5 15.5 
z
M 35.5 53.296875 
Q 35.5 58.5 32.59375 61.640625 
Q 29.703125 64.796875 24.59375 64.796875 
Q 19.5 64.796875 16.546875 62.140625 
Q 13.59375 59.5 13.59375 54.890625 
Q 13.59375 50.296875 16.546875 46.546875 
Q 19.5 42.796875 26.09375 38.90625 
Q 31.203125 41.90625 33.34375 45.25 
Q 35.5 48.59375 35.5 53.296875 
z
M 27.09375 27.203125 
L 21.203125 31.203125 
Q 16.796875 27.59375 15 24.140625 
Q 13.203125 20.703125 13.203125 15.796875 
Q 13.203125 9 16.640625 5.203125 
Q 20.09375 1.40625 25.90625 1.40625 
Q 30.796875 1.40625 33.84375 4.453125 
Q 36.90625 7.5 36.90625 12.40625 
Q 36.90625 16.90625 34.59375 20.296875 
Q 32.296875 23.703125 27.09375 27.203125 
z
" id="STIXGeneral-Regular-56"/>
      </defs>
      <g transform="translate(446.144009 592.561563)scale(0.14 -0.14)">
       <use xlink:href="#STIXGeneral-Regular-49"/>
       <use x="49.999985" xlink:href="#STIXGeneral-Regular-46"/>
       <use x="74.999969" xlink:href="#STIXGeneral-Regular-56"/>
      </g>
     </g>
    </g>
    <g id="xtick_30">
     <g id="line2d_78">
      <g>
       <use style="fill:#ffffff;stroke:#000000;stroke-width:0.8;" x="514.617512" xlink:href="#m38d8f08a15" y="576"/>
      </g>
     </g>
     <g id="text_22">
      <!-- 2.0 -->
      <g transform="translate(505.867512 592.561563)scale(0.14 -0.14)">
       <use xlink:href="#STIXGeneral-Regular-50"/>
       <use x="49.999985" xlink:href="#STIXGeneral-Regular-46"/>
       <use x="74.999969" xlink:href="#STIXGeneral-Regular-48"/>
      </g>
     </g>
    </g>
    <g id="text_23">
     <!-- $\^t$ -->
     <defs>
      <path d="M -7.5 50.703125 
L -10.90625 50.703125 
L -23.09375 61 
L -35.203125 50.703125 
L -38.59375 50.703125 
L -26.203125 67.40625 
L -20 67.40625 
z
" id="STIXGeneral-Regular-770"/>
      <path d="M 29.59375 42.796875 
L 29.09375 39.59375 
L 20.703125 39.59375 
L 12 6.796875 
Q 11.796875 6 11.796875 5.40625 
Q 11.796875 3.796875 13.296875 3.796875 
Q 14.5 3.796875 16.09375 5.34375 
Q 17.703125 6.90625 21.40625 11.703125 
L 22.703125 11 
Q 18.09375 4 15.140625 1.453125 
Q 12.203125 -1.09375 8.40625 -1.09375 
Q 3.796875 -1.09375 3.796875 2.59375 
Q 3.796875 3.59375 5.40625 10 
L 13.203125 39.59375 
L 5.703125 39.59375 
L 5.59375 40.203125 
Q 5.59375 42 8.90625 42.703125 
Q 11.40625 43.296875 15.5 46.546875 
Q 19.59375 49.796875 22.203125 53.703125 
Q 22.796875 54.59375 23.59375 54.59375 
Q 24.5 54.59375 24.5 53.796875 
Q 24.5 53.296875 24.40625 53.09375 
L 21.59375 42.796875 
z
" id="STIXGeneral-Italic-116"/>
     </defs>
     <g transform="translate(363.348756 609.161563)scale(0.14 -0.14)">
      <use transform="translate(39.042969 16.59375)" xlink:href="#STIXGeneral-Regular-770"/>
      <use transform="translate(0 0.203125)" xlink:href="#STIXGeneral-Italic-116"/>
     </g>
    </g>
   </g>
   <g id="matplotlib.axis_10">
    <g id="ytick_17">
     <g id="line2d_79">
      <g>
       <use style="fill:#ffffff;stroke:#000000;stroke-width:0.8;" x="216" xlink:href="#m8b106a89ae" y="569.532934"/>
      </g>
     </g>
     <g id="text_24">
      <!-- −7.5 -->
      <g transform="translate(181.91 574.313715)scale(0.14 -0.14)">
       <use xlink:href="#STIXGeneral-Regular-8722"/>
       <use x="68.499985" xlink:href="#STIXGeneral-Regular-55"/>
       <use x="118.499969" xlink:href="#STIXGeneral-Regular-46"/>
       <use x="143.499954" xlink:href="#STIXGeneral-Regular-53"/>
      </g>
     </g>
    </g>
    <g id="ytick_18">
     <g id="line2d_80">
      <g>
       <use style="fill:#ffffff;stroke:#000000;stroke-width:0.8;" x="216" xlink:href="#m8b106a89ae" y="537.197605"/>
      </g>
     </g>
     <g id="text_25">
      <!-- −5.0 -->
      <g transform="translate(181.91 541.978386)scale(0.14 -0.14)">
       <use xlink:href="#STIXGeneral-Regular-8722"/>
       <use x="68.499985" xlink:href="#STIXGeneral-Regular-53"/>
       <use x="118.499969" xlink:href="#STIXGeneral-Regular-46"/>
       <use x="143.499954" xlink:href="#STIXGeneral-Regular-48"/>
      </g>
     </g>
    </g>
    <g id="ytick_19">
     <g id="line2d_81">
      <g>
       <use style="fill:#ffffff;stroke:#000000;stroke-width:0.8;" x="216" xlink:href="#m8b106a89ae" y="504.862275"/>
      </g>
     </g>
     <g id="text_26">
      <!-- −2.5 -->
      <g transform="translate(181.91 509.643057)scale(0.14 -0.14)">
       <use xlink:href="#STIXGeneral-Regular-8722"/>
       <use x="68.499985" xlink:href="#STIXGeneral-Regular-50"/>
       <use x="118.499969" xlink:href="#STIXGeneral-Regular-46"/>
       <use x="143.499954" xlink:href="#STIXGeneral-Regular-53"/>
      </g>
     </g>
    </g>
    <g id="ytick_20">
     <g id="line2d_82">
      <g>
       <use style="fill:#ffffff;stroke:#000000;stroke-width:0.8;" x="216" xlink:href="#m8b106a89ae" y="472.526946"/>
      </g>
     </g>
     <g id="text_27">
      <!-- 0.0 -->
      <g transform="translate(191.5 477.307727)scale(0.14 -0.14)">
       <use xlink:href="#STIXGeneral-Regular-48"/>
       <use x="49.999985" xlink:href="#STIXGeneral-Regular-46"/>
       <use x="74.999969" xlink:href="#STIXGeneral-Regular-48"/>
      </g>
     </g>
    </g>
    <g id="text_28">
     <!-- $C_l$ -->
     <g transform="translate(174.871562 517.699341)rotate(-90)scale(0.14 -0.14)">
      <use transform="translate(0 0.40625)" xlink:href="#STIXGeneral-Italic-67"/>
      <use transform="translate(66.699997 -12.821875)scale(0.7)" xlink:href="#STIXGeneral-Italic-108"/>
     </g>
    </g>
   </g>
   <g id="line2d_83">
    <path clip-path="url(#pefd2b9790e)" d="M 215.701382 474.445045 
L 228.541935 473.892755 
L 237.500461 473.823615 
L 251.834101 473.967703 
L 286.77235 474.358267 
L 313.050691 474.390171 
L 347.093088 474.198014 
L 400.247005 473.650031 
L 488.040553 472.770284 
L 514.916129 472.57947 
L 514.916129 472.57947 
" style="fill:none;stroke:#1f77b4;stroke-linecap:square;stroke-width:3;"/>
   </g>
   <g id="line2d_84">
    <path clip-path="url(#pefd2b9790e)" d="M 215.701382 474.377942 
L 219.882028 473.857435 
L 225.55576 473.416355 
L 233.917051 472.995213 
L 244.070046 472.709728 
L 252.729954 472.684981 
L 264.674654 472.901595 
L 289.459908 473.374991 
L 307.675576 473.411478 
L 372.475576 473.137321 
L 382.628571 472.824538 
L 403.830415 472.06368 
L 415.17788 472.19563 
L 428.615668 472.208219 
L 459.074654 471.877476 
L 476.095853 471.705211 
L 492.519816 471.794143 
L 514.916129 472.120447 
L 514.916129 472.120447 
" style="fill:none;stroke:#ff7f0e;stroke-linecap:square;stroke-width:3;"/>
   </g>
   <g id="line2d_85">
    <path clip-path="url(#pefd2b9790e)" d="M 216 472.526946 
L 514.617512 472.526946 
" style="fill:none;stroke:#000000;stroke-dasharray:3.2,0.8,0.5,0.8;stroke-dashoffset:0;stroke-width:0.5;"/>
   </g>
   <g id="line2d_86">
    <path clip-path="url(#pefd2b9790e)" d="M 216 576 
L 216 446.658683 
" style="fill:none;stroke:#000000;stroke-linecap:square;stroke-width:0.5;"/>
   </g>
   <g id="line2d_87">
    <path clip-path="url(#pefd2b9790e)" d="M 275.723502 576 
L 275.723502 446.658683 
" style="fill:none;stroke:#000000;stroke-dasharray:3.2,0.8,0.5,0.8;stroke-dashoffset:0;stroke-opacity:0.25;stroke-width:0.5;"/>
   </g>
   <g id="line2d_88">
    <path clip-path="url(#pefd2b9790e)" d="M 335.447005 576 
L 335.447005 446.658683 
" style="fill:none;stroke:#000000;stroke-dasharray:3.2,0.8,0.5,0.8;stroke-dashoffset:0;stroke-opacity:0.25;stroke-width:0.5;"/>
   </g>
   <g id="line2d_89">
    <path clip-path="url(#pefd2b9790e)" d="M 395.170507 576 
L 395.170507 446.658683 
" style="fill:none;stroke:#000000;stroke-dasharray:3.2,0.8,0.5,0.8;stroke-dashoffset:0;stroke-opacity:0.25;stroke-width:0.5;"/>
   </g>
   <g id="patch_23">
    <path d="M 216 576 
L 216 446.658683 
" style="fill:none;stroke:#000000;stroke-linecap:square;stroke-linejoin:miter;stroke-width:0.8;"/>
   </g>
   <g id="patch_24">
    <path d="M 514.617512 576 
L 514.617512 446.658683 
" style="fill:none;stroke:#000000;stroke-linecap:square;stroke-linejoin:miter;stroke-width:0.8;"/>
   </g>
   <g id="patch_25">
    <path d="M 216 576 
L 514.617512 576 
" style="fill:none;stroke:#000000;stroke-linecap:square;stroke-linejoin:miter;stroke-width:0.8;"/>
   </g>
   <g id="patch_26">
    <path d="M 216 446.658683 
L 514.617512 446.658683 
" style="fill:none;stroke:#000000;stroke-linecap:square;stroke-linejoin:miter;stroke-width:0.8;"/>
   </g>
  </g>
  <g id="axes_6">
   <g id="patch_27">
    <path d="M 565.382488 576 
L 864 576 
L 864 446.658683 
L 565.382488 446.658683 
z
" style="fill:#ffffff;"/>
   </g>
   <g id="matplotlib.axis_11">
    <g id="xtick_31">
     <g id="line2d_90">
      <g>
       <use style="fill:#ffffff;stroke:#000000;stroke-width:0.8;" x="565.382488" xlink:href="#m38d8f08a15" y="576"/>
      </g>
     </g>
     <g id="text_29">
      <!-- 1.0 -->
      <g transform="translate(556.632488 592.561563)scale(0.14 -0.14)">
       <use xlink:href="#STIXGeneral-Regular-49"/>
       <use x="49.999985" xlink:href="#STIXGeneral-Regular-46"/>
       <use x="74.999969" xlink:href="#STIXGeneral-Regular-48"/>
      </g>
     </g>
    </g>
    <g id="xtick_32">
     <g id="line2d_91">
      <g>
       <use style="fill:#ffffff;stroke:#000000;stroke-width:0.8;" x="625.105991" xlink:href="#m38d8f08a15" y="576"/>
      </g>
     </g>
     <g id="text_30">
      <!-- 1.2 -->
      <g transform="translate(616.355991 592.561563)scale(0.14 -0.14)">
       <use xlink:href="#STIXGeneral-Regular-49"/>
       <use x="49.999985" xlink:href="#STIXGeneral-Regular-46"/>
       <use x="74.999969" xlink:href="#STIXGeneral-Regular-50"/>
      </g>
     </g>
    </g>
    <g id="xtick_33">
     <g id="line2d_92">
      <g>
       <use style="fill:#ffffff;stroke:#000000;stroke-width:0.8;" x="684.829493" xlink:href="#m38d8f08a15" y="576"/>
      </g>
     </g>
     <g id="text_31">
      <!-- 1.4 -->
      <g transform="translate(676.079493 592.561563)scale(0.14 -0.14)">
       <use xlink:href="#STIXGeneral-Regular-49"/>
       <use x="49.999985" xlink:href="#STIXGeneral-Regular-46"/>
       <use x="74.999969" xlink:href="#STIXGeneral-Regular-52"/>
      </g>
     </g>
    </g>
    <g id="xtick_34">
     <g id="line2d_93">
      <g>
       <use style="fill:#ffffff;stroke:#000000;stroke-width:0.8;" x="744.552995" xlink:href="#m38d8f08a15" y="576"/>
      </g>
     </g>
     <g id="text_32">
      <!-- 1.6 -->
      <g transform="translate(735.802995 592.561563)scale(0.14 -0.14)">
       <use xlink:href="#STIXGeneral-Regular-49"/>
       <use x="49.999985" xlink:href="#STIXGeneral-Regular-46"/>
       <use x="74.999969" xlink:href="#STIXGeneral-Regular-54"/>
      </g>
     </g>
    </g>
    <g id="xtick_35">
     <g id="line2d_94">
      <g>
       <use style="fill:#ffffff;stroke:#000000;stroke-width:0.8;" x="804.276498" xlink:href="#m38d8f08a15" y="576"/>
      </g>
     </g>
     <g id="text_33">
      <!-- 1.8 -->
      <g transform="translate(795.526498 592.561563)scale(0.14 -0.14)">
       <use xlink:href="#STIXGeneral-Regular-49"/>
       <use x="49.999985" xlink:href="#STIXGeneral-Regular-46"/>
       <use x="74.999969" xlink:href="#STIXGeneral-Regular-56"/>
      </g>
     </g>
    </g>
    <g id="xtick_36">
     <g id="line2d_95">
      <g>
       <use style="fill:#ffffff;stroke:#000000;stroke-width:0.8;" x="864" xlink:href="#m38d8f08a15" y="576"/>
      </g>
     </g>
     <g id="text_34">
      <!-- 2.0 -->
      <g transform="translate(855.25 592.561563)scale(0.14 -0.14)">
       <use xlink:href="#STIXGeneral-Regular-50"/>
       <use x="49.999985" xlink:href="#STIXGeneral-Regular-46"/>
       <use x="74.999969" xlink:href="#STIXGeneral-Regular-48"/>
      </g>
     </g>
    </g>
    <g id="text_35">
     <!-- $\^t$ -->
     <g transform="translate(712.731244 609.161563)scale(0.14 -0.14)">
      <use transform="translate(39.042969 16.59375)" xlink:href="#STIXGeneral-Regular-770"/>
      <use transform="translate(0 0.203125)" xlink:href="#STIXGeneral-Italic-116"/>
     </g>
    </g>
   </g>
   <g id="matplotlib.axis_12">
    <g id="ytick_21">
     <g id="line2d_96">
      <g>
       <use style="fill:#ffffff;stroke:#000000;stroke-width:0.8;" x="565.382488" xlink:href="#m8b106a89ae" y="569.532934"/>
      </g>
     </g>
    </g>
    <g id="ytick_22">
     <g id="line2d_97">
      <g>
       <use style="fill:#ffffff;stroke:#000000;stroke-width:0.8;" x="565.382488" xlink:href="#m8b106a89ae" y="537.197605"/>
      </g>
     </g>
    </g>
    <g id="ytick_23">
     <g id="line2d_98">
      <g>
       <use style="fill:#ffffff;stroke:#000000;stroke-width:0.8;" x="565.382488" xlink:href="#m8b106a89ae" y="504.862275"/>
      </g>
     </g>
    </g>
    <g id="ytick_24">
     <g id="line2d_99">
      <g>
       <use style="fill:#ffffff;stroke:#000000;stroke-width:0.8;" x="565.382488" xlink:href="#m8b106a89ae" y="472.526946"/>
      </g>
     </g>
    </g>
    <g id="text_36">
     <!-- $C_d$ -->
     <g transform="translate(551.344051 518.819341)rotate(-90)scale(0.14 -0.14)">
      <use transform="translate(0 0.40625)" xlink:href="#STIXGeneral-Italic-67"/>
      <use transform="translate(66.699997 -12.821875)scale(0.7)" xlink:href="#STIXGeneral-Italic-100"/>
     </g>
    </g>
   </g>
   <g id="line2d_100">
    <path clip-path="url(#pb83eae62f9)" d="M 565.083871 482.833125 
L 565.979724 481.798494 
L 567.174194 480.830546 
L 568.667281 479.954066 
L 570.757604 479.038302 
L 574.341014 477.782045 
L 578.521659 476.624476 
L 581.806452 475.873571 
L 586.285714 475.082464 
L 591.063594 474.460917 
L 596.737327 473.956303 
L 603.904147 473.565308 
L 612.862673 473.308479 
L 628.390783 473.109962 
L 669.301382 472.848146 
L 724.247005 472.74935 
L 864.298618 472.976806 
L 864.298618 472.976806 
" style="fill:none;stroke:#1f77b4;stroke-linecap:square;stroke-width:3;"/>
   </g>
   <g id="line2d_101">
    <path clip-path="url(#pb83eae62f9)" d="M 565.083871 469.619187 
L 565.979724 468.912337 
L 567.174194 468.328668 
L 568.667281 467.877699 
L 571.653456 467.444969 
L 576.729954 467.141984 
L 584.494009 466.79798 
L 588.077419 466.754331 
L 595.542857 467.097192 
L 608.38341 467.976454 
L 625.105991 469.370304 
L 630.481106 469.435012 
L 638.245161 469.006409 
L 645.113364 468.294831 
L 658.84977 466.902825 
L 690.204608 464.97631 
L 696.774194 464.157605 
L 701.850691 463.339323 
L 709.614747 461.81909 
L 720.364977 459.723019 
L 724.247005 459.175286 
L 729.323502 458.74134 
L 732.906912 458.648288 
L 735.893088 458.706417 
L 740.37235 459.019229 
L 745.448848 459.634762 
L 750.823963 460.51098 
L 756.199078 461.613658 
L 762.470046 463.191438 
L 769.338249 464.863095 
L 790.83871 468.936818 
L 808.75576 471.611011 
L 820.700461 473.632758 
L 825.776959 474.294966 
L 832.047926 474.970633 
L 849.069124 476.559805 
L 862.506912 477.559106 
L 864.298618 477.664543 
L 864.298618 477.664543 
" style="fill:none;stroke:#ff7f0e;stroke-linecap:square;stroke-width:3;"/>
   </g>
   <g id="line2d_102">
    <path clip-path="url(#pb83eae62f9)" d="M 565.382488 472.526946 
L 864 472.526946 
" style="fill:none;stroke:#000000;stroke-dasharray:3.2,0.8,0.5,0.8;stroke-dashoffset:0;stroke-width:0.5;"/>
   </g>
   <g id="line2d_103">
    <path clip-path="url(#pb83eae62f9)" d="M 565.382488 576 
L 565.382488 446.658683 
" style="fill:none;stroke:#000000;stroke-linecap:square;stroke-width:0.5;"/>
   </g>
   <g id="line2d_104">
    <path clip-path="url(#pb83eae62f9)" d="M 625.105991 576 
L 625.105991 446.658683 
" style="fill:none;stroke:#000000;stroke-dasharray:3.2,0.8,0.5,0.8;stroke-dashoffset:0;stroke-opacity:0.25;stroke-width:0.5;"/>
   </g>
   <g id="line2d_105">
    <path clip-path="url(#pb83eae62f9)" d="M 684.829493 576 
L 684.829493 446.658683 
" style="fill:none;stroke:#000000;stroke-dasharray:3.2,0.8,0.5,0.8;stroke-dashoffset:0;stroke-opacity:0.25;stroke-width:0.5;"/>
   </g>
   <g id="line2d_106">
    <path clip-path="url(#pb83eae62f9)" d="M 744.552995 576 
L 744.552995 446.658683 
" style="fill:none;stroke:#000000;stroke-dasharray:3.2,0.8,0.5,0.8;stroke-dashoffset:0;stroke-opacity:0.25;stroke-width:0.5;"/>
   </g>
   <g id="patch_28">
    <path d="M 565.382488 576 
L 565.382488 446.658683 
" style="fill:none;stroke:#000000;stroke-linecap:square;stroke-linejoin:miter;stroke-width:0.8;"/>
   </g>
   <g id="patch_29">
    <path d="M 864 576 
L 864 446.658683 
" style="fill:none;stroke:#000000;stroke-linecap:square;stroke-linejoin:miter;stroke-width:0.8;"/>
   </g>
   <g id="patch_30">
    <path d="M 565.382488 576 
L 864 576 
" style="fill:none;stroke:#000000;stroke-linecap:square;stroke-linejoin:miter;stroke-width:0.8;"/>
   </g>
   <g id="patch_31">
    <path d="M 565.382488 446.658683 
L 864 446.658683 
" style="fill:none;stroke:#000000;stroke-linecap:square;stroke-linejoin:miter;stroke-width:0.8;"/>
   </g>
   <g id="text_37">
    <!-- $s/c = 6.0$ -->
    <g transform="translate(873.467926 514.590904)scale(0.14 -0.14)">
     <use transform="translate(0 0.59375)" xlink:href="#STIXGeneral-Italic-115"/>
     <use transform="translate(38.899994 0.59375)" xlink:href="#STIXGeneral-Regular-47"/>
     <use transform="translate(66.699982 0.59375)" xlink:href="#STIXGeneral-Italic-99"/>
     <use transform="translate(125.539972 0.59375)" xlink:href="#STIXGeneral-Regular-61"/>
     <use transform="translate(208.479953 0.59375)" xlink:href="#STIXGeneral-Regular-54"/>
     <use transform="translate(258.479938 0.59375)" xlink:href="#STIXGeneral-Regular-46"/>
     <use transform="translate(283.479922 0.59375)" xlink:href="#STIXGeneral-Regular-48"/>
    </g>
   </g>
  </g>
 </g>
 <defs>
  <clipPath id="p22df77b4ba">
   <rect height="129.341317" width="298.617512" x="216" y="144"/>
  </clipPath>
  <clipPath id="p66ce4cff17">
   <rect height="129.341317" width="298.617512" x="565.382488" y="144"/>
  </clipPath>
  <clipPath id="pd9c850f2d8">
   <rect height="129.341317" width="298.617512" x="216" y="295.329341"/>
  </clipPath>
  <clipPath id="pe9e220b299">
   <rect height="129.341317" width="298.617512" x="565.382488" y="295.329341"/>
  </clipPath>
  <clipPath id="pefd2b9790e">
   <rect height="129.341317" width="298.617512" x="216" y="446.658683"/>
  </clipPath>
  <clipPath id="pb83eae62f9">
   <rect height="129.341317" width="298.617512" x="565.382488" y="446.658683"/>
  </clipPath>
 </defs>
</svg>
