<?xml version="1.0" encoding="utf-8" standalone="no"?>
<!DOCTYPE svg PUBLIC "-//W3C//DTD SVG 1.1//EN"
  "http://www.w3.org/Graphics/SVG/1.1/DTD/svg11.dtd">
<!-- Created with matplotlib (https://matplotlib.org/) -->
<svg height="720pt" version="1.1" viewBox="0 0 1008 720" width="1008pt" xmlns="http://www.w3.org/2000/svg" xmlns:xlink="http://www.w3.org/1999/xlink">
 <defs>
  <style type="text/css">
*{stroke-linecap:butt;stroke-linejoin:round;}
  </style>
 </defs>
 <g id="figure_1">
  <g id="patch_1">
   <path d="M 0 720 
L 1008 720 
L 1008 0 
L 0 0 
z
" style="fill:#ffffff;"/>
  </g>
  <g id="axes_1">
   <g id="patch_2">
    <path d="M 100.8 244.45509 
L 472.412903 244.45509 
L 472.412903 72 
L 100.8 72 
z
" style="fill:#ffffff;"/>
   </g>
   <g id="matplotlib.axis_1">
    <g id="xtick_1">
     <g id="line2d_1">
      <defs>
       <path d="M 0 0 
L 0 3.5 
" id="mb4837bc1a2" style="stroke:#000000;stroke-width:0.8;"/>
      </defs>
      <g>
       <use style="fill:#ffffff;stroke:#000000;stroke-width:0.8;" x="100.8" xlink:href="#mb4837bc1a2" y="244.45509"/>
      </g>
     </g>
    </g>
    <g id="xtick_2">
     <g id="line2d_2">
      <g>
       <use style="fill:#ffffff;stroke:#000000;stroke-width:0.8;" x="175.122581" xlink:href="#mb4837bc1a2" y="244.45509"/>
      </g>
     </g>
    </g>
    <g id="xtick_3">
     <g id="line2d_3">
      <g>
       <use style="fill:#ffffff;stroke:#000000;stroke-width:0.8;" x="249.445161" xlink:href="#mb4837bc1a2" y="244.45509"/>
      </g>
     </g>
    </g>
    <g id="xtick_4">
     <g id="line2d_4">
      <g>
       <use style="fill:#ffffff;stroke:#000000;stroke-width:0.8;" x="323.767742" xlink:href="#mb4837bc1a2" y="244.45509"/>
      </g>
     </g>
    </g>
    <g id="xtick_5">
     <g id="line2d_5">
      <g>
       <use style="fill:#ffffff;stroke:#000000;stroke-width:0.8;" x="398.090323" xlink:href="#mb4837bc1a2" y="244.45509"/>
      </g>
     </g>
    </g>
    <g id="xtick_6">
     <g id="line2d_6">
      <g>
       <use style="fill:#ffffff;stroke:#000000;stroke-width:0.8;" x="472.412903" xlink:href="#mb4837bc1a2" y="244.45509"/>
      </g>
     </g>
    </g>
   </g>
   <g id="matplotlib.axis_2">
    <g id="ytick_1">
     <g id="line2d_7">
      <defs>
       <path d="M 0 0 
L -3.5 0 
" id="mcbbe0aec73" style="stroke:#000000;stroke-width:0.8;"/>
      </defs>
      <g>
       <use style="fill:#ffffff;stroke:#000000;stroke-width:0.8;" x="100.8" xlink:href="#mcbbe0aec73" y="244.45509"/>
      </g>
     </g>
     <g id="text_1">
      <!-- −4 -->
      <defs>
       <path d="M 62.09375 22 
L 6.40625 22 
L 6.40625 28.59375 
L 62.09375 28.59375 
z
" id="STIXGeneral-Regular-8722"/>
       <path d="M 47.296875 16.703125 
L 37 16.703125 
L 37 0 
L 29.203125 0 
L 29.203125 16.703125 
L 1.203125 16.703125 
L 1.203125 23.09375 
L 32.59375 67.59375 
L 37 67.59375 
L 37 23.09375 
L 47.296875 23.09375 
z
M 29.203125 23.09375 
L 29.203125 57.40625 
L 5.203125 23.09375 
z
" id="STIXGeneral-Regular-52"/>
      </defs>
      <g transform="translate(72.47 250.601809)scale(0.18 -0.18)">
       <use xlink:href="#STIXGeneral-Regular-8722"/>
       <use x="68.499985" xlink:href="#STIXGeneral-Regular-52"/>
      </g>
     </g>
    </g>
    <g id="ytick_2">
     <g id="line2d_8">
      <g>
       <use style="fill:#ffffff;stroke:#000000;stroke-width:0.8;" x="100.8" xlink:href="#mcbbe0aec73" y="201.341317"/>
      </g>
     </g>
     <g id="text_2">
      <!-- −2 -->
      <defs>
       <path d="M 47.40625 13.703125 
L 42 0 
L 2.90625 0 
L 2.90625 1.203125 
L 20.703125 20.09375 
Q 27.703125 27.40625 30.703125 33.5 
Q 33.703125 39.59375 33.703125 46.09375 
Q 33.703125 52.796875 30 56.5 
Q 26.296875 60.203125 19.796875 60.203125 
Q 14.40625 60.203125 11.25 57.390625 
Q 8.09375 54.59375 5.09375 47.203125 
L 3 47.703125 
Q 4.703125 57 9.84375 62.296875 
Q 15 67.59375 23.796875 67.59375 
Q 32.09375 67.59375 37.1875 62.59375 
Q 42.296875 57.59375 42.296875 50 
Q 42.296875 38.703125 29.5 25.203125 
L 13 7.59375 
L 36.40625 7.59375 
Q 39.703125 7.59375 41.640625 8.890625 
Q 43.59375 10.203125 46 14.296875 
z
" id="STIXGeneral-Regular-50"/>
      </defs>
      <g transform="translate(72.47 207.488036)scale(0.18 -0.18)">
       <use xlink:href="#STIXGeneral-Regular-8722"/>
       <use x="68.499985" xlink:href="#STIXGeneral-Regular-50"/>
      </g>
     </g>
    </g>
    <g id="ytick_3">
     <g id="line2d_9">
      <g>
       <use style="fill:#ffffff;stroke:#000000;stroke-width:0.8;" x="100.8" xlink:href="#mcbbe0aec73" y="158.227545"/>
      </g>
     </g>
     <g id="text_3">
      <!-- 0 -->
      <defs>
       <path d="M 47.59375 33 
Q 47.59375 26.296875 46.296875 20.34375 
Q 45 14.40625 42.453125 9.40625 
Q 39.90625 4.40625 35.40625 1.5 
Q 30.90625 -1.40625 25 -1.40625 
Q 18.90625 -1.40625 14.296875 1.6875 
Q 9.703125 4.796875 7.203125 10 
Q 4.703125 15.203125 3.546875 21.09375 
Q 2.40625 27 2.40625 33.59375 
Q 2.40625 42.90625 4.703125 50.34375 
Q 7 57.796875 12.34375 62.6875 
Q 17.703125 67.59375 25.40625 67.59375 
Q 35.203125 67.59375 41.390625 58 
Q 47.59375 48.40625 47.59375 33 
z
M 38 32.5 
Q 38 48.296875 34.640625 56.640625 
Q 31.296875 65 24.796875 65 
Q 18.59375 65 15.296875 56.59375 
Q 12 48.203125 12 32.90625 
Q 12 17.5 15.296875 9.34375 
Q 18.59375 1.203125 25 1.203125 
Q 31.296875 1.203125 34.640625 9.34375 
Q 38 17.5 38 32.5 
z
" id="STIXGeneral-Regular-48"/>
      </defs>
      <g transform="translate(84.8 164.374264)scale(0.18 -0.18)">
       <use xlink:href="#STIXGeneral-Regular-48"/>
      </g>
     </g>
    </g>
    <g id="ytick_4">
     <g id="line2d_10">
      <g>
       <use style="fill:#ffffff;stroke:#000000;stroke-width:0.8;" x="100.8" xlink:href="#mcbbe0aec73" y="115.113772"/>
      </g>
     </g>
     <g id="text_4">
      <!-- 2 -->
      <g transform="translate(84.8 121.260491)scale(0.18 -0.18)">
       <use xlink:href="#STIXGeneral-Regular-50"/>
      </g>
     </g>
    </g>
    <g id="ytick_5">
     <g id="line2d_11">
      <g>
       <use style="fill:#ffffff;stroke:#000000;stroke-width:0.8;" x="100.8" xlink:href="#mcbbe0aec73" y="72"/>
      </g>
     </g>
     <g id="text_5">
      <!-- 4 -->
      <g transform="translate(84.8 78.146719)scale(0.18 -0.18)">
       <use xlink:href="#STIXGeneral-Regular-52"/>
      </g>
     </g>
    </g>
    <g id="text_6">
     <!-- $C_l$ -->
     <defs>
      <path d="M 68.90625 66.40625 
L 65.203125 46.40625 
L 63.40625 46.703125 
Q 61.59375 63 48.5 63 
Q 37.59375 63 28.59375 53.296875 
Q 23.296875 47.703125 20.546875 39.703125 
Q 17.796875 31.703125 17.796875 23.203125 
Q 17.796875 2.703125 35.296875 2.703125 
Q 41.5 2.703125 46.640625 5.296875 
Q 51.796875 7.90625 58.203125 14.59375 
L 60 13.09375 
Q 53.296875 5.203125 46.84375 1.703125 
Q 40.40625 -1.796875 32.703125 -1.796875 
Q 21 -1.796875 13.796875 5.140625 
Q 6.59375 12.09375 6.59375 24.296875 
Q 6.59375 34.59375 11.6875 43.9375 
Q 16.796875 53.296875 25.296875 59.296875 
Q 35.5 66.59375 47.203125 66.59375 
Q 54.09375 66.59375 58.90625 64.90625 
Q 60.90625 64.203125 63 64.203125 
Q 65.703125 64.203125 66.796875 66.40625 
z
" id="STIXGeneral-Italic-67"/>
      <path d="M 27.90625 67.796875 
L 12.59375 9.296875 
Q 11.796875 6.40625 11.796875 5 
Q 11.796875 3.203125 13.5 3.203125 
Q 16.203125 3.203125 20.203125 8.90625 
L 22.703125 12.40625 
L 24.09375 11.40625 
Q 19.59375 4.296875 16.34375 1.59375 
Q 13.09375 -1.09375 9 -1.09375 
Q 4.09375 -1.09375 4.09375 4.5 
Q 4.09375 6.203125 4.5 7.5 
L 18.203125 59.90625 
Q 18.5 60.90625 18.5 61.796875 
Q 18.5 64 13.59375 64 
L 11.796875 64 
L 11.796875 65.59375 
Q 18.796875 66.40625 27.296875 68.296875 
z
" id="STIXGeneral-Italic-108"/>
     </defs>
     <g transform="translate(64.563438 166.417545)rotate(-90)scale(0.18 -0.18)">
      <use transform="translate(0 0.40625)" xlink:href="#STIXGeneral-Italic-67"/>
      <use transform="translate(66.699997 -12.821875)scale(0.7)" xlink:href="#STIXGeneral-Italic-108"/>
     </g>
    </g>
   </g>
   <g id="line2d_12">
    <path clip-path="url(#p69e34d2a93)" d="M 100.428387 200.378769 
L 101.171613 202.107372 
L 101.914839 203.042549 
L 102.286452 203.341314 
L 103.029677 203.534603 
L 103.772903 203.482735 
L 105.630968 202.565166 
L 133.873548 181.251518 
L 142.792258 175.194319 
L 149.852903 170.982888 
L 154.683871 168.451319 
L 159.514839 166.182298 
L 164.717419 164.027281 
L 169.548387 162.345468 
L 176.980645 160.339865 
L 181.811613 159.353262 
L 184.412903 158.903069 
L 189.615484 158.165475 
L 198.162581 157.410162 
L 205.223226 157.142378 
L 220.087742 157.216419 
L 228.634839 157.55978 
L 231.236129 157.693327 
L 269.140645 159.963306 
L 279.545806 160.538968 
L 318.936774 162.14864 
L 340.861935 162.691069 
L 385.455484 163.259407 
L 464.237419 163.40642 
L 472.784516 163.391849 
L 472.784516 163.391849 
" style="fill:none;stroke:#1f77b4;stroke-linecap:square;stroke-width:3;"/>
   </g>
   <g id="line2d_13">
    <path clip-path="url(#p69e34d2a93)" d="M 100.428387 209.317096 
L 101.171613 212.525209 
L 101.914839 214.765997 
L 103.029677 216.856849 
L 103.40129 217.351209 
L 103.772903 217.566815 
L 104.516129 219.091956 
L 104.887742 219.440498 
L 106.002581 221.059407 
L 106.745806 221.703781 
L 107.860645 222.336711 
L 108.232258 222.313667 
L 108.603871 222.061654 
L 109.347097 222.065536 
L 109.71871 221.656609 
L 110.090323 221.640875 
L 111.948387 219.854085 
L 113.063226 218.372103 
L 114.178065 216.446845 
L 114.92129 214.681045 
L 115.292903 214.059203 
L 119.752258 201.894996 
L 120.867097 198.86166 
L 123.096774 193.897585 
L 124.583226 191.308452 
L 126.812903 188.202371 
L 130.157419 184.019352 
L 132.387097 180.980962 
L 133.873548 179.207167 
L 139.447742 173.304574 
L 145.393548 166.428286 
L 146.508387 165.161361 
L 152.825806 158.503585 
L 154.312258 157.130382 
L 156.913548 155.109361 
L 158.028387 154.358924 
L 162.116129 152.26116 
L 165.832258 150.728948 
L 166.947097 150.433785 
L 168.061935 150.074571 
L 168.433548 149.853558 
L 172.892903 148.700559 
L 174.007742 148.388561 
L 175.122581 148.148529 
L 176.237419 147.840627 
L 176.980645 147.436269 
L 177.723871 147.349002 
L 179.953548 146.716414 
L 180.696774 146.372369 
L 182.183226 146.256126 
L 183.298065 146.133239 
L 184.04129 146.010064 
L 189.243871 145.732406 
L 189.615484 145.729594 
L 189.987097 145.880272 
L 191.101935 145.7706 
L 191.473548 145.903964 
L 192.588387 145.970881 
L 193.703226 146.113721 
L 194.446452 146.190467 
L 194.818065 146.350515 
L 195.189677 146.256696 
L 195.932903 146.402458 
L 196.676129 146.690941 
L 198.162581 146.825086 
L 202.621935 147.720923 
L 202.993548 147.865061 
L 203.365161 147.831349 
L 204.851613 148.246051 
L 205.594839 148.346313 
L 205.966452 148.470263 
L 206.338065 148.383466 
L 207.08129 148.624785 
L 207.824516 148.726531 
L 208.567742 148.958175 
L 208.939355 149.105824 
L 209.682581 149.16679 
L 211.540645 149.687518 
L 212.655484 149.898031 
L 213.027097 150.059428 
L 213.770323 150.099323 
L 214.513548 150.309525 
L 219.344516 151.523227 
L 220.830968 151.784841 
L 223.432258 152.52485 
L 224.547097 152.721779 
L 225.661935 153.117005 
L 226.033548 153.111405 
L 226.776774 153.278625 
L 229.006452 153.884531 
L 229.749677 154.057608 
L 236.43871 155.456999 
L 237.181935 155.639403 
L 238.296774 155.634254 
L 238.668387 155.847399 
L 243.499355 156.701528 
L 244.242581 156.718527 
L 245.729032 156.975609 
L 257.249032 157.929989 
L 258.735484 158.003313 
L 259.47871 158.158041 
L 264.68129 158.233871 
L 268.025806 158.368222 
L 268.769032 158.378258 
L 269.512258 158.431041 
L 271.370323 158.502599 
L 273.228387 158.624972 
L 275.086452 158.660494 
L 276.20129 158.699299 
L 277.687742 158.762102 
L 279.917419 158.899412 
L 288.464516 159.420387 
L 290.322581 159.557246 
L 294.781935 159.997743 
L 295.896774 160.042138 
L 299.24129 160.454829 
L 300.727742 160.560085 
L 302.585806 160.726195 
L 303.700645 160.90375 
L 308.903226 161.472576 
L 310.389677 161.664977 
L 314.105806 162.078673 
L 315.220645 162.153294 
L 316.707097 162.402388 
L 334.916129 164.335047 
L 347.550968 165.359732 
L 363.15871 166.102517 
L 365.016774 166.131969 
L 367.618065 166.126554 
L 369.476129 166.152035 
L 373.935484 166.126692 
L 388.428387 165.663139 
L 401.063226 164.9533 
L 404.407742 164.768398 
L 411.468387 164.380085 
L 418.529032 164.096425 
L 422.616774 163.991698 
L 433.393548 163.957591 
L 438.224516 164.075136 
L 443.055484 164.248536 
L 449.372903 164.51907 
L 454.947097 164.800768 
L 460.52129 165.090851 
L 466.467097 165.359486 
L 472.784516 165.593549 
L 472.784516 165.593549 
" style="fill:none;stroke:#ff7f0e;stroke-linecap:square;stroke-width:3;"/>
   </g>
   <g id="line2d_14">
    <path clip-path="url(#p69e34d2a93)" d="M 100.8 158.227545 
L 472.412903 158.227545 
" style="fill:none;stroke:#000000;stroke-dasharray:3.2,0.8,0.5,0.8;stroke-dashoffset:0;stroke-width:0.5;"/>
   </g>
   <g id="line2d_15">
    <path clip-path="url(#p69e34d2a93)" d="M 100.8 244.45509 
L 100.8 72 
" style="fill:none;stroke:#000000;stroke-linecap:square;stroke-width:0.5;"/>
   </g>
   <g id="line2d_16">
    <path clip-path="url(#p69e34d2a93)" d="M 175.122581 244.45509 
L 175.122581 72 
" style="fill:none;stroke:#000000;stroke-dasharray:3.2,0.8,0.5,0.8;stroke-dashoffset:0;stroke-opacity:0.25;stroke-width:0.5;"/>
   </g>
   <g id="line2d_17">
    <path clip-path="url(#p69e34d2a93)" d="M 249.445161 244.45509 
L 249.445161 72 
" style="fill:none;stroke:#000000;stroke-dasharray:3.2,0.8,0.5,0.8;stroke-dashoffset:0;stroke-opacity:0.25;stroke-width:0.5;"/>
   </g>
   <g id="line2d_18">
    <path clip-path="url(#p69e34d2a93)" d="M 323.767742 244.45509 
L 323.767742 72 
" style="fill:none;stroke:#000000;stroke-dasharray:3.2,0.8,0.5,0.8;stroke-dashoffset:0;stroke-opacity:0.25;stroke-width:0.5;"/>
   </g>
   <g id="patch_3">
    <path d="M 100.8 244.45509 
L 100.8 72 
" style="fill:none;stroke:#000000;stroke-linecap:square;stroke-linejoin:miter;stroke-width:0.8;"/>
   </g>
   <g id="patch_4">
    <path d="M 472.412903 244.45509 
L 472.412903 72 
" style="fill:none;stroke:#000000;stroke-linecap:square;stroke-linejoin:miter;stroke-width:0.8;"/>
   </g>
   <g id="patch_5">
    <path d="M 100.8 244.45509 
L 472.412903 244.45509 
" style="fill:none;stroke:#000000;stroke-linecap:square;stroke-linejoin:miter;stroke-width:0.8;"/>
   </g>
   <g id="patch_6">
    <path d="M 100.8 72 
L 472.412903 72 
" style="fill:none;stroke:#000000;stroke-linecap:square;stroke-linejoin:miter;stroke-width:0.8;"/>
   </g>
  </g>
  <g id="axes_2">
   <g id="patch_7">
    <path d="M 535.587097 244.45509 
L 907.2 244.45509 
L 907.2 72 
L 535.587097 72 
z
" style="fill:#ffffff;"/>
   </g>
   <g id="matplotlib.axis_3">
    <g id="xtick_7">
     <g id="line2d_19">
      <g>
       <use style="fill:#ffffff;stroke:#000000;stroke-width:0.8;" x="535.587097" xlink:href="#mb4837bc1a2" y="244.45509"/>
      </g>
     </g>
    </g>
    <g id="xtick_8">
     <g id="line2d_20">
      <g>
       <use style="fill:#ffffff;stroke:#000000;stroke-width:0.8;" x="609.909677" xlink:href="#mb4837bc1a2" y="244.45509"/>
      </g>
     </g>
    </g>
    <g id="xtick_9">
     <g id="line2d_21">
      <g>
       <use style="fill:#ffffff;stroke:#000000;stroke-width:0.8;" x="684.232258" xlink:href="#mb4837bc1a2" y="244.45509"/>
      </g>
     </g>
    </g>
    <g id="xtick_10">
     <g id="line2d_22">
      <g>
       <use style="fill:#ffffff;stroke:#000000;stroke-width:0.8;" x="758.554839" xlink:href="#mb4837bc1a2" y="244.45509"/>
      </g>
     </g>
    </g>
    <g id="xtick_11">
     <g id="line2d_23">
      <g>
       <use style="fill:#ffffff;stroke:#000000;stroke-width:0.8;" x="832.877419" xlink:href="#mb4837bc1a2" y="244.45509"/>
      </g>
     </g>
    </g>
    <g id="xtick_12">
     <g id="line2d_24">
      <g>
       <use style="fill:#ffffff;stroke:#000000;stroke-width:0.8;" x="907.2" xlink:href="#mb4837bc1a2" y="244.45509"/>
      </g>
     </g>
    </g>
   </g>
   <g id="matplotlib.axis_4">
    <g id="ytick_6">
     <g id="line2d_25">
      <g>
       <use style="fill:#ffffff;stroke:#000000;stroke-width:0.8;" x="535.587097" xlink:href="#mcbbe0aec73" y="244.45509"/>
      </g>
     </g>
    </g>
    <g id="ytick_7">
     <g id="line2d_26">
      <g>
       <use style="fill:#ffffff;stroke:#000000;stroke-width:0.8;" x="535.587097" xlink:href="#mcbbe0aec73" y="201.341317"/>
      </g>
     </g>
    </g>
    <g id="ytick_8">
     <g id="line2d_27">
      <g>
       <use style="fill:#ffffff;stroke:#000000;stroke-width:0.8;" x="535.587097" xlink:href="#mcbbe0aec73" y="158.227545"/>
      </g>
     </g>
    </g>
    <g id="ytick_9">
     <g id="line2d_28">
      <g>
       <use style="fill:#ffffff;stroke:#000000;stroke-width:0.8;" x="535.587097" xlink:href="#mcbbe0aec73" y="115.113772"/>
      </g>
     </g>
    </g>
    <g id="ytick_10">
     <g id="line2d_29">
      <g>
       <use style="fill:#ffffff;stroke:#000000;stroke-width:0.8;" x="535.587097" xlink:href="#mcbbe0aec73" y="72"/>
      </g>
     </g>
    </g>
    <g id="text_7">
     <!-- $C_d$ -->
     <defs>
      <path d="M 52.09375 68.296875 
L 52.703125 67.703125 
L 48.796875 52.5 
L 42.796875 30.59375 
Q 36.296875 6.703125 36.296875 6 
Q 36.296875 4 38.09375 4 
Q 39.40625 4 40.84375 5.25 
Q 42.296875 6.5 46.296875 11.09375 
L 47.5 10.09375 
Q 39.796875 -1.296875 32.796875 -1.296875 
Q 30.90625 -1.296875 29.796875 -0.09375 
Q 28.703125 1.09375 28.703125 3.203125 
Q 28.703125 6.203125 30 12.09375 
Q 25.703125 4.796875 21.546875 1.84375 
Q 17.40625 -1.09375 12.203125 -1.09375 
Q 7.203125 -1.09375 4.34375 1.953125 
Q 1.5 5 1.5 10.59375 
Q 1.5 22.5 11.140625 33.296875 
Q 20.796875 44.09375 30.703125 44.09375 
Q 33.796875 44.09375 35.25 42.6875 
Q 36.703125 41.296875 37.203125 38.296875 
L 37.296875 38.296875 
L 41.796875 54.59375 
Q 43.203125 59.5 43.203125 61.703125 
Q 43.203125 63.296875 42.09375 63.6875 
Q 41 64.09375 36.796875 64.296875 
L 36.796875 66 
Q 44.5 66.703125 52.09375 68.296875 
z
M 35.59375 36.09375 
Q 35.59375 38.703125 34.140625 40.25 
Q 32.703125 41.796875 30.90625 41.796875 
Q 26.203125 41.796875 21.796875 37.203125 
Q 16.796875 31.90625 13.5 24.546875 
Q 10.203125 17.203125 10.203125 11 
Q 10.203125 7.59375 11.75 5.640625 
Q 13.296875 3.703125 16 3.703125 
Q 20.5 3.703125 25.09375 8.59375 
Q 29.703125 13.5 32.640625 21.09375 
Q 35.59375 28.703125 35.59375 36.09375 
z
" id="STIXGeneral-Italic-100"/>
     </defs>
     <g transform="translate(520.680534 167.857545)rotate(-90)scale(0.18 -0.18)">
      <use transform="translate(0 0.40625)" xlink:href="#STIXGeneral-Italic-67"/>
      <use transform="translate(66.699997 -12.821875)scale(0.7)" xlink:href="#STIXGeneral-Italic-100"/>
     </g>
    </g>
   </g>
   <g id="line2d_30">
    <path clip-path="url(#p2752576e35)" d="M 535.215484 169.075741 
L 535.95871 166.433965 
L 536.701935 164.612871 
L 537.445161 163.339287 
L 538.188387 162.468448 
L 538.931613 161.875306 
L 540.046452 161.249109 
L 542.276129 160.843489 
L 543.390968 160.759802 
L 544.877419 160.839887 
L 547.47871 161.142313 
L 551.938065 162.043115 
L 553.052903 162.342202 
L 554.167742 162.668842 
L 555.282581 163.013395 
L 558.627097 164.177608 
L 562.714839 165.684631 
L 572.376774 169.210151 
L 577.579355 170.817111 
L 583.896774 172.295623 
L 586.498065 172.769641 
L 592.443871 173.477607 
L 596.903226 173.746347 
L 598.76129 173.790359 
L 602.849032 173.713699 
L 605.821935 173.531491 
L 609.909677 173.159215 
L 612.882581 172.780283 
L 625.517419 170.644425 
L 667.138065 161.873717 
L 690.549677 158.020544 
L 704.299355 156.281727 
L 715.076129 155.184257 
L 718.049032 154.913639 
L 725.109677 154.328823 
L 732.170323 153.810768 
L 765.615484 152.160076 
L 786.797419 151.60704 
L 835.850323 151.104408 
L 855.545806 151.082562 
L 901.997419 151.239723 
L 907.571613 151.26978 
L 907.571613 151.26978 
" style="fill:none;stroke:#1f77b4;stroke-linecap:square;stroke-width:3;"/>
   </g>
   <g id="line2d_31">
    <path clip-path="url(#p2752576e35)" d="M 535.215484 138.929191 
L 535.95871 134.109025 
L 536.701935 130.339769 
L 537.816774 126.126242 
L 540.046452 119.377447 
L 541.16129 116.500832 
L 541.904516 115.098132 
L 542.647742 113.839563 
L 543.019355 113.474181 
L 543.390968 113.359299 
L 544.134194 112.693178 
L 544.505806 112.777078 
L 544.877419 112.506688 
L 545.249032 112.561054 
L 545.620645 112.734067 
L 545.992258 112.753252 
L 546.735484 113.069021 
L 547.47871 113.568149 
L 548.593548 115.061743 
L 548.965161 115.547514 
L 549.708387 117.097035 
L 550.08 117.63706 
L 553.052903 125.22226 
L 555.654194 132.417458 
L 557.883871 137.319611 
L 559.370323 139.8317 
L 561.6 142.728906 
L 564.944516 146.609556 
L 567.545806 149.843875 
L 569.775484 152.122717 
L 572.005161 154.189398 
L 574.978065 157.071803 
L 577.950968 160.117588 
L 578.694194 160.913862 
L 579.809032 161.986365 
L 580.923871 163.016244 
L 584.64 166.338504 
L 588.356129 169.337324 
L 590.214194 170.502039 
L 592.072258 171.436365 
L 594.301935 172.184398 
L 595.416774 172.498746 
L 596.903226 172.823066 
L 599.876129 173.272946 
L 603.963871 173.627473 
L 605.821935 173.528361 
L 607.68 173.55614 
L 608.794839 173.569405 
L 609.909677 173.528742 
L 611.396129 173.664066 
L 611.767742 173.781721 
L 612.510968 173.667066 
L 614.369032 173.683277 
L 615.855484 173.824892 
L 616.970323 173.691004 
L 618.085161 173.580903 
L 618.456774 173.610978 
L 619.943226 173.296654 
L 620.686452 173.204488 
L 622.172903 173.10062 
L 622.916129 173.013189 
L 624.030968 172.805962 
L 624.402581 172.749218 
L 624.774194 172.51477 
L 625.889032 172.427005 
L 626.632258 172.165942 
L 629.233548 171.486774 
L 629.605161 171.274294 
L 629.976774 171.336521 
L 630.72 171.091992 
L 631.463226 170.689954 
L 632.949677 170.354204 
L 655.246452 163.537573 
L 655.989677 163.331001 
L 656.732903 163.016911 
L 660.077419 162.088524 
L 660.449032 161.934761 
L 660.820645 161.931234 
L 661.563871 161.739835 
L 663.793548 161.058429 
L 664.536774 160.862622 
L 672.712258 159.012437 
L 673.083871 159.069329 
L 673.455484 158.858352 
L 678.658065 157.936946 
L 683.117419 157.223338 
L 683.860645 157.16092 
L 684.975484 157.071148 
L 686.461935 156.943476 
L 689.434839 156.574325 
L 690.549677 156.586104 
L 693.894194 156.274975 
L 694.637419 156.207466 
L 699.468387 156.075668 
L 702.812903 155.901938 
L 703.556129 155.885139 
L 704.299355 155.828944 
L 706.157419 155.743956 
L 708.015484 155.604268 
L 709.873548 155.552751 
L 710.988387 155.511431 
L 712.474839 155.444003 
L 714.704516 155.290237 
L 725.109677 154.602562 
L 729.569032 154.159204 
L 730.683871 154.119637 
L 734.028387 153.710038 
L 735.514839 153.605932 
L 737.00129 153.45854 
L 738.116129 153.359428 
L 739.230968 153.180679 
L 744.805161 152.593666 
L 747.778065 152.243675 
L 750.007742 152.069558 
L 751.494194 151.827937 
L 770.074839 149.950383 
L 772.304516 149.732624 
L 775.649032 149.475741 
L 778.250323 149.242601 
L 782.338065 148.988818 
L 797.945806 148.247222 
L 799.803871 148.214712 
L 802.405161 148.218309 
L 804.263226 148.189842 
L 808.722581 148.207791 
L 823.215484 148.651978 
L 835.107097 149.291322 
L 836.965161 149.44126 
L 839.194839 149.55758 
L 846.627097 149.989047 
L 852.20129 150.241117 
L 864.836129 150.512371 
L 875.24129 150.350082 
L 907.571613 149.044032 
L 907.571613 149.044032 
" style="fill:none;stroke:#ff7f0e;stroke-linecap:square;stroke-width:3;"/>
   </g>
   <g id="line2d_32">
    <path clip-path="url(#p2752576e35)" d="M 535.587097 158.227545 
L 907.2 158.227545 
" style="fill:none;stroke:#000000;stroke-dasharray:3.2,0.8,0.5,0.8;stroke-dashoffset:0;stroke-width:0.5;"/>
   </g>
   <g id="line2d_33">
    <path clip-path="url(#p2752576e35)" d="M 535.587097 244.45509 
L 535.587097 72 
" style="fill:none;stroke:#000000;stroke-linecap:square;stroke-width:0.5;"/>
   </g>
   <g id="line2d_34">
    <path clip-path="url(#p2752576e35)" d="M 609.909677 244.45509 
L 609.909677 72 
" style="fill:none;stroke:#000000;stroke-dasharray:3.2,0.8,0.5,0.8;stroke-dashoffset:0;stroke-opacity:0.25;stroke-width:0.5;"/>
   </g>
   <g id="line2d_35">
    <path clip-path="url(#p2752576e35)" d="M 684.232258 244.45509 
L 684.232258 72 
" style="fill:none;stroke:#000000;stroke-dasharray:3.2,0.8,0.5,0.8;stroke-dashoffset:0;stroke-opacity:0.25;stroke-width:0.5;"/>
   </g>
   <g id="line2d_36">
    <path clip-path="url(#p2752576e35)" d="M 758.554839 244.45509 
L 758.554839 72 
" style="fill:none;stroke:#000000;stroke-dasharray:3.2,0.8,0.5,0.8;stroke-dashoffset:0;stroke-opacity:0.25;stroke-width:0.5;"/>
   </g>
   <g id="patch_8">
    <path d="M 535.587097 244.45509 
L 535.587097 72 
" style="fill:none;stroke:#000000;stroke-linecap:square;stroke-linejoin:miter;stroke-width:0.8;"/>
   </g>
   <g id="patch_9">
    <path d="M 907.2 244.45509 
L 907.2 72 
" style="fill:none;stroke:#000000;stroke-linecap:square;stroke-linejoin:miter;stroke-width:0.8;"/>
   </g>
   <g id="patch_10">
    <path d="M 535.587097 244.45509 
L 907.2 244.45509 
" style="fill:none;stroke:#000000;stroke-linecap:square;stroke-linejoin:miter;stroke-width:0.8;"/>
   </g>
   <g id="patch_11">
    <path d="M 535.587097 72 
L 907.2 72 
" style="fill:none;stroke:#000000;stroke-linecap:square;stroke-linejoin:miter;stroke-width:0.8;"/>
   </g>
   <g id="text_8">
    <!-- $s/c = 1.5$ -->
    <defs>
     <path d="M 36.59375 44.203125 
L 34.59375 30.203125 
L 33 30.203125 
Q 31.59375 41.796875 24.09375 41.796875 
Q 21.40625 41.796875 19.796875 40.296875 
Q 18.203125 38.796875 18.203125 36.09375 
Q 18.203125 32.296875 23.59375 25.90625 
Q 30.40625 18 30.40625 12.296875 
Q 30.40625 6.203125 26.34375 2.546875 
Q 22.296875 -1.09375 16 -1.09375 
Q 13.09375 -1.09375 10.5 -0.09375 
Q 8.40625 0.796875 6.09375 0.796875 
Q 4.09375 0.796875 3.203125 -1.296875 
L 1.59375 -1.296875 
L 3.59375 14.59375 
L 5.203125 14.59375 
Q 7.203125 1 15.203125 1 
Q 18.796875 1 20.796875 3 
Q 22.796875 5 22.796875 8.703125 
Q 22.796875 13.203125 17.203125 20.203125 
Q 10.90625 28.09375 10.90625 33.296875 
Q 10.90625 38.296875 14.203125 41.1875 
Q 17.5 44.09375 23 44.09375 
Q 25 44.09375 28.59375 43.09375 
Q 30.796875 42.40625 32.203125 42.40625 
Q 34.203125 42.40625 35.203125 44.203125 
z
" id="STIXGeneral-Italic-115"/>
     <path d="M 28.703125 67.59375 
L 5.90625 -1.40625 
L -0.90625 -1.40625 
L 22 67.59375 
z
" id="STIXGeneral-Regular-47"/>
     <path d="M 35 10.703125 
L 36.59375 9.703125 
Q 32 3.90625 27.640625 1.40625 
Q 23.296875 -1.09375 17.703125 -1.09375 
Q 10.59375 -1.09375 6.796875 2.796875 
Q 3 6.703125 3 14.296875 
Q 3 21 6.390625 27.25 
Q 9.796875 33.5 15.296875 38 
Q 23 44.09375 32 44.09375 
Q 36.59375 44.09375 39.546875 41.796875 
Q 42.5 39.5 42.5 36 
Q 42.5 34 41.09375 32.59375 
Q 39.703125 31.203125 37.703125 31.203125 
Q 35.703125 31.203125 34.75 32.34375 
Q 33.796875 33.5 33.796875 35.203125 
Q 33.796875 36.09375 34.546875 37.546875 
Q 35.296875 39 35.296875 40 
Q 35.296875 42 31.59375 42 
Q 25.296875 42 20.703125 37.203125 
Q 11.59375 27.59375 11.59375 13.90625 
Q 11.59375 8.5 13.890625 5.5 
Q 16.203125 2.5 20.5 2.5 
Q 24.40625 2.5 27.59375 4.390625 
Q 30.796875 6.296875 35 10.703125 
z
" id="STIXGeneral-Italic-99"/>
     <path d="M 63.703125 32 
L 4.796875 32 
L 4.796875 38.59375 
L 63.703125 38.59375 
z
M 63.703125 12 
L 4.796875 12 
L 4.796875 18.59375 
L 63.703125 18.59375 
z
" id="STIXGeneral-Regular-61"/>
     <path d="M 39.40625 0 
L 11.796875 0 
L 11.796875 1.5 
Q 17.296875 1.796875 19.296875 3.546875 
Q 21.296875 5.296875 21.296875 9.5 
L 21.296875 54.40625 
Q 21.296875 59.296875 18.296875 59.296875 
Q 16.90625 59.296875 13.796875 58.09375 
L 11.09375 57.09375 
L 11.09375 58.5 
L 29 67.59375 
L 29.90625 67.296875 
L 29.90625 7.59375 
Q 29.90625 4.296875 31.90625 2.890625 
Q 33.90625 1.5 39.40625 1.5 
z
" id="STIXGeneral-Regular-49"/>
     <path d="M 18.09375 4.296875 
Q 18.09375 2.09375 16.4375 0.5 
Q 14.796875 -1.09375 12.5 -1.09375 
Q 10.203125 -1.09375 8.59375 0.5 
Q 7 2.09375 7 4.390625 
Q 7 6.703125 8.640625 8.34375 
Q 10.296875 10 12.59375 10 
Q 14.796875 10 16.4375 8.296875 
Q 18.09375 6.59375 18.09375 4.296875 
z
" id="STIXGeneral-Regular-46"/>
     <path d="M 43.796875 68.09375 
L 40.203125 59.59375 
Q 39.59375 58.296875 37.5 58.296875 
L 18.09375 58.296875 
L 14.09375 49.796875 
Q 25.09375 47.703125 30 45.25 
Q 34.90625 42.796875 39.09375 37 
Q 42.59375 32.203125 42.59375 24.296875 
Q 42.59375 17.09375 40.25 12.1875 
Q 37.90625 7.296875 32.796875 3.5 
Q 26 -1.40625 15.796875 -1.40625 
Q 10.09375 -1.40625 6.59375 0.296875 
Q 3.09375 2 3.09375 4.796875 
Q 3.09375 8.59375 7.59375 8.59375 
Q 11.203125 8.59375 15 5.5 
Q 18.90625 2.296875 22.09375 2.296875 
Q 27.296875 2.296875 31.4375 7.5 
Q 35.59375 12.703125 35.59375 19.203125 
Q 35.59375 28.796875 28.90625 34.203125 
Q 20.203125 41.203125 7.59375 41.203125 
Q 6.40625 41.203125 6.40625 42 
L 6.5 42.5 
L 17.40625 66.203125 
L 38.09375 66.203125 
Q 39.796875 66.203125 40.75 66.703125 
Q 41.703125 67.203125 42.90625 68.796875 
z
" id="STIXGeneral-Regular-53"/>
    </defs>
    <g transform="translate(925.449677 162.420982)scale(0.18 -0.18)">
     <use transform="translate(0 0.203125)" xlink:href="#STIXGeneral-Italic-115"/>
     <use transform="translate(38.899994 0.203125)" xlink:href="#STIXGeneral-Regular-47"/>
     <use transform="translate(66.699982 0.203125)" xlink:href="#STIXGeneral-Italic-99"/>
     <use transform="translate(125.539972 0.203125)" xlink:href="#STIXGeneral-Regular-61"/>
     <use transform="translate(208.479953 0.203125)" xlink:href="#STIXGeneral-Regular-49"/>
     <use transform="translate(258.479938 0.203125)" xlink:href="#STIXGeneral-Regular-46"/>
     <use transform="translate(283.479922 0.203125)" xlink:href="#STIXGeneral-Regular-53"/>
    </g>
   </g>
   <g id="legend_1">
    <g id="line2d_37">
     <path d="M 408.449892 47.628728 
L 438.437892 47.628728 
" style="fill:none;stroke:#1f77b4;stroke-linecap:square;stroke-width:3;"/>
    </g>
    <g id="line2d_38"/>
    <g id="text_9">
     <!-- $Re = 10^2$ -->
     <defs>
      <path d="M 13.203125 65.296875 
L 38.40625 65.296875 
Q 48.09375 65.296875 53.4375 61.5 
Q 58.796875 57.703125 58.796875 51.203125 
Q 58.796875 43.40625 52.203125 38.40625 
Q 48.296875 35.40625 39.09375 33.296875 
L 48 9.796875 
Q 49.703125 5.203125 51.546875 3.390625 
Q 53.40625 1.59375 56.703125 1.59375 
L 56.703125 0 
L 42 0 
L 29.703125 32.40625 
L 23.09375 32.90625 
L 17.59375 12.59375 
Q 16.296875 8 16.296875 6.296875 
Q 16.296875 4 17.59375 3 
Q 18.90625 2 23 1.59375 
L 23 0 
L -1.296875 0 
L -1.296875 1.59375 
Q 2.703125 2.09375 4.34375 3.796875 
Q 6 5.5 7.203125 10.09375 
L 19.09375 53.203125 
Q 20.296875 57.796875 20.296875 59.5 
Q 20.296875 61.296875 18.90625 62.296875 
Q 17.703125 63.09375 13.203125 63.703125 
z
M 30.59375 59.296875 
L 24.296875 36.59375 
Q 27.40625 36.09375 29.40625 36.09375 
Q 38.296875 36.09375 43.296875 40.09375 
Q 48.296875 44.09375 48.296875 51.09375 
Q 48.296875 56.296875 45.1875 59.296875 
Q 42.09375 62.296875 36.296875 62.296875 
Q 31.40625 62.296875 30.59375 59.296875 
z
" id="STIXGeneral-Italic-82"/>
      <path d="M 35.796875 10.90625 
L 37 9.703125 
Q 28.203125 -1.09375 16.59375 -1.09375 
Q 10.5 -1.09375 6.796875 2.65625 
Q 3.09375 6.40625 3.09375 12.59375 
Q 3.09375 24.296875 12.4375 34.1875 
Q 21.796875 44.09375 33 44.09375 
Q 36.90625 44.09375 39.046875 42.296875 
Q 41.203125 40.5 41.203125 37.296875 
Q 41.203125 30.703125 33.546875 25.5 
Q 25.90625 20.296875 12.796875 18.59375 
Q 11.796875 16.59375 11.796875 12.5 
Q 11.796875 8.40625 14.34375 5.90625 
Q 16.90625 3.40625 21.09375 3.40625 
Q 24.40625 3.40625 27.40625 4.953125 
Q 30.40625 6.5 35.796875 10.90625 
z
M 15.203125 25.203125 
L 13.5 20.796875 
Q 24.703125 23.5 29.59375 28.203125 
Q 34.59375 33 34.59375 37.90625 
Q 34.59375 41.796875 31.09375 41.796875 
Q 26.90625 41.796875 22.34375 36.9375 
Q 17.796875 32.09375 15.203125 25.203125 
z
" id="STIXGeneral-Italic-101"/>
     </defs>
     <g transform="translate(450.433092 52.876628)scale(0.14994 -0.14994)">
      <use transform="translate(0 0.409375)" xlink:href="#STIXGeneral-Italic-82"/>
      <use transform="translate(61.099991 0.409375)" xlink:href="#STIXGeneral-Italic-101"/>
      <use transform="translate(119.939981 0.409375)" xlink:href="#STIXGeneral-Regular-61"/>
      <use transform="translate(202.879962 0.409375)" xlink:href="#STIXGeneral-Regular-49"/>
      <use transform="translate(252.879947 0.409375)" xlink:href="#STIXGeneral-Regular-48"/>
      <use transform="translate(304.423213 35.684375)scale(0.7)" xlink:href="#STIXGeneral-Regular-50"/>
     </g>
    </g>
    <g id="line2d_39">
     <path d="M 532.000452 47.628728 
L 561.988452 47.628728 
" style="fill:none;stroke:#ff7f0e;stroke-linecap:square;stroke-width:3;"/>
    </g>
    <g id="line2d_40"/>
    <g id="text_10">
     <!-- $Re = 10^3$ -->
     <defs>
      <path d="M 6.09375 51 
L 4.5 51.40625 
Q 6.796875 58.90625 11.6875 63.25 
Q 16.59375 67.59375 24.09375 67.59375 
Q 31.09375 67.59375 35.390625 63.796875 
Q 39.703125 60 39.703125 53.90625 
Q 39.703125 45.703125 30.40625 40.09375 
Q 35.90625 37.703125 38.703125 34.796875 
Q 43.09375 29.90625 43.09375 21.90625 
Q 43.09375 13.90625 38.5 7.90625 
Q 35.09375 3.296875 28.75 0.9375 
Q 22.40625 -1.40625 15.296875 -1.40625 
Q 4.09375 -1.40625 4.09375 4.296875 
Q 4.09375 5.90625 5.296875 6.90625 
Q 6.5 7.90625 8.203125 7.90625 
Q 10.703125 7.90625 14.296875 5.296875 
Q 18.703125 2.203125 22.90625 2.203125 
Q 28.40625 2.203125 32.15625 6.640625 
Q 35.90625 11.09375 35.90625 17.5 
Q 35.90625 29 25.5 32 
Q 22.40625 33 15.296875 33 
L 15.296875 34.40625 
Q 20.90625 36.296875 23.703125 38 
Q 31.796875 42.59375 31.796875 51.40625 
Q 31.796875 56.40625 28.9375 59 
Q 26.09375 61.59375 21 61.59375 
Q 12 61.59375 6.09375 51 
z
" id="STIXGeneral-Regular-51"/>
     </defs>
     <g transform="translate(573.983652 52.876628)scale(0.14994 -0.14994)">
      <use transform="translate(0 0.409375)" xlink:href="#STIXGeneral-Italic-82"/>
      <use transform="translate(61.099991 0.409375)" xlink:href="#STIXGeneral-Italic-101"/>
      <use transform="translate(119.939981 0.409375)" xlink:href="#STIXGeneral-Regular-61"/>
      <use transform="translate(202.879962 0.409375)" xlink:href="#STIXGeneral-Regular-49"/>
      <use transform="translate(252.879947 0.409375)" xlink:href="#STIXGeneral-Regular-48"/>
      <use transform="translate(304.423213 35.684375)scale(0.7)" xlink:href="#STIXGeneral-Regular-51"/>
     </g>
    </g>
   </g>
  </g>
  <g id="axes_3">
   <g id="patch_12">
    <path d="M 100.8 446.227545 
L 472.412903 446.227545 
L 472.412903 273.772455 
L 100.8 273.772455 
z
" style="fill:#ffffff;"/>
   </g>
   <g id="matplotlib.axis_5">
    <g id="xtick_13">
     <g id="line2d_41">
      <g>
       <use style="fill:#ffffff;stroke:#000000;stroke-width:0.8;" x="100.8" xlink:href="#mb4837bc1a2" y="446.227545"/>
      </g>
     </g>
    </g>
    <g id="xtick_14">
     <g id="line2d_42">
      <g>
       <use style="fill:#ffffff;stroke:#000000;stroke-width:0.8;" x="175.122581" xlink:href="#mb4837bc1a2" y="446.227545"/>
      </g>
     </g>
    </g>
    <g id="xtick_15">
     <g id="line2d_43">
      <g>
       <use style="fill:#ffffff;stroke:#000000;stroke-width:0.8;" x="249.445161" xlink:href="#mb4837bc1a2" y="446.227545"/>
      </g>
     </g>
    </g>
    <g id="xtick_16">
     <g id="line2d_44">
      <g>
       <use style="fill:#ffffff;stroke:#000000;stroke-width:0.8;" x="323.767742" xlink:href="#mb4837bc1a2" y="446.227545"/>
      </g>
     </g>
    </g>
    <g id="xtick_17">
     <g id="line2d_45">
      <g>
       <use style="fill:#ffffff;stroke:#000000;stroke-width:0.8;" x="398.090323" xlink:href="#mb4837bc1a2" y="446.227545"/>
      </g>
     </g>
    </g>
    <g id="xtick_18">
     <g id="line2d_46">
      <g>
       <use style="fill:#ffffff;stroke:#000000;stroke-width:0.8;" x="472.412903" xlink:href="#mb4837bc1a2" y="446.227545"/>
      </g>
     </g>
    </g>
   </g>
   <g id="matplotlib.axis_6">
    <g id="ytick_11">
     <g id="line2d_47">
      <g>
       <use style="fill:#ffffff;stroke:#000000;stroke-width:0.8;" x="100.8" xlink:href="#mcbbe0aec73" y="446.227545"/>
      </g>
     </g>
     <g id="text_11">
      <!-- −4 -->
      <g transform="translate(72.47 452.374264)scale(0.18 -0.18)">
       <use xlink:href="#STIXGeneral-Regular-8722"/>
       <use x="68.499985" xlink:href="#STIXGeneral-Regular-52"/>
      </g>
     </g>
    </g>
    <g id="ytick_12">
     <g id="line2d_48">
      <g>
       <use style="fill:#ffffff;stroke:#000000;stroke-width:0.8;" x="100.8" xlink:href="#mcbbe0aec73" y="403.113772"/>
      </g>
     </g>
     <g id="text_12">
      <!-- −2 -->
      <g transform="translate(72.47 409.260491)scale(0.18 -0.18)">
       <use xlink:href="#STIXGeneral-Regular-8722"/>
       <use x="68.499985" xlink:href="#STIXGeneral-Regular-50"/>
      </g>
     </g>
    </g>
    <g id="ytick_13">
     <g id="line2d_49">
      <g>
       <use style="fill:#ffffff;stroke:#000000;stroke-width:0.8;" x="100.8" xlink:href="#mcbbe0aec73" y="360"/>
      </g>
     </g>
     <g id="text_13">
      <!-- 0 -->
      <g transform="translate(84.8 366.146719)scale(0.18 -0.18)">
       <use xlink:href="#STIXGeneral-Regular-48"/>
      </g>
     </g>
    </g>
    <g id="ytick_14">
     <g id="line2d_50">
      <g>
       <use style="fill:#ffffff;stroke:#000000;stroke-width:0.8;" x="100.8" xlink:href="#mcbbe0aec73" y="316.886228"/>
      </g>
     </g>
     <g id="text_14">
      <!-- 2 -->
      <g transform="translate(84.8 323.032946)scale(0.18 -0.18)">
       <use xlink:href="#STIXGeneral-Regular-50"/>
      </g>
     </g>
    </g>
    <g id="ytick_15">
     <g id="line2d_51">
      <g>
       <use style="fill:#ffffff;stroke:#000000;stroke-width:0.8;" x="100.8" xlink:href="#mcbbe0aec73" y="273.772455"/>
      </g>
     </g>
     <g id="text_15">
      <!-- 4 -->
      <g transform="translate(84.8 279.919174)scale(0.18 -0.18)">
       <use xlink:href="#STIXGeneral-Regular-52"/>
      </g>
     </g>
    </g>
    <g id="text_16">
     <!-- $C_l$ -->
     <g transform="translate(64.563438 368.19)rotate(-90)scale(0.18 -0.18)">
      <use transform="translate(0 0.40625)" xlink:href="#STIXGeneral-Italic-67"/>
      <use transform="translate(66.699997 -12.821875)scale(0.7)" xlink:href="#STIXGeneral-Italic-108"/>
     </g>
    </g>
   </g>
   <g id="line2d_52">
    <path clip-path="url(#pefa976ae93)" d="M 100.428387 350.494208 
L 101.171613 350.925811 
L 101.914839 351.095579 
L 103.029677 350.955872 
L 104.516129 350.401653 
L 106.374194 349.403693 
L 117.522581 342.68835 
L 119.752258 341.586283 
L 122.725161 340.303807 
L 126.069677 339.096642 
L 129.042581 338.228212 
L 132.75871 337.404558 
L 136.474839 336.826778 
L 140.190968 336.512894 
L 143.907097 336.44091 
L 147.994839 336.634553 
L 152.825806 337.134476 
L 158.028387 337.938041 
L 162.859355 338.884381 
L 168.433548 340.144363 
L 177.723871 342.444832 
L 199.277419 347.700172 
L 207.452903 349.437574 
L 216 351.056881 
L 227.52 352.924833 
L 232.722581 353.663403 
L 242.756129 354.907428 
L 253.904516 356.059598 
L 266.167742 357.097414 
L 279.174194 357.985954 
L 294.03871 358.79322 
L 314.477419 359.639283 
L 339.375484 360.392787 
L 366.131613 360.979279 
L 407.380645 361.58339 
L 452.345806 361.997059 
L 472.784516 362.127824 
L 472.784516 362.127824 
" style="fill:none;stroke:#1f77b4;stroke-linecap:square;stroke-width:3;"/>
   </g>
   <g id="line2d_53">
    <path clip-path="url(#pefa976ae93)" d="M 100.428387 311.065887 
L 101.171613 311.308785 
L 102.286452 311.11011 
L 104.144516 310.011428 
L 105.630968 308.990574 
L 108.603871 307.422037 
L 111.948387 306.357259 
L 113.063226 306.030856 
L 113.806452 305.801672 
L 117.150968 305.041496 
L 117.894194 304.83301 
L 120.495484 304.479494 
L 121.981935 304.483838 
L 123.468387 304.553271 
L 126.812903 305.316575 
L 128.670968 306.136634 
L 132.75871 308.731618 
L 134.616774 310.2255 
L 136.846452 312.276023 
L 139.447742 314.883985 
L 142.049032 317.704042 
L 143.535484 319.394355 
L 154.312258 331.394391 
L 156.170323 333.297824 
L 158.028387 335.095947 
L 161.372903 338.146069 
L 162.116129 338.737167 
L 163.230968 339.735991 
L 165.089032 341.173466 
L 171.034839 345.456014 
L 174.750968 347.701913 
L 175.122581 347.841693 
L 175.865806 348.329075 
L 182.554839 351.579052 
L 190.730323 354.52439 
L 194.446452 355.580223 
L 197.419355 356.306724 
L 204.851613 357.787211 
L 209.682581 358.462464 
L 222.689032 359.899773 
L 225.661935 360.119813 
L 229.749677 360.362196 
L 234.580645 360.618189 
L 239.411613 360.851729 
L 243.499355 360.993138 
L 245.357419 361.075107 
L 257.992258 361.454287 
L 307.045161 362.446968 
L 310.018065 362.48881 
L 316.707097 362.57864 
L 321.538065 362.634039 
L 347.550968 362.931648 
L 366.131613 363.093032 
L 376.165161 363.168725 
L 378.766452 363.193413 
L 472.784516 363.628278 
L 472.784516 363.628278 
" style="fill:none;stroke:#ff7f0e;stroke-linecap:square;stroke-width:3;"/>
   </g>
   <g id="line2d_54">
    <path clip-path="url(#pefa976ae93)" d="M 100.8 360 
L 472.412903 360 
" style="fill:none;stroke:#000000;stroke-dasharray:3.2,0.8,0.5,0.8;stroke-dashoffset:0;stroke-width:0.5;"/>
   </g>
   <g id="line2d_55">
    <path clip-path="url(#pefa976ae93)" d="M 100.8 446.227545 
L 100.8 273.772455 
" style="fill:none;stroke:#000000;stroke-linecap:square;stroke-width:0.5;"/>
   </g>
   <g id="line2d_56">
    <path clip-path="url(#pefa976ae93)" d="M 175.122581 446.227545 
L 175.122581 273.772455 
" style="fill:none;stroke:#000000;stroke-dasharray:3.2,0.8,0.5,0.8;stroke-dashoffset:0;stroke-opacity:0.25;stroke-width:0.5;"/>
   </g>
   <g id="line2d_57">
    <path clip-path="url(#pefa976ae93)" d="M 249.445161 446.227545 
L 249.445161 273.772455 
" style="fill:none;stroke:#000000;stroke-dasharray:3.2,0.8,0.5,0.8;stroke-dashoffset:0;stroke-opacity:0.25;stroke-width:0.5;"/>
   </g>
   <g id="line2d_58">
    <path clip-path="url(#pefa976ae93)" d="M 323.767742 446.227545 
L 323.767742 273.772455 
" style="fill:none;stroke:#000000;stroke-dasharray:3.2,0.8,0.5,0.8;stroke-dashoffset:0;stroke-opacity:0.25;stroke-width:0.5;"/>
   </g>
   <g id="patch_13">
    <path d="M 100.8 446.227545 
L 100.8 273.772455 
" style="fill:none;stroke:#000000;stroke-linecap:square;stroke-linejoin:miter;stroke-width:0.8;"/>
   </g>
   <g id="patch_14">
    <path d="M 472.412903 446.227545 
L 472.412903 273.772455 
" style="fill:none;stroke:#000000;stroke-linecap:square;stroke-linejoin:miter;stroke-width:0.8;"/>
   </g>
   <g id="patch_15">
    <path d="M 100.8 446.227545 
L 472.412903 446.227545 
" style="fill:none;stroke:#000000;stroke-linecap:square;stroke-linejoin:miter;stroke-width:0.8;"/>
   </g>
   <g id="patch_16">
    <path d="M 100.8 273.772455 
L 472.412903 273.772455 
" style="fill:none;stroke:#000000;stroke-linecap:square;stroke-linejoin:miter;stroke-width:0.8;"/>
   </g>
  </g>
  <g id="axes_4">
   <g id="patch_17">
    <path d="M 535.587097 446.227545 
L 907.2 446.227545 
L 907.2 273.772455 
L 535.587097 273.772455 
z
" style="fill:#ffffff;"/>
   </g>
   <g id="matplotlib.axis_7">
    <g id="xtick_19">
     <g id="line2d_59">
      <g>
       <use style="fill:#ffffff;stroke:#000000;stroke-width:0.8;" x="535.587097" xlink:href="#mb4837bc1a2" y="446.227545"/>
      </g>
     </g>
    </g>
    <g id="xtick_20">
     <g id="line2d_60">
      <g>
       <use style="fill:#ffffff;stroke:#000000;stroke-width:0.8;" x="609.909677" xlink:href="#mb4837bc1a2" y="446.227545"/>
      </g>
     </g>
    </g>
    <g id="xtick_21">
     <g id="line2d_61">
      <g>
       <use style="fill:#ffffff;stroke:#000000;stroke-width:0.8;" x="684.232258" xlink:href="#mb4837bc1a2" y="446.227545"/>
      </g>
     </g>
    </g>
    <g id="xtick_22">
     <g id="line2d_62">
      <g>
       <use style="fill:#ffffff;stroke:#000000;stroke-width:0.8;" x="758.554839" xlink:href="#mb4837bc1a2" y="446.227545"/>
      </g>
     </g>
    </g>
    <g id="xtick_23">
     <g id="line2d_63">
      <g>
       <use style="fill:#ffffff;stroke:#000000;stroke-width:0.8;" x="832.877419" xlink:href="#mb4837bc1a2" y="446.227545"/>
      </g>
     </g>
    </g>
    <g id="xtick_24">
     <g id="line2d_64">
      <g>
       <use style="fill:#ffffff;stroke:#000000;stroke-width:0.8;" x="907.2" xlink:href="#mb4837bc1a2" y="446.227545"/>
      </g>
     </g>
    </g>
   </g>
   <g id="matplotlib.axis_8">
    <g id="ytick_16">
     <g id="line2d_65">
      <g>
       <use style="fill:#ffffff;stroke:#000000;stroke-width:0.8;" x="535.587097" xlink:href="#mcbbe0aec73" y="446.227545"/>
      </g>
     </g>
    </g>
    <g id="ytick_17">
     <g id="line2d_66">
      <g>
       <use style="fill:#ffffff;stroke:#000000;stroke-width:0.8;" x="535.587097" xlink:href="#mcbbe0aec73" y="403.113772"/>
      </g>
     </g>
    </g>
    <g id="ytick_18">
     <g id="line2d_67">
      <g>
       <use style="fill:#ffffff;stroke:#000000;stroke-width:0.8;" x="535.587097" xlink:href="#mcbbe0aec73" y="360"/>
      </g>
     </g>
    </g>
    <g id="ytick_19">
     <g id="line2d_68">
      <g>
       <use style="fill:#ffffff;stroke:#000000;stroke-width:0.8;" x="535.587097" xlink:href="#mcbbe0aec73" y="316.886228"/>
      </g>
     </g>
    </g>
    <g id="ytick_20">
     <g id="line2d_69">
      <g>
       <use style="fill:#ffffff;stroke:#000000;stroke-width:0.8;" x="535.587097" xlink:href="#mcbbe0aec73" y="273.772455"/>
      </g>
     </g>
    </g>
    <g id="text_17">
     <!-- $C_d$ -->
     <g transform="translate(520.680534 369.63)rotate(-90)scale(0.18 -0.18)">
      <use transform="translate(0 0.40625)" xlink:href="#STIXGeneral-Italic-67"/>
      <use transform="translate(66.699997 -12.821875)scale(0.7)" xlink:href="#STIXGeneral-Italic-100"/>
     </g>
    </g>
   </g>
   <g id="line2d_70">
    <path clip-path="url(#p574f42849b)" d="M 535.215484 396.474948 
L 535.95871 395.836055 
L 536.701935 395.464408 
L 537.816774 395.311762 
L 538.931613 395.420342 
L 540.789677 395.933567 
L 545.249032 397.721523 
L 547.47871 398.629134 
L 550.451613 399.670431 
L 554.539355 400.685772 
L 556.769032 401.033761 
L 560.113548 401.281312 
L 563.086452 401.231699 
L 566.059355 400.946543 
L 569.775484 400.311749 
L 573.12 399.496697 
L 576.464516 398.458215 
L 580.180645 397.084565 
L 585.011613 395.034461 
L 592.443871 391.568527 
L 612.510968 381.945746 
L 619.943226 378.761948 
L 627.003871 375.992613 
L 634.064516 373.527167 
L 640.010323 371.678312 
L 645.584516 370.120096 
L 653.016774 368.286027 
L 660.449032 366.710741 
L 669.367742 365.104604 
L 676.8 363.975914 
L 687.576774 362.614137 
L 699.096774 361.446812 
L 709.130323 360.622002 
L 723.251613 359.6975 
L 739.602581 358.879496 
L 758.183226 358.183524 
L 780.851613 357.559982 
L 809.465806 357.010589 
L 855.545806 356.479315 
L 906.085161 356.19574 
L 907.571613 356.190862 
L 907.571613 356.190862 
" style="fill:none;stroke:#1f77b4;stroke-linecap:square;stroke-width:3;"/>
   </g>
   <g id="line2d_71">
    <path clip-path="url(#p574f42849b)" d="M 535.215484 427.750738 
L 535.95871 427.11743 
L 537.073548 426.720868 
L 538.56 426.804359 
L 540.046452 427.086533 
L 542.276129 427.397847 
L 544.505806 427.436307 
L 545.620645 427.389754 
L 551.194839 426.832023 
L 554.167742 426.231078 
L 556.397419 425.459453 
L 559.370323 423.937125 
L 560.485161 423.236773 
L 562.714839 421.555219 
L 565.687742 418.746607 
L 569.032258 415.039123 
L 576.092903 405.867307 
L 586.126452 392.499156 
L 588.727742 389.319973 
L 592.443871 385.13074 
L 597.646452 379.977276 
L 601.362581 376.821525 
L 607.308387 372.508116 
L 609.538065 371.110718 
L 609.909677 370.963178 
L 610.652903 370.450392 
L 616.227097 367.556575 
L 617.341935 367.075948 
L 623.659355 364.696616 
L 627.003871 363.663276 
L 637.037419 361.274977 
L 638.895484 360.947652 
L 647.442581 359.734907 
L 648.557419 359.624762 
L 650.787097 359.358085 
L 651.901935 359.267439 
L 654.503226 359.0481 
L 655.246452 358.98859 
L 657.847742 358.766692 
L 658.590968 358.74669 
L 660.077419 358.598067 
L 664.908387 358.332388 
L 666.023226 358.261367 
L 670.482581 358.040305 
L 684.975484 357.5621 
L 699.468387 357.210911 
L 755.581935 356.303566 
L 759.298065 356.251439 
L 764.129032 356.202797 
L 781.223226 356.021799 
L 785.682581 355.965686 
L 789.027097 355.937731 
L 871.525161 355.459472 
L 878.957419 355.443441 
L 884.16 355.422442 
L 907.571613 355.327855 
L 907.571613 355.327855 
" style="fill:none;stroke:#ff7f0e;stroke-linecap:square;stroke-width:3;"/>
   </g>
   <g id="line2d_72">
    <path clip-path="url(#p574f42849b)" d="M 535.587097 360 
L 907.2 360 
" style="fill:none;stroke:#000000;stroke-dasharray:3.2,0.8,0.5,0.8;stroke-dashoffset:0;stroke-width:0.5;"/>
   </g>
   <g id="line2d_73">
    <path clip-path="url(#p574f42849b)" d="M 535.587097 446.227545 
L 535.587097 273.772455 
" style="fill:none;stroke:#000000;stroke-linecap:square;stroke-width:0.5;"/>
   </g>
   <g id="line2d_74">
    <path clip-path="url(#p574f42849b)" d="M 609.909677 446.227545 
L 609.909677 273.772455 
" style="fill:none;stroke:#000000;stroke-dasharray:3.2,0.8,0.5,0.8;stroke-dashoffset:0;stroke-opacity:0.25;stroke-width:0.5;"/>
   </g>
   <g id="line2d_75">
    <path clip-path="url(#p574f42849b)" d="M 684.232258 446.227545 
L 684.232258 273.772455 
" style="fill:none;stroke:#000000;stroke-dasharray:3.2,0.8,0.5,0.8;stroke-dashoffset:0;stroke-opacity:0.25;stroke-width:0.5;"/>
   </g>
   <g id="line2d_76">
    <path clip-path="url(#p574f42849b)" d="M 758.554839 446.227545 
L 758.554839 273.772455 
" style="fill:none;stroke:#000000;stroke-dasharray:3.2,0.8,0.5,0.8;stroke-dashoffset:0;stroke-opacity:0.25;stroke-width:0.5;"/>
   </g>
   <g id="patch_18">
    <path d="M 535.587097 446.227545 
L 535.587097 273.772455 
" style="fill:none;stroke:#000000;stroke-linecap:square;stroke-linejoin:miter;stroke-width:0.8;"/>
   </g>
   <g id="patch_19">
    <path d="M 907.2 446.227545 
L 907.2 273.772455 
" style="fill:none;stroke:#000000;stroke-linecap:square;stroke-linejoin:miter;stroke-width:0.8;"/>
   </g>
   <g id="patch_20">
    <path d="M 535.587097 446.227545 
L 907.2 446.227545 
" style="fill:none;stroke:#000000;stroke-linecap:square;stroke-linejoin:miter;stroke-width:0.8;"/>
   </g>
   <g id="patch_21">
    <path d="M 535.587097 273.772455 
L 907.2 273.772455 
" style="fill:none;stroke:#000000;stroke-linecap:square;stroke-linejoin:miter;stroke-width:0.8;"/>
   </g>
   <g id="text_18">
    <!-- $s/c = 3.0$ -->
    <g transform="translate(925.449677 364.193438)scale(0.18 -0.18)">
     <use transform="translate(0 0.40625)" xlink:href="#STIXGeneral-Italic-115"/>
     <use transform="translate(38.899994 0.40625)" xlink:href="#STIXGeneral-Regular-47"/>
     <use transform="translate(66.699982 0.40625)" xlink:href="#STIXGeneral-Italic-99"/>
     <use transform="translate(125.539972 0.40625)" xlink:href="#STIXGeneral-Regular-61"/>
     <use transform="translate(208.479953 0.40625)" xlink:href="#STIXGeneral-Regular-51"/>
     <use transform="translate(258.479938 0.40625)" xlink:href="#STIXGeneral-Regular-46"/>
     <use transform="translate(283.479922 0.40625)" xlink:href="#STIXGeneral-Regular-48"/>
    </g>
   </g>
  </g>
  <g id="axes_5">
   <g id="patch_22">
    <path d="M 100.8 648 
L 472.412903 648 
L 472.412903 475.54491 
L 100.8 475.54491 
z
" style="fill:#ffffff;"/>
   </g>
   <g id="matplotlib.axis_9">
    <g id="xtick_25">
     <g id="line2d_77">
      <g>
       <use style="fill:#ffffff;stroke:#000000;stroke-width:0.8;" x="100.8" xlink:href="#mb4837bc1a2" y="648"/>
      </g>
     </g>
     <g id="text_19">
      <!-- 1.0 -->
      <g transform="translate(89.55 667.293437)scale(0.18 -0.18)">
       <use xlink:href="#STIXGeneral-Regular-49"/>
       <use x="49.999985" xlink:href="#STIXGeneral-Regular-46"/>
       <use x="74.999969" xlink:href="#STIXGeneral-Regular-48"/>
      </g>
     </g>
    </g>
    <g id="xtick_26">
     <g id="line2d_78">
      <g>
       <use style="fill:#ffffff;stroke:#000000;stroke-width:0.8;" x="175.122581" xlink:href="#mb4837bc1a2" y="648"/>
      </g>
     </g>
     <g id="text_20">
      <!-- 1.2 -->
      <g transform="translate(163.872581 667.293437)scale(0.18 -0.18)">
       <use xlink:href="#STIXGeneral-Regular-49"/>
       <use x="49.999985" xlink:href="#STIXGeneral-Regular-46"/>
       <use x="74.999969" xlink:href="#STIXGeneral-Regular-50"/>
      </g>
     </g>
    </g>
    <g id="xtick_27">
     <g id="line2d_79">
      <g>
       <use style="fill:#ffffff;stroke:#000000;stroke-width:0.8;" x="249.445161" xlink:href="#mb4837bc1a2" y="648"/>
      </g>
     </g>
     <g id="text_21">
      <!-- 1.4 -->
      <g transform="translate(238.195161 667.293437)scale(0.18 -0.18)">
       <use xlink:href="#STIXGeneral-Regular-49"/>
       <use x="49.999985" xlink:href="#STIXGeneral-Regular-46"/>
       <use x="74.999969" xlink:href="#STIXGeneral-Regular-52"/>
      </g>
     </g>
    </g>
    <g id="xtick_28">
     <g id="line2d_80">
      <g>
       <use style="fill:#ffffff;stroke:#000000;stroke-width:0.8;" x="323.767742" xlink:href="#mb4837bc1a2" y="648"/>
      </g>
     </g>
     <g id="text_22">
      <!-- 1.6 -->
      <defs>
       <path d="M 44.59375 68.40625 
L 44.796875 66.796875 
Q 33 64.90625 25.09375 57.25 
Q 17.203125 49.59375 15.203125 38.296875 
Q 21 42.796875 27.90625 42.796875 
Q 36.703125 42.796875 41.75 37.1875 
Q 46.796875 31.59375 46.796875 21.90625 
Q 46.796875 12.09375 41.703125 5.90625 
Q 35.796875 -1.40625 25.796875 -1.40625 
Q 13.59375 -1.40625 8.09375 8.703125 
Q 3.40625 17.296875 3.40625 27.90625 
Q 3.40625 44.296875 14.296875 55.5 
Q 20.5 61.90625 27.046875 64.546875 
Q 33.59375 67.203125 44.59375 68.40625 
z
M 37.796875 18.796875 
Q 37.796875 38.203125 24.296875 38.203125 
Q 19.296875 38.203125 16 35.546875 
Q 12.703125 32.90625 12.703125 26.59375 
Q 12.703125 14.90625 16.34375 8.15625 
Q 20 1.40625 26.90625 1.40625 
Q 32.203125 1.40625 35 6.15625 
Q 37.796875 10.90625 37.796875 18.796875 
z
" id="STIXGeneral-Regular-54"/>
      </defs>
      <g transform="translate(312.517742 667.293437)scale(0.18 -0.18)">
       <use xlink:href="#STIXGeneral-Regular-49"/>
       <use x="49.999985" xlink:href="#STIXGeneral-Regular-46"/>
       <use x="74.999969" xlink:href="#STIXGeneral-Regular-54"/>
      </g>
     </g>
    </g>
    <g id="xtick_29">
     <g id="line2d_81">
      <g>
       <use style="fill:#ffffff;stroke:#000000;stroke-width:0.8;" x="398.090323" xlink:href="#mb4837bc1a2" y="648"/>
      </g>
     </g>
     <g id="text_23">
      <!-- 1.8 -->
      <defs>
       <path d="M 44.5 15.5 
Q 44.5 7.796875 39.140625 3.1875 
Q 33.796875 -1.40625 24.796875 -1.40625 
Q 16.40625 -1.40625 11 3.1875 
Q 5.59375 7.796875 5.59375 14.90625 
Q 5.59375 20.203125 8.1875 23.953125 
Q 10.796875 27.703125 18.59375 33.203125 
Q 11.09375 39.40625 8.640625 43.203125 
Q 6.203125 47 6.203125 52 
Q 6.203125 59.09375 11.640625 63.34375 
Q 17.09375 67.59375 25.59375 67.59375 
Q 32.90625 67.59375 37.65625 63.4375 
Q 42.40625 59.296875 42.40625 53.296875 
Q 42.40625 47.796875 39.546875 44.5 
Q 36.703125 41.203125 29 37.09375 
Q 38 31.09375 41.25 26.390625 
Q 44.5 21.703125 44.5 15.5 
z
M 35.5 53.296875 
Q 35.5 58.5 32.59375 61.640625 
Q 29.703125 64.796875 24.59375 64.796875 
Q 19.5 64.796875 16.546875 62.140625 
Q 13.59375 59.5 13.59375 54.890625 
Q 13.59375 50.296875 16.546875 46.546875 
Q 19.5 42.796875 26.09375 38.90625 
Q 31.203125 41.90625 33.34375 45.25 
Q 35.5 48.59375 35.5 53.296875 
z
M 27.09375 27.203125 
L 21.203125 31.203125 
Q 16.796875 27.59375 15 24.140625 
Q 13.203125 20.703125 13.203125 15.796875 
Q 13.203125 9 16.640625 5.203125 
Q 20.09375 1.40625 25.90625 1.40625 
Q 30.796875 1.40625 33.84375 4.453125 
Q 36.90625 7.5 36.90625 12.40625 
Q 36.90625 16.90625 34.59375 20.296875 
Q 32.296875 23.703125 27.09375 27.203125 
z
" id="STIXGeneral-Regular-56"/>
      </defs>
      <g transform="translate(386.840323 667.293437)scale(0.18 -0.18)">
       <use xlink:href="#STIXGeneral-Regular-49"/>
       <use x="49.999985" xlink:href="#STIXGeneral-Regular-46"/>
       <use x="74.999969" xlink:href="#STIXGeneral-Regular-56"/>
      </g>
     </g>
    </g>
    <g id="xtick_30">
     <g id="line2d_82">
      <g>
       <use style="fill:#ffffff;stroke:#000000;stroke-width:0.8;" x="472.412903" xlink:href="#mb4837bc1a2" y="648"/>
      </g>
     </g>
     <g id="text_24">
      <!-- 2.0 -->
      <g transform="translate(461.162903 667.293437)scale(0.18 -0.18)">
       <use xlink:href="#STIXGeneral-Regular-50"/>
       <use x="49.999985" xlink:href="#STIXGeneral-Regular-46"/>
       <use x="74.999969" xlink:href="#STIXGeneral-Regular-48"/>
      </g>
     </g>
    </g>
    <g id="text_25">
     <!-- $\^t$ -->
     <defs>
      <path d="M -7.5 50.703125 
L -10.90625 50.703125 
L -23.09375 61 
L -35.203125 50.703125 
L -38.59375 50.703125 
L -26.203125 67.40625 
L -20 67.40625 
z
" id="STIXGeneral-Regular-770"/>
      <path d="M 29.59375 42.796875 
L 29.09375 39.59375 
L 20.703125 39.59375 
L 12 6.796875 
Q 11.796875 6 11.796875 5.40625 
Q 11.796875 3.796875 13.296875 3.796875 
Q 14.5 3.796875 16.09375 5.34375 
Q 17.703125 6.90625 21.40625 11.703125 
L 22.703125 11 
Q 18.09375 4 15.140625 1.453125 
Q 12.203125 -1.09375 8.40625 -1.09375 
Q 3.796875 -1.09375 3.796875 2.59375 
Q 3.796875 3.59375 5.40625 10 
L 13.203125 39.59375 
L 5.703125 39.59375 
L 5.59375 40.203125 
Q 5.59375 42 8.90625 42.703125 
Q 11.40625 43.296875 15.5 46.546875 
Q 19.59375 49.796875 22.203125 53.703125 
Q 22.796875 54.59375 23.59375 54.59375 
Q 24.5 54.59375 24.5 53.796875 
Q 24.5 53.296875 24.40625 53.09375 
L 21.59375 42.796875 
z
" id="STIXGeneral-Italic-116"/>
     </defs>
     <g transform="translate(284.086452 687.493438)scale(0.18 -0.18)">
      <use transform="translate(39.042969 16.59375)" xlink:href="#STIXGeneral-Regular-770"/>
      <use transform="translate(0 0.203125)" xlink:href="#STIXGeneral-Italic-116"/>
     </g>
    </g>
   </g>
   <g id="matplotlib.axis_10">
    <g id="ytick_21">
     <g id="line2d_83">
      <g>
       <use style="fill:#ffffff;stroke:#000000;stroke-width:0.8;" x="100.8" xlink:href="#mcbbe0aec73" y="648"/>
      </g>
     </g>
     <g id="text_26">
      <!-- −4 -->
      <g transform="translate(72.47 654.146719)scale(0.18 -0.18)">
       <use xlink:href="#STIXGeneral-Regular-8722"/>
       <use x="68.499985" xlink:href="#STIXGeneral-Regular-52"/>
      </g>
     </g>
    </g>
    <g id="ytick_22">
     <g id="line2d_84">
      <g>
       <use style="fill:#ffffff;stroke:#000000;stroke-width:0.8;" x="100.8" xlink:href="#mcbbe0aec73" y="604.886228"/>
      </g>
     </g>
     <g id="text_27">
      <!-- −2 -->
      <g transform="translate(72.47 611.032946)scale(0.18 -0.18)">
       <use xlink:href="#STIXGeneral-Regular-8722"/>
       <use x="68.499985" xlink:href="#STIXGeneral-Regular-50"/>
      </g>
     </g>
    </g>
    <g id="ytick_23">
     <g id="line2d_85">
      <g>
       <use style="fill:#ffffff;stroke:#000000;stroke-width:0.8;" x="100.8" xlink:href="#mcbbe0aec73" y="561.772455"/>
      </g>
     </g>
     <g id="text_28">
      <!-- 0 -->
      <g transform="translate(84.8 567.919174)scale(0.18 -0.18)">
       <use xlink:href="#STIXGeneral-Regular-48"/>
      </g>
     </g>
    </g>
    <g id="ytick_24">
     <g id="line2d_86">
      <g>
       <use style="fill:#ffffff;stroke:#000000;stroke-width:0.8;" x="100.8" xlink:href="#mcbbe0aec73" y="518.658683"/>
      </g>
     </g>
     <g id="text_29">
      <!-- 2 -->
      <g transform="translate(84.8 524.805401)scale(0.18 -0.18)">
       <use xlink:href="#STIXGeneral-Regular-50"/>
      </g>
     </g>
    </g>
    <g id="ytick_25">
     <g id="line2d_87">
      <g>
       <use style="fill:#ffffff;stroke:#000000;stroke-width:0.8;" x="100.8" xlink:href="#mcbbe0aec73" y="475.54491"/>
      </g>
     </g>
     <g id="text_30">
      <!-- 4 -->
      <g transform="translate(84.8 481.691629)scale(0.18 -0.18)">
       <use xlink:href="#STIXGeneral-Regular-52"/>
      </g>
     </g>
    </g>
    <g id="text_31">
     <!-- $C_l$ -->
     <g transform="translate(64.563438 569.962455)rotate(-90)scale(0.18 -0.18)">
      <use transform="translate(0 0.40625)" xlink:href="#STIXGeneral-Italic-67"/>
      <use transform="translate(66.699997 -12.821875)scale(0.7)" xlink:href="#STIXGeneral-Italic-108"/>
     </g>
    </g>
   </g>
   <g id="line2d_88">
    <path clip-path="url(#p51024038de)" d="M 100.428387 576.479003 
L 101.543226 577.504792 
L 103.029677 578.516381 
L 104.887742 579.475687 
L 107.117419 580.304414 
L 109.71871 581.035902 
L 112.32 581.595812 
L 119.009032 582.226061 
L 121.981935 582.209198 
L 125.326452 581.976832 
L 128.670968 581.542219 
L 132.387097 580.846527 
L 136.846452 579.751296 
L 144.27871 577.630827 
L 152.454194 575.359884 
L 158.771613 573.852132 
L 166.203871 572.330079 
L 179.581935 569.851867 
L 196.676129 566.858454 
L 206.338065 565.369775 
L 216.743226 563.995077 
L 226.776774 562.8992 
L 237.553548 561.959264 
L 249.445161 561.159926 
L 262.08 560.536687 
L 276.944516 560.031595 
L 295.896774 559.642773 
L 318.936774 559.395782 
L 353.125161 559.273809 
L 430.049032 559.336982 
L 472.784516 559.440596 
L 472.784516 559.440596 
" style="fill:none;stroke:#1f77b4;stroke-linecap:square;stroke-width:3;"/>
   </g>
   <g id="line2d_89">
    <path clip-path="url(#p51024038de)" d="M 100.428387 596.363998 
L 102.286452 596.686457 
L 104.516129 596.710422 
L 106.374194 596.437696 
L 107.860645 595.966249 
L 108.975484 595.442217 
L 110.461935 594.547252 
L 111.948387 593.471858 
L 114.549677 591.157142 
L 116.779355 588.869429 
L 119.380645 585.822691 
L 121.981935 582.38431 
L 127.556129 574.675323 
L 129.785806 572.071866 
L 131.272258 570.651928 
L 132.75871 569.534341 
L 134.245161 568.716503 
L 135.731613 568.240753 
L 137.589677 567.973578 
L 139.076129 568.004658 
L 140.934194 568.229738 
L 147.994839 569.415933 
L 150.596129 569.472745 
L 152.825806 569.339339 
L 155.055484 569.008611 
L 156.913548 568.51763 
L 158.771613 567.788531 
L 160.629677 566.834941 
L 162.859355 565.408468 
L 165.460645 563.448965 
L 174.007742 556.610139 
L 175.865806 555.450223 
L 177.723871 554.497448 
L 179.953548 553.647302 
L 182.183226 553.119806 
L 184.412903 552.860519 
L 186.642581 552.817801 
L 190.35871 553.071165 
L 198.905806 553.995869 
L 204.108387 554.236134 
L 207.824516 554.225915 
L 212.655484 554.055243 
L 220.459355 553.691291 
L 227.52 553.425235 
L 239.04 553.173242 
L 250.931613 553.248515 
L 265.052903 553.702192 
L 298.498065 554.769661 
L 327.855484 554.901108 
L 365.76 554.953493 
L 392.516129 555.291091 
L 420.75871 555.890916 
L 453.460645 556.720193 
L 472.784516 557.181588 
L 472.784516 557.181588 
" style="fill:none;stroke:#ff7f0e;stroke-linecap:square;stroke-width:3;"/>
   </g>
   <g id="line2d_90">
    <path clip-path="url(#p51024038de)" d="M 100.8 561.772455 
L 472.412903 561.772455 
" style="fill:none;stroke:#000000;stroke-dasharray:3.2,0.8,0.5,0.8;stroke-dashoffset:0;stroke-width:0.5;"/>
   </g>
   <g id="line2d_91">
    <path clip-path="url(#p51024038de)" d="M 100.8 648 
L 100.8 475.54491 
" style="fill:none;stroke:#000000;stroke-linecap:square;stroke-width:0.5;"/>
   </g>
   <g id="line2d_92">
    <path clip-path="url(#p51024038de)" d="M 175.122581 648 
L 175.122581 475.54491 
" style="fill:none;stroke:#000000;stroke-dasharray:3.2,0.8,0.5,0.8;stroke-dashoffset:0;stroke-opacity:0.25;stroke-width:0.5;"/>
   </g>
   <g id="line2d_93">
    <path clip-path="url(#p51024038de)" d="M 249.445161 648 
L 249.445161 475.54491 
" style="fill:none;stroke:#000000;stroke-dasharray:3.2,0.8,0.5,0.8;stroke-dashoffset:0;stroke-opacity:0.25;stroke-width:0.5;"/>
   </g>
   <g id="line2d_94">
    <path clip-path="url(#p51024038de)" d="M 323.767742 648 
L 323.767742 475.54491 
" style="fill:none;stroke:#000000;stroke-dasharray:3.2,0.8,0.5,0.8;stroke-dashoffset:0;stroke-opacity:0.25;stroke-width:0.5;"/>
   </g>
   <g id="patch_23">
    <path d="M 100.8 648 
L 100.8 475.54491 
" style="fill:none;stroke:#000000;stroke-linecap:square;stroke-linejoin:miter;stroke-width:0.8;"/>
   </g>
   <g id="patch_24">
    <path d="M 472.412903 648 
L 472.412903 475.54491 
" style="fill:none;stroke:#000000;stroke-linecap:square;stroke-linejoin:miter;stroke-width:0.8;"/>
   </g>
   <g id="patch_25">
    <path d="M 100.8 648 
L 472.412903 648 
" style="fill:none;stroke:#000000;stroke-linecap:square;stroke-linejoin:miter;stroke-width:0.8;"/>
   </g>
   <g id="patch_26">
    <path d="M 100.8 475.54491 
L 472.412903 475.54491 
" style="fill:none;stroke:#000000;stroke-linecap:square;stroke-linejoin:miter;stroke-width:0.8;"/>
   </g>
  </g>
  <g id="axes_6">
   <g id="patch_27">
    <path d="M 535.587097 648 
L 907.2 648 
L 907.2 475.54491 
L 535.587097 475.54491 
z
" style="fill:#ffffff;"/>
   </g>
   <g id="matplotlib.axis_11">
    <g id="xtick_31">
     <g id="line2d_95">
      <g>
       <use style="fill:#ffffff;stroke:#000000;stroke-width:0.8;" x="535.587097" xlink:href="#mb4837bc1a2" y="648"/>
      </g>
     </g>
     <g id="text_32">
      <!-- 1.0 -->
      <g transform="translate(524.337097 667.293437)scale(0.18 -0.18)">
       <use xlink:href="#STIXGeneral-Regular-49"/>
       <use x="49.999985" xlink:href="#STIXGeneral-Regular-46"/>
       <use x="74.999969" xlink:href="#STIXGeneral-Regular-48"/>
      </g>
     </g>
    </g>
    <g id="xtick_32">
     <g id="line2d_96">
      <g>
       <use style="fill:#ffffff;stroke:#000000;stroke-width:0.8;" x="609.909677" xlink:href="#mb4837bc1a2" y="648"/>
      </g>
     </g>
     <g id="text_33">
      <!-- 1.2 -->
      <g transform="translate(598.659677 667.293437)scale(0.18 -0.18)">
       <use xlink:href="#STIXGeneral-Regular-49"/>
       <use x="49.999985" xlink:href="#STIXGeneral-Regular-46"/>
       <use x="74.999969" xlink:href="#STIXGeneral-Regular-50"/>
      </g>
     </g>
    </g>
    <g id="xtick_33">
     <g id="line2d_97">
      <g>
       <use style="fill:#ffffff;stroke:#000000;stroke-width:0.8;" x="684.232258" xlink:href="#mb4837bc1a2" y="648"/>
      </g>
     </g>
     <g id="text_34">
      <!-- 1.4 -->
      <g transform="translate(672.982258 667.293437)scale(0.18 -0.18)">
       <use xlink:href="#STIXGeneral-Regular-49"/>
       <use x="49.999985" xlink:href="#STIXGeneral-Regular-46"/>
       <use x="74.999969" xlink:href="#STIXGeneral-Regular-52"/>
      </g>
     </g>
    </g>
    <g id="xtick_34">
     <g id="line2d_98">
      <g>
       <use style="fill:#ffffff;stroke:#000000;stroke-width:0.8;" x="758.554839" xlink:href="#mb4837bc1a2" y="648"/>
      </g>
     </g>
     <g id="text_35">
      <!-- 1.6 -->
      <g transform="translate(747.304839 667.293437)scale(0.18 -0.18)">
       <use xlink:href="#STIXGeneral-Regular-49"/>
       <use x="49.999985" xlink:href="#STIXGeneral-Regular-46"/>
       <use x="74.999969" xlink:href="#STIXGeneral-Regular-54"/>
      </g>
     </g>
    </g>
    <g id="xtick_35">
     <g id="line2d_99">
      <g>
       <use style="fill:#ffffff;stroke:#000000;stroke-width:0.8;" x="832.877419" xlink:href="#mb4837bc1a2" y="648"/>
      </g>
     </g>
     <g id="text_36">
      <!-- 1.8 -->
      <g transform="translate(821.627419 667.293437)scale(0.18 -0.18)">
       <use xlink:href="#STIXGeneral-Regular-49"/>
       <use x="49.999985" xlink:href="#STIXGeneral-Regular-46"/>
       <use x="74.999969" xlink:href="#STIXGeneral-Regular-56"/>
      </g>
     </g>
    </g>
    <g id="xtick_36">
     <g id="line2d_100">
      <g>
       <use style="fill:#ffffff;stroke:#000000;stroke-width:0.8;" x="907.2" xlink:href="#mb4837bc1a2" y="648"/>
      </g>
     </g>
     <g id="text_37">
      <!-- 2.0 -->
      <g transform="translate(895.95 667.293437)scale(0.18 -0.18)">
       <use xlink:href="#STIXGeneral-Regular-50"/>
       <use x="49.999985" xlink:href="#STIXGeneral-Regular-46"/>
       <use x="74.999969" xlink:href="#STIXGeneral-Regular-48"/>
      </g>
     </g>
    </g>
    <g id="text_38">
     <!-- $\^t$ -->
     <g transform="translate(718.873548 687.493438)scale(0.18 -0.18)">
      <use transform="translate(39.042969 16.59375)" xlink:href="#STIXGeneral-Regular-770"/>
      <use transform="translate(0 0.203125)" xlink:href="#STIXGeneral-Italic-116"/>
     </g>
    </g>
   </g>
   <g id="matplotlib.axis_12">
    <g id="ytick_26">
     <g id="line2d_101">
      <g>
       <use style="fill:#ffffff;stroke:#000000;stroke-width:0.8;" x="535.587097" xlink:href="#mcbbe0aec73" y="648"/>
      </g>
     </g>
    </g>
    <g id="ytick_27">
     <g id="line2d_102">
      <g>
       <use style="fill:#ffffff;stroke:#000000;stroke-width:0.8;" x="535.587097" xlink:href="#mcbbe0aec73" y="604.886228"/>
      </g>
     </g>
    </g>
    <g id="ytick_28">
     <g id="line2d_103">
      <g>
       <use style="fill:#ffffff;stroke:#000000;stroke-width:0.8;" x="535.587097" xlink:href="#mcbbe0aec73" y="561.772455"/>
      </g>
     </g>
    </g>
    <g id="ytick_29">
     <g id="line2d_104">
      <g>
       <use style="fill:#ffffff;stroke:#000000;stroke-width:0.8;" x="535.587097" xlink:href="#mcbbe0aec73" y="518.658683"/>
      </g>
     </g>
    </g>
    <g id="ytick_30">
     <g id="line2d_105">
      <g>
       <use style="fill:#ffffff;stroke:#000000;stroke-width:0.8;" x="535.587097" xlink:href="#mcbbe0aec73" y="475.54491"/>
      </g>
     </g>
    </g>
    <g id="text_39">
     <!-- $C_d$ -->
     <g transform="translate(520.680534 571.402455)rotate(-90)scale(0.18 -0.18)">
      <use transform="translate(0 0.40625)" xlink:href="#STIXGeneral-Italic-67"/>
      <use transform="translate(66.699997 -12.821875)scale(0.7)" xlink:href="#STIXGeneral-Italic-100"/>
     </g>
    </g>
   </g>
   <g id="line2d_106">
    <path clip-path="url(#pff7fabf5eb)" d="M 535.215484 553.135835 
L 536.330323 551.878962 
L 537.816774 550.588857 
L 539.674839 549.330473 
L 541.904516 548.204475 
L 544.134194 547.326207 
L 547.107097 546.439045 
L 552.309677 545.642624 
L 555.282581 545.544799 
L 558.255484 545.692177 
L 561.228387 546.077144 
L 564.20129 546.681776 
L 566.430968 547.257898 
L 570.147097 548.447251 
L 574.978065 550.260595 
L 586.126452 554.548923 
L 590.957419 556.117293 
L 595.788387 557.462025 
L 602.105806 558.969149 
L 610.28129 560.67579 
L 620.314839 562.550711 
L 629.976774 564.10489 
L 637.780645 565.129613 
L 645.212903 565.892277 
L 653.388387 566.500781 
L 661.563871 566.891919 
L 671.225806 567.12464 
L 682.374194 567.16602 
L 696.495484 566.983266 
L 720.27871 566.402643 
L 771.932903 565.115595 
L 807.236129 564.515284 
L 847.370323 564.06416 
L 902.369032 563.69104 
L 907.571613 563.663393 
L 907.571613 563.663393 
" style="fill:none;stroke:#1f77b4;stroke-linecap:square;stroke-width:3;"/>
   </g>
   <g id="line2d_107">
    <path clip-path="url(#pff7fabf5eb)" d="M 535.215484 528.402488 
L 537.073548 527.724347 
L 538.931613 527.405781 
L 540.418065 527.394174 
L 541.904516 527.649419 
L 543.019355 528.005528 
L 544.505806 528.814484 
L 546.363871 530.179233 
L 547.850323 531.575797 
L 550.08 534.035565 
L 552.309677 536.923699 
L 554.539355 540.217832 
L 557.883871 545.677484 
L 561.228387 551.215777 
L 563.086452 553.978045 
L 564.572903 555.894386 
L 566.059355 557.477074 
L 567.545806 558.684929 
L 568.660645 559.340756 
L 569.775484 559.778669 
L 571.261935 560.028716 
L 572.748387 560.035486 
L 574.978065 559.615335 
L 577.207742 558.943496 
L 581.295484 557.677811 
L 584.268387 557.110746 
L 586.869677 556.904256 
L 589.099355 556.939237 
L 590.957419 557.176634 
L 592.443871 557.539169 
L 594.301935 558.213993 
L 596.531613 559.328248 
L 599.504516 561.275791 
L 601.734194 562.956752 
L 606.565161 566.685338 
L 608.794839 568.189 
L 610.652903 569.227575 
L 612.510968 570.046206 
L 614.740645 570.718369 
L 616.59871 571.030251 
L 618.828387 571.165703 
L 621.80129 571.027422 
L 625.145806 570.657947 
L 630.72 569.949124 
L 634.807742 569.605498 
L 638.895484 569.498048 
L 642.611613 569.561902 
L 647.814194 569.798914 
L 651.901935 570.02117 
L 662.67871 570.437503 
L 679.772903 570.606164 
L 694.637419 570.230602 
L 732.541935 569.006425 
L 747.034839 568.883648 
L 785.310968 568.983739 
L 813.925161 568.957837 
L 852.572903 568.556666 
L 907.571613 567.637145 
L 907.571613 567.637145 
" style="fill:none;stroke:#ff7f0e;stroke-linecap:square;stroke-width:3;"/>
   </g>
   <g id="line2d_108">
    <path clip-path="url(#pff7fabf5eb)" d="M 535.587097 561.772455 
L 907.2 561.772455 
" style="fill:none;stroke:#000000;stroke-dasharray:3.2,0.8,0.5,0.8;stroke-dashoffset:0;stroke-width:0.5;"/>
   </g>
   <g id="line2d_109">
    <path clip-path="url(#pff7fabf5eb)" d="M 535.587097 648 
L 535.587097 475.54491 
" style="fill:none;stroke:#000000;stroke-linecap:square;stroke-width:0.5;"/>
   </g>
   <g id="line2d_110">
    <path clip-path="url(#pff7fabf5eb)" d="M 609.909677 648 
L 609.909677 475.54491 
" style="fill:none;stroke:#000000;stroke-dasharray:3.2,0.8,0.5,0.8;stroke-dashoffset:0;stroke-opacity:0.25;stroke-width:0.5;"/>
   </g>
   <g id="line2d_111">
    <path clip-path="url(#pff7fabf5eb)" d="M 684.232258 648 
L 684.232258 475.54491 
" style="fill:none;stroke:#000000;stroke-dasharray:3.2,0.8,0.5,0.8;stroke-dashoffset:0;stroke-opacity:0.25;stroke-width:0.5;"/>
   </g>
   <g id="line2d_112">
    <path clip-path="url(#pff7fabf5eb)" d="M 758.554839 648 
L 758.554839 475.54491 
" style="fill:none;stroke:#000000;stroke-dasharray:3.2,0.8,0.5,0.8;stroke-dashoffset:0;stroke-opacity:0.25;stroke-width:0.5;"/>
   </g>
   <g id="patch_28">
    <path d="M 535.587097 648 
L 535.587097 475.54491 
" style="fill:none;stroke:#000000;stroke-linecap:square;stroke-linejoin:miter;stroke-width:0.8;"/>
   </g>
   <g id="patch_29">
    <path d="M 907.2 648 
L 907.2 475.54491 
" style="fill:none;stroke:#000000;stroke-linecap:square;stroke-linejoin:miter;stroke-width:0.8;"/>
   </g>
   <g id="patch_30">
    <path d="M 535.587097 648 
L 907.2 648 
" style="fill:none;stroke:#000000;stroke-linecap:square;stroke-linejoin:miter;stroke-width:0.8;"/>
   </g>
   <g id="patch_31">
    <path d="M 535.587097 475.54491 
L 907.2 475.54491 
" style="fill:none;stroke:#000000;stroke-linecap:square;stroke-linejoin:miter;stroke-width:0.8;"/>
   </g>
   <g id="text_40">
    <!-- $s/c = 6.0$ -->
    <g transform="translate(925.449677 565.965893)scale(0.18 -0.18)">
     <use transform="translate(0 0.59375)" xlink:href="#STIXGeneral-Italic-115"/>
     <use transform="translate(38.899994 0.59375)" xlink:href="#STIXGeneral-Regular-47"/>
     <use transform="translate(66.699982 0.59375)" xlink:href="#STIXGeneral-Italic-99"/>
     <use transform="translate(125.539972 0.59375)" xlink:href="#STIXGeneral-Regular-61"/>
     <use transform="translate(208.479953 0.59375)" xlink:href="#STIXGeneral-Regular-54"/>
     <use transform="translate(258.479938 0.59375)" xlink:href="#STIXGeneral-Regular-46"/>
     <use transform="translate(283.479922 0.59375)" xlink:href="#STIXGeneral-Regular-48"/>
    </g>
   </g>
  </g>
 </g>
 <defs>
  <clipPath id="p69e34d2a93">
   <rect height="172.45509" width="371.612903" x="100.8" y="72"/>
  </clipPath>
  <clipPath id="p2752576e35">
   <rect height="172.45509" width="371.612903" x="535.587097" y="72"/>
  </clipPath>
  <clipPath id="pefa976ae93">
   <rect height="172.45509" width="371.612903" x="100.8" y="273.772455"/>
  </clipPath>
  <clipPath id="p574f42849b">
   <rect height="172.45509" width="371.612903" x="535.587097" y="273.772455"/>
  </clipPath>
  <clipPath id="p51024038de">
   <rect height="172.45509" width="371.612903" x="100.8" y="475.54491"/>
  </clipPath>
  <clipPath id="pff7fabf5eb">
   <rect height="172.45509" width="371.612903" x="535.587097" y="475.54491"/>
  </clipPath>
 </defs>
</svg>
