<?xml version="1.0" encoding="utf-8" standalone="no"?>
<!DOCTYPE svg PUBLIC "-//W3C//DTD SVG 1.1//EN"
  "http://www.w3.org/Graphics/SVG/1.1/DTD/svg11.dtd">
<!-- Created with matplotlib (https://matplotlib.org/) -->
<svg height="720pt" version="1.1" viewBox="0 0 1008 720" width="1008pt" xmlns="http://www.w3.org/2000/svg" xmlns:xlink="http://www.w3.org/1999/xlink">
 <defs>
  <style type="text/css">
*{stroke-linecap:butt;stroke-linejoin:round;}
  </style>
 </defs>
 <g id="figure_1">
  <g id="patch_1">
   <path d="M 0 720 
L 1008 720 
L 1008 0 
L 0 0 
z
" style="fill:#ffffff;"/>
  </g>
  <g id="axes_1">
   <g id="patch_2">
    <path d="M 100.8 244.45509 
L 472.412903 244.45509 
L 472.412903 72 
L 100.8 72 
z
" style="fill:#ffffff;"/>
   </g>
   <g id="matplotlib.axis_1">
    <g id="xtick_1">
     <g id="line2d_1">
      <defs>
       <path d="M 0 0 
L 0 3.5 
" id="m70b6d7f3d2" style="stroke:#000000;stroke-width:0.8;"/>
      </defs>
      <g>
       <use style="fill:#ffffff;stroke:#000000;stroke-width:0.8;" x="100.8" xlink:href="#m70b6d7f3d2" y="244.45509"/>
      </g>
     </g>
    </g>
    <g id="xtick_2">
     <g id="line2d_2">
      <g>
       <use style="fill:#ffffff;stroke:#000000;stroke-width:0.8;" x="175.122581" xlink:href="#m70b6d7f3d2" y="244.45509"/>
      </g>
     </g>
    </g>
    <g id="xtick_3">
     <g id="line2d_3">
      <g>
       <use style="fill:#ffffff;stroke:#000000;stroke-width:0.8;" x="249.445161" xlink:href="#m70b6d7f3d2" y="244.45509"/>
      </g>
     </g>
    </g>
    <g id="xtick_4">
     <g id="line2d_4">
      <g>
       <use style="fill:#ffffff;stroke:#000000;stroke-width:0.8;" x="323.767742" xlink:href="#m70b6d7f3d2" y="244.45509"/>
      </g>
     </g>
    </g>
    <g id="xtick_5">
     <g id="line2d_5">
      <g>
       <use style="fill:#ffffff;stroke:#000000;stroke-width:0.8;" x="398.090323" xlink:href="#m70b6d7f3d2" y="244.45509"/>
      </g>
     </g>
    </g>
    <g id="xtick_6">
     <g id="line2d_6">
      <g>
       <use style="fill:#ffffff;stroke:#000000;stroke-width:0.8;" x="472.412903" xlink:href="#m70b6d7f3d2" y="244.45509"/>
      </g>
     </g>
    </g>
   </g>
   <g id="matplotlib.axis_2">
    <g id="ytick_1">
     <g id="line2d_7">
      <defs>
       <path d="M 0 0 
L -3.5 0 
" id="mc9ad371b62" style="stroke:#000000;stroke-width:0.8;"/>
      </defs>
      <g>
       <use style="fill:#ffffff;stroke:#000000;stroke-width:0.8;" x="100.8" xlink:href="#mc9ad371b62" y="215.712575"/>
      </g>
     </g>
     <g id="text_1">
      <!-- −1 -->
      <defs>
       <path d="M 62.09375 22 
L 6.40625 22 
L 6.40625 28.59375 
L 62.09375 28.59375 
z
" id="STIXGeneral-Regular-8722"/>
       <path d="M 39.40625 0 
L 11.796875 0 
L 11.796875 1.5 
Q 17.296875 1.796875 19.296875 3.546875 
Q 21.296875 5.296875 21.296875 9.5 
L 21.296875 54.40625 
Q 21.296875 59.296875 18.296875 59.296875 
Q 16.90625 59.296875 13.796875 58.09375 
L 11.09375 57.09375 
L 11.09375 58.5 
L 29 67.59375 
L 29.90625 67.296875 
L 29.90625 7.59375 
Q 29.90625 4.296875 31.90625 2.890625 
Q 33.90625 1.5 39.40625 1.5 
z
" id="STIXGeneral-Regular-49"/>
      </defs>
      <g transform="translate(72.47 221.859294)scale(0.18 -0.18)">
       <use xlink:href="#STIXGeneral-Regular-8722"/>
       <use x="68.499985" xlink:href="#STIXGeneral-Regular-49"/>
      </g>
     </g>
    </g>
    <g id="ytick_2">
     <g id="line2d_8">
      <g>
       <use style="fill:#ffffff;stroke:#000000;stroke-width:0.8;" x="100.8" xlink:href="#mc9ad371b62" y="158.227545"/>
      </g>
     </g>
     <g id="text_2">
      <!-- 0 -->
      <defs>
       <path d="M 47.59375 33 
Q 47.59375 26.296875 46.296875 20.34375 
Q 45 14.40625 42.453125 9.40625 
Q 39.90625 4.40625 35.40625 1.5 
Q 30.90625 -1.40625 25 -1.40625 
Q 18.90625 -1.40625 14.296875 1.6875 
Q 9.703125 4.796875 7.203125 10 
Q 4.703125 15.203125 3.546875 21.09375 
Q 2.40625 27 2.40625 33.59375 
Q 2.40625 42.90625 4.703125 50.34375 
Q 7 57.796875 12.34375 62.6875 
Q 17.703125 67.59375 25.40625 67.59375 
Q 35.203125 67.59375 41.390625 58 
Q 47.59375 48.40625 47.59375 33 
z
M 38 32.5 
Q 38 48.296875 34.640625 56.640625 
Q 31.296875 65 24.796875 65 
Q 18.59375 65 15.296875 56.59375 
Q 12 48.203125 12 32.90625 
Q 12 17.5 15.296875 9.34375 
Q 18.59375 1.203125 25 1.203125 
Q 31.296875 1.203125 34.640625 9.34375 
Q 38 17.5 38 32.5 
z
" id="STIXGeneral-Regular-48"/>
      </defs>
      <g transform="translate(84.8 164.374264)scale(0.18 -0.18)">
       <use xlink:href="#STIXGeneral-Regular-48"/>
      </g>
     </g>
    </g>
    <g id="ytick_3">
     <g id="line2d_9">
      <g>
       <use style="fill:#ffffff;stroke:#000000;stroke-width:0.8;" x="100.8" xlink:href="#mc9ad371b62" y="100.742515"/>
      </g>
     </g>
     <g id="text_3">
      <!-- 1 -->
      <g transform="translate(84.8 106.889234)scale(0.18 -0.18)">
       <use xlink:href="#STIXGeneral-Regular-49"/>
      </g>
     </g>
    </g>
    <g id="text_4">
     <!-- $C_l$ -->
     <defs>
      <path d="M 68.90625 66.40625 
L 65.203125 46.40625 
L 63.40625 46.703125 
Q 61.59375 63 48.5 63 
Q 37.59375 63 28.59375 53.296875 
Q 23.296875 47.703125 20.546875 39.703125 
Q 17.796875 31.703125 17.796875 23.203125 
Q 17.796875 2.703125 35.296875 2.703125 
Q 41.5 2.703125 46.640625 5.296875 
Q 51.796875 7.90625 58.203125 14.59375 
L 60 13.09375 
Q 53.296875 5.203125 46.84375 1.703125 
Q 40.40625 -1.796875 32.703125 -1.796875 
Q 21 -1.796875 13.796875 5.140625 
Q 6.59375 12.09375 6.59375 24.296875 
Q 6.59375 34.59375 11.6875 43.9375 
Q 16.796875 53.296875 25.296875 59.296875 
Q 35.5 66.59375 47.203125 66.59375 
Q 54.09375 66.59375 58.90625 64.90625 
Q 60.90625 64.203125 63 64.203125 
Q 65.703125 64.203125 66.796875 66.40625 
z
" id="STIXGeneral-Italic-67"/>
      <path d="M 27.90625 67.796875 
L 12.59375 9.296875 
Q 11.796875 6.40625 11.796875 5 
Q 11.796875 3.203125 13.5 3.203125 
Q 16.203125 3.203125 20.203125 8.90625 
L 22.703125 12.40625 
L 24.09375 11.40625 
Q 19.59375 4.296875 16.34375 1.59375 
Q 13.09375 -1.09375 9 -1.09375 
Q 4.09375 -1.09375 4.09375 4.5 
Q 4.09375 6.203125 4.5 7.5 
L 18.203125 59.90625 
Q 18.5 60.90625 18.5 61.796875 
Q 18.5 64 13.59375 64 
L 11.796875 64 
L 11.796875 65.59375 
Q 18.796875 66.40625 27.296875 68.296875 
z
" id="STIXGeneral-Italic-108"/>
     </defs>
     <g transform="translate(64.563438 166.417545)rotate(-90)scale(0.18 -0.18)">
      <use transform="translate(0 0.40625)" xlink:href="#STIXGeneral-Italic-67"/>
      <use transform="translate(66.699997 -12.821875)scale(0.7)" xlink:href="#STIXGeneral-Italic-108"/>
     </g>
    </g>
   </g>
   <g id="line2d_10">
    <path clip-path="url(#p563321465d)" d="M 100.428387 157.130283 
L 101.171613 155.213856 
L 102.286452 153.282859 
L 103.772903 151.850916 
L 104.887742 151.21279 
L 107.117419 150.411267 
L 107.489032 150.432764 
L 107.860645 150.262668 
L 108.232258 150.278621 
L 108.603871 150.117199 
L 108.975484 150.17279 
L 109.347097 149.995498 
L 109.71871 150.099261 
L 110.090323 149.938597 
L 118.265806 149.717185 
L 118.637419 149.818235 
L 119.009032 149.745547 
L 120.495484 149.825475 
L 125.698065 150.145782 
L 133.130323 150.860349 
L 142.420645 152.015834 
L 164.717419 155.293945 
L 184.412903 158.246121 
L 208.196129 161.505906 
L 224.547097 163.482133 
L 239.783226 165.112495 
L 255.019355 166.533733 
L 269.883871 167.712233 
L 284.005161 168.661438 
L 303.329032 169.723794 
L 321.538065 170.503575 
L 345.692903 171.268994 
L 370.590968 171.789878 
L 397.71871 172.11058 
L 427.819355 172.239914 
L 461.636129 172.162767 
L 472.784516 172.098469 
L 472.784516 172.098469 
" style="fill:none;stroke:#1f77b4;stroke-linecap:square;stroke-width:3;"/>
   </g>
   <g id="line2d_11">
    <path clip-path="url(#p563321465d)" d="M 100.428387 149.184534 
L 101.171613 148.262905 
L 101.914839 147.819463 
L 102.286452 147.617352 
L 104.144516 147.739153 
L 104.887742 148.039507 
L 106.002581 148.559726 
L 106.745806 148.890262 
L 107.117419 149.010185 
L 107.489032 149.304818 
L 107.860645 149.41115 
L 108.232258 149.672511 
L 108.603871 149.738842 
L 108.975484 150.028454 
L 109.347097 150.099227 
L 109.71871 150.398235 
L 110.090323 150.453466 
L 116.036129 153.373823 
L 116.407742 153.416312 
L 116.779355 153.70179 
L 117.150968 153.792388 
L 117.894194 154.150694 
L 123.468387 156.838497 
L 126.44129 158.36745 
L 129.042581 159.852991 
L 132.015484 161.600561 
L 135.36 163.764494 
L 138.332903 165.802369 
L 144.27871 170.187784 
L 151.339355 175.388813 
L 159.143226 180.358379 
L 162.116129 181.819311 
L 167.31871 183.869881 
L 169.548387 184.487942 
L 173.636129 185.470005 
L 175.122581 185.732365 
L 177.352258 186.109137 
L 188.129032 187.621298 
L 191.845161 188.122496 
L 210.054194 190.257279 
L 216 190.597289 
L 221.574194 190.724785 
L 229.378065 190.626758 
L 241.269677 189.994868 
L 247.95871 189.468589 
L 261.336774 188.048883 
L 279.545806 185.28354 
L 297.383226 182.103733 
L 323.767742 177.46249 
L 327.483871 176.874503 
L 336.030968 175.629143 
L 353.868387 173.44492 
L 378.766452 171.368702 
L 388.428387 170.773269 
L 409.981935 169.671816 
L 434.88 168.674529 
L 437.109677 168.562738 
L 472.784516 167.351708 
L 472.784516 167.351708 
" style="fill:none;stroke:#ff7f0e;stroke-linecap:square;stroke-width:3;"/>
   </g>
   <g id="line2d_12">
    <path clip-path="url(#p563321465d)" d="M 100.8 158.227545 
L 472.412903 158.227545 
" style="fill:none;stroke:#000000;stroke-dasharray:3.2,0.8,0.5,0.8;stroke-dashoffset:0;stroke-width:0.5;"/>
   </g>
   <g id="line2d_13">
    <path clip-path="url(#p563321465d)" d="M 100.8 244.45509 
L 100.8 72 
" style="fill:none;stroke:#000000;stroke-linecap:square;stroke-width:0.5;"/>
   </g>
   <g id="line2d_14">
    <path clip-path="url(#p563321465d)" d="M 175.122581 244.45509 
L 175.122581 72 
" style="fill:none;stroke:#000000;stroke-dasharray:3.2,0.8,0.5,0.8;stroke-dashoffset:0;stroke-opacity:0.25;stroke-width:0.5;"/>
   </g>
   <g id="line2d_15">
    <path clip-path="url(#p563321465d)" d="M 249.445161 244.45509 
L 249.445161 72 
" style="fill:none;stroke:#000000;stroke-dasharray:3.2,0.8,0.5,0.8;stroke-dashoffset:0;stroke-opacity:0.25;stroke-width:0.5;"/>
   </g>
   <g id="line2d_16">
    <path clip-path="url(#p563321465d)" d="M 323.767742 244.45509 
L 323.767742 72 
" style="fill:none;stroke:#000000;stroke-dasharray:3.2,0.8,0.5,0.8;stroke-dashoffset:0;stroke-opacity:0.25;stroke-width:0.5;"/>
   </g>
   <g id="patch_3">
    <path d="M 100.8 244.45509 
L 100.8 72 
" style="fill:none;stroke:#000000;stroke-linecap:square;stroke-linejoin:miter;stroke-width:0.8;"/>
   </g>
   <g id="patch_4">
    <path d="M 472.412903 244.45509 
L 472.412903 72 
" style="fill:none;stroke:#000000;stroke-linecap:square;stroke-linejoin:miter;stroke-width:0.8;"/>
   </g>
   <g id="patch_5">
    <path d="M 100.8 244.45509 
L 472.412903 244.45509 
" style="fill:none;stroke:#000000;stroke-linecap:square;stroke-linejoin:miter;stroke-width:0.8;"/>
   </g>
   <g id="patch_6">
    <path d="M 100.8 72 
L 472.412903 72 
" style="fill:none;stroke:#000000;stroke-linecap:square;stroke-linejoin:miter;stroke-width:0.8;"/>
   </g>
  </g>
  <g id="axes_2">
   <g id="patch_7">
    <path d="M 535.587097 244.45509 
L 907.2 244.45509 
L 907.2 72 
L 535.587097 72 
z
" style="fill:#ffffff;"/>
   </g>
   <g id="matplotlib.axis_3">
    <g id="xtick_7">
     <g id="line2d_17">
      <g>
       <use style="fill:#ffffff;stroke:#000000;stroke-width:0.8;" x="535.587097" xlink:href="#m70b6d7f3d2" y="244.45509"/>
      </g>
     </g>
    </g>
    <g id="xtick_8">
     <g id="line2d_18">
      <g>
       <use style="fill:#ffffff;stroke:#000000;stroke-width:0.8;" x="609.909677" xlink:href="#m70b6d7f3d2" y="244.45509"/>
      </g>
     </g>
    </g>
    <g id="xtick_9">
     <g id="line2d_19">
      <g>
       <use style="fill:#ffffff;stroke:#000000;stroke-width:0.8;" x="684.232258" xlink:href="#m70b6d7f3d2" y="244.45509"/>
      </g>
     </g>
    </g>
    <g id="xtick_10">
     <g id="line2d_20">
      <g>
       <use style="fill:#ffffff;stroke:#000000;stroke-width:0.8;" x="758.554839" xlink:href="#m70b6d7f3d2" y="244.45509"/>
      </g>
     </g>
    </g>
    <g id="xtick_11">
     <g id="line2d_21">
      <g>
       <use style="fill:#ffffff;stroke:#000000;stroke-width:0.8;" x="832.877419" xlink:href="#m70b6d7f3d2" y="244.45509"/>
      </g>
     </g>
    </g>
    <g id="xtick_12">
     <g id="line2d_22">
      <g>
       <use style="fill:#ffffff;stroke:#000000;stroke-width:0.8;" x="907.2" xlink:href="#m70b6d7f3d2" y="244.45509"/>
      </g>
     </g>
    </g>
   </g>
   <g id="matplotlib.axis_4">
    <g id="ytick_4">
     <g id="line2d_23">
      <g>
       <use style="fill:#ffffff;stroke:#000000;stroke-width:0.8;" x="535.587097" xlink:href="#mc9ad371b62" y="215.712575"/>
      </g>
     </g>
    </g>
    <g id="ytick_5">
     <g id="line2d_24">
      <g>
       <use style="fill:#ffffff;stroke:#000000;stroke-width:0.8;" x="535.587097" xlink:href="#mc9ad371b62" y="158.227545"/>
      </g>
     </g>
    </g>
    <g id="ytick_6">
     <g id="line2d_25">
      <g>
       <use style="fill:#ffffff;stroke:#000000;stroke-width:0.8;" x="535.587097" xlink:href="#mc9ad371b62" y="100.742515"/>
      </g>
     </g>
    </g>
    <g id="text_5">
     <!-- $C_d$ -->
     <defs>
      <path d="M 52.09375 68.296875 
L 52.703125 67.703125 
L 48.796875 52.5 
L 42.796875 30.59375 
Q 36.296875 6.703125 36.296875 6 
Q 36.296875 4 38.09375 4 
Q 39.40625 4 40.84375 5.25 
Q 42.296875 6.5 46.296875 11.09375 
L 47.5 10.09375 
Q 39.796875 -1.296875 32.796875 -1.296875 
Q 30.90625 -1.296875 29.796875 -0.09375 
Q 28.703125 1.09375 28.703125 3.203125 
Q 28.703125 6.203125 30 12.09375 
Q 25.703125 4.796875 21.546875 1.84375 
Q 17.40625 -1.09375 12.203125 -1.09375 
Q 7.203125 -1.09375 4.34375 1.953125 
Q 1.5 5 1.5 10.59375 
Q 1.5 22.5 11.140625 33.296875 
Q 20.796875 44.09375 30.703125 44.09375 
Q 33.796875 44.09375 35.25 42.6875 
Q 36.703125 41.296875 37.203125 38.296875 
L 37.296875 38.296875 
L 41.796875 54.59375 
Q 43.203125 59.5 43.203125 61.703125 
Q 43.203125 63.296875 42.09375 63.6875 
Q 41 64.09375 36.796875 64.296875 
L 36.796875 66 
Q 44.5 66.703125 52.09375 68.296875 
z
M 35.59375 36.09375 
Q 35.59375 38.703125 34.140625 40.25 
Q 32.703125 41.796875 30.90625 41.796875 
Q 26.203125 41.796875 21.796875 37.203125 
Q 16.796875 31.90625 13.5 24.546875 
Q 10.203125 17.203125 10.203125 11 
Q 10.203125 7.59375 11.75 5.640625 
Q 13.296875 3.703125 16 3.703125 
Q 20.5 3.703125 25.09375 8.59375 
Q 29.703125 13.5 32.640625 21.09375 
Q 35.59375 28.703125 35.59375 36.09375 
z
" id="STIXGeneral-Italic-100"/>
     </defs>
     <g transform="translate(520.680534 167.857545)rotate(-90)scale(0.18 -0.18)">
      <use transform="translate(0 0.40625)" xlink:href="#STIXGeneral-Italic-67"/>
      <use transform="translate(66.699997 -12.821875)scale(0.7)" xlink:href="#STIXGeneral-Italic-100"/>
     </g>
    </g>
   </g>
   <g id="line2d_26">
    <path clip-path="url(#p7ba71b7573)" d="M 535.215484 196.795946 
L 536.330323 192.749001 
L 537.445161 189.91688 
L 538.56 187.783045 
L 539.674839 186.163344 
L 541.532903 184.050718 
L 541.904516 183.639587 
L 542.276129 183.401666 
L 542.647742 182.977757 
L 543.019355 182.746104 
L 543.390968 182.342688 
L 543.762581 182.163877 
L 544.134194 181.755004 
L 544.505806 181.635323 
L 545.249032 181.025427 
L 545.620645 180.869088 
L 545.992258 180.483641 
L 546.735484 180.15091 
L 547.47871 179.691935 
L 550.08 178.4024 
L 550.451613 178.14132 
L 550.823226 178.094746 
L 551.194839 177.812334 
L 551.566452 177.776201 
L 552.309677 177.416639 
L 554.910968 176.45884 
L 558.255484 175.438021 
L 562.714839 174.368104 
L 567.545806 173.491315 
L 573.12 172.752218 
L 578.694194 172.238041 
L 585.011613 171.856766 
L 592.815484 171.596186 
L 601.734194 171.493124 
L 614.369032 171.547411 
L 635.550968 171.864418 
L 679.40129 172.559027 
L 705.414194 172.717569 
L 742.947097 172.582807 
L 776.392258 172.207067 
L 820.614194 171.4917 
L 907.571613 169.847713 
L 907.571613 169.847713 
" style="fill:none;stroke:#1f77b4;stroke-linecap:square;stroke-width:3;"/>
   </g>
   <g id="line2d_27">
    <path clip-path="url(#p7ba71b7573)" d="M 535.215484 152.233059 
L 535.95871 151.169091 
L 536.701935 150.609271 
L 537.073548 150.35959 
L 538.931613 150.33257 
L 539.674839 150.593449 
L 541.16129 151.263185 
L 541.904516 151.518166 
L 542.276129 151.811506 
L 542.647742 151.915497 
L 543.019355 152.180244 
L 543.390968 152.24804 
L 543.762581 152.541494 
L 544.134194 152.615331 
L 544.505806 152.919618 
L 544.877419 152.976864 
L 550.823226 156.010181 
L 551.194839 156.063788 
L 551.566452 156.361389 
L 551.938065 156.46536 
L 552.68129 156.851259 
L 557.512258 159.39644 
L 561.6 161.703512 
L 563.086452 162.670549 
L 566.059355 164.585512 
L 570.51871 167.800915 
L 573.12 169.825865 
L 579.437419 175.047185 
L 583.896774 178.687631 
L 589.470968 182.865508 
L 595.045161 186.166022 
L 596.531613 186.850209 
L 598.76129 187.715844 
L 600.247742 188.252935 
L 605.07871 189.346143 
L 608.423226 189.81837 
L 609.909677 189.926154 
L 612.139355 190.066714 
L 620.686452 190.382789 
L 638.152258 191.137607 
L 639.63871 191.176043 
L 642.24 191.216111 
L 646.327742 191.222564 
L 653.388387 190.944691 
L 660.820645 190.375554 
L 664.908387 189.977022 
L 667.509677 189.698437 
L 680.887742 187.932083 
L 697.610323 185.278292 
L 705.042581 183.926543 
L 708.015484 183.362652 
L 709.873548 183.010154 
L 717.677419 181.480842 
L 752.980645 174.871781 
L 773.419355 171.884021 
L 779.365161 171.177231 
L 791.256774 169.976194 
L 793.486452 169.772271 
L 797.202581 169.48042 
L 805.749677 168.889053 
L 815.04 168.326104 
L 819.870968 168.105079 
L 846.99871 167.023585 
L 850.714839 166.913476 
L 854.059355 166.80597 
L 858.51871 166.687668 
L 874.126452 166.250681 
L 876.356129 166.229891 
L 881.55871 166.083876 
L 884.16 166.036954 
L 907.571613 165.539385 
L 907.571613 165.539385 
" style="fill:none;stroke:#ff7f0e;stroke-linecap:square;stroke-width:3;"/>
   </g>
   <g id="line2d_28">
    <path clip-path="url(#p7ba71b7573)" d="M 535.587097 158.227545 
L 907.2 158.227545 
" style="fill:none;stroke:#000000;stroke-dasharray:3.2,0.8,0.5,0.8;stroke-dashoffset:0;stroke-width:0.5;"/>
   </g>
   <g id="line2d_29">
    <path clip-path="url(#p7ba71b7573)" d="M 535.587097 244.45509 
L 535.587097 72 
" style="fill:none;stroke:#000000;stroke-linecap:square;stroke-width:0.5;"/>
   </g>
   <g id="line2d_30">
    <path clip-path="url(#p7ba71b7573)" d="M 609.909677 244.45509 
L 609.909677 72 
" style="fill:none;stroke:#000000;stroke-dasharray:3.2,0.8,0.5,0.8;stroke-dashoffset:0;stroke-opacity:0.25;stroke-width:0.5;"/>
   </g>
   <g id="line2d_31">
    <path clip-path="url(#p7ba71b7573)" d="M 684.232258 244.45509 
L 684.232258 72 
" style="fill:none;stroke:#000000;stroke-dasharray:3.2,0.8,0.5,0.8;stroke-dashoffset:0;stroke-opacity:0.25;stroke-width:0.5;"/>
   </g>
   <g id="line2d_32">
    <path clip-path="url(#p7ba71b7573)" d="M 758.554839 244.45509 
L 758.554839 72 
" style="fill:none;stroke:#000000;stroke-dasharray:3.2,0.8,0.5,0.8;stroke-dashoffset:0;stroke-opacity:0.25;stroke-width:0.5;"/>
   </g>
   <g id="patch_8">
    <path d="M 535.587097 244.45509 
L 535.587097 72 
" style="fill:none;stroke:#000000;stroke-linecap:square;stroke-linejoin:miter;stroke-width:0.8;"/>
   </g>
   <g id="patch_9">
    <path d="M 907.2 244.45509 
L 907.2 72 
" style="fill:none;stroke:#000000;stroke-linecap:square;stroke-linejoin:miter;stroke-width:0.8;"/>
   </g>
   <g id="patch_10">
    <path d="M 535.587097 244.45509 
L 907.2 244.45509 
" style="fill:none;stroke:#000000;stroke-linecap:square;stroke-linejoin:miter;stroke-width:0.8;"/>
   </g>
   <g id="patch_11">
    <path d="M 535.587097 72 
L 907.2 72 
" style="fill:none;stroke:#000000;stroke-linecap:square;stroke-linejoin:miter;stroke-width:0.8;"/>
   </g>
   <g id="text_6">
    <!-- $s/c = 1.5$ -->
    <defs>
     <path d="M 36.59375 44.203125 
L 34.59375 30.203125 
L 33 30.203125 
Q 31.59375 41.796875 24.09375 41.796875 
Q 21.40625 41.796875 19.796875 40.296875 
Q 18.203125 38.796875 18.203125 36.09375 
Q 18.203125 32.296875 23.59375 25.90625 
Q 30.40625 18 30.40625 12.296875 
Q 30.40625 6.203125 26.34375 2.546875 
Q 22.296875 -1.09375 16 -1.09375 
Q 13.09375 -1.09375 10.5 -0.09375 
Q 8.40625 0.796875 6.09375 0.796875 
Q 4.09375 0.796875 3.203125 -1.296875 
L 1.59375 -1.296875 
L 3.59375 14.59375 
L 5.203125 14.59375 
Q 7.203125 1 15.203125 1 
Q 18.796875 1 20.796875 3 
Q 22.796875 5 22.796875 8.703125 
Q 22.796875 13.203125 17.203125 20.203125 
Q 10.90625 28.09375 10.90625 33.296875 
Q 10.90625 38.296875 14.203125 41.1875 
Q 17.5 44.09375 23 44.09375 
Q 25 44.09375 28.59375 43.09375 
Q 30.796875 42.40625 32.203125 42.40625 
Q 34.203125 42.40625 35.203125 44.203125 
z
" id="STIXGeneral-Italic-115"/>
     <path d="M 28.703125 67.59375 
L 5.90625 -1.40625 
L -0.90625 -1.40625 
L 22 67.59375 
z
" id="STIXGeneral-Regular-47"/>
     <path d="M 35 10.703125 
L 36.59375 9.703125 
Q 32 3.90625 27.640625 1.40625 
Q 23.296875 -1.09375 17.703125 -1.09375 
Q 10.59375 -1.09375 6.796875 2.796875 
Q 3 6.703125 3 14.296875 
Q 3 21 6.390625 27.25 
Q 9.796875 33.5 15.296875 38 
Q 23 44.09375 32 44.09375 
Q 36.59375 44.09375 39.546875 41.796875 
Q 42.5 39.5 42.5 36 
Q 42.5 34 41.09375 32.59375 
Q 39.703125 31.203125 37.703125 31.203125 
Q 35.703125 31.203125 34.75 32.34375 
Q 33.796875 33.5 33.796875 35.203125 
Q 33.796875 36.09375 34.546875 37.546875 
Q 35.296875 39 35.296875 40 
Q 35.296875 42 31.59375 42 
Q 25.296875 42 20.703125 37.203125 
Q 11.59375 27.59375 11.59375 13.90625 
Q 11.59375 8.5 13.890625 5.5 
Q 16.203125 2.5 20.5 2.5 
Q 24.40625 2.5 27.59375 4.390625 
Q 30.796875 6.296875 35 10.703125 
z
" id="STIXGeneral-Italic-99"/>
     <path d="M 63.703125 32 
L 4.796875 32 
L 4.796875 38.59375 
L 63.703125 38.59375 
z
M 63.703125 12 
L 4.796875 12 
L 4.796875 18.59375 
L 63.703125 18.59375 
z
" id="STIXGeneral-Regular-61"/>
     <path d="M 18.09375 4.296875 
Q 18.09375 2.09375 16.4375 0.5 
Q 14.796875 -1.09375 12.5 -1.09375 
Q 10.203125 -1.09375 8.59375 0.5 
Q 7 2.09375 7 4.390625 
Q 7 6.703125 8.640625 8.34375 
Q 10.296875 10 12.59375 10 
Q 14.796875 10 16.4375 8.296875 
Q 18.09375 6.59375 18.09375 4.296875 
z
" id="STIXGeneral-Regular-46"/>
     <path d="M 43.796875 68.09375 
L 40.203125 59.59375 
Q 39.59375 58.296875 37.5 58.296875 
L 18.09375 58.296875 
L 14.09375 49.796875 
Q 25.09375 47.703125 30 45.25 
Q 34.90625 42.796875 39.09375 37 
Q 42.59375 32.203125 42.59375 24.296875 
Q 42.59375 17.09375 40.25 12.1875 
Q 37.90625 7.296875 32.796875 3.5 
Q 26 -1.40625 15.796875 -1.40625 
Q 10.09375 -1.40625 6.59375 0.296875 
Q 3.09375 2 3.09375 4.796875 
Q 3.09375 8.59375 7.59375 8.59375 
Q 11.203125 8.59375 15 5.5 
Q 18.90625 2.296875 22.09375 2.296875 
Q 27.296875 2.296875 31.4375 7.5 
Q 35.59375 12.703125 35.59375 19.203125 
Q 35.59375 28.796875 28.90625 34.203125 
Q 20.203125 41.203125 7.59375 41.203125 
Q 6.40625 41.203125 6.40625 42 
L 6.5 42.5 
L 17.40625 66.203125 
L 38.09375 66.203125 
Q 39.796875 66.203125 40.75 66.703125 
Q 41.703125 67.203125 42.90625 68.796875 
z
" id="STIXGeneral-Regular-53"/>
    </defs>
    <g transform="translate(925.449677 162.420982)scale(0.18 -0.18)">
     <use transform="translate(0 0.203125)" xlink:href="#STIXGeneral-Italic-115"/>
     <use transform="translate(38.899994 0.203125)" xlink:href="#STIXGeneral-Regular-47"/>
     <use transform="translate(66.699982 0.203125)" xlink:href="#STIXGeneral-Italic-99"/>
     <use transform="translate(125.539972 0.203125)" xlink:href="#STIXGeneral-Regular-61"/>
     <use transform="translate(208.479953 0.203125)" xlink:href="#STIXGeneral-Regular-49"/>
     <use transform="translate(258.479938 0.203125)" xlink:href="#STIXGeneral-Regular-46"/>
     <use transform="translate(283.479922 0.203125)" xlink:href="#STIXGeneral-Regular-53"/>
    </g>
   </g>
   <g id="legend_1">
    <g id="line2d_33">
     <path d="M 408.449892 47.628728 
L 438.437892 47.628728 
" style="fill:none;stroke:#1f77b4;stroke-linecap:square;stroke-width:3;"/>
    </g>
    <g id="line2d_34"/>
    <g id="text_7">
     <!-- $Re = 10^2$ -->
     <defs>
      <path d="M 13.203125 65.296875 
L 38.40625 65.296875 
Q 48.09375 65.296875 53.4375 61.5 
Q 58.796875 57.703125 58.796875 51.203125 
Q 58.796875 43.40625 52.203125 38.40625 
Q 48.296875 35.40625 39.09375 33.296875 
L 48 9.796875 
Q 49.703125 5.203125 51.546875 3.390625 
Q 53.40625 1.59375 56.703125 1.59375 
L 56.703125 0 
L 42 0 
L 29.703125 32.40625 
L 23.09375 32.90625 
L 17.59375 12.59375 
Q 16.296875 8 16.296875 6.296875 
Q 16.296875 4 17.59375 3 
Q 18.90625 2 23 1.59375 
L 23 0 
L -1.296875 0 
L -1.296875 1.59375 
Q 2.703125 2.09375 4.34375 3.796875 
Q 6 5.5 7.203125 10.09375 
L 19.09375 53.203125 
Q 20.296875 57.796875 20.296875 59.5 
Q 20.296875 61.296875 18.90625 62.296875 
Q 17.703125 63.09375 13.203125 63.703125 
z
M 30.59375 59.296875 
L 24.296875 36.59375 
Q 27.40625 36.09375 29.40625 36.09375 
Q 38.296875 36.09375 43.296875 40.09375 
Q 48.296875 44.09375 48.296875 51.09375 
Q 48.296875 56.296875 45.1875 59.296875 
Q 42.09375 62.296875 36.296875 62.296875 
Q 31.40625 62.296875 30.59375 59.296875 
z
" id="STIXGeneral-Italic-82"/>
      <path d="M 35.796875 10.90625 
L 37 9.703125 
Q 28.203125 -1.09375 16.59375 -1.09375 
Q 10.5 -1.09375 6.796875 2.65625 
Q 3.09375 6.40625 3.09375 12.59375 
Q 3.09375 24.296875 12.4375 34.1875 
Q 21.796875 44.09375 33 44.09375 
Q 36.90625 44.09375 39.046875 42.296875 
Q 41.203125 40.5 41.203125 37.296875 
Q 41.203125 30.703125 33.546875 25.5 
Q 25.90625 20.296875 12.796875 18.59375 
Q 11.796875 16.59375 11.796875 12.5 
Q 11.796875 8.40625 14.34375 5.90625 
Q 16.90625 3.40625 21.09375 3.40625 
Q 24.40625 3.40625 27.40625 4.953125 
Q 30.40625 6.5 35.796875 10.90625 
z
M 15.203125 25.203125 
L 13.5 20.796875 
Q 24.703125 23.5 29.59375 28.203125 
Q 34.59375 33 34.59375 37.90625 
Q 34.59375 41.796875 31.09375 41.796875 
Q 26.90625 41.796875 22.34375 36.9375 
Q 17.796875 32.09375 15.203125 25.203125 
z
" id="STIXGeneral-Italic-101"/>
      <path d="M 47.40625 13.703125 
L 42 0 
L 2.90625 0 
L 2.90625 1.203125 
L 20.703125 20.09375 
Q 27.703125 27.40625 30.703125 33.5 
Q 33.703125 39.59375 33.703125 46.09375 
Q 33.703125 52.796875 30 56.5 
Q 26.296875 60.203125 19.796875 60.203125 
Q 14.40625 60.203125 11.25 57.390625 
Q 8.09375 54.59375 5.09375 47.203125 
L 3 47.703125 
Q 4.703125 57 9.84375 62.296875 
Q 15 67.59375 23.796875 67.59375 
Q 32.09375 67.59375 37.1875 62.59375 
Q 42.296875 57.59375 42.296875 50 
Q 42.296875 38.703125 29.5 25.203125 
L 13 7.59375 
L 36.40625 7.59375 
Q 39.703125 7.59375 41.640625 8.890625 
Q 43.59375 10.203125 46 14.296875 
z
" id="STIXGeneral-Regular-50"/>
     </defs>
     <g transform="translate(450.433092 52.876628)scale(0.14994 -0.14994)">
      <use transform="translate(0 0.409375)" xlink:href="#STIXGeneral-Italic-82"/>
      <use transform="translate(61.099991 0.409375)" xlink:href="#STIXGeneral-Italic-101"/>
      <use transform="translate(119.939981 0.409375)" xlink:href="#STIXGeneral-Regular-61"/>
      <use transform="translate(202.879962 0.409375)" xlink:href="#STIXGeneral-Regular-49"/>
      <use transform="translate(252.879947 0.409375)" xlink:href="#STIXGeneral-Regular-48"/>
      <use transform="translate(304.423213 35.684375)scale(0.7)" xlink:href="#STIXGeneral-Regular-50"/>
     </g>
    </g>
    <g id="line2d_35">
     <path d="M 532.000452 47.628728 
L 561.988452 47.628728 
" style="fill:none;stroke:#ff7f0e;stroke-linecap:square;stroke-width:3;"/>
    </g>
    <g id="line2d_36"/>
    <g id="text_8">
     <!-- $Re = 10^3$ -->
     <defs>
      <path d="M 6.09375 51 
L 4.5 51.40625 
Q 6.796875 58.90625 11.6875 63.25 
Q 16.59375 67.59375 24.09375 67.59375 
Q 31.09375 67.59375 35.390625 63.796875 
Q 39.703125 60 39.703125 53.90625 
Q 39.703125 45.703125 30.40625 40.09375 
Q 35.90625 37.703125 38.703125 34.796875 
Q 43.09375 29.90625 43.09375 21.90625 
Q 43.09375 13.90625 38.5 7.90625 
Q 35.09375 3.296875 28.75 0.9375 
Q 22.40625 -1.40625 15.296875 -1.40625 
Q 4.09375 -1.40625 4.09375 4.296875 
Q 4.09375 5.90625 5.296875 6.90625 
Q 6.5 7.90625 8.203125 7.90625 
Q 10.703125 7.90625 14.296875 5.296875 
Q 18.703125 2.203125 22.90625 2.203125 
Q 28.40625 2.203125 32.15625 6.640625 
Q 35.90625 11.09375 35.90625 17.5 
Q 35.90625 29 25.5 32 
Q 22.40625 33 15.296875 33 
L 15.296875 34.40625 
Q 20.90625 36.296875 23.703125 38 
Q 31.796875 42.59375 31.796875 51.40625 
Q 31.796875 56.40625 28.9375 59 
Q 26.09375 61.59375 21 61.59375 
Q 12 61.59375 6.09375 51 
z
" id="STIXGeneral-Regular-51"/>
     </defs>
     <g transform="translate(573.983652 52.876628)scale(0.14994 -0.14994)">
      <use transform="translate(0 0.409375)" xlink:href="#STIXGeneral-Italic-82"/>
      <use transform="translate(61.099991 0.409375)" xlink:href="#STIXGeneral-Italic-101"/>
      <use transform="translate(119.939981 0.409375)" xlink:href="#STIXGeneral-Regular-61"/>
      <use transform="translate(202.879962 0.409375)" xlink:href="#STIXGeneral-Regular-49"/>
      <use transform="translate(252.879947 0.409375)" xlink:href="#STIXGeneral-Regular-48"/>
      <use transform="translate(304.423213 35.684375)scale(0.7)" xlink:href="#STIXGeneral-Regular-51"/>
     </g>
    </g>
   </g>
  </g>
  <g id="axes_3">
   <g id="patch_12">
    <path d="M 100.8 446.227545 
L 472.412903 446.227545 
L 472.412903 273.772455 
L 100.8 273.772455 
z
" style="fill:#ffffff;"/>
   </g>
   <g id="matplotlib.axis_5">
    <g id="xtick_13">
     <g id="line2d_37">
      <g>
       <use style="fill:#ffffff;stroke:#000000;stroke-width:0.8;" x="100.8" xlink:href="#m70b6d7f3d2" y="446.227545"/>
      </g>
     </g>
    </g>
    <g id="xtick_14">
     <g id="line2d_38">
      <g>
       <use style="fill:#ffffff;stroke:#000000;stroke-width:0.8;" x="175.122581" xlink:href="#m70b6d7f3d2" y="446.227545"/>
      </g>
     </g>
    </g>
    <g id="xtick_15">
     <g id="line2d_39">
      <g>
       <use style="fill:#ffffff;stroke:#000000;stroke-width:0.8;" x="249.445161" xlink:href="#m70b6d7f3d2" y="446.227545"/>
      </g>
     </g>
    </g>
    <g id="xtick_16">
     <g id="line2d_40">
      <g>
       <use style="fill:#ffffff;stroke:#000000;stroke-width:0.8;" x="323.767742" xlink:href="#m70b6d7f3d2" y="446.227545"/>
      </g>
     </g>
    </g>
    <g id="xtick_17">
     <g id="line2d_41">
      <g>
       <use style="fill:#ffffff;stroke:#000000;stroke-width:0.8;" x="398.090323" xlink:href="#m70b6d7f3d2" y="446.227545"/>
      </g>
     </g>
    </g>
    <g id="xtick_18">
     <g id="line2d_42">
      <g>
       <use style="fill:#ffffff;stroke:#000000;stroke-width:0.8;" x="472.412903" xlink:href="#m70b6d7f3d2" y="446.227545"/>
      </g>
     </g>
    </g>
   </g>
   <g id="matplotlib.axis_6">
    <g id="ytick_7">
     <g id="line2d_43">
      <g>
       <use style="fill:#ffffff;stroke:#000000;stroke-width:0.8;" x="100.8" xlink:href="#mc9ad371b62" y="417.48503"/>
      </g>
     </g>
     <g id="text_9">
      <!-- −1 -->
      <g transform="translate(72.47 423.631749)scale(0.18 -0.18)">
       <use xlink:href="#STIXGeneral-Regular-8722"/>
       <use x="68.499985" xlink:href="#STIXGeneral-Regular-49"/>
      </g>
     </g>
    </g>
    <g id="ytick_8">
     <g id="line2d_44">
      <g>
       <use style="fill:#ffffff;stroke:#000000;stroke-width:0.8;" x="100.8" xlink:href="#mc9ad371b62" y="360"/>
      </g>
     </g>
     <g id="text_10">
      <!-- 0 -->
      <g transform="translate(84.8 366.146719)scale(0.18 -0.18)">
       <use xlink:href="#STIXGeneral-Regular-48"/>
      </g>
     </g>
    </g>
    <g id="ytick_9">
     <g id="line2d_45">
      <g>
       <use style="fill:#ffffff;stroke:#000000;stroke-width:0.8;" x="100.8" xlink:href="#mc9ad371b62" y="302.51497"/>
      </g>
     </g>
     <g id="text_11">
      <!-- 1 -->
      <g transform="translate(84.8 308.661689)scale(0.18 -0.18)">
       <use xlink:href="#STIXGeneral-Regular-49"/>
      </g>
     </g>
    </g>
    <g id="text_12">
     <!-- $C_l$ -->
     <g transform="translate(64.563438 368.19)rotate(-90)scale(0.18 -0.18)">
      <use transform="translate(0 0.40625)" xlink:href="#STIXGeneral-Italic-67"/>
      <use transform="translate(66.699997 -12.821875)scale(0.7)" xlink:href="#STIXGeneral-Italic-108"/>
     </g>
    </g>
   </g>
   <g id="line2d_46">
    <path clip-path="url(#pe8ac9a3b45)" d="M 100.428387 350.647653 
L 101.543226 348.302235 
L 103.029677 346.009099 
L 104.516129 344.247731 
L 106.002581 342.739614 
L 111.576774 338.33512 
L 114.549677 336.384001 
L 120.495484 333.136841 
L 124.211613 331.476577 
L 128.299355 329.925983 
L 131.643871 328.860613 
L 136.474839 327.616655 
L 140.190968 326.884967 
L 144.27871 326.28402 
L 149.109677 325.80822 
L 153.940645 325.571831 
L 158.771613 325.545823 
L 164.717419 325.762842 
L 170.663226 326.219186 
L 177.352258 326.992124 
L 184.04129 327.984067 
L 192.588387 329.509863 
L 200.763871 331.175698 
L 210.054194 333.2381 
L 225.661935 336.945397 
L 246.472258 341.950483 
L 262.451613 345.599584 
L 273.971613 348.049086 
L 286.234839 350.44544 
L 298.869677 352.686741 
L 312.990968 354.935768 
L 326.369032 356.807269 
L 338.632258 358.317873 
L 352.753548 359.830386 
L 367.989677 361.22626 
L 383.969032 362.460136 
L 401.063226 363.547426 
L 420.75871 364.552565 
L 441.197419 365.36974 
L 464.609032 366.073579 
L 472.784516 366.269927 
L 472.784516 366.269927 
" style="fill:none;stroke:#1f77b4;stroke-linecap:square;stroke-width:3;"/>
   </g>
   <g id="line2d_47">
    <path clip-path="url(#pe8ac9a3b45)" d="M 100.428387 323.68817 
L 101.543226 321.122366 
L 103.029677 318.478726 
L 104.516129 316.35557 
L 106.002581 314.429155 
L 111.576774 308.568043 
L 115.292903 305.628289 
L 119.752258 303.10219 
L 120.867097 302.710604 
L 122.725161 302.157402 
L 124.583226 301.829392 
L 126.44129 301.671787 
L 128.670968 301.775799 
L 130.529032 302.056122 
L 132.387097 302.516149 
L 134.988387 303.428935 
L 136.474839 304.085198 
L 137.96129 304.867976 
L 139.819355 305.944994 
L 141.677419 307.136658 
L 146.88 311.089249 
L 150.967742 314.696446 
L 154.312258 317.936145 
L 172.892903 337.417557 
L 175.494194 339.824272 
L 179.581935 343.211365 
L 183.669677 346.194891 
L 185.899355 347.668897 
L 189.987097 350.158588 
L 198.905806 355.109975 
L 205.223226 358.556124 
L 213.39871 362.871458 
L 217.114839 364.652787 
L 222.317419 366.832248 
L 227.148387 368.562802 
L 232.350968 370.210193 
L 237.925161 371.673283 
L 242.756129 372.729901 
L 246.843871 373.492764 
L 253.16129 374.400425 
L 259.47871 375.063151 
L 266.910968 375.504083 
L 272.113548 375.619519 
L 278.802581 375.632432 
L 285.863226 375.426782 
L 298.498065 374.708869 
L 320.423226 372.805803 
L 324.139355 372.450122 
L 357.584516 369.588155 
L 373.192258 368.643231 
L 392.887742 367.827026 
L 424.474839 367.090498 
L 437.109677 366.879401 
L 456.433548 366.544945 
L 472.784516 366.214745 
L 472.784516 366.214745 
" style="fill:none;stroke:#ff7f0e;stroke-linecap:square;stroke-width:3;"/>
   </g>
   <g id="line2d_48">
    <path clip-path="url(#pe8ac9a3b45)" d="M 100.8 360 
L 472.412903 360 
" style="fill:none;stroke:#000000;stroke-dasharray:3.2,0.8,0.5,0.8;stroke-dashoffset:0;stroke-width:0.5;"/>
   </g>
   <g id="line2d_49">
    <path clip-path="url(#pe8ac9a3b45)" d="M 100.8 446.227545 
L 100.8 273.772455 
" style="fill:none;stroke:#000000;stroke-linecap:square;stroke-width:0.5;"/>
   </g>
   <g id="line2d_50">
    <path clip-path="url(#pe8ac9a3b45)" d="M 175.122581 446.227545 
L 175.122581 273.772455 
" style="fill:none;stroke:#000000;stroke-dasharray:3.2,0.8,0.5,0.8;stroke-dashoffset:0;stroke-opacity:0.25;stroke-width:0.5;"/>
   </g>
   <g id="line2d_51">
    <path clip-path="url(#pe8ac9a3b45)" d="M 249.445161 446.227545 
L 249.445161 273.772455 
" style="fill:none;stroke:#000000;stroke-dasharray:3.2,0.8,0.5,0.8;stroke-dashoffset:0;stroke-opacity:0.25;stroke-width:0.5;"/>
   </g>
   <g id="line2d_52">
    <path clip-path="url(#pe8ac9a3b45)" d="M 323.767742 446.227545 
L 323.767742 273.772455 
" style="fill:none;stroke:#000000;stroke-dasharray:3.2,0.8,0.5,0.8;stroke-dashoffset:0;stroke-opacity:0.25;stroke-width:0.5;"/>
   </g>
   <g id="patch_13">
    <path d="M 100.8 446.227545 
L 100.8 273.772455 
" style="fill:none;stroke:#000000;stroke-linecap:square;stroke-linejoin:miter;stroke-width:0.8;"/>
   </g>
   <g id="patch_14">
    <path d="M 472.412903 446.227545 
L 472.412903 273.772455 
" style="fill:none;stroke:#000000;stroke-linecap:square;stroke-linejoin:miter;stroke-width:0.8;"/>
   </g>
   <g id="patch_15">
    <path d="M 100.8 446.227545 
L 472.412903 446.227545 
" style="fill:none;stroke:#000000;stroke-linecap:square;stroke-linejoin:miter;stroke-width:0.8;"/>
   </g>
   <g id="patch_16">
    <path d="M 100.8 273.772455 
L 472.412903 273.772455 
" style="fill:none;stroke:#000000;stroke-linecap:square;stroke-linejoin:miter;stroke-width:0.8;"/>
   </g>
  </g>
  <g id="axes_4">
   <g id="patch_17">
    <path d="M 535.587097 446.227545 
L 907.2 446.227545 
L 907.2 273.772455 
L 535.587097 273.772455 
z
" style="fill:#ffffff;"/>
   </g>
   <g id="matplotlib.axis_7">
    <g id="xtick_19">
     <g id="line2d_53">
      <g>
       <use style="fill:#ffffff;stroke:#000000;stroke-width:0.8;" x="535.587097" xlink:href="#m70b6d7f3d2" y="446.227545"/>
      </g>
     </g>
    </g>
    <g id="xtick_20">
     <g id="line2d_54">
      <g>
       <use style="fill:#ffffff;stroke:#000000;stroke-width:0.8;" x="609.909677" xlink:href="#m70b6d7f3d2" y="446.227545"/>
      </g>
     </g>
    </g>
    <g id="xtick_21">
     <g id="line2d_55">
      <g>
       <use style="fill:#ffffff;stroke:#000000;stroke-width:0.8;" x="684.232258" xlink:href="#m70b6d7f3d2" y="446.227545"/>
      </g>
     </g>
    </g>
    <g id="xtick_22">
     <g id="line2d_56">
      <g>
       <use style="fill:#ffffff;stroke:#000000;stroke-width:0.8;" x="758.554839" xlink:href="#m70b6d7f3d2" y="446.227545"/>
      </g>
     </g>
    </g>
    <g id="xtick_23">
     <g id="line2d_57">
      <g>
       <use style="fill:#ffffff;stroke:#000000;stroke-width:0.8;" x="832.877419" xlink:href="#m70b6d7f3d2" y="446.227545"/>
      </g>
     </g>
    </g>
    <g id="xtick_24">
     <g id="line2d_58">
      <g>
       <use style="fill:#ffffff;stroke:#000000;stroke-width:0.8;" x="907.2" xlink:href="#m70b6d7f3d2" y="446.227545"/>
      </g>
     </g>
    </g>
   </g>
   <g id="matplotlib.axis_8">
    <g id="ytick_10">
     <g id="line2d_59">
      <g>
       <use style="fill:#ffffff;stroke:#000000;stroke-width:0.8;" x="535.587097" xlink:href="#mc9ad371b62" y="417.48503"/>
      </g>
     </g>
    </g>
    <g id="ytick_11">
     <g id="line2d_60">
      <g>
       <use style="fill:#ffffff;stroke:#000000;stroke-width:0.8;" x="535.587097" xlink:href="#mc9ad371b62" y="360"/>
      </g>
     </g>
    </g>
    <g id="ytick_12">
     <g id="line2d_61">
      <g>
       <use style="fill:#ffffff;stroke:#000000;stroke-width:0.8;" x="535.587097" xlink:href="#mc9ad371b62" y="302.51497"/>
      </g>
     </g>
    </g>
    <g id="text_13">
     <!-- $C_d$ -->
     <g transform="translate(520.680534 369.63)rotate(-90)scale(0.18 -0.18)">
      <use transform="translate(0 0.40625)" xlink:href="#STIXGeneral-Italic-67"/>
      <use transform="translate(66.699997 -12.821875)scale(0.7)" xlink:href="#STIXGeneral-Italic-100"/>
     </g>
    </g>
   </g>
   <g id="line2d_62">
    <path clip-path="url(#p695cc056c7)" d="M 535.215484 380.605294 
L 536.330323 377.633417 
L 537.816774 374.661151 
L 539.303226 372.361105 
L 540.789677 370.418926 
L 544.505806 366.56632 
L 548.221935 363.468057 
L 550.451613 361.865726 
L 552.309677 360.611948 
L 554.910968 359.080073 
L 558.255484 357.339995 
L 561.6 355.855454 
L 565.687742 354.304808 
L 569.403871 353.160634 
L 572.376774 352.381079 
L 576.836129 351.453811 
L 580.923871 350.813508 
L 585.383226 350.315666 
L 590.214194 349.995487 
L 595.788387 349.863022 
L 601.362581 349.955006 
L 606.936774 350.2435 
L 613.625806 350.798131 
L 621.429677 351.661643 
L 630.348387 352.853682 
L 643.726452 354.881417 
L 675.313548 359.770914 
L 690.178065 361.782103 
L 702.812903 363.257851 
L 715.447742 364.512992 
L 728.082581 365.541919 
L 742.947097 366.504641 
L 756.325161 367.163532 
L 773.790968 367.7752 
L 792 368.170399 
L 813.181935 368.39759 
L 838.823226 368.441348 
L 873.754839 368.276527 
L 907.571613 367.971124 
L 907.571613 367.971124 
" style="fill:none;stroke:#1f77b4;stroke-linecap:square;stroke-width:3;"/>
   </g>
   <g id="line2d_63">
    <path clip-path="url(#p695cc056c7)" d="M 535.215484 334.305076 
L 536.330323 331.6184 
L 537.816774 328.858001 
L 538.931613 327.160443 
L 541.532903 323.786293 
L 543.019355 322.052275 
L 547.47871 317.679184 
L 550.08 315.650298 
L 553.796129 313.454276 
L 557.512258 312.265207 
L 558.99871 312.059748 
L 560.856774 311.961204 
L 562.714839 312.087206 
L 563.829677 312.317324 
L 565.316129 312.69972 
L 567.174194 313.348761 
L 569.775484 314.548789 
L 571.261935 315.383444 
L 572.748387 316.349306 
L 574.978065 317.931637 
L 578.694194 320.937521 
L 583.153548 325.099754 
L 586.126452 328.08872 
L 590.585806 332.846307 
L 603.220645 346.59011 
L 605.821935 349.070128 
L 609.909677 352.588137 
L 612.510968 354.471505 
L 615.483871 356.355074 
L 619.943226 358.661875 
L 623.659355 360.226806 
L 628.11871 361.859841 
L 638.523871 365.512991 
L 642.983226 367.181101 
L 650.415484 369.788126 
L 656.732903 371.601419 
L 660.449032 372.45475 
L 666.394839 373.634006 
L 672.712258 374.580742 
L 677.914839 375.17763 
L 687.576774 375.853417 
L 694.265806 376.050199 
L 702.812903 375.955172 
L 709.501935 375.692856 
L 724.366452 374.668426 
L 735.143226 373.642909 
L 739.974194 373.131411 
L 750.379355 372.00706 
L 753.352258 371.708427 
L 757.068387 371.301573 
L 787.169032 368.525635 
L 804.634839 367.450036 
L 822.843871 366.73305 
L 854.059355 366.131529 
L 907.571613 365.41208 
L 907.571613 365.41208 
" style="fill:none;stroke:#ff7f0e;stroke-linecap:square;stroke-width:3;"/>
   </g>
   <g id="line2d_64">
    <path clip-path="url(#p695cc056c7)" d="M 535.587097 360 
L 907.2 360 
" style="fill:none;stroke:#000000;stroke-dasharray:3.2,0.8,0.5,0.8;stroke-dashoffset:0;stroke-width:0.5;"/>
   </g>
   <g id="line2d_65">
    <path clip-path="url(#p695cc056c7)" d="M 535.587097 446.227545 
L 535.587097 273.772455 
" style="fill:none;stroke:#000000;stroke-linecap:square;stroke-width:0.5;"/>
   </g>
   <g id="line2d_66">
    <path clip-path="url(#p695cc056c7)" d="M 609.909677 446.227545 
L 609.909677 273.772455 
" style="fill:none;stroke:#000000;stroke-dasharray:3.2,0.8,0.5,0.8;stroke-dashoffset:0;stroke-opacity:0.25;stroke-width:0.5;"/>
   </g>
   <g id="line2d_67">
    <path clip-path="url(#p695cc056c7)" d="M 684.232258 446.227545 
L 684.232258 273.772455 
" style="fill:none;stroke:#000000;stroke-dasharray:3.2,0.8,0.5,0.8;stroke-dashoffset:0;stroke-opacity:0.25;stroke-width:0.5;"/>
   </g>
   <g id="line2d_68">
    <path clip-path="url(#p695cc056c7)" d="M 758.554839 446.227545 
L 758.554839 273.772455 
" style="fill:none;stroke:#000000;stroke-dasharray:3.2,0.8,0.5,0.8;stroke-dashoffset:0;stroke-opacity:0.25;stroke-width:0.5;"/>
   </g>
   <g id="patch_18">
    <path d="M 535.587097 446.227545 
L 535.587097 273.772455 
" style="fill:none;stroke:#000000;stroke-linecap:square;stroke-linejoin:miter;stroke-width:0.8;"/>
   </g>
   <g id="patch_19">
    <path d="M 907.2 446.227545 
L 907.2 273.772455 
" style="fill:none;stroke:#000000;stroke-linecap:square;stroke-linejoin:miter;stroke-width:0.8;"/>
   </g>
   <g id="patch_20">
    <path d="M 535.587097 446.227545 
L 907.2 446.227545 
" style="fill:none;stroke:#000000;stroke-linecap:square;stroke-linejoin:miter;stroke-width:0.8;"/>
   </g>
   <g id="patch_21">
    <path d="M 535.587097 273.772455 
L 907.2 273.772455 
" style="fill:none;stroke:#000000;stroke-linecap:square;stroke-linejoin:miter;stroke-width:0.8;"/>
   </g>
   <g id="text_14">
    <!-- $s/c = 3.0$ -->
    <g transform="translate(925.449677 364.193438)scale(0.18 -0.18)">
     <use transform="translate(0 0.40625)" xlink:href="#STIXGeneral-Italic-115"/>
     <use transform="translate(38.899994 0.40625)" xlink:href="#STIXGeneral-Regular-47"/>
     <use transform="translate(66.699982 0.40625)" xlink:href="#STIXGeneral-Italic-99"/>
     <use transform="translate(125.539972 0.40625)" xlink:href="#STIXGeneral-Regular-61"/>
     <use transform="translate(208.479953 0.40625)" xlink:href="#STIXGeneral-Regular-51"/>
     <use transform="translate(258.479938 0.40625)" xlink:href="#STIXGeneral-Regular-46"/>
     <use transform="translate(283.479922 0.40625)" xlink:href="#STIXGeneral-Regular-48"/>
    </g>
   </g>
  </g>
  <g id="axes_5">
   <g id="patch_22">
    <path d="M 100.8 648 
L 472.412903 648 
L 472.412903 475.54491 
L 100.8 475.54491 
z
" style="fill:#ffffff;"/>
   </g>
   <g id="matplotlib.axis_9">
    <g id="xtick_25">
     <g id="line2d_69">
      <g>
       <use style="fill:#ffffff;stroke:#000000;stroke-width:0.8;" x="100.8" xlink:href="#m70b6d7f3d2" y="648"/>
      </g>
     </g>
     <g id="text_15">
      <!-- 1.0 -->
      <g transform="translate(89.55 667.293437)scale(0.18 -0.18)">
       <use xlink:href="#STIXGeneral-Regular-49"/>
       <use x="49.999985" xlink:href="#STIXGeneral-Regular-46"/>
       <use x="74.999969" xlink:href="#STIXGeneral-Regular-48"/>
      </g>
     </g>
    </g>
    <g id="xtick_26">
     <g id="line2d_70">
      <g>
       <use style="fill:#ffffff;stroke:#000000;stroke-width:0.8;" x="175.122581" xlink:href="#m70b6d7f3d2" y="648"/>
      </g>
     </g>
     <g id="text_16">
      <!-- 1.2 -->
      <g transform="translate(163.872581 667.293437)scale(0.18 -0.18)">
       <use xlink:href="#STIXGeneral-Regular-49"/>
       <use x="49.999985" xlink:href="#STIXGeneral-Regular-46"/>
       <use x="74.999969" xlink:href="#STIXGeneral-Regular-50"/>
      </g>
     </g>
    </g>
    <g id="xtick_27">
     <g id="line2d_71">
      <g>
       <use style="fill:#ffffff;stroke:#000000;stroke-width:0.8;" x="249.445161" xlink:href="#m70b6d7f3d2" y="648"/>
      </g>
     </g>
     <g id="text_17">
      <!-- 1.4 -->
      <defs>
       <path d="M 47.296875 16.703125 
L 37 16.703125 
L 37 0 
L 29.203125 0 
L 29.203125 16.703125 
L 1.203125 16.703125 
L 1.203125 23.09375 
L 32.59375 67.59375 
L 37 67.59375 
L 37 23.09375 
L 47.296875 23.09375 
z
M 29.203125 23.09375 
L 29.203125 57.40625 
L 5.203125 23.09375 
z
" id="STIXGeneral-Regular-52"/>
      </defs>
      <g transform="translate(238.195161 667.293437)scale(0.18 -0.18)">
       <use xlink:href="#STIXGeneral-Regular-49"/>
       <use x="49.999985" xlink:href="#STIXGeneral-Regular-46"/>
       <use x="74.999969" xlink:href="#STIXGeneral-Regular-52"/>
      </g>
     </g>
    </g>
    <g id="xtick_28">
     <g id="line2d_72">
      <g>
       <use style="fill:#ffffff;stroke:#000000;stroke-width:0.8;" x="323.767742" xlink:href="#m70b6d7f3d2" y="648"/>
      </g>
     </g>
     <g id="text_18">
      <!-- 1.6 -->
      <defs>
       <path d="M 44.59375 68.40625 
L 44.796875 66.796875 
Q 33 64.90625 25.09375 57.25 
Q 17.203125 49.59375 15.203125 38.296875 
Q 21 42.796875 27.90625 42.796875 
Q 36.703125 42.796875 41.75 37.1875 
Q 46.796875 31.59375 46.796875 21.90625 
Q 46.796875 12.09375 41.703125 5.90625 
Q 35.796875 -1.40625 25.796875 -1.40625 
Q 13.59375 -1.40625 8.09375 8.703125 
Q 3.40625 17.296875 3.40625 27.90625 
Q 3.40625 44.296875 14.296875 55.5 
Q 20.5 61.90625 27.046875 64.546875 
Q 33.59375 67.203125 44.59375 68.40625 
z
M 37.796875 18.796875 
Q 37.796875 38.203125 24.296875 38.203125 
Q 19.296875 38.203125 16 35.546875 
Q 12.703125 32.90625 12.703125 26.59375 
Q 12.703125 14.90625 16.34375 8.15625 
Q 20 1.40625 26.90625 1.40625 
Q 32.203125 1.40625 35 6.15625 
Q 37.796875 10.90625 37.796875 18.796875 
z
" id="STIXGeneral-Regular-54"/>
      </defs>
      <g transform="translate(312.517742 667.293437)scale(0.18 -0.18)">
       <use xlink:href="#STIXGeneral-Regular-49"/>
       <use x="49.999985" xlink:href="#STIXGeneral-Regular-46"/>
       <use x="74.999969" xlink:href="#STIXGeneral-Regular-54"/>
      </g>
     </g>
    </g>
    <g id="xtick_29">
     <g id="line2d_73">
      <g>
       <use style="fill:#ffffff;stroke:#000000;stroke-width:0.8;" x="398.090323" xlink:href="#m70b6d7f3d2" y="648"/>
      </g>
     </g>
     <g id="text_19">
      <!-- 1.8 -->
      <defs>
       <path d="M 44.5 15.5 
Q 44.5 7.796875 39.140625 3.1875 
Q 33.796875 -1.40625 24.796875 -1.40625 
Q 16.40625 -1.40625 11 3.1875 
Q 5.59375 7.796875 5.59375 14.90625 
Q 5.59375 20.203125 8.1875 23.953125 
Q 10.796875 27.703125 18.59375 33.203125 
Q 11.09375 39.40625 8.640625 43.203125 
Q 6.203125 47 6.203125 52 
Q 6.203125 59.09375 11.640625 63.34375 
Q 17.09375 67.59375 25.59375 67.59375 
Q 32.90625 67.59375 37.65625 63.4375 
Q 42.40625 59.296875 42.40625 53.296875 
Q 42.40625 47.796875 39.546875 44.5 
Q 36.703125 41.203125 29 37.09375 
Q 38 31.09375 41.25 26.390625 
Q 44.5 21.703125 44.5 15.5 
z
M 35.5 53.296875 
Q 35.5 58.5 32.59375 61.640625 
Q 29.703125 64.796875 24.59375 64.796875 
Q 19.5 64.796875 16.546875 62.140625 
Q 13.59375 59.5 13.59375 54.890625 
Q 13.59375 50.296875 16.546875 46.546875 
Q 19.5 42.796875 26.09375 38.90625 
Q 31.203125 41.90625 33.34375 45.25 
Q 35.5 48.59375 35.5 53.296875 
z
M 27.09375 27.203125 
L 21.203125 31.203125 
Q 16.796875 27.59375 15 24.140625 
Q 13.203125 20.703125 13.203125 15.796875 
Q 13.203125 9 16.640625 5.203125 
Q 20.09375 1.40625 25.90625 1.40625 
Q 30.796875 1.40625 33.84375 4.453125 
Q 36.90625 7.5 36.90625 12.40625 
Q 36.90625 16.90625 34.59375 20.296875 
Q 32.296875 23.703125 27.09375 27.203125 
z
" id="STIXGeneral-Regular-56"/>
      </defs>
      <g transform="translate(386.840323 667.293437)scale(0.18 -0.18)">
       <use xlink:href="#STIXGeneral-Regular-49"/>
       <use x="49.999985" xlink:href="#STIXGeneral-Regular-46"/>
       <use x="74.999969" xlink:href="#STIXGeneral-Regular-56"/>
      </g>
     </g>
    </g>
    <g id="xtick_30">
     <g id="line2d_74">
      <g>
       <use style="fill:#ffffff;stroke:#000000;stroke-width:0.8;" x="472.412903" xlink:href="#m70b6d7f3d2" y="648"/>
      </g>
     </g>
     <g id="text_20">
      <!-- 2.0 -->
      <g transform="translate(461.162903 667.293437)scale(0.18 -0.18)">
       <use xlink:href="#STIXGeneral-Regular-50"/>
       <use x="49.999985" xlink:href="#STIXGeneral-Regular-46"/>
       <use x="74.999969" xlink:href="#STIXGeneral-Regular-48"/>
      </g>
     </g>
    </g>
    <g id="text_21">
     <!-- $\^t$ -->
     <defs>
      <path d="M -7.5 50.703125 
L -10.90625 50.703125 
L -23.09375 61 
L -35.203125 50.703125 
L -38.59375 50.703125 
L -26.203125 67.40625 
L -20 67.40625 
z
" id="STIXGeneral-Regular-770"/>
      <path d="M 29.59375 42.796875 
L 29.09375 39.59375 
L 20.703125 39.59375 
L 12 6.796875 
Q 11.796875 6 11.796875 5.40625 
Q 11.796875 3.796875 13.296875 3.796875 
Q 14.5 3.796875 16.09375 5.34375 
Q 17.703125 6.90625 21.40625 11.703125 
L 22.703125 11 
Q 18.09375 4 15.140625 1.453125 
Q 12.203125 -1.09375 8.40625 -1.09375 
Q 3.796875 -1.09375 3.796875 2.59375 
Q 3.796875 3.59375 5.40625 10 
L 13.203125 39.59375 
L 5.703125 39.59375 
L 5.59375 40.203125 
Q 5.59375 42 8.90625 42.703125 
Q 11.40625 43.296875 15.5 46.546875 
Q 19.59375 49.796875 22.203125 53.703125 
Q 22.796875 54.59375 23.59375 54.59375 
Q 24.5 54.59375 24.5 53.796875 
Q 24.5 53.296875 24.40625 53.09375 
L 21.59375 42.796875 
z
" id="STIXGeneral-Italic-116"/>
     </defs>
     <g transform="translate(284.086452 687.493438)scale(0.18 -0.18)">
      <use transform="translate(39.042969 16.59375)" xlink:href="#STIXGeneral-Regular-770"/>
      <use transform="translate(0 0.203125)" xlink:href="#STIXGeneral-Italic-116"/>
     </g>
    </g>
   </g>
   <g id="matplotlib.axis_10">
    <g id="ytick_13">
     <g id="line2d_75">
      <g>
       <use style="fill:#ffffff;stroke:#000000;stroke-width:0.8;" x="100.8" xlink:href="#mc9ad371b62" y="619.257485"/>
      </g>
     </g>
     <g id="text_22">
      <!-- −1 -->
      <g transform="translate(72.47 625.404204)scale(0.18 -0.18)">
       <use xlink:href="#STIXGeneral-Regular-8722"/>
       <use x="68.499985" xlink:href="#STIXGeneral-Regular-49"/>
      </g>
     </g>
    </g>
    <g id="ytick_14">
     <g id="line2d_76">
      <g>
       <use style="fill:#ffffff;stroke:#000000;stroke-width:0.8;" x="100.8" xlink:href="#mc9ad371b62" y="561.772455"/>
      </g>
     </g>
     <g id="text_23">
      <!-- 0 -->
      <g transform="translate(84.8 567.919174)scale(0.18 -0.18)">
       <use xlink:href="#STIXGeneral-Regular-48"/>
      </g>
     </g>
    </g>
    <g id="ytick_15">
     <g id="line2d_77">
      <g>
       <use style="fill:#ffffff;stroke:#000000;stroke-width:0.8;" x="100.8" xlink:href="#mc9ad371b62" y="504.287425"/>
      </g>
     </g>
     <g id="text_24">
      <!-- 1 -->
      <g transform="translate(84.8 510.434144)scale(0.18 -0.18)">
       <use xlink:href="#STIXGeneral-Regular-49"/>
      </g>
     </g>
    </g>
    <g id="text_25">
     <!-- $C_l$ -->
     <g transform="translate(64.563438 569.962455)rotate(-90)scale(0.18 -0.18)">
      <use transform="translate(0 0.40625)" xlink:href="#STIXGeneral-Italic-67"/>
      <use transform="translate(66.699997 -12.821875)scale(0.7)" xlink:href="#STIXGeneral-Italic-108"/>
     </g>
    </g>
   </g>
   <g id="line2d_78">
    <path clip-path="url(#pb9f3f9e597)" d="M 100.428387 577.947871 
L 101.171613 577.761497 
L 102.286452 577.728303 
L 103.40129 577.862981 
L 105.259355 578.320822 
L 108.603871 579.400582 
L 113.806452 581.153226 
L 118.637419 582.618222 
L 121.981935 583.507413 
L 126.44129 584.473439 
L 130.900645 585.185798 
L 134.988387 585.602772 
L 139.076129 585.799567 
L 143.163871 585.790652 
L 147.994839 585.538729 
L 153.197419 585.019307 
L 158.771613 584.230123 
L 165.832258 582.973296 
L 174.007742 581.286202 
L 185.527742 578.674518 
L 207.08129 573.789163 
L 219.344516 571.262679 
L 230.492903 569.19756 
L 242.012903 567.304641 
L 253.532903 565.647793 
L 265.424516 564.160733 
L 278.059355 562.820895 
L 291.065806 561.658052 
L 305.187097 560.628687 
L 319.68 559.789708 
L 336.030968 559.071862 
L 354.983226 558.487821 
L 375.421935 558.096193 
L 400.691613 557.846836 
L 432.650323 557.765588 
L 472.784516 557.820523 
L 472.784516 557.820523 
" style="fill:none;stroke:#1f77b4;stroke-linecap:square;stroke-width:3;"/>
   </g>
   <g id="line2d_79">
    <path clip-path="url(#pb9f3f9e597)" d="M 100.428387 577.585621 
L 101.171613 577.542279 
L 103.40129 577.804823 
L 106.374194 578.368516 
L 109.71871 578.801403 
L 112.32 578.923404 
L 115.292903 578.787466 
L 118.265806 578.364288 
L 121.981935 577.379536 
L 124.954839 576.340016 
L 132.015484 573.101054 
L 138.332903 569.794477 
L 146.136774 565.286873 
L 151.710968 561.672427 
L 154.683871 559.535625 
L 158.4 556.565486 
L 161.00129 554.261796 
L 163.974194 551.374998 
L 166.575484 548.602833 
L 169.548387 545.155158 
L 172.892903 540.931734 
L 179.581935 531.879051 
L 182.926452 527.526317 
L 185.156129 524.992674 
L 186.642581 523.602949 
L 188.129032 522.501715 
L 189.243871 521.899424 
L 190.35871 521.503133 
L 191.473548 521.317405 
L 192.588387 521.338408 
L 193.703226 521.575518 
L 194.818065 522.014946 
L 195.932903 522.660486 
L 197.047742 523.519692 
L 198.534194 524.987207 
L 200.020645 526.799752 
L 201.87871 529.57645 
L 203.736774 532.790952 
L 209.682581 543.642011 
L 210.797419 545.19005 
L 211.912258 546.380543 
L 213.027097 547.174765 
L 213.770323 547.466653 
L 214.513548 547.556042 
L 215.256774 547.469811 
L 216 547.204135 
L 217.114839 546.516296 
L 218.229677 545.530289 
L 220.087742 543.448059 
L 225.661935 536.85289 
L 227.52 535.144433 
L 229.006452 534.047125 
L 230.864516 533.011448 
L 232.722581 532.290226 
L 234.580645 531.825424 
L 236.43871 531.572841 
L 238.668387 531.462325 
L 242.384516 531.569298 
L 250.931613 531.931474 
L 254.276129 531.783441 
L 257.249032 531.387205 
L 259.47871 530.929475 
L 263.194839 529.917019 
L 269.140645 527.907272 
L 280.660645 523.87665 
L 284.376774 522.81777 
L 289.207742 521.724054 
L 294.03871 520.887394 
L 305.930323 519.260946 
L 314.105806 517.996593 
L 320.423226 516.806491 
L 338.632258 513.162549 
L 344.206452 512.37365 
L 348.665806 511.915032 
L 353.496774 511.599101 
L 360.185806 511.420035 
L 366.131613 511.492288 
L 373.563871 511.832285 
L 381.367742 512.479752 
L 387.685161 513.241052 
L 394.374194 514.303373 
L 401.063226 515.727999 
L 404.407742 516.67088 
L 407.752258 517.809981 
L 411.468387 519.347855 
L 414.812903 520.981517 
L 418.157419 522.89335 
L 421.873548 525.328998 
L 425.218065 527.741951 
L 430.049032 531.528861 
L 439.339355 539.182294 
L 446.4 544.841729 
L 453.089032 549.900054 
L 457.548387 553.103355 
L 461.264516 555.634756 
L 465.723871 558.416658 
L 469.811613 560.670635 
L 472.784516 562.09544 
L 472.784516 562.09544 
" style="fill:none;stroke:#ff7f0e;stroke-linecap:square;stroke-width:3;"/>
   </g>
   <g id="line2d_80">
    <path clip-path="url(#pb9f3f9e597)" d="M 100.8 561.772455 
L 472.412903 561.772455 
" style="fill:none;stroke:#000000;stroke-dasharray:3.2,0.8,0.5,0.8;stroke-dashoffset:0;stroke-width:0.5;"/>
   </g>
   <g id="line2d_81">
    <path clip-path="url(#pb9f3f9e597)" d="M 100.8 648 
L 100.8 475.54491 
" style="fill:none;stroke:#000000;stroke-linecap:square;stroke-width:0.5;"/>
   </g>
   <g id="line2d_82">
    <path clip-path="url(#pb9f3f9e597)" d="M 175.122581 648 
L 175.122581 475.54491 
" style="fill:none;stroke:#000000;stroke-dasharray:3.2,0.8,0.5,0.8;stroke-dashoffset:0;stroke-opacity:0.25;stroke-width:0.5;"/>
   </g>
   <g id="line2d_83">
    <path clip-path="url(#pb9f3f9e597)" d="M 249.445161 648 
L 249.445161 475.54491 
" style="fill:none;stroke:#000000;stroke-dasharray:3.2,0.8,0.5,0.8;stroke-dashoffset:0;stroke-opacity:0.25;stroke-width:0.5;"/>
   </g>
   <g id="line2d_84">
    <path clip-path="url(#pb9f3f9e597)" d="M 323.767742 648 
L 323.767742 475.54491 
" style="fill:none;stroke:#000000;stroke-dasharray:3.2,0.8,0.5,0.8;stroke-dashoffset:0;stroke-opacity:0.25;stroke-width:0.5;"/>
   </g>
   <g id="patch_23">
    <path d="M 100.8 648 
L 100.8 475.54491 
" style="fill:none;stroke:#000000;stroke-linecap:square;stroke-linejoin:miter;stroke-width:0.8;"/>
   </g>
   <g id="patch_24">
    <path d="M 472.412903 648 
L 472.412903 475.54491 
" style="fill:none;stroke:#000000;stroke-linecap:square;stroke-linejoin:miter;stroke-width:0.8;"/>
   </g>
   <g id="patch_25">
    <path d="M 100.8 648 
L 472.412903 648 
" style="fill:none;stroke:#000000;stroke-linecap:square;stroke-linejoin:miter;stroke-width:0.8;"/>
   </g>
   <g id="patch_26">
    <path d="M 100.8 475.54491 
L 472.412903 475.54491 
" style="fill:none;stroke:#000000;stroke-linecap:square;stroke-linejoin:miter;stroke-width:0.8;"/>
   </g>
  </g>
  <g id="axes_6">
   <g id="patch_27">
    <path d="M 535.587097 648 
L 907.2 648 
L 907.2 475.54491 
L 535.587097 475.54491 
z
" style="fill:#ffffff;"/>
   </g>
   <g id="matplotlib.axis_11">
    <g id="xtick_31">
     <g id="line2d_85">
      <g>
       <use style="fill:#ffffff;stroke:#000000;stroke-width:0.8;" x="535.587097" xlink:href="#m70b6d7f3d2" y="648"/>
      </g>
     </g>
     <g id="text_26">
      <!-- 1.0 -->
      <g transform="translate(524.337097 667.293437)scale(0.18 -0.18)">
       <use xlink:href="#STIXGeneral-Regular-49"/>
       <use x="49.999985" xlink:href="#STIXGeneral-Regular-46"/>
       <use x="74.999969" xlink:href="#STIXGeneral-Regular-48"/>
      </g>
     </g>
    </g>
    <g id="xtick_32">
     <g id="line2d_86">
      <g>
       <use style="fill:#ffffff;stroke:#000000;stroke-width:0.8;" x="609.909677" xlink:href="#m70b6d7f3d2" y="648"/>
      </g>
     </g>
     <g id="text_27">
      <!-- 1.2 -->
      <g transform="translate(598.659677 667.293437)scale(0.18 -0.18)">
       <use xlink:href="#STIXGeneral-Regular-49"/>
       <use x="49.999985" xlink:href="#STIXGeneral-Regular-46"/>
       <use x="74.999969" xlink:href="#STIXGeneral-Regular-50"/>
      </g>
     </g>
    </g>
    <g id="xtick_33">
     <g id="line2d_87">
      <g>
       <use style="fill:#ffffff;stroke:#000000;stroke-width:0.8;" x="684.232258" xlink:href="#m70b6d7f3d2" y="648"/>
      </g>
     </g>
     <g id="text_28">
      <!-- 1.4 -->
      <g transform="translate(672.982258 667.293437)scale(0.18 -0.18)">
       <use xlink:href="#STIXGeneral-Regular-49"/>
       <use x="49.999985" xlink:href="#STIXGeneral-Regular-46"/>
       <use x="74.999969" xlink:href="#STIXGeneral-Regular-52"/>
      </g>
     </g>
    </g>
    <g id="xtick_34">
     <g id="line2d_88">
      <g>
       <use style="fill:#ffffff;stroke:#000000;stroke-width:0.8;" x="758.554839" xlink:href="#m70b6d7f3d2" y="648"/>
      </g>
     </g>
     <g id="text_29">
      <!-- 1.6 -->
      <g transform="translate(747.304839 667.293437)scale(0.18 -0.18)">
       <use xlink:href="#STIXGeneral-Regular-49"/>
       <use x="49.999985" xlink:href="#STIXGeneral-Regular-46"/>
       <use x="74.999969" xlink:href="#STIXGeneral-Regular-54"/>
      </g>
     </g>
    </g>
    <g id="xtick_35">
     <g id="line2d_89">
      <g>
       <use style="fill:#ffffff;stroke:#000000;stroke-width:0.8;" x="832.877419" xlink:href="#m70b6d7f3d2" y="648"/>
      </g>
     </g>
     <g id="text_30">
      <!-- 1.8 -->
      <g transform="translate(821.627419 667.293437)scale(0.18 -0.18)">
       <use xlink:href="#STIXGeneral-Regular-49"/>
       <use x="49.999985" xlink:href="#STIXGeneral-Regular-46"/>
       <use x="74.999969" xlink:href="#STIXGeneral-Regular-56"/>
      </g>
     </g>
    </g>
    <g id="xtick_36">
     <g id="line2d_90">
      <g>
       <use style="fill:#ffffff;stroke:#000000;stroke-width:0.8;" x="907.2" xlink:href="#m70b6d7f3d2" y="648"/>
      </g>
     </g>
     <g id="text_31">
      <!-- 2.0 -->
      <g transform="translate(895.95 667.293437)scale(0.18 -0.18)">
       <use xlink:href="#STIXGeneral-Regular-50"/>
       <use x="49.999985" xlink:href="#STIXGeneral-Regular-46"/>
       <use x="74.999969" xlink:href="#STIXGeneral-Regular-48"/>
      </g>
     </g>
    </g>
    <g id="text_32">
     <!-- $\^t$ -->
     <g transform="translate(718.873548 687.493438)scale(0.18 -0.18)">
      <use transform="translate(39.042969 16.59375)" xlink:href="#STIXGeneral-Regular-770"/>
      <use transform="translate(0 0.203125)" xlink:href="#STIXGeneral-Italic-116"/>
     </g>
    </g>
   </g>
   <g id="matplotlib.axis_12">
    <g id="ytick_16">
     <g id="line2d_91">
      <g>
       <use style="fill:#ffffff;stroke:#000000;stroke-width:0.8;" x="535.587097" xlink:href="#mc9ad371b62" y="619.257485"/>
      </g>
     </g>
    </g>
    <g id="ytick_17">
     <g id="line2d_92">
      <g>
       <use style="fill:#ffffff;stroke:#000000;stroke-width:0.8;" x="535.587097" xlink:href="#mc9ad371b62" y="561.772455"/>
      </g>
     </g>
    </g>
    <g id="ytick_18">
     <g id="line2d_93">
      <g>
       <use style="fill:#ffffff;stroke:#000000;stroke-width:0.8;" x="535.587097" xlink:href="#mc9ad371b62" y="504.287425"/>
      </g>
     </g>
    </g>
    <g id="text_33">
     <!-- $C_d$ -->
     <g transform="translate(520.680534 571.402455)rotate(-90)scale(0.18 -0.18)">
      <use transform="translate(0 0.40625)" xlink:href="#STIXGeneral-Italic-67"/>
      <use transform="translate(66.699997 -12.821875)scale(0.7)" xlink:href="#STIXGeneral-Italic-100"/>
     </g>
    </g>
   </g>
   <g id="line2d_94">
    <path clip-path="url(#p909d324988)" d="M 535.215484 589.177835 
L 535.95871 588.459185 
L 537.073548 587.70421 
L 538.188387 587.188694 
L 539.674839 586.759257 
L 541.904516 586.418459 
L 544.134194 586.255218 
L 549.708387 586.200239 
L 564.20129 586.223894 
L 569.403871 585.949128 
L 574.978065 585.420851 
L 580.552258 584.663811 
L 586.498065 583.631588 
L 593.55871 582.179273 
L 602.849032 580.008747 
L 616.227097 576.64249 
L 633.32129 572.401428 
L 644.84129 569.787087 
L 654.874839 567.725543 
L 665.28 565.816726 
L 676.056774 564.082913 
L 686.833548 562.581699 
L 698.353548 561.205866 
L 710.245161 560.029541 
L 722.88 558.999534 
L 735.514839 558.18433 
L 749.636129 557.497783 
L 765.615484 556.968065 
L 782.709677 556.637632 
L 802.776774 556.48817 
L 827.303226 556.561322 
L 860.005161 556.903968 
L 907.571613 557.573237 
L 907.571613 557.573237 
" style="fill:none;stroke:#1f77b4;stroke-linecap:square;stroke-width:3;"/>
   </g>
   <g id="line2d_95">
    <path clip-path="url(#p909d324988)" d="M 535.215484 574.201943 
L 535.95871 574.020222 
L 537.816774 573.930309 
L 540.789677 574.153402 
L 545.620645 574.321361 
L 548.965161 574.133349 
L 552.68129 573.54561 
L 555.282581 572.842584 
L 557.512258 572.094822 
L 560.485161 570.922607 
L 564.20129 569.196005 
L 570.147097 566.091025 
L 580.552258 560.131961 
L 587.984516 555.274157 
L 591.700645 552.494582 
L 594.673548 550.060374 
L 597.646452 547.361582 
L 600.247742 544.794915 
L 603.220645 541.590299 
L 606.193548 538.116771 
L 609.538065 533.927642 
L 618.828387 522.127423 
L 620.686452 520.210084 
L 622.544516 518.652113 
L 624.030968 517.728818 
L 625.517419 517.118071 
L 626.632258 516.864513 
L 627.747097 516.79359 
L 629.233548 516.966096 
L 630.72 517.449623 
L 631.834839 518.012055 
L 633.32129 519.024964 
L 634.807742 520.312331 
L 636.665806 522.33118 
L 638.523871 524.689338 
L 644.098065 532.137585 
L 645.584516 533.603607 
L 646.699355 534.377619 
L 647.814194 534.841321 
L 648.557419 534.970757 
L 649.300645 534.942973 
L 650.415484 534.652651 
L 651.530323 534.088621 
L 652.645161 533.29196 
L 654.131613 531.971371 
L 660.077419 526.394615 
L 661.935484 525.058372 
L 663.793548 524.029897 
L 665.651613 523.302885 
L 667.509677 522.825634 
L 669.739355 522.501855 
L 672.340645 522.387228 
L 676.428387 522.540802 
L 684.232258 522.895062 
L 687.948387 522.791557 
L 691.292903 522.413069 
L 695.009032 521.668268 
L 700.954839 520.010625 
L 709.501935 517.286692 
L 713.96129 515.941199 
L 719.163871 514.629708 
L 723.994839 513.697121 
L 728.825806 513.004435 
L 745.92 511.214901 
L 757.811613 509.706615 
L 767.845161 508.498103 
L 772.676129 508.161379 
L 777.135484 508.074719 
L 781.223226 508.217494 
L 784.196129 508.453344 
L 789.39871 509.147812 
L 794.60129 510.183408 
L 798.317419 511.109786 
L 803.891613 512.770028 
L 809.837419 514.827221 
L 818.012903 517.998913 
L 830.276129 522.824041 
L 846.255484 528.8509 
L 851.086452 531.117156 
L 854.802581 533.154711 
L 858.890323 535.657847 
L 863.349677 538.674738 
L 872.64 545.441952 
L 879.700645 550.506273 
L 885.274839 554.29195 
L 892.707097 558.997986 
L 897.538065 561.773259 
L 900.882581 563.505461 
L 905.341935 565.483239 
L 907.571613 566.325887 
L 907.571613 566.325887 
" style="fill:none;stroke:#ff7f0e;stroke-linecap:square;stroke-width:3;"/>
   </g>
   <g id="line2d_96">
    <path clip-path="url(#p909d324988)" d="M 535.587097 561.772455 
L 907.2 561.772455 
" style="fill:none;stroke:#000000;stroke-dasharray:3.2,0.8,0.5,0.8;stroke-dashoffset:0;stroke-width:0.5;"/>
   </g>
   <g id="line2d_97">
    <path clip-path="url(#p909d324988)" d="M 535.587097 648 
L 535.587097 475.54491 
" style="fill:none;stroke:#000000;stroke-linecap:square;stroke-width:0.5;"/>
   </g>
   <g id="line2d_98">
    <path clip-path="url(#p909d324988)" d="M 609.909677 648 
L 609.909677 475.54491 
" style="fill:none;stroke:#000000;stroke-dasharray:3.2,0.8,0.5,0.8;stroke-dashoffset:0;stroke-opacity:0.25;stroke-width:0.5;"/>
   </g>
   <g id="line2d_99">
    <path clip-path="url(#p909d324988)" d="M 684.232258 648 
L 684.232258 475.54491 
" style="fill:none;stroke:#000000;stroke-dasharray:3.2,0.8,0.5,0.8;stroke-dashoffset:0;stroke-opacity:0.25;stroke-width:0.5;"/>
   </g>
   <g id="line2d_100">
    <path clip-path="url(#p909d324988)" d="M 758.554839 648 
L 758.554839 475.54491 
" style="fill:none;stroke:#000000;stroke-dasharray:3.2,0.8,0.5,0.8;stroke-dashoffset:0;stroke-opacity:0.25;stroke-width:0.5;"/>
   </g>
   <g id="patch_28">
    <path d="M 535.587097 648 
L 535.587097 475.54491 
" style="fill:none;stroke:#000000;stroke-linecap:square;stroke-linejoin:miter;stroke-width:0.8;"/>
   </g>
   <g id="patch_29">
    <path d="M 907.2 648 
L 907.2 475.54491 
" style="fill:none;stroke:#000000;stroke-linecap:square;stroke-linejoin:miter;stroke-width:0.8;"/>
   </g>
   <g id="patch_30">
    <path d="M 535.587097 648 
L 907.2 648 
" style="fill:none;stroke:#000000;stroke-linecap:square;stroke-linejoin:miter;stroke-width:0.8;"/>
   </g>
   <g id="patch_31">
    <path d="M 535.587097 475.54491 
L 907.2 475.54491 
" style="fill:none;stroke:#000000;stroke-linecap:square;stroke-linejoin:miter;stroke-width:0.8;"/>
   </g>
   <g id="text_34">
    <!-- $s/c = 6.0$ -->
    <g transform="translate(925.449677 565.965893)scale(0.18 -0.18)">
     <use transform="translate(0 0.59375)" xlink:href="#STIXGeneral-Italic-115"/>
     <use transform="translate(38.899994 0.59375)" xlink:href="#STIXGeneral-Regular-47"/>
     <use transform="translate(66.699982 0.59375)" xlink:href="#STIXGeneral-Italic-99"/>
     <use transform="translate(125.539972 0.59375)" xlink:href="#STIXGeneral-Regular-61"/>
     <use transform="translate(208.479953 0.59375)" xlink:href="#STIXGeneral-Regular-54"/>
     <use transform="translate(258.479938 0.59375)" xlink:href="#STIXGeneral-Regular-46"/>
     <use transform="translate(283.479922 0.59375)" xlink:href="#STIXGeneral-Regular-48"/>
    </g>
   </g>
  </g>
 </g>
 <defs>
  <clipPath id="p563321465d">
   <rect height="172.45509" width="371.612903" x="100.8" y="72"/>
  </clipPath>
  <clipPath id="p7ba71b7573">
   <rect height="172.45509" width="371.612903" x="535.587097" y="72"/>
  </clipPath>
  <clipPath id="pe8ac9a3b45">
   <rect height="172.45509" width="371.612903" x="100.8" y="273.772455"/>
  </clipPath>
  <clipPath id="p695cc056c7">
   <rect height="172.45509" width="371.612903" x="535.587097" y="273.772455"/>
  </clipPath>
  <clipPath id="pb9f3f9e597">
   <rect height="172.45509" width="371.612903" x="100.8" y="475.54491"/>
  </clipPath>
  <clipPath id="p909d324988">
   <rect height="172.45509" width="371.612903" x="535.587097" y="475.54491"/>
  </clipPath>
 </defs>
</svg>
