<?xml version="1.0" encoding="utf-8" standalone="no"?>
<!DOCTYPE svg PUBLIC "-//W3C//DTD SVG 1.1//EN"
  "http://www.w3.org/Graphics/SVG/1.1/DTD/svg11.dtd">
<!-- Created with matplotlib (https://matplotlib.org/) -->
<svg height="720pt" version="1.1" viewBox="0 0 1080 720" width="1080pt" xmlns="http://www.w3.org/2000/svg" xmlns:xlink="http://www.w3.org/1999/xlink">
 <defs>
  <style type="text/css">
*{stroke-linecap:butt;stroke-linejoin:round;}
  </style>
 </defs>
 <g id="figure_1">
  <g id="patch_1">
   <path d="M 0 720 
L 1080 720 
L 1080 0 
L 0 0 
z
" style="fill:#ffffff;"/>
  </g>
  <g id="axes_1">
   <g id="patch_2">
    <path d="M 216 343.078341 
L 514.617512 343.078341 
L 514.617512 144 
L 216 144 
z
" style="fill:#ffffff;"/>
   </g>
   <g id="matplotlib.axis_1">
    <g id="xtick_1">
     <g id="line2d_1">
      <defs>
       <path d="M 0 0 
L 0 3.5 
" id="m3540b99b67" style="stroke:#000000;stroke-width:0.8;"/>
      </defs>
      <g>
       <use style="fill:#ffffff;stroke:#000000;stroke-width:0.8;" x="216" xlink:href="#m3540b99b67" y="343.078341"/>
      </g>
     </g>
    </g>
    <g id="xtick_2">
     <g id="line2d_2">
      <g>
       <use style="fill:#ffffff;stroke:#000000;stroke-width:0.8;" x="275.723502" xlink:href="#m3540b99b67" y="343.078341"/>
      </g>
     </g>
    </g>
    <g id="xtick_3">
     <g id="line2d_3">
      <g>
       <use style="fill:#ffffff;stroke:#000000;stroke-width:0.8;" x="335.447005" xlink:href="#m3540b99b67" y="343.078341"/>
      </g>
     </g>
    </g>
    <g id="xtick_4">
     <g id="line2d_4">
      <g>
       <use style="fill:#ffffff;stroke:#000000;stroke-width:0.8;" x="395.170507" xlink:href="#m3540b99b67" y="343.078341"/>
      </g>
     </g>
    </g>
    <g id="xtick_5">
     <g id="line2d_5">
      <g>
       <use style="fill:#ffffff;stroke:#000000;stroke-width:0.8;" x="454.894009" xlink:href="#m3540b99b67" y="343.078341"/>
      </g>
     </g>
    </g>
    <g id="xtick_6">
     <g id="line2d_6">
      <g>
       <use style="fill:#ffffff;stroke:#000000;stroke-width:0.8;" x="514.617512" xlink:href="#m3540b99b67" y="343.078341"/>
      </g>
     </g>
    </g>
   </g>
   <g id="matplotlib.axis_2">
    <g id="ytick_1">
     <g id="line2d_7">
      <defs>
       <path d="M 0 0 
L -3.5 0 
" id="m47c8909083" style="stroke:#000000;stroke-width:0.8;"/>
      </defs>
      <g>
       <use style="fill:#ffffff;stroke:#000000;stroke-width:0.8;" x="216" xlink:href="#m47c8909083" y="343.078341"/>
      </g>
     </g>
     <g id="text_1">
      <!-- −10 -->
      <defs>
       <path d="M 62.09375 22 
L 6.40625 22 
L 6.40625 28.59375 
L 62.09375 28.59375 
z
" id="STIXGeneral-Regular-8722"/>
       <path d="M 39.40625 0 
L 11.796875 0 
L 11.796875 1.5 
Q 17.296875 1.796875 19.296875 3.546875 
Q 21.296875 5.296875 21.296875 9.5 
L 21.296875 54.40625 
Q 21.296875 59.296875 18.296875 59.296875 
Q 16.90625 59.296875 13.796875 58.09375 
L 11.09375 57.09375 
L 11.09375 58.5 
L 29 67.59375 
L 29.90625 67.296875 
L 29.90625 7.59375 
Q 29.90625 4.296875 31.90625 2.890625 
Q 33.90625 1.5 39.40625 1.5 
z
" id="STIXGeneral-Regular-49"/>
       <path d="M 47.59375 33 
Q 47.59375 26.296875 46.296875 20.34375 
Q 45 14.40625 42.453125 9.40625 
Q 39.90625 4.40625 35.40625 1.5 
Q 30.90625 -1.40625 25 -1.40625 
Q 18.90625 -1.40625 14.296875 1.6875 
Q 9.703125 4.796875 7.203125 10 
Q 4.703125 15.203125 3.546875 21.09375 
Q 2.40625 27 2.40625 33.59375 
Q 2.40625 42.90625 4.703125 50.34375 
Q 7 57.796875 12.34375 62.6875 
Q 17.703125 67.59375 25.40625 67.59375 
Q 35.203125 67.59375 41.390625 58 
Q 47.59375 48.40625 47.59375 33 
z
M 38 32.5 
Q 38 48.296875 34.640625 56.640625 
Q 31.296875 65 24.796875 65 
Q 18.59375 65 15.296875 56.59375 
Q 12 48.203125 12 32.90625 
Q 12 17.5 15.296875 9.34375 
Q 18.59375 1.203125 25 1.203125 
Q 31.296875 1.203125 34.640625 9.34375 
Q 38 17.5 38 32.5 
z
" id="STIXGeneral-Regular-48"/>
      </defs>
      <g transform="translate(185.41 347.859122)scale(0.14 -0.14)">
       <use xlink:href="#STIXGeneral-Regular-8722"/>
       <use x="68.499985" xlink:href="#STIXGeneral-Regular-49"/>
       <use x="118.499969" xlink:href="#STIXGeneral-Regular-48"/>
      </g>
     </g>
    </g>
    <g id="ytick_2">
     <g id="line2d_8">
      <g>
       <use style="fill:#ffffff;stroke:#000000;stroke-width:0.8;" x="216" xlink:href="#m47c8909083" y="293.308756"/>
      </g>
     </g>
     <g id="text_2">
      <!-- −5 -->
      <defs>
       <path d="M 43.796875 68.09375 
L 40.203125 59.59375 
Q 39.59375 58.296875 37.5 58.296875 
L 18.09375 58.296875 
L 14.09375 49.796875 
Q 25.09375 47.703125 30 45.25 
Q 34.90625 42.796875 39.09375 37 
Q 42.59375 32.203125 42.59375 24.296875 
Q 42.59375 17.09375 40.25 12.1875 
Q 37.90625 7.296875 32.796875 3.5 
Q 26 -1.40625 15.796875 -1.40625 
Q 10.09375 -1.40625 6.59375 0.296875 
Q 3.09375 2 3.09375 4.796875 
Q 3.09375 8.59375 7.59375 8.59375 
Q 11.203125 8.59375 15 5.5 
Q 18.90625 2.296875 22.09375 2.296875 
Q 27.296875 2.296875 31.4375 7.5 
Q 35.59375 12.703125 35.59375 19.203125 
Q 35.59375 28.796875 28.90625 34.203125 
Q 20.203125 41.203125 7.59375 41.203125 
Q 6.40625 41.203125 6.40625 42 
L 6.5 42.5 
L 17.40625 66.203125 
L 38.09375 66.203125 
Q 39.796875 66.203125 40.75 66.703125 
Q 41.703125 67.203125 42.90625 68.796875 
z
" id="STIXGeneral-Regular-53"/>
      </defs>
      <g transform="translate(192.41 298.089537)scale(0.14 -0.14)">
       <use xlink:href="#STIXGeneral-Regular-8722"/>
       <use x="68.499985" xlink:href="#STIXGeneral-Regular-53"/>
      </g>
     </g>
    </g>
    <g id="ytick_3">
     <g id="line2d_9">
      <g>
       <use style="fill:#ffffff;stroke:#000000;stroke-width:0.8;" x="216" xlink:href="#m47c8909083" y="243.539171"/>
      </g>
     </g>
     <g id="text_3">
      <!-- 0 -->
      <g transform="translate(202 248.319952)scale(0.14 -0.14)">
       <use xlink:href="#STIXGeneral-Regular-48"/>
      </g>
     </g>
    </g>
    <g id="ytick_4">
     <g id="line2d_10">
      <g>
       <use style="fill:#ffffff;stroke:#000000;stroke-width:0.8;" x="216" xlink:href="#m47c8909083" y="193.769585"/>
      </g>
     </g>
     <g id="text_4">
      <!-- 5 -->
      <g transform="translate(202 198.550367)scale(0.14 -0.14)">
       <use xlink:href="#STIXGeneral-Regular-53"/>
      </g>
     </g>
    </g>
    <g id="ytick_5">
     <g id="line2d_11">
      <g>
       <use style="fill:#ffffff;stroke:#000000;stroke-width:0.8;" x="216" xlink:href="#m47c8909083" y="144"/>
      </g>
     </g>
     <g id="text_5">
      <!-- 10 -->
      <g transform="translate(195 148.780781)scale(0.14 -0.14)">
       <use xlink:href="#STIXGeneral-Regular-49"/>
       <use x="49.999985" xlink:href="#STIXGeneral-Regular-48"/>
      </g>
     </g>
    </g>
    <g id="text_6">
     <!-- $C_l$ -->
     <defs>
      <path d="M 68.90625 66.40625 
L 65.203125 46.40625 
L 63.40625 46.703125 
Q 61.59375 63 48.5 63 
Q 37.59375 63 28.59375 53.296875 
Q 23.296875 47.703125 20.546875 39.703125 
Q 17.796875 31.703125 17.796875 23.203125 
Q 17.796875 2.703125 35.296875 2.703125 
Q 41.5 2.703125 46.640625 5.296875 
Q 51.796875 7.90625 58.203125 14.59375 
L 60 13.09375 
Q 53.296875 5.203125 46.84375 1.703125 
Q 40.40625 -1.796875 32.703125 -1.796875 
Q 21 -1.796875 13.796875 5.140625 
Q 6.59375 12.09375 6.59375 24.296875 
Q 6.59375 34.59375 11.6875 43.9375 
Q 16.796875 53.296875 25.296875 59.296875 
Q 35.5 66.59375 47.203125 66.59375 
Q 54.09375 66.59375 58.90625 64.90625 
Q 60.90625 64.203125 63 64.203125 
Q 65.703125 64.203125 66.796875 66.40625 
z
" id="STIXGeneral-Italic-67"/>
      <path d="M 27.90625 67.796875 
L 12.59375 9.296875 
Q 11.796875 6.40625 11.796875 5 
Q 11.796875 3.203125 13.5 3.203125 
Q 16.203125 3.203125 20.203125 8.90625 
L 22.703125 12.40625 
L 24.09375 11.40625 
Q 19.59375 4.296875 16.34375 1.59375 
Q 13.09375 -1.09375 9 -1.09375 
Q 4.09375 -1.09375 4.09375 4.5 
Q 4.09375 6.203125 4.5 7.5 
L 18.203125 59.90625 
Q 18.5 60.90625 18.5 61.796875 
Q 18.5 64 13.59375 64 
L 11.796875 64 
L 11.796875 65.59375 
Q 18.796875 66.40625 27.296875 68.296875 
z
" id="STIXGeneral-Italic-108"/>
     </defs>
     <g transform="translate(178.371562 249.909171)rotate(-90)scale(0.14 -0.14)">
      <use transform="translate(0 0.40625)" xlink:href="#STIXGeneral-Italic-67"/>
      <use transform="translate(66.699997 -12.821875)scale(0.7)" xlink:href="#STIXGeneral-Italic-108"/>
     </g>
    </g>
   </g>
   <g id="line2d_12">
    <path clip-path="url(#p51607a64ba)" d="M 215.701382 263.002547 
L 216.298618 263.800731 
L 216.895853 264.23255 
L 217.493088 264.426714 
L 218.38894 264.435807 
L 220.180645 263.881898 
L 224.36129 262.081431 
L 225.257143 261.675224 
L 235.111521 257.359982 
L 247.056221 252.388025 
L 252.729954 250.31659 
L 257.507834 248.783212 
L 262.584332 247.364089 
L 268.8553 245.901406 
L 273.931797 244.990428 
L 278.709677 244.329078 
L 284.980645 243.686634 
L 291.251613 243.277258 
L 297.821198 243.069751 
L 305.883871 243.009418 
L 325.294009 243.427317 
L 385.316129 245.240989 
L 408.906912 245.600208 
L 455.789862 245.898486 
L 507.152074 245.931333 
L 514.916129 245.923794 
L 514.916129 245.923794 
" style="fill:none;stroke:#1f77b4;stroke-linecap:square;stroke-width:3;"/>
   </g>
   <g id="line2d_13">
    <path clip-path="url(#p51607a64ba)" d="M 215.701382 239.14986 
L 216.597235 239.40063 
L 217.493088 239.392308 
L 218.687558 239.186155 
L 220.77788 238.541072 
L 229.736406 235.451756 
L 234.215668 234.313583 
L 237.500461 233.673911 
L 242.278341 233.045395 
L 246.160369 232.751396 
L 250.042396 232.658077 
L 254.521659 232.777903 
L 259.896774 233.152573 
L 265.869124 233.789009 
L 273.334562 234.786119 
L 292.446083 237.508173 
L 303.793548 238.899188 
L 315.439631 240.065263 
L 326.488479 240.944174 
L 338.134562 241.671559 
L 353.96129 242.409267 
L 370.683871 242.964565 
L 388.600922 243.39095 
L 416.969585 243.847336 
L 455.789862 244.224534 
L 508.645161 244.500288 
L 514.916129 244.521695 
L 514.916129 244.521695 
" style="fill:none;stroke:#ff7f0e;stroke-linecap:square;stroke-width:3;"/>
   </g>
   <g id="line2d_14">
    <path clip-path="url(#p51607a64ba)" d="M 215.701382 250.329936 
L 216.895853 250.933958 
L 218.687558 251.556338 
L 221.076498 252.096324 
L 224.062673 252.551729 
L 227.646083 252.877642 
L 231.528111 252.990369 
L 235.111521 252.901494 
L 239.292166 252.585309 
L 243.771429 252.020351 
L 251.236866 250.811905 
L 259.598157 249.513058 
L 267.362212 248.548024 
L 283.18894 246.866664 
L 299.911521 245.274645 
L 312.154839 244.366258 
L 324.099539 243.707067 
L 337.537327 243.189074 
L 353.364055 242.806328 
L 373.371429 242.5505 
L 402.934562 242.406261 
L 458.477419 242.393405 
L 514.916129 242.462432 
L 514.916129 242.462432 
" style="fill:none;stroke:#2ca02c;stroke-linecap:square;stroke-width:3;"/>
   </g>
   <g id="line2d_15">
    <path clip-path="url(#p51607a64ba)" d="M 216 243.539171 
L 514.617512 243.539171 
" style="fill:none;stroke:#000000;stroke-dasharray:3.2,0.8,0.5,0.8;stroke-dashoffset:0;stroke-width:0.5;"/>
   </g>
   <g id="line2d_16">
    <path clip-path="url(#p51607a64ba)" d="M 216 343.078341 
L 216 144 
" style="fill:none;stroke:#000000;stroke-linecap:square;stroke-width:0.5;"/>
   </g>
   <g id="line2d_17">
    <path clip-path="url(#p51607a64ba)" d="M 275.723502 343.078341 
L 275.723502 144 
" style="fill:none;stroke:#000000;stroke-dasharray:3.2,0.8,0.5,0.8;stroke-dashoffset:0;stroke-opacity:0.25;stroke-width:0.5;"/>
   </g>
   <g id="line2d_18">
    <path clip-path="url(#p51607a64ba)" d="M 335.447005 343.078341 
L 335.447005 144 
" style="fill:none;stroke:#000000;stroke-dasharray:3.2,0.8,0.5,0.8;stroke-dashoffset:0;stroke-opacity:0.25;stroke-width:0.5;"/>
   </g>
   <g id="patch_3">
    <path d="M 216 343.078341 
L 216 144 
" style="fill:none;stroke:#000000;stroke-linecap:square;stroke-linejoin:miter;stroke-width:0.8;"/>
   </g>
   <g id="patch_4">
    <path d="M 514.617512 343.078341 
L 514.617512 144 
" style="fill:none;stroke:#000000;stroke-linecap:square;stroke-linejoin:miter;stroke-width:0.8;"/>
   </g>
   <g id="patch_5">
    <path d="M 216 343.078341 
L 514.617512 343.078341 
" style="fill:none;stroke:#000000;stroke-linecap:square;stroke-linejoin:miter;stroke-width:0.8;"/>
   </g>
   <g id="patch_6">
    <path d="M 216 144 
L 514.617512 144 
" style="fill:none;stroke:#000000;stroke-linecap:square;stroke-linejoin:miter;stroke-width:0.8;"/>
   </g>
  </g>
  <g id="axes_2">
   <g id="patch_7">
    <path d="M 565.382488 343.078341 
L 864 343.078341 
L 864 144 
L 565.382488 144 
z
" style="fill:#ffffff;"/>
   </g>
   <g id="matplotlib.axis_3">
    <g id="xtick_7">
     <g id="line2d_19">
      <g>
       <use style="fill:#ffffff;stroke:#000000;stroke-width:0.8;" x="565.382488" xlink:href="#m3540b99b67" y="343.078341"/>
      </g>
     </g>
    </g>
    <g id="xtick_8">
     <g id="line2d_20">
      <g>
       <use style="fill:#ffffff;stroke:#000000;stroke-width:0.8;" x="625.105991" xlink:href="#m3540b99b67" y="343.078341"/>
      </g>
     </g>
    </g>
    <g id="xtick_9">
     <g id="line2d_21">
      <g>
       <use style="fill:#ffffff;stroke:#000000;stroke-width:0.8;" x="684.829493" xlink:href="#m3540b99b67" y="343.078341"/>
      </g>
     </g>
    </g>
    <g id="xtick_10">
     <g id="line2d_22">
      <g>
       <use style="fill:#ffffff;stroke:#000000;stroke-width:0.8;" x="744.552995" xlink:href="#m3540b99b67" y="343.078341"/>
      </g>
     </g>
    </g>
    <g id="xtick_11">
     <g id="line2d_23">
      <g>
       <use style="fill:#ffffff;stroke:#000000;stroke-width:0.8;" x="804.276498" xlink:href="#m3540b99b67" y="343.078341"/>
      </g>
     </g>
    </g>
    <g id="xtick_12">
     <g id="line2d_24">
      <g>
       <use style="fill:#ffffff;stroke:#000000;stroke-width:0.8;" x="864" xlink:href="#m3540b99b67" y="343.078341"/>
      </g>
     </g>
    </g>
   </g>
   <g id="matplotlib.axis_4">
    <g id="ytick_6">
     <g id="line2d_25">
      <g>
       <use style="fill:#ffffff;stroke:#000000;stroke-width:0.8;" x="565.382488" xlink:href="#m47c8909083" y="343.078341"/>
      </g>
     </g>
    </g>
    <g id="ytick_7">
     <g id="line2d_26">
      <g>
       <use style="fill:#ffffff;stroke:#000000;stroke-width:0.8;" x="565.382488" xlink:href="#m47c8909083" y="293.308756"/>
      </g>
     </g>
    </g>
    <g id="ytick_8">
     <g id="line2d_27">
      <g>
       <use style="fill:#ffffff;stroke:#000000;stroke-width:0.8;" x="565.382488" xlink:href="#m47c8909083" y="243.539171"/>
      </g>
     </g>
    </g>
    <g id="ytick_9">
     <g id="line2d_28">
      <g>
       <use style="fill:#ffffff;stroke:#000000;stroke-width:0.8;" x="565.382488" xlink:href="#m47c8909083" y="193.769585"/>
      </g>
     </g>
    </g>
    <g id="ytick_10">
     <g id="line2d_29">
      <g>
       <use style="fill:#ffffff;stroke:#000000;stroke-width:0.8;" x="565.382488" xlink:href="#m47c8909083" y="144"/>
      </g>
     </g>
    </g>
    <g id="text_7">
     <!-- $C_d$ -->
     <defs>
      <path d="M 52.09375 68.296875 
L 52.703125 67.703125 
L 48.796875 52.5 
L 42.796875 30.59375 
Q 36.296875 6.703125 36.296875 6 
Q 36.296875 4 38.09375 4 
Q 39.40625 4 40.84375 5.25 
Q 42.296875 6.5 46.296875 11.09375 
L 47.5 10.09375 
Q 39.796875 -1.296875 32.796875 -1.296875 
Q 30.90625 -1.296875 29.796875 -0.09375 
Q 28.703125 1.09375 28.703125 3.203125 
Q 28.703125 6.203125 30 12.09375 
Q 25.703125 4.796875 21.546875 1.84375 
Q 17.40625 -1.09375 12.203125 -1.09375 
Q 7.203125 -1.09375 4.34375 1.953125 
Q 1.5 5 1.5 10.59375 
Q 1.5 22.5 11.140625 33.296875 
Q 20.796875 44.09375 30.703125 44.09375 
Q 33.796875 44.09375 35.25 42.6875 
Q 36.703125 41.296875 37.203125 38.296875 
L 37.296875 38.296875 
L 41.796875 54.59375 
Q 43.203125 59.5 43.203125 61.703125 
Q 43.203125 63.296875 42.09375 63.6875 
Q 41 64.09375 36.796875 64.296875 
L 36.796875 66 
Q 44.5 66.703125 52.09375 68.296875 
z
M 35.59375 36.09375 
Q 35.59375 38.703125 34.140625 40.25 
Q 32.703125 41.796875 30.90625 41.796875 
Q 26.203125 41.796875 21.796875 37.203125 
Q 16.796875 31.90625 13.5 24.546875 
Q 10.203125 17.203125 10.203125 11 
Q 10.203125 7.59375 11.75 5.640625 
Q 13.296875 3.703125 16 3.703125 
Q 20.5 3.703125 25.09375 8.59375 
Q 29.703125 13.5 32.640625 21.09375 
Q 35.59375 28.703125 35.59375 36.09375 
z
" id="STIXGeneral-Italic-100"/>
     </defs>
     <g transform="translate(551.344051 251.029171)rotate(-90)scale(0.14 -0.14)">
      <use transform="translate(0 0.40625)" xlink:href="#STIXGeneral-Italic-67"/>
      <use transform="translate(66.699997 -12.821875)scale(0.7)" xlink:href="#STIXGeneral-Italic-100"/>
     </g>
    </g>
   </g>
   <g id="line2d_30">
    <path clip-path="url(#peaf6bfef99)" d="M 565.083871 248.548338 
L 565.979724 246.865163 
L 566.875576 245.899523 
L 567.771429 245.329222 
L 569.264516 244.895529 
L 571.952074 244.730262 
L 572.847926 244.745422 
L 576.431336 245.004721 
L 580.611982 245.629199 
L 585.987097 246.728535 
L 590.466359 247.704114 
L 594.945622 248.610402 
L 600.917972 249.618078 
L 605.098618 250.137362 
L 610.175115 250.538093 
L 614.952995 250.717758 
L 620.925346 250.647397 
L 628.988018 250.135176 
L 636.752074 249.378225 
L 675.870968 244.728637 
L 692.892166 243.208066 
L 716.781567 241.777852 
L 742.76129 240.898719 
L 774.414747 240.409552 
L 809.95023 240.245031 
L 864.298618 240.326415 
L 864.298618 240.326415 
" style="fill:none;stroke:#1f77b4;stroke-linecap:square;stroke-width:3;"/>
   </g>
   <g id="line2d_31">
    <path clip-path="url(#peaf6bfef99)" d="M 565.083871 260.38152 
L 565.979724 259.987731 
L 566.875576 259.859009 
L 568.070046 259.894554 
L 570.160369 260.26245 
L 578.521659 262.054579 
L 583.000922 262.524352 
L 586.285714 262.601993 
L 589.271889 262.490806 
L 593.153917 262.116925 
L 597.035945 261.521127 
L 601.515207 260.594048 
L 607.18894 259.172413 
L 617.341935 256.354416 
L 625.703226 254.062195 
L 635.557604 251.648909 
L 642.425806 250.188147 
L 650.787097 248.683034 
L 658.551152 247.525956 
L 666.912442 246.50516 
L 676.169585 245.600474 
L 685.725346 244.865577 
L 698.565899 244.116578 
L 713.198157 243.501333 
L 731.115207 242.978197 
L 750.226728 242.595322 
L 780.088479 242.20913 
L 821.894931 241.916415 
L 864.298618 241.780297 
L 864.298618 241.780297 
" style="fill:none;stroke:#ff7f0e;stroke-linecap:square;stroke-width:3;"/>
   </g>
   <g id="line2d_32">
    <path clip-path="url(#peaf6bfef99)" d="M 565.083871 239.551201 
L 566.278341 238.806838 
L 568.070046 238.003718 
L 570.160369 237.35085 
L 572.847926 236.754162 
L 576.132719 236.283492 
L 579.118894 236.080274 
L 582.403687 236.065937 
L 585.688479 236.263754 
L 589.271889 236.695167 
L 593.452535 237.446558 
L 600.02212 238.905595 
L 606.890323 240.380132 
L 612.564055 241.367905 
L 619.432258 242.320297 
L 630.182488 243.558892 
L 640.335484 244.540655 
L 649.891244 245.24144 
L 659.148387 245.690301 
L 669.301382 245.951789 
L 682.141935 246.032326 
L 698.864516 245.894634 
L 799.2 244.693348 
L 856.534562 244.436066 
L 864.298618 244.412313 
L 864.298618 244.412313 
" style="fill:none;stroke:#2ca02c;stroke-linecap:square;stroke-width:3;"/>
   </g>
   <g id="line2d_33">
    <path clip-path="url(#peaf6bfef99)" d="M 565.382488 243.539171 
L 864 243.539171 
" style="fill:none;stroke:#000000;stroke-dasharray:3.2,0.8,0.5,0.8;stroke-dashoffset:0;stroke-width:0.5;"/>
   </g>
   <g id="line2d_34">
    <path clip-path="url(#peaf6bfef99)" d="M 565.382488 343.078341 
L 565.382488 144 
" style="fill:none;stroke:#000000;stroke-linecap:square;stroke-width:0.5;"/>
   </g>
   <g id="line2d_35">
    <path clip-path="url(#peaf6bfef99)" d="M 625.105991 343.078341 
L 625.105991 144 
" style="fill:none;stroke:#000000;stroke-dasharray:3.2,0.8,0.5,0.8;stroke-dashoffset:0;stroke-opacity:0.25;stroke-width:0.5;"/>
   </g>
   <g id="line2d_36">
    <path clip-path="url(#peaf6bfef99)" d="M 684.829493 343.078341 
L 684.829493 144 
" style="fill:none;stroke:#000000;stroke-dasharray:3.2,0.8,0.5,0.8;stroke-dashoffset:0;stroke-opacity:0.25;stroke-width:0.5;"/>
   </g>
   <g id="patch_8">
    <path d="M 565.382488 343.078341 
L 565.382488 144 
" style="fill:none;stroke:#000000;stroke-linecap:square;stroke-linejoin:miter;stroke-width:0.8;"/>
   </g>
   <g id="patch_9">
    <path d="M 864 343.078341 
L 864 144 
" style="fill:none;stroke:#000000;stroke-linecap:square;stroke-linejoin:miter;stroke-width:0.8;"/>
   </g>
   <g id="patch_10">
    <path d="M 565.382488 343.078341 
L 864 343.078341 
" style="fill:none;stroke:#000000;stroke-linecap:square;stroke-linejoin:miter;stroke-width:0.8;"/>
   </g>
   <g id="patch_11">
    <path d="M 565.382488 144 
L 864 144 
" style="fill:none;stroke:#000000;stroke-linecap:square;stroke-linejoin:miter;stroke-width:0.8;"/>
   </g>
   <g id="text_8">
    <!-- $Re = 10^2$ -->
    <defs>
     <path d="M 13.203125 65.296875 
L 38.40625 65.296875 
Q 48.09375 65.296875 53.4375 61.5 
Q 58.796875 57.703125 58.796875 51.203125 
Q 58.796875 43.40625 52.203125 38.40625 
Q 48.296875 35.40625 39.09375 33.296875 
L 48 9.796875 
Q 49.703125 5.203125 51.546875 3.390625 
Q 53.40625 1.59375 56.703125 1.59375 
L 56.703125 0 
L 42 0 
L 29.703125 32.40625 
L 23.09375 32.90625 
L 17.59375 12.59375 
Q 16.296875 8 16.296875 6.296875 
Q 16.296875 4 17.59375 3 
Q 18.90625 2 23 1.59375 
L 23 0 
L -1.296875 0 
L -1.296875 1.59375 
Q 2.703125 2.09375 4.34375 3.796875 
Q 6 5.5 7.203125 10.09375 
L 19.09375 53.203125 
Q 20.296875 57.796875 20.296875 59.5 
Q 20.296875 61.296875 18.90625 62.296875 
Q 17.703125 63.09375 13.203125 63.703125 
z
M 30.59375 59.296875 
L 24.296875 36.59375 
Q 27.40625 36.09375 29.40625 36.09375 
Q 38.296875 36.09375 43.296875 40.09375 
Q 48.296875 44.09375 48.296875 51.09375 
Q 48.296875 56.296875 45.1875 59.296875 
Q 42.09375 62.296875 36.296875 62.296875 
Q 31.40625 62.296875 30.59375 59.296875 
z
" id="STIXGeneral-Italic-82"/>
     <path d="M 35.796875 10.90625 
L 37 9.703125 
Q 28.203125 -1.09375 16.59375 -1.09375 
Q 10.5 -1.09375 6.796875 2.65625 
Q 3.09375 6.40625 3.09375 12.59375 
Q 3.09375 24.296875 12.4375 34.1875 
Q 21.796875 44.09375 33 44.09375 
Q 36.90625 44.09375 39.046875 42.296875 
Q 41.203125 40.5 41.203125 37.296875 
Q 41.203125 30.703125 33.546875 25.5 
Q 25.90625 20.296875 12.796875 18.59375 
Q 11.796875 16.59375 11.796875 12.5 
Q 11.796875 8.40625 14.34375 5.90625 
Q 16.90625 3.40625 21.09375 3.40625 
Q 24.40625 3.40625 27.40625 4.953125 
Q 30.40625 6.5 35.796875 10.90625 
z
M 15.203125 25.203125 
L 13.5 20.796875 
Q 24.703125 23.5 29.59375 28.203125 
Q 34.59375 33 34.59375 37.90625 
Q 34.59375 41.796875 31.09375 41.796875 
Q 26.90625 41.796875 22.34375 36.9375 
Q 17.796875 32.09375 15.203125 25.203125 
z
" id="STIXGeneral-Italic-101"/>
     <path d="M 63.703125 32 
L 4.796875 32 
L 4.796875 38.59375 
L 63.703125 38.59375 
z
M 63.703125 12 
L 4.796875 12 
L 4.796875 18.59375 
L 63.703125 18.59375 
z
" id="STIXGeneral-Regular-61"/>
     <path d="M 47.40625 13.703125 
L 42 0 
L 2.90625 0 
L 2.90625 1.203125 
L 20.703125 20.09375 
Q 27.703125 27.40625 30.703125 33.5 
Q 33.703125 39.59375 33.703125 46.09375 
Q 33.703125 52.796875 30 56.5 
Q 26.296875 60.203125 19.796875 60.203125 
Q 14.40625 60.203125 11.25 57.390625 
Q 8.09375 54.59375 5.09375 47.203125 
L 3 47.703125 
Q 4.703125 57 9.84375 62.296875 
Q 15 67.59375 23.796875 67.59375 
Q 32.09375 67.59375 37.1875 62.59375 
Q 42.296875 57.59375 42.296875 50 
Q 42.296875 38.703125 29.5 25.203125 
L 13 7.59375 
L 36.40625 7.59375 
Q 39.703125 7.59375 41.640625 8.890625 
Q 43.59375 10.203125 46 14.296875 
z
" id="STIXGeneral-Regular-50"/>
    </defs>
    <g transform="translate(875.754101 246.800733)scale(0.14 -0.14)">
     <use transform="translate(0 0.409375)" xlink:href="#STIXGeneral-Italic-82"/>
     <use transform="translate(61.099991 0.409375)" xlink:href="#STIXGeneral-Italic-101"/>
     <use transform="translate(119.939981 0.409375)" xlink:href="#STIXGeneral-Regular-61"/>
     <use transform="translate(202.879962 0.409375)" xlink:href="#STIXGeneral-Regular-49"/>
     <use transform="translate(252.879947 0.409375)" xlink:href="#STIXGeneral-Regular-48"/>
     <use transform="translate(304.423213 35.684375)scale(0.7)" xlink:href="#STIXGeneral-Regular-50"/>
    </g>
   </g>
   <g id="legend_1">
    <g id="line2d_37">
     <path d="M 419.720593 122.743399 
L 443.044593 122.743399 
" style="fill:none;stroke:#1f77b4;stroke-linecap:square;stroke-width:3;"/>
    </g>
    <g id="line2d_38"/>
    <g id="text_9">
     <!-- $s/c = 1.5$ -->
     <defs>
      <path d="M 36.59375 44.203125 
L 34.59375 30.203125 
L 33 30.203125 
Q 31.59375 41.796875 24.09375 41.796875 
Q 21.40625 41.796875 19.796875 40.296875 
Q 18.203125 38.796875 18.203125 36.09375 
Q 18.203125 32.296875 23.59375 25.90625 
Q 30.40625 18 30.40625 12.296875 
Q 30.40625 6.203125 26.34375 2.546875 
Q 22.296875 -1.09375 16 -1.09375 
Q 13.09375 -1.09375 10.5 -0.09375 
Q 8.40625 0.796875 6.09375 0.796875 
Q 4.09375 0.796875 3.203125 -1.296875 
L 1.59375 -1.296875 
L 3.59375 14.59375 
L 5.203125 14.59375 
Q 7.203125 1 15.203125 1 
Q 18.796875 1 20.796875 3 
Q 22.796875 5 22.796875 8.703125 
Q 22.796875 13.203125 17.203125 20.203125 
Q 10.90625 28.09375 10.90625 33.296875 
Q 10.90625 38.296875 14.203125 41.1875 
Q 17.5 44.09375 23 44.09375 
Q 25 44.09375 28.59375 43.09375 
Q 30.796875 42.40625 32.203125 42.40625 
Q 34.203125 42.40625 35.203125 44.203125 
z
" id="STIXGeneral-Italic-115"/>
      <path d="M 28.703125 67.59375 
L 5.90625 -1.40625 
L -0.90625 -1.40625 
L 22 67.59375 
z
" id="STIXGeneral-Regular-47"/>
      <path d="M 35 10.703125 
L 36.59375 9.703125 
Q 32 3.90625 27.640625 1.40625 
Q 23.296875 -1.09375 17.703125 -1.09375 
Q 10.59375 -1.09375 6.796875 2.796875 
Q 3 6.703125 3 14.296875 
Q 3 21 6.390625 27.25 
Q 9.796875 33.5 15.296875 38 
Q 23 44.09375 32 44.09375 
Q 36.59375 44.09375 39.546875 41.796875 
Q 42.5 39.5 42.5 36 
Q 42.5 34 41.09375 32.59375 
Q 39.703125 31.203125 37.703125 31.203125 
Q 35.703125 31.203125 34.75 32.34375 
Q 33.796875 33.5 33.796875 35.203125 
Q 33.796875 36.09375 34.546875 37.546875 
Q 35.296875 39 35.296875 40 
Q 35.296875 42 31.59375 42 
Q 25.296875 42 20.703125 37.203125 
Q 11.59375 27.59375 11.59375 13.90625 
Q 11.59375 8.5 13.890625 5.5 
Q 16.203125 2.5 20.5 2.5 
Q 24.40625 2.5 27.59375 4.390625 
Q 30.796875 6.296875 35 10.703125 
z
" id="STIXGeneral-Italic-99"/>
      <path d="M 18.09375 4.296875 
Q 18.09375 2.09375 16.4375 0.5 
Q 14.796875 -1.09375 12.5 -1.09375 
Q 10.203125 -1.09375 8.59375 0.5 
Q 7 2.09375 7 4.390625 
Q 7 6.703125 8.640625 8.34375 
Q 10.296875 10 12.59375 10 
Q 14.796875 10 16.4375 8.296875 
Q 18.09375 6.59375 18.09375 4.296875 
z
" id="STIXGeneral-Regular-46"/>
     </defs>
     <g transform="translate(452.374193 126.825099)scale(0.11662 -0.11662)">
      <use transform="translate(0 0.203125)" xlink:href="#STIXGeneral-Italic-115"/>
      <use transform="translate(38.899994 0.203125)" xlink:href="#STIXGeneral-Regular-47"/>
      <use transform="translate(66.699982 0.203125)" xlink:href="#STIXGeneral-Italic-99"/>
      <use transform="translate(125.539972 0.203125)" xlink:href="#STIXGeneral-Regular-61"/>
      <use transform="translate(208.479953 0.203125)" xlink:href="#STIXGeneral-Regular-49"/>
      <use transform="translate(258.479938 0.203125)" xlink:href="#STIXGeneral-Regular-46"/>
      <use transform="translate(283.479922 0.203125)" xlink:href="#STIXGeneral-Regular-53"/>
     </g>
    </g>
    <g id="line2d_39">
     <path d="M 514.649273 122.743399 
L 537.973273 122.743399 
" style="fill:none;stroke:#ff7f0e;stroke-linecap:square;stroke-width:3;"/>
    </g>
    <g id="line2d_40"/>
    <g id="text_10">
     <!-- $s/c = 3.0$ -->
     <defs>
      <path d="M 6.09375 51 
L 4.5 51.40625 
Q 6.796875 58.90625 11.6875 63.25 
Q 16.59375 67.59375 24.09375 67.59375 
Q 31.09375 67.59375 35.390625 63.796875 
Q 39.703125 60 39.703125 53.90625 
Q 39.703125 45.703125 30.40625 40.09375 
Q 35.90625 37.703125 38.703125 34.796875 
Q 43.09375 29.90625 43.09375 21.90625 
Q 43.09375 13.90625 38.5 7.90625 
Q 35.09375 3.296875 28.75 0.9375 
Q 22.40625 -1.40625 15.296875 -1.40625 
Q 4.09375 -1.40625 4.09375 4.296875 
Q 4.09375 5.90625 5.296875 6.90625 
Q 6.5 7.90625 8.203125 7.90625 
Q 10.703125 7.90625 14.296875 5.296875 
Q 18.703125 2.203125 22.90625 2.203125 
Q 28.40625 2.203125 32.15625 6.640625 
Q 35.90625 11.09375 35.90625 17.5 
Q 35.90625 29 25.5 32 
Q 22.40625 33 15.296875 33 
L 15.296875 34.40625 
Q 20.90625 36.296875 23.703125 38 
Q 31.796875 42.59375 31.796875 51.40625 
Q 31.796875 56.40625 28.9375 59 
Q 26.09375 61.59375 21 61.59375 
Q 12 61.59375 6.09375 51 
z
" id="STIXGeneral-Regular-51"/>
     </defs>
     <g transform="translate(547.302873 126.825099)scale(0.11662 -0.11662)">
      <use transform="translate(0 0.40625)" xlink:href="#STIXGeneral-Italic-115"/>
      <use transform="translate(38.899994 0.40625)" xlink:href="#STIXGeneral-Regular-47"/>
      <use transform="translate(66.699982 0.40625)" xlink:href="#STIXGeneral-Italic-99"/>
      <use transform="translate(125.539972 0.40625)" xlink:href="#STIXGeneral-Regular-61"/>
      <use transform="translate(208.479953 0.40625)" xlink:href="#STIXGeneral-Regular-51"/>
      <use transform="translate(258.479938 0.40625)" xlink:href="#STIXGeneral-Regular-46"/>
      <use transform="translate(283.479922 0.40625)" xlink:href="#STIXGeneral-Regular-48"/>
     </g>
    </g>
    <g id="line2d_41">
     <path d="M 609.577953 122.743399 
L 632.901953 122.743399 
" style="fill:none;stroke:#2ca02c;stroke-linecap:square;stroke-width:3;"/>
    </g>
    <g id="line2d_42"/>
    <g id="text_11">
     <!-- $s/c = 6.0$ -->
     <defs>
      <path d="M 44.59375 68.40625 
L 44.796875 66.796875 
Q 33 64.90625 25.09375 57.25 
Q 17.203125 49.59375 15.203125 38.296875 
Q 21 42.796875 27.90625 42.796875 
Q 36.703125 42.796875 41.75 37.1875 
Q 46.796875 31.59375 46.796875 21.90625 
Q 46.796875 12.09375 41.703125 5.90625 
Q 35.796875 -1.40625 25.796875 -1.40625 
Q 13.59375 -1.40625 8.09375 8.703125 
Q 3.40625 17.296875 3.40625 27.90625 
Q 3.40625 44.296875 14.296875 55.5 
Q 20.5 61.90625 27.046875 64.546875 
Q 33.59375 67.203125 44.59375 68.40625 
z
M 37.796875 18.796875 
Q 37.796875 38.203125 24.296875 38.203125 
Q 19.296875 38.203125 16 35.546875 
Q 12.703125 32.90625 12.703125 26.59375 
Q 12.703125 14.90625 16.34375 8.15625 
Q 20 1.40625 26.90625 1.40625 
Q 32.203125 1.40625 35 6.15625 
Q 37.796875 10.90625 37.796875 18.796875 
z
" id="STIXGeneral-Regular-54"/>
     </defs>
     <g transform="translate(642.231553 126.825099)scale(0.11662 -0.11662)">
      <use transform="translate(0 0.59375)" xlink:href="#STIXGeneral-Italic-115"/>
      <use transform="translate(38.899994 0.59375)" xlink:href="#STIXGeneral-Regular-47"/>
      <use transform="translate(66.699982 0.59375)" xlink:href="#STIXGeneral-Italic-99"/>
      <use transform="translate(125.539972 0.59375)" xlink:href="#STIXGeneral-Regular-61"/>
      <use transform="translate(208.479953 0.59375)" xlink:href="#STIXGeneral-Regular-54"/>
      <use transform="translate(258.479938 0.59375)" xlink:href="#STIXGeneral-Regular-46"/>
      <use transform="translate(283.479922 0.59375)" xlink:href="#STIXGeneral-Regular-48"/>
     </g>
    </g>
   </g>
  </g>
  <g id="axes_3">
   <g id="patch_12">
    <path d="M 216 576 
L 514.617512 576 
L 514.617512 376.921659 
L 216 376.921659 
z
" style="fill:#ffffff;"/>
   </g>
   <g id="matplotlib.axis_5">
    <g id="xtick_13">
     <g id="line2d_43">
      <g>
       <use style="fill:#ffffff;stroke:#000000;stroke-width:0.8;" x="216" xlink:href="#m3540b99b67" y="576"/>
      </g>
     </g>
     <g id="text_12">
      <!-- 1.0 -->
      <g transform="translate(207.25 592.561563)scale(0.14 -0.14)">
       <use xlink:href="#STIXGeneral-Regular-49"/>
       <use x="49.999985" xlink:href="#STIXGeneral-Regular-46"/>
       <use x="74.999969" xlink:href="#STIXGeneral-Regular-48"/>
      </g>
     </g>
    </g>
    <g id="xtick_14">
     <g id="line2d_44">
      <g>
       <use style="fill:#ffffff;stroke:#000000;stroke-width:0.8;" x="275.723502" xlink:href="#m3540b99b67" y="576"/>
      </g>
     </g>
     <g id="text_13">
      <!-- 1.2 -->
      <g transform="translate(266.973502 592.561563)scale(0.14 -0.14)">
       <use xlink:href="#STIXGeneral-Regular-49"/>
       <use x="49.999985" xlink:href="#STIXGeneral-Regular-46"/>
       <use x="74.999969" xlink:href="#STIXGeneral-Regular-50"/>
      </g>
     </g>
    </g>
    <g id="xtick_15">
     <g id="line2d_45">
      <g>
       <use style="fill:#ffffff;stroke:#000000;stroke-width:0.8;" x="335.447005" xlink:href="#m3540b99b67" y="576"/>
      </g>
     </g>
     <g id="text_14">
      <!-- 1.4 -->
      <defs>
       <path d="M 47.296875 16.703125 
L 37 16.703125 
L 37 0 
L 29.203125 0 
L 29.203125 16.703125 
L 1.203125 16.703125 
L 1.203125 23.09375 
L 32.59375 67.59375 
L 37 67.59375 
L 37 23.09375 
L 47.296875 23.09375 
z
M 29.203125 23.09375 
L 29.203125 57.40625 
L 5.203125 23.09375 
z
" id="STIXGeneral-Regular-52"/>
      </defs>
      <g transform="translate(326.697005 592.561563)scale(0.14 -0.14)">
       <use xlink:href="#STIXGeneral-Regular-49"/>
       <use x="49.999985" xlink:href="#STIXGeneral-Regular-46"/>
       <use x="74.999969" xlink:href="#STIXGeneral-Regular-52"/>
      </g>
     </g>
    </g>
    <g id="xtick_16">
     <g id="line2d_46">
      <g>
       <use style="fill:#ffffff;stroke:#000000;stroke-width:0.8;" x="395.170507" xlink:href="#m3540b99b67" y="576"/>
      </g>
     </g>
     <g id="text_15">
      <!-- 1.6 -->
      <g transform="translate(386.420507 592.561563)scale(0.14 -0.14)">
       <use xlink:href="#STIXGeneral-Regular-49"/>
       <use x="49.999985" xlink:href="#STIXGeneral-Regular-46"/>
       <use x="74.999969" xlink:href="#STIXGeneral-Regular-54"/>
      </g>
     </g>
    </g>
    <g id="xtick_17">
     <g id="line2d_47">
      <g>
       <use style="fill:#ffffff;stroke:#000000;stroke-width:0.8;" x="454.894009" xlink:href="#m3540b99b67" y="576"/>
      </g>
     </g>
     <g id="text_16">
      <!-- 1.8 -->
      <defs>
       <path d="M 44.5 15.5 
Q 44.5 7.796875 39.140625 3.1875 
Q 33.796875 -1.40625 24.796875 -1.40625 
Q 16.40625 -1.40625 11 3.1875 
Q 5.59375 7.796875 5.59375 14.90625 
Q 5.59375 20.203125 8.1875 23.953125 
Q 10.796875 27.703125 18.59375 33.203125 
Q 11.09375 39.40625 8.640625 43.203125 
Q 6.203125 47 6.203125 52 
Q 6.203125 59.09375 11.640625 63.34375 
Q 17.09375 67.59375 25.59375 67.59375 
Q 32.90625 67.59375 37.65625 63.4375 
Q 42.40625 59.296875 42.40625 53.296875 
Q 42.40625 47.796875 39.546875 44.5 
Q 36.703125 41.203125 29 37.09375 
Q 38 31.09375 41.25 26.390625 
Q 44.5 21.703125 44.5 15.5 
z
M 35.5 53.296875 
Q 35.5 58.5 32.59375 61.640625 
Q 29.703125 64.796875 24.59375 64.796875 
Q 19.5 64.796875 16.546875 62.140625 
Q 13.59375 59.5 13.59375 54.890625 
Q 13.59375 50.296875 16.546875 46.546875 
Q 19.5 42.796875 26.09375 38.90625 
Q 31.203125 41.90625 33.34375 45.25 
Q 35.5 48.59375 35.5 53.296875 
z
M 27.09375 27.203125 
L 21.203125 31.203125 
Q 16.796875 27.59375 15 24.140625 
Q 13.203125 20.703125 13.203125 15.796875 
Q 13.203125 9 16.640625 5.203125 
Q 20.09375 1.40625 25.90625 1.40625 
Q 30.796875 1.40625 33.84375 4.453125 
Q 36.90625 7.5 36.90625 12.40625 
Q 36.90625 16.90625 34.59375 20.296875 
Q 32.296875 23.703125 27.09375 27.203125 
z
" id="STIXGeneral-Regular-56"/>
      </defs>
      <g transform="translate(446.144009 592.561563)scale(0.14 -0.14)">
       <use xlink:href="#STIXGeneral-Regular-49"/>
       <use x="49.999985" xlink:href="#STIXGeneral-Regular-46"/>
       <use x="74.999969" xlink:href="#STIXGeneral-Regular-56"/>
      </g>
     </g>
    </g>
    <g id="xtick_18">
     <g id="line2d_48">
      <g>
       <use style="fill:#ffffff;stroke:#000000;stroke-width:0.8;" x="514.617512" xlink:href="#m3540b99b67" y="576"/>
      </g>
     </g>
     <g id="text_17">
      <!-- 2.0 -->
      <g transform="translate(505.867512 592.561563)scale(0.14 -0.14)">
       <use xlink:href="#STIXGeneral-Regular-50"/>
       <use x="49.999985" xlink:href="#STIXGeneral-Regular-46"/>
       <use x="74.999969" xlink:href="#STIXGeneral-Regular-48"/>
      </g>
     </g>
    </g>
    <g id="text_18">
     <!-- $\^t$ -->
     <defs>
      <path d="M -7.5 50.703125 
L -10.90625 50.703125 
L -23.09375 61 
L -35.203125 50.703125 
L -38.59375 50.703125 
L -26.203125 67.40625 
L -20 67.40625 
z
" id="STIXGeneral-Regular-770"/>
      <path d="M 29.59375 42.796875 
L 29.09375 39.59375 
L 20.703125 39.59375 
L 12 6.796875 
Q 11.796875 6 11.796875 5.40625 
Q 11.796875 3.796875 13.296875 3.796875 
Q 14.5 3.796875 16.09375 5.34375 
Q 17.703125 6.90625 21.40625 11.703125 
L 22.703125 11 
Q 18.09375 4 15.140625 1.453125 
Q 12.203125 -1.09375 8.40625 -1.09375 
Q 3.796875 -1.09375 3.796875 2.59375 
Q 3.796875 3.59375 5.40625 10 
L 13.203125 39.59375 
L 5.703125 39.59375 
L 5.59375 40.203125 
Q 5.59375 42 8.90625 42.703125 
Q 11.40625 43.296875 15.5 46.546875 
Q 19.59375 49.796875 22.203125 53.703125 
Q 22.796875 54.59375 23.59375 54.59375 
Q 24.5 54.59375 24.5 53.796875 
Q 24.5 53.296875 24.40625 53.09375 
L 21.59375 42.796875 
z
" id="STIXGeneral-Italic-116"/>
     </defs>
     <g transform="translate(363.348756 609.161563)scale(0.14 -0.14)">
      <use transform="translate(39.042969 16.59375)" xlink:href="#STIXGeneral-Regular-770"/>
      <use transform="translate(0 0.203125)" xlink:href="#STIXGeneral-Italic-116"/>
     </g>
    </g>
   </g>
   <g id="matplotlib.axis_6">
    <g id="ytick_11">
     <g id="line2d_49">
      <g>
       <use style="fill:#ffffff;stroke:#000000;stroke-width:0.8;" x="216" xlink:href="#m47c8909083" y="576"/>
      </g>
     </g>
     <g id="text_19">
      <!-- −10 -->
      <g transform="translate(185.41 580.780781)scale(0.14 -0.14)">
       <use xlink:href="#STIXGeneral-Regular-8722"/>
       <use x="68.499985" xlink:href="#STIXGeneral-Regular-49"/>
       <use x="118.499969" xlink:href="#STIXGeneral-Regular-48"/>
      </g>
     </g>
    </g>
    <g id="ytick_12">
     <g id="line2d_50">
      <g>
       <use style="fill:#ffffff;stroke:#000000;stroke-width:0.8;" x="216" xlink:href="#m47c8909083" y="526.230415"/>
      </g>
     </g>
     <g id="text_20">
      <!-- −5 -->
      <g transform="translate(192.41 531.011196)scale(0.14 -0.14)">
       <use xlink:href="#STIXGeneral-Regular-8722"/>
       <use x="68.499985" xlink:href="#STIXGeneral-Regular-53"/>
      </g>
     </g>
    </g>
    <g id="ytick_13">
     <g id="line2d_51">
      <g>
       <use style="fill:#ffffff;stroke:#000000;stroke-width:0.8;" x="216" xlink:href="#m47c8909083" y="476.460829"/>
      </g>
     </g>
     <g id="text_21">
      <!-- 0 -->
      <g transform="translate(202 481.241611)scale(0.14 -0.14)">
       <use xlink:href="#STIXGeneral-Regular-48"/>
      </g>
     </g>
    </g>
    <g id="ytick_14">
     <g id="line2d_52">
      <g>
       <use style="fill:#ffffff;stroke:#000000;stroke-width:0.8;" x="216" xlink:href="#m47c8909083" y="426.691244"/>
      </g>
     </g>
     <g id="text_22">
      <!-- 5 -->
      <g transform="translate(202 431.472025)scale(0.14 -0.14)">
       <use xlink:href="#STIXGeneral-Regular-53"/>
      </g>
     </g>
    </g>
    <g id="ytick_15">
     <g id="line2d_53">
      <g>
       <use style="fill:#ffffff;stroke:#000000;stroke-width:0.8;" x="216" xlink:href="#m47c8909083" y="376.921659"/>
      </g>
     </g>
     <g id="text_23">
      <!-- 10 -->
      <g transform="translate(195 381.70244)scale(0.14 -0.14)">
       <use xlink:href="#STIXGeneral-Regular-49"/>
       <use x="49.999985" xlink:href="#STIXGeneral-Regular-48"/>
      </g>
     </g>
    </g>
    <g id="text_24">
     <!-- $C_l$ -->
     <g transform="translate(178.371562 482.830829)rotate(-90)scale(0.14 -0.14)">
      <use transform="translate(0 0.40625)" xlink:href="#STIXGeneral-Italic-67"/>
      <use transform="translate(66.699997 -12.821875)scale(0.7)" xlink:href="#STIXGeneral-Italic-108"/>
     </g>
    </g>
   </g>
   <g id="line2d_54">
    <path clip-path="url(#p607f22386b)" d="M 215.701382 500.051488 
L 216.298618 501.532839 
L 216.895853 502.567525 
L 217.791705 503.532978 
L 220.77788 505.771055 
L 221.97235 506.05267 
L 222.569585 505.921855 
L 222.868203 505.938095 
L 223.16682 505.749273 
L 223.465438 505.742008 
L 225.55576 504.516826 
L 226.75023 503.343658 
L 227.347465 502.528298 
L 227.646083 502.241162 
L 233.618433 493.264018 
L 235.111521 491.735976 
L 237.500461 489.888494 
L 243.771429 485.40111 
L 247.354839 483.219907 
L 250.042396 481.406993 
L 253.028571 479.477761 
L 255.716129 477.821463 
L 259.598157 475.675861 
L 261.389862 474.894278 
L 267.362212 473.191037 
L 270.04977 472.696184 
L 270.945622 472.493367 
L 273.334562 472.196876 
L 275.424885 471.854016 
L 282.591705 470.824134 
L 289.758525 470.801301 
L 291.55023 470.976597 
L 292.147465 470.951595 
L 294.237788 471.195731 
L 302.599078 472.180687 
L 303.494931 472.277016 
L 305.585253 472.570255 
L 315.141014 473.889503 
L 317.529954 474.214809 
L 319.321659 474.514284 
L 322.307834 474.82599 
L 332.460829 475.882747 
L 345.002765 476.438744 
L 346.197235 476.443539 
L 352.76682 476.568593 
L 355.752995 476.654573 
L 366.204608 476.979603 
L 374.864516 477.44855 
L 398.156682 478.927243 
L 417.268203 479.869054 
L 430.705991 480.102053 
L 437.872811 480.094801 
L 447.129954 479.894224 
L 479.97788 479.086505 
L 499.388018 479.463031 
L 514.916129 479.86209 
L 514.916129 479.86209 
" style="fill:none;stroke:#1f77b4;stroke-linecap:square;stroke-width:3;"/>
   </g>
   <g id="line2d_55">
    <path clip-path="url(#p607f22386b)" d="M 215.701382 453.865446 
L 216.298618 453.977605 
L 217.493088 453.794661 
L 218.687558 453.378549 
L 220.77788 452.589835 
L 222.569585 452.122628 
L 226.75023 451.400202 
L 233.021198 450.826178 
L 235.111521 450.945358 
L 236.604608 451.155798 
L 238.396313 451.589358 
L 242.278341 453.055252 
L 246.458986 455.267759 
L 250.639631 457.90486 
L 257.507834 462.358403 
L 264.674654 466.369752 
L 265.271889 466.642692 
L 266.466359 467.249087 
L 268.556682 468.187695 
L 274.529032 470.50225 
L 280.202765 472.191936 
L 283.18894 472.914713 
L 286.473733 473.601802 
L 296.925346 475.156438 
L 301.404608 475.601295 
L 319.023041 476.609888 
L 325.592627 476.8046 
L 330.669124 476.919412 
L 333.953917 476.993708 
L 343.509677 477.143666 
L 346.495853 477.190976 
L 356.051613 477.32009 
L 439.963134 477.938602 
L 498.193548 478.092196 
L 514.916129 478.136191 
L 514.916129 478.136191 
" style="fill:none;stroke:#ff7f0e;stroke-linecap:square;stroke-width:3;"/>
   </g>
   <g id="line2d_56">
    <path clip-path="url(#p607f22386b)" d="M 215.701382 492.433514 
L 217.791705 492.597531 
L 219.58341 492.564403 
L 221.673733 492.249853 
L 223.16682 491.815612 
L 225.55576 490.809313 
L 227.9447 489.520072 
L 230.632258 487.778993 
L 233.319816 485.73523 
L 238.694931 481.596151 
L 240.188018 480.712917 
L 241.681106 480.044889 
L 243.174194 479.601953 
L 244.667281 479.381531 
L 246.458986 479.326985 
L 249.146544 479.538421 
L 253.924424 479.990214 
L 256.910599 480.000304 
L 260.195392 479.72443 
L 262.285714 479.31422 
L 264.376037 478.697134 
L 266.764977 477.766816 
L 270.348387 476.095386 
L 273.63318 474.564025 
L 276.320737 473.541532 
L 278.709677 472.888485 
L 280.8 472.531628 
L 283.18894 472.345733 
L 286.175115 472.353523 
L 290.654378 472.622596 
L 298.418433 472.975339 
L 304.092166 472.93976 
L 324.099539 472.512779 
L 334.84977 472.506892 
L 347.690323 472.729824 
L 391.587097 473.290658 
L 441.456221 473.38782 
L 480.873733 473.857091 
L 514.916129 474.340991 
L 514.916129 474.340991 
" style="fill:none;stroke:#2ca02c;stroke-linecap:square;stroke-width:3;"/>
   </g>
   <g id="line2d_57">
    <path clip-path="url(#p607f22386b)" d="M 216 476.460829 
L 514.617512 476.460829 
" style="fill:none;stroke:#000000;stroke-dasharray:3.2,0.8,0.5,0.8;stroke-dashoffset:0;stroke-width:0.5;"/>
   </g>
   <g id="line2d_58">
    <path clip-path="url(#p607f22386b)" d="M 216 576 
L 216 376.921659 
" style="fill:none;stroke:#000000;stroke-linecap:square;stroke-width:0.5;"/>
   </g>
   <g id="line2d_59">
    <path clip-path="url(#p607f22386b)" d="M 275.723502 576 
L 275.723502 376.921659 
" style="fill:none;stroke:#000000;stroke-dasharray:3.2,0.8,0.5,0.8;stroke-dashoffset:0;stroke-opacity:0.25;stroke-width:0.5;"/>
   </g>
   <g id="line2d_60">
    <path clip-path="url(#p607f22386b)" d="M 335.447005 576 
L 335.447005 376.921659 
" style="fill:none;stroke:#000000;stroke-dasharray:3.2,0.8,0.5,0.8;stroke-dashoffset:0;stroke-opacity:0.25;stroke-width:0.5;"/>
   </g>
   <g id="patch_13">
    <path d="M 216 576 
L 216 376.921659 
" style="fill:none;stroke:#000000;stroke-linecap:square;stroke-linejoin:miter;stroke-width:0.8;"/>
   </g>
   <g id="patch_14">
    <path d="M 514.617512 576 
L 514.617512 376.921659 
" style="fill:none;stroke:#000000;stroke-linecap:square;stroke-linejoin:miter;stroke-width:0.8;"/>
   </g>
   <g id="patch_15">
    <path d="M 216 576 
L 514.617512 576 
" style="fill:none;stroke:#000000;stroke-linecap:square;stroke-linejoin:miter;stroke-width:0.8;"/>
   </g>
   <g id="patch_16">
    <path d="M 216 376.921659 
L 514.617512 376.921659 
" style="fill:none;stroke:#000000;stroke-linecap:square;stroke-linejoin:miter;stroke-width:0.8;"/>
   </g>
  </g>
  <g id="axes_4">
   <g id="patch_17">
    <path d="M 565.382488 576 
L 864 576 
L 864 376.921659 
L 565.382488 376.921659 
z
" style="fill:#ffffff;"/>
   </g>
   <g id="matplotlib.axis_7">
    <g id="xtick_19">
     <g id="line2d_61">
      <g>
       <use style="fill:#ffffff;stroke:#000000;stroke-width:0.8;" x="565.382488" xlink:href="#m3540b99b67" y="576"/>
      </g>
     </g>
     <g id="text_25">
      <!-- 1.0 -->
      <g transform="translate(556.632488 592.561563)scale(0.14 -0.14)">
       <use xlink:href="#STIXGeneral-Regular-49"/>
       <use x="49.999985" xlink:href="#STIXGeneral-Regular-46"/>
       <use x="74.999969" xlink:href="#STIXGeneral-Regular-48"/>
      </g>
     </g>
    </g>
    <g id="xtick_20">
     <g id="line2d_62">
      <g>
       <use style="fill:#ffffff;stroke:#000000;stroke-width:0.8;" x="625.105991" xlink:href="#m3540b99b67" y="576"/>
      </g>
     </g>
     <g id="text_26">
      <!-- 1.2 -->
      <g transform="translate(616.355991 592.561563)scale(0.14 -0.14)">
       <use xlink:href="#STIXGeneral-Regular-49"/>
       <use x="49.999985" xlink:href="#STIXGeneral-Regular-46"/>
       <use x="74.999969" xlink:href="#STIXGeneral-Regular-50"/>
      </g>
     </g>
    </g>
    <g id="xtick_21">
     <g id="line2d_63">
      <g>
       <use style="fill:#ffffff;stroke:#000000;stroke-width:0.8;" x="684.829493" xlink:href="#m3540b99b67" y="576"/>
      </g>
     </g>
     <g id="text_27">
      <!-- 1.4 -->
      <g transform="translate(676.079493 592.561563)scale(0.14 -0.14)">
       <use xlink:href="#STIXGeneral-Regular-49"/>
       <use x="49.999985" xlink:href="#STIXGeneral-Regular-46"/>
       <use x="74.999969" xlink:href="#STIXGeneral-Regular-52"/>
      </g>
     </g>
    </g>
    <g id="xtick_22">
     <g id="line2d_64">
      <g>
       <use style="fill:#ffffff;stroke:#000000;stroke-width:0.8;" x="744.552995" xlink:href="#m3540b99b67" y="576"/>
      </g>
     </g>
     <g id="text_28">
      <!-- 1.6 -->
      <g transform="translate(735.802995 592.561563)scale(0.14 -0.14)">
       <use xlink:href="#STIXGeneral-Regular-49"/>
       <use x="49.999985" xlink:href="#STIXGeneral-Regular-46"/>
       <use x="74.999969" xlink:href="#STIXGeneral-Regular-54"/>
      </g>
     </g>
    </g>
    <g id="xtick_23">
     <g id="line2d_65">
      <g>
       <use style="fill:#ffffff;stroke:#000000;stroke-width:0.8;" x="804.276498" xlink:href="#m3540b99b67" y="576"/>
      </g>
     </g>
     <g id="text_29">
      <!-- 1.8 -->
      <g transform="translate(795.526498 592.561563)scale(0.14 -0.14)">
       <use xlink:href="#STIXGeneral-Regular-49"/>
       <use x="49.999985" xlink:href="#STIXGeneral-Regular-46"/>
       <use x="74.999969" xlink:href="#STIXGeneral-Regular-56"/>
      </g>
     </g>
    </g>
    <g id="xtick_24">
     <g id="line2d_66">
      <g>
       <use style="fill:#ffffff;stroke:#000000;stroke-width:0.8;" x="864" xlink:href="#m3540b99b67" y="576"/>
      </g>
     </g>
     <g id="text_30">
      <!-- 2.0 -->
      <g transform="translate(855.25 592.561563)scale(0.14 -0.14)">
       <use xlink:href="#STIXGeneral-Regular-50"/>
       <use x="49.999985" xlink:href="#STIXGeneral-Regular-46"/>
       <use x="74.999969" xlink:href="#STIXGeneral-Regular-48"/>
      </g>
     </g>
    </g>
    <g id="text_31">
     <!-- $\^t$ -->
     <g transform="translate(712.731244 609.161563)scale(0.14 -0.14)">
      <use transform="translate(39.042969 16.59375)" xlink:href="#STIXGeneral-Regular-770"/>
      <use transform="translate(0 0.203125)" xlink:href="#STIXGeneral-Italic-116"/>
     </g>
    </g>
   </g>
   <g id="matplotlib.axis_8">
    <g id="ytick_16">
     <g id="line2d_67">
      <g>
       <use style="fill:#ffffff;stroke:#000000;stroke-width:0.8;" x="565.382488" xlink:href="#m47c8909083" y="576"/>
      </g>
     </g>
    </g>
    <g id="ytick_17">
     <g id="line2d_68">
      <g>
       <use style="fill:#ffffff;stroke:#000000;stroke-width:0.8;" x="565.382488" xlink:href="#m47c8909083" y="526.230415"/>
      </g>
     </g>
    </g>
    <g id="ytick_18">
     <g id="line2d_69">
      <g>
       <use style="fill:#ffffff;stroke:#000000;stroke-width:0.8;" x="565.382488" xlink:href="#m47c8909083" y="476.460829"/>
      </g>
     </g>
    </g>
    <g id="ytick_19">
     <g id="line2d_70">
      <g>
       <use style="fill:#ffffff;stroke:#000000;stroke-width:0.8;" x="565.382488" xlink:href="#m47c8909083" y="426.691244"/>
      </g>
     </g>
    </g>
    <g id="ytick_20">
     <g id="line2d_71">
      <g>
       <use style="fill:#ffffff;stroke:#000000;stroke-width:0.8;" x="565.382488" xlink:href="#m47c8909083" y="376.921659"/>
      </g>
     </g>
    </g>
    <g id="text_32">
     <!-- $C_d$ -->
     <g transform="translate(551.344051 483.950829)rotate(-90)scale(0.14 -0.14)">
      <use transform="translate(0 0.40625)" xlink:href="#STIXGeneral-Italic-67"/>
      <use transform="translate(66.699997 -12.821875)scale(0.7)" xlink:href="#STIXGeneral-Italic-100"/>
     </g>
    </g>
   </g>
   <g id="line2d_72">
    <path clip-path="url(#p3fbdd31bc2)" d="M 565.083871 467.549792 
L 565.979724 464.40279 
L 566.875576 462.157727 
L 569.563134 457.565166 
L 570.757604 456.244117 
L 571.354839 455.795912 
L 571.952074 455.600097 
L 572.250691 455.435283 
L 572.549309 455.474024 
L 572.847926 455.349171 
L 574.042396 455.527228 
L 574.938249 455.839302 
L 576.132719 456.753276 
L 576.729954 457.468769 
L 577.028571 457.718126 
L 579.716129 461.704964 
L 581.507834 464.542992 
L 583.598157 467.113696 
L 584.494009 467.966527 
L 586.584332 469.49654 
L 588.973272 471.09621 
L 591.362212 472.775502 
L 593.153917 473.811515 
L 597.035945 475.927164 
L 600.917972 478.196469 
L 602.41106 478.990209 
L 605.695853 480.627901 
L 609.57788 482.226645 
L 611.96682 482.812625 
L 617.939171 483.453924 
L 626.300461 483.588661 
L 626.897696 483.599932 
L 628.988018 483.625225 
L 629.883871 483.662922 
L 632.571429 483.49693 
L 633.467281 483.418907 
L 634.661751 483.344449 
L 636.752074 483.166229 
L 637.349309 483.044884 
L 640.634101 482.583294 
L 640.932719 482.485181 
L 641.529954 482.474926 
L 643.620276 482.060328 
L 666.613825 478.082633 
L 675.57235 476.823254 
L 675.870968 476.849524 
L 676.468203 476.718265 
L 677.662673 476.583548 
L 678.857143 476.430761 
L 681.843318 476.172664 
L 694.086636 475.517325 
L 720.663594 474.62626 
L 735.893088 473.697771 
L 738.879263 473.505803 
L 758.289401 472.419674 
L 782.477419 471.825179 
L 793.824885 471.965121 
L 822.193548 472.822202 
L 829.658986 472.89916 
L 841.902304 472.754769 
L 864.298618 472.220332 
L 864.298618 472.220332 
" style="fill:none;stroke:#1f77b4;stroke-linecap:square;stroke-width:3;"/>
   </g>
   <g id="line2d_73">
    <path clip-path="url(#p3fbdd31bc2)" d="M 565.083871 507.744811 
L 565.681106 507.45238 
L 566.576959 507.269267 
L 568.368664 507.371646 
L 570.757604 507.581863 
L 573.445161 507.578126 
L 579.417512 507.176366 
L 582.105069 506.686807 
L 585.091244 505.779174 
L 587.480184 504.728241 
L 590.466359 503.033486 
L 593.452535 501.023314 
L 598.529032 497.17417 
L 600.619355 495.521532 
L 608.084793 489.999361 
L 611.668203 487.713548 
L 613.16129 486.831188 
L 616.7447 484.953112 
L 622.119816 482.576077 
L 627.494931 480.719813 
L 628.988018 480.298517 
L 630.481106 479.893339 
L 637.946544 478.286585 
L 641.828571 477.692308 
L 652.280184 476.553202 
L 657.356682 476.205875 
L 663.329032 475.897381 
L 671.093088 475.637229 
L 673.482028 475.567781 
L 679.15576 475.443886 
L 687.517051 475.297838 
L 701.253456 475.118013 
L 705.732719 475.071674 
L 716.184332 474.960498 
L 721.260829 474.920524 
L 734.101382 474.80724 
L 740.969585 474.761493 
L 864.298618 474.303461 
L 864.298618 474.303461 
" style="fill:none;stroke:#ff7f0e;stroke-linecap:square;stroke-width:3;"/>
   </g>
   <g id="line2d_74">
    <path clip-path="url(#p3fbdd31bc2)" d="M 565.083871 461.052209 
L 566.875576 460.702003 
L 568.965899 460.571431 
L 570.757604 460.742937 
L 572.250691 461.138356 
L 574.042396 461.872623 
L 575.834101 462.878204 
L 577.625806 464.082644 
L 579.716129 465.718636 
L 583.000922 468.741917 
L 587.181567 472.619704 
L 588.973272 473.943854 
L 590.466359 474.778263 
L 591.959447 475.33799 
L 593.153917 475.580742 
L 594.945622 475.668536 
L 596.737327 475.507059 
L 599.723502 474.984648 
L 602.41106 474.531099 
L 605.098618 474.267721 
L 608.38341 474.229086 
L 610.473733 474.412981 
L 612.564055 474.817705 
L 614.952995 475.542507 
L 617.640553 476.609791 
L 624.210138 479.423676 
L 626.300461 480.068303 
L 628.390783 480.505734 
L 630.779724 480.753228 
L 633.467281 480.787407 
L 638.543779 480.469095 
L 644.814747 480.086081 
L 650.189862 480.035579 
L 671.690323 480.517888 
L 682.739171 480.528444 
L 692.593548 480.379223 
L 721.858065 479.816592 
L 743.95576 479.745524 
L 789.345622 479.777392 
L 825.179724 479.548014 
L 864.298618 479.168857 
L 864.298618 479.168857 
" style="fill:none;stroke:#2ca02c;stroke-linecap:square;stroke-width:3;"/>
   </g>
   <g id="line2d_75">
    <path clip-path="url(#p3fbdd31bc2)" d="M 565.382488 476.460829 
L 864 476.460829 
" style="fill:none;stroke:#000000;stroke-dasharray:3.2,0.8,0.5,0.8;stroke-dashoffset:0;stroke-width:0.5;"/>
   </g>
   <g id="line2d_76">
    <path clip-path="url(#p3fbdd31bc2)" d="M 565.382488 576 
L 565.382488 376.921659 
" style="fill:none;stroke:#000000;stroke-linecap:square;stroke-width:0.5;"/>
   </g>
   <g id="line2d_77">
    <path clip-path="url(#p3fbdd31bc2)" d="M 625.105991 576 
L 625.105991 376.921659 
" style="fill:none;stroke:#000000;stroke-dasharray:3.2,0.8,0.5,0.8;stroke-dashoffset:0;stroke-opacity:0.25;stroke-width:0.5;"/>
   </g>
   <g id="line2d_78">
    <path clip-path="url(#p3fbdd31bc2)" d="M 684.829493 576 
L 684.829493 376.921659 
" style="fill:none;stroke:#000000;stroke-dasharray:3.2,0.8,0.5,0.8;stroke-dashoffset:0;stroke-opacity:0.25;stroke-width:0.5;"/>
   </g>
   <g id="patch_18">
    <path d="M 565.382488 576 
L 565.382488 376.921659 
" style="fill:none;stroke:#000000;stroke-linecap:square;stroke-linejoin:miter;stroke-width:0.8;"/>
   </g>
   <g id="patch_19">
    <path d="M 864 576 
L 864 376.921659 
" style="fill:none;stroke:#000000;stroke-linecap:square;stroke-linejoin:miter;stroke-width:0.8;"/>
   </g>
   <g id="patch_20">
    <path d="M 565.382488 576 
L 864 576 
" style="fill:none;stroke:#000000;stroke-linecap:square;stroke-linejoin:miter;stroke-width:0.8;"/>
   </g>
   <g id="patch_21">
    <path d="M 565.382488 376.921659 
L 864 376.921659 
" style="fill:none;stroke:#000000;stroke-linecap:square;stroke-linejoin:miter;stroke-width:0.8;"/>
   </g>
   <g id="text_33">
    <!-- $Re = 10^3$ -->
    <g transform="translate(875.754101 479.722392)scale(0.14 -0.14)">
     <use transform="translate(0 0.409375)" xlink:href="#STIXGeneral-Italic-82"/>
     <use transform="translate(61.099991 0.409375)" xlink:href="#STIXGeneral-Italic-101"/>
     <use transform="translate(119.939981 0.409375)" xlink:href="#STIXGeneral-Regular-61"/>
     <use transform="translate(202.879962 0.409375)" xlink:href="#STIXGeneral-Regular-49"/>
     <use transform="translate(252.879947 0.409375)" xlink:href="#STIXGeneral-Regular-48"/>
     <use transform="translate(304.423213 35.684375)scale(0.7)" xlink:href="#STIXGeneral-Regular-51"/>
    </g>
   </g>
  </g>
 </g>
 <defs>
  <clipPath id="p51607a64ba">
   <rect height="199.078341" width="298.617512" x="216" y="144"/>
  </clipPath>
  <clipPath id="peaf6bfef99">
   <rect height="199.078341" width="298.617512" x="565.382488" y="144"/>
  </clipPath>
  <clipPath id="p607f22386b">
   <rect height="199.078341" width="298.617512" x="216" y="376.921659"/>
  </clipPath>
  <clipPath id="p3fbdd31bc2">
   <rect height="199.078341" width="298.617512" x="565.382488" y="376.921659"/>
  </clipPath>
 </defs>
</svg>
