<?xml version="1.0" encoding="utf-8" standalone="no"?>
<!DOCTYPE svg PUBLIC "-//W3C//DTD SVG 1.1//EN"
  "http://www.w3.org/Graphics/SVG/1.1/DTD/svg11.dtd">
<!-- Created with matplotlib (https://matplotlib.org/) -->
<svg height="720pt" version="1.1" viewBox="0 0 1080 720" width="1080pt" xmlns="http://www.w3.org/2000/svg" xmlns:xlink="http://www.w3.org/1999/xlink">
 <defs>
  <style type="text/css">
*{stroke-linecap:butt;stroke-linejoin:round;}
  </style>
 </defs>
 <g id="figure_1">
  <g id="patch_1">
   <path d="M 0 720 
L 1080 720 
L 1080 0 
L 0 0 
z
" style="fill:#ffffff;"/>
  </g>
  <g id="axes_1">
   <g id="patch_2">
    <path d="M 216 343.078341 
L 514.617512 343.078341 
L 514.617512 144 
L 216 144 
z
" style="fill:#ffffff;"/>
   </g>
   <g id="matplotlib.axis_1">
    <g id="xtick_1">
     <g id="line2d_1">
      <defs>
       <path d="M 0 0 
L 0 3.5 
" id="mf6c2fe8bfb" style="stroke:#000000;stroke-width:0.8;"/>
      </defs>
      <g>
       <use style="fill:#ffffff;stroke:#000000;stroke-width:0.8;" x="216" xlink:href="#mf6c2fe8bfb" y="343.078341"/>
      </g>
     </g>
    </g>
    <g id="xtick_2">
     <g id="line2d_2">
      <g>
       <use style="fill:#ffffff;stroke:#000000;stroke-width:0.8;" x="275.723502" xlink:href="#mf6c2fe8bfb" y="343.078341"/>
      </g>
     </g>
    </g>
    <g id="xtick_3">
     <g id="line2d_3">
      <g>
       <use style="fill:#ffffff;stroke:#000000;stroke-width:0.8;" x="335.447005" xlink:href="#mf6c2fe8bfb" y="343.078341"/>
      </g>
     </g>
    </g>
    <g id="xtick_4">
     <g id="line2d_4">
      <g>
       <use style="fill:#ffffff;stroke:#000000;stroke-width:0.8;" x="395.170507" xlink:href="#mf6c2fe8bfb" y="343.078341"/>
      </g>
     </g>
    </g>
    <g id="xtick_5">
     <g id="line2d_5">
      <g>
       <use style="fill:#ffffff;stroke:#000000;stroke-width:0.8;" x="454.894009" xlink:href="#mf6c2fe8bfb" y="343.078341"/>
      </g>
     </g>
    </g>
    <g id="xtick_6">
     <g id="line2d_6">
      <g>
       <use style="fill:#ffffff;stroke:#000000;stroke-width:0.8;" x="514.617512" xlink:href="#mf6c2fe8bfb" y="343.078341"/>
      </g>
     </g>
    </g>
   </g>
   <g id="matplotlib.axis_2">
    <g id="ytick_1">
     <g id="line2d_7">
      <defs>
       <path d="M 0 0 
L -3.5 0 
" id="mb9dc811cab" style="stroke:#000000;stroke-width:0.8;"/>
      </defs>
      <g>
       <use style="fill:#ffffff;stroke:#000000;stroke-width:0.8;" x="216" xlink:href="#mb9dc811cab" y="343.078341"/>
      </g>
     </g>
     <g id="text_1">
      <!-- −10 -->
      <defs>
       <path d="M 62.09375 22 
L 6.40625 22 
L 6.40625 28.59375 
L 62.09375 28.59375 
z
" id="STIXGeneral-Regular-8722"/>
       <path d="M 39.40625 0 
L 11.796875 0 
L 11.796875 1.5 
Q 17.296875 1.796875 19.296875 3.546875 
Q 21.296875 5.296875 21.296875 9.5 
L 21.296875 54.40625 
Q 21.296875 59.296875 18.296875 59.296875 
Q 16.90625 59.296875 13.796875 58.09375 
L 11.09375 57.09375 
L 11.09375 58.5 
L 29 67.59375 
L 29.90625 67.296875 
L 29.90625 7.59375 
Q 29.90625 4.296875 31.90625 2.890625 
Q 33.90625 1.5 39.40625 1.5 
z
" id="STIXGeneral-Regular-49"/>
       <path d="M 47.59375 33 
Q 47.59375 26.296875 46.296875 20.34375 
Q 45 14.40625 42.453125 9.40625 
Q 39.90625 4.40625 35.40625 1.5 
Q 30.90625 -1.40625 25 -1.40625 
Q 18.90625 -1.40625 14.296875 1.6875 
Q 9.703125 4.796875 7.203125 10 
Q 4.703125 15.203125 3.546875 21.09375 
Q 2.40625 27 2.40625 33.59375 
Q 2.40625 42.90625 4.703125 50.34375 
Q 7 57.796875 12.34375 62.6875 
Q 17.703125 67.59375 25.40625 67.59375 
Q 35.203125 67.59375 41.390625 58 
Q 47.59375 48.40625 47.59375 33 
z
M 38 32.5 
Q 38 48.296875 34.640625 56.640625 
Q 31.296875 65 24.796875 65 
Q 18.59375 65 15.296875 56.59375 
Q 12 48.203125 12 32.90625 
Q 12 17.5 15.296875 9.34375 
Q 18.59375 1.203125 25 1.203125 
Q 31.296875 1.203125 34.640625 9.34375 
Q 38 17.5 38 32.5 
z
" id="STIXGeneral-Regular-48"/>
      </defs>
      <g transform="translate(185.41 347.859122)scale(0.14 -0.14)">
       <use xlink:href="#STIXGeneral-Regular-8722"/>
       <use x="68.499985" xlink:href="#STIXGeneral-Regular-49"/>
       <use x="118.499969" xlink:href="#STIXGeneral-Regular-48"/>
      </g>
     </g>
    </g>
    <g id="ytick_2">
     <g id="line2d_8">
      <g>
       <use style="fill:#ffffff;stroke:#000000;stroke-width:0.8;" x="216" xlink:href="#mb9dc811cab" y="293.308756"/>
      </g>
     </g>
     <g id="text_2">
      <!-- −5 -->
      <defs>
       <path d="M 43.796875 68.09375 
L 40.203125 59.59375 
Q 39.59375 58.296875 37.5 58.296875 
L 18.09375 58.296875 
L 14.09375 49.796875 
Q 25.09375 47.703125 30 45.25 
Q 34.90625 42.796875 39.09375 37 
Q 42.59375 32.203125 42.59375 24.296875 
Q 42.59375 17.09375 40.25 12.1875 
Q 37.90625 7.296875 32.796875 3.5 
Q 26 -1.40625 15.796875 -1.40625 
Q 10.09375 -1.40625 6.59375 0.296875 
Q 3.09375 2 3.09375 4.796875 
Q 3.09375 8.59375 7.59375 8.59375 
Q 11.203125 8.59375 15 5.5 
Q 18.90625 2.296875 22.09375 2.296875 
Q 27.296875 2.296875 31.4375 7.5 
Q 35.59375 12.703125 35.59375 19.203125 
Q 35.59375 28.796875 28.90625 34.203125 
Q 20.203125 41.203125 7.59375 41.203125 
Q 6.40625 41.203125 6.40625 42 
L 6.5 42.5 
L 17.40625 66.203125 
L 38.09375 66.203125 
Q 39.796875 66.203125 40.75 66.703125 
Q 41.703125 67.203125 42.90625 68.796875 
z
" id="STIXGeneral-Regular-53"/>
      </defs>
      <g transform="translate(192.41 298.089537)scale(0.14 -0.14)">
       <use xlink:href="#STIXGeneral-Regular-8722"/>
       <use x="68.499985" xlink:href="#STIXGeneral-Regular-53"/>
      </g>
     </g>
    </g>
    <g id="ytick_3">
     <g id="line2d_9">
      <g>
       <use style="fill:#ffffff;stroke:#000000;stroke-width:0.8;" x="216" xlink:href="#mb9dc811cab" y="243.539171"/>
      </g>
     </g>
     <g id="text_3">
      <!-- 0 -->
      <g transform="translate(202 248.319952)scale(0.14 -0.14)">
       <use xlink:href="#STIXGeneral-Regular-48"/>
      </g>
     </g>
    </g>
    <g id="ytick_4">
     <g id="line2d_10">
      <g>
       <use style="fill:#ffffff;stroke:#000000;stroke-width:0.8;" x="216" xlink:href="#mb9dc811cab" y="193.769585"/>
      </g>
     </g>
     <g id="text_4">
      <!-- 5 -->
      <g transform="translate(202 198.550367)scale(0.14 -0.14)">
       <use xlink:href="#STIXGeneral-Regular-53"/>
      </g>
     </g>
    </g>
    <g id="ytick_5">
     <g id="line2d_11">
      <g>
       <use style="fill:#ffffff;stroke:#000000;stroke-width:0.8;" x="216" xlink:href="#mb9dc811cab" y="144"/>
      </g>
     </g>
     <g id="text_5">
      <!-- 10 -->
      <g transform="translate(195 148.780781)scale(0.14 -0.14)">
       <use xlink:href="#STIXGeneral-Regular-49"/>
       <use x="49.999985" xlink:href="#STIXGeneral-Regular-48"/>
      </g>
     </g>
    </g>
    <g id="text_6">
     <!-- $C_l$ -->
     <defs>
      <path d="M 68.90625 66.40625 
L 65.203125 46.40625 
L 63.40625 46.703125 
Q 61.59375 63 48.5 63 
Q 37.59375 63 28.59375 53.296875 
Q 23.296875 47.703125 20.546875 39.703125 
Q 17.796875 31.703125 17.796875 23.203125 
Q 17.796875 2.703125 35.296875 2.703125 
Q 41.5 2.703125 46.640625 5.296875 
Q 51.796875 7.90625 58.203125 14.59375 
L 60 13.09375 
Q 53.296875 5.203125 46.84375 1.703125 
Q 40.40625 -1.796875 32.703125 -1.796875 
Q 21 -1.796875 13.796875 5.140625 
Q 6.59375 12.09375 6.59375 24.296875 
Q 6.59375 34.59375 11.6875 43.9375 
Q 16.796875 53.296875 25.296875 59.296875 
Q 35.5 66.59375 47.203125 66.59375 
Q 54.09375 66.59375 58.90625 64.90625 
Q 60.90625 64.203125 63 64.203125 
Q 65.703125 64.203125 66.796875 66.40625 
z
" id="STIXGeneral-Italic-67"/>
      <path d="M 27.90625 67.796875 
L 12.59375 9.296875 
Q 11.796875 6.40625 11.796875 5 
Q 11.796875 3.203125 13.5 3.203125 
Q 16.203125 3.203125 20.203125 8.90625 
L 22.703125 12.40625 
L 24.09375 11.40625 
Q 19.59375 4.296875 16.34375 1.59375 
Q 13.09375 -1.09375 9 -1.09375 
Q 4.09375 -1.09375 4.09375 4.5 
Q 4.09375 6.203125 4.5 7.5 
L 18.203125 59.90625 
Q 18.5 60.90625 18.5 61.796875 
Q 18.5 64 13.59375 64 
L 11.796875 64 
L 11.796875 65.59375 
Q 18.796875 66.40625 27.296875 68.296875 
z
" id="STIXGeneral-Italic-108"/>
     </defs>
     <g transform="translate(178.371562 249.909171)rotate(-90)scale(0.14 -0.14)">
      <use transform="translate(0 0.40625)" xlink:href="#STIXGeneral-Italic-67"/>
      <use transform="translate(66.699997 -12.821875)scale(0.7)" xlink:href="#STIXGeneral-Italic-108"/>
     </g>
    </g>
   </g>
   <g id="line2d_12">
    <path clip-path="url(#pc7cdaa166f)" d="M 215.701382 264.84234 
L 218.986175 261.935583 
L 222.868203 258.452576 
L 226.152995 255.778172 
L 229.139171 253.606462 
L 232.125346 251.701915 
L 235.111521 250.053186 
L 238.097696 248.678656 
L 241.083871 247.544662 
L 244.368664 246.534095 
L 247.952074 245.663294 
L 251.834101 244.943049 
L 256.611982 244.294106 
L 261.987097 243.787242 
L 268.8553 243.368834 
L 277.813825 243.062127 
L 290.35576 242.872027 
L 310.960369 242.811085 
L 358.141935 242.962709 
L 504.763134 243.479968 
L 514.916129 243.504135 
L 514.916129 243.504135 
" style="fill:none;stroke:#1f77b4;stroke-linecap:square;stroke-width:3;"/>
   </g>
   <g id="line2d_13">
    <path clip-path="url(#pc7cdaa166f)" d="M 215.701382 249.793691 
L 219.882028 248.929882 
L 234.514286 245.772382 
L 240.785253 244.708064 
L 246.757604 243.918267 
L 253.327189 243.279225 
L 260.792627 242.786356 
L 270.04977 242.414236 
L 282.293088 242.164816 
L 299.911521 242.049028 
L 330.071889 242.112624 
L 429.212903 242.64168 
L 514.916129 243.061941 
L 514.916129 243.061941 
" style="fill:none;stroke:#ff7f0e;stroke-linecap:square;stroke-width:3;"/>
   </g>
   <g id="line2d_14">
    <path clip-path="url(#pc7cdaa166f)" d="M 215.701382 245.015311 
L 229.437788 244.577472 
L 240.188018 244.546098 
L 263.181567 244.771785 
L 292.446083 244.968074 
L 323.800922 244.94345 
L 368.294931 244.671829 
L 514.916129 243.579592 
L 514.916129 243.579592 
" style="fill:none;stroke:#2ca02c;stroke-linecap:square;stroke-width:3;"/>
   </g>
   <g id="line2d_15">
    <path clip-path="url(#pc7cdaa166f)" d="M 216 243.539171 
L 514.617512 243.539171 
" style="fill:none;stroke:#000000;stroke-dasharray:3.2,0.8,0.5,0.8;stroke-dashoffset:0;stroke-width:0.5;"/>
   </g>
   <g id="line2d_16">
    <path clip-path="url(#pc7cdaa166f)" d="M 216 343.078341 
L 216 144 
" style="fill:none;stroke:#000000;stroke-linecap:square;stroke-width:0.5;"/>
   </g>
   <g id="line2d_17">
    <path clip-path="url(#pc7cdaa166f)" d="M 275.723502 343.078341 
L 275.723502 144 
" style="fill:none;stroke:#000000;stroke-dasharray:3.2,0.8,0.5,0.8;stroke-dashoffset:0;stroke-opacity:0.25;stroke-width:0.5;"/>
   </g>
   <g id="line2d_18">
    <path clip-path="url(#pc7cdaa166f)" d="M 395.170507 343.078341 
L 395.170507 144 
" style="fill:none;stroke:#000000;stroke-dasharray:3.2,0.8,0.5,0.8;stroke-dashoffset:0;stroke-opacity:0.25;stroke-width:0.5;"/>
   </g>
   <g id="patch_3">
    <path d="M 216 343.078341 
L 216 144 
" style="fill:none;stroke:#000000;stroke-linecap:square;stroke-linejoin:miter;stroke-width:0.8;"/>
   </g>
   <g id="patch_4">
    <path d="M 514.617512 343.078341 
L 514.617512 144 
" style="fill:none;stroke:#000000;stroke-linecap:square;stroke-linejoin:miter;stroke-width:0.8;"/>
   </g>
   <g id="patch_5">
    <path d="M 216 343.078341 
L 514.617512 343.078341 
" style="fill:none;stroke:#000000;stroke-linecap:square;stroke-linejoin:miter;stroke-width:0.8;"/>
   </g>
   <g id="patch_6">
    <path d="M 216 144 
L 514.617512 144 
" style="fill:none;stroke:#000000;stroke-linecap:square;stroke-linejoin:miter;stroke-width:0.8;"/>
   </g>
  </g>
  <g id="axes_2">
   <g id="patch_7">
    <path d="M 565.382488 343.078341 
L 864 343.078341 
L 864 144 
L 565.382488 144 
z
" style="fill:#ffffff;"/>
   </g>
   <g id="matplotlib.axis_3">
    <g id="xtick_7">
     <g id="line2d_19">
      <g>
       <use style="fill:#ffffff;stroke:#000000;stroke-width:0.8;" x="565.382488" xlink:href="#mf6c2fe8bfb" y="343.078341"/>
      </g>
     </g>
    </g>
    <g id="xtick_8">
     <g id="line2d_20">
      <g>
       <use style="fill:#ffffff;stroke:#000000;stroke-width:0.8;" x="625.105991" xlink:href="#mf6c2fe8bfb" y="343.078341"/>
      </g>
     </g>
    </g>
    <g id="xtick_9">
     <g id="line2d_21">
      <g>
       <use style="fill:#ffffff;stroke:#000000;stroke-width:0.8;" x="684.829493" xlink:href="#mf6c2fe8bfb" y="343.078341"/>
      </g>
     </g>
    </g>
    <g id="xtick_10">
     <g id="line2d_22">
      <g>
       <use style="fill:#ffffff;stroke:#000000;stroke-width:0.8;" x="744.552995" xlink:href="#mf6c2fe8bfb" y="343.078341"/>
      </g>
     </g>
    </g>
    <g id="xtick_11">
     <g id="line2d_23">
      <g>
       <use style="fill:#ffffff;stroke:#000000;stroke-width:0.8;" x="804.276498" xlink:href="#mf6c2fe8bfb" y="343.078341"/>
      </g>
     </g>
    </g>
    <g id="xtick_12">
     <g id="line2d_24">
      <g>
       <use style="fill:#ffffff;stroke:#000000;stroke-width:0.8;" x="864" xlink:href="#mf6c2fe8bfb" y="343.078341"/>
      </g>
     </g>
    </g>
   </g>
   <g id="matplotlib.axis_4">
    <g id="ytick_6">
     <g id="line2d_25">
      <g>
       <use style="fill:#ffffff;stroke:#000000;stroke-width:0.8;" x="565.382488" xlink:href="#mb9dc811cab" y="343.078341"/>
      </g>
     </g>
    </g>
    <g id="ytick_7">
     <g id="line2d_26">
      <g>
       <use style="fill:#ffffff;stroke:#000000;stroke-width:0.8;" x="565.382488" xlink:href="#mb9dc811cab" y="293.308756"/>
      </g>
     </g>
    </g>
    <g id="ytick_8">
     <g id="line2d_27">
      <g>
       <use style="fill:#ffffff;stroke:#000000;stroke-width:0.8;" x="565.382488" xlink:href="#mb9dc811cab" y="243.539171"/>
      </g>
     </g>
    </g>
    <g id="ytick_9">
     <g id="line2d_28">
      <g>
       <use style="fill:#ffffff;stroke:#000000;stroke-width:0.8;" x="565.382488" xlink:href="#mb9dc811cab" y="193.769585"/>
      </g>
     </g>
    </g>
    <g id="ytick_10">
     <g id="line2d_29">
      <g>
       <use style="fill:#ffffff;stroke:#000000;stroke-width:0.8;" x="565.382488" xlink:href="#mb9dc811cab" y="144"/>
      </g>
     </g>
    </g>
    <g id="text_7">
     <!-- $C_d$ -->
     <defs>
      <path d="M 52.09375 68.296875 
L 52.703125 67.703125 
L 48.796875 52.5 
L 42.796875 30.59375 
Q 36.296875 6.703125 36.296875 6 
Q 36.296875 4 38.09375 4 
Q 39.40625 4 40.84375 5.25 
Q 42.296875 6.5 46.296875 11.09375 
L 47.5 10.09375 
Q 39.796875 -1.296875 32.796875 -1.296875 
Q 30.90625 -1.296875 29.796875 -0.09375 
Q 28.703125 1.09375 28.703125 3.203125 
Q 28.703125 6.203125 30 12.09375 
Q 25.703125 4.796875 21.546875 1.84375 
Q 17.40625 -1.09375 12.203125 -1.09375 
Q 7.203125 -1.09375 4.34375 1.953125 
Q 1.5 5 1.5 10.59375 
Q 1.5 22.5 11.140625 33.296875 
Q 20.796875 44.09375 30.703125 44.09375 
Q 33.796875 44.09375 35.25 42.6875 
Q 36.703125 41.296875 37.203125 38.296875 
L 37.296875 38.296875 
L 41.796875 54.59375 
Q 43.203125 59.5 43.203125 61.703125 
Q 43.203125 63.296875 42.09375 63.6875 
Q 41 64.09375 36.796875 64.296875 
L 36.796875 66 
Q 44.5 66.703125 52.09375 68.296875 
z
M 35.59375 36.09375 
Q 35.59375 38.703125 34.140625 40.25 
Q 32.703125 41.796875 30.90625 41.796875 
Q 26.203125 41.796875 21.796875 37.203125 
Q 16.796875 31.90625 13.5 24.546875 
Q 10.203125 17.203125 10.203125 11 
Q 10.203125 7.59375 11.75 5.640625 
Q 13.296875 3.703125 16 3.703125 
Q 20.5 3.703125 25.09375 8.59375 
Q 29.703125 13.5 32.640625 21.09375 
Q 35.59375 28.703125 35.59375 36.09375 
z
" id="STIXGeneral-Italic-100"/>
     </defs>
     <g transform="translate(551.344051 251.029171)rotate(-90)scale(0.14 -0.14)">
      <use transform="translate(0 0.40625)" xlink:href="#STIXGeneral-Italic-67"/>
      <use transform="translate(66.699997 -12.821875)scale(0.7)" xlink:href="#STIXGeneral-Italic-100"/>
     </g>
    </g>
   </g>
   <g id="line2d_30">
    <path clip-path="url(#p7a7ea91b8b)" d="M 565.083871 317.622582 
L 565.681106 315.331818 
L 566.278341 313.868223 
L 566.875576 312.854829 
L 567.472811 312.125282 
L 571.952074 307.42316 
L 576.132719 301.259966 
L 579.118894 296.12346 
L 584.792627 285.85416 
L 588.376037 279.77796 
L 590.764977 276.068158 
L 593.153917 272.690893 
L 596.140092 268.910029 
L 598.529032 266.216817 
L 600.917972 263.831216 
L 603.60553 261.454994 
L 606.293088 259.374195 
L 609.57788 257.201122 
L 612.564055 255.513686 
L 615.55023 254.060345 
L 618.237788 252.91669 
L 622.418433 251.411695 
L 627.494931 249.94686 
L 630.182488 249.311557 
L 638.543779 247.713448 
L 641.828571 247.254802 
L 650.787097 246.174013 
L 658.551152 245.484431 
L 661.23871 245.305682 
L 667.21106 244.921991 
L 675.273733 244.516956 
L 681.246083 244.271377 
L 696.176959 243.809347 
L 708.420276 243.541504 
L 734.101382 243.182178 
L 778.296774 242.907021 
L 822.492166 242.824947 
L 864.298618 242.820515 
L 864.298618 242.820515 
" style="fill:none;stroke:#1f77b4;stroke-linecap:square;stroke-width:3;"/>
   </g>
   <g id="line2d_31">
    <path clip-path="url(#p7a7ea91b8b)" d="M 565.083871 271.519296 
L 565.681106 270.636093 
L 566.278341 270.052776 
L 567.174194 269.51986 
L 568.368664 269.19466 
L 570.458986 268.925578 
L 572.549309 268.642308 
L 574.639631 268.191904 
L 577.924424 267.168779 
L 582.403687 265.266368 
L 586.882949 263.059088 
L 596.737327 258.161615 
L 601.813825 255.916884 
L 605.99447 254.28125 
L 610.473733 252.755616 
L 615.251613 251.378592 
L 620.029493 250.219809 
L 625.404608 249.144638 
L 631.376959 248.190024 
L 637.946544 247.364916 
L 645.710599 246.62965 
L 656.460829 245.906146 
L 667.808295 245.374436 
L 683.336406 244.875345 
L 706.927189 244.374646 
L 743.358525 243.883061 
L 782.477419 243.590518 
L 830.554839 243.446683 
L 864.298618 243.41681 
L 864.298618 243.41681 
" style="fill:none;stroke:#ff7f0e;stroke-linecap:square;stroke-width:3;"/>
   </g>
   <g id="line2d_32">
    <path clip-path="url(#p7a7ea91b8b)" d="M 565.083871 251.470654 
L 565.979724 250.674417 
L 567.174194 249.929498 
L 568.965899 249.143439 
L 571.354839 248.375589 
L 574.938249 247.443246 
L 579.716129 246.469469 
L 585.688479 245.577322 
L 591.063594 245.027526 
L 597.63318 244.591972 
L 606.591705 244.263617 
L 619.432258 244.059639 
L 652.877419 243.853516 
L 716.184332 243.707831 
L 806.068203 243.838475 
L 864.298618 243.885376 
L 864.298618 243.885376 
" style="fill:none;stroke:#2ca02c;stroke-linecap:square;stroke-width:3;"/>
   </g>
   <g id="line2d_33">
    <path clip-path="url(#p7a7ea91b8b)" d="M 565.382488 243.539171 
L 864 243.539171 
" style="fill:none;stroke:#000000;stroke-dasharray:3.2,0.8,0.5,0.8;stroke-dashoffset:0;stroke-width:0.5;"/>
   </g>
   <g id="line2d_34">
    <path clip-path="url(#p7a7ea91b8b)" d="M 565.382488 343.078341 
L 565.382488 144 
" style="fill:none;stroke:#000000;stroke-linecap:square;stroke-width:0.5;"/>
   </g>
   <g id="line2d_35">
    <path clip-path="url(#p7a7ea91b8b)" d="M 625.105991 343.078341 
L 625.105991 144 
" style="fill:none;stroke:#000000;stroke-dasharray:3.2,0.8,0.5,0.8;stroke-dashoffset:0;stroke-opacity:0.25;stroke-width:0.5;"/>
   </g>
   <g id="line2d_36">
    <path clip-path="url(#p7a7ea91b8b)" d="M 744.552995 343.078341 
L 744.552995 144 
" style="fill:none;stroke:#000000;stroke-dasharray:3.2,0.8,0.5,0.8;stroke-dashoffset:0;stroke-opacity:0.25;stroke-width:0.5;"/>
   </g>
   <g id="patch_8">
    <path d="M 565.382488 343.078341 
L 565.382488 144 
" style="fill:none;stroke:#000000;stroke-linecap:square;stroke-linejoin:miter;stroke-width:0.8;"/>
   </g>
   <g id="patch_9">
    <path d="M 864 343.078341 
L 864 144 
" style="fill:none;stroke:#000000;stroke-linecap:square;stroke-linejoin:miter;stroke-width:0.8;"/>
   </g>
   <g id="patch_10">
    <path d="M 565.382488 343.078341 
L 864 343.078341 
" style="fill:none;stroke:#000000;stroke-linecap:square;stroke-linejoin:miter;stroke-width:0.8;"/>
   </g>
   <g id="patch_11">
    <path d="M 565.382488 144 
L 864 144 
" style="fill:none;stroke:#000000;stroke-linecap:square;stroke-linejoin:miter;stroke-width:0.8;"/>
   </g>
   <g id="text_8">
    <!-- $Re = 10^2$ -->
    <defs>
     <path d="M 13.203125 65.296875 
L 38.40625 65.296875 
Q 48.09375 65.296875 53.4375 61.5 
Q 58.796875 57.703125 58.796875 51.203125 
Q 58.796875 43.40625 52.203125 38.40625 
Q 48.296875 35.40625 39.09375 33.296875 
L 48 9.796875 
Q 49.703125 5.203125 51.546875 3.390625 
Q 53.40625 1.59375 56.703125 1.59375 
L 56.703125 0 
L 42 0 
L 29.703125 32.40625 
L 23.09375 32.90625 
L 17.59375 12.59375 
Q 16.296875 8 16.296875 6.296875 
Q 16.296875 4 17.59375 3 
Q 18.90625 2 23 1.59375 
L 23 0 
L -1.296875 0 
L -1.296875 1.59375 
Q 2.703125 2.09375 4.34375 3.796875 
Q 6 5.5 7.203125 10.09375 
L 19.09375 53.203125 
Q 20.296875 57.796875 20.296875 59.5 
Q 20.296875 61.296875 18.90625 62.296875 
Q 17.703125 63.09375 13.203125 63.703125 
z
M 30.59375 59.296875 
L 24.296875 36.59375 
Q 27.40625 36.09375 29.40625 36.09375 
Q 38.296875 36.09375 43.296875 40.09375 
Q 48.296875 44.09375 48.296875 51.09375 
Q 48.296875 56.296875 45.1875 59.296875 
Q 42.09375 62.296875 36.296875 62.296875 
Q 31.40625 62.296875 30.59375 59.296875 
z
" id="STIXGeneral-Italic-82"/>
     <path d="M 35.796875 10.90625 
L 37 9.703125 
Q 28.203125 -1.09375 16.59375 -1.09375 
Q 10.5 -1.09375 6.796875 2.65625 
Q 3.09375 6.40625 3.09375 12.59375 
Q 3.09375 24.296875 12.4375 34.1875 
Q 21.796875 44.09375 33 44.09375 
Q 36.90625 44.09375 39.046875 42.296875 
Q 41.203125 40.5 41.203125 37.296875 
Q 41.203125 30.703125 33.546875 25.5 
Q 25.90625 20.296875 12.796875 18.59375 
Q 11.796875 16.59375 11.796875 12.5 
Q 11.796875 8.40625 14.34375 5.90625 
Q 16.90625 3.40625 21.09375 3.40625 
Q 24.40625 3.40625 27.40625 4.953125 
Q 30.40625 6.5 35.796875 10.90625 
z
M 15.203125 25.203125 
L 13.5 20.796875 
Q 24.703125 23.5 29.59375 28.203125 
Q 34.59375 33 34.59375 37.90625 
Q 34.59375 41.796875 31.09375 41.796875 
Q 26.90625 41.796875 22.34375 36.9375 
Q 17.796875 32.09375 15.203125 25.203125 
z
" id="STIXGeneral-Italic-101"/>
     <path d="M 63.703125 32 
L 4.796875 32 
L 4.796875 38.59375 
L 63.703125 38.59375 
z
M 63.703125 12 
L 4.796875 12 
L 4.796875 18.59375 
L 63.703125 18.59375 
z
" id="STIXGeneral-Regular-61"/>
     <path d="M 47.40625 13.703125 
L 42 0 
L 2.90625 0 
L 2.90625 1.203125 
L 20.703125 20.09375 
Q 27.703125 27.40625 30.703125 33.5 
Q 33.703125 39.59375 33.703125 46.09375 
Q 33.703125 52.796875 30 56.5 
Q 26.296875 60.203125 19.796875 60.203125 
Q 14.40625 60.203125 11.25 57.390625 
Q 8.09375 54.59375 5.09375 47.203125 
L 3 47.703125 
Q 4.703125 57 9.84375 62.296875 
Q 15 67.59375 23.796875 67.59375 
Q 32.09375 67.59375 37.1875 62.59375 
Q 42.296875 57.59375 42.296875 50 
Q 42.296875 38.703125 29.5 25.203125 
L 13 7.59375 
L 36.40625 7.59375 
Q 39.703125 7.59375 41.640625 8.890625 
Q 43.59375 10.203125 46 14.296875 
z
" id="STIXGeneral-Regular-50"/>
    </defs>
    <g transform="translate(875.754101 246.800733)scale(0.14 -0.14)">
     <use transform="translate(0 0.409375)" xlink:href="#STIXGeneral-Italic-82"/>
     <use transform="translate(61.099991 0.409375)" xlink:href="#STIXGeneral-Italic-101"/>
     <use transform="translate(119.939981 0.409375)" xlink:href="#STIXGeneral-Regular-61"/>
     <use transform="translate(202.879962 0.409375)" xlink:href="#STIXGeneral-Regular-49"/>
     <use transform="translate(252.879947 0.409375)" xlink:href="#STIXGeneral-Regular-48"/>
     <use transform="translate(304.423213 35.684375)scale(0.7)" xlink:href="#STIXGeneral-Regular-50"/>
    </g>
   </g>
   <g id="legend_1">
    <g id="line2d_37">
     <path d="M 419.720593 122.743399 
L 443.044593 122.743399 
" style="fill:none;stroke:#1f77b4;stroke-linecap:square;stroke-width:3;"/>
    </g>
    <g id="line2d_38"/>
    <g id="text_9">
     <!-- $s/c = 1.5$ -->
     <defs>
      <path d="M 36.59375 44.203125 
L 34.59375 30.203125 
L 33 30.203125 
Q 31.59375 41.796875 24.09375 41.796875 
Q 21.40625 41.796875 19.796875 40.296875 
Q 18.203125 38.796875 18.203125 36.09375 
Q 18.203125 32.296875 23.59375 25.90625 
Q 30.40625 18 30.40625 12.296875 
Q 30.40625 6.203125 26.34375 2.546875 
Q 22.296875 -1.09375 16 -1.09375 
Q 13.09375 -1.09375 10.5 -0.09375 
Q 8.40625 0.796875 6.09375 0.796875 
Q 4.09375 0.796875 3.203125 -1.296875 
L 1.59375 -1.296875 
L 3.59375 14.59375 
L 5.203125 14.59375 
Q 7.203125 1 15.203125 1 
Q 18.796875 1 20.796875 3 
Q 22.796875 5 22.796875 8.703125 
Q 22.796875 13.203125 17.203125 20.203125 
Q 10.90625 28.09375 10.90625 33.296875 
Q 10.90625 38.296875 14.203125 41.1875 
Q 17.5 44.09375 23 44.09375 
Q 25 44.09375 28.59375 43.09375 
Q 30.796875 42.40625 32.203125 42.40625 
Q 34.203125 42.40625 35.203125 44.203125 
z
" id="STIXGeneral-Italic-115"/>
      <path d="M 28.703125 67.59375 
L 5.90625 -1.40625 
L -0.90625 -1.40625 
L 22 67.59375 
z
" id="STIXGeneral-Regular-47"/>
      <path d="M 35 10.703125 
L 36.59375 9.703125 
Q 32 3.90625 27.640625 1.40625 
Q 23.296875 -1.09375 17.703125 -1.09375 
Q 10.59375 -1.09375 6.796875 2.796875 
Q 3 6.703125 3 14.296875 
Q 3 21 6.390625 27.25 
Q 9.796875 33.5 15.296875 38 
Q 23 44.09375 32 44.09375 
Q 36.59375 44.09375 39.546875 41.796875 
Q 42.5 39.5 42.5 36 
Q 42.5 34 41.09375 32.59375 
Q 39.703125 31.203125 37.703125 31.203125 
Q 35.703125 31.203125 34.75 32.34375 
Q 33.796875 33.5 33.796875 35.203125 
Q 33.796875 36.09375 34.546875 37.546875 
Q 35.296875 39 35.296875 40 
Q 35.296875 42 31.59375 42 
Q 25.296875 42 20.703125 37.203125 
Q 11.59375 27.59375 11.59375 13.90625 
Q 11.59375 8.5 13.890625 5.5 
Q 16.203125 2.5 20.5 2.5 
Q 24.40625 2.5 27.59375 4.390625 
Q 30.796875 6.296875 35 10.703125 
z
" id="STIXGeneral-Italic-99"/>
      <path d="M 18.09375 4.296875 
Q 18.09375 2.09375 16.4375 0.5 
Q 14.796875 -1.09375 12.5 -1.09375 
Q 10.203125 -1.09375 8.59375 0.5 
Q 7 2.09375 7 4.390625 
Q 7 6.703125 8.640625 8.34375 
Q 10.296875 10 12.59375 10 
Q 14.796875 10 16.4375 8.296875 
Q 18.09375 6.59375 18.09375 4.296875 
z
" id="STIXGeneral-Regular-46"/>
     </defs>
     <g transform="translate(452.374193 126.825099)scale(0.11662 -0.11662)">
      <use transform="translate(0 0.203125)" xlink:href="#STIXGeneral-Italic-115"/>
      <use transform="translate(38.899994 0.203125)" xlink:href="#STIXGeneral-Regular-47"/>
      <use transform="translate(66.699982 0.203125)" xlink:href="#STIXGeneral-Italic-99"/>
      <use transform="translate(125.539972 0.203125)" xlink:href="#STIXGeneral-Regular-61"/>
      <use transform="translate(208.479953 0.203125)" xlink:href="#STIXGeneral-Regular-49"/>
      <use transform="translate(258.479938 0.203125)" xlink:href="#STIXGeneral-Regular-46"/>
      <use transform="translate(283.479922 0.203125)" xlink:href="#STIXGeneral-Regular-53"/>
     </g>
    </g>
    <g id="line2d_39">
     <path d="M 514.649273 122.743399 
L 537.973273 122.743399 
" style="fill:none;stroke:#ff7f0e;stroke-linecap:square;stroke-width:3;"/>
    </g>
    <g id="line2d_40"/>
    <g id="text_10">
     <!-- $s/c = 3.0$ -->
     <defs>
      <path d="M 6.09375 51 
L 4.5 51.40625 
Q 6.796875 58.90625 11.6875 63.25 
Q 16.59375 67.59375 24.09375 67.59375 
Q 31.09375 67.59375 35.390625 63.796875 
Q 39.703125 60 39.703125 53.90625 
Q 39.703125 45.703125 30.40625 40.09375 
Q 35.90625 37.703125 38.703125 34.796875 
Q 43.09375 29.90625 43.09375 21.90625 
Q 43.09375 13.90625 38.5 7.90625 
Q 35.09375 3.296875 28.75 0.9375 
Q 22.40625 -1.40625 15.296875 -1.40625 
Q 4.09375 -1.40625 4.09375 4.296875 
Q 4.09375 5.90625 5.296875 6.90625 
Q 6.5 7.90625 8.203125 7.90625 
Q 10.703125 7.90625 14.296875 5.296875 
Q 18.703125 2.203125 22.90625 2.203125 
Q 28.40625 2.203125 32.15625 6.640625 
Q 35.90625 11.09375 35.90625 17.5 
Q 35.90625 29 25.5 32 
Q 22.40625 33 15.296875 33 
L 15.296875 34.40625 
Q 20.90625 36.296875 23.703125 38 
Q 31.796875 42.59375 31.796875 51.40625 
Q 31.796875 56.40625 28.9375 59 
Q 26.09375 61.59375 21 61.59375 
Q 12 61.59375 6.09375 51 
z
" id="STIXGeneral-Regular-51"/>
     </defs>
     <g transform="translate(547.302873 126.825099)scale(0.11662 -0.11662)">
      <use transform="translate(0 0.40625)" xlink:href="#STIXGeneral-Italic-115"/>
      <use transform="translate(38.899994 0.40625)" xlink:href="#STIXGeneral-Regular-47"/>
      <use transform="translate(66.699982 0.40625)" xlink:href="#STIXGeneral-Italic-99"/>
      <use transform="translate(125.539972 0.40625)" xlink:href="#STIXGeneral-Regular-61"/>
      <use transform="translate(208.479953 0.40625)" xlink:href="#STIXGeneral-Regular-51"/>
      <use transform="translate(258.479938 0.40625)" xlink:href="#STIXGeneral-Regular-46"/>
      <use transform="translate(283.479922 0.40625)" xlink:href="#STIXGeneral-Regular-48"/>
     </g>
    </g>
    <g id="line2d_41">
     <path d="M 609.577953 122.743399 
L 632.901953 122.743399 
" style="fill:none;stroke:#2ca02c;stroke-linecap:square;stroke-width:3;"/>
    </g>
    <g id="line2d_42"/>
    <g id="text_11">
     <!-- $s/c = 6.0$ -->
     <defs>
      <path d="M 44.59375 68.40625 
L 44.796875 66.796875 
Q 33 64.90625 25.09375 57.25 
Q 17.203125 49.59375 15.203125 38.296875 
Q 21 42.796875 27.90625 42.796875 
Q 36.703125 42.796875 41.75 37.1875 
Q 46.796875 31.59375 46.796875 21.90625 
Q 46.796875 12.09375 41.703125 5.90625 
Q 35.796875 -1.40625 25.796875 -1.40625 
Q 13.59375 -1.40625 8.09375 8.703125 
Q 3.40625 17.296875 3.40625 27.90625 
Q 3.40625 44.296875 14.296875 55.5 
Q 20.5 61.90625 27.046875 64.546875 
Q 33.59375 67.203125 44.59375 68.40625 
z
M 37.796875 18.796875 
Q 37.796875 38.203125 24.296875 38.203125 
Q 19.296875 38.203125 16 35.546875 
Q 12.703125 32.90625 12.703125 26.59375 
Q 12.703125 14.90625 16.34375 8.15625 
Q 20 1.40625 26.90625 1.40625 
Q 32.203125 1.40625 35 6.15625 
Q 37.796875 10.90625 37.796875 18.796875 
z
" id="STIXGeneral-Regular-54"/>
     </defs>
     <g transform="translate(642.231553 126.825099)scale(0.11662 -0.11662)">
      <use transform="translate(0 0.59375)" xlink:href="#STIXGeneral-Italic-115"/>
      <use transform="translate(38.899994 0.59375)" xlink:href="#STIXGeneral-Regular-47"/>
      <use transform="translate(66.699982 0.59375)" xlink:href="#STIXGeneral-Italic-99"/>
      <use transform="translate(125.539972 0.59375)" xlink:href="#STIXGeneral-Regular-61"/>
      <use transform="translate(208.479953 0.59375)" xlink:href="#STIXGeneral-Regular-54"/>
      <use transform="translate(258.479938 0.59375)" xlink:href="#STIXGeneral-Regular-46"/>
      <use transform="translate(283.479922 0.59375)" xlink:href="#STIXGeneral-Regular-48"/>
     </g>
    </g>
   </g>
  </g>
  <g id="axes_3">
   <g id="patch_12">
    <path d="M 216 576 
L 514.617512 576 
L 514.617512 376.921659 
L 216 376.921659 
z
" style="fill:#ffffff;"/>
   </g>
   <g id="matplotlib.axis_5">
    <g id="xtick_13">
     <g id="line2d_43">
      <g>
       <use style="fill:#ffffff;stroke:#000000;stroke-width:0.8;" x="216" xlink:href="#mf6c2fe8bfb" y="576"/>
      </g>
     </g>
     <g id="text_12">
      <!-- 1.0 -->
      <g transform="translate(207.25 592.561563)scale(0.14 -0.14)">
       <use xlink:href="#STIXGeneral-Regular-49"/>
       <use x="49.999985" xlink:href="#STIXGeneral-Regular-46"/>
       <use x="74.999969" xlink:href="#STIXGeneral-Regular-48"/>
      </g>
     </g>
    </g>
    <g id="xtick_14">
     <g id="line2d_44">
      <g>
       <use style="fill:#ffffff;stroke:#000000;stroke-width:0.8;" x="275.723502" xlink:href="#mf6c2fe8bfb" y="576"/>
      </g>
     </g>
     <g id="text_13">
      <!-- 1.2 -->
      <g transform="translate(266.973502 592.561563)scale(0.14 -0.14)">
       <use xlink:href="#STIXGeneral-Regular-49"/>
       <use x="49.999985" xlink:href="#STIXGeneral-Regular-46"/>
       <use x="74.999969" xlink:href="#STIXGeneral-Regular-50"/>
      </g>
     </g>
    </g>
    <g id="xtick_15">
     <g id="line2d_45">
      <g>
       <use style="fill:#ffffff;stroke:#000000;stroke-width:0.8;" x="335.447005" xlink:href="#mf6c2fe8bfb" y="576"/>
      </g>
     </g>
     <g id="text_14">
      <!-- 1.4 -->
      <defs>
       <path d="M 47.296875 16.703125 
L 37 16.703125 
L 37 0 
L 29.203125 0 
L 29.203125 16.703125 
L 1.203125 16.703125 
L 1.203125 23.09375 
L 32.59375 67.59375 
L 37 67.59375 
L 37 23.09375 
L 47.296875 23.09375 
z
M 29.203125 23.09375 
L 29.203125 57.40625 
L 5.203125 23.09375 
z
" id="STIXGeneral-Regular-52"/>
      </defs>
      <g transform="translate(326.697005 592.561563)scale(0.14 -0.14)">
       <use xlink:href="#STIXGeneral-Regular-49"/>
       <use x="49.999985" xlink:href="#STIXGeneral-Regular-46"/>
       <use x="74.999969" xlink:href="#STIXGeneral-Regular-52"/>
      </g>
     </g>
    </g>
    <g id="xtick_16">
     <g id="line2d_46">
      <g>
       <use style="fill:#ffffff;stroke:#000000;stroke-width:0.8;" x="395.170507" xlink:href="#mf6c2fe8bfb" y="576"/>
      </g>
     </g>
     <g id="text_15">
      <!-- 1.6 -->
      <g transform="translate(386.420507 592.561563)scale(0.14 -0.14)">
       <use xlink:href="#STIXGeneral-Regular-49"/>
       <use x="49.999985" xlink:href="#STIXGeneral-Regular-46"/>
       <use x="74.999969" xlink:href="#STIXGeneral-Regular-54"/>
      </g>
     </g>
    </g>
    <g id="xtick_17">
     <g id="line2d_47">
      <g>
       <use style="fill:#ffffff;stroke:#000000;stroke-width:0.8;" x="454.894009" xlink:href="#mf6c2fe8bfb" y="576"/>
      </g>
     </g>
     <g id="text_16">
      <!-- 1.8 -->
      <defs>
       <path d="M 44.5 15.5 
Q 44.5 7.796875 39.140625 3.1875 
Q 33.796875 -1.40625 24.796875 -1.40625 
Q 16.40625 -1.40625 11 3.1875 
Q 5.59375 7.796875 5.59375 14.90625 
Q 5.59375 20.203125 8.1875 23.953125 
Q 10.796875 27.703125 18.59375 33.203125 
Q 11.09375 39.40625 8.640625 43.203125 
Q 6.203125 47 6.203125 52 
Q 6.203125 59.09375 11.640625 63.34375 
Q 17.09375 67.59375 25.59375 67.59375 
Q 32.90625 67.59375 37.65625 63.4375 
Q 42.40625 59.296875 42.40625 53.296875 
Q 42.40625 47.796875 39.546875 44.5 
Q 36.703125 41.203125 29 37.09375 
Q 38 31.09375 41.25 26.390625 
Q 44.5 21.703125 44.5 15.5 
z
M 35.5 53.296875 
Q 35.5 58.5 32.59375 61.640625 
Q 29.703125 64.796875 24.59375 64.796875 
Q 19.5 64.796875 16.546875 62.140625 
Q 13.59375 59.5 13.59375 54.890625 
Q 13.59375 50.296875 16.546875 46.546875 
Q 19.5 42.796875 26.09375 38.90625 
Q 31.203125 41.90625 33.34375 45.25 
Q 35.5 48.59375 35.5 53.296875 
z
M 27.09375 27.203125 
L 21.203125 31.203125 
Q 16.796875 27.59375 15 24.140625 
Q 13.203125 20.703125 13.203125 15.796875 
Q 13.203125 9 16.640625 5.203125 
Q 20.09375 1.40625 25.90625 1.40625 
Q 30.796875 1.40625 33.84375 4.453125 
Q 36.90625 7.5 36.90625 12.40625 
Q 36.90625 16.90625 34.59375 20.296875 
Q 32.296875 23.703125 27.09375 27.203125 
z
" id="STIXGeneral-Regular-56"/>
      </defs>
      <g transform="translate(446.144009 592.561563)scale(0.14 -0.14)">
       <use xlink:href="#STIXGeneral-Regular-49"/>
       <use x="49.999985" xlink:href="#STIXGeneral-Regular-46"/>
       <use x="74.999969" xlink:href="#STIXGeneral-Regular-56"/>
      </g>
     </g>
    </g>
    <g id="xtick_18">
     <g id="line2d_48">
      <g>
       <use style="fill:#ffffff;stroke:#000000;stroke-width:0.8;" x="514.617512" xlink:href="#mf6c2fe8bfb" y="576"/>
      </g>
     </g>
     <g id="text_17">
      <!-- 2.0 -->
      <g transform="translate(505.867512 592.561563)scale(0.14 -0.14)">
       <use xlink:href="#STIXGeneral-Regular-50"/>
       <use x="49.999985" xlink:href="#STIXGeneral-Regular-46"/>
       <use x="74.999969" xlink:href="#STIXGeneral-Regular-48"/>
      </g>
     </g>
    </g>
    <g id="text_18">
     <!-- $\^t$ -->
     <defs>
      <path d="M -7.5 50.703125 
L -10.90625 50.703125 
L -23.09375 61 
L -35.203125 50.703125 
L -38.59375 50.703125 
L -26.203125 67.40625 
L -20 67.40625 
z
" id="STIXGeneral-Regular-770"/>
      <path d="M 29.59375 42.796875 
L 29.09375 39.59375 
L 20.703125 39.59375 
L 12 6.796875 
Q 11.796875 6 11.796875 5.40625 
Q 11.796875 3.796875 13.296875 3.796875 
Q 14.5 3.796875 16.09375 5.34375 
Q 17.703125 6.90625 21.40625 11.703125 
L 22.703125 11 
Q 18.09375 4 15.140625 1.453125 
Q 12.203125 -1.09375 8.40625 -1.09375 
Q 3.796875 -1.09375 3.796875 2.59375 
Q 3.796875 3.59375 5.40625 10 
L 13.203125 39.59375 
L 5.703125 39.59375 
L 5.59375 40.203125 
Q 5.59375 42 8.90625 42.703125 
Q 11.40625 43.296875 15.5 46.546875 
Q 19.59375 49.796875 22.203125 53.703125 
Q 22.796875 54.59375 23.59375 54.59375 
Q 24.5 54.59375 24.5 53.796875 
Q 24.5 53.296875 24.40625 53.09375 
L 21.59375 42.796875 
z
" id="STIXGeneral-Italic-116"/>
     </defs>
     <g transform="translate(363.348756 609.161563)scale(0.14 -0.14)">
      <use transform="translate(39.042969 16.59375)" xlink:href="#STIXGeneral-Regular-770"/>
      <use transform="translate(0 0.203125)" xlink:href="#STIXGeneral-Italic-116"/>
     </g>
    </g>
   </g>
   <g id="matplotlib.axis_6">
    <g id="ytick_11">
     <g id="line2d_49">
      <g>
       <use style="fill:#ffffff;stroke:#000000;stroke-width:0.8;" x="216" xlink:href="#mb9dc811cab" y="576"/>
      </g>
     </g>
     <g id="text_19">
      <!-- −10 -->
      <g transform="translate(185.41 580.780781)scale(0.14 -0.14)">
       <use xlink:href="#STIXGeneral-Regular-8722"/>
       <use x="68.499985" xlink:href="#STIXGeneral-Regular-49"/>
       <use x="118.499969" xlink:href="#STIXGeneral-Regular-48"/>
      </g>
     </g>
    </g>
    <g id="ytick_12">
     <g id="line2d_50">
      <g>
       <use style="fill:#ffffff;stroke:#000000;stroke-width:0.8;" x="216" xlink:href="#mb9dc811cab" y="526.230415"/>
      </g>
     </g>
     <g id="text_20">
      <!-- −5 -->
      <g transform="translate(192.41 531.011196)scale(0.14 -0.14)">
       <use xlink:href="#STIXGeneral-Regular-8722"/>
       <use x="68.499985" xlink:href="#STIXGeneral-Regular-53"/>
      </g>
     </g>
    </g>
    <g id="ytick_13">
     <g id="line2d_51">
      <g>
       <use style="fill:#ffffff;stroke:#000000;stroke-width:0.8;" x="216" xlink:href="#mb9dc811cab" y="476.460829"/>
      </g>
     </g>
     <g id="text_21">
      <!-- 0 -->
      <g transform="translate(202 481.241611)scale(0.14 -0.14)">
       <use xlink:href="#STIXGeneral-Regular-48"/>
      </g>
     </g>
    </g>
    <g id="ytick_14">
     <g id="line2d_52">
      <g>
       <use style="fill:#ffffff;stroke:#000000;stroke-width:0.8;" x="216" xlink:href="#mb9dc811cab" y="426.691244"/>
      </g>
     </g>
     <g id="text_22">
      <!-- 5 -->
      <g transform="translate(202 431.472025)scale(0.14 -0.14)">
       <use xlink:href="#STIXGeneral-Regular-53"/>
      </g>
     </g>
    </g>
    <g id="ytick_15">
     <g id="line2d_53">
      <g>
       <use style="fill:#ffffff;stroke:#000000;stroke-width:0.8;" x="216" xlink:href="#mb9dc811cab" y="376.921659"/>
      </g>
     </g>
     <g id="text_23">
      <!-- 10 -->
      <g transform="translate(195 381.70244)scale(0.14 -0.14)">
       <use xlink:href="#STIXGeneral-Regular-49"/>
       <use x="49.999985" xlink:href="#STIXGeneral-Regular-48"/>
      </g>
     </g>
    </g>
    <g id="text_24">
     <!-- $C_l$ -->
     <g transform="translate(178.371562 482.830829)rotate(-90)scale(0.14 -0.14)">
      <use transform="translate(0 0.40625)" xlink:href="#STIXGeneral-Italic-67"/>
      <use transform="translate(66.699997 -12.821875)scale(0.7)" xlink:href="#STIXGeneral-Italic-108"/>
     </g>
    </g>
   </g>
   <g id="line2d_54">
    <path clip-path="url(#p6bdea8d2f4)" d="M 215.701382 492.407824 
L 217.791705 490.055226 
L 221.375115 486.639107 
L 224.36129 484.222515 
L 226.75023 482.522646 
L 229.437788 480.886464 
L 232.722581 479.266546 
L 234.812903 478.459994 
L 238.097696 477.48413 
L 240.486636 476.96093 
L 244.667281 476.354626 
L 248.847926 475.995853 
L 252.729954 475.795471 
L 264.674654 475.550755 
L 290.654378 475.324019 
L 313.050691 475.456238 
L 437.275576 476.382988 
L 504.763134 476.397474 
L 514.916129 476.391392 
L 514.916129 476.391392 
" style="fill:none;stroke:#1f77b4;stroke-linecap:square;stroke-width:3;"/>
   </g>
   <g id="line2d_55">
    <path clip-path="url(#p6bdea8d2f4)" d="M 215.701382 480.944668 
L 219.58341 479.68804 
L 231.826728 476.039505 
L 235.111521 475.427854 
L 238.694931 474.982922 
L 243.174194 474.674745 
L 248.549309 474.542509 
L 257.209217 474.605087 
L 278.709677 475.122708 
L 327.981567 476.353711 
L 362.621198 476.520244 
L 427.122581 476.660786 
L 514.916129 476.622146 
L 514.916129 476.622146 
" style="fill:none;stroke:#ff7f0e;stroke-linecap:square;stroke-width:3;"/>
   </g>
   <g id="line2d_56">
    <path clip-path="url(#p6bdea8d2f4)" d="M 215.701382 477.885329 
L 220.479263 477.440882 
L 227.347465 477.063356 
L 237.799078 476.713911 
L 248.549309 476.571526 
L 259.896774 476.667549 
L 297.522581 477.144393 
L 323.800922 477.080925 
L 358.141935 477.021337 
L 373.371429 476.91626 
L 385.017512 476.610988 
L 402.635945 476.105701 
L 413.087558 476.188207 
L 428.018433 476.218709 
L 461.762212 475.928239 
L 479.380645 475.829209 
L 499.089401 475.961056 
L 514.916129 476.147994 
L 514.916129 476.147994 
" style="fill:none;stroke:#2ca02c;stroke-linecap:square;stroke-width:3;"/>
   </g>
   <g id="line2d_57">
    <path clip-path="url(#p6bdea8d2f4)" d="M 216 476.460829 
L 514.617512 476.460829 
" style="fill:none;stroke:#000000;stroke-dasharray:3.2,0.8,0.5,0.8;stroke-dashoffset:0;stroke-width:0.5;"/>
   </g>
   <g id="line2d_58">
    <path clip-path="url(#p6bdea8d2f4)" d="M 216 576 
L 216 376.921659 
" style="fill:none;stroke:#000000;stroke-linecap:square;stroke-width:0.5;"/>
   </g>
   <g id="line2d_59">
    <path clip-path="url(#p6bdea8d2f4)" d="M 275.723502 576 
L 275.723502 376.921659 
" style="fill:none;stroke:#000000;stroke-dasharray:3.2,0.8,0.5,0.8;stroke-dashoffset:0;stroke-opacity:0.25;stroke-width:0.5;"/>
   </g>
   <g id="line2d_60">
    <path clip-path="url(#p6bdea8d2f4)" d="M 395.170507 576 
L 395.170507 376.921659 
" style="fill:none;stroke:#000000;stroke-dasharray:3.2,0.8,0.5,0.8;stroke-dashoffset:0;stroke-opacity:0.25;stroke-width:0.5;"/>
   </g>
   <g id="patch_13">
    <path d="M 216 576 
L 216 376.921659 
" style="fill:none;stroke:#000000;stroke-linecap:square;stroke-linejoin:miter;stroke-width:0.8;"/>
   </g>
   <g id="patch_14">
    <path d="M 514.617512 576 
L 514.617512 376.921659 
" style="fill:none;stroke:#000000;stroke-linecap:square;stroke-linejoin:miter;stroke-width:0.8;"/>
   </g>
   <g id="patch_15">
    <path d="M 216 576 
L 514.617512 576 
" style="fill:none;stroke:#000000;stroke-linecap:square;stroke-linejoin:miter;stroke-width:0.8;"/>
   </g>
   <g id="patch_16">
    <path d="M 216 376.921659 
L 514.617512 376.921659 
" style="fill:none;stroke:#000000;stroke-linecap:square;stroke-linejoin:miter;stroke-width:0.8;"/>
   </g>
  </g>
  <g id="axes_4">
   <g id="patch_17">
    <path d="M 565.382488 576 
L 864 576 
L 864 376.921659 
L 565.382488 376.921659 
z
" style="fill:#ffffff;"/>
   </g>
   <g id="matplotlib.axis_7">
    <g id="xtick_19">
     <g id="line2d_61">
      <g>
       <use style="fill:#ffffff;stroke:#000000;stroke-width:0.8;" x="565.382488" xlink:href="#mf6c2fe8bfb" y="576"/>
      </g>
     </g>
     <g id="text_25">
      <!-- 1.0 -->
      <g transform="translate(556.632488 592.561563)scale(0.14 -0.14)">
       <use xlink:href="#STIXGeneral-Regular-49"/>
       <use x="49.999985" xlink:href="#STIXGeneral-Regular-46"/>
       <use x="74.999969" xlink:href="#STIXGeneral-Regular-48"/>
      </g>
     </g>
    </g>
    <g id="xtick_20">
     <g id="line2d_62">
      <g>
       <use style="fill:#ffffff;stroke:#000000;stroke-width:0.8;" x="625.105991" xlink:href="#mf6c2fe8bfb" y="576"/>
      </g>
     </g>
     <g id="text_26">
      <!-- 1.2 -->
      <g transform="translate(616.355991 592.561563)scale(0.14 -0.14)">
       <use xlink:href="#STIXGeneral-Regular-49"/>
       <use x="49.999985" xlink:href="#STIXGeneral-Regular-46"/>
       <use x="74.999969" xlink:href="#STIXGeneral-Regular-50"/>
      </g>
     </g>
    </g>
    <g id="xtick_21">
     <g id="line2d_63">
      <g>
       <use style="fill:#ffffff;stroke:#000000;stroke-width:0.8;" x="684.829493" xlink:href="#mf6c2fe8bfb" y="576"/>
      </g>
     </g>
     <g id="text_27">
      <!-- 1.4 -->
      <g transform="translate(676.079493 592.561563)scale(0.14 -0.14)">
       <use xlink:href="#STIXGeneral-Regular-49"/>
       <use x="49.999985" xlink:href="#STIXGeneral-Regular-46"/>
       <use x="74.999969" xlink:href="#STIXGeneral-Regular-52"/>
      </g>
     </g>
    </g>
    <g id="xtick_22">
     <g id="line2d_64">
      <g>
       <use style="fill:#ffffff;stroke:#000000;stroke-width:0.8;" x="744.552995" xlink:href="#mf6c2fe8bfb" y="576"/>
      </g>
     </g>
     <g id="text_28">
      <!-- 1.6 -->
      <g transform="translate(735.802995 592.561563)scale(0.14 -0.14)">
       <use xlink:href="#STIXGeneral-Regular-49"/>
       <use x="49.999985" xlink:href="#STIXGeneral-Regular-46"/>
       <use x="74.999969" xlink:href="#STIXGeneral-Regular-54"/>
      </g>
     </g>
    </g>
    <g id="xtick_23">
     <g id="line2d_65">
      <g>
       <use style="fill:#ffffff;stroke:#000000;stroke-width:0.8;" x="804.276498" xlink:href="#mf6c2fe8bfb" y="576"/>
      </g>
     </g>
     <g id="text_29">
      <!-- 1.8 -->
      <g transform="translate(795.526498 592.561563)scale(0.14 -0.14)">
       <use xlink:href="#STIXGeneral-Regular-49"/>
       <use x="49.999985" xlink:href="#STIXGeneral-Regular-46"/>
       <use x="74.999969" xlink:href="#STIXGeneral-Regular-56"/>
      </g>
     </g>
    </g>
    <g id="xtick_24">
     <g id="line2d_66">
      <g>
       <use style="fill:#ffffff;stroke:#000000;stroke-width:0.8;" x="864" xlink:href="#mf6c2fe8bfb" y="576"/>
      </g>
     </g>
     <g id="text_30">
      <!-- 2.0 -->
      <g transform="translate(855.25 592.561563)scale(0.14 -0.14)">
       <use xlink:href="#STIXGeneral-Regular-50"/>
       <use x="49.999985" xlink:href="#STIXGeneral-Regular-46"/>
       <use x="74.999969" xlink:href="#STIXGeneral-Regular-48"/>
      </g>
     </g>
    </g>
    <g id="text_31">
     <!-- $\^t$ -->
     <g transform="translate(712.731244 609.161563)scale(0.14 -0.14)">
      <use transform="translate(39.042969 16.59375)" xlink:href="#STIXGeneral-Regular-770"/>
      <use transform="translate(0 0.203125)" xlink:href="#STIXGeneral-Italic-116"/>
     </g>
    </g>
   </g>
   <g id="matplotlib.axis_8">
    <g id="ytick_16">
     <g id="line2d_67">
      <g>
       <use style="fill:#ffffff;stroke:#000000;stroke-width:0.8;" x="565.382488" xlink:href="#mb9dc811cab" y="576"/>
      </g>
     </g>
    </g>
    <g id="ytick_17">
     <g id="line2d_68">
      <g>
       <use style="fill:#ffffff;stroke:#000000;stroke-width:0.8;" x="565.382488" xlink:href="#mb9dc811cab" y="526.230415"/>
      </g>
     </g>
    </g>
    <g id="ytick_18">
     <g id="line2d_69">
      <g>
       <use style="fill:#ffffff;stroke:#000000;stroke-width:0.8;" x="565.382488" xlink:href="#mb9dc811cab" y="476.460829"/>
      </g>
     </g>
    </g>
    <g id="ytick_19">
     <g id="line2d_70">
      <g>
       <use style="fill:#ffffff;stroke:#000000;stroke-width:0.8;" x="565.382488" xlink:href="#mb9dc811cab" y="426.691244"/>
      </g>
     </g>
    </g>
    <g id="ytick_20">
     <g id="line2d_71">
      <g>
       <use style="fill:#ffffff;stroke:#000000;stroke-width:0.8;" x="565.382488" xlink:href="#mb9dc811cab" y="376.921659"/>
      </g>
     </g>
    </g>
    <g id="text_32">
     <!-- $C_d$ -->
     <g transform="translate(551.344051 483.950829)rotate(-90)scale(0.14 -0.14)">
      <use transform="translate(0 0.40625)" xlink:href="#STIXGeneral-Italic-67"/>
      <use transform="translate(66.699997 -12.821875)scale(0.7)" xlink:href="#STIXGeneral-Italic-100"/>
     </g>
    </g>
   </g>
   <g id="line2d_72">
    <path clip-path="url(#p5e800403e2)" d="M 565.083871 570.607951 
L 565.979724 566.543418 
L 566.875576 563.304801 
L 567.771429 561.194418 
L 568.368664 560.289406 
L 568.965899 559.729492 
L 569.861751 558.69352 
L 570.160369 558.155578 
L 570.458986 557.895683 
L 573.445161 553.048994 
L 577.327189 543.565559 
L 580.910599 533.402572 
L 581.209217 532.813397 
L 581.806452 530.787112 
L 582.702304 528.266869 
L 583.000922 527.584938 
L 583.598157 525.60986 
L 584.195392 524.001492 
L 585.688479 519.814425 
L 586.882949 516.743053 
L 587.778802 514.326446 
L 588.376037 512.945647 
L 592.258065 504.447854 
L 592.556682 503.959109 
L 593.153917 502.734446 
L 594.647005 500.101651 
L 595.24424 498.996124 
L 596.737327 496.64235 
L 601.21659 490.899535 
L 601.813825 490.458531 
L 602.709677 489.403848 
L 603.904147 488.310394 
L 604.501382 487.661967 
L 608.980645 484.327431 
L 609.876498 483.839676 
L 611.070968 483.167113 
L 611.96682 482.697355 
L 612.862673 482.22991 
L 614.35576 481.708661 
L 614.654378 481.444264 
L 615.55023 481.216251 
L 616.7447 480.802987 
L 617.043318 480.807737 
L 617.640553 480.582463 
L 617.939171 480.602498 
L 618.237788 480.738735 
L 619.133641 480.068129 
L 620.029493 479.890256 
L 620.925346 479.586484 
L 621.223963 479.694329 
L 622.717051 479.336015 
L 623.015668 479.086841 
L 623.612903 478.924609 
L 624.210138 479.084335 
L 624.807373 479.050335 
L 625.105991 478.946186 
L 625.703226 479.113063 
L 628.390783 478.438779 
L 628.689401 478.64067 
L 629.286636 478.670225 
L 629.883871 478.755555 
L 630.481106 478.529779 
L 630.779724 478.360362 
L 632.571429 478.23796 
L 632.870046 478.350727 
L 633.168664 478.290299 
L 634.363134 478.479462 
L 635.856221 478.198443 
L 637.349309 478.303856 
L 640.932719 478.214129 
L 641.828571 478.263976 
L 643.023041 478.210523 
L 644.516129 478.031265 
L 651.682949 477.789882 
L 653.773272 477.616134 
L 654.370507 477.66314 
L 656.759447 477.432567 
L 657.356682 477.458022 
L 663.030415 477.270158 
L 664.523502 477.218738 
L 666.01659 477.131693 
L 667.21106 477.11952 
L 668.704147 477.137425 
L 670.495853 477.089712 
L 680.648848 477.137097 
L 682.440553 477.17348 
L 683.635023 477.184135 
L 692.294931 477.332188 
L 704.239631 477.498715 
L 710.809217 477.488797 
L 734.997235 477.1087 
L 759.483871 476.594682 
L 777.998157 476.208164 
L 792.630415 475.898553 
L 795.61659 475.835396 
L 825.776959 475.325313 
L 855.63871 475.090256 
L 864.298618 475.049825 
L 864.298618 475.049825 
" style="fill:none;stroke:#1f77b4;stroke-linecap:square;stroke-width:3;"/>
   </g>
   <g id="line2d_73">
    <path clip-path="url(#p5e800403e2)" d="M 565.083871 520.569539 
L 565.979724 520.49635 
L 568.965899 521.016217 
L 570.160369 520.968966 
L 571.653456 520.671142 
L 572.847926 520.119553 
L 574.042396 519.267852 
L 575.535484 517.794931 
L 576.729954 516.260947 
L 579.118894 512.465916 
L 587.778802 496.939624 
L 588.973272 495.101225 
L 591.362212 491.837657 
L 594.945622 487.83403 
L 598.529032 484.822423 
L 602.41106 482.554628 
L 604.8 481.528937 
L 608.682028 480.428317 
L 610.473733 479.989378 
L 611.96682 479.786025 
L 613.16129 479.634358 
L 617.043318 479.159122 
L 621.522581 478.942842 
L 624.210138 478.79994 
L 625.105991 478.803893 
L 629.585253 478.728651 
L 631.078341 478.765121 
L 632.272811 478.758217 
L 633.467281 478.808029 
L 634.960369 478.812807 
L 636.752074 478.917041 
L 640.335484 479.109524 
L 645.411982 479.592355 
L 647.203687 479.815016 
L 650.189862 480.216383 
L 663.62765 482.061899 
L 670.197235 482.429451 
L 674.079263 482.448578 
L 684.829493 481.892494 
L 691.996313 481.370492 
L 706.628571 480.427837 
L 717.080184 479.876907 
L 724.247005 479.529495 
L 730.81659 479.218411 
L 737.684793 478.918973 
L 755.601843 478.251307 
L 769.636866 477.864129 
L 803.082028 477.345436 
L 820.103226 477.212195 
L 843.694009 477.071364 
L 856.83318 477.004033 
L 864.298618 476.967327 
L 864.298618 476.967327 
" style="fill:none;stroke:#ff7f0e;stroke-linecap:square;stroke-width:3;"/>
   </g>
   <g id="line2d_74">
    <path clip-path="url(#p5e800403e2)" d="M 565.083871 474.223061 
L 565.979724 473.67908 
L 567.174194 473.229896 
L 568.667281 472.882837 
L 571.952074 472.531266 
L 576.729954 472.316642 
L 585.389862 472.030629 
L 590.764977 472.077738 
L 596.140092 472.309523 
L 608.682028 472.979385 
L 625.105991 474.031524 
L 631.376959 474.063363 
L 636.154839 473.875845 
L 640.335484 473.598903 
L 663.926267 471.871118 
L 685.426728 470.98823 
L 693.190783 470.392193 
L 699.461751 469.702608 
L 706.628571 468.686154 
L 720.364977 466.607116 
L 725.142857 466.107735 
L 729.323502 465.85163 
L 733.504147 465.777467 
L 737.98341 465.915001 
L 743.358525 466.327772 
L 749.032258 466.969433 
L 755.303226 467.906417 
L 760.678341 468.913464 
L 769.636866 470.607535 
L 782.776037 472.623542 
L 789.345622 473.525973 
L 812.637788 476.291433 
L 820.700461 477.311846 
L 826.672811 477.90216 
L 839.513364 478.897841 
L 857.729032 480.089165 
L 864.298618 480.414648 
L 864.298618 480.414648 
" style="fill:none;stroke:#2ca02c;stroke-linecap:square;stroke-width:3;"/>
   </g>
   <g id="line2d_75">
    <path clip-path="url(#p5e800403e2)" d="M 565.382488 476.460829 
L 864 476.460829 
" style="fill:none;stroke:#000000;stroke-dasharray:3.2,0.8,0.5,0.8;stroke-dashoffset:0;stroke-width:0.5;"/>
   </g>
   <g id="line2d_76">
    <path clip-path="url(#p5e800403e2)" d="M 565.382488 576 
L 565.382488 376.921659 
" style="fill:none;stroke:#000000;stroke-linecap:square;stroke-width:0.5;"/>
   </g>
   <g id="line2d_77">
    <path clip-path="url(#p5e800403e2)" d="M 625.105991 576 
L 625.105991 376.921659 
" style="fill:none;stroke:#000000;stroke-dasharray:3.2,0.8,0.5,0.8;stroke-dashoffset:0;stroke-opacity:0.25;stroke-width:0.5;"/>
   </g>
   <g id="line2d_78">
    <path clip-path="url(#p5e800403e2)" d="M 744.552995 576 
L 744.552995 376.921659 
" style="fill:none;stroke:#000000;stroke-dasharray:3.2,0.8,0.5,0.8;stroke-dashoffset:0;stroke-opacity:0.25;stroke-width:0.5;"/>
   </g>
   <g id="patch_18">
    <path d="M 565.382488 576 
L 565.382488 376.921659 
" style="fill:none;stroke:#000000;stroke-linecap:square;stroke-linejoin:miter;stroke-width:0.8;"/>
   </g>
   <g id="patch_19">
    <path d="M 864 576 
L 864 376.921659 
" style="fill:none;stroke:#000000;stroke-linecap:square;stroke-linejoin:miter;stroke-width:0.8;"/>
   </g>
   <g id="patch_20">
    <path d="M 565.382488 576 
L 864 576 
" style="fill:none;stroke:#000000;stroke-linecap:square;stroke-linejoin:miter;stroke-width:0.8;"/>
   </g>
   <g id="patch_21">
    <path d="M 565.382488 376.921659 
L 864 376.921659 
" style="fill:none;stroke:#000000;stroke-linecap:square;stroke-linejoin:miter;stroke-width:0.8;"/>
   </g>
   <g id="text_33">
    <!-- $Re = 10^3$ -->
    <g transform="translate(875.754101 479.722392)scale(0.14 -0.14)">
     <use transform="translate(0 0.409375)" xlink:href="#STIXGeneral-Italic-82"/>
     <use transform="translate(61.099991 0.409375)" xlink:href="#STIXGeneral-Italic-101"/>
     <use transform="translate(119.939981 0.409375)" xlink:href="#STIXGeneral-Regular-61"/>
     <use transform="translate(202.879962 0.409375)" xlink:href="#STIXGeneral-Regular-49"/>
     <use transform="translate(252.879947 0.409375)" xlink:href="#STIXGeneral-Regular-48"/>
     <use transform="translate(304.423213 35.684375)scale(0.7)" xlink:href="#STIXGeneral-Regular-51"/>
    </g>
   </g>
  </g>
 </g>
 <defs>
  <clipPath id="pc7cdaa166f">
   <rect height="199.078341" width="298.617512" x="216" y="144"/>
  </clipPath>
  <clipPath id="p7a7ea91b8b">
   <rect height="199.078341" width="298.617512" x="565.382488" y="144"/>
  </clipPath>
  <clipPath id="p6bdea8d2f4">
   <rect height="199.078341" width="298.617512" x="216" y="376.921659"/>
  </clipPath>
  <clipPath id="p5e800403e2">
   <rect height="199.078341" width="298.617512" x="565.382488" y="376.921659"/>
  </clipPath>
 </defs>
</svg>
