<?xml version="1.0" encoding="utf-8" standalone="no"?>
<!DOCTYPE svg PUBLIC "-//W3C//DTD SVG 1.1//EN"
  "http://www.w3.org/Graphics/SVG/1.1/DTD/svg11.dtd">
<!-- Created with matplotlib (https://matplotlib.org/) -->
<svg height="432pt" version="1.1" viewBox="0 0 864 432" width="864pt" xmlns="http://www.w3.org/2000/svg" xmlns:xlink="http://www.w3.org/1999/xlink">
 <defs>
  <style type="text/css">
*{stroke-linecap:butt;stroke-linejoin:round;}
  </style>
 </defs>
 <g id="figure_1">
  <g id="patch_1">
   <path d="M 0 432 
L 864 432 
L 864 0 
L 0 0 
z
" style="fill:#ffffff;"/>
  </g>
  <g id="axes_1">
   <g id="patch_2">
    <path d="M 86.4 207.771429 
L 412.437736 207.771429 
L 412.437736 43.2 
L 86.4 43.2 
z
" style="fill:#ffffff;"/>
   </g>
   <g id="matplotlib.axis_1">
    <g id="xtick_1">
     <g id="line2d_1">
      <defs>
       <path d="M 0 0 
L 0 3.5 
" id="m5ac6270c31" style="stroke:#000000;stroke-width:0.8;"/>
      </defs>
      <g>
       <use style="fill:#ffffff;stroke:#000000;stroke-width:0.8;" x="86.4" xlink:href="#m5ac6270c31" y="207.771429"/>
      </g>
     </g>
    </g>
    <g id="xtick_2">
     <g id="line2d_2">
      <g>
       <use style="fill:#ffffff;stroke:#000000;stroke-width:0.8;" x="167.909434" xlink:href="#m5ac6270c31" y="207.771429"/>
      </g>
     </g>
    </g>
    <g id="xtick_3">
     <g id="line2d_3">
      <g>
       <use style="fill:#ffffff;stroke:#000000;stroke-width:0.8;" x="249.418868" xlink:href="#m5ac6270c31" y="207.771429"/>
      </g>
     </g>
    </g>
    <g id="xtick_4">
     <g id="line2d_4">
      <g>
       <use style="fill:#ffffff;stroke:#000000;stroke-width:0.8;" x="330.928302" xlink:href="#m5ac6270c31" y="207.771429"/>
      </g>
     </g>
    </g>
    <g id="xtick_5">
     <g id="line2d_5">
      <g>
       <use style="fill:#ffffff;stroke:#000000;stroke-width:0.8;" x="412.437736" xlink:href="#m5ac6270c31" y="207.771429"/>
      </g>
     </g>
    </g>
   </g>
   <g id="matplotlib.axis_2">
    <g id="ytick_1">
     <g id="line2d_6">
      <defs>
       <path d="M 0 0 
L -3.5 0 
" id="mc66337de3f" style="stroke:#000000;stroke-width:0.8;"/>
      </defs>
      <g>
       <use style="fill:#ffffff;stroke:#000000;stroke-width:0.8;" x="86.4" xlink:href="#mc66337de3f" y="207.771429"/>
      </g>
     </g>
     <g id="text_1">
      <!-- −5 -->
      <defs>
       <path d="M 62.09375 22 
L 6.40625 22 
L 6.40625 28.59375 
L 62.09375 28.59375 
z
" id="STIXGeneral-Regular-8722"/>
       <path d="M 43.796875 68.09375 
L 40.203125 59.59375 
Q 39.59375 58.296875 37.5 58.296875 
L 18.09375 58.296875 
L 14.09375 49.796875 
Q 25.09375 47.703125 30 45.25 
Q 34.90625 42.796875 39.09375 37 
Q 42.59375 32.203125 42.59375 24.296875 
Q 42.59375 17.09375 40.25 12.1875 
Q 37.90625 7.296875 32.796875 3.5 
Q 26 -1.40625 15.796875 -1.40625 
Q 10.09375 -1.40625 6.59375 0.296875 
Q 3.09375 2 3.09375 4.796875 
Q 3.09375 8.59375 7.59375 8.59375 
Q 11.203125 8.59375 15 5.5 
Q 18.90625 2.296875 22.09375 2.296875 
Q 27.296875 2.296875 31.4375 7.5 
Q 35.59375 12.703125 35.59375 19.203125 
Q 35.59375 28.796875 28.90625 34.203125 
Q 20.203125 41.203125 7.59375 41.203125 
Q 6.40625 41.203125 6.40625 42 
L 6.5 42.5 
L 17.40625 66.203125 
L 38.09375 66.203125 
Q 39.796875 66.203125 40.75 66.703125 
Q 41.703125 67.203125 42.90625 68.796875 
z
" id="STIXGeneral-Regular-53"/>
      </defs>
      <g transform="translate(56.885 214.259632)scale(0.19 -0.19)">
       <use xlink:href="#STIXGeneral-Regular-8722"/>
       <use x="68.499985" xlink:href="#STIXGeneral-Regular-53"/>
      </g>
     </g>
    </g>
    <g id="ytick_2">
     <g id="line2d_7">
      <g>
       <use style="fill:#ffffff;stroke:#000000;stroke-width:0.8;" x="86.4" xlink:href="#mc66337de3f" y="139.2"/>
      </g>
     </g>
     <g id="text_2">
      <!-- 0 -->
      <defs>
       <path d="M 47.59375 33 
Q 47.59375 26.296875 46.296875 20.34375 
Q 45 14.40625 42.453125 9.40625 
Q 39.90625 4.40625 35.40625 1.5 
Q 30.90625 -1.40625 25 -1.40625 
Q 18.90625 -1.40625 14.296875 1.6875 
Q 9.703125 4.796875 7.203125 10 
Q 4.703125 15.203125 3.546875 21.09375 
Q 2.40625 27 2.40625 33.59375 
Q 2.40625 42.90625 4.703125 50.34375 
Q 7 57.796875 12.34375 62.6875 
Q 17.703125 67.59375 25.40625 67.59375 
Q 35.203125 67.59375 41.390625 58 
Q 47.59375 48.40625 47.59375 33 
z
M 38 32.5 
Q 38 48.296875 34.640625 56.640625 
Q 31.296875 65 24.796875 65 
Q 18.59375 65 15.296875 56.59375 
Q 12 48.203125 12 32.90625 
Q 12 17.5 15.296875 9.34375 
Q 18.59375 1.203125 25 1.203125 
Q 31.296875 1.203125 34.640625 9.34375 
Q 38 17.5 38 32.5 
z
" id="STIXGeneral-Regular-48"/>
      </defs>
      <g transform="translate(69.9 145.688203)scale(0.19 -0.19)">
       <use xlink:href="#STIXGeneral-Regular-48"/>
      </g>
     </g>
    </g>
    <g id="ytick_3">
     <g id="line2d_8">
      <g>
       <use style="fill:#ffffff;stroke:#000000;stroke-width:0.8;" x="86.4" xlink:href="#mc66337de3f" y="70.628571"/>
      </g>
     </g>
     <g id="text_3">
      <!-- 5 -->
      <g transform="translate(69.9 77.116775)scale(0.19 -0.19)">
       <use xlink:href="#STIXGeneral-Regular-53"/>
      </g>
     </g>
    </g>
    <g id="text_4">
     <!-- $C_l$ -->
     <defs>
      <path d="M 68.90625 66.40625 
L 65.203125 46.40625 
L 63.40625 46.703125 
Q 61.59375 63 48.5 63 
Q 37.59375 63 28.59375 53.296875 
Q 23.296875 47.703125 20.546875 39.703125 
Q 17.796875 31.703125 17.796875 23.203125 
Q 17.796875 2.703125 35.296875 2.703125 
Q 41.5 2.703125 46.640625 5.296875 
Q 51.796875 7.90625 58.203125 14.59375 
L 60 13.09375 
Q 53.296875 5.203125 46.84375 1.703125 
Q 40.40625 -1.796875 32.703125 -1.796875 
Q 21 -1.796875 13.796875 5.140625 
Q 6.59375 12.09375 6.59375 24.296875 
Q 6.59375 34.59375 11.6875 43.9375 
Q 16.796875 53.296875 25.296875 59.296875 
Q 35.5 66.59375 47.203125 66.59375 
Q 54.09375 66.59375 58.90625 64.90625 
Q 60.90625 64.203125 63 64.203125 
Q 65.703125 64.203125 66.796875 66.40625 
z
" id="STIXGeneral-Italic-67"/>
      <path d="M 27.90625 67.796875 
L 12.59375 9.296875 
Q 11.796875 6.40625 11.796875 5 
Q 11.796875 3.203125 13.5 3.203125 
Q 16.203125 3.203125 20.203125 8.90625 
L 22.703125 12.40625 
L 24.09375 11.40625 
Q 19.59375 4.296875 16.34375 1.59375 
Q 13.09375 -1.09375 9 -1.09375 
Q 4.09375 -1.09375 4.09375 4.5 
Q 4.09375 6.203125 4.5 7.5 
L 18.203125 59.90625 
Q 18.5 60.90625 18.5 61.796875 
Q 18.5 64 13.59375 64 
L 11.796875 64 
L 11.796875 65.59375 
Q 18.796875 66.40625 27.296875 68.296875 
z
" id="STIXGeneral-Italic-108"/>
     </defs>
     <g transform="translate(48.761406 134.130714)rotate(-90)scale(0.19 -0.19)">
      <use transform="translate(0 0.40625)" xlink:href="#STIXGeneral-Italic-67"/>
      <use transform="translate(66.699997 -12.821875)scale(0.7)" xlink:href="#STIXGeneral-Italic-108"/>
     </g>
    </g>
   </g>
   <g id="line2d_9">
    <path clip-path="url(#p63cc2bed3b)" d="M 86.889057 137.660487 
L 87.86717 133.715379 
L 88.356226 129.925817 
L 88.845283 124.258489 
L 89.660377 111.044435 
L 90.638491 95.275557 
L 91.290566 88.426585 
L 91.779623 85.190684 
L 92.268679 83.07731 
L 92.920755 81.318853 
L 93.57283 80.223147 
L 94.387925 79.292747 
L 95.855094 78.070222 
L 100.582642 74.319437 
L 102.375849 72.532137 
L 104.495094 70.09282 
L 105.636226 68.95106 
L 106.125283 68.72187 
L 106.451321 68.769933 
L 106.777358 69.064374 
L 107.103396 69.716073 
L 107.429434 70.87493 
L 107.755472 72.629508 
L 108.244528 76.747725 
L 108.896604 85.251434 
L 110.363774 106.433785 
L 110.85283 110.611901 
L 111.341887 113.255285 
L 111.830943 114.81804 
L 112.32 115.694713 
L 112.972075 116.306582 
L 113.135094 116.301703 
L 113.461132 116.417294 
L 114.439245 116.486841 
L 116.721509 116.269409 
L 127.806792 114.875555 
L 144.923774 113.466302 
L 173.126038 112.171288 
L 173.289057 112.246183 
L 173.452075 112.123219 
L 173.778113 112.133067 
L 176.549434 112.03645 
L 180.461887 111.911834 
L 184.048302 111.847239 
L 184.211321 111.927551 
L 184.37434 111.802599 
L 184.700377 111.819071 
L 186.493585 111.753135 
L 189.427925 111.716592 
L 189.590943 111.796961 
L 189.753962 111.672147 
L 190.08 111.69298 
L 191.54717 111.630167 
L 192.362264 111.636471 
L 193.340377 111.603233 
L 193.992453 111.621436 
L 194.970566 111.596472 
L 195.133585 111.696304 
L 195.296604 111.552738 
L 195.459623 111.623993 
L 195.948679 111.554259 
L 199.535094 111.515959 
L 200.350189 111.537295 
L 201.817358 111.472076 
L 202.632453 111.481221 
L 203.610566 111.457712 
L 204.42566 111.463665 
L 206.544906 111.475338 
L 207.36 111.433007 
L 211.435472 111.459381 
L 211.598491 111.533512 
L 211.761509 111.430135 
L 212.087547 111.434508 
L 213.06566 111.421347 
L 216.815094 111.472842 
L 216.978113 111.567788 
L 217.141132 111.421452 
L 217.304151 111.511068 
L 217.956226 111.454143 
L 222.031698 111.714014 
L 223.17283 112.337036 
L 223.661887 112.992113 
L 223.987925 113.699622 
L 224.313962 114.688849 
L 224.803019 117.055882 
L 225.292075 120.928402 
L 225.781132 126.687576 
L 226.433208 137.188188 
L 227.57434 156.383432 
L 228.226415 163.589824 
L 228.715472 167.172471 
L 229.367547 170.284582 
L 230.182642 172.746051 
L 230.997736 174.489763 
L 232.301887 176.700964 
L 235.562264 181.314927 
L 236.051321 181.921364 
L 241.267925 188.036739 
L 242.409057 188.978819 
L 243.061132 189.099244 
L 243.38717 188.913881 
L 243.876226 188.124347 
L 244.202264 187.087488 
L 244.691321 184.421129 
L 245.180377 179.978732 
L 245.832453 171.070987 
L 247.299623 149.033944 
L 247.951698 143.52003 
L 248.440755 141.074649 
L 248.929811 139.572304 
L 249.581887 138.48102 
L 250.233962 137.926549 
L 250.886038 137.621637 
L 252.02717 137.369373 
L 252.842264 137.265103 
L 253.49434 137.222494 
L 259.2 137.22795 
L 265.068679 137.53518 
L 275.664906 138.352639 
L 297.998491 140.083223 
L 312.50717 140.955872 
L 326.363774 141.5689 
L 342.013585 142.035914 
L 363.369057 142.392368 
L 382.605283 142.52327 
L 412.600755 142.509206 
L 412.600755 142.509206 
" style="fill:none;stroke:#1f77b4;stroke-linecap:square;stroke-width:2;"/>
   </g>
   <g id="line2d_10">
    <path clip-path="url(#p63cc2bed3b)" d="M 86.889057 138.411834 
L 87.86717 136.402176 
L 88.356226 134.468147 
L 88.845283 131.57292 
L 89.497358 126.280804 
L 90.638491 116.657395 
L 91.290566 113.059489 
L 91.942642 110.882929 
L 92.594717 109.593917 
L 93.246792 108.790656 
L 94.224906 107.980352 
L 96.344151 106.664557 
L 97.97434 105.599351 
L 99.767547 104.211061 
L 101.397736 102.652699 
L 102.864906 100.931338 
L 104.821132 98.255392 
L 106.288302 96.321765 
L 106.777358 95.97374 
L 107.103396 95.946042 
L 107.429434 96.162883 
L 107.755472 96.706003 
L 108.081509 97.650758 
L 108.570566 99.909832 
L 109.38566 105.40535 
L 110.200755 110.710403 
L 110.689811 112.868015 
L 111.178868 114.229571 
L 111.667925 115.041727 
L 112.483019 115.460685 
L 113.298113 115.512347 
L 114.439245 115.405779 
L 114.928302 115.219988 
L 117.047547 114.779033 
L 117.210566 114.797633 
L 117.536604 114.651341 
L 119.655849 114.273636 
L 127.969811 113.121984 
L 128.13283 113.165263 
L 128.458868 113.051346 
L 130.089057 112.883644 
L 133.675472 112.644072 
L 134.001509 112.535286 
L 135.957736 112.395955 
L 139.70717 112.115945 
L 141.663396 112.030053 
L 141.826415 112.084815 
L 142.152453 111.985243 
L 144.108679 111.890933 
L 147.369057 111.820343 
L 147.532075 111.699753 
L 148.184151 111.689941 
L 149.81434 111.660377 
L 150.792453 111.613769 
L 152.096604 111.592605 
L 153.400755 111.565133 
L 154.867925 111.560761 
L 158.291321 111.638158 
L 158.45434 111.528663 
L 159.269434 111.544015 
L 163.833962 111.754437 
L 163.996981 111.648143 
L 164.486038 111.691589 
L 165.790189 111.756856 
L 167.09434 111.817461 
L 168.398491 111.895934 
L 169.86566 111.991972 
L 171.495849 112.132577 
L 172.8 112.229305 
L 174.104151 112.363079 
L 175.897358 112.53157 
L 177.364528 112.735696 
L 177.527547 112.807704 
L 177.690566 112.716762 
L 178.179623 112.800561 
L 179.483774 112.972869 
L 180.787925 113.140626 
L 182.255094 113.362119 
L 191.058113 114.885487 
L 191.221132 114.973076 
L 191.384151 114.890268 
L 191.873208 115.013722 
L 193.177358 115.281474 
L 194.481509 115.544196 
L 195.78566 115.81652 
L 197.089811 116.104999 
L 199.209057 116.593189 
L 199.372075 116.702213 
L 199.535094 116.62194 
L 200.18717 116.791683 
L 201.491321 117.102009 
L 202.958491 117.430814 
L 204.588679 117.838993 
L 205.729811 118.079808 
L 210.783396 119.318044 
L 212.902642 119.846743 
L 213.06566 119.961576 
L 213.228679 119.884917 
L 213.880755 120.059084 
L 215.347925 120.425015 
L 216.652075 120.720449 
L 217.793208 120.992255 
L 219.260377 121.330835 
L 220.727547 121.696602 
L 222.683774 122.317778 
L 223.335849 122.757788 
L 223.824906 123.283669 
L 224.64 124.877521 
L 225.129057 126.658601 
L 225.618113 129.376427 
L 226.270189 134.57071 
L 227.737358 147.451738 
L 228.389434 151.098561 
L 229.041509 153.493796 
L 229.856604 155.507844 
L 230.34566 156.2936 
L 231.486792 157.907278 
L 232.953962 159.623338 
L 234.74717 161.316397 
L 236.377358 162.589364 
L 238.170566 163.714352 
L 239.800755 164.514816 
L 241.756981 165.154611 
L 242.572075 165.214833 
L 243.224151 165.009995 
L 243.713208 164.57616 
L 244.202264 163.708885 
L 244.691321 162.184918 
L 245.180377 159.757866 
L 245.832453 154.972925 
L 247.299623 143.098103 
L 247.951698 139.953095 
L 248.603774 138.08363 
L 249.255849 136.968797 
L 250.070943 136.117884 
L 251.212075 135.34755 
L 252.679245 134.624782 
L 256.428679 133.250443 
L 261.645283 131.994229 
L 264.90566 131.494447 
L 268.492075 131.156331 
L 272.730566 130.986422 
L 277.295094 131.027112 
L 282.511698 131.290296 
L 289.195472 131.874747 
L 298.487547 132.95915 
L 328.809057 136.718965 
L 339.731321 137.760734 
L 350.653585 138.596673 
L 362.716981 139.304643 
L 376.410566 139.889175 
L 392.875472 140.35914 
L 412.600755 140.695826 
L 412.600755 140.695826 
" style="fill:none;stroke:#ff7f0e;stroke-linecap:square;stroke-width:2;"/>
   </g>
   <g id="line2d_11">
    <path clip-path="url(#p63cc2bed3b)" d="M 86.889057 138.792862 
L 87.86717 137.762969 
L 88.356226 136.768925 
L 88.845283 135.278684 
L 89.497358 132.546337 
L 90.638491 127.528365 
L 91.290566 125.608712 
L 91.942642 124.414465 
L 92.594717 123.671919 
L 93.57283 122.967504 
L 96.018113 121.688557 
L 97.97434 120.486597 
L 99.278491 119.451685 
L 100.74566 118.024206 
L 102.049811 116.43612 
L 103.516981 114.323315 
L 105.799245 110.405612 
L 106.940377 108.617163 
L 107.592453 108.085567 
L 107.918491 108.095233 
L 108.244528 108.350955 
L 108.407547 108.478811 
L 108.896604 109.431634 
L 110.526792 113.427711 
L 111.015849 114.032111 
L 111.341887 114.192931 
L 111.830943 114.33841 
L 112.483019 114.387602 
L 112.809057 114.25858 
L 119.003774 112.821873 
L 120.633962 112.61672 
L 120.96 112.503334 
L 122.916226 112.265489 
L 129.6 111.873589 
L 136.283774 112.359057 
L 139.218113 112.892796 
L 145.901887 114.8397 
L 150.629434 116.785618 
L 150.955472 116.895171 
L 153.889811 118.24135 
L 154.704906 118.648954 
L 155.030943 118.771366 
L 157.639245 120.081165 
L 157.965283 120.162414 
L 160.247547 121.24797 
L 160.573585 121.354611 
L 163.181887 122.551604 
L 163.507925 122.634294 
L 167.09434 124.039159 
L 167.420377 124.112037 
L 169.376604 124.756991 
L 171.33283 125.392497 
L 171.658868 125.405693 
L 173.941132 125.967623 
L 174.104151 126.051272 
L 174.430189 126.04386 
L 175.245283 126.226092 
L 175.408302 126.318035 
L 175.73434 126.300512 
L 176.712453 126.490633 
L 177.201509 126.545783 
L 178.016604 126.687459 
L 178.179623 126.769774 
L 178.50566 126.734574 
L 180.787925 127.026482 
L 180.950943 127.102879 
L 181.276981 127.056702 
L 182.092075 127.146561 
L 182.255094 127.226598 
L 182.581132 127.178466 
L 183.559245 127.268704 
L 183.885283 127.262134 
L 186.004528 127.394835 
L 187.797736 127.543619 
L 188.123774 127.472737 
L 188.938868 127.507591 
L 189.101887 127.58135 
L 189.427925 127.506488 
L 190.406038 127.537233 
L 190.732075 127.508803 
L 192.036226 127.519513 
L 193.666415 127.516563 
L 194.481509 127.521486 
L 194.644528 127.584869 
L 194.970566 127.496256 
L 195.78566 127.487363 
L 195.948679 127.555631 
L 196.274717 127.466697 
L 197.25283 127.447597 
L 197.415849 127.483916 
L 197.741887 127.414614 
L 198.556981 127.391446 
L 198.72 127.453877 
L 199.046038 127.355975 
L 200.024151 127.321472 
L 200.350189 127.267415 
L 201.491321 127.29217 
L 201.817358 127.184817 
L 202.632453 127.132945 
L 202.795472 127.195886 
L 203.121509 127.087975 
L 204.099623 127.014162 
L 204.262642 127.04599 
L 204.588679 126.95436 
L 205.403774 126.883045 
L 205.566792 126.940344 
L 205.89283 126.82332 
L 206.870943 126.72849 
L 207.033962 126.752235 
L 207.36 126.654294 
L 208.175094 126.565807 
L 208.338113 126.615913 
L 208.664151 126.4881 
L 209.479245 126.382834 
L 209.642264 126.437349 
L 209.968302 126.308407 
L 210.946415 126.167841 
L 211.109434 126.190737 
L 211.435472 126.079011 
L 212.250566 125.948998 
L 212.413585 125.998962 
L 212.739623 125.857268 
L 213.717736 125.691547 
L 213.880755 125.70786 
L 214.206792 125.585471 
L 215.021887 125.437238 
L 215.184906 125.481109 
L 215.510943 125.330001 
L 216.326038 125.164354 
L 216.489057 125.213114 
L 216.815094 125.05993 
L 217.793208 124.848127 
L 217.956226 124.86497 
L 218.282264 124.729159 
L 219.097358 124.543873 
L 219.260377 124.587981 
L 219.586415 124.423676 
L 220.564528 124.199142 
L 220.727547 124.209449 
L 221.053585 124.071772 
L 221.868679 123.89889 
L 222.031698 123.9491 
L 222.357736 123.804187 
L 223.009811 123.720038 
L 223.987925 123.855918 
L 224.476981 124.187387 
L 224.966038 124.808043 
L 225.455094 125.891217 
L 225.944151 127.545855 
L 227.900377 136.220713 
L 228.715472 138.50797 
L 229.530566 140.041975 
L 230.671698 141.757855 
L 230.997736 142.083675 
L 233.932075 145.287516 
L 236.051321 147.291725 
L 239.474717 150.164563 
L 242.735094 152.737959 
L 243.550189 153.156025 
L 244.039245 153.206086 
L 244.365283 153.089731 
L 244.691321 152.808688 
L 245.180377 151.995659 
L 245.669434 150.66011 
L 247.62566 144.425291 
L 248.114717 143.708528 
L 248.603774 143.301143 
L 249.255849 143.058992 
L 250.070943 143.006609 
L 251.375094 143.147967 
L 261.971321 144.7362 
L 265.557736 144.921004 
L 269.470189 144.894738 
L 274.034717 144.626599 
L 280.229434 144.007334 
L 294.575094 142.240834 
L 305.33434 141.06565 
L 315.278491 140.209011 
L 326.526792 139.485095 
L 338.42717 138.950475 
L 352.120755 138.565796 
L 368.58566 138.333628 
L 391.245283 138.245544 
L 412.600755 138.257182 
L 412.600755 138.257182 
" style="fill:none;stroke:#2ca02c;stroke-linecap:square;stroke-width:2;"/>
   </g>
   <g id="line2d_12">
    <path clip-path="url(#p63cc2bed3b)" d="M 86.4 139.2 
L 412.437736 139.2 
" style="fill:none;stroke:#000000;stroke-dasharray:3.2,0.8,0.5,0.8;stroke-dashoffset:0;stroke-width:0.5;"/>
   </g>
   <g id="line2d_13">
    <path clip-path="url(#p63cc2bed3b)" d="M 249.418868 207.771429 
L 249.418868 43.2 
" style="fill:none;stroke:#000000;stroke-linecap:square;stroke-width:0.5;"/>
   </g>
   <g id="line2d_14">
    <path clip-path="url(#p63cc2bed3b)" d="M 282.022642 207.771429 
L 282.022642 43.2 
" style="fill:none;stroke:#000000;stroke-dasharray:6.4,1.6,1,1.6;stroke-dashoffset:0;stroke-opacity:0.25;"/>
   </g>
   <g id="line2d_15">
    <path clip-path="url(#p63cc2bed3b)" d="M 314.626415 207.771429 
L 314.626415 43.2 
" style="fill:none;stroke:#000000;stroke-dasharray:6.4,1.6,1,1.6;stroke-dashoffset:0;stroke-opacity:0.25;"/>
   </g>
   <g id="line2d_16">
    <path clip-path="url(#p63cc2bed3b)" d="M 347.230189 207.771429 
L 347.230189 43.2 
" style="fill:none;stroke:#000000;stroke-dasharray:6.4,1.6,1,1.6;stroke-dashoffset:0;stroke-opacity:0.25;"/>
   </g>
   <g id="patch_3">
    <path d="M 86.4 207.771429 
L 86.4 43.2 
" style="fill:none;stroke:#000000;stroke-linecap:square;stroke-linejoin:miter;stroke-width:0.8;"/>
   </g>
   <g id="patch_4">
    <path d="M 412.437736 207.771429 
L 412.437736 43.2 
" style="fill:none;stroke:#000000;stroke-linecap:square;stroke-linejoin:miter;stroke-width:0.8;"/>
   </g>
   <g id="patch_5">
    <path d="M 86.4 207.771429 
L 412.437736 207.771429 
" style="fill:none;stroke:#000000;stroke-linecap:square;stroke-linejoin:miter;stroke-width:0.8;"/>
   </g>
   <g id="patch_6">
    <path d="M 86.4 43.2 
L 412.437736 43.2 
" style="fill:none;stroke:#000000;stroke-linecap:square;stroke-linejoin:miter;stroke-width:0.8;"/>
   </g>
  </g>
  <g id="axes_2">
   <g id="patch_7">
    <path d="M 451.562264 207.771429 
L 777.6 207.771429 
L 777.6 43.2 
L 451.562264 43.2 
z
" style="fill:#ffffff;"/>
   </g>
   <g id="matplotlib.axis_3">
    <g id="xtick_6">
     <g id="line2d_17">
      <g>
       <use style="fill:#ffffff;stroke:#000000;stroke-width:0.8;" x="451.562264" xlink:href="#m5ac6270c31" y="207.771429"/>
      </g>
     </g>
    </g>
    <g id="xtick_7">
     <g id="line2d_18">
      <g>
       <use style="fill:#ffffff;stroke:#000000;stroke-width:0.8;" x="533.071698" xlink:href="#m5ac6270c31" y="207.771429"/>
      </g>
     </g>
    </g>
    <g id="xtick_8">
     <g id="line2d_19">
      <g>
       <use style="fill:#ffffff;stroke:#000000;stroke-width:0.8;" x="614.581132" xlink:href="#m5ac6270c31" y="207.771429"/>
      </g>
     </g>
    </g>
    <g id="xtick_9">
     <g id="line2d_20">
      <g>
       <use style="fill:#ffffff;stroke:#000000;stroke-width:0.8;" x="696.090566" xlink:href="#m5ac6270c31" y="207.771429"/>
      </g>
     </g>
    </g>
    <g id="xtick_10">
     <g id="line2d_21">
      <g>
       <use style="fill:#ffffff;stroke:#000000;stroke-width:0.8;" x="777.6" xlink:href="#m5ac6270c31" y="207.771429"/>
      </g>
     </g>
    </g>
   </g>
   <g id="matplotlib.axis_4">
    <g id="ytick_4">
     <g id="line2d_22">
      <g>
       <use style="fill:#ffffff;stroke:#000000;stroke-width:0.8;" x="451.562264" xlink:href="#mc66337de3f" y="207.771429"/>
      </g>
     </g>
    </g>
    <g id="ytick_5">
     <g id="line2d_23">
      <g>
       <use style="fill:#ffffff;stroke:#000000;stroke-width:0.8;" x="451.562264" xlink:href="#mc66337de3f" y="139.2"/>
      </g>
     </g>
    </g>
    <g id="ytick_6">
     <g id="line2d_24">
      <g>
       <use style="fill:#ffffff;stroke:#000000;stroke-width:0.8;" x="451.562264" xlink:href="#mc66337de3f" y="70.628571"/>
      </g>
     </g>
    </g>
    <g id="text_5">
     <!-- $C_d$ -->
     <defs>
      <path d="M 52.09375 68.296875 
L 52.703125 67.703125 
L 48.796875 52.5 
L 42.796875 30.59375 
Q 36.296875 6.703125 36.296875 6 
Q 36.296875 4 38.09375 4 
Q 39.40625 4 40.84375 5.25 
Q 42.296875 6.5 46.296875 11.09375 
L 47.5 10.09375 
Q 39.796875 -1.296875 32.796875 -1.296875 
Q 30.90625 -1.296875 29.796875 -0.09375 
Q 28.703125 1.09375 28.703125 3.203125 
Q 28.703125 6.203125 30 12.09375 
Q 25.703125 4.796875 21.546875 1.84375 
Q 17.40625 -1.09375 12.203125 -1.09375 
Q 7.203125 -1.09375 4.34375 1.953125 
Q 1.5 5 1.5 10.59375 
Q 1.5 22.5 11.140625 33.296875 
Q 20.796875 44.09375 30.703125 44.09375 
Q 33.796875 44.09375 35.25 42.6875 
Q 36.703125 41.296875 37.203125 38.296875 
L 37.296875 38.296875 
L 41.796875 54.59375 
Q 43.203125 59.5 43.203125 61.703125 
Q 43.203125 63.296875 42.09375 63.6875 
Q 41 64.09375 36.796875 64.296875 
L 36.796875 66 
Q 44.5 66.703125 52.09375 68.296875 
z
M 35.59375 36.09375 
Q 35.59375 38.703125 34.140625 40.25 
Q 32.703125 41.796875 30.90625 41.796875 
Q 26.203125 41.796875 21.796875 37.203125 
Q 16.796875 31.90625 13.5 24.546875 
Q 10.203125 17.203125 10.203125 11 
Q 10.203125 7.59375 11.75 5.640625 
Q 13.296875 3.703125 16 3.703125 
Q 20.5 3.703125 25.09375 8.59375 
Q 29.703125 13.5 32.640625 21.09375 
Q 35.59375 28.703125 35.59375 36.09375 
z
" id="STIXGeneral-Italic-100"/>
     </defs>
     <g transform="translate(436.43867 135.650714)rotate(-90)scale(0.19 -0.19)">
      <use transform="translate(0 0.40625)" xlink:href="#STIXGeneral-Italic-67"/>
      <use transform="translate(66.699997 -12.821875)scale(0.7)" xlink:href="#STIXGeneral-Italic-100"/>
     </g>
    </g>
   </g>
   <g id="line2d_25">
    <path clip-path="url(#p6bc779961e)" d="M 452.051321 137.563748 
L 453.029434 133.430488 
L 453.518491 129.436234 
L 454.007547 123.442404 
L 454.659623 112.430223 
L 455.963774 89.78227 
L 456.615849 82.699599 
L 457.267925 78.26306 
L 457.92 75.434449 
L 458.735094 73.077085 
L 459.713208 71.038588 
L 461.180377 68.613397 
L 464.277736 64.152513 
L 467.864151 58.955376 
L 470.635472 54.928689 
L 471.124528 54.510926 
L 471.450566 54.407009 
L 471.776604 54.527913 
L 472.102642 54.96785 
L 472.428679 55.852293 
L 472.917736 58.353051 
L 473.406792 62.669443 
L 473.895849 69.116517 
L 475.852075 98.134194 
L 476.341132 101.857333 
L 476.830189 104.28598 
L 477.319245 105.847233 
L 477.971321 107.126061 
L 478.460377 107.752284 
L 480.090566 108.831596 
L 481.720755 109.469679 
L 483.187925 109.901373 
L 485.144151 110.299378 
L 489.056604 111.019043 
L 489.219623 110.933824 
L 489.54566 110.999691 
L 498.18566 111.776261 
L 500.956981 111.933194 
L 513.020377 112.427733 
L 527.366038 112.865569 
L 527.529057 112.74599 
L 527.855094 112.778874 
L 529.811321 112.784105 
L 535.353962 112.855993 
L 538.288302 112.92076 
L 538.451321 113.005483 
L 538.61434 112.887386 
L 538.940377 112.91084 
L 541.711698 112.927034 
L 544.809057 112.947945 
L 549.210566 113.003575 
L 549.373585 113.091934 
L 549.536604 112.970144 
L 549.862642 112.996498 
L 551.655849 112.984756 
L 554.590189 113.029865 
L 554.753208 113.117627 
L 554.916226 112.995045 
L 555.242264 113.023982 
L 556.709434 112.999722 
L 557.687547 113.008267 
L 560.13283 113.044312 
L 560.295849 113.15102 
L 560.458868 113.008812 
L 560.621887 113.083884 
L 561.110943 113.023324 
L 564.697358 113.054493 
L 565.512453 113.090372 
L 566.979623 113.049511 
L 567.794717 113.071399 
L 568.77283 113.062215 
L 569.587925 113.080101 
L 571.70717 113.119943 
L 572.522264 113.087126 
L 576.597736 113.154469 
L 576.760755 113.233153 
L 576.923774 113.12934 
L 577.249811 113.135468 
L 578.227925 113.129645 
L 581.977358 113.202218 
L 582.140377 113.301414 
L 582.303396 113.153685 
L 582.466415 113.24392 
L 583.118491 113.188443 
L 587.193962 113.46418 
L 588.172075 113.953204 
L 588.661132 114.513255 
L 589.150189 115.537847 
L 589.476226 116.57387 
L 589.965283 119.048443 
L 590.45434 123.104167 
L 590.943396 129.15415 
L 591.595472 140.253943 
L 592.736604 160.935817 
L 593.388679 169.01741 
L 593.877736 173.19545 
L 594.529811 176.999754 
L 595.344906 180.190924 
L 596.16 182.544948 
L 597.464151 185.583937 
L 599.909434 190.371815 
L 602.028679 194.029409 
L 604.636981 198.172427 
L 606.104151 200.359571 
L 607.408302 201.944565 
L 607.897358 202.322589 
L 608.386415 202.359731 
L 608.712453 202.121239 
L 609.038491 201.590308 
L 609.364528 200.580781 
L 609.853585 197.890954 
L 610.342642 193.318666 
L 610.994717 184.024628 
L 612.461887 160.39111 
L 613.113962 154.139076 
L 613.766038 150.484427 
L 614.418113 148.401318 
L 615.070189 147.194885 
L 615.722264 146.404653 
L 616.700377 145.635403 
L 618.656604 144.693396 
L 621.101887 143.950858 
L 621.753962 143.806473 
L 626.970566 142.99712 
L 631.209057 142.655341 
L 637.240755 142.428896 
L 646.206792 142.36571 
L 664.953962 142.51866 
L 691.526038 142.658106 
L 718.424151 142.54841 
L 771.079245 142.041945 
L 777.763019 141.97224 
L 777.763019 141.97224 
" style="fill:none;stroke:#1f77b4;stroke-linecap:square;stroke-width:2;"/>
   </g>
   <g id="line2d_26">
    <path clip-path="url(#p6bc779961e)" d="M 452.051321 138.34408 
L 453.029434 136.200846 
L 453.518491 134.122071 
L 454.007547 130.995867 
L 454.659623 125.225626 
L 455.963774 113.136883 
L 456.615849 109.203051 
L 457.267925 106.62766 
L 457.92 104.89536 
L 458.735094 103.36387 
L 459.876226 101.74182 
L 461.832453 99.413421 
L 463.951698 96.986892 
L 466.396981 93.980495 
L 468.353208 91.238113 
L 471.287547 87.001895 
L 471.939623 86.570112 
L 472.26566 86.599212 
L 472.591698 86.896008 
L 472.917736 87.547649 
L 473.243774 88.633513 
L 473.73283 91.18641 
L 474.547925 97.396081 
L 475.526038 104.583772 
L 476.178113 107.585898 
L 476.830189 109.365838 
L 477.645283 110.403434 
L 478.460377 110.971401 
L 479.601509 111.469595 
L 479.927547 111.476203 
L 482.861887 111.94926 
L 490.686792 112.583348 
L 492.806038 112.681535 
L 496.066415 112.876135 
L 496.229434 112.772271 
L 497.044528 112.808012 
L 515.302642 113.175642 
L 515.46566 113.068797 
L 516.117736 113.086249 
L 521.008302 113.166447 
L 523.290566 113.224858 
L 523.453585 113.30037 
L 523.616604 113.190883 
L 524.431698 113.215104 
L 528.996226 113.435993 
L 529.159245 113.32657 
L 529.648302 113.367192 
L 531.115472 113.437281 
L 534.21283 113.575265 
L 534.375849 113.644914 
L 534.701887 113.575421 
L 536.984151 113.70551 
L 537.14717 113.787517 
L 537.310189 113.679431 
L 537.962264 113.735671 
L 539.266415 113.821954 
L 541.059623 113.919268 
L 542.526792 114.055657 
L 542.689811 114.123104 
L 542.85283 114.021812 
L 543.341887 114.081691 
L 544.809057 114.208625 
L 547.743396 114.441348 
L 548.884528 114.514545 
L 553.612075 115.066951 
L 553.775094 114.954971 
L 554.264151 115.034009 
L 556.220377 115.267505 
L 556.383396 115.343619 
L 556.546415 115.24326 
L 557.035472 115.3235 
L 558.339623 115.469208 
L 559.643774 115.608924 
L 560.947925 115.749782 
L 562.252075 115.907542 
L 564.371321 116.169559 
L 564.53434 116.264112 
L 564.697358 116.163186 
L 565.349434 116.262614 
L 566.653585 116.425368 
L 568.120755 116.589604 
L 569.424906 116.757655 
L 570.729057 116.903742 
L 572.196226 117.094503 
L 575.293585 117.471906 
L 575.456604 117.558125 
L 575.782642 117.513535 
L 578.064906 117.785813 
L 578.227925 117.882917 
L 578.390943 117.782868 
L 579.043019 117.87519 
L 580.510189 118.05108 
L 581.81434 118.182543 
L 582.955472 118.303376 
L 584.259623 118.4467 
L 586.05283 118.659681 
L 588.009057 119.093393 
L 588.661132 119.533921 
L 588.98717 119.88948 
L 589.802264 121.482255 
L 590.291321 123.320619 
L 590.780377 126.170023 
L 591.432453 131.691632 
L 593.062642 147.097816 
L 593.714717 151.010238 
L 594.366792 153.73056 
L 595.181887 156.106623 
L 595.996981 157.983925 
L 597.301132 160.451817 
L 598.605283 162.704451 
L 599.09434 163.384912 
L 601.050566 166.112783 
L 603.006792 168.498488 
L 605.126038 170.76476 
L 606.593208 172.130305 
L 607.571321 172.833953 
L 608.060377 173.047325 
L 608.549434 173.05841 
L 608.875472 172.902042 
L 609.201509 172.541871 
L 609.527547 171.901173 
L 610.016604 170.246749 
L 610.50566 167.534247 
L 611.157736 162.297567 
L 612.461887 151.165999 
L 613.113962 147.655731 
L 613.766038 145.476999 
L 614.418113 144.115834 
L 615.233208 143.029787 
L 616.211321 142.149006 
L 617.515472 141.294502 
L 619.14566 140.456409 
L 621.264906 139.579785 
L 624.688302 138.522935 
L 627.78566 137.84129 
L 631.209057 137.321129 
L 634.958491 136.973579 
L 639.36 136.796334 
L 644.576604 136.830375 
L 651.097358 137.136513 
L 660.389434 137.839896 
L 683.538113 139.700952 
L 695.601509 140.376643 
L 707.501887 140.808669 
L 721.358491 141.087228 
L 738.964528 141.210502 
L 767.49283 141.154518 
L 777.763019 141.101682 
L 777.763019 141.101682 
" style="fill:none;stroke:#ff7f0e;stroke-linecap:square;stroke-width:2;"/>
   </g>
   <g id="line2d_27">
    <path clip-path="url(#p6bc779961e)" d="M 452.051321 138.744736 
L 453.029434 137.619845 
L 453.518491 136.522813 
L 454.007547 134.868082 
L 454.659623 131.794501 
L 455.963774 125.205862 
L 456.615849 122.956633 
L 457.267925 121.413458 
L 458.083019 120.086239 
L 459.224151 118.747194 
L 461.506415 116.564289 
L 464.114717 114.003223 
L 466.233962 111.601414 
L 469.820377 106.377627 
L 471.776604 103.409433 
L 472.591698 102.749351 
L 472.917736 102.792091 
L 473.243774 103.06966 
L 473.73283 103.940227 
L 474.221887 105.406205 
L 475.689057 110.263712 
L 476.341132 111.514646 
L 477.645283 112.570614 
L 477.971321 112.610251 
L 479.438491 112.867745 
L 483.187925 113.113677 
L 483.676981 113.088694 
L 487.752453 113.185335 
L 495.088302 113.360875 
L 496.881509 113.470552 
L 497.207547 113.454154 
L 499.326792 113.613167 
L 499.489811 113.677698 
L 499.815849 113.634283 
L 502.098113 113.871184 
L 502.261132 113.937281 
L 502.58717 113.901342 
L 504.706415 114.175187 
L 506.336604 114.472077 
L 506.662642 114.456475 
L 508.618868 114.791496 
L 515.628679 116.255776 
L 517.421887 116.708475 
L 517.747925 116.736411 
L 519.86717 117.255603 
L 520.030189 117.347434 
L 520.356226 117.351428 
L 522.475472 117.848841 
L 524.268679 118.276286 
L 524.594717 118.296038 
L 526.713962 118.744307 
L 526.876981 118.831042 
L 527.203019 118.820186 
L 529.322264 119.205072 
L 530.626415 119.402808 
L 532.419623 119.722133 
L 532.74566 119.685904 
L 536.332075 120.088579 
L 536.495094 120.153498 
L 536.821132 120.107109 
L 538.777358 120.248266 
L 540.570566 120.425503 
L 540.896604 120.363901 
L 541.874717 120.425852 
L 542.200755 120.407581 
L 543.667925 120.47082 
L 545.950189 120.55585 
L 546.113208 120.62199 
L 546.439245 120.551732 
L 547.25434 120.585021 
L 547.417358 120.657007 
L 547.743396 120.589342 
L 548.721509 120.626822 
L 549.047547 120.606316 
L 551.655849 120.737359 
L 551.981887 120.688682 
L 552.796981 120.731424 
L 552.96 120.797867 
L 553.286038 120.726592 
L 554.101132 120.761453 
L 554.264151 120.838162 
L 554.590189 120.766995 
L 555.568302 120.810966 
L 555.89434 120.79041 
L 557.035472 120.923273 
L 557.361509 120.853814 
L 559.480755 120.930008 
L 561.110943 121.068597 
L 561.436981 121.001663 
L 562.415094 121.050168 
L 562.578113 121.100432 
L 562.904151 121.055887 
L 563.719245 121.09588 
L 563.882264 121.173525 
L 564.208302 121.104229 
L 565.186415 121.15676 
L 565.512453 121.134004 
L 566.979623 121.20048 
L 567.794717 121.23444 
L 567.957736 121.316765 
L 568.283774 121.245362 
L 569.261887 121.283378 
L 569.424906 121.336063 
L 569.750943 121.283353 
L 570.566038 121.310226 
L 570.729057 121.389251 
L 571.055094 121.313953 
L 572.033208 121.345271 
L 572.196226 121.392155 
L 572.522264 121.335884 
L 573.337358 121.359062 
L 573.500377 121.433913 
L 573.826415 121.351938 
L 574.641509 121.362025 
L 574.804528 121.442662 
L 575.130566 121.361004 
L 576.108679 121.365069 
L 576.271698 121.415256 
L 576.597736 121.351943 
L 577.41283 121.345376 
L 577.575849 121.422823 
L 577.901887 121.332219 
L 578.88 121.320415 
L 579.043019 121.365614 
L 579.369057 121.292358 
L 580.184151 121.275746 
L 580.34717 121.348386 
L 580.673208 121.250469 
L 581.488302 121.217125 
L 581.651321 121.295263 
L 581.977358 121.195684 
L 582.955472 121.144854 
L 583.118491 121.192431 
L 583.444528 121.108925 
L 584.259623 121.058719 
L 584.422642 121.133001 
L 584.748679 121.023223 
L 585.726792 120.962728 
L 585.889811 121.004402 
L 586.215849 120.918247 
L 587.030943 120.884747 
L 587.193962 120.966113 
L 587.52 120.877762 
L 588.172075 120.908737 
L 589.150189 121.2425 
L 589.639245 121.69068 
L 590.128302 122.457175 
L 590.617358 123.724842 
L 591.106415 125.620028 
L 593.388679 137.003934 
L 594.203774 139.616679 
L 595.018868 141.339561 
L 596.16 143.437276 
L 598.605283 147.09906 
L 600.724528 149.872928 
L 603.33283 152.903296 
L 607.571321 157.250762 
L 608.549434 157.963708 
L 609.038491 158.113948 
L 609.527547 157.990169 
L 609.853585 157.686396 
L 610.342642 156.790873 
L 610.831698 155.301226 
L 611.97283 150.564715 
L 612.624906 148.351867 
L 613.276981 146.926458 
L 613.929057 146.106185 
L 614.581132 145.644769 
L 615.559245 145.298718 
L 616.863396 145.113047 
L 619.471698 145.025155 
L 630.72 144.907696 
L 635.773585 144.5286 
L 642.131321 143.80532 
L 671.311698 140.180179 
L 680.603774 139.416169 
L 690.710943 138.808444 
L 701.959245 138.354125 
L 714.674717 138.065674 
L 730.650566 137.940972 
L 752.658113 138.010223 
L 777.763019 138.198186 
L 777.763019 138.198186 
" style="fill:none;stroke:#2ca02c;stroke-linecap:square;stroke-width:2;"/>
   </g>
   <g id="line2d_28">
    <path clip-path="url(#p6bc779961e)" d="M 451.562264 139.2 
L 777.6 139.2 
" style="fill:none;stroke:#000000;stroke-dasharray:3.2,0.8,0.5,0.8;stroke-dashoffset:0;stroke-width:0.5;"/>
   </g>
   <g id="line2d_29">
    <path clip-path="url(#p6bc779961e)" d="M 614.581132 207.771429 
L 614.581132 43.2 
" style="fill:none;stroke:#000000;stroke-linecap:square;stroke-width:0.5;"/>
   </g>
   <g id="line2d_30">
    <path clip-path="url(#p6bc779961e)" d="M 647.184906 207.771429 
L 647.184906 43.2 
" style="fill:none;stroke:#000000;stroke-dasharray:6.4,1.6,1,1.6;stroke-dashoffset:0;stroke-opacity:0.25;"/>
   </g>
   <g id="line2d_31">
    <path clip-path="url(#p6bc779961e)" d="M 679.788679 207.771429 
L 679.788679 43.2 
" style="fill:none;stroke:#000000;stroke-dasharray:6.4,1.6,1,1.6;stroke-dashoffset:0;stroke-opacity:0.25;"/>
   </g>
   <g id="line2d_32">
    <path clip-path="url(#p6bc779961e)" d="M 712.392453 207.771429 
L 712.392453 43.2 
" style="fill:none;stroke:#000000;stroke-dasharray:6.4,1.6,1,1.6;stroke-dashoffset:0;stroke-opacity:0.25;"/>
   </g>
   <g id="patch_8">
    <path d="M 451.562264 207.771429 
L 451.562264 43.2 
" style="fill:none;stroke:#000000;stroke-linecap:square;stroke-linejoin:miter;stroke-width:0.8;"/>
   </g>
   <g id="patch_9">
    <path d="M 777.6 207.771429 
L 777.6 43.2 
" style="fill:none;stroke:#000000;stroke-linecap:square;stroke-linejoin:miter;stroke-width:0.8;"/>
   </g>
   <g id="patch_10">
    <path d="M 451.562264 207.771429 
L 777.6 207.771429 
" style="fill:none;stroke:#000000;stroke-linecap:square;stroke-linejoin:miter;stroke-width:0.8;"/>
   </g>
   <g id="patch_11">
    <path d="M 451.562264 43.2 
L 777.6 43.2 
" style="fill:none;stroke:#000000;stroke-linecap:square;stroke-linejoin:miter;stroke-width:0.8;"/>
   </g>
   <g id="text_6">
    <!-- $Re = 10^2$ -->
    <defs>
     <path d="M 13.203125 65.296875 
L 38.40625 65.296875 
Q 48.09375 65.296875 53.4375 61.5 
Q 58.796875 57.703125 58.796875 51.203125 
Q 58.796875 43.40625 52.203125 38.40625 
Q 48.296875 35.40625 39.09375 33.296875 
L 48 9.796875 
Q 49.703125 5.203125 51.546875 3.390625 
Q 53.40625 1.59375 56.703125 1.59375 
L 56.703125 0 
L 42 0 
L 29.703125 32.40625 
L 23.09375 32.90625 
L 17.59375 12.59375 
Q 16.296875 8 16.296875 6.296875 
Q 16.296875 4 17.59375 3 
Q 18.90625 2 23 1.59375 
L 23 0 
L -1.296875 0 
L -1.296875 1.59375 
Q 2.703125 2.09375 4.34375 3.796875 
Q 6 5.5 7.203125 10.09375 
L 19.09375 53.203125 
Q 20.296875 57.796875 20.296875 59.5 
Q 20.296875 61.296875 18.90625 62.296875 
Q 17.703125 63.09375 13.203125 63.703125 
z
M 30.59375 59.296875 
L 24.296875 36.59375 
Q 27.40625 36.09375 29.40625 36.09375 
Q 38.296875 36.09375 43.296875 40.09375 
Q 48.296875 44.09375 48.296875 51.09375 
Q 48.296875 56.296875 45.1875 59.296875 
Q 42.09375 62.296875 36.296875 62.296875 
Q 31.40625 62.296875 30.59375 59.296875 
z
" id="STIXGeneral-Italic-82"/>
     <path d="M 35.796875 10.90625 
L 37 9.703125 
Q 28.203125 -1.09375 16.59375 -1.09375 
Q 10.5 -1.09375 6.796875 2.65625 
Q 3.09375 6.40625 3.09375 12.59375 
Q 3.09375 24.296875 12.4375 34.1875 
Q 21.796875 44.09375 33 44.09375 
Q 36.90625 44.09375 39.046875 42.296875 
Q 41.203125 40.5 41.203125 37.296875 
Q 41.203125 30.703125 33.546875 25.5 
Q 25.90625 20.296875 12.796875 18.59375 
Q 11.796875 16.59375 11.796875 12.5 
Q 11.796875 8.40625 14.34375 5.90625 
Q 16.90625 3.40625 21.09375 3.40625 
Q 24.40625 3.40625 27.40625 4.953125 
Q 30.40625 6.5 35.796875 10.90625 
z
M 15.203125 25.203125 
L 13.5 20.796875 
Q 24.703125 23.5 29.59375 28.203125 
Q 34.59375 33 34.59375 37.90625 
Q 34.59375 41.796875 31.09375 41.796875 
Q 26.90625 41.796875 22.34375 36.9375 
Q 17.796875 32.09375 15.203125 25.203125 
z
" id="STIXGeneral-Italic-101"/>
     <path d="M 63.703125 32 
L 4.796875 32 
L 4.796875 38.59375 
L 63.703125 38.59375 
z
M 63.703125 12 
L 4.796875 12 
L 4.796875 18.59375 
L 63.703125 18.59375 
z
" id="STIXGeneral-Regular-61"/>
     <path d="M 39.40625 0 
L 11.796875 0 
L 11.796875 1.5 
Q 17.296875 1.796875 19.296875 3.546875 
Q 21.296875 5.296875 21.296875 9.5 
L 21.296875 54.40625 
Q 21.296875 59.296875 18.296875 59.296875 
Q 16.90625 59.296875 13.796875 58.09375 
L 11.09375 57.09375 
L 11.09375 58.5 
L 29 67.59375 
L 29.90625 67.296875 
L 29.90625 7.59375 
Q 29.90625 4.296875 31.90625 2.890625 
Q 33.90625 1.5 39.40625 1.5 
z
" id="STIXGeneral-Regular-49"/>
     <path d="M 47.40625 13.703125 
L 42 0 
L 2.90625 0 
L 2.90625 1.203125 
L 20.703125 20.09375 
Q 27.703125 27.40625 30.703125 33.5 
Q 33.703125 39.59375 33.703125 46.09375 
Q 33.703125 52.796875 30 56.5 
Q 26.296875 60.203125 19.796875 60.203125 
Q 14.40625 60.203125 11.25 57.390625 
Q 8.09375 54.59375 5.09375 47.203125 
L 3 47.703125 
Q 4.703125 57 9.84375 62.296875 
Q 15 67.59375 23.796875 67.59375 
Q 32.09375 67.59375 37.1875 62.59375 
Q 42.296875 57.59375 42.296875 50 
Q 42.296875 38.703125 29.5 25.203125 
L 13 7.59375 
L 36.40625 7.59375 
Q 39.703125 7.59375 41.640625 8.890625 
Q 43.59375 10.203125 46 14.296875 
z
" id="STIXGeneral-Regular-50"/>
    </defs>
    <g transform="translate(787.304906 129.912121)scale(0.19 -0.19)">
     <use transform="translate(0 0.409375)" xlink:href="#STIXGeneral-Italic-82"/>
     <use transform="translate(61.099991 0.409375)" xlink:href="#STIXGeneral-Italic-101"/>
     <use transform="translate(119.939981 0.409375)" xlink:href="#STIXGeneral-Regular-61"/>
     <use transform="translate(202.879962 0.409375)" xlink:href="#STIXGeneral-Regular-49"/>
     <use transform="translate(252.879947 0.409375)" xlink:href="#STIXGeneral-Regular-48"/>
     <use transform="translate(304.423213 35.684375)scale(0.7)" xlink:href="#STIXGeneral-Regular-50"/>
    </g>
   </g>
   <g id="legend_1">
    <g id="line2d_33">
     <path d="M 257.839707 30.069464 
L 289.493707 30.069464 
" style="fill:none;stroke:#1f77b4;stroke-linecap:square;stroke-width:2;"/>
    </g>
    <g id="line2d_34"/>
    <g id="text_7">
     <!-- $s/c = 1.5$ -->
     <defs>
      <path d="M 36.59375 44.203125 
L 34.59375 30.203125 
L 33 30.203125 
Q 31.59375 41.796875 24.09375 41.796875 
Q 21.40625 41.796875 19.796875 40.296875 
Q 18.203125 38.796875 18.203125 36.09375 
Q 18.203125 32.296875 23.59375 25.90625 
Q 30.40625 18 30.40625 12.296875 
Q 30.40625 6.203125 26.34375 2.546875 
Q 22.296875 -1.09375 16 -1.09375 
Q 13.09375 -1.09375 10.5 -0.09375 
Q 8.40625 0.796875 6.09375 0.796875 
Q 4.09375 0.796875 3.203125 -1.296875 
L 1.59375 -1.296875 
L 3.59375 14.59375 
L 5.203125 14.59375 
Q 7.203125 1 15.203125 1 
Q 18.796875 1 20.796875 3 
Q 22.796875 5 22.796875 8.703125 
Q 22.796875 13.203125 17.203125 20.203125 
Q 10.90625 28.09375 10.90625 33.296875 
Q 10.90625 38.296875 14.203125 41.1875 
Q 17.5 44.09375 23 44.09375 
Q 25 44.09375 28.59375 43.09375 
Q 30.796875 42.40625 32.203125 42.40625 
Q 34.203125 42.40625 35.203125 44.203125 
z
" id="STIXGeneral-Italic-115"/>
      <path d="M 28.703125 67.59375 
L 5.90625 -1.40625 
L -0.90625 -1.40625 
L 22 67.59375 
z
" id="STIXGeneral-Regular-47"/>
      <path d="M 35 10.703125 
L 36.59375 9.703125 
Q 32 3.90625 27.640625 1.40625 
Q 23.296875 -1.09375 17.703125 -1.09375 
Q 10.59375 -1.09375 6.796875 2.796875 
Q 3 6.703125 3 14.296875 
Q 3 21 6.390625 27.25 
Q 9.796875 33.5 15.296875 38 
Q 23 44.09375 32 44.09375 
Q 36.59375 44.09375 39.546875 41.796875 
Q 42.5 39.5 42.5 36 
Q 42.5 34 41.09375 32.59375 
Q 39.703125 31.203125 37.703125 31.203125 
Q 35.703125 31.203125 34.75 32.34375 
Q 33.796875 33.5 33.796875 35.203125 
Q 33.796875 36.09375 34.546875 37.546875 
Q 35.296875 39 35.296875 40 
Q 35.296875 42 31.59375 42 
Q 25.296875 42 20.703125 37.203125 
Q 11.59375 27.59375 11.59375 13.90625 
Q 11.59375 8.5 13.890625 5.5 
Q 16.203125 2.5 20.5 2.5 
Q 24.40625 2.5 27.59375 4.390625 
Q 30.796875 6.296875 35 10.703125 
z
" id="STIXGeneral-Italic-99"/>
      <path d="M 18.09375 4.296875 
Q 18.09375 2.09375 16.4375 0.5 
Q 14.796875 -1.09375 12.5 -1.09375 
Q 10.203125 -1.09375 8.59375 0.5 
Q 7 2.09375 7 4.390625 
Q 7 6.703125 8.640625 8.34375 
Q 10.296875 10 12.59375 10 
Q 14.796875 10 16.4375 8.296875 
Q 18.09375 6.59375 18.09375 4.296875 
z
" id="STIXGeneral-Regular-46"/>
     </defs>
     <g transform="translate(302.155307 35.608914)scale(0.15827 -0.15827)">
      <use transform="translate(0 0.203125)" xlink:href="#STIXGeneral-Italic-115"/>
      <use transform="translate(38.899994 0.203125)" xlink:href="#STIXGeneral-Regular-47"/>
      <use transform="translate(66.699982 0.203125)" xlink:href="#STIXGeneral-Italic-99"/>
      <use transform="translate(125.539972 0.203125)" xlink:href="#STIXGeneral-Regular-61"/>
      <use transform="translate(208.479953 0.203125)" xlink:href="#STIXGeneral-Regular-49"/>
      <use transform="translate(258.479938 0.203125)" xlink:href="#STIXGeneral-Regular-46"/>
      <use transform="translate(283.479922 0.203125)" xlink:href="#STIXGeneral-Regular-53"/>
     </g>
    </g>
    <g id="line2d_35">
     <path d="M 386.671487 30.069464 
L 418.325487 30.069464 
" style="fill:none;stroke:#ff7f0e;stroke-linecap:square;stroke-width:2;"/>
    </g>
    <g id="line2d_36"/>
    <g id="text_8">
     <!-- $s/c = 3.0$ -->
     <defs>
      <path d="M 6.09375 51 
L 4.5 51.40625 
Q 6.796875 58.90625 11.6875 63.25 
Q 16.59375 67.59375 24.09375 67.59375 
Q 31.09375 67.59375 35.390625 63.796875 
Q 39.703125 60 39.703125 53.90625 
Q 39.703125 45.703125 30.40625 40.09375 
Q 35.90625 37.703125 38.703125 34.796875 
Q 43.09375 29.90625 43.09375 21.90625 
Q 43.09375 13.90625 38.5 7.90625 
Q 35.09375 3.296875 28.75 0.9375 
Q 22.40625 -1.40625 15.296875 -1.40625 
Q 4.09375 -1.40625 4.09375 4.296875 
Q 4.09375 5.90625 5.296875 6.90625 
Q 6.5 7.90625 8.203125 7.90625 
Q 10.703125 7.90625 14.296875 5.296875 
Q 18.703125 2.203125 22.90625 2.203125 
Q 28.40625 2.203125 32.15625 6.640625 
Q 35.90625 11.09375 35.90625 17.5 
Q 35.90625 29 25.5 32 
Q 22.40625 33 15.296875 33 
L 15.296875 34.40625 
Q 20.90625 36.296875 23.703125 38 
Q 31.796875 42.59375 31.796875 51.40625 
Q 31.796875 56.40625 28.9375 59 
Q 26.09375 61.59375 21 61.59375 
Q 12 61.59375 6.09375 51 
z
" id="STIXGeneral-Regular-51"/>
     </defs>
     <g transform="translate(430.987087 35.608914)scale(0.15827 -0.15827)">
      <use transform="translate(0 0.40625)" xlink:href="#STIXGeneral-Italic-115"/>
      <use transform="translate(38.899994 0.40625)" xlink:href="#STIXGeneral-Regular-47"/>
      <use transform="translate(66.699982 0.40625)" xlink:href="#STIXGeneral-Italic-99"/>
      <use transform="translate(125.539972 0.40625)" xlink:href="#STIXGeneral-Regular-61"/>
      <use transform="translate(208.479953 0.40625)" xlink:href="#STIXGeneral-Regular-51"/>
      <use transform="translate(258.479938 0.40625)" xlink:href="#STIXGeneral-Regular-46"/>
      <use transform="translate(283.479922 0.40625)" xlink:href="#STIXGeneral-Regular-48"/>
     </g>
    </g>
    <g id="line2d_37">
     <path d="M 515.503267 30.069464 
L 547.157267 30.069464 
" style="fill:none;stroke:#2ca02c;stroke-linecap:square;stroke-width:2;"/>
    </g>
    <g id="line2d_38"/>
    <g id="text_9">
     <!-- $s/c = 6.0$ -->
     <defs>
      <path d="M 44.59375 68.40625 
L 44.796875 66.796875 
Q 33 64.90625 25.09375 57.25 
Q 17.203125 49.59375 15.203125 38.296875 
Q 21 42.796875 27.90625 42.796875 
Q 36.703125 42.796875 41.75 37.1875 
Q 46.796875 31.59375 46.796875 21.90625 
Q 46.796875 12.09375 41.703125 5.90625 
Q 35.796875 -1.40625 25.796875 -1.40625 
Q 13.59375 -1.40625 8.09375 8.703125 
Q 3.40625 17.296875 3.40625 27.90625 
Q 3.40625 44.296875 14.296875 55.5 
Q 20.5 61.90625 27.046875 64.546875 
Q 33.59375 67.203125 44.59375 68.40625 
z
M 37.796875 18.796875 
Q 37.796875 38.203125 24.296875 38.203125 
Q 19.296875 38.203125 16 35.546875 
Q 12.703125 32.90625 12.703125 26.59375 
Q 12.703125 14.90625 16.34375 8.15625 
Q 20 1.40625 26.90625 1.40625 
Q 32.203125 1.40625 35 6.15625 
Q 37.796875 10.90625 37.796875 18.796875 
z
" id="STIXGeneral-Regular-54"/>
     </defs>
     <g transform="translate(559.818867 35.608914)scale(0.15827 -0.15827)">
      <use transform="translate(0 0.59375)" xlink:href="#STIXGeneral-Italic-115"/>
      <use transform="translate(38.899994 0.59375)" xlink:href="#STIXGeneral-Regular-47"/>
      <use transform="translate(66.699982 0.59375)" xlink:href="#STIXGeneral-Italic-99"/>
      <use transform="translate(125.539972 0.59375)" xlink:href="#STIXGeneral-Regular-61"/>
      <use transform="translate(208.479953 0.59375)" xlink:href="#STIXGeneral-Regular-54"/>
      <use transform="translate(258.479938 0.59375)" xlink:href="#STIXGeneral-Regular-46"/>
      <use transform="translate(283.479922 0.59375)" xlink:href="#STIXGeneral-Regular-48"/>
     </g>
    </g>
   </g>
  </g>
  <g id="axes_3">
   <g id="patch_12">
    <path d="M 86.4 388.8 
L 412.437736 388.8 
L 412.437736 224.228571 
L 86.4 224.228571 
z
" style="fill:#ffffff;"/>
   </g>
   <g id="matplotlib.axis_5">
    <g id="xtick_11">
     <g id="line2d_39">
      <g>
       <use style="fill:#ffffff;stroke:#000000;stroke-width:0.8;" x="86.4" xlink:href="#m5ac6270c31" y="388.8"/>
      </g>
     </g>
     <g id="text_10">
      <!-- 0.0 -->
      <g transform="translate(74.525 408.776406)scale(0.19 -0.19)">
       <use xlink:href="#STIXGeneral-Regular-48"/>
       <use x="49.999985" xlink:href="#STIXGeneral-Regular-46"/>
       <use x="74.999969" xlink:href="#STIXGeneral-Regular-48"/>
      </g>
     </g>
    </g>
    <g id="xtick_12">
     <g id="line2d_40">
      <g>
       <use style="fill:#ffffff;stroke:#000000;stroke-width:0.8;" x="167.909434" xlink:href="#m5ac6270c31" y="388.8"/>
      </g>
     </g>
     <g id="text_11">
      <!-- 0.5 -->
      <g transform="translate(156.034434 408.776406)scale(0.19 -0.19)">
       <use xlink:href="#STIXGeneral-Regular-48"/>
       <use x="49.999985" xlink:href="#STIXGeneral-Regular-46"/>
       <use x="74.999969" xlink:href="#STIXGeneral-Regular-53"/>
      </g>
     </g>
    </g>
    <g id="xtick_13">
     <g id="line2d_41">
      <g>
       <use style="fill:#ffffff;stroke:#000000;stroke-width:0.8;" x="249.418868" xlink:href="#m5ac6270c31" y="388.8"/>
      </g>
     </g>
     <g id="text_12">
      <!-- 1.0 -->
      <g transform="translate(237.543868 408.776406)scale(0.19 -0.19)">
       <use xlink:href="#STIXGeneral-Regular-49"/>
       <use x="49.999985" xlink:href="#STIXGeneral-Regular-46"/>
       <use x="74.999969" xlink:href="#STIXGeneral-Regular-48"/>
      </g>
     </g>
    </g>
    <g id="xtick_14">
     <g id="line2d_42">
      <g>
       <use style="fill:#ffffff;stroke:#000000;stroke-width:0.8;" x="330.928302" xlink:href="#m5ac6270c31" y="388.8"/>
      </g>
     </g>
     <g id="text_13">
      <!-- 1.5 -->
      <g transform="translate(319.053302 408.776406)scale(0.19 -0.19)">
       <use xlink:href="#STIXGeneral-Regular-49"/>
       <use x="49.999985" xlink:href="#STIXGeneral-Regular-46"/>
       <use x="74.999969" xlink:href="#STIXGeneral-Regular-53"/>
      </g>
     </g>
    </g>
    <g id="xtick_15">
     <g id="line2d_43">
      <g>
       <use style="fill:#ffffff;stroke:#000000;stroke-width:0.8;" x="412.437736" xlink:href="#m5ac6270c31" y="388.8"/>
      </g>
     </g>
     <g id="text_14">
      <!-- 2.0 -->
      <g transform="translate(400.562736 408.776406)scale(0.19 -0.19)">
       <use xlink:href="#STIXGeneral-Regular-50"/>
       <use x="49.999985" xlink:href="#STIXGeneral-Regular-46"/>
       <use x="74.999969" xlink:href="#STIXGeneral-Regular-48"/>
      </g>
     </g>
    </g>
    <g id="text_15">
     <!-- $\^t$ -->
     <defs>
      <path d="M -7.5 50.703125 
L -10.90625 50.703125 
L -23.09375 61 
L -35.203125 50.703125 
L -38.59375 50.703125 
L -26.203125 67.40625 
L -20 67.40625 
z
" id="STIXGeneral-Regular-770"/>
      <path d="M 29.59375 42.796875 
L 29.09375 39.59375 
L 20.703125 39.59375 
L 12 6.796875 
Q 11.796875 6 11.796875 5.40625 
Q 11.796875 3.796875 13.296875 3.796875 
Q 14.5 3.796875 16.09375 5.34375 
Q 17.703125 6.90625 21.40625 11.703125 
L 22.703125 11 
Q 18.09375 4 15.140625 1.453125 
Q 12.203125 -1.09375 8.40625 -1.09375 
Q 3.796875 -1.09375 3.796875 2.59375 
Q 3.796875 3.59375 5.40625 10 
L 13.203125 39.59375 
L 5.703125 39.59375 
L 5.59375 40.203125 
Q 5.59375 42 8.90625 42.703125 
Q 11.40625 43.296875 15.5 46.546875 
Q 19.59375 49.796875 22.203125 53.703125 
Q 22.796875 54.59375 23.59375 54.59375 
Q 24.5 54.59375 24.5 53.796875 
Q 24.5 53.296875 24.40625 53.09375 
L 21.59375 42.796875 
z
" id="STIXGeneral-Italic-116"/>
     </defs>
     <g transform="translate(246.758868 429.876406)scale(0.19 -0.19)">
      <use transform="translate(39.042969 16.59375)" xlink:href="#STIXGeneral-Regular-770"/>
      <use transform="translate(0 0.203125)" xlink:href="#STIXGeneral-Italic-116"/>
     </g>
    </g>
   </g>
   <g id="matplotlib.axis_6">
    <g id="ytick_7">
     <g id="line2d_44">
      <g>
       <use style="fill:#ffffff;stroke:#000000;stroke-width:0.8;" x="86.4" xlink:href="#mc66337de3f" y="388.8"/>
      </g>
     </g>
     <g id="text_16">
      <!-- −5 -->
      <g transform="translate(56.885 395.288203)scale(0.19 -0.19)">
       <use xlink:href="#STIXGeneral-Regular-8722"/>
       <use x="68.499985" xlink:href="#STIXGeneral-Regular-53"/>
      </g>
     </g>
    </g>
    <g id="ytick_8">
     <g id="line2d_45">
      <g>
       <use style="fill:#ffffff;stroke:#000000;stroke-width:0.8;" x="86.4" xlink:href="#mc66337de3f" y="320.228571"/>
      </g>
     </g>
     <g id="text_17">
      <!-- 0 -->
      <g transform="translate(69.9 326.716775)scale(0.19 -0.19)">
       <use xlink:href="#STIXGeneral-Regular-48"/>
      </g>
     </g>
    </g>
    <g id="ytick_9">
     <g id="line2d_46">
      <g>
       <use style="fill:#ffffff;stroke:#000000;stroke-width:0.8;" x="86.4" xlink:href="#mc66337de3f" y="251.657143"/>
      </g>
     </g>
     <g id="text_18">
      <!-- 5 -->
      <g transform="translate(69.9 258.145346)scale(0.19 -0.19)">
       <use xlink:href="#STIXGeneral-Regular-53"/>
      </g>
     </g>
    </g>
    <g id="text_19">
     <!-- $C_l$ -->
     <g transform="translate(48.761406 315.159286)rotate(-90)scale(0.19 -0.19)">
      <use transform="translate(0 0.40625)" xlink:href="#STIXGeneral-Italic-67"/>
      <use transform="translate(66.699997 -12.821875)scale(0.7)" xlink:href="#STIXGeneral-Italic-108"/>
     </g>
    </g>
   </g>
   <g id="line2d_47">
    <path clip-path="url(#p81d6205c7c)" d="M 86.889057 318.754349 
L 87.86717 314.942144 
L 88.356226 311.292795 
L 88.845283 305.845064 
L 89.660377 293.202814 
L 90.638491 278.322038 
L 91.290566 272.033223 
L 91.779623 269.149607 
L 92.268679 267.334558 
L 92.757736 266.191728 
L 93.409811 265.275901 
L 94.224906 264.579971 
L 96.181132 263.434724 
L 97.648302 262.44916 
L 98.952453 261.308593 
L 100.256604 259.811215 
L 101.397736 258.151228 
L 102.538868 256.13423 
L 103.843019 253.423468 
L 105.799245 249.137824 
L 106.288302 248.394209 
L 106.61434 248.138065 
L 106.940377 248.182482 
L 107.266415 248.618892 
L 107.592453 249.568238 
L 108.081509 252.48408 
L 108.570566 257.272948 
L 109.38566 268.559931 
L 110.200755 279.245856 
L 110.85283 284.689022 
L 111.341887 287.061685 
L 111.830943 288.44487 
L 112.32 289.226637 
L 112.972075 289.778972 
L 113.461132 290.020973 
L 114.276226 290.21275 
L 115.743396 290.367734 
L 122.590189 290.312271 
L 127.643774 290.246987 
L 134.816604 290.231185 
L 134.979623 290.160137 
L 135.30566 290.217177 
L 141.17434 290.230847 
L 151.281509 290.306959 
L 151.444528 290.214826 
L 151.770566 290.285261 
L 155.193962 290.28009 
L 161.551698 290.281284 
L 164.975094 290.27167 
L 184.048302 290.236975 
L 184.211321 290.262933 
L 184.37434 290.171777 
L 184.700377 290.239029 
L 188.449811 290.244355 
L 194.970566 290.222078 
L 195.133585 290.262858 
L 195.296604 290.152506 
L 195.622642 290.224077 
L 196.274717 290.243435 
L 197.25283 290.221023 
L 198.067925 290.230764 
L 199.046038 290.202742 
L 199.861132 290.211955 
L 202.632453 290.219465 
L 203.936604 290.199137 
L 219.912453 290.22832 
L 222.194717 290.50361 
L 222.683774 290.603792 
L 223.824906 291.98461 
L 224.313962 293.33543 
L 224.803019 295.61808 
L 225.292075 299.345848 
L 225.781132 304.882507 
L 226.433208 314.939643 
L 227.57434 333.12892 
L 228.226415 339.783849 
L 228.715472 343.086435 
L 229.367547 345.826862 
L 230.019623 347.537822 
L 230.997736 349.33336 
L 232.138868 350.908116 
L 233.28 352.322871 
L 236.21434 355.711593 
L 238.98566 358.886223 
L 240.615849 360.800902 
L 241.92 362.254029 
L 242.735094 362.887751 
L 243.38717 362.916878 
L 243.876226 362.307443 
L 244.202264 361.428222 
L 244.691321 359.040926 
L 245.180377 354.96476 
L 245.832453 346.672935 
L 247.136604 328.059941 
L 247.62566 323.558313 
L 248.114717 320.750006 
L 248.603774 319.111687 
L 249.09283 318.268743 
L 249.418868 317.955085 
L 249.907925 317.7455 
L 250.396981 317.688776 
L 251.212075 317.797997 
L 253.331321 318.360722 
L 253.983396 318.501005 
L 255.287547 318.851273 
L 261.971321 320.664924 
L 265.720755 321.969868 
L 273.871698 325.147709 
L 276.316981 325.856893 
L 279.740377 326.51621 
L 283.163774 326.891907 
L 298.161509 327.902593 
L 305.171321 327.967237 
L 311.203019 327.801833 
L 315.767547 327.589783 
L 323.103396 327.096077 
L 334.188679 326.069792 
L 352.283774 324.405606 
L 361.249811 323.817233 
L 375.432453 323.226504 
L 396.787925 322.697509 
L 412.600755 322.405336 
L 412.600755 322.405336 
" style="fill:none;stroke:#1f77b4;stroke-linecap:square;stroke-width:2;"/>
   </g>
   <g id="line2d_48">
    <path clip-path="url(#p81d6205c7c)" d="M 86.889057 319.484442 
L 87.86717 317.565653 
L 88.356226 315.726845 
L 88.845283 312.98092 
L 89.660377 306.601889 
L 90.638491 299.065256 
L 91.290566 295.846013 
L 91.779623 294.353217 
L 92.268679 293.399497 
L 92.920755 292.629647 
L 93.735849 292.056716 
L 96.670189 290.345681 
L 97.648302 289.524478 
L 98.789434 288.272961 
L 99.930566 286.66875 
L 101.234717 284.414042 
L 102.701887 281.426751 
L 104.984151 276.156028 
L 106.288302 273.299263 
L 106.940377 272.348595 
L 107.266415 272.147089 
L 107.592453 272.221489 
L 107.918491 272.658951 
L 108.244528 273.531842 
L 108.733585 275.684746 
L 110.689811 286.471105 
L 111.178868 287.74448 
L 111.667925 288.525107 
L 112.646038 289.264105 
L 113.624151 289.569978 
L 115.25434 289.837469 
L 119.981887 290.216182 
L 120.307925 290.216824 
L 126.66566 290.261541 
L 130.415094 290.255128 
L 166.279245 290.356753 
L 167.420377 290.39514 
L 171.495849 290.566249 
L 173.289057 290.670513 
L 179.157736 291.114886 
L 188.123774 292.220221 
L 190.569057 292.607508 
L 193.829434 293.212803 
L 193.992453 293.1776 
L 194.481509 293.328669 
L 195.948679 293.61961 
L 201.980377 294.987946 
L 202.795472 295.194266 
L 209.479245 297.014641 
L 211.272453 297.566109 
L 212.902642 298.073139 
L 214.206792 298.499897 
L 216.815094 299.38618 
L 222.357736 301.681646 
L 223.17283 302.272533 
L 223.824906 303.04301 
L 224.313962 303.933499 
L 224.803019 305.311832 
L 225.292075 307.41432 
L 225.781132 310.451629 
L 226.596226 317.430616 
L 227.57434 325.885926 
L 228.226415 329.848591 
L 228.878491 332.501739 
L 229.530566 334.348398 
L 230.34566 336.071155 
L 231.486792 337.977445 
L 232.790943 339.769436 
L 234.095094 341.226257 
L 235.399245 342.331281 
L 236.377358 342.920807 
L 237.355472 343.294796 
L 238.333585 343.459321 
L 239.311698 343.41962 
L 240.289811 343.199451 
L 241.593962 342.648268 
L 242.572075 341.970522 
L 243.224151 341.248837 
L 243.876226 340.088401 
L 244.365283 338.700963 
L 244.85434 336.608478 
L 245.343396 333.614299 
L 246.158491 326.822757 
L 247.136604 318.815955 
L 247.788679 315.279744 
L 248.440755 313.120576 
L 249.09283 311.814734 
L 249.744906 310.953479 
L 250.886038 309.932425 
L 252.842264 308.661705 
L 254.309434 307.886124 
L 256.428679 307.022898 
L 258.710943 306.476596 
L 260.504151 306.315137 
L 262.297358 306.385534 
L 264.416604 306.732332 
L 266.37283 307.278363 
L 268.818113 308.19567 
L 273.382642 310.464447 
L 276.643019 312.354755 
L 280.718491 314.665421 
L 282.674717 315.645195 
L 286.261132 317.113423 
L 289.684528 318.229763 
L 293.76 319.448426 
L 302.073962 321.717547 
L 305.986415 322.475544 
L 311.203019 323.210714 
L 317.723774 323.756508 
L 323.429434 323.945082 
L 334.514717 323.797207 
L 344.295849 323.359547 
L 359.293585 322.625607 
L 370.378868 322.252116 
L 383.420377 322.006095 
L 412.600755 321.711232 
L 412.600755 321.711232 
" style="fill:none;stroke:#ff7f0e;stroke-linecap:square;stroke-width:2;"/>
   </g>
   <g id="line2d_49">
    <path clip-path="url(#p81d6205c7c)" d="M 86.889057 319.852167 
L 87.86717 318.883503 
L 88.356226 317.954471 
L 88.845283 316.566301 
L 89.660377 313.336378 
L 90.638491 309.499124 
L 91.290566 307.841693 
L 91.942642 306.866429 
L 92.594717 306.295274 
L 93.735849 305.679468 
L 95.366038 304.80414 
L 96.50717 303.932818 
L 97.648302 302.749845 
L 98.789434 301.245925 
L 100.256604 298.901049 
L 101.886792 295.863616 
L 103.68 292.071492 
L 107.103396 284.473394 
L 107.592453 283.861764 
L 107.918491 283.68781 
L 108.244528 283.749015 
L 108.570566 284.048672 
L 109.059623 284.948849 
L 110.526792 288.222571 
L 111.178868 289.003123 
L 112.32 289.616399 
L 113.298113 289.865565 
L 115.25434 290.154986 
L 115.906415 290.20293 
L 118.02566 290.307599 
L 118.677736 290.300676 
L 126.176604 290.255062 
L 126.66566 290.241688 
L 130.415094 290.217123 
L 131.230189 290.257744 
L 134.164528 290.384371 
L 137.098868 290.641157 
L 137.587925 290.687138 
L 139.70717 290.980817 
L 142.641509 291.558437 
L 143.130566 291.663812 
L 145.738868 292.391627 
L 148.184151 293.212345 
L 148.999245 293.567301 
L 151.444528 294.646356 
L 154.541887 296.238211 
L 158.780377 298.81237 
L 162.529811 301.618785 
L 168.072453 306.263138 
L 169.539623 307.013037 
L 170.680755 307.281401 
L 171.821887 307.258052 
L 172.8 307.041519 
L 173.452075 306.798159 
L 174.756226 306.125291 
L 176.386415 305.038327 
L 181.929057 301.156849 
L 184.048302 300.128928 
L 185.841509 299.522697 
L 187.471698 299.178121 
L 189.916981 298.960419 
L 191.710189 299.003136 
L 193.340377 299.177244 
L 193.666415 299.214728 
L 196.111698 299.676103 
L 196.763774 299.86843 
L 200.18717 300.639823 
L 200.676226 300.673017 
L 202.143396 300.685407 
L 203.610566 300.495942 
L 205.240755 299.988318 
L 206.381887 299.43592 
L 208.012075 298.344218 
L 209.642264 296.952075 
L 210.29434 296.28922 
L 213.06566 293.293462 
L 216 290.234263 
L 218.445283 288.142398 
L 220.564528 286.648708 
L 223.17283 285.485736 
L 224.150943 285.590247 
L 224.64 285.955853 
L 225.292075 287.029646 
L 225.781132 288.428732 
L 226.433208 291.132147 
L 227.900377 297.781158 
L 228.715472 300.349655 
L 229.693585 302.701064 
L 231.81283 307.054924 
L 243.061132 329.215798 
L 243.876226 330.390401 
L 244.365283 330.779075 
L 244.691321 330.830013 
L 245.017358 330.668461 
L 245.343396 330.274178 
L 245.832453 329.243276 
L 247.462642 325.13114 
L 247.951698 324.520447 
L 248.440755 324.191639 
L 249.09283 324.013863 
L 250.233962 324.025143 
L 255.124528 324.316012 
L 257.73283 324.10414 
L 260.178113 323.664732 
L 263.927547 322.701671 
L 268.003019 321.49057 
L 272.404528 319.957006 
L 275.338868 318.679249 
L 277.784151 317.376295 
L 280.066415 315.937025 
L 283.489811 313.458164 
L 286.098113 311.644978 
L 287.565283 310.917387 
L 288.706415 310.621462 
L 289.684528 310.582163 
L 290.82566 310.788966 
L 291.966792 311.266337 
L 293.107925 312.010527 
L 294.412075 313.15511 
L 297.835472 316.375865 
L 298.650566 316.74598 
L 299.302642 316.836941 
L 300.117736 316.706994 
L 301.095849 316.261424 
L 303.052075 314.982078 
L 304.682264 314.028762 
L 305.986415 313.505062 
L 307.290566 313.194954 
L 309.083774 313.015965 
L 311.529057 313.022961 
L 316.74566 313.074049 
L 319.353962 312.826782 
L 323.592453 312.085559 
L 328.972075 311.080775 
L 333.373585 310.54605 
L 360.271698 308.258643 
L 365.977358 308.235913 
L 372.009057 308.443309 
L 377.877736 308.872613 
L 382.116226 309.388288 
L 385.213585 309.990586 
L 388.147925 310.791815 
L 391.082264 311.847903 
L 394.831698 313.446824 
L 402.656604 316.870408 
L 407.710189 318.821748 
L 411.296604 319.965709 
L 412.600755 320.305626 
L 412.600755 320.305626 
" style="fill:none;stroke:#2ca02c;stroke-linecap:square;stroke-width:2;"/>
   </g>
   <g id="line2d_50">
    <path clip-path="url(#p81d6205c7c)" d="M 86.4 320.228571 
L 412.437736 320.228571 
" style="fill:none;stroke:#000000;stroke-dasharray:3.2,0.8,0.5,0.8;stroke-dashoffset:0;stroke-width:0.5;"/>
   </g>
   <g id="line2d_51">
    <path clip-path="url(#p81d6205c7c)" d="M 249.418868 388.8 
L 249.418868 224.228571 
" style="fill:none;stroke:#000000;stroke-linecap:square;stroke-width:0.5;"/>
   </g>
   <g id="line2d_52">
    <path clip-path="url(#p81d6205c7c)" d="M 282.022642 388.8 
L 282.022642 224.228571 
" style="fill:none;stroke:#000000;stroke-dasharray:6.4,1.6,1,1.6;stroke-dashoffset:0;stroke-opacity:0.25;"/>
   </g>
   <g id="line2d_53">
    <path clip-path="url(#p81d6205c7c)" d="M 314.626415 388.8 
L 314.626415 224.228571 
" style="fill:none;stroke:#000000;stroke-dasharray:6.4,1.6,1,1.6;stroke-dashoffset:0;stroke-opacity:0.25;"/>
   </g>
   <g id="line2d_54">
    <path clip-path="url(#p81d6205c7c)" d="M 347.230189 388.8 
L 347.230189 224.228571 
" style="fill:none;stroke:#000000;stroke-dasharray:6.4,1.6,1,1.6;stroke-dashoffset:0;stroke-opacity:0.25;"/>
   </g>
   <g id="patch_13">
    <path d="M 86.4 388.8 
L 86.4 224.228571 
" style="fill:none;stroke:#000000;stroke-linecap:square;stroke-linejoin:miter;stroke-width:0.8;"/>
   </g>
   <g id="patch_14">
    <path d="M 412.437736 388.8 
L 412.437736 224.228571 
" style="fill:none;stroke:#000000;stroke-linecap:square;stroke-linejoin:miter;stroke-width:0.8;"/>
   </g>
   <g id="patch_15">
    <path d="M 86.4 388.8 
L 412.437736 388.8 
" style="fill:none;stroke:#000000;stroke-linecap:square;stroke-linejoin:miter;stroke-width:0.8;"/>
   </g>
   <g id="patch_16">
    <path d="M 86.4 224.228571 
L 412.437736 224.228571 
" style="fill:none;stroke:#000000;stroke-linecap:square;stroke-linejoin:miter;stroke-width:0.8;"/>
   </g>
   <g id="text_20">
    <!-- Stroke motion -->
    <defs>
     <path d="M 46.90625 46.296875 
L 44.40625 46.296875 
Q 42.703125 52.5 40.296875 55.703125 
Q 34.203125 63.5 25.796875 63.5 
Q 21.203125 63.5 18.453125 60.84375 
Q 15.703125 58.203125 15.703125 54 
Q 15.703125 52 16.703125 50.09375 
Q 17.703125 48.203125 18.84375 46.84375 
Q 20 45.5 22.890625 43.5 
Q 25.796875 41.5 27.59375 40.453125 
Q 29.40625 39.40625 33.59375 36.90625 
Q 41.703125 32.203125 45.390625 27.546875 
Q 49.09375 22.90625 49.09375 17.296875 
Q 49.09375 9 43.296875 3.796875 
Q 37.5 -1.40625 28.703125 -1.40625 
Q 22.203125 -1.40625 16.90625 0.90625 
Q 14.296875 2 12.203125 2 
Q 11 2 10.203125 1.09375 
Q 9.40625 0.203125 9.40625 -1.296875 
L 7.203125 -1.296875 
L 4.296875 19.90625 
L 6.5 19.90625 
Q 13.203125 2.203125 27.09375 2.203125 
Q 32.40625 2.203125 35.703125 5.34375 
Q 39 8.5 39 13.40625 
Q 39 18.09375 36.09375 21.296875 
Q 31.296875 26.5 19.296875 32.90625 
Q 7.09375 39.40625 7.09375 50.09375 
Q 7.09375 58.09375 12 62.84375 
Q 16.90625 67.59375 24.5 67.59375 
Q 29.796875 67.59375 35 65.40625 
Q 37.703125 64.203125 39.40625 64.203125 
Q 42 64.203125 42.59375 67.59375 
L 44.703125 67.59375 
z
" id="STIXGeneral-Regular-83"/>
     <path d="M 26.59375 7.703125 
L 27.90625 6.59375 
Q 23.09375 -1 15.796875 -1 
Q 7 -1 7 11.703125 
L 7 41.796875 
L 1.703125 41.796875 
Q 1.296875 42.09375 1.296875 42.5 
Q 1.296875 43.296875 3 44.40625 
Q 6.796875 46.59375 12.703125 55.09375 
Q 12.90625 55.40625 13.65625 56.34375 
Q 14.40625 57.296875 14.703125 57.90625 
Q 15.40625 57.90625 15.40625 56.59375 
L 15.40625 45 
L 25.5 45 
L 25.5 41.796875 
L 15.40625 41.796875 
L 15.40625 13.203125 
Q 15.40625 8.40625 16.59375 6.296875 
Q 17.796875 4.203125 20.59375 4.203125 
Q 23.59375 4.203125 26.59375 7.703125 
z
" id="STIXGeneral-Regular-116"/>
     <path d="M 16 45.796875 
L 16 36.59375 
Q 19.796875 42 22.34375 44 
Q 24.90625 46 28 46 
Q 30.59375 46 32.046875 44.59375 
Q 33.5 43.203125 33.5 40.703125 
Q 33.5 38.59375 32.453125 37.390625 
Q 31.40625 36.203125 29.59375 36.203125 
Q 27.703125 36.203125 25.59375 38.203125 
Q 24 39.703125 23 39.703125 
Q 20.90625 39.703125 18.453125 36.796875 
Q 16 33.90625 16 31.5 
L 16 9 
Q 16 4.703125 17.703125 3.203125 
Q 19.40625 1.703125 24.5 1.5 
L 24.5 0 
L 0.5 0 
L 0.5 1.5 
Q 5.296875 2.40625 6.4375 3.5 
Q 7.59375 4.59375 7.59375 8.40625 
L 7.59375 33.40625 
Q 7.59375 36.703125 6.84375 38.046875 
Q 6.09375 39.40625 4.203125 39.40625 
Q 2.59375 39.40625 0.703125 39 
L 0.703125 40.59375 
Q 7 42.59375 15.5 46 
z
" id="STIXGeneral-Regular-114"/>
     <path d="M 47 23.09375 
Q 47 12.59375 40.75 5.796875 
Q 34.5 -1 24.5 -1 
Q 15.296875 -1 9.09375 5.75 
Q 2.90625 12.5 2.90625 22.796875 
Q 2.90625 33.203125 9.09375 39.59375 
Q 15.296875 46 25.40625 46 
Q 34.703125 46 40.84375 39.640625 
Q 47 33.296875 47 23.09375 
z
M 38 20.40625 
Q 38 31.796875 33 38.203125 
Q 29 43.203125 23.5 43.203125 
Q 18.296875 43.203125 15.09375 38.953125 
Q 11.90625 34.703125 11.90625 27.296875 
Q 11.90625 14.5 17.203125 6.796875 
Q 20.59375 1.796875 26.203125 1.796875 
Q 31.703125 1.796875 34.84375 6.75 
Q 38 11.703125 38 20.40625 
z
" id="STIXGeneral-Regular-111"/>
     <path d="M 50.5 0 
L 28.703125 0 
L 28.703125 1.5 
L 30.59375 1.5 
Q 32.703125 1.5 32.703125 3 
Q 32.703125 3.90625 31.59375 5.296875 
L 16.59375 25.09375 
L 16.59375 6.703125 
Q 16.59375 4.09375 17.84375 2.890625 
Q 19.09375 1.703125 22.09375 1.59375 
L 24.09375 1.5 
L 24.09375 0 
L 0.703125 0 
L 0.703125 1.5 
Q 6.09375 2.40625 7.140625 3.34375 
Q 8.203125 4.296875 8.203125 8.203125 
L 8.203125 56.40625 
Q 8.203125 60 7.296875 61.25 
Q 6.40625 62.5 3.90625 62.5 
Q 3.296875 62.5 0.703125 62.296875 
L 0.703125 63.90625 
L 3.703125 64.703125 
Q 9.703125 66.296875 16.203125 68.296875 
L 16.59375 68.09375 
L 16.59375 26.09375 
L 30.296875 38.296875 
Q 32.59375 40.40625 32.59375 41.796875 
Q 32.59375 42.796875 31.546875 43.140625 
Q 30.5 43.5 27.59375 43.59375 
L 27.59375 45 
L 48 45 
L 48 43.5 
Q 43 43.5 39.140625 41.34375 
Q 35.296875 39.203125 26.40625 30.90625 
L 23.5 28.203125 
L 38.796875 8.796875 
Q 44.203125 1.90625 50.5 1.5 
z
" id="STIXGeneral-Regular-107"/>
     <path d="M 40.796875 16.40625 
L 42.40625 15.703125 
Q 36.40625 -1 21.5 -1 
Q 12.703125 -1 7.59375 5.140625 
Q 2.5 11.296875 2.5 21.703125 
Q 2.5 32.40625 8.203125 39.203125 
Q 13.90625 46 23.203125 46 
Q 32.203125 46 37.09375 39.09375 
Q 40 35.09375 40.5 27.703125 
L 9.703125 27.703125 
Q 10.09375 21.40625 10.9375 18.09375 
Q 11.796875 14.796875 14.296875 11.40625 
Q 18.5 5.90625 25.40625 5.90625 
Q 30.296875 5.90625 33.640625 8.296875 
Q 37 10.703125 40.796875 16.40625 
z
M 9.90625 30.90625 
L 30.296875 30.90625 
Q 29.40625 37.203125 27.34375 39.796875 
Q 25.296875 42.40625 20.5 42.40625 
Q 16.296875 42.40625 13.5 39.453125 
Q 10.703125 36.5 9.90625 30.90625 
z
" id="STIXGeneral-Regular-101"/>
     <path id="STIXGeneral-Regular-32"/>
     <path d="M 77.5 0 
L 55.703125 0 
L 55.703125 1.5 
Q 59.90625 1.90625 61.046875 3.25 
Q 62.203125 4.59375 62.203125 9 
L 62.203125 29.59375 
Q 62.203125 35.59375 60.453125 38.1875 
Q 58.703125 40.796875 54.5 40.796875 
Q 51 40.796875 48.546875 39.390625 
Q 46.09375 38 43.796875 34.703125 
L 43.796875 9.5 
Q 43.796875 4.703125 45.25 3.140625 
Q 46.703125 1.59375 51 1.5 
L 51 0 
L 28.59375 0 
L 28.59375 1.5 
Q 33 1.796875 34.203125 2.9375 
Q 35.40625 4.09375 35.40625 8.59375 
L 35.40625 29.703125 
Q 35.40625 40.796875 28.90625 40.796875 
Q 26.09375 40.796875 22.9375 39.546875 
Q 19.796875 38.296875 18.296875 36.5 
Q 17 35 17 34.796875 
L 17 7 
Q 17 3.796875 18.390625 2.75 
Q 19.796875 1.703125 23.796875 1.5 
L 23.796875 0 
L 1.59375 0 
L 1.59375 1.5 
Q 5.796875 1.59375 7.1875 3.046875 
Q 8.59375 4.5 8.59375 8.796875 
L 8.59375 33.59375 
Q 8.59375 37.296875 7.796875 38.75 
Q 7 40.203125 5.09375 40.203125 
Q 3.59375 40.203125 1.90625 39.796875 
L 1.90625 41.5 
Q 8.703125 43.40625 15.796875 46 
L 16.59375 45.703125 
L 16.59375 38.296875 
L 16.796875 38.296875 
Q 21.296875 43 24.75 44.5 
Q 28.203125 46 32.09375 46 
Q 40 46 42.703125 37.59375 
Q 50.5 46 59 46 
Q 70.59375 46 70.59375 28 
L 70.59375 7.703125 
Q 70.59375 4.40625 71.59375 3.15625 
Q 72.59375 1.90625 74.90625 1.703125 
L 77.5 1.5 
z
" id="STIXGeneral-Regular-109"/>
     <path d="M 18 63.203125 
Q 18 61 16.5 59.546875 
Q 15 58.09375 12.796875 58.09375 
Q 10.703125 58.09375 9.25 59.546875 
Q 7.796875 61 7.796875 63.203125 
Q 7.796875 65.296875 9.296875 66.796875 
Q 10.796875 68.296875 12.90625 68.296875 
Q 15.09375 68.296875 16.546875 66.796875 
Q 18 65.296875 18 63.203125 
z
M 25.296875 0 
L 1.59375 0 
L 1.59375 1.5 
Q 6.796875 1.796875 8.140625 3.296875 
Q 9.5 4.796875 9.5 10.40625 
L 9.5 33.09375 
Q 9.5 36.59375 8.796875 38 
Q 8.09375 39.40625 6.203125 39.40625 
Q 3.796875 39.40625 2 38.90625 
L 2 40.5 
L 17.5 46 
L 17.90625 45.59375 
L 17.90625 10.5 
Q 17.90625 4.90625 19.15625 3.40625 
Q 20.40625 1.90625 25.296875 1.5 
z
" id="STIXGeneral-Regular-105"/>
     <path d="M 48.5 0 
L 27.703125 0 
L 27.796875 1.5 
Q 31.5 1.796875 32.75 3.640625 
Q 34 5.5 34 10.5 
L 34 30.40625 
Q 34 40.5 26.703125 40.5 
Q 24.203125 40.5 22 39.296875 
Q 19.796875 38.09375 16.40625 34.796875 
L 16.40625 7.203125 
Q 16.40625 4.203125 17.75 3 
Q 19.09375 1.796875 22.90625 1.5 
L 22.90625 0 
L 1.796875 0 
L 1.796875 1.5 
Q 5.59375 1.796875 6.796875 3.34375 
Q 8 4.90625 8 9.40625 
L 8 33.703125 
Q 8 37.40625 7.296875 38.796875 
Q 6.59375 40.203125 4.5 40.203125 
Q 2.5 40.203125 1.59375 39.796875 
L 1.59375 41.5 
Q 8.59375 43.5 15.296875 46 
L 16.09375 45.703125 
L 16.09375 37.90625 
L 16.203125 37.90625 
Q 23.296875 46 30.59375 46 
Q 36.296875 46 39.34375 42 
Q 42.40625 38 42.40625 30.59375 
L 42.40625 8.5 
Q 42.40625 4.5 43.59375 3.203125 
Q 44.796875 1.90625 48.5 1.5 
z
" id="STIXGeneral-Regular-110"/>
    </defs>
    <g transform="translate(121.959362 384.997835)scale(0.19 -0.19)">
     <use xlink:href="#STIXGeneral-Regular-83"/>
     <use x="55.599991" xlink:href="#STIXGeneral-Regular-116"/>
     <use x="83.399979" xlink:href="#STIXGeneral-Regular-114"/>
     <use x="116.699966" xlink:href="#STIXGeneral-Regular-111"/>
     <use x="166.699951" xlink:href="#STIXGeneral-Regular-107"/>
     <use x="216.699936" xlink:href="#STIXGeneral-Regular-101"/>
     <use x="261.09993" xlink:href="#STIXGeneral-Regular-32"/>
     <use x="286.099915" xlink:href="#STIXGeneral-Regular-109"/>
     <use x="363.899902" xlink:href="#STIXGeneral-Regular-111"/>
     <use x="413.899887" xlink:href="#STIXGeneral-Regular-116"/>
     <use x="441.699875" xlink:href="#STIXGeneral-Regular-105"/>
     <use x="469.499863" xlink:href="#STIXGeneral-Regular-111"/>
     <use x="519.499847" xlink:href="#STIXGeneral-Regular-110"/>
    </g>
   </g>
   <g id="text_21">
    <!-- Wake interaction -->
    <defs>
     <path d="M 93.203125 66.203125 
L 93.203125 64.296875 
Q 89.203125 63.5 87.75 62.34375 
Q 86.296875 61.203125 84.90625 57.296875 
Q 73.5 26.703125 64.5 -1.09375 
L 63 -1.09375 
Q 56.90625 15.796875 47 41.203125 
L 31.59375 -1.09375 
L 30.09375 -1.09375 
Q 26.703125 9 19.953125 27.390625 
Q 13.203125 45.796875 10.90625 52.296875 
Q 8.40625 59.5 6.34375 61.84375 
Q 4.296875 64.203125 0.5 64.296875 
L 0.5 66.203125 
L 24.90625 66.203125 
L 24.90625 64.296875 
Q 21.203125 64.203125 19.84375 63.5 
Q 18.5 62.796875 18.5 61.203125 
Q 18.5 59.5 19.59375 56.5 
L 34 18.90625 
L 44.40625 47.203125 
L 41.59375 54.703125 
Q 39.203125 61.203125 37.5 62.703125 
Q 35.796875 64.203125 31.40625 64.296875 
L 31.40625 66.203125 
L 57.90625 66.203125 
L 57.90625 64.296875 
Q 50.203125 64.09375 50.203125 60.796875 
Q 50.203125 59.5 51.90625 55 
L 66.203125 18.59375 
L 78.796875 52.5 
Q 80.5 57.296875 80.5 60.203125 
Q 80.5 64.203125 73.5 64.296875 
L 73.5 66.203125 
z
" id="STIXGeneral-Regular-87"/>
     <path d="M 44.203125 6.59375 
L 44.203125 3.796875 
Q 40.40625 -1 35.203125 -1 
Q 29.5 -1 28.796875 6.296875 
L 28.703125 6.296875 
Q 22.296875 -1 14.203125 -1 
Q 9.5 -1 6.59375 1.75 
Q 3.703125 4.5 3.703125 9.40625 
Q 3.703125 16.40625 10.703125 21.09375 
Q 15.5 24.296875 28.703125 29.203125 
L 28.703125 34.59375 
Q 28.703125 39.09375 26.546875 41.34375 
Q 24.40625 43.59375 20.90625 43.59375 
Q 17.90625 43.59375 15.90625 42.140625 
Q 13.90625 40.703125 13.90625 38.703125 
Q 13.90625 37.796875 14.203125 36.6875 
Q 14.5 35.59375 14.5 34.5 
Q 14.5 33 13.140625 31.703125 
Q 11.796875 30.40625 9.90625 30.40625 
Q 8.203125 30.40625 6.890625 31.703125 
Q 5.59375 33 5.59375 35 
Q 5.59375 39.796875 10.703125 43 
Q 15.40625 46 22.203125 46 
Q 30.296875 46 34 41.5 
Q 35.796875 39.40625 36.296875 37.25 
Q 36.796875 35.09375 36.796875 30.40625 
L 36.796875 11.296875 
Q 36.796875 4.703125 39.90625 4.703125 
Q 41.90625 4.703125 44.203125 6.59375 
z
M 28.703125 12.703125 
L 28.703125 26.796875 
Q 19.5 23.59375 15.90625 20.203125 
Q 12.5 17.09375 12.5 12.5 
Q 12.5 8.703125 14.390625 6.75 
Q 16.296875 4.796875 19.40625 4.796875 
Q 22.703125 4.796875 25.203125 6.40625 
Q 27.296875 7.90625 28 9.203125 
Q 28.703125 10.5 28.703125 12.703125 
z
" id="STIXGeneral-Regular-97"/>
     <path d="M 39.796875 15.59375 
L 41.203125 14.703125 
Q 36.90625 6.296875 33 3.203125 
Q 27.90625 -1 21.5 -1 
Q 13.203125 -1 7.84375 5.25 
Q 2.5 11.5 2.5 21.203125 
Q 2.5 33.90625 10.90625 40.90625 
Q 17.09375 46 24.40625 46 
Q 30.703125 46 35.25 42.953125 
Q 39.796875 39.90625 39.796875 35.703125 
Q 39.796875 34 38.390625 32.75 
Q 37 31.5 35.09375 31.5 
Q 31.59375 31.5 30.296875 36.09375 
L 29.703125 38.296875 
Q 28.90625 41.09375 27.703125 42.09375 
Q 26.5 43.09375 23.796875 43.09375 
Q 17.703125 43.09375 13.953125 38.296875 
Q 10.203125 33.5 10.203125 25.703125 
Q 10.203125 17.09375 14.5 11.640625 
Q 18.796875 6.203125 25.703125 6.203125 
Q 30 6.203125 33.09375 8.25 
Q 36.203125 10.296875 39.796875 15.59375 
z
" id="STIXGeneral-Regular-99"/>
    </defs>
    <g transform="translate(273.916667 384.997835)scale(0.19 -0.19)">
     <use xlink:href="#STIXGeneral-Regular-87"/>
     <use x="94.399994" xlink:href="#STIXGeneral-Regular-97"/>
     <use x="138.799988" xlink:href="#STIXGeneral-Regular-107"/>
     <use x="188.799973" xlink:href="#STIXGeneral-Regular-101"/>
     <use x="233.199966" xlink:href="#STIXGeneral-Regular-32"/>
     <use x="258.199951" xlink:href="#STIXGeneral-Regular-105"/>
     <use x="285.999939" xlink:href="#STIXGeneral-Regular-110"/>
     <use x="335.999924" xlink:href="#STIXGeneral-Regular-116"/>
     <use x="363.799911" xlink:href="#STIXGeneral-Regular-101"/>
     <use x="408.199905" xlink:href="#STIXGeneral-Regular-114"/>
     <use x="441.499893" xlink:href="#STIXGeneral-Regular-97"/>
     <use x="485.899887" xlink:href="#STIXGeneral-Regular-99"/>
     <use x="530.299881" xlink:href="#STIXGeneral-Regular-116"/>
     <use x="558.099869" xlink:href="#STIXGeneral-Regular-105"/>
     <use x="585.899857" xlink:href="#STIXGeneral-Regular-111"/>
     <use x="635.899841" xlink:href="#STIXGeneral-Regular-110"/>
    </g>
   </g>
  </g>
  <g id="axes_4">
   <g id="patch_17">
    <path d="M 451.562264 388.8 
L 777.6 388.8 
L 777.6 224.228571 
L 451.562264 224.228571 
z
" style="fill:#ffffff;"/>
   </g>
   <g id="matplotlib.axis_7">
    <g id="xtick_16">
     <g id="line2d_55">
      <g>
       <use style="fill:#ffffff;stroke:#000000;stroke-width:0.8;" x="451.562264" xlink:href="#m5ac6270c31" y="388.8"/>
      </g>
     </g>
     <g id="text_22">
      <!-- 0.0 -->
      <g transform="translate(439.687264 408.776406)scale(0.19 -0.19)">
       <use xlink:href="#STIXGeneral-Regular-48"/>
       <use x="49.999985" xlink:href="#STIXGeneral-Regular-46"/>
       <use x="74.999969" xlink:href="#STIXGeneral-Regular-48"/>
      </g>
     </g>
    </g>
    <g id="xtick_17">
     <g id="line2d_56">
      <g>
       <use style="fill:#ffffff;stroke:#000000;stroke-width:0.8;" x="533.071698" xlink:href="#m5ac6270c31" y="388.8"/>
      </g>
     </g>
     <g id="text_23">
      <!-- 0.5 -->
      <g transform="translate(521.196698 408.776406)scale(0.19 -0.19)">
       <use xlink:href="#STIXGeneral-Regular-48"/>
       <use x="49.999985" xlink:href="#STIXGeneral-Regular-46"/>
       <use x="74.999969" xlink:href="#STIXGeneral-Regular-53"/>
      </g>
     </g>
    </g>
    <g id="xtick_18">
     <g id="line2d_57">
      <g>
       <use style="fill:#ffffff;stroke:#000000;stroke-width:0.8;" x="614.581132" xlink:href="#m5ac6270c31" y="388.8"/>
      </g>
     </g>
     <g id="text_24">
      <!-- 1.0 -->
      <g transform="translate(602.706132 408.776406)scale(0.19 -0.19)">
       <use xlink:href="#STIXGeneral-Regular-49"/>
       <use x="49.999985" xlink:href="#STIXGeneral-Regular-46"/>
       <use x="74.999969" xlink:href="#STIXGeneral-Regular-48"/>
      </g>
     </g>
    </g>
    <g id="xtick_19">
     <g id="line2d_58">
      <g>
       <use style="fill:#ffffff;stroke:#000000;stroke-width:0.8;" x="696.090566" xlink:href="#m5ac6270c31" y="388.8"/>
      </g>
     </g>
     <g id="text_25">
      <!-- 1.5 -->
      <g transform="translate(684.215566 408.776406)scale(0.19 -0.19)">
       <use xlink:href="#STIXGeneral-Regular-49"/>
       <use x="49.999985" xlink:href="#STIXGeneral-Regular-46"/>
       <use x="74.999969" xlink:href="#STIXGeneral-Regular-53"/>
      </g>
     </g>
    </g>
    <g id="xtick_20">
     <g id="line2d_59">
      <g>
       <use style="fill:#ffffff;stroke:#000000;stroke-width:0.8;" x="777.6" xlink:href="#m5ac6270c31" y="388.8"/>
      </g>
     </g>
     <g id="text_26">
      <!-- 2.0 -->
      <g transform="translate(765.725 408.776406)scale(0.19 -0.19)">
       <use xlink:href="#STIXGeneral-Regular-50"/>
       <use x="49.999985" xlink:href="#STIXGeneral-Regular-46"/>
       <use x="74.999969" xlink:href="#STIXGeneral-Regular-48"/>
      </g>
     </g>
    </g>
    <g id="text_27">
     <!-- $\^t$ -->
     <g transform="translate(611.921132 429.876406)scale(0.19 -0.19)">
      <use transform="translate(39.042969 16.59375)" xlink:href="#STIXGeneral-Regular-770"/>
      <use transform="translate(0 0.203125)" xlink:href="#STIXGeneral-Italic-116"/>
     </g>
    </g>
   </g>
   <g id="matplotlib.axis_8">
    <g id="ytick_10">
     <g id="line2d_60">
      <g>
       <use style="fill:#ffffff;stroke:#000000;stroke-width:0.8;" x="451.562264" xlink:href="#mc66337de3f" y="388.8"/>
      </g>
     </g>
    </g>
    <g id="ytick_11">
     <g id="line2d_61">
      <g>
       <use style="fill:#ffffff;stroke:#000000;stroke-width:0.8;" x="451.562264" xlink:href="#mc66337de3f" y="320.228571"/>
      </g>
     </g>
    </g>
    <g id="ytick_12">
     <g id="line2d_62">
      <g>
       <use style="fill:#ffffff;stroke:#000000;stroke-width:0.8;" x="451.562264" xlink:href="#mc66337de3f" y="251.657143"/>
      </g>
     </g>
    </g>
    <g id="text_28">
     <!-- $C_d$ -->
     <g transform="translate(436.43867 316.679286)rotate(-90)scale(0.19 -0.19)">
      <use transform="translate(0 0.40625)" xlink:href="#STIXGeneral-Italic-67"/>
      <use transform="translate(66.699997 -12.821875)scale(0.7)" xlink:href="#STIXGeneral-Italic-100"/>
     </g>
    </g>
   </g>
   <g id="line2d_63">
    <path clip-path="url(#p1b88aba72a)" d="M 452.051321 318.723067 
L 453.029434 314.851471 
L 453.518491 311.137349 
L 454.007547 305.586239 
L 454.822642 292.662851 
L 455.800755 277.302424 
L 456.45283 270.676189 
L 456.941887 267.552883 
L 457.430943 265.5173 
L 458.083019 263.827052 
L 458.735094 262.788878 
L 459.550189 261.901881 
L 461.506415 260.270421 
L 463.136604 258.829088 
L 464.929811 256.860528 
L 466.070943 255.333253 
L 467.701132 252.658135 
L 469.168302 249.811187 
L 470.798491 246.654728 
L 471.450566 245.829167 
L 471.776604 245.702453 
L 472.102642 245.885755 
L 472.428679 246.467655 
L 472.754717 247.573333 
L 473.243774 250.744356 
L 473.73283 255.816856 
L 474.547925 267.622705 
L 475.363019 278.838428 
L 476.015094 284.652102 
L 476.504151 287.262637 
L 476.993208 288.850194 
L 477.482264 289.805091 
L 478.13434 290.553007 
L 479.927547 291.450531 
L 481.720755 291.832978 
L 483.024906 291.986288 
L 486.285283 292.188347 
L 493.295094 292.41582 
L 494.273208 292.4356 
L 498.022642 292.49413 
L 502.261132 292.544468 
L 512.69434 292.659683 
L 513.346415 292.657877 
L 516.443774 292.701283 
L 516.606792 292.608436 
L 516.93283 292.678719 
L 520.845283 292.673054 
L 527.366038 292.687606 
L 527.529057 292.589312 
L 527.855094 292.662798 
L 538.451321 292.61971 
L 538.61434 292.528434 
L 538.940377 292.593693 
L 543.830943 292.58467 
L 543.993962 292.495599 
L 544.32 292.561998 
L 554.753208 292.515579 
L 554.916226 292.42607 
L 555.242264 292.495459 
L 571.218113 292.349114 
L 571.381132 292.238743 
L 571.70717 292.329194 
L 572.685283 292.30483 
L 573.500377 292.308488 
L 574.967547 292.273472 
L 575.782642 292.294856 
L 577.086792 292.262437 
L 586.378868 292.285515 
L 587.846038 292.574863 
L 588.98717 293.958462 
L 589.476226 295.319297 
L 589.965283 297.623425 
L 590.45434 301.389935 
L 590.943396 306.989634 
L 591.595472 317.17602 
L 592.736604 335.662909 
L 593.388679 342.465684 
L 593.877736 345.85639 
L 594.529811 348.680528 
L 595.181887 350.446657 
L 595.996981 352.013259 
L 597.138113 353.676189 
L 601.702642 359.06242 
L 604.963019 362.685151 
L 606.104151 363.950818 
L 607.571321 365.285893 
L 608.223396 365.476625 
L 608.549434 365.363617 
L 609.038491 364.664009 
L 609.364528 363.716634 
L 609.853585 361.209881 
L 610.342642 356.990496 
L 610.994717 348.458379 
L 612.298868 329.310536 
L 612.787925 324.636608 
L 613.276981 321.684849 
L 613.766038 319.93972 
L 614.255094 319.017821 
L 614.744151 318.544626 
L 615.396226 318.345468 
L 616.048302 318.345056 
L 617.352453 318.627905 
L 618.167547 318.872042 
L 618.819623 319.021453 
L 619.471698 319.205 
L 620.775849 319.556243 
L 623.384151 320.272045 
L 628.111698 321.807227 
L 631.535094 323.208024 
L 638.218868 326.106485 
L 641.479245 327.095899 
L 644.413585 327.593112 
L 647.510943 327.805524 
L 664.138868 328.08516 
L 674.083019 327.630472 
L 685.005283 326.745226 
L 714.674717 323.800191 
L 725.433962 323.09031 
L 732.606792 322.788878 
L 737.823396 322.622346 
L 741.898868 322.520433 
L 746.463396 322.413439 
L 753.962264 322.279208 
L 777.763019 321.972968 
L 777.763019 321.972968 
" style="fill:none;stroke:#1f77b4;stroke-linecap:square;stroke-width:2;"/>
   </g>
   <g id="line2d_64">
    <path clip-path="url(#p1b88aba72a)" d="M 452.051321 319.461755 
L 453.029434 317.501635 
L 453.518491 315.616869 
L 454.007547 312.797601 
L 454.822642 306.219045 
L 455.800755 298.342638 
L 456.45283 294.886681 
L 457.104906 292.80843 
L 457.756981 291.590271 
L 458.409057 290.828835 
L 459.38717 290.044591 
L 462.158491 287.995857 
L 463.462642 286.715691 
L 464.766792 285.107574 
L 466.233962 282.879984 
L 468.02717 279.667087 
L 471.776604 272.712641 
L 472.26566 272.38398 
L 472.591698 272.45143 
L 472.917736 272.838029 
L 473.243774 273.634637 
L 473.73283 275.680999 
L 474.384906 279.770329 
L 475.363019 286.027523 
L 475.852075 288.145997 
L 476.341132 289.540886 
L 476.830189 290.41553 
L 477.808302 291.288592 
L 478.786415 291.687545 
L 480.090566 292.001498 
L 482.37283 292.352964 
L 482.698868 292.378624 
L 486.122264 292.603844 
L 488.730566 292.658294 
L 493.132075 292.649658 
L 494.925283 292.635741 
L 509.107925 292.488244 
L 511.553208 292.462172 
L 513.998491 292.422174 
L 516.93283 292.362375 
L 520.682264 292.303668 
L 521.008302 292.276072 
L 522.801509 292.254201 
L 524.10566 292.226967 
L 525.735849 292.213962 
L 536.658113 292.308039 
L 538.61434 292.364513 
L 551.981887 293.208389 
L 557.850566 293.882911 
L 561.6 294.428695 
L 564.208302 294.85368 
L 566.816604 295.317333 
L 572.033208 296.352342 
L 574.478491 296.899042 
L 575.782642 297.19197 
L 578.227925 297.803694 
L 578.390943 297.779923 
L 578.88 297.952163 
L 580.999245 298.528025 
L 581.162264 298.499625 
L 581.651321 298.68367 
L 583.770566 299.301345 
L 583.933585 299.279879 
L 584.422642 299.477556 
L 586.215849 300.048567 
L 588.009057 300.847416 
L 588.661132 301.390351 
L 589.313208 302.254076 
L 589.965283 303.978405 
L 590.45434 306.059392 
L 590.943396 309.094542 
L 591.595472 314.595226 
L 592.899623 325.875418 
L 593.551698 329.55072 
L 594.203774 332.027744 
L 595.018868 334.168949 
L 597.138113 337.961003 
L 599.257358 340.78191 
L 600.724528 342.28588 
L 602.191698 343.389368 
L 603.495849 344.035479 
L 604.636981 344.347069 
L 605.941132 344.433981 
L 607.082264 344.26798 
L 607.73434 344.02674 
L 608.386415 343.536585 
L 608.875472 342.891548 
L 609.364528 341.829159 
L 609.853585 340.125172 
L 610.342642 337.547678 
L 610.994717 332.608982 
L 612.461887 320.532513 
L 613.113962 317.292935 
L 613.766038 315.323335 
L 614.418113 314.098497 
L 615.233208 313.106814 
L 616.537358 312.027506 
L 618.982642 310.537077 
L 621.264906 309.524438 
L 623.221132 308.99031 
L 624.688302 308.801808 
L 626.481509 308.797948 
L 629.904906 309.481373 
L 631.698113 310.127728 
L 633.980377 311.144816 
L 639.36 314.140443 
L 645.554717 317.699731 
L 647.673962 318.660043 
L 649.956226 319.457986 
L 652.564528 320.139962 
L 655.987925 320.827386 
L 662.019623 322.008351 
L 667.399245 322.951494 
L 671.963774 323.481256 
L 677.343396 323.863508 
L 683.864151 324.054908 
L 689.080755 324.013428 
L 695.601509 323.80518 
L 705.708679 323.276011 
L 725.923019 322.225351 
L 737.823396 321.884136 
L 752.495094 321.703208 
L 777.763019 321.519739 
L 777.763019 321.519739 
" style="fill:none;stroke:#ff7f0e;stroke-linecap:square;stroke-width:2;"/>
   </g>
   <g id="line2d_65">
    <path clip-path="url(#p1b88aba72a)" d="M 452.051321 319.836358 
L 453.029434 318.838314 
L 453.518491 317.876817 
L 454.007547 316.436854 
L 454.822642 313.066155 
L 455.800755 308.990062 
L 456.45283 307.167031 
L 457.104906 306.039149 
L 457.756981 305.339354 
L 458.735094 304.645508 
L 461.343396 302.925839 
L 462.647547 301.71424 
L 463.951698 300.190409 
L 465.581887 297.90509 
L 467.375094 294.989164 
L 469.168302 291.645187 
L 472.102642 285.966902 
L 472.754717 285.30191 
L 473.080755 285.226533 
L 473.406792 285.385603 
L 473.73283 285.780565 
L 474.221887 286.815131 
L 475.689057 290.405897 
L 476.341132 291.268577 
L 477.482264 291.965671 
L 478.297358 292.212146 
L 479.927547 292.502693 
L 482.046792 292.669121 
L 484.492075 292.667081 
L 484.981132 292.634998 
L 492.316981 292.374289 
L 502.424151 292.328093 
L 503.239245 292.405109 
L 506.499623 292.683528 
L 507.314717 292.819359 
L 509.923019 293.257385 
L 513.998491 294.257935 
L 517.910943 295.600663 
L 521.171321 296.974504 
L 526.061887 299.500884 
L 529.485283 301.637181 
L 531.115472 302.62533 
L 531.767547 302.967608 
L 533.234717 303.553873 
L 534.538868 303.772656 
L 535.516981 303.704973 
L 536.495094 303.441394 
L 537.14717 303.14792 
L 538.451321 302.382158 
L 540.081509 301.138278 
L 545.298113 296.766107 
L 546.928302 295.702457 
L 548.558491 294.888089 
L 550.351698 294.239288 
L 551.003774 294.118924 
L 552.470943 293.892499 
L 555.079245 293.882263 
L 556.709434 294.080814 
L 559.480755 294.768093 
L 562.252075 295.843337 
L 565.349434 297.186951 
L 565.675472 297.289437 
L 567.468679 297.800919 
L 569.098868 298.051166 
L 570.403019 298.060001 
L 571.544151 297.901372 
L 573.17434 297.376448 
L 574.478491 296.715794 
L 575.94566 295.761001 
L 577.575849 294.528595 
L 578.064906 294.108176 
L 581.325283 291.575105 
L 584.096604 289.819085 
L 586.215849 288.754658 
L 587.683019 288.250346 
L 588.661132 288.131334 
L 589.639245 288.618477 
L 590.128302 289.215452 
L 590.780377 290.828022 
L 591.432453 293.333405 
L 593.062642 300.857309 
L 593.877736 303.413981 
L 594.855849 305.718218 
L 596.812075 309.597194 
L 600.887547 317.126642 
L 608.060377 329.538967 
L 608.875472 330.610801 
L 609.364528 330.984234 
L 609.690566 331.048018 
L 610.016604 330.9166 
L 610.342642 330.558135 
L 610.831698 329.563163 
L 611.646792 327.108731 
L 612.461887 324.918546 
L 612.950943 324.09226 
L 613.44 323.596033 
L 614.092075 323.267346 
L 614.90717 323.141828 
L 616.537358 323.167077 
L 619.960755 323.198809 
L 622.243019 323.016592 
L 625.340377 322.450403 
L 629.089811 321.448414 
L 633.328302 320.155088 
L 637.403774 318.741176 
L 640.501132 317.434403 
L 643.109434 316.08708 
L 645.717736 314.477954 
L 652.401509 310.079129 
L 653.542642 309.678264 
L 654.683774 309.504373 
L 655.824906 309.561555 
L 656.966038 309.84205 
L 658.10717 310.33737 
L 659.57434 311.26483 
L 662.834717 313.508289 
L 663.81283 313.803572 
L 664.627925 313.812714 
L 665.606038 313.566301 
L 666.910189 312.948548 
L 669.681509 311.58858 
L 671.148679 311.146635 
L 672.615849 310.920475 
L 674.735094 310.833596 
L 683.212075 310.808479 
L 685.820377 310.476245 
L 697.068679 308.773843 
L 702.122264 308.42897 
L 721.684528 307.432764 
L 725.433962 307.632085 
L 729.509434 308.09431 
L 734.4 308.932565 
L 740.757736 310.282692 
L 749.071698 311.972505 
L 752.821132 312.871032 
L 755.755472 313.77412 
L 759.504906 315.15999 
L 769.938113 319.126266 
L 772.872453 320.083209 
L 776.458868 321.043789 
L 777.763019 321.31489 
L 777.763019 321.31489 
" style="fill:none;stroke:#2ca02c;stroke-linecap:square;stroke-width:2;"/>
   </g>
   <g id="line2d_66">
    <path clip-path="url(#p1b88aba72a)" d="M 451.562264 320.228571 
L 777.6 320.228571 
" style="fill:none;stroke:#000000;stroke-dasharray:3.2,0.8,0.5,0.8;stroke-dashoffset:0;stroke-width:0.5;"/>
   </g>
   <g id="line2d_67">
    <path clip-path="url(#p1b88aba72a)" d="M 614.581132 388.8 
L 614.581132 224.228571 
" style="fill:none;stroke:#000000;stroke-linecap:square;stroke-width:0.5;"/>
   </g>
   <g id="line2d_68">
    <path clip-path="url(#p1b88aba72a)" d="M 647.184906 388.8 
L 647.184906 224.228571 
" style="fill:none;stroke:#000000;stroke-dasharray:6.4,1.6,1,1.6;stroke-dashoffset:0;stroke-opacity:0.25;"/>
   </g>
   <g id="line2d_69">
    <path clip-path="url(#p1b88aba72a)" d="M 679.788679 388.8 
L 679.788679 224.228571 
" style="fill:none;stroke:#000000;stroke-dasharray:6.4,1.6,1,1.6;stroke-dashoffset:0;stroke-opacity:0.25;"/>
   </g>
   <g id="line2d_70">
    <path clip-path="url(#p1b88aba72a)" d="M 712.392453 388.8 
L 712.392453 224.228571 
" style="fill:none;stroke:#000000;stroke-dasharray:6.4,1.6,1,1.6;stroke-dashoffset:0;stroke-opacity:0.25;"/>
   </g>
   <g id="patch_18">
    <path d="M 451.562264 388.8 
L 451.562264 224.228571 
" style="fill:none;stroke:#000000;stroke-linecap:square;stroke-linejoin:miter;stroke-width:0.8;"/>
   </g>
   <g id="patch_19">
    <path d="M 777.6 388.8 
L 777.6 224.228571 
" style="fill:none;stroke:#000000;stroke-linecap:square;stroke-linejoin:miter;stroke-width:0.8;"/>
   </g>
   <g id="patch_20">
    <path d="M 451.562264 388.8 
L 777.6 388.8 
" style="fill:none;stroke:#000000;stroke-linecap:square;stroke-linejoin:miter;stroke-width:0.8;"/>
   </g>
   <g id="patch_21">
    <path d="M 451.562264 224.228571 
L 777.6 224.228571 
" style="fill:none;stroke:#000000;stroke-linecap:square;stroke-linejoin:miter;stroke-width:0.8;"/>
   </g>
   <g id="text_29">
    <!-- Stroke motion -->
    <g transform="translate(487.121626 384.997835)scale(0.19 -0.19)">
     <use xlink:href="#STIXGeneral-Regular-83"/>
     <use x="55.599991" xlink:href="#STIXGeneral-Regular-116"/>
     <use x="83.399979" xlink:href="#STIXGeneral-Regular-114"/>
     <use x="116.699966" xlink:href="#STIXGeneral-Regular-111"/>
     <use x="166.699951" xlink:href="#STIXGeneral-Regular-107"/>
     <use x="216.699936" xlink:href="#STIXGeneral-Regular-101"/>
     <use x="261.09993" xlink:href="#STIXGeneral-Regular-32"/>
     <use x="286.099915" xlink:href="#STIXGeneral-Regular-109"/>
     <use x="363.899902" xlink:href="#STIXGeneral-Regular-111"/>
     <use x="413.899887" xlink:href="#STIXGeneral-Regular-116"/>
     <use x="441.699875" xlink:href="#STIXGeneral-Regular-105"/>
     <use x="469.499863" xlink:href="#STIXGeneral-Regular-111"/>
     <use x="519.499847" xlink:href="#STIXGeneral-Regular-110"/>
    </g>
   </g>
   <g id="text_30">
    <!-- Wake interaction -->
    <g transform="translate(639.078931 384.997835)scale(0.19 -0.19)">
     <use xlink:href="#STIXGeneral-Regular-87"/>
     <use x="94.399994" xlink:href="#STIXGeneral-Regular-97"/>
     <use x="138.799988" xlink:href="#STIXGeneral-Regular-107"/>
     <use x="188.799973" xlink:href="#STIXGeneral-Regular-101"/>
     <use x="233.199966" xlink:href="#STIXGeneral-Regular-32"/>
     <use x="258.199951" xlink:href="#STIXGeneral-Regular-105"/>
     <use x="285.999939" xlink:href="#STIXGeneral-Regular-110"/>
     <use x="335.999924" xlink:href="#STIXGeneral-Regular-116"/>
     <use x="363.799911" xlink:href="#STIXGeneral-Regular-101"/>
     <use x="408.199905" xlink:href="#STIXGeneral-Regular-114"/>
     <use x="441.499893" xlink:href="#STIXGeneral-Regular-97"/>
     <use x="485.899887" xlink:href="#STIXGeneral-Regular-99"/>
     <use x="530.299881" xlink:href="#STIXGeneral-Regular-116"/>
     <use x="558.099869" xlink:href="#STIXGeneral-Regular-105"/>
     <use x="585.899857" xlink:href="#STIXGeneral-Regular-111"/>
     <use x="635.899841" xlink:href="#STIXGeneral-Regular-110"/>
    </g>
   </g>
   <g id="text_31">
    <!-- $Re = 10^3$ -->
    <g transform="translate(787.304906 310.940692)scale(0.19 -0.19)">
     <use transform="translate(0 0.409375)" xlink:href="#STIXGeneral-Italic-82"/>
     <use transform="translate(61.099991 0.409375)" xlink:href="#STIXGeneral-Italic-101"/>
     <use transform="translate(119.939981 0.409375)" xlink:href="#STIXGeneral-Regular-61"/>
     <use transform="translate(202.879962 0.409375)" xlink:href="#STIXGeneral-Regular-49"/>
     <use transform="translate(252.879947 0.409375)" xlink:href="#STIXGeneral-Regular-48"/>
     <use transform="translate(304.423213 35.684375)scale(0.7)" xlink:href="#STIXGeneral-Regular-51"/>
    </g>
   </g>
  </g>
 </g>
 <defs>
  <clipPath id="p63cc2bed3b">
   <rect height="164.571429" width="326.037736" x="86.4" y="43.2"/>
  </clipPath>
  <clipPath id="p6bc779961e">
   <rect height="164.571429" width="326.037736" x="451.562264" y="43.2"/>
  </clipPath>
  <clipPath id="p81d6205c7c">
   <rect height="164.571429" width="326.037736" x="86.4" y="224.228571"/>
  </clipPath>
  <clipPath id="p1b88aba72a">
   <rect height="164.571429" width="326.037736" x="451.562264" y="224.228571"/>
  </clipPath>
 </defs>
</svg>
