<?xml version="1.0" encoding="utf-8" standalone="no"?>
<!DOCTYPE svg PUBLIC "-//W3C//DTD SVG 1.1//EN"
  "http://www.w3.org/Graphics/SVG/1.1/DTD/svg11.dtd">
<!-- Created with matplotlib (https://matplotlib.org/) -->
<svg height="288pt" version="1.1" viewBox="0 0 864 288" width="864pt" xmlns="http://www.w3.org/2000/svg" xmlns:xlink="http://www.w3.org/1999/xlink">
 <defs>
  <style type="text/css">
*{stroke-linecap:butt;stroke-linejoin:round;}
  </style>
 </defs>
 <g id="figure_1">
  <g id="patch_1">
   <path d="M 0 288 
L 864 288 
L 864 0 
L 0 0 
z
" style="fill:#ffffff;"/>
  </g>
  <g id="axes_1">
   <g id="patch_2">
    <path d="M 86.4 138.514286 
L 412.437736 138.514286 
L 412.437736 28.8 
L 86.4 28.8 
z
" style="fill:#ffffff;"/>
   </g>
   <g id="matplotlib.axis_1">
    <g id="xtick_1">
     <g id="line2d_1">
      <defs>
       <path d="M 0 0 
L 0 3.5 
" id="m9f4c427a6c" style="stroke:#000000;stroke-width:0.8;"/>
      </defs>
      <g>
       <use style="fill:#ffffff;stroke:#000000;stroke-width:0.8;" x="86.4" xlink:href="#m9f4c427a6c" y="138.514286"/>
      </g>
     </g>
    </g>
    <g id="xtick_2">
     <g id="line2d_2">
      <g>
       <use style="fill:#ffffff;stroke:#000000;stroke-width:0.8;" x="151.607547" xlink:href="#m9f4c427a6c" y="138.514286"/>
      </g>
     </g>
    </g>
    <g id="xtick_3">
     <g id="line2d_3">
      <g>
       <use style="fill:#ffffff;stroke:#000000;stroke-width:0.8;" x="216.815094" xlink:href="#m9f4c427a6c" y="138.514286"/>
      </g>
     </g>
    </g>
    <g id="xtick_4">
     <g id="line2d_4">
      <g>
       <use style="fill:#ffffff;stroke:#000000;stroke-width:0.8;" x="282.022642" xlink:href="#m9f4c427a6c" y="138.514286"/>
      </g>
     </g>
    </g>
    <g id="xtick_5">
     <g id="line2d_5">
      <g>
       <use style="fill:#ffffff;stroke:#000000;stroke-width:0.8;" x="347.230189" xlink:href="#m9f4c427a6c" y="138.514286"/>
      </g>
     </g>
    </g>
    <g id="xtick_6">
     <g id="line2d_6">
      <g>
       <use style="fill:#ffffff;stroke:#000000;stroke-width:0.8;" x="412.437736" xlink:href="#m9f4c427a6c" y="138.514286"/>
      </g>
     </g>
    </g>
   </g>
   <g id="matplotlib.axis_2">
    <g id="ytick_1">
     <g id="line2d_7">
      <defs>
       <path d="M 0 0 
L -3.5 0 
" id="m7880f388c9" style="stroke:#000000;stroke-width:0.8;"/>
      </defs>
      <g>
       <use style="fill:#ffffff;stroke:#000000;stroke-width:0.8;" x="86.4" xlink:href="#m7880f388c9" y="105.6"/>
      </g>
     </g>
     <g id="text_1">
      <!-- −5 -->
      <defs>
       <path d="M 62.09375 22 
L 6.40625 22 
L 6.40625 28.59375 
L 62.09375 28.59375 
z
" id="STIXGeneral-Regular-8722"/>
       <path d="M 43.796875 68.09375 
L 40.203125 59.59375 
Q 39.59375 58.296875 37.5 58.296875 
L 18.09375 58.296875 
L 14.09375 49.796875 
Q 25.09375 47.703125 30 45.25 
Q 34.90625 42.796875 39.09375 37 
Q 42.59375 32.203125 42.59375 24.296875 
Q 42.59375 17.09375 40.25 12.1875 
Q 37.90625 7.296875 32.796875 3.5 
Q 26 -1.40625 15.796875 -1.40625 
Q 10.09375 -1.40625 6.59375 0.296875 
Q 3.09375 2 3.09375 4.796875 
Q 3.09375 8.59375 7.59375 8.59375 
Q 11.203125 8.59375 15 5.5 
Q 18.90625 2.296875 22.09375 2.296875 
Q 27.296875 2.296875 31.4375 7.5 
Q 35.59375 12.703125 35.59375 19.203125 
Q 35.59375 28.796875 28.90625 34.203125 
Q 20.203125 41.203125 7.59375 41.203125 
Q 6.40625 41.203125 6.40625 42 
L 6.5 42.5 
L 17.40625 66.203125 
L 38.09375 66.203125 
Q 39.796875 66.203125 40.75 66.703125 
Q 41.703125 67.203125 42.90625 68.796875 
z
" id="STIXGeneral-Regular-53"/>
      </defs>
      <g transform="translate(56.885 112.088203)scale(0.19 -0.19)">
       <use xlink:href="#STIXGeneral-Regular-8722"/>
       <use x="68.499985" xlink:href="#STIXGeneral-Regular-53"/>
      </g>
     </g>
    </g>
    <g id="ytick_2">
     <g id="line2d_8">
      <g>
       <use style="fill:#ffffff;stroke:#000000;stroke-width:0.8;" x="86.4" xlink:href="#m7880f388c9" y="50.742857"/>
      </g>
     </g>
     <g id="text_2">
      <!-- 0 -->
      <defs>
       <path d="M 47.59375 33 
Q 47.59375 26.296875 46.296875 20.34375 
Q 45 14.40625 42.453125 9.40625 
Q 39.90625 4.40625 35.40625 1.5 
Q 30.90625 -1.40625 25 -1.40625 
Q 18.90625 -1.40625 14.296875 1.6875 
Q 9.703125 4.796875 7.203125 10 
Q 4.703125 15.203125 3.546875 21.09375 
Q 2.40625 27 2.40625 33.59375 
Q 2.40625 42.90625 4.703125 50.34375 
Q 7 57.796875 12.34375 62.6875 
Q 17.703125 67.59375 25.40625 67.59375 
Q 35.203125 67.59375 41.390625 58 
Q 47.59375 48.40625 47.59375 33 
z
M 38 32.5 
Q 38 48.296875 34.640625 56.640625 
Q 31.296875 65 24.796875 65 
Q 18.59375 65 15.296875 56.59375 
Q 12 48.203125 12 32.90625 
Q 12 17.5 15.296875 9.34375 
Q 18.59375 1.203125 25 1.203125 
Q 31.296875 1.203125 34.640625 9.34375 
Q 38 17.5 38 32.5 
z
" id="STIXGeneral-Regular-48"/>
      </defs>
      <g transform="translate(69.9 57.23106)scale(0.19 -0.19)">
       <use xlink:href="#STIXGeneral-Regular-48"/>
      </g>
     </g>
    </g>
    <g id="text_3">
     <!-- $C_l$ -->
     <defs>
      <path d="M 68.90625 66.40625 
L 65.203125 46.40625 
L 63.40625 46.703125 
Q 61.59375 63 48.5 63 
Q 37.59375 63 28.59375 53.296875 
Q 23.296875 47.703125 20.546875 39.703125 
Q 17.796875 31.703125 17.796875 23.203125 
Q 17.796875 2.703125 35.296875 2.703125 
Q 41.5 2.703125 46.640625 5.296875 
Q 51.796875 7.90625 58.203125 14.59375 
L 60 13.09375 
Q 53.296875 5.203125 46.84375 1.703125 
Q 40.40625 -1.796875 32.703125 -1.796875 
Q 21 -1.796875 13.796875 5.140625 
Q 6.59375 12.09375 6.59375 24.296875 
Q 6.59375 34.59375 11.6875 43.9375 
Q 16.796875 53.296875 25.296875 59.296875 
Q 35.5 66.59375 47.203125 66.59375 
Q 54.09375 66.59375 58.90625 64.90625 
Q 60.90625 64.203125 63 64.203125 
Q 65.703125 64.203125 66.796875 66.40625 
z
" id="STIXGeneral-Italic-67"/>
      <path d="M 27.90625 67.796875 
L 12.59375 9.296875 
Q 11.796875 6.40625 11.796875 5 
Q 11.796875 3.203125 13.5 3.203125 
Q 16.203125 3.203125 20.203125 8.90625 
L 22.703125 12.40625 
L 24.09375 11.40625 
Q 19.59375 4.296875 16.34375 1.59375 
Q 13.09375 -1.09375 9 -1.09375 
Q 4.09375 -1.09375 4.09375 4.5 
Q 4.09375 6.203125 4.5 7.5 
L 18.203125 59.90625 
Q 18.5 60.90625 18.5 61.796875 
Q 18.5 64 13.59375 64 
L 11.796875 64 
L 11.796875 65.59375 
Q 18.796875 66.40625 27.296875 68.296875 
z
" id="STIXGeneral-Italic-108"/>
     </defs>
     <g transform="translate(48.761406 92.302143)rotate(-90)scale(0.19 -0.19)">
      <use transform="translate(0 0.40625)" xlink:href="#STIXGeneral-Italic-67"/>
      <use transform="translate(66.699997 -12.821875)scale(0.7)" xlink:href="#STIXGeneral-Italic-108"/>
     </g>
    </g>
   </g>
   <g id="line2d_9">
    <path clip-path="url(#p42e0473d69)" d="M 86.073962 74.223684 
L 89.660377 71.019791 
L 93.57283 67.463225 
L 97.159245 64.487631 
L 100.419623 62.06529 
L 103.68 59.937773 
L 106.61434 58.262241 
L 109.548679 56.832281 
L 112.809057 55.507185 
L 116.069434 54.421208 
L 119.655849 53.455812 
L 123.568302 52.629663 
L 128.13283 51.902101 
L 133.349434 51.300212 
L 139.870189 50.787106 
L 148.021132 50.39267 
L 159.432453 50.106394 
L 175.408302 49.960228 
L 207.36 49.976317 
L 412.763774 50.704241 
L 412.763774 50.704241 
" style="fill:none;stroke:#1f77b4;stroke-linecap:square;stroke-width:2;"/>
   </g>
   <g id="line2d_10">
    <path clip-path="url(#p42e0473d69)" d="M 86.073962 57.636729 
L 90.312453 56.757573 
L 106.940377 53.142632 
L 113.461132 52.031238 
L 119.655849 51.198799 
L 126.502642 50.51064 
L 134.001509 49.984783 
L 143.130566 49.57615 
L 154.867925 49.286605 
L 171.169811 49.121531 
L 195.622642 49.11486 
L 253.005283 49.384357 
L 412.763774 50.216845 
L 412.763774 50.216845 
" style="fill:none;stroke:#ff7f0e;stroke-linecap:square;stroke-width:2;"/>
   </g>
   <g id="line2d_11">
    <path clip-path="url(#p42e0473d69)" d="M 86.073962 52.369892 
L 100.74566 51.891753 
L 111.830943 51.848344 
L 132.697358 52.044665 
L 166.279245 52.30647 
L 197.904906 52.310568 
L 240.941887 52.081194 
L 412.763774 50.787411 
L 412.763774 50.787411 
" style="fill:none;stroke:#2ca02c;stroke-linecap:square;stroke-width:2;"/>
   </g>
   <g id="line2d_12">
    <path clip-path="url(#p42e0473d69)" d="M 86.4 50.742857 
L 412.437736 50.742857 
" style="fill:none;stroke:#000000;stroke-dasharray:3.2,0.8,0.5,0.8;stroke-dashoffset:0;stroke-width:0.5;"/>
   </g>
   <g id="line2d_13">
    <path clip-path="url(#p42e0473d69)" d="M 86.4 138.514286 
L 86.4 28.8 
" style="fill:none;stroke:#000000;stroke-linecap:square;stroke-width:0.5;"/>
   </g>
   <g id="line2d_14">
    <path clip-path="url(#p42e0473d69)" d="M 151.607547 138.514286 
L 151.607547 28.8 
" style="fill:none;stroke:#000000;stroke-dasharray:6.4,1.6,1,1.6;stroke-dashoffset:0;stroke-opacity:0.25;"/>
   </g>
   <g id="line2d_15">
    <path clip-path="url(#p42e0473d69)" d="M 216.815094 138.514286 
L 216.815094 28.8 
" style="fill:none;stroke:#000000;stroke-dasharray:6.4,1.6,1,1.6;stroke-dashoffset:0;stroke-opacity:0.25;"/>
   </g>
   <g id="line2d_16">
    <path clip-path="url(#p42e0473d69)" d="M 282.022642 138.514286 
L 282.022642 28.8 
" style="fill:none;stroke:#000000;stroke-dasharray:6.4,1.6,1,1.6;stroke-dashoffset:0;stroke-opacity:0.25;"/>
   </g>
   <g id="patch_3">
    <path d="M 86.4 138.514286 
L 86.4 28.8 
" style="fill:none;stroke:#000000;stroke-linecap:square;stroke-linejoin:miter;stroke-width:0.8;"/>
   </g>
   <g id="patch_4">
    <path d="M 412.437736 138.514286 
L 412.437736 28.8 
" style="fill:none;stroke:#000000;stroke-linecap:square;stroke-linejoin:miter;stroke-width:0.8;"/>
   </g>
   <g id="patch_5">
    <path d="M 86.4 138.514286 
L 412.437736 138.514286 
" style="fill:none;stroke:#000000;stroke-linecap:square;stroke-linejoin:miter;stroke-width:0.8;"/>
   </g>
   <g id="patch_6">
    <path d="M 86.4 28.8 
L 412.437736 28.8 
" style="fill:none;stroke:#000000;stroke-linecap:square;stroke-linejoin:miter;stroke-width:0.8;"/>
   </g>
  </g>
  <g id="axes_2">
   <g id="patch_7">
    <path d="M 451.562264 138.514286 
L 777.6 138.514286 
L 777.6 28.8 
L 451.562264 28.8 
z
" style="fill:#ffffff;"/>
   </g>
   <g id="matplotlib.axis_3">
    <g id="xtick_7">
     <g id="line2d_17">
      <g>
       <use style="fill:#ffffff;stroke:#000000;stroke-width:0.8;" x="451.562264" xlink:href="#m9f4c427a6c" y="138.514286"/>
      </g>
     </g>
    </g>
    <g id="xtick_8">
     <g id="line2d_18">
      <g>
       <use style="fill:#ffffff;stroke:#000000;stroke-width:0.8;" x="516.769811" xlink:href="#m9f4c427a6c" y="138.514286"/>
      </g>
     </g>
    </g>
    <g id="xtick_9">
     <g id="line2d_19">
      <g>
       <use style="fill:#ffffff;stroke:#000000;stroke-width:0.8;" x="581.977358" xlink:href="#m9f4c427a6c" y="138.514286"/>
      </g>
     </g>
    </g>
    <g id="xtick_10">
     <g id="line2d_20">
      <g>
       <use style="fill:#ffffff;stroke:#000000;stroke-width:0.8;" x="647.184906" xlink:href="#m9f4c427a6c" y="138.514286"/>
      </g>
     </g>
    </g>
    <g id="xtick_11">
     <g id="line2d_21">
      <g>
       <use style="fill:#ffffff;stroke:#000000;stroke-width:0.8;" x="712.392453" xlink:href="#m9f4c427a6c" y="138.514286"/>
      </g>
     </g>
    </g>
    <g id="xtick_12">
     <g id="line2d_22">
      <g>
       <use style="fill:#ffffff;stroke:#000000;stroke-width:0.8;" x="777.6" xlink:href="#m9f4c427a6c" y="138.514286"/>
      </g>
     </g>
    </g>
   </g>
   <g id="matplotlib.axis_4">
    <g id="ytick_3">
     <g id="line2d_23">
      <g>
       <use style="fill:#ffffff;stroke:#000000;stroke-width:0.8;" x="451.562264" xlink:href="#m7880f388c9" y="105.6"/>
      </g>
     </g>
    </g>
    <g id="ytick_4">
     <g id="line2d_24">
      <g>
       <use style="fill:#ffffff;stroke:#000000;stroke-width:0.8;" x="451.562264" xlink:href="#m7880f388c9" y="50.742857"/>
      </g>
     </g>
    </g>
    <g id="text_4">
     <!-- $C_d$ -->
     <defs>
      <path d="M 52.09375 68.296875 
L 52.703125 67.703125 
L 48.796875 52.5 
L 42.796875 30.59375 
Q 36.296875 6.703125 36.296875 6 
Q 36.296875 4 38.09375 4 
Q 39.40625 4 40.84375 5.25 
Q 42.296875 6.5 46.296875 11.09375 
L 47.5 10.09375 
Q 39.796875 -1.296875 32.796875 -1.296875 
Q 30.90625 -1.296875 29.796875 -0.09375 
Q 28.703125 1.09375 28.703125 3.203125 
Q 28.703125 6.203125 30 12.09375 
Q 25.703125 4.796875 21.546875 1.84375 
Q 17.40625 -1.09375 12.203125 -1.09375 
Q 7.203125 -1.09375 4.34375 1.953125 
Q 1.5 5 1.5 10.59375 
Q 1.5 22.5 11.140625 33.296875 
Q 20.796875 44.09375 30.703125 44.09375 
Q 33.796875 44.09375 35.25 42.6875 
Q 36.703125 41.296875 37.203125 38.296875 
L 37.296875 38.296875 
L 41.796875 54.59375 
Q 43.203125 59.5 43.203125 61.703125 
Q 43.203125 63.296875 42.09375 63.6875 
Q 41 64.09375 36.796875 64.296875 
L 36.796875 66 
Q 44.5 66.703125 52.09375 68.296875 
z
M 35.59375 36.09375 
Q 35.59375 38.703125 34.140625 40.25 
Q 32.703125 41.796875 30.90625 41.796875 
Q 26.203125 41.796875 21.796875 37.203125 
Q 16.796875 31.90625 13.5 24.546875 
Q 10.203125 17.203125 10.203125 11 
Q 10.203125 7.59375 11.75 5.640625 
Q 13.296875 3.703125 16 3.703125 
Q 20.5 3.703125 25.09375 8.59375 
Q 29.703125 13.5 32.640625 21.09375 
Q 35.59375 28.703125 35.59375 36.09375 
z
" id="STIXGeneral-Italic-100"/>
     </defs>
     <g transform="translate(436.43867 93.822143)rotate(-90)scale(0.19 -0.19)">
      <use transform="translate(0 0.40625)" xlink:href="#STIXGeneral-Italic-67"/>
      <use transform="translate(66.699997 -12.821875)scale(0.7)" xlink:href="#STIXGeneral-Italic-100"/>
     </g>
    </g>
   </g>
   <g id="line2d_25">
    <path clip-path="url(#p9537cbdeb8)" d="M 451.236226 132.39924 
L 451.888302 129.874309 
L 452.540377 128.261101 
L 453.192453 127.144116 
L 453.844528 126.339994 
L 458.735094 121.15721 
L 463.299623 114.364 
L 466.56 108.702429 
L 472.428679 97.958674 
L 476.66717 90.686056 
L 479.275472 86.59703 
L 481.557736 83.322018 
L 484.166038 79.903287 
L 486.77434 76.813788 
L 489.382642 74.059734 
L 492.643019 71.041382 
L 495.577358 68.678782 
L 498.837736 66.408962 
L 502.750189 64.11148 
L 506.662642 62.185657 
L 509.596981 60.951709 
L 513.835472 59.420129 
L 519.378113 57.805555 
L 521.986415 57.197452 
L 523.616604 56.824919 
L 534.049811 54.953151 
L 540.570566 54.105891 
L 547.417358 53.388048 
L 554.590189 52.808125 
L 564.045283 52.1993 
L 592.084528 51.102577 
L 611.646792 50.674638 
L 641.316226 50.294823 
L 697.720755 50.005245 
L 736.519245 49.953088 
L 777.926038 49.950739 
L 777.926038 49.950739 
" style="fill:none;stroke:#1f77b4;stroke-linecap:square;stroke-width:2;"/>
   </g>
   <g id="line2d_26">
    <path clip-path="url(#p9537cbdeb8)" d="M 451.236226 81.583174 
L 451.888302 80.609687 
L 452.540377 79.966742 
L 453.518491 79.37935 
L 454.822642 79.020907 
L 457.104906 78.724319 
L 459.38717 78.412093 
L 461.669434 77.915648 
L 464.929811 76.903029 
L 467.538113 75.868603 
L 470.146415 74.691057 
L 474.710943 72.425762 
L 485.470189 67.014971 
L 490.360755 64.802107 
L 495.251321 62.825699 
L 499.815849 61.216012 
L 504.706415 59.739051 
L 509.596981 58.480125 
L 515.139623 57.290212 
L 520.682264 56.311098 
L 527.855094 55.30489 
L 534.049811 54.620188 
L 545.78717 53.670365 
L 556.872453 53.04968 
L 570.892075 52.4952 
L 589.802264 51.984835 
L 617.515472 51.478906 
L 658.922264 50.998854 
L 703.589434 50.733946 
L 770.101132 50.612199 
L 777.926038 50.607989 
L 777.926038 50.607989 
" style="fill:none;stroke:#ff7f0e;stroke-linecap:square;stroke-width:2;"/>
   </g>
   <g id="line2d_27">
    <path clip-path="url(#p9537cbdeb8)" d="M 451.236226 59.485114 
L 452.21434 58.607485 
L 453.518491 57.786418 
L 455.148679 57.042941 
L 457.756981 56.169476 
L 461.669434 55.123734 
L 465.907925 54.218603 
L 469.820377 53.530697 
L 475.036981 52.834928 
L 480.90566 52.277071 
L 487.752453 51.85526 
L 496.881509 51.533337 
L 510.249057 51.319771 
L 542.200755 51.112573 
L 602.517736 50.933862 
L 667.073208 50.987554 
L 777.926038 51.124453 
L 777.926038 51.124453 
" style="fill:none;stroke:#2ca02c;stroke-linecap:square;stroke-width:2;"/>
   </g>
   <g id="line2d_28">
    <path clip-path="url(#p9537cbdeb8)" d="M 451.562264 50.742857 
L 777.6 50.742857 
" style="fill:none;stroke:#000000;stroke-dasharray:3.2,0.8,0.5,0.8;stroke-dashoffset:0;stroke-width:0.5;"/>
   </g>
   <g id="line2d_29">
    <path clip-path="url(#p9537cbdeb8)" d="M 451.562264 138.514286 
L 451.562264 28.8 
" style="fill:none;stroke:#000000;stroke-linecap:square;stroke-width:0.5;"/>
   </g>
   <g id="line2d_30">
    <path clip-path="url(#p9537cbdeb8)" d="M 516.769811 138.514286 
L 516.769811 28.8 
" style="fill:none;stroke:#000000;stroke-dasharray:6.4,1.6,1,1.6;stroke-dashoffset:0;stroke-opacity:0.25;"/>
   </g>
   <g id="line2d_31">
    <path clip-path="url(#p9537cbdeb8)" d="M 581.977358 138.514286 
L 581.977358 28.8 
" style="fill:none;stroke:#000000;stroke-dasharray:6.4,1.6,1,1.6;stroke-dashoffset:0;stroke-opacity:0.25;"/>
   </g>
   <g id="line2d_32">
    <path clip-path="url(#p9537cbdeb8)" d="M 647.184906 138.514286 
L 647.184906 28.8 
" style="fill:none;stroke:#000000;stroke-dasharray:6.4,1.6,1,1.6;stroke-dashoffset:0;stroke-opacity:0.25;"/>
   </g>
   <g id="patch_8">
    <path d="M 451.562264 138.514286 
L 451.562264 28.8 
" style="fill:none;stroke:#000000;stroke-linecap:square;stroke-linejoin:miter;stroke-width:0.8;"/>
   </g>
   <g id="patch_9">
    <path d="M 777.6 138.514286 
L 777.6 28.8 
" style="fill:none;stroke:#000000;stroke-linecap:square;stroke-linejoin:miter;stroke-width:0.8;"/>
   </g>
   <g id="patch_10">
    <path d="M 451.562264 138.514286 
L 777.6 138.514286 
" style="fill:none;stroke:#000000;stroke-linecap:square;stroke-linejoin:miter;stroke-width:0.8;"/>
   </g>
   <g id="patch_11">
    <path d="M 451.562264 28.8 
L 777.6 28.8 
" style="fill:none;stroke:#000000;stroke-linecap:square;stroke-linejoin:miter;stroke-width:0.8;"/>
   </g>
   <g id="text_5">
    <!-- $Re = 10^2$ -->
    <defs>
     <path d="M 13.203125 65.296875 
L 38.40625 65.296875 
Q 48.09375 65.296875 53.4375 61.5 
Q 58.796875 57.703125 58.796875 51.203125 
Q 58.796875 43.40625 52.203125 38.40625 
Q 48.296875 35.40625 39.09375 33.296875 
L 48 9.796875 
Q 49.703125 5.203125 51.546875 3.390625 
Q 53.40625 1.59375 56.703125 1.59375 
L 56.703125 0 
L 42 0 
L 29.703125 32.40625 
L 23.09375 32.90625 
L 17.59375 12.59375 
Q 16.296875 8 16.296875 6.296875 
Q 16.296875 4 17.59375 3 
Q 18.90625 2 23 1.59375 
L 23 0 
L -1.296875 0 
L -1.296875 1.59375 
Q 2.703125 2.09375 4.34375 3.796875 
Q 6 5.5 7.203125 10.09375 
L 19.09375 53.203125 
Q 20.296875 57.796875 20.296875 59.5 
Q 20.296875 61.296875 18.90625 62.296875 
Q 17.703125 63.09375 13.203125 63.703125 
z
M 30.59375 59.296875 
L 24.296875 36.59375 
Q 27.40625 36.09375 29.40625 36.09375 
Q 38.296875 36.09375 43.296875 40.09375 
Q 48.296875 44.09375 48.296875 51.09375 
Q 48.296875 56.296875 45.1875 59.296875 
Q 42.09375 62.296875 36.296875 62.296875 
Q 31.40625 62.296875 30.59375 59.296875 
z
" id="STIXGeneral-Italic-82"/>
     <path d="M 35.796875 10.90625 
L 37 9.703125 
Q 28.203125 -1.09375 16.59375 -1.09375 
Q 10.5 -1.09375 6.796875 2.65625 
Q 3.09375 6.40625 3.09375 12.59375 
Q 3.09375 24.296875 12.4375 34.1875 
Q 21.796875 44.09375 33 44.09375 
Q 36.90625 44.09375 39.046875 42.296875 
Q 41.203125 40.5 41.203125 37.296875 
Q 41.203125 30.703125 33.546875 25.5 
Q 25.90625 20.296875 12.796875 18.59375 
Q 11.796875 16.59375 11.796875 12.5 
Q 11.796875 8.40625 14.34375 5.90625 
Q 16.90625 3.40625 21.09375 3.40625 
Q 24.40625 3.40625 27.40625 4.953125 
Q 30.40625 6.5 35.796875 10.90625 
z
M 15.203125 25.203125 
L 13.5 20.796875 
Q 24.703125 23.5 29.59375 28.203125 
Q 34.59375 33 34.59375 37.90625 
Q 34.59375 41.796875 31.09375 41.796875 
Q 26.90625 41.796875 22.34375 36.9375 
Q 17.796875 32.09375 15.203125 25.203125 
z
" id="STIXGeneral-Italic-101"/>
     <path d="M 63.703125 32 
L 4.796875 32 
L 4.796875 38.59375 
L 63.703125 38.59375 
z
M 63.703125 12 
L 4.796875 12 
L 4.796875 18.59375 
L 63.703125 18.59375 
z
" id="STIXGeneral-Regular-61"/>
     <path d="M 39.40625 0 
L 11.796875 0 
L 11.796875 1.5 
Q 17.296875 1.796875 19.296875 3.546875 
Q 21.296875 5.296875 21.296875 9.5 
L 21.296875 54.40625 
Q 21.296875 59.296875 18.296875 59.296875 
Q 16.90625 59.296875 13.796875 58.09375 
L 11.09375 57.09375 
L 11.09375 58.5 
L 29 67.59375 
L 29.90625 67.296875 
L 29.90625 7.59375 
Q 29.90625 4.296875 31.90625 2.890625 
Q 33.90625 1.5 39.40625 1.5 
z
" id="STIXGeneral-Regular-49"/>
     <path d="M 47.40625 13.703125 
L 42 0 
L 2.90625 0 
L 2.90625 1.203125 
L 20.703125 20.09375 
Q 27.703125 27.40625 30.703125 33.5 
Q 33.703125 39.59375 33.703125 46.09375 
Q 33.703125 52.796875 30 56.5 
Q 26.296875 60.203125 19.796875 60.203125 
Q 14.40625 60.203125 11.25 57.390625 
Q 8.09375 54.59375 5.09375 47.203125 
L 3 47.703125 
Q 4.703125 57 9.84375 62.296875 
Q 15 67.59375 23.796875 67.59375 
Q 32.09375 67.59375 37.1875 62.59375 
Q 42.296875 57.59375 42.296875 50 
Q 42.296875 38.703125 29.5 25.203125 
L 13 7.59375 
L 36.40625 7.59375 
Q 39.703125 7.59375 41.640625 8.890625 
Q 43.59375 10.203125 46 14.296875 
z
" id="STIXGeneral-Regular-50"/>
    </defs>
    <g transform="translate(890.029941 110.95342)scale(0.19 -0.19)">
     <use transform="translate(0 0.409375)" xlink:href="#STIXGeneral-Italic-82"/>
     <use transform="translate(61.099991 0.409375)" xlink:href="#STIXGeneral-Italic-101"/>
     <use transform="translate(119.939981 0.409375)" xlink:href="#STIXGeneral-Regular-61"/>
     <use transform="translate(202.879962 0.409375)" xlink:href="#STIXGeneral-Regular-49"/>
     <use transform="translate(252.879947 0.409375)" xlink:href="#STIXGeneral-Regular-48"/>
     <use transform="translate(304.423213 35.684375)scale(0.7)" xlink:href="#STIXGeneral-Regular-50"/>
    </g>
   </g>
  </g>
  <g id="axes_3">
   <g id="patch_12">
    <path d="M 86.4 259.2 
L 412.437736 259.2 
L 412.437736 149.485714 
L 86.4 149.485714 
z
" style="fill:#ffffff;"/>
   </g>
   <g id="matplotlib.axis_5">
    <g id="xtick_13">
     <g id="line2d_33">
      <g>
       <use style="fill:#ffffff;stroke:#000000;stroke-width:0.8;" x="86.4" xlink:href="#m9f4c427a6c" y="259.2"/>
      </g>
     </g>
     <g id="text_6">
      <!-- 1.0 -->
      <defs>
       <path d="M 18.09375 4.296875 
Q 18.09375 2.09375 16.4375 0.5 
Q 14.796875 -1.09375 12.5 -1.09375 
Q 10.203125 -1.09375 8.59375 0.5 
Q 7 2.09375 7 4.390625 
Q 7 6.703125 8.640625 8.34375 
Q 10.296875 10 12.59375 10 
Q 14.796875 10 16.4375 8.296875 
Q 18.09375 6.59375 18.09375 4.296875 
z
" id="STIXGeneral-Regular-46"/>
      </defs>
      <g transform="translate(74.525 279.176406)scale(0.19 -0.19)">
       <use xlink:href="#STIXGeneral-Regular-49"/>
       <use x="49.999985" xlink:href="#STIXGeneral-Regular-46"/>
       <use x="74.999969" xlink:href="#STIXGeneral-Regular-48"/>
      </g>
     </g>
    </g>
    <g id="xtick_14">
     <g id="line2d_34">
      <g>
       <use style="fill:#ffffff;stroke:#000000;stroke-width:0.8;" x="151.607547" xlink:href="#m9f4c427a6c" y="259.2"/>
      </g>
     </g>
     <g id="text_7">
      <!-- 1.2 -->
      <g transform="translate(139.732547 279.176406)scale(0.19 -0.19)">
       <use xlink:href="#STIXGeneral-Regular-49"/>
       <use x="49.999985" xlink:href="#STIXGeneral-Regular-46"/>
       <use x="74.999969" xlink:href="#STIXGeneral-Regular-50"/>
      </g>
     </g>
    </g>
    <g id="xtick_15">
     <g id="line2d_35">
      <g>
       <use style="fill:#ffffff;stroke:#000000;stroke-width:0.8;" x="216.815094" xlink:href="#m9f4c427a6c" y="259.2"/>
      </g>
     </g>
     <g id="text_8">
      <!-- 1.4 -->
      <defs>
       <path d="M 47.296875 16.703125 
L 37 16.703125 
L 37 0 
L 29.203125 0 
L 29.203125 16.703125 
L 1.203125 16.703125 
L 1.203125 23.09375 
L 32.59375 67.59375 
L 37 67.59375 
L 37 23.09375 
L 47.296875 23.09375 
z
M 29.203125 23.09375 
L 29.203125 57.40625 
L 5.203125 23.09375 
z
" id="STIXGeneral-Regular-52"/>
      </defs>
      <g transform="translate(204.940094 279.176406)scale(0.19 -0.19)">
       <use xlink:href="#STIXGeneral-Regular-49"/>
       <use x="49.999985" xlink:href="#STIXGeneral-Regular-46"/>
       <use x="74.999969" xlink:href="#STIXGeneral-Regular-52"/>
      </g>
     </g>
    </g>
    <g id="xtick_16">
     <g id="line2d_36">
      <g>
       <use style="fill:#ffffff;stroke:#000000;stroke-width:0.8;" x="282.022642" xlink:href="#m9f4c427a6c" y="259.2"/>
      </g>
     </g>
     <g id="text_9">
      <!-- 1.6 -->
      <defs>
       <path d="M 44.59375 68.40625 
L 44.796875 66.796875 
Q 33 64.90625 25.09375 57.25 
Q 17.203125 49.59375 15.203125 38.296875 
Q 21 42.796875 27.90625 42.796875 
Q 36.703125 42.796875 41.75 37.1875 
Q 46.796875 31.59375 46.796875 21.90625 
Q 46.796875 12.09375 41.703125 5.90625 
Q 35.796875 -1.40625 25.796875 -1.40625 
Q 13.59375 -1.40625 8.09375 8.703125 
Q 3.40625 17.296875 3.40625 27.90625 
Q 3.40625 44.296875 14.296875 55.5 
Q 20.5 61.90625 27.046875 64.546875 
Q 33.59375 67.203125 44.59375 68.40625 
z
M 37.796875 18.796875 
Q 37.796875 38.203125 24.296875 38.203125 
Q 19.296875 38.203125 16 35.546875 
Q 12.703125 32.90625 12.703125 26.59375 
Q 12.703125 14.90625 16.34375 8.15625 
Q 20 1.40625 26.90625 1.40625 
Q 32.203125 1.40625 35 6.15625 
Q 37.796875 10.90625 37.796875 18.796875 
z
" id="STIXGeneral-Regular-54"/>
      </defs>
      <g transform="translate(270.147642 279.176406)scale(0.19 -0.19)">
       <use xlink:href="#STIXGeneral-Regular-49"/>
       <use x="49.999985" xlink:href="#STIXGeneral-Regular-46"/>
       <use x="74.999969" xlink:href="#STIXGeneral-Regular-54"/>
      </g>
     </g>
    </g>
    <g id="xtick_17">
     <g id="line2d_37">
      <g>
       <use style="fill:#ffffff;stroke:#000000;stroke-width:0.8;" x="347.230189" xlink:href="#m9f4c427a6c" y="259.2"/>
      </g>
     </g>
     <g id="text_10">
      <!-- 1.8 -->
      <defs>
       <path d="M 44.5 15.5 
Q 44.5 7.796875 39.140625 3.1875 
Q 33.796875 -1.40625 24.796875 -1.40625 
Q 16.40625 -1.40625 11 3.1875 
Q 5.59375 7.796875 5.59375 14.90625 
Q 5.59375 20.203125 8.1875 23.953125 
Q 10.796875 27.703125 18.59375 33.203125 
Q 11.09375 39.40625 8.640625 43.203125 
Q 6.203125 47 6.203125 52 
Q 6.203125 59.09375 11.640625 63.34375 
Q 17.09375 67.59375 25.59375 67.59375 
Q 32.90625 67.59375 37.65625 63.4375 
Q 42.40625 59.296875 42.40625 53.296875 
Q 42.40625 47.796875 39.546875 44.5 
Q 36.703125 41.203125 29 37.09375 
Q 38 31.09375 41.25 26.390625 
Q 44.5 21.703125 44.5 15.5 
z
M 35.5 53.296875 
Q 35.5 58.5 32.59375 61.640625 
Q 29.703125 64.796875 24.59375 64.796875 
Q 19.5 64.796875 16.546875 62.140625 
Q 13.59375 59.5 13.59375 54.890625 
Q 13.59375 50.296875 16.546875 46.546875 
Q 19.5 42.796875 26.09375 38.90625 
Q 31.203125 41.90625 33.34375 45.25 
Q 35.5 48.59375 35.5 53.296875 
z
M 27.09375 27.203125 
L 21.203125 31.203125 
Q 16.796875 27.59375 15 24.140625 
Q 13.203125 20.703125 13.203125 15.796875 
Q 13.203125 9 16.640625 5.203125 
Q 20.09375 1.40625 25.90625 1.40625 
Q 30.796875 1.40625 33.84375 4.453125 
Q 36.90625 7.5 36.90625 12.40625 
Q 36.90625 16.90625 34.59375 20.296875 
Q 32.296875 23.703125 27.09375 27.203125 
z
" id="STIXGeneral-Regular-56"/>
      </defs>
      <g transform="translate(335.355189 279.176406)scale(0.19 -0.19)">
       <use xlink:href="#STIXGeneral-Regular-49"/>
       <use x="49.999985" xlink:href="#STIXGeneral-Regular-46"/>
       <use x="74.999969" xlink:href="#STIXGeneral-Regular-56"/>
      </g>
     </g>
    </g>
    <g id="xtick_18">
     <g id="line2d_38">
      <g>
       <use style="fill:#ffffff;stroke:#000000;stroke-width:0.8;" x="412.437736" xlink:href="#m9f4c427a6c" y="259.2"/>
      </g>
     </g>
     <g id="text_11">
      <!-- 2.0 -->
      <g transform="translate(400.562736 279.176406)scale(0.19 -0.19)">
       <use xlink:href="#STIXGeneral-Regular-50"/>
       <use x="49.999985" xlink:href="#STIXGeneral-Regular-46"/>
       <use x="74.999969" xlink:href="#STIXGeneral-Regular-48"/>
      </g>
     </g>
    </g>
   </g>
   <g id="matplotlib.axis_6">
    <g id="ytick_5">
     <g id="line2d_39">
      <g>
       <use style="fill:#ffffff;stroke:#000000;stroke-width:0.8;" x="86.4" xlink:href="#m7880f388c9" y="226.285714"/>
      </g>
     </g>
     <g id="text_12">
      <!-- −5 -->
      <g transform="translate(56.885 232.773917)scale(0.19 -0.19)">
       <use xlink:href="#STIXGeneral-Regular-8722"/>
       <use x="68.499985" xlink:href="#STIXGeneral-Regular-53"/>
      </g>
     </g>
    </g>
    <g id="ytick_6">
     <g id="line2d_40">
      <g>
       <use style="fill:#ffffff;stroke:#000000;stroke-width:0.8;" x="86.4" xlink:href="#m7880f388c9" y="171.428571"/>
      </g>
     </g>
     <g id="text_13">
      <!-- 0 -->
      <g transform="translate(69.9 177.916775)scale(0.19 -0.19)">
       <use xlink:href="#STIXGeneral-Regular-48"/>
      </g>
     </g>
    </g>
    <g id="text_14">
     <!-- $C_l$ -->
     <g transform="translate(48.761406 212.987857)rotate(-90)scale(0.19 -0.19)">
      <use transform="translate(0 0.40625)" xlink:href="#STIXGeneral-Italic-67"/>
      <use transform="translate(66.699997 -12.821875)scale(0.7)" xlink:href="#STIXGeneral-Italic-108"/>
     </g>
    </g>
   </g>
   <g id="line2d_41">
    <path clip-path="url(#p0ad2fa0f07)" d="M 86.073962 189.005703 
L 88.356226 186.412617 
L 92.268679 182.647295 
L 95.203019 180.237467 
L 97.811321 178.33537 
L 100.093585 176.870734 
L 103.027925 175.269134 
L 105.636226 174.129208 
L 107.918491 173.305174 
L 110.200755 172.637823 
L 113.461132 171.924261 
L 118.677736 171.196984 
L 126.176604 170.706404 
L 136.283774 170.467176 
L 160.736604 170.201279 
L 176.060377 170.188959 
L 215.836981 170.536088 
L 306.475472 171.282673 
L 358.967547 171.372363 
L 412.763774 171.352036 
L 412.763774 171.352036 
" style="fill:none;stroke:#1f77b4;stroke-linecap:square;stroke-width:2;"/>
   </g>
   <g id="line2d_42">
    <path clip-path="url(#p0ad2fa0f07)" d="M 86.073962 176.370758 
L 90.312453 174.985675 
L 103.68 170.964178 
L 106.940377 170.343075 
L 110.526792 169.865302 
L 115.091321 169.508752 
L 120.307925 169.333224 
L 128.13283 169.331198 
L 141.17434 169.595983 
L 172.147925 170.469318 
L 198.556981 171.192714 
L 215.184906 171.353827 
L 287.565283 171.614482 
L 361.901887 171.642816 
L 412.763774 171.606378 
L 412.763774 171.606378 
" style="fill:none;stroke:#ff7f0e;stroke-linecap:square;stroke-width:2;"/>
   </g>
   <g id="line2d_43">
    <path clip-path="url(#p0ad2fa0f07)" d="M 86.073962 172.998686 
L 90.964528 172.532548 
L 97.811321 172.136656 
L 108.896604 171.740733 
L 119.981887 171.557726 
L 130.741132 171.60449 
L 158.128302 172.063031 
L 175.408302 172.18201 
L 202.469434 172.119719 
L 240.941887 172.045493 
L 256.26566 171.961076 
L 268.655094 171.670714 
L 291.477736 171.035604 
L 308.431698 171.171799 
L 326.037736 171.112501 
L 357.011321 170.815466 
L 374.291321 170.732754 
L 395.483774 170.87771 
L 412.763774 171.083757 
L 412.763774 171.083757 
" style="fill:none;stroke:#2ca02c;stroke-linecap:square;stroke-width:2;"/>
   </g>
   <g id="line2d_44">
    <path clip-path="url(#p0ad2fa0f07)" d="M 86.4 171.428571 
L 412.437736 171.428571 
" style="fill:none;stroke:#000000;stroke-dasharray:3.2,0.8,0.5,0.8;stroke-dashoffset:0;stroke-width:0.5;"/>
   </g>
   <g id="line2d_45">
    <path clip-path="url(#p0ad2fa0f07)" d="M 86.4 259.2 
L 86.4 149.485714 
" style="fill:none;stroke:#000000;stroke-linecap:square;stroke-width:0.5;"/>
   </g>
   <g id="line2d_46">
    <path clip-path="url(#p0ad2fa0f07)" d="M 151.607547 259.2 
L 151.607547 149.485714 
" style="fill:none;stroke:#000000;stroke-dasharray:6.4,1.6,1,1.6;stroke-dashoffset:0;stroke-opacity:0.25;"/>
   </g>
   <g id="line2d_47">
    <path clip-path="url(#p0ad2fa0f07)" d="M 216.815094 259.2 
L 216.815094 149.485714 
" style="fill:none;stroke:#000000;stroke-dasharray:6.4,1.6,1,1.6;stroke-dashoffset:0;stroke-opacity:0.25;"/>
   </g>
   <g id="line2d_48">
    <path clip-path="url(#p0ad2fa0f07)" d="M 282.022642 259.2 
L 282.022642 149.485714 
" style="fill:none;stroke:#000000;stroke-dasharray:6.4,1.6,1,1.6;stroke-dashoffset:0;stroke-opacity:0.25;"/>
   </g>
   <g id="patch_13">
    <path d="M 86.4 259.2 
L 86.4 149.485714 
" style="fill:none;stroke:#000000;stroke-linecap:square;stroke-linejoin:miter;stroke-width:0.8;"/>
   </g>
   <g id="patch_14">
    <path d="M 412.437736 259.2 
L 412.437736 149.485714 
" style="fill:none;stroke:#000000;stroke-linecap:square;stroke-linejoin:miter;stroke-width:0.8;"/>
   </g>
   <g id="patch_15">
    <path d="M 86.4 259.2 
L 412.437736 259.2 
" style="fill:none;stroke:#000000;stroke-linecap:square;stroke-linejoin:miter;stroke-width:0.8;"/>
   </g>
   <g id="patch_16">
    <path d="M 86.4 149.485714 
L 412.437736 149.485714 
" style="fill:none;stroke:#000000;stroke-linecap:square;stroke-linejoin:miter;stroke-width:0.8;"/>
   </g>
  </g>
  <g id="axes_4">
   <g id="patch_17">
    <path d="M 451.562264 259.2 
L 777.6 259.2 
L 777.6 149.485714 
L 451.562264 149.485714 
z
" style="fill:#ffffff;"/>
   </g>
   <g id="matplotlib.axis_7">
    <g id="xtick_19">
     <g id="line2d_49">
      <g>
       <use style="fill:#ffffff;stroke:#000000;stroke-width:0.8;" x="451.562264" xlink:href="#m9f4c427a6c" y="259.2"/>
      </g>
     </g>
     <g id="text_15">
      <!-- 1.0 -->
      <g transform="translate(439.687264 279.176406)scale(0.19 -0.19)">
       <use xlink:href="#STIXGeneral-Regular-49"/>
       <use x="49.999985" xlink:href="#STIXGeneral-Regular-46"/>
       <use x="74.999969" xlink:href="#STIXGeneral-Regular-48"/>
      </g>
     </g>
    </g>
    <g id="xtick_20">
     <g id="line2d_50">
      <g>
       <use style="fill:#ffffff;stroke:#000000;stroke-width:0.8;" x="516.769811" xlink:href="#m9f4c427a6c" y="259.2"/>
      </g>
     </g>
     <g id="text_16">
      <!-- 1.2 -->
      <g transform="translate(504.894811 279.176406)scale(0.19 -0.19)">
       <use xlink:href="#STIXGeneral-Regular-49"/>
       <use x="49.999985" xlink:href="#STIXGeneral-Regular-46"/>
       <use x="74.999969" xlink:href="#STIXGeneral-Regular-50"/>
      </g>
     </g>
    </g>
    <g id="xtick_21">
     <g id="line2d_51">
      <g>
       <use style="fill:#ffffff;stroke:#000000;stroke-width:0.8;" x="581.977358" xlink:href="#m9f4c427a6c" y="259.2"/>
      </g>
     </g>
     <g id="text_17">
      <!-- 1.4 -->
      <g transform="translate(570.102358 279.176406)scale(0.19 -0.19)">
       <use xlink:href="#STIXGeneral-Regular-49"/>
       <use x="49.999985" xlink:href="#STIXGeneral-Regular-46"/>
       <use x="74.999969" xlink:href="#STIXGeneral-Regular-52"/>
      </g>
     </g>
    </g>
    <g id="xtick_22">
     <g id="line2d_52">
      <g>
       <use style="fill:#ffffff;stroke:#000000;stroke-width:0.8;" x="647.184906" xlink:href="#m9f4c427a6c" y="259.2"/>
      </g>
     </g>
     <g id="text_18">
      <!-- 1.6 -->
      <g transform="translate(635.309906 279.176406)scale(0.19 -0.19)">
       <use xlink:href="#STIXGeneral-Regular-49"/>
       <use x="49.999985" xlink:href="#STIXGeneral-Regular-46"/>
       <use x="74.999969" xlink:href="#STIXGeneral-Regular-54"/>
      </g>
     </g>
    </g>
    <g id="xtick_23">
     <g id="line2d_53">
      <g>
       <use style="fill:#ffffff;stroke:#000000;stroke-width:0.8;" x="712.392453" xlink:href="#m9f4c427a6c" y="259.2"/>
      </g>
     </g>
     <g id="text_19">
      <!-- 1.8 -->
      <g transform="translate(700.517453 279.176406)scale(0.19 -0.19)">
       <use xlink:href="#STIXGeneral-Regular-49"/>
       <use x="49.999985" xlink:href="#STIXGeneral-Regular-46"/>
       <use x="74.999969" xlink:href="#STIXGeneral-Regular-56"/>
      </g>
     </g>
    </g>
    <g id="xtick_24">
     <g id="line2d_54">
      <g>
       <use style="fill:#ffffff;stroke:#000000;stroke-width:0.8;" x="777.6" xlink:href="#m9f4c427a6c" y="259.2"/>
      </g>
     </g>
     <g id="text_20">
      <!-- 2.0 -->
      <g transform="translate(765.725 279.176406)scale(0.19 -0.19)">
       <use xlink:href="#STIXGeneral-Regular-50"/>
       <use x="49.999985" xlink:href="#STIXGeneral-Regular-46"/>
       <use x="74.999969" xlink:href="#STIXGeneral-Regular-48"/>
      </g>
     </g>
    </g>
   </g>
   <g id="matplotlib.axis_8">
    <g id="ytick_7">
     <g id="line2d_55">
      <g>
       <use style="fill:#ffffff;stroke:#000000;stroke-width:0.8;" x="451.562264" xlink:href="#m7880f388c9" y="226.285714"/>
      </g>
     </g>
    </g>
    <g id="ytick_8">
     <g id="line2d_56">
      <g>
       <use style="fill:#ffffff;stroke:#000000;stroke-width:0.8;" x="451.562264" xlink:href="#m7880f388c9" y="171.428571"/>
      </g>
     </g>
    </g>
    <g id="text_21">
     <!-- $C_d$ -->
     <g transform="translate(436.43867 214.507857)rotate(-90)scale(0.19 -0.19)">
      <use transform="translate(0 0.40625)" xlink:href="#STIXGeneral-Italic-67"/>
      <use transform="translate(66.699997 -12.821875)scale(0.7)" xlink:href="#STIXGeneral-Italic-100"/>
     </g>
    </g>
   </g>
   <g id="line2d_57">
    <path clip-path="url(#p8766cf5766)" d="M 451.236226 275.199621 
L 452.21434 270.719602 
L 453.192453 267.149927 
L 454.170566 264.823816 
L 454.822642 263.826292 
L 455.148679 263.587184 
L 456.45283 262.06727 
L 456.778868 261.474338 
L 457.104906 261.187877 
L 460.365283 255.845749 
L 464.603774 245.392896 
L 466.56 240.032081 
L 468.190189 235.230121 
L 468.516226 234.191025 
L 468.842264 233.541623 
L 469.49434 231.308208 
L 470.472453 228.53034 
L 470.798491 227.7787 
L 471.450566 225.601725 
L 472.102642 223.828946 
L 473.73283 219.213868 
L 474.710943 216.776228 
L 476.341132 212.24548 
L 476.993208 210.901403 
L 477.645283 209.196093 
L 478.297358 207.759379 
L 480.253585 203.351395 
L 480.579623 202.664836 
L 481.231698 201.737787 
L 481.883774 200.387935 
L 483.513962 197.48601 
L 484.166038 196.267473 
L 485.796226 193.673092 
L 490.686792 187.343233 
L 491.338868 186.85715 
L 492.316981 185.694654 
L 493.621132 184.489424 
L 494.273208 183.774714 
L 499.163774 180.099314 
L 499.815849 179.829074 
L 500.793962 179.09757 
L 502.098113 178.521695 
L 503.076226 177.900964 
L 505.032453 177.212848 
L 505.358491 176.921423 
L 506.336604 176.670103 
L 507.640755 176.214594 
L 507.966792 176.219829 
L 508.618868 175.971528 
L 508.944906 175.99361 
L 509.270943 176.143774 
L 510.249057 175.404617 
L 511.22717 175.208562 
L 512.205283 174.873737 
L 512.531321 174.992606 
L 514.161509 174.597664 
L 514.487547 174.32302 
L 515.139623 174.144204 
L 515.791698 174.320258 
L 516.443774 174.282782 
L 516.769811 174.167987 
L 517.421887 174.351922 
L 520.356226 173.608711 
L 520.682264 173.83124 
L 521.33434 173.863816 
L 521.986415 173.957869 
L 522.638491 173.709013 
L 522.964528 173.522279 
L 523.616604 173.537309 
L 524.268679 173.485906 
L 524.920755 173.387364 
L 525.246792 173.511659 
L 525.57283 173.445053 
L 526.876981 173.653553 
L 527.855094 173.460228 
L 529.159245 173.379898 
L 530.789434 173.531395 
L 533.723774 173.283591 
L 534.701887 173.418951 
L 536.658113 173.300522 
L 536.984151 173.18071 
L 537.636226 173.222645 
L 538.61434 173.127256 
L 539.266415 173.131578 
L 540.896604 173.184133 
L 541.874717 173.006892 
L 543.830943 172.996029 
L 545.135094 172.983789 
L 547.743396 172.700127 
L 550.351698 172.624319 
L 553.286038 172.484905 
L 554.916226 172.465365 
L 557.198491 172.335534 
L 559.480755 172.296046 
L 562.089057 172.121469 
L 564.371321 172.17433 
L 566.001509 172.119288 
L 587.846038 172.379354 
L 589.476226 172.380202 
L 598.931321 172.549251 
L 600.887547 172.543781 
L 609.038491 172.582612 
L 610.668679 172.557949 
L 618.819623 172.489564 
L 626.970566 172.355793 
L 634.469434 172.203638 
L 637.403774 172.124162 
L 649.141132 171.882044 
L 652.727547 171.789031 
L 667.725283 171.486615 
L 705.219623 170.692278 
L 713.044528 170.539373 
L 749.234717 170.042371 
L 754.451321 169.995762 
L 771.731321 169.901629 
L 777.926038 169.87333 
L 777.926038 169.87333 
" style="fill:none;stroke:#1f77b4;stroke-linecap:square;stroke-width:2;"/>
   </g>
   <g id="line2d_58">
    <path clip-path="url(#p8766cf5766)" d="M 451.236226 220.046171 
L 452.21434 219.965501 
L 455.474717 220.538509 
L 456.778868 220.486429 
L 458.409057 220.158161 
L 459.713208 219.550187 
L 461.017358 218.611423 
L 462.647547 216.987937 
L 463.951698 215.297145 
L 466.233962 211.674769 
L 468.190189 208.11777 
L 475.689057 194.515616 
L 478.297358 190.536536 
L 481.231698 186.786939 
L 484.166038 183.677398 
L 487.752453 180.644906 
L 491.990943 178.145292 
L 494.273208 177.141801 
L 496.555472 176.359912 
L 499.163774 175.701257 
L 499.815849 175.524959 
L 501.446038 175.214433 
L 502.424151 175.093676 
L 503.402264 174.972889 
L 506.336604 174.635822 
L 506.988679 174.569874 
L 507.966792 174.40269 
L 512.531321 174.183884 
L 517.095849 173.999522 
L 518.4 173.949356 
L 527.203019 174.011509 
L 531.115472 174.202481 
L 532.419623 174.284224 
L 537.962264 174.771895 
L 548.069434 176.140089 
L 555.242264 177.181195 
L 560.13283 177.711837 
L 566.327547 178.017806 
L 570.892075 178.007179 
L 575.130566 177.858265 
L 595.996981 176.407628 
L 619.14566 175.096074 
L 652.401509 173.632307 
L 687.613585 172.716418 
L 711.41434 172.403143 
L 777.926038 171.986844 
L 777.926038 171.986844 
" style="fill:none;stroke:#ff7f0e;stroke-linecap:square;stroke-width:2;"/>
   </g>
   <g id="line2d_59">
    <path clip-path="url(#p8766cf5766)" d="M 451.236226 168.962053 
L 452.21434 168.362465 
L 453.518491 167.867365 
L 455.148679 167.484829 
L 458.735094 167.097319 
L 463.62566 166.865767 
L 468.516226 166.687879 
L 473.080755 166.55579 
L 476.66717 166.539991 
L 482.209811 166.709065 
L 502.424151 167.855046 
L 513.509434 168.61189 
L 520.356226 168.814148 
L 525.246792 168.746153 
L 529.159245 168.565874 
L 541.222642 167.610392 
L 547.417358 167.089943 
L 564.697358 166.147894 
L 575.456604 165.760815 
L 586.867925 165.101854 
L 593.062642 164.542656 
L 599.257358 163.807927 
L 608.060377 162.502011 
L 622.732075 160.335919 
L 627.948679 159.868547 
L 632.513208 159.671124 
L 636.751698 159.6785 
L 640.664151 159.837013 
L 645.880755 160.25969 
L 651.749434 160.926863 
L 656.64 161.633429 
L 663.160755 162.782219 
L 671.963774 164.535752 
L 677.506415 165.421354 
L 699.350943 168.565218 
L 717.935094 170.742989 
L 731.628679 172.509455 
L 739.453585 173.239712 
L 752.495094 174.235163 
L 770.753208 175.427803 
L 777.926038 175.786558 
L 777.926038 175.786558 
" style="fill:none;stroke:#2ca02c;stroke-linecap:square;stroke-width:2;"/>
   </g>
   <g id="line2d_60">
    <path clip-path="url(#p8766cf5766)" d="M 451.562264 171.428571 
L 777.6 171.428571 
" style="fill:none;stroke:#000000;stroke-dasharray:3.2,0.8,0.5,0.8;stroke-dashoffset:0;stroke-width:0.5;"/>
   </g>
   <g id="line2d_61">
    <path clip-path="url(#p8766cf5766)" d="M 451.562264 259.2 
L 451.562264 149.485714 
" style="fill:none;stroke:#000000;stroke-linecap:square;stroke-width:0.5;"/>
   </g>
   <g id="line2d_62">
    <path clip-path="url(#p8766cf5766)" d="M 516.769811 259.2 
L 516.769811 149.485714 
" style="fill:none;stroke:#000000;stroke-dasharray:6.4,1.6,1,1.6;stroke-dashoffset:0;stroke-opacity:0.25;"/>
   </g>
   <g id="line2d_63">
    <path clip-path="url(#p8766cf5766)" d="M 581.977358 259.2 
L 581.977358 149.485714 
" style="fill:none;stroke:#000000;stroke-dasharray:6.4,1.6,1,1.6;stroke-dashoffset:0;stroke-opacity:0.25;"/>
   </g>
   <g id="line2d_64">
    <path clip-path="url(#p8766cf5766)" d="M 647.184906 259.2 
L 647.184906 149.485714 
" style="fill:none;stroke:#000000;stroke-dasharray:6.4,1.6,1,1.6;stroke-dashoffset:0;stroke-opacity:0.25;"/>
   </g>
   <g id="patch_18">
    <path d="M 451.562264 259.2 
L 451.562264 149.485714 
" style="fill:none;stroke:#000000;stroke-linecap:square;stroke-linejoin:miter;stroke-width:0.8;"/>
   </g>
   <g id="patch_19">
    <path d="M 777.6 259.2 
L 777.6 149.485714 
" style="fill:none;stroke:#000000;stroke-linecap:square;stroke-linejoin:miter;stroke-width:0.8;"/>
   </g>
   <g id="patch_20">
    <path d="M 451.562264 259.2 
L 777.6 259.2 
" style="fill:none;stroke:#000000;stroke-linecap:square;stroke-linejoin:miter;stroke-width:0.8;"/>
   </g>
   <g id="patch_21">
    <path d="M 451.562264 149.485714 
L 777.6 149.485714 
" style="fill:none;stroke:#000000;stroke-linecap:square;stroke-linejoin:miter;stroke-width:0.8;"/>
   </g>
   <g id="text_22">
    <!-- $Re = 10^3$ -->
    <defs>
     <path d="M 6.09375 51 
L 4.5 51.40625 
Q 6.796875 58.90625 11.6875 63.25 
Q 16.59375 67.59375 24.09375 67.59375 
Q 31.09375 67.59375 35.390625 63.796875 
Q 39.703125 60 39.703125 53.90625 
Q 39.703125 45.703125 30.40625 40.09375 
Q 35.90625 37.703125 38.703125 34.796875 
Q 43.09375 29.90625 43.09375 21.90625 
Q 43.09375 13.90625 38.5 7.90625 
Q 35.09375 3.296875 28.75 0.9375 
Q 22.40625 -1.40625 15.296875 -1.40625 
Q 4.09375 -1.40625 4.09375 4.296875 
Q 4.09375 5.90625 5.296875 6.90625 
Q 6.5 7.90625 8.203125 7.90625 
Q 10.703125 7.90625 14.296875 5.296875 
Q 18.703125 2.203125 22.90625 2.203125 
Q 28.40625 2.203125 32.15625 6.640625 
Q 35.90625 11.09375 35.90625 17.5 
Q 35.90625 29 25.5 32 
Q 22.40625 33 15.296875 33 
L 15.296875 34.40625 
Q 20.90625 36.296875 23.703125 38 
Q 31.796875 42.59375 31.796875 51.40625 
Q 31.796875 56.40625 28.9375 59 
Q 26.09375 61.59375 21 61.59375 
Q 12 61.59375 6.09375 51 
z
" id="STIXGeneral-Regular-51"/>
    </defs>
    <g transform="translate(890.029941 208.512748)scale(0.19 -0.19)">
     <use transform="translate(0 0.409375)" xlink:href="#STIXGeneral-Italic-82"/>
     <use transform="translate(61.099991 0.409375)" xlink:href="#STIXGeneral-Italic-101"/>
     <use transform="translate(119.939981 0.409375)" xlink:href="#STIXGeneral-Regular-61"/>
     <use transform="translate(202.879962 0.409375)" xlink:href="#STIXGeneral-Regular-49"/>
     <use transform="translate(252.879947 0.409375)" xlink:href="#STIXGeneral-Regular-48"/>
     <use transform="translate(304.423213 35.684375)scale(0.7)" xlink:href="#STIXGeneral-Regular-51"/>
    </g>
   </g>
  </g>
 </g>
 <defs>
  <clipPath id="p42e0473d69">
   <rect height="109.714286" width="326.037736" x="86.4" y="28.8"/>
  </clipPath>
  <clipPath id="p9537cbdeb8">
   <rect height="109.714286" width="326.037736" x="451.562264" y="28.8"/>
  </clipPath>
  <clipPath id="p0ad2fa0f07">
   <rect height="109.714286" width="326.037736" x="86.4" y="149.485714"/>
  </clipPath>
  <clipPath id="p8766cf5766">
   <rect height="109.714286" width="326.037736" x="451.562264" y="149.485714"/>
  </clipPath>
 </defs>
</svg>
