<?xml version="1.0" encoding="utf-8" standalone="no"?>
<!DOCTYPE svg PUBLIC "-//W3C//DTD SVG 1.1//EN"
  "http://www.w3.org/Graphics/SVG/1.1/DTD/svg11.dtd">
<!-- Created with matplotlib (https://matplotlib.org/) -->
<svg height="720pt" version="1.1" viewBox="0 0 1080 720" width="1080pt" xmlns="http://www.w3.org/2000/svg" xmlns:xlink="http://www.w3.org/1999/xlink">
 <defs>
  <style type="text/css">
*{stroke-linecap:butt;stroke-linejoin:round;}
  </style>
 </defs>
 <g id="figure_1">
  <g id="patch_1">
   <path d="M 0 720 
L 1080 720 
L 1080 0 
L 0 0 
z
" style="fill:#ffffff;"/>
  </g>
  <g id="axes_1">
   <g id="patch_2">
    <path d="M 216 343.078341 
L 514.617512 343.078341 
L 514.617512 144 
L 216 144 
z
" style="fill:#ffffff;"/>
   </g>
   <g id="matplotlib.axis_1">
    <g id="xtick_1">
     <g id="line2d_1">
      <defs>
       <path d="M 0 0 
L 0 3.5 
" id="m18bfbac0da" style="stroke:#000000;stroke-width:0.8;"/>
      </defs>
      <g>
       <use style="fill:#ffffff;stroke:#000000;stroke-width:0.8;" x="216" xlink:href="#m18bfbac0da" y="343.078341"/>
      </g>
     </g>
    </g>
    <g id="xtick_2">
     <g id="line2d_2">
      <g>
       <use style="fill:#ffffff;stroke:#000000;stroke-width:0.8;" x="290.654378" xlink:href="#m18bfbac0da" y="343.078341"/>
      </g>
     </g>
    </g>
    <g id="xtick_3">
     <g id="line2d_3">
      <g>
       <use style="fill:#ffffff;stroke:#000000;stroke-width:0.8;" x="365.308756" xlink:href="#m18bfbac0da" y="343.078341"/>
      </g>
     </g>
    </g>
    <g id="xtick_4">
     <g id="line2d_4">
      <g>
       <use style="fill:#ffffff;stroke:#000000;stroke-width:0.8;" x="439.963134" xlink:href="#m18bfbac0da" y="343.078341"/>
      </g>
     </g>
    </g>
    <g id="xtick_5">
     <g id="line2d_5">
      <g>
       <use style="fill:#ffffff;stroke:#000000;stroke-width:0.8;" x="514.617512" xlink:href="#m18bfbac0da" y="343.078341"/>
      </g>
     </g>
    </g>
   </g>
   <g id="matplotlib.axis_2">
    <g id="ytick_1">
     <g id="line2d_6">
      <defs>
       <path d="M 0 0 
L -3.5 0 
" id="m39d160ac97" style="stroke:#000000;stroke-width:0.8;"/>
      </defs>
      <g>
       <use style="fill:#ffffff;stroke:#000000;stroke-width:0.8;" x="216" xlink:href="#m39d160ac97" y="320.54117"/>
      </g>
     </g>
     <g id="text_1">
      <!-- −10 -->
      <defs>
       <path d="M 62.09375 22 
L 6.40625 22 
L 6.40625 28.59375 
L 62.09375 28.59375 
z
" id="STIXGeneral-Regular-8722"/>
       <path d="M 39.40625 0 
L 11.796875 0 
L 11.796875 1.5 
Q 17.296875 1.796875 19.296875 3.546875 
Q 21.296875 5.296875 21.296875 9.5 
L 21.296875 54.40625 
Q 21.296875 59.296875 18.296875 59.296875 
Q 16.90625 59.296875 13.796875 58.09375 
L 11.09375 57.09375 
L 11.09375 58.5 
L 29 67.59375 
L 29.90625 67.296875 
L 29.90625 7.59375 
Q 29.90625 4.296875 31.90625 2.890625 
Q 33.90625 1.5 39.40625 1.5 
z
" id="STIXGeneral-Regular-49"/>
       <path d="M 47.59375 33 
Q 47.59375 26.296875 46.296875 20.34375 
Q 45 14.40625 42.453125 9.40625 
Q 39.90625 4.40625 35.40625 1.5 
Q 30.90625 -1.40625 25 -1.40625 
Q 18.90625 -1.40625 14.296875 1.6875 
Q 9.703125 4.796875 7.203125 10 
Q 4.703125 15.203125 3.546875 21.09375 
Q 2.40625 27 2.40625 33.59375 
Q 2.40625 42.90625 4.703125 50.34375 
Q 7 57.796875 12.34375 62.6875 
Q 17.703125 67.59375 25.40625 67.59375 
Q 35.203125 67.59375 41.390625 58 
Q 47.59375 48.40625 47.59375 33 
z
M 38 32.5 
Q 38 48.296875 34.640625 56.640625 
Q 31.296875 65 24.796875 65 
Q 18.59375 65 15.296875 56.59375 
Q 12 48.203125 12 32.90625 
Q 12 17.5 15.296875 9.34375 
Q 18.59375 1.203125 25 1.203125 
Q 31.296875 1.203125 34.640625 9.34375 
Q 38 17.5 38 32.5 
z
" id="STIXGeneral-Regular-48"/>
      </defs>
      <g transform="translate(185.41 325.321952)scale(0.14 -0.14)">
       <use xlink:href="#STIXGeneral-Regular-8722"/>
       <use x="68.499985" xlink:href="#STIXGeneral-Regular-49"/>
       <use x="118.499969" xlink:href="#STIXGeneral-Regular-48"/>
      </g>
     </g>
    </g>
    <g id="ytick_2">
     <g id="line2d_7">
      <g>
       <use style="fill:#ffffff;stroke:#000000;stroke-width:0.8;" x="216" xlink:href="#m39d160ac97" y="282.979219"/>
      </g>
     </g>
     <g id="text_2">
      <!-- 0 -->
      <g transform="translate(202 287.76)scale(0.14 -0.14)">
       <use xlink:href="#STIXGeneral-Regular-48"/>
      </g>
     </g>
    </g>
    <g id="ytick_3">
     <g id="line2d_8">
      <g>
       <use style="fill:#ffffff;stroke:#000000;stroke-width:0.8;" x="216" xlink:href="#m39d160ac97" y="245.417268"/>
      </g>
     </g>
     <g id="text_3">
      <!-- 10 -->
      <g transform="translate(195 250.198049)scale(0.14 -0.14)">
       <use xlink:href="#STIXGeneral-Regular-49"/>
       <use x="49.999985" xlink:href="#STIXGeneral-Regular-48"/>
      </g>
     </g>
    </g>
    <g id="ytick_4">
     <g id="line2d_9">
      <g>
       <use style="fill:#ffffff;stroke:#000000;stroke-width:0.8;" x="216" xlink:href="#m39d160ac97" y="207.855317"/>
      </g>
     </g>
     <g id="text_4">
      <!-- 20 -->
      <defs>
       <path d="M 47.40625 13.703125 
L 42 0 
L 2.90625 0 
L 2.90625 1.203125 
L 20.703125 20.09375 
Q 27.703125 27.40625 30.703125 33.5 
Q 33.703125 39.59375 33.703125 46.09375 
Q 33.703125 52.796875 30 56.5 
Q 26.296875 60.203125 19.796875 60.203125 
Q 14.40625 60.203125 11.25 57.390625 
Q 8.09375 54.59375 5.09375 47.203125 
L 3 47.703125 
Q 4.703125 57 9.84375 62.296875 
Q 15 67.59375 23.796875 67.59375 
Q 32.09375 67.59375 37.1875 62.59375 
Q 42.296875 57.59375 42.296875 50 
Q 42.296875 38.703125 29.5 25.203125 
L 13 7.59375 
L 36.40625 7.59375 
Q 39.703125 7.59375 41.640625 8.890625 
Q 43.59375 10.203125 46 14.296875 
z
" id="STIXGeneral-Regular-50"/>
      </defs>
      <g transform="translate(195 212.636098)scale(0.14 -0.14)">
       <use xlink:href="#STIXGeneral-Regular-50"/>
       <use x="49.999985" xlink:href="#STIXGeneral-Regular-48"/>
      </g>
     </g>
    </g>
    <g id="ytick_5">
     <g id="line2d_10">
      <g>
       <use style="fill:#ffffff;stroke:#000000;stroke-width:0.8;" x="216" xlink:href="#m39d160ac97" y="170.293366"/>
      </g>
     </g>
     <g id="text_5">
      <!-- 30 -->
      <defs>
       <path d="M 6.09375 51 
L 4.5 51.40625 
Q 6.796875 58.90625 11.6875 63.25 
Q 16.59375 67.59375 24.09375 67.59375 
Q 31.09375 67.59375 35.390625 63.796875 
Q 39.703125 60 39.703125 53.90625 
Q 39.703125 45.703125 30.40625 40.09375 
Q 35.90625 37.703125 38.703125 34.796875 
Q 43.09375 29.90625 43.09375 21.90625 
Q 43.09375 13.90625 38.5 7.90625 
Q 35.09375 3.296875 28.75 0.9375 
Q 22.40625 -1.40625 15.296875 -1.40625 
Q 4.09375 -1.40625 4.09375 4.296875 
Q 4.09375 5.90625 5.296875 6.90625 
Q 6.5 7.90625 8.203125 7.90625 
Q 10.703125 7.90625 14.296875 5.296875 
Q 18.703125 2.203125 22.90625 2.203125 
Q 28.40625 2.203125 32.15625 6.640625 
Q 35.90625 11.09375 35.90625 17.5 
Q 35.90625 29 25.5 32 
Q 22.40625 33 15.296875 33 
L 15.296875 34.40625 
Q 20.90625 36.296875 23.703125 38 
Q 31.796875 42.59375 31.796875 51.40625 
Q 31.796875 56.40625 28.9375 59 
Q 26.09375 61.59375 21 61.59375 
Q 12 61.59375 6.09375 51 
z
" id="STIXGeneral-Regular-51"/>
      </defs>
      <g transform="translate(195 175.074147)scale(0.14 -0.14)">
       <use xlink:href="#STIXGeneral-Regular-51"/>
       <use x="49.999985" xlink:href="#STIXGeneral-Regular-48"/>
      </g>
     </g>
    </g>
    <g id="text_6">
     <!-- $C_l$ -->
     <defs>
      <path d="M 68.90625 66.40625 
L 65.203125 46.40625 
L 63.40625 46.703125 
Q 61.59375 63 48.5 63 
Q 37.59375 63 28.59375 53.296875 
Q 23.296875 47.703125 20.546875 39.703125 
Q 17.796875 31.703125 17.796875 23.203125 
Q 17.796875 2.703125 35.296875 2.703125 
Q 41.5 2.703125 46.640625 5.296875 
Q 51.796875 7.90625 58.203125 14.59375 
L 60 13.09375 
Q 53.296875 5.203125 46.84375 1.703125 
Q 40.40625 -1.796875 32.703125 -1.796875 
Q 21 -1.796875 13.796875 5.140625 
Q 6.59375 12.09375 6.59375 24.296875 
Q 6.59375 34.59375 11.6875 43.9375 
Q 16.796875 53.296875 25.296875 59.296875 
Q 35.5 66.59375 47.203125 66.59375 
Q 54.09375 66.59375 58.90625 64.90625 
Q 60.90625 64.203125 63 64.203125 
Q 65.703125 64.203125 66.796875 66.40625 
z
" id="STIXGeneral-Italic-67"/>
      <path d="M 27.90625 67.796875 
L 12.59375 9.296875 
Q 11.796875 6.40625 11.796875 5 
Q 11.796875 3.203125 13.5 3.203125 
Q 16.203125 3.203125 20.203125 8.90625 
L 22.703125 12.40625 
L 24.09375 11.40625 
Q 19.59375 4.296875 16.34375 1.59375 
Q 13.09375 -1.09375 9 -1.09375 
Q 4.09375 -1.09375 4.09375 4.5 
Q 4.09375 6.203125 4.5 7.5 
L 18.203125 59.90625 
Q 18.5 60.90625 18.5 61.796875 
Q 18.5 64 13.59375 64 
L 11.796875 64 
L 11.796875 65.59375 
Q 18.796875 66.40625 27.296875 68.296875 
z
" id="STIXGeneral-Italic-108"/>
     </defs>
     <g transform="translate(178.371562 249.909171)rotate(-90)scale(0.14 -0.14)">
      <use transform="translate(0 0.40625)" xlink:href="#STIXGeneral-Italic-67"/>
      <use transform="translate(66.699997 -12.821875)scale(0.7)" xlink:href="#STIXGeneral-Italic-108"/>
     </g>
    </g>
   </g>
   <g id="line2d_11">
    <path clip-path="url(#p4792bb7676)" d="M 216.447926 282.557563 
L 217.343779 281.47704 
L 217.791705 280.43912 
L 218.239631 278.8869 
L 218.986175 275.267713 
L 219.882028 270.948788 
L 220.479263 269.072928 
L 221.076498 267.965694 
L 221.673733 267.33608 
L 222.420276 266.890372 
L 223.614747 266.489537 
L 227.347465 265.630811 
L 230.482949 264.767458 
L 234.215668 263.675483 
L 234.663594 263.769825 
L 235.111521 264.084785 
L 235.559447 264.746277 
L 236.007373 265.874212 
L 236.604608 268.203288 
L 237.948387 274.004904 
L 238.545622 275.431443 
L 239.142857 276.184019 
L 239.740092 276.541373 
L 240.486636 276.707622 
L 241.23318 276.755714 
L 244.219355 276.681289 
L 260.195392 276.141805 
L 260.941935 276.117014 
L 270.348387 275.919707 
L 271.094931 275.899513 
L 280.352074 275.756112 
L 280.949309 275.743953 
L 287.96682 275.648906 
L 322.009217 275.251689 
L 322.75576 275.023583 
L 323.203687 274.73514 
L 323.651613 274.212051 
L 324.099539 273.285636 
L 324.547465 271.680974 
L 324.995392 268.976694 
L 325.443318 264.68472 
L 325.891244 258.487936 
L 326.936406 239.381215 
L 327.682949 228.34232 
L 328.280184 223.031715 
L 328.877419 220.006281 
L 329.474654 218.2665 
L 330.221198 216.918027 
L 331.714286 214.842142 
L 332.759447 213.596706 
L 333.058065 213.450759 
L 333.356682 213.538498 
L 333.6553 213.958042 
L 333.953917 214.810828 
L 334.401843 217.183445 
L 334.84977 221.11725 
L 335.745622 232.140425 
L 336.641475 242.146042 
L 337.388018 247.947095 
L 338.582488 255.051635 
L 344.106912 285.17415 
L 344.853456 288.100344 
L 345.749309 290.640446 
L 346.79447 292.934059 
L 347.98894 295.111864 
L 349.034101 296.664586 
L 349.929954 297.660343 
L 350.527189 298.016474 
L 350.975115 297.970211 
L 351.273733 297.692089 
L 351.57235 297.10901 
L 352.020276 295.407045 
L 352.468203 292.311418 
L 352.916129 287.475241 
L 353.662673 276.293344 
L 354.707834 260.936683 
L 355.454378 253.271823 
L 356.200922 247.783779 
L 357.096774 242.923535 
L 357.992627 239.297299 
L 358.739171 237.036281 
L 359.336406 235.866435 
L 359.635023 235.574455 
L 359.933641 235.582831 
L 360.232258 235.963878 
L 360.530876 236.877041 
L 360.829493 238.480024 
L 361.277419 242.595711 
L 361.725346 249.110087 
L 362.621198 266.973311 
L 363.367742 279.866625 
L 363.964977 285.94144 
L 364.412903 288.438155 
L 364.860829 289.821793 
L 365.308756 290.488545 
L 365.756682 290.788042 
L 366.204608 290.87378 
L 367.100461 290.752715 
L 383.97235 285.460505 
L 387.854378 284.571036 
L 392.333641 283.783479 
L 395.917051 283.347282 
L 400.993548 282.968404 
L 407.563134 282.789899 
L 412.78894 282.798641 
L 422.195392 282.99438 
L 466.390783 283.791346 
L 500.881106 283.88531 
L 514.76682 283.879077 
L 514.76682 283.879077 
" style="fill:none;stroke:#1f77b4;stroke-linecap:square;stroke-width:3;"/>
   </g>
   <g id="line2d_12">
    <path clip-path="url(#p4792bb7676)" d="M 216.447926 282.763349 
L 217.493088 282.062439 
L 217.941014 281.450003 
L 218.538249 280.211281 
L 220.180645 276.255689 
L 220.77788 275.482088 
L 221.524424 274.942927 
L 222.420276 274.606916 
L 224.211982 274.229676 
L 228.243318 273.396126 
L 230.632258 272.665446 
L 234.962212 271.132366 
L 235.410138 271.253668 
L 235.858065 271.599273 
L 236.305991 272.218017 
L 237.052535 273.723193 
L 237.948387 275.399845 
L 238.545622 276.037347 
L 239.142857 276.362513 
L 240.337327 276.493185 
L 242.42765 276.389423 
L 249.146544 276.024011 
L 250.042396 275.975962 
L 256.611982 275.760024 
L 257.507834 275.726254 
L 268.705991 275.500576 
L 289.011982 275.46976 
L 313.797235 276.428169 
L 319.918894 276.822183 
L 323.352995 276.856603 
L 324.099539 276.579352 
L 324.547465 276.215465 
L 325.1447 275.221594 
L 325.592627 273.984769 
L 326.189862 271.585429 
L 327.533641 265.580088 
L 328.130876 263.953067 
L 328.728111 262.965235 
L 329.474654 262.224062 
L 330.967742 261.238629 
L 332.610138 260.31385 
L 333.207373 260.184885 
L 333.6553 260.298416 
L 334.103226 260.690904 
L 334.551152 261.495821 
L 335.148387 263.206365 
L 336.940092 269.164673 
L 337.985253 271.584432 
L 343.957604 284.04825 
L 344.704147 285.066767 
L 345.301382 285.563929 
L 346.047926 285.90847 
L 347.093088 286.105919 
L 348.138249 286.085908 
L 349.332719 285.826437 
L 350.37788 285.385653 
L 351.124424 284.862386 
L 351.721659 284.148999 
L 352.169585 283.313754 
L 352.76682 281.577817 
L 353.513364 278.396923 
L 354.707834 273.155731 
L 355.454378 270.812639 
L 356.35023 268.77569 
L 357.246083 267.241273 
L 358.291244 265.893015 
L 359.187097 265.073924 
L 359.784332 264.786007 
L 360.232258 264.831229 
L 360.530876 265.052991 
L 360.829493 265.488729 
L 361.277419 266.680246 
L 361.725346 268.628938 
L 362.471889 273.131555 
L 363.218433 277.419937 
L 363.815668 279.603823 
L 364.263594 280.538072 
L 364.711521 281.062044 
L 365.159447 281.322876 
L 365.756682 281.427662 
L 366.951152 281.275885 
L 369.190783 280.685762 
L 371.878341 279.993824 
L 375.760369 279.296526 
L 378.597235 279.007683 
L 381.882028 278.875115 
L 385.465438 278.956015 
L 390.243318 279.299913 
L 397.559447 280.066786 
L 409.653456 281.265499 
L 418.164055 281.866708 
L 429.660829 282.401263 
L 443.546544 282.781258 
L 465.047005 283.088321 
L 499.089401 283.301574 
L 514.76682 283.349983 
L 514.76682 283.349983 
" style="fill:none;stroke:#ff7f0e;stroke-linecap:square;stroke-width:3;"/>
   </g>
   <g id="line2d_13">
    <path clip-path="url(#p4792bb7676)" d="M 216.447926 282.867709 
L 217.642396 282.417991 
L 218.239631 281.905213 
L 219.135484 280.736214 
L 220.031336 279.629296 
L 220.77788 279.072893 
L 221.673733 278.726249 
L 223.316129 278.413588 
L 227.646083 277.60865 
L 229.736406 276.971407 
L 231.976037 276.020983 
L 235.260829 274.477799 
L 235.858065 274.481868 
L 236.604608 274.825873 
L 238.247005 275.987333 
L 238.993548 276.150166 
L 240.188018 276.148019 
L 248.549309 275.638832 
L 258.254378 275.522022 
L 266.018433 275.895554 
L 267.212903 275.992141 
L 277.365899 277.18447 
L 278.709677 277.385515 
L 279.456221 277.46972 
L 284.084793 278.113615 
L 293.192627 279.127389 
L 297.671889 279.435864 
L 302.001843 279.624501 
L 308.870046 279.787887 
L 309.61659 279.769029 
L 314.543779 279.77692 
L 322.75576 279.637467 
L 324.099539 279.475659 
L 324.846083 279.220697 
L 325.443318 278.818711 
L 326.189862 277.956445 
L 327.235023 276.386086 
L 328.130876 275.298292 
L 329.176037 274.382839 
L 330.818433 273.218048 
L 332.460829 272.276963 
L 333.356682 271.985384 
L 333.953917 271.977057 
L 334.551152 272.200485 
L 335.148387 272.67213 
L 340.374194 278.004458 
L 344.40553 282.157439 
L 345.152074 282.553719 
L 346.047926 282.773369 
L 347.242396 282.805564 
L 348.586175 282.595223 
L 350.079263 282.1211 
L 351.273733 281.588215 
L 352.169585 280.994214 
L 352.916129 280.237685 
L 355.006452 277.811689 
L 355.752995 277.361299 
L 356.798157 277.062418 
L 357.992627 277.02602 
L 359.037788 277.185685 
L 359.933641 277.504955 
L 360.530876 277.911761 
L 361.128111 278.616036 
L 361.725346 279.743259 
L 363.815668 284.461499 
L 364.412903 285.085207 
L 365.159447 285.541772 
L 366.204608 285.896777 
L 367.996313 286.229094 
L 370.83318 286.489407 
L 374.117972 286.534492 
L 377.552074 286.343688 
L 382.180645 285.81867 
L 389.198157 285.027958 
L 399.948387 284.154131 
L 411.146544 283.406107 
L 420.851613 282.992208 
L 432.647005 282.722123 
L 449.817512 282.575966 
L 484.307834 282.545605 
L 514.76682 282.572903 
L 514.76682 282.572903 
" style="fill:none;stroke:#2ca02c;stroke-linecap:square;stroke-width:3;"/>
   </g>
   <g id="line2d_14">
    <path clip-path="url(#p4792bb7676)" d="M 216 282.979219 
L 514.617512 282.979219 
" style="fill:none;stroke:#000000;stroke-dasharray:3.2,0.8,0.5,0.8;stroke-dashoffset:0;stroke-width:0.5;"/>
   </g>
   <g id="line2d_15">
    <path clip-path="url(#p4792bb7676)" d="M 365.308756 343.078341 
L 365.308756 144 
" style="fill:none;stroke:#000000;stroke-linecap:square;stroke-width:0.5;"/>
   </g>
   <g id="line2d_16">
    <path clip-path="url(#p4792bb7676)" d="M 395.170507 343.078341 
L 395.170507 144 
" style="fill:none;stroke:#000000;stroke-dasharray:3.2,0.8,0.5,0.8;stroke-dashoffset:0;stroke-opacity:0.25;stroke-width:0.5;"/>
   </g>
   <g id="line2d_17">
    <path clip-path="url(#p4792bb7676)" d="M 425.032258 343.078341 
L 425.032258 144 
" style="fill:none;stroke:#000000;stroke-dasharray:3.2,0.8,0.5,0.8;stroke-dashoffset:0;stroke-opacity:0.25;stroke-width:0.5;"/>
   </g>
   <g id="patch_3">
    <path d="M 216 343.078341 
L 216 144 
" style="fill:none;stroke:#000000;stroke-linecap:square;stroke-linejoin:miter;stroke-width:0.8;"/>
   </g>
   <g id="patch_4">
    <path d="M 514.617512 343.078341 
L 514.617512 144 
" style="fill:none;stroke:#000000;stroke-linecap:square;stroke-linejoin:miter;stroke-width:0.8;"/>
   </g>
   <g id="patch_5">
    <path d="M 216 343.078341 
L 514.617512 343.078341 
" style="fill:none;stroke:#000000;stroke-linecap:square;stroke-linejoin:miter;stroke-width:0.8;"/>
   </g>
   <g id="patch_6">
    <path d="M 216 144 
L 514.617512 144 
" style="fill:none;stroke:#000000;stroke-linecap:square;stroke-linejoin:miter;stroke-width:0.8;"/>
   </g>
  </g>
  <g id="axes_2">
   <g id="patch_7">
    <path d="M 565.382488 343.078341 
L 864 343.078341 
L 864 144 
L 565.382488 144 
z
" style="fill:#ffffff;"/>
   </g>
   <g id="matplotlib.axis_3">
    <g id="xtick_6">
     <g id="line2d_18">
      <g>
       <use style="fill:#ffffff;stroke:#000000;stroke-width:0.8;" x="565.382488" xlink:href="#m18bfbac0da" y="343.078341"/>
      </g>
     </g>
    </g>
    <g id="xtick_7">
     <g id="line2d_19">
      <g>
       <use style="fill:#ffffff;stroke:#000000;stroke-width:0.8;" x="640.036866" xlink:href="#m18bfbac0da" y="343.078341"/>
      </g>
     </g>
    </g>
    <g id="xtick_8">
     <g id="line2d_20">
      <g>
       <use style="fill:#ffffff;stroke:#000000;stroke-width:0.8;" x="714.691244" xlink:href="#m18bfbac0da" y="343.078341"/>
      </g>
     </g>
    </g>
    <g id="xtick_9">
     <g id="line2d_21">
      <g>
       <use style="fill:#ffffff;stroke:#000000;stroke-width:0.8;" x="789.345622" xlink:href="#m18bfbac0da" y="343.078341"/>
      </g>
     </g>
    </g>
    <g id="xtick_10">
     <g id="line2d_22">
      <g>
       <use style="fill:#ffffff;stroke:#000000;stroke-width:0.8;" x="864" xlink:href="#m18bfbac0da" y="343.078341"/>
      </g>
     </g>
    </g>
   </g>
   <g id="matplotlib.axis_4">
    <g id="ytick_6">
     <g id="line2d_23">
      <g>
       <use style="fill:#ffffff;stroke:#000000;stroke-width:0.8;" x="565.382488" xlink:href="#m39d160ac97" y="320.54117"/>
      </g>
     </g>
    </g>
    <g id="ytick_7">
     <g id="line2d_24">
      <g>
       <use style="fill:#ffffff;stroke:#000000;stroke-width:0.8;" x="565.382488" xlink:href="#m39d160ac97" y="282.979219"/>
      </g>
     </g>
    </g>
    <g id="ytick_8">
     <g id="line2d_25">
      <g>
       <use style="fill:#ffffff;stroke:#000000;stroke-width:0.8;" x="565.382488" xlink:href="#m39d160ac97" y="245.417268"/>
      </g>
     </g>
    </g>
    <g id="ytick_9">
     <g id="line2d_26">
      <g>
       <use style="fill:#ffffff;stroke:#000000;stroke-width:0.8;" x="565.382488" xlink:href="#m39d160ac97" y="207.855317"/>
      </g>
     </g>
    </g>
    <g id="ytick_10">
     <g id="line2d_27">
      <g>
       <use style="fill:#ffffff;stroke:#000000;stroke-width:0.8;" x="565.382488" xlink:href="#m39d160ac97" y="170.293366"/>
      </g>
     </g>
    </g>
    <g id="text_7">
     <!-- $C_d$ -->
     <defs>
      <path d="M 52.09375 68.296875 
L 52.703125 67.703125 
L 48.796875 52.5 
L 42.796875 30.59375 
Q 36.296875 6.703125 36.296875 6 
Q 36.296875 4 38.09375 4 
Q 39.40625 4 40.84375 5.25 
Q 42.296875 6.5 46.296875 11.09375 
L 47.5 10.09375 
Q 39.796875 -1.296875 32.796875 -1.296875 
Q 30.90625 -1.296875 29.796875 -0.09375 
Q 28.703125 1.09375 28.703125 3.203125 
Q 28.703125 6.203125 30 12.09375 
Q 25.703125 4.796875 21.546875 1.84375 
Q 17.40625 -1.09375 12.203125 -1.09375 
Q 7.203125 -1.09375 4.34375 1.953125 
Q 1.5 5 1.5 10.59375 
Q 1.5 22.5 11.140625 33.296875 
Q 20.796875 44.09375 30.703125 44.09375 
Q 33.796875 44.09375 35.25 42.6875 
Q 36.703125 41.296875 37.203125 38.296875 
L 37.296875 38.296875 
L 41.796875 54.59375 
Q 43.203125 59.5 43.203125 61.703125 
Q 43.203125 63.296875 42.09375 63.6875 
Q 41 64.09375 36.796875 64.296875 
L 36.796875 66 
Q 44.5 66.703125 52.09375 68.296875 
z
M 35.59375 36.09375 
Q 35.59375 38.703125 34.140625 40.25 
Q 32.703125 41.796875 30.90625 41.796875 
Q 26.203125 41.796875 21.796875 37.203125 
Q 16.796875 31.90625 13.5 24.546875 
Q 10.203125 17.203125 10.203125 11 
Q 10.203125 7.59375 11.75 5.640625 
Q 13.296875 3.703125 16 3.703125 
Q 20.5 3.703125 25.09375 8.59375 
Q 29.703125 13.5 32.640625 21.09375 
Q 35.59375 28.703125 35.59375 36.09375 
z
" id="STIXGeneral-Italic-100"/>
     </defs>
     <g transform="translate(551.344051 251.029171)rotate(-90)scale(0.14 -0.14)">
      <use transform="translate(0 0.40625)" xlink:href="#STIXGeneral-Italic-67"/>
      <use transform="translate(66.699997 -12.821875)scale(0.7)" xlink:href="#STIXGeneral-Italic-100"/>
     </g>
    </g>
   </g>
   <g id="line2d_28">
    <path clip-path="url(#p7ed7b7199e)" d="M 565.830415 282.531067 
L 566.726267 281.399012 
L 567.174194 280.305029 
L 567.62212 278.663383 
L 568.368664 274.801278 
L 569.413825 269.444235 
L 570.01106 267.504368 
L 570.608295 266.289248 
L 571.354839 265.364141 
L 572.250691 264.664867 
L 573.59447 263.92805 
L 576.431336 262.675733 
L 583.598157 259.755332 
L 584.046083 259.83534 
L 584.494009 260.15118 
L 584.941935 260.83611 
L 585.389862 262.018324 
L 585.987097 264.484335 
L 587.330876 270.795931 
L 587.928111 272.457304 
L 588.525346 273.416645 
L 589.122581 273.950447 
L 589.869124 274.302102 
L 590.615668 274.506353 
L 592.556682 274.791476 
L 596.43871 275.081956 
L 605.845161 275.417273 
L 622.866359 275.66042 
L 634.213825 275.738455 
L 651.533641 275.7893 
L 671.541014 275.657426 
L 672.287558 275.386225 
L 672.884793 274.861174 
L 673.332719 274.090903 
L 673.780645 272.736796 
L 674.228571 270.438001 
L 674.676498 266.703871 
L 675.124424 261.071891 
L 675.721659 250.707651 
L 676.916129 228.759922 
L 677.662673 219.635251 
L 678.558525 211.940587 
L 680.200922 198.288403 
L 681.246083 187.113259 
L 683.635023 159.573996 
L 683.933641 158.366884 
L 684.082949 158.219256 
L 684.232258 158.413806 
L 684.530876 159.646762 
L 684.978802 163.136134 
L 686.023963 172.132061 
L 686.471889 174.307772 
L 686.919816 175.526871 
L 687.367742 176.107272 
L 688.114286 176.475847 
L 689.159447 176.789885 
L 689.905991 177.347219 
L 690.353917 177.887284 
L 690.951152 178.929172 
L 691.548387 180.624346 
L 692.145622 183.331985 
L 692.742857 187.828321 
L 693.340092 194.404679 
L 695.430415 220.703953 
L 696.326267 227.303811 
L 697.371429 233.201716 
L 700.506912 249.293779 
L 701.104147 254.779223 
L 701.552074 260.768876 
L 702.149309 272.161385 
L 704.090323 315.197798 
L 704.687558 321.947322 
L 705.284793 326.233806 
L 706.031336 329.747148 
L 706.77788 332.249728 
L 707.97235 335.339944 
L 708.718894 336.794725 
L 709.16682 337.303547 
L 709.465438 337.314183 
L 709.764055 336.939814 
L 710.062673 336.028964 
L 710.36129 334.376593 
L 710.809217 330.049644 
L 711.406452 320.621705 
L 712.75023 296.051725 
L 713.347465 289.836381 
L 713.795392 287.145507 
L 714.243318 285.530694 
L 714.691244 284.624557 
L 715.139171 284.091835 
L 715.736406 283.718178 
L 716.482949 283.505714 
L 718.274654 283.436535 
L 720.066359 283.516444 
L 724.396313 284.084654 
L 733.653456 285.393727 
L 737.684793 285.641975 
L 741.716129 285.677615 
L 745.598157 285.52449 
L 753.362212 284.920074 
L 762.470046 284.059631 
L 773.369585 283.174852 
L 781.133641 282.708526 
L 792.331797 282.251214 
L 804.276498 281.966728 
L 820.103226 281.792307 
L 853.24977 281.74404 
L 864.149309 281.766858 
L 864.149309 281.766858 
" style="fill:none;stroke:#1f77b4;stroke-linecap:square;stroke-width:3;"/>
   </g>
   <g id="line2d_29">
    <path clip-path="url(#p7ed7b7199e)" d="M 565.830415 282.744792 
L 566.875576 281.996238 
L 567.323502 281.33712 
L 567.920737 279.994723 
L 569.712442 275.246973 
L 570.309677 274.37356 
L 571.056221 273.686635 
L 572.101382 273.093495 
L 573.893088 272.392788 
L 580.462673 269.973367 
L 583.896774 268.58105 
L 584.494009 268.602627 
L 584.941935 268.832237 
L 585.389862 269.328064 
L 585.987097 270.465867 
L 587.629493 273.960434 
L 588.226728 274.592185 
L 588.823963 274.938741 
L 589.719816 275.195858 
L 591.362212 275.385976 
L 596.886636 275.598241 
L 617.491244 275.809 
L 636.304147 275.922745 
L 636.901382 275.903899 
L 642.425806 275.970464 
L 650.637788 276.127797 
L 656.311521 276.295545 
L 656.908756 276.284941 
L 671.98894 276.705127 
L 673.034101 276.513018 
L 673.631336 276.180012 
L 674.079263 275.679018 
L 674.527189 274.866113 
L 674.975115 273.577617 
L 675.57235 271.06372 
L 677.364055 262.659104 
L 678.259908 259.978617 
L 679.902304 255.337121 
L 680.947465 251.640901 
L 682.291244 245.970031 
L 683.485714 241.258727 
L 683.933641 240.252351 
L 684.232258 239.96299 
L 684.530876 239.98012 
L 684.978802 240.507216 
L 686.173272 242.308415 
L 686.770507 242.660853 
L 687.517051 242.778071 
L 689.010138 242.956442 
L 689.905991 243.327552 
L 690.652535 243.889574 
L 691.399078 244.853117 
L 691.847005 245.759417 
L 692.294931 247.032686 
L 692.892166 249.638017 
L 693.489401 253.353084 
L 694.982488 263.914282 
L 695.729032 267.62515 
L 696.624885 270.924447 
L 697.670046 273.975985 
L 699.163134 277.540882 
L 700.954839 281.91347 
L 701.552074 284.165977 
L 702.149309 287.333841 
L 704.090323 298.874626 
L 704.687558 300.712675 
L 705.284793 301.887748 
L 706.031336 302.875868 
L 707.076498 303.862795 
L 708.868203 305.155231 
L 709.465438 305.32011 
L 709.913364 305.152193 
L 710.211982 304.803011 
L 710.659908 303.760022 
L 711.107834 301.964664 
L 711.854378 297.651336 
L 712.75023 292.763607 
L 713.347465 290.825082 
L 713.795392 289.997841 
L 714.392627 289.416136 
L 714.989862 289.186223 
L 715.736406 289.13555 
L 717.229493 289.315451 
L 721.858065 290.028332 
L 724.993548 290.174178 
L 727.979724 290.041951 
L 731.115207 289.680399 
L 734.997235 288.997239 
L 752.914286 285.533135 
L 759.035945 284.725668 
L 765.456221 284.098461 
L 773.070968 283.575969 
L 782.776037 283.143015 
L 796.064516 282.795334 
L 814.728111 282.539386 
L 845.933641 282.356658 
L 864.149309 282.315493 
L 864.149309 282.315493 
" style="fill:none;stroke:#ff7f0e;stroke-linecap:square;stroke-width:3;"/>
   </g>
   <g id="line2d_30">
    <path clip-path="url(#p7ed7b7199e)" d="M 565.830415 282.854527 
L 566.875576 282.461251 
L 567.472811 281.962163 
L 568.219355 280.950933 
L 569.563134 278.970788 
L 570.309677 278.299422 
L 571.20553 277.807142 
L 572.698618 277.287682 
L 579.865438 274.998762 
L 582.552995 273.782046 
L 583.448848 273.349377 
L 584.494009 273.012643 
L 585.091244 273.038187 
L 585.688479 273.322021 
L 586.435023 274.051337 
L 587.330876 274.939163 
L 588.077419 275.39653 
L 589.570507 275.696594 
L 592.556682 275.804306 
L 597.035945 275.846335 
L 605.397235 275.907267 
L 606.591705 275.921968 
L 623.911521 276.683557 
L 634.661751 277.397433 
L 648.248848 277.847937 
L 649.1447 277.84489 
L 653.474654 277.881909 
L 658.103226 277.920831 
L 658.84977 277.919292 
L 673.034101 277.981276 
L 673.929954 277.79948 
L 674.676498 277.406873 
L 675.273733 276.810772 
L 676.020276 275.72963 
L 677.513364 273.46104 
L 680.35023 269.527156 
L 681.694009 267.159491 
L 683.635023 263.670457 
L 684.232258 262.999419 
L 684.829493 262.677972 
L 686.023963 262.488586 
L 687.666359 262.028754 
L 688.860829 261.83313 
L 689.756682 261.855311 
L 690.652535 262.088716 
L 691.399078 262.522076 
L 691.996313 263.152107 
L 692.593548 264.211446 
L 693.190783 265.870043 
L 695.878341 275.39696 
L 697.072811 277.992646 
L 698.565899 280.51314 
L 699.909677 282.318699 
L 701.701382 284.666677 
L 703.045161 287.123882 
L 703.791705 288.251873 
L 704.38894 288.790415 
L 705.135484 289.134485 
L 706.180645 289.271723 
L 708.868203 289.154896 
L 709.764055 288.914119 
L 710.36129 288.470908 
L 710.809217 287.875917 
L 711.406452 286.658557 
L 713.048848 282.906505 
L 713.646083 282.14633 
L 714.392627 281.560225 
L 715.437788 281.081353 
L 716.930876 280.674671 
L 719.170507 280.326948 
L 721.111521 280.179823 
L 723.948387 280.183318 
L 726.934562 280.431769 
L 730.667281 280.998889 
L 737.684793 282.088343 
L 743.358525 282.670392 
L 752.764977 283.395012 
L 760.230415 283.750205 
L 768.442396 283.906622 
L 779.789862 283.88334 
L 854.892166 283.331047 
L 864.149309 283.308707 
L 864.149309 283.308707 
" style="fill:none;stroke:#2ca02c;stroke-linecap:square;stroke-width:3;"/>
   </g>
   <g id="line2d_31">
    <path clip-path="url(#p7ed7b7199e)" d="M 565.382488 282.979219 
L 864 282.979219 
" style="fill:none;stroke:#000000;stroke-dasharray:3.2,0.8,0.5,0.8;stroke-dashoffset:0;stroke-width:0.5;"/>
   </g>
   <g id="line2d_32">
    <path clip-path="url(#p7ed7b7199e)" d="M 714.691244 343.078341 
L 714.691244 144 
" style="fill:none;stroke:#000000;stroke-linecap:square;stroke-width:0.5;"/>
   </g>
   <g id="line2d_33">
    <path clip-path="url(#p7ed7b7199e)" d="M 744.552995 343.078341 
L 744.552995 144 
" style="fill:none;stroke:#000000;stroke-dasharray:3.2,0.8,0.5,0.8;stroke-dashoffset:0;stroke-opacity:0.25;stroke-width:0.5;"/>
   </g>
   <g id="line2d_34">
    <path clip-path="url(#p7ed7b7199e)" d="M 774.414747 343.078341 
L 774.414747 144 
" style="fill:none;stroke:#000000;stroke-dasharray:3.2,0.8,0.5,0.8;stroke-dashoffset:0;stroke-opacity:0.25;stroke-width:0.5;"/>
   </g>
   <g id="patch_8">
    <path d="M 565.382488 343.078341 
L 565.382488 144 
" style="fill:none;stroke:#000000;stroke-linecap:square;stroke-linejoin:miter;stroke-width:0.8;"/>
   </g>
   <g id="patch_9">
    <path d="M 864 343.078341 
L 864 144 
" style="fill:none;stroke:#000000;stroke-linecap:square;stroke-linejoin:miter;stroke-width:0.8;"/>
   </g>
   <g id="patch_10">
    <path d="M 565.382488 343.078341 
L 864 343.078341 
" style="fill:none;stroke:#000000;stroke-linecap:square;stroke-linejoin:miter;stroke-width:0.8;"/>
   </g>
   <g id="patch_11">
    <path d="M 565.382488 144 
L 864 144 
" style="fill:none;stroke:#000000;stroke-linecap:square;stroke-linejoin:miter;stroke-width:0.8;"/>
   </g>
   <g id="text_8">
    <!-- $Re = 10^2$ -->
    <defs>
     <path d="M 13.203125 65.296875 
L 38.40625 65.296875 
Q 48.09375 65.296875 53.4375 61.5 
Q 58.796875 57.703125 58.796875 51.203125 
Q 58.796875 43.40625 52.203125 38.40625 
Q 48.296875 35.40625 39.09375 33.296875 
L 48 9.796875 
Q 49.703125 5.203125 51.546875 3.390625 
Q 53.40625 1.59375 56.703125 1.59375 
L 56.703125 0 
L 42 0 
L 29.703125 32.40625 
L 23.09375 32.90625 
L 17.59375 12.59375 
Q 16.296875 8 16.296875 6.296875 
Q 16.296875 4 17.59375 3 
Q 18.90625 2 23 1.59375 
L 23 0 
L -1.296875 0 
L -1.296875 1.59375 
Q 2.703125 2.09375 4.34375 3.796875 
Q 6 5.5 7.203125 10.09375 
L 19.09375 53.203125 
Q 20.296875 57.796875 20.296875 59.5 
Q 20.296875 61.296875 18.90625 62.296875 
Q 17.703125 63.09375 13.203125 63.703125 
z
M 30.59375 59.296875 
L 24.296875 36.59375 
Q 27.40625 36.09375 29.40625 36.09375 
Q 38.296875 36.09375 43.296875 40.09375 
Q 48.296875 44.09375 48.296875 51.09375 
Q 48.296875 56.296875 45.1875 59.296875 
Q 42.09375 62.296875 36.296875 62.296875 
Q 31.40625 62.296875 30.59375 59.296875 
z
" id="STIXGeneral-Italic-82"/>
     <path d="M 35.796875 10.90625 
L 37 9.703125 
Q 28.203125 -1.09375 16.59375 -1.09375 
Q 10.5 -1.09375 6.796875 2.65625 
Q 3.09375 6.40625 3.09375 12.59375 
Q 3.09375 24.296875 12.4375 34.1875 
Q 21.796875 44.09375 33 44.09375 
Q 36.90625 44.09375 39.046875 42.296875 
Q 41.203125 40.5 41.203125 37.296875 
Q 41.203125 30.703125 33.546875 25.5 
Q 25.90625 20.296875 12.796875 18.59375 
Q 11.796875 16.59375 11.796875 12.5 
Q 11.796875 8.40625 14.34375 5.90625 
Q 16.90625 3.40625 21.09375 3.40625 
Q 24.40625 3.40625 27.40625 4.953125 
Q 30.40625 6.5 35.796875 10.90625 
z
M 15.203125 25.203125 
L 13.5 20.796875 
Q 24.703125 23.5 29.59375 28.203125 
Q 34.59375 33 34.59375 37.90625 
Q 34.59375 41.796875 31.09375 41.796875 
Q 26.90625 41.796875 22.34375 36.9375 
Q 17.796875 32.09375 15.203125 25.203125 
z
" id="STIXGeneral-Italic-101"/>
     <path d="M 63.703125 32 
L 4.796875 32 
L 4.796875 38.59375 
L 63.703125 38.59375 
z
M 63.703125 12 
L 4.796875 12 
L 4.796875 18.59375 
L 63.703125 18.59375 
z
" id="STIXGeneral-Regular-61"/>
    </defs>
    <g transform="translate(875.754101 246.800733)scale(0.14 -0.14)">
     <use transform="translate(0 0.409375)" xlink:href="#STIXGeneral-Italic-82"/>
     <use transform="translate(61.099991 0.409375)" xlink:href="#STIXGeneral-Italic-101"/>
     <use transform="translate(119.939981 0.409375)" xlink:href="#STIXGeneral-Regular-61"/>
     <use transform="translate(202.879962 0.409375)" xlink:href="#STIXGeneral-Regular-49"/>
     <use transform="translate(252.879947 0.409375)" xlink:href="#STIXGeneral-Regular-48"/>
     <use transform="translate(304.423213 35.684375)scale(0.7)" xlink:href="#STIXGeneral-Regular-50"/>
    </g>
   </g>
   <g id="legend_1">
    <g id="line2d_35">
     <path d="M 419.720593 122.743399 
L 443.044593 122.743399 
" style="fill:none;stroke:#1f77b4;stroke-linecap:square;stroke-width:3;"/>
    </g>
    <g id="line2d_36"/>
    <g id="text_9">
     <!-- $s/c = 1.5$ -->
     <defs>
      <path d="M 36.59375 44.203125 
L 34.59375 30.203125 
L 33 30.203125 
Q 31.59375 41.796875 24.09375 41.796875 
Q 21.40625 41.796875 19.796875 40.296875 
Q 18.203125 38.796875 18.203125 36.09375 
Q 18.203125 32.296875 23.59375 25.90625 
Q 30.40625 18 30.40625 12.296875 
Q 30.40625 6.203125 26.34375 2.546875 
Q 22.296875 -1.09375 16 -1.09375 
Q 13.09375 -1.09375 10.5 -0.09375 
Q 8.40625 0.796875 6.09375 0.796875 
Q 4.09375 0.796875 3.203125 -1.296875 
L 1.59375 -1.296875 
L 3.59375 14.59375 
L 5.203125 14.59375 
Q 7.203125 1 15.203125 1 
Q 18.796875 1 20.796875 3 
Q 22.796875 5 22.796875 8.703125 
Q 22.796875 13.203125 17.203125 20.203125 
Q 10.90625 28.09375 10.90625 33.296875 
Q 10.90625 38.296875 14.203125 41.1875 
Q 17.5 44.09375 23 44.09375 
Q 25 44.09375 28.59375 43.09375 
Q 30.796875 42.40625 32.203125 42.40625 
Q 34.203125 42.40625 35.203125 44.203125 
z
" id="STIXGeneral-Italic-115"/>
      <path d="M 28.703125 67.59375 
L 5.90625 -1.40625 
L -0.90625 -1.40625 
L 22 67.59375 
z
" id="STIXGeneral-Regular-47"/>
      <path d="M 35 10.703125 
L 36.59375 9.703125 
Q 32 3.90625 27.640625 1.40625 
Q 23.296875 -1.09375 17.703125 -1.09375 
Q 10.59375 -1.09375 6.796875 2.796875 
Q 3 6.703125 3 14.296875 
Q 3 21 6.390625 27.25 
Q 9.796875 33.5 15.296875 38 
Q 23 44.09375 32 44.09375 
Q 36.59375 44.09375 39.546875 41.796875 
Q 42.5 39.5 42.5 36 
Q 42.5 34 41.09375 32.59375 
Q 39.703125 31.203125 37.703125 31.203125 
Q 35.703125 31.203125 34.75 32.34375 
Q 33.796875 33.5 33.796875 35.203125 
Q 33.796875 36.09375 34.546875 37.546875 
Q 35.296875 39 35.296875 40 
Q 35.296875 42 31.59375 42 
Q 25.296875 42 20.703125 37.203125 
Q 11.59375 27.59375 11.59375 13.90625 
Q 11.59375 8.5 13.890625 5.5 
Q 16.203125 2.5 20.5 2.5 
Q 24.40625 2.5 27.59375 4.390625 
Q 30.796875 6.296875 35 10.703125 
z
" id="STIXGeneral-Italic-99"/>
      <path d="M 18.09375 4.296875 
Q 18.09375 2.09375 16.4375 0.5 
Q 14.796875 -1.09375 12.5 -1.09375 
Q 10.203125 -1.09375 8.59375 0.5 
Q 7 2.09375 7 4.390625 
Q 7 6.703125 8.640625 8.34375 
Q 10.296875 10 12.59375 10 
Q 14.796875 10 16.4375 8.296875 
Q 18.09375 6.59375 18.09375 4.296875 
z
" id="STIXGeneral-Regular-46"/>
      <path d="M 43.796875 68.09375 
L 40.203125 59.59375 
Q 39.59375 58.296875 37.5 58.296875 
L 18.09375 58.296875 
L 14.09375 49.796875 
Q 25.09375 47.703125 30 45.25 
Q 34.90625 42.796875 39.09375 37 
Q 42.59375 32.203125 42.59375 24.296875 
Q 42.59375 17.09375 40.25 12.1875 
Q 37.90625 7.296875 32.796875 3.5 
Q 26 -1.40625 15.796875 -1.40625 
Q 10.09375 -1.40625 6.59375 0.296875 
Q 3.09375 2 3.09375 4.796875 
Q 3.09375 8.59375 7.59375 8.59375 
Q 11.203125 8.59375 15 5.5 
Q 18.90625 2.296875 22.09375 2.296875 
Q 27.296875 2.296875 31.4375 7.5 
Q 35.59375 12.703125 35.59375 19.203125 
Q 35.59375 28.796875 28.90625 34.203125 
Q 20.203125 41.203125 7.59375 41.203125 
Q 6.40625 41.203125 6.40625 42 
L 6.5 42.5 
L 17.40625 66.203125 
L 38.09375 66.203125 
Q 39.796875 66.203125 40.75 66.703125 
Q 41.703125 67.203125 42.90625 68.796875 
z
" id="STIXGeneral-Regular-53"/>
     </defs>
     <g transform="translate(452.374193 126.825099)scale(0.11662 -0.11662)">
      <use transform="translate(0 0.203125)" xlink:href="#STIXGeneral-Italic-115"/>
      <use transform="translate(38.899994 0.203125)" xlink:href="#STIXGeneral-Regular-47"/>
      <use transform="translate(66.699982 0.203125)" xlink:href="#STIXGeneral-Italic-99"/>
      <use transform="translate(125.539972 0.203125)" xlink:href="#STIXGeneral-Regular-61"/>
      <use transform="translate(208.479953 0.203125)" xlink:href="#STIXGeneral-Regular-49"/>
      <use transform="translate(258.479938 0.203125)" xlink:href="#STIXGeneral-Regular-46"/>
      <use transform="translate(283.479922 0.203125)" xlink:href="#STIXGeneral-Regular-53"/>
     </g>
    </g>
    <g id="line2d_37">
     <path d="M 514.649273 122.743399 
L 537.973273 122.743399 
" style="fill:none;stroke:#ff7f0e;stroke-linecap:square;stroke-width:3;"/>
    </g>
    <g id="line2d_38"/>
    <g id="text_10">
     <!-- $s/c = 3.0$ -->
     <g transform="translate(547.302873 126.825099)scale(0.11662 -0.11662)">
      <use transform="translate(0 0.40625)" xlink:href="#STIXGeneral-Italic-115"/>
      <use transform="translate(38.899994 0.40625)" xlink:href="#STIXGeneral-Regular-47"/>
      <use transform="translate(66.699982 0.40625)" xlink:href="#STIXGeneral-Italic-99"/>
      <use transform="translate(125.539972 0.40625)" xlink:href="#STIXGeneral-Regular-61"/>
      <use transform="translate(208.479953 0.40625)" xlink:href="#STIXGeneral-Regular-51"/>
      <use transform="translate(258.479938 0.40625)" xlink:href="#STIXGeneral-Regular-46"/>
      <use transform="translate(283.479922 0.40625)" xlink:href="#STIXGeneral-Regular-48"/>
     </g>
    </g>
    <g id="line2d_39">
     <path d="M 609.577953 122.743399 
L 632.901953 122.743399 
" style="fill:none;stroke:#2ca02c;stroke-linecap:square;stroke-width:3;"/>
    </g>
    <g id="line2d_40"/>
    <g id="text_11">
     <!-- $s/c = 6.0$ -->
     <defs>
      <path d="M 44.59375 68.40625 
L 44.796875 66.796875 
Q 33 64.90625 25.09375 57.25 
Q 17.203125 49.59375 15.203125 38.296875 
Q 21 42.796875 27.90625 42.796875 
Q 36.703125 42.796875 41.75 37.1875 
Q 46.796875 31.59375 46.796875 21.90625 
Q 46.796875 12.09375 41.703125 5.90625 
Q 35.796875 -1.40625 25.796875 -1.40625 
Q 13.59375 -1.40625 8.09375 8.703125 
Q 3.40625 17.296875 3.40625 27.90625 
Q 3.40625 44.296875 14.296875 55.5 
Q 20.5 61.90625 27.046875 64.546875 
Q 33.59375 67.203125 44.59375 68.40625 
z
M 37.796875 18.796875 
Q 37.796875 38.203125 24.296875 38.203125 
Q 19.296875 38.203125 16 35.546875 
Q 12.703125 32.90625 12.703125 26.59375 
Q 12.703125 14.90625 16.34375 8.15625 
Q 20 1.40625 26.90625 1.40625 
Q 32.203125 1.40625 35 6.15625 
Q 37.796875 10.90625 37.796875 18.796875 
z
" id="STIXGeneral-Regular-54"/>
     </defs>
     <g transform="translate(642.231553 126.825099)scale(0.11662 -0.11662)">
      <use transform="translate(0 0.59375)" xlink:href="#STIXGeneral-Italic-115"/>
      <use transform="translate(38.899994 0.59375)" xlink:href="#STIXGeneral-Regular-47"/>
      <use transform="translate(66.699982 0.59375)" xlink:href="#STIXGeneral-Italic-99"/>
      <use transform="translate(125.539972 0.59375)" xlink:href="#STIXGeneral-Regular-61"/>
      <use transform="translate(208.479953 0.59375)" xlink:href="#STIXGeneral-Regular-54"/>
      <use transform="translate(258.479938 0.59375)" xlink:href="#STIXGeneral-Regular-46"/>
      <use transform="translate(283.479922 0.59375)" xlink:href="#STIXGeneral-Regular-48"/>
     </g>
    </g>
   </g>
  </g>
  <g id="axes_3">
   <g id="patch_12">
    <path d="M 216 576 
L 514.617512 576 
L 514.617512 376.921659 
L 216 376.921659 
z
" style="fill:#ffffff;"/>
   </g>
   <g id="matplotlib.axis_5">
    <g id="xtick_11">
     <g id="line2d_41">
      <g>
       <use style="fill:#ffffff;stroke:#000000;stroke-width:0.8;" x="216" xlink:href="#m18bfbac0da" y="576"/>
      </g>
     </g>
     <g id="text_12">
      <!-- 0.0 -->
      <g transform="translate(207.25 592.561563)scale(0.14 -0.14)">
       <use xlink:href="#STIXGeneral-Regular-48"/>
       <use x="49.999985" xlink:href="#STIXGeneral-Regular-46"/>
       <use x="74.999969" xlink:href="#STIXGeneral-Regular-48"/>
      </g>
     </g>
    </g>
    <g id="xtick_12">
     <g id="line2d_42">
      <g>
       <use style="fill:#ffffff;stroke:#000000;stroke-width:0.8;" x="290.654378" xlink:href="#m18bfbac0da" y="576"/>
      </g>
     </g>
     <g id="text_13">
      <!-- 0.5 -->
      <g transform="translate(281.904378 592.561563)scale(0.14 -0.14)">
       <use xlink:href="#STIXGeneral-Regular-48"/>
       <use x="49.999985" xlink:href="#STIXGeneral-Regular-46"/>
       <use x="74.999969" xlink:href="#STIXGeneral-Regular-53"/>
      </g>
     </g>
    </g>
    <g id="xtick_13">
     <g id="line2d_43">
      <g>
       <use style="fill:#ffffff;stroke:#000000;stroke-width:0.8;" x="365.308756" xlink:href="#m18bfbac0da" y="576"/>
      </g>
     </g>
     <g id="text_14">
      <!-- 1.0 -->
      <g transform="translate(356.558756 592.561563)scale(0.14 -0.14)">
       <use xlink:href="#STIXGeneral-Regular-49"/>
       <use x="49.999985" xlink:href="#STIXGeneral-Regular-46"/>
       <use x="74.999969" xlink:href="#STIXGeneral-Regular-48"/>
      </g>
     </g>
    </g>
    <g id="xtick_14">
     <g id="line2d_44">
      <g>
       <use style="fill:#ffffff;stroke:#000000;stroke-width:0.8;" x="439.963134" xlink:href="#m18bfbac0da" y="576"/>
      </g>
     </g>
     <g id="text_15">
      <!-- 1.5 -->
      <g transform="translate(431.213134 592.561563)scale(0.14 -0.14)">
       <use xlink:href="#STIXGeneral-Regular-49"/>
       <use x="49.999985" xlink:href="#STIXGeneral-Regular-46"/>
       <use x="74.999969" xlink:href="#STIXGeneral-Regular-53"/>
      </g>
     </g>
    </g>
    <g id="xtick_15">
     <g id="line2d_45">
      <g>
       <use style="fill:#ffffff;stroke:#000000;stroke-width:0.8;" x="514.617512" xlink:href="#m18bfbac0da" y="576"/>
      </g>
     </g>
     <g id="text_16">
      <!-- 2.0 -->
      <g transform="translate(505.867512 592.561563)scale(0.14 -0.14)">
       <use xlink:href="#STIXGeneral-Regular-50"/>
       <use x="49.999985" xlink:href="#STIXGeneral-Regular-46"/>
       <use x="74.999969" xlink:href="#STIXGeneral-Regular-48"/>
      </g>
     </g>
    </g>
    <g id="text_17">
     <!-- $\^t$ -->
     <defs>
      <path d="M -7.5 50.703125 
L -10.90625 50.703125 
L -23.09375 61 
L -35.203125 50.703125 
L -38.59375 50.703125 
L -26.203125 67.40625 
L -20 67.40625 
z
" id="STIXGeneral-Regular-770"/>
      <path d="M 29.59375 42.796875 
L 29.09375 39.59375 
L 20.703125 39.59375 
L 12 6.796875 
Q 11.796875 6 11.796875 5.40625 
Q 11.796875 3.796875 13.296875 3.796875 
Q 14.5 3.796875 16.09375 5.34375 
Q 17.703125 6.90625 21.40625 11.703125 
L 22.703125 11 
Q 18.09375 4 15.140625 1.453125 
Q 12.203125 -1.09375 8.40625 -1.09375 
Q 3.796875 -1.09375 3.796875 2.59375 
Q 3.796875 3.59375 5.40625 10 
L 13.203125 39.59375 
L 5.703125 39.59375 
L 5.59375 40.203125 
Q 5.59375 42 8.90625 42.703125 
Q 11.40625 43.296875 15.5 46.546875 
Q 19.59375 49.796875 22.203125 53.703125 
Q 22.796875 54.59375 23.59375 54.59375 
Q 24.5 54.59375 24.5 53.796875 
Q 24.5 53.296875 24.40625 53.09375 
L 21.59375 42.796875 
z
" id="STIXGeneral-Italic-116"/>
     </defs>
     <g transform="translate(363.348756 609.161563)scale(0.14 -0.14)">
      <use transform="translate(39.042969 16.59375)" xlink:href="#STIXGeneral-Regular-770"/>
      <use transform="translate(0 0.203125)" xlink:href="#STIXGeneral-Italic-116"/>
     </g>
    </g>
   </g>
   <g id="matplotlib.axis_6">
    <g id="ytick_11">
     <g id="line2d_46">
      <g>
       <use style="fill:#ffffff;stroke:#000000;stroke-width:0.8;" x="216" xlink:href="#m39d160ac97" y="553.462829"/>
      </g>
     </g>
     <g id="text_18">
      <!-- −10 -->
      <g transform="translate(185.41 558.243611)scale(0.14 -0.14)">
       <use xlink:href="#STIXGeneral-Regular-8722"/>
       <use x="68.499985" xlink:href="#STIXGeneral-Regular-49"/>
       <use x="118.499969" xlink:href="#STIXGeneral-Regular-48"/>
      </g>
     </g>
    </g>
    <g id="ytick_12">
     <g id="line2d_47">
      <g>
       <use style="fill:#ffffff;stroke:#000000;stroke-width:0.8;" x="216" xlink:href="#m39d160ac97" y="515.900878"/>
      </g>
     </g>
     <g id="text_19">
      <!-- 0 -->
      <g transform="translate(202 520.681659)scale(0.14 -0.14)">
       <use xlink:href="#STIXGeneral-Regular-48"/>
      </g>
     </g>
    </g>
    <g id="ytick_13">
     <g id="line2d_48">
      <g>
       <use style="fill:#ffffff;stroke:#000000;stroke-width:0.8;" x="216" xlink:href="#m39d160ac97" y="478.338927"/>
      </g>
     </g>
     <g id="text_20">
      <!-- 10 -->
      <g transform="translate(195 483.119708)scale(0.14 -0.14)">
       <use xlink:href="#STIXGeneral-Regular-49"/>
       <use x="49.999985" xlink:href="#STIXGeneral-Regular-48"/>
      </g>
     </g>
    </g>
    <g id="ytick_14">
     <g id="line2d_49">
      <g>
       <use style="fill:#ffffff;stroke:#000000;stroke-width:0.8;" x="216" xlink:href="#m39d160ac97" y="440.776976"/>
      </g>
     </g>
     <g id="text_21">
      <!-- 20 -->
      <g transform="translate(195 445.557757)scale(0.14 -0.14)">
       <use xlink:href="#STIXGeneral-Regular-50"/>
       <use x="49.999985" xlink:href="#STIXGeneral-Regular-48"/>
      </g>
     </g>
    </g>
    <g id="ytick_15">
     <g id="line2d_50">
      <g>
       <use style="fill:#ffffff;stroke:#000000;stroke-width:0.8;" x="216" xlink:href="#m39d160ac97" y="403.215025"/>
      </g>
     </g>
     <g id="text_22">
      <!-- 30 -->
      <g transform="translate(195 407.995806)scale(0.14 -0.14)">
       <use xlink:href="#STIXGeneral-Regular-51"/>
       <use x="49.999985" xlink:href="#STIXGeneral-Regular-48"/>
      </g>
     </g>
    </g>
    <g id="text_23">
     <!-- $C_l$ -->
     <g transform="translate(178.371562 482.830829)rotate(-90)scale(0.14 -0.14)">
      <use transform="translate(0 0.40625)" xlink:href="#STIXGeneral-Italic-67"/>
      <use transform="translate(66.699997 -12.821875)scale(0.7)" xlink:href="#STIXGeneral-Italic-108"/>
     </g>
    </g>
   </g>
   <g id="line2d_51">
    <path clip-path="url(#pd01a56d8e8)" d="M 216.447926 515.497105 
L 217.343779 514.452983 
L 217.791705 513.453465 
L 218.239631 511.961391 
L 218.986175 508.498814 
L 219.882028 504.42313 
L 220.479263 502.700691 
L 221.076498 501.718777 
L 221.673733 501.189698 
L 222.420276 500.849934 
L 223.764055 500.548783 
L 227.048848 499.88874 
L 229.139171 499.171755 
L 230.781567 498.346127 
L 232.573272 497.192606 
L 234.215668 496.22622 
L 234.812903 496.168231 
L 235.260829 496.406577 
L 235.559447 496.767196 
L 236.007373 497.725131 
L 236.604608 499.806819 
L 237.948387 505.124268 
L 238.545622 506.425433 
L 239.142857 507.095077 
L 239.740092 507.409784 
L 240.635945 507.610242 
L 242.42765 507.711382 
L 245.861751 507.723022 
L 320.665438 507.661835 
L 322.905069 507.268224 
L 323.502304 506.769138 
L 323.95023 506.040307 
L 324.398157 504.759749 
L 324.846083 502.586816 
L 325.294009 499.07722 
L 325.741935 493.800693 
L 326.488479 481.593498 
L 327.384332 467.07196 
L 327.981567 460.831966 
L 328.578802 457.224883 
L 329.325346 454.516887 
L 330.071889 451.707639 
L 331.117051 446.094841 
L 332.162212 440.242269 
L 333.058065 436.43052 
L 333.356682 435.736028 
L 333.6553 435.552079 
L 333.804608 435.644017 
L 334.103226 436.327624 
L 334.401843 437.704654 
L 334.84977 441.276393 
L 335.447005 448.309154 
L 336.641475 463.41438 
L 337.388018 470.275902 
L 338.43318 477.842363 
L 343.061751 507.586496 
L 344.256221 514.503937 
L 345.152074 518.424847 
L 346.047926 521.349924 
L 347.093088 524.033497 
L 348.138249 526.159866 
L 349.332719 527.943792 
L 349.929954 528.581561 
L 350.527189 528.954308 
L 350.975115 528.928531 
L 351.273733 528.66127 
L 351.57235 528.1148 
L 351.870968 527.174867 
L 352.318894 524.71507 
L 352.76682 520.715701 
L 353.364055 513.06674 
L 354.707834 495.130665 
L 355.305069 489.988417 
L 356.051613 485.65689 
L 356.798157 482.730093 
L 357.5447 480.667276 
L 358.291244 479.285494 
L 359.037788 478.470172 
L 359.485714 478.216783 
L 359.933641 478.208704 
L 360.232258 478.338039 
L 360.530876 478.766258 
L 360.978802 480.339407 
L 361.277419 482.313808 
L 361.725346 487.220722 
L 362.322581 496.555598 
L 363.218433 511.737805 
L 363.815668 518.210158 
L 364.412903 522.157768 
L 364.860829 524.01955 
L 365.458065 525.362014 
L 366.0553 526.039233 
L 368.145622 527.071626 
L 369.041475 526.950379 
L 370.235945 526.38081 
L 371.131797 525.629305 
L 374.41659 521.997977 
L 375.163134 521.469815 
L 378.746544 519.489575 
L 386.36129 515.883357 
L 388.152995 515.275972 
L 389.496774 514.947655 
L 392.632258 514.426491 
L 395.319816 514.127913 
L 397.260829 513.863193 
L 398.007373 513.81491 
L 402.635945 513.790096 
L 406.070046 514.037405 
L 407.115207 514.161646 
L 408.608295 514.28573 
L 410.101382 514.432737 
L 420.105069 515.449906 
L 422.046083 515.596486 
L 425.330876 515.76106 
L 431.303226 515.906404 
L 433.094931 515.936336 
L 437.872811 516.025085 
L 443.546544 516.2109 
L 472.213825 517.283643 
L 475.647926 517.272893 
L 478.78341 517.239588 
L 488.936406 516.994731 
L 501.478341 516.927467 
L 514.76682 517.184373 
L 514.76682 517.184373 
" style="fill:none;stroke:#1f77b4;stroke-linecap:square;stroke-width:3;"/>
   </g>
   <g id="line2d_52">
    <path clip-path="url(#pd01a56d8e8)" d="M 216.447926 515.697069 
L 217.493088 515.028355 
L 218.090323 514.195828 
L 218.687558 512.918787 
L 220.031336 509.842492 
L 220.628571 509.066188 
L 221.225806 508.626952 
L 222.121659 508.303927 
L 224.062673 507.973215 
L 226.152995 507.532889 
L 227.795392 506.972172 
L 229.437788 506.175385 
L 231.378802 504.976284 
L 234.663594 502.837579 
L 235.260829 502.731441 
L 235.708756 502.872072 
L 236.156682 503.276379 
L 236.753917 504.217953 
L 237.948387 506.32174 
L 238.545622 506.905785 
L 239.142857 507.21764 
L 240.486636 507.469729 
L 243.472811 507.612131 
L 250.639631 507.691687 
L 269.303226 507.688052 
L 270.348387 507.68359 
L 298.866359 507.874016 
L 315.290323 508.549495 
L 323.352995 508.913569 
L 324.099539 508.661995 
L 324.547465 508.315363 
L 325.1447 507.425275 
L 325.592627 506.292335 
L 326.189862 504.100899 
L 327.533641 498.784606 
L 328.130876 497.415594 
L 328.877419 496.370865 
L 330.071889 494.807146 
L 333.058065 490.124058 
L 333.505991 489.838978 
L 333.953917 489.874148 
L 334.252535 490.115363 
L 334.700461 490.909488 
L 335.297696 492.679518 
L 337.23871 499.320291 
L 338.731797 503.187098 
L 343.957604 515.781062 
L 344.704147 517.012458 
L 345.450691 517.796597 
L 346.197235 518.260473 
L 347.093088 518.560445 
L 347.98894 518.636783 
L 348.884793 518.501077 
L 349.780645 518.140274 
L 350.676498 517.491998 
L 351.273733 516.814322 
L 351.870968 515.786386 
L 352.468203 514.180045 
L 353.065438 511.84113 
L 355.15576 502.626567 
L 356.051613 500.200445 
L 356.947465 498.387262 
L 357.843318 497.011637 
L 358.739171 496.0027 
L 359.485714 495.46808 
L 360.082949 495.314603 
L 360.530876 495.419214 
L 360.978802 495.84413 
L 361.426728 496.711729 
L 361.874654 498.134691 
L 362.919816 502.851496 
L 363.666359 505.588236 
L 364.263594 506.746741 
L 364.711521 507.174643 
L 365.159447 507.374318 
L 365.756682 507.397328 
L 366.503226 507.23209 
L 368.892166 506.673814 
L 370.83318 506.43183 
L 373.371429 506.222773 
L 375.760369 506.372526 
L 377.552074 506.779316 
L 380.836866 508.039606 
L 384.121659 509.639927 
L 387.705069 511.315498 
L 393.080184 513.236644 
L 395.469124 513.86727 
L 399.948387 514.731037 
L 402.337327 515.056029 
L 406.667281 515.480339 
L 410.997235 515.745755 
L 415.625806 515.927112 
L 430.8553 516.180149 
L 460.418433 516.391841 
L 465.793548 516.418591 
L 473.706912 516.446956 
L 514.76682 516.53309 
L 514.76682 516.53309 
" style="fill:none;stroke:#ff7f0e;stroke-linecap:square;stroke-width:3;"/>
   </g>
   <g id="line2d_53">
    <path clip-path="url(#pd01a56d8e8)" d="M 216.447926 515.797785 
L 217.642396 515.375722 
L 218.239631 514.897822 
L 219.135484 513.820089 
L 220.031336 512.82786 
L 220.77788 512.356066 
L 221.673733 512.084698 
L 226.451613 511.060158 
L 228.243318 510.285872 
L 230.482949 509.049305 
L 232.871889 507.467275 
L 234.962212 506.10792 
L 235.708756 505.892757 
L 236.305991 505.991593 
L 237.052535 506.453743 
L 238.097696 507.13478 
L 238.993548 507.413652 
L 240.635945 507.584778 
L 244.667281 507.702516 
L 254.37235 507.687426 
L 260.941935 507.751543 
L 268.407373 508.110515 
L 274.230415 508.710814 
L 279.157604 509.455696 
L 284.084793 510.415239 
L 288.116129 511.430158 
L 291.251613 512.158776 
L 294.237788 512.348347 
L 296.178802 512.161909 
L 298.567742 511.70833 
L 304.83871 510.472063 
L 308.123502 510.158319 
L 311.557604 510.066836 
L 313.946544 510.134938 
L 315.290323 510.191283 
L 317.529954 510.360234 
L 320.217512 510.534561 
L 324.248848 510.248145 
L 324.995392 509.894878 
L 325.592627 509.378726 
L 326.339171 508.36154 
L 329.325346 503.591018 
L 331.415668 500.669859 
L 332.610138 499.401552 
L 333.356682 498.870153 
L 333.953917 498.680152 
L 334.401843 498.728667 
L 334.999078 499.084154 
L 335.745622 499.912162 
L 337.388018 502.256324 
L 339.030415 504.92457 
L 342.464516 511.201266 
L 344.256221 514.257676 
L 345.152074 515.358726 
L 346.047926 516.121646 
L 347.093088 516.710235 
L 348.138249 517.037745 
L 349.18341 517.142621 
L 350.37788 517.042668 
L 351.57235 516.735923 
L 352.468203 516.272842 
L 353.214747 515.659623 
L 354.409217 514.658483 
L 355.15576 514.347388 
L 356.051613 514.284141 
L 357.246083 514.512897 
L 359.336406 515.262018 
L 360.381567 515.859248 
L 360.978802 516.453934 
L 361.576037 517.370357 
L 362.471889 519.287449 
L 363.218433 520.719823 
L 363.815668 521.412766 
L 364.412903 521.754726 
L 365.308756 521.942349 
L 366.801843 521.988669 
L 368.294931 521.834222 
L 369.788018 521.424363 
L 371.878341 520.55009 
L 373.670046 519.581266 
L 377.253456 517.564461 
L 378.597235 517.141884 
L 379.791705 516.99332 
L 381.434101 517.026032 
L 385.465438 517.241906 
L 387.55576 517.115243 
L 389.198157 516.818995 
L 391.139171 516.244633 
L 395.917051 514.694234 
L 397.858065 514.40491 
L 399.948387 514.343379 
L 403.830415 514.509056 
L 408.160369 514.587593 
L 429.212903 514.460341 
L 452.803687 514.704457 
L 493.714286 514.874488 
L 514.76682 515.100939 
L 514.76682 515.100939 
" style="fill:none;stroke:#2ca02c;stroke-linecap:square;stroke-width:3;"/>
   </g>
   <g id="line2d_54">
    <path clip-path="url(#pd01a56d8e8)" d="M 216 515.900878 
L 514.617512 515.900878 
" style="fill:none;stroke:#000000;stroke-dasharray:3.2,0.8,0.5,0.8;stroke-dashoffset:0;stroke-width:0.5;"/>
   </g>
   <g id="line2d_55">
    <path clip-path="url(#pd01a56d8e8)" d="M 365.308756 576 
L 365.308756 376.921659 
" style="fill:none;stroke:#000000;stroke-linecap:square;stroke-width:0.5;"/>
   </g>
   <g id="line2d_56">
    <path clip-path="url(#pd01a56d8e8)" d="M 395.170507 576 
L 395.170507 376.921659 
" style="fill:none;stroke:#000000;stroke-dasharray:3.2,0.8,0.5,0.8;stroke-dashoffset:0;stroke-opacity:0.25;stroke-width:0.5;"/>
   </g>
   <g id="line2d_57">
    <path clip-path="url(#pd01a56d8e8)" d="M 425.032258 576 
L 425.032258 376.921659 
" style="fill:none;stroke:#000000;stroke-dasharray:3.2,0.8,0.5,0.8;stroke-dashoffset:0;stroke-opacity:0.25;stroke-width:0.5;"/>
   </g>
   <g id="patch_13">
    <path d="M 216 576 
L 216 376.921659 
" style="fill:none;stroke:#000000;stroke-linecap:square;stroke-linejoin:miter;stroke-width:0.8;"/>
   </g>
   <g id="patch_14">
    <path d="M 514.617512 576 
L 514.617512 376.921659 
" style="fill:none;stroke:#000000;stroke-linecap:square;stroke-linejoin:miter;stroke-width:0.8;"/>
   </g>
   <g id="patch_15">
    <path d="M 216 576 
L 514.617512 576 
" style="fill:none;stroke:#000000;stroke-linecap:square;stroke-linejoin:miter;stroke-width:0.8;"/>
   </g>
   <g id="patch_16">
    <path d="M 216 376.921659 
L 514.617512 376.921659 
" style="fill:none;stroke:#000000;stroke-linecap:square;stroke-linejoin:miter;stroke-width:0.8;"/>
   </g>
  </g>
  <g id="axes_4">
   <g id="patch_17">
    <path d="M 565.382488 576 
L 864 576 
L 864 376.921659 
L 565.382488 376.921659 
z
" style="fill:#ffffff;"/>
   </g>
   <g id="matplotlib.axis_7">
    <g id="xtick_16">
     <g id="line2d_58">
      <g>
       <use style="fill:#ffffff;stroke:#000000;stroke-width:0.8;" x="565.382488" xlink:href="#m18bfbac0da" y="576"/>
      </g>
     </g>
     <g id="text_24">
      <!-- 0.0 -->
      <g transform="translate(556.632488 592.561563)scale(0.14 -0.14)">
       <use xlink:href="#STIXGeneral-Regular-48"/>
       <use x="49.999985" xlink:href="#STIXGeneral-Regular-46"/>
       <use x="74.999969" xlink:href="#STIXGeneral-Regular-48"/>
      </g>
     </g>
    </g>
    <g id="xtick_17">
     <g id="line2d_59">
      <g>
       <use style="fill:#ffffff;stroke:#000000;stroke-width:0.8;" x="640.036866" xlink:href="#m18bfbac0da" y="576"/>
      </g>
     </g>
     <g id="text_25">
      <!-- 0.5 -->
      <g transform="translate(631.286866 592.561563)scale(0.14 -0.14)">
       <use xlink:href="#STIXGeneral-Regular-48"/>
       <use x="49.999985" xlink:href="#STIXGeneral-Regular-46"/>
       <use x="74.999969" xlink:href="#STIXGeneral-Regular-53"/>
      </g>
     </g>
    </g>
    <g id="xtick_18">
     <g id="line2d_60">
      <g>
       <use style="fill:#ffffff;stroke:#000000;stroke-width:0.8;" x="714.691244" xlink:href="#m18bfbac0da" y="576"/>
      </g>
     </g>
     <g id="text_26">
      <!-- 1.0 -->
      <g transform="translate(705.941244 592.561563)scale(0.14 -0.14)">
       <use xlink:href="#STIXGeneral-Regular-49"/>
       <use x="49.999985" xlink:href="#STIXGeneral-Regular-46"/>
       <use x="74.999969" xlink:href="#STIXGeneral-Regular-48"/>
      </g>
     </g>
    </g>
    <g id="xtick_19">
     <g id="line2d_61">
      <g>
       <use style="fill:#ffffff;stroke:#000000;stroke-width:0.8;" x="789.345622" xlink:href="#m18bfbac0da" y="576"/>
      </g>
     </g>
     <g id="text_27">
      <!-- 1.5 -->
      <g transform="translate(780.595622 592.561563)scale(0.14 -0.14)">
       <use xlink:href="#STIXGeneral-Regular-49"/>
       <use x="49.999985" xlink:href="#STIXGeneral-Regular-46"/>
       <use x="74.999969" xlink:href="#STIXGeneral-Regular-53"/>
      </g>
     </g>
    </g>
    <g id="xtick_20">
     <g id="line2d_62">
      <g>
       <use style="fill:#ffffff;stroke:#000000;stroke-width:0.8;" x="864" xlink:href="#m18bfbac0da" y="576"/>
      </g>
     </g>
     <g id="text_28">
      <!-- 2.0 -->
      <g transform="translate(855.25 592.561563)scale(0.14 -0.14)">
       <use xlink:href="#STIXGeneral-Regular-50"/>
       <use x="49.999985" xlink:href="#STIXGeneral-Regular-46"/>
       <use x="74.999969" xlink:href="#STIXGeneral-Regular-48"/>
      </g>
     </g>
    </g>
    <g id="text_29">
     <!-- $\^t$ -->
     <g transform="translate(712.731244 609.161563)scale(0.14 -0.14)">
      <use transform="translate(39.042969 16.59375)" xlink:href="#STIXGeneral-Regular-770"/>
      <use transform="translate(0 0.203125)" xlink:href="#STIXGeneral-Italic-116"/>
     </g>
    </g>
   </g>
   <g id="matplotlib.axis_8">
    <g id="ytick_16">
     <g id="line2d_63">
      <g>
       <use style="fill:#ffffff;stroke:#000000;stroke-width:0.8;" x="565.382488" xlink:href="#m39d160ac97" y="553.462829"/>
      </g>
     </g>
    </g>
    <g id="ytick_17">
     <g id="line2d_64">
      <g>
       <use style="fill:#ffffff;stroke:#000000;stroke-width:0.8;" x="565.382488" xlink:href="#m39d160ac97" y="515.900878"/>
      </g>
     </g>
    </g>
    <g id="ytick_18">
     <g id="line2d_65">
      <g>
       <use style="fill:#ffffff;stroke:#000000;stroke-width:0.8;" x="565.382488" xlink:href="#m39d160ac97" y="478.338927"/>
      </g>
     </g>
    </g>
    <g id="ytick_19">
     <g id="line2d_66">
      <g>
       <use style="fill:#ffffff;stroke:#000000;stroke-width:0.8;" x="565.382488" xlink:href="#m39d160ac97" y="440.776976"/>
      </g>
     </g>
    </g>
    <g id="ytick_20">
     <g id="line2d_67">
      <g>
       <use style="fill:#ffffff;stroke:#000000;stroke-width:0.8;" x="565.382488" xlink:href="#m39d160ac97" y="403.215025"/>
      </g>
     </g>
    </g>
    <g id="text_30">
     <!-- $C_d$ -->
     <g transform="translate(551.344051 483.950829)rotate(-90)scale(0.14 -0.14)">
      <use transform="translate(0 0.40625)" xlink:href="#STIXGeneral-Italic-67"/>
      <use transform="translate(66.699997 -12.821875)scale(0.7)" xlink:href="#STIXGeneral-Italic-100"/>
     </g>
    </g>
   </g>
   <g id="line2d_68">
    <path clip-path="url(#p4c9095555a)" d="M 565.830415 515.488537 
L 566.726267 514.428148 
L 567.174194 513.41089 
L 567.62212 511.890501 
L 568.368664 508.350924 
L 569.264516 504.143869 
L 569.861751 502.329014 
L 570.458986 501.26068 
L 571.056221 500.654639 
L 571.802765 500.229179 
L 572.997235 499.843348 
L 577.327189 498.654296 
L 580.462673 497.229666 
L 583.747465 495.497718 
L 584.195392 495.539182 
L 584.643318 495.838721 
L 584.941935 496.24301 
L 585.389862 497.273533 
L 585.987097 499.464552 
L 587.330876 505.038818 
L 587.928111 506.439292 
L 588.525346 507.188044 
L 589.122581 507.568216 
L 590.018433 507.846672 
L 591.660829 508.044399 
L 595.841475 508.199943 
L 609.727189 508.315049 
L 610.473733 508.314576 
L 624.807373 508.361451 
L 625.404608 508.353939 
L 671.242396 508.170201 
L 672.287558 507.854085 
L 672.884793 507.350667 
L 673.332719 506.616208 
L 673.780645 505.326871 
L 674.228571 503.136683 
L 674.676498 499.592315 
L 675.124424 494.241255 
L 675.721659 484.465169 
L 676.916129 463.841306 
L 677.662673 455.227761 
L 679.902304 433.401359 
L 681.246083 414.699379 
L 683.336406 385.294803 
L 683.784332 381.975108 
L 684.082949 381.247992 
L 684.232258 381.304021 
L 684.381567 381.665508 
L 684.680184 383.397079 
L 685.128111 387.443401 
L 686.173272 397.049304 
L 686.770507 399.928433 
L 687.218433 401.102597 
L 687.666359 401.740558 
L 688.114286 402.074523 
L 689.159447 402.376373 
L 689.756682 402.649933 
L 690.353917 403.215417 
L 690.951152 404.194983 
L 691.399078 405.339502 
L 691.996313 407.87132 
L 692.294931 409.324283 
L 692.892166 414.199792 
L 693.788018 425.680965 
L 694.982488 441.777399 
L 695.729032 449.194781 
L 696.624885 456.131953 
L 698.565899 467.921593 
L 700.357604 478.159318 
L 700.954839 483.196585 
L 701.552074 490.689186 
L 702.149309 501.737518 
L 703.941014 539.845473 
L 704.538249 546.355949 
L 705.135484 550.196697 
L 705.732719 552.536955 
L 706.479263 554.454956 
L 707.524424 556.19736 
L 709.764055 559.216199 
L 709.913364 559.251537 
L 710.211982 558.886974 
L 710.510599 557.857471 
L 710.809217 555.811938 
L 711.257143 550.671748 
L 711.854378 540.629115 
L 712.75023 525.5835 
L 713.347465 519.191296 
L 713.9447 515.051144 
L 714.392627 513.062749 
L 714.989862 511.350674 
L 715.587097 510.307364 
L 716.930876 508.630177 
L 717.677419 508.102796 
L 719.021198 508.001406 
L 719.618433 508.196951 
L 720.364977 508.734063 
L 720.812903 509.135909 
L 721.858065 510.332627 
L 723.201843 511.872868 
L 724.396313 512.784303 
L 725.590783 513.419025 
L 729.174194 515.135225 
L 736.042396 517.881286 
L 737.98341 518.297782 
L 742.164055 518.58425 
L 744.851613 518.565056 
L 747.389862 518.59532 
L 752.914286 518.142453 
L 753.810138 518.013897 
L 768.293088 516.175773 
L 776.35576 515.616335 
L 796.213825 515.037424 
L 807.859908 514.495586 
L 814.578802 514.265546 
L 821.745622 514.155637 
L 836.37788 514.380867 
L 842.051613 514.511231 
L 849.069124 514.552604 
L 859.819355 514.373904 
L 864.149309 514.30069 
L 864.149309 514.30069 
" style="fill:none;stroke:#1f77b4;stroke-linecap:square;stroke-width:3;"/>
   </g>
   <g id="line2d_69">
    <path clip-path="url(#p4c9095555a)" d="M 565.830415 515.690855 
L 566.875576 515.007311 
L 567.472811 514.153291 
L 568.070046 512.839048 
L 569.413825 509.628113 
L 570.01106 508.787912 
L 570.608295 508.290239 
L 571.354839 507.942264 
L 572.698618 507.602597 
L 575.98341 506.817729 
L 577.924424 506.090029 
L 580.014747 505.03688 
L 581.95576 503.910932 
L 583.747465 502.939098 
L 584.3447 502.796759 
L 584.792627 502.855477 
L 585.240553 503.1393 
L 585.688479 503.699777 
L 586.435023 505.132509 
L 587.330876 506.754107 
L 587.928111 507.387518 
L 588.525346 507.735407 
L 589.719816 508.019398 
L 591.959447 508.192176 
L 596.886636 508.334379 
L 621.223963 508.295845 
L 622.119816 508.287739 
L 645.710599 508.274597 
L 668.704147 508.956129 
L 671.242396 509.06673 
L 672.436866 509.03322 
L 673.332719 508.794804 
L 673.780645 508.497712 
L 674.228571 507.966943 
L 674.676498 507.08881 
L 675.124424 505.756661 
L 675.870968 502.581963 
L 676.916129 497.959743 
L 677.811982 495.143738 
L 679.15576 491.208431 
L 680.051613 487.781635 
L 681.395392 481.69923 
L 683.485714 472.033111 
L 683.933641 470.879174 
L 684.232258 470.542977 
L 684.530876 470.508301 
L 684.829493 470.77687 
L 685.725346 472.268899 
L 686.322581 473.01841 
L 686.770507 473.336324 
L 687.517051 473.565656 
L 689.159447 473.889868 
L 690.0553 474.330948 
L 690.652535 474.789258 
L 691.548387 476.017849 
L 692.145622 477.41062 
L 692.742857 479.717684 
L 693.340092 483.125596 
L 695.729032 498.539333 
L 696.624885 502.122685 
L 697.819355 505.953696 
L 701.253456 516.219571 
L 701.850691 519.209784 
L 702.597235 524.080647 
L 703.642396 530.836679 
L 704.239631 533.408103 
L 704.836866 535.06694 
L 705.434101 536.173665 
L 706.180645 537.125242 
L 707.076498 537.94636 
L 708.718894 538.982403 
L 709.465438 539.250215 
L 710.062673 539.210408 
L 710.36129 539.002278 
L 710.809217 538.333687 
L 711.257143 537.10086 
L 712.003687 533.965445 
L 712.899539 530.250183 
L 713.347465 529.060419 
L 713.9447 528.140824 
L 714.541935 527.706154 
L 715.139171 527.545927 
L 715.885714 527.541252 
L 719.319816 527.620549 
L 723.052535 527.306908 
L 725.142857 526.780544 
L 727.23318 525.928296 
L 729.62212 524.67345 
L 734.698618 521.715103 
L 740.969585 518.881386 
L 744.702304 517.756802 
L 748.733641 516.923906 
L 752.018433 516.46032 
L 756.497696 516.044448 
L 762.917972 515.717493 
L 773.220276 515.491113 
L 780.088479 515.417696 
L 861.760369 515.09176 
L 864.149309 515.086777 
L 864.149309 515.086777 
" style="fill:none;stroke:#ff7f0e;stroke-linecap:square;stroke-width:3;"/>
   </g>
   <g id="line2d_70">
    <path clip-path="url(#p4c9095555a)" d="M 565.830415 515.793455 
L 567.024885 515.357922 
L 567.62212 514.862368 
L 568.517972 513.736207 
L 569.413825 512.676868 
L 570.160369 512.149686 
L 571.056221 511.822882 
L 573.146544 511.416984 
L 575.386175 510.876134 
L 577.327189 510.17358 
L 579.716129 509.06447 
L 581.95576 507.804349 
L 584.3447 506.460999 
L 585.091244 506.314196 
L 585.688479 506.46594 
L 586.435023 506.988045 
L 587.480184 507.732769 
L 588.376037 508.042284 
L 589.869124 508.227481 
L 593.004608 508.351874 
L 595.24424 508.350859 
L 616.595392 508.399612 
L 623.015668 508.82913 
L 630.331797 509.700419 
L 636.304147 510.722374 
L 639.887558 511.305808 
L 641.828571 511.39255 
L 643.620276 511.243507 
L 645.710599 510.853303 
L 647.95023 510.285834 
L 652.429493 509.237506 
L 655.117051 508.859138 
L 657.6553 508.693761 
L 660.342857 508.687852 
L 664.075576 508.912355 
L 669.301382 509.551177 
L 671.839631 509.76141 
L 673.034101 509.743761 
L 673.929954 509.57047 
L 674.527189 509.279924 
L 675.273733 508.555958 
L 676.020276 507.414696 
L 678.558525 502.836018 
L 680.051613 499.639466 
L 681.5447 495.934431 
L 684.082949 489.482437 
L 684.829493 488.366939 
L 685.725346 487.49744 
L 687.069124 486.337773 
L 688.263594 485.604977 
L 688.860829 485.398197 
L 689.607373 485.315177 
L 690.353917 485.441029 
L 691.24977 485.944004 
L 691.847005 486.583371 
L 692.44424 487.596184 
L 693.041475 489.184754 
L 693.937327 492.678722 
L 695.281106 498.08304 
L 696.326267 501.287194 
L 697.819355 504.978285 
L 699.163134 507.778391 
L 700.80553 510.656967 
L 702.298618 513.367426 
L 703.493088 515.50567 
L 704.090323 516.141906 
L 704.687558 516.480108 
L 705.434101 516.648571 
L 706.927189 516.627858 
L 708.868203 516.419928 
L 709.614747 516.184554 
L 710.211982 515.779648 
L 710.809217 515.049444 
L 711.406452 513.933223 
L 712.75023 511.257054 
L 713.347465 510.610678 
L 713.9447 510.266874 
L 714.840553 510.030823 
L 716.333641 509.906853 
L 717.528111 509.993708 
L 718.722581 510.291727 
L 720.215668 510.917377 
L 721.858065 511.84722 
L 727.083871 515.210355 
L 728.129032 515.507526 
L 729.323502 515.602792 
L 730.81659 515.49008 
L 734.847926 515.061846 
L 736.78894 515.088371 
L 738.580645 515.340264 
L 740.521659 515.860102 
L 745.299539 517.291193 
L 747.091244 517.505869 
L 749.181567 517.519901 
L 757.841475 517.25981 
L 773.817512 517.432651 
L 786.508756 517.241216 
L 800.245161 517.139474 
L 850.412903 517.023133 
L 864.149309 516.922775 
L 864.149309 516.922775 
" style="fill:none;stroke:#2ca02c;stroke-linecap:square;stroke-width:3;"/>
   </g>
   <g id="line2d_71">
    <path clip-path="url(#p4c9095555a)" d="M 565.382488 515.900878 
L 864 515.900878 
" style="fill:none;stroke:#000000;stroke-dasharray:3.2,0.8,0.5,0.8;stroke-dashoffset:0;stroke-width:0.5;"/>
   </g>
   <g id="line2d_72">
    <path clip-path="url(#p4c9095555a)" d="M 714.691244 576 
L 714.691244 376.921659 
" style="fill:none;stroke:#000000;stroke-linecap:square;stroke-width:0.5;"/>
   </g>
   <g id="line2d_73">
    <path clip-path="url(#p4c9095555a)" d="M 744.552995 576 
L 744.552995 376.921659 
" style="fill:none;stroke:#000000;stroke-dasharray:3.2,0.8,0.5,0.8;stroke-dashoffset:0;stroke-opacity:0.25;stroke-width:0.5;"/>
   </g>
   <g id="line2d_74">
    <path clip-path="url(#p4c9095555a)" d="M 774.414747 576 
L 774.414747 376.921659 
" style="fill:none;stroke:#000000;stroke-dasharray:3.2,0.8,0.5,0.8;stroke-dashoffset:0;stroke-opacity:0.25;stroke-width:0.5;"/>
   </g>
   <g id="patch_18">
    <path d="M 565.382488 576 
L 565.382488 376.921659 
" style="fill:none;stroke:#000000;stroke-linecap:square;stroke-linejoin:miter;stroke-width:0.8;"/>
   </g>
   <g id="patch_19">
    <path d="M 864 576 
L 864 376.921659 
" style="fill:none;stroke:#000000;stroke-linecap:square;stroke-linejoin:miter;stroke-width:0.8;"/>
   </g>
   <g id="patch_20">
    <path d="M 565.382488 576 
L 864 576 
" style="fill:none;stroke:#000000;stroke-linecap:square;stroke-linejoin:miter;stroke-width:0.8;"/>
   </g>
   <g id="patch_21">
    <path d="M 565.382488 376.921659 
L 864 376.921659 
" style="fill:none;stroke:#000000;stroke-linecap:square;stroke-linejoin:miter;stroke-width:0.8;"/>
   </g>
   <g id="text_31">
    <!-- $Re = 10^3$ -->
    <g transform="translate(875.754101 479.722392)scale(0.14 -0.14)">
     <use transform="translate(0 0.409375)" xlink:href="#STIXGeneral-Italic-82"/>
     <use transform="translate(61.099991 0.409375)" xlink:href="#STIXGeneral-Italic-101"/>
     <use transform="translate(119.939981 0.409375)" xlink:href="#STIXGeneral-Regular-61"/>
     <use transform="translate(202.879962 0.409375)" xlink:href="#STIXGeneral-Regular-49"/>
     <use transform="translate(252.879947 0.409375)" xlink:href="#STIXGeneral-Regular-48"/>
     <use transform="translate(304.423213 35.684375)scale(0.7)" xlink:href="#STIXGeneral-Regular-51"/>
    </g>
   </g>
  </g>
 </g>
 <defs>
  <clipPath id="p4792bb7676">
   <rect height="199.078341" width="298.617512" x="216" y="144"/>
  </clipPath>
  <clipPath id="p7ed7b7199e">
   <rect height="199.078341" width="298.617512" x="565.382488" y="144"/>
  </clipPath>
  <clipPath id="pd01a56d8e8">
   <rect height="199.078341" width="298.617512" x="216" y="376.921659"/>
  </clipPath>
  <clipPath id="p4c9095555a">
   <rect height="199.078341" width="298.617512" x="565.382488" y="376.921659"/>
  </clipPath>
 </defs>
</svg>
