<?xml version="1.0" encoding="utf-8" standalone="no"?>
<!DOCTYPE svg PUBLIC "-//W3C//DTD SVG 1.1//EN"
  "http://www.w3.org/Graphics/SVG/1.1/DTD/svg11.dtd">
<!-- Created with matplotlib (https://matplotlib.org/) -->
<svg height="720pt" version="1.1" viewBox="0 0 1008 720" width="1008pt" xmlns="http://www.w3.org/2000/svg" xmlns:xlink="http://www.w3.org/1999/xlink">
 <defs>
  <style type="text/css">
*{stroke-linecap:butt;stroke-linejoin:round;}
  </style>
 </defs>
 <g id="figure_1">
  <g id="patch_1">
   <path d="M 0 720 
L 1008 720 
L 1008 0 
L 0 0 
z
" style="fill:#ffffff;"/>
  </g>
  <g id="axes_1">
   <g id="patch_2">
    <path d="M 100.8 337.437788 
L 472.412903 337.437788 
L 472.412903 72 
L 100.8 72 
z
" style="fill:#ffffff;"/>
   </g>
   <g id="matplotlib.axis_1">
    <g id="xtick_1">
     <g id="line2d_1">
      <defs>
       <path d="M 0 0 
L 0 3.5 
" id="mb07c4e5c68" style="stroke:#000000;stroke-width:0.8;"/>
      </defs>
      <g>
       <use style="fill:#ffffff;stroke:#000000;stroke-width:0.8;" x="100.8" xlink:href="#mb07c4e5c68" y="337.437788"/>
      </g>
     </g>
    </g>
    <g id="xtick_2">
     <g id="line2d_2">
      <g>
       <use style="fill:#ffffff;stroke:#000000;stroke-width:0.8;" x="193.703226" xlink:href="#mb07c4e5c68" y="337.437788"/>
      </g>
     </g>
    </g>
    <g id="xtick_3">
     <g id="line2d_3">
      <g>
       <use style="fill:#ffffff;stroke:#000000;stroke-width:0.8;" x="286.606452" xlink:href="#mb07c4e5c68" y="337.437788"/>
      </g>
     </g>
    </g>
    <g id="xtick_4">
     <g id="line2d_4">
      <g>
       <use style="fill:#ffffff;stroke:#000000;stroke-width:0.8;" x="379.509677" xlink:href="#mb07c4e5c68" y="337.437788"/>
      </g>
     </g>
    </g>
    <g id="xtick_5">
     <g id="line2d_5">
      <g>
       <use style="fill:#ffffff;stroke:#000000;stroke-width:0.8;" x="472.412903" xlink:href="#mb07c4e5c68" y="337.437788"/>
      </g>
     </g>
    </g>
   </g>
   <g id="matplotlib.axis_2">
    <g id="ytick_1">
     <g id="line2d_6">
      <defs>
       <path d="M 0 0 
L -3.5 0 
" id="m5d8bfef312" style="stroke:#000000;stroke-width:0.8;"/>
      </defs>
      <g>
       <use style="fill:#ffffff;stroke:#000000;stroke-width:0.8;" x="100.8" xlink:href="#m5d8bfef312" y="330.452583"/>
      </g>
     </g>
     <g id="text_1">
      <!-- −40 -->
      <defs>
       <path d="M 62.09375 22 
L 6.40625 22 
L 6.40625 28.59375 
L 62.09375 28.59375 
z
" id="STIXGeneral-Regular-8722"/>
       <path d="M 47.296875 16.703125 
L 37 16.703125 
L 37 0 
L 29.203125 0 
L 29.203125 16.703125 
L 1.203125 16.703125 
L 1.203125 23.09375 
L 32.59375 67.59375 
L 37 67.59375 
L 37 23.09375 
L 47.296875 23.09375 
z
M 29.203125 23.09375 
L 29.203125 57.40625 
L 5.203125 23.09375 
z
" id="STIXGeneral-Regular-52"/>
       <path d="M 47.59375 33 
Q 47.59375 26.296875 46.296875 20.34375 
Q 45 14.40625 42.453125 9.40625 
Q 39.90625 4.40625 35.40625 1.5 
Q 30.90625 -1.40625 25 -1.40625 
Q 18.90625 -1.40625 14.296875 1.6875 
Q 9.703125 4.796875 7.203125 10 
Q 4.703125 15.203125 3.546875 21.09375 
Q 2.40625 27 2.40625 33.59375 
Q 2.40625 42.90625 4.703125 50.34375 
Q 7 57.796875 12.34375 62.6875 
Q 17.703125 67.59375 25.40625 67.59375 
Q 35.203125 67.59375 41.390625 58 
Q 47.59375 48.40625 47.59375 33 
z
M 38 32.5 
Q 38 48.296875 34.640625 56.640625 
Q 31.296875 65 24.796875 65 
Q 18.59375 65 15.296875 56.59375 
Q 12 48.203125 12 32.90625 
Q 12 17.5 15.296875 9.34375 
Q 18.59375 1.203125 25 1.203125 
Q 31.296875 1.203125 34.640625 9.34375 
Q 38 17.5 38 32.5 
z
" id="STIXGeneral-Regular-48"/>
      </defs>
      <g transform="translate(63.47 336.599302)scale(0.18 -0.18)">
       <use xlink:href="#STIXGeneral-Regular-8722"/>
       <use x="68.499985" xlink:href="#STIXGeneral-Regular-52"/>
       <use x="118.499969" xlink:href="#STIXGeneral-Regular-48"/>
      </g>
     </g>
    </g>
    <g id="ytick_2">
     <g id="line2d_7">
      <g>
       <use style="fill:#ffffff;stroke:#000000;stroke-width:0.8;" x="100.8" xlink:href="#m5d8bfef312" y="260.600534"/>
      </g>
     </g>
     <g id="text_2">
      <!-- −20 -->
      <defs>
       <path d="M 47.40625 13.703125 
L 42 0 
L 2.90625 0 
L 2.90625 1.203125 
L 20.703125 20.09375 
Q 27.703125 27.40625 30.703125 33.5 
Q 33.703125 39.59375 33.703125 46.09375 
Q 33.703125 52.796875 30 56.5 
Q 26.296875 60.203125 19.796875 60.203125 
Q 14.40625 60.203125 11.25 57.390625 
Q 8.09375 54.59375 5.09375 47.203125 
L 3 47.703125 
Q 4.703125 57 9.84375 62.296875 
Q 15 67.59375 23.796875 67.59375 
Q 32.09375 67.59375 37.1875 62.59375 
Q 42.296875 57.59375 42.296875 50 
Q 42.296875 38.703125 29.5 25.203125 
L 13 7.59375 
L 36.40625 7.59375 
Q 39.703125 7.59375 41.640625 8.890625 
Q 43.59375 10.203125 46 14.296875 
z
" id="STIXGeneral-Regular-50"/>
      </defs>
      <g transform="translate(63.47 266.747252)scale(0.18 -0.18)">
       <use xlink:href="#STIXGeneral-Regular-8722"/>
       <use x="68.499985" xlink:href="#STIXGeneral-Regular-50"/>
       <use x="118.499969" xlink:href="#STIXGeneral-Regular-48"/>
      </g>
     </g>
    </g>
    <g id="ytick_3">
     <g id="line2d_8">
      <g>
       <use style="fill:#ffffff;stroke:#000000;stroke-width:0.8;" x="100.8" xlink:href="#m5d8bfef312" y="190.748484"/>
      </g>
     </g>
     <g id="text_3">
      <!-- 0 -->
      <g transform="translate(84.8 196.895203)scale(0.18 -0.18)">
       <use xlink:href="#STIXGeneral-Regular-48"/>
      </g>
     </g>
    </g>
    <g id="ytick_4">
     <g id="line2d_9">
      <g>
       <use style="fill:#ffffff;stroke:#000000;stroke-width:0.8;" x="100.8" xlink:href="#m5d8bfef312" y="120.896435"/>
      </g>
     </g>
     <g id="text_4">
      <!-- 20 -->
      <g transform="translate(75.8 127.043153)scale(0.18 -0.18)">
       <use xlink:href="#STIXGeneral-Regular-50"/>
       <use x="49.999985" xlink:href="#STIXGeneral-Regular-48"/>
      </g>
     </g>
    </g>
    <g id="text_5">
     <!-- $C_l$ -->
     <defs>
      <path d="M 68.90625 66.40625 
L 65.203125 46.40625 
L 63.40625 46.703125 
Q 61.59375 63 48.5 63 
Q 37.59375 63 28.59375 53.296875 
Q 23.296875 47.703125 20.546875 39.703125 
Q 17.796875 31.703125 17.796875 23.203125 
Q 17.796875 2.703125 35.296875 2.703125 
Q 41.5 2.703125 46.640625 5.296875 
Q 51.796875 7.90625 58.203125 14.59375 
L 60 13.09375 
Q 53.296875 5.203125 46.84375 1.703125 
Q 40.40625 -1.796875 32.703125 -1.796875 
Q 21 -1.796875 13.796875 5.140625 
Q 6.59375 12.09375 6.59375 24.296875 
Q 6.59375 34.59375 11.6875 43.9375 
Q 16.796875 53.296875 25.296875 59.296875 
Q 35.5 66.59375 47.203125 66.59375 
Q 54.09375 66.59375 58.90625 64.90625 
Q 60.90625 64.203125 63 64.203125 
Q 65.703125 64.203125 66.796875 66.40625 
z
" id="STIXGeneral-Italic-67"/>
      <path d="M 27.90625 67.796875 
L 12.59375 9.296875 
Q 11.796875 6.40625 11.796875 5 
Q 11.796875 3.203125 13.5 3.203125 
Q 16.203125 3.203125 20.203125 8.90625 
L 22.703125 12.40625 
L 24.09375 11.40625 
Q 19.59375 4.296875 16.34375 1.59375 
Q 13.09375 -1.09375 9 -1.09375 
Q 4.09375 -1.09375 4.09375 4.5 
Q 4.09375 6.203125 4.5 7.5 
L 18.203125 59.90625 
Q 18.5 60.90625 18.5 61.796875 
Q 18.5 64 13.59375 64 
L 11.796875 64 
L 11.796875 65.59375 
Q 18.796875 66.40625 27.296875 68.296875 
z
" id="STIXGeneral-Italic-108"/>
     </defs>
     <g transform="translate(55.563438 212.908894)rotate(-90)scale(0.18 -0.18)">
      <use transform="translate(0 0.40625)" xlink:href="#STIXGeneral-Italic-67"/>
      <use transform="translate(66.699997 -12.821875)scale(0.7)" xlink:href="#STIXGeneral-Italic-108"/>
     </g>
    </g>
   </g>
   <g id="line2d_10">
    <path clip-path="url(#pf59142bac3)" d="M 101.357419 190.356418 
L 102.472258 189.351721 
L 103.029677 188.386638 
L 103.587097 186.943346 
L 104.330323 184.310784 
L 105.630968 179.562293 
L 106.374194 177.818073 
L 106.931613 176.993989 
L 107.674839 176.321141 
L 108.603871 175.854129 
L 109.904516 175.491968 
L 113.249032 174.903267 
L 118.265806 173.945163 
L 123.654194 172.812134 
L 124.211613 172.957121 
L 124.769032 173.348212 
L 125.140645 173.795048 
L 125.698065 174.84383 
L 126.255484 176.396858 
L 128.299355 182.808062 
L 128.856774 183.730378 
L 129.414194 184.298506 
L 130.157419 184.702421 
L 131.086452 184.918242 
L 140.562581 184.745968 
L 167.876129 184.190064 
L 249.445161 183.686629 
L 250.188387 183.685659 
L 255.019355 183.489764 
L 255.948387 183.155929 
L 256.691613 182.44594 
L 257.249032 181.441664 
L 257.806452 179.669773 
L 258.363871 176.623476 
L 258.92129 171.583585 
L 259.47871 163.825308 
L 260.221935 148.960229 
L 261.708387 116.752069 
L 262.265806 109.445436 
L 262.637419 106.485925 
L 263.009032 104.880941 
L 263.194839 104.549415 
L 263.380645 104.515028 
L 263.566452 104.769478 
L 263.938065 106.141082 
L 264.309677 108.738979 
L 264.867097 114.938869 
L 265.424516 123.954688 
L 267.468387 162.288586 
L 268.025806 168.215505 
L 268.583226 172.270821 
L 269.326452 175.878484 
L 270.255484 179.027591 
L 271.741935 182.923601 
L 274.343226 189.475969 
L 275.272258 192.659288 
L 276.20129 196.77759 
L 277.316129 201.606901 
L 277.687742 202.558581 
L 278.059355 202.99499 
L 278.430968 202.945288 
L 278.802581 202.507516 
L 279.545806 200.987727 
L 280.474839 199.069674 
L 281.032258 198.320313 
L 281.589677 197.962694 
L 282.147097 197.955935 
L 282.890323 198.274811 
L 284.005161 198.759955 
L 284.748387 198.794295 
L 285.677419 198.544162 
L 287.349677 197.76661 
L 294.03871 194.574169 
L 297.011613 193.489379 
L 299.984516 192.641071 
L 303.143226 191.983178 
L 306.859355 191.449982 
L 311.31871 191.05039 
L 317.264516 190.756163 
L 325.997419 190.569296 
L 341.790968 190.493302 
L 390.100645 190.582297 
L 472.59871 190.736191 
L 472.59871 190.736191 
" style="fill:none;stroke:#1f77b4;stroke-linecap:square;stroke-width:3;"/>
   </g>
   <g id="line2d_11">
    <path clip-path="url(#pf59142bac3)" d="M 101.357419 190.547763 
L 102.658065 189.89604 
L 103.215484 189.326581 
L 103.95871 188.174787 
L 106.002581 184.496781 
L 106.745806 183.777468 
L 107.489032 183.352281 
L 108.603871 183.004169 
L 110.647742 182.663548 
L 116.407742 181.76495 
L 119.380645 181.054807 
L 124.397419 179.733045 
L 124.954839 179.845835 
L 125.512258 180.167183 
L 126.069677 180.7425 
L 126.99871 182.142037 
L 127.927742 183.493069 
L 128.670968 184.179798 
L 129.414194 184.533045 
L 130.157419 184.673827 
L 131.643871 184.713588 
L 135.545806 184.536902 
L 148.180645 184.107216 
L 149.295484 184.071881 
L 163.788387 183.829138 
L 164.903226 183.807071 
L 179.210323 183.710222 
L 189.058065 183.758958 
L 189.80129 183.742952 
L 195.003871 183.813105 
L 196.11871 183.820242 
L 215.628387 184.36247 
L 226.405161 184.861272 
L 227.52 184.89141 
L 234.580645 185.253332 
L 242.012903 185.677029 
L 243.127742 185.712397 
L 251.303226 186.154333 
L 252.232258 186.194637 
L 256.134194 186.240363 
L 257.063226 186.038192 
L 257.620645 185.765855 
L 258.363871 184.96203 
L 258.92129 183.890011 
L 259.47871 182.226321 
L 260.221935 179.010143 
L 261.708387 171.872987 
L 262.265806 170.184201 
L 262.823226 169.230026 
L 263.194839 168.963873 
L 263.566452 168.970334 
L 263.938065 169.258602 
L 264.309677 169.848822 
L 264.867097 171.350361 
L 265.424516 173.665929 
L 266.539355 179.753545 
L 267.282581 183.360019 
L 268.025806 185.845948 
L 268.769032 187.439269 
L 269.512258 188.530804 
L 270.627097 189.736493 
L 271.927742 190.848202 
L 273.785806 192.156187 
L 275.272258 193.256852 
L 277.501935 195.172689 
L 278.059355 195.2192 
L 278.616774 194.984224 
L 279.545806 194.243892 
L 280.660645 193.377449 
L 281.403871 193.037658 
L 282.147097 192.909895 
L 283.447742 192.981555 
L 285.12 193.040387 
L 287.535484 192.820364 
L 304.072258 190.997032 
L 310.76129 190.616599 
L 319.308387 190.370106 
L 332.314839 190.241199 
L 357.956129 190.248833 
L 472.59871 190.581035 
L 472.59871 190.581035 
" style="fill:none;stroke:#ff7f0e;stroke-linecap:square;stroke-width:3;"/>
   </g>
   <g id="line2d_12">
    <path clip-path="url(#pf59142bac3)" d="M 101.357419 190.644799 
L 102.843871 190.22664 
L 103.587097 189.749847 
L 104.516129 188.859241 
L 105.816774 187.633718 
L 106.745806 187.116281 
L 107.860645 186.793964 
L 109.904516 186.503246 
L 115.292903 185.754797 
L 118.08 185.11049 
L 120.68129 184.278545 
L 124.954839 182.824387 
L 125.698065 182.892042 
L 126.255484 183.074467 
L 127.556129 183.840928 
L 128.485161 184.247316 
L 129.414194 184.398694 
L 131.086452 184.386404 
L 145.021935 183.831556 
L 152.268387 183.807517 
L 161.55871 184.082154 
L 163.230968 184.185279 
L 164.345806 184.239013 
L 173.264516 184.959345 
L 192.96 186.913188 
L 194.074839 186.982286 
L 198.162581 187.243704 
L 205.966452 187.577906 
L 217.858065 187.789602 
L 218.787097 187.769521 
L 227.334194 187.76476 
L 228.449032 187.740282 
L 234.023226 187.657889 
L 248.516129 187.1867 
L 255.762581 186.789528 
L 257.992258 186.487256 
L 258.92129 186.164598 
L 259.850323 185.556417 
L 260.593548 184.87206 
L 261.708387 183.873196 
L 262.451613 183.449784 
L 263.194839 183.310441 
L 263.752258 183.391972 
L 264.309677 183.658494 
L 264.867097 184.152971 
L 265.610323 185.177008 
L 267.84 188.698405 
L 268.769032 189.519239 
L 269.883871 190.164776 
L 271.556129 190.807692 
L 273.414194 191.251635 
L 277.316129 191.82865 
L 278.245161 191.764715 
L 281.96129 191.13406 
L 288.092903 191.225373 
L 297.569032 191.100243 
L 314.477419 191.172039 
L 345.87871 191.252662 
L 390.658065 191.10306 
L 472.59871 190.762667 
L 472.59871 190.762667 
" style="fill:none;stroke:#2ca02c;stroke-linecap:square;stroke-width:3;"/>
   </g>
   <g id="line2d_13">
    <path clip-path="url(#pf59142bac3)" d="M 100.8 190.748484 
L 472.412903 190.748484 
" style="fill:none;stroke:#000000;stroke-dasharray:3.2,0.8,0.5,0.8;stroke-dashoffset:0;stroke-width:0.5;"/>
   </g>
   <g id="line2d_14">
    <path clip-path="url(#pf59142bac3)" d="M 286.606452 337.437788 
L 286.606452 72 
" style="fill:none;stroke:#000000;stroke-linecap:square;stroke-width:0.5;"/>
   </g>
   <g id="line2d_15">
    <path clip-path="url(#pf59142bac3)" d="M 323.767742 337.437788 
L 323.767742 72 
" style="fill:none;stroke:#000000;stroke-dasharray:3.2,0.8,0.5,0.8;stroke-dashoffset:0;stroke-opacity:0.25;stroke-width:0.5;"/>
   </g>
   <g id="line2d_16">
    <path clip-path="url(#pf59142bac3)" d="M 360.929032 337.437788 
L 360.929032 72 
" style="fill:none;stroke:#000000;stroke-dasharray:3.2,0.8,0.5,0.8;stroke-dashoffset:0;stroke-opacity:0.25;stroke-width:0.5;"/>
   </g>
   <g id="line2d_17">
    <path clip-path="url(#pf59142bac3)" d="M 398.090323 337.437788 
L 398.090323 72 
" style="fill:none;stroke:#000000;stroke-dasharray:3.2,0.8,0.5,0.8;stroke-dashoffset:0;stroke-opacity:0.25;stroke-width:0.5;"/>
   </g>
   <g id="patch_3">
    <path d="M 100.8 337.437788 
L 100.8 72 
" style="fill:none;stroke:#000000;stroke-linecap:square;stroke-linejoin:miter;stroke-width:0.8;"/>
   </g>
   <g id="patch_4">
    <path d="M 472.412903 337.437788 
L 472.412903 72 
" style="fill:none;stroke:#000000;stroke-linecap:square;stroke-linejoin:miter;stroke-width:0.8;"/>
   </g>
   <g id="patch_5">
    <path d="M 100.8 337.437788 
L 472.412903 337.437788 
" style="fill:none;stroke:#000000;stroke-linecap:square;stroke-linejoin:miter;stroke-width:0.8;"/>
   </g>
   <g id="patch_6">
    <path d="M 100.8 72 
L 472.412903 72 
" style="fill:none;stroke:#000000;stroke-linecap:square;stroke-linejoin:miter;stroke-width:0.8;"/>
   </g>
  </g>
  <g id="axes_2">
   <g id="patch_7">
    <path d="M 535.587097 337.437788 
L 907.2 337.437788 
L 907.2 72 
L 535.587097 72 
z
" style="fill:#ffffff;"/>
   </g>
   <g id="matplotlib.axis_3">
    <g id="xtick_6">
     <g id="line2d_18">
      <g>
       <use style="fill:#ffffff;stroke:#000000;stroke-width:0.8;" x="535.587097" xlink:href="#mb07c4e5c68" y="337.437788"/>
      </g>
     </g>
    </g>
    <g id="xtick_7">
     <g id="line2d_19">
      <g>
       <use style="fill:#ffffff;stroke:#000000;stroke-width:0.8;" x="628.490323" xlink:href="#mb07c4e5c68" y="337.437788"/>
      </g>
     </g>
    </g>
    <g id="xtick_8">
     <g id="line2d_20">
      <g>
       <use style="fill:#ffffff;stroke:#000000;stroke-width:0.8;" x="721.393548" xlink:href="#mb07c4e5c68" y="337.437788"/>
      </g>
     </g>
    </g>
    <g id="xtick_9">
     <g id="line2d_21">
      <g>
       <use style="fill:#ffffff;stroke:#000000;stroke-width:0.8;" x="814.296774" xlink:href="#mb07c4e5c68" y="337.437788"/>
      </g>
     </g>
    </g>
    <g id="xtick_10">
     <g id="line2d_22">
      <g>
       <use style="fill:#ffffff;stroke:#000000;stroke-width:0.8;" x="907.2" xlink:href="#mb07c4e5c68" y="337.437788"/>
      </g>
     </g>
    </g>
   </g>
   <g id="matplotlib.axis_4">
    <g id="ytick_5">
     <g id="line2d_23">
      <g>
       <use style="fill:#ffffff;stroke:#000000;stroke-width:0.8;" x="535.587097" xlink:href="#m5d8bfef312" y="330.452583"/>
      </g>
     </g>
    </g>
    <g id="ytick_6">
     <g id="line2d_24">
      <g>
       <use style="fill:#ffffff;stroke:#000000;stroke-width:0.8;" x="535.587097" xlink:href="#m5d8bfef312" y="260.600534"/>
      </g>
     </g>
    </g>
    <g id="ytick_7">
     <g id="line2d_25">
      <g>
       <use style="fill:#ffffff;stroke:#000000;stroke-width:0.8;" x="535.587097" xlink:href="#m5d8bfef312" y="190.748484"/>
      </g>
     </g>
    </g>
    <g id="ytick_8">
     <g id="line2d_26">
      <g>
       <use style="fill:#ffffff;stroke:#000000;stroke-width:0.8;" x="535.587097" xlink:href="#m5d8bfef312" y="120.896435"/>
      </g>
     </g>
    </g>
    <g id="text_6">
     <!-- $C_d$ -->
     <defs>
      <path d="M 52.09375 68.296875 
L 52.703125 67.703125 
L 48.796875 52.5 
L 42.796875 30.59375 
Q 36.296875 6.703125 36.296875 6 
Q 36.296875 4 38.09375 4 
Q 39.40625 4 40.84375 5.25 
Q 42.296875 6.5 46.296875 11.09375 
L 47.5 10.09375 
Q 39.796875 -1.296875 32.796875 -1.296875 
Q 30.90625 -1.296875 29.796875 -0.09375 
Q 28.703125 1.09375 28.703125 3.203125 
Q 28.703125 6.203125 30 12.09375 
Q 25.703125 4.796875 21.546875 1.84375 
Q 17.40625 -1.09375 12.203125 -1.09375 
Q 7.203125 -1.09375 4.34375 1.953125 
Q 1.5 5 1.5 10.59375 
Q 1.5 22.5 11.140625 33.296875 
Q 20.796875 44.09375 30.703125 44.09375 
Q 33.796875 44.09375 35.25 42.6875 
Q 36.703125 41.296875 37.203125 38.296875 
L 37.296875 38.296875 
L 41.796875 54.59375 
Q 43.203125 59.5 43.203125 61.703125 
Q 43.203125 63.296875 42.09375 63.6875 
Q 41 64.09375 36.796875 64.296875 
L 36.796875 66 
Q 44.5 66.703125 52.09375 68.296875 
z
M 35.59375 36.09375 
Q 35.59375 38.703125 34.140625 40.25 
Q 32.703125 41.796875 30.90625 41.796875 
Q 26.203125 41.796875 21.796875 37.203125 
Q 16.796875 31.90625 13.5 24.546875 
Q 10.203125 17.203125 10.203125 11 
Q 10.203125 7.59375 11.75 5.640625 
Q 13.296875 3.703125 16 3.703125 
Q 20.5 3.703125 25.09375 8.59375 
Q 29.703125 13.5 32.640625 21.09375 
Q 35.59375 28.703125 35.59375 36.09375 
z
" id="STIXGeneral-Italic-100"/>
     </defs>
     <g transform="translate(520.680534 214.348894)rotate(-90)scale(0.18 -0.18)">
      <use transform="translate(0 0.40625)" xlink:href="#STIXGeneral-Italic-67"/>
      <use transform="translate(66.699997 -12.821875)scale(0.7)" xlink:href="#STIXGeneral-Italic-100"/>
     </g>
    </g>
   </g>
   <g id="line2d_27">
    <path clip-path="url(#pdf518f9727)" d="M 536.144516 190.331782 
L 537.259355 189.279169 
L 537.816774 188.261956 
L 538.374194 186.735514 
L 539.117419 183.931054 
L 540.418065 178.745983 
L 541.16129 176.736778 
L 541.904516 175.464211 
L 542.647742 174.663217 
L 543.576774 174.012405 
L 544.877419 173.38989 
L 547.292903 172.525098 
L 557.512258 169.245151 
L 558.44129 169.16135 
L 558.99871 169.297173 
L 559.556129 169.695252 
L 559.927742 170.159278 
L 560.485161 171.258529 
L 561.042581 172.900397 
L 563.086452 179.880803 
L 563.643871 180.964949 
L 564.20129 181.68009 
L 564.944516 182.25457 
L 565.873548 182.649536 
L 569.403871 183.13532 
L 574.420645 183.41197 
L 581.852903 183.638768 
L 591.329032 183.800934 
L 609.352258 183.962692 
L 610.28129 183.962679 
L 621.80129 184.019746 
L 622.544516 184.019844 
L 630.534194 184.037608 
L 688.32 184.086203 
L 689.434839 184.000136 
L 690.549677 183.677876 
L 690.92129 183.441447 
L 691.292903 183.112866 
L 691.850323 182.284104 
L 692.221935 181.397815 
L 692.593548 180.114708 
L 693.150968 177.064403 
L 693.708387 172.003886 
L 694.265806 164.171859 
L 694.823226 153.218134 
L 697.052903 103.491191 
L 697.796129 93.857231 
L 698.353548 88.952167 
L 698.725161 86.800504 
L 699.096774 85.732065 
L 699.282581 85.668259 
L 699.468387 85.943359 
L 699.654194 86.597098 
L 700.025806 89.207119 
L 700.397419 93.615952 
L 701.140645 106.650375 
L 702.255484 126.776718 
L 702.99871 135.581504 
L 703.556129 139.936675 
L 704.299355 143.862133 
L 705.042581 146.75065 
L 708.015484 156.651562 
L 708.572903 159.448218 
L 709.130323 163.341869 
L 709.687742 169.072523 
L 710.245161 177.818121 
L 710.802581 190.964224 
L 711.36 209.47446 
L 712.289032 249.978277 
L 713.218065 289.665403 
L 713.96129 312.401761 
L 714.51871 323.566042 
L 714.890323 328.295896 
L 715.261935 330.890461 
L 715.447742 331.344938 
L 715.633548 331.171106 
L 715.819355 330.383828 
L 716.190968 326.783 
L 716.562581 320.237753 
L 717.12 304.889982 
L 719.163871 236.43342 
L 719.72129 226.782527 
L 720.27871 221.105112 
L 720.836129 217.959176 
L 721.393548 216.302081 
L 721.950968 215.425344 
L 722.508387 214.921045 
L 725.852903 212.89272 
L 728.64 210.483462 
L 735.143226 203.977865 
L 737.744516 201.703706 
L 740.16 199.901384 
L 742.203871 198.595231 
L 744.433548 197.392818 
L 746.663226 196.382159 
L 749.264516 195.415725 
L 752.237419 194.535168 
L 755.767742 193.724194 
L 761.713548 192.773883 
L 768.774194 192.061487 
L 776.206452 191.5806 
L 783.08129 191.290464 
L 792 191.041511 
L 797.016774 190.935799 
L 815.969032 190.696127 
L 857.589677 190.519585 
L 907.385806 190.496324 
L 907.385806 190.496324 
" style="fill:none;stroke:#1f77b4;stroke-linecap:square;stroke-width:3;"/>
   </g>
   <g id="line2d_28">
    <path clip-path="url(#pdf518f9727)" d="M 536.144516 190.530508 
L 537.445161 189.834484 
L 538.002581 189.22162 
L 538.745806 187.973426 
L 540.975484 183.558852 
L 541.71871 182.74673 
L 542.647742 182.108011 
L 543.948387 181.556495 
L 546.363871 180.85631 
L 553.796129 178.836426 
L 558.627097 177.360713 
L 559.370323 177.380714 
L 559.927742 177.594235 
L 560.485161 178.055279 
L 561.042581 178.799426 
L 563.272258 182.362585 
L 564.015484 182.950004 
L 564.75871 183.272242 
L 566.059355 183.536578 
L 568.289032 183.704089 
L 575.163871 183.891342 
L 587.24129 184.026419 
L 642.054194 184.385822 
L 650.972903 184.558736 
L 690.363871 185.454098 
L 691.664516 185.235812 
L 692.407742 184.88171 
L 693.150968 184.054991 
L 693.708387 182.96052 
L 694.265806 181.259189 
L 695.009032 177.932657 
L 697.052903 167.503385 
L 697.796129 165.033063 
L 698.539355 163.312057 
L 699.096774 162.630981 
L 699.468387 162.583364 
L 699.84 162.956377 
L 700.211613 163.829657 
L 700.769032 166.009082 
L 702.812903 175.695094 
L 703.556129 177.809172 
L 704.485161 179.758785 
L 707.086452 184.353107 
L 708.387097 186.99155 
L 709.130323 188.988216 
L 709.687742 190.994604 
L 710.245161 193.75952 
L 710.802581 197.632663 
L 711.545806 204.908352 
L 713.775484 229.921523 
L 714.332903 233.532947 
L 714.890323 235.791971 
L 715.261935 236.529134 
L 715.447742 236.646919 
L 715.633548 236.594536 
L 715.819355 236.355317 
L 716.190968 235.256117 
L 716.562581 233.267188 
L 717.12 228.608035 
L 719.349677 206.094144 
L 719.907097 203.368166 
L 720.464516 201.716874 
L 721.021935 200.776207 
L 721.579355 200.256176 
L 722.322581 199.916891 
L 723.251613 199.75041 
L 728.825806 199.115754 
L 732.727742 198.172517 
L 745.734194 194.713887 
L 750.379355 193.822177 
L 755.210323 193.115772 
L 760.970323 192.504893 
L 767.845161 192.014209 
L 776.392258 191.633705 
L 789.212903 191.309732 
L 810.209032 191.034375 
L 847.741935 190.795325 
L 905.527742 190.70608 
L 907.385806 190.705551 
L 907.385806 190.705551 
" style="fill:none;stroke:#ff7f0e;stroke-linecap:square;stroke-width:3;"/>
   </g>
   <g id="line2d_29">
    <path clip-path="url(#pdf518f9727)" d="M 536.144516 190.632542 
L 537.445161 190.266864 
L 538.188387 189.8028 
L 538.931613 189.077197 
L 540.975484 186.871932 
L 541.904516 186.303924 
L 543.205161 185.825479 
L 545.620645 185.253834 
L 551.752258 183.867085 
L 554.910968 182.912367 
L 558.99871 181.537142 
L 559.927742 181.476624 
L 560.670968 181.672798 
L 561.414194 182.142299 
L 563.086452 183.379275 
L 563.829677 183.697839 
L 565.687742 183.976886 
L 569.589677 184.081678 
L 576.27871 184.130951 
L 577.950968 184.126764 
L 595.974194 184.369347 
L 608.237419 184.883024 
L 618.456774 185.419877 
L 619.757419 185.47584 
L 621.429677 185.561157 
L 622.544516 185.589669 
L 627.747097 185.787998 
L 628.676129 185.794815 
L 634.250323 185.907456 
L 641.868387 186.00104 
L 643.169032 186.000406 
L 644.283871 186.001088 
L 662.12129 186.139099 
L 663.236129 186.133468 
L 669.925161 186.199069 
L 671.04 186.188815 
L 677.729032 186.219291 
L 678.843871 186.199224 
L 684.418065 186.157752 
L 692.221935 185.923014 
L 693.522581 185.626293 
L 694.265806 185.254527 
L 695.194839 184.521172 
L 697.23871 182.676435 
L 698.353548 182.080247 
L 699.096774 181.953458 
L 699.654194 182.111335 
L 700.211613 182.558468 
L 700.954839 183.619378 
L 702.99871 186.938813 
L 704.113548 188.169194 
L 706.343226 190.238547 
L 708.572903 192.377879 
L 709.687742 193.753722 
L 710.430968 195.042559 
L 711.174194 196.857291 
L 712.103226 199.878135 
L 713.218065 203.518762 
L 713.96129 205.249572 
L 714.51871 206.095276 
L 715.076129 206.547158 
L 715.447742 206.606835 
L 715.819355 206.442694 
L 716.190968 206.022994 
L 716.562581 205.318888 
L 717.12 203.713589 
L 718.234839 199.340096 
L 718.978065 196.801223 
L 719.72129 195.105988 
L 720.27871 194.309451 
L 721.021935 193.647563 
L 721.950968 193.177874 
L 723.251613 192.798762 
L 725.295484 192.415174 
L 729.940645 191.815289 
L 735.143226 191.391171 
L 741.460645 191.117888 
L 751.308387 190.956345 
L 776.763871 190.856347 
L 835.107097 190.817707 
L 907.385806 190.86996 
L 907.385806 190.86996 
" style="fill:none;stroke:#2ca02c;stroke-linecap:square;stroke-width:3;"/>
   </g>
   <g id="line2d_30">
    <path clip-path="url(#pdf518f9727)" d="M 535.587097 190.748484 
L 907.2 190.748484 
" style="fill:none;stroke:#000000;stroke-dasharray:3.2,0.8,0.5,0.8;stroke-dashoffset:0;stroke-width:0.5;"/>
   </g>
   <g id="line2d_31">
    <path clip-path="url(#pdf518f9727)" d="M 721.393548 337.437788 
L 721.393548 72 
" style="fill:none;stroke:#000000;stroke-linecap:square;stroke-width:0.5;"/>
   </g>
   <g id="line2d_32">
    <path clip-path="url(#pdf518f9727)" d="M 758.554839 337.437788 
L 758.554839 72 
" style="fill:none;stroke:#000000;stroke-dasharray:3.2,0.8,0.5,0.8;stroke-dashoffset:0;stroke-opacity:0.25;stroke-width:0.5;"/>
   </g>
   <g id="line2d_33">
    <path clip-path="url(#pdf518f9727)" d="M 795.716129 337.437788 
L 795.716129 72 
" style="fill:none;stroke:#000000;stroke-dasharray:3.2,0.8,0.5,0.8;stroke-dashoffset:0;stroke-opacity:0.25;stroke-width:0.5;"/>
   </g>
   <g id="line2d_34">
    <path clip-path="url(#pdf518f9727)" d="M 832.877419 337.437788 
L 832.877419 72 
" style="fill:none;stroke:#000000;stroke-dasharray:3.2,0.8,0.5,0.8;stroke-dashoffset:0;stroke-opacity:0.25;stroke-width:0.5;"/>
   </g>
   <g id="patch_8">
    <path d="M 535.587097 337.437788 
L 535.587097 72 
" style="fill:none;stroke:#000000;stroke-linecap:square;stroke-linejoin:miter;stroke-width:0.8;"/>
   </g>
   <g id="patch_9">
    <path d="M 907.2 337.437788 
L 907.2 72 
" style="fill:none;stroke:#000000;stroke-linecap:square;stroke-linejoin:miter;stroke-width:0.8;"/>
   </g>
   <g id="patch_10">
    <path d="M 535.587097 337.437788 
L 907.2 337.437788 
" style="fill:none;stroke:#000000;stroke-linecap:square;stroke-linejoin:miter;stroke-width:0.8;"/>
   </g>
   <g id="patch_11">
    <path d="M 535.587097 72 
L 907.2 72 
" style="fill:none;stroke:#000000;stroke-linecap:square;stroke-linejoin:miter;stroke-width:0.8;"/>
   </g>
   <g id="text_7">
    <!-- $Re = 10^2$ -->
    <defs>
     <path d="M 13.203125 65.296875 
L 38.40625 65.296875 
Q 48.09375 65.296875 53.4375 61.5 
Q 58.796875 57.703125 58.796875 51.203125 
Q 58.796875 43.40625 52.203125 38.40625 
Q 48.296875 35.40625 39.09375 33.296875 
L 48 9.796875 
Q 49.703125 5.203125 51.546875 3.390625 
Q 53.40625 1.59375 56.703125 1.59375 
L 56.703125 0 
L 42 0 
L 29.703125 32.40625 
L 23.09375 32.90625 
L 17.59375 12.59375 
Q 16.296875 8 16.296875 6.296875 
Q 16.296875 4 17.59375 3 
Q 18.90625 2 23 1.59375 
L 23 0 
L -1.296875 0 
L -1.296875 1.59375 
Q 2.703125 2.09375 4.34375 3.796875 
Q 6 5.5 7.203125 10.09375 
L 19.09375 53.203125 
Q 20.296875 57.796875 20.296875 59.5 
Q 20.296875 61.296875 18.90625 62.296875 
Q 17.703125 63.09375 13.203125 63.703125 
z
M 30.59375 59.296875 
L 24.296875 36.59375 
Q 27.40625 36.09375 29.40625 36.09375 
Q 38.296875 36.09375 43.296875 40.09375 
Q 48.296875 44.09375 48.296875 51.09375 
Q 48.296875 56.296875 45.1875 59.296875 
Q 42.09375 62.296875 36.296875 62.296875 
Q 31.40625 62.296875 30.59375 59.296875 
z
" id="STIXGeneral-Italic-82"/>
     <path d="M 35.796875 10.90625 
L 37 9.703125 
Q 28.203125 -1.09375 16.59375 -1.09375 
Q 10.5 -1.09375 6.796875 2.65625 
Q 3.09375 6.40625 3.09375 12.59375 
Q 3.09375 24.296875 12.4375 34.1875 
Q 21.796875 44.09375 33 44.09375 
Q 36.90625 44.09375 39.046875 42.296875 
Q 41.203125 40.5 41.203125 37.296875 
Q 41.203125 30.703125 33.546875 25.5 
Q 25.90625 20.296875 12.796875 18.59375 
Q 11.796875 16.59375 11.796875 12.5 
Q 11.796875 8.40625 14.34375 5.90625 
Q 16.90625 3.40625 21.09375 3.40625 
Q 24.40625 3.40625 27.40625 4.953125 
Q 30.40625 6.5 35.796875 10.90625 
z
M 15.203125 25.203125 
L 13.5 20.796875 
Q 24.703125 23.5 29.59375 28.203125 
Q 34.59375 33 34.59375 37.90625 
Q 34.59375 41.796875 31.09375 41.796875 
Q 26.90625 41.796875 22.34375 36.9375 
Q 17.796875 32.09375 15.203125 25.203125 
z
" id="STIXGeneral-Italic-101"/>
     <path d="M 63.703125 32 
L 4.796875 32 
L 4.796875 38.59375 
L 63.703125 38.59375 
z
M 63.703125 12 
L 4.796875 12 
L 4.796875 18.59375 
L 63.703125 18.59375 
z
" id="STIXGeneral-Regular-61"/>
     <path d="M 39.40625 0 
L 11.796875 0 
L 11.796875 1.5 
Q 17.296875 1.796875 19.296875 3.546875 
Q 21.296875 5.296875 21.296875 9.5 
L 21.296875 54.40625 
Q 21.296875 59.296875 18.296875 59.296875 
Q 16.90625 59.296875 13.796875 58.09375 
L 11.09375 57.09375 
L 11.09375 58.5 
L 29 67.59375 
L 29.90625 67.296875 
L 29.90625 7.59375 
Q 29.90625 4.296875 31.90625 2.890625 
Q 33.90625 1.5 39.40625 1.5 
z
" id="STIXGeneral-Regular-49"/>
    </defs>
    <g transform="translate(924.549677 208.912332)scale(0.18 -0.18)">
     <use transform="translate(0 0.409375)" xlink:href="#STIXGeneral-Italic-82"/>
     <use transform="translate(61.099991 0.409375)" xlink:href="#STIXGeneral-Italic-101"/>
     <use transform="translate(119.939981 0.409375)" xlink:href="#STIXGeneral-Regular-61"/>
     <use transform="translate(202.879962 0.409375)" xlink:href="#STIXGeneral-Regular-49"/>
     <use transform="translate(252.879947 0.409375)" xlink:href="#STIXGeneral-Regular-48"/>
     <use transform="translate(304.423213 35.684375)scale(0.7)" xlink:href="#STIXGeneral-Regular-50"/>
    </g>
   </g>
   <g id="legend_1">
    <g id="line2d_35">
     <path d="M 348.923712 42.963698 
L 378.911712 42.963698 
" style="fill:none;stroke:#1f77b4;stroke-linecap:square;stroke-width:3;"/>
    </g>
    <g id="line2d_36"/>
    <g id="text_8">
     <!-- $s/c = 1.5$ -->
     <defs>
      <path d="M 36.59375 44.203125 
L 34.59375 30.203125 
L 33 30.203125 
Q 31.59375 41.796875 24.09375 41.796875 
Q 21.40625 41.796875 19.796875 40.296875 
Q 18.203125 38.796875 18.203125 36.09375 
Q 18.203125 32.296875 23.59375 25.90625 
Q 30.40625 18 30.40625 12.296875 
Q 30.40625 6.203125 26.34375 2.546875 
Q 22.296875 -1.09375 16 -1.09375 
Q 13.09375 -1.09375 10.5 -0.09375 
Q 8.40625 0.796875 6.09375 0.796875 
Q 4.09375 0.796875 3.203125 -1.296875 
L 1.59375 -1.296875 
L 3.59375 14.59375 
L 5.203125 14.59375 
Q 7.203125 1 15.203125 1 
Q 18.796875 1 20.796875 3 
Q 22.796875 5 22.796875 8.703125 
Q 22.796875 13.203125 17.203125 20.203125 
Q 10.90625 28.09375 10.90625 33.296875 
Q 10.90625 38.296875 14.203125 41.1875 
Q 17.5 44.09375 23 44.09375 
Q 25 44.09375 28.59375 43.09375 
Q 30.796875 42.40625 32.203125 42.40625 
Q 34.203125 42.40625 35.203125 44.203125 
z
" id="STIXGeneral-Italic-115"/>
      <path d="M 28.703125 67.59375 
L 5.90625 -1.40625 
L -0.90625 -1.40625 
L 22 67.59375 
z
" id="STIXGeneral-Regular-47"/>
      <path d="M 35 10.703125 
L 36.59375 9.703125 
Q 32 3.90625 27.640625 1.40625 
Q 23.296875 -1.09375 17.703125 -1.09375 
Q 10.59375 -1.09375 6.796875 2.796875 
Q 3 6.703125 3 14.296875 
Q 3 21 6.390625 27.25 
Q 9.796875 33.5 15.296875 38 
Q 23 44.09375 32 44.09375 
Q 36.59375 44.09375 39.546875 41.796875 
Q 42.5 39.5 42.5 36 
Q 42.5 34 41.09375 32.59375 
Q 39.703125 31.203125 37.703125 31.203125 
Q 35.703125 31.203125 34.75 32.34375 
Q 33.796875 33.5 33.796875 35.203125 
Q 33.796875 36.09375 34.546875 37.546875 
Q 35.296875 39 35.296875 40 
Q 35.296875 42 31.59375 42 
Q 25.296875 42 20.703125 37.203125 
Q 11.59375 27.59375 11.59375 13.90625 
Q 11.59375 8.5 13.890625 5.5 
Q 16.203125 2.5 20.5 2.5 
Q 24.40625 2.5 27.59375 4.390625 
Q 30.796875 6.296875 35 10.703125 
z
" id="STIXGeneral-Italic-99"/>
      <path d="M 18.09375 4.296875 
Q 18.09375 2.09375 16.4375 0.5 
Q 14.796875 -1.09375 12.5 -1.09375 
Q 10.203125 -1.09375 8.59375 0.5 
Q 7 2.09375 7 4.390625 
Q 7 6.703125 8.640625 8.34375 
Q 10.296875 10 12.59375 10 
Q 14.796875 10 16.4375 8.296875 
Q 18.09375 6.59375 18.09375 4.296875 
z
" id="STIXGeneral-Regular-46"/>
      <path d="M 43.796875 68.09375 
L 40.203125 59.59375 
Q 39.59375 58.296875 37.5 58.296875 
L 18.09375 58.296875 
L 14.09375 49.796875 
Q 25.09375 47.703125 30 45.25 
Q 34.90625 42.796875 39.09375 37 
Q 42.59375 32.203125 42.59375 24.296875 
Q 42.59375 17.09375 40.25 12.1875 
Q 37.90625 7.296875 32.796875 3.5 
Q 26 -1.40625 15.796875 -1.40625 
Q 10.09375 -1.40625 6.59375 0.296875 
Q 3.09375 2 3.09375 4.796875 
Q 3.09375 8.59375 7.59375 8.59375 
Q 11.203125 8.59375 15 5.5 
Q 18.90625 2.296875 22.09375 2.296875 
Q 27.296875 2.296875 31.4375 7.5 
Q 35.59375 12.703125 35.59375 19.203125 
Q 35.59375 28.796875 28.90625 34.203125 
Q 20.203125 41.203125 7.59375 41.203125 
Q 6.40625 41.203125 6.40625 42 
L 6.5 42.5 
L 17.40625 66.203125 
L 38.09375 66.203125 
Q 39.796875 66.203125 40.75 66.703125 
Q 41.703125 67.203125 42.90625 68.796875 
z
" id="STIXGeneral-Regular-53"/>
     </defs>
     <g transform="translate(390.906912 48.211598)scale(0.14994 -0.14994)">
      <use transform="translate(0 0.203125)" xlink:href="#STIXGeneral-Italic-115"/>
      <use transform="translate(38.899994 0.203125)" xlink:href="#STIXGeneral-Regular-47"/>
      <use transform="translate(66.699982 0.203125)" xlink:href="#STIXGeneral-Italic-99"/>
      <use transform="translate(125.539972 0.203125)" xlink:href="#STIXGeneral-Regular-61"/>
      <use transform="translate(208.479953 0.203125)" xlink:href="#STIXGeneral-Regular-49"/>
      <use transform="translate(258.479938 0.203125)" xlink:href="#STIXGeneral-Regular-46"/>
      <use transform="translate(283.479922 0.203125)" xlink:href="#STIXGeneral-Regular-53"/>
     </g>
    </g>
    <g id="line2d_37">
     <path d="M 470.974872 42.963698 
L 500.962872 42.963698 
" style="fill:none;stroke:#ff7f0e;stroke-linecap:square;stroke-width:3;"/>
    </g>
    <g id="line2d_38"/>
    <g id="text_9">
     <!-- $s/c = 3.0$ -->
     <defs>
      <path d="M 6.09375 51 
L 4.5 51.40625 
Q 6.796875 58.90625 11.6875 63.25 
Q 16.59375 67.59375 24.09375 67.59375 
Q 31.09375 67.59375 35.390625 63.796875 
Q 39.703125 60 39.703125 53.90625 
Q 39.703125 45.703125 30.40625 40.09375 
Q 35.90625 37.703125 38.703125 34.796875 
Q 43.09375 29.90625 43.09375 21.90625 
Q 43.09375 13.90625 38.5 7.90625 
Q 35.09375 3.296875 28.75 0.9375 
Q 22.40625 -1.40625 15.296875 -1.40625 
Q 4.09375 -1.40625 4.09375 4.296875 
Q 4.09375 5.90625 5.296875 6.90625 
Q 6.5 7.90625 8.203125 7.90625 
Q 10.703125 7.90625 14.296875 5.296875 
Q 18.703125 2.203125 22.90625 2.203125 
Q 28.40625 2.203125 32.15625 6.640625 
Q 35.90625 11.09375 35.90625 17.5 
Q 35.90625 29 25.5 32 
Q 22.40625 33 15.296875 33 
L 15.296875 34.40625 
Q 20.90625 36.296875 23.703125 38 
Q 31.796875 42.59375 31.796875 51.40625 
Q 31.796875 56.40625 28.9375 59 
Q 26.09375 61.59375 21 61.59375 
Q 12 61.59375 6.09375 51 
z
" id="STIXGeneral-Regular-51"/>
     </defs>
     <g transform="translate(512.958072 48.211598)scale(0.14994 -0.14994)">
      <use transform="translate(0 0.40625)" xlink:href="#STIXGeneral-Italic-115"/>
      <use transform="translate(38.899994 0.40625)" xlink:href="#STIXGeneral-Regular-47"/>
      <use transform="translate(66.699982 0.40625)" xlink:href="#STIXGeneral-Italic-99"/>
      <use transform="translate(125.539972 0.40625)" xlink:href="#STIXGeneral-Regular-61"/>
      <use transform="translate(208.479953 0.40625)" xlink:href="#STIXGeneral-Regular-51"/>
      <use transform="translate(258.479938 0.40625)" xlink:href="#STIXGeneral-Regular-46"/>
      <use transform="translate(283.479922 0.40625)" xlink:href="#STIXGeneral-Regular-48"/>
     </g>
    </g>
    <g id="line2d_39">
     <path d="M 593.026032 42.963698 
L 623.014032 42.963698 
" style="fill:none;stroke:#2ca02c;stroke-linecap:square;stroke-width:3;"/>
    </g>
    <g id="line2d_40"/>
    <g id="text_10">
     <!-- $s/c = 6.0$ -->
     <defs>
      <path d="M 44.59375 68.40625 
L 44.796875 66.796875 
Q 33 64.90625 25.09375 57.25 
Q 17.203125 49.59375 15.203125 38.296875 
Q 21 42.796875 27.90625 42.796875 
Q 36.703125 42.796875 41.75 37.1875 
Q 46.796875 31.59375 46.796875 21.90625 
Q 46.796875 12.09375 41.703125 5.90625 
Q 35.796875 -1.40625 25.796875 -1.40625 
Q 13.59375 -1.40625 8.09375 8.703125 
Q 3.40625 17.296875 3.40625 27.90625 
Q 3.40625 44.296875 14.296875 55.5 
Q 20.5 61.90625 27.046875 64.546875 
Q 33.59375 67.203125 44.59375 68.40625 
z
M 37.796875 18.796875 
Q 37.796875 38.203125 24.296875 38.203125 
Q 19.296875 38.203125 16 35.546875 
Q 12.703125 32.90625 12.703125 26.59375 
Q 12.703125 14.90625 16.34375 8.15625 
Q 20 1.40625 26.90625 1.40625 
Q 32.203125 1.40625 35 6.15625 
Q 37.796875 10.90625 37.796875 18.796875 
z
" id="STIXGeneral-Regular-54"/>
     </defs>
     <g transform="translate(635.009232 48.211598)scale(0.14994 -0.14994)">
      <use transform="translate(0 0.59375)" xlink:href="#STIXGeneral-Italic-115"/>
      <use transform="translate(38.899994 0.59375)" xlink:href="#STIXGeneral-Regular-47"/>
      <use transform="translate(66.699982 0.59375)" xlink:href="#STIXGeneral-Italic-99"/>
      <use transform="translate(125.539972 0.59375)" xlink:href="#STIXGeneral-Regular-61"/>
      <use transform="translate(208.479953 0.59375)" xlink:href="#STIXGeneral-Regular-54"/>
      <use transform="translate(258.479938 0.59375)" xlink:href="#STIXGeneral-Regular-46"/>
      <use transform="translate(283.479922 0.59375)" xlink:href="#STIXGeneral-Regular-48"/>
     </g>
    </g>
   </g>
  </g>
  <g id="axes_3">
   <g id="patch_12">
    <path d="M 100.8 648 
L 472.412903 648 
L 472.412903 382.562212 
L 100.8 382.562212 
z
" style="fill:#ffffff;"/>
   </g>
   <g id="matplotlib.axis_5">
    <g id="xtick_11">
     <g id="line2d_41">
      <g>
       <use style="fill:#ffffff;stroke:#000000;stroke-width:0.8;" x="100.8" xlink:href="#mb07c4e5c68" y="648"/>
      </g>
     </g>
     <g id="text_11">
      <!-- 0.0 -->
      <g transform="translate(89.55 667.293437)scale(0.18 -0.18)">
       <use xlink:href="#STIXGeneral-Regular-48"/>
       <use x="49.999985" xlink:href="#STIXGeneral-Regular-46"/>
       <use x="74.999969" xlink:href="#STIXGeneral-Regular-48"/>
      </g>
     </g>
    </g>
    <g id="xtick_12">
     <g id="line2d_42">
      <g>
       <use style="fill:#ffffff;stroke:#000000;stroke-width:0.8;" x="193.703226" xlink:href="#mb07c4e5c68" y="648"/>
      </g>
     </g>
     <g id="text_12">
      <!-- 0.5 -->
      <g transform="translate(182.453226 667.293437)scale(0.18 -0.18)">
       <use xlink:href="#STIXGeneral-Regular-48"/>
       <use x="49.999985" xlink:href="#STIXGeneral-Regular-46"/>
       <use x="74.999969" xlink:href="#STIXGeneral-Regular-53"/>
      </g>
     </g>
    </g>
    <g id="xtick_13">
     <g id="line2d_43">
      <g>
       <use style="fill:#ffffff;stroke:#000000;stroke-width:0.8;" x="286.606452" xlink:href="#mb07c4e5c68" y="648"/>
      </g>
     </g>
     <g id="text_13">
      <!-- 1.0 -->
      <g transform="translate(275.356452 667.293437)scale(0.18 -0.18)">
       <use xlink:href="#STIXGeneral-Regular-49"/>
       <use x="49.999985" xlink:href="#STIXGeneral-Regular-46"/>
       <use x="74.999969" xlink:href="#STIXGeneral-Regular-48"/>
      </g>
     </g>
    </g>
    <g id="xtick_14">
     <g id="line2d_44">
      <g>
       <use style="fill:#ffffff;stroke:#000000;stroke-width:0.8;" x="379.509677" xlink:href="#mb07c4e5c68" y="648"/>
      </g>
     </g>
     <g id="text_14">
      <!-- 1.5 -->
      <g transform="translate(368.259677 667.293437)scale(0.18 -0.18)">
       <use xlink:href="#STIXGeneral-Regular-49"/>
       <use x="49.999985" xlink:href="#STIXGeneral-Regular-46"/>
       <use x="74.999969" xlink:href="#STIXGeneral-Regular-53"/>
      </g>
     </g>
    </g>
    <g id="xtick_15">
     <g id="line2d_45">
      <g>
       <use style="fill:#ffffff;stroke:#000000;stroke-width:0.8;" x="472.412903" xlink:href="#mb07c4e5c68" y="648"/>
      </g>
     </g>
     <g id="text_15">
      <!-- 2.0 -->
      <g transform="translate(461.162903 667.293437)scale(0.18 -0.18)">
       <use xlink:href="#STIXGeneral-Regular-50"/>
       <use x="49.999985" xlink:href="#STIXGeneral-Regular-46"/>
       <use x="74.999969" xlink:href="#STIXGeneral-Regular-48"/>
      </g>
     </g>
    </g>
    <g id="text_16">
     <!-- $\^t$ -->
     <defs>
      <path d="M -7.5 50.703125 
L -10.90625 50.703125 
L -23.09375 61 
L -35.203125 50.703125 
L -38.59375 50.703125 
L -26.203125 67.40625 
L -20 67.40625 
z
" id="STIXGeneral-Regular-770"/>
      <path d="M 29.59375 42.796875 
L 29.09375 39.59375 
L 20.703125 39.59375 
L 12 6.796875 
Q 11.796875 6 11.796875 5.40625 
Q 11.796875 3.796875 13.296875 3.796875 
Q 14.5 3.796875 16.09375 5.34375 
Q 17.703125 6.90625 21.40625 11.703125 
L 22.703125 11 
Q 18.09375 4 15.140625 1.453125 
Q 12.203125 -1.09375 8.40625 -1.09375 
Q 3.796875 -1.09375 3.796875 2.59375 
Q 3.796875 3.59375 5.40625 10 
L 13.203125 39.59375 
L 5.703125 39.59375 
L 5.59375 40.203125 
Q 5.59375 42 8.90625 42.703125 
Q 11.40625 43.296875 15.5 46.546875 
Q 19.59375 49.796875 22.203125 53.703125 
Q 22.796875 54.59375 23.59375 54.59375 
Q 24.5 54.59375 24.5 53.796875 
Q 24.5 53.296875 24.40625 53.09375 
L 21.59375 42.796875 
z
" id="STIXGeneral-Italic-116"/>
     </defs>
     <g transform="translate(284.086452 687.493438)scale(0.18 -0.18)">
      <use transform="translate(39.042969 16.59375)" xlink:href="#STIXGeneral-Regular-770"/>
      <use transform="translate(0 0.203125)" xlink:href="#STIXGeneral-Italic-116"/>
     </g>
    </g>
   </g>
   <g id="matplotlib.axis_6">
    <g id="ytick_9">
     <g id="line2d_46">
      <g>
       <use style="fill:#ffffff;stroke:#000000;stroke-width:0.8;" x="100.8" xlink:href="#m5d8bfef312" y="641.014795"/>
      </g>
     </g>
     <g id="text_17">
      <!-- −40 -->
      <g transform="translate(63.47 647.161514)scale(0.18 -0.18)">
       <use xlink:href="#STIXGeneral-Regular-8722"/>
       <use x="68.499985" xlink:href="#STIXGeneral-Regular-52"/>
       <use x="118.499969" xlink:href="#STIXGeneral-Regular-48"/>
      </g>
     </g>
    </g>
    <g id="ytick_10">
     <g id="line2d_47">
      <g>
       <use style="fill:#ffffff;stroke:#000000;stroke-width:0.8;" x="100.8" xlink:href="#m5d8bfef312" y="571.162746"/>
      </g>
     </g>
     <g id="text_18">
      <!-- −20 -->
      <g transform="translate(63.47 577.309464)scale(0.18 -0.18)">
       <use xlink:href="#STIXGeneral-Regular-8722"/>
       <use x="68.499985" xlink:href="#STIXGeneral-Regular-50"/>
       <use x="118.499969" xlink:href="#STIXGeneral-Regular-48"/>
      </g>
     </g>
    </g>
    <g id="ytick_11">
     <g id="line2d_48">
      <g>
       <use style="fill:#ffffff;stroke:#000000;stroke-width:0.8;" x="100.8" xlink:href="#m5d8bfef312" y="501.310696"/>
      </g>
     </g>
     <g id="text_19">
      <!-- 0 -->
      <g transform="translate(84.8 507.457415)scale(0.18 -0.18)">
       <use xlink:href="#STIXGeneral-Regular-48"/>
      </g>
     </g>
    </g>
    <g id="ytick_12">
     <g id="line2d_49">
      <g>
       <use style="fill:#ffffff;stroke:#000000;stroke-width:0.8;" x="100.8" xlink:href="#m5d8bfef312" y="431.458647"/>
      </g>
     </g>
     <g id="text_20">
      <!-- 20 -->
      <g transform="translate(75.8 437.605365)scale(0.18 -0.18)">
       <use xlink:href="#STIXGeneral-Regular-50"/>
       <use x="49.999985" xlink:href="#STIXGeneral-Regular-48"/>
      </g>
     </g>
    </g>
    <g id="text_21">
     <!-- $C_l$ -->
     <g transform="translate(55.563438 523.471106)rotate(-90)scale(0.18 -0.18)">
      <use transform="translate(0 0.40625)" xlink:href="#STIXGeneral-Italic-67"/>
      <use transform="translate(66.699997 -12.821875)scale(0.7)" xlink:href="#STIXGeneral-Italic-108"/>
     </g>
    </g>
   </g>
   <g id="line2d_50">
    <path clip-path="url(#p70e4ce3a5e)" d="M 101.357419 500.935258 
L 102.472258 499.964407 
L 103.029677 499.035031 
L 103.587097 497.647664 
L 104.330323 495.126759 
L 105.630968 490.638404 
L 106.188387 489.362707 
L 106.745806 488.511213 
L 107.489032 487.840234 
L 108.232258 487.478144 
L 109.347097 487.201063 
L 111.948387 486.847068 
L 114.92129 486.34762 
L 117.336774 485.694298 
L 119.566452 484.824492 
L 123.84 482.951482 
L 124.397419 483.001476 
L 124.954839 483.315707 
L 125.512258 484.05828 
L 126.069677 485.277855 
L 126.99871 488.152297 
L 127.927742 490.87367 
L 128.485161 491.983194 
L 129.042581 492.698714 
L 129.785806 493.216375 
L 130.714839 493.499432 
L 132.20129 493.655198 
L 137.218065 493.712717 
L 149.667097 493.675051 
L 168.433548 493.680218 
L 174.007742 493.683519 
L 249.630968 493.672808 
L 250.188387 493.667663 
L 254.833548 493.508615 
L 255.576774 493.319117 
L 256.32 492.881083 
L 256.877419 492.236602 
L 257.434839 491.083583 
L 257.806452 489.868343 
L 258.363871 486.98851 
L 258.92129 482.224391 
L 259.47871 474.887168 
L 260.221935 460.876317 
L 261.522581 433.765546 
L 262.08 426.013752 
L 262.637419 421.550997 
L 263.009032 419.917969 
L 263.380645 419.018545 
L 263.752258 418.703236 
L 263.938065 418.65921 
L 264.123871 418.828946 
L 264.495484 419.689896 
L 264.867097 421.420463 
L 265.23871 424.443188 
L 265.610323 429.041196 
L 266.353548 441.898089 
L 267.468387 461.00129 
L 268.211613 469.386597 
L 268.954839 474.889603 
L 269.883871 479.711444 
L 271.370323 485.460884 
L 275.272258 498.643819 
L 276.20129 503.147367 
L 277.316129 508.44906 
L 277.873548 509.994166 
L 278.245161 510.426293 
L 278.616774 510.434512 
L 278.988387 510.145606 
L 280.846452 508.122058 
L 281.403871 508.092349 
L 282.51871 508.527505 
L 283.447742 508.874059 
L 284.005161 508.735871 
L 284.562581 508.359811 
L 286.049032 507.169334 
L 287.907097 505.976621 
L 290.88 504.443585 
L 293.852903 503.239714 
L 296.268387 502.483484 
L 299.055484 501.873399 
L 302.028387 501.468492 
L 306.673548 501.159429 
L 314.477419 501.009501 
L 349.037419 500.969055 
L 430.234839 501.288416 
L 472.59871 501.286332 
L 472.59871 501.286332 
" style="fill:none;stroke:#1f77b4;stroke-linecap:square;stroke-width:3;"/>
   </g>
   <g id="line2d_51">
    <path clip-path="url(#p70e4ce3a5e)" d="M 101.357419 501.121189 
L 102.658065 500.499403 
L 103.215484 499.95836 
L 103.95871 498.86803 
L 106.002581 495.460293 
L 106.745806 494.829697 
L 107.489032 494.478164 
L 108.603871 494.215235 
L 115.107097 493.119705 
L 117.150968 492.41768 
L 119.566452 491.338047 
L 124.211613 489.117155 
L 124.954839 489.084784 
L 125.512258 489.292863 
L 126.069677 489.756094 
L 126.812903 490.720505 
L 127.927742 492.213204 
L 128.670968 492.838894 
L 129.414194 493.180908 
L 130.529032 493.402978 
L 132.572903 493.536855 
L 137.96129 493.654096 
L 146.322581 493.678231 
L 163.788387 493.671909 
L 168.990968 493.670923 
L 183.855484 493.662437 
L 206.895484 493.903698 
L 230.67871 494.781845 
L 249.073548 495.974203 
L 255.576774 496.456944 
L 256.877419 496.35052 
L 257.620645 496.061606 
L 258.363871 495.37626 
L 258.92129 494.413913 
L 259.47871 492.910292 
L 260.221935 489.980092 
L 261.708387 483.489871 
L 262.451613 481.456121 
L 263.194839 480.197346 
L 263.938065 479.428259 
L 264.309677 479.319893 
L 264.68129 479.508857 
L 265.052903 480.08144 
L 265.424516 481.098676 
L 265.981935 483.35768 
L 267.84 491.680878 
L 268.583226 493.822411 
L 269.512258 495.739663 
L 270.44129 497.195238 
L 271.927742 498.996965 
L 273.785806 500.791626 
L 275.643871 502.601411 
L 277.316129 504.36605 
L 277.873548 504.623412 
L 278.430968 504.596559 
L 279.174194 504.247047 
L 280.846452 503.310818 
L 281.589677 503.142242 
L 282.51871 503.159921 
L 284.376774 503.252723 
L 285.863226 502.998556 
L 290.88 502.079528 
L 296.64 501.139883 
L 300.170323 500.824393 
L 304.629677 500.660365 
L 311.690323 500.653596 
L 342.72 501.133014 
L 358.513548 501.281947 
L 421.501935 501.381689 
L 472.59871 501.367298 
L 472.59871 501.367298 
" style="fill:none;stroke:#ff7f0e;stroke-linecap:square;stroke-width:3;"/>
   </g>
   <g id="line2d_52">
    <path clip-path="url(#p70e4ce3a5e)" d="M 101.357419 501.214838 
L 102.843871 500.822393 
L 103.587097 500.378029 
L 104.701935 499.375928 
L 105.816774 498.453328 
L 106.745806 498.014643 
L 107.860645 497.762318 
L 113.806452 496.809678 
L 116.036129 496.089726 
L 118.823226 494.939936 
L 121.796129 493.468925 
L 124.397419 492.204964 
L 125.326452 492.004899 
L 126.069677 492.0968 
L 126.99871 492.526518 
L 128.299355 493.159762 
L 129.414194 493.419064 
L 131.458065 493.578182 
L 136.474839 493.687648 
L 149.295484 493.674187 
L 151.710968 493.676606 
L 161.55871 493.862235 
L 171.592258 494.470647 
L 177.909677 495.133425 
L 183.855484 495.934732 
L 194.260645 497.806203 
L 196.490323 498.001758 
L 198.72 497.985453 
L 201.507097 497.719034 
L 205.780645 497.039599 
L 211.169032 496.280761 
L 215.628387 495.963097 
L 219.344516 495.893929 
L 226.590968 496.125225 
L 232.350968 496.337726 
L 235.695484 496.20227 
L 238.668387 495.857355 
L 241.827097 495.253713 
L 252.975484 492.863919 
L 258.735484 491.915599 
L 259.47871 491.575895 
L 260.593548 490.789971 
L 261.708387 490.047361 
L 262.451613 489.814144 
L 263.194839 489.795704 
L 263.938065 489.990947 
L 264.68129 490.461608 
L 265.23871 491.046228 
L 265.981935 492.167144 
L 267.84 495.198656 
L 268.954839 496.473658 
L 270.627097 497.976452 
L 272.670968 499.409058 
L 274.343226 500.273612 
L 276.944516 501.354924 
L 278.059355 501.606663 
L 279.731613 501.642452 
L 281.218065 501.763652 
L 283.447742 501.985593 
L 286.049032 501.835853 
L 291.251613 501.58887 
L 301.285161 501.385524 
L 312.433548 501.370816 
L 349.223226 501.539683 
L 393.445161 501.329267 
L 404.965161 501.190411 
L 428.190968 501.192115 
L 465.352258 501.152018 
L 472.59871 501.200929 
L 472.59871 501.200929 
" style="fill:none;stroke:#2ca02c;stroke-linecap:square;stroke-width:3;"/>
   </g>
   <g id="line2d_53">
    <path clip-path="url(#p70e4ce3a5e)" d="M 100.8 501.310696 
L 472.412903 501.310696 
" style="fill:none;stroke:#000000;stroke-dasharray:3.2,0.8,0.5,0.8;stroke-dashoffset:0;stroke-width:0.5;"/>
   </g>
   <g id="line2d_54">
    <path clip-path="url(#p70e4ce3a5e)" d="M 286.606452 648 
L 286.606452 382.562212 
" style="fill:none;stroke:#000000;stroke-linecap:square;stroke-width:0.5;"/>
   </g>
   <g id="line2d_55">
    <path clip-path="url(#p70e4ce3a5e)" d="M 323.767742 648 
L 323.767742 382.562212 
" style="fill:none;stroke:#000000;stroke-dasharray:3.2,0.8,0.5,0.8;stroke-dashoffset:0;stroke-opacity:0.25;stroke-width:0.5;"/>
   </g>
   <g id="line2d_56">
    <path clip-path="url(#p70e4ce3a5e)" d="M 360.929032 648 
L 360.929032 382.562212 
" style="fill:none;stroke:#000000;stroke-dasharray:3.2,0.8,0.5,0.8;stroke-dashoffset:0;stroke-opacity:0.25;stroke-width:0.5;"/>
   </g>
   <g id="line2d_57">
    <path clip-path="url(#p70e4ce3a5e)" d="M 398.090323 648 
L 398.090323 382.562212 
" style="fill:none;stroke:#000000;stroke-dasharray:3.2,0.8,0.5,0.8;stroke-dashoffset:0;stroke-opacity:0.25;stroke-width:0.5;"/>
   </g>
   <g id="patch_13">
    <path d="M 100.8 648 
L 100.8 382.562212 
" style="fill:none;stroke:#000000;stroke-linecap:square;stroke-linejoin:miter;stroke-width:0.8;"/>
   </g>
   <g id="patch_14">
    <path d="M 472.412903 648 
L 472.412903 382.562212 
" style="fill:none;stroke:#000000;stroke-linecap:square;stroke-linejoin:miter;stroke-width:0.8;"/>
   </g>
   <g id="patch_15">
    <path d="M 100.8 648 
L 472.412903 648 
" style="fill:none;stroke:#000000;stroke-linecap:square;stroke-linejoin:miter;stroke-width:0.8;"/>
   </g>
   <g id="patch_16">
    <path d="M 100.8 382.562212 
L 472.412903 382.562212 
" style="fill:none;stroke:#000000;stroke-linecap:square;stroke-linejoin:miter;stroke-width:0.8;"/>
   </g>
   <g id="text_22">
    <!-- stroke motion -->
    <defs>
     <path d="M 15.59375 30.09375 
L 26 23.796875 
Q 31 20.796875 32.890625 18.1875 
Q 34.796875 15.59375 34.796875 11.5 
Q 34.796875 6.5 30.640625 2.75 
Q 26.5 -1 20.796875 -1 
Q 16.09375 -1 13.5 -0.09375 
Q 10.796875 0.796875 8.90625 0.796875 
Q 7.203125 0.796875 6.5 -0.40625 
L 5.203125 -0.40625 
L 5.203125 15.296875 
L 6.796875 15.296875 
Q 8.40625 8 11.40625 4.59375 
Q 14.40625 1.203125 19.5 1.203125 
Q 23.203125 1.203125 25.5 3.296875 
Q 27.796875 5.40625 27.796875 8.59375 
Q 27.796875 13.203125 22.5 16.09375 
L 17.09375 19.09375 
Q 5.09375 25.796875 5.09375 33.59375 
Q 5.09375 39.40625 8.84375 42.65625 
Q 12.59375 45.90625 18.90625 45.90625 
Q 23.296875 45.90625 25.59375 44.796875 
Q 27.40625 44 28.40625 44 
Q 29.09375 44 30 45 
L 31.09375 45 
L 31.59375 31.40625 
L 30.09375 31.40625 
Q 28.40625 38.203125 25.84375 40.953125 
Q 23.296875 43.703125 18.796875 43.703125 
Q 15.40625 43.703125 13.34375 42 
Q 11.296875 40.296875 11.296875 36.90625 
Q 11.296875 35.203125 12.4375 33.25 
Q 13.59375 31.296875 15.59375 30.09375 
z
" id="STIXGeneral-Regular-115"/>
     <path d="M 26.59375 7.703125 
L 27.90625 6.59375 
Q 23.09375 -1 15.796875 -1 
Q 7 -1 7 11.703125 
L 7 41.796875 
L 1.703125 41.796875 
Q 1.296875 42.09375 1.296875 42.5 
Q 1.296875 43.296875 3 44.40625 
Q 6.796875 46.59375 12.703125 55.09375 
Q 12.90625 55.40625 13.65625 56.34375 
Q 14.40625 57.296875 14.703125 57.90625 
Q 15.40625 57.90625 15.40625 56.59375 
L 15.40625 45 
L 25.5 45 
L 25.5 41.796875 
L 15.40625 41.796875 
L 15.40625 13.203125 
Q 15.40625 8.40625 16.59375 6.296875 
Q 17.796875 4.203125 20.59375 4.203125 
Q 23.59375 4.203125 26.59375 7.703125 
z
" id="STIXGeneral-Regular-116"/>
     <path d="M 16 45.796875 
L 16 36.59375 
Q 19.796875 42 22.34375 44 
Q 24.90625 46 28 46 
Q 30.59375 46 32.046875 44.59375 
Q 33.5 43.203125 33.5 40.703125 
Q 33.5 38.59375 32.453125 37.390625 
Q 31.40625 36.203125 29.59375 36.203125 
Q 27.703125 36.203125 25.59375 38.203125 
Q 24 39.703125 23 39.703125 
Q 20.90625 39.703125 18.453125 36.796875 
Q 16 33.90625 16 31.5 
L 16 9 
Q 16 4.703125 17.703125 3.203125 
Q 19.40625 1.703125 24.5 1.5 
L 24.5 0 
L 0.5 0 
L 0.5 1.5 
Q 5.296875 2.40625 6.4375 3.5 
Q 7.59375 4.59375 7.59375 8.40625 
L 7.59375 33.40625 
Q 7.59375 36.703125 6.84375 38.046875 
Q 6.09375 39.40625 4.203125 39.40625 
Q 2.59375 39.40625 0.703125 39 
L 0.703125 40.59375 
Q 7 42.59375 15.5 46 
z
" id="STIXGeneral-Regular-114"/>
     <path d="M 47 23.09375 
Q 47 12.59375 40.75 5.796875 
Q 34.5 -1 24.5 -1 
Q 15.296875 -1 9.09375 5.75 
Q 2.90625 12.5 2.90625 22.796875 
Q 2.90625 33.203125 9.09375 39.59375 
Q 15.296875 46 25.40625 46 
Q 34.703125 46 40.84375 39.640625 
Q 47 33.296875 47 23.09375 
z
M 38 20.40625 
Q 38 31.796875 33 38.203125 
Q 29 43.203125 23.5 43.203125 
Q 18.296875 43.203125 15.09375 38.953125 
Q 11.90625 34.703125 11.90625 27.296875 
Q 11.90625 14.5 17.203125 6.796875 
Q 20.59375 1.796875 26.203125 1.796875 
Q 31.703125 1.796875 34.84375 6.75 
Q 38 11.703125 38 20.40625 
z
" id="STIXGeneral-Regular-111"/>
     <path d="M 50.5 0 
L 28.703125 0 
L 28.703125 1.5 
L 30.59375 1.5 
Q 32.703125 1.5 32.703125 3 
Q 32.703125 3.90625 31.59375 5.296875 
L 16.59375 25.09375 
L 16.59375 6.703125 
Q 16.59375 4.09375 17.84375 2.890625 
Q 19.09375 1.703125 22.09375 1.59375 
L 24.09375 1.5 
L 24.09375 0 
L 0.703125 0 
L 0.703125 1.5 
Q 6.09375 2.40625 7.140625 3.34375 
Q 8.203125 4.296875 8.203125 8.203125 
L 8.203125 56.40625 
Q 8.203125 60 7.296875 61.25 
Q 6.40625 62.5 3.90625 62.5 
Q 3.296875 62.5 0.703125 62.296875 
L 0.703125 63.90625 
L 3.703125 64.703125 
Q 9.703125 66.296875 16.203125 68.296875 
L 16.59375 68.09375 
L 16.59375 26.09375 
L 30.296875 38.296875 
Q 32.59375 40.40625 32.59375 41.796875 
Q 32.59375 42.796875 31.546875 43.140625 
Q 30.5 43.5 27.59375 43.59375 
L 27.59375 45 
L 48 45 
L 48 43.5 
Q 43 43.5 39.140625 41.34375 
Q 35.296875 39.203125 26.40625 30.90625 
L 23.5 28.203125 
L 38.796875 8.796875 
Q 44.203125 1.90625 50.5 1.5 
z
" id="STIXGeneral-Regular-107"/>
     <path d="M 40.796875 16.40625 
L 42.40625 15.703125 
Q 36.40625 -1 21.5 -1 
Q 12.703125 -1 7.59375 5.140625 
Q 2.5 11.296875 2.5 21.703125 
Q 2.5 32.40625 8.203125 39.203125 
Q 13.90625 46 23.203125 46 
Q 32.203125 46 37.09375 39.09375 
Q 40 35.09375 40.5 27.703125 
L 9.703125 27.703125 
Q 10.09375 21.40625 10.9375 18.09375 
Q 11.796875 14.796875 14.296875 11.40625 
Q 18.5 5.90625 25.40625 5.90625 
Q 30.296875 5.90625 33.640625 8.296875 
Q 37 10.703125 40.796875 16.40625 
z
M 9.90625 30.90625 
L 30.296875 30.90625 
Q 29.40625 37.203125 27.34375 39.796875 
Q 25.296875 42.40625 20.5 42.40625 
Q 16.296875 42.40625 13.5 39.453125 
Q 10.703125 36.5 9.90625 30.90625 
z
" id="STIXGeneral-Regular-101"/>
     <path id="STIXGeneral-Regular-32"/>
     <path d="M 77.5 0 
L 55.703125 0 
L 55.703125 1.5 
Q 59.90625 1.90625 61.046875 3.25 
Q 62.203125 4.59375 62.203125 9 
L 62.203125 29.59375 
Q 62.203125 35.59375 60.453125 38.1875 
Q 58.703125 40.796875 54.5 40.796875 
Q 51 40.796875 48.546875 39.390625 
Q 46.09375 38 43.796875 34.703125 
L 43.796875 9.5 
Q 43.796875 4.703125 45.25 3.140625 
Q 46.703125 1.59375 51 1.5 
L 51 0 
L 28.59375 0 
L 28.59375 1.5 
Q 33 1.796875 34.203125 2.9375 
Q 35.40625 4.09375 35.40625 8.59375 
L 35.40625 29.703125 
Q 35.40625 40.796875 28.90625 40.796875 
Q 26.09375 40.796875 22.9375 39.546875 
Q 19.796875 38.296875 18.296875 36.5 
Q 17 35 17 34.796875 
L 17 7 
Q 17 3.796875 18.390625 2.75 
Q 19.796875 1.703125 23.796875 1.5 
L 23.796875 0 
L 1.59375 0 
L 1.59375 1.5 
Q 5.796875 1.59375 7.1875 3.046875 
Q 8.59375 4.5 8.59375 8.796875 
L 8.59375 33.59375 
Q 8.59375 37.296875 7.796875 38.75 
Q 7 40.203125 5.09375 40.203125 
Q 3.59375 40.203125 1.90625 39.796875 
L 1.90625 41.5 
Q 8.703125 43.40625 15.796875 46 
L 16.59375 45.703125 
L 16.59375 38.296875 
L 16.796875 38.296875 
Q 21.296875 43 24.75 44.5 
Q 28.203125 46 32.09375 46 
Q 40 46 42.703125 37.59375 
Q 50.5 46 59 46 
Q 70.59375 46 70.59375 28 
L 70.59375 7.703125 
Q 70.59375 4.40625 71.59375 3.15625 
Q 72.59375 1.90625 74.90625 1.703125 
L 77.5 1.5 
z
" id="STIXGeneral-Regular-109"/>
     <path d="M 18 63.203125 
Q 18 61 16.5 59.546875 
Q 15 58.09375 12.796875 58.09375 
Q 10.703125 58.09375 9.25 59.546875 
Q 7.796875 61 7.796875 63.203125 
Q 7.796875 65.296875 9.296875 66.796875 
Q 10.796875 68.296875 12.90625 68.296875 
Q 15.09375 68.296875 16.546875 66.796875 
Q 18 65.296875 18 63.203125 
z
M 25.296875 0 
L 1.59375 0 
L 1.59375 1.5 
Q 6.796875 1.796875 8.140625 3.296875 
Q 9.5 4.796875 9.5 10.40625 
L 9.5 33.09375 
Q 9.5 36.59375 8.796875 38 
Q 8.09375 39.40625 6.203125 39.40625 
Q 3.796875 39.40625 2 38.90625 
L 2 40.5 
L 17.5 46 
L 17.90625 45.59375 
L 17.90625 10.5 
Q 17.90625 4.90625 19.15625 3.40625 
Q 20.40625 1.90625 25.296875 1.5 
z
" id="STIXGeneral-Regular-105"/>
     <path d="M 48.5 0 
L 27.703125 0 
L 27.796875 1.5 
Q 31.5 1.796875 32.75 3.640625 
Q 34 5.5 34 10.5 
L 34 30.40625 
Q 34 40.5 26.703125 40.5 
Q 24.203125 40.5 22 39.296875 
Q 19.796875 38.09375 16.40625 34.796875 
L 16.40625 7.203125 
Q 16.40625 4.203125 17.75 3 
Q 19.09375 1.796875 22.90625 1.5 
L 22.90625 0 
L 1.796875 0 
L 1.796875 1.5 
Q 5.59375 1.796875 6.796875 3.34375 
Q 8 4.90625 8 9.40625 
L 8 33.703125 
Q 8 37.40625 7.296875 38.796875 
Q 6.59375 40.203125 4.5 40.203125 
Q 2.5 40.203125 1.59375 39.796875 
L 1.59375 41.5 
Q 8.59375 43.5 15.296875 46 
L 16.09375 45.703125 
L 16.09375 37.90625 
L 16.203125 37.90625 
Q 23.296875 46 30.59375 46 
Q 36.296875 46 39.34375 42 
Q 42.40625 38 42.40625 30.59375 
L 42.40625 8.5 
Q 42.40625 4.5 43.59375 3.203125 
Q 44.796875 1.90625 48.5 1.5 
z
" id="STIXGeneral-Regular-110"/>
    </defs>
    <g transform="translate(153.24183 638.921548)scale(0.18 -0.18)">
     <use xlink:href="#STIXGeneral-Regular-115"/>
     <use x="38.899994" xlink:href="#STIXGeneral-Regular-116"/>
     <use x="66.699982" xlink:href="#STIXGeneral-Regular-114"/>
     <use x="99.999969" xlink:href="#STIXGeneral-Regular-111"/>
     <use x="149.999954" xlink:href="#STIXGeneral-Regular-107"/>
     <use x="199.999939" xlink:href="#STIXGeneral-Regular-101"/>
     <use x="244.399933" xlink:href="#STIXGeneral-Regular-32"/>
     <use x="269.399918" xlink:href="#STIXGeneral-Regular-109"/>
     <use x="347.199905" xlink:href="#STIXGeneral-Regular-111"/>
     <use x="397.19989" xlink:href="#STIXGeneral-Regular-116"/>
     <use x="424.999878" xlink:href="#STIXGeneral-Regular-105"/>
     <use x="452.799866" xlink:href="#STIXGeneral-Regular-111"/>
     <use x="502.79985" xlink:href="#STIXGeneral-Regular-110"/>
    </g>
   </g>
   <g id="text_23">
    <!-- wake effect -->
    <defs>
     <path d="M 69.40625 45 
L 69.40625 43.5 
Q 67.90625 43 67.203125 42.046875 
Q 66.5 41.09375 65.296875 38.09375 
L 51.5 3.5 
Q 49.5 -1.40625 48.703125 -1.40625 
Q 48.203125 -1.40625 47.84375 -0.75 
Q 47.5 -0.09375 46.296875 2.90625 
L 37.203125 26.5 
L 26 2.5 
Q 24.203125 -1.40625 23.5 -1.40625 
Q 22.59375 -1.40625 20.90625 3 
L 7.40625 37.203125 
Q 5.90625 41.09375 4.90625 42.1875 
Q 3.90625 43.296875 2.09375 43.5 
L 2.09375 45 
L 20.09375 45 
L 20.09375 43.5 
Q 17.5 43.203125 16.5 42.5 
Q 15.5 41.796875 15.5 40.203125 
Q 15.5 38.703125 16.09375 37.203125 
L 26 11.09375 
L 35.09375 31 
L 33.09375 36.59375 
Q 31.703125 40.59375 30.34375 41.890625 
Q 29 43.203125 26.203125 43.5 
L 26.203125 45 
L 46.5 45 
L 46.5 43.5 
Q 43 43 41.84375 42.296875 
Q 40.703125 41.59375 40.703125 40 
Q 40.703125 38.40625 42.40625 34 
L 50.796875 11.59375 
L 59.796875 33.796875 
Q 61.5 38 61.5 40.5 
Q 61.5 41.703125 60.546875 42.34375 
Q 59.59375 43 57.09375 43.5 
L 57.09375 45 
z
" id="STIXGeneral-Regular-119"/>
     <path d="M 44.203125 6.59375 
L 44.203125 3.796875 
Q 40.40625 -1 35.203125 -1 
Q 29.5 -1 28.796875 6.296875 
L 28.703125 6.296875 
Q 22.296875 -1 14.203125 -1 
Q 9.5 -1 6.59375 1.75 
Q 3.703125 4.5 3.703125 9.40625 
Q 3.703125 16.40625 10.703125 21.09375 
Q 15.5 24.296875 28.703125 29.203125 
L 28.703125 34.59375 
Q 28.703125 39.09375 26.546875 41.34375 
Q 24.40625 43.59375 20.90625 43.59375 
Q 17.90625 43.59375 15.90625 42.140625 
Q 13.90625 40.703125 13.90625 38.703125 
Q 13.90625 37.796875 14.203125 36.6875 
Q 14.5 35.59375 14.5 34.5 
Q 14.5 33 13.140625 31.703125 
Q 11.796875 30.40625 9.90625 30.40625 
Q 8.203125 30.40625 6.890625 31.703125 
Q 5.59375 33 5.59375 35 
Q 5.59375 39.796875 10.703125 43 
Q 15.40625 46 22.203125 46 
Q 30.296875 46 34 41.5 
Q 35.796875 39.40625 36.296875 37.25 
Q 36.796875 35.09375 36.796875 30.40625 
L 36.796875 11.296875 
Q 36.796875 4.703125 39.90625 4.703125 
Q 41.90625 4.703125 44.203125 6.59375 
z
M 28.703125 12.703125 
L 28.703125 26.796875 
Q 19.5 23.59375 15.90625 20.203125 
Q 12.5 17.09375 12.5 12.5 
Q 12.5 8.703125 14.390625 6.75 
Q 16.296875 4.796875 19.40625 4.796875 
Q 22.703125 4.796875 25.203125 6.40625 
Q 27.296875 7.90625 28 9.203125 
Q 28.703125 10.5 28.703125 12.703125 
z
" id="STIXGeneral-Regular-97"/>
     <path d="M 2.09375 45 
L 10.296875 45 
Q 10.40625 51 11.09375 54.34375 
Q 11.796875 57.703125 13.796875 61.09375 
Q 18 68.296875 27.90625 68.296875 
Q 32.40625 68.296875 35.34375 66.546875 
Q 38.296875 64.796875 38.296875 62.09375 
Q 38.296875 60.40625 37.09375 59.203125 
Q 35.90625 58 34.09375 58 
Q 31.703125 58 29.59375 61.59375 
Q 27.203125 65.5 24.296875 65.5 
Q 18.703125 65.5 18.703125 56.59375 
L 18.703125 45 
L 30.90625 45 
L 30.90625 41.796875 
L 18.703125 41.796875 
L 18.703125 10.40625 
Q 18.703125 4.796875 20.296875 3.25 
Q 21.90625 1.703125 28 1.5 
L 28 0 
L 2 0 
L 2 1.5 
Q 7.40625 1.796875 8.84375 3.34375 
Q 10.296875 4.90625 10.296875 10.40625 
L 10.296875 41.796875 
L 2.09375 41.796875 
z
" id="STIXGeneral-Regular-102"/>
     <path d="M 39.796875 15.59375 
L 41.203125 14.703125 
Q 36.90625 6.296875 33 3.203125 
Q 27.90625 -1 21.5 -1 
Q 13.203125 -1 7.84375 5.25 
Q 2.5 11.5 2.5 21.203125 
Q 2.5 33.90625 10.90625 40.90625 
Q 17.09375 46 24.40625 46 
Q 30.703125 46 35.25 42.953125 
Q 39.796875 39.90625 39.796875 35.703125 
Q 39.796875 34 38.390625 32.75 
Q 37 31.5 35.09375 31.5 
Q 31.59375 31.5 30.296875 36.09375 
L 29.703125 38.296875 
Q 28.90625 41.09375 27.703125 42.09375 
Q 26.5 43.09375 23.796875 43.09375 
Q 17.703125 43.09375 13.953125 38.296875 
Q 10.203125 33.5 10.203125 25.703125 
Q 10.203125 17.09375 14.5 11.640625 
Q 18.796875 6.203125 25.703125 6.203125 
Q 30 6.203125 33.09375 8.25 
Q 36.203125 10.296875 39.796875 15.59375 
z
" id="STIXGeneral-Regular-99"/>
    </defs>
    <g transform="translate(347.07375 638.921548)scale(0.18 -0.18)">
     <use xlink:href="#STIXGeneral-Regular-119"/>
     <use x="72.199982" xlink:href="#STIXGeneral-Regular-97"/>
     <use x="116.599976" xlink:href="#STIXGeneral-Regular-107"/>
     <use x="166.59996" xlink:href="#STIXGeneral-Regular-101"/>
     <use x="210.999954" xlink:href="#STIXGeneral-Regular-32"/>
     <use x="235.999939" xlink:href="#STIXGeneral-Regular-101"/>
     <use x="280.399933" xlink:href="#STIXGeneral-Regular-102"/>
     <use x="313.699921" xlink:href="#STIXGeneral-Regular-102"/>
     <use x="346.999908" xlink:href="#STIXGeneral-Regular-101"/>
     <use x="391.399902" xlink:href="#STIXGeneral-Regular-99"/>
     <use x="435.799896" xlink:href="#STIXGeneral-Regular-116"/>
    </g>
   </g>
  </g>
  <g id="axes_4">
   <g id="patch_17">
    <path d="M 535.587097 648 
L 907.2 648 
L 907.2 382.562212 
L 535.587097 382.562212 
z
" style="fill:#ffffff;"/>
   </g>
   <g id="matplotlib.axis_7">
    <g id="xtick_16">
     <g id="line2d_58">
      <g>
       <use style="fill:#ffffff;stroke:#000000;stroke-width:0.8;" x="535.587097" xlink:href="#mb07c4e5c68" y="648"/>
      </g>
     </g>
     <g id="text_24">
      <!-- 0.0 -->
      <g transform="translate(524.337097 667.293437)scale(0.18 -0.18)">
       <use xlink:href="#STIXGeneral-Regular-48"/>
       <use x="49.999985" xlink:href="#STIXGeneral-Regular-46"/>
       <use x="74.999969" xlink:href="#STIXGeneral-Regular-48"/>
      </g>
     </g>
    </g>
    <g id="xtick_17">
     <g id="line2d_59">
      <g>
       <use style="fill:#ffffff;stroke:#000000;stroke-width:0.8;" x="628.490323" xlink:href="#mb07c4e5c68" y="648"/>
      </g>
     </g>
     <g id="text_25">
      <!-- 0.5 -->
      <g transform="translate(617.240323 667.293437)scale(0.18 -0.18)">
       <use xlink:href="#STIXGeneral-Regular-48"/>
       <use x="49.999985" xlink:href="#STIXGeneral-Regular-46"/>
       <use x="74.999969" xlink:href="#STIXGeneral-Regular-53"/>
      </g>
     </g>
    </g>
    <g id="xtick_18">
     <g id="line2d_60">
      <g>
       <use style="fill:#ffffff;stroke:#000000;stroke-width:0.8;" x="721.393548" xlink:href="#mb07c4e5c68" y="648"/>
      </g>
     </g>
     <g id="text_26">
      <!-- 1.0 -->
      <g transform="translate(710.143548 667.293437)scale(0.18 -0.18)">
       <use xlink:href="#STIXGeneral-Regular-49"/>
       <use x="49.999985" xlink:href="#STIXGeneral-Regular-46"/>
       <use x="74.999969" xlink:href="#STIXGeneral-Regular-48"/>
      </g>
     </g>
    </g>
    <g id="xtick_19">
     <g id="line2d_61">
      <g>
       <use style="fill:#ffffff;stroke:#000000;stroke-width:0.8;" x="814.296774" xlink:href="#mb07c4e5c68" y="648"/>
      </g>
     </g>
     <g id="text_27">
      <!-- 1.5 -->
      <g transform="translate(803.046774 667.293437)scale(0.18 -0.18)">
       <use xlink:href="#STIXGeneral-Regular-49"/>
       <use x="49.999985" xlink:href="#STIXGeneral-Regular-46"/>
       <use x="74.999969" xlink:href="#STIXGeneral-Regular-53"/>
      </g>
     </g>
    </g>
    <g id="xtick_20">
     <g id="line2d_62">
      <g>
       <use style="fill:#ffffff;stroke:#000000;stroke-width:0.8;" x="907.2" xlink:href="#mb07c4e5c68" y="648"/>
      </g>
     </g>
     <g id="text_28">
      <!-- 2.0 -->
      <g transform="translate(895.95 667.293437)scale(0.18 -0.18)">
       <use xlink:href="#STIXGeneral-Regular-50"/>
       <use x="49.999985" xlink:href="#STIXGeneral-Regular-46"/>
       <use x="74.999969" xlink:href="#STIXGeneral-Regular-48"/>
      </g>
     </g>
    </g>
    <g id="text_29">
     <!-- $\^t$ -->
     <g transform="translate(718.873548 687.493438)scale(0.18 -0.18)">
      <use transform="translate(39.042969 16.59375)" xlink:href="#STIXGeneral-Regular-770"/>
      <use transform="translate(0 0.203125)" xlink:href="#STIXGeneral-Italic-116"/>
     </g>
    </g>
   </g>
   <g id="matplotlib.axis_8">
    <g id="ytick_13">
     <g id="line2d_63">
      <g>
       <use style="fill:#ffffff;stroke:#000000;stroke-width:0.8;" x="535.587097" xlink:href="#m5d8bfef312" y="641.014795"/>
      </g>
     </g>
    </g>
    <g id="ytick_14">
     <g id="line2d_64">
      <g>
       <use style="fill:#ffffff;stroke:#000000;stroke-width:0.8;" x="535.587097" xlink:href="#m5d8bfef312" y="571.162746"/>
      </g>
     </g>
    </g>
    <g id="ytick_15">
     <g id="line2d_65">
      <g>
       <use style="fill:#ffffff;stroke:#000000;stroke-width:0.8;" x="535.587097" xlink:href="#m5d8bfef312" y="501.310696"/>
      </g>
     </g>
    </g>
    <g id="ytick_16">
     <g id="line2d_66">
      <g>
       <use style="fill:#ffffff;stroke:#000000;stroke-width:0.8;" x="535.587097" xlink:href="#m5d8bfef312" y="431.458647"/>
      </g>
     </g>
    </g>
    <g id="text_30">
     <!-- $C_d$ -->
     <g transform="translate(520.680534 524.911106)rotate(-90)scale(0.18 -0.18)">
      <use transform="translate(0 0.40625)" xlink:href="#STIXGeneral-Italic-67"/>
      <use transform="translate(66.699997 -12.821875)scale(0.7)" xlink:href="#STIXGeneral-Italic-100"/>
     </g>
    </g>
   </g>
   <g id="line2d_67">
    <path clip-path="url(#pdd6afed0c6)" d="M 536.144516 500.927291 
L 537.259355 499.941316 
L 537.816774 498.995444 
L 538.374194 497.581749 
L 539.117419 495.006376 
L 540.418065 490.37874 
L 541.16129 488.691244 
L 541.71871 487.895835 
L 542.461935 487.247781 
L 543.390968 486.800583 
L 544.877419 486.41912 
L 552.123871 484.783875 
L 554.910968 483.712391 
L 558.255484 482.363479 
L 558.99871 482.377891 
L 559.556129 482.65641 
L 559.927742 483.032326 
L 560.485161 483.990532 
L 561.042581 485.447491 
L 563.086452 491.605601 
L 563.643871 492.513082 
L 564.20129 493.071626 
L 564.944516 493.495256 
L 565.873548 493.753252 
L 569.032258 494.043962 
L 576.464516 494.183237 
L 589.285161 494.249865 
L 609.538065 494.300351 
L 610.467097 494.293125 
L 640.753548 494.270654 
L 641.682581 494.263724 
L 684.418065 494.188298 
L 684.975484 494.181788 
L 689.620645 494.011758 
L 690.363871 493.819708 
L 691.107097 493.377905 
L 691.664516 492.728833 
L 692.221935 491.567988 
L 692.593548 490.343837 
L 693.150968 487.439141 
L 693.708387 482.618138 
L 694.265806 475.146083 
L 694.823226 464.720032 
L 697.23871 414.291737 
L 698.167742 402.846041 
L 699.096774 393.983923 
L 699.468387 391.829592 
L 699.84 390.859359 
L 700.025806 391.258139 
L 700.211613 392.182443 
L 700.583226 395.991289 
L 701.140645 405.224899 
L 702.44129 429.165992 
L 702.99871 436.365493 
L 703.741935 442.976994 
L 704.670968 448.529544 
L 706.343226 455.600826 
L 708.015484 462.500518 
L 708.572903 465.570793 
L 709.130323 469.690683 
L 709.687742 475.538151 
L 710.245161 484.356084 
L 710.802581 497.408293 
L 711.36 515.65009 
L 712.289032 555.140294 
L 713.218065 593.178631 
L 713.96129 614.497434 
L 714.51871 624.877517 
L 715.076129 630.879637 
L 715.447742 632.50834 
L 715.633548 632.554332 
L 715.819355 632.097818 
L 716.190968 629.429848 
L 716.562581 624.627397 
L 716.934194 617.084168 
L 717.677419 596.067642 
L 718.792258 562.166484 
L 719.349677 550.122724 
L 719.907097 542.10466 
L 720.464516 537.490269 
L 721.021935 534.956042 
L 721.579355 533.363256 
L 722.322581 531.782265 
L 723.065806 530.854569 
L 725.295484 529.230515 
L 726.03871 528.508364 
L 726.410323 528.183736 
L 729.197419 524.228788 
L 730.869677 521.621037 
L 732.170323 519.488254 
L 732.541935 518.869901 
L 734.028387 516.522484 
L 735.143226 514.882633 
L 736.258065 513.333464 
L 737.00129 512.451426 
L 737.930323 511.254329 
L 738.301935 510.959215 
L 738.859355 510.329582 
L 740.345806 508.904781 
L 742.575484 507.143362 
L 745.734194 505.24092 
L 749.07871 503.899765 
L 750.750968 503.371093 
L 754.095484 502.763913 
L 754.28129 502.811716 
L 755.024516 502.56407 
L 758.554839 502.182751 
L 759.112258 502.213818 
L 761.156129 502.085922 
L 761.713548 502.087834 
L 762.456774 501.981984 
L 767.101935 501.951423 
L 768.216774 501.901216 
L 769.331613 501.940958 
L 776.020645 501.724653 
L 779.550968 501.651044 
L 781.037419 501.598592 
L 786.611613 501.530576 
L 823.587097 501.576167 
L 840.867097 501.374725 
L 851.086452 501.252725 
L 862.978065 501.114862 
L 866.322581 501.074086 
L 881.930323 500.923248 
L 907.385806 500.815607 
L 907.385806 500.815607 
" style="fill:none;stroke:#1f77b4;stroke-linecap:square;stroke-width:3;"/>
   </g>
   <g id="line2d_68">
    <path clip-path="url(#pdd6afed0c6)" d="M 536.144516 501.115412 
L 537.445161 500.479836 
L 538.002581 499.92501 
L 538.745806 498.804072 
L 540.789677 495.245744 
L 541.532903 494.556887 
L 542.276129 494.152289 
L 543.390968 493.823497 
L 545.992258 493.394168 
L 549.150968 492.776007 
L 551.566452 492.063666 
L 554.353548 490.980946 
L 558.812903 489.170624 
L 559.556129 489.143343 
L 560.113548 489.329411 
L 560.670968 489.762471 
L 561.414194 490.715392 
L 562.714839 492.600751 
L 563.458065 493.276514 
L 564.20129 493.655181 
L 565.130323 493.885444 
L 566.988387 494.067116 
L 571.633548 494.230636 
L 578.508387 494.288433 
L 628.304516 494.18403 
L 657.847742 494.636141 
L 663.979355 494.848497 
L 672.712258 495.221362 
L 686.090323 495.962974 
L 689.249032 496.154874 
L 691.850323 495.980408 
L 692.407742 495.721724 
L 693.150968 495.001516 
L 693.708387 493.998519 
L 694.265806 492.427843 
L 695.009032 489.316976 
L 697.424516 477.815883 
L 698.725161 473.171623 
L 699.282581 471.73665 
L 699.654194 471.241968 
L 699.84 471.193082 
L 700.025806 471.289703 
L 700.397419 471.908177 
L 700.769032 473.096008 
L 701.512258 476.513426 
L 702.812903 482.378446 
L 703.556129 484.797408 
L 704.485161 487.122389 
L 706.529032 491.191671 
L 708.015484 494.203851 
L 708.944516 496.581933 
L 709.687742 499.199498 
L 710.245161 501.95756 
L 710.802581 505.776561 
L 711.545806 512.846879 
L 713.589677 535.40043 
L 714.332903 540.229125 
L 714.890323 542.388383 
L 715.261935 543.147079 
L 715.633548 543.301576 
L 715.819355 543.133175 
L 716.190968 542.255289 
L 716.562581 540.638508 
L 717.12 536.919873 
L 719.163871 520.921862 
L 719.72129 518.74776 
L 720.27871 517.506034 
L 720.836129 516.931486 
L 721.393548 516.772009 
L 722.136774 516.810687 
L 723.809032 516.947849 
L 725.48129 516.779845 
L 726.596129 516.41897 
L 727.896774 515.687216 
L 729.383226 514.471289 
L 730.869677 512.990195 
L 735.886452 508.005929 
L 737.930323 506.43978 
L 739.230968 505.624915 
L 742.018065 504.244589 
L 745.176774 503.259926 
L 747.778065 502.741053 
L 751.122581 502.424215 
L 755.210323 502.199457 
L 757.625806 502.147313 
L 760.227097 502.108375 
L 762.085161 502.116155 
L 770.260645 502.351794 
L 783.452903 503.317844 
L 787.354839 503.415689 
L 792.929032 503.322534 
L 802.219355 502.951293 
L 823.95871 502.2881 
L 843.096774 501.880435 
L 872.268387 501.606402 
L 907.385806 501.488414 
L 907.385806 501.488414 
" style="fill:none;stroke:#ff7f0e;stroke-linecap:square;stroke-width:3;"/>
   </g>
   <g id="line2d_69">
    <path clip-path="url(#pdd6afed0c6)" d="M 536.144516 501.210812 
L 537.630968 500.805842 
L 538.374194 500.345063 
L 539.489032 499.297932 
L 540.603871 498.312932 
L 541.532903 497.822746 
L 542.647742 497.518875 
L 545.434839 497.114696 
L 548.221935 496.595673 
L 550.823226 495.86968 
L 553.981935 494.736703 
L 557.326452 493.273749 
L 559.184516 492.533265 
L 560.113548 492.396764 
L 560.856774 492.537859 
L 561.785806 493.023324 
L 563.086452 493.715787 
L 564.20129 494.003582 
L 566.059355 494.175783 
L 569.96129 494.291444 
L 572.934194 494.290123 
L 579.437419 494.237956 
L 582.03871 494.217064 
L 597.646452 494.287348 
L 606.007742 494.641199 
L 609.352258 494.885551 
L 616.59871 495.566521 
L 629.976774 497.118103 
L 632.392258 497.035418 
L 638.338065 496.089659 
L 643.912258 495.114943 
L 647.442581 494.748364 
L 650.972903 494.599705 
L 657.290323 494.742324 
L 664.908387 495.406952 
L 668.43871 495.625204 
L 670.482581 495.669519 
L 673.455484 495.553651 
L 676.428387 495.219583 
L 680.887742 494.459991 
L 682.188387 494.226023 
L 691.47871 493.046297 
L 692.779355 492.845288 
L 693.708387 492.554222 
L 694.637419 492.00937 
L 695.566452 491.197924 
L 697.23871 489.741601 
L 698.539355 488.928913 
L 699.282581 488.682872 
L 699.84 488.729538 
L 700.397419 489.077477 
L 700.954839 489.712563 
L 703.741935 493.407439 
L 708.944516 498.865282 
L 709.873548 500.11192 
L 710.616774 501.439698 
L 711.36 503.233278 
L 713.589677 509.24293 
L 714.147097 510.065241 
L 714.704516 510.555403 
L 715.261935 510.719091 
L 715.633548 510.640118 
L 716.005161 510.396979 
L 716.376774 509.966864 
L 716.934194 508.922314 
L 717.677419 506.875787 
L 718.978065 503.120579 
L 719.72129 501.75057 
L 720.464516 500.959923 
L 721.207742 500.525514 
L 722.136774 500.243565 
L 723.994839 500.011548 
L 727.339355 499.880877 
L 733.099355 499.765849 
L 738.859355 499.808306 
L 764.500645 500.433676 
L 771.747097 500.131246 
L 781.037419 499.747456 
L 805.378065 498.898892 
L 824.144516 497.573798 
L 828.418065 497.599236 
L 834.363871 497.889789 
L 840.309677 498.382625 
L 854.430968 499.767024 
L 863.535484 500.455572 
L 878.4 501.485518 
L 884.345806 501.834607 
L 902.554839 502.560382 
L 907.385806 502.698001 
L 907.385806 502.698001 
" style="fill:none;stroke:#2ca02c;stroke-linecap:square;stroke-width:3;"/>
   </g>
   <g id="line2d_70">
    <path clip-path="url(#pdd6afed0c6)" d="M 535.587097 501.310696 
L 907.2 501.310696 
" style="fill:none;stroke:#000000;stroke-dasharray:3.2,0.8,0.5,0.8;stroke-dashoffset:0;stroke-width:0.5;"/>
   </g>
   <g id="line2d_71">
    <path clip-path="url(#pdd6afed0c6)" d="M 721.393548 648 
L 721.393548 382.562212 
" style="fill:none;stroke:#000000;stroke-linecap:square;stroke-width:0.5;"/>
   </g>
   <g id="line2d_72">
    <path clip-path="url(#pdd6afed0c6)" d="M 758.554839 648 
L 758.554839 382.562212 
" style="fill:none;stroke:#000000;stroke-dasharray:3.2,0.8,0.5,0.8;stroke-dashoffset:0;stroke-opacity:0.25;stroke-width:0.5;"/>
   </g>
   <g id="line2d_73">
    <path clip-path="url(#pdd6afed0c6)" d="M 795.716129 648 
L 795.716129 382.562212 
" style="fill:none;stroke:#000000;stroke-dasharray:3.2,0.8,0.5,0.8;stroke-dashoffset:0;stroke-opacity:0.25;stroke-width:0.5;"/>
   </g>
   <g id="line2d_74">
    <path clip-path="url(#pdd6afed0c6)" d="M 832.877419 648 
L 832.877419 382.562212 
" style="fill:none;stroke:#000000;stroke-dasharray:3.2,0.8,0.5,0.8;stroke-dashoffset:0;stroke-opacity:0.25;stroke-width:0.5;"/>
   </g>
   <g id="patch_18">
    <path d="M 535.587097 648 
L 535.587097 382.562212 
" style="fill:none;stroke:#000000;stroke-linecap:square;stroke-linejoin:miter;stroke-width:0.8;"/>
   </g>
   <g id="patch_19">
    <path d="M 907.2 648 
L 907.2 382.562212 
" style="fill:none;stroke:#000000;stroke-linecap:square;stroke-linejoin:miter;stroke-width:0.8;"/>
   </g>
   <g id="patch_20">
    <path d="M 535.587097 648 
L 907.2 648 
" style="fill:none;stroke:#000000;stroke-linecap:square;stroke-linejoin:miter;stroke-width:0.8;"/>
   </g>
   <g id="patch_21">
    <path d="M 535.587097 382.562212 
L 907.2 382.562212 
" style="fill:none;stroke:#000000;stroke-linecap:square;stroke-linejoin:miter;stroke-width:0.8;"/>
   </g>
   <g id="text_31">
    <!-- stroke motion -->
    <g transform="translate(588.028926 638.921548)scale(0.18 -0.18)">
     <use xlink:href="#STIXGeneral-Regular-115"/>
     <use x="38.899994" xlink:href="#STIXGeneral-Regular-116"/>
     <use x="66.699982" xlink:href="#STIXGeneral-Regular-114"/>
     <use x="99.999969" xlink:href="#STIXGeneral-Regular-111"/>
     <use x="149.999954" xlink:href="#STIXGeneral-Regular-107"/>
     <use x="199.999939" xlink:href="#STIXGeneral-Regular-101"/>
     <use x="244.399933" xlink:href="#STIXGeneral-Regular-32"/>
     <use x="269.399918" xlink:href="#STIXGeneral-Regular-109"/>
     <use x="347.199905" xlink:href="#STIXGeneral-Regular-111"/>
     <use x="397.19989" xlink:href="#STIXGeneral-Regular-116"/>
     <use x="424.999878" xlink:href="#STIXGeneral-Regular-105"/>
     <use x="452.799866" xlink:href="#STIXGeneral-Regular-111"/>
     <use x="502.79985" xlink:href="#STIXGeneral-Regular-110"/>
    </g>
   </g>
   <g id="text_32">
    <!-- wake effect -->
    <g transform="translate(781.860847 638.921548)scale(0.18 -0.18)">
     <use xlink:href="#STIXGeneral-Regular-119"/>
     <use x="72.199982" xlink:href="#STIXGeneral-Regular-97"/>
     <use x="116.599976" xlink:href="#STIXGeneral-Regular-107"/>
     <use x="166.59996" xlink:href="#STIXGeneral-Regular-101"/>
     <use x="210.999954" xlink:href="#STIXGeneral-Regular-32"/>
     <use x="235.999939" xlink:href="#STIXGeneral-Regular-101"/>
     <use x="280.399933" xlink:href="#STIXGeneral-Regular-102"/>
     <use x="313.699921" xlink:href="#STIXGeneral-Regular-102"/>
     <use x="346.999908" xlink:href="#STIXGeneral-Regular-101"/>
     <use x="391.399902" xlink:href="#STIXGeneral-Regular-99"/>
     <use x="435.799896" xlink:href="#STIXGeneral-Regular-116"/>
    </g>
   </g>
   <g id="text_33">
    <!-- $Re = 10^3$ -->
    <g transform="translate(924.549677 519.474543)scale(0.18 -0.18)">
     <use transform="translate(0 0.409375)" xlink:href="#STIXGeneral-Italic-82"/>
     <use transform="translate(61.099991 0.409375)" xlink:href="#STIXGeneral-Italic-101"/>
     <use transform="translate(119.939981 0.409375)" xlink:href="#STIXGeneral-Regular-61"/>
     <use transform="translate(202.879962 0.409375)" xlink:href="#STIXGeneral-Regular-49"/>
     <use transform="translate(252.879947 0.409375)" xlink:href="#STIXGeneral-Regular-48"/>
     <use transform="translate(304.423213 35.684375)scale(0.7)" xlink:href="#STIXGeneral-Regular-51"/>
    </g>
   </g>
  </g>
 </g>
 <defs>
  <clipPath id="pf59142bac3">
   <rect height="265.437788" width="371.612903" x="100.8" y="72"/>
  </clipPath>
  <clipPath id="pdf518f9727">
   <rect height="265.437788" width="371.612903" x="535.587097" y="72"/>
  </clipPath>
  <clipPath id="p70e4ce3a5e">
   <rect height="265.437788" width="371.612903" x="100.8" y="382.562212"/>
  </clipPath>
  <clipPath id="pdd6afed0c6">
   <rect height="265.437788" width="371.612903" x="535.587097" y="382.562212"/>
  </clipPath>
 </defs>
</svg>
