<?xml version="1.0" encoding="utf-8" standalone="no"?>
<!DOCTYPE svg PUBLIC "-//W3C//DTD SVG 1.1//EN"
  "http://www.w3.org/Graphics/SVG/1.1/DTD/svg11.dtd">
<!-- Created with matplotlib (https://matplotlib.org/) -->
<svg height="720pt" version="1.1" viewBox="0 0 864 720" width="864pt" xmlns="http://www.w3.org/2000/svg" xmlns:xlink="http://www.w3.org/1999/xlink">
 <metadata>
  <rdf:RDF xmlns:cc="http://creativecommons.org/ns#" xmlns:dc="http://purl.org/dc/elements/1.1/" xmlns:rdf="http://www.w3.org/1999/02/22-rdf-syntax-ns#">
   <cc:Work>
    <dc:type rdf:resource="http://purl.org/dc/dcmitype/StillImage"/>
    <dc:date>2021-11-09T11:31:56.667516</dc:date>
    <dc:format>image/svg+xml</dc:format>
    <dc:creator>
     <cc:Agent>
      <dc:title>Matplotlib v3.3.4, https://matplotlib.org/</dc:title>
     </cc:Agent>
    </dc:creator>
   </cc:Work>
  </rdf:RDF>
 </metadata>
 <defs>
  <style type="text/css">*{stroke-linecap:butt;stroke-linejoin:round;}</style>
 </defs>
 <g id="figure_1">
  <g id="patch_1">
   <path d="M 0 720 
L 864 720 
L 864 0 
L 0 0 
z
" style="fill:#ffffff;"/>
  </g>
  <g id="axes_1">
   <g id="patch_2">
    <path d="M 108 346.285714 
L 777.6 346.285714 
L 777.6 72 
L 108 72 
z
" style="fill:#ffffff;"/>
   </g>
   <g id="matplotlib.axis_1">
    <g id="xtick_1">
     <g id="line2d_1">
      <defs>
       <path d="M 0 0 
L 0 3.5 
" id="m22a508edf4" style="stroke:#000000;stroke-width:0.8;"/>
      </defs>
      <g>
       <use style="fill:#ffffff;stroke:#000000;stroke-width:0.8;" x="108" xlink:href="#m22a508edf4" y="346.285714"/>
      </g>
     </g>
    </g>
    <g id="xtick_2">
     <g id="line2d_2">
      <g>
       <use style="fill:#ffffff;stroke:#000000;stroke-width:0.8;" x="241.92" xlink:href="#m22a508edf4" y="346.285714"/>
      </g>
     </g>
    </g>
    <g id="xtick_3">
     <g id="line2d_3">
      <g>
       <use style="fill:#ffffff;stroke:#000000;stroke-width:0.8;" x="375.84" xlink:href="#m22a508edf4" y="346.285714"/>
      </g>
     </g>
    </g>
    <g id="xtick_4">
     <g id="line2d_4">
      <g>
       <use style="fill:#ffffff;stroke:#000000;stroke-width:0.8;" x="509.76" xlink:href="#m22a508edf4" y="346.285714"/>
      </g>
     </g>
    </g>
    <g id="xtick_5">
     <g id="line2d_5">
      <g>
       <use style="fill:#ffffff;stroke:#000000;stroke-width:0.8;" x="643.68" xlink:href="#m22a508edf4" y="346.285714"/>
      </g>
     </g>
    </g>
    <g id="xtick_6">
     <g id="line2d_6">
      <g>
       <use style="fill:#ffffff;stroke:#000000;stroke-width:0.8;" x="777.6" xlink:href="#m22a508edf4" y="346.285714"/>
      </g>
     </g>
    </g>
   </g>
   <g id="matplotlib.axis_2">
    <g id="ytick_1">
     <g id="line2d_7">
      <defs>
       <path d="M 0 0 
L -3.5 0 
" id="m658f962029" style="stroke:#000000;stroke-width:0.8;"/>
      </defs>
      <g>
       <use style="fill:#ffffff;stroke:#000000;stroke-width:0.8;" x="108" xlink:href="#m658f962029" y="325.968254"/>
      </g>
     </g>
     <g id="text_1">
      <!-- 0 -->
      <g transform="translate(89 334.163879)scale(0.24 -0.24)">
       <defs>
        <path d="M 47.59375 33 
Q 47.59375 26.296875 46.296875 20.34375 
Q 45 14.40625 42.453125 9.40625 
Q 39.90625 4.40625 35.40625 1.5 
Q 30.90625 -1.40625 25 -1.40625 
Q 18.90625 -1.40625 14.296875 1.6875 
Q 9.703125 4.796875 7.203125 10 
Q 4.703125 15.203125 3.546875 21.09375 
Q 2.40625 27 2.40625 33.59375 
Q 2.40625 42.90625 4.703125 50.34375 
Q 7 57.796875 12.34375 62.6875 
Q 17.703125 67.59375 25.40625 67.59375 
Q 35.203125 67.59375 41.390625 58 
Q 47.59375 48.40625 47.59375 33 
z
M 38 32.5 
Q 38 48.296875 34.640625 56.640625 
Q 31.296875 65 24.796875 65 
Q 18.59375 65 15.296875 56.59375 
Q 12 48.203125 12 32.90625 
Q 12 17.5 15.296875 9.34375 
Q 18.59375 1.203125 25 1.203125 
Q 31.296875 1.203125 34.640625 9.34375 
Q 38 17.5 38 32.5 
z
" id="STIXGeneral-Regular-48"/>
       </defs>
       <use xlink:href="#STIXGeneral-Regular-48"/>
      </g>
     </g>
    </g>
    <g id="ytick_2">
     <g id="line2d_8">
      <g>
       <use style="fill:#ffffff;stroke:#000000;stroke-width:0.8;" x="108" xlink:href="#m658f962029" y="224.380952"/>
      </g>
     </g>
     <g id="text_2">
      <!-- 1 -->
      <g transform="translate(89 232.576577)scale(0.24 -0.24)">
       <defs>
        <path d="M 39.40625 0 
L 11.796875 0 
L 11.796875 1.5 
Q 17.296875 1.796875 19.296875 3.546875 
Q 21.296875 5.296875 21.296875 9.5 
L 21.296875 54.40625 
Q 21.296875 59.296875 18.296875 59.296875 
Q 16.90625 59.296875 13.796875 58.09375 
L 11.09375 57.09375 
L 11.09375 58.5 
L 29 67.59375 
L 29.90625 67.296875 
L 29.90625 7.59375 
Q 29.90625 4.296875 31.90625 2.890625 
Q 33.90625 1.5 39.40625 1.5 
z
" id="STIXGeneral-Regular-49"/>
       </defs>
       <use xlink:href="#STIXGeneral-Regular-49"/>
      </g>
     </g>
    </g>
    <g id="ytick_3">
     <g id="line2d_9">
      <g>
       <use style="fill:#ffffff;stroke:#000000;stroke-width:0.8;" x="108" xlink:href="#m658f962029" y="122.793651"/>
      </g>
     </g>
     <g id="text_3">
      <!-- 2 -->
      <g transform="translate(89 130.989276)scale(0.24 -0.24)">
       <defs>
        <path d="M 47.40625 13.703125 
L 42 0 
L 2.90625 0 
L 2.90625 1.203125 
L 20.703125 20.09375 
Q 27.703125 27.40625 30.703125 33.5 
Q 33.703125 39.59375 33.703125 46.09375 
Q 33.703125 52.796875 30 56.5 
Q 26.296875 60.203125 19.796875 60.203125 
Q 14.40625 60.203125 11.25 57.390625 
Q 8.09375 54.59375 5.09375 47.203125 
L 3 47.703125 
Q 4.703125 57 9.84375 62.296875 
Q 15 67.59375 23.796875 67.59375 
Q 32.09375 67.59375 37.1875 62.59375 
Q 42.296875 57.59375 42.296875 50 
Q 42.296875 38.703125 29.5 25.203125 
L 13 7.59375 
L 36.40625 7.59375 
Q 39.703125 7.59375 41.640625 8.890625 
Q 43.59375 10.203125 46 14.296875 
z
" id="STIXGeneral-Regular-50"/>
       </defs>
       <use xlink:href="#STIXGeneral-Regular-50"/>
      </g>
     </g>
    </g>
    <g id="text_4">
     <!-- $C_L$ -->
     <g transform="translate(79.79125 222.462857)rotate(-90)scale(0.24 -0.24)">
      <defs>
       <path d="M 68.90625 66.40625 
L 65.203125 46.40625 
L 63.40625 46.703125 
Q 61.59375 63 48.5 63 
Q 37.59375 63 28.59375 53.296875 
Q 23.296875 47.703125 20.546875 39.703125 
Q 17.796875 31.703125 17.796875 23.203125 
Q 17.796875 2.703125 35.296875 2.703125 
Q 41.5 2.703125 46.640625 5.296875 
Q 51.796875 7.90625 58.203125 14.59375 
L 60 13.09375 
Q 53.296875 5.203125 46.84375 1.703125 
Q 40.40625 -1.796875 32.703125 -1.796875 
Q 21 -1.796875 13.796875 5.140625 
Q 6.59375 12.09375 6.59375 24.296875 
Q 6.59375 34.59375 11.6875 43.9375 
Q 16.796875 53.296875 25.296875 59.296875 
Q 35.5 66.59375 47.203125 66.59375 
Q 54.09375 66.59375 58.90625 64.90625 
Q 60.90625 64.203125 63 64.203125 
Q 65.703125 64.203125 66.796875 66.40625 
z
" id="STIXGeneral-Italic-67"/>
       <path d="M 55.90625 18 
L 50.09375 0 
L -0.796875 0 
L -0.796875 1.59375 
Q 3.40625 2 4.703125 3.296875 
Q 6 4.59375 7.40625 9.40625 
L 19.59375 53.203125 
Q 20.703125 56.90625 20.703125 59.40625 
Q 20.703125 61.59375 19.140625 62.5 
Q 17.59375 63.40625 13 63.703125 
L 13 65.296875 
L 40.296875 65.296875 
L 40.296875 63.703125 
Q 35.703125 63.40625 33.546875 61.796875 
Q 31.40625 60.203125 30.203125 56 
L 18.203125 13.09375 
Q 17.203125 9.296875 17.203125 7.703125 
Q 17.203125 5.40625 19.390625 4.5 
Q 21.59375 3.59375 27.703125 3.59375 
Q 35.40625 3.59375 38.75 4.296875 
Q 42.09375 5 45.703125 7.40625 
Q 49.796875 10.09375 53.90625 18.59375 
z
" id="STIXGeneral-Italic-76"/>
      </defs>
      <use transform="translate(0 0.40625)" xlink:href="#STIXGeneral-Italic-67"/>
      <use transform="translate(66.699997 -12.821875)scale(0.7)" xlink:href="#STIXGeneral-Italic-76"/>
     </g>
    </g>
   </g>
   <g id="line2d_10">
    <path clip-path="url(#pd6168d3574)" d="M 107.3304 335.531723 
L 108.6696 332.864915 
L 110.0088 329.780426 
L 112.0176 324.520319 
L 114.696 316.627794 
L 120.0528 299.582091 
L 123.4008 289.206611 
L 126.0792 281.591944 
L 127.4184 278.102516 
L 128.088 277.394703 
L 129.4272 274.724719 
L 130.0968 273.308186 
L 130.7664 272.536599 
L 132.1056 270.252634 
L 134.784 265.81643 
L 135.4536 264.860553 
L 136.1232 263.581535 
L 136.7928 261.859724 
L 137.4624 260.820966 
L 138.132 260.597286 
L 138.8016 260.179298 
L 140.1408 258.644798 
L 141.48 256.95531 
L 142.1496 255.492747 
L 144.828 251.355816 
L 146.8368 248.037447 
L 148.8456 244.201904 
L 150.8544 239.840364 
L 152.8632 234.909713 
L 154.872 229.500171 
L 158.22 219.563724 
L 166.9248 193.195912 
L 168.9336 187.810462 
L 171.612 181.439697 
L 172.2816 180.012434 
L 172.9512 178.302508 
L 173.6208 177.317123 
L 174.96 174.968838 
L 176.2992 172.943988 
L 177.6384 171.231031 
L 178.9776 169.868022 
L 180.3168 168.879565 
L 181.656 168.281946 
L 182.9952 168.104999 
L 184.3344 168.352852 
L 185.6736 169.070519 
L 187.0128 170.262316 
L 188.352 171.954702 
L 189.6912 174.158492 
L 191.0304 176.891278 
L 191.7 178.502338 
L 192.3696 178.942697 
L 193.0392 176.07029 
L 193.7088 174.54919 
L 195.048 172.253374 
L 197.7264 167.74445 
L 200.4048 163.750752 
L 203.0832 160.251307 
L 205.7616 157.225976 
L 207.7704 155.22762 
L 210.4488 152.894908 
L 213.1272 150.882894 
L 216.4752 148.764597 
L 219.1536 147.300906 
L 222.5016 145.695637 
L 227.1888 143.756994 
L 232.5456 141.814524 
L 238.572 139.839929 
L 247.2768 137.256173 
L 257.9904 134.372222 
L 296.1576 124.408264 
L 306.2016 122.120445 
L 312.228 120.901916 
L 316.9152 120.082179 
L 320.2632 119.517252 
L 324.9504 118.854736 
L 329.6376 118.145196 
L 341.6904 117.137275 
L 346.3776 116.902255 
L 348.3864 116.795976 
L 351.7344 116.728784 
L 353.7432 116.670199 
L 357.0912 116.690389 
L 359.1 116.692701 
L 361.7784 116.772953 
L 366.4656 116.67209 
L 369.144 116.758225 
L 371.1528 116.997084 
L 373.1616 117.438018 
L 375.1704 118.151653 
L 376.5096 118.800113 
L 377.8488 119.60813 
L 379.188 120.608303 
L 380.5272 121.835479 
L 381.8664 123.281223 
L 383.2056 124.998699 
L 384.5448 126.979595 
L 386.5536 130.545854 
L 388.5624 134.854304 
L 390.5712 139.964746 
L 391.9104 143.827614 
L 393.9192 150.336176 
L 395.928 157.788776 
L 397.9368 166.088752 
L 399.9456 175.26396 
L 402.624 188.752941 
L 405.3024 203.508533 
L 408.6504 223.383551 
L 420.0336 292.56935 
L 422.0424 303.128147 
L 424.0512 312.668391 
L 426.06 321.056784 
L 428.0688 328.089776 
L 429.408 332.003921 
L 430.7472 335.254587 
L 432.0864 337.830228 
L 433.4256 339.722356 
L 434.0952 340.410649 
L 434.7648 340.933353 
L 435.4344 341.292478 
L 436.104 341.482508 
L 436.7736 341.52054 
L 437.4432 341.395049 
L 438.1128 341.12401 
L 438.7824 340.696308 
L 439.452 340.133401 
L 440.7912 338.586322 
L 442.1304 336.52451 
L 444.8088 330.762614 
L 448.8264 320.128361 
L 450.1656 315.636424 
L 455.5224 298.724317 
L 456.192 297.436906 
L 457.5312 292.678494 
L 459.54 286.758965 
L 460.8792 283.078646 
L 462.2184 280.288382 
L 463.5576 277.144391 
L 464.2272 276.609225 
L 465.5664 274.249801 
L 468.9144 267.930483 
L 469.584 266.103436 
L 470.2536 265.67049 
L 470.9232 264.824796 
L 471.5928 264.280046 
L 474.2712 260.985348 
L 474.9408 259.672725 
L 476.28 257.719422 
L 479.628 252.881685 
L 480.9672 250.707068 
L 482.976 247.025104 
L 485.6544 241.428333 
L 487.6632 236.468574 
L 489.672 231.002638 
L 490.3416 228.421311 
L 491.0112 227.02682 
L 493.02 220.99886 
L 497.0376 208.213188 
L 500.3856 197.924462 
L 503.064 190.323652 
L 505.0728 185.154088 
L 507.0816 180.553334 
L 509.0904 176.564871 
L 510.4296 174.28521 
L 511.7688 172.323891 
L 513.108 170.725186 
L 514.4472 169.492559 
L 515.7864 168.629794 
L 517.1256 168.186888 
L 518.4648 168.169475 
L 519.1344 168.318735 
L 520.4736 168.980939 
L 521.8128 170.115118 
L 523.152 171.753797 
L 524.4912 173.903816 
L 525.8304 176.603064 
L 526.5 178.176906 
L 527.1696 178.595152 
L 527.8392 175.70127 
L 528.5088 174.154246 
L 529.848 171.809878 
L 532.5264 167.226037 
L 535.2048 163.162736 
L 537.8832 159.60544 
L 541.2312 155.837227 
L 543.24 153.840657 
L 546.588 151.015203 
L 548.5968 149.514302 
L 553.284 146.615243 
L 555.2928 145.519476 
L 561.9888 142.438009 
L 572.7024 138.486006 
L 576.0504 137.4312 
L 579.3984 136.407726 
L 588.1032 134.009656 
L 598.1472 131.471163 
L 612.2088 128.041086 
L 627.6096 124.363656 
L 629.6184 123.820888 
L 632.2968 123.264523 
L 636.3144 122.447115 
L 641.6712 121.364973 
L 646.3584 120.496498 
L 654.3936 119.190662 
L 663.768 117.993732 
L 672.4728 117.214406 
L 679.1688 116.835333 
L 684.5256 116.666195 
L 692.5608 116.672298 
L 699.9264 116.749271 
L 703.2744 116.822389 
L 705.9528 117.133136 
L 707.9616 117.603216 
L 709.9704 118.330705 
L 711.9792 119.394164 
L 713.3184 120.3222 
L 714.6576 121.451239 
L 715.9968 122.807262 
L 717.336 124.403643 
L 718.6752 126.274447 
L 720.0144 128.430049 
L 721.3536 130.899101 
L 722.6928 133.70262 
L 724.7016 138.553553 
L 726.7104 144.243201 
L 728.7192 150.799082 
L 730.728 158.253843 
L 732.7368 166.584131 
L 734.7456 175.786586 
L 737.424 189.296278 
L 740.1024 204.07867 
L 743.4504 223.9711 
L 754.164 289.363714 
L 756.8424 303.589631 
L 758.8512 313.090816 
L 760.86 321.419505 
L 762.1992 326.233823 
L 763.5384 330.428371 
L 764.8776 333.976771 
L 766.2168 336.847696 
L 767.556 339.040475 
L 768.8952 340.550148 
L 769.5648 341.049633 
L 770.2344 341.393037 
L 771.5736 341.657876 
L 772.2432 341.506248 
L 772.9128 341.176617 
L 773.5824 340.684067 
L 774.9216 339.274262 
L 776.2608 337.328395 
L 777.6 334.855059 
L 777.6 334.855059 
" style="fill:none;stroke:#1f77b4;stroke-linecap:square;stroke-width:4;"/>
   </g>
   <g id="line2d_11">
    <path clip-path="url(#pd6168d3574)" d="M 107.3304 322.762001 
L 109.3392 318.210374 
L 111.348 312.992327 
L 114.0264 305.24747 
L 118.044 292.702026 
L 122.7312 277.993104 
L 128.088 262.431969 
L 129.4272 258.976734 
L 130.7664 255.927251 
L 132.7752 251.375282 
L 134.784 246.950449 
L 138.132 240.215856 
L 138.8016 238.384077 
L 140.1408 235.766142 
L 142.1496 232.414402 
L 144.1584 229.46223 
L 145.4976 227.771215 
L 146.1672 227.937899 
L 146.8368 227.466229 
L 150.1848 224.334397 
L 155.5416 219.604353 
L 157.5504 217.432585 
L 159.5592 214.794815 
L 160.8984 212.781456 
L 162.2376 210.550219 
L 164.2464 206.819061 
L 166.9248 201.103127 
L 169.6032 194.696056 
L 170.9424 191.235697 
L 171.612 189.168675 
L 172.9512 185.969799 
L 181.656 163.118021 
L 183.6648 158.515131 
L 185.6736 154.500976 
L 187.0128 152.241906 
L 188.352 150.379151 
L 189.6912 148.962702 
L 191.0304 148.052495 
L 191.7 147.830533 
L 192.3696 146.944238 
L 193.0392 144.116959 
L 194.3784 140.489296 
L 196.3872 135.655014 
L 198.396 131.472929 
L 200.4048 127.94773 
L 201.744 125.950628 
L 203.0832 124.214925 
L 204.4224 122.744546 
L 205.7616 121.512483 
L 207.1008 120.487019 
L 208.44 119.655224 
L 209.7792 119.003379 
L 211.788 118.303575 
L 213.7968 117.865465 
L 216.4752 117.591866 
L 219.8232 117.553237 
L 224.5104 117.735741 
L 234.5544 118.229408 
L 240.5808 118.291784 
L 245.9376 118.090398 
L 252.6336 117.54347 
L 259.9992 116.69494 
L 270.7128 115.188349 
L 286.7832 112.785462 
L 293.4792 111.977456 
L 300.1752 111.364229 
L 306.2016 110.972399 
L 316.9152 110.613719 
L 328.2984 110.37752 
L 329.6376 110.495297 
L 339.6816 110.605565 
L 349.056 110.812367 
L 357.7608 111.074692 
L 359.1 111.113044 
L 359.7696 111.28893 
L 360.4392 111.902166 
L 364.4568 114.498422 
L 367.1352 116.594595 
L 369.8136 119.076089 
L 372.492 122.008853 
L 374.5008 124.563107 
L 376.5096 127.441848 
L 378.5184 130.707001 
L 380.5272 134.360053 
L 382.536 138.487982 
L 384.5448 143.086322 
L 387.2232 150.08137 
L 389.232 155.994175 
L 391.2408 162.489878 
L 393.9192 172.125042 
L 396.5976 182.856223 
L 399.276 194.627233 
L 402.624 210.667549 
L 403.9632 217.901485 
L 416.016 281.959489 
L 418.6944 294.716001 
L 420.7032 303.394832 
L 422.712 311.143787 
L 424.7208 317.828872 
L 426.06 321.642911 
L 426.7296 323.337082 
L 428.0688 325.823871 
L 429.408 328.220607 
L 430.7472 330.036184 
L 432.0864 331.272462 
L 432.756 331.666628 
L 433.4256 331.919891 
L 434.0952 332.030473 
L 434.7648 331.994879 
L 435.4344 331.826263 
L 436.7736 331.088045 
L 438.1128 329.833827 
L 439.452 328.105097 
L 440.7912 325.925519 
L 442.1304 323.342214 
L 444.1392 318.797245 
L 446.148 313.604521 
L 448.8264 305.939921 
L 452.844 293.536927 
L 459.54 272.675364 
L 460.8792 269.098222 
L 462.888 263.601605 
L 469.584 247.770638 
L 470.2536 246.341719 
L 470.9232 244.42796 
L 472.2624 241.529084 
L 476.28 234.275075 
L 478.9584 230.169282 
L 480.9672 227.609184 
L 481.6368 227.763398 
L 482.3064 227.284768 
L 486.324 223.329123 
L 486.9936 222.184423 
L 487.6632 221.533043 
L 488.3328 221.395136 
L 489.0024 220.929551 
L 490.3416 219.615677 
L 491.6808 218.099229 
L 493.6896 215.375634 
L 495.6984 212.267324 
L 497.7072 208.646214 
L 499.716 204.533382 
L 501.7248 200.049894 
L 505.0728 191.711586 
L 508.4208 182.757844 
L 513.7776 168.230598 
L 516.456 161.479608 
L 518.4648 156.894365 
L 520.4736 152.922529 
L 521.8128 150.694015 
L 523.152 148.866341 
L 524.4912 147.49156 
L 525.1608 146.972735 
L 526.5 146.391107 
L 527.1696 145.549417 
L 527.8392 142.723511 
L 529.1784 139.138686 
L 531.1872 134.341123 
L 533.196 130.207328 
L 535.2048 126.703828 
L 537.2136 123.839174 
L 538.5528 122.256173 
L 539.892 120.917471 
L 541.2312 119.800824 
L 542.5704 118.888736 
L 543.9096 118.161764 
L 545.2488 117.598863 
L 546.588 117.179109 
L 548.5968 116.735261 
L 551.9448 116.454145 
L 553.9536 116.408882 
L 569.3544 116.968654 
L 577.3896 116.784404 
L 584.0856 116.226979 
L 592.7904 115.168275 
L 600.156 114.119627 
L 620.9136 111.033444 
L 622.2528 110.807166 
L 625.6008 110.360032 
L 639.6624 109.607053 
L 654.3936 109.469568 
L 660.42 109.527515 
L 665.1072 109.565097 
L 677.8296 109.769273 
L 693.9 110.143305 
L 694.5696 110.316471 
L 695.2392 110.913221 
L 699.9264 113.965722 
L 701.9352 115.537858 
L 704.6136 117.985889 
L 707.292 120.890145 
L 709.9704 124.329104 
L 711.9792 127.324091 
L 713.988 130.683647 
L 715.9968 134.493281 
L 718.0056 138.749953 
L 720.0144 143.532918 
L 722.0232 148.851776 
L 724.032 154.759649 
L 726.0408 161.263812 
L 728.7192 170.904734 
L 731.3976 181.644235 
L 734.076 193.438444 
L 736.7544 206.18975 
L 738.0936 213.329436 
L 750.816 281.147729 
L 753.4944 293.985389 
L 755.5032 302.716664 
L 757.512 310.532136 
L 759.5208 317.269886 
L 760.86 320.624927 
L 762.1992 323.893425 
L 763.5384 326.633248 
L 764.8776 328.780839 
L 766.2168 330.331143 
L 767.556 331.292193 
L 768.2256 331.5487 
L 768.8952 331.667837 
L 769.5648 331.638919 
L 770.2344 331.478655 
L 770.904 331.176433 
L 771.5736 330.746024 
L 772.9128 329.494337 
L 774.252 327.745441 
L 775.5912 325.557313 
L 776.9304 322.966884 
L 777.6 321.530769 
L 777.6 321.530769 
" style="fill:none;stroke:#ff7f0e;stroke-linecap:square;stroke-width:4;"/>
   </g>
   <g id="line2d_12">
    <path clip-path="url(#pd6168d3574)" d="M 107.3304 318.109747 
L 109.3392 313.294275 
L 111.348 307.812464 
L 114.0264 299.631147 
L 117.3744 288.393147 
L 124.74 262.994459 
L 127.4184 254.90353 
L 129.4272 249.389276 
L 132.1056 242.637271 
L 134.1144 237.830467 
L 134.784 236.65984 
L 137.4624 230.719077 
L 140.1408 225.767472 
L 140.8104 224.134502 
L 141.48 222.992614 
L 142.8192 221.274793 
L 144.1584 219.957663 
L 145.4976 219.00373 
L 146.8368 218.335672 
L 148.176 217.925588 
L 150.1848 217.63748 
L 153.5328 217.206717 
L 154.872 216.91056 
L 155.5416 217.548112 
L 156.2112 217.471642 
L 157.5504 216.82998 
L 158.8896 215.840203 
L 160.2288 214.519715 
L 161.568 212.866014 
L 162.9072 210.877792 
L 164.2464 208.540866 
L 165.5856 205.869922 
L 166.9248 202.941671 
L 168.264 199.388437 
L 168.9336 198.062648 
L 172.2816 189.442858 
L 177.6384 175.399306 
L 180.3168 169.278578 
L 182.3256 165.286657 
L 183.6648 162.995294 
L 185.004 161.036469 
L 186.3432 159.440059 
L 187.6824 158.243199 
L 189.0216 157.442193 
L 189.6912 157.193061 
L 191.0304 157.034094 
L 191.7 157.145218 
L 192.3696 156.788204 
L 193.0392 155.068636 
L 193.7088 153.935556 
L 198.396 147.759613 
L 201.0744 144.67054 
L 204.4224 141.068601 
L 215.8056 128.990692 
L 221.832 122.495933 
L 225.18 119.142726 
L 227.8584 116.746987 
L 229.8672 115.152405 
L 232.5456 113.380784 
L 234.5544 112.320467 
L 236.5632 111.492444 
L 238.572 110.897196 
L 240.5808 110.522786 
L 242.5896 110.343497 
L 245.268 110.357683 
L 247.9464 110.613102 
L 251.964 111.252451 
L 262.6776 113.211687 
L 267.3648 113.816241 
L 273.3912 114.276391 
L 278.748 114.388754 
L 283.4352 114.262836 
L 288.792 113.850765 
L 294.1488 113.18524 
L 300.8448 112.128904 
L 310.8888 110.553013 
L 316.9152 109.899941 
L 324.2808 109.379931 
L 329.6376 109.518104 
L 349.056 110.400682 
L 355.0824 110.603359 
L 359.1 110.670405 
L 359.7696 110.851008 
L 360.4392 111.549961 
L 363.7872 114.106055 
L 365.796 115.951379 
L 367.8048 118.070806 
L 369.8136 120.497042 
L 372.492 124.231601 
L 375.1704 128.583991 
L 377.8488 133.587424 
L 380.5272 139.30777 
L 383.2056 145.791626 
L 384.5448 149.573205 
L 387.8928 159.545623 
L 390.5712 168.433318 
L 392.58 175.657025 
L 395.2584 186.088649 
L 398.6064 200.355722 
L 401.2848 212.61813 
L 404.6328 228.889583 
L 414.0072 275.553693 
L 416.6856 287.943044 
L 419.364 299.209283 
L 421.3728 306.719537 
L 423.3816 313.269722 
L 424.7208 317.059606 
L 427.3992 323.263069 
L 428.7384 325.487902 
L 430.0776 327.16492 
L 431.4168 328.293082 
L 432.0864 328.654812 
L 433.4256 328.956881 
L 434.0952 328.899614 
L 434.7648 328.719989 
L 436.104 327.975662 
L 437.4432 326.741674 
L 438.7824 325.033475 
L 440.1216 322.888715 
L 441.4608 320.336173 
L 443.4696 315.834617 
L 445.4784 310.624378 
L 447.4872 304.80854 
L 450.1656 296.27687 
L 453.5136 284.715399 
L 459.54 263.747144 
L 462.2184 255.477697 
L 464.8968 247.964032 
L 468.2448 239.003149 
L 468.9144 237.796893 
L 470.9232 232.649213 
L 473.6016 226.403819 
L 474.2712 225.104183 
L 474.9408 223.533325 
L 476.28 221.40887 
L 477.6192 219.799559 
L 478.9584 218.643805 
L 480.2976 217.916656 
L 482.3064 217.294685 
L 484.3152 217.108915 
L 484.9848 217.166166 
L 486.324 217.523664 
L 488.3328 217.487922 
L 489.0024 217.430081 
L 489.672 218.058031 
L 490.3416 218.035852 
L 491.6808 217.454219 
L 492.3504 216.986211 
L 494.3592 214.906625 
L 495.6984 213.131988 
L 497.0376 210.973257 
L 499.0464 207.032517 
L 501.7248 200.937758 
L 503.7336 195.584641 
L 507.7512 184.038466 
L 511.0992 174.614174 
L 513.108 169.425665 
L 515.1168 164.793703 
L 517.1256 160.834701 
L 518.4648 158.632176 
L 519.804 156.786558 
L 521.1432 155.346276 
L 522.4824 154.321929 
L 523.152 153.960701 
L 524.4912 153.581516 
L 525.1608 153.557524 
L 525.8304 153.64561 
L 526.5 153.86575 
L 527.1696 153.633849 
L 527.8392 152.035604 
L 528.5088 151.024958 
L 532.5264 146.56268 
L 535.2048 144.191768 
L 537.8832 142.187893 
L 543.24 138.743265 
L 546.588 136.625107 
L 551.2752 133.265617 
L 553.9536 131.100914 
L 556.632 128.770731 
L 559.98 125.688262 
L 566.0064 119.989536 
L 570.024 116.469361 
L 574.0416 113.444372 
L 576.72 111.782597 
L 579.3984 110.444904 
L 581.4072 109.640423 
L 584.0856 108.838991 
L 586.764 108.313487 
L 589.4424 108.041169 
L 592.7904 107.977578 
L 596.1384 108.136024 
L 601.4952 108.683443 
L 610.2 109.799943 
L 614.8872 110.368919 
L 620.9136 110.776372 
L 625.6008 111.001165 
L 630.288 111.191089 
L 632.9664 111.21568 
L 636.3144 111.182613 
L 646.3584 110.835564 
L 652.3848 110.65315 
L 657.072 110.535036 
L 687.8736 110.476991 
L 693.9 110.36181 
L 694.5696 110.536975 
L 695.2392 111.194524 
L 699.2568 114.217401 
L 701.9352 116.792434 
L 704.6136 119.893584 
L 707.292 123.570791 
L 709.9704 127.868704 
L 712.6488 132.833043 
L 715.3272 138.512543 
L 717.336 143.283933 
L 722.6928 158.694752 
L 724.7016 165.245642 
L 727.38 174.792089 
L 730.0584 185.251412 
L 733.4064 199.558276 
L 736.0848 211.890957 
L 739.4328 228.259396 
L 749.4768 278.45245 
L 752.1552 290.674702 
L 754.164 299.03685 
L 756.1728 306.578364 
L 758.1816 313.361188 
L 759.5208 317.145752 
L 760.86 320.430403 
L 762.1992 323.183766 
L 763.5384 325.355879 
L 764.8776 327.011047 
L 765.5472 327.638552 
L 766.8864 328.449513 
L 767.556 328.644875 
L 768.2256 328.70702 
L 768.8952 328.632459 
L 769.5648 328.432519 
L 770.904 327.636519 
L 772.2432 326.33639 
L 773.5824 324.57129 
L 774.9216 322.370824 
L 776.2608 319.765442 
L 777.6 316.807163 
L 777.6 316.807163 
" style="fill:none;stroke:#2ca02c;stroke-linecap:square;stroke-width:4;"/>
   </g>
   <g id="line2d_13">
    <path clip-path="url(#pd6168d3574)" d="M 108 325.968254 
L 777.6 325.968254 
" style="fill:none;stroke:#000000;stroke-dasharray:3.2,0.8,0.5,0.8;stroke-dashoffset:0;stroke-width:0.5;"/>
   </g>
   <g id="line2d_14">
    <path clip-path="url(#pd6168d3574)" d="M 442.8 346.285714 
L 442.8 72 
" style="fill:none;stroke:#000000;stroke-dasharray:3.2,0.8,0.5,0.8;stroke-dashoffset:0;stroke-width:0.5;"/>
   </g>
   <g id="patch_3">
    <path d="M 108 346.285714 
L 108 72 
" style="fill:none;stroke:#000000;stroke-linecap:square;stroke-linejoin:miter;stroke-width:0.8;"/>
   </g>
   <g id="patch_4">
    <path d="M 777.6 346.285714 
L 777.6 72 
" style="fill:none;stroke:#000000;stroke-linecap:square;stroke-linejoin:miter;stroke-width:0.8;"/>
   </g>
   <g id="patch_5">
    <path d="M 108 346.285714 
L 777.6 346.285714 
" style="fill:none;stroke:#000000;stroke-linecap:square;stroke-linejoin:miter;stroke-width:0.8;"/>
   </g>
   <g id="patch_6">
    <path d="M 108 72 
L 777.6 72 
" style="fill:none;stroke:#000000;stroke-linecap:square;stroke-linejoin:miter;stroke-width:0.8;"/>
   </g>
   <g id="legend_1">
    <g id="line2d_15">
     <path d="M 204.173614 55.847143 
L 244.157614 55.847143 
" style="fill:none;stroke:#1f77b4;stroke-linecap:square;stroke-width:4;"/>
    </g>
    <g id="line2d_16"/>
    <g id="text_5">
     <!-- AR = 3.0 -->
     <g transform="translate(260.151214 62.844343)scale(0.19992 -0.19992)">
      <defs>
       <path d="M 70.703125 0 
L 45.203125 0 
L 45.203125 1.90625 
Q 49.203125 1.90625 50.703125 2.796875 
Q 52.09375 3.5 52.09375 5.203125 
Q 52.09375 7.796875 50.203125 12.203125 
L 46.09375 21.59375 
L 19.90625 21.59375 
L 15.296875 10.203125 
Q 14.40625 7.90625 14.40625 6 
Q 14.40625 3.703125 16.046875 2.796875 
Q 17.703125 1.90625 21.40625 1.90625 
L 21.40625 0 
L 1.5 0 
L 1.5 1.90625 
Q 5.703125 2.296875 7.59375 4.9375 
Q 9.5 7.59375 14.09375 18.59375 
L 34.703125 67.40625 
L 36.703125 67.40625 
L 61.296875 11.09375 
Q 63.5 5.90625 65.25 4.09375 
Q 67 2.296875 70.703125 1.90625 
z
M 44.703125 25.703125 
L 33.09375 53.203125 
L 21.59375 25.703125 
z
" id="STIXGeneral-Regular-65"/>
       <path d="M 66 0 
L 49.796875 0 
L 26 30.796875 
L 20.40625 30.59375 
L 20.40625 11.203125 
Q 20.40625 5.5 21.953125 3.890625 
Q 23.5 2.296875 29.296875 1.90625 
L 29.296875 0 
L 1.703125 0 
L 1.703125 1.90625 
Q 7.40625 2.40625 8.796875 4.09375 
Q 10.203125 5.796875 10.203125 12.40625 
L 10.203125 55.09375 
Q 10.203125 60.703125 8.796875 62.296875 
Q 7.40625 63.90625 1.703125 64.296875 
L 1.703125 66.203125 
L 28.90625 66.203125 
Q 42.59375 66.203125 49.796875 60.296875 
Q 54.703125 56.296875 54.703125 48.296875 
Q 54.703125 34.703125 36.59375 31.90625 
L 56.59375 6.59375 
Q 58.703125 4 60.59375 3.09375 
Q 62.5 2.203125 66 1.90625 
z
M 20.40625 58.296875 
L 20.40625 34.296875 
Q 27.59375 34.40625 31.09375 35.09375 
Q 34.59375 35.796875 38.09375 37.703125 
Q 43.796875 40.90625 43.796875 49.09375 
Q 43.796875 62.5 25.5 62.5 
Q 22.796875 62.5 21.59375 61.640625 
Q 20.40625 60.796875 20.40625 58.296875 
z
" id="STIXGeneral-Regular-82"/>
       <path id="STIXGeneral-Regular-32"/>
       <path d="M 63.703125 32 
L 4.796875 32 
L 4.796875 38.59375 
L 63.703125 38.59375 
z
M 63.703125 12 
L 4.796875 12 
L 4.796875 18.59375 
L 63.703125 18.59375 
z
" id="STIXGeneral-Regular-61"/>
       <path d="M 6.09375 51 
L 4.5 51.40625 
Q 6.796875 58.90625 11.6875 63.25 
Q 16.59375 67.59375 24.09375 67.59375 
Q 31.09375 67.59375 35.390625 63.796875 
Q 39.703125 60 39.703125 53.90625 
Q 39.703125 45.703125 30.40625 40.09375 
Q 35.90625 37.703125 38.703125 34.796875 
Q 43.09375 29.90625 43.09375 21.90625 
Q 43.09375 13.90625 38.5 7.90625 
Q 35.09375 3.296875 28.75 0.9375 
Q 22.40625 -1.40625 15.296875 -1.40625 
Q 4.09375 -1.40625 4.09375 4.296875 
Q 4.09375 5.90625 5.296875 6.90625 
Q 6.5 7.90625 8.203125 7.90625 
Q 10.703125 7.90625 14.296875 5.296875 
Q 18.703125 2.203125 22.90625 2.203125 
Q 28.40625 2.203125 32.15625 6.640625 
Q 35.90625 11.09375 35.90625 17.5 
Q 35.90625 29 25.5 32 
Q 22.40625 33 15.296875 33 
L 15.296875 34.40625 
Q 20.90625 36.296875 23.703125 38 
Q 31.796875 42.59375 31.796875 51.40625 
Q 31.796875 56.40625 28.9375 59 
Q 26.09375 61.59375 21 61.59375 
Q 12 61.59375 6.09375 51 
z
" id="STIXGeneral-Regular-51"/>
       <path d="M 18.09375 4.296875 
Q 18.09375 2.09375 16.4375 0.5 
Q 14.796875 -1.09375 12.5 -1.09375 
Q 10.203125 -1.09375 8.59375 0.5 
Q 7 2.09375 7 4.390625 
Q 7 6.703125 8.640625 8.34375 
Q 10.296875 10 12.59375 10 
Q 14.796875 10 16.4375 8.296875 
Q 18.09375 6.59375 18.09375 4.296875 
z
" id="STIXGeneral-Regular-46"/>
      </defs>
      <use xlink:href="#STIXGeneral-Regular-65"/>
      <use x="72.199982" xlink:href="#STIXGeneral-Regular-82"/>
      <use x="138.899979" xlink:href="#STIXGeneral-Regular-32"/>
      <use x="163.899963" xlink:href="#STIXGeneral-Regular-61"/>
      <use x="232.399948" xlink:href="#STIXGeneral-Regular-32"/>
      <use x="257.399933" xlink:href="#STIXGeneral-Regular-51"/>
      <use x="307.399918" xlink:href="#STIXGeneral-Regular-46"/>
      <use x="332.399902" xlink:href="#STIXGeneral-Regular-48"/>
     </g>
    </g>
    <g id="line2d_17">
     <path d="M 376.585871 55.847143 
L 416.569871 55.847143 
" style="fill:none;stroke:#ff7f0e;stroke-linecap:square;stroke-width:4;"/>
    </g>
    <g id="line2d_18"/>
    <g id="text_6">
     <!-- AR = 4.5 -->
     <g transform="translate(432.563471 62.844343)scale(0.19992 -0.19992)">
      <defs>
       <path d="M 47.296875 16.703125 
L 37 16.703125 
L 37 0 
L 29.203125 0 
L 29.203125 16.703125 
L 1.203125 16.703125 
L 1.203125 23.09375 
L 32.59375 67.59375 
L 37 67.59375 
L 37 23.09375 
L 47.296875 23.09375 
z
M 29.203125 23.09375 
L 29.203125 57.40625 
L 5.203125 23.09375 
z
" id="STIXGeneral-Regular-52"/>
       <path d="M 43.796875 68.09375 
L 40.203125 59.59375 
Q 39.59375 58.296875 37.5 58.296875 
L 18.09375 58.296875 
L 14.09375 49.796875 
Q 25.09375 47.703125 30 45.25 
Q 34.90625 42.796875 39.09375 37 
Q 42.59375 32.203125 42.59375 24.296875 
Q 42.59375 17.09375 40.25 12.1875 
Q 37.90625 7.296875 32.796875 3.5 
Q 26 -1.40625 15.796875 -1.40625 
Q 10.09375 -1.40625 6.59375 0.296875 
Q 3.09375 2 3.09375 4.796875 
Q 3.09375 8.59375 7.59375 8.59375 
Q 11.203125 8.59375 15 5.5 
Q 18.90625 2.296875 22.09375 2.296875 
Q 27.296875 2.296875 31.4375 7.5 
Q 35.59375 12.703125 35.59375 19.203125 
Q 35.59375 28.796875 28.90625 34.203125 
Q 20.203125 41.203125 7.59375 41.203125 
Q 6.40625 41.203125 6.40625 42 
L 6.5 42.5 
L 17.40625 66.203125 
L 38.09375 66.203125 
Q 39.796875 66.203125 40.75 66.703125 
Q 41.703125 67.203125 42.90625 68.796875 
z
" id="STIXGeneral-Regular-53"/>
      </defs>
      <use xlink:href="#STIXGeneral-Regular-65"/>
      <use x="72.199982" xlink:href="#STIXGeneral-Regular-82"/>
      <use x="138.899979" xlink:href="#STIXGeneral-Regular-32"/>
      <use x="163.899963" xlink:href="#STIXGeneral-Regular-61"/>
      <use x="232.399948" xlink:href="#STIXGeneral-Regular-32"/>
      <use x="257.399933" xlink:href="#STIXGeneral-Regular-52"/>
      <use x="307.399918" xlink:href="#STIXGeneral-Regular-46"/>
      <use x="332.399902" xlink:href="#STIXGeneral-Regular-53"/>
     </g>
    </g>
    <g id="line2d_19">
     <path d="M 548.998129 55.847143 
L 588.982129 55.847143 
" style="fill:none;stroke:#2ca02c;stroke-linecap:square;stroke-width:4;"/>
    </g>
    <g id="line2d_20"/>
    <g id="text_7">
     <!-- AR = 6.0 -->
     <g transform="translate(604.975729 62.844343)scale(0.19992 -0.19992)">
      <defs>
       <path d="M 44.59375 68.40625 
L 44.796875 66.796875 
Q 33 64.90625 25.09375 57.25 
Q 17.203125 49.59375 15.203125 38.296875 
Q 21 42.796875 27.90625 42.796875 
Q 36.703125 42.796875 41.75 37.1875 
Q 46.796875 31.59375 46.796875 21.90625 
Q 46.796875 12.09375 41.703125 5.90625 
Q 35.796875 -1.40625 25.796875 -1.40625 
Q 13.59375 -1.40625 8.09375 8.703125 
Q 3.40625 17.296875 3.40625 27.90625 
Q 3.40625 44.296875 14.296875 55.5 
Q 20.5 61.90625 27.046875 64.546875 
Q 33.59375 67.203125 44.59375 68.40625 
z
M 37.796875 18.796875 
Q 37.796875 38.203125 24.296875 38.203125 
Q 19.296875 38.203125 16 35.546875 
Q 12.703125 32.90625 12.703125 26.59375 
Q 12.703125 14.90625 16.34375 8.15625 
Q 20 1.40625 26.90625 1.40625 
Q 32.203125 1.40625 35 6.15625 
Q 37.796875 10.90625 37.796875 18.796875 
z
" id="STIXGeneral-Regular-54"/>
      </defs>
      <use xlink:href="#STIXGeneral-Regular-65"/>
      <use x="72.199982" xlink:href="#STIXGeneral-Regular-82"/>
      <use x="138.899979" xlink:href="#STIXGeneral-Regular-32"/>
      <use x="163.899963" xlink:href="#STIXGeneral-Regular-61"/>
      <use x="232.399948" xlink:href="#STIXGeneral-Regular-32"/>
      <use x="257.399933" xlink:href="#STIXGeneral-Regular-54"/>
      <use x="307.399918" xlink:href="#STIXGeneral-Regular-46"/>
      <use x="332.399902" xlink:href="#STIXGeneral-Regular-48"/>
     </g>
    </g>
   </g>
  </g>
  <g id="axes_2">
   <g id="patch_7">
    <path d="M 108 648 
L 777.6 648 
L 777.6 373.714286 
L 108 373.714286 
z
" style="fill:#ffffff;"/>
   </g>
   <g id="matplotlib.axis_3">
    <g id="xtick_7">
     <g id="line2d_21">
      <g>
       <use style="fill:#ffffff;stroke:#000000;stroke-width:0.8;" x="108" xlink:href="#m22a508edf4" y="648"/>
      </g>
     </g>
     <g id="text_8">
      <!-- 4.0 -->
      <g transform="translate(93 671.39125)scale(0.24 -0.24)">
       <use xlink:href="#STIXGeneral-Regular-52"/>
       <use x="49.999985" xlink:href="#STIXGeneral-Regular-46"/>
       <use x="74.999969" xlink:href="#STIXGeneral-Regular-48"/>
      </g>
     </g>
    </g>
    <g id="xtick_8">
     <g id="line2d_22">
      <g>
       <use style="fill:#ffffff;stroke:#000000;stroke-width:0.8;" x="241.92" xlink:href="#m22a508edf4" y="648"/>
      </g>
     </g>
     <g id="text_9">
      <!-- 4.2 -->
      <g transform="translate(226.92 671.39125)scale(0.24 -0.24)">
       <use xlink:href="#STIXGeneral-Regular-52"/>
       <use x="49.999985" xlink:href="#STIXGeneral-Regular-46"/>
       <use x="74.999969" xlink:href="#STIXGeneral-Regular-50"/>
      </g>
     </g>
    </g>
    <g id="xtick_9">
     <g id="line2d_23">
      <g>
       <use style="fill:#ffffff;stroke:#000000;stroke-width:0.8;" x="375.84" xlink:href="#m22a508edf4" y="648"/>
      </g>
     </g>
     <g id="text_10">
      <!-- 4.4 -->
      <g transform="translate(360.84 671.39125)scale(0.24 -0.24)">
       <use xlink:href="#STIXGeneral-Regular-52"/>
       <use x="49.999985" xlink:href="#STIXGeneral-Regular-46"/>
       <use x="74.999969" xlink:href="#STIXGeneral-Regular-52"/>
      </g>
     </g>
    </g>
    <g id="xtick_10">
     <g id="line2d_24">
      <g>
       <use style="fill:#ffffff;stroke:#000000;stroke-width:0.8;" x="509.76" xlink:href="#m22a508edf4" y="648"/>
      </g>
     </g>
     <g id="text_11">
      <!-- 4.6 -->
      <g transform="translate(494.76 671.39125)scale(0.24 -0.24)">
       <use xlink:href="#STIXGeneral-Regular-52"/>
       <use x="49.999985" xlink:href="#STIXGeneral-Regular-46"/>
       <use x="74.999969" xlink:href="#STIXGeneral-Regular-54"/>
      </g>
     </g>
    </g>
    <g id="xtick_11">
     <g id="line2d_25">
      <g>
       <use style="fill:#ffffff;stroke:#000000;stroke-width:0.8;" x="643.68" xlink:href="#m22a508edf4" y="648"/>
      </g>
     </g>
     <g id="text_12">
      <!-- 4.8 -->
      <g transform="translate(628.68 671.39125)scale(0.24 -0.24)">
       <defs>
        <path d="M 44.5 15.5 
Q 44.5 7.796875 39.140625 3.1875 
Q 33.796875 -1.40625 24.796875 -1.40625 
Q 16.40625 -1.40625 11 3.1875 
Q 5.59375 7.796875 5.59375 14.90625 
Q 5.59375 20.203125 8.1875 23.953125 
Q 10.796875 27.703125 18.59375 33.203125 
Q 11.09375 39.40625 8.640625 43.203125 
Q 6.203125 47 6.203125 52 
Q 6.203125 59.09375 11.640625 63.34375 
Q 17.09375 67.59375 25.59375 67.59375 
Q 32.90625 67.59375 37.65625 63.4375 
Q 42.40625 59.296875 42.40625 53.296875 
Q 42.40625 47.796875 39.546875 44.5 
Q 36.703125 41.203125 29 37.09375 
Q 38 31.09375 41.25 26.390625 
Q 44.5 21.703125 44.5 15.5 
z
M 35.5 53.296875 
Q 35.5 58.5 32.59375 61.640625 
Q 29.703125 64.796875 24.59375 64.796875 
Q 19.5 64.796875 16.546875 62.140625 
Q 13.59375 59.5 13.59375 54.890625 
Q 13.59375 50.296875 16.546875 46.546875 
Q 19.5 42.796875 26.09375 38.90625 
Q 31.203125 41.90625 33.34375 45.25 
Q 35.5 48.59375 35.5 53.296875 
z
M 27.09375 27.203125 
L 21.203125 31.203125 
Q 16.796875 27.59375 15 24.140625 
Q 13.203125 20.703125 13.203125 15.796875 
Q 13.203125 9 16.640625 5.203125 
Q 20.09375 1.40625 25.90625 1.40625 
Q 30.796875 1.40625 33.84375 4.453125 
Q 36.90625 7.5 36.90625 12.40625 
Q 36.90625 16.90625 34.59375 20.296875 
Q 32.296875 23.703125 27.09375 27.203125 
z
" id="STIXGeneral-Regular-56"/>
       </defs>
       <use xlink:href="#STIXGeneral-Regular-52"/>
       <use x="49.999985" xlink:href="#STIXGeneral-Regular-46"/>
       <use x="74.999969" xlink:href="#STIXGeneral-Regular-56"/>
      </g>
     </g>
    </g>
    <g id="xtick_12">
     <g id="line2d_26">
      <g>
       <use style="fill:#ffffff;stroke:#000000;stroke-width:0.8;" x="777.6" xlink:href="#m22a508edf4" y="648"/>
      </g>
     </g>
     <g id="text_13">
      <!-- 5.0 -->
      <g transform="translate(762.6 671.39125)scale(0.24 -0.24)">
       <use xlink:href="#STIXGeneral-Regular-53"/>
       <use x="49.999985" xlink:href="#STIXGeneral-Regular-46"/>
       <use x="74.999969" xlink:href="#STIXGeneral-Regular-48"/>
      </g>
     </g>
    </g>
    <g id="text_14">
     <!-- $\^t$ -->
     <g transform="translate(439.44 696.99125)scale(0.24 -0.24)">
      <defs>
       <path d="M -7.5 50.703125 
L -10.90625 50.703125 
L -23.09375 61 
L -35.203125 50.703125 
L -38.59375 50.703125 
L -26.203125 67.40625 
L -20 67.40625 
z
" id="STIXGeneral-Regular-770"/>
       <path d="M 29.59375 42.796875 
L 29.09375 39.59375 
L 20.703125 39.59375 
L 12 6.796875 
Q 11.796875 6 11.796875 5.40625 
Q 11.796875 3.796875 13.296875 3.796875 
Q 14.5 3.796875 16.09375 5.34375 
Q 17.703125 6.90625 21.40625 11.703125 
L 22.703125 11 
Q 18.09375 4 15.140625 1.453125 
Q 12.203125 -1.09375 8.40625 -1.09375 
Q 3.796875 -1.09375 3.796875 2.59375 
Q 3.796875 3.59375 5.40625 10 
L 13.203125 39.59375 
L 5.703125 39.59375 
L 5.59375 40.203125 
Q 5.59375 42 8.90625 42.703125 
Q 11.40625 43.296875 15.5 46.546875 
Q 19.59375 49.796875 22.203125 53.703125 
Q 22.796875 54.59375 23.59375 54.59375 
Q 24.5 54.59375 24.5 53.796875 
Q 24.5 53.296875 24.40625 53.09375 
L 21.59375 42.796875 
z
" id="STIXGeneral-Italic-116"/>
      </defs>
      <use transform="translate(39.042969 16.59375)" xlink:href="#STIXGeneral-Regular-770"/>
      <use transform="translate(0 0.203125)" xlink:href="#STIXGeneral-Italic-116"/>
     </g>
    </g>
   </g>
   <g id="matplotlib.axis_4">
    <g id="ytick_4">
     <g id="line2d_27">
      <g>
       <use style="fill:#ffffff;stroke:#000000;stroke-width:0.8;" x="108" xlink:href="#m658f962029" y="634.285714"/>
      </g>
     </g>
     <g id="text_15">
      <!-- −1 -->
      <g transform="translate(72.56 642.481339)scale(0.24 -0.24)">
       <defs>
        <path d="M 62.09375 22 
L 6.40625 22 
L 6.40625 28.59375 
L 62.09375 28.59375 
z
" id="STIXGeneral-Regular-8722"/>
       </defs>
       <use xlink:href="#STIXGeneral-Regular-8722"/>
       <use x="68.499985" xlink:href="#STIXGeneral-Regular-49"/>
      </g>
     </g>
    </g>
    <g id="ytick_5">
     <g id="line2d_28">
      <g>
       <use style="fill:#ffffff;stroke:#000000;stroke-width:0.8;" x="108" xlink:href="#m658f962029" y="565.714286"/>
      </g>
     </g>
     <g id="text_16">
      <!-- 0 -->
      <g transform="translate(89 573.909911)scale(0.24 -0.24)">
       <use xlink:href="#STIXGeneral-Regular-48"/>
      </g>
     </g>
    </g>
    <g id="ytick_6">
     <g id="line2d_29">
      <g>
       <use style="fill:#ffffff;stroke:#000000;stroke-width:0.8;" x="108" xlink:href="#m658f962029" y="497.142857"/>
      </g>
     </g>
     <g id="text_17">
      <!-- 1 -->
      <g transform="translate(89 505.338482)scale(0.24 -0.24)">
       <use xlink:href="#STIXGeneral-Regular-49"/>
      </g>
     </g>
    </g>
    <g id="ytick_7">
     <g id="line2d_30">
      <g>
       <use style="fill:#ffffff;stroke:#000000;stroke-width:0.8;" x="108" xlink:href="#m658f962029" y="428.571429"/>
      </g>
     </g>
     <g id="text_18">
      <!-- 2 -->
      <g transform="translate(89 436.767054)scale(0.24 -0.24)">
       <use xlink:href="#STIXGeneral-Regular-50"/>
      </g>
     </g>
    </g>
    <g id="text_19">
     <!-- $C_D$ -->
     <g transform="translate(63.35125 525.497143)rotate(-90)scale(0.24 -0.24)">
      <defs>
       <path d="M 13.09375 65.296875 
L 40.796875 65.296875 
Q 54.203125 65.296875 62.09375 58.296875 
Q 70 51.296875 70 38.40625 
Q 70 20.703125 54 8.296875 
Q 43.40625 0 24.90625 0 
L -0.796875 0 
L -0.796875 1.59375 
Q 3.5 2.40625 4.84375 3.59375 
Q 6.203125 4.796875 7.40625 9.203125 
L 19.59375 53.703125 
Q 20.703125 57.59375 20.703125 59.59375 
Q 20.703125 61.703125 19.09375 62.640625 
Q 17.5 63.59375 13.09375 63.703125 
z
M 31 58.40625 
L 19.203125 16.203125 
Q 17 8.203125 17 6.703125 
Q 17 3 23.796875 3 
Q 38.59375 3 47.90625 12 
Q 53.09375 17 56 24.953125 
Q 58.90625 32.90625 58.90625 40.796875 
Q 58.90625 52.90625 51.09375 58.796875 
Q 46.40625 62.296875 38 62.296875 
Q 34.796875 62.296875 33.25 61.546875 
Q 31.703125 60.796875 31 58.40625 
z
" id="STIXGeneral-Italic-68"/>
      </defs>
      <use transform="translate(0 0.40625)" xlink:href="#STIXGeneral-Italic-67"/>
      <use transform="translate(66.699997 -12.821875)scale(0.7)" xlink:href="#STIXGeneral-Italic-68"/>
     </g>
    </g>
   </g>
   <g id="line2d_31">
    <path clip-path="url(#pfd27a01432)" d="M 107.3304 640.291795 
L 108 643.752806 
L 108.6696 484.287242 
L 111.348 471.834349 
L 113.3568 463.671526 
L 115.3656 456.480083 
L 117.3744 450.308031 
L 119.3832 445.024168 
L 121.392 440.643615 
L 122.7312 438.145103 
L 124.0704 435.988485 
L 125.4096 434.129614 
L 126.7488 432.574439 
L 129.4272 429.821498 
L 130.0968 429.310313 
L 130.7664 428.601267 
L 132.7752 427.486253 
L 133.4448 427.127342 
L 136.1232 426.32087 
L 136.7928 425.871904 
L 137.4624 425.749827 
L 138.132 425.850294 
L 138.8016 425.45586 
L 141.48 424.429636 
L 142.1496 424.427827 
L 142.8192 424.219111 
L 145.4976 422.711494 
L 148.176 420.644353 
L 150.1848 418.76095 
L 152.1936 416.632584 
L 156.2112 411.765032 
L 160.8984 405.762664 
L 164.916 401.1102 
L 167.5944 398.50615 
L 169.6032 396.906945 
L 170.9424 396.023721 
L 172.9512 394.926215 
L 176.2992 394.216731 
L 177.6384 394.266562 
L 178.9776 394.548641 
L 180.3168 395.079005 
L 181.656 395.868843 
L 182.9952 396.943575 
L 184.3344 398.306178 
L 185.6736 399.991425 
L 187.0128 402.006903 
L 188.352 404.374188 
L 189.6912 407.104115 
L 191.0304 410.212067 
L 191.7 411.939583 
L 192.3696 412.866046 
L 193.0392 411.495498 
L 193.7088 411.011056 
L 195.048 410.490354 
L 198.396 409.061199 
L 201.0744 408.109017 
L 203.7528 407.350799 
L 206.4312 406.773282 
L 209.7792 406.297633 
L 213.1272 406.028407 
L 218.484 405.933283 
L 227.8584 406.238572 
L 255.9816 407.357576 
L 264.6864 407.538252 
L 275.4 407.575235 
L 296.8272 407.252275 
L 312.228 407.010057 
L 318.2544 406.987279 
L 322.9416 406.973256 
L 331.6464 407.090386 
L 334.3248 407.106228 
L 338.3424 407.183438 
L 341.6904 407.25168 
L 349.056 407.522668 
L 352.404 407.655427 
L 357.0912 407.923581 
L 359.7696 408.105351 
L 363.7872 408.808766 
L 370.4832 409.673214 
L 375.1704 410.052501 
L 379.188 410.331794 
L 383.2056 410.822944 
L 385.884 411.398897 
L 387.8928 412.053474 
L 389.9016 412.953435 
L 391.9104 414.166034 
L 393.2496 415.167096 
L 394.5888 416.357387 
L 395.928 417.751614 
L 397.2672 419.358566 
L 398.6064 421.21498 
L 399.9456 423.345368 
L 401.2848 425.754106 
L 403.2936 429.966381 
L 404.6328 433.164743 
L 406.6416 438.676785 
L 408.6504 445.040999 
L 410.6592 452.309368 
L 412.668 460.513354 
L 414.6768 469.63091 
L 416.6856 479.654503 
L 419.364 494.357019 
L 422.0424 510.386717 
L 425.3904 531.857407 
L 437.4432 612.02268 
L 440.1216 627.892178 
L 442.1304 638.888187 
L 442.8 642.314596 
L 443.4696 485.72399 
L 445.4784 476.308587 
L 447.4872 467.824527 
L 449.496 460.412316 
L 451.5048 453.928329 
L 453.5136 448.406335 
L 455.5224 443.731225 
L 456.192 442.241191 
L 458.2008 438.732714 
L 460.2096 435.877826 
L 462.2184 433.390621 
L 464.8968 430.778067 
L 466.236 429.886537 
L 467.5752 429.176092 
L 468.9144 428.687445 
L 469.584 428.249017 
L 470.2536 428.271482 
L 474.2712 426.733378 
L 474.9408 426.743959 
L 477.6192 425.635897 
L 480.9672 423.52311 
L 482.976 421.883153 
L 484.9848 419.863811 
L 487.6632 416.877116 
L 489.672 414.428857 
L 490.3416 413.421142 
L 491.0112 412.768797 
L 495.0288 407.55231 
L 499.0464 402.641848 
L 501.0552 400.467679 
L 503.064 398.558198 
L 505.0728 396.967326 
L 507.0816 395.746803 
L 508.4208 395.146047 
L 509.76 394.740144 
L 511.0992 394.546409 
L 512.4384 394.558906 
L 513.7776 394.804658 
L 515.1168 395.300438 
L 516.456 396.058823 
L 517.7952 397.096054 
L 519.1344 398.427189 
L 520.4736 400.081901 
L 521.8128 402.065696 
L 523.152 404.403644 
L 524.4912 407.106112 
L 525.8304 410.201834 
L 526.5 411.909693 
L 527.1696 412.825865 
L 527.8392 411.446466 
L 528.5088 410.949211 
L 529.1784 410.73962 
L 531.8568 409.506594 
L 534.5352 408.440416 
L 536.544 407.751308 
L 540.5616 406.716305 
L 545.2488 406.006634 
L 547.9272 405.773218 
L 550.6056 405.64689 
L 553.9536 405.573121 
L 576.72 406.208826 
L 582.0768 406.420711 
L 606.1824 407.094381 
L 614.8872 407.14382 
L 640.332 406.924875 
L 648.3672 406.864022 
L 661.0896 406.892193 
L 673.1424 407.111535 
L 688.5432 407.737909 
L 694.5696 408.141007 
L 697.9176 408.751465 
L 703.944 409.638792 
L 710.64 410.245967 
L 715.9968 410.754084 
L 718.6752 411.197292 
L 720.684 411.68919 
L 722.6928 412.376276 
L 724.7016 413.304131 
L 726.7104 414.539376 
L 728.0496 415.565577 
L 729.3888 416.779511 
L 731.3976 418.987637 
L 733.4064 421.726389 
L 734.7456 423.886793 
L 736.0848 426.333747 
L 737.424 429.085326 
L 739.4328 433.818444 
L 741.4416 439.396349 
L 743.4504 445.809711 
L 745.4592 453.143249 
L 747.468 461.398338 
L 749.4768 470.564799 
L 751.4856 480.628919 
L 754.164 495.364377 
L 756.8424 511.424578 
L 760.1904 532.955856 
L 766.8864 578.254122 
L 770.904 604.730147 
L 774.252 625.105539 
L 776.9304 639.864497 
L 777.6 488.139103 
L 777.6 488.139103 
" style="fill:none;stroke:#1f77b4;stroke-linecap:square;stroke-width:4;"/>
   </g>
   <g id="line2d_32">
    <path clip-path="url(#pfd27a01432)" d="M 107.3304 649.482269 
L 108 652.405575 
L 108.6696 476.143085 
L 111.348 465.501948 
L 113.3568 458.425489 
L 116.0352 450.207906 
L 118.7136 443.332155 
L 121.392 437.710039 
L 123.4008 434.33173 
L 124.74 432.403818 
L 128.088 428.256969 
L 129.4272 427.153588 
L 130.0968 427.088466 
L 132.1056 425.793108 
L 134.784 424.608427 
L 138.132 423.708374 
L 138.8016 423.926401 
L 141.48 423.824274 
L 143.4888 424.111234 
L 144.828 424.500031 
L 145.4976 424.747815 
L 146.1672 424.613503 
L 147.5064 425.103572 
L 150.8544 427.158236 
L 153.5328 428.809217 
L 155.5416 429.748838 
L 156.8808 430.166582 
L 158.22 430.377786 
L 159.5592 430.395623 
L 160.8984 430.194248 
L 162.2376 429.786602 
L 163.5768 429.18073 
L 164.916 428.387616 
L 166.2552 427.439558 
L 167.5944 426.351569 
L 169.6032 424.465179 
L 172.9512 420.880025 
L 178.9776 414.005763 
L 180.9864 411.981376 
L 182.9952 410.265122 
L 184.3344 409.332705 
L 185.6736 408.621865 
L 187.0128 408.164261 
L 188.352 407.995203 
L 189.6912 408.146216 
L 191.0304 408.656128 
L 191.7 409.074127 
L 192.3696 409.030233 
L 193.0392 407.628251 
L 193.7088 406.777545 
L 197.7264 403.001343 
L 199.7352 401.544977 
L 201.744 400.400025 
L 203.7528 399.54414 
L 205.7616 398.97082 
L 207.7704 398.621817 
L 209.7792 398.482863 
L 212.4576 398.550107 
L 215.8056 398.923516 
L 220.4928 399.731755 
L 237.2328 402.843377 
L 243.2592 403.65762 
L 249.2856 404.223562 
L 256.6512 404.672917 
L 270.0432 405.11518 
L 280.0872 405.240316 
L 302.184 405.638003 
L 321.6024 406.518063 
L 322.9416 406.670306 
L 327.6288 406.978616 
L 342.36 407.76861 
L 355.752 408.749641 
L 359.1 409.010574 
L 359.7696 409.180491 
L 361.1088 410.076607 
L 364.4568 412.110688 
L 369.8136 415.754959 
L 375.84 420.222729 
L 379.8576 423.474278 
L 382.536 425.827513 
L 385.2144 428.411675 
L 387.2232 430.535755 
L 389.232 432.882668 
L 391.2408 435.475792 
L 393.9192 439.426181 
L 395.928 442.8245 
L 397.9368 446.633775 
L 399.9456 450.937121 
L 401.9544 455.778347 
L 404.6328 462.865633 
L 406.6416 469.134946 
L 408.6504 476.081583 
L 411.3288 486.454713 
L 414.0072 498.071176 
L 416.6856 510.866029 
L 420.0336 528.333895 
L 423.3816 547.085143 
L 428.0688 574.617869 
L 432.756 601.958004 
L 436.104 620.423632 
L 438.7824 634.172007 
L 441.4608 646.93527 
L 442.8 652.767166 
L 443.4696 475.902729 
L 445.4784 468.017731 
L 447.4872 460.904478 
L 449.496 454.527195 
L 452.1744 447.165407 
L 454.1832 442.530112 
L 456.192 438.523547 
L 458.8704 433.726774 
L 460.2096 431.970648 
L 460.8792 431.537818 
L 464.2272 428.331754 
L 466.236 427.010363 
L 467.5752 426.294556 
L 468.2448 425.889559 
L 470.2536 425.211611 
L 470.9232 425.25899 
L 474.9408 424.511984 
L 477.6192 424.623948 
L 480.2976 425.381863 
L 480.9672 425.722036 
L 481.6368 425.598027 
L 482.976 426.153335 
L 484.9848 427.336803 
L 486.324 428.246032 
L 486.9936 428.462727 
L 487.6632 428.885916 
L 488.3328 429.49822 
L 489.672 429.946597 
L 491.6808 430.489866 
L 493.6896 430.65724 
L 495.0288 430.464139 
L 496.368 430.069936 
L 497.7072 429.459405 
L 499.0464 428.67064 
L 501.7248 426.562288 
L 504.4032 423.923346 
L 509.0904 418.504682 
L 513.7776 413.095741 
L 515.7864 411.057202 
L 517.7952 409.343612 
L 519.1344 408.422985 
L 520.4736 407.724576 
L 521.8128 407.288083 
L 523.152 407.144338 
L 524.4912 407.327148 
L 525.1608 407.532249 
L 526.5 408.275711 
L 527.1696 408.271096 
L 527.8392 406.868524 
L 528.5088 406.037448 
L 532.5264 402.343113 
L 534.5352 400.9261 
L 536.544 399.797031 
L 538.5528 398.978338 
L 540.5616 398.403132 
L 543.24 398.003947 
L 545.9184 397.94142 
L 549.936 398.279204 
L 556.632 399.404933 
L 563.9976 400.802879 
L 574.7112 402.449595 
L 584.0856 403.254535 
L 594.1296 403.716682 
L 606.852 404.027553 
L 621.5832 404.256187 
L 623.592 404.379891 
L 630.9576 404.548032 
L 636.984 404.777526 
L 665.1072 406.400024 
L 694.5696 408.553091 
L 695.9088 409.446056 
L 698.5872 411.0431 
L 701.9352 413.230897 
L 708.6312 417.999753 
L 713.988 422.197939 
L 718.0056 425.721271 
L 720.684 428.359015 
L 723.3624 431.327755 
L 726.0408 434.726335 
L 728.0496 437.624237 
L 730.0584 440.871046 
L 732.0672 444.532724 
L 734.076 448.659225 
L 736.0848 453.318586 
L 738.7632 460.144763 
L 740.772 466.165387 
L 742.7808 472.920632 
L 744.7896 480.32893 
L 747.468 491.351814 
L 750.1464 503.593034 
L 752.8248 516.984889 
L 756.1728 535.063551 
L 759.5208 554.273776 
L 766.8864 597.85267 
L 770.2344 616.735157 
L 773.5824 634.200299 
L 776.2608 646.930886 
L 776.9304 649.934399 
L 777.6 478.471843 
L 777.6 478.471843 
" style="fill:none;stroke:#ff7f0e;stroke-linecap:square;stroke-width:4;"/>
   </g>
   <g id="line2d_33">
    <path clip-path="url(#pfd27a01432)" d="M 107.3304 652.202391 
L 108 654.904813 
L 108.6696 473.819735 
L 110.6784 466.016539 
L 114.0264 454.231668 
L 116.7048 445.770465 
L 118.7136 440.025954 
L 120.7224 434.845483 
L 122.0616 431.740919 
L 124.0704 427.731369 
L 126.0792 424.63616 
L 127.4184 423.088868 
L 128.7576 421.829469 
L 130.7664 420.622254 
L 132.7752 420.016793 
L 134.1144 419.802726 
L 134.784 420.069532 
L 136.7928 420.138835 
L 138.132 420.401547 
L 138.8016 420.571917 
L 140.1408 421.210042 
L 140.8104 422.010669 
L 142.1496 423.140862 
L 143.4888 424.489708 
L 144.828 426.039574 
L 146.8368 428.664808 
L 151.524 435.117261 
L 153.5328 437.5116 
L 154.872 438.862967 
L 155.5416 439.047824 
L 158.22 440.492776 
L 159.5592 440.875488 
L 160.8984 440.961653 
L 162.2376 440.767185 
L 163.5768 440.300161 
L 165.5856 439.139146 
L 166.9248 438.097711 
L 168.264 436.785398 
L 168.9336 436.244982 
L 171.612 433.269876 
L 176.2992 427.838139 
L 178.9776 424.969241 
L 180.9864 423.174187 
L 182.3256 422.176349 
L 183.6648 421.373408 
L 185.004 420.779555 
L 186.3432 420.415307 
L 187.6824 420.310119 
L 189.0216 420.463 
L 190.3608 420.901594 
L 191.7 421.644842 
L 192.3696 421.739134 
L 193.0392 420.871148 
L 194.3784 420.019128 
L 197.0568 418.486543 
L 201.0744 416.422304 
L 207.1008 413.533825 
L 215.136 409.605788 
L 221.832 406.377862 
L 225.8496 404.688866 
L 229.1976 403.5633 
L 231.876 402.889717 
L 234.5544 402.44395 
L 237.2328 402.221714 
L 239.9112 402.224688 
L 242.5896 402.418065 
L 245.9376 402.877882 
L 250.6248 403.775475 
L 260.6688 405.82234 
L 266.0256 406.66182 
L 272.052 407.335438 
L 277.4088 407.72018 
L 282.7656 407.912707 
L 288.1224 407.936891 
L 295.488 407.745036 
L 313.5672 407.144246 
L 318.924 407.256377 
L 339.6816 408.313679 
L 353.7432 409.197996 
L 359.1 409.446718 
L 359.7696 409.601306 
L 361.1088 410.557239 
L 363.7872 412.309899 
L 366.4656 414.30033 
L 370.4832 417.648623 
L 373.8312 420.693875 
L 378.5184 425.372943 
L 381.1968 428.26041 
L 385.884 433.614251 
L 389.232 438.14189 
L 391.2408 441.139433 
L 393.9192 445.605205 
L 396.5976 450.672803 
L 399.276 456.455144 
L 401.9544 463.083123 
L 404.6328 470.663408 
L 407.3112 479.260743 
L 409.32 486.440818 
L 412.668 499.928779 
L 415.3464 511.858193 
L 418.0248 524.803121 
L 421.3728 542.152767 
L 425.3904 564.273851 
L 427.3992 575.841555 
L 433.4256 609.073563 
L 437.4432 629.587598 
L 440.1216 642.097433 
L 442.8 653.499522 
L 443.4696 475.142132 
L 446.8176 462.584397 
L 449.496 453.458228 
L 452.1744 445.170752 
L 454.1832 439.544416 
L 456.192 434.496921 
L 458.2008 430.09908 
L 460.8792 425.597678 
L 462.2184 423.970567 
L 463.5576 422.682502 
L 464.8968 421.67717 
L 466.236 420.892275 
L 467.5752 420.270894 
L 468.2448 419.967053 
L 468.9144 420.135239 
L 469.584 419.828352 
L 472.2624 419.35824 
L 474.9408 420.345754 
L 476.28 421.243376 
L 477.6192 422.465624 
L 478.9584 423.989594 
L 481.6368 427.699265 
L 482.976 429.786981 
L 483.6456 430.429203 
L 484.9848 432.468278 
L 485.6544 433.816572 
L 487.6632 436.48016 
L 489.0024 438.030789 
L 489.672 438.331612 
L 491.6808 439.798211 
L 493.6896 440.824555 
L 495.0288 441.05393 
L 496.368 440.953373 
L 497.7072 440.541115 
L 499.0464 439.862523 
L 500.3856 438.924036 
L 505.0728 433.962353 
L 512.4384 425.203274 
L 514.4472 423.19569 
L 516.456 421.535488 
L 517.7952 420.655569 
L 519.1344 419.980903 
L 520.4736 419.534526 
L 521.8128 419.322853 
L 523.152 419.367616 
L 524.4912 419.693719 
L 525.8304 420.308858 
L 526.5 420.741756 
L 527.1696 420.856737 
L 527.8392 420.004852 
L 528.5088 419.527031 
L 535.2048 416.338679 
L 539.2224 414.949632 
L 551.2752 411.274713 
L 554.6232 410.066022 
L 569.3544 404.359847 
L 572.0328 403.545939 
L 574.7112 402.885448 
L 577.3896 402.388718 
L 580.068 402.060234 
L 583.416 401.886967 
L 586.764 401.942753 
L 590.7816 402.263472 
L 595.4688 402.863472 
L 618.9048 406.244528 
L 625.6008 406.838698 
L 629.6184 407.004747 
L 632.9664 407.100152 
L 637.6536 407.258899 
L 647.6976 407.513682 
L 686.5344 409.11287 
L 693.9 409.325169 
L 694.5696 409.48159 
L 695.9088 410.414583 
L 697.9176 411.66371 
L 701.2656 414.088679 
L 703.944 416.245665 
L 707.292 419.165663 
L 711.3096 422.993791 
L 715.3272 427.180708 
L 720.684 433.257381 
L 723.3624 436.817302 
L 726.0408 440.783798 
L 728.7192 445.258452 
L 731.3976 450.350175 
L 734.076 456.171889 
L 736.7544 462.860537 
L 738.7632 468.492533 
L 740.772 474.681324 
L 742.7808 481.592254 
L 745.4592 491.708709 
L 748.1376 502.934814 
L 750.816 515.264797 
L 754.164 532.036693 
L 757.512 549.997954 
L 759.5208 561.558071 
L 768.8952 613.791717 
L 771.5736 627.560665 
L 774.252 640.268306 
L 775.5912 646.289559 
L 776.9304 652.031725 
L 777.6 476.610546 
L 777.6 476.610546 
" style="fill:none;stroke:#2ca02c;stroke-linecap:square;stroke-width:4;"/>
   </g>
   <g id="line2d_34">
    <path clip-path="url(#pfd27a01432)" d="M 108 565.714286 
L 777.6 565.714286 
" style="fill:none;stroke:#000000;stroke-dasharray:3.2,0.8,0.5,0.8;stroke-dashoffset:0;stroke-width:0.5;"/>
   </g>
   <g id="line2d_35">
    <path clip-path="url(#pfd27a01432)" d="M 442.8 648 
L 442.8 373.714286 
" style="fill:none;stroke:#000000;stroke-dasharray:3.2,0.8,0.5,0.8;stroke-dashoffset:0;stroke-width:0.5;"/>
   </g>
   <g id="patch_8">
    <path d="M 108 648 
L 108 373.714286 
" style="fill:none;stroke:#000000;stroke-linecap:square;stroke-linejoin:miter;stroke-width:0.8;"/>
   </g>
   <g id="patch_9">
    <path d="M 777.6 648 
L 777.6 373.714286 
" style="fill:none;stroke:#000000;stroke-linecap:square;stroke-linejoin:miter;stroke-width:0.8;"/>
   </g>
   <g id="patch_10">
    <path d="M 108 648 
L 777.6 648 
" style="fill:none;stroke:#000000;stroke-linecap:square;stroke-linejoin:miter;stroke-width:0.8;"/>
   </g>
   <g id="patch_11">
    <path d="M 108 373.714286 
L 777.6 373.714286 
" style="fill:none;stroke:#000000;stroke-linecap:square;stroke-linejoin:miter;stroke-width:0.8;"/>
   </g>
  </g>
 </g>
 <defs>
  <clipPath id="pd6168d3574">
   <rect height="274.285714" width="669.6" x="108" y="72"/>
  </clipPath>
  <clipPath id="pfd27a01432">
   <rect height="274.285714" width="669.6" x="108" y="373.714286"/>
  </clipPath>
 </defs>
</svg>
