<?xml version="1.0" encoding="utf-8" standalone="no"?>
<!DOCTYPE svg PUBLIC "-//W3C//DTD SVG 1.1//EN"
  "http://www.w3.org/Graphics/SVG/1.1/DTD/svg11.dtd">
<!-- Created with matplotlib (https://matplotlib.org/) -->
<svg height="576pt" version="1.1" viewBox="0 0 864 576" width="864pt" xmlns="http://www.w3.org/2000/svg" xmlns:xlink="http://www.w3.org/1999/xlink">
 <metadata>
  <rdf:RDF xmlns:cc="http://creativecommons.org/ns#" xmlns:dc="http://purl.org/dc/elements/1.1/" xmlns:rdf="http://www.w3.org/1999/02/22-rdf-syntax-ns#">
   <cc:Work>
    <dc:type rdf:resource="http://purl.org/dc/dcmitype/StillImage"/>
    <dc:date>2021-12-25T02:53:46.060941</dc:date>
    <dc:format>image/svg+xml</dc:format>
    <dc:creator>
     <cc:Agent>
      <dc:title>Matplotlib v3.3.4, https://matplotlib.org/</dc:title>
     </cc:Agent>
    </dc:creator>
   </cc:Work>
  </rdf:RDF>
 </metadata>
 <defs>
  <style type="text/css">*{stroke-linecap:butt;stroke-linejoin:round;}</style>
 </defs>
 <g id="figure_1">
  <g id="patch_1">
   <path d="M 0 576 
L 864 576 
L 864 0 
L 0 0 
z
" style="fill:#ffffff;"/>
  </g>
  <g id="axes_1">
   <g id="patch_2">
    <path d="M 86.4 245.134884 
L 412.437736 245.134884 
L 412.437736 57.6 
L 86.4 57.6 
z
" style="fill:#ffffff;"/>
   </g>
   <g id="matplotlib.axis_1">
    <g id="xtick_1">
     <g id="line2d_1">
      <defs>
       <path d="M 0 0 
L 0 3.5 
" id="ma52c24f348" style="stroke:#000000;stroke-width:0.8;"/>
      </defs>
      <g>
       <use style="fill:#ffffff;stroke:#000000;stroke-width:0.8;" x="86.4" xlink:href="#ma52c24f348" y="245.134884"/>
      </g>
     </g>
     <g id="text_1">
      <!-- 0.0 -->
      <g transform="translate(74.525 265.11129)scale(0.19 -0.19)">
       <defs>
        <path d="M 47.59375 33 
Q 47.59375 26.296875 46.296875 20.34375 
Q 45 14.40625 42.453125 9.40625 
Q 39.90625 4.40625 35.40625 1.5 
Q 30.90625 -1.40625 25 -1.40625 
Q 18.90625 -1.40625 14.296875 1.6875 
Q 9.703125 4.796875 7.203125 10 
Q 4.703125 15.203125 3.546875 21.09375 
Q 2.40625 27 2.40625 33.59375 
Q 2.40625 42.90625 4.703125 50.34375 
Q 7 57.796875 12.34375 62.6875 
Q 17.703125 67.59375 25.40625 67.59375 
Q 35.203125 67.59375 41.390625 58 
Q 47.59375 48.40625 47.59375 33 
z
M 38 32.5 
Q 38 48.296875 34.640625 56.640625 
Q 31.296875 65 24.796875 65 
Q 18.59375 65 15.296875 56.59375 
Q 12 48.203125 12 32.90625 
Q 12 17.5 15.296875 9.34375 
Q 18.59375 1.203125 25 1.203125 
Q 31.296875 1.203125 34.640625 9.34375 
Q 38 17.5 38 32.5 
z
" id="STIXGeneral-Regular-48"/>
        <path d="M 18.09375 4.296875 
Q 18.09375 2.09375 16.4375 0.5 
Q 14.796875 -1.09375 12.5 -1.09375 
Q 10.203125 -1.09375 8.59375 0.5 
Q 7 2.09375 7 4.390625 
Q 7 6.703125 8.640625 8.34375 
Q 10.296875 10 12.59375 10 
Q 14.796875 10 16.4375 8.296875 
Q 18.09375 6.59375 18.09375 4.296875 
z
" id="STIXGeneral-Regular-46"/>
       </defs>
       <use xlink:href="#STIXGeneral-Regular-48"/>
       <use x="49.999985" xlink:href="#STIXGeneral-Regular-46"/>
       <use x="74.999969" xlink:href="#STIXGeneral-Regular-48"/>
      </g>
     </g>
    </g>
    <g id="xtick_2">
     <g id="line2d_2">
      <g>
       <use style="fill:#ffffff;stroke:#000000;stroke-width:0.8;" x="167.909434" xlink:href="#ma52c24f348" y="245.134884"/>
      </g>
     </g>
     <g id="text_2">
      <!-- 0.5 -->
      <g transform="translate(156.034434 265.11129)scale(0.19 -0.19)">
       <defs>
        <path d="M 43.796875 68.09375 
L 40.203125 59.59375 
Q 39.59375 58.296875 37.5 58.296875 
L 18.09375 58.296875 
L 14.09375 49.796875 
Q 25.09375 47.703125 30 45.25 
Q 34.90625 42.796875 39.09375 37 
Q 42.59375 32.203125 42.59375 24.296875 
Q 42.59375 17.09375 40.25 12.1875 
Q 37.90625 7.296875 32.796875 3.5 
Q 26 -1.40625 15.796875 -1.40625 
Q 10.09375 -1.40625 6.59375 0.296875 
Q 3.09375 2 3.09375 4.796875 
Q 3.09375 8.59375 7.59375 8.59375 
Q 11.203125 8.59375 15 5.5 
Q 18.90625 2.296875 22.09375 2.296875 
Q 27.296875 2.296875 31.4375 7.5 
Q 35.59375 12.703125 35.59375 19.203125 
Q 35.59375 28.796875 28.90625 34.203125 
Q 20.203125 41.203125 7.59375 41.203125 
Q 6.40625 41.203125 6.40625 42 
L 6.5 42.5 
L 17.40625 66.203125 
L 38.09375 66.203125 
Q 39.796875 66.203125 40.75 66.703125 
Q 41.703125 67.203125 42.90625 68.796875 
z
" id="STIXGeneral-Regular-53"/>
       </defs>
       <use xlink:href="#STIXGeneral-Regular-48"/>
       <use x="49.999985" xlink:href="#STIXGeneral-Regular-46"/>
       <use x="74.999969" xlink:href="#STIXGeneral-Regular-53"/>
      </g>
     </g>
    </g>
    <g id="xtick_3">
     <g id="line2d_3">
      <g>
       <use style="fill:#ffffff;stroke:#000000;stroke-width:0.8;" x="249.418868" xlink:href="#ma52c24f348" y="245.134884"/>
      </g>
     </g>
     <g id="text_3">
      <!-- 1.0 -->
      <g transform="translate(237.543868 265.11129)scale(0.19 -0.19)">
       <defs>
        <path d="M 39.40625 0 
L 11.796875 0 
L 11.796875 1.5 
Q 17.296875 1.796875 19.296875 3.546875 
Q 21.296875 5.296875 21.296875 9.5 
L 21.296875 54.40625 
Q 21.296875 59.296875 18.296875 59.296875 
Q 16.90625 59.296875 13.796875 58.09375 
L 11.09375 57.09375 
L 11.09375 58.5 
L 29 67.59375 
L 29.90625 67.296875 
L 29.90625 7.59375 
Q 29.90625 4.296875 31.90625 2.890625 
Q 33.90625 1.5 39.40625 1.5 
z
" id="STIXGeneral-Regular-49"/>
       </defs>
       <use xlink:href="#STIXGeneral-Regular-49"/>
       <use x="49.999985" xlink:href="#STIXGeneral-Regular-46"/>
       <use x="74.999969" xlink:href="#STIXGeneral-Regular-48"/>
      </g>
     </g>
    </g>
    <g id="xtick_4">
     <g id="line2d_4">
      <g>
       <use style="fill:#ffffff;stroke:#000000;stroke-width:0.8;" x="330.928302" xlink:href="#ma52c24f348" y="245.134884"/>
      </g>
     </g>
     <g id="text_4">
      <!-- 1.5 -->
      <g transform="translate(319.053302 265.11129)scale(0.19 -0.19)">
       <use xlink:href="#STIXGeneral-Regular-49"/>
       <use x="49.999985" xlink:href="#STIXGeneral-Regular-46"/>
       <use x="74.999969" xlink:href="#STIXGeneral-Regular-53"/>
      </g>
     </g>
    </g>
    <g id="xtick_5">
     <g id="line2d_5">
      <g>
       <use style="fill:#ffffff;stroke:#000000;stroke-width:0.8;" x="412.437736" xlink:href="#ma52c24f348" y="245.134884"/>
      </g>
     </g>
     <g id="text_5">
      <!-- 2.0 -->
      <g transform="translate(400.562736 265.11129)scale(0.19 -0.19)">
       <defs>
        <path d="M 47.40625 13.703125 
L 42 0 
L 2.90625 0 
L 2.90625 1.203125 
L 20.703125 20.09375 
Q 27.703125 27.40625 30.703125 33.5 
Q 33.703125 39.59375 33.703125 46.09375 
Q 33.703125 52.796875 30 56.5 
Q 26.296875 60.203125 19.796875 60.203125 
Q 14.40625 60.203125 11.25 57.390625 
Q 8.09375 54.59375 5.09375 47.203125 
L 3 47.703125 
Q 4.703125 57 9.84375 62.296875 
Q 15 67.59375 23.796875 67.59375 
Q 32.09375 67.59375 37.1875 62.59375 
Q 42.296875 57.59375 42.296875 50 
Q 42.296875 38.703125 29.5 25.203125 
L 13 7.59375 
L 36.40625 7.59375 
Q 39.703125 7.59375 41.640625 8.890625 
Q 43.59375 10.203125 46 14.296875 
z
" id="STIXGeneral-Regular-50"/>
       </defs>
       <use xlink:href="#STIXGeneral-Regular-50"/>
       <use x="49.999985" xlink:href="#STIXGeneral-Regular-46"/>
       <use x="74.999969" xlink:href="#STIXGeneral-Regular-48"/>
      </g>
     </g>
    </g>
   </g>
   <g id="matplotlib.axis_2">
    <g id="ytick_1">
     <g id="line2d_6">
      <defs>
       <path d="M 0 0 
L -3.5 0 
" id="m12ca4fca6a" style="stroke:#000000;stroke-width:0.8;"/>
      </defs>
      <g>
       <use style="fill:#ffffff;stroke:#000000;stroke-width:0.8;" x="86.4" xlink:href="#m12ca4fca6a" y="217.465803"/>
      </g>
     </g>
     <g id="text_6">
      <!-- 0 -->
      <g transform="translate(69.9 223.954006)scale(0.19 -0.19)">
       <use xlink:href="#STIXGeneral-Regular-48"/>
      </g>
     </g>
    </g>
    <g id="ytick_2">
     <g id="line2d_7">
      <g>
       <use style="fill:#ffffff;stroke:#000000;stroke-width:0.8;" x="86.4" xlink:href="#m12ca4fca6a" y="155.978955"/>
      </g>
     </g>
     <g id="text_7">
      <!-- 10 -->
      <g transform="translate(60.4 162.467159)scale(0.19 -0.19)">
       <use xlink:href="#STIXGeneral-Regular-49"/>
       <use x="49.999985" xlink:href="#STIXGeneral-Regular-48"/>
      </g>
     </g>
    </g>
    <g id="ytick_3">
     <g id="line2d_8">
      <g>
       <use style="fill:#ffffff;stroke:#000000;stroke-width:0.8;" x="86.4" xlink:href="#m12ca4fca6a" y="94.492108"/>
      </g>
     </g>
     <g id="text_8">
      <!-- 20 -->
      <g transform="translate(60.4 100.980311)scale(0.19 -0.19)">
       <use xlink:href="#STIXGeneral-Regular-50"/>
       <use x="49.999985" xlink:href="#STIXGeneral-Regular-48"/>
      </g>
     </g>
    </g>
    <g id="text_9">
     <!-- $C_l$ -->
     <g transform="translate(52.276406 160.012442)rotate(-90)scale(0.19 -0.19)">
      <defs>
       <path d="M 68.90625 66.40625 
L 65.203125 46.40625 
L 63.40625 46.703125 
Q 61.59375 63 48.5 63 
Q 37.59375 63 28.59375 53.296875 
Q 23.296875 47.703125 20.546875 39.703125 
Q 17.796875 31.703125 17.796875 23.203125 
Q 17.796875 2.703125 35.296875 2.703125 
Q 41.5 2.703125 46.640625 5.296875 
Q 51.796875 7.90625 58.203125 14.59375 
L 60 13.09375 
Q 53.296875 5.203125 46.84375 1.703125 
Q 40.40625 -1.796875 32.703125 -1.796875 
Q 21 -1.796875 13.796875 5.140625 
Q 6.59375 12.09375 6.59375 24.296875 
Q 6.59375 34.59375 11.6875 43.9375 
Q 16.796875 53.296875 25.296875 59.296875 
Q 35.5 66.59375 47.203125 66.59375 
Q 54.09375 66.59375 58.90625 64.90625 
Q 60.90625 64.203125 63 64.203125 
Q 65.703125 64.203125 66.796875 66.40625 
z
" id="STIXGeneral-Italic-67"/>
       <path d="M 27.90625 67.796875 
L 12.59375 9.296875 
Q 11.796875 6.40625 11.796875 5 
Q 11.796875 3.203125 13.5 3.203125 
Q 16.203125 3.203125 20.203125 8.90625 
L 22.703125 12.40625 
L 24.09375 11.40625 
Q 19.59375 4.296875 16.34375 1.59375 
Q 13.09375 -1.09375 9 -1.09375 
Q 4.09375 -1.09375 4.09375 4.5 
Q 4.09375 6.203125 4.5 7.5 
L 18.203125 59.90625 
Q 18.5 60.90625 18.5 61.796875 
Q 18.5 64 13.59375 64 
L 11.796875 64 
L 11.796875 65.59375 
Q 18.796875 66.40625 27.296875 68.296875 
z
" id="STIXGeneral-Italic-108"/>
      </defs>
      <use transform="translate(0 0.40625)" xlink:href="#STIXGeneral-Italic-67"/>
      <use transform="translate(66.699997 -12.821875)scale(0.7)" xlink:href="#STIXGeneral-Italic-108"/>
     </g>
    </g>
   </g>
   <g id="line2d_9">
    <path clip-path="url(#p0f716b835b)" d="M 86.889057 216.775575 
L 87.86717 215.006819 
L 88.356226 213.3078 
L 88.845283 210.766902 
L 89.660377 204.842492 
L 90.638491 197.772648 
L 91.290566 194.701969 
L 91.779623 193.25118 
L 92.431698 192.066637 
L 93.083774 191.372773 
L 93.898868 190.838633 
L 95.203019 190.287654 
L 102.21283 187.654155 
L 106.125283 185.867525 
L 106.61434 185.938706 
L 106.940377 186.144322 
L 107.266415 186.536657 
L 107.755472 187.619482 
L 108.244528 189.46585 
L 108.896604 193.278419 
L 110.363774 202.775345 
L 110.85283 204.648568 
L 111.341887 205.833708 
L 111.830943 206.534355 
L 112.483019 207.013824 
L 113.298113 207.250025 
L 116.884528 207.175154 
L 140.196226 206.078018 
L 140.685283 206.07171 
L 141.826415 206.009988 
L 162.040755 205.534223 
L 162.529811 205.537693 
L 163.833962 205.486149 
L 178.50566 205.271908 
L 178.994717 205.278084 
L 180.135849 205.235691 
L 194.970566 205.089994 
L 195.296604 205.070383 
L 195.78566 205.08336 
L 197.578868 205.056816 
L 202.632453 205.038321 
L 204.588679 205.033599 
L 209.805283 205.015148 
L 211.598491 205.061766 
L 212.087547 205.017373 
L 214.695849 205.024724 
L 216.815094 205.033492 
L 217.304151 205.049753 
L 218.445283 205.02246 
L 221.053585 204.88043 
L 221.868679 204.600419 
L 222.520755 204.0992 
L 223.17283 202.849274 
L 223.661887 201.081257 
L 224.150943 197.961865 
L 224.64 192.598895 
L 225.129057 183.726228 
L 225.618113 170.067873 
L 226.270189 143.898081 
L 227.57434 87.196003 
L 228.063396 74.332764 
L 228.552453 67.423441 
L 228.878491 65.713377 
L 229.041509 65.652839 
L 229.204528 66.100794 
L 229.530566 68.515487 
L 229.856604 73.089054 
L 230.34566 84.003886 
L 230.834717 99.876126 
L 232.790943 171.269682 
L 233.443019 182.857966 
L 234.095094 189.91427 
L 234.910189 195.838037 
L 235.888302 201.263274 
L 238.98566 217.282689 
L 239.800755 223.550822 
L 241.430943 237.526919 
L 241.756981 238.756104 
L 241.92 239.025628 
L 242.083019 239.076789 
L 242.246038 238.938129 
L 242.572075 238.167437 
L 243.224151 235.491867 
L 244.039245 232.115158 
L 244.528302 230.795917 
L 244.85434 230.302109 
L 245.180377 230.101749 
L 245.506415 230.154432 
L 245.995472 230.547507 
L 247.136604 231.569901 
L 247.62566 231.656329 
L 248.114717 231.50859 
L 248.766792 231.059521 
L 250.070943 229.821129 
L 255.613585 224.469578 
L 257.73283 222.844368 
L 259.852075 221.489608 
L 261.808302 220.489253 
L 263.927547 219.639465 
L 266.37283 218.900053 
L 269.144151 218.303718 
L 272.404528 217.83271 
L 276.643019 217.457414 
L 282.18566 217.199287 
L 290.82566 217.046281 
L 305.823396 217.023795 
L 365.488302 217.286482 
L 412.600755 217.444161 
L 412.600755 217.444161 
" style="fill:none;stroke:#1f77b4;stroke-linecap:square;stroke-width:4;"/>
   </g>
   <g id="line2d_10">
    <path clip-path="url(#p0f716b835b)" d="M 86.889057 217.112435 
L 87.86717 216.211422 
L 88.356226 215.344316 
L 88.845283 214.046265 
L 89.660377 211.011623 
L 90.638491 207.359015 
L 91.290566 205.745924 
L 91.942642 204.770082 
L 92.594717 204.192164 
L 93.57283 203.695212 
L 95.203019 203.18768 
L 99.115472 202.02064 
L 101.234717 201.15643 
L 103.190943 200.120722 
L 106.777358 198.085672 
L 107.266415 198.106119 
L 107.755472 198.413976 
L 108.244528 199.123605 
L 108.733585 200.286169 
L 110.526792 205.380478 
L 111.015849 206.102371 
L 111.667925 206.634644 
L 112.809057 206.84359 
L 114.439245 206.797863 
L 115.25434 206.678678 
L 121.612075 206.134143 
L 133.512453 205.538786 
L 134.001509 205.510908 
L 138.566038 205.365154 
L 155.356981 205.079739 
L 155.846038 205.067185 
L 160.899623 205.094913 
L 161.388679 205.093327 
L 163.670943 205.133926 
L 164.16 205.1309 
L 166.279245 205.181625 
L 166.768302 205.187957 
L 168.887547 205.246083 
L 172.473962 205.364254 
L 174.593208 205.462021 
L 175.082264 205.478737 
L 177.364528 205.600769 
L 178.016604 205.619958 
L 188.286792 206.328579 
L 188.775849 206.363698 
L 191.058113 206.564699 
L 191.54717 206.59816 
L 193.666415 206.795257 
L 194.155472 206.836383 
L 196.274717 207.037445 
L 199.372075 207.379149 
L 199.698113 207.373867 
L 215.673962 209.086707 
L 216.163019 209.134868 
L 222.520755 209.558501 
L 223.17283 209.365003 
L 223.661887 209.035123 
L 224.150943 208.401876 
L 224.64 207.27882 
L 225.129057 205.391543 
L 225.618113 202.462637 
L 226.270189 196.800594 
L 227.57434 184.235717 
L 228.063396 181.26263 
L 228.552453 179.582815 
L 228.878491 179.114256 
L 229.041509 179.058821 
L 229.204528 179.125631 
L 229.530566 179.633123 
L 229.856604 180.672198 
L 230.34566 183.31564 
L 230.834717 187.392169 
L 232.953962 207.916385 
L 233.606038 211.053613 
L 234.258113 213.137047 
L 235.236226 215.378306 
L 236.540377 217.641354 
L 238.007547 219.722687 
L 239.474717 221.881754 
L 241.430943 225.254562 
L 241.756981 225.37189 
L 242.083019 225.248691 
L 242.572075 224.705058 
L 244.691321 221.608492 
L 245.180377 221.341278 
L 245.832453 221.269376 
L 248.440755 221.467139 
L 250.233962 221.113321 
L 263.601509 218.079667 
L 268.003019 217.485398 
L 272.893585 217.062122 
L 279.088302 216.765482 
L 287.891321 216.588012 
L 302.073962 216.548221 
L 339.242264 216.744473 
L 412.600755 217.171011 
L 412.600755 217.171011 
" style="fill:none;stroke:#ff7f0e;stroke-linecap:square;stroke-width:4;"/>
   </g>
   <g id="line2d_11">
    <path clip-path="url(#p0f716b835b)" d="M 86.644528 217.269565 
L 87.378113 217.014173 
L 87.948679 216.603167 
L 88.519245 215.88621 
L 89.089811 214.772651 
L 90.067925 212.205043 
L 90.883019 210.306448 
L 91.535094 209.310963 
L 92.18717 208.701769 
L 93.002264 208.249885 
L 94.306415 207.838036 
L 99.196981 206.480807 
L 101.153208 205.652971 
L 103.190943 204.540915 
L 105.636226 202.869854 
L 106.940377 202.080918 
L 107.510943 201.967644 
L 108 202.100337 
L 108.407547 202.429117 
L 108.978113 203.226257 
L 110.689811 206.024468 
L 111.260377 206.421245 
L 111.749434 206.540731 
L 112.809057 206.680519 
L 113.542642 206.574322 
L 122.34566 205.718632 
L 134.083019 205.215575 
L 141.907925 205.19662 
L 142.315472 205.201892 
L 151.036981 205.567364 
L 165.54566 207.142975 
L 169.621132 207.744615 
L 175.73434 208.727803 
L 184.211321 210.010186 
L 193.340377 211.12754 
L 205.403774 211.953023 
L 207.36 212.019499 
L 210.375849 212.11155 
L 218.526792 212.220763 
L 219.830943 212.240978 
L 220.075472 212.240023 
L 223.009811 212.099803 
L 224.313962 211.560634 
L 224.803019 211.088745 
L 225.536604 209.633538 
L 226.10717 207.841368 
L 227.166792 203.468692 
L 227.900377 200.819013 
L 228.470943 199.482165 
L 228.96 198.865132 
L 229.286038 198.718439 
L 229.612075 198.809317 
L 229.938113 199.15115 
L 230.34566 200.008361 
L 230.834717 201.676176 
L 231.568302 205.232678 
L 232.627925 210.348338 
L 233.198491 212.180236 
L 233.932075 213.891903 
L 234.828679 215.38656 
L 235.236226 215.876242 
L 236.540377 217.342701 
L 237.844528 218.490979 
L 241.593962 221.370586 
L 242.083019 221.340957 
L 242.735094 221.011885 
L 244.77283 219.673574 
L 245.506415 219.546558 
L 246.566038 219.628094 
L 248.359245 219.753765 
L 251.538113 219.640906 
L 265.476226 219.087238 
L 278.436226 218.477169 
L 298.243019 217.51407 
L 311.366038 217.145292 
L 328.890566 216.892075 
L 354.810566 216.756867 
L 394.831698 216.790062 
L 412.519245 216.847264 
L 412.519245 216.847264 
" style="fill:none;stroke:#2ca02c;stroke-linecap:square;stroke-width:4;"/>
   </g>
   <g id="line2d_12">
    <path clip-path="url(#p0f716b835b)" d="M 86.889057 217.283266 
L 88.030189 216.694962 
L 88.682264 215.95685 
L 89.33434 214.816231 
L 90.801509 211.982294 
L 91.453585 211.21228 
L 92.268679 210.651919 
L 93.246792 210.279056 
L 95.692075 209.692679 
L 98.300377 208.970442 
L 99.767547 208.41213 
L 101.560755 207.540182 
L 103.353962 206.431694 
L 107.429434 203.549479 
L 107.918491 203.519917 
L 108.407547 203.691982 
L 109.059623 204.307809 
L 110.363774 205.786272 
L 111.015849 206.182015 
L 111.667925 206.305694 
L 112.646038 206.293696 
L 114.928302 206.041962 
L 123.242264 205.381722 
L 123.89434 205.339046 
L 128.295849 205.219498 
L 136.935849 205.488751 
L 137.587925 205.525031 
L 141.989434 205.979879 
L 151.933585 207.67469 
L 155.193962 208.345786 
L 158.780377 209.111266 
L 161.22566 209.600493 
L 164.649057 210.243444 
L 168.887547 210.925989 
L 178.668679 211.884037 
L 186.819623 212.187496 
L 201.817358 212.079136 
L 215.673962 211.226937 
L 222.683774 210.43586 
L 223.987925 210.105355 
L 224.803019 209.69826 
L 225.618113 208.813893 
L 226.270189 207.751596 
L 227.737358 205.13198 
L 228.389434 204.515219 
L 228.878491 204.371217 
L 229.367547 204.514752 
L 229.856604 204.98396 
L 230.34566 205.85448 
L 230.834717 207.138547 
L 233.116981 214.198549 
L 233.932075 215.523408 
L 234.910189 216.587509 
L 236.051321 217.467733 
L 237.355472 218.159619 
L 238.98566 218.714947 
L 241.430943 219.373065 
L 242.083019 219.254865 
L 243.224151 218.690839 
L 244.202264 218.27589 
L 245.017358 218.142244 
L 246.158491 218.234214 
L 247.951698 218.405135 
L 250.56 218.313591 
L 256.754717 218.107177 
L 264.579623 218.102085 
L 304.030189 218.347671 
L 333.373585 218.158169 
L 412.600755 217.490772 
L 412.600755 217.490772 
" style="fill:none;stroke:#d62728;stroke-linecap:square;stroke-width:4;"/>
   </g>
   <g id="line2d_13">
    <path clip-path="url(#p0f716b835b)" d="M 86.4 217.465803 
L 412.437736 217.465803 
" style="fill:none;stroke:#000000;stroke-dasharray:3.2,0.8,0.5,0.8;stroke-dashoffset:0;stroke-width:0.5;"/>
   </g>
   <g id="line2d_14">
    <path clip-path="url(#p0f716b835b)" d="M 249.418868 245.134884 
L 249.418868 57.6 
" style="fill:none;stroke:#000000;stroke-linecap:square;stroke-width:0.5;"/>
   </g>
   <g id="line2d_15">
    <path clip-path="url(#p0f716b835b)" d="M 265.720755 245.134884 
L 265.720755 57.6 
" style="fill:none;stroke:#000000;stroke-dasharray:3.2,0.8,0.5,0.8;stroke-dashoffset:0;stroke-opacity:0.25;stroke-width:0.5;"/>
   </g>
   <g id="line2d_16">
    <path clip-path="url(#p0f716b835b)" d="M 282.022642 245.134884 
L 282.022642 57.6 
" style="fill:none;stroke:#000000;stroke-dasharray:3.2,0.8,0.5,0.8;stroke-dashoffset:0;stroke-opacity:0.25;stroke-width:0.5;"/>
   </g>
   <g id="line2d_17">
    <path clip-path="url(#p0f716b835b)" d="M 314.626415 245.134884 
L 314.626415 57.6 
" style="fill:none;stroke:#000000;stroke-dasharray:3.2,0.8,0.5,0.8;stroke-dashoffset:0;stroke-opacity:0.25;stroke-width:0.5;"/>
   </g>
   <g id="patch_3">
    <path d="M 86.4 245.134884 
L 86.4 57.6 
" style="fill:none;stroke:#000000;stroke-linecap:square;stroke-linejoin:miter;stroke-width:0.8;"/>
   </g>
   <g id="patch_4">
    <path d="M 412.437736 245.134884 
L 412.437736 57.6 
" style="fill:none;stroke:#000000;stroke-linecap:square;stroke-linejoin:miter;stroke-width:0.8;"/>
   </g>
   <g id="patch_5">
    <path d="M 86.4 245.134884 
L 412.437736 245.134884 
" style="fill:none;stroke:#000000;stroke-linecap:square;stroke-linejoin:miter;stroke-width:0.8;"/>
   </g>
   <g id="patch_6">
    <path d="M 86.4 57.6 
L 412.437736 57.6 
" style="fill:none;stroke:#000000;stroke-linecap:square;stroke-linejoin:miter;stroke-width:0.8;"/>
   </g>
   <g id="text_10">
    <!-- $Re = 10^2$ -->
    <g transform="translate(216.738868 33.896174)scale(0.19 -0.19)">
     <defs>
      <path d="M 13.203125 65.296875 
L 38.40625 65.296875 
Q 48.09375 65.296875 53.4375 61.5 
Q 58.796875 57.703125 58.796875 51.203125 
Q 58.796875 43.40625 52.203125 38.40625 
Q 48.296875 35.40625 39.09375 33.296875 
L 48 9.796875 
Q 49.703125 5.203125 51.546875 3.390625 
Q 53.40625 1.59375 56.703125 1.59375 
L 56.703125 0 
L 42 0 
L 29.703125 32.40625 
L 23.09375 32.90625 
L 17.59375 12.59375 
Q 16.296875 8 16.296875 6.296875 
Q 16.296875 4 17.59375 3 
Q 18.90625 2 23 1.59375 
L 23 0 
L -1.296875 0 
L -1.296875 1.59375 
Q 2.703125 2.09375 4.34375 3.796875 
Q 6 5.5 7.203125 10.09375 
L 19.09375 53.203125 
Q 20.296875 57.796875 20.296875 59.5 
Q 20.296875 61.296875 18.90625 62.296875 
Q 17.703125 63.09375 13.203125 63.703125 
z
M 30.59375 59.296875 
L 24.296875 36.59375 
Q 27.40625 36.09375 29.40625 36.09375 
Q 38.296875 36.09375 43.296875 40.09375 
Q 48.296875 44.09375 48.296875 51.09375 
Q 48.296875 56.296875 45.1875 59.296875 
Q 42.09375 62.296875 36.296875 62.296875 
Q 31.40625 62.296875 30.59375 59.296875 
z
" id="STIXGeneral-Italic-82"/>
      <path d="M 35.796875 10.90625 
L 37 9.703125 
Q 28.203125 -1.09375 16.59375 -1.09375 
Q 10.5 -1.09375 6.796875 2.65625 
Q 3.09375 6.40625 3.09375 12.59375 
Q 3.09375 24.296875 12.4375 34.1875 
Q 21.796875 44.09375 33 44.09375 
Q 36.90625 44.09375 39.046875 42.296875 
Q 41.203125 40.5 41.203125 37.296875 
Q 41.203125 30.703125 33.546875 25.5 
Q 25.90625 20.296875 12.796875 18.59375 
Q 11.796875 16.59375 11.796875 12.5 
Q 11.796875 8.40625 14.34375 5.90625 
Q 16.90625 3.40625 21.09375 3.40625 
Q 24.40625 3.40625 27.40625 4.953125 
Q 30.40625 6.5 35.796875 10.90625 
z
M 15.203125 25.203125 
L 13.5 20.796875 
Q 24.703125 23.5 29.59375 28.203125 
Q 34.59375 33 34.59375 37.90625 
Q 34.59375 41.796875 31.09375 41.796875 
Q 26.90625 41.796875 22.34375 36.9375 
Q 17.796875 32.09375 15.203125 25.203125 
z
" id="STIXGeneral-Italic-101"/>
      <path d="M 63.703125 32 
L 4.796875 32 
L 4.796875 38.59375 
L 63.703125 38.59375 
z
M 63.703125 12 
L 4.796875 12 
L 4.796875 18.59375 
L 63.703125 18.59375 
z
" id="STIXGeneral-Regular-61"/>
     </defs>
     <use transform="translate(0 0.409375)" xlink:href="#STIXGeneral-Italic-82"/>
     <use transform="translate(61.099991 0.409375)" xlink:href="#STIXGeneral-Italic-101"/>
     <use transform="translate(119.939981 0.409375)" xlink:href="#STIXGeneral-Regular-61"/>
     <use transform="translate(202.879962 0.409375)" xlink:href="#STIXGeneral-Regular-49"/>
     <use transform="translate(252.879947 0.409375)" xlink:href="#STIXGeneral-Regular-48"/>
     <use transform="translate(304.423213 35.684375)scale(0.7)" xlink:href="#STIXGeneral-Regular-50"/>
    </g>
   </g>
   <g id="legend_1">
    <g id="line2d_18">
     <path d="M 186.903063 39.876773 
L 218.557063 39.876773 
" style="fill:none;stroke:#1f77b4;stroke-linecap:square;stroke-width:4;"/>
    </g>
    <g id="line2d_19"/>
    <g id="text_11">
     <!-- $s/c = 1.5$ -->
     <g transform="translate(231.218663 45.416223)scale(0.15827 -0.15827)">
      <defs>
       <path d="M 36.59375 44.203125 
L 34.59375 30.203125 
L 33 30.203125 
Q 31.59375 41.796875 24.09375 41.796875 
Q 21.40625 41.796875 19.796875 40.296875 
Q 18.203125 38.796875 18.203125 36.09375 
Q 18.203125 32.296875 23.59375 25.90625 
Q 30.40625 18 30.40625 12.296875 
Q 30.40625 6.203125 26.34375 2.546875 
Q 22.296875 -1.09375 16 -1.09375 
Q 13.09375 -1.09375 10.5 -0.09375 
Q 8.40625 0.796875 6.09375 0.796875 
Q 4.09375 0.796875 3.203125 -1.296875 
L 1.59375 -1.296875 
L 3.59375 14.59375 
L 5.203125 14.59375 
Q 7.203125 1 15.203125 1 
Q 18.796875 1 20.796875 3 
Q 22.796875 5 22.796875 8.703125 
Q 22.796875 13.203125 17.203125 20.203125 
Q 10.90625 28.09375 10.90625 33.296875 
Q 10.90625 38.296875 14.203125 41.1875 
Q 17.5 44.09375 23 44.09375 
Q 25 44.09375 28.59375 43.09375 
Q 30.796875 42.40625 32.203125 42.40625 
Q 34.203125 42.40625 35.203125 44.203125 
z
" id="STIXGeneral-Italic-115"/>
       <path d="M 28.703125 67.59375 
L 5.90625 -1.40625 
L -0.90625 -1.40625 
L 22 67.59375 
z
" id="STIXGeneral-Regular-47"/>
       <path d="M 35 10.703125 
L 36.59375 9.703125 
Q 32 3.90625 27.640625 1.40625 
Q 23.296875 -1.09375 17.703125 -1.09375 
Q 10.59375 -1.09375 6.796875 2.796875 
Q 3 6.703125 3 14.296875 
Q 3 21 6.390625 27.25 
Q 9.796875 33.5 15.296875 38 
Q 23 44.09375 32 44.09375 
Q 36.59375 44.09375 39.546875 41.796875 
Q 42.5 39.5 42.5 36 
Q 42.5 34 41.09375 32.59375 
Q 39.703125 31.203125 37.703125 31.203125 
Q 35.703125 31.203125 34.75 32.34375 
Q 33.796875 33.5 33.796875 35.203125 
Q 33.796875 36.09375 34.546875 37.546875 
Q 35.296875 39 35.296875 40 
Q 35.296875 42 31.59375 42 
Q 25.296875 42 20.703125 37.203125 
Q 11.59375 27.59375 11.59375 13.90625 
Q 11.59375 8.5 13.890625 5.5 
Q 16.203125 2.5 20.5 2.5 
Q 24.40625 2.5 27.59375 4.390625 
Q 30.796875 6.296875 35 10.703125 
z
" id="STIXGeneral-Italic-99"/>
      </defs>
      <use transform="translate(0 0.203125)" xlink:href="#STIXGeneral-Italic-115"/>
      <use transform="translate(38.899994 0.203125)" xlink:href="#STIXGeneral-Regular-47"/>
      <use transform="translate(66.699982 0.203125)" xlink:href="#STIXGeneral-Italic-99"/>
      <use transform="translate(125.539972 0.203125)" xlink:href="#STIXGeneral-Regular-61"/>
      <use transform="translate(208.479953 0.203125)" xlink:href="#STIXGeneral-Regular-49"/>
      <use transform="translate(258.479938 0.203125)" xlink:href="#STIXGeneral-Regular-46"/>
      <use transform="translate(283.479922 0.203125)" xlink:href="#STIXGeneral-Regular-53"/>
     </g>
    </g>
    <g id="line2d_20">
     <path d="M 315.734843 39.876773 
L 347.388843 39.876773 
" style="fill:none;stroke:#ff7f0e;stroke-linecap:square;stroke-width:4;"/>
    </g>
    <g id="line2d_21"/>
    <g id="text_12">
     <!-- $s/c = 3.0$ -->
     <g transform="translate(360.050443 45.416223)scale(0.15827 -0.15827)">
      <defs>
       <path d="M 6.09375 51 
L 4.5 51.40625 
Q 6.796875 58.90625 11.6875 63.25 
Q 16.59375 67.59375 24.09375 67.59375 
Q 31.09375 67.59375 35.390625 63.796875 
Q 39.703125 60 39.703125 53.90625 
Q 39.703125 45.703125 30.40625 40.09375 
Q 35.90625 37.703125 38.703125 34.796875 
Q 43.09375 29.90625 43.09375 21.90625 
Q 43.09375 13.90625 38.5 7.90625 
Q 35.09375 3.296875 28.75 0.9375 
Q 22.40625 -1.40625 15.296875 -1.40625 
Q 4.09375 -1.40625 4.09375 4.296875 
Q 4.09375 5.90625 5.296875 6.90625 
Q 6.5 7.90625 8.203125 7.90625 
Q 10.703125 7.90625 14.296875 5.296875 
Q 18.703125 2.203125 22.90625 2.203125 
Q 28.40625 2.203125 32.15625 6.640625 
Q 35.90625 11.09375 35.90625 17.5 
Q 35.90625 29 25.5 32 
Q 22.40625 33 15.296875 33 
L 15.296875 34.40625 
Q 20.90625 36.296875 23.703125 38 
Q 31.796875 42.59375 31.796875 51.40625 
Q 31.796875 56.40625 28.9375 59 
Q 26.09375 61.59375 21 61.59375 
Q 12 61.59375 6.09375 51 
z
" id="STIXGeneral-Regular-51"/>
      </defs>
      <use transform="translate(0 0.40625)" xlink:href="#STIXGeneral-Italic-115"/>
      <use transform="translate(38.899994 0.40625)" xlink:href="#STIXGeneral-Regular-47"/>
      <use transform="translate(66.699982 0.40625)" xlink:href="#STIXGeneral-Italic-99"/>
      <use transform="translate(125.539972 0.40625)" xlink:href="#STIXGeneral-Regular-61"/>
      <use transform="translate(208.479953 0.40625)" xlink:href="#STIXGeneral-Regular-51"/>
      <use transform="translate(258.479938 0.40625)" xlink:href="#STIXGeneral-Regular-46"/>
      <use transform="translate(283.479922 0.40625)" xlink:href="#STIXGeneral-Regular-48"/>
     </g>
    </g>
    <g id="line2d_22">
     <path d="M 444.566623 39.876773 
L 476.220623 39.876773 
" style="fill:none;stroke:#2ca02c;stroke-linecap:square;stroke-width:4;"/>
    </g>
    <g id="line2d_23"/>
    <g id="text_13">
     <!-- $s/c = 4.5$ -->
     <g transform="translate(488.882223 45.416223)scale(0.15827 -0.15827)">
      <defs>
       <path d="M 47.296875 16.703125 
L 37 16.703125 
L 37 0 
L 29.203125 0 
L 29.203125 16.703125 
L 1.203125 16.703125 
L 1.203125 23.09375 
L 32.59375 67.59375 
L 37 67.59375 
L 37 23.09375 
L 47.296875 23.09375 
z
M 29.203125 23.09375 
L 29.203125 57.40625 
L 5.203125 23.09375 
z
" id="STIXGeneral-Regular-52"/>
      </defs>
      <use transform="translate(0 0.203125)" xlink:href="#STIXGeneral-Italic-115"/>
      <use transform="translate(38.899994 0.203125)" xlink:href="#STIXGeneral-Regular-47"/>
      <use transform="translate(66.699982 0.203125)" xlink:href="#STIXGeneral-Italic-99"/>
      <use transform="translate(125.539972 0.203125)" xlink:href="#STIXGeneral-Regular-61"/>
      <use transform="translate(208.479953 0.203125)" xlink:href="#STIXGeneral-Regular-52"/>
      <use transform="translate(258.479938 0.203125)" xlink:href="#STIXGeneral-Regular-46"/>
      <use transform="translate(283.479922 0.203125)" xlink:href="#STIXGeneral-Regular-53"/>
     </g>
    </g>
    <g id="line2d_24">
     <path d="M 573.398403 39.876773 
L 605.052403 39.876773 
" style="fill:none;stroke:#d62728;stroke-linecap:square;stroke-width:4;"/>
    </g>
    <g id="line2d_25"/>
    <g id="text_14">
     <!-- $s/c = 6.0$ -->
     <g transform="translate(617.714003 45.416223)scale(0.15827 -0.15827)">
      <defs>
       <path d="M 44.59375 68.40625 
L 44.796875 66.796875 
Q 33 64.90625 25.09375 57.25 
Q 17.203125 49.59375 15.203125 38.296875 
Q 21 42.796875 27.90625 42.796875 
Q 36.703125 42.796875 41.75 37.1875 
Q 46.796875 31.59375 46.796875 21.90625 
Q 46.796875 12.09375 41.703125 5.90625 
Q 35.796875 -1.40625 25.796875 -1.40625 
Q 13.59375 -1.40625 8.09375 8.703125 
Q 3.40625 17.296875 3.40625 27.90625 
Q 3.40625 44.296875 14.296875 55.5 
Q 20.5 61.90625 27.046875 64.546875 
Q 33.59375 67.203125 44.59375 68.40625 
z
M 37.796875 18.796875 
Q 37.796875 38.203125 24.296875 38.203125 
Q 19.296875 38.203125 16 35.546875 
Q 12.703125 32.90625 12.703125 26.59375 
Q 12.703125 14.90625 16.34375 8.15625 
Q 20 1.40625 26.90625 1.40625 
Q 32.203125 1.40625 35 6.15625 
Q 37.796875 10.90625 37.796875 18.796875 
z
" id="STIXGeneral-Regular-54"/>
      </defs>
      <use transform="translate(0 0.59375)" xlink:href="#STIXGeneral-Italic-115"/>
      <use transform="translate(38.899994 0.59375)" xlink:href="#STIXGeneral-Regular-47"/>
      <use transform="translate(66.699982 0.59375)" xlink:href="#STIXGeneral-Italic-99"/>
      <use transform="translate(125.539972 0.59375)" xlink:href="#STIXGeneral-Regular-61"/>
      <use transform="translate(208.479953 0.59375)" xlink:href="#STIXGeneral-Regular-54"/>
      <use transform="translate(258.479938 0.59375)" xlink:href="#STIXGeneral-Regular-46"/>
      <use transform="translate(283.479922 0.59375)" xlink:href="#STIXGeneral-Regular-48"/>
     </g>
    </g>
   </g>
  </g>
  <g id="axes_2">
   <g id="patch_7">
    <path d="M 451.562264 245.134884 
L 777.6 245.134884 
L 777.6 57.6 
L 451.562264 57.6 
z
" style="fill:#ffffff;"/>
   </g>
   <g id="matplotlib.axis_3">
    <g id="xtick_6">
     <g id="line2d_26">
      <g>
       <use style="fill:#ffffff;stroke:#000000;stroke-width:0.8;" x="451.562264" xlink:href="#ma52c24f348" y="245.134884"/>
      </g>
     </g>
     <g id="text_15">
      <!-- 0.0 -->
      <g transform="translate(439.687264 265.11129)scale(0.19 -0.19)">
       <use xlink:href="#STIXGeneral-Regular-48"/>
       <use x="49.999985" xlink:href="#STIXGeneral-Regular-46"/>
       <use x="74.999969" xlink:href="#STIXGeneral-Regular-48"/>
      </g>
     </g>
    </g>
    <g id="xtick_7">
     <g id="line2d_27">
      <g>
       <use style="fill:#ffffff;stroke:#000000;stroke-width:0.8;" x="533.071698" xlink:href="#ma52c24f348" y="245.134884"/>
      </g>
     </g>
     <g id="text_16">
      <!-- 0.5 -->
      <g transform="translate(521.196698 265.11129)scale(0.19 -0.19)">
       <use xlink:href="#STIXGeneral-Regular-48"/>
       <use x="49.999985" xlink:href="#STIXGeneral-Regular-46"/>
       <use x="74.999969" xlink:href="#STIXGeneral-Regular-53"/>
      </g>
     </g>
    </g>
    <g id="xtick_8">
     <g id="line2d_28">
      <g>
       <use style="fill:#ffffff;stroke:#000000;stroke-width:0.8;" x="614.581132" xlink:href="#ma52c24f348" y="245.134884"/>
      </g>
     </g>
     <g id="text_17">
      <!-- 1.0 -->
      <g transform="translate(602.706132 265.11129)scale(0.19 -0.19)">
       <use xlink:href="#STIXGeneral-Regular-49"/>
       <use x="49.999985" xlink:href="#STIXGeneral-Regular-46"/>
       <use x="74.999969" xlink:href="#STIXGeneral-Regular-48"/>
      </g>
     </g>
    </g>
    <g id="xtick_9">
     <g id="line2d_29">
      <g>
       <use style="fill:#ffffff;stroke:#000000;stroke-width:0.8;" x="696.090566" xlink:href="#ma52c24f348" y="245.134884"/>
      </g>
     </g>
     <g id="text_18">
      <!-- 1.5 -->
      <g transform="translate(684.215566 265.11129)scale(0.19 -0.19)">
       <use xlink:href="#STIXGeneral-Regular-49"/>
       <use x="49.999985" xlink:href="#STIXGeneral-Regular-46"/>
       <use x="74.999969" xlink:href="#STIXGeneral-Regular-53"/>
      </g>
     </g>
    </g>
    <g id="xtick_10">
     <g id="line2d_30">
      <g>
       <use style="fill:#ffffff;stroke:#000000;stroke-width:0.8;" x="777.6" xlink:href="#ma52c24f348" y="245.134884"/>
      </g>
     </g>
     <g id="text_19">
      <!-- 2.0 -->
      <g transform="translate(765.725 265.11129)scale(0.19 -0.19)">
       <use xlink:href="#STIXGeneral-Regular-50"/>
       <use x="49.999985" xlink:href="#STIXGeneral-Regular-46"/>
       <use x="74.999969" xlink:href="#STIXGeneral-Regular-48"/>
      </g>
     </g>
    </g>
    <g id="text_20">
     <!-- $\^t$ -->
     <g transform="translate(611.921132 286.21129)scale(0.19 -0.19)">
      <defs>
       <path d="M -7.5 50.703125 
L -10.90625 50.703125 
L -23.09375 61 
L -35.203125 50.703125 
L -38.59375 50.703125 
L -26.203125 67.40625 
L -20 67.40625 
z
" id="STIXGeneral-Regular-770"/>
       <path d="M 29.59375 42.796875 
L 29.09375 39.59375 
L 20.703125 39.59375 
L 12 6.796875 
Q 11.796875 6 11.796875 5.40625 
Q 11.796875 3.796875 13.296875 3.796875 
Q 14.5 3.796875 16.09375 5.34375 
Q 17.703125 6.90625 21.40625 11.703125 
L 22.703125 11 
Q 18.09375 4 15.140625 1.453125 
Q 12.203125 -1.09375 8.40625 -1.09375 
Q 3.796875 -1.09375 3.796875 2.59375 
Q 3.796875 3.59375 5.40625 10 
L 13.203125 39.59375 
L 5.703125 39.59375 
L 5.59375 40.203125 
Q 5.59375 42 8.90625 42.703125 
Q 11.40625 43.296875 15.5 46.546875 
Q 19.59375 49.796875 22.203125 53.703125 
Q 22.796875 54.59375 23.59375 54.59375 
Q 24.5 54.59375 24.5 53.796875 
Q 24.5 53.296875 24.40625 53.09375 
L 21.59375 42.796875 
z
" id="STIXGeneral-Italic-116"/>
      </defs>
      <use transform="translate(39.042969 16.59375)" xlink:href="#STIXGeneral-Regular-770"/>
      <use transform="translate(0 0.203125)" xlink:href="#STIXGeneral-Italic-116"/>
     </g>
    </g>
   </g>
   <g id="matplotlib.axis_4">
    <g id="ytick_4">
     <g id="line2d_31">
      <g>
       <use style="fill:#ffffff;stroke:#000000;stroke-width:0.8;" x="451.562264" xlink:href="#m12ca4fca6a" y="217.465803"/>
      </g>
     </g>
     <g id="text_21">
      <!-- 0 -->
      <g transform="translate(435.062264 223.954006)scale(0.19 -0.19)">
       <use xlink:href="#STIXGeneral-Regular-48"/>
      </g>
     </g>
    </g>
    <g id="ytick_5">
     <g id="line2d_32">
      <g>
       <use style="fill:#ffffff;stroke:#000000;stroke-width:0.8;" x="451.562264" xlink:href="#m12ca4fca6a" y="155.978955"/>
      </g>
     </g>
     <g id="text_22">
      <!-- 10 -->
      <g transform="translate(425.562264 162.467159)scale(0.19 -0.19)">
       <use xlink:href="#STIXGeneral-Regular-49"/>
       <use x="49.999985" xlink:href="#STIXGeneral-Regular-48"/>
      </g>
     </g>
    </g>
    <g id="ytick_6">
     <g id="line2d_33">
      <g>
       <use style="fill:#ffffff;stroke:#000000;stroke-width:0.8;" x="451.562264" xlink:href="#m12ca4fca6a" y="94.492108"/>
      </g>
     </g>
     <g id="text_23">
      <!-- 20 -->
      <g transform="translate(425.562264 100.980311)scale(0.19 -0.19)">
       <use xlink:href="#STIXGeneral-Regular-50"/>
       <use x="49.999985" xlink:href="#STIXGeneral-Regular-48"/>
      </g>
     </g>
    </g>
    <g id="text_24">
     <!-- $C_l$ -->
     <g transform="translate(417.43867 160.012442)rotate(-90)scale(0.19 -0.19)">
      <use transform="translate(0 0.40625)" xlink:href="#STIXGeneral-Italic-67"/>
      <use transform="translate(66.699997 -12.821875)scale(0.7)" xlink:href="#STIXGeneral-Italic-108"/>
     </g>
    </g>
   </g>
   <g id="line2d_34">
    <path clip-path="url(#p33d22c45c6)" d="M 452.051321 216.804847 
L 453.029434 215.095677 
L 453.518491 213.459522 
L 454.007547 211.017078 
L 454.822642 205.349031 
L 455.800755 198.677361 
L 456.45283 195.857823 
L 456.941887 194.564978 
L 457.430943 193.751216 
L 458.083019 193.113761 
L 458.898113 192.685398 
L 460.365283 192.253433 
L 462.973585 191.503283 
L 464.603774 190.81484 
L 467.212075 189.138594 
L 468.842264 187.678866 
L 471.287547 185.349344 
L 471.776604 185.144626 
L 472.102642 185.164544 
L 472.428679 185.360204 
L 472.754717 185.785841 
L 473.243774 187.093131 
L 473.73283 189.240177 
L 474.547925 194.3006 
L 475.363019 199.091544 
L 476.015094 201.531944 
L 476.504151 202.595709 
L 476.993208 203.215847 
L 477.645283 203.645798 
L 478.460377 203.894486 
L 479.927547 204.038574 
L 483.676981 204.091572 
L 484.166038 204.079099 
L 538.451321 204.038023 
L 538.940377 204.027676 
L 549.373585 204.030961 
L 549.862642 204.020243 
L 558.502642 204.014878 
L 559.806792 204.021789 
L 561.926038 204.012054 
L 563.719245 204.014364 
L 565.349434 204.006465 
L 567.142642 204.013577 
L 569.098868 204.002358 
L 586.215849 203.864063 
L 587.030943 203.598675 
L 587.683019 203.090821 
L 588.335094 201.945644 
L 588.824151 200.276372 
L 589.313208 197.321677 
L 589.802264 192.251766 
L 590.291321 183.864591 
L 590.780377 170.947499 
L 591.432453 146.281564 
L 592.736604 93.349816 
L 593.22566 81.644479 
L 593.714717 75.434538 
L 594.040755 73.2421 
L 594.366792 72.153677 
L 594.69283 71.958854 
L 594.855849 72.257671 
L 595.181887 73.773365 
L 595.507925 76.820006 
L 595.833962 82.141478 
L 596.323019 95.329493 
L 598.116226 154.69629 
L 598.768302 166.571884 
L 599.420377 174.744087 
L 600.561509 184.757758 
L 601.539623 191.736997 
L 603.006792 200.960711 
L 604.147925 208.758005 
L 604.963019 215.766624 
L 606.593208 231.148388 
L 606.919245 232.752947 
L 607.245283 233.513701 
L 607.408302 233.601117 
L 607.571321 233.52817 
L 607.897358 233.019555 
L 608.712453 230.869862 
L 609.201509 229.829886 
L 609.527547 229.457123 
L 609.853585 229.357754 
L 610.342642 229.613888 
L 611.809811 230.781013 
L 612.135849 230.661487 
L 612.461887 230.362716 
L 612.950943 229.583417 
L 614.092075 227.779865 
L 615.559245 225.863266 
L 617.841509 223.441714 
L 619.797736 221.714925 
L 621.916981 220.199584 
L 624.036226 219.046544 
L 626.481509 218.1435 
L 628.600755 217.652498 
L 631.046038 217.305052 
L 634.632453 217.054801 
L 642.946415 216.885645 
L 663.486792 216.802753 
L 731.139623 217.407323 
L 777.763019 217.42291 
L 777.763019 217.42291 
" style="fill:none;stroke:#1f77b4;stroke-linecap:square;stroke-width:4;"/>
   </g>
   <g id="line2d_35">
    <path clip-path="url(#p33d22c45c6)" d="M 452.051321 217.132178 
L 453.029434 216.271906 
L 453.518491 215.447491 
L 454.007547 214.216379 
L 454.822642 211.356394 
L 455.800755 207.977408 
L 456.45283 206.534087 
L 457.104906 205.700226 
L 457.756981 205.242021 
L 458.735094 204.877807 
L 462.810566 203.699879 
L 464.277736 202.949525 
L 465.744906 201.937944 
L 467.375094 200.536416 
L 471.939623 196.081901 
L 472.428679 195.908873 
L 472.917736 196.017302 
L 473.243774 196.308551 
L 473.73283 197.124065 
L 474.384906 198.821898 
L 475.363019 201.449778 
L 476.015094 202.551297 
L 476.66717 203.153408 
L 477.319245 203.455983 
L 478.460377 203.684826 
L 481.068679 203.873662 
L 485.144151 204.009998 
L 485.959245 204.015094 
L 527.855094 204.023168 
L 545.624151 204.47361 
L 550.677736 204.737955 
L 553.123019 204.898471 
L 559.806792 205.41467 
L 575.94566 207.237416 
L 583.281509 208.332864 
L 586.704906 208.871445 
L 587.846038 208.90099 
L 588.498113 208.733472 
L 588.98717 208.398089 
L 589.476226 207.736532 
L 589.965283 206.546199 
L 590.45434 204.558753 
L 590.943396 201.547551 
L 591.595472 196.014817 
L 592.736604 186.092453 
L 593.388679 182.512062 
L 594.040755 180.296003 
L 594.529811 179.190501 
L 594.855849 178.794113 
L 595.018868 178.751258 
L 595.181887 178.843236 
L 595.507925 179.488679 
L 595.833962 180.89467 
L 596.323019 184.384487 
L 598.442264 202.561467 
L 599.257358 206.435734 
L 600.072453 209.280077 
L 601.376604 212.672537 
L 602.680755 215.347877 
L 605.126038 220.107742 
L 606.430189 222.844717 
L 606.919245 223.297799 
L 607.245283 223.316867 
L 607.571321 223.138501 
L 608.223396 222.432022 
L 609.364528 221.113378 
L 610.016604 220.732601 
L 610.668679 220.672849 
L 612.787925 220.851477 
L 613.929057 220.437259 
L 616.863396 219.346123 
L 623.058113 217.246066 
L 625.503396 216.747591 
L 627.948679 216.458991 
L 631.209057 216.297949 
L 636.262642 216.302834 
L 650.445283 216.690706 
L 675.713208 217.399634 
L 703.100377 217.536602 
L 745.648302 217.589584 
L 777.763019 217.56545 
L 777.763019 217.56545 
" style="fill:none;stroke:#ff7f0e;stroke-linecap:square;stroke-width:4;"/>
   </g>
   <g id="line2d_36">
    <path clip-path="url(#p33d22c45c6)" d="M 451.806792 217.284526 
L 452.621887 216.997891 
L 453.192453 216.575627 
L 453.763019 215.850927 
L 454.415094 214.568759 
L 456.289811 210.465802 
L 456.941887 209.761943 
L 457.675472 209.326095 
L 458.735094 208.99761 
L 461.913962 208.145736 
L 463.381132 207.468885 
L 464.929811 206.479399 
L 466.641509 205.096444 
L 469.168302 202.669134 
L 472.184151 199.718978 
L 472.754717 199.468424 
L 473.162264 199.476263 
L 473.569811 199.690502 
L 474.058868 200.2294 
L 474.955472 201.693844 
L 475.770566 202.807901 
L 476.422642 203.325821 
L 477.156226 203.625477 
L 478.541887 203.849739 
L 481.068679 204.005669 
L 488.323019 204.10259 
L 512.61283 204.183395 
L 522.230943 204.741405 
L 525.735849 205.086787 
L 534.620377 206.361179 
L 537.962264 206.977482 
L 542.85283 208.011323 
L 550.02566 209.884597 
L 555.568302 211.338129 
L 557.28 211.585404 
L 558.991698 211.672542 
L 560.866415 211.582523 
L 563.556226 211.169219 
L 566.164528 210.579347 
L 571.544151 209.273265 
L 573.744906 208.838855 
L 576.353208 208.43666 
L 580.836226 208.048074 
L 586.460377 207.969175 
L 588.335094 207.888735 
L 589.150189 207.653746 
L 589.720755 207.271008 
L 590.209811 206.677951 
L 590.698868 205.715698 
L 591.269434 204.023105 
L 592.084528 200.752806 
L 593.388679 195.672442 
L 594.203774 193.341348 
L 594.77434 192.223334 
L 595.181887 191.85048 
L 595.426415 191.859065 
L 595.670943 192.071625 
L 595.996981 192.697215 
L 596.404528 194.016236 
L 597.056604 196.966301 
L 598.523774 203.636545 
L 599.420377 206.65369 
L 600.48 209.423837 
L 601.621132 211.790205 
L 602.843774 213.834168 
L 604.555472 216.22866 
L 606.674717 218.989783 
L 607.245283 219.298016 
L 607.815849 219.33287 
L 608.793962 219.091048 
L 610.016604 218.855827 
L 611.157736 218.884056 
L 613.521509 218.98736 
L 621.427925 218.863484 
L 627.052075 218.431156 
L 642.620377 217.180988 
L 650.689811 216.978188 
L 659.49283 216.980601 
L 717.935094 217.574712 
L 763.498868 217.615356 
L 777.681509 217.608026 
L 777.681509 217.608026 
" style="fill:none;stroke:#2ca02c;stroke-linecap:square;stroke-width:4;"/>
   </g>
   <g id="line2d_37">
    <path clip-path="url(#p33d22c45c6)" d="M 452.051321 217.297045 
L 453.192453 216.744358 
L 453.844528 216.055624 
L 454.496604 214.997947 
L 455.963774 212.435441 
L 456.615849 211.779039 
L 457.430943 211.330857 
L 458.572075 211.013243 
L 461.180377 210.342657 
L 462.647547 209.713972 
L 464.114717 208.847447 
L 465.907925 207.515014 
L 468.02717 205.642649 
L 470.309434 203.316777 
L 471.776604 201.833495 
L 472.591698 201.234224 
L 473.080755 201.083059 
L 473.569811 201.152975 
L 474.058868 201.491555 
L 476.178113 203.396771 
L 476.993208 203.652468 
L 478.460377 203.852804 
L 481.720755 204.029951 
L 483.024906 204.047881 
L 487.263396 204.030873 
L 488.730566 204.012705 
L 490.849811 204.021436 
L 502.58717 204.211842 
L 507.966792 204.611802 
L 509.596981 204.812091 
L 513.509434 205.395128 
L 517.910943 206.283596 
L 522.475472 207.439051 
L 526.713962 208.768953 
L 534.049811 211.412729 
L 535.68 211.652348 
L 537.310189 211.62696 
L 538.940377 211.380542 
L 541.059623 210.810172 
L 548.558491 208.579183 
L 551.329811 208.144426 
L 554.590189 207.938581 
L 558.013585 207.992224 
L 561.763019 208.318659 
L 566.164528 208.705099 
L 568.283774 208.656239 
L 570.403019 208.388883 
L 572.196226 207.970425 
L 573.826415 207.41291 
L 576.271698 206.359963 
L 577.249811 205.87563 
L 581.488302 203.883759 
L 587.683019 201.888111 
L 589.313208 201.399746 
L 590.128302 200.925846 
L 590.617358 200.507184 
L 591.269434 199.695443 
L 592.410566 198.00657 
L 593.062642 197.387431 
L 593.551698 197.182487 
L 594.040755 197.193798 
L 594.529811 197.42104 
L 595.018868 197.884633 
L 595.507925 198.663662 
L 595.996981 199.834703 
L 596.812075 202.509382 
L 597.953208 206.255626 
L 598.768302 208.264017 
L 599.909434 210.490282 
L 601.539623 213.065056 
L 602.843774 214.671831 
L 604.147925 215.934346 
L 606.26717 217.648889 
L 606.919245 217.944698 
L 607.73434 218.049212 
L 609.364528 218.141574 
L 612.135849 218.639408 
L 614.255094 218.368006 
L 617.515472 218.033241 
L 622.895094 217.743538 
L 630.556981 217.545105 
L 638.381887 217.590512 
L 660.715472 217.889918 
L 695.601509 217.806007 
L 704.241509 217.651632 
L 719.728302 217.268361 
L 732.117736 217.304524 
L 769.612075 217.163149 
L 777.763019 217.272559 
L 777.763019 217.272559 
" style="fill:none;stroke:#d62728;stroke-linecap:square;stroke-width:4;"/>
   </g>
   <g id="line2d_38">
    <path clip-path="url(#p33d22c45c6)" d="M 451.562264 217.465803 
L 777.6 217.465803 
" style="fill:none;stroke:#000000;stroke-dasharray:3.2,0.8,0.5,0.8;stroke-dashoffset:0;stroke-width:0.5;"/>
   </g>
   <g id="line2d_39">
    <path clip-path="url(#p33d22c45c6)" d="M 614.581132 245.134884 
L 614.581132 57.6 
" style="fill:none;stroke:#000000;stroke-linecap:square;stroke-width:0.5;"/>
   </g>
   <g id="line2d_40">
    <path clip-path="url(#p33d22c45c6)" d="M 630.883019 245.134884 
L 630.883019 57.6 
" style="fill:none;stroke:#000000;stroke-dasharray:3.2,0.8,0.5,0.8;stroke-dashoffset:0;stroke-opacity:0.25;stroke-width:0.5;"/>
   </g>
   <g id="line2d_41">
    <path clip-path="url(#p33d22c45c6)" d="M 647.184906 245.134884 
L 647.184906 57.6 
" style="fill:none;stroke:#000000;stroke-dasharray:3.2,0.8,0.5,0.8;stroke-dashoffset:0;stroke-opacity:0.25;stroke-width:0.5;"/>
   </g>
   <g id="line2d_42">
    <path clip-path="url(#p33d22c45c6)" d="M 679.788679 245.134884 
L 679.788679 57.6 
" style="fill:none;stroke:#000000;stroke-dasharray:3.2,0.8,0.5,0.8;stroke-dashoffset:0;stroke-opacity:0.25;stroke-width:0.5;"/>
   </g>
   <g id="patch_8">
    <path d="M 451.562264 245.134884 
L 451.562264 57.6 
" style="fill:none;stroke:#000000;stroke-linecap:square;stroke-linejoin:miter;stroke-width:0.8;"/>
   </g>
   <g id="patch_9">
    <path d="M 777.6 245.134884 
L 777.6 57.6 
" style="fill:none;stroke:#000000;stroke-linecap:square;stroke-linejoin:miter;stroke-width:0.8;"/>
   </g>
   <g id="patch_10">
    <path d="M 451.562264 245.134884 
L 777.6 245.134884 
" style="fill:none;stroke:#000000;stroke-linecap:square;stroke-linejoin:miter;stroke-width:0.8;"/>
   </g>
   <g id="patch_11">
    <path d="M 451.562264 57.6 
L 777.6 57.6 
" style="fill:none;stroke:#000000;stroke-linecap:square;stroke-linejoin:miter;stroke-width:0.8;"/>
   </g>
   <g id="text_25">
    <!-- Stroke motion -->
    <g transform="translate(487.121626 240.184546)scale(0.19 -0.19)">
     <defs>
      <path d="M 46.90625 46.296875 
L 44.40625 46.296875 
Q 42.703125 52.5 40.296875 55.703125 
Q 34.203125 63.5 25.796875 63.5 
Q 21.203125 63.5 18.453125 60.84375 
Q 15.703125 58.203125 15.703125 54 
Q 15.703125 52 16.703125 50.09375 
Q 17.703125 48.203125 18.84375 46.84375 
Q 20 45.5 22.890625 43.5 
Q 25.796875 41.5 27.59375 40.453125 
Q 29.40625 39.40625 33.59375 36.90625 
Q 41.703125 32.203125 45.390625 27.546875 
Q 49.09375 22.90625 49.09375 17.296875 
Q 49.09375 9 43.296875 3.796875 
Q 37.5 -1.40625 28.703125 -1.40625 
Q 22.203125 -1.40625 16.90625 0.90625 
Q 14.296875 2 12.203125 2 
Q 11 2 10.203125 1.09375 
Q 9.40625 0.203125 9.40625 -1.296875 
L 7.203125 -1.296875 
L 4.296875 19.90625 
L 6.5 19.90625 
Q 13.203125 2.203125 27.09375 2.203125 
Q 32.40625 2.203125 35.703125 5.34375 
Q 39 8.5 39 13.40625 
Q 39 18.09375 36.09375 21.296875 
Q 31.296875 26.5 19.296875 32.90625 
Q 7.09375 39.40625 7.09375 50.09375 
Q 7.09375 58.09375 12 62.84375 
Q 16.90625 67.59375 24.5 67.59375 
Q 29.796875 67.59375 35 65.40625 
Q 37.703125 64.203125 39.40625 64.203125 
Q 42 64.203125 42.59375 67.59375 
L 44.703125 67.59375 
z
" id="STIXGeneral-Regular-83"/>
      <path d="M 26.59375 7.703125 
L 27.90625 6.59375 
Q 23.09375 -1 15.796875 -1 
Q 7 -1 7 11.703125 
L 7 41.796875 
L 1.703125 41.796875 
Q 1.296875 42.09375 1.296875 42.5 
Q 1.296875 43.296875 3 44.40625 
Q 6.796875 46.59375 12.703125 55.09375 
Q 12.90625 55.40625 13.65625 56.34375 
Q 14.40625 57.296875 14.703125 57.90625 
Q 15.40625 57.90625 15.40625 56.59375 
L 15.40625 45 
L 25.5 45 
L 25.5 41.796875 
L 15.40625 41.796875 
L 15.40625 13.203125 
Q 15.40625 8.40625 16.59375 6.296875 
Q 17.796875 4.203125 20.59375 4.203125 
Q 23.59375 4.203125 26.59375 7.703125 
z
" id="STIXGeneral-Regular-116"/>
      <path d="M 16 45.796875 
L 16 36.59375 
Q 19.796875 42 22.34375 44 
Q 24.90625 46 28 46 
Q 30.59375 46 32.046875 44.59375 
Q 33.5 43.203125 33.5 40.703125 
Q 33.5 38.59375 32.453125 37.390625 
Q 31.40625 36.203125 29.59375 36.203125 
Q 27.703125 36.203125 25.59375 38.203125 
Q 24 39.703125 23 39.703125 
Q 20.90625 39.703125 18.453125 36.796875 
Q 16 33.90625 16 31.5 
L 16 9 
Q 16 4.703125 17.703125 3.203125 
Q 19.40625 1.703125 24.5 1.5 
L 24.5 0 
L 0.5 0 
L 0.5 1.5 
Q 5.296875 2.40625 6.4375 3.5 
Q 7.59375 4.59375 7.59375 8.40625 
L 7.59375 33.40625 
Q 7.59375 36.703125 6.84375 38.046875 
Q 6.09375 39.40625 4.203125 39.40625 
Q 2.59375 39.40625 0.703125 39 
L 0.703125 40.59375 
Q 7 42.59375 15.5 46 
z
" id="STIXGeneral-Regular-114"/>
      <path d="M 47 23.09375 
Q 47 12.59375 40.75 5.796875 
Q 34.5 -1 24.5 -1 
Q 15.296875 -1 9.09375 5.75 
Q 2.90625 12.5 2.90625 22.796875 
Q 2.90625 33.203125 9.09375 39.59375 
Q 15.296875 46 25.40625 46 
Q 34.703125 46 40.84375 39.640625 
Q 47 33.296875 47 23.09375 
z
M 38 20.40625 
Q 38 31.796875 33 38.203125 
Q 29 43.203125 23.5 43.203125 
Q 18.296875 43.203125 15.09375 38.953125 
Q 11.90625 34.703125 11.90625 27.296875 
Q 11.90625 14.5 17.203125 6.796875 
Q 20.59375 1.796875 26.203125 1.796875 
Q 31.703125 1.796875 34.84375 6.75 
Q 38 11.703125 38 20.40625 
z
" id="STIXGeneral-Regular-111"/>
      <path d="M 50.5 0 
L 28.703125 0 
L 28.703125 1.5 
L 30.59375 1.5 
Q 32.703125 1.5 32.703125 3 
Q 32.703125 3.90625 31.59375 5.296875 
L 16.59375 25.09375 
L 16.59375 6.703125 
Q 16.59375 4.09375 17.84375 2.890625 
Q 19.09375 1.703125 22.09375 1.59375 
L 24.09375 1.5 
L 24.09375 0 
L 0.703125 0 
L 0.703125 1.5 
Q 6.09375 2.40625 7.140625 3.34375 
Q 8.203125 4.296875 8.203125 8.203125 
L 8.203125 56.40625 
Q 8.203125 60 7.296875 61.25 
Q 6.40625 62.5 3.90625 62.5 
Q 3.296875 62.5 0.703125 62.296875 
L 0.703125 63.90625 
L 3.703125 64.703125 
Q 9.703125 66.296875 16.203125 68.296875 
L 16.59375 68.09375 
L 16.59375 26.09375 
L 30.296875 38.296875 
Q 32.59375 40.40625 32.59375 41.796875 
Q 32.59375 42.796875 31.546875 43.140625 
Q 30.5 43.5 27.59375 43.59375 
L 27.59375 45 
L 48 45 
L 48 43.5 
Q 43 43.5 39.140625 41.34375 
Q 35.296875 39.203125 26.40625 30.90625 
L 23.5 28.203125 
L 38.796875 8.796875 
Q 44.203125 1.90625 50.5 1.5 
z
" id="STIXGeneral-Regular-107"/>
      <path d="M 40.796875 16.40625 
L 42.40625 15.703125 
Q 36.40625 -1 21.5 -1 
Q 12.703125 -1 7.59375 5.140625 
Q 2.5 11.296875 2.5 21.703125 
Q 2.5 32.40625 8.203125 39.203125 
Q 13.90625 46 23.203125 46 
Q 32.203125 46 37.09375 39.09375 
Q 40 35.09375 40.5 27.703125 
L 9.703125 27.703125 
Q 10.09375 21.40625 10.9375 18.09375 
Q 11.796875 14.796875 14.296875 11.40625 
Q 18.5 5.90625 25.40625 5.90625 
Q 30.296875 5.90625 33.640625 8.296875 
Q 37 10.703125 40.796875 16.40625 
z
M 9.90625 30.90625 
L 30.296875 30.90625 
Q 29.40625 37.203125 27.34375 39.796875 
Q 25.296875 42.40625 20.5 42.40625 
Q 16.296875 42.40625 13.5 39.453125 
Q 10.703125 36.5 9.90625 30.90625 
z
" id="STIXGeneral-Regular-101"/>
      <path id="STIXGeneral-Regular-32"/>
      <path d="M 77.5 0 
L 55.703125 0 
L 55.703125 1.5 
Q 59.90625 1.90625 61.046875 3.25 
Q 62.203125 4.59375 62.203125 9 
L 62.203125 29.59375 
Q 62.203125 35.59375 60.453125 38.1875 
Q 58.703125 40.796875 54.5 40.796875 
Q 51 40.796875 48.546875 39.390625 
Q 46.09375 38 43.796875 34.703125 
L 43.796875 9.5 
Q 43.796875 4.703125 45.25 3.140625 
Q 46.703125 1.59375 51 1.5 
L 51 0 
L 28.59375 0 
L 28.59375 1.5 
Q 33 1.796875 34.203125 2.9375 
Q 35.40625 4.09375 35.40625 8.59375 
L 35.40625 29.703125 
Q 35.40625 40.796875 28.90625 40.796875 
Q 26.09375 40.796875 22.9375 39.546875 
Q 19.796875 38.296875 18.296875 36.5 
Q 17 35 17 34.796875 
L 17 7 
Q 17 3.796875 18.390625 2.75 
Q 19.796875 1.703125 23.796875 1.5 
L 23.796875 0 
L 1.59375 0 
L 1.59375 1.5 
Q 5.796875 1.59375 7.1875 3.046875 
Q 8.59375 4.5 8.59375 8.796875 
L 8.59375 33.59375 
Q 8.59375 37.296875 7.796875 38.75 
Q 7 40.203125 5.09375 40.203125 
Q 3.59375 40.203125 1.90625 39.796875 
L 1.90625 41.5 
Q 8.703125 43.40625 15.796875 46 
L 16.59375 45.703125 
L 16.59375 38.296875 
L 16.796875 38.296875 
Q 21.296875 43 24.75 44.5 
Q 28.203125 46 32.09375 46 
Q 40 46 42.703125 37.59375 
Q 50.5 46 59 46 
Q 70.59375 46 70.59375 28 
L 70.59375 7.703125 
Q 70.59375 4.40625 71.59375 3.15625 
Q 72.59375 1.90625 74.90625 1.703125 
L 77.5 1.5 
z
" id="STIXGeneral-Regular-109"/>
      <path d="M 18 63.203125 
Q 18 61 16.5 59.546875 
Q 15 58.09375 12.796875 58.09375 
Q 10.703125 58.09375 9.25 59.546875 
Q 7.796875 61 7.796875 63.203125 
Q 7.796875 65.296875 9.296875 66.796875 
Q 10.796875 68.296875 12.90625 68.296875 
Q 15.09375 68.296875 16.546875 66.796875 
Q 18 65.296875 18 63.203125 
z
M 25.296875 0 
L 1.59375 0 
L 1.59375 1.5 
Q 6.796875 1.796875 8.140625 3.296875 
Q 9.5 4.796875 9.5 10.40625 
L 9.5 33.09375 
Q 9.5 36.59375 8.796875 38 
Q 8.09375 39.40625 6.203125 39.40625 
Q 3.796875 39.40625 2 38.90625 
L 2 40.5 
L 17.5 46 
L 17.90625 45.59375 
L 17.90625 10.5 
Q 17.90625 4.90625 19.15625 3.40625 
Q 20.40625 1.90625 25.296875 1.5 
z
" id="STIXGeneral-Regular-105"/>
      <path d="M 48.5 0 
L 27.703125 0 
L 27.796875 1.5 
Q 31.5 1.796875 32.75 3.640625 
Q 34 5.5 34 10.5 
L 34 30.40625 
Q 34 40.5 26.703125 40.5 
Q 24.203125 40.5 22 39.296875 
Q 19.796875 38.09375 16.40625 34.796875 
L 16.40625 7.203125 
Q 16.40625 4.203125 17.75 3 
Q 19.09375 1.796875 22.90625 1.5 
L 22.90625 0 
L 1.796875 0 
L 1.796875 1.5 
Q 5.59375 1.796875 6.796875 3.34375 
Q 8 4.90625 8 9.40625 
L 8 33.703125 
Q 8 37.40625 7.296875 38.796875 
Q 6.59375 40.203125 4.5 40.203125 
Q 2.5 40.203125 1.59375 39.796875 
L 1.59375 41.5 
Q 8.59375 43.5 15.296875 46 
L 16.09375 45.703125 
L 16.09375 37.90625 
L 16.203125 37.90625 
Q 23.296875 46 30.59375 46 
Q 36.296875 46 39.34375 42 
Q 42.40625 38 42.40625 30.59375 
L 42.40625 8.5 
Q 42.40625 4.5 43.59375 3.203125 
Q 44.796875 1.90625 48.5 1.5 
z
" id="STIXGeneral-Regular-110"/>
     </defs>
     <use xlink:href="#STIXGeneral-Regular-83"/>
     <use x="55.599991" xlink:href="#STIXGeneral-Regular-116"/>
     <use x="83.399979" xlink:href="#STIXGeneral-Regular-114"/>
     <use x="116.699966" xlink:href="#STIXGeneral-Regular-111"/>
     <use x="166.699951" xlink:href="#STIXGeneral-Regular-107"/>
     <use x="216.699936" xlink:href="#STIXGeneral-Regular-101"/>
     <use x="261.09993" xlink:href="#STIXGeneral-Regular-32"/>
     <use x="286.099915" xlink:href="#STIXGeneral-Regular-109"/>
     <use x="363.899902" xlink:href="#STIXGeneral-Regular-111"/>
     <use x="413.899887" xlink:href="#STIXGeneral-Regular-116"/>
     <use x="441.699875" xlink:href="#STIXGeneral-Regular-105"/>
     <use x="469.499863" xlink:href="#STIXGeneral-Regular-111"/>
     <use x="519.499847" xlink:href="#STIXGeneral-Regular-110"/>
    </g>
   </g>
   <g id="text_26">
    <!-- Wake interaction -->
    <g transform="translate(639.078931 240.184546)scale(0.19 -0.19)">
     <defs>
      <path d="M 93.203125 66.203125 
L 93.203125 64.296875 
Q 89.203125 63.5 87.75 62.34375 
Q 86.296875 61.203125 84.90625 57.296875 
Q 73.5 26.703125 64.5 -1.09375 
L 63 -1.09375 
Q 56.90625 15.796875 47 41.203125 
L 31.59375 -1.09375 
L 30.09375 -1.09375 
Q 26.703125 9 19.953125 27.390625 
Q 13.203125 45.796875 10.90625 52.296875 
Q 8.40625 59.5 6.34375 61.84375 
Q 4.296875 64.203125 0.5 64.296875 
L 0.5 66.203125 
L 24.90625 66.203125 
L 24.90625 64.296875 
Q 21.203125 64.203125 19.84375 63.5 
Q 18.5 62.796875 18.5 61.203125 
Q 18.5 59.5 19.59375 56.5 
L 34 18.90625 
L 44.40625 47.203125 
L 41.59375 54.703125 
Q 39.203125 61.203125 37.5 62.703125 
Q 35.796875 64.203125 31.40625 64.296875 
L 31.40625 66.203125 
L 57.90625 66.203125 
L 57.90625 64.296875 
Q 50.203125 64.09375 50.203125 60.796875 
Q 50.203125 59.5 51.90625 55 
L 66.203125 18.59375 
L 78.796875 52.5 
Q 80.5 57.296875 80.5 60.203125 
Q 80.5 64.203125 73.5 64.296875 
L 73.5 66.203125 
z
" id="STIXGeneral-Regular-87"/>
      <path d="M 44.203125 6.59375 
L 44.203125 3.796875 
Q 40.40625 -1 35.203125 -1 
Q 29.5 -1 28.796875 6.296875 
L 28.703125 6.296875 
Q 22.296875 -1 14.203125 -1 
Q 9.5 -1 6.59375 1.75 
Q 3.703125 4.5 3.703125 9.40625 
Q 3.703125 16.40625 10.703125 21.09375 
Q 15.5 24.296875 28.703125 29.203125 
L 28.703125 34.59375 
Q 28.703125 39.09375 26.546875 41.34375 
Q 24.40625 43.59375 20.90625 43.59375 
Q 17.90625 43.59375 15.90625 42.140625 
Q 13.90625 40.703125 13.90625 38.703125 
Q 13.90625 37.796875 14.203125 36.6875 
Q 14.5 35.59375 14.5 34.5 
Q 14.5 33 13.140625 31.703125 
Q 11.796875 30.40625 9.90625 30.40625 
Q 8.203125 30.40625 6.890625 31.703125 
Q 5.59375 33 5.59375 35 
Q 5.59375 39.796875 10.703125 43 
Q 15.40625 46 22.203125 46 
Q 30.296875 46 34 41.5 
Q 35.796875 39.40625 36.296875 37.25 
Q 36.796875 35.09375 36.796875 30.40625 
L 36.796875 11.296875 
Q 36.796875 4.703125 39.90625 4.703125 
Q 41.90625 4.703125 44.203125 6.59375 
z
M 28.703125 12.703125 
L 28.703125 26.796875 
Q 19.5 23.59375 15.90625 20.203125 
Q 12.5 17.09375 12.5 12.5 
Q 12.5 8.703125 14.390625 6.75 
Q 16.296875 4.796875 19.40625 4.796875 
Q 22.703125 4.796875 25.203125 6.40625 
Q 27.296875 7.90625 28 9.203125 
Q 28.703125 10.5 28.703125 12.703125 
z
" id="STIXGeneral-Regular-97"/>
      <path d="M 39.796875 15.59375 
L 41.203125 14.703125 
Q 36.90625 6.296875 33 3.203125 
Q 27.90625 -1 21.5 -1 
Q 13.203125 -1 7.84375 5.25 
Q 2.5 11.5 2.5 21.203125 
Q 2.5 33.90625 10.90625 40.90625 
Q 17.09375 46 24.40625 46 
Q 30.703125 46 35.25 42.953125 
Q 39.796875 39.90625 39.796875 35.703125 
Q 39.796875 34 38.390625 32.75 
Q 37 31.5 35.09375 31.5 
Q 31.59375 31.5 30.296875 36.09375 
L 29.703125 38.296875 
Q 28.90625 41.09375 27.703125 42.09375 
Q 26.5 43.09375 23.796875 43.09375 
Q 17.703125 43.09375 13.953125 38.296875 
Q 10.203125 33.5 10.203125 25.703125 
Q 10.203125 17.09375 14.5 11.640625 
Q 18.796875 6.203125 25.703125 6.203125 
Q 30 6.203125 33.09375 8.25 
Q 36.203125 10.296875 39.796875 15.59375 
z
" id="STIXGeneral-Regular-99"/>
     </defs>
     <use xlink:href="#STIXGeneral-Regular-87"/>
     <use x="94.399994" xlink:href="#STIXGeneral-Regular-97"/>
     <use x="138.799988" xlink:href="#STIXGeneral-Regular-107"/>
     <use x="188.799973" xlink:href="#STIXGeneral-Regular-101"/>
     <use x="233.199966" xlink:href="#STIXGeneral-Regular-32"/>
     <use x="258.199951" xlink:href="#STIXGeneral-Regular-105"/>
     <use x="285.999939" xlink:href="#STIXGeneral-Regular-110"/>
     <use x="335.999924" xlink:href="#STIXGeneral-Regular-116"/>
     <use x="363.799911" xlink:href="#STIXGeneral-Regular-101"/>
     <use x="408.199905" xlink:href="#STIXGeneral-Regular-114"/>
     <use x="441.499893" xlink:href="#STIXGeneral-Regular-97"/>
     <use x="485.899887" xlink:href="#STIXGeneral-Regular-99"/>
     <use x="530.299881" xlink:href="#STIXGeneral-Regular-116"/>
     <use x="558.099869" xlink:href="#STIXGeneral-Regular-105"/>
     <use x="585.899857" xlink:href="#STIXGeneral-Regular-111"/>
     <use x="635.899841" xlink:href="#STIXGeneral-Regular-110"/>
    </g>
   </g>
   <g id="text_27">
    <!-- $Re = 10^3$ -->
    <g transform="translate(581.901132 33.896174)scale(0.19 -0.19)">
     <use transform="translate(0 0.409375)" xlink:href="#STIXGeneral-Italic-82"/>
     <use transform="translate(61.099991 0.409375)" xlink:href="#STIXGeneral-Italic-101"/>
     <use transform="translate(119.939981 0.409375)" xlink:href="#STIXGeneral-Regular-61"/>
     <use transform="translate(202.879962 0.409375)" xlink:href="#STIXGeneral-Regular-49"/>
     <use transform="translate(252.879947 0.409375)" xlink:href="#STIXGeneral-Regular-48"/>
     <use transform="translate(304.423213 35.684375)scale(0.7)" xlink:href="#STIXGeneral-Regular-51"/>
    </g>
   </g>
  </g>
  <g id="axes_3">
   <g id="patch_12">
    <path d="M 86.4 460.8 
L 412.437736 460.8 
L 412.437736 273.265116 
L 86.4 273.265116 
z
" style="fill:#ffffff;"/>
   </g>
   <g id="matplotlib.axis_5">
    <g id="xtick_11">
     <g id="line2d_43">
      <g>
       <use style="fill:#ffffff;stroke:#000000;stroke-width:0.8;" x="86.4" xlink:href="#ma52c24f348" y="460.8"/>
      </g>
     </g>
     <g id="text_28">
      <!-- 0.0 -->
      <g transform="translate(74.525 480.776406)scale(0.19 -0.19)">
       <use xlink:href="#STIXGeneral-Regular-48"/>
       <use x="49.999985" xlink:href="#STIXGeneral-Regular-46"/>
       <use x="74.999969" xlink:href="#STIXGeneral-Regular-48"/>
      </g>
     </g>
    </g>
    <g id="xtick_12">
     <g id="line2d_44">
      <g>
       <use style="fill:#ffffff;stroke:#000000;stroke-width:0.8;" x="167.909434" xlink:href="#ma52c24f348" y="460.8"/>
      </g>
     </g>
     <g id="text_29">
      <!-- 0.5 -->
      <g transform="translate(156.034434 480.776406)scale(0.19 -0.19)">
       <use xlink:href="#STIXGeneral-Regular-48"/>
       <use x="49.999985" xlink:href="#STIXGeneral-Regular-46"/>
       <use x="74.999969" xlink:href="#STIXGeneral-Regular-53"/>
      </g>
     </g>
    </g>
    <g id="xtick_13">
     <g id="line2d_45">
      <g>
       <use style="fill:#ffffff;stroke:#000000;stroke-width:0.8;" x="249.418868" xlink:href="#ma52c24f348" y="460.8"/>
      </g>
     </g>
     <g id="text_30">
      <!-- 1.0 -->
      <g transform="translate(237.543868 480.776406)scale(0.19 -0.19)">
       <use xlink:href="#STIXGeneral-Regular-49"/>
       <use x="49.999985" xlink:href="#STIXGeneral-Regular-46"/>
       <use x="74.999969" xlink:href="#STIXGeneral-Regular-48"/>
      </g>
     </g>
    </g>
    <g id="xtick_14">
     <g id="line2d_46">
      <g>
       <use style="fill:#ffffff;stroke:#000000;stroke-width:0.8;" x="330.928302" xlink:href="#ma52c24f348" y="460.8"/>
      </g>
     </g>
     <g id="text_31">
      <!-- 1.5 -->
      <g transform="translate(319.053302 480.776406)scale(0.19 -0.19)">
       <use xlink:href="#STIXGeneral-Regular-49"/>
       <use x="49.999985" xlink:href="#STIXGeneral-Regular-46"/>
       <use x="74.999969" xlink:href="#STIXGeneral-Regular-53"/>
      </g>
     </g>
    </g>
    <g id="xtick_15">
     <g id="line2d_47">
      <g>
       <use style="fill:#ffffff;stroke:#000000;stroke-width:0.8;" x="412.437736" xlink:href="#ma52c24f348" y="460.8"/>
      </g>
     </g>
     <g id="text_32">
      <!-- 2.0 -->
      <g transform="translate(400.562736 480.776406)scale(0.19 -0.19)">
       <use xlink:href="#STIXGeneral-Regular-50"/>
       <use x="49.999985" xlink:href="#STIXGeneral-Regular-46"/>
       <use x="74.999969" xlink:href="#STIXGeneral-Regular-48"/>
      </g>
     </g>
    </g>
   </g>
   <g id="matplotlib.axis_6">
    <g id="ytick_7">
     <g id="line2d_48">
      <g>
       <use style="fill:#ffffff;stroke:#000000;stroke-width:0.8;" x="86.4" xlink:href="#m12ca4fca6a" y="455.864871"/>
      </g>
     </g>
     <g id="text_33">
      <!-- 40 -->
      <g transform="translate(47.385 462.353075)scale(0.19 -0.19)">
       <defs>
        <path d="M 62.09375 22 
L 6.40625 22 
L 6.40625 28.59375 
L 62.09375 28.59375 
z
" id="STIXGeneral-Regular-8722"/>
       </defs>
       <use xlink:href="#STIXGeneral-Regular-8722"/>
       <use x="68.499985" xlink:href="#STIXGeneral-Regular-52"/>
       <use x="118.499969" xlink:href="#STIXGeneral-Regular-48"/>
      </g>
     </g>
    </g>
    <g id="ytick_8">
     <g id="line2d_49">
      <g>
       <use style="fill:#ffffff;stroke:#000000;stroke-width:0.8;" x="86.4" xlink:href="#m12ca4fca6a" y="406.513586"/>
      </g>
     </g>
     <g id="text_34">
      <!-- 20 -->
      <g transform="translate(47.385 413.001789)scale(0.19 -0.19)">
       <use xlink:href="#STIXGeneral-Regular-8722"/>
       <use x="68.499985" xlink:href="#STIXGeneral-Regular-50"/>
       <use x="118.499969" xlink:href="#STIXGeneral-Regular-48"/>
      </g>
     </g>
    </g>
    <g id="ytick_9">
     <g id="line2d_50">
      <g>
       <use style="fill:#ffffff;stroke:#000000;stroke-width:0.8;" x="86.4" xlink:href="#m12ca4fca6a" y="357.162301"/>
      </g>
     </g>
     <g id="text_35">
      <!-- 0 -->
      <g transform="translate(69.9 363.650504)scale(0.19 -0.19)">
       <use xlink:href="#STIXGeneral-Regular-48"/>
      </g>
     </g>
    </g>
    <g id="ytick_10">
     <g id="line2d_51">
      <g>
       <use style="fill:#ffffff;stroke:#000000;stroke-width:0.8;" x="86.4" xlink:href="#m12ca4fca6a" y="307.811016"/>
      </g>
     </g>
     <g id="text_36">
      <!-- 20 -->
      <g transform="translate(60.4 314.299219)scale(0.19 -0.19)">
       <use xlink:href="#STIXGeneral-Regular-50"/>
       <use x="49.999985" xlink:href="#STIXGeneral-Regular-48"/>
      </g>
     </g>
    </g>
    <g id="text_37">
     <!-- $C_d$ -->
     <g transform="translate(39.261406 377.197558)rotate(-90)scale(0.19 -0.19)">
      <defs>
       <path d="M 52.09375 68.296875 
L 52.703125 67.703125 
L 48.796875 52.5 
L 42.796875 30.59375 
Q 36.296875 6.703125 36.296875 6 
Q 36.296875 4 38.09375 4 
Q 39.40625 4 40.84375 5.25 
Q 42.296875 6.5 46.296875 11.09375 
L 47.5 10.09375 
Q 39.796875 -1.296875 32.796875 -1.296875 
Q 30.90625 -1.296875 29.796875 -0.09375 
Q 28.703125 1.09375 28.703125 3.203125 
Q 28.703125 6.203125 30 12.09375 
Q 25.703125 4.796875 21.546875 1.84375 
Q 17.40625 -1.09375 12.203125 -1.09375 
Q 7.203125 -1.09375 4.34375 1.953125 
Q 1.5 5 1.5 10.59375 
Q 1.5 22.5 11.140625 33.296875 
Q 20.796875 44.09375 30.703125 44.09375 
Q 33.796875 44.09375 35.25 42.6875 
Q 36.703125 41.296875 37.203125 38.296875 
L 37.296875 38.296875 
L 41.796875 54.59375 
Q 43.203125 59.5 43.203125 61.703125 
Q 43.203125 63.296875 42.09375 63.6875 
Q 41 64.09375 36.796875 64.296875 
L 36.796875 66 
Q 44.5 66.703125 52.09375 68.296875 
z
M 35.59375 36.09375 
Q 35.59375 38.703125 34.140625 40.25 
Q 32.703125 41.796875 30.90625 41.796875 
Q 26.203125 41.796875 21.796875 37.203125 
Q 16.796875 31.90625 13.5 24.546875 
Q 10.203125 17.203125 10.203125 11 
Q 10.203125 7.59375 11.75 5.640625 
Q 13.296875 3.703125 16 3.703125 
Q 20.5 3.703125 25.09375 8.59375 
Q 29.703125 13.5 32.640625 21.09375 
Q 35.59375 28.703125 35.59375 36.09375 
z
" id="STIXGeneral-Italic-100"/>
      </defs>
      <use transform="translate(0 0.40625)" xlink:href="#STIXGeneral-Italic-67"/>
      <use transform="translate(66.699997 -12.821875)scale(0.7)" xlink:href="#STIXGeneral-Italic-100"/>
     </g>
    </g>
   </g>
   <g id="line2d_52">
    <path clip-path="url(#p5c287842ed)" d="M 86.889057 356.867896 
L 87.86717 356.124213 
L 88.356226 355.40554 
L 88.845283 354.327091 
L 89.660377 351.789951 
L 90.638491 348.682394 
L 91.290566 347.262868 
L 91.942642 346.363784 
L 92.757736 345.689185 
L 93.735849 345.1962 
L 95.366038 344.646981 
L 99.604528 343.531348 
L 102.375849 342.811858 
L 106.125283 341.911 
L 106.777358 341.958349 
L 107.266415 342.165835 
L 107.755472 342.615787 
L 108.244528 343.392421 
L 108.896604 345.012423 
L 110.363774 349.158711 
L 111.015849 350.25012 
L 111.667925 350.880342 
L 112.483019 351.291902 
L 113.624151 351.551331 
L 115.906415 351.772318 
L 120.470943 351.978968 
L 128.784906 352.173192 
L 143.94566 352.324402 
L 221.70566 352.34746 
L 222.520755 352.112595 
L 223.335849 351.417862 
L 223.824906 350.555944 
L 224.313962 349.052407 
L 224.803019 346.483801 
L 225.292075 342.318986 
L 225.781132 336.050561 
L 226.433208 324.474768 
L 227.737358 300.039574 
L 228.389434 291.783271 
L 229.041509 286.246804 
L 229.530566 283.721845 
L 229.856604 282.96698 
L 230.019623 282.9219 
L 230.182642 283.116261 
L 230.508679 284.327365 
L 230.834717 286.815049 
L 231.323774 292.78611 
L 232.790943 313.769798 
L 233.443019 319.335959 
L 234.095094 322.78079 
L 234.74717 325.132284 
L 235.888302 328.163577 
L 237.355472 331.994496 
L 238.007547 334.311208 
L 238.496604 336.763599 
L 238.98566 340.305329 
L 239.474717 345.665284 
L 239.963774 353.827376 
L 240.45283 365.599332 
L 241.104906 386.945834 
L 242.409057 431.692522 
L 243.061132 446.147306 
L 243.550189 452.869955 
L 243.876226 455.46735 
L 244.202264 456.495331 
L 244.365283 456.372516 
L 244.528302 455.816295 
L 244.85434 453.272268 
L 245.180377 448.647975 
L 245.669434 437.804597 
L 247.62566 386.791891 
L 248.114717 381.029264 
L 248.603774 377.718429 
L 249.09283 375.923046 
L 249.581887 374.959614 
L 250.070943 374.452981 
L 251.049057 373.939658 
L 253.005283 372.999066 
L 256.102642 370.85327 
L 260.178113 367.522071 
L 262.949434 365.449019 
L 265.231698 363.999819 
L 267.676981 362.706119 
L 269.959245 361.727606 
L 272.730566 360.782021 
L 275.990943 359.942733 
L 279.41434 359.291711 
L 283.326792 358.75076 
L 294.086038 357.909808 
L 311.203019 357.370623 
L 372.172075 356.99685 
L 412.600755 356.984147 
L 412.600755 356.984147 
" style="fill:none;stroke:#1f77b4;stroke-linecap:square;stroke-width:4;"/>
   </g>
   <g id="line2d_53">
    <path clip-path="url(#p5c287842ed)" d="M 86.889057 357.008298 
L 88.030189 356.516549 
L 88.682264 355.896164 
L 89.33434 354.931669 
L 90.964528 352.268196 
L 91.779623 351.508969 
L 92.594717 351.057707 
L 93.898868 350.62364 
L 96.670189 350.003639 
L 101.397736 348.987677 
L 107.103396 347.698022 
L 107.755472 347.868671 
L 108.244528 348.194404 
L 108.896604 348.941868 
L 110.689811 351.237566 
L 111.341887 351.652584 
L 112.156981 351.918531 
L 113.624151 352.11238 
L 116.558491 352.235208 
L 124.383396 352.35887 
L 138.076981 352.440641 
L 179.97283 352.671172 
L 181.276981 352.684035 
L 193.340377 352.897744 
L 215.673962 353.365013 
L 216.815094 353.380947 
L 222.194717 353.421756 
L 223.335849 353.267534 
L 223.987925 353.017357 
L 224.64 352.43327 
L 225.129057 351.660014 
L 225.618113 350.458003 
L 226.270189 348.10777 
L 228.063396 340.739368 
L 228.715472 338.994057 
L 229.367547 337.778146 
L 229.856604 337.296958 
L 230.182642 337.263316 
L 230.508679 337.526854 
L 230.834717 338.143837 
L 231.323774 339.683626 
L 233.116981 346.526906 
L 233.769057 348.020526 
L 234.74717 349.641579 
L 238.333585 355.16478 
L 238.98566 356.817422 
L 239.474717 358.562894 
L 239.963774 361.0141 
L 240.615849 365.726973 
L 241.593962 375.266533 
L 242.409057 382.594665 
L 243.061132 386.643261 
L 243.550189 388.563055 
L 243.876226 389.299885 
L 244.202264 389.590079 
L 244.365283 389.55307 
L 244.691321 389.069641 
L 245.017358 387.98579 
L 245.506415 385.155265 
L 246.158491 379.544817 
L 247.136604 370.947238 
L 247.788679 367.262017 
L 248.277736 365.619622 
L 248.766792 364.646015 
L 249.255849 364.098541 
L 249.907925 363.734992 
L 250.723019 363.555245 
L 252.353208 363.449063 
L 255.124528 363.190791 
L 257.73283 362.748778 
L 261.808302 361.849659 
L 268.981132 360.29293 
L 273.708679 359.494027 
L 278.925283 358.85136 
L 284.956981 358.347073 
L 292.455849 357.959453 
L 303.704151 357.647769 
L 321.14717 357.416526 
L 356.359245 357.208062 
L 410.807547 357.132376 
L 412.600755 357.131968 
L 412.600755 357.131968 
" style="fill:none;stroke:#ff7f0e;stroke-linecap:square;stroke-width:4;"/>
   </g>
   <g id="line2d_54">
    <path clip-path="url(#p5c287842ed)" d="M 86.644528 357.073461 
L 87.622642 356.899308 
L 88.356226 356.573991 
L 89.008302 356.053922 
L 89.904906 355.011848 
L 91.046038 353.762791 
L 91.861132 353.211936 
L 92.920755 352.790273 
L 94.632453 352.387767 
L 101.560755 351.028711 
L 104.821132 350.167842 
L 107.021887 349.652487 
L 107.755472 349.677254 
L 108.570566 350.00661 
L 109.141132 350.448663 
L 110.689811 351.734036 
L 111.504906 352.059718 
L 112.646038 352.260089 
L 114.765283 352.352425 
L 121.612075 352.424561 
L 135.224151 352.4827 
L 146.798491 352.565956 
L 148.021132 352.576468 
L 156.416604 352.735341 
L 171.903396 353.188165 
L 173.289057 353.232305 
L 180.787925 353.461046 
L 193.584906 353.721721 
L 223.906415 353.70844 
L 224.803019 353.429478 
L 225.699623 352.682193 
L 226.351698 351.766189 
L 228.878491 347.764894 
L 229.612075 347.111366 
L 230.101132 346.912469 
L 230.508679 346.969645 
L 230.916226 347.280749 
L 231.405283 347.982823 
L 233.687547 351.895725 
L 234.013585 352.212002 
L 235.888302 353.961627 
L 238.170566 356.174056 
L 239.06717 357.403648 
L 239.800755 358.918569 
L 240.371321 360.641695 
L 241.104906 363.727066 
L 242.653585 370.569034 
L 243.30566 372.347257 
L 243.794717 373.14269 
L 244.202264 373.430402 
L 244.528302 373.382637 
L 244.85434 373.049277 
L 245.261887 372.177022 
L 245.750943 370.454907 
L 246.647547 366.14881 
L 247.462642 362.749252 
L 248.033208 361.228377 
L 248.603774 360.304007 
L 249.17434 359.770106 
L 249.907925 359.400406 
L 251.049057 359.137693 
L 253.820377 358.884978 
L 268.899623 358.130331 
L 278.110189 357.919291 
L 293.596981 357.842239 
L 331.987925 357.598445 
L 383.664906 357.415801 
L 412.519245 357.362964 
L 412.519245 357.362964 
" style="fill:none;stroke:#2ca02c;stroke-linecap:square;stroke-width:4;"/>
   </g>
   <g id="line2d_55">
    <path clip-path="url(#p5c287842ed)" d="M 86.889057 357.080387 
L 88.193208 356.75656 
L 89.008302 356.259704 
L 90.312453 355.047509 
L 91.290566 354.327216 
L 92.268679 353.906814 
L 93.898868 353.513103 
L 103.353962 351.625993 
L 107.103396 350.632593 
L 107.918491 350.63171 
L 108.570566 350.818171 
L 109.38566 351.297283 
L 110.526792 351.955869 
L 111.341887 352.208024 
L 112.646038 352.367129 
L 115.25434 352.44715 
L 117.210566 352.455735 
L 128.947925 352.511783 
L 131.06717 352.520572 
L 146.553962 352.881963 
L 148.510189 352.951781 
L 171.33283 353.735312 
L 172.636981 353.745133 
L 176.386415 353.777934 
L 185.515472 353.824815 
L 202.632453 353.92979 
L 203.773585 353.932831 
L 211.435472 353.95098 
L 224.64 353.630232 
L 225.292075 353.430706 
L 226.10717 353.008621 
L 228.226415 351.459304 
L 229.204528 351.038091 
L 229.856604 350.948513 
L 230.34566 351.060055 
L 230.834717 351.375959 
L 231.486792 352.125505 
L 233.28 354.470724 
L 234.421132 355.470482 
L 238.98566 359.098731 
L 239.800755 360.196115 
L 240.45283 361.478244 
L 241.430943 364.073269 
L 242.409057 366.535874 
L 243.061132 367.636535 
L 243.550189 368.14274 
L 244.039245 368.363098 
L 244.365283 368.329078 
L 244.691321 368.125998 
L 245.180377 367.456461 
L 245.669434 366.322298 
L 247.788679 360.48682 
L 248.440755 359.678166 
L 249.09283 359.210534 
L 250.070943 358.830273 
L 251.701132 358.499182 
L 255.287547 358.064077 
L 260.015094 357.695264 
L 266.861887 357.427144 
L 276.806038 357.302146 
L 312.670189 357.2144 
L 380.649057 357.236383 
L 412.600755 357.248125 
L 412.600755 357.248125 
" style="fill:none;stroke:#d62728;stroke-linecap:square;stroke-width:4;"/>
   </g>
   <g id="line2d_56">
    <path clip-path="url(#p5c287842ed)" d="M 86.4 357.162301 
L 412.437736 357.162301 
" style="fill:none;stroke:#000000;stroke-dasharray:3.2,0.8,0.5,0.8;stroke-dashoffset:0;stroke-width:0.5;"/>
   </g>
   <g id="line2d_57">
    <path clip-path="url(#p5c287842ed)" d="M 249.418868 460.8 
L 249.418868 273.265116 
" style="fill:none;stroke:#000000;stroke-linecap:square;stroke-width:0.5;"/>
   </g>
   <g id="line2d_58">
    <path clip-path="url(#p5c287842ed)" d="M 265.720755 460.8 
L 265.720755 273.265116 
" style="fill:none;stroke:#000000;stroke-dasharray:3.2,0.8,0.5,0.8;stroke-dashoffset:0;stroke-opacity:0.25;stroke-width:0.5;"/>
   </g>
   <g id="line2d_59">
    <path clip-path="url(#p5c287842ed)" d="M 282.022642 460.8 
L 282.022642 273.265116 
" style="fill:none;stroke:#000000;stroke-dasharray:3.2,0.8,0.5,0.8;stroke-dashoffset:0;stroke-opacity:0.25;stroke-width:0.5;"/>
   </g>
   <g id="line2d_60">
    <path clip-path="url(#p5c287842ed)" d="M 314.626415 460.8 
L 314.626415 273.265116 
" style="fill:none;stroke:#000000;stroke-dasharray:3.2,0.8,0.5,0.8;stroke-dashoffset:0;stroke-opacity:0.25;stroke-width:0.5;"/>
   </g>
   <g id="patch_13">
    <path d="M 86.4 460.8 
L 86.4 273.265116 
" style="fill:none;stroke:#000000;stroke-linecap:square;stroke-linejoin:miter;stroke-width:0.8;"/>
   </g>
   <g id="patch_14">
    <path d="M 412.437736 460.8 
L 412.437736 273.265116 
" style="fill:none;stroke:#000000;stroke-linecap:square;stroke-linejoin:miter;stroke-width:0.8;"/>
   </g>
   <g id="patch_15">
    <path d="M 86.4 460.8 
L 412.437736 460.8 
" style="fill:none;stroke:#000000;stroke-linecap:square;stroke-linejoin:miter;stroke-width:0.8;"/>
   </g>
   <g id="patch_16">
    <path d="M 86.4 273.265116 
L 412.437736 273.265116 
" style="fill:none;stroke:#000000;stroke-linecap:square;stroke-linejoin:miter;stroke-width:0.8;"/>
   </g>
  </g>
  <g id="axes_4">
   <g id="patch_17">
    <path d="M 451.562264 460.8 
L 777.6 460.8 
L 777.6 273.265116 
L 451.562264 273.265116 
z
" style="fill:#ffffff;"/>
   </g>
   <g id="matplotlib.axis_7">
    <g id="xtick_16">
     <g id="line2d_61">
      <g>
       <use style="fill:#ffffff;stroke:#000000;stroke-width:0.8;" x="451.562264" xlink:href="#ma52c24f348" y="460.8"/>
      </g>
     </g>
     <g id="text_38">
      <!-- 0.0 -->
      <g transform="translate(439.687264 480.776406)scale(0.19 -0.19)">
       <use xlink:href="#STIXGeneral-Regular-48"/>
       <use x="49.999985" xlink:href="#STIXGeneral-Regular-46"/>
       <use x="74.999969" xlink:href="#STIXGeneral-Regular-48"/>
      </g>
     </g>
    </g>
    <g id="xtick_17">
     <g id="line2d_62">
      <g>
       <use style="fill:#ffffff;stroke:#000000;stroke-width:0.8;" x="533.071698" xlink:href="#ma52c24f348" y="460.8"/>
      </g>
     </g>
     <g id="text_39">
      <!-- 0.5 -->
      <g transform="translate(521.196698 480.776406)scale(0.19 -0.19)">
       <use xlink:href="#STIXGeneral-Regular-48"/>
       <use x="49.999985" xlink:href="#STIXGeneral-Regular-46"/>
       <use x="74.999969" xlink:href="#STIXGeneral-Regular-53"/>
      </g>
     </g>
    </g>
    <g id="xtick_18">
     <g id="line2d_63">
      <g>
       <use style="fill:#ffffff;stroke:#000000;stroke-width:0.8;" x="614.581132" xlink:href="#ma52c24f348" y="460.8"/>
      </g>
     </g>
     <g id="text_40">
      <!-- 1.0 -->
      <g transform="translate(602.706132 480.776406)scale(0.19 -0.19)">
       <use xlink:href="#STIXGeneral-Regular-49"/>
       <use x="49.999985" xlink:href="#STIXGeneral-Regular-46"/>
       <use x="74.999969" xlink:href="#STIXGeneral-Regular-48"/>
      </g>
     </g>
    </g>
    <g id="xtick_19">
     <g id="line2d_64">
      <g>
       <use style="fill:#ffffff;stroke:#000000;stroke-width:0.8;" x="696.090566" xlink:href="#ma52c24f348" y="460.8"/>
      </g>
     </g>
     <g id="text_41">
      <!-- 1.5 -->
      <g transform="translate(684.215566 480.776406)scale(0.19 -0.19)">
       <use xlink:href="#STIXGeneral-Regular-49"/>
       <use x="49.999985" xlink:href="#STIXGeneral-Regular-46"/>
       <use x="74.999969" xlink:href="#STIXGeneral-Regular-53"/>
      </g>
     </g>
    </g>
    <g id="xtick_20">
     <g id="line2d_65">
      <g>
       <use style="fill:#ffffff;stroke:#000000;stroke-width:0.8;" x="777.6" xlink:href="#ma52c24f348" y="460.8"/>
      </g>
     </g>
     <g id="text_42">
      <!-- 2.0 -->
      <g transform="translate(765.725 480.776406)scale(0.19 -0.19)">
       <use xlink:href="#STIXGeneral-Regular-50"/>
       <use x="49.999985" xlink:href="#STIXGeneral-Regular-46"/>
       <use x="74.999969" xlink:href="#STIXGeneral-Regular-48"/>
      </g>
     </g>
    </g>
    <g id="text_43">
     <!-- $\^t$ -->
     <g transform="translate(611.921132 501.876406)scale(0.19 -0.19)">
      <use transform="translate(39.042969 16.59375)" xlink:href="#STIXGeneral-Regular-770"/>
      <use transform="translate(0 0.203125)" xlink:href="#STIXGeneral-Italic-116"/>
     </g>
    </g>
   </g>
   <g id="matplotlib.axis_8">
    <g id="ytick_11">
     <g id="line2d_66">
      <g>
       <use style="fill:#ffffff;stroke:#000000;stroke-width:0.8;" x="451.562264" xlink:href="#m12ca4fca6a" y="455.864871"/>
      </g>
     </g>
     <g id="text_44">
      <!-- 40 -->
      <g transform="translate(412.547264 462.353075)scale(0.19 -0.19)">
       <use xlink:href="#STIXGeneral-Regular-8722"/>
       <use x="68.499985" xlink:href="#STIXGeneral-Regular-52"/>
       <use x="118.499969" xlink:href="#STIXGeneral-Regular-48"/>
      </g>
     </g>
    </g>
    <g id="ytick_12">
     <g id="line2d_67">
      <g>
       <use style="fill:#ffffff;stroke:#000000;stroke-width:0.8;" x="451.562264" xlink:href="#m12ca4fca6a" y="406.513586"/>
      </g>
     </g>
     <g id="text_45">
      <!-- 20 -->
      <g transform="translate(412.547264 413.001789)scale(0.19 -0.19)">
       <use xlink:href="#STIXGeneral-Regular-8722"/>
       <use x="68.499985" xlink:href="#STIXGeneral-Regular-50"/>
       <use x="118.499969" xlink:href="#STIXGeneral-Regular-48"/>
      </g>
     </g>
    </g>
    <g id="ytick_13">
     <g id="line2d_68">
      <g>
       <use style="fill:#ffffff;stroke:#000000;stroke-width:0.8;" x="451.562264" xlink:href="#m12ca4fca6a" y="357.162301"/>
      </g>
     </g>
     <g id="text_46">
      <!-- 0 -->
      <g transform="translate(435.062264 363.650504)scale(0.19 -0.19)">
       <use xlink:href="#STIXGeneral-Regular-48"/>
      </g>
     </g>
    </g>
    <g id="ytick_14">
     <g id="line2d_69">
      <g>
       <use style="fill:#ffffff;stroke:#000000;stroke-width:0.8;" x="451.562264" xlink:href="#m12ca4fca6a" y="307.811016"/>
      </g>
     </g>
     <g id="text_47">
      <!-- 20 -->
      <g transform="translate(425.562264 314.299219)scale(0.19 -0.19)">
       <use xlink:href="#STIXGeneral-Regular-50"/>
       <use x="49.999985" xlink:href="#STIXGeneral-Regular-48"/>
      </g>
     </g>
    </g>
    <g id="text_48">
     <!-- $C_d$ -->
     <g transform="translate(404.42367 377.197558)rotate(-90)scale(0.19 -0.19)">
      <use transform="translate(0 0.40625)" xlink:href="#STIXGeneral-Italic-67"/>
      <use transform="translate(66.699997 -12.821875)scale(0.7)" xlink:href="#STIXGeneral-Italic-100"/>
     </g>
    </g>
   </g>
   <g id="line2d_70">
    <path clip-path="url(#pb110b75a17)" d="M 452.051321 356.891421 
L 453.192453 356.004884 
L 453.681509 355.232593 
L 454.333585 353.674314 
L 456.126792 348.770722 
L 456.778868 347.846043 
L 457.430943 347.31829 
L 458.246038 346.95944 
L 459.550189 346.66778 
L 465.907925 345.528945 
L 468.516226 344.728894 
L 471.613585 343.758814 
L 472.26566 343.826171 
L 472.754717 344.089696 
L 473.243774 344.660246 
L 473.73283 345.572923 
L 474.547925 347.697108 
L 475.363019 349.715114 
L 476.015094 350.761149 
L 476.66717 351.341302 
L 477.319245 351.640602 
L 478.460377 351.871236 
L 480.742642 352.023072 
L 487.426415 352.126668 
L 502.261132 352.181196 
L 585.400755 352.100663 
L 587.193962 351.912634 
L 587.846038 351.642696 
L 588.335094 351.282715 
L 588.824151 350.608351 
L 589.313208 349.414088 
L 589.802264 347.361886 
L 590.291321 343.955792 
L 590.780377 338.676698 
L 591.432453 328.439789 
L 593.062642 299.741776 
L 593.714717 292.212776 
L 594.69283 283.541777 
L 595.181887 280.464943 
L 595.507925 279.318234 
L 595.670943 279.127147 
L 595.833962 279.40889 
L 595.996981 280.061921 
L 596.323019 282.752916 
L 596.812075 289.276568 
L 597.953208 306.191229 
L 598.605283 312.629016 
L 599.257358 316.825619 
L 599.746415 319.138513 
L 600.398491 321.67701 
L 603.169811 331.097561 
L 603.821887 334.822395 
L 604.310943 338.953698 
L 604.8 345.183671 
L 605.289057 354.405208 
L 605.941132 372.374796 
L 607.897358 433.956538 
L 608.386415 442.379026 
L 608.875472 447.582405 
L 609.201509 449.430888 
L 609.364528 449.854962 
L 609.527547 449.887456 
L 609.690566 449.564924 
L 610.016604 447.679971 
L 610.342642 444.286984 
L 610.831698 435.568682 
L 611.646792 415.595618 
L 612.461887 396.96481 
L 613.113962 387.550887 
L 613.603019 383.566627 
L 614.092075 381.419474 
L 614.744151 379.807807 
L 615.396226 378.690819 
L 616.048302 378.035391 
L 618.167547 376.732581 
L 620.123774 374.925696 
L 626.970566 366.342359 
L 627.622642 365.656527 
L 628.437736 364.836851 
L 629.25283 364.100251 
L 630.72 362.90835 
L 631.372075 362.416415 
L 632.18717 361.871078 
L 634.795472 360.419752 
L 635.610566 360.099794 
L 636.262642 359.821128 
L 637.077736 359.521155 
L 638.870943 358.991508 
L 640.501132 358.592449 
L 647.184906 357.778418 
L 647.836981 357.786032 
L 648.978113 357.652632 
L 649.46717 357.710008 
L 649.956226 357.711358 
L 650.771321 357.638463 
L 652.075472 357.642235 
L 652.727547 357.619237 
L 655.661887 357.57951 
L 656.803019 357.60545 
L 660.063396 357.507985 
L 661.367547 357.512082 
L 664.464906 357.403194 
L 665.769057 357.407899 
L 671.148679 357.32369 
L 696.579623 357.410028 
L 709.458113 357.301018 
L 729.183396 357.11342 
L 747.278491 356.946279 
L 760.483019 356.863522 
L 777.763019 356.812515 
L 777.763019 356.812515 
" style="fill:none;stroke:#1f77b4;stroke-linecap:square;stroke-width:4;"/>
   </g>
   <g id="line2d_71">
    <path clip-path="url(#pb110b75a17)" d="M 452.051321 357.02433 
L 453.192453 356.575289 
L 453.844528 356.014255 
L 454.659623 354.89946 
L 455.963774 353.041522 
L 456.615849 352.489567 
L 457.430943 352.104803 
L 458.572075 351.845306 
L 465.255849 350.717242 
L 468.02717 349.864213 
L 472.102642 348.564662 
L 472.754717 348.592361 
L 473.243774 348.778815 
L 473.895849 349.309552 
L 476.015094 351.486058 
L 476.830189 351.798143 
L 478.460377 352.007939 
L 482.37283 352.146739 
L 484.655094 352.181281 
L 498.18566 352.195911 
L 548.884528 352.24922 
L 577.086792 353.074417 
L 588.172075 353.487059 
L 588.98717 353.287851 
L 589.639245 352.86893 
L 590.128302 352.272327 
L 590.617358 351.308554 
L 591.106415 349.883117 
L 591.921509 346.655276 
L 593.062642 342.141957 
L 594.203774 338.623702 
L 595.018868 336.553724 
L 595.507925 335.918395 
L 595.833962 335.952121 
L 596.16 336.389079 
L 596.649057 337.757456 
L 598.768302 345.119452 
L 599.746415 347.138098 
L 601.702642 350.263032 
L 603.006792 352.439494 
L 603.821887 354.224399 
L 604.473962 356.256451 
L 604.963019 358.420895 
L 605.615094 362.612121 
L 606.430189 369.952728 
L 607.571321 380.132716 
L 608.223396 383.95429 
L 608.712453 385.775969 
L 609.201509 386.720192 
L 609.527547 386.829346 
L 609.853585 386.463206 
L 610.179623 385.583595 
L 610.668679 383.306141 
L 611.483774 377.733578 
L 612.298868 372.492832 
L 612.787925 370.42399 
L 613.276981 369.125034 
L 613.766038 368.430668 
L 614.255094 368.137793 
L 614.90717 368.078655 
L 617.189434 368.195816 
L 618.656604 367.985247 
L 619.797736 367.567093 
L 620.938868 366.916949 
L 622.08 366.087919 
L 627.459623 361.783233 
L 629.578868 360.535475 
L 631.209057 359.771443 
L 633.328302 359.039113 
L 636.42566 358.365487 
L 639.196981 358.037024 
L 651.260377 357.739613 
L 657.781132 357.914242 
L 672.778868 358.651352 
L 679.788679 358.508804 
L 691.363019 358.154384 
L 713.044528 357.691541 
L 731.628679 357.459401 
L 753.14717 357.349671 
L 777.763019 357.287861 
L 777.763019 357.287861 
" style="fill:none;stroke:#ff7f0e;stroke-linecap:square;stroke-width:4;"/>
   </g>
   <g id="line2d_72">
    <path clip-path="url(#pb110b75a17)" d="M 451.806792 357.086363 
L 452.947925 356.8813 
L 453.681509 356.545392 
L 454.415094 355.959825 
L 456.45283 354.127526 
L 457.349434 353.778563 
L 458.735094 353.532527 
L 463.62566 352.820036 
L 466.152453 352.161889 
L 469.49434 351.048047 
L 472.34717 350.131271 
L 473.162264 350.125848 
L 473.81434 350.348904 
L 474.629434 350.891991 
L 475.770566 351.620682 
L 476.66717 351.909269 
L 478.05283 352.074652 
L 481.394717 352.186876 
L 489.138113 352.219986 
L 502.668679 352.158503 
L 516.117736 352.184256 
L 523.372075 352.318349 
L 530.300377 352.556386 
L 543.586415 353.326601 
L 546.846792 353.575735 
L 554.834717 354.162292 
L 557.932075 354.19348 
L 561.436981 353.989801 
L 577.331321 352.517935 
L 582.303396 352.43359 
L 589.231698 352.381946 
L 590.046792 352.105564 
L 590.698868 351.61551 
L 591.350943 350.781576 
L 592.247547 349.154668 
L 594.69283 344.481495 
L 595.344906 343.613181 
L 595.752453 343.345296 
L 596.16 343.363781 
L 596.567547 343.678782 
L 597.138113 344.492673 
L 599.175849 347.733514 
L 600.48 349.256741 
L 604.473962 353.683188 
L 605.126038 355.037935 
L 605.696604 356.734701 
L 606.511698 359.973492 
L 607.65283 364.422951 
L 608.304906 366.06864 
L 608.793962 366.805953 
L 609.201509 367.097518 
L 609.527547 367.099834 
L 609.853585 366.867671 
L 610.261132 366.19935 
L 610.750189 364.79881 
L 611.483774 361.770687 
L 612.380377 358.205398 
L 612.950943 356.775307 
L 613.44 356.076006 
L 613.929057 355.71202 
L 614.581132 355.509086 
L 616.048302 355.401312 
L 617.923019 355.475814 
L 619.634717 355.799089 
L 622.161509 356.601488 
L 631.616604 359.754239 
L 634.550943 360.308925 
L 636.996226 360.549804 
L 639.441509 360.557799 
L 643.027925 360.326576 
L 650.119245 359.598687 
L 657.129057 358.950067 
L 662.101132 358.717825 
L 668.458868 358.670939 
L 684.923774 358.594044 
L 704.893585 358.264125 
L 736.111698 357.704151 
L 766.677736 357.461254 
L 777.681509 357.417043 
L 777.681509 357.417043 
" style="fill:none;stroke:#2ca02c;stroke-linecap:square;stroke-width:4;"/>
   </g>
   <g id="line2d_73">
    <path clip-path="url(#pb110b75a17)" d="M 452.051321 357.091732 
L 453.518491 356.739158 
L 454.333585 356.258096 
L 456.289811 354.880763 
L 457.267925 354.572256 
L 458.898113 354.340484 
L 462.647547 353.831082 
L 465.418868 353.189893 
L 468.679245 352.191623 
L 472.754717 350.878068 
L 473.569811 350.91881 
L 474.384906 351.227056 
L 475.852075 351.843025 
L 476.993208 352.036218 
L 479.438491 352.161418 
L 485.470189 352.193569 
L 505.521509 352.191499 
L 512.042264 352.388885 
L 518.726038 352.791721 
L 521.008302 352.96548 
L 527.366038 353.57437 
L 533.723774 354.185157 
L 537.473208 354.058792 
L 540.896604 353.601547 
L 547.580377 352.679807 
L 554.590189 352.416813 
L 559.317736 352.571258 
L 570.729057 353.170894 
L 576.760755 352.649546 
L 585.400755 351.563171 
L 589.965283 351.080265 
L 591.269434 350.492126 
L 593.714717 348.802121 
L 594.855849 348.303138 
L 595.507925 348.242333 
L 595.996981 348.412196 
L 596.649057 348.968085 
L 599.09434 351.578558 
L 603.821887 355.588283 
L 604.8 356.752288 
L 605.452075 357.842891 
L 606.26717 359.669267 
L 607.408302 362.232764 
L 608.060377 363.180685 
L 608.712453 363.693794 
L 609.201509 363.809442 
L 609.690566 363.682918 
L 610.179623 363.277985 
L 610.668679 362.539998 
L 611.320755 361.094103 
L 612.461887 358.441004 
L 613.113962 357.473077 
L 613.766038 356.914476 
L 614.581132 356.556055 
L 615.722264 356.339743 
L 618.004528 356.192765 
L 626.481509 356.061297 
L 633.165283 356.172845 
L 640.175094 356.364317 
L 650.119245 356.572424 
L 658.433208 356.342527 
L 671.311698 355.972714 
L 686.146415 355.573844 
L 694.13434 355.06021 
L 702.122264 354.583322 
L 707.338868 354.520749 
L 713.044528 354.710956 
L 719.239245 355.120008 
L 734.073962 356.266396 
L 743.203019 356.74561 
L 763.906415 357.755617 
L 777.763019 358.142448 
L 777.763019 358.142448 
" style="fill:none;stroke:#d62728;stroke-linecap:square;stroke-width:4;"/>
   </g>
   <g id="line2d_74">
    <path clip-path="url(#pb110b75a17)" d="M 451.562264 357.162301 
L 777.6 357.162301 
" style="fill:none;stroke:#000000;stroke-dasharray:3.2,0.8,0.5,0.8;stroke-dashoffset:0;stroke-width:0.5;"/>
   </g>
   <g id="line2d_75">
    <path clip-path="url(#pb110b75a17)" d="M 614.581132 460.8 
L 614.581132 273.265116 
" style="fill:none;stroke:#000000;stroke-linecap:square;stroke-width:0.5;"/>
   </g>
   <g id="line2d_76">
    <path clip-path="url(#pb110b75a17)" d="M 630.883019 460.8 
L 630.883019 273.265116 
" style="fill:none;stroke:#000000;stroke-dasharray:3.2,0.8,0.5,0.8;stroke-dashoffset:0;stroke-opacity:0.25;stroke-width:0.5;"/>
   </g>
   <g id="line2d_77">
    <path clip-path="url(#pb110b75a17)" d="M 647.184906 460.8 
L 647.184906 273.265116 
" style="fill:none;stroke:#000000;stroke-dasharray:3.2,0.8,0.5,0.8;stroke-dashoffset:0;stroke-opacity:0.25;stroke-width:0.5;"/>
   </g>
   <g id="line2d_78">
    <path clip-path="url(#pb110b75a17)" d="M 679.788679 460.8 
L 679.788679 273.265116 
" style="fill:none;stroke:#000000;stroke-dasharray:3.2,0.8,0.5,0.8;stroke-dashoffset:0;stroke-opacity:0.25;stroke-width:0.5;"/>
   </g>
   <g id="patch_18">
    <path d="M 451.562264 460.8 
L 451.562264 273.265116 
" style="fill:none;stroke:#000000;stroke-linecap:square;stroke-linejoin:miter;stroke-width:0.8;"/>
   </g>
   <g id="patch_19">
    <path d="M 777.6 460.8 
L 777.6 273.265116 
" style="fill:none;stroke:#000000;stroke-linecap:square;stroke-linejoin:miter;stroke-width:0.8;"/>
   </g>
   <g id="patch_20">
    <path d="M 451.562264 460.8 
L 777.6 460.8 
" style="fill:none;stroke:#000000;stroke-linecap:square;stroke-linejoin:miter;stroke-width:0.8;"/>
   </g>
   <g id="patch_21">
    <path d="M 451.562264 273.265116 
L 777.6 273.265116 
" style="fill:none;stroke:#000000;stroke-linecap:square;stroke-linejoin:miter;stroke-width:0.8;"/>
   </g>
   <g id="text_49">
    <!-- Stroke motion -->
    <g transform="translate(487.121626 455.849662)scale(0.19 -0.19)">
     <use xlink:href="#STIXGeneral-Regular-83"/>
     <use x="55.599991" xlink:href="#STIXGeneral-Regular-116"/>
     <use x="83.399979" xlink:href="#STIXGeneral-Regular-114"/>
     <use x="116.699966" xlink:href="#STIXGeneral-Regular-111"/>
     <use x="166.699951" xlink:href="#STIXGeneral-Regular-107"/>
     <use x="216.699936" xlink:href="#STIXGeneral-Regular-101"/>
     <use x="261.09993" xlink:href="#STIXGeneral-Regular-32"/>
     <use x="286.099915" xlink:href="#STIXGeneral-Regular-109"/>
     <use x="363.899902" xlink:href="#STIXGeneral-Regular-111"/>
     <use x="413.899887" xlink:href="#STIXGeneral-Regular-116"/>
     <use x="441.699875" xlink:href="#STIXGeneral-Regular-105"/>
     <use x="469.499863" xlink:href="#STIXGeneral-Regular-111"/>
     <use x="519.499847" xlink:href="#STIXGeneral-Regular-110"/>
    </g>
   </g>
   <g id="text_50">
    <!-- Wake interaction -->
    <g transform="translate(639.078931 455.849662)scale(0.19 -0.19)">
     <use xlink:href="#STIXGeneral-Regular-87"/>
     <use x="94.399994" xlink:href="#STIXGeneral-Regular-97"/>
     <use x="138.799988" xlink:href="#STIXGeneral-Regular-107"/>
     <use x="188.799973" xlink:href="#STIXGeneral-Regular-101"/>
     <use x="233.199966" xlink:href="#STIXGeneral-Regular-32"/>
     <use x="258.199951" xlink:href="#STIXGeneral-Regular-105"/>
     <use x="285.999939" xlink:href="#STIXGeneral-Regular-110"/>
     <use x="335.999924" xlink:href="#STIXGeneral-Regular-116"/>
     <use x="363.799911" xlink:href="#STIXGeneral-Regular-101"/>
     <use x="408.199905" xlink:href="#STIXGeneral-Regular-114"/>
     <use x="441.499893" xlink:href="#STIXGeneral-Regular-97"/>
     <use x="485.899887" xlink:href="#STIXGeneral-Regular-99"/>
     <use x="530.299881" xlink:href="#STIXGeneral-Regular-116"/>
     <use x="558.099869" xlink:href="#STIXGeneral-Regular-105"/>
     <use x="585.899857" xlink:href="#STIXGeneral-Regular-111"/>
     <use x="635.899841" xlink:href="#STIXGeneral-Regular-110"/>
    </g>
   </g>
  </g>
 </g>
 <defs>
  <clipPath id="p0f716b835b">
   <rect height="187.534884" width="326.037736" x="86.4" y="57.6"/>
  </clipPath>
  <clipPath id="p33d22c45c6">
   <rect height="187.534884" width="326.037736" x="451.562264" y="57.6"/>
  </clipPath>
  <clipPath id="p5c287842ed">
   <rect height="187.534884" width="326.037736" x="86.4" y="273.265116"/>
  </clipPath>
  <clipPath id="pb110b75a17">
   <rect height="187.534884" width="326.037736" x="451.562264" y="273.265116"/>
  </clipPath>
 </defs>
</svg>
