<?xml version="1.0" encoding="utf-8" standalone="no"?>
<!DOCTYPE svg PUBLIC "-//W3C//DTD SVG 1.1//EN"
  "http://www.w3.org/Graphics/SVG/1.1/DTD/svg11.dtd">
<!-- Created with matplotlib (https://matplotlib.org/) -->
<svg height="432pt" version="1.1" viewBox="0 0 1008 432" width="1008pt" xmlns="http://www.w3.org/2000/svg" xmlns:xlink="http://www.w3.org/1999/xlink">
 <metadata>
  <rdf:RDF xmlns:cc="http://creativecommons.org/ns#" xmlns:dc="http://purl.org/dc/elements/1.1/" xmlns:rdf="http://www.w3.org/1999/02/22-rdf-syntax-ns#">
   <cc:Work>
    <dc:type rdf:resource="http://purl.org/dc/dcmitype/StillImage"/>
    <dc:date>2022-01-13T10:31:05.978373</dc:date>
    <dc:format>image/svg+xml</dc:format>
    <dc:creator>
     <cc:Agent>
      <dc:title>Matplotlib v3.3.4, https://matplotlib.org/</dc:title>
     </cc:Agent>
    </dc:creator>
   </cc:Work>
  </rdf:RDF>
 </metadata>
 <defs>
  <style type="text/css">*{stroke-linecap:butt;stroke-linejoin:round;}</style>
 </defs>
 <g id="figure_1">
  <g id="patch_1">
   <path d="M 0 432 
L 1008 432 
L 1008 0 
L 0 0 
z
" style="fill:#ffffff;"/>
  </g>
  <g id="axes_1">
   <g id="patch_2">
    <path d="M 126 345.6 
L 481.090909 345.6 
L 481.090909 86.4 
L 126 86.4 
z
" style="fill:#ffffff;"/>
   </g>
   <g id="matplotlib.axis_1">
    <g id="xtick_1">
     <g id="line2d_1">
      <defs>
       <path d="M 0 0 
L 0 3.5 
" id="mf0dd7904be" style="stroke:#000000;stroke-width:0.8;"/>
      </defs>
      <g>
       <use style="fill:#ffffff;stroke:#000000;stroke-width:0.8;" x="126" xlink:href="#mf0dd7904be" y="345.6"/>
      </g>
     </g>
     <g id="text_1">
      <!-- 4.00 -->
      <g transform="translate(105 368.99125)scale(0.24 -0.24)">
       <defs>
        <path d="M 47.296875 16.703125 
L 37 16.703125 
L 37 0 
L 29.203125 0 
L 29.203125 16.703125 
L 1.203125 16.703125 
L 1.203125 23.09375 
L 32.59375 67.59375 
L 37 67.59375 
L 37 23.09375 
L 47.296875 23.09375 
z
M 29.203125 23.09375 
L 29.203125 57.40625 
L 5.203125 23.09375 
z
" id="STIXGeneral-Regular-52"/>
        <path d="M 18.09375 4.296875 
Q 18.09375 2.09375 16.4375 0.5 
Q 14.796875 -1.09375 12.5 -1.09375 
Q 10.203125 -1.09375 8.59375 0.5 
Q 7 2.09375 7 4.390625 
Q 7 6.703125 8.640625 8.34375 
Q 10.296875 10 12.59375 10 
Q 14.796875 10 16.4375 8.296875 
Q 18.09375 6.59375 18.09375 4.296875 
z
" id="STIXGeneral-Regular-46"/>
        <path d="M 47.59375 33 
Q 47.59375 26.296875 46.296875 20.34375 
Q 45 14.40625 42.453125 9.40625 
Q 39.90625 4.40625 35.40625 1.5 
Q 30.90625 -1.40625 25 -1.40625 
Q 18.90625 -1.40625 14.296875 1.6875 
Q 9.703125 4.796875 7.203125 10 
Q 4.703125 15.203125 3.546875 21.09375 
Q 2.40625 27 2.40625 33.59375 
Q 2.40625 42.90625 4.703125 50.34375 
Q 7 57.796875 12.34375 62.6875 
Q 17.703125 67.59375 25.40625 67.59375 
Q 35.203125 67.59375 41.390625 58 
Q 47.59375 48.40625 47.59375 33 
z
M 38 32.5 
Q 38 48.296875 34.640625 56.640625 
Q 31.296875 65 24.796875 65 
Q 18.59375 65 15.296875 56.59375 
Q 12 48.203125 12 32.90625 
Q 12 17.5 15.296875 9.34375 
Q 18.59375 1.203125 25 1.203125 
Q 31.296875 1.203125 34.640625 9.34375 
Q 38 17.5 38 32.5 
z
" id="STIXGeneral-Regular-48"/>
       </defs>
       <use xlink:href="#STIXGeneral-Regular-52"/>
       <use x="49.999985" xlink:href="#STIXGeneral-Regular-46"/>
       <use x="74.999969" xlink:href="#STIXGeneral-Regular-48"/>
       <use x="124.999954" xlink:href="#STIXGeneral-Regular-48"/>
      </g>
     </g>
    </g>
    <g id="xtick_2">
     <g id="line2d_2">
      <g>
       <use style="fill:#ffffff;stroke:#000000;stroke-width:0.8;" x="214.772727" xlink:href="#mf0dd7904be" y="345.6"/>
      </g>
     </g>
     <g id="text_2">
      <!-- 4.25 -->
      <g transform="translate(193.772727 368.99125)scale(0.24 -0.24)">
       <defs>
        <path d="M 47.40625 13.703125 
L 42 0 
L 2.90625 0 
L 2.90625 1.203125 
L 20.703125 20.09375 
Q 27.703125 27.40625 30.703125 33.5 
Q 33.703125 39.59375 33.703125 46.09375 
Q 33.703125 52.796875 30 56.5 
Q 26.296875 60.203125 19.796875 60.203125 
Q 14.40625 60.203125 11.25 57.390625 
Q 8.09375 54.59375 5.09375 47.203125 
L 3 47.703125 
Q 4.703125 57 9.84375 62.296875 
Q 15 67.59375 23.796875 67.59375 
Q 32.09375 67.59375 37.1875 62.59375 
Q 42.296875 57.59375 42.296875 50 
Q 42.296875 38.703125 29.5 25.203125 
L 13 7.59375 
L 36.40625 7.59375 
Q 39.703125 7.59375 41.640625 8.890625 
Q 43.59375 10.203125 46 14.296875 
z
" id="STIXGeneral-Regular-50"/>
        <path d="M 43.796875 68.09375 
L 40.203125 59.59375 
Q 39.59375 58.296875 37.5 58.296875 
L 18.09375 58.296875 
L 14.09375 49.796875 
Q 25.09375 47.703125 30 45.25 
Q 34.90625 42.796875 39.09375 37 
Q 42.59375 32.203125 42.59375 24.296875 
Q 42.59375 17.09375 40.25 12.1875 
Q 37.90625 7.296875 32.796875 3.5 
Q 26 -1.40625 15.796875 -1.40625 
Q 10.09375 -1.40625 6.59375 0.296875 
Q 3.09375 2 3.09375 4.796875 
Q 3.09375 8.59375 7.59375 8.59375 
Q 11.203125 8.59375 15 5.5 
Q 18.90625 2.296875 22.09375 2.296875 
Q 27.296875 2.296875 31.4375 7.5 
Q 35.59375 12.703125 35.59375 19.203125 
Q 35.59375 28.796875 28.90625 34.203125 
Q 20.203125 41.203125 7.59375 41.203125 
Q 6.40625 41.203125 6.40625 42 
L 6.5 42.5 
L 17.40625 66.203125 
L 38.09375 66.203125 
Q 39.796875 66.203125 40.75 66.703125 
Q 41.703125 67.203125 42.90625 68.796875 
z
" id="STIXGeneral-Regular-53"/>
       </defs>
       <use xlink:href="#STIXGeneral-Regular-52"/>
       <use x="49.999985" xlink:href="#STIXGeneral-Regular-46"/>
       <use x="74.999969" xlink:href="#STIXGeneral-Regular-50"/>
       <use x="124.999954" xlink:href="#STIXGeneral-Regular-53"/>
      </g>
     </g>
    </g>
    <g id="xtick_3">
     <g id="line2d_3">
      <g>
       <use style="fill:#ffffff;stroke:#000000;stroke-width:0.8;" x="303.545455" xlink:href="#mf0dd7904be" y="345.6"/>
      </g>
     </g>
     <g id="text_3">
      <!-- 4.50 -->
      <g transform="translate(282.545455 368.99125)scale(0.24 -0.24)">
       <use xlink:href="#STIXGeneral-Regular-52"/>
       <use x="49.999985" xlink:href="#STIXGeneral-Regular-46"/>
       <use x="74.999969" xlink:href="#STIXGeneral-Regular-53"/>
       <use x="124.999954" xlink:href="#STIXGeneral-Regular-48"/>
      </g>
     </g>
    </g>
    <g id="xtick_4">
     <g id="line2d_4">
      <g>
       <use style="fill:#ffffff;stroke:#000000;stroke-width:0.8;" x="392.318182" xlink:href="#mf0dd7904be" y="345.6"/>
      </g>
     </g>
     <g id="text_4">
      <!-- 4.75 -->
      <g transform="translate(371.318182 368.99125)scale(0.24 -0.24)">
       <defs>
        <path d="M 44.90625 64.59375 
L 23.703125 -0.796875 
L 17.203125 -0.796875 
L 37 58.796875 
L 15.5 58.796875 
Q 11.203125 58.796875 9.09375 57.296875 
Q 7 55.796875 3.796875 50.59375 
L 2 51.5 
L 8 66.203125 
L 44.90625 66.203125 
z
" id="STIXGeneral-Regular-55"/>
       </defs>
       <use xlink:href="#STIXGeneral-Regular-52"/>
       <use x="49.999985" xlink:href="#STIXGeneral-Regular-46"/>
       <use x="74.999969" xlink:href="#STIXGeneral-Regular-55"/>
       <use x="124.999954" xlink:href="#STIXGeneral-Regular-53"/>
      </g>
     </g>
    </g>
    <g id="xtick_5">
     <g id="line2d_5">
      <g>
       <use style="fill:#ffffff;stroke:#000000;stroke-width:0.8;" x="481.090909" xlink:href="#mf0dd7904be" y="345.6"/>
      </g>
     </g>
     <g id="text_5">
      <!-- 5.00 -->
      <g transform="translate(460.090909 368.99125)scale(0.24 -0.24)">
       <use xlink:href="#STIXGeneral-Regular-53"/>
       <use x="49.999985" xlink:href="#STIXGeneral-Regular-46"/>
       <use x="74.999969" xlink:href="#STIXGeneral-Regular-48"/>
       <use x="124.999954" xlink:href="#STIXGeneral-Regular-48"/>
      </g>
     </g>
    </g>
    <g id="text_6">
     <!-- $\^t$ -->
     <g transform="translate(300.185455 394.59125)scale(0.24 -0.24)">
      <defs>
       <path d="M -7.5 50.703125 
L -10.90625 50.703125 
L -23.09375 61 
L -35.203125 50.703125 
L -38.59375 50.703125 
L -26.203125 67.40625 
L -20 67.40625 
z
" id="STIXGeneral-Regular-770"/>
       <path d="M 29.59375 42.796875 
L 29.09375 39.59375 
L 20.703125 39.59375 
L 12 6.796875 
Q 11.796875 6 11.796875 5.40625 
Q 11.796875 3.796875 13.296875 3.796875 
Q 14.5 3.796875 16.09375 5.34375 
Q 17.703125 6.90625 21.40625 11.703125 
L 22.703125 11 
Q 18.09375 4 15.140625 1.453125 
Q 12.203125 -1.09375 8.40625 -1.09375 
Q 3.796875 -1.09375 3.796875 2.59375 
Q 3.796875 3.59375 5.40625 10 
L 13.203125 39.59375 
L 5.703125 39.59375 
L 5.59375 40.203125 
Q 5.59375 42 8.90625 42.703125 
Q 11.40625 43.296875 15.5 46.546875 
Q 19.59375 49.796875 22.203125 53.703125 
Q 22.796875 54.59375 23.59375 54.59375 
Q 24.5 54.59375 24.5 53.796875 
Q 24.5 53.296875 24.40625 53.09375 
L 21.59375 42.796875 
z
" id="STIXGeneral-Italic-116"/>
      </defs>
      <use transform="translate(39.042969 16.59375)" xlink:href="#STIXGeneral-Regular-770"/>
      <use transform="translate(0 0.203125)" xlink:href="#STIXGeneral-Italic-116"/>
     </g>
    </g>
   </g>
   <g id="matplotlib.axis_2">
    <g id="ytick_1">
     <g id="line2d_6">
      <defs>
       <path d="M 0 0 
L -3.5 0 
" id="me089d698fd" style="stroke:#000000;stroke-width:0.8;"/>
      </defs>
      <g>
       <use style="fill:#ffffff;stroke:#000000;stroke-width:0.8;" x="126" xlink:href="#me089d698fd" y="299.858824"/>
      </g>
     </g>
     <g id="text_7">
      <!-- 0 -->
      <g transform="translate(107 308.054449)scale(0.24 -0.24)">
       <use xlink:href="#STIXGeneral-Regular-48"/>
      </g>
     </g>
    </g>
    <g id="ytick_2">
     <g id="line2d_7">
      <g>
       <use style="fill:#ffffff;stroke:#000000;stroke-width:0.8;" x="126" xlink:href="#me089d698fd" y="223.623529"/>
      </g>
     </g>
     <g id="text_8">
      <!-- 1 -->
      <g transform="translate(107 231.819154)scale(0.24 -0.24)">
       <defs>
        <path d="M 39.40625 0 
L 11.796875 0 
L 11.796875 1.5 
Q 17.296875 1.796875 19.296875 3.546875 
Q 21.296875 5.296875 21.296875 9.5 
L 21.296875 54.40625 
Q 21.296875 59.296875 18.296875 59.296875 
Q 16.90625 59.296875 13.796875 58.09375 
L 11.09375 57.09375 
L 11.09375 58.5 
L 29 67.59375 
L 29.90625 67.296875 
L 29.90625 7.59375 
Q 29.90625 4.296875 31.90625 2.890625 
Q 33.90625 1.5 39.40625 1.5 
z
" id="STIXGeneral-Regular-49"/>
       </defs>
       <use xlink:href="#STIXGeneral-Regular-49"/>
      </g>
     </g>
    </g>
    <g id="ytick_3">
     <g id="line2d_8">
      <g>
       <use style="fill:#ffffff;stroke:#000000;stroke-width:0.8;" x="126" xlink:href="#me089d698fd" y="147.388235"/>
      </g>
     </g>
     <g id="text_9">
      <!-- 2 -->
      <g transform="translate(107 155.58386)scale(0.24 -0.24)">
       <use xlink:href="#STIXGeneral-Regular-50"/>
      </g>
     </g>
    </g>
    <g id="text_10">
     <!-- $C_L$ -->
     <g transform="translate(97.79125 229.32)rotate(-90)scale(0.24 -0.24)">
      <defs>
       <path d="M 68.90625 66.40625 
L 65.203125 46.40625 
L 63.40625 46.703125 
Q 61.59375 63 48.5 63 
Q 37.59375 63 28.59375 53.296875 
Q 23.296875 47.703125 20.546875 39.703125 
Q 17.796875 31.703125 17.796875 23.203125 
Q 17.796875 2.703125 35.296875 2.703125 
Q 41.5 2.703125 46.640625 5.296875 
Q 51.796875 7.90625 58.203125 14.59375 
L 60 13.09375 
Q 53.296875 5.203125 46.84375 1.703125 
Q 40.40625 -1.796875 32.703125 -1.796875 
Q 21 -1.796875 13.796875 5.140625 
Q 6.59375 12.09375 6.59375 24.296875 
Q 6.59375 34.59375 11.6875 43.9375 
Q 16.796875 53.296875 25.296875 59.296875 
Q 35.5 66.59375 47.203125 66.59375 
Q 54.09375 66.59375 58.90625 64.90625 
Q 60.90625 64.203125 63 64.203125 
Q 65.703125 64.203125 66.796875 66.40625 
z
" id="STIXGeneral-Italic-67"/>
       <path d="M 55.90625 18 
L 50.09375 0 
L -0.796875 0 
L -0.796875 1.59375 
Q 3.40625 2 4.703125 3.296875 
Q 6 4.59375 7.40625 9.40625 
L 19.59375 53.203125 
Q 20.703125 56.90625 20.703125 59.40625 
Q 20.703125 61.59375 19.140625 62.5 
Q 17.59375 63.40625 13 63.703125 
L 13 65.296875 
L 40.296875 65.296875 
L 40.296875 63.703125 
Q 35.703125 63.40625 33.546875 61.796875 
Q 31.40625 60.203125 30.203125 56 
L 18.203125 13.09375 
Q 17.203125 9.296875 17.203125 7.703125 
Q 17.203125 5.40625 19.390625 4.5 
Q 21.59375 3.59375 27.703125 3.59375 
Q 35.40625 3.59375 38.75 4.296875 
Q 42.09375 5 45.703125 7.40625 
Q 49.796875 10.09375 53.90625 18.59375 
z
" id="STIXGeneral-Italic-76"/>
      </defs>
      <use transform="translate(0 0.40625)" xlink:href="#STIXGeneral-Italic-67"/>
      <use transform="translate(66.699997 -12.821875)scale(0.7)" xlink:href="#STIXGeneral-Italic-76"/>
     </g>
    </g>
   </g>
   <g id="line2d_9">
    <path clip-path="url(#pf3cba62b9a)" d="M 125.644909 293.58716 
L 127.065273 288.122998 
L 128.485636 281.754108 
L 130.261091 272.78558 
L 135.942545 242.892754 
L 137.718 235.2241 
L 139.493455 228.633696 
L 140.913818 224.206994 
L 141.979091 221.561017 
L 143.044364 219.599913 
L 143.754545 218.693741 
L 144.464727 218.090632 
L 145.174909 217.746934 
L 145.885091 217.622478 
L 146.950364 217.707145 
L 149.080909 218.022926 
L 149.791091 217.927466 
L 150.501273 217.658848 
L 151.211455 217.197516 
L 152.276727 216.166067 
L 153.342 214.787123 
L 154.762364 212.533174 
L 156.182727 209.846541 
L 157.603091 206.584649 
L 158.668364 203.634614 
L 160.088727 198.909866 
L 161.864182 191.89709 
L 165.06 178.774843 
L 166.480364 173.987763 
L 167.545636 171.163761 
L 168.255818 169.703665 
L 168.966 168.605677 
L 169.676182 167.88141 
L 170.741455 167.201851 
L 171.451636 165.336186 
L 172.872 163.005869 
L 174.292364 161.164604 
L 175.712727 159.725111 
L 177.133091 158.576106 
L 178.908545 157.427822 
L 181.394182 156.138629 
L 185.655273 154.00914 
L 188.140909 152.446032 
L 193.467273 148.858742 
L 194.887636 148.225396 
L 196.308 147.854441 
L 197.728364 147.752665 
L 199.148727 147.900357 
L 200.924182 148.354629 
L 204.12 149.511412 
L 206.605636 150.328894 
L 208.736182 150.793479 
L 210.511636 150.987957 
L 212.642182 151.003002 
L 215.127818 150.7822 
L 218.323636 150.245174 
L 226.845818 148.385137 
L 231.106909 147.579108 
L 235.723091 146.919692 
L 241.404545 146.492312 
L 246.730909 146.555379 
L 249.216545 146.717161 
L 259.159091 147.875004 
L 259.514182 148.05996 
L 260.224364 149.039946 
L 261.289636 150.358527 
L 262.71 152.488516 
L 264.130364 155.043796 
L 265.550727 158.040707 
L 266.971091 161.49627 
L 268.391455 165.411773 
L 270.166909 170.986501 
L 271.942364 177.357778 
L 273.717818 184.560771 
L 275.493273 192.638959 
L 277.623818 203.52248 
L 279.754364 215.647175 
L 282.24 231.091997 
L 289.341818 276.52649 
L 291.117273 285.933903 
L 292.537636 292.258561 
L 293.602909 296.159891 
L 294.668182 299.268226 
L 295.733455 301.522918 
L 296.443636 302.544624 
L 297.153818 303.173783 
L 297.864 303.414023 
L 298.574182 303.270345 
L 299.284364 302.753164 
L 299.994545 301.880016 
L 300.704727 300.666701 
L 301.77 298.246579 
L 302.835273 295.167034 
L 304.255636 290.155924 
L 305.676 284.249909 
L 307.451455 275.835051 
L 309.937091 262.806468 
L 313.843091 242.265192 
L 315.618545 234.250023 
L 317.038909 228.815112 
L 318.459273 224.203116 
L 319.879636 220.39214 
L 320.944909 218.202999 
L 321.655091 217.15745 
L 322.365273 216.460949 
L 323.075455 216.116875 
L 323.785636 216.089819 
L 324.495818 216.315949 
L 325.561091 216.956458 
L 327.336545 218.113807 
L 328.046727 218.350569 
L 328.756909 218.34374 
L 329.467091 218.034922 
L 330.177273 217.370575 
L 330.887455 216.323559 
L 331.597636 214.881712 
L 332.662909 211.993741 
L 333.728182 208.361723 
L 335.148545 202.679825 
L 340.474909 180.106246 
L 341.895273 175.283094 
L 342.960545 172.241535 
L 344.380909 169.050459 
L 345.446182 167.361556 
L 346.156364 166.592775 
L 346.866545 166.12431 
L 347.576727 165.969604 
L 347.931818 166.014496 
L 348.286909 165.823664 
L 348.642 164.852254 
L 349.352182 163.736325 
L 350.417455 162.337898 
L 351.837818 160.92914 
L 352.903091 160.20654 
L 353.968364 159.746622 
L 355.033636 159.571729 
L 356.098909 159.64143 
L 357.519273 160.097483 
L 359.649818 161.245771 
L 361.070182 162.003955 
L 362.135455 162.402385 
L 363.200727 162.556968 
L 364.266 162.464145 
L 365.331273 162.092233 
L 366.396545 161.495528 
L 367.816909 160.378769 
L 369.947455 158.221415 
L 373.853455 153.585018 
L 377.404364 149.559481 
L 379.534909 147.508974 
L 381.310364 146.079672 
L 383.085818 144.918783 
L 384.861273 144.030782 
L 386.636727 143.394858 
L 388.412182 143.003299 
L 390.187636 142.825576 
L 392.318182 142.863045 
L 394.803818 143.181299 
L 397.644545 143.814446 
L 401.905636 145.040244 
L 409.362545 147.180099 
L 412.913455 147.965769 
L 416.464364 148.533801 
L 420.015273 148.879423 
L 423.566182 149.018666 
L 427.827273 148.96553 
L 433.508727 148.639867 
L 437.059636 148.47104 
L 437.769818 149.299833 
L 438.835091 150.388308 
L 440.255455 152.206971 
L 441.675818 154.461145 
L 443.096182 157.179092 
L 444.516545 160.380239 
L 445.936909 164.084077 
L 447.357273 168.309099 
L 449.132727 174.367697 
L 450.908182 181.334429 
L 452.683636 189.252936 
L 454.459091 198.145914 
L 456.589636 210.059861 
L 459.075273 225.446389 
L 462.981273 251.531936 
L 466.177091 272.248521 
L 467.952545 282.413638 
L 469.372909 289.428999 
L 470.793273 295.209506 
L 471.858545 298.617818 
L 472.923818 301.167933 
L 473.634 302.372524 
L 474.344182 303.173923 
L 475.054364 303.572864 
L 475.764545 303.572785 
L 476.474727 303.183354 
L 477.184909 302.419116 
L 477.895091 301.296191 
L 478.605273 299.832264 
L 479.670545 297.044638 
L 480.735818 293.61118 
L 481.090909 292.335283 
L 481.090909 292.335283 
" style="fill:none;stroke:#1f77b4;stroke-linecap:square;stroke-width:4;"/>
   </g>
   <g id="line2d_10">
    <path clip-path="url(#pf3cba62b9a)" d="M 125.644909 294.719582 
L 127.065273 289.44508 
L 128.485636 283.282672 
L 130.261091 274.57595 
L 135.232364 249.41078 
L 138.073091 236.750293 
L 139.848545 229.743267 
L 140.913818 226.264218 
L 141.979091 223.538104 
L 142.689273 222.177964 
L 143.399455 221.172718 
L 144.109636 220.481658 
L 144.819818 220.051829 
L 145.885091 219.757656 
L 147.660545 219.664687 
L 148.725818 219.521489 
L 149.436 219.268403 
L 150.146182 218.844541 
L 150.856364 218.205732 
L 151.566545 217.314103 
L 152.276727 216.165462 
L 153.342 213.886431 
L 154.407273 210.972941 
L 155.827636 206.283308 
L 159.733636 192.764325 
L 161.509091 187.828093 
L 164.349818 180.083771 
L 167.190545 172.06301 
L 168.255818 169.695302 
L 168.966 168.470776 
L 169.676182 167.573629 
L 170.741455 166.646161 
L 171.451636 164.944434 
L 172.872 162.804002 
L 173.937273 161.570736 
L 175.002545 160.618853 
L 176.422909 159.691585 
L 177.843273 159.047733 
L 179.618727 158.506182 
L 181.749273 158.094702 
L 184.945091 157.733381 
L 190.626545 157.110972 
L 193.822364 156.807027 
L 195.597818 156.865699 
L 197.018182 157.101889 
L 198.438545 157.52234 
L 200.214 158.276491 
L 203.054727 159.817571 
L 206.605636 161.73163 
L 208.381091 162.466619 
L 210.156545 162.967647 
L 211.932 163.20569 
L 213.707455 163.181014 
L 215.482909 162.915935 
L 217.613455 162.339629 
L 220.809273 161.18223 
L 224.360182 159.921601 
L 226.845818 159.280374 
L 228.976364 158.9436 
L 231.106909 158.798709 
L 234.302727 158.872628 
L 239.274 159.422534 
L 245.310545 160.259388 
L 251.702182 160.82863 
L 257.028545 160.85155 
L 259.514182 160.847733 
L 260.224364 161.673256 
L 261.289636 162.776589 
L 262.71 164.627835 
L 264.130364 166.921243 
L 265.550727 169.677669 
L 266.971091 172.903356 
L 268.391455 176.617322 
L 269.811818 180.81488 
L 271.587273 186.782804 
L 273.362727 193.558694 
L 275.138182 201.173415 
L 276.913636 209.615989 
L 279.044182 220.785077 
L 281.529818 235.025908 
L 289.341818 281.029947 
L 291.117273 289.459097 
L 292.537636 295.043136 
L 293.602909 298.436107 
L 294.668182 301.088309 
L 295.378364 302.418635 
L 296.088545 303.390614 
L 296.798727 304.007353 
L 297.508909 304.249047 
L 298.219091 304.142512 
L 298.929273 303.689962 
L 299.639455 302.901925 
L 300.349636 301.790608 
L 301.414909 299.549113 
L 302.480182 296.670463 
L 303.545455 293.208405 
L 304.965818 287.781642 
L 306.741273 279.881244 
L 308.871818 269.258293 
L 313.488 245.806647 
L 314.908364 239.718251 
L 316.328727 234.663772 
L 317.394 231.617338 
L 318.459273 229.185303 
L 319.524545 227.305805 
L 320.589818 225.945773 
L 321.3 225.318367 
L 322.010182 224.926618 
L 322.720364 224.765883 
L 323.430545 224.829737 
L 324.495818 225.273106 
L 326.626364 226.493484 
L 327.336545 226.637012 
L 328.046727 226.484937 
L 328.756909 225.973895 
L 329.467091 225.046351 
L 330.177273 223.651442 
L 330.887455 221.770302 
L 331.952727 218.043814 
L 333.018 213.353352 
L 334.438364 205.974852 
L 339.054545 180.655137 
L 340.474909 174.357197 
L 341.540182 170.42595 
L 342.605455 167.240023 
L 343.670727 164.794008 
L 344.736 163.060102 
L 345.446182 162.259934 
L 346.156364 161.717973 
L 346.866545 161.40668 
L 347.576727 161.30305 
L 347.931818 161.327621 
L 348.286909 161.140957 
L 348.997091 159.700842 
L 352.903091 154.246478 
L 353.968364 153.275634 
L 354.678545 152.867998 
L 355.388727 152.6771 
L 356.098909 152.71778 
L 356.809091 152.996583 
L 357.519273 153.492088 
L 358.584545 154.651226 
L 359.649818 156.201931 
L 361.780364 159.955697 
L 363.200727 162.390359 
L 364.266 163.926327 
L 365.331273 165.08548 
L 366.041455 165.637856 
L 366.751636 166.008446 
L 367.461818 166.204338 
L 368.172 166.239053 
L 368.882182 166.127147 
L 369.947455 165.727867 
L 371.367818 164.841088 
L 373.143273 163.339777 
L 375.273818 161.267065 
L 379.179818 157.47687 
L 381.310364 155.749925 
L 383.085818 154.590919 
L 384.861273 153.711322 
L 386.636727 153.099419 
L 388.412182 152.749985 
L 390.187636 152.636342 
L 391.963091 152.73217 
L 394.093636 153.07609 
L 396.579273 153.725689 
L 401.195455 155.253696 
L 405.811636 156.680246 
L 409.007455 157.42093 
L 412.203273 157.915319 
L 415.044 158.154993 
L 418.239818 158.219971 
L 422.145818 158.061162 
L 427.827273 157.589465 
L 434.218909 157.108913 
L 436.704545 157.002564 
L 437.059636 157.125096 
L 437.769818 157.990709 
L 438.835091 159.176293 
L 440.255455 161.173023 
L 441.675818 163.655458 
L 443.096182 166.635545 
L 444.516545 170.123096 
L 445.936909 174.114414 
L 447.712364 179.817288 
L 449.487818 186.323518 
L 451.263273 193.642449 
L 453.393818 203.51068 
L 455.524364 214.520622 
L 458.01 228.654849 
L 461.560909 250.422715 
L 465.111818 272.024909 
L 467.242364 283.596852 
L 468.662727 290.26433 
L 470.083091 295.851454 
L 471.148364 299.232105 
L 472.213636 301.854347 
L 472.923818 303.158668 
L 473.634 304.101432 
L 474.344182 304.680341 
L 475.054364 304.894793 
L 475.764545 304.75129 
L 476.474727 304.258214 
L 477.184909 303.429718 
L 477.895091 302.279029 
L 478.960364 299.984894 
L 480.025636 297.0599 
L 481.090909 293.558578 
L 481.090909 293.558578 
" style="fill:none;stroke:#ff7f0e;stroke-linecap:square;stroke-width:4;"/>
   </g>
   <g id="line2d_11">
    <path clip-path="url(#pf3cba62b9a)" d="M 125.644909 295.676589 
L 127.065273 290.817368 
L 128.485636 285.08653 
L 130.261091 276.868401 
L 137.007818 244.119091 
L 138.783273 237.063667 
L 140.203636 232.423705 
L 141.268909 229.630678 
L 142.334182 227.504227 
L 143.044364 226.472555 
L 143.754545 225.739864 
L 144.464727 225.271177 
L 145.53 224.921807 
L 148.015636 224.403306 
L 148.725818 223.987028 
L 149.436 223.338724 
L 150.146182 222.411598 
L 150.856364 221.171243 
L 151.921636 218.682471 
L 152.986909 215.443629 
L 154.052182 211.506669 
L 155.472545 205.316103 
L 157.248 196.312977 
L 160.798909 177.32266 
L 161.509091 174.528405 
L 162.219273 172.425993 
L 162.929455 171.039356 
L 163.639636 170.287539 
L 164.349818 170.014066 
L 165.06 170.037781 
L 166.480364 170.422137 
L 169.321091 171.430417 
L 170.741455 171.967731 
L 171.451636 171.040093 
L 172.872 169.690135 
L 175.357636 167.368625 
L 177.133091 166.035288 
L 178.908545 165.006578 
L 181.039091 164.074744 
L 184.945091 162.72418 
L 187.430727 162.019179 
L 188.851091 161.804145 
L 190.271455 161.843152 
L 191.336727 162.076878 
L 192.402 162.49483 
L 193.822364 163.316256 
L 195.597818 164.671799 
L 202.344545 170.227637 
L 203.764909 171.004234 
L 205.185273 171.54836 
L 206.605636 171.850218 
L 208.026 171.92209 
L 209.446364 171.786016 
L 211.221818 171.38097 
L 213.707455 170.534915 
L 217.968545 169.039117 
L 220.099091 168.51646 
L 222.939818 168.169436 
L 225.425455 168.143346 
L 228.621273 168.364014 
L 237.498545 169.139565 
L 241.049455 169.096731 
L 244.600364 168.717446 
L 248.861455 167.895975 
L 255.608182 166.36052 
L 259.159091 165.7375 
L 259.514182 165.815882 
L 260.224364 166.56063 
L 261.289636 167.606058 
L 262.354909 168.950172 
L 263.420182 170.58869 
L 264.840545 173.243604 
L 266.260909 176.439255 
L 267.681273 180.16445 
L 269.101636 184.403862 
L 270.877091 190.420238 
L 272.652545 197.211091 
L 274.783091 206.365643 
L 276.913636 216.557212 
L 279.399273 229.628277 
L 282.595091 247.789571 
L 287.566364 276.076723 
L 289.341818 284.976956 
L 290.762182 291.218856 
L 292.182545 296.464942 
L 293.247818 299.664684 
L 294.313091 302.168908 
L 295.023273 303.434659 
L 295.733455 304.371395 
L 296.443636 304.974347 
L 297.153818 305.243753 
L 297.864 305.182379 
L 298.574182 304.797731 
L 299.284364 304.100428 
L 299.994545 303.100795 
L 301.059818 301.065771 
L 302.125091 298.423793 
L 303.190364 295.217317 
L 304.610727 290.119987 
L 306.031091 284.165637 
L 307.806545 275.779888 
L 313.488 248.181867 
L 315.973636 237.283892 
L 317.394 232.035612 
L 318.459273 228.958055 
L 319.169455 227.407381 
L 319.879636 226.270351 
L 320.589818 225.526395 
L 321.3 225.136614 
L 322.010182 225.041265 
L 322.720364 225.175888 
L 324.140727 225.8005 
L 325.206 226.269553 
L 325.916182 226.415414 
L 326.626364 226.336505 
L 327.336545 225.965009 
L 328.046727 225.233332 
L 328.756909 224.089379 
L 329.467091 222.500273 
L 330.177273 220.438087 
L 331.242545 216.496734 
L 332.662909 209.981745 
L 335.503636 196.198984 
L 336.924 190.675073 
L 338.344364 186.175736 
L 341.540182 177.195745 
L 342.960545 173.707476 
L 344.025818 171.563031 
L 345.091091 169.901477 
L 345.801273 169.079667 
L 346.511455 168.504493 
L 347.221636 168.182505 
L 348.286909 168.00781 
L 348.997091 166.939717 
L 350.772545 165.477514 
L 352.192909 164.620044 
L 354.323455 163.601218 
L 356.454 162.64713 
L 359.294727 161.330244 
L 360.36 160.993619 
L 361.425273 160.862334 
L 362.490545 160.966052 
L 363.555818 161.348179 
L 364.621091 161.978396 
L 366.041455 163.159703 
L 368.172 165.37555 
L 371.012727 168.385666 
L 372.433091 169.62276 
L 373.498364 170.361795 
L 374.918727 171.032061 
L 375.984 171.295307 
L 377.049273 171.35645 
L 378.114545 171.22572 
L 379.534909 170.79252 
L 380.955273 170.122784 
L 383.085818 168.840202 
L 387.346909 166.212449 
L 389.122364 165.372527 
L 390.897818 164.771618 
L 392.673273 164.420163 
L 394.448727 164.312586 
L 396.224182 164.418914 
L 398.354727 164.771527 
L 401.195455 165.498759 
L 409.362545 167.789475 
L 411.848182 168.169209 
L 413.978727 168.286587 
L 416.109273 168.202743 
L 418.594909 167.866326 
L 421.435636 167.231269 
L 426.762 165.73304 
L 430.312909 164.856372 
L 433.153636 164.379769 
L 435.994364 164.1404 
L 436.704545 164.110812 
L 437.059636 164.22671 
L 437.769818 165.055559 
L 438.835091 166.231896 
L 439.900364 167.704225 
L 441.320727 170.125132 
L 442.741091 173.072065 
L 444.161455 176.540355 
L 445.936909 181.586462 
L 447.712364 187.399195 
L 449.487818 193.954568 
L 451.618364 202.788568 
L 453.748909 212.644081 
L 456.234545 225.33681 
L 459.075273 241.12359 
L 465.466909 277.427318 
L 467.242364 286.160775 
L 468.662727 292.227909 
L 470.083091 297.271351 
L 471.148364 300.298789 
L 472.213636 302.628688 
L 472.923818 303.774244 
L 473.634 304.590275 
L 474.344182 305.073606 
L 475.054364 305.227193 
L 475.764545 305.055505 
L 476.474727 304.567398 
L 477.184909 303.775544 
L 477.895091 302.693111 
L 478.960364 300.553037 
L 480.025636 297.83413 
L 481.090909 294.576825 
L 481.090909 294.576825 
" style="fill:none;stroke:#2ca02c;stroke-linecap:square;stroke-width:4;"/>
   </g>
   <g id="line2d_12">
    <path clip-path="url(#pf3cba62b9a)" d="M 125.644909 295.593379 
L 127.065273 291.347405 
L 128.485636 286.379856 
L 130.261091 279.3108 
L 132.746727 268.299903 
L 135.942545 254.225309 
L 137.362909 248.889593 
L 138.428182 245.550476 
L 139.493455 242.880948 
L 140.558727 240.862252 
L 141.624 239.324128 
L 143.044364 237.657146 
L 144.819818 235.906205 
L 146.595273 234.156562 
L 147.660545 232.719756 
L 148.725818 230.776294 
L 149.791091 228.167603 
L 150.856364 224.798761 
L 151.921636 220.689819 
L 153.342 214.331666 
L 155.472545 203.683893 
L 161.509091 172.64718 
L 162.929455 166.972868 
L 164.349818 162.229591 
L 165.415091 159.252834 
L 166.480364 156.927531 
L 167.190545 155.90519 
L 167.545636 155.601545 
L 167.900727 155.455616 
L 168.255818 155.480231 
L 168.610909 155.68353 
L 168.966 156.072673 
L 169.676182 157.404425 
L 172.161818 164.20471 
L 174.292364 170.344204 
L 175.357636 172.821963 
L 176.422909 174.739728 
L 177.488182 176.102603 
L 178.553455 176.973325 
L 179.618727 177.440695 
L 180.684 177.59761 
L 181.749273 177.526053 
L 183.169636 177.190533 
L 185.300182 176.390687 
L 193.467273 173.018943 
L 196.663091 172.070956 
L 199.503818 171.441825 
L 201.989455 171.108353 
L 204.12 171.024121 
L 206.250545 171.138449 
L 208.736182 171.503659 
L 211.576909 172.154171 
L 216.903273 173.694189 
L 220.454182 174.612863 
L 222.939818 175.043955 
L 225.070364 175.221865 
L 227.200909 175.185256 
L 229.331455 174.942299 
L 231.817091 174.443809 
L 235.368 173.479647 
L 238.918909 172.501729 
L 241.404545 171.970737 
L 244.245273 171.632668 
L 247.086 171.603926 
L 250.281818 171.898038 
L 253.477636 172.403708 
L 258.804 173.336771 
L 259.159091 173.380701 
L 259.514182 173.549042 
L 260.224364 174.42199 
L 261.289636 175.649575 
L 262.71 177.678627 
L 264.130364 180.148367 
L 265.550727 183.059142 
L 266.971091 186.397998 
L 268.746545 191.161594 
L 270.522 196.575289 
L 272.297455 202.630517 
L 274.428 210.75602 
L 276.558545 219.829268 
L 278.689091 229.792788 
L 281.529818 244.241528 
L 288.276545 279.529545 
L 290.052 287.425956 
L 291.472364 292.848771 
L 292.892727 297.293483 
L 293.958 299.912925 
L 295.023273 301.881462 
L 295.733455 302.820472 
L 296.443636 303.454253 
L 297.153818 303.789369 
L 297.864 303.825282 
L 298.574182 303.571704 
L 299.284364 303.03921 
L 299.994545 302.237384 
L 301.059818 300.565106 
L 302.125091 298.36987 
L 303.190364 295.693346 
L 304.610727 291.433762 
L 306.031091 286.450839 
L 307.806545 279.342279 
L 310.292182 268.250936 
L 313.132909 255.56242 
L 314.553273 250.003317 
L 315.973636 245.398079 
L 317.038909 242.693528 
L 318.104182 240.603893 
L 319.169455 238.949007 
L 320.589818 237.129931 
L 322.365273 235.247123 
L 324.140727 233.342677 
L 325.206 231.829696 
L 326.271273 229.849506 
L 327.336545 227.228242 
L 328.401818 223.874631 
L 329.822182 218.332405 
L 331.597636 210.181263 
L 334.083273 197.421251 
L 337.634182 178.887767 
L 339.054545 172.4601 
L 340.474909 166.909148 
L 341.895273 162.191821 
L 342.960545 159.237983 
L 343.670727 157.657182 
L 344.380909 156.516092 
L 344.736 156.153164 
L 345.091091 155.951216 
L 345.446182 155.920179 
L 345.801273 156.075589 
L 346.156364 156.41742 
L 346.866545 157.672047 
L 347.576727 159.639702 
L 348.286909 162.031213 
L 348.997091 163.815955 
L 351.127636 170.145427 
L 352.192909 172.729556 
L 353.258182 174.696751 
L 353.968364 175.669016 
L 354.678545 176.389297 
L 355.388727 176.884458 
L 356.098909 177.187356 
L 357.164182 177.3575 
L 358.229455 177.260818 
L 359.649818 176.880506 
L 361.425273 176.184453 
L 367.106727 173.719611 
L 369.592364 172.842873 
L 373.498364 171.782602 
L 376.339091 171.220829 
L 379.179818 170.882336 
L 381.665455 170.812996 
L 384.151091 170.965526 
L 386.636727 171.321287 
L 389.832545 172.012969 
L 399.42 174.326466 
L 401.905636 174.589967 
L 404.391273 174.584456 
L 406.521818 174.365676 
L 409.007455 173.897038 
L 412.558364 172.963604 
L 417.174545 171.742555 
L 420.015273 171.243171 
L 422.500909 171.046702 
L 424.986545 171.085615 
L 427.827273 171.384363 
L 431.733273 172.082597 
L 437.059636 173.212507 
L 437.769818 174.104255 
L 438.835091 175.360363 
L 440.255455 177.425169 
L 441.675818 179.930079 
L 443.096182 182.873614 
L 444.871636 187.156475 
L 446.647091 192.088481 
L 448.422545 197.661908 
L 450.553091 205.198328 
L 452.683636 213.670656 
L 454.814182 223.07147 
L 457.299818 235.114814 
L 460.495636 251.872615 
L 465.111818 276.151491 
L 466.887273 284.457394 
L 468.307636 290.306257 
L 469.728 295.250806 
L 470.793273 298.283294 
L 471.858545 300.686807 
L 472.923818 302.431773 
L 473.634 303.21799 
L 474.344182 303.699665 
L 475.054364 303.883564 
L 475.764545 303.772355 
L 476.474727 303.377288 
L 477.184909 302.708135 
L 477.895091 301.777854 
L 478.960364 299.925209 
L 480.025636 297.565734 
L 481.090909 294.737163 
L 481.090909 294.737163 
" style="fill:none;stroke:#d62728;stroke-linecap:square;stroke-width:4;"/>
   </g>
   <g id="line2d_13">
    <path clip-path="url(#pf3cba62b9a)" d="M 126 299.858824 
L 481.090909 299.858824 
" style="fill:none;stroke:#000000;stroke-dasharray:3.2,0.8,0.5,0.8;stroke-dashoffset:0;stroke-width:0.5;"/>
   </g>
   <g id="line2d_14">
    <path clip-path="url(#pf3cba62b9a)" d="M 303.545455 345.6 
L 303.545455 86.4 
" style="fill:none;stroke:#000000;stroke-dasharray:3.2,0.8,0.5,0.8;stroke-dashoffset:0;stroke-width:0.5;"/>
   </g>
   <g id="patch_3">
    <path d="M 126 345.6 
L 126 86.4 
" style="fill:none;stroke:#000000;stroke-linecap:square;stroke-linejoin:miter;stroke-width:0.8;"/>
   </g>
   <g id="patch_4">
    <path d="M 481.090909 345.6 
L 481.090909 86.4 
" style="fill:none;stroke:#000000;stroke-linecap:square;stroke-linejoin:miter;stroke-width:0.8;"/>
   </g>
   <g id="patch_5">
    <path d="M 126 345.6 
L 481.090909 345.6 
" style="fill:none;stroke:#000000;stroke-linecap:square;stroke-linejoin:miter;stroke-width:0.8;"/>
   </g>
   <g id="patch_6">
    <path d="M 126 86.4 
L 481.090909 86.4 
" style="fill:none;stroke:#000000;stroke-linecap:square;stroke-linejoin:miter;stroke-width:0.8;"/>
   </g>
   <g id="legend_1">
    <g id="line2d_15">
     <path d="M 241.90992 59.55 
L 281.89392 59.55 
" style="fill:none;stroke:#1f77b4;stroke-linecap:square;stroke-width:4;"/>
    </g>
    <g id="line2d_16"/>
    <g id="text_11">
     <!-- $\hat r_R$ = 0 -->
     <g transform="translate(297.88752 66.5472)scale(0.19992 -0.19992)">
      <defs>
       <path d="M 17.59375 22.296875 
L 19.203125 25.796875 
Q 22.59375 33.296875 28.59375 39.59375 
Q 32.90625 44.09375 36.5 44.09375 
Q 38.59375 44.09375 39.890625 42.6875 
Q 41.203125 41.296875 41.203125 39 
Q 41.203125 36.703125 39.953125 35.140625 
Q 38.703125 33.59375 36.5 33.59375 
Q 34.59375 33.59375 33 36.203125 
Q 32.203125 37.59375 31.40625 37.59375 
Q 28.703125 37.59375 23.203125 28.203125 
Q 19.796875 22.40625 17.75 17.25 
Q 15.703125 12.09375 12.09375 0 
L 4.5 0 
L 12.59375 29.203125 
Q 14.203125 35.09375 14.203125 37.40625 
Q 14.203125 40 10.40625 40 
Q 9.59375 40 7.296875 39.703125 
L 7.296875 41.40625 
L 22.796875 44.09375 
L 23.09375 43.90625 
z
" id="STIXGeneral-Italic-114"/>
       <path d="M 13.203125 65.296875 
L 38.40625 65.296875 
Q 48.09375 65.296875 53.4375 61.5 
Q 58.796875 57.703125 58.796875 51.203125 
Q 58.796875 43.40625 52.203125 38.40625 
Q 48.296875 35.40625 39.09375 33.296875 
L 48 9.796875 
Q 49.703125 5.203125 51.546875 3.390625 
Q 53.40625 1.59375 56.703125 1.59375 
L 56.703125 0 
L 42 0 
L 29.703125 32.40625 
L 23.09375 32.90625 
L 17.59375 12.59375 
Q 16.296875 8 16.296875 6.296875 
Q 16.296875 4 17.59375 3 
Q 18.90625 2 23 1.59375 
L 23 0 
L -1.296875 0 
L -1.296875 1.59375 
Q 2.703125 2.09375 4.34375 3.796875 
Q 6 5.5 7.203125 10.09375 
L 19.09375 53.203125 
Q 20.296875 57.796875 20.296875 59.5 
Q 20.296875 61.296875 18.90625 62.296875 
Q 17.703125 63.09375 13.203125 63.703125 
z
M 30.59375 59.296875 
L 24.296875 36.59375 
Q 27.40625 36.09375 29.40625 36.09375 
Q 38.296875 36.09375 43.296875 40.09375 
Q 48.296875 44.09375 48.296875 51.09375 
Q 48.296875 56.296875 45.1875 59.296875 
Q 42.09375 62.296875 36.296875 62.296875 
Q 31.40625 62.296875 30.59375 59.296875 
z
" id="STIXGeneral-Italic-82"/>
       <path id="STIXGeneral-Regular-32"/>
       <path d="M 63.703125 32 
L 4.796875 32 
L 4.796875 38.59375 
L 63.703125 38.59375 
z
M 63.703125 12 
L 4.796875 12 
L 4.796875 18.59375 
L 63.703125 18.59375 
z
" id="STIXGeneral-Regular-61"/>
      </defs>
      <use transform="translate(45.765625 6.59375)" xlink:href="#STIXGeneral-Regular-770"/>
      <use transform="translate(0 0.703125)" xlink:href="#STIXGeneral-Italic-114"/>
      <use transform="translate(40.443275 -12.525)scale(0.7)" xlink:href="#STIXGeneral-Italic-82"/>
      <use transform="translate(87.622644 0.703125)" xlink:href="#STIXGeneral-Regular-32"/>
      <use transform="translate(112.622628 0.703125)" xlink:href="#STIXGeneral-Regular-61"/>
      <use transform="translate(181.122613 0.703125)" xlink:href="#STIXGeneral-Regular-32"/>
      <use transform="translate(206.122598 0.703125)" xlink:href="#STIXGeneral-Regular-48"/>
     </g>
    </g>
    <g id="line2d_17">
     <path d="M 389.25096 59.55 
L 429.23496 59.55 
" style="fill:none;stroke:#ff7f0e;stroke-linecap:square;stroke-width:4;"/>
    </g>
    <g id="line2d_18"/>
    <g id="text_12">
     <!-- $\hat r_R$ = 1 -->
     <g transform="translate(445.22856 66.5472)scale(0.19992 -0.19992)">
      <use transform="translate(45.765625 6.59375)" xlink:href="#STIXGeneral-Regular-770"/>
      <use transform="translate(0 0.703125)" xlink:href="#STIXGeneral-Italic-114"/>
      <use transform="translate(40.443275 -12.525)scale(0.7)" xlink:href="#STIXGeneral-Italic-82"/>
      <use transform="translate(87.622644 0.703125)" xlink:href="#STIXGeneral-Regular-32"/>
      <use transform="translate(112.622628 0.703125)" xlink:href="#STIXGeneral-Regular-61"/>
      <use transform="translate(181.122613 0.703125)" xlink:href="#STIXGeneral-Regular-32"/>
      <use transform="translate(206.122598 0.703125)" xlink:href="#STIXGeneral-Regular-49"/>
     </g>
    </g>
    <g id="line2d_19">
     <path d="M 536.592 59.55 
L 576.576 59.55 
" style="fill:none;stroke:#2ca02c;stroke-linecap:square;stroke-width:4;"/>
    </g>
    <g id="line2d_20"/>
    <g id="text_13">
     <!-- $\hat r_R$ = 2 -->
     <g transform="translate(592.5696 66.5472)scale(0.19992 -0.19992)">
      <use transform="translate(45.765625 6.59375)" xlink:href="#STIXGeneral-Regular-770"/>
      <use transform="translate(0 0.703125)" xlink:href="#STIXGeneral-Italic-114"/>
      <use transform="translate(40.443275 -12.525)scale(0.7)" xlink:href="#STIXGeneral-Italic-82"/>
      <use transform="translate(87.622644 0.703125)" xlink:href="#STIXGeneral-Regular-32"/>
      <use transform="translate(112.622628 0.703125)" xlink:href="#STIXGeneral-Regular-61"/>
      <use transform="translate(181.122613 0.703125)" xlink:href="#STIXGeneral-Regular-32"/>
      <use transform="translate(206.122598 0.703125)" xlink:href="#STIXGeneral-Regular-50"/>
     </g>
    </g>
    <g id="line2d_21">
     <path d="M 683.93304 59.55 
L 723.91704 59.55 
" style="fill:none;stroke:#d62728;stroke-linecap:square;stroke-width:4;"/>
    </g>
    <g id="line2d_22"/>
    <g id="text_14">
     <!-- $\hat r_R$ = 3 -->
     <g transform="translate(739.91064 66.5472)scale(0.19992 -0.19992)">
      <defs>
       <path d="M 6.09375 51 
L 4.5 51.40625 
Q 6.796875 58.90625 11.6875 63.25 
Q 16.59375 67.59375 24.09375 67.59375 
Q 31.09375 67.59375 35.390625 63.796875 
Q 39.703125 60 39.703125 53.90625 
Q 39.703125 45.703125 30.40625 40.09375 
Q 35.90625 37.703125 38.703125 34.796875 
Q 43.09375 29.90625 43.09375 21.90625 
Q 43.09375 13.90625 38.5 7.90625 
Q 35.09375 3.296875 28.75 0.9375 
Q 22.40625 -1.40625 15.296875 -1.40625 
Q 4.09375 -1.40625 4.09375 4.296875 
Q 4.09375 5.90625 5.296875 6.90625 
Q 6.5 7.90625 8.203125 7.90625 
Q 10.703125 7.90625 14.296875 5.296875 
Q 18.703125 2.203125 22.90625 2.203125 
Q 28.40625 2.203125 32.15625 6.640625 
Q 35.90625 11.09375 35.90625 17.5 
Q 35.90625 29 25.5 32 
Q 22.40625 33 15.296875 33 
L 15.296875 34.40625 
Q 20.90625 36.296875 23.703125 38 
Q 31.796875 42.59375 31.796875 51.40625 
Q 31.796875 56.40625 28.9375 59 
Q 26.09375 61.59375 21 61.59375 
Q 12 61.59375 6.09375 51 
z
" id="STIXGeneral-Regular-51"/>
      </defs>
      <use transform="translate(45.765625 6.59375)" xlink:href="#STIXGeneral-Regular-770"/>
      <use transform="translate(0 0.703125)" xlink:href="#STIXGeneral-Italic-114"/>
      <use transform="translate(40.443275 -12.525)scale(0.7)" xlink:href="#STIXGeneral-Italic-82"/>
      <use transform="translate(87.622644 0.703125)" xlink:href="#STIXGeneral-Regular-32"/>
      <use transform="translate(112.622628 0.703125)" xlink:href="#STIXGeneral-Regular-61"/>
      <use transform="translate(181.122613 0.703125)" xlink:href="#STIXGeneral-Regular-32"/>
      <use transform="translate(206.122598 0.703125)" xlink:href="#STIXGeneral-Regular-51"/>
     </g>
    </g>
   </g>
  </g>
  <g id="axes_2">
   <g id="patch_7">
    <path d="M 552.109091 345.6 
L 907.2 345.6 
L 907.2 86.4 
L 552.109091 86.4 
z
" style="fill:#ffffff;"/>
   </g>
   <g id="matplotlib.axis_3">
    <g id="xtick_6">
     <g id="line2d_23">
      <g>
       <use style="fill:#ffffff;stroke:#000000;stroke-width:0.8;" x="552.109091" xlink:href="#mf0dd7904be" y="345.6"/>
      </g>
     </g>
     <g id="text_15">
      <!-- 4.00 -->
      <g transform="translate(531.109091 368.99125)scale(0.24 -0.24)">
       <use xlink:href="#STIXGeneral-Regular-52"/>
       <use x="49.999985" xlink:href="#STIXGeneral-Regular-46"/>
       <use x="74.999969" xlink:href="#STIXGeneral-Regular-48"/>
       <use x="124.999954" xlink:href="#STIXGeneral-Regular-48"/>
      </g>
     </g>
    </g>
    <g id="xtick_7">
     <g id="line2d_24">
      <g>
       <use style="fill:#ffffff;stroke:#000000;stroke-width:0.8;" x="640.881818" xlink:href="#mf0dd7904be" y="345.6"/>
      </g>
     </g>
     <g id="text_16">
      <!-- 4.25 -->
      <g transform="translate(619.881818 368.99125)scale(0.24 -0.24)">
       <use xlink:href="#STIXGeneral-Regular-52"/>
       <use x="49.999985" xlink:href="#STIXGeneral-Regular-46"/>
       <use x="74.999969" xlink:href="#STIXGeneral-Regular-50"/>
       <use x="124.999954" xlink:href="#STIXGeneral-Regular-53"/>
      </g>
     </g>
    </g>
    <g id="xtick_8">
     <g id="line2d_25">
      <g>
       <use style="fill:#ffffff;stroke:#000000;stroke-width:0.8;" x="729.654545" xlink:href="#mf0dd7904be" y="345.6"/>
      </g>
     </g>
     <g id="text_17">
      <!-- 4.50 -->
      <g transform="translate(708.654545 368.99125)scale(0.24 -0.24)">
       <use xlink:href="#STIXGeneral-Regular-52"/>
       <use x="49.999985" xlink:href="#STIXGeneral-Regular-46"/>
       <use x="74.999969" xlink:href="#STIXGeneral-Regular-53"/>
       <use x="124.999954" xlink:href="#STIXGeneral-Regular-48"/>
      </g>
     </g>
    </g>
    <g id="xtick_9">
     <g id="line2d_26">
      <g>
       <use style="fill:#ffffff;stroke:#000000;stroke-width:0.8;" x="818.427273" xlink:href="#mf0dd7904be" y="345.6"/>
      </g>
     </g>
     <g id="text_18">
      <!-- 4.75 -->
      <g transform="translate(797.427273 368.99125)scale(0.24 -0.24)">
       <use xlink:href="#STIXGeneral-Regular-52"/>
       <use x="49.999985" xlink:href="#STIXGeneral-Regular-46"/>
       <use x="74.999969" xlink:href="#STIXGeneral-Regular-55"/>
       <use x="124.999954" xlink:href="#STIXGeneral-Regular-53"/>
      </g>
     </g>
    </g>
    <g id="xtick_10">
     <g id="line2d_27">
      <g>
       <use style="fill:#ffffff;stroke:#000000;stroke-width:0.8;" x="907.2" xlink:href="#mf0dd7904be" y="345.6"/>
      </g>
     </g>
     <g id="text_19">
      <!-- 5.00 -->
      <g transform="translate(886.2 368.99125)scale(0.24 -0.24)">
       <use xlink:href="#STIXGeneral-Regular-53"/>
       <use x="49.999985" xlink:href="#STIXGeneral-Regular-46"/>
       <use x="74.999969" xlink:href="#STIXGeneral-Regular-48"/>
       <use x="124.999954" xlink:href="#STIXGeneral-Regular-48"/>
      </g>
     </g>
    </g>
    <g id="text_20">
     <!-- $\^t$ -->
     <g transform="translate(726.294545 394.59125)scale(0.24 -0.24)">
      <use transform="translate(39.042969 16.59375)" xlink:href="#STIXGeneral-Regular-770"/>
      <use transform="translate(0 0.203125)" xlink:href="#STIXGeneral-Italic-116"/>
     </g>
    </g>
   </g>
   <g id="matplotlib.axis_4">
    <g id="ytick_4">
     <g id="line2d_28">
      <g>
       <use style="fill:#ffffff;stroke:#000000;stroke-width:0.8;" x="552.109091" xlink:href="#me089d698fd" y="299.858824"/>
      </g>
     </g>
     <g id="text_21">
      <!-- 0 -->
      <g transform="translate(533.109091 308.054449)scale(0.24 -0.24)">
       <use xlink:href="#STIXGeneral-Regular-48"/>
      </g>
     </g>
    </g>
    <g id="ytick_5">
     <g id="line2d_29">
      <g>
       <use style="fill:#ffffff;stroke:#000000;stroke-width:0.8;" x="552.109091" xlink:href="#me089d698fd" y="223.623529"/>
      </g>
     </g>
     <g id="text_22">
      <!-- 1 -->
      <g transform="translate(533.109091 231.819154)scale(0.24 -0.24)">
       <use xlink:href="#STIXGeneral-Regular-49"/>
      </g>
     </g>
    </g>
    <g id="ytick_6">
     <g id="line2d_30">
      <g>
       <use style="fill:#ffffff;stroke:#000000;stroke-width:0.8;" x="552.109091" xlink:href="#me089d698fd" y="147.388235"/>
      </g>
     </g>
     <g id="text_23">
      <!-- 2 -->
      <g transform="translate(533.109091 155.58386)scale(0.24 -0.24)">
       <use xlink:href="#STIXGeneral-Regular-50"/>
      </g>
     </g>
    </g>
    <g id="text_24">
     <!-- $C_D$ -->
     <g transform="translate(523.900341 230.64)rotate(-90)scale(0.24 -0.24)">
      <defs>
       <path d="M 13.09375 65.296875 
L 40.796875 65.296875 
Q 54.203125 65.296875 62.09375 58.296875 
Q 70 51.296875 70 38.40625 
Q 70 20.703125 54 8.296875 
Q 43.40625 0 24.90625 0 
L -0.796875 0 
L -0.796875 1.59375 
Q 3.5 2.40625 4.84375 3.59375 
Q 6.203125 4.796875 7.40625 9.203125 
L 19.59375 53.703125 
Q 20.703125 57.59375 20.703125 59.59375 
Q 20.703125 61.703125 19.09375 62.640625 
Q 17.5 63.59375 13.09375 63.703125 
z
M 31 58.40625 
L 19.203125 16.203125 
Q 17 8.203125 17 6.703125 
Q 17 3 23.796875 3 
Q 38.59375 3 47.90625 12 
Q 53.09375 17 56 24.953125 
Q 58.90625 32.90625 58.90625 40.796875 
Q 58.90625 52.90625 51.09375 58.796875 
Q 46.40625 62.296875 38 62.296875 
Q 34.796875 62.296875 33.25 61.546875 
Q 31.703125 60.796875 31 58.40625 
z
" id="STIXGeneral-Italic-68"/>
      </defs>
      <use transform="translate(0 0.40625)" xlink:href="#STIXGeneral-Italic-67"/>
      <use transform="translate(66.699997 -12.821875)scale(0.7)" xlink:href="#STIXGeneral-Italic-68"/>
     </g>
    </g>
   </g>
   <g id="line2d_31">
    <path clip-path="url(#pe839673f0f)" d="M 551.754 398.639073 
L 552.109091 401.651236 
L 552.464182 195.094049 
L 555.304909 172.529801 
L 557.790545 154.240996 
L 559.210909 145.07102 
L 560.276182 139.372055 
L 561.341455 135.021203 
L 562.051636 132.952628 
L 562.761818 131.557092 
L 563.472 130.810323 
L 563.827091 130.659847 
L 564.182182 130.65032 
L 564.537273 130.767391 
L 565.247455 131.349499 
L 565.957636 132.336975 
L 566.667818 133.675508 
L 567.733091 136.274495 
L 568.798364 139.479802 
L 570.218727 144.481555 
L 574.124727 158.992539 
L 575.19 162.046284 
L 576.255273 164.381431 
L 576.965455 165.487722 
L 577.675636 166.239374 
L 578.385818 166.668114 
L 579.096 166.811711 
L 579.806182 166.71382 
L 580.516364 166.414708 
L 581.581636 165.642623 
L 582.646909 164.49961 
L 583.712182 162.977382 
L 584.777455 161.022611 
L 585.842727 158.611726 
L 587.263091 154.769788 
L 591.169091 143.537191 
L 592.234364 141.187439 
L 593.299636 139.420769 
L 594.009818 138.61557 
L 594.72 138.136011 
L 595.430182 137.99907 
L 596.140364 138.222568 
L 596.495455 138.468349 
L 596.850545 138.483524 
L 597.205636 137.683815 
L 597.915818 136.877203 
L 599.336182 135.586872 
L 600.756545 134.590362 
L 602.532 133.649908 
L 604.662545 132.810713 
L 607.148182 132.071292 
L 612.829636 130.499039 
L 615.670364 129.429997 
L 619.221273 128.092219 
L 620.996727 127.685071 
L 622.417091 127.580354 
L 623.837455 127.686911 
L 625.257818 127.995569 
L 627.033273 128.601324 
L 634.135091 131.34593 
L 636.265636 131.796121 
L 638.396182 132.01977 
L 640.526727 132.061256 
L 643.367455 131.899455 
L 647.273455 131.434591 
L 656.150727 130.25948 
L 660.766909 129.927591 
L 663.252545 129.852431 
L 668.934 130.03619 
L 674.615455 130.688244 
L 685.268182 132.672632 
L 685.623273 132.892623 
L 686.333455 134.014261 
L 687.753818 136.138813 
L 689.529273 139.255458 
L 691.659818 143.537004 
L 693.790364 148.303414 
L 695.920909 153.491696 
L 698.406545 160.184631 
L 700.537091 166.624275 
L 702.312545 172.686337 
L 704.088 179.581304 
L 705.508364 185.818049 
L 707.283818 194.724439 
L 709.059273 205.048275 
L 710.834727 216.978333 
L 712.610182 230.599619 
L 714.385636 245.89748 
L 716.516182 266.256788 
L 719.356909 296.00777 
L 725.748545 364.142595 
L 727.879091 384.244967 
L 729.654545 399.433511 
L 730.009636 197.409723 
L 732.140182 181.03219 
L 734.625818 163.694724 
L 736.401273 152.533928 
L 737.821636 144.773057 
L 738.886909 139.990352 
L 739.952182 136.265268 
L 740.662364 134.47744 
L 741.372545 133.269185 
L 742.082727 132.642781 
L 742.437818 132.546106 
L 742.792909 132.572054 
L 743.503091 132.98213 
L 744.213273 133.797795 
L 744.923455 134.94522 
L 745.988727 137.178864 
L 747.054 139.937599 
L 748.474364 144.385832 
L 750.604909 152.134852 
L 752.380364 158.445533 
L 753.445636 161.656543 
L 754.510909 164.186913 
L 755.221091 165.408902 
L 755.931273 166.229577 
L 756.641455 166.633342 
L 756.996545 166.68373 
L 757.706727 166.457887 
L 758.416909 165.836177 
L 759.127091 164.853789 
L 760.192364 162.837646 
L 761.612727 159.410822 
L 766.584 146.450419 
L 767.649273 144.291938 
L 768.714545 142.537686 
L 769.779818 141.221652 
L 770.49 140.609175 
L 771.200182 140.228356 
L 771.910364 140.089623 
L 772.620545 140.202023 
L 773.330727 140.579732 
L 774.396 141.365175 
L 774.751091 140.652931 
L 775.461273 139.975596 
L 776.881636 138.807866 
L 778.302 137.843955 
L 779.722364 137.109721 
L 780.787636 136.715446 
L 782.208 136.442613 
L 783.628364 136.449042 
L 785.403818 136.77048 
L 788.244545 137.324224 
L 789.664909 137.266674 
L 791.085273 136.880769 
L 792.505636 136.1944 
L 794.281091 135.002151 
L 796.056545 133.599771 
L 801.738 128.820024 
L 803.868545 127.318972 
L 805.644 126.288248 
L 807.419455 125.479058 
L 809.194909 124.891513 
L 810.970364 124.521004 
L 812.745818 124.340966 
L 814.876364 124.358769 
L 817.717091 124.702386 
L 820.557818 125.321088 
L 823.398545 126.114834 
L 829.08 127.940649 
L 835.116545 129.8366 
L 839.732727 131.055562 
L 843.638727 131.872984 
L 847.899818 132.517612 
L 852.160909 132.92678 
L 857.132182 133.183198 
L 863.168727 133.439918 
L 863.878909 134.431385 
L 864.944182 135.785693 
L 866.364545 137.905055 
L 868.14 140.962556 
L 870.270545 145.150991 
L 872.401091 149.840219 
L 874.531636 155.050996 
L 876.662182 160.885909 
L 878.437636 166.369205 
L 880.213091 172.585741 
L 881.988545 179.720005 
L 883.764 187.979759 
L 885.539455 197.598434 
L 887.314909 208.758187 
L 889.090364 221.598083 
L 890.865818 236.172211 
L 892.641273 252.429154 
L 894.771818 273.85683 
L 897.967636 308.66195 
L 902.583818 358.954094 
L 905.069455 383.303516 
L 906.844909 399.004813 
L 907.2 197.728408 
L 907.2 197.728408 
" style="fill:none;stroke:#1f77b4;stroke-linecap:square;stroke-width:4;"/>
   </g>
   <g id="line2d_32">
    <path clip-path="url(#pe839673f0f)" d="M 551.754 393.751217 
L 552.109091 396.586774 
L 552.464182 200.317478 
L 557.435455 161.972329 
L 558.855818 152.433573 
L 559.921091 146.594707 
L 560.986364 142.130858 
L 561.696545 139.910732 
L 562.406727 138.259543 
L 563.116909 137.135633 
L 563.827091 136.504439 
L 564.537273 136.335496 
L 565.247455 136.622239 
L 565.957636 137.354967 
L 566.667818 138.525856 
L 567.378 140.120705 
L 568.443273 143.21867 
L 569.863636 148.353186 
L 573.414545 162.051162 
L 574.479818 165.35281 
L 575.545091 167.969361 
L 576.255273 169.279468 
L 576.965455 170.204833 
L 577.675636 170.725723 
L 578.385818 170.858241 
L 579.096 170.58213 
L 579.806182 169.923969 
L 580.516364 168.92259 
L 581.581636 166.876642 
L 583.002 163.490991 
L 585.842727 156.573197 
L 587.618182 152.985851 
L 590.103818 148.015225 
L 592.589455 142.913651 
L 593.654727 141.255521 
L 594.364909 140.477853 
L 595.075091 140.008276 
L 595.785273 139.874679 
L 596.850545 140.083223 
L 597.205636 139.41533 
L 597.915818 138.740623 
L 599.336182 137.737786 
L 600.756545 137.058076 
L 602.176909 136.620441 
L 604.307455 136.256907 
L 607.148182 136.084893 
L 610.699091 136.132658 
L 619.221273 136.573925 
L 621.706909 136.954138 
L 623.482364 137.436008 
L 625.612909 138.264605 
L 628.453636 139.652433 
L 632.004545 141.385847 
L 634.135091 142.188629 
L 635.910545 142.645175 
L 637.686 142.881658 
L 639.461455 142.909094 
L 641.592 142.69357 
L 644.077636 142.183821 
L 652.599818 140.180904 
L 655.085455 139.93009 
L 657.571091 139.88248 
L 660.056727 139.991996 
L 662.542364 140.224905 
L 672.484909 141.694943 
L 676.390909 142.243151 
L 682.427455 142.811156 
L 685.623273 143.082694 
L 686.333455 144.061152 
L 687.398727 145.419662 
L 688.819091 147.569647 
L 690.594545 150.701992 
L 692.725091 155.021895 
L 694.855636 159.888868 
L 696.986182 165.300172 
L 699.116727 171.334094 
L 700.892182 176.948886 
L 702.667636 183.246232 
L 704.443091 190.371578 
L 706.218545 198.524955 
L 707.994 207.85992 
L 709.769455 218.55685 
L 711.544909 230.715728 
L 713.320364 244.363324 
L 715.450909 262.59411 
L 717.936545 285.975114 
L 727.168909 375.283261 
L 729.654545 395.669868 
L 730.009636 201.284348 
L 732.850364 180.11221 
L 734.980909 165.546993 
L 736.401273 157.003787 
L 737.466545 151.586669 
L 738.531818 147.241803 
L 739.242 145.044603 
L 739.952182 143.443114 
L 740.662364 142.445769 
L 741.372545 142.048718 
L 741.727636 142.074955 
L 742.082727 142.22292 
L 742.792909 142.926717 
L 743.503091 144.086538 
L 744.568364 146.511303 
L 745.988727 150.589163 
L 748.474364 158.567515 
L 751.315091 167.623645 
L 752.380364 170.524228 
L 753.445636 172.81518 
L 754.155818 173.889005 
L 754.866 174.54693 
L 755.576182 174.757627 
L 756.286364 174.489767 
L 756.996545 173.749356 
L 757.706727 172.557919 
L 758.416909 170.951677 
L 759.482182 167.888568 
L 760.902545 162.957144 
L 765.163636 147.535799 
L 766.584 143.508138 
L 767.649273 141.107854 
L 768.714545 139.310533 
L 769.424727 138.455813 
L 770.134909 137.876703 
L 770.845091 137.573812 
L 771.555273 137.534907 
L 772.265455 137.749409 
L 772.975636 138.205605 
L 773.685818 138.88653 
L 774.040909 139.311279 
L 774.396 139.51972 
L 774.751091 139.04088 
L 781.142727 134.567206 
L 782.208 134.264614 
L 783.273273 134.312412 
L 783.983455 134.541505 
L 784.693636 134.937179 
L 785.758909 135.78882 
L 787.534364 137.70469 
L 789.664909 140.051738 
L 791.085273 141.207027 
L 792.150545 141.735611 
L 793.215818 141.98365 
L 794.281091 141.948944 
L 795.346364 141.698692 
L 796.766727 141.088639 
L 798.897273 139.807851 
L 805.288909 135.557503 
L 807.419455 134.467194 
L 809.194909 133.772241 
L 810.970364 133.283004 
L 812.745818 132.984925 
L 814.876364 132.869715 
L 817.006909 132.982951 
L 819.492545 133.34409 
L 822.333273 133.979902 
L 826.949455 135.261056 
L 833.341091 137.010922 
L 837.602182 137.945858 
L 841.508182 138.580672 
L 845.769273 139.018089 
L 850.740545 139.257615 
L 862.813636 139.547268 
L 863.168727 139.705944 
L 863.878909 140.710665 
L 864.944182 142.126239 
L 866.364545 144.379662 
L 868.14 147.688833 
L 869.915455 151.47332 
L 872.046 156.559931 
L 874.176545 162.209047 
L 876.307091 168.470278 
L 878.437636 175.480902 
L 880.213091 182.053273 
L 881.988545 189.453615 
L 883.764 197.85239 
L 885.539455 207.433937 
L 887.314909 218.365118 
L 889.090364 230.743727 
L 890.865818 244.593474 
L 892.996364 263.055129 
L 895.482 286.674045 
L 904.004182 370.010472 
L 906.489818 390.932128 
L 906.844909 393.775767 
L 907.2 203.124247 
L 907.2 203.124247 
" style="fill:none;stroke:#ff7f0e;stroke-linecap:square;stroke-width:4;"/>
   </g>
   <g id="line2d_33">
    <path clip-path="url(#pe839673f0f)" d="M 551.754 386.206142 
L 552.109091 388.888064 
L 552.464182 208.151836 
L 558.855818 160.783417 
L 559.921091 154.763211 
L 560.986364 149.97938 
L 561.696545 147.513506 
L 562.406727 145.619312 
L 563.116909 144.300052 
L 563.827091 143.546219 
L 564.182182 143.379365 
L 564.537273 143.349356 
L 564.892364 143.455343 
L 565.602545 144.049196 
L 566.312727 145.110866 
L 567.022909 146.585244 
L 568.088182 149.458763 
L 569.153455 152.983064 
L 570.928909 159.766843 
L 573.059455 167.813618 
L 574.124727 171.136733 
L 575.19 173.703396 
L 575.900182 174.920067 
L 576.610364 175.703473 
L 577.320545 176.033969 
L 577.675636 176.029864 
L 578.385818 175.678695 
L 579.096 174.897566 
L 579.806182 173.715506 
L 580.871455 171.272861 
L 581.936727 168.156326 
L 583.357091 163.154505 
L 587.618182 146.994836 
L 588.328364 145.295608 
L 589.038545 144.120703 
L 589.748727 143.42366 
L 590.458909 143.097265 
L 591.169091 143.006899 
L 592.234364 143.08251 
L 593.654727 143.4309 
L 594.72 143.970348 
L 595.785273 144.839708 
L 596.850545 145.866709 
L 597.205636 145.525457 
L 598.981091 144.907407 
L 605.727818 142.384062 
L 608.568545 141.649431 
L 612.119455 140.98369 
L 614.25 140.77579 
L 615.670364 140.798836 
L 617.090727 141.012826 
L 618.511091 141.442964 
L 619.931455 142.080956 
L 621.706909 143.115345 
L 625.257818 145.528398 
L 627.743455 147.089908 
L 629.518909 147.97435 
L 631.294364 148.606287 
L 633.069818 148.969935 
L 634.845273 149.080448 
L 636.620727 148.978795 
L 639.106364 148.587526 
L 646.208182 147.300891 
L 649.759091 147.098586 
L 652.954909 147.169831 
L 658.281273 147.554153 
L 664.317818 147.955976 
L 669.289091 147.954415 
L 674.615455 147.54419 
L 679.941818 146.964649 
L 683.492727 146.653612 
L 685.268182 146.542814 
L 685.623273 146.663768 
L 686.333455 147.556745 
L 687.398727 148.844731 
L 688.819091 150.977881 
L 690.239455 153.517517 
L 692.014909 157.197728 
L 694.145455 162.261469 
L 696.276 167.970414 
L 698.406545 174.314217 
L 700.537091 181.374851 
L 702.667636 189.328107 
L 704.443091 196.781005 
L 706.218545 205.154871 
L 707.994 214.589515 
L 709.769455 225.218516 
L 711.544909 237.123782 
L 713.675455 253.086493 
L 715.806 270.713639 
L 719.001818 299.417403 
L 724.683273 351.294165 
L 727.524 374.946274 
L 729.654545 391.703271 
L 730.009636 205.252176 
L 735.691091 161.467373 
L 736.756364 154.983189 
L 737.821636 149.808631 
L 738.886909 146.028791 
L 739.597091 144.221437 
L 740.307273 142.953123 
L 741.017455 142.195297 
L 741.372545 141.995818 
L 742.082727 141.972845 
L 742.792909 142.438887 
L 743.503091 143.381976 
L 744.213273 144.80167 
L 744.923455 146.667819 
L 745.988727 150.214275 
L 747.409091 155.98974 
L 750.96 171.178058 
L 752.025273 174.689878 
L 752.735455 176.527748 
L 753.445636 177.899407 
L 754.155818 178.75604 
L 754.510909 178.983552 
L 754.866 179.069225 
L 755.221091 179.01957 
L 755.576182 178.836897 
L 756.286364 178.055408 
L 756.996545 176.769649 
L 757.706727 175.021782 
L 758.772 171.732043 
L 762.678 158.643097 
L 764.098364 155.086645 
L 766.939091 148.85182 
L 768.359455 146.098898 
L 769.424727 144.496782 
L 770.134909 143.706535 
L 770.845091 143.159206 
L 771.555273 142.852932 
L 772.265455 142.79371 
L 772.975636 142.983074 
L 773.685818 143.428845 
L 774.040909 143.754036 
L 774.396 143.918365 
L 774.751091 143.527083 
L 775.461273 143.243699 
L 777.236727 142.698766 
L 787.179273 140.34658 
L 788.599636 140.355596 
L 790.02 140.671893 
L 791.440364 141.297853 
L 793.215818 142.420115 
L 798.897273 146.321881 
L 800.317636 146.917069 
L 801.738 147.2678 
L 803.158364 147.381616 
L 804.578727 147.27628 
L 806.354182 146.89769 
L 808.484727 146.200122 
L 813.811091 144.327607 
L 815.941636 143.835245 
L 818.072182 143.565465 
L 820.202727 143.523781 
L 822.688364 143.715867 
L 825.529091 144.174282 
L 830.500364 145.275586 
L 835.116545 146.240964 
L 838.312364 146.676358 
L 841.153091 146.831005 
L 843.993818 146.756724 
L 847.189636 146.444644 
L 858.907636 145.027065 
L 862.458545 144.979822 
L 862.813636 144.982962 
L 863.168727 145.12398 
L 863.878909 146.064587 
L 864.944182 147.425971 
L 866.364545 149.649734 
L 867.784909 152.27271 
L 869.560364 156.036807 
L 871.690909 161.173783 
L 873.821455 166.909416 
L 875.952 173.237593 
L 878.082545 180.252249 
L 880.213091 188.111283 
L 881.988545 195.472224 
L 883.764 203.741134 
L 885.539455 213.055653 
L 887.314909 223.569516 
L 889.090364 235.370414 
L 891.220909 251.241228 
L 893.351455 268.819227 
L 896.192182 294.243367 
L 902.583818 352.413057 
L 905.069455 372.793591 
L 906.844909 386.488572 
L 907.2 210.538267 
L 907.2 210.538267 
" style="fill:none;stroke:#2ca02c;stroke-linecap:square;stroke-width:4;"/>
   </g>
   <g id="line2d_34">
    <path clip-path="url(#pe839673f0f)" d="M 551.754 378.32259 
L 552.109091 380.710737 
L 552.464182 216.635832 
L 556.370182 191.474351 
L 558.500727 178.707593 
L 559.921091 171.333041 
L 560.986364 166.791501 
L 562.051636 163.324732 
L 562.761818 161.689668 
L 563.472 160.622893 
L 563.827091 160.30637 
L 564.182182 160.139731 
L 564.537273 160.117749 
L 564.892364 160.237757 
L 565.602545 160.881446 
L 566.312727 162.006903 
L 567.378 164.367375 
L 572.349273 176.745956 
L 573.414545 178.592166 
L 574.124727 179.482972 
L 574.834909 180.051683 
L 575.545091 180.261974 
L 576.255273 180.086104 
L 576.965455 179.524409 
L 577.675636 178.592371 
L 578.740909 176.614458 
L 579.806182 174.123562 
L 581.581636 169.262401 
L 584.067273 161.639663 
L 588.328364 148.378292 
L 590.103818 143.593514 
L 591.524182 140.231668 
L 592.589455 138.165511 
L 593.299636 137.165381 
L 594.009818 136.604566 
L 594.364909 136.52335 
L 594.72 136.589618 
L 595.075091 136.813353 
L 595.785273 137.744967 
L 596.495455 139.31178 
L 596.850545 140.122099 
L 597.205636 140.524754 
L 598.270909 142.64967 
L 600.401455 147.039249 
L 601.466727 148.794848 
L 602.532 150.131004 
L 603.597273 151.054253 
L 604.662545 151.618173 
L 605.727818 151.892264 
L 606.793091 151.949151 
L 608.213455 151.793148 
L 610.344 151.274434 
L 617.800909 149.195876 
L 620.641636 148.770204 
L 623.837455 148.549085 
L 627.033273 148.555548 
L 630.229091 148.806503 
L 633.424909 149.292879 
L 637.686 150.202909 
L 644.787818 151.778039 
L 648.338727 152.287508 
L 651.179455 152.476331 
L 654.020182 152.444569 
L 657.216 152.195691 
L 668.934 151.042159 
L 673.195091 151.132108 
L 678.876545 151.68485 
L 684.913091 152.405746 
L 685.268182 152.433633 
L 685.623273 152.594944 
L 686.688545 153.93254 
L 688.108909 155.895599 
L 689.529273 158.254379 
L 691.304727 161.671179 
L 693.435273 166.353334 
L 695.920909 172.500201 
L 698.406545 179.370358 
L 700.537091 185.928581 
L 702.667636 193.295948 
L 704.443091 200.203631 
L 706.218545 207.986263 
L 707.994 216.790548 
L 709.769455 226.747753 
L 711.544909 237.937872 
L 713.320364 250.353888 
L 715.450909 266.728609 
L 718.291636 290.440308 
L 724.683273 344.793187 
L 727.168909 363.696354 
L 729.654545 380.969489 
L 730.009636 216.377038 
L 733.915636 191.024928 
L 736.046182 178.041674 
L 737.466545 170.557955 
L 738.531818 165.954181 
L 739.597091 162.484333 
L 740.307273 160.854674 
L 741.017455 159.804259 
L 741.372545 159.496234 
L 741.727636 159.34906 
L 742.082727 159.334374 
L 742.437818 159.470715 
L 743.148 160.136911 
L 743.858182 161.281295 
L 744.923455 163.648486 
L 747.409091 170.196146 
L 749.184545 174.566445 
L 750.249818 176.732907 
L 751.315091 178.369822 
L 752.025273 179.107726 
L 752.735455 179.502242 
L 753.445636 179.529575 
L 754.155818 179.170972 
L 754.866 178.439599 
L 755.576182 177.388115 
L 756.641455 175.276964 
L 758.061818 171.810004 
L 759.837273 166.784241 
L 762.322909 159.028096 
L 765.518727 149.194188 
L 767.649273 143.407605 
L 769.069636 140.050411 
L 770.134909 138.062539 
L 770.845091 137.177275 
L 771.555273 136.78689 
L 771.910364 136.811612 
L 772.265455 136.991294 
L 772.620545 137.338604 
L 773.330727 138.512098 
L 775.461273 143.194108 
L 777.591818 147.603355 
L 778.657091 149.282786 
L 779.722364 150.50544 
L 780.787636 151.275784 
L 781.852909 151.684856 
L 782.918182 151.798874 
L 783.983455 151.719254 
L 785.758909 151.303241 
L 788.244545 150.486607 
L 791.440364 149.42994 
L 794.636182 148.66024 
L 796.766727 148.338978 
L 799.252364 148.131741 
L 803.158364 148.105108 
L 806.354182 148.309394 
L 809.905091 148.767943 
L 814.166182 149.570557 
L 823.043455 151.336324 
L 826.594364 151.731216 
L 829.435091 151.82801 
L 832.630909 151.705804 
L 836.892 151.284143 
L 843.283636 150.595617 
L 846.834545 150.455532 
L 850.385455 150.570088 
L 854.291455 150.949267 
L 862.813636 152.101237 
L 863.168727 152.267792 
L 864.234 153.626756 
L 865.654364 155.62464 
L 867.074727 158.012172 
L 868.850182 161.466049 
L 870.980727 166.19055 
L 873.111273 171.452472 
L 875.596909 178.251867 
L 877.727455 184.728704 
L 879.858 191.970394 
L 881.633455 198.750772 
L 883.408909 206.364415 
L 885.184364 214.971353 
L 886.959818 224.704002 
L 888.735273 235.652 
L 890.865818 250.414288 
L 892.996364 266.783411 
L 895.837091 290.488466 
L 902.228727 344.781668 
L 904.714364 363.668128 
L 906.844909 378.538414 
L 907.2 218.790565 
L 907.2 218.790565 
" style="fill:none;stroke:#d62728;stroke-linecap:square;stroke-width:4;"/>
   </g>
   <g id="line2d_35">
    <path clip-path="url(#pe839673f0f)" d="M 552.109091 299.858824 
L 907.2 299.858824 
" style="fill:none;stroke:#000000;stroke-dasharray:3.2,0.8,0.5,0.8;stroke-dashoffset:0;stroke-width:0.5;"/>
   </g>
   <g id="line2d_36">
    <path clip-path="url(#pe839673f0f)" d="M 729.654545 345.6 
L 729.654545 86.4 
" style="fill:none;stroke:#000000;stroke-dasharray:3.2,0.8,0.5,0.8;stroke-dashoffset:0;stroke-width:0.5;"/>
   </g>
   <g id="patch_8">
    <path d="M 552.109091 345.6 
L 552.109091 86.4 
" style="fill:none;stroke:#000000;stroke-linecap:square;stroke-linejoin:miter;stroke-width:0.8;"/>
   </g>
   <g id="patch_9">
    <path d="M 907.2 345.6 
L 907.2 86.4 
" style="fill:none;stroke:#000000;stroke-linecap:square;stroke-linejoin:miter;stroke-width:0.8;"/>
   </g>
   <g id="patch_10">
    <path d="M 552.109091 345.6 
L 907.2 345.6 
" style="fill:none;stroke:#000000;stroke-linecap:square;stroke-linejoin:miter;stroke-width:0.8;"/>
   </g>
   <g id="patch_11">
    <path d="M 552.109091 86.4 
L 907.2 86.4 
" style="fill:none;stroke:#000000;stroke-linecap:square;stroke-linejoin:miter;stroke-width:0.8;"/>
   </g>
  </g>
 </g>
 <defs>
  <clipPath id="pf3cba62b9a">
   <rect height="259.2" width="355.090909" x="126" y="86.4"/>
  </clipPath>
  <clipPath id="pe839673f0f">
   <rect height="259.2" width="355.090909" x="552.109091" y="86.4"/>
  </clipPath>
 </defs>
</svg>
