<?xml version="1.0" encoding="utf-8" standalone="no"?>
<!DOCTYPE svg PUBLIC "-//W3C//DTD SVG 1.1//EN"
  "http://www.w3.org/Graphics/SVG/1.1/DTD/svg11.dtd">
<!-- Created with matplotlib (https://matplotlib.org/) -->
<svg height="432pt" version="1.1" viewBox="0 0 1008 432" width="1008pt" xmlns="http://www.w3.org/2000/svg" xmlns:xlink="http://www.w3.org/1999/xlink">
 <metadata>
  <rdf:RDF xmlns:cc="http://creativecommons.org/ns#" xmlns:dc="http://purl.org/dc/elements/1.1/" xmlns:rdf="http://www.w3.org/1999/02/22-rdf-syntax-ns#">
   <cc:Work>
    <dc:type rdf:resource="http://purl.org/dc/dcmitype/StillImage"/>
    <dc:date>2022-01-13T10:27:28.161915</dc:date>
    <dc:format>image/svg+xml</dc:format>
    <dc:creator>
     <cc:Agent>
      <dc:title>Matplotlib v3.3.4, https://matplotlib.org/</dc:title>
     </cc:Agent>
    </dc:creator>
   </cc:Work>
  </rdf:RDF>
 </metadata>
 <defs>
  <style type="text/css">*{stroke-linecap:butt;stroke-linejoin:round;}</style>
 </defs>
 <g id="figure_1">
  <g id="patch_1">
   <path d="M 0 432 
L 1008 432 
L 1008 0 
L 0 0 
z
" style="fill:#ffffff;"/>
  </g>
  <g id="axes_1">
   <g id="patch_2">
    <path d="M 126 345.6 
L 481.090909 345.6 
L 481.090909 86.4 
L 126 86.4 
z
" style="fill:#ffffff;"/>
   </g>
   <g id="matplotlib.axis_1">
    <g id="xtick_1">
     <g id="line2d_1">
      <defs>
       <path d="M 0 0 
L 0 3.5 
" id="m6804f8df82" style="stroke:#000000;stroke-width:0.8;"/>
      </defs>
      <g>
       <use style="fill:#ffffff;stroke:#000000;stroke-width:0.8;" x="126" xlink:href="#m6804f8df82" y="345.6"/>
      </g>
     </g>
     <g id="text_1">
      <!-- 4.00 -->
      <g transform="translate(105 368.99125)scale(0.24 -0.24)">
       <defs>
        <path d="M 47.296875 16.703125 
L 37 16.703125 
L 37 0 
L 29.203125 0 
L 29.203125 16.703125 
L 1.203125 16.703125 
L 1.203125 23.09375 
L 32.59375 67.59375 
L 37 67.59375 
L 37 23.09375 
L 47.296875 23.09375 
z
M 29.203125 23.09375 
L 29.203125 57.40625 
L 5.203125 23.09375 
z
" id="STIXGeneral-Regular-52"/>
        <path d="M 18.09375 4.296875 
Q 18.09375 2.09375 16.4375 0.5 
Q 14.796875 -1.09375 12.5 -1.09375 
Q 10.203125 -1.09375 8.59375 0.5 
Q 7 2.09375 7 4.390625 
Q 7 6.703125 8.640625 8.34375 
Q 10.296875 10 12.59375 10 
Q 14.796875 10 16.4375 8.296875 
Q 18.09375 6.59375 18.09375 4.296875 
z
" id="STIXGeneral-Regular-46"/>
        <path d="M 47.59375 33 
Q 47.59375 26.296875 46.296875 20.34375 
Q 45 14.40625 42.453125 9.40625 
Q 39.90625 4.40625 35.40625 1.5 
Q 30.90625 -1.40625 25 -1.40625 
Q 18.90625 -1.40625 14.296875 1.6875 
Q 9.703125 4.796875 7.203125 10 
Q 4.703125 15.203125 3.546875 21.09375 
Q 2.40625 27 2.40625 33.59375 
Q 2.40625 42.90625 4.703125 50.34375 
Q 7 57.796875 12.34375 62.6875 
Q 17.703125 67.59375 25.40625 67.59375 
Q 35.203125 67.59375 41.390625 58 
Q 47.59375 48.40625 47.59375 33 
z
M 38 32.5 
Q 38 48.296875 34.640625 56.640625 
Q 31.296875 65 24.796875 65 
Q 18.59375 65 15.296875 56.59375 
Q 12 48.203125 12 32.90625 
Q 12 17.5 15.296875 9.34375 
Q 18.59375 1.203125 25 1.203125 
Q 31.296875 1.203125 34.640625 9.34375 
Q 38 17.5 38 32.5 
z
" id="STIXGeneral-Regular-48"/>
       </defs>
       <use xlink:href="#STIXGeneral-Regular-52"/>
       <use x="49.999985" xlink:href="#STIXGeneral-Regular-46"/>
       <use x="74.999969" xlink:href="#STIXGeneral-Regular-48"/>
       <use x="124.999954" xlink:href="#STIXGeneral-Regular-48"/>
      </g>
     </g>
    </g>
    <g id="xtick_2">
     <g id="line2d_2">
      <g>
       <use style="fill:#ffffff;stroke:#000000;stroke-width:0.8;" x="214.772727" xlink:href="#m6804f8df82" y="345.6"/>
      </g>
     </g>
     <g id="text_2">
      <!-- 4.25 -->
      <g transform="translate(193.772727 368.99125)scale(0.24 -0.24)">
       <defs>
        <path d="M 47.40625 13.703125 
L 42 0 
L 2.90625 0 
L 2.90625 1.203125 
L 20.703125 20.09375 
Q 27.703125 27.40625 30.703125 33.5 
Q 33.703125 39.59375 33.703125 46.09375 
Q 33.703125 52.796875 30 56.5 
Q 26.296875 60.203125 19.796875 60.203125 
Q 14.40625 60.203125 11.25 57.390625 
Q 8.09375 54.59375 5.09375 47.203125 
L 3 47.703125 
Q 4.703125 57 9.84375 62.296875 
Q 15 67.59375 23.796875 67.59375 
Q 32.09375 67.59375 37.1875 62.59375 
Q 42.296875 57.59375 42.296875 50 
Q 42.296875 38.703125 29.5 25.203125 
L 13 7.59375 
L 36.40625 7.59375 
Q 39.703125 7.59375 41.640625 8.890625 
Q 43.59375 10.203125 46 14.296875 
z
" id="STIXGeneral-Regular-50"/>
        <path d="M 43.796875 68.09375 
L 40.203125 59.59375 
Q 39.59375 58.296875 37.5 58.296875 
L 18.09375 58.296875 
L 14.09375 49.796875 
Q 25.09375 47.703125 30 45.25 
Q 34.90625 42.796875 39.09375 37 
Q 42.59375 32.203125 42.59375 24.296875 
Q 42.59375 17.09375 40.25 12.1875 
Q 37.90625 7.296875 32.796875 3.5 
Q 26 -1.40625 15.796875 -1.40625 
Q 10.09375 -1.40625 6.59375 0.296875 
Q 3.09375 2 3.09375 4.796875 
Q 3.09375 8.59375 7.59375 8.59375 
Q 11.203125 8.59375 15 5.5 
Q 18.90625 2.296875 22.09375 2.296875 
Q 27.296875 2.296875 31.4375 7.5 
Q 35.59375 12.703125 35.59375 19.203125 
Q 35.59375 28.796875 28.90625 34.203125 
Q 20.203125 41.203125 7.59375 41.203125 
Q 6.40625 41.203125 6.40625 42 
L 6.5 42.5 
L 17.40625 66.203125 
L 38.09375 66.203125 
Q 39.796875 66.203125 40.75 66.703125 
Q 41.703125 67.203125 42.90625 68.796875 
z
" id="STIXGeneral-Regular-53"/>
       </defs>
       <use xlink:href="#STIXGeneral-Regular-52"/>
       <use x="49.999985" xlink:href="#STIXGeneral-Regular-46"/>
       <use x="74.999969" xlink:href="#STIXGeneral-Regular-50"/>
       <use x="124.999954" xlink:href="#STIXGeneral-Regular-53"/>
      </g>
     </g>
    </g>
    <g id="xtick_3">
     <g id="line2d_3">
      <g>
       <use style="fill:#ffffff;stroke:#000000;stroke-width:0.8;" x="303.545455" xlink:href="#m6804f8df82" y="345.6"/>
      </g>
     </g>
     <g id="text_3">
      <!-- 4.50 -->
      <g transform="translate(282.545455 368.99125)scale(0.24 -0.24)">
       <use xlink:href="#STIXGeneral-Regular-52"/>
       <use x="49.999985" xlink:href="#STIXGeneral-Regular-46"/>
       <use x="74.999969" xlink:href="#STIXGeneral-Regular-53"/>
       <use x="124.999954" xlink:href="#STIXGeneral-Regular-48"/>
      </g>
     </g>
    </g>
    <g id="xtick_4">
     <g id="line2d_4">
      <g>
       <use style="fill:#ffffff;stroke:#000000;stroke-width:0.8;" x="392.318182" xlink:href="#m6804f8df82" y="345.6"/>
      </g>
     </g>
     <g id="text_4">
      <!-- 4.75 -->
      <g transform="translate(371.318182 368.99125)scale(0.24 -0.24)">
       <defs>
        <path d="M 44.90625 64.59375 
L 23.703125 -0.796875 
L 17.203125 -0.796875 
L 37 58.796875 
L 15.5 58.796875 
Q 11.203125 58.796875 9.09375 57.296875 
Q 7 55.796875 3.796875 50.59375 
L 2 51.5 
L 8 66.203125 
L 44.90625 66.203125 
z
" id="STIXGeneral-Regular-55"/>
       </defs>
       <use xlink:href="#STIXGeneral-Regular-52"/>
       <use x="49.999985" xlink:href="#STIXGeneral-Regular-46"/>
       <use x="74.999969" xlink:href="#STIXGeneral-Regular-55"/>
       <use x="124.999954" xlink:href="#STIXGeneral-Regular-53"/>
      </g>
     </g>
    </g>
    <g id="xtick_5">
     <g id="line2d_5">
      <g>
       <use style="fill:#ffffff;stroke:#000000;stroke-width:0.8;" x="481.090909" xlink:href="#m6804f8df82" y="345.6"/>
      </g>
     </g>
     <g id="text_5">
      <!-- 5.00 -->
      <g transform="translate(460.090909 368.99125)scale(0.24 -0.24)">
       <use xlink:href="#STIXGeneral-Regular-53"/>
       <use x="49.999985" xlink:href="#STIXGeneral-Regular-46"/>
       <use x="74.999969" xlink:href="#STIXGeneral-Regular-48"/>
       <use x="124.999954" xlink:href="#STIXGeneral-Regular-48"/>
      </g>
     </g>
    </g>
    <g id="text_6">
     <!-- $\^t$ -->
     <g transform="translate(300.185455 394.59125)scale(0.24 -0.24)">
      <defs>
       <path d="M -7.5 50.703125 
L -10.90625 50.703125 
L -23.09375 61 
L -35.203125 50.703125 
L -38.59375 50.703125 
L -26.203125 67.40625 
L -20 67.40625 
z
" id="STIXGeneral-Regular-770"/>
       <path d="M 29.59375 42.796875 
L 29.09375 39.59375 
L 20.703125 39.59375 
L 12 6.796875 
Q 11.796875 6 11.796875 5.40625 
Q 11.796875 3.796875 13.296875 3.796875 
Q 14.5 3.796875 16.09375 5.34375 
Q 17.703125 6.90625 21.40625 11.703125 
L 22.703125 11 
Q 18.09375 4 15.140625 1.453125 
Q 12.203125 -1.09375 8.40625 -1.09375 
Q 3.796875 -1.09375 3.796875 2.59375 
Q 3.796875 3.59375 5.40625 10 
L 13.203125 39.59375 
L 5.703125 39.59375 
L 5.59375 40.203125 
Q 5.59375 42 8.90625 42.703125 
Q 11.40625 43.296875 15.5 46.546875 
Q 19.59375 49.796875 22.203125 53.703125 
Q 22.796875 54.59375 23.59375 54.59375 
Q 24.5 54.59375 24.5 53.796875 
Q 24.5 53.296875 24.40625 53.09375 
L 21.59375 42.796875 
z
" id="STIXGeneral-Italic-116"/>
      </defs>
      <use transform="translate(39.042969 16.59375)" xlink:href="#STIXGeneral-Regular-770"/>
      <use transform="translate(0 0.203125)" xlink:href="#STIXGeneral-Italic-116"/>
     </g>
    </g>
   </g>
   <g id="matplotlib.axis_2">
    <g id="ytick_1">
     <g id="line2d_6">
      <defs>
       <path d="M 0 0 
L -3.5 0 
" id="mf2e653282b" style="stroke:#000000;stroke-width:0.8;"/>
      </defs>
      <g>
       <use style="fill:#ffffff;stroke:#000000;stroke-width:0.8;" x="126" xlink:href="#mf2e653282b" y="299.858824"/>
      </g>
     </g>
     <g id="text_7">
      <!-- 0 -->
      <g transform="translate(107 308.054449)scale(0.24 -0.24)">
       <use xlink:href="#STIXGeneral-Regular-48"/>
      </g>
     </g>
    </g>
    <g id="ytick_2">
     <g id="line2d_7">
      <g>
       <use style="fill:#ffffff;stroke:#000000;stroke-width:0.8;" x="126" xlink:href="#mf2e653282b" y="223.623529"/>
      </g>
     </g>
     <g id="text_8">
      <!-- 1 -->
      <g transform="translate(107 231.819154)scale(0.24 -0.24)">
       <defs>
        <path d="M 39.40625 0 
L 11.796875 0 
L 11.796875 1.5 
Q 17.296875 1.796875 19.296875 3.546875 
Q 21.296875 5.296875 21.296875 9.5 
L 21.296875 54.40625 
Q 21.296875 59.296875 18.296875 59.296875 
Q 16.90625 59.296875 13.796875 58.09375 
L 11.09375 57.09375 
L 11.09375 58.5 
L 29 67.59375 
L 29.90625 67.296875 
L 29.90625 7.59375 
Q 29.90625 4.296875 31.90625 2.890625 
Q 33.90625 1.5 39.40625 1.5 
z
" id="STIXGeneral-Regular-49"/>
       </defs>
       <use xlink:href="#STIXGeneral-Regular-49"/>
      </g>
     </g>
    </g>
    <g id="ytick_3">
     <g id="line2d_8">
      <g>
       <use style="fill:#ffffff;stroke:#000000;stroke-width:0.8;" x="126" xlink:href="#mf2e653282b" y="147.388235"/>
      </g>
     </g>
     <g id="text_9">
      <!-- 2 -->
      <g transform="translate(107 155.58386)scale(0.24 -0.24)">
       <use xlink:href="#STIXGeneral-Regular-50"/>
      </g>
     </g>
    </g>
    <g id="text_10">
     <!-- $C_L$ -->
     <g transform="translate(97.79125 229.32)rotate(-90)scale(0.24 -0.24)">
      <defs>
       <path d="M 68.90625 66.40625 
L 65.203125 46.40625 
L 63.40625 46.703125 
Q 61.59375 63 48.5 63 
Q 37.59375 63 28.59375 53.296875 
Q 23.296875 47.703125 20.546875 39.703125 
Q 17.796875 31.703125 17.796875 23.203125 
Q 17.796875 2.703125 35.296875 2.703125 
Q 41.5 2.703125 46.640625 5.296875 
Q 51.796875 7.90625 58.203125 14.59375 
L 60 13.09375 
Q 53.296875 5.203125 46.84375 1.703125 
Q 40.40625 -1.796875 32.703125 -1.796875 
Q 21 -1.796875 13.796875 5.140625 
Q 6.59375 12.09375 6.59375 24.296875 
Q 6.59375 34.59375 11.6875 43.9375 
Q 16.796875 53.296875 25.296875 59.296875 
Q 35.5 66.59375 47.203125 66.59375 
Q 54.09375 66.59375 58.90625 64.90625 
Q 60.90625 64.203125 63 64.203125 
Q 65.703125 64.203125 66.796875 66.40625 
z
" id="STIXGeneral-Italic-67"/>
       <path d="M 55.90625 18 
L 50.09375 0 
L -0.796875 0 
L -0.796875 1.59375 
Q 3.40625 2 4.703125 3.296875 
Q 6 4.59375 7.40625 9.40625 
L 19.59375 53.203125 
Q 20.703125 56.90625 20.703125 59.40625 
Q 20.703125 61.59375 19.140625 62.5 
Q 17.59375 63.40625 13 63.703125 
L 13 65.296875 
L 40.296875 65.296875 
L 40.296875 63.703125 
Q 35.703125 63.40625 33.546875 61.796875 
Q 31.40625 60.203125 30.203125 56 
L 18.203125 13.09375 
Q 17.203125 9.296875 17.203125 7.703125 
Q 17.203125 5.40625 19.390625 4.5 
Q 21.59375 3.59375 27.703125 3.59375 
Q 35.40625 3.59375 38.75 4.296875 
Q 42.09375 5 45.703125 7.40625 
Q 49.796875 10.09375 53.90625 18.59375 
z
" id="STIXGeneral-Italic-76"/>
      </defs>
      <use transform="translate(0 0.40625)" xlink:href="#STIXGeneral-Italic-67"/>
      <use transform="translate(66.699997 -12.821875)scale(0.7)" xlink:href="#STIXGeneral-Italic-76"/>
     </g>
    </g>
   </g>
   <g id="line2d_9">
    <path clip-path="url(#p02976ec78e)" d="M 125.644909 307.161112 
L 126.710182 304.067331 
L 128.130545 298.968288 
L 129.906 291.52981 
L 135.232364 268.409514 
L 137.007818 262.086934 
L 138.428182 257.817448 
L 139.848545 254.235986 
L 141.624 250.501242 
L 145.885091 242.151509 
L 147.305455 238.646158 
L 148.725818 234.507462 
L 150.146182 229.69987 
L 151.921636 222.906857 
L 159.023455 194.64994 
L 160.443818 190.177371 
L 161.864182 186.483956 
L 162.929455 184.322856 
L 163.994727 182.754546 
L 164.704909 182.074065 
L 165.415091 181.707371 
L 166.125273 181.673288 
L 166.835455 181.989877 
L 167.545636 182.672079 
L 168.255818 183.736506 
L 168.966 185.197487 
L 169.676182 187.065908 
L 170.386364 189.379897 
L 170.741455 189.735161 
L 171.096545 187.600021 
L 171.806727 185.66598 
L 173.582182 181.460542 
L 175.357636 177.862257 
L 177.133091 174.826127 
L 178.908545 172.283428 
L 180.684 170.163427 
L 182.459455 168.383314 
L 184.59 166.594298 
L 187.075636 164.850297 
L 189.916364 163.151071 
L 193.467273 161.294946 
L 197.728364 159.305254 
L 203.054727 157.027808 
L 222.229636 149.301262 
L 228.976364 146.875619 
L 233.592545 145.439527 
L 242.469818 143.388466 
L 244.245273 143.072418 
L 253.477636 142.129288 
L 264.485455 142.25188 
L 265.905818 142.551726 
L 267.326182 143.150596 
L 268.746545 144.163303 
L 269.811818 145.266293 
L 270.877091 146.734143 
L 271.942364 148.614927 
L 273.007636 150.9729 
L 274.072909 153.84818 
L 275.138182 157.29858 
L 276.203455 161.357986 
L 277.623818 167.796268 
L 279.044182 175.429138 
L 280.464545 184.237485 
L 282.24 196.814387 
L 284.370545 213.861844 
L 287.211273 238.658298 
L 290.762182 269.419447 
L 292.537636 283.03007 
L 293.958 292.399498 
L 295.378364 300.110292 
L 296.443636 304.651236 
L 297.508909 308.082562 
L 298.219091 309.725291 
L 298.929273 310.855311 
L 299.639455 311.480897 
L 299.994545 311.604812 
L 300.349636 311.610053 
L 301.059818 311.264321 
L 301.77 310.470353 
L 302.480182 309.255859 
L 303.190364 307.657399 
L 304.255636 304.624073 
L 305.676 299.614352 
L 307.451455 292.288886 
L 312.777818 269.449827 
L 314.198182 264.343812 
L 315.618545 259.927656 
L 317.038909 256.189144 
L 318.459273 253.034023 
L 320.944909 248.252557 
L 322.720364 244.73425 
L 324.140727 241.448932 
L 325.561091 237.572109 
L 326.981455 233.018001 
L 328.756909 226.430036 
L 331.242545 216.129671 
L 335.148545 199.947118 
L 336.924 193.508449 
L 338.344364 189.098309 
L 339.764727 185.525363 
L 340.83 183.460555 
L 341.540182 182.43821 
L 342.250364 181.707272 
L 342.960545 181.296607 
L 343.670727 181.220519 
L 344.380909 181.493275 
L 345.091091 182.140108 
L 345.801273 183.16384 
L 346.511455 184.591479 
L 347.221636 186.415287 
L 347.931818 188.698823 
L 348.286909 189.038427 
L 348.642 186.892137 
L 349.352182 184.935955 
L 350.772545 181.468785 
L 352.192909 178.402763 
L 353.613273 175.712355 
L 355.033636 173.36831 
L 356.454 171.332491 
L 357.874364 169.565259 
L 359.294727 168.028099 
L 360.715091 166.679945 
L 362.135455 165.48438 
L 363.910909 164.142267 
L 368.172 161.481567 
L 375.273818 157.978094 
L 381.310364 155.495678 
L 388.767273 152.697553 
L 402.260727 147.905848 
L 408.652364 145.932006 
L 413.978727 144.558622 
L 418.239818 143.669581 
L 422.500909 142.977859 
L 426.406909 142.520924 
L 431.023091 142.220747 
L 434.929091 142.169047 
L 441.675818 142.394312 
L 443.096182 142.656334 
L 444.516545 143.18876 
L 445.581818 143.832999 
L 446.647091 144.742103 
L 447.712364 145.97373 
L 448.777636 147.579759 
L 449.842909 149.626336 
L 450.908182 152.159749 
L 451.973455 155.239077 
L 453.038727 158.905809 
L 454.459091 164.775816 
L 455.879455 171.819202 
L 457.299818 180.053422 
L 459.075273 191.96529 
L 460.850727 205.490104 
L 463.336364 226.461517 
L 468.662727 272.598604 
L 470.438182 285.788659 
L 471.858545 294.726817 
L 472.923818 300.310467 
L 473.989091 304.824435 
L 475.054364 308.214864 
L 475.764545 309.834278 
L 476.474727 310.938674 
L 477.184909 311.535632 
L 477.54 311.648528 
L 477.895091 311.640476 
L 478.605273 311.270401 
L 479.315455 310.451495 
L 480.025636 309.215477 
L 480.735818 307.596332 
L 481.090909 306.655265 
L 481.090909 306.655265 
" style="fill:none;stroke:#1f77b4;stroke-linecap:square;stroke-width:4;"/>
   </g>
   <g id="line2d_10">
    <path clip-path="url(#p02976ec78e)" d="M 125.644909 299.969866 
L 127.065273 295.228144 
L 128.840727 288.423583 
L 134.877273 264.354538 
L 136.652727 258.423603 
L 138.428182 253.346891 
L 139.848545 249.892929 
L 141.979091 245.398162 
L 145.174909 238.808044 
L 146.950364 234.621989 
L 148.725818 229.911415 
L 150.501273 224.613364 
L 152.631818 217.448633 
L 154.762364 209.478145 
L 157.958182 196.552034 
L 161.154 183.768183 
L 162.929455 177.458379 
L 164.349818 173.153006 
L 165.415091 170.492173 
L 166.480364 168.41541 
L 167.190545 167.394263 
L 167.900727 166.691015 
L 168.610909 166.328527 
L 169.321091 166.323531 
L 170.031273 166.693917 
L 170.386364 167.037744 
L 170.741455 166.933956 
L 171.096545 165.466815 
L 171.806727 163.902385 
L 173.227091 161.311826 
L 174.647455 159.280145 
L 176.067818 157.740491 
L 177.488182 156.610358 
L 178.908545 155.807253 
L 180.328909 155.251496 
L 182.104364 154.803054 
L 184.234909 154.49258 
L 187.075636 154.29361 
L 191.691818 154.201659 
L 204.475091 154.082427 
L 211.576909 153.757779 
L 225.780545 153.137073 
L 235.723091 153.050012 
L 239.629091 153.101227 
L 242.824909 153.153235 
L 247.441091 153.308663 
L 250.636909 153.448695 
L 259.159091 154.159091 
L 259.514182 154.345657 
L 260.224364 155.307458 
L 261.999818 157.360603 
L 263.775273 159.791567 
L 265.550727 162.665566 
L 266.971091 165.333143 
L 268.391455 168.393303 
L 269.811818 171.882468 
L 271.587273 176.970967 
L 273.362727 182.955783 
L 275.138182 189.958853 
L 276.913636 198.036408 
L 278.689091 207.247197 
L 280.464545 217.515042 
L 282.950182 233.417686 
L 290.407091 282.969361 
L 291.827455 290.67049 
L 293.247818 297.173097 
L 294.313091 301.129392 
L 295.378364 304.239984 
L 296.088545 305.808618 
L 296.798727 306.967358 
L 297.508909 307.714936 
L 298.219091 308.055747 
L 298.929273 307.997389 
L 299.639455 307.554393 
L 300.349636 306.7437 
L 301.059818 305.588129 
L 302.125091 303.262857 
L 303.190364 300.321439 
L 304.610727 295.625458 
L 306.386182 288.893312 
L 312.422727 265.038968 
L 314.198182 259.136115 
L 315.618545 255.004777 
L 317.038909 251.399724 
L 318.814364 247.482002 
L 323.430545 237.70309 
L 325.206 233.276619 
L 326.981455 228.299569 
L 328.756909 222.698299 
L 330.887455 215.178341 
L 333.373091 205.439177 
L 339.409636 180.889168 
L 341.185091 174.840491 
L 342.605455 170.875839 
L 343.670727 168.543849 
L 344.736 166.863375 
L 345.446182 166.139868 
L 346.156364 165.759171 
L 346.866545 165.740582 
L 347.576727 166.107092 
L 347.931818 166.442569 
L 348.286909 166.335261 
L 348.642 164.867248 
L 349.352182 163.301689 
L 350.417455 161.286076 
L 351.837818 159.112765 
L 353.258182 157.447967 
L 354.678545 156.20891 
L 356.098909 155.313167 
L 357.874364 154.565697 
L 359.294727 154.163855 
L 361.070182 153.818703 
L 365.331273 153.432734 
L 390.542727 152.944312 
L 399.42 152.684551 
L 409.362545 152.665078 
L 421.435636 152.951184 
L 429.247636 153.37914 
L 435.284182 153.962728 
L 436.704545 154.138754 
L 437.059636 154.324347 
L 437.769818 155.300901 
L 439.190182 156.93738 
L 440.965636 159.317043 
L 442.741091 162.120345 
L 444.516545 165.430111 
L 445.936909 168.508504 
L 447.357273 172.027572 
L 448.777636 176.048499 
L 450.198 180.630764 
L 451.973455 187.238456 
L 453.748909 194.904071 
L 455.524364 203.681416 
L 457.299818 213.554226 
L 459.430364 226.706268 
L 462.271091 245.801114 
L 466.532182 274.594064 
L 468.307636 285.234165 
L 469.728 292.629563 
L 471.148364 298.763206 
L 472.213636 302.417032 
L 473.278909 305.193587 
L 473.989091 306.538252 
L 474.699273 307.471436 
L 475.409455 307.993959 
L 476.119636 308.111013 
L 476.829818 307.83439 
L 477.54 307.181323 
L 478.250182 306.172487 
L 478.960364 304.831684 
L 480.025636 302.259458 
L 481.090909 299.107956 
L 481.090909 299.107956 
" style="fill:none;stroke:#ff7f0e;stroke-linecap:square;stroke-width:4;"/>
   </g>
   <g id="line2d_11">
    <path clip-path="url(#p02976ec78e)" d="M 125.644909 298.591452 
L 127.065273 294.229963 
L 128.840727 288.027602 
L 132.391636 274.524772 
L 135.232364 264.035956 
L 137.007818 258.147541 
L 138.783273 252.99781 
L 140.203636 249.447207 
L 141.979091 245.616152 
L 146.950364 235.464524 
L 148.370727 231.773853 
L 149.791091 227.431097 
L 151.211455 222.402161 
L 152.986909 215.230246 
L 155.117455 205.636551 
L 162.574364 171.051431 
L 163.994727 165.834853 
L 165.06 162.54857 
L 166.125273 159.880412 
L 167.190545 157.891407 
L 167.900727 156.964094 
L 168.610909 156.373408 
L 169.321091 156.12298 
L 170.031273 156.221593 
L 170.386364 156.41337 
L 170.741455 156.325885 
L 171.096545 155.3386 
L 171.806727 154.317175 
L 172.872 153.098951 
L 173.937273 152.171891 
L 175.002545 151.506916 
L 176.067818 151.068966 
L 177.133091 150.829415 
L 178.553455 150.762258 
L 179.973818 150.926267 
L 181.749273 151.369913 
L 184.234909 152.285146 
L 187.785818 153.878313 
L 194.887636 157.091332 
L 198.793636 158.563351 
L 202.344545 159.662843 
L 206.250545 160.653133 
L 212.642182 161.992469 
L 236.078182 166.437108 
L 242.824909 167.515537 
L 247.441091 168.230397 
L 252.057273 168.924716 
L 257.383636 169.767881 
L 259.159091 170.044003 
L 259.514182 170.252476 
L 260.224364 171.310606 
L 261.644727 173.157848 
L 263.065091 175.291561 
L 264.840545 178.388095 
L 266.616 181.999947 
L 268.391455 186.18359 
L 270.166909 190.97979 
L 271.942364 196.461494 
L 273.717818 202.683272 
L 275.493273 209.69516 
L 277.623818 219.192799 
L 279.754364 229.830914 
L 282.24 243.44307 
L 289.341818 283.485211 
L 291.117273 291.757167 
L 292.537636 297.3013 
L 293.602909 300.70301 
L 294.668182 303.414373 
L 295.733455 305.353091 
L 296.443636 306.228651 
L 297.153818 306.761058 
L 297.864 306.953007 
L 298.574182 306.810853 
L 299.284364 306.346439 
L 299.994545 305.574939 
L 300.704727 304.515519 
L 301.77 302.428526 
L 302.835273 299.809158 
L 304.255636 295.635368 
L 306.031091 289.60612 
L 308.871818 278.96521 
L 312.777818 264.412682 
L 314.553273 258.503681 
L 316.328727 253.319521 
L 318.104182 248.901488 
L 319.879636 245.112066 
L 324.140727 236.310249 
L 325.561091 232.700864 
L 326.981455 228.464309 
L 328.401818 223.54779 
L 330.177273 216.506542 
L 332.307818 207.010202 
L 340.119818 170.603012 
L 341.540182 165.37028 
L 342.960545 161.102012 
L 344.025818 158.640391 
L 344.736 157.381405 
L 345.446182 156.444336 
L 346.156364 155.840203 
L 346.866545 155.579645 
L 347.576727 155.673699 
L 347.931818 155.857235 
L 348.286909 155.765792 
L 348.642 154.776037 
L 349.352182 153.748997 
L 350.417455 152.508727 
L 351.837818 151.317489 
L 353.258182 150.572176 
L 354.678545 150.19678 
L 356.098909 150.11926 
L 357.874364 150.351579 
L 359.294727 150.718276 
L 361.070182 151.328876 
L 365.686364 153.368295 
L 374.918727 157.353033 
L 379.179818 158.74588 
L 383.440909 159.857435 
L 389.832545 161.22914 
L 415.754182 166.307727 
L 426.051818 167.98178 
L 436.704545 169.713833 
L 437.059636 169.920253 
L 437.769818 170.986042 
L 439.190182 172.839937 
L 440.965636 175.569882 
L 442.741091 178.780511 
L 444.516545 182.517376 
L 446.292 186.830877 
L 448.067455 191.775995 
L 449.842909 197.414877 
L 451.618364 203.808151 
L 453.393818 211.002883 
L 455.169273 219.014576 
L 457.299818 229.669681 
L 459.785455 243.306196 
L 466.887273 283.420255 
L 468.662727 291.709051 
L 470.083091 297.260138 
L 471.148364 300.670276 
L 472.213636 303.372134 
L 473.278909 305.325877 
L 473.989091 306.199516 
L 474.699273 306.728152 
L 475.409455 306.915552 
L 476.119636 306.770115 
L 476.829818 306.301833 
L 477.54 305.526673 
L 478.250182 304.462039 
L 479.315455 302.367245 
L 480.380727 299.741292 
L 481.090909 297.736885 
L 481.090909 297.736885 
" style="fill:none;stroke:#2ca02c;stroke-linecap:square;stroke-width:4;"/>
   </g>
   <g id="line2d_12">
    <path clip-path="url(#p02976ec78e)" d="M 125.644909 298.185413 
L 127.065273 294.208575 
L 128.840727 288.5448 
L 131.326364 279.811443 
L 137.007818 259.402432 
L 138.783273 254.070539 
L 140.203636 250.532197 
L 141.624 247.559129 
L 145.885091 239.124258 
L 147.305455 235.489862 
L 148.725818 231.136802 
L 150.146182 226.010742 
L 151.921636 218.560237 
L 154.052182 208.369247 
L 160.798909 174.769117 
L 162.574364 167.683336 
L 163.994727 162.987382 
L 165.06 160.122799 
L 166.125273 157.881742 
L 166.835455 156.752782 
L 167.545636 155.933391 
L 168.255818 155.427793 
L 168.966 155.240685 
L 169.676182 155.375234 
L 170.741455 155.921495 
L 171.096545 155.342231 
L 171.806727 154.909876 
L 172.872 154.536748 
L 173.937273 154.414474 
L 175.002545 154.509375 
L 176.422909 154.911751 
L 177.843273 155.565156 
L 179.618727 156.63202 
L 182.104364 158.420296 
L 190.981636 165.086439 
L 193.822364 166.808643 
L 196.663091 168.257937 
L 199.503818 169.467931 
L 202.699636 170.594562 
L 206.605636 171.706222 
L 211.221818 172.762528 
L 217.968545 174.034526 
L 235.368 177.019468 
L 259.159091 180.493238 
L 259.514182 180.683813 
L 260.224364 181.675013 
L 261.644727 183.455289 
L 263.065091 185.561887 
L 264.485455 188.004944 
L 266.260909 191.557392 
L 268.036364 195.675715 
L 269.811818 200.399113 
L 271.587273 205.747706 
L 273.362727 211.743772 
L 275.493273 219.831031 
L 277.623818 228.883211 
L 280.109455 240.561348 
L 283.305273 256.848384 
L 287.566364 278.652312 
L 289.696909 288.328156 
L 291.117273 293.906014 
L 292.537636 298.579845 
L 293.602909 301.401584 
L 294.668182 303.594983 
L 295.378364 304.688676 
L 296.088545 305.482665 
L 296.798727 305.976135 
L 297.508909 306.171686 
L 298.219091 306.076246 
L 298.929273 305.700417 
L 299.639455 305.055938 
L 300.349636 304.155302 
L 301.414909 302.35732 
L 302.480182 300.082831 
L 303.900545 296.420564 
L 305.676 291.049773 
L 307.806545 283.812229 
L 312.067636 268.240846 
L 314.553273 259.534683 
L 316.328727 254.172347 
L 317.749091 250.607625 
L 319.169455 247.613667 
L 323.075455 239.930832 
L 324.495818 236.420451 
L 325.916182 232.207787 
L 327.336545 227.215723 
L 328.756909 221.458497 
L 330.532364 213.310924 
L 333.018 200.694886 
L 336.924 180.733211 
L 338.699455 172.736497 
L 340.119818 167.152508 
L 341.540182 162.465868 
L 342.605455 159.617538 
L 343.670727 157.38142 
L 344.736 155.846815 
L 345.446182 155.198659 
L 346.156364 154.866259 
L 346.866545 154.855329 
L 347.576727 155.170177 
L 347.931818 155.450623 
L 348.286909 155.539534 
L 348.642 154.968188 
L 349.352182 154.551107 
L 350.417455 154.186663 
L 351.482727 154.085352 
L 352.548 154.182491 
L 353.968364 154.591405 
L 355.743818 155.449298 
L 357.519273 156.553471 
L 361.070182 159.185423 
L 365.686364 162.725241 
L 369.237273 165.114094 
L 372.433091 166.882233 
L 374.563636 167.872602 
L 377.049273 168.861271 
L 380.245091 169.909804 
L 383.796 170.845518 
L 388.412182 171.829032 
L 416.819455 177.17412 
L 426.406909 178.738499 
L 436.704545 180.320874 
L 437.059636 180.51179 
L 437.769818 181.508589 
L 439.190182 183.29677 
L 440.610545 185.415457 
L 442.030909 187.86931 
L 443.806364 191.431088 
L 445.581818 195.565031 
L 447.357273 200.296017 
L 449.132727 205.65287 
L 450.908182 211.6613 
L 453.038727 219.761686 
L 455.169273 228.82649 
L 457.654909 240.518041 
L 460.850727 256.823012 
L 465.111818 278.646094 
L 467.242364 288.332529 
L 468.662727 293.911627 
L 470.083091 298.585368 
L 471.148364 301.409423 
L 472.213636 303.597146 
L 472.923818 304.688639 
L 473.634 305.48002 
L 474.344182 305.971364 
L 475.054364 306.16482 
L 475.764545 306.065953 
L 476.474727 305.686409 
L 477.184909 305.036712 
L 477.895091 304.13146 
L 478.960364 302.329264 
L 480.025636 300.049848 
L 481.090909 297.360175 
L 481.090909 297.360175 
" style="fill:none;stroke:#d62728;stroke-linecap:square;stroke-width:4;"/>
   </g>
   <g id="line2d_13">
    <path clip-path="url(#p02976ec78e)" d="M 126 299.858824 
L 481.090909 299.858824 
" style="fill:none;stroke:#000000;stroke-dasharray:3.2,0.8,0.5,0.8;stroke-dashoffset:0;stroke-width:0.5;"/>
   </g>
   <g id="line2d_14">
    <path clip-path="url(#p02976ec78e)" d="M 303.545455 345.6 
L 303.545455 86.4 
" style="fill:none;stroke:#000000;stroke-dasharray:3.2,0.8,0.5,0.8;stroke-dashoffset:0;stroke-width:0.5;"/>
   </g>
   <g id="patch_3">
    <path d="M 126 345.6 
L 126 86.4 
" style="fill:none;stroke:#000000;stroke-linecap:square;stroke-linejoin:miter;stroke-width:0.8;"/>
   </g>
   <g id="patch_4">
    <path d="M 481.090909 345.6 
L 481.090909 86.4 
" style="fill:none;stroke:#000000;stroke-linecap:square;stroke-linejoin:miter;stroke-width:0.8;"/>
   </g>
   <g id="patch_5">
    <path d="M 126 345.6 
L 481.090909 345.6 
" style="fill:none;stroke:#000000;stroke-linecap:square;stroke-linejoin:miter;stroke-width:0.8;"/>
   </g>
   <g id="patch_6">
    <path d="M 126 86.4 
L 481.090909 86.4 
" style="fill:none;stroke:#000000;stroke-linecap:square;stroke-linejoin:miter;stroke-width:0.8;"/>
   </g>
   <g id="legend_1">
    <g id="line2d_15">
     <path d="M 241.90992 59.55 
L 281.89392 59.55 
" style="fill:none;stroke:#1f77b4;stroke-linecap:square;stroke-width:4;"/>
    </g>
    <g id="line2d_16"/>
    <g id="text_11">
     <!-- $\hat r_R$ = 0 -->
     <g transform="translate(297.88752 66.5472)scale(0.19992 -0.19992)">
      <defs>
       <path d="M 17.59375 22.296875 
L 19.203125 25.796875 
Q 22.59375 33.296875 28.59375 39.59375 
Q 32.90625 44.09375 36.5 44.09375 
Q 38.59375 44.09375 39.890625 42.6875 
Q 41.203125 41.296875 41.203125 39 
Q 41.203125 36.703125 39.953125 35.140625 
Q 38.703125 33.59375 36.5 33.59375 
Q 34.59375 33.59375 33 36.203125 
Q 32.203125 37.59375 31.40625 37.59375 
Q 28.703125 37.59375 23.203125 28.203125 
Q 19.796875 22.40625 17.75 17.25 
Q 15.703125 12.09375 12.09375 0 
L 4.5 0 
L 12.59375 29.203125 
Q 14.203125 35.09375 14.203125 37.40625 
Q 14.203125 40 10.40625 40 
Q 9.59375 40 7.296875 39.703125 
L 7.296875 41.40625 
L 22.796875 44.09375 
L 23.09375 43.90625 
z
" id="STIXGeneral-Italic-114"/>
       <path d="M 13.203125 65.296875 
L 38.40625 65.296875 
Q 48.09375 65.296875 53.4375 61.5 
Q 58.796875 57.703125 58.796875 51.203125 
Q 58.796875 43.40625 52.203125 38.40625 
Q 48.296875 35.40625 39.09375 33.296875 
L 48 9.796875 
Q 49.703125 5.203125 51.546875 3.390625 
Q 53.40625 1.59375 56.703125 1.59375 
L 56.703125 0 
L 42 0 
L 29.703125 32.40625 
L 23.09375 32.90625 
L 17.59375 12.59375 
Q 16.296875 8 16.296875 6.296875 
Q 16.296875 4 17.59375 3 
Q 18.90625 2 23 1.59375 
L 23 0 
L -1.296875 0 
L -1.296875 1.59375 
Q 2.703125 2.09375 4.34375 3.796875 
Q 6 5.5 7.203125 10.09375 
L 19.09375 53.203125 
Q 20.296875 57.796875 20.296875 59.5 
Q 20.296875 61.296875 18.90625 62.296875 
Q 17.703125 63.09375 13.203125 63.703125 
z
M 30.59375 59.296875 
L 24.296875 36.59375 
Q 27.40625 36.09375 29.40625 36.09375 
Q 38.296875 36.09375 43.296875 40.09375 
Q 48.296875 44.09375 48.296875 51.09375 
Q 48.296875 56.296875 45.1875 59.296875 
Q 42.09375 62.296875 36.296875 62.296875 
Q 31.40625 62.296875 30.59375 59.296875 
z
" id="STIXGeneral-Italic-82"/>
       <path id="STIXGeneral-Regular-32"/>
       <path d="M 63.703125 32 
L 4.796875 32 
L 4.796875 38.59375 
L 63.703125 38.59375 
z
M 63.703125 12 
L 4.796875 12 
L 4.796875 18.59375 
L 63.703125 18.59375 
z
" id="STIXGeneral-Regular-61"/>
      </defs>
      <use transform="translate(45.765625 6.59375)" xlink:href="#STIXGeneral-Regular-770"/>
      <use transform="translate(0 0.703125)" xlink:href="#STIXGeneral-Italic-114"/>
      <use transform="translate(40.443275 -12.525)scale(0.7)" xlink:href="#STIXGeneral-Italic-82"/>
      <use transform="translate(87.622644 0.703125)" xlink:href="#STIXGeneral-Regular-32"/>
      <use transform="translate(112.622628 0.703125)" xlink:href="#STIXGeneral-Regular-61"/>
      <use transform="translate(181.122613 0.703125)" xlink:href="#STIXGeneral-Regular-32"/>
      <use transform="translate(206.122598 0.703125)" xlink:href="#STIXGeneral-Regular-48"/>
     </g>
    </g>
    <g id="line2d_17">
     <path d="M 389.25096 59.55 
L 429.23496 59.55 
" style="fill:none;stroke:#ff7f0e;stroke-linecap:square;stroke-width:4;"/>
    </g>
    <g id="line2d_18"/>
    <g id="text_12">
     <!-- $\hat r_R$ = 1 -->
     <g transform="translate(445.22856 66.5472)scale(0.19992 -0.19992)">
      <use transform="translate(45.765625 6.59375)" xlink:href="#STIXGeneral-Regular-770"/>
      <use transform="translate(0 0.703125)" xlink:href="#STIXGeneral-Italic-114"/>
      <use transform="translate(40.443275 -12.525)scale(0.7)" xlink:href="#STIXGeneral-Italic-82"/>
      <use transform="translate(87.622644 0.703125)" xlink:href="#STIXGeneral-Regular-32"/>
      <use transform="translate(112.622628 0.703125)" xlink:href="#STIXGeneral-Regular-61"/>
      <use transform="translate(181.122613 0.703125)" xlink:href="#STIXGeneral-Regular-32"/>
      <use transform="translate(206.122598 0.703125)" xlink:href="#STIXGeneral-Regular-49"/>
     </g>
    </g>
    <g id="line2d_19">
     <path d="M 536.592 59.55 
L 576.576 59.55 
" style="fill:none;stroke:#2ca02c;stroke-linecap:square;stroke-width:4;"/>
    </g>
    <g id="line2d_20"/>
    <g id="text_13">
     <!-- $\hat r_R$ = 2 -->
     <g transform="translate(592.5696 66.5472)scale(0.19992 -0.19992)">
      <use transform="translate(45.765625 6.59375)" xlink:href="#STIXGeneral-Regular-770"/>
      <use transform="translate(0 0.703125)" xlink:href="#STIXGeneral-Italic-114"/>
      <use transform="translate(40.443275 -12.525)scale(0.7)" xlink:href="#STIXGeneral-Italic-82"/>
      <use transform="translate(87.622644 0.703125)" xlink:href="#STIXGeneral-Regular-32"/>
      <use transform="translate(112.622628 0.703125)" xlink:href="#STIXGeneral-Regular-61"/>
      <use transform="translate(181.122613 0.703125)" xlink:href="#STIXGeneral-Regular-32"/>
      <use transform="translate(206.122598 0.703125)" xlink:href="#STIXGeneral-Regular-50"/>
     </g>
    </g>
    <g id="line2d_21">
     <path d="M 683.93304 59.55 
L 723.91704 59.55 
" style="fill:none;stroke:#d62728;stroke-linecap:square;stroke-width:4;"/>
    </g>
    <g id="line2d_22"/>
    <g id="text_14">
     <!-- $\hat r_R$ = 3 -->
     <g transform="translate(739.91064 66.5472)scale(0.19992 -0.19992)">
      <defs>
       <path d="M 6.09375 51 
L 4.5 51.40625 
Q 6.796875 58.90625 11.6875 63.25 
Q 16.59375 67.59375 24.09375 67.59375 
Q 31.09375 67.59375 35.390625 63.796875 
Q 39.703125 60 39.703125 53.90625 
Q 39.703125 45.703125 30.40625 40.09375 
Q 35.90625 37.703125 38.703125 34.796875 
Q 43.09375 29.90625 43.09375 21.90625 
Q 43.09375 13.90625 38.5 7.90625 
Q 35.09375 3.296875 28.75 0.9375 
Q 22.40625 -1.40625 15.296875 -1.40625 
Q 4.09375 -1.40625 4.09375 4.296875 
Q 4.09375 5.90625 5.296875 6.90625 
Q 6.5 7.90625 8.203125 7.90625 
Q 10.703125 7.90625 14.296875 5.296875 
Q 18.703125 2.203125 22.90625 2.203125 
Q 28.40625 2.203125 32.15625 6.640625 
Q 35.90625 11.09375 35.90625 17.5 
Q 35.90625 29 25.5 32 
Q 22.40625 33 15.296875 33 
L 15.296875 34.40625 
Q 20.90625 36.296875 23.703125 38 
Q 31.796875 42.59375 31.796875 51.40625 
Q 31.796875 56.40625 28.9375 59 
Q 26.09375 61.59375 21 61.59375 
Q 12 61.59375 6.09375 51 
z
" id="STIXGeneral-Regular-51"/>
      </defs>
      <use transform="translate(45.765625 6.59375)" xlink:href="#STIXGeneral-Regular-770"/>
      <use transform="translate(0 0.703125)" xlink:href="#STIXGeneral-Italic-114"/>
      <use transform="translate(40.443275 -12.525)scale(0.7)" xlink:href="#STIXGeneral-Italic-82"/>
      <use transform="translate(87.622644 0.703125)" xlink:href="#STIXGeneral-Regular-32"/>
      <use transform="translate(112.622628 0.703125)" xlink:href="#STIXGeneral-Regular-61"/>
      <use transform="translate(181.122613 0.703125)" xlink:href="#STIXGeneral-Regular-32"/>
      <use transform="translate(206.122598 0.703125)" xlink:href="#STIXGeneral-Regular-51"/>
     </g>
    </g>
   </g>
  </g>
  <g id="axes_2">
   <g id="patch_7">
    <path d="M 552.109091 345.6 
L 907.2 345.6 
L 907.2 86.4 
L 552.109091 86.4 
z
" style="fill:#ffffff;"/>
   </g>
   <g id="matplotlib.axis_3">
    <g id="xtick_6">
     <g id="line2d_23">
      <g>
       <use style="fill:#ffffff;stroke:#000000;stroke-width:0.8;" x="552.109091" xlink:href="#m6804f8df82" y="345.6"/>
      </g>
     </g>
     <g id="text_15">
      <!-- 4.00 -->
      <g transform="translate(531.109091 368.99125)scale(0.24 -0.24)">
       <use xlink:href="#STIXGeneral-Regular-52"/>
       <use x="49.999985" xlink:href="#STIXGeneral-Regular-46"/>
       <use x="74.999969" xlink:href="#STIXGeneral-Regular-48"/>
       <use x="124.999954" xlink:href="#STIXGeneral-Regular-48"/>
      </g>
     </g>
    </g>
    <g id="xtick_7">
     <g id="line2d_24">
      <g>
       <use style="fill:#ffffff;stroke:#000000;stroke-width:0.8;" x="640.881818" xlink:href="#m6804f8df82" y="345.6"/>
      </g>
     </g>
     <g id="text_16">
      <!-- 4.25 -->
      <g transform="translate(619.881818 368.99125)scale(0.24 -0.24)">
       <use xlink:href="#STIXGeneral-Regular-52"/>
       <use x="49.999985" xlink:href="#STIXGeneral-Regular-46"/>
       <use x="74.999969" xlink:href="#STIXGeneral-Regular-50"/>
       <use x="124.999954" xlink:href="#STIXGeneral-Regular-53"/>
      </g>
     </g>
    </g>
    <g id="xtick_8">
     <g id="line2d_25">
      <g>
       <use style="fill:#ffffff;stroke:#000000;stroke-width:0.8;" x="729.654545" xlink:href="#m6804f8df82" y="345.6"/>
      </g>
     </g>
     <g id="text_17">
      <!-- 4.50 -->
      <g transform="translate(708.654545 368.99125)scale(0.24 -0.24)">
       <use xlink:href="#STIXGeneral-Regular-52"/>
       <use x="49.999985" xlink:href="#STIXGeneral-Regular-46"/>
       <use x="74.999969" xlink:href="#STIXGeneral-Regular-53"/>
       <use x="124.999954" xlink:href="#STIXGeneral-Regular-48"/>
      </g>
     </g>
    </g>
    <g id="xtick_9">
     <g id="line2d_26">
      <g>
       <use style="fill:#ffffff;stroke:#000000;stroke-width:0.8;" x="818.427273" xlink:href="#m6804f8df82" y="345.6"/>
      </g>
     </g>
     <g id="text_18">
      <!-- 4.75 -->
      <g transform="translate(797.427273 368.99125)scale(0.24 -0.24)">
       <use xlink:href="#STIXGeneral-Regular-52"/>
       <use x="49.999985" xlink:href="#STIXGeneral-Regular-46"/>
       <use x="74.999969" xlink:href="#STIXGeneral-Regular-55"/>
       <use x="124.999954" xlink:href="#STIXGeneral-Regular-53"/>
      </g>
     </g>
    </g>
    <g id="xtick_10">
     <g id="line2d_27">
      <g>
       <use style="fill:#ffffff;stroke:#000000;stroke-width:0.8;" x="907.2" xlink:href="#m6804f8df82" y="345.6"/>
      </g>
     </g>
     <g id="text_19">
      <!-- 5.00 -->
      <g transform="translate(886.2 368.99125)scale(0.24 -0.24)">
       <use xlink:href="#STIXGeneral-Regular-53"/>
       <use x="49.999985" xlink:href="#STIXGeneral-Regular-46"/>
       <use x="74.999969" xlink:href="#STIXGeneral-Regular-48"/>
       <use x="124.999954" xlink:href="#STIXGeneral-Regular-48"/>
      </g>
     </g>
    </g>
    <g id="text_20">
     <!-- $\^t$ -->
     <g transform="translate(726.294545 394.59125)scale(0.24 -0.24)">
      <use transform="translate(39.042969 16.59375)" xlink:href="#STIXGeneral-Regular-770"/>
      <use transform="translate(0 0.203125)" xlink:href="#STIXGeneral-Italic-116"/>
     </g>
    </g>
   </g>
   <g id="matplotlib.axis_4">
    <g id="ytick_4">
     <g id="line2d_28">
      <g>
       <use style="fill:#ffffff;stroke:#000000;stroke-width:0.8;" x="552.109091" xlink:href="#mf2e653282b" y="299.858824"/>
      </g>
     </g>
     <g id="text_21">
      <!-- 0 -->
      <g transform="translate(533.109091 308.054449)scale(0.24 -0.24)">
       <use xlink:href="#STIXGeneral-Regular-48"/>
      </g>
     </g>
    </g>
    <g id="ytick_5">
     <g id="line2d_29">
      <g>
       <use style="fill:#ffffff;stroke:#000000;stroke-width:0.8;" x="552.109091" xlink:href="#mf2e653282b" y="223.623529"/>
      </g>
     </g>
     <g id="text_22">
      <!-- 1 -->
      <g transform="translate(533.109091 231.819154)scale(0.24 -0.24)">
       <use xlink:href="#STIXGeneral-Regular-49"/>
      </g>
     </g>
    </g>
    <g id="ytick_6">
     <g id="line2d_30">
      <g>
       <use style="fill:#ffffff;stroke:#000000;stroke-width:0.8;" x="552.109091" xlink:href="#mf2e653282b" y="147.388235"/>
      </g>
     </g>
     <g id="text_23">
      <!-- 2 -->
      <g transform="translate(533.109091 155.58386)scale(0.24 -0.24)">
       <use xlink:href="#STIXGeneral-Regular-50"/>
      </g>
     </g>
    </g>
    <g id="text_24">
     <!-- $C_D$ -->
     <g transform="translate(523.900341 230.64)rotate(-90)scale(0.24 -0.24)">
      <defs>
       <path d="M 13.09375 65.296875 
L 40.796875 65.296875 
Q 54.203125 65.296875 62.09375 58.296875 
Q 70 51.296875 70 38.40625 
Q 70 20.703125 54 8.296875 
Q 43.40625 0 24.90625 0 
L -0.796875 0 
L -0.796875 1.59375 
Q 3.5 2.40625 4.84375 3.59375 
Q 6.203125 4.796875 7.40625 9.203125 
L 19.59375 53.703125 
Q 20.703125 57.59375 20.703125 59.59375 
Q 20.703125 61.703125 19.09375 62.640625 
Q 17.5 63.59375 13.09375 63.703125 
z
M 31 58.40625 
L 19.203125 16.203125 
Q 17 8.203125 17 6.703125 
Q 17 3 23.796875 3 
Q 38.59375 3 47.90625 12 
Q 53.09375 17 56 24.953125 
Q 58.90625 32.90625 58.90625 40.796875 
Q 58.90625 52.90625 51.09375 58.796875 
Q 46.40625 62.296875 38 62.296875 
Q 34.796875 62.296875 33.25 61.546875 
Q 31.703125 60.796875 31 58.40625 
z
" id="STIXGeneral-Italic-68"/>
      </defs>
      <use transform="translate(0 0.40625)" xlink:href="#STIXGeneral-Italic-67"/>
      <use transform="translate(66.699997 -12.821875)scale(0.7)" xlink:href="#STIXGeneral-Italic-68"/>
     </g>
    </g>
   </g>
   <g id="line2d_31">
    <path clip-path="url(#p8063c2b601)" d="M 551.754 383.113774 
L 552.109091 387.008344 
L 552.464182 208.924647 
L 553.884545 194.989969 
L 555.304909 183.027498 
L 556.725273 173.042411 
L 558.145636 164.958087 
L 559.210909 160.051581 
L 560.276182 156.050684 
L 561.341455 152.87157 
L 562.406727 150.383002 
L 563.472 148.487688 
L 564.537273 147.06553 
L 565.602545 146.005114 
L 567.022909 144.919994 
L 569.508545 143.107018 
L 570.573818 142.096754 
L 571.639091 140.828917 
L 572.704364 139.283131 
L 574.124727 136.774232 
L 575.545091 133.785076 
L 577.675636 128.676812 
L 581.581636 119.176124 
L 583.357091 115.475202 
L 584.777455 113.005206 
L 585.842727 111.515447 
L 586.908 110.398877 
L 587.618182 109.890472 
L 588.328364 109.593462 
L 589.038545 109.52832 
L 589.748727 109.716945 
L 590.458909 110.184052 
L 591.169091 110.951096 
L 591.879273 112.042445 
L 592.589455 113.479466 
L 593.654727 116.329225 
L 594.72 120.078153 
L 595.785273 124.781197 
L 596.495455 128.500883 
L 596.850545 129.55141 
L 597.205636 128.050174 
L 597.560727 127.523547 
L 598.270909 126.980324 
L 600.046364 125.502848 
L 601.821818 124.330338 
L 603.242182 123.613191 
L 605.017636 122.972494 
L 606.793091 122.578845 
L 608.923636 122.35445 
L 611.409273 122.324761 
L 615.670364 122.566044 
L 626.678182 123.348275 
L 633.78 123.572654 
L 640.526727 123.496916 
L 647.628545 123.197954 
L 663.252545 122.586627 
L 665.738182 122.59452 
L 667.868727 122.615112 
L 669.999273 122.66185 
L 671.774727 122.706144 
L 674.970545 122.880037 
L 677.101091 123.021395 
L 678.876545 123.146761 
L 682.072364 123.477642 
L 683.847818 123.670817 
L 685.978364 124.093812 
L 689.174182 125.155628 
L 691.659818 125.695421 
L 697.341273 126.495951 
L 698.761636 126.96504 
L 700.182 127.757825 
L 701.247273 128.628159 
L 702.312545 129.808792 
L 703.377818 131.409792 
L 704.443091 133.435311 
L 705.508364 136.036451 
L 706.573636 139.249522 
L 707.638909 143.167981 
L 708.704182 147.884459 
L 709.769455 153.44778 
L 710.834727 159.926774 
L 712.255091 170.103128 
L 713.675455 182.113578 
L 715.095818 195.943101 
L 716.871273 215.73775 
L 718.646727 237.9797 
L 721.132364 272.017464 
L 726.458727 346.998891 
L 728.589273 373.585288 
L 729.654545 385.510834 
L 730.009636 210.461789 
L 731.43 196.609633 
L 732.850364 184.718199 
L 734.270727 174.795223 
L 735.691091 166.757856 
L 736.756364 161.850968 
L 737.821636 157.828893 
L 739.242 153.711683 
L 740.662364 150.759421 
L 741.727636 149.175134 
L 742.792909 147.946015 
L 744.213273 146.719761 
L 747.409091 144.163301 
L 748.829455 142.582319 
L 750.249818 140.490373 
L 751.670182 137.88734 
L 753.445636 133.969052 
L 755.931273 127.714219 
L 759.482182 118.926633 
L 760.902545 115.874442 
L 762.322909 113.295097 
L 763.388182 111.713899 
L 764.453455 110.515408 
L 765.518727 109.752244 
L 766.228909 109.516841 
L 766.939091 109.534939 
L 767.649273 109.820244 
L 768.359455 110.390536 
L 769.069636 111.279119 
L 769.779818 112.504986 
L 770.49 114.086918 
L 771.555273 117.180309 
L 772.620545 121.203286 
L 773.685818 126.198081 
L 774.040909 128.108048 
L 774.396 129.146261 
L 774.751091 127.637733 
L 775.106182 127.089648 
L 775.461273 126.877544 
L 776.881636 125.594181 
L 778.302 124.499111 
L 779.367273 123.794118 
L 781.497818 122.74955 
L 783.983455 122.035737 
L 785.403818 121.807124 
L 787.179273 121.646547 
L 793.215818 121.799161 
L 795.346364 121.942212 
L 797.832 122.105494 
L 800.317636 122.304121 
L 803.158364 122.499066 
L 812.745818 123.011603 
L 818.072182 123.105198 
L 826.949455 122.977429 
L 843.993818 122.699501 
L 851.450727 122.932629 
L 856.422 123.281734 
L 861.038182 123.77287 
L 863.168727 124.091261 
L 864.944182 124.760635 
L 867.429818 125.514861 
L 869.915455 126.001583 
L 875.241818 126.878457 
L 876.662182 127.440545 
L 877.727455 128.0818 
L 878.792727 128.981282 
L 879.858 130.200284 
L 880.923273 131.814974 
L 881.988545 133.89044 
L 883.053818 136.514532 
L 884.119091 139.765359 
L 885.184364 143.722059 
L 886.249636 148.463599 
L 887.314909 154.065728 
L 888.735273 162.98249 
L 890.155636 173.6606 
L 891.576 186.176583 
L 892.996364 200.519609 
L 894.771818 220.883441 
L 896.902364 248.348884 
L 900.098182 293.305609 
L 904.004182 347.917786 
L 906.134727 374.442222 
L 906.844909 382.48462 
L 907.2 213.377735 
L 907.2 213.377735 
" style="fill:none;stroke:#1f77b4;stroke-linecap:square;stroke-width:4;"/>
   </g>
   <g id="line2d_32">
    <path clip-path="url(#p8063c2b601)" d="M 551.754 396.791402 
L 552.109091 399.567788 
L 552.464182 197.466236 
L 553.884545 187.685149 
L 555.304909 179.420389 
L 556.725273 172.607063 
L 558.145636 167.128517 
L 559.210909 163.817006 
L 560.276182 161.094174 
L 561.341455 158.904026 
L 562.406727 157.18098 
L 563.472 155.87378 
L 564.537273 154.915208 
L 565.602545 154.23045 
L 567.022909 153.611547 
L 570.218727 152.31558 
L 571.639091 151.490874 
L 573.414545 150.202541 
L 575.19 148.668791 
L 576.610364 147.204835 
L 578.030727 145.463419 
L 579.451091 143.394138 
L 581.226545 140.33417 
L 583.357091 136.075547 
L 588.328364 125.772257 
L 589.748727 123.50822 
L 590.814 122.253803 
L 591.524182 121.679834 
L 592.234364 121.352227 
L 592.944545 121.299259 
L 593.654727 121.547601 
L 594.364909 122.125078 
L 595.075091 123.055108 
L 595.785273 124.359443 
L 596.850545 126.527834 
L 597.205636 125.567759 
L 597.560727 125.163294 
L 600.046364 123.773553 
L 601.111636 123.486023 
L 602.532 123.368294 
L 603.952364 123.498454 
L 605.727818 123.914268 
L 608.213455 124.777262 
L 621.351818 129.712187 
L 625.612909 130.93654 
L 629.874 131.948127 
L 634.490182 132.82939 
L 640.526727 133.722038 
L 647.273455 134.498711 
L 657.216 135.380781 
L 672.129818 136.333051 
L 675.325636 136.540912 
L 685.268182 137.555299 
L 685.623273 137.762627 
L 686.333455 138.86902 
L 688.108909 141.354866 
L 690.949636 145.816182 
L 693.790364 150.665931 
L 695.920909 154.585882 
L 698.051455 158.919552 
L 699.826909 162.993509 
L 701.602364 167.677357 
L 703.377818 173.208862 
L 704.798182 178.389536 
L 706.218545 184.381132 
L 707.638909 191.329735 
L 709.059273 199.348914 
L 710.479636 208.540708 
L 711.9 218.954199 
L 713.675455 233.741466 
L 715.450909 250.413365 
L 717.581455 272.578077 
L 720.777273 308.678786 
L 725.038364 356.497246 
L 727.168909 377.778979 
L 728.944364 393.303431 
L 729.654545 398.886152 
L 730.009636 198.188216 
L 731.43 188.518514 
L 732.850364 180.356243 
L 734.270727 173.626291 
L 735.691091 168.214669 
L 736.756364 164.918103 
L 737.821636 162.192157 
L 739.242 159.365028 
L 740.662364 157.327837 
L 742.082727 155.924755 
L 743.503091 155.010496 
L 745.278545 154.206934 
L 747.409091 153.25768 
L 749.184545 152.195548 
L 750.96 150.860839 
L 753.090545 148.915316 
L 754.510909 147.330258 
L 756.286364 144.92811 
L 758.061818 141.976034 
L 759.482182 139.262041 
L 762.322909 133.121463 
L 765.163636 126.987602 
L 766.584 124.381679 
L 767.649273 122.790713 
L 768.714545 121.642657 
L 769.424727 121.160386 
L 770.134909 120.943103 
L 770.845091 121.020429 
L 771.555273 121.41621 
L 772.265455 122.156147 
L 772.975636 123.264065 
L 773.685818 124.766882 
L 774.040909 125.675741 
L 774.396 126.129963 
L 774.751091 125.172493 
L 775.106182 124.76139 
L 777.946909 123.262383 
L 779.367273 122.997863 
L 781.142727 123.056384 
L 782.563091 123.320649 
L 784.338545 123.824696 
L 798.187091 128.859163 
L 807.064364 131.221214 
L 812.035636 132.21277 
L 817.362 133.073637 
L 825.529091 134.120833 
L 832.986 134.882629 
L 843.993818 135.718558 
L 856.422 136.711833 
L 861.393273 137.327769 
L 862.813636 137.537418 
L 863.168727 137.744201 
L 863.878909 138.866575 
L 865.299273 140.855498 
L 867.784909 144.728008 
L 870.980727 150.159926 
L 873.466364 154.7645 
L 875.596909 159.1369 
L 877.372364 163.253911 
L 879.147818 167.986569 
L 880.568182 172.360669 
L 881.988545 177.396511 
L 883.408909 183.219873 
L 884.829273 189.966264 
L 886.249636 197.754128 
L 887.67 206.686725 
L 889.090364 216.839881 
L 890.865818 231.281167 
L 892.641273 247.636688 
L 894.771818 269.493195 
L 897.612545 301.297024 
L 902.583818 357.328229 
L 904.714364 378.571953 
L 906.489818 394.065836 
L 906.844909 396.895235 
L 907.2 200.088203 
L 907.2 200.088203 
" style="fill:none;stroke:#ff7f0e;stroke-linecap:square;stroke-width:4;"/>
   </g>
   <g id="line2d_33">
    <path clip-path="url(#p8063c2b601)" d="M 551.754 387.475874 
L 552.109091 389.831064 
L 552.464182 207.595491 
L 554.239636 197.15875 
L 555.66 189.950898 
L 557.080364 183.699729 
L 558.500727 178.294283 
L 559.921091 173.66061 
L 561.341455 169.763212 
L 562.761818 166.604564 
L 563.827091 164.732474 
L 564.892364 163.277117 
L 565.957636 162.215396 
L 567.022909 161.53519 
L 568.088182 161.182628 
L 569.153455 161.092975 
L 570.928909 161.264685 
L 572.704364 161.389495 
L 573.769636 161.214093 
L 574.834909 160.733129 
L 575.900182 159.886537 
L 576.965455 158.657089 
L 578.030727 157.044858 
L 579.096 155.084605 
L 580.516364 152.001662 
L 582.291818 147.576009 
L 585.487636 138.801925 
L 587.973273 132.220778 
L 589.393636 129.017454 
L 590.458909 127.04905 
L 591.524182 125.551815 
L 592.234364 124.855445 
L 592.944545 124.426812 
L 593.654727 124.285434 
L 594.364909 124.448261 
L 595.075091 124.930161 
L 595.785273 125.744667 
L 596.850545 127.255826 
L 597.205636 126.648996 
L 597.560727 126.417685 
L 599.691273 125.90392 
L 601.111636 125.885176 
L 602.532 126.10291 
L 604.307455 126.642335 
L 606.438 127.58387 
L 609.278727 129.157689 
L 614.960182 132.709903 
L 619.221273 135.27049 
L 622.417091 136.983195 
L 625.968 138.621989 
L 629.518909 139.989419 
L 633.78 141.347349 
L 639.106364 142.762414 
L 645.853091 144.326427 
L 654.020182 145.990871 
L 660.766909 147.167895 
L 669.644182 148.483399 
L 674.260364 149.142808 
L 678.166364 149.697387 
L 685.623273 151.026237 
L 686.333455 152.200578 
L 687.753818 154.344971 
L 689.529273 157.37477 
L 692.014909 162.096418 
L 694.855636 168.077818 
L 697.341273 173.875498 
L 699.471818 179.417943 
L 701.247273 184.603273 
L 703.022727 190.456478 
L 704.798182 197.185072 
L 706.218545 203.303615 
L 707.994 212.053701 
L 709.769455 222.172891 
L 711.544909 233.771342 
L 713.320364 246.85531 
L 715.450909 264.442961 
L 717.936545 287.066677 
L 726.103636 363.402674 
L 727.879091 377.346483 
L 729.654545 389.634044 
L 730.009636 207.818343 
L 731.785091 197.503586 
L 733.205455 190.367587 
L 734.625818 184.156417 
L 736.046182 178.775683 
L 737.466545 174.161317 
L 738.886909 170.262008 
L 739.952182 167.798726 
L 741.372545 165.185479 
L 742.437818 163.715605 
L 743.503091 162.625675 
L 744.568364 161.919574 
L 745.633636 161.542545 
L 747.054 161.408075 
L 750.604909 161.549022 
L 751.670182 161.232935 
L 752.735455 160.58324 
L 753.800727 159.565278 
L 754.866 158.162099 
L 755.931273 156.383489 
L 756.996545 154.281991 
L 758.772 150.144928 
L 760.902545 144.500988 
L 765.873818 131.014383 
L 767.294182 127.919632 
L 768.359455 126.072842 
L 769.424727 124.731526 
L 770.134909 124.151836 
L 770.845091 123.85063 
L 771.555273 123.845668 
L 772.265455 124.153237 
L 772.975636 124.789653 
L 773.685818 125.770949 
L 774.040909 126.396194 
L 774.396 126.732555 
L 774.751091 126.123533 
L 775.106182 125.882329 
L 777.591818 125.323816 
L 778.657091 125.317759 
L 780.432545 125.619659 
L 781.852909 126.067351 
L 783.628364 126.820536 
L 786.824182 128.565556 
L 789.664909 130.308961 
L 798.897273 135.773875 
L 803.513455 137.928042 
L 806.709273 139.157721 
L 810.970364 140.530636 
L 816.296727 141.96922 
L 823.398545 143.656812 
L 830.855455 145.240336 
L 839.022545 146.715046 
L 847.899818 148.087443 
L 859.972909 149.944744 
L 862.813636 150.429876 
L 863.168727 150.649531 
L 863.878909 151.833497 
L 865.299273 153.987726 
L 867.429818 157.683614 
L 869.915455 162.503721 
L 872.401091 167.795253 
L 874.886727 173.615241 
L 877.017273 179.177351 
L 878.792727 184.375443 
L 880.568182 190.250501 
L 882.343636 196.988593 
L 884.119091 204.780832 
L 885.894545 213.813652 
L 887.67 224.24873 
L 889.445455 236.173572 
L 891.220909 249.578886 
L 893.351455 267.513822 
L 895.837091 290.450311 
L 902.938909 357.553143 
L 905.069455 374.840595 
L 906.844909 387.485115 
L 907.2 209.903168 
L 907.2 209.903168 
" style="fill:none;stroke:#2ca02c;stroke-linecap:square;stroke-width:4;"/>
   </g>
   <g id="line2d_34">
    <path clip-path="url(#p8063c2b601)" d="M 551.754 378.188481 
L 552.109091 380.302129 
L 552.464182 217.346311 
L 554.239636 207.68177 
L 556.015091 199.045332 
L 558.145636 189.777173 
L 560.276182 181.538458 
L 561.696545 176.721002 
L 563.116909 172.711711 
L 564.182182 170.419308 
L 564.892364 169.292163 
L 565.602545 168.500265 
L 566.312727 168.027966 
L 567.022909 167.839866 
L 567.733091 167.889805 
L 568.798364 168.245385 
L 571.284 169.344839 
L 572.349273 169.482717 
L 573.059455 169.396544 
L 573.769636 169.132892 
L 574.479818 168.67773 
L 575.19 168.023757 
L 576.255273 166.66236 
L 577.320545 164.857868 
L 578.385818 162.6438 
L 579.806182 159.14255 
L 581.581636 154.117945 
L 586.552909 139.512596 
L 587.973273 136.0452 
L 589.393636 133.176208 
L 590.458909 131.494379 
L 591.524182 130.272789 
L 592.234364 129.740547 
L 592.944545 129.446168 
L 593.654727 129.40915 
L 594.364909 129.639222 
L 595.075091 130.147646 
L 595.785273 130.944518 
L 596.850545 132.42891 
L 597.205636 132.105251 
L 597.915818 132.113895 
L 599.336182 132.355111 
L 600.756545 132.812762 
L 602.532 133.635309 
L 604.662545 134.898755 
L 607.503273 136.88307 
L 617.800909 144.373045 
L 620.641636 145.994568 
L 623.482364 147.341861 
L 626.323091 148.453465 
L 629.518909 149.484817 
L 633.78 150.600106 
L 639.461455 151.809782 
L 649.759091 153.695623 
L 664.317818 156.167018 
L 673.905273 157.610403 
L 680.652 158.634326 
L 685.268182 159.361663 
L 685.623273 159.56789 
L 686.333455 160.672893 
L 687.753818 162.743963 
L 689.529273 165.753786 
L 691.659818 169.856244 
L 693.790364 174.408993 
L 695.920909 179.383199 
L 698.406545 185.796948 
L 700.537091 191.944208 
L 702.667636 198.90608 
L 704.443091 205.478395 
L 706.218545 212.936765 
L 707.994 221.419079 
L 709.769455 231.051483 
L 711.544909 241.915289 
L 713.320364 253.991837 
L 715.450909 269.983895 
L 718.291636 293.235079 
L 724.328182 343.680031 
L 726.458727 359.594375 
L 728.589273 373.801135 
L 729.654545 380.245186 
L 730.009636 217.421192 
L 731.785091 207.807566 
L 733.560545 199.197776 
L 735.691091 189.962705 
L 737.821636 181.732237 
L 739.597091 175.852411 
L 740.662364 172.927315 
L 741.727636 170.647026 
L 742.437818 169.514906 
L 743.148 168.719271 
L 743.858182 168.246955 
L 744.568364 168.057553 
L 745.278545 168.099534 
L 746.343818 168.44288 
L 748.829455 169.48123 
L 749.539636 169.604513 
L 750.249818 169.575955 
L 750.96 169.373374 
L 751.670182 168.991835 
L 752.380364 168.401214 
L 753.445636 167.130881 
L 754.510909 165.413264 
L 755.576182 163.276181 
L 756.996545 159.843759 
L 758.772 154.856073 
L 764.453455 138.153297 
L 765.873818 134.817129 
L 766.939091 132.720715 
L 768.004364 131.045056 
L 769.069636 129.826875 
L 769.779818 129.291852 
L 770.49 129.016317 
L 771.200182 128.98706 
L 771.910364 129.221972 
L 772.620545 129.737369 
L 773.330727 130.534541 
L 774.396 132.025659 
L 774.751091 131.704724 
L 775.461273 131.718373 
L 776.526545 131.871941 
L 778.302 132.416136 
L 779.722364 133.049925 
L 781.497818 134.032787 
L 784.693636 136.195689 
L 787.889455 138.57743 
L 791.795455 141.487978 
L 795.346364 143.829358 
L 798.542182 145.559694 
L 800.672727 146.519859 
L 803.158364 147.469556 
L 806.709273 148.571907 
L 810.970364 149.620475 
L 817.362 150.911806 
L 851.805818 157.263321 
L 862.813636 159.101692 
L 863.168727 159.309234 
L 863.878909 160.421642 
L 865.299273 162.504323 
L 867.074727 165.534762 
L 869.205273 169.654704 
L 871.690909 175.028022 
L 874.176545 180.987479 
L 876.307091 186.635074 
L 878.437636 192.922791 
L 880.213091 198.79641 
L 881.988545 205.39285 
L 883.764 212.864848 
L 885.539455 221.363007 
L 887.314909 231.013874 
L 889.090364 241.8992 
L 891.220909 256.557669 
L 893.351455 272.818269 
L 896.192182 296.311549 
L 901.873636 343.778769 
L 904.004182 359.689087 
L 906.134727 373.890439 
L 906.844909 378.23612 
L 907.2 219.382677 
L 907.2 219.382677 
" style="fill:none;stroke:#d62728;stroke-linecap:square;stroke-width:4;"/>
   </g>
   <g id="line2d_35">
    <path clip-path="url(#p8063c2b601)" d="M 552.109091 299.858824 
L 907.2 299.858824 
" style="fill:none;stroke:#000000;stroke-dasharray:3.2,0.8,0.5,0.8;stroke-dashoffset:0;stroke-width:0.5;"/>
   </g>
   <g id="line2d_36">
    <path clip-path="url(#p8063c2b601)" d="M 729.654545 345.6 
L 729.654545 86.4 
" style="fill:none;stroke:#000000;stroke-dasharray:3.2,0.8,0.5,0.8;stroke-dashoffset:0;stroke-width:0.5;"/>
   </g>
   <g id="patch_8">
    <path d="M 552.109091 345.6 
L 552.109091 86.4 
" style="fill:none;stroke:#000000;stroke-linecap:square;stroke-linejoin:miter;stroke-width:0.8;"/>
   </g>
   <g id="patch_9">
    <path d="M 907.2 345.6 
L 907.2 86.4 
" style="fill:none;stroke:#000000;stroke-linecap:square;stroke-linejoin:miter;stroke-width:0.8;"/>
   </g>
   <g id="patch_10">
    <path d="M 552.109091 345.6 
L 907.2 345.6 
" style="fill:none;stroke:#000000;stroke-linecap:square;stroke-linejoin:miter;stroke-width:0.8;"/>
   </g>
   <g id="patch_11">
    <path d="M 552.109091 86.4 
L 907.2 86.4 
" style="fill:none;stroke:#000000;stroke-linecap:square;stroke-linejoin:miter;stroke-width:0.8;"/>
   </g>
  </g>
 </g>
 <defs>
  <clipPath id="p02976ec78e">
   <rect height="259.2" width="355.090909" x="126" y="86.4"/>
  </clipPath>
  <clipPath id="p8063c2b601">
   <rect height="259.2" width="355.090909" x="552.109091" y="86.4"/>
  </clipPath>
 </defs>
</svg>
