<?xml version="1.0" encoding="utf-8" standalone="no"?>
<!DOCTYPE svg PUBLIC "-//W3C//DTD SVG 1.1//EN"
  "http://www.w3.org/Graphics/SVG/1.1/DTD/svg11.dtd">
<!-- Created with matplotlib (https://matplotlib.org/) -->
<svg height="432pt" version="1.1" viewBox="0 0 1008 432" width="1008pt" xmlns="http://www.w3.org/2000/svg" xmlns:xlink="http://www.w3.org/1999/xlink">
 <metadata>
  <rdf:RDF xmlns:cc="http://creativecommons.org/ns#" xmlns:dc="http://purl.org/dc/elements/1.1/" xmlns:rdf="http://www.w3.org/1999/02/22-rdf-syntax-ns#">
   <cc:Work>
    <dc:type rdf:resource="http://purl.org/dc/dcmitype/StillImage"/>
    <dc:date>2022-01-13T10:21:04.153489</dc:date>
    <dc:format>image/svg+xml</dc:format>
    <dc:creator>
     <cc:Agent>
      <dc:title>Matplotlib v3.3.4, https://matplotlib.org/</dc:title>
     </cc:Agent>
    </dc:creator>
   </cc:Work>
  </rdf:RDF>
 </metadata>
 <defs>
  <style type="text/css">*{stroke-linecap:butt;stroke-linejoin:round;}</style>
 </defs>
 <g id="figure_1">
  <g id="patch_1">
   <path d="M 0 432 
L 1008 432 
L 1008 0 
L 0 0 
z
" style="fill:#ffffff;"/>
  </g>
  <g id="axes_1">
   <g id="patch_2">
    <path d="M 126 345.6 
L 481.090909 345.6 
L 481.090909 86.4 
L 126 86.4 
z
" style="fill:#ffffff;"/>
   </g>
   <g id="matplotlib.axis_1">
    <g id="xtick_1">
     <g id="line2d_1">
      <defs>
       <path d="M 0 0 
L 0 3.5 
" id="me187c582e9" style="stroke:#000000;stroke-width:0.8;"/>
      </defs>
      <g>
       <use style="fill:#ffffff;stroke:#000000;stroke-width:0.8;" x="126" xlink:href="#me187c582e9" y="345.6"/>
      </g>
     </g>
     <g id="text_1">
      <!-- 4.00 -->
      <g transform="translate(105 368.99125)scale(0.24 -0.24)">
       <defs>
        <path d="M 47.296875 16.703125 
L 37 16.703125 
L 37 0 
L 29.203125 0 
L 29.203125 16.703125 
L 1.203125 16.703125 
L 1.203125 23.09375 
L 32.59375 67.59375 
L 37 67.59375 
L 37 23.09375 
L 47.296875 23.09375 
z
M 29.203125 23.09375 
L 29.203125 57.40625 
L 5.203125 23.09375 
z
" id="STIXGeneral-Regular-52"/>
        <path d="M 18.09375 4.296875 
Q 18.09375 2.09375 16.4375 0.5 
Q 14.796875 -1.09375 12.5 -1.09375 
Q 10.203125 -1.09375 8.59375 0.5 
Q 7 2.09375 7 4.390625 
Q 7 6.703125 8.640625 8.34375 
Q 10.296875 10 12.59375 10 
Q 14.796875 10 16.4375 8.296875 
Q 18.09375 6.59375 18.09375 4.296875 
z
" id="STIXGeneral-Regular-46"/>
        <path d="M 47.59375 33 
Q 47.59375 26.296875 46.296875 20.34375 
Q 45 14.40625 42.453125 9.40625 
Q 39.90625 4.40625 35.40625 1.5 
Q 30.90625 -1.40625 25 -1.40625 
Q 18.90625 -1.40625 14.296875 1.6875 
Q 9.703125 4.796875 7.203125 10 
Q 4.703125 15.203125 3.546875 21.09375 
Q 2.40625 27 2.40625 33.59375 
Q 2.40625 42.90625 4.703125 50.34375 
Q 7 57.796875 12.34375 62.6875 
Q 17.703125 67.59375 25.40625 67.59375 
Q 35.203125 67.59375 41.390625 58 
Q 47.59375 48.40625 47.59375 33 
z
M 38 32.5 
Q 38 48.296875 34.640625 56.640625 
Q 31.296875 65 24.796875 65 
Q 18.59375 65 15.296875 56.59375 
Q 12 48.203125 12 32.90625 
Q 12 17.5 15.296875 9.34375 
Q 18.59375 1.203125 25 1.203125 
Q 31.296875 1.203125 34.640625 9.34375 
Q 38 17.5 38 32.5 
z
" id="STIXGeneral-Regular-48"/>
       </defs>
       <use xlink:href="#STIXGeneral-Regular-52"/>
       <use x="49.999985" xlink:href="#STIXGeneral-Regular-46"/>
       <use x="74.999969" xlink:href="#STIXGeneral-Regular-48"/>
       <use x="124.999954" xlink:href="#STIXGeneral-Regular-48"/>
      </g>
     </g>
    </g>
    <g id="xtick_2">
     <g id="line2d_2">
      <g>
       <use style="fill:#ffffff;stroke:#000000;stroke-width:0.8;" x="214.772727" xlink:href="#me187c582e9" y="345.6"/>
      </g>
     </g>
     <g id="text_2">
      <!-- 4.25 -->
      <g transform="translate(193.772727 368.99125)scale(0.24 -0.24)">
       <defs>
        <path d="M 47.40625 13.703125 
L 42 0 
L 2.90625 0 
L 2.90625 1.203125 
L 20.703125 20.09375 
Q 27.703125 27.40625 30.703125 33.5 
Q 33.703125 39.59375 33.703125 46.09375 
Q 33.703125 52.796875 30 56.5 
Q 26.296875 60.203125 19.796875 60.203125 
Q 14.40625 60.203125 11.25 57.390625 
Q 8.09375 54.59375 5.09375 47.203125 
L 3 47.703125 
Q 4.703125 57 9.84375 62.296875 
Q 15 67.59375 23.796875 67.59375 
Q 32.09375 67.59375 37.1875 62.59375 
Q 42.296875 57.59375 42.296875 50 
Q 42.296875 38.703125 29.5 25.203125 
L 13 7.59375 
L 36.40625 7.59375 
Q 39.703125 7.59375 41.640625 8.890625 
Q 43.59375 10.203125 46 14.296875 
z
" id="STIXGeneral-Regular-50"/>
        <path d="M 43.796875 68.09375 
L 40.203125 59.59375 
Q 39.59375 58.296875 37.5 58.296875 
L 18.09375 58.296875 
L 14.09375 49.796875 
Q 25.09375 47.703125 30 45.25 
Q 34.90625 42.796875 39.09375 37 
Q 42.59375 32.203125 42.59375 24.296875 
Q 42.59375 17.09375 40.25 12.1875 
Q 37.90625 7.296875 32.796875 3.5 
Q 26 -1.40625 15.796875 -1.40625 
Q 10.09375 -1.40625 6.59375 0.296875 
Q 3.09375 2 3.09375 4.796875 
Q 3.09375 8.59375 7.59375 8.59375 
Q 11.203125 8.59375 15 5.5 
Q 18.90625 2.296875 22.09375 2.296875 
Q 27.296875 2.296875 31.4375 7.5 
Q 35.59375 12.703125 35.59375 19.203125 
Q 35.59375 28.796875 28.90625 34.203125 
Q 20.203125 41.203125 7.59375 41.203125 
Q 6.40625 41.203125 6.40625 42 
L 6.5 42.5 
L 17.40625 66.203125 
L 38.09375 66.203125 
Q 39.796875 66.203125 40.75 66.703125 
Q 41.703125 67.203125 42.90625 68.796875 
z
" id="STIXGeneral-Regular-53"/>
       </defs>
       <use xlink:href="#STIXGeneral-Regular-52"/>
       <use x="49.999985" xlink:href="#STIXGeneral-Regular-46"/>
       <use x="74.999969" xlink:href="#STIXGeneral-Regular-50"/>
       <use x="124.999954" xlink:href="#STIXGeneral-Regular-53"/>
      </g>
     </g>
    </g>
    <g id="xtick_3">
     <g id="line2d_3">
      <g>
       <use style="fill:#ffffff;stroke:#000000;stroke-width:0.8;" x="303.545455" xlink:href="#me187c582e9" y="345.6"/>
      </g>
     </g>
     <g id="text_3">
      <!-- 4.50 -->
      <g transform="translate(282.545455 368.99125)scale(0.24 -0.24)">
       <use xlink:href="#STIXGeneral-Regular-52"/>
       <use x="49.999985" xlink:href="#STIXGeneral-Regular-46"/>
       <use x="74.999969" xlink:href="#STIXGeneral-Regular-53"/>
       <use x="124.999954" xlink:href="#STIXGeneral-Regular-48"/>
      </g>
     </g>
    </g>
    <g id="xtick_4">
     <g id="line2d_4">
      <g>
       <use style="fill:#ffffff;stroke:#000000;stroke-width:0.8;" x="392.318182" xlink:href="#me187c582e9" y="345.6"/>
      </g>
     </g>
     <g id="text_4">
      <!-- 4.75 -->
      <g transform="translate(371.318182 368.99125)scale(0.24 -0.24)">
       <defs>
        <path d="M 44.90625 64.59375 
L 23.703125 -0.796875 
L 17.203125 -0.796875 
L 37 58.796875 
L 15.5 58.796875 
Q 11.203125 58.796875 9.09375 57.296875 
Q 7 55.796875 3.796875 50.59375 
L 2 51.5 
L 8 66.203125 
L 44.90625 66.203125 
z
" id="STIXGeneral-Regular-55"/>
       </defs>
       <use xlink:href="#STIXGeneral-Regular-52"/>
       <use x="49.999985" xlink:href="#STIXGeneral-Regular-46"/>
       <use x="74.999969" xlink:href="#STIXGeneral-Regular-55"/>
       <use x="124.999954" xlink:href="#STIXGeneral-Regular-53"/>
      </g>
     </g>
    </g>
    <g id="xtick_5">
     <g id="line2d_5">
      <g>
       <use style="fill:#ffffff;stroke:#000000;stroke-width:0.8;" x="481.090909" xlink:href="#me187c582e9" y="345.6"/>
      </g>
     </g>
     <g id="text_5">
      <!-- 5.00 -->
      <g transform="translate(460.090909 368.99125)scale(0.24 -0.24)">
       <use xlink:href="#STIXGeneral-Regular-53"/>
       <use x="49.999985" xlink:href="#STIXGeneral-Regular-46"/>
       <use x="74.999969" xlink:href="#STIXGeneral-Regular-48"/>
       <use x="124.999954" xlink:href="#STIXGeneral-Regular-48"/>
      </g>
     </g>
    </g>
    <g id="text_6">
     <!-- $\^t$ -->
     <g transform="translate(300.185455 394.59125)scale(0.24 -0.24)">
      <defs>
       <path d="M -7.5 50.703125 
L -10.90625 50.703125 
L -23.09375 61 
L -35.203125 50.703125 
L -38.59375 50.703125 
L -26.203125 67.40625 
L -20 67.40625 
z
" id="STIXGeneral-Regular-770"/>
       <path d="M 29.59375 42.796875 
L 29.09375 39.59375 
L 20.703125 39.59375 
L 12 6.796875 
Q 11.796875 6 11.796875 5.40625 
Q 11.796875 3.796875 13.296875 3.796875 
Q 14.5 3.796875 16.09375 5.34375 
Q 17.703125 6.90625 21.40625 11.703125 
L 22.703125 11 
Q 18.09375 4 15.140625 1.453125 
Q 12.203125 -1.09375 8.40625 -1.09375 
Q 3.796875 -1.09375 3.796875 2.59375 
Q 3.796875 3.59375 5.40625 10 
L 13.203125 39.59375 
L 5.703125 39.59375 
L 5.59375 40.203125 
Q 5.59375 42 8.90625 42.703125 
Q 11.40625 43.296875 15.5 46.546875 
Q 19.59375 49.796875 22.203125 53.703125 
Q 22.796875 54.59375 23.59375 54.59375 
Q 24.5 54.59375 24.5 53.796875 
Q 24.5 53.296875 24.40625 53.09375 
L 21.59375 42.796875 
z
" id="STIXGeneral-Italic-116"/>
      </defs>
      <use transform="translate(39.042969 16.59375)" xlink:href="#STIXGeneral-Regular-770"/>
      <use transform="translate(0 0.203125)" xlink:href="#STIXGeneral-Italic-116"/>
     </g>
    </g>
   </g>
   <g id="matplotlib.axis_2">
    <g id="ytick_1">
     <g id="line2d_6">
      <defs>
       <path d="M 0 0 
L -3.5 0 
" id="m6e81dfdc62" style="stroke:#000000;stroke-width:0.8;"/>
      </defs>
      <g>
       <use style="fill:#ffffff;stroke:#000000;stroke-width:0.8;" x="126" xlink:href="#m6e81dfdc62" y="298.472727"/>
      </g>
     </g>
     <g id="text_7">
      <!-- 0 -->
      <g transform="translate(107 306.668352)scale(0.24 -0.24)">
       <use xlink:href="#STIXGeneral-Regular-48"/>
      </g>
     </g>
    </g>
    <g id="ytick_2">
     <g id="line2d_7">
      <g>
       <use style="fill:#ffffff;stroke:#000000;stroke-width:0.8;" x="126" xlink:href="#m6e81dfdc62" y="204.218182"/>
      </g>
     </g>
     <g id="text_8">
      <!-- 2 -->
      <g transform="translate(107 212.413807)scale(0.24 -0.24)">
       <use xlink:href="#STIXGeneral-Regular-50"/>
      </g>
     </g>
    </g>
    <g id="ytick_3">
     <g id="line2d_8">
      <g>
       <use style="fill:#ffffff;stroke:#000000;stroke-width:0.8;" x="126" xlink:href="#m6e81dfdc62" y="109.963636"/>
      </g>
     </g>
     <g id="text_9">
      <!-- 4 -->
      <g transform="translate(107 118.159261)scale(0.24 -0.24)">
       <use xlink:href="#STIXGeneral-Regular-52"/>
      </g>
     </g>
    </g>
    <g id="text_10">
     <!-- $C_L$ -->
     <g transform="translate(97.79125 229.32)rotate(-90)scale(0.24 -0.24)">
      <defs>
       <path d="M 68.90625 66.40625 
L 65.203125 46.40625 
L 63.40625 46.703125 
Q 61.59375 63 48.5 63 
Q 37.59375 63 28.59375 53.296875 
Q 23.296875 47.703125 20.546875 39.703125 
Q 17.796875 31.703125 17.796875 23.203125 
Q 17.796875 2.703125 35.296875 2.703125 
Q 41.5 2.703125 46.640625 5.296875 
Q 51.796875 7.90625 58.203125 14.59375 
L 60 13.09375 
Q 53.296875 5.203125 46.84375 1.703125 
Q 40.40625 -1.796875 32.703125 -1.796875 
Q 21 -1.796875 13.796875 5.140625 
Q 6.59375 12.09375 6.59375 24.296875 
Q 6.59375 34.59375 11.6875 43.9375 
Q 16.796875 53.296875 25.296875 59.296875 
Q 35.5 66.59375 47.203125 66.59375 
Q 54.09375 66.59375 58.90625 64.90625 
Q 60.90625 64.203125 63 64.203125 
Q 65.703125 64.203125 66.796875 66.40625 
z
" id="STIXGeneral-Italic-67"/>
       <path d="M 55.90625 18 
L 50.09375 0 
L -0.796875 0 
L -0.796875 1.59375 
Q 3.40625 2 4.703125 3.296875 
Q 6 4.59375 7.40625 9.40625 
L 19.59375 53.203125 
Q 20.703125 56.90625 20.703125 59.40625 
Q 20.703125 61.59375 19.140625 62.5 
Q 17.59375 63.40625 13 63.703125 
L 13 65.296875 
L 40.296875 65.296875 
L 40.296875 63.703125 
Q 35.703125 63.40625 33.546875 61.796875 
Q 31.40625 60.203125 30.203125 56 
L 18.203125 13.09375 
Q 17.203125 9.296875 17.203125 7.703125 
Q 17.203125 5.40625 19.390625 4.5 
Q 21.59375 3.59375 27.703125 3.59375 
Q 35.40625 3.59375 38.75 4.296875 
Q 42.09375 5 45.703125 7.40625 
Q 49.796875 10.09375 53.90625 18.59375 
z
" id="STIXGeneral-Italic-76"/>
      </defs>
      <use transform="translate(0 0.40625)" xlink:href="#STIXGeneral-Italic-67"/>
      <use transform="translate(66.699997 -12.821875)scale(0.7)" xlink:href="#STIXGeneral-Italic-76"/>
     </g>
    </g>
   </g>
   <g id="line2d_9">
    <path clip-path="url(#p1a728bad73)" d="M 125.644909 332.239583 
L 126.355091 333.316728 
L 127.065273 333.939393 
L 127.775455 334.125285 
L 128.485636 333.896139 
L 129.195818 333.277675 
L 129.906 332.292323 
L 130.616182 330.97077 
L 131.681455 328.420915 
L 132.746727 325.286444 
L 134.167091 320.379535 
L 135.942545 313.402997 
L 138.783273 301.148602 
L 145.885091 269.987398 
L 148.725818 258.721229 
L 151.211455 249.608284 
L 153.342 242.568798 
L 155.117455 237.488941 
L 156.537818 234.126298 
L 157.603091 232.095165 
L 158.668364 230.563941 
L 159.378545 229.847749 
L 160.088727 229.399673 
L 160.798909 229.237687 
L 161.509091 229.37822 
L 162.219273 229.840836 
L 162.929455 230.639583 
L 163.639636 231.791559 
L 164.349818 233.316711 
L 165.415091 236.340846 
L 166.480364 240.287761 
L 167.545636 245.175853 
L 168.610909 251.026478 
L 170.031273 260.312348 
L 170.386364 262.932729 
L 170.741455 264.25049 
L 171.096545 261.942875 
L 171.451636 261.073791 
L 172.161818 260.093202 
L 173.937273 257.521283 
L 175.712727 255.331925 
L 177.488182 253.449419 
L 179.618727 251.497917 
L 182.459455 249.227772 
L 186.365455 246.439984 
L 191.691818 242.916759 
L 198.438545 238.76022 
L 203.054727 236.170019 
L 208.026 233.674023 
L 212.642182 231.640659 
L 216.903273 229.997313 
L 221.519455 228.424008 
L 227.556 226.645747 
L 232.882364 225.279454 
L 243.535091 223.020697 
L 246.020727 222.589903 
L 248.506364 222.154125 
L 250.992 221.773266 
L 253.477636 221.380958 
L 255.963273 221.0446 
L 258.448909 220.697778 
L 259.159091 220.621903 
L 259.514182 220.153416 
L 260.224364 217.214431 
L 261.644727 212.163454 
L 264.485455 200.867436 
L 268.391455 185.1636 
L 270.166909 178.919919 
L 271.587273 174.737258 
L 272.652545 172.206589 
L 273.717818 170.30469 
L 274.428 169.407102 
L 275.138182 168.857349 
L 275.848364 168.656178 
L 276.203455 168.670539 
L 276.913636 169.025656 
L 277.623818 169.765472 
L 278.334 170.898996 
L 279.044182 172.448816 
L 280.109455 175.532045 
L 281.174727 179.533009 
L 282.24 184.433515 
L 283.660364 192.32765 
L 285.080727 201.668719 
L 286.856182 215.114273 
L 288.986727 233.25506 
L 296.443636 299.197257 
L 297.864 309.373018 
L 299.284364 318.005117 
L 300.349636 323.346392 
L 301.414909 327.652688 
L 302.480182 330.904175 
L 303.190364 332.482348 
L 303.900545 333.59761 
L 304.610727 334.260535 
L 305.320909 334.487943 
L 306.031091 334.299216 
L 306.741273 333.721937 
L 307.451455 332.780289 
L 308.161636 331.49975 
L 309.226909 329.013667 
L 310.292182 325.944117 
L 311.712545 321.100714 
L 313.488 314.182599 
L 316.328727 301.938791 
L 324.140727 267.581327 
L 327.336545 255.047515 
L 329.822182 246.205171 
L 331.952727 239.57158 
L 333.373091 235.851473 
L 334.438364 233.509229 
L 335.503636 231.628678 
L 336.568909 230.267585 
L 337.279091 229.679022 
L 337.989273 229.370281 
L 338.699455 229.357276 
L 339.409636 229.649369 
L 340.119818 230.275156 
L 340.83 231.25526 
L 341.540182 232.591705 
L 342.250364 234.306452 
L 343.315636 237.63607 
L 344.380909 241.879469 
L 345.446182 247.078864 
L 346.511455 253.241745 
L 348.286909 264.262975 
L 348.642 261.949654 
L 348.997091 261.062126 
L 349.352182 260.651534 
L 350.772545 258.452291 
L 352.192909 256.510498 
L 353.613273 254.795359 
L 355.388727 252.892541 
L 358.584545 250.02214 
L 360.36 248.58551 
L 368.172 243.040355 
L 379.534909 236.111205 
L 384.151091 233.749037 
L 388.057091 231.980993 
L 393.028364 230.01688 
L 398.354727 228.223185 
L 402.970909 226.873181 
L 409.362545 225.264409 
L 416.819455 223.679074 
L 423.566182 222.459918 
L 432.443455 221.136921 
L 436.704545 220.606649 
L 437.059636 220.130762 
L 437.769818 217.201254 
L 439.190182 212.154898 
L 441.675818 202.346006 
L 446.292 183.921589 
L 448.067455 177.899698 
L 449.487818 173.954934 
L 450.553091 171.64244 
L 451.263273 170.451011 
L 451.973455 169.572394 
L 452.683636 169.025981 
L 453.393818 168.831263 
L 454.104 169.005517 
L 454.814182 169.563374 
L 455.524364 170.511199 
L 456.234545 171.862494 
L 456.944727 173.624324 
L 458.01 177.032216 
L 459.075273 181.359272 
L 460.140545 186.579381 
L 461.560909 194.870782 
L 462.981273 204.565655 
L 464.756727 218.377091 
L 466.887273 236.794583 
L 473.634 296.640876 
L 475.409455 309.501631 
L 476.829818 318.090847 
L 477.895091 323.404715 
L 478.960364 327.688303 
L 480.025636 330.914208 
L 480.735818 332.47876 
L 481.090909 333.08716 
L 481.090909 333.08716 
" style="fill:none;stroke:#1f77b4;stroke-linecap:square;stroke-width:4;"/>
   </g>
   <g id="line2d_10">
    <path clip-path="url(#p1a728bad73)" d="M 125.644909 304.16432 
L 126.710182 302.239334 
L 128.130545 299.166855 
L 130.261091 293.872127 
L 134.522182 283.103353 
L 136.297636 279.298586 
L 137.718 276.709547 
L 139.138364 274.526507 
L 140.558727 272.708206 
L 142.334182 270.822326 
L 148.015636 265.174573 
L 149.791091 262.835025 
L 151.566545 260.07718 
L 153.697091 256.301664 
L 159.023455 246.545763 
L 160.443818 244.427609 
L 161.864182 242.729566 
L 162.929455 241.79073 
L 163.994727 241.175422 
L 164.704909 240.960677 
L 165.415091 240.90922 
L 166.125273 241.028226 
L 166.835455 241.324132 
L 167.545636 241.800985 
L 168.610909 242.86121 
L 169.676182 244.343265 
L 170.386364 245.582764 
L 170.741455 245.820501 
L 171.096545 244.880138 
L 171.806727 244.077549 
L 174.292364 241.618972 
L 176.778 239.474717 
L 179.618727 237.335242 
L 182.814545 235.246285 
L 186.010364 233.430818 
L 189.561273 231.6855 
L 193.467273 230.03861 
L 197.373273 228.626532 
L 201.989455 227.215051 
L 206.605636 226.02737 
L 212.287091 224.819987 
L 218.678727 223.734259 
L 225.780545 222.79558 
L 233.237455 222.067034 
L 237.853636 221.732732 
L 252.767455 221.275883 
L 259.514182 221.393955 
L 260.224364 221.654546 
L 265.905818 223.136889 
L 268.036364 224.03825 
L 269.811818 225.136946 
L 271.232182 226.329232 
L 272.652545 227.874614 
L 274.072909 229.845952 
L 275.138182 231.631367 
L 276.558545 234.476502 
L 277.978909 237.878852 
L 279.399273 241.85737 
L 281.174727 247.640632 
L 282.950182 254.244911 
L 285.080727 263.03808 
L 291.827455 291.727117 
L 293.247818 296.660303 
L 294.668182 300.788813 
L 295.733455 303.268702 
L 296.798727 305.183995 
L 297.508909 306.123587 
L 298.219091 306.791515 
L 298.929273 307.18751 
L 299.639455 307.314135 
L 300.349636 307.181207 
L 301.059818 306.795009 
L 301.77 306.171207 
L 302.835273 304.824515 
L 303.900545 303.044771 
L 305.320909 300.124379 
L 307.096364 295.869198 
L 312.422727 282.534866 
L 314.198182 278.873057 
L 315.618545 276.397483 
L 317.038909 274.313031 
L 318.459273 272.575378 
L 320.234727 270.746779 
L 324.495818 266.656596 
L 326.271273 264.561467 
L 328.046727 262.056729 
L 329.822182 259.144985 
L 331.952727 255.257855 
L 336.568909 246.841432 
L 337.989273 244.719432 
L 339.409636 243.010075 
L 340.474909 242.067413 
L 341.540182 241.434545 
L 342.605455 241.162262 
L 343.315636 241.183631 
L 344.025818 241.383967 
L 344.736 241.757041 
L 345.801273 242.660145 
L 346.866545 243.97838 
L 348.286909 245.971761 
L 348.642 245.025769 
L 349.352182 244.213404 
L 351.482727 242.046491 
L 353.613273 240.116664 
L 355.743818 238.388654 
L 357.874364 236.830165 
L 360.36 235.185622 
L 364.621091 232.763934 
L 369.592364 230.436099 
L 375.273818 228.300065 
L 379.89 226.895287 
L 384.506182 225.725556 
L 390.187636 224.54212 
L 396.579273 223.481741 
L 403.326 222.616062 
L 409.717636 222.00251 
L 416.464364 221.545207 
L 424.631455 221.242187 
L 431.733273 221.185062 
L 437.059636 221.302662 
L 437.769818 221.566889 
L 442.741091 222.827062 
L 444.516545 223.468576 
L 446.292 224.361653 
L 447.712364 225.33718 
L 449.132727 226.613602 
L 450.553091 228.262532 
L 451.973455 230.3477 
L 453.393818 232.927985 
L 454.814182 236.051968 
L 456.234545 239.748617 
L 457.654909 244.025563 
L 459.430364 250.157527 
L 461.560909 258.52104 
L 464.401636 270.788305 
L 468.307636 287.606864 
L 470.083091 294.284019 
L 471.503455 298.834452 
L 472.568727 301.676761 
L 473.634 303.976519 
L 474.699273 305.689789 
L 475.409455 306.495919 
L 476.119636 307.029345 
L 476.829818 307.291661 
L 477.54 307.287459 
L 478.250182 307.026577 
L 478.960364 306.519545 
L 479.670545 305.78262 
L 480.735818 304.286519 
L 481.090909 303.693276 
L 481.090909 303.693276 
" style="fill:none;stroke:#ff7f0e;stroke-linecap:square;stroke-width:4;"/>
   </g>
   <g id="line2d_11">
    <path clip-path="url(#p1a728bad73)" d="M 125.644909 299.720173 
L 127.065273 297.166543 
L 128.840727 293.498409 
L 134.522182 281.36056 
L 135.942545 278.893591 
L 137.362909 276.821625 
L 138.783273 275.149358 
L 140.203636 273.822378 
L 141.979091 272.499605 
L 145.174909 270.20836 
L 146.595273 268.905436 
L 148.015636 267.296585 
L 149.436 265.342336 
L 151.211455 262.42206 
L 153.342 258.353735 
L 160.443818 244.083242 
L 162.219273 241.279744 
L 163.639636 239.478193 
L 164.704909 238.427236 
L 165.770182 237.658592 
L 166.835455 237.191749 
L 167.900727 237.044261 
L 168.610909 237.130002 
L 169.676182 237.541824 
L 170.741455 238.060309 
L 171.096545 237.46016 
L 171.806727 236.869052 
L 173.937273 235.373184 
L 176.067818 234.147994 
L 178.553455 232.996465 
L 181.039091 232.08369 
L 183.879818 231.270784 
L 187.430727 230.513178 
L 191.691818 229.873286 
L 196.663091 229.384751 
L 202.699636 229.054296 
L 210.156545 228.877324 
L 225.070364 228.820157 
L 239.984182 228.99781 
L 259.514182 229.854902 
L 260.224364 230.377703 
L 262.354909 231.694976 
L 264.485455 233.235773 
L 266.616 235.054032 
L 268.391455 236.83766 
L 270.166909 238.9149 
L 271.942364 241.356559 
L 273.717818 244.223264 
L 275.493273 247.574844 
L 277.268727 251.464434 
L 279.044182 255.897157 
L 281.174727 261.920166 
L 283.660364 269.744946 
L 290.407091 291.628011 
L 292.182545 296.311068 
L 293.602909 299.379034 
L 294.668182 301.212005 
L 295.733455 302.599742 
L 296.443636 303.274176 
L 297.153818 303.739136 
L 297.864 303.992523 
L 298.574182 304.039193 
L 299.284364 303.880756 
L 299.994545 303.524438 
L 300.704727 302.98088 
L 301.77 301.839192 
L 302.835273 300.34739 
L 304.255636 297.908529 
L 306.031091 294.334724 
L 312.422727 280.811954 
L 314.198182 277.915384 
L 315.618545 276.044203 
L 317.038909 274.551515 
L 318.459273 273.357764 
L 323.785636 269.330902 
L 325.206 267.801138 
L 326.626364 265.933872 
L 328.046727 263.722597 
L 329.822182 260.522524 
L 332.307818 255.500945 
L 336.568909 246.740122 
L 338.344364 243.536242 
L 339.764727 241.341772 
L 341.185091 239.529876 
L 342.250364 238.468688 
L 343.315636 237.694253 
L 344.380909 237.216701 
L 345.446182 237.060129 
L 346.511455 237.238673 
L 347.221636 237.541968 
L 347.931818 238.010778 
L 348.286909 238.051519 
L 348.642 237.448179 
L 349.352182 236.853862 
L 351.127636 235.565461 
L 353.613273 234.097706 
L 355.743818 233.07733 
L 357.874364 232.241276 
L 360.36 231.447996 
L 364.266 230.528132 
L 367.106727 230.032845 
L 370.302545 229.605047 
L 377.049273 229.061592 
L 383.085818 228.839702 
L 393.738545 228.733721 
L 411.138 228.83749 
L 422.856 229.105839 
L 435.994364 229.660992 
L 437.059636 229.791166 
L 437.769818 230.314762 
L 439.900364 231.628863 
L 442.030909 233.168245 
L 444.161455 234.985337 
L 445.936909 236.765554 
L 447.712364 238.845565 
L 449.487818 241.288079 
L 451.263273 244.157872 
L 453.038727 247.513124 
L 454.814182 251.400394 
L 456.589636 255.837255 
L 458.720182 261.862895 
L 461.205818 269.694208 
L 467.952545 291.599137 
L 469.728 296.288047 
L 471.148364 299.358375 
L 472.213636 301.194384 
L 473.278909 302.588336 
L 474.344182 303.524052 
L 475.054364 303.885067 
L 475.764545 304.036345 
L 476.474727 303.9819 
L 477.184909 303.726003 
L 477.895091 303.276986 
L 478.960364 302.264533 
L 480.025636 300.886873 
L 481.090909 299.194919 
L 481.090909 299.194919 
" style="fill:none;stroke:#2ca02c;stroke-linecap:square;stroke-width:4;"/>
   </g>
   <g id="line2d_12">
    <path clip-path="url(#p1a728bad73)" d="M 125.644909 298.134997 
L 127.065273 295.832378 
L 129.195818 291.894902 
L 133.456909 283.829488 
L 135.232364 281.005695 
L 136.652727 279.147736 
L 138.073091 277.666365 
L 139.493455 276.505449 
L 141.624 275.085358 
L 143.754545 273.577166 
L 145.174909 272.292607 
L 146.595273 270.678258 
L 148.015636 268.694261 
L 149.436 266.34938 
L 151.211455 262.984687 
L 153.697091 257.743367 
L 158.668364 247.119405 
L 160.798909 243.171591 
L 162.574364 240.393556 
L 163.994727 238.584397 
L 165.06 237.502384 
L 166.125273 236.678035 
L 167.190545 236.128275 
L 168.255818 235.866277 
L 169.321091 235.903856 
L 170.741455 236.267932 
L 171.096545 235.851461 
L 172.161818 235.260306 
L 173.937273 234.476613 
L 176.067818 233.788996 
L 178.553455 233.26504 
L 181.039091 232.972226 
L 184.234909 232.84171 
L 188.496 232.913848 
L 195.597818 233.274088 
L 219.744 234.568764 
L 231.462 234.93142 
L 257.738727 235.636613 
L 259.514182 235.775246 
L 260.224364 236.279954 
L 261.999818 237.379998 
L 264.130364 238.980965 
L 266.260909 240.911698 
L 268.036364 242.796969 
L 270.166909 245.448739 
L 271.942364 248.015326 
L 273.717818 250.945665 
L 275.493273 254.272147 
L 277.623818 258.817736 
L 279.754364 263.96072 
L 282.24 270.611387 
L 290.052 292.350309 
L 291.827455 296.268204 
L 293.247818 298.809928 
L 294.313091 300.309524 
L 295.378364 301.440207 
L 296.443636 302.168183 
L 297.153818 302.437386 
L 297.864 302.52978 
L 298.574182 302.447768 
L 299.284364 302.196897 
L 300.349636 301.520247 
L 301.414909 300.511344 
L 302.480182 299.208593 
L 303.900545 297.08984 
L 305.676 293.985559 
L 312.422727 281.597743 
L 313.843091 279.638399 
L 315.263455 278.058756 
L 316.683818 276.81397 
L 318.459273 275.564658 
L 320.944909 273.858841 
L 322.365273 272.63884 
L 323.785636 271.104506 
L 325.206 269.210655 
L 326.626364 266.948308 
L 328.401818 263.666214 
L 330.887455 258.487049 
L 336.213818 247.071456 
L 338.344364 243.10936 
L 340.119818 240.326239 
L 341.540182 238.510673 
L 342.960545 237.115637 
L 344.025818 236.375323 
L 345.091091 235.914529 
L 346.156364 235.743 
L 347.221636 235.875233 
L 348.286909 236.153458 
L 348.642 235.734364 
L 349.707273 235.132702 
L 351.837818 234.207768 
L 353.968364 233.5523 
L 356.454 233.058732 
L 358.939636 232.779941 
L 362.845636 232.6601 
L 366.751636 232.743145 
L 380.955273 233.561395 
L 393.028364 234.229294 
L 404.036182 234.662031 
L 437.059636 235.657125 
L 437.769818 236.163016 
L 439.545273 237.26268 
L 441.675818 238.861189 
L 443.806364 240.79042 
L 445.581818 242.680323 
L 447.357273 244.858711 
L 449.132727 247.358525 
L 450.908182 250.216075 
L 452.683636 253.466567 
L 454.459091 257.132962 
L 456.589636 262.087682 
L 458.720182 267.598249 
L 461.560909 275.591197 
L 466.177091 288.704187 
L 467.952545 293.150032 
L 469.372909 296.235344 
L 470.793273 298.781106 
L 471.858545 300.285349 
L 472.923818 301.413329 
L 473.989091 302.149643 
L 474.699273 302.419922 
L 475.409455 302.513521 
L 476.119636 302.43287 
L 476.829818 302.183198 
L 477.895091 301.507362 
L 478.960364 300.498991 
L 480.025636 299.196086 
L 481.090909 297.642064 
L 481.090909 297.642064 
" style="fill:none;stroke:#d62728;stroke-linecap:square;stroke-width:4;"/>
   </g>
   <g id="line2d_13">
    <path clip-path="url(#p1a728bad73)" d="M 126 298.472727 
L 481.090909 298.472727 
" style="fill:none;stroke:#000000;stroke-dasharray:3.2,0.8,0.5,0.8;stroke-dashoffset:0;stroke-width:0.5;"/>
   </g>
   <g id="line2d_14">
    <path clip-path="url(#p1a728bad73)" d="M 303.545455 345.6 
L 303.545455 86.4 
" style="fill:none;stroke:#000000;stroke-dasharray:3.2,0.8,0.5,0.8;stroke-dashoffset:0;stroke-width:0.5;"/>
   </g>
   <g id="patch_3">
    <path d="M 126 345.6 
L 126 86.4 
" style="fill:none;stroke:#000000;stroke-linecap:square;stroke-linejoin:miter;stroke-width:0.8;"/>
   </g>
   <g id="patch_4">
    <path d="M 481.090909 345.6 
L 481.090909 86.4 
" style="fill:none;stroke:#000000;stroke-linecap:square;stroke-linejoin:miter;stroke-width:0.8;"/>
   </g>
   <g id="patch_5">
    <path d="M 126 345.6 
L 481.090909 345.6 
" style="fill:none;stroke:#000000;stroke-linecap:square;stroke-linejoin:miter;stroke-width:0.8;"/>
   </g>
   <g id="patch_6">
    <path d="M 126 86.4 
L 481.090909 86.4 
" style="fill:none;stroke:#000000;stroke-linecap:square;stroke-linejoin:miter;stroke-width:0.8;"/>
   </g>
   <g id="legend_1">
    <g id="line2d_15">
     <path d="M 241.90992 59.55 
L 281.89392 59.55 
" style="fill:none;stroke:#1f77b4;stroke-linecap:square;stroke-width:4;"/>
    </g>
    <g id="line2d_16"/>
    <g id="text_11">
     <!-- $\hat r_R$ = 0 -->
     <g transform="translate(297.88752 66.5472)scale(0.19992 -0.19992)">
      <defs>
       <path d="M 17.59375 22.296875 
L 19.203125 25.796875 
Q 22.59375 33.296875 28.59375 39.59375 
Q 32.90625 44.09375 36.5 44.09375 
Q 38.59375 44.09375 39.890625 42.6875 
Q 41.203125 41.296875 41.203125 39 
Q 41.203125 36.703125 39.953125 35.140625 
Q 38.703125 33.59375 36.5 33.59375 
Q 34.59375 33.59375 33 36.203125 
Q 32.203125 37.59375 31.40625 37.59375 
Q 28.703125 37.59375 23.203125 28.203125 
Q 19.796875 22.40625 17.75 17.25 
Q 15.703125 12.09375 12.09375 0 
L 4.5 0 
L 12.59375 29.203125 
Q 14.203125 35.09375 14.203125 37.40625 
Q 14.203125 40 10.40625 40 
Q 9.59375 40 7.296875 39.703125 
L 7.296875 41.40625 
L 22.796875 44.09375 
L 23.09375 43.90625 
z
" id="STIXGeneral-Italic-114"/>
       <path d="M 13.203125 65.296875 
L 38.40625 65.296875 
Q 48.09375 65.296875 53.4375 61.5 
Q 58.796875 57.703125 58.796875 51.203125 
Q 58.796875 43.40625 52.203125 38.40625 
Q 48.296875 35.40625 39.09375 33.296875 
L 48 9.796875 
Q 49.703125 5.203125 51.546875 3.390625 
Q 53.40625 1.59375 56.703125 1.59375 
L 56.703125 0 
L 42 0 
L 29.703125 32.40625 
L 23.09375 32.90625 
L 17.59375 12.59375 
Q 16.296875 8 16.296875 6.296875 
Q 16.296875 4 17.59375 3 
Q 18.90625 2 23 1.59375 
L 23 0 
L -1.296875 0 
L -1.296875 1.59375 
Q 2.703125 2.09375 4.34375 3.796875 
Q 6 5.5 7.203125 10.09375 
L 19.09375 53.203125 
Q 20.296875 57.796875 20.296875 59.5 
Q 20.296875 61.296875 18.90625 62.296875 
Q 17.703125 63.09375 13.203125 63.703125 
z
M 30.59375 59.296875 
L 24.296875 36.59375 
Q 27.40625 36.09375 29.40625 36.09375 
Q 38.296875 36.09375 43.296875 40.09375 
Q 48.296875 44.09375 48.296875 51.09375 
Q 48.296875 56.296875 45.1875 59.296875 
Q 42.09375 62.296875 36.296875 62.296875 
Q 31.40625 62.296875 30.59375 59.296875 
z
" id="STIXGeneral-Italic-82"/>
       <path id="STIXGeneral-Regular-32"/>
       <path d="M 63.703125 32 
L 4.796875 32 
L 4.796875 38.59375 
L 63.703125 38.59375 
z
M 63.703125 12 
L 4.796875 12 
L 4.796875 18.59375 
L 63.703125 18.59375 
z
" id="STIXGeneral-Regular-61"/>
      </defs>
      <use transform="translate(45.765625 6.59375)" xlink:href="#STIXGeneral-Regular-770"/>
      <use transform="translate(0 0.703125)" xlink:href="#STIXGeneral-Italic-114"/>
      <use transform="translate(40.443275 -12.525)scale(0.7)" xlink:href="#STIXGeneral-Italic-82"/>
      <use transform="translate(87.622644 0.703125)" xlink:href="#STIXGeneral-Regular-32"/>
      <use transform="translate(112.622628 0.703125)" xlink:href="#STIXGeneral-Regular-61"/>
      <use transform="translate(181.122613 0.703125)" xlink:href="#STIXGeneral-Regular-32"/>
      <use transform="translate(206.122598 0.703125)" xlink:href="#STIXGeneral-Regular-48"/>
     </g>
    </g>
    <g id="line2d_17">
     <path d="M 389.25096 59.55 
L 429.23496 59.55 
" style="fill:none;stroke:#ff7f0e;stroke-linecap:square;stroke-width:4;"/>
    </g>
    <g id="line2d_18"/>
    <g id="text_12">
     <!-- $\hat r_R$ = 1 -->
     <g transform="translate(445.22856 66.5472)scale(0.19992 -0.19992)">
      <defs>
       <path d="M 39.40625 0 
L 11.796875 0 
L 11.796875 1.5 
Q 17.296875 1.796875 19.296875 3.546875 
Q 21.296875 5.296875 21.296875 9.5 
L 21.296875 54.40625 
Q 21.296875 59.296875 18.296875 59.296875 
Q 16.90625 59.296875 13.796875 58.09375 
L 11.09375 57.09375 
L 11.09375 58.5 
L 29 67.59375 
L 29.90625 67.296875 
L 29.90625 7.59375 
Q 29.90625 4.296875 31.90625 2.890625 
Q 33.90625 1.5 39.40625 1.5 
z
" id="STIXGeneral-Regular-49"/>
      </defs>
      <use transform="translate(45.765625 6.59375)" xlink:href="#STIXGeneral-Regular-770"/>
      <use transform="translate(0 0.703125)" xlink:href="#STIXGeneral-Italic-114"/>
      <use transform="translate(40.443275 -12.525)scale(0.7)" xlink:href="#STIXGeneral-Italic-82"/>
      <use transform="translate(87.622644 0.703125)" xlink:href="#STIXGeneral-Regular-32"/>
      <use transform="translate(112.622628 0.703125)" xlink:href="#STIXGeneral-Regular-61"/>
      <use transform="translate(181.122613 0.703125)" xlink:href="#STIXGeneral-Regular-32"/>
      <use transform="translate(206.122598 0.703125)" xlink:href="#STIXGeneral-Regular-49"/>
     </g>
    </g>
    <g id="line2d_19">
     <path d="M 536.592 59.55 
L 576.576 59.55 
" style="fill:none;stroke:#2ca02c;stroke-linecap:square;stroke-width:4;"/>
    </g>
    <g id="line2d_20"/>
    <g id="text_13">
     <!-- $\hat r_R$ = 2 -->
     <g transform="translate(592.5696 66.5472)scale(0.19992 -0.19992)">
      <use transform="translate(45.765625 6.59375)" xlink:href="#STIXGeneral-Regular-770"/>
      <use transform="translate(0 0.703125)" xlink:href="#STIXGeneral-Italic-114"/>
      <use transform="translate(40.443275 -12.525)scale(0.7)" xlink:href="#STIXGeneral-Italic-82"/>
      <use transform="translate(87.622644 0.703125)" xlink:href="#STIXGeneral-Regular-32"/>
      <use transform="translate(112.622628 0.703125)" xlink:href="#STIXGeneral-Regular-61"/>
      <use transform="translate(181.122613 0.703125)" xlink:href="#STIXGeneral-Regular-32"/>
      <use transform="translate(206.122598 0.703125)" xlink:href="#STIXGeneral-Regular-50"/>
     </g>
    </g>
    <g id="line2d_21">
     <path d="M 683.93304 59.55 
L 723.91704 59.55 
" style="fill:none;stroke:#d62728;stroke-linecap:square;stroke-width:4;"/>
    </g>
    <g id="line2d_22"/>
    <g id="text_14">
     <!-- $\hat r_R$ = 3 -->
     <g transform="translate(739.91064 66.5472)scale(0.19992 -0.19992)">
      <defs>
       <path d="M 6.09375 51 
L 4.5 51.40625 
Q 6.796875 58.90625 11.6875 63.25 
Q 16.59375 67.59375 24.09375 67.59375 
Q 31.09375 67.59375 35.390625 63.796875 
Q 39.703125 60 39.703125 53.90625 
Q 39.703125 45.703125 30.40625 40.09375 
Q 35.90625 37.703125 38.703125 34.796875 
Q 43.09375 29.90625 43.09375 21.90625 
Q 43.09375 13.90625 38.5 7.90625 
Q 35.09375 3.296875 28.75 0.9375 
Q 22.40625 -1.40625 15.296875 -1.40625 
Q 4.09375 -1.40625 4.09375 4.296875 
Q 4.09375 5.90625 5.296875 6.90625 
Q 6.5 7.90625 8.203125 7.90625 
Q 10.703125 7.90625 14.296875 5.296875 
Q 18.703125 2.203125 22.90625 2.203125 
Q 28.40625 2.203125 32.15625 6.640625 
Q 35.90625 11.09375 35.90625 17.5 
Q 35.90625 29 25.5 32 
Q 22.40625 33 15.296875 33 
L 15.296875 34.40625 
Q 20.90625 36.296875 23.703125 38 
Q 31.796875 42.59375 31.796875 51.40625 
Q 31.796875 56.40625 28.9375 59 
Q 26.09375 61.59375 21 61.59375 
Q 12 61.59375 6.09375 51 
z
" id="STIXGeneral-Regular-51"/>
      </defs>
      <use transform="translate(45.765625 6.59375)" xlink:href="#STIXGeneral-Regular-770"/>
      <use transform="translate(0 0.703125)" xlink:href="#STIXGeneral-Italic-114"/>
      <use transform="translate(40.443275 -12.525)scale(0.7)" xlink:href="#STIXGeneral-Italic-82"/>
      <use transform="translate(87.622644 0.703125)" xlink:href="#STIXGeneral-Regular-32"/>
      <use transform="translate(112.622628 0.703125)" xlink:href="#STIXGeneral-Regular-61"/>
      <use transform="translate(181.122613 0.703125)" xlink:href="#STIXGeneral-Regular-32"/>
      <use transform="translate(206.122598 0.703125)" xlink:href="#STIXGeneral-Regular-51"/>
     </g>
    </g>
   </g>
  </g>
  <g id="axes_2">
   <g id="patch_7">
    <path d="M 552.109091 345.6 
L 907.2 345.6 
L 907.2 86.4 
L 552.109091 86.4 
z
" style="fill:#ffffff;"/>
   </g>
   <g id="matplotlib.axis_3">
    <g id="xtick_6">
     <g id="line2d_23">
      <g>
       <use style="fill:#ffffff;stroke:#000000;stroke-width:0.8;" x="552.109091" xlink:href="#me187c582e9" y="345.6"/>
      </g>
     </g>
     <g id="text_15">
      <!-- 4.00 -->
      <g transform="translate(531.109091 368.99125)scale(0.24 -0.24)">
       <use xlink:href="#STIXGeneral-Regular-52"/>
       <use x="49.999985" xlink:href="#STIXGeneral-Regular-46"/>
       <use x="74.999969" xlink:href="#STIXGeneral-Regular-48"/>
       <use x="124.999954" xlink:href="#STIXGeneral-Regular-48"/>
      </g>
     </g>
    </g>
    <g id="xtick_7">
     <g id="line2d_24">
      <g>
       <use style="fill:#ffffff;stroke:#000000;stroke-width:0.8;" x="640.881818" xlink:href="#me187c582e9" y="345.6"/>
      </g>
     </g>
     <g id="text_16">
      <!-- 4.25 -->
      <g transform="translate(619.881818 368.99125)scale(0.24 -0.24)">
       <use xlink:href="#STIXGeneral-Regular-52"/>
       <use x="49.999985" xlink:href="#STIXGeneral-Regular-46"/>
       <use x="74.999969" xlink:href="#STIXGeneral-Regular-50"/>
       <use x="124.999954" xlink:href="#STIXGeneral-Regular-53"/>
      </g>
     </g>
    </g>
    <g id="xtick_8">
     <g id="line2d_25">
      <g>
       <use style="fill:#ffffff;stroke:#000000;stroke-width:0.8;" x="729.654545" xlink:href="#me187c582e9" y="345.6"/>
      </g>
     </g>
     <g id="text_17">
      <!-- 4.50 -->
      <g transform="translate(708.654545 368.99125)scale(0.24 -0.24)">
       <use xlink:href="#STIXGeneral-Regular-52"/>
       <use x="49.999985" xlink:href="#STIXGeneral-Regular-46"/>
       <use x="74.999969" xlink:href="#STIXGeneral-Regular-53"/>
       <use x="124.999954" xlink:href="#STIXGeneral-Regular-48"/>
      </g>
     </g>
    </g>
    <g id="xtick_9">
     <g id="line2d_26">
      <g>
       <use style="fill:#ffffff;stroke:#000000;stroke-width:0.8;" x="818.427273" xlink:href="#me187c582e9" y="345.6"/>
      </g>
     </g>
     <g id="text_18">
      <!-- 4.75 -->
      <g transform="translate(797.427273 368.99125)scale(0.24 -0.24)">
       <use xlink:href="#STIXGeneral-Regular-52"/>
       <use x="49.999985" xlink:href="#STIXGeneral-Regular-46"/>
       <use x="74.999969" xlink:href="#STIXGeneral-Regular-55"/>
       <use x="124.999954" xlink:href="#STIXGeneral-Regular-53"/>
      </g>
     </g>
    </g>
    <g id="xtick_10">
     <g id="line2d_27">
      <g>
       <use style="fill:#ffffff;stroke:#000000;stroke-width:0.8;" x="907.2" xlink:href="#me187c582e9" y="345.6"/>
      </g>
     </g>
     <g id="text_19">
      <!-- 5.00 -->
      <g transform="translate(886.2 368.99125)scale(0.24 -0.24)">
       <use xlink:href="#STIXGeneral-Regular-53"/>
       <use x="49.999985" xlink:href="#STIXGeneral-Regular-46"/>
       <use x="74.999969" xlink:href="#STIXGeneral-Regular-48"/>
       <use x="124.999954" xlink:href="#STIXGeneral-Regular-48"/>
      </g>
     </g>
    </g>
    <g id="text_20">
     <!-- $\^t$ -->
     <g transform="translate(726.294545 394.59125)scale(0.24 -0.24)">
      <use transform="translate(39.042969 16.59375)" xlink:href="#STIXGeneral-Regular-770"/>
      <use transform="translate(0 0.203125)" xlink:href="#STIXGeneral-Italic-116"/>
     </g>
    </g>
   </g>
   <g id="matplotlib.axis_4">
    <g id="ytick_4">
     <g id="line2d_28">
      <g>
       <use style="fill:#ffffff;stroke:#000000;stroke-width:0.8;" x="552.109091" xlink:href="#m6e81dfdc62" y="298.472727"/>
      </g>
     </g>
     <g id="text_21">
      <!-- 0 -->
      <g transform="translate(533.109091 306.668352)scale(0.24 -0.24)">
       <use xlink:href="#STIXGeneral-Regular-48"/>
      </g>
     </g>
    </g>
    <g id="ytick_5">
     <g id="line2d_29">
      <g>
       <use style="fill:#ffffff;stroke:#000000;stroke-width:0.8;" x="552.109091" xlink:href="#m6e81dfdc62" y="204.218182"/>
      </g>
     </g>
     <g id="text_22">
      <!-- 2 -->
      <g transform="translate(533.109091 212.413807)scale(0.24 -0.24)">
       <use xlink:href="#STIXGeneral-Regular-50"/>
      </g>
     </g>
    </g>
    <g id="ytick_6">
     <g id="line2d_30">
      <g>
       <use style="fill:#ffffff;stroke:#000000;stroke-width:0.8;" x="552.109091" xlink:href="#m6e81dfdc62" y="109.963636"/>
      </g>
     </g>
     <g id="text_23">
      <!-- 4 -->
      <g transform="translate(533.109091 118.159261)scale(0.24 -0.24)">
       <use xlink:href="#STIXGeneral-Regular-52"/>
      </g>
     </g>
    </g>
    <g id="text_24">
     <!-- $C_D$ -->
     <g transform="translate(523.900341 230.64)rotate(-90)scale(0.24 -0.24)">
      <defs>
       <path d="M 13.09375 65.296875 
L 40.796875 65.296875 
Q 54.203125 65.296875 62.09375 58.296875 
Q 70 51.296875 70 38.40625 
Q 70 20.703125 54 8.296875 
Q 43.40625 0 24.90625 0 
L -0.796875 0 
L -0.796875 1.59375 
Q 3.5 2.40625 4.84375 3.59375 
Q 6.203125 4.796875 7.40625 9.203125 
L 19.59375 53.703125 
Q 20.703125 57.59375 20.703125 59.59375 
Q 20.703125 61.703125 19.09375 62.640625 
Q 17.5 63.59375 13.09375 63.703125 
z
M 31 58.40625 
L 19.203125 16.203125 
Q 17 8.203125 17 6.703125 
Q 17 3 23.796875 3 
Q 38.59375 3 47.90625 12 
Q 53.09375 17 56 24.953125 
Q 58.90625 32.90625 58.90625 40.796875 
Q 58.90625 52.90625 51.09375 58.796875 
Q 46.40625 62.296875 38 62.296875 
Q 34.796875 62.296875 33.25 61.546875 
Q 31.703125 60.796875 31 58.40625 
z
" id="STIXGeneral-Italic-68"/>
      </defs>
      <use transform="translate(0 0.40625)" xlink:href="#STIXGeneral-Italic-67"/>
      <use transform="translate(66.699997 -12.821875)scale(0.7)" xlink:href="#STIXGeneral-Italic-68"/>
     </g>
    </g>
   </g>
   <g id="line2d_31">
    <path clip-path="url(#p4c130e296e)" d="M 551.754 246.658841 
L 552.109091 251.572948 
L 552.464182 340.481033 
L 555.304909 302.889331 
L 557.435455 277.415986 
L 559.210909 258.456526 
L 560.986364 241.670666 
L 562.761818 227.013733 
L 564.537273 214.244649 
L 566.312727 203.121717 
L 568.088182 193.339667 
L 569.863636 184.711005 
L 571.639091 177.091649 
L 573.769636 169.028472 
L 576.255273 160.634838 
L 578.030727 155.269083 
L 579.806182 150.543167 
L 581.226545 147.358668 
L 582.291818 145.418987 
L 583.357091 143.940486 
L 584.067273 143.236484 
L 584.777455 142.784121 
L 585.487636 142.610693 
L 586.197818 142.740203 
L 586.908 143.1949 
L 587.618182 144.000337 
L 588.328364 145.182452 
L 589.038545 146.76207 
L 589.748727 148.766043 
L 590.814 152.617835 
L 591.879273 157.547566 
L 592.944545 163.597826 
L 594.009818 170.805181 
L 595.430182 182.218977 
L 596.850545 194.307983 
L 597.205636 192.788392 
L 597.560727 192.680915 
L 597.915818 193.007315 
L 607.858364 197.383118 
L 609.988909 197.989021 
L 612.119455 198.41034 
L 614.605091 198.684811 
L 617.445818 198.736719 
L 620.996727 198.510584 
L 625.257818 197.955874 
L 643.722545 195.156906 
L 650.114182 194.47979 
L 657.571091 193.851772 
L 668.934 193.150315 
L 671.419636 193.052339 
L 673.905273 192.932027 
L 676.390909 192.853941 
L 678.876545 192.749606 
L 681.362182 192.689355 
L 683.847818 192.606497 
L 685.268182 192.586878 
L 685.623273 192.168517 
L 686.333455 189.436488 
L 687.398727 186.073261 
L 689.174182 179.829153 
L 691.304727 171.494994 
L 693.790364 160.868026 
L 698.406545 139.587583 
L 701.957455 123.39952 
L 703.732909 115.946151 
L 705.508364 109.308083 
L 706.928727 104.774391 
L 707.994 101.931353 
L 709.059273 99.670969 
L 709.769455 98.549058 
L 710.479636 97.74404 
L 711.189818 97.302675 
L 711.9 97.240855 
L 712.610182 97.614322 
L 713.320364 98.419271 
L 714.030545 99.687624 
L 714.740727 101.47506 
L 715.450909 103.769742 
L 716.161091 106.586212 
L 717.226364 111.846936 
L 718.291636 118.390225 
L 719.356909 126.22738 
L 720.777273 138.635191 
L 722.197636 153.128123 
L 723.973091 173.769034 
L 726.103636 201.32573 
L 729.654545 250.21443 
L 730.009636 341.873901 
L 732.850364 304.425015 
L 734.980909 279.036432 
L 736.756364 260.070108 
L 738.531818 243.221526 
L 740.662364 225.74557 
L 742.437818 213.211818 
L 744.213273 202.22987 
L 745.988727 192.54182 
L 747.764182 183.958141 
L 749.894727 174.963652 
L 752.025273 167.059719 
L 754.155818 159.934205 
L 756.286364 153.645287 
L 757.706727 150.001686 
L 758.772 147.635621 
L 759.837273 145.677962 
L 760.902545 144.190936 
L 761.967818 143.223856 
L 762.678 142.906497 
L 763.388182 142.877593 
L 764.098364 143.165417 
L 764.808545 143.79096 
L 765.518727 144.771955 
L 766.228909 146.143578 
L 767.294182 148.998753 
L 768.359455 152.833766 
L 769.424727 157.756415 
L 770.49 163.784029 
L 771.555273 170.970142 
L 772.975636 182.349653 
L 774.396 194.401438 
L 774.751091 192.873188 
L 775.106182 192.744298 
L 775.461273 193.073755 
L 777.236727 193.800155 
L 780.432545 195.212165 
L 786.114 197.258213 
L 790.02 197.981588 
L 791.795455 198.14736 
L 796.766727 198.065012 
L 807.419455 196.613534 
L 814.521273 195.562342 
L 820.557818 194.839233 
L 829.435091 194.06281 
L 837.247091 193.566353 
L 846.124364 193.137738 
L 862.103455 192.673235 
L 862.813636 192.672217 
L 863.168727 192.24589 
L 863.878909 189.522328 
L 865.299273 184.976177 
L 867.429818 177.255099 
L 869.560364 168.685215 
L 872.401091 156.23923 
L 881.278364 116.360169 
L 883.053818 109.797264 
L 884.474182 105.338648 
L 885.539455 102.564522 
L 886.604727 100.382924 
L 887.314909 99.294633 
L 888.025091 98.535419 
L 888.735273 98.13248 
L 889.445455 98.116869 
L 890.155636 98.521294 
L 890.865818 99.372035 
L 891.576 100.685958 
L 892.286182 102.492656 
L 892.996364 104.809421 
L 894.061636 109.275533 
L 895.126909 114.994203 
L 896.192182 121.977218 
L 897.257455 130.228238 
L 898.677818 143.151141 
L 900.098182 158.087919 
L 901.873636 179.150992 
L 904.359273 211.805755 
L 906.844909 245.992781 
L 907.2 346.087488 
L 907.2 346.087488 
" style="fill:none;stroke:#1f77b4;stroke-linecap:square;stroke-width:4;"/>
   </g>
   <g id="line2d_32">
    <path clip-path="url(#p4c130e296e)" d="M 551.754 352.381862 
L 552.109091 354.466985 
L 552.464182 240.456982 
L 553.884545 233.048421 
L 555.304909 226.761952 
L 556.725273 221.599935 
L 557.790545 218.438764 
L 558.855818 215.843942 
L 559.921091 213.79456 
L 560.986364 212.22885 
L 562.051636 211.094526 
L 563.116909 210.31887 
L 564.182182 209.836302 
L 565.247455 209.558987 
L 566.667818 209.416392 
L 570.573818 209.21492 
L 571.994182 208.877486 
L 573.414545 208.305191 
L 574.834909 207.460202 
L 576.255273 206.361485 
L 578.030727 204.69501 
L 583.712182 199.05496 
L 585.132545 198.086893 
L 586.197818 197.599454 
L 587.263091 197.35882 
L 588.328364 197.402665 
L 589.393636 197.760967 
L 590.458909 198.466609 
L 591.524182 199.546948 
L 592.589455 201.025219 
L 593.654727 202.924156 
L 594.72 205.262087 
L 595.785273 208.053116 
L 596.850545 210.864027 
L 597.205636 210.323933 
L 597.560727 210.226752 
L 598.270909 210.244348 
L 601.821818 209.868042 
L 608.923636 208.799631 
L 618.866182 207.300178 
L 625.968 206.430638 
L 632.714727 205.799262 
L 641.236909 205.241322 
L 651.534545 204.854516 
L 660.411818 204.70862 
L 666.448364 204.718813 
L 670.354364 204.753397 
L 676.390909 204.891502 
L 680.296909 205.006347 
L 685.623273 205.281867 
L 686.688545 205.820567 
L 692.014909 208.078518 
L 699.471818 210.976623 
L 700.892182 211.871444 
L 702.312545 213.021992 
L 703.732909 214.542461 
L 705.153273 216.515392 
L 706.218545 218.351228 
L 707.283818 220.544804 
L 708.349091 223.136379 
L 709.769455 227.284582 
L 711.189818 232.289455 
L 712.610182 238.224782 
L 714.030545 245.114188 
L 715.806 255.088422 
L 717.581455 266.479252 
L 719.712 281.659324 
L 723.618 311.791837 
L 726.458727 333.186762 
L 728.589273 347.584735 
L 729.654545 354.013819 
L 730.009636 240.91942 
L 731.43 233.517452 
L 732.850364 227.234079 
L 734.270727 222.07995 
L 735.336 218.915625 
L 736.401273 216.331142 
L 737.466545 214.276055 
L 738.531818 212.68169 
L 739.597091 211.558181 
L 740.662364 210.762213 
L 742.082727 210.153251 
L 743.503091 209.887016 
L 745.633636 209.793425 
L 747.409091 209.69916 
L 748.829455 209.463093 
L 750.249818 209.003357 
L 751.670182 208.28854 
L 753.090545 207.312262 
L 754.866 205.762343 
L 757.351636 203.211277 
L 760.547455 200.006558 
L 761.967818 198.87702 
L 763.388182 198.069128 
L 764.453455 197.729366 
L 765.518727 197.658042 
L 766.584 197.897596 
L 767.294182 198.233747 
L 768.359455 199.037295 
L 769.424727 200.22915 
L 770.49 201.826588 
L 771.555273 203.846615 
L 772.620545 206.314065 
L 773.685818 209.23573 
L 774.040909 210.322317 
L 774.396 210.992862 
L 774.751091 210.446245 
L 775.106182 210.336385 
L 775.816364 210.338433 
L 777.946909 210.095325 
L 781.142727 209.623104 
L 787.889455 208.467366 
L 794.636182 207.379149 
L 798.187091 206.870564 
L 801.738 206.416205 
L 808.129636 205.763426 
L 814.876364 205.265966 
L 824.463818 204.815685 
L 833.341091 204.611368 
L 845.059091 204.599821 
L 854.291455 204.78153 
L 862.813636 205.106023 
L 863.168727 205.175014 
L 864.234 205.714259 
L 868.850182 207.717941 
L 873.466364 209.36173 
L 875.952 210.36415 
L 877.727455 211.323725 
L 879.147818 212.342421 
L 880.568182 213.678166 
L 881.988545 215.417763 
L 883.053818 217.046182 
L 884.119091 219.000369 
L 885.184364 221.327926 
L 886.604727 225.082326 
L 888.025091 229.658574 
L 889.445455 235.132143 
L 890.865818 241.558638 
L 892.286182 248.94957 
L 894.061636 259.513983 
L 895.837091 271.40703 
L 898.322727 289.737693 
L 904.714364 338.169489 
L 906.489818 349.750419 
L 906.844909 351.893506 
L 907.2 242.973787 
L 907.2 242.973787 
" style="fill:none;stroke:#ff7f0e;stroke-linecap:square;stroke-width:4;"/>
   </g>
   <g id="line2d_33">
    <path clip-path="url(#p4c130e296e)" d="M 551.754 350.694605 
L 552.109091 352.189753 
L 552.464182 243.308014 
L 553.884545 238.023807 
L 555.304909 233.543619 
L 556.725273 229.855707 
L 558.145636 226.918736 
L 559.210909 225.172831 
L 560.276182 223.801801 
L 561.341455 222.775966 
L 562.406727 222.063735 
L 563.472 221.628455 
L 564.537273 221.418443 
L 565.957636 221.413452 
L 568.088182 221.718329 
L 570.218727 221.966387 
L 571.639091 221.907066 
L 573.059455 221.603013 
L 574.479818 221.024002 
L 575.900182 220.177093 
L 577.675636 218.796231 
L 580.161273 216.476852 
L 584.422364 212.439615 
L 586.197818 211.080142 
L 587.618182 210.248683 
L 588.683455 209.818788 
L 589.748727 209.586597 
L 590.814 209.579051 
L 591.879273 209.822754 
L 592.944545 210.3436 
L 594.009818 211.167372 
L 595.075091 212.315921 
L 596.140364 213.809289 
L 596.495455 214.392971 
L 596.850545 214.753011 
L 597.205636 214.436148 
L 597.915818 214.363531 
L 611.409273 213.37915 
L 620.996727 213.003987 
L 629.163818 212.883335 
L 641.592 212.966037 
L 656.860909 213.266126 
L 673.905273 213.828798 
L 684.202909 214.326757 
L 685.623273 214.48158 
L 686.688545 215.343429 
L 688.819091 217.05453 
L 692.37 220.228472 
L 695.565818 223.329211 
L 698.051455 226.000177 
L 700.182 228.612394 
L 701.957455 231.13847 
L 703.377818 233.469167 
L 704.798182 236.147858 
L 706.218545 239.237632 
L 707.638909 242.814991 
L 709.059273 246.942424 
L 710.479636 251.678156 
L 711.9 257.053812 
L 713.675455 264.705823 
L 715.450909 273.349224 
L 717.581455 284.898385 
L 720.422182 301.6792 
L 725.038364 329.236027 
L 727.168909 340.678236 
L 728.944364 349.070156 
L 729.654545 352.101288 
L 730.009636 243.404901 
L 731.43 238.130382 
L 732.850364 233.663684 
L 734.270727 229.988584 
L 735.691091 227.063254 
L 736.756364 225.322782 
L 737.821636 223.951416 
L 738.886909 222.938595 
L 739.952182 222.217229 
L 741.017455 221.787871 
L 742.082727 221.569902 
L 743.503091 221.571443 
L 745.633636 221.862357 
L 747.409091 222.086143 
L 748.829455 222.086086 
L 750.249818 221.846073 
L 751.670182 221.337308 
L 753.090545 220.554853 
L 754.510909 219.529021 
L 756.641455 217.636817 
L 763.033091 211.673777 
L 764.453455 210.703277 
L 765.873818 210.013686 
L 766.939091 209.695904 
L 768.004364 209.599495 
L 769.069636 209.740269 
L 770.134909 210.153211 
L 771.200182 210.861227 
L 772.265455 211.884856 
L 773.330727 213.249 
L 774.396 214.719909 
L 774.751091 214.399474 
L 775.461273 214.323168 
L 782.208 213.704723 
L 796.411636 212.906884 
L 811.680545 212.749371 
L 824.818909 212.947966 
L 845.059091 213.48746 
L 858.197455 214.039057 
L 863.168727 214.377979 
L 863.878909 214.986125 
L 865.654364 216.360358 
L 868.850182 219.144867 
L 872.401091 222.514264 
L 875.241818 225.500314 
L 877.372364 228.052453 
L 879.147818 230.504953 
L 880.923273 233.374097 
L 882.343636 236.052671 
L 883.764 239.14693 
L 885.184364 242.726429 
L 886.604727 246.855401 
L 888.025091 251.589293 
L 889.800545 258.415352 
L 891.576 266.268648 
L 893.351455 275.103375 
L 895.482 286.840605 
L 898.677818 305.90826 
L 902.583818 329.143397 
L 904.714364 340.580653 
L 906.489818 348.981484 
L 906.844909 350.522501 
L 907.2 244.932659 
L 907.2 244.932659 
" style="fill:none;stroke:#2ca02c;stroke-linecap:square;stroke-width:4;"/>
   </g>
   <g id="line2d_34">
    <path clip-path="url(#p4c130e296e)" d="M 551.754 345.17715 
L 552.109091 346.431195 
L 552.464182 249.295941 
L 554.239636 243.764278 
L 555.66 239.994438 
L 557.080364 236.801915 
L 558.500727 234.176522 
L 559.566 232.576103 
L 560.631273 231.298234 
L 561.696545 230.320679 
L 562.761818 229.652964 
L 563.827091 229.255839 
L 564.892364 229.088147 
L 566.667818 229.159657 
L 569.863636 229.44341 
L 571.284 229.335438 
L 572.704364 228.979878 
L 574.124727 228.354654 
L 575.545091 227.479678 
L 577.320545 226.092513 
L 579.451091 224.135845 
L 585.842727 218.014423 
L 587.618182 216.676209 
L 589.038545 215.851554 
L 590.458909 215.30847 
L 591.524182 215.124144 
L 592.589455 215.160222 
L 593.654727 215.441409 
L 594.72 215.990983 
L 595.785273 216.829295 
L 596.850545 217.802986 
L 597.205636 217.583143 
L 598.270909 217.502395 
L 603.597273 217.246724 
L 608.923636 217.234459 
L 616.380545 217.478813 
L 630.584182 218.206764 
L 645.498 218.951074 
L 655.795636 219.265122 
L 678.876545 219.853345 
L 685.623273 220.19834 
L 686.688545 221.027771 
L 688.464 222.453266 
L 690.594545 224.413326 
L 693.435273 227.3427 
L 696.276 230.614253 
L 698.761636 233.822724 
L 700.892182 236.950591 
L 702.667636 239.920267 
L 704.443091 243.313268 
L 706.218545 247.246654 
L 707.994 251.812408 
L 709.769455 257.102473 
L 711.544909 263.178 
L 713.320364 270.066934 
L 715.450909 279.36061 
L 717.936545 291.372989 
L 726.458727 333.837134 
L 728.234182 341.153945 
L 729.654545 346.380071 
L 730.009636 249.354696 
L 731.43 244.865251 
L 732.850364 240.960012 
L 734.270727 237.630685 
L 735.691091 234.870684 
L 736.756364 233.164434 
L 737.821636 231.765854 
L 738.886909 230.701573 
L 739.952182 229.923044 
L 741.017455 229.450971 
L 742.082727 229.204836 
L 743.503091 229.168418 
L 748.474364 229.446373 
L 749.894727 229.154209 
L 751.315091 228.596688 
L 752.735455 227.777193 
L 754.155818 226.729091 
L 756.286364 224.852082 
L 764.098364 217.403516 
L 765.518727 216.39741 
L 766.939091 215.622645 
L 768.359455 215.145748 
L 769.424727 215.023612 
L 770.49 215.128087 
L 771.555273 215.487653 
L 772.620545 216.124871 
L 773.685818 217.056138 
L 774.396 217.676176 
L 774.751091 217.453475 
L 775.816364 217.361263 
L 782.918182 217.044905 
L 790.730182 217.143922 
L 809.905091 218.093697 
L 823.398545 218.77406 
L 833.696182 219.083635 
L 854.291455 219.616389 
L 862.813636 219.950872 
L 863.168727 220.046636 
L 864.234 220.875727 
L 866.364545 222.613115 
L 868.850182 224.965384 
L 871.690909 227.982453 
L 874.531636 231.348369 
L 876.662182 234.175152 
L 878.792727 237.373661 
L 880.568182 240.423065 
L 882.343636 243.924106 
L 884.119091 247.977329 
L 885.894545 252.684957 
L 887.67 258.135072 
L 889.445455 264.38077 
L 891.220909 271.44389 
L 893.351455 280.918208 
L 895.837091 293.088904 
L 903.294 330.632975 
L 905.424545 339.745616 
L 906.844909 345.123048 
L 907.2 250.57098 
L 907.2 250.57098 
" style="fill:none;stroke:#d62728;stroke-linecap:square;stroke-width:4;"/>
   </g>
   <g id="line2d_35">
    <path clip-path="url(#p4c130e296e)" d="M 552.109091 298.472727 
L 907.2 298.472727 
" style="fill:none;stroke:#000000;stroke-dasharray:3.2,0.8,0.5,0.8;stroke-dashoffset:0;stroke-width:0.5;"/>
   </g>
   <g id="line2d_36">
    <path clip-path="url(#p4c130e296e)" d="M 729.654545 345.6 
L 729.654545 86.4 
" style="fill:none;stroke:#000000;stroke-dasharray:3.2,0.8,0.5,0.8;stroke-dashoffset:0;stroke-width:0.5;"/>
   </g>
   <g id="patch_8">
    <path d="M 552.109091 345.6 
L 552.109091 86.4 
" style="fill:none;stroke:#000000;stroke-linecap:square;stroke-linejoin:miter;stroke-width:0.8;"/>
   </g>
   <g id="patch_9">
    <path d="M 907.2 345.6 
L 907.2 86.4 
" style="fill:none;stroke:#000000;stroke-linecap:square;stroke-linejoin:miter;stroke-width:0.8;"/>
   </g>
   <g id="patch_10">
    <path d="M 552.109091 345.6 
L 907.2 345.6 
" style="fill:none;stroke:#000000;stroke-linecap:square;stroke-linejoin:miter;stroke-width:0.8;"/>
   </g>
   <g id="patch_11">
    <path d="M 552.109091 86.4 
L 907.2 86.4 
" style="fill:none;stroke:#000000;stroke-linecap:square;stroke-linejoin:miter;stroke-width:0.8;"/>
   </g>
  </g>
 </g>
 <defs>
  <clipPath id="p1a728bad73">
   <rect height="259.2" width="355.090909" x="126" y="86.4"/>
  </clipPath>
  <clipPath id="p4c130e296e">
   <rect height="259.2" width="355.090909" x="552.109091" y="86.4"/>
  </clipPath>
 </defs>
</svg>
